<?xml version="1.0" encoding="UTF-8"?>
<svg width="505.19" height="689.38" version="1.1" viewBox="0 0 505.19 689.38" xml:space="preserve" xmlns="http://www.w3.org/2000/svg"><defs><clipPath id="c"><path d="m27 198.87h513v539.13h-513z"/></clipPath><clipPath id="b"><path d="m27 198.87h513v539.13h-513z"/></clipPath><clipPath id="a"><path d="m27 198.87h513v539.13h-513z"/></clipPath></defs><g transform="matrix(1.3333 0 0 -1.3333 -125.61 954.54)"><g clip-path="url(#c)"><g transform="translate(131.6 503.45)"><path d="m0 0h65.289s6.697-1.674 10.045 4.689l39.843 70.985s3.684 6.361 4.018 17.745v22.433s4.688 24.776 5.692 27.12v60.008m158.14-202.98h-65.29s-6.697-1.674-10.044 4.689l-39.844 70.985s-3.684 6.361-4.018 17.745v22.433s-4.687 24.776-5.691 27.12v60.008m-158.14-216.22h65.289s6.697 1.673 10.045-4.688l39.843-70.982s3.684-6.361 4.018-17.744v-22.433s4.688-24.776 5.692-27.119v-109.59m158.14 252.55h-65.29s-6.697 1.673-10.044-4.688l-39.844-70.982s-3.684-6.361-4.018-17.744v-22.433s-4.687-24.776-5.691-27.119v-109.59m-33.489 265.45h-34.126s-9.997-2.412-5.171 7.934l36.883 67.909s2.069 2.759 2.069-7.239zm0-11.936h-34.126s-9.997 2.414-5.171-7.927l36.883-67.909s2.069-2.757 2.069 7.239zm32.211 11.936h34.125s9.999-2.412 5.172 7.934l-36.884 67.909s-2.069 2.759-2.069-7.239zm0-11.936h34.125s9.999 2.414 5.172-7.927l-36.884-67.909s-2.069-2.757-2.069 7.239z" fill="none" stroke="#000" stroke-width="1.327"/></g><g stroke="#000"><g stroke-width="1.1"><path d="m270.05 479.67h-2.37v33.787h2.37z"/><path d="m291.58 479.5h-3.057v33.788h3.057z"/><path d="m256.18 479.5h-3.056v33.788h3.056z"/></g><path d="m278.34 479.67h-2.814v33.787h2.814z" stroke-width="1.199"/></g><g transform="translate(277.54 329.87)"><path d="m0 0c0-2.467-2-4.465-4.467-4.465-2.465 0-4.465 1.998-4.465 4.465 0 2.466 2 4.464 4.465 4.464 2.467 0 4.467-1.998 4.467-4.464"/><path d="m0 0c0-2.467-2-4.465-4.467-4.465-2.465 0-4.465 1.998-4.465 4.465 0 2.466 2 4.464 4.465 4.464 2.467 0 4.467-1.998 4.467-4.464z" fill="none" stroke="#000" stroke-width="1.1"/></g><g transform="translate(266.54 706.43)"><path d="m0 0v-468.78" fill="#fff" stroke="#000" stroke-width="1.33"/></g><g transform="translate(278.7 706.43)"><path d="m0 0v-468.78" fill="#fff" stroke="#000" stroke-width="1.33"/></g><g transform="translate(268.78 502.99)"><path d="m0 0h7.884" stroke="#000" stroke-width="1.44"/></g><g transform="translate(268.14 490.84)"><path d="m0 0h8.737" stroke="#000" stroke-width="1.44"/></g><g transform="translate(368.81 654.38)"><path d="m0 0c-9.747 1.981-16.821 10.655-16.821 20.625 0 4.698 1.638 9.45 4.494 13.037l0.053 0.067 0.082-0.025c1.874-0.578 4.096-0.91 6.097-0.91 2.004 0 4.222 0.326 6.087 0.894 1.944-0.568 4.164-0.894 6.167-0.894 1.999 0 4.222 0.332 6.098 0.91l0.082 0.025 0.053-0.067c2.856-3.599 4.494-8.351 4.494-13.037 0-9.967-7.081-18.641-16.836-20.625l-0.025-5e-3z" fill="#fff" fill-rule="evenodd"/></g><g transform="translate(381.19 688.25)"><path d="m0 0-0.163-0.05c-1.865-0.575-4.074-0.904-6.062-0.904-1.991 0-4.199 0.324-6.058 0.889l-0.073 0.021-0.073-0.021c-1.852-0.565-4.058-0.889-6.05-0.889-1.989 0-4.198 0.329-6.061 0.904l-0.163 0.05-0.106-0.133c-2.874-3.61-4.521-8.39-4.521-13.116 0-10.028 7.116-18.754 16.921-20.747l0.05-0.01 0.049 0.01c9.814 1.995 16.937 10.721 16.937 20.747 0 4.713-1.648 9.494-4.521 13.115zm-0.09-0.289c2.854-3.597 4.467-8.302 4.467-12.96 0-9.885-7.098-18.542-16.736-20.502-9.641 1.96-16.721 10.617-16.721 20.502 0 4.658 1.603 9.363 4.467 12.96 1.881-0.58 4.091-0.915 6.134-0.915s4.248 0.328 6.123 0.899c1.881-0.571 4.086-0.899 6.131-0.899 2.043 0 4.252 0.335 6.135 0.915"/></g><g transform="translate(358.83 661.25)"><path d="m0 0-0.559 0.61-0.541 0.631-0.51 0.651-0.484 0.673-0.457 0.694-0.424 0.714-0.396 0.735-0.366 0.744-0.338 0.76-0.3 0.778-0.266 0.796-0.242 0.803-0.203 0.821-0.166 0.828-0.133 0.839-0.09 0.849-0.057 0.851-0.023 0.872 4e-3 0.405 0.019 0.414 0.016 0.407 0.029 0.411 0.041 0.407 0.047 0.41 0.059 0.406 0.058 0.407 0.077 0.403 0.08 0.405 0.091 0.407 0.147 0.569h29.814l0.125-0.569 0.084-0.407 0.084-0.405 0.08-0.403 0.059-0.407 0.062-0.406 0.043-0.41 0.04-0.407 0.031-0.411 0.025-0.407 0.01-0.414 4e-3 -0.405-0.02-0.872-0.056-0.851-0.09-0.846-0.137-0.842-0.172-0.828-0.199-0.821-0.236-0.803-0.27-0.796-0.305-0.778-0.339-0.76-0.368-0.744-0.392-0.732-0.426-0.717-0.457-0.694-0.484-0.673-0.504-0.651-0.541-0.631-0.565-0.61-0.588-0.584-0.613-0.559-0.635-0.527-0.662-0.511-0.677-0.482-0.706-0.445-0.72-0.427-0.741-0.397-0.755-0.353-0.776-0.328-0.795-0.3-0.808-0.259-0.826-0.228-0.706-0.159-0.712 0.159-0.823 0.228-0.806 0.259-0.797 0.3-0.774 0.328-0.759 0.353-0.743 0.397-0.718 0.427-0.7 0.445-0.675 0.482-0.664 0.509-0.635 0.529-0.611 0.559z" fill="#005596" fill-rule="evenodd"/></g><g transform="translate(354.14 680.63)"><path d="m0 0 0.096 0.336 0.131 0.391 0.138 0.383 0.143 0.39 0.156 0.381 0.16 0.374 0.166 0.376 0.182 0.371 0.182 0.366 0.187 0.359 0.197 0.355 0.206 0.351 0.214 0.348 0.223 0.343 0.225 0.338 0.232 0.325 0.213 0.285c0.463-0.125 0.928-0.239 1.4-0.338 0.254-0.048 0.518-0.099 0.772-0.142 0.328-0.054 0.652-0.099 0.978-0.14 0.266-0.038 0.526-0.061 0.793-0.084 0.262-0.02 0.524-0.041 0.784-0.054 0.257-0.014 0.521-0.025 0.781-0.025 0.258-2e-3 0.515 0 0.773 8e-3 0.264 8e-3 0.524 0.02 0.783 0.041 0.262 0.015 0.526 0.04 0.786 0.065 0.263 0.029 0.525 0.059 0.789 0.09 0.255 0.038 0.521 0.083 0.781 0.127 0.254 0.046 0.508 0.091 0.769 0.15 0.184 0.038 0.371 0.079 0.561 0.125 0.303 0.071 0.598 0.155 0.896 0.241 0.299-0.086 0.598-0.17 0.903-0.241 0.252-0.062 0.5-0.115 0.754-0.171 0.256-0.045 0.509-0.097 0.771-0.14 0.26-0.043 0.522-0.081 0.781-0.117 0.329-0.035 0.655-0.073 0.983-0.104 0.26-0.015 0.527-0.036 0.787-0.05 0.262-0.013 0.516-0.024 0.775-0.024 0.262-2e-3 0.522 0 0.78 8e-3 0.263 8e-3 0.519 0.02 0.781 0.043 0.266 0.013 0.527 0.038 0.791 0.063 0.26 0.029 0.523 0.062 0.789 0.1 0.256 0.038 0.519 0.081 0.777 0.124 0.317 0.054 0.639 0.122 0.959 0.191 0.344 0.077 0.684 0.155 1.022 0.254l0.209-0.285 0.234-0.325 0.229-0.338 0.218-0.343 0.215-0.348 0.205-0.351 0.198-0.355 0.187-0.359 0.186-0.366 0.177-0.371 0.168-0.376 0.162-0.374 0.153-0.381 0.146-0.39 0.135-0.383 0.131-0.391 0.101-0.336z" fill="#c0311a" fill-rule="evenodd"/></g><g transform="translate(379.21 681.31)"><path d="m0 0v0.478h-1.241v1.116h0.705v0.46h-0.705v0.851h1.11v0.473h-1.592v-3.378zm-2.184 2.933v0.445h-1.721v-0.445h0.615v-2.933h0.491v2.933zm-2.764-1.53h-0.482l0.234 0.973zm0.842-1.403-0.842 3.378h-0.474l-0.844-3.378h0.486l0.229 0.925h0.72l0.239-0.925zm-2.359 2.933v0.445h-1.721v-0.445h0.613v-2.933h0.487v2.933zm-2.028-2.008c0 0.485-0.287 0.851-0.945 1.235-0.244 0.146-0.316 0.236-0.316 0.405 0 0.218 0.177 0.388 0.404 0.388 0.211 0 0.377-0.149 0.392-0.388h0.465c-0.013 0.51-0.384 0.876-0.857 0.876-0.488 0-0.865-0.391-0.865-0.876 0-0.297 0.14-0.56 0.414-0.748 0.687-0.464 0.502-0.333 0.574-0.407 0.193-0.152 0.269-0.292 0.269-0.485 0-0.27-0.222-0.508-0.48-0.508-0.33 0-0.473 0.3-0.473 0.579h-0.472c0-0.558 0.355-1.059 0.945-1.059 0.522 0 0.945 0.444 0.945 0.988m-2.756 1.558c0-0.274-0.154-0.429-0.437-0.429h-0.502v0.851h0.502c0.26 0 0.437-0.163 0.437-0.422m0.475-2.483-0.486 1.66c0.32 0.116 0.486 0.419 0.486 0.823 0 0.546-0.353 0.895-0.891 0.895h-1.013v-3.378h0.49v1.594h0.463l0.455-1.594zm-2.473 0v0.478h-1.232v1.116h0.701v0.46h-0.701v0.851h1.107v0.473h-1.593v-3.378zm-2.179 2.933v0.445h-1.721v-0.445h0.615v-2.933h0.491v2.933zm-2.184-2.933v3.378h-0.484v-2.025l-0.928 2.025h-0.486v-3.378h0.486v2.268l1.045-2.268zm-2.637 3.378h-0.47v-3.378h0.47z" fill="#fff" fill-rule="evenodd"/></g><g transform="translate(358.87 662.87)"><path d="m0 0c0.047 1.582 0.382 2.876 1.15 4.17 0.574 1.055 1.438 1.917 2.397 2.637 0.238 0.143 0.431 0.287 0.623 0.431l0.718 0.383 0.67 0.384 0.672 0.383c0.527 0.336 0.91 0.911 0.91 1.486 0 1.007-1.15 1.822-2.492 1.822-1.391 0-2.252-0.672-2.492-1.918l-2.156 0.48c0.478 2.252 2.252 3.642 4.648 3.642 2.588 0 4.651-1.821 4.651-4.074 0-1.054-0.481-2.109-1.391-2.924-0.192-0.144-0.383-0.287-0.576-0.383l-0.67-0.432-0.719-0.383-0.672-0.384c-1.293-0.766-2.014-1.581-2.683-3.115h6.711v-2.205z" fill="#fff"/></g><g transform="translate(374.21 662.63)"><path d="m0 0c-1.2 0-2.397 0.288-3.356 0.767l1.055 1.917c0.574-0.288 1.582-0.479 2.588-0.479 1.965 0 3.5 1.294 3.5 3.067 0 1.343-1.104 2.397-2.446 2.397-0.959 0-1.39-0.287-2.205-1.438l-2.156 0.623 0.334 7.046h7.861v-2.156h-5.752l-0.142-2.253c1.006 0.287 1.437 0.383 2.109 0.383 2.492 0 4.553-2.109 4.553-4.602 0-3.019-2.492-5.272-5.943-5.272" fill="#fff"/></g><g transform="translate(355.09 706.24)"><path d="m0 0c-1.607 0-2.974-1.329-2.974-2.9v-11.137c0-1.604 1.336-2.909 2.974-2.909h27.481c1.644 0 2.98 1.305 2.98 2.909v11.137c0 1.596-1.336 2.9-2.98 2.9h-27.481" fill="none" stroke="#000" stroke-width=".25"/></g><g transform="translate(382.29 705.04)"><path d="m0 0c0.982-0.023 1.812-0.726 1.892-1.724l4e-3 -10.995c-0.029-0.998-0.803-1.751-1.787-1.826l-27.029-3e-3c-0.983 0.02-1.813 0.727-1.893 1.724l-4e-3 10.999c0.029 0.998 0.803 1.751 1.787 1.823l27.03 2e-3" fill="#005596" fill-rule="evenodd"/></g><g transform="translate(359.06 693.61)"><path d="m0 0-2.846 6.175v-6.175h-1.324v9.214h1.324l2.522-5.528v5.528h1.326v-9.214z" fill="#fff"/></g><g transform="translate(366.38 697.78)"><path d="m0 0c0 1.255-0.115 2.043-0.466 2.86-0.409 1.022-0.993 1.431-1.955 1.431-0.963 0-1.547-0.409-1.985-1.401-0.349-0.788-0.467-1.635-0.467-2.89 0-1.284 0.118-2.072 0.467-2.889 0.408-0.992 0.992-1.43 1.985-1.43 0.933 0 1.546 0.438 1.955 1.43 0.351 0.788 0.466 1.605 0.466 2.889m-1.136 0c0-0.963-0.059-1.459-0.264-2.13-0.205-0.701-0.525-1.022-1.021-1.022-0.526 0-0.846 0.321-1.051 1.022-0.176 0.671-0.262 1.196-0.262 2.101 0 0.934 0.057 1.489 0.262 2.131 0.205 0.7 0.525 1.021 1.051 1.021 0.496 0 0.816-0.321 1.021-1.051 0.176-0.612 0.264-1.138 0.264-2.072" fill="#fff"/></g><g transform="translate(372.42 693.61)"><path d="m0 0-1.195 4.086c0.787 0.292 1.195 1.021 1.195 2.014 0 1.342-0.875 2.218-2.187 2.218h-2.482v-8.318h1.197v3.911h1.138l1.11-3.911zm-1.166 6.1c0-0.671-0.38-1.051-1.08-1.051h-1.226v2.101h1.226c0.641 0 1.08-0.408 1.08-1.05" fill="#fff"/></g><g transform="translate(375.6 700.82)"><path d="m0 0v-7.209h-1.197v7.209h-1.518v1.109h4.233v-1.109z" fill="#fff"/></g><g transform="translate(381.44 693.61)"><path d="m0 0v3.765h-2.275v-3.765h-1.198v8.318h1.198v-3.386h2.275v3.386h1.197v-8.318z" fill="#fff"/></g></g><text transform="matrix(1 0 0 -1 265.16 709.44)" fill="#000000" font-family="Helvetica" font-size="9px"><tspan x="0 2.5020001 5.4990001 10.503" y="0">I-25</tspan><tspan x="-0.37799999 2.1240001 5.1209998 10.125" y="481.293">I-25</tspan><tspan x="151.776 156.78 162.33299 168.83099 175.32899 181.332 186.336 188.838 194.211 200.214 206.217" y="216.243">LAUREL AVE.</tspan><tspan x="-28.620001 -23.615999" y="383.103">11</tspan></text><g clip-path="url(#b)"><g transform="translate(300.43 691.22)"><path d="m0 0c0-27.699 47.682-34.171 53.012-28.842" fill="none" stroke="#000" stroke-width=".75"/></g><g transform="translate(299.89 692.46)"><path d="m0 0c-0.264-0.868-0.504-1.432-0.783-2.128h2.648c-0.119 0.249-0.521 1.26-0.783 2.128-0.281 0.929-0.473 1.771-0.541 2.318-0.068-0.547-0.262-1.389-0.541-2.318"/></g><g transform="translate(296.26 430.99)"><path d="m0 0v1.246h-4.797v-1.246h-1.757v-1.76h8.472v1.76h-0.959z"/></g><g transform="translate(292.89 425.62)"><path d="m0 0c-8.181-33.274-65.47-59.143-88.19-59.143" fill="none" stroke="#000" stroke-width=".75"/></g><g transform="translate(292.73 426.96)"><path d="m0 0c-0.502-0.755-0.897-1.225-1.365-1.811l2.535-0.766c-0.041 0.273-0.135 1.358-0.135 2.264 0 0.971 0.061 1.833 0.152 2.375-0.222-0.503-0.65-1.254-1.187-2.062"/></g><g transform="translate(300.46 338.04)"><path d="m0 0c1.327-22.058 27.862-16.567 41.7-16.567" fill="none" stroke="#000" stroke-width=".75"/></g><g transform="translate(299.92 339.28)"><path d="m0 0c-0.261-0.867-0.503-1.432-0.783-2.129h2.649c-0.118 0.25-0.522 1.262-0.784 2.129-0.279 0.929-0.472 1.771-0.541 2.318-0.068-0.547-0.259-1.389-0.541-2.318"/></g><g transform="translate(302.78 343.36)"><path d="m0 0v1.246h-4.797v-1.246h-1.758v-1.76h8.473v0.879 0.881h-0.959z"/></g><g transform="translate(346.02 474.88)"><path d="m0 0c0-13.342 8.148-16.304 18.295-16.304" fill="none" stroke="#000" stroke-width=".75"/></g><g transform="translate(345.49 476.12)"><path d="m0 0c-0.264-0.867-0.504-1.431-0.783-2.129h2.648c-0.119 0.25-0.521 1.262-0.783 2.129-0.281 0.93-0.473 1.772-0.541 2.319-0.069-0.547-0.262-1.389-0.541-2.319"/></g><g transform="translate(348.34 480.19)"><path d="m0 0v1.246h-4.795v-1.246h-1.759v-1.759h8.474v0.878 0.881h-0.961z"/></g><g transform="translate(300.46 240.57)"><path d="m0 0c2e-3 -28.796 30.62-28.796 41.7-28.796" fill="none" stroke="#000" stroke-width=".75"/></g><g transform="translate(299.92 241.81)"><path d="m0 0c-0.261-0.867-0.503-1.432-0.783-2.129h2.649c-0.118 0.25-0.522 1.262-0.784 2.129-0.279 0.93-0.472 1.771-0.541 2.318-0.068-0.547-0.259-1.388-0.541-2.318"/></g><g transform="translate(302.78 245.89)"><path d="m0 0v1.246h-4.797v-1.246h-1.758v-1.76h8.473v0.881 0.879h-0.959z"/></g><g transform="translate(175.31 581.26)"><path d="m0 0v78.92l-3.111-21.215 0.282-3.678 2.263 1.981" stroke="#000"/></g><g transform="translate(178.41 628.81)"><path d="m0 0h2.664v-22.176h-3.09l-10.348 17.914h-0.056v-17.914h-2.665v22.176h3.259l10.177-17.912h0.059z"/></g><g transform="translate(302.75 696.53)"><path d="m0 0v1.246h-4.794v-1.246h-1.76v-1.76h8.474v1.76h-0.961z"/></g></g><text transform="matrix(1 0 0 -1 93.52 255.86)" fill="#000000" font-family="Helvetica" font-size="9px"><tspan x="0 6.4980001 11.502 14.004 19.007999 21.059999 23.562 29.565001 34.569 39.573002 42.075001 47.574001 49.571999 54.576 59.580002 62.577 67.581001 70.083 75.086998 81.584999 84.582001 89.585999 94.589996 97.092003 99.323997 104.328 107.325" y="0">Note: See Figure 2D-12 for </tspan><tspan x="23.993999 28.728001 33.228001 38.231998 45.729 50.733002 52.730999 57.735001 62.235001 64.737 69.740997 72.242996 74.745003 79.245003 82.241997 87.246002 91.746002 96.246002 99.242996 104.247 109.251 114.255" y="9.5039997">examples of crossroad </tspan><tspan x="23.993999 28.493999 30.492001 35.495998 40.5 42.498001 47.501999 52.506001 55.007999 57.240002 62.243999 65.240997 67.742996 72.747002 75.249001 82.746002 84.744003 89.748001 94.751999 97.749001" y="19.007999">signing for a minor </tspan><tspan x="23.993999 25.992001 30.996 33.498001 38.501999 41.499001 45.999001 51.002998 56.007 61.011002 66.014999" y="28.511999">interchange</tspan></text><g clip-path="url(#a)"><g transform="translate(371.04 258.98)"><path d="m0 0c-1.717 0-3.114 1.395-3.114 3.11v17.927c0 1.716 1.397 3.112 3.114 3.112h83.648c1.716 0 3.111-1.396 3.111-3.112v-17.927c0-1.715-1.395-3.11-3.111-3.11z" fill="#fff"/></g><g transform="translate(454.69 283.25)"><path d="m0 0h-83.648c-1.786 0-3.239-1.452-3.239-3.237v-17.927c0-1.784 1.453-3.235 3.239-3.235h83.648c1.784 0 3.236 1.451 3.236 3.235v17.927c0 1.785-1.452 3.237-3.236 3.237m0-0.25c1.65 0 2.986-1.337 2.986-2.987v-17.927c0-1.649-1.336-2.985-2.986-2.985h-83.648c-1.651 0-2.989 1.336-2.989 2.985v17.927c0 1.65 1.338 2.987 2.989 2.987h83.648"/></g><g transform="translate(370.04 262.09)"><path d="m0 0v17.927c0 0.549 0.448 0.994 0.997 0.994h83.648c0.549 0 0.996-0.445 0.996-0.994v-17.927c0-0.548-0.447-0.995-0.996-0.995h-83.648c-0.549 0-0.997 0.447-0.997 0.995" fill="#006f51"/></g><g transform="translate(389.03 267.07)"><path d="m0 0v7.967h5.834v-1.427h-4.377v-1.482h2.385v-1.453h-2.385v-2.179h4.517v-1.426z" fill="#fff"/></g><path d="m404.65 275.04h1.436v-7.967h-1.436z" fill="#fff"/><g transform="translate(411.12 273.64)"><path d="m0 0v-6.568h-1.395v6.568h-2.287v1.399h5.971v-1.399z" fill="#fff"/></g><g transform="translate(401.37 267.07)"><path d="m0 0-1.799 2.823-1.768-2.823h-1.685l2.613 4.192-2.387 3.775h1.713l1.514-2.432 1.517 2.432h1.711l-2.357-3.775 2.611-4.192z" fill="#fff"/></g><g transform="translate(426.9 265.08)"><path d="m0 0 0.041 8.93h-1.498l-0.043 1.718c0.916 0.209 1.418 0.547 1.875 1.301h1.711v-11.949z" fill="#fff"/></g><g transform="translate(434.61 265.08)"><path d="m0 0 0.041 8.93h-1.5l-0.043 1.718c0.918 0.209 1.418 0.547 1.877 1.301h1.709v-11.949z" fill="#fff"/></g><g transform="translate(353.12 198.99)"><path d="m0 0c-5.01 0-9.086 4.076-9.086 9.087v41.818c0 5.011 4.076 9.088 9.086 9.088h95.591c5.01 0 9.086-4.077 9.086-9.088v-41.818c0-5.011-4.076-9.087-9.086-9.087z" fill="#fff"/></g><g transform="translate(448.71 259.11)"><path d="m0 0h-95.591c-5.08 0-9.211-4.133-9.211-9.213v-41.818c0-5.08 4.131-9.212 9.211-9.212h95.591c5.079 0 9.211 4.132 9.211 9.212v41.818c0 5.08-4.132 9.213-9.211 9.213m0-0.25c4.928 0 8.961-4.033 8.961-8.963v-41.818c0-4.929-4.033-8.962-8.961-8.962h-95.591c-4.93 0-8.961 4.033-8.961 8.962v41.818c0 4.93 4.031 8.963 8.961 8.963h95.591"/></g><g transform="translate(353.12 200.86)"><path d="m0 0c-0.936 0-1.844 0.185-2.7 0.55-0.832 0.352-1.578 0.857-2.22 1.5-0.643 0.642-1.149 1.389-1.502 2.22-0.366 0.857-0.549 1.764-0.549 2.7v41.819c0 0.935 0.183 1.845 0.549 2.701 0.353 0.83 0.859 1.578 1.502 2.22 0.642 0.643 1.388 1.148 2.22 1.501 0.856 0.363 1.764 0.549 2.7 0.549h95.591c0.936 0 1.844-0.186 2.7-0.549 0.832-0.353 1.578-0.858 2.222-1.501 0.643-0.642 1.147-1.39 1.5-2.22 0.364-0.856 0.547-1.766 0.547-2.701v-41.819c0-0.936-0.183-1.843-0.547-2.7-0.353-0.831-0.857-1.578-1.5-2.22-0.644-0.643-1.39-1.148-2.222-1.5-0.856-0.365-1.764-0.55-2.7-0.55z" fill="#006f51"/></g><g transform="translate(372.92 231.54)"><path d="m0 0h-2.802l-2.057 7.979-2.289-7.979h-2.803l-2.101 13.344h2.664l1.168-7.185 1.867 7.185h2.803l1.869-7.185 1.121 7.185h2.662z" fill="#fff"/></g><g transform="translate(424.29 235.46)"><path d="m0 0c-0.797 0.28-1.735 0.418-2.252 0.418-0.844 0-1.5-0.464-1.5-1.071 0-0.605 0.799-1.12 1.736-1.12 0.563 0 1.264 0.094 2.016 0.515zm0-3.92v0.326c-0.938-0.373-1.83-0.465-2.578-0.465-2.159 0-3.706 1.352-3.706 3.266 0 2.005 1.735 3.498 4.032 3.498 0.562 0 1.455-0.091 2.252-0.373-0.049 0.933-0.752 1.307-1.735 1.307-0.939 0-1.83-0.234-2.767-0.747l-0.985 2.099c1.455 0.746 2.44 1.027 3.752 1.027 2.67 0 4.264-1.307 4.264-4.012v-5.926z" fill="#fff"/></g><g transform="translate(391.36 238.03)"><path d="m0 0c-0.422 0.605-1.219 0.932-1.877 0.932-1.076 0-1.826-1.027-1.826-2.471 0-1.448 0.75-2.566 1.826-2.566 0.658 0 1.408 0.281 1.877 0.932zm1.498-9.425c-0.469-0.56-2.67-1.96-3.186-2.005l-1.078 2.286c1.078 0.559 1.594 0.885 2.016 1.259 0.422 0.326 0.75 0.934 0.75 1.399v0.608c-0.656-0.514-1.547-0.747-2.297-0.747-2.203 0-4.031 2.286-4.031 5.039 0 2.751 1.873 5.038 4.031 5.038 0.797 0 1.688-0.188 2.297-0.652v0.42h2.484v-9.38c0-1.584-0.236-2.378-0.986-3.265" fill="#fff"/></g><g transform="translate(379.54 242.46)"><path d="m0 0c-0.703 0-1.264 0.606-1.264 1.306 0 0.746 0.561 1.308 1.264 1.308 0.75 0 1.31-0.562 1.31-1.308 0-0.7-0.56-1.306-1.31-1.306m-1.313-1.212h2.67v-9.706h-2.67z" fill="#fff"/></g><g transform="translate(411.24 231.61)"><path d="m0 0v5.831c0 0.888-0.797 1.587-1.737 1.587-0.89 0-1.689-0.746-1.689-1.493v-5.925h-2.533v5.831c0 0.888-0.75 1.587-1.69 1.587-0.937 0-1.736-0.699-1.736-1.539v-5.879h-2.676v9.704h2.676v-0.513c0.938 0.56 1.596 0.745 2.533 0.745 1.033 0 1.879-0.372 2.582-1.12 1.268 0.888 1.875 1.12 3.002 1.12 2.067 0 3.895-1.399 3.895-3.264v-6.672z" fill="#fff"/></g><g transform="translate(438.34 231.61)"><path d="m0 0v5.831c0 0.888-0.611 1.587-1.642 1.587-0.936 0-1.875-0.746-1.875-1.539v-5.879h-2.672v9.704h2.672v-0.513c0.89 0.56 1.736 0.745 2.625 0.745 2.017 0 3.515-1.399 3.515-3.264v-6.672z" fill="#fff"/></g><g transform="translate(421.99 212.29)"><path d="m0 0v7.964h5.832v-1.426h-4.373v-1.482h2.383v-1.452h-2.383v-2.181h4.515v-1.423z" fill="#fff"/></g><path d="m411.15 220.26h1.435v-7.964h-1.435z" fill="#fff"/><g transform="translate(414.66 212.29)"><path d="m0 0v7.964h1.429v-6.736h4.543v-1.228z" fill="#fff"/></g><g transform="translate(407.68 212.29)"><path d="m0 0v4.863l-2.357-4.863-2.33 4.863v-4.863h-1.401v7.964h1.401l2.33-4.723 2.357 4.723h1.403v-7.964z" fill="#fff"/></g><g transform="translate(374.87 214.28)"><path d="m0 0 0.028 5.953h-1l-0.028 1.147c0.61 0.14 0.946 0.363 1.25 0.866h1.139v-7.966z" fill="#fff"/></g><g transform="translate(383.15 210.3)"><path d="m0 0c0 0.952 0.199 1.65 0.646 2.433 0.701 1.173 1.713 1.901 3.172 2.292 0.899 0.252 1.207 0.531 1.207 1.006 0 0.586-0.562 0.923-1.572 0.923-1.039 0-1.797-0.253-2.471-0.867l-0.982 1.091c0.928 0.81 2.078 1.228 3.367 1.228 1.883 0 3.09-0.921 3.09-2.375 0-0.671-0.281-1.285-0.815-1.733-0.254-0.195-0.617-0.392-1.179-0.559-1.067-0.307-1.375-0.447-1.852-0.867-0.365-0.307-0.592-0.614-0.871-1.147h4.717v-1.425z" fill="#fff"/></g><g transform="translate(377.26 210.3)"><path d="m0 0h-1.424l6.948 11.95h1.424z" fill="#fff"/></g><g transform="translate(148.93 355.57)"><path d="m0 0c-3.363 0-6.1 2.736-6.1 6.1v35.847c0 3.363 2.737 6.099 6.1 6.099h47.795c3.364 0 6.101-2.736 6.101-6.099v-35.847c0-3.364-2.737-6.1-6.101-6.1z" fill="#fff"/></g><g transform="translate(196.72 403.74)"><path d="m0 0h-47.795c-3.432 0-6.224-2.792-6.224-6.224v-35.847c0-3.432 2.792-6.225 6.224-6.225h47.795c3.433 0 6.226 2.793 6.226 6.225v35.847c0 3.432-2.793 6.224-6.226 6.224m0-0.25c3.287 0 5.976-2.689 5.976-5.974v-35.847c0-3.286-2.689-5.975-5.976-5.975h-47.795c-3.287 0-5.974 2.689-5.974 5.975v35.847c0 3.285 2.687 5.974 5.974 5.974h47.795"/></g><g transform="translate(148.93 357.19)"><path d="m0 0c-1.191 0-2.316 0.468-3.164 1.317-0.849 0.85-1.318 1.974-1.318 3.164v35.847c0 1.191 0.469 2.313 1.318 3.162 0.848 0.851 1.973 1.319 3.164 1.319h47.795c1.191 0 2.315-0.468 3.164-1.319 0.85-0.849 1.317-1.971 1.317-3.162v-35.847c0-1.19-0.467-2.314-1.317-3.164-0.849-0.849-1.973-1.317-3.164-1.317z" fill="#006f51"/></g><g transform="translate(158.38 387.56)"><path d="m0 0v7.965h5.834v-1.426h-4.376v-1.482h2.386v-1.453h-2.386v-2.179h4.517v-1.425z" fill="#fff"/></g><path d="m176.89 395.52h1.433v-7.965h-1.433z" fill="#fff"/><g transform="translate(184.97 394.13)"><path d="m0 0v-6.566h-1.396v6.566h-2.29v1.399h5.976v-1.399z" fill="#fff"/></g><g transform="translate(172.17 387.56)"><path d="m0 0-1.797 2.822-1.769-2.822h-1.684l2.61 4.191-2.385 3.774h1.712l1.516-2.432 1.517 2.432h1.712l-2.359-3.774 2.612-4.191z" fill="#fff"/></g><g transform="translate(190.6 366.44)"><path d="m0 0c4e-3 7e-3 8e-3 0.013 0.013 0.021 0.025 0.045 0.043 0.091 0.057 0.139 2e-3 4e-3 4e-3 8e-3 5e-3 0.012h-2e-3c4e-3 0.017 9e-3 0.032 0.012 0.049l0.022 0.162 2.278 11.752 0.03 0.222c0.032 0.219-0.042 0.442-0.188 0.587-0.167 0.168-0.389 0.244-0.598 0.201l-0.148-0.03-11.789-2.296-0.207-0.034c-0.137-0.031-0.241-0.094-0.345-0.199-0.264-0.262-0.274-0.693 0-0.965 0.03-0.032 0.085-0.064 0.126-0.084l0.126-0.07 4.196-2.578-10.258-9.418 3.433-3.434 9.417 10.236v0.022l2.54-4.133 0.106-0.151c0.03-0.052 0.063-0.106 0.106-0.146 0.262-0.263 0.701-0.263 0.964-2e-3 0.041 0.042 0.075 0.088 0.104 0.137" fill="#fff"/></g><g transform="translate(154.12 367.64)"><path d="m0 0 0.041 8.931h-1.5l-0.042 1.718c0.918 0.208 1.418 0.543 1.876 1.299h1.709v-11.948z" fill="#fff"/></g><g transform="translate(161.83 367.64)"><path d="m0 0 0.041 8.931h-1.501l-0.041 1.718c0.917 0.208 1.417 0.543 1.876 1.299h1.709v-11.948z" fill="#fff"/></g><g transform="translate(371.04 379.47)"><path d="m0 0c-1.717 0-3.114 1.396-3.114 3.112v17.926c0 1.716 1.397 3.112 3.114 3.112h83.648c1.716 0 3.111-1.396 3.111-3.112v-17.926c0-1.716-1.395-3.112-3.111-3.112z" fill="#fff"/></g><g transform="translate(454.69 403.74)"><path d="m0 0h-83.648c-1.786 0-3.239-1.452-3.239-3.237v-17.926c0-1.785 1.453-3.237 3.239-3.237h83.648c1.784 0 3.236 1.452 3.236 3.237v17.926c0 1.785-1.452 3.237-3.236 3.237m0-0.25c1.65 0 2.986-1.337 2.986-2.987v-17.926c0-1.651-1.336-2.987-2.986-2.987h-83.648c-1.651 0-2.989 1.336-2.989 2.987v17.926c0 1.65 1.338 2.987 2.989 2.987h83.648"/></g><g transform="translate(370.04 382.58)"><path d="m0 0v17.926c0 0.549 0.448 0.996 0.997 0.996h83.648c0.549 0 0.994-0.447 0.994-0.996v-17.926c0-0.549-0.445-0.995-0.994-0.995h-83.648c-0.549 0-0.997 0.446-0.997 0.995" fill="#006f51"/></g><g transform="translate(389.03 387.56)"><path d="m0 0v7.965h5.836v-1.425h-4.377v-1.481h2.385v-1.453h-2.385v-2.181h4.515v-1.425z" fill="#fff"/></g><path d="m404.65 395.52h1.436v-7.965h-1.436z" fill="#fff"/><g transform="translate(411.12 394.13)"><path d="m0 0v-6.566h-1.395v6.566h-2.289v1.399h5.973v-1.399z" fill="#fff"/></g><g transform="translate(401.37 387.56)"><path d="m0 0-1.797 2.822-1.768-2.822h-1.685l2.613 4.192-2.387 3.773h1.711l1.516-2.432 1.517 2.432h1.711l-2.357-3.773 2.609-4.192z" fill="#fff"/></g><g transform="translate(426.9 385.57)"><path d="m0 0 0.041 8.929h-1.498l-0.043 1.718c0.916 0.21 1.416 0.546 1.875 1.3h1.709v-11.947z" fill="#fff"/></g><g transform="translate(434.61 385.57)"><path d="m0 0 0.043 8.929h-1.502l-0.041 1.718c0.916 0.21 1.418 0.546 1.875 1.3h1.711v-11.947z" fill="#fff"/></g><g transform="translate(353.12 307.53)"><path d="m0 0c-5.01 0-9.086 4.076-9.086 9.086v53.771c0 5.01 4.076 9.086 9.086 9.086h95.591c5.01 0 9.086-4.076 9.086-9.086v-53.771c0-5.01-4.076-9.086-9.086-9.086z" fill="#fff"/></g><g transform="translate(448.71 379.6)"><path d="m0 0h-95.591c-5.08 0-9.211-4.132-9.211-9.211v-53.771c0-5.079 4.131-9.211 9.211-9.211h95.591c5.079 0 9.211 4.132 9.211 9.211v53.771c0 5.079-4.132 9.211-9.211 9.211m0-0.25c4.928 0 8.961-4.033 8.961-8.961v-53.771c0-4.928-4.033-8.961-8.961-8.961h-95.591c-4.93 0-8.961 4.033-8.961 8.961v53.771c0 4.928 4.031 8.961 8.961 8.961h95.591"/></g><g transform="translate(353.12 309.64)"><path d="m0 0c-0.936 0-1.844 0.186-2.702 0.55-0.83 0.353-1.578 0.859-2.22 1.501-0.643 0.643-1.147 1.39-1.5 2.222-0.366 0.855-0.549 1.764-0.549 2.699v53.771c0 0.934 0.183 1.843 0.549 2.7 0.353 0.831 0.857 1.578 1.5 2.219 0.642 0.644 1.39 1.149 2.22 1.501 0.858 0.365 1.766 0.549 2.702 0.549h95.591c0.936 0 1.844-0.184 2.7-0.549 0.83-0.352 1.578-0.857 2.22-1.501 0.645-0.641 1.147-1.388 1.502-2.219 0.364-0.857 0.547-1.766 0.547-2.7v-53.771c0-0.935-0.183-1.844-0.547-2.699-0.355-0.832-0.857-1.579-1.502-2.222-0.642-0.642-1.39-1.148-2.22-1.501-0.856-0.364-1.764-0.55-2.7-0.55z" fill="#006f51"/></g><g transform="translate(409.45 326.05)"><path d="m0 0c6e-3 7e-3 9e-3 0.015 0.017 0.025 0.028 0.053 0.051 0.111 0.067 0.166 2e-3 6e-3 4e-3 0.012 6e-3 0.017l-4e-3 -2e-3c7e-3 0.022 0.013 0.04 0.017 0.059l0.026 0.193 2.728 14.08 0.037 0.265c0.037 0.267-0.051 0.528-0.226 0.705-0.201 0.2-0.465 0.289-0.717 0.237l-0.176-0.033-14.123-2.75-0.248-0.041c-0.162-0.038-0.289-0.115-0.414-0.239-0.315-0.313-0.328-0.831 0-1.157 0.037-0.037 0.102-0.075 0.152-0.102l0.149-0.083 5.027-3.088-12.289-11.28 4.113-4.115 11.283 12.263v0.026l3.042-4.951 0.126-0.182c0.038-0.061 0.075-0.125 0.125-0.176 0.317-0.314 0.842-0.314 1.159 0 0.048 0.051 0.088 0.106 0.123 0.163" fill="#fff"/></g><g transform="translate(372.92 351.79)"><path d="m0 0h-2.802l-2.057 7.976-2.289-7.976h-2.803l-2.101 13.343h2.662l1.168-7.185 1.869 7.185h2.803l1.869-7.185 1.121 7.185h2.66z" fill="#fff"/></g><g transform="translate(424.28 355.7)"><path d="m0 0c-0.797 0.279-1.735 0.421-2.25 0.421-0.844 0-1.5-0.466-1.5-1.076 0-0.604 0.799-1.119 1.736-1.119 0.561 0 1.264 0.094 2.014 0.515zm0-3.918v0.326c-0.938-0.373-1.828-0.467-2.578-0.467-2.157 0-3.706 1.353-3.706 3.267 0 2.005 1.737 3.497 4.034 3.497 0.562 0 1.453-0.092 2.25-0.373-0.047 0.933-0.75 1.306-1.735 1.306-0.937 0-1.828-0.232-2.765-0.746l-0.985 2.1c1.453 0.746 2.44 1.025 3.75 1.025 2.672 0 4.266-1.305 4.266-4.012v-5.923z" fill="#fff"/></g><g transform="translate(391.36 358.27)"><path d="m0 0c-0.422 0.604-1.219 0.933-1.877 0.933-1.076 0-1.826-1.027-1.826-2.474 0-1.445 0.75-2.565 1.826-2.565 0.658 0 1.408 0.28 1.877 0.932zm1.498-9.425c-0.469-0.56-2.672-1.961-3.186-2.006l-1.078 2.285c1.078 0.561 1.592 0.887 2.016 1.26 0.42 0.328 0.75 0.934 0.75 1.401v0.605c-0.656-0.514-1.547-0.746-2.297-0.746-2.203 0-4.033 2.285-4.033 5.039 0 2.752 1.875 5.037 4.033 5.037 0.797 0 1.688-0.185 2.297-0.652v0.42h2.484v-9.377c0-1.586-0.236-2.38-0.986-3.266" fill="#fff"/></g><g transform="translate(379.53 362.7)"><path d="m0 0c-0.701 0-1.262 0.607-1.262 1.307 0 0.747 0.561 1.306 1.262 1.306 0.75 0 1.312-0.559 1.312-1.306 0-0.7-0.562-1.307-1.312-1.307m-1.311-1.213h2.668v-9.703h-2.668z" fill="#fff"/></g><g transform="translate(411.24 351.86)"><path d="m0 0v5.832c0 0.886-0.799 1.587-1.737 1.587-0.89 0-1.689-0.746-1.689-1.494v-5.925h-2.533v5.832c0 0.886-0.752 1.587-1.69 1.587-0.937 0-1.736-0.701-1.736-1.54v-5.879h-2.676v9.704h2.676v-0.513c0.938 0.559 1.596 0.746 2.533 0.746 1.033 0 1.879-0.373 2.582-1.12 1.268 0.887 1.875 1.12 3.002 1.12 2.065 0 3.895-1.399 3.895-3.264v-6.673z" fill="#fff"/></g><g transform="translate(438.34 351.86)"><path d="m0 0v5.832c0 0.886-0.611 1.587-1.642 1.587-0.938 0-1.875-0.746-1.875-1.54v-5.879h-2.672v9.704h2.672v-0.513c0.89 0.559 1.734 0.746 2.625 0.746 2.015 0 3.515-1.399 3.515-3.264v-6.673z" fill="#fff"/></g><g transform="translate(368.56 451.21)"><path d="m0 0c-1.306 0-2.367 1.062-2.367 2.367v13.441c0 1.305 1.061 2.366 2.367 2.366h61.236c1.305 0 2.366-1.061 2.366-2.366v-13.441c0-1.305-1.061-2.367-2.366-2.367z" fill="#fff"/></g><g transform="translate(429.8 469.5)"><path d="m0 0h-61.236c-1.374 0-2.492-1.117-2.492-2.491v-13.441c0-1.374 1.118-2.492 2.492-2.492h61.236c1.373 0 2.491 1.118 2.491 2.492v13.441c0 1.374-1.118 2.491-2.491 2.491m0-0.25c1.233 0 2.241-1.008 2.241-2.241v-13.441c0-1.233-1.008-2.242-2.241-2.242h-61.236c-1.234 0-2.242 1.009-2.242 2.242v13.441c0 1.233 1.008 2.241 2.242 2.241h61.236"/></g><g transform="translate(368.56 468.26)"><path d="m0 0c-0.33 0-0.643-0.13-0.879-0.366-0.236-0.237-0.367-0.549-0.367-0.879v-13.441c0-0.331 0.131-0.643 0.367-0.879 0.236-0.237 0.549-0.367 0.879-0.367h61.236c0.33 0 0.643 0.13 0.879 0.367 0.237 0.236 0.366 0.548 0.366 0.879v13.441c0 0.33-0.129 0.642-0.366 0.879-0.236 0.236-0.549 0.366-0.879 0.366z" fill="#006f51"/></g><g transform="translate(374.79 456.31)"><path d="m0 0v7.966h1.151v-6.904h2.916v-1.062z" fill="#fff"/></g><g transform="translate(382.27 458.88)"><path d="m0 0c-0.588 0.532-1.619 0.392-1.619-0.642 0-0.728 0.391-1.035 0.949-1.035 0.391 0 0.67 0.168 0.67 0.531zm0.055-2.572v0.168c-0.196-0.168-0.613-0.252-0.977-0.252-0.976 0-1.814 0.867-1.814 2.042 0 1.649 1.396 2.376 2.736 1.733-0.029 0.699-0.029 1.23-0.922 1.23-0.502 0-1.006-0.419-1.201-0.727l-0.279 1.091c0.474 0.448 1.062 0.671 1.619 0.671 1.537 0 1.871-1.118 1.871-2.07v-3.886z" fill="#fff"/></g><g transform="translate(396.1 461.23)"><path d="m0 0c-0.82 0-0.931-0.866-0.931-1.454h1.834c0 0.559-0.086 1.454-0.903 1.454m-0.902-2.46c0.055-0.644 0.252-1.51 0.902-1.51 0.451 0 0.817 0.42 0.93 0.922l0.875-0.642c-0.281-0.755-0.818-1.343-1.805-1.343-1.693 0-2.031 1.538-2.031 3.048 0 1.286 0.338 3.02 2.031 3.02 1.944 0 2.059-2.07 2.029-3.495z" fill="#fff"/></g><g transform="translate(399.37 456.31)"><path d="m0 0v7.495l1.117 0.615v-8.11z" fill="#fff"/></g><g transform="translate(393.13 460.84)"><path d="m0 0c-0.224 0.196-0.392 0.337-0.644 0.337-0.643 0-0.729-0.42-0.729-1.147v-3.72h-1.092v5.818h1.092v-0.28c0.28 0.28 0.393 0.419 0.785 0.419 0.393 0 0.559-0.168 0.756-0.392z" fill="#fff"/></g><g transform="translate(387.85 456.31)"><path d="m0 0v0.336c-0.537-0.475-0.93-0.475-1.185-0.475-0.819 0-1.78 0.616-1.78 1.957v4h1.131v-4c0-0.726 0.422-0.894 0.986-0.894 0.426 0 0.819 0.224 0.819 0.894v4h1.129v-5.818z" fill="#fff"/></g><g transform="translate(410.98 461.9)"><path d="m0 0-0.56-2.293h1.146zm1.428-5.591-0.561 2.18h-1.709l-0.533-2.18h-1.148l1.99 7.966h1.119l1.99-7.966z" fill="#fff"/></g><g transform="translate(421.53 461.23)"><path d="m0 0c-0.819 0-0.928-0.866-0.928-1.454h1.83c0 0.559-0.084 1.454-0.902 1.454m-0.903-2.46c0.059-0.644 0.254-1.51 0.903-1.51 0.451 0 0.818 0.42 0.931 0.922l0.875-0.642c-0.283-0.755-0.818-1.343-1.806-1.343-1.692 0-2.029 1.538-2.029 3.048 0 1.286 0.337 3.02 2.029 3.02 1.947 0 2.058-2.07 2.031-3.495z" fill="#fff"/></g><g transform="translate(416.85 456.31)"><path d="m0 0h-0.928l-1.888 5.818h1.125l1.213-3.916 1.179 3.916h1.186z" fill="#fff"/></g></g></g></svg>
