<?xml version="1.0" encoding="UTF-8"?>
<svg width="672.67" height="427.88" version="1.1" viewBox="0 0 672.67 427.88" xml:space="preserve" xmlns="http://www.w3.org/2000/svg"><defs><clipPath id="k"><path d="m27.125 388.2h513v349.8h-513z"/></clipPath><clipPath id="j"><path d="m27.125 388.2h513v349.8h-513z"/></clipPath><clipPath id="i"><path d="m27.125 388.2h513v349.8h-513z"/></clipPath><clipPath id="h"><path d="m31.375 391.36h504.5v346.64h-504.5z"/></clipPath><clipPath id="g"><path d="m27.125 388.2h513v349.8h-513z"/></clipPath><clipPath id="f"><path d="m27.125 388.2h513v349.8h-513z"/></clipPath><clipPath id="e"><path d="m27.125 388.2h513v349.8h-513z"/></clipPath><clipPath id="d"><path d="m27.125 388.2h513v349.8h-513z"/></clipPath><clipPath id="c"><path d="m31.375 391.36h504.5v346.64h-504.5z"/></clipPath><clipPath id="b"><path d="m27.125 388.2h513v349.8h-513z"/></clipPath><clipPath id="a"><path d="m27.125 388.2h513v349.8h-513z"/></clipPath></defs><g transform="matrix(1.3333 0 0 -1.3333 -41.833 952.24)"><g clip-path="url(#k)"><g transform="translate(178.03 713.93)"><path d="m0 0h113.72c4.467 0 8.119-3.654 8.119-8.117v-64.991c0-4.465-3.652-8.117-8.119-8.117h-113.72c-4.464 0-8.117 3.652-8.117 8.117v64.991c0 4.463 3.653 8.117 8.117 8.117" fill="#fff"/><path d="m0 0h113.72c4.467 0 8.119-3.654 8.119-8.117v-64.991c0-4.465-3.652-8.117-8.119-8.117h-113.72c-4.464 0-8.117 3.652-8.117 8.117v64.991c0 4.463 3.653 8.117 8.117 8.117z" fill="none" stroke="#000" stroke-width=".5"/></g><g transform="translate(178.03 711.9)"><path d="m0 0h113.72c3.348 0 6.088-2.739 6.088-6.086v-64.991c0-3.347-2.74-6.087-6.088-6.087h-113.72c-3.347 0-6.087 2.74-6.087 6.087v64.991c0 3.347 2.74 6.086 6.087 6.086" fill-rule="evenodd"/></g><g transform="translate(178.03 708.52)"><path d="m0 0h113.72c1.486 0 2.703-1.216 2.703-2.702v-64.991c0-1.486-1.217-2.703-2.703-2.703h-113.72c-1.486 0-2.702 1.217-2.702 2.703v64.991c0 1.486 1.216 2.702 2.702 2.702" fill="#fff" fill-rule="evenodd"/></g><g transform="translate(267.24 689.61)"><path d="m0 0c0-2.888-0.683-5.241-1.973-6.533-0.609-0.606-1.293-0.835-2.432-0.835h-3.417v14.736h3.872c0.913 0 1.671-0.381 2.204-0.911 1.063-1.141 1.746-3.57 1.746-6.457m3.494 0c0 4.255-1.292 7.671-3.569 9.645-1.14 0.914-1.975 1.141-4.178 1.141h-6.987v-21.648h7.822c1.139 0.077 2.28 0.456 3.116 1.216 2.43 1.899 3.796 5.316 3.796 9.646m-24.821-1.29h-4.328l2.203 6.076zm6.989-9.572-7.443 21.648h-3.418l-7.442-21.648h3.643l2.128 6.077h6.76l2.126-6.077zm-24.363 10.786c0-1.671-0.381-3.799-0.836-4.938-0.76-1.898-1.747-2.733-3.342-2.733-1.367 0-2.278 0.53-2.962 1.671-0.835 1.366-1.292 3.721-1.292 6 0 1.822 0.305 3.798 0.836 5.089 0.76 1.9 1.823 2.736 3.494 2.658 1.292-0.074 2.127-0.532 2.81-1.671 0.837-1.442 1.292-3.646 1.292-6.076m3.418 0c0 2.734-0.531 5.47-1.444 7.368-1.367 2.658-3.266 3.873-6 3.873-2.507 0-4.254-0.758-5.544-2.43-1.444-2.051-2.355-5.242-2.355-8.811 0-2.583 0.608-5.47 1.52-7.292 1.29-2.659 3.189-3.885 6.227-3.885 2.279 0 4.026 0.772 5.241 2.443 1.519 1.898 2.355 5.316 2.355 8.734m-22.162 4.786c0-0.912-0.531-1.823-1.366-2.279-0.532-0.304-0.912-0.379-1.976-0.379h-4.1v5.316h4.1c1.14 0 1.444-0.076 1.976-0.381 0.835-0.455 1.366-1.366 1.366-2.277m3.874-15.572-3.798 10.102c1.975 0.911 3.342 3.191 3.342 5.47 0 2.203-1.367 4.481-3.266 5.394-1.063 0.53-2.203 0.682-3.874 0.682h-7.138v-21.648h3.418v9.42h4.1l3.494-9.42z" fill-rule="evenodd"/></g><g transform="translate(282.65 657.12)"><path d="m0 0c0-2.886-0.683-5.24-1.974-6.531-0.608-0.61-1.291-0.835-2.431-0.835h-3.417v14.734h3.873c0.91 0 1.672-0.379 2.203-0.912 1.063-1.138 1.746-3.57 1.746-6.456m3.495 0c0 4.253-1.291 7.673-3.571 9.647-1.14 0.91-1.975 1.139-4.177 1.139h-6.988v-21.648h7.823c1.141 0.076 2.28 0.457 3.116 1.215 2.427 1.9 3.797 5.317 3.797 9.647m-18.023-10.862v3.496h-10.026v5.922h6.305v3.494h-6.305v5.318h9.342v3.418h-12.758v-21.648zm-16.729 6.228c0 8.507-10.176 5.848-10.482 9.874-0.153 1.974 1.747 2.584 3.341 2.507 2.432-0.074 3.19-1.899 3.19-1.899l3.039 0.912c-1.063 2.658-3.113 4.407-6.152 4.407-3.874 0-6.76-1.598-6.76-5.849 0-3.571 2.886-4.862 4.178-5.394 2.81-1.138 6.152-1.595 6.152-4.481 0-1.822-1.367-3.19-3.342-3.19-2.05 0-3.721 1.139-4.635 3.19l-3.264-1.216c1.442-3.265 4.178-5.482 7.899-5.482 1.822 0 3.493 0.621 4.708 1.685 1.368 1.214 2.128 2.962 2.128 4.936m-21.061 4.558c0-1.671-0.379-3.797-0.836-4.937-0.758-1.899-1.745-2.734-3.341-2.734-1.367 0-2.278 0.532-2.962 1.671-0.836 1.368-1.291 3.721-1.291 6 0 1.823 0.304 3.797 0.835 5.089 0.76 1.898 1.824 2.734 3.495 2.66 1.291-0.078 2.125-0.532 2.809-1.671 0.836-1.445 1.291-3.647 1.291-6.078m3.419 0c0 2.734-0.532 5.468-1.443 7.368-1.367 2.658-3.267 3.875-6 3.875-2.507 0-4.254-0.762-5.545-2.433-1.444-2.05-2.356-5.24-2.356-8.81 0-2.582 0.609-5.468 1.52-7.29 1.292-2.66 3.19-3.889 6.228-3.889 2.28 0 4.025 0.772 5.242 2.443 1.518 1.9 2.354 5.318 2.354 8.736m-17.794-10.786v3.191h-10.025v18.457h-3.418v-21.648zm-17.869 4.405-3.267 1.217c-0.835-1.749-1.898-2.507-3.34-2.507-1.52 0-2.507 0.532-3.267 1.671-0.836 1.368-1.367 3.721-1.367 6.076 0 1.822 0.302 3.721 0.836 5.013 0.758 1.898 1.897 2.66 3.644 2.66 1.671 0 2.356-0.459 3.571-2.281l3.19 1.368c-1.443 3.039-3.494 4.407-6.761 4.407-2.429 0-4.252-0.836-5.544-2.433-1.518-1.897-2.429-5.317-2.429-8.734 0-2.734 0.606-5.47 1.594-7.366 1.368-2.66 3.417-3.889 6.608-3.889 3.114 0 5.241 1.608 6.532 4.798" fill-rule="evenodd"/></g><g transform="translate(65.957 713.93)"><path d="m0 0h56.857c2.238 0 4.062-1.824 4.062-4.062v-73.101c0-2.238-1.824-4.062-4.062-4.062h-56.857c-2.237 0-4.062 1.824-4.062 4.062v73.101c0 2.209 1.853 4.062 4.062 4.062" fill="#fff" stroke="#000" stroke-width=".5"/></g><g transform="translate(65.972 712.8)"><path d="m0 0h56.829c1.611-2e-3 2.945-1.337 2.947-2.947v-73.075c-2e-3 -1.616-1.337-2.939-2.947-2.947h-56.829c-1.612 8e-3 -2.944 1.331-2.947 2.947v73.075c3e-3 1.611 1.335 2.945 2.947 2.947" fill-rule="evenodd"/></g><g transform="translate(65.992 711.22)"><path d="m0 0h56.788c0.764 0.011 1.4-0.623 1.389-1.388v-73.033c0.011-0.764-0.625-1.4-1.389-1.389h-56.788c-0.765-0.011-1.4 0.624-1.389 1.389v73.033c-0.011 0.765 0.624 1.399 1.389 1.388" fill="#fff" fill-rule="evenodd"/></g><g transform="translate(113.89 700.36)"><path d="m0 0c0-1.316-0.658-2.076-1.874-2.076h-2.127v4.101h2.127c1.115 0 1.874-0.809 1.874-2.025m2.026 0c0 2.431-1.519 4.051-3.799 4.051h-4.304v-14.431h2.076v6.33h2.228c2.431 0 3.799 1.417 3.799 4.05m-11.466-10.38v2.026h-5.267v4.759h2.987v1.976h-2.987v3.644h4.71v2.026h-6.787v-14.431zm-10.708 0v2.026h-5.267v4.759h2.988v1.976h-2.988v3.644h4.71v2.026h-6.786v-14.431zm-10.657 0-3.341 9.367 2.987 5.064h-2.38l-3.292-5.773v5.773h-2.076v-14.431h2.076v4.607l1.317 2.431 2.532-7.038z" fill-rule="evenodd"/></g><g transform="translate(110.46 678.54)"><path d="m0 0v2.025h-7.343v-14.43h2.076v6.785h2.886v1.974h-2.886v3.646zm-10.806 0v2.025h-7.344v-14.43h2.077v6.785h2.886v1.974h-2.886v3.646zm-13.692-5.165c0-1.67-0.102-2.531-0.456-3.696-0.355-1.216-0.911-1.773-1.773-1.773-0.912 0-1.468 0.557-1.823 1.773-0.304 1.165-0.456 2.076-0.456 3.645 0 1.621 0.102 2.584 0.456 3.697 0.355 1.215 0.911 1.772 1.823 1.772 0.862 0 1.418-0.557 1.773-1.822 0.304-1.063 0.456-1.976 0.456-3.596m1.976 0c0 2.179-0.204 3.545-0.811 4.964-0.71 1.771-1.723 2.479-3.394 2.479s-2.684-0.708-3.443-2.43c-0.608-1.367-0.81-2.834-0.81-5.013 0-2.228 0.202-3.596 0.81-5.013 0.708-1.721 1.722-2.491 3.443-2.491 1.622 0 2.684 0.77 3.394 2.491 0.607 1.367 0.811 2.785 0.811 5.013" fill-rule="evenodd"/></g><g transform="translate(121.39 642.22)"><path d="m0 0v14.432h-2.076v-8.659l-3.95 8.659h-2.077v-14.432h2.077v9.673l4.456-9.673zm-13.146 5.975h-2.076l1.013 4.152zm3.596-5.975-3.596 14.432h-2.025l-3.596-14.432h2.076l0.962 3.949h3.089l1.014-3.949zm-10.716 14.432h-2.024v-14.432h2.024zm-6.36-7.292c0-1.115-0.101-2.126-0.202-3.038-0.202-1.114-0.862-2.077-2.077-2.077h-1.722v10.381h1.722c0.912 0 1.519-0.456 1.875-1.468 0.253-0.608 0.404-2.178 0.404-3.798m2.026 0.102c0 1.114-0.151 2.379-0.354 3.442-0.254 1.468-0.862 2.583-1.723 3.191-0.506 0.405-1.113 0.557-2.329 0.557h-3.697v-14.432h4.001c0.81 0 1.519 0.203 2.025 0.658 1.418 1.114 2.077 3.241 2.077 6.584m-10.007-7.242v2.025h-5.266v4.76h2.988v1.975h-2.988v3.646h4.71v2.026h-6.786v-14.432zm-9.955 0v14.432h-2.076l-2.684-8.102-2.684 8.102h-2.077v-14.432h2.077v8.102l2.684-8.102 2.684 8.102v-8.102z" fill-rule="evenodd"/></g><g transform="translate(351.02 713.93)"><path d="m0 0h146.21c4.472 0 8.123-3.649 8.123-8.122v-64.982c0-4.472-3.651-8.121-8.123-8.121h-146.21c-4.472 0-8.121 3.649-8.121 8.121v64.982c0 4.419 3.703 8.122 8.121 8.122" fill="#fff" stroke="#000" stroke-width=".5"/></g><g transform="translate(351.05 711.9)"><path d="m0 0h146.16c3.334 0 6.123-2.78 6.115-6.119v-64.93c8e-3 -3.335-2.781-6.124-6.115-6.117h-146.16c-3.341-7e-3 -6.12 2.782-6.12 6.117v64.93c0 3.339 2.779 6.119 6.12 6.119" fill-rule="evenodd"/></g><g transform="translate(351.09 708.52)"><path d="m0 0h146.07c1.52 0.026 2.811-1.252 2.776-2.776v-64.845c0.035-1.52-1.256-2.811-2.776-2.776h-146.07c-1.525-0.035-2.803 1.256-2.777 2.776v64.845c-0.026 1.524 1.252 2.802 2.777 2.776" fill="#fff" fill-rule="evenodd"/></g><g transform="translate(407.23 694.9)"><path d="m0 0c0-1.255-0.115-2.394-0.229-3.418-0.229-1.253-0.97-2.335-2.336-2.335h-1.938v11.677h1.938c1.027 0 1.71-0.513 2.107-1.653 0.285-0.682 0.458-2.451 0.458-4.271m2.279 0.111c0 1.257-0.173 2.679-0.401 3.874-0.283 1.654-0.967 2.909-1.936 3.593-0.568 0.453-1.256 0.625-2.622 0.625h-4.159v-16.236h4.504c0.91 0 1.709 0.227 2.277 0.741 1.597 1.251 2.337 3.645 2.337 7.403m-15.385-1.422h-2.336l1.142 4.671zm4.045-6.722-4.045 16.236h-2.279l-4.046-16.236h2.336l1.084 4.442h3.478l1.137-4.442zm-14.582 8.144c0-1.878-0.115-2.847-0.515-4.156-0.396-1.367-1.028-1.996-1.992-1.996-1.027 0-1.653 0.629-2.054 1.996-0.339 1.309-0.51 2.337-0.51 4.1 0 1.824 0.114 2.908 0.51 4.159 0.401 1.367 1.027 1.994 2.054 1.994 0.964 0 1.596-0.627 1.992-2.052 0.344-1.193 0.515-2.221 0.515-4.045m2.222 0c0 2.45-0.231 3.989-0.912 5.584-0.799 1.994-1.939 2.792-3.817 2.792-1.883 0-3.022-0.798-3.874-2.734-0.688-1.539-0.911-3.192-0.911-5.642 0-2.505 0.223-4.042 0.911-5.637 0.798-1.937 1.935-2.801 3.874-2.801 1.819 0 3.018 0.864 3.817 2.801 0.681 1.537 0.912 3.132 0.912 5.637m-14.186 3.761c0-1.311-0.74-2.052-2.111-2.052h-2.393v4.104h2.393c1.257 0 2.111-0.796 2.111-2.052m2.278-11.905-2.335 7.974c1.538 0.572 2.335 1.994 2.335 3.931 0 2.622-1.71 4.331-4.274 4.331h-4.844v-16.236h2.336v7.633h2.225l2.165-7.633z" fill-rule="evenodd"/></g><g transform="translate(377.81 670.98)"><path d="m0 0c0-1.569-0.097-2.377-0.428-3.469-0.335-1.137-0.855-1.662-1.66-1.662-0.856 0-1.38 0.525-1.711 1.662-0.287 1.092-0.428 1.947-0.428 3.419 0 1.518 0.098 2.423 0.428 3.466 0.331 1.141 0.855 1.663 1.711 1.663 0.805 0 1.325-0.522 1.66-1.71 0.281-0.996 0.428-1.851 0.428-3.369m1.851 0c0 2.039-0.191 3.319-0.758 4.65-0.667 1.663-1.619 2.327-3.181 2.327-1.57 0-2.518-0.664-3.233-2.278-0.566-1.283-0.756-2.66-0.756-4.699 0-2.089 0.19-3.373 0.756-4.703 0.668-1.613 1.619-2.334 3.233-2.334 1.519 0 2.514 0.721 3.181 2.334 0.567 1.284 0.758 2.614 0.758 4.703m-10.635-6.792v13.531h-1.281c-0.287-0.568-0.758-0.903-1.521-0.949v-1.472h0.855v-11.11z" fill-rule="evenodd"/></g><g transform="translate(395.15 644.22)"><path d="m0 0v1.442h-3.953v9.381h-1.557v-10.823zm-9.687 4.481h-1.554l0.757 3.113zm2.696-4.481-2.696 10.823h-1.519l-2.698-10.823h1.561l0.718 2.961h2.318l0.762-2.961zm-8.205 7.937c-0.109 0.987-0.264 1.441-0.681 1.975-0.495 0.722-1.251 1.101-2.124 1.101-2.13 0-3.232-1.859-3.232-5.355 0-3.987 1.027-5.855 3.346-5.855 1.515 0 2.656 1.297 2.691 3.083h-1.554c0-0.797-0.229-1.559-1.137-1.559-1.33 0-1.865 1.256-1.865 4.367 0 2.811 0.459 3.798 1.71 3.798 0.722 0 1.141-0.493 1.292-1.555zm-9.492-2.508c0-1.251-0.074-1.898-0.343-2.771-0.265-0.913-0.682-1.331-1.326-1.331-0.684 0-1.101 0.418-1.366 1.331-0.229 0.873-0.344 1.555-0.344 2.734 0 1.215 0.074 1.937 0.344 2.773 0.265 0.911 0.682 1.327 1.366 1.327 0.644 0 1.061-0.416 1.326-1.366 0.228-0.797 0.343-1.481 0.343-2.697m1.48 0c0 1.636-0.15 2.658-0.607 3.725-0.529 1.325-1.29 1.859-2.542 1.859-1.257 0-2.015-0.534-2.581-1.824-0.459-1.024-0.609-2.124-0.609-3.76 0-1.669 0.15-2.697 0.609-3.758 0.528-1.292 1.289-1.868 2.581-1.868 1.216 0 2.013 0.576 2.542 1.868 0.457 1.024 0.607 2.089 0.607 3.758m-7.631-5.429v1.442h-3.949v9.381h-1.56v-10.823z" fill-rule="evenodd"/></g><g transform="translate(482.46 694.9)"><path d="m0 0c0-1.255-0.113-2.394-0.228-3.418-0.229-1.253-0.969-2.335-2.335-2.335h-1.939v11.677h1.939c1.026 0 1.707-0.513 2.106-1.653 0.288-0.682 0.457-2.451 0.457-4.271m2.28 0.111c0 1.257-0.173 2.679-0.401 3.874-0.283 1.654-0.967 2.909-1.935 3.593-0.571 0.453-1.257 0.625-2.622 0.625h-4.16v-16.236h4.502c0.91 0 1.709 0.227 2.28 0.741 1.596 1.251 2.336 3.645 2.336 7.403m-11.852-8.144v2.28h-5.924v5.353h3.361v2.22h-3.361v4.104h5.299v2.279h-7.634v-16.236zm-10.994 4.442c0 2.336-1.37 4.104-4.501 5.927-1.195 0.681-1.539 1.138-1.539 1.935 0 1.082 0.854 1.881 1.938 1.881 1.023 0 1.821-0.741 1.878-1.881h2.224c-0.057 2.452-1.823 4.216-4.102 4.216-2.336 0-4.158-1.879-4.158-4.216 0-1.422 0.681-2.676 1.99-3.589 3.306-2.221 2.394-1.594 2.738-1.937 0.969-0.741 1.308-1.423 1.308-2.336 0-1.307-1.025-2.45-2.277-2.45-1.596 0-2.279 1.426-2.279 2.792h-2.279c0-2.678 1.711-5.078 4.558-5.078 2.506 0 4.501 2.117 4.501 4.736m-13.729 3.702c0-1.878-0.115-2.847-0.515-4.156-0.397-1.367-1.024-1.996-1.993-1.996-1.027 0-1.652 0.629-2.053 1.996-0.339 1.309-0.511 2.337-0.511 4.1 0 1.824 0.113 2.908 0.511 4.159 0.401 1.367 1.026 1.994 2.053 1.994 0.969 0 1.596-0.627 1.993-2.052 0.343-1.193 0.515-2.221 0.515-4.045m2.221 0c0 2.45-0.23 3.989-0.912 5.584-0.799 1.994-1.938 2.792-3.817 2.792-1.882 0-3.018-0.798-3.873-2.734-0.684-1.539-0.912-3.192-0.912-5.642 0-2.505 0.228-4.042 0.912-5.637 0.796-1.937 1.936-2.801 3.873-2.801 1.821 0 3.018 0.864 3.817 2.801 0.682 1.537 0.912 3.132 0.912 5.637m-11.451-8.144v2.165h-5.925v14.071h-2.336v-16.236zm-11.452 11.905c-0.172 1.481-0.402 2.167-1.027 2.965-0.74 1.079-1.879 1.65-3.191 1.65-3.19 0-4.84-2.792-4.84-8.032 0-5.981 1.539-8.782 5.011-8.782 2.28 0 3.989 1.946 4.047 4.622h-2.337c0-1.193-0.34-2.336-1.71-2.336-1.992 0-2.791 1.883-2.791 6.554 0 4.214 0.684 5.695 2.566 5.695 1.08 0 1.707-0.741 1.935-2.336z" fill-rule="evenodd"/></g><g transform="translate(429.59 667.89)"><path d="m0 0c0 1.946-1.14 3.417-3.75 4.939-0.998 0.569-1.282 0.948-1.282 1.615 0 0.899 0.712 1.563 1.616 1.563 0.851 0 1.517-0.617 1.564-1.563h1.852c-0.049 2.039-1.52 3.511-3.416 3.511-1.949 0-3.471-1.569-3.471-3.511 0-1.19 0.574-2.236 1.665-2.993 2.753-1.853 1.993-1.328 2.278-1.615 0.807-0.617 1.092-1.184 1.092-1.946 0-1.091-0.853-2.043-1.898-2.043-1.328 0-1.9 1.188-1.9 2.329h-1.899c0-2.232 1.426-4.235 3.799-4.235 2.089 0 3.75 1.765 3.75 3.949m-9.162-3.704v1.899h-4.936v4.465h2.799v1.851h-2.799v3.418h4.414v1.898h-6.363v-13.531zm-8.736 0v1.806h-4.937v11.725h-1.947v-13.531zm-9.829 13.531h-1.898v-13.531h1.898zm-4.84-13.531v13.531h-1.945l-2.516-7.594-2.517 7.594h-1.947v-13.531h1.947v7.596l2.517-7.596 2.516 7.596v-7.596z" fill-rule="evenodd"/></g><g transform="translate(482.34 670.88)"><path d="m0 0c0-1.045-0.096-1.992-0.19-2.847-0.191-1.045-0.806-1.949-1.947-1.949h-1.613v9.734h1.613c0.855 0 1.424-0.429 1.756-1.375 0.239-0.572 0.381-2.043 0.381-3.563m1.899 0.097c0 1.042-0.145 2.23-0.335 3.228-0.234 1.375-0.805 2.418-1.612 2.989-0.478 0.381-1.045 0.522-2.183 0.522h-3.467v-13.531h3.75c0.76 0 1.422 0.189 1.9 0.617 1.33 1.044 1.947 3.041 1.947 6.175m-12.819-1.19h-1.947l0.951 3.892zm3.371-5.602-3.371 13.531h-1.9l-3.37-13.531h1.948l0.901 3.704h2.897l0.948-3.704zm-9.875 0v1.899h-4.936v4.465h2.797v1.851h-2.797v3.418h4.412v1.898h-6.359v-13.531zm-9.779 0v13.531h-1.948v-5.509h-3.702v5.509h-1.948v-13.531h1.948v6.126h3.702v-6.126zm-12.819 5.602h-1.945l0.95 3.892zm3.371-5.602-3.371 13.531h-1.9l-3.371-13.531h1.947l0.904 3.704h2.897l0.947-3.704z" fill-rule="evenodd"/></g><g transform="translate(449.82 652.16)"><path d="m0 0c-0.115 0.987-0.267 1.441-0.684 1.974-0.493 0.723-1.253 1.102-2.127 1.102-2.128 0-3.227-1.86-3.227-5.355 0-3.988 1.025-5.856 3.341-5.856 1.52 0 2.656 1.298 2.697 3.083h-1.558c0-0.797-0.227-1.558-1.139-1.558-1.33 0-1.86 1.255-1.86 4.366 0 2.812 0.454 3.799 1.707 3.799 0.721 0 1.139-0.494 1.292-1.555zm-8.203 2.886h-1.519v-10.823h1.519zm-3.002-1.52v1.52h-5.507v-10.823h1.558v5.089h2.164v1.48h-2.164v2.734zm-6.988 0v1.52h-5.506v-10.823h1.557v5.089h2.166v1.48h-2.166v2.734zm-9.682-4.822h-1.558l0.76 3.112zm2.696-4.481-2.696 10.823h-1.521l-2.697-10.823h1.559l0.722 2.961h2.316l0.76-2.961zm-9.382 7.937c0-0.872-0.493-1.368-1.405-1.368h-1.592v2.734h1.592c0.838 0 1.405-0.53 1.405-1.366m1.52-7.937-1.557 5.315c1.024 0.378 1.557 1.33 1.557 2.622 0 1.745-1.14 2.886-2.845 2.886h-3.231v-10.823h1.559v5.089h1.48l1.443-5.089zm-7.556 9.378v1.445h-5.506v-1.445h1.975v-9.378h1.556v9.378z" fill-rule="evenodd"/></g><g transform="translate(490.32 655.04)"><path d="m0 0h-1.67l-1.785-3.913-1.821 3.913h-1.637l2.661-5.926v-4.897h1.557v4.897zm-7.556-10.823v1.442h-3.95v9.381h-1.558v-10.823zm-7.823 0v10.823h-1.558v-6.496l-2.961 6.496h-1.558v-10.823h1.558v7.254l3.341-7.254zm-9.724 5.429c0-1.252-0.074-1.898-0.338-2.771-0.269-0.913-0.688-1.331-1.332-1.331-0.684 0-1.102 0.418-1.366 1.331-0.228 0.873-0.343 1.555-0.343 2.734 0 1.214 0.076 1.937 0.343 2.773 0.264 0.911 0.682 1.327 1.366 1.327 0.644 0 1.063-0.416 1.332-1.366 0.225-0.797 0.338-1.481 0.338-2.697m1.48 0c0 1.636-0.15 2.658-0.606 3.724-0.53 1.326-1.29 1.86-2.544 1.86-1.251 0-2.014-0.534-2.582-1.824-0.454-1.024-0.608-2.124-0.608-3.76 0-1.67 0.154-2.697 0.608-3.758 0.533-1.292 1.29-1.869 2.582-1.869 1.217 0 2.014 0.577 2.544 1.869 0.456 1.024 0.606 2.088 0.606 3.758" fill-rule="evenodd"/></g></g><text transform="matrix(1 0 0 -1 220.71 620.65)" fill="#000000" font-family="Helvetica" font-size="9px"><tspan x="0 6.4980001 11.502 16.506001 19.503 -139.93201 -133.43401 -128.42999 -123.426 -120.429 191.043 197.541 202.545 207.549 210.54601 215.55" y="0">R11-2R11-1R11-3a</tspan></text><g clip-path="url(#j)"><g transform="translate(110.02 608.34)"><path d="m0 0h146.21c4.473 0 8.122-3.648 8.122-8.122v-64.982c0-4.472-3.649-8.12-8.122-8.12h-146.21c-4.474 0-8.123 3.648-8.123 8.12v64.982c0 4.419 3.707 8.122 8.123 8.122" fill="#fff" stroke="#000" stroke-width=".5"/></g><g transform="translate(110.04 606.31)"><path d="m0 0h146.16c3.337 0 6.124-2.78 6.117-6.119v-64.931c7e-3 -3.334-2.78-6.121-6.117-6.116h-146.16c-3.338-5e-3 -6.122 2.782-6.117 6.116v64.931c-5e-3 3.339 2.781 6.119 6.117 6.119" fill-rule="evenodd"/></g><g transform="translate(110.09 602.93)"><path d="m0 0h146.07c1.521 0.027 2.812-1.251 2.777-2.776v-64.844c0.035-1.52-1.256-2.812-2.777-2.777h-146.07c-1.526-0.035-2.804 1.257-2.776 2.777v64.844c-0.027 1.525 1.25 2.803 2.776 2.776" fill="#fff" fill-rule="evenodd"/></g><g transform="translate(136.81 565.39)"><path d="m0 0c0-1.569-0.095-2.376-0.428-3.469-0.33-1.137-0.855-1.661-1.66-1.661-0.855 0-1.375 0.524-1.71 1.661-0.282 1.093-0.426 1.948-0.426 3.419 0 1.518 0.095 2.422 0.426 3.466 0.335 1.14 0.855 1.662 1.71 1.662 0.805 0 1.33-0.522 1.66-1.71 0.288-0.996 0.428-1.85 0.428-3.368m1.851 0c0 2.039-0.19 3.319-0.758 4.65-0.666 1.662-1.613 2.327-3.181 2.327-1.566 0-2.517-0.665-3.229-2.278-0.57-1.283-0.761-2.66-0.761-4.699 0-2.089 0.191-3.372 0.761-4.703 0.666-1.613 1.615-2.333 3.229-2.333 1.519 0 2.515 0.72 3.181 2.333 0.568 1.283 0.758 2.614 0.758 4.703m-10.634-6.792v13.531h-1.282c-0.282-0.568-0.758-0.903-1.519-0.949v-1.471h0.855v-11.111z" fill-rule="evenodd"/></g><g transform="translate(154.14 538.63)"><path d="m0 0v1.442h-3.948v9.381h-1.56v-10.823zm-9.686 4.481h-1.555l0.76 3.113zm2.697-4.481-2.697 10.823h-1.515l-2.698-10.823h1.557l0.723 2.961h2.314l0.761-2.961zm-8.2 7.938c-0.115 0.987-0.268 1.44-0.684 1.974-0.494 0.723-1.255 1.102-2.127 1.102-2.128 0-3.229-1.86-3.229-5.355 0-3.988 1.025-5.856 3.343-5.856 1.519 0 2.657 1.298 2.697 3.083h-1.558c0-0.797-0.227-1.558-1.139-1.558-1.331 0-1.859 1.254-1.859 4.366 0 2.811 0.453 3.798 1.706 3.798 0.721 0 1.14-0.493 1.292-1.554zm-9.497-2.509c0-1.251-0.075-1.898-0.339-2.77-0.267-0.914-0.684-1.331-1.331-1.331-0.683 0-1.101 0.417-1.366 1.331-0.229 0.872-0.344 1.554-0.344 2.734 0 1.214 0.08 1.937 0.344 2.772 0.265 0.912 0.683 1.327 1.366 1.327 0.647 0 1.064-0.415 1.331-1.366 0.226-0.796 0.339-1.481 0.339-2.697m1.482 0c0 1.636-0.151 2.659-0.608 3.725-0.531 1.325-1.29 1.86-2.544 1.86-1.251 0-2.012-0.535-2.582-1.825-0.454-1.024-0.608-2.124-0.608-3.76 0-1.669 0.154-2.697 0.608-3.758 0.532-1.292 1.29-1.868 2.582-1.868 1.216 0 2.013 0.576 2.544 1.868 0.457 1.025 0.608 2.089 0.608 3.758m-7.634-5.429v1.442h-3.948v9.381h-1.557v-10.823z" fill-rule="evenodd"/></g><g transform="translate(188.58 562.3)"><path d="m0 0c0 1.946-1.141 3.418-3.751 4.939-0.998 0.569-1.283 0.948-1.283 1.615 0 0.898 0.712 1.563 1.617 1.563 0.853 0 1.517-0.617 1.566-1.563h1.851c-0.049 2.039-1.521 3.511-3.417 3.511-1.948 0-3.47-1.569-3.47-3.511 0-1.19 0.573-2.235 1.664-2.994 2.755-1.852 1.994-1.327 2.28-1.614 0.805-0.617 1.092-1.185 1.092-1.946 0-1.09-0.855-2.042-1.9-2.042-1.329 0-1.9 1.187-1.9 2.327h-1.899c0-2.23 1.427-4.233 3.799-4.233 2.089 0 3.751 1.765 3.751 3.948m-9.164-3.704v1.9h-4.936v4.463h2.8v1.852h-2.8v3.417h4.416v1.899h-6.362v-13.531zm-8.734 0v1.805h-4.939v11.726h-1.944v-13.531zm-9.827 13.531h-1.899v-13.531h1.899zm-4.842-13.531v13.531h-1.948l-2.516-7.594-2.517 7.594h-1.946v-13.531h1.946v7.596l2.517-7.596 2.516 7.596v-7.596z" fill-rule="evenodd"/></g><g transform="translate(241.34 565.29)"><path d="m0 0c0-1.045-0.097-1.992-0.191-2.847-0.19-1.045-0.807-1.948-1.948-1.948h-1.613v9.732h1.613c0.855 0 1.425-0.428 1.758-1.374 0.238-0.572 0.381-2.043 0.381-3.563m1.898 0.097c0 1.042-0.144 2.23-0.335 3.227-0.234 1.375-0.805 2.419-1.613 2.99-0.476 0.381-1.043 0.522-2.182 0.522h-3.467v-13.531h3.751c0.76 0 1.422 0.191 1.898 0.617 1.331 1.045 1.948 3.041 1.948 6.175m-12.818-1.19h-1.948l0.952 3.892zm3.37-5.602-3.37 13.531h-1.9l-3.371-13.531h1.948l0.901 3.704h2.898l0.946-3.704zm-9.874 0v1.9h-4.936v4.463h2.797v1.852h-2.797v3.417h4.414v1.899h-6.362v-13.531zm-9.78 0v13.531h-1.948v-5.508h-3.702v5.508h-1.947v-13.531h1.947v6.126h3.702v-6.126zm-12.818 5.602h-1.946l0.95 3.892zm3.369-5.602-3.369 13.531h-1.901l-3.37-13.531h1.948l0.902 3.704h2.896l0.949-3.704z" fill-rule="evenodd"/></g><g transform="translate(208.81 546.57)"><path d="m0 0c-0.114 0.987-0.268 1.44-0.684 1.974-0.494 0.723-1.253 1.102-2.127 1.102-2.128 0-3.226-1.86-3.226-5.355 0-3.988 1.024-5.856 3.34-5.856 1.519 0 2.657 1.298 2.697 3.083h-1.558c0-0.797-0.228-1.558-1.139-1.558-1.329 0-1.86 1.254-1.86 4.366 0 2.811 0.454 3.798 1.706 3.798 0.722 0 1.142-0.493 1.293-1.554zm-8.204 2.885h-1.517v-10.823h1.517zm-3.002-1.519v1.519h-5.504v-10.823h1.556v5.089h2.165v1.481h-2.165v2.734zm-6.985 0v1.519h-5.506v-10.823h1.558v5.089h2.162v1.481h-2.162v2.734zm-9.684-4.823h-1.559l0.76 3.113zm2.697-4.481-2.697 10.823h-1.521l-2.697-10.823h1.559l0.722 2.961h2.316l0.759-2.961zm-9.383 7.938c0-0.873-0.492-1.368-1.403-1.368h-1.596v2.734h1.596c0.836 0 1.403-0.531 1.403-1.366m1.522-7.938-1.559 5.315c1.024 0.379 1.559 1.33 1.559 2.623 0 1.745-1.143 2.885-2.851 2.885h-3.228v-10.823h1.558v5.089h1.481l1.444-5.089zm-7.56 9.378v1.445h-5.506v-1.445h1.974v-9.378h1.556v9.378z" fill-rule="evenodd"/></g><g transform="translate(249.32 549.45)"><path d="m0 0h-1.671l-1.784-3.913-1.822 3.913h-1.637l2.661-5.926v-4.897h1.558v4.897zm-7.557-10.823v1.442h-3.949v9.381h-1.559v-10.823zm-7.822 0v10.823h-1.559v-6.495l-2.961 6.495h-1.558v-10.823h1.558v7.254l3.34-7.254zm-9.726 5.429c0-1.251-0.073-1.898-0.337-2.77-0.267-0.914-0.686-1.331-1.331-1.331-0.685 0-1.102 0.417-1.367 1.331-0.229 0.872-0.343 1.554-0.343 2.734 0 1.214 0.077 1.937 0.343 2.772 0.265 0.912 0.682 1.327 1.367 1.327 0.645 0 1.064-0.415 1.331-1.366 0.227-0.796 0.337-1.481 0.337-2.697m1.481 0c0 1.636-0.149 2.659-0.604 3.725-0.533 1.325-1.292 1.86-2.545 1.86-1.252 0-2.016-0.535-2.583-1.825-0.455-1.024-0.608-2.124-0.608-3.76 0-1.669 0.153-2.697 0.608-3.758 0.532-1.292 1.29-1.868 2.583-1.868 1.216 0 2.012 0.576 2.545 1.868 0.455 1.025 0.604 2.089 0.604 3.758" fill-rule="evenodd"/></g><g transform="translate(192.96 581.28)"><path d="m0 0v2.279h-5.922v5.355h3.36v2.221h-3.36v4.102h5.297v2.279h-7.636v-16.236zm-11.452 4.5v3.363h-4.16v-2.279h1.825v-1.084c0-1.71-0.568-2.508-1.766-2.508-1.252 0-2.051 0.856-2.394 2.452-0.228 1.253-0.339 2.679-0.339 4.045 0 1.936 0.282 3.758 0.741 4.557 0.396 0.796 1.023 1.198 1.82 1.198 1.141 0 1.882-0.743 1.938-1.824h2.335c-0.115 2.392-1.879 4.102-4.216 4.102-1.877 0-3.533-1.254-4.102-2.964-0.568-1.538-0.74-3.188-0.74-5.469 0-2.108 0.341-4.386 0.855-5.581 0.798-1.824 2.221-2.803 4.158-2.803 1.654 0 2.963 0.864 3.589 2.287 0.341 0.685 0.456 1.369 0.456 2.508m-14.242 3.534c0-1.255-0.113-2.392-0.228-3.42-0.229-1.253-0.969-2.335-2.335-2.335h-1.939v11.678h1.939c1.026 0 1.708-0.511 2.106-1.652 0.287-0.684 0.457-2.45 0.457-4.271m2.279 0.113c0 1.253-0.171 2.677-0.401 3.873-0.283 1.653-0.969 2.906-1.935 3.59-0.571 0.453-1.255 0.626-2.621 0.626h-4.16v-16.236h4.502c0.91 0 1.708 0.227 2.279 0.74 1.596 1.252 2.336 3.645 2.336 7.407m-12.647 8.089h-2.28v-16.236h2.28zm-7.235-4.328c0-1.313-0.74-2.053-2.111-2.053h-2.39v4.102h2.39c1.256 0 2.111-0.797 2.111-2.049m2.278-11.908-2.336 7.978c1.539 0.568 2.336 1.991 2.336 3.93 0 2.618-1.71 4.328-4.275 4.328h-4.842v-16.236h2.338v7.634h2.22l2.167-7.634zm-14.073 4.614c0-1.422-0.855-2.335-2.165-2.335h-2.336v5.07h2.336c1.198 0 2.165-1.196 2.165-2.735m-0.285 7.406c0-1.481-0.682-2.392-1.766-2.392h-2.45v4.329h2.45c1.254 0 1.766-0.568 1.766-1.937m2.565-7.576c0 1.651-0.742 3.017-1.995 4.045 1.31 1.366 1.71 2.05 1.71 3.531 0 2.506-1.539 4.216-3.702 4.216h-5.129v-16.236h4.785c2.392 0 4.331 1.992 4.331 4.444" fill-rule="evenodd"/></g><g transform="translate(236.12 595.35)"><path d="m0 0v2.165h-8.26v-2.165h2.963v-14.071h2.336v14.071zm-10.481-9.227v11.392h-2.335v-11.678c0-1.539-0.913-2.566-2.167-2.566-1.366 0-2.279 1.027-2.279 2.566v11.678h-2.336v-11.392c0-1.312 0.173-1.996 0.626-2.852 0.799-1.366 2.394-2.287 3.989-2.287 1.537 0 3.076 0.979 3.873 2.287 0.458 0.856 0.629 1.54 0.629 2.852m-14.584 3.303c0-1.879-0.115-2.848-0.516-4.158-0.398-1.368-1.023-1.997-1.993-1.997-1.026 0-1.652 0.629-2.051 1.997-0.341 1.31-0.514 2.335-0.514 4.1 0 1.822 0.115 2.907 0.514 4.158 0.399 1.368 1.025 1.997 2.051 1.997 0.97 0 1.595-0.629 1.993-2.053 0.343-1.195 0.516-2.222 0.516-4.044m2.221 0c0 2.448-0.23 3.987-0.914 5.581-0.796 1.997-1.937 2.794-3.816 2.794-1.881 0-3.017-0.797-3.872-2.736-0.684-1.539-0.914-3.191-0.914-5.639 0-2.505 0.23-4.044 0.914-5.639 0.796-1.939 1.935-2.803 3.872-2.803 1.825 0 3.02 0.864 3.816 2.803 0.684 1.539 0.914 3.134 0.914 5.639" fill-rule="evenodd"/></g></g><text transform="matrix(1 0 0 -1 167.56 514.78)" fill="#000000" font-family="Helvetica" font-size="9px"><tspan x="0 6.4980001 11.502 16.506001 19.503 24.507 202.58099 209.07899 214.08299 219.08701 222.084" y="0">R11-3bR11-4</tspan></text><g clip-path="url(#i)"><g transform="translate(311.02 609.38)"><path d="m0 0h146.21c4.474 0 8.122-3.649 8.122-8.125v-64.98c0-4.472-3.648-8.12-8.122-8.12h-146.21c-4.473 0-8.121 3.648-8.121 8.12v64.98c0 4.421 3.706 8.125 8.121 8.125" fill="#fff" stroke="#000" stroke-width=".5"/></g><g transform="translate(311.05 607.35)"><path d="m0 0h146.16c3.336 0 6.123-2.78 6.115-6.119v-64.93c8e-3 -3.335-2.779-6.124-6.115-6.117h-146.16c-3.34-7e-3 -6.123 2.782-6.117 6.117v64.93c-6e-3 3.339 2.779 6.119 6.117 6.119" fill-rule="evenodd"/></g><g transform="translate(311.09 603.97)"><path d="m0 0h146.07c1.522 0.027 2.811-1.251 2.776-2.776v-64.844c0.035-1.519-1.254-2.812-2.776-2.777h-146.07c-1.526-0.035-2.804 1.258-2.776 2.777v64.844c-0.026 1.525 1.25 2.803 2.776 2.776" fill="#fff" fill-rule="evenodd"/></g><g transform="translate(332.09 582.34)"><path d="m0 0-2.336 7.973c1.538 0.57 2.336 1.994 2.336 3.931 0 2.619-1.709 4.328-4.273 4.328h-4.84v-16.232h2.335v7.632h2.221l2.164-7.632zm-2.278 11.904c0-1.31-0.742-2.051-2.108-2.051h-2.392v4.101h2.392c1.253 0 2.108-0.797 2.108-2.05"/></g><g transform="translate(344.05 590.48)"><path d="m0 0c0 2.45-0.228 3.987-0.911 5.582-0.798 1.994-1.937 2.791-3.817 2.791s-3.018-0.797-3.873-2.734c-0.683-1.538-0.911-3.189-0.911-5.639 0-2.505 0.228-4.044 0.911-5.638 0.798-1.937 1.937-2.791 3.873-2.791 1.823 0 3.019 0.854 3.817 2.791 0.683 1.538 0.911 3.133 0.911 5.638m-2.222 0c0-1.879-0.113-2.847-0.512-4.157-0.399-1.367-1.025-1.994-1.994-1.994-1.025 0-1.651 0.627-2.049 1.994-0.342 1.31-0.513 2.335-0.513 4.101 0 1.822 0.113 2.904 0.513 4.157 0.398 1.367 1.024 1.994 2.049 1.994 0.969 0 1.595-0.627 1.994-2.051 0.341-1.196 0.512-2.221 0.512-4.044"/></g><g transform="translate(356.41 582.34)"><path d="m0 0-4.044 16.232h-2.278l-4.044-16.232h2.335l1.082 4.442h3.475l1.138-4.442zm-4.044 6.721h-2.336l1.14 4.67z"/></g><g transform="translate(367.74 590.48)"><path d="m0 0c0 1.253-0.171 2.677-0.398 3.873-0.285 1.652-0.969 2.905-1.937 3.589-0.569 0.455-1.253 0.626-2.62 0.626h-4.157v-16.232h4.499c0.911 0 1.709 0.228 2.278 0.74 1.595 1.253 2.335 3.646 2.335 7.404m-2.278-0.113c0-1.253-0.113-2.392-0.228-3.418-0.227-1.253-0.968-2.335-2.335-2.335h-1.936v11.676h1.936c1.026 0 1.708-0.513 2.108-1.652 0.284-0.684 0.455-2.449 0.455-4.271"/></g><g transform="translate(385.45 594.24)"><path d="m0 0c-0.228 1.594-0.854 2.335-1.936 2.335-1.88 0-2.564-1.481-2.564-5.696 0-4.67 0.798-6.55 2.791-6.55 1.367 0 1.709 1.139 1.709 2.335h2.335c-0.057-2.676-1.766-4.613-4.044-4.613-3.474 0-5.012 2.791-5.012 8.771 0 5.24 1.652 8.031 4.841 8.031 1.31 0 2.449-0.57 3.19-1.652 0.627-0.797 0.854-1.481 1.025-2.961z"/></g><g transform="translate(391.03 582.34)"><path d="m0 0v16.232h2.335v-14.068h5.924v-2.164z"/></g><g transform="translate(410.8 590.48)"><path d="m0 0c0 2.45-0.228 3.987-0.911 5.582-0.798 1.994-1.937 2.791-3.817 2.791-1.879 0-3.018-0.797-3.873-2.734-0.683-1.538-0.911-3.189-0.911-5.639 0-2.505 0.228-4.044 0.911-5.638 0.798-1.937 1.937-2.791 3.873-2.791 1.824 0 3.019 0.854 3.817 2.791 0.683 1.538 0.911 3.133 0.911 5.638m-2.222 0c0-1.879-0.113-2.847-0.512-4.157-0.399-1.367-1.025-1.994-1.994-1.994-1.025 0-1.651 0.627-2.049 1.994-0.342 1.31-0.513 2.335-0.513 4.101 0 1.822 0.113 2.904 0.513 4.157 0.398 1.367 1.024 1.994 2.049 1.994 0.969 0 1.595-0.627 1.994-2.051 0.342-1.196 0.512-2.221 0.512-4.044"/></g><g transform="translate(417.8 582.06)"><path d="m0 0c-2.848 0-4.556 2.392-4.556 5.069h2.278c0-1.367 0.683-2.791 2.278-2.791 1.254 0 2.278 1.139 2.278 2.449 0 0.912-0.342 1.595-1.309 2.336-0.342 0.341 0.569-0.285-2.735 1.936-1.309 0.911-1.993 2.164-1.993 3.588 0 2.336 1.822 4.215 4.158 4.215 2.278 0 4.044-1.766 4.101-4.215h-2.222c-0.057 1.139-0.854 1.88-1.879 1.88-1.082 0-1.936-0.798-1.936-1.88 0-0.797 0.341-1.253 1.537-1.936 3.133-1.823 4.5-3.588 4.5-5.924 0-2.619-1.993-4.727-4.5-4.727"/></g><g transform="translate(425.04 582.34)"><path d="m0 0v16.232h7.632v-2.278h-5.297v-4.101h3.36v-2.221h-3.36v-5.354h5.924v-2.278z"/></g><g transform="translate(445.14 590.48)"><path d="m0 0c0 1.253-0.171 2.677-0.399 3.873-0.284 1.652-0.968 2.905-1.936 3.589-0.57 0.455-1.253 0.626-2.62 0.626h-4.158v-16.232h4.499c0.912 0 1.709 0.228 2.279 0.74 1.594 1.253 2.335 3.646 2.335 7.404m-2.278-0.113c0-1.253-0.114-2.392-0.228-3.418-0.228-1.253-0.968-2.335-2.335-2.335h-1.937v11.676h1.937c1.025 0 1.709-0.513 2.107-1.652 0.285-0.684 0.456-2.449 0.456-4.271"/></g><g transform="translate(380.05 573.78)"><path d="m0 0v-11.727h-1.946v11.727h-2.469v1.804h6.884v-1.804z"/></g><g transform="translate(392.06 568.84)"><path d="m0 0c0 2.042-0.191 3.324-0.76 4.653-0.665 1.662-1.614 2.327-3.182 2.327-1.566 0-2.515-0.665-3.228-2.28-0.57-1.281-0.759-2.658-0.759-4.7 0-2.089 0.189-3.371 0.759-4.7 0.665-1.615 1.614-2.327 3.228-2.327 1.52 0 2.517 0.712 3.182 2.327 0.569 1.282 0.76 2.611 0.76 4.7m-1.852 0c0-1.567-0.096-2.374-0.428-3.466-0.332-1.139-0.854-1.662-1.662-1.662-0.854 0-1.376 0.523-1.709 1.662-0.285 1.092-0.427 1.947-0.427 3.419 0 1.519 0.095 2.421 0.427 3.466 0.333 1.139 0.855 1.661 1.709 1.661 0.808 0 1.33-0.522 1.662-1.709 0.285-0.997 0.428-1.852 0.428-3.371"/></g><g transform="translate(327.45 553.24)"><path d="m0 0v-14.068h-2.335v14.068h-2.962v2.164h8.259v-2.164z"/></g><g transform="translate(339.36 539.17)"><path d="m0 0v7.347h-4.443v-7.347h-2.335v16.232h2.335v-6.607h4.443v6.607h2.335v-16.232z"/></g><g transform="translate(354.28 539.17)"><path d="m0 0-2.335 7.973c1.538 0.57 2.335 1.994 2.335 3.931 0 2.619-1.709 4.328-4.271 4.328h-4.841v-16.232h2.335v7.632h2.221l2.165-7.632zm-2.278 11.904c0-1.31-0.74-2.051-2.107-2.051h-2.392v4.101h2.392c1.253 0 2.107-0.797 2.107-2.05"/></g><g transform="translate(365.44 541.17)"><path d="m0 0c-0.797-1.311-2.335-2.279-3.873-2.279-1.594 0-3.189 0.911-3.987 2.279-0.455 0.854-0.626 1.537-0.626 2.847v11.391h2.335v-11.676c0-1.538 0.911-2.562 2.278-2.562 1.253 0 2.164 1.024 2.164 2.562v11.676h2.336v-11.391c0-1.31-0.17-1.993-0.627-2.847"/></g><g transform="translate(381.69 553.24)"><path d="m0 0v-14.068h-2.335v14.068h-2.962v2.164h8.259v-2.164z"/></g><g transform="translate(395.93 539.17)"><path d="m0 0-2.335 7.973c1.538 0.57 2.335 1.994 2.335 3.931 0 2.619-1.708 4.328-4.272 4.328h-4.841v-16.232h2.335v7.632h2.222l2.164-7.632zm-2.279 11.904c0-1.31-0.74-2.051-2.106-2.051h-2.393v4.101h2.393c1.253 0 2.106-0.797 2.106-2.05"/></g><g transform="translate(407.72 539.17)"><path d="m0 0-4.044 16.232h-2.279l-4.044-16.232h2.335l1.082 4.442h3.475l1.139-4.442zm-4.044 6.721h-2.335l1.138 4.67z"/></g><g transform="translate(412.22 553.13)"><path d="m0 0v-4.101h3.246v-2.221h-3.246v-7.632h-2.336v16.232h8.259v-2.278z"/></g><g transform="translate(422.7 553.13)"><path d="m0 0v-4.101h3.246v-2.221h-3.246v-7.632h-2.335v16.232h8.258v-2.278z"/></g><path d="m430.85 555.4h2.278v-16.232h-2.278z"/><g transform="translate(443.09 551.08)"><path d="m0 0c-0.228 1.594-0.855 2.335-1.937 2.335-1.88 0-2.562-1.481-2.562-5.696 0-4.67 0.797-6.549 2.79-6.549 1.367 0 1.709 1.138 1.709 2.334h2.335c-0.057-2.676-1.766-4.613-4.044-4.613-3.474 0-5.012 2.791-5.012 8.771 0 5.24 1.651 8.031 4.841 8.031 1.31 0 2.449-0.57 3.189-1.652 0.627-0.797 0.855-1.481 1.026-2.961z"/></g><g transform="translate(35.686 486.93)"><path d="m0 0h56.857c2.238 0 4.062-1.824 4.062-4.061v-73.103c0-2.237-1.824-4.061-4.062-4.061h-56.857c-2.237 0-4.061 1.824-4.061 4.061v73.103c0 2.209 1.853 4.061 4.061 4.061" fill="#fff"/></g></g><g clip-path="url(#h)"><g transform="translate(35.686 486.93)"><path d="m0 0h56.857c2.238 0 4.062-1.824 4.062-4.061v-73.103c0-2.237-1.824-4.061-4.062-4.061h-56.857c-2.237 0-4.061 1.824-4.061 4.061v73.103c0 2.209 1.853 4.061 4.061 4.061" fill="none" stroke="#000" stroke-width=".5"/></g></g><g clip-path="url(#g)"><g transform="translate(35.701 485.8)"><path d="m0 0h56.829c1.611-2e-3 2.945-1.337 2.947-2.947v-73.076c-2e-3 -1.615-1.337-2.939-2.947-2.947h-56.829c-1.612 8e-3 -2.944 1.332-2.947 2.947v73.076c3e-3 1.611 1.335 2.945 2.947 2.947" fill-rule="evenodd"/></g><g transform="translate(35.721 484.22)"><path d="m0 0h56.788c0.765 0.011 1.4-0.623 1.389-1.387v-73.034c0.011-0.764-0.625-1.401-1.389-1.389h-56.788c-0.765-0.012-1.4 0.623-1.389 1.389v73.034c-0.011 0.764 0.624 1.398 1.389 1.387" fill="#fff" fill-rule="evenodd"/></g><g transform="translate(89.734 479.58)"><path d="m0 0v1.517h-6.684v-1.517h2.469v-9.307h1.709v9.307zm-8.445-9.307v10.824h-1.709v-4.367h-3.949v4.367h-1.71v-10.824h1.71v4.71h3.949v-4.71zm-9.889 3.229v2.165h-3.683v-1.708h1.975v-0.457c0-0.989-0.798-1.671-1.899-1.671-0.646 0-1.14 0.264-1.481 0.873-0.342 0.684-0.531 1.823-0.531 2.963 0 0.911 0.151 1.898 0.418 2.544 0.379 0.95 0.948 1.33 1.822 1.33 0.835 0 1.291-0.343 1.747-1.291l1.632 0.644c-0.721 1.709-1.708 2.393-3.379 2.393-1.216 0-2.127-0.418-2.772-1.215-0.722-0.95-1.216-2.658-1.216-4.405 0-1.33 0.266-2.66 0.722-3.609 0.645-1.367 1.595-1.98 3.227-1.98 1.976 0 3.418 1.449 3.418 3.424m-9.85 7.595h-1.747v-10.824h1.747zm-3.698-10.824v1.746h-5.012v2.964h3.152v1.747h-3.152v2.658h4.67v1.709h-6.379v-10.824zm-8.482 10.824h-1.747l-0.835-5.695-1.406 5.695h-1.671l-1.367-5.695-0.836 5.695h-1.747l1.596-10.824h1.519l1.671 6.951 1.708-6.951h1.52z" fill-rule="evenodd"/></g><g transform="translate(81.169 463.33)"><path d="m0 0v1.518h-6.683v-1.518h2.468v-9.305h1.709v9.305zm-8.396 1.518h-1.748v-10.823h1.748zm-4.448-10.823v10.823h-1.709l-2.507-6.077-2.507 6.077h-1.709v-10.823h1.709v6.266l2.507-6.266 2.507 6.266v-6.266zm-11.094 10.823h-1.746v-10.823h1.746zm-3.46-10.823v1.596h-5.012v9.227h-1.71v-10.823z" fill-rule="evenodd"/></g><g transform="translate(72.026 440.11)"><path d="m0 0c0-2.988-1.317-4.964-3.444-4.964-2.178 0-3.495 1.773-3.495 4.964 0 2.125 0.912 4.808 3.495 4.808 2.178 0 3.444-1.822 3.444-4.86zm2.582 0c0 3.645-1.721 7.391-6.026 7.391-4.253 0-6.078-3.645-6.078-7.443 0-3.799 1.774-7.503 6.078-7.503 4.355 0 6.026 3.858 6.026 7.555m-15.8-7.293v14.432h-2.075c-0.558-0.913-1.166-1.317-2.28-1.57l0.05-2.076h1.824l-0.051-10.786z" fill-rule="evenodd"/></g><g transform="translate(87.899 415.76)"><path d="m0 0c0 5.672-6.787 3.9-6.989 6.584-0.102 1.317 1.164 1.721 2.228 1.67 1.62-0.051 2.127-1.266 2.127-1.266l2.026 0.608c-0.709 1.771-2.077 2.937-4.102 2.937-2.583 0-4.508-1.064-4.508-3.898 0-2.381 1.925-3.243 2.785-3.596 1.874-0.76 4.102-1.063 4.102-2.988 0-1.215-0.911-2.127-2.228-2.127-1.368 0-2.481 0.759-3.089 2.127l-2.178-0.811c0.963-2.178 2.786-3.654 5.267-3.654 1.216 0 2.33 0.414 3.14 1.123 0.911 0.81 1.419 1.974 1.419 3.291m-12.741-4.153v14.433h-2.279v-9.216l-5.267 9.216h-2.278v-14.433h2.278v9.774l5.52-9.774zm-15.778 7.192c0-1.115-0.254-2.531-0.557-3.291-0.507-1.268-1.165-1.824-2.228-1.824-0.912 0-1.519 0.355-1.976 1.113-0.557 0.912-0.86 2.482-0.86 4.002 0 1.215 0.202 2.531 0.557 3.392 0.506 1.266 1.215 1.823 2.329 1.772 0.861-0.05 1.419-0.355 1.874-1.113 0.557-0.963 0.861-2.432 0.861-4.051m2.278 0c0 1.822-0.354 3.644-0.961 4.911-0.912 1.773-2.178 2.583-4.002 2.583-1.67 0-2.835-0.506-3.696-1.621-0.962-1.366-1.57-3.494-1.57-5.873 0-1.723 0.405-3.647 1.013-4.862 0.86-1.771 2.126-2.591 4.153-2.591 1.519 0 2.684 0.515 3.494 1.629 1.012 1.265 1.569 3.543 1.569 5.824m-12.587 5.215v2.026h-8.913v-2.026h3.292v-12.407h2.278v12.407z" fill-rule="evenodd"/></g></g><text transform="matrix(1 0 0 -1 50.356 393.38)" fill="#000000" font-family="Helvetica" font-size="9px"><tspan x="0 6.4980001 11.502 16.506001 19.503" y="0">R12-1</tspan></text><g clip-path="url(#f)"><g transform="translate(137.32 486.93)"><path d="m0 0h56.857c2.237 0 4.061-1.824 4.061-4.06v-73.104c0-2.237-1.824-4.061-4.061-4.061h-56.857c-2.237 0-4.061 1.824-4.061 4.061v73.104c0 2.209 1.852 4.06 4.061 4.06" fill="#fff" stroke="#000" stroke-width=".5"/></g><g transform="translate(137.33 485.8)"><path d="m0 0h56.83c1.611-2e-3 2.945-1.338 2.947-2.947v-73.077c-2e-3 -1.615-1.337-2.939-2.947-2.947h-56.83c-1.611 8e-3 -2.943 1.332-2.947 2.947v73.077c4e-3 1.611 1.335 2.945 2.947 2.947" fill-rule="evenodd"/></g><g transform="translate(137.35 484.22)"><path d="m0 0h56.788c0.765 0.01 1.4-0.623 1.389-1.388v-73.034c0.011-0.764-0.625-1.401-1.389-1.389h-56.788c-0.765-0.012-1.4 0.623-1.389 1.389v73.034c-0.011 0.765 0.624 1.398 1.389 1.388" fill="#fff" fill-rule="evenodd"/></g><g transform="translate(184.41 467.4)"><path d="m0 0v1.746h-5.013v2.963h3.153v1.748h-3.153v2.658h4.671v1.707h-6.379v-10.822zm-9.325 0v1.594h-5.013v9.228h-1.709v-10.822zm-9.516 0-2.734 5.582 2.544 5.24h-1.937l-1.557-3.226-1.557 3.226h-1.937l2.507-5.24-2.696-5.582h1.936l1.747 3.607 1.747-3.607zm-12.743 4.785h-2.165l1.102 3.037zm3.493-4.785-3.721 10.822h-1.709l-3.722-10.822h1.823l1.063 3.039h3.38l1.064-3.039z" fill-rule="evenodd"/></g><g transform="translate(191.52 460.51)"><path d="m0 0v1.518h-6.685v-1.518h2.468v-9.304h1.709v9.304zm-8.474-9.304v10.822h-1.708v-4.365h-3.951v4.365h-1.708v-10.822h1.708v4.709h3.951v-4.709zm-9.916 3.228v2.162h-3.684v-1.709h1.975v-0.453c0-0.99-0.797-1.672-1.899-1.672-0.645 0-1.139 0.266-1.48 0.873-0.343 0.684-0.532 1.822-0.532 2.961 0 0.914 0.153 1.901 0.417 2.547 0.38 0.949 0.95 1.328 1.824 1.328 0.835 0 1.29-0.342 1.747-1.291l1.632 0.645c-0.721 1.709-1.709 2.392-3.379 2.392-1.216 0-2.127-0.418-2.773-1.213-0.722-0.951-1.215-2.66-1.215-4.408 0-1.328 0.266-2.656 0.721-3.605 0.646-1.369 1.596-1.981 3.228-1.981 1.975 0 3.418 1.447 3.418 3.424m-9.877 7.594h-1.748v-10.822h1.748zm-3.725-10.822v1.746h-5.014v2.963h3.152v1.748h-3.152v2.656h4.671v1.709h-6.38v-10.822zm-8.511 10.822h-1.748l-0.835-5.696-1.405 5.696h-1.671l-1.367-5.696-0.836 5.696h-1.746l1.594-10.822h1.52l1.67 6.949 1.71-6.949h1.518z" fill-rule="evenodd"/></g><g transform="translate(182.75 444.27)"><path d="m0 0v1.52h-6.683v-1.52h2.468v-9.305h1.709v9.305zm-8.392 1.52h-1.747v-10.825h1.747zm-4.442-10.825v10.825h-1.71l-2.506-6.077-2.507 6.077h-1.709v-10.825h1.709v6.268l2.507-6.268 2.506 6.268v-6.268zm-11.089 10.825h-1.747v-10.825h1.747zm-3.456-10.825v1.596h-5.012v9.229h-1.71v-10.825z" fill-rule="evenodd"/></g><g transform="translate(147.58 419.64)"><path d="m0 0c0 2.47-2.041 4.559-4.51 4.559-0.665 0-1.092-0.096-2.089-0.381l0.143 2.232h5.697v2.135h-7.786l-0.332-6.979 2.135-0.615c0.808 1.138 1.235 1.422 2.185 1.422 1.33 0 2.421-1.043 2.421-2.373 0-1.756-1.52-3.037-3.466-3.037-0.997 0-1.994 0.189-2.563 0.474l-1.045-1.898c0.949-0.477 2.136-0.77 3.323-0.77 3.419 0 5.887 2.24 5.887 5.231" fill-rule="evenodd"/></g><g transform="translate(192.84 418.55)"><path d="m0 0c0 5.315-6.362 3.654-6.553 6.17-0.095 1.235 1.093 1.615 2.089 1.567 1.52-0.047 1.996-1.188 1.996-1.188l1.899 0.57c-0.665 1.663-1.947 2.754-3.847 2.754-2.42 0-4.226-0.996-4.226-3.656 0-2.231 1.806-3.038 2.613-3.37 1.756-0.712 3.844-0.998 3.844-2.802 0-1.139-0.854-1.992-2.088-1.992-1.282 0-2.327 0.712-2.896 1.992l-2.042-0.758c0.903-2.041 2.611-3.428 4.938-3.428 1.139 0 2.184 0.389 2.943 1.053 0.856 0.76 1.33 1.853 1.33 3.088m-10.171-3.895v13.53h-2.137v-8.639l-4.936 8.639h-2.138v-13.53h2.138v9.163l5.174-9.163zm-13.018 6.742c0-1.044-0.238-2.375-0.523-3.085-0.475-1.188-1.092-1.709-2.089-1.709-0.855 0-1.424 0.332-1.852 1.043-0.522 0.855-0.807 2.326-0.807 3.751 0 1.139 0.19 2.374 0.523 3.181 0.474 1.187 1.139 1.709 2.183 1.662 0.808-0.047 1.33-0.334 1.758-1.045 0.521-0.901 0.807-2.28 0.807-3.798m2.136 0c0 1.708-0.333 3.419-0.902 4.604-0.855 1.663-2.041 2.422-3.751 2.422-1.567 0-2.659-0.474-3.466-1.517-0.901-1.283-1.472-3.278-1.472-5.509 0-1.615 0.38-3.418 0.95-4.558 0.807-1.66 1.994-2.43 3.893-2.43 1.424 0 2.517 0.483 3.277 1.529 0.949 1.186 1.471 3.323 1.471 5.459m-10.028 4.89v1.898h-8.357v-1.898h3.087v-11.632h2.136v11.632z" fill-rule="evenodd"/></g></g><text transform="matrix(1 0 0 -1 153.73 393.38)" fill="#000000" font-family="Helvetica" font-size="9px"><tspan x="0 6.4980001 11.502 16.506001 19.503 100.656 107.154 112.158 117.162 120.159" y="0">R12-2R12-3</tspan></text><g clip-path="url(#e)"><g transform="translate(238.95 503.17)"><path d="m0 0h56.859c2.236 0 4.06-1.824 4.06-4.061v-89.346c0-2.239-1.824-4.063-4.06-4.063h-56.859c-2.235 0-4.061 1.824-4.061 4.063v89.346c0 2.209 1.853 4.061 4.061 4.061" fill="#fff" stroke="#000" stroke-width=".5"/></g><g transform="translate(238.97 502.16)"><path d="m0 0h56.831c1.675-2e-3 3.052-1.387 3.057-3.058v-89.325c-5e-3 -1.671-1.382-3.048-3.057-3.056h-56.831c-1.673 8e-3 -3.056 1.385-3.06 3.056v89.325c4e-3 1.671 1.387 3.056 3.06 3.058" fill-rule="evenodd"/></g><g transform="translate(238.99 500.46)"><path d="m0 0h56.79c0.762 0.013 1.402-0.623 1.387-1.386v-89.278c0.015-0.766-0.625-1.403-1.387-1.391h-56.79c-0.764-0.012-1.399 0.625-1.387 1.391v89.278c-0.012 0.764 0.623 1.399 1.387 1.386" fill="#fff" fill-rule="evenodd"/></g><g transform="translate(278.24 485.55)"><path d="m0 0c0-1.253-0.284-2.847-0.626-3.703-0.568-1.425-1.308-2.051-2.506-2.051-1.025 0-1.711 0.4-2.22 1.254-0.629 1.027-0.971 2.791-0.971 4.5 0 1.368 0.228 2.849 0.627 3.817 0.57 1.424 1.367 2.051 2.62 1.994 0.97-0.057 1.596-0.399 2.108-1.254 0.625-1.082 0.968-2.733 0.968-4.557m2.565 0c0 2.051-0.4 4.102-1.083 5.526-1.026 1.994-2.45 2.906-4.499 2.906-1.881 0-3.191-0.57-4.161-1.822-1.083-1.539-1.764-3.932-1.764-6.61 0-1.936 0.455-4.101 1.138-5.468 0.969-1.995 2.392-2.915 4.672-2.915 1.707 0 3.02 0.578 3.93 1.833 1.14 1.422 1.767 3.988 1.767 6.55m-14.984-8.09v16.236h-2.562v-10.366l-5.924 10.366h-2.564v-16.236h2.564v10.996l6.21-10.996z" fill-rule="evenodd"/></g><g transform="translate(294.08 460.86)"><path d="m0 0c0 1.945-1.14 3.418-3.752 4.935-0.996 0.571-1.281 0.951-1.281 1.616 0 0.902 0.712 1.566 1.615 1.566 0.855 0 1.519-0.617 1.567-1.566h1.851c-0.049 2.041-1.519 3.512-3.418 3.512-1.948 0-3.466-1.567-3.466-3.512 0-1.188 0.57-2.233 1.661-2.992 2.753-1.85 1.993-1.33 2.278-1.614 0.807-0.615 1.094-1.185 1.094-1.945 0-1.094-0.856-2.041-1.901-2.041-1.328 0-1.898 1.185-1.898 2.324h-1.9c0-2.23 1.424-4.232 3.798-4.232 2.09 0 3.752 1.764 3.752 3.949m-8.721-3.703-3.132 8.781 2.8 4.748h-2.23l-3.088-5.412v5.412h-1.945v-13.529h1.945v4.32l1.236 2.277 2.373-6.597zm-9.858 9.922c-0.141 1.234-0.332 1.803-0.853 2.467-0.619 0.902-1.568 1.377-2.662 1.377-2.656 0-4.033-2.327-4.033-6.692 0-4.986 1.281-7.32 4.177-7.32 1.899 0 3.325 1.622 3.371 3.853h-1.946c0-0.998-0.283-1.945-1.425-1.945-1.661 0-2.327 1.565-2.327 5.459 0 3.514 0.572 4.748 2.138 4.748 0.901 0 1.422-0.619 1.614-1.947zm-9.81-5.887v9.494h-1.948v-9.732c0-1.282-0.759-2.135-1.803-2.135-1.139 0-1.899 0.853-1.899 2.135v9.732h-1.947v-9.494c0-1.092 0.142-1.661 0.523-2.373 0.666-1.141 1.994-1.908 3.323-1.908 1.282 0 2.564 0.814 3.228 1.908 0.381 0.712 0.523 1.281 0.523 2.373m-11.332 5.887c0-1.093-0.615-1.709-1.755-1.709h-1.995v3.417h1.995c1.045 0 1.755-0.665 1.755-1.708m1.9-9.922-1.945 6.645c1.28 0.476 1.945 1.662 1.945 3.277 0 2.181-1.424 3.607-3.561 3.607h-4.034v-13.529h1.945v6.361h1.851l1.806-6.361zm-9.052 11.725v1.804h-6.883v-1.804h2.468v-11.725h1.945v11.725z" fill-rule="evenodd"/></g><g transform="translate(279.39 446.74)"><path d="m0 0c0-0.342-0.201-0.683-0.512-0.854-0.2-0.115-0.342-0.142-0.741-0.142h-1.539v1.994h1.539c0.427 0 0.541-0.03 0.741-0.144 0.311-0.172 0.512-0.513 0.512-0.854m1.453-5.84-1.425 3.789c0.74 0.342 1.253 1.197 1.253 2.051 0 0.826-0.513 1.681-1.225 2.022-0.398 0.2-0.827 0.256-1.452 0.256h-2.677v-8.118h1.281v3.533h1.539l1.309-3.533zm-7.118 0v1.31h-3.759v2.223h2.363v1.311h-2.363v1.994h3.503v1.28h-4.786v-8.118zm-6.491 8.118h-1.368l-1.707-5.411-1.736 5.411h-1.34l2.563-8.118h0.998zm-8.741-4.073c0-0.627-0.14-1.424-0.312-1.852-0.285-0.712-0.656-1.025-1.253-1.025-0.513 0-0.855 0.199-1.111 0.628-0.313 0.512-0.484 1.395-0.484 2.249 0 0.683 0.114 1.424 0.315 1.909 0.283 0.712 0.683 1.024 1.308 0.997 0.485-0.029 0.797-0.2 1.055-0.627 0.311-0.542 0.482-1.365 0.482-2.279m1.282 0c0 1.025-0.2 2.051-0.542 2.763-0.509 0.996-1.222 1.454-2.249 1.454-0.939 0-1.595-0.287-2.078-0.913-0.542-0.767-0.882-1.964-0.882-3.304 0-0.968 0.227-2.05 0.569-2.735 0.484-0.995 1.197-1.457 2.335-1.457 0.852 0 1.51 0.29 1.966 0.916 0.57 0.712 0.881 1.994 0.881 3.276" fill-rule="evenodd"/></g><g transform="translate(292.87 429.7)"><path d="m0 0c0 3.191-3.816 2.193-3.929 3.704-0.058 0.74 0.655 0.968 1.254 0.938 0.911-0.027 1.195-0.711 1.195-0.711l1.139 0.342c-0.399 0.996-1.168 1.651-2.306 1.651-1.453 0-2.535-0.596-2.535-2.192 0-1.34 1.082-1.824 1.565-2.023 1.055-0.426 2.308-0.598 2.308-1.681 0-0.683-0.512-1.196-1.253-1.196-0.769 0-1.396 0.427-1.737 1.196l-1.224-0.456c0.54-1.223 1.565-2.055 2.961-2.055 0.682 0 1.309 0.233 1.765 0.632 0.513 0.456 0.797 1.11 0.797 1.851m-7.601-0.086c0-0.626-0.343-0.94-0.999-0.94h-1.937v2.223h1.624c0.285 0 0.369 0 0.541-0.058 0.455-0.171 0.771-0.684 0.771-1.225m-0.172 3.759c0-0.371-0.171-0.711-0.456-0.939-0.228-0.172-0.399-0.227-0.77-0.227h-1.538v1.994h1.88c0.57 0 0.884-0.287 0.884-0.828m1.48-3.728c0 0.881-0.485 1.563-1.339 1.963 0.771 0.428 1.14 1.025 1.14 1.824 0 1.166-0.969 2.05-2.251 2.05h-3.076v-8.118h3.076c0.371 0 0.855 0.086 1.142 0.201 0.768 0.312 1.308 1.196 1.308 2.08m-6.721-2.281v1.197h-3.759v6.921h-1.282v-8.118zm-12.131 4.045c0-0.627-0.143-1.425-0.314-1.852-0.286-0.713-0.655-1.025-1.253-1.025-0.513 0-0.854 0.199-1.111 0.627-0.313 0.513-0.484 1.396-0.484 2.25 0 0.683 0.115 1.423 0.314 1.908 0.285 0.712 0.685 1.025 1.31 0.998 0.484-0.029 0.797-0.199 1.053-0.627 0.315-0.543 0.485-1.368 0.485-2.279m1.281 0c0 1.025-0.2 2.051-0.543 2.763-0.51 0.996-1.223 1.452-2.248 1.452-0.94 0-1.594-0.286-2.078-0.911-0.541-0.767-0.883-1.966-0.883-3.304 0-0.969 0.228-2.05 0.568-2.735 0.485-0.996 1.198-1.457 2.336-1.457 0.856 0 1.51 0.289 1.966 0.916 0.569 0.711 0.882 1.994 0.882 3.276m-8.629 0c0-0.627-0.143-1.425-0.312-1.852-0.286-0.713-0.657-1.025-1.254-1.025-0.512 0-0.855 0.199-1.11 0.627-0.314 0.513-0.486 1.396-0.486 2.25 0 0.683 0.115 1.423 0.314 1.908 0.286 0.712 0.683 1.025 1.31 0.998 0.485-0.029 0.798-0.199 1.056-0.627 0.31-0.543 0.482-1.368 0.482-2.279m1.281 0c0 1.025-0.199 2.051-0.541 2.763-0.511 0.996-1.222 1.452-2.25 1.452-0.939 0-1.593-0.286-2.078-0.911-0.54-0.767-0.883-1.966-0.883-3.304 0-0.969 0.228-2.05 0.569-2.735 0.486-0.996 1.196-1.457 2.336-1.457 0.853 0 1.509 0.289 1.965 0.916 0.57 0.711 0.882 1.994 0.882 3.276m-8.629 0c0-0.627-0.142-1.425-0.313-1.852-0.284-0.713-0.653-1.025-1.253-1.025-0.512 0-0.854 0.199-1.111 0.627-0.311 0.513-0.483 1.396-0.483 2.25 0 0.683 0.113 1.423 0.313 1.908 0.285 0.712 0.683 1.025 1.311 0.998 0.483-0.029 0.796-0.199 1.052-0.627 0.314-0.543 0.484-1.368 0.484-2.279m1.283 0c0 1.025-0.2 2.051-0.542 2.763-0.512 0.996-1.225 1.452-2.248 1.452-0.941 0-1.596-0.286-2.081-0.911-0.542-0.767-0.882-1.966-0.882-3.304 0-0.969 0.228-2.05 0.57-2.735 0.482-0.996 1.195-1.457 2.334-1.457 0.853 0 1.512 0.289 1.966 0.916 0.569 0.711 0.883 1.994 0.883 3.276m-7.12 2.792v1.281h-5.497v-1.281h3.873c-0.283-0.458-0.626-1.056-0.912-1.681-0.797-1.709-1.137-3.276-1.166-5.156h1.31c0 0.799 0.057 1.31 0.171 1.995 0.256 1.309 0.797 2.677 1.51 3.874 0.255 0.427 0.425 0.597 0.711 0.968" fill-rule="evenodd"/></g><g transform="translate(294.56 420.81)"><path d="m0 0v1.138h-5.011v-1.138h1.85v-6.979h1.282v6.979zm-5.496 1.138h-1.31l-0.627-4.273-1.053 4.273h-1.254l-1.025-4.273-0.625 4.273h-1.313l1.198-8.117h1.138l1.254 5.213 1.281-5.213h1.139zm-14.183 0h-1.508l-1.965-3.131-1.938 3.131h-1.537l2.848-4.584v-3.533h1.281v3.533zm-7.574-1.138v1.138h-5.014v-1.138h1.852v-6.979h1.281v6.979zm-6.807-1.139c0-0.342-0.199-0.713-0.482-0.854-0.229-0.115-0.372-0.142-0.77-0.142h-1.682v1.992h1.682c0.398 0 0.541-0.027 0.77-0.143 0.283-0.171 0.482-0.511 0.482-0.853m1.31 0c0 0.824-0.541 1.68-1.252 2.021-0.398 0.202-0.827 0.256-1.481 0.256h-2.792v-8.117h1.281v3.533h1.511c0.626 0 1.11 0.114 1.481 0.284 0.711 0.314 1.252 1.169 1.252 2.023m-7.46-5.84v8.117h-1.282l-1.881-4.556-1.878 4.556h-1.282v-8.117h1.282v4.699l1.878-4.699 1.881 4.699v-4.699zm-7.661 0v1.311h-3.759v2.222h2.363v1.311h-2.363v1.992h3.502v1.281h-4.784v-8.117z" fill-rule="evenodd"/></g></g><text transform="matrix(1 0 0 -1 491.85 393.38)" fill="#000000" font-family="Helvetica" font-size="9px"><tspan x="0 6.4980001 11.502 16.506001 19.503" y="0">R12-5</tspan></text><g clip-path="url(#d)"><g transform="translate(474.7 503.17)"><path d="m0 0h56.859c2.237 0 4.061-1.824 4.061-4.061v-89.347c0-2.237-1.824-4.061-4.061-4.061h-56.859c-2.234 0-4.06 1.824-4.06 4.061v89.347c0 2.209 1.853 4.061 4.06 4.061" fill="#fff"/></g></g><g clip-path="url(#c)"><g transform="translate(474.7 503.17)"><path d="m0 0h56.859c2.237 0 4.061-1.824 4.061-4.061v-89.347c0-2.237-1.824-4.061-4.061-4.061h-56.859c-2.234 0-4.06 1.824-4.06 4.061v89.347c0 2.209 1.853 4.061 4.06 4.061" fill="none" stroke="#000" stroke-width=".5"/></g></g><g clip-path="url(#b)"><g transform="translate(474.72 502.16)"><path d="m0 0h56.83c1.676-2e-3 3.053-1.386 3.058-3.056v-89.325c-5e-3 -1.671-1.382-3.05-3.058-3.058h-56.83c-1.674 8e-3 -3.057 1.387-3.061 3.058v89.325c4e-3 1.67 1.387 3.054 3.061 3.056" fill-rule="evenodd"/></g><g transform="translate(474.74 500.46)"><path d="m0 0h56.791c0.762 0.012 1.401-0.623 1.387-1.387v-89.279c0.014-0.764-0.625-1.401-1.387-1.389h-56.791c-0.763-0.012-1.398 0.625-1.386 1.389v89.279c-0.012 0.764 0.623 1.399 1.386 1.387" fill="#fff" fill-rule="evenodd"/></g><g transform="translate(528.45 487.15)"><path d="m0 0v1.582h-6.773v-1.582h2.593v-7.437h1.584v7.437zm-8.453-7.437v9.019h-1.615v-3.482h-4.049v3.482h-1.613v-9.019h1.613v3.924l4.049 0.033v-3.957zm-12.66 4.494v-1.613h1.488c-0.221-0.824-1.013-1.426-1.9-1.426-1.676 0-2.119 1.615-2.119 3.07 0 1.774 0.853 3.039 2.119 3.039 0.793 0 1.361-0.443 1.711-1.203l1.642 0.571c-0.631 1.39-1.738 2.246-3.353 2.246-2.246 0-3.735-1.899-3.735-4.653 0-2.341 1.077-4.687 3.735-4.687 1.994 0 3.576 1.523 3.576 3.486v1.17zm-6.332 4.525h-1.613v-9.019h1.613zm-3.576-9.019v1.613h-5.096v2.471h2.691v1.642h-2.691v1.68h4.936v1.613h-6.582v-9.019zm-8.422 9.019h-1.645l-0.918-5.822-1.392 5.822h-1.614l-1.328-5.822-0.982 5.822h-1.678l1.647-9.019h1.709l1.423 6.045 1.456-6.045h1.709z" fill-rule="evenodd"/></g><g transform="translate(519.53 472.26)"><path d="m0 0v1.582h-6.769v-1.582h2.594v-7.438h1.58v7.438zm-8.258 1.582h-1.615v-9.02h1.615zm-3.957-9.02v9.02h-1.582l-2.658-5.35-2.627 5.35h-1.582v-9.02h1.582v5.508l2.627-5.508 2.658 5.508v-5.508zm-10.757 9.02h-1.616v-9.02h1.616zm-3.133-9.02v1.391h-5.127v7.629h-1.615v-9.02z" fill-rule="evenodd"/></g><g transform="translate(530.21 457.68)"><path d="m0 0v1.265h-5.57v-1.265h2.058v-7.754h1.424v7.754zm-8.799-4.907c0-0.853-0.726-1.55-1.644-1.55-0.885 0-1.614 0.697-1.614 1.55 0 0.76 0.729 1.364 1.614 1.364 0.886 0 1.644-0.604 1.644-1.364m-0.377 3.799c0-0.537-0.572-0.98-1.267-0.98-0.696 0-1.266 0.443-1.266 0.98 0 0.602 0.57 1.076 1.266 1.076 0.695 0 1.267-0.474 1.267-1.076m1.803-3.765c0 0.822-0.35 1.55-1.045 2.087 0.443 0.477 0.695 1.014 0.695 1.647 0 1.393-1.263 2.562-2.72 2.562-1.455 0-2.692-1.169-2.692-2.562 0-0.633 0.223-1.17 0.666-1.647-0.666-0.537-1.043-1.232-1.043-2.087 0-1.647 1.424-3.043 3.069-3.043 1.644 0 3.07 1.396 3.07 3.043" fill-rule="evenodd"/></g><g transform="translate(530.25 442.79)"><path d="m0 0v1.266h-5.57v-1.266h2.056v-7.754h1.426v7.754zm-7.373-7.754v1.455h-4.43c0.442 1.014 0.916 1.551 1.772 2.059l0.443 0.252 0.475 0.254 0.441 0.285c0.129 0.062 0.256 0.158 0.383 0.254 0.602 0.537 0.916 1.232 0.916 1.929 0 1.489-1.361 2.69-3.068 2.69-1.584 0-2.754-0.918-3.073-2.404l1.426-0.317c0.158 0.822 0.727 1.266 1.647 1.266 0.884 0 1.642-0.537 1.642-1.203 0-0.381-0.252-0.76-0.599-0.981l-0.442-0.254-0.445-0.252-0.475-0.254c-0.127-0.095-0.252-0.191-0.41-0.285-0.633-0.474-1.203-1.043-1.584-1.74-0.504-0.855-0.726-1.709-0.76-2.754zm-8.07 0v9.02h-1.139c-0.254-0.348-0.664-0.569-1.043-0.569h-0.096v-1.14h0.823v-7.311z" fill-rule="evenodd"/></g><g transform="translate(530.22 427.9)"><path d="m0 0v1.266h-5.571v-1.266h2.057v-7.754h1.424v7.754zm-8.166-5.127c0-0.728-0.758-1.33-1.643-1.33-0.889 0-1.615 0.602-1.615 1.33 0 0.696 0.726 1.297 1.615 1.297 0.916 0 1.643-0.601 1.643-1.297m1.426-0.033c0 1.52-1.395 2.754-3.069 2.754-0.349 0-0.57 0-1.078-0.094 0.539 1.139 1.109 1.868 2.215 2.721l-0.729 1.203c-2.088-1.392-3.48-3.957-3.48-6.457 0-1.613 1.328-2.885 3.072-2.885 1.738 0 3.069 1.209 3.069 2.758m-8.071-2.594v9.02h-1.138c-0.254-0.348-0.665-0.57-1.043-0.57h-0.096v-1.139h0.822v-7.311z" fill-rule="evenodd"/></g><g transform="translate(495.23 451.82)"><path d="m0 0h1.942v7.094l-12.281 0.018v-1.237h-1.688c-0.687 0-1.117 0-1.402-0.961l-0.471-1.875h-1.096c-0.537 0-0.537 0-0.537-0.523v-2.516h-0.574v-0.58h2.059c0.105-0.793 0.603-1.332 1.392-1.332 0.781 0 1.313 0.553 1.489 1.332h0.828v0.58h7.236c-0.014-0.074-0.02-0.236-0.02-0.318 0-0.879 0.709-1.594 1.579-1.594 0.867 0 1.574 0.715 1.574 1.594 0 0.1-0.012 0.227-0.03 0.318" fill-rule="evenodd"/></g><g transform="translate(485.84 436.79)"><path d="m0 0h1.725l-0.717 0.818h-4.916l-2e-3 4.622h-2.334c-0.608 0-0.99 0-1.242-0.887l-0.422-1.736h-0.971c-0.477 0-0.477 0-0.477-0.487v-2.33h-0.511v-0.537h1.83c0.092-0.732 0.537-1.234 1.236-1.234 0.695 0 1.168 0.511 1.324 1.234h0.733v0.537h1.986c-0.012-0.068-0.015-0.221-0.015-0.295 0-0.814 0.628-1.476 1.4-1.476 0.769 0 1.398 0.662 1.398 1.476 0 0.094-9e-3 0.209-0.025 0.295" fill-rule="evenodd"/></g><g transform="translate(499.22 435.08)"><path d="m0 0c0.826 0 1.5 0.711 1.5 1.584 0 0.109-0.01 0.219-0.033 0.322h2.361v7.055h-20.561v-5.709h4.903l1.164-1.346h9.197c-0.019-0.103-0.029-0.213-0.029-0.322 0-0.873 0.672-1.584 1.498-1.584" fill-rule="evenodd"/></g><g transform="translate(506.27 420.13)"><path d="m0 0c0.879 0 1.596 0.719 1.596 1.601 0 0.104-0.01 0.207-0.031 0.307l1.32-2e-3v7.068h-14.33v-6.472h-0.767v6.472l-12.264-2e-3v-1.234h-1.697c-0.694 0-1.123 0-1.411-0.959l-0.476-1.871h-1.102c-0.541 0-0.541 0-0.541-0.525v-2.51h-0.58v-0.582h2.074c0.106-0.789 0.608-1.33 1.403-1.33 0.787 0 1.32 0.552 1.498 1.33h0.832v0.582h5.527c-0.013-0.074-0.017-0.238-0.017-0.32 0-0.877 0.711-1.592 1.588-1.592 0.873 0 1.585 0.715 1.585 1.592 0 0.101-0.013 0.226-0.031 0.32h4.379l1.61-2e-3c-0.022-0.104-0.034-0.213-0.034-0.322 0-0.881 0.717-1.6 1.594-1.6 0.879 0 1.594 0.719 1.594 1.6 0 0.107-0.012 0.214-0.031 0.318l5.15 0.045c-0.02-0.102-0.031-0.205-0.031-0.311 0-0.882 0.716-1.601 1.593-1.601" fill-rule="evenodd"/></g></g><text transform="matrix(1 0 0 -1 373.61 393.38)" fill="#000000" font-family="Helvetica" font-size="9px"><tspan x="0 6.4980001 11.502 16.506001 19.503" y="0">R12-4</tspan></text><g clip-path="url(#a)"><g transform="translate(433.99 466.62)"><path d="m0 0v-56.859c0-2.237-1.824-4.061-4.06-4.061h-89.348c-2.236 0-4.061 1.824-4.061 4.061v56.859c0 2.234 1.825 4.061 4.061 4.061h89.348c2.209 0 4.06-1.854 4.06-4.061" fill="#fff" stroke="#000" stroke-width=".5"/></g><g transform="translate(432.98 466.61)"><path d="m0 0v-56.83c-2e-3 -1.675-1.387-3.052-3.057-3.058h-89.324c-1.672 6e-3 -3.051 1.383-3.059 3.058v56.83c8e-3 1.674 1.387 3.057 3.059 3.061h89.324c1.67-4e-3 3.055-1.387 3.057-3.061" fill-rule="evenodd"/></g><g transform="translate(431.28 466.59)"><path d="m0 0v-56.791c0.012-0.762-0.623-1.4-1.387-1.387h-89.279c-0.764-0.013-1.4 0.625-1.389 1.387v56.791c-0.011 0.764 0.625 1.398 1.389 1.387h89.279c0.764 0.011 1.399-0.623 1.387-1.387" fill="#fff" fill-rule="evenodd"/></g><g transform="translate(353 448.18)"><path d="m0 0h-1.334l-1.027 5.674-1.028-5.674h-1.371l-1.714 10.85h1.523l0.914-5.787 1.066 5.787h1.219l1.027-5.787 0.953 5.787h1.522z" fill="#1f1b17"/></g><g transform="translate(356.24 448.18)"><path d="m0 0v10.85h5.102v-1.522h-3.54v-2.742h2.247v-1.485h-2.247v-3.578h3.96v-1.523z" fill="#1f1b17"/></g><path d="m363.58 459.03h1.521v-10.85h-1.521z" fill="#1f1b17"/><g transform="translate(373.06 449.51)"><path d="m0 0c-0.417-0.952-1.292-1.524-2.398-1.524-1.293 0-2.246 0.648-2.779 1.867-0.342 0.798-0.571 2.322-0.571 3.73 0 1.523 0.114 2.627 0.495 3.655 0.38 1.143 1.486 1.98 2.742 1.98 1.56 0 2.74-1.142 2.816-2.741h-1.56c-0.037 0.723-0.534 1.218-1.295 1.218-0.532 0-0.951-0.266-1.217-0.8-0.305-0.533-0.496-1.75-0.496-3.044 0-0.915 0.076-1.868 0.228-2.705 0.229-1.065 0.762-1.636 1.6-1.636 0.799 0 1.18 0.532 1.18 1.675v0.722h-1.219v1.524h2.779v-2.246c0-0.762-0.076-1.219-0.305-1.675" fill="#1f1b17"/></g><g transform="translate(380.07 448.18)"><path d="m0 0v4.911h-2.968v-4.911h-1.563v10.85h1.563v-4.416h2.968v4.416h1.561v-10.85z" fill="#1f1b17"/></g><g transform="translate(386.69 457.58)"><path d="m0 0v-9.404h-1.56v9.404h-1.981v1.446h5.522v-1.446z" fill="#1f1b17"/></g><g transform="translate(395.56 448.18)"><path d="m0 0v10.85h1.561v-9.403h3.961v-1.447z" fill="#1f1b17"/></g><path d="m402.61 459.03h1.524v-10.85h-1.524z" fill="#1f1b17"/><g transform="translate(412.13 448.18)"><path d="m0 0v6.092l-2.018-6.092-2.017 6.092v-6.092h-1.563v10.85h1.563l2.017-6.091 2.018 6.091h1.561v-10.85z" fill="#1f1b17"/></g><path d="m416.05 459.03h1.523v-10.85h-1.523z" fill="#1f1b17"/><g transform="translate(422.67 457.58)"><path d="m0 0v-9.404h-1.563v9.404h-1.978v1.446h5.519v-1.446z" fill="#1f1b17"/></g><g transform="translate(343.78 432.66)"><path d="m0 0c0.061 1.188 0.153 1.614 0.426 2.375 0.365 0.914 0.822 1.615 1.4 2.163 0.214 0.183 0.397 0.335 1.098 0.823 0.578 0.396 0.73 0.609 0.73 1.036 0 0.67-0.548 1.218-1.218 1.218s-1.219-0.548-1.219-1.218h-1.217c0.029 1.371 1.065 2.435 2.436 2.435 1.34 0 2.406-1.096 2.406-2.435 0-0.702-0.243-1.249-0.73-1.706-0.092-0.062-0.184-0.122-0.275-0.214l-0.608-0.426-0.336-0.244c-0.549-0.396-1.127-1.188-1.371-1.918-0.09-0.214-0.121-0.366-0.182-0.671h3.502v-1.218z" fill="#1f1b17"/></g><g transform="translate(356.58 440.18)"><path d="m0 0v-7.524h-1.248v7.524h-1.584v1.156h4.416v-1.156z" fill="#1f1b17"/></g><g transform="translate(362.82 439.18)"><path d="m0 0c-0.213 0.761-0.547 1.097-1.066 1.097-0.547 0-0.883-0.336-1.096-1.066-0.213-0.67-0.273-1.25-0.273-2.224 0-0.944 0.09-1.493 0.273-2.193 0.213-0.731 0.549-1.066 1.096-1.066 0.519 0 0.853 0.335 1.066 1.066 0.213 0.7 0.276 1.219 0.276 2.224 0 0.974-0.092 1.523-0.276 2.162m0.975-5.178c-0.426-1.036-1.066-1.492-2.041-1.492-1.035 0-1.645 0.456-2.07 1.492-0.366 0.853-0.489 1.675-0.489 3.016 0 1.309 0.123 2.193 0.489 3.015 0.457 1.035 1.066 1.461 2.07 1.461 1.006 0 1.615-0.426 2.041-1.492 0.365-0.853 0.488-1.675 0.488-2.984 0-1.341-0.123-2.194-0.488-3.016" fill="#1f1b17"/></g><g transform="translate(369.95 432.66)"><path d="m0 0-2.679 5.818v-5.818h-1.248v8.68h1.248l2.375-5.207v5.207h1.25v-8.68z" fill="#1f1b17"/></g><g transform="translate(374.79 432.51)"><path d="m0 0c-1.523 0-2.437 1.279-2.437 2.711h1.218c0-0.732 0.366-1.493 1.219-1.493 0.67 0 1.219 0.609 1.219 1.309 0 0.487-0.184 0.854-0.701 1.249-0.184 0.183 0.304-0.151-1.463 1.036-0.699 0.488-1.067 1.158-1.067 1.919 0 1.248 0.977 2.253 2.225 2.253 1.219 0 2.162-0.943 2.193-2.253h-1.187c-0.031 0.609-0.457 1.005-1.006 1.005-0.578 0-1.035-0.427-1.035-1.005 0-0.427 0.181-0.67 0.822-1.036 1.674-0.974 2.406-1.919 2.406-3.168 0-1.4-1.066-2.527-2.406-2.527" fill="#1f1b17"/></g><g transform="translate(385.51 440.12)"><path d="m0 0h-1.28v-2.467h1.28c0.73 0 1.127 0.456 1.127 1.249 0 0.731-0.457 1.218-1.127 1.218m0.06-3.655h-1.34v-3.807h-1.248v8.68h2.588c1.371 0 2.285-0.974 2.285-2.436 0-1.584-0.822-2.437-2.285-2.437" fill="#1f1b17"/></g><g transform="translate(389.04 432.66)"><path d="m0 0v8.68h4.082v-1.218h-2.834v-2.192h1.797v-1.189h-1.797v-2.863h3.168v-1.218z" fill="#1f1b17"/></g><g transform="translate(397.45 440.12)"><path d="m0 0h-1.277v-2.192h1.277c0.733 0 1.127 0.395 1.127 1.095 0 0.67-0.457 1.097-1.127 1.097m1.067-7.462-1.157 4.081h-1.187v-4.081h-1.25v8.68h2.59c1.369 0 2.283-0.912 2.283-2.315 0-1.035-0.426-1.796-1.248-2.101l1.248-4.264z" fill="#1f1b17"/></g><g transform="translate(407.65 438.75)"><path d="m0 0-0.609-2.498h1.248zm1.553-6.092-0.609 2.375h-1.858l-0.58-2.375h-1.248l2.162 8.68h1.219l2.162-8.68z" fill="#1f1b17"/></g><g transform="translate(414.72 432.66)"><path d="m0 0-1.219 2.954-1.219-2.954h-1.31l1.888 4.508-1.765 4.172h1.308l1.098-2.618 1.096 2.618h1.31l-1.736-4.172 1.889-4.508z" fill="#1f1b17"/></g><g transform="translate(417.25 432.66)"><path d="m0 0v8.68h1.248v-7.523h3.168v-1.157z" fill="#1f1b17"/></g><g transform="translate(422.88 432.66)"><path d="m0 0v8.68h4.082v-1.218h-2.834v-2.192h1.797v-1.189h-1.797v-2.863h3.168v-1.218z" fill="#1f1b17"/></g><g transform="translate(349.53 417.06)"><path d="m0 0v7.127h-0.548v0.945c0.488 0.03 0.792 0.243 0.974 0.609h0.822v-8.681z" fill="#1f1b17"/></g><g transform="translate(356.16 423.58)"><path d="m0 0c-0.213 0.761-0.547 1.096-1.065 1.096-0.548 0-0.884-0.335-1.097-1.067-0.213-0.67-0.274-1.248-0.274-2.223 0-0.944 0.091-1.493 0.274-2.193 0.213-0.73 0.549-1.066 1.097-1.066 0.518 0 0.852 0.336 1.065 1.066 0.214 0.7 0.275 1.218 0.275 2.224 0 0.975-0.091 1.522-0.275 2.163m0.975-5.179c-0.426-1.035-1.066-1.492-2.04-1.492-1.037 0-1.646 0.457-2.072 1.492-0.365 0.854-0.487 1.676-0.487 3.016 0 1.309 0.122 2.192 0.487 3.016 0.457 1.035 1.067 1.461 2.072 1.461 1.004 0 1.614-0.426 2.04-1.492 0.367-0.852 0.488-1.676 0.488-2.985 0-1.34-0.121-2.193-0.488-3.016" fill="#1f1b17"/></g><g transform="translate(365.85 424.59)"><path d="m0 0v-7.524h-1.248v7.524h-1.584v1.157h4.416v-1.157z" fill="#1f1b17"/></g><g transform="translate(372.1 423.58)"><path d="m0 0c-0.213 0.761-0.547 1.096-1.067 1.096-0.547 0-0.882-0.335-1.095-1.067-0.213-0.67-0.274-1.248-0.274-2.223 0-0.944 0.09-1.493 0.274-2.193 0.213-0.73 0.548-1.066 1.095-1.066 0.52 0 0.854 0.336 1.067 1.066 0.213 0.7 0.275 1.218 0.275 2.224 0 0.975-0.092 1.522-0.275 2.163m0.974-5.179c-0.425-1.035-1.066-1.492-2.041-1.492-1.035 0-1.644 0.457-2.07 1.492-0.365 0.854-0.488 1.676-0.488 3.016 0 1.309 0.123 2.192 0.488 3.016 0.457 1.035 1.066 1.461 2.07 1.461 1.006 0 1.616-0.426 2.041-1.492 0.366-0.852 0.489-1.676 0.489-2.985 0-1.34-0.123-2.193-0.489-3.016" fill="#1f1b17"/></g><g transform="translate(379.22 417.06)"><path d="m0 0-2.68 5.818v-5.818h-1.248v8.681h1.248l2.375-5.209v5.209h1.25v-8.681z" fill="#1f1b17"/></g><g transform="translate(384.06 416.91)"><path d="m0 0c-1.523 0-2.437 1.279-2.437 2.711h1.219c0-0.731 0.365-1.493 1.218-1.493 0.67 0 1.219 0.609 1.219 1.309 0 0.489-0.183 0.854-0.701 1.249-0.184 0.183 0.305-0.152-1.463 1.037-0.699 0.487-1.064 1.157-1.064 1.918 0 1.25 0.974 2.254 2.222 2.254 1.219 0 2.162-0.944 2.194-2.254h-1.188c-0.031 0.61-0.457 1.005-1.006 1.005-0.578 0-1.035-0.425-1.035-1.005 0-0.426 0.182-0.67 0.822-1.036 1.676-0.974 2.407-1.919 2.407-3.168 0-1.4-1.067-2.527-2.407-2.527" fill="#1f1b17"/></g><g transform="translate(396.7 418.13)"><path d="m0 0c-0.336-0.761-1.035-1.218-1.92-1.218-1.034 0-1.796 0.518-2.222 1.492-0.275 0.64-0.457 1.858-0.457 2.985 0 1.218 0.09 2.102 0.397 2.924 0.303 0.915 1.187 1.584 2.192 1.584 1.248 0 2.194-0.914 2.254-2.193h-1.25c-0.029 0.579-0.426 0.975-1.035 0.975-0.426 0-0.762-0.214-0.974-0.64-0.244-0.427-0.396-1.4-0.396-2.436 0-0.732 0.06-1.493 0.184-2.164 0.181-0.852 0.608-1.309 1.278-1.309 0.639 0 0.943 0.427 0.943 1.341v0.578h-0.974v1.219h2.224v-1.797c0-0.61-0.06-0.975-0.244-1.341" fill="#1f1b17"/></g><g transform="translate(401.21 424.53)"><path d="m0 0h-1.279v-2.192h1.279c0.73 0 1.127 0.395 1.127 1.096 0 0.67-0.457 1.096-1.127 1.096m1.066-7.462-1.158 4.082h-1.187v-4.082h-1.248v8.681h2.587c1.372 0 2.286-0.914 2.286-2.315 0-1.035-0.428-1.797-1.25-2.102l1.25-4.264z" fill="#1f1b17"/></g><g transform="translate(408.49 423.58)"><path d="m0 0c-0.213 0.761-0.549 1.096-1.066 1.096-0.549 0-0.883-0.335-1.096-1.067-0.213-0.67-0.275-1.248-0.275-2.223 0-0.944 0.091-1.493 0.275-2.193 0.213-0.73 0.547-1.066 1.096-1.066 0.517 0 0.853 0.336 1.066 1.066 0.213 0.7 0.274 1.218 0.274 2.224 0 0.975-0.09 1.522-0.274 2.163m0.975-5.179c-0.426-1.035-1.067-1.492-2.041-1.492-1.035 0-1.645 0.457-2.071 1.492-0.365 0.854-0.488 1.676-0.488 3.016 0 1.309 0.123 2.192 0.488 3.016 0.458 1.035 1.067 1.461 2.071 1.461 1.006 0 1.615-0.426 2.041-1.492 0.365-0.852 0.488-1.676 0.488-2.985 0-1.34-0.123-2.193-0.488-3.016" fill="#1f1b17"/></g><g transform="translate(413.7 416.91)"><path d="m0 0c-1.523 0-2.437 1.279-2.437 2.711h1.218c0-0.731 0.366-1.493 1.219-1.493 0.67 0 1.219 0.609 1.219 1.309 0 0.489-0.184 0.854-0.701 1.249-0.184 0.183 0.304-0.152-1.463 1.037-0.699 0.487-1.065 1.157-1.065 1.918 0 1.25 0.973 2.254 2.223 2.254 1.219 0 2.162-0.944 2.193-2.254h-1.187c-0.031 0.61-0.457 1.005-1.006 1.005-0.578 0-1.035-0.425-1.035-1.005 0-0.426 0.182-0.67 0.822-1.036 1.674-0.974 2.406-1.919 2.406-3.168 0-1.4-1.066-2.527-2.406-2.527" fill="#1f1b17"/></g><g transform="translate(419.58 416.91)"><path d="m0 0c-1.523 0-2.437 1.279-2.437 2.711h1.218c0-0.731 0.366-1.493 1.219-1.493 0.67 0 1.217 0.609 1.217 1.309 0 0.489-0.182 0.854-0.699 1.249-0.184 0.183 0.304-0.152-1.463 1.037-0.701 0.487-1.067 1.157-1.067 1.918 0 1.25 0.975 2.254 2.225 2.254 1.217 0 2.162-0.944 2.193-2.254h-1.189c-0.029 0.61-0.457 1.005-1.004 1.005-0.58 0-1.035-0.425-1.035-1.005 0-0.426 0.181-0.67 0.822-1.036 1.674-0.974 2.406-1.919 2.406-3.168 0-1.4-1.066-2.527-2.406-2.527" fill="#1f1b17"/></g></g></g></svg>
