<?xml version="1.0" encoding="UTF-8"?>
<svg width="672.85" height="568.31" version="1.1" viewBox="0 0 672.85 568.31" xml:space="preserve" xmlns="http://www.w3.org/2000/svg"><defs><clipPath id="ac"><path d="m63 45h513v448.44h-513z"/></clipPath><clipPath id="ab"><path d="m63 45h513v448.44h-513z"/></clipPath><clipPath id="aa"><path d="m67.182 45h504.64v448.44h-504.64z"/></clipPath><clipPath id="z"><path d="m63 45h513v448.44h-513z"/></clipPath><clipPath id="y"><path d="m67.182 45h504.64v448.44h-504.64z"/></clipPath><clipPath id="x"><path d="m63 45h513v448.44h-513z"/></clipPath><clipPath id="w"><path d="m63 45h513v448.44h-513z"/></clipPath><clipPath id="v"><path d="m63 45h513v448.44h-513z"/></clipPath><clipPath id="u"><path d="m67.182 45h504.64v448.44h-504.64z"/></clipPath><clipPath id="t"><path d="m63 45h513v448.44h-513z"/></clipPath><clipPath id="s"><path d="m63 45h513v448.44h-513z"/></clipPath><clipPath id="r"><path d="m63 45h513v448.44h-513z"/></clipPath><clipPath id="q"><path d="m63 45h513v448.44h-513z"/></clipPath><clipPath id="p"><path d="m67.182 45h504.64v448.44h-504.64z"/></clipPath><clipPath id="o"><path d="m63 45h513v448.44h-513z"/></clipPath><clipPath id="n"><path d="m63 45h513v448.44h-513z"/></clipPath><clipPath id="m"><path d="m63 45h513v448.44h-513z"/></clipPath><clipPath id="l"><path d="m63 45h513v448.44h-513z"/></clipPath><clipPath id="k"><path d="m63 45h513v448.44h-513z"/></clipPath><clipPath id="j"><path d="m63 45h513v448.44h-513z"/></clipPath><clipPath id="i"><path d="m67.182 45h504.64v448.44h-504.64z"/></clipPath><clipPath id="h"><path d="m63 45h513v448.44h-513z"/></clipPath><clipPath id="g"><path d="m63 45h513v448.44h-513z"/></clipPath><clipPath id="f"><path d="m63 45h513v448.44h-513z"/></clipPath><clipPath id="e"><path d="m63 45h513v448.44h-513z"/></clipPath><clipPath id="d"><path d="m63 45h513v448.44h-513z"/></clipPath><clipPath id="c"><path d="m63 45h513v448.44h-513z"/></clipPath><clipPath id="b"><path d="m67.182 45h504.64v448.44h-504.64z"/></clipPath><clipPath id="a"><path d="m63 45h513v448.44h-513z"/></clipPath></defs><g transform="matrix(1.3333 0 0 -1.3333 -89.577 628.48)"><g clip-path="url(#ac)"><g transform="translate(311.31 437.44)"><path d="m0 0-32.706 32.707c-1.283 1.282-3.38 1.282-4.663 0l-32.707-32.707c-1.282-1.282-1.282-3.38 0-4.664l32.707-32.706c1.283-1.282 3.38-1.282 4.663 0l32.706 32.706c1.282 1.284 1.282 3.382 0 4.664" fill="#ffd24f"/><path d="m0 0-32.706 32.707c-1.283 1.282-3.38 1.282-4.663 0l-32.707-32.707c-1.282-1.282-1.282-3.38 0-4.664l32.707-32.706c1.283-1.282 3.38-1.282 4.663 0l32.706 32.706c1.282 1.284 1.282 3.382 0 4.664z" fill="none" stroke="#000" stroke-width=".5"/></g><g transform="translate(310.69 436.82)"><path d="m0 0-32.706 32.706c-0.939 0.94-2.477 0.94-3.418 0l-32.706-32.706c-0.94-0.94-0.94-2.478 0-3.418l32.706-32.707c0.941-0.94 2.479-0.94 3.418 0l32.706 32.707c0.94 0.94 0.94 2.478 0 3.418" fill-rule="evenodd"/></g><g transform="translate(309.75 435.89)"><path d="m0 0-32.704 32.707c-0.426 0.425-1.123 0.425-1.55 0l-32.706-32.707c-0.426-0.426-0.426-1.124 0-1.549l32.706-32.706c0.427-0.427 1.124-0.427 1.55 0l32.704 32.706c0.428 0.425 0.428 1.123 0 1.549" fill="#ffd24f" fill-rule="evenodd"/></g><g transform="translate(273.88 438.67)"><path d="m0 0c-0.342-1.134-0.683-2.268-1.024-3.401-0.134-0.445-0.234-0.943-0.47-1.349-0.512-0.881-1.746-1.043-2.459-0.299-0.394 0.411-0.608 1.015-0.854 1.517-0.506 1.026-1.012 2.052-1.517 3.078-2.091 4.241-4.182 8.481-6.272 12.722 4.732 0 9.466 1e-3 14.199 2e-3h3.377c0.594 0 1.264 0.063 1.844-0.089 0.965-0.254 1.602-1.347 0.936-2.243-0.309-0.415-0.727-0.792-1.077-1.178-0.795-0.879-1.589-1.758-2.384-2.636 3.664-1.664 7.22-4.217 9.394-7.662 2.162-3.431 2.502-7.154 2.494-11.101-4e-3 -2.828-0.01-5.656-0.015-8.484 0-0.057 0.033-0.445-0.028-0.445h-5.898c-0.389 0-1.762-0.267-1.762 0.223 0 1.15-2e-3 2.299-2e-3 3.449-2e-3 2.396 0.02 4.794-6e-3 7.191-0.019 1.891-0.431 3.676-1.459 5.279-1.595 2.49-4.492 4.105-7.017 5.426" fill-rule="evenodd"/></g></g><text transform="matrix(1 0 0 -1 265.58 386.55)" fill="#000000" font-family="Helvetica" font-size="9px"><tspan x="0 8.4960003 13.5 16.497" y="0">W1-2</tspan></text><g clip-path="url(#ab)"><g transform="translate(484.17 437.44)"><path d="m0 0-32.769 32.707c-1.283 1.282-3.383 1.282-4.664 0l-32.709-32.707c-1.284-1.282-1.284-3.38 0-4.664l32.709-32.706c1.281-1.282 3.381-1.282 4.664 0l32.769 32.706c1.283 1.284 1.283 3.382 0 4.664" fill="#ffd24f"/><path d="m0 0-32.769 32.707c-1.283 1.282-3.383 1.282-4.664 0l-32.709-32.707c-1.284-1.282-1.284-3.38 0-4.664l32.709-32.706c1.281-1.282 3.381-1.282 4.664 0l32.769 32.706c1.283 1.284 1.283 3.382 0 4.664z" fill="none" stroke="#000" stroke-width=".5"/></g><g transform="translate(483.55 436.82)"><path d="m0 0-32.771 32.706c-0.942 0.94-2.479 0.94-3.418 0l-32.707-32.706c-0.942-0.94-0.942-2.478 0-3.418l32.707-32.707c0.939-0.94 2.476-0.94 3.418 0l32.771 32.707c0.94 0.94 0.94 2.478 0 3.418" fill-rule="evenodd"/></g><g transform="translate(482.62 435.89)"><path d="m0 0-32.772 32.707c-0.426 0.425-1.123 0.425-1.549 0l-32.707-32.707c-0.426-0.426-0.426-1.124 0-1.549l32.707-32.706c0.426-0.427 1.123-0.427 1.549 0l32.772 32.706c0.425 0.425 0.425 1.123 0 1.549" fill="#ffd24f" fill-rule="evenodd"/></g><g transform="translate(455.65 428.29)"><path d="m0 0 0.012-11.438 7.699-1e-3 -8e-3 15.595c0 2.863-2.387 5.214-5.264 5.214h-9.775c-1.029 0-1.869 0.84-1.869 1.869l4e-3 6.271 4.117-1.228c0.57-0.159 0.992-0.225 1.43 0.073 0.629 0.427 0.793 1.288 0.365 1.916l-9.645 14.259-9.66-14.259c-0.428-0.628-0.264-1.489 0.363-1.916 0.42-0.286 0.856-0.234 1.373-0.102l4.186 1.257 6e-3 -10.425v0.021c0-2.862 2.31-5.213 5.174-5.235l9.619-2e-3c1.029 0 1.873-0.84 1.873-1.869" fill-rule="evenodd"/></g></g><text transform="matrix(1 0 0 -1 438.34 386.55)" fill="#000000" font-family="Helvetica" font-size="9px"><tspan x="0 8.4960003 13.5 16.497" y="0">W1-3</tspan></text><g clip-path="url(#aa)"><g transform="translate(570.57 437.44)"><path d="m0 0-32.709 32.707c-1.284 1.282-3.381 1.282-4.664 0l-32.707-32.707c-1.282-1.282-1.282-3.38 0-4.664l32.707-32.706c1.283-1.282 3.38-1.282 4.664 0l32.709 32.706c1.281 1.284 1.281 3.382 0 4.664" fill="#ffd24f"/><path d="m0 0-32.709 32.707c-1.284 1.282-3.381 1.282-4.664 0l-32.707-32.707c-1.282-1.282-1.282-3.38 0-4.664l32.707-32.706c1.283-1.282 3.38-1.282 4.664 0l32.709 32.706c1.281 1.284 1.281 3.382 0 4.664z" fill="none" stroke="#000" stroke-width=".5"/></g></g><g clip-path="url(#z)"><g transform="translate(569.95 436.82)"><path d="m0 0-32.709 32.706c-0.94 0.94-2.479 0.94-3.418 0l-32.707-32.706c-0.94-0.94-0.94-2.478 0-3.418l32.707-32.707c0.939-0.94 2.478-0.94 3.418 0l32.709 32.707c0.939 0.94 0.939 2.478 0 3.418" fill-rule="evenodd"/></g><g transform="translate(569.02 435.89)"><path d="m0 0-32.707 32.707c-0.426 0.425-1.123 0.425-1.551 0l-32.705-32.707c-0.426-0.426-0.426-1.124 0-1.549l32.705-32.706c0.428-0.427 1.125-0.427 1.551 0l32.707 32.706c0.428 0.425 0.428 1.123 0 1.549" fill="#ffd24f" fill-rule="evenodd"/></g><g transform="translate(525.42 444.4)"><path d="m0 0v-1.242c0-3.315 1.555-6.588 4.207-8.597l10.354-7.841c0.832-0.63 1.328-1.593 1.328-2.635v-7.587h7.629v7.587c0 1.989-0.539 3.973-1.586 5.666-0.645 1.048-1.455 2.035-2.44 2.782l-10.533 7.99c-0.5 0.38-0.912 0.881-1.137 1.471-0.144 0.379-0.222 0.787-0.222 1.195v1.329l5.051-1.454c0.08-0.021 0.16-0.03 0.238-0.041 0.357-0.048 0.701 0.048 0.998 0.252 0.318 0.221 0.543 0.561 0.613 0.94 0.078 0.418 2e-3 0.81-0.242 1.152l-10.441 14.678-9.506-14.712c-0.153-0.236-0.244-0.534-0.242-0.815 0-0.717 0.535-1.341 1.228-1.487 0.254-0.054 0.498-0.015 0.738 0.064z" fill-rule="evenodd"/></g></g><text transform="matrix(1 0 0 -1 524.84 386.55)" fill="#000000" font-family="Helvetica" font-size="9px"><tspan x="0 8.4960003 13.5 16.497" y="0">W1-4</tspan></text><g clip-path="url(#y)"><g transform="translate(138.51 437.44)"><path d="m0 0-32.706 32.707c-1.283 1.282-3.381 1.282-4.664 0l-32.707-32.707c-1.282-1.282-1.282-3.38 0-4.664l32.707-32.706c1.283-1.282 3.381-1.282 4.664 0l32.706 32.706c1.282 1.284 1.282 3.382 0 4.664" fill="#ffd24f"/><path d="m0 0-32.706 32.707c-1.283 1.282-3.381 1.282-4.664 0l-32.707-32.707c-1.282-1.282-1.282-3.38 0-4.664l32.707-32.706c1.283-1.282 3.381-1.282 4.664 0l32.706 32.706c1.282 1.284 1.282 3.382 0 4.664z" fill="none" stroke="#000" stroke-width=".5"/></g></g><g clip-path="url(#x)"><g transform="translate(137.88 436.82)"><path d="m0 0-32.707 32.706c-0.94 0.94-2.478 0.94-3.418 0l-32.706-32.706c-0.94-0.94-0.94-2.478 0-3.418l32.706-32.707c0.94-0.94 2.478-0.94 3.418 0l32.707 32.707c0.94 0.94 0.94 2.478 0 3.418" fill-rule="evenodd"/></g><g transform="translate(136.95 435.89)"><path d="m0 0-32.706 32.707c-0.426 0.425-1.123 0.425-1.549 0l-32.707-32.707c-0.426-0.426-0.426-1.124 0-1.549l32.707-32.706c0.426-0.427 1.123-0.427 1.549 0l32.706 32.706c0.427 0.425 0.427 1.123 0 1.549" fill="#ffd24f" fill-rule="evenodd"/></g><g transform="translate(117.72 439.82)"><path d="m0 0 0.013-21.693h-7.718l-2e-3 18.521c0 1.18-1.011 1.924-1.925 1.924l-11.854-0.045 1.437-4.334c0.125-0.228 0.18-0.499 0.203-0.761 0.075-0.846-0.689-1.535-1.534-1.535-0.396 0-0.786 0.162-1.067 0.431l-13.234 10.147 13.234 9.775c0.281 0.27 0.671 0.431 1.067 0.431 0.845 0 1.647-0.745 1.534-1.534-0.037-0.261-0.077-0.534-0.203-0.761l-1.437-4.186 15.048 8e-3c3.546 0 6.438-2.892 6.438-6.437z" fill-rule="evenodd"/></g></g><text transform="matrix(1 0 0 -1 92.695 386.55)" fill="#000000" font-family="Helvetica" font-size="9px"><tspan x="0 8.4960003 13.5 16.497 83.403 91.899002 96.903 99.900002 104.904" y="0">W1-1W1-1a</tspan></text><g clip-path="url(#w)"><g transform="translate(187.94 399.85)"><path d="m0 0-33.274 33.274c-1.064 1.063-1.064 2.796-1e-3 3.859l33.274 33.272c1.064 1.064 2.797 1.065 3.861 2e-3l33.273-33.276c1.064-1.063 1.064-2.794 1e-3 -3.858l-33.274-33.273c-1.051-1.048-2.809-1.05-3.86 0" fill="#ffd24f" stroke="#000" stroke-width=".5"/></g><g transform="translate(188.47 400.4)"><path d="m0 0-33.262 33.261c-0.765 0.766-0.763 2.034 0 2.801l33.261 33.259c0.766 0.766 2.032 0.765 2.801 0l33.26-33.261c0.765-0.766 0.767-2.032 0-2.799l-33.26-33.261c-0.768-0.761-2.034-0.765-2.8 0" fill-rule="evenodd"/></g><g transform="translate(189.21 401.16)"><path d="m0 0-33.243 33.241c-0.369 0.357-0.368 0.964 0 1.32l33.242 33.24c0.355 0.368 0.962 0.368 1.319 0l33.242-33.24c0.368-0.357 0.368-0.965-1e-3 -1.321l-33.24-33.24c-0.357-0.368-0.963-0.368-1.319 0" fill="#ffd24f" fill-rule="evenodd"/></g><g transform="translate(175.05 442.36)"><path d="m0 0-0.012-20.994h6.98l1e-3 18.126c0 1.068 0.914 1.741 1.742 1.741l11.673-0.042-1.3-3.919c-0.114-0.206-0.162-0.451-0.183-0.688-0.068-0.765 0.623-1.388 1.388-1.388 0.358 0 0.71 0.146 0.964 0.391l11.968 9.175-11.968 8.84c-0.254 0.243-0.608 0.39-0.964 0.39-0.765 0-1.491-0.674-1.388-1.387 0.033-0.237 0.069-0.484 0.183-0.689l1.3-3.785-14.562 6e-3c-3.207 0-5.822-2.614-5.822-5.821z" fill-rule="evenodd"/></g><g transform="translate(205.75 424.97)"><path d="m0 0c0 2.186-1.743 3.817-4.151 3.817-0.668 0-1.187-0.075-2.039-0.259l0.11 1.519h5.226l0.038 1.853h-7.042l-0.334-4.966 1.89-0.482c0.779 0.296 1.335 0.407 2.038 0.407 0.779 0 1.335-0.147 1.706-0.443 0.407-0.334 0.667-0.89 0.667-1.446 0-1.186-0.963-1.891-2.558-1.891-1.074 0-2.15 0.297-3.075 0.854l-1.001-1.595c1.335-0.815 2.631-1.191 4.076-1.191 2.594 0 4.449 1.6 4.449 3.823m-10.007-3.631v1.889h-6.226c0.37 0.705 0.667 1.112 1.149 1.519 0.629 0.556 1.038 0.742 2.445 1.149 0.742 0.222 1.224 0.482 1.557 0.741 0.704 0.593 1.075 1.408 1.075 2.298 0 1.927-1.595 3.15-4.077 3.15-1.705 0-3.224-0.556-4.447-1.631l1.297-1.444c0.889 0.815 1.89 1.148 3.261 1.148 1.334 0 2.076-0.445 2.076-1.223 0-0.63-0.409-1.001-1.594-1.334-1.927-0.519-3.261-1.483-4.188-3.038-0.593-1.038-0.852-1.965-0.852-3.224z" fill-rule="evenodd"/></g></g><text transform="matrix(1 0 0 -1 349.91 386.55)" fill="#000000" font-family="Helvetica" font-size="9px"><tspan x="0 8.4960003 13.5 16.497 21.500999" y="0">W1-2a</tspan></text><g clip-path="url(#v)"><g transform="translate(360.74 399.85)"><path d="m0 0-33.275 33.274c-1.063 1.063-1.063 2.796 0 3.859l33.275 33.272c1.062 1.065 2.796 1.065 3.858 2e-3l33.273-33.276c1.064-1.063 1.066-2.794 2e-3 -3.857l-33.275-33.274c-1.05-1.048-2.809-1.05-3.858 0" fill="#ffd24f" stroke="#000" stroke-width=".5"/></g><g transform="translate(361.27 400.4)"><path d="m0 0-33.261 33.261c-0.764 0.766-0.762 2.034 0 2.801l33.261 33.259c0.767 0.766 2.033 0.765 2.801 0l33.26-33.261c0.765-0.766 0.767-2.031 0-2.799l-33.26-33.261c-0.768-0.761-2.034-0.765-2.801 0" fill-rule="evenodd"/></g><g transform="translate(362.01 401.16)"><path d="m0 0-33.243 33.242c-0.367 0.356-0.367 0.963 0 1.319l33.242 33.24c0.355 0.368 0.963 0.368 1.319 0l33.242-33.24c0.368-0.356 0.368-0.965 0-1.321l-33.242-33.24c-0.356-0.368-0.961-0.368-1.318 0" fill="#ffd24f" fill-rule="evenodd"/></g><g transform="translate(364.61 441.21)"><path d="m0 0c0.355-1.178 0.709-2.354 1.063-3.532 0.197-0.658 0.473-1.343 1.239-1.479 0.701-0.124 1.32 0.256 1.628 0.879 0.976 1.981 1.953 3.961 2.93 5.94 1.539 3.124 3.078 6.247 4.619 9.371-4.948 0-9.894 2e-3 -14.845 2e-3 -1.039 0-3.3 0.348-3.828-0.819-0.489-1.078 0.775-2.015 1.428-2.739 0.616-0.68 1.233-1.361 1.848-2.042-3.847-1.747-7.323-4.488-9.295-8.281-1.923-3.691-1.541-7.977-1.536-11.996 5e-3 -2.64 8e-3 -5.28 0.012-7.918 0-0.196-0.054-0.24 0.143-0.24h6.082c0.052 0 0.779-0.01 0.779 8e-3v0.697c2e-3 1.252 2e-3 2.502 2e-3 3.755 3e-3 2.743 5e-3 5.489 6e-3 8.231 0 1.681 0.222 3.319 1.071 4.8 1.438 2.501 4.189 4.073 6.654 5.363" fill-rule="evenodd"/></g><g transform="translate(379.18 424.97)"><path d="m0 0c0 2.186-1.74 3.816-4.15 3.816-0.667 0-1.187-0.073-2.038-0.259l0.111 1.519h5.226l0.035 1.853h-7.04l-0.333-4.966 1.889-0.482c0.778 0.299 1.334 0.409 2.038 0.409 0.78 0 1.334-0.149 1.704-0.445 0.41-0.333 0.668-0.889 0.668-1.445 0-1.186-0.963-1.889-2.557-1.889-1.075 0-2.15 0.296-3.074 0.852l-1.001-1.593c1.334-0.816 2.631-1.193 4.075-1.193 2.594 0 4.447 1.599 4.447 3.823m-10.006-0.335c0 1.002-0.297 1.557-1.334 2.484 0.629 0.815 0.852 1.297 0.852 2.002 0 1.704-1.557 2.964-3.669 2.964-1.52 0-2.816-0.555-3.854-1.63l1.411-1.297c0.628 0.665 1.443 1.038 2.334 1.038 1.111 0 1.852-0.483 1.852-1.114 0-0.591-0.593-1.037-1.409-1.037h-0.443v-1.89h0.517c0.407 0 0.742-0.073 1.039-0.223 0.482-0.258 0.816-0.851 0.816-1.37 0-0.889-0.891-1.481-2.189-1.481-1.221 0-2.185 0.407-2.928 1.37l-1.516-1.149c0.369-0.444 0.554-0.629 0.814-0.852 0.925-0.852 2.222-1.303 3.519-1.303 2.372 0 4.188 1.526 4.188 3.488" fill-rule="evenodd"/></g><g transform="translate(69.027 126.5)"><path d="m0 0 32.472 32.471c1.374 1.375 3.622 1.375 4.996 0l32.471-32.471c1.374-1.373 1.374-3.621 0-4.996l-32.471-32.472c-1.374-1.375-3.622-1.375-4.996 0l-32.472 32.472c-1.374 1.375-1.374 3.623 0 4.996" fill="#ffd24f"/></g></g><g clip-path="url(#u)"><g transform="translate(69.027 126.5)"><path d="m0 0 32.472 32.471c1.374 1.375 3.622 1.375 4.996 0l32.471-32.471c1.374-1.373 1.374-3.621 0-4.996l-32.471-32.472c-1.374-1.375-3.622-1.375-4.996 0l-32.472 32.472c-1.374 1.375-1.374 3.623 0 4.996z" fill="none" stroke="#000" stroke-width=".5"/></g></g><g clip-path="url(#t)"><g transform="translate(69.811 125.99)"><path d="m0 0 32.205 32.205c1.09 1.09 2.873 1.09 3.964 0l32.204-32.205c1.09-1.09 1.09-2.875 0-3.965l-32.204-32.207c-1.091-1.09-2.874-1.09-3.964 0l-32.205 32.207c-1.09 1.09-1.09 2.875 0 3.965" fill-rule="evenodd"/></g><g transform="translate(70.816 125)"><path d="m0 0 32.19 32.189c0.545 0.545 1.436 0.545 1.981 0l32.189-32.189c0.545-0.545 0.545-1.436 0-1.981l-32.189-32.191c-0.545-0.545-1.436-0.545-1.981 0l-32.19 32.191c-0.544 0.545-0.544 1.436 0 1.981" fill="#ffd24f" fill-rule="evenodd"/></g><g transform="translate(94.469 125.53)"><path d="m0 0c-6e-3 -4.938-0.013-9.873-0.018-14.809h-5.646c-1e-3 4.942-2e-3 9.885-4e-3 14.826 0 8.182 7.529 14.819 16.721 14.819s16.688-6.674 16.688-14.856c0-7.67-6.589-14.015-14.986-14.779l0.89-3.203c0.099-0.393 0.138-0.721-0.078-1.039-0.324-0.477-0.976-0.602-1.453-0.278l-10.811 7.325 10.811 7.312c0.477 0.324 1.129 0.201 1.453-0.275 0.226-0.334 0.176-0.653 0.055-1.084l-0.893-3.076c5.289 0.677 9.36 4.503 9.36 9.097 0 5.069-4.957 9.203-11.036 9.203s-11.037-4.134-11.053-9.183" fill-rule="evenodd"/></g></g><text transform="matrix(1 0 0 -1 90.746 74.943)" fill="#000000" font-family="Helvetica" font-size="9px"><tspan x="0 8.4960003 13.5 16.497 21.500999 92.519997 101.016 106.02 111.024 114.021 119.025" y="0">W1-15W13-1P</tspan></text><g clip-path="url(#s)"><g transform="translate(177.62 87.679)"><path d="m0 0h44.159c2.44 0 4.419 1.973 4.419 4.414v44.162c0 2.44-1.979 4.418-4.419 4.418h-44.159c-2.441 0-4.416-1.978-4.416-4.418v-44.162c0-2.435 1.978-4.414 4.416-4.414" fill="#ffd24f" fill-rule="evenodd"/><path d="m0 0h44.159c2.44 0 4.419 1.973 4.419 4.414v44.162c0 2.44-1.979 4.418-4.419 4.418h-44.159c-2.441 0-4.416-1.978-4.416-4.418v-44.162c0-2.435 1.978-4.414 4.416-4.414z" fill="none" stroke="#000" stroke-width=".5"/></g><g transform="translate(177.64 88.599)"><path d="m0 0h44.131c1.95 0 3.53 1.578 3.53 3.529v44.17c0 1.952-1.58 3.532-3.53 3.532h-44.131c-1.949 0-3.527-1.58-3.527-3.532v-44.17c0-1.947 1.58-3.529 3.527-3.529" fill-rule="evenodd"/></g><g transform="translate(177.64 89.918)"><path d="m0 0h44.125c1.219 0 2.204 0.988 2.204 2.205v44.062c0 1.219-0.985 2.205-2.204 2.205h-44.125c-1.218 0-2.204-0.986-2.204-2.205v-44.062c0-1.219 0.984-2.205 2.204-2.205" fill="#ffd24f" fill-rule="evenodd"/></g><g transform="translate(189.4 110)"><path d="m0 0c-2.71 0-5.42 0.929-7.356 2.711-0.542 0.462-0.929 0.851-1.704 1.779l3.175 2.4c1.549-2.012 3.561-2.865 6.117-2.865 2.71 0 4.567 1.24 4.567 3.098 0 1.084-0.696 2.322-1.703 2.865-0.619 0.308-1.316 0.465-2.168 0.465h-1.084v3.949h0.93c1.703 0 2.942 0.928 2.942 2.168 0 1.314-1.548 2.322-3.872 2.322-1.858 0-3.561-0.775-4.878-2.168l-2.942 2.709c2.168 2.246 4.878 3.408 8.053 3.408 4.413 0 7.665-2.632 7.665-6.195 0-1.471-0.464-2.476-1.78-4.182 2.168-1.935 2.787-3.095 2.787-5.187 0-4.104-3.794-7.277-8.749-7.277"/></g><g transform="translate(209.77 110)"><path d="m0 0c-3.02 0-5.73 0.773-8.518 2.478l2.091 3.328c1.936-1.16 4.182-1.781 6.427-1.781 3.329 0 5.342 1.473 5.342 3.949 0 1.162-0.541 2.322-1.394 3.02-0.773 0.619-1.935 0.929-3.561 0.929-1.471 0-2.632-0.232-4.258-0.851l-3.949 1.006 0.697 10.375h14.711l-0.078-3.871h-10.917l-0.233-3.174c1.782 0.387 2.866 0.541 4.259 0.541 5.033 0 8.672-3.406 8.672-7.975 0-4.644-3.871-7.974-9.291-7.974"/></g><g transform="translate(192.41 95.966)"><path d="m0 0v5.389l-2.601-5.389-2.57 5.389v-5.389h-1.549v8.827h1.549l2.57-5.235 2.601 5.235h1.549v-8.827z"/></g><g transform="translate(201.18 103.21)"><path d="m0 0h-2.57v-2.199h2.57c0.775 0 1.301 0.434 1.301 1.084 0 0.682-0.526 1.115-1.301 1.115m1.518-3.437c-0.495-0.279-0.898-0.34-1.579-0.34h-2.509v-3.469h-1.611v8.827h4.12c0.681 0 1.084-0.094 1.579-0.372 0.837-0.464 1.363-1.332 1.363-2.324 0-0.928-0.526-1.857-1.363-2.322"/></g><g transform="translate(211.8 95.966)"><path d="m0 0v3.871l-3.964-0.031v-3.84h-1.58v8.827h1.58v-3.407h3.964v3.407h1.579v-8.827z"/></g></g><text transform="matrix(1 0 0 -1 272.65 74.943)" fill="#000000" font-family="Helvetica" font-size="9px"><tspan x="0 8.4960003 13.5 18.504 21.500999" y="0">W13-2</tspan></text><g clip-path="url(#r)"><g transform="translate(263.83 87.679)"><path d="m0 0h44.158c2.44 0 4.418 1.975 4.418 4.416v57.35c0 2.439-1.978 4.416-4.418 4.416h-44.158c-2.441 0-4.416-1.977-4.416-4.416v-57.35c0-2.437 1.977-4.416 4.416-4.416" fill="#ffd24f" fill-rule="evenodd"/><path d="m0 0h44.158c2.44 0 4.418 1.975 4.418 4.416v57.35c0 2.439-1.978 4.416-4.418 4.416h-44.158c-2.441 0-4.416-1.977-4.416-4.416v-57.35c0-2.437 1.977-4.416 4.416-4.416z" fill="none" stroke="#000" stroke-width=".5"/></g><g transform="translate(263.84 88.599)"><path d="m0 0h44.131c1.949 0 3.529 1.58 3.529 3.529v57.36c0 1.949-1.58 3.529-3.529 3.529h-44.131c-1.949 0-3.528-1.58-3.528-3.529v-57.36c0-1.947 1.58-3.529 3.528-3.529" fill-rule="evenodd"/></g><g transform="translate(263.84 131.9)"><path d="m0 0h44.125c1.217 0 2.203 0.986 2.203 2.203v15.381c0 1.219-0.986 2.205-2.203 2.205h-44.125c-1.219 0-2.205-0.986-2.205-2.205v-15.381c0-1.219 0.984-2.203 2.205-2.203" fill="#ffd24f" fill-rule="evenodd"/></g><g transform="translate(263.84 89.919)"><path d="m0 0h44.125c1.217 0 2.203 0.987 2.203 2.204v36.33c0 1.22-0.986 2.207-2.203 2.207h-44.125c-1.219 0-2.205-0.987-2.205-2.207v-36.33c0-1.219 0.984-2.204 2.205-2.204" fill="#ffd24f" fill-rule="evenodd"/></g><g transform="translate(272.44 137.4)"><path d="m0 0v8.818h6.436v-1.578h-4.827v-1.64h2.631v-1.61h-2.631v-2.412h4.982v-1.578z"/></g><g transform="translate(286.05 137.4)"><path d="m0 0-1.981 3.125-1.949-3.125h-1.856l2.877 4.641-2.63 4.177h1.887l1.671-2.691 1.671 2.691h1.888l-2.599-4.177 2.877-4.641z"/></g><path d="m289.67 146.22h1.578v-8.818h-1.578z"/><g transform="translate(296.79 144.67)"><path d="m0 0v-7.271h-1.547v7.271h-2.538v1.547h6.622v-1.547z"/></g><g transform="translate(279.32 94.33)"><path d="m0 0v4.039l-1.949-4.039-1.926 4.039v-4.039h-1.16v6.615h1.16l1.926-3.922 1.949 3.922h1.161v-6.615z"/></g><g transform="translate(287.07 99.761)"><path d="m0 0h-1.926v-1.648h1.926c0.58 0 0.975 0.324 0.975 0.812 0 0.51-0.395 0.836-0.975 0.836m1.138-2.576c-0.372-0.209-0.673-0.256-1.184-0.256h-1.88v-2.599h-1.207v6.615h3.087c0.511 0 0.812-0.07 1.184-0.279 0.626-0.348 1.02-0.998 1.02-1.741 0-0.697-0.394-1.392-1.02-1.74"/></g><g transform="translate(296.22 94.33)"><path d="m0 0v2.902l-2.97-0.023v-2.879h-1.184v6.615h1.184v-2.553h2.97v2.553h1.183v-6.615z"/></g><g transform="translate(270.28 106.39)"><path d="m0 0c0 2.104 0.433 3.651 1.423 5.383 1.548 2.6 3.775 4.209 6.993 5.076 1.981 0.557 2.661 1.176 2.661 2.227 0 1.3-1.237 2.043-3.465 2.043-2.289 0-3.96-0.557-5.446-1.918l-2.166 2.414c2.042 1.793 4.579 2.722 7.426 2.722 4.147 0 6.808-2.043 6.808-5.261 0-1.485-0.619-2.846-1.795-3.836-0.557-0.434-1.362-0.867-2.599-1.239-2.351-0.679-3.032-0.99-4.085-1.917-0.805-0.682-1.3-1.362-1.918-2.538h10.397v-3.156z"/></g><g transform="translate(293.79 106.08)"><path d="m0 0c-2.414 0-4.58 0.619-6.808 1.98l1.671 2.662c1.547-0.929 3.342-1.424 5.137-1.424 2.661 0 4.269 1.176 4.269 3.157 0 0.927-0.432 1.857-1.113 2.414-0.619 0.494-1.548 0.742-2.848 0.742-1.175 0-2.103-0.186-3.403-0.682l-3.156 0.805 0.557 8.293h11.758l-0.061-3.094h-8.727l-0.185-2.537c1.423 0.309 2.29 0.434 3.404 0.434 4.022 0 6.931-2.725 6.931-6.375 0-3.713-3.094-6.375-7.426-6.375"/></g></g><text transform="matrix(1 0 0 -1 358.85 74.943)" fill="#000000" font-family="Helvetica" font-size="9px"><tspan x="0 8.4960003 13.5 18.504 21.500999" y="0">W13-3</tspan></text><g clip-path="url(#q)"><g transform="translate(350.03 87.679)"><path d="m0 0h44.158c2.439 0 4.418 1.975 4.418 4.416v57.35c0 2.439-1.979 4.416-4.418 4.416h-44.158c-2.442 0-4.416-1.977-4.416-4.416v-57.35c0-2.437 1.976-4.416 4.416-4.416" fill="#ffd24f" fill-rule="evenodd"/><path d="m0 0h44.158c2.439 0 4.418 1.975 4.418 4.416v57.35c0 2.439-1.979 4.416-4.418 4.416h-44.158c-2.442 0-4.416-1.977-4.416-4.416v-57.35c0-2.437 1.976-4.416 4.416-4.416z" fill="none" stroke="#000" stroke-width=".5"/></g><g transform="translate(350.04 88.599)"><path d="m0 0h44.131c1.949 0 3.53 1.58 3.53 3.529v57.36c0 1.949-1.581 3.529-3.53 3.529h-44.131c-1.949 0-3.527-1.58-3.527-3.529v-57.36c0-1.947 1.58-3.529 3.527-3.529" fill-rule="evenodd"/></g><g transform="translate(350.04 131.9)"><path d="m0 0h44.125c1.217 0 2.203 0.986 2.203 2.203v15.381c0 1.219-0.986 2.205-2.203 2.205h-44.125c-1.218 0-2.205-0.986-2.205-2.205v-15.381c0-1.219 0.985-2.203 2.205-2.203" fill="#ffd24f" fill-rule="evenodd"/></g><g transform="translate(350.04 89.919)"><path d="m0 0h44.125c1.217 0 2.203 0.987 2.203 2.204v36.33c0 1.22-0.986 2.207-2.203 2.207h-44.125c-1.218 0-2.205-0.987-2.205-2.207v-36.33c0-1.219 0.985-2.204 2.205-2.204" fill="#ffd24f" fill-rule="evenodd"/></g><g transform="translate(388.63 143.06)"><path d="m0 0c0-0.65-0.527-1.082-1.3-1.082h-2.571v2.197h2.571c0.773 0 1.3-0.431 1.3-1.115m1.578 0c0 0.992-0.525 1.859-1.361 2.324-0.496 0.278-0.898 0.371-1.58 0.371h-4.119v-8.826h1.611v3.469h2.508c0.682 0 1.084 0.062 1.58 0.34 0.836 0.465 1.361 1.394 1.361 2.322m-9.351-6.131v8.826h-1.549l-2.602-5.234-2.57 5.234h-1.549v-8.826h1.549v5.389l2.57-5.389 2.602 5.389v-5.389zm-13.008 3.655h-2.478l1.24 2.972zm3.252-3.655-3.686 8.826h-1.611l-3.715-8.826h1.735l0.867 2.074h3.84l0.867-2.074zm-11.736 6.131c0-0.65-0.498-1.082-1.272-1.082h-2.508v2.197h2.508c0.774 0 1.272-0.431 1.272-1.115m1.763-6.131-1.611 3.778c0.9 0.496 1.428 1.363 1.428 2.353 0 0.992-0.528 1.859-1.364 2.324-0.464 0.278-0.869 0.371-1.517 0.371h-4.057v-8.826h1.578v3.469h2.354l1.426-3.469z" fill-rule="evenodd"/></g><g transform="translate(385.42 93.572)"><path d="m0 0v7.355h-1.316v-2.84h-3.303v2.84h-1.316v-7.355h1.316v3.199l3.303 0.025v-3.224zm-10.746 5.109c0-0.541-0.439-0.904-1.084-0.904h-2.142v1.834h2.142c0.645 0 1.084-0.361 1.084-0.93m1.317 0c0 0.824-0.44 1.549-1.135 1.936-0.414 0.232-0.75 0.31-1.319 0.31h-3.431v-7.355h1.342v2.89h2.089c0.569 0 0.905 0.051 1.319 0.284 0.695 0.386 1.135 1.16 1.135 1.935m-10.077-5.109v7.355h-1.289l-2.168-4.363-2.14 4.363h-1.293v-7.355h1.293v4.49l2.14-4.49 2.168 4.49v-4.49z" fill-rule="evenodd"/></g><g transform="translate(363.75 107.61)"><path d="m0 0c-2.199 0-4.398 0.754-5.968 2.199-0.44 0.377-0.754 0.69-1.381 1.444l2.574 1.949c1.258-1.635 2.891-2.326 4.965-2.326 2.197 0 3.705 1.005 3.705 2.513 0 0.879-0.565 1.885-1.381 2.324-0.504 0.252-1.068 0.377-1.76 0.377h-0.879v3.206h0.754c1.381 0 2.387 0.753 2.387 1.759 0 1.067-1.256 1.885-3.141 1.885-1.507 0-2.89-0.629-3.959-1.76l-2.386 2.199c1.759 1.823 3.957 2.764 6.533 2.764 3.582 0 6.221-2.137 6.221-5.025 0-1.194-0.377-2.012-1.446-3.393 1.76-1.57 2.262-2.513 2.262-4.211 0-3.328-3.078-5.904-7.1-5.904"/></g></g><g clip-path="url(#p)"><g transform="translate(380.28 107.61)"><path d="m0 0c-2.451 0-4.651 0.627-6.912 2.01l1.697 2.701c1.57-0.942 3.393-1.445 5.215-1.445 2.701 0 4.334 1.195 4.334 3.205 0 0.943-0.44 1.884-1.131 2.451-0.629 0.502-1.57 0.754-2.891 0.754-1.193 0-2.134-0.19-3.455-0.692l-3.203 0.817 0.565 8.418h11.937l-0.062-3.141h-8.86l-0.187-2.576c1.445 0.314 2.324 0.439 3.455 0.439 4.084 0 7.037-2.763 7.037-6.47 0-3.77-3.143-6.471-7.539-6.471"/></g><g transform="translate(68.461 341.02)"><path d="m0 0 32.473 32.471c1.373 1.374 3.621 1.374 4.996 0l32.47-32.471c1.375-1.374 1.375-3.622 0-4.997l-32.47-32.471c-1.375-1.374-3.623-1.374-4.996 0l-32.473 32.471c-1.373 1.375-1.373 3.623 0 4.997" fill="#ffd24f"/><path d="m0 0 32.473 32.471c1.373 1.374 3.621 1.374 4.996 0l32.47-32.471c1.375-1.374 1.375-3.622 0-4.997l-32.47-32.471c-1.375-1.374-3.623-1.374-4.996 0l-32.473 32.471c-1.373 1.375-1.373 3.623 0 4.997z" fill="none" stroke="#000" stroke-width=".5"/></g></g><g clip-path="url(#o)"><g transform="translate(69.245 340.5)"><path d="m0 0 32.205 32.205c1.09 1.09 2.873 1.09 3.965 0l32.203-32.205c1.09-1.09 1.09-2.873 0-3.963l-32.203-32.205c-1.092-1.09-2.875-1.09-3.965 0l-32.205 32.205c-1.09 1.09-1.09 2.873 0 3.963" fill-rule="evenodd"/></g><g transform="translate(70.25 339.51)"><path d="m0 0 32.191 32.189c0.543 0.545 1.436 0.545 1.981 0l32.189-32.189c0.545-0.545 0.545-1.436 0-1.981l-32.189-32.189c-0.545-0.545-1.438-0.545-1.981 0l-32.191 32.189c-0.543 0.545-0.543 1.436 0 1.981" fill="#ffd24f" fill-rule="evenodd"/></g><g transform="translate(107.7 318.42)"><path d="m0 0c-0.721-0.331-0.945-0.878-0.945-1.604l-2e-3 -3.711-7.032 7e-3c-0.031 1.197-0.011 2.536-0.011 3.732 0 3.588 2.435 6.966 5.761 8.305 0.567 0.305 0.913 0.899 0.913 1.534 0 0.738-0.471 1.407-1.161 1.656-2.976 1.288-6.119 1.803-8.836 4.052-1.919 1.589-2.966 4.105-2.966 6.624 0 4.863 4.027 8.676 8.832 8.831 0.967 0.03 1.765 0.8 1.765 1.772l-2e-3 2.591-3.892-1.161c-0.539-0.151-0.938-0.213-1.352 0.069-0.594 0.404-0.75 1.218-0.345 1.812l9.119 13.482 9.134-13.482c0.405-0.594 0.248-1.408-0.345-1.812-0.397-0.27-0.807-0.221-1.297-0.097l-3.957 1.189 2e-3 -2.593c0-4.928-4.031-8.835-8.83-8.835-0.973 0-1.768-0.794-1.768-1.766 0-0.663 0.361-1.319 0.967-1.574 2.014-0.846 4.082-1.562 6.098-2.41 3.527-1.486 5.898-4.623 5.898-8.348 0-3.381-2.676-6.849-5.748-8.263" fill-rule="evenodd"/></g></g><text transform="matrix(1 0 0 -1 92.681 289.81)" fill="#000000" font-family="Helvetica" font-size="9px"><tspan x="0 8.4960003 13.5 16.497" y="0">W1-5</tspan></text><g clip-path="url(#n)"><g transform="translate(239.05 302.52)"><path d="m0 0-77.953-1e-3c-1.821 0-3.304 1.482-3.304 3.302v35.656c-1e-3 1.819 1.483 3.303 3.304 3.303l77.953-1e-3c1.82 0 3.302-1.482 3.302-3.302l1e-3 -35.654c-1e-3 -1.799-1.505-3.305-3.303-3.303" fill="#ffd24f" stroke="#000" stroke-width=".5"/></g><g transform="translate(239.04 303.44)"><path d="m0 0-77.931 1e-3c-1.31 1e-3 -2.394 1.087-2.397 2.397l1e-3 35.632c-1e-3 1.31 1.087 2.393 2.397 2.397l77.929-1e-3c1.312-2e-3 2.397-1.084 2.398-2.397v-35.632c-3e-3 -1.308-1.084-2.397-2.397-2.397" fill-rule="evenodd"/></g><g transform="translate(239.02 304.72)"><path d="m0 0-77.897 1e-3c-0.62-0.012-1.14 0.509-1.13 1.13l1e-3 35.598c-0.011 0.619 0.509 1.141 1.129 1.129l77.896-1e-3c0.622 0.013 1.142-0.509 1.129-1.129l2e-3 -35.598c0.011-0.62-0.509-1.14-1.13-1.13" fill="#ffd24f" fill-rule="evenodd"/></g><g transform="translate(234.43 317.76)"><path d="m0 0h-44.921l2.199-6.948c0.071-0.223 0.121-0.45 0.125-0.686 0.025-1.099-0.831-2.096-1.895-2.302-0.63-0.124-1.275 9e-3 -1.799 0.369l-22.436 15.439 22.411 15.411c0.399 0.275 0.858 0.438 1.343 0.441 1.099 0.011 2.096-0.799 2.303-1.877 0.073-0.39 0.069-0.78-0.052-1.156l-2.199-6.947h44.921z" fill-rule="evenodd"/></g></g><text transform="matrix(1 0 0 -1 191.9 289.81)" fill="#000000" font-family="Helvetica" font-size="9px"><tspan x="0 8.4960003 13.5 16.497" y="0">W1-6</tspan></text><g clip-path="url(#m)"><g transform="translate(290.44 302.52)"><path d="m0 0h-27.749c-0.523 0-1.035 0.209-1.404 0.576-0.367 0.365-0.578 0.872-0.578 1.388v38.341c0 0.516 0.211 1.022 0.578 1.389 0.369 0.366 0.881 0.576 1.404 0.576h27.749c0.521 0 1.033-0.21 1.4-0.576 0.371-0.367 0.585-0.873 0.585-1.389v-38.341c0-0.672-0.363-1.31-0.936-1.671-0.326-0.207-0.671-0.254-1.049-0.293" fill="#ffd24f" fill-rule="evenodd"/><path d="m0 0h-27.749c-0.523 0-1.035 0.209-1.404 0.576-0.367 0.365-0.578 0.872-0.578 1.388v38.341c0 0.516 0.211 1.022 0.578 1.389 0.369 0.366 0.881 0.576 1.404 0.576h27.749c0.521 0 1.033-0.21 1.4-0.576 0.371-0.367 0.585-0.873 0.585-1.389v-38.341c0-0.672-0.363-1.31-0.936-1.671-0.326-0.207-0.671-0.254-1.049-0.293z" fill="none" stroke="#000" stroke-width=".5"/></g><g transform="translate(276.56 342.19)"><path d="M 0,0 -14.7,-18.713 0,-37.323 14.704,-37.33 0.005,-18.706 14.613,0 Z" fill-rule="evenodd"/></g></g><text transform="matrix(1 0 0 -1 267.33 289.81)" fill="#000000" font-family="Helvetica" font-size="9px"><tspan x="0 8.4960003 13.5 16.497" y="0">W1-8</tspan></text><g clip-path="url(#l)"><g transform="translate(311.81 341.02)"><path d="m0 0 32.511 32.51c1.376 1.376 3.628 1.376 5.003 0l32.521-32.51c1.375-1.375 1.375-3.626 0-5.002l-32.521-32.51c-1.375-1.376-3.627-1.376-5.003 0l-32.511 32.51c-1.376 1.376-1.376 3.627 0 5.002" fill="#ffd24f"/><path d="m0 0 32.511 32.51c1.376 1.376 3.628 1.376 5.003 0l32.521-32.51c1.375-1.375 1.375-3.626 0-5.002l-32.521-32.51c-1.375-1.376-3.627-1.376-5.003 0l-32.511 32.51c-1.376 1.376-1.376 3.627 0 5.002z" fill="none" stroke="#000" stroke-width=".5"/></g><g transform="translate(312.6 340.5)"><path d="m0 0 32.243 32.243c1.094 1.091 2.879 1.091 3.971 0l32.254-32.243c1.091-1.091 1.091-2.877 0-3.968l-32.254-32.243c-1.092-1.091-2.877-1.091-3.971 0l-32.243 32.243c-1.091 1.091-1.091 2.877 0 3.968" fill-rule="evenodd"/></g><g transform="translate(313.6 339.51)"><path d="m0 0 32.229 32.228c0.545 0.545 1.438 0.545 1.983 0l32.24-32.228c0.545-0.545 0.545-1.438 0-1.984l-32.24-32.227c-0.545-0.546-1.438-0.546-1.983 0l-32.229 32.227c-0.545 0.546-0.545 1.439 0 1.984" fill="#ffd24f" fill-rule="evenodd"/></g><g transform="translate(348.47 344.41)"><path d="m0 0c0.298-0.995 0.6-1.991 0.899-2.987 0.338-1.121 1.236-3.093 2.684-1.714 0.394 0.375 0.599 0.959 0.836 1.437 0.463 0.943 0.929 1.885 1.394 2.829 1.926 3.909 3.854 7.818 5.781 11.727-4.368 0-8.734 1e-3 -13.101 1e-3 -1.033 0-2.067 1e-3 -3.099 1e-3 -0.557 0-1.189 0.06-1.728-0.097-0.865-0.25-1.405-1.252-0.808-2.051 0.277-0.374 0.655-0.714 0.969-1.062 0.74-0.816 1.477-1.632 2.214-2.448-3.014-1.369-5.806-3.356-7.876-5.957-1.875 1.874-3.75 3.749-5.624 5.623-0.344 0.345-0.69 0.69-1.036 1.037-0.235 0.235-0.35-0.085-0.565-0.299-0.94-0.941-1.88-1.88-2.821-2.819 1.691-1.69 3.38-3.38 5.07-5.069 0.837-0.837 1.673-1.672 2.507-2.509 0.411-0.407-0.203-1.671-0.316-2.24-0.33-1.66-0.285-3.358-0.283-5.041 6e-3 -3.025 0.01-6.05 0.013-9.076 2e-3 -0.785 4e-3 -1.57 4e-3 -2.355 0-0.033 2.574-0.016 2.757-0.016h4.075c0.479 0 0.246 0.857 0.246 1.252 1e-3 2.984 1e-3 5.968 2e-3 8.953 2e-3 1.683-0.113 3.421 0.199 5.085 0.721 3.873 4.393 6.117 7.607 7.795" fill-rule="evenodd"/></g></g><text transform="matrix(1 0 0 -1 333.58 289.81)" fill="#000000" font-family="Helvetica" font-size="9px"><tspan x="0 8.4960003 13.5 16.497 21.500999 178.54201 187.03799 192.04201 195.039 200.043 205.047" y="0">W1-10W1-10b</tspan></text><g clip-path="url(#k)"><g transform="translate(530.22 303.45)"><path d="m0 0c-1.294-1.294-3.39-1.294-4.683 0l-32.783 32.779c-1.292 1.294-1.292 3.391 0 4.684l32.783 32.78c1.293 1.293 3.389 1.293 4.683 0l32.78-32.78c1.294-1.293 1.294-3.39 0-4.684z" fill="#ffd24f"/><path d="m0 0c-1.294-1.294-3.39-1.294-4.683 0l-32.783 32.779c-1.292 1.294-1.292 3.391 0 4.684l32.783 32.78c1.293 1.293 3.389 1.293 4.683 0l32.78-32.78c1.294-1.293 1.294-3.39 0-4.684z" fill="none" stroke="#000" stroke-width=".5"/></g><g transform="translate(561.44 337.79)"><path d="m0 0-32.781-32.78c-0.431-0.431-1.131-0.431-1.563 0l-32.779 32.78c-0.431 0.43-0.431 1.13 0 1.561l32.779 32.779c0.432 0.431 1.132 0.431 1.563 0l32.781-32.779c0.431-0.431 0.431-1.131 0-1.561m0.91 2.471-32.781 32.78c-0.933 0.932-2.449 0.932-3.382 0l-32.782-32.78c-0.933-0.932-0.933-2.449 0-3.382l32.782-32.78c0.933-0.932 2.449-0.932 3.382 0l32.781 32.78c0.933 0.933 0.933 2.45 0 3.382"/></g><g transform="translate(538.97 355.77)"><path d="m0 0h-4.978c-1.854 1e-3 -3.707 1e-3 -5.562 1e-3 -1.302 1e-3 -2.602 1e-3 -3.904 1e-3h-0.631c-0.503 0-1.062-0.124-1.426-0.496-0.435-0.446-0.452-1.219-0.067-1.7 0.198-0.248 0.438-0.467 0.651-0.703 0.252-0.278 0.502-0.554 0.754-0.832 0.542-0.6 1.084-1.201 1.627-1.801 0.041-0.044 0.081-0.089 0.121-0.133-1.124-0.511-2.217-1.102-3.242-1.793-1.028-0.691-3.272-2.543-4.154-3.395v7.677h-3.545s-2e-3 -31.096-2e-3 -31.214c0-0.064 0.066-0.035 0.123-0.035 1.542 0 6.963-5e-3 6.963 4e-3 0 0.083 6e-3 11.97 6e-3 13.13 2e-3 1.026 0.092 2.078 0.423 3.055 0.394 1.167 1.023 2.285 1.908 3.152 0.465 0.453 0.936 0.884 1.451 1.278 1.184 0.907 2.468 1.681 3.788 2.37 0.081 0.042 0.163 0.085 0.244 0.127 0.391-1.297 0.781-2.594 1.171-3.892 0.123-0.406 0.346-0.8 0.721-1.019 0.56-0.327 1.309-0.206 1.75 0.258 0.23 0.239 0.352 0.512 0.495 0.801 0.539 1.094 1.079 2.188 1.618 3.282 0.811 1.646 1.623 3.292 2.434 4.938 0.758 1.537 1.515 3.074 2.274 4.611 0.377 0.767 0.756 1.534 1.134 2.301 4e-3 8e-3 7e-3 0.018 0.012 0.027z" fill-rule="evenodd"/></g></g><text transform="matrix(1 0 0 -1 421.58 289.81)" fill="#000000" font-family="Helvetica" font-size="9px"><tspan x="0 8.4960003 13.5 16.497 21.500999 26.504999" y="0">W1-10a</tspan></text><g clip-path="url(#j)"><g transform="translate(439.67 303.45)"><path d="m0 0c-1.292-1.293-3.389-1.293-4.682 0l-32.785 32.782c-1.292 1.293-1.292 3.39 0 4.683l32.785 32.782c1.293 1.293 3.39 1.293 4.682 0l32.784-32.782c1.293-1.293 1.293-3.39 0-4.683z" fill="#ffd24f"/><path d="m0 0c-1.292-1.293-3.389-1.293-4.682 0l-32.785 32.782c-1.292 1.293-1.292 3.39 0 4.683l32.785 32.782c1.293 1.293 3.39 1.293 4.682 0l32.784-32.782c1.293-1.293 1.293-3.39 0-4.683z" fill="none" stroke="#000" stroke-width=".5"/></g><g transform="translate(470.9 337.79)"><path d="m0 0-32.784-32.782c-0.431-0.43-1.131-0.43-1.562 0l-32.783 32.782c-0.431 0.43-0.431 1.13 0 1.561l32.783 32.782c0.431 0.43 1.131 0.43 1.562 0l32.784-32.782c0.43-0.431 0.43-1.131 0-1.561m0.91 2.471-32.784 32.782c-0.933 0.933-2.449 0.933-3.382 0l-32.783-32.782c-0.933-0.932-0.933-2.449 0-3.382l32.783-32.782c0.933-0.932 2.449-0.932 3.382 0l32.784 32.782c0.933 0.933 0.933 2.45 0 3.382"/></g><g transform="translate(433.62 355.68)"><path d="m0 0c-0.749 1e-3 -1.362-0.607-1.364-1.356 0-0.523 0.286-0.83 0.73-1.207l3.276-2.682-5.597-3.786h1e-3c-0.812-0.539-1.572-1.16-2.27-1.858-1.289-1.29-2.314-2.783-3.049-4.44-2e-3 -5e-3 -4e-3 -0.01-7e-3 -0.015-0.032-0.074-0.064-0.148-0.096-0.223-0.707-1.669-1.093-3.432-1.151-5.248 0-0.014 0-0.028-1e-3 -0.042-1e-3 -0.057-3e-3 -0.114-4e-3 -0.172 0-0.018-1e-3 -0.036-2e-3 -0.053 0-0.072-1e-3 -0.143-1e-3 -0.215v-13.106h7.36v13.106c0 0.057 0 0.113 2e-3 0.169 0 9e-3 0 0.018 1e-3 0.026 0.02 0.791 0.164 1.561 0.423 2.287 1e-3 2e-3 1e-3 4e-3 3e-3 6e-3 0.016 0.046 0.035 0.092 0.052 0.138 0.011 0.03 0.022 0.058 0.033 0.087 7e-3 0.018 0.015 0.035 0.022 0.054 0.098 0.241 0.21 0.477 0.335 0.71 0.553 1.029 1.355 1.924 2.319 2.588 0.039 0.027 5.652 3.825 5.75 3.891l1.284-4.109c0.178-0.495 0.376-0.878 0.84-1.063 0.554-0.22 1.168-0.049 1.536 0.381 0.096 0.11 0.173 0.237 0.23 0.379l6.304 15.753z"/></g><g transform="translate(413.05 332.82)"><path d="m0 0v3.545h29.438v-3.545h-14.719z" fill-rule="evenodd"/></g><g transform="translate(394.61 243.99)"><path d="m0 0 32.473 32.471c1.373 1.375 3.621 1.375 4.996 0l32.47-32.471c1.375-1.373 1.375-3.621 0-4.996l-32.47-32.473c-1.375-1.375-3.623-1.375-4.996 0l-32.473 32.473c-1.373 1.375-1.373 3.623 0 4.996" fill="#ffd24f"/><path d="m0 0 32.473 32.471c1.373 1.375 3.621 1.375 4.996 0l32.47-32.471c1.375-1.373 1.375-3.621 0-4.996l-32.47-32.473c-1.375-1.375-3.623-1.375-4.996 0l-32.473 32.473c-1.373 1.375-1.373 3.623 0 4.996z" fill="none" stroke="#000" stroke-width=".5"/></g><g transform="translate(395.39 243.47)"><path d="m0 0 32.205 32.205c1.09 1.09 2.873 1.09 3.965 0l32.205-32.205c1.09-1.09 1.09-2.873 0-3.965l-32.205-32.207c-1.092-1.09-2.875-1.09-3.965 0l-32.205 32.207c-1.09 1.092-1.09 2.875 0 3.965" fill-rule="evenodd"/></g><g transform="translate(396.4 242.48)"><path d="m0 0 32.189 32.189c0.545 0.545 1.436 0.545 1.981 0l32.189-32.189c0.545-0.545 0.545-1.436 0-1.98l-32.189-32.192c-0.545-0.545-1.436-0.545-1.981 0l-32.189 32.192c-0.545 0.544-0.545 1.435 0 1.98" fill="#ffd24f" fill-rule="evenodd"/></g><g transform="translate(413.21 240.82)"><path d="m0 0c0 9.193 7.499 16.691 16.693 16.691 9.191 0 16.689-7.498 16.689-16.691l-0.07-0.692 3.436 1.18c0.187 0.104 0.412 0.137 0.625 0.168 0.648 0.092 1.261-0.566 1.261-1.26 0-0.326-0.133-0.646-0.355-0.877l-8.026-10.867-8.332 10.867c-0.22 0.233-0.355 0.551-0.355 0.877 0 0.694 0.566 1.321 1.262 1.26 0.214-0.02 0.437-0.064 0.625-0.168l3.558-1.18 0.014 0.692c0 5.691-4.643 10.332-10.332 10.332-5.692 0-10.334-4.641-10.334-10.332l-0.043-12.364h-6.315z" fill-rule="evenodd"/></g></g><text transform="matrix(1 0 0 -1 415.56 192.43)" fill="#000000" font-family="Helvetica" font-size="9px"><tspan x="0 8.4960003 13.5 16.497 21.500999" y="0">W1-11</tspan></text><g clip-path="url(#i)"><g transform="translate(500.6 243.99)"><path d="m0 0 32.472 32.47c1.374 1.375 3.622 1.375 4.995 0l32.472-32.47c1.373-1.373 1.373-3.621 0-4.996l-32.472-32.473c-1.373-1.375-3.621-1.375-4.995 0l-32.472 32.473c-1.374 1.375-1.374 3.623 0 4.996" fill="#ffd24f"/><path d="m0 0 32.472 32.47c1.374 1.375 3.622 1.375 4.995 0l32.472-32.47c1.373-1.373 1.373-3.621 0-4.996l-32.472-32.473c-1.373-1.375-3.621-1.375-4.995 0l-32.472 32.473c-1.374 1.375-1.374 3.623 0 4.996z" fill="none" stroke="#000" stroke-width=".5"/></g></g><g clip-path="url(#h)"><g transform="translate(501.38 243.47)"><path d="m0 0 32.205 32.205c1.09 1.09 2.873 1.09 3.963 0l32.205-32.205c1.09-1.09 1.09-2.873 0-3.965l-32.205-32.205c-1.09-1.092-2.873-1.092-3.963 0l-32.205 32.205c-1.09 1.092-1.09 2.875 0 3.965" fill-rule="evenodd"/></g><g transform="translate(502.39 242.48)"><path d="m0 0 32.19 32.189c0.544 0.545 1.437 0.545 1.98 0l32.191-32.189c0.543-0.545 0.543-1.436 0-1.981l-32.191-32.191c-0.543-0.545-1.436-0.545-1.98 0l-32.19 32.191c-0.545 0.545-0.545 1.436 0 1.981" fill="#ffd24f" fill-rule="evenodd"/></g><g transform="translate(533.29 233)"><path d="m0 0 0.524 0.302c0.279 0.16 0.619 0.133 0.867-0.045-0.029 0.305 0.116 0.612 0.397 0.774l0.523 0.303c0.381 0.218 0.873 0.087 1.092-0.293l1.334-2.311c0.22-0.381 0.088-0.873-0.293-1.094l-0.524-0.301c-0.279-0.162-0.619-0.134-0.867 0.043 0.029-0.302-0.115-0.611-0.394-0.773l-0.524-0.301c-0.383-0.22-0.873-0.09-1.094 0.291l-1.334 2.311c-0.219 0.381-0.087 0.873 0.293 1.094" fill-rule="evenodd"/></g><g transform="translate(541.79 237.91)"><path d="m0 0 0.524 0.302c0.281 0.161 0.619 0.133 0.867-0.044-0.029 0.302 0.117 0.611 0.396 0.773l0.524 0.303c0.381 0.218 0.873 0.088 1.094-0.293l1.334-2.311c0.218-0.381 0.088-0.873-0.293-1.094l-0.524-0.3c-0.281-0.162-0.621-0.135-0.867 0.043 0.029-0.303-0.117-0.612-0.396-0.774l-0.524-0.301c-0.381-0.22-0.873-0.089-1.094 0.291l-1.334 2.311c-0.218 0.381-0.088 0.873 0.293 1.094" fill-rule="evenodd"/></g><g transform="translate(524.16 247.18)"><path d="m0 0 12.236 7.065 8.127-14.076-12.236-7.065z" fill-rule="evenodd"/></g><g transform="translate(516.2 243.59)"><path d="m0 0m3.532 0m35.32 0-4e-3 -2.232 1.949 0.582c0.27 0.074 0.469 0.105 0.678-0.035 0.297-0.203 0.375-0.61 0.172-0.906l-4.565-6.75-4.572 6.75c-0.201 0.296-0.125 0.703 0.174 0.906 0.197 0.135 0.404 0.111 0.648 0.049l1.981-0.596 6e-3 2.232c6e-3 8.756-7.135 15.897-15.891 15.897s-15.896-7.141-15.896-15.897v-5.453h-3.532v5.453c0 10.702 8.727 19.43 19.428 19.43s19.428-8.728 19.424-19.43" fill-rule="evenodd"/></g><path d="m519.74 228.46h31.793v-1.768h-31.793z" fill-rule="evenodd"/></g><text transform="matrix(1 0 0 -1 522.74 192.43)" fill="#000000" font-family="Helvetica" font-size="9px"><tspan x="0 8.4960003 13.5 16.497 21.500999" y="0">W1-13</tspan></text><g clip-path="url(#g)"><g transform="translate(325.83 206.42)"><path d="m0 0c-1.294-1.294-3.391-1.294-4.683 0l-32.782 32.778c-1.293 1.294-1.293 3.391 0 4.683l32.782 32.781c1.292 1.294 3.389 1.294 4.683 0l32.78-32.781c1.293-1.292 1.293-3.389 0-4.683z" fill="#ffd24f"/><path d="m0 0c-1.294-1.294-3.391-1.294-4.683 0l-32.782 32.778c-1.293 1.294-1.293 3.391 0 4.683l32.782 32.781c1.292 1.294 3.389 1.294 4.683 0l32.78-32.781c1.293-1.292 1.293-3.389 0-4.683z" fill="none" stroke="#000" stroke-width=".5"/></g><g transform="translate(357.05 240.76)"><path d="m0 0-32.78-32.78c-0.431-0.431-1.131-0.431-1.562 0l-32.78 32.78c-0.43 0.431-0.43 1.131 0 1.562l32.78 32.778c0.431 0.431 1.131 0.431 1.562 0l32.78-32.778c0.431-0.431 0.431-1.131 0-1.562m0.912 2.472-32.782 32.78c-0.933 0.933-2.449 0.933-3.382 0l-32.78-32.78c-0.933-0.933-0.933-2.449 0-3.382l32.78-32.78c0.933-0.933 2.449-0.933 3.382 0l32.782 32.78c0.933 0.933 0.933 2.449 0 3.382"/></g><g transform="translate(317.01 229.61)"><path d="m0 0-7e-3 -6.606h-7.089l-2e-3 6.572c-2e-3 -0.043-2e-3 -1e-3 -2e-3 -1e-3 0 3.746 2.041 7.327 5.247 9.202l10.582 7.195c0.901 0.666 1.443 1.734 1.443 2.859l5e-3 3.184-3.918-1.169c-0.543-0.15-0.944-0.215-1.362 0.069-0.597 0.407-0.753 1.226-0.347 1.825l9.18 13.571 9.193-13.571c0.406-0.599 0.252-1.418-0.347-1.825-0.4-0.271-0.813-0.223-1.305-0.097l-3.984 1.197-7e-3 -3.226c0-2.956-1.056-6.169-3.457-7.828l-12.024-8.305c-1.083-0.626-1.791-1.791-1.799-3.046" fill-rule="evenodd"/></g><g transform="translate(313.07 250.84)"><path d="m0 0 2.937 1.986 16.488-24.382-2.935-1.985z" fill-rule="evenodd"/></g></g><text transform="matrix(1 0 0 -1 309.27 192.43)" fill="#000000" font-family="Helvetica" font-size="9px"><tspan x="0 8.4960003 13.5 16.497 21.500999 26.504999 -213.651 -205.155 -200.151 -197.15401 -192.14999 -187.146" y="0">W1-10eW1-10c</tspan></text><g clip-path="url(#f)"><g transform="translate(108.79 206.42)"><path d="m0 0c1.294-1.294 3.392-1.294 4.684 0l32.781 32.778c1.294 1.294 1.294 3.391 0 4.683l-32.781 32.781c-1.292 1.294-3.39 1.294-4.684 0l-32.78-32.781c-1.294-1.292-1.294-3.389 0-4.683z" fill="#ffd24f"/><path d="m0 0c1.294-1.294 3.392-1.294 4.684 0l32.781 32.778c1.294 1.294 1.294 3.391 0 4.683l-32.781 32.781c-1.292 1.294-3.39 1.294-4.684 0l-32.78-32.781c-1.294-1.292-1.294-3.389 0-4.683z" fill="none" stroke="#000" stroke-width=".5"/></g><g transform="translate(144.69 240.76)"><path d="m0 0-32.782-32.78c-0.43-0.431-1.131-0.431-1.561 0l-32.782 32.78c-0.431 0.431-0.431 1.131 0 1.562l32.782 32.778c0.43 0.431 1.131 0.431 1.561 0l32.782-32.778c0.429-0.431 0.429-1.131 0-1.562m0.91 2.472-32.782 32.78c-0.932 0.933-2.449 0.933-3.381 0l-32.782-32.78c-0.932-0.933-0.932-2.449 0-3.382l32.782-32.78c0.932-0.933 2.449-0.933 3.381 0l32.782 32.78c0.932 0.933 0.932 2.449 0 3.382"/></g><g transform="translate(110.38 249.9)"><path d="m0 0-1.57 3.179-23.348-11.531 1.57-3.178z" fill-rule="evenodd"/></g><g transform="translate(112.77 247.43)"><path d="m0 0c0.39-1.297 0.781-2.595 1.171-3.891 0.121-0.407 0.344-0.801 0.72-1.02 0.561-0.326 1.308-0.205 1.752 0.258 0.229 0.239 0.35 0.512 0.493 0.802 0.539 1.094 1.078 2.188 1.619 3.281 0.811 1.646 1.622 3.293 2.434 4.938 0.757 1.538 1.515 3.074 2.273 4.611 0.378 0.767 0.755 1.534 1.135 2.301 3e-3 0.01 7e-3 0.018 0.012 0.027h-7.135c-1.854 2e-3 -3.708 2e-3 -5.561 2e-3h-4.536c-0.503 0-1.063-0.123-1.426-0.495-0.435-0.447-0.451-1.22-0.068-1.701 0.199-0.248 0.437-0.466 0.652-0.703 0.25-0.278 0.502-0.553 0.752-0.831 0.542-0.6 1.085-1.202 1.628-1.802 0.04-0.043 0.081-0.089 0.121-0.132-1.125-0.512-2.217-1.102-3.243-1.793-1.066-0.719-2.068-1.495-3.014-2.369-0.894-0.827-1.707-1.798-2.355-2.827-0.691-1.097-1.225-2.244-1.625-3.475-0.39-1.194-0.571-2.443-0.678-3.69-0.071-0.822-0.046-1.655-0.045-2.479 2e-3 -1.612 5e-3 -3.225 6e-3 -4.837 4e-3 -1.76 5e-3 -3.52 9e-3 -5.28 1e-3 -0.542 1e-3 -1.083 3e-3 -1.625v-0.35c0-0.064 0.065-0.036 0.123-0.036h6.7c0.018 0 0.261-4e-3 0.261 4e-3v0.248c2e-3 1.281 2e-3 2.562 4e-3 3.843 0 1.852 1e-3 3.704 3e-3 5.558 0 1.16 0 2.322 1e-3 3.481 0 1.027 0.092 2.078 0.421 3.056 0.394 1.166 1.023 2.285 1.91 3.151 0.463 0.453 0.937 0.884 1.451 1.279 1.183 0.907 2.467 1.681 3.788 2.37 0.081 0.042 0.161 0.084 0.244 0.126" fill-rule="evenodd"/></g></g><text transform="matrix(1 0 0 -1 201.56 192.43)" fill="#000000" font-family="Helvetica" font-size="9px"><tspan x="0 8.4960003 13.5 16.497 21.500999 26.504999" y="0">W1-10d</tspan></text><g clip-path="url(#e)"><g transform="translate(219.65 206.41)"><path d="m0 0c-1.294-1.294-3.39-1.294-4.683 0l-32.784 32.781c-1.294 1.294-1.294 3.391 0 4.683l32.784 32.783c1.293 1.294 3.389 1.294 4.683 0l32.783-32.783c1.293-1.292 1.293-3.389 0-4.683z" fill="#ffd24f"/><path d="m0 0c-1.294-1.294-3.39-1.294-4.683 0l-32.784 32.781c-1.294 1.294-1.294 3.391 0 4.683l32.784 32.783c1.293 1.294 3.389 1.294 4.683 0l32.783-32.783c1.293-1.292 1.293-3.389 0-4.683z" fill="none" stroke="#000" stroke-width=".5"/></g><g transform="translate(250.87 240.76)"><path d="m0 0-32.784-32.783c-0.429-0.43-1.13-0.43-1.56 0l-32.784 32.783c-0.431 0.43-0.431 1.13 0 1.561l32.784 32.782c0.43 0.43 1.131 0.43 1.56 0l32.784-32.782c0.431-0.431 0.431-1.131 0-1.561m0.912 2.472-32.785 32.781c-0.932 0.933-2.45 0.933-3.382 0l-32.784-32.781c-0.932-0.933-0.932-2.451 0-3.384l32.784-32.781c0.932-0.933 2.45-0.933 3.382 0l32.785 32.781c0.932 0.933 0.932 2.451 0 3.384"/></g><g transform="translate(210.83 229.61)"><path d="m0 0-8e-3 -6.608h-7.089l-1e-3 6.573c-2e-3 -0.044-2e-3 -2e-3 -2e-3 -2e-3 0 3.748 2.041 7.329 5.248 9.203l10.582 7.196c0.901 0.666 1.443 1.734 1.443 2.859l5e-3 3.184-3.919-1.169c-0.543-0.151-0.944-0.214-1.361 0.07-0.598 0.406-0.754 1.226-0.348 1.824l9.18 13.571 9.195-13.571c0.407-0.598 0.251-1.418-0.347-1.824-0.4-0.272-0.813-0.223-1.305-0.098l-3.985 1.197-8e-3 -3.226c0-2.956-1.055-6.169-3.456-7.828l-12.026-8.307c-1.083-0.624-1.791-1.79-1.798-3.044" fill-rule="evenodd"/></g><g transform="translate(206.89 250.84)"><path d="m0 0 2.936 1.985 9.401-13.901-2.937-1.985z" fill-rule="evenodd"/></g></g><text transform="matrix(1 0 0 -1 89.781 56.525)" fill="#000000" font-family="Helvetica" font-size="9px"><tspan x="0 6.4980001 11.502 14.004 19.007999 21.059999 23.993999 28.413 33.417 36.639 41.643002 44.145 49.148998 52.146 55.143002 60.012001 66.510002 71.010002 73.512001 78.515999 83.519997 88.524002 91.026001 94.023003 98.757004 103.032 108.036 111.033 115.533 120.537 123.039 125.541 130.545 133.767 138.771 141.27299 146.27699 149.274 152.271 157.14 163.638 168.138 170.64 178.13699 182.871 187.371 189.873 194.877 199.881 202.383 206.883 211.88699 216.89101 221.39101 223.89301 225.89101 228.39301 233.397 235.899 240.903 245.907 248.409 250.64101 255.645 258.642 261.14401 263.646 268.64999 273.65399 276.15601 280.65601 285.66 288.927 293.202 298.20599 300.70801 305.71201 308.70901 311.70599 316.57501 323.073 327.573 330.07501 335.07901 340.08301 345.08701 347.58899 350.586 355.32001 359.595 364.599 367.59601 372.09601 377.10001 379.60199 384.10199 389.10599 392.37299 396.64801 401.65201 404.15399 409.15799 412.155 415.15201 420.021 426.51901 431.01901 433.521 438.52499 443.52899 446.03101 448.53299 453.53699 458.54099" y="0">Note: Turn arrows and reverse turn arrows may be substituted for the curve arrows and reverse curve arrows on the </tspan></text><g clip-path="url(#d)"><text transform="matrix(1 0 0 -1 113.78 47.025)" fill="#000000" font-family="Helvetica" font-size="9px"><tspan x="0 8.4960003 13.5 16.497 21.500999 26.504999 29.007 33.507 38.511002 41.643002 43.640999 48.645 53.145 55.646999 60.146999 62.145 67.149002 72.153 76.653 79.154999 85.653 90.656998 95.661003 98.657997 103.662 106.164 111.168 116.172 121.176 124.173 129.177 134.181 137.313 139.311 144.315 146.817 151.686" y="0">W1-10 series signs where appropriate.</tspan></text></g><text transform="matrix(1 0 0 -1 445.06 74.943)" fill="#000000" font-family="Helvetica" font-size="9px"><tspan x="0 8.4960003 13.5 18.504 21.500999" y="0">W13-6</tspan></text><g clip-path="url(#c)"><g transform="translate(436.23 87.679)"><path d="m0 0h44.16c2.438 0 4.416 1.975 4.416 4.416v83.905c0 2.437-1.978 4.416-4.416 4.416h-44.16c-2.442 0-4.416-1.979-4.416-4.416v-83.905c0-2.437 1.978-4.416 4.416-4.416" fill="#ffd24f" fill-rule="evenodd"/><path d="m0 0h44.16c2.438 0 4.416 1.975 4.416 4.416v83.905c0 2.437-1.978 4.416-4.416 4.416h-44.16c-2.442 0-4.416-1.979-4.416-4.416v-83.905c0-2.437 1.978-4.416 4.416-4.416z" fill="none" stroke="#000" stroke-width=".5"/></g><g transform="translate(436.24 88.601)"><path d="m0 0h44.128c1.95 0 3.53 1.578 3.53 3.529v83.911c0 1.951-1.58 3.531-3.53 3.531h-44.128c-1.952 0-3.53-1.58-3.53-3.531v-83.911c0-1.949 1.58-3.529 3.53-3.529" fill-rule="evenodd"/></g><g transform="translate(436.25 158.46)"><path d="m0 0h44.124c1.22 0 2.207 0.986 2.207 2.203v15.381c0 1.218-0.987 2.205-2.207 2.205h-44.124c-1.216 0-2.203-0.987-2.203-2.205v-15.381c0-1.217 0.985-2.203 2.203-2.203" fill="#ffd24f" fill-rule="evenodd"/></g><g transform="translate(436.25 89.919)"><path d="m0 0h44.124c1.22 0 2.207 0.987 2.207 2.204v62.884c0 1.221-0.987 2.207-2.207 2.207h-44.124c-1.216 0-2.203-0.986-2.203-2.207v-62.884c0-1.219 0.985-2.204 2.203-2.204" fill="#ffd24f" fill-rule="evenodd"/></g><g transform="translate(444.82 163.95)"><path d="m0 0v8.832h6.445v-1.58h-4.834v-1.643h2.635v-1.611h-2.635v-2.416h4.99v-1.582z"/></g><g transform="translate(458.45 163.95)"><path d="m0 0-1.983 3.131-1.953-3.131h-1.859l2.882 4.648-2.634 4.184h1.89l1.674-2.695 1.674 2.695h1.891l-2.604-4.184 2.881-4.648z"/></g><path d="m462.08 172.78h1.582v-8.832h-1.582z"/><g transform="translate(469.21 171.23)"><path d="m0 0v-7.283h-1.548v7.283h-2.543v1.549h6.632v-1.549z"/></g><g transform="translate(452.68 92.095)"><path d="m0 0v3.535l-1.707-3.535-1.687 3.535v-3.535h-1.016v5.791h1.016l1.687-3.433 1.707 3.433h1.016v-5.791z"/></g><g transform="translate(459.46 96.851)"><path d="m0 0h-1.687v-1.443h1.687c0.508 0 0.854 0.285 0.854 0.711 0 0.447-0.346 0.732-0.854 0.732m0.996-2.256c-0.326-0.183-0.59-0.224-1.037-0.224h-1.646v-2.276h-1.057v5.791h2.703c0.447 0 0.711-0.06 1.037-0.244 0.547-0.305 0.893-0.873 0.893-1.523 0-0.61-0.346-1.219-0.893-1.524"/></g><g transform="translate(467.47 92.095)"><path d="m0 0v2.541l-2.599-0.021v-2.52h-1.038v5.791h1.038v-2.234h2.599v2.234h1.037v-5.791z"/></g><g transform="translate(444.76 102.3)"><path d="m0 0c0 1.842 0.379 3.198 1.246 4.715 1.354 2.276 3.305 3.684 6.123 4.442 1.733 0.488 2.328 1.029 2.328 1.951 0 1.136-1.082 1.787-3.033 1.787-2.004 0-3.467-0.487-4.767-1.68l-1.897 2.113c1.787 1.573 4.01 2.385 6.502 2.385 3.629 0 5.959-1.789 5.959-4.605 0-1.301-0.541-2.492-1.57-3.36-0.488-0.379-1.194-0.757-2.276-1.084-2.06-0.595-2.656-0.867-3.576-1.679-0.705-0.596-1.138-1.192-1.679-2.221h9.101v-2.764z"/></g><g transform="translate(465.35 102.03)"><path d="m0 0c-2.113 0-4.01 0.543-5.961 1.734l1.463 2.33c1.356-0.812 2.926-1.246 4.498-1.246 2.33 0 3.738 1.029 3.738 2.764 0 0.812-0.379 1.625-0.974 2.113-0.543 0.434-1.356 0.65-2.492 0.65-1.032 0-1.844-0.164-2.981-0.597l-2.764 0.705 0.489 7.26h10.293l-0.053-2.709h-7.641l-0.162-2.221c1.246 0.271 2.004 0.379 2.981 0.379 3.521 0 6.068-2.385 6.068-5.58 0-3.252-2.709-5.582-6.502-5.582"/></g><g transform="translate(449.01 140.36)"><path d="m0 0c-6e-3 -4.938-0.011-9.873-0.017-14.809h-5.647c0 4.942-2e-3 9.885-4e-3 14.826 0 8.183 7.53 14.819 16.721 14.819 9.193 0 16.689-6.674 16.689-14.856 0-7.67-6.589-14.015-14.986-14.779l0.889-3.203c0.099-0.393 0.138-0.721-0.076-1.039-0.325-0.477-0.977-0.602-1.454-0.277l-10.812 7.324 10.812 7.312c0.477 0.324 1.129 0.201 1.454-0.275 0.224-0.334 0.175-0.652 0.054-1.084l-0.892-3.076c5.287 0.677 9.359 4.504 9.359 9.097 0 5.069-4.957 9.204-11.037 9.204-6.078 0-11.037-4.135-11.053-9.184" fill-rule="evenodd"/></g></g><text transform="matrix(1 0 0 -1 531.26 74.943)" fill="#000000" font-family="Helvetica" font-size="9px"><tspan x="0 8.4960003 13.5 18.504 21.500999" y="0">W13-7</tspan></text><g clip-path="url(#b)"><g transform="translate(522.43 87.679)"><path d="m0 0h44.16c2.438 0 4.416 1.975 4.416 4.416v83.905c0 2.437-1.978 4.416-4.416 4.416h-44.16c-2.441 0-4.416-1.979-4.416-4.416v-83.905c0-2.437 1.979-4.416 4.416-4.416" fill="#ffd24f" fill-rule="evenodd"/><path d="m0 0h44.16c2.438 0 4.416 1.975 4.416 4.416v83.905c0 2.437-1.978 4.416-4.416 4.416h-44.16c-2.441 0-4.416-1.979-4.416-4.416v-83.905c0-2.437 1.979-4.416 4.416-4.416z" fill="none" stroke="#000" stroke-width=".5"/></g></g><g clip-path="url(#a)"><g transform="translate(522.45 88.601)"><path d="m0 0h44.129c1.949 0 3.531 1.578 3.531 3.529v83.911c0 1.951-1.582 3.531-3.531 3.531h-44.129c-1.951 0-3.53-1.58-3.53-3.531v-83.911c0-1.949 1.58-3.529 3.53-3.529" fill-rule="evenodd"/></g><g transform="translate(522.45 158.46)"><path d="m0 0h44.125c1.218 0 2.205 0.986 2.205 2.203v15.381c0 1.218-0.987 2.205-2.205 2.205h-44.125c-1.217 0-2.203-0.987-2.203-2.205v-15.381c0-1.217 0.984-2.203 2.203-2.203" fill="#ffd24f" fill-rule="evenodd"/></g><g transform="translate(522.45 89.919)"><path d="m0 0h44.125c1.218 0 2.205 0.987 2.205 2.204v62.884c0 1.221-0.987 2.207-2.205 2.207h-44.125c-1.217 0-2.203-0.986-2.203-2.207v-62.884c0-1.219 0.984-2.204 2.203-2.204" fill="#ffd24f" fill-rule="evenodd"/></g><g transform="translate(531.8 170.07)"><path d="m0 0c0 0.289-0.123 0.549-0.367 0.777-0.244 0.231-0.514 0.346-0.809 0.346h-2.718v-2.209h2.736c0.295 0 0.561 0.109 0.801 0.326 0.238 0.219 0.357 0.473 0.357 0.76m0.1-2.397 1.572-3.726h-1.732l-1.457 3.451h-2.377v-3.451h-1.588v8.832h4.355c0.742 0 1.383-0.262 1.918-0.785 0.537-0.526 0.801-1.166 0.795-1.926-6e-3 -0.541-0.142-1.024-0.41-1.444-0.27-0.421-0.627-0.738-1.076-0.951"/></g><g transform="translate(540.21 167.57)"><path d="m0 0-1.263 3.031-1.272-3.031zm3.241-3.619h-1.721l-0.848 2.031h-3.869l-0.847-2.031h-1.723l3.691 8.832h1.617z"/></g><g transform="translate(553.25 163.95)"><path d="m0 0h-1.586v5.211l-2.564-5.211-2.565 5.211v-5.211h-1.587v8.832h1.591l2.563-5.201 2.562 5.201h1.586z"/></g><g transform="translate(561.11 170.07)"><path d="m0 0c0 0.289-0.121 0.549-0.366 0.777-0.244 0.231-0.513 0.346-0.806 0.346h-2.807v-2.209h2.824c0.293 0 0.561 0.109 0.799 0.326 0.237 0.219 0.356 0.473 0.356 0.76m1.588 0c-6e-3 -0.776-0.274-1.416-0.805-1.918-0.529-0.504-1.166-0.754-1.908-0.754h-2.854v-3.451h-1.586v8.832h4.442c0.742 0 1.38-0.262 1.916-0.785 0.535-0.524 0.8-1.164 0.795-1.924"/></g><g transform="translate(530.96 102.3)"><path d="m0 0c0 1.842 0.379 3.198 1.246 4.715 1.356 2.276 3.305 3.684 6.123 4.442 1.733 0.488 2.331 1.029 2.331 1.951 0 1.136-1.084 1.787-3.036 1.787-2.003 0-3.466-0.487-4.767-1.68l-1.897 2.113c1.789 1.573 4.01 2.385 6.502 2.385 3.631 0 5.959-1.789 5.959-4.605 0-1.301-0.541-2.492-1.57-3.36-0.488-0.379-1.191-0.757-2.275-1.084-2.059-0.595-2.655-0.867-3.577-1.679-0.705-0.596-1.138-1.192-1.679-2.221h9.101v-2.764z"/></g><g transform="translate(551.55 102.03)"><path d="m0 0c-2.113 0-4.01 0.541-5.959 1.732l1.463 2.33c1.354-0.812 2.926-1.246 4.496-1.246 2.33 0 3.739 1.029 3.739 2.764 0 0.812-0.379 1.625-0.975 2.113-0.543 0.434-1.356 0.65-2.492 0.65-1.03 0-1.842-0.164-2.981-0.597l-2.763 0.705 0.488 7.26h10.295l-0.055-2.709h-7.641l-0.162-2.221c1.246 0.271 2.006 0.379 2.981 0.379 3.521 0 6.068-2.385 6.068-5.58 0-3.252-2.709-5.58-6.502-5.58"/></g><g transform="translate(538.8 92.095)"><path d="m0 0v3.535l-1.707-3.535-1.685 3.535v-3.535h-1.018v5.791h1.018l1.685-3.433 1.707 3.433h1.016v-5.791z"/></g><g transform="translate(545.59 96.851)"><path d="m0 0h-1.685v-1.443h1.685c0.508 0 0.854 0.285 0.854 0.711 0 0.447-0.346 0.732-0.854 0.732m0.996-2.256c-0.326-0.183-0.589-0.224-1.037-0.224h-1.644v-2.276h-1.057v5.791h2.701c0.448 0 0.711-0.06 1.037-0.244 0.549-0.305 0.893-0.873 0.893-1.523 0-0.61-0.344-1.219-0.893-1.524"/></g><g transform="translate(553.59 92.095)"><path d="m0 0v2.541l-2.599-0.021v-2.52h-1.038v5.791h1.038v-2.234h2.599v2.234h1.037v-5.791z"/></g><g transform="translate(535.21 140.36)"><path d="m0 0c-5e-3 -4.938-0.011-9.873-0.017-14.809h-5.647c0 4.942-2e-3 9.885-4e-3 14.826 0 8.183 7.53 14.819 16.721 14.819 9.193 0 16.69-6.674 16.69-14.856 0-7.67-6.59-14.015-14.987-14.779l0.889-3.203c0.1-0.393 0.139-0.721-0.076-1.039-0.324-0.477-0.977-0.602-1.453-0.277l-10.813 7.324 10.813 7.312c0.476 0.324 1.129 0.201 1.453-0.275 0.224-0.334 0.176-0.652 0.054-1.084l-0.892-3.076c5.287 0.677 9.359 4.504 9.359 9.097 0 5.069-4.957 9.204-11.037 9.204-6.078 0-11.037-4.135-11.053-9.184" fill-rule="evenodd"/></g></g></g></svg>
