<?xml version="1.0" encoding="UTF-8"?>
<svg width="672.6" height="395.39" version="1.1" viewBox="0 0 672.6 395.39" xml:space="preserve" xmlns="http://www.w3.org/2000/svg"><defs><clipPath id="y"><path d="m0 792h612v-792h-612z"/></clipPath><clipPath id="x"><path d="m63 43h512.62v313.13h-512.62z"/></clipPath><clipPath id="w"><path d="m63 43h512.62v313.13h-512.62z"/></clipPath><clipPath id="v"><path d="m63 43h512.62v313.13h-512.62z"/></clipPath><clipPath id="u"><path d="m67.189 43h504.24v313.13h-504.24z"/></clipPath><clipPath id="t"><path d="m63 43h512.62v313.13h-512.62z"/></clipPath><clipPath id="s"><path d="m63 43h512.62v313.13h-512.62z"/></clipPath><clipPath id="r"><path d="m63 43h512.62v313.13h-512.62z"/></clipPath><clipPath id="q"><path d="m63 43h512.62v313.13h-512.62z"/></clipPath><clipPath id="p"><path d="m63 43h512.62v313.13h-512.62z"/></clipPath><clipPath id="o"><path d="m63 43h512.62v313.13h-512.62z"/></clipPath><clipPath id="n"><path d="m63 43h512.62v313.13h-512.62z"/></clipPath><clipPath id="m"><path d="m63 43h512.62v313.13h-512.62z"/></clipPath><clipPath id="l"><path d="m67.189 43h504.24v313.13h-504.24z"/></clipPath><clipPath id="k"><path d="m63 43h512.62v313.13h-512.62z"/></clipPath><clipPath id="j"><path d="m63 43h512.62v313.13h-512.62z"/></clipPath><clipPath id="i"><path d="m67.189 43h504.24v313.13h-504.24z"/></clipPath><clipPath id="h"><path d="m63 43h512.62v313.13h-512.62z"/></clipPath><clipPath id="g"><path d="m63 43h512.62v313.13h-512.62z"/></clipPath><clipPath id="f"><path d="m63 43h512.62v313.13h-512.62z"/></clipPath><clipPath id="e"><path d="m63 43h512.62v313.13h-512.62z"/></clipPath><clipPath id="d"><path d="m63 43h512.62v313.13h-512.62z"/></clipPath><clipPath id="c"><path d="m63 43h512.62v313.13h-512.62z"/></clipPath><clipPath id="b"><path d="m67.189 43h504.24v313.13h-504.24z"/></clipPath><clipPath id="a"><path d="m63 43h512.62v313.13h-512.62z"/></clipPath></defs><g transform="matrix(1.3333 0 0 -1.3333 -89.586 452.72)"><g clip-path="url(#y)"/><g clip-path="url(#x)"><g transform="translate(470.72 138.16)"><path d="m0 0h48.01c2.859 0 5.197-2.338 5.197-5.195v-48.013c0-2.858-2.338-5.196-5.197-5.196h-48.01c-2.857 0-5.197 2.338-5.197 5.196v48.013c0 2.857 2.34 5.195 5.197 5.195" fill="#fff"/><path d="m0 0h48.01c2.859 0 5.197-2.338 5.197-5.195v-48.013c0-2.858-2.338-5.196-5.197-5.196h-48.01c-2.857 0-5.197 2.338-5.197 5.196v48.013c0 2.857 2.34 5.195 5.197 5.195z" fill="none" stroke="#000" stroke-width=".5"/></g><g transform="translate(470.72 136.86)"><path d="m0 0h48.01c2.147 0 3.9-1.753 3.9-3.897v-48.013c0-2.143-1.753-3.899-3.9-3.899h-48.01c-2.146 0-3.898 1.756-3.898 3.899v48.013c0 2.144 1.752 3.897 3.898 3.897" fill="#006f51" fill-rule="evenodd"/></g><g transform="translate(470.98 102.31)"><path d="m0 0c6.988 4.167 13.975 8.332 20.963 12.499 0 4.916-4e-3 11.364 0 15.457 4e-3 2.014 1.352 3.017 2.723 3.036 1.418 0.019 2.859-1.009 2.869-3.056 0.023-4.032 0-10.463-0.037-15.437 6.965-4.167 13.931-8.332 20.896-12.499v-5.092c-6.965 2.16-13.931 4.32-20.896 6.48v-11.176c1.564-1.279 3.131-2.556 4.695-3.836v-4.098c-2.492 0.727-4.982 1.454-7.475 2.181-2.466-0.749-4.935-1.498-7.404-2.248v4.165c1.543 1.28 3.086 2.557 4.629 3.836v11.176c-6.965-2.182-13.932-4.363-20.896-6.546-0.024 1.718-0.045 3.439-0.067 5.158" fill="#fff" fill-rule="evenodd"/></g></g><text transform="matrix(1 0 0 -1 89.342 253.39)" fill="#000000" font-family="Helvetica" font-size="9px"><tspan x="0 2.5020001 7.506 10.503" y="0">I1-1</tspan></text><g clip-path="url(#w)"><g transform="translate(78.794 339.29)"><path d="m0 0h35.693c3.569 0 6.49-2.921 6.49-6.488v-60.028c0-3.57-2.921-6.489-6.49-6.489h-35.693c-3.568 0-6.488 2.919-6.488 6.489v60.028c0 3.567 2.92 6.488 6.488 6.488" fill="#fff"/><path d="m0 0h35.693c3.569 0 6.49-2.921 6.49-6.488v-60.028c0-3.57-2.921-6.489-6.49-6.489h-35.693c-3.568 0-6.488 2.919-6.488 6.489v60.028c0 3.567 2.92 6.488 6.488 6.488z" fill="none" stroke="#000" stroke-width=".5"/></g><g transform="translate(79.171 337.67)"><path d="m0 0h34.94c2.882 0 5.241-2.359 5.241-5.243v-59.275c0-2.883-2.359-5.243-5.241-5.243h-34.94c-2.884 0-5.242 2.36-5.242 5.243v59.275c0 2.884 2.358 5.243 5.242 5.243" fill="#006f51" fill-rule="evenodd"/></g><g transform="translate(114.68 325.23)"><path d="m0 0c0 1.167-0.683 2.049-2.247 2.957-0.598 0.344-0.77 0.57-0.77 0.968 0 0.54 0.429 0.938 0.967 0.938 0.512 0 0.911-0.369 0.941-0.938h1.109c-0.028 1.223-0.909 2.105-2.05 2.105-1.167 0-2.075-0.939-2.075-2.105 0-0.712 0.342-1.337 0.995-1.791 1.651-1.11 1.196-0.798 1.365-0.967 0.486-0.37 0.656-0.713 0.656-1.167 0-0.654-0.512-1.225-1.138-1.225-0.796 0-1.139 0.712-1.139 1.395h-1.137c0-1.337 0.852-2.536 2.276-2.536 1.251 0 2.247 1.057 2.247 2.366m-5.234-2.218v1.08h-2.958v7.027h-1.166v-8.107zm-7.253 3.354h-1.167l0.567 2.334zm2.018-3.354-2.018 8.107h-1.139l-2.02-8.107h1.164l0.544 2.218h1.733l0.57-2.218zm-6.286 0v8.107h-1.167v-4.865l-2.218 4.865h-1.167v-8.107h1.167v5.431l2.503-5.431zm-6.145 2.245v1.678h-2.076v-1.138h0.91v-0.54c0-0.851-0.286-1.252-0.882-1.252-0.624 0-1.025 0.427-1.195 1.225-0.115 0.625-0.17 1.336-0.17 2.018 0 0.968 0.142 1.879 0.37 2.276 0.197 0.399 0.511 0.597 0.91 0.597 0.57 0 0.939-0.369 0.967-0.91h1.166c-0.057 1.195-0.939 2.049-2.104 2.049-0.939 0-1.764-0.627-2.049-1.478-0.283-0.77-0.369-1.595-0.369-2.733 0-1.052 0.171-2.189 0.425-2.786 0.4-0.911 1.111-1.399 2.078-1.399 0.825 0 1.48 0.432 1.793 1.141 0.169 0.342 0.226 0.683 0.226 1.252m-6.143 5.862h-1.139v-8.106h1.139zm-2.504-5.889c0 1.167-0.684 2.049-2.247 2.957-0.598 0.344-0.769 0.57-0.769 0.968 0 0.54 0.426 0.938 0.969 0.938 0.512 0 0.908-0.369 0.938-0.938h1.109c-0.029 1.223-0.911 2.105-2.047 2.105-1.167 0-2.078-0.939-2.078-2.105 0-0.712 0.341-1.337 0.996-1.791 1.651-1.11 1.194-0.798 1.365-0.967 0.484-0.37 0.655-0.713 0.655-1.167 0-0.654-0.513-1.225-1.138-1.225-0.797 0-1.138 0.712-1.138 1.395h-1.138c0-1.337 0.855-2.536 2.276-2.536 1.251 0 2.247 1.057 2.247 2.366" fill="#fff" fill-rule="evenodd"/></g><g transform="translate(113.51 314.36)"><path d="m0 0c0-0.654-0.371-1.024-1.052-1.024h-1.194v2.047h1.194c0.623 0 1.052-0.398 1.052-1.023m1.138-5.946-1.166 3.982c0.766 0.284 1.166 0.995 1.166 1.964 0 1.308-0.854 2.16-2.132 2.16h-2.419v-8.106h1.167v3.812h1.108l1.082-3.812zm-7.281 4.067c0-0.938-0.058-1.422-0.258-2.076-0.199-0.682-0.513-0.996-0.994-0.996-0.512 0-0.826 0.314-1.024 0.996-0.171 0.654-0.258 1.167-0.258 2.049 0 0.909 0.058 1.449 0.258 2.075 0.198 0.682 0.512 0.996 1.024 0.996 0.481 0 0.795-0.314 0.994-1.023 0.172-0.599 0.258-1.111 0.258-2.021m1.109 0c0 1.225-0.115 1.991-0.456 2.787-0.399 0.996-0.966 1.395-1.905 1.395s-1.509-0.399-1.935-1.365c-0.341-0.769-0.456-1.592-0.456-2.817 0-1.251 0.115-2.017 0.456-2.815 0.398-0.967 0.967-1.4 1.935-1.4 0.91 0 1.506 0.433 1.905 1.4 0.341 0.768 0.456 1.564 0.456 2.815m-5.719 2.902v1.137h-4.125v-8.106h1.167v3.812h1.622v1.11h-1.622v2.047zm-9.273 0.057v1.08h-4.124v-1.08h1.478v-7.026h1.167v7.026zm-4.865-7.026v1.137h-2.958v2.675h1.68v1.11h-1.68v2.047h2.646v1.137h-3.812v-8.106zm-5.489 2.217c0 1.168-0.684 2.049-2.247 2.958-0.598 0.343-0.768 0.571-0.768 0.969 0 0.541 0.425 0.939 0.968 0.939 0.512 0 0.908-0.37 0.938-0.939h1.109c-0.029 1.223-0.911 2.105-2.047 2.105-1.167 0-2.078-0.94-2.078-2.105 0-0.711 0.341-1.338 0.996-1.793 1.651-1.109 1.194-0.797 1.365-0.966 0.484-0.37 0.655-0.712 0.655-1.168 0-0.653-0.513-1.222-1.138-1.222-0.797 0-1.138 0.712-1.138 1.394h-1.138c0-1.338 0.855-2.537 2.276-2.537 1.251 0 2.247 1.057 2.247 2.365" fill="#fff" fill-rule="evenodd"/></g><g transform="translate(106.9 274.35)"><path d="m0 0v8.106h-1.279v-3.271h-2.959v3.271h-1.282v-8.106h1.282v3.528h2.959v-3.528zm-8.07 5.83c0-0.342-0.201-0.712-0.486-0.853-0.227-0.114-0.37-0.142-0.765-0.142h-1.68v1.991h1.68c0.395 0 0.538-0.029 0.765-0.142 0.285-0.171 0.486-0.51 0.486-0.854m1.308 0c0 0.825-0.543 1.68-1.251 2.021-0.4 0.199-0.825 0.255-1.48 0.255h-2.787v-8.106h1.279v3.528h1.508c0.626 0 1.11 0.112 1.48 0.282 0.708 0.315 1.251 1.167 1.251 2.02m-7.503-5.83v8.106h-1.278l-1.878-4.551-1.878 4.551h-1.279v-8.106h1.279v4.692l1.878-4.692 1.878 4.692v-4.692z" fill="#fff" fill-rule="evenodd"/></g><g transform="translate(110.87 292.9)"><path d="m0 0c0 3.356-2.672 5.859-6.369 5.859-1.025 0-1.821-0.113-3.131-0.398l0.172 2.334h8.021l0.056 2.844h-10.811l-0.509-7.623 2.901-0.74c1.194 0.454 2.049 0.626 3.127 0.626 1.196 0 2.05-0.229 2.619-0.683 0.626-0.513 1.024-1.366 1.024-2.219 0-1.821-1.479-2.902-3.925-2.902-1.651 0-3.299 0.458-4.724 1.308l-1.534-2.445c2.046-1.252 4.037-1.831 6.258-1.831 3.982 0 6.825 2.459 6.825 5.87m-15.359-5.575v2.903h-9.558c0.569 1.078 1.023 1.706 1.765 2.332 0.965 0.853 1.589 1.138 3.754 1.762 1.136 0.343 1.875 0.741 2.388 1.139 1.082 0.91 1.651 2.162 1.651 3.528 0 2.958-2.449 4.836-6.258 4.836-2.617 0-4.951-0.854-6.827-2.504l1.991-2.22c1.363 1.252 2.899 1.764 5.007 1.764 2.048 0 3.184-0.683 3.184-1.876 0-0.969-0.625-1.536-2.445-2.049-2.958-0.797-5.007-2.275-6.43-4.666-0.91-1.592-1.307-3.015-1.307-4.949z" fill="#fff" fill-rule="evenodd"/></g></g><text transform="matrix(1 0 0 -1 91.388 160.18)" fill="#000000" font-family="Helvetica" font-size="9px"><tspan x="0 2.5020001 5.4990001" y="0">I-6</tspan><tspan x="-17.757 -11.754 -6.75 -2.25 0.252 6.2550001 8.757 13.761 16.263 18.261 23.264999" y="9.9989996">Bus Station</tspan></text><g clip-path="url(#v)"><g transform="translate(72.636 231.3)"><path d="m0 0h48.012c2.857 0 5.195-2.338 5.195-5.195v-48.012c0-2.858-2.338-5.196-5.195-5.196h-48.012c-2.857 0-5.197 2.338-5.197 5.196v48.012c0 2.857 2.34 5.195 5.197 5.195" fill="#fff"/></g></g><g clip-path="url(#u)"><g transform="translate(72.636 231.3)"><path d="m0 0h48.012c2.857 0 5.195-2.338 5.195-5.195v-48.012c0-2.858-2.338-5.196-5.195-5.196h-48.012c-2.857 0-5.197 2.338-5.197 5.196v48.012c0 2.857 2.34 5.195 5.197 5.195z" fill="none" stroke="#000" stroke-width=".5"/></g></g><g clip-path="url(#t)"><g transform="translate(72.636 230.01)"><path d="m0 0h48.012c2.144 0 3.898-1.754 3.898-3.898v-48.012c0-2.145-1.754-3.899-3.898-3.899h-48.012c-2.145 0-3.9 1.754-3.9 3.899v48.012c0 2.144 1.755 3.898 3.9 3.898" fill="#006f51" fill-rule="evenodd"/></g><g transform="translate(73.07 187.64)"><path d="m0 0v-5.309h3.951v-4.854h8.303v4.8h23.383v-4.576h8.25v4.801h3.949v5.085l-0.789 1.127 0.963 8.135-2.94 22.819c-0.193 1.502-0.556 2.998-1.468 4.235-0.528 0.713-1.196 1.342-1.954 1.805-0.589 0.361-1.248 0.567-1.945 0.567h-28.523c-1.229 0-2.498-5e-3 -3.69-0.345-1.203-0.343-2.258-1.026-3.136-1.905-0.944-0.941-1.647-2.115-1.819-3.453l-2.879-22.71 1.02-9.26z" fill="#fff" fill-rule="evenodd"/></g><g transform="translate(77.414 186.69)"><path d="m0 0 4e-3 1.409h39.363v-1.409z" fill="#006f51" fill-rule="evenodd"/></g><path d="m84.873 224.87h23.773v-5.423h-23.773z" fill="#006f51" fill-rule="evenodd"/><g transform="translate(98.541 218.03)"><path d="m0 0 18.129-1.185 1.521-14.742h-19.65z" fill="#006f51" fill-rule="evenodd"/></g><g transform="translate(75.662 202.11)"><path d="m 0,0 1.695,14.57 17.623,1.416 V 0 Z" fill="#006f51" fill-rule="evenodd"/></g><g transform="translate(81.031 192.16)"><path d="m0 0c-0.262-0.473-0.613-0.837-1.133-1.038-0.916-0.355-1.949-0.035-2.51 0.772-0.484 0.706-0.484 1.65 4e-3 2.356 0.553 0.796 1.598 1.117 2.506 0.771 0.524-0.2 0.871-0.579 1.133-1.049 0.258 0.472 0.603 0.853 1.121 1.053 0.9 0.342 1.957 0.012 2.502-0.771 0.498-0.71 0.502-1.642 0.012-2.355-0.543-0.796-1.608-1.135-2.514-0.789-0.518 0.201-0.861 0.577-1.121 1.05" fill="#006f51" fill-rule="evenodd"/></g><g transform="translate(112.77 192.22)"><path d="m0 0c-0.256-0.475-0.605-0.866-1.129-1.06-0.891-0.333-1.955-0.032-2.496 0.758-0.496 0.72-0.502 1.636-0.02 2.362 0.541 0.817 1.608 1.138 2.516 0.782 0.537-0.208 0.854-0.561 1.129-1.036 0.26 0.469 0.609 0.843 1.121 1.043 0.902 0.355 1.971 9e-3 2.514-0.789 0.404-0.593 0.488-1.322 0.195-1.981-0.418-0.945-1.369-1.398-2.371-1.235-0.693 0.115-1.147 0.563-1.459 1.156" fill="#006f51" fill-rule="evenodd"/></g></g><text transform="matrix(1 0 0 -1 174.63 253.39)" fill="#000000" font-family="Helvetica" font-size="9px"><tspan x="0 2.5020001 5.4990001" y="0">I-2</tspan></text><g clip-path="url(#s)"><g transform="translate(155.54 309.92)"><path d="m0 0h48.669c2.681 0 4.867-2.187 4.867-4.867v-34.07c0-2.68-2.186-4.866-4.867-4.866h-48.669c-2.681 0-4.867 2.186-4.867 4.866v34.07c0 2.646 2.219 4.867 4.867 4.867" fill="#fff" stroke="#000" stroke-width=".5"/></g><g transform="translate(155.56 308.46)"><path d="m0 0h48.632c1.87 0 3.428-1.553 3.425-3.425v-34.032c3e-3 -1.87-1.555-3.428-3.425-3.425h-48.632c-1.875-3e-3 -3.425 1.555-3.426 3.425v34.032c3e-3 1.872 1.551 3.425 3.426 3.425" fill="#006f51" fill-rule="evenodd"/></g><g transform="translate(201.08 292.5)"><path d="m0 0c0 1.326-1.021 2.076-3.061 2.483-1.02 0.171-1.156 0.239-1.156 0.51 0 0.273 0.306 0.375 1.019 0.375 0.647 0 1.532-0.239 2.246-0.613l0.749 1.702c-1.123 0.543-2.076 0.748-3.062 0.748-1.769 0-2.892-0.783-2.892-2.041 0-1.088 0.681-1.803 2.212-2.245 0.306-0.103 1.088-0.273 1.462-0.374 0.374-0.069 0.545-0.239 0.545-0.443 0-0.271-0.511-0.408-1.293-0.408-0.714 0-1.666 0.205-2.381 0.544l-0.748-1.7c1.02-0.51 1.869-0.686 3.198-0.686 1.122 0 1.938 0.209 2.55 0.719 0.443 0.374 0.612 0.817 0.612 1.429m-10.987-0.101c-0.544-0.308-1.054-0.376-1.463-0.376-0.679 0-1.257 0.376-1.257 0.818s0.475 0.781 1.088 0.781c0.374 0 1.054-0.101 1.632-0.306zm1.837-1.94v4.32c0 1.973-1.156 2.926-3.095 2.926-0.953 0-1.667-0.205-2.722-0.748l0.716-1.532c0.679 0.374 1.326 0.545 2.006 0.545 0.714 0 1.224-0.273 1.258-0.952-0.578 0.204-1.223 0.271-1.632 0.271-1.666 0-2.925-1.088-2.925-2.551 0-1.394 1.122-2.386 2.687-2.386 0.543 0 1.19 0.068 1.87 0.345v-0.238zm-8.503 0-2.688 3.912 2.109 3.164h-2.312l-0.953-1.429-1.021 1.429h-2.278l2.074-3.164-2.688-3.912h2.314l1.599 2.347 1.531-2.347zm-11.872 4.524h-2.312c0.203 0.646 0.68 0.987 1.191 0.987 0.544 0 0.85-0.273 1.121-0.987m2.007-1.599v0.273c0 0.884-0.137 1.565-0.407 2.211-0.511 1.122-1.565 1.837-2.721 1.837-1.736 0-3.266-1.634-3.266-3.674 0-2.076 1.565-3.679 3.367-3.679 0.953 0 1.702 0.379 2.415 1.229l-1.327 1.157c-0.305-0.407-0.679-0.647-1.088-0.647-0.612 0-1.191 0.477-1.394 1.293zm-7.823 4.864v1.94h-7.211v-1.94h2.687v-7.789h1.872v7.789z" fill="#fff" fill-rule="evenodd"/></g><g transform="translate(205.75 275.86)"><path d="m0 0v1.177h-3.379v1.998h2.124v1.177h-2.124v1.792h3.147v1.152h-4.3v-7.296zm-6.247 0v7.296h-1.152v-4.66l-2.663 4.66h-1.152v-7.296h1.152v4.941l2.791-4.941zm-6.682 7.296h-1.178v-7.296h1.178zm-2.253-7.296v1.076h-3.38v6.22h-1.152v-7.296zm-9.37 0v1.177h-3.38v1.998h2.126v1.177h-2.126v1.792h3.15v1.152h-4.301v-7.296zm-5.607 6.272v1.024h-4.504v-1.024h1.665v-6.272h1.15v6.272zm-7.32-3.047h-1.461l0.744 2.049zm2.355-3.225-2.51 7.296h-1.151l-2.509-7.296h1.229l0.717 2.049h2.278l0.716-2.049zm-6.605 6.272v1.024h-4.506v-1.024h1.664v-6.272h1.151v6.272zm-5.069-4.173c0 2.868-3.432 1.971-3.533 3.329-0.051 0.665 0.589 0.87 1.125 0.844 0.821-0.025 1.077-0.64 1.077-0.64l1.023 0.307c-0.357 0.896-1.049 1.485-2.073 1.485-1.306 0-2.278-0.537-2.278-1.971 0-1.204 0.972-1.638 1.408-1.817 0.947-0.385 2.072-0.538 2.072-1.512 0-0.614-0.46-1.075-1.125-1.075-0.69 0-1.255 0.385-1.562 1.075l-1.101-0.408c0.486-1.101 1.408-1.849 2.663-1.849 0.614 0 1.176 0.209 1.588 0.568 0.46 0.41 0.716 0.999 0.716 1.664" fill="#fff" fill-rule="evenodd"/></g></g><text transform="matrix(1 0 0 -1 177.54 160.18)" fill="#000000" font-family="Helvetica" font-size="9px"><tspan x="0 2.5020001 5.4990001" y="0">I-7</tspan><tspan x="-19.674 -15.255 -12.348 -7.3439999 -5.3460002 -0.34200001 2.1600001 8.1630001 10.665 15.669 18.171 20.169001 25.173" y="9.9989996">Train Station</tspan></text><g clip-path="url(#r)"><g transform="translate(158.76 231.3)"><path d="m0 0h48.056c2.846 0 5.174-2.329 5.174-5.176v-48.053c0-2.846-2.328-5.174-5.174-5.174h-48.056c-2.844 0-5.174 2.328-5.174 5.174v48.053c0 2.847 2.33 5.176 5.174 5.176" fill="#fff"/><path d="m0 0h48.056c2.846 0 5.174-2.329 5.174-5.176v-48.053c0-2.846-2.328-5.174-5.174-5.174h-48.056c-2.844 0-5.174 2.328-5.174 5.174v48.053c0 2.847 2.33 5.176 5.174 5.176z" fill="none" stroke="#000" stroke-width=".5"/></g><g transform="translate(158.76 229.82)"><path d="m0 0h48.056c2.032 0 3.696-1.664 3.696-3.698v-48.053c0-2.033-1.664-3.697-3.696-3.697h-48.056c-2.033 0-3.695 1.664-3.695 3.697v48.053c0 2.034 1.662 3.698 3.695 3.698" fill="#006f51" fill-rule="evenodd"/></g><g transform="translate(186.61 211.76)"><path d="m0 0c0.024 0.539 0.045 1.077 0.065 1.615 6.461 3.768 12.918 7.535 19.379 11.304v-37.851h-16.602c-0.043 2.133-0.084 4.264-0.129 6.395h-6.332c-0.041 0.495-0.084 0.991-0.125 1.485h7.426c-0.021 1.464-0.043 2.928-0.062 4.392-0.032 0.268-0.102 0.51-0.454 0.582 0 1.313-0.015 2.859 0 3.94 0.016 1.082 0.485 1.283 1.356 1.292s1.34-0.21 1.357-1.292c0.016-1.081 0-2.594 0-3.842-0.293 9e-3 -0.445-0.358-0.412-0.67-0.045-1.572-0.064-2.83-0.105-4.402h4.586v16.988c-3.315 0.021-6.633 0.043-9.948 0.064" fill="#fff" fill-rule="evenodd"/></g><g transform="translate(191.2 207.01)"><path d="m0 0c0.467 0 0.846-0.38 0.846-0.845 0-0.466-0.379-0.846-0.846-0.846-0.465 0-0.845 0.38-0.845 0.846 0 0.465 0.38 0.845 0.845 0.845" fill="#fff" fill-rule="evenodd"/></g><g transform="translate(181.23 181.61)"><path d="m0 0c0.278-0.414 0.553-0.829 0.831-1.244 0.306 0.011 0.615 0.022 0.921 0.031-0.199 0.396-0.402 0.789-0.605 1.182 0.713 0.01 1.426 0.022 2.137 0.031-0.35 0.521-0.702 1.043-1.053 1.562-0.647 0.011-1.346-9e-3 -1.996 0-0.412 0.67-0.776 1.372-1.192 2.042 0.512 9e-3 1.022 0.021 1.534 0.032-0.354 0.478-0.703 0.957-1.055 1.435-0.467-0.022-0.883 0.021-1.35 0-0.382 0.732-0.871 1.489-1.252 2.223 0.307 0.022 0.666-0.044 0.977-0.024-0.311 0.436-0.615 0.873-0.926 1.308-0.265 0.01-0.531 0.022-0.797 0.032-0.011 0.606-0.019 1.211-0.031 1.817 1.18 1.138 2.359 2.275 3.539 3.413 0.377 0.23 0.537 0.57 0.479 1.02v14.509c-0.012 0.563-0.159 1.059-0.606 1.403-0.361 0.231-0.648 0.571-0.861 1.02-0.244 0.851-0.49 1.701-0.735 2.551-0.171 0.559-0.492 0.899-0.957 1.021-1.951 0.698-3.992 1.009-6.089 1.052-2.098-0.043-4.139-0.354-6.09-1.052-0.465-0.122-0.785-0.462-0.957-1.021-0.246-0.85-0.489-1.7-0.735-2.551-0.213-0.449-0.502-0.789-0.861-1.02-0.445-0.344-0.594-0.84-0.603-1.403v-14.509c-0.061-0.45 0.097-0.79 0.476-1.02 1.182-1.138 2.359-2.275 3.541-3.413-0.012-0.606-0.021-1.247-0.031-1.855-0.268-9e-3 -0.533 0.016-0.799 6e-3 -0.309-0.435-0.617-0.849-0.924-1.284 0.307-0.021 0.668 0.022 0.977 0-0.383-0.734-0.869-1.491-1.254-2.223-0.467 0.021-0.883-0.022-1.35 0-0.351-0.478-0.701-0.957-1.052-1.435 0.509-0.011 1.072-1e-3 1.582-0.011-0.413-0.671-0.801-1.393-1.217-2.063-0.647-9e-3 -1.375 0.011-2.024 0-0.351-0.519-0.701-1.041-1.052-1.562 0.712-9e-3 1.476 0 2.189-0.011-0.203-0.393-0.457-0.806-0.66-1.202 0.31-9e-3 0.619-0.02 0.926-0.031 0.277 0.415 0.552 0.83 0.83 1.244 6.05-0.043 12.125-0.043 18.175 0" fill="#fff" fill-rule="evenodd"/></g><g transform="translate(165.27 214.06)"><path d="M 0,0 C 0.125,0.437 0.252,0.874 0.377,1.312 0.531,1.716 0.594,2.114 0.992,2.264 2.941,2.9 4.627,3.147 6.681,3.298 6.685,2.761 6.687,2.223 6.693,1.685 6.703,1.543 6.627,1.467 6.463,1.456 4.504,1.239 2.41,0.643 0.234,-0.188 0.045,-0.235 -0.031,-0.173 0,0" fill="#006f51" fill-rule="evenodd"/></g><g transform="translate(167.12 188.91)"><path d="m0 0h10.127l1.256-2.223h-12.639z" fill="#006f51" fill-rule="evenodd"/></g><g transform="translate(163.85 183.18)"><path d="m0 0 1.205 2.063h14.26l1.177-2.063z" fill="#006f51" fill-rule="evenodd"/></g><g transform="translate(171.72 192.32)"><path d="m0 0-0.104 3.269h-2.006l0.801-3.269h-0.738l-1.096 3.269h-1.603l1.689-3.269h-0.846l-2.025 3.269h-1.668v0.908h16.041v-0.908h-1.666l-2.025-3.269h-0.844l1.687 3.269h-1.603l-1.096-3.269h-0.738l0.801 3.269h-2.004l-0.106-3.269z" fill="#006f51" fill-rule="evenodd"/></g><path d="m168.26 191.86h7.771v-1.67h-7.771z" fill="#006f51" fill-rule="evenodd"/><g transform="translate(179.06 214.06)"><path d="m0 0c-0.127 0.437-0.252 0.874-0.379 1.312-0.153 0.404-0.215 0.802-0.616 0.952-1.947 0.636-3.632 0.883-5.687 1.034-4e-3 -0.537-8e-3 -1.075-0.012-1.613-0.011-0.142 0.067-0.218 0.231-0.229 1.957-0.217 4.049-0.813 6.228-1.644 0.188-0.047 0.266 0.015 0.235 0.188" fill="#006f51" fill-rule="evenodd"/></g><g transform="translate(172.21 214.03)"><path d="m0 0c0.754 0 1.369-0.615 1.369-1.37 0-0.754-0.615-1.369-1.369-1.369s-1.371 0.615-1.371 1.369c0 0.755 0.617 1.37 1.371 1.37" fill="#006f51" fill-rule="evenodd"/></g><g transform="translate(171.39 219.46)"><path d="m0 0c0.301 0 0.547-0.245 0.547-0.547s-0.246-0.548-0.547-0.548-0.549 0.246-0.549 0.548 0.248 0.547 0.549 0.547" fill="#fff" fill-rule="evenodd"/></g><g transform="translate(172.82 219.46)"><path d="m0 0c0.303 0 0.547-0.245 0.547-0.547s-0.244-0.548-0.547-0.548c-0.302 0-0.547 0.246-0.547 0.548s0.245 0.547 0.547 0.547" fill="#fff" fill-rule="evenodd"/></g><g transform="translate(164.72 206.67)"><path d="m0 0c0.445 0 0.807 0.363 0.807 0.807 0 0.445-0.362 0.808-0.807 0.808s-0.809-0.363-0.809-0.808c0-0.444 0.364-0.807 0.809-0.807" fill="#006f51" fill-rule="evenodd"/></g><g transform="translate(179.47 206.67)"><path d="m0 0c0.443 0 0.807 0.363 0.807 0.807 0 0.445-0.364 0.808-0.807 0.808-0.445 0-0.809-0.363-0.809-0.808 0-0.444 0.364-0.807 0.809-0.807" fill="#006f51" fill-rule="evenodd"/></g></g><text transform="matrix(1 0 0 -1 262.73 253.39)" fill="#000000" font-family="Helvetica" font-size="9px"><tspan x="0 2.5020001 5.4990001" y="0">I-3</tspan></text><g clip-path="url(#q)"><g transform="translate(243.65 309.93)"><path d="m0 0h48.669c2.682 0 4.868-2.186 4.868-4.867v-34.069c0-2.681-2.186-4.868-4.868-4.868h-48.669c-2.682 0-4.868 2.187-4.868 4.868v34.069c0 2.647 2.219 4.867 4.868 4.867" fill="#fff" stroke="#000" stroke-width=".5"/></g><g transform="translate(243.67 308.47)"><path d="m0 0h48.63c1.877 1e-3 3.421-1.555 3.427-3.425v-34.033c-6e-3 -1.871-1.55-3.428-3.427-3.425h-48.63c-1.875-2e-3 -3.424 1.554-3.428 3.425v34.033c4e-3 1.87 1.553 3.425 3.428 3.425" fill="#006f51" fill-rule="evenodd"/></g><g transform="translate(292.95 293.47)"><path d="m0 0c0 1.327-1.024 2.075-3.063 2.483-1.021 0.171-1.158 0.238-1.158 0.51s0.309 0.374 1.022 0.374c0.646 0 1.531-0.238 2.244-0.612l0.75 1.702c-1.123 0.544-2.077 0.748-3.063 0.748-1.767 0-2.89-0.783-2.89-2.041 0-1.089 0.679-1.803 2.21-2.245 0.305-0.103 1.088-0.273 1.463-0.375 0.373-0.067 0.545-0.238 0.545-0.441 0-0.272-0.511-0.409-1.293-0.409-0.715 0-1.668 0.203-2.381 0.545l-0.748-1.701c1.02-0.511 1.872-0.686 3.198-0.686 1.121 0 1.937 0.209 2.55 0.72 0.442 0.374 0.614 0.815 0.614 1.428m-10.274 1.497c0-1.02-0.646-1.837-1.361-1.837-0.75 0-1.328 0.817-1.328 1.837 0 1.055 0.578 1.87 1.328 1.87 0.715 0 1.361-0.815 1.361-1.87m1.973 0c0 2.041-1.635 3.708-3.334 3.708-1.838 0-3.265-1.599-3.265-3.708 0-2.04 1.495-3.679 3.265-3.679 1.734 0 3.334 1.639 3.334 3.679m-8.775-3.537v1.904h-3.572l3.572 3.605v1.565h-6.396v-1.905h3.232l-3.438-3.469v-1.7zm-11.498 1.937c-0.545-0.304-1.055-0.374-1.465-0.374-0.678 0-1.258 0.374-1.258 0.817s0.477 0.783 1.09 0.783c0.373 0 1.055-0.103 1.633-0.307zm1.836-1.937v4.32c0 1.972-1.156 2.925-3.096 2.925-0.951 0-1.666-0.204-2.72-0.748l0.712-1.531c0.682 0.374 1.329 0.543 2.008 0.543 0.715 0 1.225-0.271 1.26-0.952-0.578 0.204-1.225 0.273-1.633 0.273-1.668 0-2.928-1.09-2.928-2.551 0-1.396 1.125-2.387 2.69-2.387 0.543 0 1.189 0.067 1.871 0.345v-0.237zm-7.822 6.734c-0.479 0.374-0.92 0.511-1.498 0.511-0.51 0-0.918-0.137-1.395-0.511v0.34h-1.939v-7.074h1.939v3.911c0 0.986 0.272 1.496 1.123 1.496 0.373 0 0.85-0.169 1.123-0.612zm-9.457-3.843c0-0.579-0.411-0.954-1.123-0.954h-2.891v2.247h2.619c0.338 0 0.543-0.035 0.748-0.137 0.408-0.204 0.647-0.68 0.647-1.156m-0.307 4.15c0-0.511-0.441-0.919-1.055-0.919h-2.652v1.667h2.824c0.578 0 0.883-0.272 0.883-0.748m2.211-4.15c0 0.919-0.34 1.666-1.09 2.278 0.547 0.511 0.783 1.123 0.783 1.872 0 0.952-0.509 1.87-1.326 2.312-0.51 0.307-0.816 0.375-1.666 0.375h-4.525v-9.728h4.967c0.476 0 0.986 0.134 1.429 0.373 0.885 0.51 1.428 1.462 1.428 2.518" fill="#fff" fill-rule="evenodd"/></g><g transform="translate(287.35 281.63)"><path d="m0 0c-0.478 0.373-0.92 0.51-1.498 0.51-0.51 0-0.918-0.137-1.394-0.51v0.339h-1.94v-7.075h1.94v3.913c0 0.985 0.273 1.495 1.123 1.495 0.375 0 0.849-0.17 1.123-0.612zm-9.831-2.212h-2.313c0.205 0.647 0.68 0.987 1.189 0.987 0.545 0 0.852-0.273 1.124-0.987m2.007-1.599v0.273c0 0.884-0.137 1.564-0.408 2.21-0.51 1.123-1.566 1.838-2.723 1.838-1.734 0-3.265-1.634-3.265-3.674 0-2.075 1.566-3.68 3.369-3.68 0.951 0 1.699 0.38 2.414 1.231l-1.326 1.156c-0.305-0.407-0.682-0.647-1.088-0.647-0.613 0-1.191 0.477-1.396 1.293zm-8.3 4.15h-2.039l-1.635-4.524-1.768 4.524h-2.008l2.655-7.075h2.142zm-10.239 0h-1.939v-7.075h1.939zm-0.033 1.838c0 0.543-0.41 0.952-0.953 0.952-0.51 0-0.918-0.409-0.918-0.952 0-0.51 0.408-0.952 0.918-0.952 0.543 0 0.953 0.442 0.953 0.952m-6.566-2.212c0-0.68-0.51-1.122-1.225-1.122h-2.654v2.21h2.654c0.715 0 1.225-0.475 1.225-1.088m2.041-6.701-1.532 4.116c0.885 0.579 1.395 1.531 1.395 2.585 0 1.088-0.578 2.075-1.529 2.62-0.545 0.306-0.953 0.408-1.77 0.408h-4.389v-9.729h1.905v3.64h2.553l1.326-3.64z" fill="#fff" fill-rule="evenodd"/></g></g><text transform="matrix(1 0 0 -1 263.68 160.18)" fill="#000000" font-family="Helvetica" font-size="9px"><tspan x="0 2.5020001 5.4990001" y="0">I-8</tspan><tspan x="-8.5950003 -3.5910001 -1.5930001 3.411 6.408 11.412 14.589" y="9.9989996">Library</tspan></text><g clip-path="url(#p)"><g transform="translate(244.93 231.3)"><path d="m0 0h48.012c2.857 0 5.197-2.337 5.197-5.195v-48.011c0-2.858-2.34-5.196-5.197-5.196h-48.012c-2.857 0-5.195 2.338-5.195 5.196v48.011c0 2.858 2.338 5.195 5.195 5.195" fill="#fff"/><path d="m0 0h48.012c2.857 0 5.197-2.337 5.197-5.195v-48.011c0-2.858-2.34-5.196-5.197-5.196h-48.012c-2.857 0-5.195 2.338-5.195 5.196v48.011c0 2.858 2.338 5.195 5.195 5.195z" fill="none" stroke="#000" stroke-width=".5"/></g><g transform="translate(244.93 230.01)"><path d="m0 0h48.012c2.145 0 3.9-1.754 3.9-3.898v-48.011c0-2.145-1.755-3.899-3.9-3.899h-48.012c-2.144 0-3.898 1.754-3.898 3.899v48.011c0 2.144 1.754 3.898 3.898 3.898" fill="#006f51" fill-rule="evenodd"/></g><g transform="translate(261.12 212.08)"><path d="m0 0v-25.424c4.259 0.038 8.521 0.074 12.779 0.111-2.756 2.129-5.506 4.259-8.262 6.387 3.453 4.516 6.901 9.031 10.354 13.548 0.679-0.971 1.543-1.576 2.587-1.818 0.936 1.176 1.874 2.351 2.809 3.525 1.69-3.983 3.77-7.662 6.557-10.794-2.793-3.525-5.584-7.049-8.373-10.572 0.558-1.842 0.447-3.438-0.328-4.791-1.333-1.648-3.024-2.214-4.959-2.039-0.442-0.845-0.881-1.689-1.323-2.534-7.656-0.017-15.31-0.036-22.964-0.054v25.008c0.404 4.908 3.586 7.997 9.125 9.549-3.309 0.64-5.823 3.564-5.823 7.056 0 3.958 3.231 7.187 7.192 7.187 3.955 0 7.185-3.229 7.185-7.187 0-3.745-2.89-6.837-6.556-7.158" fill="#fff" fill-rule="evenodd"/></g><g transform="translate(416.89 289.71)"><path d="m0 0h63.272c2.681 0 4.867-2.186 4.867-4.868v-107.07c0-2.68-2.186-4.866-4.867-4.866h-63.272c-2.68 0-4.865 2.186-4.865 4.866v107.07c0 2.648 2.221 4.868 4.865 4.868" fill="#fff" stroke="#000" stroke-width=".5"/></g><g transform="translate(480.14 287.76)"><path d="m0 0c1.559-0.039 2.822-1.196 2.942-2.771l3e-3 -107.2c-0.039-1.562-1.195-2.816-2.769-2.941l-63.399-4e-3c-1.556 0.038-2.82 1.194-2.939 2.769l-4e-3 107.2c0.037 1.559 1.195 2.818 2.77 2.94l63.396 5e-3" fill="#006f51" fill-rule="evenodd"/></g><g transform="translate(437.83 274.78)"><path d="m0 0c0.9 1.657 2.632 2.716 4.527 2.738h12.291c1.918 0 3.709-1.101 4.605-2.775l4.909-8.421 3.005 1.751-4.884-8.886-10.141 0.128 3.006 1.751-5.871 10.075c-0.137 0.285-0.434 0.469-0.75 0.469-0.322 0-0.621-0.191-0.76-0.475l-6.812-11.951-9.071 5.165z" fill="#fff" fill-rule="evenodd"/></g><g transform="translate(474.54 248.4)"><path d="m0 0c0.982-1.611 1.023-3.642 0.09-5.291l-6.098-10.482c-0.02-0.035-0.063-0.105-0.082-0.14-0.965-1.657-2.818-2.653-4.715-2.588l-9.746-7e-3 2e-3 -3.478-5.225 8.691 5.209 8.701 4e-3 -3.479 11.66 9e-3c0.315-0.025 0.625 0.138 0.784 0.412 0.162 0.278 0.144 0.634-0.03 0.894l-6.904 11.901 9.025 5.239z" fill="#fff" fill-rule="evenodd"/></g><g transform="translate(433.42 230.25)"><path d="m0 0c-1.886-0.039-3.664 0.941-4.623 2.577l-6.011 10.533c-0.02 0.036-0.059 0.106-0.08 0.141-0.948 1.664-0.883 3.767 0.126 5.375l4.883 8.438-3.013 1.742 10.14 0.162 4.914-8.87-3.009 1.741-5.838-10.093c-0.182-0.259-0.198-0.607-0.041-0.883 0.162-0.281 0.478-0.445 0.791-0.424l13.757 7e-3 8e-3 -10.436z" fill="#fff" fill-rule="evenodd"/></g><g transform="translate(471.89 214.11)"><path d="m0 0v2.492h-1.809v-1.264h0.581v-1.297c0-0.647-0.239-1.057-0.682-1.057-0.445 0-0.684 0.34-0.82 0.99-0.102 0.819-0.17 1.467-0.17 2.798 0 1.332 0.068 1.98 0.205 2.765 0.101 0.649 0.41 0.956 0.853 0.956 0.34 0 0.547-0.204 0.614-0.613h1.228c-0.135 1.193-0.783 1.877-1.877 1.877-0.955 0-1.537-0.377-1.842-1.264-0.341-0.922-0.443-1.774-0.443-3.721 0-1.979 0.102-2.866 0.408-3.755 0.307-0.92 0.887-1.302 1.877-1.302 0.887 0 1.537 0.449 1.742 1.133 0.067 0.306 0.135 0.819 0.135 1.262m-5.973-2.218v9.728h-1.228v-4.848l-1.742 4.848h-1.227v-9.728h1.227v5.767l1.912-5.767zm-6.314 9.728h-1.23v-9.728h1.23zm-2.561-9.728v1.125h-2.492v8.603h-1.23v-9.728zm-5.531 2.286h-1.262c0-0.854-0.205-1.194-0.648-1.194-0.41 0-0.65 0.34-0.787 0.99-0.168 0.819-0.205 1.399-0.205 2.764 0 1.298 0.037 2.014 0.205 2.799 0.137 0.649 0.377 0.956 0.82 0.956 0.342 0 0.58-0.204 0.615-0.613h1.262c-0.101 1.193-0.818 1.877-1.91 1.877-1.162 0-1.742-0.581-2.014-2.083-0.138-0.751-0.24-2.048-0.24-2.936 0-1.569 0.137-2.9 0.408-3.721 0.309-0.887 0.924-1.302 1.912-1.302 0.856 0 1.539 0.449 1.709 1.166 0.102 0.342 0.135 0.546 0.135 1.297m-5.222 7.442h-1.331l-1.263-3.414-1.297 3.414h-1.33l1.976-5.325v-4.403h1.264v4.403zm-6.28-7.442h-1.261c0-0.854-0.209-1.194-0.653-1.194-0.406 0-0.646 0.34-0.783 0.99-0.17 0.819-0.205 1.399-0.205 2.764 0 1.298 0.035 2.014 0.205 2.799 0.137 0.649 0.377 0.956 0.82 0.956 0.34 0 0.578-0.204 0.616-0.613h1.261c-0.103 1.193-0.818 1.877-1.914 1.877-1.16 0-1.74-0.581-2.014-2.083-0.134-0.751-0.236-2.048-0.236-2.936 0-1.569 0.137-2.9 0.408-3.721 0.309-0.887 0.922-1.302 1.912-1.302 0.854 0 1.536 0.449 1.708 1.166 0.101 0.342 0.136 0.546 0.136 1.297m-5.428-2.286v1.262h-2.492v3.414h1.571v1.297h-1.571v2.492h2.356v1.263h-3.584v-9.728zm-6.486 7.031c0-0.921-0.205-1.229-0.887-1.229h-0.82v2.663h0.615c0.852 0 1.092-0.34 1.092-1.434m1.264-0.034c0 1.809-0.787 2.731-2.287 2.731h-1.91v-9.728h1.226v4.539h0.58l1.094-4.539h1.262l-0.989 4.846c0.715 0.444 1.024 1.058 1.024 2.151" fill="#fff" fill-rule="evenodd"/></g><g transform="translate(474.03 197.25)"><path d="m0 0v9.731h-1.229v-4.848l-1.742 4.848h-1.227v-9.731h1.227v5.77l1.914-5.77zm-7.305 4.883c0-0.649 0.137-3.79-0.955-3.79-1.127 0-0.988 3.141-0.988 3.79 0 0.683-0.139 3.72 0.988 3.72 0.922 0 0.955-2.935 0.955-3.72m1.297 0c0 1.638 0.137 4.984-2.252 4.984s-2.254-3.311-2.254-4.984c0-1.605-0.17-5.059 2.254-5.059 2.389 0 2.252 3.454 2.252 5.059m-6.35 4.848h-1.228v-9.731h1.228zm-2.593-1.265v1.265h-3.686v-1.265h1.193v-8.466h1.231v8.466zm-4.747-6.179h-1.261c0-0.852-0.203-1.194-0.647-1.194-0.412 0-0.65 0.342-0.785 0.991-0.172 0.818-0.207 1.399-0.207 2.764 0 1.297 0.035 2.015 0.207 2.799 0.135 0.65 0.373 0.956 0.817 0.956 0.343 0 0.58-0.205 0.615-0.614h1.261c-0.101 1.195-0.816 1.878-1.908 1.878-1.162 0-1.742-0.58-2.015-2.084-0.139-0.751-0.241-2.047-0.241-2.935 0-1.57 0.137-2.901 0.411-3.72 0.308-0.888 0.923-1.304 1.912-1.304 0.853 0 1.537 0.45 1.707 1.167 0.103 0.341 0.134 0.546 0.134 1.296m-5.425-2.287v1.264h-2.491v3.414h1.569v1.298h-1.569v2.49h2.356v1.265h-3.588v-9.731zm-5.053 0v1.128h-2.49v8.603h-1.231v-9.731zm-5.051 0v1.128h-2.492v8.603h-1.23v-9.731zm-6.828 4.883c0-0.649 0.137-3.79-0.955-3.79-1.125 0-0.99 3.141-0.99 3.79 0 0.683-0.135 3.72 0.99 3.72 0.922 0 0.955-2.935 0.955-3.72m1.299 0c0 1.638 0.135 4.984-2.254 4.984-2.391 0-2.254-3.311-2.254-4.984 0-1.605-0.17-5.059 2.254-5.059 2.389 0 2.254 3.454 2.254 5.059m-6.043-2.596h-1.264c0-0.852-0.203-1.194-0.646-1.194-0.412 0-0.651 0.342-0.787 0.991-0.17 0.818-0.203 1.399-0.203 2.764 0 1.297 0.033 2.015 0.203 2.799 0.136 0.65 0.375 0.956 0.818 0.956 0.342 0 0.582-0.205 0.615-0.614h1.264c-0.104 1.195-0.82 1.878-1.91 1.878-1.162 0-1.742-0.58-2.016-2.084-0.137-0.751-0.238-2.047-0.238-2.935 0-1.57 0.135-2.901 0.408-3.72 0.309-0.888 0.922-1.304 1.912-1.304 0.852 0 1.537 0.45 1.707 1.167 0.102 0.341 0.137 0.546 0.137 1.296" fill="#fff" fill-rule="evenodd"/></g><g transform="translate(462.8 189.72)"><path d="m0 0c0-0.923-0.207-1.23-0.886-1.23h-0.823v2.664h0.615c0.854 0 1.094-0.343 1.094-1.434m1.262-0.035c0 1.81-0.785 2.73-2.287 2.73h-1.912v-9.727h1.228v4.539h0.58l1.094-4.539h1.262l-0.988 4.847c0.716 0.444 1.023 1.058 1.023 2.15m-5.734-6.997v1.263h-2.493v3.412h1.571v1.297h-1.571v2.494h2.356v1.261h-3.586v-9.727zm-5.086 8.466v1.261h-3.688v-1.261h1.195v-8.466h1.229v8.466zm-5.02-8.466v9.727h-1.228v-4.846l-1.741 4.846h-1.228v-9.727h1.228v5.769l1.911-5.769zm-5.732 0v1.263h-2.494v3.412h1.57v1.297h-1.57v2.494h2.357v1.261h-3.586v-9.727zm-5.53 2.287h-1.263c0-0.854-0.207-1.196-0.651-1.196-0.41 0-0.646 0.342-0.785 0.99-0.17 0.82-0.203 1.4-0.203 2.766 0 1.298 0.033 2.012 0.203 2.8 0.139 0.647 0.375 0.955 0.82 0.955 0.342 0 0.581-0.206 0.616-0.616h1.263c-0.103 1.197-0.82 1.878-1.914 1.878-1.16 0-1.742-0.58-2.013-2.081-0.137-0.751-0.239-2.049-0.239-2.936 0-1.57 0.135-2.903 0.409-3.72 0.306-0.888 0.921-1.303 1.912-1.303 0.853 0 1.535 0.449 1.707 1.166 0.101 0.34 0.138 0.546 0.138 1.297" fill="#fff" fill-rule="evenodd"/></g></g><text transform="matrix(1 0 0 -1 442 160.18)" fill="#000000" font-family="Helvetica" font-size="9px"><tspan x="0 2.5020001 5.4990001 10.503" y="0">I-11</tspan><tspan x="-11.745 -5.2470002 -0.243 4.257 8.757 13.257 15.255 17.253 22.257" y="9.9989996">Recycling</tspan><tspan x="-91.169998 -88.667999 -85.670998" y="-93.212997">I-5</tspan><tspan x="-99.486 -93.483002 -91.485001 -88.218002 -83.213997 -78.209999 -74.852997" y="-83.213997">Airport</tspan></text><g clip-path="url(#o)"><g transform="translate(332.08 324.53)"><path d="m0 0h48.009c2.86 0 5.198-2.338 5.198-5.195v-48.013c0-2.858-2.338-5.196-5.198-5.196h-48.009c-2.858 0-5.198 2.338-5.198 5.196v48.013c0 2.857 2.34 5.195 5.198 5.195" fill="#fff"/><path d="m0 0h48.009c2.86 0 5.198-2.338 5.198-5.195v-48.013c0-2.858-2.338-5.196-5.198-5.196h-48.009c-2.858 0-5.198 2.338-5.198 5.196v48.013c0 2.857 2.34 5.195 5.198 5.195z" fill="none" stroke="#000" stroke-width=".5"/></g><g transform="translate(332.08 323.23)"><path d="m0 0h48.009c2.147 0 3.901-1.753 3.901-3.897v-48.013c0-2.144-1.754-3.899-3.901-3.899h-48.009c-2.147 0-3.899 1.755-3.899 3.899v48.013c0 2.144 1.752 3.897 3.899 3.897" fill="#006f51" fill-rule="evenodd"/></g><g transform="translate(332.34 288.67)"><path d="m0 0c6.989 4.167 13.975 8.332 20.963 12.499 0 4.916-4e-3 11.364 0 15.457 4e-3 2.014 1.352 3.017 2.723 3.036 1.418 0.019 2.859-1.009 2.869-3.056 0.024-4.032 0-10.463-0.037-15.437 6.965-4.167 13.932-8.332 20.897-12.499v-5.092c-6.965 2.159-13.932 4.32-20.897 6.48v-11.176c1.564-1.279 3.131-2.556 4.695-3.836v-4.099c-2.492 0.728-4.982 1.455-7.474 2.182-2.467-0.749-4.936-1.498-7.405-2.248v4.165c1.543 1.28 3.086 2.557 4.629 3.836v11.176c-6.965-2.182-13.931-4.364-20.896-6.547-0.024 1.719-0.045 3.44-0.067 5.159" fill="#fff" fill-rule="evenodd"/></g></g><text transform="matrix(1 0 0 -1 349.83 160.18)" fill="#000000" font-family="Helvetica" font-size="9px"><tspan x="0 2.5020001 5.4990001" y="0">I-9</tspan><tspan x="-38.997002 -33.714001 -28.709999 -23.705999 -21.708 -17.208 -15.21 -10.206 -7.704 -2.4749999 2.529 5.526 8.7930002 13.293 15.345 19.764 24.768 27.99 35.487 37.485001 42.488998 47.493" y="9.9989996">Vehicle Ferry Terminal</tspan></text><g clip-path="url(#n)"><g transform="translate(384.29 177.77)"><path d="m0 0c0-2.688-2.18-4.867-4.868-4.867h-48.671c-2.69 0-4.868 2.179-4.868 4.867v48.672c0 2.688 2.178 4.867 4.868 4.867h48.671c2.688 0 4.868-2.179 4.868-4.867z" fill="#fff"/><path d="m0 0c0-2.688-2.18-4.867-4.868-4.867h-48.671c-2.69 0-4.868 2.179-4.868 4.867v48.672c0 2.688 2.178 4.867 4.868 4.867h48.671c2.688 0 4.868-2.179 4.868-4.867z" fill="none" stroke="#000" stroke-width=".5"/></g><g transform="translate(327.54 177.87)"><path d="m0 0v48.672c0 1.789 1.455 3.244 3.244 3.244h48.672c1.789 0 3.246-1.455 3.246-3.244v-48.672c0-1.789-1.457-3.245-3.246-3.245h-48.672c-1.789 0-3.244 1.456-3.244 3.245" fill="#006f51"/></g><g transform="translate(330.68 193.47)"><path d="m0 0c0.459-0.214 1.096-0.188 1.508 0.082l1.629 1.071c0.465 0.306 1.223 0.305 1.686-1e-3l1.72-1.136c0.465-0.306 1.219-0.112 1.678 0.202l1.336 0.911c0.459 0.312 1.211 0.313 1.67 1e-3l1.246-0.846c0.459-0.313 1.215-0.507 1.68-0.202l1.628 1.071c0.463 0.306 1.221 0.305 1.686-1e-3l1.721-1.136c0.465-0.306 1.23-0.127 1.701 0.164l1.6 0.987c0.472 0.292 1.234 0.275 1.695-0.037l1.244-0.846c0.461-0.313 1.215-0.507 1.68-0.202l1.629 1.071c0.464 0.306 1.222 0.305 1.685-1e-3l1.274-0.831c0.845-0.556 1.701 0.02 2.203 0.257l1.328 0.628c0.502 0.237 1.289 0.177 1.748-0.135l1.246-0.847c0.459-0.312 1.213-0.47 1.678-0.165l1.629 1.072c0.464 0.305 1.224 0.305 1.687-1e-3l2.27-1.041 5.574 9.465-7.514 0.013-2.099 6.531-3.6 0.031-1.949 4.987h-2.963l0.508-5.433-2.196 0.034-1.881-7.779h-30.361z" fill="#fff"/></g><g transform="translate(380.01 191.18)"><path d="m0 0-1.449-1.162c-0.64-0.485-1.492-0.481-1.957-0.179l-2.662 1.013c-0.488 0.267-1.277 0.258-1.758-0.023l-1.572-0.811c-0.48-0.28-1.254-0.11-1.719 0.193l-1.222 0.685c-0.465 0.302-1.27 0.381-1.784 0.173l-1.281-0.515c-0.516-0.208-1.404-0.893-2.16-0.381l-1.297 0.702c-0.486 0.267-1.277 0.257-1.756-0.023l-1.574-0.919c-0.48-0.28-1.252-0.072-1.719 0.229l-1.222 0.793c-0.465 0.303-1.245 0.33-1.731 0.064l-1.549-0.852c-0.486-0.268-1.283-0.457-1.769-0.19l-1.635 0.898c-0.486 0.267-1.277 0.257-1.758-0.023l-1.572-0.919c-0.479-0.28-1.252-0.072-1.719 0.229l-1.222 0.793c-0.465 0.303-1.237 0.315-1.709 0.027l-1.28-0.778c-0.474-0.289-1.261-0.494-1.748-0.227l-1.637 0.898c-0.486 0.267-1.277 0.257-1.755-0.023l-1.575-0.919c-0.478-0.28-1.252-0.261-1.718 0.041l-2.069 1.343v2.359l2.08-1.414c0.461-0.313 1.215-0.317 1.68-0.013l1.629 1.072c0.465 0.306 1.223 0.306 1.686-1e-3l1.72-1.136c0.465-0.306 1.219-0.112 1.678 0.202l1.336 0.91c0.459 0.314 1.211 0.314 1.67 1e-3l1.246-0.847c0.459-0.311 1.215-0.505 1.68-0.201l1.628 1.072c0.463 0.306 1.221 0.306 1.686-1e-3l1.721-1.136c0.465-0.306 1.23-0.129 1.701 0.164l1.6 0.986c0.472 0.293 1.234 0.276 1.695-0.037l1.244-0.847c0.461-0.311 1.215-0.505 1.68-0.201l1.629 1.072c0.464 0.306 1.222 0.306 1.685-1e-3l1.274-0.832c0.845-0.555 1.701 0.021 2.203 0.258l1.328 0.628c0.502 0.238 1.289 0.176 1.748-0.136l1.246-0.846c0.459-0.313 1.213-0.471 1.678-0.165l1.629 1.072c0.464 0.305 1.224 0.305 1.687-2e-3l2.215-1.009s1.201-0.757 2.269 0.045l1.647 1.469-0.02-2.622" fill="#fff"/></g><g transform="translate(357.58 203.76)"><path d="m0 0s-0.118 3.055-0.309 3.416c-0.102 0.23-0.363 0.339-0.67 0.416 0 0-4.373 0.245-5.201 0.255l-2.77 2.764c-0.595 0.261-8.461 0.595-9.154-0.506l-2.248-2.438-3.937-0.263c-0.526-0.056-0.893-3.653-0.893-3.653l4.549 1e-3v-3e-3c0-0.999 0.81-1.807 1.808-1.807s1.807 0.808 1.807 1.807v5e-3l9.846 4e-3c0-3e-3 -2e-3 -6e-3 -2e-3 -9e-3 0-0.999 0.808-1.807 1.808-1.807 0.998 0 1.809 0.808 1.809 1.807 0 3e-3 -2e-3 7e-3 -2e-3 0.011z" fill="#fff"/></g></g><text transform="matrix(1 0 0 -1 534.74 170.18)" fill="#000000" font-family="Helvetica" font-size="9px"><tspan x="0 2.5020001 5.4990001 10.503" y="0">I-12</tspan><tspan x="-12.249 -7.2449999 -5.2470002 -0.243 4.7610002 7.263 9.7650003 16.263 21.267 23.264999 25.263" y="9.9989996">Light Rail </tspan><tspan x="-20.673 -16.254 -13.347 -8.3430004 -3.339 1.161 3.1589999 5.6609998 8.1630001 14.166 16.667999 21.672001 24.174 26.172001 31.176001" y="19.997999">Transit Station</tspan></text><g clip-path="url(#m)"><g transform="translate(565.7 182.85)"><path d="m0 0-47.446-6e-3c-3.021 0-5.48 2.463-5.48 5.484v47.443c0 3.021 2.459 5.478 5.48 5.478l47.446 5e-3c3.018 0 5.48-2.462 5.48-5.483v-47.443c-5e-3 -2.981-2.5-5.484-5.48-5.478" fill="#fff"/></g></g><g clip-path="url(#l)"><g transform="translate(565.7 182.85)"><path d="m0 0-47.446-6e-3c-3.021 0-5.48 2.463-5.48 5.484v47.443c0 3.021 2.459 5.478 5.48 5.478l47.446 5e-3c3.018 0 5.48-2.462 5.48-5.483v-47.443c-5e-3 -2.981-2.5-5.484-5.48-5.478" fill="none" stroke="#000" stroke-width=".5"/></g></g><g clip-path="url(#k)"><g transform="translate(565.68 184.36)"><path d="m0 0h-47.409c-2.174 6e-3 -3.972 1.807-3.975 3.98v47.405c0 2.176 1.804 3.971 3.978 3.98l47.404-6e-3c2.176-3e-3 3.975-1.798 3.977-3.974l3e-3 -47.405c-9e-3 -2.173-1.804-3.98-3.978-3.98" fill="#006f51" fill-rule="evenodd"/></g><g transform="translate(546.76 219.92)"><path d="m0 0c0.022 0.567 0.045 1.134 0.068 1.701 6.811 3.975 13.622 7.946 20.433 11.921v-39.913h-17.505c-0.044 2.247-0.091 4.496-0.134 6.743h-6.677c-0.046 0.521-0.089 1.042-0.135 1.566h7.833c-0.025 1.544-0.047 3.088-0.068 4.633-0.031 0.278-0.106 0.535-0.478 0.61 0 1.385-0.018 3.016 0 4.155 0.019 1.142 0.513 1.353 1.431 1.364 0.918 8e-3 1.412-0.222 1.432-1.364 0.015-1.139 0-2.735 0-4.053-0.309 0.012-0.471-0.375-0.436-0.704-0.045-1.658-0.066-2.984-0.109-4.641h4.835v17.912c-3.497 0.024-6.994 0.046-10.49 0.07" fill="#fff" fill-rule="evenodd"/></g><g transform="translate(551.6 214.91)"><path d="m0 0c0.492 0 0.891-0.402 0.891-0.89 0-0.492-0.399-0.892-0.891-0.892-0.491 0-0.89 0.4-0.89 0.892 0 0.488 0.399 0.89 0.89 0.89" fill="#fff" fill-rule="evenodd"/></g><g transform="translate(541.2 199.44)"><path d="m0 0-0.022 2.503-0.384 0.54 0.47 3.909-1.431 10.966c-0.092 0.72-0.27 1.441-0.712 2.035-0.257 0.341-0.583 0.646-0.951 0.867-0.287 0.173-0.607 0.272-0.945 0.272h-6.766c0.581 0.225 0.971 0.641 0.971 1.113 0 0.119-0.026 0.238-0.075 0.348h4.683v-0.381c0-0.207 0.171-0.38 0.384-0.38h0.179c0.211 0 0.384 0.173 0.384 0.38v0.381h0.011v1.01h-14.98v-1.01h5e-3v-0.381c0-0.207 0.173-0.38 0.384-0.38h0.178c0.212 0 0.386 0.173 0.386 0.38v0.381h4.582c-0.049-0.11-0.073-0.229-0.073-0.348 0-0.472 0.392-0.888 0.972-1.113h-5.092c-0.6 0-1.215-2e-3 -1.796-0.167-0.583-0.165-1.099-0.491-1.525-0.915-0.459-0.451-0.8-1.015-0.883-1.658l-1.402-10.914 0.497-4.45-0.329-0.461-0.011-2.527h4.631l-0.411-0.692h-1.436l-0.765-1.46h1.405l-0.616-1.083h-1.404l-0.848-1.579h1.414l-0.725-1.334h-1.412l-1.048-1.782h1.502l-0.53-0.945 1.396-0.011 0.575 0.956h19.637l0.535-0.956 1.436 0.011-0.489 0.945h1.337l-0.923 1.782h-1.412l-0.726 1.334h1.39l-0.807 1.579h-1.501l-0.535 1.083h1.418l-0.843 1.46h-1.369l-0.446 0.692h4.925zm-6.19-0.011 0.371-0.681h-11.851l0.402 0.681z" fill="#fff" fill-rule="evenodd"/></g><path d="m520.09 202.15h19.036v-0.681h-19.036z" fill="#006f51" fill-rule="evenodd"/><path d="m523.69 219.94h11.496v-2.622h-11.496z" fill="#006f51" fill-rule="evenodd"/><g transform="translate(530.3 216.63)"><path d="m0 0 8.768-0.572 0.736-7.132h-9.504z" fill="#006f51" fill-rule="evenodd"/></g><g transform="translate(519.24 208.92)"><path d="M 0,0 0.818,7.048 9.343,7.734 V 0 Z" fill="#006f51" fill-rule="evenodd"/></g><g transform="translate(521.84 204.12)"><path d="m0 0c-0.127-0.226-0.297-0.405-0.549-0.502-0.443-0.17-0.942-0.016-1.212 0.375-0.236 0.341-0.236 0.797 3e-3 1.14 0.267 0.383 0.771 0.537 1.209 0.37 0.254-0.095 0.422-0.278 0.549-0.508 0.124 0.23 0.293 0.413 0.542 0.511 0.438 0.164 0.945 5e-3 1.209-0.373 0.241-0.343 0.244-0.794 6e-3 -1.14-0.261-0.383-0.775-0.548-1.215-0.38-0.249 0.097-0.416 0.281-0.542 0.507" fill="#006f51" fill-rule="evenodd"/></g><g transform="translate(537.18 204.15)"><path d="m0 0c-0.125-0.229-0.292-0.418-0.546-0.513-0.431-0.162-0.944-0.016-1.206 0.367-0.241 0.346-0.244 0.792-0.012 1.143 0.262 0.394 0.778 0.55 1.218 0.378 0.259-0.101 0.413-0.27 0.546-0.503 0.124 0.227 0.294 0.408 0.543 0.505 0.438 0.173 0.953 3e-3 1.215-0.38 0.193-0.289 0.237-0.64 0.094-0.959-0.202-0.456-0.661-0.675-1.145-0.597-0.338 0.054-0.556 0.273-0.707 0.559" fill="#006f51" fill-rule="evenodd"/></g><g transform="translate(529.48 221.82)"><path d="m0 0c0.315 0 0.574-0.151 0.574-0.338 0-0.188-0.259-0.34-0.574-0.34-0.316 0-0.576 0.152-0.576 0.34 0 0.187 0.26 0.338 0.576 0.338" fill="#006f51" fill-rule="evenodd"/></g><g transform="translate(537.59 194.54)"><path d="m0 0h-16.261l-0.721-1.342h17.703z" fill="#006f51" fill-rule="evenodd"/></g><g transform="translate(536.14 197.22)"><path d="m0 0h-13.37l-0.613-1.05h14.556z" fill="#006f51" fill-rule="evenodd"/></g></g><text transform="matrix(1 0 0 -1 82.742 45.275)" fill="#000000" font-family="Helvetica" font-size="9px"><tspan x="0 7.4970002 12.501 15.498" y="0">M5-1</tspan></text><g clip-path="url(#j)"><g transform="translate(72.308 94.507)"><path d="m0 0h41.371c2.68 0 4.866-2.186 4.866-4.867v-26.769c0-2.681-2.186-4.868-4.866-4.868h-41.371c-2.682 0-4.868 2.187-4.868 4.868v26.769c0 2.681 2.186 4.867 4.868 4.867" fill="#fff"/></g></g><g clip-path="url(#i)"><g transform="translate(72.308 94.507)"><path d="m0 0h41.371c2.68 0 4.866-2.186 4.866-4.867v-26.769c0-2.681-2.186-4.868-4.866-4.868h-41.371c-2.682 0-4.868 2.187-4.868 4.868v26.769c0 2.681 2.186 4.867 4.868 4.867z" fill="none" stroke="#000" stroke-miterlimit="10" stroke-width=".5"/></g></g><g clip-path="url(#h)"><g transform="translate(113.67 93.534)"><path d="m0 0c0.204-6e-3 0.399-0.02 0.603-0.046 0.192-0.035 0.374-0.076 0.562-0.13 0.183-0.062 0.354-0.129 0.53-0.21 0.169-0.086 0.327-0.178 0.49-0.281 0.154-0.11 0.297-0.222 0.441-0.347 0.232-0.222 0.426-0.446 0.612-0.708 0.105-0.16 0.195-0.319 0.282-0.489 0.08-0.174 0.148-0.345 0.209-0.528 0.053-0.189 0.096-0.37 0.131-0.564 0.025-0.204 0.038-0.397 0.044-0.603l-6e-3 -26.958c-0.013-0.199-0.038-0.387-0.073-0.583-0.044-0.19-0.096-0.368-0.157-0.552-0.07-0.178-0.145-0.345-0.233-0.516-0.096-0.166-0.195-0.319-0.305-0.473-0.118-0.15-0.238-0.288-0.368-0.427-0.235-0.221-0.465-0.403-0.737-0.577-0.165-0.097-0.329-0.18-0.503-0.259-0.179-0.072-0.354-0.13-0.54-0.183-0.192-0.046-0.377-0.077-0.574-0.102l-0.408-0.021-41.561 5e-3c-0.199 0.016-0.386 0.039-0.582 0.074-0.19 0.044-0.368 0.095-0.553 0.156-0.178 0.071-0.345 0.147-0.516 0.235-0.165 0.095-0.318 0.193-0.474 0.305-0.149 0.117-0.286 0.237-0.425 0.367-0.222 0.235-0.404 0.465-0.577 0.736-0.097 0.168-0.18 0.329-0.259 0.503-0.071 0.18-0.131 0.356-0.184 0.541-0.045 0.194-0.077 0.378-0.101 0.574l-0.022 0.41 6e-3 26.957c0.016 0.199 0.038 0.386 0.073 0.583 0.044 0.188 0.096 0.368 0.159 0.551 0.071 0.18 0.146 0.347 0.233 0.518 0.095 0.165 0.193 0.318 0.304 0.473 0.118 0.15 0.238 0.287 0.368 0.424 0.234 0.224 0.465 0.406 0.737 0.58 0.166 0.095 0.328 0.179 0.502 0.259 0.182 0.07 0.355 0.13 0.542 0.183 0.192 0.044 0.377 0.077 0.572 0.102l0.41 0.021z" fill="#006f51" fill-rule="evenodd"/></g><g transform="translate(99.807 78.195)"><path d="m0 0c0.535 7e-3 0.974-0.431 0.974-0.966v-13.434h6.327v19.275c0 0.803-0.656 1.459-1.46 1.459v-7e-3l-17.459-9e-3 1.064 3.544c0.113 0.438 0.155 0.806-0.086 1.162-0.361 0.532-1.092 0.671-1.623 0.31l-12.073-8.181 12.073-8.166c0.531-0.361 1.262-0.222 1.623 0.309 0.253 0.372 0.198 0.729 0.062 1.21l-1.04 3.487z" fill="#fff" fill-rule="evenodd"/></g></g><text transform="matrix(1 0 0 -1 162.36 45.275)" fill="#000000" font-family="Helvetica" font-size="9px"><tspan x="0 7.4970002 12.501 15.498" y="0">M5-2</tspan></text><g clip-path="url(#g)"><g transform="translate(151.92 94.507)"><path d="m0 0h41.371c2.682 0 4.869-2.186 4.869-4.867v-26.769c0-2.681-2.187-4.868-4.869-4.868h-41.371c-2.68 0-4.866 2.187-4.866 4.868v26.769c0 2.681 2.186 4.867 4.866 4.867" fill="#fff"/><path d="m0 0h41.371c2.682 0 4.869-2.186 4.869-4.867v-26.769c0-2.681-2.187-4.868-4.869-4.868h-41.371c-2.68 0-4.866 2.187-4.866 4.868v26.769c0 2.681 2.186 4.867 4.866 4.867z" fill="none" stroke="#000" stroke-miterlimit="10" stroke-width=".5"/></g><g transform="translate(193.28 93.534)"><path d="m0 0c0.206-6e-3 0.401-0.02 0.603-0.046 0.194-0.035 0.375-0.077 0.564-0.13 0.182-0.062 0.353-0.13 0.529-0.21 0.17-0.086 0.328-0.178 0.488-0.281 0.155-0.11 0.299-0.222 0.444-0.347 0.232-0.224 0.425-0.446 0.612-0.708 0.103-0.16 0.194-0.319 0.282-0.489 0.079-0.176 0.146-0.347 0.208-0.528 0.054-0.189 0.097-0.37 0.13-0.564 0.026-0.204 0.04-0.397 0.046-0.603l-6e-3 -26.958c-0.015-0.199-0.038-0.387-0.073-0.583-0.044-0.19-0.096-0.368-0.157-0.552-0.071-0.178-0.146-0.345-0.235-0.516-0.094-0.166-0.193-0.319-0.303-0.475-0.119-0.148-0.239-0.288-0.369-0.425-0.234-0.221-0.464-0.405-0.736-0.579-0.167-0.095-0.329-0.178-0.503-0.257-0.179-0.072-0.355-0.13-0.541-0.183-0.193-0.046-0.378-0.079-0.573-0.104l-0.41-0.019-41.559 5e-3c-0.199 0.014-0.387 0.039-0.583 0.074-0.189 0.044-0.367 0.095-0.553 0.156-0.177 0.071-0.344 0.147-0.515 0.235-0.165 0.095-0.319 0.193-0.474 0.305-0.149 0.117-0.288 0.237-0.426 0.367-0.221 0.235-0.405 0.465-0.579 0.736-0.094 0.168-0.177 0.329-0.257 0.503-0.072 0.18-0.13 0.356-0.183 0.541-0.046 0.192-0.077 0.377-0.104 0.574l-0.019 0.41 6e-3 26.957c0.013 0.198 0.038 0.386 0.073 0.583 0.044 0.188 0.096 0.368 0.157 0.551 0.07 0.18 0.146 0.345 0.233 0.516 0.096 0.165 0.195 0.32 0.305 0.475 0.118 0.15 0.238 0.287 0.368 0.424 0.235 0.224 0.465 0.406 0.737 0.58 0.165 0.095 0.329 0.179 0.503 0.259 0.179 0.07 0.355 0.13 0.541 0.183 0.191 0.044 0.378 0.077 0.573 0.102l0.41 0.021z" fill="#006f51" fill-rule="evenodd"/></g><g transform="translate(174.95 72.858)"><path d="m0 0-5.329 4.452-1.443-3.342c-0.205-0.456-0.391-0.765-0.823-0.888-0.62-0.177-1.268 0.186-1.443 0.804l-4.016 14.013 14.509-1.479c0.639-0.063 1.109-0.637 1.046-1.278-0.044-0.428-0.314-0.681-0.68-0.947l-3.091-2.033 7.468-6.252c0.32-0.269 0.514-0.69 0.514-1.112l-0.011-11.969-6.317-4e-3v9.26c0 0.299-0.149 0.597-0.384 0.775" fill="#fff" fill-rule="evenodd"/></g></g><text transform="matrix(1 0 0 -1 241.97 45.275)" fill="#000000" font-family="Helvetica" font-size="9px"><tspan x="0 7.4970002 12.501 15.498" y="0">M6-1</tspan></text><g clip-path="url(#f)"><g transform="translate(231.54 94.507)"><path d="m0 0h41.371c2.68 0 4.866-2.186 4.866-4.866v-26.77c0-2.681-2.186-4.867-4.866-4.867h-41.371c-2.681 0-4.867 2.186-4.867 4.867v26.77c0 2.68 2.186 4.866 4.867 4.866" fill="#fff"/><path d="m0 0h41.371c2.68 0 4.866-2.186 4.866-4.866v-26.77c0-2.681-2.186-4.867-4.866-4.867h-41.371c-2.681 0-4.867 2.186-4.867 4.867v26.77c0 2.68 2.186 4.866 4.867 4.866z" fill="none" stroke="#000" stroke-miterlimit="10" stroke-width=".5"/></g><g transform="translate(272.9 93.534)"><path d="m0 0c0.206-5e-3 0.401-0.02 0.604-0.044 0.193-0.035 0.375-0.077 0.563-0.131 0.183-0.062 0.353-0.13 0.53-0.209 0.169-0.088 0.327-0.178 0.488-0.281 0.155-0.112 0.299-0.224 0.443-0.349 0.232-0.222 0.426-0.444 0.613-0.706 0.103-0.162 0.193-0.32 0.281-0.489 0.08-0.177 0.147-0.347 0.209-0.53 0.054-0.187 0.096-0.371 0.13-0.562 0.027-0.204 0.041-0.399 0.045-0.604l-5e-3 -26.958c-0.015-0.198-0.039-0.386-0.074-0.584-0.044-0.188-0.095-0.368-0.157-0.55-0.07-0.178-0.146-0.346-0.234-0.516-0.095-0.166-0.194-0.319-0.305-0.475-0.117-0.15-0.236-0.288-0.367-0.425-0.235-0.224-0.465-0.405-0.736-0.579-0.167-0.095-0.329-0.18-0.504-0.259-0.179-0.071-0.355-0.13-0.54-0.183-0.193-0.044-0.378-0.078-0.573-0.102l-0.411-0.021-41.559 5e-3c-0.198 0.016-0.387 0.04-0.582 0.076-0.19 0.044-0.368 0.093-0.552 0.156-0.179 0.071-0.346 0.147-0.516 0.235-0.166 0.095-0.319 0.193-0.474 0.305-0.15 0.116-0.288 0.235-0.425 0.367-0.223 0.232-0.405 0.465-0.58 0.736-0.095 0.165-0.178 0.329-0.257 0.503-0.072 0.18-0.131 0.354-0.183 0.541-0.045 0.191-0.078 0.377-0.103 0.572l-0.021 0.41 5e-3 26.957c0.016 0.2 0.039 0.388 0.075 0.583 0.044 0.19 0.094 0.368 0.157 0.553 0.07 0.178 0.146 0.345 0.233 0.516 0.096 0.165 0.194 0.318 0.305 0.475 0.118 0.148 0.237 0.287 0.369 0.424 0.233 0.222 0.464 0.405 0.735 0.579 0.166 0.095 0.329 0.178 0.503 0.257 0.181 0.072 0.356 0.131 0.541 0.184 0.192 0.046 0.378 0.079 0.574 0.103l0.41 0.02z" fill="#006f51" fill-rule="evenodd"/></g><g transform="translate(258.5 84.384)"><path d="m0 0 12.025-8.132-12.025-8.148c-0.529-0.36-1.255-0.222-1.616 0.309-0.24 0.353-0.197 0.719-0.086 1.156l1.061 3.53h-22.171v6.299h22.171l-1.037 3.473c-0.134 0.48-0.19 0.836 0.062 1.206 0.361 0.53 1.087 0.669 1.616 0.307" fill="#fff" fill-rule="evenodd"/></g></g><text transform="matrix(1 0 0 -1 321.59 45.275)" fill="#000000" font-family="Helvetica" font-size="9px"><tspan x="0 7.4970002 12.501 15.498" y="0">M6-2</tspan></text><g clip-path="url(#e)"><g transform="translate(311.16 94.507)"><path d="m0 0h41.37c2.682 0 4.867-2.186 4.867-4.868v-26.768c0-2.681-2.185-4.867-4.867-4.867h-41.37c-2.681 0-4.867 2.186-4.867 4.867v26.768c0 2.682 2.186 4.868 4.867 4.868" fill="#fff"/><path d="m0 0h41.37c2.682 0 4.867-2.186 4.867-4.868v-26.768c0-2.681-2.185-4.867-4.867-4.867h-41.37c-2.681 0-4.867 2.186-4.867 4.867v26.768c0 2.682 2.186 4.868 4.867 4.868z" fill="none" stroke="#000" stroke-miterlimit="10" stroke-width=".5"/></g><g transform="translate(352.51 93.534)"><path d="m0 0c0.207-5e-3 0.403-0.02 0.608-0.046 0.191-0.035 0.373-0.075 0.56-0.13 0.184-0.062 0.354-0.131 0.53-0.21 0.169-0.086 0.328-0.178 0.49-0.281 0.154-0.11 0.297-0.222 0.441-0.347 0.233-0.224 0.426-0.445 0.613-0.708 0.102-0.16 0.194-0.318 0.282-0.489 0.08-0.175 0.146-0.347 0.209-0.528 0.052-0.189 0.095-0.371 0.129-0.564 0.027-0.204 0.041-0.397 0.046-0.603l-5e-3 -26.957c-0.014-0.2-0.039-0.388-0.075-0.584-0.045-0.19-0.095-0.368-0.156-0.552-0.07-0.178-0.146-0.345-0.234-0.516-0.096-0.166-0.194-0.319-0.305-0.473-0.117-0.15-0.238-0.29-0.367-0.426-0.235-0.223-0.465-0.406-0.736-0.58-0.168-0.095-0.331-0.178-0.504-0.257-0.18-0.072-0.356-0.13-0.541-0.183-0.192-0.046-0.377-0.078-0.575-0.104l-0.41-0.019-41.556 5e-3c-0.199 0.014-0.387 0.039-0.582 0.074-0.19 0.044-0.369 0.095-0.553 0.156-0.178 0.071-0.345 0.147-0.516 0.235-0.166 0.095-0.319 0.193-0.474 0.305-0.15 0.118-0.288 0.237-0.426 0.368-0.221 0.233-0.403 0.464-0.578 0.735-0.096 0.167-0.18 0.329-0.258 0.504-0.071 0.179-0.13 0.355-0.184 0.54-0.044 0.192-0.077 0.379-0.102 0.574l-0.021 0.41 6e-3 26.957c0.015 0.198 0.039 0.386 0.074 0.583 0.044 0.189 0.095 0.368 0.157 0.551 0.071 0.18 0.147 0.345 0.234 0.516 0.095 0.165 0.194 0.32 0.304 0.475 0.118 0.15 0.237 0.288 0.368 0.424 0.235 0.224 0.466 0.406 0.737 0.579 0.166 0.096 0.328 0.18 0.503 0.259 0.18 0.07 0.355 0.131 0.541 0.184 0.192 0.044 0.377 0.077 0.572 0.101l0.41 0.022z" fill="#006f51" fill-rule="evenodd"/></g><g transform="translate(331.27 86.869)"><path d="m0 0 14.401 1.836-3.648-14.059c-0.16-0.621-0.795-0.996-1.416-0.836-0.414 0.106-0.625 0.41-0.83 0.812l-1.534 3.349-16.645-14.642-4.162 4.73 16.645 14.643-3.071 1.923c-0.418 0.272-0.695 0.503-0.75 0.946-0.08 0.636 0.374 1.219 1.01 1.298" fill="#fff" fill-rule="evenodd"/></g></g><text transform="matrix(1 0 0 -1 401.21 45.275)" fill="#000000" font-family="Helvetica" font-size="9px"><tspan x="0 7.4970002 12.501 15.498" y="0">M6-3</tspan></text><g clip-path="url(#d)"><g transform="translate(390.77 94.507)"><path d="m0 0h41.371c2.682 0 4.867-2.186 4.867-4.868v-26.768c0-2.681-2.185-4.867-4.867-4.867h-41.371c-2.682 0-4.869 2.186-4.869 4.867v26.768c0 2.682 2.187 4.868 4.869 4.868" fill="#fff"/><path d="m0 0h41.371c2.682 0 4.867-2.186 4.867-4.868v-26.768c0-2.681-2.185-4.867-4.867-4.867h-41.371c-2.682 0-4.869 2.186-4.869 4.867v26.768c0 2.682 2.187 4.868 4.869 4.868z" fill="none" stroke="#000" stroke-miterlimit="10" stroke-width=".5"/></g><g transform="translate(432.13 93.534)"><path d="m0 0c0.205-5e-3 0.399-0.02 0.604-0.044 0.193-0.035 0.375-0.077 0.562-0.131 0.182-0.063 0.354-0.13 0.53-0.209 0.17-0.088 0.328-0.178 0.488-0.281 0.154-0.112 0.299-0.224 0.441-0.349 0.235-0.222 0.426-0.444 0.614-0.708 0.103-0.16 0.195-0.318 0.281-0.487 0.082-0.177 0.148-0.347 0.209-0.53 0.055-0.189 0.096-0.371 0.131-0.562 0.027-0.204 0.041-0.399 0.047-0.605l-6e-3 -26.957c-0.016-0.198-0.039-0.386-0.074-0.584-0.043-0.188-0.096-0.366-0.159-0.55-0.07-0.18-0.146-0.346-0.234-0.516-0.096-0.166-0.193-0.321-0.303-0.475-0.117-0.15-0.238-0.288-0.369-0.425-0.232-0.224-0.465-0.405-0.736-0.579-0.166-0.095-0.328-0.18-0.504-0.259-0.18-0.071-0.354-0.13-0.539-0.183-0.194-0.044-0.377-0.078-0.572-0.102l-0.411-0.021-41.56 5e-3c-0.197 0.016-0.387 0.04-0.582 0.074-0.19 0.044-0.367 0.095-0.553 0.158-0.178 0.071-0.344 0.147-0.516 0.235-0.166 0.095-0.318 0.193-0.474 0.305-0.151 0.116-0.287 0.235-0.424 0.367-0.223 0.232-0.406 0.465-0.58 0.736-0.096 0.165-0.18 0.329-0.258 0.503-0.07 0.18-0.131 0.354-0.183 0.541-0.045 0.191-0.079 0.377-0.102 0.572l-0.022 0.41 4e-3 26.957c0.018 0.2 0.041 0.388 0.077 0.583 0.044 0.19 0.093 0.368 0.156 0.553 0.07 0.178 0.146 0.345 0.234 0.516 0.096 0.165 0.194 0.318 0.305 0.473 0.119 0.15 0.236 0.289 0.369 0.426 0.232 0.222 0.465 0.405 0.734 0.579 0.166 0.095 0.33 0.178 0.504 0.257 0.18 0.072 0.354 0.131 0.541 0.184 0.192 0.046 0.377 0.077 0.573 0.103l0.41 0.02z" fill="#006f51" fill-rule="evenodd"/></g><g transform="translate(403.35 76.22)"><path d="m0 0 8.137 12.024 8.142-12.028c0.362-0.529 0.223-1.256-0.306-1.616-0.356-0.241-0.721-0.197-1.158-0.086l-3.53 1.062-6e-3 -11.276-6.3 2e-3 6e-3 11.276-3.473-1.035c-0.479-0.134-0.834-0.191-1.205 0.061-0.529 0.36-0.668 1.088-0.307 1.616" fill="#fff" fill-rule="evenodd"/></g></g><text transform="matrix(1 0 0 -1 526.31 85.661)" fill="#000000" font-family="Helvetica" font-size="9px"><tspan x="0 6.0029998 10.503 15.507 23.004 28.007999 30.006001 35.009998 37.512001 42.515999" y="0">Example of</tspan><tspan x="2.007 7.0110002 9.0089998 12.006 17.01 21.51 24.011999 26.01 31.014 36.018002 41.021999" y="9.5039997">directional</tspan><tspan x="3.5999999 8.6040001 13.104 17.604 22.608 30.105 34.929001 36.926998" y="19.007999">assembly</tspan></text><g clip-path="url(#c)"><g transform="translate(515.41 79.754)"><path d="m0 0h-41.372c-2.68 0-4.866-2.187-4.866-4.868v-26.769c0-2.681 2.186-4.867 4.866-4.867h41.372c2.681 0 4.867 2.186 4.867 4.867v26.769c0 2.681-2.186 4.868-4.867 4.868" fill="#fff"/></g></g><g clip-path="url(#b)"><g transform="translate(515.41 79.754)"><path d="m0 0h-41.372c-2.68 0-4.866-2.187-4.866-4.868v-26.769c0-2.681 2.186-4.867 4.866-4.867h41.372c2.681 0 4.867 2.186 4.867 4.867v26.769c0 2.681-2.186 4.868-4.867 4.868z" fill="none" stroke="#000" stroke-miterlimit="10" stroke-width=".5"/></g></g><g clip-path="url(#a)"><g transform="translate(474.05 78.78)"><path d="m0 0c-0.203-5e-3 -0.398-0.02-0.603-0.045-0.192-0.035-0.373-0.076-0.561-0.131-0.183-0.061-0.353-0.129-0.531-0.209-0.168-0.086-0.326-0.178-0.488-0.281-0.154-0.11-0.297-0.223-0.442-0.348-0.232-0.221-0.425-0.445-0.613-0.707-0.103-0.16-0.193-0.319-0.281-0.49-0.08-0.174-0.149-0.345-0.209-0.527-0.053-0.19-0.096-0.371-0.131-0.565-0.025-0.203-0.039-0.396-0.045-0.603l6e-3 -26.957c0.014-0.199 0.039-0.388 0.074-0.583 0.043-0.19 0.096-0.368 0.156-0.553 0.071-0.178 0.147-0.345 0.235-0.516 0.096-0.166 0.193-0.318 0.304-0.472 0.118-0.151 0.239-0.288 0.368-0.427 0.234-0.222 0.465-0.404 0.736-0.577 0.166-0.098 0.33-0.18 0.504-0.259 0.18-0.072 0.353-0.13 0.541-0.183 0.191-0.047 0.375-0.078 0.572-0.103l0.408-0.021 41.562 5e-3c0.199 0.016 0.387 0.039 0.582 0.074 0.189 0.045 0.367 0.096 0.553 0.157 0.177 0.071 0.345 0.146 0.515 0.234 0.166 0.096 0.319 0.193 0.475 0.305 0.148 0.118 0.285 0.238 0.426 0.368 0.22 0.234 0.402 0.465 0.576 0.735 0.098 0.168 0.18 0.33 0.26 0.504 0.07 0.18 0.131 0.356 0.183 0.541 0.045 0.193 0.076 0.378 0.102 0.573l0.021 0.41-6e-3 26.958c-0.015 0.199-0.039 0.386-0.074 0.583-0.043 0.188-0.095 0.368-0.158 0.551-0.07 0.18-0.146 0.346-0.232 0.518-0.096 0.165-0.194 0.318-0.305 0.473-0.117 0.15-0.238 0.287-0.367 0.423-0.235 0.225-0.465 0.407-0.739 0.58-0.166 0.095-0.328 0.18-0.502 0.259-0.181 0.071-0.355 0.13-0.541 0.183-0.193 0.045-0.376 0.078-0.572 0.102l-0.41 0.021z" fill="#006f51" fill-rule="evenodd"/></g><g transform="translate(487.91 63.442)"><path d="m0 0c-0.535 7e-3 -0.975-0.432-0.975-0.967v-13.433h-6.326v19.275c0 0.803 0.654 1.459 1.459 1.459v-8e-3l17.46-8e-3 -1.065 3.543c-0.113 0.439-0.156 0.807 0.086 1.162 0.362 0.532 1.092 0.671 1.623 0.311l12.073-8.182-12.073-8.166c-0.531-0.36-1.261-0.221-1.623 0.31-0.254 0.371-0.197 0.728-0.062 1.209l1.041 3.487z" fill="#fff" fill-rule="evenodd"/></g></g><text transform="matrix(1 0 0 -1 72.443 100.77)" fill="#000000" font-family="Helvetica" font-size="9px"><tspan x="0 6.0029998 11.007 15.282 20.285999 25.290001 29.790001 34.793999 36.846001 41.264999 46.269001 49.491001 54.494999 56.997002 62.000999 67.004997 72.009003 74.511002 81.009003 83.007004 86.003998 91.008003 95.508003 98.010002 100.008 105.012 110.016 115.02 117.018 119.52 125.523 128.52 131.517 136.386 142.884 145.386 151.119 156.123 160.623 162.621 164.619 166.617 171.621 174.888 179.388 181.89 187.89301 189.89101 194.895 199.899 204.399 206.901 209.133 214.13699 217.134 219.636 224.64 229.14 234.144 236.646 243.144 245.142 247.644 252.64799 255.14999 262.15201 267.15601 272.16 277.164 280.16101 285.16501 287.16299 289.66501 292.16699 297.17099 299.31299 304.31699 307.539 315.03601 320.04001 322.54199 324.54001 329.54401 334.548 337.04999 343.05301 345.05099 350.05499 355.05899" y="0">Advance Turn and Directional Arrow Auxiliary Signs for use with General Information Signs</tspan></text></g></svg>
