<?xml version="1.0" encoding="UTF-8"?>
<svg width="638.35" height="780.86" version="1.1" viewBox="0 0 638.35 780.86" xml:space="preserve" xmlns="http://www.w3.org/2000/svg"><defs><clipPath id="g"><path d="m0 792h612v-792h-612z"/></clipPath><clipPath id="f"><path d="m63 110.78h513.13v626.47h-513.13z"/></clipPath><clipPath id="e"><path d="m63 110.78h513.13v626.47h-513.13z"/></clipPath><clipPath id="d"><path d="m63 110.78h513.13v626.47h-513.13z"/></clipPath><clipPath id="c"><path d="m63 110.78h513.13v626.47h-513.13z"/></clipPath><clipPath id="b"><path d="m63 110.78h513.13v626.47h-513.13z"/></clipPath><clipPath id="a"><path d="m63 110.78h513.13v626.47h-513.13z"/></clipPath></defs><g transform="matrix(1.3333 0 0 -1.3333 -109.11 931.12)"><g clip-path="url(#g)"/><text transform="matrix(1 0 0 -1 93.337 254.7)" fill="#000000" font-family="Helvetica" font-size="9px"><tspan x="0 5.2290001 10.233 13.23 15.732 20.736 25.236 29.736 34.740002 39.240002 43.740002 46.737 49.734001 54.737999 59.237999 61.740002 64.872002 66.870003 71.370003 73.872002 78.875999 83.879997 86.382004 88.613998 93.617996 98.117996 100.116 102.114 104.112 106.614 108.612 113.616" y="0">For access-restricted facilities</tspan></text><g transform="translate(89.69 257.49)"><path d="m0 0-2.35-0.717 1.544-2.172-1.41-0.984-1.521 2.037-1.544-2.037-1.41 0.984 1.521 2.172-2.327 0.717 0.515 1.633 2.282-0.76v2.662h1.902v-2.662l2.261 0.76z"/></g><text transform="matrix(1 0 0 -1 81.562 455.72)" fill="#000000" font-family="Helvetica" font-size="9px"><tspan x="0 6.4980001 11.502 14.004 19.007999 23.507999" y="0">Notes:</tspan><tspan x="0 5.0040002 6.9660001 11.97 17.973 22.976999 27.981001 30.483 36.980999 41.985001 46.988998 51.993 54.494999 59.499001 62.495998 64.998001 70.001999 76.5 79.001999 81.234001 86.237999 89.235001 91.737 96.740997 101.565 105.84 110.844 118.341 123.345 128.349 130.851" y="12.996">1. See Chapter 3D for pavement </tspan><tspan x="11.997 19.493999 24.497999 27.629999 32.130001 34.127998 39.132 44.136002" y="22.995001">markings</tspan><tspan x="0 5.0040002 6.9660001 11.97 17.973 19.971001 24.975 29.979 32.480999 34.479 39.483002 43.983002 48.987 51.488998 53.487 58.491001 63.494999 67.995003 70.497002 75.500999 78.498001 83.501999 86.003998 91.008003 96.012001 101.016 104.013 108.747 113.247 115.245 122.742 127.746 130.248" y="35.991001">2. Sign locations are approximate</tspan><tspan x="0 5.0040002 6.9660001 11.52 17.018999 22.023001 27.027 29.528999 37.026001 42.029999 47.034 52.037998 57.042 62.046001 67.050003 69.552002 71.550003 76.554001 81.557999 86.561996 89.064003 93.564003 98.568001 103.572 105.57 110.574 113.076 118.08 123.084" y="48.987">5. The managed lane could be </tspan><tspan x="11.997 17.000999 22.004999 25.002001 28.134001 30.132 35.136002 38.132999 41.130001 45.630001 50.633999 55.638 60.641998 63.639 68.642998 71.144997 76.149002 81.153 83.654999 86.156998 90.890999 95.894997 98.397003 100.629 105.633 108.63 111.627 116.127 121.131 126.135 131.13901 134.136 139.14 141.642 146.646 151.64999 154.15199" y="58.986">barrier-separated, buffer-separated, </tspan><tspan x="11.988 16.992001 19.989 22.490999 26.990999 31.995001 36.999001 39.500999 41.499001 46.502998 51.507 56.511002 61.514999" y="68.985001">or contiguous</tspan></text><g clip-path="url(#f)"><g transform="translate(364.05 131.64)"><path d="m0 0v548.29m-176.72-55.8-0.016-0.033c109.04-35.208 138.38-120.88 144.91-173.84l5e-3 -2.157v-316.31m0 548.14v-130.38c-13.161 23.315-49.125 76.338-132.72 104.52-0.062 0.02-1.212 0.429-3.181 1.023l-0.124-0.303" fill="none" stroke="#000" stroke-miterlimit="7" stroke-width="4"/></g><g transform="translate(332.23 549.55)"><path d="m0 0c-13.161 23.315-49.125 76.338-132.72 104.52-0.062 0.02-1.212 0.429-3.181 1.023l-0.124-0.303-8.88-30.659-0.016-0.033c109.04-35.208 138.38-120.88 144.91-173.84l5e-3 -2.157v-316.57h31.822v548.4h-31.822z" fill="#b1b4b6" fill-rule="evenodd"/></g><g transform="translate(364.05 131.23)"><path d="m0 0v547.73" fill="none" stroke="#fff" stroke-miterlimit="7" stroke-width="2"/></g><g transform="translate(187.33 624.13)"><path d="m0 0-0.016-0.033c109.04-35.208 138.38-120.88 144.91-173.84l5e-3 -2.157v-316.6" fill="none" stroke="#ffd200" stroke-miterlimit="7" stroke-width="2"/></g><g transform="translate(332.23 553.41)"><path d="m0 0v-3.863c-13.161 23.315-49.125 76.338-132.72 104.52-0.062 0.02-1.212 0.429-3.181 1.023" fill="none" stroke="#fff" stroke-miterlimit="7" stroke-width="2"/></g><g transform="translate(332.23 679.93)"><path d="m0 0v-126.52" fill="none" stroke="#ffd24f" stroke-miterlimit="7" stroke-width="2"/></g><g transform="translate(188.33 624.13)"><path d="m0 0-0.016-0.033" fill="none" stroke="#ffd200" stroke-miterlimit="7" stroke-width="2"/></g><g transform="translate(302.13 215.7)"><path d="m0 0h18.9" fill="none" stroke="#000" stroke-linejoin="bevel" stroke-miterlimit="1.415"/></g><g transform="translate(302.13 449.52)"><path d="m0 0h18.9m-18.9-117.18h18.9m-18.9-116.64h18.9m-11.52 112.71 3e-3 -108.78" fill="none" stroke="#000" stroke-linejoin="bevel" stroke-miterlimit="1.415" stroke-width=".75"/></g><g transform="translate(310.05 218.4)"><path d="m0 0c0.263 0.868 0.504 1.433 0.783 2.129h-2.648c0.118-0.249 0.521-1.261 0.783-2.129 0.281-0.929 0.472-1.772 0.541-2.317 0.068 0.545 0.261 1.388 0.541 2.317"/></g><g transform="translate(308.97 329.65)"><path d="M 0,0 C -0.262,-0.868 -0.504,-1.433 -0.783,-2.129 H 1.865 C 1.747,-1.88 1.343,-0.868 1.082,0 0.801,0.929 0.609,1.771 0.541,2.317 0.472,1.771 0.28,0.929 0,0"/></g><g transform="translate(309.57 336.28)"><path d="m0 0-3e-3 109.32" fill="none" stroke="#000" stroke-linejoin="bevel" stroke-miterlimit="1.415" stroke-width=".75"/></g><g transform="translate(309.03 446.83)"><path d="m0 0c-0.262-0.868-0.504-1.433-0.783-2.129h2.649c-0.119 0.25-0.522 1.261-0.784 2.129-0.281 0.929-0.472 1.771-0.541 2.317-0.068-0.546-0.26-1.388-0.541-2.317"/></g><g transform="translate(310.11 335.04)"><path d="m0 0c0.263 0.868 0.504 1.432 0.784 2.129h-2.649c0.119-0.25 0.521-1.261 0.783-2.129 0.281-0.929 0.473-1.772 0.541-2.318 0.069 0.546 0.261 1.389 0.541 2.318"/></g><g transform="translate(309.51 211.77)"><path d="m0 0 2e-3 -52.494" fill="none" stroke="#000" stroke-linejoin="bevel" stroke-miterlimit="1.415" stroke-width=".75"/></g><g transform="translate(310.05 158.04)"><path d="m0 0c0.263 0.868 0.504 1.432 0.783 2.129h-2.648c0.118-0.25 0.521-1.261 0.783-2.129 0.281-0.929 0.472-1.772 0.541-2.318 0.068 0.546 0.261 1.389 0.541 2.318"/></g><g transform="translate(308.97 213.01)"><path d="M 0,0 C -0.262,-0.868 -0.504,-1.432 -0.783,-2.129 H 1.865 C 1.747,-1.88 1.343,-0.868 1.082,0 0.801,0.929 0.609,1.772 0.541,2.318 0.472,1.772 0.28,0.929 0,0"/></g><g transform="translate(302.13 155.34)"><path d="m0 0h18.9" fill="none" stroke="#000" stroke-linejoin="bevel" stroke-miterlimit="1.415" stroke-width=".75"/></g><g transform="translate(346.96 604.46)"><path d="m0 0v6.354h-1.559l2.576 4.376 2.399-4.376h-1.44v-6.354z"/></g><g transform="translate(346.96 165.23)"><path d="m0 0v6.354h-1.559l2.576 4.377 2.399-4.377h-1.44v-6.354z"/></g><g transform="translate(346.96 384.23)"><path d="m0 0v6.353h-1.559l2.576 4.378 2.399-4.378h-1.44v-6.353z"/></g><g transform="translate(267.67 597.91)"><path d="m0 0-4.957 3.974-0.976-1.216-1.802 4.748 4.915-0.867-0.901-1.123 4.957-3.975z"/></g><g transform="translate(428.96 128.54)"><path d="m0 0s-84.469 7.698-83.71 22.303" fill="none" stroke="#000" stroke-width=".75"/></g><g transform="translate(344.72 152.08)"><path d="m0 0c-0.262-0.867-0.504-1.432-0.779-2.127l2.646 3e-3c-0.119 0.249-0.523 1.26-0.787 2.128-0.283 0.928-0.475 1.77-0.544 2.317-0.067-0.547-0.26-1.39-0.536-2.321"/></g><g transform="translate(185.83 613.11)"><path d="m0 0-11.091 3.486 14.915 47.462 11.09-3.486z" fill="#fff" fill-rule="evenodd"/></g><g transform="translate(326.14 566.9)"><path d="m0 0c-2e-3 -0.256 0.082-0.486 0.223-0.672 0.142-0.185 0.341-0.327 0.57-0.408h-4.1v-1h8.959v1h-4.086c0.227 0.08 0.424 0.22 0.565 0.404s0.226 0.412 0.228 0.667c2e-3 0.325-0.128 0.621-0.341 0.835-0.213 0.215-0.507 0.348-0.833 0.348-0.326 2e-3 -0.622-0.128-0.837-0.341-0.215-0.212-0.347-0.506-0.348-0.833"/></g><g transform="translate(326.32 201.79)"><path d="m0 0h9.29l3.121-4.257v7.789l6.299-3.532 34.63-0.025v-7.199h-20.55l-6.299 3.506v-7.764l-3.181 4.258h-23.31" fill="#fff" stroke="#000" stroke-linejoin="bevel" stroke-miterlimit="1.415" stroke-width=".335"/></g><path d="m383.05 186.25h-5.333v22.166h5.333z" fill="#fff"/><g transform="translate(326.32 313.47)"><path d="m0 0h9.29l3.121-4.258v7.791l6.299-3.533 34.63-0.025v-7.197h-20.55l-6.299 3.503v-7.763l-3.181 4.26h-23.31" fill="#fff" stroke="#000" stroke-linejoin="bevel" stroke-miterlimit="1.415" stroke-width=".335"/></g><path d="m383.05 297.93h-5.333v22.168h5.333z" fill="#fff"/><g transform="translate(326.32 378.44)"><path d="m0 0h9.29l3.121-4.258v7.789l6.299-3.531 34.63-0.025v-7.2h-20.55l-6.299 3.506v-7.763l-3.181 4.257h-23.31" fill="#fff" stroke="#000" stroke-linejoin="bevel" stroke-miterlimit="1.415" stroke-width=".335"/></g><path d="m383.05 362.9h-5.333v22.166h5.333z" fill="#fff"/><g transform="translate(325.55 552.5)"><path d="m0 0 4.583-1.417 3.167-5.917-3-2.416-5.084 8.916z" fill="#b1b4b6" fill-rule="evenodd"/></g><g transform="translate(326.34 332.42)"><path d="m0 0h27.179" fill="none" stroke="#000" stroke-linejoin="bevel" stroke-miterlimit="1.415"/></g><g transform="translate(329.6 332.42)"><path d="m0 0c0-1.388-1.125-2.513-2.513-2.513-1.389 0-2.514 1.125-2.514 2.513 0 1.387 1.125 2.512 2.514 2.512 1.388 0 2.513-1.125 2.513-2.512" fill-rule="evenodd"/></g><g transform="translate(424.81 628.64)"><path d="m0 0h6.353v1.559l4.377-2.576-4.377-2.399v1.44h-6.353z"/></g><g transform="translate(446.29 637.16)"><path d="m0 0h29.291" fill="none" stroke="#000" stroke-width=".75"/></g></g><text transform="matrix(1 0 0 -1 445.82 640.11)" fill="#000000" font-family="Helvetica" font-size="9px"><tspan x="0 5.0040002 10.008 15.012 20.016001 25.02" y="0">Legend</tspan><tspan x="-7.2449999 -0.74699998 1.251 4.2480001 9.2519999 13.752 16.254 18.252001 23.256001 28.26 30.761999 35.765999 38.268002 40.77 43.271999 46.179001 51.002998 55.278 60.282001" y="15.354">Direction of travel</tspan></text><g clip-path="url(#e)"><g transform="translate(340.99 543.03)"><path d="m0 0h16.48v1.442h-16.48v-0.722z" fill-rule="evenodd"/></g><g transform="translate(338.25 330.92)"><path d="m0 0h14.008v1.442h-14.008v-0.721z" fill-rule="evenodd"/></g><g transform="translate(326.35 215.71)"><path d="m0 0h27.178" fill="none" stroke="#000" stroke-linejoin="bevel" stroke-miterlimit="1.415"/></g><g transform="translate(329.6 215.71)"><path d="m0 0c0-1.388-1.125-2.513-2.513-2.513-1.389 0-2.514 1.125-2.514 2.513 0 1.387 1.125 2.512 2.514 2.512 1.388 0 2.513-1.125 2.513-2.512" fill-rule="evenodd"/></g><g transform="translate(338.25 214.12)"><path d="m0 0h14.008v1.443h-14.008v-0.722z" fill-rule="evenodd"/></g><g transform="translate(332.21 543.94)"><path d="m0 0v-79.857" fill="none" stroke="#fff" stroke-dasharray="3, 9" stroke-miterlimit="7" stroke-width="2"/></g></g><text transform="matrix(1 0 0 -1 118.63 659.45)" fill="#000000" font-family="Helvetica" font-size="9px"><tspan x="0 6.4980001 12.501 19.997999 26.000999 28.052999 33.192001 40.194 42.695999 45.198002 48.195 53.199001" y="0">RAMP TO I-76</tspan><tspan x="-13.779 -7.776 -1.773 0.72899997 8.2259998 14.229 20.726999 26.459999 33.462002 39.465 45.963001 48.465 53.469002 59.472 65.970001" y="9.9989996">EB MANAGED LANE</tspan><tspan x="6.0840001 13.086 19.584 22.086 24.587999 27.584999 32.589001 37.592999 40.095001 46.098" y="19.997999">OR I-76 EB</tspan><tspan x="7.5869999 14.589 20.591999 27.09 33.092999 39.591 45.594002" y="29.997">GENERAL</tspan><tspan x="-8.9189997 -2.9159999 3.582 10.08 16.083 23.084999 29.087999 35.091 37.592999 42.597 48.599998 55.098 61.101002" y="39.995998">PURPOSE LANES</tspan></text><g clip-path="url(#d)"><g transform="translate(560.34 446.17)"><path d="m0 0v8.348" fill="#fff" fill-rule="evenodd"/></g><path d="m369.33 130.33h-40.98v2.625h40.98z" fill="#fff" fill-rule="evenodd"/></g><text transform="matrix(1 0 0 -1 333.18 122.8)" fill="#000000" font-family="Helvetica" font-size="9px"><tspan x="0 2.5020001 5.4990001 10.503 15.507 18.009001 24.011999" y="0">I-25 SB</tspan><tspan x="-20.618999 -13.122 -7.119 -0.62099999 5.112 12.114 18.117001 24.615 27.117001 32.120998 38.124001 44.622002" y="9.9989996">MANAGED LANE</tspan></text><g clip-path="url(#c)"><g transform="translate(428.96 435.65)"><path d="m0 0s-79.652 91.31-79.717 103.83" fill="none" stroke="#000" stroke-width=".75"/></g><g transform="translate(348.7 540.71)"><path d="m0 0c-0.258-0.869-0.497-1.435-0.772-2.132l2.648 0.013c-0.12 0.249-0.528 1.258-0.794 2.125-0.286 0.927-0.482 1.769-0.554 2.315-0.065-0.547-0.252-1.39-0.528-2.321"/></g><g transform="translate(428.96 321.03)"><path d="m0 0s-84.469-8.904-83.765 6.339" fill="none" stroke="#000" stroke-width=".75"/></g><g transform="translate(344.68 328.61)"><path d="m0 0c-0.275-0.865-0.525-1.425-0.814-2.117l2.649-0.038c-0.116 0.251-0.503 1.268-0.753 2.14-0.268 0.933-0.448 1.777-0.509 2.325-0.076-0.546-0.279-1.384-0.573-2.31"/></g><g transform="translate(326.35 155.99)"><path d="m0 0h27.178" fill="none" stroke="#000" stroke-linejoin="bevel" stroke-miterlimit="1.415"/></g><g transform="translate(329.6 156)"><path d="m0 0c0-1.389-1.125-2.514-2.513-2.514-1.389 0-2.514 1.125-2.514 2.514 0 1.386 1.125 2.511 2.514 2.511 1.388 0 2.513-1.125 2.513-2.511" fill-rule="evenodd"/></g><g transform="translate(338.25 154.4)"><path d="m0 0h14.008v1.443h-14.008v-0.722z" fill-rule="evenodd"/></g><g transform="translate(524.48 162.11)"><path d="m0 0-2.349-0.717 1.544-2.172-1.41-0.984-1.522 2.037-1.544-2.037-1.41 0.984 1.522 2.172-2.328 0.717 0.515 1.633 2.282-0.76v2.662h1.903v-2.662l2.26 0.76z"/></g><path d="m367.01 678.62h-37.583v5.275h37.583z" fill="#fff" fill-rule="evenodd"/></g><text transform="matrix(1 0 0 -1 332.27 691.78)" fill="#000000" font-family="Helvetica" font-size="9px"><tspan x="0 2.5020001 5.4990001 10.503 15.507 18.009001 24.011999" y="0">I-25 SB</tspan><tspan x="-20.618999 -13.122 -7.119 -0.62099999 5.112 12.114 18.117001 24.615 27.117001 32.120998 38.124001 44.622002" y="9.9989996">MANAGED LANE</tspan></text><g clip-path="url(#b)"><g transform="translate(428.96 220.74)"><path d="m0 0s-84.35-26.463-83.737-10.172" fill="none" stroke="#000" stroke-width=".75"/></g><g transform="translate(344.7 211.81)"><path d="m0 0c-0.267-0.865-0.513-1.428-0.796-2.123l2.649-0.017c-0.119 0.25-0.514 1.264-0.77 2.133-0.276 0.932-0.463 1.775-0.527 2.322-0.072-0.546-0.27-1.388-0.556-2.315"/></g><g fill="#fff"><path d="m314.4 384.41h-9.865v10.543h9.865z"/><path d="m314.4 269.1h-9.865v10.543h9.865z"/><path d="m314.4 179.61h-9.865v10.543h9.865z"/></g></g><text transform="matrix(1 0 0 -1 297.47 181.81)" fill="#000000" font-family="Helvetica" font-size="9px"><tspan x="0 5.0040002 7.506 15.003 17.000999 18.999001" y="0">1 mile</tspan><tspan x="-3.753 1.251 3.753 8.757 11.259 18.756001 20.754 22.752001" y="-89.343002">1/2 mile</tspan><tspan x="-3.753 1.251 3.753 8.757 11.259 18.756001 20.754 22.752001" y="-204.633">1/2 mile</tspan></text><g clip-path="url(#a)"><g transform="translate(304.55 550.39)"><path d="m0 0 2.445 1.577 1.573-2.444-1.833-1.182 2.362-3.664 1.832 1.181 1.575-2.443-1.833-1.18 2.757-4.277 1.832 1.181 1.59-2.465-2.444-1.576z" fill="#fff" fill-rule="evenodd"/></g><g transform="translate(311.55 554.87)"><path d="m0 0 0.611 0.393 9.842-15.268-0.611-0.395z" fill="#fff" fill-rule="evenodd"/></g><g transform="translate(313.2 555.93)"><path d="m0 0 2.444 1.575 1.575-2.44-0.918-0.593 8.265-12.829-0.609-0.39-8.267 12.826-0.917-0.59z" fill="#fff" fill-rule="evenodd"/></g><g transform="translate(308.05 552.61)"><path d="m0 0 5.836-7.044 4.006-8.226 0.611 0.394-2.672 5.484 3.893-4.697 0.612 0.395-5.838 7.045-4.003 8.225-0.611-0.392 2.667-5.486-3.889 4.697z" fill="#fff" fill-rule="evenodd"/></g><g transform="translate(335.8 564.03)"><path d="m0 0h2.907v-2.907h-2.18v-4.365h2.18v-2.906h-2.18v-5.092h2.18v-2.931h-2.907z" fill="#fff" fill-rule="evenodd"/></g><g transform="translate(350.35 564.03)"><path d="m0 0h2.908v-2.907h-2.181v-4.365h2.181v-2.906h-2.181v-5.092h2.181v-2.931h-2.908z" fill="#fff" fill-rule="evenodd"/></g><g transform="translate(343.79 555.28)"><path d="m0 0v5.801c1.214 3e-3 1.472-1.161 1.472-2.885 2e-3 -1.725-0.301-2.901-1.472-2.916m-0.722 8.721v-18.168h0.715c0 2.175 7e-3 4.357 7e-3 6.533 1.875 0.227 2.189 2.07 2.194 5.83 3e-3 3.758-0.929 6.099-2.916 5.805" fill="#fff"/></g><g transform="translate(355.44 564.11)"><path d="m0 0c1.293 5e-3 1.381-2.358 1.477-4.428-0.249-0.242-0.5-0.488-0.749-0.73-0.044 1.075-0.162 2.176-0.728 2.185-0.565 0.01-0.66-0.878-0.729-1.87v-0.707c-3e-3 -1.607 2.237-3.552 2.185-4.884v-2.718c-4e-3 -2.536-0.186-5.218-1.456-5.218-1.269 0-1.274 2.309-1.458 4.489 0.245 0.236 0.487 0.474 0.729 0.709 0.128-1.169 0.218-2.163 0.729-2.165 0.514-7e-3 0.693 0.687 0.728 1.751 0.219 1.874-2.089 3.694-2.186 5.511v3.251c-0.016 2.456 0.164 4.822 1.458 4.824" fill="#fff" fill-rule="evenodd"/></g><g transform="translate(359.1 564.11)"><path d="m0 0c1.293 5e-3 1.381-2.358 1.478-4.428-0.251-0.242-0.502-0.488-0.749-0.73-0.045 1.075-0.164 2.176-0.729 2.185-0.565 0.01-0.662-0.878-0.729-1.87v-0.707c-4e-3 -1.607 2.237-3.552 2.184-4.884v-2.718c-5e-3 -2.536-0.186-5.218-1.455-5.218s-1.274 2.309-1.458 4.489c0.243 0.236 0.487 0.474 0.729 0.709 0.127-1.169 0.217-2.163 0.729-2.165 0.513-7e-3 0.694 0.687 0.729 1.751 0.218 1.874-2.092 3.694-2.187 5.511v3.251c-0.017 2.456 0.164 4.822 1.458 4.824" fill="#fff" fill-rule="evenodd"/></g><g transform="translate(347.43 561.08)"><path d="m0 0c1.214 3e-3 1.471-1.161 1.474-2.885 0-1.725-0.3-2.901-1.474-2.916zm-0.723 2.92c1.987 0.294 2.922-2.047 2.917-5.805-2e-3 -2.509-0.145-4.163-0.795-5.059l0.788-7.304h-0.716l-0.648 6.785c-0.236-0.132-0.507-0.217-0.823-0.252 0-2.176-5e-3 -4.358-5e-3 -6.533h-0.718z" fill="#fff" fill-rule="evenodd"/></g><g transform="translate(339.44 564.02)"><path d="m0 0 1.092-9.086-1.092-9.09h0.726l0.729 6.059 0.725-6.059h0.73l-1.092 9.09 1.092 9.086h-0.73l-0.725-6.06-0.729 6.06z" fill="#fff" fill-rule="evenodd"/></g><g transform="translate(335.8 274.6)"><path d="m0 0h2.907v-2.907h-2.18v-4.365h2.18v-2.907h-2.18v-5.091h2.18v-2.931h-2.907z" fill="#fff" fill-rule="evenodd"/></g><g transform="translate(350.35 274.6)"><path d="m0 0h2.908v-2.907h-2.181v-4.365h2.181v-2.907h-2.181v-5.091h2.181v-2.931h-2.908z" fill="#fff" fill-rule="evenodd"/></g><g transform="translate(343.79 265.85)"><path d="m0 0v5.801c1.214 3e-3 1.472-1.161 1.472-2.885 2e-3 -1.725-0.301-2.901-1.472-2.916m-0.722 8.72v-18.168h0.715c0 2.176 7e-3 4.357 7e-3 6.533 1.875 0.229 2.189 2.07 2.194 5.831 3e-3 3.757-0.929 6.099-2.916 5.804" fill="#fff"/></g><g transform="translate(355.44 274.68)"><path d="m0 0c1.293 6e-3 1.381-2.357 1.477-4.428-0.249-0.242-0.5-0.488-0.749-0.73-0.044 1.076-0.162 2.178-0.728 2.185-0.565 0.01-0.66-0.877-0.729-1.869v-0.707c-3e-3 -1.607 2.237-3.553 2.185-4.885v-2.716c-4e-3 -2.537-0.186-5.219-1.456-5.219-1.269 0-1.274 2.309-1.458 4.489 0.245 0.236 0.487 0.474 0.729 0.709 0.128-1.169 0.218-2.163 0.729-2.165 0.514-8e-3 0.693 0.688 0.728 1.75 0.219 1.875-2.089 3.694-2.186 5.512v3.25c-0.016 2.457 0.164 4.823 1.458 4.824" fill="#fff" fill-rule="evenodd"/></g><g transform="translate(359.1 274.68)"><path d="m0 0c1.293 6e-3 1.381-2.357 1.478-4.428-0.251-0.242-0.502-0.488-0.749-0.73-0.045 1.076-0.164 2.178-0.729 2.185-0.565 0.01-0.662-0.877-0.729-1.869v-0.707c-4e-3 -1.607 2.237-3.553 2.184-4.885v-2.716c-5e-3 -2.537-0.186-5.219-1.455-5.219s-1.274 2.309-1.458 4.489c0.243 0.236 0.487 0.474 0.729 0.709 0.127-1.169 0.217-2.163 0.729-2.165 0.513-8e-3 0.694 0.688 0.729 1.75 0.218 1.875-2.092 3.694-2.187 5.512v3.25c-0.017 2.457 0.164 4.823 1.458 4.824" fill="#fff" fill-rule="evenodd"/></g><g transform="translate(347.43 271.65)"><path d="m0 0c1.214 3e-3 1.471-1.161 1.474-2.885 0-1.725-0.3-2.901-1.474-2.916zm-0.723 2.919c1.987 0.295 2.922-2.047 2.917-5.804-2e-3 -2.51-0.145-4.163-0.795-5.059l0.788-7.305h-0.716l-0.648 6.786c-0.236-0.132-0.507-0.218-0.823-0.253 0-2.176-5e-3 -4.357-5e-3 -6.533h-0.718z" fill="#fff" fill-rule="evenodd"/></g><g transform="translate(339.44 274.59)"><path d="m0 0 1.092-9.087-1.092-9.089h0.726l0.729 6.059 0.725-6.059h0.73l-1.092 9.089 1.092 9.087h-0.73l-0.725-6.06-0.729 6.06z" fill="#fff" fill-rule="evenodd"/></g><g transform="translate(284.62 544.48)"><path d="m0 0h88.914" fill="none" stroke="#000" stroke-linejoin="bevel" stroke-miterlimit="1.415"/></g><g transform="translate(287.88 544.48)"><path d="m0 0c0-1.389-1.125-2.514-2.513-2.514-1.389 0-2.514 1.125-2.514 2.514 0 1.386 1.125 2.511 2.514 2.511 1.388 0 2.513-1.125 2.513-2.511" fill-rule="evenodd"/></g><g transform="translate(376.05 544.48)"><path d="m0 0c0-1.389-1.125-2.514-2.513-2.514-1.389 0-2.514 1.125-2.514 2.514 0 1.386 1.125 2.511 2.514 2.511 1.388 0 2.513-1.125 2.513-2.511" fill-rule="evenodd"/></g><path d="m310.09 543.03h16.48v1.442h-16.48z" fill-rule="evenodd"/><g transform="translate(428.96 555.46)"><path d="m0 0s-87.041-17.334-99.942 6.241" fill="none" stroke="#000" stroke-width=".75"/></g><g transform="translate(327.95 562.53)"><path d="m0 0c0.187-0.887 0.246-1.499 0.335-2.243l2.323 1.271c-0.223 0.162-1.062 0.856-1.709 1.491-0.692 0.68-1.264 1.327-1.587 1.773 0.203-0.511 0.438-1.343 0.638-2.292"/></g><g transform="translate(110.89 581.98)"><path d="m0 0v-78.92l3.111 21.215-0.282 3.676-2.263-1.979" stroke="#000"/></g><g transform="translate(117.1 550.6)"><path d="m0 0h2.665v-22.176h-3.09l-10.348 17.914h-0.056v-17.914h-2.665v22.176h3.259l10.177-17.913h0.058z"/></g><g transform="translate(475.25 529.31)"><path d="m0 0c0-2.379-1.946-4.326-4.325-4.326h-34.6c-2.379 0-4.325 1.947-4.325 4.326v47.575c0 2.379 1.946 4.325 4.325 4.325h34.6c2.379 0 4.325-1.946 4.325-4.325z" fill="none" stroke="#000" stroke-width=".5"/></g><g transform="translate(436.33 526.07)"><path d="m0 0c-0.862 0-1.675 0.338-2.29 0.954-0.615 0.615-0.954 1.428-0.954 2.29v47.575c0 0.862 0.339 1.675 0.954 2.29s1.428 0.953 2.29 0.953h34.6c0.862 0 1.675-0.338 2.29-0.953s0.954-1.428 0.954-2.29v-47.575c0-0.862-0.339-1.675-0.954-2.29-0.615-0.616-1.428-0.954-2.29-0.954z" fill="#006f51"/></g><g transform="translate(436.33 524.86)"><path d="m0 0c-2.454 0-4.45 1.997-4.45 4.451v47.575c0 2.453 1.996 4.45 4.45 4.45h34.6c2.454 0 4.45-1.997 4.45-4.45v-47.575c0-2.454-1.996-4.451-4.45-4.451z" fill="#fff"/></g><g transform="translate(470.93 581.46)"><path d="m0 0h-34.6c-2.522 0-4.575-2.052-4.575-4.575v-47.575c0-2.523 2.053-4.576 4.575-4.576h34.6c2.522 0 4.575 2.053 4.575 4.576v47.575c0 2.523-2.053 4.575-4.575 4.575m0-0.25c2.379 0 4.325-1.946 4.325-4.325v-47.575c0-2.379-1.946-4.326-4.325-4.326h-34.6c-2.379 0-4.325 1.947-4.325 4.326v47.575c0 2.379 1.946 4.325 4.325 4.325h34.6"/></g><g transform="translate(436.33 526.07)"><path d="m0 0c-0.862 0-1.675 0.338-2.29 0.954-0.615 0.615-0.954 1.428-0.954 2.29v47.575c0 0.862 0.339 1.675 0.954 2.29s1.428 0.953 2.29 0.953h34.6c0.862 0 1.675-0.338 2.29-0.953s0.954-1.428 0.954-2.29v-47.575c0-0.862-0.339-1.675-0.954-2.29-0.615-0.616-1.428-0.954-2.29-0.954z" fill="#006f51"/></g><g transform="translate(447.45 534.41)"><path d="m0 0-0.012 0.018c-0.021 0.039-0.038 0.08-0.049 0.121-1e-3 4e-3 -3e-3 8e-3 -4e-3 0.012l2e-3 -1e-3c-4e-3 0.014-9e-3 0.028-0.011 0.043l-0.02 0.139-1.975 10.193-0.026 0.192c-0.028 0.191 0.037 0.382 0.164 0.51 0.145 0.145 0.336 0.209 0.518 0.173l0.128-0.025 10.224-1.992 0.178-0.029c0.12-0.027 0.21-0.082 0.301-0.173 0.228-0.227 0.237-0.601 0-0.838-0.027-0.027-0.073-0.054-0.109-0.072l-0.11-0.061-3.638-2.236 8.894-8.167-2.976-2.977-8.166 8.877v0.018l-2.203-3.584-0.092-0.131c-0.027-0.045-0.055-0.09-0.091-0.126-0.228-0.228-0.609-0.229-0.837-1e-3 -0.037 0.036-0.065 0.076-0.09 0.117" fill="#fff"/></g><g transform="translate(449.31 572.96)"><path d="m0 0c-0.163 0.08-0.264 0.101-0.547 0.101h-1.194v-1.417h1.194c0.283 0 0.384 0.02 0.547 0.102 0.202 0.101 0.343 0.364 0.343 0.606 0 0.244-0.141 0.486-0.343 0.608m0.383-2.044c-0.262-0.121-0.606-0.202-1.051-0.202h-1.073v-2.509h-0.911v5.766h1.984c0.464 0 0.768-0.04 1.051-0.182 0.506-0.243 0.891-0.85 0.891-1.437 0-0.606-0.385-1.213-0.891-1.436" fill="#fff"/></g><g transform="translate(454.41 572.96)"><path d="m0 0c-0.141 0.081-0.222 0.102-0.526 0.102h-1.093v-1.417h1.093c0.283 0 0.385 0.02 0.526 0.102 0.223 0.121 0.364 0.364 0.364 0.606 0 0.244-0.141 0.486-0.364 0.607m0.404-4.754-0.93 2.509h-1.093v-2.509h-0.91v5.766h1.901c0.446 0 0.749-0.04 1.032-0.182 0.506-0.243 0.871-0.85 0.871-1.437 0-0.606-0.365-1.213-0.891-1.456l1.012-2.691z" fill="#fff"/></g><g transform="translate(465.08 568.56)"><path d="m0 0c-0.323-0.284-0.768-0.445-1.254-0.445-0.992 0-1.72 0.586-2.104 1.456l0.87 0.324c0.242-0.546 0.687-0.85 1.234-0.85 0.526 0 0.89 0.365 0.89 0.85 0 0.769-0.89 0.891-1.639 1.194-0.344 0.141-1.113 0.486-1.113 1.436 0 1.134 0.769 1.559 1.801 1.559 0.809 0 1.356-0.466 1.639-1.174l-0.809-0.242s-0.202 0.485-0.85 0.505c-0.425 0.02-0.93-0.142-0.89-0.668 0.081-1.072 2.793-0.364 2.793-2.63 0-0.526-0.204-0.992-0.568-1.315" fill="#fff"/></g><g transform="translate(469.87 568.56)"><path d="m0 0c-0.324-0.284-0.768-0.445-1.255-0.445-0.991 0-1.719 0.586-2.104 1.456l0.87 0.324c0.243-0.546 0.688-0.85 1.234-0.85 0.527 0 0.891 0.365 0.891 0.85 0 0.769-0.891 0.891-1.639 1.194-0.344 0.141-1.113 0.486-1.113 1.436 0 1.134 0.769 1.559 1.801 1.559 0.809 0 1.355-0.466 1.638-1.174l-0.808-0.242s-0.203 0.485-0.851 0.505c-0.425 0.02-0.93-0.142-0.889-0.668 0.081-1.072 2.792-0.364 2.792-2.63 0-0.526-0.203-0.992-0.567-1.315" fill="#fff"/></g><g transform="translate(444.15 568.21)"><path d="m0 0-0.931 1.922-0.931-1.922h-1.032l1.437 2.974-1.336 2.793h1.033l0.829-1.721 0.83 1.721h1.032l-1.356-2.793 1.457-2.974z" fill="#fff"/></g><g transform="translate(436.82 568.21)"><path d="m0 0v5.766h3.395v-0.91h-2.485v-1.417h1.677v-0.93h-1.677v-1.579h2.667v-0.93z" fill="#fff"/></g><g transform="translate(457.28 568.21)"><path d="m0 0v5.766h3.396v-0.91h-2.486v-1.417h1.677v-0.93h-1.677v-1.579h2.668v-0.93z" fill="#fff"/></g><g transform="translate(439.29 552.32)"><path d="m0 0v8.65h6.336v-1.548h-4.752v-1.608h2.589v-1.578h-2.589v-2.368h4.904v-1.548z" fill="#fff"/></g><path d="m457.72 560.98h1.556v-8.65h-1.556z" fill="#fff"/><g transform="translate(465.48 559.46)"><path d="m0 0v-7.133h-1.515v7.133h-2.485v1.517h6.487v-1.517z" fill="#fff"/></g><g transform="translate(453.29 552.32)"><path d="m0 0-1.951 3.066-1.92-3.066h-1.829l2.835 4.553-2.592 4.097h1.86l1.646-2.64 1.646 2.64h1.86l-2.561-4.097 2.835-4.553z" fill="#fff"/></g><g transform="translate(498.13 416.67)"><path d="m0 0c-2.61 0-4.734 2.124-4.734 4.734v41.476c0 2.61 2.124 4.734 4.734 4.734h57.606c2.611 0 4.734-2.124 4.734-4.734v-41.476c0-2.61-2.123-4.734-4.734-4.734z" fill="#fff"/></g><g transform="translate(555.74 467.74)"><path d="m0 0h-57.606c-2.679 0-4.859-2.18-4.859-4.859v-41.476c0-2.679 2.18-4.859 4.859-4.859h57.606c2.679 0 4.859 2.18 4.859 4.859v41.476c0 2.679-2.18 4.859-4.859 4.859m0-0.25c2.535 0 4.609-2.074 4.609-4.609v-41.476c0-2.535-2.074-4.609-4.609-4.609h-57.606c-2.534 0-4.609 2.074-4.609 4.609v41.476c0 2.535 2.075 4.609 4.609 4.609h57.606"/></g><g transform="translate(559.58 462.88)"><path d="m0 0c0 0.516-0.101 1.017-0.302 1.489-0.194 0.458-0.472 0.869-0.826 1.223s-0.765 0.632-1.222 0.826c-0.473 0.201-0.974 0.303-1.49 0.303h-57.606c-0.516 0-1.017-0.102-1.489-0.303-0.457-0.194-0.869-0.472-1.223-0.826s-0.632-0.765-0.826-1.223c-0.2-0.472-0.302-0.973-0.302-1.489v-8.448h65.286z" fill="#006f51"/></g><g transform="translate(494.29 421.4)"><path d="m0 0c0-0.516 0.102-1.017 0.302-1.489 0.194-0.457 0.472-0.869 0.826-1.223s0.766-0.632 1.223-0.826c0.472-0.201 0.973-0.303 1.489-0.303h57.606c0.516 0 1.017 0.102 1.49 0.303 0.457 0.194 0.868 0.472 1.222 0.826s0.632 0.766 0.826 1.223c0.201 0.472 0.302 0.973 0.302 1.489v32.259h-65.286z" fill="#006f51"/></g><g transform="translate(541.69 461.68)"><path d="m0 0-0.646-1.553h1.293zm1.455-3.461-0.453 1.084h-2.004l-0.453-1.084h-0.905l1.94 4.609h0.84l1.924-4.609z" fill="#fff"/></g><g transform="translate(549.75 458.22)"><path d="m0 0v4.609h3.376v-0.825h-2.532v-0.857h1.38v-0.841h-1.38v-1.261h2.613v-0.825z" fill="#fff"/></g><g transform="translate(535.51 458.22)"><path d="m0 0v4.609h0.828v-3.897h2.629v-0.712z" fill="#fff"/></g><g transform="translate(547.84 458.22)"><path d="m0 0-2.209 3.17v-3.17h-0.813v4.609h0.813l2.127-3.04v3.04h0.796v-4.609z" fill="#fff"/></g><g transform="translate(518.86 458.22)"><path d="m0 0v4.609h3.375v-0.825h-2.531v-0.857h1.379v-0.841h-1.379v-1.261h2.612v-0.825z" fill="#fff"/></g><g transform="translate(500.65 458.22)"><path d="m0 0v4.609h3.376v-0.825h-2.532v-0.857h1.38v-0.841h-1.38v-1.261h2.613v-0.825z" fill="#fff"/></g><g transform="translate(511.92 462.01)"><path d="m0 0h-1.392v-1.148h1.392c0.404 0 0.679 0.226 0.679 0.566 0 0.356-0.275 0.582-0.679 0.582m0.792-1.795c-0.259-0.145-0.469-0.178-0.824-0.178h-1.36v-1.811h-0.841v4.609h2.201c0.355 0 0.565-0.049 0.824-0.194 0.436-0.243 0.711-0.696 0.711-1.213 0-0.485-0.275-0.97-0.711-1.213" fill="#fff"/></g><g transform="translate(516.36 462.01)"><path d="m0 0h-1.327v-1.148h1.327c0.405 0 0.663 0.226 0.663 0.566 0 0.356-0.258 0.582-0.663 0.582m0.663-3.784-0.744 1.811h-1.246v-1.811h-0.824v4.609h2.136c0.339 0 0.549-0.049 0.792-0.194 0.435-0.243 0.711-0.696 0.711-1.213s-0.276-0.97-0.744-1.229l0.84-1.973z" fill="#fff"/></g><g transform="translate(524.68 460.29)"><path d="m0 0c-0.205 0.056-0.721 0.18-0.895 0.282-0.347 0.203-0.612 0.536-0.612 1.029 0 0.76 0.649 1.277 1.592 1.277 0.681 0 1.25-0.226 1.721-0.711l-0.617-0.55c-0.293 0.307-0.666 0.453-1.104 0.453-0.472 0-0.748-0.178-0.748-0.469 0-0.259 0.163-0.372 0.731-0.501 0.617-0.13 1.023-0.259 1.283-0.389 0.406-0.21 0.666-0.646 0.666-1.148 0-0.468-0.211-0.824-0.649-1.083-0.325-0.194-0.747-0.307-1.17-0.307-0.796 0-1.397 0.291-1.916 0.889l0.666 0.518c0.341-0.405 0.714-0.582 1.234-0.582 0.584 0 1.007 0.258 1.007 0.598 0 0.432-0.471 0.495-1.189 0.694" fill="#fff"/></g><g transform="translate(529.06 460.29)"><path d="m0 0c-0.205 0.056-0.72 0.18-0.895 0.282-0.347 0.203-0.611 0.536-0.611 1.029 0 0.76 0.649 1.277 1.59 1.277 0.683 0 1.251-0.226 1.722-0.711l-0.617-0.55c-0.292 0.307-0.666 0.453-1.105 0.453-0.47 0-0.747-0.178-0.747-0.469 0-0.259 0.163-0.372 0.732-0.501 0.617-0.13 1.022-0.259 1.282-0.389 0.406-0.21 0.666-0.646 0.666-1.148 0-0.468-0.211-0.824-0.649-1.083-0.326-0.194-0.747-0.307-1.169-0.307-0.796 0-1.397 0.291-1.917 0.889l0.666 0.518c0.341-0.405 0.715-0.582 1.234-0.582 0.585 0 1.007 0.258 1.007 0.598 0 0.432-0.471 0.495-1.189 0.694" fill="#fff"/></g><g transform="translate(507.79 458.22)"><path d="m0 0-1.039 1.633-1.024-1.633h-0.974l1.511 2.426-1.381 2.183h0.991l0.877-1.407 0.877 1.407h0.991l-1.364-2.183 1.51-2.426z" fill="#fff"/></g><g transform="translate(532.69 427.93)"><path d="m0 0c-0.042 0-0.075 0-0.109-9e-3l-4.408-1.144v3.457h-2.496v-3.457l-4.416 1.144c-0.035 9e-3 -0.068 9e-3 -0.092 9e-3 -0.218 0-0.385-0.167-0.385-0.385 0-0.1 0.042-0.2 0.117-0.275l9e-3 -8e-3 6.019-5.477 6.011 5.477c0.083 0.075 0.134 0.183 0.134 0.283 0 0.218-0.176 0.385-0.384 0.385" fill="#fff"/></g><g transform="translate(512.19 434.8)"><path d="m0 0c-3.983 0.809-6.91 4.387-6.91 8.472 0 1.923 0.665 3.868 1.847 5.353 0.776-0.236 1.691-0.376 2.535-0.376s1.755 0.135 2.531 0.371c0.777-0.236 1.688-0.371 2.532-0.371 0.843 0 1.758 0.14 2.534 0.376 1.181-1.485 1.848-3.43 1.848-5.353 0-4.085-2.934-7.663-6.917-8.472" fill="#fff" fill-rule="evenodd"/></g><g transform="translate(507.93 437.46)"><path d="m0 0c-0.321 0.345-0.636 0.702-0.896 1.097-0.261 0.398-0.514 0.806-0.706 1.243-0.19 0.434-0.369 0.877-0.483 1.339-0.115 0.462-0.216 0.933-0.248 1.41-0.033 0.475-0.047 0.952-1e-3 1.428 0.046 0.482 0.129 0.954 0.248 1.423 7e-3 0.024 7e-3 0.019 0.028 0.019h12.666c0.012 0 0.05-0.23 0.058-0.262 0.101-0.455 0.177-0.918 0.202-1.384 0.025-0.483 0.013-0.964-0.04-1.445-0.053-0.473-0.151-0.939-0.284-1.395-0.135-0.457-0.31-0.9-0.52-1.328-0.215-0.437-0.47-0.85-0.753-1.245-0.282-0.393-0.606-0.753-0.949-1.093-0.343-0.341-0.726-0.637-1.12-0.915-0.389-0.275-0.812-0.496-1.24-0.7-0.432-0.205-0.889-0.35-1.348-0.476-0.113-0.031-0.228-0.054-0.342-0.08-0.043-0.01-0.098 0.014-0.14 0.024-0.058 0.013-0.119 0.024-0.176 0.04-0.235 0.064-0.465 0.133-0.696 0.207-0.454 0.147-0.884 0.364-1.305 0.586-0.209 0.11-0.407 0.244-0.606 0.372-0.195 0.126-0.391 0.271-0.569 0.421-0.272 0.228-0.529 0.463-0.78 0.714" fill="#005596" fill-rule="evenodd"/></g><g transform="translate(505.93 445.71)"><path d="m0 0c0.128 0.441 0.295 0.876 0.503 1.287 0.215 0.43 0.459 0.844 0.747 1.232 0.02 0.027 0.034 0.069 0.068 0.059 0.089-0.024 0.178-0.047 0.267-0.068 0.17-0.041 0.342-0.077 0.515-0.109 0.345-0.062 0.694-0.106 1.043-0.129 0.695-0.048 1.393-7e-3 2.08 0.105 0.342 0.056 0.68 0.132 1.013 0.227 0.038 0.01 0.083-0.013 0.12-0.022 0.041-0.012 0.081-0.023 0.121-0.033 0.087-0.023 0.174-0.045 0.262-0.065 0.169-0.038 0.338-0.071 0.509-0.1 0.685-0.119 1.385-0.158 2.08-0.116 0.349 0.022 0.698 0.067 1.044 0.126 0.172 0.031 0.342 0.065 0.512 0.105 0.083 0.02 0.165 0.041 0.248 0.063 0.012 3e-3 0.079 0.028 0.084 0.019 0.012-0.015 0.023-0.03 0.034-0.045 0.146-0.198 0.282-0.402 0.411-0.612 0.247-0.401 0.45-0.826 0.626-1.263 0.087-0.216 0.161-0.438 0.228-0.661h-12.515" fill="#c0311a" fill-rule="evenodd"/></g><g transform="translate(516.6 445.99)"><path d="m0 0v0.202h-0.526v0.474h0.298v0.198h-0.298v0.363h0.47v0.202h-0.677v-1.439zm-0.93 1.247v0.192h-0.733v-0.192h0.263v-1.247h0.207v1.247zm-1.177-0.651h-0.207l0.102 0.414zm0.358-0.596-0.358 1.439h-0.202l-0.358-1.439h0.207l0.095 0.394h0.309l0.1-0.394zm-1.004 1.247v0.192h-0.733v-0.192h0.263v-1.247h0.207v1.247zm-0.864-0.853c0 0.207-0.121 0.363-0.399 0.525-0.106 0.061-0.136 0.101-0.136 0.171 0 0.097 0.075 0.167 0.172 0.167 0.091 0 0.161-0.065 0.166-0.167h0.197c-5e-3 0.218-0.162 0.374-0.363 0.374-0.207 0-0.369-0.167-0.369-0.374 0-0.126 0.06-0.237 0.177-0.317 0.293-0.198 0.212-0.142 0.242-0.172 0.086-0.066 0.116-0.126 0.116-0.207 0-0.117-0.091-0.217-0.202-0.217-0.141 0-0.201 0.126-0.201 0.247h-0.202c0-0.237 0.151-0.45 0.403-0.45 0.223 0 0.399 0.187 0.399 0.42m-1.172 0.661c0-0.116-0.065-0.181-0.186-0.181h-0.213v0.363h0.213c0.111 0 0.186-0.071 0.186-0.182m0.203-1.055-0.207 0.707c0.136 0.05 0.207 0.176 0.207 0.348 0 0.233-0.152 0.384-0.379 0.384h-0.429v-1.439h0.206v0.676h0.197l0.193-0.676zm-1.051 0v0.202h-0.526v0.474h0.299v0.198h-0.299v0.363h0.471v0.202h-0.677v-1.439zm-0.929 1.247v0.192h-0.732v-0.192h0.262v-1.247h0.207v1.247zm-0.93-1.247v1.439h-0.207v-0.864l-0.393 0.864h-0.207v-1.439h0.207v0.964l0.444-0.964zm-1.121 1.439h-0.202v-1.439h0.202z" fill="#fff" fill-rule="evenodd"/></g><g transform="translate(510.98 441.32)"><path d="m0 0c-0.837-0.521-1.608-0.751-2.073-1.908h3.056v-1.004h-4.235c0.022 0.72 0.172 1.311 0.524 1.899 1.092 1.825 2.728 1.623 2.728 2.598 0 0.458-0.523 0.829-1.134 0.829-0.633 0-1.027-0.305-1.135-0.873l-0.983 0.218c0.218 1.027 1.026 1.659 2.118 1.659 1.178 0 2.117-0.829 2.117-1.855 0-0.744-0.428-1.218-0.983-1.563" fill="#fff"/></g><g transform="translate(514.16 438.29)"><path d="m0 0c-0.546 0-1.092 0.132-1.528 0.35l0.48 0.873c0.262-0.131 0.72-0.218 1.179-0.218 0.894 0 1.594 0.589 1.594 1.397 0 0.611-0.502 1.091-1.114 1.091-0.437 0-0.633-0.131-1.004-0.655l-0.983 0.284 0.153 3.209h3.581v-0.982h-2.621l-0.065-1.026c0.459 0.131 0.655 0.175 0.961 0.175 1.135 0 2.074-0.961 2.074-2.096 0-1.376-1.136-2.402-2.707-2.402" fill="#fff"/></g><g transform="translate(546.79 442.94)"><path d="m0 0v2.005h-2.079v-2.005h-0.828v4.609h0.828v-1.779h2.079v1.779h0.828v-4.609z" fill="#fff"/></g><g transform="translate(532.16 446.85)"><path d="m0 0c-0.697 0-1.118-0.582-1.118-1.553 0-0.986 0.421-1.568 1.118-1.568 0.875 0 1.086 0.857 1.086 1.568 0 0.971-0.388 1.553-1.086 1.553m0-3.946c-1.361 0-1.961 1.229-1.961 2.393 0 1.472 0.745 2.377 1.961 2.377 1.135 0 1.912-0.954 1.912-2.36 0-1.44-0.745-2.41-1.912-2.41" fill="#fff"/></g><g transform="translate(526.96 445.53)"><path d="m0 0c-0.257 0.071-0.901 0.226-1.119 0.353-0.434 0.255-0.765 0.67-0.765 1.287 0 0.95 0.812 1.597 1.989 1.597 0.853 0 1.564-0.284 2.153-0.889l-0.772-0.688c-0.365 0.384-0.833 0.566-1.381 0.566-0.588 0-0.933-0.222-0.933-0.586 0-0.324 0.203-0.465 0.913-0.627 0.771-0.162 1.279-0.323 1.604-0.485 0.507-0.262 0.832-0.808 0.832-1.435 0-0.586-0.263-1.031-0.812-1.354-0.405-0.243-0.934-0.384-1.461-0.384-0.995 0-1.746 0.364-2.396 1.112l0.832 0.646c0.427-0.505 0.894-0.727 1.543-0.727 0.731 0 1.259 0.323 1.259 0.748 0 0.54-0.589 0.619-1.486 0.866" fill="#fff"/></g><g transform="translate(541.78 446.74)"><path d="m0 0v-3.8h-0.807v3.8h-1.325v0.809h3.457v-0.809z" fill="#fff"/></g><g transform="translate(537 442.9)"><path d="m0 0c-1.088 0-1.867 0.808-1.867 1.94v2.749h0.828v-2.749c0-0.275 0.032-0.42 0.146-0.598 0.178-0.307 0.52-0.501 0.893-0.501s0.715 0.194 0.894 0.501c0.113 0.178 0.145 0.34 0.145 0.598v2.749h0.828v-2.749c0-1.132-0.779-1.94-1.867-1.94" fill="#fff"/></g><g transform="translate(436.35 416.63)"><path d="m0 0c-2.429 0-4.406 1.976-4.406 4.406v40.661c0 2.429 1.977 4.405 4.406 4.405h49.219c2.429 0 4.406-1.976 4.406-4.405v-40.661c0-2.43-1.977-4.406-4.406-4.406z" fill="#fff"/></g><g transform="translate(485.57 466.23)"><path d="m0 0h-49.219c-2.499 0-4.531-2.032-4.531-4.53v-40.661c0-2.498 2.032-4.531 4.531-4.531h49.219c2.498 0 4.531 2.033 4.531 4.531v40.661c0 2.498-2.033 4.53-4.531 4.53m0-0.25c2.355 0 4.281-1.926 4.281-4.28v-40.661c0-2.355-1.926-4.281-4.281-4.281h-49.219c-2.355 0-4.281 1.926-4.281 4.281v40.661c0 2.354 1.926 4.28 4.281 4.28h49.219"/></g><g transform="translate(432.79 421.03)"><path d="m0 0c0-0.479 0.094-0.945 0.28-1.383 0.181-0.425 0.439-0.807 0.768-1.136s0.711-0.587 1.136-0.767c0.438-0.187 0.904-0.281 1.383-0.281h49.219c0.48 0 0.945 0.094 1.383 0.281 0.425 0.18 0.807 0.438 1.136 0.767s0.587 0.711 0.767 1.136c0.187 0.438 0.281 0.904 0.281 1.383v32.101h-56.353z" fill="#006f51"/></g><g transform="translate(489.14 461.7)"><path d="m0 0c0 0.479-0.094 0.944-0.281 1.383-0.18 0.424-0.438 0.806-0.767 1.135s-0.711 0.587-1.136 0.767c-0.438 0.187-0.988 0.282-1.467 0.282h-49.135c-0.479 0-0.945-0.095-1.383-0.282-0.425-0.18-0.807-0.438-1.136-0.767s-0.587-0.711-0.768-1.135c-0.186-0.439-0.28-0.904-0.28-1.383v-7.847h56.353z" fill="#006f51"/></g><g transform="translate(433.14 465.85)"><path d="m0 0c-0.66 0-1.196 0.536-1.196 1.195v8.56c0 0.659 0.536 1.195 1.196 1.195h23.54c0.658 0 1.194-0.536 1.194-1.195v-8.56c0-0.659-0.536-1.195-1.194-1.195z" fill="#ffd24f"/></g><g transform="translate(456.68 476.92)"><path d="m0 0h-23.54c-0.729 0-1.321-0.592-1.321-1.32v-8.56c0-0.728 0.592-1.32 1.321-1.32h23.54c0.727 0 1.319 0.592 1.319 1.32v8.56c0 0.728-0.592 1.32-1.319 1.32m0-0.25c0.587 0 1.069-0.481 1.069-1.07v-8.56c0-0.588-0.482-1.07-1.069-1.07h-23.54c-0.589 0-1.071 0.482-1.071 1.07v8.56c0 0.589 0.482 1.07 1.071 1.07h23.54"/></g><g transform="translate(457.04 467.04)"><path d="m0 0c0-0.095-0.036-0.182-0.105-0.251-0.07-0.069-0.156-0.106-0.251-0.106h-23.54c-0.096 0-0.183 0.037-0.251 0.106-0.07 0.069-0.106 0.156-0.106 0.251v8.56c0 0.096 0.036 0.183 0.106 0.251 0.068 0.069 0.155 0.106 0.251 0.106h23.54c0.095 0 0.181-0.037 0.251-0.106 0.069-0.068 0.105-0.155 0.105-0.251zm0.273 9.19c-0.169 0.169-0.393 0.262-0.629 0.262h-23.54c-0.238 0-0.461-0.093-0.63-0.262s-0.262-0.393-0.262-0.63v-8.56c0-0.237 0.093-0.46 0.262-0.629s0.392-0.262 0.63-0.262h23.54c0.236 0 0.46 0.093 0.629 0.262s0.262 0.392 0.262 0.629v8.56c0 0.237-0.093 0.461-0.262 0.63"/></g><g transform="translate(441.32 469.19)"><path d="m0 0v4.281h3.135v-0.766h-2.351v-0.796h1.281v-0.781h-1.281v-1.171h2.426v-0.767z"/></g><g transform="translate(446.27 472.7)"><path d="m0 0v-0.871h1.341v-0.781h-1.341v-1.863h-0.784v4.281h3.21v-0.766z"/></g><g transform="translate(437.35 469.19)"><path d="m0 0v4.281h0.768v-3.62h2.442v-0.661z"/></g><g transform="translate(451.23 472.72)"><path d="m0 0v-3.53h-0.75v3.53h-1.23v0.751h3.211v-0.751z"/></g><g transform="translate(437.55 457.34)"><path d="m0 0v4.28h3.135v-0.766h-2.351v-0.795h1.281v-0.782h-1.281v-1.171h2.426v-0.766z" fill="#fff"/></g><g transform="translate(454.46 457.34)"><path d="m0 0v4.28h3.135v-0.766h-2.352v-0.795h1.281v-0.782h-1.281v-1.171h2.427v-0.766z" fill="#fff"/></g><g transform="translate(448.01 460.86)"><path d="m0 0h-1.293v-1.066h1.293c0.375 0 0.63 0.21 0.63 0.526 0 0.33-0.255 0.54-0.63 0.54m0.735-1.667c-0.24-0.135-0.435-0.165-0.766-0.165h-1.262v-1.682h-0.781v4.28h2.043c0.331 0 0.526-0.045 0.766-0.18 0.405-0.225 0.66-0.646 0.66-1.126 0-0.451-0.255-0.901-0.66-1.127" fill="#fff"/></g><g transform="translate(452.13 460.86)"><path d="m0 0h-1.233v-1.066h1.233c0.375 0 0.615 0.21 0.615 0.526 0 0.33-0.24 0.54-0.615 0.54m0.615-3.514-0.69 1.682h-1.158v-1.682h-0.765v4.28h1.983c0.315 0 0.51-0.045 0.736-0.18 0.405-0.225 0.66-0.646 0.66-1.126 0-0.481-0.255-0.901-0.691-1.142l0.781-1.832z" fill="#fff"/></g><g transform="translate(459.86 459.26)"><path d="m0 0c-0.19 0.052-0.669 0.167-0.831 0.262-0.322 0.189-0.568 0.498-0.568 0.956 0 0.706 0.603 1.186 1.478 1.186 0.633 0 1.161-0.21 1.599-0.661l-0.573-0.51c-0.272 0.285-0.618 0.421-1.026 0.421-0.437 0-0.694-0.166-0.694-0.436 0-0.24 0.151-0.346 0.679-0.466 0.573-0.12 0.95-0.24 1.191-0.36 0.377-0.196 0.618-0.601 0.618-1.066 0-0.436-0.195-0.766-0.602-1.006-0.302-0.181-0.695-0.286-1.086-0.286-0.739 0-1.297 0.27-1.78 0.826l0.619 0.481c0.316-0.376 0.663-0.541 1.145-0.541 0.543 0 0.936 0.24 0.936 0.556 0 0.402-0.438 0.46-1.105 0.644" fill="#fff"/></g><g transform="translate(463.93 459.26)"><path d="m0 0c-0.191 0.052-0.67 0.167-0.831 0.262-0.323 0.189-0.569 0.498-0.569 0.956 0 0.706 0.604 1.186 1.478 1.186 0.634 0 1.162-0.21 1.599-0.661l-0.573-0.51c-0.271 0.285-0.619 0.421-1.026 0.421-0.437 0-0.694-0.166-0.694-0.436 0-0.24 0.151-0.346 0.679-0.466 0.573-0.12 0.95-0.24 1.191-0.36 0.377-0.196 0.619-0.601 0.619-1.066 0-0.436-0.196-0.766-0.604-1.006-0.301-0.181-0.693-0.286-1.086-0.286-0.738 0-1.297 0.27-1.779 0.826l0.618 0.481c0.317-0.376 0.664-0.541 1.147-0.541 0.543 0 0.935 0.24 0.935 0.556 0 0.402-0.437 0.46-1.104 0.644" fill="#fff"/></g><g transform="translate(444.18 457.34)"><path d="m0 0-0.965 1.517-0.95-1.517h-0.906l1.403 2.253-1.281 2.027h0.919l0.815-1.306 0.814 1.306h0.92l-1.266-2.027 1.402-2.253z" fill="#fff"/></g><g transform="translate(471.28 457.34)"><path d="m0 0v4.28h3.135v-0.766h-2.351v-0.795h1.281v-0.782h-1.281v-1.171h2.426v-0.766z" fill="#fff"/></g><path d="m479.67 461.62h0.77v-4.28h-0.77z" fill="#fff"/><g transform="translate(483.15 460.87)"><path d="m0 0v-3.53h-0.75v3.53h-1.229v0.75h3.21v-0.75z" fill="#fff"/></g><g transform="translate(477.91 457.34)"><path d="m0 0-0.965 1.517-0.95-1.517h-0.905l1.402 2.253-1.282 2.027h0.921l0.814-1.306 0.815 1.306h0.92l-1.267-2.027 1.402-2.253z" fill="#fff"/></g><g transform="translate(462.85 430.11)"><path d="m0 0c-4e-3 2e-3 -7e-3 5e-3 -0.011 7e-3 -0.024 0.013-0.048 0.023-0.073 0.03-2e-3 0-4e-3 2e-3 -7e-3 2e-3l1e-3 -1e-3c-9e-3 3e-3 -0.018 5e-3 -0.027 7e-3l-0.084 0.012-6.147 1.191-0.116 0.016c-0.116 0.017-0.231-0.022-0.308-0.099-0.088-0.088-0.126-0.203-0.103-0.313l0.014-0.077 1.201-6.166 0.018-0.108c0.017-0.071 0.049-0.127 0.104-0.182 0.137-0.137 0.363-0.142 0.505 1e-3 0.017 0.016 0.034 0.044 0.044 0.065l0.036 0.066 1.35 2.195 4.926-5.365 1.795 1.796-5.354 4.925h-0.011l2.162 1.329 0.079 0.055c0.027 0.016 0.054 0.033 0.076 0.055 0.138 0.137 0.138 0.367 1e-3 0.505-0.023 0.022-0.046 0.039-0.071 0.054" fill="#fff"/></g><g transform="translate(449.15 435.66)"><path d="m0 0c-3.699 0.752-6.418 4.074-6.418 7.867 0 1.787 0.618 3.593 1.716 4.973 0.721-0.22 1.57-0.35 2.354-0.35s1.63 0.125 2.351 0.345c0.721-0.22 1.567-0.345 2.351-0.345s1.633 0.13 2.353 0.35c1.098-1.38 1.716-3.186 1.716-4.973 0-3.793-2.723-7.115-6.423-7.867" fill="#fff" fill-rule="evenodd"/></g><g transform="translate(445.2 438.13)"><path d="m0 0c-0.297 0.321-0.59 0.652-0.831 1.019-0.243 0.37-0.477 0.749-0.655 1.155-0.177 0.403-0.344 0.814-0.449 1.242-0.107 0.43-0.202 0.867-0.231 1.31-0.03 0.442-0.044 0.885-1e-3 1.327 0.043 0.447 0.12 0.885 0.231 1.321 6e-3 0.022 6e-3 0.018 0.026 0.018h11.763c0.01 0 0.047-0.213 0.053-0.244 0.094-0.423 0.165-0.852 0.188-1.285 0.024-0.449 0.013-0.895-0.037-1.342-0.049-0.44-0.139-0.872-0.264-1.296s-0.288-0.835-0.482-1.233c-0.199-0.406-0.437-0.789-0.699-1.155-0.263-0.366-0.563-0.7-0.882-1.016-0.319-0.317-0.674-0.592-1.04-0.85-0.362-0.255-0.754-0.46-1.153-0.649-0.4-0.191-0.825-0.326-1.252-0.443-0.104-0.029-0.211-0.051-0.316-0.075-0.04-9e-3 -0.091 0.014-0.13 0.023-0.055 0.012-0.11 0.022-0.164 0.037-0.218 0.06-0.432 0.124-0.646 0.193-0.422 0.136-0.822 0.337-1.212 0.544-0.195 0.102-0.378 0.226-0.563 0.345-0.182 0.117-0.363 0.252-0.529 0.391-0.252 0.212-0.491 0.431-0.725 0.663" fill="#005596" fill-rule="evenodd"/></g><g transform="translate(443.35 445.79)"><path d="m0 0c0.119 0.409 0.275 0.813 0.467 1.194 0.201 0.4 0.427 0.785 0.694 1.144 0.018 0.026 0.032 0.065 0.064 0.056 0.082-0.023 0.164-0.044 0.247-0.064 0.159-0.038 0.319-0.071 0.479-0.1 0.32-0.059 0.643-0.099 0.969-0.121 0.645-0.045 1.293-6e-3 1.931 0.098 0.318 0.051 0.632 0.123 0.941 0.21 0.035 0.01 0.078-0.011 0.112-0.02 0.037-0.011 0.074-0.021 0.112-0.031 0.08-0.021 0.161-0.041 0.243-0.059 0.157-0.036 0.314-0.067 0.472-0.094 0.637-0.11 1.287-0.146 1.932-0.107 0.325 0.02 0.649 0.061 0.97 0.117 0.16 0.028 0.318 0.06 0.475 0.097 0.077 0.019 0.154 0.038 0.232 0.058 0.01 3e-3 0.072 0.026 0.078 0.018 9e-3 -0.014 0.02-0.027 0.031-0.041 0.136-0.184 0.262-0.374 0.381-0.568 0.229-0.373 0.418-0.768 0.581-1.174 0.081-0.201 0.149-0.406 0.213-0.613h-11.624" fill="#c0311a" fill-rule="evenodd"/></g><g transform="translate(453.26 446.06)"><path d="m0 0v0.187h-0.487v0.441h0.276v0.183h-0.276v0.338h0.435v0.187h-0.628v-1.336zm-0.862 1.158v0.178h-0.681v-0.178h0.244v-1.158h0.192v1.158zm-1.093-0.605h-0.194l0.095 0.385zm0.332-0.553-0.332 1.336h-0.188l-0.334-1.336h0.193l0.089 0.365h0.287l0.093-0.365zm-0.933 1.158v0.178h-0.68v-0.178h0.244v-1.158h0.192v1.158zm-0.803-0.793c0 0.193-0.112 0.338-0.37 0.488-0.098 0.056-0.127 0.094-0.127 0.16 0 0.089 0.071 0.155 0.161 0.155 0.084 0 0.149-0.061 0.154-0.155h0.182c-3e-3 0.201-0.149 0.347-0.336 0.347-0.193 0-0.343-0.155-0.343-0.347 0-0.117 0.056-0.221 0.164-0.296 0.272-0.183 0.197-0.131 0.225-0.159 0.08-0.061 0.108-0.117 0.108-0.193 0-0.108-0.084-0.201-0.188-0.201-0.131 0-0.187 0.117-0.187 0.23h-0.188c0-0.221 0.141-0.418 0.375-0.418 0.206 0 0.37 0.173 0.37 0.389m-1.087 0.615c0-0.108-0.061-0.169-0.173-0.169h-0.198v0.338h0.198c0.102 0 0.173-0.066 0.173-0.169m0.187-0.98-0.192 0.656c0.127 0.047 0.192 0.164 0.192 0.324 0 0.216-0.141 0.356-0.351 0.356h-0.399v-1.336h0.192v0.628h0.183l0.178-0.628zm-0.976 0v0.187h-0.487v0.441h0.277v0.183h-0.277v0.338h0.437v0.187h-0.629v-1.336zm-0.862 1.158v0.178h-0.68v-0.178h0.244v-1.158h0.192v1.158zm-0.863-1.158v1.336h-0.192v-0.802l-0.367 0.802h-0.192v-1.336h0.192v0.896l0.413-0.896zm-1.041 1.336h-0.189v-1.336h0.189z" fill="#fff" fill-rule="evenodd"/></g><g transform="translate(451.16 441.15)"><path d="m0 0c-0.631 0-1.149-0.427-1.149-0.923 0-0.518 0.518-0.946 1.149-0.946s1.172 0.428 1.172 0.946c0 0.496-0.519 0.923-1.172 0.923m0-2.905c-1.239 0-2.185 0.901-2.185 2.049 0 1.78 0.991 3.605 2.478 4.596l0.518-0.856c-0.788-0.608-1.194-1.126-1.577-1.937 0.361 0.067 0.518 0.067 0.766 0.067 1.194 0 2.186-0.878 2.186-1.959 0-1.104-0.947-1.96-2.186-1.96" fill="#fff"/></g><g transform="translate(448.36 443)"><path d="m0 0c-0.565-0.946-0.996-2.028-1.2-3.064-0.09-0.54-0.135-0.946-0.135-1.577h-1.041c0.022 1.487 0.293 2.726 0.927 4.078 0.227 0.495 0.498 0.968 0.725 1.329h-3.079v1.013h4.37v-1.013c-0.227-0.293-0.362-0.429-0.567-0.766" fill="#fff"/></g><g transform="translate(436.4 316.37)"><path d="m0 0c-2.426 0-4.4 1.974-4.4 4.401v38.481c0 2.427 1.974 4.402 4.4 4.402h49.171c2.427 0 4.401-1.975 4.401-4.402v-38.481c0-2.427-1.974-4.401-4.401-4.401z" fill="#fff"/></g><g transform="translate(485.57 363.78)"><path d="m0 0h-49.171c-2.495 0-4.525-2.031-4.525-4.527v-38.481c0-2.496 2.03-4.526 4.525-4.526h49.171c2.495 0 4.526 2.03 4.526 4.526v38.481c0 2.496-2.031 4.527-4.526 4.527m0-0.25c2.352 0 4.276-1.925 4.276-4.277v-38.481c0-2.352-1.924-4.276-4.276-4.276h-49.171c-2.351 0-4.275 1.924-4.275 4.276v38.481c0 2.352 1.924 4.277 4.275 4.277h49.171"/></g><g transform="translate(432.84 320.77)"><path d="m0 0c0-0.479 0.095-0.943 0.281-1.382 0.18-0.424 0.438-0.806 0.767-1.134 0.328-0.329 0.71-0.587 1.133-0.766 0.439-0.187 0.904-0.282 1.382-0.282h49.171c0.479 0 0.944 0.095 1.382 0.282 0.424 0.179 0.806 0.437 1.134 0.766 0.329 0.328 0.587 0.71 0.766 1.134 0.187 0.439 0.282 0.903 0.282 1.382v29.93h-56.298z" fill="#006f51"/></g><g transform="translate(489.14 359.25)"><path d="m0 0c0 0.479-0.095 0.944-0.282 1.382-0.179 0.424-0.437 0.806-0.766 1.134-0.328 0.329-0.71 0.587-1.134 0.767-0.438 0.186-0.987 0.281-1.466 0.281h-49.087c-0.478 0-0.943-0.095-1.382-0.281-0.423-0.18-0.805-0.438-1.133-0.767-0.329-0.328-0.587-0.71-0.767-1.134-0.186-0.438-0.281-0.903-0.281-1.382v-7.838h56.298z" fill="#006f51"/></g><g transform="translate(433.2 363.4)"><path d="m0 0c-0.658 0-1.193 0.535-1.193 1.193v8.552c0 0.658 0.535 1.194 1.193 1.194h23.517c0.658 0 1.194-0.536 1.194-1.194v-8.552c0-0.658-0.536-1.193-1.194-1.193z" fill="#ffd24f"/></g><g transform="translate(456.71 374.47)"><path d="m0 0h-23.517c-0.726 0-1.318-0.592-1.318-1.319v-8.552c0-0.726 0.592-1.318 1.318-1.318h23.517c0.727 0 1.319 0.592 1.319 1.318v8.552c0 0.727-0.592 1.319-1.319 1.319m0-0.25c0.588 0 1.069-0.481 1.069-1.069v-8.552c0-0.588-0.481-1.068-1.069-1.068h-23.517c-0.588 0-1.068 0.48-1.068 1.068v8.552c0 0.588 0.48 1.069 1.068 1.069h23.517"/></g><g transform="translate(457.07 364.6)"><path d="m0 0c0-0.095-0.036-0.181-0.105-0.251-0.068-0.068-0.155-0.105-0.251-0.105h-23.517c-0.094 0-0.181 0.037-0.251 0.105-0.068 0.07-0.105 0.156-0.105 0.251v8.552c0 0.096 0.037 0.183 0.105 0.251 0.07 0.069 0.157 0.105 0.251 0.105h23.517c0.096 0 0.183-0.036 0.251-0.105 0.069-0.068 0.105-0.155 0.105-0.251zm0.273 9.181c-0.169 0.169-0.392 0.262-0.629 0.262h-23.517c-0.236 0-0.46-0.093-0.629-0.262s-0.261-0.393-0.261-0.629v-8.552c0-0.236 0.092-0.46 0.261-0.629s0.393-0.261 0.629-0.261h23.517c0.237 0 0.46 0.092 0.629 0.261s0.262 0.393 0.262 0.629v8.552c0 0.236-0.093 0.46-0.262 0.629"/></g><g transform="translate(441.37 366.74)"><path d="m0 0v4.275h3.132v-0.765h-2.349v-0.795h1.28v-0.78h-1.28v-1.171h2.424v-0.764z"/></g><g transform="translate(446.31 370.25)"><path d="m0 0v-0.87h1.339v-0.78h-1.339v-1.86h-0.783v4.275h3.206v-0.765z"/></g><g transform="translate(437.4 366.74)"><path d="m0 0v4.275h0.769v-3.615h2.438v-0.66z"/></g><g transform="translate(451.27 370.27)"><path d="m0 0v-3.525h-0.75v3.525h-1.229v0.75h3.207v-0.75z"/></g><g transform="translate(437.6 354.91)"><path d="m0 0v4.276h3.132v-0.765h-2.349v-0.795h1.279v-0.781h-1.279v-1.17h2.424v-0.765z" fill="#fff"/></g><g transform="translate(454.49 354.91)"><path d="m0 0v4.276h3.132v-0.765h-2.349v-0.795h1.28v-0.781h-1.28v-1.17h2.424v-0.765z" fill="#fff"/></g><g transform="translate(448.05 358.42)"><path d="m0 0h-1.291v-1.066h1.291c0.375 0 0.63 0.21 0.63 0.525 0 0.331-0.255 0.541-0.63 0.541m0.734-1.666c-0.24-0.134-0.434-0.165-0.764-0.165h-1.261v-1.68h-0.78v4.276h2.041c0.33 0 0.524-0.046 0.764-0.181 0.405-0.224 0.66-0.644 0.66-1.125 0-0.45-0.255-0.9-0.66-1.125" fill="#fff"/></g><g transform="translate(452.17 358.42)"><path d="m0 0h-1.231v-1.066h1.231c0.375 0 0.614 0.21 0.614 0.525 0 0.331-0.239 0.541-0.614 0.541m0.614-3.511-0.689 1.68h-1.156v-1.68h-0.765v4.276h1.981c0.315 0 0.51-0.046 0.735-0.181 0.405-0.224 0.659-0.644 0.659-1.125 0-0.48-0.254-0.9-0.69-1.14l0.781-1.83z" fill="#fff"/></g><g transform="translate(459.89 356.82)"><path d="m0 0c-0.19 0.052-0.669 0.167-0.83 0.261-0.322 0.19-0.568 0.498-0.568 0.956 0 0.705 0.603 1.185 1.477 1.185 0.633 0 1.16-0.21 1.596-0.66l-0.572-0.511c-0.271 0.285-0.618 0.421-1.024 0.421-0.438 0-0.694-0.165-0.694-0.435 0-0.241 0.151-0.345 0.678-0.465 0.573-0.12 0.949-0.241 1.191-0.361 0.376-0.195 0.618-0.599 0.618-1.065 0-0.435-0.197-0.765-0.603-1.005-0.302-0.18-0.693-0.285-1.085-0.285-0.738 0-1.296 0.27-1.778 0.825l0.618 0.481c0.316-0.375 0.662-0.541 1.145-0.541 0.543 0 0.934 0.24 0.934 0.555 0 0.402-0.436 0.46-1.103 0.644" fill="#fff"/></g><g transform="translate(463.96 356.82)"><path d="m0 0c-0.19 0.052-0.669 0.167-0.83 0.261-0.322 0.19-0.568 0.498-0.568 0.956 0 0.705 0.602 1.185 1.476 1.185 0.633 0 1.16-0.21 1.598-0.66l-0.573-0.511c-0.271 0.285-0.618 0.421-1.025 0.421-0.436 0-0.692-0.165-0.692-0.435 0-0.241 0.15-0.345 0.678-0.465 0.572-0.12 0.949-0.241 1.19-0.361 0.376-0.195 0.617-0.599 0.617-1.065 0-0.435-0.195-0.765-0.602-1.005-0.301-0.18-0.694-0.285-1.085-0.285-0.739 0-1.296 0.27-1.778 0.825l0.618 0.481c0.316-0.375 0.663-0.541 1.145-0.541 0.542 0 0.934 0.24 0.934 0.555 0 0.402-0.437 0.46-1.103 0.644" fill="#fff"/></g><g transform="translate(444.22 354.91)"><path d="m0 0-0.965 1.515-0.949-1.515h-0.905l1.402 2.251-1.282 2.025h0.92l0.814-1.306 0.813 1.306h0.919l-1.265-2.025 1.401-2.251z" fill="#fff"/></g><g transform="translate(471.29 354.91)"><path d="m0 0v4.276h3.131v-0.765h-2.349v-0.795h1.28v-0.781h-1.28v-1.17h2.425v-0.765z" fill="#fff"/></g><path d="m479.68 359.18h0.769v-4.276h-0.769z" fill="#fff"/><g transform="translate(483.15 358.43)"><path d="m0 0v-3.525h-0.749v3.525h-1.228v0.751h3.207v-0.751z" fill="#fff"/></g><g transform="translate(477.92 354.91)"><path d="m0 0-0.965 1.515-0.949-1.515h-0.904l1.402 2.251-1.281 2.025h0.919l0.813-1.306 0.815 1.306h0.919l-1.266-2.025 1.401-2.251z" fill="#fff"/></g><g transform="translate(449.19 333.24)"><path d="m0 0c-3.695 0.752-6.411 4.071-6.411 7.86 0 1.785 0.617 3.589 1.713 4.967 0.721-0.219 1.569-0.349 2.352-0.349s1.629 0.125 2.349 0.344c0.72-0.219 1.566-0.344 2.349-0.344 0.782 0 1.631 0.13 2.352 0.349 1.095-1.378 1.712-3.182 1.712-4.967 0-3.789-2.72-7.108-6.416-7.86" fill="#fff" fill-rule="evenodd"/></g><g transform="translate(445.24 335.71)"><path d="m0 0c-0.297 0.321-0.589 0.652-0.83 1.018-0.242 0.369-0.476 0.748-0.654 1.153-0.178 0.403-0.344 0.814-0.449 1.242-0.106 0.429-0.202 0.866-0.231 1.308s-0.043 0.884-1e-3 1.325c0.043 0.448 0.12 0.885 0.231 1.321 5e-3 0.022 5e-3 0.017 0.026 0.017h11.751c0.011 0 0.047-0.213 0.054-0.243 0.093-0.422 0.165-0.852 0.187-1.283 0.025-0.449 0.013-0.896-0.037-1.342-0.049-0.438-0.139-0.871-0.264-1.294-0.125-0.424-0.287-0.835-0.482-1.232-0.199-0.406-0.436-0.788-0.698-1.155-0.262-0.365-0.563-0.698-0.881-1.014-0.318-0.317-0.673-0.591-1.039-0.849-0.361-0.255-0.753-0.46-1.151-0.649-0.4-0.19-0.824-0.326-1.251-0.442-0.104-0.029-0.21-0.051-0.316-0.075-0.04-9e-3 -0.091 0.015-0.13 0.023-0.055 0.012-0.11 0.023-0.164 0.038-0.217 0.059-0.431 0.123-0.644 0.192-0.422 0.136-0.822 0.337-1.212 0.543-0.195 0.102-0.377 0.226-0.562 0.346-0.182 0.116-0.363 0.251-0.528 0.389-0.252 0.212-0.491 0.431-0.725 0.663" fill="#005596" fill-rule="evenodd"/></g><g transform="translate(443.39 343.37)"><path d="m0 0c0.119 0.409 0.275 0.812 0.466 1.194 0.201 0.399 0.427 0.783 0.694 1.143 0.018 0.025 0.031 0.063 0.063 0.055 0.082-0.023 0.165-0.044 0.247-0.064 0.159-0.037 0.319-0.071 0.479-0.101 0.319-0.057 0.643-0.097 0.968-0.12 0.644-0.044 1.292-6e-3 1.929 0.098 0.318 0.052 0.631 0.123 0.941 0.21 0.034 0.011 0.076-0.011 0.111-0.021l0.111-0.03c0.081-0.021 0.163-0.041 0.244-0.06 0.156-0.035 0.313-0.066 0.471-0.092 0.637-0.111 1.286-0.147 1.93-0.108 0.325 0.02 0.648 0.062 0.97 0.116 0.159 0.03 0.317 0.061 0.474 0.098 0.077 0.019 0.155 0.038 0.231 0.058 0.011 4e-3 0.072 0.026 0.078 0.018 0.011-0.013 0.02-0.027 0.031-0.042 0.136-0.182 0.262-0.373 0.381-0.567 0.229-0.372 0.417-0.767 0.58-1.172 0.081-0.201 0.15-0.406 0.213-0.613h-11.612" fill="#c0311a" fill-rule="evenodd"/></g><g transform="translate(453.29 343.63)"><path d="m0 0v0.188h-0.487v0.44h0.276v0.183h-0.276v0.338h0.435v0.187h-0.628v-1.336zm-0.862 1.158v0.178h-0.679v-0.178h0.243v-1.158h0.193v1.158zm-1.092-0.605h-0.191l0.092 0.385zm0.333-0.553-0.333 1.336h-0.187l-0.333-1.336h0.192l0.09 0.367h0.285l0.094-0.367zm-0.933 1.158v0.178h-0.679v-0.178h0.244v-1.158h0.192v1.158zm-0.8-0.791c0 0.191-0.113 0.336-0.371 0.486-0.098 0.056-0.126 0.095-0.126 0.16 0 0.089 0.07 0.154 0.159 0.154 0.085 0 0.15-0.06 0.154-0.154h0.184c-5e-3 0.201-0.151 0.347-0.338 0.347-0.192 0-0.342-0.156-0.342-0.347 0-0.117 0.057-0.221 0.164-0.296 0.271-0.183 0.196-0.131 0.225-0.159 0.08-0.061 0.107-0.117 0.107-0.191 0-0.109-0.084-0.203-0.187-0.203-0.131 0-0.187 0.118-0.187 0.23h-0.188c0-0.22 0.141-0.417 0.375-0.417 0.207 0 0.371 0.174 0.371 0.39m-1.087 0.613c0-0.108-0.062-0.169-0.174-0.169h-0.197v0.338h0.197c0.103 0 0.174-0.066 0.174-0.169m0.187-0.98-0.192 0.657c0.126 0.046 0.192 0.164 0.192 0.323 0 0.216-0.14 0.356-0.351 0.356h-0.399v-1.336h0.192v0.628h0.183l0.178-0.628zm-0.975 0v0.188h-0.488v0.44h0.278v0.183h-0.278v0.338h0.437v0.187h-0.628v-1.336zm-0.862 1.158v0.178h-0.679v-0.178h0.243v-1.158h0.192v1.158zm-0.862-1.158v1.336h-0.192v-0.802l-0.366 0.802h-0.192v-1.336h0.192v0.896l0.412-0.896zm-1.04 1.336h-0.188v-1.336h0.188z" fill="#fff" fill-rule="evenodd"/></g><g transform="translate(451.56 338.73)"><path d="m0 0c-0.631 0-1.149-0.427-1.149-0.922 0-0.517 0.518-0.945 1.149-0.945 0.629 0 1.17 0.428 1.17 0.945 0 0.495-0.518 0.922-1.17 0.922m0-2.902c-1.239 0-2.184 0.9-2.184 2.048 0 1.777 0.99 3.6 2.476 4.59l0.517-0.855c-0.787-0.608-1.192-1.125-1.575-1.936 0.36 0.068 0.518 0.068 0.766 0.068 1.192 0 2.182-0.877 2.182-1.957 0-1.104-0.945-1.958-2.182-1.958" fill="#fff"/></g><g transform="translate(448.39 340.57)"><path d="m0 0c-0.566-0.946-0.996-2.026-1.2-3.061-0.09-0.54-0.135-0.945-0.135-1.575h-1.04c0.022 1.485 0.293 2.723 0.927 4.073 0.226 0.495 0.497 0.968 0.724 1.328h-3.077v1.013h4.366v-1.013c-0.226-0.293-0.361-0.427-0.565-0.765" fill="#fff"/></g><g transform="translate(472.43 323.27)"><path d="m0 0v4.275h3.131v-0.764h-2.349v-0.796h1.28v-0.779h-1.28v-1.171h2.424v-0.765z" fill="#fff"/></g><path d="m466.61 327.54h0.77v-4.275h-0.77z" fill="#fff"/><g transform="translate(468.49 323.27)"><path d="m0 0v4.275h0.769v-3.615h2.438v-0.66z" fill="#fff"/></g><g transform="translate(464.75 323.27)"><path d="m0 0v2.61l-1.265-2.61-1.25 2.61v-2.61h-0.752v4.275h0.752l1.25-2.535 1.265 2.535h0.754v-4.275z" fill="#fff"/></g><g transform="translate(447.26 324.34)"><path d="m0 0 0.014 3.197h-0.537l-0.014 0.615c0.328 0.074 0.506 0.194 0.671 0.465h0.611v-4.277z" fill="#fff"/></g><g transform="translate(451.6 322.2)"><path d="m0 0c0 0.51 0.105 0.885 0.345 1.305 0.377 0.63 0.92 1.02 1.703 1.23 0.483 0.136 0.648 0.285 0.648 0.541 0 0.314-0.301 0.495-0.844 0.495-0.557 0-0.964-0.136-1.325-0.466l-0.527 0.585c0.497 0.436 1.114 0.66 1.807 0.66 1.01 0 1.657-0.495 1.657-1.274 0-0.36-0.15-0.691-0.436-0.931-0.136-0.104-0.332-0.21-0.633-0.3-0.573-0.165-0.738-0.24-0.995-0.464-0.195-0.165-0.316-0.33-0.467-0.616h2.531v-0.765z" fill="#fff"/></g><g transform="translate(448.43 322.2)"><path d="m0 0h-0.764l3.729 6.414h0.764z" fill="#fff"/></g><g transform="translate(436.4 216.03)"><path d="m0 0c-2.426 0-4.4 1.974-4.4 4.401v38.482c0 2.426 1.974 4.401 4.4 4.401h49.171c2.427 0 4.401-1.975 4.401-4.401v-38.482c0-2.427-1.974-4.401-4.401-4.401z" fill="#fff"/></g><g transform="translate(485.57 263.44)"><path d="m0 0h-49.171c-2.495 0-4.525-2.03-4.525-4.526v-38.482c0-2.496 2.03-4.526 4.525-4.526h49.171c2.495 0 4.526 2.03 4.526 4.526v38.482c0 2.496-2.031 4.526-4.526 4.526m0-0.25c2.352 0 4.276-1.925 4.276-4.276v-38.482c0-2.351-1.924-4.276-4.276-4.276h-49.171c-2.351 0-4.275 1.925-4.275 4.276v38.482c0 2.351 1.924 4.276 4.275 4.276h49.171"/></g><g transform="translate(432.84 220.43)"><path d="m0 0c0-0.478 0.095-0.943 0.281-1.382 0.18-0.424 0.438-0.805 0.767-1.133 0.328-0.33 0.71-0.587 1.133-0.767 0.439-0.187 0.904-0.281 1.382-0.281h49.171c0.479 0 0.944 0.094 1.382 0.281 0.424 0.18 0.806 0.437 1.134 0.767 0.329 0.328 0.587 0.709 0.766 1.133 0.187 0.439 0.282 0.904 0.282 1.382v29.93h-56.298z" fill="#006f51"/></g><g transform="translate(489.14 258.91)"><path d="m0 0c0 0.478-0.095 0.943-0.282 1.381-0.179 0.424-0.437 0.806-0.766 1.134-0.328 0.329-0.71 0.587-1.134 0.767-0.438 0.186-0.987 0.281-1.466 0.281h-49.087c-0.478 0-0.943-0.095-1.382-0.281-0.423-0.18-0.805-0.438-1.133-0.767-0.329-0.328-0.587-0.71-0.767-1.134-0.186-0.438-0.281-0.903-0.281-1.381v-7.839h56.298z" fill="#006f51"/></g><g transform="translate(433.2 263.06)"><path d="m0 0c-0.658 0-1.193 0.536-1.193 1.194v8.551c0 0.658 0.535 1.193 1.193 1.193h23.517c0.658 0 1.194-0.535 1.194-1.193v-8.551c0-0.658-0.536-1.194-1.194-1.194z" fill="#ffd24f"/></g><g transform="translate(456.71 274.13)"><path d="m0 0h-23.517c-0.726 0-1.318-0.591-1.318-1.318v-8.551c0-0.727 0.592-1.319 1.318-1.319h23.517c0.727 0 1.319 0.592 1.319 1.319v8.551c0 0.727-0.592 1.318-1.319 1.318m0-0.25c0.588 0 1.069-0.48 1.069-1.068v-8.551c0-0.588-0.481-1.069-1.069-1.069h-23.517c-0.588 0-1.068 0.481-1.068 1.069v8.551c0 0.588 0.48 1.068 1.068 1.068h23.517"/></g><g transform="translate(457.07 264.26)"><path d="m0 0c0-0.095-0.036-0.182-0.105-0.252-0.068-0.068-0.155-0.105-0.251-0.105h-23.517c-0.094 0-0.181 0.037-0.251 0.105-0.068 0.07-0.105 0.157-0.105 0.252v8.551c0 0.096 0.037 0.182 0.105 0.251 0.07 0.069 0.157 0.106 0.251 0.106h23.517c0.096 0 0.183-0.037 0.251-0.106 0.069-0.069 0.105-0.155 0.105-0.251zm0.273 9.18c-0.169 0.169-0.392 0.262-0.629 0.262h-23.517c-0.236 0-0.46-0.093-0.629-0.262s-0.261-0.393-0.261-0.629v-8.551c0-0.237 0.092-0.461 0.261-0.63s0.393-0.261 0.629-0.261h23.517c0.237 0 0.46 0.092 0.629 0.261s0.262 0.393 0.262 0.63v8.551c0 0.236-0.093 0.46-0.262 0.629"/></g><g transform="translate(441.37 266.4)"><path d="m0 0v4.275h3.132v-0.764h-2.349v-0.795h1.28v-0.782h-1.28v-1.169h2.424v-0.765z"/></g><g transform="translate(446.31 269.91)"><path d="m0 0v-0.871h1.339v-0.78h-1.339v-1.86h-0.783v4.275h3.206v-0.764z"/></g><g transform="translate(437.4 266.4)"><path d="m0 0v4.275h0.769v-3.615h2.438v-0.66z"/></g><g transform="translate(451.27 269.92)"><path d="m0 0v-3.525h-0.75v3.525h-1.229v0.75h3.207v-0.75z"/></g><g transform="translate(437.6 254.56)"><path d="m0 0v4.276h3.132v-0.765h-2.349v-0.795h1.279v-0.78h-1.279v-1.17h2.424v-0.766z" fill="#fff"/></g><g transform="translate(454.49 254.56)"><path d="m0 0v4.276h3.132v-0.765h-2.349v-0.795h1.28v-0.78h-1.28v-1.17h2.424v-0.766z" fill="#fff"/></g><g transform="translate(448.05 258.07)"><path d="m0 0h-1.291v-1.066h1.291c0.375 0 0.63 0.21 0.63 0.526 0 0.33-0.255 0.54-0.63 0.54m0.734-1.665c-0.24-0.135-0.434-0.165-0.764-0.165h-1.261v-1.681h-0.78v4.276h2.041c0.33 0 0.524-0.046 0.764-0.18 0.405-0.225 0.66-0.645 0.66-1.125 0-0.451-0.255-0.901-0.66-1.125" fill="#fff"/></g><g transform="translate(452.17 258.07)"><path d="m0 0h-1.231v-1.066h1.231c0.375 0 0.614 0.21 0.614 0.526 0 0.33-0.239 0.54-0.614 0.54m0.614-3.511-0.689 1.681h-1.156v-1.681h-0.765v4.276h1.981c0.315 0 0.51-0.046 0.735-0.18 0.405-0.225 0.659-0.645 0.659-1.125 0-0.481-0.254-0.901-0.69-1.141l0.781-1.83z" fill="#fff"/></g><g transform="translate(459.89 256.48)"><path d="m0 0c-0.19 0.053-0.669 0.167-0.83 0.262-0.322 0.189-0.568 0.498-0.568 0.955 0 0.705 0.603 1.185 1.477 1.185 0.633 0 1.16-0.21 1.596-0.66l-0.572-0.511c-0.271 0.286-0.618 0.421-1.024 0.421-0.438 0-0.694-0.165-0.694-0.435 0-0.241 0.151-0.345 0.678-0.465 0.573-0.12 0.949-0.24 1.191-0.36 0.376-0.196 0.618-0.6 0.618-1.066 0-0.434-0.197-0.765-0.603-1.005-0.302-0.179-0.693-0.285-1.085-0.285-0.738 0-1.296 0.271-1.778 0.825l0.618 0.481c0.316-0.375 0.662-0.54 1.145-0.54 0.543 0 0.934 0.239 0.934 0.554 0 0.402-0.436 0.46-1.103 0.644" fill="#fff"/></g><g transform="translate(463.96 256.48)"><path d="m0 0c-0.19 0.053-0.669 0.167-0.83 0.262-0.322 0.189-0.568 0.498-0.568 0.955 0 0.705 0.602 1.185 1.476 1.185 0.633 0 1.16-0.21 1.598-0.66l-0.573-0.511c-0.271 0.286-0.618 0.421-1.025 0.421-0.436 0-0.692-0.165-0.692-0.435 0-0.241 0.15-0.345 0.678-0.465 0.572-0.12 0.949-0.24 1.19-0.36 0.376-0.196 0.617-0.6 0.617-1.066 0-0.434-0.195-0.765-0.602-1.005-0.301-0.179-0.694-0.285-1.085-0.285-0.739 0-1.296 0.271-1.778 0.825l0.618 0.481c0.316-0.375 0.663-0.54 1.145-0.54 0.542 0 0.934 0.239 0.934 0.554 0 0.402-0.437 0.46-1.103 0.644" fill="#fff"/></g><g transform="translate(444.22 254.56)"><path d="m0 0-0.965 1.516-0.949-1.516h-0.905l1.402 2.251-1.282 2.025h0.92l0.814-1.305 0.813 1.305h0.919l-1.265-2.025 1.401-2.251z" fill="#fff"/></g><g transform="translate(471.29 254.56)"><path d="m0 0v4.276h3.131v-0.765h-2.349v-0.795h1.28v-0.78h-1.28v-1.17h2.425v-0.766z" fill="#fff"/></g><path d="m479.68 258.84h0.769v-4.276h-0.769z" fill="#fff"/><g transform="translate(483.15 258.09)"><path d="m0 0v-3.525h-0.749v3.525h-1.228v0.751h3.207v-0.751z" fill="#fff"/></g><g transform="translate(477.92 254.56)"><path d="m0 0-0.965 1.516-0.949-1.516h-0.904l1.402 2.251-1.281 2.025h0.919l0.813-1.305 0.815 1.305h0.919l-1.266-2.025 1.401-2.251z" fill="#fff"/></g><g transform="translate(449.19 232.9)"><path d="m0 0c-3.695 0.752-6.411 4.071-6.411 7.86 0 1.785 0.617 3.589 1.713 4.967 0.721-0.219 1.569-0.349 2.352-0.349s1.629 0.125 2.349 0.344c0.72-0.219 1.566-0.344 2.349-0.344 0.782 0 1.631 0.13 2.352 0.349 1.095-1.378 1.712-3.182 1.712-4.967 0-3.789-2.72-7.108-6.416-7.86" fill="#fff" fill-rule="evenodd"/></g><g transform="translate(445.24 235.37)"><path d="m0 0c-0.297 0.32-0.589 0.65-0.83 1.017-0.242 0.369-0.476 0.748-0.654 1.153-0.178 0.403-0.344 0.814-0.449 1.243-0.106 0.428-0.202 0.865-0.231 1.307-0.029 0.443-0.043 0.884-1e-3 1.325 0.043 0.448 0.12 0.885 0.231 1.321 5e-3 0.022 5e-3 0.017 0.026 0.017h11.751c0.011 0 0.047-0.213 0.054-0.243 0.093-0.422 0.165-0.851 0.187-1.283 0.025-0.449 0.013-0.896-0.037-1.342-0.049-0.438-0.139-0.871-0.264-1.294-0.125-0.424-0.287-0.835-0.482-1.232-0.199-0.405-0.436-0.788-0.698-1.154s-0.563-0.699-0.881-1.015c-0.318-0.317-0.673-0.591-1.039-0.849-0.361-0.255-0.753-0.46-1.151-0.649-0.4-0.19-0.824-0.325-1.251-0.442-0.104-0.029-0.21-0.05-0.316-0.075-0.04-9e-3 -0.091 0.015-0.13 0.023-0.055 0.012-0.11 0.023-0.164 0.038-0.217 0.059-0.431 0.123-0.644 0.192-0.422 0.136-0.822 0.337-1.212 0.543-0.195 0.103-0.377 0.227-0.562 0.346-0.182 0.116-0.363 0.251-0.528 0.389-0.252 0.212-0.491 0.431-0.725 0.664" fill="#005596" fill-rule="evenodd"/></g><g transform="translate(443.39 243.02)"><path d="m0 0c0.119 0.409 0.275 0.812 0.466 1.194 0.201 0.4 0.427 0.783 0.694 1.143 0.018 0.025 0.031 0.063 0.063 0.056 0.082-0.024 0.165-0.044 0.247-0.065 0.159-0.037 0.319-0.071 0.479-0.101 0.319-0.057 0.643-0.097 0.968-0.12 0.644-0.044 1.292-6e-3 1.929 0.098 0.318 0.052 0.631 0.123 0.941 0.21 0.034 0.011 0.076-0.011 0.111-0.021 0.037-9e-3 0.074-0.02 0.111-0.03 0.081-0.02 0.163-0.041 0.244-0.059 0.156-0.036 0.313-0.067 0.471-0.093 0.637-0.111 1.286-0.147 1.93-0.108 0.325 0.02 0.648 0.062 0.97 0.117 0.159 0.029 0.317 0.06 0.474 0.097 0.077 0.019 0.155 0.038 0.231 0.058 0.011 4e-3 0.072 0.026 0.078 0.018 0.011-0.013 0.02-0.027 0.031-0.042 0.136-0.182 0.262-0.373 0.381-0.567 0.229-0.372 0.417-0.767 0.58-1.172 0.081-0.201 0.15-0.406 0.213-0.613h-11.612" fill="#c0311a" fill-rule="evenodd"/></g><g transform="translate(453.29 243.29)"><path d="m0 0v0.187h-0.487v0.44h0.276v0.183h-0.276v0.338h0.435v0.187h-0.628v-1.335zm-0.862 1.157v0.178h-0.679v-0.178h0.243v-1.157h0.193v1.157zm-1.092-0.605h-0.191l0.092 0.385zm0.333-0.552-0.333 1.335h-0.187l-0.333-1.335h0.192l0.09 0.366h0.285l0.094-0.366zm-0.933 1.157v0.178h-0.679v-0.178h0.244v-1.157h0.192v1.157zm-0.8-0.791c0 0.191-0.113 0.337-0.371 0.486-0.098 0.057-0.126 0.095-0.126 0.16 0 0.089 0.07 0.154 0.159 0.154 0.085 0 0.15-0.06 0.154-0.154h0.184c-5e-3 0.201-0.151 0.347-0.338 0.347-0.192 0-0.342-0.155-0.342-0.347 0-0.117 0.057-0.221 0.164-0.296 0.271-0.182 0.196-0.131 0.225-0.159 0.08-0.06 0.107-0.117 0.107-0.191 0-0.109-0.084-0.202-0.187-0.202-0.131 0-0.187 0.117-0.187 0.229h-0.188c0-0.22 0.141-0.417 0.375-0.417 0.207 0 0.371 0.174 0.371 0.39m-1.087 0.613c0-0.107-0.062-0.169-0.174-0.169h-0.197v0.338h0.197c0.103 0 0.174-0.065 0.174-0.169m0.187-0.979-0.192 0.656c0.126 0.047 0.192 0.164 0.192 0.323 0 0.216-0.14 0.356-0.351 0.356h-0.399v-1.335h0.192v0.627h0.183l0.178-0.627zm-0.975 0v0.187h-0.488v0.44h0.278v0.183h-0.278v0.338h0.437v0.187h-0.628v-1.335zm-0.862 1.157v0.178h-0.679v-0.178h0.243v-1.157h0.192v1.157zm-0.862-1.157v1.335h-0.192v-0.801l-0.366 0.801h-0.192v-1.335h0.192v0.895l0.412-0.895zm-1.04 1.335h-0.188v-1.335h0.188z" fill="#fff" fill-rule="evenodd"/></g><g transform="translate(451.56 238.39)"><path d="m0 0c-0.631 0-1.149-0.427-1.149-0.922 0-0.517 0.518-0.945 1.149-0.945 0.629 0 1.17 0.428 1.17 0.945 0 0.495-0.518 0.922-1.17 0.922m0-2.902c-1.239 0-2.184 0.9-2.184 2.048 0 1.777 0.99 3.6 2.476 4.591l0.517-0.856c-0.787-0.607-1.192-1.125-1.575-1.935 0.36 0.067 0.518 0.067 0.766 0.067 1.192 0 2.182-0.877 2.182-1.957 0-1.104-0.945-1.958-2.182-1.958" fill="#fff"/></g><g transform="translate(448.39 240.23)"><path d="m0 0c-0.566-0.945-0.996-2.025-1.2-3.061-0.09-0.54-0.135-0.945-0.135-1.575h-1.04c0.022 1.486 0.293 2.723 0.927 4.073 0.226 0.496 0.497 0.968 0.724 1.329h-3.077v1.012h4.366v-1.012c-0.226-0.293-0.361-0.428-0.565-0.766" fill="#fff"/></g><g transform="translate(465.05 240.52)"><path d="m0 0h-4.013v5.35h3.826v-0.961h-2.864v-1.071h1.714v-0.961h-1.714v-1.397h3.051z" fill="#fff"/></g><g transform="translate(468.39 242.28)"><path d="m0 0-0.612 1.47-0.616-1.47zm1.57-1.753h-0.835l-0.41 0.979h-1.875l-0.41-0.979h-0.835l1.789 4.28h0.783z" fill="#fff"/></g><g transform="translate(473.76 244.13)"><path d="m0 0-0.582-0.478c-0.212 0.162-0.363 0.268-0.454 0.316-0.18 0.098-0.374 0.147-0.582 0.147-0.18 0-0.34-0.049-0.479-0.145-0.138-0.095-0.207-0.201-0.207-0.318 2e-3 -0.234 0.318-0.412 0.946-0.535 0.506-0.101 0.89-0.278 1.153-0.531 0.228-0.226 0.343-0.484 0.343-0.776 0-0.346-0.153-0.65-0.459-0.916-0.322-0.274-0.714-0.411-1.176-0.411-0.451 0-0.813 0.071-1.083 0.214-0.215 0.115-0.464 0.334-0.749 0.656l0.624 0.476c0.139-0.185 0.284-0.322 0.432-0.406 0.202-0.112 0.46-0.168 0.774-0.168 0.242 0 0.447 0.056 0.614 0.168 0.166 0.112 0.25 0.241 0.25 0.389 0 0.25-0.287 0.434-0.86 0.548-1.055 0.21-1.581 0.634-1.581 1.27 0 0.365 0.143 0.665 0.432 0.899 0.277 0.221 0.615 0.332 1.015 0.332 0.384 0 0.705-0.067 0.965-0.204 0.174-0.092 0.395-0.267 0.664-0.527" fill="#fff"/></g><g transform="translate(477.58 244.03)"><path d="m0 0h-1.208v-3.507h-0.798v3.507h-1.204v0.773h3.21z" fill="#fff"/></g><g transform="translate(469.03 222.93)"><path d="m0 0v4.278h3.133v-0.766h-2.35v-0.796h1.28v-0.78h-1.28v-1.17h2.424v-0.766z" fill="#fff"/></g><path d="m463.21 227.2h0.769v-4.278h-0.769z" fill="#fff"/><g transform="translate(465.09 222.93)"><path d="m0 0v4.278h0.769v-3.618h2.44v-0.66z" fill="#fff"/></g><g transform="translate(461.35 222.93)"><path d="m0 0v2.612l-1.266-2.612-1.25 2.612v-2.612h-0.754v4.278h0.754l1.25-2.537 1.266 2.537h0.754v-4.278z" fill="#fff"/></g><g transform="translate(450.55 221.86)"><path d="m0 0 0.021 4.795h-0.804l-0.024 0.923c0.492 0.112 0.762 0.292 1.008 0.697h0.918v-6.415z" fill="#fff"/></g><g transform="translate(465.02 443.29)"><path d="m0 0h-4.012v5.349h3.826v-0.961h-2.864v-1.07h1.714v-0.961h-1.714v-1.397h3.05z" fill="#fff"/></g><g transform="translate(468.36 445.04)"><path d="m0 0-0.611 1.47-0.616-1.47zm1.571-1.752h-0.835l-0.411 0.98h-1.875l-0.41-0.98h-0.835l1.789 4.279h0.784z" fill="#fff"/></g><g transform="translate(473.73 446.89)"><path d="m0 0-0.582-0.479c-0.212 0.163-0.362 0.269-0.454 0.318-0.179 0.096-0.374 0.145-0.582 0.145-0.179 0-0.34-0.049-0.478-0.144-0.138-0.096-0.207-0.202-0.207-0.319 2e-3 -0.234 0.318-0.412 0.946-0.535 0.506-0.1 0.89-0.277 1.152-0.531 0.229-0.225 0.344-0.483 0.344-0.775 0-0.345-0.153-0.651-0.459-0.916-0.322-0.275-0.715-0.411-1.177-0.411-0.451 0-0.812 0.07-1.083 0.214-0.215 0.114-0.464 0.333-0.749 0.655l0.624 0.476c0.14-0.185 0.284-0.32 0.433-0.405 0.202-0.112 0.46-0.168 0.773-0.168 0.243 0 0.448 0.056 0.615 0.168 0.166 0.111 0.25 0.24 0.25 0.388 0 0.251-0.287 0.434-0.861 0.549-1.054 0.21-1.581 0.633-1.581 1.27 0 0.364 0.144 0.664 0.433 0.898 0.276 0.222 0.615 0.333 1.014 0.333 0.384 0 0.706-0.068 0.965-0.204 0.174-0.092 0.396-0.268 0.664-0.527" fill="#fff"/></g><g transform="translate(477.55 446.79)"><path d="m0 0h-1.208v-3.506h-0.798v3.506h-1.204v0.773h3.21z" fill="#fff"/></g><g transform="translate(465.05 340.87)"><path d="m0 0h-4.013v5.349h3.826v-0.961h-2.864v-1.07h1.714v-0.961h-1.714v-1.397h3.051z" fill="#fff"/></g><g transform="translate(468.39 342.62)"><path d="m0 0-0.612 1.469-0.616-1.469zm1.57-1.753h-0.835l-0.41 0.979h-1.875l-0.41-0.979h-0.835l1.789 4.28h0.783z" fill="#fff"/></g><g transform="translate(473.76 344.47)"><path d="m0 0-0.582-0.478c-0.212 0.162-0.363 0.267-0.454 0.316-0.18 0.098-0.374 0.147-0.582 0.147-0.18 0-0.34-0.049-0.479-0.145-0.138-0.096-0.207-0.201-0.207-0.318 2e-3 -0.235 0.318-0.412 0.946-0.535 0.506-0.101 0.89-0.278 1.153-0.532 0.228-0.225 0.343-0.483 0.343-0.775 0-0.346-0.153-0.65-0.459-0.916-0.322-0.274-0.714-0.411-1.176-0.411-0.451 0-0.813 0.071-1.083 0.214-0.215 0.115-0.464 0.334-0.749 0.656l0.624 0.476c0.139-0.185 0.284-0.322 0.432-0.406 0.202-0.112 0.46-0.168 0.774-0.168 0.242 0 0.447 0.056 0.614 0.168 0.166 0.112 0.25 0.24 0.25 0.389 0 0.25-0.287 0.433-0.86 0.548-1.055 0.21-1.581 0.634-1.581 1.27 0 0.365 0.143 0.664 0.432 0.899 0.277 0.22 0.615 0.332 1.015 0.332 0.384 0 0.705-0.068 0.965-0.204 0.174-0.092 0.395-0.267 0.664-0.527" fill="#fff"/></g><g transform="translate(477.58 344.37)"><path d="m0 0h-1.208v-3.507h-0.798v3.507h-1.204v0.773h3.21z" fill="#fff"/></g><g transform="translate(436.78 123.18)"><path d="m0 0c-2.706 0-4.907 2.202-4.907 4.908v33.477c0 2.706 2.201 4.907 4.907 4.907h71.736c2.706 0 4.907-2.201 4.907-4.907v-33.477c0-2.706-2.201-4.908-4.907-4.908z" fill="#fff"/></g><g transform="translate(508.52 166.6)"><path d="m0 0h-71.736c-2.774 0-5.032-2.258-5.032-5.032v-33.477c0-2.775 2.258-5.033 5.032-5.033h71.736c2.774 0 5.032 2.258 5.032 5.033v33.477c0 2.774-2.258 5.032-5.032 5.032m0-0.25c2.63 0 4.782-2.152 4.782-4.782v-33.477c0-2.631-2.152-4.783-4.782-4.783h-71.736c-2.63 0-4.782 2.152-4.782 4.783v33.477c0 2.63 2.152 4.782 4.782 4.782h71.736"/></g><g transform="translate(512.5 152)"><path d="m0 0v-23.912c0-0.535-0.106-1.055-0.314-1.546-0.202-0.474-0.49-0.9-0.858-1.268-0.367-0.367-0.794-0.655-1.269-0.858-0.49-0.208-1.009-0.313-1.544-0.313h-71.736c-0.535 0-1.055 0.105-1.545 0.313-0.474 0.203-0.901 0.491-1.269 0.858-0.367 0.368-0.656 0.794-0.858 1.268-0.208 0.491-0.313 1.011-0.313 1.546v23.912z" fill="#006f51"/></g><g transform="translate(432.8 152.8)"><path d="m0 0v8.768c0 0.534 0.105 1.055 0.313 1.545 0.202 0.474 0.491 0.901 0.858 1.268 0.368 0.369 0.795 0.657 1.269 0.858 0.49 0.209 1.01 0.314 1.545 0.314h71.736c0.535 0 1.054-0.105 1.544-0.314 0.475-0.201 0.902-0.489 1.269-0.858 0.368-0.367 0.656-0.794 0.858-1.268 0.208-0.49 0.314-1.011 0.314-1.545v-8.768z" fill="#006f51"/></g><g transform="translate(442.76 138.45)"><path d="m0 0c-2.756 0.56-4.781 3.035-4.781 5.861 0 1.331 0.459 2.676 1.278 3.704 0.536-0.164 1.17-0.261 1.753-0.261 0.584 0 1.215 0.094 1.752 0.257 0.536-0.163 1.167-0.257 1.751-0.257s1.217 0.097 1.753 0.261c0.818-1.028 1.277-2.373 1.277-3.704 0-2.826-2.028-5.301-4.783-5.861" fill="#fff" fill-rule="evenodd"/></g><g transform="translate(439.81 140.29)"><path d="m0 0c-0.22 0.24-0.439 0.486-0.618 0.759-0.181 0.276-0.356 0.558-0.489 0.861-0.132 0.299-0.255 0.606-0.334 0.925-0.079 0.32-0.15 0.646-0.172 0.976-0.022 0.329-0.032 0.659-1e-3 0.988 0.032 0.333 0.09 0.659 0.172 0.985 5e-3 0.016 5e-3 0.012 0.02 0.012h8.762c8e-3 0 0.035-0.159 0.04-0.18 0.07-0.316 0.123-0.636 0.14-0.958 0.018-0.334 9e-3 -0.667-0.027-0.999-0.036-0.329-0.105-0.651-0.198-0.966-0.092-0.317-0.213-0.623-0.359-0.919-0.148-0.302-0.325-0.587-0.52-0.86-0.196-0.273-0.419-0.521-0.658-0.757-0.236-0.236-0.502-0.441-0.774-0.633-0.269-0.191-0.562-0.343-0.859-0.485-0.297-0.141-0.614-0.242-0.931-0.329-0.079-0.021-0.158-0.038-0.236-0.055-0.031-7e-3 -0.069 0.01-0.097 0.016-0.041 0.01-0.083 0.017-0.123 0.029-0.161 0.044-0.321 0.091-0.481 0.142-0.314 0.103-0.612 0.252-0.903 0.405-0.145 0.078-0.281 0.17-0.418 0.258-0.136 0.087-0.271 0.188-0.395 0.291-0.188 0.159-0.367 0.321-0.541 0.494" fill="#005596" fill-rule="evenodd"/></g><g transform="translate(438.43 146)"><path d="m0 0c0.088 0.305 0.205 0.606 0.347 0.89 0.151 0.298 0.319 0.584 0.518 0.852 0.014 0.019 0.023 0.049 0.048 0.042 0.06-0.017 0.122-0.033 0.183-0.048 0.118-0.027 0.237-0.053 0.357-0.075 0.238-0.043 0.479-0.074 0.721-0.09 0.481-0.032 0.964-4e-3 1.44 0.073 0.236 0.039 0.471 0.092 0.7 0.157 0.026 8e-3 0.058-8e-3 0.084-0.015 0.027-8e-3 0.055-0.016 0.083-0.023 0.061-0.015 0.12-0.031 0.181-0.044 0.117-0.027 0.234-0.05 0.352-0.07 0.475-0.082 0.959-0.109 1.439-0.08 0.242 0.015 0.483 0.046 0.722 0.087 0.119 0.021 0.238 0.045 0.355 0.073 0.057 0.014 0.114 0.027 0.172 0.043 9e-3 2e-3 0.053 0.02 0.057 0.014 8e-3 -0.011 0.016-0.021 0.024-0.032 0.101-0.136 0.195-0.278 0.284-0.422 0.171-0.279 0.312-0.573 0.433-0.874 0.06-0.151 0.112-0.304 0.158-0.458h-8.658" fill="#c0311a" fill-rule="evenodd"/></g><g transform="translate(445.81 146.2)"><path d="m0 0v0.139h-0.364v0.329h0.206v0.136h-0.206v0.251h0.325v0.14h-0.467v-0.995zm-0.643 0.863v0.132h-0.507v-0.132h0.183v-0.863h0.142v0.863zm-0.814-0.451h-0.143l0.07 0.286zm0.248-0.412-0.248 0.995h-0.139l-0.249-0.995h0.144l0.066 0.272h0.213l0.07-0.272zm-0.696 0.863v0.132h-0.506v-0.132h0.182v-0.863h0.143v0.863zm-0.596-0.591c0 0.144-0.084 0.252-0.277 0.363-0.073 0.042-0.094 0.071-0.094 0.119 0 0.066 0.052 0.116 0.119 0.116 0.063 0 0.112-0.046 0.115-0.116h0.137c-3e-3 0.15-0.113 0.259-0.252 0.259-0.143 0-0.255-0.116-0.255-0.259 0-0.087 0.042-0.163 0.122-0.22 0.203-0.136 0.147-0.098 0.168-0.118 0.059-0.046 0.08-0.088 0.08-0.144 0-0.08-0.063-0.15-0.14-0.15-0.098 0-0.14 0.087-0.14 0.172h-0.139c0-0.165 0.105-0.313 0.279-0.313 0.154 0 0.277 0.13 0.277 0.291m-0.811 0.457c0-0.079-0.045-0.125-0.13-0.125h-0.146v0.251h0.146c0.077 0 0.13-0.049 0.13-0.126m0.14-0.729-0.143 0.489c0.094 0.035 0.143 0.122 0.143 0.24 0 0.161-0.105 0.266-0.262 0.266h-0.297v-0.995h0.143v0.468h0.136l0.133-0.468zm-0.727 0v0.139h-0.363v0.329h0.206v0.136h-0.206v0.251h0.325v0.14h-0.469v-0.995zm-0.644 0.863v0.132h-0.505v-0.132h0.181v-0.863h0.143v0.863zm-0.642-0.863v0.995h-0.144v-0.597l-0.271 0.597h-0.144v-0.995h0.144v0.667l0.307-0.667zm-0.775 0.995h-0.14v-0.995h0.14z" fill="#fff" fill-rule="evenodd"/></g><g transform="translate(444.52 142.54)"><path d="m0 0c-0.469 0-0.856-0.32-0.856-0.689 0-0.386 0.387-0.705 0.856-0.705 0.47 0 0.873 0.319 0.873 0.705 0 0.369-0.386 0.689-0.873 0.689m0-2.166c-0.922 0-1.627 0.671-1.627 1.527 0 1.326 0.738 2.685 1.845 3.424l0.387-0.638c-0.588-0.453-0.89-0.839-1.175-1.443 0.268 0.05 0.386 0.05 0.57 0.05 0.89 0 1.628-0.654 1.628-1.46 0-0.822-0.705-1.46-1.628-1.46" fill="#fff"/></g><g transform="translate(442.16 143.92)"><path d="m0 0c-0.422-0.705-0.743-1.51-0.894-2.282-0.068-0.402-0.102-0.705-0.102-1.175h-0.775c0.016 1.108 0.218 2.031 0.691 3.038 0.168 0.369 0.371 0.721 0.54 0.99h-2.294v0.755h3.255v-0.755c-0.168-0.219-0.27-0.32-0.421-0.571" fill="#fff"/></g><g transform="translate(494.53 141.06)"><path d="m0 0c0-0.438-0.359-0.798-0.798-0.798h-19.925c-0.439 0-0.797 0.36-0.797 0.798v4.384c0 0.438 0.358 0.797 0.797 0.797h19.925c0.439 0 0.798-0.359 0.798-0.797z" fill="#ffd24f"/></g><g transform="translate(480.33 141.25)"><path d="m0 0v3.985h2.919v-0.713h-2.189v-0.741h1.193v-0.727h-1.193v-1.091h2.259v-0.713z"/></g><g transform="translate(484.93 144.52)"><path d="m0 0v-0.812h1.248v-0.726h-1.248v-1.734h-0.731v3.985h2.989v-0.713z"/></g><g transform="translate(476.63 141.25)"><path d="m0 0v3.985h0.716v-3.369h2.273v-0.616z"/></g><g transform="translate(489.55 144.54)"><path d="m0 0v-3.287h-0.699v3.287h-1.145v0.698h2.989v-0.698z"/></g><g transform="translate(444.21 156.38)"><path d="m0 0v4.782h3.503v-0.856h-2.627v-0.889h1.431v-0.873h-1.431v-1.308h2.711v-0.856z" fill="#fff"/></g><g transform="translate(463.1 156.38)"><path d="m0 0v4.782h3.503v-0.856h-2.627v-0.889h1.431v-0.873h-1.431v-1.308h2.71v-0.856z" fill="#fff"/></g><g transform="translate(455.9 160.31)"><path d="m0 0h-1.443v-1.191h1.443c0.42 0 0.706 0.235 0.706 0.588 0 0.369-0.286 0.603-0.706 0.603m0.823-1.862c-0.269-0.151-0.487-0.185-0.856-0.185h-1.41v-1.879h-0.872v4.782h2.282c0.369 0 0.587-0.05 0.856-0.201 0.453-0.252 0.738-0.721 0.738-1.258 0-0.504-0.285-1.007-0.738-1.259" fill="#fff"/></g><g transform="translate(460.5 160.31)"><path d="m0 0h-1.377v-1.191h1.377c0.42 0 0.687 0.235 0.687 0.588 0 0.369-0.267 0.603-0.687 0.603m0.687-3.926-0.77 1.879h-1.294v-1.879h-0.856v4.782h2.216c0.353 0 0.571-0.05 0.823-0.201 0.452-0.252 0.737-0.721 0.737-1.258 0-0.538-0.285-1.007-0.772-1.276l0.872-2.047z" fill="#fff"/></g><g transform="translate(469.14 158.53)"><path d="m0 0c-0.213 0.058-0.749 0.187-0.929 0.293-0.36 0.212-0.636 0.556-0.636 1.068 0 0.788 0.675 1.325 1.652 1.325 0.707 0 1.297-0.234 1.787-0.738l-0.641-0.57c-0.303 0.319-0.69 0.469-1.146 0.469-0.489 0-0.775-0.184-0.775-0.486 0-0.268 0.168-0.386 0.759-0.52 0.639-0.134 1.061-0.269 1.331-0.404 0.421-0.218 0.69-0.67 0.69-1.191 0-0.486-0.218-0.856-0.674-1.124-0.336-0.201-0.775-0.319-1.212-0.319-0.827 0-1.45 0.302-1.99 0.923l0.692 0.537c0.353-0.419 0.741-0.604 1.28-0.604 0.606 0 1.045 0.268 1.045 0.621 0 0.449-0.488 0.514-1.233 0.72" fill="#fff"/></g><g transform="translate(473.69 158.53)"><path d="m0 0c-0.212 0.058-0.748 0.187-0.928 0.293-0.361 0.212-0.636 0.556-0.636 1.068 0 0.788 0.675 1.325 1.651 1.325 0.708 0 1.298-0.234 1.787-0.738l-0.64-0.57c-0.304 0.319-0.692 0.469-1.147 0.469-0.488 0-0.774-0.184-0.774-0.486 0-0.268 0.168-0.386 0.758-0.52 0.64-0.134 1.061-0.269 1.332-0.404 0.421-0.218 0.69-0.67 0.69-1.191 0-0.486-0.219-0.856-0.674-1.124-0.337-0.201-0.775-0.319-1.213-0.319-0.826 0-1.45 0.302-1.989 0.923l0.692 0.537c0.353-0.419 0.741-0.604 1.28-0.604 0.606 0 1.045 0.268 1.045 0.621 0 0.449-0.488 0.514-1.234 0.72" fill="#fff"/></g><g transform="translate(499 158.53)"><path d="m0 0c-0.213 0.058-0.748 0.187-0.929 0.293-0.36 0.212-0.634 0.556-0.634 1.068 0 0.788 0.673 1.325 1.651 1.325 0.707 0 1.298-0.234 1.786-0.738l-0.641-0.57c-0.302 0.319-0.69 0.469-1.145 0.469-0.489 0-0.776-0.184-0.776-0.486 0-0.268 0.169-0.386 0.758-0.52 0.641-0.134 1.063-0.269 1.332-0.404 0.421-0.218 0.691-0.67 0.691-1.191 0-0.486-0.219-0.856-0.674-1.124-0.337-0.201-0.775-0.319-1.214-0.319-0.825 0-1.449 0.302-1.988 0.923l0.691 0.537c0.354-0.419 0.741-0.604 1.28-0.604 0.607 0 1.045 0.268 1.045 0.621 0 0.449-0.488 0.514-1.233 0.72" fill="#fff"/></g><g transform="translate(451.62 156.38)"><path d="m0 0-1.079 1.695-1.061-1.695h-1.012l1.568 2.517-1.433 2.265h1.028l0.91-1.459 0.91 1.459h1.029l-1.416-2.265 1.567-2.517z" fill="#fff"/></g><g transform="translate(481.9 156.38)"><path d="m0 0v4.782h3.503v-0.856h-2.627v-0.889h1.431v-0.873h-1.431v-1.308h2.711v-0.856z" fill="#fff"/></g><path d="m491.27 161.17h0.861v-4.782h-0.861z" fill="#fff"/><g transform="translate(495.16 160.33)"><path d="m0 0v-3.944h-0.838v3.944h-1.374v0.838h3.586v-0.838z" fill="#fff"/></g><g transform="translate(489.31 156.38)"><path d="m0 0-1.079 1.695-1.062-1.695h-1.012l1.568 2.517-1.432 2.265h1.027l0.911-1.459 0.91 1.459h1.028l-1.416-2.265 1.567-2.517z" fill="#fff"/></g><g transform="translate(440.93 131.35)"><path d="m0 0c-0.113 0.056-0.227 0.075-0.414 0.075h-1.45v-1.232h1.6c0.395 0 0.621 0.205 0.621 0.522 0 0.262-0.132 0.523-0.357 0.635m-0.301 2.054h-1.563v-0.914h1.468c0.339 0 0.583 0.223 0.583 0.504 0 0.26-0.169 0.41-0.488 0.41m0.922-4.07c-0.245-0.131-0.528-0.206-0.791-0.206h-2.747v5.34h2.503c0.47 0 0.639-0.037 0.921-0.205 0.453-0.243 0.735-0.747 0.735-1.269 0-0.411-0.132-0.747-0.433-1.028 0.414-0.336 0.602-0.746 0.602-1.251 0-0.579-0.301-1.101-0.79-1.381" fill="#fff"/></g><g transform="translate(454.63 130.69)"><path d="m0 0c-0.32 0.112-0.695 0.168-0.902 0.168-0.336 0-0.6-0.187-0.6-0.43 0-0.242 0.319-0.448 0.695-0.448 0.225 0 0.506 0.038 0.807 0.206zm0-1.569v0.131c-0.376-0.149-0.733-0.187-1.032-0.187-0.864 0-1.483 0.542-1.483 1.307 0 0.803 0.694 1.401 1.613 1.401 0.226 0 0.582-0.037 0.902-0.15-0.02 0.374-0.301 0.523-0.695 0.523-0.375 0-0.732-0.093-1.107-0.299l-0.394 0.841c0.582 0.299 0.976 0.411 1.501 0.411 1.07 0 1.707-0.523 1.707-1.606v-2.372z" fill="#fff"/></g><g transform="translate(471.41 130.69)"><path d="m0 0c-0.318 0.112-0.694 0.168-0.9 0.168-0.338 0-0.601-0.187-0.601-0.43 0-0.242 0.32-0.448 0.695-0.448 0.225 0 0.506 0.038 0.806 0.206zm0-1.569v0.131c-0.375-0.149-0.731-0.187-1.032-0.187-0.863 0-1.482 0.542-1.482 1.307 0 0.803 0.694 1.401 1.614 1.401 0.225 0 0.582-0.037 0.9-0.15-0.018 0.374-0.3 0.523-0.694 0.523-0.375 0-0.732-0.093-1.107-0.299l-0.394 0.841c0.582 0.299 0.975 0.411 1.501 0.411 1.069 0 1.707-0.523 1.707-1.606v-2.372z" fill="#fff"/></g><g transform="translate(459.83 131.72)"><path d="m0 0c-0.15 0.262-0.432 0.374-0.694 0.374-0.432 0-0.77-0.448-0.77-1.008s0.338-1.008 0.788-1.008c0.244 0 0.526 0.112 0.676 0.373zm0-2.595v0.187c-0.188-0.168-0.563-0.243-0.863-0.243-0.901 0-1.67 0.933-1.67 2.017 0 1.082 0.769 2.017 1.688 2.017 0.282 0 0.619-0.075 0.845-0.262v1.288l0.995 0.412v-5.416z" fill="#fff"/></g><g transform="translate(449.11 132.12)"><path d="m0 0c-0.412 0-0.73-0.449-0.73-1.028 0-0.559 0.318-1.008 0.73-1.008 0.394 0 0.749 0.449 0.749 1.008 0 0.579-0.355 1.028-0.749 1.028m0-3.044c-0.973 0-1.797 0.896-1.797 2.016 0 1.158 0.786 2.035 1.797 2.035 0.937 0 1.836-0.915 1.836-2.035s-0.88-2.016-1.836-2.016" fill="#fff"/></g><g transform="translate(446.15 131.79)"><path d="m0 0c-0.149 0.243-0.413 0.337-0.62 0.337-0.469 0-0.62-0.281-0.62-0.823v-2.146h-1.072v3.884h1.072v-0.188c0.264 0.206 0.488 0.28 0.771 0.28 0.32 0 0.564-0.074 0.828-0.28z" fill="#fff"/></g><g transform="translate(466.68 129.12)"><path d="m0 0h-1.035l-0.488 1.923-0.62-1.923h-1.034l-1.128 3.884h1.09l0.546-1.848 0.545 1.848h1.165l0.47-1.83 0.526 1.83h1.109z" fill="#fff"/></g><g transform="translate(476.24 127.73)"><path d="m0 0-1.083 5e-3 0.654 1.547-1.843 3.837 1.236-6e-3 1.069-2.582 1.097 2.571 1.14-6e-3z" fill="#fff"/></g><g transform="translate(504.23 143.13)"><path d="m0 0c0.838 0.608 1.971 0.695 1.971 1.224 0 0.317-0.431 0.542-1.05 0.542-0.543 0-0.899-0.131-1.423-0.542l-0.75 0.784c0.356 0.262 0.525 0.374 0.768 0.487 0.432 0.223 0.918 0.336 1.443 0.336 0.674 0 1.274-0.188 1.63-0.523 0.281-0.262 0.431-0.599 0.431-1.046 0-0.785-0.487-1.326-1.518-1.681-0.599-0.224-0.75-0.298-1.031-0.579-0.168-0.168-0.28-0.317-0.392-0.522h2.998v-1.065h-4.329c0 0.951 0.481 2.025 1.252 2.585" fill="#fff"/></g><g transform="translate(506.63 129.48)"><path d="m0 0c-0.319-0.28-0.862-0.448-1.462-0.448-0.787 0-1.536 0.186-2.192 0.56l0.581 0.915c0.544-0.299 1.011-0.411 1.611-0.411 0.712 0 1.087 0.262 1.087 0.821 0 0.524-0.375 0.803-1.106 0.803-0.299 0-0.506-0.037-0.973-0.205l-1.088 0.43 0.225 2.52h3.523v-1.064l-2.455-0.019-0.093-0.69c0.28 0.056 0.58 0.093 0.88 0.093 0.506 0 0.881-0.093 1.2-0.261 0.58-0.336 0.937-0.952 0.937-1.625 0-0.523-0.263-1.083-0.675-1.419" fill="#fff"/></g><g transform="translate(455.91 143.26)"><path d="m0 0h-3.587v4.783h3.419v-0.86h-2.559v-0.956h1.532v-0.859h-1.532v-1.249h2.727z" fill="#fff"/></g><g transform="translate(458.9 144.82)"><path d="m0 0-0.546 1.314-0.551-1.314zm1.404-1.567h-0.746l-0.367 0.876h-1.676l-0.367-0.876h-0.747l1.6 3.827h0.7z" fill="#fff"/></g><g transform="translate(463.7 146.48)"><path d="m0 0-0.52-0.428c-0.19 0.146-0.325 0.241-0.407 0.284-0.16 0.086-0.334 0.13-0.52 0.13-0.16 0-0.304-0.044-0.427-0.129-0.124-0.085-0.185-0.18-0.185-0.285 2e-3 -0.209 0.284-0.368 0.846-0.478 0.451-0.089 0.795-0.247 1.031-0.475 0.203-0.201 0.305-0.431 0.305-0.693 0-0.309-0.136-0.581-0.409-0.819-0.289-0.246-0.639-0.368-1.053-0.368-0.403 0-0.725 0.065-0.967 0.192-0.193 0.103-0.415 0.298-0.67 0.586l0.558 0.426c0.124-0.166 0.253-0.287 0.386-0.363 0.181-0.099 0.411-0.149 0.692-0.149 0.216 0 0.4 0.05 0.549 0.149 0.149 0.1 0.223 0.215 0.223 0.348 0 0.223-0.256 0.388-0.769 0.49-0.942 0.188-1.414 0.566-1.414 1.135 0 0.326 0.129 0.594 0.388 0.804 0.247 0.198 0.55 0.297 0.907 0.297 0.342 0 0.63-0.061 0.862-0.183 0.156-0.082 0.354-0.239 0.594-0.471" fill="#fff"/></g><g transform="translate(467.11 146.39)"><path d="m0 0h-1.08v-3.135h-0.713v3.135h-1.076v0.692h2.869z" fill="#fff"/></g></g></g></svg>
