<?xml version="1.0" encoding="UTF-8"?>
<svg width="672.41" height="112.89" version="1.1" viewBox="0 0 672.41 112.89" xml:space="preserve" xmlns="http://www.w3.org/2000/svg"><defs><clipPath id="e"><path d="m26.625 30.4h513.38v159.2h-513.38z"/></clipPath><clipPath id="d"><path d="m31.139 76.456h504.31v108.69h-504.31z"/></clipPath><clipPath id="c"><path d="m26.625 30.4h513.38v159.2h-513.38z"/></clipPath><clipPath id="b"><path d="m31.139 76.456h504.31v108.69h-504.31z"/></clipPath><clipPath id="a"><path d="m26.625 30.4h513.38v159.2h-513.38z"/></clipPath></defs><g transform="matrix(1.3333 0 0 -1.3333 -41.519 217.38)"><text transform="matrix(1 0 0 -1 88.172 78.481)" fill="#000000" font-family="Helvetica" font-size="9px"><tspan x="0 6.4980001 11.502 14.499 19.503 269.40601 275.90399 280.90799 283.905 288.909 381.08701 387.58499 392.58899 395.586 400.59 142.38 148.87801 153.882 156.879 161.883" y="0">D5-13D5-15D5-16D5-14</tspan></text><g clip-path="url(#e)"><g transform="translate(535.22 98.866)"><path d="m0 0c0-4.22-3.453-7.673-7.673-7.673h-92.073c-4.221 0-7.673 3.453-7.673 7.673v56.268c0 4.22 3.452 7.672 7.673 7.672h92.073c4.22 0 7.673-3.452 7.673-7.672z" fill="#fff"/></g></g><g clip-path="url(#d)"><g transform="translate(535.22 98.866)"><path d="m0 0c0-4.22-3.453-7.673-7.673-7.673h-92.073c-4.221 0-7.673 3.453-7.673 7.673v56.268c0 4.22 3.452 7.672 7.673 7.672h92.073c4.22 0 7.673-3.452 7.673-7.672z" fill="none" stroke="#000" stroke-width=".461"/></g></g><g clip-path="url(#c)"><g transform="translate(435.47 92.898)"><path d="m0 0c-0.802 0-1.58 0.159-2.313 0.47-0.71 0.302-1.35 0.734-1.901 1.285-0.55 0.55-0.983 1.19-1.284 1.901-0.313 0.733-0.47 1.512-0.47 2.312v56.267c0 0.802 0.157 1.579 0.47 2.313 0.301 0.71 0.734 1.35 1.284 1.901 0.551 0.551 1.191 0.982 1.901 1.284 0.733 0.312 1.511 0.47 2.313 0.47h92.073c0.802 0 1.579-0.158 2.313-0.47 0.71-0.302 1.349-0.733 1.901-1.284 0.551-0.551 0.983-1.191 1.284-1.901 0.312-0.734 0.47-1.511 0.47-2.313v-56.267c0-0.8-0.158-1.579-0.47-2.312-0.301-0.711-0.733-1.351-1.284-1.901-0.552-0.551-1.191-0.983-1.901-1.285-0.734-0.311-1.511-0.47-2.313-0.47z" fill="#005596"/></g><g transform="translate(497.19 132.05)"><path d="m0 0-1.435-3.447h2.871zm3.229-7.683-1.005 2.405h-4.449l-1.005-2.405h-2.009l4.306 10.231h1.865l4.271-10.231z" fill="#fff"/></g><g transform="translate(465.87 132.05)"><path d="m0 0-1.435-3.447h2.871zm3.23-7.683-1.005 2.405h-4.45l-1.005-2.405h-2.01l4.308 10.231h1.865l4.271-10.231z" fill="#fff"/></g><g transform="translate(483.15 124.37)"><path d="m0 0v10.231h7.493v-1.831h-5.619v-1.903h3.06v-1.867h-3.06v-2.799h5.799v-1.831z" fill="#fff"/></g><g transform="translate(477.59 132.77)"><path d="m0 0h-2.946v-2.549h2.946c0.897 0 1.471 0.503 1.471 1.256 0 0.791-0.574 1.293-1.471 1.293m1.471-8.4-1.65 4.02h-2.767v-4.02h-1.83v10.231h4.74c0.753 0 1.219-0.108 1.758-0.432 0.969-0.537 1.579-1.542 1.579-2.692 0-1.148-0.61-2.153-1.65-2.728l1.865-4.379z" fill="#fff"/></g><g transform="translate(467.26 149.88)"><path d="m0 0-1.435-3.446h2.871zm3.23-7.682-1.005 2.405h-4.451l-1.004-2.405h-2.009l4.306 10.231h1.866l4.27-10.231z" fill="#fff"/></g><g transform="translate(445.69 142.02)"><path d="m0 0c-2.693 0-4.343 2.118-4.343 5.312 0 3.232 1.65 5.278 4.343 5.278 1.652 0 3.16-0.826 3.949-2.262l-1.615-0.862c-0.288 0.431-0.432 0.575-0.718 0.754-0.396 0.324-1.077 0.539-1.616 0.539-1.866 0-2.476-1.831-2.476-3.41 0-2.226 0.933-3.518 2.476-3.518 0.933 0 1.436 0.323 2.334 1.292l1.615-0.861c-0.754-1.436-2.297-2.262-3.949-2.262" fill="#fff"/></g><g transform="translate(458.45 142.2)"><path d="m0 0v4.451h-4.616v-4.451h-1.838v10.23h1.838v-3.948h4.616v3.948h1.838v-10.23z" fill="#fff"/></g><path d="m474.2 152.43h1.842v-10.23h-1.842z" fill="#fff"/><g transform="translate(485.41 142.2)"><path d="m0 0-4.903 7.035v-7.035h-1.803v10.23h1.803l4.723-6.748v6.748h1.766v-10.23z" fill="#fff"/></g><g transform="translate(518.33 150.6)"><path d="m0 0h-3.089v-2.549h3.089c0.899 0 1.507 0.504 1.507 1.257 0 0.79-0.608 1.292-1.507 1.292m1.76-3.984c-0.574-0.324-1.041-0.395-1.83-0.395h-3.019v-4.02h-1.865v10.23h4.884c0.789 0 1.256-0.108 1.83-0.431 0.967-0.538 1.578-1.543 1.578-2.692 0-1.077-0.611-2.154-1.578-2.692" fill="#fff"/></g><g transform="translate(506.57 142.02)"><path d="m0 0c-2.415 0-4.145 1.795-4.145 4.308v6.102h1.838v-6.102c0-0.611 0.072-0.934 0.324-1.329 0.397-0.682 1.154-1.112 1.983-1.112 0.83 0 1.586 0.43 1.983 1.112 0.252 0.395 0.325 0.754 0.325 1.329v6.102h1.839v-6.102c0-2.513-1.73-4.308-4.147-4.308" fill="#fff"/></g><path d="m492.8 148.06h5.115v-1.907h-5.115z" fill="#fff"/><g transform="translate(488.76 103.32)"><path d="m0 0c5e-3 7e-3 0.01 0.014 0.014 0.021 0.025 0.046 0.044 0.094 0.057 0.142 1e-3 4e-3 4e-3 8e-3 5e-3 0.013h-1e-3c4e-3 0.016 9e-3 0.033 0.013 0.05l0.022 0.163 2.32 11.966 0.031 0.226c0.031 0.225-0.044 0.449-0.193 0.599-0.171 0.17-0.396 0.245-0.61 0.203l-0.149-0.029-12.003-2.339-0.21-0.034c-0.139-0.032-0.246-0.096-0.353-0.203-0.267-0.267-0.277-0.705 0-0.983 0.033-0.032 0.085-0.065 0.128-0.086l0.129-0.07 4.272-2.627-10.443-9.586 3.495-3.495 9.587 10.421v0.02l2.586-4.207 0.107-0.153c0.033-0.054 0.065-0.107 0.108-0.149 0.267-0.268 0.716-0.268 0.983-1e-3 0.043 0.043 0.076 0.09 0.105 0.138" fill="#fff"/></g><g transform="translate(423.54 98.866)"><path d="m0 0c0-4.22-3.452-7.673-7.671-7.673h-92.075c-4.22 0-7.672 3.453-7.672 7.673v51.152c0 4.22 3.452 7.673 7.672 7.673h92.075c4.219 0 7.671-3.453 7.671-7.673z" fill="#fff"/><path d="m0 0c0-4.22-3.452-7.673-7.671-7.673h-92.075c-4.22 0-7.672 3.453-7.672 7.673v51.152c0 4.22 3.452 7.673 7.672 7.673h92.075c4.219 0 7.671-3.453 7.671-7.673z" fill="none" stroke="#000" stroke-width=".461"/></g><g transform="translate(323.79 92.898)"><path d="m0 0c-0.8 0-1.579 0.158-2.312 0.469-0.71 0.303-1.35 0.735-1.901 1.286-0.55 0.55-0.983 1.189-1.285 1.9-0.311 0.734-0.469 1.513-0.469 2.313v51.152c0 0.801 0.158 1.579 0.469 2.312 0.302 0.711 0.735 1.351 1.285 1.901 0.551 0.551 1.191 0.983 1.901 1.285 0.733 0.311 1.512 0.47 2.312 0.47h92.075c0.799 0 1.578-0.159 2.312-0.47 0.71-0.302 1.35-0.734 1.9-1.285 0.551-0.55 0.983-1.19 1.286-1.901 0.31-0.733 0.469-1.511 0.469-2.312v-51.152c0-0.8-0.159-1.579-0.469-2.313-0.303-0.711-0.735-1.35-1.286-1.9-0.55-0.551-1.19-0.983-1.9-1.286-0.734-0.311-1.513-0.469-2.312-0.469z" fill="#005596"/></g><g transform="translate(385.5 126.93)"><path d="m0 0-1.435-3.446h2.871zm3.23-7.682-1.005 2.405h-4.449l-1.005-2.405h-2.01l4.306 10.231h1.867l4.269-10.231z" fill="#fff"/></g><g transform="translate(354.19 126.93)"><path d="m0 0-1.435-3.446h2.871zm3.229-7.682-1.005 2.405h-4.449l-1.004-2.405h-2.009l4.304 10.231h1.867l4.27-10.231z" fill="#fff"/></g><g transform="translate(371.47 119.25)"><path d="m0 0v10.23h7.492v-1.83h-5.619v-1.903h3.061v-1.867h-3.061v-2.799h5.799v-1.831z" fill="#fff"/></g><g transform="translate(365.9 127.65)"><path d="m0 0h-2.945v-2.548h2.945c0.898 0 1.471 0.501 1.471 1.256 0 0.789-0.573 1.292-1.471 1.292m1.471-8.4-1.65 4.021h-2.766v-4.021h-1.83v10.231h4.739c0.754 0 1.221-0.108 1.758-0.431 0.969-0.539 1.579-1.544 1.579-2.692 0-1.149-0.61-2.155-1.65-2.728l1.865-4.38z" fill="#fff"/></g><g transform="translate(392.25 101.01)"><path d="m0 0v8.525h6.245v-1.525h-4.683v-1.586h2.553v-1.555h-2.553v-2.334h4.834v-1.525z" fill="#fff"/></g><path d="m380.66 109.54h1.535v-8.525h-1.535z" fill="#fff"/><g transform="translate(384.41 101.01)"><path d="m0 0v8.525h1.531v-7.209h4.864v-1.316z" fill="#fff"/></g><g transform="translate(376.94 101.01)"><path d="m0 0v5.205l-2.523-5.205-2.492 5.205v-5.205h-1.502v8.525h1.502l2.492-5.055 2.523 5.055h1.502v-8.525z" fill="#fff"/></g><g transform="translate(342.08 103.14)"><path d="m0 0 0.03 6.371h-1.071l-0.029 1.227c0.653 0.149 1.011 0.389 1.338 0.927h1.219v-8.525z" fill="#fff"/></g><g transform="translate(350.73 98.879)"><path d="m0 0c0 1.018 0.21 1.766 0.69 2.603 0.751 1.256 1.833 2.034 3.396 2.453 0.961 0.269 1.291 0.568 1.291 1.077 0 0.628-0.601 0.987-1.682 0.987-1.112 0-1.924-0.27-2.643-0.928l-1.052 1.167c0.991 0.867 2.224 1.316 3.605 1.316 2.013 0 3.305-0.987 3.305-2.542 0-0.718-0.302-1.376-0.872-1.855-0.271-0.209-0.661-0.419-1.262-0.598-1.141-0.329-1.471-0.479-1.982-0.928-0.391-0.329-0.631-0.658-0.932-1.226h5.048v-1.526z" fill="#fff"/></g><g transform="translate(344.41 98.879)"><path d="m0 0h-1.522l7.435 12.789h1.523z" fill="#fff"/></g><g transform="translate(355.58 144.76)"><path d="m0 0-1.434-3.446h2.871zm3.23-7.682-1.005 2.405h-4.449l-1.005-2.405h-2.01l4.306 10.23h1.867l4.27-10.23z" fill="#fff"/></g><g transform="translate(334.01 136.9)"><path d="m0 0c-2.692 0-4.343 2.118-4.343 5.313 0 3.23 1.651 5.276 4.343 5.276 1.652 0 3.158-0.825 3.948-2.261l-1.615-0.862c-0.287 0.431-0.431 0.575-0.718 0.754-0.395 0.323-1.076 0.539-1.615 0.539-1.866 0-2.476-1.831-2.476-3.411 0-2.225 0.932-3.517 2.476-3.517 0.933 0 1.436 0.322 2.333 1.292l1.615-0.861c-0.754-1.436-2.296-2.262-3.948-2.262" fill="#fff"/></g><g transform="translate(346.76 137.08)"><path d="m0 0v4.451h-4.613v-4.451h-1.84v10.23h1.84v-3.948h4.613v3.948h1.839v-10.23z" fill="#fff"/></g><path d="m362.52 147.31h1.842v-10.23h-1.842z" fill="#fff"/><g transform="translate(373.73 137.08)"><path d="m0 0-4.903 7.036v-7.036h-1.803v10.23h1.803l4.721-6.748v6.748h1.768v-10.23z" fill="#fff"/></g><g transform="translate(406.65 145.48)"><path d="m0 0h-3.09v-2.548h3.09c0.895 0 1.506 0.503 1.506 1.256 0 0.79-0.611 1.292-1.506 1.292m1.757-3.984c-0.574-0.323-1.041-0.395-1.83-0.395h-3.017v-4.02h-1.866v10.23h4.883c0.789 0 1.256-0.107 1.83-0.431 0.969-0.538 1.579-1.543 1.579-2.692 0-1.077-0.61-2.154-1.579-2.692" fill="#fff"/></g><g transform="translate(394.89 136.9)"><path d="m0 0c-2.416 0-4.147 1.794-4.147 4.307v6.103h1.839v-6.103c0-0.61 0.073-0.933 0.325-1.328 0.396-0.682 1.153-1.113 1.983-1.113 0.828 0 1.586 0.431 1.981 1.113 0.253 0.395 0.326 0.754 0.326 1.328v6.103h1.837v-6.103c0-2.513-1.729-4.307-4.144-4.307" fill="#fff"/></g><path d="m381.12 142.95h5.116v-1.907h-5.116z" fill="#fff"/><g transform="translate(311.86 98.866)"><path d="m0 0c0-4.22-3.453-7.673-7.674-7.673h-122.76c-4.219 0-7.673 3.453-7.673 7.673v56.268c0 4.22 3.454 7.672 7.673 7.672h122.76c4.221 0 7.674-3.452 7.674-7.672z" fill="#fff"/><path d="m0 0c0-4.22-3.453-7.673-7.674-7.673h-122.76c-4.219 0-7.673 3.453-7.673 7.673v56.268c0 4.22 3.454 7.672 7.673 7.672h122.76c4.221 0 7.674-3.452 7.674-7.672z" fill="none" stroke="#000" stroke-width=".461"/></g><g transform="translate(181.42 92.898)"><path d="m0 0c-0.8 0-1.579 0.159-2.312 0.47-0.711 0.302-1.351 0.734-1.901 1.285-0.551 0.55-0.983 1.19-1.285 1.901-0.311 0.733-0.469 1.512-0.469 2.312v56.267c0 0.802 0.158 1.579 0.469 2.313 0.302 0.71 0.734 1.35 1.285 1.901 0.55 0.551 1.19 0.982 1.901 1.284 0.733 0.312 1.512 0.47 2.312 0.47h122.76c0.802 0 1.579-0.158 2.312-0.47 0.71-0.302 1.35-0.733 1.902-1.284 0.55-0.551 0.982-1.191 1.284-1.901 0.312-0.734 0.47-1.511 0.47-2.313v-56.267c0-0.8-0.158-1.579-0.47-2.312-0.302-0.711-0.734-1.351-1.284-1.901-0.552-0.551-1.192-0.983-1.902-1.285-0.733-0.311-1.51-0.47-2.312-0.47z" fill="#005596"/></g><g transform="translate(212.73 149.99)"><path d="m0 0-1.436-3.446h2.871zm3.229-7.682-1.004 2.405h-4.45l-1.005-2.405h-2.009l4.305 10.231h1.866l4.271-10.231z" fill="#fff"/></g><g transform="translate(192.53 146.83)"><path d="m0 0h-2.921v-2.692h2.921c0.973 0 1.658 0.539 1.658 1.293 0 0.789-0.722 1.399-1.658 1.399m0 3.877h-2.921v-2.046h2.921c0.793 0 1.334 0.43 1.334 1.041 0 0.61-0.505 1.005-1.334 1.005m1.946-7.968c-0.505-0.288-1.046-0.432-1.587-0.432h-5.154v10.231h4.795c0.9 0 1.225-0.072 1.765-0.359 0.866-0.503 1.406-1.364 1.406-2.334 0-0.825-0.324-1.543-1.009-2.117 0.901-0.647 1.335-1.436 1.335-2.405 0-1.041-0.614-2.082-1.551-2.584" fill="#fff"/></g><g transform="translate(252.05 142.13)"><path d="m0 0c-2.691 0-4.343 2.117-4.343 5.312 0 3.231 1.652 5.277 4.343 5.277 1.651 0 3.159-0.826 3.948-2.261l-1.614-0.862c-0.288 0.431-0.432 0.575-0.719 0.754-0.395 0.323-1.077 0.538-1.615 0.538-1.866 0-2.477-1.831-2.477-3.41 0-2.225 0.933-3.518 2.477-3.518 0.933 0 1.437 0.323 2.334 1.293l1.614-0.862c-0.753-1.436-2.297-2.261-3.948-2.261" fill="#fff"/></g><g transform="translate(283.06 142.13)"><path d="m0 0c-2.692 0-4.343 2.117-4.343 5.312 0 3.231 1.651 5.277 4.343 5.277 1.651 0 3.159-0.826 3.949-2.261l-1.616-0.862c-0.286 0.431-0.431 0.575-0.718 0.754-0.393 0.323-1.076 0.538-1.615 0.538-1.866 0-2.477-1.831-2.477-3.41 0-2.225 0.933-3.518 2.477-3.518 0.933 0 1.436 0.323 2.333 1.293l1.616-0.862c-0.754-1.436-2.298-2.261-3.949-2.261" fill="#fff"/></g><g transform="translate(229.81 142.31)"><path d="m0 0v10.231h7.493v-1.831h-5.619v-1.902h3.062v-1.867h-3.062v-2.8h5.799v-1.831z" fill="#fff"/></g><g transform="translate(269.31 142.31)"><path d="m0 0v10.231h7.492v-1.831h-5.619v-1.902h3.062v-1.867h-3.062v-2.8h5.8v-1.831z" fill="#fff"/></g><g transform="translate(264.81 142.31)"><path d="m0 0v4.452h-4.614v-4.452h-1.839v10.231h1.839v-3.949h4.614v3.949h1.839v-10.231z" fill="#fff"/></g><g transform="translate(226.08 142.31)"><path d="m0 0-2.628 5.313-1.944-2.441v-2.872h-1.836v10.231h1.836v-4.452l3.637 4.452h2.376l-2.737-3.338 3.384-6.893z" fill="#fff"/></g><g transform="translate(295.77 142.31)"><path d="m0 0-2.629 5.313-1.943-2.441v-2.872h-1.836v10.231h1.836v-4.452l3.634 4.452h2.377l-2.735-3.338 3.383-6.893z" fill="#fff"/></g><g transform="translate(202.85 150.71)"><path d="m0 0h-2.947v-2.548h2.947c0.895 0 1.471 0.502 1.471 1.256 0 0.79-0.576 1.292-1.471 1.292m1.471-8.4-1.652 4.021h-2.766v-4.021h-1.829v10.231h4.74c0.752 0 1.219-0.107 1.758-0.431 0.968-0.538 1.578-1.544 1.578-2.692 0-1.149-0.61-2.154-1.651-2.728l1.866-4.38z" fill="#fff"/></g><g transform="translate(258.48 132.05)"><path d="m0 0-1.435-3.446h2.871zm3.229-7.682-1.004 2.406h-4.45l-1.005-2.406h-2.009l4.306 10.231h1.867l4.269-10.231z" fill="#fff"/></g><g transform="translate(227.16 132.05)"><path d="m0 0-1.436-3.446h2.871zm3.229-7.682-1.005 2.406h-4.449l-1.006-2.406h-2.009l4.307 10.231h1.865l4.271-10.231z" fill="#fff"/></g><g transform="translate(244.44 124.37)"><path d="m0 0v10.23h7.492v-1.83h-5.619v-1.902h3.062v-1.868h-3.062v-2.799h5.799v-1.831z" fill="#fff"/></g><g transform="translate(238.88 132.77)"><path d="m0 0h-2.946v-2.549h2.946c0.897 0 1.471 0.503 1.471 1.256 0 0.791-0.574 1.293-1.471 1.293m1.471-8.4-1.651 4.021h-2.766v-4.021h-1.83v10.231h4.74c0.753 0 1.22-0.108 1.758-0.431 0.969-0.539 1.579-1.543 1.579-2.693 0-1.148-0.61-2.153-1.65-2.728l1.865-4.379z" fill="#fff"/></g><g transform="translate(250.05 103.32)"><path d="m0 0c5e-3 7e-3 9e-3 0.014 0.014 0.021 0.025 0.046 0.044 0.094 0.058 0.142 0 4e-3 3e-3 8e-3 4e-3 0.013h-1e-3c3e-3 0.016 9e-3 0.033 0.013 0.05l0.022 0.163 2.32 11.966 0.031 0.226c0.031 0.225-0.044 0.449-0.193 0.599-0.171 0.17-0.396 0.245-0.61 0.203l-0.149-0.029-12.002-2.339-0.211-0.034c-0.139-0.032-0.245-0.096-0.353-0.203-0.267-0.267-0.277-0.705 0-0.983 0.033-0.032 0.085-0.065 0.128-0.086l0.129-0.07 4.272-2.627-10.442-9.586 3.495-3.495 9.586 10.421v0.02l2.586-4.207 0.109-0.153c0.031-0.054 0.063-0.107 0.106-0.149 0.267-0.268 0.716-0.268 0.984-1e-3 0.042 0.043 0.075 0.09 0.104 0.138" fill="#fff"/></g><g transform="translate(169.48 98.866)"><path d="m0 0c0-4.22-3.453-7.673-7.674-7.673h-122.76c-4.219 0-7.673 3.453-7.673 7.673v51.152c0 4.22 3.454 7.673 7.673 7.673h122.76c4.221 0 7.674-3.453 7.674-7.673z" fill="#fff"/></g></g><g clip-path="url(#b)"><g transform="translate(169.48 98.866)"><path d="m0 0c0-4.22-3.453-7.673-7.674-7.673h-122.76c-4.219 0-7.673 3.453-7.673 7.673v51.152c0 4.22 3.454 7.673 7.673 7.673h122.76c4.221 0 7.674-3.453 7.674-7.673z" fill="none" stroke="#000" stroke-width=".461"/></g></g><g clip-path="url(#a)"><g transform="translate(39.042 92.898)"><path d="m0 0c-0.801 0-1.579 0.158-2.313 0.469-0.71 0.303-1.349 0.735-1.9 1.286-0.551 0.55-0.983 1.189-1.285 1.9-0.312 0.734-0.47 1.513-0.47 2.313v51.152c0 0.801 0.158 1.579 0.47 2.312 0.302 0.711 0.734 1.351 1.285 1.901 0.551 0.551 1.19 0.983 1.9 1.285 0.734 0.311 1.512 0.47 2.313 0.47h122.76c0.802 0 1.579-0.159 2.312-0.47 0.711-0.302 1.351-0.734 1.902-1.285 0.551-0.55 0.982-1.19 1.285-1.901 0.312-0.733 0.469-1.511 0.469-2.312v-51.152c0-0.8-0.157-1.579-0.469-2.313-0.303-0.711-0.734-1.35-1.285-1.9-0.551-0.551-1.191-0.983-1.902-1.286-0.733-0.311-1.51-0.469-2.312-0.469z" fill="#005596"/></g><g transform="translate(70.358 144.87)"><path d="m0 0-1.436-3.446h2.872zm3.229-7.682-1.004 2.405h-4.45l-1.004-2.405h-2.01l4.305 10.23h1.868l4.27-10.23z" fill="#fff"/></g><g transform="translate(50.159 141.72)"><path d="m0 0h-2.921v-2.692h2.921c0.974 0 1.658 0.539 1.658 1.292 0 0.79-0.72 1.4-1.658 1.4m0 3.877h-2.921v-2.046h2.921c0.793 0 1.334 0.431 1.334 1.041s-0.505 1.005-1.334 1.005m1.946-7.969c-0.504-0.287-1.045-0.431-1.586-0.431h-5.155v10.23h4.795c0.901 0 1.226-0.071 1.767-0.358 0.865-0.503 1.405-1.364 1.405-2.334 0-0.825-0.324-1.543-1.009-2.117 0.901-0.647 1.334-1.437 1.334-2.406 0-1.04-0.613-2.081-1.551-2.584" fill="#fff"/></g><g transform="translate(109.68 137.01)"><path d="m0 0c-2.691 0-4.343 2.118-4.343 5.313 0 3.231 1.652 5.277 4.343 5.277 1.651 0 3.159-0.826 3.948-2.262l-1.614-0.861c-0.288 0.43-0.432 0.574-0.719 0.753-0.394 0.324-1.077 0.539-1.615 0.539-1.866 0-2.476-1.831-2.476-3.41 0-2.225 0.932-3.518 2.476-3.518 0.933 0 1.437 0.323 2.334 1.293l1.614-0.862c-0.753-1.436-2.297-2.262-3.948-2.262" fill="#fff"/></g><g transform="translate(140.69 137.01)"><path d="m0 0c-2.693 0-4.343 2.118-4.343 5.313 0 3.231 1.65 5.277 4.343 5.277 1.651 0 3.158-0.826 3.948-2.262l-1.615-0.861c-0.287 0.43-0.431 0.574-0.718 0.753-0.394 0.324-1.077 0.539-1.615 0.539-1.867 0-2.478-1.831-2.478-3.41 0-2.225 0.934-3.518 2.478-3.518 0.933 0 1.435 0.323 2.333 1.293l1.615-0.862c-0.754-1.436-2.297-2.262-3.948-2.262" fill="#fff"/></g><g transform="translate(87.433 137.19)"><path d="m0 0v10.23h7.493v-1.83h-5.619v-1.902h3.062v-1.867h-3.062v-2.8h5.799v-1.831z" fill="#fff"/></g><g transform="translate(126.93 137.19)"><path d="m0 0v10.23h7.493v-1.83h-5.62v-1.902h3.062v-1.867h-3.062v-2.8h5.8v-1.831z" fill="#fff"/></g><g transform="translate(122.44 137.19)"><path d="m0 0v4.452h-4.615v-4.452h-1.838v10.23h1.838v-3.948h4.615v3.948h1.839v-10.23z" fill="#fff"/></g><g transform="translate(83.708 137.19)"><path d="m0 0-2.628 5.313-1.944-2.441v-2.872h-1.836v10.23h1.836v-4.451l3.637 4.451h2.376l-2.737-3.337 3.384-6.893z" fill="#fff"/></g><g transform="translate(153.4 137.19)"><path d="m0 0-2.628 5.313-1.943-2.441v-2.872h-1.836v10.23h1.836v-4.451l3.635 4.451h2.376l-2.735-3.337 3.383-6.893z" fill="#fff"/></g><g transform="translate(60.478 145.59)"><path d="m0 0h-2.947v-2.549h2.947c0.897 0 1.471 0.503 1.471 1.257 0 0.79-0.574 1.292-1.471 1.292m1.471-8.4-1.651 4.021h-2.767v-4.021h-1.829v10.231h4.74c0.753 0 1.22-0.108 1.758-0.431 0.968-0.538 1.578-1.543 1.578-2.692s-0.61-2.154-1.651-2.729l1.866-4.379z" fill="#fff"/></g><g transform="translate(116.1 126.93)"><path d="m0 0-1.436-3.446h2.871zm3.229-7.682-1.004 2.405h-4.45l-1.005-2.405h-2.009l4.305 10.231h1.868l4.269-10.231z" fill="#fff"/></g><g transform="translate(84.784 126.93)"><path d="m0 0-1.435-3.446h2.871zm3.23-7.682-1.004 2.405h-4.451l-1.005-2.405h-2.009l4.306 10.231h1.867l4.27-10.231z" fill="#fff"/></g><g transform="translate(102.06 119.25)"><path d="m0 0v10.23h7.492v-1.83h-5.619v-1.903h3.062v-1.867h-3.062v-2.799h5.8v-1.831z" fill="#fff"/></g><g transform="translate(96.502 127.65)"><path d="m0 0h-2.946v-2.548h2.946c0.897 0 1.471 0.501 1.471 1.256 0 0.789-0.574 1.292-1.471 1.292m1.471-8.4-1.651 4.021h-2.766v-4.021h-1.829v10.231h4.739c0.754 0 1.22-0.108 1.758-0.431 0.968-0.539 1.579-1.544 1.579-2.692 0-1.149-0.611-2.155-1.651-2.728l1.866-4.38z" fill="#fff"/></g><g transform="translate(122.85 101.01)"><path d="m0 0v8.525h6.244v-1.525h-4.683v-1.586h2.551v-1.555h-2.551v-2.334h4.833v-1.525z" fill="#fff"/></g><path d="m111.26 109.54h1.535v-8.525h-1.535z" fill="#fff"/><g transform="translate(115.01 101.01)"><path d="m0 0v8.525h1.531v-7.209h4.864v-1.316z" fill="#fff"/></g><g transform="translate(107.54 101.01)"><path d="m0 0v5.205l-2.522-5.205-2.493 5.205v-5.205h-1.502v8.525h1.502l2.493-5.055 2.522 5.055h1.502v-8.525z" fill="#fff"/></g><g transform="translate(72.675 103.14)"><path d="m0 0 0.029 6.371h-1.07l-0.029 1.227c0.654 0.149 1.01 0.389 1.338 0.927h1.219v-8.525z" fill="#fff"/></g><g transform="translate(81.325 98.879)"><path d="m0 0c0 1.018 0.21 1.766 0.691 2.603 0.751 1.256 1.833 2.034 3.395 2.453 0.961 0.269 1.292 0.568 1.292 1.077 0 0.628-0.602 0.987-1.683 0.987-1.112 0-1.922-0.27-2.644-0.928l-1.051 1.167c0.991 0.867 2.223 1.316 3.605 1.316 2.013 0 3.305-0.987 3.305-2.542 0-0.718-0.301-1.376-0.872-1.855-0.27-0.209-0.66-0.419-1.262-0.598-1.141-0.329-1.471-0.479-1.982-0.928-0.391-0.329-0.631-0.658-0.932-1.226h5.048v-1.526z" fill="#fff"/></g><g transform="translate(75.009 98.879)"><path d="m0 0h-1.523l7.435 12.789h1.524z" fill="#fff"/></g></g></g></svg>
