<?xml version="1.0" encoding="UTF-8"?>
<svg width="592.01" height="733.58" version="1.1" viewBox="0 0 592.01 733.58" xml:space="preserve" xmlns="http://www.w3.org/2000/svg"><defs><clipPath id="j"><path d="m0 792h612v-792h-612z"/></clipPath><clipPath id="i"><path d="m63 168.42h513v568.83h-513z"/></clipPath><clipPath id="h"><path d="m97.205 168.42h444.59v568.83h-444.59z"/></clipPath><clipPath id="g"><path d="m63 168.42h513v568.83h-513z"/></clipPath><clipPath id="f"><path d="m63 168.42h513v568.83h-513z"/></clipPath><clipPath id="e"><path d="m63 168.42h513v568.83h-513z"/></clipPath><clipPath id="d"><path d="m63 168.42h513v568.83h-513z"/></clipPath><clipPath id="c"><path d="m63 168.42h513v568.83h-513z"/></clipPath><clipPath id="b"><path d="m63 168.42h513v568.83h-513z"/></clipPath><clipPath id="a"><path d="m63 168.42h513v568.83h-513z"/></clipPath></defs><g transform="matrix(1.3333 0 0 -1.3333 -130.03 958.14)"><g clip-path="url(#j)"/><g clip-path="url(#i)"><g transform="translate(429.72 663.77)"><path d="m0 0c0 18.167 14.543 32.896 32.711 32.896s32.897-14.729 32.897-32.896-14.729-33.2-32.897-33.2" fill="none" stroke="#000" stroke-width="2"/></g><g transform="translate(442.37 683)"><path d="m0 0c5.051 5.336 12.174 8.667 20.057 8.667" fill="none" stroke="#000" stroke-width=".75"/></g><g transform="translate(461.89 691.66)"><path d="m0 0-1.15 1.892 0.064 0.043 3.084-1.226c1.076-0.236 2.15-0.472 3.225-0.709-1.075-0.236-2.149-0.473-3.225-0.71l-3.084-1.225-0.064 0.033z"/></g><g transform="translate(206.19 653.18)"><path d="m0 0h158.5" fill="#fff" stroke="#000" stroke-width="2"/></g><g transform="translate(189.99 653.18)"><path d="m0 0h10.204" fill="#fff" stroke="#000" stroke-width="2"/></g><g transform="translate(105.41 653.18)"><path d="m0 0h78.583" fill="#fff" stroke="#000" stroke-width="2"/></g><g transform="translate(203.19 515.91)"><path d="m0 0 81.405 123.45c4.386 6.179 8.697 13.821 27.574 13.821" fill="#fff" stroke="#000" stroke-width="2"/></g><g transform="translate(284.21 638.79)"><path d="m0 0c1.481 2.394 0.994 11.056 0.994 14" fill="#fff" stroke="#000" stroke-width="2"/></g><g transform="translate(261.32 179.67)"><path d="m0 0v336.24l93.796 126.52" fill="none" stroke="#000" stroke-dasharray="36, 6, 6, 6, 6, 6" stroke-width=".821"/></g><g transform="translate(186.99 667.66)"><path d="m0 0v-485.15m16.203 485.15v-485.71m210.33 445.61v-65.088m0 150.2v-79.111m16.203-6v-65.088m0 150.2v-79.111m-50.537-3h141.02" fill="none" stroke="#000" stroke-width="2"/></g><g transform="translate(462.27 598.42)"><path d="m0 0v27" fill="none" stroke="#000" stroke-width=".75"/></g><g transform="translate(461.71 626.65)"><path d="m0 0c-0.25-0.872-0.484-1.439-0.755-2.139l2.648 0.035c-0.121 0.247-0.537 1.253-0.811 2.118-0.293 0.925-0.496 1.765-0.57 2.31-0.062-0.547-0.244-1.392-0.512-2.324"/></g><g transform="translate(221.11 441.4)"><path d="m0 0v1.108h-4.263v-1.108h-2.955v1.108h-4.262v-1.108h-1.563v-1.56h14.747v1.56h-0.852z"/></g><g transform="translate(217.33 542.58)"><path d="m0 0 0.137 0.537 0.136 0.537-4.13 1.052-0.136-0.537-0.137-0.536-0.606 0.154-0.606 0.155-0.152 0.038-0.151 0.038-0.674 0.172-0.675 0.172 0.137 0.536 0.137 0.537-4.132 1.052-0.136-0.537-0.137-0.536-0.757 0.192-0.757 0.193-0.193-0.757-0.192-0.756 7.145-1.82 7.146-1.821 0.192 0.757 0.193 0.758-0.826 0.21z"/></g><g transform="translate(221.11 385.33)"><path d="m0 0v1.109h-4.263v-1.109h-2.955v1.109h-4.262v-1.109h-1.563v-1.562h14.747v0.781 0.781h-0.852z"/></g><g transform="translate(221.11 330.61)"><path d="m0 0v1.107h-4.263v-1.107h-2.955v1.107h-4.262v-1.107h-1.563v-1.562h14.747v1.562z"/></g><g transform="translate(221.11 273.16)"><path d="m0 0v1.107h-4.263v-1.107h-2.955v1.107h-4.262v-1.107h-1.563v-1.562h14.747v0.781 0.781h-0.852z"/></g><g transform="translate(221.11 185.1)"><path d="m0 0v1.108h-4.263v-1.108h-2.955v1.108h-4.262v-1.108h-1.563v-1.562h14.747v1.562z"/></g><g transform="translate(285.74 438.65)"><path d="m0 0s-65.372-88.319-66.416-58.442" fill="none" stroke="#000" stroke-width=".75"/></g><g transform="translate(218.74 381.43)"><path d="m0 0c-0.232-0.877-0.454-1.45-0.708-2.156l2.647 0.093c-0.127 0.245-0.565 1.241-0.857 2.1-0.313 0.919-0.535 1.754-0.622 2.298-0.05-0.549-0.212-1.398-0.46-2.335"/></g><g transform="translate(285.74 378.86)"><path d="m0 0s-65.381-83.243-66.425-53.366" fill="none" stroke="#000" stroke-width=".75"/></g><g transform="translate(218.74 326.72)"><path d="m0 0c-0.232-0.877-0.453-1.449-0.708-2.155l2.647 0.092c-0.127 0.245-0.565 1.242-0.857 2.1-0.313 0.919-0.534 1.754-0.622 2.298-0.05-0.549-0.212-1.398-0.46-2.335"/></g><g transform="translate(285.74 282.45)"><path d="m0 0s-65.194-88.319-66.238-58.442" fill="none" stroke="#000" stroke-width=".75"/></g><g transform="translate(218.92 225.23)"><path d="m0 0c-0.232-0.877-0.453-1.449-0.708-2.154l2.647 0.092c-0.127 0.245-0.565 1.241-0.857 2.1-0.313 0.918-0.534 1.753-0.622 2.297-0.05-0.548-0.212-1.397-0.46-2.335"/></g></g><g clip-path="url(#h)"><g transform="translate(285.74 189.51)"><path d="m0 0s-65.554-39.405-66.597-9.528" fill="none" stroke="#000" stroke-width=".75"/></g></g><g clip-path="url(#g)"><g transform="translate(218.56 181.2)"><path d="m0 0c-0.232-0.877-0.454-1.449-0.709-2.154l2.647 0.092c-0.127 0.245-0.565 1.241-0.857 2.099-0.313 0.919-0.534 1.754-0.622 2.298-0.049-0.549-0.211-1.397-0.459-2.335"/></g><g transform="translate(307.1 668.4)"><path d="m0 0-12.716-10.665" fill="none" stroke="#000" stroke-width=".75"/></g><g transform="translate(293.78 656.53)"><path d="m0 0c0.834 0.356 1.421 0.534 2.134 0.768l-1.702 2.029c-0.114-0.251-0.63-1.21-1.128-1.968-0.531-0.812-1.053-1.501-1.427-1.904 0.462 0.299 1.231 0.693 2.123 1.075"/></g><g transform="translate(262.02 658.11)"><path d="m0 0h-25.842" fill="none" stroke="#000" stroke-width=".75"/></g><g transform="translate(236.71 658.11)"><path d="m0 0 1.15-1.892-0.065-0.043-3.084 1.226c-1.075 0.236-2.15 0.472-3.224 0.709 1.074 0.236 2.149 0.473 3.224 0.709l3.084 1.226 0.065-0.033z"/></g><g transform="translate(168.8 658.11)"><path d="m0 0h-25.841" fill="none" stroke="#000" stroke-width=".75"/></g><g transform="translate(143.5 658.11)"><path d="m0 0 1.15-1.892-0.064-0.043-3.085 1.226c-1.075 0.236-2.149 0.472-3.224 0.709 1.075 0.236 2.149 0.473 3.224 0.709l3.085 1.226 0.064-0.033z"/></g><g transform="translate(181.99 639.44)"><path d="m0 0v-25.841" fill="none" stroke="#000" stroke-width=".75"/></g><g transform="translate(181.99 614.13)"><path d="m0 0 1.892 1.15 0.043-0.064-1.225-3.085c-0.237-1.074-0.473-2.149-0.71-3.224-0.236 1.075-0.473 2.15-0.709 3.224l-1.226 3.085 0.033 0.064z"/></g><g transform="translate(208.21 562.16)"><path d="m0 0v29.534" fill="none" stroke="#000" stroke-width=".75"/></g><g transform="translate(208.21 591.16)"><path d="m0 0-1.892-1.15-0.043 0.064 1.225 3.085c0.237 1.074 0.473 2.149 0.71 3.224 0.236-1.075 0.473-2.15 0.709-3.224l1.226-3.085-0.033-0.064z"/></g><g transform="translate(434.75 635.69)"><path d="m0 0v22.534" fill="none" stroke="#000" stroke-width=".75"/></g><g transform="translate(434.75 657.69)"><path d="m0 0-1.892-1.15-0.043 0.065 1.226 3.084c0.237 1.075 0.473 2.149 0.709 3.224 0.237-1.075 0.473-2.149 0.709-3.224l1.225-3.084-0.031-0.065z"/></g><g transform="translate(408.5 664.62)"><path d="m0 0v-22.534" fill="none" stroke="#000" stroke-width=".75"/></g><g transform="translate(408.5 642.62)"><path d="m0 0 1.893 1.15 0.043-0.064-1.227-3.085c-0.236-1.075-0.472-2.149-0.709-3.224-0.236 1.075-0.472 2.149-0.709 3.224l-1.224 3.085 0.031 0.064z"/></g><g transform="translate(234.49 553.55)"><path d="m0 0 15.587 22.15" fill="none" stroke="#000" stroke-width=".75"/></g><g transform="translate(249.77 575.26)"><path d="m0 0-2.209 0.148 2e-3 0.078 2.778 1.817c0.811 0.743 1.623 1.486 2.435 2.228-0.425-1.014-0.85-2.03-1.275-3.044l-0.774-3.228-0.063-0.034z"/></g><g transform="translate(276.66 636.18)"><path d="m0 0c7.565 12.444 1.34 12.202 1.34 12.202h-7" fill="none" stroke="#000" stroke-width=".616"/></g><g transform="translate(271.44 648.38)"><path d="m0 0 0.944-1.553-0.053-0.035-2.532 1.006c-0.882 0.194-1.764 0.388-2.646 0.582 0.882 0.194 1.764 0.388 2.646 0.582l2.532 1.006 0.053-0.027z"/></g><g transform="translate(287.69 634.5)"><path d="m0 0s6.693 13.687 18.589 13.687" fill="none" stroke="#000" stroke-width=".616"/></g><g transform="translate(305.84 648.19)"><path d="m0 0-0.943 1.553 0.052 0.035 2.532-1.006c0.882-0.194 1.764-0.388 2.646-0.582-0.882-0.194-1.764-0.388-2.646-0.582l-2.532-1.006-0.052 0.027z"/></g><g transform="translate(317.35 648.09)"><path d="m0 0h20.92" fill="none" stroke="#000" stroke-width=".75"/></g><g transform="translate(337.73 648.09)"><path d="m0 0-1.151 1.892 0.065 0.043 3.084-1.226c1.074-0.236 2.148-0.472 3.224-0.709-1.076-0.236-2.15-0.473-3.224-0.709l-3.084-1.226-0.065 0.033z"/></g><g transform="translate(330.06 597.85)"><path d="m0 0s-61.817-5.594-51.885 8.078" fill="none" stroke="#000" stroke-width=".75"/></g><g transform="translate(278.47 607.25)"><path d="m0 0c-0.723-0.548-1.25-0.863-1.885-1.262l2.143-1.557c0.05 0.272 0.319 1.326 0.617 2.183 0.319 0.916 0.659 1.711 0.924 2.193-0.376-0.402-1.026-0.971-1.799-1.557"/></g><g transform="translate(323.21 586.06)"><path d="m0 0s-63.685-6.663-54.489 5.451" fill="none" stroke="#000" stroke-width=".75"/></g><g transform="translate(269.04 592.82)"><path d="m0 0c-0.734-0.532-1.267-0.836-1.911-1.222l2.11-1.601c0.055 0.27 0.346 1.319 0.663 2.169 0.338 0.91 0.694 1.697 0.97 2.173-0.384-0.394-1.047-0.949-1.832-1.519"/></g><g transform="translate(315.3 573.65)"><path d="m0 0s-67.022-10.949-55.964 3.372" fill="none" stroke="#000" stroke-width=".75"/></g><g transform="translate(259.66 578.33)"><path d="m0 0c-0.738-0.526-1.273-0.825-1.92-1.206l2.096-1.618c0.058 0.27 0.358 1.316 0.681 2.163 0.346 0.907 0.708 1.691 0.988 2.165-0.388-0.39-1.055-0.94-1.845-1.504"/></g><g transform="translate(260.81 630.04)"><path d="m0 0c4 0 22.889-15.362 26.861-9.655" fill="none" stroke="#000" stroke-width=".75"/></g><g transform="translate(287.94 621.71)"><path d="m0 0c-0.711-0.563-1.232-0.888-1.858-1.3l2.173-1.513c0.045 0.272 0.292 1.332 0.573 2.195 0.3 0.923 0.624 1.723 0.88 2.211-0.368-0.409-1.007-0.991-1.768-1.593"/></g><g transform="translate(173.91 594.65)"><path d="m0 0s31.654-73.136 36.583-55.605" fill="none" stroke="#000" stroke-width=".75"/></g><g transform="translate(210.31 540.38)"><path d="m0 0c-0.487-0.764-0.872-1.242-1.329-1.837l2.549-0.716c-0.047 0.272-0.161 1.354-0.178 2.26-0.019 0.971 0.024 1.834 0.106 2.378-0.213-0.507-0.626-1.266-1.148-2.085"/></g><g transform="translate(173.91 450.29)"><path d="m0 0s38.314-28.802 37.872-14.009" fill="none" stroke="#000" stroke-width=".75"/></g><g transform="translate(211.2 437.5)"><path d="m0 0c-0.237-0.876-0.461-1.446-0.72-2.151l2.647 0.079c-0.126 0.246-0.558 1.245-0.846 2.105-0.308 0.92-0.525 1.756-0.61 2.3-0.052-0.548-0.219-1.396-0.471-2.333"/></g><g transform="translate(174.21 254.89)"><path d="m0 0s37.777 2.542 37.57 13.15" fill="none" stroke="#000" stroke-width=".75"/></g><g transform="translate(211.22 269.27)"><path d="m0 0c-0.245-0.873-0.476-1.443-0.742-2.144l2.648 0.052c-0.123 0.247-0.545 1.25-0.824 2.112-0.299 0.924-0.507 1.762-0.586 2.307-0.058-0.547-0.234-1.394-0.496-2.327"/></g><g transform="translate(171.25 532.36)"><path d="m0 0c0-10.126 9.099-15.452 26.388-15.452" fill="none" stroke="#000" stroke-width=".75"/></g><g transform="translate(198.88 517.45)"><path d="m0 0c-0.869 0.26-1.434 0.5-2.131 0.777l8e-3 -2.648c0.249 0.119 1.259 0.525 2.126 0.789 0.929 0.284 1.77 0.478 2.315 0.548-0.546 0.067-1.388 0.257-2.318 0.534"/></g><g transform="translate(215.44 404.5)"><path d="m0 0v-15.421" fill="none" stroke="#000" stroke-width=".75"/></g><g transform="translate(215.98 387.65)"><path d="m0 0c0.262 0.868 0.504 1.432 0.783 2.128h-2.648c0.118-0.249 0.521-1.26 0.783-2.128 0.281-0.929 0.473-1.772 0.541-2.318 0.068 0.546 0.261 1.389 0.541 2.318"/></g><g transform="translate(215.44 437.77)"><path d="m0 0v-15.887" fill="none" stroke="#000" stroke-width=".75"/></g><g transform="translate(214.9 437.52)"><path d="m0 0c-0.262-0.869-0.504-1.433-0.783-2.129h2.648c-0.119 0.25-0.521 1.26-0.783 2.129-0.281 0.928-0.473 1.771-0.541 2.317-0.069-0.546-0.261-1.389-0.541-2.317"/></g><g transform="translate(215.44 348.43)"><path d="m0 0v-15.741" fill="none" stroke="#000" stroke-width=".75"/></g><g transform="translate(215.98 332.93)"><path d="m0 0c0.262 0.868 0.504 1.432 0.783 2.129h-2.648c0.118-0.249 0.521-1.261 0.783-2.129 0.281-0.929 0.473-1.772 0.541-2.318 0.068 0.546 0.261 1.389 0.541 2.318"/></g><g transform="translate(215.44 381.37)"><path d="m0 0v-15.55" fill="none" stroke="#000" stroke-width=".75"/></g><g transform="translate(214.9 381.45)"><path d="M 0,0 C -0.262,-0.868 -0.504,-1.432 -0.783,-2.129 H 1.865 C 1.746,-1.88 1.344,-0.868 1.082,0 0.801,0.929 0.609,1.772 0.541,2.318 0.472,1.772 0.28,0.929 0,0"/></g><g transform="translate(215.44 291.55)"><path d="m0 0v-14.494" fill="none" stroke="#000" stroke-width=".75"/></g><g transform="translate(215.98 275.48)"><path d="m0 0c0.262 0.868 0.504 1.432 0.783 2.129h-2.648c0.118-0.25 0.521-1.261 0.783-2.129 0.281-0.929 0.473-1.772 0.541-2.318 0.068 0.546 0.261 1.389 0.541 2.318"/></g><g transform="translate(215.44 326.24)"><path d="m0 0v-17.166" fill="none" stroke="#000" stroke-width=".75"/></g><g transform="translate(214.9 326.73)"><path d="m0 0c-0.262-0.868-0.504-1.432-0.783-2.129h2.648c-0.119 0.25-0.521 1.261-0.783 2.129-0.281 0.929-0.473 1.772-0.541 2.318-0.069-0.546-0.261-1.389-0.541-2.318"/></g><g transform="translate(215.44 243.58)"><path d="m0 0v-10.558" fill="none" stroke="#000" stroke-width=".75"/></g><g transform="translate(215.98 231.45)"><path d="m0 0c0.262 0.868 0.504 1.433 0.783 2.129h-2.648c0.118-0.249 0.521-1.261 0.783-2.129 0.281-0.928 0.473-1.771 0.541-2.317 0.068 0.546 0.261 1.389 0.541 2.317"/></g><g transform="translate(215.44 268.81)"><path d="m0 0v-8.93" fill="none" stroke="#000" stroke-width=".75"/></g><g transform="translate(214.9 269.28)"><path d="M 0,0 C -0.262,-0.868 -0.504,-1.432 -0.783,-2.129 H 1.865 C 1.746,-1.88 1.344,-0.868 1.082,0 0.801,0.929 0.609,1.772 0.541,2.318 0.472,1.772 0.28,0.929 0,0"/></g><g transform="translate(215.44 200)"><path d="m0 0v-11.001" fill="none" stroke="#000" stroke-width=".75"/></g><g transform="translate(215.98 187.42)"><path d="m0 0c0.262 0.868 0.504 1.433 0.783 2.129h-2.648c0.118-0.249 0.521-1.261 0.783-2.129 0.281-0.929 0.473-1.771 0.541-2.317 0.068 0.546 0.261 1.388 0.541 2.317"/></g><g transform="translate(215.44 224.78)"><path d="m0 0v-8.67" fill="none" stroke="#000" stroke-width=".75"/></g><g transform="translate(214.9 225.25)"><path d="M 0,0 C -0.262,-0.868 -0.504,-1.433 -0.783,-2.129 H 1.865 C 1.746,-1.88 1.344,-0.868 1.082,0 0.801,0.929 0.609,1.771 0.541,2.317 0.472,1.771 0.28,0.929 0,0"/></g><g transform="translate(299.32 627.33)"><path d="m0 0 0.972-0.305-0.603-0.829 0.441-0.306 0.585 0.846 0.585-0.846 0.441 0.306-0.603 0.829 0.972 0.305-0.18 0.495-0.945-0.342v0.99h-0.54v-0.99l-0.945 0.342z"/></g><g transform="translate(221.11 229.13)"><path d="m0 0v1.106h-4.263v-1.106h-2.955v1.106h-4.262v-1.106h-1.563v-1.563h14.747v1.563z"/></g><g transform="translate(295.16 500.46)"><path d="m0 0h102.28c2.166 0 3.937-1.773 3.937-3.941v-61.824c0-2.165-1.771-3.933-3.937-3.933h-102.28c-2.165 0-3.938 1.768-3.938 3.933v61.824c0 2.168 1.773 3.941 3.938 3.941z" fill="none" stroke="#000" stroke-miterlimit="2.613" stroke-width=".25"/></g><g transform="translate(295.16 499.03)"><path d="m0 0h102.28c1.379 0 2.508-1.125 2.508-2.511v-61.824c0-1.379-1.129-2.507-2.508-2.507h-102.28c-1.38 0-2.511 1.128-2.511 2.507v61.824c0 1.386 1.131 2.511 2.511 2.511" fill="#005596" fill-rule="evenodd"/></g><g transform="translate(312.27 488.3)"><path d="m0 0c-1.924 0-2.712 1.715-2.712 3.43 0 1.716 0.788 3.408 2.712 3.408 1.136 0 1.97-0.649 2.388-1.646l-1.229-0.464c-0.209 0.511-0.626 0.788-1.159 0.788-1.136 0-1.368-1.158-1.368-2.086 0-0.95 0.232-2.109 1.368-2.109 0.51 0 0.927 0.278 1.159 0.788h-0.788v1.321h2.271c-0.092-1.668-0.602-3.43-2.642-3.43" fill="#fff"/></g><g transform="translate(319.2 493.14)"><path d="m0 0-0.812-1.855h1.554zm1.9-4.729-0.625 1.553h-2.619l-0.626-1.553h-1.414l2.665 6.629h1.368l2.665-6.629z" fill="#fff"/></g><g transform="translate(327.92 488.67)"><path d="m0 0c-0.393-0.232-1.088-0.371-1.714-0.371-0.743 0-1.46 0.209-2.04 0.603-0.208 0.116-0.348 0.232-0.649 0.51l0.927 0.927c0.556-0.51 1.066-0.719 1.831-0.719s1.298 0.255 1.298 0.719c0 0.185-0.116 0.44-0.301 0.556-0.232 0.139-0.464 0.209-1.321 0.371-0.696 0.162-1.114 0.301-1.391 0.487-0.44 0.301-0.719 0.88-0.719 1.437 0 0.672 0.348 1.274 0.927 1.622 0.371 0.232 0.812 0.325 1.391 0.325 0.742 0 1.437-0.162 1.993-0.51 0.139-0.093 0.209-0.139 0.418-0.301l-0.812-1.044c-0.533 0.394-1.019 0.533-1.645 0.533-0.603 0-0.974-0.208-0.974-0.625 0-0.163 0.093-0.348 0.255-0.418 0.116-0.069 0.255-0.092 0.395-0.139l0.208-0.023 0.232-0.046 0.301-0.046c1.53-0.279 2.341-0.997 2.341-2.156 0-0.695-0.371-1.367-0.951-1.692" fill="#fff"/></g><path d="m330.42 491.45h9.272v-1.344h-9.272z" fill="#fff"/><g transform="translate(341.45 488.41)"><path d="m0 0v6.629h4.821v-1.321h-3.523v-1.09h1.994v-1.321h-1.994v-1.576h3.616v-1.321z" fill="#fff"/></g><g transform="translate(351.51 488.39)"><path d="m0 0-1.321 2.225-1.367-2.202h-1.531l2.086 3.477-1.9 3.129h1.553l1.159-1.877 1.112 1.877h1.576l-1.877-3.152 2.063-3.454z" fill="#fff"/></g><path d="m354.46 495.04h1.322v-6.629h-1.322z" fill="#fff"/><g transform="translate(360.06 493.72)"><path d="m0 0v-5.308h-1.275v5.308h-1.831v1.321h4.914v-1.321z" fill="#fff"/></g><g transform="translate(371.88 493.26)"><path d="m0 0-2.155-2.155h2.155zm1.298-3.384v-1.46h-1.298v1.46h-3.871v1.229l3.871 3.94h1.298v-3.94h0.997v-1.229z" fill="#fff"/></g><g transform="translate(379.16 493.26)"><path d="m0 0-2.156-2.155h2.156zm1.297-3.384v-1.46h-1.297v1.46h-3.871v1.229l3.871 3.94h1.297v-3.94h0.997v-1.229z" fill="#fff"/></g><g fill="#005596" stroke="#fff" stroke-width=".5"><path d="m326.3 463.03h-26.435v19.72h26.435z"/><path d="m326.3 438.98h-26.435v19.719h26.435z"/><path d="m359.89 463.03h-26.437v19.72h26.437z"/><path d="m359.89 438.98h-26.437v19.719h26.437z"/><path d="m393.48 463.03h-26.438v19.72h26.438z"/><path d="m393.48 438.98h-26.438v19.719h26.438z"/></g><g transform="translate(426.24 500.46)"><path d="m0 0h102.28c2.164 0 3.937-1.773 3.937-3.942v-36.223c0-2.165-1.773-3.934-3.937-3.934h-102.28c-2.166 0-3.938 1.769-3.938 3.934v36.223c0 2.169 1.772 3.942 3.938 3.942z" fill="none" stroke="#000" stroke-miterlimit="2.613" stroke-width=".25"/></g><g transform="translate(426.24 499.03)"><path d="m0 0h102.28c1.377 0 2.506-1.125 2.506-2.512v-36.223c0-1.379-1.129-2.507-2.506-2.507h-102.28c-1.381 0-2.512 1.128-2.512 2.507v36.223c0 1.387 1.131 2.512 2.512 2.512" fill="#005596" fill-rule="evenodd"/></g><g transform="translate(443.36 488.3)"><path d="m0 0c-1.924 0-2.712 1.715-2.712 3.431 0 1.715 0.788 3.407 2.712 3.407 1.135 0 1.969-0.649 2.387-1.646l-1.228-0.464c-0.209 0.511-0.626 0.788-1.159 0.788-1.136 0-1.367-1.158-1.367-2.085 0-0.951 0.231-2.11 1.367-2.11 0.509 0 0.926 0.278 1.159 0.788h-0.788v1.322h2.271c-0.092-1.669-0.602-3.431-2.642-3.431" fill="#fff"/></g><g transform="translate(450.29 493.14)"><path d="m0 0-0.811-1.855h1.554zm1.901-4.729-0.625 1.553h-2.619l-0.626-1.553h-1.414l2.665 6.629h1.368l2.665-6.629z" fill="#fff"/></g><g transform="translate(459.01 488.67)"><path d="m0 0c-0.393-0.232-1.089-0.371-1.715-0.371-0.742 0-1.46 0.209-2.04 0.603-0.208 0.116-0.347 0.232-0.648 0.51l0.927 0.927c0.556-0.51 1.066-0.719 1.831-0.719 0.764 0 1.298 0.256 1.298 0.719 0 0.185-0.117 0.44-0.301 0.556-0.233 0.139-0.464 0.209-1.321 0.371-0.696 0.162-1.114 0.301-1.391 0.487-0.441 0.301-0.719 0.88-0.719 1.437 0 0.672 0.348 1.274 0.927 1.622 0.371 0.232 0.811 0.325 1.391 0.325 0.742 0 1.437-0.162 1.993-0.51 0.139-0.093 0.209-0.139 0.418-0.301l-0.812-1.044c-0.533 0.394-1.019 0.533-1.645 0.533-0.603 0-0.974-0.208-0.974-0.625 0-0.163 0.093-0.348 0.255-0.418 0.116-0.069 0.255-0.092 0.394-0.139l0.208-0.023 0.233-0.046 0.301-0.046c1.53-0.279 2.34-0.997 2.34-2.156 0-0.695-0.371-1.367-0.95-1.692" fill="#fff"/></g><path d="m461.51 491.45h9.272v-1.344h-9.272z" fill="#fff"/><g transform="translate(472.54 488.41)"><path d="m0 0v6.629h4.822v-1.321h-3.523v-1.09h1.993v-1.32h-1.993v-1.577h3.615v-1.321z" fill="#fff"/></g><g transform="translate(482.6 488.39)"><path d="m0 0-1.321 2.225-1.368-2.202h-1.53l2.086 3.477-1.9 3.129h1.553l1.159-1.877 1.112 1.877h1.576l-1.877-3.152 2.063-3.454z" fill="#fff"/></g><path d="m485.55 495.04h1.322v-6.629h-1.322z" fill="#fff"/><g transform="translate(491.15 493.72)"><path d="m0 0v-5.308h-1.275v5.308h-1.831v1.321h4.914v-1.321z" fill="#fff"/></g><g transform="translate(502.97 493.26)"><path d="m0 0-2.155-2.155h2.155zm1.298-3.383v-1.461h-1.298v1.461h-3.871v1.228l3.871 3.94h1.298v-3.94h0.997v-1.228z" fill="#fff"/></g><g transform="translate(510.25 493.26)"><path d="m0 0-2.155-2.155h2.155zm1.298-3.383v-1.461h-1.298v1.461h-3.87v1.228l3.87 3.94h1.298v-3.94h0.997v-1.228z" fill="#fff"/></g><g fill="#005596" stroke="#fff" stroke-width=".5"><path d="m457.4 463.03h-26.438v19.721h26.438z"/><path d="m490.98 463.03h-26.438v19.721h26.438z"/><path d="m524.57 463.03h-26.438v19.721h26.438z"/></g></g><text transform="matrix(1 0 0 -1 405.09 475.44)" fill="#000000" font-family="Helvetica" font-size="9px"><tspan x="0 7.0019999" y="0">OR</tspan></text><g clip-path="url(#f)"><g transform="translate(295.16 417.67)"><path d="m0 0h102.28c2.166 0 3.937-1.771 3.937-3.941v-61.823c0-2.166-1.771-3.933-3.937-3.933h-102.28c-2.165 0-3.938 1.767-3.938 3.933v61.823c0 2.17 1.773 3.941 3.938 3.941z" fill="none" stroke="#000" stroke-miterlimit="2.613" stroke-width=".25"/></g><g transform="translate(295.16 416.24)"><path d="m0 0h102.28c1.379 0 2.508-1.125 2.508-2.512v-61.823c0-1.379-1.129-2.508-2.508-2.508h-102.28c-1.38 0-2.511 1.129-2.511 2.508v61.823c0 1.387 1.131 2.512 2.511 2.512" fill="#005596" fill-rule="evenodd"/></g><g transform="translate(308 410.93)"><path d="m0 0v-1.182h2.132v-1.321h-2.132v-2.805h-1.298v6.629h4.914v-1.321z" fill="#fff"/></g><g transform="translate(315.51 411.02)"><path d="m0 0c-0.95 0-1.46-0.695-1.46-2.085 0-1.345 0.533-2.11 1.46-2.11 0.904 0 1.46 0.835 1.46 2.133 0 1.437-0.533 2.062-1.46 2.062m0-5.516c-1.993 0-2.781 1.692-2.781 3.431 0 2.085 1.065 3.407 2.781 3.407 1.6 0 2.758-1.368 2.758-3.407 0-2.11-1.089-3.431-2.758-3.431" fill="#fff"/></g><g transform="translate(322.37 411.02)"><path d="m0 0c-0.951 0-1.46-0.695-1.46-2.085 0-1.345 0.533-2.11 1.46-2.11 0.904 0 1.46 0.835 1.46 2.133 0 1.437-0.534 2.062-1.46 2.062m0-5.516c-1.994 0-2.782 1.692-2.782 3.431 0 2.085 1.067 3.407 2.782 3.407 1.599 0 2.757-1.368 2.757-3.407 0-2.11-1.088-3.431-2.757-3.431" fill="#fff"/></g><g transform="translate(328.86 410.93)"><path d="m0 0h-0.834v-3.987h0.834c1.182 0 1.9 0.742 1.9 1.994 0 1.251-0.718 1.993-1.9 1.993m-0.069-5.308h-2.063v6.629h2.063c1.993 0 3.268-1.321 3.268-3.314 0-2.017-1.299-3.315-3.268-3.315" fill="#fff"/></g><path d="m333.56 408.66h9.271v-1.344h-9.271z" fill="#fff"/><g transform="translate(344.59 405.62)"><path d="m0 0v6.629h4.821v-1.321h-3.523v-1.09h1.993v-1.32h-1.993v-1.577h3.616v-1.321z" fill="#fff"/></g><g transform="translate(354.65 405.6)"><path d="m0 0-1.322 2.225-1.368-2.202h-1.529l2.086 3.477-1.9 3.129h1.552l1.159-1.877 1.113 1.877h1.576l-1.878-3.152 2.063-3.454z" fill="#fff"/></g><path d="m357.6 412.25h1.321v-6.629h-1.321z" fill="#fff"/><g transform="translate(363.21 410.93)"><path d="m0 0v-5.308h-1.275v5.308h-1.831v1.321h4.913v-1.321z" fill="#fff"/></g><g transform="translate(375.03 410.46)"><path d="m0 0-2.156-2.155h2.156zm1.298-3.383v-1.461h-1.298v1.461h-3.871v1.228l3.871 3.94h1.298v-3.94h0.996v-1.228z" fill="#fff"/></g><g transform="translate(382.3 410.46)"><path d="m0 0-2.155-2.155h2.155zm1.298-3.383v-1.461h-1.298v1.461h-3.871v1.228l3.871 3.94h1.298v-3.94h0.997v-1.228z" fill="#fff"/></g><g fill="#005596" stroke="#fff" stroke-width=".5"><path d="m326.3 380.24h-26.435v19.719h26.435z"/><path d="m326.3 356.18h-26.435v19.718h26.435z"/><path d="m359.89 380.24h-26.437v19.719h26.437z"/><path d="m359.89 356.18h-26.437v19.718h26.437z"/><path d="m393.48 380.24h-26.438v19.719h26.438z"/><path d="m393.48 356.18h-26.438v19.718h26.438z"/></g><g transform="translate(426.24 417.67)"><path d="m0 0h102.28c2.164 0 3.937-1.772 3.937-3.941v-36.223c0-2.166-1.773-3.934-3.937-3.934h-102.28c-2.166 0-3.938 1.768-3.938 3.934v36.223c0 2.169 1.772 3.941 3.938 3.941z" fill="none" stroke="#000" stroke-miterlimit="2.613" stroke-width=".25"/></g><g transform="translate(426.24 416.24)"><path d="m0 0h102.28c1.377 0 2.506-1.125 2.506-2.512v-36.223c0-1.379-1.129-2.508-2.506-2.508h-102.28c-1.381 0-2.512 1.129-2.512 2.508v36.223c0 1.387 1.131 2.512 2.512 2.512" fill="#005596" fill-rule="evenodd"/></g><g transform="translate(439.09 410.93)"><path d="m0 0v-1.182h2.133v-1.321h-2.133v-2.805h-1.298v6.629h4.915v-1.321z" fill="#fff"/></g><g transform="translate(446.6 411.02)"><path d="m0 0c-0.95 0-1.46-0.695-1.46-2.085 0-1.345 0.532-2.11 1.46-2.11 0.903 0 1.46 0.835 1.46 2.133 0 1.437-0.533 2.062-1.46 2.062m0-5.516c-1.993 0-2.781 1.692-2.781 3.431 0 2.085 1.065 3.407 2.781 3.407 1.6 0 2.758-1.368 2.758-3.407 0-2.11-1.089-3.431-2.758-3.431" fill="#fff"/></g><g transform="translate(453.46 411.02)"><path d="m0 0c-0.95 0-1.459-0.695-1.459-2.085 0-1.345 0.533-2.11 1.459-2.11 0.905 0 1.46 0.835 1.46 2.133 0 1.437-0.533 2.062-1.46 2.062m0-5.516c-1.993 0-2.781 1.692-2.781 3.431 0 2.085 1.067 3.407 2.781 3.407 1.6 0 2.758-1.368 2.758-3.407 0-2.11-1.089-3.431-2.758-3.431" fill="#fff"/></g><g transform="translate(459.95 410.93)"><path d="m0 0h-0.834v-3.987h0.834c1.182 0 1.9 0.742 1.9 1.994 0 1.251-0.718 1.993-1.9 1.993m-0.07-5.308h-2.062v6.629h2.062c1.994 0 3.269-1.321 3.269-3.314 0-2.017-1.299-3.315-3.269-3.315" fill="#fff"/></g><path d="m464.65 408.66h9.271v-1.344h-9.271z" fill="#fff"/><g transform="translate(475.68 405.62)"><path d="m0 0v6.629h4.821v-1.321h-3.523v-1.09h1.993v-1.32h-1.993v-1.577h3.616v-1.321z" fill="#fff"/></g><g transform="translate(485.74 405.6)"><path d="m0 0-1.322 2.225-1.368-2.202h-1.529l2.086 3.477-1.901 3.129h1.553l1.159-1.877 1.113 1.877h1.576l-1.878-3.152 2.063-3.454z" fill="#fff"/></g><path d="m488.69 412.25h1.321v-6.629h-1.321z" fill="#fff"/><g transform="translate(494.29 410.93)"><path d="m0 0v-5.308h-1.274v5.308h-1.831v1.321h4.913v-1.321z" fill="#fff"/></g><g transform="translate(506.12 410.46)"><path d="m0 0-2.157-2.155h2.157zm1.298-3.383v-1.461h-1.298v1.461h-3.871v1.228l3.871 3.94h1.298v-3.94h0.996v-1.228z" fill="#fff"/></g><g transform="translate(513.39 410.46)"><path d="m0 0-2.155-2.155h2.155zm1.298-3.383v-1.461h-1.298v1.461h-3.871v1.228l3.871 3.94h1.298v-3.94h0.997v-1.228z" fill="#fff"/></g><g fill="#005596" stroke="#fff" stroke-width=".5"><path d="m457.4 380.24h-26.438v19.721h26.438z"/><path d="m490.98 380.24h-26.438v19.721h26.438z"/><path d="m524.57 380.24h-26.438v19.721h26.438z"/></g></g><text transform="matrix(1 0 0 -1 405.09 392.64)" fill="#000000" font-family="Helvetica" font-size="9px"><tspan x="0 7.0019999" y="0">OR</tspan></text><g clip-path="url(#e)"><g transform="translate(295.16 334.88)"><path d="m0 0h102.28c2.166 0 3.937-1.772 3.937-3.941v-61.823c0-2.166-1.771-3.933-3.937-3.933h-102.28c-2.165 0-3.938 1.767-3.938 3.933v61.823c0 2.169 1.773 3.941 3.938 3.941z" fill="none" stroke="#000" stroke-miterlimit="2.613" stroke-width=".25"/></g><g transform="translate(295.16 333.45)"><path d="m0 0h102.28c1.379 0 2.508-1.125 2.508-2.511v-61.823c0-1.379-1.129-2.508-2.508-2.508h-102.28c-1.38 0-2.511 1.129-2.511 2.508v61.823c0 1.386 1.131 2.511 2.511 2.511" fill="#005596" fill-rule="evenodd"/></g><g transform="translate(298.47 322.83)"><path d="m0 0v6.629h1.298v-5.377h3.616v-1.252z" fill="#fff"/></g><g transform="translate(306.93 328.23)"><path d="m0 0c-0.951 0-1.461-0.695-1.461-2.085 0-1.345 0.533-2.11 1.461-2.11 0.903 0 1.46 0.835 1.46 2.133 0 1.437-0.533 2.062-1.46 2.062m0-5.516c-1.994 0-2.782 1.692-2.782 3.431 0 2.085 1.066 3.407 2.782 3.407 1.599 0 2.758-1.367 2.758-3.407 0-2.11-1.089-3.431-2.758-3.431" fill="#fff"/></g><g transform="translate(313.42 328.14)"><path d="m0 0h-0.835v-3.987h0.835c1.182 0 1.901 0.742 1.901 1.994s-0.719 1.993-1.901 1.993m-0.069-5.308h-2.063v6.629h2.063c1.993 0 3.268-1.321 3.268-3.314 0-2.017-1.298-3.315-3.268-3.315" fill="#fff"/></g><g transform="translate(320.65 322.71)"><path d="m0 0c-1.924 0-2.712 1.716-2.712 3.431 0 1.714 0.788 3.407 2.712 3.407 1.136 0 1.97-0.65 2.386-1.646l-1.228-0.464c-0.208 0.51-0.625 0.788-1.158 0.788-1.136 0-1.368-1.159-1.368-2.085 0-0.951 0.232-2.11 1.368-2.11 0.51 0 0.927 0.278 1.158 0.788h-0.787v1.322h2.27c-0.091-1.669-0.602-3.431-2.641-3.431" fill="#fff"/></g><path d="m324.87 329.46h1.321v-6.629h-1.321z" fill="#fff"/><g transform="translate(332.24 322.83)"><path d="m0 0-2.897 4.241v-4.241h-1.299v6.629h1.299l2.735-4.056v4.056h1.297v-6.629z" fill="#fff"/></g><g transform="translate(337.66 322.71)"><path d="m0 0c-1.923 0-2.711 1.716-2.711 3.431 0 1.714 0.788 3.407 2.711 3.407 1.136 0 1.971-0.65 2.388-1.646l-1.228-0.464c-0.209 0.51-0.626 0.788-1.16 0.788-1.135 0-1.367-1.159-1.367-2.085 0-0.951 0.232-2.11 1.367-2.11 0.51 0 0.927 0.278 1.16 0.788h-0.788v1.322h2.271c-0.093-1.669-0.602-3.431-2.643-3.431" fill="#fff"/></g><path d="m341.79 325.86h9.272v-1.344h-9.272z" fill="#fff"/><g transform="translate(352.82 322.83)"><path d="m0 0v6.629h4.82v-1.321h-3.522v-1.089h1.993v-1.321h-1.993v-1.577h3.615v-1.321z" fill="#fff"/></g><g transform="translate(362.88 322.81)"><path d="m0 0-1.321 2.225-1.367-2.202h-1.53l2.085 3.477-1.9 3.129h1.553l1.159-1.877 1.112 1.877h1.576l-1.876-3.153 2.062-3.453z" fill="#fff"/></g><path d="m365.82 329.46h1.321v-6.629h-1.321z" fill="#fff"/><g transform="translate(371.43 328.14)"><path d="m0 0v-5.308h-1.274v5.308h-1.831v1.321h4.914v-1.321z" fill="#fff"/></g><g transform="translate(383.25 327.67)"><path d="m0 0-2.155-2.155h2.155zm1.298-3.384v-1.46h-1.298v1.46h-3.871v1.229l3.871 3.94h1.298v-3.94h0.997v-1.229z" fill="#fff"/></g><g transform="translate(390.53 327.67)"><path d="m0 0-2.156-2.155h2.156zm1.299-3.384v-1.46h-1.299v1.46h-3.87v1.229l3.87 3.94h1.299v-3.94h0.996v-1.229z" fill="#fff"/></g><g fill="#005596" stroke="#fff" stroke-width=".5"><path d="m326.3 297.45h-26.435v19.719h26.435z"/><path d="m326.3 273.39h-26.435v19.718h26.435z"/><path d="m359.89 297.45h-26.437v19.719h26.437z"/><path d="m359.89 273.39h-26.437v19.718h26.437z"/><path d="m393.48 297.45h-26.438v19.719h26.438z"/><path d="m393.48 273.39h-26.438v19.718h26.438z"/></g><g transform="translate(426.24 334.88)"><path d="m0 0h102.28c2.164 0 3.937-1.772 3.937-3.941v-36.223c0-2.166-1.773-3.934-3.937-3.934h-102.28c-2.166 0-3.938 1.768-3.938 3.934v36.223c0 2.169 1.772 3.941 3.938 3.941z" fill="none" stroke="#000" stroke-miterlimit="2.613" stroke-width=".25"/></g><g transform="translate(426.24 333.45)"><path d="m0 0h102.28c1.377 0 2.506-1.125 2.506-2.511v-36.223c0-1.379-1.129-2.508-2.506-2.508h-102.28c-1.381 0-2.512 1.129-2.512 2.508v36.223c0 1.386 1.131 2.511 2.512 2.511" fill="#005596" fill-rule="evenodd"/></g><g transform="translate(429.56 322.83)"><path d="m0 0v6.629h1.298v-5.377h3.615v-1.252z" fill="#fff"/></g><g transform="translate(438.02 328.23)"><path d="m0 0c-0.95 0-1.46-0.695-1.46-2.085 0-1.345 0.533-2.11 1.46-2.11 0.904 0 1.461 0.835 1.461 2.133 0 1.437-0.533 2.062-1.461 2.062m0-5.516c-1.993 0-2.781 1.692-2.781 3.431 0 2.085 1.066 3.407 2.781 3.407 1.6 0 2.759-1.367 2.759-3.407 0-2.11-1.09-3.431-2.759-3.431" fill="#fff"/></g><g transform="translate(444.51 328.14)"><path d="m0 0h-0.835v-3.987h0.835c1.182 0 1.901 0.742 1.901 1.994s-0.719 1.993-1.901 1.993m-0.069-5.308h-2.064v6.629h2.064c1.993 0 3.267-1.321 3.267-3.314 0-2.017-1.297-3.315-3.267-3.315" fill="#fff"/></g><g transform="translate(451.74 322.71)"><path d="m0 0c-1.924 0-2.712 1.716-2.712 3.431 0 1.714 0.788 3.407 2.712 3.407 1.135 0 1.969-0.65 2.386-1.646l-1.228-0.464c-0.208 0.51-0.625 0.788-1.158 0.788-1.136 0-1.369-1.159-1.369-2.085 0-0.951 0.233-2.11 1.369-2.11 0.509 0 0.926 0.278 1.158 0.788h-0.787v1.322h2.27c-0.092-1.669-0.602-3.431-2.641-3.431" fill="#fff"/></g><path d="m455.96 329.46h1.322v-6.629h-1.322z" fill="#fff"/><g transform="translate(463.33 322.83)"><path d="m0 0-2.897 4.241v-4.241h-1.299v6.629h1.299l2.734-4.056v4.056h1.298v-6.629z" fill="#fff"/></g><g transform="translate(468.75 322.71)"><path d="m0 0c-1.923 0-2.712 1.716-2.712 3.431 0 1.714 0.789 3.407 2.712 3.407 1.136 0 1.971-0.65 2.388-1.646l-1.228-0.464c-0.209 0.51-0.626 0.788-1.16 0.788-1.135 0-1.367-1.159-1.367-2.085 0-0.951 0.232-2.11 1.367-2.11 0.51 0 0.927 0.278 1.16 0.788h-0.789v1.322h2.272c-0.093-1.669-0.603-3.431-2.643-3.431" fill="#fff"/></g><path d="m472.88 325.86h9.272v-1.344h-9.272z" fill="#fff"/><g transform="translate(483.91 322.83)"><path d="m0 0v6.629h4.82v-1.321h-3.523v-1.089h1.994v-1.321h-1.994v-1.577h3.616v-1.321z" fill="#fff"/></g><g transform="translate(493.97 322.81)"><path d="m0 0-1.321 2.225-1.367-2.202h-1.531l2.086 3.477-1.9 3.129h1.553l1.159-1.877 1.112 1.877h1.576l-1.877-3.153 2.063-3.453z" fill="#fff"/></g><path d="m496.91 329.46h1.322v-6.629h-1.322z" fill="#fff"/><g transform="translate(502.52 328.14)"><path d="m0 0v-5.308h-1.275v5.308h-1.831v1.321h4.914v-1.321z" fill="#fff"/></g><g transform="translate(514.34 327.67)"><path d="m0 0-2.155-2.155h2.155zm1.298-3.384v-1.46h-1.298v1.46h-3.871v1.229l3.871 3.94h1.298v-3.94h0.997v-1.229z" fill="#fff"/></g><g transform="translate(521.62 327.67)"><path d="m0 0-2.156-2.155h2.156zm1.298-3.384v-1.46h-1.298v1.46h-3.871v1.229l3.871 3.94h1.298v-3.94h0.996v-1.229z" fill="#fff"/></g><g fill="#005596" stroke="#fff" stroke-width=".5"><path d="m457.4 297.44h-26.438v19.721h26.438z"/><path d="m490.98 297.44h-26.438v19.721h26.438z"/><path d="m524.57 297.44h-26.438v19.721h26.438z"/></g></g><text transform="matrix(1 0 0 -1 405.09 309.85)" fill="#000000" font-family="Helvetica" font-size="9px"><tspan x="0 7.0019999" y="0">OR</tspan></text><g clip-path="url(#d)"><g transform="translate(295.16 252.08)"><path d="m0 0h102.28c2.166 0 3.937-1.771 3.937-3.941v-61.823c0-2.166-1.771-3.933-3.937-3.933h-102.28c-2.165 0-3.938 1.767-3.938 3.933v61.823c0 2.17 1.773 3.941 3.938 3.941z" fill="none" stroke="#000" stroke-miterlimit="2.613" stroke-width=".25"/></g><g transform="translate(295.16 250.65)"><path d="m0 0h102.28c1.379 0 2.508-1.125 2.508-2.511v-61.823c0-1.379-1.129-2.507-2.508-2.507h-102.28c-1.38 0-2.511 1.128-2.511 2.507v61.823c0 1.386 1.131 2.511 2.511 2.511" fill="#005596" fill-rule="evenodd"/></g><g transform="translate(300.11 239.92)"><path d="m0 0c-1.924 0-2.875 1.692-2.875 3.431 0 2.04 1.183 3.407 2.921 3.407 1.043 0 1.97-0.533 2.434-1.438l-1.159-0.625c-0.302 0.51-0.788 0.742-1.321 0.742-0.951 0-1.553-0.812-1.553-2.086 0-1.298 0.602-2.11 1.553-2.11 0.533 0 1.019 0.255 1.321 0.765l1.159-0.625c-0.58-0.928-1.344-1.461-2.48-1.461" fill="#fff"/></g><g transform="translate(306.76 244.76)"><path d="m0 0-0.812-1.855h1.553zm1.9-4.729-0.625 1.553h-2.619l-0.626-1.553h-1.415l2.666 6.629h1.368l2.665-6.629z" fill="#fff"/></g><g transform="translate(316.14 240.04)"><path d="m0 0v3.593l-1.762-3.593-1.807 3.593v-3.593h-1.299v6.629h1.299l1.807-3.639 1.762 3.639h1.298v-6.629z" fill="#fff"/></g><g transform="translate(322.5 245.34)"><path d="m0 0h-1.902v-1.507h1.902c0.509 0 0.834 0.302 0.834 0.766 0 0.417-0.348 0.741-0.834 0.741m1.112-2.55c-0.395-0.208-0.672-0.277-1.275-0.277h-1.739v-2.481h-1.298v6.629h3.107c0.555 0 0.834-0.069 1.205-0.278 0.626-0.371 1.019-1.043 1.019-1.784 0-0.766-0.393-1.461-1.019-1.809" fill="#fff"/></g><path d="m325.83 246.66h1.322v-6.629h-1.322z" fill="#fff"/><g transform="translate(333.2 240.04)"><path d="m0 0-2.898 4.241v-4.241h-1.298v6.629h1.298l2.734-4.056v4.056h1.299v-6.629z" fill="#fff"/></g><g transform="translate(338.63 239.92)"><path d="m0 0c-1.923 0-2.712 1.716-2.712 3.431 0 1.714 0.789 3.407 2.712 3.407 1.136 0 1.971-0.65 2.388-1.646l-1.228-0.464c-0.209 0.51-0.626 0.789-1.16 0.789-1.135 0-1.367-1.16-1.367-2.086 0-0.951 0.232-2.11 1.367-2.11 0.511 0 0.928 0.279 1.16 0.788h-0.788v1.322h2.271c-0.093-1.669-0.603-3.431-2.643-3.431" fill="#fff"/></g><path d="m342.75 243.07h9.271v-1.343h-9.271z" fill="#fff"/><g transform="translate(353.78 240.04)"><path d="m0 0v6.629h4.821v-1.321h-3.524v-1.089h1.994v-1.321h-1.994v-1.577h3.616v-1.321z" fill="#fff"/></g><g transform="translate(363.84 240.01)"><path d="m0 0-1.321 2.225-1.367-2.202h-1.53l2.086 3.477-1.901 3.129h1.554l1.158-1.877 1.113 1.877h1.575l-1.877-3.153 2.063-3.453z" fill="#fff"/></g><path d="m366.79 246.66h1.321v-6.629h-1.321z" fill="#fff"/><g transform="translate(372.4 245.34)"><path d="m0 0v-5.308h-1.275v5.308h-1.832v1.321h4.915v-1.321z" fill="#fff"/></g><g transform="translate(384.21 244.88)"><path d="m0 0-2.155-2.155h2.155zm1.298-3.384v-1.46h-1.298v1.46h-3.87v1.229l3.87 3.94h1.298v-3.94h0.997v-1.229z" fill="#fff"/></g><g transform="translate(391.49 244.88)"><path d="m0 0-2.157-2.155h2.157zm1.297-3.384v-1.46h-1.297v1.46h-3.871v1.229l3.871 3.94h1.297v-3.94h0.997v-1.229z" fill="#fff"/></g><g fill="#005596" stroke="#fff" stroke-width=".5"><path d="m326.3 214.65h-26.435v19.719h26.435z"/><path d="m326.3 190.6h-26.435v19.718h26.435z"/><path d="m359.89 214.65h-26.437v19.719h26.437z"/><path d="m359.89 190.6h-26.437v19.718h26.437z"/><path d="m393.48 214.65h-26.438v19.719h26.438z"/><path d="m393.48 190.6h-26.438v19.718h26.438z"/></g><g transform="translate(426.24 252.08)"><path d="m0 0h102.28c2.164 0 3.937-1.772 3.937-3.941v-36.223c0-2.166-1.773-3.934-3.937-3.934h-102.28c-2.166 0-3.938 1.768-3.938 3.934v36.223c0 2.169 1.772 3.941 3.938 3.941z" fill="none" stroke="#000" stroke-miterlimit="2.613" stroke-width=".25"/></g><g transform="translate(426.24 250.65)"><path d="m0 0h102.28c1.377 0 2.506-1.125 2.506-2.511v-36.223c0-1.379-1.129-2.508-2.506-2.508h-102.28c-1.381 0-2.512 1.129-2.512 2.508v36.223c0 1.386 1.131 2.511 2.512 2.511" fill="#005596" fill-rule="evenodd"/></g><g transform="translate(431.2 239.92)"><path d="m0 0c-1.924 0-2.874 1.692-2.874 3.431 0 2.04 1.181 3.407 2.92 3.407 1.043 0 1.97-0.533 2.433-1.438l-1.158-0.625c-0.302 0.51-0.788 0.742-1.321 0.742-0.95 0-1.553-0.812-1.553-2.086 0-1.298 0.603-2.11 1.553-2.11 0.533 0 1.019 0.255 1.321 0.765l1.158-0.625c-0.579-0.928-1.344-1.461-2.479-1.461" fill="#fff"/></g><g transform="translate(437.85 244.76)"><path d="m0 0-0.81-1.855h1.552zm1.901-4.729-0.625 1.553h-2.62l-0.626-1.553h-1.414l2.666 6.629h1.368l2.665-6.629z" fill="#fff"/></g><g transform="translate(447.23 240.04)"><path d="m0 0v3.593l-1.762-3.593-1.808 3.593v-3.593h-1.298v6.629h1.298l1.808-3.639 1.762 3.639h1.298v-6.629z" fill="#fff"/></g><g transform="translate(453.58 245.34)"><path d="m0 0h-1.901v-1.507h1.901c0.51 0 0.834 0.302 0.834 0.766 0 0.417-0.347 0.741-0.834 0.741m1.113-2.55c-0.395-0.208-0.672-0.277-1.275-0.277h-1.739v-2.481h-1.298v6.629h3.107c0.555 0 0.834-0.069 1.205-0.278 0.626-0.371 1.019-1.043 1.019-1.784 0-0.766-0.393-1.461-1.019-1.809" fill="#fff"/></g><path d="m456.92 246.66h1.322v-6.629h-1.322z" fill="#fff"/><g transform="translate(464.29 240.04)"><path d="m0 0-2.897 4.241v-4.241h-1.298v6.629h1.298l2.734-4.056v4.056h1.299v-6.629z" fill="#fff"/></g><g transform="translate(469.72 239.92)"><path d="m0 0c-1.924 0-2.712 1.716-2.712 3.431 0 1.714 0.788 3.407 2.712 3.407 1.136 0 1.971-0.65 2.388-1.646l-1.229-0.464c-0.209 0.51-0.626 0.789-1.159 0.789-1.135 0-1.367-1.16-1.367-2.086 0-0.951 0.232-2.11 1.367-2.11 0.511 0 0.928 0.279 1.159 0.788h-0.788v1.322h2.272c-0.093-1.669-0.603-3.431-2.643-3.431" fill="#fff"/></g><path d="m473.84 243.07h9.271v-1.343h-9.271z" fill="#fff"/><g transform="translate(484.87 240.04)"><path d="m0 0v6.629h4.822v-1.321h-3.524v-1.089h1.993v-1.321h-1.993v-1.577h3.616v-1.321z" fill="#fff"/></g><g transform="translate(494.93 240.01)"><path d="m0 0-1.321 2.225-1.367-2.202h-1.53l2.086 3.477-1.901 3.129h1.554l1.158-1.877 1.113 1.877h1.575l-1.877-3.153 2.063-3.453z" fill="#fff"/></g><path d="m497.88 246.66h1.322v-6.629h-1.322z" fill="#fff"/><g transform="translate(503.49 245.34)"><path d="m0 0v-5.308h-1.276v5.308h-1.831v1.321h4.914v-1.321z" fill="#fff"/></g><g transform="translate(515.3 244.88)"><path d="m0 0-2.155-2.155h2.155zm1.298-3.384v-1.46h-1.298v1.46h-3.87v1.229l3.87 3.94h1.298v-3.94h0.997v-1.229z" fill="#fff"/></g><g transform="translate(522.58 244.88)"><path d="m0 0-2.156-2.155h2.156zm1.298-3.384v-1.46h-1.298v1.46h-3.871v1.229l3.871 3.94h1.298v-3.94h0.996v-1.229z" fill="#fff"/></g><g fill="#005596" stroke="#fff" stroke-width=".5"><path d="m457.4 214.65h-26.438v19.721h26.438z"/><path d="m490.98 214.65h-26.438v19.721h26.438z"/><path d="m524.57 214.65h-26.438v19.721h26.438z"/></g></g><text transform="matrix(1 0 0 -1 405.09 227.06)" fill="#000000" font-family="Helvetica" font-size="9px"><tspan x="0 7.0019999" y="0">OR</tspan></text><g clip-path="url(#c)"><g transform="translate(127.86 619.92)"><path d="m0 0h39.385c2.17 0 3.939-1.77 3.939-3.939v-31.508c0-2.169-1.769-3.938-3.939-3.938h-39.385c-2.169 0-3.939 1.769-3.939 3.938v31.508c0 2.169 1.77 3.939 3.939 3.939z" fill="none" stroke="#000" stroke-miterlimit="2.613" stroke-width=".25"/></g><g transform="translate(167.24 618.87)"><path d="m0 0 0.163-3e-3 0.146-0.012 0.144-0.019 0.141-0.025 0.139-0.032 0.136-0.039 0.134-0.045 0.131-0.051 0.128-0.059 0.124-0.064 0.121-0.069 0.117-0.076 0.114-0.081 0.11-0.086 0.105-0.091 0.101-0.096 0.096-0.101 0.091-0.105 0.085-0.11 0.082-0.113 0.075-0.117 0.07-0.121 0.064-0.125 0.058-0.128 0.051-0.13 0.045-0.134 0.04-0.136 0.032-0.139 0.025-0.142 0.018-0.144 0.011-0.146 4e-3 -0.162v-31.482l-4e-3 -0.162-0.011-0.146-0.018-0.144-0.025-0.141-0.032-0.14-0.04-0.136-0.045-0.134-0.051-0.131-0.058-0.127-0.064-0.124-0.07-0.122-0.075-0.117-0.082-0.114-0.085-0.109-0.091-0.106-0.096-0.1-0.101-0.096-0.105-0.091-0.11-0.086-0.114-0.081-0.117-0.076-0.121-0.07-0.124-0.063-0.128-0.059-0.131-0.051-0.134-0.045-0.136-0.039-0.139-0.032-0.141-0.026-0.144-0.018-0.146-0.012-0.163-4e-3h-39.359l-0.162 4e-3 -0.146 0.012-0.144 0.018-0.142 0.026-0.138 0.032-0.137 0.039-0.133 0.045-0.132 0.051-0.127 0.059-0.125 0.063-0.121 0.07-0.116 0.076-0.115 0.081-0.109 0.086-0.105 0.091-0.101 0.096-0.096 0.1-0.091 0.106-0.087 0.109-0.08 0.114-0.076 0.117-0.069 0.122-0.064 0.124-0.058 0.127-0.052 0.131-0.045 0.134-0.039 0.136-0.033 0.14-0.025 0.141-0.018 0.144-0.011 0.146-4e-3 0.162v31.482l4e-3 0.162 0.011 0.146 0.018 0.144 0.025 0.142 0.033 0.139 0.039 0.136 0.045 0.134 0.052 0.13 0.058 0.128 0.064 0.125 0.069 0.121 0.076 0.117 0.08 0.113 0.087 0.11 0.091 0.105 0.096 0.101 0.101 0.096 0.105 0.091 0.109 0.086 0.115 0.081 0.116 0.076 0.121 0.069 0.125 0.064 0.127 0.059 0.132 0.051 0.133 0.045 0.137 0.039 0.138 0.032 0.142 0.025 0.144 0.019 0.146 0.012 0.162 3e-3z" fill="#006f51" fill-rule="evenodd"/></g><g transform="translate(146.06 594.38)"><path d="m0 0h-3.356l3.356 4.434zm2.984-1.699v1.699h-1.119v7.168h-1.865l-5.842-7.748v-1.119h5.842v-2.943h1.865v2.943zm-13.468 1.699h-3.356l3.356 4.434zm2.984-1.699v1.699h-1.119v7.168h-1.865l-5.842-7.748v-1.119h5.842v-2.943h1.865v2.943z" fill="#fff" fill-rule="evenodd"/></g><g transform="translate(159.67 613.1)"><path d="m0 0v1.569h-5.835v-1.569h2.173v-6.304h1.515v6.304zm-7.212 1.569h-1.569v-7.873h1.569zm-3.194-7.873-2.449 4.101 2.229 3.745h-1.872l-1.321-2.23-1.376 2.23h-1.845l2.258-3.717-2.478-4.129h1.817l1.624 2.615 1.569-2.647zm-7.927 0v1.569h-4.295v1.872h2.367v1.569h-2.367v1.294h4.185v1.569h-5.727v-7.873z" fill="#fff" fill-rule="evenodd"/></g><g transform="translate(166.97 599.38)"><path d="m0 0c0.164-0.164 0.232-0.402 0.178-0.625l-1.799-9.611c-0.016-0.15-0.083-0.295-0.19-0.403-0.259-0.261-0.683-0.262-0.943-3e-3 -0.041 0.04-0.078 0.092-0.107 0.139l-2.179 3.64-6.977-8.032-2.844 2.824 8.052 6.96-3.672 2.17c-0.048 0.029-0.1 0.065-0.14 0.106-0.261 0.259-0.263 0.683-4e-3 0.943 0.107 0.107 0.252 0.176 0.401 0.193l9.597 1.873c0.223 0.055 0.462-0.011 0.627-0.174" fill="#fff" fill-rule="evenodd"/></g><g transform="translate(111.77 283.68)"><path d="m0 0h56.424c1.477 0 2.686-1.209 2.686-2.687v-52.121c0-1.476-1.209-2.685-2.686-2.685h-56.424c-1.478 0-2.687 1.209-2.687 2.685v52.121c0 1.478 1.209 2.687 2.687 2.687z" fill="none" stroke="#000" stroke-miterlimit="2.613" stroke-width=".25"/></g><g transform="translate(111.77 282.7)"><path d="m0 0h56.423c0.941 0 1.711-0.771 1.711-1.711v-52.121c0-0.94-0.77-1.712-1.711-1.712h-56.423c-0.941 0-1.712 0.772-1.712 1.712v52.121c0 0.94 0.771 1.711 1.712 1.711" fill="#006f51" fill-rule="evenodd"/></g><g transform="translate(140.01 264.28)"><path d="m0 0c-0.61 0.73-1.525 1.176-2.478 1.176h-0.585c-2.069 0-3.755 1.688-3.755 3.755 0 1.278 0.815 2.217 0.815 3.538 0 0.899-0.306 1.831-0.83 2.545l2.705 2.601c0.557-0.472 1.306-0.769 2.049-0.769 0.755 0 1.521 0.284 2.079 0.778 0.557-0.494 1.324-0.778 2.078-0.778 0.743 0 1.492 0.297 2.049 0.769l2.706-2.601c-0.525-0.714-0.831-1.646-0.831-2.545 0-1.321 0.815-2.26 0.815-3.538 0-2.067-1.686-3.755-3.754-3.755h-0.585c-0.954 0-1.869-0.446-2.478-1.176" fill="#fff" fill-rule="evenodd"/></g><g transform="translate(144.42 269.62)"><path d="m0 0c0-0.568-0.592-1.037-1.283-1.037-0.692 0-1.26 0.469-1.26 1.037 0 0.543 0.568 1.013 1.26 1.013 0.715 0 1.283-0.47 1.283-1.013m1.111-0.024c0 1.184-1.086 2.147-2.394 2.147-0.273 0-0.445 0-0.841-0.073 0.421 0.889 0.865 1.455 1.729 2.122l-0.568 0.939c-1.629-1.087-2.716-3.087-2.716-5.037 0-1.259 1.037-2.251 2.396-2.251 1.357 0 2.394 0.944 2.394 2.153m-5.924 0.567c0 1.284-1.062 2.37-2.346 2.37-0.346 0-0.568-0.05-1.087-0.198l0.074 1.162h2.963v1.109h-4.049l-0.172-3.629 1.111-0.319c0.42 0.592 0.641 0.739 1.136 0.739 0.69 0 1.258-0.543 1.258-1.234 0-0.913-0.79-1.58-1.802-1.58-0.519 0-1.037 0.1-1.332 0.247l-0.544-0.988c0.494-0.246 1.111-0.399 1.728-0.399 1.777 0 3.062 1.164 3.062 2.72" fill-rule="evenodd"/></g><g transform="translate(165.28 254.48)"><path d="m0 0c0 0.853-0.656 1.335-1.97 1.598-0.656 0.109-0.743 0.153-0.743 0.328s0.196 0.241 0.655 0.241c0.416 0 0.986-0.154 1.445-0.394l0.482 1.094c-0.723 0.35-1.336 0.481-1.97 0.481-1.137 0-1.86-0.504-1.86-1.312 0-0.701 0.438-1.161 1.423-1.445 0.196-0.066 0.699-0.174 0.94-0.242 0.241-0.043 0.35-0.151 0.35-0.283 0-0.176-0.327-0.263-0.831-0.263-0.459 0-1.072 0.132-1.531 0.351l-0.483-1.094c0.656-0.328 1.204-0.441 2.058-0.441 0.722 0 1.247 0.133 1.641 0.462 0.284 0.241 0.394 0.525 0.394 0.919m-5.887 3.239h-1.247v-4.552h1.247zm-0.022 1.181c0 0.35-0.263 0.613-0.612 0.613-0.329 0-0.591-0.263-0.591-0.613 0-0.328 0.262-0.612 0.591-0.612 0.349 0 0.612 0.284 0.612 0.612m-3.697-5.733v6.346l-1.248-0.481v-5.865zm-4.443 2.276c0-0.657-0.415-1.181-0.875-1.181-0.481 0-0.853 0.524-0.853 1.181 0 0.678 0.372 1.204 0.853 1.204 0.46 0 0.875-0.526 0.875-1.204m1.269 0c0 1.313-1.049 2.385-2.144 2.385-1.181 0-2.101-1.028-2.101-2.385 0-1.313 0.963-2.367 2.101-2.367 1.115 0 2.144 1.054 2.144 2.367m-6.827 0.023c0-0.657-0.393-1.183-0.897-1.183-0.306 0-0.547 0.132-0.723 0.439v1.487c0.176 0.307 0.417 0.438 0.702 0.438 0.525 0 0.918-0.526 0.918-1.181m1.248 0c0 1.268-0.898 2.362-1.948 2.362-0.35 0-0.701-0.087-0.92-0.306v0.197h-1.247v-6.393l1.247 0.459v1.602c0.263-0.198 0.57-0.288 0.898-0.288 1.072 0 1.97 1.097 1.97 2.367m-7.309-0.023c0-0.657-0.416-1.181-0.876-1.181-0.48 0-0.852 0.524-0.852 1.181 0 0.678 0.372 1.204 0.852 1.204 0.46 0 0.876-0.526 0.876-1.204m1.27 0c0 1.313-1.051 2.385-2.146 2.385-1.181 0-2.101-1.028-2.101-2.385 0-1.313 0.963-2.367 2.101-2.367 1.116 0 2.146 1.054 2.146 2.367m-5.165 2.057c-0.306 0.241-0.591 0.328-0.963 0.328-0.329 0-0.59-0.087-0.898-0.328v0.219h-1.247v-4.552h1.247v2.517c0 0.634 0.176 0.963 0.723 0.963 0.24 0 0.547-0.11 0.722-0.394zm-5.077-0.875v1.094h-1.16v1.794l-1.226-0.481v-1.335h-0.853v-1.072h0.853v-2.123c0-0.897 0.394-1.403 1.248-1.403 0.438 0 0.394 0.068 0.809 0.244l0.329 1.291c-0.218-0.219-0.285-0.308-0.614-0.329-0.458-0.043-0.546 0.197-0.546 0.613v1.707zm-5.777-0.547h-1.488c0.132 0.415 0.437 0.634 0.766 0.634 0.35 0 0.547-0.175 0.722-0.634m1.291-1.029v0.176c0 0.568-0.088 1.006-0.263 1.422-0.328 0.721-1.006 1.181-1.75 1.181-1.117 0-2.101-1.051-2.101-2.362 0-1.336 1.007-2.367 2.166-2.367 0.613 0 1.095 0.244 1.554 0.791l-0.853 0.744c-0.197-0.264-0.437-0.416-0.701-0.416-0.394 0-0.765 0.305-0.897 0.831zm-5.645-1.882v6.259h-1.226l-1.663-3.436-1.707 3.436h-1.226v-6.259h1.226v3.392l1.707-3.392 1.663 3.392v-3.392z" fill="#fff" fill-rule="evenodd"/></g><g transform="translate(154.13 243.45)"><path d="m0 0c-0.351-0.197-0.68-0.241-0.942-0.241-0.44 0-0.814 0.241-0.814 0.527 0 0.284 0.309 0.504 0.703 0.504 0.242 0 0.681-0.065 1.053-0.198zm1.186-1.25v2.786c0 1.273-0.746 1.888-1.997 1.888-0.615 0-1.076-0.132-1.755-0.482l0.46-0.99c0.439 0.242 0.856 0.353 1.295 0.353 0.46 0 0.79-0.176 0.811-0.615-0.372 0.132-0.79 0.175-1.053 0.175-1.075 0-1.886-0.702-1.886-1.644 0-0.901 0.723-1.541 1.733-1.541 0.351 0 0.767 0.044 1.206 0.223v-0.153zm-6.036 4.564h-1.25v-4.564h1.25zm-0.021 1.184c0 0.352-0.263 0.615-0.615 0.615-0.328 0-0.592-0.263-0.592-0.615 0-0.329 0.264-0.613 0.592-0.613 0.352 0 0.615 0.284 0.615 0.613m-4.389-3.444c0-0.657-0.395-1.185-0.9-1.185-0.307 0-0.549 0.131-0.724 0.439v1.492c0.175 0.309 0.417 0.438 0.702 0.438 0.527 0 0.922-0.526 0.922-1.184m1.251 0c0 1.273-0.9 2.37-1.953 2.37-0.351 0-0.703-0.088-0.922-0.308v0.198h-1.251v-6.413l1.251 0.463v1.605c0.264-0.196 0.571-0.289 0.9-0.289 1.075 0 1.975 1.101 1.975 2.374m-7.329-0.022c0-0.658-0.418-1.184-0.879-1.184-0.482 0-0.855 0.526-0.855 1.184 0 0.68 0.373 1.206 0.855 1.206 0.461 0 0.879-0.526 0.879-1.206m1.273 0c0 1.317-1.054 2.392-2.152 2.392-1.184 0-2.106-1.031-2.106-2.392 0-1.317 0.966-2.374 2.106-2.374 1.12 0 2.152 1.057 2.152 2.374m-5.662 1.185v1.097h-1.163v1.799l-1.229-0.482v-1.339h-0.857v-1.075h0.857v-2.129c0-0.899 0.394-1.408 1.25-1.408 0.439 0 0.395 0.07 0.812 0.245l0.33 1.296c-0.22-0.221-0.286-0.308-0.615-0.33-0.461-0.043-0.548 0.197-0.548 0.614v1.712zm-4.697-0.899v3.708h-1.228v-3.708c0-0.417-0.023-0.549-0.155-0.791-0.218-0.394-0.657-0.636-1.119-0.636-0.68 0-1.316 0.571-1.316 1.251v3.884h-1.229v-3.928c0-1.339 1.207-2.461 2.567-2.461 0.901 0 1.734 0.508 2.151 1.254 0.241 0.438 0.329 0.79 0.329 1.427" fill="#fff" fill-rule="evenodd"/></g><g transform="translate(140.66 293.85)"><path d="m0 0h28.041c1.199 0 2.179-0.98 2.179-2.178v-5.821c0-1.196-0.98-2.175-2.179-2.175h-28.041c-1.198 0-2.179 0.979-2.179 2.175v5.821c0 1.198 0.981 2.178 2.179 2.178z" fill="none" stroke="#000" stroke-miterlimit="2.613" stroke-width=".25"/></g><g transform="translate(140.66 292.88)"><path d="m0 0h28.041c0.662 0 1.204-0.542 1.204-1.204v-5.821c0-0.661-0.542-1.202-1.204-1.202h-28.041c-0.662 0-1.204 0.541-1.204 1.202v5.821c0 0.662 0.542 1.204 1.204 1.204" fill="#006f51" fill-rule="evenodd"/></g><g transform="translate(142.48 287.03)"><path d="m0 0v3.151h2.292v-0.628h-1.675v-0.518h0.948v-0.628h-0.948v-0.749h1.719v-0.628z" fill="#fff"/></g><g transform="translate(147.26 287.02)"><path d="m0 0-0.628 1.057-0.65-1.047h-0.727l0.991 1.653-0.903 1.487h0.738l0.551-0.893 0.529 0.893h0.749l-0.892-1.498 0.98-1.642z" fill="#fff"/></g><path d="m148.66 290.18h0.628v-3.151h-0.628z" fill="#fff"/><g transform="translate(151.33 289.55)"><path d="m0 0v-2.523h-0.606v2.523h-0.871v0.628h2.336v-0.628z" fill="#fff"/></g><g transform="translate(160.06 289.49)"><path d="m0 0-1.575-1.575h1.575zm0.949-2.472v-1.068h-0.949v1.068h-2.829v0.897l2.829 2.879h0.949v-2.879h0.728v-0.897z" fill="#fff"/></g><g transform="translate(165.38 289.49)"><path d="m0 0-1.575-1.575h1.575zm0.949-2.472v-1.068h-0.949v1.068h-2.829v0.897l2.829 2.879h0.949v-2.879h0.728v-0.897z" fill="#fff"/></g><g transform="translate(139.73 231.67)"><path d="m0 0v2.132l-1.045-2.132-1.072 2.132v-2.132h-0.771v3.933h0.771l1.072-2.16 1.045 2.16h0.771v-3.933z" fill="#fff"/></g><path d="m141.6 235.6h0.784v-3.933h-0.784z" fill="#fff"/><g transform="translate(143.48 231.67)"><path d="m0 0v3.933h0.771v-3.191h2.145v-0.742z" fill="#fff"/></g><g transform="translate(147.01 231.67)"><path d="m0 0v3.933h2.86v-0.784h-2.09v-0.646h1.183v-0.784h-1.183v-0.935h2.145v-0.784z" fill="#fff"/></g><g transform="translate(130.62 230.81)"><path d="m0 0v4.039h-0.583v1.208c0.437 0.208 0.479 0.333 0.666 0.708h1.124v-5.955z" fill="#fff"/></g><g transform="translate(140.97 483.28)"><path d="m0 0h28.041c1.199 0 2.179-0.981 2.179-2.179v-5.82c0-1.197-0.98-2.176-2.179-2.176h-28.041c-1.198 0-2.179 0.979-2.179 2.176v5.82c0 1.198 0.981 2.179 2.179 2.179z" fill="none" stroke="#000" stroke-miterlimit="2.613" stroke-width=".25"/></g><g transform="translate(140.97 482.31)"><path d="m0 0h28.041c0.662 0 1.204-0.542 1.204-1.204v-5.82c0-0.661-0.542-1.202-1.204-1.202h-28.041c-0.662 0-1.204 0.541-1.204 1.202v5.82c0 0.662 0.542 1.204 1.204 1.204" fill="#006f51" fill-rule="evenodd"/></g><g transform="translate(142.79 476.46)"><path d="m0 0v3.15h2.291v-0.627h-1.674v-0.519h0.947v-0.627h-0.947v-0.75h1.718v-0.627z" fill="#fff"/></g><g transform="translate(147.57 476.44)"><path d="m0 0-0.628 1.058-0.65-1.046h-0.727l0.991 1.652-0.903 1.487h0.738l0.551-0.892 0.529 0.892h0.749l-0.892-1.498 0.98-1.641z" fill="#fff"/></g><path d="m148.96 479.61h0.628v-3.15h-0.628z" fill="#fff"/><g transform="translate(151.63 478.98)"><path d="m0 0v-2.523h-0.606v2.523h-0.871v0.627h2.336v-0.627z" fill="#fff"/></g><g transform="translate(160.36 478.92)"><path d="m0 0-1.575-1.575h1.575zm0.948-2.473v-1.067h-0.948v1.067h-2.829v0.898l2.829 2.88h0.948v-2.88h0.729v-0.898z" fill="#fff"/></g><g transform="translate(165.68 478.92)"><path d="m0 0-1.575-1.575h1.575zm0.949-2.473v-1.067h-0.949v1.067h-2.829v0.898l2.829 2.88h0.949v-2.88h0.728v-0.898z" fill="#fff"/></g><g transform="translate(112.67 473.11)"><path d="m0 0h55.835c1.478 0 2.686-1.209 2.686-2.687v-59.403c0-1.477-1.208-2.686-2.686-2.686h-55.835c-1.478 0-2.687 1.209-2.687 2.686v59.403c0 1.478 1.209 2.687 2.687 2.687z" fill="none" stroke="#000" stroke-miterlimit="2.613" stroke-width=".25"/></g><g transform="translate(112.67 472.13)"><path d="m0 0h55.835c0.94 0 1.71-0.771 1.71-1.711v-59.403c0-0.94-0.77-1.712-1.71-1.712h-55.835c-0.941 0-1.712 0.772-1.712 1.712v59.403c0 0.94 0.771 1.711 1.712 1.711" fill="#006f51" fill-rule="evenodd"/></g><g transform="translate(140.58 453.71)"><path d="m0 0c-0.61 0.73-1.525 1.176-2.477 1.176h-0.586c-2.069 0-3.755 1.688-3.755 3.755 0 1.278 0.816 2.217 0.816 3.538 0 0.9-0.306 1.831-0.831 2.545l2.706 2.601c0.556-0.472 1.305-0.769 2.048-0.769 0.755 0 1.522 0.284 2.079 0.778 0.557-0.494 1.324-0.778 2.079-0.778 0.742 0 1.492 0.297 2.049 0.769l2.705-2.601c-0.525-0.714-0.831-1.645-0.831-2.545 0-1.321 0.816-2.26 0.816-3.538 0-2.067-1.687-3.755-3.754-3.755h-0.585c-0.954 0-1.869-0.446-2.479-1.176" fill="#fff" fill-rule="evenodd"/></g><g transform="translate(144.99 459.05)"><path d="m0 0c0-0.568-0.592-1.037-1.283-1.037-0.692 0-1.26 0.469-1.26 1.037 0 0.543 0.568 1.013 1.26 1.013 0.715 0 1.283-0.47 1.283-1.013m1.112-0.024c0 1.184-1.087 2.147-2.395 2.147-0.272 0-0.445 0-0.841-0.073 0.421 0.889 0.865 1.455 1.729 2.122l-0.567 0.94c-1.629-1.087-2.717-3.087-2.717-5.038 0-1.259 1.038-2.251 2.396-2.251s2.395 0.944 2.395 2.153m-5.926 0.567c0 1.284-1.061 2.37-2.345 2.37-0.346 0-0.568-0.049-1.087-0.198l0.075 1.162h2.963v1.11h-4.05l-0.172-3.629 1.111-0.32c0.42 0.592 0.641 0.74 1.135 0.74 0.691 0 1.259-0.543 1.259-1.235 0-0.913-0.79-1.58-1.802-1.58-0.519 0-1.037 0.1-1.333 0.247l-0.543-0.988c0.494-0.246 1.111-0.399 1.728-0.399 1.777 0 3.061 1.165 3.061 2.72" fill-rule="evenodd"/></g><g transform="translate(165.88 443.91)"><path d="m0 0c0 0.852-0.656 1.335-1.97 1.597-0.656 0.109-0.743 0.154-0.743 0.328 0 0.175 0.196 0.241 0.655 0.241 0.416 0 0.986-0.154 1.445-0.394l0.482 1.094c-0.722 0.35-1.336 0.481-1.97 0.481-1.137 0-1.86-0.504-1.86-1.312 0-0.7 0.438-1.161 1.423-1.445 0.196-0.066 0.699-0.174 0.94-0.242 0.241-0.043 0.35-0.151 0.35-0.283 0-0.176-0.327-0.263-0.831-0.263-0.459 0-1.072 0.132-1.531 0.351l-0.483-1.094c0.656-0.328 1.204-0.441 2.058-0.441 0.722 0 1.247 0.134 1.64 0.462 0.285 0.241 0.395 0.525 0.395 0.92m-5.887 3.238h-1.247v-4.552h1.247zm-0.022 1.182c0 0.349-0.263 0.612-0.612 0.612-0.329 0-0.591-0.263-0.591-0.612 0-0.329 0.262-0.613 0.591-0.613 0.349 0 0.612 0.284 0.612 0.613m-3.697-5.734v6.346l-1.249-0.481v-5.865zm-4.443 2.277c0-0.658-0.415-1.182-0.875-1.182-0.481 0-0.853 0.524-0.853 1.182 0 0.677 0.372 1.203 0.853 1.203 0.46 0 0.875-0.526 0.875-1.203m1.269 0c0 1.312-1.049 2.384-2.144 2.384-1.181 0-2.101-1.028-2.101-2.384 0-1.314 0.962-2.368 2.101-2.368 1.115 0 2.144 1.054 2.144 2.368m-6.827 0.022c0-0.657-0.393-1.183-0.897-1.183-0.307 0-0.547 0.132-0.723 0.439v1.487c0.176 0.307 0.416 0.438 0.702 0.438 0.525 0 0.918-0.526 0.918-1.181m1.248 0c0 1.269-0.898 2.362-1.948 2.362-0.35 0-0.701-0.087-0.92-0.305v0.196h-1.247v-6.393l1.247 0.459v1.602c0.263-0.197 0.57-0.288 0.898-0.288 1.072 0 1.97 1.097 1.97 2.367m-7.309-0.022c0-0.658-0.416-1.182-0.876-1.182-0.48 0-0.852 0.524-0.852 1.182 0 0.677 0.372 1.203 0.852 1.203 0.46 0 0.876-0.526 0.876-1.203m1.27 0c0 1.312-1.051 2.384-2.146 2.384-1.181 0-2.101-1.028-2.101-2.384 0-1.314 0.963-2.368 2.101-2.368 1.116 0 2.146 1.054 2.146 2.368m-5.165 2.056c-0.306 0.241-0.591 0.328-0.963 0.328-0.329 0-0.59-0.087-0.898-0.328v0.219h-1.247v-4.552h1.247v2.517c0 0.635 0.176 0.963 0.723 0.963 0.24 0 0.547-0.11 0.723-0.394zm-5.077-0.875v1.094h-1.16v1.794l-1.226-0.481v-1.335h-0.853v-1.072h0.853v-2.123c0-0.897 0.394-1.403 1.248-1.403 0.438 0 0.394 0.068 0.809 0.244l0.329 1.291c-0.218-0.219-0.285-0.308-0.614-0.329-0.458-0.043-0.546 0.197-0.546 0.613v1.707zm-5.777-0.547h-1.488c0.132 0.415 0.437 0.634 0.766 0.634 0.35 0 0.547-0.175 0.722-0.634m1.291-1.029v0.176c0 0.568-0.088 1.007-0.263 1.422-0.328 0.721-1.005 1.181-1.75 1.181-1.117 0-2.101-1.05-2.101-2.362 0-1.336 1.007-2.367 2.166-2.367 0.613 0 1.094 0.244 1.554 0.791l-0.853 0.744c-0.197-0.264-0.438-0.416-0.701-0.416-0.394 0-0.765 0.306-0.897 0.831zm-5.645-1.882v6.259h-1.226l-1.663-3.436-1.707 3.436h-1.226v-6.259h1.226v3.392l1.707-3.392 1.663 3.392v-3.392z" fill="#fff" fill-rule="evenodd"/></g><g transform="translate(154.72 432.88)"><path d="m0 0c-0.351-0.197-0.68-0.241-0.942-0.241-0.44 0-0.814 0.241-0.814 0.527 0 0.285 0.309 0.504 0.703 0.504 0.242 0 0.681-0.065 1.053-0.198zm1.186-1.25v2.786c0 1.273-0.747 1.888-1.997 1.888-0.615 0-1.076-0.132-1.755-0.482l0.459-0.99c0.44 0.243 0.857 0.353 1.296 0.353 0.46 0 0.79-0.176 0.811-0.615-0.372 0.133-0.79 0.176-1.053 0.176-1.075 0-1.886-0.703-1.886-1.645 0-0.9 0.723-1.541 1.733-1.541 0.351 0 0.768 0.044 1.206 0.224v-0.154zm-6.036 4.564h-1.25v-4.564h1.25zm-0.021 1.184c0 0.352-0.263 0.616-0.615 0.616-0.328 0-0.592-0.264-0.592-0.616 0-0.329 0.264-0.613 0.592-0.613 0.352 0 0.615 0.284 0.615 0.613m-4.389-3.444c0-0.657-0.395-1.185-0.9-1.185-0.307 0-0.549 0.131-0.724 0.439v1.492c0.175 0.309 0.417 0.439 0.702 0.439 0.527 0 0.922-0.527 0.922-1.185m1.251 0c0 1.273-0.9 2.37-1.953 2.37-0.352 0-0.703-0.088-0.922-0.307v0.197h-1.251v-6.412l1.251 0.463v1.604c0.264-0.196 0.57-0.289 0.9-0.289 1.075 0 1.975 1.102 1.975 2.374m-7.329-0.021c0-0.659-0.418-1.185-0.879-1.185-0.482 0-0.855 0.526-0.855 1.185 0 0.679 0.373 1.206 0.855 1.206 0.461 0 0.879-0.527 0.879-1.206m1.273 0c0 1.316-1.054 2.391-2.152 2.391-1.184 0-2.106-1.031-2.106-2.391 0-1.318 0.966-2.374 2.106-2.374 1.12 0 2.152 1.056 2.152 2.374m-5.663 1.184v1.097h-1.162v1.8l-1.229-0.483v-1.339h-0.857v-1.075h0.857v-2.129c0-0.899 0.394-1.408 1.25-1.408 0.439 0 0.395 0.07 0.812 0.245l0.329 1.296c-0.219-0.221-0.285-0.308-0.614-0.33-0.461-0.043-0.548 0.197-0.548 0.614v1.712zm-4.696-0.899v3.708h-1.228v-3.708c0-0.417-0.023-0.549-0.155-0.79-0.218-0.395-0.657-0.637-1.119-0.637-0.679 0-1.316 0.571-1.316 1.251v3.884h-1.229v-3.928c0-1.339 1.207-2.461 2.567-2.461 0.901 0 1.734 0.508 2.151 1.254 0.241 0.438 0.329 0.79 0.329 1.427" fill="#fff" fill-rule="evenodd"/></g></g><g fill="#000000" font-family="Helvetica"><text transform="matrix(1 0 0 -1 108.38 708.37)" font-size="9px"><tspan x="0 3.5009999 9.5039997 14.508 19.511999 24.011999 26.01 28.511999 30.51 35.009998 37.512001 42.012001 47.015999 50.283001 54.783001 56.780998 61.280998 66.285004 68.787003 71.783997 76.788002 84.285004 89.289001 91.791 96.291 98.289001 103.293 108.297 112.797 115.299 118.296 123.3 127.8 130.302 135.306 140.31 145.314 150.31799 155.32201 160.326" y="0">*Specific service ramp signs (as needed)</tspan><tspan x="0 3.9330001 9.9359999 14.94 19.944 24.444 26.441999 31.445999 36.450001 38.952 43.452 48.456001 53.459999 58.464001 60.462002 65.466003 67.968002 72.972 77.975998 80.477997 85.482002 87.984001 90.486 92.484001 97.487999 102.492 106.992 109.494 111.996 117 122.004 127.008 129.50999 131.742 136.746 141.75 144.252 146.754 149.256 152.25301 157.257 164.754" y="9.9989996"> Spacing should be at least 100 feet from </tspan><tspan x="3.9330001 6.4349999 11.439 16.443001 18.945 23.679001 28.179001 30.177 32.679001 35.181 40.185001 45.188999 48.186001 53.189999 55.692001 60.192001 62.189999 67.194 72.197998 74.699997 77.202003 79.704002 82.700996 87.705002 95.202003 97.704002 102.708 107.712 112.212 117.216 119.718 124.722 127.224 132.228 137.23199 139.77901" y="19.997999">the exit gore sign, from each other,</tspan><tspan x="0 3.9330001 8.9370003 13.941 18.945 21.447001 23.948999 26.945999 31.950001 39.446999 41.949001 44.451 49.455002 54.459 56.960999 59.958 64.961998 72.459 77.462997 79.964996 82.467003 87.471001 90.602997 98.099998 100.098 105.102 110.106 112.104" y="29.997"> and from the ramp terminal.</tspan></text><text transform="matrix(1 0 0 -1 206.96 415.27)" font-size="7px"><tspan x="0 3.892 7.7839999 11.676 13.622 15.568" y="0">800 ft</tspan><tspan x="1.575 7.4060001 9.3520002 14.406" y="8.0010004">MIN.</tspan><tspan x="-0.063000001 3.829 7.7210002 11.613 13.559 15.505" y="56.511002">800 ft</tspan><tspan x="1.512 7.3429999 9.2889996 14.343" y="64.512001">MIN.</tspan><tspan x="0.063000001 3.9549999 7.8470001 11.739 13.685 15.631" y="113.449">800 ft</tspan><tspan x="1.638 7.4689999 9.415 14.469" y="121.45">MIN.</tspan><tspan x="0.063000001 3.9549999 7.8470001 11.739 13.685 15.631" y="162.12">800 ft</tspan><tspan x="1.638 7.4689999 9.415 14.469" y="170.121">MIN.</tspan><tspan x="0.063000001 3.9549999 7.8470001 11.739 13.685 15.631" y="205.737">800 ft</tspan><tspan x="1.638 7.4689999 9.415 14.469" y="213.73801">MIN.</tspan></text><text transform="matrix(1 0 0 -1 107.15 564.24)" font-size="9px"><tspan x="0 4.4190001 7.3260002 12.15 16.424999 21.429001 23.427 25.929001 30.933001 32.931 37.431 39.932999 44.937 49.941002 54.441002 59.445 61.946999 64.179001 69.182999" y="0">Travel distance for</tspan><tspan x="-3.1140001 1.386 3.3840001 8.3879995 13.392 15.894 20.898001 24.030001 26.028 31.032 34.164001 36.161999 38.664001 43.164001 45.666 50.166 55.169998 60.174 65.178001 67.176003" y="9.9989996">sign priority should</tspan><tspan x="-9.9449997 -4.941 -2.9430001 3.4200001 8.1540003 12.654 17.153999 19.656 24.66 29.664 32.166 39.662998 44.667 49.671001 54.171001 59.174999 62.172001 67.176003" y="19.997999">always be measured</tspan><tspan x="13.698 16.200001 19.197001 24.201 31.698 34.200001 36.702 41.706001 43.703999 48.203999 50.706001 55.709999 60.714001 62.712002 67.716003 70.218002" y="29.997">from this point.</tspan><tspan x="194.157 199.65601 204.66 209.664 212.166 214.668 217.575 222.399 226.674 231.67799 233.67599 236.17799 241.18201 243.17999 247.67999 250.18201 255.186 260.19 264.69 269.694 272.19601 274.698 279.702 282.20401 287.20801" y="-126.9">The travel distance to be</tspan><tspan x="194.14799 198.64799 203.65199 208.521 215.019 220.02299 222.52499 227.52901 232.533 235.035 239.535 241.533 246.537 251.541 256.04099 258.543 263.043 268.047 273.05099 278.05499 280.05301 285.05701 287.55899 292.56299" y="-116.901">shown on signs should be</tspan><tspan x="194.14799 201.645 206.649 211.653 216.153 221.157 224.15401 229.158 234.162 236.664 239.166 242.16299 247.16701 254.664 257.16599 259.668 264.672 266.67001 271.17001 273.672 278.67599 283.67999 285.67801 290.68201 293.18399" y="-106.902">measured from this point.</tspan><tspan x="333.63901 336.14099 338.64301 341.14499 346.14899 348.651 350.64899 355.65302 360.65701 365.66101 368.16299 370.16101 374.66101 377.16299 381.66299 383.66101 388.66501 393.66901 398.673 403.677 406.17899 408.681 411.18301 416.18701 421.19101" y="-26.459999">If a loop is signed, the </tspan><tspan x="333.63901 336.14099 339.048 343.87201 348.147 353.151 355.14899 357.651 362.655 364.65302 369.15302 371.655 376.659 381.66299 386.16299 391.16699 393.66901 398.16901 403.173 408.04199 414.54001 419.54401" y="-16.461">travel distance shown </tspan><tspan x="333.63 338.634 343.638 346.14001 350.64001 352.638 357.642 362.646 367.146 369.64801 374.14801 379.15201 384.15601 389.16 391.15799 396.16199 398.664 403.668 408.672" y="-6.4619999">on signs should be </tspan><tspan x="333.63 341.12701 346.13101 351.13501 355.63501 360.63901 363.63599 368.64001 373.64401 376.146 378.64801 381.64499 386.64899 394.146 396.64801 399.14999 404.15399 406.15201 410.65201 413.15399 418.15799 423.16199 425.16 430.164 432.66599" y="3.5369999">measured from this point.</tspan></text></g><g clip-path="url(#b)"><g transform="translate(267.1 578.02)"><path d="m0 0 0.305 0.463 0.304 0.462-1.778 1.173-1.78 1.174-0.61-0.924-2.466 1.627 0.304 0.462 0.305 0.462-3.558 2.346-0.305-0.462-0.304-0.462-0.652 0.43-0.653 0.431-0.43-0.652-0.43-0.651 3.013-1.987 6.286-4.146 3.012-1.987 0.43 0.651 0.43 0.652-0.712 0.469z"/></g><g transform="translate(276.47 592.52)"><path d="m0 0 0.304 0.463 0.305 0.462-3.558 2.346-0.305-0.461-0.305-0.462-2.467 1.627 0.305 0.461 0.305 0.462-1.779 1.174-1.779 1.173-0.61-0.924-0.652 0.43-0.652 0.431-0.43-0.652-0.43-0.651 3.013-1.987 3.142-2.073 3.144-2.073 3.012-1.987 0.86 1.302-0.712 0.47z"/></g><g transform="translate(285.83 607.03)"><path d="m0 0 0.305 0.463 0.305 0.462-1.779 1.172-1.779 1.174-0.61-0.924-2.467 1.627 0.61 0.924-1.779 1.174-1.779 1.173-0.61-0.924-0.652 0.43-0.653 0.43-0.429-0.651-0.43-0.651 3.013-1.988 3.142-2.072 3.143-2.073 3.013-1.987 0.43 0.651 0.429 0.651-0.712 0.47z"/></g><g transform="translate(295.2 621.53)"><path d="m0 0 0.305 0.463 0.305 0.462-1.779 1.172-1.779 1.174-0.306-0.462-0.304-0.462-2.467 1.627 0.61 0.924-1.78 1.174-1.778 1.173-0.306-0.462-0.304-0.462-0.652 0.43-0.653 0.43-0.43-0.651-0.429-0.651 3.012-1.988 3.143-2.072 3.143-2.073 3.013-1.987 0.429 0.651 0.43 0.651-0.712 0.47z"/></g><g transform="translate(183.99 657.29)"><path d="m0 0v-8.231m6 8.231v-8.231m10.204 8.231v-8.231m5.999 8.231v-8.231m227.65-21.495h-24.435m24.435 6h-24.435" fill="none" stroke="#000"/></g><g transform="translate(486.24 694.82)"><path d="m0 0 0.449-0.325 0.447-0.324 1.25 1.727 1.248 1.726-0.449 0.324-0.447 0.325 0.365 0.507 0.367 0.507 0.092 0.127 0.092 0.126 0.408 0.564 0.406 0.564 0.449-0.325 0.45-0.324 1.248 1.727 1.25 1.727-0.45 0.324-0.449 0.325 0.459 0.633 0.457 0.633-0.633 0.457-0.63 0.458-2.116-2.924-2.207-3.051-2.205-3.05-2.115-2.925 0.633-0.458 0.631-0.457 0.5 0.691z"/></g><g transform="translate(505.89 714)"><path d="m0 0c-10.184 10.183-32.352 0.228-20.504-11.62" fill="none" stroke="#000" stroke-width=".75"/></g><g transform="translate(486.71 702.11)"><path d="m0 0c-0.558 0.714-0.881 1.236-1.289 1.866l-1.523-2.167c0.271-0.046 1.33-0.298 2.191-0.584 0.92-0.305 1.719-0.632 2.205-0.891-0.406 0.37-0.984 1.013-1.584 1.776"/></g><g transform="translate(465.79 635.57)"><path d="m0 0h-21.533" fill="none" stroke="#000" stroke-width=".75"/></g><g transform="translate(444.79 635.57)"><path d="m0 0 1.151-1.893-0.065-0.043-3.084 1.226c-1.076 0.236-2.15 0.473-3.224 0.71 1.074 0.236 2.148 0.473 3.224 0.709l3.084 1.224 0.065-0.031z"/></g><g transform="translate(145.67 425.1)"><path d="m0 0c0.114-0.114 0.16-0.279 0.124-0.434l-1.248-6.664c-0.011-0.103-0.058-0.204-0.132-0.279-0.179-0.181-0.473-0.181-0.654-2e-3 -0.028 0.029-0.054 0.064-0.074 0.097l-1.511 2.523-4.838-5.568-1.971 1.957 5.582 4.826-2.545 1.505c-0.034 0.02-0.069 0.045-0.098 0.073-0.18 0.18-0.182 0.473-2e-3 0.654 0.074 0.074 0.175 0.122 0.278 0.134l6.654 1.298c0.154 0.038 0.321-7e-3 0.435-0.12" fill="#fff" fill-rule="evenodd"/></g></g><text transform="matrix(1 0 0 -1 331.26 594.46)" fill="#000000" font-family="Helvetica" font-size="9px"><tspan x="0 5.4990001 12.501 19.503 26.000999" y="0">FOOD*</tspan><tspan x="-6.8400002 -1.836 5.1659999 11.664 18.666 21.167999 27.666 34.667999" y="11.934">LODGING*</tspan><tspan x="-13.977 -7.4790001 -1.476 6.0209999 12.024 14.526 21.024 28.025999" y="24.336">CAMPING*</tspan></text><g clip-path="url(#a)"><g transform="translate(503.63 711.32)"><path d="m0 0h23.645c0.912 0 1.658-0.745 1.658-1.658v-29.241c0-0.912-0.746-1.656-1.658-1.656h-23.645c-0.912 0-1.656 0.744-1.656 1.656v29.241c0 0.913 0.744 1.658 1.656 1.658z" fill="none" stroke="#000" stroke-miterlimit="2.613" stroke-width=".25"/></g><g transform="translate(503.63 710.71)"><path d="m0 0h23.645c0.58 0 1.055-0.472 1.055-1.056v-29.241c0-0.58-0.475-1.055-1.055-1.055h-23.645c-0.582 0-1.058 0.475-1.058 1.055v29.241c0 0.584 0.476 1.056 1.058 1.056" fill="#005596" fill-rule="evenodd"/></g><g transform="translate(512.03 705.72)"><path d="m0 0c-0.95 0-1.338 0.845-1.338 1.689 0 0.846 0.388 1.678 1.338 1.678 0.558 0 0.968-0.32 1.173-0.81l-0.605-0.228c-0.102 0.251-0.307 0.387-0.568 0.387-0.561 0-0.674-0.57-0.674-1.027 0-0.467 0.113-1.038 0.674-1.038 0.25 0 0.455 0.138 0.568 0.388h-0.387v0.65h1.117c-0.044-0.821-0.294-1.689-1.298-1.689" fill="#fff"/></g><g transform="translate(515.44 708.1)"><path d="m0 0-0.399-0.914h0.764zm0.935-2.328-0.308 0.764h-1.289l-0.307-0.764h-0.697l1.312 3.264h0.674l1.311-3.264z" fill="#fff"/></g><g transform="translate(519.73 705.9)"><path d="m0 0c-0.194-0.113-0.535-0.183-0.844-0.183-0.365 0-0.719 0.104-1.004 0.298-0.103 0.057-0.172 0.114-0.32 0.251l0.457 0.456c0.273-0.251 0.525-0.354 0.902-0.354 0.375 0 0.637 0.126 0.637 0.354 0 0.091-0.057 0.217-0.149 0.274-0.113 0.068-0.226 0.103-0.65 0.183-0.342 0.08-0.547 0.148-0.683 0.239-0.217 0.148-0.354 0.434-0.354 0.708 0 0.331 0.17 0.627 0.457 0.799 0.182 0.114 0.398 0.159 0.684 0.159 0.365 0 0.709-0.079 0.982-0.25 0.068-0.047 0.102-0.069 0.205-0.149l-0.4-0.514c-0.262 0.195-0.502 0.263-0.809 0.263-0.297 0-0.48-0.103-0.48-0.308 0-0.079 0.045-0.172 0.125-0.205 0.058-0.035 0.125-0.046 0.195-0.069l0.102-0.012 0.113-0.023 0.148-0.022c0.754-0.137 1.155-0.491 1.155-1.062 0-0.342-0.182-0.672-0.469-0.833" fill="#fff"/></g><path d="m505.42 692.49h12.002v8.952h-12.002z" fill="#005596" stroke="#fff" stroke-width=".5"/><g transform="translate(522.69 695.58)"><path d="m0 0 0.01 2.075h-0.35l-8e-3 0.399c0.211 0.049 0.328 0.128 0.434 0.303h0.398v-2.777z" fill="#fff"/></g><path d="m505.42 681.25h12.002v8.952h-12.002z" fill="#005596" stroke="#fff" stroke-width=".5"/><g transform="translate(520.37 684.34)"><path d="m0 0 0.01 2.075h-0.349l-0.01 0.399c0.213 0.049 0.33 0.128 0.437 0.303h0.397v-2.777z" fill="#fff"/></g><g transform="translate(525.03 687.81)"><path d="m0 0h-0.496l-2.422-4.165h0.496z" fill="#fff"/></g><g transform="translate(522.3 685.65)"><path d="m0 0c-0.258 0-0.515 0.089-0.697 0.256-0.051 0.044-0.088 0.08-0.162 0.168l0.301 0.227c0.146-0.19 0.337-0.27 0.58-0.27 0.257 0 0.433 0.117 0.433 0.291 0 0.103-0.066 0.22-0.162 0.271-0.058 0.03-0.125 0.044-0.205 0.044h-0.103v0.373h0.089c0.161 0 0.278 0.087 0.278 0.204 0 0.125-0.147 0.219-0.367 0.219-0.176 0-0.338-0.073-0.463-0.204l-0.278 0.256c0.205 0.211 0.461 0.321 0.762 0.321 0.42 0 0.729-0.248 0.729-0.585 0-0.139-0.045-0.234-0.17-0.394 0.205-0.183 0.263-0.292 0.263-0.49 0-0.387-0.359-0.687-0.828-0.687" fill="#fff"/></g><g transform="translate(524.81 685.24)"><path d="m0 0-0.811-0.833h0.811zm0.367-1.169v-0.424h-0.367v0.424h-1.285v0.336l1.285 1.323h0.367v-1.323h0.307v-0.336z" fill="#fff"/></g><g transform="translate(207.83 647.27)"><path d="m0 0h50.033c0.91 0 1.656-0.745 1.656-1.657v-40.886c0-0.911-0.746-1.655-1.656-1.655h-50.033c-0.911 0-1.655 0.744-1.655 1.655v40.886c0 0.912 0.744 1.657 1.655 1.657z" fill="none" stroke="#000" stroke-miterlimit="2.613" stroke-width=".25"/></g><g transform="translate(207.83 646.67)"><path d="m0 0h50.033c0.58 0 1.054-0.472 1.054-1.056v-40.886c0-0.579-0.474-1.054-1.054-1.054h-50.033c-0.58 0-1.057 0.475-1.057 1.054v40.886c0 0.584 0.477 1.056 1.057 1.056" fill="#005596" fill-rule="evenodd"/></g><g transform="translate(229.43 641.67)"><path d="m0 0c-0.948 0-1.337 0.845-1.337 1.689 0 0.845 0.389 1.677 1.337 1.677 0.559 0 0.969-0.319 1.175-0.809l-0.605-0.228c-0.103 0.251-0.308 0.387-0.57 0.387-0.56 0-0.674-0.57-0.674-1.027 0-0.467 0.114-1.038 0.674-1.038 0.251 0 0.456 0.137 0.57 0.388h-0.388v0.65h1.118c-0.046-0.821-0.297-1.689-1.3-1.689" fill="#fff"/></g><g transform="translate(232.85 644.06)"><path d="m0 0-0.4-0.914h0.763zm0.935-2.328-0.308 0.764h-1.29l-0.308-0.764h-0.696l1.312 3.264h0.673l1.313-3.264z" fill="#fff"/></g><g transform="translate(237.13 641.86)"><path d="m0 0c-0.195-0.113-0.536-0.183-0.844-0.183-0.365 0-0.719 0.103-1.004 0.298-0.103 0.056-0.172 0.114-0.319 0.251l0.456 0.456c0.275-0.251 0.526-0.354 0.901-0.354 0.378 0 0.64 0.126 0.64 0.354 0 0.091-0.058 0.217-0.149 0.274-0.113 0.068-0.228 0.102-0.65 0.183-0.342 0.08-0.548 0.148-0.685 0.239-0.217 0.148-0.353 0.434-0.353 0.708 0 0.331 0.17 0.627 0.455 0.798 0.183 0.115 0.4 0.16 0.686 0.16 0.365 0 0.708-0.08 0.98-0.251 0.069-0.046 0.103-0.068 0.207-0.148l-0.4-0.513c-0.262 0.194-0.501 0.261-0.81 0.261-0.296 0-0.48-0.102-0.48-0.307 0-0.08 0.046-0.172 0.126-0.206 0.058-0.034 0.125-0.045 0.194-0.068l0.102-0.013 0.114-0.022 0.149-0.023c0.753-0.136 1.154-0.49 1.154-1.061 0-0.342-0.184-0.673-0.47-0.833" fill="#fff"/></g><path d="m229.53 628.45h-12.002v8.951h12.002z" fill="#005596" stroke="#fff" stroke-width=".5"/><g transform="translate(212.04 631.51)"><path d="m0 0-2.084 1.409 2.084 1.412c0.091 0.062 0.217 0.038 0.279-0.054 0.042-0.061 0.035-0.124 0.016-0.199l-0.185-0.613h2.275v-1.092h-2.275l0.18-0.601c0.024-0.084 0.033-0.145-0.011-0.209-0.062-0.09-0.188-0.116-0.279-0.053" fill="#fff" fill-rule="evenodd"/></g><g transform="translate(212.04 623.3)"><path d="m0 0-2.084 1.409 2.084 1.412c0.091 0.062 0.217 0.038 0.279-0.054 0.042-0.061 0.035-0.125 0.016-0.2l-0.185-0.612h2.275v-1.091h-2.275l0.18-0.602c0.024-0.084 0.033-0.145-0.011-0.209-0.062-0.091-0.188-0.116-0.279-0.053" fill="#fff" fill-rule="evenodd"/></g><path d="m229.53 617.2h-12.002v8.952h12.002z" fill="#005596" stroke="#fff" stroke-width=".5"/><g transform="translate(206.38 639.89)"><path d="m0 0h52.537" fill="none" stroke="#fff"/></g><path d="m229.53 605.96h-12.002v8.953h12.002z" fill="#005596" stroke="#fff" stroke-width=".5"/><g transform="translate(212.12 618.85)"><path d="m0 0 9e-3 2.075h-0.349l-0.01 0.4c0.213 0.049 0.33 0.127 0.436 0.302h0.397v-2.777z" fill="#fff"/></g><g transform="translate(212.04 612.06)"><path d="m0 0-2.084 1.409 2.084 1.411c0.091 0.063 0.217 0.039 0.279-0.054 0.042-0.061 0.035-0.124 0.016-0.199l-0.185-0.612h2.275v-1.092h-2.275l0.18-0.601c0.024-0.084 0.033-0.145-0.011-0.208-0.062-0.092-0.188-0.117-0.279-0.054" fill="#fff" fill-rule="evenodd"/></g><g transform="translate(253.43 607.56)"><path d="m0 0c-0.343 0-0.684 0.117-0.929 0.342-0.069 0.059-0.118 0.107-0.215 0.224l0.4 0.302c0.196-0.254 0.452-0.361 0.774-0.361 0.343 0 0.577 0.156 0.577 0.39 0 0.137-0.088 0.293-0.215 0.361-0.079 0.039-0.167 0.057-0.274 0.057h-0.137v0.498h0.118c0.214 0 0.371 0.117 0.371 0.273 0 0.165-0.196 0.291-0.489 0.291-0.234 0-0.45-0.097-0.617-0.272l-0.371 0.341c0.274 0.283 0.616 0.428 1.017 0.428 0.558 0 0.969-0.33 0.969-0.779 0-0.186-0.058-0.312-0.225-0.526 0.274-0.244 0.352-0.39 0.352-0.652 0-0.516-0.479-0.917-1.106-0.917" fill="#fff"/></g><g transform="translate(208.68 607.61)"><path d="m0 0c0 0.331 0.068 0.575 0.225 0.848 0.244 0.41 0.597 0.662 1.105 0.799 0.314 0.087 0.421 0.185 0.421 0.351 0 0.204-0.196 0.321-0.548 0.321-0.362 0-0.625-0.088-0.861-0.302l-0.342 0.38c0.323 0.283 0.724 0.428 1.174 0.428 0.656 0 1.076-0.321 1.076-0.827 0-0.234-0.098-0.449-0.284-0.605-0.088-0.068-0.215-0.135-0.411-0.195-0.371-0.107-0.479-0.156-0.645-0.302-0.127-0.106-0.205-0.213-0.304-0.399h1.644v-0.497z" fill="#fff"/></g><g transform="translate(212.52 606.94)"><path d="m0 0h-0.496l2.422 4.165h0.495z" fill="#fff"/></g><g transform="translate(212.34 609.02)"><path d="m0 0 7e-3 1.557h-0.261l-7e-3 0.3c0.159 0.036 0.247 0.094 0.326 0.226h0.298v-2.083z" fill="#fff"/></g><g transform="translate(214 606.94)"><path d="m0 0c0 0.248 0.051 0.432 0.169 0.636 0.183 0.307 0.447 0.497 0.829 0.599 0.235 0.065 0.315 0.139 0.315 0.264 0 0.153-0.146 0.24-0.41 0.24-0.272 0-0.47-0.066-0.646-0.225l-0.257 0.284c0.243 0.212 0.543 0.321 0.881 0.321 0.491 0 0.807-0.24 0.807-0.62 0-0.176-0.073-0.336-0.212-0.453-0.066-0.052-0.163-0.103-0.309-0.148-0.279-0.079-0.359-0.115-0.485-0.225-0.094-0.081-0.154-0.161-0.227-0.3h1.233v-0.373z" fill="#fff"/></g><path d="m236.08 628.45h12.002v8.951h-12.002z" fill="#005596" stroke="#fff" stroke-width=".5"/><g transform="translate(253.57 623.3)" fill="#fff" fill-rule="evenodd"><path d="m0 0 2.085 1.409-2.085 1.412c-0.09 0.062-0.216 0.038-0.279-0.054-0.042-0.061-0.035-0.125-0.017-0.2l0.186-0.612h-2.274v-1.091h2.274l-0.18-0.602c-0.024-0.084-0.033-0.145 0.011-0.209 0.063-0.091 0.189-0.116 0.279-0.053"/><path d="m0 0 2.085 1.409-2.085 1.412c-0.09 0.062-0.216 0.038-0.279-0.054-0.042-0.061-0.035-0.125-0.017-0.2l0.186-0.612h-2.274v-1.091h2.274l-0.18-0.602c-0.024-0.084-0.033-0.145 0.011-0.209 0.063-0.091 0.189-0.116 0.279-0.053"/></g><path d="m236.08 617.2h12.002v8.952h-12.002z" fill="#005596" stroke="#fff" stroke-width=".5"/><path d="m236.08 605.96h12.002v8.953h-12.002z" fill="#005596" stroke="#fff" stroke-width=".5"/><g transform="translate(253.57 612.06)"><path d="m0 0 2.085 1.409-2.085 1.411c-0.09 0.063-0.216 0.039-0.279-0.054-0.042-0.061-0.035-0.124-0.017-0.199l0.186-0.612h-2.274v-1.092h2.274l-0.18-0.601c-0.024-0.084-0.033-0.145 0.011-0.208 0.063-0.092 0.189-0.117 0.279-0.054" fill="#fff" fill-rule="evenodd"/></g><g transform="translate(254.5 622.35)"><path d="m0 0h-0.495l-2.421-4.165h0.495z" fill="#fff"/></g><g transform="translate(252.27 620.26)"><path d="m0 0v2.083h-0.299c-0.08-0.132-0.167-0.191-0.326-0.227l7e-3 -0.3h0.262l-8e-3 -1.556z" fill="#fff"/></g><g transform="translate(255.25 618.18)"><path d="m0 0v0.372h-1.232c0.072 0.139 0.131 0.219 0.227 0.3 0.124 0.109 0.205 0.146 0.484 0.226 0.147 0.044 0.242 0.095 0.308 0.147 0.14 0.116 0.213 0.277 0.213 0.452 0 0.381-0.316 0.621-0.808 0.621-0.337 0-0.638-0.109-0.88-0.321l0.257-0.285c0.176 0.161 0.374 0.226 0.646 0.226 0.264 0 0.411-0.086 0.411-0.241 0-0.124-0.081-0.197-0.317-0.262-0.38-0.103-0.644-0.293-0.829-0.6-0.117-0.204-0.168-0.387-0.168-0.635z" fill="#fff"/></g><g transform="translate(253.57 634.54)"><path d="m0 0 2.085 1.409-2.085 1.412c-0.09 0.062-0.216 0.038-0.279-0.054-0.042-0.061-0.035-0.124-0.017-0.2l0.186-0.612h-2.274v-1.091h2.274l-0.18-0.602c-0.024-0.083-0.033-0.145 0.011-0.209 0.063-0.091 0.189-0.116 0.279-0.053" fill="#fff" fill-rule="evenodd"/></g><g transform="translate(254.5 633.59)"><path d="m0 0h-0.495l-2.421-4.165h0.495z" fill="#fff"/></g><g transform="translate(252.27 631.5)"><path d="m0 0v2.084h-0.299c-0.08-0.132-0.167-0.191-0.326-0.228l7e-3 -0.299h0.262l-8e-3 -1.557z" fill="#fff"/></g><g transform="translate(255.25 629.42)"><path d="m0 0v0.372h-1.232c0.072 0.14 0.131 0.219 0.227 0.3 0.124 0.11 0.205 0.146 0.484 0.226 0.147 0.044 0.242 0.095 0.308 0.147 0.14 0.116 0.213 0.277 0.213 0.452 0 0.381-0.316 0.621-0.808 0.621-0.337 0-0.638-0.109-0.88-0.321l0.257-0.284c0.176 0.159 0.374 0.225 0.646 0.225 0.264 0 0.411-0.087 0.411-0.241 0-0.124-0.081-0.197-0.317-0.262-0.38-0.103-0.644-0.293-0.829-0.6-0.117-0.204-0.168-0.387-0.168-0.635z" fill="#fff"/></g><g transform="translate(232.8 639.8)"><path d="m0 0v-36.389" fill="none" stroke="#fff"/></g></g></g></svg>
