<?xml version="1.0" encoding="UTF-8"?>
<svg width="607.85" height="182.29" version="1.1" viewBox="0 0 607.85 182.29" xml:space="preserve" xmlns="http://www.w3.org/2000/svg"><defs><clipPath id="f"><path d="m0 792h612v-792h-612z"/></clipPath><clipPath id="e"><path d="m63 41h513v161.66h-513z"/></clipPath><clipPath id="d"><path d="m91.554 42.979h455.89v159.68h-455.89z"/></clipPath><clipPath id="c"><path d="m63 41h513v161.66h-513z"/></clipPath><clipPath id="b"><path d="m91.554 42.979h455.89v159.68h-455.89z"/></clipPath><clipPath id="a"><path d="m63 41h513v161.66h-513z"/></clipPath></defs><g transform="matrix(1.3333 0 0 -1.3333 -122.07 239.77)"><g clip-path="url(#f)"/><g fill="#000000"><g font-family="Times" font-size="11px" font-style="italic"><text transform="matrix(1 0 0 -1 124.09 322.56)"><tspan x="0" y="0">	</tspan></text><text transform="matrix(1 0 0 -1 137.23 322.56)"><tspan x="0" y="0">	</tspan></text><text transform="matrix(1 0 0 -1 172.56 322.56)"><tspan x="0" y="0">	</tspan></text><text transform="matrix(1 0 0 -1 196.37 322.56)"><tspan x="0" y="0">	</tspan></text><text transform="matrix(1 0 0 -1 212.64 322.56)"><tspan x="0" y="0">	</tspan></text><text transform="matrix(1 0 0 -1 267.7 322.56)"><tspan x="0" y="0">	</tspan></text><text transform="matrix(1 0 0 -1 279.06 322.56)"><tspan x="0" y="0">	</tspan></text><text transform="matrix(1 0 0 -1 306.05 322.56)"><tspan x="0" y="0">	</tspan></text><text transform="matrix(1 0 0 -1 317.36 322.56)"><tspan x="0" y="0">	</tspan></text><text transform="matrix(1 0 0 -1 330.5 322.56)"><tspan x="0" y="0">	</tspan></text><text transform="matrix(1 0 0 -1 371.41 322.56)"><tspan x="0" y="0">	</tspan></text><text transform="matrix(1 0 0 -1 385.21 322.56)"><tspan x="0" y="0">	</tspan></text><text transform="matrix(1 0 0 -1 419.1 322.56)"><tspan x="0" y="0">	</tspan></text></g><text transform="matrix(1 0 0 -1 468.9 74.104)" font-family="Helvetica" font-size="9px"><tspan x="0 6.4980001 11.502 14.499 19.503 -320.814 -314.31601 -309.31201 -306.315 -164.925 -158.427 -153.423 -150.42599" y="0">D5-11D5-7D5-8</tspan></text></g><g clip-path="url(#e)"><g transform="translate(100.32 179.44)"><path d="m0 0h115.04c4.685 0 8.519-3.833 8.519-8.518v-75.543c0-4.684-3.834-8.517-8.519-8.517h-115.04c-4.687 0-8.519 3.833-8.519 8.517v75.543c0 4.685 3.832 8.518 8.519 8.518" fill="#fff"/></g></g><g clip-path="url(#d)"><g transform="translate(100.32 179.44)"><path d="m0 0h115.04c4.685 0 8.519-3.833 8.519-8.518v-75.543c0-4.684-3.834-8.517-8.519-8.517h-115.04c-4.687 0-8.519 3.833-8.519 8.517v75.543c0 4.685 3.832 8.518 8.519 8.518z" fill="none" stroke="#000" stroke-miterlimit="2.613" stroke-width=".5"/></g></g><g clip-path="url(#c)"><g transform="translate(100.32 177.67)"><path d="m0 0h115.04c3.709 0 6.744-3.035 6.744-6.744v-18.561h-128.52v18.561c0 3.709 3.033 6.744 6.743 6.744" fill="#005596" fill-rule="evenodd"/></g><g transform="translate(100.32 88.626)"><path d="m0 0h115.04c3.709 0 6.744 3.034 6.744 6.744v55.22h-128.52v-55.22c0-3.71 3.033-6.744 6.743-6.744" fill="#005596" fill-rule="evenodd"/></g><g transform="translate(123.71 159.43)"><path d="m0 0-1.95 5.189c1.014 0.468 1.716 1.639 1.716 2.809 0 1.131-0.702 2.302-1.678 2.77-0.546 0.273-1.132 0.351-1.989 0.351h-3.668v-11.119h1.756v4.838h2.107l1.794-4.838zm-1.989 7.998c0-0.468-0.274-0.937-0.703-1.17-0.274-0.157-0.468-0.196-1.014-0.196h-2.107v2.732h2.107c0.585 0 0.74-0.039 1.014-0.195 0.429-0.234 0.703-0.703 0.703-1.171" fill="#fff"/></g><g transform="translate(125.54 159.43)"><path d="m0 0v11.119h6.555v-1.755h-4.799v-2.732h3.238v-1.794h-3.238v-3.043h5.149v-1.795z" fill="#fff"/></g><g transform="translate(139.97 160.1)"><path d="m0 0c-0.623-0.546-1.482-0.858-2.418-0.858-1.912 0-3.316 1.131-4.058 2.809l1.677 0.624c0.469-1.053 1.327-1.638 2.381-1.638 1.014 0 1.717 0.702 1.717 1.638 0 1.483-1.717 1.717-3.16 2.302-0.664 0.273-2.147 0.937-2.147 2.77 0 2.185 1.483 3.004 3.473 3.004 1.56 0 2.613-0.897 3.16-2.263l-1.56-0.468s-0.391 0.936-1.639 0.976c-0.819 0.039-1.795-0.273-1.717-1.288 0.156-2.068 5.385-0.702 5.385-5.072 0-1.014-0.391-1.911-1.094-2.536" fill="#fff"/></g><g transform="translate(146.22 168.99)"><path d="m0 0v-9.559h-1.756v9.559h-2.535v1.56h6.866v-1.56z" fill="#fff"/></g><g transform="translate(171.35 159.43)"><path d="m0 0-3.824 11.119h-1.755l-3.823-11.119h1.872l1.092 3.121h3.473l1.092-3.121zm-3.59 4.916h-2.224l1.132 3.121z" fill="#fff"/></g><g transform="translate(180.56 159.43)"><path d="m0 0-1.951 5.189c1.015 0.468 1.717 1.639 1.717 2.809 0 1.131-0.702 2.302-1.678 2.77-0.546 0.273-1.131 0.351-1.989 0.351h-3.668v-11.119h1.756v4.838h2.106l1.795-4.838zm-1.99 7.998c0-0.468-0.273-0.937-0.702-1.17-0.273-0.157-0.468-0.196-1.015-0.196h-2.106v2.732h2.106c0.586 0 0.742-0.039 1.015-0.195 0.429-0.234 0.702-0.703 0.702-1.171" fill="#fff"/></g><g transform="translate(182.39 159.43)"><path d="m0 0v11.119h6.555v-1.755h-4.799v-2.732h3.238v-1.794h-3.238v-3.043h5.149v-1.795z" fill="#fff"/></g><g transform="translate(199.56 159.43)"><path d="m0 0-3.823 11.119h-1.756l-3.823-11.119h1.873l1.091 3.121h3.473l1.093-3.121zm-3.589 4.916h-2.224l1.131 3.121z" fill="#fff"/></g><g transform="translate(111.58 141.92)"><path d="m0 0v-9.559h-1.755v9.559h-2.537v1.561h6.867v-1.561z" fill="#fff"/></g><g transform="translate(123.4 137.9)"><path d="m0 0c0 1.405-0.273 2.809-0.741 3.785-0.702 1.365-1.678 1.989-3.082 1.989-1.288 0-2.185-0.39-2.849-1.248-0.74-1.054-1.209-2.692-1.209-4.526 0-1.327 0.313-2.809 0.78-3.745 0.663-1.366 1.639-1.99 3.2-1.99 1.171 0 2.067 0.39 2.692 1.248 0.779 0.976 1.209 2.732 1.209 4.487m-1.756 0c0-0.858-0.195-1.951-0.429-2.536-0.389-0.975-0.897-1.405-1.716-1.405-0.703 0-1.171 0.273-1.522 0.859-0.429 0.702-0.663 1.912-0.663 3.082 0 0.936 0.156 1.951 0.429 2.614 0.389 0.975 0.936 1.404 1.795 1.365 0.663-0.039 1.092-0.272 1.443-0.858 0.429-0.741 0.663-1.872 0.663-3.121" fill="#fff"/></g><g transform="translate(132.88 134.04)"><path d="m0 0c-0.585-1.092-1.912-1.873-3.277-1.873-1.367 0-2.693 0.781-3.278 1.873-0.311 0.663-0.507 1.443-0.507 2.302v7.139h1.756v-7.139c0-1.444 0.819-2.38 2.029-2.38s2.028 0.936 2.028 2.38v7.139h1.756v-7.139c0-0.859-0.196-1.639-0.507-2.302" fill="#fff"/></g><g transform="translate(143.57 132.36)"><path d="m0 0-1.95 5.189c1.013 0.468 1.717 1.639 1.717 2.809 0 1.131-0.704 2.302-1.678 2.77-0.547 0.273-1.132 0.351-1.99 0.351h-3.668v-11.119h1.756v4.838h2.107l1.795-4.838zm-1.989 7.998c0-0.468-0.274-0.936-0.703-1.17-0.273-0.157-0.468-0.196-1.014-0.196h-2.107v2.732h2.107c0.585 0 0.741-0.039 1.014-0.196 0.429-0.233 0.703-0.702 0.703-1.17" fill="#fff"/></g><path d="m145.4 143.48h1.795v-11.119h-1.795z" fill="#fff"/><g transform="translate(155.51 133.02)"><path d="m0 0c-0.625-0.546-1.482-0.858-2.419-0.858-1.912 0-3.316 1.132-4.057 2.809l1.677 0.624c0.468-1.053 1.326-1.639 2.38-1.639 1.015 0 1.716 0.703 1.716 1.639 0 1.483-1.716 1.717-3.16 2.302-0.662 0.273-2.145 0.937-2.145 2.77 0 2.185 1.483 3.004 3.472 3.004 1.56 0 2.614-0.897 3.16-2.263l-1.56-0.468s-0.39 0.937-1.639 0.976c-0.819 0.039-1.795-0.273-1.717-1.288 0.156-2.068 5.384-0.702 5.384-5.072 0-1.014-0.39-1.911-1.092-2.536" fill="#fff"/></g><g transform="translate(161.75 141.92)"><path d="m0 0v-9.559h-1.756v9.559h-2.537v1.561h6.867v-1.561z" fill="#fff"/></g><path d="m178.74 143.48h1.795v-11.119h-1.795z" fill="#fff"/><g transform="translate(189.16 132.36)"><path d="m0 0-4.252 7.53v-7.53h-1.756v11.119h1.756l4.057-7.1v7.1h1.756v-11.119z" fill="#fff"/></g><g transform="translate(195.09 141.73)"><path d="m0 0v-2.731h3.239v-1.795h-3.239v-4.838h-1.756v11.119h6.906v-1.755z" fill="#fff"/></g><g transform="translate(209.48 137.9)"><path d="m0 0c0 1.405-0.273 2.809-0.741 3.785-0.703 1.365-1.678 1.989-3.082 1.989-1.288 0-2.185-0.39-2.848-1.248-0.741-1.054-1.21-2.692-1.21-4.526 0-1.327 0.312-2.809 0.78-3.745 0.663-1.366 1.639-1.99 3.199-1.99 1.171 0 2.069 0.39 2.693 1.248 0.78 0.976 1.209 2.732 1.209 4.487m-1.755 0c0-0.858-0.195-1.951-0.43-2.536-0.389-0.975-0.897-1.405-1.717-1.405-0.702 0-1.17 0.273-1.521 0.859-0.429 0.702-0.663 1.912-0.663 3.082 0 0.936 0.156 1.951 0.429 2.614 0.39 0.975 0.936 1.404 1.794 1.365 0.664-0.039 1.093-0.272 1.444-0.858 0.43-0.741 0.664-1.872 0.664-3.121" fill="#fff"/></g><g transform="translate(136.09 113.7)"><path d="m0 0c-1.639 0-2.693 0.625-3.395 1.99-0.507 0.975-0.82 2.38-0.82 3.784 0 1.756 0.469 3.512 1.249 4.487 0.663 0.82 1.6 1.249 2.849 1.249 1.677 0 2.73-0.703 3.471-2.263l-1.638-0.703c-0.624 0.937-0.976 1.171-1.833 1.171-0.899 0-1.483-0.39-1.873-1.365-0.274-0.664-0.43-1.639-0.43-2.576 0-1.209 0.274-2.419 0.703-3.121 0.39-0.585 0.897-0.858 1.678-0.858 0.74 0 1.287 0.39 1.716 1.288l1.677-0.625c-0.663-1.639-1.754-2.458-3.354-2.458" fill="#fff"/></g><g transform="translate(141.83 113.89)"><path d="m0 0v11.119h6.555v-1.755h-4.799v-2.732h3.238v-1.794h-3.238v-3.043h5.15v-1.795z" fill="#fff"/></g><g transform="translate(156.58 113.89)"><path d="m0 0-4.254 7.53v-7.53h-1.755v11.119h1.755l4.059-7.1v7.1h1.756v-11.119z" fill="#fff"/></g><g transform="translate(164.07 123.45)"><path d="m0 0v-9.559h-1.756v9.559h-2.536v1.561h6.866v-1.561z" fill="#fff"/></g><g transform="translate(168.24 113.89)"><path d="m0 0v11.119h6.555v-1.755h-4.799v-2.732h3.238v-1.794h-3.238v-3.043h5.15v-1.795z" fill="#fff"/></g><g transform="translate(184.55 113.89)"><path d="m0 0-1.951 5.189c1.015 0.468 1.717 1.639 1.717 2.809 0 1.131-0.702 2.302-1.678 2.77-0.546 0.273-1.132 0.351-1.99 0.351h-3.667v-11.119h1.756v4.838h2.106l1.795-4.838zm-1.99 7.998c0-0.468-0.274-0.936-0.702-1.17-0.274-0.157-0.469-0.196-1.015-0.196h-2.106v2.732h2.106c0.585 0 0.741-0.039 1.015-0.196 0.428-0.233 0.702-0.702 0.702-1.17" fill="#fff"/></g><g transform="translate(155.11 95.68)"><path d="m0 0v6.438l-2.574-6.438-2.575 6.438v-6.438h-1.755v11.119h1.755l2.575-6.242 2.574 6.242h1.756v-11.119z" fill="#fff"/></g><path d="m159.48 106.8h1.794v-11.119h-1.794z" fill="#fff"/><g transform="translate(163.89 95.68)"><path d="m0 0v11.119h1.755v-9.48h5.15v-1.639z" fill="#fff"/></g><g transform="translate(172.39 95.68)"><path d="m0 0v11.119h6.554v-1.756h-4.799v-2.73h3.238v-1.795h-3.238v-3.043h5.15v-1.795z" fill="#fff"/></g><g transform="translate(186.83 96.344)"><path d="m0 0c-0.624-0.546-1.482-0.858-2.419-0.858-1.911 0-3.316 1.132-4.058 2.809l1.678 0.624c0.469-1.053 1.326-1.638 2.38-1.638 1.015 0 1.717 0.702 1.717 1.638 0 1.483-1.717 1.717-3.16 2.302-0.663 0.274-2.146 0.937-2.146 2.771 0 2.184 1.483 3.003 3.472 3.003 1.56 0 2.614-0.897 3.16-2.262l-1.561-0.469s-0.389 0.937-1.638 0.976c-0.82 0.039-1.794-0.274-1.716-1.287 0.155-2.069 5.384-0.703 5.384-5.073 0-1.014-0.391-1.912-1.093-2.536" fill="#fff"/></g><g transform="translate(127.61 94.413)"><path d="m0 0c0.048 1.582 0.383 2.875 1.15 4.169 0.575 1.054 1.438 1.917 2.396 2.636 0.239 0.144 0.431 0.287 0.623 0.431l0.719 0.384 0.671 0.382 0.671 0.384c0.526 0.335 0.91 0.91 0.91 1.486 0 1.006-1.15 1.821-2.492 1.821-1.39 0-2.252-0.671-2.492-1.917l-2.156 0.479c0.479 2.252 2.252 3.642 4.648 3.642 2.587 0 4.648-1.821 4.648-4.073 0-1.054-0.48-2.109-1.39-2.923-0.191-0.144-0.383-0.288-0.574-0.384l-0.672-0.431-0.719-0.383-0.669-0.383c-1.295-0.768-2.014-1.582-2.684-3.115h6.708v-2.205z" fill="#fff"/></g><g transform="translate(268.71 179.58)"><path d="m0 0h90.038c5.125 0 9.32-4.195 9.32-9.322v-73.936c0-5.127-4.195-9.321-9.32-9.321h-90.038c-5.127 0-9.322 4.194-9.322 9.321v73.936c0 5.127 4.195 9.322 9.322 9.322" fill="#fff"/><path d="m0 0h90.038c5.125 0 9.32-4.195 9.32-9.322v-73.936c0-5.127-4.195-9.321-9.32-9.321h-90.038c-5.127 0-9.322 4.194-9.322 9.321v73.936c0 5.127 4.195 9.322 9.322 9.322z" fill="none" stroke="#000" stroke-miterlimit="2.613" stroke-width=".5"/></g><g transform="translate(268.71 177.94)"><path d="m0 0h90.038c4.224 0 7.681-3.458 7.681-7.684v-17.794h-105.4v17.794c0 4.226 3.457 7.684 7.683 7.684" fill="#005596" fill-rule="evenodd"/></g><g transform="translate(268.71 88.695)"><path d="m0 0h90.038c4.224 0 7.681 3.458 7.681 7.684v54.445h-105.4v-54.445c0-4.226 3.457-7.684 7.683-7.684" fill="#005596" fill-rule="evenodd"/></g><g transform="translate(279.85 159.45)"><path d="m0 0-1.932 5.14c1.004 0.463 1.7 1.623 1.7 2.782 0 1.12-0.696 2.28-1.662 2.743-0.541 0.27-1.12 0.349-1.97 0.349h-3.632v-11.014h1.738v4.792h2.087l1.777-4.792zm-1.971 7.922c0-0.464-0.27-0.928-0.695-1.159-0.272-0.155-0.464-0.194-1.005-0.194h-2.087v2.705h2.087c0.579 0 0.733-0.039 1.005-0.193 0.425-0.231 0.695-0.695 0.695-1.159" fill="#fff"/></g><g transform="translate(281.67 159.45)"><path d="m0 0v11.014h6.493v-1.74h-4.754v-2.705h3.207v-1.777h-3.207v-3.015h5.101v-1.777z" fill="#fff"/></g><g transform="translate(295.96 160.11)"><path d="m0 0c-0.618-0.541-1.469-0.851-2.395-0.851-1.894 0-3.284 1.122-4.019 2.783l1.661 0.618c0.464-1.043 1.314-1.623 2.358-1.623 1.005 0 1.7 0.696 1.7 1.623 0 1.469-1.7 1.7-3.13 2.28-0.657 0.271-2.126 0.928-2.126 2.743 0 2.164 1.469 2.976 3.439 2.976 1.546 0 2.59-0.889 3.131-2.241l-1.547-0.464s-0.385 0.928-1.623 0.967c-0.81 0.038-1.777-0.271-1.699-1.276 0.155-2.048 5.332-0.695 5.332-5.023 0-1.005-0.386-1.894-1.082-2.512" fill="#fff"/></g><g transform="translate(302.15 168.92)"><path d="m0 0v-9.468h-1.739v9.468h-2.512v1.546h6.801v-1.546z" fill="#fff"/></g><g transform="translate(327.12 159.45)"><path d="m0 0-3.787 11.014h-1.738l-3.788-11.014h1.856l1.082 3.092h3.439l1.083-3.092zm-3.555 4.869h-2.203l1.121 3.091z" fill="#fff"/></g><g transform="translate(336.24 159.45)"><path d="m0 0-1.933 5.14c1.005 0.463 1.701 1.623 1.701 2.782 0 1.12-0.696 2.28-1.662 2.743-0.541 0.27-1.121 0.349-1.971 0.349h-3.633v-11.014h1.74v4.792h2.086l1.778-4.792zm-1.973 7.922c0-0.464-0.269-0.928-0.695-1.159-0.269-0.155-0.463-0.194-1.004-0.194h-2.086v2.705h2.086c0.58 0 0.735-0.039 1.004-0.193 0.426-0.231 0.695-0.695 0.695-1.159" fill="#fff"/></g><g transform="translate(338.05 159.45)"><path d="m0 0v11.014h6.492v-1.74h-4.752v-2.705h3.207v-1.777h-3.207v-3.015h5.099v-1.777z" fill="#fff"/></g><g transform="translate(355.05 159.45)"><path d="m0 0-3.787 11.014h-1.74l-3.787-11.014h1.856l1.082 3.092h3.439l1.082-3.092zm-3.556 4.869h-2.201l1.119 3.091z" fill="#fff"/></g><g transform="translate(275.28 142.02)"><path d="m0 0v-9.468h-1.74v9.468h-2.511v1.546h6.8v-1.546z" fill="#fff"/></g><g transform="translate(286.99 138.04)"><path d="m0 0c0 1.392-0.27 2.782-0.735 3.748-0.695 1.353-1.661 1.971-3.052 1.971-1.275 0-2.165-0.386-2.821-1.236-0.734-1.043-1.197-2.667-1.197-4.483 0-1.313 0.309-2.782 0.771-3.71 0.659-1.353 1.623-1.971 3.17-1.971 1.159 0 2.047 0.387 2.666 1.237 0.773 0.967 1.198 2.705 1.198 4.444m-1.739 0c0-0.85-0.193-1.933-0.425-2.512-0.386-0.965-0.889-1.391-1.7-1.391-0.696 0-1.16 0.27-1.507 0.85-0.425 0.696-0.657 1.894-0.657 3.053 0 0.928 0.155 1.932 0.425 2.589 0.386 0.966 0.927 1.391 1.777 1.353 0.658-0.039 1.082-0.271 1.43-0.85 0.425-0.734 0.657-1.856 0.657-3.092" fill="#fff"/></g><g transform="translate(296.38 134.21)"><path d="m0 0c-0.58-1.082-1.894-1.856-3.246-1.856s-2.666 0.774-3.246 1.856c-0.309 0.656-0.502 1.43-0.502 2.279v7.072h1.738v-7.072c0-1.429 0.812-2.357 2.01-2.357 1.197 0 2.01 0.928 2.01 2.357v7.072h1.738v-7.072c0-0.849-0.193-1.623-0.502-2.279" fill="#fff"/></g><g transform="translate(306.97 132.55)"><path d="m0 0-1.932 5.14c1.004 0.464 1.7 1.623 1.7 2.782 0 1.12-0.696 2.28-1.66 2.743-0.543 0.271-1.122 0.349-1.973 0.349h-3.632v-11.014h1.739v4.792h2.086l1.78-4.792zm-1.971 7.922c0-0.464-0.271-0.928-0.695-1.159-0.271-0.155-0.465-0.194-1.006-0.194h-2.086v2.706h2.086c0.58 0 0.735-0.04 1.006-0.194 0.424-0.231 0.695-0.695 0.695-1.159" fill="#fff"/></g><path d="m308.78 143.56h1.777v-11.014h-1.777z" fill="#fff"/><g transform="translate(318.79 133.21)"><path d="m0 0c-0.617-0.541-1.468-0.851-2.396-0.851-1.893 0-3.283 1.121-4.018 2.783l1.662 0.618c0.463-1.043 1.313-1.623 2.356-1.623 1.006 0 1.701 0.696 1.701 1.623 0 1.468-1.701 1.7-3.131 2.28-0.656 0.271-2.125 0.928-2.125 2.743 0 2.164 1.469 2.976 3.44 2.976 1.545 0 2.589-0.889 3.131-2.241l-1.547-0.464s-0.387 0.928-1.623 0.966c-0.811 0.039-1.778-0.27-1.7-1.275 0.155-2.048 5.333-0.695 5.333-5.023 0-1.005-0.387-1.894-1.083-2.512" fill="#fff"/></g><g transform="translate(324.97 142.02)"><path d="m0 0v-9.468h-1.738v9.468h-2.512v1.546h6.801v-1.546z" fill="#fff"/></g><path d="m284.05 125.13h1.777v-11.014h-1.777z" fill="#fff"/><g transform="translate(294.37 114.12)"><path d="m0 0-4.211 7.458v-7.458h-1.74v11.014h1.74l4.018-7.034v7.034h1.739v-11.014z" fill="#fff"/></g><g transform="translate(300.24 123.39)"><path d="m0 0v-2.705h3.208v-1.777h-3.208v-4.792h-1.74v11.013h6.84v-1.739z" fill="#fff"/></g><g transform="translate(314.5 119.6)"><path d="m0 0c0 1.392-0.269 2.782-0.734 3.748-0.695 1.353-1.661 1.971-3.053 1.971-1.274 0-2.164-0.386-2.82-1.237-0.734-1.043-1.197-2.666-1.197-4.482 0-1.314 0.308-2.782 0.771-3.71 0.658-1.353 1.623-1.971 3.17-1.971 1.158 0 2.047 0.387 2.666 1.237 0.773 0.966 1.197 2.705 1.197 4.444m-1.738 0c0-0.851-0.193-1.933-0.426-2.512-0.385-0.966-0.888-1.391-1.699-1.391-0.696 0-1.16 0.27-1.508 0.85-0.425 0.696-0.656 1.894-0.656 3.053 0 0.928 0.154 1.933 0.425 2.589 0.386 0.966 0.927 1.391 1.777 1.352 0.657-0.038 1.082-0.27 1.43-0.849 0.425-0.735 0.657-1.856 0.657-3.092" fill="#fff"/></g><g transform="translate(277.37 95.915)"><path d="m0 0c-1.623 0-2.667 0.618-3.363 1.971-0.503 0.966-0.811 2.357-0.811 3.749 0 1.738 0.464 3.477 1.236 4.443 0.657 0.812 1.584 1.236 2.821 1.236 1.661 0 2.705-0.695 3.439-2.241l-1.623-0.695c-0.617 0.928-0.965 1.159-1.816 1.159-0.889 0-1.468-0.387-1.854-1.352-0.272-0.657-0.426-1.624-0.426-2.55 0-1.199 0.271-2.397 0.695-3.092 0.387-0.58 0.889-0.851 1.662-0.851 0.735 0 1.276 0.387 1.701 1.276l1.661-0.618c-0.656-1.624-1.738-2.435-3.322-2.435" fill="#fff"/></g><g transform="translate(283.04 96.107)"><path d="m0 0v11.014h6.492v-1.739h-4.753v-2.705h3.209v-1.778h-3.209v-3.014h5.101v-1.778z" fill="#fff"/></g><g transform="translate(297.65 96.107)"><path d="m0 0-4.213 7.458v-7.458h-1.739v11.014h1.739l4.019-7.033v7.033h1.739v-11.014z" fill="#fff"/></g><g transform="translate(305.07 105.58)"><path d="m0 0v-9.468h-1.74v9.468h-2.511v1.546h6.801v-1.546z" fill="#fff"/></g><g transform="translate(309.21 96.107)"><path d="m0 0v11.014h6.492v-1.739h-4.752v-2.705h3.207v-1.778h-3.207v-3.014h5.099v-1.778z" fill="#fff"/></g><g transform="translate(325.36 96.107)"><path d="m0 0-1.933 5.14c1.005 0.464 1.701 1.623 1.701 2.782 0 1.12-0.696 2.28-1.662 2.743-0.541 0.271-1.121 0.349-1.971 0.349h-3.633v-11.014h1.738v4.792h2.088l1.778-4.792zm-1.971 7.922c0-0.464-0.271-0.928-0.695-1.159-0.271-0.154-0.465-0.193-1.006-0.193h-2.088v2.705h2.088c0.58 0 0.735-0.039 1.006-0.194 0.424-0.231 0.695-0.695 0.695-1.159" fill="#fff"/></g><g transform="translate(342.73 126.58)"><path d="m0 0c-0.101 0.046-0.203 0.112-0.281 0.193-0.355 0.362-0.352 0.944 8e-3 1.299 0.137 0.133 0.31 0.219 0.498 0.253l13.564 2.478c0.301 0.078 0.647-0.013 0.877-0.246 0.242-0.246 0.307-0.548 0.24-0.88l-2.695-13.585c-0.043-0.167-0.129-0.317-0.248-0.435-0.359-0.353-0.943-0.35-1.299 0.01-0.076 0.08-0.144 0.18-0.185 0.274l-2.629 5.313-12.106-12.406-3.38 3.429 12.783 11.605-5.147 2.698" fill="#fff" fill-rule="evenodd"/></g><g transform="translate(423.64 179.05)"><path d="m0 0h115.04c4.685 0 8.519-3.833 8.519-8.518v-75.542c0-4.686-3.834-8.518-8.519-8.518h-115.04c-4.687 0-8.519 3.832-8.519 8.518v75.542c0 4.685 3.832 8.518 8.519 8.518" fill="#fff"/></g></g><g clip-path="url(#b)"><g transform="translate(423.64 179.05)"><path d="m0 0h115.04c4.685 0 8.519-3.833 8.519-8.518v-75.542c0-4.686-3.834-8.518-8.519-8.518h-115.04c-4.687 0-8.519 3.832-8.519 8.518v75.542c0 4.685 3.832 8.518 8.519 8.518z" fill="none" stroke="#000" stroke-miterlimit="2.613" stroke-width=".5"/></g></g><g clip-path="url(#a)"><g transform="translate(423.64 177.28)"><path d="m0 0h115.04c3.709 0 6.744-3.035 6.744-6.744v-18.561h-128.52v18.561c0 3.709 3.033 6.744 6.744 6.744" fill="#005596" fill-rule="evenodd"/></g><g transform="translate(423.64 88.234)"><path d="m0 0h115.04c3.709 0 6.744 3.033 6.744 6.744v55.22h-128.52v-55.22c0-3.711 3.033-6.744 6.744-6.744" fill="#005596" fill-rule="evenodd"/></g><g transform="translate(447.02 159.04)"><path d="m0 0-1.949 5.189c1.014 0.468 1.715 1.639 1.715 2.809 0 1.131-0.701 2.302-1.678 2.77-0.545 0.273-1.131 0.351-1.988 0.351h-3.668v-11.119h1.756v4.838h2.107l1.793-4.838zm-1.988 7.998c0-0.468-0.273-0.936-0.703-1.17-0.274-0.157-0.469-0.196-1.014-0.196h-2.107v2.732h2.107c0.584 0 0.74-0.039 1.014-0.195 0.43-0.234 0.703-0.703 0.703-1.171" fill="#fff"/></g><g transform="translate(448.86 159.04)"><path d="m0 0v11.119h6.555v-1.755h-4.799v-2.732h3.238v-1.794h-3.238v-3.043h5.149v-1.795z" fill="#fff"/></g><g transform="translate(463.29 159.7)"><path d="m0 0c-0.623-0.546-1.483-0.858-2.418-0.858-1.912 0-3.317 1.132-4.057 2.809l1.676 0.624c0.469-1.053 1.328-1.639 2.381-1.639 1.014 0 1.717 0.703 1.717 1.639 0 1.483-1.717 1.717-3.161 2.302-0.664 0.273-2.146 0.937-2.146 2.77 0 2.185 1.482 3.004 3.473 3.004 1.56 0 2.613-0.897 3.16-2.263l-1.561-0.468s-0.39 0.937-1.638 0.976c-0.819 0.039-1.795-0.273-1.717-1.288 0.156-2.068 5.385-0.702 5.385-5.072 0-1.014-0.391-1.911-1.094-2.536" fill="#fff"/></g><g transform="translate(469.53 168.6)"><path d="m0 0v-9.559h-1.756v9.559h-2.535v1.561h6.867v-1.561z" fill="#fff"/></g><g transform="translate(494.67 159.04)"><path d="m0 0-3.824 11.119h-1.754l-3.825-11.119h1.873l1.092 3.121h3.473l1.092-3.121zm-3.59 4.916h-2.223l1.131 3.121z" fill="#fff"/></g><g transform="translate(503.88 159.04)"><path d="m0 0-1.951 5.189c1.015 0.468 1.716 1.639 1.716 2.809 0 1.131-0.701 2.302-1.677 2.77-0.545 0.273-1.131 0.351-1.989 0.351h-3.668v-11.119h1.756v4.838h2.106l1.795-4.838zm-1.99 7.998c0-0.468-0.272-0.936-0.702-1.17-0.273-0.157-0.468-0.196-1.015-0.196h-2.106v2.732h2.106c0.586 0 0.742-0.039 1.015-0.195 0.43-0.234 0.702-0.703 0.702-1.171" fill="#fff"/></g><g transform="translate(505.71 159.04)"><path d="m0 0v11.119h6.554v-1.755h-4.798v-2.732h3.238v-1.794h-3.238v-3.043h5.148v-1.795z" fill="#fff"/></g><g transform="translate(522.88 159.04)"><path d="m0 0-3.824 11.119h-1.756l-3.823-11.119h1.874l1.091 3.121h3.473l1.092-3.121zm-3.59 4.916h-2.223l1.131 3.121z" fill="#fff"/></g><g transform="translate(434.89 141.53)"><path d="m0 0v-9.559h-1.754v9.559h-2.537v1.561h6.868v-1.561z" fill="#fff"/></g><g transform="translate(446.72 137.51)"><path d="m0 0c0 1.405-0.274 2.809-0.743 3.785-0.701 1.365-1.677 1.989-3.082 1.989-1.287 0-2.183-0.39-2.847-1.248-0.741-1.054-1.209-2.692-1.209-4.526 0-1.327 0.312-2.809 0.779-3.745 0.664-1.366 1.639-1.99 3.199-1.99 1.172 0 2.069 0.39 2.694 1.248 0.779 0.976 1.209 2.732 1.209 4.487m-1.756 0c0-0.858-0.196-1.951-0.43-2.536-0.389-0.975-0.896-1.404-1.717-1.404-0.701 0-1.17 0.272-1.521 0.858-0.428 0.702-0.662 1.912-0.662 3.082 0 0.936 0.156 1.951 0.427 2.614 0.391 0.975 0.938 1.405 1.795 1.365 0.664-0.039 1.094-0.273 1.444-0.858 0.429-0.741 0.664-1.873 0.664-3.121" fill="#fff"/></g><g transform="translate(456.2 133.65)"><path d="m0 0c-0.586-1.092-1.912-1.873-3.277-1.873-1.367 0-2.694 0.781-3.278 1.873-0.312 0.663-0.507 1.443-0.507 2.302v7.139h1.755v-7.139c0-1.444 0.819-2.38 2.03-2.38 1.209 0 2.027 0.936 2.027 2.38v7.139h1.756v-7.139c0-0.859-0.195-1.639-0.506-2.302" fill="#fff"/></g><g transform="translate(466.89 131.97)"><path d="m0 0-1.952 5.189c1.014 0.468 1.717 1.639 1.717 2.809 0 1.131-0.703 2.302-1.678 2.77-0.546 0.273-1.13 0.351-1.99 0.351h-3.668v-11.119h1.756v4.838h2.107l1.795-4.838zm-1.991 7.998c0-0.468-0.273-0.936-0.703-1.17-0.271-0.157-0.467-0.196-1.014-0.196h-2.107v2.732h2.107c0.586 0 0.743-0.039 1.014-0.196 0.43-0.234 0.703-0.702 0.703-1.17" fill="#fff"/></g><path d="m468.72 143.09h1.794v-11.119h-1.794z" fill="#fff"/><g transform="translate(478.82 132.63)"><path d="m0 0c-0.625-0.546-1.482-0.858-2.418-0.858-1.912 0-3.316 1.131-4.059 2.809l1.678 0.624c0.469-1.053 1.326-1.638 2.381-1.638 1.014 0 1.715 0.702 1.715 1.638 0 1.483-1.715 1.717-3.16 2.302-0.662 0.273-2.145 0.937-2.145 2.77 0 2.185 1.483 3.004 3.473 3.004 1.56 0 2.613-0.897 3.16-2.263l-1.561-0.467s-0.39 0.936-1.638 0.975c-0.821 0.039-1.795-0.273-1.717-1.288 0.156-2.068 5.383-0.702 5.383-5.072 0-1.014-0.389-1.911-1.092-2.536" fill="#fff"/></g><g transform="translate(485.07 141.53)"><path d="m0 0v-9.559h-1.756v9.559h-2.537v1.561h6.867v-1.561z" fill="#fff"/></g><path d="m502.05 143.09h1.795v-11.119h-1.795z" fill="#fff"/><g transform="translate(512.47 131.97)"><path d="m0 0-4.251 7.53v-7.53h-1.756v11.119h1.756l4.056-7.101v7.101h1.756v-11.119z" fill="#fff"/></g><g transform="translate(518.4 141.33)"><path d="m0 0v-2.731h3.238v-1.795h-3.238v-4.838h-1.756v11.119h6.907v-1.755z" fill="#fff"/></g><g transform="translate(532.8 137.51)"><path d="m0 0c0 1.405-0.274 2.809-0.743 3.785-0.701 1.365-1.677 1.989-3.082 1.989-1.287 0-2.183-0.39-2.847-1.248-0.74-1.054-1.209-2.692-1.209-4.526 0-1.327 0.312-2.809 0.779-3.745 0.664-1.366 1.639-1.99 3.199-1.99 1.172 0 2.069 0.39 2.694 1.248 0.779 0.976 1.209 2.732 1.209 4.487m-1.756 0c0-0.858-0.196-1.951-0.43-2.536-0.389-0.975-0.896-1.404-1.717-1.404-0.701 0-1.17 0.272-1.521 0.858-0.428 0.702-0.662 1.912-0.662 3.082 0 0.936 0.156 1.951 0.427 2.614 0.391 0.975 0.938 1.405 1.795 1.365 0.664-0.039 1.094-0.273 1.444-0.858 0.429-0.741 0.664-1.873 0.664-3.121" fill="#fff"/></g><g transform="translate(459.41 113.31)"><path d="m0 0c-1.639 0-2.693 0.625-3.395 1.99-0.507 0.975-0.82 2.38-0.82 3.784 0 1.756 0.469 3.512 1.25 4.487 0.662 0.82 1.6 1.249 2.848 1.249 1.678 0 2.73-0.703 3.472-2.264l-1.638-0.702c-0.625 0.937-0.977 1.171-1.834 1.171-0.899 0-1.483-0.39-1.873-1.365-0.274-0.664-0.43-1.639-0.43-2.576 0-1.209 0.273-2.419 0.703-3.121 0.391-0.585 0.897-0.858 1.678-0.858 0.74 0 1.287 0.39 1.717 1.287l1.677-0.624c-0.664-1.639-1.755-2.458-3.355-2.458" fill="#fff"/></g><g transform="translate(465.14 113.5)"><path d="m0 0v11.119h6.555v-1.755h-4.799v-2.732h3.238v-1.794h-3.238v-3.043h5.151v-1.795z" fill="#fff"/></g><g transform="translate(479.89 113.5)"><path d="m0 0-4.254 7.53v-7.53h-1.753v11.119h1.753l4.059-7.101v7.101h1.756v-11.119z" fill="#fff"/></g><g transform="translate(487.38 123.06)"><path d="m0 0v-9.559h-1.756v9.559h-2.535v1.561h6.865v-1.561z" fill="#fff"/></g><g transform="translate(491.56 113.5)"><path d="m0 0v11.119h6.555v-1.755h-4.799v-2.732h3.239v-1.794h-3.239v-3.043h5.151v-1.795z" fill="#fff"/></g><g transform="translate(507.87 113.5)"><path d="m0 0-1.951 5.189c1.015 0.468 1.717 1.639 1.717 2.809 0 1.131-0.702 2.302-1.678 2.77-0.545 0.273-1.131 0.351-1.99 0.351h-3.666v-11.119h1.756v4.838h2.105l1.795-4.838zm-1.99 7.998c0-0.468-0.274-0.937-0.701-1.17-0.274-0.157-0.469-0.196-1.016-0.196h-2.105v2.732h2.105c0.586 0 0.742-0.039 1.016-0.196 0.427-0.233 0.701-0.702 0.701-1.17" fill="#fff"/></g><g transform="translate(444.11 95.501)"><path d="m0 0-4.209 7.455v-7.455h-1.738v11.01h1.738l4.016-7.031v7.031h1.738v-11.01z" fill="#fff" fill-rule="evenodd"/></g><g transform="translate(448.24 95.501)"><path d="m0 0v11.01h6.49v-1.739h-4.752v-2.704h3.205v-1.776h-3.205v-3.013h5.1v-1.778z" fill="#fff" fill-rule="evenodd"/></g><g transform="translate(461.64 95.501)"><path d="m0 0-1.775 3.67-1.777-3.67h-1.971l2.742 5.678-2.549 5.332h1.971l1.584-3.283 1.582 3.283h1.971l-2.588-5.332 2.781-5.678z" fill="#fff" fill-rule="evenodd"/></g><g transform="translate(468.71 104.96)"><path d="m0 0v-9.464h-1.739v9.464h-2.509v1.546h6.797v-1.546z" fill="#fff" fill-rule="evenodd"/></g><g transform="translate(492.45 95.501)"><path d="m0 0-1.932 5.139c1.006 0.463 1.702 1.621 1.702 2.779 0 1.121-0.696 2.28-1.662 2.744-0.541 0.269-1.12 0.348-1.969 0.348h-3.631v-11.01h1.738v4.791h2.084l1.778-4.791zm-1.969 7.918c0-0.463-0.271-0.925-0.695-1.158-0.271-0.154-0.465-0.193-1.006-0.193h-2.084v2.704h2.084c0.58 0 0.735-0.039 1.006-0.193 0.424-0.232 0.695-0.695 0.695-1.16" fill="#fff" fill-rule="evenodd"/></g><path d="m494.26 106.51h1.777v-11.01h-1.777z" fill="#fff" fill-rule="evenodd"/><g transform="translate(502.41 95.307)"><path d="m0 0c-1.66 0-2.627 0.619-3.283 2.01-0.463 0.965-0.733 2.316-0.733 3.668 0 1.777 0.502 3.515 1.235 4.482 0.658 0.81 1.584 1.235 2.82 1.235 1.699 0 2.703-0.695 3.438-2.434l-1.661-0.656c-0.464 0.966-0.927 1.314-1.777 1.314-0.889 0-1.467-0.387-1.853-1.351-0.272-0.659-0.426-1.663-0.426-2.59 0-1.158 0.193-2.317 0.541-3.012 0.347-0.617 0.849-0.889 1.506-0.889 1.121 0 1.931 0.696 1.931 1.7v0.464h-2.008v1.737h3.747v-2.201c0-2.008-1.467-3.477-3.477-3.477" fill="#fff" fill-rule="evenodd"/></g><g transform="translate(514 95.501)"><path d="m0 0v4.791h-4.018v-4.791h-1.738v11.01h1.738v-4.443h4.018v4.443h1.738v-11.01z" fill="#fff" fill-rule="evenodd"/></g><g transform="translate(521.61 104.96)"><path d="m0 0v-9.464h-1.738v9.464h-2.512v1.546h6.799v-1.546z" fill="#fff" fill-rule="evenodd"/></g></g><text transform="matrix(1 0 0 -1 150.77 55.004)" fill="#000000" font-family="Helvetica" font-size="9px"><tspan x="0 6.4980001 11.502 14.004 19.007999 21.059999 23.562 29.565001 31.563 34.064999 39.069 42.291 47.294998 52.299 54.800999 59.805 62.306999 64.305 69.308998 74.313004 79.317001 84.320999 89.324997 93.824997 96.327003 103.824 108.558 113.058 115.56 120.564 125.568 128.07001 132.57001 137.57401 142.578 147.078 149.58 151.578 154.08 159.084 161.586 166.59 171.59399 174.09599 176.328 181.332 184.32899 186.83099 189.33299 194.33701 199.341 201.39301 206.532 213.534 220.032 226.53 229.032 235.035 240.534 243.036 245.53799 252.036 257.535 264.53699 267.039 273.53699 279.54001 286.03799 291.53699 297.54001 304.03799 306.54001 308.53799 313.54199 318.54599 323.54999 328.55399 333.55801 336.06" y="0">Note: Alternate legends may be substituted for the TOURIST INFO CENTER legend, </tspan><tspan x="22.995001 27.495001 32.499001 36.999001 42.002998 44.505001 49.508999 54.008999 56.151001 64.647003 70.650002 75.653999 82.152 89.153999 96.651001 102.654 105.156 111.654 117.657 124.155 129.65401 135.657 142.155 144.657 149.661 154.66499 159.66901 162.17101 165.168 171.17101 173.673 178.677 181.179 186.183 188.685 195.183 200.187 207.68401 212.688 215.685 217.827 226.323 232.326 237.33 243.828 250.83 258.327 264.32999 266.832 273.32999 279.33301 285.83099 291.32999 297.33301 303.83099" y="9.9989996">such as WELCOME CENTER and (State Name) WELCOME CENTER.</tspan></text></g></svg>
