<?xml version="1.0" encoding="UTF-8"?>
<svg width="67.409mm" height="61.312mm" version="1.1" viewBox="0 0 67.409 61.312" xmlns="http://www.w3.org/2000/svg">
 <defs>
  <clipPath id="a">
   <path d="m365.92 501.29h209.58v236.21h-209.58z"/>
  </clipPath>
 </defs>
 <g transform="translate(-72.129 -123.83)">
  <g transform="matrix(.35278 0 0 -.35278 -60.222 366.67)">
   <g clip-path="url(#a)">
    <g transform="translate(388.63 514.82)">
     <path d="m0 0c-7.284 0-13.21 5.925-13.21 13.21v146.88c0 7.285 5.926 13.21 13.21 13.21h164.16c7.284 0 13.211-5.925 13.211-13.21v-146.88c0-7.285-5.927-13.21-13.211-13.21z" fill="#fff"/>
    </g>
    <g transform="translate(552.79 688.37)">
     <path d="m0 0h-164.16c-7.422 0-13.46-6.038-13.46-13.46v-146.88c0-7.422 6.038-13.46 13.46-13.46h164.16c7.422 0 13.461 6.038 13.461 13.46v146.88c0 7.422-6.039 13.46-13.461 13.46m0-0.5c7.129 0 12.961-5.832 12.961-12.96v-146.88c0-7.128-5.832-12.96-12.961-12.96h-164.16c-7.128 0-12.96 5.832-12.96 12.96v146.88c0 7.128 5.832 12.96 12.96 12.96h164.16"/>
    </g>
    <g transform="translate(388.63 517.95)">
     <path d="m0 0c-1.353 0-2.667 0.268-3.905 0.794-1.202 0.51-2.282 1.24-3.211 2.17-0.93 0.93-1.66 2.01-2.17 3.21-0.527 1.24-0.794 2.554-0.794 3.907v146.88c0 1.353 0.267 2.667 0.794 3.906 0.51 1.201 1.24 2.281 2.17 3.211 0.929 0.93 2.009 1.66 3.211 2.17 1.238 0.526 2.552 0.794 3.905 0.794h164.16c1.353 0 2.668-0.268 3.906-0.794 1.201-0.51 2.281-1.24 3.211-2.17 0.929-0.93 1.66-2.01 2.17-3.211 0.527-1.239 0.793-2.553 0.793-3.906v-146.88c0-1.353-0.266-2.667-0.793-3.907-0.51-1.2-1.241-2.28-2.17-3.21-0.93-0.93-2.01-1.66-3.211-2.17-1.238-0.526-2.553-0.794-3.906-0.794z" fill="#006f51"/>
    </g>
    <g transform="translate(415.4 566.89)">
     <path d="m0 0v19.297h3.774v-15.653h10.514v-3.644z" fill="#fff"/>
    </g>
    <g transform="translate(492.05 572.56)">
     <path d="m0 0c-1.152 0.405-2.507 0.607-3.254 0.607-1.218 0-2.168-0.674-2.168-1.551 0-0.878 1.153-1.62 2.508-1.62 0.815 0 1.83 0.135 2.914 0.742zm0-5.668v0.473c-1.355-0.54-2.642-0.675-3.728-0.675-3.117 0-5.356 1.957-5.356 4.723 0 2.901 2.51 5.06 5.83 5.06 0.815 0 2.102-0.135 3.254-0.54-0.066 1.35-1.084 1.89-2.507 1.89-1.356 0-2.643-0.338-4-1.08l-1.424 3.036c2.101 1.08 3.525 1.485 5.424 1.485 3.865 0 6.169-1.89 6.169-5.803v-8.569z" fill="#fff"/>
    </g>
    <g transform="translate(473.39 576.27)">
     <path d="m0 0c-0.543 0.944-1.559 1.349-2.508 1.349-1.561 0-2.78-1.619-2.78-3.643s1.219-3.644 2.847-3.644c0.882 0 1.898 0.405 2.441 1.35zm0-9.379v0.675c-0.678-0.607-2.033-0.877-3.12-0.877-3.253 0-6.033 3.374-6.033 7.287s2.78 7.287 6.102 7.287c1.018 0 2.239-0.271 3.051-0.945v4.655l3.594 1.485v-19.567z" fill="#fff"/>
    </g>
    <g transform="translate(519.78 577.82)">
     <path d="m0 0c-1.016 0-1.965-0.675-2.373-1.957h4.611c-0.543 1.417-1.152 1.957-2.238 1.957m-2.576-5.128c0.408-1.619 1.56-2.564 2.779-2.564 0.814 0 1.561 0.472 2.17 1.282l2.644-2.294c-1.423-1.687-2.916-2.429-4.814-2.429-3.592 0-6.711 3.171-6.711 7.287 0 4.048 3.051 7.287 6.508 7.287 2.305 0 4.406-1.417 5.424-3.644 0.543-1.282 0.814-2.631 0.814-4.385v-0.54z" fill="#fff"/>
    </g>
    <g transform="translate(435.83 582.68)">
     <path d="m0 0c-1.016 0-1.828 0.877-1.828 1.89 0 1.079 0.812 1.889 1.828 1.889 1.083 0 1.896-0.81 1.896-1.889 0-1.013-0.813-1.89-1.896-1.89m-1.896-1.754h3.859v-14.034h-3.859z" fill="#fff"/>
    </g>
    <g transform="translate(503.43 566.89)">
     <path d="m0 0v18.082l3.858 1.485v-19.567z" fill="#fff"/>
    </g>
    <g transform="translate(454.46 566.99)">
     <path d="m0 0v8.434c0 1.281-0.881 2.294-2.374 2.294-1.355 0-2.711-1.08-2.711-2.227v-8.501h-3.864v14.033h3.864v-0.742c1.288 0.81 2.508 1.08 3.796 1.08 2.916 0 5.086-2.024 5.086-4.723v-9.648z" fill="#fff"/>
    </g>
    <g transform="translate(429.73 651.86)">
     <path d="m0 0-8.499 12.347v-12.347h-3.809v19.296h3.809l8.023-11.807v11.807h3.808v-19.296z" fill="#fff"/>
    </g>
    <g transform="translate(444.39 662.79)">
     <path d="m0 0c-1.017 0-1.966-0.675-2.372-1.957h4.609c-0.542 1.417-1.152 1.957-2.237 1.957m-2.576-5.128c0.407-1.619 1.559-2.564 2.78-2.564 0.814 0 1.559 0.473 2.169 1.282l2.644-2.294c-1.423-1.687-2.915-2.429-4.813-2.429-3.594 0-6.712 3.172-6.712 7.287 0 4.048 3.051 7.287 6.508 7.287 2.306 0 4.407-1.417 5.424-3.644 0.542-1.281 0.813-2.631 0.813-4.385v-0.54z" fill="#fff"/>
    </g>
    <g transform="translate(520.2 651.96)">
     <path d="m0 0v8.434c0 1.282-0.881 2.294-2.373 2.294-1.356 0-2.711-1.08-2.711-2.226v-8.502h-3.865v14.034h3.865v-0.742c1.287 0.809 2.508 1.079 3.795 1.079 2.916 0 5.086-2.024 5.086-4.723v-9.648z" fill="#fff"/>
    </g>
    <g transform="translate(498.63 662.68)">
     <path d="m0 0c-1.488 0-2.638-1.619-2.638-3.711 0-2.024 1.15-3.643 2.638-3.643 1.422 0 2.709 1.619 2.709 3.643 0 2.092-1.287 3.711-2.709 3.711m0-10.998c-3.519 0-6.496 3.239-6.496 7.287 0 4.184 2.842 7.354 6.496 7.354 3.385 0 6.635-3.306 6.635-7.354s-3.182-7.287-6.635-7.287" fill="#fff"/>
    </g>
    <g transform="translate(484.11 662.62)">
     <path d="m0 0v-5.263c0-1.281 0.271-2.024 1.695-1.889 1.018 0.068 1.221 0.337 1.899 1.012l-1.018-3.98c-1.289-0.54-1.152-0.742-2.51-0.742-2.644 0-3.865 1.551-3.865 4.318v6.544h-2.646v3.306h2.646v4.116l3.799 1.484v-5.533h3.594v-3.373z" fill="#fff"/>
    </g>
    <g transform="translate(470.04 651.86)">
     <path d="m0 0h-3.736l-1.766 6.949-2.24-6.949h-3.736l-4.075 14.034h3.938l1.97-6.68 1.969 6.68h4.211l1.699-6.613 1.901 6.613h4.008z" fill="#fff"/>
    </g>
    <g transform="translate(395.95 619.47)">
     <path d="m0 0v14.4h10.547v-2.576h-7.91v-2.678h4.31v-2.627h-4.31v-3.942h8.164v-2.577z" fill="#fff"/>
    </g>
    <path d="m424.18 633.87h2.592v-14.4h-2.592z" fill="#fff"/>
    <g transform="translate(435.88 631.34)">
     <path d="m0 0v-11.874h-2.523v11.874h-4.139v2.526h10.8v-2.526z" fill="#fff"/>
    </g>
    <g transform="translate(418.26 619.47)">
     <path d="m0 0-3.248 5.104-3.197-5.104h-3.045l4.719 7.58-4.313 6.82h3.096l2.74-4.396 2.74 4.396h3.096l-4.263-6.82 4.72-7.58z" fill="#fff"/>
    </g>
    <g transform="translate(534.48 632.09)">
     <path d="m0 0-3.031-7.276h6.06zm6.818-16.219-2.121 5.078h-9.394l-2.123-5.078h-4.243l9.092 21.6h3.94l9.017-21.6z" fill="#fff"/>
    </g>
    <g transform="translate(464.33 615.87)">
     <path d="m0 0 0.076 16.143h-2.713l-0.074 3.108c1.656 0.379 2.561 0.985 3.391 2.35h3.088v-21.601z" fill="#fff"/>
    </g>
    <g transform="translate(501.86 615.49)">
     <path d="m0 0c-2.664 0-5.328 0.91-7.233 2.653-0.531 0.455-0.912 0.834-1.673 1.743l3.121 2.35c1.521-1.971 3.502-2.805 6.013-2.805 2.664 0 4.491 1.213 4.491 3.032 0 1.061-0.686 2.274-1.674 2.804-0.61 0.304-1.295 0.455-2.133 0.455h-1.064v3.865h0.912c1.675 0 2.892 0.91 2.892 2.122 0 1.289-1.521 2.274-3.804 2.274-1.829 0-3.502-0.758-4.795-2.122l-2.893 2.652c2.131 2.199 4.795 3.335 7.916 3.335 4.338 0 7.535-2.576 7.535-6.063 0-1.44-0.457-2.425-1.75-4.092 2.131-1.895 2.739-3.032 2.739-5.078 0-4.017-3.729-7.125-8.6-7.125" fill="#fff"/>
    </g>
    <g transform="translate(481.33 615.49)">
     <path d="m0 0c-2.664 0-5.328 0.91-7.231 2.653-0.533 0.455-0.914 0.834-1.676 1.743l3.122 2.35c1.523-1.971 3.501-2.805 6.013-2.805 2.664 0 4.49 1.213 4.49 3.032 0 1.061-0.685 2.274-1.673 2.804-0.61 0.304-1.295 0.455-2.131 0.455h-1.067v3.865h0.914c1.674 0 2.893 0.91 2.893 2.122 0 1.289-1.523 2.274-3.807 2.274-1.826 0-3.502-0.758-4.795-2.122l-2.892 2.652c2.131 2.199 4.795 3.335 7.916 3.335 4.338 0 7.535-2.576 7.535-6.063 0-1.44-0.457-2.425-1.75-4.092 2.131-1.895 2.74-3.032 2.74-5.078 0-4.017-3.73-7.125-8.601-7.125" fill="#fff"/>
    </g>
    <g transform="translate(398.22 534.51)">
     <path d="m0 0v14.399h10.546v-2.576h-7.909v-2.678h4.309v-2.628h-4.309v-3.941h8.163v-2.576z" fill="#fff"/>
    </g>
    <path d="m426.45 548.91h2.593v-14.399h-2.593z" fill="#fff"/>
    <g transform="translate(438.15 546.38)">
     <path d="m0 0v-11.873h-2.524v11.873h-4.138v2.526h10.801v-2.526z" fill="#fff"/>
    </g>
    <g transform="translate(420.53 534.51)">
     <path d="m0 0-3.248 5.103-3.197-5.103h-3.045l4.719 7.578-4.313 6.821h3.096l2.74-4.396 2.741 4.396h3.096l-4.264-6.821 4.72-7.578z" fill="#fff"/>
    </g>
    <g transform="translate(535.81 540.46)">
     <path d="m0 0h-6.166v-5.684h6.166c2.055 0 3.5 1.136 3.5 2.728 0 1.667-1.521 2.956-3.5 2.956m0 8.185h-6.166v-4.32h6.166c1.674 0 2.816 0.91 2.816 2.198s-1.066 2.122-2.816 2.122m4.109-16.825c-1.064-0.606-2.207-0.91-3.347-0.91h-10.885v21.601h10.123c1.902 0 2.588-0.152 3.729-0.759 1.828-1.061 2.968-2.88 2.968-4.926 0-1.743-0.683-3.259-2.131-4.472 1.903-1.363 2.817-3.031 2.817-5.077 0-2.198-1.293-4.396-3.274-5.457" fill="#fff"/>
    </g>
    <g transform="translate(466.6 530.91)">
     <path d="m0 0 0.076 16.143h-2.713l-0.076 3.108c1.658 0.379 2.563 0.985 3.391 2.35h3.09v-21.601z" fill="#fff"/>
    </g>
    <g transform="translate(504.13 530.53)">
     <path d="m0 0c-2.664 0-5.328 0.909-7.23 2.652-0.533 0.455-0.914 0.834-1.674 1.743l3.119 2.35c1.524-1.971 3.502-2.805 6.014-2.805 2.664 0 4.492 1.213 4.492 3.032 0 1.061-0.685 2.274-1.676 2.804-0.609 0.304-1.293 0.455-2.13 0.455h-1.067v3.865h0.914c1.674 0 2.893 0.91 2.893 2.122 0 1.289-1.522 2.274-3.807 2.274-1.826 0-3.5-0.758-4.795-2.122l-2.892 2.652c2.13 2.199 4.795 3.335 7.916 3.335 4.339 0 7.535-2.577 7.535-6.063 0-1.44-0.455-2.425-1.75-4.092 2.131-1.895 2.74-3.032 2.74-5.078 0-4.017-3.73-7.124-8.602-7.124" fill="#fff"/>
    </g>
    <g transform="translate(483.6 530.53)">
     <path d="m0 0c-2.664 0-5.328 0.909-7.232 2.652-0.533 0.455-0.912 0.834-1.674 1.743l3.121 2.35c1.521-1.971 3.5-2.805 6.012-2.805 2.664 0 4.492 1.213 4.492 3.032 0 1.061-0.686 2.274-1.676 2.804-0.607 0.304-1.293 0.455-2.131 0.455h-1.064v3.865h0.912c1.676 0 2.892 0.91 2.892 2.122 0 1.289-1.521 2.274-3.804 2.274-1.828 0-3.502-0.758-4.797-2.122l-2.893 2.652c2.133 2.199 4.797 3.335 7.918 3.335 4.338 0 7.535-2.577 7.535-6.063 0-1.44-0.457-2.425-1.751-4.092 2.132-1.895 2.74-3.032 2.74-5.078 0-4.017-3.729-7.124-8.6-7.124" fill="#fff"/>
    </g>
    <path d="m564.26 600.03h-187.09v2.879h187.09z" fill="#fff"/>
   </g>
  </g>
 </g>
</svg>
