<?xml version="1.0" encoding="UTF-8"?>
<svg width="547.88" height="761.54" version="1.1" viewBox="0 0 547.88 761.54" xml:space="preserve" xmlns="http://www.w3.org/2000/svg"><defs><clipPath id="d"><path d="m0 792h612v-792h-612z"/></clipPath><clipPath id="c"><path d="m63 45h513v693h-513z"/></clipPath><clipPath id="b"><path d="m63 45h513v693h-513z"/></clipPath><clipPath id="a"><path d="m63 45h513v693h-513z"/></clipPath></defs><g transform="matrix(1.3333 0 0 -1.3333 -152.61 954.51)"><g clip-path="url(#d)"/><text transform="matrix(1 0 0 -1 113.77 175.57)" fill="#000000" font-family="Helvetica" font-size="9px"><tspan x="0 6.4980001 11.502 14.004 19.007999 21.059999 23.562 29.565001 34.569 39.573002 42.075001 47.574001 49.571999 54.576 59.580002 62.577 67.581001 70.083 75.086998 81.584999 84.582001 89.585999 94.589996 97.092003 99.323997 104.328 107.325 109.827 114.561 119.061 124.065 131.562 136.56599 138.564 143.56799 148.06799" y="0">Note: See Figure 2D-15 for examples </tspan><tspan x="23.993999 28.997999 31.5 34.001999 41.499001 46.502998 48.500999 51.002998 53.000999 55.998001 57.995998 63 68.003998 73.008003 75.510002 80.010002 83.007004 88.011002 92.511002 97.011002 100.008 105.012 110.016 115.02 117.522 122.022 124.02 129.024 134.028 136.026 141.03 146.034" y="9.5039997">of multi-lane crossroad signing </tspan><tspan x="23.993999 26.226 31.23 34.227001 36.729 41.733002 44.235001 48.735001 50.733002 55.602001 59.876999 64.880997 68.013 70.011002 75.014999 80.018997 82.521004 85.023003 87.021004 92.025002 94.527 99.530998 102.528 107.028 112.032 117.036 122.04 127.044" y="19.007999">for a cloverleaf interchange</tspan></text><g clip-path="url(#c)"><g transform="translate(219.54 498.44)" fill="none"><path d="m0 0h104.48m-97.994-6.491 115.72 0.011m-120.5 6.48c10.22-0.868 21.676 4.117 28.828 11.139 3.481 3.418 6.147 7.482 8.801 11.545 2.538 3.885 5.157 9.528 8.653 12.588 8.69 7.606 20.752 9.005 28.863 17.741 6.138 6.613 9.604 16.899 9.604 25.895m-0.084-170.42c0.868 10.213-4.118 21.659-11.141 28.811-3.408 3.481-7.469 6.146-11.533 8.802-3.885 2.538-9.528 5.155-12.588 8.653-7.607 8.69-9.005 20.752-17.741 28.862-6.613 6.138-16.899 9.888-25.894 9.888m59.725 6.491c-10.02 2.9-19.785 7.942-19.325 19.97 0.194 5.062 3.126 9.715 7.018 12.813 5.066 4.034 14.521 4.291 19.756 0.831 6.984-4.616 10.324-14.678 11.807-22.513m-8e-3 -37.206c-2.901-10.021-7.943-19.786-19.961-19.326-5.062 0.195-9.715 3.126-12.813 7.018-4.034 5.066-4.291 14.521-0.831 19.757 4.616 6.983 14.678 10.323 22.504 11.805m-147.87 6.851h74.234m-74.234-6.491h79.016m79.967 85.399v124.2m9.772-118.28c-0.868-10.219 4.117-21.676 11.14-28.827 3.418-3.481 7.48-6.147 11.544-8.802 3.884-2.538 9.528-5.156 12.587-8.653 7.608-8.69 9.005-20.752 17.742-28.862 6.613-6.138 16.899-9.604 25.894-9.604m-78.94 78.834v124.2m-9.739-124.2v-79.072m9.36 79.848v-79.848m0.715 19.644c2.9 10.02 7.942 19.785 19.969 19.325 5.063-0.194 9.716-3.126 12.815-7.018 4.033-5.066 4.29-14.521 0.83-19.757-4.616-6.983-14.678-10.323-22.514-11.805m-21.142-7.166-0.033-81.811m8.306 81.811 0.951-80.193m6.967 87.134h81.636m6.481-6.48h-74.235m64.662-0.072c-10.22 0.868-21.676-4.188-28.827-11.21-3.481-3.418-6.148-7.481-8.803-11.545-2.537-3.884-5.155-9.527-8.653-12.588-8.69-7.607-20.751-9.004-28.861-17.74-6.138-6.614-10.397-16.891-10.397-25.886m84.215 85.521h71.639m-71.639-6.552 71.639 0.072m-137.13-0.483c10.02-2.901 19.785-7.942 19.325-19.97-0.194-5.063-3.125-9.716-7.018-12.814-5.066-4.033-14.521-4.291-19.757-0.831-6.983 4.617-10.323 14.679-11.805 22.514m-8.696-69.015v-244.19m9.257 244.13 0.482-244.13" stroke="#000" stroke-width="2.5"/><path d="m0 0h104.48m-97.994-6.491 115.72 0.011m-120.5 6.48c10.22-0.868 21.676 4.117 28.828 11.139 3.481 3.418 6.147 7.482 8.801 11.545 2.538 3.885 5.157 9.528 8.653 12.588 8.69 7.606 20.752 9.005 28.863 17.741 6.138 6.613 9.604 16.899 9.604 25.895m-0.084-170.42c0.868 10.213-4.118 21.659-11.141 28.811-3.408 3.481-7.469 6.146-11.533 8.802-3.885 2.538-9.528 5.155-12.588 8.653-7.607 8.69-9.005 20.752-17.741 28.862-6.613 6.138-16.899 9.888-25.894 9.888m59.725 6.491c-10.02 2.9-19.785 7.942-19.325 19.97 0.194 5.062 3.126 9.715 7.018 12.813 5.066 4.034 14.521 4.291 19.756 0.831 6.984-4.616 10.324-14.678 11.807-22.513m-8e-3 -37.206c-2.901-10.021-7.943-19.786-19.961-19.326-5.062 0.195-9.715 3.126-12.813 7.018-4.034 5.066-4.291 14.521-0.831 19.757 4.616 6.983 14.678 10.323 22.504 11.805m-147.87 6.851h74.234m-74.234-6.491h79.016m79.967 85.399v125.2m9.772-119.28c-0.868-10.219 4.117-21.676 11.14-28.827 3.418-3.481 7.48-6.147 11.544-8.802 3.884-2.538 9.528-5.156 12.587-8.653 7.608-8.69 9.005-20.752 17.742-28.862 6.613-6.138 16.899-9.604 25.894-9.604m-78.94 78.834v125.2m-9.739-125.2v-79.072m9.36 79.848v-79.848m0.715 19.644c2.9 10.02 7.942 19.785 19.969 19.325 5.063-0.194 9.716-3.126 12.815-7.018 4.033-5.066 4.29-14.521 0.83-19.757-4.616-6.983-14.678-10.323-22.514-11.805m-21.142-7.166-0.033-81.811m8.306 81.811 0.951-80.193m6.967 87.134h81.636m6.481-6.48h-74.235m64.662-0.072c-10.22 0.868-21.676-4.188-28.827-11.21-3.481-3.418-6.148-7.481-8.803-11.545-2.537-3.884-5.155-9.527-8.653-12.588-8.69-7.607-20.751-9.004-28.861-17.74-6.138-6.614-10.397-16.891-10.397-25.886m84.215 85.521h71.639m-71.639-6.552 71.639 0.072m-137.13-0.483c10.02-2.901 19.785-7.942 19.325-19.97-0.194-5.063-3.125-9.716-7.018-12.814-5.066-4.033-14.521-4.291-19.757-0.831-6.983 4.617-10.323 14.679-11.805 22.514m-8.696-69.015v-245.19m9.257 245.13 0.482-245.13" stroke="#fff" stroke-width="1.5"/></g><g transform="translate(349.18 605.71)"><path d="m0 0c-6.015 1.223-10.381 6.575-10.381 12.726 0 2.896 1.011 5.828 2.774 8.045l0.052 0.066 0.081-0.024c1.156-0.354 2.517-0.557 3.736-0.557 1.226 0 2.586 0.2 3.729 0.547 1.218-0.347 2.577-0.547 3.804-0.547 1.221 0 2.582 0.203 3.737 0.557l0.081 0.024 0.053-0.066c1.763-2.222 2.774-5.154 2.774-8.045 0-6.15-4.37-11.502-10.389-12.726l-0.026-5e-3z" fill="#fff" fill-rule="evenodd"/></g><g transform="translate(356.83 626.69)"><path d="m0 0-0.163-0.05c-1.143-0.35-2.492-0.551-3.7-0.551-1.214 0-2.562 0.198-3.695 0.541l-0.073 0.022-0.072-0.022c-1.133-0.343-2.478-0.541-3.693-0.541-1.207 0-2.555 0.201-3.698 0.551l-0.164 0.05-0.105-0.133c-1.78-2.239-2.801-5.2-2.801-8.123 0-6.21 4.408-11.613 10.482-12.849l0.049-9e-3 0.05 9e-3c6.078 1.237 10.49 6.64 10.49 12.849 0 2.919-1.021 5.879-2.8 8.122zm-0.09-0.289c1.754-2.211 2.747-5.104 2.747-7.967 0-6.077-4.364-11.398-10.29-12.603-5.925 1.205-10.281 6.526-10.281 12.603 0 2.863 0.988 5.756 2.746 7.967 1.159-0.355 2.518-0.562 3.772-0.562 1.258 0 2.611 0.202 3.765 0.552 1.157-0.35 2.512-0.552 3.768-0.552s2.615 0.207 3.773 0.562"/></g><g transform="translate(343.05 609.98)"><path d="m0 0-0.344 0.375-0.332 0.387-0.313 0.4-0.297 0.414-0.281 0.426-0.261 0.439-0.244 0.452-0.225 0.458-0.207 0.467-0.184 0.479-0.165 0.488-0.149 0.494-0.124 0.504-0.102 0.51-0.082 0.516-0.055 0.521-0.035 0.525-0.013 0.538 2e-3 0.248 0.011 0.253 0.01 0.25 0.018 0.254 0.024 0.25 0.031 0.252 0.034 0.25 0.038 0.25 0.047 0.248 0.048 0.248 0.057 0.25 0.089 0.35h18.328l0.076-0.35 0.054-0.25 0.051-0.248 0.049-0.248 0.037-0.25 0.036-0.25 0.028-0.252 0.024-0.25 0.018-0.254 0.016-0.25 7e-3 -0.253 2e-3 -0.248-0.012-0.538-0.036-0.525-0.055-0.52-0.084-0.517-0.104-0.51-0.124-0.504-0.145-0.494-0.165-0.488-0.188-0.479-0.208-0.467-0.225-0.458-0.242-0.45-0.263-0.441-0.28-0.426-0.298-0.414-0.311-0.4-0.332-0.387-0.347-0.375-0.362-0.359-0.376-0.344-0.391-0.324-0.406-0.315-0.416-0.297-0.434-0.273-0.442-0.262-0.456-0.244-0.464-0.217-0.478-0.201-0.487-0.186-0.498-0.158-0.508-0.14-0.435-0.098-0.436 0.098-0.506 0.14-0.497 0.158-0.49 0.186-0.474 0.201-0.468 0.217-0.456 0.244-0.441 0.262-0.431 0.273-0.416 0.297-0.407 0.313-0.391 0.326-0.376 0.344z" fill="#005596" fill-rule="evenodd"/></g><g transform="translate(340.17 621.89)"><path d="m0 0 0.059 0.207 0.081 0.24 0.085 0.237 0.089 0.238 0.094 0.234 0.099 0.231 0.103 0.23 0.111 0.229 0.111 0.224 0.116 0.221 0.122 0.219 0.127 0.215 0.129 0.214 0.137 0.211 0.14 0.207 0.142 0.202 0.131 0.173c0.284-0.076 0.57-0.146 0.862-0.207 0.156-0.029 0.318-0.06 0.474-0.087 0.2-0.034 0.4-0.061 0.602-0.086 0.161-0.024 0.322-0.038 0.485-0.051 0.162-0.014 0.322-0.026 0.483-0.033 0.159-0.01 0.32-0.016 0.48-0.016 0.158-2e-3 0.317 0 0.476 4e-3 0.162 6e-3 0.321 0.014 0.481 0.025 0.161 0.01 0.322 0.026 0.482 0.041 0.163 0.018 0.324 0.035 0.486 0.055 0.158 0.023 0.319 0.051 0.48 0.078 0.156 0.027 0.313 0.057 0.473 0.092 0.113 0.023 0.228 0.049 0.346 0.076 0.185 0.045 0.367 0.096 0.549 0.149 0.184-0.053 0.368-0.104 0.555-0.149 0.154-0.037 0.308-0.07 0.464-0.103 0.158-0.03 0.314-0.061 0.475-0.086 0.16-0.028 0.319-0.051 0.48-0.073 0.2-0.021 0.401-0.045 0.604-0.064 0.16-0.01 0.324-0.022 0.483-0.031 0.16-8e-3 0.316-0.014 0.477-0.014 0.16-2e-3 0.32 0 0.479 4e-3 0.161 6e-3 0.32 0.014 0.48 0.027 0.165 8e-3 0.324 0.024 0.487 0.039 0.159 0.018 0.322 0.037 0.483 0.061 0.159 0.023 0.321 0.051 0.48 0.076 0.195 0.033 0.392 0.076 0.59 0.117 0.21 0.047 0.418 0.096 0.626 0.156l0.129-0.173 0.144-0.202 0.141-0.207 0.134-0.211 0.131-0.214 0.128-0.215 0.121-0.219 0.115-0.221 0.113-0.224 0.11-0.229 0.103-0.23 0.099-0.231 0.095-0.234 0.089-0.238 0.084-0.237 0.081-0.24 0.061-0.207z" fill="#c0311a" fill-rule="evenodd"/></g><g transform="translate(344.89 610.83)"><path d="m0 0c-0.736 0-1.473 0.176-2.063 0.471l0.649 1.179c0.353-0.177 0.972-0.295 1.591-0.295 1.209 0 2.151 0.796 2.151 1.886 0 0.825-0.678 1.474-1.503 1.474-0.589 0-0.854-0.177-1.355-0.885l-1.326 0.384 0.206 4.331h4.832v-1.326h-3.536l-0.088-1.385c0.619 0.177 0.884 0.236 1.296 0.236 1.533 0 2.8-1.297 2.8-2.829 0-1.856-1.532-3.241-3.654-3.241" fill="#fff"/></g><g transform="translate(349.61 610.97)"><path d="m0 0c0.029 0.972 0.235 1.768 0.707 2.564 0.353 0.648 0.884 1.178 1.473 1.62 0.148 0.089 0.265 0.177 0.383 0.265l0.443 0.236 0.412 0.236 0.413 0.235c0.323 0.207 0.559 0.56 0.559 0.914 0 0.619-0.707 1.12-1.532 1.12-0.854 0-1.385-0.413-1.532-1.179l-1.326 0.295c0.295 1.385 1.384 2.239 2.858 2.239 1.591 0 2.858-1.12 2.858-2.504 0-0.649-0.294-1.297-0.854-1.798-0.118-0.088-0.236-0.176-0.354-0.236l-0.413-0.265-0.441-0.236-0.413-0.235c-0.796-0.472-1.237-0.973-1.65-1.915h4.125v-1.356z" fill="#fff"/></g><g stroke="#000" stroke-width="1.049"><path d="m312.2 649.16h-3.089v3.774h3.089z"/><path d="m312.2 702.1h-3.089v3.774h3.089z"/><path d="m311.58 180.96h-3.089v3.775h3.089z"/><path d="m311.58 285.36h-3.089v3.774h3.089z"/><path d="m311.58 458.09h-3.089v3.774h3.089z"/></g><g transform="translate(340.99 637.97)"><path d="m0 0c-0.993 0-1.831-0.819-1.831-1.785v-6.846c0-0.986 0.82-1.786 1.831-1.786h16.893c1.008 0 1.828 0.8 1.828 1.786v6.846c0 0.983-0.82 1.785-1.828 1.785h-16.893" fill="none" stroke="#000" stroke-width=".25"/></g><g transform="translate(357.71 637.23)"><path d="m0 0c0.606-0.016 1.113-0.446 1.164-1.06v-6.76c-0.015-0.614-0.493-1.076-1.097-1.121l-16.617-3e-3c-0.602 0.013-1.114 0.446-1.164 1.061l-1e-3 6.76c0.017 0.614 0.496 1.076 1.099 1.121l16.616 2e-3" fill="#005596" fill-rule="evenodd"/></g><g transform="translate(343.37 630.21)"><path d="m0 0v5.664h2.663v-0.795h-1.848v-1.431h1.173v-0.775h-1.173v-1.868h2.067v-0.795z" fill="#fff"/></g><g transform="translate(349.82 630.21)"><path d="m0 0-1.274 5.113h-0.718l-1.274-5.113h0.736l0.341 1.399h1.094l0.359-1.399zm-1.274 2.117h-0.736l0.359 1.471z" fill="#fff"/></g><g transform="translate(351.53 630.12)"><path d="m0 0c-0.897 0-1.436 0.754-1.436 1.597h0.718c0-0.43 0.216-0.879 0.718-0.879 0.394 0 0.717 0.359 0.717 0.771 0 0.288-0.107 0.503-0.413 0.736-0.107 0.108 0.18-0.09-0.86 0.61-0.413 0.287-0.628 0.682-0.628 1.131 0 0.735 0.573 1.327 1.31 1.327 0.717 0 1.273-0.556 1.291-1.327h-0.7c-0.017 0.358-0.269 0.591-0.591 0.591-0.341 0-0.611-0.251-0.611-0.591 0-0.252 0.108-0.395 0.485-0.611 0.987-0.574 1.417-1.13 1.417-1.866 0-0.825-0.628-1.489-1.417-1.489" fill="#fff"/></g><g transform="translate(354.9 634.64)"><path d="m0 0v-4.432h-0.736v4.432h-0.933v0.681h2.601v-0.681z" fill="#fff"/></g><g transform="translate(355.58 622.31)"><path d="m0 0v0.293h-0.76v0.686h0.433v0.283h-0.433v0.523h0.681v0.291h-0.978v-2.076zm-1.34 1.803v0.273h-1.059v-0.273h0.379v-1.803h0.3v1.803zm-1.701-0.942h-0.296l0.145 0.6zm0.518-0.861-0.518 2.076h-0.291l-0.519-2.076h0.3l0.139 0.568h0.445l0.145-0.568zm-1.451 1.803v0.273h-1.057v-0.273h0.378v-1.803h0.299v1.803zm-1.246-1.235c0 0.299-0.176 0.524-0.579 0.76-0.152 0.088-0.197 0.145-0.197 0.248 0 0.135 0.111 0.238 0.248 0.238 0.131 0 0.233-0.091 0.243-0.238h0.285c-8e-3 0.315-0.236 0.539-0.528 0.539-0.297 0-0.531-0.24-0.531-0.539 0-0.183 0.086-0.344 0.254-0.459 0.425-0.287 0.309-0.205 0.354-0.25 0.12-0.094 0.166-0.179 0.166-0.299 0-0.166-0.136-0.312-0.294-0.312-0.204 0-0.292 0.183-0.292 0.355h-0.29c0-0.343 0.217-0.65 0.582-0.65 0.32 0 0.579 0.273 0.579 0.607m-1.694 0.957c0-0.168-0.094-0.263-0.269-0.263h-0.309v0.523h0.309c0.161 0 0.269-0.099 0.269-0.26m0.291-1.525-0.298 1.02c0.198 0.072 0.298 0.257 0.298 0.505 0 0.336-0.216 0.551-0.546 0.551h-0.623v-2.076h0.3v0.979h0.286l0.28-0.979zm-1.518 0v0.293h-0.758v0.686h0.432v0.283h-0.432v0.523h0.681v0.291h-0.98v-2.076zm-1.341 1.803v0.273h-1.058v-0.273h0.379v-1.803h0.3v1.803zm-1.342-1.803v2.076h-0.299v-1.246l-0.569 1.246h-0.3v-2.076h0.3v1.393l0.643-1.393zm-1.621 2.076h-0.289v-2.076h0.289z" fill="#fff" fill-rule="evenodd"/></g></g><text transform="matrix(1 0 0 -1 303.24 157.69)" fill="#000000" font-family="Helvetica" font-size="9px"><tspan x="0 2.5020001 5.4990001 10.503" y="0">I-52</tspan><tspan x="175.86 181.998 184.5 190.323 192.29401 194.79601 199.8 -189.468 -183.33 -180.828 -175.005 -173.034 -170.532 -165.528" y="-335.349">U.S. 65U.S. 65</tspan><tspan x="-0.198 2.3039999 5.3010001 10.305" y="-551.71802">I-52</tspan></text><g clip-path="url(#b)"><g transform="translate(322.95 694.06)"><path d="m0 0c0-10.617 0.484-30.621 30.625-30.621" fill="none" stroke="#000" stroke-width=".75"/></g><g transform="translate(322.41 695.3)"><path d="m0 0c-0.262-0.868-0.504-1.432-0.783-2.129h2.649c-0.119 0.25-0.522 1.261-0.784 2.129-0.28 0.929-0.472 1.771-0.541 2.318-0.068-0.547-0.26-1.389-0.541-2.318"/></g><g transform="translate(325.27 699.38)"><path d="m0 0v1.245h-4.796v-1.245h-1.759v-1.761h8.474v1.761h-0.96z"/></g><g transform="translate(321.07 532.28)"><path d="m0 0c0-31.879 42.189-0.889 42.189 24.572" fill="none" stroke="#000" stroke-width=".75"/></g><g transform="translate(320.53 533.52)"><path d="m0 0c-0.262-0.867-0.503-1.432-0.783-2.128h2.649c-0.118 0.25-0.522 1.261-0.784 2.128-0.28 0.93-0.472 1.772-0.541 2.318-0.068-0.546-0.26-1.388-0.541-2.318"/></g><g transform="translate(323.39 537.6)"><path d="m0 0v1.245h-4.796v-1.245h-1.759v-1.761h8.474v1.761h-0.96z"/></g><g transform="translate(322.95 617.76)"><path d="m0 0c0-10.617 4.24-8.566 16.907-8.566" fill="none" stroke="#000" stroke-width=".75"/></g><g transform="translate(322.41 619)"><path d="m0 0c-0.262-0.867-0.504-1.432-0.783-2.128h2.649c-0.119 0.25-0.522 1.261-0.784 2.128-0.28 0.93-0.472 1.772-0.541 2.318-0.068-0.546-0.26-1.388-0.541-2.318"/></g><g transform="translate(325.27 623.08)"><path d="m0 0v1.245h-4.796v-1.245h-1.759v-1.761h8.474v1.761h-0.96z"/></g><g transform="translate(322.95 274.56)"><path d="m0 0c0-29.039 16.826-30.272 30.546-30.272" fill="none" stroke="#000" stroke-width=".75"/></g><g transform="translate(322.41 275.8)"><path d="m0 0c-0.262-0.868-0.504-1.432-0.783-2.129h2.649c-0.119 0.249-0.522 1.261-0.784 2.129-0.28 0.929-0.472 1.772-0.541 2.318-0.068-0.546-0.26-1.389-0.541-2.318"/></g><g transform="translate(325.27 279.88)"><path d="m0 0v1.246h-4.796v-1.246h-1.759v-1.76h8.474v1.76h-0.96z"/></g><g transform="translate(322.95 176.37)"><path d="m0 0c3e-3 -19.978 15.274-20.412 30.547-20.412" fill="none" stroke="#000" stroke-width=".75"/></g><g transform="translate(322.41 177.61)"><path d="m0 0c-0.262-0.868-0.504-1.433-0.783-2.129h2.649c-0.119 0.249-0.522 1.261-0.784 2.129-0.28 0.928-0.472 1.771-0.541 2.317-0.068-0.546-0.26-1.389-0.541-2.317"/></g><g transform="translate(325.27 181.69)"><path d="m0 0v1.245h-4.796v-1.245h-1.759v-1.761h8.474v1.761h-0.96z"/></g><g transform="translate(314.39 484.11)"><path d="m0 0c0-40.769 102.56-37.225 127.44-37.225" fill="none" stroke="#000" stroke-width=".75"/></g><g transform="translate(313.85 485.35)"><path d="m0 0c-0.263-0.868-0.504-1.432-0.783-2.129h2.648c-0.118 0.25-0.521 1.261-0.783 2.129-0.28 0.929-0.473 1.771-0.541 2.318-0.068-0.547-0.261-1.389-0.541-2.318"/></g><g transform="translate(316.71 489.42)"><path d="m0 0h-6.554v-1.76h8.473v1.76h-0.96z"/></g><g transform="translate(319.41 432.99)"><path d="m0 0c0-14.457 17.801-11.363 34.078-11.363" fill="none" stroke="#000" stroke-width=".75"/></g><g transform="translate(318.87 434.23)"><path d="m0 0c-0.262-0.868-0.504-1.433-0.783-2.129h2.649c-0.119 0.25-0.522 1.261-0.784 2.129-0.28 0.929-0.472 1.771-0.541 2.317-0.068-0.546-0.26-1.388-0.541-2.317"/></g><g transform="translate(321.73 438.31)"><path d="m0 0v1.245h-4.796v-1.245h-1.759v-1.761h8.474v1.761h-0.96z"/></g><g transform="translate(323.27 416.58)"><path d="m0 0h-13.282" fill="none" stroke="#000" stroke-width="1.015"/></g><g transform="translate(322.17 416.64)"><path d="m0 0c0-0.498 0.417-0.902 0.93-0.902s0.93 0.404 0.93 0.902c0 0.499-0.417 0.902-0.93 0.902s-0.93-0.403-0.93-0.902"/><path d="m0 0c0-0.498 0.417-0.902 0.93-0.902s0.93 0.404 0.93 0.902c0 0.499-0.417 0.902-0.93 0.902s-0.93-0.403-0.93-0.902z" fill="none" stroke="#000" stroke-width="1.015"/></g><g transform="translate(317.55 416.2)"><path d="m0 0v0.622h-4.796v-0.622h-1.759v-1.761h8.474v1.761h-0.96z"/></g><g transform="translate(315.23 410.4)"><path d="m0 0c0-10.617 8.421-46.063 38.259-46.063" fill="none" stroke="#000" stroke-width=".75"/></g><g transform="translate(314.69 412.12)"><path d="M 0,0 C -0.263,-0.868 -0.504,-1.433 -0.784,-2.129 H 1.865 C 1.747,-1.88 1.343,-0.868 1.082,0 0.801,0.928 0.609,1.771 0.541,2.317 0.472,1.771 0.28,0.928 0,0"/></g><g transform="translate(226.89 643.34)"><path d="m0 0h-78.92l21.214-3.111 3.677 0.282-1.979 2.263" stroke="#000"/></g><g transform="translate(179.34 646.44)"><path d="m0 0v2.665h22.176v-3.09l-17.914-10.348v-0.056h17.914v-2.665h-22.176v3.259l17.912 10.177v0.058z"/></g></g><text transform="matrix(1 0 0 -1 286.45 700.47)" fill="#000000" font-family="Helvetica" font-size="9px"><tspan x="0 5.0040002 10.008 15.012" y="0">104 </tspan><tspan x="0 5.0040002 10.008 15.012" y="53.478001">103 </tspan><tspan x="0 5.0040002 10.008 15.012" y="256.14899">102 </tspan><tspan x="0 5.0040002 10.008 15.012" y="417.11401">101 </tspan><tspan x="0 5.0040002 10.008 15.012" y="520.85699">100 </tspan></text><g clip-path="url(#a)"><g transform="translate(300.75 500.17)"><path d="m0 0h19.74m-19.74-9.943h19.74" fill="none" stroke="#000" stroke-width="2"/></g><g transform="translate(297.33 342.54)"><path d="m0 0 8.684-3.582 6.333 2.939 13.308-5.732-0.311-2.769-13.309 5.732-6.333-2.939-8.683 3.581z" fill="#fff"/><path d="m0 0 8.684-3.582 6.333 2.939 13.308-5.732-0.311-2.769-13.309 5.732-6.333-2.939-8.683 3.581z" fill="none" stroke="#000"/></g><g transform="translate(325.34 337.84)"><path d="m0 0 2.354-0.936-1.908-4.624-2.354 0.936z" fill="#fff"/></g><g transform="translate(298.75 342.74)"><path d="m0 0-4.707 1.873-2.013-4.879 4.708-1.874z" fill="#fff"/></g><g transform="translate(297.33 670.34)"><path d="m0 0 8.684-3.582 6.333 2.939 13.308-5.732-0.311-2.768-13.309 5.732-6.333-2.94-8.683 3.582z" fill="#fff"/><path d="m0 0 8.684-3.582 6.333 2.939 13.308-5.732-0.311-2.768-13.309 5.732-6.333-2.94-8.683 3.582z" fill="none" stroke="#000"/></g><g transform="translate(325.34 665.65)"><path d="m0 0 2.354-0.937-1.908-4.624-2.354 0.937z" fill="#fff"/></g><g transform="translate(298.75 670.55)"><path d="m0 0-4.707 1.873-2.013-4.879 4.708-1.874z" fill="#fff"/></g><g transform="translate(406.29 584.51)"><path d="m0 0h-48.263c-1.539 0-2.79-1.251-2.79-2.79v-20.322c0-1.538 1.251-2.79 2.79-2.79h48.263c1.538 0 2.79 1.252 2.79 2.79v20.322c0 1.539-1.252 2.79-2.79 2.79m0-0.25c1.397 0 2.54-1.143 2.54-2.54v-20.322c0-1.396-1.143-2.54-2.54-2.54h-48.263c-1.398 0-2.54 1.144-2.54 2.54v20.322c0 1.397 1.142 2.54 2.54 2.54h48.263"/></g><g transform="translate(358.03 559.49)"><path d="m0 0c-0.505 0-0.984 0.198-1.345 0.559-0.361 0.362-0.56 0.839-0.56 1.345v20.322c0 0.506 0.199 0.984 0.56 1.345s0.84 0.56 1.345 0.56h48.263c0.506 0 0.984-0.199 1.345-0.56s0.561-0.839 0.561-1.345v-20.322c0-0.506-0.2-0.983-0.561-1.345-0.361-0.361-0.839-0.559-1.345-0.559z" fill="#006f51"/></g><g transform="translate(372.65 574.77)"><path d="m0 0v5.25h3.844v-0.94h-2.882v-0.976h1.571v-0.958h-1.571v-1.437h2.975v-0.939z" fill="#fff"/></g><path d="m384.84 580.02h0.944v-5.25h-0.944z" fill="#fff"/><g transform="translate(390.17 579.1)"><path d="m0 0v-4.329h-0.92v4.329h-1.508v0.921h3.936v-0.921z" fill="#fff"/></g><g transform="translate(381.73 574.77)"><path d="m0 0-1.184 1.86-1.166-1.86h-1.11l1.72 2.763-1.572 2.487h1.129l0.999-1.603 0.999 1.603h1.128l-1.553-2.487 1.72-2.763z" fill="#fff"/></g><g transform="translate(402.24 564.55)"><path d="m0 0c2e-3 4e-3 4e-3 7e-3 7e-3 0.011 0.013 0.023 0.023 0.047 0.029 0.071 1e-3 3e-3 3e-3 5e-3 3e-3 7e-3h-1e-3c2e-3 8e-3 4e-3 0.016 6e-3 0.025l0.012 0.082 1.166 6.021 0.016 0.113c0.016 0.113-0.022 0.226-0.097 0.301-0.086 0.087-0.198 0.124-0.306 0.102l-0.076-0.014-6.038-1.177-0.106-0.017c-0.071-0.016-0.123-0.048-0.178-0.102-0.135-0.135-0.14-0.355 0-0.495 0.017-0.016 0.044-0.032 0.065-0.043l0.065-0.035 2.148-1.321-5.253-4.824 1.758-1.758 4.823 5.243v0.01l1.301-2.116 0.056-0.078c0.015-0.027 0.031-0.054 0.054-0.075 0.133-0.134 0.359-0.134 0.493 0 0.022 0.021 0.04 0.045 0.053 0.069" fill="#fff"/></g><g transform="translate(387.41 567.04)"><path d="m0 0h-2.175v-2.006h2.175c0.725 0 1.235 0.401 1.235 0.962 0 0.589-0.537 1.044-1.235 1.044m0 2.887h-2.175v-1.524h2.175c0.59 0 0.994 0.321 0.994 0.775 0 0.455-0.377 0.749-0.994 0.749m1.45-5.936c-0.376-0.214-0.779-0.321-1.182-0.321h-3.84v7.621h3.572c0.671 0 0.913-0.054 1.316-0.267 0.643-0.375 1.047-1.017 1.047-1.739 0-0.615-0.242-1.149-0.752-1.577 0.672-0.481 0.994-1.07 0.994-1.792 0-0.775-0.457-1.551-1.155-1.925" fill="#fff"/></g><g transform="translate(361.8 563.65)"><path d="m0 0 0.027 5.695h-0.958l-0.026 1.096c0.585 0.135 0.904 0.349 1.195 0.83h1.091v-7.621z" fill="#fff"/></g><g transform="translate(372.58 563.65)"><path d="m0 0c0 0.909 0.188 1.578 0.619 2.327 0.67 1.122 1.636 1.818 3.034 2.192 0.859 0.241 1.154 0.508 1.154 0.962 0 0.562-0.536 0.883-1.504 0.883-0.993 0-1.719-0.241-2.362-0.829l-0.941 1.043c0.887 0.775 1.988 1.176 3.223 1.176 1.799 0 2.954-0.882 2.954-2.273 0-0.641-0.268-1.23-0.779-1.657-0.242-0.187-0.591-0.375-1.127-0.535-1.022-0.294-1.317-0.428-1.774-0.829-0.349-0.294-0.563-0.588-0.832-1.096h4.512v-1.364z" fill="#fff"/></g><g transform="translate(369.92 567.47)"><path d="m0 0c0 1.604-0.67 2.567-1.822 2.567-1.367 0-1.849-1.417-1.849-2.54 0-1.685 0.697-2.621 1.849-2.621 1.125 0 1.822 1.043 1.822 2.621zm-1.822-3.957c-2.278 0-3.216 1.951-3.216 3.957s0.965 3.93 3.216 3.93c2.277 0 3.188-1.978 3.188-3.903 0-1.952-0.883-3.984-3.188-3.984" fill="#fff"/></g><g transform="translate(406.29 429.42)"><path d="m0 0h-48.263c-1.539 0-2.79-1.251-2.79-2.79v-20.321c0-1.538 1.251-2.79 2.79-2.79h48.263c1.538 0 2.79 1.252 2.79 2.79v20.321c0 1.539-1.252 2.79-2.79 2.79m0-0.25c1.398 0 2.54-1.143 2.54-2.54v-20.321c0-1.397-1.142-2.54-2.54-2.54h-48.263c-1.397 0-2.54 1.143-2.54 2.54v20.321c0 1.397 1.143 2.54 2.54 2.54h48.263"/></g><g transform="translate(358.03 404.4)"><path d="m0 0c-0.506 0-0.984 0.199-1.345 0.56s-0.561 0.839-0.561 1.345v20.321c0 0.506 0.2 0.984 0.561 1.345s0.839 0.56 1.345 0.56h48.263c0.505 0 0.984-0.199 1.345-0.56 0.36-0.361 0.56-0.839 0.56-1.345v-20.321c0-0.506-0.2-0.984-0.56-1.345-0.361-0.361-0.84-0.56-1.345-0.56z" fill="#006f51"/></g><g transform="translate(372.65 419.68)"><path d="m0 0v5.25h3.845v-0.939h-2.884v-0.977h1.572v-0.957h-1.572v-1.437h2.976v-0.94z" fill="#fff"/></g><path d="m384.84 424.94h0.943v-5.25h-0.943z" fill="#fff"/><g transform="translate(390.17 424.01)"><path d="m0 0v-4.329h-0.919v4.329h-1.508v0.921h3.936v-0.921z" fill="#fff"/></g><g transform="translate(381.73 419.68)"><path d="m0 0-1.184 1.86-1.166-1.86h-1.11l1.72 2.763-1.573 2.487h1.13l0.999-1.602 0.999 1.602h1.127l-1.553-2.487 1.72-2.763z" fill="#fff"/></g><g transform="translate(402.24 409.46)"><path d="m0 0c2e-3 4e-3 4e-3 7e-3 6e-3 0.011 0.014 0.024 0.024 0.048 0.03 0.072 2e-3 2e-3 3e-3 4e-3 4e-3 6e-3h-2e-3c2e-3 9e-3 5e-3 0.017 6e-3 0.026l0.011 0.081 1.167 6.021 0.016 0.114c0.015 0.112-0.022 0.225-0.096 0.301-0.087 0.086-0.199 0.123-0.308 0.102l-0.075-0.015-6.039-1.176-0.105-0.018c-0.071-0.016-0.123-0.048-0.178-0.101-0.134-0.135-0.139-0.355 0-0.496 0.017-0.015 0.044-0.032 0.064-0.043l0.066-0.035 2.148-1.321-5.253-4.823 1.757-1.759 4.823 5.243v0.011l1.302-2.117 0.055-0.077c0.016-0.028 0.032-0.054 0.054-0.076 0.134-0.134 0.359-0.134 0.495 0 0.02 0.022 0.038 0.045 0.052 0.069" fill="#fff"/></g><g transform="translate(361.8 408.56)"><path d="m0 0 0.027 5.696h-0.958l-0.026 1.096c0.584 0.134 0.904 0.348 1.196 0.829h1.09v-7.621z" fill="#fff"/></g><g transform="translate(372.58 408.56)"><path d="m0 0c0 0.91 0.188 1.578 0.618 2.327 0.67 1.123 1.637 1.818 3.035 2.192 0.859 0.241 1.154 0.508 1.154 0.963 0 0.562-0.537 0.882-1.505 0.882-0.993 0-1.718-0.24-2.361-0.829l-0.941 1.043c0.886 0.776 1.988 1.177 3.222 1.177 1.799 0 2.954-0.883 2.954-2.273 0-0.642-0.267-1.23-0.777-1.658-0.242-0.187-0.592-0.374-1.129-0.535-1.021-0.294-1.316-0.428-1.773-0.829-0.349-0.293-0.563-0.588-0.831-1.096h4.51v-1.364z" fill="#fff"/></g><g transform="translate(369.92 412.38)"><path d="m0 0c0 1.604-0.67 2.567-1.822 2.567-1.366 0-1.849-1.417-1.849-2.54 0-1.684 0.696-2.62 1.849-2.62 1.126 0 1.822 1.042 1.822 2.62zm-1.822-3.957c-2.278 0-3.216 1.951-3.216 3.957s0.965 3.931 3.216 3.931c2.277 0 3.188-1.979 3.188-3.904 0-1.952-0.883-3.984-3.188-3.984" fill="#fff"/></g><g transform="translate(387.68 414.3)"><path d="m0 0-1.069-2.568h2.137zm2.405-5.722-0.748 1.791h-3.314l-0.749-1.791h-1.497l3.208 7.62h1.389l3.182-7.62z" fill="#fff"/></g><g transform="translate(465.4 456.66)"><path d="m0 0c-0.77 0-1.397 0.626-1.397 1.395v10.16c0 0.769 0.627 1.395 1.397 1.395h58.427c0.769 0 1.395-0.626 1.395-1.395v-10.16c0-0.769-0.626-1.395-1.395-1.395z" fill="#fff"/></g><g transform="translate(523.82 469.74)"><path d="m0 0h-58.427c-0.839 0-1.522-0.682-1.522-1.52v-10.16c0-0.838 0.683-1.52 1.522-1.52h58.427c0.838 0 1.52 0.682 1.52 1.52v10.16c0 0.838-0.682 1.52-1.52 1.52m0-0.25c0.701 0 1.27-0.568 1.27-1.27v-10.16c0-0.702-0.569-1.27-1.27-1.27h-58.427c-0.703 0-1.272 0.568-1.272 1.27v10.16c0 0.702 0.569 1.27 1.272 1.27h58.427"/></g><g transform="translate(464.97 458.06)"><path d="m0 0v10.16c0 0.234 0.189 0.424 0.423 0.424h58.427c0.233 0 0.422-0.19 0.422-0.424v-10.16c0-0.233-0.189-0.423-0.422-0.423h-58.427c-0.234 0-0.423 0.19-0.423 0.423" fill="#006f51"/></g><g transform="translate(472.79 461.02)"><path d="m0 0v4.234h3.101v-0.757h-2.325v-0.788h1.267v-0.773h-1.267v-1.158h2.4v-0.758z" fill="#fff"/></g><path d="m481.09 465.26h0.763v-4.234h-0.763z" fill="#fff"/><g transform="translate(484.53 464.51)"><path d="m0 0v-3.491h-0.743v3.491h-1.216v0.743h3.174v-0.743z" fill="#fff"/></g><g transform="translate(479.35 461.02)"><path d="m0 0-0.955 1.5-0.94-1.5h-0.895l1.388 2.229-1.268 2.005h0.909l0.806-1.293 0.806 1.293h0.91l-1.253-2.005 1.387-2.229z" fill="#fff"/></g><g transform="translate(514.26 462.76)"><path d="m0 0h-1.813v-1.671h1.813c0.605 0 1.029 0.334 1.029 0.803 0 0.489-0.448 0.868-1.029 0.868m0 2.407h-1.813v-1.27h1.813c0.492 0 0.827 0.267 0.827 0.646s-0.312 0.624-0.827 0.624m1.208-4.947c-0.312-0.178-0.648-0.267-0.984-0.267h-3.201v6.35h2.977c0.56 0 0.761-0.044 1.097-0.223 0.536-0.312 0.872-0.846 0.872-1.448 0-0.512-0.2-0.958-0.626-1.315 0.559-0.401 0.827-0.891 0.827-1.493 0-0.646-0.38-1.292-0.962-1.604" fill="#fff"/></g><g transform="translate(492.92 459.94)"><path d="m0 0 0.022 4.746h-0.797l-0.024 0.914c0.489 0.111 0.754 0.29 0.997 0.691h0.909v-6.351z" fill="#fff"/></g><g transform="translate(501.9 459.94)"><path d="m0 0c0 0.758 0.156 1.314 0.514 1.938 0.56 0.936 1.365 1.516 2.529 1.828 0.716 0.2 0.962 0.423 0.962 0.801 0 0.469-0.448 0.736-1.253 0.736-0.828 0-1.432-0.201-1.969-0.691l-0.783 0.869c0.738 0.646 1.656 0.981 2.685 0.981 1.5 0 2.461-0.736 2.461-1.895 0-0.534-0.223-1.025-0.648-1.381-0.202-0.156-0.493-0.312-0.941-0.445-0.849-0.245-1.095-0.357-1.476-0.691-0.29-0.245-0.47-0.491-0.694-0.913h3.759v-1.137z" fill="#fff"/></g><g transform="translate(499.69 463.13)"><path d="m0 0c0 1.337-0.558 2.14-1.518 2.14-1.138 0-1.541-1.182-1.541-2.118 0-1.403 0.58-2.183 1.541-2.183 0.938 0 1.518 0.869 1.518 2.183zm-1.518-3.297c-1.898 0-2.679 1.626-2.679 3.297s0.803 3.276 2.679 3.276c1.898 0 2.657-1.649 2.657-3.254 0-1.626-0.737-3.319-2.657-3.319" fill="#fff"/></g><g transform="translate(448.91 415.78)"><path d="m0 0c-2.871 0-5.206 2.336-5.206 5.206v30.482c0 2.87 2.335 5.205 5.206 5.205h71.125c2.871 0 5.206-2.335 5.206-5.205v-30.482c0-2.87-2.335-5.206-5.206-5.206z" fill="#fff"/></g><g transform="translate(520.03 456.8)"><path d="m0 0h-71.125c-2.94 0-5.331-2.391-5.331-5.33v-30.482c0-2.94 2.391-5.331 5.331-5.331h71.125c2.939 0 5.331 2.391 5.331 5.331v30.482c0 2.939-2.392 5.33-5.331 5.33m0-0.25c2.805 0 5.081-2.275 5.081-5.08v-30.482c0-2.807-2.276-5.081-5.081-5.081h-71.125c-2.806 0-5.081 2.274-5.081 5.081v30.482c0 2.805 2.275 5.08 5.081 5.08h71.125"/></g><g transform="translate(447.26 417.08)"><path d="m0 0c-0.505 0.213-0.958 0.519-1.347 0.908-0.388 0.389-0.695 0.842-0.907 1.346-0.221 0.522-0.333 1.076-0.333 1.648v30.482c0 0.572 0.112 1.126 0.333 1.647 0.212 0.504 0.519 0.957 0.907 1.346 0.389 0.39 0.842 0.695 1.347 0.908 0.522 0.22 1.074 0.332 1.647 0.332h71.125c0.572 0 1.126-0.112 1.647-0.332 0.504-0.213 0.957-0.518 1.346-0.908 0.388-0.389 0.695-0.842 0.907-1.346 0.222-0.521 0.333-1.075 0.333-1.647v-30.482c0-0.572-0.111-1.126-0.333-1.648-0.212-0.504-0.519-0.957-0.907-1.346-0.389-0.389-0.842-0.695-1.346-0.908-0.521-0.22-1.075-0.333-1.647-0.333h-71.125c-0.573 0-1.125 0.113-1.647 0.333" fill="#006f51"/></g><g transform="translate(516.1 433.98)"><path d="m0 0c2e-3 5e-3 5e-3 8e-3 8e-3 0.013 0.015 0.028 0.026 0.057 0.034 0.087 2e-3 3e-3 4e-3 5e-3 4e-3 8e-3l-1e-3 -1e-3c3e-3 0.011 6e-3 0.02 8e-3 0.031l0.013 0.1 1.414 7.298 0.02 0.137c0.019 0.136-0.026 0.274-0.118 0.365-0.105 0.104-0.241 0.15-0.371 0.124l-0.091-0.019-7.32-1.425-0.128-0.021c-0.085-0.019-0.15-0.058-0.215-0.124-0.163-0.162-0.169-0.43 0-0.6 0.019-0.019 0.052-0.039 0.078-0.052l0.078-0.043 2.605-1.601-6.369-5.847 2.132-2.131 5.847 6.355v0.013l1.577-2.566 0.065-0.093c0.02-0.033 0.04-0.066 0.066-0.092 0.163-0.162 0.436-0.163 0.6 0 0.026 0.026 0.046 0.055 0.064 0.084" fill="#fff"/></g><g transform="translate(458.71 434.54)"><path d="m0 0c-0.68 0.817-1.701 1.315-2.764 1.315h-0.653c-2.306 0-4.187 1.886-4.187 4.2 0 1.43 0.909 2.479 0.909 3.958 0 1.006-0.339 2.05-0.926 2.846l3.019 2.909c0.62-0.526 1.455-0.859 2.283-0.859 0.842 0 1.697 0.319 2.319 0.872 0.621-0.553 1.477-0.872 2.319-0.872 0.827 0 1.663 0.333 2.284 0.859l3.017-2.909c-0.586-0.796-0.926-1.84-0.926-2.846 0-1.479 0.91-2.528 0.91-3.958 0-2.314-1.881-4.2-4.188-4.2h-0.652c-1.063 0-2.085-0.498-2.764-1.315" fill="#fff" fill-rule="evenodd"/></g><g transform="translate(461.68 438.21)"><path d="m0 0c-0.668 0-1.337 0.161-1.872 0.428l0.589 1.07c0.32-0.161 0.883-0.267 1.444-0.267 1.096 0 1.951 0.722 1.951 1.711 0 0.749-0.615 1.337-1.363 1.337-0.534 0-0.775-0.16-1.23-0.802l-1.203 0.347 0.187 3.931h4.386v-1.203h-3.21l-0.079-1.257c0.561 0.16 0.801 0.214 1.175 0.214 1.391 0 2.541-1.177 2.541-2.567 0-1.684-1.39-2.942-3.316-2.942"/></g><g transform="translate(455.53 441.66)"><path d="m0 0c-0.749 0-1.365-0.508-1.365-1.097 0-0.615 0.616-1.122 1.365-1.122 0.748 0 1.389 0.507 1.389 1.122 0 0.589-0.614 1.097-1.389 1.097m0-3.45c-1.472 0-2.594 1.07-2.594 2.434 0 2.112 1.176 4.278 2.941 5.454l0.615-1.016c-0.936-0.722-1.419-1.336-1.872-2.299 0.427 0.08 0.615 0.08 0.91 0.08 1.416 0 2.593-1.043 2.593-2.326 0-1.31-1.124-2.327-2.593-2.327"/></g><g transform="translate(497.15 443.26)"><path d="m0 0v2.21h-2.291v-2.21h-0.913v5.08h0.913v-1.961h2.291v1.961h0.913v-5.08z" fill="#fff"/></g><g transform="translate(476.84 443.42)"><path d="m0 0-3.044 4.367v-4.367h-1.118v6.35h1.118l2.933-4.189v4.189h1.097v-6.35z" fill="#fff"/></g><g transform="translate(481.32 447.52)"><path d="m0 0c-0.769 0-1.233-0.642-1.233-1.711 0-1.088 0.464-1.729 1.233-1.729 0.964 0 1.196 0.944 1.196 1.729 0 1.069-0.429 1.711-1.196 1.711m0-4.35c-1.501 0-2.162 1.355-2.162 2.639 0 1.622 0.822 2.62 2.162 2.62 1.25 0 2.107-1.052 2.107-2.602 0-1.587-0.821-2.657-2.107-2.657" fill="#fff"/></g><g transform="translate(486.97 447.43)"><path d="m0 0h-1.465v-1.265h1.465c0.445 0 0.73 0.249 0.73 0.624 0 0.391-0.285 0.641-0.73 0.641m0.73-4.171-0.82 1.996h-1.375v-1.996h-0.907v5.08h2.354c0.374 0 0.606-0.053 0.873-0.214 0.481-0.267 0.784-0.766 0.784-1.336 0-0.572-0.303-1.07-0.82-1.355l0.926-2.175z" fill="#fff"/></g><g transform="translate(491.62 447.45)"><path d="m0 0v-4.189h-0.89v4.189h-1.46v0.891h3.81v-0.891z" fill="#fff"/></g><g transform="translate(459.44 428.18)"><path d="m0 0c-0.976 0-1.5-0.71-1.5-2.132 0-1.373 0.548-2.155 1.5-2.155 0.93 0 1.502 0.853 1.502 2.179 0 1.469-0.549 2.108-1.502 2.108m0-5.637c-2.048 0-2.858 1.729-2.858 3.505 0 2.132 1.095 3.482 2.858 3.482 1.644 0 2.835-1.398 2.835-3.482 0-2.155-1.12-3.505-2.835-3.505" fill="#fff"/></g><g transform="translate(476.78 424.65)"><path d="m0 0c-0.405 0.142-0.881 0.213-1.143 0.213-0.428 0-0.761-0.237-0.761-0.544 0-0.308 0.405-0.569 0.881-0.569 0.285 0 0.643 0.047 1.023 0.261zm0-1.99v0.166c-0.476-0.189-0.929-0.237-1.31-0.237-1.094 0-1.879 0.687-1.879 1.658 0 1.019 0.88 1.777 2.046 1.777 0.287 0 0.738-0.048 1.143-0.19-0.024 0.474-0.38 0.663-0.881 0.663-0.476 0-0.928-0.118-1.404-0.379l-0.5 1.066c0.739 0.379 1.238 0.521 1.904 0.521 1.357 0 2.167-0.663 2.167-2.037v-3.008z" fill="#fff"/></g><g transform="translate(491.48 424.65)"><path d="m0 0c-0.405 0.142-0.881 0.213-1.144 0.213-0.428 0-0.761-0.237-0.761-0.544 0-0.308 0.406-0.569 0.881-0.569 0.286 0 0.642 0.047 1.024 0.261zm0-1.99v0.166c-0.477-0.189-0.929-0.237-1.31-0.237-1.094 0-1.88 0.687-1.88 1.658 0 1.019 0.881 1.777 2.046 1.777 0.286 0 0.739-0.048 1.144-0.19-0.025 0.474-0.382 0.663-0.881 0.663-0.477 0-0.929-0.118-1.404-0.379l-0.499 1.066c0.737 0.379 1.237 0.521 1.903 0.521 1.357 0 2.166-0.663 2.166-2.037v-3.008z" fill="#fff"/></g><g transform="translate(465.82 426.44)"><path d="m0 0v-1.847c0-0.45 0.095-0.711 0.595-0.663 0.357 0.023 0.428 0.118 0.666 0.355l-0.356-1.397c-0.453-0.19-0.405-0.262-0.882-0.262-0.928 0-1.356 0.546-1.356 1.517v2.297h-0.93v1.161h0.93v1.444l1.333 0.521v-1.941h1.261v-1.185z" fill="#fff"/></g><g transform="translate(470.77 426.44)"><path d="m0 0v-1.847c0-0.45 0.095-0.711 0.596-0.663 0.357 0.023 0.428 0.118 0.666 0.355l-0.357-1.397c-0.453-0.19-0.405-0.262-0.881-0.262-0.929 0-1.358 0.546-1.358 1.517v2.297h-0.928v1.161h0.928v1.444l1.334 0.521v-1.941h1.262v-1.185z" fill="#fff"/></g><g transform="translate(485.49 422.66)"><path d="m0 0h-1.313l-0.619 2.44-0.786-2.44h-1.313l-1.429 4.927h1.382l0.692-2.345 0.691 2.345h1.478l0.597-2.321 0.667 2.321h1.406z" fill="#fff"/></g><g transform="translate(364.36 374.54)"><path d="m0 0c-0.769 0-1.395 0.626-1.395 1.395v10.16c0 0.769 0.626 1.395 1.395 1.395h58.427c0.769 0 1.395-0.626 1.395-1.395v-10.16c0-0.769-0.626-1.395-1.395-1.395z" fill="#fff"/></g><g transform="translate(422.78 387.62)"><path d="m0 0h-58.427c-0.838 0-1.52-0.682-1.52-1.52v-10.16c0-0.839 0.682-1.52 1.52-1.52h58.427c0.838 0 1.52 0.681 1.52 1.52v10.16c0 0.838-0.682 1.52-1.52 1.52m0-0.25c0.702 0 1.27-0.569 1.27-1.27v-10.16c0-0.702-0.568-1.27-1.27-1.27h-58.427c-0.701 0-1.27 0.568-1.27 1.27v10.16c0 0.701 0.569 1.27 1.27 1.27h58.427"/></g><g transform="translate(363.93 375.94)"><path d="m0 0v10.16c0 0.235 0.19 0.424 0.424 0.424h58.427c0.233 0 0.423-0.189 0.423-0.424v-10.16c0-0.234-0.19-0.424-0.423-0.424h-58.427c-0.234 0-0.424 0.19-0.424 0.424" fill="#006f51"/></g><g transform="translate(371.75 378.9)"><path d="m0 0v4.233h3.101v-0.756h-2.325v-0.79h1.266v-0.771h-1.266v-1.158h2.399v-0.758z" fill="#fff"/></g><path d="m380.05 383.13h0.762v-4.233h-0.762z" fill="#fff"/><g transform="translate(383.49 382.39)"><path d="m0 0v-3.492h-0.743v3.492h-1.216v0.741h3.174v-0.741z" fill="#fff"/></g><g transform="translate(378.31 378.9)"><path d="m0 0-0.955 1.5-0.941-1.5h-0.894l1.387 2.228-1.267 2.005h0.909l0.806-1.293 0.806 1.293h0.911l-1.254-2.005 1.387-2.228z" fill="#fff"/></g><g transform="translate(413.22 380.64)"><path d="m0 0h-1.812v-1.672h1.812c0.605 0 1.03 0.335 1.03 0.802 0 0.491-0.448 0.87-1.03 0.87m0 2.406h-1.812v-1.27h1.812c0.492 0 0.829 0.268 0.829 0.647s-0.314 0.623-0.829 0.623m1.209-4.947c-0.313-0.178-0.65-0.267-0.985-0.267h-3.201v6.351h2.977c0.559 0 0.761-0.045 1.097-0.224 0.537-0.31 0.873-0.847 0.873-1.448 0-0.512-0.201-0.958-0.627-1.313 0.559-0.402 0.828-0.892 0.828-1.494 0-0.646-0.38-1.293-0.962-1.605" fill="#fff"/></g><g transform="translate(391.88 377.82)"><path d="m0 0 0.023 4.747h-0.798l-0.023 0.913c0.489 0.11 0.754 0.29 0.997 0.69h0.91v-6.35z" fill="#fff"/></g><g transform="translate(400.86 377.82)"><path d="m0 0c0 0.759 0.156 1.315 0.514 1.938 0.56 0.937 1.364 1.516 2.53 1.828 0.715 0.201 0.961 0.424 0.961 0.801 0 0.469-0.448 0.737-1.253 0.737-0.828 0-1.432-0.202-1.969-0.692l-0.783 0.869c0.738 0.648 1.655 0.981 2.684 0.981 1.5 0 2.462-0.735 2.462-1.895 0-0.534-0.225-1.024-0.649-1.381-0.201-0.155-0.492-0.311-0.94-0.445-0.849-0.245-1.096-0.355-1.476-0.691-0.291-0.244-0.47-0.491-0.695-0.912h3.76v-1.138z" fill="#fff"/></g><g transform="translate(398.64 381)"><path d="m0 0c0 1.338-0.559 2.139-1.519 2.139-1.138 0-1.54-1.18-1.54-2.116 0-1.403 0.579-2.183 1.54-2.183 0.939 0 1.519 0.867 1.519 2.183zm-1.519-3.296c-1.898 0-2.68 1.626-2.68 3.296 0 1.672 0.804 3.276 2.68 3.276 1.899 0 2.658-1.649 2.658-3.253 0-1.626-0.738-3.319-2.658-3.319" fill="#fff"/></g><g transform="translate(360.57 323.5)"><path d="m0 0c-2.871 0-5.205 2.335-5.205 5.205v40.637c0 2.87 2.334 5.205 5.205 5.205h58.419c2.87 0 5.205-2.335 5.205-5.205v-40.637c0-2.87-2.335-5.205-5.205-5.205z" fill="#fff"/></g><g transform="translate(418.99 374.68)"><path d="m0 0h-58.419c-2.94 0-5.33-2.39-5.33-5.33v-40.637c0-2.939 2.39-5.33 5.33-5.33h58.419c2.939 0 5.33 2.391 5.33 5.33v40.637c0 2.94-2.391 5.33-5.33 5.33m0-0.25c2.806 0 5.08-2.273 5.08-5.08v-40.637c0-2.804-2.274-5.08-5.08-5.08h-58.419c-2.805 0-5.08 2.276-5.08 5.08v40.637c0 2.807 2.275 5.08 5.08 5.08h58.419"/></g><g transform="translate(358.92 324.81)"><path d="m0 0c-0.505 0.215-0.956 0.519-1.346 0.908-0.389 0.389-0.694 0.842-0.908 1.346-0.22 0.521-0.331 1.075-0.331 1.646v40.637c0 0.572 0.111 1.127 0.331 1.647 0.214 0.505 0.519 0.957 0.908 1.345 0.39 0.391 0.841 0.696 1.346 0.909 0.522 0.221 1.075 0.332 1.647 0.332h58.419c0.573 0 1.126-0.111 1.648-0.332 0.504-0.213 0.957-0.518 1.346-0.909 0.389-0.388 0.694-0.84 0.907-1.345 0.221-0.52 0.333-1.075 0.333-1.647v-40.637c0-0.571-0.112-1.125-0.333-1.646-0.213-0.504-0.518-0.957-0.907-1.346s-0.842-0.693-1.346-0.908c-0.522-0.221-1.075-0.332-1.648-0.332h-58.419c-0.572 0-1.125 0.111-1.647 0.332" fill="#006f51"/></g><g transform="translate(373.91 352.41)"><path d="m0 0c-0.679 0.816-1.702 1.314-2.764 1.314h-0.653c-2.305 0-4.187 1.887-4.187 4.199 0 1.432 0.91 2.481 0.91 3.96 0 1.005-0.34 2.049-0.926 2.845l3.018 2.908c0.621-0.525 1.455-0.857 2.284-0.857 0.841 0 1.696 0.318 2.318 0.871 0.621-0.553 1.478-0.871 2.319-0.871 0.828 0 1.664 0.332 2.284 0.857l3.018-2.908c-0.586-0.796-0.927-1.84-0.927-2.845 0-1.479 0.911-2.528 0.911-3.96 0-2.312-1.882-4.199-4.188-4.199h-0.653c-1.062 0-2.084-0.498-2.764-1.314" fill="#fff" fill-rule="evenodd"/></g><g transform="translate(376.89 356.09)"><path d="m0 0c-0.669 0-1.337 0.16-1.871 0.428l0.588 1.069c0.321-0.16 0.883-0.267 1.444-0.267 1.096 0 1.951 0.722 1.951 1.711 0 0.749-0.614 1.338-1.362 1.338-0.535 0-0.775-0.161-1.231-0.803l-1.204 0.348 0.188 3.931h4.386v-1.204h-3.209l-0.08-1.257c0.561 0.16 0.801 0.214 1.176 0.214 1.39 0 2.54-1.177 2.54-2.567 0-1.684-1.39-2.941-3.316-2.941"/></g><g transform="translate(370.74 359.54)"><path d="m0 0c-0.749 0-1.365-0.508-1.365-1.095 0-0.616 0.616-1.124 1.365-1.124s1.39 0.508 1.39 1.124c0 0.587-0.615 1.095-1.39 1.095m0-3.449c-1.471 0-2.594 1.07-2.594 2.433 0 2.112 1.176 4.279 2.941 5.455l0.615-1.016c-0.937-0.722-1.417-1.337-1.872-2.3 0.428 0.081 0.616 0.081 0.91 0.081 1.417 0 2.593-1.044 2.593-2.326 0-1.311-1.123-2.327-2.593-2.327"/></g><g transform="translate(412.36 361.14)"><path d="m0 0v2.211h-2.292v-2.211h-0.913v5.08h0.913v-1.959h2.292v1.959h0.913v-5.08z" fill="#fff"/></g><g transform="translate(392.05 361.3)"><path d="m0 0-3.044 4.368v-4.368h-1.119v6.35h1.119l2.932-4.188v4.188h1.097v-6.35z" fill="#fff"/></g><g transform="translate(396.53 365.4)"><path d="m0 0c-0.769 0-1.233-0.642-1.233-1.711 0-1.088 0.464-1.73 1.233-1.73 0.965 0 1.197 0.945 1.197 1.73 0 1.069-0.429 1.711-1.197 1.711m0-4.35c-1.502 0-2.162 1.355-2.162 2.639 0 1.621 0.821 2.619 2.162 2.619 1.251 0 2.108-1.051 2.108-2.601 0-1.588-0.822-2.657-2.108-2.657" fill="#fff"/></g><g transform="translate(402.17 365.31)"><path d="m0 0h-1.463v-1.266h1.463c0.446 0 0.732 0.25 0.732 0.625 0 0.391-0.286 0.641-0.732 0.641m0.732-4.172-0.82 1.997h-1.375v-1.997h-0.909v5.08h2.355c0.374 0 0.606-0.05 0.873-0.212 0.481-0.268 0.785-0.767 0.785-1.337 0-0.571-0.304-1.07-0.82-1.356l0.925-2.175z" fill="#fff"/></g><g transform="translate(406.83 365.33)"><path d="m0 0v-4.191h-0.89v4.191h-1.46v0.889h3.809v-0.889z" fill="#fff"/></g><g transform="translate(374.54 346.06)"><path d="m0 0c-0.976 0-1.501-0.711-1.501-2.131 0-1.374 0.548-2.154 1.501-2.154 0.93 0 1.501 0.851 1.501 2.178 0 1.468-0.549 2.107-1.501 2.107m0-5.637c-2.049 0-2.858 1.731-2.858 3.506 0 2.131 1.096 3.483 2.858 3.483 1.644 0 2.834-1.399 2.834-3.483 0-2.154-1.119-3.506-2.834-3.506" fill="#fff"/></g><g transform="translate(391.88 342.53)"><path d="m0 0c-0.404 0.142-0.88 0.214-1.142 0.214-0.427 0-0.761-0.238-0.761-0.544 0-0.308 0.404-0.57 0.881-0.57 0.285 0 0.642 0.048 1.022 0.262zm0-1.989v0.166c-0.475-0.189-0.928-0.238-1.308-0.238-1.095 0-1.88 0.688-1.88 1.658 0 1.02 0.88 1.778 2.046 1.778 0.287 0 0.738-0.049 1.142-0.19-0.023 0.474-0.38 0.663-0.88 0.663-0.475 0-0.928-0.118-1.404-0.379l-0.5 1.066c0.738 0.379 1.237 0.521 1.904 0.521 1.357 0 2.166-0.664 2.166-2.037v-3.008z" fill="#fff"/></g><g transform="translate(406.59 342.53)"><path d="m0 0c-0.404 0.142-0.881 0.214-1.142 0.214-0.428 0-0.762-0.238-0.762-0.544 0-0.308 0.405-0.57 0.881-0.57 0.286 0 0.642 0.048 1.023 0.262zm0-1.989v0.166c-0.475-0.189-0.928-0.238-1.308-0.238-1.095 0-1.881 0.688-1.881 1.658 0 1.02 0.881 1.778 2.047 1.778 0.285 0 0.738-0.049 1.142-0.19-0.023 0.474-0.381 0.663-0.881 0.663-0.475 0-0.928-0.118-1.404-0.379l-0.499 1.066c0.737 0.379 1.237 0.521 1.903 0.521 1.358 0 2.166-0.664 2.166-2.037v-3.008z" fill="#fff"/></g><g transform="translate(380.93 344.32)"><path d="m0 0v-1.848c0-0.45 0.096-0.711 0.596-0.664 0.356 0.025 0.427 0.119 0.667 0.357l-0.358-1.398c-0.453-0.189-0.405-0.261-0.882-0.261-0.927 0-1.356 0.546-1.356 1.516v2.298h-0.929v1.16h0.929v1.445l1.333 0.52v-1.94h1.263v-1.185z" fill="#fff"/></g><g transform="translate(385.88 344.32)"><path d="m0 0v-1.848c0-0.45 0.095-0.711 0.595-0.664 0.357 0.025 0.429 0.119 0.666 0.357l-0.356-1.398c-0.454-0.189-0.406-0.261-0.881-0.261-0.93 0-1.359 0.546-1.359 1.516v2.298h-0.927v1.16h0.927v1.445l1.335 0.52v-1.94h1.261v-1.185z" fill="#fff"/></g><g transform="translate(400.59 340.54)"><path d="m0 0h-1.311l-0.621 2.44-0.786-2.44h-1.312l-1.43 4.926h1.383l0.691-2.344 0.692 2.344h1.477l0.598-2.32 0.666 2.32h1.407z" fill="#fff"/></g><g transform="translate(376.18 331.27)"><path d="m0 0 0.015 3.168h-0.533l-0.015 0.609c0.326 0.075 0.504 0.195 0.666 0.461h0.606v-4.238z" fill="#fff"/></g><g transform="translate(377.5 329.15)"><path d="m0 0h-0.758l3.697 6.356h0.757z" fill="#fff"/></g><g transform="translate(382.22 332.4)"><path d="m0 0-1.65-1.695h1.65zm0.743-2.378v-0.863h-0.743v0.863h-2.616v0.683l2.616 2.691h0.743v-2.691h0.625v-0.683z" fill="#fff"/></g><g transform="translate(400.74 330.21)"><path d="m0 0v4.235h3.101v-0.758h-2.325v-0.787h1.266v-0.773h-1.266v-1.16h2.399v-0.757z" fill="#fff"/></g><path d="m394.98 334.45h0.761v-4.235h-0.761z" fill="#fff"/><g transform="translate(396.85 330.21)"><path d="m0 0v4.235h0.761v-3.581h2.415v-0.654z" fill="#fff"/></g><g transform="translate(393.14 330.21)"><path d="m0 0v2.585l-1.253-2.585-1.237 2.585v-2.585h-0.747v4.235h0.747l1.237-2.511 1.253 2.511h0.745v-4.235z" fill="#fff"/></g><g transform="translate(436.21 333.66)"><path d="m0 0c-2.87 0-5.205 2.335-5.205 5.205v30.481c0 2.871 2.335 5.206 5.205 5.206h83.826c2.871 0 5.206-2.335 5.206-5.206v-30.481c0-2.87-2.335-5.205-5.206-5.205z" fill="#fff"/></g><g transform="translate(520.03 374.68)"><path d="m0 0h-83.826c-2.939 0-5.33-2.391-5.33-5.331v-30.481c0-2.94 2.391-5.33 5.33-5.33h83.826c2.939 0 5.331 2.39 5.331 5.33v30.481c0 2.94-2.392 5.331-5.331 5.331m0-0.25c2.805 0 5.081-2.274 5.081-5.081v-30.481c0-2.806-2.276-5.08-5.081-5.08h-83.826c-2.806 0-5.08 2.274-5.08 5.08v30.481c0 2.807 2.274 5.081 5.08 5.081h83.826"/></g><g transform="translate(434.56 334.96)"><path d="m0 0c-0.503 0.213-0.957 0.52-1.346 0.909-0.388 0.388-0.694 0.841-0.907 1.345-0.221 0.522-0.333 1.076-0.333 1.648v30.481c0 0.572 0.112 1.127 0.333 1.649 0.213 0.503 0.519 0.957 0.907 1.345 0.389 0.389 0.843 0.695 1.346 0.909 0.522 0.22 1.076 0.332 1.648 0.332h83.826c0.572 0 1.126-0.112 1.646-0.332 0.506-0.214 0.957-0.52 1.347-0.909 0.389-0.388 0.694-0.842 0.908-1.345 0.221-0.522 0.331-1.077 0.331-1.649v-30.481c0-0.572-0.11-1.126-0.331-1.648-0.214-0.504-0.519-0.957-0.908-1.345-0.39-0.389-0.841-0.696-1.347-0.909-0.52-0.22-1.074-0.332-1.646-0.332h-83.826c-0.572 0-1.126 0.112-1.648 0.332" fill="#006f51"/></g><g transform="translate(516.1 351.86)"><path d="m0 0c3e-3 4e-3 6e-3 9e-3 8e-3 0.012 0.016 0.029 0.027 0.058 0.036 0.087 0 4e-3 2e-3 6e-3 3e-3 8e-3h-1e-3c2e-3 0.011 6e-3 0.021 8e-3 0.031l0.013 0.1 1.414 7.298 0.02 0.137c0.019 0.136-0.027 0.274-0.118 0.364-0.105 0.105-0.241 0.15-0.371 0.125l-0.091-0.019-7.32-1.425-0.127-0.021c-0.087-0.019-0.152-0.059-0.217-0.124-0.163-0.163-0.168-0.431 0-0.599 0.02-0.02 0.053-0.039 0.078-0.052l0.079-0.045 2.605-1.601-6.369-5.847 2.132-2.129 5.847 6.354v0.014l1.577-2.567 0.065-0.093c0.019-0.034 0.041-0.067 0.065-0.091 0.164-0.163 0.436-0.163 0.601 0 0.025 0.024 0.046 0.053 0.063 0.083" fill="#fff"/></g><g transform="translate(452.63 352.41)"><path d="m0 0c-0.68 0.816-1.701 1.314-2.764 1.314h-0.652c-2.307 0-4.187 1.887-4.187 4.2 0 1.43 0.91 2.48 0.91 3.959 0 1.006-0.341 2.05-0.926 2.845l3.017 2.91c0.621-0.526 1.456-0.859 2.285-0.859 0.841 0 1.696 0.318 2.317 0.871 0.621-0.553 1.479-0.871 2.318-0.871 0.83 0 1.665 0.333 2.286 0.859l3.017-2.91c-0.587-0.795-0.927-1.839-0.927-2.845 0-1.479 0.911-2.529 0.911-3.959 0-2.313-1.881-4.2-4.188-4.2h-0.652c-1.063 0-2.085-0.498-2.765-1.314" fill="#fff" fill-rule="evenodd"/></g><g transform="translate(455.61 356.08)"><path d="m0 0c-0.669 0-1.337 0.16-1.872 0.428l0.589 1.069c0.319-0.161 0.882-0.268 1.443-0.268 1.097 0 1.952 0.723 1.952 1.712 0 0.749-0.614 1.337-1.363 1.337-0.535 0-0.777-0.161-1.231-0.803l-1.204 0.348 0.189 3.93h4.384v-1.202h-3.208l-0.08-1.258c0.561 0.161 0.802 0.214 1.176 0.214 1.391 0 2.54-1.176 2.54-2.566 0-1.685-1.39-2.941-3.315-2.941"/></g><g transform="translate(449.46 359.53)"><path d="m0 0c-0.75 0-1.364-0.508-1.364-1.097 0-0.614 0.614-1.123 1.364-1.123 0.747 0 1.391 0.509 1.391 1.123 0 0.589-0.615 1.097-1.391 1.097m0-3.449c-1.471 0-2.594 1.07-2.594 2.432 0 2.113 1.176 4.278 2.941 5.455l0.615-1.015c-0.936-0.723-1.417-1.338-1.872-2.299 0.429 0.079 0.615 0.079 0.91 0.079 1.417 0 2.594-1.042 2.594-2.327 0-1.31-1.123-2.325-2.594-2.325"/></g><g transform="translate(490.63 361.08)"><path d="m0 0v2.21h-2.291v-2.21h-0.913v5.079h0.913v-1.961h2.291v1.961h0.913v-5.079z" fill="#fff"/></g><g transform="translate(474.49 365.34)"><path d="m0 0c-0.768 0-1.233-0.641-1.233-1.711 0-1.086 0.465-1.729 1.233-1.729 0.964 0 1.197 0.944 1.197 1.729 0 1.07-0.429 1.711-1.197 1.711m0-4.349c-1.5 0-2.162 1.354-2.162 2.638 0 1.623 0.823 2.621 2.162 2.621 1.25 0 2.108-1.052 2.108-2.603 0-1.587-0.821-2.656-2.108-2.656" fill="#fff"/></g><g transform="translate(468.6 364.08)"><path d="m0 0c-0.283 0.078-0.993 0.249-1.234 0.39-0.477 0.279-0.844 0.738-0.844 1.418 0 1.047 0.894 1.76 2.193 1.76 0.941 0 1.723-0.312 2.373-0.981l-0.85-0.757c-0.404 0.423-0.918 0.624-1.523 0.624-0.649 0-1.028-0.246-1.028-0.646 0-0.357 0.223-0.513 1.007-0.691 0.849-0.178 1.409-0.357 1.766-0.534 0.561-0.291 0.919-0.892 0.919-1.583 0-0.647-0.291-1.135-0.896-1.493-0.448-0.267-1.029-0.423-1.612-0.423-1.095 0-1.923 0.402-2.639 1.226l0.917 0.713c0.469-0.558 0.985-0.803 1.701-0.803 0.806 0 1.388 0.358 1.388 0.824 0 0.596-0.649 0.684-1.638 0.956" fill="#fff"/></g><g transform="translate(485.1 365.27)"><path d="m0 0v-4.188h-0.89v4.188h-1.461v0.891h3.811v-0.891z" fill="#fff"/></g><g transform="translate(479.83 360.99)"><path d="m0 0c-1.199 0-2.058 0.891-2.058 2.139v3.03h0.913v-3.03c0-0.302 0.035-0.464 0.161-0.66 0.197-0.339 0.573-0.552 0.984-0.552 0.413 0 0.789 0.213 0.986 0.552 0.125 0.196 0.16 0.374 0.16 0.66v3.03h0.913v-3.03c0-1.248-0.859-2.139-2.059-2.139" fill="#fff"/></g><g transform="translate(441 340.43)"><path d="m0 0c-1.972 0-2.947 1.729-2.947 3.505 0 2.085 1.212 3.481 2.995 3.481 1.068 0 2.02-0.544 2.495-1.467l-1.188-0.64c-0.309 0.522-0.809 0.758-1.355 0.758-0.974 0-1.592-0.829-1.592-2.132 0-1.326 0.618-2.155 1.592-2.155 0.546 0 1.046 0.26 1.355 0.781l1.188-0.64c-0.593-0.947-1.379-1.491-2.543-1.491" fill="#fff"/></g><g transform="translate(448.02 342.54)"><path d="m0 0c-0.404 0.142-0.88 0.212-1.142 0.212-0.428 0-0.761-0.237-0.761-0.544 0-0.309 0.403-0.569 0.879-0.569 0.287 0 0.644 0.047 1.024 0.26zm0-1.991v0.166c-0.476-0.189-0.928-0.236-1.309-0.236-1.094 0-1.88 0.687-1.88 1.656 0 1.02 0.88 1.778 2.047 1.778 0.285 0 0.738-0.047 1.142-0.19-0.025 0.475-0.38 0.664-0.88 0.664-0.477 0-0.928-0.119-1.404-0.379l-0.5 1.067c0.738 0.379 1.238 0.519 1.904 0.519 1.355 0 2.165-0.662 2.165-2.036v-3.009z" fill="#fff"/></g><g transform="translate(486.04 342.54)"><path d="m0 0c-0.403 0.142-0.879 0.212-1.142 0.212-0.428 0-0.761-0.237-0.761-0.544 0-0.309 0.405-0.569 0.881-0.569 0.285 0 0.642 0.047 1.022 0.26zm0-1.991v0.166c-0.476-0.189-0.927-0.236-1.308-0.236-1.095 0-1.88 0.687-1.88 1.656 0 1.02 0.881 1.778 2.046 1.778 0.286 0 0.739-0.047 1.142-0.19-0.022 0.475-0.38 0.664-0.879 0.664-0.476 0-0.929-0.119-1.406-0.379l-0.499 1.067c0.739 0.379 1.239 0.519 1.905 0.519 1.356 0 2.165-0.662 2.165-2.036v-3.009z" fill="#fff"/></g><g transform="translate(459.17 344.32)"><path d="m0 0c-0.333 0-0.595-0.143-0.786-0.475v-1.61c0.191-0.332 0.453-0.475 0.762-0.475 0.571 0 1 0.57 1 1.281s-0.429 1.279-0.976 1.279m0.213-3.837c-0.38 0-0.761 0.094-0.999 0.308v-0.238h-1.355v6.349l1.355 0.52v-2.154c0.286 0.237 0.619 0.33 0.977 0.33 1.165 0 2.141-1.184 2.141-2.557 0-1.374-0.976-2.558-2.119-2.558" fill="#fff"/></g><g transform="translate(479.49 343.84)"><path d="m0 0c-0.191 0.332-0.547 0.475-0.88 0.475-0.548 0-0.977-0.568-0.977-1.279s0.429-1.281 0.999-1.281c0.311 0 0.667 0.143 0.858 0.475zm0-3.292v0.238c-0.238-0.214-0.714-0.308-1.095-0.308-1.143 0-2.118 1.184-2.118 2.558 0 1.373 0.975 2.557 2.142 2.557 0.357 0 0.785-0.093 1.071-0.33v1.634l1.261 0.52v-6.869z" fill="#fff"/></g><g transform="translate(495.77 344.39)"><path d="m0 0c-0.358 0-0.691-0.238-0.834-0.687h1.619c-0.19 0.498-0.404 0.687-0.785 0.687m-0.905-1.801c0.143-0.568 0.547-0.9 0.976-0.9 0.285 0 0.548 0.166 0.762 0.449l0.928-0.804c-0.499-0.592-1.024-0.852-1.69-0.852-1.261 0-2.355 1.113-2.355 2.558 0 1.421 1.07 2.557 2.284 2.557 0.808 0 1.547-0.497 1.903-1.278 0.192-0.45 0.285-0.925 0.285-1.54v-0.19z" fill="#fff"/></g><g transform="translate(490.03 340.55)"><path d="m0 0v6.349l1.355 0.52v-6.869z" fill="#fff"/></g><g transform="translate(472.84 340.58)"><path d="m0 0v2.961c0 0.45-0.308 0.804-0.833 0.804-0.476 0-0.952-0.377-0.952-0.78v-2.985h-1.356v4.926h1.356v-0.26c0.453 0.285 0.881 0.378 1.334 0.378 1.022 0 1.783-0.711 1.783-1.656v-3.388z" fill="#fff"/></g><g transform="translate(465.27 344.35)"><path d="m0 0c-0.524 0-0.927-0.566-0.927-1.303 0-0.709 0.403-1.277 0.927-1.277 0.499 0 0.95 0.568 0.95 1.277 0 0.737-0.451 1.303-0.95 1.303m0-3.859c-1.236 0-2.281 1.136-2.281 2.556 0 1.47 0.998 2.582 2.281 2.582 1.187 0 2.329-1.159 2.329-2.582 0-1.42-1.117-2.556-2.329-2.556" fill="#fff"/></g><g transform="translate(454.95 343.92)"><path d="m0 0c-0.191 0.307-0.526 0.424-0.789 0.424-0.594 0-0.786-0.354-0.786-1.041v-2.724h-1.359v4.926h1.359v-0.236c0.334 0.261 0.62 0.354 0.978 0.354 0.406 0 0.717-0.093 1.05-0.354z" fill="#fff"/></g><g transform="translate(465.4 374.54)"><path d="m0 0c-0.769 0-1.395 0.626-1.395 1.394v10.16c0 0.769 0.626 1.395 1.395 1.395h58.428c0.768 0 1.394-0.626 1.394-1.395v-10.16c0-0.768-0.626-1.394-1.394-1.394z" fill="#fff"/></g><g transform="translate(523.82 387.62)"><path d="m0 0h-58.428c-0.838 0-1.52-0.682-1.52-1.52v-10.16c0-0.838 0.682-1.519 1.52-1.519h58.428c0.837 0 1.519 0.681 1.519 1.519v10.16c0 0.838-0.682 1.52-1.519 1.52m0-0.25c0.701 0 1.269-0.569 1.269-1.27v-10.16c0-0.701-0.568-1.269-1.269-1.269h-58.428c-0.701 0-1.27 0.568-1.27 1.269v10.16c0 0.701 0.569 1.27 1.27 1.27h58.428"/></g><g transform="translate(464.97 375.94)"><path d="m0 0v10.16c0 0.235 0.19 0.424 0.423 0.424h58.428c0.233 0 0.422-0.189 0.422-0.424v-10.16c0-0.234-0.189-0.424-0.422-0.424h-58.428c-0.233 0-0.423 0.19-0.423 0.424" fill="#006f51"/></g><g transform="translate(472.14 378.9)"><path d="m0 0v4.233h3.1v-0.756h-2.326v-0.788h1.268v-0.771h-1.268v-1.16h2.401v-0.758z" fill="#fff"/></g><path d="m480.44 383.13h0.761v-4.233h-0.761z" fill="#fff"/><g transform="translate(483.88 382.39)"><path d="m0 0v-3.49h-0.74v3.49h-1.218v0.743h3.176v-0.743z" fill="#fff"/></g><g transform="translate(478.7 378.9)"><path d="m0 0-0.955 1.501-0.94-1.501h-0.896l1.388 2.228-1.268 2.005h0.91l0.806-1.292 0.806 1.292h0.909l-1.252-2.005 1.387-2.228z" fill="#fff"/></g><g transform="translate(492.27 377.82)"><path d="m0 0 0.022 4.746h-0.798l-0.021 0.914c0.486 0.111 0.753 0.289 0.997 0.691h0.907v-6.351z" fill="#fff"/></g><g transform="translate(501.26 377.82)"><path d="m0 0c0 0.758 0.157 1.314 0.515 1.937 0.559 0.937 1.365 1.517 2.529 1.828 0.716 0.201 0.962 0.424 0.962 0.803 0 0.468-0.447 0.735-1.253 0.735-0.828 0-1.432-0.2-1.97-0.69l-0.783 0.869c0.739 0.645 1.656 0.98 2.686 0.98 1.5 0 2.462-0.736 2.462-1.894 0-0.535-0.225-1.025-0.65-1.381-0.201-0.157-0.492-0.313-0.939-0.446-0.85-0.245-1.097-0.356-1.478-0.69-0.29-0.246-0.469-0.491-0.693-0.914h3.76v-1.137z" fill="#fff"/></g><g transform="translate(499.04 381)"><path d="m0 0c0 1.336-0.559 2.138-1.519 2.138-1.139 0-1.54-1.181-1.54-2.117 0-1.403 0.58-2.183 1.54-2.183 0.938 0 1.519 0.869 1.519 2.183zm-1.519-3.298c-1.898 0-2.68 1.626-2.68 3.298 0 1.67 0.805 3.275 2.68 3.275 1.899 0 2.658-1.65 2.658-3.254 0-1.626-0.737-3.319-2.658-3.319" fill="#fff"/></g><g transform="translate(513.85 382.6)"><path d="m0 0-0.892-2.138h1.783zm2.004-4.768-0.624 1.493h-2.762l-0.623-1.493h-1.248l2.673 6.351h1.159l2.65-6.351z" fill="#fff"/></g><g transform="translate(364.2 296.66)"><path d="m0 0c-0.754 0-1.369 0.614-1.369 1.369v9.957c0 0.756 0.615 1.371 1.369 1.371h74.683c0.755 0 1.369-0.615 1.369-1.371v-9.957c0-0.755-0.614-1.369-1.369-1.369z" fill="#fff"/></g><g transform="translate(438.89 309.48)"><path d="m0 0h-74.683c-0.824 0-1.494-0.671-1.494-1.496v-9.957c0-0.824 0.67-1.494 1.494-1.494h74.683c0.824 0 1.494 0.67 1.494 1.494v9.957c0 0.825-0.67 1.496-1.494 1.496m0-0.25c0.687 0 1.244-0.559 1.244-1.246v-9.957c0-0.688-0.557-1.244-1.244-1.244h-74.683c-0.686 0-1.244 0.556-1.244 1.244v9.957c0 0.687 0.558 1.246 1.244 1.246h74.683"/></g><g transform="translate(363.79 298.02)"><path d="m0 0v9.957c0 0.228 0.186 0.414 0.414 0.414h74.683c0.229 0 0.414-0.186 0.414-0.414v-9.957c0-0.23-0.185-0.415-0.414-0.415h-74.683c-0.228 0-0.414 0.185-0.414 0.415" fill="#006f51"/></g><g transform="translate(428.41 302.53)"><path d="m0 0h-1.778v-1.637h1.778c0.592 0 1.009 0.326 1.009 0.785 0 0.481-0.439 0.852-1.009 0.852m0 2.358h-1.778v-1.244h1.778c0.482 0 0.812 0.263 0.812 0.632 0 0.372-0.308 0.612-0.812 0.612m1.183-4.847c-0.306-0.175-0.635-0.263-0.964-0.263h-3.135v6.224h2.916c0.548 0 0.747-0.045 1.075-0.219 0.526-0.306 0.854-0.829 0.854-1.418 0-0.503-0.196-0.941-0.612-1.29 0.548-0.393 0.809-0.873 0.809-1.461 0-0.635-0.373-1.268-0.943-1.573" fill="#fff"/></g><g transform="translate(416.34 304.4)"><path d="m0 0-0.872-2.096h1.745zm1.965-4.672-0.611 1.463h-2.706l-0.613-1.463h-1.221l2.62 6.224h1.135l2.597-6.224z" fill="#fff"/></g><g transform="translate(372.55 300.85)"><path d="m0 0v4.149h3.039v-0.743h-2.279v-0.771h1.242v-0.756h-1.242v-1.137h2.351v-0.742z" fill="#fff"/></g><path d="m380.69 305h0.747v-4.149h-0.747z" fill="#fff"/><g transform="translate(387.25 302.71)"><path d="m0 0c-0.184 0.053-0.648 0.165-0.805 0.255-0.312 0.183-0.552 0.483-0.552 0.927 0 0.684 0.586 1.15 1.434 1.15 0.614 0 1.126-0.204 1.548-0.641l-0.554-0.495c-0.262 0.277-0.6 0.409-0.994 0.409-0.424 0-0.673-0.161-0.673-0.423 0-0.232 0.146-0.336 0.658-0.451 0.555-0.115 0.921-0.233 1.155-0.35 0.365-0.189 0.6-0.584 0.6-1.033 0-0.421-0.192-0.742-0.584-0.976-0.293-0.174-0.674-0.277-1.053-0.277-0.717 0-1.259 0.263-1.727 0.802l0.6 0.465c0.308-0.364 0.643-0.524 1.112-0.524 0.526 0 0.906 0.233 0.906 0.539 0 0.39-0.424 0.446-1.071 0.623" fill="#fff"/></g><g transform="translate(384.06 304.27)"><path d="m0 0v-3.421h-0.727v3.421h-1.193v0.728h3.112v-0.728z" fill="#fff"/></g><g transform="translate(378.98 300.85)"><path d="m0 0-0.936 1.471-0.922-1.471h-0.877l1.361 2.184-1.244 1.965h0.891l0.791-1.267 0.789 1.267h0.893l-1.229-1.965 1.36-2.184z" fill="#fff"/></g><path d="m420.54 303.45h3.131v-1.115h-3.131z" fill="#fff"/><g transform="translate(395.12 299.87)"><path d="m0 0 0.023 4.651h-0.781l-0.022 0.895c0.477 0.109 0.737 0.285 0.977 0.677h0.89v-6.223z" fill="#fff"/></g><g transform="translate(403.93 299.87)"><path d="m0 0c0 0.743 0.151 1.289 0.504 1.899 0.548 0.918 1.336 1.484 2.478 1.791 0.702 0.195 0.943 0.414 0.943 0.785 0 0.459-0.44 0.722-1.23 0.722-0.81 0-1.402-0.196-1.928-0.677l-0.767 0.852c0.723 0.633 1.622 0.961 2.63 0.961 1.47 0 2.413-0.721 2.413-1.858 0-0.524-0.22-1.004-0.636-1.353-0.198-0.153-0.482-0.305-0.922-0.436-0.833-0.24-1.075-0.349-1.446-0.678-0.285-0.239-0.461-0.48-0.68-0.894h3.684v-1.114z" fill="#fff"/></g><g transform="translate(401.75 302.99)"><path d="m0 0c0 1.311-0.546 2.095-1.488 2.095-1.115 0-1.51-1.155-1.51-2.073 0-1.375 0.57-2.14 1.51-2.14 0.92 0 1.488 0.851 1.488 2.14zm-1.488-3.231c-1.859 0-2.625 1.593-2.625 3.231s0.787 3.211 2.625 3.211c1.861 0 2.605-1.617 2.605-3.189 0-1.595-0.722-3.253-2.605-3.253" fill="#fff"/></g><g transform="translate(360.48 234.18)"><path d="m0 0c-2.815 0-5.105 2.289-5.105 5.104l-8e-3 52.275c0 2.815 2.29 5.104 5.104 5.104h74.673c2.814 0 5.103-2.289 5.103-5.104l8e-3 -52.275c0-2.815-2.289-5.104-5.103-5.104z" fill="#fff"/></g><g transform="translate(435.14 296.78)"><path d="m0 0h-74.673c-2.884 0-5.229-2.346-5.229-5.229l8e-3 -52.275c0-2.883 2.346-5.229 5.23-5.229h74.672c2.882 0 5.228 2.346 5.228 5.229l-8e-3 52.275c0 2.883-2.345 5.229-5.228 5.229m0-0.25c2.738 0 4.978-2.241 4.978-4.979l8e-3 -52.275c0-2.739-2.241-4.979-4.978-4.979h-74.672c-2.738 0-4.98 2.24-4.98 4.979l-8e-3 52.275c0 2.738 2.242 4.979 4.979 4.979h74.673"/></g><g transform="translate(360.48 235.13)"><path d="m0 0c-0.557 0-1.099 0.112-1.61 0.328-0.493 0.209-0.938 0.509-1.32 0.892-0.383 0.383-0.683 0.827-0.892 1.321-0.217 0.511-0.327 1.053-0.327 1.61l-8e-3 52.275c0 0.558 0.108 1.098 0.327 1.61 0.209 0.494 0.509 0.938 0.892 1.32 0.383 0.383 0.826 0.683 1.321 0.892 0.51 0.217 1.051 0.328 1.608 0.328h74.673c0.557 0 1.098-0.111 1.609-0.328 0.492-0.209 0.938-0.509 1.321-0.892 0.382-0.382 0.682-0.826 0.892-1.32 0.217-0.512 0.326-1.052 0.326-1.61l8e-3 -52.275c0-0.557-0.109-1.099-0.326-1.61-0.21-0.494-0.511-0.938-0.894-1.321-0.382-0.383-0.827-0.683-1.32-0.892-0.511-0.216-1.051-0.328-1.608-0.328z" fill="#006f51"/></g><g transform="translate(397.81 274.96)"><path d="m0 0c-0.668 0.801-1.668 1.291-2.709 1.291h-0.64c-2.26 0-4.102 1.846-4.102 4.116 0 1.4 0.89 2.427 0.89 3.879 0 0.984-0.333 2.007-0.907 2.787l2.956 2.851c0.609-0.515 1.428-0.842 2.238-0.842 0.827 0 1.664 0.313 2.274 0.856 0.607-0.543 1.447-0.856 2.273-0.856 0.811 0 1.629 0.327 2.239 0.842l2.955-2.851c-0.575-0.78-0.909-1.803-0.909-2.787 0-1.452 0.893-2.479 0.893-3.879 0-2.27-1.844-4.116-4.103-4.116h-0.64c-1.042 0-2.042-0.49-2.708-1.291" fill="#fff" fill-rule="evenodd"/></g><g transform="translate(400.73 278.56)"><path d="m0 0c-0.655 0-1.31 0.156-1.835 0.419l0.578 1.05c0.314-0.158 0.864-0.264 1.414-0.264 1.075 0 1.914 0.708 1.914 1.677 0 0.733-0.602 1.311-1.338 1.311-0.523 0-0.759-0.158-1.205-0.785l-1.179 0.338 0.183 3.854h4.299v-1.179h-3.145l-0.079-1.234c0.55 0.159 0.786 0.21 1.154 0.21 1.363 0 2.49-1.151 2.49-2.515 0-1.651-1.363-2.882-3.251-2.882"/></g><g transform="translate(394.7 281.95)"><path d="m0 0c-0.734 0-1.335-0.499-1.335-1.074 0-0.604 0.601-1.102 1.335-1.102 0.735 0 1.362 0.498 1.362 1.102 0 0.575-0.603 1.074-1.362 1.074m0-3.381c-1.441 0-2.541 1.049-2.541 2.384 0 2.07 1.153 4.194 2.881 5.346l0.603-0.996c-0.917-0.708-1.388-1.31-1.835-2.252 0.42 0.077 0.605 0.077 0.892 0.077 1.39 0 2.542-1.023 2.542-2.278 0-1.285-1.1-2.281-2.542-2.281"/></g><g transform="translate(371.34 263.77)"><path d="m0 0c-1.932 0-2.888 1.695-2.888 3.436 0 2.043 1.189 3.411 2.934 3.411 1.049 0 1.981-0.533 2.446-1.438l-1.165-0.628c-0.302 0.512-0.792 0.742-1.327 0.742-0.955 0-1.561-0.81-1.561-2.087 0-1.299 0.606-2.112 1.561-2.112 0.535 0 1.025 0.255 1.327 0.766l1.165-0.627c-0.582-0.929-1.35-1.463-2.492-1.463" fill="#fff"/></g><g transform="translate(378.22 265.84)"><path d="m0 0c-0.397 0.138-0.863 0.208-1.119 0.208-0.42 0-0.746-0.232-0.746-0.533 0-0.303 0.395-0.556 0.862-0.556 0.279 0 0.631 0.045 1.003 0.253zm0-1.952v0.164c-0.466-0.185-0.91-0.233-1.283-0.233-1.073 0-1.842 0.674-1.842 1.625 0 0.999 0.863 1.742 2.006 1.742 0.279 0 0.722-0.047 1.119-0.186-0.023 0.464-0.372 0.65-0.863 0.65-0.466 0-0.91-0.115-1.376-0.371l-0.49 1.044c0.723 0.372 1.213 0.511 1.866 0.511 1.33 0 2.123-0.651 2.123-1.997v-2.949z" fill="#fff"/></g><g transform="translate(415.48 265.84)"><path d="m0 0c-0.397 0.138-0.864 0.208-1.12 0.208-0.421 0-0.747-0.232-0.747-0.533 0-0.303 0.398-0.556 0.863-0.556 0.281 0 0.631 0.045 1.004 0.253zm0-1.952v0.164c-0.467-0.185-0.91-0.233-1.283-0.233-1.074 0-1.842 0.674-1.842 1.625 0 0.999 0.862 1.742 2.005 1.742 0.279 0 0.723-0.047 1.12-0.186-0.024 0.464-0.373 0.65-0.864 0.65-0.466 0-0.91-0.115-1.376-0.371l-0.491 1.044c0.725 0.372 1.215 0.511 1.867 0.511 1.33 0 2.122-0.651 2.122-1.997v-2.949z" fill="#fff"/></g><g transform="translate(389.15 267.58)"><path d="m0 0c-0.327 0-0.584-0.139-0.771-0.465v-1.576c0.187-0.327 0.444-0.466 0.746-0.466 0.559 0 0.98 0.557 0.98 1.254 0 0.696-0.421 1.253-0.955 1.253m0.208-3.761c-0.372 0-0.745 0.094-0.979 0.303v-0.234h-1.33v6.223l1.33 0.509v-2.112c0.279 0.232 0.607 0.326 0.957 0.326 1.142 0 2.099-1.163 2.099-2.507 0-1.346-0.957-2.508-2.077-2.508" fill="#fff"/></g><g transform="translate(409.06 267.11)"><path d="m0 0c-0.188 0.326-0.535 0.465-0.861 0.465-0.538 0-0.958-0.557-0.958-1.253 0-0.697 0.42-1.254 0.979-1.254 0.305 0 0.652 0.139 0.84 0.466zm0-3.227v0.234c-0.233-0.209-0.699-0.303-1.072-0.303-1.12 0-2.077 1.162-2.077 2.508 0 1.344 0.957 2.507 2.1 2.507 0.35 0 0.77-0.094 1.049-0.326v1.603l1.237 0.509v-6.732z" fill="#fff"/></g><g transform="translate(425.02 267.65)"><path d="m0 0c-0.349 0-0.675-0.232-0.817-0.673h1.587c-0.187 0.487-0.396 0.673-0.77 0.673m-0.886-1.764c0.141-0.556 0.537-0.882 0.955-0.882 0.281 0 0.539 0.163 0.746 0.44l0.911-0.788c-0.491-0.581-1.003-0.837-1.657-0.837-1.234 0-2.307 1.093-2.307 2.508 0 1.393 1.048 2.507 2.238 2.507 0.794 0 1.516-0.489 1.866-1.254 0.188-0.441 0.279-0.905 0.279-1.508v-0.186z" fill="#fff"/></g><g transform="translate(419.4 263.88)"><path d="m0 0v6.223l1.327 0.509v-6.732z" fill="#fff"/></g><g transform="translate(402.55 263.92)"><path d="m0 0v2.902c0 0.44-0.305 0.789-0.816 0.789-0.467 0-0.934-0.371-0.934-0.766v-2.925h-1.328v4.828h1.328v-0.254c0.444 0.277 0.863 0.371 1.306 0.371 1.003 0 1.749-0.698 1.749-1.625v-3.32z" fill="#fff"/></g><g transform="translate(395.13 267.61)"><path d="m0 0c-0.513 0-0.907-0.557-0.907-1.278 0-0.695 0.394-1.252 0.907-1.252 0.489 0 0.931 0.557 0.931 1.252 0 0.721-0.442 1.278-0.931 1.278m0-3.782c-1.211 0-2.235 1.114-2.235 2.504 0 1.44 0.977 2.532 2.235 2.532 1.165 0 2.282-1.137 2.282-2.532 0-1.39-1.094-2.504-2.282-2.504" fill="#fff"/></g><g transform="translate(385.01 267.19)"><path d="m0 0c-0.187 0.303-0.514 0.418-0.771 0.418-0.584 0-0.77-0.349-0.77-1.021v-2.67h-1.334v4.828h1.334v-0.232c0.326 0.255 0.607 0.349 0.957 0.349 0.397 0 0.701-0.094 1.028-0.349z" fill="#fff"/></g><g transform="translate(382.88 257.12)"><path d="m0 0c-0.957 0-1.47-0.696-1.47-2.088 0-1.347 0.538-2.112 1.47-2.112 0.911 0 1.472 0.834 1.472 2.135 0 1.44-0.537 2.065-1.472 2.065m0-5.524c-2.007 0-2.802 1.694-2.802 3.436 0 2.088 1.075 3.412 2.802 3.412 1.612 0 2.779-1.369 2.779-3.412 0-2.112-1.098-3.436-2.779-3.436" fill="#fff"/></g><g transform="translate(399.87 253.67)"><path d="m0 0c-0.396 0.139-0.863 0.208-1.12 0.208-0.419 0-0.745-0.231-0.745-0.533 0-0.301 0.395-0.557 0.861-0.557 0.282 0 0.631 0.047 1.004 0.256zm0-1.949v0.162c-0.466-0.185-0.91-0.232-1.283-0.232-1.072 0-1.842 0.674-1.842 1.625 0 0.998 0.862 1.741 2.005 1.741 0.281 0 0.724-0.048 1.12-0.185-0.023 0.463-0.373 0.649-0.863 0.649-0.467 0-0.909-0.116-1.375-0.372l-0.49 1.046c0.723 0.371 1.213 0.51 1.865 0.51 1.329 0 2.123-0.651 2.123-1.996v-2.948z" fill="#fff"/></g><g transform="translate(414.29 253.67)"><path d="m0 0c-0.397 0.139-0.865 0.208-1.12 0.208-0.419 0-0.745-0.231-0.745-0.533 0-0.301 0.395-0.557 0.862-0.557 0.279 0 0.63 0.047 1.003 0.256zm0-1.949v0.162c-0.466-0.185-0.91-0.232-1.283-0.232-1.072 0-1.844 0.674-1.844 1.625 0 0.998 0.865 1.741 2.007 1.741 0.281 0 0.723-0.048 1.12-0.185-0.024 0.463-0.373 0.649-0.865 0.649-0.465 0-0.908-0.116-1.375-0.372l-0.488 1.046c0.723 0.371 1.211 0.51 1.863 0.51 1.331 0 2.124-0.651 2.124-1.996v-2.948z" fill="#fff"/></g><g transform="translate(389.14 255.42)"><path d="m0 0v-1.81c0-0.44 0.093-0.696 0.584-0.651 0.348 0.026 0.42 0.118 0.652 0.349l-0.349-1.368c-0.444-0.186-0.397-0.256-0.864-0.256-0.91 0-1.33 0.533-1.33 1.486v2.25h-0.91v1.138h0.91v1.417l1.307 0.508v-1.9h1.236v-1.163z" fill="#fff"/></g><g transform="translate(393.98 255.42)"><path d="m0 0v-1.81c0-0.44 0.093-0.696 0.582-0.651 0.351 0.026 0.421 0.118 0.654 0.349l-0.35-1.368c-0.443-0.186-0.396-0.256-0.863-0.256-0.91 0-1.33 0.533-1.33 1.486v2.25h-0.91v1.138h0.91v1.417l1.307 0.508v-1.9h1.236v-1.163z" fill="#fff"/></g><g transform="translate(408.41 251.72)"><path d="m0 0h-1.287l-0.606 2.391-0.772-2.391h-1.285l-1.402 4.827h1.356l0.677-2.298 0.678 2.298h1.449l0.584-2.274 0.654 2.274h1.379z" fill="#fff"/></g><g transform="translate(405.66 241.56)"><path d="m0 0v4.148h3.039v-0.741h-2.28v-0.772h1.243v-0.757h-1.243v-1.136h2.353v-0.742z" fill="#fff"/></g><path d="m400.02 245.71h0.748v-4.148h-0.748z" fill="#fff"/><g transform="translate(401.85 241.56)"><path d="m0 0v4.148h0.744v-3.506h2.367v-0.642z" fill="#fff"/></g><g transform="translate(398.21 241.56)"><path d="m0 0v2.533l-1.229-2.533-1.214 2.533v-2.533h-0.731v4.148h0.731l1.214-2.46 1.229 2.46h0.729v-4.148z" fill="#fff"/></g><g transform="translate(387.63 240.52)"><path d="m0 0 0.022 4.65h-0.782l-0.022 0.896c0.478 0.11 0.739 0.285 0.978 0.677h0.889v-6.223z" fill="#fff"/></g><g transform="translate(364.2 207.33)"><path d="m0 0c-0.754 0-1.369 0.615-1.369 1.371v9.956c0 0.756 0.615 1.37 1.369 1.37h74.683c0.756 0 1.371-0.614 1.371-1.37v-9.956c0-0.756-0.615-1.371-1.371-1.371z" fill="#fff"/></g><g transform="translate(438.89 220.15)"><path d="m0 0h-74.683c-0.824 0-1.494-0.671-1.494-1.495v-9.956c0-0.826 0.67-1.496 1.494-1.496h74.683c0.825 0 1.496 0.67 1.496 1.496v9.956c0 0.824-0.671 1.495-1.496 1.495m0-0.25c0.688 0 1.246-0.557 1.246-1.245v-9.956c0-0.69-0.558-1.246-1.246-1.246h-74.683c-0.686 0-1.244 0.556-1.244 1.246v9.956c0 0.688 0.558 1.245 1.244 1.245h74.683"/></g><g transform="translate(363.79 208.7)"><path d="m0 0v9.956c0 0.229 0.186 0.415 0.414 0.415h74.683c0.229 0 0.414-0.186 0.414-0.415v-9.956c0-0.23-0.185-0.416-0.414-0.416h-74.683c-0.228 0-0.414 0.186-0.414 0.416" fill="#006f51"/></g><g transform="translate(428.41 213.21)"><path d="m0 0h-1.777v-1.638h1.777c0.591 0 1.008 0.327 1.008 0.786 0 0.48-0.439 0.852-1.008 0.852m0 2.357h-1.777v-1.244h1.777c0.481 0 0.811 0.261 0.811 0.632 0 0.373-0.308 0.612-0.811 0.612m1.184-4.847c-0.308-0.175-0.636-0.263-0.966-0.263h-3.135v6.224h2.917c0.548 0 0.746-0.043 1.074-0.219 0.526-0.305 0.854-0.83 0.854-1.418 0-0.503-0.196-0.94-0.612-1.29 0.548-0.392 0.81-0.873 0.81-1.462 0-0.634-0.374-1.267-0.942-1.572" fill="#fff"/></g><g transform="translate(416.34 215.07)"><path d="m0 0-0.874-2.095h1.747zm1.963-4.672-0.611 1.462h-2.706l-0.611-1.462h-1.223l2.62 6.223h1.135l2.597-6.223z" fill="#fff"/></g><g transform="translate(372.55 211.53)"><path d="m0 0v4.147h3.039v-0.742h-2.279v-0.771h1.243v-0.756h-1.243v-1.136h2.351v-0.742z" fill="#fff"/></g><path d="m380.69 215.67h0.747v-4.147h-0.747z" fill="#fff"/><g transform="translate(387.26 213.39)"><path d="m0 0c-0.186 0.051-0.65 0.162-0.807 0.255-0.312 0.183-0.552 0.483-0.552 0.926 0 0.683 0.586 1.15 1.434 1.15 0.614 0 1.126-0.204 1.55-0.64l-0.556-0.496c-0.262 0.276-0.6 0.409-0.994 0.409-0.424 0-0.673-0.161-0.673-0.423 0-0.234 0.147-0.335 0.659-0.451 0.554-0.117 0.92-0.233 1.154-0.35 0.365-0.189 0.6-0.583 0.6-1.033 0-0.422-0.19-0.742-0.584-0.976-0.293-0.175-0.674-0.277-1.055-0.277-0.715 0-1.256 0.263-1.725 0.801l0.6 0.465c0.309-0.363 0.644-0.523 1.112-0.523 0.526 0 0.906 0.234 0.906 0.538 0 0.391-0.423 0.447-1.069 0.625" fill="#fff"/></g><g transform="translate(384.06 214.95)"><path d="m0 0v-3.421h-0.727v3.421h-1.191v0.726h3.111v-0.726z" fill="#fff"/></g><g transform="translate(378.98 211.53)"><path d="m0 0-0.935 1.469-0.923-1.469h-0.877l1.361 2.183-1.244 1.964h0.893l0.79-1.265 0.788 1.265h0.893l-1.229-1.964 1.36-2.183z" fill="#fff"/></g><path d="m420.54 214.12h3.131v-1.115h-3.131z" fill="#fff"/><g transform="translate(395.12 210.54)"><path d="m0 0 0.022 4.652h-0.781l-0.022 0.895c0.479 0.109 0.738 0.285 0.977 0.677h0.89v-6.224z" fill="#fff"/></g><g transform="translate(403.93 210.54)"><path d="m0 0c0 0.744 0.152 1.29 0.504 1.901 0.548 0.917 1.338 1.484 2.478 1.789 0.702 0.197 0.943 0.417 0.943 0.788 0 0.457-0.439 0.721-1.228 0.721-0.812 0-1.404-0.198-1.93-0.678l-0.767 0.852c0.724 0.632 1.622 0.959 2.631 0.959 1.469 0 2.412-0.719 2.412-1.854 0-0.525-0.219-1.006-0.635-1.354-0.198-0.155-0.483-0.306-0.922-0.438-0.834-0.24-1.074-0.349-1.447-0.676-0.285-0.24-0.46-0.48-0.68-0.895h3.684v-1.115z" fill="#fff"/></g><g transform="translate(401.75 213.67)"><path d="m0 0c0 1.309-0.548 2.094-1.49 2.094-1.115 0-1.51-1.156-1.51-2.074 0-1.374 0.57-2.138 1.51-2.138 0.92 0 1.49 0.851 1.49 2.138zm-1.49-3.232c-1.859 0-2.625 1.594-2.625 3.232 0 1.637 0.787 3.208 2.625 3.208 1.861 0 2.605-1.615 2.605-3.188 0-1.593-0.721-3.252-2.605-3.252" fill="#fff"/></g><g transform="translate(360.48 144.85)"><path d="m0 0c-2.815 0-5.104 2.289-5.104 5.104l-9e-3 52.276c0 2.813 2.29 5.102 5.105 5.102h74.672c2.814 0 5.103-2.289 5.103-5.102l0.01-52.276c0-2.815-2.289-5.104-5.103-5.104z" fill="#fff"/></g><g transform="translate(435.14 207.46)"><path d="m0 0h-74.672c-2.884 0-5.23-2.344-5.23-5.227l9e-3 -52.276c0-2.883 2.346-5.229 5.229-5.229h74.674c2.882 0 5.228 2.346 5.228 5.229l-0.01 52.276c0 2.883-2.345 5.227-5.228 5.227m0-0.25c2.738 0 4.978-2.239 4.978-4.977l0.01-52.276c0-2.739-2.242-4.979-4.978-4.979h-74.674c-2.738 0-4.979 2.24-4.979 4.979l-9e-3 52.276c0 2.738 2.242 4.977 4.98 4.977h74.672"/></g><g transform="translate(360.48 145.81)"><path d="m0 0c-0.557 0-1.099 0.11-1.61 0.327-0.493 0.209-0.938 0.51-1.32 0.893s-0.683 0.827-0.892 1.32c-0.217 0.511-0.327 1.052-0.327 1.61l-7e-3 52.276c0 0.558 0.107 1.097 0.326 1.609 0.209 0.493 0.509 0.938 0.892 1.321 0.383 0.381 0.826 0.683 1.321 0.891 0.51 0.217 1.052 0.328 1.609 0.328h74.672c0.557 0 1.099-0.111 1.609-0.328 0.492-0.208 0.938-0.51 1.321-0.891 0.382-0.383 0.682-0.828 0.892-1.321 0.217-0.512 0.326-1.051 0.326-1.609l8e-3 -52.277c0-0.557-0.108-1.098-0.326-1.609-0.209-0.493-0.51-0.937-0.893-1.32-0.382-0.383-0.826-0.684-1.32-0.893-0.512-0.217-1.051-0.327-1.607-0.327z" fill="#006f51"/></g><g transform="translate(397.81 185.64)"><path d="m0 0c-0.666 0.799-1.668 1.289-2.709 1.289h-0.64c-2.26 0-4.102 1.848-4.102 4.115 0 1.402 0.891 2.429 0.891 3.88 0 0.986-0.334 2.008-0.908 2.788l2.957 2.851c0.608-0.516 1.427-0.841 2.239-0.841 0.825 0 1.662 0.312 2.272 0.854 0.608-0.542 1.447-0.854 2.273-0.854 0.811 0 1.63 0.325 2.239 0.841l2.957-2.851c-0.577-0.78-0.911-1.802-0.911-2.788 0-1.451 0.894-2.478 0.894-3.88 0-2.267-1.845-4.115-4.103-4.115h-0.641c-1.041 0-2.041-0.49-2.708-1.289" fill="#fff" fill-rule="evenodd"/></g><g transform="translate(400.73 189.24)"><path d="m0 0c-0.656 0-1.311 0.155-1.835 0.419l0.577 1.048c0.314-0.158 0.864-0.262 1.414-0.262 1.075 0 1.914 0.707 1.914 1.677 0 0.734-0.602 1.309-1.336 1.309-0.525 0-0.76-0.156-1.207-0.785l-1.179 0.34 0.183 3.852h4.299v-1.178h-3.145l-0.079-1.234c0.55 0.158 0.786 0.211 1.155 0.211 1.362 0 2.489-1.153 2.489-2.515 0-1.652-1.363-2.882-3.25-2.882"/></g><g transform="translate(394.7 192.62)"><path d="m0 0c-0.735 0-1.336-0.498-1.336-1.075 0-0.603 0.601-1.1 1.336-1.1 0.734 0 1.363 0.497 1.363 1.1 0 0.577-0.604 1.075-1.363 1.075m0-3.38c-1.442 0-2.542 1.047-2.542 2.384 0 2.071 1.153 4.192 2.881 5.346l0.603-0.996c-0.917-0.708-1.388-1.311-1.835-2.255 0.42 0.078 0.605 0.078 0.893 0.078 1.389 0 2.541-1.02 2.541-2.278 0-1.285-1.1-2.279-2.541-2.279"/></g><g transform="translate(371.34 174.45)"><path d="m0 0c-1.932 0-2.888 1.695-2.888 3.436 0 2.041 1.189 3.412 2.935 3.412 1.049 0 1.98-0.534 2.445-1.439l-1.165-0.627c-0.302 0.51-0.792 0.742-1.327 0.742-0.954 0-1.559-0.812-1.559-2.088 0-1.299 0.605-2.113 1.559-2.113 0.535 0 1.025 0.256 1.327 0.767l1.165-0.627c-0.581-0.928-1.35-1.463-2.492-1.463" fill="#fff"/></g><g transform="translate(378.22 176.51)"><path d="m0 0c-0.398 0.14-0.864 0.209-1.12 0.209-0.42 0-0.746-0.232-0.746-0.533 0-0.303 0.396-0.558 0.862-0.558 0.279 0 0.631 0.046 1.004 0.255zm0-1.95v0.163c-0.467-0.185-0.91-0.232-1.283-0.232-1.074 0-1.843 0.674-1.843 1.625 0 0.997 0.863 1.74 2.006 1.74 0.279 0 0.722-0.046 1.12-0.186-0.024 0.465-0.373 0.651-0.864 0.651-0.466 0-0.909-0.116-1.376-0.371l-0.49 1.045c0.723 0.37 1.213 0.509 1.866 0.509 1.33 0 2.123-0.649 2.123-1.995v-2.949z" fill="#fff"/></g><g transform="translate(415.48 176.51)"><path d="m0 0c-0.396 0.14-0.864 0.209-1.12 0.209-0.419 0-0.745-0.232-0.745-0.533 0-0.303 0.396-0.558 0.861-0.558 0.281 0 0.631 0.046 1.004 0.255zm0-1.95v0.163c-0.467-0.185-0.91-0.232-1.283-0.232-1.073 0-1.842 0.674-1.842 1.625 0 0.997 0.862 1.74 2.005 1.74 0.279 0 0.724-0.046 1.12-0.186-0.024 0.465-0.373 0.651-0.864 0.651-0.466 0-0.91-0.116-1.375-0.371l-0.49 1.045c0.723 0.37 1.213 0.509 1.865 0.509 1.33 0 2.123-0.649 2.123-1.995v-2.949z" fill="#fff"/></g><g transform="translate(389.15 178.25)"><path d="m0 0c-0.327 0-0.583-0.139-0.771-0.464v-1.578c0.188-0.326 0.444-0.465 0.746-0.465 0.561 0 0.98 0.557 0.98 1.255 0 0.696-0.419 1.252-0.955 1.252m0.21-3.76c-0.374 0-0.746 0.093-0.981 0.302v-0.233h-1.33v6.221l1.33 0.511v-2.113c0.279 0.233 0.607 0.325 0.957 0.325 1.142 0 2.099-1.161 2.099-2.505 0-1.347-0.957-2.508-2.075-2.508" fill="#fff"/></g><g transform="translate(409.06 177.79)"><path d="m0 0c-0.186 0.325-0.535 0.464-0.861 0.464-0.538 0-0.958-0.556-0.958-1.252 0-0.698 0.42-1.255 0.979-1.255 0.305 0 0.654 0.139 0.84 0.465zm0-3.227v0.233c-0.233-0.209-0.699-0.302-1.072-0.302-1.12 0-2.077 1.161-2.077 2.508 0 1.344 0.957 2.505 2.1 2.505 0.35 0 0.77-0.092 1.049-0.325v1.602l1.237 0.511v-6.732z" fill="#fff"/></g><g transform="translate(425.02 178.32)"><path d="m0 0c-0.35 0-0.676-0.233-0.818-0.673h1.587c-0.187 0.487-0.396 0.673-0.769 0.673m-0.887-1.764c0.141-0.558 0.537-0.883 0.957-0.883 0.279 0 0.535 0.163 0.746 0.442l0.909-0.79c-0.489-0.579-1.003-0.835-1.655-0.835-1.236 0-2.308 1.091-2.308 2.508 0 1.391 1.047 2.505 2.238 2.505 0.793 0 1.515-0.487 1.865-1.253 0.188-0.441 0.281-0.906 0.281-1.508v-0.186z" fill="#fff"/></g><g transform="translate(419.4 174.56)"><path d="m0 0v6.221l1.328 0.511v-6.732z" fill="#fff"/></g><g transform="translate(402.55 174.6)"><path d="m0 0v2.901c0 0.442-0.304 0.789-0.816 0.789-0.467 0-0.934-0.371-0.934-0.765v-2.925h-1.328v4.828h1.328v-0.257c0.444 0.279 0.865 0.373 1.307 0.373 1.003 0 1.75-0.698 1.75-1.625v-3.319z" fill="#fff"/></g><g transform="translate(395.13 178.29)"><path d="m0 0c-0.513 0-0.907-0.557-0.907-1.277 0-0.697 0.394-1.253 0.907-1.253 0.489 0 0.933 0.556 0.933 1.253 0 0.72-0.444 1.277-0.933 1.277m0-3.784c-1.21 0-2.233 1.114-2.233 2.507 0 1.44 0.976 2.531 2.233 2.531 1.165 0 2.283-1.138 2.283-2.531s-1.095-2.507-2.283-2.507" fill="#fff"/></g><g transform="translate(385.01 177.87)"><path d="m0 0c-0.186 0.301-0.513 0.418-0.771 0.418-0.584 0-0.77-0.347-0.77-1.021v-2.669h-1.334v4.828h1.334v-0.232c0.326 0.254 0.607 0.348 0.957 0.348 0.398 0 0.702-0.094 1.028-0.348z" fill="#fff"/></g><g transform="translate(382.88 167.8)"><path d="m0 0c-0.957 0-1.471-0.697-1.471-2.091 0-1.344 0.538-2.11 1.471-2.11 0.91 0 1.471 0.835 1.471 2.135 0 1.438-0.535 2.066-1.471 2.066m0-5.524c-2.008 0-2.803 1.694-2.803 3.433 0 2.091 1.076 3.414 2.803 3.414 1.611 0 2.779-1.37 2.779-3.414 0-2.11-1.097-3.433-2.779-3.433" fill="#fff"/></g><g transform="translate(399.87 164.34)"><path d="m0 0c-0.396 0.139-0.863 0.208-1.119 0.208-0.42 0-0.746-0.231-0.746-0.534 0-0.302 0.397-0.558 0.861-0.558 0.282 0 0.631 0.047 1.004 0.256zm0-1.951v0.163c-0.466-0.185-0.91-0.232-1.283-0.232-1.072 0-1.842 0.673-1.842 1.625 0 0.997 0.863 1.74 2.006 1.74 0.28 0 0.723-0.045 1.119-0.186-0.023 0.465-0.373 0.651-0.863 0.651-0.467 0-0.908-0.116-1.375-0.371l-0.49 1.044c0.723 0.371 1.213 0.51 1.865 0.51 1.329 0 2.123-0.649 2.123-1.996v-2.948z" fill="#fff"/></g><g transform="translate(414.29 164.34)"><path d="m0 0c-0.397 0.139-0.863 0.208-1.119 0.208-0.42 0-0.746-0.231-0.746-0.534 0-0.302 0.396-0.558 0.862-0.558 0.279 0 0.63 0.047 1.003 0.256zm0-1.951v0.163c-0.466-0.185-0.91-0.232-1.283-0.232-1.072 0-1.843 0.673-1.843 1.625 0 0.997 0.865 1.74 2.007 1.74 0.28 0 0.722-0.045 1.119-0.186-0.024 0.465-0.373 0.651-0.863 0.651-0.467 0-0.908-0.116-1.377-0.371l-0.488 1.044c0.723 0.371 1.212 0.51 1.865 0.51 1.33 0 2.122-0.649 2.122-1.996v-2.948z" fill="#fff"/></g><g transform="translate(389.14 166.1)"><path d="m0 0v-1.809c0-0.443 0.093-0.697 0.584-0.651 0.35 0.023 0.42 0.115 0.652 0.349l-0.349-1.37c-0.443-0.186-0.397-0.255-0.864-0.255-0.91 0-1.33 0.533-1.33 1.484v2.252h-0.91v1.138h0.91v1.416l1.307 0.511v-1.905h1.236v-1.16z" fill="#fff"/></g><g transform="translate(393.98 166.1)"><path d="m0 0v-1.809c0-0.443 0.093-0.697 0.584-0.651 0.349 0.023 0.419 0.115 0.653 0.349l-0.351-1.37c-0.443-0.186-0.396-0.255-0.863-0.255-0.91 0-1.329 0.533-1.329 1.484v2.252h-0.911v1.138h0.911v1.416l1.306 0.511v-1.905h1.237v-1.16z" fill="#fff"/></g><g transform="translate(408.41 162.39)"><path d="m0 0h-1.286l-0.607 2.392-0.771-2.392h-1.285l-1.402 4.828h1.355l0.677-2.298 0.678 2.298h1.449l0.584-2.275 0.654 2.275h1.379z" fill="#fff"/></g><g transform="translate(405.08 152.2)"><path d="m0 0v4.149h3.039v-0.742h-2.279v-0.772h1.241v-0.758h-1.241v-1.134h2.353v-0.743z" fill="#fff"/></g><path d="m399.43 156.35h0.747v-4.149h-0.747z" fill="#fff"/><g transform="translate(401.26 152.2)"><path d="m0 0v4.149h0.746v-3.509h2.365v-0.64z" fill="#fff"/></g><g transform="translate(397.62 152.2)"><path d="m0 0v2.533l-1.226-2.533-1.215 2.533v-2.533h-0.729v4.149h0.729l1.215-2.462 1.226 2.462h0.731v-4.149z" fill="#fff"/></g><g transform="translate(410.32 154.07)"><path d="m0 0c-0.184 0.051-0.65 0.161-0.805 0.254-0.312 0.182-0.552 0.481-0.552 0.927 0 0.684 0.585 1.149 1.434 1.149 0.613 0 1.126-0.204 1.55-0.64l-0.556-0.495c-0.265 0.276-0.601 0.407-0.994 0.407-0.425 0-0.674-0.159-0.674-0.421 0-0.233 0.147-0.335 0.658-0.453 0.556-0.116 0.921-0.233 1.156-0.348 0.365-0.19 0.599-0.582 0.599-1.034 0-0.422-0.189-0.743-0.586-0.976-0.292-0.174-0.672-0.275-1.053-0.275-0.714 0-1.256 0.26-1.723 0.799l0.598 0.466c0.308-0.363 0.644-0.523 1.112-0.523 0.526 0 0.907 0.232 0.907 0.538 0 0.39-0.424 0.447-1.071 0.625" fill="#fff"/></g><g transform="translate(383.49 151.22)"><path d="m0 0c0 0.731 0.151 1.268 0.496 1.869 0.539 0.902 1.316 1.461 2.437 1.761 0.692 0.195 0.93 0.409 0.93 0.776 0 0.45-0.432 0.708-1.209 0.708-0.799 0-1.381-0.193-1.899-0.666l-0.755 0.837c0.711 0.624 1.595 0.946 2.589 0.946 1.446 0 2.375-0.709 2.375-1.825 0-0.516-0.217-0.989-0.627-1.333-0.193-0.151-0.474-0.302-0.906-0.43-0.82-0.236-1.058-0.345-1.424-0.666-0.281-0.236-0.455-0.473-0.67-0.881h3.627v-1.096z" fill="#fff"/></g><g transform="translate(361.66 653.13)"><path d="m0 0c-3.472 0-6.297 2.825-6.297 6.297v41.151c0 3.473 2.825 6.298 6.297 6.298h106.99c3.472 0 6.297-2.825 6.297-6.298v-41.151c0-3.472-2.825-6.297-6.297-6.297z" fill="#fff"/></g><g transform="translate(468.65 707)"><path d="m0 0h-106.99c-3.542 0-6.422-2.881-6.422-6.423v-41.15c0-3.542 2.88-6.423 6.422-6.423h106.99c3.542 0 6.422 2.881 6.422 6.423v41.15c0 3.542-2.88 6.423-6.422 6.423m0-0.25c3.395 0 6.172-2.778 6.172-6.173v-41.15c0-3.395-2.777-6.173-6.172-6.173h-106.99c-3.395 0-6.172 2.778-6.172 6.173v41.15c0 3.395 2.777 6.173 6.172 6.173h106.99"/></g><g transform="translate(361.66 654.62)"><path d="m0 0c-0.645 0-1.271 0.127-1.86 0.378-0.572 0.243-1.088 0.59-1.529 1.034-0.443 0.442-0.791 0.957-1.034 1.528-0.25 0.59-0.379 1.217-0.379 1.861v41.15c0 0.645 0.129 1.271 0.379 1.861 0.243 0.571 0.591 1.086 1.034 1.528 0.441 0.444 0.957 0.791 1.529 1.034 0.589 0.251 1.215 0.379 1.86 0.379h106.99c0.645 0 1.27-0.128 1.86-0.379 0.573-0.243 1.087-0.59 1.529-1.034 0.445-0.442 0.791-0.957 1.034-1.528 0.25-0.59 0.379-1.216 0.379-1.861v-41.15c0-0.644-0.129-1.271-0.379-1.861-0.243-0.571-0.589-1.086-1.034-1.528-0.442-0.444-0.956-0.791-1.529-1.034-0.59-0.251-1.215-0.378-1.86-0.378z" fill="#006f51"/></g><g transform="translate(371.95 685.76)"><path d="m0 0c-0.735 0.881-1.837 1.42-2.985 1.42h-0.703c-2.492 0-4.523 2.038-4.523 4.536 0 1.544 0.981 2.677 0.981 4.276 0 1.085-0.367 2.212-0.999 3.072l3.258 3.142c0.671-0.568 1.574-0.927 2.467-0.927 0.911 0 1.834 0.343 2.504 0.941 0.671-0.598 1.596-0.941 2.505-0.941 0.894 0 1.795 0.359 2.467 0.927l3.259-3.142c-0.635-0.86-1.001-1.987-1.001-3.072 0-1.599 0.981-2.732 0.981-4.276 0-2.498-2.03-4.536-4.52-4.536h-0.704c-1.15 0-2.252-0.539-2.987-1.42" fill="#fff" fill-rule="evenodd"/></g><g transform="translate(368.95 696.2)"><path d="m0 0-2.348-3.089h2.348zm1.304-4.273v-2.051h-1.304v2.051h-4.088v0.779l4.088 5.4h1.304v-4.995h0.784v-1.184z"/></g><g transform="translate(376.57 696.29)"><path d="m0 0c-0.26 0.434-0.578 0.607-1.071 0.636-0.637 0.029-1.042-0.289-1.332-1.011-0.203-0.491-0.318-1.241-0.318-1.934 0-0.867 0.173-1.762 0.492-2.282 0.261-0.433 0.608-0.635 1.127-0.635 0.61 0 0.987 0.317 1.276 1.038 0.173 0.434 0.317 1.243 0.317 1.879 0 0.923-0.172 1.761-0.491 2.309m0.897-5.63c-0.464-0.636-1.128-0.925-1.999-0.925-1.156 0-1.88 0.462-2.372 1.473-0.348 0.693-0.578 1.79-0.578 2.773 0 1.356 0.347 2.569 0.897 3.35 0.492 0.634 1.158 0.923 2.112 0.923 1.043 0 1.766-0.462 2.288-1.473 0.347-0.721 0.55-1.761 0.55-2.8 0-1.3-0.318-2.6-0.898-3.321"/></g><g transform="translate(366.91 659.98)"><path d="m0 0c-2.135 0-3.192 1.873-3.192 3.798 0 2.258 1.312 3.771 3.242 3.771 1.161 0 2.19-0.59 2.705-1.591l-1.287-0.692c-0.335 0.564-0.876 0.821-1.468 0.821-1.056 0-1.726-0.899-1.726-2.309 0-1.438 0.67-2.336 1.726-2.336 0.592 0 1.133 0.283 1.468 0.848l1.287-0.694c-0.643-1.026-1.493-1.616-2.755-1.616" fill="#fff"/></g><g transform="translate(393.17 662.26)"><path d="m0 0c-0.44 0.154-0.957 0.231-1.239 0.231-0.465 0-0.825-0.256-0.825-0.59s0.439-0.617 0.954-0.617c0.308 0 0.696 0.052 1.11 0.283zm0-2.155v0.179c-0.517-0.205-1.007-0.256-1.421-0.256-1.184 0-2.036 0.744-2.036 1.796 0 1.103 0.955 1.924 2.218 1.924 0.309 0 0.799-0.051 1.239-0.205-0.027 0.513-0.414 0.718-0.957 0.718-0.513 0-1.004-0.128-1.52-0.41l-0.541 1.155c0.799 0.41 1.34 0.564 2.061 0.564 1.471 0 2.348-0.718 2.348-2.207v-3.258z" fill="#fff"/></g><g transform="translate(387.53 660.51)"><path d="m0 0c-0.438-0.308-0.98-0.487-1.522-0.487-1.521 0-2.759 1.154-2.759 2.77 0 1.592 1.238 2.772 2.759 2.772 0.62 0 1.266-0.231 1.702-0.641 0.13-0.103 0.205-0.206 0.388-0.411l-0.98-1.206c-0.207 0.564-0.62 0.872-1.11 0.872-0.694 0-1.313-0.59-1.313-1.386 0-0.795 0.619-1.385 1.313-1.385 0.439 0 0.775 0.206 1.059 0.693l1.031-1.026c-0.233-0.282-0.337-0.411-0.568-0.565" fill="#fff"/></g><g transform="translate(400.31 663.67)"><path d="m0 0c-0.233 0.333-0.672 0.513-1.031 0.513-0.594 0-1.007-0.564-1.007-1.361 0-0.795 0.413-1.41 1.007-1.41 0.359 0 0.773 0.154 1.031 0.513zm0.824-5.184c-0.258-0.308-1.47-1.078-1.754-1.103l-0.592 1.258c0.592 0.307 0.876 0.487 1.109 0.693 0.232 0.179 0.413 0.512 0.413 0.769v0.334c-0.362-0.283-0.852-0.411-1.265-0.411-1.211 0-2.217 1.257-2.217 2.771s1.032 2.771 2.217 2.771c0.44 0 0.929-0.102 1.265-0.359v0.232h1.366v-5.159c0-0.872-0.13-1.308-0.542-1.796" fill="#fff"/></g><g transform="translate(375.13 660.1)"><path d="m0 0v3.208c0 0.487-0.362 0.872-0.852 0.872-0.517 0-1.083-0.385-1.083-0.822v-3.258h-1.468v6.877l1.468 0.564v-2.386c0.62 0.333 0.979 0.436 1.469 0.436 1.058 0 1.909-0.796 1.909-1.796v-3.695z" fill="#fff"/></g><g transform="translate(380.23 666.11)"><path d="m0 0c-0.389 0-0.697 0.333-0.697 0.719 0 0.41 0.308 0.718 0.697 0.718 0.41 0 0.72-0.308 0.72-0.718 0-0.386-0.31-0.719-0.72-0.719m-0.722-0.667h1.467v-5.337h-1.467z" fill="#fff"/></g><g transform="translate(406.42 664.22)"><path d="m0 0c-0.567 0-1.005-0.616-1.005-1.412 0-0.77 0.438-1.386 1.005-1.386 0.539 0 1.029 0.616 1.029 1.386 0 0.796-0.49 1.412-1.029 1.412m0-4.183c-1.339 0-2.473 1.232-2.473 2.771 0 1.591 1.083 2.797 2.473 2.797 1.287 0 2.524-1.257 2.524-2.797 0-1.539-1.211-2.771-2.524-2.771" fill="#fff"/></g><g transform="translate(367.92 674.34)"><path d="m0 0h-1.549l-2.654 7.338h1.547l1.882-5.156 1.804 5.156h1.522z" fill="#fff"/></g><g transform="translate(381.52 677.9)"><path d="m0 0c-0.207 0.359-0.596 0.513-0.955 0.513-0.594 0-1.057-0.616-1.057-1.386s0.463-1.385 1.083-1.385c0.333 0 0.722 0.154 0.929 0.513zm0-3.567v0.257c-0.261-0.231-0.774-0.334-1.187-0.334-1.239 0-2.295 1.283-2.295 2.771s1.056 2.771 2.32 2.771c0.388 0 0.851-0.102 1.162-0.359v1.77l1.365 0.565v-7.441z" fill="#fff"/></g><g transform="translate(374.05 678.49)"><path d="m0 0c-0.387 0-0.746-0.256-0.901-0.744h1.752c-0.205 0.539-0.439 0.744-0.851 0.744m-0.98-1.95c0.155-0.616 0.593-0.975 1.056-0.975 0.311 0 0.595 0.179 0.827 0.487l1.005-0.872c-0.542-0.642-1.108-0.924-1.832-0.924-1.364 0-2.551 1.206-2.551 2.771 0 1.54 1.16 2.772 2.475 2.772 0.878 0 1.676-0.54 2.064-1.386 0.206-0.488 0.307-1.001 0.307-1.668v-0.205z" fill="#fff"/></g><g transform="translate(387.64 678.49)"><path d="m0 0c-0.389 0-0.748-0.256-0.901-0.744h1.751c-0.204 0.539-0.437 0.744-0.85 0.744m-0.979-1.95c0.154-0.616 0.59-0.975 1.056-0.975 0.31 0 0.593 0.179 0.825 0.487l1.006-0.872c-0.542-0.642-1.109-0.924-1.831-0.924-1.367 0-2.553 1.206-2.553 2.771 0 1.54 1.162 2.772 2.476 2.772 0.877 0 1.676-0.54 2.062-1.386 0.207-0.488 0.31-1.001 0.31-1.668v-0.205z" fill="#fff"/></g><g transform="translate(427.18 677.9)"><path d="m0 0c-0.233 0.333-0.671 0.513-1.031 0.513-0.594 0-1.007-0.564-1.007-1.36s0.413-1.411 1.007-1.411c0.36 0 0.773 0.154 1.031 0.513zm0.823-5.184c-0.256-0.308-1.469-1.078-1.752-1.103l-0.593 1.258c0.593 0.307 0.876 0.487 1.109 0.693 0.23 0.179 0.413 0.513 0.413 0.769v0.334c-0.361-0.283-0.852-0.411-1.264-0.411-1.211 0-2.218 1.257-2.218 2.771s1.033 2.771 2.218 2.771c0.438 0 0.929-0.102 1.264-0.359v0.231h1.365v-5.158c0-0.872-0.128-1.308-0.542-1.796" fill="#fff"/></g><g transform="translate(395.46 677.99)"><path d="m0 0c-0.206 0.334-0.568 0.462-0.853 0.462-0.645 0-0.853-0.385-0.853-1.129v-2.952h-1.472v5.338h1.472v-0.256c0.362 0.282 0.673 0.385 1.061 0.385 0.439 0 0.775-0.103 1.136-0.385z" fill="#fff"/></g><g transform="translate(422.11 677.99)"><path d="m0 0c-0.207 0.334-0.57 0.462-0.854 0.462-0.646 0-0.852-0.385-0.852-1.129v-2.952h-1.473v5.338h1.473v-0.256c0.362 0.282 0.67 0.385 1.059 0.385 0.44 0 0.775-0.103 1.137-0.385z" fill="#fff"/></g><g transform="translate(401.29 674.84)"><path d="m0 0c-0.464-0.385-1.088-0.539-1.944-0.539-1.01 0-1.658 0.128-2.436 0.513l0.57 1.283c0.545-0.257 1.271-0.41 1.815-0.41 0.596 0 0.985 0.102 0.985 0.308 0 0.154-0.129 0.282-0.414 0.333-0.286 0.077-0.883 0.205-1.115 0.282-1.167 0.334-1.685 0.873-1.685 1.694 0 0.949 0.854 1.539 2.204 1.539 0.75 0 1.476-0.154 2.331-0.564l-0.57-1.283c-0.543 0.282-1.217 0.462-1.709 0.462-0.546 0-0.78-0.076-0.78-0.283 0-0.205 0.104-0.256 0.883-0.384 1.555-0.308 2.331-0.873 2.331-1.873 0-0.462-0.128-0.796-0.466-1.078" fill="#fff"/></g><g transform="translate(414.61 674.37)"><path d="m0 0v0.334c-0.541-0.359-0.877-0.411-1.42-0.411-0.644 0-1.108 0.155-1.494 0.54-0.337 0.333-0.541 0.795-0.541 1.283v3.592h1.468v-3.105c0-0.513 0.336-0.899 0.903-0.899 0.516 0 1.007 0.412 1.007 0.848v3.156h1.468v-5.338z" fill="#fff"/></g><g transform="translate(406.35 678.42)"><path d="m0 0c-0.36 0-0.644-0.154-0.851-0.513v-1.745c0.207-0.359 0.491-0.513 0.826-0.513 0.618 0 1.081 0.615 1.081 1.385s-0.463 1.386-1.056 1.386m0.231-4.157c-0.412 0-0.825 0.103-1.082 0.334v-0.257h-1.469v6.876l1.469 0.565v-2.335c0.308 0.258 0.67 0.36 1.057 0.36 1.263 0 2.319-1.283 2.319-2.772 0-1.488-1.056-2.771-2.294-2.771" fill="#fff"/></g><g transform="translate(460.65 690.5)"><path d="m0 0c0 0.876 0.18 1.519 0.593 2.24 0.647 1.082 1.58 1.751 2.923 2.112 0.828 0.232 1.114 0.489 1.114 0.926 0 0.542-0.518 0.85-1.449 0.85-0.957 0-1.656-0.231-2.276-0.798l-0.905 1.004c0.853 0.747 1.914 1.134 3.102 1.134 1.734 0 2.845-0.85 2.845-2.19 0-0.617-0.259-1.184-0.749-1.596-0.232-0.179-0.568-0.36-1.086-0.515-0.982-0.283-1.268-0.412-1.706-0.798-0.337-0.283-0.546-0.566-0.802-1.056h4.343v-1.313z" fill="#fff"/></g><g transform="translate(449.83 660.26)"><path d="m0 0 0.027 5.485h-0.923l-0.024 1.056c0.561 0.128 0.869 0.334 1.15 0.797h1.051v-7.338z" fill="#fff"/></g><g transform="translate(465.28 663.94)"><path d="m0 0c0 1.545-0.645 2.472-1.755 2.472-1.317 0-1.781-1.365-1.781-2.447 0-1.622 0.67-2.523 1.781-2.523 1.085 0 1.755 1.005 1.755 2.523zm-1.755-3.812c-2.194 0-3.097 1.881-3.097 3.812s0.928 3.785 3.097 3.785c2.193 0 3.07-1.905 3.07-3.76 0-1.879-0.851-3.837-3.07-3.837" fill="#fff"/></g><g transform="translate(457.65 663.94)"><path d="m0 0c0 1.545-0.647 2.472-1.756 2.472-1.316 0-1.779-1.365-1.779-2.447 0-1.622 0.67-2.523 1.779-2.523 1.084 0 1.756 1.005 1.756 2.523zm-1.756-3.812c-2.193 0-3.097 1.881-3.097 3.812s0.93 3.785 3.097 3.785c2.194 0 3.071-1.905 3.071-3.76 0-1.879-0.85-3.837-3.071-3.837" fill="#fff"/></g><g transform="translate(465.28 678.23)"><path d="m0 0c0 1.545-0.645 2.472-1.755 2.472-1.317 0-1.781-1.365-1.781-2.446 0-1.623 0.67-2.524 1.781-2.524 1.085 0 1.755 1.004 1.755 2.524zm-1.755-3.812c-2.194 0-3.097 1.881-3.097 3.812s0.928 3.786 3.097 3.786c2.193 0 3.07-1.907 3.07-3.76 0-1.88-0.851-3.838-3.07-3.838" fill="#fff"/></g><g transform="translate(456.59 680.16)"><path d="m0 0-2.857-2.936h2.857zm1.288-4.12v-1.493h-1.288v1.493h-4.532v1.184l4.532 4.661h1.288v-4.661h1.082v-1.184z" fill="#fff"/></g></g></g></svg>
