<?xml version="1.0" encoding="UTF-8"?>
<svg width="482.58" height="896.86" version="1.1" viewBox="0 0 482.58 896.86" xml:space="preserve" xmlns="http://www.w3.org/2000/svg"><defs><clipPath id="l"><path d="m26.625 44.989h513.38v693.02h-513.38z"/></clipPath><clipPath id="k"><path d="m31.313 44.989h504v693.02h-504z"/></clipPath><clipPath id="j"><path d="m26.625 44.989h513.38v693.02h-513.38z"/></clipPath><clipPath id="i"><path d="m26.625 44.989h513.38v693.02h-513.38z"/></clipPath><clipPath id="h"><path d="m26.625 44.989h513.38v693.02h-513.38z"/></clipPath><clipPath id="g"><path d="m26.625 44.989h513.38v693.02h-513.38z"/></clipPath><clipPath id="f"><path d="m26.625 44.989h513.38v693.02h-513.38z"/></clipPath><clipPath id="e"><path d="m26.625 44.989h513.38v693.02h-513.38z"/></clipPath><clipPath id="d"><path d="m26.625 44.989h513.38v693.02h-513.38z"/></clipPath><clipPath id="c"><path d="m26.625 44.989h513.38v693.02h-513.38z"/></clipPath><clipPath id="b"><path d="m26.625 44.989h513.38v693.02h-513.38z"/></clipPath><clipPath id="a"><path d="m26.625 44.989h513.38v693.02h-513.38z"/></clipPath></defs><g transform="matrix(1.3333 0 0 -1.3333 -137.28 956.84)"><g transform="translate(425.54 662.33)"><path d="m0 0-2.349-0.716 1.545-2.171-1.41-0.984-1.522 2.037-1.545-2.037-1.41 0.984 1.522 2.171-2.327 0.716 0.514 1.634 2.283-0.76v2.663h1.903v-2.663l2.259 0.76z"/></g><g transform="translate(433.02 670.82)"><path d="m0 0h29.291" fill="none" stroke="#000" stroke-width=".75"/></g><text transform="matrix(1 0 0 -1 432.55 673.77)" fill="#000000" font-family="Helvetica" font-size="9px"><tspan x="0 5.0040002 10.008 15.012 20.016001 25.02" y="0">Legend</tspan><tspan x="-1.89 5.112 10.116 12.618 14.616 19.620001 24.624001 29.628" y="15.354">Optional</tspan></text><g clip-path="url(#l)"><g transform="translate(187.17 631.46)"><path d="m0 0v72.548h-3.329v-83.405l3.263-0.468c12.733 43.557 36.531 84.33 43.3 93.48l-2.677 1.979c-6.314-8.536-27.24-44.201-40.557-84.134" fill="#b1b4b6"/><path d="m0 0v72.548h-3.329v-83.405l3.263-0.468c12.733 43.557 36.531 84.33 43.3 93.48l-2.677 1.979c-6.314-8.536-27.24-44.201-40.557-84.134z" fill="none" stroke="#000"/></g><g transform="translate(187.41 668.39)"><path d="m0 0c-0.04-7.253 8-13.438 13.245-2.09l3.789-2.719-18.509-47.76-2.933 0.635 0.792 52.12z" fill="#b1b4b6"/><path d="m0 0c-0.04-7.253 8-13.438 13.245-2.09l3.789-2.719-18.509-47.76-2.933 0.635 0.792 52.12z" fill="none" stroke="#000" stroke-width=".476"/></g><g transform="translate(187.17 631.46)"><path d="m0 0v72.548h-3.329v-83.405l2.156-5.694c12.734 43.555 37.638 89.556 44.407 98.706l-2.677 1.979c-6.314-8.536-27.24-44.201-40.557-84.134" fill="#b1b4b6"/></g><g transform="translate(199.31 655.73)"><path d="m0 0c-0.364-0.21-8.71-4.717-9.582-5.219-0.277 0.485-9.596 15.875-10.172 16.876 0.118 0.356 0.573 1.727 1.005 3.028 0.582-1.014 10.044-16.657 10.044-16.657s8.579 4.642 9.83 5.361c-0.495-1.493-1.022-3.082-1.125-3.389" fill="#fff"/></g><g transform="translate(192.68 641.86)"><path d="m0 0s-0.068-0.204-0.126-0.379c-0.296-0.192-3.93-2.442-4.674-2.929-0.304 0.467-5.898 8.686-6.611 9.778 0.025 0.084 0.054 0.178 0.054 0.178s0.495 1.493 0.899 2.711c1.048-1.605 6.35-9.376 6.35-9.376s5.169 3.253 5.186 3.265c-0.505-1.52-1.078-3.248-1.078-3.248" fill="#fff"/></g><g transform="translate(185.64 631.3)"><path d="m0 0 1.016-1.379s2.124 1.395 2.817 1.905c-0.165-0.495-1.19-3.551-1.313-3.922-0.201-0.148-1.517-0.948-2.008-1.308-0.33 0.448-1.616 2.067-1.736 2.231-0.029 0.358-0.312 3.969-0.353 4.489 0.385-0.524 1.577-2.016 1.577-2.016" fill="#fff"/></g><g transform="translate(243.81 703.69)"><path d="m0 0-14.362 10.624c-7.638-10.326-32.007-52.565-44.417-97.106v86.792h-26.902v-653.92h36.205v510.38c0.863 12.617 2.756 30.931 5.568 42.894 10.74 45.683 37.34 91.457 43.908 100.34" fill="#b1b4b6"/></g><g transform="translate(200.5 661.33)"><path d="m0 0c-5.527-12.626-10.845-26.53-14.996-40.726v83.405" fill="none" stroke="#fff"/></g><g transform="translate(229.06 714.6)"><path d="m0 0c-4.71-6.367-17.088-27.066-28.563-53.274" fill="none" stroke="#ffd24f"/></g><g transform="translate(185.03 704.01)"><path d="m0 0h-26.902v-653.92h36.205v510.38c0.863 12.618 2.756 30.935 5.568 42.898 10.74 45.682 37.34 91.457 43.908 100.34" fill="none" stroke="#000" stroke-width=".476"/></g><g transform="translate(217.58 675.76)"><path d="m0 0c8.063 16.221 15.484 28.433 19.047 33.25" fill="none" stroke="#fff" stroke-dasharray="7.2, 21.6"/></g><g transform="translate(185.53 528.94)"><path d="m0 0v23.309c-0.5 8.598 1.455 35.194 5.677 53.151 4.214 17.93 10.8 35.923 17.746 51.855" fill="none" stroke="#fff"/></g><g transform="translate(185.53 347.13)"><path d="m0 0v181.82" fill="none" stroke="#fff" stroke-dasharray="1.427, 4.281"/></g><g transform="translate(167.06 59.366)"><path d="m0 0v647.32m9.171-647.32v647.32m9.169-647.32v281.28" fill="none" stroke="#fff" stroke-dasharray="7.2, 21.6"/></g><path d="m204.44 44.989h-55.885v7.372h55.885z" fill="#fff"/><path d="m190.69 703.27h-36.663v4.706h36.663z" fill="#fff"/><g transform="translate(245.25 689.5)"><path d="m0 0-26.83 14.376 7.369 13.753 26.832-14.376z" fill="#fff"/></g><g transform="translate(192.82 668.88)"><path d="m0 0c1e-3 -0.288 0.107-0.544 0.281-0.741s0.415-0.334 0.688-0.384l-4.311-0.022 4e-3 -1.058 9.057 2e-3 -4e-3 0.55-3e-3 0.55-4.314-0.022c0.273 0.054 0.514 0.196 0.687 0.397 0.172 0.202 0.275 0.462 0.274 0.752-1e-3 0.327-0.134 0.622-0.348 0.833-0.215 0.211-0.512 0.34-0.839 0.336-0.326-5e-3 -0.62-0.142-0.832-0.358s-0.343-0.512-0.34-0.835"/></g><g transform="translate(194 663.12)"><path d="m0 0c0-21.26 36.257-29.573 93.71-17.61" fill="none" stroke="#000" stroke-width=".75"/></g><g transform="translate(193.47 664.36)"><path d="m0 0c-0.261-0.868-0.504-1.432-0.783-2.128h2.649c-0.119 0.249-0.521 1.26-0.784 2.128-0.28 0.929-0.472 1.772-0.541 2.318-0.068-0.546-0.26-1.389-0.541-2.318"/></g><g transform="translate(199.8 530.62)"><path d="m0 0c2e-3 -0.288 0.108-0.544 0.282-0.741s0.416-0.334 0.688-0.384l-2.155-0.011-2.156-0.012 2e-3 -0.528 2e-3 -0.529 9.056 2e-3 -6e-3 1.1-4.313-0.022c0.272 0.054 0.513 0.196 0.685 0.397 0.173 0.202 0.277 0.462 0.276 0.752-1e-3 0.327-0.135 0.621-0.35 0.833-0.215 0.211-0.511 0.34-0.838 0.336-0.326-5e-3 -0.62-0.142-0.832-0.358-0.213-0.216-0.343-0.512-0.341-0.835"/></g><g transform="translate(200.99 524.86)"><path d="m0 0c0-30.784 36.364-88.125 86.725-90.429" fill="none" stroke="#000" stroke-width=".75"/></g><g transform="translate(200.45 526.1)"><path d="M 0,0 C -0.263,-0.868 -0.504,-1.432 -0.784,-2.128 H 1.865 C 1.746,-1.879 1.343,-0.868 1.082,0 0.8,0.929 0.609,1.771 0.541,2.318 0.472,1.771 0.28,0.929 0,0"/></g><g transform="translate(199.8 438.94)"><path d="m0 0c2e-3 -0.287 0.108-0.544 0.282-0.74 0.174-0.197 0.416-0.335 0.688-0.385l-4.311-0.022 4e-3 -1.058 9.056 2e-3 -3e-3 0.55-3e-3 0.551-2.157-0.012-2.156-0.011c0.272 0.054 0.513 0.197 0.685 0.398 0.173 0.201 0.277 0.461 0.276 0.752-1e-3 0.326-0.135 0.621-0.35 0.832-0.215 0.212-0.511 0.341-0.838 0.337-0.326-6e-3 -0.62-0.142-0.832-0.359-0.213-0.216-0.343-0.511-0.341-0.835"/></g><g transform="translate(200.99 433.18)"><path d="m0 0c0-36.964 59.063 1.252 86.725 1.252" fill="none" stroke="#000" stroke-width=".75"/></g><g transform="translate(200.45 434.41)"><path d="M 0,0 C -0.263,-0.867 -0.504,-1.432 -0.784,-2.128 H 1.865 C 1.746,-1.879 1.343,-0.867 1.082,0 0.8,0.929 0.609,1.772 0.541,2.318 0.472,1.772 0.28,0.929 0,0"/></g><g transform="translate(194.83 615.76)"><path d="m0 0c0-10.757 32.438-67.112 92.883-66.087" fill="none" stroke="#000" stroke-width=".75"/></g><g transform="translate(194.29 617)"><path d="m0 0c-0.261-0.868-0.503-1.432-0.783-2.129h2.649c-0.118 0.25-0.521 1.261-0.783 2.129-0.281 0.929-0.473 1.771-0.542 2.318-0.068-0.547-0.26-1.389-0.541-2.318"/></g><g transform="translate(214.59 622.83)"><path d="m0 0 0.78-0.119 0.72-0.361 0.539-0.539 0.362-0.721 0.119-0.779-0.119-0.782-0.362-0.718-0.539-0.541-0.72-0.36-0.78-0.119-0.781 0.119-0.719 0.36-0.541 0.541-0.359 0.718-0.119 0.782 0.119 0.779 0.359 0.721 0.541 0.539 0.719 0.361z" fill-rule="evenodd"/></g><g transform="translate(214.83 620.6)"><path d="m0 0h-27.262" fill="none" stroke="#000" stroke-linejoin="bevel" stroke-miterlimit="1.415"/></g><g transform="translate(188.39 620.5)"><path d="m0 0v-1.183h12.877v1.183" fill-rule="evenodd"/></g><g transform="translate(203.65 347.86)"><path d="m0 0 0.779-0.119 0.721-0.362 0.539-0.539 0.361-0.721 0.119-0.779-0.119-0.781-0.361-0.719-0.539-0.541-0.721-0.359-0.779-0.119-0.781 0.119-0.719 0.359-0.541 0.541-0.36 0.719-0.119 0.781 0.119 0.779 0.36 0.721 0.541 0.539 0.719 0.362z" fill-rule="evenodd"/></g><g transform="translate(203.89 345.63)"><path d="m0 0h-18.322" fill="none" stroke="#000" stroke-linejoin="bevel" stroke-miterlimit="1.415"/></g><g transform="translate(186.39 345.52)"><path d="m0 0v-1.184h7.108v1.184" fill-rule="evenodd"/></g><g transform="translate(189.95 340.78)"><path d="m0 0c0-23.715 28.93-60.361 97.769-60.361" fill="none" stroke="#000" stroke-width=".75"/></g><g transform="translate(189.41 342.02)"><path d="m0 0c-0.262-0.867-0.504-1.432-0.783-2.128h2.648c-0.118 0.249-0.521 1.261-0.783 2.128-0.281 0.929-0.473 1.771-0.541 2.318-0.069-0.547-0.261-1.389-0.541-2.318"/></g><g transform="translate(203.65 72.883)"><path d="m0 0 0.779-0.119 0.721-0.361 0.539-0.539 0.361-0.721 0.119-0.779-0.119-0.782-0.361-0.718-0.539-0.542-0.721-0.359-0.779-0.119-0.781 0.119-0.719 0.359-0.541 0.542-0.36 0.718-0.119 0.782 0.119 0.779 0.36 0.721 0.541 0.539 0.719 0.361z" fill-rule="evenodd"/></g><g transform="translate(203.89 70.651)"><path d="m0 0h-18.322" fill="none" stroke="#000" stroke-linejoin="bevel" stroke-miterlimit="1.415"/></g><g transform="translate(186.39 70.549)"><path d="m0 0v-1.184h7.108v1.184" fill-rule="evenodd"/></g></g><g clip-path="url(#k)"><g transform="translate(189.95 65.808)"><path d="m0 0c0-23.716 28.93 2.253 97.769 2.253" fill="none" stroke="#000" stroke-width=".75"/></g></g><g clip-path="url(#j)"><g transform="translate(189.41 67.047)"><path d="M 0,0 C -0.262,-0.867 -0.504,-1.432 -0.783,-2.128 H 1.865 C 1.747,-1.879 1.344,-0.867 1.082,0 0.801,0.93 0.609,1.772 0.541,2.318 0.472,1.772 0.28,0.93 0,0"/></g><g transform="translate(199.8 255.64)"><path d="m0 0c2e-3 -0.288 0.108-0.544 0.282-0.741s0.416-0.334 0.688-0.384l-2.155-0.011-2.156-0.012 2e-3 -0.529 2e-3 -0.528 9.056 2e-3 -3e-3 0.549-3e-3 0.551-4.313-0.022c0.272 0.053 0.513 0.196 0.685 0.397 0.173 0.201 0.277 0.461 0.276 0.752-1e-3 0.326-0.135 0.621-0.35 0.832-0.215 0.212-0.511 0.341-0.838 0.337-0.326-5e-3 -0.62-0.141-0.832-0.358-0.213-0.216-0.343-0.512-0.341-0.835"/></g><g transform="translate(200.99 249.88)"><path d="m0 0c0-30.784 40.817-38.18 86.725-23.424" fill="none" stroke="#000" stroke-width=".75"/></g><g transform="translate(200.45 251.12)"><path d="M 0,0 C -0.263,-0.867 -0.504,-1.431 -0.784,-2.128 H 1.865 C 1.746,-1.879 1.343,-0.867 1.082,0 0.8,0.93 0.609,1.772 0.541,2.319 0.472,1.772 0.28,0.93 0,0"/></g><g transform="translate(199.8 163.96)"><path d="m0 0c2e-3 -0.288 0.108-0.544 0.282-0.741 0.174-0.196 0.416-0.334 0.688-0.384l-4.311-0.022 2e-3 -0.53 2e-3 -0.528 9.056 2e-3 -3e-3 0.55-3e-3 0.551-2.157-0.012-2.156-0.011c0.272 0.054 0.513 0.196 0.685 0.398 0.173 0.201 0.277 0.461 0.276 0.752-1e-3 0.326-0.135 0.621-0.35 0.832-0.215 0.212-0.511 0.34-0.838 0.337-0.326-5e-3 -0.62-0.142-0.832-0.359-0.213-0.216-0.343-0.512-0.341-0.835"/></g><g transform="translate(200.99 158.2)"><path d="m0 0c4.53-30.614 30.15-11.517 51.144 16.73 15.197 20.445 24.775 49.853 35.581 51.528" fill="none" stroke="#000" stroke-width=".75"/></g><g transform="translate(200.45 159.44)"><path d="M 0,0 C -0.263,-0.868 -0.504,-1.432 -0.784,-2.128 H 1.865 C 1.746,-1.879 1.343,-0.868 1.082,0 0.8,0.929 0.609,1.771 0.541,2.318 0.472,1.771 0.28,0.929 0,0"/></g><g transform="translate(214.89 527.17)"><path d="m0 0-2.35-0.716 1.545-2.171-1.41-0.984-1.521 2.037-1.545-2.037-1.41 0.984 1.521 2.171-2.326 0.716 0.514 1.634 2.283-0.761v2.663h1.902v-2.663l2.26 0.761z"/></g><g transform="translate(214.89 252.2)"><path d="m0 0-2.35-0.715 1.545-2.171-1.41-0.985-1.521 2.037-1.545-2.037-1.41 0.985 1.521 2.171-2.326 0.715 0.514 1.635 2.283-0.761v2.664h1.902v-2.664l2.26 0.761z"/></g><g transform="translate(192.98 534.07)"><path d="m0 0c-0.87 0.782-1.737 1.539-2.607 2.321 0.193-0.677 0.387-1.355 0.582-2.03-0.195-5e-3 -0.389-0.01-0.582-0.016-1.726-0.126-2.644-1.037-2.896-2.597v-2.61h0.865v1.745c0.192 1.218 0.804 1.966 2.031 2.03h0.582c-0.1-0.676-0.201-1.353-0.298-2.03 0.774 1.054 1.547 2.133 2.323 3.187" fill="#fff" fill-rule="evenodd"/></g><g transform="translate(181.92 531.2)"><path d="m0 0c0.856 1.174 1.709 2.349 2.564 3.522-0.961 0.853-1.922 1.707-2.883 2.56 0.213-0.746 0.428-1.494 0.641-2.24-1.249 0.061-2.183-0.182-2.883-0.801v3.682c0.375-0.32 0.747-0.641 1.12-0.959-0.532 1.706-1.067 3.414-1.601 5.121-0.534-1.707-1.067-3.415-1.601-5.121 0.374 0.318 0.748 0.639 1.122 0.959v-8.643h0.96v1.599c0.043 1.508 0.696 2.449 2.242 2.563h0.641c-0.107-0.748-0.213-1.495-0.322-2.242" fill="#fff" fill-rule="evenodd"/></g><g transform="translate(192.98 442.38)"><path d="m0 0c-0.87 0.781-1.737 1.538-2.607 2.32 0.193-0.676 0.387-1.354 0.582-2.03-0.195-5e-3 -0.389-9e-3 -0.582-0.016-1.726-0.126-2.644-1.036-2.896-2.596v-2.611h0.865v1.746c0.192 1.217 0.804 1.966 2.031 2.029h0.582c-0.1-0.676-0.201-1.353-0.298-2.029 0.774 1.054 1.547 2.132 2.323 3.187" fill="#fff" fill-rule="evenodd"/></g><g transform="translate(181.92 439.52)"><path d="m0 0c0.856 1.174 1.709 2.348 2.564 3.521-0.961 0.854-1.922 1.707-2.883 2.561 0.213-0.746 0.428-1.494 0.641-2.241-1.249 0.062-2.183-0.182-2.883-0.801v3.682c0.375-0.319 0.747-0.64 1.12-0.959-0.532 1.707-1.067 3.414-1.601 5.122-0.534-1.708-1.067-3.415-1.601-5.122 0.374 0.319 0.748 0.64 1.122 0.959v-8.643h0.96v1.6c0.043 1.507 0.696 2.448 2.242 2.562h0.641c-0.107-0.748-0.213-1.495-0.322-2.241" fill="#fff" fill-rule="evenodd"/></g><g transform="translate(192.98 351.54)"><path d="m0 0c-0.87 0.782-1.737 1.538-2.607 2.322 0.193-0.678 0.387-1.355 0.582-2.032-0.195-4e-3 -0.389-9e-3 -0.582-0.015-1.726-0.126-2.644-1.036-2.896-2.596v-2.612h0.865v1.745c0.192 1.219 0.804 1.967 2.031 2.03h0.582c-0.1-0.676-0.201-1.352-0.298-2.03 0.774 1.056 1.547 2.134 2.323 3.188" fill="#fff" fill-rule="evenodd"/></g><g transform="translate(181.92 348.67)"><path d="m0 0c0.856 1.173 1.709 2.347 2.564 3.521-0.961 0.853-1.922 1.708-2.883 2.561 0.213-0.747 0.428-1.495 0.641-2.242-1.249 0.061-2.183-0.182-2.883-0.8v3.682c0.375-0.321 0.747-0.64 1.12-0.959-0.532 1.706-1.067 3.414-1.601 5.121-0.534-1.707-1.067-3.415-1.601-5.121 0.374 0.319 0.748 0.638 1.122 0.959v-8.644h0.96v1.6c0.043 1.508 0.696 2.448 2.242 2.562h0.641c-0.107-0.748-0.213-1.495-0.322-2.24" fill="#fff" fill-rule="evenodd"/></g><g transform="translate(112.21 70.651)"><path d="m0 0h70.36" fill="none" stroke="#000" stroke-width=".75"/></g></g><text transform="matrix(1 0 0 -1 131.61 113.8)" fill="#000000" font-family="Helvetica" font-size="9px"><tspan x="0 5.0040002 10.008 15.012 17.514 20.016001" y="0">800 ft</tspan></text><g clip-path="url(#i)"><g transform="translate(142.89 111.41)"><path d="m0 0v-36.823m0 83.793v-36.313" fill="none" stroke="#000" stroke-width=".75"/></g><g transform="translate(143.43 73.343)"><path d="m0 0c0.262 0.868 0.504 1.433 0.783 2.129h-2.648c0.118-0.249 0.52-1.261 0.783-2.129 0.28-0.929 0.473-1.771 0.541-2.317 0.069 0.546 0.26 1.388 0.541 2.317"/></g><g transform="translate(142.35 159.62)"><path d="m0 0c-0.263-0.868-0.504-1.432-0.783-2.128h2.648c-0.119 0.249-0.521 1.26-0.783 2.128-0.281 0.929-0.473 1.772-0.541 2.318-0.068-0.546-0.262-1.389-0.541-2.318"/></g><g transform="translate(130.76 162.31)"><path d="m0 0h51.814" fill="none" stroke="#000" stroke-width=".75"/></g></g><text transform="matrix(1 0 0 -1 131.61 209.46)" fill="#000000" font-family="Helvetica" font-size="9px"><tspan x="0 5.0040002 10.008 15.012 17.514 20.016001" y="0">800 ft</tspan><tspan x="2.0250001 9.5220003 12.024 18.521999" y="9.5039997">MIN.</tspan></text><g clip-path="url(#h)"><g transform="translate(142.89 197.82)"><path d="m0 0v-31.583m0 83.793v-32.313" fill="none" stroke="#000" stroke-width=".75"/></g><g transform="translate(143.43 165)"><path d="m0 0c0.262 0.868 0.504 1.433 0.783 2.129h-2.648c0.118-0.249 0.52-1.261 0.783-2.129 0.28-0.929 0.473-1.771 0.541-2.317 0.069 0.546 0.26 1.388 0.541 2.317"/></g><g transform="translate(142.35 251.28)"><path d="m0 0c-0.263-0.869-0.504-1.433-0.783-2.129h2.648c-0.119 0.249-0.521 1.26-0.783 2.129-0.281 0.928-0.473 1.771-0.541 2.317-0.068-0.546-0.262-1.389-0.541-2.317"/></g><g transform="translate(130.76 253.97)"><path d="m0 0h51.814" fill="none" stroke="#000" stroke-width=".75"/></g></g><text transform="matrix(1 0 0 -1 131.61 301.12)" fill="#000000" font-family="Helvetica" font-size="9px"><tspan x="0 5.0040002 10.008 15.012 17.514 20.016001" y="0">800 ft</tspan><tspan x="2.0250001 9.5220003 12.024 18.521999" y="9.5039997">MIN.</tspan></text><g clip-path="url(#g)"><g transform="translate(142.89 289.48)"><path d="m0 0v-31.583m0 83.793v-32.314" fill="none" stroke="#000" stroke-width=".75"/></g><g transform="translate(143.43 256.66)"><path d="m0 0c0.262 0.869 0.504 1.433 0.783 2.129h-2.648c0.118-0.249 0.52-1.26 0.783-2.129 0.28-0.928 0.473-1.771 0.541-2.317 0.069 0.546 0.26 1.389 0.541 2.317"/></g><g transform="translate(142.35 342.93)"><path d="m0 0c-0.263-0.868-0.504-1.433-0.783-2.129h2.648c-0.119 0.249-0.521 1.261-0.783 2.129-0.281 0.929-0.473 1.771-0.541 2.317-0.068-0.546-0.262-1.388-0.541-2.317"/></g></g><text transform="matrix(1 0 0 -1 131.61 388.78)" fill="#000000" font-family="Helvetica" font-size="9px"><tspan x="0 5.0040002 10.008 15.012 17.514 20.016001" y="0">800 ft</tspan></text><g clip-path="url(#f)"><g transform="translate(142.89 386.24)"><path d="m0 0v-36.677m0 83.793v-36.314" fill="none" stroke="#000" stroke-width=".75"/></g><g transform="translate(143.43 348.32)"><path d="m0 0c0.262 0.868 0.504 1.432 0.783 2.129h-2.648c0.118-0.25 0.52-1.261 0.783-2.129 0.28-0.929 0.473-1.772 0.541-2.318 0.069 0.546 0.26 1.389 0.541 2.318"/></g><g transform="translate(142.35 434.59)"><path d="m0 0c-0.263-0.868-0.504-1.433-0.783-2.129h2.648c-0.119 0.249-0.521 1.261-0.783 2.129-0.281 0.929-0.473 1.772-0.541 2.317-0.068-0.545-0.262-1.388-0.541-2.317"/></g><g transform="translate(130.76 437.28)"><path d="m0 0h51.814" fill="none" stroke="#000" stroke-width=".75"/></g></g><text transform="matrix(1 0 0 -1 131.61 484.44)" fill="#000000" font-family="Helvetica" font-size="9px"><tspan x="0 5.0040002 10.008 15.012 17.514 20.016001" y="0">800 ft</tspan><tspan x="2.0250001 9.5220003 12.024 18.521999" y="9.5039997">MIN.</tspan></text><g clip-path="url(#e)"><g transform="translate(142.89 472.8)"><path d="m0 0v-31.583m0 83.793v-32.313" fill="none" stroke="#000" stroke-width=".75"/></g><g transform="translate(143.43 439.98)"><path d="m0 0c0.262 0.868 0.504 1.432 0.783 2.129h-2.648c0.118-0.249 0.52-1.261 0.783-2.129 0.28-0.929 0.473-1.772 0.541-2.318 0.069 0.546 0.26 1.389 0.541 2.318"/></g><g transform="translate(142.35 526.25)"><path d="m0 0c-0.263-0.868-0.504-1.432-0.783-2.129h2.648c-0.119 0.249-0.521 1.261-0.783 2.129-0.281 0.929-0.473 1.772-0.541 2.318-0.068-0.546-0.262-1.389-0.541-2.318"/></g><g transform="translate(130.76 528.94)"><path d="m0 0h51.814" fill="none" stroke="#000" stroke-width=".75"/></g></g><text transform="matrix(1 0 0 -1 131.61 576.09)" fill="#000000" font-family="Helvetica" font-size="9px"><tspan x="0 5.0040002 10.008 15.012 17.514 20.016001" y="0">800 ft</tspan><tspan x="2.0250001 9.5220003 12.024 18.521999" y="9.5039997">MIN.</tspan></text><g clip-path="url(#d)"><g transform="translate(142.89 564.46)"><path d="m0 0v-31.583m0 83.793v-32.313" fill="none" stroke="#000" stroke-width=".75"/></g><g transform="translate(143.43 531.63)"><path d="m0 0c0.262 0.868 0.504 1.433 0.783 2.129h-2.648c0.118-0.249 0.52-1.261 0.783-2.129 0.28-0.929 0.473-1.771 0.541-2.317 0.069 0.546 0.26 1.388 0.541 2.317"/></g><g transform="translate(142.35 617.91)"><path d="m0 0c-0.263-0.868-0.504-1.432-0.783-2.128h2.648c-0.119 0.249-0.521 1.26-0.783 2.128-0.281 0.929-0.473 1.772-0.541 2.318-0.068-0.546-0.262-1.389-0.541-2.318"/></g><g transform="translate(117.71 182.94)"><path d="m0 0v-108.36m0 267.11v-148.49" fill="none" stroke="#000" stroke-width=".75"/></g><g transform="translate(118.25 73.343)"><path d="m0 0c0.263 0.868 0.504 1.433 0.783 2.129h-2.648c0.118-0.249 0.52-1.261 0.783-2.129 0.28-0.929 0.473-1.771 0.541-2.317 0.068 0.546 0.261 1.388 0.541 2.317"/></g><g transform="translate(117.17 342.93)"><path d="m0 0c-0.263-0.868-0.504-1.433-0.783-2.129h2.648c-0.118 0.249-0.52 1.261-0.783 2.129-0.28 0.929-0.473 1.771-0.541 2.317-0.068-0.546-0.261-1.388-0.541-2.317"/></g></g><text transform="matrix(1 0 0 -1 101.98 185.01)" fill="#000000" font-family="Helvetica" font-size="9px"><tspan x="0 5.0040002 7.506 12.51 15.012 22.509001 24.507 26.504999" y="0">1/2 mile</tspan><tspan x="0 5.0040002 7.506 12.51 15.012 22.509001 24.507 26.504999" y="-274.716">1/2 mile</tspan></text><g clip-path="url(#c)"><g transform="translate(112.21 345.63)"><path d="m0 0h70.36m-64.862 112.29v-108.35m0 267.11v-148.48" fill="none" stroke="#000" stroke-width=".75"/></g><g transform="translate(118.25 348.32)"><path d="m0 0c0.263 0.868 0.504 1.432 0.783 2.129h-2.648c0.118-0.25 0.52-1.261 0.783-2.129 0.28-0.929 0.473-1.772 0.541-2.318 0.068 0.546 0.261 1.389 0.541 2.318"/></g><g transform="translate(117.17 617.91)"><path d="m0 0c-0.263-0.868-0.504-1.432-0.783-2.128h2.648c-0.118 0.249-0.52 1.26-0.783 2.128-0.28 0.929-0.473 1.772-0.541 2.318-0.068-0.546-0.261-1.389-0.541-2.318"/></g></g><text transform="matrix(1 0 0 -1 290.45 403.47)" fill="#000000" font-family="Helvetica" font-size="9px"><tspan x="0 6.4980001 11.502 14.499" y="0">R3-8</tspan><tspan x="0 6.4980001 11.502 14.499" y="193.63499">R3-8</tspan></text><g clip-path="url(#b)"><g transform="translate(112.21 620.6)"><path d="m0 0h70.36" fill="none" stroke="#000" stroke-width=".75"/></g><g transform="translate(377.18 563.85)"><path d="m0 0c-1.372 0-2.488 1.117-2.488 2.489v18.912c0 1.372 1.116 2.488 2.488 2.488h85.102c1.372 0 2.488-1.116 2.488-2.488v-18.912c0-1.372-1.116-2.489-2.488-2.489z" fill="#fff"/></g><g transform="translate(462.28 587.86)"><path d="m0 0h-85.102c-1.441 0-2.613-1.172-2.613-2.613v-18.912c0-1.441 1.172-2.614 2.613-2.614h85.102c1.441 0 2.613 1.173 2.613 2.614v18.912c0 1.441-1.172 2.613-2.613 2.613m0-0.25c1.304 0 2.363-1.058 2.363-2.363v-18.912c0-1.305-1.059-2.364-2.363-2.364h-85.102c-1.305 0-2.363 1.059-2.363 2.364v18.912c0 1.305 1.058 2.363 2.363 2.363h85.102"/></g><g transform="translate(376.39 566.34)"><path d="m0 0v18.912c0 0.433 0.354 0.787 0.787 0.787h85.102c0.434 0 0.787-0.354 0.787-0.787v-18.912c0-0.434-0.353-0.787-0.787-0.787h-85.102c-0.433 0-0.787 0.353-0.787 0.787" fill="#006f51"/></g><path d="m409.57 579.54h1.418v-7.88h-1.418z" fill="#fff"/><g transform="translate(415.97 578.16)"><path d="m0 0v-6.498h-1.381v6.498h-2.264v1.382h5.909v-1.382z" fill="#fff"/></g><g transform="translate(406.33 571.66)"><path d="m0 0-1.778 2.793-1.75-2.793h-1.666l2.584 4.147-2.361 3.733h1.695l1.498-2.405 1.5 2.405h1.694l-2.332-3.733 2.582-4.147z" fill="#fff"/></g><g transform="translate(394.12 571.66)"><path d="m0 0v7.88h5.77v-1.41h-4.328v-1.465h2.359v-1.438h-2.359v-2.156h4.468v-1.411z" fill="#fff"/></g><g transform="translate(431.34 569.87)"><path d="m0 0 0.042 8.834h-1.486l-0.04 1.701c0.907 0.207 1.402 0.539 1.855 1.285h1.691v-11.82z" fill="#fff"/></g><g transform="translate(440.55 579.78)"><path d="m0 0c-1.458 0-2.29-0.415-2.29-1.079 0-0.705 0.832-1.119 2.29-1.119s2.29 0.414 2.29 1.119c0 0.664-0.832 1.079-2.29 1.079m0-4.314c-1.708 0-2.665-0.663-2.665-1.824 0-0.581 0.334-1.162 0.875-1.493 0.332-0.208 1.082-0.332 1.79-0.332 1 0 1.625 0.124 2.04 0.497 0.418 0.374 0.625 0.83 0.625 1.328 0 1.161-0.957 1.824-2.665 1.824m0-5.806c-2.915 0-4.79 1.576-4.79 3.982 0 1.119 0.459 2.073 1.334 2.862-0.75 0.87-0.959 1.368-0.959 2.156 0 1.949 1.791 3.234 4.415 3.234 2.665 0 4.415-1.285 4.415-3.234 0-0.788-0.208-1.286-0.916-2.156 0.875-0.789 1.29-1.743 1.29-2.862 0-2.82-2.331-3.982-4.789-3.982" fill="#fff"/></g><g transform="translate(464.65 469.17)"><path d="m0 0c0-5.201-4.256-9.455-9.455-9.455h-156.02c-5.199 0-9.454 4.254-9.454 9.455v85.1c0 5.201 4.255 9.456 9.454 9.456h156.02c5.199 0 9.455-4.255 9.455-9.456z" fill="#fff"/></g><g transform="translate(299.17 461.29)"><path d="m0 0c-1.056 0-2.086 0.208-3.054 0.62-0.938 0.399-1.782 0.969-2.508 1.696-0.727 0.726-1.298 1.569-1.696 2.508-0.412 0.969-0.621 1.997-0.621 3.055v85.1c0 1.058 0.209 2.087 0.621 3.056 0.398 0.938 0.969 1.782 1.696 2.508 0.726 0.726 1.57 1.297 2.508 1.695 0.968 0.412 1.998 0.621 3.054 0.621h156.02c1.058 0 2.085-0.209 3.055-0.621 0.937-0.398 1.781-0.969 2.507-1.695 0.729-0.726 1.297-1.57 1.698-2.508 0.41-0.969 0.619-1.998 0.619-3.056v-85.1c0-1.058-0.209-2.086-0.619-3.055-0.401-0.939-0.969-1.782-1.698-2.508-0.726-0.727-1.57-1.297-2.507-1.696-0.97-0.412-1.997-0.62-3.055-0.62z" fill="#006f51"/></g><g transform="translate(464.65 488.07)"><path d="m0 0v-18.896c0-5.222-4.233-9.455-9.455-9.455h-156.02c-5.222 0-9.456 4.233-9.456 9.455v18.896" fill="#ffd24f" stroke="#000" stroke-width=".005"/></g><g transform="translate(463.07 488.07)"><path d="m0 0v-18.896c0-1.065-0.207-2.097-0.618-3.067-0.398-0.937-0.966-1.781-1.689-2.505-0.725-0.724-1.568-1.292-2.507-1.69-0.969-0.41-2.001-0.617-3.065-0.617h-156.02c-1.065 0-2.096 0.207-3.066 0.617-0.94 0.398-1.781 0.966-2.506 1.69s-1.293 1.568-1.689 2.505c-0.411 0.97-0.62 2.002-0.62 3.067v18.896h-1.181v-18.896c0-1.223 0.24-2.41 0.712-3.527 0.457-1.079 1.11-2.049 1.942-2.881s1.801-1.485 2.881-1.942c1.117-0.472 2.303-0.711 3.527-0.711h156.02c1.223 0 2.41 0.239 3.526 0.711 1.079 0.457 2.048 1.11 2.88 1.942s1.487 1.802 1.942 2.881c0.474 1.117 0.712 2.304 0.712 3.527v18.896z"/></g><g transform="translate(340.59 469.96)"><path d="m0 0v9.455h6.926v-1.692h-5.194v-1.758h2.831v-1.725h-2.831v-2.588h5.362v-1.692z"/></g><path d="m359.13 479.42h1.701v-9.455h-1.701z"/><g transform="translate(401.6 469.96)"><path d="m0 0v9.455h1.699v-7.995h5.393v-1.46z"/></g><g transform="translate(397.67 469.96)"><path d="m0 0-4.533 6.503v-6.503h-1.666v9.455h1.666l4.365-6.238v6.238h1.633v-9.455z"/></g><g transform="translate(385.38 477.89)"><path d="m0 0c-1.429 0-2.294-1.194-2.294-3.185 0-2.023 0.865-3.218 2.294-3.218 1.795 0 2.229 1.758 2.229 3.218 0 1.991-0.799 3.185-2.229 3.185m0-8.095c-2.793 0-4.024 2.522-4.024 4.91 0 3.019 1.53 4.878 4.024 4.878 2.329 0 3.924-1.958 3.924-4.844 0-2.954-1.53-4.944-3.924-4.944"/></g><g transform="translate(366.82 477.76)"><path d="m0 0v-7.797h-1.658v7.797h-2.716v1.658h7.091v-1.658z"/></g><g transform="translate(355.24 469.96)"><path d="m0 0-2.133 3.35-2.1-3.35h-2l3.1 4.977-2.832 4.478h2.032l1.8-2.886 1.799 2.886h2.033l-2.799-4.478 3.1-4.977z"/></g><g transform="translate(415.12 473.81)"><path d="m0 0v-3.848h-1.692v3.848l-3.98 5.607h2.091l2.753-3.848 2.718 3.848h2.09z"/></g><g transform="translate(448.3 470.54)"><path d="m0 0c5e-3 9e-3 0.011 0.017 0.016 0.024 0.028 0.053 0.05 0.107 0.065 0.162 1e-3 5e-3 4e-3 0.01 5e-3 0.015h-1e-3c4e-3 0.019 0.01 0.037 0.014 0.056l0.026 0.186 2.628 13.564 0.035 0.255c0.037 0.255-0.049 0.509-0.217 0.679-0.195 0.194-0.449 0.278-0.691 0.23l-0.17-0.033-13.605-2.651-0.239-0.038c-0.156-0.037-0.279-0.109-0.4-0.23-0.303-0.303-0.314-0.8 0-1.115 0.037-0.036 0.098-0.072 0.147-0.097l0.144-0.081 4.844-2.976-11.838-10.868 3.961-3.961 10.869 11.812-2e-3 0.025 2.932-4.77 0.123-0.173c0.035-0.061 0.072-0.122 0.12-0.169 0.304-0.303 0.812-0.304 1.114 0 0.049 0.047 0.088 0.1 0.12 0.154"/></g><g transform="translate(322.5 470.54)"><path d="m0 0c6e-3 9e-3 0.011 0.017 0.015 0.024 0.029 0.053 0.051 0.107 0.067 0.162 2e-3 5e-3 3e-3 0.01 5e-3 0.015h-2e-3c4e-3 0.019 0.01 0.037 0.014 0.056l0.026 0.186 2.63 13.564 0.034 0.255c0.037 0.255-0.048 0.509-0.217 0.679-0.196 0.194-0.449 0.278-0.692 0.23l-0.17-0.033-13.605-2.651-0.238-0.038c-0.158-0.037-0.28-0.109-0.401-0.23-0.302-0.303-0.312-0.8 1e-3 -1.115 0.036-0.036 0.097-0.072 0.146-0.097l0.144-0.081 4.843-2.976-11.837-10.868 3.962-3.961 10.867 11.812v0.025l2.931-4.77 0.123-0.173c0.036-0.061 0.071-0.122 0.121-0.169 0.303-0.303 0.811-0.304 1.114 0 0.048 0.047 0.086 0.1 0.119 0.154"/></g><g transform="translate(455.19 563.98)"><path d="m0 0h-156.02c-5.35 0-9.704-4.354-9.704-9.706v-85.1c0-5.352 4.354-9.705 9.704-9.705h156.02c5.351 0 9.705 4.353 9.705 9.705v85.1c0 5.352-4.354 9.706-9.705 9.706m0-0.25c5.199 0 9.455-4.255 9.455-9.456v-85.1c0-5.201-4.256-9.455-9.455-9.455h-156.02c-5.199 0-9.454 4.254-9.454 9.455v85.1c0 5.201 4.255 9.456 9.454 9.456h156.02"/></g><g transform="translate(345.6 510.9)"><path d="m0 0h-3.695v-2.866h3.695c0.969 0 1.586 0.574 1.586 1.455 0 0.794-0.661 1.411-1.586 1.411m2.115-4.85c-0.75-0.396-1.277-0.528-2.424-0.528h-3.386v-4.717h-2.469v12.607h5.988c1.058 0 1.586-0.132 2.291-0.529 1.192-0.704 1.94-1.983 1.94-3.394 0-1.455-0.748-2.777-1.94-3.439" fill="#fff"/></g><g transform="translate(412.48 504.51)"><path d="m0 0c-0.754 0.265-1.639 0.396-2.126 0.396-0.798 0-1.418-0.44-1.418-1.013s0.753-1.058 1.64-1.058c0.531 0 1.195 0.088 1.904 0.485zm0-3.703v0.308c-0.887-0.352-1.727-0.44-2.438-0.44-2.036 0-3.498 1.278-3.498 3.085 0 1.896 1.639 3.307 3.81 3.307 0.531 0 1.372-0.089 2.126-0.353-0.045 0.881-0.709 1.234-1.639 1.234-0.886 0-1.728-0.22-2.615-0.705l-0.928 1.984c1.372 0.705 2.303 0.97 3.543 0.97 2.525 0 4.032-1.234 4.032-3.791v-5.599z" fill="#fff"/></g><g transform="translate(375.43 500.87)"><path d="m0 0v5.511c0 0.837-0.752 1.498-1.64 1.498-0.842 0-1.596-0.705-1.596-1.41v-5.599h-2.395v5.511c0 0.837-0.709 1.498-1.595 1.498-0.887 0-1.641-0.661-1.641-1.455v-5.554h-2.527v9.17h2.527v-0.486c0.889 0.529 1.508 0.706 2.395 0.706 0.974 0 1.773-0.353 2.439-1.058 1.196 0.838 1.773 1.058 2.837 1.058 1.95 0 3.68-1.323 3.68-3.086v-6.304z" fill="#fff"/></g><g transform="translate(400.15 500.87)"><path d="m0 0v5.511c0 0.837-0.575 1.498-1.55 1.498-0.887 0-1.771-0.705-1.771-1.455v-5.554h-2.526v9.17h2.526v-0.486c0.841 0.529 1.638 0.706 2.48 0.706 1.904 0 3.321-1.323 3.321-3.086v-6.304z" fill="#fff"/></g><g transform="translate(355.79 507.88)"><path d="m0 0c-0.972 0-1.724-1.058-1.724-2.425 0-1.322 0.752-2.379 1.724-2.379 0.93 0 1.769 1.057 1.769 2.379 0 1.367-0.839 2.425-1.769 2.425m0-7.185c-2.298 0-4.246 2.116-4.246 4.76 0 2.734 1.859 4.806 4.246 4.806 2.211 0 4.334-2.16 4.334-4.806 0-2.644-2.078-4.76-4.334-4.76" fill="#fff"/></g><g transform="translate(386.07 507.88)"><path d="m0 0c-0.973 0-1.724-1.058-1.724-2.425 0-1.322 0.751-2.379 1.724-2.379 0.929 0 1.769 1.057 1.769 2.379 0 1.367-0.84 2.425-1.769 2.425m0-7.185c-2.299 0-4.246 2.116-4.246 4.76 0 2.734 1.858 4.806 4.246 4.806 2.211 0 4.335-2.16 4.335-4.806 0-2.644-2.078-4.76-4.335-4.76" fill="#fff"/></g><g transform="translate(391.76 536.94)"><path d="m0 0c0-7.833-6.351-14.183-14.183-14.183-7.834 0-14.184 6.35-14.184 14.183 0 7.834 6.35 14.184 14.184 14.184 7.832 0 14.183-6.35 14.183-14.184" fill="#fff"/></g><g transform="translate(372.91 540.37)"><path d="m0 0-4.047-5.325h4.047zm2.248-7.365v-3.534h-2.248v3.534h-7.046v1.343l7.046 9.307h2.248v-8.61h1.35v-2.04z"/></g><g transform="translate(381.85 529.22)"><path d="m0 0c-1.245 0-2.49 0.298-3.483 0.796l1.093 1.991c0.597-0.299 1.642-0.497 2.688-0.497 2.04 0 3.633 1.343 3.633 3.184 0 1.394-1.145 2.488-2.538 2.488-0.995 0-1.444-0.297-2.289-1.492l-2.24 0.647 0.348 7.316h8.163v-2.24h-5.973l-0.15-2.339c1.046 0.298 1.494 0.398 2.191 0.398 2.588 0 4.727-2.19 4.727-4.778 0-3.135-2.587-5.474-6.17-5.474"/></g><g transform="translate(346.45 654.31)"><path d="m0 0h-52.006c-2.745 0-4.978-2.233-4.978-4.978v-37.823c0-2.744 2.233-4.977 4.978-4.977h52.006c2.745 0 4.977 2.233 4.977 4.977v37.823c0 2.745-2.232 4.978-4.977 4.978m0-0.25c2.601 0 4.727-2.128 4.727-4.728v-37.823c0-2.6-2.126-4.727-4.727-4.727h-52.006c-2.6 0-4.728 2.127-4.728 4.727v37.823c0 2.6 2.128 4.728 4.728 4.728h52.006"/></g><g transform="translate(294.44 607.97)"><path d="m0 0c-0.942 0-1.83 0.37-2.502 1.043-0.674 0.671-1.045 1.561-1.045 2.502v37.823c0 0.942 0.371 1.831 1.045 2.503 0.672 0.672 1.56 1.043 2.502 1.043h52.006c0.941 0 1.832-0.371 2.504-1.043 0.671-0.672 1.043-1.561 1.043-2.503v-37.823c0-0.941-0.372-1.831-1.043-2.502-0.672-0.673-1.563-1.043-2.504-1.043z" fill="#006f51"/></g><g transform="translate(302.74 636.41)"><path d="m0 0v9.771h7.154v-1.748h-5.365v-1.817h2.923v-1.783h-2.923v-2.675h5.537v-1.748z" fill="#fff"/></g><path d="m325.44 646.18h1.758v-9.771h-1.758z" fill="#fff"/><g transform="translate(335.35 644.47)"><path d="m0 0v-8.057h-1.711v8.057h-2.808v1.714h7.328v-1.714z" fill="#fff"/></g><g transform="translate(319.65 636.41)"><path d="m0 0-2.204 3.463-2.17-3.463h-2.066l3.203 5.143-2.927 4.628h2.101l1.859-2.982 1.86 2.982h2.101l-2.894-4.628 3.203-5.143z" fill="#fff"/></g><g transform="translate(341.1 617.12)"><path d="m0 0c6e-3 7e-3 0.01 0.013 0.014 0.019 0.023 0.044 0.041 0.088 0.054 0.134 1e-3 4e-3 4e-3 8e-3 4e-3 0.012h-2e-3c6e-3 0.016 0.01 0.031 0.012 0.046l0.022 0.154 2.171 11.205 0.029 0.211c0.03 0.211-0.04 0.421-0.18 0.561-0.159 0.16-0.37 0.23-0.57 0.19l-0.141-0.028-11.239-2.189-0.197-0.032c-0.129-0.029-0.231-0.09-0.329-0.189-0.251-0.251-0.261-0.661 0-0.922 0.03-0.03 0.079-0.059 0.12-0.08l0.119-0.067 4-2.458-9.778-8.978 3.273-3.272 8.977 9.758v0.02l2.422-3.941 0.101-0.142c0.03-0.051 0.059-0.1 0.101-0.14 0.25-0.25 0.669-0.251 0.919-1e-3 0.041 0.04 0.073 0.084 0.098 0.129" fill="#fff"/></g><g transform="translate(299.26 615.61)"><path d="m0 0 0.049 10.6h-1.781l-0.05 2.041c1.09 0.249 1.683 0.646 2.227 1.542h2.03v-14.183z" fill="#fff"/></g><g transform="translate(310.32 627.5)"><path d="m0 0c-1.748 0-2.748-0.497-2.748-1.294 0-0.845 1-1.344 2.748-1.344 1.749 0 2.749 0.499 2.749 1.344 0 0.797-1 1.294-2.749 1.294m0-5.175c-2.051 0-3.199-0.797-3.199-2.19 0-0.697 0.4-1.394 1.05-1.793 0.401-0.248 1.299-0.397 2.149-0.397 1.199 0 1.949 0.149 2.448 0.597 0.5 0.448 0.751 0.996 0.751 1.593 0 1.393-1.15 2.19-3.199 2.19m0-6.967c-3.5 0-5.747 1.891-5.747 4.777 0 1.344 0.548 2.488 1.598 3.434-0.899 1.045-1.15 1.642-1.15 2.587 0 2.34 2.15 3.882 5.299 3.882 3.199 0 5.299-1.542 5.299-3.882 0-0.945-0.25-1.542-1.101-2.587 1.05-0.946 1.55-2.09 1.55-3.434 0-3.384-2.8-4.777-5.748-4.777" fill="#fff"/></g><g transform="translate(291.56 219.66)"><path d="m0 0c-1.085 0-1.968 0.882-1.968 1.968v23.961c0 1.085 0.883 1.967 1.968 1.967h23.961c1.086 0 1.969-0.882 1.969-1.967v-23.961c0-1.086-0.883-1.968-1.969-1.968z" fill="#fff"/></g><g transform="translate(315.52 247.68)"><path d="m0 0h-23.961c-1.154 0-2.093-0.938-2.093-2.092v-23.961c0-1.154 0.939-2.093 2.093-2.093h23.961c1.154 0 2.094 0.939 2.094 2.093v23.961c0 1.154-0.94 2.092-2.094 2.092m0-0.25c1.014 0 1.844-0.828 1.844-1.842v-23.961c0-1.013-0.83-1.843-1.844-1.843h-23.961c-1.014 0-1.843 0.83-1.843 1.843v23.961c0 1.014 0.829 1.842 1.843 1.842h23.961"/></g><g transform="translate(315.52 220.24)"><path d="m0 0c0.368 0 0.715 0.145 0.977 0.407 0.261 0.261 0.406 0.607 0.406 0.976v23.961c0 0.367-0.145 0.713-0.406 0.975-0.262 0.263-0.609 0.408-0.977 0.408h-23.961c-0.367 0-0.714-0.145-0.976-0.408-0.262-0.262-0.407-0.608-0.407-0.975v-23.961c0-0.369 0.145-0.715 0.407-0.976 0.262-0.262 0.609-0.407 0.976-0.407z"/></g><g transform="translate(315.52 220.93)"><path d="m0 0c0.184 0 0.355 0.072 0.488 0.203 0.131 0.133 0.203 0.305 0.203 0.488v23.961c0 0.182-0.072 0.356-0.203 0.487-0.133 0.132-0.304 0.205-0.488 0.205h-23.961c-0.183 0-0.355-0.073-0.486-0.205-0.133-0.131-0.205-0.305-0.205-0.487v-23.961c0-0.183 0.072-0.355 0.205-0.488 0.131-0.131 0.302-0.203 0.486-0.203z" fill="#fff"/></g><g transform="translate(291.43 240.37)"><path d="m0 0 1.52 2.243 1.519 2.242 1.516-2.242 1.516-2.243c0.068-0.099 0.089-0.216 0.068-0.326-0.022-0.109-0.084-0.211-0.182-0.277-0.07-0.047-0.137-0.065-0.21-0.065s-0.151 0.018-0.239 0.043l-0.649 0.192-0.647 0.193v-5.836c0.038 0.061 0.075 0.121 0.112 0.18 0.69 1.069 1.544 2.017 2.614 2.9 0.669 0.553 1.373 1.039 2.095 1.509l-1.06 0.868c-0.125 0.112-0.215 0.215-0.215 0.375 2e-3 0.238 0.196 0.433 0.435 0.432l5.417-0.012-2.022-5.021c-0.088-0.223-0.341-0.33-0.563-0.243-0.156 0.063-0.211 0.184-0.271 0.362l-0.402 1.289-4e-3 6e-3c-3.246-2.094-6.135-4.526-6.136-13.185v-9e-3h-2.349v16.385l-0.659-0.197-0.657-0.199c-0.082-0.02-0.156-0.035-0.227-0.032-0.072 2e-3 -0.139 0.02-0.206 0.065-0.098 0.066-0.16 0.168-0.18 0.277-0.022 0.11 0 0.227 0.066 0.326"/></g><g transform="translate(305.19 231.75)"><path d="m0 0c0.133 1.236 0.385 2.121 0.82 2.875 0.449 0.778 1.102 1.41 2.051 1.99 0.594 0.363 1.295 0.702 2.121 1.058l-0.345 0.421-0.389 0.476c-0.045 0.061-0.084 0.118-0.107 0.178-0.022 0.058-0.03 0.12-0.015 0.191 0.02 0.104 0.083 0.191 0.167 0.247 0.083 0.054 0.187 0.076 0.293 0.056l2.377-0.486 2.378-0.484-1.333-2.028-1.333-2.027c-0.058-0.09-0.15-0.147-0.246-0.168-0.097-0.02-0.203-2e-3 -0.293 0.057-0.062 0.041-0.101 0.089-0.127 0.15-0.024 0.061-0.037 0.131-0.046 0.213l-0.063 0.602-0.063 0.603-9e-3 0.021c-1.754-0.756-2.68-1.324-3.155-2.146-0.623-1.075-0.667-2.946-0.667-5.9h-2.151c0 1.797 0.022 3.045 0.135 4.101"/></g><g transform="translate(309.09 222.54)"><path d="m0 0-1.41 2.496v-2.496h-0.582v3.687h0.582l1.345-2.355v2.355h0.582v-3.687z"/></g><g transform="translate(305.7 225.41)"><path d="m0 0c-0.117 0.194-0.26 0.272-0.48 0.285-0.286 0.012-0.468-0.129-0.597-0.453-0.09-0.22-0.142-0.556-0.142-0.867 0-0.387 0.078-0.789 0.221-1.021 0.117-0.195 0.272-0.285 0.505-0.285 0.272 0 0.442 0.142 0.571 0.465 0.078 0.195 0.142 0.556 0.142 0.841 0 0.414-0.078 0.789-0.22 1.035m0.402-2.523c-0.207-0.283-0.506-0.414-0.895-0.414-0.519 0-0.842 0.209-1.064 0.662-0.154 0.309-0.259 0.801-0.259 1.24 0 0.608 0.156 1.152 0.403 1.5 0.219 0.285 0.518 0.414 0.946 0.414 0.467 0 0.791-0.207 1.025-0.66 0.154-0.322 0.246-0.789 0.246-1.254 0-0.582-0.142-1.164-0.402-1.488"/></g><g transform="translate(310.22 222.54)"><path d="m0 0v3.687h0.581v-3.144h1.705v-0.543z"/></g><g transform="translate(314.49 224.15)"><path d="m0 0v-1.604h-0.586v1.604l-1.3 2.083h0.702l0.884-1.423 0.897 1.423h0.689z"/></g><path d="m302.75 220.66h0.692v12.037h-0.692z"/><g transform="translate(291.56 413.08)"><path d="m0 0c-1.085 0-1.968 0.883-1.968 1.969v23.961c0 1.085 0.883 1.967 1.968 1.967h23.961c1.086 0 1.969-0.882 1.969-1.967v-23.961c0-1.086-0.883-1.969-1.969-1.969z" fill="#fff"/></g><g transform="translate(315.52 441.1)"><path d="m0 0h-23.961c-1.154 0-2.093-0.938-2.093-2.092v-23.961c0-1.155 0.939-2.094 2.093-2.094h23.961c1.154 0 2.094 0.939 2.094 2.094v23.961c0 1.154-0.94 2.092-2.094 2.092m0-0.25c1.014 0 1.844-0.829 1.844-1.842v-23.961c0-1.014-0.83-1.844-1.844-1.844h-23.961c-1.014 0-1.843 0.83-1.843 1.844v23.961c0 1.013 0.829 1.842 1.843 1.842h23.961"/></g><g transform="translate(315.52 413.67)"><path d="m0 0c0.368 0 0.715 0.144 0.977 0.406 0.261 0.262 0.406 0.608 0.406 0.977v23.961c0 0.367-0.145 0.713-0.406 0.975-0.262 0.263-0.609 0.407-0.977 0.407h-23.961c-0.367 0-0.714-0.144-0.976-0.407-0.262-0.262-0.407-0.608-0.407-0.975v-23.961c0-0.369 0.145-0.715 0.407-0.977s0.609-0.406 0.976-0.406z"/></g><g transform="translate(315.52 414.36)"><path d="m0 0c0.184 0 0.355 0.072 0.488 0.204 0.131 0.132 0.203 0.304 0.203 0.488v23.961c0 0.182-0.072 0.355-0.203 0.486-0.133 0.133-0.304 0.205-0.488 0.205h-23.961c-0.183 0-0.355-0.072-0.486-0.205-0.133-0.131-0.205-0.304-0.205-0.486v-23.961c0-0.184 0.072-0.356 0.205-0.488 0.131-0.132 0.302-0.204 0.486-0.204z" fill="#fff"/></g><g transform="translate(291.43 433.8)"><path d="m0 0 1.52 2.242 1.519 2.242 3.032-4.484c0.068-0.1 0.089-0.216 0.068-0.326-0.022-0.109-0.084-0.21-0.182-0.278-0.07-0.046-0.137-0.064-0.21-0.064s-0.151 0.017-0.239 0.043l-0.649 0.192-0.647 0.193v-5.836c0.038 0.061 0.075 0.121 0.112 0.18 0.69 1.069 1.544 2.017 2.614 2.9 0.669 0.552 1.373 1.039 2.095 1.509l-1.06 0.868c-0.125 0.111-0.215 0.215-0.215 0.375 2e-3 0.239 0.196 0.433 0.435 0.432l5.417-0.012-2.022-5.022c-0.088-0.222-0.341-0.33-0.563-0.241-0.156 0.061-0.211 0.183-0.271 0.36l-0.402 1.289-4e-3 6e-3c-3.246-2.094-6.135-4.525-6.136-13.184v-9e-3h-2.349v16.385l-0.659-0.198-0.657-0.199c-0.082-0.019-0.156-0.034-0.227-0.031-0.072 2e-3 -0.139 0.019-0.206 0.064-0.098 0.068-0.16 0.169-0.18 0.278-0.022 0.11 0 0.226 0.066 0.326"/></g><g transform="translate(305.19 425.18)"><path d="m0 0c0.133 1.236 0.385 2.122 0.82 2.875 0.449 0.778 1.102 1.411 2.051 1.991 0.594 0.363 1.295 0.701 2.121 1.058l-0.345 0.42-0.389 0.477c-0.045 0.06-0.084 0.117-0.107 0.178-0.022 0.058-0.03 0.12-0.015 0.19 0.02 0.105 0.083 0.192 0.167 0.247 0.083 0.055 0.187 0.077 0.293 0.057l2.377-0.487 2.378-0.484-1.333-2.026-1.333-2.028c-0.058-0.09-0.15-0.147-0.246-0.168-0.097-0.019-0.203-3e-3 -0.293 0.056-0.062 0.041-0.101 0.09-0.127 0.15-0.024 0.061-0.037 0.131-0.046 0.213l-0.063 0.603-0.063 0.602-9e-3 0.022c-1.754-0.757-2.68-1.324-3.155-2.146-0.623-1.075-0.667-2.946-0.667-5.901h-2.151c0 1.798 0.022 3.045 0.135 4.101"/></g><g transform="translate(309.09 415.97)"><path d="m0 0-1.41 2.496v-2.496h-0.582v3.687h0.582l1.345-2.355v2.355h0.582v-3.687z"/></g><g transform="translate(305.7 418.84)"><path d="m0 0c-0.117 0.194-0.26 0.272-0.48 0.284-0.286 0.014-0.468-0.129-0.597-0.452-0.09-0.221-0.142-0.556-0.142-0.867 0-0.388 0.078-0.79 0.221-1.022 0.117-0.194 0.272-0.285 0.505-0.285 0.272 0 0.442 0.142 0.571 0.466 0.078 0.195 0.142 0.556 0.142 0.841 0 0.414-0.078 0.789-0.22 1.035m0.402-2.523c-0.207-0.284-0.506-0.414-0.895-0.414-0.519 0-0.842 0.208-1.064 0.661-0.154 0.309-0.259 0.802-0.259 1.241 0 0.607 0.156 1.151 0.403 1.501 0.219 0.284 0.518 0.413 0.946 0.413 0.467 0 0.791-0.206 1.025-0.66 0.154-0.323 0.246-0.789 0.246-1.254 0-0.582-0.142-1.165-0.402-1.488"/></g><g transform="translate(310.22 415.97)"><path d="m0 0v3.687h0.581v-3.145h1.705v-0.542z"/></g><g transform="translate(314.49 417.57)"><path d="m0 0v-1.603h-0.586v1.603l-1.3 2.084h0.702l0.884-1.423 0.897 1.423h0.689z"/></g><path d="m302.75 414.09h0.692v12.038h-0.692z"/></g><g clip-path="url(#a)"><g transform="translate(426.82 276.27)"><path d="m0 0c0-5.202-4.256-9.456-9.457-9.456h-118.2c-5.199 0-9.454 4.254-9.454 9.456v85.099c0 5.202 4.255 9.458 9.454 9.458h118.2c5.201 0 9.457-4.256 9.457-9.458z" fill="#fff"/></g><g transform="translate(426.82 295.15)"><path d="m0 0v-18.883c0-5.202-4.256-9.456-9.457-9.456h-118.2c-5.199 0-9.454 4.254-9.454 9.456v18.883z" fill="#ffd24f"/></g><g transform="translate(424.63 364.42)"><path d="m0 0c-0.398 0.939-0.968 1.782-1.695 2.508-0.726 0.727-1.57 1.297-2.51 1.695-0.968 0.412-1.996 0.621-3.054 0.621h-118.2c-1.056 0-2.086-0.209-3.054-0.621-0.938-0.398-1.783-0.968-2.508-1.695-0.728-0.726-1.298-1.569-1.696-2.508-0.412-0.971-0.621-1.998-0.621-3.057v-66.216h133.96v66.216c0 1.059-0.209 2.086-0.622 3.057" fill="#006f51"/></g><g transform="translate(290.93 272.79)"><path d="m0 0c0.453-1.064 1.1-2.021 1.924-2.844 0.822-0.824 1.779-1.47 2.845-1.921 1.1-0.469 2.268-0.705 3.469-0.705h118.2c1.202 0 2.369 0.236 3.47 0.705 1.065 0.451 2.022 1.097 2.846 1.921 0.823 0.823 1.471 1.78 1.924 2.844 0.467 1.103 0.704 2.27 0.704 3.473v18.883h-1.063v-18.883c0-1.059-0.209-2.088-0.622-3.057-0.398-0.937-0.968-1.782-1.695-2.508-0.726-0.726-1.57-1.296-2.51-1.695-0.968-0.412-1.996-0.621-3.054-0.621h-118.2c-1.056 0-2.086 0.209-3.054 0.621-0.938 0.399-1.783 0.969-2.508 1.695-0.728 0.726-1.298 1.571-1.696 2.508-0.412 0.969-0.621 1.998-0.621 3.057v18.883h-1.064v-18.883c0-1.203 0.238-2.37 0.705-3.473"/></g><g transform="translate(417.37 371.07)"><path d="m0 0h-118.2c-5.35 0-9.704-4.355-9.704-9.708v-85.099c0-5.352 4.354-9.706 9.704-9.706h118.2c5.352 0 9.707 4.354 9.707 9.706v85.099c0 5.353-4.355 9.708-9.707 9.708m0-0.25c5.201 0 9.457-4.256 9.457-9.458v-85.099c0-5.202-4.256-9.456-9.457-9.456h-118.2c-5.199 0-9.454 4.254-9.454 9.456v85.099c0 5.202 4.255 9.458 9.454 9.458h118.2"/></g><g transform="translate(339.34 370.94)"><path d="m0 0c-1.372 0-2.488 1.117-2.488 2.49v18.908c0 1.371 1.116 2.486 2.488 2.486h85.104c1.372 0 2.488-1.115 2.488-2.486v-18.908c0-1.373-1.116-2.49-2.488-2.49z" fill="#fff"/></g><g transform="translate(424.45 394.95)"><path d="m0 0h-85.104c-1.441 0-2.613-1.171-2.613-2.611v-18.908c0-1.442 1.172-2.615 2.613-2.615h85.104c1.441 0 2.613 1.173 2.613 2.615v18.908c0 1.44-1.172 2.611-2.613 2.611m0-0.25c1.304 0 2.363-1.059 2.363-2.361v-18.908c0-1.307-1.059-2.365-2.363-2.365h-85.104c-1.304 0-2.363 1.058-2.363 2.365v18.908c0 1.302 1.059 2.361 2.363 2.361h85.104"/></g><g transform="translate(338.56 373.43)"><path d="m0 0v18.908c0 0.432 0.354 0.785 0.787 0.785h85.104c0.433 0 0.787-0.353 0.787-0.785v-18.908c0-0.436-0.354-0.789-0.787-0.789h-85.104c-0.433 0-0.787 0.353-0.787 0.789" fill="#006f51"/></g><path d="m371.73 386.54h1.418v-7.881h-1.418z" fill="#fff"/><g transform="translate(378.13 385.16)"><path d="m0 0v-6.499h-1.381v6.499h-2.263v1.382h5.91v-1.382z" fill="#fff"/></g><g transform="translate(368.49 378.66)"><path d="m0 0-1.778 2.794-1.75-2.794h-1.666l2.584 4.149-2.362 3.732h1.694l1.5-2.406 1.5 2.406h1.693l-2.331-3.732 2.582-4.149z" fill="#fff"/></g><g transform="translate(356.28 378.66)"><path d="m0 0v7.881h5.77v-1.411h-4.328v-1.465h2.358v-1.438h-2.358v-2.156h4.467v-1.411z" fill="#fff"/></g><g transform="translate(393.5 376.87)"><path d="m0 0 0.041 8.835h-1.484l-0.041 1.701c0.906 0.207 1.402 0.538 1.856 1.285h1.689v-11.821z" fill="#fff"/></g><g transform="translate(402.72 386.78)"><path d="m0 0c-1.458 0-2.29-0.417-2.29-1.08 0-0.706 0.832-1.12 2.29-1.12s2.29 0.414 2.29 1.12c0 0.663-0.832 1.08-2.29 1.08m0-4.315c-1.708 0-2.665-0.664-2.665-1.824 0-0.581 0.332-1.162 0.873-1.494 0.334-0.207 1.084-0.332 1.792-0.332 0.999 0 1.624 0.125 2.04 0.498s0.625 0.83 0.625 1.328c0 1.16-0.958 1.824-2.665 1.824m0-5.807c-2.915 0-4.79 1.577-4.79 3.983 0 1.119 0.457 2.072 1.332 2.861-0.75 0.871-0.957 1.367-0.957 2.156 0 1.95 1.79 3.235 4.415 3.235 2.665 0 4.415-1.285 4.415-3.235 0-0.789-0.209-1.285-0.916-2.156 0.873-0.789 1.29-1.742 1.29-2.861 0-2.822-2.333-3.983-4.789-3.983" fill="#fff"/></g><g transform="translate(326.72 317.93)"><path d="m0 0h-3.694v-2.866h3.694c0.969 0 1.587 0.574 1.587 1.455 0 0.793-0.661 1.411-1.587 1.411m2.116-4.849c-0.748-0.397-1.279-0.529-2.426-0.529h-3.384v-4.717h-2.47v12.608h5.987c1.058 0 1.587-0.133 2.293-0.529 1.19-0.706 1.939-1.984 1.939-3.395 0-1.455-0.749-2.778-1.939-3.438" fill="#fff"/></g><g transform="translate(393.59 311.54)"><path d="m0 0c-0.753 0.266-1.638 0.398-2.127 0.398-0.797 0-1.416-0.441-1.416-1.013 0-0.574 0.752-1.059 1.638-1.059 0.532 0 1.196 0.088 1.905 0.485zm0-3.701v0.309c-0.886-0.354-1.728-0.441-2.435-0.441-2.039 0-3.5 1.278-3.5 3.085 0 1.896 1.638 3.306 3.808 3.306 0.532 0 1.374-0.089 2.127-0.353-0.045 0.883-0.709 1.236-1.638 1.236-0.887 0-1.729-0.222-2.615-0.706l-0.929 1.984c1.372 0.705 2.303 0.969 3.544 0.969 2.523 0 4.029-1.233 4.029-3.791v-5.598z" fill="#fff"/></g><g transform="translate(356.54 307.91)"><path d="m0 0v5.509c0 0.838-0.754 1.498-1.64 1.498-0.843 0-1.597-0.705-1.597-1.41v-5.597h-2.394v5.509c0 0.838-0.709 1.498-1.596 1.498s-1.641-0.66-1.641-1.455v-5.552h-2.527v9.167h2.527v-0.484c0.888 0.529 1.508 0.705 2.395 0.705 0.974 0 1.773-0.353 2.437-1.058 1.2 0.837 1.774 1.058 2.838 1.058 1.951 0 3.68-1.322 3.68-3.086v-6.302z" fill="#fff"/></g><g transform="translate(381.27 307.91)"><path d="m0 0v5.509c0 0.838-0.576 1.498-1.551 1.498-0.886 0-1.771-0.705-1.771-1.455v-5.552h-2.526v9.167h2.526v-0.484c0.842 0.529 1.638 0.705 2.479 0.705 1.906 0 3.323-1.322 3.323-3.086v-6.302z" fill="#fff"/></g><g transform="translate(336.91 314.91)"><path d="m0 0c-0.973 0-1.725-1.057-1.725-2.424 0-1.322 0.752-2.38 1.725-2.38 0.927 0 1.769 1.058 1.769 2.38 0 1.367-0.842 2.424-1.769 2.424m0-7.185c-2.299 0-4.245 2.117-4.245 4.761 0 2.733 1.858 4.805 4.245 4.805 2.211 0 4.333-2.16 4.333-4.805 0-2.644-2.078-4.761-4.333-4.761" fill="#fff"/></g><g transform="translate(367.18 314.91)"><path d="m0 0c-0.972 0-1.724-1.057-1.724-2.424 0-1.322 0.752-2.38 1.724-2.38 0.928 0 1.77 1.058 1.77 2.38 0 1.367-0.842 2.424-1.77 2.424m0-7.185c-2.3 0-4.245 2.117-4.245 4.761 0 2.733 1.856 4.805 4.245 4.805 2.211 0 4.334-2.16 4.334-4.805 0-2.644-2.078-4.761-4.334-4.761" fill="#fff"/></g><g transform="translate(372.45 343.97)"><path d="m0 0c0-7.834-6.35-14.186-14.184-14.186-7.832 0-14.182 6.352-14.182 14.186 0 7.832 6.35 14.183 14.182 14.183 7.834 0 14.184-6.351 14.184-14.183" fill="#fff"/></g><g transform="translate(353.61 347.4)"><path d="m0 0-4.049-5.324h4.049zm2.248-7.365v-3.534h-2.248v3.534h-7.049v1.343l7.049 9.307h2.248v-8.609h1.348v-2.041z"/></g><g transform="translate(362.55 336.25)"><path d="m0 0c-1.244 0-2.489 0.298-3.484 0.797l1.096 1.988c0.597-0.296 1.642-0.496 2.688-0.496 2.039 0 3.633 1.344 3.633 3.186 0 1.392-1.146 2.487-2.538 2.487-0.996 0-1.443-0.298-2.29-1.493l-2.241 0.646 0.35 7.317h8.161v-2.24h-5.972l-0.149-2.339c1.046 0.3 1.492 0.399 2.19 0.399 2.588 0 4.728-2.189 4.728-4.777 0-3.137-2.588-5.475-6.172-5.475"/></g><g transform="translate(339.34 177.26)"><path d="m0 0c-1.372 0-2.488 1.116-2.488 2.488v18.911c0 1.373 1.116 2.489 2.488 2.489h85.102c1.372 0 2.488-1.116 2.488-2.489v-18.911c0-1.372-1.116-2.488-2.488-2.488z" fill="#fff"/></g><g transform="translate(424.44 201.27)"><path d="m0 0h-85.102c-1.441 0-2.613-1.173-2.613-2.614v-18.911c0-1.441 1.172-2.613 2.613-2.613h85.102c1.441 0 2.613 1.172 2.613 2.613v18.911c0 1.441-1.172 2.614-2.613 2.614m0-0.25c1.305 0 2.363-1.059 2.363-2.364v-18.911c0-1.306-1.058-2.363-2.363-2.363h-85.102c-1.305 0-2.363 1.057-2.363 2.363v18.911c0 1.305 1.058 2.364 2.363 2.364h85.102"/></g><g transform="translate(338.56 179.74)"><path d="m0 0v18.911c0 0.435 0.354 0.789 0.787 0.789h85.102c0.435 0 0.789-0.354 0.789-0.789v-18.911c0-0.435-0.354-0.789-0.789-0.789h-85.102c-0.433 0-0.787 0.354-0.787 0.789" fill="#006f51"/></g><path d="m371.73 193.16h1.42v-7.879h-1.42z" fill="#fff"/><g transform="translate(378.13 191.78)"><path d="m0 0v-6.497h-1.381v6.497h-2.263v1.382h5.908v-1.382z" fill="#fff"/></g><g transform="translate(368.49 185.28)"><path d="m0 0-1.778 2.793-1.75-2.793h-1.666l2.582 4.148-2.36 3.731h1.694l1.5-2.405 1.498 2.405h1.695l-2.333-3.731 2.583-4.148z" fill="#fff"/></g><g transform="translate(356.28 185.28)"><path d="m0 0v7.879h5.77v-1.409h-4.328v-1.466h2.359v-1.437h-2.359v-2.157h4.468v-1.41z" fill="#fff"/></g><g transform="translate(393.5 183.49)"><path d="m0 0 0.041 8.834h-1.484l-0.041 1.7c0.906 0.207 1.4 0.54 1.856 1.286h1.689v-11.82z" fill="#fff"/></g><g transform="translate(402.72 193.4)"><path d="m0 0c-1.457 0-2.291-0.414-2.291-1.078 0-0.706 0.834-1.12 2.291-1.12 1.458 0 2.29 0.414 2.29 1.12 0 0.664-0.832 1.078-2.29 1.078m0-4.313c-1.707 0-2.666-0.664-2.666-1.824 0-0.582 0.334-1.162 0.875-1.494 0.334-0.207 1.084-0.332 1.791-0.332 1 0 1.623 0.125 2.04 0.498s0.626 0.83 0.626 1.328c0 1.16-0.959 1.824-2.666 1.824m0-5.806c-2.914 0-4.789 1.576-4.789 3.982 0 1.119 0.457 2.072 1.332 2.86-0.75 0.871-0.957 1.368-0.957 2.158 0 1.948 1.79 3.234 4.414 3.234 2.666 0 4.415-1.286 4.415-3.234 0-0.79-0.208-1.287-0.917-2.158 0.875-0.788 1.292-1.741 1.292-2.86 0-2.822-2.333-3.982-4.79-3.982" fill="#fff"/></g><g transform="translate(426.82 63.665)"><path d="m0 0c0-5.2-4.256-9.455-9.457-9.455h-118.2c-5.199 0-9.454 4.255-9.454 9.455v104.03c0 5.199 4.255 9.455 9.454 9.455h118.2c5.201 0 9.457-4.256 9.457-9.455z" fill="#fff"/></g><g transform="translate(426.82 82.55)"><path d="m0 0v-18.885c0-5.2-4.256-9.455-9.457-9.455h-118.2c-5.199 0-9.454 4.255-9.454 9.455v18.885z" fill="#ffd24f"/></g><g transform="translate(424.63 170.75)"><path d="m0 0c-0.398 0.938-0.968 1.782-1.695 2.508-0.726 0.728-1.57 1.297-2.508 1.695-0.97 0.413-1.998 0.622-3.056 0.622h-118.2c-1.056 0-2.084-0.209-3.054-0.622-0.938-0.398-1.783-0.967-2.509-1.695-0.727-0.726-1.296-1.57-1.695-2.508-0.412-0.97-0.621-1.998-0.621-3.054v-85.141h133.96v85.141c0 1.056-0.21 2.084-0.622 3.054" fill="#006f51"/></g><g transform="translate(290.93 60.195)"><path d="m0 0c0.451-1.065 1.098-2.022 1.92-2.846 0.824-0.822 1.781-1.469 2.847-1.922 1.1-0.469 2.268-0.705 3.469-0.705h118.2c1.202 0 2.37 0.236 3.472 0.705 1.063 0.453 2.02 1.1 2.844 1.922 0.823 0.824 1.471 1.781 1.922 2.846 0.469 1.101 0.706 2.269 0.706 3.47v18.885h-1.063v-18.885c0-1.058-0.21-2.086-0.622-3.054-0.398-0.939-0.968-1.783-1.695-2.508-0.726-0.728-1.57-1.297-2.508-1.697-0.97-0.411-1.998-0.62-3.056-0.62h-118.2c-1.056 0-2.084 0.209-3.054 0.62-0.938 0.4-1.783 0.969-2.509 1.697-0.727 0.725-1.296 1.569-1.695 2.508-0.412 0.968-0.621 1.996-0.621 3.054v18.885h-1.062v-18.885c0-1.201 0.236-2.369 0.705-3.47"/></g><g transform="translate(417.37 177.4)"><path d="m0 0h-118.2c-5.35 0-9.704-4.354-9.704-9.705v-104.03c0-5.351 4.354-9.705 9.704-9.705h118.2c5.352 0 9.707 4.354 9.707 9.705v104.03c0 5.351-4.355 9.705-9.707 9.705m0-0.25c5.201 0 9.457-4.256 9.457-9.455v-104.03c0-5.2-4.256-9.455-9.457-9.455h-118.2c-5.199 0-9.454 4.255-9.454 9.455v104.03c0 5.199 4.255 9.455 9.454 9.455h118.2"/></g><g transform="translate(374.76 94.566)"><path d="m0 0v7.881h5.773v-1.412h-4.328v-1.463h2.356v-1.439h-2.356v-2.156h4.464v-1.411z" fill="#fff"/></g><path d="m363.37 102.45h1.418v-7.881h-1.418z" fill="#fff"/><g transform="translate(367.25 94.566)"><path d="m0 0v7.881h1.415v-6.663h4.493v-1.218z" fill="#fff"/></g><g transform="translate(359.52 94.566)"><path d="m0 0v4.812l-2.33-4.812-2.304 4.812v-4.812h-1.388v7.881h1.388l2.304-4.673 2.33 4.673h1.389v-7.881z" fill="#fff"/></g><g transform="translate(337.35 92.597)"><path d="m0 0 0.04 8.833h-1.484l-0.04 1.7c0.907 0.207 1.401 0.539 1.854 1.285h1.692v-11.818z" fill="#fff"/></g><g transform="translate(326.72 124.32)"><path d="m0 0h-3.695v-2.866h3.695c0.97 0 1.587 0.573 1.587 1.453 0 0.795-0.663 1.413-1.587 1.413m2.116-4.85c-0.75-0.397-1.279-0.528-2.426-0.528h-3.385v-4.718h-2.468v12.607h5.986c1.058 0 1.587-0.132 2.293-0.529 1.19-0.704 1.94-1.982 1.94-3.395 0-1.453-0.75-2.775-1.94-3.437" fill="#fff"/></g><g transform="translate(393.59 117.93)"><path d="m0 0c-0.751 0.265-1.636 0.397-2.125 0.397-0.797 0-1.416-0.441-1.416-1.014 0-0.572 0.752-1.057 1.639-1.057 0.531 0 1.195 0.087 1.902 0.485zm0-3.703v0.308c-0.884-0.352-1.726-0.439-2.434-0.439-2.038 0-3.499 1.277-3.499 3.084 0 1.896 1.638 3.307 3.808 3.307 0.532 0 1.374-0.088 2.125-0.352-0.041 0.881-0.707 1.232-1.636 1.232-0.887 0-1.729-0.219-2.615-0.704l-0.929 1.984c1.374 0.705 2.303 0.97 3.544 0.97 2.525 0 4.03-1.234 4.03-3.791v-5.599z" fill="#fff"/></g><g transform="translate(356.54 114.29)"><path d="m0 0v5.51c0 0.84-0.754 1.5-1.641 1.5-0.842 0-1.596-0.707-1.596-1.412v-5.598h-2.394v5.51c0 0.84-0.709 1.5-1.596 1.5s-1.641-0.66-1.641-1.455v-5.555h-2.527v9.168h2.527v-0.484c0.887 0.529 1.508 0.707 2.395 0.707 0.974 0 1.773-0.354 2.437-1.06 1.198 0.837 1.774 1.06 2.84 1.06 1.95 0 3.68-1.324 3.68-3.088v-6.303z" fill="#fff"/></g><g transform="translate(381.27 114.29)"><path d="m0 0v5.51c0 0.84-0.576 1.5-1.551 1.5-0.886 0-1.771-0.707-1.771-1.455v-5.555h-2.526v9.168h2.526v-0.484c0.842 0.529 1.638 0.707 2.48 0.707 1.905 0 3.321-1.324 3.321-3.088v-6.303z" fill="#fff"/></g><g transform="translate(336.91 121.3)"><path d="m0 0c-0.973 0-1.725-1.059-1.725-2.425 0-1.323 0.752-2.382 1.725-2.382 0.927 0 1.769 1.059 1.769 2.382 0 1.366-0.842 2.425-1.769 2.425m0-7.186c-2.299 0-4.246 2.116-4.246 4.761 0 2.734 1.859 4.806 4.246 4.806 2.211 0 4.334-2.161 4.334-4.806s-2.079-4.761-4.334-4.761" fill="#fff"/></g><g transform="translate(367.18 121.3)"><path d="m0 0c-0.972 0-1.722-1.059-1.722-2.425 0-1.323 0.75-2.382 1.722-2.382 0.928 0 1.77 1.059 1.77 2.382 0 1.366-0.842 2.425-1.77 2.425m0-7.186c-2.3 0-4.245 2.116-4.245 4.761 0 2.734 1.858 4.806 4.245 4.806 2.211 0 4.334-2.161 4.334-4.806s-2.078-4.761-4.334-4.761" fill="#fff"/></g><g transform="translate(372.45 150.36)"><path d="m0 0c0-7.834-6.35-14.184-14.184-14.184-7.832 0-14.184 6.35-14.184 14.184 0 7.833 6.352 14.183 14.184 14.183 7.834 0 14.184-6.35 14.184-14.183" fill="#fff"/></g><g transform="translate(353.61 153.78)"><path d="m0 0-4.049-5.326h4.049zm2.248-7.365v-3.533h-2.248v3.533h-7.047v1.342l7.047 9.308h2.248v-8.611h1.35v-2.039z"/></g><g transform="translate(362.55 142.63)"><path d="m0 0c-1.244 0-2.488 0.299-3.484 0.796l1.096 1.991c0.597-0.299 1.642-0.498 2.687-0.498 2.04 0 3.634 1.344 3.634 3.186 0 1.392-1.145 2.488-2.539 2.488-0.995 0-1.442-0.299-2.289-1.492l-2.239 0.646 0.347 7.316h8.162v-2.24h-5.972l-0.149-2.338c1.045 0.297 1.492 0.397 2.19 0.397 2.588 0 4.728-2.189 4.728-4.777 0-3.135-2.588-5.475-6.172-5.475"/></g><g transform="translate(301.01 64.454)"><path d="m0 0v9.456h6.926v-1.691h-5.195v-1.759h2.83v-1.725h-2.83v-2.588h5.361v-1.693z"/></g><path d="m320.68 73.91h1.701v-9.456h-1.701z"/><g transform="translate(329 72.252)"><path d="m0 0v-7.798h-1.659v7.798h-2.716v1.658h7.091v-1.658z"/></g><g transform="translate(316.14 64.454)"><path d="m0 0-2.133 3.353-2.099-3.353h-2l3.099 4.978-2.834 4.478h2.034l1.8-2.886 1.799 2.886h2.033l-2.8-4.478 3.101-4.978z"/></g><g transform="translate(398.54 64.45)"><path d="m0 0v9.456h1.699v-7.996h5.392v-1.46z"/></g><g transform="translate(394.63 64.45)"><path d="m0 0-4.532 6.503v-6.503h-1.666v9.456h1.666l4.365-6.238v6.238h1.631v-9.456z"/></g><g transform="translate(382.4 72.38)"><path d="m0 0c-1.43 0-2.295-1.194-2.295-3.185 0-2.024 0.865-3.218 2.295-3.218 1.797 0 2.229 1.758 2.229 3.218 0 1.991-0.799 3.185-2.229 3.185m0-8.096c-2.793 0-4.023 2.522-4.023 4.911 0 3.018 1.529 4.877 4.023 4.877 2.328 0 3.924-1.958 3.924-4.843 0-2.954-1.529-4.945-3.924-4.945"/></g><g transform="translate(411.55 68.299)"><path d="m0 0v-3.849h-1.689v3.849l-3.983 5.607h2.09l2.754-3.848 2.719 3.848h2.09z"/></g><g transform="translate(368.05 73.123)"><path d="m0 0c-0.086 0-0.154 0-0.224-0.017l-9.043-2.348v7.092h-5.123v-7.092l-9.061 2.348c-0.068 0.017-0.139 0.017-0.189 0.017-0.446 0-0.788-0.343-0.788-0.789 0-0.205 0.086-0.41 0.239-0.564l0.017-0.018 12.352-11.238 12.334 11.238c0.17 0.154 0.273 0.377 0.273 0.582 0 0.446-0.359 0.789-0.787 0.789"/></g><g transform="translate(302.64 277.05)"><path d="m0 0v9.456h6.926v-1.691h-5.195v-1.759h2.83v-1.726h-2.83v-2.587h5.361v-1.693z"/></g><path d="m322.32 286.5h1.702v-9.456h-1.702z"/><g transform="translate(330.63 284.84)"><path d="m0 0v-7.798h-1.657v7.798h-2.718v1.658h7.092v-1.658z"/></g><g transform="translate(317.77 277.05)"><path d="m0 0-2.133 3.353-2.099-3.353h-2l3.099 4.978-2.833 4.478h2.032l1.801-2.887 1.799 2.887h2.033l-2.8-4.478 3.101-4.978z"/></g><g transform="translate(400.17 277.04)"><path d="m0 0v9.456h1.7v-7.996h5.392v-1.46z"/></g><g transform="translate(396.26 277.04)"><path d="m0 0-4.531 6.503v-6.503h-1.666v9.456h1.666l4.365-6.238v6.238h1.632v-9.456z"/></g><g transform="translate(384.03 284.97)"><path d="m0 0c-1.43 0-2.294-1.194-2.294-3.186 0-2.023 0.864-3.217 2.294-3.217 1.797 0 2.228 1.757 2.228 3.217 0 1.992-0.798 3.186-2.228 3.186m0-8.096c-2.793 0-4.024 2.522-4.024 4.91 0 3.019 1.53 4.878 4.024 4.878 2.328 0 3.924-1.958 3.924-4.843 0-2.955-1.53-4.945-3.924-4.945"/></g><g transform="translate(413.19 280.89)"><path d="m0 0v-3.849h-1.689v3.849l-3.982 5.607h2.089l2.754-3.848 2.719 3.848h2.09z"/></g><g transform="translate(369.69 285.71)"><path d="m0 0c-0.086 0-0.154 0-0.225-0.017l-9.043-2.348v7.092h-5.122v-7.092l-9.061 2.348c-0.069 0.017-0.138 0.017-0.189 0.017-0.446 0-0.788-0.344-0.788-0.789 0-0.205 0.086-0.41 0.239-0.564l0.017-0.018 12.352-11.238 12.334 11.238c0.171 0.154 0.273 0.377 0.273 0.582 0 0.445-0.359 0.789-0.787 0.789"/></g></g></g></svg>
