<?xml version="1.0" encoding="UTF-8"?>
<svg width="688.51" height="475.67" version="1.1" viewBox="0 0 688.51 475.67" xml:space="preserve" xmlns="http://www.w3.org/2000/svg"><defs><clipPath id="d"><path d="m54.625 348.68h522.99v389.32h-522.99z"/></clipPath><clipPath id="c"><path d="m54.625 348.68h522.99v389.32h-522.99z"/></clipPath><clipPath id="b"><path d="m54.625 348.68h522.99v389.32h-522.99z"/></clipPath><clipPath id="a"><path d="m54.625 348.68h522.99v389.32h-522.99z"/></clipPath></defs><g transform="matrix(1.3333 0 0 -1.3333 -74.667 940.74)"><g clip-path="url(#d)"><g transform="translate(306.69 542.04)"><path d="m0 0h56.901l27.809 20.505h67.656v50.893h-157.55c-14.008 0-17.295 17.986-17.295 17.986v59.941h-40.557v-59.25s-0.741-18.677-15.849-18.677h-160.72v-51.282h152.35s10.582-0.904 10.582-8.501c0-7.596-10.582-8.507-10.582-8.507h-56.889l-26.807-19.608h-68.657v-50.896h159.28c14.007 0 17.295-17.987 17.295-17.987v-61.726h40.557v61.037s0.74 18.676 15.848 18.676h158.99v50.896h-152.51s-10.44 0.397-10.44 7.993c0 7.597 10.583 8.507 10.583 8.507" fill="#b1b4b6"/></g><g transform="translate(306.41 500.09)"><path d="m0 0h157.64m-244.33 0h-156.23m156.23 87.9h-157.99m240.79 0h161.53" fill="none" stroke="#fff" stroke-dasharray="14.4, 43.2" stroke-width="2"/></g><g transform="translate(306.41 519.37)"><path d="m0 0h157.64m-401.97 48.949h157.64m-155.74-48.949h71.755l26.807 19.536h57.176m82.801 9.829 61.064-0.126 26.809 19.71h73.656" fill="none" stroke="#ffd200" stroke-width="2"/></g><g transform="translate(62.083 607.27)"><path d="m0 0h157.64m-156.61-126.46h156.61m86.69 0h157.64m-161.53 126.46h161.53" fill="none" stroke="#fff" stroke-width="2"/></g><g transform="translate(265.43 462.98)"><path d="m0 0v-73.047m-3 0v73.047m0 162.62v70.767m3 0v-70.767" fill="none" stroke="#ffd200" stroke-width="2"/></g><g transform="translate(274.08 670.16)"><path d="m0 0v6.354h-1.558l2.576 4.377 2.398-4.377h-1.439v-6.354z"/></g><g transform="translate(253.69 680.89)"><path d="m0 0v-6.354h1.559l-2.576-4.377-2.399 4.377h1.44v6.354z"/></g><g transform="translate(274.08 403.98)"><path d="m0 0v6.353h-1.558l2.576 4.377 2.398-4.377h-1.439v-6.353z"/></g><g transform="translate(253.69 414.71)"><path d="m0 0v-6.353h1.559l-2.576-4.377-2.399 4.377h1.44v6.353z"/></g><g transform="translate(415.94 510.85)"><path d="m0 0h6.354v1.558l4.377-2.576-4.377-2.398v1.439h-6.354z"/></g><g transform="translate(415.94 491.23)"><path d="m0 0h6.354v1.559l4.377-2.576-4.377-2.399v1.44h-6.354z"/></g><g transform="translate(426.67 576.53)"><path d="m0 0h-6.354v-1.559l-4.377 2.576 4.377 2.399v-1.44h6.354z"/></g><g transform="translate(426.67 596.14)"><path d="m0 0h-6.354v-1.558l-4.377 2.576 4.377 2.398v-1.439h6.354z"/></g><g transform="translate(266.43 460.98)"><path d="m0 0h21.648m-58.881 166.62h32.233" fill="none" stroke="#fff" stroke-width="4"/></g><g transform="translate(184.17 548.91)"><path d="m0 0v-5.639" fill="none" stroke="#000" stroke-width=".75"/></g><g transform="translate(184.71 542.03)"><path d="m0 0c0.262 0.867 0.504 1.432 0.783 2.128h-2.648c0.118-0.249 0.521-1.261 0.783-2.128 0.281-0.929 0.473-1.772 0.541-2.318 0.068 0.546 0.261 1.389 0.541 2.318"/></g><g transform="translate(184.17 562.98)"><path d="m0 0v-5.357" fill="none" stroke="#000" stroke-width=".75"/></g><g transform="translate(183.63 565.11)"><path d="M 0,0 C -0.262,-0.867 -0.504,-1.432 -0.783,-2.128 H 1.865 C 1.746,-1.879 1.344,-0.867 1.082,0 0.801,0.93 0.609,1.772 0.541,2.318 0.473,1.772 0.28,0.93 0,0"/></g></g><text transform="matrix(1 0 0 -1 115.61 550.12)" fill="#000000" font-family="Helvetica" font-size="9px" font-weight="bold"><tspan x="0 6.4980001 11.502 15.003 18.323999 23.688 30.690001 35.694 39.195 41.696999 44.694 50.193001 55.196999 60.695999 63.198002 68.202003 73.206001 75.708 78.705002" y="0">Narrower than 30 ft</tspan></text><g clip-path="url(#c)"><g transform="translate(205.1 469.31)"><path d="m0 0v-2.872h3v-2.033h7.819v2.033h3v2.872z"/></g><g transform="translate(295.69 465.6)"><path d="m0 0v-2.871h3v-2.033h7.819v2.033h3v2.871z"/></g><g transform="translate(309.51 455.35)"><path d="m0 0v2.872h-3v2.033h-7.819v-2.033h-3v-2.872z"/></g><g transform="translate(218.77 631.55)"><path d="m0 0v-2.871h3v-2.033h7.818v2.033h3v2.871z"/></g><g transform="translate(232.59 621.3)"><path d="m0 0v2.871h-3v2.034h-7.818v-2.034h-3v-2.871z"/></g><g transform="translate(226.1 557.27)"><path d="m0 0-2.029 2.029-2.03-2.03-0.092-0.091-1.438 1.439-5.529-5.529 1.439-1.438-2.121-2.122 2.029-2.03z"/></g><g transform="translate(300.93 530.05)"><path d="m0 0 2.029-2.029 2.032 2.03 0.092 0.091 1.437-1.438 5.529 5.528-1.439 1.438 2.121 2.122-2.029 2.03z"/></g><g transform="translate(350.24 676.39)"><path d="m0 0-2.35-0.716 1.543-2.171-1.41-0.984-1.521 2.037-1.543-2.037-1.411 0.984 1.522 2.171-2.328 0.716 0.515 1.635 2.282-0.762v2.664h1.902v-2.664l2.262 0.762z"/></g><g transform="translate(181.29 439.15)"><path d="m0 0-2.349-0.715 1.543-2.172-1.41-0.984-1.522 2.037-1.543-2.037-1.41 0.984 1.522 2.172-2.329 0.715 0.516 1.635 2.281-0.762v2.664h1.903v-2.664l2.261 0.762z"/></g><g transform="translate(518.23 365.94)"><path d="m0 0v90.942m22.738 0v-90.942" fill="none" stroke="#000" stroke-width="2.055"/></g><g transform="translate(497.33,358.86)"><path d="m0 0h5.248v-0.774h-2.188v-5.689h-0.873v5.689h-2.187z"/></g><g transform="translate(505.15 357.1)"><path d="m0 0h0.873c-0.549-1.539-1.088-3.078-1.692-4.617-0.746-1.908-0.828-2.016-1.845-2.016-0.117 0-0.207 0.037-0.332 0.072v0.721c0.099-0.037 0.261-0.082 0.476-0.082 0.414 0 0.459 0.117 0.838 1.09l-1.746 4.832h0.901l1.25-3.834h0.017z"/></g><g transform="translate(506.65 350.53)"><path d="m0 0h0.793v2.359h0.018c0.207-0.334 0.621-0.631 1.251-0.631 1.602 0 2.069 1.504 2.069 2.629 0 1.322-0.711 2.348-1.961 2.348-0.856 0-1.215-0.53-1.404-0.801h-0.018v0.666h-0.748zm0.756 3.996c0 0.765 0.127 1.998 1.269 1.998 1.225 0 1.287-1.16 1.287-1.764 0-1.035-0.404-1.818-1.269-1.818-0.504 0-1.287 0.334-1.287 1.584"/></g><path d="m512.52 357.1h-0.791v-4.707h0.791zm0 1.756h-0.791v-0.901h0.791z"/><g transform="translate(516.65 355.52)"><path d="m0 0c-0.098 0.631-0.449 1.008-1.115 1.008-0.981 0-1.297-0.936-1.297-1.772 0-0.81 0.199-1.81 1.287-1.81 0.531 0 0.99 0.396 1.125 1.117h0.765c-0.08-0.748-0.539-1.801-1.918-1.801-1.322 0-2.105 1-2.105 2.358 0 1.459 0.703 2.619 2.26 2.619 1.232 0 1.701-0.899 1.763-1.719z"/></g><g transform="translate(518.91 355.67)"><path d="m0 0c0.054 0.36 0.179 0.909 1.08 0.909 0.746 0 1.107-0.27 1.107-0.766 0-0.467-0.226-0.539-0.414-0.557l-1.305-0.162c-1.314-0.162-1.431-1.08-1.431-1.476 0-0.811 0.611-1.36 1.476-1.36 0.918 0 1.395 0.432 1.701 0.766 0.026-0.36 0.135-0.721 0.836-0.721 0.18 0 0.297 0.055 0.432 0.09v0.576c-0.09-0.017-0.189-0.035-0.26-0.035-0.162 0-0.261 0.08-0.261 0.279v2.709c0 1.205-1.368 1.313-1.747 1.313-1.16 0-1.908-0.44-1.943-1.565zm2.168-1.648c0-0.629-0.719-1.106-1.457-1.106-0.594 0-0.856 0.305-0.856 0.819 0 0.594 0.621 0.711 1.008 0.765 0.982 0.125 1.18 0.198 1.305 0.297z"/></g><path d="m524.02 352.4h-0.791v6.463h0.791z"/><g transform="translate(533.13 352.4)"><path d="m0 0v3.816c0 0.19 0.018 1.008 0.018 1.612h-0.018l-1.818-5.428h-0.865l-1.819 5.418h-0.017c0-0.594 0.017-1.412 0.017-1.602v-3.816h-0.845v6.463h1.252l1.845-5.463h0.018l1.836 5.463h1.242v-6.463z"/></g><g transform="translate(534.94 354.76)"><path d="m0 0c0-1.214 0.683-2.484 2.185-2.484 1.504 0 2.188 1.27 2.188 2.484 0 1.215-0.684 2.483-2.188 2.483-1.502 0-2.185-1.268-2.185-2.483m0.818 0c0 0.629 0.235 1.799 1.367 1.799 1.135 0 1.37-1.17 1.37-1.799 0-0.631-0.235-1.8-1.37-1.8-1.132 0-1.367 1.169-1.367 1.8"/></g><g transform="translate(543.28 352.4)"><path d="m0 0v0.686l-0.018 0.017c-0.332-0.549-0.738-0.838-1.494-0.838-0.693 0-1.529 0.334-1.529 1.459v3.383h0.791v-3.123c0-0.773 0.396-1.035 0.91-1.035 0.998 0 1.295 0.883 1.295 1.566v2.592h0.793v-4.707z"/></g><g transform="translate(549.05 352.4)"><path d="m0 0h-0.791v2.898c0 0.819-0.234 1.233-1.01 1.233-0.449 0-1.242-0.287-1.242-1.565v-2.566h-0.791v4.707h0.746v-0.666h0.02c0.17 0.252 0.611 0.801 1.422 0.801 0.728 0 1.646-0.297 1.646-1.637z"/></g><g transform="translate(551.2 356.45)"><path d="m0 0v-3.061c0-0.369 0.314-0.369 0.476-0.369h0.28v-0.621c-0.289-0.027-0.514-0.063-0.594-0.063-0.783 0-0.955 0.442-0.955 1.008v3.106h-0.639v0.656h0.639v1.314h0.793v-1.314h0.756v-0.656z"/></g><path d="m553.54 358.86h-0.793v-0.901h0.793zm0-1.756h-0.793v-4.707h0.793z"/><g transform="translate(558.56 352.4)"><path d="m0 0h-0.793v2.898c0 0.819-0.232 1.233-1.008 1.233-0.449 0-1.242-0.287-1.242-1.565v-2.566h-0.791v4.707h0.746v-0.666h0.02c0.17 0.252 0.611 0.801 1.422 0.801 0.728 0 1.646-0.297 1.646-1.637z"/></g><g transform="translate(563.63 357.1)"><path d="m0 0h-0.748v-0.693c-0.197 0.289-0.566 0.828-1.422 0.828-1.25 0-1.961-1.026-1.961-2.348 0-1.125 0.467-2.629 2.071-2.629 0.629 0 1.043 0.289 1.267 0.666v-0.197c0-0.559 0.028-1.656-1.34-1.656-0.189 0-0.918 0-1.062 0.746h-0.791c0.152-1.25 1.24-1.403 1.799-1.403 2.178 0 2.187 1.692 2.187 2.366zm-3.312-2.34c0 0.604 0.062 1.764 1.287 1.764 1.142 0 1.269-1.233 1.269-1.998 0-1.25-0.783-1.584-1.287-1.584-0.863 0-1.269 0.783-1.269 1.818"/></g><g transform="translate(499.27 476.41)"><path d="m0 0h60.553c2.38 0 4.326-1.942 4.326-4.325v-14.418c0-2.38-1.946-4.324-4.326-4.324h-60.553c-2.383 0-4.326 1.944-4.326 4.324v14.418c0 2.352 1.972 4.325 4.326 4.325" fill="#fff" stroke="#000" stroke-width=".25"/></g><g transform="translate(499.29 475.45)"><path d="m0 0h60.529c1.846-0.01 3.369-1.528 3.375-3.375v-14.395c-6e-3 -1.846-1.529-3.369-3.375-3.375h-60.529c-1.848 6e-3 -3.37 1.529-3.377 3.375v14.395c7e-3 1.847 1.529 3.365 3.377 3.375" fill-rule="evenodd"/></g><g transform="translate(546.31 455.42)"><path d="m0 0 13.986 9.463-13.986 9.475c-0.617 0.422-1.465 0.26-1.881-0.356-0.281-0.414-0.228-0.838-0.101-1.347l0.81-2.742h-44.426v-10.061h44.426l-0.781-2.672c-0.154-0.558-0.221-0.973 0.072-1.402 0.416-0.615 1.264-0.776 1.881-0.358" fill="#fff" fill-rule="evenodd"/></g><g transform="translate(520.75 460.94)"><path d="m0 0v1.24h-3.559v2.102h2.238v1.242h-2.238v1.887h3.316v1.214h-4.529v-7.685zm-5.944 0v7.685h-1.211v-4.908l-2.806 4.908h-1.213v-7.685h1.213v5.205l2.937-5.205zm-7.48 3.83c0-0.594-0.133-1.35-0.297-1.752-0.27-0.676-0.619-0.973-1.188-0.973-0.482 0-0.806 0.19-1.05 0.594-0.297 0.486-0.458 1.32-0.458 2.131 0 0.646 0.108 1.348 0.297 1.805 0.268 0.675 0.647 0.972 1.241 0.943 0.457-0.023 0.754-0.188 0.998-0.592 0.295-0.512 0.457-1.295 0.457-2.156m1.215 0c0 0.971-0.19 1.941-0.514 2.615-0.486 0.944-1.158 1.373-2.131 1.373-0.887 0-1.51-0.267-1.967-0.859-0.513-0.731-0.836-1.861-0.836-3.129 0-0.916 0.215-1.941 0.539-2.59 0.457-0.943 1.133-1.377 2.209-1.377 0.809 0 1.43 0.272 1.864 0.865 0.539 0.674 0.836 1.887 0.836 3.102" fill-rule="evenodd"/></g><g transform="translate(543.06 468.63)"><path d="m0 0h-1.432l-1.859-2.966-1.836 2.966h-1.455l2.697-4.343v-3.342h1.215v3.342zm-7.793-4.289h-1.537l0.779 2.159zm2.481-3.396-2.645 7.685h-1.213l-2.64-7.685h1.293l0.753 2.156h2.401l0.754-2.156zm-6.42 7.685h-1.241l-0.593-4.046-0.994 4.046h-1.188l-0.973-4.046-0.591 4.046h-1.241l1.133-7.685h1.08l1.186 4.935 1.213-4.935h1.078z" fill-rule="evenodd"/></g><g transform="translate(501.95 434.5)"><path d="m0 0v-22.869l16.179-16.151h22.846l16.176 16.151v22.869l-16.176 16.178h-22.846z" fill="#fff"/><path d="m0 0v-22.869l16.179-16.151h22.846l16.176 16.151v22.869l-16.176 16.178h-22.846z" fill="none" stroke="#000" stroke-width=".25"/></g><g transform="translate(503.33 433.95)"><path d="m0 0 15.365 15.356h21.691l15.383-15.356v-21.728l-15.383-15.358h-21.691l-15.365 15.358z" fill="#c41230" fill-rule="evenodd"/></g><g transform="translate(549.9 427.11)"><path d="m0 0c0-1.676-0.84-2.646-2.389-2.646h-2.711v5.226h2.711c1.422 0 2.389-1.031 2.389-2.58m2.578 0c0 3.098-1.932 5.162-4.838 5.162h-5.484v-18.39h2.644v8.068h2.84c3.098 0 4.838 1.803 4.838 5.16m-15.746-4.002c0-2.127-0.127-3.226-0.58-4.709-0.451-1.549-1.16-2.257-2.256-2.257-1.162 0-1.873 0.708-2.324 2.257-0.387 1.483-0.582 2.643-0.582 4.647 0 2.064 0.132 3.289 0.582 4.709 0.451 1.549 1.162 2.258 2.324 2.258 1.096 0 1.805-0.709 2.256-2.323 0.388-1.355 0.58-2.517 0.58-4.582m2.521 0c0 2.778-0.259 4.518-1.035 6.325-0.908 2.259-2.193 3.164-4.322 3.164-2.133 0-3.42-0.905-4.389-3.098-0.775-1.744-1.033-3.613-1.033-6.391 0-2.84 0.258-4.578 1.033-6.386 0.903-2.196 2.194-3.172 4.389-3.172 2.064 0 3.414 0.976 4.322 3.172 0.776 1.742 1.035 3.546 1.035 6.386m-12.199 6.713v2.451h-9.357v-2.451h3.357v-15.939h2.643v15.939zm-10.262-10.906c0 2.646-1.55 4.646-5.099 6.711-1.35 0.775-1.74 1.293-1.74 2.195 0 1.225 0.966 2.127 2.195 2.127 1.162 0 2.064-0.84 2.131-2.127h2.513c-0.064 2.774-2.064 4.776-4.644 4.776-2.647 0-4.709-2.131-4.709-4.776 0-1.615 0.773-3.035 2.254-4.068 3.744-2.514 2.713-1.803 3.099-2.192 1.096-0.837 1.487-1.613 1.487-2.646 0-1.486-1.164-2.773-2.586-2.773-1.803 0-2.58 1.613-2.58 3.164h-2.578c0-3.036 1.931-5.756 5.158-5.756 2.844 0 5.099 2.4 5.099 5.365" fill="#fff" fill-rule="evenodd"/></g><g transform="translate(572.38 478.7)"><path d="m0 0-2.349-0.717 1.543-2.17-1.411-0.984-1.521 2.037-1.543-2.037-1.41 0.984 1.521 2.17-2.328 0.717 0.516 1.634 2.281-0.761v2.664h1.902v-2.664l2.262 0.761z"/></g><g transform="translate(391.18 443.02)"><path d="m0 0-2.35-0.717 1.543-2.17-1.41-0.984-1.521 2.037-1.543-2.037-1.41 0.984 1.521 2.17-2.328 0.717 0.516 1.634 2.281-0.761v2.664h1.902v-2.664l2.262 0.761z"/></g><g transform="translate(391.18 463.6)"><path d="m0 0-2.35-0.717 1.543-2.169-1.41-0.984-1.521 2.037-1.543-2.037-1.41 0.984 1.521 2.169-2.328 0.717 0.516 1.635 2.281-0.762v2.664h1.902v-2.664l2.262 0.762z"/></g><g transform="translate(328.43 437.47)"><path d="m0 0s-24.961-4.443-25.255 14.071" fill="none" stroke="#000" stroke-width=".75"/></g><g transform="translate(302.6 452.87)"><path d="m0 0c-0.283-0.93-0.542-1.535-0.842-2.282l2.837-5e-3c-0.127 0.268-0.557 1.353-0.835 2.283-0.3 0.997-0.504 1.898-0.576 2.484-0.075-0.584-0.281-1.486-0.584-2.48"/></g><g transform="translate(328.68 461.94)"><path d="m0 0s-16.172 14.4-23.079 6.357" fill="none" stroke="#000" stroke-width=".75"/></g><g transform="translate(305.07 466.95)"><path d="m0 0c0.854 0.46 1.464 0.705 2.203 1.021l-2.008 2.006c-0.1-0.279-0.559-1.351-1.016-2.208-0.491-0.918-0.982-1.701-1.344-2.168 0.467 0.364 1.249 0.858 2.165 1.349"/></g><g transform="translate(183.81 437.2)"><path d="m0 0s16.794 42.09 25.681 34.447" fill="none" stroke="#000" stroke-width=".75"/></g><g transform="translate(210.78 471.24)"><path d="m0 0c-0.485 0.765-0.752 1.317-1.094 1.987l-1.735-2c0.265-0.074 1.294-0.433 2.121-0.804 0.885-0.397 1.647-0.804 2.103-1.11-0.366 0.409-0.878 1.106-1.395 1.927"/></g><g transform="translate(200.81 649.1)"><path d="m0 0s24.032 1.728 24.721-13.739" fill="none" stroke="#000" stroke-width=".75"/></g><g transform="translate(226.11 634.04)"><path d="m0 0c0.28 0.929 0.539 1.534 0.839 2.28h-2.838c0.127-0.267 0.559-1.351 0.839-2.28 0.302-0.995 0.507-1.899 0.581-2.484 0.074 0.586 0.279 1.489 0.579 2.484"/></g><g transform="translate(201.23 624.55)"><path d="m0 0s17.719-14.637 22.265-6.462" fill="none" stroke="#000" stroke-width=".75"/></g><g transform="translate(223.72 619.52)"><path d="m0 0c-0.735-0.635-1.277-1.007-1.93-1.476l2.396-1.521c0.036 0.294 0.252 1.44 0.513 2.375 0.28 1.002 0.59 1.874 0.842 2.408-0.376-0.455-1.034-1.107-1.821-1.786"/></g><g transform="translate(340.88 653.79)"><path d="m0 0s-18.25-45.277-27.987-37.301" fill="none" stroke="#000" stroke-width=".75"/></g><g transform="translate(311.59 616.84)"><path d="m0 0c0.511-0.75 0.799-1.291 1.165-1.945l1.662 2.06c-0.267 0.066-1.308 0.386-2.149 0.726-0.898 0.365-1.675 0.745-2.144 1.033 0.382-0.396 0.918-1.073 1.466-1.874"/></g><g transform="translate(317.21 618.72)"><path d="m0 0v2.87h-2.871l-0.129 1e-3v2.035h-7.818v-2.035l-3-1e-3v-2.87z"/></g><g transform="translate(195.92 638.54)"><path d="m0 0h-45.013c-1.772 0-3.215-1.443-3.215-3.214v-10.719c0-1.772 1.443-3.215 3.215-3.215h45.013c1.772 0 3.217 1.443 3.217 3.215v10.719c0 1.749-1.467 3.214-3.217 3.214" fill="#fff" stroke="#000" stroke-width=".25"/></g><g transform="translate(195.91 637.83)"><path d="m0 0h-44.997c-1.375-7e-3 -2.503-1.136-2.509-2.51v-10.7c6e-3 -1.372 1.136-2.504 2.509-2.51h44.997c1.371 6e-3 2.504 1.138 2.509 2.51v10.7c-5e-3 1.374-1.138 2.503-2.509 2.51" fill-rule="evenodd"/></g><g transform="translate(160.95 622.94)"><path d="m0 0-10.399 7.036 10.399 7.044c0.459 0.31 1.088 0.191 1.398-0.267 0.209-0.306 0.17-0.623 0.074-1l-0.601-2.039h33.025v-7.478h-33.025l0.58-1.986c0.115-0.416 0.164-0.723-0.053-1.043-0.31-0.458-0.939-0.579-1.398-0.267" fill="#fff" fill-rule="evenodd"/></g><g transform="translate(176.47 627.04)"><path d="m0 0v0.924h-2.644v1.563h1.664v0.923h-1.664v1.402h2.465v0.902h-3.368v-5.714zm-4.416 0v5.714h-0.902v-3.648l-2.084 3.648h-0.902v-5.714h0.902v3.871l2.185-3.871zm-5.562 2.849c0-0.442-0.1-1.004-0.221-1.305-0.201-0.5-0.461-0.72-0.883-0.72-0.359 0-0.599 0.14-0.781 0.441-0.221 0.36-0.34 0.983-0.34 1.584 0 0.481 0.08 1 0.221 1.342 0.199 0.502 0.482 0.722 0.922 0.701 0.34-0.019 0.56-0.139 0.74-0.441 0.221-0.381 0.342-0.961 0.342-1.602m0.902 0c0 0.721-0.141 1.442-0.381 1.943-0.359 0.702-0.863 1.023-1.582 1.023-0.664 0-1.125-0.201-1.465-0.643-0.381-0.54-0.621-1.381-0.621-2.323 0-0.682 0.16-1.443 0.401-1.925 0.339-0.702 0.841-1.026 1.642-1.026 0.602 0 1.063 0.203 1.383 0.645 0.402 0.501 0.623 1.404 0.623 2.306" fill-rule="evenodd"/></g><g transform="translate(193.12 632.76)"><path d="m0 0h-1.063l-1.383-2.205-1.363 2.205h-1.084l2.006-3.227v-2.487h0.902v2.487zm-5.793-3.186h-1.143l0.582 1.603zm1.843-2.528-1.964 5.714h-0.901l-1.965-5.714h0.963l0.561 1.605h1.785l0.558-1.605zm-4.769 5.714h-0.924l-0.441-3.006-0.741 3.006h-0.88l-0.723-3.006-0.442 3.006h-0.919l0.839-5.714h0.803l0.883 3.671 0.9-3.671h0.803z" fill-rule="evenodd"/></g><g transform="translate(195.92 641.97)"><path d="m0 0h-45.013c-1.77 0-3.215 1.443-3.215 3.215v10.719c0 1.769 1.445 3.213 3.215 3.213h45.013c1.772 0 3.217-1.444 3.217-3.213v-10.719c0-1.748-1.467-3.215-3.217-3.215" fill="#fff" stroke="#000" stroke-width=".25"/></g><g transform="translate(195.91 642.68)"><path d="m0 0h-44.997c-1.373 7e-3 -2.505 1.136-2.509 2.509v10.7c4e-3 1.372 1.136 2.505 2.509 2.51h44.997c1.373-5e-3 2.504-1.138 2.509-2.51v-10.7c-5e-3 -1.373-1.136-2.502-2.509-2.509" fill-rule="evenodd"/></g><g transform="translate(160.95 657.57)"><path d="m0 0-10.399-7.035 10.399-7.044c0.459-0.313 1.088-0.192 1.398 0.266 0.209 0.307 0.17 0.622 0.074 1l-0.601 2.04h33.025v7.478h-33.025l0.58 1.987c0.115 0.415 0.164 0.723-0.053 1.042-0.31 0.458-0.939 0.577-1.398 0.266" fill="#fff" fill-rule="evenodd"/></g><g transform="translate(179.96 653.47)"><path d="m0 0v-0.922h2.644v-1.562h-1.664v-0.924h1.664v-1.403h-2.465v-0.902h3.367v5.713zm4.418 0v-5.713h0.9v3.649l2.086-3.649h0.902v5.713h-0.902v-3.869l-2.184 3.869zm5.56-2.847c0 0.442 0.1 1.003 0.221 1.302 0.201 0.502 0.461 0.723 0.883 0.723 0.359 0 0.599-0.141 0.781-0.442 0.221-0.361 0.34-0.981 0.34-1.583 0-0.481-0.08-1.002-0.221-1.342-0.199-0.502-0.481-0.723-0.922-0.702-0.34 0.019-0.56 0.14-0.742 0.441-0.219 0.38-0.34 0.962-0.34 1.603m-0.902 0c0-0.721 0.14-1.444 0.381-1.945 0.361-0.7 0.861-1.021 1.584-1.021 0.66 0 1.123 0.2 1.462 0.64 0.381 0.543 0.622 1.384 0.622 2.326 0 0.681-0.161 1.443-0.401 1.925-0.34 0.701-0.842 1.024-1.642 1.024-0.602 0-1.063-0.202-1.385-0.644-0.401-0.501-0.621-1.402-0.621-2.305" fill-rule="evenodd"/></g><g transform="translate(163.37 647.75)"><path d="m0 0h1.064l1.381 2.205 1.365-2.205h1.082l-2.006 3.229v2.484h-0.902v-2.484zm5.793 3.188h1.142l-0.58-1.605zm-1.844 2.525 1.965-5.713h0.902l1.963 5.713h-0.961l-0.561-1.604h-1.785l-0.56 1.604zm4.771-5.713h0.922l0.442 3.008 0.74-3.008h0.883l0.722 3.008 0.44-3.008h0.922l-0.842 5.713h-0.803l-0.881-3.669-0.902 3.669h-0.801z" fill-rule="evenodd"/></g><g transform="translate(192.24 672.23)"><path d="m0 0v15.604l-11.039 11.019h-15.588l-11.036-11.019v-15.604l11.036-11.038h15.588z" fill="#fff"/><path d="m0 0v15.604l-11.039 11.019h-15.588l-11.036-11.019v-15.604l11.036-11.038h15.588z" fill="none" stroke="#000" stroke-width=".25"/></g><g transform="translate(191.3 672.61)"><path d="m0 0-10.482-10.477h-14.799l-10.496 10.477v14.824l10.496 10.479h14.799l10.482-10.479z" fill="#c41230" fill-rule="evenodd"/></g><g transform="translate(159.53 677.28)"><path d="m0 0c0 1.144 0.572 1.806 1.629 1.806h1.849v-3.566h-1.849c-0.969 0-1.629 0.703-1.629 1.76m-1.76 0c0-2.112 1.318-3.522 3.301-3.522h3.742v12.547h-1.805v-5.504h-1.937c-2.113 0-3.301-1.23-3.301-3.521m10.742 2.73c0 1.452 0.088 2.202 0.397 3.214 0.308 1.056 0.791 1.54 1.539 1.54 0.793 0 1.277-0.484 1.586-1.54 0.263-1.012 0.396-1.803 0.396-3.171 0-1.408-0.09-2.244-0.396-3.213-0.309-1.056-0.793-1.541-1.586-1.541-0.748 0-1.231 0.485-1.539 1.586-0.266 0.924-0.397 1.717-0.397 3.125m-1.718 0c0-1.894 0.175-3.082 0.705-4.314 0.619-1.541 1.496-2.158 2.949-2.158 1.455 0 2.334 0.617 2.994 2.113 0.529 1.189 0.705 2.465 0.705 4.359 0 1.938-0.176 3.125-0.705 4.359-0.615 1.497-1.496 2.164-2.994 2.164-1.408 0-2.33-0.667-2.949-2.164-0.53-1.189-0.705-2.421-0.705-4.359m8.322-4.58v-1.672h6.385v1.672h-2.291v10.875h-1.803v-10.875zm7.002 7.442c0-1.805 1.056-3.17 3.478-4.579 0.922-0.529 1.188-0.881 1.188-1.497 0-0.836-0.66-1.452-1.498-1.452-0.793 0-1.408 0.573-1.453 1.452h-1.715c0.043-1.893 1.408-3.258 3.168-3.258 1.806 0 3.213 1.453 3.213 3.258 0 1.101-0.528 2.07-1.538 2.775-2.554 1.715-1.851 1.23-2.115 1.496-0.748 0.571-1.013 1.1-1.013 1.805 0 1.013 0.793 1.892 1.763 1.892 1.231 0 1.76-1.1 1.76-2.158h1.76c0 2.07-1.319 3.927-3.52 3.927-1.939 0-3.478-1.637-3.478-3.661" fill="#fff" fill-rule="evenodd"/></g><g transform="translate(183.19 418.16)"><path d="m0 0h45.014c1.772 0 3.215 1.443 3.215 3.215v10.718c0 1.772-1.443 3.215-3.215 3.215h-45.014c-1.771 0-3.216-1.443-3.216-3.215v-10.718c0-1.748 1.466-3.215 3.216-3.215" fill="#fff" stroke="#000" stroke-width=".25"/></g><g transform="translate(183.2 418.87)"><path d="m0 0h44.996c1.375 5e-3 2.504 1.134 2.51 2.509v10.7c-6e-3 1.373-1.137 2.503-2.51 2.509h-44.996c-1.371-6e-3 -2.504-1.136-2.509-2.509v-10.7c5e-3 -1.375 1.138-2.504 2.509-2.509" fill-rule="evenodd"/></g><g transform="translate(218.16 433.76)"><path d="m0 0 10.399-7.037-10.399-7.043c-0.459-0.31-1.088-0.191-1.398 0.266-0.209 0.306-0.17 0.623-0.074 1l0.601 2.039h-33.025v7.478h33.025l-0.58 1.987c-0.115 0.416-0.164 0.722 0.053 1.043 0.31 0.459 0.939 0.578 1.398 0.267" fill="#fff" fill-rule="evenodd"/></g><g transform="translate(202.64 429.66)"><path d="m0 0v-0.924h2.644v-1.563h-1.664v-0.923h1.664v-1.403h-2.465v-0.902h3.368v5.715zm4.416 0v-5.715h0.902v3.648l2.084-3.648h0.902v5.715h-0.902v-3.871l-2.186 3.871zm5.562-2.85c0 0.443 0.1 1.004 0.221 1.305 0.201 0.5 0.461 0.72 0.883 0.72 0.359 0 0.599-0.14 0.781-0.441 0.221-0.359 0.34-0.982 0.34-1.584 0-0.48-0.08-1-0.221-1.342-0.199-0.502-0.482-0.72-0.922-0.701-0.34 0.02-0.56 0.139-0.74 0.442-0.221 0.38-0.342 0.96-0.342 1.601m-0.902 0c0-0.721 0.14-1.441 0.381-1.943 0.359-0.701 0.863-1.022 1.582-1.022 0.664 0 1.125 0.201 1.465 0.643 0.38 0.539 0.621 1.381 0.621 2.322 0 0.682-0.161 1.443-0.401 1.926-0.34 0.701-0.842 1.025-1.642 1.025-0.602 0-1.063-0.203-1.383-0.644-0.402-0.502-0.623-1.405-0.623-2.307" fill-rule="evenodd"/></g><g transform="translate(185.99 423.94)"><path d="m0 0h1.063l1.383 2.205 1.363-2.205h1.084l-2.006 3.228v2.487h-0.902v-2.487zm5.793 3.187h1.143l-0.582-1.603zm-1.843 2.528 1.964-5.715h0.901l1.965 5.715h-0.963l-0.561-1.606h-1.785l-0.559 1.606zm4.769-5.715h0.924l0.441 3.008 0.741-3.008h0.88l0.723 3.008 0.441-3.008h0.92l-0.839 5.715h-0.803l-0.883-3.672-0.9 3.672h-0.803z" fill-rule="evenodd"/></g><g transform="translate(333.56 449.05)"><path d="m0 0h45.014c1.771 0 3.215 1.443 3.215 3.215v10.718c0 1.772-1.444 3.215-3.215 3.215h-45.014c-1.771 0-3.217-1.443-3.217-3.215v-10.718c0-1.748 1.467-3.215 3.217-3.215" fill="#fff" stroke="#000" stroke-width=".25"/></g><g transform="translate(333.57 449.76)"><path d="m0 0h44.996c1.375 6e-3 2.504 1.134 2.51 2.509v10.7c-6e-3 1.373-1.137 2.504-2.51 2.509h-44.996c-1.371-5e-3 -2.504-1.136-2.51-2.509v-10.7c6e-3 -1.375 1.139-2.503 2.51-2.509" fill-rule="evenodd"/></g><g transform="translate(368.53 464.65)"><path d="m0 0 10.398-7.037-10.398-7.043c-0.459-0.31-1.088-0.191-1.399 0.266-0.209 0.307-0.17 0.623-0.074 1l0.602 2.039h-33.026v7.478h33.026l-0.58 1.987c-0.116 0.416-0.164 0.722 0.052 1.043 0.311 0.459 0.94 0.578 1.399 0.267" fill="#fff" fill-rule="evenodd"/></g><g transform="translate(353.01 460.55)"><path d="m0 0v-0.924h2.645v-1.563h-1.664v-0.923h1.664v-1.403h-2.465v-0.902h3.367v5.715zm4.416 0v-5.715h0.903v3.648l2.084-3.648h0.902v5.715h-0.902v-3.871l-2.186 3.871zm5.563-2.85c0 0.444 0.099 1.004 0.22 1.305 0.202 0.5 0.461 0.721 0.883 0.721 0.36 0 0.6-0.141 0.781-0.442 0.221-0.359 0.34-0.982 0.34-1.584 0-0.48-0.08-1-0.22-1.342-0.2-0.502-0.483-0.72-0.922-0.701-0.34 0.02-0.561 0.139-0.74 0.442-0.221 0.38-0.342 0.961-0.342 1.601m-0.903 0c0-0.721 0.141-1.441 0.381-1.943 0.36-0.701 0.864-1.022 1.582-1.022 0.664 0 1.125 0.202 1.465 0.643 0.381 0.539 0.621 1.381 0.621 2.322 0 0.682-0.16 1.444-0.4 1.926-0.34 0.701-0.842 1.025-1.643 1.025-0.601 0-1.062-0.203-1.383-0.644-0.402-0.502-0.623-1.404-0.623-2.307" fill-rule="evenodd"/></g><g transform="translate(336.36 454.84)"><path d="m0 0h1.062l1.383 2.205 1.363-2.205h1.084l-2.005 3.228v2.487h-0.903v-2.487zm5.793 3.187h1.142l-0.582-1.603zm-1.844 2.528 1.965-5.715h0.9l1.965 5.715h-0.963l-0.56-1.606h-1.785l-0.559 1.606zm4.77-5.715h0.923l0.442 3.008 0.74-3.008h0.881l0.723 3.008 0.441-3.008h0.92l-0.84 5.715h-0.803l-0.882-3.672-0.901 3.672h-0.803z" fill-rule="evenodd"/></g><g transform="translate(333.56 445.62)"><path d="m0 0h45.014c1.769 0 3.215-1.444 3.215-3.215v-10.719c0-1.77-1.446-3.213-3.215-3.213h-45.014c-1.771 0-3.217 1.443-3.217 3.213v10.719c0 1.748 1.467 3.215 3.217 3.215" fill="#fff" stroke="#000" stroke-width=".25"/></g><g transform="translate(333.57 444.91)"><path d="m0 0h44.996c1.373-6e-3 2.506-1.135 2.51-2.508v-10.701c-4e-3 -1.371-1.137-2.504-2.51-2.51h-44.996c-1.373 6e-3 -2.504 1.139-2.51 2.51v10.701c6e-3 1.373 1.137 2.502 2.51 2.508" fill-rule="evenodd"/></g><g transform="translate(368.53 430.02)"><path d="m0 0 10.398 7.035-10.398 7.045c-0.459 0.313-1.088 0.191-1.399-0.266-0.209-0.308-0.17-0.623-0.074-1.002l0.602-2.039h-33.026v-7.478h33.026l-0.58-1.986c-0.116-0.416-0.164-0.723 0.052-1.043 0.311-0.457 0.94-0.577 1.399-0.266" fill="#fff" fill-rule="evenodd"/></g><g transform="translate(349.52 434.13)"><path d="m0 0v0.922h-2.645v1.563h1.664v0.924h-1.664v1.402h2.465v0.902h-3.367v-5.713zm-4.418 0v5.713h-0.9v-3.648l-2.086 3.648h-0.903v-5.713h0.903v3.87l2.183-3.87zm-5.561 2.848c0-0.441-0.099-1.004-0.22-1.303-0.201-0.502-0.461-0.722-0.883-0.722-0.359 0-0.6 0.14-0.781 0.441-0.221 0.361-0.34 0.983-0.34 1.584 0 0.481 0.08 1.002 0.221 1.342 0.199 0.502 0.48 0.723 0.921 0.701 0.34-0.017 0.561-0.139 0.743-0.439 0.218-0.381 0.339-0.963 0.339-1.604m0.903 0c0 0.721-0.141 1.443-0.381 1.945-0.361 0.7-0.861 1.02-1.584 1.02-0.66 0-1.123-0.199-1.463-0.639-0.381-0.543-0.621-1.384-0.621-2.326 0-0.682 0.16-1.443 0.4-1.926 0.34-0.701 0.842-1.023 1.643-1.023 0.601 0 1.062 0.201 1.385 0.644 0.4 0.5 0.621 1.403 0.621 2.305" fill-rule="evenodd"/></g><g transform="translate(366.11 439.84)"><path d="m0 0h-1.065l-1.38-2.205-1.366 2.205h-1.082l2.006-3.228v-2.485h0.903v2.485zm-5.793-3.187h-1.143l0.58 1.605zm1.844-2.526-1.965 5.713h-0.902l-1.963-5.713h0.961l0.56 1.604h1.785l0.561-1.604zm-4.772 5.713h-0.922l-0.441-3.007-0.74 3.007h-0.883l-0.723-3.007-0.439 3.007h-0.922l0.842-5.713h0.802l0.881 3.67 0.903-3.67h0.8z" fill-rule="evenodd"/></g><g transform="translate(337.24 415.36)"><path d="m0 0v-15.604l11.039-11.019h15.588l11.035 11.019v15.604l-11.035 11.037h-15.588z" fill="#fff"/><path d="m0 0v-15.604l11.039-11.019h15.588l11.035 11.019v15.604l-11.035 11.037h-15.588z" fill="none" stroke="#000" stroke-width=".25"/></g><g transform="translate(338.18 414.98)"><path d="m0 0 10.483 10.477h14.798l10.497-10.477v-14.824l-10.497-10.479h-14.798l-10.483 10.479z" fill="#c41230" fill-rule="evenodd"/></g><g transform="translate(369.95 410.32)"><path d="m0 0c0-1.145-0.573-1.805-1.629-1.805h-1.85v3.565h1.85c0.968 0 1.629-0.703 1.629-1.76m1.759 0c0 2.113-1.318 3.521-3.3 3.521h-3.743v-12.546h1.805v5.503h1.938c2.113 0 3.3 1.231 3.3 3.522m-10.742-2.731c0-1.451-0.088-2.201-0.396-3.212-0.309-1.057-0.791-1.541-1.539-1.541-0.793 0-1.278 0.484-1.586 1.541-0.264 1.011-0.397 1.802-0.397 3.169 0 1.409 0.09 2.245 0.397 3.213 0.308 1.057 0.793 1.541 1.586 1.541 0.748 0 1.23-0.484 1.539-1.586 0.265-0.923 0.396-1.716 0.396-3.125m1.719 0c0 1.895-0.176 3.082-0.705 4.315-0.619 1.541-1.496 2.158-2.949 2.158-1.455 0-2.334-0.617-2.994-2.113-0.53-1.19-0.706-2.465-0.706-4.36 0-1.937 0.176-3.125 0.706-4.357 0.615-1.498 1.496-2.164 2.994-2.164 1.408 0 2.33 0.666 2.949 2.164 0.529 1.188 0.705 2.42 0.705 4.357m-8.322 4.581v1.671h-6.385v-1.671h2.291v-10.875h1.803v10.875zm-7.002-7.442c0 1.805-1.057 3.17-3.479 4.58-0.922 0.528-1.187 0.881-1.187 1.496 0 0.836 0.66 1.451 1.498 1.451 0.793 0 1.408-0.572 1.453-1.451h1.715c-0.043 1.893-1.408 3.258-3.168 3.258-1.807 0-3.213-1.453-3.213-3.258 0-1.101 0.527-2.07 1.537-2.775 2.555-1.715 1.852-1.231 2.115-1.496 0.748-0.571 1.014-1.1 1.014-1.805 0-1.014-0.793-1.892-1.764-1.892-1.23 0-1.76 1.101-1.76 2.158h-1.759c0-2.071 1.318-3.926 3.519-3.926 1.94 0 3.479 1.637 3.479 3.66" fill="#fff" fill-rule="evenodd"/></g><g transform="translate(341.4 672.31)"><path d="m0 0h-45.013c-1.772 0-3.215-1.443-3.215-3.214v-10.72c0-1.771 1.443-3.214 3.215-3.214h45.013c1.771 0 3.217 1.443 3.217 3.214v10.72c0 1.748-1.467 3.214-3.217 3.214" fill="#fff" stroke="#000" stroke-width=".25"/></g><g transform="translate(341.4 671.6)"><path d="m0 0h-44.996c-1.375-7e-3 -2.504-1.136-2.509-2.51v-10.7c5e-3 -1.372 1.136-2.504 2.509-2.51h44.996c1.371 6e-3 2.504 1.138 2.51 2.51v10.7c-6e-3 1.374-1.139 2.503-2.51 2.51" fill-rule="evenodd"/></g><g transform="translate(306.44 656.71)"><path d="m0 0-10.398 7.036 10.398 7.044c0.459 0.31 1.088 0.191 1.399-0.267 0.209-0.306 0.17-0.623 0.074-1l-0.601-2.039h33.024v-7.478h-33.024l0.58-1.986c0.115-0.417 0.164-0.723-0.053-1.043-0.311-0.458-0.94-0.579-1.399-0.267" fill="#fff" fill-rule="evenodd"/></g><g transform="translate(321.95 660.81)"><path d="m0 0v0.924h-2.644v1.562h1.664v0.923h-1.664v1.403h2.464v0.902h-3.367v-5.714zm-4.416 0v5.714h-0.902v-3.649l-2.084 3.649h-0.903v-5.714h0.903v3.87l2.185-3.87zm-5.562 2.849c0-0.443-0.1-1.004-0.221-1.305-0.201-0.5-0.461-0.721-0.883-0.721-0.359 0-0.6 0.141-0.781 0.442-0.221 0.359-0.34 0.982-0.34 1.584 0 0.48 0.08 1 0.221 1.341 0.199 0.502 0.482 0.722 0.922 0.702 0.339-0.02 0.56-0.139 0.74-0.442 0.22-0.381 0.342-0.961 0.342-1.601m0.902 0c0 0.72-0.141 1.441-0.381 1.943-0.359 0.701-0.863 1.022-1.582 1.022-0.664 0-1.125-0.201-1.465-0.642-0.381-0.54-0.621-1.382-0.621-2.323 0-0.682 0.16-1.444 0.4-1.925 0.34-0.702 0.842-1.027 1.643-1.027 0.602 0 1.063 0.204 1.383 0.646 0.402 0.501 0.623 1.403 0.623 2.306" fill-rule="evenodd"/></g><g transform="translate(338.61 666.53)"><path d="m0 0h-1.063l-1.382-2.205-1.364 2.205h-1.084l2.006-3.228v-2.486h0.903v2.486zm-5.793-3.187h-1.143l0.582 1.604zm1.844-2.527-1.965 5.714h-0.9l-1.965-5.714h0.963l0.56 1.605h1.785l0.559-1.605zm-4.77 5.714h-0.924l-0.441-3.007-0.74 3.007h-0.881l-0.723-3.007-0.441 3.007h-0.92l0.84-5.714h0.802l0.883 3.671 0.901-3.671h0.802z" fill-rule="evenodd"/></g><g transform="translate(366.41 675.14)"><path d="m0 0v-33.892c0-0.641 0.254-1.262 0.707-1.716 0.453-0.455 1.076-0.707 1.715-0.707h46.804c0.641 0 1.262 0.252 1.717 0.707 0.453 0.454 0.707 1.075 0.707 1.716v33.892c0 0.64-0.254 1.262-0.707 1.714-0.455 0.454-1.076 0.708-1.717 0.708h-46.804c-0.832 0-1.618-0.437-2.063-1.139-0.254-0.398-0.314-0.82-0.359-1.283" fill="#fff"/><path d="m0 0v-33.892c0-0.641 0.254-1.262 0.707-1.716 0.453-0.455 1.076-0.707 1.715-0.707h46.804c0.641 0 1.262 0.252 1.717 0.707 0.453 0.454 0.707 1.075 0.707 1.716v33.892c0 0.64-0.254 1.262-0.707 1.714-0.455 0.454-1.076 0.708-1.717 0.708h-46.804c-0.832 0-1.618-0.437-2.063-1.139-0.254-0.398-0.314-0.82-0.359-1.283z" fill="none" stroke="#000" stroke-width=".25"/></g><g transform="translate(368.83 676.88)"><path d="m0 0h46.804c0.457 0 0.91-0.188 1.235-0.51 0.322-0.323 0.511-0.778 0.511-1.235v-33.894c0-0.456-0.189-0.912-0.511-1.233-0.325-0.324-0.778-0.513-1.235-0.513h-46.804c-0.459 0-0.913 0.189-1.237 0.513-0.322 0.321-0.51 0.777-0.51 1.233v33.894c0 0.457 0.188 0.912 0.51 1.235 0.324 0.322 0.778 0.51 1.237 0.51" fill-rule="evenodd"/></g><g transform="translate(368.83 675.93)"><path d="m0 0c-0.211 0-0.412-0.081-0.563-0.232-0.15-0.151-0.232-0.35-0.232-0.563v-33.893c0-0.212 0.082-0.414 0.232-0.564 0.151-0.151 0.352-0.231 0.563-0.231h46.804c0.213 0 0.414 0.08 0.565 0.231 0.15 0.15 0.232 0.352 0.232 0.564v33.893c0 0.213-0.082 0.412-0.232 0.563-0.151 0.151-0.352 0.232-0.565 0.232z" fill="#fff" fill-rule="evenodd"/></g><g transform="translate(400.98 647.17)"><path d="m0 0h-5.662c-1.494 0-2.987 0.188-4.436 0.551-1.926 0.483-3.783 1.254-5.474 2.294-1.028 0.632-1.989 1.363-2.993 2.035-0.552 0.37-1.136 0.697-1.742 0.978-1.59 0.736-3.322 1.137-5.078 1.137h-4.348v6.996h4.348c3.084 0 6.176-0.678 8.934-2.073 0.734-0.371 1.435-0.812 2.086-1.317 0.455-0.352 0.902-0.712 1.343-1.081 0.571-0.473 1.137-0.923 1.801-1.255 1.748-0.871 3.725-1.185 5.66-1.197l5.537-0.024-1.337 4.081c-0.043 0.128-0.067 0.259-0.069 0.392-0.013 0.517 0.197 0.979 0.633 1.271 0.418 0.284 0.969 0.299 1.42 0.085 0.129-0.062 0.23-0.161 0.348-0.242l13.046-9.035-13.068-9.21c-0.101-0.073-0.361-0.279-0.531-0.329-0.145-0.042-0.291-0.063-0.442-0.06-0.679 8e-3 -1.269 0.478-1.408 1.151-0.054 0.259-0.011 0.522 0.071 0.769z" fill-rule="evenodd"/></g><g transform="translate(410.61 661.22)"><path d="m0 0c-1.389 0.032-2.779 0.065-4.166 0.156-2.268 0.151-4.525 0.458-6.746 0.928-1.621 0.344-3.225 0.774-4.819 1.229-1.355 0.388-2.695 0.851-3.972 1.454-0.207 0.097-0.406 0.211-0.596 0.34-0.607 0.415-1.035 0.896-1.312 1.584-0.346 0.865-0.334 1.854 0.027 2.713 0.375 0.894 1.088 1.528 1.978 1.894 0.793 0.328 1.604 0.622 2.422 0.881 1.17 0.367 2.348 0.699 3.537 0.997 3.135 0.782 6.311 1.419 9.538 1.653 1.365 0.099 2.74 0.131 4.109 0.162z" fill-rule="evenodd"/></g><g transform="translate(145.83 412.63)"><path d="m0 0v33.893c0 0.641-0.255 1.262-0.707 1.715-0.454 0.455-1.076 0.708-1.716 0.708h-46.804c-0.64 0-1.262-0.253-1.716-0.708-0.453-0.453-0.707-1.074-0.707-1.715v-33.893c0-0.64 0.254-1.261 0.707-1.712 0.454-0.456 1.076-0.709 1.716-0.709h46.804c0.833 0 1.617 0.437 2.063 1.138 0.255 0.399 0.314 0.821 0.36 1.283" fill="#fff"/><path d="m0 0v33.893c0 0.641-0.255 1.262-0.707 1.715-0.454 0.455-1.076 0.708-1.716 0.708h-46.804c-0.64 0-1.262-0.253-1.716-0.708-0.453-0.453-0.707-1.074-0.707-1.715v-33.893c0-0.64 0.254-1.261 0.707-1.712 0.454-0.456 1.076-0.709 1.716-0.709h46.804c0.833 0 1.617 0.437 2.063 1.138 0.255 0.399 0.314 0.821 0.36 1.283z" fill="none" stroke="#000" stroke-width=".25"/></g><g transform="translate(143.4 410.88)"><path d="m0 0h-46.805c-0.457 0-0.91 0.188-1.235 0.51-0.321 0.322-0.511 0.777-0.511 1.234v33.895c0 0.455 0.19 0.91 0.511 1.232 0.325 0.325 0.778 0.512 1.235 0.512h46.805c0.458 0 0.912-0.187 1.236-0.512 0.323-0.322 0.51-0.777 0.51-1.232v-33.895c0-0.457-0.187-0.912-0.51-1.234-0.324-0.322-0.778-0.51-1.236-0.51" fill-rule="evenodd"/></g><g transform="translate(143.41 411.83)"><path d="m0 0c0.212 0 0.412 0.081 0.563 0.233 0.151 0.15 0.233 0.35 0.233 0.562v33.893c0 0.213-0.082 0.414-0.233 0.564-0.151 0.151-0.351 0.231-0.563 0.231h-46.805c-0.212 0-0.413-0.08-0.564-0.231-0.151-0.15-0.232-0.351-0.232-0.564v-33.893c0-0.212 0.081-0.412 0.232-0.562 0.151-0.152 0.352-0.233 0.564-0.233z" fill="#fff" fill-rule="evenodd"/></g><g transform="translate(111.25 440.6)"><path d="m0 0h5.663c1.493 0 2.986-0.187 4.436-0.551 1.924-0.482 3.783-1.252 5.473-2.293 1.028-0.63 1.989-1.363 2.992-2.035 0.554-0.371 1.137-0.697 1.744-0.978 1.589-0.737 3.322-1.137 5.077-1.137h4.348v-6.996h-4.348c-3.083 0-6.176 0.678-8.934 2.074-0.733 0.371-1.435 0.811-2.085 1.317-0.455 0.351-0.903 0.712-1.344 1.08-0.57 0.474-1.136 0.924-1.8 1.256-1.749 0.871-3.725 1.183-5.662 1.195l-5.537 0.025 1.338-4.082c0.043-0.127 0.067-0.258 0.07-0.39 0.012-0.518-0.198-0.979-0.633-1.272-0.419-0.283-0.969-0.299-1.42-0.084-0.13 0.061-0.232 0.16-0.348 0.242l-13.048 9.034 13.069 9.21c0.101 0.073 0.361 0.28 0.532 0.329 0.143 0.043 0.291 0.062 0.44 0.06 0.681-8e-3 1.271-0.478 1.41-1.152 0.053-0.258 0.01-0.52-0.072-0.768z" fill-rule="evenodd"/></g><g transform="translate(101.63 426.54)"><path d="m0 0c1.389-0.031 2.779-0.064 4.166-0.156 2.268-0.15 4.524-0.457 6.745-0.928 1.622-0.343 3.226-0.775 4.819-1.23 1.356-0.387 2.696-0.85 3.973-1.451 0.206-0.098 0.406-0.213 0.596-0.342 0.606-0.414 1.035-0.896 1.312-1.584 0.345-0.865 0.333-1.853-0.028-2.713-0.375-0.894-1.087-1.527-1.977-1.894-0.794-0.328-1.604-0.621-2.423-0.881-1.169-0.367-2.347-0.699-3.536-0.996-3.135-0.782-6.311-1.42-9.538-1.653-1.366-0.099-2.741-0.132-4.109-0.162z" fill-rule="evenodd"/></g></g><text transform="matrix(1 0 0 -1 68.869 385.21)" fill="#000000" font-family="Helvetica" font-size="9px"><tspan x="0 6.4980001 11.502 14.004 19.007999 23.507999 25.559999" y="0">Notes: </tspan><tspan x="0 6.0029998 11.007 16.011 18.513 24.011999 26.01 31.014 36.018002 39.014999 44.019001 46.521 51.525002 57.528 60.525002 65.528999 70.532997 73.035004 75.266998 80.271004 83.267998 85.769997 90.503998 95.003998 100.008 107.505 112.509 114.507 119.511 124.011 126.513 131.517 134.019 136.521 141.52499 143.52299 148.52699 153.02699 155.02499 160.02901 165.033 167.535 174.033 181.035 183.537 190.035 196.677 202.17599 204.67799 210.681 217.179 222.67799 228.681 235.179" y="12.501">See Figure 2B-12 for examples of placing DO NOT ENTER </tspan><tspan x="9.9989996 15.003 20.007 25.011 27.153 35.648998 41.966999 48.969002 55.466999 62.469002 64.611 72.656998 77.760002 83.763 86.264999 90.764999 92.763 97.766998 102.771 104.769 109.773 114.777" y="22.004999">and WRONG WAY signing.</tspan><tspan x="-0.017999999 5.9850001 10.989 15.993 18.495001 23.993999 25.992001 30.996 36 38.997002 44.000999 46.502998 51.507 57.509998 60.507 65.511002 70.514999 73.016998 75.014999 77.516998 80.018997 87.515999 92.519997 97.524002 99.522003 104.526 109.53 112.032 114.03 118.53 121.032 126.036 131.03999 133.54201 135.774 140.778 145.782 148.284 150.786 155.78999 158.787 161.289 168.786 173.78999 176.787 181.791 184.293 186.291 191.295 193.797 200.295 202.293 207.297 209.799 214.80299" y="34.506001">See Figure 2B-15 if median is 30 feet or more in width.</tspan></text><g clip-path="url(#b)"><g transform="translate(302.52 568.32)"><path d="m0 0h48.535m-177.35-48.952 45.971 3e-3" fill="none" stroke="#fff" stroke-width="2"/></g><g transform="translate(311.36 553.44)"><path d="m0 0c-1.461 1.624-2.875 3.245-4.336 4.872 1.265-0.363 2.532-0.726 3.793-1.088 0.01 0.362 0.018 0.725 0.03 1.088 0.236 3.221 1.935 4.937 4.849 5.408h4.878v-1.616h-3.26c-2.275-0.359-3.674-1.502-3.792-3.792v-1.088c1.263 0.184 2.528 0.372 3.792 0.557-1.97-1.448-3.985-2.891-5.954-4.341" fill="#fff" fill-rule="evenodd"/></g><g transform="translate(301.43 538.33)"><path d="m0 0 4.694-3.074-2.528 5.01z"/></g><g transform="translate(370.94 636.65)"><path d="m0 0c-68.803-50.966-90.383-75.496-67.782-98.097" fill="none" stroke="#000" stroke-miterlimit="20" stroke-width=".75"/></g><g transform="translate(209.88 534.18)"><path d="m0 0c1.46-1.624 2.875-3.245 4.335-4.871-1.264 0.362-2.53 0.725-3.792 1.087-9e-3 -0.362-0.018-0.725-0.029-1.087-0.236-3.222-1.936-4.937-4.851-5.409h-4.877v1.617h3.261c2.274 0.358 3.673 1.502 3.792 3.792v1.087c-1.264-0.184-2.528-0.372-3.792-0.557 1.969 1.449 3.984 2.891 5.953 4.341" fill="#fff" fill-rule="evenodd"/></g><g transform="translate(147.83 432.48)"><path d="m0 0c55.406 52.229 96.739 96.092 76.212 116.62" fill="none" stroke="#000" stroke-miterlimit="20" stroke-width=".75"/></g><g transform="translate(225.72 549.37)"><path d="m0 0-4.694 2.848 2.643-4.817z"/></g><g transform="translate(207.4 658.94)"><path d="m0 0-2.35-0.717 1.543-2.172-1.41-0.984-1.522 2.037-1.543-2.037-1.41 0.984 1.522 2.172-2.329 0.717 0.516 1.633 2.281-0.76v2.662h1.903v-2.662l2.261 0.76z"/></g><g transform="translate(207.4 638.04)"><path d="m0 0-2.35-0.717 1.543-2.172-1.41-0.984-1.522 2.037-1.543-2.037-1.41 0.984 1.522 2.172-2.329 0.717 0.516 1.633 2.281-0.76v2.662h1.903v-2.662l2.261 0.76z"/></g><g transform="translate(306.69 542.04)"><path d="m0 0h56.901l27.809 20.505h67.656v50.893h-157.55c-14.008 0-17.295 17.986-17.295 17.986v59.941h-40.557v-59.25s-0.741-18.677-15.849-18.677h-160.72v-51.282h152.35s10.582-0.904 10.582-8.501c0-7.596-10.582-8.507-10.582-8.507h-56.889l-26.807-19.608h-68.657v-50.896h159.28c14.007 0 17.295-17.987 17.295-17.987v-61.726h40.557v61.037s0.74 18.676 15.848 18.676h158.99v50.896h-152.51s-10.44 0.397-10.44 7.993c0 7.597 10.583 8.507 10.583 8.507z" fill="none" stroke="#000"/></g><g fill="#fff"><path d="m470.14 469.64h-12.082v156.48h12.082z"/><path d="m68.082 469.64h-12.082v156.48h12.082z"/><path d="m288.21 690.36h-51.142v15.195h51.142z"/><path d="m288.21 380.73h-51.142v15.195h51.142z"/></g><g transform="translate(473.38 642.2)"><path d="m0 0-2.349-0.716 1.543-2.171-1.411-0.985-1.521 2.037-1.543-2.037-1.41 0.985 1.521 2.171-2.328 0.716 0.516 1.634 2.281-0.761v2.663h1.902v-2.663l2.262 0.761z"/></g><g transform="translate(465.17 642.2)"><path d="m0 0-2.349-0.716 1.543-2.171-1.41-0.985-1.522 2.037-1.543-2.037-1.41 0.985 1.521 2.171-2.328 0.716 0.516 1.634 2.281-0.761v2.663h1.903v-2.663l2.261 0.761z"/></g><g transform="translate(473.38 673.83)"><path d="m0 0-2.349-0.716 1.543-2.171-1.411-0.985-1.521 2.037-1.543-2.037-1.41 0.985 1.521 2.171-2.328 0.716 0.516 1.634 2.281-0.761v2.663h1.902v-2.663l2.262 0.761z"/></g><g transform="translate(460.66 685.4)"><path d="m0 0h6.353v1.559l4.377-2.577-4.377-2.398v1.439h-6.353z"/></g><g transform="translate(482.17 694.83)"><path d="m0 0h29.291" fill="none" stroke="#000" stroke-width=".75"/></g></g><text transform="matrix(1 0 0 -1 481.7 697.78)" fill="#000000" font-family="Helvetica" font-size="9px"><tspan x="0 5.0040002 10.008 15.012 20.016001 25.02" y="0">Legend</tspan><tspan x="-7.5419998 -1.044 0.954 3.951 8.9549999 13.455 15.957 17.955 22.959 27.962999 30.465 35.469002 37.971001 40.473 42.974998 45.882 50.706001 54.980999 59.985001" y="15.354">Direction of travel</tspan><tspan x="-7.5419998 -0.54000002 4.4640002 9.4680004 11.61 19.746 24.48 28.98 31.482 35.981998 37.98 42.984001 47.987999 52.487999 54.990002 59.993999 62.991001 67.995003" y="27.855">One Way signs are </tspan><tspan x="1.449 6.4530001 11.457 13.959 15.957 20.961 25.965 30.969 32.966999 35.469002 37.466999 39.969002 42.471001 48.113998 53.118 58.122002 63.125999 65.627998 72.125999 74.124001 79.127998 84.132004 86.634003" y="37.359001">optional if Keep Right </tspan><tspan x="1.449 5.9489999 7.947 12.951 17.955 22.455 24.957001 29.961 32.958 37.962002 40.464001 42.462002 47.466 51.966 54.467999 59.472 61.470001 63.467999 68.472" y="46.862999">signs are installed</tspan><tspan x="-7.5510001 -1.908 3.096 8.1000004 13.104 15.606 22.104 24.101999 29.106001 34.110001 36.612 39.113998 43.613998 45.612 50.616001 55.619999 60.119999 62.622002 67.625999 70.623001 75.626999" y="59.363998">Keep Right signs are </tspan><tspan x="1.449 6.4530001 11.457 13.959 15.957 20.961 25.965 30.969 32.966999 35.469002 37.466999 39.969002 42.471001 49.473 54.477001 59.480999 61.623001 69.759003 74.492996 78.992996" y="68.867996">optional if One Way </tspan><tspan x="1.4400001 5.9400001 7.9380002 12.942 17.945999 22.445999 24.948 29.952 32.949001 37.952999 40.455002 42.452999 47.457001 51.957001 54.459 59.463001 61.460999 63.459 68.462997" y="78.372002">signs are installed</tspan></text><g clip-path="url(#a)"><g transform="translate(434.37 678.97)"><path d="m0 0-2.35-0.716 1.543-2.171-1.41-0.985-1.522 2.037-1.543-2.037-1.41 0.985 1.522 2.171-2.328 0.716 0.515 1.634 2.281-0.761v2.663h1.903v-2.663l2.261 0.761z"/></g><g transform="translate(426.16 678.97)"><path d="m0 0-2.35-0.716 1.543-2.171-1.41-0.985-1.522 2.037-1.543-2.037-1.41 0.985 1.522 2.171-2.328 0.716 0.515 1.634 2.282-0.761v2.663h1.902v-2.663l2.262 0.761z"/></g><g transform="translate(93.765 449.42)"><path d="m0 0-2.35-0.716 1.543-2.171-1.41-0.985-1.521 2.037-1.543-2.037-1.41 0.985 1.521 2.171-2.328 0.716 0.516 1.634 2.281-0.761v2.663h1.902v-2.663l2.262 0.761z"/></g><g transform="translate(85.552 449.42)"><path d="m0 0-2.35-0.716 1.543-2.171-1.41-0.985-1.521 2.037-1.543-2.037-1.41 0.985 1.521 2.171-2.328 0.716 0.515 1.634 2.282-0.761v2.663h1.902v-2.663l2.262 0.761z"/></g></g></g></svg>
