<?xml version="1.0" encoding="UTF-8"?>
<svg width="652.9" height="888.53" version="1.1" viewBox="0 0 652.9 888.53" xml:space="preserve" xmlns="http://www.w3.org/2000/svg"><defs><clipPath id="q"><path d="m26.875 44.479h513.12v694.05h-513.12z"/></clipPath><clipPath id="p"><path d="m26.875 44.479h513.12v694.05h-513.12z"/></clipPath><clipPath id="o"><path d="m26.875 44.479h513.12v694.05h-513.12z"/></clipPath><clipPath id="n"><path d="m26.875 44.479h513.12v694.05h-513.12z"/></clipPath><clipPath id="m"><path d="m26.875 44.479h513.12v694.05h-513.12z"/></clipPath><clipPath id="l"><path d="m26.875 44.479h513.12v694.05h-513.12z"/></clipPath><clipPath id="k"><path d="m26.875 44.479h513.12v694.05h-513.12z"/></clipPath><clipPath id="j"><path d="m26.875 44.479h513.12v694.05h-513.12z"/></clipPath><clipPath id="i"><path d="m26.875 44.479h513.12v694.05h-513.12z"/></clipPath><clipPath id="h"><path d="m26.875 44.479h513.12v694.05h-513.12z"/></clipPath><clipPath id="g"><path d="m26.875 44.479h513.12v694.05h-513.12z"/></clipPath><clipPath id="f"><path d="m26.875 44.479h513.12v694.05h-513.12z"/></clipPath><clipPath id="e"><path d="m26.875 44.479h513.12v694.05h-513.12z"/></clipPath><clipPath id="d"><path d="m26.875 44.479h513.12v694.05h-513.12z"/></clipPath><clipPath id="c"><path d="m26.875 44.479h513.12v694.05h-513.12z"/></clipPath><clipPath id="b"><path d="m26.875 44.479h513.12v694.05h-513.12z"/></clipPath><clipPath id="a"><path d="m26.875 44.479h513.12v694.05h-513.12z"/></clipPath></defs><g transform="matrix(1.3333 0 0 -1.3333 -45.591 960.94)"><g transform="translate(53.432 595.56)"><path d="m0 0v94.852h412.48v-94.852z" fill="#b1b4b6"/><path d="m0 0v94.852h412.48v-94.852z" fill="none" stroke="#000"/></g><g transform="translate(463.77 684.12)"><path d="m0 0h-413.28" fill="none" stroke="#ffd24f" stroke-width="2"/></g><path d="m51.18 551.72h412.82v-89.553h-412.82z" fill="#b1b4b6" stroke="#000"/><g transform="translate(466.12 545.39)"><path d="m0 0h-411.36" fill="none" stroke="#ffd24f" stroke-width="2"/></g><g transform="translate(54.876 287.26)"><path d="m0 0v-95.015h179.58l5.296-1.428 4.251-4.873 1.268-2.627v-32.992h33.559l0.751 32.627 1.554 4.096 2.859 3.347 3.981 1.85h186.63v95.015z" fill="#b1b4b6"/></g><g transform="translate(471.07 280.96)"><path d="m0 0h-418.93" fill="none" stroke="#ffd24f" stroke-width="2"/></g><g transform="translate(463.37 601.73)"><path d="m0 0h-412.83" fill="none" stroke="#fff" stroke-width="2"/></g><g transform="translate(463.51 659.02)"><path d="m0 0h-413.01m412.88 5.384-412.88 1e-3" fill="none" stroke="#fff" stroke-width="4"/></g><g transform="translate(461.65 639.2)"><path d="m0 0-410.17 1e-3m410.17-18.641h-410.26" fill="none" stroke="#fff" stroke-dasharray="14.01, 42.03" stroke-width="2"/></g><g transform="translate(249.36 675.66)"><path d="m0 0h6.181v1.516l4.258-2.506-4.258-2.333v1.4h-6.181z"/></g><g transform="translate(249.36 649.57)"><path d="m0 0h6.181v1.517l4.258-2.507-4.258-2.333v1.4h-6.181z"/></g><g transform="translate(249.36 630.82)"><path d="m0 0h6.181v1.516l4.258-2.507-4.258-2.334v1.401h-6.181z"/></g><g transform="translate(249.36 612.06)"><path d="m0 0h6.181v1.516l4.258-2.506-4.258-2.334v1.401h-6.181z"/></g><g transform="translate(109.45 674.59)"><path d="m0 0 2.285 0.696-1.502 2.112 1.371 0.958 1.481-1.982 1.503 1.982 1.371-0.958-1.48-2.112 2.263-0.696-0.5-1.59-2.221 0.741v-2.592h-1.85v2.592l-2.198-0.741z"/></g><g transform="translate(100.59 674.59)"><path d="m0 0 2.286 0.696-1.503 2.112 1.371 0.958 1.482-1.982 1.501 1.982 1.372-0.958-1.481-2.112 2.265-0.696-0.502-1.59-2.219 0.741v-2.592h-1.85v2.592l-2.2-0.741z"/></g><g transform="translate(89.434 680.15)"><path d="m0 0 10.856-5.37-10.856-5.428-10.797 5.428z" fill="none" stroke="#fff" stroke-miterlimit="6" stroke-width="2"/></g><g transform="translate(425.41 674.59)"><path d="m0 0 2.286 0.696-1.503 2.112 1.371 0.958 1.48-1.982 1.503 1.982 1.371-0.958-1.479-2.112 2.263-0.696-0.5-1.59-2.221 0.741v-2.592h-1.851v2.592l-2.198-0.741z"/></g><g transform="translate(416.54 674.59)"><path d="m0 0 2.286 0.696-1.502 2.112 1.372 0.958 1.479-1.982 1.501 1.982 1.372-0.958-1.48-2.112 2.264-0.696-0.501-1.59-2.219 0.741v-2.592h-1.851v2.592l-2.198-0.741z"/></g><g transform="translate(396.96 680.15)"><path d="m0 0 10.857-5.37-10.857-5.428-10.797 5.428z" fill="none" stroke="#fff" stroke-miterlimit="6" stroke-width="2"/></g><g clip-path="url(#q)"><g transform="translate(131.14 693.44)"><path d="m0 0c3.729 4.207 9.208 6.695 15.042 6.525" fill="none" stroke="#000" stroke-width=".75"/></g><g transform="translate(130.72 692.16)"><path d="m0 0c0.773 0.476 1.328 0.736 1.999 1.073l-1.982 1.757c-0.077-0.266-0.446-1.289-0.826-2.113-0.406-0.88-0.821-1.639-1.132-2.093 0.414 0.363 1.116 0.866 1.941 1.376"/></g><g transform="translate(307.91 75.649)"><path d="m0 0-2.35-0.717 1.544-2.17-1.41-0.984-1.522 2.037-1.544-2.037-1.41 0.984 1.522 2.17-2.328 0.717 0.515 1.635 2.282-0.762v2.664h1.903v-2.664l2.26 0.762z"/></g><g transform="translate(299.68 75.649)"><path d="m0 0-2.35-0.717 1.544-2.17-1.41-0.984-1.521 2.037-1.544-2.037-1.41 0.984 1.521 2.17-2.327 0.717 0.515 1.635 2.282-0.762v2.664h1.902v-2.664l2.261 0.762z"/></g></g><text transform="matrix(1 0 0 -1 312.96 72.575)" fill="#000000" font-family="Helvetica" font-size="9px"><tspan x="0 6.0029998 10.503 15.507 23.004 28.007999 30.006001 35.009998 37.512001 42.515999 45.018002 47.52 54.018002 60.57 66.572998 69.074997 74.079002 79.083 81.081001 85.581001 88.083 90.081001 95.084999 100.089 105.093 107.595 112.095 116.595 124.092 129.09599 134.10001 136.09801 138.60001 146.097 151.101 154.233 158.733 160.731 165.735 170.739" y="0">Example of HOV only lane symbol markings</tspan></text><g clip-path="url(#p)"><g transform="translate(307.91 109.9)"><path d="m0 0-2.35-0.715 1.544-2.171-1.41-0.985-1.522 2.037-1.544-2.037-1.41 0.985 1.522 2.171-2.328 0.715 0.515 1.635 2.282-0.762v2.664h1.903v-2.664l2.26 0.762z"/></g></g><text transform="matrix(1 0 0 -1 312.96 106.82)" fill="#000000" font-family="Helvetica" font-size="9px"><tspan x="0 2.5020001 5.0040002 7.506 12.51 17.514 20.016001 25.02 30.024 33.021 36.153 38.151001 43.154999 46.152 48.653999 53.658001 56.654999 59.157001 66.653999 71.657997 76.662003 78.660004 83.664001 88.667999 91.169998 93.167999 97.667999 100.17 105.174 108.171 113.175 117.675 122.679 127.683 130.185 132.687 137.69099 142.69501 147.69901 150.201 152.703 157.707 162.711 165.213 167.211 172.215 174.717 177.21899" y="0">If no barrier or median is present and the left-</tspan><tspan x="-2.5020001 0 5.0040002 10.008 15.012 20.016001 22.518 27.018 29.016001 34.02 39.023998 41.526001 46.529999 49.032001 51.534 54.035999 59.040001 64.043999 66.545998 68.543999 73.547997 78.552002 83.556 86.057999 88.056 92.556 95.057999 97.559998 102.564 107.568 110.07 114.57 119.574 124.578 127.08 132.084 135.08099 137.58299 139.58099 141.57899 146.58299 151.58701 154.089 159.093 161.595 164.097 169.101" y="9.5039997"> hand side of the lane is the center line of a </tspan><tspan x="0 2.5020001 9 14.004 17.000999 23.274 28.007999 32.507999 35.009998 38.007 43.011002 48.014999 53.019001 59.382 64.115997 67.716003 70.218002 72.720001 77.723999 82.223999 87.227997 89.730003 94.734001 97.236 102.24 107.244 112.248 117.072 119.07 124.074 126.576 130.896 135.89999 137.89799 139.896 144.765 151.263 153.765 158.265 163.269 168.27299 170.77499 175.77901 178.776 181.278 183.276 185.274 190.278" y="19.007999">two-way roadway, use a double yellow center line</tspan></text><g clip-path="url(#o)"><g transform="translate(34.193 90.126)"><path d="m0 0h6.353v1.558l4.377-2.576-4.377-2.398v1.439h-6.353z"/></g><g transform="translate(57.916 98.315)"><path d="m0 0h29.291" fill="none" stroke="#000" stroke-width=".75"/></g></g><text transform="matrix(1 0 0 -1 57.449 101.26)" fill="#000000" font-family="Helvetica" font-size="9px"><tspan x="0 5.0040002 10.008 15.012 20.016001 25.02" y="0">Legend</tspan><tspan x="-7.4790001 -0.98100001 1.017 4.0139999 9.0179996 13.518 16.02 18.018 23.021999 28.025999 30.528 35.532001 38.034 40.535999 43.037998 45.945 50.769001 55.043999 60.048" y="15.354">Direction of travel</tspan></text><g clip-path="url(#n)"><g transform="translate(466.12 468.48)"><path d="m0 0h-411.36" fill="none" stroke="#fff" stroke-width="2"/></g><g transform="translate(466.12 525.71)"><path d="m0 0h-411.36" fill="none" stroke="#fff" stroke-width="4"/></g><g transform="translate(462.39 505.94)"><path d="m0 0h-411.31m411.31-18.777h-411.31" fill="none" stroke="#fff" stroke-dasharray="14.01, 42.03" stroke-width="2"/></g><g transform="translate(249.36 478.72)"><path d="m0 0h6.181v1.516l4.258-2.506-4.258-2.333v1.4h-6.181z"/></g><g transform="translate(249.36 497.48)"><path d="m0 0h6.181v1.516l4.258-2.506-4.258-2.333v1.4h-6.181z"/></g><g transform="translate(249.36 516.23)"><path d="m0 0h6.181v1.516l4.258-2.506-4.258-2.333v1.4h-6.181z"/></g><g transform="translate(249.36 536.93)"><path d="m0 0h6.181v1.517l4.258-2.506-4.258-2.333v1.4h-6.181z"/></g></g><text transform="matrix(1 0 0 -1 57.425 711.64)" fill="#000000" font-family="Helvetica" font-size="9.5px" font-weight="bold"><tspan x="0 6.8590002 9.5 14.782 17.423 23.227501 29.032 31.673 34.313999 37.477501 40.640999 43.282001 51.727501 57.009499 59.650501 65.455002 69.150497 74.432503 77.596001 82.877998 86.573502 91.855499 97.660004 100.8235 103.4645 108.7465 111.3875 114.0285 116.6695 121.9515 127.756 133.03799 136.20151 141.48351 144.647 147.28799 154.679 160.48351 165.7655 169.461 174.743 177.384 182.666 188.4705 191.634 196.916 200.6115 203.2525 208.297 213.57899 216.22 219.3835 222.02451 230.47 236.0845 241.3665 246.6485 255.09399 260.37601 266.18051 269.34399 274.62601 277.267 282.54901 286.24451 291.52649 294.16751 300.504 307.173 314.564 321.423 324.064 330.923 333.564 339.3685 345.70499" y="0">A – Full-time preferential lane(s) where enter/exit movements are PROHIBITED</tspan><tspan x="-0.1425 6.7164998 9.3575001 14.6395 17.2805 23.617001 27.3125 32.594501 35.757999 41.040001 44.7355 50.017502 55.821999 58.9855 61.626499 66.908501 69.5495 72.190498 74.831497 80.113503 85.917999 91.199997 94.363503 99.6455 102.809 105.45 112.841 118.6455 123.9275 127.623 132.905 135.54601 140.828 146.63251 149.79601 155.078 158.7735 161.41451 166.459 171.741 174.382 177.5455 180.18649 188.632 194.24651 199.5285 204.8105 213.256 218.53799 224.3425 227.506 232.78799 235.429 240.711 244.40649 249.68851 252.3295 259.18851 261.8295 268.16599 275.02499 282.41599 289.27499 296.134 302.51801 309.909 316.24551" y="136.08749">B – Preferential lane(s) where enter/exit movements are DISCOURAGED</tspan></text><g clip-path="url(#m)"><path d="m53.125 420.03h413.33v-89.555h-413.33z" fill="#b1b4b6" stroke="#000"/><g transform="translate(467.12 336.79)"><path d="m0 0h-411.36" fill="none" stroke="#fff" stroke-width="2"/></g><g transform="translate(462.39 394.02)"><path d="m0 0h-411.36" fill="none" stroke="#fff" stroke-dasharray="14.01, 42.03" stroke-width="4"/></g><g transform="translate(462.39 374.25)"><path d="m0 0h-411.31m411.31-18.778h-411.31" fill="none" stroke="#fff" stroke-dasharray="14.01, 42.03" stroke-width="2"/></g><g transform="translate(271.06 347.04)"><path d="m0 0h6.182v1.516l4.257-2.506-4.257-2.336v1.4h-6.182z"/></g><g transform="translate(271.06 365.79)"><path d="m0 0h6.182v1.515l4.257-2.505-4.257-2.336v1.4h-6.182z"/></g><g transform="translate(271.06 384.54)"><path d="m0 0h6.182v1.515l4.257-2.506-4.257-2.335v1.4h-6.182z"/></g><g transform="translate(271.06 405.24)"><path d="m0 0h6.182v1.516l4.257-2.506-4.257-2.335v1.401h-6.182z"/></g><g transform="translate(467.12 413.7)"><path d="m0 0h-411.36" fill="none" stroke="#ffd24f" stroke-width="2"/></g></g><g fill="#000000" font-family="Helvetica"><text transform="matrix(1 0 0 -1 57.379 441.99)" font-size="9.5px" font-weight="bold"><tspan x="0 6.8590002 9.5 14.782 17.423 23.759501 27.455 32.737 35.900501 41.182499 44.877998 50.16 55.9645 59.127998 61.769001 67.051003 69.692001 72.333 74.973999 80.255997 86.060501 91.342499 94.505997 99.788002 102.9515 105.5925 112.9835 118.788 124.07 127.7655 133.0475 135.68851 140.9705 146.77499 149.93851 155.2205 158.916 161.55701 166.6015 171.8835 174.52451 177.688 180.32899 188.77451 194.38901 199.67101 204.953 213.3985 218.6805 224.485 227.6485 232.9305 235.5715 240.8535 244.549 249.83099 252.472 258.8085 265.14499 272.004 279.91751 282.5585 288.36301 294.16751 300.504" y="0">C – Preferential lane(s) where enter/exit movements are PERMITTED</tspan></text><text transform="matrix(1 0 0 -1 147.58 696.76)" font-size="9px"><tspan x="0 6.0029998 11.007 14.004 17.136 19.134001 24.138 27.135 29.636999 34.640999 37.638 40.139999 47.637001 52.640999 57.645 59.643002 64.647003" y="0">Barrier or median</tspan></text><text transform="matrix(1 0 0 -1 57.532 310.88)" font-size="9.5px" font-weight="bold"><tspan x="0 6.8590002 9.5 14.782 17.423 24.282 26.923 32.727501 38.532001 41.695499 44.859001 50.663502 55.945499 61.75 67.554497 70.195503 75.477501 78.1185 83.922997 89.205002 91.846001 97.650497 101.346 106.628 109.7915 115.0735 118.769 124.051 129.8555 133.019 135.66 140.942 143.58299 146.224 148.86501 154.147 159.95151 165.23351 168.397 173.679" y="0">D – Right-hand side preferential lane(s)</tspan></text></g><g clip-path="url(#l)"><g transform="translate(462.43 262.21)"><path d="m0 0h-406.13" fill="none" stroke="#fff" stroke-dasharray="14.01, 42.03" stroke-width="2"/></g><g transform="translate(307.21 59.678)"><path d="m0 0-2.349-0.716 1.544-2.172-1.411-0.985-1.521 2.038-1.544-2.038-1.41 0.985 1.521 2.172-2.327 0.716 0.515 1.633 2.282-0.759v2.662h1.902v-2.662l2.261 0.759z"/></g><g transform="translate(298.98 59.678)"><path d="m0 0-2.35-0.716 1.544-2.172-1.41-0.985-1.521 2.038-1.544-2.038-1.411 0.985 1.522 2.172-2.327 0.716 0.514 1.633 2.283-0.759v2.662h1.902v-2.662l2.261 0.759z"/></g><g transform="translate(290.75 59.678)"><path d="m0 0-2.349-0.716 1.544-2.172-1.41-0.985-1.522 2.038-1.544-2.038-1.41 0.985 1.521 2.172-2.327 0.716 0.515 1.633 2.282-0.759v2.662h1.903v-2.662l2.26 0.759z"/></g></g><text transform="matrix(1 0 0 -1 312.9 56.201)" fill="#000000" font-family="Helvetica" font-size="9px"><tspan x="0 6.0029998 10.503 15.507 23.004 28.007999 30.006001 35.009998 37.512001 42.515999 45.018002 47.52 52.344002 57.348 61.848 64.349998 66.348 71.351997 76.356003 81.360001 83.862 90.360001 95.363998 98.361 103.365 105.867 113.364 118.368 121.41 125.91 127.908 132.912 137.916" y="0">Example of bus lane word markings</tspan></text><g clip-path="url(#k)"><g transform="translate(462.43 243.45)"><path d="m0 0h-406.13" fill="none" stroke="#fff" stroke-dasharray="14.01, 42.03" stroke-width="2"/></g><g transform="translate(472.05 223.73)"><path d="m0 0h-181.02m-143.4 0.051h-95.873m420.3-5.498h-181.02" fill="none" stroke="#fff" stroke-width="4"/></g><g transform="translate(234.46 198.45)"><path d="m0 0h-181.72m419.3 0h-181.02" fill="none" stroke="#fff" stroke-width="2"/></g><g transform="translate(123.11 211.02)"><path d="m0 0-2.222-0.677 1.459-2.053-1.331-0.93-1.438 1.926-1.459-1.926-1.334 0.93 1.438 2.053-2.198 0.677 0.485 1.545 2.157-0.722v2.519h1.798v-2.519l2.137 0.722z"/></g><g transform="translate(130.66 211.02)"><path d="m0 0-2.221-0.677 1.458-2.053-1.331-0.93-1.438 1.926-1.459-1.926-1.333 0.93 1.437 2.053-2.198 0.677 0.486 1.545 2.158-0.722v2.519h1.796v-2.519l2.138 0.722z"/></g><g transform="translate(138.03 211.02)"><path d="m0 0-2.222-0.677 1.46-2.053-1.332-0.93-1.439 1.926-1.458-1.926-1.332 0.93 1.438 2.053-2.201 0.677 0.487 1.545 2.157-0.722v2.519h1.8v-2.519l2.134 0.722z"/></g><g transform="translate(145.99 272.49)"><path d="m0 0h6.181v1.518l4.258-2.506-4.258-2.334v1.4h-6.181z"/></g><g transform="translate(145.99 253.73)"><path d="m0 0h6.181v1.518l4.258-2.506-4.258-2.334v1.4h-6.181z"/></g><g transform="translate(145.99 234.98)"><path d="m0 0h6.181v1.516l4.258-2.506-4.258-2.332v1.4h-6.181z"/></g><g transform="translate(145.99 208.83)"><path d="m0 0h6.181v1.515l4.258-2.505-4.258-2.332v1.4h-6.181z"/></g><g transform="translate(216.16 223.78)"><path d="m0 0h-68.533" fill="none" stroke="#fff" stroke-dasharray="4.203, 12.609" stroke-width="4"/></g><g transform="translate(180.47 183.78)"><path d="m0 0 0.015 36.541" fill="none" stroke="#000" stroke-width=".75"/></g><g transform="translate(179.94 221.56)"><path d="m0 0c-0.263-0.868-0.505-1.431-0.785-2.128l2.649-1e-3c-0.118 0.25-0.521 1.261-0.782 2.128-0.281 0.93-0.472 1.773-0.54 2.319-0.069-0.546-0.262-1.389-0.542-2.318"/></g><g transform="translate(432.57 173.74)"><path d="m0 0 8e-3 21.295" fill="none" stroke="#000" stroke-width=".75"/></g><g transform="translate(432.04 196.28)"><path d="m0 0c-0.262-0.868-0.505-1.432-0.784-2.128l2.649-1e-3c-0.12 0.249-0.522 1.261-0.783 2.128-0.28 0.93-0.472 1.773-0.541 2.318-0.068-0.545-0.26-1.388-0.541-2.317"/></g></g><text transform="matrix(1 0 0 -1 138.97 175.58)" fill="#000000" font-family="Helvetica" font-size="9px"><tspan x="0 8.4960003 10.494 15.498 20.502001 23.004 28.007999 33.012001 35.514 38.015999 43.02 48.023998 50.526001 55.026001 57.023998 62.028 67.031998 69.029999 74.033997" y="0">Wide dotted single </tspan><tspan x="0 6.4980001 11.502 13.5 16.002001 21.006001 23.507999 25.506001 30.51 35.514 40.518002 43.02 45.018002 47.015999 52.02 57.023998" y="9.5039997">white lane line </tspan><tspan x="0 2.997 7.4970002 10.494 15.498 19.997999 24.497999 26.496 31.5 36.504002 39.006001 45.008999 51.012001 57.509998 65.007004 67.509003 73.008003 78.507004 84.510002" y="19.007999">(crossing PERMITTED</tspan><tspan x="0 2.5020001 7.506 10.008 17.504999 22.509001 26.829 31.833 34.334999 39.339001 41.841 44.973 46.971001 51.974998 56.979 59.480999 61.983002 64.485001 69.488998 72.710999 77.714996" y="28.511999">to make a right turn)</tspan></text><g clip-path="url(#j)"><g transform="translate(174.42 192.25)"><path d="m0 0h0.482m70.385-38.899v27.231c0 6.447-5.226 11.674-11.673 11.674h-179.52m225.26-38.905v27.194c0 6.445 5.224 11.672 11.673 11.672h187.91" fill="none" stroke="#000"/></g><path d="m295.9 132.84h-56.317v20.478h56.317z" fill="#fff"/></g><text transform="matrix(1 0 0 -1 277.22 141.54)" fill="#000000" font-family="Helvetica" font-size="9px"><tspan x="0 5.0040002 7.0019999 14.499 16.497 18.999001 24.003 29.007 31.509001 36.513 41.013 45.513 50.516998 55.016998 59.516998 62.019001 66.752998 71.252998 73.250999 75.752998 78.254997 80.757004 85.257004 87.254997 92.259003 97.263 99.764999 104.265 106.767 109.764 114.768 119.772 122.274" y="0">Limited access exit, side street,</tspan><tspan x="0 5.0040002 8.0010004 10.503 15.003 20.007 27.504 35.000999 40.005001 43.001999 47.501999 49.5 54.504002 56.501999 59.004002 64.008003 69.012001 71.514 74.511002 79.514999 84.518997 89.018997" y="9.5039997">or commercial entrance</tspan></text><g clip-path="url(#i)"><g transform="translate(79.389 214.66)"><path d="m0 0c6e-3 -1.803-2.008-2.063-3.526-2.024-1.52 0.039-2.165-0.175-2.514 0.495-0.236-0.635-1.236-0.483-3.032-0.495-1.798-9e-3 -3.657 0.455-3.543 2.024zm-7.047-0.494c-0.064-0.832-0.761-0.992-1.76-1.024-0.998-0.029-1.714 0.139-1.787 1.024 1.181 9e-3 2.366-0.01 3.547 0m5.05 0c-0.151-0.834-0.691-1.035-1.527-1.035s-1.494 0.201-1.506 1.035z" fill="#fff" fill-rule="evenodd"/></g><g transform="translate(79.241 210.26)"><path d="m0 0v-0.506c-0.037 0.01-2.999 0.011-5.326 0-6.203-0.033-7.318 0.213-7.318 0.99 0 0.779 1.115 1.033 7.318 1.033h5.326v-0.504c-0.019 4e-3 -2.178 0-5.326 0-3.148-6e-3 -4.886-0.047-4.887-0.554-1e-3 -0.504 2.158-0.481 4.887-0.459 2.629 0.019 5.326 0 5.326 0" fill="#fff" fill-rule="evenodd"/></g><g transform="translate(79.548 207.78)"><path d="m0 0c3e-3 -0.9-1.641-0.961-3.081-1.027-0.169 0.174-0.338 0.347-0.506 0.519 0.747 0.032 1.513 0.114 1.519 0.508 6e-3 0.391-0.611 0.459-1.3 0.506h-0.492c-1.115 2e-3 -2.47-1.559-3.396-1.52h-1.89c-1.761 6e-3 -3.628 0.131-3.627 1.014 0 0.883 1.605 0.885 3.122 1.012 0.163-0.168 0.327-0.336 0.492-0.506-0.813-0.088-1.503-0.152-1.505-0.506-4e-3 -0.357 0.477-0.484 1.218-0.508 1.301-0.148 2.566 1.457 3.833 1.52h2.259c1.704 0.014 3.351-0.115 3.354-1.012" fill="#fff" fill-rule="evenodd"/></g><g transform="translate(107.86 214.92)"><path d="m0 0c3.535-0.01 4.308-0.147 4.308-0.528 0-0.38-0.773-0.494-4.308-0.494s-4.307 0.114-4.307 0.494c0 0.381 0.772 0.534 4.307 0.528m0-1.52c5.208 0 6.346 0.455 6.346 1.016 0 0.564-1.138 1.01-6.346 1.019-5.209 0.016-6.347-0.455-6.347-1.019 0-0.561 1.138-1.016 6.347-1.016" fill="#fff" fill-rule="evenodd"/></g><g transform="translate(114.14 211.04)"><path d="m0 0h-8.092l8.092 1.015v0.51h-12.634v-0.51h8.081l-8.081-1.015v-0.508h12.634z" fill="#fff" fill-rule="evenodd"/></g><g transform="translate(103.55 209.13)"><path d="m0 0h10.588v0.503h-12.63v-2.021h2.042z" fill="#fff" fill-rule="evenodd"/></g><g transform="translate(101.51 206.93)"><path d="m0 0v-0.507h5.054l7.581-0.758v0.506l-5.061 0.504 5.061 0.505v0.504l-7.581-0.754z" fill="#fff" fill-rule="evenodd"/></g><g transform="translate(409.59 207.7)"><path d="m0 0-2.221-0.676 1.459-2.051-1.332-0.929-1.438 1.924-1.459-1.924-1.334 0.929 1.438 2.051-2.198 0.676 0.485 1.547 2.157-0.721v2.518h1.798v-2.518l2.137 0.721z"/></g><g transform="translate(417.14 207.7)"><path d="m0 0-2.221-0.676 1.458-2.051-1.331-0.929-1.437 1.924-1.46-1.924-1.333 0.929 1.437 2.051-2.197 0.676 0.486 1.547 2.156-0.721v2.518h1.797v-2.518l2.138 0.721z"/></g><g transform="translate(424.51 207.7)"><path d="m0 0-2.222-0.676 1.46-2.051-1.332-0.929-1.439 1.924-1.458-1.924-1.332 0.929 1.438 2.051-2.201 0.676 0.487 1.547 2.157-0.721v2.518h1.799v-2.518l2.136 0.721z"/></g><g transform="translate(365.87 211.34)"><path d="m0 0c5e-3 -1.801-2.009-2.061-3.528-2.024-1.519 0.041-2.165-0.174-2.514 0.494-0.234-0.634-1.235-0.48-3.033-0.494-1.796-0.01-3.653 0.457-3.541 2.024zm-7.046-0.495c-0.065-0.832-0.762-0.992-1.763-1.021-0.997-0.031-1.712 0.139-1.786 1.021 1.181 0.01 2.366-9e-3 3.549 0m5.047 0c-0.148-0.834-0.689-1.035-1.525-1.035s-1.494 0.201-1.506 1.035z" fill="#fff" fill-rule="evenodd"/></g><g transform="translate(365.72 206.93)"><path d="m0 0v-0.504c-0.036 8e-3 -3 0.01-5.326 0-6.203-0.033-7.317 0.213-7.317 0.989 0 0.779 1.114 1.035 7.317 1.035h5.326v-0.504c-0.018 4e-3 -2.179 0-5.326 0-3.148-6e-3 -4.886-0.047-4.886-0.555-3e-3 -0.504 2.158-0.48 4.886-0.461 2.63 0.022 5.326 0 5.326 0" fill="#fff" fill-rule="evenodd"/></g><g transform="translate(366.03 204.46)"><path d="m0 0c2e-3 -0.901-1.642-0.961-3.08-1.028-0.169 0.172-0.338 0.348-0.506 0.518 0.748 0.033 1.513 0.115 1.519 0.51 5e-3 0.388-0.611 0.457-1.301 0.506h-0.491c-1.117 2e-3 -2.469-1.559-3.397-1.522h-1.891c-1.759 6e-3 -3.626 0.133-3.626 1.016 0 0.881 1.606 0.883 3.122 1.01 0.162-0.166 0.327-0.336 0.493-0.504-0.812-0.088-1.503-0.153-1.505-0.506-4e-3 -0.358 0.477-0.485 1.218-0.51 1.302-0.148 2.567 1.457 3.831 1.52h2.26c1.705 0.013 3.352-0.114 3.354-1.01" fill="#fff" fill-rule="evenodd"/></g><g transform="translate(394.34 211.6)"><path d="m0 0c3.534-9e-3 4.31-0.146 4.31-0.527s-0.776-0.496-4.31-0.496c-3.535 0-4.306 0.115-4.306 0.496s0.771 0.531 4.306 0.527m0-1.521c5.206 0 6.346 0.457 6.346 1.017 0 0.565-1.14 1.008-6.346 1.02-5.207 0.016-6.346-0.455-6.346-1.02 0-0.56 1.139-1.017 6.346-1.017" fill="#fff" fill-rule="evenodd"/></g><g transform="translate(400.62 207.72)"><path d="m0 0h-8.092l8.092 1.017v0.508h-12.633v-0.508h8.081l-8.081-1.017v-0.508h12.633z" fill="#fff" fill-rule="evenodd"/></g><g transform="translate(390.03 205.81)"><path d="m0 0h10.587v0.504h-12.629v-2.021h2.042z" fill="#fff" fill-rule="evenodd"/></g><g transform="translate(387.99 203.61)"><path d="m0 0v-0.51h5.053l7.581-0.757v0.507l-5.062 0.504 5.062 0.506v0.502l-7.581-0.752z" fill="#fff" fill-rule="evenodd"/></g><g transform="translate(260.07 153.95)"><path d="m0 0c2.848-4.846 7.746-8.344 13.503-9.301" fill="none" stroke="#000" stroke-width=".75"/></g><g transform="translate(259.24 154.55)"><path d="m0 0c0.163-0.671 0.222-1.134 0.307-1.701l1.74 1.024c-0.174 0.117-0.829 0.627-1.336 1.095-0.543 0.502-0.994 0.981-1.25 1.313 0.165-0.385 0.365-1.012 0.539-1.731"/></g><path d="m483.12 168.74h-21.101v527.53h21.101z" fill="#fff"/></g><text transform="matrix(1 0 0 -1 466.37 253.88)" fill="#000000" font-family="Helvetica" font-size="9px"><tspan x="0 8.4960003 10.494 15.498 20.502001 23.004 27.504 32.507999 34.506001 36.504002" y="0">Wide solid</tspan><tspan x="0 5.0040002 10.008 15.012 19.836 21.834 26.837999 29.34 35.838001 40.841999 42.84 45.341999" y="9.5039997">double white</tspan><tspan x="0 1.998 7.0019999 12.006 17.01 19.511999 21.51 23.507999 28.511999" y="19.007999">lane line</tspan><tspan x="0 2.997 7.4970002 10.494 15.498 19.997999 24.497999 26.496 31.5" y="28.511999">(crossing</tspan><tspan x="0 6.0029998 12.321 19.323 25.820999 28.323 34.326 36.827999 42.327 48.330002 54.827999" y="38.015999">PROHIBITED)</tspan></text><g clip-path="url(#h)"><g transform="translate(464.4 236.91)"><path d="m0 0-12.623-11.32" fill="none" stroke="#000" stroke-width=".75"/></g><g transform="translate(451.21 224.36)"><path d="m0 0c0.819 0.388 1.401 0.587 2.104 0.847l-1.777 1.964c-0.105-0.255-0.585-1.233-1.052-2.009-0.501-0.831-0.997-1.539-1.356-1.956 0.451 0.315 1.204 0.738 2.081 1.154"/></g><g transform="translate(461.04 286.96)"><path d="m0 0h-405.98" fill="none" stroke="#000"/></g></g><text transform="matrix(1 0 0 -1 466.37 680.62)" fill="#000000" font-family="Helvetica" font-size="9px"><tspan x="0 8.4960003 10.494 15.498 20.502001 23.004 27.504 32.507999 34.506001 36.504002" y="0">Wide solid</tspan><tspan x="0 5.0040002 10.008 15.012 19.836 21.834 26.837999 29.34 35.838001 40.841999 42.84 45.341999" y="9.5039997">double white</tspan><tspan x="0 1.998 7.0019999 12.006 17.01 19.511999 21.51 23.507999 28.511999" y="19.007999">lane line</tspan></text><g clip-path="url(#g)"><g transform="translate(464.15 676.56)"><path d="m0 0-12.336-11.101" fill="none" stroke="#000" stroke-width=".75"/></g><g transform="translate(451.25 664.23)"><path d="m0 0c0.82 0.388 1.401 0.587 2.104 0.847l-1.777 1.964c-0.105-0.255-0.585-1.232-1.052-2.009-0.501-0.831-0.996-1.539-1.356-1.956 0.451 0.316 1.204 0.738 2.081 1.154"/></g><g transform="translate(437.56 585.09)"><path d="m0 0-38.582 81.135" fill="none" stroke="#000" stroke-width=".75"/></g><g transform="translate(397.96 667.11)"><path d="m0 0c0.136-0.896 0.161-1.51 0.207-2.258l2.392 1.137c-0.214 0.174-1.012 0.914-1.621 1.586-0.652 0.718-1.188 1.397-1.484 1.861 0.172-0.523 0.361-1.367 0.506-2.326"/></g></g><text transform="matrix(1 0 0 -1 466.37 406.93)" fill="#000000" font-family="Helvetica" font-size="9px"><tspan x="0 8.4960003 10.494 15.498 20.502001 23.004 28.007999 31.004999 36.008999 40.328999 45.333" y="0">Wide broken</tspan><tspan x="0 4.5 6.4980001 11.502 16.506001 18.504 23.507999 26.01 32.507999 37.512001 39.509998 42.012001 47.015999" y="9.5039997">single white </tspan><tspan x="0 1.998 7.0019999 12.006 17.01 19.511999 21.51 23.507999 28.511999" y="19.007999">lane line</tspan></text><g clip-path="url(#f)"><g transform="translate(464.77 404.79)"><path d="m0 0-9.693-8.65" fill="none" stroke="#000" stroke-width=".75"/></g><g transform="translate(454.52 394.91)"><path d="m0 0c0.819 0.387 1.4 0.586 2.103 0.846l-1.776 1.964c-0.105-0.255-0.585-1.233-1.053-2.009-0.501-0.83-0.997-1.539-1.355-1.955 0.451 0.314 1.204 0.738 2.081 1.154"/></g><path d="m55.36 720.7h-8.077v-556.96h8.077z" fill="#fff"/><g transform="translate(61.619 183.78)"><path d="m0 0 0.025 36.047" fill="none" stroke="#000" stroke-width=".75"/></g><g transform="translate(61.106 221.06)"><path d="m0 0c-0.263-0.868-0.505-1.431-0.785-2.128l2.649-2e-3c-0.119 0.249-0.521 1.261-0.782 2.129-0.28 0.93-0.472 1.773-0.54 2.319-0.068-0.546-0.261-1.389-0.542-2.318"/></g></g><text transform="matrix(1 0 0 -1 43.471 175.47)" fill="#000000" font-family="Helvetica" font-size="9px"><tspan x="0 8.4960003 10.494 15.498 20.502001 23.004 27.504 32.507999 34.506001 36.504002 41.507999 44.009998 48.509998 50.507999 55.512001 60.515999 62.514" y="0">Wide solid single</tspan><tspan x="0 6.4980001 11.502 13.5 16.002001 21.006001 23.507999 25.506001 30.51 35.514 40.518002 43.02 45.018002 47.015999 52.02" y="9.5039997">white lane line</tspan><tspan x="0 2.997 7.4970002 10.494 15.498 19.997999 24.497999 26.496 31.5" y="19.007999">(crossing</tspan><tspan x="0 6.4980001 9 15.003 21.500999 28.503 35.000999 41.499001 47.231998 54.234001 60.237 66.735001" y="28.511999">DISCOURAGED)</tspan></text><g clip-path="url(#e)"><g transform="translate(464.02 538.59)"><path d="m0 0-28.506-11.666" fill="none" stroke="#000" stroke-width=".75"/></g><g transform="translate(434.58 525.95)"><path d="m0 0c0.903 0.088 1.516 0.08 2.267 0.087l-1.009 2.449c-0.185-0.205-0.967-0.962-1.67-1.535-0.752-0.613-1.458-1.112-1.936-1.383 0.53 0.145 1.383 0.288 2.348 0.382"/></g></g><text transform="matrix(1 0 0 -1 466.37 545.45)" fill="#000000" font-family="Helvetica" font-size="9px"><tspan x="0 8.4960003 10.494 15.498 20.502001 23.004 27.504 32.507999 34.506001 36.504002" y="0">Wide solid</tspan><tspan x="0 4.5 6.4980001 11.502 16.506001 18.504 23.507999 26.01 32.507999 37.512001 39.509998 42.012001" y="9.5039997">single white</tspan><tspan x="0 1.998 7.0019999 12.006 17.01 19.511999 21.51 23.507999 28.511999" y="19.007999">lane line</tspan><tspan x="-77.156998 -71.153999 -66.150002 -61.146 -56.646 -51.641998 -49.139999 -44.136002 -41.633999 -39.132 -34.127998 -31.625999 -26.622 -23.625 -16.128 -14.13 -12.132 -7.1279998 -4.6259999 -2.628 2.3759999 4.8779998 9.882 13.149 17.424 22.427999 24.426001" y="-31.337999">Space at 1/4-mile intervals</tspan><tspan x="-45.702 -37.206001 -32.202 -30.204 -27.702 -22.698 -20.195999 -15.192 -10.188 -5.184 -0.18000001 2.322 4.3200002 6.3179998 11.322" y="379.87201">White edge line</tspan><tspan x="-45.702 -42.705002 -40.707001 -38.205002 -35.702999 -29.34 -24.336 -21.339001 -18.341999 -13.338 -8.3339996 -5.8319998 -0.82800001 4.1760001" y="389.37601">(if warranted)</tspan></text><g clip-path="url(#d)"><g transform="translate(136.54 554.81)"><path d="m0 0c3.729 4.207 9.209 6.696 15.042 6.526" fill="none" stroke="#000" stroke-width=".75"/></g><g transform="translate(136.12 553.53)"><path d="m0 0c0.772 0.476 1.328 0.736 1.999 1.073l-1.982 1.757c-0.078-0.265-0.447-1.289-0.827-2.113-0.405-0.88-0.821-1.639-1.132-2.093 0.414 0.363 1.116 0.866 1.942 1.376"/></g></g><text transform="matrix(1 0 0 -1 152.98 558.13)" fill="#000000" font-family="Helvetica" font-size="9px"><tspan x="0 6.0029998 11.007 14.004 17.136 19.134001 24.138 27.135 29.636999 34.640999 37.638 40.139999 47.637001 52.640999 57.645 59.643002 64.647003" y="0">Barrier or median</tspan></text><g clip-path="url(#c)"><g transform="translate(135.25 423.18)"><path d="m0 0c3.729 4.207 9.209 6.696 15.042 6.526" fill="none" stroke="#000" stroke-width=".75"/></g><g transform="translate(134.83 421.9)"><path d="m0 0c0.772 0.476 1.327 0.737 1.998 1.073l-1.982 1.757c-0.077-0.265-0.446-1.289-0.826-2.113-0.406-0.88-0.821-1.639-1.132-2.093 0.414 0.364 1.116 0.866 1.942 1.376"/></g></g><text transform="matrix(1 0 0 -1 151.69 426.5)" fill="#000000" font-family="Helvetica" font-size="9px"><tspan x="0 6.0029998 11.007 14.004 17.136 19.134001 24.138 27.135 29.636999 34.640999 37.638 40.139999 47.637001 52.640999 57.645 59.643002 64.647003" y="0">Barrier or median</tspan></text><g clip-path="url(#b)"><g transform="translate(109.42 290.07)"><path d="m0 0c3.729 4.207 9.209 6.695 15.042 6.525" fill="none" stroke="#000" stroke-width=".75"/></g><g transform="translate(109 288.79)"><path d="m0 0c0.772 0.475 1.328 0.736 1.998 1.073l-1.981 1.757c-0.078-0.266-0.447-1.289-0.827-2.113-0.405-0.88-0.821-1.639-1.132-2.093 0.414 0.363 1.116 0.866 1.942 1.376"/></g></g><text transform="matrix(1 0 0 -1 125.86 293.39)" fill="#000000" font-family="Helvetica" font-size="9px"><tspan x="0 6.0029998 11.007 14.004 17.136 19.134001 24.138 27.135 29.636999 34.640999 37.638 40.139999 47.637001 52.640999 57.645 59.643002 64.647003" y="0">Barrier or median</tspan></text><g clip-path="url(#a)"><g transform="translate(229.48 564.18)"><path d="m0 0-2.35-0.715 1.544-2.172-1.41-0.984-1.522 2.037-1.543-2.037-1.411 0.984 1.522 2.172-2.327 0.715 0.514 1.635 2.283-0.762v2.664h1.902v-2.664l2.261 0.762z"/></g><g transform="translate(228.39 432.97)"><path d="m0 0-2.35-0.715 1.544-2.172-1.41-0.984-1.522 2.037-1.544-2.037-1.41 0.984 1.522 2.172-2.328 0.715 0.515 1.635 2.282-0.762v2.664h1.903v-2.664l2.26 0.762z"/></g><g transform="translate(202.45 299.97)"><path d="m0 0-2.35-0.714 1.544-2.172-1.41-0.985-1.522 2.037-1.544-2.037-1.41 0.985 1.522 2.172-2.328 0.714 0.515 1.635 2.282-0.762v2.665h1.903v-2.665l2.26 0.762z"/></g><g transform="translate(224.05 702.22)"><path d="m0 0-2.35-0.715 1.544-2.172-1.41-0.984-1.522 2.037-1.544-2.037-1.41 0.984 1.522 2.172-2.327 0.715 0.514 1.635 2.283-0.762v2.664h1.902v-2.664l2.261 0.762z"/></g></g></g></svg>
