<?xml version="1.0" encoding="UTF-8"?>
<svg width="682.79" height="274.26" version="1.1" viewBox="0 0 682.79 274.26" xml:space="preserve" xmlns="http://www.w3.org/2000/svg"><defs><clipPath id="b"><path d="m28.125 42.374h512.09v228.23h-512.09z"/></clipPath><clipPath id="a"><path d="m28.125 42.374h512.09v228.23h-512.09z"/></clipPath></defs><g transform="matrix(1.3333 0 0 -1.3333 -37.5 331.08)"><path d="m28.125 86.254h512.09v138.6h-512.09z" fill="#b1b4b6"/><g clip-path="url(#b)"><path d="m541.11 86.254h-513.9v138.6h513.9z" fill="none" stroke="#000"/><g transform="translate(538.57 157.06)"><path d="m0 0h-509.23m0-3h509.23" fill="none" stroke="#ffd24f" stroke-width="2"/></g></g><text transform="matrix(1 0 0 -1 56.367 241.39)" fill="#000000" font-family="Helvetica" font-size="9.5px" font-weight="bold"><tspan x="0 6.8590002 9.5 12.6635 15.3045 21.641001 27.445499 33.25 38.532001 41.173 43.813999 46.455002 52.259499 57.5415 60.182499 65.987 71.791496 74.955002 77.596001 83.400497" y="0">A - Edge line not on</tspan><tspan x="17.2425 20.938 26.7425 35.188 40.9925 43.633499 48.915501 51.556499 56.838501 60.001999 63.697498 66.338501" y="10.4975">rumble strip</tspan><tspan x="191.862 198.72099 201.362 204.5255 207.1665 213.50301 219.3075 225.112 230.394 233.035 235.67599 238.317 244.12151 249.4035 252.04449 257.849" y="0">B - Edge line on</tspan><tspan x="200.4025 204.09801 209.9025 218.34801 224.1525 226.7935 232.0755 234.71651 239.9985 243.162 246.8575 249.4985" y="10.4975">rumble strip</tspan><tspan x="371.64001 378.49899 381.14001 384.3035 386.94449 393.8035 399.08551 404.89001 408.0535 413.33551 417.03101 419.672 422.31299 424.95401 430.75851 436.0405 438.68149 444.48599" y="0">C - Center line on</tspan><tspan x="383.5625 387.258 393.0625 401.508 407.3125 409.95349 415.2355 417.8765 423.15851 426.32199 430.01749 432.65851" y="10.4975">rumble strip</tspan></text><g clip-path="url(#a)"><g transform="translate(28.809 202.26)"><path d="m0 0h512.16m-512.16-93.401h512.16" fill="none" stroke="#fff" stroke-width="2"/></g></g><g fill="#fff"><path d="m28.125 64.565h4.047v172.06h-4.047z"/><path d="m536.17 64.565h4.046v172.06h-4.046z"/><path d="m215.33 64.565h-45.47v172.06h45.47z"/><path d="m398.48 64.565h-45.469v172.06h45.469z"/></g><g transform="translate(472.69 179.05)"><path d="m0 0h-6.354v-1.559l-4.377 2.577 4.377 2.399v-1.439h6.354z"/></g><g transform="translate(461.96 132.71)"><path d="m0 0h6.354v1.559l4.377-2.577-4.377-2.399v1.439h-6.354z"/></g><g transform="translate(289.54 179.05)"><path d="m0 0h-6.352v-1.559l-4.377 2.577 4.377 2.399v-1.439h6.352z"/></g><g transform="translate(278.81 132.71)"><path d="m0 0h6.353v1.559l4.376-2.577-4.376-2.399v1.439h-6.353z"/></g><g transform="translate(106.38 179.05)"><path d="m0 0h-6.352v-1.559l-4.377 2.577 4.377 2.399v-1.439h6.352z"/></g><g transform="translate(95.651 132.71)"><path d="m0 0h6.353v1.559l4.376-2.577-4.376-2.399v1.439h-6.353z"/></g><path d="m74.512 204.01h-3.408v4.504h3.408zm-6.291 0h-3.408v4.504h3.408zm-6.294 0h-3.408v4.504h3.408zm-6.294 0h-3.407v4.504h3.407zm-6.293 0h-3.407v4.504h3.407zm-6.293 0h-3.408v4.504h3.408zm-6.293 0h-3.408v4.504h3.408zm75.516 0h-3.408v4.504h3.408zm-6.292 0h-3.408v4.504h3.408zm-6.294 0h-3.408v4.504h3.408zm-6.294 0h-3.407v4.504h3.407zm-6.293 0h-3.407v4.504h3.407zm-6.292 0h-3.408v4.504h3.408zm69.223 0h-3.408v4.504h3.408zm-6.292 0h-3.408v4.504h3.408zm-6.294 0h-3.408v4.504h3.408zm-6.294 0h-3.407v4.504h3.407zm-6.293 0h-3.406v4.504h3.406zm-6.292 0h-3.408v4.504h3.408zm50.343 0h-3.407v4.504h3.407zm-6.293 0h-3.407v4.504h3.407zm-6.292 0h-3.409v4.504h3.409zm-81.809-101.4h-3.408v4.504h3.408zm-6.291 0h-3.408v4.504h3.408zm-6.294 0h-3.408v4.504h3.408zm-6.294 0h-3.407v4.504h3.407zm-6.293 0h-3.407v4.504h3.407zm-6.293 0h-3.408v4.504h3.408zm-6.293 0h-3.408v4.504h3.408zm75.516 0h-3.408v4.504h3.408zm-6.292 0h-3.408v4.504h3.408zm-6.294 0h-3.408v4.504h3.408zm-6.294 0h-3.407v4.504h3.407zm-6.293 0h-3.407v4.504h3.407zm-6.292 0h-3.408v4.504h3.408zm69.223 0h-3.408v4.504h3.408zm-6.292 0h-3.408v4.504h3.408zm-6.294 0h-3.408v4.504h3.408zm-6.294 0h-3.407v4.504h3.407zm-6.293 0h-3.406v4.504h3.406zm-6.292 0h-3.408v4.504h3.408zm50.343 0h-3.407v4.504h3.407zm-6.293 0h-3.407v4.504h3.407zm-6.292 0h-3.409v4.504h3.409z" fill="none" stroke="#000" stroke-width=".5"/><g transform="translate(453.61 61.119)"><path d="m0 0h6.353v1.559l4.377-2.577-4.377-2.398v1.439h-6.353z"/></g><g transform="translate(475.12 69.307)"><path d="m0 0h29.291" fill="none" stroke="#000" stroke-width=".75"/></g><text transform="matrix(1 0 0 -1 474.65 72.255)" fill="#000000" font-family="Helvetica" font-size="9px"><tspan x="0 5.0040002 10.008 15.012 20.016001 25.02" y="0">Legend</tspan><tspan x="-7.4790001 -0.98100001 1.017 4.0139999 9.0179996 13.518 16.02 18.018 23.021999 28.025999 30.528 35.532001 38.034 40.535999 43.037998 45.945 50.769001 55.043999 60.048" y="15.354">Direction of travel</tspan><tspan x="-7.4879999 -0.99000001 4.0139999 11.511 16.334999 18.333 23.337 25.839001 30.339001 32.841 35.973 37.971001" y="27.855">Rumble strip</tspan></text><path d="m464.34 45.466h-2.726v4.504h2.726zm-5.034 0h-2.727v4.504h2.727zm-5.035 0h-2.726v4.504h2.726z" fill="none" stroke="#000" stroke-width=".5"/><text transform="matrix(1 0 0 -1 32.172 58.232)" fill="#000000" font-family="Helvetica" font-size="9px"><tspan x="0 6.4980001 11.502 14.004 19.007999 21.059999 23.993999 29.997 35.000999 40.005001 45.008999 47.511002 49.508999 51.507 56.511002 61.514999 64.016998 71.514 76.248001 80.748001 83.25 88.253998 93.258003 95.760002 97.758003 102.762 107.262 112.266 114.768 119.772 124.776 127.278 132.282 134.28 139.284 144.28799 149.29201 153.79201 155.78999 160.79401 165.798 168.3 170.802 175.806 180.81 183.312 186.444 191.448 198.94501 203.769 205.767 210.771 213.27299 217.77299 220.27499 223.407 225.405 230.409 232.911 235.908 242.91 247.914 250.416 252.414 257.418 262.422 264.92401 270.927 273.92401 276.42599 281.42999 284.427 286.92899 291.93301 296.93701 299.439 301.94101 306.94501 311.94901 314.45099 317.58301 322.58701 330.08401 334.90799 336.90601 341.91 344.41199 348.91199 351.414 354.54599 356.54401 361.548 364.04999 367.047 374.04901 379.05301 381.55499 383.55301 388.55701 393.561 396.06299 402.06601 405.06299 407.02499" y="0">Note: Edge line may be located alongside the rumble strip (Option A) or on the rumble strip (Option B). </tspan><tspan x="23.993999 30.492001 35.495998 40.5 43.001999 48.006001 51.002998 53.505001 55.502998 57.500999 62.505001 67.509003 70.011002 77.508003 82.512001 85.643997 90.143997 92.141998 97.146004 102.15 106.65 109.152 116.649 121.383 125.883 128.38499 133.38901 135.38699 139.88699 144.89101 147.39301 152.397 157.401 159.903 161.901 166.905 171.405 176.409 178.911 183.91499 188.91901 191.42101 196.425 201.429 203.931 208.935 211.437 215.937 220.94099 225.94501 228.44701 233.451 236.448 238.95 240.948 242.946 247.95 252.95399 255.45599 258.58801 263.59201 271.08899 275.91299 277.91101 282.91501 285.41699 289.91699 292.41901 295.55099 297.54901 302.55301 305.05499 308.052 315.05399 320.05801 322.56 324.55801 329.56201 334.56601 337.06799 343.56601 346.56299" y="9.5039997">Center line markings may also be located on a center line rumble strip (Option C).</tspan></text><path d="m257.54 201.51h-3.408v4.504h3.408zm-6.291 0h-3.408v4.504h3.408zm-6.294 0h-3.408v4.504h3.408zm-6.294 0h-3.407v4.504h3.407zm-6.293 0h-3.407v4.504h3.407zm-6.292 0h-3.409v4.504h3.409zm-6.293 0h-3.409v4.504h3.409zm75.515 0h-3.408v4.504h3.408zm-6.292 0h-3.408v4.504h3.408zm-6.293 0h-3.408v4.504h3.408zm-6.294 0h-3.407v4.504h3.407zm-6.293 0h-3.407v4.504h3.407zm-6.293 0h-3.408v4.504h3.408zm69.223 0h-3.408v4.504h3.408zm-6.291 0h-3.408v4.504h3.408zm-6.295 0h-3.408v4.504h3.408zm-6.293 0h-3.408v4.504h3.408zm-6.293 0h-3.407v4.504h3.407zm-6.293 0h-3.408v4.504h3.408zm50.343 0h-3.406v4.504h3.406zm-6.293 0h-3.406v4.504h3.406zm-6.292 0h-3.408v4.504h3.408zm-81.809-96.405h-3.408v4.504h3.408zm-6.291 0h-3.408v4.504h3.408zm-6.294 0h-3.408v4.504h3.408zm-6.294 0h-3.407v4.504h3.407zm-6.293 0h-3.407v4.504h3.407zm-6.292 0h-3.409v4.504h3.409zm-6.293 0h-3.409v4.504h3.409zm75.515 0h-3.408v4.504h3.408zm-6.292 0h-3.408v4.504h3.408zm-6.293 0h-3.408v4.504h3.408zm-6.294 0h-3.407v4.504h3.407zm-6.293 0h-3.407v4.504h3.407zm-6.293 0h-3.408v4.504h3.408zm69.223 0h-3.408v4.504h3.408zm-6.291 0h-3.408v4.504h3.408zm-6.295 0h-3.408v4.504h3.408zm-6.293 0h-3.408v4.504h3.408zm-6.293 0h-3.407v4.504h3.407zm-6.293 0h-3.408v4.504h3.408zm50.343 0h-3.406v4.504h3.406zm-6.293 0h-3.406v4.504h3.406zm-6.292 0h-3.408v4.504h3.408zm101.42 48.205h-3.408v4.503h3.408zm-6.291 0h-3.408v4.503h3.408zm-6.295 0h-3.408v4.503h3.408zm-6.293 0h-3.408v4.503h3.408zm-6.293 0h-3.407v4.503h3.407zm-6.293 0h-3.408v4.503h3.408zm-6.293 0h-3.408v4.503h3.408zm75.516 0h-3.408v4.503h3.408zm-6.291 0h-3.408v4.503h3.408zm-6.295 0h-3.408v4.503h3.408zm-6.293 0h-3.408v4.503h3.408zm-6.293 0h-3.407v4.503h3.407zm-6.293 0h-3.408v4.503h3.408zm69.223 0h-3.408v4.503h3.408zm-6.291 0h-3.409v4.503h3.409zm-6.295 0h-3.408v4.503h3.408zm-6.293 0h-3.408v4.503h3.408zm-6.293 0h-3.407v4.503h3.407zm-6.293 0h-3.408v4.503h3.408zm50.343 0h-3.407v4.503h3.407zm-6.293 0h-3.407v4.503h3.407zm-6.292 0h-3.409v4.503h3.409z" fill="none" stroke="#000" stroke-width=".5"/></g></svg>
