<?xml version="1.0" encoding="UTF-8"?>
<svg width="672.14" height="810.67" version="1.1" viewBox="0 0 672.14 810.67" xml:space="preserve" xmlns="http://www.w3.org/2000/svg"><defs><clipPath id="h"><path d="m26.875 45h513.38v693h-513.38z"/></clipPath><clipPath id="g"><path d="m26.875 45h513.38v693h-513.38z"/></clipPath><clipPath id="f"><path d="m26.875 45h513.38v693h-513.38z"/></clipPath><clipPath id="e"><path d="m26.875 45h513.38v693h-513.38z"/></clipPath><clipPath id="d"><path d="m26.875 45h513.38v693h-513.38z"/></clipPath><clipPath id="c"><path d="m26.875 45h513.38v693h-513.38z"/></clipPath><clipPath id="b"><path d="m26.875 45h513.38v693h-513.38z"/></clipPath><clipPath id="a"><path d="m26.875 45h513.38v693h-513.38z"/></clipPath></defs><g transform="matrix(1.3333 0 0 -1.3333 -41.029 912.2)"><g transform="translate(413.02 618.89)"><path d="m0 0h73.349m-73.349-24.716h73.349m-41.586 24.439v-24.439m18.266 24.439v-24.439m18.264 24.439v-24.439" fill="none" stroke="#000"/></g><g clip-path="url(#h)"><g transform="translate(486.36 684.09)"><path d="m0 0h-91.705v-607.66h91.705v40.764h-34.388s-20.782-2.086-20.782 20.781v481.39s3.127 22.375 22.375 22.375h32.795z" fill="#b1b4b6"/></g><g fill="#fff"><path d="m476.79 76.143h-3.455v42.529h3.455z"/><path d="m452.34 76.143h-3.455v42.529h3.455z"/><path d="m431.07 161.21h-37.117v3.455h37.117z"/><path d="m431.07 136.76h-37.117v3.455h37.117z"/><path d="m431.07 576.86h-37.117v5.929h37.117z"/></g><g transform="translate(446.21 511.94)"><path d="m0 0-20.674 48.398" fill="none" stroke="#000" stroke-width=".75"/></g><g transform="translate(424.55 561.26)"><path d="m0 0c0.098-0.902 0.099-1.515 0.115-2.265l2.436 1.04c-0.207 0.183-0.975 0.954-1.557 1.649-0.622 0.745-1.13 1.444-1.407 1.92 0.151-0.53 0.305-1.38 0.413-2.344"/></g><g transform="translate(445.32 232.7)"><path d="m0 0-17.879-32.432" fill="none" stroke="#000" stroke-width=".75"/></g><g transform="translate(427.31 198.92)"><path d="m0 0c0.648 0.634 1.131 1.011 1.712 1.487l-2.319 1.278c-0.017-0.275-0.152-1.356-0.342-2.242-0.202-0.949-0.441-1.78-0.644-2.291 0.323 0.445 0.898 1.091 1.593 1.768"/></g><g transform="translate(438.42 557.5)"><path d="m0 0v32.31" fill="none" stroke="#000" stroke-width=".75"/></g><g transform="translate(437.89 591.38)"><path d="m0 0c-0.263-0.867-0.504-1.432-0.783-2.128h2.648c-0.118 0.249-0.521 1.261-0.783 2.128-0.28 0.929-0.473 1.772-0.541 2.318-0.069-0.546-0.261-1.389-0.541-2.318"/></g><g transform="translate(438.96 556.28)"><path d="m0 0c0.263 0.867 0.504 1.432 0.783 2.128h-2.648c0.118-0.249 0.521-1.261 0.783-2.128 0.28-0.93 0.473-1.772 0.541-2.318 0.068 0.546 0.261 1.388 0.541 2.318"/></g><g transform="translate(420.49 291.63)"><path d="m0 0v3.446h-11.592v-3.446h4.229v-40.572h-4.229v-3.447h4.229v-39.789h-4.229v-3.446h11.592v3.446h-5.17v39.789h5.17v3.447h-5.17v40.572z" fill="#fff"/></g><g transform="translate(420.49 392.05)"><path d="m0 0v3.446h-11.592v-3.446h4.229v-40.572h-4.229v-3.447h4.229v-39.789h-4.229v-3.446h11.592v3.446h-5.17v39.789h5.17v3.447h-5.17v40.572z" fill="#fff"/></g><g transform="translate(420.49 492.46)"><path d="m0 0v3.446h-11.592v-3.446h4.229v-40.572h-4.229v-3.447h4.229v-39.789h-4.229v-3.446h11.592v3.446h-5.17v39.789h5.17v3.447h-5.17v40.572h2.585z" fill="#fff"/></g><g transform="translate(413.13 555.32)"><path d="m0 0h-4.229v-3.446h4.229v-39.789h-4.229v-3.447h11.592v3.447h-5.17v39.789h5.17v3.446h-6.266z" fill="#fff"/></g><g transform="translate(398.06 453.2)"><path d="m0 0v37.968" fill="none" stroke="#000" stroke-width=".75"/></g><g transform="translate(397.52 491.49)"><path d="m0 0c-0.263-0.867-0.504-1.432-0.784-2.128h2.649c-0.118 0.249-0.522 1.261-0.783 2.128-0.281 0.929-0.473 1.772-0.541 2.318-0.069-0.546-0.261-1.389-0.541-2.318"/></g><g transform="translate(398.6 452.86)"><path d="m0 0c0.262 0.868 0.504 1.433 0.783 2.129h-2.649c0.119-0.25 0.522-1.261 0.784-2.129 0.28-0.929 0.472-1.771 0.541-2.317 0.068 0.546 0.26 1.388 0.541 2.317"/></g><g transform="translate(398.06 513.54)"><path d="m0 0v7.639" fill="none" stroke="#000" stroke-width=".75"/></g><g transform="translate(398.6 513.17)"><path d="m0 0c0.262 0.869 0.504 1.433 0.783 2.129h-2.649c0.119-0.249 0.522-1.26 0.784-2.129 0.28-0.928 0.472-1.771 0.541-2.317 0.068 0.546 0.26 1.389 0.541 2.317"/></g><g transform="translate(418 458.05)"><path d="m0 0h10.065" fill="none" stroke="#000" stroke-width=".75"/></g><g transform="translate(428.47 458.59)"><path d="m0 0c-0.868 0.262-1.433 0.504-2.129 0.783v-2.648c0.249 0.118 1.261 0.521 2.129 0.783 0.929 0.281 1.771 0.473 2.317 0.541-0.546 0.068-1.388 0.261-2.317 0.541"/></g><g transform="translate(417.59 457.51)"><path d="m0 0c0.868-0.262 1.432-0.504 2.129-0.783v2.648c-0.249-0.119-1.261-0.521-2.129-0.783-0.929-0.281-1.772-0.473-2.318-0.541 0.546-0.069 1.389-0.261 2.318-0.541"/></g><g transform="translate(486.36 117.19)"><path d="m0 0h-34.388s-20.782-2.086-20.782 20.781v481.39s3.127 22.375 22.375 22.375h32.795" fill="none" stroke="#000"/></g><g transform="translate(433.31 163.99)"><path d="m0 0h17.048m-17.048 41.827h17.048m-17.048 347.77h17.048m-54.943-103.43h10.547m-10.547 44.018h10.547m-10.547 16.297h10.547" fill="none" stroke="#000" stroke-width=".75"/></g><g transform="translate(123.18 684.09)"><path d="m0 0h-91.705v-607.66h91.705v40.764h-34.389s-20.782-2.086-20.782 20.781v481.39s3.127 22.375 22.375 22.375h32.796z" fill="#b1b4b6"/></g><g fill="#fff"><path d="m113.61 641.62h-3.455v42.529h3.455z"/><path d="m89.154 641.62h-3.455v42.529h3.455z"/><path d="m113.61 76.143h-3.455v42.529h3.455z"/><path d="m89.154 76.143h-3.455v42.529h3.455z"/><path d="m67.889 617.17h-37.117v3.455h37.117z"/><path d="m67.889 592.71h-37.117v3.456h37.117z"/></g><g transform="translate(67.889 164.67)"><path d="m0 0v-3.455h-37.117v3.455h18.558z" fill="#fff"/></g><path d="m67.889 136.76h-37.117v3.455h37.117z" fill="#fff"/><path d="m67.889 576.86h-37.117v5.929h37.117z" fill="#fff"/><g transform="translate(79.919 538.75)"><path d="m0 0-17.853 21.347" fill="none" stroke="#000" stroke-width=".75"/></g><g transform="translate(60.859 560.7)"><path d="m0 0c0.353-0.836 0.528-1.424 0.759-2.138l2.036 1.692c-0.25 0.116-1.206 0.637-1.962 1.138-0.81 0.534-1.496 1.06-1.898 1.436 0.297-0.464 0.688-1.235 1.065-2.128"/></g><g transform="translate(85.571 232.53)"><path d="m0 0-19.928-35.982" fill="none" stroke="#000" stroke-width=".75"/></g><g transform="translate(65.515 195.21)"><path d="m0 0c0.649 0.633 1.133 1.01 1.713 1.486l-2.319 1.278c-0.017-0.275-0.152-1.355-0.342-2.242-0.202-0.949-0.441-1.779-0.645-2.291 0.324 0.445 0.899 1.091 1.593 1.769"/></g><g transform="translate(78.261 195.55)"><path d="m0 0v5.712" fill="none" stroke="#000" stroke-width=".75"/></g><g transform="translate(77.723 201.77)"><path d="M 0,0 C -0.262,-0.868 -0.504,-1.433 -0.783,-2.129 H 1.865 C 1.747,-1.88 1.344,-0.868 1.082,0 0.801,0.929 0.61,1.771 0.541,2.317 0.473,1.771 0.28,0.929 0,0"/></g><g transform="translate(78.261 167.82)"><path d="m0 0v4.36" fill="none" stroke="#000" stroke-width=".75"/></g><g transform="translate(78.799 167.36)"><path d="m0 0c0.263 0.868 0.504 1.432 0.784 2.129h-2.649c0.119-0.249 0.521-1.261 0.783-2.129 0.281-0.929 0.473-1.772 0.541-2.318 0.069 0.546 0.261 1.389 0.541 2.318"/></g><g transform="translate(76.079 581.36)"><path d="m0 0v8.068" fill="none" stroke="#000" stroke-width=".75"/></g><g transform="translate(75.541 590.02)"><path d="m0 0c-0.262-0.868-0.504-1.433-0.783-2.129h2.648c-0.118 0.25-0.521 1.261-0.783 2.129-0.281 0.929-0.473 1.771-0.541 2.317-0.068-0.546-0.261-1.388-0.541-2.317"/></g><g transform="translate(76.079 554.84)"><path d="m0 0v5.1" fill="none" stroke="#000" stroke-width=".75"/></g><g transform="translate(76.617 553.88)"><path d="m0 0c0.262 0.868 0.504 1.433 0.783 2.129h-2.648c0.118-0.249 0.521-1.261 0.783-2.129 0.281-0.928 0.473-1.771 0.541-2.317 0.068 0.546 0.261 1.389 0.541 2.317"/></g><g transform="translate(42.518 511.04)"><path d="m0 0v36.96" fill="none" stroke="#000" stroke-width=".75"/></g><g transform="translate(41.98 548.5)"><path d="m0 0c-0.262-0.868-0.504-1.432-0.783-2.128h2.648c-0.118 0.249-0.521 1.26-0.783 2.128-0.281 0.929-0.473 1.772-0.541 2.318-0.068-0.546-0.261-1.389-0.541-2.318"/></g><g transform="translate(43.056 510.56)"><path d="m0 0c0.262 0.867 0.504 1.432 0.783 2.128h-2.648c0.118-0.249 0.521-1.261 0.783-2.128 0.281-0.93 0.473-1.772 0.541-2.318 0.068 0.546 0.261 1.388 0.541 2.318"/></g><g transform="translate(42.518 467.77)"><path d="m0 0v36.91" fill="none" stroke="#000" stroke-width=".75"/></g><g transform="translate(41.98 505.17)"><path d="m0 0c-0.262-0.868-0.504-1.432-0.783-2.128h2.648c-0.118 0.249-0.521 1.26-0.783 2.128-0.281 0.929-0.473 1.771-0.541 2.318-0.068-0.547-0.261-1.389-0.541-2.318"/></g><g transform="translate(43.056 467.2)"><path d="m0 0c0.262 0.868 0.504 1.432 0.783 2.129h-2.648c0.118-0.25 0.521-1.261 0.783-2.129 0.281-0.929 0.473-1.771 0.541-2.318 0.068 0.547 0.261 1.389 0.541 2.318"/></g><g transform="translate(67.53 550.35)"><path d="m0 0v1.72h-16.132v-348.46h16.132v1.709h-14.111v41.633h14.111v1.709h-14.111v41.634h14.111v1.709h-14.111v41.633h14.111v1.709h-14.111v41.633h14.111v1.71h-14.111v41.633h14.111v1.709h-14.111v41.633h14.111v1.709h-14.111v41.633h14.111v1.71h-14.111v41.633h7.055z" fill="#fff"/></g><g transform="translate(123.18 117.19)"><path d="m0 0h-34.389s-20.782-2.086-20.782 20.781v481.39s3.127 22.375 22.375 22.375h32.796" fill="none" stroke="#000"/></g><g transform="translate(72.137 164.67)"><path d="m0 0h17.048m-17.048 39.798h17.048m-17.048 346.72h17.048m-17.048 41.52h17.048m-52.195-84.848h10.547m-10.547 43.328h10.547m-10.547-86.688h10.547m32.976 30.098-34.912 34.078" fill="none" stroke="#000" stroke-width=".75"/></g><g transform="translate(44.339 529.16)"><path d="m0 0c0.437-0.794 0.673-1.361 0.976-2.047l1.849 1.895c-0.261 0.089-1.266 0.508-2.069 0.926-0.861 0.448-1.598 0.899-2.037 1.232 0.343-0.431 0.812-1.157 1.281-2.006"/></g><g transform="translate(80.513 450.23)"><path d="m0 0-34.911 34.078" fill="none" stroke="#000" stroke-width=".75"/></g><g transform="translate(44.339 484.79)"><path d="m0 0c0.437-0.794 0.673-1.361 0.976-2.047l1.849 1.895c-0.261 0.089-1.266 0.508-2.069 0.926-0.861 0.448-1.598 0.899-2.037 1.231 0.343-0.43 0.812-1.156 1.281-2.005"/></g></g><text transform="matrix(1 0 0 -1 73.519 572.95)" fill="#000000" font-family="Helvetica" font-size="9px"><tspan x="0 5.0040002 10.008 12.51 15.012 17.514 20.016001 27.513 30.014999 36.513" y="0">20 ft MIN.</tspan><tspan x="0 5.0040002 10.008 13.005 15.507 22.004999 28.007999" y="9.5039997">per UVC</tspan><tspan x="8.8290005 13.833 18.837 21.339001 23.841 26.343 28.844999 31.347 35.847 40.851002 42.848999 47.348999 52.353001" y="82.781998">20 ft typical</tspan><tspan x="8.8290005 11.061 16.065001 19.062 21.563999 26.568001 31.572001 36.576 39.077999 43.577999 48.582001 53.585999 58.085999" y="92.286003">for end space</tspan><tspan x="8.8290005 13.833 18.837 21.339001 23.841 28.844999 31.347 36.351002 41.355 43.856998 46.359001" y="127.89">22 to 26 ft</tspan><tspan x="6.723 13.221" y="42.768002">NO</tspan><tspan x="6.723 11.646 17.649 24.146999 30.15 32.652 39.150002" y="52.271999">PARKING</tspan><tspan x="6.723 12.222 19.224001 25.722" y="61.776001">ZONE</tspan><tspan x="-1.8 3.204 5.7059999 8.2080002" y="183.735">8 ft</tspan><tspan x="13.122 19.620001" y="318.91501">NO</tspan><tspan x="13.122 18.045 24.048 30.546 36.549 39.050999 45.549" y="328.41901">PARKING</tspan><tspan x="13.122 18.621 25.622999 32.120998" y="337.923">ZONE</tspan><tspan x="1.989 6.993 11.997 14.499 17.000999 19.503 22.004999 29.502001 32.004002 38.501999" y="385.72198">20 ft MIN.</tspan></text><text transform="matrix(1 0 0 -1 75.508 177.73)" fill="#000000" font-family="Helvetica" font-size="9px"><tspan x="0 5.0040002 10.008 13.005 15.507 22.004999 28.503" y="0">per UCV</tspan></text><g clip-path="url(#g)"><g transform="translate(265.43 195.55)"><path d="m0 0v7.066" fill="none" stroke="#000" stroke-width=".75"/></g><g transform="translate(264.89 203.13)"><path d="m0 0c-0.262-0.868-0.504-1.432-0.783-2.128h2.648c-0.118 0.249-0.521 1.26-0.783 2.128-0.281 0.929-0.472 1.772-0.541 2.318-0.068-0.546-0.261-1.389-0.541-2.318"/></g><g transform="translate(265.43 167.82)"><path d="m0 0v5.433" fill="none" stroke="#000" stroke-width=".75"/></g><g transform="translate(265.96 167.36)"><path d="m0 0c0.263 0.868 0.504 1.432 0.784 2.129h-2.649c0.119-0.249 0.521-1.261 0.783-2.129 0.281-0.929 0.473-1.772 0.541-2.318 0.069 0.546 0.261 1.389 0.541 2.318"/></g></g><text transform="matrix(1 0 0 -1 262.68 187.26)" fill="#000000" font-family="Helvetica" font-size="9px"><tspan x="0 5.0040002 10.008 12.51 15.012 17.514 20.016001 27.513 30.014999 36.513" y="0">20 ft MIN.</tspan><tspan x="0 5.0040002 10.008 13.005 15.507 22.004999 28.503" y="9.5039997">per UCV</tspan></text><g clip-path="url(#f)"><g transform="translate(441.9 195.55)"><path d="m0 0v7.066" fill="none" stroke="#000" stroke-width=".75"/></g><g transform="translate(441.36 203.13)"><path d="m0 0c-0.262-0.868-0.504-1.432-0.783-2.128h2.649c-0.119 0.249-0.522 1.26-0.784 2.128-0.28 0.929-0.472 1.772-0.541 2.318-0.068-0.546-0.26-1.389-0.541-2.318"/></g><g transform="translate(441.9 167.15)"><path d="m0 0v6.109" fill="none" stroke="#000" stroke-width=".75"/></g><g transform="translate(442.44 166.68)"><path d="m0 0c0.262 0.868 0.503 1.433 0.783 2.129h-2.649c0.118-0.249 0.522-1.261 0.784-2.129 0.28-0.929 0.472-1.771 0.541-2.317 0.068 0.546 0.26 1.388 0.541 2.317"/></g></g><text transform="matrix(1 0 0 -1 439.15 187.26)" fill="#000000" font-family="Helvetica" font-size="9px"><tspan x="0 5.0040002 10.008 12.51 15.012 17.514 20.016001 27.513 30.014999 36.513" y="0">20 ft MIN.</tspan><tspan x="0 5.0040002 10.008 13.005 15.507 22.004999 28.503" y="9.5039997">per UCV</tspan><tspan x="-91.889999 -86.886002 -81.882004 -79.379997 -76.877998 -74.375999 -71.874001 -69.372002 -64.872002 -59.868 -57.869999 -53.369999 -48.366001" y="-280.41299">20 ft typical</tspan><tspan x="-51.056999 -46.053001 -43.550999 -41.049" y="-336.01501">8 ft</tspan></text><g clip-path="url(#e)"><g transform="translate(309.01 684.09)"><path d="m0 0h-91.705v-607.66h91.705v40.764h-34.389s-20.782-2.086-20.782 20.781v481.39s3.127 22.375 22.376 22.375h32.795z" fill="#b1b4b6"/></g><g fill="#fff"><path d="m299.43 641.62h-3.455v42.529h3.455z"/><path d="m274.98 641.62h-3.455v42.529h3.455z"/><path d="m299.43 76.143h-3.455v42.529h3.455z"/><path d="m274.98 76.143h-3.455v42.529h3.455z"/><path d="m253.72 617.17h-37.117v3.455h37.117z"/><path d="m253.72 592.71h-37.117v3.456h37.117z"/><path d="m253.72 161.21h-37.117v3.455h37.117z"/><path d="m253.72 136.76h-37.117v3.455h37.117z"/><path d="m253.72 576.86h-37.117v5.929h37.117z"/></g><g transform="translate(276.88 509.38)"><path d="m0 0-28.053 30.185" fill="none" stroke="#000" stroke-width=".75"/></g><g transform="translate(247.59 540.11)"><path d="m0 0c0.399-0.814 0.606-1.392 0.876-2.092l1.94 1.803c-0.257 0.102-1.24 0.569-2.023 1.026-0.838 0.489-1.552 0.976-1.974 1.329 0.321-0.446 0.754-1.194 1.181-2.066"/></g><g transform="translate(270.48 231.81)"><path d="m0 0-21.041-30.475" fill="none" stroke="#000" stroke-width=".75"/></g><g transform="translate(249.17 200.01)"><path d="m0 0c0.709 0.567 1.228 0.893 1.854 1.307l-2.18 1.505c-0.044-0.273-0.286-1.333-0.565-2.196-0.296-0.925-0.616-1.726-0.871-2.215 0.367 0.411 1.003 0.996 1.762 1.599"/></g><g transform="translate(263.92 578.19)"><path d="m0 0v11.738" fill="none" stroke="#000" stroke-width=".75"/></g><g transform="translate(263.39 590.02)"><path d="m0 0c-0.262-0.868-0.504-1.433-0.783-2.129h2.648c-0.119 0.25-0.521 1.261-0.783 2.129-0.281 0.929-0.473 1.771-0.541 2.317-0.069-0.546-0.261-1.388-0.541-2.317"/></g><g transform="translate(263.92 536.68)"><path d="m0 0v9.449" fill="none" stroke="#000" stroke-width=".75"/></g><g transform="translate(264.46 536.82)"><path d="m0 0c0.262 0.869 0.504 1.433 0.783 2.129h-2.648c0.118-0.249 0.521-1.26 0.783-2.129 0.281-0.928 0.473-1.771 0.541-2.317 0.068 0.546 0.261 1.389 0.541 2.317"/></g><g transform="translate(222.8 497.38)"><path d="m0 0v33.711" fill="none" stroke="#000" stroke-width=".75"/></g><g transform="translate(222.26 531.43)"><path d="m0 0c-0.263-0.868-0.504-1.432-0.784-2.128h2.649c-0.119 0.249-0.521 1.26-0.783 2.128-0.281 0.929-0.473 1.772-0.541 2.318-0.069-0.546-0.261-1.389-0.541-2.318"/></g><g transform="translate(223.34 497.01)"><path d="m0 0c0.262 0.868 0.504 1.432 0.783 2.129h-2.648c0.118-0.25 0.521-1.261 0.783-2.129 0.281-0.929 0.472-1.771 0.541-2.318 0.068 0.547 0.261 1.389 0.541 2.318"/></g><g transform="translate(222.8 439.7)"><path d="m0 0v51.563" fill="none" stroke="#000" stroke-width=".75"/></g><g transform="translate(222.26 491.62)"><path d="m0 0c-0.263-0.868-0.504-1.433-0.784-2.129h2.649c-0.119 0.25-0.521 1.261-0.783 2.129-0.281 0.929-0.473 1.771-0.541 2.317-0.069-0.546-0.261-1.388-0.541-2.317"/></g><g transform="translate(223.34 439.36)"><path d="m0 0c0.262 0.868 0.504 1.432 0.783 2.128h-2.648c0.118-0.249 0.521-1.26 0.783-2.128 0.281-0.929 0.472-1.772 0.541-2.318 0.068 0.546 0.261 1.389 0.541 2.318"/></g><g transform="translate(242.98 265.06)"><path d="m0 0h-3.623v3.623h-2.557v-3.623h-3.621v-2.557h3.621v-3.623h2.557v3.623h3.623z" fill="#fff"/></g><g transform="translate(242.98 322.68)"><path d="m0 0h-3.623v3.623h-2.557v-3.623h-3.621v-2.557h3.621v-3.621h2.557v3.621h3.623z" fill="#fff"/></g><g transform="translate(242.98 380.31)"><path d="m0 0h-3.623v3.623h-2.557v-3.623h-3.621v-2.557h3.621v-3.623h2.557v3.623h3.623z" fill="#fff"/></g><g transform="translate(242.98 437.94)"><path d="m0 0h-3.623v3.623h-2.557v-3.623h-3.621v-2.556h3.621v-3.622h2.557v3.622h3.623v1.278z" fill="#fff"/></g><g transform="translate(242.98 495.57)"><path d="m0 0h-3.623v3.623h-2.557v-3.623h-3.621v-2.556h3.621v-3.622h2.557v3.622h3.623v1.278z" fill="#fff"/></g><g transform="translate(240.06 207.1)"><path d="m0 0v3.807h-3.512v-3.807h-3.373v-2.556h9.801v1.278 1.278h-1.458z" fill="#fff"/></g><g transform="translate(236.38 532.85)"><path d="m0 0v-3.807h3.512v3.807h3.374v2.556h-9.802v-2.556h1.458z" fill="#fff"/></g><g transform="translate(309.01 117.19)"><path d="m0 0h-34.389s-20.782-2.086-20.782 20.781v481.39s3.127 22.375 22.376 22.375h32.795" fill="none" stroke="#000"/></g><g transform="translate(256.96 164.67)"><path d="m0 0h17.048m-17.048 41.152h17.048m-18.056 328.3h17.048m-17.048 58.586h17.048m-52.698-98.397h10.547m-10.547 39.811h10.547m-10.547-97.463h10.547" fill="none" stroke="#000" stroke-width=".75"/></g></g><text transform="matrix(1 0 0 -1 264.29 287.04)" fill="#000000" font-family="Helvetica" font-size="9px"><tspan x="0 6.0029998 10.503 13.005 18.009001 23.013 27.513 29.511 34.514999 39.519001 42.021 47.025002 52.028999 57.033001 61.856998 63.855 68.859001" y="0">Extension enables</tspan><tspan x="0 5.0040002 8.1359997 10.134 14.409 19.413 22.41 24.912001 27.414 32.417999 34.919998 39.419998 44.424 49.428001 51.93 53.928001 55.925999 63.423 65.420998 67.922997" y="9.5039997">driver to see limits</tspan><tspan x="0 5.0040002 7.506 10.008 14.508 17.01 22.014 24.011999 26.01" y="19.007999">of stall.</tspan></text><g clip-path="url(#d)"><g transform="translate(209.44 333.92)"><path d="m0 0h-25.333v25.333h-12.667v-25.333h-25.333v-12.667h25.333v-25.333h12.667v25.333h25.333z" fill="none" stroke="#000"/></g><g transform="translate(184.1 286.57)"><path d="m0 0v7.624m-12.667 0v-7.624m26.003 3.699h-11.097" fill="none" stroke="#000" stroke-width=".75"/></g><g transform="translate(186.8 289.73)"><path d="m0 0c0.868-0.262 1.433-0.504 2.129-0.783v2.648c-0.25-0.118-1.261-0.521-2.129-0.783-0.929-0.28-1.771-0.473-2.317-0.541 0.546-0.068 1.388-0.261 2.317-0.541"/></g><g transform="translate(158.14 290.27)"><path d="m0 0h11.096" fill="none" stroke="#000" stroke-width=".75"/></g><g transform="translate(168.74 290.81)"><path d="m0 0c-0.868 0.262-1.432 0.504-2.129 0.783v-2.648c0.25 0.118 1.261 0.521 2.129 0.783 0.929 0.28 1.771 0.473 2.318 0.541-0.547 0.068-1.389 0.261-2.318 0.541"/></g></g><text transform="matrix(1 0 0 -1 152.04 276.96)" fill="#000000" font-family="Helvetica" font-size="9px"><tspan x="0 5.0040002 7.506 10.008 15.012 17.514 22.518 25.02 27.018 32.021999 36.521999 41.526001 46.529999" y="0">4 to 6 inches</tspan></text><g clip-path="url(#c)"><g transform="translate(147.7 358.39)"><path d="m0 0h21.379" fill="none" stroke="#000" stroke-width=".75"/></g><g transform="translate(168.74 358.93)"><path d="m0 0c-0.868 0.263-1.432 0.504-2.129 0.783v-2.648c0.25 0.118 1.261 0.521 2.129 0.783 0.929 0.28 1.771 0.473 2.318 0.541-0.547 0.069-1.389 0.261-2.318 0.541"/></g><g transform="translate(148.28 357.85)"><path d="m0 0c0.868-0.263 1.432-0.504 2.128-0.783v2.648c-0.249-0.118-1.26-0.521-2.128-0.783-0.929-0.28-1.772-0.473-2.318-0.541 0.546-0.068 1.389-0.261 2.318-0.541"/></g><g transform="translate(145.58 355.79)"><path d="m0 0v5.062" fill="none" stroke="#000" stroke-width=".75"/></g></g><text transform="matrix(1 0 0 -1 138.23 362.29)" fill="#000000" font-family="Helvetica" font-size="9px"><tspan x="0 5.0040002 10.008 12.51 14.508 19.511999 24.011999 29.016001 34.02" y="0">12 inches</tspan></text><g clip-path="url(#b)"><g transform="translate(263.59 292.94)"><path d="m0 0c-2.896 0.241-36.4 2.889-31.088-24.395" fill="none" stroke="#000" stroke-width=".75"/></g><g transform="translate(233.27 267.44)"><path d="m0 0c0.091 0.902 0.22 1.502 0.361 2.239l-2.599-0.507c0.164-0.221 0.752-1.137 1.176-1.939 0.453-0.858 0.802-1.648 0.974-2.171-0.038 0.549-0.01 1.412 0.088 2.378"/></g><g transform="translate(186.38 360.32)"><path d="m0 0 43.461 16.198" fill="none" stroke="#000" stroke-width=".75"/></g><g transform="translate(230.82 377.45)"><path d="m0 0c-0.904-0.058-1.517-0.028-2.267-0.01l0.925-2.482c0.192 0.199 0.999 0.929 1.72 1.479 0.773 0.586 1.495 1.06 1.984 1.315-0.536-0.127-1.393-0.241-2.362-0.302"/></g></g><text transform="matrix(1 0 0 -1 169.7 520.23)" fill="#000000" font-family="Helvetica" font-size="9px"><tspan x="0 5.0040002 10.008 12.51 15.012 17.514 20.016001 22.518 27.018 32.021999 34.02 38.52 43.523998" y="0">20 ft typical</tspan><tspan x="17.775 20.007 25.011 28.007999 30.51 35.514 40.518002" y="9.5039997">for end</tspan><tspan x="21.51 26.01 31.014 36.018002 40.518002" y="19.007999">space</tspan><tspan x="5.7779999 10.782 15.786 18.288 20.790001 25.794001 28.296 33.299999 38.304001 40.806 43.307999" y="57.186001">22 to 26 ft</tspan><tspan x="107.721 114.219" y="19.593">NO</tspan><tspan x="107.721 112.644 118.647 125.145 131.14799 133.64999 140.14799" y="29.097">PARKING</tspan><tspan x="107.721 113.22 120.222 126.72" y="38.601002">ZONE</tspan><tspan x="91.845001 96.848999 101.853 104.355 106.857 109.359 111.861 119.358 121.86 128.358 130.32001 132.82201 137.826 142.83" y="-49.544998">30 ft MIN. on </tspan><tspan x="91.845001 96.848999 101.853 106.857 109.854 114.858 119.862 124.362 129.366 131.868 134.37 139.37399 141.87601 146.37601 148.37399 153.37801 158.382 163.386" y="-40.041">approach to signal</tspan><tspan x="91.845001 96.848999 101.853 104.85 107.352 113.85 119.853" y="-30.537001">per UVC</tspan><tspan x="87.678001 92.681999 95.183998 97.685997" y="139.16701">8 ft</tspan><tspan x="102.168 108.666" y="278.87399">NO</tspan><tspan x="102.168 107.091 113.094 119.592 125.595 128.097 134.595" y="288.37799">PARKING</tspan><tspan x="102.168 107.667 114.669 121.167" y="297.88199">ZONE</tspan><tspan x="276.68701 283.185" y="265.13101">NO</tspan><tspan x="276.68701 281.60999 287.61301 294.11099 300.11401 302.616 309.11401" y="274.63501">PARKING</tspan><tspan x="276.68701 282.186 289.18799 295.686" y="284.13901">ZONE</tspan><tspan x="264.54599 269.54999 272.052 274.55399" y="64.601997">8 ft</tspan><tspan x="276.36301 282.86099" y="16.857">NO</tspan><tspan x="276.36301 281.28601 287.289 293.78699 299.79001 302.29199 308.79001" y="26.361">PARKING</tspan><tspan x="276.36301 281.862 288.86401 295.362" y="35.865002">ZONE</tspan><tspan x="286.452 291.45599 296.45999 298.96201 301.46399 303.966 306.46799 313.965 316.46701 322.965" y="-57.123001">20 ft MIN.</tspan><tspan x="286.452 288.95401 291.95099 296.95499 304.452 306.95401 311.95801 316.96201 324.45901 329.46301 332.595 336.91501 341.91901" y="-47.618999">from unmarked</tspan><tspan x="286.452 290.952 293.94901 298.953 303.453 307.68301 314.04599 319.04999 321.048" y="-38.115002">crosswalk</tspan><tspan x="286.452 289.44901 293.94901 298.953 303.957 306.45901 312.957 318.95999 325.45801 327.95999 333.96301 338.96701 343.46701 345.96899 347.96701 352.97101 357.97501" y="-28.611">(see UVC Sections</tspan><tspan x="286.452 291.45599 294.453 299.457 304.461 309.465 311.96701 316.97101 321.97501 326.979 329.48099 334.48499 339.48901 342.48599 347.48999 352.49399 357.49799 362.50201" y="-19.107">1-118 and 11-1003)</tspan><tspan x="283.923 289.92599 291.92401 296.92801 301.75201 308.11499 313.11899 315.117" y="-107.01">Sidewalk</tspan></text><g clip-path="url(#a)"><g transform="translate(456.31 615.61)"><path d="m0 0 6.043 9.774" fill="none" stroke="#000" stroke-width=".75"/></g><g transform="translate(456.14 614.27)"><path d="m0 0c0.67 0.61 1.167 0.971 1.763 1.425l-2.273 1.358c-0.026-0.274-0.199-1.349-0.419-2.229-0.236-0.941-0.503-1.762-0.725-2.266 0.339 0.433 0.936 1.058 1.654 1.712"/></g><g transform="translate(441.73 579.4)"><path d="m0 0 13.061 7e-3" fill="none" stroke="#000" stroke-width=".75"/></g><g transform="translate(441.02 578.87)"><path d="m0 0c0.869-0.262 1.432-0.503 2.129-0.783l-2e-3 2.649c-0.249-0.119-1.259-0.522-2.128-0.784-0.928-0.281-1.771-0.474-2.317-0.543 0.546-0.068 1.389-0.259 2.318-0.539"/></g><g transform="translate(55.305 392.01)"><path d="m0 0h9.802" fill="none" stroke="#000" stroke-width=".75"/></g><g transform="translate(65.355 392.55)"><path d="m0 0c-0.868 0.262-1.432 0.504-2.128 0.784v-2.649c0.249 0.118 1.26 0.522 2.128 0.783 0.929 0.281 1.771 0.473 2.318 0.541-0.547 0.069-1.389 0.261-2.318 0.541"/></g><g transform="translate(55.508 391.47)"><path d="m0 0c0.868-0.262 1.432-0.504 2.128-0.783v2.648c-0.249-0.118-1.26-0.521-2.128-0.783-0.929-0.28-1.771-0.472-2.318-0.541 0.547-0.068 1.389-0.261 2.318-0.541"/></g><g transform="translate(242.11 383.23)"><path d="m0 0h8.502" fill="none" stroke="#000" stroke-width=".75"/></g><g transform="translate(251.18 383.76)"><path d="m0 0c-0.868 0.262-1.432 0.504-2.129 0.783v-2.648c0.25 0.118 1.261 0.521 2.129 0.783 0.929 0.28 1.771 0.473 2.318 0.541-0.547 0.069-1.389 0.261-2.318 0.541"/></g><g transform="translate(241.54 382.69)"><path d="m0 0c0.868-0.262 1.433-0.504 2.129-0.783v2.648c-0.25-0.118-1.261-0.521-2.129-0.783-0.929-0.28-1.771-0.473-2.317-0.541 0.546-0.068 1.388-0.261 2.317-0.541"/></g></g></g></svg>
