<?xml version="1.0" encoding="UTF-8"?>
<svg width="527.59" height="892.86" version="1.1" viewBox="0 0 527.59 892.86" xml:space="preserve" xmlns="http://www.w3.org/2000/svg"><defs><clipPath id="d"><path d="m62.625 33.446h513.62v708.6h-513.62z"/></clipPath><clipPath id="c"><path d="m62.625 33.446h513.62v708.6h-513.62z"/></clipPath><clipPath id="b"><path d="m62.625 33.446h513.62v708.6h-513.62z"/></clipPath><clipPath id="a"><path d="m62.625 33.446h513.62v708.6h-513.62z"/></clipPath></defs><g transform="matrix(1.3333 0 0 -1.3333 -233.74 950.51)"><g transform="translate(478.89 676.31)"><path d="m0 0h6.354v1.559l4.377-2.577-4.377-2.398v1.44h-6.354z"/></g><g transform="translate(500.37 684.82)"><path d="m0 0h29.291" fill="none" stroke="#000" stroke-width=".75"/></g><text transform="matrix(1 0 0 -1 499.9 687.77)" fill="#000000" font-family="Helvetica" font-size="9px"><tspan x="0 5.0040002 10.008 15.012 20.016001 25.02" y="0">Legend</tspan><tspan x="-7.2449999 -0.74699998 1.251 4.2480001 9.2519999 13.752 16.254 18.252001 23.256001 28.26 30.761999 35.765999 38.268002 40.77 43.271999 46.179001 51.002998 55.278 60.282001" y="15.354">Direction of travel</tspan><tspan x="-98.757004 -92.259003 -87.254997 -84.752998 -79.749001 -75.249001" y="68.183998">Notes:</tspan><tspan x="-98.757004 -93.599998 -88.596001 -86.634003 -80.757004 -74.753998 -69.75 -64.746002 -62.243999 -56.241001 -51.237 -46.737 -44.235001 -42.237 -37.233002 -32.229 -29.726999 -24.723 -18.9 -16.398001 -11.394 -6.3899999 -3.888 -1.656 3.348 6.3449998 8.8470001 13.851 18.855 21.357 26.361 29.583 37.080002 39.077999 44.082001 46.080002 51.084 56.088001 58.59 61.091999 66.096001 71.099998" y="81.18"> 1. See Section 3B.02 for determining the </tspan><tspan x="-80.757004 -73.260002 -71.262001 -66.258003 -64.260002 -56.763 -51.758999 -44.262001 -41.759998 -39.762001 -34.757999 -29.754 -24.75 -22.247999 -17.243999 -14.742 -9.7379999 -7.2360001 -4.7340002 -2.2320001 2.7720001 7.776 10.278 15.012 20.016001 22.518 24.75 29.754 32.750999 35.252998 39.618 44.622002 49.625999" y="91.179001">minimum length of the buffer zone</tspan><tspan x="-98.765999 -93.609001 -88.605003 -86.642998 -80.765999 -75.762001 -70.758003 -65.753998 -60.75 -57.752998 -54.756001 -49.751999 -44.748001 -39.743999 -35.243999 -32.742001 -30.743999 -25.74 -20.736 -18.233999 -13.23 -10.233 -7.2360001 -2.3670001 4.131 8.6309996 11.133 16.136999 19.134001 24.138 26.639999 31.643999 36.647999 39.150002 41.147999 46.152 51.155998 56.16 58.158001 60.66 62.891998 67.896004 70.892998" y="104.175"> 2. Lane-reduction arrows are optional for </tspan><tspan x="-80.765999 -76.265999 -71.262001 -66.258003 -61.254002 -56.25 -51.75 -49.248001 -44.243999 -41.742001 -39.240002 -34.236 -29.232 -26.73 -19.233 -14.229 -9.2250004 -6.723 -1.719 1.278 3.78 5.7779999 10.782 15.282" y="114.174">speeds of 40 mph or less</tspan><tspan x="-98.765999 -93.609001 -88.605003 -86.642998 -80.765999 -74.763 -69.759003 -64.754997 -62.252998 -56.754002 -54.756001 -49.751999 -44.748001 -41.750999 -36.747002 -34.244999 -29.240999 -23.238001 -20.240999 -15.237 -10.233 -7.7309999 -5.4990001 -0.495 2.5020001 5.0040002 7.0019999 12.006 17.01 22.014 25.011 28.007999 33.012001 38.015999 43.02 47.52 50.021999 52.02 57.023998 62.028" y="127.17"> 3. See Figure 3B-14 for lane-reduction </tspan><tspan x="-80.765999 -78.264 -75.266998 -70.263 -65.259003 -60.758999 -58.761002 -56.258999 -54.261002 -49.257 -44.252998 -41.750999 -34.254002 -29.25 -26.208 -21.708 -19.709999 -14.706 -9.7019997 -5.2020001 -2.7 2.3039999 7.3080001 12.312 14.814 19.818001 24.822001 27.323999 32.327999 35.549999 43.047001 45.044998 50.049 55.053001 57.555 59.553001 64.556999 69.560997" y="137.16901">transition markings and determination </tspan><tspan x="-80.765999 -75.762001 -73.260002 -70.758003 -68.255997 -63.251999 -58.248001 -53.243999 -50.247002 -47.744999 -45.747002 -40.743 -35.738998 -30.735001 -28.233 -23.229 -20.726999" y="147.168">of taper length L</tspan></text><g transform="translate(295.33 700.75)"><path d="m0 0v-657.52h70.827v657.52" fill="#b1b4b6"/></g><g transform="translate(325.94 510.27)"><path d="m0 0-1.402-7.059 15.802 15.903-4e-3 5.654z" fill="#ffd24f"/></g><g transform="translate(321.42 448.15)"><path d="m0 0 0.017-5.638 18.904 19.005-4e-3 5.654z" fill="#ffd24f"/></g><g transform="translate(321.42 390.55)"><path d="m0 0 0.017-5.639 18.904 19.005-4e-3 5.654z" fill="#ffd24f"/></g><g transform="translate(321.42 332.95)"><path d="m0 0 0.017-5.638 18.904 19.004-4e-3 5.654z" fill="#ffd24f"/></g><g transform="translate(321.42 275.35)"><path d="m0 0 0.017-5.639 18.904 19.005-4e-3 5.653z" fill="#ffd24f"/></g><g transform="translate(321.42 217.75)"><path d="m0 0 0.017-5.639 18.904 19.005-4e-3 5.654z" fill="#ffd24f"/></g><g transform="translate(362.66 700.91)"><path d="m0 0v-657.87m-63.977 657.87v-657.71" fill="none" stroke="#fff" stroke-width="2"/></g><g transform="translate(379.19 323.34)"><path d="m0 0h33.381z" fill="#fff"/></g><g transform="translate(379.19 323.34)"><path d="m0 0h33.381" fill="none" stroke="#000" stroke-width=".75"/></g><g transform="translate(367.98 485.72)"><path d="m0 0h44.583z" fill="#fff"/></g><g transform="translate(367.98 485.72)"><path d="m0 0h44.584" fill="none" stroke="#000" stroke-width=".75"/></g><g transform="translate(379.19 394.55)"><path d="m0 0h49.768z" fill="#fff"/></g><g transform="translate(379.19 394.55)"><path d="m0 0h49.768" fill="none" stroke="#000" stroke-width=".75"/></g><g transform="translate(367.98 231.19)"><path d="m0 0h62.117z" fill="#fff"/></g><g transform="translate(367.98 231.19)"><path d="m0 0h62.117" fill="none" stroke="#000" stroke-width=".75"/></g><g transform="translate(319.63 684.26)"><path d="m0 0v28.622" fill="none" stroke="#fff" stroke-dasharray="10, 30" stroke-width="2"/></g><g transform="translate(318.1 485.72)"><path d="m0 0v-442.12m25.28 565.49v91.817m-3 0v-91.818l-22.28-123.37m3.001-441.86v71.798l22.279 115.54v377.9" fill="none" stroke="#ffd24f" stroke-width="2"/></g><g transform="translate(321.05 485.18)"><path d="m0 0 19.328 107.11v-360.54l-19.279-100.36v354.32" fill="none" stroke="#ffd24f" stroke-miterlimit="12" stroke-width="2"/></g><g transform="translate(295.33 699.75)"><path d="m0 0v-656.03m70.827 0v656.03" fill="none" stroke="#000"/></g><g transform="translate(295.27 394.55)"><path d="m0 0h77.6m-77.6 91.168h67.6" fill="none" stroke="#000" stroke-dasharray="4, 4" stroke-width=".75"/></g><g transform="translate(375.85 235.12)"><path d="m0 0v115.32z" fill="#fff"/></g><g transform="translate(375.85 350.44)"><path d="m0 0v-115.32" fill="none" stroke="#000" stroke-width=".75"/></g><g clip-path="url(#d)"><g transform="translate(376.39 233.88)"><path d="m0 0c0.262 0.868 0.504 1.432 0.783 2.129h-2.648c0.117-0.249 0.521-1.261 0.783-2.129 0.279-0.929 0.473-1.772 0.541-2.318 0.069 0.546 0.26 1.389 0.541 2.318"/></g><g transform="translate(375.85 482.34)"><path d="m0 0v-108.23" fill="#fff" stroke="#000" stroke-width=".75"/></g><g transform="translate(375.31 483.02)"><path d="m0 0c-0.264-0.868-0.504-1.432-0.783-2.128h2.648c-0.119 0.249-0.521 1.26-0.783 2.128-0.281 0.929-0.473 1.771-0.541 2.318-0.068-0.547-0.262-1.389-0.541-2.318"/></g><g transform="translate(422.22 390.61)"><path d="m0 0v-103.59" fill="#fff" stroke="#000" stroke-width=".75"/></g><g transform="translate(421.68 391.85)"><path d="m0 0c-0.261-0.868-0.504-1.432-0.783-2.128h2.648c-0.117 0.249-0.521 1.26-0.783 2.128-0.279 0.929-0.472 1.772-0.541 2.318-0.068-0.546-0.26-1.389-0.541-2.318"/></g><g transform="translate(405.89 482.34)"><path d="m0 0v-12.7" fill="#fff" stroke="#000" stroke-width=".75"/></g><g transform="translate(405.35 483.02)"><path d="m0 0c-0.262-0.868-0.504-1.432-0.783-2.128h2.648c-0.117 0.249-0.521 1.26-0.783 2.128-0.279 0.929-0.473 1.771-0.541 2.318-0.068-0.547-0.26-1.389-0.541-2.318"/></g><g transform="translate(405.89 438.94)"><path d="m0 0v-111.67" fill="#fff" stroke="#000" stroke-width=".75"/></g><g transform="translate(406.43 326.03)"><path d="m0 0c0.264 0.868 0.504 1.433 0.783 2.129h-2.648c0.119-0.249 0.522-1.261 0.783-2.129 0.282-0.928 0.473-1.771 0.541-2.317 0.069 0.546 0.262 1.389 0.541 2.317"/></g><g transform="translate(422.22 253.87)"><path d="m0 0v-18.748" fill="#fff" stroke="#000" stroke-width=".75"/></g><g transform="translate(422.75 233.88)"><path d="m0 0c0.264 0.868 0.504 1.432 0.784 2.129h-2.649c0.119-0.249 0.522-1.261 0.783-2.129 0.282-0.929 0.473-1.772 0.541-2.318 0.069 0.546 0.262 1.389 0.541 2.318"/></g><g transform="translate(309.39 364.02)"><path d="m0 0v-6.354h1.559l-2.576-4.377-2.399 4.377h1.44v6.354z"/></g><g transform="translate(353.95 353.29)"><path d="m0 0v6.354h1.558l-2.576 4.377-2.398-4.377h1.439v-6.354z"/></g><g transform="translate(348.65 277.94)"><path d="m0 0c0.564 3.596 0.027 8.538 0.035 9.344 0.01 1.152 0.512 3.586 0.922 3.99 0.408 0.406 1.299 0 1.299 0s1.793 0.198 2.111 0.198c0.201 0 1.998-0.198 1.998-0.198s1.127 0.322 1.463 0c0.375-0.321 0.887-2.462 0.891-4.17 4e-3 -1.15-0.424-6.919 2e-3 -9.127 0.07-2.242-2e-3 -3.666-2e-3 -4.322-0.106-2.706-8.608-2.691-8.684 0-0.023 0.809-0.029 2.078-0.035 4.285" fill="#fff"/><path d="m0 0c0.564 3.596 0.027 8.538 0.035 9.344 0.01 1.152 0.512 3.586 0.922 3.99 0.408 0.406 1.299 0 1.299 0s1.793 0.198 2.111 0.198c0.201 0 1.998-0.198 1.998-0.198s1.127 0.322 1.463 0c0.375-0.321 0.887-2.462 0.891-4.17 4e-3 -1.15-0.424-6.919 2e-3 -9.127 0.07-2.242-2e-3 -3.666-2e-3 -4.322-0.106-2.706-8.608-2.691-8.684 0-0.023 0.809-0.029 2.078-0.035 4.285z" fill="none" stroke="#000" stroke-width=".47"/></g><g transform="translate(350.63 276.76)"><path d="m0 0c1.703-0.013 2.58-0.018 4.971 0 1.547-0.013-0.363-2.675-2.359-2.675-1.998 0-4.315 2.687-2.612 2.675"/><path d="m0 0c1.703-0.013 2.58-0.018 4.971 0 1.547-0.013-0.363-2.675-2.359-2.675-1.998 0-4.315 2.687-2.612 2.675z" fill="none" stroke="#000" stroke-width=".47"/></g><g transform="translate(355.44 282.7)"><path d="m0 0h0.641v-4.652l-0.641 0.498z"/><path d="m0 0h0.641v-4.652l-0.641 0.498z" fill="none" stroke="#000" stroke-width=".47"/></g><g transform="translate(349.93 282.62)"><path d="m0 0h0.639l-6e-3 -4.106-0.633-0.549z"/><path d="m0 0h0.639l-6e-3 -4.106-0.633-0.549z" fill="none" stroke="#000" stroke-width=".47"/></g><g transform="translate(351.43 286.06)"><path d="m0 0c0.801 0.249 1.867 0.249 3.186 0 1.316-0.249 1.726-3.279 1.726-3.279h-6.652s0.156 2.763 1.74 3.279"/></g><g transform="translate(349.43 283.74)"><path d="m0 0 0.256 0.239 1.76-1.902-0.258-0.237z" fill="#fff"/></g><g transform="translate(354.59 282.13)"><path d="m0 0 0.256-0.236 1.764 1.9-0.258 0.237z" fill="#fff"/></g><g transform="translate(312.83 437.7)"><path d="m0 0c-0.563-3.595-0.027-8.537-0.034-9.343-9e-3 -1.152-0.511-3.586-0.921-3.991-0.409-0.404-1.298 0-1.298 0s-1.794-0.197-2.114-0.197c-0.2 0-1.997 0.197-1.997 0.197s-1.125-0.321-1.459 0c-0.374 0.322-0.885 2.463-0.889 4.17-3e-3 1.151 0.423 6.921-1e-3 9.127-0.071 2.242 1e-3 3.668 1e-3 4.322 0.106 2.706 8.603 2.693 8.678 0 0.023-0.807 0.03-2.078 0.034-4.285" fill="#fff"/><path d="m0 0c-0.563-3.595-0.027-8.537-0.034-9.343-9e-3 -1.152-0.511-3.586-0.921-3.991-0.409-0.404-1.298 0-1.298 0s-1.794-0.197-2.114-0.197c-0.2 0-1.997 0.197-1.997 0.197s-1.125-0.321-1.459 0c-0.374 0.322-0.885 2.463-0.889 4.17-3e-3 1.151 0.423 6.921-1e-3 9.127-0.071 2.242 1e-3 3.668 1e-3 4.322 0.106 2.706 8.603 2.693 8.678 0 0.023-0.807 0.03-2.078 0.034-4.285z" fill="none" stroke="#000" stroke-width=".47"/></g><g transform="translate(310.85 438.88)"><path d="m0 0c-1.703 0.013-2.58 0.017-4.97 0-1.543 0.013 0.363 2.675 2.359 2.675 1.997 0 4.314-2.687 2.611-2.675"/><path d="m0 0c-1.703 0.013-2.58 0.017-4.97 0-1.543 0.013 0.363 2.675 2.359 2.675 1.997 0 4.314-2.687 2.611-2.675z" fill="none" stroke="#000" stroke-width=".47"/></g><g transform="translate(306.04 432.94)"><path d="m0 0h-0.639v4.652l0.639-0.498z"/><path d="m0 0h-0.639v4.652l0.639-0.498z" fill="none" stroke="#000" stroke-width=".47"/></g><g transform="translate(311.55 433.02)"><path d="m0 0h-0.639l6e-3 4.106 0.633 0.549z"/><path d="m0 0h-0.639l6e-3 4.106 0.633 0.549z" fill="none" stroke="#000" stroke-width=".47"/></g><g transform="translate(310.05 429.58)"><path d="m0 0c-0.8-0.249-1.869-0.249-3.185 0-1.317 0.249-1.726 3.279-1.726 3.279h6.651s-0.156-2.763-1.74-3.279"/></g><g transform="translate(312.05 431.9)"><path d="m0 0-0.257-0.237-1.757 1.901 0.255 0.237z" fill="#fff"/></g><g transform="translate(306.89 433.51)"><path d="m0 0-0.256 0.237-1.759-1.901 0.256-0.237z" fill="#fff"/></g></g><text transform="matrix(1 0 0 -1 248.46 286.68)" fill="#000000" font-family="Helvetica" font-size="9px"><tspan x="0 6.408 11.322 14.229 16.371 19.278 25.191" y="0">Car “X”</tspan><tspan x="0 6.408 11.322 14.229 16.371 19.278 25.191" y="-137.53799">Car “Y”</tspan><tspan x="-35.811001 -31.482 -25.164 -20.25 -17.837999 -12.924 -11.016 -8.1090002 -3.1949999 1.215 3.6270001 5.5349998 10.449 15.363 20.277 22.184999 24.597 29.511 34.424999" y="-267.957">Two directional no-</tspan><tspan x="-35.811001 -33.398998 -28.485001 -23.570999 -19.160999 -14.751 -12.843 -7.9289999 -3.0150001 -0.60299999 6.8039999 11.718 14.76 19.17 21.077999 25.992001" y="-257.95801"> passing marking</tspan><tspan x="-35.811001 -31.482 -25.164 -20.25 -17.837999 -12.924 -11.016 -8.1090002 -3.1949999 1.215 3.6270001 5.5349998 10.449 15.363 20.277 22.184999 24.597 29.511 34.424999" y="117.108">Two directional no-</tspan><tspan x="-35.811001 -33.398998 -28.485001 -23.570999 -19.160999 -14.751 -12.843 -7.9289999 -3.0150001 -0.60299999 6.8039999 11.718 14.76 19.17 21.077999 25.992001" y="127.107"> passing marking</tspan></text><g clip-path="url(#c)"><g transform="translate(366.07 116.47)"><path d="m0 0h18.884" fill="#fff" stroke="#000" stroke-width=".75"/></g></g><text transform="matrix(1 0 0 -1 392.34 461.87)" fill="#000000" font-family="Helvetica" font-size="9px"><tspan x="0 5.4990001 10.503 15.507 20.511 23.013 28.017 30.518999 33.021 35.019001 37.016998 44.514 46.512001 49.014 54.018002" y="0">Zone of limited</tspan><tspan x="0 4.5 6.4980001 11.502 16.506001 19.007999 21.51 26.514 28.511999 33.012001 35.514 40.518002 45.521999 50.021999 54.890999" y="9.9989996">sight distance,</tspan><tspan x="0 6.4980001 11.502 14.499 16.731001 19.728001 25.731001" y="19.997999">Car “Y”</tspan><tspan x="-19.611 -13.608 -8.6040001 -6.1020002 -3.8699999 1.1339999" y="97.695">Buffer</tspan><tspan x="-19.611 -15.246 -10.242 -5.2379999" y="107.694">zone</tspan><tspan x="12.636 18.135 23.139 28.143 33.146999 35.648998 40.653 43.154999 45.657001 47.654999 49.653 57.150002 59.147999 61.650002 66.653999" y="184.62601">Zone of limited</tspan><tspan x="12.636 17.136 19.134001 24.138 29.142 31.643999 34.146 39.150002 41.147999 45.647999 48.150002 53.153999 58.158001 62.658001 67.527" y="194.625">sight distance,</tspan><tspan x="12.636 19.134001 24.138 27.135 29.367001 32.363998 38.367001" y="204.62399">Car “X”</tspan><tspan x="-5.5079999 -2.5109999 1.989 6.993 11.997 14.499 20.997 26.000999 28.503 33.507 36.008999 41.013" y="294.27301">(see Note 3)</tspan></text><g clip-path="url(#b)"><g transform="translate(375.78 227.26)"><path d="m0 0v-106.86" fill="#fff" stroke="#000" stroke-width=".75"/></g><g transform="translate(376.31 119.16)"><path d="m0 0c0.264 0.868 0.504 1.433 0.783 2.129h-2.648c0.119-0.249 0.521-1.261 0.783-2.129 0.281-0.929 0.473-1.771 0.541-2.317 0.068 0.546 0.262 1.388 0.541 2.317"/></g><g transform="translate(375.24 228.5)"><path d="m0 0c-0.262-0.868-0.504-1.433-0.783-2.129h2.648c-0.117 0.249-0.521 1.261-0.783 2.129-0.279 0.929-0.473 1.772-0.541 2.317-0.069-0.545-0.26-1.388-0.541-2.317"/></g><path d="m380.07 167.2h-7.912v7.914h7.912z" fill="#fff"/><g transform="translate(375.22 168.87)"><path d="m0 0h3.119v-0.737h-3.951v6.152h0.832z"/></g><g transform="translate(316.7 193.11)"><path d="m0 0-30.584-25.983 43.348 15.374" fill="none" stroke="#000" stroke-miterlimit="12" stroke-width=".75"/></g><g transform="translate(330.45 183.42)"><path d="m0 0c-0.907-0.043-1.518-4e-3 -2.268 0.026l0.885-2.496c0.195 0.196 1.014 0.912 1.744 1.449 0.781 0.576 1.512 1.039 2.004 1.286-0.537-0.119-1.397-0.219-2.365-0.265"/></g><g transform="translate(317.29 194.32)"><path d="m0 0c-0.83-0.363-1.417-0.545-2.127-0.784l1.716-2.016c0.114 0.251 0.622 1.213 1.114 1.976 0.525 0.816 1.042 1.508 1.414 1.914-0.46-0.302-1.227-0.701-2.117-1.09"/></g><g transform="translate(295.27 231.19)"><path d="m0 0h67.6" fill="none" stroke="#000" stroke-dasharray="4, 4" stroke-width=".75"/></g><g transform="translate(277.59 288.62)"><path d="m0 0 71.117 0.164" fill="none" stroke="#000" stroke-miterlimit="12" stroke-width=".75"/></g><g transform="translate(348.59 289.3)"><path d="m0 0c-0.826 0.247-1.365 0.476-2.027 0.74l6e-3 -2.521c0.236 0.113 1.199 0.499 2.025 0.75 0.883 0.269 1.686 0.454 2.205 0.52-0.519 0.065-1.322 0.245-2.209 0.511"/></g><g transform="translate(295.27 323.34)"><path d="m0 0h77.6" fill="none" stroke="#000" stroke-dasharray="4, 4" stroke-width=".75"/></g><g transform="translate(277.1 426.76)"><path d="m0 0 26.468 0.179" fill="none" stroke="#000" stroke-miterlimit="12" stroke-width=".75"/></g><g transform="translate(304.54 427.46)"><path d="m0 0c-0.87 0.257-1.435 0.495-2.132 0.77l0.014-2.648c0.249 0.12 1.258 0.529 2.124 0.796 0.928 0.285 1.769 0.483 2.315 0.554-0.547 0.065-1.39 0.252-2.321 0.528"/></g><g transform="translate(338.26 537.72)"><path d="m0 0-52.141 14.102 45.001 15.991" fill="none" stroke="#000" stroke-miterlimit="12" stroke-width=".75"/></g><g transform="translate(332.11 568.73)"><path d="m0 0c-0.906-0.043-1.52-4e-3 -2.269 0.027l0.886-2.496c0.195 0.195 1.014 0.913 1.744 1.45 0.782 0.575 1.512 1.037 2.002 1.285-0.537-0.119-1.394-0.219-2.363-0.266"/></g><g transform="translate(339.59 537.91)"><path d="m0 0c-0.767 0.482-1.248 0.863-1.845 1.317l-0.7-2.556c0.272 0.049 1.354 0.171 2.26 0.195 0.971 0.027 1.834-0.01 2.379-0.088-0.51 0.21-1.271 0.617-2.094 1.132"/></g></g><text transform="matrix(1 0 0 -1 174.87 225.89)" fill="#000000" font-family="Helvetica" font-size="9px"><tspan x="0 6.9120002 11.826 14.238 16.146 21.059999 25.974001 30.888 32.796001 35.208 39.438 44.352001 46.259998 48.167999 52.946999 59.355 61.766998 66.681 68.588997 73.502998 78.417 83.331001 88.245003 93.158997" y="0">Optional yellow diagonal</tspan><tspan x="14.121 18.531 21.438 26.351999 30.761999 35.172001 40.085999 45 47.411999 51.821999 56.736 59.147999 66.555 71.469002 74.511002 78.920998 80.829002 85.742996 90.656998" y="10.8">crosshatch markings</tspan></text><g clip-path="url(#a)"><g transform="translate(271.73 223.35)"><path d="m0 0 54.105 0.157" fill="none" stroke="#000" stroke-miterlimit="12" stroke-width=".75"/></g><g transform="translate(327.07 224.05)"><path d="m0 0c-0.869 0.26-1.434 0.499-2.131 0.776l8e-3 -2.648c0.248 0.119 1.257 0.525 2.126 0.79 0.928 0.283 1.77 0.477 2.315 0.548-0.546 0.066-1.389 0.255-2.318 0.534"/></g><path d="m377.38 33.446h-88.422v21.316h88.422z" fill="#fff"/><path d="m368.86 699.75h-75.378v2.312h75.378z" fill="#fff" fill-rule="evenodd"/><g transform="translate(336.57 91.14)"><path d="m0 0-3.153-19.438-0.279 6.199-4.369-11.509-1.537 3.578 4.207 11.386-1.192 3.694z" fill="#fff" fill-rule="evenodd"/></g><g transform="translate(324.69 636.12)"><path d="m0 0 3.152 19.438 0.28-6.199 4.369 11.509 1.537-3.578-4.207-11.387 1.191-3.693z" fill="#fff" fill-rule="evenodd"/></g><g transform="translate(287.37 632.33)"><path d="m0 0 27.484-11.338 20.045 9.305 42.121-18.145-0.986-8.763-42.121 18.144-20.047-9.304-27.485 11.336z" fill="#fff"/><path d="m0 0 27.484-11.338 20.045 9.305 42.121-18.145-0.986-8.763-42.121 18.144-20.047-9.304-27.485 11.336z" fill="none" stroke="#000"/></g><g transform="translate(376.04 617.46)"><path d="m0 0 7.449-2.963-6.035-14.635-7.451 2.965z" fill="#fff"/></g><g transform="translate(291.85 632.98)"><path d="m0 0-14.9 5.927-6.371-15.445 14.9-5.93z" fill="#fff"/></g><g transform="translate(287.37 116.54)"><path d="m0 0 27.484-11.338 20.045 9.305 42.121-18.145-0.986-8.763-42.121 18.144-20.047-9.305-27.485 11.336z" fill="#fff"/><path d="m0 0 27.484-11.338 20.045 9.305 42.121-18.145-0.986-8.763-42.121 18.144-20.047-9.305-27.485 11.336z" fill="none" stroke="#000"/></g><g transform="translate(376.04 101.68)"><path d="m0 0 7.449-2.963-6.035-14.635-7.451 2.965z" fill="#fff"/></g><g transform="translate(291.85 117.19)"><path d="m0 0-14.9 5.928-6.371-15.445 14.9-5.93z" fill="#fff"/></g></g></g></svg>
