<?xml version="1.0" encoding="UTF-8"?>
<svg width="661.8" height="736.21" version="1.1" viewBox="0 0 661.8 736.21" xml:space="preserve" xmlns="http://www.w3.org/2000/svg"><defs><clipPath id="h"><path d="m62.625 45h513.38v692.75h-513.38z"/></clipPath><clipPath id="g"><path d="m62.625 45h513.38v692.75h-513.38z"/></clipPath><clipPath id="f"><path d="m62.625 45h513.38v692.75h-513.38z"/></clipPath><clipPath id="e"><path d="m62.625 45h513.38v692.75h-513.38z"/></clipPath><clipPath id="d"><path d="m62.625 45h513.38v692.75h-513.38z"/></clipPath><clipPath id="c"><path d="m62.625 45h513.38v692.75h-513.38z"/></clipPath><clipPath id="b"><path d="m62.625 45h513.38v692.75h-513.38z"/></clipPath><clipPath id="a"><path d="m62.625 45h513.38v692.75h-513.38z"/></clipPath></defs><g transform="matrix(1.3333 0 0 -1.3333 -93.183 953.81)"><g fill="#000000" font-family="Helvetica"><g><text transform="matrix(1 0 0 -1 409.32 659.25)" font-size="9px"><tspan x="0 6.4980001 11.502 14.004 19.007999 23.507999" y="0">Notes:</tspan><tspan x="0 5.1479998 10.152 12.114 17.990999 22.995001 27.999001 33.002998 38.007 41.004002 44.000999 49.005001 54.008999 59.013 63.513 66.014999 68.013 73.016998 78.021004 80.523003 85.527 88.524002 91.521004 96.389999 102.888 107.388 109.89 114.894 117.891 122.895 125.397 130.401 135.405 137.907 139.905 144.909 149.91299 154.91701 156.91499" y="12.996"> 1. Lane-reduction arrows are optional </tspan><tspan x="18 20.232 25.236 28.233 30.735001 35.235001 40.238998 45.243 50.247002 55.250999 59.750999 62.252998 67.257004 69.759003 72.261002 74.259003 79.263 83.763 88.263 90.764999 93.266998 98.271004 103.275 108.279 110.781 115.785 120.789 123.291 130.78799 135.79201" y="22.995001">for speeds of less than 45 mph</tspan><tspan x="0 5.1479998 10.152 12.114 17.990999 23.993999 28.997999 34.001999 36.504002 42.507 47.511002 52.011002 54.513 56.511002 61.514999 66.518997 69.021004 74.025002 78.174004 80.676003 85.68 90.683998 93.185997 95.417999 100.422 103.419 105.921 110.925 115.929 117.927 119.925 124.929 129.933 134.937 137.439 142.44299 145.44" y="35.991001"> 2. See Section 3F.04 for delineator </tspan><tspan x="17.990999 22.490999 27.495001 32.499001 36.999001 38.997002 44.000999" y="45.990002">spacing</tspan><tspan x="-0.0089999996 5.1389999 10.143 12.105 17.982 22.986 25.488001 30.743999 32.886002 41.382 47.384998 49.887001 52.118999 57.123001 60.119999 62.622002 67.122002 72.125999 77.129997 82.134003 87.138 91.638 94.139999 99.143997 101.646 104.148 109.152 114.156 116.658 124.155 129.159 134.16299 136.66499 141.66901 144.666" y="58.986"> 3. L = WS for speeds of 45 mph or </tspan><tspan x="17.982 22.986 25.983 30.987 35.991001 38.493 43.497002 46.493999 48.995998 54 59.004002 64.008003 66.510002 71.514 74.015999 79.272003 81.323997 89.82" y="68.985001">greater and L = WS</tspan></text><text transform="matrix(1 0 0 -1 505.16 594.75)" font-size="5px"><tspan x="0" y="0">2</tspan></text><text transform="matrix(1 0 0 -1 507.94 590.25)" font-size="9px"><tspan x="0 2.5020001 7.506 12.51 15.012 17.243999 22.247999 25.245001 27.747 32.247002 37.250999 42.255001 47.258999 52.263" y="0">/60 for speeds</tspan><tspan x="-80.622002 -75.617996 -73.115997 -70.613998 -68.615997 -63.612 -59.112 -54.612 -52.110001 -49.608002 -44.604 -39.599998 -34.596001 -32.094002 -27.09 -22.086 -19.584 -12.087 -7.0830002 -2.079 0.42300001 2.925 9.4230003 14.427 19.431 22.427999 27.431999" y="9.9989996">of less than 45 mph, where:</tspan><tspan x="-98.630997 -71.901001 -66.897003 -62.271 -57.014999 -53.712002 -48.708 -43.703999 -38.700001 -33.695999 -31.194 -26.190001 -23.688 -18.684 -16.181999 -13.68 -11.178 -6.1739998 -1.17 3.8340001 6.8309999 9.3330002 11.331 16.334999 18.837 21.069 26.073 31.077" y="22.995001"> L = Length of taper in feet</tspan><tspan x="-98.630997 -71.901001 -65.898003 -62.271 -57.014999 -53.712002 -48.159 -43.154999 -38.654999 -36.153 -31.149 -26.145 -23.643 -21.141001 -16.136999 -11.133 -8.6309996 -3.6270001 -0.63 4.3740001 9.3780003 12.375 16.875 21.879 26.882999 29.385 31.382999 33.381001 38.25 40.751999 43.254002 48.257999 51.255001" y="32.993999"> S = Posted, 85th-percentile, or </tspan><tspan x="-53.712002 -49.212002 -46.709999 -41.706001 -39.203999 -34.200001 -31.698 -26.694 -23.427 -18.927 -16.424999 -11.925 -6.921 -1.9170001 3.0869999 8.0909996 10.593 12.591 17.594999 20.097 27.594 32.598" y="42.993">statutory speed in mph</tspan><tspan x="-98.622002 -71.891998 -63.396 -62.262001 -57.006001 -53.702999 -46.701 -44.199001 -41.696999 -37.196999 -32.193001 -29.691 -27.188999 -25.191 -20.187 -17.684999 -15.453 -10.449 -5.4450002" y="52.992001"> W = Offset in feet</tspan><tspan x="-98.622002 -93.473999 -88.470001 -86.508003 -80.630997 -75.626999 -73.125 -67.869003 -65.366997 -59.363998 -54.360001 -50.084999 -45.081001 -40.077 -35.577 -30.573 -28.070999 -21.708 -16.704 -13.482 -8.4779997 -6.48 -1.476 3.5280001 6.0300002 11.034 13.032 17.532 20.034 25.038 30.042 34.542 39.546001" y="65.987999"> 4. d = Advance warning distance </tspan><tspan x="-65.610001 -62.612999 -58.112999 -53.109001 -48.105 -45.603001 -39.599998 -34.596001 -30.096001 -27.594 -25.596001 -20.591999 -15.588 -13.086 -8.0819998 -1.854 0.648 5.652 10.656" y="75.987">(see Section 2C.05)</tspan></text></g><text transform="matrix(1 0 0 -1 69.888 708.44)" font-size="9.5px" font-weight="bold"><tspan x="0 6.8590002 9.5 14.782 17.423 23.227501 28.509501 34.313999 39.596001 42.237 45.932499 51.2145 57.019001 62.823502 68.105499 71.268997 73.910004 79.7145" y="0">A – Lane reduction</tspan></text></g><g transform="translate(154.63 177.26)"><path d="m0 0v289.43l-18.923 152.21v76.362h-46.73v-518" fill="#b1b4b6" stroke="#000"/></g><g transform="translate(78.799 618.78)"><path d="m0 0h7.437" fill="none" stroke="#000" stroke-width=".75"/></g><g transform="translate(130.18 666.07)"><path d="m0 0v-47.169l19.275-152.21v-220.76" fill="none" stroke="#fff" stroke-width="2"/></g><g transform="translate(152.71 459.6)"><path d="m0 0h9.396z"/></g><g transform="translate(162.11 459.6)"><path d="m0 0h-9.396" fill="none" stroke="#000" stroke-width=".75"/></g><g clip-path="url(#h)"><g transform="translate(151.53 459.08)"><path d="m0 0c0.826-0.25 1.363-0.48 2.026-0.746v2.522c-0.237-0.112-1.2-0.496-2.026-0.746-0.885-0.266-1.688-0.449-2.208-0.514 0.52-0.066 1.323-0.248 2.208-0.516"/></g><g transform="translate(130.22 296.23)"><path d="m0 0v-127.46" fill="none" stroke="#fff" stroke-dasharray="14.4, 43.2" stroke-width="2"/></g><g transform="translate(107.9 694.92)"><path d="m0 0v-517.15m3 0.016v517.63" fill="none" stroke="#ffd24f" stroke-width="2"/></g><g transform="translate(81.633 542.48)"><path d="m0 0v-72.329" fill="none" stroke="#000" stroke-width=".75"/></g><g transform="translate(82.145 468.97)"><path d="m0 0c0.25 0.826 0.479 1.364 0.746 2.026h-2.522c0.113-0.236 0.496-1.2 0.746-2.026 0.267-0.885 0.45-1.688 0.515-2.208 0.065 0.52 0.248 1.323 0.515 2.208"/></g><g transform="translate(81.627 550.63)"><path d="m0 0v64.322" fill="none" stroke="#000" stroke-width=".75"/></g><g transform="translate(81.115 616.14)"><path d="m0 0c-0.25-0.826-0.48-1.364-0.746-2.028h2.522c-0.113 0.239-0.497 1.202-0.746 2.028-0.267 0.884-0.45 1.687-0.515 2.207-0.066-0.52-0.248-1.323-0.515-2.207"/></g><g transform="translate(79.263 466.61)"><path d="m0 0h7.083" fill="none" stroke="#000" stroke-width=".75"/></g><g transform="translate(91.39 465.99)"><path d="m0 0h58.321" fill="none" stroke="#000" stroke-dasharray="6, 6" stroke-width=".75"/></g><g transform="translate(127.84 460.11)"><path d="m0 0c-0.827 0.249-1.364 0.48-2.027 0.745v-2.521c0.237 0.112 1.2 0.496 2.027 0.745 0.885 0.268 1.687 0.451 2.207 0.516-0.52 0.065-1.322 0.248-2.207 0.515"/></g><g transform="translate(116.49 459.6)"><path d="m0 0h10.169" stroke="#000" stroke-width=".75"/></g><g transform="translate(161.19 470.92)"><path d="m0 0c-4e-3 -0.514 0.336-0.918 0.793-1.08h-4.1v-1h8.959v1h-4.086c0.453 0.16 0.789 0.56 0.793 1.07 4e-3 0.651-0.521 1.184-1.174 1.184-0.652 4e-3 -1.183-0.522-1.185-1.174"/></g><g transform="translate(158.04 496.28)"><path d="m0 0c-3e-3 -0.513 0.335-0.918 0.792-1.08h-4.099v-1h8.959v1h-4.086c0.453 0.16 0.789 0.561 0.793 1.07 4e-3 0.651-0.522 1.182-1.174 1.184s-1.182-0.521-1.185-1.174"/></g><g transform="translate(154.88 521.65)"><path d="m0 0c-3e-3 -0.513 0.336-0.917 0.793-1.079h-4.099v-1.001h8.959v1.001h-4.087c0.454 0.159 0.789 0.56 0.794 1.07 3e-3 0.65-0.522 1.182-1.174 1.184-0.653 1e-3 -1.183-0.522-1.186-1.175"/></g><g transform="translate(151.73 547.02)"><path d="m0 0c-3e-3 -0.514 0.336-0.918 0.793-1.08h-4.1v-1h8.959v1h-4.085c0.453 0.16 0.788 0.56 0.792 1.07 4e-3 0.651-0.521 1.182-1.173 1.184-0.653 2e-3 -1.182-0.522-1.186-1.174"/></g><g transform="translate(148.57 572.39)"><path d="m0 0c-3e-3 -0.514 0.336-0.918 0.793-1.08h-4.1v-1h8.959v1h-4.086c0.454 0.16 0.789 0.561 0.793 1.07 4e-3 0.651-0.521 1.182-1.173 1.184-0.653 2e-3 -1.182-0.521-1.186-1.174"/></g><g transform="translate(145.42 597.76)"><path d="m0 0c-3e-3 -0.514 0.336-0.918 0.793-1.08h-4.1v-1h8.959v1h-4.086c0.454 0.16 0.789 0.56 0.793 1.07 4e-3 0.65-0.521 1.182-1.173 1.184-0.653 2e-3 -1.183-0.522-1.186-1.174"/></g><g transform="translate(142.27 623.13)"><path d="m0 0c-4e-3 -0.514 0.336-0.918 0.793-1.08h-4.1v-1h8.959v1h-4.086c0.454 0.16 0.789 0.56 0.793 1.07 4e-3 0.651-0.521 1.184-1.173 1.184-0.653 4e-3 -1.184-0.522-1.186-1.174"/></g><g transform="translate(135.44 289.32)"><path d="m0 0 3.151-19.438 0.28 6.2 4.369-11.51 1.537 3.578-4.206 11.387 1.19 3.693z" fill="#fff" fill-rule="evenodd"/></g><g transform="translate(134.9 437.83)"><path d="m0 0 3.151-19.436 0.28 6.197 4.368-11.508 1.537 3.576-4.205 11.389 1.19 3.694z" fill="#fff" fill-rule="evenodd"/></g><g transform="translate(163.66 206.85)"><path d="m0 0 24.87 24.871c1.051 1.053 2.773 1.053 3.827 0l24.869-24.871c1.053-1.053 1.053-2.773 0-3.826l-24.869-24.869c-1.054-1.055-2.776-1.055-3.827 0l-24.87 24.869c-1.052 1.053-1.052 2.773 0 3.826" fill="#ffd24f"/><path d="m0 0 24.87 24.871c1.051 1.053 2.773 1.053 3.827 0l24.869-24.871c1.053-1.053 1.053-2.773 0-3.826l-24.869-24.869c-1.054-1.055-2.776-1.055-3.827 0l-24.87 24.869c-1.052 1.053-1.052 2.773 0 3.826z" fill="none" stroke="#000" stroke-width=".5"/></g><g transform="translate(164.26 206.46)"><path d="m0 0 24.666 24.666c0.834 0.834 2.2 0.834 3.036 0l24.665-24.666c0.834-0.836 0.834-2.202 0-3.036l-24.665-24.666c-0.836-0.836-2.202-0.836-3.036 0l-24.666 24.666c-0.835 0.834-0.835 2.2 0 3.036" fill-rule="evenodd"/></g><g transform="translate(165.03 205.7)"><path d="m0 0 24.655 24.654c0.416 0.416 1.1 0.416 1.517 0l24.653-24.654c0.418-0.418 0.418-1.1 0-1.518l-24.653-24.654c-0.417-0.416-1.101-0.416-1.517 0l-24.655 24.654c-0.416 0.418-0.416 1.1 0 1.518" fill="#ffd24f" fill-rule="evenodd"/></g><path d="m180.18 191.63h4.212v26.352h-4.212z"/><g transform="translate(191.83 217.98)"><path d="m0 0v-7.887s3.643-4.429 4.404-5.355v-13.11h4.212v14.62s-3.643 4.429-4.404 5.355v6.377z"/></g><g><path d="m193.39 191.63h-1.56v2.754h1.56z"/><path d="m193.39 196.31h-1.56v2.754h1.56z"/><path d="m193.39 200.99h-1.56v2.752h1.56z"/></g><g transform="translate(170.58 216.23)"><path d="m0 0c-2.499 1.875-6.285 8.703-6.279 20.51" fill="none" stroke="#000" stroke-miterlimit="2" stroke-width=".75"/></g><g transform="translate(163.79 237.92)"><path d="m0 0c-0.249-0.827-0.48-1.364-0.747-2.026l2.523-2e-3c-0.113 0.238-0.495 1.201-0.744 2.028-0.267 0.882-0.452 1.687-0.515 2.207-0.064-0.52-0.248-1.323-0.517-2.207"/></g><g transform="translate(160.01 243.38)"><path d="m0 0v2.311h8.883v-2.311h3.262v-3.261h-15.702v3.261h1.779z"/></g><g transform="translate(134.54 296.23)"><path d="m0 0h46.572m-24.552 169.76h34.232m-16.713-225.37h18.257" fill="none" stroke="#000" stroke-width=".75"/></g><g transform="translate(187.54 349.29)"><path d="m0 0v-104.92" stroke="#000" stroke-width=".75"/></g><g transform="translate(188.05 243.19)"><path d="m0 0c0.25 0.826 0.481 1.363 0.746 2.025h-2.522c0.113-0.236 0.497-1.199 0.746-2.025 0.267-0.885 0.45-1.688 0.515-2.209 0.066 0.521 0.248 1.324 0.515 2.209"/></g><g transform="translate(187.53 359.72)"><path d="m0 0v102.04" stroke="#000" stroke-width=".75"/></g><g transform="translate(187.02 463.45)"><path d="M 0,0 C -0.25,-0.826 -0.48,-1.365 -0.746,-2.027 H 1.776 C 1.663,-1.791 1.28,-0.826 1.03,0 0.763,0.885 0.58,1.688 0.514,2.208 0.45,1.688 0.266,0.885 0,0"/></g><g transform="translate(130.18 450.32)"><path d="m0 0v12.598" stroke="#000" stroke-width=".75"/></g><path d="m139 694.71h-53.334v2.667h53.334z" fill="#fff"/></g><text transform="matrix(1 0 0 -1 164.46 519.15)" fill="#000000" font-family="Helvetica" font-size="9.0008px"><tspan x="0 6.4085698 11.323007 13.231176 15.139345 20.053782 24.96822 29.882656 32.294872 37.209309 40.116566" y="0">Delineators</tspan></text><g clip-path="url(#g)"><path d="m85.211 539.2h-7.513v10.133h7.513z" fill="#fff"/></g><text transform="matrix(1 0 0 -1 78.796 542.11)" fill="#000000" font-family="Helvetica" font-size="9px"><tspan x="0" y="0">L</tspan><tspan x="56.574001" y="86.129997">W</tspan><tspan x="105.822" y="190.467">d</tspan></text><g clip-path="url(#f)"><g transform="translate(176.78 264.94)"><path d="m0 0v-20.568" stroke="#000" stroke-width=".75"/></g><g transform="translate(177.29 243.19)"><path d="m0 0c0.25 0.826 0.481 1.363 0.746 2.025h-2.522c0.113-0.236 0.497-1.199 0.746-2.025 0.268-0.885 0.45-1.688 0.516-2.209 0.065 0.521 0.248 1.324 0.514 2.209"/></g><g transform="translate(176.77 275.37)"><path d="m0 0v16.64" stroke="#000" stroke-width=".75"/></g><g transform="translate(176.26 293.69)"><path d="M 0,0 C -0.25,-0.826 -0.479,-1.365 -0.746,-2.027 H 1.776 C 1.663,-1.791 1.28,-0.826 1.03,0 0.763,0.885 0.58,1.687 0.515,2.209 0.45,1.687 0.267,0.885 0,0"/></g></g><text transform="matrix(1 0 0 -1 170.56 267.29)" fill="#000000" font-family="Helvetica" font-size="9px"><tspan x="0 5.0040002 7.506" y="0">d/4</tspan></text><g clip-path="url(#e)"><g transform="translate(388.25 207.28)"><path d="m0 0 24.871 24.871c1.052 1.053 2.774 1.053 3.827 0l24.869-24.871c1.053-1.053 1.053-2.774 0-3.826l-24.869-24.87c-1.053-1.054-2.775-1.054-3.827 0l-24.871 24.87c-1.052 1.052-1.052 2.773 0 3.826" fill="#ffd24f"/><path d="m0 0 24.871 24.871c1.052 1.053 2.774 1.053 3.827 0l24.869-24.871c1.053-1.053 1.053-2.774 0-3.826l-24.869-24.87c-1.053-1.054-2.775-1.054-3.827 0l-24.871 24.87c-1.052 1.052-1.052 2.773 0 3.826z" fill="none" stroke="#000" stroke-width=".5"/></g><g transform="translate(388.85 206.89)"><path d="m0 0 24.666 24.666c0.835 0.834 2.2 0.834 3.037 0l24.664-24.666c0.835-0.836 0.835-2.201 0-3.035l-24.664-24.666c-0.837-0.836-2.202-0.836-3.037 0l-24.666 24.666c-0.834 0.834-0.834 2.199 0 3.035" fill-rule="evenodd"/></g><g transform="translate(389.62 206.13)"><path d="m0 0 24.656 24.655c0.416 0.416 1.099 0.416 1.517 0l24.654-24.655c0.417-0.418 0.417-1.099 0-1.517l-24.654-24.654c-0.418-0.416-1.101-0.416-1.517 0l-24.656 24.654c-0.416 0.418-0.416 1.099 0 1.517" fill="#ffd24f" fill-rule="evenodd"/></g><path d="m404.77 192.06h4.212v26.352h-4.212z"/><g transform="translate(416.43 218.41)"><path d="m0 0v-7.887s3.643-4.43 4.404-5.356v-13.109h4.212v14.619s-3.642 4.43-4.403 5.356v6.377z"/></g><g><path d="m417.99 192.06h-1.561v2.754h1.561z"/><path d="m417.99 196.74h-1.561v2.754h1.561z"/><path d="m417.99 201.42h-1.561v2.752h1.561z"/></g><g transform="translate(399.52 188.37)"><path d="m0 0c-7.25-7.25-46.675-3.455-46.675 12.759" fill="none" stroke="#000" stroke-miterlimit="2" stroke-width=".75"/></g><g transform="translate(352.34 202.31)"><path d="m0 0c-0.251-0.824-0.482-1.361-0.75-2.023l2.524-4e-3c-0.114 0.238-0.494 1.201-0.743 2.027-0.265 0.885-0.449 1.69-0.512 2.207-0.065-0.517-0.249-1.32-0.519-2.207"/></g></g><text transform="matrix(.98 0 0 -1 240.44 708.44)" fill="#000000" font-family="Helvetica" font-size="9.5px" font-weight="bold"><tspan x="0 6.5170002 8.816 13.756 16.055 21.5175 26.4575 31.92 36.860001 39.159 42.512501 47.452499 52.915001 58.377499 63.317501 66.139 68.438004 73.900497 79.362999 81.662003 88.710999 91.010002 93.831497 99.293999 101.593 103.892 108.832 111.6535 116.5935 119.947 124.887 127.186 129.485 134.425 139.8875 142.18649 145.008 147.8295 150.12849 152.95 158.41251 160.7115 163.533 168.9955 173.9355 176.2345 178.53349 183.4735 186.295" y="0">B – Lane reduction with lateral shift to the left</tspan></text><g clip-path="url(#d)"><path d="m304.04 694.93h-48.933v3.322h48.933z" fill="#fff"/><path d="m350.33 163.2h-98.134v14.072h98.134z" fill="#fff"/><g transform="translate(348.56 207.77)"><path d="m0 0v2.31h8.883v-2.31h3.261v-3.262h-15.701v3.262h1.779z"/></g><g transform="translate(302.42 696.33)"><path d="m0 0v-77.918l38.055-195.77v-246.67l-82.625-1.207v521.36z" fill="#b1b4b6"/><path d="m0 0v-77.918l38.055-195.77v-246.67l-82.625-1.207v521.36z" fill="none" stroke="#000"/></g><g transform="translate(298.92 657.94)"><path d="m0 0v-40.238l38.496-196.78v-210.69" fill="none" stroke="#fff" stroke-width="2"/></g><g transform="translate(243.81 422.07)"><path d="m0 0h11.154m-11.154 193.25h11.154m-5.771-189.32v90.178" fill="none" stroke="#000" stroke-width=".75"/></g><g transform="translate(249.73 424.76)"><path d="m0 0c0.262 0.868 0.504 1.432 0.783 2.129h-2.649c0.119-0.25 0.522-1.261 0.784-2.129 0.28-0.929 0.472-1.771 0.541-2.318 0.068 0.547 0.26 1.389 0.541 2.318"/></g><g transform="translate(249.19 525.96)"><path d="m0 0v85.423" fill="none" stroke="#000" stroke-width=".75"/></g><g transform="translate(248.65 612.63)"><path d="m0 0c-0.263-0.868-0.504-1.432-0.783-2.128h2.648c-0.118 0.249-0.521 1.26-0.783 2.128-0.28 0.929-0.473 1.771-0.541 2.318-0.069-0.547-0.261-1.389-0.541-2.318"/></g><g transform="translate(350.29 427.01)"><path d="m0 0c-4e-3 -0.514 0.336-0.918 0.793-1.08h-4.099v-1h8.959v1h-4.086c0.453 0.16 0.789 0.56 0.793 1.07 4e-3 0.65-0.522 1.184-1.174 1.184-0.652 4e-3 -1.184-0.522-1.186-1.174"/></g><g transform="translate(345.1 451.6)"><path d="m0 0c-3e-3 -0.514 0.336-0.918 0.792-1.08h-4.1v-1h8.959v1h-4.086c0.454 0.16 0.79 0.56 0.794 1.07 5e-3 0.651-0.522 1.182-1.174 1.184-0.653 2e-3 -1.181-0.522-1.185-1.174"/></g><g transform="translate(339.9 476.2)"><path d="m0 0c-3e-3 -0.514 0.336-0.918 0.793-1.08h-4.1v-1h8.959v1h-4.086c0.453 0.16 0.789 0.56 0.793 1.07 4e-3 0.65-0.521 1.182-1.174 1.183-0.652 2e-3 -1.181-0.521-1.185-1.173"/></g><g transform="translate(334.7 500.8)"><path d="m0 0c-3e-3 -0.513 0.336-0.918 0.794-1.079h-4.1v-1h8.96v1h-4.086c0.453 0.16 0.789 0.56 0.792 1.07 5e-3 0.65-0.521 1.182-1.173 1.184s-1.184-0.522-1.187-1.175"/></g><g transform="translate(329.51 525.4)"><path d="m0 0c-3e-3 -0.514 0.336-0.918 0.793-1.08h-4.1v-1h8.959v1h-4.086c0.454 0.16 0.79 0.56 0.793 1.07 4e-3 0.651-0.521 1.182-1.173 1.184-0.653 2e-3 -1.183-0.522-1.186-1.174"/></g><g transform="translate(324.32 549.99)"><path d="m0 0c-3e-3 -0.514 0.336-0.918 0.793-1.08h-4.099v-1h8.959v1h-4.086c0.453 0.16 0.789 0.561 0.793 1.07 4e-3 0.651-0.522 1.182-1.174 1.184-0.653 2e-3 -1.182-0.522-1.186-1.174"/></g><g transform="translate(319.12 574.59)"><path d="m0 0c-3e-3 -0.513 0.336-0.918 0.793-1.08h-4.099v-1h8.959v1h-4.086c0.453 0.16 0.789 0.561 0.793 1.071 4e-3 0.65-0.522 1.181-1.174 1.183s-1.182-0.521-1.186-1.174"/></g><g transform="translate(313.93 599.19)"><path d="m0 0c-3e-3 -0.513 0.336-0.917 0.793-1.08h-4.1v-1h8.959v1h-4.086c0.453 0.161 0.789 0.561 0.793 1.071 4e-3 0.65-0.522 1.181-1.174 1.183s-1.182-0.521-1.185-1.174"/></g><g transform="translate(308.73 623.79)"><path d="m0 0c-4e-3 -0.514 0.336-0.918 0.793-1.08h-4.1v-1h8.959v1h-4.086c0.453 0.16 0.789 0.56 0.793 1.07 4e-3 0.65-0.521 1.183-1.174 1.183-0.652 4e-3 -1.183-0.521-1.185-1.173"/></g><g transform="translate(276.63 421.64)"><path d="m0 0v-251.78" fill="none" stroke="#fff" stroke-dasharray="14.4, 43.2" stroke-width="2"/></g><g transform="translate(276.61 615.32)"><path d="m0 0v-0.098s19.232-193.25 19.257-193.44v-249.99h3v250.18s-19.232 193.25-19.257 193.44v85.997h-3z" fill="none" stroke="#ffd24f" stroke-width="2"/></g><g transform="translate(258.77 422.07)"><path d="m0 0h82.844" fill="none" stroke="#000" stroke-dasharray="6, 6" stroke-width=".75"/></g><g transform="translate(323.86 264.23)"><path d="m0 0h46.434m-25.183 157.84h34.232m-16.713-217.06h16.258" fill="none" stroke="#000" stroke-width=".75"/></g><g transform="translate(375.09 307.33)"><path d="m0 0v-98.052" stroke="#000" stroke-width=".75"/></g><g transform="translate(375.6 207.49)"><path d="m0 0c0.25 0.826 0.48 1.365 0.746 2.027h-2.521c0.113-0.236 0.496-1.201 0.746-2.027 0.267-0.885 0.449-1.688 0.515-2.207 0.065 0.519 0.248 1.322 0.514 2.207"/></g><g transform="translate(375.08 316.95)"><path d="m0 0v100.9" stroke="#000" stroke-width=".75"/></g><g transform="translate(374.57 419.54)"><path d="m0 0c-0.25-0.826-0.481-1.365-0.746-2.027h2.521c-0.113 0.236-0.496 1.201-0.746 2.027-0.268 0.885-0.449 1.687-0.516 2.207-0.064-0.52-0.248-1.322-0.513-2.207"/></g><g transform="translate(337.42 703.65)"><path d="m0 0v-243.53m-15.42 238.98h11.528" fill="none" stroke="#000" stroke-width=".75"/></g><g transform="translate(334.92 699.61)"><path d="m0 0c-0.826 0.249-1.363 0.479-2.027 0.745v-2.521c0.238 0.112 1.201 0.496 2.027 0.746 0.885 0.266 1.688 0.449 2.207 0.514-0.519 0.066-1.322 0.248-2.207 0.516"/></g><g transform="translate(323.19 256.28)"><path d="m0 0 3.15-19.438 0.279 6.2 4.369-11.51 1.538 3.578-4.205 11.387 1.189 3.693z" fill="#fff" fill-rule="evenodd"/></g><g transform="translate(323.19 393.88)"><path d="m0 0 3.15-19.437 0.279 6.199 4.369-11.51 1.538 3.578-4.205 11.387 1.189 3.693z" fill="#fff" fill-rule="evenodd"/></g><g transform="translate(340.48 173.46)"><path d="m0 0-82.625-1.207" fill="#b1b4b6" stroke="#000"/></g><path d="m308.42 694.78h-54.973v8.436h54.973z" fill="#fff"/><g transform="translate(298.86 703.65)"><path d="m0 0v-8.119" fill="none" stroke="#000" stroke-width=".75"/></g><path d="m351 166.54h-98.8v10.738h98.8z" fill="#fff"/><g transform="translate(312.1 699.09)"><path d="m0 0h-9.321" fill="none" stroke="#000" stroke-width=".75"/></g><g transform="translate(301.4 698.58)"><path d="M 0,0 C 0.826,-0.249 1.363,-0.479 2.025,-0.745 V 1.776 C 1.789,1.664 0.826,1.28 0,1.03 -0.885,0.764 -1.688,0.581 -2.209,0.516 -1.688,0.45 -0.885,0.268 0,0"/></g><path d="m321.8 210.24h-7.375v12.172h7.375z" fill="#b1b4b6"/></g><text transform="matrix(1 0 0 -1 349.14 474.22)" fill="#000000" font-family="Helvetica" font-size="9.0008px"><tspan x="0 6.4085698 11.323007 13.231176 15.139345 20.053782 24.96822 29.882656 32.294872 37.209309 40.116566" y="0">Delineators</tspan></text><text transform="matrix(1 0 0 -1 312.78 695.93)" fill="#000000" font-family="Helvetica" font-size="9px"><tspan x="0" y="0">W</tspan></text><g clip-path="url(#c)"><path d="m252.96 515.83h-7.512v10.198h7.512z" fill="#fff"/></g><text transform="matrix(1 0 0 -1 246.55 517.94)" fill="#000000" font-family="Helvetica" font-size="9px"><tspan x="0" y="0">L</tspan><tspan x="125.667" y="208.935">d</tspan></text><g clip-path="url(#b)"><g transform="translate(365.09 227.33)"><path d="m0 0v-18.052" stroke="#000" stroke-width=".75"/></g><g transform="translate(365.6 207.49)"><path d="m0 0c0.25 0.826 0.48 1.365 0.746 2.027h-2.521c0.113-0.236 0.496-1.201 0.746-2.027 0.267-0.885 0.449-1.688 0.515-2.207 0.065 0.519 0.248 1.322 0.514 2.207"/></g><g transform="translate(365.08 236.95)"><path d="m0 0v23.05" stroke="#000" stroke-width=".75"/></g><g transform="translate(364.57 261.7)"><path d="m0 0c-0.25-0.826-0.481-1.366-0.746-2.028h2.521c-0.113 0.237-0.496 1.202-0.746 2.028-0.268 0.884-0.449 1.687-0.516 2.207-0.064-0.52-0.248-1.323-0.513-2.207"/></g></g><text transform="matrix(1 0 0 -1 358.96 229)" fill="#000000" font-family="Helvetica" font-size="9px"><tspan x="0 5.0040002 7.506" y="0">d/4</tspan></text><g clip-path="url(#a)"><g transform="translate(318.14 264.23)"><path d="m0 0v-95.691" fill="none" stroke="#fff" stroke-dasharray="14.4, 43.2" stroke-width="2"/></g></g></g></svg>
