<?xml version="1.0" encoding="UTF-8"?>
<svg width="665.84" height="661.32" version="1.1" viewBox="0 0 665.84 661.32" xml:space="preserve" xmlns="http://www.w3.org/2000/svg"><defs><clipPath id="o"><path d="m63.125 44.75h513.12v693.53h-513.12z"/></clipPath><clipPath id="n"><path d="m63.125 44.75h513.12v693.53h-513.12z"/></clipPath><clipPath id="m"><path d="m63.125 44.75h513.12v693.53h-513.12z"/></clipPath><clipPath id="l"><path d="m63.125 44.75h513.12v693.53h-513.12z"/></clipPath><clipPath id="k"><path d="m63.125 44.75h513.12v693.53h-513.12z"/></clipPath><clipPath id="j"><path d="m63.125 44.75h513.12v693.53h-513.12z"/></clipPath><clipPath id="i"><path d="m63.125 44.75h513.12v693.53h-513.12z"/></clipPath><clipPath id="h"><path d="m63.125 44.75h513.12v693.53h-513.12z"/></clipPath><clipPath id="g"><path d="m63.125 44.75h513.12v693.53h-513.12z"/></clipPath><clipPath id="f"><path d="m63.125 44.75h513.12v693.53h-513.12z"/></clipPath><clipPath id="e"><path d="m63.125 44.75h513.12v693.53h-513.12z"/></clipPath><clipPath id="d"><path d="m63.125 44.75h513.12v693.53h-513.12z"/></clipPath><clipPath id="c"><path d="m63.125 44.75h513.12v693.53h-513.12z"/></clipPath><clipPath id="b"><path d="m63.125 44.75h513.12v693.53h-513.12z"/></clipPath><clipPath id="a"><path d="m63.125 44.75h513.12v693.53h-513.12z"/></clipPath></defs><g transform="matrix(1.3333 0 0 -1.3333 -88.504 947.8)"><g transform="translate(496.27 638.48)"><path d="m0 0v-52.429h-424.91v101.57h424.91v-43.848z" fill="#b1b4b6"/><path d="m0 0v-52.429h-424.91v101.57h424.91v-43.848z" fill="none" stroke="#000"/></g><g transform="translate(496.95 681.11)"><path d="m0 0h-422.88" fill="none" stroke="#ffd24f" stroke-width="2"/></g><path d="m71.355 549.06h424.91v-96.072h-424.91z" fill="#b1b4b6" stroke="#000"/><g transform="translate(496.95 542.55)"><path d="m0 0h-422.88" fill="none" stroke="#ffd24f" stroke-width="2"/></g><g transform="translate(74.184 415.83)"><path d="m0 0v-103.86l181.41-0.137 7.569-0.964 4.268-3.442 2.202-4.265 0.825-11.7-0.278-34.343 0.059-6.002 51.228-0.342-0.109 6.779v32.004l0.44 4.051 2.472 4.338 3.688 2.689 4.294 1.215 173.38-0.131 0.049 114.11z" fill="#b1b4b6"/></g><g transform="translate(493.73 415.51)"><path d="m0 0h-419.35" fill="none" stroke="#000"/></g><g transform="translate(292.59 251.49)"><path d="m0 0-7.235-19.948h35.841v22.907" fill="#b1b4b6"/></g><g transform="translate(287.99 240.36)"><path d="m0 0-7.375-19.307h-14.101v19.307" fill="#fff"/></g><g transform="translate(502.04 409.35)"><path d="m0 0h-430.66" fill="none" stroke="#ffd24f" stroke-width="2"/></g><g clip-path="url(#o)"><g transform="translate(394.33 417.94)"><path d="m0 0c3.945 4.223 9.643 6.633 15.634 6.302" fill="none" stroke="#000" stroke-width=".75"/></g><g transform="translate(393.81 416.48)"><path d="m0 0c0.897 0.52 1.538 0.803 2.316 1.166l-2.212 2.066c-0.096-0.3-0.548-1.459-1.007-2.388-0.49-0.995-0.987-1.848-1.357-2.358 0.484 0.403 1.301 0.957 2.26 1.514"/></g></g><text transform="matrix(1 0 0 -1 411.59 418.03)" fill="#000000" font-family="Helvetica" font-size="9px"><tspan x="0 6.0029998 11.007 14.004 17.136 19.134001 24.138 27.135 29.636999 34.640999 37.638 40.139999 47.637001 52.640999 57.645 59.643002 64.647003 69.651001" y="0">Barrier or median*</tspan></text><g clip-path="url(#n)"><g transform="translate(76.07 370.79)"><path d="m0 0h417.13m-417.51 19.28h417.51" fill="none" stroke="#fff" stroke-dasharray="14.3, 43" stroke-width="2"/></g><g transform="translate(135.11 350.57)"><path d="m0 0h-64.142" fill="none" stroke="#fff" stroke-width="4"/></g><g transform="translate(258.8 318.32)"><path d="m0 0h-186.8m431.04-10.059h-166.36" fill="none" stroke="#fff" stroke-width="2"/></g><g transform="translate(147.73 331.24)"><path d="m0 0-2.283-0.698 1.5-2.109-1.369-0.955-1.479 1.978-1.5-1.978-1.371 0.955 1.479 2.109-2.26 0.698 0.499 1.588 2.217-0.743v2.59h1.849v-2.59l2.197 0.743z"/></g><g transform="translate(155.49 331.24)"><path d="m0 0-2.283-0.698 1.499-2.109-1.368-0.955-1.479 1.978-1.5-1.978-1.371 0.955 1.479 2.109-2.26 0.698 0.5 1.588 2.217-0.743v2.59h1.847v-2.59l2.198 0.743z"/></g><g transform="translate(167.85 400.64)"><path d="m0 0h6.354v1.559l4.377-2.576-4.377-2.399v1.44h-6.354z"/></g><g transform="translate(167.85 381.36)"><path d="m0 0h6.354v1.558l4.377-2.576-4.377-2.398v1.439h-6.354z"/></g><g transform="translate(167.85 362.08)"><path d="m0 0h6.354v1.558l4.377-2.576-4.377-2.398v1.439h-6.354z"/></g><g transform="translate(167.85 328.99)"><path d="m0 0h6.354v1.558l4.377-2.576-4.377-2.398v1.439h-6.354z"/></g><g transform="translate(135.11 338.73)"><path d="m0 0h-64.142" fill="none" stroke="#fff" stroke-width="4"/></g><g transform="translate(244.8 344.81)"><path d="m0 0h-109.68" fill="none" stroke="#fff" stroke-dasharray="4.32, 12.96" stroke-width="4"/></g><g transform="translate(269.93 251.12)"><path d="m0 0v48.83c0 6.627-5.372 12-12 12h-184.55m247.75-80.405v58.307c0 6.627 5.371 12 12 12h165.38" fill="none" stroke="#000"/></g><g transform="translate(99.384 332.08)"><path d="m0 0c6e-3 -1.852-2.064-2.119-3.626-2.08-1.561 0.041-2.226-0.18-2.584 0.507-0.242-0.652-1.27-0.494-3.117-0.507-1.848-0.01-3.758 0.468-3.642 2.08zm-7.244-0.508c-0.067-0.856-0.782-1.02-1.81-1.051-1.026-0.031-1.762 0.143-1.837 1.051 1.214 0.01 2.433-0.01 3.647 0m5.19 0c-0.154-0.858-0.711-1.065-1.569-1.065-0.859 0-1.535 0.207-1.549 1.065z" fill="#fff" fill-rule="evenodd"/></g><g transform="translate(99.23 327.54)"><path d="m0 0v-0.519c-0.038 0.01-3.083 0.012-5.475 0-6.377-0.033-7.522 0.219-7.522 1.017 0 0.801 1.145 1.063 7.522 1.063h5.475v-0.518c-0.019 4e-3 -2.238 0-5.475 0-3.236-5e-3 -5.023-0.048-5.024-0.57-1e-3 -0.518 2.219-0.494 5.024-0.473 2.702 0.022 5.475 0 5.475 0" fill="#fff" fill-rule="evenodd"/></g><g transform="translate(99.546 325)"><path d="m0 0c3e-3 -0.926-1.686-0.989-3.167-1.057-0.174 0.178-0.348 0.357-0.52 0.533 0.768 0.033 1.555 0.117 1.561 0.524 7e-3 0.4-0.628 0.47-1.336 0.519h-0.507c-1.145 2e-3 -2.538-1.601-3.49-1.562h-1.942c-1.812 5e-3 -3.731 0.134-3.73 1.043 0 0.906 1.651 0.908 3.209 1.039 0.168-0.172 0.337-0.346 0.506-0.52-0.835-0.09-1.545-0.156-1.547-0.519-4e-3 -0.368 0.491-0.498 1.252-0.524 1.339-0.152 2.639 1.498 3.941 1.563h2.322c1.752 0.013 3.445-0.118 3.448-1.039" fill="#fff" fill-rule="evenodd"/></g><g transform="translate(128.65 332.5)"><path d="m0 0c3.634-0.01 4.429-0.151 4.429-0.541 0-0.393-0.795-0.51-4.429-0.51s-4.428 0.117-4.428 0.51c0 0.39 0.794 0.546 4.428 0.541m0-1.563c5.354 0 6.523 0.469 6.523 1.045 0 0.58-1.169 1.037-6.523 1.049-5.354 0.015-6.524-0.469-6.524-1.049 0-0.576 1.17-1.045 6.524-1.045" fill="#fff" fill-rule="evenodd"/></g><g transform="translate(135.11 328.51)"><path d="m0 0h-8.318l8.318 1.045v0.524h-12.987v-0.524h8.307l-8.307-1.045v-0.521h12.987z" fill="#fff" fill-rule="evenodd"/></g><g transform="translate(124.22 326.55)"><path d="m0 0h10.884v0.518h-12.984v-2.078h2.1z" fill="#fff" fill-rule="evenodd"/></g><g transform="translate(122.12 324.29)"><path d="m0 0v-0.524h5.195l7.793-0.779v0.521l-5.202 0.518 5.202 0.52v0.517l-7.793-0.773z" fill="#fff" fill-rule="evenodd"/></g><g transform="translate(442.24 317.77)"><path d="m0 0-2.283-0.695 1.5-2.11-1.369-0.955-1.479 1.979-1.5-1.979-1.371 0.955 1.479 2.11-2.26 0.695 0.5 1.59 2.217-0.742v2.59h1.847v-2.59l2.198 0.742z"/></g><g transform="translate(450 317.77)"><path d="m0 0-2.283-0.695 1.5-2.11-1.369-0.955-1.479 1.979-1.5-1.979-1.371 0.955 1.478 2.11-2.259 0.695 0.5 1.59 2.217-0.742v2.59h1.847v-2.59l2.197 0.742z"/></g><g transform="translate(393.89 322.01)"><path d="m0 0c6e-3 -1.851-2.066-2.119-3.627-2.08-1.562 0.041-2.226-0.18-2.583 0.508-0.243-0.652-1.27-0.494-3.12-0.508-1.845-0.01-3.755 0.469-3.638 2.08zm-7.244-0.508c-0.066-0.855-0.783-1.019-1.812-1.05-1.026-0.032-1.76 0.142-1.836 1.05 1.215 0.01 2.432-9e-3 3.648 0m5.19 0c-0.153-0.857-0.709-1.064-1.569-1.064-0.859 0-1.537 0.207-1.548 1.064z" fill="#fff" fill-rule="evenodd"/></g><g transform="translate(393.74 317.48)"><path d="m0 0v-0.52c-0.037 0.01-3.084 0.012-5.474 0-6.377-0.033-7.522 0.219-7.522 1.018 0 0.801 1.145 1.062 7.522 1.062h5.474v-0.517c-0.017 4e-3 -2.238 0-5.474 0-3.237-6e-3 -5.024-0.049-5.024-0.57-2e-3 -0.518 2.219-0.495 5.024-0.473 2.703 0.021 5.474 0 5.474 0" fill="#fff" fill-rule="evenodd"/></g><g transform="translate(394.05 314.94)"><path d="m0 0c2e-3 -0.926-1.688-0.988-3.166-1.057-0.174 0.178-0.348 0.358-0.52 0.534 0.768 0.033 1.555 0.117 1.563 0.523 3e-3 0.4-0.629 0.471-1.338 0.52h-0.506c-1.149 2e-3 -2.539-1.602-3.492-1.563h-1.944c-1.808 6e-3 -3.726 0.135-3.726 1.043 0 0.906 1.65 0.908 3.209 1.039 0.166-0.172 0.336-0.346 0.506-0.519-0.834-0.09-1.545-0.157-1.547-0.52-4e-3 -0.367 0.49-0.498 1.252-0.523 1.338-0.153 2.638 1.498 3.939 1.562h2.322c1.754 0.014 3.446-0.117 3.448-1.039" fill="#fff" fill-rule="evenodd"/></g><g transform="translate(423.15 322.44)"><path d="m0 0c3.633-0.01 4.43-0.15 4.43-0.541 0-0.393-0.797-0.51-4.43-0.51-3.635 0-4.428 0.117-4.428 0.51 0 0.391 0.793 0.547 4.428 0.541m0-1.563c5.352 0 6.524 0.469 6.524 1.045 0 0.58-1.172 1.038-6.524 1.049-5.353 0.016-6.523-0.469-6.523-1.049 0-0.576 1.17-1.045 6.523-1.045" fill="#fff" fill-rule="evenodd"/></g><g transform="translate(429.62 318.45)"><path d="m0 0h-8.318l8.318 1.045v0.523h-12.986v-0.523h8.306l-8.306-1.045v-0.522h12.986z" fill="#fff" fill-rule="evenodd"/></g><g transform="translate(418.73 316.49)"><path d="m0 0h10.883v0.517h-12.982v-2.078h2.099z" fill="#fff" fill-rule="evenodd"/></g><g transform="translate(416.63 314.22)"><path d="m0 0v-0.523h5.195l7.793-0.78v0.522l-5.205 0.517 5.205 0.52v0.518l-7.793-0.774z" fill="#fff" fill-rule="evenodd"/></g><path d="m514.42 214.86h-21.692v478.44h21.692z" fill="#fff"/><g transform="translate(199.77 306.39)"><path d="m0 0 23.565 35.33" fill="none" stroke="#000" stroke-width=".75"/></g><g transform="translate(223.58 343.05)"><path d="m0 0c-0.7-0.576-1.214-0.912-1.833-1.336l2.203-1.469c0.039 0.272 0.266 1.338 0.529 2.205 0.283 0.928 0.59 1.736 0.837 2.228-0.36-0.417-0.987-1.01-1.736-1.628"/></g><g transform="translate(462.45 297.8)"><path d="m0 0 0.01 6.891" fill="none" stroke="#000" stroke-width=".75"/></g><g transform="translate(461.93 305.93)"><path d="m0 0c-0.264-0.867-0.506-1.43-0.787-2.127l2.649-4e-3c-0.118 0.25-0.52 1.262-0.78 2.13-0.28 0.93-0.471 1.773-0.539 2.319-0.069-0.546-0.262-1.389-0.543-2.318"/></g></g><text transform="matrix(1 0 0 -1 108.21 298.52)" fill="#000000" font-family="Helvetica" font-size="9px"><tspan x="0 8.4960003 10.494 15.498 20.502001 23.004 28.007999 33.012001 35.514 38.015999 43.02 48.023998 50.526001 55.026001 57.023998 62.028 67.031998 69.029999 74.033997 76.536003 83.033997 88.038002 90.036003 92.538002 97.542 100.044 102.042 107.046 112.05 117.054 119.556 121.554 123.552 128.556" y="0">Wide dotted single white lane line</tspan><tspan x="-20.330999 -17.334 -12.834 -9.8369999 -4.8330002 -0.333 4.1669998 6.165 11.169 16.173 18.674999 24.677999 30.681 37.179001 44.675999 47.178001 52.676998 58.175999 64.179001 70.677002 73.179001 75.681 80.684998 83.186996 90.683998 95.688004 100.008 105.012 107.514 112.518 115.02 118.152 120.15 125.154 130.158 132.66 135.162 137.664 142.668 145.89 150.894" y="9.5039997">(crossing PERMITTED to make a right turn)</tspan><tspan x="269.802 278.298 283.302 285.29999 287.802 292.806 295.30801 300.31201 305.31601 310.32001 315.32401 317.82599 319.82401 321.82199 326.82599 331.82999 334.332 337.32901 339.327 341.82901 344.33099 350.694 355.698 358.69501 361.69199 366.69601 371.70001 374.202 379.20599 384.20999" y="7.0830002">White edge line (if warranted)</tspan></text><g clip-path="url(#m)"><g transform="translate(82.321 335.29)"><path d="m0 0-2.077-57.915-2.487 69.702" fill="none" stroke="#000" stroke-width=".75"/></g><g transform="translate(77.185 348.3)"><path d="m0 0c-0.237-0.875-0.462-1.446-0.722-2.15l2.648 0.077c-0.125 0.246-0.558 1.245-0.845 2.104-0.308 0.921-0.524 1.757-0.608 2.302-0.053-0.549-0.22-1.396-0.473-2.333"/></g><g transform="translate(81.827 336.55)"><path d="m0 0c-0.292-0.858-0.554-1.414-0.857-2.099l2.647-0.093c-0.11 0.254-0.477 1.278-0.709 2.155-0.248 0.938-0.41 1.786-0.46 2.335-0.087-0.544-0.308-1.379-0.621-2.298"/></g></g><text transform="matrix(1 0 0 -1 76.129 266.45)" fill="#000000" font-family="Helvetica" font-size="9px"><tspan x="0 8.4960003 10.494 15.498 20.502001 23.004 27.504 32.507999 34.506001 36.504002 41.507999 44.009998 48.509998 50.507999 55.512001 60.515999 62.514 67.517998 70.019997 76.517998 81.522003 83.519997 86.022003 91.026001 93.528 95.526001 100.53 105.534 110.538 113.04 115.038 117.036 122.04 127.044" y="0">Wide solid single white lane lines</tspan><tspan x="0 2.997 7.4970002 10.494 15.498 19.997999 24.497999 26.496 31.5 36.504002 39.006001 45.504002 48.006001 54.008999 60.507 67.509003 74.007004 80.504997 86.237999 93.239998 99.242996 105.741" y="9.5039997">(crossing DISCOURAGED)</tspan><tspan x="257.58899 262.59299 264.591 272.08801 274.086 276.58801 281.59201 286.59601 289.09799 294.10199 298.60199 303.10199 308.10599 312.60599 317.10599 319.608 324.34201 328.84201 330.84 333.34201 335.84399 338.34601 342.84601 344.84399 349.84799 354.85199 357.354 361.854 364.35599 367.353 372.35699 377.36099 379.86301 382.36499 384.867 389.871 392.86801 395.37 399.87 404.87399 412.371 419.86801 424.87201 427.86899 432.36899 434.367 439.371 441.36899 443.871 448.875 453.879 456.38101 459.37799 464.38199 469.38599 473.88599" y="-6.0209999">Limited access exit, side street, or commercial entrance</tspan></text><g clip-path="url(#l)"><g transform="translate(317.49 285.89)"><path d="m0 0c2.928-4.982 7.963-8.578 13.881-9.562" fill="none" stroke="#000" stroke-width=".75"/></g><g transform="translate(316.24 286.8)"><path d="m0 0c0.244-1.007 0.333-1.703 0.461-2.551l2.609 1.534c-0.261 0.177-1.243 0.94-2.004 1.644-0.814 0.753-1.491 1.472-1.875 1.97 0.249-0.578 0.547-1.519 0.809-2.597"/></g><g transform="translate(496.95 591.09)"><path d="m0 0h-422.88" fill="none" stroke="#fff" stroke-width="2"/></g><g transform="translate(491.7 629.67)"><path d="m0 0h-422.83m422.83-19.304h-422.83" fill="none" stroke="#fff" stroke-dasharray="14.3, 43" stroke-width="2"/></g><g transform="translate(296.57 601.66)"><path d="m0 0h6.355v1.559l4.377-2.576-4.377-2.401v1.44h-6.355z"/></g><g transform="translate(296.57 620.97)"><path d="m0 0h6.355v1.559l4.377-2.576-4.377-2.401v1.44h-6.355z"/></g><g transform="translate(296.57 640.25)"><path d="m0 0h6.355v1.559l4.377-2.576-4.377-2.401v1.439h-6.355z"/></g><g transform="translate(491.7 660.88)"><path d="m0 0h-422.88" fill="none" stroke="#fff" stroke-dasharray="14.3, 43" stroke-width="4"/></g><g transform="translate(296.57 672.42)"><path d="m0 0h6.355v1.558l4.377-2.576-4.377-2.4v1.439h-6.355z"/></g><g transform="translate(491.7 649.95)"><path d="m0 0h-422.88" fill="none" stroke="#fff" stroke-dasharray="14.3, 43" stroke-width="4"/></g><g transform="translate(159.3 690.09)"><path d="m0 0c3.949 4.219 9.649 6.626 15.638 6.29" fill="none" stroke="#000" stroke-width=".75"/></g><g transform="translate(158.78 688.64)"><path d="m0 0c0.897 0.519 1.539 0.801 2.316 1.164l-2.21 2.069c-0.096-0.301-0.549-1.459-1.009-2.388-0.491-0.994-0.989-1.847-1.358-2.357 0.484 0.403 1.302 0.956 2.261 1.512"/></g></g><text transform="matrix(1 0 0 -1 176.81 690.19)" fill="#000000" font-family="Helvetica" font-size="9px"><tspan x="0 6.0029998 11.007 14.004 17.136 19.134001 24.138 27.135 29.636999 34.640999 37.638 40.139999 47.637001 52.640999 57.645 59.643002 64.647003 69.651001" y="0">Barrier or median*</tspan></text><g clip-path="url(#k)"><g transform="translate(496.95 459.48)"><path d="m0 0h-422.88" fill="none" stroke="#fff" stroke-width="2"/></g><g transform="translate(491.7 520.27)"><path d="m0 0h-422.88" fill="none" stroke="#fff" stroke-dasharray="14.3, 43" stroke-width="4"/></g><g transform="translate(491.7 497.99)"><path d="m0 0h-422.83m422.83-19.305h-422.83" fill="none" stroke="#fff" stroke-dasharray="14.3, 43" stroke-width="2"/></g><g transform="translate(296.57 470.02)"><path d="m0 0h6.355v1.558l4.377-2.576-4.377-2.4v1.439h-6.355z"/></g><g transform="translate(296.57 489.3)"><path d="m0 0h6.355v1.559l4.377-2.577-4.377-2.4v1.439h-6.355z"/></g><g transform="translate(296.57 509.66)"><path d="m0 0h6.355v1.559l4.377-2.577-4.377-2.4v1.44h-6.355z"/></g><g transform="translate(296.57 532.9)"><path d="m0 0h6.355v1.559l4.377-2.576-4.377-2.401v1.44h-6.355z"/></g><g transform="translate(159.27 551.5)"><path d="m0 0c3.847 4.312 9.489 6.853 15.485 6.661" fill="none" stroke="#000" stroke-width=".75"/></g><g transform="translate(158.78 550.03)"><path d="m0 0c0.884 0.54 1.519 0.838 2.287 1.22l-2.259 2.014c-0.088-0.303-0.514-1.471-0.951-2.411-0.467-1.006-0.944-1.871-1.302-2.389 0.475 0.414 1.279 0.987 2.225 1.566"/></g></g><text transform="matrix(1 0 0 -1 176.43 551.93)" fill="#000000" font-family="Helvetica" font-size="9px"><tspan x="0 6.0029998 11.007 14.004 17.136 19.134001 24.138 27.135 29.636999 34.640999 37.638 40.139999 47.637001 52.640999 57.645 59.643002 64.647003 69.651001" y="0">Barrier or median*</tspan></text><text transform="matrix(1 0 0 -1 270.08 569.5)" fill="#000000" font-family="Helvetica" font-size="9px" font-weight="bold"><tspan x="0 7.0019999" y="0">OR</tspan></text><g clip-path="url(#j)"><path d="m74.682 710.85h-8.304v-408.64h8.304z" fill="#fff"/></g><text transform="matrix(1 0 0 -1 74.68 702.75)" fill="#000000" font-family="Helvetica" font-size="9.5px" font-weight="bold"><tspan x="0 6.8590002 9.5 14.782 17.423 23.759501 27.455 32.737 35.900501 41.182499 44.877998 50.16 55.9645 59.127998 61.769001 67.051003 69.692001 72.333 74.973999 80.255997 86.060501 91.342499 94.505997 99.788002 102.9515 105.5925 112.9835 118.788 124.07 127.7655 133.0475 135.68851 140.9705 146.77499 149.93851 155.2205 158.916 161.55701 166.6015 171.8835 174.52451 177.688 180.32899 188.77451 194.38901 199.67101 204.953 213.3985 218.6805 224.485 227.6485 232.9305 235.5715 240.8535 244.549 249.83099 252.472 258.8085 265.14499 272.004 279.91751 282.5585 288.36301 294.16751 300.504" y="0">C – Preferential lane(s) where enter/exit movements are PERMITTED</tspan></text><text transform="matrix(1 0 0 -1 502.12 678.11)" fill="#000000" font-family="Helvetica" font-size="9px"><tspan x="0 8.4960003 10.494 15.498 20.502001 23.004 28.007999 31.004999 36.008999 40.328999 45.333" y="0">Wide broken</tspan><tspan x="0 4.5 6.4980001 11.502 16.506001 18.504 23.507999 26.01 32.507999 37.512001 39.509998 42.012001" y="9.5039997">single white</tspan><tspan x="0 1.998 7.0019999 12.006 17.01 19.511999 21.51 23.507999 28.511999 33.515999" y="19.007999">lane lines</tspan></text><g clip-path="url(#i)"><g transform="translate(485.03 653.05)"><path d="m0 0 15.802 23.303-16.263-12.784" fill="none" stroke="#000" stroke-width=".75"/></g><g transform="translate(483.84 662.21)"><path d="m0 0c0.966 0.378 1.642 0.559 2.466 0.8l-1.871 2.379c-0.14-0.282-0.764-1.358-1.359-2.207-0.637-0.908-1.258-1.676-1.7-2.123 0.539 0.324 1.431 0.747 2.464 1.151"/></g><g transform="translate(484.75 651.54)"><path d="m0 0c0.805 0.653 1.394 1.032 2.105 1.511l-2.505 1.699c-0.047-0.312-0.315-1.527-0.624-2.516-0.331-1.059-0.689-1.979-0.974-2.539 0.415 0.473 1.137 1.146 1.998 1.845"/></g></g><text transform="matrix(1 0 0 -1 502.12 629.12)" fill="#000000" font-family="Helvetica" font-size="9px"><tspan x="0 6.0029998 11.007 13.509 15.741 20.745001 23.742001 26.243999 30.743999 35.748001 40.751999 45.251999" y="0">Buffer space</tspan></text><g clip-path="url(#h)"><g transform="translate(500.87 631.79)"><path d="m0 0-61.979 22.206" fill="none" stroke="#000" stroke-width=".75"/></g><g transform="translate(437.35 653.89)"><path d="m0 0c0.832-0.617 1.347-1.094 1.988-1.663l1.021 2.85c-0.314-0.032-1.557-0.076-2.592-0.023-1.108 0.057-2.087 0.174-2.702 0.312 0.562-0.285 1.394-0.816 2.285-1.476"/></g></g><text transform="matrix(1 0 0 -1 502.12 538.52)" fill="#000000" font-family="Helvetica" font-size="9px"><tspan x="0 8.4960003 10.494 15.498 20.502001 23.004 28.007999 31.004999 36.008999 40.328999 45.333" y="0">Wide broken</tspan><tspan x="0 4.5 6.4980001 11.502 16.506001 18.504 23.507999 26.01 32.507999 37.512001 39.509998 42.012001" y="9.5039997">single white</tspan><tspan x="0 1.998 7.0019999 12.006 17.01 19.511999 21.51 23.507999 28.511999" y="19.007999">lane line</tspan></text><g clip-path="url(#g)"><g transform="translate(501.7 531.09)"><path d="m0 0-14.214-8.873" fill="none" stroke="#000" stroke-width=".75"/></g><g transform="translate(486.61 520.95)"><path d="m0 0c1.001 0.271 1.694 0.379 2.538 0.529l-1.602 2.567c-0.17-0.265-0.907-1.268-1.59-2.047-0.731-0.834-1.432-1.53-1.92-1.927 0.571 0.264 1.504 0.588 2.574 0.878"/></g></g><text transform="matrix(1 0 0 -1 502.12 499.94)" fill="#000000" font-family="Helvetica" font-size="9px"><tspan x="0 8.4960003 10.494 15.498 20.502001 23.499001 26.000999 27.999001 33.002998 38.007 43.011002" y="0">Wider lanes</tspan></text><g clip-path="url(#f)"><g transform="translate(500.87 502.61)"><path d="m0 0-50.518 28.543" fill="none" stroke="#000" stroke-width=".75"/></g><g transform="translate(448.82 531.32)"><path d="m0 0c0.716-0.749 1.142-1.306 1.678-1.976l1.488 2.635c-0.314 0.023-1.547 0.191-2.557 0.418-1.082 0.243-2.029 0.525-2.611 0.764 0.505-0.375 1.236-1.04 2.002-1.841"/></g><g transform="translate(500.87 502.61)"><path d="m0 0-49.463 5.844" fill="none" stroke="#000" stroke-width=".75"/></g><g transform="translate(449.93 508.01)"><path d="m0 0c0.95-0.414 1.557-0.764 2.31-1.175l0.356 3.006c-0.299-0.101-1.501-0.423-2.521-0.603-1.093-0.195-2.074-0.299-2.703-0.304 0.61-0.151 1.541-0.481 2.558-0.924"/></g><g transform="translate(75.358 225.27)"><path d="m0 0h6.354v1.559l4.377-2.577-4.377-2.398v1.439h-6.354z"/></g><g transform="translate(99.081 233.46)"><path d="m0 0h29.291" fill="none" stroke="#000" stroke-width=".75"/></g></g><text transform="matrix(1 0 0 -1 98.614 236.41)" fill="#000000" font-family="Helvetica" font-size="9px"><tspan x="0 5.0040002 10.008 15.012 20.016001 25.02" y="0">Legend</tspan><tspan x="-7.4790001 -0.98100001 1.017 4.0139999 9.0179996 13.518 16.02 18.018 23.021999 28.025999 30.528 35.532001 38.034 40.535999 43.037998 45.945 50.769001 55.043999 60.048" y="15.354">Direction of travel</tspan></text><g clip-path="url(#e)"><g transform="translate(365.8 225.34)"><path d="m0 0-2.35-0.716 1.544-2.17-1.41-0.985-1.522 2.037-1.544-2.037-1.41 0.985 1.522 2.17-2.327 0.716 0.514 1.635 2.282-0.762v2.665h1.903v-2.665l2.261 0.762z"/></g><g transform="translate(357.57 225.34)"><path d="m0 0-2.349-0.716 1.543-2.17-1.41-0.985-1.521 2.037-1.544-2.037-1.41 0.985 1.521 2.17-2.327 0.716 0.515 1.635 2.282-0.762v2.665h1.902v-2.665l2.261 0.762z"/></g><g transform="translate(365.8 259.58)"><path d="m0 0-2.35-0.714 1.544-2.172-1.41-0.985-1.522 2.037-1.544-2.037-1.41 0.985 1.522 2.172-2.327 0.714 0.514 1.635 2.282-0.761v2.664h1.903v-2.664l2.261 0.761z"/></g></g><text transform="matrix(1 0 0 -1 370.85 256.51)" fill="#000000" font-family="Helvetica" font-size="9px"><tspan x="0 2.5020001 5.0040002 7.506 12.51 17.514 20.016001 25.02 30.024 33.021 36.153 38.151001 43.154999 46.152 48.653999 53.658001 56.654999 59.157001 66.653999 71.657997 76.662003 78.660004 83.664001 88.667999 91.169998 93.167999 97.667999 100.17 105.174 108.171 113.175 117.675 122.679 127.683 130.185 132.687 137.69099 142.69501 147.69901 150.201 152.703 157.707 162.711 165.213 167.211 172.215 174.717 177.21899" y="0">If no barrier or median is present and the left-</tspan><tspan x="-2.5020001 0 5.0040002 10.008 15.012 20.016001 22.518 27.018 29.016001 34.02 39.023998 41.526001 46.529999 49.032001 51.534 54.035999 59.040001 64.043999 66.545998 68.543999 73.547997 78.552002 83.556 86.057999 88.056 92.556 95.057999 97.559998 102.564 107.568 110.07 114.57 119.574 124.578 127.08 132.084 135.08099 137.58299 139.58099 141.57899 146.58299 151.58701 154.089 159.093 161.595 164.097 169.101" y="9.5039997"> hand side of the lane is the center line of a </tspan><tspan x="0 2.5020001 9 14.004 17.000999 23.274 28.007999 32.507999 35.009998 38.007 43.011002 48.014999 53.019001 59.382 64.115997 67.716003 70.218002 72.720001 77.723999 82.223999 87.227997 89.730003 94.734001 97.236 102.24 107.244 112.248 117.072 119.07 124.074 126.576 130.896 135.89999 137.89799 139.896 144.765 151.263 153.765 158.265 163.269 168.27299 170.77499 175.77901 178.776 181.278 183.276 185.274 190.278" y="19.007999">two-way roadway, use a double yellow center line</tspan><tspan x="-0.081 5.9219999 10.422 15.426 22.923 27.927 29.924999 34.929001 37.431 42.435001 44.937 47.438999 52.263 57.266998 61.766998 64.268997 66.266998 71.271004 76.275002 81.278999 83.780998 90.278999 95.282997 98.279999 103.284 105.786 113.283 118.287 121.329 125.829 127.827 132.83099 137.83501" y="34.856998">Example of bus lane word markings</tspan></text><g clip-path="url(#d)"><g transform="translate(495.37 344.95)"><path d="m0 0h-158.7m178.29 5.535h-178.29m158.7-21.94h-158.7m158.56 5.536h-158.56" fill="none" stroke="#fff" stroke-width="4"/></g><g transform="translate(496.34 362.04)"><path d="m0 0-12.621-9.692" fill="none" stroke="#000" stroke-width=".75"/></g><g transform="translate(482.97 351)"><path d="m0 0c0.968 0.366 1.648 0.54 2.473 0.771l-1.843 2.4c-0.143-0.28-0.78-1.349-1.384-2.191-0.647-0.901-1.277-1.661-1.724-2.103 0.543 0.318 1.439 0.73 2.478 1.123"/></g><g transform="translate(496.34 362.04)"><path d="m0 0-6.779-24.438" fill="none" stroke="#000" stroke-width=".75"/></g><g transform="translate(489.77 336.07)"><path d="m0 0c0.554 0.876 0.992 1.424 1.513 2.105l-2.917 0.809c0.055-0.311 0.189-1.547 0.213-2.583 0.025-1.11-0.021-2.096-0.112-2.718 0.242 0.581 0.71 1.449 1.303 2.387"/></g></g><text transform="matrix(1 0 0 -1 497.66 375.76)" fill="#000000" font-family="Helvetica" font-size="9px"><tspan x="0 8.4960003 10.494 15.498 20.502001 23.004 27.504 32.507999 34.506001 36.504002" y="0">Wide solid</tspan><tspan x="0 5.0040002 10.008 15.012 19.836 21.834 26.837999 29.34 35.838001 40.841999 42.84 45.341999" y="9.5039997">double white</tspan><tspan x="0 1.998 7.0019999 12.006 17.01 19.511999 21.51 23.507999 28.511999 33.515999" y="19.007999">lane lines</tspan><tspan x="0 2.997 7.4970002 10.494 15.498 19.997999 24.497999 26.496 31.5" y="28.511999">(crossing</tspan><tspan x="0 6.0029998 12.321 19.323 25.820999 28.323 34.326 36.827999 42.327 48.330002 54.827999" y="38.015999">PROHIBITED)</tspan></text><g clip-path="url(#c)"><g transform="translate(496.59 318.18)"><path d="m0 0-27.851 19.686" fill="none" stroke="#000" stroke-width=".75"/></g><g transform="translate(467.23 338.18)"><path d="m0 0c0.637-0.817 1.004-1.414 1.47-2.135l1.747 2.472c-0.311 0.054-1.52 0.345-2.504 0.673-1.052 0.352-1.965 0.728-2.519 1.024 0.465-0.424 1.124-1.159 1.806-2.034"/></g></g><text transform="matrix(1 0 0 -1 497.66 315.25)" fill="#000000" font-family="Helvetica" font-size="9px"><tspan x="0 6.0029998 11.007 13.509 15.741 20.745001 23.742001 26.243999 30.743999 35.748001 40.751999 45.251999" y="0">Buffer space</tspan><tspan x="-211.095 -205.59599 -200.592 -198.59399 -194.09399 -191.592 -184.095 -179.091 -175.959 -171.459 -169.461 -164.457 -159.453 -156.951 -151.94701 -146.94299 -144.44099 -141.939 -136.935 -133.713 -128.709 -126.207 -124.209 -119.709 -117.207 -114.975 -109.98 -106.992 -104.499 -99.503998 -95.013 -90.017998 -87.525002 -85.536003 -80.541 -78.047997 -71.558998 -66.564003 -61.722 -57.222 -55.223999 -50.220001 -45.216 -42.714001 -37.709999 -34.713001 -29.709 -24.705 -20.205 -17.702999 -12.699 -7.6950002 -5.697" y="-239.526">This marking pattern is for use in weaving areas only</tspan></text><g clip-path="url(#b)"><g transform="translate(402.22 552.72)"><path d="m0 0-28.429-29.837" fill="none" stroke="#000" stroke-width=".75"/></g><g transform="translate(373.26 521.43)"><path d="m0 0c0.901 0.512 1.545 0.788 2.326 1.144l-2.192 2.088c-0.098-0.3-0.562-1.454-1.03-2.379-0.5-0.99-1.005-1.838-1.379-2.344 0.487 0.398 1.31 0.944 2.275 1.491"/></g><g transform="translate(276.29 240.02)"><path d="m0 0 22.531 61.033-12.635 29.744 14.167 38.473-12.52 28.412 14.054 39.805 11.377-1.106-14.054-39.804 12.468-28.268 0.053-0.144-14.053-39.803 12.521-28.414-27.592-74.848" fill="#fff" stroke="#000" stroke-width=".958"/></g><path d="m318.08 423.56h-25.501v22.389h25.501z" fill="#fff"/></g><text transform="matrix(1 0 0 -1 74.834 422.35)" fill="#000000" font-family="Helvetica" font-size="9.5px" font-weight="bold"><tspan x="0 6.8590002 9.5 14.782 17.423 24.282 26.923 32.727501 38.532001 41.695499 44.859001 50.663502 55.945499 61.75 67.554497 70.195503 75.477501 78.1185 83.922997 89.205002 91.846001 97.650497 101.346 106.628 109.7915 115.0735 118.769 124.051 129.8555 133.019 135.66 140.942 143.58299 146.224 148.86501 154.147 159.95151 165.23351 168.397 173.679" y="0">D – Right-hand side preferential lane(s)</tspan></text><g clip-path="url(#a)"><g transform="translate(268.03 421.01)"><path d="m0 0s-127.19-23.785-171.3-74.378" fill="none" stroke="#000" stroke-width=".75"/></g><g transform="translate(96.266 345.16)"><path d="m0 0c0.878 0.551 1.51 0.855 2.273 1.246l-2.281 1.988c-0.085-0.303-0.498-1.476-0.924-2.421-0.456-1.012-0.923-1.881-1.274-2.403 0.469 0.419 1.267 1.001 2.206 1.59"/></g></g><text transform="matrix(1 0 0 -1 268.67 427.97)" fill="#000000" font-family="Helvetica" font-size="9px"><tspan x="0 6.0029998 11.007 13.509 15.741 20.745001" y="0">Buffer</tspan><tspan x="0 4.5 9.5039997 14.508 19.007999" y="9.5039997">space</tspan></text></g></svg>
