<?xml version="1.0" encoding="UTF-8"?>
<svg width="683.36" height="703.66" version="1.1" viewBox="0 0 683.36 703.66" xml:space="preserve" xmlns="http://www.w3.org/2000/svg"><defs><clipPath id="ar"><path d="m27.735 186.34h557.26v551.66h-557.26z"/></clipPath><clipPath id="aq"><path d="m0 0h9.609v3.097h-9.609z"/></clipPath><clipPath id="ap"><path d="m0 0h9.609v3.097h-9.609z"/></clipPath><pattern id="i" width="9.60941" height="3.09668" patternTransform="translate(-41.643 128.56)" patternUnits="userSpaceOnUse"><g clip-path="url(#aq)"><g transform="translate(1.6191 3.0967)"><path d="m0 0c0 0.228-0.186 0.413-0.413 0.413-0.228 0-0.413-0.185-0.413-0.413s0.185-0.412 0.413-0.412c0.227 0 0.413 0.184 0.413 0.412m0.25 0c0-0.365-0.298-0.662-0.663-0.662s-0.663 0.297-0.663 0.662 0.298 0.663 0.663 0.663 0.663-0.298 0.663-0.663"/></g><g transform="translate(4.0205 3.0967)"><path d="m0 0c0 0.228-0.186 0.413-0.413 0.413-0.228 0-0.413-0.185-0.413-0.413s0.185-0.412 0.413-0.412c0.227 0 0.413 0.184 0.413 0.412m0.25 0c0-0.365-0.298-0.662-0.663-0.662s-0.663 0.297-0.663 0.662 0.298 0.663 0.663 0.663 0.663-0.298 0.663-0.663"/></g><g transform="translate(6.4219 3.0967)"><path d="m0 0c0 0.228-0.186 0.413-0.413 0.413-0.228 0-0.413-0.185-0.413-0.413s0.185-0.412 0.413-0.412c0.227 0 0.413 0.184 0.413 0.412m0.25 0c0-0.365-0.298-0.662-0.663-0.662s-0.663 0.297-0.663 0.662 0.298 0.663 0.663 0.663 0.663-0.298 0.663-0.663"/></g><g transform="translate(8.8232 3.0967)"><path d="m0 0c0 0.228-0.186 0.413-0.413 0.413-0.228 0-0.413-0.185-0.413-0.413s0.185-0.412 0.413-0.412c0.227 0 0.413 0.184 0.413 0.412m0.25 0c0-0.365-0.298-0.662-0.663-0.662s-0.663 0.297-0.663 0.662 0.298 0.663 0.663 0.663 0.663-0.298 0.663-0.663"/></g><g transform="translate(1.6182)"><path d="m0 0c0 0.228-0.186 0.413-0.413 0.413-0.228 0-0.413-0.185-0.413-0.413s0.185-0.412 0.413-0.412c0.227 0 0.413 0.184 0.413 0.412m0.25 0c0-0.365-0.298-0.662-0.663-0.662s-0.663 0.297-0.663 0.662 0.298 0.663 0.663 0.663 0.663-0.298 0.663-0.663"/></g><g transform="translate(4.0195)"><path d="m0 0c0 0.228-0.186 0.413-0.413 0.413-0.228 0-0.413-0.185-0.413-0.413s0.185-0.412 0.413-0.412c0.227 0 0.413 0.184 0.413 0.412m0.25 0c0-0.365-0.298-0.662-0.663-0.662s-0.663 0.297-0.663 0.662 0.298 0.663 0.663 0.663 0.663-0.298 0.663-0.663"/></g><g transform="translate(6.4209)"><path d="m0 0c0 0.228-0.186 0.413-0.413 0.413-0.228 0-0.413-0.185-0.413-0.413s0.185-0.412 0.413-0.412c0.227 0 0.413 0.184 0.413 0.412m0.25 0c0-0.365-0.298-0.662-0.663-0.662s-0.663 0.297-0.663 0.662 0.298 0.663 0.663 0.663 0.663-0.298 0.663-0.663"/></g><g transform="translate(8.8223)"><path d="m0 0c0 0.228-0.186 0.413-0.413 0.413-0.228 0-0.413-0.185-0.413-0.413s0.185-0.412 0.413-0.412c0.227 0 0.413 0.184 0.413 0.412m0.25 0c0-0.365-0.298-0.662-0.663-0.662s-0.663 0.297-0.663 0.662 0.298 0.663 0.663 0.663 0.663-0.298 0.663-0.663"/></g><g transform="translate(10.022 1.5479)"><path d="m0 0c0 0.228-0.185 0.413-0.413 0.413s-0.413-0.185-0.413-0.413 0.185-0.412 0.413-0.412 0.413 0.184 0.413 0.412m0.25 0c0-0.365-0.298-0.662-0.663-0.662s-0.663 0.297-0.663 0.662 0.298 0.663 0.663 0.663 0.663-0.298 0.663-0.663"/></g></g><g transform="translate(7.6201 1.5479)"><path d="m0 0c0 0.228-0.186 0.413-0.413 0.413-0.228 0-0.413-0.185-0.413-0.413s0.185-0.412 0.413-0.412c0.227 0 0.413 0.184 0.413 0.412m0.25 0c0-0.365-0.298-0.662-0.663-0.662s-0.663 0.297-0.663 0.662 0.298 0.663 0.663 0.663 0.663-0.298 0.663-0.663"/></g><g transform="translate(5.2178 1.5479)"><path d="m0 0c0 0.228-0.186 0.413-0.413 0.413-0.228 0-0.413-0.185-0.413-0.413s0.185-0.412 0.413-0.412c0.227 0 0.413 0.184 0.413 0.412m0.25 0c0-0.365-0.298-0.662-0.663-0.662s-0.663 0.297-0.663 0.662 0.298 0.663 0.663 0.663 0.663-0.298 0.663-0.663"/></g><g clip-path="url(#ap)"><g transform="translate(2.8154 1.5479)"><path d="m0 0c0 0.228-0.186 0.413-0.413 0.413-0.228 0-0.413-0.185-0.413-0.413s0.185-0.412 0.413-0.412c0.227 0 0.413 0.184 0.413 0.412m0.25 0c0-0.365-0.298-0.662-0.663-0.662s-0.663 0.297-0.663 0.662 0.298 0.663 0.663 0.663 0.663-0.298 0.663-0.663"/></g><g transform="translate(.4131 1.5479)"><path d="m0 0c0 0.228-0.186 0.413-0.413 0.413-0.228 0-0.413-0.185-0.413-0.413s0.185-0.412 0.413-0.412c0.227 0 0.413 0.184 0.413 0.412m0.25 0c0-0.365-0.298-0.662-0.663-0.662s-0.663 0.297-0.663 0.662 0.298 0.663 0.663 0.663 0.663-0.298 0.663-0.663"/></g></g></pattern><clipPath id="ao"><path d="m0 0h9.609v3.097h-9.609z"/></clipPath><clipPath id="an"><path d="m0 0h9.609v3.097h-9.609z"/></clipPath><pattern id="h" width="9.60941" height="3.09668" patternTransform="translate(-41.643 128.56)" patternUnits="userSpaceOnUse"><g clip-path="url(#ao)"><g transform="translate(1.6191 3.0967)"><path d="m0 0c0 0.228-0.186 0.413-0.413 0.413-0.228 0-0.413-0.185-0.413-0.413s0.185-0.412 0.413-0.412c0.227 0 0.413 0.184 0.413 0.412m0.25 0c0-0.365-0.298-0.662-0.663-0.662s-0.663 0.297-0.663 0.662 0.298 0.663 0.663 0.663 0.663-0.298 0.663-0.663"/></g><g transform="translate(4.0205 3.0967)"><path d="m0 0c0 0.228-0.186 0.413-0.413 0.413-0.228 0-0.413-0.185-0.413-0.413s0.185-0.412 0.413-0.412c0.227 0 0.413 0.184 0.413 0.412m0.25 0c0-0.365-0.298-0.662-0.663-0.662s-0.663 0.297-0.663 0.662 0.298 0.663 0.663 0.663 0.663-0.298 0.663-0.663"/></g><g transform="translate(6.4219 3.0967)"><path d="m0 0c0 0.228-0.186 0.413-0.413 0.413-0.228 0-0.413-0.185-0.413-0.413s0.185-0.412 0.413-0.412c0.227 0 0.413 0.184 0.413 0.412m0.25 0c0-0.365-0.298-0.662-0.663-0.662s-0.663 0.297-0.663 0.662 0.298 0.663 0.663 0.663 0.663-0.298 0.663-0.663"/></g><g transform="translate(8.8232 3.0967)"><path d="m0 0c0 0.228-0.186 0.413-0.413 0.413-0.228 0-0.413-0.185-0.413-0.413s0.185-0.412 0.413-0.412c0.227 0 0.413 0.184 0.413 0.412m0.25 0c0-0.365-0.298-0.662-0.663-0.662s-0.663 0.297-0.663 0.662 0.298 0.663 0.663 0.663 0.663-0.298 0.663-0.663"/></g><g transform="translate(1.6182)"><path d="m0 0c0 0.228-0.186 0.413-0.413 0.413-0.228 0-0.413-0.185-0.413-0.413s0.185-0.412 0.413-0.412c0.227 0 0.413 0.184 0.413 0.412m0.25 0c0-0.365-0.298-0.662-0.663-0.662s-0.663 0.297-0.663 0.662 0.298 0.663 0.663 0.663 0.663-0.298 0.663-0.663"/></g><g transform="translate(4.0195)"><path d="m0 0c0 0.228-0.186 0.413-0.413 0.413-0.228 0-0.413-0.185-0.413-0.413s0.185-0.412 0.413-0.412c0.227 0 0.413 0.184 0.413 0.412m0.25 0c0-0.365-0.298-0.662-0.663-0.662s-0.663 0.297-0.663 0.662 0.298 0.663 0.663 0.663 0.663-0.298 0.663-0.663"/></g><g transform="translate(6.4209)"><path d="m0 0c0 0.228-0.186 0.413-0.413 0.413-0.228 0-0.413-0.185-0.413-0.413s0.185-0.412 0.413-0.412c0.227 0 0.413 0.184 0.413 0.412m0.25 0c0-0.365-0.298-0.662-0.663-0.662s-0.663 0.297-0.663 0.662 0.298 0.663 0.663 0.663 0.663-0.298 0.663-0.663"/></g><g transform="translate(8.8223)"><path d="m0 0c0 0.228-0.186 0.413-0.413 0.413-0.228 0-0.413-0.185-0.413-0.413s0.185-0.412 0.413-0.412c0.227 0 0.413 0.184 0.413 0.412m0.25 0c0-0.365-0.298-0.662-0.663-0.662s-0.663 0.297-0.663 0.662 0.298 0.663 0.663 0.663 0.663-0.298 0.663-0.663"/></g><g transform="translate(10.022 1.5479)"><path d="m0 0c0 0.228-0.185 0.413-0.413 0.413s-0.413-0.185-0.413-0.413 0.185-0.412 0.413-0.412 0.413 0.184 0.413 0.412m0.25 0c0-0.365-0.298-0.662-0.663-0.662s-0.663 0.297-0.663 0.662 0.298 0.663 0.663 0.663 0.663-0.298 0.663-0.663"/></g></g><g transform="translate(7.6201 1.5479)"><path d="m0 0c0 0.228-0.186 0.413-0.413 0.413-0.228 0-0.413-0.185-0.413-0.413s0.185-0.412 0.413-0.412c0.227 0 0.413 0.184 0.413 0.412m0.25 0c0-0.365-0.298-0.662-0.663-0.662s-0.663 0.297-0.663 0.662 0.298 0.663 0.663 0.663 0.663-0.298 0.663-0.663"/></g><g transform="translate(5.2178 1.5479)"><path d="m0 0c0 0.228-0.186 0.413-0.413 0.413-0.228 0-0.413-0.185-0.413-0.413s0.185-0.412 0.413-0.412c0.227 0 0.413 0.184 0.413 0.412m0.25 0c0-0.365-0.298-0.662-0.663-0.662s-0.663 0.297-0.663 0.662 0.298 0.663 0.663 0.663 0.663-0.298 0.663-0.663"/></g><g clip-path="url(#an)"><g transform="translate(2.8154 1.5479)"><path d="m0 0c0 0.228-0.186 0.413-0.413 0.413-0.228 0-0.413-0.185-0.413-0.413s0.185-0.412 0.413-0.412c0.227 0 0.413 0.184 0.413 0.412m0.25 0c0-0.365-0.298-0.662-0.663-0.662s-0.663 0.297-0.663 0.662 0.298 0.663 0.663 0.663 0.663-0.298 0.663-0.663"/></g><g transform="translate(.4131 1.5479)"><path d="m0 0c0 0.228-0.186 0.413-0.413 0.413-0.228 0-0.413-0.185-0.413-0.413s0.185-0.412 0.413-0.412c0.227 0 0.413 0.184 0.413 0.412m0.25 0c0-0.365-0.298-0.662-0.663-0.662s-0.663 0.297-0.663 0.662 0.298 0.663 0.663 0.663 0.663-0.298 0.663-0.663"/></g></g></pattern><clipPath id="am"><path d="m27.735 186.34h557.26v551.66h-557.26z"/></clipPath><clipPath id="al"><path d="m27.735 186.34h557.26v551.66h-557.26z"/></clipPath><clipPath id="ak"><path d="m27.735 186.34h557.26v551.66h-557.26z"/></clipPath><clipPath id="aj"><path d="m0 0h9.609v3.097h-9.609z"/></clipPath><clipPath id="ai"><path d="m0 0h9.609v3.097h-9.609z"/></clipPath><pattern id="g" width="9.60941" height="3.09668" patternTransform="translate(-146.17 255.38)" patternUnits="userSpaceOnUse"><g clip-path="url(#aj)"><g transform="translate(1.6191 3.0967)"><path d="m0 0c0 0.228-0.186 0.413-0.413 0.413-0.228 0-0.413-0.185-0.413-0.413s0.185-0.412 0.413-0.412c0.227 0 0.413 0.184 0.413 0.412m0.25 0c0-0.365-0.298-0.662-0.663-0.662s-0.663 0.297-0.663 0.662 0.298 0.663 0.663 0.663 0.663-0.298 0.663-0.663"/></g><g transform="translate(4.0205 3.0967)"><path d="m0 0c0 0.228-0.186 0.413-0.413 0.413-0.228 0-0.413-0.185-0.413-0.413s0.185-0.412 0.413-0.412c0.227 0 0.413 0.184 0.413 0.412m0.25 0c0-0.365-0.298-0.662-0.663-0.662s-0.663 0.297-0.663 0.662 0.298 0.663 0.663 0.663 0.663-0.298 0.663-0.663"/></g><g transform="translate(6.4219 3.0967)"><path d="m0 0c0 0.228-0.186 0.413-0.413 0.413-0.228 0-0.413-0.185-0.413-0.413s0.185-0.412 0.413-0.412c0.227 0 0.413 0.184 0.413 0.412m0.25 0c0-0.365-0.298-0.662-0.663-0.662s-0.663 0.297-0.663 0.662 0.298 0.663 0.663 0.663 0.663-0.298 0.663-0.663"/></g><g transform="translate(8.8232 3.0967)"><path d="m0 0c0 0.228-0.186 0.413-0.413 0.413-0.228 0-0.413-0.185-0.413-0.413s0.185-0.412 0.413-0.412c0.227 0 0.413 0.184 0.413 0.412m0.25 0c0-0.365-0.298-0.662-0.663-0.662s-0.663 0.297-0.663 0.662 0.298 0.663 0.663 0.663 0.663-0.298 0.663-0.663"/></g><g transform="translate(1.6182)"><path d="m0 0c0 0.228-0.186 0.413-0.413 0.413-0.228 0-0.413-0.185-0.413-0.413s0.185-0.412 0.413-0.412c0.227 0 0.413 0.184 0.413 0.412m0.25 0c0-0.365-0.298-0.662-0.663-0.662s-0.663 0.297-0.663 0.662 0.298 0.663 0.663 0.663 0.663-0.298 0.663-0.663"/></g><g transform="translate(4.0195)"><path d="m0 0c0 0.228-0.186 0.413-0.413 0.413-0.228 0-0.413-0.185-0.413-0.413s0.185-0.412 0.413-0.412c0.227 0 0.413 0.184 0.413 0.412m0.25 0c0-0.365-0.298-0.662-0.663-0.662s-0.663 0.297-0.663 0.662 0.298 0.663 0.663 0.663 0.663-0.298 0.663-0.663"/></g><g transform="translate(6.4209)"><path d="m0 0c0 0.228-0.186 0.413-0.413 0.413-0.228 0-0.413-0.185-0.413-0.413s0.185-0.412 0.413-0.412c0.227 0 0.413 0.184 0.413 0.412m0.25 0c0-0.365-0.298-0.662-0.663-0.662s-0.663 0.297-0.663 0.662 0.298 0.663 0.663 0.663 0.663-0.298 0.663-0.663"/></g><g transform="translate(8.8223)"><path d="m0 0c0 0.228-0.186 0.413-0.413 0.413-0.228 0-0.413-0.185-0.413-0.413s0.185-0.412 0.413-0.412c0.227 0 0.413 0.184 0.413 0.412m0.25 0c0-0.365-0.298-0.662-0.663-0.662s-0.663 0.297-0.663 0.662 0.298 0.663 0.663 0.663 0.663-0.298 0.663-0.663"/></g><g transform="translate(10.022 1.5479)"><path d="m0 0c0 0.228-0.185 0.413-0.413 0.413s-0.413-0.185-0.413-0.413 0.185-0.412 0.413-0.412 0.413 0.184 0.413 0.412m0.25 0c0-0.365-0.298-0.662-0.663-0.662s-0.663 0.297-0.663 0.662 0.298 0.663 0.663 0.663 0.663-0.298 0.663-0.663"/></g></g><g transform="translate(7.6201 1.5479)"><path d="m0 0c0 0.228-0.186 0.413-0.413 0.413-0.228 0-0.413-0.185-0.413-0.413s0.185-0.412 0.413-0.412c0.227 0 0.413 0.184 0.413 0.412m0.25 0c0-0.365-0.298-0.662-0.663-0.662s-0.663 0.297-0.663 0.662 0.298 0.663 0.663 0.663 0.663-0.298 0.663-0.663"/></g><g transform="translate(5.2178 1.5479)"><path d="m0 0c0 0.228-0.186 0.413-0.413 0.413-0.228 0-0.413-0.185-0.413-0.413s0.185-0.412 0.413-0.412c0.227 0 0.413 0.184 0.413 0.412m0.25 0c0-0.365-0.298-0.662-0.663-0.662s-0.663 0.297-0.663 0.662 0.298 0.663 0.663 0.663 0.663-0.298 0.663-0.663"/></g><g clip-path="url(#ai)"><g transform="translate(2.8154 1.5479)"><path d="m0 0c0 0.228-0.186 0.413-0.413 0.413-0.228 0-0.413-0.185-0.413-0.413s0.185-0.412 0.413-0.412c0.227 0 0.413 0.184 0.413 0.412m0.25 0c0-0.365-0.298-0.662-0.663-0.662s-0.663 0.297-0.663 0.662 0.298 0.663 0.663 0.663 0.663-0.298 0.663-0.663"/></g><g transform="translate(.4131 1.5479)"><path d="m0 0c0 0.228-0.186 0.413-0.413 0.413-0.228 0-0.413-0.185-0.413-0.413s0.185-0.412 0.413-0.412c0.227 0 0.413 0.184 0.413 0.412m0.25 0c0-0.365-0.298-0.662-0.663-0.662s-0.663 0.297-0.663 0.662 0.298 0.663 0.663 0.663 0.663-0.298 0.663-0.663"/></g></g></pattern><clipPath id="ah"><path d="m0 0h9.609v3.097h-9.609z"/></clipPath><clipPath id="ag"><path d="m0 0h9.609v3.097h-9.609z"/></clipPath><pattern id="f" width="9.60941" height="3.09668" patternTransform="translate(-146.17 255.38)" patternUnits="userSpaceOnUse"><g clip-path="url(#ah)"><g transform="translate(1.6191 3.0967)"><path d="m0 0c0 0.228-0.186 0.413-0.413 0.413-0.228 0-0.413-0.185-0.413-0.413s0.185-0.412 0.413-0.412c0.227 0 0.413 0.184 0.413 0.412m0.25 0c0-0.365-0.298-0.662-0.663-0.662s-0.663 0.297-0.663 0.662 0.298 0.663 0.663 0.663 0.663-0.298 0.663-0.663"/></g><g transform="translate(4.0205 3.0967)"><path d="m0 0c0 0.228-0.186 0.413-0.413 0.413-0.228 0-0.413-0.185-0.413-0.413s0.185-0.412 0.413-0.412c0.227 0 0.413 0.184 0.413 0.412m0.25 0c0-0.365-0.298-0.662-0.663-0.662s-0.663 0.297-0.663 0.662 0.298 0.663 0.663 0.663 0.663-0.298 0.663-0.663"/></g><g transform="translate(6.4219 3.0967)"><path d="m0 0c0 0.228-0.186 0.413-0.413 0.413-0.228 0-0.413-0.185-0.413-0.413s0.185-0.412 0.413-0.412c0.227 0 0.413 0.184 0.413 0.412m0.25 0c0-0.365-0.298-0.662-0.663-0.662s-0.663 0.297-0.663 0.662 0.298 0.663 0.663 0.663 0.663-0.298 0.663-0.663"/></g><g transform="translate(8.8232 3.0967)"><path d="m0 0c0 0.228-0.186 0.413-0.413 0.413-0.228 0-0.413-0.185-0.413-0.413s0.185-0.412 0.413-0.412c0.227 0 0.413 0.184 0.413 0.412m0.25 0c0-0.365-0.298-0.662-0.663-0.662s-0.663 0.297-0.663 0.662 0.298 0.663 0.663 0.663 0.663-0.298 0.663-0.663"/></g><g transform="translate(1.6182)"><path d="m0 0c0 0.228-0.186 0.413-0.413 0.413-0.228 0-0.413-0.185-0.413-0.413s0.185-0.412 0.413-0.412c0.227 0 0.413 0.184 0.413 0.412m0.25 0c0-0.365-0.298-0.662-0.663-0.662s-0.663 0.297-0.663 0.662 0.298 0.663 0.663 0.663 0.663-0.298 0.663-0.663"/></g><g transform="translate(4.0195)"><path d="m0 0c0 0.228-0.186 0.413-0.413 0.413-0.228 0-0.413-0.185-0.413-0.413s0.185-0.412 0.413-0.412c0.227 0 0.413 0.184 0.413 0.412m0.25 0c0-0.365-0.298-0.662-0.663-0.662s-0.663 0.297-0.663 0.662 0.298 0.663 0.663 0.663 0.663-0.298 0.663-0.663"/></g><g transform="translate(6.4209)"><path d="m0 0c0 0.228-0.186 0.413-0.413 0.413-0.228 0-0.413-0.185-0.413-0.413s0.185-0.412 0.413-0.412c0.227 0 0.413 0.184 0.413 0.412m0.25 0c0-0.365-0.298-0.662-0.663-0.662s-0.663 0.297-0.663 0.662 0.298 0.663 0.663 0.663 0.663-0.298 0.663-0.663"/></g><g transform="translate(8.8223)"><path d="m0 0c0 0.228-0.186 0.413-0.413 0.413-0.228 0-0.413-0.185-0.413-0.413s0.185-0.412 0.413-0.412c0.227 0 0.413 0.184 0.413 0.412m0.25 0c0-0.365-0.298-0.662-0.663-0.662s-0.663 0.297-0.663 0.662 0.298 0.663 0.663 0.663 0.663-0.298 0.663-0.663"/></g><g transform="translate(10.022 1.5479)"><path d="m0 0c0 0.228-0.185 0.413-0.413 0.413s-0.413-0.185-0.413-0.413 0.185-0.412 0.413-0.412 0.413 0.184 0.413 0.412m0.25 0c0-0.365-0.298-0.662-0.663-0.662s-0.663 0.297-0.663 0.662 0.298 0.663 0.663 0.663 0.663-0.298 0.663-0.663"/></g></g><g transform="translate(7.6201 1.5479)"><path d="m0 0c0 0.228-0.186 0.413-0.413 0.413-0.228 0-0.413-0.185-0.413-0.413s0.185-0.412 0.413-0.412c0.227 0 0.413 0.184 0.413 0.412m0.25 0c0-0.365-0.298-0.662-0.663-0.662s-0.663 0.297-0.663 0.662 0.298 0.663 0.663 0.663 0.663-0.298 0.663-0.663"/></g><g transform="translate(5.2178 1.5479)"><path d="m0 0c0 0.228-0.186 0.413-0.413 0.413-0.228 0-0.413-0.185-0.413-0.413s0.185-0.412 0.413-0.412c0.227 0 0.413 0.184 0.413 0.412m0.25 0c0-0.365-0.298-0.662-0.663-0.662s-0.663 0.297-0.663 0.662 0.298 0.663 0.663 0.663 0.663-0.298 0.663-0.663"/></g><g clip-path="url(#ag)"><g transform="translate(2.8154 1.5479)"><path d="m0 0c0 0.228-0.186 0.413-0.413 0.413-0.228 0-0.413-0.185-0.413-0.413s0.185-0.412 0.413-0.412c0.227 0 0.413 0.184 0.413 0.412m0.25 0c0-0.365-0.298-0.662-0.663-0.662s-0.663 0.297-0.663 0.662 0.298 0.663 0.663 0.663 0.663-0.298 0.663-0.663"/></g><g transform="translate(.4131 1.5479)"><path d="m0 0c0 0.228-0.186 0.413-0.413 0.413-0.228 0-0.413-0.185-0.413-0.413s0.185-0.412 0.413-0.412c0.227 0 0.413 0.184 0.413 0.412m0.25 0c0-0.365-0.298-0.662-0.663-0.662s-0.663 0.297-0.663 0.662 0.298 0.663 0.663 0.663 0.663-0.298 0.663-0.663"/></g></g></pattern><clipPath id="af"><path d="m27.735 186.34h557.26v551.66h-557.26z"/></clipPath><clipPath id="ae"><path d="m27.735 186.34h557.26v551.66h-557.26z"/></clipPath><clipPath id="ad"><path d="m27.735 186.34h557.26v551.66h-557.26z"/></clipPath><clipPath id="ac"><path d="m0 0h9.609v3.097h-9.609z"/></clipPath><clipPath id="ab"><path d="m0 0h9.609v3.097h-9.609z"/></clipPath><pattern id="e" width="9.60941" height="3.09668" patternTransform="translate(-157.68 273.07)" patternUnits="userSpaceOnUse"><g clip-path="url(#ac)"><g transform="translate(1.6191 3.0967)"><path d="m0 0c0 0.228-0.186 0.413-0.413 0.413-0.228 0-0.413-0.185-0.413-0.413s0.185-0.412 0.413-0.412c0.227 0 0.413 0.184 0.413 0.412m0.25 0c0-0.365-0.298-0.662-0.663-0.662s-0.663 0.297-0.663 0.662 0.298 0.663 0.663 0.663 0.663-0.298 0.663-0.663"/></g><g transform="translate(4.0205 3.0967)"><path d="m0 0c0 0.228-0.186 0.413-0.413 0.413-0.228 0-0.413-0.185-0.413-0.413s0.185-0.412 0.413-0.412c0.227 0 0.413 0.184 0.413 0.412m0.25 0c0-0.365-0.298-0.662-0.663-0.662s-0.663 0.297-0.663 0.662 0.298 0.663 0.663 0.663 0.663-0.298 0.663-0.663"/></g><g transform="translate(6.4219 3.0967)"><path d="m0 0c0 0.228-0.186 0.413-0.413 0.413-0.228 0-0.413-0.185-0.413-0.413s0.185-0.412 0.413-0.412c0.227 0 0.413 0.184 0.413 0.412m0.25 0c0-0.365-0.298-0.662-0.663-0.662s-0.663 0.297-0.663 0.662 0.298 0.663 0.663 0.663 0.663-0.298 0.663-0.663"/></g><g transform="translate(8.8232 3.0967)"><path d="m0 0c0 0.228-0.186 0.413-0.413 0.413-0.228 0-0.413-0.185-0.413-0.413s0.185-0.412 0.413-0.412c0.227 0 0.413 0.184 0.413 0.412m0.25 0c0-0.365-0.298-0.662-0.663-0.662s-0.663 0.297-0.663 0.662 0.298 0.663 0.663 0.663 0.663-0.298 0.663-0.663"/></g><g transform="translate(1.6182)"><path d="m0 0c0 0.228-0.186 0.413-0.413 0.413-0.228 0-0.413-0.185-0.413-0.413s0.185-0.412 0.413-0.412c0.227 0 0.413 0.184 0.413 0.412m0.25 0c0-0.365-0.298-0.662-0.663-0.662s-0.663 0.297-0.663 0.662 0.298 0.663 0.663 0.663 0.663-0.298 0.663-0.663"/></g><g transform="translate(4.0195)"><path d="m0 0c0 0.228-0.186 0.413-0.413 0.413-0.228 0-0.413-0.185-0.413-0.413s0.185-0.412 0.413-0.412c0.227 0 0.413 0.184 0.413 0.412m0.25 0c0-0.365-0.298-0.662-0.663-0.662s-0.663 0.297-0.663 0.662 0.298 0.663 0.663 0.663 0.663-0.298 0.663-0.663"/></g><g transform="translate(6.4209)"><path d="m0 0c0 0.228-0.186 0.413-0.413 0.413-0.228 0-0.413-0.185-0.413-0.413s0.185-0.412 0.413-0.412c0.227 0 0.413 0.184 0.413 0.412m0.25 0c0-0.365-0.298-0.662-0.663-0.662s-0.663 0.297-0.663 0.662 0.298 0.663 0.663 0.663 0.663-0.298 0.663-0.663"/></g><g transform="translate(8.8223)"><path d="m0 0c0 0.228-0.186 0.413-0.413 0.413-0.228 0-0.413-0.185-0.413-0.413s0.185-0.412 0.413-0.412c0.227 0 0.413 0.184 0.413 0.412m0.25 0c0-0.365-0.298-0.662-0.663-0.662s-0.663 0.297-0.663 0.662 0.298 0.663 0.663 0.663 0.663-0.298 0.663-0.663"/></g><g transform="translate(10.022 1.5479)"><path d="m0 0c0 0.228-0.185 0.413-0.413 0.413s-0.413-0.185-0.413-0.413 0.185-0.412 0.413-0.412 0.413 0.184 0.413 0.412m0.25 0c0-0.365-0.298-0.662-0.663-0.662s-0.663 0.297-0.663 0.662 0.298 0.663 0.663 0.663 0.663-0.298 0.663-0.663"/></g></g><g transform="translate(7.6201 1.5479)"><path d="m0 0c0 0.228-0.186 0.413-0.413 0.413-0.228 0-0.413-0.185-0.413-0.413s0.185-0.412 0.413-0.412c0.227 0 0.413 0.184 0.413 0.412m0.25 0c0-0.365-0.298-0.662-0.663-0.662s-0.663 0.297-0.663 0.662 0.298 0.663 0.663 0.663 0.663-0.298 0.663-0.663"/></g><g transform="translate(5.2178 1.5479)"><path d="m0 0c0 0.228-0.186 0.413-0.413 0.413-0.228 0-0.413-0.185-0.413-0.413s0.185-0.412 0.413-0.412c0.227 0 0.413 0.184 0.413 0.412m0.25 0c0-0.365-0.298-0.662-0.663-0.662s-0.663 0.297-0.663 0.662 0.298 0.663 0.663 0.663 0.663-0.298 0.663-0.663"/></g><g clip-path="url(#ab)"><g transform="translate(2.8154 1.5479)"><path d="m0 0c0 0.228-0.186 0.413-0.413 0.413-0.228 0-0.413-0.185-0.413-0.413s0.185-0.412 0.413-0.412c0.227 0 0.413 0.184 0.413 0.412m0.25 0c0-0.365-0.298-0.662-0.663-0.662s-0.663 0.297-0.663 0.662 0.298 0.663 0.663 0.663 0.663-0.298 0.663-0.663"/></g><g transform="translate(.4131 1.5479)"><path d="m0 0c0 0.228-0.186 0.413-0.413 0.413-0.228 0-0.413-0.185-0.413-0.413s0.185-0.412 0.413-0.412c0.227 0 0.413 0.184 0.413 0.412m0.25 0c0-0.365-0.298-0.662-0.663-0.662s-0.663 0.297-0.663 0.662 0.298 0.663 0.663 0.663 0.663-0.298 0.663-0.663"/></g></g></pattern><clipPath id="aa"><path d="m0 0h9.609v3.097h-9.609z"/></clipPath><clipPath id="z"><path d="m0 0h9.609v3.097h-9.609z"/></clipPath><pattern id="d" width="9.60941" height="3.09668" patternTransform="translate(-157.68 273.07)" patternUnits="userSpaceOnUse"><g clip-path="url(#aa)"><g transform="translate(1.6191 3.0967)"><path d="m0 0c0 0.228-0.186 0.413-0.413 0.413-0.228 0-0.413-0.185-0.413-0.413s0.185-0.412 0.413-0.412c0.227 0 0.413 0.184 0.413 0.412m0.25 0c0-0.365-0.298-0.662-0.663-0.662s-0.663 0.297-0.663 0.662 0.298 0.663 0.663 0.663 0.663-0.298 0.663-0.663"/></g><g transform="translate(4.0205 3.0967)"><path d="m0 0c0 0.228-0.186 0.413-0.413 0.413-0.228 0-0.413-0.185-0.413-0.413s0.185-0.412 0.413-0.412c0.227 0 0.413 0.184 0.413 0.412m0.25 0c0-0.365-0.298-0.662-0.663-0.662s-0.663 0.297-0.663 0.662 0.298 0.663 0.663 0.663 0.663-0.298 0.663-0.663"/></g><g transform="translate(6.4219 3.0967)"><path d="m0 0c0 0.228-0.186 0.413-0.413 0.413-0.228 0-0.413-0.185-0.413-0.413s0.185-0.412 0.413-0.412c0.227 0 0.413 0.184 0.413 0.412m0.25 0c0-0.365-0.298-0.662-0.663-0.662s-0.663 0.297-0.663 0.662 0.298 0.663 0.663 0.663 0.663-0.298 0.663-0.663"/></g><g transform="translate(8.8232 3.0967)"><path d="m0 0c0 0.228-0.186 0.413-0.413 0.413-0.228 0-0.413-0.185-0.413-0.413s0.185-0.412 0.413-0.412c0.227 0 0.413 0.184 0.413 0.412m0.25 0c0-0.365-0.298-0.662-0.663-0.662s-0.663 0.297-0.663 0.662 0.298 0.663 0.663 0.663 0.663-0.298 0.663-0.663"/></g><g transform="translate(1.6182)"><path d="m0 0c0 0.228-0.186 0.413-0.413 0.413-0.228 0-0.413-0.185-0.413-0.413s0.185-0.412 0.413-0.412c0.227 0 0.413 0.184 0.413 0.412m0.25 0c0-0.365-0.298-0.662-0.663-0.662s-0.663 0.297-0.663 0.662 0.298 0.663 0.663 0.663 0.663-0.298 0.663-0.663"/></g><g transform="translate(4.0195)"><path d="m0 0c0 0.228-0.186 0.413-0.413 0.413-0.228 0-0.413-0.185-0.413-0.413s0.185-0.412 0.413-0.412c0.227 0 0.413 0.184 0.413 0.412m0.25 0c0-0.365-0.298-0.662-0.663-0.662s-0.663 0.297-0.663 0.662 0.298 0.663 0.663 0.663 0.663-0.298 0.663-0.663"/></g><g transform="translate(6.4209)"><path d="m0 0c0 0.228-0.186 0.413-0.413 0.413-0.228 0-0.413-0.185-0.413-0.413s0.185-0.412 0.413-0.412c0.227 0 0.413 0.184 0.413 0.412m0.25 0c0-0.365-0.298-0.662-0.663-0.662s-0.663 0.297-0.663 0.662 0.298 0.663 0.663 0.663 0.663-0.298 0.663-0.663"/></g><g transform="translate(8.8223)"><path d="m0 0c0 0.228-0.186 0.413-0.413 0.413-0.228 0-0.413-0.185-0.413-0.413s0.185-0.412 0.413-0.412c0.227 0 0.413 0.184 0.413 0.412m0.25 0c0-0.365-0.298-0.662-0.663-0.662s-0.663 0.297-0.663 0.662 0.298 0.663 0.663 0.663 0.663-0.298 0.663-0.663"/></g><g transform="translate(10.022 1.5479)"><path d="m0 0c0 0.228-0.185 0.413-0.413 0.413s-0.413-0.185-0.413-0.413 0.185-0.412 0.413-0.412 0.413 0.184 0.413 0.412m0.25 0c0-0.365-0.298-0.662-0.663-0.662s-0.663 0.297-0.663 0.662 0.298 0.663 0.663 0.663 0.663-0.298 0.663-0.663"/></g></g><g transform="translate(7.6201 1.5479)"><path d="m0 0c0 0.228-0.186 0.413-0.413 0.413-0.228 0-0.413-0.185-0.413-0.413s0.185-0.412 0.413-0.412c0.227 0 0.413 0.184 0.413 0.412m0.25 0c0-0.365-0.298-0.662-0.663-0.662s-0.663 0.297-0.663 0.662 0.298 0.663 0.663 0.663 0.663-0.298 0.663-0.663"/></g><g transform="translate(5.2178 1.5479)"><path d="m0 0c0 0.228-0.186 0.413-0.413 0.413-0.228 0-0.413-0.185-0.413-0.413s0.185-0.412 0.413-0.412c0.227 0 0.413 0.184 0.413 0.412m0.25 0c0-0.365-0.298-0.662-0.663-0.662s-0.663 0.297-0.663 0.662 0.298 0.663 0.663 0.663 0.663-0.298 0.663-0.663"/></g><g clip-path="url(#z)"><g transform="translate(2.8154 1.5479)"><path d="m0 0c0 0.228-0.186 0.413-0.413 0.413-0.228 0-0.413-0.185-0.413-0.413s0.185-0.412 0.413-0.412c0.227 0 0.413 0.184 0.413 0.412m0.25 0c0-0.365-0.298-0.662-0.663-0.662s-0.663 0.297-0.663 0.662 0.298 0.663 0.663 0.663 0.663-0.298 0.663-0.663"/></g><g transform="translate(.4131 1.5479)"><path d="m0 0c0 0.228-0.186 0.413-0.413 0.413-0.228 0-0.413-0.185-0.413-0.413s0.185-0.412 0.413-0.412c0.227 0 0.413 0.184 0.413 0.412m0.25 0c0-0.365-0.298-0.662-0.663-0.662s-0.663 0.297-0.663 0.662 0.298 0.663 0.663 0.663 0.663-0.298 0.663-0.663"/></g></g></pattern><clipPath id="y"><path d="m27.735 186.34h557.26v551.66h-557.26z"/></clipPath><clipPath id="x"><path d="m27.735 186.34h557.26v551.66h-557.26z"/></clipPath><clipPath id="w"><path d="m27.735 186.34h557.26v551.66h-557.26z"/></clipPath><clipPath id="v"><path d="m0 0h9.609v3.097h-9.609z"/></clipPath><clipPath id="u"><path d="m0 0h9.609v3.097h-9.609z"/></clipPath><pattern id="c" width="9.60941" height="3.09668" patternTransform="translate(-42.542 -121.29)" patternUnits="userSpaceOnUse"><g clip-path="url(#v)"><g transform="translate(1.6191 3.0967)"><path d="m0 0c0 0.228-0.186 0.413-0.413 0.413-0.228 0-0.413-0.185-0.413-0.413s0.185-0.412 0.413-0.412c0.227 0 0.413 0.184 0.413 0.412m0.25 0c0-0.365-0.298-0.662-0.663-0.662s-0.663 0.297-0.663 0.662 0.298 0.663 0.663 0.663 0.663-0.298 0.663-0.663"/></g><g transform="translate(4.0205 3.0967)"><path d="m0 0c0 0.228-0.186 0.413-0.413 0.413-0.228 0-0.413-0.185-0.413-0.413s0.185-0.412 0.413-0.412c0.227 0 0.413 0.184 0.413 0.412m0.25 0c0-0.365-0.298-0.662-0.663-0.662s-0.663 0.297-0.663 0.662 0.298 0.663 0.663 0.663 0.663-0.298 0.663-0.663"/></g><g transform="translate(6.4219 3.0967)"><path d="m0 0c0 0.228-0.186 0.413-0.413 0.413-0.228 0-0.413-0.185-0.413-0.413s0.185-0.412 0.413-0.412c0.227 0 0.413 0.184 0.413 0.412m0.25 0c0-0.365-0.298-0.662-0.663-0.662s-0.663 0.297-0.663 0.662 0.298 0.663 0.663 0.663 0.663-0.298 0.663-0.663"/></g><g transform="translate(8.8232 3.0967)"><path d="m0 0c0 0.228-0.186 0.413-0.413 0.413-0.228 0-0.413-0.185-0.413-0.413s0.185-0.412 0.413-0.412c0.227 0 0.413 0.184 0.413 0.412m0.25 0c0-0.365-0.298-0.662-0.663-0.662s-0.663 0.297-0.663 0.662 0.298 0.663 0.663 0.663 0.663-0.298 0.663-0.663"/></g><g transform="translate(1.6182)"><path d="m0 0c0 0.228-0.186 0.413-0.413 0.413-0.228 0-0.413-0.185-0.413-0.413s0.185-0.412 0.413-0.412c0.227 0 0.413 0.184 0.413 0.412m0.25 0c0-0.365-0.298-0.662-0.663-0.662s-0.663 0.297-0.663 0.662 0.298 0.663 0.663 0.663 0.663-0.298 0.663-0.663"/></g><g transform="translate(4.0195)"><path d="m0 0c0 0.228-0.186 0.413-0.413 0.413-0.228 0-0.413-0.185-0.413-0.413s0.185-0.412 0.413-0.412c0.227 0 0.413 0.184 0.413 0.412m0.25 0c0-0.365-0.298-0.662-0.663-0.662s-0.663 0.297-0.663 0.662 0.298 0.663 0.663 0.663 0.663-0.298 0.663-0.663"/></g><g transform="translate(6.4209)"><path d="m0 0c0 0.228-0.186 0.413-0.413 0.413-0.228 0-0.413-0.185-0.413-0.413s0.185-0.412 0.413-0.412c0.227 0 0.413 0.184 0.413 0.412m0.25 0c0-0.365-0.298-0.662-0.663-0.662s-0.663 0.297-0.663 0.662 0.298 0.663 0.663 0.663 0.663-0.298 0.663-0.663"/></g><g transform="translate(8.8223)"><path d="m0 0c0 0.228-0.186 0.413-0.413 0.413-0.228 0-0.413-0.185-0.413-0.413s0.185-0.412 0.413-0.412c0.227 0 0.413 0.184 0.413 0.412m0.25 0c0-0.365-0.298-0.662-0.663-0.662s-0.663 0.297-0.663 0.662 0.298 0.663 0.663 0.663 0.663-0.298 0.663-0.663"/></g><g transform="translate(10.022 1.5479)"><path d="m0 0c0 0.228-0.185 0.413-0.413 0.413s-0.413-0.185-0.413-0.413 0.185-0.412 0.413-0.412 0.413 0.184 0.413 0.412m0.25 0c0-0.365-0.298-0.662-0.663-0.662s-0.663 0.297-0.663 0.662 0.298 0.663 0.663 0.663 0.663-0.298 0.663-0.663"/></g></g><g transform="translate(7.6201 1.5479)"><path d="m0 0c0 0.228-0.186 0.413-0.413 0.413-0.228 0-0.413-0.185-0.413-0.413s0.185-0.412 0.413-0.412c0.227 0 0.413 0.184 0.413 0.412m0.25 0c0-0.365-0.298-0.662-0.663-0.662s-0.663 0.297-0.663 0.662 0.298 0.663 0.663 0.663 0.663-0.298 0.663-0.663"/></g><g transform="translate(5.2178 1.5479)"><path d="m0 0c0 0.228-0.186 0.413-0.413 0.413-0.228 0-0.413-0.185-0.413-0.413s0.185-0.412 0.413-0.412c0.227 0 0.413 0.184 0.413 0.412m0.25 0c0-0.365-0.298-0.662-0.663-0.662s-0.663 0.297-0.663 0.662 0.298 0.663 0.663 0.663 0.663-0.298 0.663-0.663"/></g><g clip-path="url(#u)"><g transform="translate(2.8154 1.5479)"><path d="m0 0c0 0.228-0.186 0.413-0.413 0.413-0.228 0-0.413-0.185-0.413-0.413s0.185-0.412 0.413-0.412c0.227 0 0.413 0.184 0.413 0.412m0.25 0c0-0.365-0.298-0.662-0.663-0.662s-0.663 0.297-0.663 0.662 0.298 0.663 0.663 0.663 0.663-0.298 0.663-0.663"/></g><g transform="translate(.4131 1.5479)"><path d="m0 0c0 0.228-0.186 0.413-0.413 0.413-0.228 0-0.413-0.185-0.413-0.413s0.185-0.412 0.413-0.412c0.227 0 0.413 0.184 0.413 0.412m0.25 0c0-0.365-0.298-0.662-0.663-0.662s-0.663 0.297-0.663 0.662 0.298 0.663 0.663 0.663 0.663-0.298 0.663-0.663"/></g></g></pattern><clipPath id="t"><path d="m0 0h9.609v3.097h-9.609z"/></clipPath><clipPath id="s"><path d="m0 0h9.609v3.097h-9.609z"/></clipPath><pattern id="b" width="9.60941" height="3.09668" patternTransform="translate(-42.542 -121.29)" patternUnits="userSpaceOnUse"><g clip-path="url(#t)"><g transform="translate(1.6191 3.0967)"><path d="m0 0c0 0.228-0.186 0.413-0.413 0.413-0.228 0-0.413-0.185-0.413-0.413s0.185-0.412 0.413-0.412c0.227 0 0.413 0.184 0.413 0.412m0.25 0c0-0.365-0.298-0.662-0.663-0.662s-0.663 0.297-0.663 0.662 0.298 0.663 0.663 0.663 0.663-0.298 0.663-0.663"/></g><g transform="translate(4.0205 3.0967)"><path d="m0 0c0 0.228-0.186 0.413-0.413 0.413-0.228 0-0.413-0.185-0.413-0.413s0.185-0.412 0.413-0.412c0.227 0 0.413 0.184 0.413 0.412m0.25 0c0-0.365-0.298-0.662-0.663-0.662s-0.663 0.297-0.663 0.662 0.298 0.663 0.663 0.663 0.663-0.298 0.663-0.663"/></g><g transform="translate(6.4219 3.0967)"><path d="m0 0c0 0.228-0.186 0.413-0.413 0.413-0.228 0-0.413-0.185-0.413-0.413s0.185-0.412 0.413-0.412c0.227 0 0.413 0.184 0.413 0.412m0.25 0c0-0.365-0.298-0.662-0.663-0.662s-0.663 0.297-0.663 0.662 0.298 0.663 0.663 0.663 0.663-0.298 0.663-0.663"/></g><g transform="translate(8.8232 3.0967)"><path d="m0 0c0 0.228-0.186 0.413-0.413 0.413-0.228 0-0.413-0.185-0.413-0.413s0.185-0.412 0.413-0.412c0.227 0 0.413 0.184 0.413 0.412m0.25 0c0-0.365-0.298-0.662-0.663-0.662s-0.663 0.297-0.663 0.662 0.298 0.663 0.663 0.663 0.663-0.298 0.663-0.663"/></g><g transform="translate(1.6182)"><path d="m0 0c0 0.228-0.186 0.413-0.413 0.413-0.228 0-0.413-0.185-0.413-0.413s0.185-0.412 0.413-0.412c0.227 0 0.413 0.184 0.413 0.412m0.25 0c0-0.365-0.298-0.662-0.663-0.662s-0.663 0.297-0.663 0.662 0.298 0.663 0.663 0.663 0.663-0.298 0.663-0.663"/></g><g transform="translate(4.0195)"><path d="m0 0c0 0.228-0.186 0.413-0.413 0.413-0.228 0-0.413-0.185-0.413-0.413s0.185-0.412 0.413-0.412c0.227 0 0.413 0.184 0.413 0.412m0.25 0c0-0.365-0.298-0.662-0.663-0.662s-0.663 0.297-0.663 0.662 0.298 0.663 0.663 0.663 0.663-0.298 0.663-0.663"/></g><g transform="translate(6.4209)"><path d="m0 0c0 0.228-0.186 0.413-0.413 0.413-0.228 0-0.413-0.185-0.413-0.413s0.185-0.412 0.413-0.412c0.227 0 0.413 0.184 0.413 0.412m0.25 0c0-0.365-0.298-0.662-0.663-0.662s-0.663 0.297-0.663 0.662 0.298 0.663 0.663 0.663 0.663-0.298 0.663-0.663"/></g><g transform="translate(8.8223)"><path d="m0 0c0 0.228-0.186 0.413-0.413 0.413-0.228 0-0.413-0.185-0.413-0.413s0.185-0.412 0.413-0.412c0.227 0 0.413 0.184 0.413 0.412m0.25 0c0-0.365-0.298-0.662-0.663-0.662s-0.663 0.297-0.663 0.662 0.298 0.663 0.663 0.663 0.663-0.298 0.663-0.663"/></g><g transform="translate(10.022 1.5479)"><path d="m0 0c0 0.228-0.185 0.413-0.413 0.413s-0.413-0.185-0.413-0.413 0.185-0.412 0.413-0.412 0.413 0.184 0.413 0.412m0.25 0c0-0.365-0.298-0.662-0.663-0.662s-0.663 0.297-0.663 0.662 0.298 0.663 0.663 0.663 0.663-0.298 0.663-0.663"/></g></g><g transform="translate(7.6201 1.5479)"><path d="m0 0c0 0.228-0.186 0.413-0.413 0.413-0.228 0-0.413-0.185-0.413-0.413s0.185-0.412 0.413-0.412c0.227 0 0.413 0.184 0.413 0.412m0.25 0c0-0.365-0.298-0.662-0.663-0.662s-0.663 0.297-0.663 0.662 0.298 0.663 0.663 0.663 0.663-0.298 0.663-0.663"/></g><g transform="translate(5.2178 1.5479)"><path d="m0 0c0 0.228-0.186 0.413-0.413 0.413-0.228 0-0.413-0.185-0.413-0.413s0.185-0.412 0.413-0.412c0.227 0 0.413 0.184 0.413 0.412m0.25 0c0-0.365-0.298-0.662-0.663-0.662s-0.663 0.297-0.663 0.662 0.298 0.663 0.663 0.663 0.663-0.298 0.663-0.663"/></g><g clip-path="url(#s)"><g transform="translate(2.8154 1.5479)"><path d="m0 0c0 0.228-0.186 0.413-0.413 0.413-0.228 0-0.413-0.185-0.413-0.413s0.185-0.412 0.413-0.412c0.227 0 0.413 0.184 0.413 0.412m0.25 0c0-0.365-0.298-0.662-0.663-0.662s-0.663 0.297-0.663 0.662 0.298 0.663 0.663 0.663 0.663-0.298 0.663-0.663"/></g><g transform="translate(.4131 1.5479)"><path d="m0 0c0 0.228-0.186 0.413-0.413 0.413-0.228 0-0.413-0.185-0.413-0.413s0.185-0.412 0.413-0.412c0.227 0 0.413 0.184 0.413 0.412m0.25 0c0-0.365-0.298-0.662-0.663-0.662s-0.663 0.297-0.663 0.662 0.298 0.663 0.663 0.663 0.663-0.298 0.663-0.663"/></g></g></pattern><clipPath id="r"><path d="m27.735 186.34h557.26v551.66h-557.26z"/></clipPath><clipPath id="q"><path d="m462.5 310.4h14.124v15.887h-5.085c-3.07 0-6.089 0.234-9.039 0.673z"/></clipPath><clipPath id="p"><path d="m392.56 398.72v-14.124h17.798c-0.049 1-0.076 2.006-0.076 3.017v11.107z"/></clipPath><clipPath id="o"><path d="m27.735 186.34h557.26v551.66h-557.26z"/></clipPath><clipPath id="n"><path d="m27.735 186.34h557.26v551.66h-557.26z"/></clipPath><clipPath id="m"><path d="m0 0h9.609v3.097h-9.609z"/></clipPath><clipPath id="l"><path d="m0 0h9.609v3.097h-9.609z"/></clipPath><pattern id="a" width="9.60941" height="3.09668" patternTransform="translate(107.09 175.13)" patternUnits="userSpaceOnUse"><g clip-path="url(#m)"><g transform="translate(1.6191 3.0967)"><path d="m0 0c0 0.228-0.186 0.413-0.413 0.413-0.228 0-0.413-0.185-0.413-0.413s0.185-0.412 0.413-0.412c0.227 0 0.413 0.184 0.413 0.412m0.25 0c0-0.365-0.298-0.662-0.663-0.662s-0.663 0.297-0.663 0.662 0.298 0.663 0.663 0.663 0.663-0.298 0.663-0.663"/></g><g transform="translate(4.0205 3.0967)"><path d="m0 0c0 0.228-0.186 0.413-0.413 0.413-0.228 0-0.413-0.185-0.413-0.413s0.185-0.412 0.413-0.412c0.227 0 0.413 0.184 0.413 0.412m0.25 0c0-0.365-0.298-0.662-0.663-0.662s-0.663 0.297-0.663 0.662 0.298 0.663 0.663 0.663 0.663-0.298 0.663-0.663"/></g><g transform="translate(6.4219 3.0967)"><path d="m0 0c0 0.228-0.186 0.413-0.413 0.413-0.228 0-0.413-0.185-0.413-0.413s0.185-0.412 0.413-0.412c0.227 0 0.413 0.184 0.413 0.412m0.25 0c0-0.365-0.298-0.662-0.663-0.662s-0.663 0.297-0.663 0.662 0.298 0.663 0.663 0.663 0.663-0.298 0.663-0.663"/></g><g transform="translate(8.8232 3.0967)"><path d="m0 0c0 0.228-0.186 0.413-0.413 0.413-0.228 0-0.413-0.185-0.413-0.413s0.185-0.412 0.413-0.412c0.227 0 0.413 0.184 0.413 0.412m0.25 0c0-0.365-0.298-0.662-0.663-0.662s-0.663 0.297-0.663 0.662 0.298 0.663 0.663 0.663 0.663-0.298 0.663-0.663"/></g><g transform="translate(1.6182)"><path d="m0 0c0 0.228-0.186 0.413-0.413 0.413-0.228 0-0.413-0.185-0.413-0.413s0.185-0.412 0.413-0.412c0.227 0 0.413 0.184 0.413 0.412m0.25 0c0-0.365-0.298-0.662-0.663-0.662s-0.663 0.297-0.663 0.662 0.298 0.663 0.663 0.663 0.663-0.298 0.663-0.663"/></g><g transform="translate(4.0195)"><path d="m0 0c0 0.228-0.186 0.413-0.413 0.413-0.228 0-0.413-0.185-0.413-0.413s0.185-0.412 0.413-0.412c0.227 0 0.413 0.184 0.413 0.412m0.25 0c0-0.365-0.298-0.662-0.663-0.662s-0.663 0.297-0.663 0.662 0.298 0.663 0.663 0.663 0.663-0.298 0.663-0.663"/></g><g transform="translate(6.4209)"><path d="m0 0c0 0.228-0.186 0.413-0.413 0.413-0.228 0-0.413-0.185-0.413-0.413s0.185-0.412 0.413-0.412c0.227 0 0.413 0.184 0.413 0.412m0.25 0c0-0.365-0.298-0.662-0.663-0.662s-0.663 0.297-0.663 0.662 0.298 0.663 0.663 0.663 0.663-0.298 0.663-0.663"/></g><g transform="translate(8.8223)"><path d="m0 0c0 0.228-0.186 0.413-0.413 0.413-0.228 0-0.413-0.185-0.413-0.413s0.185-0.412 0.413-0.412c0.227 0 0.413 0.184 0.413 0.412m0.25 0c0-0.365-0.298-0.662-0.663-0.662s-0.663 0.297-0.663 0.662 0.298 0.663 0.663 0.663 0.663-0.298 0.663-0.663"/></g><g transform="translate(10.022 1.5479)"><path d="m0 0c0 0.228-0.185 0.413-0.413 0.413s-0.413-0.185-0.413-0.413 0.185-0.412 0.413-0.412 0.413 0.184 0.413 0.412m0.25 0c0-0.365-0.298-0.662-0.663-0.662s-0.663 0.297-0.663 0.662 0.298 0.663 0.663 0.663 0.663-0.298 0.663-0.663"/></g></g><g transform="translate(7.6201 1.5479)"><path d="m0 0c0 0.228-0.186 0.413-0.413 0.413-0.228 0-0.413-0.185-0.413-0.413s0.185-0.412 0.413-0.412c0.227 0 0.413 0.184 0.413 0.412m0.25 0c0-0.365-0.298-0.662-0.663-0.662s-0.663 0.297-0.663 0.662 0.298 0.663 0.663 0.663 0.663-0.298 0.663-0.663"/></g><g transform="translate(5.2178 1.5479)"><path d="m0 0c0 0.228-0.186 0.413-0.413 0.413-0.228 0-0.413-0.185-0.413-0.413s0.185-0.412 0.413-0.412c0.227 0 0.413 0.184 0.413 0.412m0.25 0c0-0.365-0.298-0.662-0.663-0.662s-0.663 0.297-0.663 0.662 0.298 0.663 0.663 0.663 0.663-0.298 0.663-0.663"/></g><g clip-path="url(#l)"><g transform="translate(2.8154 1.5479)"><path d="m0 0c0 0.228-0.186 0.413-0.413 0.413-0.228 0-0.413-0.185-0.413-0.413s0.185-0.412 0.413-0.412c0.227 0 0.413 0.184 0.413 0.412m0.25 0c0-0.365-0.298-0.662-0.663-0.662s-0.663 0.297-0.663 0.662 0.298 0.663 0.663 0.663 0.663-0.298 0.663-0.663"/></g><g transform="translate(.4131 1.5479)"><path d="m0 0c0 0.228-0.186 0.413-0.413 0.413-0.228 0-0.413-0.185-0.413-0.413s0.185-0.412 0.413-0.412c0.227 0 0.413 0.184 0.413 0.412m0.25 0c0-0.365-0.298-0.662-0.663-0.662s-0.663 0.297-0.663 0.662 0.298 0.663 0.663 0.663 0.663-0.298 0.663-0.663"/></g></g></pattern><clipPath id="k"><path d="m207.78 365.82h10.921v6.329h-10.921z"/></clipPath><clipPath id="j"><path d="m27.735 186.34h557.26v551.66h-557.26z"/></clipPath></defs><g transform="matrix(1.3333 0 0 -1.3333 -36.98 952.31)"><g clip-path="url(#ar)"><g transform="translate(367.01 453.16)"><path d="m0 0v-62.073c0-59.276 48.225-107.5 107.5-107.5h64.039v-40.39h-209.05v209.96z" fill="#b1b4b6"/></g><g fill="#fff"><path d="m375.11 380.93h-57.768v-3.499h57.768z"/><path d="m375.11 406.1h-57.768v-3.615h57.768z"/><path d="m483.86 290.59h-3.499v-57.768h3.499z"/><path d="m458.81 290.59h-3.615v-57.768h3.615z"/></g><g transform="translate(32.683 703.01)"><path d="m0 0v-209.22h209.17v42.18h-71.291c-51.694 0-93.75 42.055-93.75 93.75v73.286z" fill="#b1b4b6"/></g><path d="m82.504 629.2h-57.769v-3.5h57.769z" fill="#fff"/><path d="m82.504 654.37h-57.769v-3.615h57.769z" fill="#fff"/><g transform="translate(32.946 452.61)"><path d="m0 0v-196.46h209.05v50.672h-98.3c-33.138 0-60.001 26.863-60.001 60v85.787z" fill="#b1b4b6"/></g><g fill="#fff"><path d="m178.96 251.84h-5.657v57.768h5.657z"/><path d="m140.6 251.84h-5.643v62.1h5.643z"/><path d="m30.531 359.6h57.768v-5.657h-57.768z"/><path d="m30.531 397.96h62.1v-5.643h-62.1z"/></g><g transform="translate(83.693 452.61)"><path d="m0 0v-85.787c0-33.137 26.863-60 60.001-60h98.3v28.125h-98.3c-17.577 0-31.876 14.299-31.876 31.875v85.787z" fill="#fff"/><path d="m0 0v-85.787c0-33.137 26.863-60 60.001-60h98.3v28.125h-98.3c-17.577 0-31.876 14.299-31.876 31.875v85.787zm0-32.847h28.125m-28.058-31.251h28.058m-28.058-25h28.058m4.79-14.096-24.047-14.015m38.061 2.135-14.584-23.834m28.28 21.246v-27.873m25.001 27.873v-28.125m30.75 28.125v-28.125" fill="none" stroke="#000"/></g><path d="m96.176 363.56h-12.416v24.997h12.416z" fill="url(#i)" stroke="#000" stroke-width=".5"/><path d="m169.28 306.77h-24.912v11.518h24.912z" fill="url(#h)" stroke="#000" stroke-width=".5"/><g transform="translate(103.57 394.81)"><path d="m0 0v7.773" fill="none" stroke="#000" stroke-width="2"/></g><g transform="translate(101.07 395.54)"><path d="M 0,0 2.493,-4.317 4.985,0 Z"/></g><g transform="translate(103.56 357.64)"><path d="m0 0v-7.773" fill="none" stroke="#000" stroke-width="2"/></g><g transform="translate(106.06 356.91)"><path d="m0 0-2.493 4.317-2.492-4.317z"/></g><g transform="translate(174.36 325.48)"><path d="m0 0h7.773" fill="none" stroke="#000" stroke-width="2"/></g><g transform="translate(175.09 327.98)"><path d="m0 0-4.317-2.493 4.317-2.493z"/></g><g transform="translate(138.89 325.1)"><path d="m0 0h-7.773" fill="none" stroke="#000" stroke-width="2"/></g><g transform="translate(138.16 322.59)"><path d="M 0,0 4.318,2.493 0,4.987 Z"/></g><g transform="translate(177.38 340.68)"><path d="m0 0c0-2.295-1.859-4.156-4.156-4.156-2.295 0-4.157 1.861-4.157 4.156s1.862 4.156 4.157 4.156c2.297 0 4.156-1.861 4.156-4.156"/></g><path d="m170.6 341.76h-3.063v-2.144h3.063z"/><g transform="translate(117.65 396.72)"><path d="m0 0c2.295 0 4.156-1.859 4.156-4.156 0-2.295-1.861-4.156-4.156-4.156s-4.156 1.861-4.156 4.156c0 2.297 1.861 4.156 4.156 4.156"/></g><g><path d="m116.57 386.88h2.144v3.063h-2.144z"/><path d="m240.58 254.53h3.127v82.986h-3.127z" fill="#fff"/><path d="m30.612 451.2h82.986v3.127h-82.986z" fill="#fff"/></g></g><text transform="matrix(1 0 0 -1 216.21 317.82)" fill="#000000" font-family="Helvetica" font-size="9px"><tspan x="0 5.0040002 7.506 10.008" y="0">5 ft</tspan></text><g clip-path="url(#am)"><g transform="translate(222.52 316.48)"><path d="m0 0v-6.943" fill="none" stroke="#000" stroke-width=".75"/></g><g transform="translate(223.05 309.52)"><path d="m0 0c0.263 0.868 0.504 1.433 0.784 2.129h-2.649c0.119-0.249 0.521-1.261 0.783-2.129 0.281-0.929 0.473-1.771 0.541-2.317 0.069 0.546 0.261 1.388 0.541 2.317"/></g><g transform="translate(222.52 331.95)"><path d="m0 0v-6.448" fill="none" stroke="#000" stroke-width=".75"/></g><g transform="translate(221.98 332.28)"><path d="M 0,0 C -0.262,-0.868 -0.504,-1.433 -0.783,-2.129 H 1.865 C 1.747,-1.88 1.344,-0.868 1.082,0 0.801,0.929 0.609,1.771 0.541,2.317 0.473,1.771 0.28,0.929 0,0"/></g></g><text transform="matrix(1 0 0 -1 79.308 300.41)" fill="#000000" font-family="Helvetica" font-size="9px"><tspan x="0 5.0040002 10.008 12.51 15.012" y="0">10 ft</tspan><tspan x="-17.568001 -13.068 -8.0640001 -4.842 0.162 5.1659999 8.1630001 10.665 13.662 18.666 23.67 25.667999 30.672001" y="9.5039997">corner radius</tspan></text><g clip-path="url(#al)"><g transform="translate(100.34 320.02)"><path d="m0 0-11.278-11.277" fill="none" stroke="#000" stroke-width=".75"/></g><g transform="translate(100.71 321.15)"><path d="m0 0c-0.799-0.428-1.369-0.656-2.059-0.951l1.873-1.872c0.092 0.259 0.522 1.259 0.951 2.058 0.458 0.856 0.918 1.587 1.256 2.022-0.435-0.338-1.166-0.798-2.021-1.257"/></g></g><text transform="matrix(1 0 0 -1 32.848 467.13)" fill="#000000" font-family="Helvetica" font-size="9.5px" font-weight="bold"><tspan x="0 6.8590002 9.5 12.6635 15.9505 22.002001 27.284 30.9795 36.261501 38.9025 41.543499 46.8255 49.466499 52.107498 55.803001 61.084999 69.530502 75.334999 80.616997 83.258003 90.649002 93.290001 96.453499 102.258 104.899 110.7035 115.9855 119.681 123.1865 128.8485 136.2395" y="0">C - Parallel ramps with narrow </tspan><tspan x="15.9505 21.2325 23.873501 29.677999 34.817501 42.2085 47.490501 50.1315 55.413502 58.054501 63.336498 69.140999 74.945503 77.586502 80.75 83.390999 89.195503 95 98.163498 100.8045 106.0865 111.891 115.5865 121.391 126.673 130.3685 133.00951 136.705 141.987 147.7915 150.4325 156.237" y="10.0035">sidewalk and tight corner radius</tspan></text><g clip-path="url(#ak)"><g transform="translate(471.53 326.34)"><path d="m0 0c-33.774 0-61.25 27.477-61.25 61.25v65.569h-43.278v-62.073c0-59.276 48.225-107.5 107.5-107.5h64.039v42.754z" fill="#fff"/><path d="m0 0c-33.774 0-61.25 27.477-61.25 61.25v65.569h-43.278v-62.073c0-59.276 48.225-107.5 107.5-107.5h64.039v42.754z" fill="none" stroke="#000"/></g><g transform="translate(380.91 391.26)"><path d="m0 0h7.773" fill="none" stroke="#000" stroke-width="2"/></g><g transform="translate(381.64 393.76)"><path d="m0 0-4.317-2.493 4.317-2.493z"/></g><g transform="translate(367.21 398.7)"><path d="m0 0h42.927m-42.695-14.124h42.856m-17.733 13.429v-13.778m-25.484 34.409 20.969-15.884m4.632-18.06-22.461-18.757" fill="none" stroke="#000"/></g><g transform="translate(374.1 384.75)"><path d="m0 0-7.012-0.176 0.12 14.126 6.892 0.176z" fill="url(#g)"/><path d="m0 0-7.012-0.176 0.12 14.126 6.892 0.176z" fill="none" stroke="#000" stroke-width=".5"/></g><g transform="translate(469.18 298.79)"><path d="m0 0v7.774" fill="none" stroke="#000" stroke-width="2"/></g><g transform="translate(466.68 299.52)"><path d="M 0,0 2.494,-4.318 4.987,0 Z"/></g><g transform="translate(476.62 283.61)"><path d="m0 0v42.473m-14.125-41.692v42.575m13.43-16.512h-13.778m32.785-26.678-14.259 22.162m-18.062 4.631-18.756-22.461" fill="none" stroke="#000"/></g><g transform="translate(462.49 290.88)"><path d="m0 0v-6.625l14.128-0.651v7.276z" fill="url(#f)"/><path d="m0 0v-6.625l14.128-0.651v7.276z" fill="none" stroke="#000" stroke-width=".5"/></g><path d="m327.16 451.74h84.474v3.127h-84.474z" fill="#fff"/><path d="m537.13 240.06h3.127v88.85h-3.127z" fill="#fff"/></g><text transform="matrix(1 0 0 -1 517.25 302.21)" fill="#000000" font-family="Helvetica" font-size="9px"><tspan x="0 5.0040002 10.008 12.51 15.012" y="0">12 ft</tspan></text><g clip-path="url(#af)"><g transform="translate(525.78 300.59)"><path d="m0 0v-14.294" fill="none" stroke="#000" stroke-width=".75"/></g><g transform="translate(526.32 286.44)"><path d="m0 0c0.263 0.868 0.504 1.432 0.783 2.129h-2.648c0.118-0.249 0.521-1.261 0.783-2.129 0.28-0.929 0.473-1.772 0.541-2.318 0.068 0.546 0.261 1.389 0.541 2.318"/></g><g transform="translate(525.78 323.34)"><path d="m0 0v-13.523" fill="none" stroke="#000" stroke-width=".75"/></g><g transform="translate(525.24 323.64)"><path d="m0 0c-0.263-0.868-0.504-1.432-0.783-2.129h2.648c-0.118 0.249-0.521 1.261-0.783 2.129-0.28 0.929-0.473 1.772-0.541 2.318-0.069-0.546-0.261-1.389-0.541-2.318"/></g></g><text transform="matrix(1 0 0 -1 375.86 292.13)" fill="#000000" font-family="Helvetica" font-size="9px"><tspan x="0 5.0040002 10.008 12.51 15.012" y="0">30 ft</tspan><tspan x="-17.568001 -13.068 -8.0640001 -4.842 0.162 5.1659999 8.1630001 10.665 13.662 18.666 23.67 25.667999 30.672001" y="9.5039997">corner radius</tspan></text><g clip-path="url(#ae)"><g transform="translate(396.89 311.74)"><path d="m0 0-11.277-11.279" fill="none" stroke="#000" stroke-width=".75"/></g><g transform="translate(397.07 312.68)"><path d="m0 0c-0.799-0.427-1.369-0.656-2.059-0.951l1.873-1.872c0.092 0.26 0.523 1.26 0.952 2.059 0.458 0.855 0.918 1.587 1.255 2.021-0.434-0.338-1.166-0.798-2.021-1.257"/></g></g><text transform="matrix(1 0 0 -1 329.4 467.13)" fill="#000000" font-family="Helvetica" font-size="9.5px" font-weight="bold"><tspan x="0 6.8590002 9.5 12.6635 15.941 21.9925 27.2745 30.969999 36.774502 42.056499 47.861 53.665501 56.306499 61.588501 67.392998 70.033997 75.316002 79.011497 81.652496 85.348 90.629997 99.0755 104.88 110.162" y="0">D - Perpendicular ramps </tspan><tspan x="15.941 23.332001 25.973 29.136499 34.941002 37.582001 42.863998 46.369499 52.174 57.456001 62.595501 69.986504 75.268501 77.9095 83.191498 88.473503 91.114502 94.278 99.559998 103.2555 105.8965 111.1785 116.983 122.265 126.1505" y="10.0035">with crosswalks far apart</tspan></text><g clip-path="url(#ad)"><g transform="translate(483.05 308.65)"><path d="m0 0c0-2.295-1.86-4.156-4.157-4.156-2.295 0-4.156 1.861-4.156 4.156s1.861 4.156 4.156 4.156c2.297 0 4.157-1.861 4.157-4.156"/></g><path d="m476.26 309.72h-3.062v-2.144h3.062z"/><g transform="translate(390.76 405.13)"><path d="m0 0c2.294 0 4.156-1.859 4.156-4.156 0-2.295-1.862-4.156-4.156-4.156-2.295 0-4.157 1.861-4.157 4.156 0 2.297 1.862 4.156 4.157 4.156"/></g><g><path d="m389.68 395.28h2.145v3.062h-2.145z"/><path d="m191.94 540.66h-3.499v-57.769h3.499z" fill="#fff"/><path d="m166.89 540.66h-3.615v-57.769h3.615z" fill="#fff"/></g><g transform="translate(76.809 703.01)"><path d="m0 0v-73.286c0-51.695 42.056-93.75 93.75-93.75h71.291v43.75h-71.291c-27.569 0-50 22.43-50 50v73.286z" fill="#fff"/><path d="m0 0v-73.286c0-51.695 42.056-93.75 93.75-93.75h71.291v43.75h-71.291c-27.569 0-50 22.43-50 50v73.286zm0.468-26.926h42.866m-43.268-27.816h43.576m-0.07-16.688h-43.52m46.121-17.554-39.274-18.362m67.206-12.374-16.36-39.597m34.03 35.998v-43.717m17.996 43.391v-43.391m26.177 43.391v-43.39" fill="none" stroke="#000"/></g><path d="m84.62 631.58h-7.853v16.713h7.853z" fill="url(#e)" stroke="#000" stroke-width=".5"/><path d="m186.59 535.98h-18.006v9.168h18.006z" fill="url(#d)" stroke="#000" stroke-width=".5"/><g transform="translate(102.48 655.1)"><path d="m0 0v7.773" fill="none" stroke="#000" stroke-width="2"/></g><g transform="translate(99.977 655.83)"><path d="M 0,0 2.493,-4.318 4.986,0 Z"/></g><g transform="translate(102.46 624.96)"><path d="m0 0v-7.773" fill="none" stroke="#000" stroke-width="2"/></g><g transform="translate(104.96 624.23)"><path d="m0 0-2.493 4.317-2.493-4.317z"/></g><g transform="translate(161.59 560.07)"><path d="m0 0h-7.774" fill="none" stroke="#000" stroke-width="2"/></g><g transform="translate(160.86 557.57)"><path d="M 0,0 4.318,2.493 0,4.985 Z"/></g><g transform="translate(193.15 560.06)"><path d="m0 0h7.774" fill="none" stroke="#000" stroke-width="2"/></g><g transform="translate(193.88 562.56)"><path d="m0 0-4.318-2.492 4.318-2.493z"/></g><g transform="translate(198.38 550.33)"><path d="m0 0c0-2.295-1.86-4.157-4.157-4.157-2.295 0-4.156 1.862-4.156 4.157s1.861 4.156 4.156 4.156c2.297 0 4.157-1.861 4.157-4.156"/></g><path d="m191.6 551.4h-3.062v-2.145h3.062z"/><g transform="translate(89.788 659.7)"><path d="m0 0c2.295 0 4.156-1.859 4.156-4.156 0-2.295-1.861-4.157-4.156-4.157s-4.156 1.862-4.156 4.157c0 2.297 1.861 4.156 4.156 4.156"/></g><path d="m88.716 649.86h2.145v3.063h-2.145z"/><path d="m240.41 493.06h3.127v88.624h-3.127z" fill="#fff"/></g><text transform="matrix(1 0 0 -1 80.367 542)" fill="#000000" font-family="Helvetica" font-size="9px"><tspan x="0 5.0040002 10.008 12.51 15.012" y="0">30 ft</tspan><tspan x="-18.819 -14.319 -9.3149996 -6.0929999 -1.089 3.915 6.9120002 9.4139996 12.411 17.415001 22.419001 24.417 29.421 33.921001" y="9.5039997">corner radius </tspan></text><g clip-path="url(#y)"><g transform="translate(101.4 561.6)"><path d="m0 0-11.278-11.278" fill="none" stroke="#000" stroke-width=".75"/></g><g transform="translate(101.44 562.41)"><path d="m0 0c-0.799-0.428-1.369-0.656-2.059-0.951l1.873-1.872c0.092 0.259 0.523 1.259 0.951 2.058 0.459 0.856 0.919 1.587 1.256 2.022-0.434-0.338-1.166-0.798-2.021-1.257"/></g></g><text transform="matrix(1 0 0 -1 219.69 555.5)" fill="#000000" font-family="Helvetica" font-size="9px"><tspan x="0 5.0040002 10.008 12.51 15.012" y="0">12 ft</tspan></text><g clip-path="url(#x)"><g transform="translate(228.22 554.11)"><path d="m0 0v-14.854" fill="none" stroke="#000" stroke-width=".75"/></g><g transform="translate(228.76 538.57)"><path d="m0 0c0.263 0.868 0.504 1.433 0.784 2.129h-2.649c0.119-0.249 0.521-1.261 0.783-2.129 0.281-0.928 0.473-1.771 0.541-2.317 0.069 0.546 0.261 1.389 0.541 2.317"/></g><g transform="translate(228.23 576.3)"><path d="m0 0v-13.243" fill="none" stroke="#000" stroke-width=".75"/></g><g transform="translate(227.69 577.03)"><path d="M 0,0 C -0.262,-0.867 -0.504,-1.432 -0.783,-2.128 H 1.865 C 1.747,-1.879 1.344,-0.867 1.082,0 0.801,0.929 0.61,1.772 0.541,2.318 0.473,1.772 0.28,0.929 0,0"/></g><path d="m32.497 701.45h88.624v3.126h-88.624z" fill="#fff"/></g><text transform="matrix(1 0 0 -1 31.843 707.43)" fill="#000000" font-family="Helvetica" font-size="9.5px" font-weight="bold"><tspan x="0 6.8590002 9.5 12.6635 15.3045 21.356001 26.638 30.3335 35.615501 38.2565 40.897499 46.179501 48.820499 51.461498 55.157001 60.438999 68.884499 74.689003 79.971001 82.612 90.002998 92.643997 95.807503 101.612 104.253 111.644 114.285 120.0895 125.3715 128.0125 133.29449 135.9355 141.74001 146.8795 154.27049 159.55251 162.1935" y="0">A - Parallel ramps with wide sidewalk</tspan></text><g clip-path="url(#w)"><g transform="translate(367.91 703.01)"><path d="m0 0v-58.458c0-61.742 50.231-111.97 111.98-111.97h58.811v-38.675l-209.34-0.109v209.22z" fill="#b1b4b6"/></g><g fill="#fff"><path d="m374.82 631.02h-57.768v-5.625h57.768z"/><path d="m374.82 670.38h-57.768v-5.625h57.768z"/><path d="m509.81 540.66h-5.529v-57.769h5.529z"/><path d="m471.57 540.66h-5.529v-57.769h5.529z"/></g><g transform="translate(367.91 703.01)"><path d="m0 0v-58.458c0-61.742 50.231-111.97 111.98-111.97h58.811v28.099h-58.811c-46.249 0-83.875 37.625-83.875 83.875v58.458z" fill="#fff"/><path d="m0 0v-58.458c0-61.742 50.231-111.97 111.98-111.97h58.811v28.099h-58.811c-46.249 0-83.875 37.625-83.875 83.875v58.458z" fill="none" stroke="#000"/></g><g transform="translate(385.59 663.12)"><path d="m0 0v7.773" fill="none" stroke="#000" stroke-width="2"/></g><g transform="translate(383.09 663.85)"><path d="M 0,0 2.494,-4.318 4.987,0 Z"/></g><g transform="translate(385.58 632.98)"><path d="m0 0v-7.773" fill="none" stroke="#000" stroke-width="2"/></g><g transform="translate(388.08 632.25)"><path d="m0 0-2.493 4.317-2.494-4.317z"/></g><g transform="translate(367.94 686.97)"><path d="m0 0h28.07m-18.544-86.913 25.292 11.006m-34.818 46.672h28.07m-28.07-18.79h28.467" fill="none" stroke="#000"/></g><path d="m376.07 638.94h-8.135v18.792h8.135z" fill="url(#c)" stroke="#000" stroke-width=".5"/><g transform="translate(451.85 565.34)"><path d="m0 0-11.746-25.08m38.74 20.416v-28.124m18.563 28.124v-28.124" fill="none" stroke="#000"/></g><path d="m497.41 532.56h-18.563v6.992h18.563z" fill="url(#b)" stroke="#000" stroke-width=".5"/><g transform="translate(527.32 560.68)"><path d="m0 0v-28.124" fill="none" stroke="#000"/></g><path d="m537.13 493.06h3.127v88.624h-3.127z" fill="#fff"/></g><text transform="matrix(1 0 0 -1 376.88 542)" fill="#000000" font-family="Helvetica" font-size="9px"><tspan x="0 5.0040002 10.008 12.51 15.012" y="0">30 ft</tspan><tspan x="-18.819 -14.319 -9.3149996 -6.0929999 -1.089 3.915 6.9120002 9.4139996 12.411 17.415001 22.419001 24.417 29.421 33.921001" y="9.5039997">corner radius </tspan></text><g clip-path="url(#r)"><g transform="translate(398.7 562.38)"><path d="m0 0-12.06-12.06" fill="none" stroke="#000" stroke-width=".75"/></g><g transform="translate(398.89 563.34)"><path d="m0 0c-0.798-0.428-1.369-0.656-2.058-0.951l1.873-1.873c0.092 0.26 0.522 1.26 0.951 2.059 0.458 0.856 0.918 1.587 1.256 2.022-0.435-0.338-1.166-0.798-2.022-1.257"/></g><path d="m318.13 701.45h88.625v3.126h-88.625z" fill="#fff"/><g transform="translate(533.44 557.89)"><path d="m0 0v-22.624" fill="none" stroke="#000" stroke-width=".75"/></g><g transform="translate(533.97 535.48)"><path d="m0 0c0.263 0.868 0.504 1.433 0.783 2.129h-2.648c0.118-0.25 0.522-1.261 0.783-2.129 0.281-0.929 0.473-1.771 0.541-2.317 0.069 0.546 0.261 1.388 0.541 2.317"/></g><g transform="translate(532.9 558.1)"><path d="m0 0c-0.263-0.868-0.504-1.433-0.783-2.129h2.648c-0.118 0.25-0.521 1.261-0.783 2.129-0.28 0.929-0.473 1.771-0.541 2.317-0.068-0.546-0.261-1.388-0.541-2.317"/></g><g transform="translate(472.84 549.06)"><path d="m0 0h-7.774" fill="none" stroke="#000" stroke-width="2"/></g><g transform="translate(472.11 546.56)"><path d="M 0,0 4.317,2.493 0,4.986 Z"/></g><g transform="translate(502.98 549.04)"><path d="m0 0h7.774" fill="none" stroke="#000" stroke-width="2"/></g><g transform="translate(503.71 551.54)"><path d="m0 0-4.318-2.493 4.318-2.493z"/></g><g transform="translate(501.57 565.92)"><path d="m0 0c0-2.295-1.859-4.156-4.156-4.156-2.295 0-4.156 1.861-4.156 4.156s1.861 4.157 4.156 4.157c2.297 0 4.156-1.862 4.156-4.157"/></g><path d="m494.79 567h-3.063v-2.145h3.063z"/><g transform="translate(401.16 661.29)"><path d="m0 0c2.295 0 4.156-1.859 4.156-4.156 0-2.295-1.861-4.157-4.156-4.157s-4.156 1.862-4.156 4.157c0 2.297 1.861 4.156 4.156 4.156"/></g><path d="m400.09 651.44h2.144v3.063h-2.144z"/><g transform="translate(516.25 575.71)"><path d="m0 0 15.15-26.508" fill="none" stroke="#000" stroke-width=".75"/></g><g transform="translate(532.48 548.39)"><path d="m0 0c-0.204 0.883-0.274 1.493-0.377 2.236l-2.299-1.315c0.227-0.157 1.078-0.835 1.737-1.459 0.705-0.667 1.29-1.303 1.62-1.743-0.212 0.508-0.463 1.335-0.681 2.281"/></g></g><text transform="matrix(1 0 0 -1 504.04 578.16)" fill="#000000" font-family="Helvetica" font-size="9px"><tspan x="0 5.0040002 7.506 10.008" y="0">5 ft</tspan></text><text transform="matrix(1 0 0 -1 328.51 707.43)" fill="#000000" font-family="Helvetica" font-size="9.5px" font-weight="bold"><tspan x="0 6.8590002 9.5 12.6635 15.3045 21.356001 26.638 30.3335 35.615501 38.2565 40.897499 46.179501 48.820499 51.461498 55.157001 60.438999 68.884499 74.689003 79.971001 82.612 90.002998 92.643997 95.807503 101.612 104.253 110.0575 115.3395 119.035 122.5405 128.2025 135.59351 138.2345 143.51649 146.1575 151.96201 157.1015 164.49249 169.77451 172.4155" y="0">B - Parallel ramps with narrow sidewalk</tspan></text><g clip-path="url(#q)"><g transform="translate(494.05 328.24)"><path d="m0 0-19.515-19.516m16.178 19.516-19.515-19.516m16.179 19.516-19.516-19.516m16.18 19.516-19.517-19.516m16.18 19.516-19.517-19.516m16.18 19.516-19.516-19.516m16.179 19.516-19.516-19.516m16.179 19.516-19.516-19.516m16.179 19.516-19.516-19.516m-3.336 0 19.515 19.516" fill="none" stroke="#000" stroke-width=".5"/></g></g><g clip-path="url(#p)"><g transform="translate(428.09 403.11)"><path d="M 0,0 -19.516,-19.516 M -3.337,0 -22.853,-19.516 M -6.674,0 -26.19,-19.516 M -10.01,0 -29.527,-19.516 M -13.347,0 -32.864,-19.516 M -16.684,0 -36.2,-19.516 M -20.021,0 -39.537,-19.516 M -23.358,0 -42.874,-19.516 M -26.695,0 -46.21,-19.516 m -3.337,0 L -30.032,0" fill="none" stroke="#000" stroke-width=".5"/></g></g><g clip-path="url(#o)"><g transform="translate(228.43 427.19)"><path d="m0 0h29.291" fill="none" stroke="#000" stroke-width=".75"/></g></g><text transform="matrix(1 0 0 -1 227.97 430.14)" fill="#000000" font-family="Helvetica" font-size="9px"><tspan x="0 5.0040002 10.008 15.012 20.016001 25.02" y="0">Legend</tspan><tspan x="-7.3260002 -0.82800001 4.0409999 10.539 15.543 21.906 26.91 29.907 34.910999 37.412998 41.912998 43.910999 48.915001 53.918999" y="15.354">Downward slope</tspan><tspan x="-7.3260002 -1.773 3.2309999 8.2349997 13.239 17.739 20.240999 23.372999 25.371 30.375 35.379002 37.881001 42.884998 47.889 52.389 57.393002 62.216999 67.221001 69.723 72.224998 77.228996" y="28.35">Pedestrian pushbutton</tspan><tspan x="-7.3260002 -0.82800001 4.1760001 6.678 11.682 16.181999 18.684 23.688 28.511999 30.51 35.514 38.015999 44.379002 49.382999 52.605 57.609001 59.606998 64.611 69.614998" y="41.346001">Detectable warning </tspan><tspan x="-7.3260002 -4.329 0.67500001 5.6789999 8.6759996 11.178 17.181 23.319 29.322001 35.055 42.056999" y="51.345001">(per ADAAG)</tspan><tspan x="-7.3260002 -2.322 2.6819999 7.6859999 12.69 14.688 19.691999 24.695999 27.198 32.202 35.199001 40.202999" y="64.341003">Landing area</tspan><tspan x="-7.3260002 -4.329 0.67500001 5.6789999 8.6759996 11.178 17.181 23.319 29.322001 35.055 42.056999" y="74.339996">(per ADAAG)</tspan></text><g clip-path="url(#n)"><g transform="translate(218.27 404.83)"><path d="m0 0c0-2.295-1.86-4.157-4.157-4.157-2.295 0-4.156 1.862-4.156 4.157s1.861 4.156 4.156 4.156c2.297 0 4.157-1.861 4.157-4.156"/></g><path d="m211.49 405.9h-3.062v-2.144h3.062z"/><g transform="translate(214.84 418.02)"><path d="m0 0h-7.773" fill="none" stroke="#000" stroke-width="2"/></g><g transform="translate(214.11 415.52)"><path d="M 0,0 4.317,2.493 0,4.986 Z"/></g><path d="m218.7 388.63h-10.921v6.328h10.921z" fill="url(#a)" stroke="#000" stroke-width=".5"/></g><g clip-path="url(#k)"><g transform="translate(234.95 377.68)"><path d="M 0,0 -19.515,-19.515 M -3.336,0 -22.852,-19.515 M -6.673,0 -26.189,-19.515 M -10.01,0 -29.526,-19.515 M -13.347,0 -32.862,-19.515 M -16.684,0 -36.199,-19.515 M -20.021,0 -39.536,-19.515 M -23.357,0 -42.873,-19.515 M -26.694,0 -46.21,-19.515" fill="none" stroke="#000" stroke-width=".5"/></g></g><g clip-path="url(#j)"><path d="m218.7 365.82h-10.921v6.328h10.921z" fill="none" stroke="#000" stroke-width=".5"/></g><text transform="matrix(1 0 0 -1 78.125 237.37)" fill="#000000" font-family="Helvetica" font-size="9px"><tspan x="0 6.4980001 11.502 14.004 19.007999 23.507999" y="0">Notes:</tspan><tspan x="0 5.1570001 10.161 12.123 18 23.499001 28.503 30.500999 35.000999 37.502998 40.005001 42.002998 47.007 52.011002 55.007999 60.012001 62.514 64.512001 69.012001 71.514 76.517998 81.522003 84.024002 86.526001 91.529999 94.527 99.261002 105.759 110.763 113.265 115.767 120.771 123.273 127.773 132.27299 137.27699 139.27499 144.144" y="12.996"> 1. This figure is not drawn to scale.</tspan><tspan x="0 5.1570001 10.161 12.123 18 23.499001 28.503 33.507 38.007 43.011002 45.513 50.516998 53.514 58.248001 64.746002 66.744003 71.748001 76.751999 81.251999 83.753998 88.758003 91.754997 96.759003 99.261002 101.259 106.263 108.765 113.769 118.773 123.777 128.78101 133.785 136.287 138.789 143.793 146.295 151.299 156.30299 160.80299 165.30299 168.435 170.433 175.437 180.44099 182.94299 185.44501 190.44901 195.453 197.955 200.457 204.957 209.961 211.959 216.459 221.463 223.461 225.963 227.961 232.965 237.465 242.46899 244.97099 246.96899 251.97301 256.97699 261.47699 263.979 266.211 271.215 274.21201 276.71399 281.71799 286.72198 291.72601 296.73001 301.23001 303.73199 306.86401 308.862 313.866 318.87 321.37201 326.37601 331.38 335.88 340.884 345.70801 350.71201 353.21399 355.716 360.72 365.724 368.22601 370.224 375.228 379.728 382.23001 387.23401 389.23199 391.23001 396.23401 398.73599 400.73401 405.73801 410.742 415.10699 417.069" y="25.992001"> 2. These drawings are intended to describe the typical locations for pedestrian pushbutton installations. </tspan><tspan x="18 23.499001 28.503 33.327 37.827 40.328999 45.333 48.330002 53.334 55.835999 60.84 65.844002 68.346001 70.848 72.846001 77.849998 80.351997 85.356003 90.360001 95.363998 100.368 105.372 107.874 110.376 115.38 117.882 122.886 127.89 130.392 135.396 137.89799 142.90199 147.90601 149.90401 154.908 159.912 162.414 164.646 169.64999 172.647 175.149 177.651 182.655 187.659 190.161 195.16499 200.16901 204.66901 206.66701 211.67101 216.675 219.177 224.181 226.683 229.185 233.685 238.689 241.686 246.69 249.192 253.692 258.69601 261.198 263.70001 266.69699 271.70099 279.198 284.202 288.47699" y="35.991001">They are not intended to be a guide for the design of curb cut ramps.</tspan><tspan x="0 5.1570001 10.161 12.123 18 23.499001 25.497 30.500999 35.505001 38.501999 43.506001 46.007999 51.012001 57.014999 60.012001 65.015999 67.517998 72.017998 77.022003 81.890999 88.389 92.889 95.390999 97.892998 102.897 107.901 110.403 113.4 118.404 122.904 127.908 135.405 142.90199 147.90601 152.91 157.914 162.918 167.922 170.424 175.42799 178.425 183.429 188.433 190.935 193.16701 198.17101 201.168 203.67 208.674 213.67799 218.17799 223.18201 228.006 233.00999 235.51199 238.01401 243.01801 248.022 250.524 252.522 257.526 262.026 267.03 269.53201 271.53 276.534 281.53799 285.90302" y="48.987"> 3. Figure 4E-3 shows the recommended area for pushbutton locations.</tspan></text></g></svg>
