<?xml version="1.0" encoding="UTF-8"?>
<svg width="381.61" height="289.09" version="1.1" viewBox="0 0 381.61 289.09" xml:space="preserve" xmlns="http://www.w3.org/2000/svg"><defs><clipPath id="j"><path d="m26.875 484.23h513.38v253.77h-513.38z"/></clipPath><clipPath id="i"><path d="m26.875 484.23h513.38v253.77h-513.38z"/></clipPath><clipPath id="h"><path d="m26.875 484.23h513.38v253.77h-513.38z"/></clipPath><clipPath id="g"><path d="m26.875 484.23h513.38v253.77h-513.38z"/></clipPath><clipPath id="f"><path d="m26.875 484.23h513.38v253.77h-513.38z"/></clipPath><clipPath id="e"><path d="m26.875 484.23h513.38v253.77h-513.38z"/></clipPath><clipPath id="d"><path d="m26.875 484.23h513.38v253.77h-513.38z"/></clipPath><clipPath id="c"><path d="m26.875 484.23h513.38v253.77h-513.38z"/></clipPath><clipPath id="b"><path d="m26.875 484.23h513.38v253.77h-513.38z"/></clipPath><clipPath id="a"><path d="m26.875 484.23h513.38v253.77h-513.38z"/></clipPath></defs><g transform="matrix(1.3333 0 0 -1.3333 -187.28 934.74)"><text transform="matrix(1 0 0 -1 227.98 693.77)" fill="#000000" font-family="Helvetica" font-size="10px" font-weight="bold"><tspan x="0 7.2199998 10 13.33 15.31 21.48 27.040001 31.129999 34.459999 37.240002 42.799999 48.360001 51.139999 53.919998 59.48 62.259998 68.370003 74.480003 80.040001 82.82 85.599998 88.93 94.489998 100.05 105.61" y="0">A - Vertical signal faces</tspan><tspan x="-6.9299998 0.28999999 3.0699999 6.4000001 9.1800003 16.4 22.51 26.4 29.18 34.18 40.290001 46.400002 49.73 55.290001 58.07 60.849998 66.410004 69.190002 75.300003 81.410004 86.970001 89.75 92.529999 95.860001 101.42 106.98 112.54" y="117.23">B - Horizontal signal faces</tspan><tspan x="-49.18 -41.959999 -39.18 -35.849998 -33.07 -26.4 -23.620001 -17.51 -11.4 -8.6199999 -3.0599999 0.27000001 5.8299999 11.39 16.950001 20.280001 23.059999 29.17 35.279999 38.060001 41.189999 47.299999 51.189999 53.970001 59.529999 65.639999 71.75 75.080002 77.860001 83.970001 90.080002 96.190002 102.3 107.86 110.64 119.53 125.34 130.89999 136.46001 145.35001 150.91 157.02" y="182.46001">C - Single-section for continuous movement</tspan></text><g transform="translate(360.15 687.66)"><path d="m0 0h42.789v-21.133h-42.761z"/></g><g clip-path="url(#j)"><g transform="translate(370.75 668.56)"><path d="m0 0c-4.718 0-8.54 3.822-8.54 8.537 0 4.717 3.822 8.541 8.54 8.541 4.717 0 8.539-3.824 8.539-8.541 0-4.715-3.822-8.537-8.539-8.537" fill="#c0311a"/></g><g transform="translate(381.56 687.66)"><path d="m0 0v-21.133" fill="none" stroke="#fff" stroke-width=".5"/></g></g><text transform="matrix(1 0 0 -1 408.2 674.26)" fill="#000000" font-family="Helvetica" font-size="9px" font-weight="bold"><tspan x="0 -60.048" y="0">RR</tspan><tspan x="-10.26" y="21.627001">Y</tspan><tspan x="-10.44" y="43.263">G</tspan></text><g clip-path="url(#i)"><g transform="translate(392.13 666.31)"><path d="m0 0v-43.041h-21.133v43.014z"/></g><g transform="translate(392.13 644.65)"><path d="m0 0h-21.133m31.948 21.632h-42.761" fill="none" stroke="#fff" stroke-width=".5"/></g><g transform="translate(392.38 668.56)"><path d="m0 0c-4.716 0-8.539 3.822-8.539 8.539 0 4.715 3.823 8.539 8.539 8.539 4.717 0 8.539-3.824 8.539-8.539 0-4.717-3.822-8.539-8.539-8.539" fill="#c0311a"/></g><g transform="translate(381.56 646.92)"><path d="m0 0c-4.716 0-8.539 3.822-8.539 8.539 0 4.715 3.823 8.539 8.539 8.539s8.539-3.824 8.539-8.539c0-4.717-3.823-8.539-8.539-8.539" fill="#ffd24f"/></g><g transform="translate(381.56 625.29)"><path d="m0 0c-4.716 0-8.539 3.822-8.539 8.539 0 4.715 3.823 8.539 8.539 8.539s8.539-3.824 8.539-8.539c0-4.717-3.823-8.539-8.539-8.539" fill="#006f51"/></g></g><text transform="matrix(1 0 0 -1 179.19 674.26)" fill="#000000" font-family="Helvetica" font-size="9px" font-weight="bold"><tspan x="0" y="0">R</tspan><tspan x="0" y="21.636">Y</tspan><tspan x="0" y="43.271999">G</tspan></text><g clip-path="url(#h)"><g transform="translate(173.56 644.65)"><path d="m0 0v-21.382h-21.133v64.396h21.133v-21.382z"/></g><g transform="translate(152.42 666.28)"><path d="m0 0h21.133m-21.133-21.632h21.133" fill="none" stroke="#fff" stroke-width=".5"/></g><g transform="translate(162.99 685.64)"><path d="m0 0c4.716 0 8.539-3.823 8.539-8.539s-3.823-8.539-8.539-8.539c-4.717 0-8.539 3.823-8.539 8.539s3.822 8.539 8.539 8.539" fill="#c0311a"/></g><g transform="translate(162.99 664)"><path d="m0 0c4.716 0 8.539-3.823 8.539-8.539s-3.823-8.539-8.539-8.539c-4.717 0-8.539 3.823-8.539 8.539s3.822 8.539 8.539 8.539" fill="#ffd24f"/></g><g transform="translate(162.99 625.29)"><path d="m0 0c-4.716 0-8.539 3.823-8.539 8.54 0 4.714 3.823 8.539 8.539 8.539 4.717 0 8.539-3.825 8.539-8.539 0-4.717-3.822-8.54-8.539-8.54" fill="#006f51"/></g></g><text transform="matrix(1 0 0 -1 244.43 674.26)" fill="#000000" font-family="Helvetica" font-size="9px" font-weight="bold"><tspan x="0" y="0">R</tspan><tspan x="0" y="21.636">Y</tspan><tspan x="0" y="43.271999">G</tspan></text><g clip-path="url(#g)"><g transform="translate(238.8 644.65)"><path d="m0 0v-21.382h-21.133v64.396h21.133v-21.382z"/></g><g transform="translate(217.67 666.28)"><path d="m0 0h21.133m-21.133-21.632h21.133" fill="none" stroke="#fff" stroke-width=".5"/></g><g transform="translate(228.23 685.64)"><path d="m0 0c4.715 0 8.539-3.823 8.539-8.539s-3.824-8.539-8.539-8.539c-4.717 0-8.54 3.823-8.54 8.539s3.823 8.539 8.54 8.539" fill="#c0311a"/></g><g transform="translate(228.23 664)"><path d="m0 0c4.715 0 8.539-3.823 8.539-8.539s-3.824-8.539-8.539-8.539c-4.717 0-8.54 3.823-8.54 8.539s3.823 8.539 8.54 8.539" fill="#ffd24f"/></g><g transform="translate(236.77 633.83)"><path d="m0 0c0-4.716-3.823-8.539-8.539-8.539-4.715 0-8.54 3.823-8.54 8.539 0 4.717 3.825 8.539 8.54 8.539 4.716 0 8.539-3.822 8.539-8.539"/><path d="m0 0c0-4.716-3.823-8.539-8.539-8.539-4.715 0-8.54 3.823-8.54 8.539 0 4.717 3.825 8.539 8.54 8.539 4.716 0 8.539-3.822 8.539-8.539z" fill="none" stroke="#fff" stroke-width=".5"/></g><g transform="translate(228.22 635.26)"><path d="m0 0v-8.505m6.344 6.893-6.325 6.325-6.326-6.326" fill="none" stroke="#006f51" stroke-width="1.395"/></g></g><text transform="matrix(1 0 0 -1 309.67 674.26)" fill="#000000" font-family="Helvetica" font-size="9px" font-weight="bold"><tspan x="0" y="0">R</tspan><tspan x="0" y="21.636">R</tspan><tspan x="0" y="43.271999">Y</tspan></text><g clip-path="url(#f)"><g transform="translate(304.04 644.65)"><path d="m0 0v-42.764h-21.133v85.778h21.133v-21.382z"/></g><g transform="translate(282.91 666.28)"><path d="m0 0h21.133m-21.133-21.632h21.133" fill="none" stroke="#fff" stroke-width=".5"/></g><g transform="translate(293.48 685.64)"><path d="m0 0c4.717 0 8.539-3.824 8.539-8.539 0-4.717-3.822-8.539-8.539-8.539-4.713 0-8.537 3.822-8.537 8.539 0 4.715 3.824 8.539 8.537 8.539" fill="#c0311a"/></g><g transform="translate(293.48 664)"><path d="m0 0c4.717 0 8.539-3.824 8.539-8.539 0-4.717-3.822-8.539-8.539-8.539-4.713 0-8.537 3.822-8.537 8.539 0 4.715 3.824 8.539 8.537 8.539" fill="#c0311a"/></g><g transform="translate(293.48 642.37)"><path d="m0 0c4.717 0 8.539-3.824 8.539-8.539 0-4.717-3.822-8.54-8.539-8.54-4.713 0-8.537 3.823-8.537 8.54 0 4.715 3.824 8.539 8.537 8.539" fill="#ffd24f"/></g></g><text transform="matrix(1 0 0 -1 309.67 609.61)" fill="#000000" font-family="Helvetica" font-size="9px" font-weight="bold"><tspan x="0" y="0">G</tspan></text><g clip-path="url(#e)"><g transform="translate(282.91 623.27)"><path d="m0 0h21.133" fill="none" stroke="#fff" stroke-width=".5"/></g><g transform="translate(302.01 612.45)"><path d="m0 0c0-4.717-3.824-8.539-8.539-8.539-4.717 0-8.539 3.822-8.539 8.539 0 4.716 3.822 8.539 8.539 8.539 4.715 0 8.539-3.823 8.539-8.539" fill="#006f51"/></g></g><text transform="matrix(1 0 0 -1 348.08 562.93)" fill="#000000" font-family="Helvetica" font-size="9px" font-weight="bold"><tspan x="0 21.627001 43.514999 64.394997" y="0">RRYG</tspan></text><g clip-path="url(#d)"><g transform="translate(383.65 535.82)"><path d="m0 0h-42.765v21.133h85.779v-21.133h-21.383z"/></g><g transform="translate(405.28 556.96)"><path d="m0 0v-21.133m-21.631 21.133v-21.133m-21.382 21.133v-21.133" fill="none" stroke="#fff" stroke-width=".5"/></g><g transform="translate(372.84 537.85)"><path d="m0 0c-4.715 0-8.539 3.822-8.539 8.539 0 4.715 3.824 8.539 8.539 8.539 4.717 0 8.539-3.824 8.539-8.539 0-4.717-3.822-8.539-8.539-8.539" fill="#c0311a"/></g><g transform="translate(351.45 537.85)"><path d="m0 0c-4.715 0-8.539 3.822-8.539 8.539 0 4.715 3.824 8.539 8.539 8.539 4.717 0 8.539-3.824 8.539-8.539 0-4.717-3.822-8.539-8.539-8.539" fill="#c0311a"/></g><g transform="translate(394.47 537.85)"><path d="m0 0c-4.715 0-8.539 3.822-8.539 8.539 0 4.715 3.824 8.539 8.539 8.539 4.717 0 8.539-3.824 8.539-8.539 0-4.717-3.822-8.539-8.539-8.539" fill="#ffd24f"/></g><g transform="translate(416.1 537.85)"><path d="m0 0c-4.715 0-8.539 3.822-8.539 8.539 0 4.715 3.824 8.539 8.539 8.539 4.717 0 8.539-3.824 8.539-8.539 0-4.717-3.822-8.539-8.539-8.539" fill="#006f51"/></g></g><text transform="matrix(1 0 0 -1 147.78 563.03)" fill="#000000" font-family="Helvetica" font-size="9px" font-weight="bold"><tspan x="0 21.636 43.263" y="0">RYG</tspan></text><g clip-path="url(#c)"><g transform="translate(183.47 556.96)"><path d="m0 0h21.384v-21.133h-64.397v21.133h21.382z"/></g><g transform="translate(172.66 554.93)"><path d="m0 0c4.717 0 8.539-3.822 8.539-8.536 0-4.718-3.822-8.541-8.539-8.541s-8.539 3.823-8.539 8.541c0 4.714 3.822 8.536 8.539 8.536" fill="#ffd24f"/></g><g transform="translate(151.02 554.93)"><path d="m0 0c4.717 0 8.539-3.822 8.539-8.536 0-4.718-3.822-8.541-8.539-8.541s-8.539 3.823-8.539 8.541c0 4.714 3.822 8.536 8.539 8.536" fill="#c0311a"/></g><g transform="translate(194.29 554.93)"><path d="m0 0c4.718 0 8.54-3.822 8.54-8.536 0-4.718-3.822-8.541-8.54-8.541-4.717 0-8.539 3.823-8.539 8.541 0 4.714 3.822 8.536 8.539 8.536" fill="#006f51"/></g><g transform="translate(161.84 535.82)"><path d="m0 0v21.133m21.631-21.133v21.133" fill="none" stroke="#fff" stroke-width=".5"/></g></g><text transform="matrix(1 0 0 -1 247.99 563.98)" fill="#000000" font-family="Helvetica" font-size="9px" font-weight="bold"><tspan x="0 21.636 43.263" y="0">RYG</tspan></text><g clip-path="url(#b)"><g transform="translate(283.69 557.91)"><path d="m0 0h21.382v-21.133h-64.396v21.133h21.383z"/></g><g transform="translate(272.87 555.88)"><path d="m0 0c4.717 0 8.539-3.821 8.539-8.536 0-4.718-3.822-8.541-8.539-8.541s-8.539 3.823-8.539 8.541c0 4.715 3.822 8.536 8.539 8.536" fill="#ffd24f"/></g><g transform="translate(251.24 555.88)"><path d="m0 0c4.717 0 8.539-3.821 8.539-8.536 0-4.718-3.822-8.541-8.539-8.541-4.716 0-8.539 3.823-8.539 8.541 0 4.715 3.823 8.536 8.539 8.536" fill="#c0311a"/></g><g transform="translate(262.06 536.78)"><path d="m0 0v21.133m21.631-21.133v21.133" fill="none" stroke="#fff" stroke-width=".5"/></g><g transform="translate(303.04 547.34)"><path d="m0 0c0-4.717-3.824-8.539-8.539-8.539-4.717 0-8.539 3.822-8.539 8.539s3.822 8.539 8.539 8.539c4.715 0 8.539-3.822 8.539-8.539"/><path d="m0 0c0-4.717-3.824-8.539-8.539-8.539-4.717 0-8.539 3.822-8.539 8.539s3.822 8.539 8.539 8.539c4.715 0 8.539-3.822 8.539-8.539z" fill="none" stroke="#fff" stroke-width=".5"/></g><g transform="translate(294.49 548.77)"><path d="m0 0v-8.505m6.344 6.894-6.324 6.324-6.324-6.326" fill="none" stroke="#006f51" stroke-width="1.395"/></g></g><text transform="matrix(1 0 0 -1 293.39 491.96)" fill="#000000" font-family="Helvetica" font-size="9px" font-weight="bold"><tspan x="0" y="0">G</tspan></text><g clip-path="url(#a)"><path d="m266.73 505.36h21.132v-21.133h-21.132z"/><g transform="translate(285.84 494.8)"><path d="m0 0c0-4.717-3.824-8.539-8.539-8.539-4.717 0-8.539 3.822-8.539 8.539s3.822 8.539 8.539 8.539c4.715 0 8.539-3.822 8.539-8.539"/><path d="m0 0c0-4.717-3.824-8.539-8.539-8.539-4.717 0-8.539 3.822-8.539 8.539s3.822 8.539 8.539 8.539c4.715 0 8.539-3.822 8.539-8.539z" fill="none" stroke="#fff" stroke-width=".5"/></g><g transform="translate(277.29 496.23)"><path d="m0 0v-8.506m6.344 6.894-6.324 6.324-6.324-6.326" fill="none" stroke="#006f51" stroke-width="1.395"/></g></g></g></svg>
