<?xml version="1.0" encoding="UTF-8"?>
<svg width="563.76" height="792.56" version="1.1" viewBox="0 0 563.76 792.56" xml:space="preserve" xmlns="http://www.w3.org/2000/svg"><defs><clipPath id="h"><path d="m0 792h612v-792h-612z"/></clipPath><clipPath id="g"><path d="m63 42.602h513v694.65h-513z"/></clipPath><clipPath id="f"><path d="m72 0h-72v72h72z"/></clipPath><pattern id="a" width="72" height="72" patternTransform="matrix(.4688 .4688 -.4688 .4688 -42.499 334.52)" patternUnits="userSpaceOnUse"><g clip-path="url(#f)"><g transform="translate(-.25 3.6)"><path d="m0 0h72.5m-72.5 14.4h72.5m-72.5 14.4h72.5m-72.5 14.4h72.5m-72.5 14.4h72.5m-72.5-50.4h72.5m-72.5 14.4h72.5m-72.5 14.4h72.5m-72.5 14.4h72.5m-72.5 14.4h72.5" fill="none" stroke="#000" stroke-width="1.44"/></g></g></pattern><clipPath id="e"><path d="m63 42.602h513v694.65h-513z"/></clipPath><clipPath id="d"><path d="m63 42.602h513v694.65h-513z"/></clipPath><clipPath id="c"><path d="m63 42.602h513v694.65h-513z"/></clipPath><clipPath id="b"><path d="m63 42.602h513v694.65h-513z"/></clipPath></defs><g transform="matrix(1.3333 0 0 -1.3333 -108.05 898.21)"><g clip-path="url(#h)"/><g transform="translate(274.1 669.77)"><path d="m0 0v-567.64m112.19 567.64v-567.64" fill="none" stroke="#000"/></g><path d="m383.7 102.13h-107v567.64h107z" fill="#b1b4b6"/><g transform="translate(399.51 135.95)"><path d="m0 0v-3.416h-3.416v-3.166h10v3.166h-3.418v3.416h-1.583z"/></g><g transform="translate(399.51 186.95)"><path d="m0 0v-3.416h-3.416v-3.166h10v3.166h-3.418v3.416h-1.583z"/></g><g transform="translate(365.51 318.54)"><path d="m0 0v-3.416h-3.416v-3.168h10v3.168h-3.418v3.416h-1.583z"/></g><g transform="translate(260.51 633.54)"><path d="m0 0v3.416h3.416v3.167h-10v-3.167h3.418v-3.416h1.583z"/></g><g transform="translate(260.51 600.54)"><path d="m0 0v3.416h3.416v3.167h-10v-3.167h3.418v-3.416h1.583z"/></g><g transform="translate(417.86 130.1)"><path d="m0 0h20.36m-10.18 3.933v15.019" fill="none" stroke="#000" stroke-width=".75"/></g><g clip-path="url(#g)"><g transform="translate(428.58 132.79)"><path d="m0 0c0.263 0.869 0.504 1.433 0.783 2.129h-2.648c0.118-0.249 0.521-1.26 0.783-2.129 0.28-0.928 0.473-1.771 0.541-2.317 0.068 0.546 0.261 1.389 0.541 2.317"/></g><g transform="translate(417.86 180.31)"><path d="m0 0h20.36m-10.18-3.932v-16.779" fill="none" stroke="#000" stroke-width=".75"/></g><g transform="translate(427.5 177.61)"><path d="m0 0c-0.263-0.868-0.504-1.433-0.783-2.129h2.648c-0.118 0.249-0.521 1.261-0.783 2.129-0.28 0.928-0.473 1.771-0.541 2.317-0.068-0.546-0.261-1.389-0.541-2.317"/></g><g transform="translate(428.04 184.24)"><path d="m0 0v12.235" fill="none" stroke="#000" stroke-width=".75"/></g><g transform="translate(428.58 183)"><path d="m0 0c0.263 0.868 0.504 1.432 0.783 2.128h-2.648c0.118-0.249 0.521-1.26 0.783-2.128 0.28-0.929 0.473-1.772 0.541-2.318 0.068 0.546 0.261 1.389 0.541 2.318"/></g><g transform="translate(387.51 225.18)"><path d="m0 0h50.71m-10.18-3.932v-14.331" fill="none" stroke="#000" stroke-width=".75"/></g><g transform="translate(427.5 222.49)"><path d="m0 0c-0.263-0.868-0.504-1.433-0.783-2.129h2.648c-0.118 0.249-0.521 1.261-0.783 2.129-0.28 0.928-0.473 1.771-0.541 2.317-0.068-0.546-0.261-1.389-0.541-2.317"/></g><g transform="translate(226.84 175.31)"><path d="m0 0h102.67m-92.487 3.933v6.633" fill="none" stroke="#000" stroke-width=".75"/></g><g transform="translate(237.56 178)"><path d="m0 0c0.262 0.868 0.503 1.432 0.783 2.128h-2.649c0.119-0.249 0.521-1.26 0.783-2.128 0.281-0.929 0.473-1.772 0.541-2.318 0.069 0.546 0.261 1.389 0.542 2.318"/></g><g transform="translate(237.02 202.58)"><path d="m0 0v-6.17" fill="none" stroke="#000" stroke-width=".75"/></g><g transform="translate(236.49 203.82)"><path d="m0 0c-0.262-0.868-0.504-1.433-0.783-2.129h2.649c-0.119 0.249-0.521 1.261-0.784 2.129-0.28 0.928-0.472 1.771-0.541 2.317-0.068-0.546-0.26-1.389-0.541-2.317"/></g><g transform="translate(428.04 318.43)"><path d="m0 0v17.228" fill="none" stroke="#000" stroke-width=".75"/></g><g transform="translate(428.58 317.19)"><path d="m0 0c0.263 0.868 0.504 1.433 0.783 2.129h-2.648c0.118-0.249 0.521-1.261 0.783-2.129 0.28-0.929 0.473-1.771 0.541-2.317 0.068 0.546 0.261 1.388 0.541 2.317"/></g><g transform="translate(428.04 364.85)"><path d="m0 0v-18.554" fill="none" stroke="#000" stroke-width=".75"/></g><g transform="translate(427.5 366.09)"><path d="m0 0c-0.263-0.868-0.504-1.432-0.783-2.128h2.648c-0.118 0.249-0.521 1.26-0.783 2.128-0.28 0.929-0.473 1.772-0.541 2.318-0.068-0.546-0.261-1.389-0.541-2.318"/></g><g transform="translate(428.04 229.11)"><path d="m0 0v13.818" fill="none" stroke="#000" stroke-width=".75"/></g><g transform="translate(428.58 227.87)"><path d="m0 0c0.263 0.868 0.504 1.432 0.783 2.128h-2.648c0.118-0.249 0.521-1.26 0.783-2.128 0.28-0.929 0.473-1.772 0.541-2.318 0.068 0.546 0.261 1.389 0.541 2.318"/></g><g transform="translate(361.51 272.52)"><path d="m0 0h76.71m-51.376 41.979h51.376m-10.18-45.911v-15.014" fill="none" stroke="#000" stroke-width=".75"/></g><g transform="translate(427.5 269.82)"><path d="m0 0c-0.263-0.868-0.504-1.433-0.783-2.129h2.648c-0.118 0.249-0.521 1.261-0.783 2.129-0.28 0.928-0.473 1.771-0.541 2.317-0.068-0.546-0.261-1.389-0.541-2.317"/></g><g transform="translate(391.51 368.78)"><path d="m0 0h65.355m-28.825 3.932v10.941" fill="none" stroke="#000" stroke-width=".75"/></g><g transform="translate(428.58 371.47)"><path d="m0 0c0.263 0.868 0.504 1.433 0.783 2.129h-2.648c0.118-0.249 0.521-1.261 0.783-2.129 0.28-0.928 0.473-1.771 0.541-2.317 0.068 0.546 0.261 1.389 0.541 2.317"/></g><g transform="translate(428.04 409.24)"><path d="m0 0v-14.667" fill="none" stroke="#000" stroke-width=".75"/></g><g transform="translate(427.5 410.48)"><path d="m0 0c-0.263-0.867-0.504-1.432-0.783-2.128h2.648c-0.118 0.249-0.521 1.261-0.783 2.128-0.28 0.93-0.473 1.771-0.541 2.318-0.068-0.547-0.261-1.388-0.541-2.318"/></g><g transform="translate(391.51 413.18)"><path d="m0 0h65.355m-209.21 225.8h-20.36m10.18-18.091v-3.011m0 17.912v-6.13" fill="none" stroke="#000" stroke-width=".75"/></g><g transform="translate(236.94 637.02)"><path d="m0 0c-0.262-0.867-0.504-1.432-0.783-2.128h2.649c-0.119 0.25-0.521 1.261-0.784 2.128-0.28 0.93-0.472 1.772-0.541 2.318-0.068-0.546-0.26-1.388-0.541-2.318"/></g><g transform="translate(247.66 605.44)"><path d="m0 0h-20.36m10.18 3.932v11.008" fill="none" stroke="#000" stroke-width=".75"/></g><g transform="translate(238.02 608.13)"><path d="m0 0c0.262 0.868 0.503 1.433 0.783 2.129h-2.649c0.119-0.25 0.521-1.261 0.784-2.129 0.28-0.929 0.472-1.771 0.541-2.317 0.068 0.546 0.26 1.388 0.541 2.317"/></g><g transform="translate(237.48 601.5)"><path d="m0 0v-8.117" fill="none" stroke="#000" stroke-width=".75"/></g><g transform="translate(236.94 602.74)"><path d="m0 0c-0.262-0.868-0.504-1.432-0.783-2.129h2.649c-0.119 0.25-0.521 1.261-0.784 2.129-0.28 0.929-0.472 1.771-0.541 2.318-0.068-0.547-0.26-1.389-0.541-2.318"/></g><g transform="translate(237.48 575.56)"><path d="m0 0v7.533" fill="none" stroke="#000" stroke-width=".75"/></g><g transform="translate(238.02 574.32)"><path d="m0 0c0.262 0.868 0.503 1.432 0.783 2.129h-2.649c0.119-0.25 0.521-1.261 0.784-2.129 0.28-0.929 0.472-1.771 0.541-2.318 0.068 0.547 0.26 1.389 0.541 2.318"/></g><g transform="translate(237.48 441.53)"><path d="m0 0v-16.85" fill="none" stroke="#000" stroke-width=".75"/></g><g transform="translate(236.94 442.77)"><path d="m0 0c-0.262-0.868-0.504-1.433-0.783-2.129h2.649c-0.119 0.25-0.521 1.261-0.784 2.129-0.28 0.929-0.472 1.772-0.541 2.317-0.068-0.545-0.26-1.388-0.541-2.317"/></g><g transform="translate(237.48 395.45)"><path d="m0 0v17.975" fill="none" stroke="#000" stroke-width=".75"/></g><g transform="translate(238.02 394.21)"><path d="m0 0c0.262 0.869 0.503 1.433 0.783 2.129h-2.649c0.119-0.25 0.521-1.26 0.784-2.129 0.28-0.928 0.472-1.771 0.541-2.317 0.068 0.546 0.26 1.389 0.541 2.317"/></g><g transform="translate(237.48 567.7)"><path d="m0 0v-29.496" fill="none" stroke="#000" stroke-width=".75"/></g><g transform="translate(236.94 568.94)"><path d="m0 0c-0.262-0.867-0.504-1.432-0.783-2.128h2.649c-0.119 0.25-0.521 1.261-0.784 2.128-0.28 0.93-0.472 1.772-0.541 2.318-0.068-0.546-0.26-1.388-0.541-2.318"/></g><g transform="translate(292.84 492.52)"><path d="m0 0h-65.545m89.545-47.057h-89.545m47.377-53.943h-47.377m10.18 104.93v31.173" fill="none" stroke="#000" stroke-width=".75"/></g><g transform="translate(238.02 495.21)"><path d="m0 0c0.262 0.868 0.503 1.432 0.783 2.128h-2.649c0.119-0.249 0.521-1.26 0.784-2.128 0.28-0.929 0.472-1.772 0.541-2.318 0.068 0.546 0.26 1.389 0.541 2.318"/></g><g transform="translate(328.95 669.77)"><path d="m0 0v-567.64m3 567.64v-567.64" fill="none" stroke="#ffd200" stroke-width="2"/></g><g transform="translate(302.63 669.85)"><path d="m0 0v-567.72m55.403 567.72v-567.72" fill="none" stroke="#fff" stroke-dasharray="22, 67" stroke-width="2"/></g><path d="m380.54 369.44h-18.77v-44.281h18.77z" fill="#fff" stroke="#000"/><g transform="translate(322.74 499.58)"><path d="m0 0c-1.175 0-2.126-0.952-2.126-2.126s0.951-2.126 2.126-2.126 2.126 0.952 2.126 2.126-0.951 2.126-2.126 2.126" fill="#ffd200"/><path d="m0 0c-1.175 0-2.126-0.952-2.126-2.126s0.951-2.126 2.126-2.126 2.126 0.952 2.126 2.126-0.951 2.126-2.126 2.126z" fill="none" stroke="#000"/></g><g transform="translate(315.59 499.58)"><path d="m0 0c-1.175 0-2.127-0.952-2.127-2.126s0.952-2.126 2.127-2.126c1.174 0 2.126 0.952 2.126 2.126s-0.952 2.126-2.126 2.126" fill="#ffd200"/><path d="m0 0c-1.175 0-2.127-0.952-2.127-2.126s0.952-2.126 2.127-2.126c1.174 0 2.126 0.952 2.126 2.126s-0.952 2.126-2.126 2.126z" fill="none" stroke="#000"/></g><g transform="translate(308.45 499.58)"><path d="m0 0c-1.174 0-2.125-0.952-2.125-2.126s0.951-2.126 2.125-2.126c1.176 0 2.127 0.952 2.127 2.126s-0.951 2.126-2.127 2.126" fill="#ffd200"/><path d="m0 0c-1.174 0-2.125-0.952-2.125-2.126s0.951-2.126 2.125-2.126c1.176 0 2.127 0.952 2.127 2.126s-0.951 2.126-2.127 2.126z" fill="none" stroke="#000"/></g><g transform="translate(322.93 492.24)"><path d="m0 0h-14.667" fill="none" stroke="#000" stroke-width="2"/></g><g fill="#f4901d"><path d="m332.18 573.2h-3.333v-3.333h3.333z"/><path d="m328.21 563.29h-3.334v-3.334h3.334z"/><path d="m324.24 553.37h-3.333v-3.333h3.333z"/><path d="m320.27 543.45h-3.334v-3.333h3.334z"/><path d="m316.3 533.54h-3.333v-3.334h3.333z"/><path d="m312.33 523.62h-3.333v-3.333h3.333z"/><path d="m308.36 513.7h-3.334v-3.333h3.334z"/><path d="m304.39 503.79h-3.332v-3.334h3.332z"/><path d="m304.39 493.87h-3.332v-3.333h3.332z"/><path d="m304.39 468.54h-3.332v-3.334h3.332z"/><path d="m304.39 439.87h-3.332v-3.333h3.332z"/><path d="m304.39 416.54h-3.332v-3.334h3.332z"/><path d="m304.39 393.2h-3.332v-3.333h3.332z"/><path d="m308.88 404h-3.334v-3.333h3.334z"/><path d="m313.37 414.8h-3.334v-3.333h3.334z"/><path d="m317.86 425.6h-3.333v-3.333h3.333z"/><path d="m322.35 436.4h-3.333v-3.333h3.333z"/><path d="m326.84 447.2h-3.334v-3.333h3.334z"/><path d="m370.58 388.62h-3.334v-3.334h3.334z"/><path d="m376.22 397.66h-3.334v-3.334h3.334z"/><path d="m381.86 406.7h-3.333v-3.334h3.333z"/><path d="m388.47 415.74h-3.334v-3.334h3.334z"/><path d="m304.39 370.54h-3.332v-3.334h3.332z"/><path d="m359.29 370.54h-3.334v-3.334h3.334z"/><path d="m304.39 351.7h-3.332v-3.333h3.332z"/><path d="m304.39 326.54h-3.332v-3.334h3.332z"/><path d="m304.39 301.2h-3.332v-3.332h3.332z"/><path d="m359.29 351.7h-3.334v-3.333h3.334z"/><path d="m359.29 326.54h-3.334v-3.334h3.334z"/><path d="m359.29 301.2h-3.334v-3.332h3.334z"/><path d="m304.39 272.54h-3.332v-3.334h3.332z"/><path d="m307.86 264.54h-3.334v-3.334h3.334z"/><path d="m311.34 256.54h-3.333v-3.334h3.333z"/><path d="m314.81 248.54h-3.333v-3.334h3.333z"/><path d="m318.28 240.54h-3.334v-3.334h3.334z"/><path d="m321.76 232.54h-3.333v-3.334h3.333z"/><path d="m325.23 224.54h-3.333v-3.334h3.333z"/><path d="m328.7 216.54h-3.334v-3.334h3.334z"/><path d="m332.18 208.54h-3.333v-3.334h3.333z"/><path d="m332.18 200.94h-3.333v-3.334h3.333z"/><path d="m332.18 193.34h-3.333v-3.333h3.333z"/><path d="m332.18 185.74h-3.333v-3.333h3.333z"/><path d="m332.18 178.14h-3.333v-3.333h3.333z"/><path d="m359.29 272.54h-3.334v-3.334h3.334z"/><path d="m363.46 265.49h-3.332v-3.333h3.332z"/><path d="m367.62 258.44h-3.333v-3.333h3.333z"/><path d="m371.79 251.4h-3.333v-3.334h3.333z"/><path d="m375.96 244.35h-3.333v-3.333h3.333z"/><path d="m380.13 237.3h-3.334v-3.333h3.334z"/><path d="m384.3 230.25h-3.334v-3.334h3.334z"/><path d="m388.47 223.2h-3.333v-3.332h3.333z"/></g><path d="m380.54 369.44h-18.77v-44.281h18.77z" fill="url(#a)" stroke="#000"/><g transform="translate(326.52 428.94)"><path d="m0 0 8.25-8.25m-8.25 0.314 8.25-8.25m-8.25 0.314 8.25-8.25m-8.25 0.314 8.25-8.251m-8.25 0.315 8.25-8.25m-8.25 0.314 8.25-8.25m-8.25 0.315 8.25-8.25m-8.25 0.313 8.25-8.25m-8.25 0.314 8.25-8.25m-8.25 0.314 8.25-8.25m-8.25 0.315 8.25-8.25m-8.25 0.314 8.25-8.251m-8.25 0.315 8.25-8.25m-8.25 0.314 8.25-8.25m-8.25 0.314 8.25-8.25m-8.25 0.314 8.25-8.25m-8.25 0.313 8.25-8.25m-8.25 0.315 8.25-8.25m-8.25 0.314 8.25-8.25m-8.25 0.314 8.25-8.25m-8.25 0.314 8.25-8.25m-8.25 0.315 8.25-8.25m-8.25 0.313 8.25-8.25m-8.25 0.315 8.25-8.25m-8.25 0.313 8.25-8.25m-8.25 0.315 8.25-8.25" fill="none" stroke="#000" stroke-linecap="round" stroke-width="2"/></g><path d="m196.03 499.4h-41.561v22.666h41.561z"/><g transform="translate(163.32 504.75)"><path d="m0 0c0.958 0 1.734-0.777 1.734-1.735s-0.776-1.735-1.734-1.735c-0.959 0-1.736 0.777-1.736 1.735s0.777 1.735 1.736 1.735" fill="#ffd200"/></g><g transform="translate(160.55 508.61)"><path d="m0 0c0.959 0 1.736-0.777 1.736-1.735 0-0.959-0.777-1.737-1.736-1.737-0.958 0-1.734 0.778-1.734 1.737 0 0.958 0.776 1.735 1.734 1.735" fill="#ffd200"/></g><g transform="translate(163.32 516.71)"><path d="m0 0c0.958 0 1.734 0.778 1.734 1.736s-0.776 1.735-1.734 1.735c-0.959 0-1.736-0.777-1.736-1.735s0.777-1.736 1.736-1.736" fill="#ffd200"/></g><g transform="translate(160.55 512.85)"><path d="m0 0c0.959 0 1.736 0.777 1.736 1.736s-0.777 1.736-1.736 1.736c-0.958 0-1.734-0.777-1.734-1.736s0.776-1.736 1.734-1.736" fill="#ffd200"/></g><g transform="translate(157.79 512.47)"><path d="m0 0c0.958 0 1.735-0.777 1.735-1.735s-0.777-1.735-1.735-1.735c-0.959 0-1.736 0.777-1.736 1.735s0.777 1.735 1.736 1.735" fill="#ffd200"/></g><g transform="translate(167.99 512.47)"><path d="m0 0c0.959 0 1.737-0.777 1.737-1.735s-0.778-1.735-1.737-1.735c-0.958 0-1.734 0.777-1.734 1.735s0.776 1.735 1.734 1.735" fill="#ffd200"/></g><g transform="translate(174.17 512.47)"><path d="m0 0c0.958 0 1.735-0.777 1.735-1.735s-0.777-1.735-1.735-1.735-1.735 0.777-1.735 1.735 0.777 1.735 1.735 1.735" fill="#ffd200"/></g><g transform="translate(180.35 512.47)"><path d="m0 0c0.958 0 1.735-0.777 1.735-1.735s-0.777-1.735-1.735-1.735c-0.959 0-1.737 0.777-1.737 1.735s0.778 1.735 1.737 1.735" fill="#ffd200"/></g><g transform="translate(186.53 512.47)"><path d="m0 0c0.959 0 1.737-0.777 1.737-1.735s-0.778-1.735-1.737-1.735c-0.958 0-1.735 0.777-1.735 1.735s0.777 1.735 1.735 1.735" fill="#ffd200"/></g><g transform="translate(192.71 512.47)"><path d="m0 0c0.958 0 1.735-0.777 1.735-1.735s-0.777-1.735-1.735-1.735-1.735 0.777-1.735 1.735 0.777 1.735 1.735 1.735" fill="#ffd200"/></g><g transform="translate(441.44 105.22)"><path d="m0 0s-40.843 3.883-40.436 20.595" fill="none" stroke="#000" stroke-width=".75"/></g><g transform="translate(400.5 127.07)"><path d="m0 0c-0.282-0.861-0.538-1.421-0.835-2.11l2.648-0.064c-0.113 0.252-0.492 1.273-0.731 2.148-0.259 0.935-0.43 1.782-0.484 2.33-0.083-0.545-0.294-1.382-0.598-2.304"/></g><g transform="translate(446.88 171.49)"><path d="m0 0c-30.5-9.5-45.774-6.99-45.774 5.321" fill="none" stroke="#000" stroke-width=".75"/></g><g transform="translate(400.56 178.05)"><path d="m0 0c-0.261-0.868-0.5-1.433-0.779-2.13l2.649 7e-3c-0.118 0.249-0.525 1.259-0.789 2.126-0.283 0.928-0.477 1.771-0.547 2.317-0.068-0.546-0.257-1.39-0.534-2.32"/></g><g transform="translate(456.32 314.3)"><path d="m0 0c-12.666-10.542-36.104-4.207-58.021-10.175-22.518-6.133-31.053-1.414-31.15 4.277" fill="none" stroke="#000" stroke-width=".75"/></g><g transform="translate(366.59 309.63)"><path d="m0 0c-0.248-0.872-0.481-1.44-0.748-2.141l2.648 0.044c-0.123 0.247-0.543 1.251-0.818 2.115-0.296 0.924-0.502 1.764-0.579 2.308-0.06-0.547-0.238-1.392-0.503-2.326"/></g><g transform="translate(372.56 117.74)"><path d="m0 0v10.664h2.615l-4.326 7.345-4.024-7.345h2.414v-10.664z"/></g><g transform="translate(344.36 117.74)"><path d="m0 0v10.664h-2.615l4.326 7.345 4.024-7.345h-2.414v-10.664z"/></g><g transform="translate(316.45 135.75)"><path d="m0 0v-10.664h2.616l-4.327-7.345-4.023 7.345h2.414v10.664z"/></g><g transform="translate(287.24 135.75)"><path d="m0 0v-10.664h-2.615l4.326-7.345 4.023 7.345h-2.414v10.664z"/></g><g transform="translate(372.94 624.59)"><path d="m0 0v10.665h2.616l-4.326 7.345-4.024-7.345h2.414v-10.665z"/></g><g transform="translate(344.73 624.59)"><path d="m0 0v10.665h-2.615l4.326 7.345 4.024-7.345h-2.414v-10.665z"/></g><g transform="translate(316.82 642.6)"><path d="m0 0v-10.664h2.615l-4.326-7.346-4.023 7.346h2.414v10.664z"/></g><g transform="translate(287.61 642.6)"><path d="m0 0v-10.664h-2.615l4.326-7.346 4.023 7.346h-2.414v10.664z"/></g><g transform="translate(354.31 399.57)"><path d="m0 0 8.25-8.25m-8.25 0.313 8.25-8.25m-8.25 0.315 8.25-8.25" fill="none" stroke="#000" stroke-linecap="round" stroke-width="2"/></g><path d="m364.93 379.58h-3.333v-3.333h3.333z" fill="#f4901d"/><g transform="translate(358.03 192.6)"><path d="m0 0v38.5l-22.81 41.372v103.17l22.81 52.83v28.63" fill="none" stroke="#fff" stroke-width="2"/></g><g transform="translate(258.09 339.67)"><path d="m0 0 73.571 0.52" fill="none" stroke="#000" stroke-width=".75"/></g><g transform="translate(332.89 340.75)"><path d="m0 0c-0.873 0.247-1.442 0.477-2.143 0.744l0.05-2.649c0.247 0.123 1.25 0.545 2.113 0.823 0.924 0.298 1.762 0.506 2.307 0.585-0.547 0.058-1.393 0.235-2.327 0.497"/></g><g transform="translate(195.9 655.5)"><path d="m0 0c7.979 4.788 63.326 2.032 63.088-11.827" fill="none" stroke="#000" stroke-width=".75"/></g><g transform="translate(259.51 642.43)"><path d="m0 0c0.277 0.863 0.528 1.423 0.82 2.114l-2.648 0.046c0.113-0.251 0.499-1.269 0.746-2.141 0.265-0.934 0.443-1.78 0.502-2.327 0.077 0.545 0.284 1.383 0.58 2.308"/></g><g transform="translate(190.99 594.87)"><path d="m0 0c8.937 9.255 67.944 35.907 67.944 15.807" fill="none" stroke="#000" stroke-width=".75"/></g><g transform="translate(259.47 609.44)"><path d="m0 0c0.262 0.869 0.504 1.433 0.783 2.129l-2.648-1e-3c0.118-0.249 0.521-1.259 0.782-2.128 0.281-0.928 0.473-1.771 0.542-2.317 0.069 0.546 0.261 1.389 0.541 2.317"/></g><g transform="translate(199.14 506.71)"><path d="m0 0c15.002 0.958 116.48 34.422 116.48-3.199" fill="none" stroke="#000" stroke-width=".75"/></g><g transform="translate(316.15 502.27)"><path d="m0 0c0.266 0.867 0.511 1.429 0.793 2.125l-2.647 0.012c0.117-0.25 0.515-1.262 0.772-2.132 0.276-0.93 0.464-1.773 0.53-2.32 0.071 0.546 0.267 1.388 0.552 2.315"/></g><g transform="translate(462.1 99.514)"><path d="m0 0h-0.909l0.446 2.265h0.019z"/></g><g transform="translate(443.17 112.03)"><path d="m0 0 27.571 27.57c1.162 1.164 3.067 1.164 4.227 0l27.573-27.57c1.16-1.163 1.16-3.064 0-4.226l-27.573-27.571c-1.16-1.164-3.065-1.164-4.227 0l-27.571 27.571c-1.16 1.162-1.16 3.063 0 4.226" fill="#f4901d"/><path d="m0 0 27.571 27.57c1.162 1.164 3.067 1.164 4.227 0l27.573-27.57c1.16-1.163 1.16-3.064 0-4.226l-27.573-27.571c-1.16-1.164-3.065-1.164-4.227 0l-27.571 27.571c-1.16 1.162-1.16 3.063 0 4.226z" fill="none" stroke="#000" stroke-miterlimit="2.613" stroke-width=".25"/></g><g transform="translate(443.97 111.77)"><path d="m0 0 27.027 27.028c1.021 1.02 2.69 1.02 3.713 0l27.026-27.028c1.021-1.021 1.021-2.69 0-3.708l-27.026-27.031c-1.023-1.018-2.692-1.018-3.713 0l-27.027 27.031c-1.021 1.018-1.021 2.687 0 3.708" fill-rule="evenodd"/></g><g transform="translate(445.02 111.06)"><path d="m0 0 26.686 26.684c0.626 0.629 1.656 0.629 2.288 0l26.683-26.684c0.628-0.632 0.628-1.658 0-2.287l-26.683-26.684c-0.632-0.632-1.662-0.632-2.288 0l-26.686 26.684c-0.628 0.629-0.628 1.655 0 2.287" fill="#f4901d" fill-rule="evenodd"/></g><g transform="translate(466.8 107.54)"><path d="m0 0h-0.917l-1.032 4.193-1.007-4.193h-0.917l-0.963 6.531h1.054l0.504-3.438 0.826 3.438h1.007l0.849-3.438 0.504 3.438h1.054z"/></g><g transform="translate(472.99 110.8)"><path d="m0 0c0 0.826-0.161 1.651-0.435 2.224-0.413 0.802-0.986 1.168-1.811 1.168-0.756 0-1.283-0.229-1.673-0.733-0.435-0.619-0.711-1.581-0.711-2.659 0-0.779 0.184-1.649 0.459-2.2 0.39-0.802 0.962-1.168 1.879-1.168 0.688 0 1.215 0.229 1.581 0.734 0.459 0.572 0.711 1.603 0.711 2.634m-1.031 0c0-0.503-0.115-1.145-0.252-1.489-0.23-0.573-0.527-0.825-1.009-0.825-0.412 0-0.687 0.16-0.893 0.504-0.252 0.413-0.39 1.123-0.39 1.81 0 0.551 0.092 1.147 0.252 1.537 0.229 0.572 0.55 0.824 1.054 0.801 0.389-0.023 0.642-0.16 0.848-0.504 0.252-0.435 0.39-1.1 0.39-1.834"/></g><g transform="translate(478.65 107.54)"><path d="m0 0-1.146 3.047c0.596 0.276 1.009 0.963 1.009 1.651 0 0.664-0.413 1.351-0.986 1.627-0.321 0.16-0.665 0.206-1.169 0.206h-2.154v-6.531h1.031v2.841h1.238l1.054-2.841zm-1.169 4.698c0-0.276-0.16-0.55-0.413-0.688-0.16-0.092-0.274-0.115-0.595-0.115h-1.238v1.605h1.238c0.343 0 0.435-0.023 0.595-0.115 0.253-0.137 0.413-0.413 0.413-0.687"/></g><g transform="translate(482.89 107.54)"><path d="m0 0-1.651 3.093-0.687-0.847v-2.246h-1.032v6.531h1.032v-2.59l2.062 2.59h1.329l-2.016-2.544 2.154-3.987z"/></g><g transform="translate(464.83 96.668)"><path d="m0 0-2.246 6.532h-1.031l-2.246-6.532h1.1l0.642 1.833h2.039l0.641-1.833zm-2.108 2.888h-1.307l0.665 1.833z"/></g><g transform="translate(469 96.668)"><path d="m0 0v2.842h-2.383v-2.842h-1.031v6.532h1.031v-2.636h2.383v2.636h1.031v-6.532z"/></g><g transform="translate(471.36 96.668)"><path d="m0 0v6.532h3.851v-1.032h-2.819v-1.604h1.902v-1.054h-1.902v-1.788h3.025v-1.054z"/></g><g transform="translate(478.49 101.39)"><path d="m0 0-0.664-1.833h1.306zm1.651-4.721-0.642 1.833h-2.04l-0.642-1.833h-1.099l2.246 6.532h1.031l2.245-6.532z"/></g><g transform="translate(486.44 99.946)"><path d="m0 0c0 1.283-0.389 2.314-1.077 2.91-0.344 0.275-0.595 0.344-1.261 0.344h-2.108v-6.532h2.36c0.345 0.023 0.689 0.138 0.941 0.367 0.733 0.573 1.145 1.604 1.145 2.911m-1.053 0c0-0.871-0.207-1.581-0.597-1.971-0.183-0.183-0.39-0.253-0.733-0.253h-1.032v4.446h1.169c0.276 0 0.505-0.114 0.665-0.275 0.321-0.344 0.528-1.076 0.528-1.947"/></g><g transform="translate(466.92 118.08)"><path d="m0 0-1.146 3.047c0.596 0.276 1.008 0.963 1.008 1.651 0 0.664-0.412 1.351-0.985 1.627-0.321 0.16-0.665 0.206-1.169 0.206h-2.154v-6.531h1.031v2.841h1.237l1.055-2.841zm-1.169 4.698c0-0.276-0.16-0.55-0.412-0.688-0.161-0.091-0.275-0.115-0.597-0.115h-1.237v1.605h1.237c0.344 0 0.436-0.023 0.597-0.115 0.252-0.137 0.412-0.413 0.412-0.687"/></g><g transform="translate(472.28 121.33)"><path d="m0 0c0 0.826-0.161 1.651-0.435 2.224-0.413 0.802-0.986 1.168-1.811 1.168-0.756 0-1.283-0.228-1.673-0.733-0.435-0.618-0.711-1.581-0.711-2.659 0-0.779 0.184-1.649 0.459-2.2 0.39-0.801 0.962-1.168 1.879-1.168 0.688 0 1.215 0.229 1.581 0.734 0.459 0.572 0.711 1.603 0.711 2.634m-1.031 0c0-0.503-0.115-1.145-0.252-1.489-0.229-0.573-0.527-0.825-1.009-0.825-0.412 0-0.687 0.16-0.893 0.504-0.252 0.413-0.39 1.123-0.39 1.81 0 0.551 0.092 1.147 0.252 1.537 0.23 0.572 0.55 0.824 1.054 0.801 0.389-0.023 0.642-0.16 0.848-0.504 0.252-0.435 0.39-1.1 0.39-1.834"/></g><g transform="translate(475.69 122.8)"><path d="m0 0-0.665-1.833h1.307zm1.651-4.72-0.642 1.833h-2.04l-0.641-1.833h-1.101l2.246 6.531h1.031l2.246-6.531z"/></g><g transform="translate(483.65 121.36)"><path d="m0 0c0 1.283-0.39 2.314-1.078 2.91-0.343 0.275-0.595 0.344-1.26 0.344h-2.109v-6.531h2.361c0.343 0.022 0.687 0.137 0.939 0.366 0.733 0.573 1.147 1.604 1.147 2.911m-1.055 0c0-0.871-0.206-1.581-0.596-1.971-0.183-0.183-0.39-0.253-0.733-0.253h-1.032v4.447h1.169c0.276 0 0.504-0.115 0.664-0.276 0.322-0.344 0.528-1.076 0.528-1.947"/></g><g transform="translate(202.65 640.86)"><path d="m0 0-27.571-27.57c-1.162-1.164-3.066-1.164-4.226 0l-27.574 27.57c-1.16 1.163-1.16 3.063 0 4.226l27.574 27.571c1.16 1.164 3.064 1.164 4.226 0l27.571-27.571c1.161-1.163 1.161-3.063 0-4.226" fill="#f4901d"/><path d="m0 0-27.571-27.57c-1.162-1.164-3.066-1.164-4.226 0l-27.574 27.57c-1.16 1.163-1.16 3.063 0 4.226l27.574 27.571c1.16 1.164 3.064 1.164 4.226 0l27.571-27.571c1.161-1.163 1.161-3.063 0-4.226z" fill="none" stroke="#000" stroke-miterlimit="2.613" stroke-width=".25"/></g><g transform="translate(201.85 641.12)"><path d="m0 0-27.028-27.028c-1.02-1.02-2.689-1.02-3.713 0l-27.026 27.028c-1.02 1.021-1.02 2.69 0 3.708l27.026 27.031c1.024 1.018 2.693 1.018 3.713 0l27.028-27.031c1.02-1.018 1.02-2.687 0-3.708" fill-rule="evenodd"/></g><g transform="translate(200.79 641.83)"><path d="m0 0-26.686-26.684c-0.626-0.628-1.656-0.628-2.288 0l-26.682 26.684c-0.628 0.632-0.628 1.658 0 2.287l26.682 26.684c0.632 0.632 1.662 0.632 2.288 0l26.686-26.684c0.629-0.629 0.629-1.655 0-2.287" fill="#f4901d" fill-rule="evenodd"/></g><g transform="translate(179.01 645.35)"><path d="m0 0h0.917l1.031-4.194 1.008 4.194h0.917l0.962-6.531h-1.054l-0.504 3.437-0.825-3.437h-1.008l-0.848 3.437-0.504-3.437h-1.055z"/></g><g transform="translate(172.82 642.1)"><path d="m0 0c0-0.825 0.16-1.65 0.435-2.223 0.412-0.802 0.985-1.169 1.81-1.169 0.757 0 1.284 0.23 1.673 0.734 0.436 0.618 0.711 1.581 0.711 2.658 0 0.779-0.183 1.65-0.458 2.2-0.39 0.802-0.963 1.169-1.88 1.169-0.687 0-1.215-0.229-1.581-0.733-0.458-0.573-0.71-1.605-0.71-2.636m1.031 0c0 0.504 0.114 1.146 0.252 1.49 0.229 0.573 0.527 0.825 1.008 0.825 0.413 0 0.688-0.161 0.894-0.505 0.252-0.412 0.389-1.122 0.389-1.81 0-0.55-0.091-1.146-0.252-1.535-0.229-0.573-0.549-0.825-1.054-0.802-0.389 0.022-0.641 0.16-0.848 0.504-0.252 0.435-0.389 1.1-0.389 1.833"/></g><g transform="translate(167.16 645.35)"><path d="m0 0 1.146-3.048c-0.596-0.275-1.009-0.962-1.009-1.65 0-0.664 0.413-1.352 0.986-1.627 0.32-0.16 0.664-0.206 1.169-0.206h2.153v6.531h-1.031v-2.842h-1.237l-1.054 2.842zm1.168-4.698c0 0.275 0.161 0.55 0.413 0.688 0.161 0.091 0.275 0.114 0.596 0.114h1.237v-1.604h-1.237c-0.344 0-0.435 0.023-0.596 0.115-0.252 0.137-0.413 0.412-0.413 0.687"/></g><g transform="translate(162.92 645.35)"><path d="m0 0 1.65-3.094 0.688 0.848v2.246h1.031v-6.531h-1.031v2.589l-2.063-2.589h-1.329l2.017 2.544-2.154 3.987z"/></g><g transform="translate(180.98 656.22)"><path d="m0 0 2.246-6.531h1.031l2.246 6.531h-1.1l-0.642-1.833h-2.039l-0.642 1.833zm2.108-2.888h1.306l-0.664-1.833z"/></g><g transform="translate(176.81 656.22)"><path d="m0 0v-2.842h2.383v2.842h1.032v-6.531h-1.032v2.635h-2.383v-2.635h-1.031v6.531z"/></g><g transform="translate(174.45 656.22)"><path d="m0 0v-6.531h-3.85v1.031h2.818v1.604h-1.901v1.054h1.901v1.788h-3.024v1.054z"/></g><g transform="translate(164.57 656.22)"><path d="m0 0 2.246-6.531h1.031l2.246 6.531h-1.1l-0.642-1.833h-2.039l-0.642 1.833zm2.108-2.888h1.307l-0.665-1.833z"/></g><g transform="translate(159.37 652.95)"><path d="m0 0c0-1.283 0.39-2.315 1.077-2.91 0.344-0.275 0.596-0.344 1.26-0.344h2.109v6.531h-2.361c-0.343-0.023-0.687-0.137-0.939-0.366-0.733-0.573-1.146-1.604-1.146-2.911m1.054 0c0 0.871 0.206 1.581 0.596 1.971 0.183 0.183 0.39 0.252 0.733 0.252h1.032v-4.446h-1.169c-0.275 0-0.504 0.115-0.665 0.275-0.321 0.344-0.527 1.077-0.527 1.948"/></g><g transform="translate(178.9 634.81)"><path d="m0 0 1.145-3.048c-0.595-0.275-1.008-0.963-1.008-1.65 0-0.665 0.413-1.352 0.985-1.628 0.321-0.16 0.665-0.206 1.169-0.206h2.155v6.532h-1.032v-2.842h-1.237l-1.055 2.842zm1.168-4.698c0 0.275 0.161 0.55 0.413 0.687 0.161 0.092 0.275 0.115 0.596 0.115h1.237v-1.604h-1.237c-0.344 0-0.435 0.022-0.596 0.114-0.252 0.137-0.413 0.412-0.413 0.688"/></g><g transform="translate(173.54 631.56)"><path d="m0 0c0-0.825 0.16-1.65 0.435-2.223 0.412-0.802 0.985-1.168 1.81-1.168 0.757 0 1.283 0.229 1.673 0.733 0.436 0.619 0.711 1.581 0.711 2.658 0 0.779-0.184 1.651-0.459 2.2-0.389 0.803-0.962 1.169-1.879 1.169-0.687 0-1.215-0.229-1.581-0.733-0.458-0.573-0.71-1.605-0.71-2.636m1.031 0c0 0.505 0.114 1.146 0.252 1.49 0.229 0.573 0.527 0.825 1.008 0.825 0.413 0 0.688-0.161 0.894-0.504 0.252-0.413 0.389-1.123 0.389-1.811 0-0.55-0.091-1.145-0.252-1.535-0.229-0.573-0.549-0.825-1.054-0.802-0.389 0.023-0.641 0.16-0.848 0.504-0.252 0.435-0.389 1.1-0.389 1.833"/></g><g transform="translate(167.37 634.81)"><path d="m0 0 2.246-6.532h1.031l2.246 6.532h-1.1l-0.642-1.834h-2.039l-0.642 1.834zm2.108-2.888h1.307l-0.665-1.833z"/></g><g transform="translate(162.17 631.53)"><path d="m0 0c0-1.283 0.389-2.314 1.077-2.91 0.343-0.275 0.596-0.344 1.26-0.344h2.109v6.532h-2.36c-0.344-0.023-0.688-0.138-0.94-0.367-0.734-0.573-1.146-1.604-1.146-2.911m1.054 0c0 0.871 0.206 1.582 0.596 1.971 0.183 0.183 0.39 0.252 0.733 0.252h1.032v-4.445h-1.169c-0.275 0-0.504 0.114-0.665 0.274-0.321 0.344-0.527 1.078-0.527 1.948"/></g></g><text transform="matrix(1 0 0 -1 80.35 144.02)" fill="#000000" font-family="Helvetica" font-size="9px"><tspan x="0 6.4980001 11.502 14.004 19.007999 21.059999 24.875999 30.879 35.882999 40.887001 42.938999 47.358002 52.362 57.186001 59.183998 64.188004 68.688004 71.190002 76.194 82.692001 85.689003 90.693001 93.195 98.198997 103.203 108.207" y="0">Note: See Tables 6H-2 and </tspan><tspan x="24.875999 29.879999 36.377998 39.375 44.379002 46.881001 49.112999 54.117001 57.113998 59.616001 62.118 67.122002 72.125999 74.627998 82.125 87.128998 92.133003 97.137001 99.135002 104.139 109.143" y="9.9989996">6H-3 for the meaning </tspan><tspan x="24.875999 29.879999 32.382 34.883999 37.386002 42.389999 47.394001 49.896 54.396 58.896 66.392998 71.397003 76.401001 78.399002 82.899002 85.401001 90.404999 95.408997 100.413 102.915 107.919 110.916" y="19.997999">of the symbols and/or </tspan><tspan x="24.875999 26.874001 31.878 34.380001 36.882 41.886002 44.882999 47.384998 51.884998 56.889 61.893002 66.897003 71.397003 73.899002 78.903 83.403 88.406998 93.411003 95.913002 97.911003 102.915" y="29.997">letter codes used in </tspan><tspan x="24.875999 27.378 32.382 34.380001 38.880001 41.382 43.883999 45.882 50.886002 55.889999 58.887001 63.756001" y="39.995998">this figure.</tspan></text><g clip-path="url(#e)"><g transform="translate(143.15 575.02)"><path d="m0 0 27.572-27.571c1.162-1.164 3.065-1.164 4.226 0l27.574 27.571c1.159 1.163 1.159 3.063 0 4.225l-27.574 27.571c-1.161 1.164-3.064 1.164-4.226 0l-27.572-27.571c-1.16-1.162-1.16-3.062 0-4.225" fill="#f4901d"/><path d="m0 0 27.572-27.571c1.162-1.164 3.065-1.164 4.226 0l27.574 27.571c1.159 1.163 1.159 3.063 0 4.225l-27.574 27.571c-1.161 1.164-3.064 1.164-4.226 0l-27.572-27.571c-1.16-1.162-1.16-3.062 0-4.225z" fill="none" stroke="#000" stroke-miterlimit="2.613" stroke-width=".25"/></g><g transform="translate(143.95 575.28)"><path d="m0 0 27.028-27.028c1.02-1.02 2.689-1.02 3.713 0l27.026 27.028c1.02 1.022 1.02 2.691 0 3.708l-27.026 27.032c-1.024 1.017-2.693 1.017-3.713 0l-27.028-27.032c-1.021-1.017-1.021-2.686 0-3.708" fill-rule="evenodd"/></g><g transform="translate(145 575.99)"><path d="m0 0 26.685-26.683c0.626-0.629 1.657-0.629 2.289 0l26.682 26.683c0.628 0.632 0.628 1.659 0 2.287l-26.682 26.684c-0.632 0.632-1.663 0.632-2.289 0l-26.685-26.684c-0.629-0.628-0.629-1.655 0-2.287" fill="#f4901d" fill-rule="evenodd"/></g><path d="m161.63 591.98h4.707v-29.443h-4.707z"/><g transform="translate(174.65 562.53)"><path d="m0 0v8.814s4.069 4.947 4.921 5.982v14.647h4.706v-16.334s-4.07-4.948-4.92-5.982v-7.127z"/></g><g><path d="m176.4 591.98h-1.743v-3.077h1.743z"/><path d="m176.4 586.75h-1.743v-3.076h1.743z"/><path d="m176.4 581.52h-1.743v-3.076h1.743z"/></g></g><text transform="matrix(1 0 0 -1 267.68 82.915)" fill="#000000" font-family="Helvetica" font-size="12px" font-weight="bold"><tspan x="0 6.612 13.284 20.615999 23.952 30.624001 37.296001 40.632 43.967999 52.632 59.964001 67.295998 70.632004 73.968002 80.639999 87.311996 91.307999 94.643997 101.976 109.308 112.644 119.316" y="0">Typical Application 31</tspan></text><text transform="matrix(1 0 0 -1 156.87 487.38)" fill="#000000" font-family="Helvetica" font-size="9px"><tspan x="0 2.997 8.0010004 13.005 15.507 17.504999 22.509001 27.513 32.516998 34.514999" y="0">(optional)</tspan><tspan x="70.505997 75.510002 78.012001 83.015999 85.517998" y="71.783997">1/2 L</tspan><tspan x="77.264999" y="-97.640999">A</tspan><tspan x="77.462997" y="-134.748">B</tspan><tspan x="78.120003" y="-42.381001">L</tspan><tspan x="50.813999 56.817001 61.820999 64.322998 66.555 71.558998 74.556 77.057999 81.557999 86.561996 91.566002 96.066002" y="17.559">Buffer space</tspan><tspan x="57.186001 60.182999 65.186996 70.191002 72.693001 74.691002 79.695 84.698997 89.703003 91.700996" y="27.558001">(optional)</tspan><tspan x="35.955002 40.374001 45.377998 52.875 57.879002 62.882999 65.879997 70.884003 74.060997 78.560997 81.063004 85.563004 90.567001 92.565002 94.563004" y="145.638">Temporary solid</tspan><tspan x="39.249001 45.747002 50.750999 52.749001 55.250999 60.255001 62.757 64.754997 69.759003 74.763 79.766998 82.268997 84.266998 86.264999 91.268997" y="155.63699">white lane line</tspan><tspan x="60.75 65.753998 71.757004 74.259003 76.761002 79.263" y="299.51999">4S ft*</tspan><tspan x="268.056" y="149.562">A</tspan><tspan x="260.52301 265.52701 270.53101 275.535 278.03699 280.539" y="101.349">100 ft</tspan><tspan x="268.28101" y="336.34799">B</tspan><tspan x="245.088 251.091 256.095 258.59698 260.82901 265.83301 268.82999 271.332 275.832 280.836 285.84 290.34" y="193.63499">Buffer space</tspan><tspan x="251.46001 254.457 259.461 264.465 266.96701 268.965 273.96899 278.97299 283.97699 285.97501" y="203.634">(optional)</tspan><tspan x="261.423 266.427 268.92899 273.93301 276.435" y="242.325">1/2 L</tspan><tspan x="268.047" y="288.918">A</tspan></text><g clip-path="url(#d)"><g transform="translate(226.84 206.52)"><path d="m0 0h102.67m-10 365.12h-92.211" fill="none" stroke="#000" stroke-width=".75"/></g><g transform="translate(354.31 448.07)"><path d="m0 0 8.25-8.25m-8.25 0.313 8.25-8.25m-8.25 0.315 8.25-8.25m-8.25-176.69 8.25-8.25m-8.25 0.314 8.25-8.25m-8.25 0.314 8.25-8.25" fill="none" stroke="#000" stroke-linecap="round" stroke-width="2"/></g></g><text transform="matrix(1 0 0 -1 86.301 236.61)" fill="#000000" font-family="Helvetica" font-size="9px"><tspan x="0 3.5009999 9.5039997 12.006 17.261999 19.764 24.264 29.268 34.271999 39.276001 44.279999 46.782001 48.779999 53.784 56.285999 63.783001 68.787003" y="0">*S = speed in mph</tspan></text><g clip-path="url(#c)" fill="#fff"><path d="m546.5 703.33h-448.28v31.896h448.28z"/><path d="m562.02 42.982h-474.14v16.379h474.14z"/></g><g clip-path="url(#b)"><g transform="translate(471.32 301.66)"><path d="m0 0-28.432 28.432c-0.909 0.909-0.909 2.39 0 3.298l28.431 28.432c0.909 0.909 2.391 0.91 3.299 1e-3l28.432-28.435c0.908-0.908 0.908-2.387 0-3.296l-28.432-28.432c-0.897-0.896-2.4-0.897-3.298 0" fill="#f4901d" stroke="#000" stroke-width=".25"/></g><g transform="translate(471.77 302.12)"><path d="m0 0-28.42 28.42c-0.655 0.656-0.653 1.739 0 2.394l28.419 28.421c0.655 0.654 1.738 0.653 2.395 0l28.419-28.423c0.653-0.654 0.655-1.735 0-2.392l-28.419-28.42c-0.656-0.651-1.738-0.654-2.394 0" fill-rule="evenodd"/></g><g transform="translate(472.41 302.77)"><path d="m0 0-28.405 28.404c-0.313 0.305-0.313 0.824 0 1.128l28.405 28.404c0.304 0.315 0.823 0.315 1.127 0l28.405-28.404c0.314-0.304 0.314-0.824-1e-3 -1.129l-28.403-28.403c-0.305-0.314-0.823-0.314-1.128 0" fill="#f4901d" fill-rule="evenodd"/></g><g transform="translate(461.38 325.27)"><path d="m0 0v-3.938h-4.216v3.906 0c0 2.246 1.2 4.369 3.138 5.506l6.307 4.276c0.523 0.4 0.86 1.047 0.86 1.724v1.876l-2.338-0.677c-0.338-0.093-0.553-0.153-0.828 0.03-0.339 0.247-0.432 0.739-0.187 1.077l5.476 8.121 5.444-8.121c0.248-0.338 0.154-0.83-0.215-1.077-0.215-0.153-0.461-0.123-0.768-0.06l-2.338 0.707v-1.909c0-1.783-0.645-3.69-2.061-4.673l-7.197-4.955c-0.647-0.369-1.047-1.076-1.077-1.813" fill-rule="evenodd"/><path d="m0 0v-3.938h-4.216v3.906 0c0 2.246 1.2 4.369 3.138 5.506l6.307 4.276c0.523 0.4 0.86 1.047 0.86 1.724v1.876l-2.338-0.677c-0.338-0.093-0.553-0.153-0.828 0.03-0.339 0.247-0.432 0.739-0.187 1.077l5.476 8.121 5.444-8.121c0.248-0.338 0.154-0.83-0.215-1.077-0.215-0.153-0.461-0.123-0.768-0.06l-2.338 0.707v-1.909c0-1.783-0.645-3.69-2.061-4.673l-7.197-4.955c-0.647-0.369-1.047-1.076-1.077-1.813z" fill="none" stroke="#000" stroke-width=".216"/></g><g transform="translate(475.07 325.27)"><path d="m0 0v-3.938h-4.213v3.906 0c0 2.246 1.23 4.369 3.106 5.506l6.306 4.276c0.555 0.4 0.861 1.047 0.861 1.724v1.876l-2.338-0.677c-0.308-0.093-0.555-0.153-0.8 0.03-0.368 0.247-0.462 0.739-0.215 1.077l5.476 8.121 5.506-8.121c0.247-0.338 0.153-0.83-0.215-1.077-0.245-0.153-0.492-0.123-0.77-0.06l-2.398 0.707v-1.909c0-1.783-0.616-3.69-2.062-4.673l-7.168-4.955c-0.645-0.369-1.076-1.076-1.076-1.813" fill-rule="evenodd"/><path d="m0 0v-3.938h-4.213v3.906 0c0 2.246 1.23 4.369 3.106 5.506l6.306 4.276c0.555 0.4 0.861 1.047 0.861 1.724v1.876l-2.338-0.677c-0.308-0.093-0.555-0.153-0.8 0.03-0.368 0.247-0.462 0.739-0.215 1.077l5.476 8.121 5.506-8.121c0.247-0.338 0.153-0.83-0.215-1.077-0.245-0.153-0.492-0.123-0.77-0.06l-2.398 0.707v-1.909c0-1.783-0.616-3.69-2.062-4.673l-7.168-4.955c-0.645-0.369-1.076-1.076-1.076-1.813z" fill="none" stroke="#000" stroke-width=".216"/></g><g transform="translate(474.62 150.04)"><path d="m0 0 28.433 28.433c0.908 0.909 0.908 2.39 0 3.298l-28.432 28.432c-0.908 0.909-2.39 0.91-3.299 0l-28.431-28.434c-0.909-0.908-0.909-2.387 0-3.296l28.431-28.433c0.898-0.895 2.401-0.896 3.298 0" fill="#f4901d" stroke="#000" stroke-width=".25"/></g><g transform="translate(474.17 150.51)"><path d="m0 0 28.421 28.421c0.654 0.655 0.652 1.738 0 2.394l-28.42 28.421c-0.654 0.654-1.737 0.653-2.395 0l-28.418-28.423c-0.654-0.655-0.656-1.736 0-2.392l28.418-28.421c0.657-0.65 1.739-0.653 2.394 0" fill-rule="evenodd"/></g><g transform="translate(473.53 151.16)"><path d="m0 0 28.405 28.404c0.314 0.305 0.314 0.823 0 1.128l-28.405 28.404c-0.304 0.315-0.822 0.315-1.127 0l-28.405-28.404c-0.313-0.305-0.313-0.824 2e-3 -1.129l28.402-28.403c0.305-0.315 0.824-0.315 1.128 0" fill="#f4901d" fill-rule="evenodd"/></g><g transform="translate(484.55 173.66)"><path d="m0 0v-3.939h4.216v3.906 0c0 2.247-1.201 4.37-3.138 5.506l-6.308 4.277c-0.522 0.4-0.859 1.047-0.859 1.723v1.876l2.338-0.676c0.338-0.093 0.552-0.154 0.828 0.03 0.339 0.247 0.431 0.739 0.186 1.077l-5.475 8.121-5.445-8.121c-0.248-0.338-0.154-0.83 0.215-1.077 0.215-0.153 0.461-0.123 0.769-0.061l2.338 0.707v-1.908c0-1.783 0.644-3.69 2.06-4.674l7.198-4.954c0.646-0.369 1.046-1.076 1.077-1.813" fill-rule="evenodd"/><path d="m0 0v-3.939h4.216v3.906 0c0 2.247-1.201 4.37-3.138 5.506l-6.308 4.277c-0.522 0.4-0.859 1.047-0.859 1.723v1.876l2.338-0.676c0.338-0.093 0.552-0.154 0.828 0.03 0.339 0.247 0.431 0.739 0.186 1.077l-5.475 8.121-5.445-8.121c-0.248-0.338-0.154-0.83 0.215-1.077 0.215-0.153 0.461-0.123 0.769-0.061l2.338 0.707v-1.908c0-1.783 0.644-3.69 2.06-4.674l7.198-4.954c0.646-0.369 1.046-1.076 1.077-1.813z" fill="none" stroke="#000" stroke-width=".216"/></g><g transform="translate(470.87 173.66)"><path d="m0 0v-3.939h4.213v3.906 0c0 2.247-1.229 4.37-3.105 5.506l-6.307 4.277c-0.555 0.4-0.86 1.047-0.86 1.723v1.876l2.338-0.676c0.307-0.093 0.554-0.154 0.799 0.03 0.369 0.247 0.462 0.739 0.215 1.077l-5.475 8.121-5.506-8.121c-0.247-0.338-0.154-0.83 0.215-1.077 0.245-0.153 0.492-0.123 0.769-0.061l2.399 0.707v-1.908c0-1.783 0.616-3.69 2.061-4.674l7.168-4.954c0.646-0.369 1.076-1.076 1.076-1.813" fill-rule="evenodd"/><path d="m0 0v-3.939h4.213v3.906 0c0 2.247-1.229 4.37-3.105 5.506l-6.307 4.277c-0.555 0.4-0.86 1.047-0.86 1.723v1.876l2.338-0.676c0.307-0.093 0.554-0.154 0.799 0.03 0.369 0.247 0.462 0.739 0.215 1.077l-5.475 8.121-5.506-8.121c-0.247-0.338-0.154-0.83 0.215-1.077 0.245-0.153 0.492-0.123 0.769-0.061l2.399 0.707v-1.908c0-1.783 0.616-3.69 2.061-4.674l7.168-4.954c0.646-0.369 1.076-1.076 1.076-1.813z" fill="none" stroke="#000" stroke-width=".216"/></g></g></g></svg>
