<?xml version="1.0" encoding="UTF-8"?>
<svg width="653.33" height="910.93" version="1.1" viewBox="0 0 653.33 910.93" xml:space="preserve" xmlns="http://www.w3.org/2000/svg"><defs><clipPath id="p"><path d="m0 792h612v-792h-612z"/></clipPath><clipPath id="o"><path d="m49.25 44.855h513.5v692.62h-513.5z"/></clipPath><clipPath id="n"><path d="m49.25 44.855h490v692.62h-490z"/></clipPath><clipPath id="m"><path d="m49.25 44.855h513.5v692.62h-513.5z"/></clipPath><clipPath id="l"><path d="m49.25 44.855h490v692.62h-490z"/></clipPath><clipPath id="k"><path d="m49.25 44.855h513.5v692.62h-513.5z"/></clipPath><clipPath id="j"><path d="m49.25 44.855h490v692.62h-490z"/></clipPath><clipPath id="i"><path d="m49.25 44.855h513.5v692.62h-513.5z"/></clipPath><clipPath id="h"><path d="m49.25 44.855h490v692.62h-490z"/></clipPath><clipPath id="g"><path d="m49.25 44.855h513.5v692.62h-513.5z"/></clipPath><clipPath id="f"><path d="m49.25 44.855h513.5v692.62h-513.5z"/></clipPath><clipPath id="e"><path d="m200.26 382.21 12.647-12.427 43.213 43.974-12.647 12.428z"/></clipPath><clipPath id="d"><path d="m49.25 44.855h513.5v692.62h-513.5z"/></clipPath><clipPath id="c"><path d="m49.25 44.855h513.5v692.62h-513.5z"/></clipPath><clipPath id="b"><path d="m382.26 137.5h29.241v7.131h-29.241z"/></clipPath><clipPath id="a"><path d="m49.25 44.855h513.5v692.62h-513.5z"/></clipPath></defs><g transform="matrix(1.3333 0 0 -1.3333 -65.667 970.74)"><g clip-path="url(#p)"/><g clip-path="url(#o)"><g transform="translate(456.73 719.2)"><path d="m0 0-315.03-320.11c-27.976-28.397-46.772-74.259-46.772-114.12v-239.11h93.886v239.11c0 15.491 8.896 37.196 19.767 48.231l315.03 320.11z" fill="#d6d8d9"/></g></g><g clip-path="url(#n)"><g transform="translate(456.73 719.2)"><path d="m0 0-315.03-320.11c-27.976-28.397-46.772-74.259-46.772-114.12v-239.11h93.886v239.11c0 15.491 8.896 37.196 19.767 48.231l315.03 320.11z" fill="none" stroke="#000"/></g></g><g clip-path="url(#m)"><g transform="translate(474.07 703.52)"><path d="m0 0-0.702-0.714c-305.13-310.04-314.82-319.89-315.2-320.34 0.028 0.039 0.165 0.232 0.165 0.232-23.584-23.941-40.056-64.13-40.056-97.736v-239.11h47.188v239.11c0 21.514 11.385 49.293 26.483 64.617 1e-3 2e-3 316.44 321.53 316.44 321.53l-33.613 33.117z" fill="#b1b4b6"/></g></g><g clip-path="url(#l)"><g transform="translate(474.07 703.52)"><path d="m0 0-0.702-0.714c-305.13-310.04-314.82-319.89-315.2-320.34 0.028 0.039 0.165 0.232 0.165 0.232-23.584-23.941-40.056-64.13-40.056-97.736v-239.11h47.188v239.11c0 21.514 11.385 49.293 26.483 64.617 1e-3 2e-3 316.44 321.53 316.44 321.53l-33.613 33.117z" fill="none" stroke="#fff" stroke-width="2"/></g></g><g clip-path="url(#k)"><g transform="translate(474.08 702.11)"><path d="m0 0s-315.03-320.1-315.03-320.11c-23.415-23.767-39.769-63.669-39.769-97.033v-238.11h45.188v238.11c0 21.747 11.509 49.828 26.771 65.32 0 1e-3 315.73 320.82 315.73 320.82l-32.188 31.713z" fill="#b1b4b6"/></g></g><g clip-path="url(#j)"><g transform="translate(474.08 702.11)"><path d="m0 0s-315.03-320.1-315.03-320.11c-23.415-23.767-39.769-63.669-39.769-97.033v-238.11h45.188v238.11c0 21.747 11.509 49.828 26.771 65.32 0 1e-3 315.73 320.82 315.73 320.82l-32.188 31.713z" fill="none" stroke="#fff" stroke-width="2"/></g><g transform="translate(139.99 45.855)"><path d="m0 0v239.11c0 27.915 14.218 62.61 33.809 82.494l315.03 320.11m-345.09-641.71v239.11c0 27.025 13.765 60.609 32.729 79.86l315.03 320.1" fill="none" stroke="#ffd24f" stroke-width="2"/></g></g><g clip-path="url(#i)"><g transform="translate(208.11 205.87)"><path d="m0 0v17.485" fill="none" stroke="#000" stroke-width=".75"/></g><g transform="translate(208.65 204.63)"><path d="m0 0c0.263 0.869 0.504 1.433 0.784 2.129h-2.649c0.119-0.249 0.521-1.26 0.783-2.129 0.281-0.928 0.473-1.771 0.541-2.317 0.069 0.546 0.261 1.389 0.541 2.317"/></g><g transform="translate(208.1 261.69)"><path d="m0 0v-17.078" fill="none" stroke="#000" stroke-width=".75"/></g><g transform="translate(207.56 262.93)"><path d="m0 0c-0.262-0.868-0.504-1.433-0.783-2.129h2.649c-0.119 0.249-0.521 1.261-0.784 2.129-0.28 0.929-0.472 1.772-0.541 2.317-0.068-0.545-0.26-1.388-0.541-2.317"/></g><g transform="translate(208.65 268.07)"><path d="m0 0c0.263 0.868 0.504 1.432 0.784 2.129h-2.649c0.119-0.249 0.521-1.261 0.783-2.129 0.281-0.929 0.473-1.772 0.541-2.318 0.069 0.546 0.261 1.389 0.541 2.318"/></g><g transform="translate(197.91 149.51)"><path d="m0 0v-3.209h-3.208v-2.972h9.389v2.972h-3.208v3.209z"/></g><g transform="translate(84.913 173.2)"><path d="m0 0v3.209h3.208v2.972h-9.389v-2.972h3.208v-3.209z"/></g><g transform="translate(197.91 103.52)"><path d="m0 0v-3.207h-3.208v-2.973h9.389v2.973h-3.208v3.207z"/></g><g transform="translate(197.91 57.537)"><path d="m0 0v-3.207h-3.208v-2.975h9.389v2.975h-3.208v3.207z"/></g><g transform="translate(191.63 202.18)"><path d="m0 0h25.819m-25.819 63.191h25.819" fill="none" stroke="#000" stroke-width=".75"/></g><g transform="translate(240.69 339.63)"><path d="m0 0c-0.838-0.347-1.428-0.517-2.144-0.742l1.678-2.05c0.117 0.25 0.645 1.201 1.151 1.954 0.541 0.806 1.072 1.488 1.451 1.887-0.466-0.293-1.24-0.678-2.136-1.049"/></g><g transform="translate(329.31 428.38)"><path d="m0 0 38.353 39.552" fill="none" stroke="#000" stroke-width=".75"/></g><g transform="translate(367.89 468.94)"><path d="m0 0c-0.796-0.434-1.364-0.667-2.052-0.968l1.889-1.857c0.09 0.261 0.512 1.264 0.934 2.067 0.452 0.859 0.905 1.594 1.24 2.031-0.433-0.341-1.161-0.807-2.011-1.273"/></g><g transform="translate(328.82 427.12)"><path d="m0 0c0.796 0.435 1.364 0.668 2.051 0.968l-1.888 1.857c-0.09-0.261-0.512-1.264-0.935-2.067-0.451-0.859-0.904-1.594-1.239-2.031 0.433 0.341 1.16 0.807 2.011 1.273"/></g><g transform="translate(288 386.85)"><path d="m0 0 35.552 35.722" fill="none" stroke="#000" stroke-width=".75"/></g><g transform="translate(324.04 423.83)"><path d="m0 0c-0.798-0.429-1.368-0.659-2.056-0.955l1.875-1.869c0.092 0.26 0.52 1.261 0.948 2.06 0.457 0.856 0.916 1.589 1.253 2.024-0.435-0.339-1.165-0.8-2.02-1.26"/></g><g transform="translate(287.5 385.59)"><path d="m0 0c0.799 0.43 1.368 0.658 2.058 0.954l-1.876 1.87c-0.092-0.26-0.521-1.26-0.948-2.06-0.457-0.857-0.916-1.589-1.253-2.024 0.434 0.339 1.165 0.8 2.019 1.26"/></g><g transform="translate(246.07 343.97)"><path d="m0 0 36.172 37.077" fill="none" stroke="#000" stroke-width=".75"/></g><g transform="translate(282.72 382.31)"><path d="m0 0c-0.795-0.435-1.363-0.67-2.05-0.971l1.891-1.854c0.09 0.261 0.511 1.265 0.931 2.067 0.451 0.861 0.904 1.596 1.237 2.034-0.431-0.342-1.158-0.809-2.009-1.276"/></g><g transform="translate(245.58 342.71)"><path d="m0 0c0.795 0.436 1.363 0.67 2.05 0.971l-1.891 1.855c-0.09-0.261-0.511-1.265-0.932-2.068-0.449-0.86-0.902-1.595-1.236-2.034 0.431 0.343 1.158 0.81 2.009 1.276"/></g><g transform="translate(231.85 352.41)"><path d="m0 0 17.682-17.683m24.722 60.087 17.683-17.682" fill="none" stroke="#000" stroke-width=".75"/></g><g transform="translate(377.05 652.2)"><path d="M 0,0 2.268,2.27 4.536,0 6.639,2.103 0,8.742 -2.101,6.64 0.167,4.371 -2.101,2.103 Z"/></g><g transform="translate(403.5 680.66)"><path d="M 0,0 2.269,2.269 4.537,0 6.64,2.102 0,8.741 -2.101,6.639 0.168,4.371 -2.101,2.102 Z"/></g><g transform="translate(429.96 709.12)"><path d="M 0,0 2.27,2.269 4.537,0 6.641,2.103 0,8.74 -2.101,6.639 0.168,4.37 -2.101,2.103 Z"/></g></g><g clip-path="url(#h)"><g transform="translate(448.19 565.76)"><path d="m0 0-2.268-2.269-2.268 2.269-2.102-2.103 6.638-6.638 2.103 2.102-2.268 2.268 2.268 2.268z"/></g><g transform="translate(531.36 640.33)"><path d="m0 0 7.894 13.158-78.07 74.561-10.526-6.14z" fill="#fff"/></g></g><g clip-path="url(#g)"><g transform="translate(153.16 52.601)"><path d="m0 0v8.947h-2.195l3.628 6.165 3.377-6.165h-2.027v-8.947z"/></g><g transform="translate(130.78 67.713)"><path d="m0 0v-8.949h2.195l-3.628-6.163-3.378 6.163h2.027v8.949z"/></g><g transform="translate(476.29 656.78)"><path d="m0 0 6.352 6.301-1.546 1.558 6.933 1.766-1.997-6.74-1.429 1.441-6.351-6.302z"/></g><g transform="translate(471.26 683.31)"><path d="m0 0-6.352-6.302 1.546-1.558-6.931-1.766 1.996 6.739 1.429-1.439 6.352 6.303z"/></g><g transform="translate(214.7 429.09)"><path d="m0 0 1.545-1.557-7.126-7.179-1.428 1.441-1.997-6.74 6.932 1.766-1.545 1.557 7.125 7.178 1.429-1.44 1.997 6.74z"/></g><g transform="translate(315.18 436.72)"><path d="m0 0 17.682-17.682m25.574 63.388 17.682-17.682" fill="none" stroke="#000" stroke-width=".75"/></g><path d="m192.45 45.035h-100.28v3.067h100.28z" fill="#fff"/></g><text transform="matrix(1 0 0 -1 311.61 397.35)" fill="#000000" font-family="Helvetica" font-size="9px"><tspan x="0 6.0029998 11.007 13.509 15.741 20.745001 23.742001 26.243999 32.247002 37.250999 42.255001 46.755001" y="0">Buffer Space</tspan><tspan x="0.117 3.1140001 5.112 10.116 15.12 20.124001 22.122 24.624001 29.628 34.632 36.630001 41.633999 46.638 48.636002" y="9.9989996">(longitudinal)</tspan><tspan x="39.951 46.449001 51.318001 57.816002 62.82 67.32 69.821999 72.819 77.822998 82.827003 90.323997 92.375999 96.794998 101.799 106.803 111.807" y="-40.608002">Downstream Taper</tspan><tspan x="54.855 59.859001 64.862999 67.364998 69.866997 74.871002 77.373001 82.376999 87.380997 92.385002 94.887001 97.389" y="-30.608999">50 to 100 ft</tspan></text><g clip-path="url(#f)"><g transform="translate(243.48 426.18)"><path d="m0 0-43.212-43.975 12.647-12.427 43.212 43.974z" fill="#fff"/><path d="m0 0-43.212-43.975 12.647-12.427 43.212 43.974z" fill="none" stroke="#000"/></g></g><g clip-path="url(#e)"><g transform="translate(243.18 367.9)"><path d="M 0,0 V 62.726 M -8.884,0 V 62.726 M -17.768,0 V 62.726 M -26.648,0 V 62.726 M -4.441,0 V 62.726 M -13.326,0 V 62.726 M -22.207,0 V 62.726 M -31.093,0 V 62.726 M -35.534,0 V 62.726 M -39.976,0 V 62.726 M 8.883,0 V 62.726 M 4.442,0 v 62.726" fill="none" stroke="#000" stroke-width="1.25"/></g></g><text transform="matrix(1 0 0 -1 267.42 352.67)" fill="#000000" font-family="Helvetica" font-size="9px"><tspan x="0 8.2259998 13.23 16.362 20.862 23.364 29.367001 34.370998 39.375 43.875" y="0">Work Space</tspan><tspan x="-45.341999 -39.339001 -34.334999 -31.833 -29.601 -24.597 -21.6 -19.098 -13.095 -8.0909996 -3.0869999 1.413 6.4169998 8.9189997 11.916 13.914 18.917999 23.922001 28.926001 30.924 33.425999 38.43 43.433998 45.431999 50.436001 55.439999 57.438" y="47.556">Buffer Space (longitudinal)</tspan><tspan x="-47.484001 -45.486 -40.986 -38.484001 -33.48 -28.98 -23.976 -18.972 -16.469999 -13.968 -8.9639997 -6.4619999 -1.4579999 3.546 8.0459995 10.044 12.546 14.544 19.548 24.552 27.054001 29.556 34.560001 39.563999 42.066002 44.568001 49.571999 54.576 59.580002" y="57.555">is used to position the taper</tspan><tspan x="-38.889 -36.890999 -31.886999 -29.385 -24.381001 -19.377001 -15.102 -10.098 -5.0939999 -0.59399998 4.4099998 6.9120002 11.916 14.418 16.92 19.422001 24.426001 29.43 31.931999 36.431999 41.436001 44.702999 48.978001" y="67.554001">in advance of the curve</tspan><tspan x="-63.063 -56.061001 -51.056999 -46.053001 -43.056 -38.051998 -33.048 -28.044001 -23.174999 -20.673 -18.621 -14.202 -7.7940001 -2.79 0.207 8.3430004 13.077 17.577 19.629 24.048 26.955 31.959 34.460999 36.963001 38.960999 43.460999 45.513 49.931999 54.936001 59.939999 64.944" y="116.577">One-Lane, Two-Way Traffic Taper</tspan><tspan x="-63.081001 -58.077 -53.073002 -50.570999 -48.069 -43.064999 -40.563 -35.558998 -30.555 -25.551001 -23.049 -20.547001" y="126.576">50 to 100 ft</tspan></text><g clip-path="url(#d)"><g transform="translate(185.25 198.1)"><path d="m0 0c-1.073 0-1.983-0.672-2.347-1.618h-15.381v-7.067h7.064v5.26h8.317c0.363-0.944 1.274-1.619 2.347-1.619 1.392 0 2.522 1.13 2.522 2.522 0 1.394-1.13 2.522-2.522 2.522" fill="#c0311a"/></g><g transform="translate(409.71 130.76)"><path d="m0 0c-1.074 0-1.984-0.672-2.347-1.618h-15.381v-7.066h7.064v5.259h8.317c0.363-0.944 1.273-1.619 2.347-1.619 1.391 0 2.522 1.13 2.522 2.522 0 1.394-1.131 2.522-2.522 2.522" fill="#c0311a"/></g><g transform="translate(139.28 265.37)"><path d="m0 0 5.194 2e-3 -5e-3 5.2-5.193-6e-3z" fill="#f4901d"/></g><g transform="translate(402.37 167.89)"><path d="m0 0h6.354v1.559l4.377-2.576-4.377-2.399v1.44h-6.354z"/></g><g transform="translate(423.85 176.4)"><path d="m0 0h29.291" fill="none" stroke="#000" stroke-width=".75"/></g></g><text transform="matrix(1 0 0 -1 423.39 179.35)" fill="#000000" font-family="Helvetica" font-size="9px"><tspan x="0 5.0040002 10.008 15.012 20.016001 25.02" y="0">Legend</tspan></text><g clip-path="url(#c)"><g transform="translate(417.98 164.74)"><path d="m0 0h1.692c1.135 0 1.873 0.891 1.873 2.52 0 1.63-0.748 2.449-1.935 2.449h-1.63zm-0.873 5.716h2.619c1.684 0 2.719-1.278 2.719-3.141 0-1.449-0.63-3.322-2.754-3.322h-2.584z"/></g><path d="m424.27 164h-0.793v4.708h0.793zm-0.793 6.463h0.793v-0.9h-0.793z"/><g transform="translate(426.36 164)"><path d="m0 0h-0.793v4.708h0.748v-0.784h0.017c0.316 0.55 0.73 0.919 1.324 0.919 0.099 0 0.144-9e-3 0.207-0.027v-0.819h-0.297c-0.738 0-1.206-0.577-1.206-1.261z"/></g><g transform="translate(431.7 166.72)"><path d="m0 0c-0.045 0.73-0.351 1.404-1.314 1.404-0.729 0-1.305-0.674-1.305-1.404zm0.757-1.251c-0.028-0.225-0.244-0.891-0.838-1.287-0.216-0.144-0.522-0.324-1.279-0.324-1.323 0-2.106 0.999-2.106 2.358 0 1.458 0.702 2.62 2.26 2.62 1.359 0 2.025-1.081 2.025-2.746h-3.438c0-0.981 0.459-1.549 1.368-1.549 0.747 0 1.188 0.577 1.216 0.928z"/></g><g transform="translate(436.4 167.12)"><path d="m0 0c-0.099 0.63-0.45 1.007-1.116 1.007-0.982 0-1.296-0.935-1.296-1.773 0-0.81 0.198-1.81 1.287-1.81 0.531 0 0.99 0.397 1.125 1.117h0.765c-0.081-0.747-0.54-1.8-1.918-1.8-1.323 0-2.106 0.999-2.106 2.358 0 1.458 0.702 2.62 2.26 2.62 1.233 0 1.701-0.9 1.764-1.719z"/></g><g transform="translate(438.93 168.04)"><path d="m0 0v-3.06c0-0.369 0.315-0.369 0.478-0.369h0.279v-0.621c-0.288-0.028-0.514-0.064-0.595-0.064-0.783 0-0.954 0.442-0.954 1.009v3.105h-0.639v0.658h0.639v1.314h0.792v-1.314h0.757v-0.658z"/></g><path d="m441.27 164h-0.793v4.708h0.793zm-0.793 6.463h0.793v-0.9h-0.793z"/><g transform="translate(444.38 164.55)"><path d="m0 0c1.135 0 1.369 1.17 1.369 1.8 0 0.631-0.234 1.801-1.369 1.801-1.133 0-1.368-1.17-1.368-1.801 0-0.63 0.235-1.8 1.368-1.8m0 4.285c1.504 0 2.188-1.269 2.188-2.485 0-1.215-0.684-2.484-2.188-2.484-1.503 0-2.187 1.269-2.187 2.484 0 1.216 0.684 2.485 2.187 2.485"/></g><g transform="translate(451.3 164)"><path d="m0 0h-0.792v2.898c0 0.819-0.234 1.233-1.009 1.233-0.45 0-1.242-0.288-1.242-1.566v-2.565h-0.792v4.708h0.747v-0.666h0.018c0.172 0.252 0.612 0.801 1.423 0.801 0.729 0 1.647-0.298 1.647-1.638z"/></g><g transform="translate(456.89 164.55)"><path d="m0 0c1.135 0 1.369 1.17 1.369 1.8 0 0.631-0.234 1.801-1.369 1.801-1.134 0-1.368-1.17-1.368-1.801 0-0.63 0.234-1.8 1.368-1.8m0 4.285c1.504 0 2.189-1.269 2.189-2.485 0-1.215-0.685-2.484-2.189-2.484-1.503 0-2.187 1.269-2.187 2.484 0 1.216 0.684 2.485 2.187 2.485"/></g><g transform="translate(460.95 168.04)"><path d="m0 0v-4.05h-0.792v4.05h-0.648v0.658h0.648v0.81c0 0.711 0.451 1.035 1.224 1.035 0.117 0 0.234-8e-3 0.36-0.017v-0.711c-0.098 9e-3 -0.224 0.017-0.324 0.017-0.342 0-0.468-0.171-0.468-0.548v-0.586h0.792v-0.658z"/></g><g transform="translate(465.95 168.04)"><path d="m0 0v-3.06c0-0.369 0.314-0.369 0.476-0.369h0.279v-0.621c-0.288-0.028-0.512-0.064-0.593-0.064-0.784 0-0.955 0.442-0.955 1.009v3.105h-0.639v0.658h0.639v1.314h0.793v-1.314h0.755v-0.658z"/></g><g transform="translate(468.38 164)"><path d="m0 0h-0.792v4.708h0.747v-0.784h0.018c0.315 0.55 0.729 0.919 1.323 0.919 0.1 0 0.145-9e-3 0.208-0.027v-0.819h-0.298c-0.738 0-1.206-0.577-1.206-1.261z"/></g><g transform="translate(473.26 166.4)"><path d="m0 0c-0.126-0.099-0.324-0.171-1.306-0.297-0.386-0.054-1.007-0.171-1.007-0.765 0-0.513 0.26-0.819 0.854-0.819 0.738 0 1.459 0.477 1.459 1.107zm-2.899 0.874c0.036 1.125 0.783 1.566 1.945 1.566 0.378 0 1.746-0.108 1.746-1.314v-2.71c0-0.198 0.099-0.279 0.261-0.279 0.072 0 0.172 0.018 0.262 0.036v-0.576c-0.136-0.037-0.252-0.09-0.433-0.09-0.702 0-0.81 0.36-0.837 0.719-0.307-0.333-0.783-0.764-1.701-0.764-0.864 0-1.477 0.549-1.477 1.359 0 0.396 0.117 1.315 1.431 1.477l1.306 0.162c0.189 0.017 0.414 0.09 0.414 0.557 0 0.496-0.361 0.766-1.108 0.766-0.9 0-1.026-0.55-1.08-0.909z"/></g><g transform="translate(478.19 168.7)"><path d="m0 0h0.864l-1.791-4.708h-0.847l-1.719 4.708h0.919l1.223-3.835h0.019z"/></g><g transform="translate(482.73 166.72)"><path d="m0 0c-0.045 0.73-0.351 1.404-1.315 1.404-0.729 0-1.305-0.674-1.305-1.404zm0.756-1.251c-0.027-0.225-0.242-0.891-0.837-1.287-0.216-0.144-0.523-0.324-1.279-0.324-1.323 0-2.106 0.999-2.106 2.358 0 1.458 0.702 2.62 2.26 2.62 1.359 0 2.025-1.081 2.025-2.746h-3.439c0-0.981 0.46-1.549 1.369-1.549 0.747 0 1.188 0.577 1.215 0.928z"/></g><path d="m485.3 164h-0.792v6.463h0.792z"/><g transform="translate(421.6 155.51)"><path d="m0 0c-0.243 1.134-1.188 1.341-1.81 1.341-1.17 0-2.116-0.864-2.116-2.565 0-1.522 0.541-2.692 2.144-2.692 0.566 0 1.548 0.27 1.845 1.774h0.846c-0.36-2.441-2.341-2.548-2.827-2.548-1.467 0-2.907 0.954-2.907 3.438 0 1.99 1.134 3.367 3.015 3.367 1.665 0 2.53-1.035 2.656-2.115z"/></g><g transform="translate(427.29 150.99)"><path d="m0 0h-0.792v3.079c0 0.638-0.179 1.052-0.936 1.052-0.649 0-1.315-0.377-1.315-1.566v-2.565h-0.792v6.463h0.792v-2.385h0.019c0.224 0.297 0.621 0.765 1.377 0.765 0.729 0 1.647-0.298 1.647-1.638z"/></g><g transform="translate(431.34 153.4)"><path d="m0 0c-0.126-0.099-0.324-0.171-1.305-0.297-0.387-0.054-1.008-0.171-1.008-0.765 0-0.513 0.261-0.819 0.854-0.819 0.739 0 1.459 0.477 1.459 1.107zm-2.899 0.874c0.036 1.125 0.783 1.566 1.945 1.566 0.378 0 1.746-0.108 1.746-1.314v-2.71c0-0.198 0.1-0.279 0.262-0.279 0.071 0 0.171 0.018 0.261 0.036v-0.576c-0.135-0.037-0.252-0.09-0.433-0.09-0.702 0-0.809 0.36-0.837 0.719-0.305-0.333-0.783-0.764-1.701-0.764-0.864 0-1.477 0.549-1.477 1.359 0 0.396 0.118 1.315 1.432 1.477l1.305 0.162c0.189 0.017 0.414 0.09 0.414 0.557 0 0.496-0.359 0.766-1.108 0.766-0.899 0-1.026-0.55-1.08-0.909z"/></g><g transform="translate(437.3 150.99)"><path d="m0 0h-0.792v2.898c0 0.819-0.234 1.233-1.008 1.233-0.45 0-1.243-0.288-1.243-1.566v-2.565h-0.792v4.708h0.747v-0.666h0.019c0.171 0.252 0.612 0.801 1.422 0.801 0.729 0 1.647-0.298 1.647-1.638z"/></g><g transform="translate(442.31 150.99)"><path d="m0 0h-0.793v2.898c0 0.819-0.233 1.233-1.008 1.233-0.45 0-1.242-0.288-1.242-1.566v-2.565h-0.793v4.708h0.747v-0.666h0.019c0.171 0.252 0.612 0.801 1.422 0.801 0.729 0 1.648-0.298 1.648-1.638z"/></g><g transform="translate(446.72 153.72)"><path d="m0 0c-0.045 0.73-0.35 1.404-1.314 1.404-0.73 0-1.306-0.674-1.306-1.404zm0.757-1.251c-0.027-0.225-0.243-0.891-0.838-1.287-0.216-0.144-0.521-0.324-1.278-0.324-1.323 0-2.107 0.999-2.107 2.358 0 1.458 0.702 2.62 2.26 2.62 1.359 0 2.026-1.081 2.026-2.746h-3.44c0-0.981 0.46-1.549 1.369-1.549 0.747 0 1.189 0.577 1.215 0.928z"/></g><path d="m449.29 151h-0.792v6.463h0.792z"/><path d="m451.29 151h-0.792v4.708h0.792zm-0.792 6.463h0.792v-0.9h-0.792z"/><g transform="translate(453.22 151.65)"><path d="m0 0h2.89v-0.657h-3.943v0.621l2.836 3.429h-2.62v0.658h3.647v-0.648z"/></g><path d="m457.79 151h-0.792v4.708h0.792zm-0.792 6.463h0.792v-0.9h-0.792z"/><g transform="translate(462.81 150.99)"><path d="m0 0h-0.792v2.898c0 0.819-0.234 1.233-1.009 1.233-0.45 0-1.242-0.288-1.242-1.566v-2.565h-0.792v4.708h0.747v-0.666h0.019c0.171 0.252 0.611 0.801 1.422 0.801 0.729 0 1.647-0.298 1.647-1.638z"/></g><g transform="translate(465.84 151.54)"><path d="m0 0c0.505 0 1.288 0.333 1.288 1.585 0 0.765-0.126 1.998-1.269 1.998-1.225 0-1.288-1.161-1.288-1.763 0-1.036 0.405-1.82 1.269-1.82m2.044-0.162c0-0.674-9e-3 -2.367-2.187-2.367-0.559 0-1.648 0.153-1.801 1.404h0.792c0.144-0.747 0.874-0.747 1.062-0.747 1.369 0 1.342 1.099 1.342 1.657v0.198h-0.018v-0.036c-0.207-0.333-0.622-0.63-1.251-0.63-1.603 0-2.071 1.503-2.071 2.629 0 1.323 0.711 2.349 1.962 2.349 0.856 0 1.216-0.531 1.405-0.801h0.018v0.666h0.747z"/></g><g transform="translate(473.3 151.54)"><path d="m0 0c0.505 0 1.288 0.333 1.288 1.585 0 0.765-0.126 1.998-1.269 1.998-1.225 0-1.287-1.161-1.287-1.763 0-1.036 0.404-1.82 1.268-1.82m2.089-0.548h-0.747v0.648h-0.018c-0.342-0.64-0.882-0.783-1.341-0.783-1.603 0-2.071 1.503-2.071 2.629 0 1.323 0.711 2.349 1.962 2.349 0.856 0 1.216-0.531 1.404-0.801l0.019 0.063v2.358h0.792z"/></g><g transform="translate(479.73 153.72)"><path d="m0 0c-0.045 0.73-0.352 1.404-1.315 1.404-0.729 0-1.305-0.674-1.305-1.404zm0.756-1.251c-0.027-0.225-0.243-0.891-0.837-1.287-0.216-0.144-0.523-0.324-1.278-0.324-1.324 0-2.107 0.999-2.107 2.358 0 1.458 0.702 2.62 2.26 2.62 1.359 0 2.025-1.081 2.025-2.746h-3.439c0-0.981 0.46-1.549 1.369-1.549 0.747 0 1.187 0.577 1.215 0.928z"/></g><g transform="translate(484.2 155.7)"><path d="m0 0h0.865l-1.791-4.708h-0.847l-1.72 4.708h0.919l1.224-3.835h0.018z"/></g><path d="m486.54 151h-0.793v4.708h0.793zm-0.793 6.463h0.793v-0.9h-0.793z"/><g transform="translate(490.66 154.12)"><path d="m0 0c-0.098 0.63-0.45 1.007-1.116 1.007-0.981 0-1.296-0.935-1.296-1.773 0-0.81 0.198-1.81 1.287-1.81 0.532 0 0.991 0.397 1.125 1.117h0.766c-0.081-0.747-0.54-1.8-1.918-1.8-1.323 0-2.106 0.999-2.106 2.358 0 1.458 0.702 2.62 2.259 2.62 1.234 0 1.702-0.9 1.765-1.719z"/></g><g transform="translate(495.46 153.72)"><path d="m0 0c-0.045 0.73-0.35 1.404-1.314 1.404-0.729 0-1.305-0.674-1.305-1.404zm0.757-1.251c-0.027-0.225-0.243-0.891-0.838-1.287-0.216-0.144-0.521-0.324-1.278-0.324-1.323 0-2.107 0.999-2.107 2.358 0 1.458 0.703 2.62 2.26 2.62 1.36 0 2.026-1.081 2.026-2.746h-3.439c0-0.981 0.459-1.549 1.368-1.549 0.747 0 1.189 0.577 1.216 0.928z"/></g><g transform="translate(419.12 137.99)"><path d="m0 0h-0.919l-1.683 6.463h0.945l1.207-5.257h0.018l1.449 5.257h0.955l1.449-5.257h0.018l1.207 5.257h0.963l-1.701-6.463h-0.919l-1.477 5.356h-0.017z"/></g><g transform="translate(427.11 138.55)"><path d="m0 0c1.135 0 1.368 1.17 1.368 1.8 0 0.631-0.233 1.801-1.368 1.801-1.134 0-1.368-1.17-1.368-1.801 0-0.63 0.234-1.8 1.368-1.8m0 4.285c1.504 0 2.187-1.269 2.187-2.485 0-1.215-0.683-2.484-2.187-2.484-1.503 0-2.188 1.269-2.188 2.484 0 1.216 0.685 2.485 2.188 2.485"/></g><g transform="translate(431.09 137.99)"><path d="m0 0h-0.792v4.708h0.747v-0.784h0.019c0.314 0.55 0.729 0.919 1.323 0.919 0.099 0 0.144-9e-3 0.207-0.027v-0.819h-0.297c-0.738 0-1.207-0.577-1.207-1.261z"/></g><g transform="translate(437.25 137.99)"><path d="m0 0h-1.017l-1.467 2.377-0.657-0.595v-1.782h-0.766v6.463h0.766v-3.745l2.025 1.99h1.008l-1.8-1.755z"/></g><g transform="translate(443 141.36)"><path d="m0 0c-9e-3 0.297-0.117 0.792-1.116 0.792-0.243 0-0.936-0.081-0.936-0.666 0-0.388 0.243-0.478 0.855-0.63l0.792-0.198c0.982-0.244 1.323-0.604 1.323-1.243 0-0.972-0.8-1.557-1.863-1.557-1.864 0-1.999 1.08-2.025 1.647h0.764c0.028-0.369 0.135-0.964 1.252-0.964 0.567 0 1.08 0.226 1.08 0.748 0 0.378-0.261 0.504-0.936 0.675l-0.918 0.225c-0.657 0.162-1.09 0.495-1.09 1.143 0 1.036 0.855 1.504 1.783 1.504 1.683 0 1.8-1.242 1.8-1.476z"/></g><g transform="translate(446.81 138.54)"><path d="m0 0c0.864 0 1.27 0.784 1.27 1.82 0 0.602-0.064 1.763-1.289 1.763-1.142 0-1.268-1.233-1.268-1.998 0-1.252 0.783-1.585 1.287-1.585m-2.044 4.16h0.747v-0.666h0.019c0.188 0.27 0.548 0.801 1.404 0.801 1.251 0 1.963-1.026 1.963-2.349 0-1.126-0.469-2.629-2.071-2.629-0.63 0-1.044 0.297-1.251 0.63h-0.019v-2.359h-0.792z"/></g><g transform="translate(452.7 140.4)"><path d="m0 0c-0.125-0.099-0.324-0.171-1.305-0.297-0.388-0.054-1.009-0.171-1.009-0.765 0-0.513 0.262-0.819 0.856-0.819 0.738 0 1.458 0.477 1.458 1.107zm-2.899 0.874c0.036 1.125 0.783 1.566 1.944 1.566 0.379 0 1.747-0.108 1.747-1.314v-2.71c0-0.198 0.099-0.279 0.261-0.279 0.072 0 0.171 0.018 0.262 0.036v-0.576c-0.136-0.037-0.253-0.09-0.433-0.09-0.702 0-0.81 0.36-0.837 0.719-0.306-0.333-0.783-0.764-1.702-0.764-0.864 0-1.476 0.549-1.476 1.359 0 0.396 0.117 1.315 1.431 1.477l1.306 0.162c0.189 0.017 0.414 0.09 0.414 0.557 0 0.496-0.36 0.766-1.107 0.766-0.901 0-1.027-0.55-1.08-0.909z"/></g><g transform="translate(457.78 141.12)"><path d="m0 0c-0.099 0.63-0.45 1.007-1.117 1.007-0.981 0-1.295-0.935-1.295-1.773 0-0.81 0.198-1.81 1.287-1.81 0.531 0 0.99 0.397 1.125 1.117h0.765c-0.081-0.747-0.54-1.8-1.918-1.8-1.323 0-2.106 0.999-2.106 2.358 0 1.458 0.702 2.62 2.26 2.62 1.233 0 1.702-0.9 1.764-1.719z"/></g><g transform="translate(462.58 140.72)"><path d="m0 0c-0.045 0.73-0.352 1.404-1.315 1.404-0.729 0-1.306-0.674-1.306-1.404zm0.755-1.251c-0.027-0.225-0.243-0.891-0.837-1.287-0.216-0.144-0.522-0.324-1.278-0.324-1.324 0-2.107 0.999-2.107 2.358 0 1.458 0.703 2.62 2.26 2.62 1.359 0 2.026-1.081 2.026-2.746h-3.44c0-0.981 0.459-1.549 1.369-1.549 0.747 0 1.188 0.577 1.215 0.928z"/></g><g transform="translate(418.02 125)"><path d="m0 0h-0.873v6.463h4.474v-0.774h-3.601v-1.98h3.169v-0.775h-3.169z"/></g><path d="m423.27 125h-0.792v6.463h0.792z"/><g transform="translate(427.33 127.4)"><path d="m0 0c-0.126-0.099-0.324-0.171-1.305-0.297-0.387-0.054-1.009-0.171-1.009-0.765 0-0.513 0.262-0.819 0.855-0.819 0.739 0 1.459 0.477 1.459 1.107zm-2.899 0.874c0.036 1.125 0.783 1.566 1.945 1.566 0.378 0 1.746-0.108 1.746-1.314v-2.71c0-0.198 0.099-0.279 0.261-0.279 0.072 0 0.171 0.018 0.262 0.036v-0.576c-0.136-0.037-0.252-0.09-0.433-0.09-0.702 0-0.81 0.36-0.837 0.719-0.306-0.333-0.783-0.764-1.702-0.764-0.864 0-1.475 0.549-1.475 1.359 0 0.396 0.116 1.315 1.43 1.477l1.306 0.162c0.189 0.017 0.414 0.09 0.414 0.557 0 0.496-0.36 0.766-1.107 0.766-0.901 0-1.027-0.55-1.08-0.909z"/></g><g transform="translate(431.33 125.54)"><path d="m0 0c0.504 0 1.288 0.333 1.288 1.585 0 0.765-0.126 1.998-1.27 1.998-1.225 0-1.288-1.161-1.288-1.763 0-1.036 0.405-1.82 1.27-1.82m2.043-0.162c0-0.674-8e-3 -2.367-2.187-2.367-0.559 0-1.647 0.153-1.801 1.404h0.792c0.145-0.747 0.874-0.747 1.063-0.747 1.368 0 1.341 1.099 1.341 1.657v0.198h-0.018v-0.036c-0.207-0.333-0.621-0.63-1.251-0.63-1.603 0-2.07 1.503-2.07 2.629 0 1.323 0.711 2.349 1.962 2.349 0.855 0 1.215-0.531 1.404-0.801h0.018v0.666h0.747z"/></g><g transform="translate(436.33 125.54)"><path d="m0 0c0.505 0 1.289 0.333 1.289 1.585 0 0.765-0.126 1.998-1.27 1.998-1.225 0-1.287-1.161-1.287-1.763 0-1.036 0.404-1.82 1.268-1.82m2.044-0.162c0-0.674-8e-3 -2.367-2.187-2.367-0.559 0-1.648 0.153-1.801 1.404h0.792c0.145-0.747 0.874-0.747 1.063-0.747 1.368 0 1.341 1.099 1.341 1.657v0.198h-0.018v-0.036c-0.207-0.333-0.621-0.63-1.251-0.63-1.603 0-2.07 1.503-2.07 2.629 0 1.323 0.71 2.349 1.961 2.349 0.856 0 1.216-0.531 1.405-0.801h0.018v0.666h0.747z"/></g><g transform="translate(442.71 127.72)"><path d="m0 0c-0.045 0.73-0.351 1.404-1.314 1.404-0.73 0-1.306-0.674-1.306-1.404zm0.756-1.251c-0.026-0.225-0.243-0.891-0.837-1.287-0.216-0.144-0.522-0.324-1.278-0.324-1.323 0-2.107 0.999-2.107 2.358 0 1.458 0.703 2.62 2.26 2.62 1.36 0 2.026-1.081 2.026-2.746h-3.44c0-0.981 0.459-1.549 1.369-1.549 0.747 0 1.188 0.577 1.215 0.928z"/></g><g transform="translate(445.37 125)"><path d="m0 0h-0.792v4.708h0.747v-0.784h0.019c0.314 0.55 0.729 0.919 1.323 0.919 0.099 0 0.144-9e-3 0.207-0.027v-0.819h-0.298c-0.737 0-1.206-0.577-1.206-1.261z"/></g><g transform="translate(420.96 116.57)"><path d="m0 0c-0.045 0.999-0.873 1.314-1.602 1.314-0.549 0-1.476-0.153-1.476-1.133 0-0.55 0.387-0.73 0.765-0.82l1.846-0.424c0.836-0.198 1.467-0.702 1.467-1.728 0-1.53-1.422-1.953-2.53-1.953-1.197 0-1.665 0.36-1.953 0.621-0.55 0.495-0.657 1.035-0.657 1.638h0.819c0-1.17 0.954-1.512 1.782-1.512 0.63 0 1.693 0.162 1.693 1.089 0 0.675-0.316 0.891-1.377 1.143l-1.324 0.307c-0.423 0.098-1.377 0.395-1.377 1.521 0 1.008 0.657 1.998 2.223 1.998 2.26 0 2.485-1.35 2.521-2.061z"/></g><path d="m423.78 112h-0.792v4.708h0.792zm-0.792 6.463h0.792v-0.9h-0.792z"/><g transform="translate(426.83 112.54)"><path d="m0 0c0.504 0 1.288 0.333 1.288 1.585 0 0.765-0.126 1.998-1.27 1.998-1.225 0-1.288-1.161-1.288-1.763 0-1.036 0.405-1.82 1.27-1.82m2.043-0.162c0-0.674-8e-3 -2.367-2.187-2.367-0.559 0-1.647 0.153-1.801 1.404h0.792c0.145-0.747 0.874-0.747 1.063-0.747 1.368 0 1.341 1.099 1.341 1.657v0.198h-0.018v-0.036c-0.207-0.333-0.621-0.63-1.251-0.63-1.603 0-2.07 1.503-2.07 2.629 0 1.323 0.711 2.349 1.962 2.349 0.855 0 1.215-0.531 1.404-0.801h0.018v0.666h0.747z"/></g><g transform="translate(433.8 111.99)"><path d="m0 0h-0.792v2.898c0 0.819-0.234 1.233-1.008 1.233-0.45 0-1.243-0.288-1.243-1.566v-2.565h-0.792v4.708h0.747v-0.666h0.019c0.171 0.252 0.612 0.801 1.422 0.801 0.729 0 1.647-0.298 1.647-1.638z"/></g><path d="m412.44 155.96h-4.033v-4.034h4.033z" fill="#f4901d"/><path d="m411.5 144.63h-29.241v-7.131h29.241z" fill="#fff"/></g><g clip-path="url(#b)"><g transform="translate(403.47 148.82)"><path d="m0 0-14.923-17.516m24.07 17.776-14.172-16.657m23.227 16.811-15.344-18.002m2.465 18.58-15.109-17.734m23.509 17.132-13.113-15.439m-17.27 15.875-12.953-15.256m22.009 15.41-14.829-17.41m11.849 19.108-15.861-18.594m22.196 15.627-14.078-16.549" fill="none" stroke="#000" stroke-width="1.25"/></g></g><g clip-path="url(#a)"><path d="m411.5 144.63h-29.241v-7.131h29.241z" fill="none" stroke="#000" stroke-width=".75"/><g transform="translate(268.38 460.88)"><path d="m0 0-93.237-94.739c-9.338-9.479-17.818-22.84-23.875-37.619-6.058-14.779-9.394-30.248-9.394-43.557v-14.119" fill="none" stroke="#f4901d" stroke-dasharray="5.198, 10.6" stroke-width="5.198"/></g><g transform="translate(-83.396 472.81)"><path d="m0 0v-119.56h-3.755v119.56" fill="#ffd24f"/></g><g transform="translate(155.82 217.98)"><path d="m0 0 5.193 3e-3 -4e-3 5.199-5.193-6e-3z" fill="#f4901d"/></g><g transform="translate(150.31 233.78)"><path d="m0 0 5.193 3e-3 -4e-3 5.199-5.193-6e-3z" fill="#f4901d"/></g><g transform="translate(161.33 202.18)"><path d="m0 0 5.193 3e-3 -4e-3 5.199-5.193-6e-3z" fill="#f4901d"/></g><g transform="translate(144.8 249.58)"><path d="m0 0 5.194 3e-3 -4e-3 5.199-5.194-6e-3z" fill="#f4901d"/></g><g transform="translate(208.11 268.18)"><path d="m0 0 0.287 6.631c2.27 28.38 7.74 44.039 31.677 63.624" fill="none" stroke="#000" stroke-width=".75"/></g><g transform="translate(341.37 499.73)"><path d="m0 0-3.668 3.676-3.683-3.673 3.673-3.675z" fill="#f4901d"/></g><g transform="translate(296.37 477.69)"><path d="m0 0-3.668 3.676-3.679-3.674 3.671-3.674z" fill="#f4901d"/></g><g transform="translate(311.37 485.04)"><path d="m0 0-3.669 3.678-3.678-3.675 3.669-3.673z" fill="#f4901d"/></g><g transform="translate(281.38 470.35)"><path d="m0 0-3.668 3.677-3.68-3.675 3.67-3.674z" fill="#f4901d"/></g><g transform="translate(326.37 492.38)"><path d="m0 0-3.668 3.677-3.677-3.675 3.669-3.673z" fill="#f4901d"/></g><g transform="translate(406.31 118.29)"><path d="m0 0v-3.416h-3.416v-3.168h10v3.168h-3.416v3.416z"/></g><g transform="translate(348.61 604.09)"><path d="m0 0c0.759-0.759 1.878-0.928 2.803-0.516l10.876-10.876 4.998 4.997-4.996 4.995-3.718-3.719-5.881 5.88c0.41 0.925 0.243 2.046-0.516 2.806-0.984 0.984-2.582 0.984-3.565-1e-3 -0.987-0.985-0.986-2.582-1e-3 -3.566" fill="#c0311a"/></g></g></g></svg>
