<?xml version="1.0" encoding="UTF-8"?>
<svg width="533.42" height="809.37" version="1.1" viewBox="0 0 533.42 809.37" xml:space="preserve" xmlns="http://www.w3.org/2000/svg"><defs><clipPath id="f"><path d="m0 792h612v-792h-612z"/></clipPath><clipPath id="e"><path d="m63 42.564h513v694.69h-513z"/></clipPath><clipPath id="d"><path d="m72 72v-72h-72v72z"/></clipPath><pattern id="a" width="72" height="72" patternTransform="matrix(.4688 .4688 -.4688 .4688 378.89 445.36)" patternUnits="userSpaceOnUse"><g clip-path="url(#d)"><g transform="translate(-.25 3.6)"><path d="m0 0h72.5m-72.5 14.4h72.5m-72.5 14.4h72.5m-72.5 14.4h72.5m-72.5 14.4h72.5m-72.5-50.4h72.5m-72.5 14.4h72.5m-72.5 14.4h72.5m-72.5 14.4h72.5m-72.5 14.4h72.5" fill="none" stroke="#000" stroke-width="1.44"/></g></g></pattern><clipPath id="c"><path d="m63 42.564h513v694.69h-513z"/></clipPath><clipPath id="b"><path d="m63 42.564h513v694.69h-513z"/></clipPath></defs><g transform="matrix(1.3333 0 0 -1.3333 -162.77 919.48)"><g clip-path="url(#f)"/><path d="m355.09 110.04h-109.25v568.5h109.25z" fill="#b1b4b6"/><g transform="translate(243.34 678.55)"><path d="m0 0v-568.5m114.25 568.5v-568.5" fill="none" stroke="#000"/></g><g transform="translate(300.46 678.55)"><path d="m0 0v-568.5" fill="none" stroke="#ffd200" stroke-dasharray="45, 135" stroke-width="2"/></g><path d="m387.04 111.61h-170v-11h170z" fill="#fff"/><path d="m399.72 689.61h-201.5v-11h201.5z" fill="#fff"/><g fill="#f4901d"><path d="m351.48 255.27h-3.333v3.334h3.333z"/><path d="m345.39 268.67h-3.334v3.334h3.334z"/><path d="m339.3 282.07h-3.333v3.332h3.333z"/><path d="m333.2 295.46h-3.334v3.334h3.334z"/><path d="m327.11 308.86h-3.333v3.334h3.333z"/><path d="m321.02 322.25h-3.334v3.333h3.334z"/><path d="m314.92 335.65h-3.333v3.334h3.333z"/><path d="m308.83 349.05h-3.334v3.334h3.334z"/><path d="m302.74 362.44h-3.333v3.333h3.333z"/><path d="m302.74 388.82h-3.333v3.334h3.333z"/><path d="m302.74 415.2h-3.333v3.334h3.333z"/><path d="m302.74 441.58h-3.333v3.334h3.333z"/><path d="m302.74 467.95h-3.333v3.334h3.333z"/><path d="m302.74 494.33h-3.333v3.333h3.333z"/><path d="m302.74 520.71h-3.333v3.334h3.333z"/><path d="m302.74 547.09h-3.333v3.334h3.333z"/></g><path d="m349.7 551.22h-41.334v-59.312h41.334z" fill="#fff" stroke="#000"/><g clip-path="url(#e)"><path d="m349.7 551.22h-41.334v-59.312h41.334z" fill="url(#a)"/></g><path d="m349.7 551.22h-41.334v-59.312h41.334z" fill="none" stroke="#000"/><g transform="translate(365.82 139.02)"><path d="m0 0v-3.416h-3.416v-3.166h10v3.166h-3.418v3.416h-1.583z"/></g><g transform="translate(236.15 630.61)"><path d="m0 0v3.417h3.416v3.167h-10v-3.167h3.417v-3.417h1.583z"/></g><g transform="translate(380.43 132.44)"><path d="m0 0h30.78m-15.391 3.826v53.226" fill="none" stroke="#000" stroke-width=".75"/></g><g clip-path="url(#c)"><g transform="translate(396.36 135.03)"><path d="m0 0c0.263 0.869 0.504 1.433 0.784 2.129h-2.649c0.118-0.249 0.522-1.26 0.783-2.129 0.281-0.928 0.473-1.771 0.541-2.317 0.069 0.546 0.261 1.389 0.541 2.317"/></g><g transform="translate(395.82 260.12)"><path d="m0 0v54.602" fill="none" stroke="#000" stroke-width=".75"/></g><g transform="translate(396.36 258.88)"><path d="m0 0c0.263 0.868 0.504 1.432 0.784 2.129h-2.649c0.118-0.249 0.522-1.261 0.783-2.129 0.281-0.929 0.473-1.772 0.541-2.318 0.069 0.546 0.261 1.389 0.541 2.318"/></g><g transform="translate(395.82 252.31)"><path d="m0 0v-52.13" fill="none" stroke="#000" stroke-width=".75"/></g><g transform="translate(395.28 253.56)"><path d="m0 0c-0.262-0.868-0.504-1.433-0.783-2.129h2.648c-0.118 0.249-0.521 1.261-0.783 2.129-0.28 0.928-0.472 1.771-0.541 2.317-0.068-0.546-0.26-1.389-0.541-2.317"/></g><g transform="translate(411.21 256.23)"><path d="m0 0h-52.747m-141.69 302.25v31.184" fill="none" stroke="#000" stroke-width=".75"/></g><g transform="translate(217.31 557.24)"><path d="m0 0c0.263 0.868 0.504 1.433 0.784 2.129h-2.649c0.119-0.249 0.521-1.261 0.783-2.129 0.281-0.928 0.473-1.771 0.541-2.317 0.069 0.546 0.261 1.389 0.541 2.317"/></g><g transform="translate(242.82 554.57)"><path d="m0 0h-35.666m9.623 78.73v-33.016" fill="none" stroke="#000" stroke-width=".75"/></g><g transform="translate(216.24 634.54)"><path d="m0 0c-0.262-0.868-0.504-1.432-0.783-2.128h2.648c-0.118 0.249-0.521 1.26-0.783 2.128-0.28 0.929-0.472 1.771-0.541 2.318-0.068-0.547-0.26-1.389-0.541-2.318"/></g><g transform="translate(227.57 637.19)"><path d="m0 0h-20.416m204.06-223.26h-53.057m37.666-53.83v-37.635" fill="none" stroke="#000" stroke-width=".75"/></g><g transform="translate(395.28 361.35)"><path d="m0 0c-0.262-0.868-0.504-1.433-0.783-2.129h2.648c-0.118 0.249-0.521 1.261-0.783 2.129-0.28 0.928-0.472 1.771-0.541 2.317-0.068-0.546-0.26-1.389-0.541-2.317"/></g><g transform="translate(411.21 364.01)"><path d="m0 0h-53.391m38 3.932v8.958" fill="none" stroke="#000" stroke-width=".75"/></g><g transform="translate(396.36 366.71)"><path d="m0 0c0.263 0.868 0.504 1.433 0.784 2.129h-2.649c0.118-0.249 0.522-1.261 0.783-2.129 0.281-0.929 0.473-1.771 0.541-2.317 0.069 0.546 0.261 1.388 0.541 2.317"/></g><g transform="translate(395.82 410.03)"><path d="m0 0v-11.646" fill="none" stroke="#000" stroke-width=".75"/></g><g transform="translate(395.28 411.27)"><path d="m0 0c-0.262-0.867-0.504-1.432-0.783-2.128h2.648c-0.118 0.25-0.521 1.261-0.783 2.128-0.28 0.93-0.472 1.772-0.541 2.318-0.068-0.546-0.26-1.388-0.541-2.318"/></g><g transform="translate(366.46 443.4)"><path d="m0 0-24.667-23.334" fill="none" stroke="#000" stroke-width=".75"/></g><g transform="translate(341.27 418.82)"><path d="m0 0c0.81 0.407 1.386 0.619 2.085 0.894l-1.821 1.924c-0.099-0.257-0.557-1.244-1.008-2.032-0.482-0.842-0.961-1.56-1.311-1.985 0.443 0.325 1.187 0.765 2.055 1.199"/></g><g transform="translate(366.46 476.94)"><path d="m0 0-24.667 0.037" fill="none" stroke="#000" stroke-width=".75"/></g><g transform="translate(340.56 476.44)"><path d="m0 0c0.868-0.264 1.431-0.506 2.128-0.787l4e-3 2.649c-0.25-0.118-1.262-0.519-2.13-0.78-0.93-0.279-1.773-0.47-2.319-0.538 0.546-0.069 1.389-0.262 2.317-0.544"/></g><g transform="translate(315.3 428.79)"><path d="m0 0c0-0.405 0.334-0.737 0.738-0.737h22.067c0.406 0 0.738 0.332 0.738 0.737v0.573c0 0.406-0.332 0.738-0.738 0.738h-22.067c-0.404 0-0.738-0.332-0.738-0.738z" fill="none" stroke="#000" stroke-width="1.077"/></g><g transform="translate(337.99 430.1)"><path d="m0 0-0.513 57.829s-6.013 1.194-11.009 1.194c-4.763 0-10.826-1.194-10.826-1.194l-0.254-57.829" fill="#fff"/><path d="m0 0-0.513 57.829s-6.013 1.194-11.009 1.194c-4.763 0-10.826-1.194-10.826-1.194l-0.254-57.829m22.199 56.294s-5.757 1.194-10.754 1.194c-4.763 0-10.825-1.194-10.825-1.194" fill="none" stroke="#000" stroke-width="1.077"/></g><g transform="translate(334.81 471.04)"><path d="m0 0v15.209c-2.139 0.338-5.314 0.745-8.229 0.745-2.892 0-6.263-0.441-8.465-0.786v-14.828m8.465 15.614v-12.884m9.65-4.094s-3.41 2.217-9.382 2.217c-5.97 0-9.979-2.217-9.979-2.217l1.535-3.668s5.033 1.279 8.274 1.279c3.242 0 7.846-1.365 7.846-1.365zm-1.619-12.453v7.932s-4.605 1.364-7.847 1.364c-3.241 0-8.274-1.278-8.274-1.278v-8.018z" fill="none" stroke="#000" stroke-width=".539"/></g><g transform="translate(318.11 457.31)"><path d="m0 0v8.444l-1.877 1.876-2.729-2.558 3.839 0.426v-8.188z"/></g><g transform="translate(335.02 457.31)"><path d="m0 0v8.444l1.875 1.876 2.731-2.558-3.839 0.426v-8.188z"/></g><path d="m318.71 455.86h16.312v1.45h-16.312z"/><path d="m316.66 430.44h19.617v25.588h-19.617zm20.897 28.402h-2.217l2.217-1.791m-21.749 1.791h2.216l-2.216-1.791m19.275-1.024v-25.587m-1.424 25.587v-25.587m-1.423 25.587v-25.587m-1.423 25.587v-25.587m-1.423 25.587v-25.587m-1.424 25.587v-25.587m-1.422 25.587v-25.587m-1.424 25.587v-25.587m-1.423 25.587v-25.587m-1.424 25.587v-25.587m-1.424 25.587v-25.587m-1.421 25.587v-25.587m-1.425 25.587v-25.587" fill="none" stroke="#000" stroke-width=".539"/><g transform="translate(319.73 435.22)"><path d="m0 0-2.814-1.279v9.979l2.814-1.28z" fill="#fff"/><path d="m0 0-2.814-1.279v9.979l2.814-1.28z" fill="none" stroke="#000" stroke-width=".539"/></g><g transform="translate(333.77 435.22)"><path d="m0 0 2.814-1.279v9.979l-2.814-1.28z" fill="#fff"/><path d="m0 0 2.814-1.279v9.979l-2.814-1.28z" fill="none" stroke="#000" stroke-width=".539"/></g><g transform="translate(337.99 456.03)"><path d="m0 0h-22.347" fill="#fff"/><path d="m0 0h-22.347m20.983-17.058h1.193m-22.346 0h1.194" fill="none" stroke="#000" stroke-width="1.077"/></g><g transform="translate(329.09 462.17)"><path d="m0 0c0 1.332-1.08 2.413-2.412 2.413-1.333 0-2.414-1.081-2.414-2.413 0-1.333 1.081-2.413 2.414-2.413 1.332 0 2.412 1.08 2.412 2.413z" fill="none" stroke="#000" stroke-width=".539"/></g><path d="m338.55 429.07h-23.965v-14.729h23.965z" fill="#fff"/><path d="m338.55 429.07h-23.965v-14.729h23.965zm0-13.813-11.983 13.813-11.982-13.813z" fill="none" stroke="#000" stroke-width="1.077"/><g transform="translate(327.21 639.56)"><path d="m0 0v10.664h2.615l-4.326 7.346-4.023-7.346h2.414v-10.664z"/></g><g transform="translate(273.05 658.07)"><path d="m0 0v-10.664h-2.615l4.326-7.346 4.023 7.346h-2.414v10.664z"/></g><g transform="translate(301.82 561.95)"><path d="m0 0 5.229 9.295 2.28-1.284-0.169 8.525-7.108-4.43 2.103-1.183-5.228-9.294z"/></g><g transform="translate(305.69 303.3)"><path d="m0 0-5.228 9.295-2.28-1.283 0.169 8.523 7.108-4.43-2.103-1.183 5.228-9.293z"/></g><g transform="translate(327.46 131.81)"><path d="m0 0v10.664h2.615l-4.326 7.345-4.023-7.345h2.414v-10.664z"/></g><g transform="translate(273.3 150.32)"><path d="m0 0v-10.664h-2.615l4.326-7.345 4.023 7.345h-2.414v10.664z"/></g><g transform="translate(422.39 124.98)"><path d="m0 0c-7.823-8.82-55.063-18.166-55.002 3.904" fill="none" stroke="#000" stroke-width=".75"/></g><g transform="translate(366.86 130.13)"><path d="m0 0c-0.264-0.867-0.507-1.431-0.789-2.126l2.649-8e-3c-0.118 0.25-0.519 1.263-0.778 2.131-0.278 0.93-0.468 1.773-0.535 2.319-0.07-0.546-0.264-1.387-0.547-2.316"/></g><g transform="translate(174.87 651.09)"><path d="m0 0c10.486 8.988 59.315 9.793 59.647-10.345" fill="none" stroke="#000" stroke-width=".75"/></g><g transform="translate(235.07 639.52)"><path d="m0 0c0.247 0.872 0.48 1.44 0.747 2.141l-2.648-0.043c0.123-0.248 0.542-1.252 0.819-2.116 0.296-0.924 0.502-1.763 0.579-2.308 0.059 0.547 0.238 1.392 0.503 2.326"/></g><g transform="translate(419.63 136.11)"><path d="m0 0 28.392 28.392c1.196 1.197 3.155 1.197 4.35 0l28.393-28.392c1.196-1.196 1.196-3.155 0-4.351l-28.393-28.393c-1.195-1.196-3.154-1.196-4.35 0l-28.392 28.393c-1.197 1.196-1.197 3.155 0 4.351" fill="#f4901d"/><path d="m0 0 28.392 28.392c1.196 1.197 3.155 1.197 4.35 0l28.393-28.392c1.196-1.196 1.196-3.155 0-4.351l-28.393-28.393c-1.195-1.196-3.154-1.196-4.35 0l-28.392 28.393c-1.197 1.196-1.197 3.155 0 4.351z" fill="none" stroke="#000" stroke-miterlimit="2.613" stroke-width=".25"/></g><g transform="translate(420.45 135.84)"><path d="m0 0 27.834 27.834c1.051 1.049 2.768 1.049 3.819 0l27.834-27.834c1.048-1.051 1.048-2.768 0-3.819l-27.834-27.834c-1.051-1.048-2.768-1.048-3.819 0l-27.834 27.834c-1.05 1.051-1.05 2.768 0 3.819" fill-rule="evenodd"/></g><g transform="translate(421.54 135.11)"><path d="m0 0 27.479 27.478c0.647 0.648 1.707 0.648 2.354 0l27.478-27.478c0.648-0.648 0.648-1.708 0-2.355l-27.478-27.478c-0.647-0.648-1.707-0.648-2.354 0l-27.479 27.478c-0.648 0.647-0.648 1.707 0 2.355" fill="#f4901d" fill-rule="evenodd"/></g><g transform="translate(439.7 140.99)"><path d="m0 0 2.07 1.969-1.109-2.752zm7.021-2.323 1.186-6.54-2.347 2.146zm-5.632-20.126h-2.625l0.554 17.651 0.606 1.515-3.131 3.056c2.585 2.61 5.168 5.219 7.752 7.829 1.308-1.161 2.701-1.416 4.142-1.162l1.869-17.248c2.634-2.222 5.268-4.444 7.903-6.666-1.918 3.523-1.049 7.349 2.299 6.337l8.61-2.601-8.762-8.736h-9.268l3.435 6.691-8.738 7.324 1.541-4.394-0.278-9.596h-2.096l-0.352 8.105-2.198 3.966zm6.275 37.02c2.01 0 3.649-1.639 3.649-3.649s-1.639-3.648-3.649-3.648-3.648 1.638-3.648 3.648 1.638 3.649 3.648 3.649" fill-rule="evenodd"/></g><g transform="translate(184.23 633.05)"><path d="m0 0-28.392-28.391c-1.196-1.197-3.155-1.197-4.35 0l-28.393 28.391c-1.196 1.197-1.196 3.156 0 4.352l28.393 28.393c1.195 1.196 3.154 1.196 4.35 0l28.392-28.393c1.197-1.196 1.197-3.155 0-4.352" fill="#f4901d"/><path d="m0 0-28.392-28.391c-1.196-1.197-3.155-1.197-4.35 0l-28.393 28.391c-1.196 1.197-1.196 3.156 0 4.352l28.393 28.393c1.195 1.196 3.154 1.196 4.35 0l28.392-28.393c1.197-1.196 1.197-3.155 0-4.352z" fill="none" stroke="#000" stroke-miterlimit="2.613" stroke-width=".25"/></g><g transform="translate(183.41 633.31)"><path d="m0 0-27.834-27.834c-1.051-1.049-2.768-1.049-3.819 0l-27.834 27.834c-1.048 1.051-1.048 2.768 0 3.818l27.834 27.834c1.051 1.049 2.768 1.049 3.819 0l27.834-27.834c1.05-1.05 1.05-2.767 0-3.818" fill-rule="evenodd"/></g><g transform="translate(182.32 634.04)"><path d="m0 0-27.479-27.477c-0.647-0.649-1.707-0.649-2.354 0l-27.478 27.477c-0.648 0.649-0.648 1.708 0 2.356l27.478 27.478c0.647 0.648 1.707 0.648 2.354 0l27.479-27.478c0.648-0.648 0.648-1.707 0-2.356" fill="#f4901d" fill-rule="evenodd"/></g><g transform="translate(164.15 628.16)"><path d="m0 0-2.07-1.969 1.109 2.752zm-7.02 2.323-1.187 6.54 2.348-2.147zm5.631 20.126h2.625l-0.554-17.652-0.606-1.514 3.131-3.056c-2.585-2.61-5.168-5.22-7.752-7.829-1.308 1.161-2.701 1.416-4.141 1.162l-1.87 17.248c-2.633 2.222-5.268 4.444-7.903 6.666 1.918-3.523 1.049-7.349-2.299-6.338l-8.61 2.602 8.763 8.736h9.267l-3.434-6.691 8.737-7.324-1.541 4.394 0.278 9.596h2.096l0.352-8.106 2.198-3.965zm-6.275-37.021c-2.01 0-3.648 1.64-3.648 3.65s1.638 3.648 3.648 3.648 3.648-1.638 3.648-3.648-1.638-3.65-3.648-3.65" fill-rule="evenodd"/></g></g><text transform="matrix(1 0 0 -1 238.97 85.11)" fill="#000000" font-family="Helvetica" font-size="12px" font-weight="bold"><tspan x="0 6.612 13.284 20.615999 23.952 30.624001 37.296001 40.632 43.967999 52.632 59.964001 67.295998 70.632004 73.968002 80.639999 87.311996 91.307999 94.643997 101.976 109.308 112.644 119.316" y="0">Typical Application 18</tspan></text><text transform="matrix(1 0 0 -1 393.65 641.23)" fill="#000000" font-family="Helvetica" font-size="9px"><tspan x="0 6.4980001 11.502 14.004 19.007999 21.059999 23.562 29.565001 34.569 39.573002 41.625 46.043999 51.048 55.872002 57.869999 62.874001 67.374001 69.875999 74.879997 81.377998 84.375 89.378998 91.880997 96.885002 101.889 106.893 109.395 114.399 120.897 123.894" y="0">Note: See Tables 6H-2 and 6H-3</tspan><tspan x="-0.0089999996 23.858999 26.1 31.104 34.101002 36.603001 39.105 44.109001 49.112999 51.615002 59.112 64.115997 69.120003 74.124001 76.122002 81.125999 86.129997 88.632004 93.636002 96.138 98.639999 101.142 106.146" y="9.9989996"> for the meaning of the</tspan><tspan x="-0.0089999996 23.858999 28.358999 32.859001 40.355999 45.360001 50.363998 52.362 56.862 59.363998 64.367996 69.372002 74.375999 76.877998 81.882004 84.878998 87.380997 89.378998 94.383003 96.885002 99.387001 104.391" y="19.997999"> symbols and/or letter</tspan><tspan x="-0.0089999996 23.858999 28.358999 33.362999 38.367001 43.370998 47.870998 50.373001 55.376999 59.876999 64.880997 69.885002 72.387001 74.385002 79.389 81.890999 84.392998 89.397003 91.394997 95.894997 98.397003 100.899 102.897 107.901 112.905 115.902 120.771" y="29.997"> codes used in this figure.</tspan><tspan x="-25.893 -17.667 -12.663 -9.5310001 -5.0310001 -2.529 1.7460001 6.75 11.754 13.752 18.252001 20.25 25.254 27.756001 30.753 35.757 40.761002 43.263 45.261002 50.264999 55.269001 60.272999 62.271" y="168.16499">Work vehicle (optional)</tspan><tspan x="-26.343 -21.924 -18.792 -13.788 -9.4680004 -4.9679999 -1.971 5.526 10.53 15.534 20.538 23.040001 28.044001 33.048 35.549999 40.554001 43.056 45.557999 50.562 55.566002 60.57 65.573997 68.075996 73.080002 76.077003 78.579002 81.575996 86.580002 91.584 94.085999 96.084 101.088 106.092 111.096 113.094" y="197.76601">Truck-mounted attenuator (optional)</tspan><tspan x="-23.103001 -17.1 -12.096 -9.5939999 -7.362 -2.358 0.639 3.141 7.6409998 12.645 17.649 22.149" y="251.802">Buffer space</tspan><tspan x="-16.731001 -13.734 -8.7299995 -3.7260001 -1.224 0.77399999 5.7779999 10.782 15.786 17.784" y="261.80099">(optional)</tspan><tspan x="-20.169001 -15.165 -10.161 -7.6589999 -5.1570001 -0.153 2.349 7.3530002 12.357 17.361 19.863001 22.365" y="325.45801">50 to 100 ft</tspan><tspan x="-0.81" y="449.487">A</tspan><tspan x="-179.964" y="49.418999">A</tspan></text><g clip-path="url(#b)" fill="#fff"><path d="m545.5 703.29h-448.28v31.896h448.28z"/><path d="m561.02 42.943h-474.14v16.379h474.14z"/></g></g></svg>
