<?xml version="1.0" encoding="UTF-8"?>
<svg width="636.6" height="659.62" version="1.1" viewBox="0 0 636.6 659.62" xml:space="preserve" xmlns="http://www.w3.org/2000/svg"><defs><clipPath id="p"><path d="m80.836 207.12h477.7v531.13h-477.7z"/></clipPath><clipPath id="o"><path d="m63.125 207.12h513.12v531.13h-513.12z"/></clipPath><clipPath id="n"><path d="m63.125 207.12h513.12v531.13h-513.12z"/></clipPath><clipPath id="m"><path d="m63.125 207.12h513.12v531.13h-513.12z"/></clipPath><clipPath id="l"><path d="m63.125 207.12h513.12v531.13h-513.12z"/></clipPath><clipPath id="k"><path d="m63.125 207.12h513.12v531.13h-513.12z"/></clipPath><clipPath id="j"><path d="m63.125 207.12h513.12v531.13h-513.12z"/></clipPath><clipPath id="i"><path d="m80.836 207.12h477.7v531.13h-477.7z"/></clipPath><clipPath id="h"><path d="m63.125 207.12h513.12v531.13h-513.12z"/></clipPath><clipPath id="g"><path d="m63.125 207.12h513.12v531.13h-513.12z"/></clipPath><clipPath id="f"><path d="m80.836 207.12h477.7v531.13h-477.7z"/></clipPath><clipPath id="e"><path d="m63.125 207.12h513.12v531.13h-513.12z"/></clipPath><clipPath id="d"><path d="m63.125 207.12h513.12v531.13h-513.12z"/></clipPath><clipPath id="c"><path d="m63.125 207.12h513.12v531.13h-513.12z"/></clipPath><clipPath id="b"><path d="m80.836 207.12h477.7v531.13h-477.7z"/></clipPath><clipPath id="a"><path d="m63.125 207.12h513.12v531.13h-513.12z"/></clipPath></defs><g transform="matrix(1.3333 0 0 -1.3333 -107.78 935.78)"><g transform="translate(188.23 655.11)"><path d="m0 0-4.419-7.673-5.205 2.997 4.419 7.673zm10.139-5.842-4.419-7.673-5.026 2.896 4.423 7.672zm15.501-8.929-4.42-7.673-10.338 5.955 4.42 7.672zm5.103-2.939-4.42-7.672-5.103 2.938 4.42 7.673zm10.281-5.923-4.42-7.672-5.18 2.984 4.42 7.673zm10.202-5.877-4.419-7.672-5.101 2.938 4.419 7.673zm-31.492 28.386-5.165 2.971-2.975-5.163-5.026 2.894 2.975 5.165-5.138 2.959-2.98-5.173-5.175 2.993 2.978 5.167-5.153 2.964-2.981-5.174-5.003 2.895-1.474-2.561 5.007-2.883-4.391-7.626-5.006 2.884-1.444-2.502 5.007-2.884-2.974-5.163 5.153-2.968 2.975 5.163 5.178-2.983-2.973-5.163 5.138-2.961 2.975 5.163 5.024-2.896-2.976-5.161 5.165-2.974 2.976 5.161 5.168-2.955 5.176-2.982 5.11-2.964-2.975-5.164 5.083-2.931 2.988 5.181 5.18-3.006-2.974-5.165 5.088-2.934 2.986 5.182 5.1-2.962-2.974-5.162 5.114-2.945 2.963 5.192 5.178-3.006 1.426 2.496-5.179 2.983 4.398 7.636 5.222-2.928 1.429 2.497-5.153 2.981 2.975 5.164-5.114 2.944-2.991-5.166-5.101 2.938 2.983 5.176-5.104 2.94-2.98-5.177-5.18 2.984 2.982 5.178-5.089 2.925-2.994-5.165-5.102 2.938 2.983 5.179-5.181 2.983-2.982-5.176-5.153 2.979z" fill-rule="evenodd"/></g><g transform="translate(239.56 625.55)"><path d="m0 0-2.21-3.837-2.209-3.836-2.603 1.498-2.602 1.499 2.21 3.836 2.209 3.836 2.602-1.498zm10.139-5.842-2.21-3.837-2.209-3.836-2.513 1.447-2.513 1.449 2.211 3.836 2.212 3.836 2.511-1.448zm10.321-5.946-2.21-3.836-2.209-3.837-2.579 1.486-2.58 1.486 4.42 7.672 2.578-1.485zm10.282-5.922-4.42-7.672-5.102 2.938 4.42 7.672 2.551-1.469zm20.483-11.801-2.209-3.836-2.21-3.836-7.691 4.431-7.692 4.431 2.21 3.836 2.21 3.837 7.692-4.431zm-31.492 28.387-2.582 1.485-2.582 1.486-2.976-5.164-2.512 1.448-2.513 1.446 1.487 2.583 1.489 2.583-2.57 1.48-2.569 1.479-1.49-2.586-1.491-2.587-2.587 1.496-2.586 1.497 1.488 2.583 1.488 2.584-2.576 1.482-2.577 1.482-2.98-5.174-2.502 1.448-2.502 1.447-0.737-1.28-0.736-1.281 2.503-1.442 2.503-1.441-2.196-3.813-2.194-3.813-2.503 1.442-2.503 1.441-0.723-1.251-0.722-1.25 2.504-1.442 2.505-1.442-1.489-2.582-1.487-2.581 2.577-1.484 2.576-1.484 1.488 2.582 1.487 2.581 5.178-2.984-1.487-2.581-1.486-2.581 2.569-1.48 2.57-1.481 1.487 2.581 1.487 2.582 5.024-2.896-1.488-2.581-1.487-2.58 2.582-1.487 2.583-1.488 1.487 2.581 1.488 2.581 2.584-1.478 2.584-1.477-1.494-2.59-1.494-2.589 2.59-1.493 2.59-1.491 1.492 2.59 1.493 2.591 2.555-1.483 2.555-1.481-1.488-2.583-1.488-2.582 5.084-2.93 1.494 2.59 1.495 2.591 2.589-1.503 2.59-1.504-1.487-2.582-1.487-2.583 2.544-1.467 2.544-1.466 1.493 2.591 1.492 2.591 2.551-1.481 2.55-1.482-1.488-2.581-1.487-2.58 2.557-1.473 2.557-1.472 1.482 2.595 1.481 2.596 2.589-1.503 2.59-1.502 0.713 1.248 0.712 1.248-5.178 2.982 2.199 3.819 2.199 3.818 2.611-1.464 2.611-1.465 0.715 1.249 0.715 1.248-2.578 1.491-2.577 1.49 2.976 5.164-2.557 1.473-2.556 1.472-1.497-2.583-1.495-2.583-2.551 1.468-2.551 1.469-2.55 1.47-2.55 1.469-2.591 1.493-2.589 1.492 2.982 5.178-2.545 1.463-2.544 1.462-1.498-2.582-1.497-2.583-5.102 2.938 1.492 2.59 1.491 2.589-2.59 1.491-2.59 1.492-1.491-2.589-1.491-2.588-5.154 2.98 1.489 2.584z" fill-rule="evenodd"/></g><g transform="translate(279.51 207.12)"><path d="m0 0h-72.322l-0.138 494.57 72.9 0.138z" fill="#b1b4b6"/></g><path d="m280.74 541.41h-34.584v5.283h34.584z" fill="#fff"/><path d="m241.23 690.06h-34.396v5.282h34.396z" fill="#fff"/><g fill="#ffd24f"><path d="m241.98 701.83h-2.153v-68.933h2.153z"/><path d="m246.14 701.83h-2.153v-68.933h2.153z"/><path d="m241.98 604.77h-2.153v-86.751h2.153z"/></g><g transform="translate(246.14 604.77)"><path d="m0 0h-2.153l2e-3 -397.65h2.151z" fill="#ffd24f"/></g><g transform="translate(281.88 617.98)"><path d="m0 0-76.834 44.333m78.334-88.5-81.334 46.5" fill="none" stroke="#fff" stroke-width="3"/></g><g clip-path="url(#p)"><g transform="translate(207.19 207.12)"><path d="m0 0-0.138 494.57" fill="none" stroke="#000"/></g></g><g transform="translate(236.43 533.72)"><path d="m0 0v3.74" fill="none" stroke="#000" stroke-width=".75"/></g><g clip-path="url(#o)"><g transform="translate(235.9 538.7)"><path d="M 0,0 C -0.263,-0.868 -0.504,-1.432 -0.784,-2.129 H 1.865 C 1.746,-1.879 1.343,-0.868 1.082,0 0.8,0.929 0.609,1.772 0.541,2.318 0.472,1.772 0.28,0.929 0,0"/></g><g transform="translate(236.43 554.33)"><path d="m0 0v-3.712" fill="none" stroke="#000" stroke-width=".75"/></g><g transform="translate(236.97 549.38)"><path d="m0 0c0.261 0.868 0.504 1.432 0.783 2.129h-2.648c0.118-0.25 0.52-1.261 0.783-2.129 0.28-0.929 0.472-1.772 0.541-2.318 0.068 0.546 0.26 1.389 0.541 2.318"/></g><g transform="translate(309.72 546.69)"><path d="m0 0h-10.727m10.727-240.1h-10.727m5.366 3.932v119.93" fill="none" stroke="#000" stroke-width=".75"/></g><g transform="translate(304.9 309.29)"><path d="m0 0c0.263 0.868 0.504 1.433 0.784 2.129h-2.649c0.119-0.249 0.522-1.261 0.783-2.129 0.281-0.929 0.473-1.771 0.541-2.317 0.069 0.546 0.261 1.388 0.541 2.317"/></g><g transform="translate(304.36 461.48)"><path d="m0 0v81.281" fill="none" stroke="#000" stroke-width=".75"/></g><g transform="translate(303.82 544)"><path d="m0 0c-0.261-0.868-0.503-1.433-0.783-2.129h2.649c-0.118 0.25-0.522 1.261-0.784 2.129-0.28 0.929-0.472 1.771-0.541 2.317-0.068-0.546-0.26-1.388-0.541-2.317"/></g><g transform="translate(338.93 265.32)"><path d="m0 0h-58.146m58.146 137.64h-31.731m-118.68-142.5s7.08 11.838 7.087 20.3" fill="none" stroke="#000" stroke-width=".75"/></g><g transform="translate(195.06 282)"><path d="m0 0c-0.263-0.867-0.505-1.432-0.786-2.128l2.649-3e-3c-0.118 0.25-0.52 1.262-0.78 2.13-0.28 0.929-0.471 1.772-0.54 2.318-0.068-0.546-0.261-1.388-0.543-2.317"/></g><g transform="translate(317.42 269.25)"><path d="m0 0v100.51" fill="none" stroke="#000" stroke-width=".75"/></g><g transform="translate(317.96 268.01)"><path d="m0 0c0.263 0.868 0.504 1.432 0.783 2.129h-2.648c0.118-0.249 0.521-1.261 0.783-2.129 0.28-0.929 0.473-1.772 0.541-2.318 0.068 0.546 0.261 1.389 0.541 2.318"/></g><g transform="translate(317.46 378.56)"><path d="m0 0v20.465" fill="none" stroke="#000" stroke-width=".75"/></g><g transform="translate(316.92 400.27)"><path d="m0 0c-0.263-0.869-0.504-1.433-0.783-2.129h2.648c-0.118 0.25-0.521 1.26-0.783 2.129-0.28 0.928-0.473 1.771-0.541 2.317-0.068-0.546-0.261-1.389-0.541-2.317"/></g><g transform="translate(330.33 269.25)"><path d="m0 0v43.587" fill="none" stroke="#000" stroke-width=".75"/></g><g transform="translate(330.87 268.01)"><path d="m0 0c0.263 0.868 0.504 1.432 0.783 2.129h-2.648c0.118-0.249 0.521-1.261 0.783-2.129 0.28-0.929 0.473-1.772 0.541-2.318 0.069 0.546 0.261 1.389 0.541 2.318"/></g><g transform="translate(330.37 399.03)"><path d="m0 0v-45.819" fill="none" stroke="#000" stroke-width=".75"/></g><g transform="translate(329.83 400.27)"><path d="m0 0c-0.263-0.869-0.504-1.433-0.783-2.129h2.648c-0.118 0.25-0.521 1.26-0.783 2.129-0.28 0.928-0.473 1.771-0.541 2.317-0.068-0.546-0.261-1.389-0.541-2.317"/></g><g transform="translate(330.55 509.68)"><path d="m0 0-55.636 32.361" fill="none" stroke="#000" stroke-width=".75"/></g><g transform="translate(273.57 542.21)"><path d="m0 0c0.614-0.669 0.974-1.165 1.429-1.76l1.354 2.277c-0.276 0.026-1.35 0.195-2.231 0.413-0.94 0.233-1.765 0.499-2.268 0.719 0.434-0.337 1.059-0.934 1.716-1.649"/></g><g transform="translate(159.59 651.02)"><path d="m0 0 13.741 22.858" fill="none" stroke="#000" stroke-width=".75"/></g><g transform="translate(173.51 675.22)"><path d="m0 0c-0.672-0.608-1.17-0.967-1.769-1.42l2.27-1.365c0.027 0.274 0.203 1.348 0.427 2.227 0.238 0.941 0.507 1.762 0.73 2.265-0.34-0.433-0.938-1.056-1.658-1.707"/></g><g transform="translate(159.41 649.68)"><path d="m0 0c0.673 0.608 1.17 0.967 1.769 1.42l-2.27 1.365c-0.026-0.274-0.203-1.348-0.426-2.227-0.238-0.941-0.509-1.762-0.731-2.265 0.341 0.433 0.939 1.056 1.658 1.707"/></g><g transform="translate(203.68 660.84)"><path d="m0 0-30.991 17.881m-17.534-29.545 48.806-28.049" fill="none" stroke="#000" stroke-width=".75"/></g></g><text transform="matrix(1 0 0 -1 326.29 344.18)" fill="#000000" font-family="Helvetica" font-size="9px"><tspan x="0 5.6430001 10.467 14.742 19.746 27.243 32.247002 37.250999" y="0">Pavement</tspan><tspan x="-0.0089999996 7.4879999 12.492 15.624 20.124001 22.122 27.125999" y="9.5039997">Marking</tspan><tspan x="-0.0089999996 5.994 10.494 17.990999 22.995001 27.999001 29.997 33.498001" y="19.007999">Symbol* </tspan><tspan x="-0.0089999996 2.9879999 7.4879999 12.492 17.496 19.997999 25.497 27.495001 32.499001 37.502998 40.5 45.504002 48.006001 53.009998 59.013 62.009998 67.014" y="28.511999">(see Figure 8B-7)</tspan></text><g clip-path="url(#n)"><g transform="translate(301.17 240.77)"><path d="m0 0c6.499 6.497 17.1 6.497 23.599 0 6.497-6.499 6.497-17.099 0-23.598-6.499-6.498-17.1-6.498-23.599 0-6.498 6.499-6.498 17.099 0 23.598" fill="#ffd24f" fill-rule="evenodd"/><path d="m0 0c6.499 6.497 17.1 6.497 23.599 0 6.497-6.499 6.497-17.099 0-23.598-6.499-6.498-17.1-6.498-23.599 0-6.498 6.499-6.498 17.099 0 23.598z" fill="none" stroke="#000" stroke-width=".25"/></g><g transform="translate(301.35 240.59)"><path d="m0 0c6.398 6.398 16.838 6.398 23.236 0 6.399-6.401 6.399-16.838 0-23.237-6.398-6.398-16.838-6.398-23.236 0-6.399 6.399-6.399 16.836 0 23.237" fill-rule="evenodd"/></g><g transform="translate(300.55 239.04)"><path d="m0 0c-4.768-5.828-4.768-14.292 0-20.12l10.06 10.06z" fill="#ffd24f" fill-rule="evenodd"/></g><g transform="translate(302.91 241.4)"><path d="m0 0c5.828 4.768 14.292 4.768 20.12 0l-10.06-10.061z" fill="#ffd24f" fill-rule="evenodd"/></g><g transform="translate(323.03 216.56)"><path d="m0 0c-5.828-4.769-14.292-4.769-20.12 0l10.06 10.06z" fill="#ffd24f" fill-rule="evenodd"/></g><g transform="translate(325.39 218.92)"><path d="m0 0c4.768 5.828 4.768 14.292 0 20.12l-10.061-10.06z" fill="#ffd24f" fill-rule="evenodd"/></g><g transform="translate(304.44 230.28)"><path d="m0 0c0-0.492-0.374-0.818-0.96-0.818h-1.897v1.661h1.897c0.586 0 0.96-0.327 0.96-0.843m1.333-4.632-1.216 2.854c0.679 0.374 1.075 1.03 1.075 1.778 0 0.749-0.396 1.404-1.027 1.755-0.352 0.211-0.657 0.282-1.149 0.282h-3.065v-6.669h1.192v2.62h1.78l1.077-2.62z" fill-rule="evenodd"/></g><g transform="translate(325.07 230.28)"><path d="m0 0c0-0.492-0.375-0.818-0.961-0.818h-1.894v1.661h1.894c0.586 0 0.961-0.327 0.961-0.843m1.334-4.632-1.217 2.854c0.679 0.374 1.077 1.03 1.077 1.778 0 0.749-0.398 1.404-1.03 1.755-0.351 0.211-0.655 0.282-1.147 0.282h-3.066v-6.669h1.194v2.62h1.778l1.077-2.62z" fill-rule="evenodd"/></g><g transform="translate(147.08 272.83)"><path d="m0 0 42.133-17.067c2.48-0.892 2.448-4.573-0.066-5.396l-42.212-17.05c-1.853-0.777-3.968 0.624-3.968 2.631v34.319c0 2.076 2.245 3.469 4.113 2.563" fill="#ffd24f" stroke="#000" stroke-width=".25"/></g><g transform="translate(188.95 255.1)"><path d="m0 0c1.854-0.717 1.878-3.43-0.058-4.064l-42.259-17.069c-1.408-0.561-2.941 0.492-2.955 1.99l3e-3 34.42c0.117 1.496 1.67 2.463 3.058 1.825l42.211-17.102" fill-rule="evenodd"/></g><g transform="translate(188.69 253.91)"><path d="m0 0c0.738-0.427 0.597-1.528-0.219-1.767l-42.284-17.081c-0.654-0.257-1.304 0.229-1.322 0.905l2e-3 34.344c0.042 0.717 0.825 1.099 1.442 0.773l42.288-17.129c0.03-0.015 0.061-0.029 0.093-0.045" fill="#ffd24f" fill-rule="evenodd"/></g><g transform="translate(154.31 262.88)"><path d="m0 0c0-0.687-0.042-1.042-0.188-1.522-0.146-0.5-0.375-0.728-0.729-0.728-0.376 0-0.604 0.228-0.751 0.728-0.125 0.48-0.187 0.856-0.187 1.501 0 0.667 0.041 1.064 0.187 1.523 0.147 0.5 0.375 0.729 0.751 0.729 0.354 0 0.583-0.229 0.729-0.751 0.126-0.437 0.188-0.812 0.188-1.48m0.814 0c0 0.896-0.085 1.46-0.334 2.044-0.292 0.729-0.709 1.021-1.397 1.021s-1.105-0.292-1.418-1.001c-0.25-0.562-0.334-1.168-0.334-2.064 0-0.916 0.084-1.481 0.334-2.064 0.292-0.709 0.708-1.024 1.418-1.024 0.667 0 1.105 0.315 1.397 1.024 0.249 0.564 0.334 1.148 0.334 2.064m-4.65-2.981v5.942h-0.855v-3.566l-1.625 3.566h-0.856v-5.942h0.856v3.983l1.834-3.983z" fill-rule="evenodd"/></g><g transform="translate(173.45 253.24)"><path d="m0 0v1.231h-1.521v-0.834h0.667v-0.397c0-0.625-0.208-0.918-0.647-0.918-0.459 0-0.751 0.315-0.875 0.897-0.084 0.459-0.125 0.98-0.125 1.481 0 0.708 0.104 1.376 0.271 1.667 0.145 0.292 0.375 0.439 0.667 0.439 0.417 0 0.688-0.271 0.709-0.668h0.854c-0.042 0.876-0.687 1.501-1.543 1.501-0.687 0-1.292-0.458-1.5-1.083-0.209-0.563-0.272-1.169-0.272-2.002 0-0.772 0.126-1.606 0.313-2.044 0.291-0.666 0.813-1.025 1.522-1.025 0.605 0 1.084 0.317 1.313 0.837 0.125 0.251 0.167 0.502 0.167 0.918m-4.481-1.646v5.941h-0.856v-3.565l-1.626 3.565h-0.855v-5.941h0.855v3.981l1.834-3.981zm-4.629 5.941h-0.834v-5.941h0.834zm-1.834-4.316c0 0.855-0.501 1.502-1.648 2.168-0.438 0.25-0.563 0.418-0.563 0.71 0 0.395 0.312 0.688 0.709 0.688 0.375 0 0.667-0.271 0.687-0.688h0.815c-0.022 0.895-0.668 1.542-1.502 1.542-0.855 0-1.522-0.688-1.522-1.542 0-0.522 0.25-0.98 0.73-1.314 1.209-0.813 0.876-0.584 1.001-0.709 0.354-0.271 0.478-0.521 0.478-0.855 0-0.48-0.375-0.897-0.833-0.897-0.584 0-0.834 0.522-0.834 1.024h-0.834c0-0.982 0.626-1.861 1.668-1.861 0.917 0 1.648 0.776 1.648 1.734m-4.025 0c0 0.855-0.5 1.502-1.647 2.168-0.437 0.25-0.563 0.418-0.563 0.71 0 0.395 0.314 0.688 0.709 0.688 0.375 0 0.667-0.271 0.688-0.688h0.813c-0.021 0.895-0.667 1.542-1.501 1.542-0.855 0-1.522-0.688-1.522-1.542 0-0.522 0.251-0.98 0.729-1.314 1.209-0.813 0.876-0.584 1.001-0.709 0.355-0.271 0.48-0.521 0.48-0.855 0-0.48-0.375-0.897-0.834-0.897-0.583 0-0.833 0.522-0.833 1.024h-0.835c0-0.982 0.625-1.861 1.668-1.861 0.917 0 1.647 0.776 1.647 1.734m-5.315 0.835h-0.856l0.417 1.709zm1.479-2.46-1.479 5.941h-0.835l-1.48-5.941h0.855l0.395 1.625h1.273l0.416-1.625zm-4.983 4.273c0-0.541-0.271-0.855-0.771-0.855h-0.876v1.689h0.876c0.458 0 0.771-0.334 0.771-0.834m0.835 0c0 1-0.626 1.668-1.565 1.668h-1.771v-5.941h0.854v2.605h0.917c1.002 0 1.565 0.584 1.565 1.668" fill-rule="evenodd"/></g><g transform="translate(163.06 243.24)"><path d="m0 0v0.834h-2.169v1.96h1.23v0.814h-1.23v1.501h1.939v0.833h-2.793v-5.942zm-4.093 0v5.942h-0.855v-3.565l-1.626 3.565h-0.855v-5.942h0.855v3.983l1.835-3.983zm-5.135 2.982c0-0.688-0.042-1.042-0.187-1.523-0.146-0.499-0.375-0.728-0.731-0.728-0.375 0-0.603 0.229-0.75 0.728-0.124 0.481-0.187 0.856-0.187 1.502 0 0.666 0.042 1.063 0.187 1.522 0.147 0.5 0.375 0.73 0.75 0.73 0.356 0 0.585-0.23 0.731-0.75 0.125-0.439 0.187-0.814 0.187-1.481m0.814 0c0 0.896-0.084 1.46-0.334 2.043-0.292 0.729-0.709 1.021-1.398 1.021-0.687 0-1.104-0.292-1.417-1.001-0.25-0.562-0.333-1.167-0.333-2.063 0-0.918 0.083-1.48 0.333-2.064 0.292-0.709 0.709-1.025 1.417-1.025 0.668 0 1.106 0.316 1.398 1.025 0.25 0.563 0.334 1.146 0.334 2.064m-4.175-2.982v0.813h-2.398l2.398 4.608v0.542h-3.044v-0.834h1.981l-2.211-4.211v-0.918z" fill-rule="evenodd"/></g><g transform="translate(202.52 284.32)"><path d="m0 0v2.87h-3v2.035h-7.819v-2.035h-3v-2.87h6.909z"/></g><g transform="translate(296.55 306.61)"><path d="m0 0v2.87h-3.001v2.035h-7.818v-2.035h-3v-2.87h6.91z"/></g><g transform="translate(301.09 590.13)"><path d="m0 0 1.43 2.496-107.69 62.046-1.473-2.561z" fill-rule="evenodd"/></g><g transform="translate(188.97 644.49)"><path d="m0 0-1.445-2.501 107.7-62.043 1.425 2.496z" fill-rule="evenodd"/></g></g><text transform="matrix(1 0 0 -1 374.13 449.15)" fill="#000000" font-family="Helvetica" font-size="9px"><tspan x="0 7.0019999 12.006 14.508 22.004999 27.009001 29.007 31.509001 33.507 36.504002 38.501999 43.506001 48.509998 53.514 56.015999 59.013 64.016998 69.021004 74.025002 78.300003 80.802002 83.304001 85.806 90.809998 95.814003 98.316002 100.818 103.815 108.819 113.823 118.323 122.508 127.512 130.509 135.009 140.013 142.515 147.519 152.52299 157.52699 162.53101" y="0">On multi-lane roads, the transverse bands</tspan><tspan x="-0.0089999996 4.4910002 9.4949999 14.499 19.503 21.500999 26.504999 29.007 33.741001 38.241001 40.743 45.747002 50.750999 55.755001 58.257 63.261002 67.761002 70.758003 75.762001 80.262001 84.762001 87.264 92.267998 94.265999 96.264 98.765999 103.77 108.774 113.778 116.775 121.779 126.783 131.283 136.287 138.789 140.787 145.791 150.795 155.799 160.164 162.666" y="9.5039997">should extend across all approach lanes, </tspan><tspan x="-0.0089999996 4.9949999 9.9989996 15.003 17.504999 19.503 24.507 29.511 31.509001 36.008999 38.007 43.011002 48.014999 53.019001 55.016998 57.519001 64.016998 70.019997 76.517998 79.019997 83.519997 88.019997 95.516998 100.521 105.525 107.523 112.023 114.525 119.025 124.029 129.033 134.037 136.035 141.039 143.541 148.545 153.549 156.05099 161.05499 165.55499 170.55901 175.563" y="19.007999">and individual RXR symbols should be used </tspan><tspan x="-0.0089999996 1.989 6.993 9.4949999 14.499 19.503 24.003 29.007 31.509001 36.513 41.516998 46.521 49.518002 54.521999 59.526001 64.026001 69.029999 71.531998 73.529999 78.533997 83.538002 88.406998" y="28.511999">in each approach lane.</tspan><tspan x="-0.0089999996 6.4889998 11.493 13.995 18.999001 21.051001 25.038 27.540001 32.543999 35.046001 40.049999 45.054001 47.556 52.560001 55.062 57.293999 62.298 65.654999 68.156998 70.658997 73.161003 78.165001 80.667 85.167 87.165001 94.662003 99.666 101.664 103.662 106.164 110.664 113.166 115.668 120.672 125.676" y="199.51199">Note: In an effort to simplify the </tspan><tspan x="25.038 27.540001 29.538 34.542 39.546001 42.542999 47.547001 50.049 52.550999 57.555 60.056999 64.556999 69.560997 74.43 80.928001 83.43 89.792999 94.796997 98.018997 103.023 105.021 110.025 115.029 117.531 122.031 124.029 129.033" y="209.01601">figure to show warning sign</tspan><tspan x="-0.0089999996 25.038 30.042 35.046001 40.049999 42.551998 47.556 52.380001 56.654999 61.659 69.155998 74.160004 79.164001 81.666 84.167999 91.665001 96.668999 99.801003 104.301 106.299 111.303 116.307" y="218.52"> and pavement marking </tspan><tspan x="25.038 30.042 32.040001 37.043999 41.543999 46.548 54.044998 59.049 64.053001 66.555 69.056999 71.558998 76.563004 81.567001 84.069 86.570999 91.574997 93.572998 95.570999 98.072998 101.07 106.074 111.078 116.082 118.08 121.077 126.081 131.08501 133.58701 136.089 139.086 144.09 146.592 149.09399 151.092" y="228.024">placement, not all required traffic</tspan><tspan x="-0.0089999996 25.038 29.538 34.542 39.546001 42.048 45.044998 50.049 52.047001 54.549 59.553001 64.287003 68.787003 70.785004 75.285004 80.289001 84.789001 87.291 92.294998 95.292 100.296 102.798 107.298 112.302 117.171 123.669 128.673" y="237.528"> control devices are shown.</tspan></text><g clip-path="url(#m)"><g transform="translate(410.99 683.02)"><path d="m0 0h6.354v1.559l4.377-2.577-4.377-2.398v1.439h-6.354z"/></g><g transform="translate(432.47 691.54)"><path d="m0 0h29.292" fill="none" stroke="#000" stroke-width=".75"/></g></g><text transform="matrix(1 0 0 -1 432 694.49)" fill="#000000" font-family="Helvetica" font-size="9px"><tspan x="0 5.0040002 10.008 15.012 20.016001 25.02" y="0">Legend</tspan><tspan x="-7.2449999 -0.74699998 1.251 4.2480001 9.2519999 13.752 16.254 18.252001 23.256001 28.26 30.761999 35.765999 38.268002 40.77 43.271999 46.179001 51.002998 55.278 60.282001" y="15.354">Direction of travel</tspan><tspan x="-6.4349999 -2.934 -0.792 7.704 12.708 17.712 22.716 25.218 30.222 34.722 39.726002 44.73 47.231998 49.734001 54.737999 57.240002 62.243999 67.248001 70.605003 73.107002 75.105003 80.109001 85.112999 87.614998 92.619003 95.121002 97.623001 100.125 105.129" y="311.08499">* When used, a portion of the</tspan></text><text transform="matrix(1 0 0 -1 430.75 373.9)" fill="#000000" font-family="Helvetica" font-size="9px"><tspan x="0 5.0040002 9.8280001 14.103 19.107 26.604 31.608 36.612 39.113998 41.616001 49.112999 54.117001 57.249001 61.749001 63.747002 68.750999 73.754997 76.257004 80.757004 85.257004 92.753998 97.758003 102.762" y="0">pavement marking symbol</tspan><tspan x="-5.184 0 4.5 9.5039997 14.508 19.511999 21.51 26.514 29.016001 34.02 39.023998 41.526001 46.529999 48.528 51.525002 56.528999 61.028999 63.530998 65.528999 70.028999 72.530998 77.535004 82.539001 87.542999 92.546997 97.046997 99.044998 101.547 106.551 109.053 111.555 116.559" y="9.5039997"> should be directly opposite the</tspan><tspan x="-5.184 0 6.0029998 11.007 15.282 20.285999 25.290001 29.790001 34.793999 36.936001 45.071999 50.076 53.298 58.301998 60.299999 65.304001 70.307999 72.809998 78.813004 80.810997 85.815002 90.819 93.320999 96.318001 104.814 109.818 114.822 117.819 122.823 125.82" y="19.007999"> Advance Warning Sign (W10-1).</tspan><tspan x="-5.184 0 2.5020001 5.0040002 7.506 12.51 17.514 22.518 27.521999 32.526001 37.529999 40.032001 42.534 47.034 52.037998 57.042 62.046001 64.043999 69.047997 76.544998 81.549004 86.553001 89.055 94.058998" y="28.511999"> If needed, supplemental</tspan><tspan x="-5.184 0 5.0040002 9.8280001 14.103 19.107 26.604 31.608 36.612 39.113998 41.616001 49.112999 54.117001 57.249001 61.749001 63.747002 68.750999 73.754997 76.257004 80.757004 85.257004 92.753998 97.758003 102.762 104.76 107.757 112.257" y="38.015999"> pavement marking symbol(s)</tspan><tspan x="-5.184 0 7.4970002 12.231 16.731001 19.233 24.237 29.240999 31.743 36.747002 38.744999 43.749001 48.249001 53.252998 58.257 60.758999 65.763 70.766998 73.268997 79.766998 84.771004 89.775002 94.778999 97.280998 99.782997 104.787" y="47.52"> may be placed between the</tspan><tspan x="-5.184 0 6.0029998 11.007 15.282 20.285999 25.290001 29.790001 34.793999 36.936001 45.071999 50.076 53.298 58.301998 60.299999 65.304001 70.307999 72.809998 78.813004 80.810997 85.815002 90.819 93.320999 98.324997 103.329 108.333 110.835 113.337 118.341 123.345" y="57.023998"> Advance Warning Sign and the </tspan><tspan x="0 5.0040002 8.0010004 13.005 18.009001 23.013 25.514999 30.014999 33.012001 38.015999 42.515999 47.015999 49.014 54.018002 59.021999 61.523998 64.026001 69.029999 74.033997 76.536003 79.038002 83.538002 88.542 93.545998 98.550003 100.548 105.552 108.054 113.058 118.062" y="66.528">grade crossing, but should be </tspan><tspan x="0 5.0040002 7.506 10.008 12.006 17.01 22.014 26.514 29.016001 31.518 36.521999 41.526001 44.028 46.259998 51.264 56.268002 58.77 61.271999 63.773998 66.771004 71.775002 79.272003 81.774002 84.276001 89.279999 94.283997 96.786003 101.286 103.788 108.792 113.796" y="76.031998">at least 50 feet from the stop </tspan><tspan x="0 5.0040002 8.0010004 10.503 15.003 17.000999 22.004999 24.003 29.007 31.509001 33.507 35.505001 40.508999 45.377998" y="85.536003">or yield line.</tspan><tspan x="-122.256 -117.252 -112.248 -109.746 -107.244" y="2.8800001">50 ft</tspan><tspan x="-128.655 -123.651 -118.647 -113.643 -110.646 -105.912 -101.412 -99.449997 -96.947998 -91.944 -86.940002 -84.438004 -81.935997" y="-191.439">approx. 15 ft</tspan><tspan x="-138.006 -131.508 -127.008 -122.004 -117 -109.503 -107.505" y="-291.978">Dynamic</tspan><tspan x="-138.006 -133.002 -128.17799 -123.903 -118.899 -116.901 -111.897 -106.893" y="-282.474">envelope</tspan><tspan x="-138.006 -133.002 -128.17799 -123.903 -118.899 -111.402 -106.398 -101.394" y="-272.97">pavement</tspan><tspan x="-138.006 -130.509 -125.505 -122.373 -117.873 -115.875 -110.871" y="-263.466">marking</tspan><tspan x="-138.006 -135.009 -130.005 -125.001 -122.499 -120.501 -115.497 -110.493 -105.489 -103.491" y="-253.96201">(optional)</tspan><tspan x="-57.348 -51.345001 -48.842999 -46.341 -41.337002 -38.34 -33.335999 -28.332001 -25.334999 -23.337 -18.333 -13.329 -8.3249998 -5.823 -2.826 2.178 7.1820002 12.186 18.549 23.283001 27.783001 30.285 34.785 39.789001 44.792999 49.797001 51.794998 56.799 59.300999 64.305 69.308998 71.810997 79.307999 84.311996 87.444 91.764 96.767998 101.772 104.274 110.772 112.77 115.272 120.276 122.778" y="-275.328">A three-lane roadway should be marked with a</tspan><tspan x="-57.348 -52.848 -47.844002 -42.84 -40.338001 -35.334 -32.337002 -29.834999 -27.837 -25.839001 -20.834999 -15.831 -13.329 -11.097 -6.0929999 -3.096 -0.59399998 1.908 8.4060001 13.41 16.407 18.405001 23.409 28.413 33.417 35.918999 40.923 45.926998 50.931 53.928001 58.931999 63.936001 68.435997 73.440002 75.942001 80.945999 85.949997 90.954002 93.950996 98.955002 101.457 103.455 108.459 113.463 115.965 120.969" y="-265.82401">center line for two-lane approach operation on</tspan><tspan x="-57.348 -54.846001 -49.841999 -44.838001 -42.335999 -37.332001 -32.327999 -27.323999 -24.327 -19.323 -14.319 -9.8190002 -4.8150001 -2.313 0.189 5.1929998 7.6950002 12.699 15.201 20.205 23.202 28.205999 33.209999 38.214001 40.716 45.216 48.213001 53.216999 57.716999 62.216999 64.214996 69.219002 74.223" y="-256.32001">the approach to a grade crossing.</tspan><tspan x="-98.918999 -92.916 -90.414001 -85.410004 -80.405998 -77.903999 -75.905998 -73.907997 -68.903999 -63.900002 -61.397999 -56.394001 -51.389999 -46.386002 -43.389 -38.654999 -34.154999 -32.157001 -24.66 -19.656 -17.153999 -12.15 -10.152 -5.652 -3.1500001 1.854 4.3559999 6.8579998 9.3599997" y="-131.69701">Stop line approximately 8 ft </tspan><tspan x="-98.918999 -93.915001 -88.911003 -84.411003 -81.908997 -78.912003 -73.907997 -68.903999 -61.407001 -58.904999 -56.403 -53.405998 -48.402 -40.904999 -38.403 -33.398998 -28.395 -25.893 -20.889 -18.386999 -15.39 -13.392 -10.89 -8.3879995 -3.3840001 -0.38699999 4.6170001 9.1169996 14.121 19.125 21.627001" y="-122.193">upstream from gate (if present)</tspan><tspan x="-341.802 -335.30399 -330.80399 -325.79999 -320.79599 -313.29901 -311.30099 -306.80099 -304.29901 -299.29501 -294.47101 -290.19601 -285.19199 -283.194 -278.19 -273.186" y="-294.966">Dynamic envelope</tspan><tspan x="-338.202 -335.20499 -330.70499 -325.70099 -320.69699 -318.19501 -312.69601 -310.698 -305.694 -300.69 -297.69299 -292.689 -290.18701 -285.18301 -279.17999 -276.18301 -271.17899" y="-285.46201">(see Figure 8B-8)</tspan><tspan x="-213.597 -208.593" y="-177.16499">24</tspan><tspan x="-221.59801 -219.60001 -214.59599 -210.09599 -205.092 -200.088" y="-167.661">inches</tspan><tspan x="-284.25601 -281.259 -276.255 -271.25101 -268.74899 -266.75101 -261.74701 -256.74301 -251.739 -249.741" y="149.274">(optional)</tspan></text><g clip-path="url(#l)"><g transform="translate(290.59 646.43)"><path d="m0 0-19.397-17.043" fill="none" stroke="#000" stroke-width=".75"/></g><g transform="translate(269.94 627.61)"><path d="m0 0c0.825 0.376 1.408 0.567 2.116 0.817l-1.748 1.99c-0.11-0.254-0.604-1.224-1.082-1.994-0.513-0.824-1.019-1.524-1.384-1.936 0.455 0.309 1.215 0.721 2.098 1.123"/></g><g transform="translate(235.93 270.6)"><path d="m0 0h8.41" fill="#fff" stroke="#000" stroke-width=".75"/></g><g transform="translate(244.34 265.32)"><path d="m0 0h-8.41" fill="#fff" stroke="#000" stroke-width=".75"/></g></g><text transform="matrix(1 0 0 -1 217.16 275.06)" fill="#000000" font-family="Helvetica" font-size="9px"><tspan x="0 5.0040002" y="0">24</tspan><tspan x="-8.0010004 -6.0029998 -0.99900001 3.5009999 8.5050001 13.509" y="9.5039997">inches</tspan></text><g clip-path="url(#k)"><g transform="translate(237.24 257.45)"><path d="m0 0v3.741" fill="none" stroke="#000" stroke-width=".75"/></g><g transform="translate(236.71 262.43)"><path d="m0 0c-0.263-0.867-0.504-1.432-0.783-2.128h2.648c-0.119 0.249-0.521 1.261-0.783 2.128-0.281 0.929-0.473 1.771-0.541 2.318-0.068-0.547-0.261-1.389-0.541-2.318"/></g><g transform="translate(237.24 278.06)"><path d="m0 0v-3.711" fill="none" stroke="#000" stroke-width=".75"/></g><g transform="translate(237.78 273.11)"><path d="m0 0c0.262 0.868 0.504 1.433 0.783 2.129h-2.648c0.118-0.249 0.521-1.261 0.783-2.129 0.281-0.928 0.473-1.77 0.541-2.317 0.069 0.547 0.261 1.389 0.541 2.317"/></g><g transform="translate(313.7 589.01)"><path d="m0 0h-33.489" fill="none" stroke="#fff" stroke-width="2"/></g><g transform="translate(309.7 589.01)"><path d="m0 0h-29.489" fill="none" stroke="#000" stroke-width=".75"/></g><g transform="translate(236.15 546.69)"><path d="m0 0h11.252" fill="#fff" stroke="#000" stroke-width=".75"/></g><g transform="translate(247.4 541.41)"><path d="m0 0h-11.252" fill="#fff" stroke="#000" stroke-width=".75"/></g></g><text transform="matrix(1 0 0 -1 299.77 453.06)" fill="#000000" font-family="Helvetica" font-size="9px"><tspan x="0 6.0029998 11.007" y="0">See</tspan><tspan x="0 6.4980001 11.502 16.506001 21.51 24.011999 29.016001 32.013 34.514999 39.519001 45.747002" y="9.5039997">Chapter 2C,</tspan><tspan x="0 4.4190001 9.4230003 14.247 16.245001 21.249001 23.750999 28.754999 35.252998 38.25" y="19.007999">Table 2C-4</tspan></text><g clip-path="url(#j)"><g transform="translate(105.15 453.84)"><path d="m0 0 20.629 20.631c0.389 0.386 0.614 0.923 0.614 1.472 0 0.548-0.225 1.085-0.614 1.473l-20.629 20.631c-0.39 0.388-0.923 0.611-1.475 0.61-0.547-3e-3 -1.084-0.223-1.472-0.61l-20.629-20.631c-0.387-0.385-0.61-0.927-0.61-1.473 0-0.545 0.223-1.087 0.61-1.472l20.629-20.631c0.501-0.5 1.253-0.713 1.942-0.561 0.398 0.091 0.692 0.31 1.005 0.561" fill="#ffd24f"/></g></g><g clip-path="url(#i)"><g transform="translate(105.15 453.84)"><path d="m0 0 20.629 20.631c0.389 0.386 0.614 0.923 0.614 1.472 0 0.548-0.225 1.085-0.614 1.473l-20.629 20.631c-0.39 0.388-0.923 0.611-1.475 0.61-0.547-3e-3 -1.084-0.223-1.472-0.61l-20.629-20.631c-0.387-0.385-0.61-0.927-0.61-1.473 0-0.545 0.223-1.087 0.61-1.472l20.629-20.631c0.501-0.5 1.253-0.713 1.942-0.561 0.398 0.091 0.692 0.31 1.005 0.561z" fill="none" stroke="#000" stroke-width=".25"/></g></g><g clip-path="url(#h)"><g transform="translate(102.61 454.25)"><path d="m0 0-20.629 20.629c-0.28 0.281-0.439 0.666-0.439 1.061 0 0.396 0.159 0.78 0.439 1.06l20.629 20.633c0.278 0.278 0.668 0.435 1.062 0.435 0.391 0 0.781-0.157 1.059-0.435l20.634-20.633c0.276-0.278 0.435-0.667 0.435-1.06s-0.159-0.782-0.435-1.061l-20.634-20.629c-0.281-0.28-0.665-0.439-1.059-0.439-0.397 0-0.782 0.159-1.062 0.439" fill-rule="evenodd"/></g><g transform="translate(103.19 454.83)"><path d="m0 0c0.126-0.128 0.308-0.202 0.485-0.202 0.175 0 0.361 0.074 0.486 0.202l20.63 20.63c0.125 0.126 0.199 0.307 0.199 0.484 0 0.176-0.074 0.361-0.199 0.487l-20.63 20.63c-0.128 0.126-0.308 0.196-0.486 0.196-0.179-2e-3 -0.357-0.07-0.485-0.196l-20.632-20.63c-0.126-0.126-0.199-0.311-0.199-0.487 0-0.177 0.073-0.358 0.199-0.484z" fill="#ffd24f" fill-rule="evenodd"/></g><g transform="translate(94.882 473.47)"><path d="m0 0 5.152 5.154h7.287l5.158-5.154v-7.29l-5.158-5.154h-7.287l-5.152 5.154z" fill="#fff" fill-rule="evenodd"/></g><g transform="translate(95.309 473.29)"><path d="m0 0v-6.932l4.909-4.903h6.924l4.901 4.903v6.932l-4.901 4.901h-6.924z" fill="#c41230" fill-rule="evenodd"/></g><g transform="translate(106.42 482.92)"><path d="m0 0-5.547-6e-3 -0.014 5.147-4.877-1.024c-0.158-0.034-0.222-0.052-0.275-0.052-0.327 1e-3 -0.628 0.316-0.628 0.644 0 0.13-0.01 0.229 0.146 0.367l8.404 7.48 8.383-7.494c0.133-0.121 0.144-0.238 0.144-0.368-1e-3 -0.342-0.302-0.642-0.643-0.641-0.053 0-0.063 0.011-0.184 0.04l-4.923 1.116z" fill-rule="evenodd"/></g></g><text transform="matrix(1 0 0 -1 82.166 440.27)" fill="#000000" font-family="Helvetica" font-size="9px"><tspan x="0 2.997 4.9949999 7.4970002 9.9989996 15.003 20.007 25.011 30.014999 35.019001 40.022999" y="0">(if needed)</tspan></text><g clip-path="url(#g)"><g transform="translate(172.96 453.84)"><path d="m0 0 20.628 20.631c0.39 0.387 0.615 0.923 0.615 1.472s-0.225 1.085-0.615 1.473l-20.628 20.631c-0.39 0.389-0.923 0.611-1.475 0.609-0.548-1e-3 -1.085-0.222-1.472-0.609l-20.629-20.631c-0.387-0.385-0.61-0.927-0.61-1.473 0-0.545 0.223-1.088 0.61-1.472l20.629-20.631c0.5-0.5 1.253-0.713 1.942-0.56 0.398 0.089 0.692 0.309 1.005 0.56" fill="#ffd24f"/><path d="m0 0 20.628 20.631c0.39 0.387 0.615 0.923 0.615 1.472s-0.225 1.085-0.615 1.473l-20.628 20.631c-0.39 0.389-0.923 0.611-1.475 0.609-0.548-1e-3 -1.085-0.222-1.472-0.609l-20.629-20.631c-0.387-0.385-0.61-0.927-0.61-1.473 0-0.545 0.223-1.088 0.61-1.472l20.629-20.631c0.5-0.5 1.253-0.713 1.942-0.56 0.398 0.089 0.692 0.309 1.005 0.56z" fill="none" stroke="#000" stroke-width=".25"/></g><g transform="translate(170.43 454.25)"><path d="m0 0-20.63 20.63c-0.279 0.281-0.438 0.664-0.438 1.06s0.159 0.78 0.438 1.06l20.63 20.634c0.277 0.277 0.667 0.435 1.061 0.435 0.392 0 0.782-0.158 1.059-0.435l20.635-20.634c0.275-0.278 0.434-0.667 0.434-1.06s-0.159-0.781-0.434-1.06l-20.635-20.63c-0.281-0.28-0.664-0.438-1.059-0.438-0.396 0-0.781 0.158-1.061 0.438" fill-rule="evenodd"/></g><g transform="translate(171 454.83)"><path d="m0 0c0.126-0.127 0.307-0.201 0.484-0.201 0.175 0 0.361 0.074 0.487 0.201l20.63 20.631c0.126 0.126 0.199 0.306 0.199 0.483 0 0.176-0.073 0.362-0.199 0.487l-20.63 20.63c-0.128 0.126-0.308 0.196-0.487 0.196-0.178-1e-3 -0.356-0.07-0.484-0.196l-20.632-20.63c-0.126-0.125-0.2-0.311-0.2-0.487 0-0.177 0.074-0.357 0.2-0.483z" fill="#ffd24f" fill-rule="evenodd"/></g><g transform="translate(174.24 482.92)"><path d="m0 0-5.547-6e-3 -0.014 5.148-4.878-1.025c-0.158-0.033-0.222-0.052-0.274-0.052-0.328 1e-3 -0.629 0.316-0.628 0.644 0 0.131-0.011 0.228 0.145 0.367l8.406 7.48 8.382-7.495c0.134-0.119 0.144-0.236 0.144-0.368-2e-3 -0.34-0.303-0.64-0.643-0.64-0.053 0-0.063 0.011-0.184 0.039l-4.923 1.117z" fill-rule="evenodd"/></g><g transform="translate(172.67 458.92)"><path d="m0 0c-0.226-0.382-0.67-0.611-1.108-0.612-0.431-2e-3 -0.885 0.222-1.108 0.602l-10.718 18.202c-0.11 0.188-0.186 0.378-0.201 0.595-0.032 0.465 0.189 0.921 0.578 1.18 0.229 0.152 0.453 0.193 0.717 0.212v3e-3 -3e-3h21.443c0.597 0 1.157-0.428 1.266-1.024 0.056-0.3 0.048-0.619-0.109-0.889z" fill="#fff" fill-rule="evenodd"/></g><g transform="translate(172.2 459.2)"><path d="m0 0 10.757 18.264c0.079 0.136 0.089 0.329 0.06 0.479-0.067 0.353-0.384 0.616-0.744 0.616h-21.443c-0.359 0-0.674-0.261-0.745-0.613-0.039-0.202 0.021-0.384 0.121-0.554l10.718-18.204c0.15-0.255 0.489-0.377 0.772-0.323 0.224 0.043 0.377 0.153 0.504 0.335" fill="#c41230" fill-rule="evenodd"/></g><g transform="translate(166.51 475.09)"><path d="m0 0h10.069c0.142 0 0.285-0.065 0.383-0.164 0.122-0.121 0.175-0.294 0.155-0.464-0.011-0.092-0.037-0.139-0.081-0.215l-5.026-8.506c-0.095-0.161-0.272-0.262-0.459-0.265-0.197-2e-3 -0.384 0.109-0.482 0.277l-5.019 8.53c-0.041 0.07-0.063 0.152-0.068 0.233-0.014 0.188 0.075 0.381 0.233 0.487 0.091 0.06 0.188 0.08 0.295 0.087" fill="#fff" fill-rule="evenodd"/></g></g><text transform="matrix(1 0 0 -1 149.98 440.27)" fill="#000000" font-family="Helvetica" font-size="9px"><tspan x="0 2.997 4.9949999 7.4970002 9.9989996 15.003 20.007 25.011 30.014999 35.019001 40.022999" y="0">(if needed)</tspan></text><g clip-path="url(#f)"><g transform="translate(240.9 476.43)"><path d="m0 0v-269.3" fill="none" stroke="#ffd24f" stroke-dasharray="27.648, 82.944" stroke-width="2"/></g></g><g clip-path="url(#e)"><g transform="translate(235.93 402.74)"><path d="m0 0h8.41" fill="#fff" stroke="#000" stroke-width=".75"/></g><g transform="translate(244.34 397.45)"><path d="m0 0h-8.41" fill="#fff" stroke="#000" stroke-width=".75"/></g></g><text transform="matrix(1 0 0 -1 217.16 407.19)" fill="#000000" font-family="Helvetica" font-size="9px"><tspan x="0 5.0040002" y="0">24</tspan><tspan x="-8.0010004 -6.0029998 -0.99900001 3.5009999 8.5050001 13.509" y="9.5039997">inches</tspan></text><g clip-path="url(#d)"><g transform="translate(237.24 389.58)"><path d="m0 0v3.74" fill="none" stroke="#000" stroke-width=".75"/></g><g transform="translate(236.71 394.56)"><path d="m0 0c-0.263-0.868-0.504-1.432-0.783-2.128h2.648c-0.119 0.249-0.521 1.26-0.783 2.128-0.281 0.929-0.473 1.771-0.541 2.318-0.068-0.547-0.261-1.389-0.541-2.318"/></g><g transform="translate(237.24 410.2)"><path d="m0 0v-3.712" fill="none" stroke="#000" stroke-width=".75"/></g><g transform="translate(237.78 405.25)"><path d="m0 0c0.262 0.868 0.504 1.433 0.783 2.129h-2.648c0.118-0.25 0.521-1.261 0.783-2.129 0.281-0.929 0.473-1.771 0.541-2.317 0.069 0.546 0.261 1.388 0.541 2.317"/></g></g><text transform="matrix(1 0 0 -1 130.83 471.86)" fill="#000000" font-family="Helvetica" font-size="9px"><tspan x="0 7.0019999" y="0">OR</tspan><tspan x="259.61401 262.116 264.61801 267.12 269.62201 272.61899 277.62299 282.62701 287.12701 291.31201 296.31601 299.31299 303.81299 308.81699 311.319 313.31699 315.315 320.319 325.323 329.823 332.32501 337.32901 340.32599 345.32999 347.832 352.836 357.336 362.34 367.34399 369.84601 374.85001 377.35199 379.854 382.35599 387.35999 392.36401 394.866 399.87 402.867 407.871 412.875 417.879" y="-113.904">If transverse lines are used at the grade </tspan><tspan x="259.61401 264.11401 267.11099 272.11499 276.61499 281.11499 283.11301 288.117 293.121 295.62299 298.125 302.625 304.62299 309.62701 311.625 316.629 319.13101 321.129 323.12701 328.13101 333.13501 337.63501 340.13699 347.634 352.36801 356.86801 359.37 364.37399 369.37799 371.88 376.884 381.384 386.388 391.392 393.89401 395.892 400.896 405.396 407.89801 412.90201 417.90601 422.91" y="-104.4">crossing, yield lines may be used instead </tspan><tspan x="259.61401 264.61801 267.12 269.62201 274.12201 276.62399 281.62799 286.63199 289.134 291.13199 293.13 298.134 303.138 307.638 310.14001 312.138 314.64001 316.332 322.33499 324.83701 330.84 335.84399 342.34201 344.84399 349.34399 351.34201 356.34601 361.35001 365.85001 368.35199 373.35599 376.353 381.35699 383.85901 388.86301 393.36301 398.367 403.371 405.87299 410.87701 413.379" y="-94.896004">of stop lines if YIELD signs are used at </tspan><tspan x="259.61401 262.10699 267.10199 272.09698 274.59 279.58499 282.573 287.56799 292.56299 297.55801 300.05099 304.54199 307.53 312.52499 317.01599 321.50699 323.496 328.491 333.48599" y="-85.391998">the grade crossing.</tspan></text><g clip-path="url(#c)"><g transform="translate(309.29 249.83)"><path d="m0 0s-19.63 27.449-19.63 53.22" fill="none" stroke="#000" stroke-width=".75"/></g><g transform="translate(289.11 304.29)"><path d="m0 0c-0.255-0.871-0.493-1.437-0.766-2.136l2.647 0.021c-0.12 0.249-0.53 1.256-0.798 2.122-0.288 0.928-0.486 1.768-0.559 2.314-0.064-0.547-0.25-1.39-0.524-2.321"/></g><g transform="translate(184.29 461.33)"><path d="m0 0c29.68-29.679 105.37-29.553 105.37 26.717" fill="none" stroke="#000" stroke-width=".75"/></g><g transform="translate(289.11 489.28)"><path d="m0 0c-0.255-0.871-0.493-1.436-0.766-2.135l2.647 0.02c-0.12 0.249-0.53 1.256-0.798 2.122-0.288 0.928-0.486 1.769-0.559 2.315-0.064-0.547-0.25-1.391-0.524-2.322"/></g><g transform="translate(273.67 361.67)"><path d="m0 0-3.486 1.148-7.526-22.817-7.525 22.817-3.485-1.148 9.078-27.529-9.078-27.528 3.485-1.15 7.525 22.818 7.526-22.818 3.486 1.15-9.079 27.528z" fill="#fff" fill-rule="evenodd"/></g><g transform="translate(271.67 339.72)"><path d="m0 0c1.103 3e-3 1.336-1.056 1.337-2.62 2e-3 -1.565-0.273-2.634-1.337-2.648zm-0.654 2.652c1.803 0.266 2.65-1.859 2.647-5.272-3e-3 -2.278-0.132-3.781-0.723-4.59l0.716-6.632h-0.65l-0.591 6.158c-0.212-0.119-0.458-0.196-0.745-0.231 0-1.974-5e-3 -3.953-5e-3 -5.927h-0.649z" fill="#fff" fill-rule="evenodd"/></g><g transform="translate(252.3 339.72)"><path d="m0 0c1.102 3e-3 1.336-1.056 1.337-2.62 1e-3 -1.565-0.273-2.634-1.337-2.648zm-0.654 2.652c1.802 0.266 2.65-1.859 2.646-5.272-2e-3 -2.278-0.131-3.781-0.722-4.59l0.716-6.632h-0.65l-0.591 6.158c-0.212-0.119-0.458-0.196-0.745-0.231 0-1.974-6e-3 -3.953-6e-3 -5.927h-0.648z" fill="#fff" fill-rule="evenodd"/></g><path d="m279.67 265.32h-33.533v5.506h33.533z" fill="#fff" fill-rule="evenodd"/><path d="m279.67 397.45h-33.533v5.506h33.533z" fill="#fff" fill-rule="evenodd"/></g><g clip-path="url(#b)"><g transform="translate(279.95 701.83)"><path d="m0 0-0.44-494.71" fill="none" stroke="#000"/></g></g><g clip-path="url(#a)"><g transform="translate(197.19 528.06)"><path d="m0 0 29.568-11.338 20.563 9.304 45.313-18.144-1.061-8.764-45.313 18.145-20.566-9.305-29.567 11.336z" fill="#fff"/><path d="m0 0 29.568-11.338 20.563 9.304 45.313-18.144-1.061-8.764-45.313 18.145-20.566-9.305-29.567 11.336z" fill="none" stroke="#000"/></g><g transform="translate(291.58 513.19)"><path d="m0 0 8.014-2.963-6.492-14.634-8.017 2.965z" fill="#fff"/></g><g transform="translate(202.02 528.71)"><path d="m0 0-16.03 5.928-6.854-15.446 16.03-5.929z" fill="#fff"/></g><g transform="translate(296.55 491.6)"><path d="m0 0v2.87h-3.001v2.034h-7.818v-2.034h-3v-2.87h6.91z"/></g><g transform="translate(304.36 563.81)"><path d="m0 0v-13.189" fill="none" stroke="#000" stroke-width=".75"/></g><g transform="translate(304.9 549.38)"><path d="m0 0c0.262 0.868 0.503 1.432 0.783 2.129h-2.649c0.118-0.25 0.521-1.261 0.784-2.129 0.28-0.929 0.472-1.771 0.541-2.318 0.068 0.547 0.26 1.389 0.541 2.318"/></g><g transform="translate(304.36 585.08)"><path d="m0 0v-13.468" fill="none" stroke="#000" stroke-width=".75"/></g><g transform="translate(303.82 586.32)"><path d="m0 0c-0.262-0.867-0.504-1.432-0.783-2.128h2.649c-0.119 0.249-0.522 1.261-0.784 2.128-0.28 0.93-0.472 1.772-0.541 2.318-0.068-0.546-0.26-1.388-0.541-2.318"/></g><g transform="translate(261.73 210.95)"><path d="m0 0v6.354h-1.559l2.576 4.377 2.399-4.377h-1.44v-6.354z"/></g><g transform="translate(224.63 221.68)"><path d="m0 0v-6.354h1.558l-2.576-4.377-2.398 4.377h1.439v6.354z"/></g></g></g></svg>
