<?xml version="1.0" encoding="UTF-8"?>
<svg width="609.38" height="489.02" version="1.1" viewBox="0 0 609.38 489.02" xml:space="preserve" xmlns="http://www.w3.org/2000/svg"><defs><clipPath id="g"><path d="m63.125 45h512.88v389h-512.88z"/></clipPath><clipPath id="f"><path d="m63.125 45h512.88v389h-512.88z"/></clipPath><clipPath id="e"><path d="m63.125 45h512.88v389h-512.88z"/></clipPath><clipPath id="d"><path d="m80.35 45h478.42v389h-478.42z"/></clipPath><clipPath id="c"><path d="m63.125 45h512.88v389h-512.88z"/></clipPath><clipPath id="b"><path d="m80.35 45h478.42v389h-478.42z"/></clipPath><clipPath id="a"><path d="m63.125 45h512.88v389h-512.88z"/></clipPath></defs><g transform="matrix(1.3333 0 0 -1.3333 -122.81 549.02)"><g transform="translate(466.49 391.32)"><path d="m0 0h6.354v1.559l4.377-2.577-4.377-2.398v1.439h-6.354z"/></g><g transform="translate(487.97 399.84)"><path d="m0 0h29.291" fill="none" stroke="#000" stroke-width=".75"/></g><text transform="matrix(1 0 0 -1 487.5 402.79)" fill="#000000" font-family="Helvetica" font-size="9px"><tspan x="0 5.0040002 10.008 15.012 20.016001 25.02" y="0">Legend</tspan><tspan x="-7.2449999 -0.74699998 1.251 4.2480001 9.2519999 13.752 16.254 18.252001 23.256001 28.26 30.761999 35.765999 38.268002 40.77 43.271999 46.179001 51.002998 55.278 60.282001" y="15.354">Direction of travel</tspan></text><g transform="translate(345.61 357.59)"><path d="m0 0-13.328-0.017-0.011 9.04 13.328 0.018zm0.022-17.611-13.328-0.021-0.012 8.733 13.332 0.012zm0.021-17.93-13.328-0.018-0.01 8.961 13.327 0.016zm0.024-17.86-13.326-0.017-0.012 8.862 13.326 0.016zm0.021-57.16-13.328-0.014-0.01 48.296 13.328 0.017zm0.022-17.721-13.326-0.018-0.014 8.861 13.33 0.017zm13.285 101.72-0.018 8.969-8.968-0.01-0.012 8.728 8.971 0.011-0.012 8.927-8.987-0.012 4e-3 8.997 8.977 0.011-0.018 8.948-8.988-0.011 8e-3 8.7-4.447-9e-3 0.011-8.694-13.244-0.019-0.011 8.694h-4.348l0.012-8.7-8.97-0.01 0.013-8.951 8.968 0.011 0.01-8.994-8.964-0.012 8e-3 -8.928 8.97 0.011 6e-3 -8.728-8.966-9e-3 0.012-8.971 8.967 9e-3 0.041-8.961-9-5e-3 0.012-8.998 9 0.011-0.018-8.89-8.97-0.012 0.01-8.833 9.001 6e-3 -0.017-48.315-8.972-0.011 8e-3 -8.84 9.001 0.01-0.02-8.878-8.968-9e-3 0.014-8.883 8.997 0.048-0.019-9.012 4.328 0.02-0.014 8.998 13.266 0.016 0.115-9.011 4.33 0.016 6e-3 8.962 8.969 0.012-0.014 8.881-8.984 7e-3 -0.012 8.862 8.992 0.01-0.011 8.864-8.993-0.013-9e-3 48.298 8.994 0.012-0.02 8.836-8.986 0.013-0.012 8.861 8.996 0.013-0.013 8.995-8.991-0.01 2e-3 8.961z" fill-rule="evenodd"/></g><g transform="translate(345.68 339.73)"><path d="m0 0-13.33-0.019-0.012 9.041 13.328 0.017zm0.019-17.613-13.328-0.018-0.01 8.731 13.33 0.013zm0.022-17.929-13.328-0.016-0.01 8.96 13.326 0.016zm0.023-57.159-13.326-0.016-0.014 48.162 13.328 0.016zm0.024-17.861-13.329-0.016-0.011 8.999 13.33 0.017zm0.021-17.721-13.326-0.017-0.012 8.86 13.328 0.018zm13.283 101.72-0.017 8.968-8.969-0.01-0.012 8.73 8.973 9e-3 -0.012 8.926-8.986-0.011 6e-3 8.997 8.974 0.011-0.017 8.949-8.987-0.014 6e-3 8.702-4.449-6e-3 0.012-8.696-13.244-0.022-0.012 8.696h-4.348l0.012-8.699-8.969-0.01 0.013-8.95 8.968 0.01 0.011-8.994-8.967-0.013 9e-3 -8.926 8.97 9e-3 6e-3 -8.728-8.965-8e-3 0.012-8.972 8.969 9e-3 0.037-8.96-8.998-5e-3 0.012-8.998 8.999 0.01-0.015-48.192-8.971-0.01 7e-3 -8.831 9.003 8e-3 -0.02-9.016-8.971-0.012 9e-3 -8.841 9.001 0.011-0.021-8.88-8.965-9e-3 0.011-8.882 8.997 0.047-0.018-9.011 4.328 0.019-0.011 8.996 13.263 0.018 0.114-9.009 4.332 0.016 4e-3 8.96 8.972 0.012-0.013 8.88-8.985 0.01-0.014 8.861 8.993 0.01-0.012 8.865-8.99-0.016-0.012 9 8.994 0.013-0.019 8.833-8.987 0.015-0.011 48.161 8.996 0.012-0.014 8.999-8.992-0.011 4e-3 8.958z" fill-rule="evenodd"/></g><path d="m459.78 246.2h-280.67v86.123h280.67z" fill="#b1b4b6"/><g transform="translate(367.11 390.76)"><path d="m0 0h-56.15" fill="none" stroke="#000" stroke-width=".75"/></g><g clip-path="url(#g)"><g transform="translate(309.72 390.22)"><path d="m0 0c0.868-0.262 1.433-0.504 2.129-0.783v2.648c-0.249-0.118-1.261-0.521-2.129-0.783-0.928-0.281-1.771-0.473-2.317-0.541 0.546-0.068 1.389-0.261 2.317-0.541"/></g><g transform="translate(368.35 391.3)"><path d="m0 0c-0.87 0.262-1.434 0.504-2.129 0.783v-2.648c0.248 0.118 1.259 0.521 2.129 0.783 0.927 0.281 1.771 0.473 2.316 0.541-0.545 0.068-1.389 0.261-2.316 0.541"/></g><g transform="translate(307.11 332.24)"><path d="m0 0v79.52m63.862-79.477v79.477" fill="none" stroke="#000" stroke-width=".75"/></g><g transform="translate(363.44 290.77)"><path d="m0 0h96.334m-280.67 0h135.67m48.664-3h96.334m-280.67 0h135.67" fill="none" stroke="#ffd24f" stroke-width="1.5"/></g><g transform="translate(226.19 267.91)"><path d="m0 0h7.242v1.776l4.988-2.936-4.988-2.734v1.641h-7.242z"/></g><g transform="translate(238.42 312.75)"><path d="m0 0h-7.241v1.777l-4.989-2.936 4.989-2.734v1.64h7.241z"/></g><g transform="translate(345.85 193.57)"><path d="m0 0 4.332 0.016-0.221 190.69-4.447-9e-3z" fill-rule="evenodd"/></g><g transform="translate(328.15 193.55)"><path d="m0 0 4.328 0.019-0.214 190.68h-4.348z" fill-rule="evenodd"/></g></g><text transform="matrix(1 0 0 -1 321.56 404.79)" fill="#000000" font-family="Helvetica" font-size="9px"><tspan x="0 6.4980001 10.998 16.002001 21.006001 28.503 30.500999" y="0">Dynamic</tspan><tspan x="-0.55800003 4.4460001 9.2700005 13.545 18.549 20.547001 25.551001 30.555" y="9.9989996">envelope</tspan><tspan x="75.834 82.835999 87.839996 90.342003 92.339996 97.344002 102.348 107.352 109.35 111.852 116.856 119.853 121.851 126.855 131.355" y="211.446">Optional 4-inch</tspan><tspan x="75.834 82.332001 87.335999 89.334 91.835999 96.839996 99.342003 104.346 109.17 113.445 118.449 125.946 130.95 135.95399" y="220.95">white pavement</tspan><tspan x="75.834 83.331001 88.334999 91.467003 95.967003 97.964996 102.969 107.973" y="230.45399">markings</tspan></text><g clip-path="url(#f)"><g transform="translate(307.11 332.48)"><path d="m0 0v-88.875m63.862 88.875v-88.875" fill="none" stroke="#fff" stroke-width="1.5"/></g><g transform="translate(459.78 246.2)"><path d="m0 0h-280.67m0 86.123h280.67" fill="none" stroke="#000"/></g><g transform="translate(393.29 176.17)"><path d="m0 0c-96.256-17.647-107.76 65.472-88.255 97.222" fill="none" stroke="#000" stroke-width=".75"/></g><g transform="translate(305.23 274.73)"><path d="m0 0c-0.678-0.601-1.179-0.956-1.781-1.402l2.257-1.387c0.029 0.275 0.215 1.347 0.446 2.224 0.247 0.938 0.524 1.757 0.752 2.258-0.344-0.43-0.948-1.047-1.674-1.693"/></g><g transform="translate(393.29 176.17)"><path d="m0 0s-25.129 26.943-22.537 65.829" fill="none" stroke="#000" stroke-width=".75"/></g><g transform="translate(370.3 243.27)"><path d="m0 0c-0.321-0.847-0.6-1.394-0.924-2.071l2.642-0.176c-0.101 0.257-0.435 1.292-0.64 2.176-0.217 0.945-0.354 1.799-0.385 2.349-0.105-0.541-0.352-1.369-0.693-2.278"/></g><g transform="translate(311.02 307.82)"><path d="m0 0h13.625" fill="none" stroke="#000" stroke-width=".75"/></g><g transform="translate(325.85 308.35)"><path d="m0 0c-0.867 0.262-1.431 0.504-2.128 0.783v-2.648c0.25 0.118 1.261 0.521 2.128 0.783 0.93 0.281 1.772 0.473 2.319 0.541-0.547 0.068-1.389 0.261-2.319 0.541"/></g><g transform="translate(310.06 307.28)"><path d="m0 0c0.868-0.262 1.433-0.504 2.129-0.783v2.648c-0.249-0.118-1.261-0.521-2.129-0.783-0.929-0.281-1.772-0.473-2.317-0.541 0.545-0.069 1.388-0.261 2.317-0.541"/></g><g transform="translate(321.84 313.37)"><path d="m0 0-2.349-0.717 1.544-2.171-1.411-0.984-1.521 2.037-1.544-2.037-1.41 0.984 1.521 2.171-2.327 0.717 0.515 1.633 2.282-0.76v2.663h1.902v-2.663l2.261 0.76z"/></g><g transform="translate(353.57 263.16)"><path d="m0 0h13.172" fill="none" stroke="#000" stroke-width=".5"/></g><g transform="translate(367.96 263.7)"><path d="m0 0c-0.867 0.262-1.432 0.504-2.129 0.783v-2.649c0.25 0.119 1.262 0.521 2.129 0.784 0.93 0.28 1.771 0.472 2.318 0.541-0.547 0.068-1.388 0.26-2.318 0.541"/></g><g transform="translate(352.36 262.62)"><path d="m0 0c0.867-0.263 1.432-0.504 2.129-0.784v2.649c-0.25-0.119-1.262-0.521-2.129-0.783-0.929-0.281-1.771-0.473-2.318-0.541 0.547-0.069 1.389-0.261 2.318-0.541"/></g><g transform="translate(364.83 268.34)"><path d="m0 0-2.35-0.717 1.545-2.17-1.41-0.985-1.521 2.037-1.545-2.037-1.41 0.985 1.521 2.17-2.326 0.717 0.514 1.634 2.283-0.761v2.663h1.902v-2.663l2.26 0.761z"/></g></g><text transform="matrix(1 0 0 -1 114.68 204.65)" fill="#000000" font-family="Helvetica" font-size="9px"><tspan x="0 2.5020001 7.506 10.008 15.012 20.016001 22.518 27.521999 30.024 32.256001 37.259998 40.617001 43.118999 45.620998 48.123001 53.126999 55.629002 60.129002 62.126999 69.624001 74.627998 76.625999 78.624001 81.125999 85.625999 88.127998 90.629997 95.634003 100.638 103.14 105.642 107.64 112.644 117.648 120.645 125.649 128.151 130.653" y="0">In an effort to simplify the figure to</tspan><tspan x="0 4.5 9.5039997 14.373 20.871 23.372999 25.875 30.879 35.882999 38.384998 43.389 47.889 52.893002 57.896999 65.393997 67.391998 71.891998 74.393997 79.398003 84.222 88.497002 93.500999 95.499001 100.503 105.507 110.511 113.013 120.51 125.514 128.646 133.146 135.144 140.14799 145.15199 149.517 152.019 154.521 159.52499 164.52901" y="9.9989996">show the dynamic envelope markings, not</tspan><tspan x="0 5.0040002 7.0019999 9 11.502 16.506001 21.33 25.605 30.608999 38.105999 43.110001 48.113998 50.616001 53.118 60.615002 65.619003 68.750999 73.250999 75.249001 80.252998 85.257004 89.757004 92.259003 97.263 100.26 102.762 107.766 110.268 115.272 120.276 123.273 125.775 128.772 133.776 138.78 143.784 145.782 148.77901 153.783" y="19.997999">all pavement markings or other required</tspan><tspan x="0 2.5020001 5.4990001 10.503 13.005 15.507 17.504999 22.004999 24.507 29.007 34.011002 39.014999 41.516998 44.514 49.518002 51.515999 54.018002 59.021999 63.666 68.166 70.164001 74.664001 79.667999 84.167999 86.669998 91.674004 94.670998 99.675003 102.177 106.677 111.681 116.55 123.048 128.052" y="29.997">traffic control devices are shown.</tspan><tspan x="-23.256001 -16.757999 -11.754 -9.2519999 -4.2480001" y="3.9968029e-15">Note:</tspan><tspan x="0.0089999996 5.5079999 10.512 15.516 18.018 23.021999 25.02 29.52 32.021999 37.026001 42.029999 46.529999 51.534 54.035999 59.040001 64.043999 66.545998 73.043999 78.047997 83.052002 88.056 90.557999 93.059998 98.064003 103.068 105.57 108.567 113.571 115.569 117.567 120.069 125.073 130.077 135.08099 137.58299 140.08501 145.089 150.093" y="69.453003">The distance between the rail and the </tspan><tspan x="0.0089999996 5.013 9.5129995 14.517 19.521 27.018 29.016001 33.515999 36.018002 41.021999 45.846001 50.120998 55.125 57.123001 62.126999 67.130997 72.135002 74.637001 79.640999 84.464996 88.739998 93.744003 101.241 106.245 111.249 113.751 116.253 123.75 128.754 131.886 136.386 138.384 143.388" y="78.957001">dynamic envelope pavement marking</tspan><tspan x="0.0089999996 4.5089998 9.5129995 14.517 19.521 21.518999 26.523001 29.025 34.028999 39.033001 41.535 46.539001 51.542999 56.547001 61.550999 63.549 66.051003 68.553001 73.556999 76.058998 81.063004 83.565002 85.796997 90.801003 95.805 98.306999 100.809 105.813 110.817 112.815 117.819 122.319" y="88.460999">should be equal to 6 feet unless</tspan><tspan x="0.0089999996 5.013 7.5149999 12.519 17.523001 20.52 27.018 29.016001 33.515999 38.52 41.021999 46.026001 51.029999 55.529999 57.528 62.028 67.031998 72.036003 74.538002 79.362 83.862 86.363998 88.865997 93.870003 98.874001 101.376 106.38 111.384 116.388 119.385 124.389 126.891 128.88901 133.89301 138.897" y="97.964996">otherwise advised by the operating </tspan><tspan x="0.0089999996 3.006 8.0100002 10.008 12.006 15.003 20.007 25.011 30.014999 32.516998 37.521 40.518002 43.02 45.018002 47.015999 52.02 57.023998 59.526001 62.028 65.025002 70.028999 72.027 74.025002 76.527 79.028999 82.026001 87.029999 92.033997 96.533997 98.531998 101.034 103.536 108.54 113.544 118.548 123.552 128.052 131.39101" y="107.469">railroad or light rail transit agency.</tspan></text><g clip-path="url(#e)"><g transform="translate(112.62 138.5)"><path d="m0 0-2.35-0.717 1.544-2.17-1.41-0.984-1.521 2.037-1.544-2.037-1.41 0.984 1.521 2.17-2.327 0.717 0.515 1.635 2.282-0.762v2.664h1.902v-2.664l2.261 0.762z"/></g><g transform="translate(343.07 80.71)"><path d="m0 0h14.791v1.862l4.658 1.747 0.582 2.213h0.932l1.28 5.358v20.262l-1.28 1.28v39.363l-9.433 5.59h-30.977l-9.432-5.59v-39.363l-1.281-1.28v-20.262l1.281-5.358h0.931l0.582-2.213 4.659-1.747v-1.862h14.79z" fill="#d6d8d9"/><path d="m0 0h14.791v1.862l4.658 1.747 0.582 2.213h0.932l1.28 5.358v20.262l-1.28 1.28v39.363l-9.433 5.59h-30.977l-9.432-5.59v-39.363l-1.281-1.28v-20.262l1.281-5.358h0.931l0.582-2.213 4.659-1.747v-1.862h14.79z" fill="none" stroke="#000" stroke-width=".582"/></g><path d="m344.94 158.38h-1.164v2.678h1.164z" stroke="#000" stroke-width=".582"/><path d="m335.04 158.85h-1.164v3.261h1.164z" stroke="#000" stroke-width=".582"/><g transform="translate(334.5 158.85)"><path d="m0 0v-0.466" stroke="#000" stroke-width=".582"/></g><g transform="translate(361.59 154.24)"><path d="m0 0-6.988 4.14h-30.977l-6.443-3.818v-1.616l5.978-1.475 11.18 0.077h10.092l11.179-0.077 5.979 1.475z"/><path d="m0 0-6.988 4.14h-30.977l-6.443-3.818v-1.616l5.978-1.475 11.18 0.077h10.092l11.179-0.077 5.979 1.475z" fill="none" stroke="#000" stroke-width=".582"/></g><g transform="translate(333.33 153.07)"><path d="m0 0c0-0.385-0.315-0.699-0.7-0.699h-9.703c-0.385 0-0.7 0.314-0.7 0.699v2.639c0 0.385 0.315 0.699 0.7 0.699h9.703c0.385 0 0.7-0.314 0.7-0.699z" fill="#fff"/><path d="m0 0c0-0.385-0.315-0.699-0.7-0.699h-9.703c-0.385 0-0.7 0.314-0.7 0.699v2.639c0 0.385 0.315 0.699 0.7 0.699h9.703c0.385 0 0.7-0.314 0.7-0.699z" fill="none" stroke="#000" stroke-width=".582"/></g><g transform="translate(356.74 153.07)"><path d="m0 0c0-0.385-0.314-0.699-0.699-0.699h-9.703c-0.385 0-0.699 0.314-0.699 0.699v2.639c0 0.385 0.314 0.699 0.699 0.699h9.703c0.385 0 0.699-0.314 0.699-0.699z" fill="#fff"/><path d="m0 0c0-0.385-0.314-0.699-0.699-0.699h-9.703c-0.385 0-0.699 0.314-0.699 0.699v2.639c0 0.385 0.314 0.699 0.699 0.699h9.703c0.385 0 0.699-0.314 0.699-0.699z" fill="none" stroke="#000" stroke-width=".582"/></g><g transform="translate(362.33 136.8)"><path d="m0 0c0-0.896-0.732-1.63-1.631-1.63h-2.638c-0.897 0-1.631 0.734-1.631 1.63v8.618c0 0.897 0.734 1.63 1.631 1.63h2.638c0.899 0 1.631-0.733 1.631-1.63z" fill="#fff"/><path d="m0 0c0-0.896-0.732-1.63-1.631-1.63h-2.638c-0.897 0-1.631 0.734-1.631 1.63v8.618c0 0.897 0.734 1.63 1.631 1.63h2.638c0.899 0 1.631-0.733 1.631-1.63z" fill="none" stroke="#000" stroke-width=".291"/></g><g transform="translate(322.04 136.8)"><path d="m0 0c0-0.896-0.734-1.63-1.631-1.63h-2.64c-0.896 0-1.63 0.734-1.63 1.63v8.618c0 0.897 0.734 1.63 1.63 1.63h2.64c0.897 0 1.631-0.733 1.631-1.63z" fill="#fff"/><path d="m0 0c0-0.896-0.734-1.63-1.631-1.63h-2.64c-0.896 0-1.63 0.734-1.63 1.63v8.618c0 0.897 0.734 1.63 1.63 1.63h2.64c0.897 0 1.631-0.733 1.631-1.63z" fill="none" stroke="#000" stroke-width=".291"/></g><g transform="translate(336.17 149.11)"><path d="m0 0c0.896 0 1.631-0.733 1.631-1.63v-4.27c0-0.897-0.735-1.63-1.631-1.63h-7.919c-0.896 0-1.63 0.733-1.63 1.63v4.27c0 0.897 0.734 1.63 1.63 1.63z" fill="#fff"/><path d="m0 0c0.896 0 1.631-0.733 1.631-1.63v-4.27c0-0.897-0.735-1.63-1.631-1.63h-7.919c-0.896 0-1.63 0.733-1.63 1.63v4.27c0 0.897 0.734 1.63 1.63 1.63z" fill="none" stroke="#000" stroke-width=".291"/></g><g transform="translate(350.8 149.11)"><path d="m0 0c0.895 0 1.629-0.733 1.629-1.63v-4.27c0-0.897-0.734-1.63-1.629-1.63h-7.92c-0.896 0-1.629 0.733-1.629 1.63v4.27c0 0.897 0.733 1.63 1.629 1.63z" fill="#fff"/><path d="m0 0c0.895 0 1.629-0.733 1.629-1.63v-4.27c0-0.897-0.734-1.63-1.629-1.63h-7.92c-0.896 0-1.629 0.733-1.629 1.63v4.27c0 0.897 0.733 1.63 1.629 1.63zm-27.096-36.295v26.63l3.339 1.009 12.344 0.776 12.343-0.776 3.338-1.009v-26.63z" fill="none" stroke="#000" stroke-width=".291"/></g><g transform="translate(313.69 149.77)"><path d="m0 0-0.854-1.164-2.873-2.407 0.622-0.931 3.105 2.018 0.466 0.699v1.553z"/><path d="m0 0-0.854-1.164-2.873-2.407 0.622-0.931 3.105 2.018 0.466 0.699v1.553z" fill="none" stroke="#000" stroke-width=".582"/></g><g transform="translate(364.58 149.77)"><path d="m0 0 0.854-1.164 2.873-2.407-0.622-0.931-3.105 2.018-0.466 0.699v1.553z"/><path d="m0 0 0.854-1.164 2.873-2.407-0.622-0.931-3.105 2.018-0.466 0.699v1.553z" fill="none" stroke="#000" stroke-width=".582"/></g><path d="m356.35 112.85h-34.703v0.817h34.703z"/><g transform="translate(352.82 119.1)"><path d="m0 0 1.864 11.957-2.951 0.466-12.264 0.31h-12.423l-3.417-0.233 1.941-12.654h2.368v-2.019h22.865v2.096z" fill="#fff"/><path d="m0 0 1.864 11.957-2.951 0.466-12.264 0.31h-12.423l-3.417-0.233 1.941-12.654h2.368v-2.019h22.865v2.096z" fill="none" stroke="#000" stroke-width=".291"/></g><path d="m327.94 112.81h-4.735v6.211h4.735z"/><g transform="translate(323.55 116.38)"><path d="m0 0c0 1.115 0.903 2.018 2.017 2.018 1.116 0 2.02-0.903 2.02-2.018 0-1.116-0.904-2.019-2.02-2.019-1.114 0-2.017 0.903-2.017 2.019" fill="#fff"/><path d="m0 0c0 1.115 0.903 2.018 2.017 2.018 1.116 0 2.02-0.903 2.02-2.018 0-1.116-0.904-2.019-2.02-2.019-1.114 0-2.017 0.903-2.017 2.019z" fill="none" stroke="#000" stroke-width=".582"/></g><path d="m355.57 112.81h-4.735v6.211h4.735z"/><g transform="translate(351.19 116.38)"><path d="m0 0c0 1.115 0.905 2.018 2.02 2.018 1.114 0 2.018-0.903 2.018-2.018 0-1.116-0.904-2.019-2.018-2.019-1.115 0-2.02 0.903-2.02 2.019" fill="#fff"/><path d="m0 0c0 1.115 0.905 2.018 2.02 2.018 1.114 0 2.018-0.903 2.018-2.018 0-1.116-0.904-2.019-2.018-2.019-1.115 0-2.02 0.903-2.02 2.019z" fill="none" stroke="#000" stroke-width=".582"/></g><g transform="translate(332.83 129.5)"><path d="m0 0v-16.847m12.731 16.847v-16.847" fill="none" stroke="#000" stroke-width="1.165"/></g><g transform="translate(343.21 153.19)"><path d="m0 0c0-0.64-0.523-1.164-1.163-1.164h-5.123c-0.641 0-1.165 0.524-1.165 1.164v2.407c0 0.641 0.524 1.164 1.165 1.164h5.123c0.64 0 1.163-0.523 1.163-1.164z" fill="#d6d8d9"/><path d="m0 0c0-0.64-0.523-1.164-1.163-1.164h-5.123c-0.641 0-1.165 0.524-1.165 1.164v2.407c0 0.641 0.524 1.164 1.165 1.164h5.123c0.64 0 1.163-0.523 1.163-1.164z" fill="none" stroke="#000" stroke-width=".582"/></g><g transform="translate(339.72 154.39)"><path d="m0 0c0 0.815 0.66 1.476 1.474 1.476 0.815 0 1.475-0.661 1.475-1.476 0-0.814-0.66-1.475-1.475-1.475-0.814 0-1.474 0.661-1.474 1.475" fill="#fff"/><path d="m0 0c0 0.815 0.66 1.476 1.474 1.476 0.815 0 1.475-0.661 1.475-1.476 0-0.814-0.66-1.475-1.475-1.475-0.814 0-1.474 0.661-1.474 1.475z" fill="none" stroke="#000" stroke-width=".291"/></g><g transform="translate(336.3 154.39)"><path d="m0 0c0 0.815 0.659 1.476 1.474 1.476s1.475-0.661 1.475-1.476c0-0.814-0.66-1.475-1.475-1.475s-1.474 0.661-1.474 1.475" fill="#fff"/><path d="m0 0c0 0.815 0.659 1.476 1.474 1.476s1.475-0.661 1.475-1.476c0-0.814-0.66-1.475-1.475-1.475s-1.474 0.661-1.474 1.475z" fill="none" stroke="#000" stroke-width=".291"/></g><g transform="translate(312.91 91.89)"><path d="m0 0 1.281-5.358h0.931l0.582-2.213 4.659-1.747v-1.862h37.498v1.862l4.658 1.747 0.582 2.213h0.932l1.28 5.358v20.262l-1.28 1.28h-49.842l-1.281-1.28z" fill="#b1b4b6"/><path d="m0 0 1.281-5.358h0.931l0.582-2.213 4.659-1.747v-1.862h37.498v1.862l4.658 1.747 0.582 2.213h0.932l1.28 5.358v20.262l-1.28 1.28h-49.842l-1.281-1.28z" fill="none" stroke="#000" stroke-width=".582"/></g><path d="m320.29 107.46h-0.854v22.049h0.854z" stroke="#000" stroke-width=".582"/><path d="m358.72 107.46h-0.854v22.049h0.854z" stroke="#000" stroke-width=".582"/><g transform="translate(314.62 107.22)"><path d="m0 0h5.512l2.562-1.397v-2.795l-3.648-2.174h-3.65c-0.621 0-0.776 0.233-0.776 0.776z" fill="#d6d8d9"/><path d="m0 0h5.512l2.562-1.397v-2.795l-3.648-2.174h-3.65c-0.621 0-0.776 0.233-0.776 0.776z" fill="none" stroke="#d6d8d9" stroke-width=".582"/></g><g transform="translate(362.99 107.22)"><path d="m0 0h-5.512l-2.562-1.397v-2.795l3.648-2.174h3.651c0.621 0 0.775 0.233 0.775 0.776z" fill="#d6d8d9"/><path d="m0 0h-5.512l-2.562-1.397v-2.795l3.648-2.174h3.651c0.621 0 0.775 0.233 0.775 0.776z" fill="none" stroke="#d6d8d9" stroke-width=".582"/></g><g transform="translate(320.65 101.34)"><path d="m0 0c-0.049-0.188 0.061-0.379 0.248-0.428l5.823-1.553c0.186-0.049 0.378 0.061 0.427 0.246 0.051 0.188-0.061 0.379-0.248 0.428l-5.822 1.554c-0.187 0.05-0.378-0.062-0.428-0.247" fill="#d6d8d9"/><path d="m0 0c-0.049-0.188 0.061-0.379 0.248-0.428l5.823-1.553c0.186-0.049 0.378 0.061 0.427 0.246 0.051 0.188-0.061 0.379-0.248 0.428l-5.822 1.554c-0.187 0.05-0.378-0.062-0.428-0.247z" fill="none" stroke="#d6d8d9" stroke-width=".291"/></g><g transform="translate(357.74 100.87)"><path d="m0 0c0.05-0.186-0.061-0.377-0.248-0.427l-5.822-1.553c-0.188-0.049-0.378 0.062-0.428 0.248-0.049 0.186 0.061 0.378 0.248 0.427l5.823 1.553c0.186 0.05 0.376-0.061 0.427-0.248" fill="#d6d8d9"/><path d="m0 0c0.05-0.186-0.061-0.377-0.248-0.427l-5.822-1.553c-0.188-0.049-0.378 0.062-0.428 0.248-0.049 0.186 0.061 0.378 0.248 0.427l5.823 1.553c0.186 0.05 0.376-0.061 0.427-0.248z" fill="none" stroke="#d6d8d9" stroke-width=".291"/></g><path d="m343.35 86.648h-1.863v9.861h1.863zm-6.753 0h-1.865v9.861h1.865zm-2.486-0.698h9.859v14.207h-9.859z" fill="#d6d8d9" stroke="#d6d8d9" stroke-width=".582"/><g transform="translate(360.97 99.925)"><path d="m0 0c-1.398-0.233-13.431-2.873-14.518-3.262 0 0-0.933-0.62-0.933-1.475 0-0.853 1.01-0.699 1.631-1.474 0.621-0.778 0.078-1.942-0.31-2.329-0.388-0.389-1.942-1.244-2.485-2.097-0.543-0.854-2.56-1.707-3.958-2.096-1.397-0.388-4.735-0.465-6.21 0.078s-1.709 4.27-1.787 4.969c-0.077 0.697-0.465 5.123-0.465 5.123l-3.881 0.621-4.503 1.553s-1.01 0.699-2.097 0.855c-1.087 0.155-3.183 0.232-4.348 0.232-1.164 0-2.562-0.621-2.562-1.476 0-0.853 0.078-6.443 0-8.228-0.04-0.926 0.254-2.771 0.557-4.387h0.025l0.582-2.213 4.659-1.747v-1.862h37.498v1.862l4.658 1.747 0.169 0.647c0.173 1.495 0.431 3.853 0.529 5.486 0.156 2.563 0 6.832 0 8.075 0 1.241-0.854 1.63-2.251 1.398"/></g><g transform="translate(351.02 96.391)"><path d="m0 0c-0.193-5e-3 -0.345-0.166-0.339-0.359l0.388-13.43c4e-3 -0.193 0.166-0.345 0.358-0.339 0.193 4e-3 0.345 0.166 0.339 0.359l-0.388 13.43c-4e-3 0.193-0.166 0.345-0.358 0.339" fill="#b1b4b6"/><path d="m0 0c-0.193-5e-3 -0.345-0.166-0.339-0.359l0.388-13.43c4e-3 -0.193 0.166-0.345 0.358-0.339 0.193 4e-3 0.345 0.166 0.339 0.359l-0.388 13.43c-4e-3 0.193-0.166 0.345-0.358 0.339z" fill="none" stroke="#b1b4b6" stroke-width=".291"/></g><g transform="translate(352.54 96.78)"><path d="m0 0c-0.193-6e-3 -0.345-0.166-0.34-0.359l0.389-13.432c6e-3 -0.191 0.166-0.344 0.359-0.338 0.192 6e-3 0.344 0.166 0.338 0.36l-0.387 13.429c-5e-3 0.194-0.168 0.346-0.359 0.34" fill="#b1b4b6"/><path d="m0 0c-0.193-6e-3 -0.345-0.166-0.34-0.359l0.389-13.432c6e-3 -0.191 0.166-0.344 0.359-0.338 0.192 6e-3 0.344 0.166 0.338 0.36l-0.387 13.429c-5e-3 0.194-0.168 0.346-0.359 0.34z" fill="none" stroke="#b1b4b6" stroke-width=".291"/></g><g transform="translate(354.05 97.168)"><path d="m0 0c-0.194-5e-3 -0.345-0.167-0.34-0.36l0.389-13.43c5e-3 -0.193 0.166-0.345 0.359-0.34 0.191 6e-3 0.344 0.166 0.339 0.359l-0.388 13.432c-6e-3 0.193-0.166 0.345-0.359 0.339" fill="#b1b4b6"/><path d="m0 0c-0.194-5e-3 -0.345-0.167-0.34-0.36l0.389-13.43c5e-3 -0.193 0.166-0.345 0.359-0.34 0.191 6e-3 0.344 0.166 0.339 0.359l-0.388 13.432c-6e-3 0.193-0.166 0.345-0.359 0.339z" fill="none" stroke="#b1b4b6" stroke-width=".291"/></g><g transform="translate(326.43 96.391)"><path d="m0 0c0.191-5e-3 0.343-0.166 0.337-0.359l-0.386-13.43c-6e-3 -0.193-0.168-0.345-0.36-0.339-0.193 4e-3 -0.345 0.166-0.34 0.359l0.389 13.43c6e-3 0.193 0.166 0.345 0.36 0.339" fill="#b1b4b6"/><path d="m0 0c0.191-5e-3 0.343-0.166 0.337-0.359l-0.386-13.43c-6e-3 -0.193-0.168-0.345-0.36-0.339-0.193 4e-3 -0.345 0.166-0.34 0.359l0.389 13.43c6e-3 0.193 0.166 0.345 0.36 0.339z" fill="none" stroke="#b1b4b6" stroke-width=".291"/></g><g transform="translate(324.92 96.78)"><path d="m0 0c0.193-6e-3 0.346-0.166 0.34-0.359l-0.389-13.432c-4e-3 -0.191-0.166-0.344-0.357-0.338-0.194 6e-3 -0.346 0.166-0.341 0.36l0.389 13.429c4e-3 0.194 0.166 0.346 0.358 0.34" fill="#b1b4b6"/><path d="m0 0c0.193-6e-3 0.346-0.166 0.34-0.359l-0.389-13.432c-4e-3 -0.191-0.166-0.344-0.357-0.338-0.194 6e-3 -0.346 0.166-0.341 0.36l0.389 13.429c4e-3 0.194 0.166 0.346 0.358 0.34z" fill="none" stroke="#b1b4b6" stroke-width=".291"/></g><g transform="translate(323.4 97.168)"><path d="m0 0c0.194-5e-3 0.345-0.167 0.34-0.36l-0.389-13.43c-5e-3 -0.193-0.166-0.345-0.359-0.34-0.191 6e-3 -0.344 0.166-0.339 0.359l0.388 13.432c6e-3 0.193 0.168 0.345 0.359 0.339" fill="#b1b4b6"/><path d="m0 0c0.194-5e-3 0.345-0.167 0.34-0.36l-0.389-13.43c-5e-3 -0.193-0.166-0.345-0.359-0.34-0.191 6e-3 -0.344 0.166-0.339 0.359l0.388 13.432c6e-3 0.193 0.168 0.345 0.359 0.339z" fill="none" stroke="#b1b4b6" stroke-width=".291"/></g><g transform="translate(318.85 130.2)"><path d="m0 0c-0.796 0-1.609-0.594-1.851-1.353l-4.378-13.736c-0.204-0.64-0.37-1.707-0.37-2.38v-12.033c0-0.807 0.525-1.569 1.196-1.737l0.932-0.233 0.169 0.678-0.931 0.232c-0.355 0.09-0.667 0.584-0.667 1.06v12.033c0 0.603 0.154 1.595 0.337 2.169l4.378 13.735c0.147 0.461 0.701 0.866 1.185 0.866h14.207v0.699z"/><path d="m0 0c-0.796 0-1.609-0.594-1.851-1.353l-4.378-13.736c-0.204-0.64-0.37-1.707-0.37-2.38v-12.033c0-0.807 0.525-1.569 1.196-1.737l0.932-0.233 0.169 0.678-0.931 0.232c-0.355 0.09-0.667 0.584-0.667 1.06v12.033c0 0.603 0.154 1.595 0.337 2.169l4.378 13.735c0.147 0.461 0.701 0.866 1.185 0.866h14.207v0.699z" fill="none" stroke="#000" stroke-width=".582"/></g><g transform="translate(359.53 130.2)"><path d="m0 0c0.796 0 1.61-0.594 1.852-1.353l4.379-13.736c0.203-0.64 0.369-1.707 0.369-2.38v-12.033c0-0.807-0.526-1.569-1.197-1.737l-1.715-0.437-0.169 0.678 1.716 0.436c0.355 0.09 0.666 0.584 0.666 1.06v12.033c0 0.603-0.155 1.595-0.337 2.169l-4.378 13.735c-0.148 0.461-0.701 0.866-1.186 0.866h-14.207v0.699z"/><path d="m0 0c0.796 0 1.61-0.594 1.852-1.353l4.379-13.736c0.203-0.64 0.369-1.707 0.369-2.38v-12.033c0-0.807-0.526-1.569-1.197-1.737l-1.715-0.437-0.169 0.678 1.716 0.436c0.355 0.09 0.666 0.584 0.666 1.06v12.033c0 0.603-0.155 1.595-0.337 2.169l-4.378 13.735c-0.148 0.461-0.701 0.866-1.186 0.866h-14.207v0.699z" fill="none" stroke="#000" stroke-width=".582"/></g><g transform="translate(335.58 93.403)"><path d="m0 0c0 1.93 1.564 3.494 3.493 3.494 1.931 0 3.493-1.564 3.493-3.494 0-1.929-1.562-3.493-3.493-3.493-1.929 0-3.493 1.564-3.493 3.493" fill="#d6d8d9"/><path d="m0 0c0 1.93 1.564 3.494 3.493 3.494 1.931 0 3.493-1.564 3.493-3.494 0-1.929-1.562-3.493-3.493-3.493-1.929 0-3.493 1.564-3.493 3.493z" fill="none" stroke="#6d6e71" stroke-width=".582"/></g><g transform="translate(338.38 93.48)"><path d="m0 0c0 0.515 0.418 0.932 0.931 0.932 0.516 0 0.932-0.417 0.932-0.932 0-0.514-0.416-0.93-0.932-0.93-0.513 0-0.931 0.416-0.931 0.93"/></g><g transform="translate(335.82 91.229)"><path d="m0 0 3.494-0.775v6.055l-3.494-1.087z" fill="#6d6e71"/></g><g transform="translate(316.34 107.09)"><path d="m0 0 0.421-1.6 0.123-0.037c0.147-0.047 14.775-4.668 17.303-5.587 2.542-0.925 4.812-0.802 4.972-0.791 0.158-0.011 2.429-0.134 4.969 0.791 2.529 0.919 16.926 5.54 17.072 5.587l0.12 0.039 0.421 1.598-0.45 0.119s-0.302-1.145-0.356-1.352c-1.36-0.436-14.549-4.673-16.967-5.554-2.481-0.903-4.772-0.764-4.795-0.762h-0.03c-0.023-2e-3 -2.314-0.141-4.796 0.762-2.419 0.881-15.825 5.121-17.2 5.554-0.055 0.209-0.356 1.352-0.356 1.352z"/></g><g transform="translate(361.36 107.46)"><path d="m0 0c0.069 0.981-0.073 2.39-0.073 3.105 0 0.865 0.336 1.009 1.088 1.009 0.844 0 0.932 0 0.932-0.853 0-1.029-0.33-1.554-0.942-2.164l-0.517-0.463c-0.297-0.246-0.264-0.128-0.488-0.634m1.015 4.581c-0.768 0-1.553-0.176-1.553-1.476 0-0.989 0.094-4.342 0.092-4.374l0.02-0.334c0.046-0.068 0.168 0.043 0.304 0.057 0.212 0.023 0.065 0.512 0.264 0.99 0.193 0.459 0.353 0.59 0.643 0.83l0.549 0.493c0.683 0.683 1.078 1.309 1.078 2.494 0 1.261-0.478 1.32-1.397 1.32"/></g><g transform="translate(313.53 111.57)"><path d="m0 0c0-1.183 0.395-1.81 1.078-2.493l0.55-0.493c0.29-0.238 0.449-0.371 0.641-0.83 0.201-0.478 0.377-0.69 0.589-0.713 0.136-0.014 0.238 0.06 0.285 0.128l0.045 0.067-6e-3 0.082c-2e-3 0.032-0.232 3.109-0.232 4.098 0 1.299-0.784 1.475-1.553 1.475-0.918 0-1.397-0.059-1.397-1.321m1.924-2.627-0.517 0.463c-0.611 0.611-0.941 1.137-0.941 2.164 0 0.855 0.088 0.855 0.931 0.855 0.752 0 1.087-0.146 1.087-1.009 0-0.716 0.114-2.433 0.182-3.414-0.225 0.505-0.443 0.695-0.742 0.941"/></g><path d="m345.36 105.9h-12.265v6.987h12.265z" fill="#d6d8d9" stroke="#000" stroke-width=".291"/><g transform="translate(314.19 129.97)"><path d="m0 0h-0.583v6.444h0.621v0.622h-0.621v0.232c0 0.256-0.174 0.466-0.387 0.466-0.214 0-0.389-0.21-0.389-0.466v-7.298h-0.155c-0.193 0-0.349-0.156-0.349-0.35 0-0.192 0.156-0.349 0.349-0.349h0.155v-14.984c0-0.256 0.175-0.466 0.389-0.466 0.213 0 0.387 0.21 0.387 0.466v14.984h0.583c0.193 0 0.349 0.157 0.349 0.349 0 0.194-0.156 0.35-0.349 0.35"/></g><g transform="translate(365.78 129.62)"><path d="m0 0c0 0.153-0.098 0.281-0.232 0.329v6.698c0 0.256-0.176 0.466-0.389 0.466s-0.389-0.21-0.389-0.466v-0.233h-0.621v-0.621h0.621v-5.823h-0.852c-0.194 0-0.351-0.156-0.351-0.35 0-0.192 0.157-0.349 0.351-0.349h0.852v-15.604c0-0.257 0.176-0.467 0.389-0.467s0.389 0.21 0.389 0.467v15.626c0.134 0.048 0.232 0.176 0.232 0.327"/></g><g transform="translate(339.5 141.27)"><path d="m0 0v-28.298m-12.461 27.483v-21.428m24.687 21.428v-21.428" fill="none" stroke="#000" stroke-width=".291"/></g><path d="m330.3 78.815h-7.57v2.33h7.57z"/><path d="m355.63 78.815h-7.569v2.33h7.569z"/><g transform="translate(412.65 79.107)"><path d="m0 0h-147.02v-2.911h49.349v-4.076h48.328v4.076h49.348z" fill="#d6d8d9"/><path d="m0 0h-147.02v-2.911h49.349v-4.076h48.328v4.076h49.348z" fill="none" stroke="#000" stroke-width=".582"/></g><g transform="translate(307.11 45)"><path d="m0 0v113.88" fill="#d6d8d9"/></g></g><g clip-path="url(#d)"><g transform="translate(307.11 45)"><path d="m0 0v113.88" fill="none" stroke="#000" stroke-dasharray="11.646, 2.911, 11.646, 2.911" stroke-width=".75"/></g></g><g clip-path="url(#c)"><g transform="translate(371.16 45)"><path d="m0 0v113.88" fill="#d6d8d9"/></g></g><g clip-path="url(#b)"><g transform="translate(371.16 45)"><path d="m0 0v113.88" fill="none" stroke="#000" stroke-dasharray="11.646, 2.911, 11.646, 2.911" stroke-width=".75"/></g></g><g clip-path="url(#a)"><g transform="translate(311.04 49.818)"><path d="m0 0h55.999" fill="none" stroke="#000" stroke-width=".75"/></g><g transform="translate(368.28 50.357)"><path d="m0 0c-0.869 0.262-1.433 0.504-2.129 0.784v-2.649c0.248 0.117 1.26 0.522 2.129 0.783 0.928 0.28 1.772 0.473 2.317 0.541-0.545 0.069-1.389 0.26-2.317 0.541"/></g><g transform="translate(309.8 49.281)"><path d="m0 0c0.869-0.262 1.434-0.504 2.129-0.783v2.648c-0.25-0.119-1.26-0.521-2.129-0.783-0.928-0.281-1.771-0.472-2.316-0.541 0.545-0.068 1.388-0.262 2.316-0.541"/></g></g><text transform="matrix(1 0 0 -1 320.92 63.222)" fill="#000000" font-family="Helvetica" font-size="9px"><tspan x="0 6.4980001 10.998 16.002001 21.006001 28.503 30.500999" y="0">Dynamic</tspan><tspan x="-0.55800003 4.4460001 9.2700005 13.545 18.549 20.547001 25.551001 30.555" y="9.5039997">envelope</tspan></text></g></svg>
