<?xml version="1.0" encoding="UTF-8"?>
<svg width="672.78" height="740.9" version="1.1" viewBox="0 0 672.78 740.9" xml:space="preserve" xmlns="http://www.w3.org/2000/svg"><defs><clipPath id="e"><path d="m27.125 44.5h512.88v693.5h-512.88z"/></clipPath><clipPath id="d"><path d="m27.125 44.5h512.88v693.5h-512.88z"/></clipPath><clipPath id="c"><path d="m27.125 44.5h512.88v693.5h-512.88z"/></clipPath><clipPath id="b"><path d="m27.125 44.5h512.88v693.5h-512.88z"/></clipPath><clipPath id="a"><path d="m27.125 44.5h512.88v693.5h-512.88z"/></clipPath></defs><g transform="matrix(1.3333 0 0 -1.3333 -40.054 932.73)"><g transform="translate(401.48 668.34)"><path d="m0 0h2.566l-0.191 3.419-2.184 0.57v2.661h0.855l-0.191 4.939h-3.514l-0.096 1.046-3.23 2.945-2.944-2.375-0.667-1.616h-3.799l0.191-4.939h1.329l0.191-1.521-0.191-1.14-190.32 0.013 0.036 4.643m44.702-52.156h159.45v3.515h-157.98zm147.86 55.1h6.937m-9.216-4.939h12.066m-4.276-2.661h-7.79m7.79 0h4.276m-12.162-3.989h11.971m-6.059-6.801v-27.075m-196.2 20.005h19.146l-6e-3 2.456-19.14 0.015v11.4h190.28v-39.996m12.146 39.996v-39.996m0.026-3.963 0.046-3.103 0.022-1.343-0.051-0.606-4.404-0.304-1.469 1.974m-0.42 3.278 0.047-3.104-0.992-1.895-0.356-0.354-4.506 0.086-0.049 0.521-0.015 1.542v3.163" fill="none" stroke="#000" stroke-linecap="square" stroke-miterlimit="2"/></g><g transform="translate(367.74 504.84)"><path d="m0 0-5.6 42.358-11.556-1.243 4.553-42.365z" fill="#c0311a"/><path d="m0 0-5.6 42.358-11.556-1.243 4.553-42.365zm-20.033 152.14-8.946-1.07 2.769-25.751 9.497 1.022z" fill="none" stroke="#000" stroke-linecap="square" stroke-miterlimit="2"/></g><g transform="translate(367.03 510.41)"><path d="m0 0-12.476-1.342 5.075-47.195 13.506 1.452z" fill="#fff"/><path d="m0 0-12.476-1.342 5.075-47.195 13.506 1.452zm12.486-94.732-0.81 5.716-14.557-1.565 0.617-5.737z" fill="none" stroke="#000" stroke-linecap="square" stroke-miterlimit="2"/></g><g transform="translate(378.71 421.39)"><path d="m0 0-5.571 41.931-13.506-1.452 4.52-42.044 10.317 1.11z" fill="#c0311a"/><path d="m0 0-5.571 41.931-13.506-1.452 4.52-42.044 10.317 1.11z" fill="none" stroke="#000" stroke-linecap="square" stroke-miterlimit="2"/></g><g transform="translate(350.44 598.22)"><path d="m0 0 2.613 6.175 1.894-2.398-3.91 29.183-9.497-1.022 3.272-30.429 2.066 1.579z" fill="#c0311a"/><path d="m0 0 2.613 6.175 1.894-2.398-3.91 29.183-9.497-1.022 3.272-30.429 2.066 1.579zm11.71-51.022-4.687 35.66-1.237 0.412-1.662-2.612-2.849 4.75-1.188-1.427 0.238-1.661-2.613-0.714-1.39 1e-3 3.832-35.652z" fill="none" stroke="#000" stroke-linecap="square" stroke-miterlimit="2"/></g><path d="m399.41 379.16h26.789v-48.165h-26.789z" fill="none" stroke="#000" stroke-miterlimit="2"/><g transform="translate(394.83 366.43)"><path d="m0 0-2.186 2.47-3.658 2.315-2.957 1.676-10.199 4.369-3.516 3.895-2.564 2.09-4.086 7.601v11.875l-4.56 3.894-0.571 9.12 1.236 1.14h15.295l5.891 0.57 0.379-1.425 1.33-9.405-1.33-0.664-3.326-3.041v-10.355l2.851-4.084 3.231-2.755 12.279-5.914 6.245-3.682 1.425-1.235 1.711-1.235 0.57-1.14 0.284-1.33-0.989-28.785h-14.131z" fill="#fff"/><path d="m0 0-2.186 2.47-3.658 2.315-2.957 1.676-10.199 4.369-3.516 3.895-2.564 2.09-4.086 7.601v11.875l-4.56 3.894-0.571 9.12 1.236 1.14h15.295l5.891 0.57 0.379-1.425 1.33-9.405-1.33-0.664-3.326-3.041v-10.355l2.851-4.084 3.231-2.755 12.279-5.914 6.245-3.682 1.425-1.235 1.711-1.235 0.57-1.14 0.284-1.33-0.989-28.785h-14.131z" fill="none" stroke="#000" stroke-linecap="square" stroke-miterlimit="2"/></g><g transform="translate(386.95 342.4)"><path d="m0 0v28.596z" fill="#fff"/></g><g transform="translate(386.95 342.4)"><path d="m0 0v28.595" fill="none" stroke="#000" stroke-linecap="square" stroke-miterlimit="2"/></g><g transform="translate(412.31 317.13)"><path d="m0 0v-5.51l-0.664-0.57h-13.394v-8.645l2.754-3.42 1.804-2.754 2.092-1.425 0.19-1.141h-1.807v-13.49l-3.324-0.379-4.276-0.096-2.279-1.994-1.329 0.19-2.28 1.71-7.696 0.19v13.869h-2.091l0.38 1.426 1.995 1.14 0.951 2.09 0.949 0.854 2.281 3.135v9.975l-0.474 4.845" fill="#fff"/><path d="m0 0v-5.51l-0.664-0.57h-13.394v-8.645l2.754-3.42 1.804-2.754 2.092-1.425 0.19-1.141h-1.807v-13.49l-3.324-0.379-4.276-0.096-2.279-1.994-1.329 0.19-2.28 1.71-7.696 0.19v13.869h-2.091l0.38 1.426 1.995 1.14 0.951 2.09 0.949 0.854 2.281 3.135v9.975l-0.474 4.845m-196.75 365.1 3.935 3.545 3.487-3.485m13.673-57.078h-11.305l3e-3 -8.026-12.068 0.039v7.987h-13.779l1.504 3.991h12.275v25.46h-16.102l-1.346 2.375h17.448v11.305l-0.961 0.023v4.156h1.009v4.465m1.377 0h-1.235m1.235 0h10.831m-12.208-4.643h12.35m-11.697-3.978 11.46-0.023m-12.161-11.305v-2.375m21.09-25.46 1.71-2.471 0.57-1.52m-2.28 3.991h-21.09m12.161 0v27.74m-12.161-31.731h12.065m199.4-138.7h-11.4v-100.79m0 18.809v2.09m0 79.895h-10.829l-2.949 3.42h40.379l0.283-3.42h-15.484v-96.33m-7.979 199.12h7.125m-8.265-4.276h-1.045m1.045 0h10.926m-6.848-17.195v9.975m0.096-36.479v6.554m-5.219 37.145h-1.711l0.191 4.276h3.705l0.096 1.044 3.514 2.66 3.325-2.755 0.19-0.949h3.516l0.188-4.276h-1.043m-7.125-159.31v53.294m-0.381-67.07v-19.665m14.916-49.875h0.854m3.704-25.27h-3.704l-0.096-5.034v-1.046m0.096 6.08h-10.354v-6.08m0 6.08h-3.612v-6.08h3.612m-3.612 6.08h-4.654l-0.189-2.279-0.191-1.141 0.571-1.52 2.088-2.185 0.762-1.234 1.045-0.665 0.76-5.796 3.42 0.095m-3.42-0.095-0.192-0.285 0.476-3.515 0.19-2.279h7.504m-7.504 0h-12.921m9.88 0-0.188 2.944-0.667 3.135-1.139 0.095-3.705-0.095m4.844 0 0.381 1.14-0.949 3.42v0.665l-2.186 1.71-2.09 1.615m1.805-0.95 2.85-0.189 1.236-0.38m-2.28 2.849-2.662 0.666-0.949 0.284m3.04 0.57-2.279 1.9-0.761 0.096m3.42 1.424h-3.894m2.185 0h20.329m-14.44-11.115-1.901 1.331-1.423 0.189m3.798-5.51-1.613 1.14-1.236 0.285m3.325-4.94-1.14 0.665-1.899 1.046m-9.312-6.556h20.52m2.471-20.709 1.9-3.61h11.21l4.94-11.971h-61.75l0.19 1.806 0.664 2.184m-64.408-0.719v6.767m64.408-6.048 2.85 7.981h12.255l0.381 1.899 1.71 3.42 1.329 3.135 1.33 0.475 7.221-0.285 2.66-2.565 0.76-0.19 3.516 3.231 6.554-0.096 2.28-5.414m0 0-1.235-0.191-0.761 0.191-1.708 1.14-1.71-1.236 1.899-3.514h5.415m-5.415 0h-24.226m5.702 0 0.568 1.71 1.236 1.804h-2.756l-1.519-0.095-1.236 0.095m5.511 0h14.821" fill="none" stroke="#000" stroke-linecap="square" stroke-miterlimit="2"/></g><g transform="translate(431.48 269.34)"><path d="m0 0h8.645" fill="none" stroke="#000" stroke-linecap="square" stroke-miterlimit="2" stroke-width=".75"/></g><g transform="translate(295.46 263.32)"><path d="m0 0-1.235-0.76-4.75-2.944-0.285-0.665 1.994-2.66 0.192-0.665 0.95-0.856 0.854-1.139m-1.804 1.995-4.371-1.9 0.191-0.666m-0.191 0.666-7.789-2.375m3.324 1.14-0.19 0.664-0.38 0.286m0.57-0.95 1.14 0.095 2.754 1.234m5.52 5.417 2.464 1.959-3.9 1.639-1.045-0.76m4.092 1.197-1.98 0.985" fill="none" stroke="#000" stroke-linecap="square" stroke-miterlimit="2" stroke-width=".5"/></g><g clip-path="url(#e)"><g transform="translate(136.34 639.76)"><path d="m0 0c0 12.418 10.066 22.484 22.483 22.484s22.483-10.066 22.483-22.484c0-12.416-10.066-22.482-22.483-22.482s-22.483 10.066-22.483 22.482" fill="#fff"/><path d="m0 0c0 12.418 10.066 22.484 22.483 22.484s22.483-10.066 22.483-22.484c0-12.416-10.066-22.482-22.483-22.482s-22.483 10.066-22.483 22.482z" fill="none" stroke="#000" stroke-miterlimit="2.613"/></g><g transform="translate(145.2 639.76)"><path d="m0 0c0 7.521 6.097 13.618 13.617 13.618 7.521 0 13.616-6.097 13.616-13.618 0-7.52-6.095-13.616-13.616-13.616-7.52 0-13.617 6.096-13.617 13.616" fill="#c0311a"/><path d="m0 0c0 7.521 6.097 13.618 13.617 13.618 7.521 0 13.616-6.097 13.616-13.618 0-7.52-6.095-13.616-13.616-13.616-7.52 0-13.617 6.096-13.617 13.616zm-3.199 6.573c2.628 6.719 9.166 11.477 16.816 11.477 7.938 0 14.681-5.125 17.096-12.247" fill="none" stroke="#000" stroke-miterlimit="2.613"/></g><path d="m200.12 681.86h-14.131v-4.869h14.131z" fill="none" stroke="#000" stroke-linecap="square" stroke-miterlimit="2"/><g transform="translate(204.63 639.3)"><path d="M 0,0 C 0,12.418 10.066,22.484 22.484,22.484 34.9,22.484 44.965,12.418 44.965,0 44.965,-12.416 34.9,-22.482 22.484,-22.482 10.066,-22.482 0,-12.416 0,0" fill="#fff"/><path d="m0 0c0 12.418 10.066 22.484 22.484 22.484 12.416 0 22.481-10.066 22.481-22.484 0-12.416-10.065-22.482-22.481-22.482-12.418 0-22.484 10.066-22.484 22.482z" fill="none" stroke="#000" stroke-miterlimit="2.613"/></g><g transform="translate(213.5 639.3)"><path d="m0 0c0 7.521 6.097 13.618 13.618 13.618 7.52 0 13.616-6.097 13.616-13.618 0-7.52-6.096-13.616-13.616-13.616-7.521 0-13.618 6.096-13.618 13.616" fill="#c0311a"/><path d="m0 0c0 7.521 6.097 13.618 13.618 13.618 7.52 0 13.616-6.097 13.616-13.618 0-7.52-6.096-13.616-13.616-13.616-7.521 0-13.618 6.096-13.618 13.616zm-3.198 6.573c2.627 6.719 9.166 11.477 16.816 11.477 7.937 0 14.68-5.125 17.096-12.247" fill="none" stroke="#000" stroke-miterlimit="2.613"/></g><g transform="translate(336.81 472.55)"><path d="m0 0c0 12.418 10.067 22.484 22.485 22.484 12.416 0 22.482-10.066 22.482-22.484 0-12.417-10.066-22.483-22.482-22.483-12.418 0-22.485 10.066-22.485 22.483" fill="#fff"/><path d="m0 0c0 12.418 10.067 22.484 22.485 22.484 12.416 0 22.482-10.066 22.482-22.484 0-12.417-10.066-22.483-22.482-22.483-12.418 0-22.485 10.066-22.485 22.483z" fill="none" stroke="#000" stroke-miterlimit="2.613"/></g><g transform="translate(345.68 472.55)"><path d="m0 0c0 7.52 6.097 13.618 13.618 13.618 7.519 0 13.616-6.098 13.616-13.618 0-7.521-6.097-13.616-13.616-13.616-7.521 0-13.618 6.095-13.618 13.616" fill="#c0311a"/><path d="m0 0c0 7.52 6.097 13.618 13.618 13.618 7.519 0 13.616-6.098 13.616-13.618 0-7.521-6.097-13.616-13.616-13.616-7.521 0-13.618 6.095-13.618 13.616zm-3.199 6.573c2.627 6.719 9.166 11.477 16.817 11.477 7.937 0 14.679-5.125 17.095-12.247" fill="none" stroke="#000" stroke-miterlimit="2.613"/></g><g transform="translate(403.8 472.31)"><path d="m0 0c0 12.417 10.065 22.482 22.483 22.482s22.484-10.065 22.484-22.482c0-12.418-10.066-22.484-22.484-22.484s-22.483 10.066-22.483 22.484" fill="#fff"/><path d="m0 0c0 12.417 10.065 22.482 22.483 22.482s22.484-10.065 22.484-22.482c0-12.418-10.066-22.484-22.484-22.484s-22.483 10.066-22.483 22.484z" fill="none" stroke="#000" stroke-miterlimit="2.613"/></g><g transform="translate(412.67 472.31)"><path d="m0 0c0 7.52 6.096 13.616 13.616 13.616s13.617-6.096 13.617-13.616-6.097-13.618-13.617-13.618-13.616 6.098-13.616 13.618" fill="#c0311a"/><path d="m0 0c0 7.52 6.096 13.616 13.616 13.616s13.617-6.096 13.617-13.616-6.097-13.618-13.617-13.618-13.616 6.098-13.616 13.618zm-3.2 6.573c2.628 6.719 9.166 11.477 16.816 11.477 7.939 0 14.681-5.125 17.098-12.247" fill="none" stroke="#000" stroke-miterlimit="2.613"/></g><path d="m399.79 529.55h-12.374v55.48h12.374z" fill="none" stroke="#000" stroke-linecap="square" stroke-miterlimit="2"/><path d="m415.26 317.13h-35.246v25.27h35.246z" fill="#fff" stroke="#000" stroke-linecap="square" stroke-miterlimit="2"/><g transform="translate(384.16 329.76)"><path d="m0 0c0-3.164 6.031-5.731 13.475-5.731 7.441 0 13.473 2.567 13.473 5.731 0 3.166-6.032 5.732-13.473 5.732-7.444 0-13.475-2.566-13.475-5.732" fill="#fff"/><path d="m0 0c0-3.164 6.031-5.731 13.475-5.731 7.441 0 13.473 2.567 13.473 5.731 0 3.166-6.032 5.732-13.473 5.732-7.444 0-13.475-2.566-13.475-5.732z" fill="none" stroke="#000" stroke-linecap="square" stroke-miterlimit="2"/></g><g transform="translate(193.36 688.46)"><path d="m0 0v11.083" stroke="#000" stroke-miterlimit="2" stroke-width=".75"/></g><g transform="translate(396.08 688.46)"><path d="m0 0v11.083" stroke="#000" stroke-miterlimit="2" stroke-width=".75"/></g><g transform="translate(335.21 695.22)"><path d="m0 0h56.942" stroke="#000" stroke-miterlimit="2" stroke-width=".75"/></g><g transform="translate(393.39 695.76)"><path d="m0 0c-0.868 0.262-1.432 0.504-2.129 0.783v-2.648c0.25 0.118 1.261 0.521 2.129 0.783 0.929 0.281 1.772 0.473 2.318 0.541-0.546 0.068-1.389 0.261-2.318 0.541"/></g><g transform="translate(252.21 695.22)"><path d="m0 0h-55.287" stroke="#000" stroke-miterlimit="2" stroke-width=".75"/></g><g transform="translate(195.68 694.68)"><path d="m0 0c0.868-0.262 1.433-0.503 2.129-0.783v2.648c-0.25-0.118-1.261-0.521-2.129-0.783-0.929-0.281-1.771-0.473-2.317-0.541 0.546-0.068 1.388-0.26 2.317-0.541"/></g><g transform="translate(130.01 616.74)"><path d="m0 0h209.64" stroke="#000" stroke-miterlimit="2" stroke-width=".75"/></g><g transform="translate(339.04 488.69)"><path d="m0 0v122.86" stroke="#000" stroke-miterlimit="2" stroke-width=".75"/></g><g transform="translate(339.04 272.69)"><path d="m0 0v184.68"/><path d="m0 0v184.68m-84.941-100.61v198.52m0 57.641v-27.724" fill="none" stroke="#000" stroke-miterlimit="2" stroke-width=".75"/></g><g transform="translate(253.56 614.17)"><path d="m0 0c-0.262-0.867-0.504-1.432-0.783-2.128h2.648c-0.118 0.249-0.521 1.261-0.783 2.128-0.28 0.93-0.472 1.772-0.541 2.318-0.068-0.546-0.26-1.388-0.541-2.318"/></g><g transform="translate(254.1 340.23)"><path d="m0 0v-68.533" fill="none" stroke="#000" stroke-miterlimit="2" stroke-width=".75"/></g><g transform="translate(254.64 272.33)"><path d="m0 0c0.263 0.868 0.504 1.433 0.784 2.129h-2.649c0.119-0.249 0.521-1.261 0.783-2.129 0.281-0.929 0.473-1.771 0.541-2.317 0.069 0.546 0.261 1.388 0.541 2.317"/></g><g transform="translate(61.974 268.35)"><path d="m0 0 224.05-6.639-15.931 0.528v-13.923h28.406v12.33" fill="none" stroke="#000" stroke-linecap="square" stroke-miterlimit="2"/></g><g transform="translate(169.64 297.17)"><path d="m0 0v-23.914" fill="none" stroke="#000" stroke-miterlimit="2" stroke-width=".75"/></g><g transform="translate(170.18 272.02)"><path d="m0 0c0.263 0.868 0.504 1.432 0.784 2.129h-2.649c0.119-0.249 0.521-1.261 0.783-2.129 0.281-0.929 0.473-1.772 0.541-2.318 0.069 0.546 0.261 1.389 0.541 2.318"/></g><g transform="translate(169.64 338.99)"><path d="m0 0v-21.05" fill="none" stroke="#000" stroke-miterlimit="2" stroke-width=".75"/></g><g transform="translate(169.1 340.23)"><path d="m0 0c-0.262-0.868-0.504-1.432-0.783-2.128h2.648c-0.118 0.249-0.521 1.26-0.783 2.128-0.28 0.929-0.472 1.772-0.541 2.318-0.068-0.546-0.26-1.389-0.541-2.318"/></g><g transform="translate(75.657 269.34)"><path d="m0 0h291.97" fill="none" stroke="#000" stroke-dasharray="6, 6" stroke-miterlimit="2" stroke-width=".75"/></g><g transform="translate(69.179 264.07)"><path d="m0 0v-10.959" fill="none" stroke="#000" stroke-miterlimit="2" stroke-width=".75"/></g><g transform="translate(68.641 265.31)"><path d="m0 0c-0.262-0.868-0.504-1.432-0.783-2.128h2.648c-0.118 0.249-0.521 1.26-0.783 2.128-0.281 0.929-0.473 1.772-0.541 2.318-0.068-0.546-0.261-1.389-0.541-2.318"/></g><g transform="translate(286.02 300.15)"><path d="m0 0v-29.504m32.484 21.905h16.607" fill="none" stroke="#000" stroke-miterlimit="2" stroke-width=".75"/></g><g transform="translate(336.35 293.09)"><path d="m0 0c-0.868 0.263-1.432 0.504-2.129 0.783v-2.648c0.249 0.118 1.261 0.521 2.129 0.783 0.929 0.28 1.772 0.472 2.318 0.541-0.546 0.068-1.389 0.261-2.318 0.541"/></g><g transform="translate(289.95 292.55)"><path d="m0 0h9.085" fill="none" stroke="#000" stroke-miterlimit="2" stroke-width=".75"/></g><g transform="translate(288.71 292.01)"><path d="m0 0c0.868-0.263 1.432-0.504 2.129-0.784v2.649c-0.249-0.118-1.261-0.522-2.129-0.783-0.929-0.281-1.772-0.473-2.318-0.541 0.546-0.069 1.389-0.261 2.318-0.541"/></g><g transform="translate(326.84 273.32)"><path d="m0 0v65.893" fill="none" stroke="#000" stroke-miterlimit="2" stroke-width=".75"/></g><g transform="translate(327.38 272.08)"><path d="m0 0c0.262 0.868 0.504 1.433 0.783 2.129h-2.649c0.119-0.249 0.522-1.261 0.784-2.129 0.28-0.929 0.472-1.771 0.541-2.317 0.068 0.546 0.26 1.388 0.541 2.317"/></g><g transform="translate(278.58 259.4)"><path d="m0 0-7.791-2.375m23.712 9.873-6.398-1.95m7.981-11.232-2.945-4.531m-16.252 9.258-2.944-4.529m14.259 9.382-2.943-4.53m-5.878-3.676 1.641-6.214m13.716 16.248 2.542-4.236m-3.56-1.271 0.129-4.217m-21.321 4.365 0.129-4.216m11.285 0.978-0.873 0.571-1.744 0.094-1.622-0.95m11.514-2.775-0.922-0.961-1.845-0.16-1.714 1.603" fill="none" stroke="#000" stroke-linecap="square" stroke-miterlimit="2" stroke-width=".5"/></g><g transform="translate(286.01 260.49)"><path d="m0 0v6.938s46.07 0.902 78.744-0.982" fill="none" stroke="#000" stroke-miterlimit="2"/></g><g transform="translate(62.845 352.84)"><path d="m0 0 0.011-9.01 30.442-0.165v9.692z" fill="none" stroke="#000" stroke-linecap="square" stroke-miterlimit="2"/></g><g transform="translate(93.298 353.35)"><path d="m0 0v-9.692l49.734-0.428v10.547z" fill="#c0311a"/><path d="m0 0v-9.692l49.734-0.428v10.547zm49.734 0.427v-10.547l50.563-0.632v11.687z" fill="none" stroke="#000" stroke-linecap="square" stroke-miterlimit="2"/></g><g transform="translate(193.6 354.29)"><path d="m0 0v-11.687l50.139-0.402v12.631z" fill="#c0311a"/><path d="m0 0v-11.687l50.139-0.402v12.631zm50.139 0.542v-12.631l48.136-0.532 3.121 13.661z" fill="none" stroke="#000" stroke-linecap="square" stroke-miterlimit="2"/></g><g transform="translate(330.4 355.92)"><path d="m0 0-38.595-0.589v-13.661l38.595-0.367z" fill="#c0311a"/><path d="m0 0-38.595-0.589v-13.661l38.595-0.367z" fill="none" stroke="#000" stroke-linecap="square" stroke-miterlimit="2"/></g><g transform="translate(330.4 341.3)"><path d="m0 0 5.674-0.118-0.996 1.633h0.995v0.599l-2.92 0.774 1.324 1.068 1.592 0.676-2e-3 3.42-2.312 0.634 1.443 1.22 0.867 0.489-2e-3 2.545v0.133l-3.51 0.8 1.004 0.728-3.157 0.016z" fill="#fff"/><path d="m0 0 5.674-0.118-0.996 1.633h0.995v0.599l-2.92 0.774 1.324 1.068 1.592 0.676-2e-3 3.42-2.312 0.634 1.443 1.22 0.867 0.489-2e-3 2.545v0.133l-3.51 0.8 1.004 0.728-3.157 0.016z" fill="none" stroke="#000" stroke-linecap="square" stroke-miterlimit="2"/></g><g transform="translate(326.84 358.17)"><path d="m0 0v39.902m-6e-3 45.162v-24.443" fill="none" stroke="#000" stroke-miterlimit="2" stroke-width=".75"/></g><g transform="translate(326.29 444.47)"><path d="m0 0c-0.263-0.867-0.504-1.432-0.784-2.128h2.649c-0.118 0.249-0.522 1.261-0.783 2.128-0.281 0.929-0.473 1.771-0.541 2.318-0.069-0.547-0.261-1.389-0.541-2.318"/></g><g transform="translate(396.73 411.1)"><path d="m0 0h13.861" fill="none" stroke="#000" stroke-miterlimit="2" stroke-width=".75"/></g><g transform="translate(395.49 410.56)"><path d="m0 0c0.868-0.263 1.433-0.504 2.129-0.784v2.649c-0.249-0.119-1.261-0.521-2.129-0.783-0.929-0.281-1.772-0.473-2.317-0.541 0.545-0.069 1.388-0.261 2.317-0.541"/></g><g transform="translate(314.04 447.16)"><path d="m0 0h44.291m38.809-9.789h25.067" fill="none" stroke="#000" stroke-miterlimit="2" stroke-width=".75"/></g><g transform="translate(423.45 437.91)"><path d="m0 0c-0.868 0.262-1.433 0.504-2.129 0.783v-2.648c0.249 0.119 1.261 0.521 2.129 0.783 0.929 0.281 1.771 0.473 2.317 0.541-0.546 0.068-1.388 0.261-2.317 0.541"/></g><g transform="translate(395.9 436.84)"><path d="m0 0c0.868-0.262 1.433-0.504 2.129-0.783v2.648c-0.249-0.119-1.261-0.521-2.129-0.783-0.929-0.281-1.771-0.473-2.317-0.541 0.546-0.068 1.388-0.261 2.317-0.541"/></g><g transform="translate(426.14 448.11)"><path d="m0 0v-14.724m-62.856 64.751h13.249" fill="none" stroke="#000" stroke-miterlimit="2" stroke-width=".75"/></g><g transform="translate(361.64 497.6)"><path d="m0 0c0.868-0.263 1.433-0.504 2.129-0.784v2.649c-0.249-0.119-1.261-0.521-2.129-0.783-0.928-0.281-1.771-0.473-2.317-0.541 0.546-0.069 1.389-0.261 2.317-0.541"/></g><g transform="translate(422.37 498.42)"><path d="m0 0h-5.381" fill="none" stroke="#000" stroke-miterlimit="2" stroke-width=".75"/></g><g transform="translate(423.61 498.96)"><path d="m0 0c-0.868 0.263-1.432 0.504-2.129 0.784v-2.649c0.249 0.119 1.261 0.521 2.129 0.783 0.929 0.281 1.772 0.473 2.318 0.541-0.546 0.069-1.389 0.261-2.318 0.541"/></g><g transform="translate(426.3 510.72)"><path d="m0 0v-14.725m-67.349 13.807v-14.725m43.535-101.83h19.763" fill="none" stroke="#000" stroke-miterlimit="2" stroke-width=".75"/></g><g transform="translate(423.49 393.79)"><path d="m0 0c-0.868 0.262-1.433 0.504-2.129 0.783v-2.648c0.249 0.118 1.261 0.521 2.129 0.783 0.929 0.281 1.771 0.473 2.317 0.541-0.546 0.068-1.388 0.261-2.317 0.541"/></g><g transform="translate(401.25 392.71)"><path d="m0 0c0.868-0.262 1.432-0.504 2.129-0.783v2.648c-0.249-0.119-1.261-0.521-2.129-0.783-0.929-0.281-1.772-0.473-2.318-0.541 0.546-0.068 1.389-0.261 2.318-0.541"/></g><g transform="translate(426.14 375.68)"><path d="m0 0h54.151" fill="none" stroke="#000" stroke-dasharray="6, 6" stroke-miterlimit="2" stroke-width=".75"/></g><g transform="translate(409.52 342.4)"><path d="m0 0v48.095" fill="none" stroke="#000" stroke-miterlimit="2" stroke-width=".75"/></g><g transform="translate(394.8 366.59)"><path d="m0 0h84.173m-69.033 15.971h70.354" fill="none" stroke="#000" stroke-dasharray="6, 6" stroke-miterlimit="2" stroke-width=".75"/></g><g transform="translate(480.29 374.96)"><path d="m0 0v41.484m-3.933-5.023h-13.6" fill="none" stroke="#000" stroke-miterlimit="2" stroke-width=".75"/></g><g transform="translate(477.6 411.96)"><path d="m0 0c-0.868 0.262-1.432 0.504-2.129 0.783v-2.648c0.249 0.118 1.261 0.521 2.129 0.783 0.929 0.281 1.772 0.473 2.318 0.541-0.546 0.068-1.389 0.261-2.318 0.541"/></g><g transform="translate(409.77 375.68)"><path d="m0 0h16.373" fill="none" stroke="#000" stroke-miterlimit="2" stroke-width=".75"/></g><g transform="translate(480.29 380.08)"><path d="m0 0c0-38.126-30.908-69.034-69.033-69.034" fill="none" stroke="#000" stroke-dasharray="6, 6" stroke-miterlimit="2" stroke-width=".75"/></g><g transform="translate(426.14 397.13)"><path d="m0 0v-11.716" fill="none" stroke="#000" stroke-linecap="square" stroke-miterlimit="2" stroke-width=".75"/></g><g transform="translate(413.98 396.8)"><path d="m0 0c2.552 5.066 9.641 6.876 15.39 5.258" fill="none" stroke="#000" stroke-miterlimit="2" stroke-width=".75"/></g><g transform="translate(413.9 395.45)"><path d="m0 0c0.625 0.657 1.095 1.053 1.657 1.549l-2.365 1.191c-6e-3 -0.276-0.102-1.361-0.259-2.253-0.167-0.956-0.374-1.795-0.558-2.314 0.306 0.457 0.856 1.124 1.525 1.827"/></g><g transform="translate(435.74 261.4)"><path d="m0 0v4.015" fill="none" stroke="#000" stroke-linecap="square" stroke-miterlimit="2" stroke-width=".75"/></g><g transform="translate(435.2 266.65)"><path d="m0 0c-0.263-0.868-0.504-1.432-0.783-2.129h2.648c-0.118 0.249-0.521 1.261-0.783 2.129-0.28 0.929-0.473 1.772-0.541 2.318-0.068-0.546-0.261-1.389-0.541-2.318"/></g><g transform="translate(436.27 260.16)"><path d="m0 0c0.263 0.868 0.504 1.433 0.783 2.129h-2.648c0.118-0.249 0.521-1.261 0.783-2.129 0.28-0.928 0.473-1.771 0.541-2.317 0.069 0.546 0.261 1.389 0.541 2.317"/></g><g transform="translate(381.46 558.69)"><path d="m0 0-25.985 25.985 12.027 12.026 26.02-26.02 26.043 26.02 12.027-12.026-26.034-26.031 26.088-26.087-12.026-12.027-26.07 26.102-26.103-26.102-12.026 12.027 26.068 26.068z" fill="#fff" fill-rule="evenodd"/><path d="m0 0-25.985 25.985 12.027 12.026 26.02-26.02 26.043 26.02 12.027-12.026-26.034-26.031 26.088-26.087-12.026-12.027-26.07 26.102-26.103-26.102-12.026 12.027 26.068 26.068z" fill="none" stroke="#000" stroke-miterlimit="3.864"/></g><g transform="translate(418.33 590.33)"><path d="m0 0c-1.623-1.623-0.726-4.477 1.173-6.375s4.753-2.796 6.376-1.173c1.897 1.897 0.278 4.652-0.24 5.169l-1.07 1.07-2.23-2.23 1.473-1.472 0.823 0.821c0.289-0.584 0.318-1.337-0.229-1.886-0.939-0.939-2.57-0.129-3.65 0.953-1.082 1.082-1.892 2.712-0.953 3.651 0.519 0.519 1.251 0.469 1.94 0.192l0.56 1.709c-1.453 0.573-2.926 0.618-3.973-0.429m-9.994-10.179-1.302-1.3 7.365-7.365 1.251 1.253-4.683 4.683s7.238-2.152 7.226-2.141l1.272 1.271-7.365 7.365-1.252-1.251 4.661-4.661zm-5.018-5.016-1.252-1.252 7.363-7.364 1.253 1.252zm-6.29-9.052c0.685 0.685 1.472 0.874 2.237 0.813l0.123 1.892c-1.371 0.08-2.621-0.02-3.853-1.252-1.965-1.966-0.082-6.296 4.533-3.867 2.382 1.254 3.176-0.575 1.875-1.876-0.831-0.831-1.711-0.812-2.588-0.678l-0.299-1.795c1.776-0.249 2.952-0.408 4.361 1 2.503 2.505 0.046 7.366-4.569 4.96-2.334-1.206-2.622 1e-3 -1.82 0.803m-8.419-8.418c0.685 0.685 1.473 0.875 2.239 0.813l0.122 1.893c-1.371 0.079-2.621-0.02-3.853-1.253-1.966-1.966-0.082-6.295 4.532-3.867 2.384 1.256 3.177-0.575 1.876-1.876-0.832-0.831-1.711-0.813-2.588-0.678l-0.299-1.795c1.776-0.25 2.952-0.409 4.36 1 2.504 2.505 0.048 7.366-4.569 4.959-2.334-1.206-2.623 1e-3 -1.82 0.804m-7.421-12.024c-1.093 1.094-1.85 2.752-0.923 3.682 0.93 0.928 2.589 0.17 3.682-0.923 1.093-1.092 1.852-2.751 0.922-3.681-0.93-0.928-2.587-0.171-3.681 0.922m5.154-2.394c1.614 1.613 0.767 4.495-1.143 6.405s-4.792 2.756-6.406 1.143c-1.623-1.623-0.767-4.495 1.143-6.404 1.911-1.911 4.783-2.768 6.406-1.144m-13.961-1.995c0.41 0.411 1.134 0.352 1.629-0.143 0.482-0.483 0.553-1.218 0.142-1.629l-1.819-1.819-1.771 1.772zm2.881 1.109c-1.301 1.301-3.258 1.459-4.355 0.364l-3.071-3.071 7.365-7.364 1.252 1.252-2.647 2.646 1.311 1.311 3.742-1.553 1.35 1.351-3.981 1.75c0.262 0.677 0.16 2.186-0.966 3.314m-4.955-11.881-1.753-0.439c0.221-0.632 0.172-1.462-0.356-1.991-0.938-0.939-2.707-0.383-3.847 0.756-1.138 1.139-1.693 2.907-0.755 3.846 0.529 0.528 1.398 0.638 2.016 0.429l0.288 1.806c-1.217 0.394-2.779 0.236-3.777-0.761-1.623-1.624-0.979-4.616 0.976-6.573 1.957-1.955 4.949-2.6 6.573-0.977 1.007 1.008 1.113 2.565 0.635 3.904" fill-rule="evenodd"/></g><g transform="translate(417.94 529.16)"><path d="m0 0 4.418 4.419 0.695-0.695c1.038-1.037 0.889-2.868-0.332-4.087-1.218-1.22-3.05-1.368-4.086-0.332zm-0.778-2.167c1.721-1.722 4.776-1.463 6.803 0.562 2.024 2.025 2.283 5.08 0.56 6.802l-1.945 1.946-7.364-7.364zm-0.775 11.336-1.382-2.851-1.467 1.467zm-3.451-7.111 1.349-1.349 4.811 9.917-0.625 0.626-0.626 0.626-9.917-4.811 1.35-1.351 2.278 1.104 2.484-2.483zm-6.267 13.632c1.091 1.092 2.751 1.852 3.68 0.923 0.929-0.93 0.171-2.588-0.923-3.681-1.093-1.094-2.75-1.851-3.68-0.922-0.929 0.929-0.171 2.587 0.923 3.68m-2.395-5.153c1.613-1.614 4.494-0.767 6.404 1.143 1.911 1.909 2.756 4.791 1.143 6.405-1.622 1.624-4.494 0.766-6.403-1.143-1.911-1.91-2.768-4.781-1.144-6.405m0.418 11.549c0.41-0.412 0.353-1.136-0.142-1.63-0.483-0.484-1.219-0.554-1.629-0.142l-1.821 1.818 1.773 1.773zm1.109-2.882c1.3 1.301 1.459 3.258 0.364 4.354l-3.072 3.072-7.364-7.365 1.252-1.252 2.647 2.647 1.31-1.311-1.551-3.743 1.35-1.349 1.75 3.98c0.676-0.261 2.187-0.16 3.314 0.967" fill-rule="evenodd"/></g><g transform="translate(386.22 572.67)"><path d="m0 0-7.365-7.364 4.666-4.665 1.473 1.472-3.412 3.413 5.89 5.893zm-2.645 2.646-1.253 1.252-7.363-7.364 1.252-1.252zm-8.786 4.62-1.384-2.85-1.467 1.467zm-3.453-7.11 1.35-1.35 4.812 9.918-1.253 1.251-9.917-4.811 1.35-1.35 2.279 1.105 2.484-2.484zm-3.393 15.176c0.41-0.41 0.352-1.135-0.142-1.629-0.484-0.484-1.219-0.554-1.629-0.143l-1.821 1.819 1.772 1.772zm1.109-2.882c1.299 1.301 1.459 3.26 0.365 4.355l-3.074 3.071-7.363-7.364 1.252-1.253 2.647 2.647 1.311-1.311-1.552-3.741 1.35-1.351 1.752 3.98c0.675-0.261 2.186-0.161 3.312 0.967" fill-rule="evenodd"/></g><g transform="translate(379.21 513.33)"><path d="m0 0h-1.2v4.728h-1.736v1.016h4.672v-1.016h-1.736z"/></g><g transform="translate(382.26 513.33)"><path d="m0 0h1.175v2.248h1.241c0.887 0 0.935-0.304 0.935-1.088 0-0.592 0.048-0.888 0.128-1.16h1.328v0.152c-0.256 0.096-0.256 0.304-0.256 1.144 0 1.072-0.256 1.248-0.728 1.456 0.568 0.192 0.888 0.736 0.888 1.368 0 0.496-0.28 1.624-1.808 1.624h-2.903zm1.175 3.216v1.536h1.496c0.705 0 0.84-0.448 0.84-0.752 0-0.568-0.303-0.784-0.927-0.784z"/></g><g transform="translate(390.17 515.51)"><path d="m0 0h1.464l-0.712 2.272h-0.016zm-0.72-2.176h-1.264l2.048 5.744h1.384l2.024-5.744h-1.304l-0.368 1.184h-2.12z"/></g><g transform="translate(398.35 517.2)"><path d="m0 0c-0.095 0.344-0.279 0.992-1.271 0.992-0.576 0-1.424-0.384-1.424-2.008 0-1.032 0.407-1.96 1.424-1.96 0.664 0 1.128 0.376 1.271 1.08h1.2c-0.24-1.248-1.055-2.12-2.496-2.12-1.527 0-2.624 1.032-2.624 3.016 0 2.008 1.16 3.032 2.641 3.032 1.72 0 2.416-1.184 2.479-2.032z"/></g><g transform="translate(402.35 513.33)"><path d="m0 0h-1.2v5.744h1.2v-2.336l2.193 2.336h1.551l-2.343-2.352 2.479-3.392h-1.544l-1.775 2.52-0.561-0.576z"/></g><g transform="translate(408.3 515.1)"><path d="m0 0c7e-3 -0.32 0.168-0.928 1.215-0.928 0.569 0 1.201 0.136 1.201 0.744 0 0.448-0.433 0.568-1.04 0.712l-0.617 0.144c-0.927 0.216-1.824 0.424-1.824 1.688 0 0.64 0.344 1.768 2.208 1.768 1.76 0 2.233-1.152 2.24-1.856h-1.152c-0.031 0.256-0.128 0.864-1.176 0.864-0.456 0-1-0.168-1-0.688 0-0.448 0.368-0.544 0.609-0.6l1.399-0.344c0.784-0.192 1.504-0.512 1.504-1.544 0-1.728-1.76-1.88-2.264-1.88-2.095 0-2.456 1.208-2.456 1.92z"/></g></g><text transform="matrix(1 0 0 -1 29.759 227.67)" fill="#000000" font-family="Helvetica" font-size="9px"><tspan x="0 3.5009999 8.7299995 13.734 16.731001 19.233 21.231001 26.235001 30.735001 35.738998 38.241001 40.238998 45.243 50.247002 52.749001 55.250999 60.255001 62.252998 66.752998 69.254997 72.251999 77.255997 79.487999 84.491997 87.488998 92.492996 97.497002 101.997 107.001 109.503 111.501 113.499 118.503 123.507 126.009 131.013 136.017 138.519 143.52299 148.52699 151.02901 156.033 161.037 166.041 169.03799 174.04201 179.04601 183.54601 188.55 191.052 193.554 198.558 203.562 206.064 208.56599 213.57001 218.57401 223.578 228.078 230.58 235.584 240.588 243.09 245.592 250.59599 255.42 259.69501 264.69901 267.20099 272.20499 274.707 279.207 284.211 287.20801 291.85199 294.354 296.85599 301.35599 306.35999 311.36401 313.866 319.86899 324.87299 329.37299 331.875 333.87299 338.87701 343.88101 346.383 351.38699 357.61499 360.117 365.121 370.125" y="0">*For locating this reference line on an approach that does not have a curb, see Section 8C.01.</tspan></text><g clip-path="url(#d)"><g transform="translate(149.14 601.55)"><path d="m0 0h19.369" fill="none" stroke="#000" stroke-miterlimit="2" stroke-width=".75"/></g><g transform="translate(169.74 602.09)"><path d="m0 0c-0.867 0.263-1.432 0.504-2.128 0.784v-2.649c0.249 0.119 1.261 0.521 2.128 0.783 0.93 0.281 1.772 0.473 2.318 0.541-0.546 0.069-1.388 0.261-2.318 0.541"/></g><g transform="translate(147.9 601.01)"><path d="m0 0c0.867-0.262 1.432-0.503 2.128-0.783v2.648c-0.249-0.118-1.261-0.521-2.128-0.783-0.93-0.281-1.772-0.472-2.318-0.541 0.546-0.068 1.388-0.26 2.318-0.541"/></g><g transform="translate(145.2 611.63)"><path d="m0 0v-14.349m27.233 14.349v-14.349" fill="none" stroke="#000" stroke-miterlimit="2" stroke-width=".75"/></g></g><text transform="matrix(1 0 0 -1 136.89 588.41)" fill="#000000" font-family="Helvetica" font-size="9px"><tspan x="0 5.0040002 7.506 9.5039997 14.508 19.007999 24.011999 29.016001 33.515999 36.018002 41.021999" y="0">8 inches or</tspan><tspan x="2.7449999 7.7490001 12.753 15.255 17.253 22.257 26.757 31.761 36.764999" y="9.5039997">12 inches</tspan></text><g clip-path="url(#c)"><g transform="translate(372.82 510.3)"><path d="m0 0v13.962h13.961v13.96h13.96v-13.96h13.961v-13.962z" fill="#fff"/><path d="m0 0v13.962h13.961v13.96h13.96v-13.96h13.961v-13.962z" fill="none" stroke="#000" stroke-width=".5"/></g><g transform="translate(409.12 515.97)"><path d="m0 0c0 2.437-2.914 1.675-3.001 2.829-0.044 0.565 0.501 0.739 0.957 0.718 0.697-0.023 0.914-0.544 0.914-0.544l0.87 0.26c-0.306 0.761-0.892 1.263-1.763 1.263-1.108 0-1.936-0.459-1.936-1.676 0-1.023 0.828-1.393 1.196-1.545 0.807-0.326 1.764-0.458 1.764-1.284 0-0.521-0.392-0.913-0.957-0.913-0.588 0-1.067 0.325-1.327 0.913l-0.937-0.347c0.414-0.937 1.197-1.573 2.264-1.573 0.521 0 1.001 0.18 1.347 0.485 0.394 0.347 0.609 0.847 0.609 1.414m-4.961-1.784-2.047 3.787 1.917 2.414h-1.263l-1.958-2.46v2.46h-0.979v-6.201h0.979v2.131l0.654 0.805 1.565-2.936zm-5.811 1.261-0.936 0.349c-0.238-0.501-0.544-0.718-0.957-0.718-0.436 0-0.718 0.152-0.935 0.478-0.24 0.392-0.393 1.067-0.393 1.741 0 0.521 0.087 1.066 0.24 1.436 0.219 0.543 0.544 0.761 1.044 0.761 0.478 0 0.674-0.13 1.023-0.652l0.914 0.391c-0.414 0.872-1.002 1.263-1.937 1.263-0.697 0-1.218-0.239-1.589-0.696-0.434-0.545-0.695-1.525-0.695-2.503 0-0.783 0.173-1.567 0.456-2.11 0.392-0.762 0.981-1.116 1.894-1.116 0.892 0 1.5 0.463 1.871 1.376m-7.16 1.481h-1.241l0.632 1.741zm2.002-2.742-2.134 6.201h-0.979l-2.131-6.201h1.043l0.61 1.741h1.937l0.608-1.741zm-6.965 4.461c0-0.261-0.152-0.523-0.391-0.653-0.154-0.089-0.261-0.11-0.566-0.11h-1.175v1.523h1.175c0.326 0 0.412-0.021 0.566-0.108 0.239-0.131 0.391-0.392 0.391-0.652m1.111-4.461-1.09 2.893c0.566 0.262 0.959 0.915 0.959 1.568 0 0.629-0.393 1.283-0.937 1.544-0.304 0.152-0.631 0.196-1.108 0.196h-2.046v-6.201h0.979v2.698h1.175l1-2.698zm-5.268 5.331v0.87h-3.831v-0.87h1.416v-5.331h0.977v5.331z" fill-rule="evenodd"/></g><g transform="translate(390.76 527.11)"><path d="m0 0c0.031 0.998 0.243 1.815 0.727 2.632 0.363 0.666 0.907 1.21 1.513 1.664 0.15 0.091 0.271 0.181 0.392 0.272l0.454 0.242 0.424 0.242 0.423 0.242c0.333 0.212 0.575 0.574 0.575 0.938 0 0.635-0.726 1.149-1.573 1.149-0.877 0-1.422-0.423-1.573-1.21l-1.362 0.302c0.303 1.422 1.422 2.3 2.935 2.3 1.634 0 2.935-1.15 2.935-2.572 0-0.665-0.303-1.331-0.878-1.845-0.121-0.091-0.242-0.181-0.363-0.242l-0.423-0.272-0.455-0.242-0.422-0.242c-0.818-0.484-1.271-0.998-1.695-1.966h4.236v-1.392z"/></g><g transform="translate(335.15 506.05)"><path d="m0 0-7.295 1.763" fill="none" stroke="#000" stroke-miterlimit="2" stroke-width=".75"/></g><g transform="translate(336.48 506.29)"><path d="m0 0c-0.787 0.451-1.283 0.812-1.898 1.241l-0.594-2.581c0.27 0.059 1.345 0.225 2.25 0.286 0.968 0.065 1.832 0.064 2.38 8e-3 -0.518 0.189-1.295 0.565-2.138 1.046"/></g></g><text transform="matrix(1 0 0 -1 235.04 576.59)" fill="#000000" font-family="Helvetica" font-size="9px"><tspan x="0 5.0040002 10.008 12.51 15.012 17.514 20.016001 27.513 30.014999 36.513" y="0">17 ft MIN.</tspan><tspan x="-13.554 -9.0539999 -7.0560002 -2.052 2.9519999 5.9489999 10.953 15.957 20.457001 25.461 27.962999 32.966999 37.971001 42.75 47.025002" y="9.5039997">clearance above</tspan><tspan x="-15.759 -11.259 -8.2620001 -3.3929999 3.105 8.1090002 10.611 15.615 18.117001 20.618999 23.615999 28.620001 33.624001 38.627998 44.991001 49.724998" y="19.007999">crown of roadway</tspan><tspan x="216.855 221.85899 224.36099 226.35899 231.36301 235.86301 240.867 245.871" y="287.03699">4 inches</tspan><tspan x="216.855 224.35201 230.355 236.358 238.32001 240.82201 245.826 250.83 255.69901 259.974" y="296.54099">MAX. above</tspan><tspan x="216.855 221.85899 224.856 229.86 234.864 239.868 244.87199 247.37399 249.37199 254.01601 258.29099 263.29501" y="306.04501">ground level</tspan><tspan x="216.855 219.85201 224.35201 229.356 234.36 236.862 243.36 248.364 250.866 255.87 258.37201 263.37601" y="315.54901">(see Note 2)</tspan></text><g clip-path="url(#b)"><g transform="translate(450.56 271.75)"><path d="m0 0-11.305-6.811" stroke="#000" stroke-miterlimit="2" stroke-width=".75"/></g><g transform="translate(438.47 263.92)"><path d="m0 0c0.879 0.22 1.489 0.298 2.23 0.415l-1.352 2.276c-0.154-0.228-0.818-1.092-1.431-1.76-0.654-0.716-1.279-1.309-1.715-1.648 0.504 0.22 1.326 0.485 2.268 0.717"/></g></g><text transform="matrix(1 0 0 -1 471.23 323.29)" fill="#000000" font-family="Helvetica" font-size="9px"><tspan x="0 6.4980001 11.502 16.506001 21.51 24.011999 29.016001 32.013 38.511002 43.514999 45.513 50.516998 55.521" y="0">Counterweight</tspan><tspan x="0 2.997 7.4970002 12.501 17.504999 20.007 26.504999 31.509001 34.011002 39.014999 41.516998 46.521" y="9.5039997">(see Note 1)</tspan></text><g clip-path="url(#a)"><g transform="translate(469.33 319.27)"><path d="m0 0-50.071 6.796" stroke="#000" stroke-miterlimit="2" stroke-width=".75"/></g><g transform="translate(418 325.78)"><path d="m0 0c0.82-0.384 1.342-0.709 1.991-1.086l0.389 2.62c-0.265-0.081-1.325-0.332-2.222-0.463-0.96-0.143-1.818-0.207-2.37-0.196 0.529-0.148 1.335-0.461 2.212-0.875"/></g><g transform="translate(475.14 245.03)"><path d="m0 0c-13.384 5.793-34.878 10.19-51.28 12.529" fill="none" stroke="#000" stroke-miterlimit="2" stroke-width=".75"/></g><g transform="translate(89.944 358.53)"><path d="m0 0c0 2.684 2.053 4.855 4.589 4.855 2.537 0 4.592-2.171 4.592-4.855 0-2.685-2.055-4.857-4.592-4.857-2.536 0-4.589 2.172-4.589 4.857" fill="#c0311a" fill-rule="evenodd"/><path d="m0 0c0 2.684 2.053 4.855 4.589 4.855 2.537 0 4.592-2.171 4.592-4.855 0-2.685-2.055-4.857-4.592-4.857-2.536 0-4.589 2.172-4.589 4.857z" fill="none" stroke="#000" stroke-miterlimit="2.613" stroke-width=".55"/></g><g transform="translate(151.98 359.35)"><path d="m0 0c0 2.683 2.055 4.854 4.589 4.854 2.542 0 4.593-2.171 4.593-4.854 0-2.686-2.051-4.858-4.593-4.858-2.534 0-4.589 2.172-4.589 4.858" fill="#c0311a" fill-rule="evenodd"/><path d="m0 0c0 2.683 2.055 4.854 4.589 4.854 2.542 0 4.593-2.171 4.593-4.854 0-2.686-2.051-4.858-4.593-4.858-2.534 0-4.589 2.172-4.589 4.858z" fill="none" stroke="#000" stroke-miterlimit="2.613" stroke-width=".55"/></g><g transform="translate(236.57 360.34)"><path d="m0 0c0 2.684 2.056 4.854 4.589 4.854 2.542 0 4.594-2.17 4.594-4.854 0-2.686-2.052-4.858-4.594-4.858-2.533 0-4.589 2.172-4.589 4.858" fill="#c0311a" fill-rule="evenodd"/><path d="m0 0c0 2.684 2.056 4.854 4.589 4.854 2.542 0 4.594-2.17 4.594-4.854 0-2.686-2.052-4.858-4.594-4.858-2.533 0-4.589 2.172-4.589 4.858z" fill="none" stroke="#000" stroke-miterlimit="2.613" stroke-width=".55"/></g><g transform="translate(352.07 628.35)"><path d="m0 0c0 2.683 2.055 4.854 4.588 4.854 2.543 0 4.594-2.171 4.594-4.854 0-2.686-2.051-4.858-4.594-4.858-2.533 0-4.588 2.172-4.588 4.858" fill="#c0311a" fill-rule="evenodd"/><path d="m0 0c0 2.683 2.055 4.854 4.588 4.854 2.543 0 4.594-2.171 4.594-4.854 0-2.686-2.051-4.858-4.594-4.858-2.533 0-4.588 2.172-4.588 4.858z" fill="none" stroke="#000" stroke-miterlimit="2.613" stroke-width=".55"/></g><g transform="translate(360.82 561.44)"><path d="m0 0c0 2.684 2.055 4.854 4.588 4.854 2.543 0 4.594-2.17 4.594-4.854 0-2.686-2.051-4.857-4.594-4.857-2.533 0-4.588 2.171-4.588 4.857" fill="#c0311a" fill-rule="evenodd"/><path d="m0 0c0 2.684 2.055 4.854 4.588 4.854 2.543 0 4.594-2.17 4.594-4.854 0-2.686-2.051-4.857-4.594-4.857-2.533 0-4.588 2.171-4.588 4.857z" fill="none" stroke="#000" stroke-miterlimit="2.613" stroke-width=".55"/></g><g transform="translate(368.21 504.67)"><path d="m0 0c0 2.683 2.056 4.854 4.59 4.854 2.541 0 4.593-2.171 4.593-4.854 0-2.686-2.052-4.858-4.593-4.858-2.534 0-4.59 2.172-4.59 4.858" fill="#c0311a" fill-rule="evenodd"/><path d="m0 0c0 2.683 2.056 4.854 4.59 4.854 2.541 0 4.593-2.171 4.593-4.854 0-2.686-2.052-4.858-4.593-4.858-2.534 0-4.59 2.172-4.59 4.858z" fill="none" stroke="#000" stroke-miterlimit="2.613" stroke-width=".55"/></g><g transform="translate(431.48 257.37)"><path d="m0 0h8.645" fill="none" stroke="#000" stroke-linecap="square" stroke-miterlimit="2" stroke-width=".75"/></g></g><text transform="matrix(1 0 0 -1 65.068 242.97)" fill="#000000" font-family="Helvetica" font-size="9px"><tspan x="0 6.4980001 9.4949999 14.364 20.862 25.865999 28.368 33.372002 35.874001 38.375999 40.877998 45.882 50.886002 53.388 56.384998 61.389 66.392998 71.397003 77.760002 82.494003" y="0">Crown of the roadway</tspan><tspan x="83.997002 89.000999 91.502998 96.507004 99.009003 101.511 104.013 106.515 114.012 116.514 123.012" y="-66.258003">3.5 ft MIN.</tspan><tspan x="82.494003 87.498001 90 95.003998 97.505997 100.008 102.51 105.012 112.509 118.512 124.515" y="-56.258999">4.5 ft MAX.</tspan><tspan x="5.5440001 13.041 15.039 20.042999 22.041 29.538 34.542 42.039001 44.541 49.544998 52.047001 54.549 57.050999 62.055 65.052002 70.056 75.059998 77.561996 80.558998 85.563004 90.567001 93.069 95.067001 97.065002 102.069 107.073 109.575 114.075 116.577 121.581 126.585 131.08501 133.08299 135.58501 137.58299 142.58701 147.591 152.595 157.599 160.101 165.105" y="-136.08">Minimum of three red lights positioned as</tspan><tspan x="20.106001 25.110001 30.114 35.118 38.115002 43.118999 48.123001 51.255001 53.252998 58.257 60.758999 65.763 68.264999 70.497002 75.500999 78.498001 81 86.003998 91.008003 96.012001 99.009003 104.013 109.017 113.517 118.521 120.519 125.523 130.52699 133.02901 135.53101 138.528 143.532 146.034 148.536 150.534" y="-126.576">appropriate for approaching traffic</tspan><tspan x="235.881 240.88499 243.38699 245.88901 248.39101" y="-46.602001">2 ft*</tspan><tspan x="225.43201 230.436 232.938 237.942 240.444 242.946 245.448 247.95 255.44701 257.94901 264.44699" y="-167.22">7.5 ft MIN.</tspan><tspan x="223.929 228.933 231.435 236.439 238.94099 241.44299 243.94501 246.44701 253.944 259.94699 265.95001" y="-157.716">9.5 ft MAX.</tspan><tspan x="342.32401 347.328 352.332 354.83401 356.832 361.836 366.336 371.34 376.34399" y="-181.944">15 inches</tspan><tspan x="347.78699 352.79099 355.293 360.297 365.30099 367.80301 370.30499 372.80701 375.30899 382.806 388.80899 394.81201" y="-165.50101">4.25 ft MAX.</tspan><tspan x="364.66199 369.66599 374.67001 377.172 382.17599 384.67801 386.67599 391.67999 396.17999 401.18399 406.18799" y="-152.298">25.4 inches</tspan><tspan x="376.93799 384.435 390.43799 396.44101" y="-142.79401">MAX.</tspan><tspan x="313.42499 318.20401 322.983 325.26001 327.03299 331.81201 336.08701 340.866 345.64499" y="-252.243">30 inches</tspan><tspan x="189.963 194.967 199.97099 204.97501 209.979 212.481 217.485 219.987 224.991 229.491 231.993 236.493 241.49699 246.50101 251.00101 252.99899 255.50101 257.49899 262.50299" y="-449.45999">Length as specified</tspan><tspan x="214.55099 220.554 225.558 230.562 235.56599 238.06799 243.07201 245.57401 248.076 250.578 255.582 260.586" y="-282.681">Edge of the </tspan><tspan x="209.16 211.662 214.659 219.66299 222.16499 224.66701 226.66499 231.16499 233.66701 238.16701 243.17101 248.175 250.677 253.674 258.67801 260.67599" y="-273.177">traffic control </tspan><tspan x="208.332 213.336 218.07001 222.57001 224.56799 229.06799 234.07201 236.57401 239.076 244.08 249.084 251.586 254.088 256.086" y="-263.673">device that is</tspan><tspan x="205.55099 210.55499 215.55901 220.563 223.56 228.564 233.064 235.56599 238.06799 240.57001 245.57401 248.076 250.578 255.582 260.586" y="-254.16901">nearest to the </tspan><tspan x="226.98 229.97701 234.981 239.985 244.989 251.35201 256.086" y="-244.66499">roadway</tspan></text><text transform="matrix(1 0 0 -1 30.759 209.17)" fill="#000000" font-family="Helvetica" font-size="9px"><tspan x="0 6.4980001 11.502 14.004 19.007999 23.507999" y="0">Notes:</tspan><tspan x="0 5.1570001 10.161 12.123 18 26.496 31.5 36.504002 39.500999 44.505001 47.007 52.011002 57.014999 59.516998 64.521004 69.021004 71.523003 76.527 79.524002 84.528 87.029999 89.028 94.031998 98.531998 103.536 106.038 111.042 116.046 118.548 120.546 125.55 128.052 130.554 135.558 140.562 143.064 150.561 155.565 160.569 162.567 167.571 172.575 175.077 177.57899 182.58299 187.58701 192.591 194.589 197.091 199.089 204.093 209.097 214.101 216.099 218.601 226.09801 231.10201 236.106 238.104 243.108 248.112 250.614 257.112 259.10999 264.11401 266.616 271.62 274.12201 281.61899 286.353 290.853 293.35501 298.35901 303.36301 305.86499 308.862 313.866 318.87 323.87399 325.87201 328.86899 333.87299 338.87701 341.379 343.88101 348.88501 351.38699 356.39099 359.388 364.25699 368.75699 370.755 375.759 380.763 383.26501 385.767 390.771 395.77499 398.27701 405.77399 407.772 412.776 414.77399 422.271 427.27499 434.772 437.27399 441.77399 443.772 448.776 453.78 456.77701 461.78101 466.785 471.285 476.289 478.79099 480.85199 485.85599 488.853 491.35501 493.85699 498.86099 503.86499" y="12.996"> 1. Where gates are located in the median, additional median width may be required to provide the minimum clearance for the </tspan><tspan x="18.009001 22.509001 27.513 32.516998 37.521 40.022999 45.027 48.023998 54.521999 59.526001 61.523998 66.528 71.531998 74.033997 76.536003 81.036003 86.040001 91.043999 96.047997 101.052 104.319 106.821 111.186" y="22.5">counterweight supports.</tspan><tspan x="0.0089999996 5.1659999 10.17 12.132 18.009001 23.507999 28.511999 33.515999 36.018002 38.52 43.523998 48.528 51.029999 56.034 58.535999 61.037998 63.540001 68.543999 73.547997 76.050003 80.550003 82.547997 87.552002 92.556 97.559998 99.557999 102.06 104.292 109.296 114.3 119.304 124.308 129.312 131.814 133.812 138.81599 143.82001 146.32201 150.82201 155.826 160.83 165.834 167.832 172.836 175.338 180.342 185.34599 187.84801 192.85201 197.856 200.358 207.855 212.85899 215.856 220.86 223.362 225.864 230.868 235.87199 240.87601 243.37801 248.382 250.884 252.882 257.88599 262.38599 267.39001 272.39401 276.89401 279.396 284.39999 289.40399 294.27301 298.548 303.552 306.05399 308.556 313.56 318.564 321.06601 325.56601 330.57001 333.56699 335.79901 340.80301 345.30301 350.30701 352.80899 357.81299 360.315 362.81699 365.319 370.323 375.327 377.82901 382.83301 385.82999 390.83401 395.83801 400.84201 405.84601 408.34799 413.35199 418.35599 423.35999 425.862 430.362 435.366 440.37 445.37399 447.37201 452.37601 454.87799 459.88199 464.88599 467.388 472.392 474.89401 477.396 479.89801 484.90201 489.90601" y="35.000999"> 2. The top of the signal foundation should be no more than 4 inches above the surface of the ground and should be at the </tspan><tspan x="18.009001 22.509001 27.513 35.009998 40.014 42.515999 47.52 49.518002 54.251999 58.527 63.530998 66.032997 68.030998 73.035004 78.039001 80.541 85.544998 90.044998 92.546997 95.049004 100.053 105.057 107.559 112.059 115.056 119.925 126.423 131.427 133.929 138.933 141.435 143.937 146.439 151.44299 156.44701 158.94901 161.946 166.95 171.95399 176.95799 183.321 188.05499 191.655 193.617 198.261 206.757 211.761 216.765 219.76199 224.76601 227.26801 231.76801 233.76601 236.26801 241.272 243.774 248.274 253.278 258.28201 263.28601 265.284 267.78601 269.784 274.78799 279.79199 284.29199 286.79401 293.29199 298.29599 303.29999 305.298 310.302 312.80399 317.80801 322.81201 325.314 327.81601 332.82001 334.81799 336.81601 341.595 348.09299 350.595 353.09698 358.10101 360.099 364.599 367.10101 369.603 374.60699 377.10901 382.11301 387.117 389.61899 394.62299 399.12299 404.12701 406.125 410.85901 415.134 420.138 425.142 427.64401 430.146 432.64801 437.65201 442.65601 445.15799 449.65799 454.66199 459.66599 464.67001 466.668 471.672 476.67599 479.673 482.17499 486.67499 488.673 493.677 498.681" y="44.505001">same elevation as the crown of the roadway. Where site conditions would not allow this to be achieved, the shoulder side </tspan><tspan x="17.990999 22.490999 24.489 29.493 34.497002 39.500999 42.002998 46.502998 51.507 56.511002 61.514999 63.513 68.516998 71.018997 76.023003 81.027 83.528999 86.526001 91.529999 94.527 99.530998 102.528 107.532 112.536 117.54 122.544 125.046 130.05 133.047 135.549 138.05099 143.05499 148.05901 150.561 155.565 160.569 162.567 167.571 172.575 175.077 177.57899 182.58299 185.08501 187.58701 190.089 195.093 200.097 202.599 207.099 209.097 214.101 219.105 224.10899 226.10699 228.60899 233.61301 238.617 243.117 245.619 248.121 252.621 257.625 262.629 267.633 269.63101 274.63501 277.13699 282.14099 287.14499 289.647 294.651 299.655 301.65302 306.65701 311.15701 313.659 318.66299 323.66699 326.16901 328.67099 333.67499 336.177 343.67401 348.67801 353.68201 356.18399 358.686 361.18799 366.19199 371.19601 373.698 378.702 383.70599 386.703 388.755 393.759 398.763 401.26501 403.767 408.04199 413.04599 416.40302 418.905 420.90302 425.40302 430.40701 432.405 434.90701 439.40701 441.405 446.409 451.41299 454.41 459.414 464.418 468.918 473.922" y="54.008999">slope should be re-graded or the height of the signal post should be adjusted to meet the 17-foot vertical clearance </tspan><tspan x="17.990999 20.988001 25.992001 30.996 36 37.998001 40.994999 45.999001 53.495998 58.5 63.504002 66.005997" y="63.513">requirement.</tspan></text></g></svg>
