<?xml version="1.0" encoding="UTF-8"?>
<svg width="640.43" height="500.36" version="1.1" viewBox="0 0 640.43 500.36" xml:space="preserve" xmlns="http://www.w3.org/2000/svg"><defs><clipPath id="d"><path d="m27.125 312h512.88v426h-512.88z"/></clipPath><clipPath id="c"><path d="m27.125 312h512.88v426h-512.88z"/></clipPath><clipPath id="b"><path d="m27.125 312h512.88v426h-512.88z"/></clipPath><clipPath id="a"><path d="m27.125 312h512.88v426h-512.88z"/></clipPath></defs><g transform="matrix(1.3333 0 0 -1.3333 -56.385 935.92)"><g transform="translate(399.64 636.73)"><path d="m0 0v-226.2h-12.287v228.45" fill="none" stroke="#000" stroke-width=".652"/></g><path d="m394.98 452.11h-2.991v114.8h2.991z" fill="none" stroke="#000" stroke-width=".717"/><g transform="translate(370.65 656.35)"><path d="m0 0h-88.687m6.422-110.06v-133.38" fill="none" stroke="#000" stroke-width=".75"/></g><g clip-path="url(#d)"><g transform="translate(288.93 411.66)"><path d="m0 0c0.261 0.868 0.504 1.432 0.783 2.129h-2.648c0.118-0.25 0.521-1.261 0.783-2.129 0.28-0.929 0.472-1.771 0.541-2.318 0.068 0.547 0.26 1.389 0.541 2.318"/></g><g transform="translate(300 512.59)"><path d="m0 0v-99.689" fill="none" stroke="#000" stroke-width=".75"/></g><g transform="translate(300.53 411.66)"><path d="m0 0c0.263 0.868 0.504 1.432 0.783 2.129h-2.648c0.118-0.25 0.521-1.261 0.783-2.129 0.28-0.929 0.473-1.771 0.541-2.318 0.069 0.547 0.261 1.389 0.541 2.318"/></g><g transform="translate(299.46 513.83)"><path d="m0 0c-0.263-0.868-0.504-1.432-0.783-2.128h2.648c-0.118 0.249-0.521 1.26-0.783 2.128-0.28 0.929-0.473 1.772-0.541 2.318-0.068-0.546-0.261-1.389-0.541-2.318"/></g><g transform="translate(288.39 652.42)"><path d="m0 0v-95.409" fill="none" stroke="#000" stroke-width=".75"/></g><g transform="translate(287.85 653.66)"><path d="m0 0c-0.263-0.868-0.504-1.432-0.784-2.128h2.649c-0.118 0.249-0.522 1.26-0.783 2.128-0.281 0.929-0.473 1.771-0.541 2.318-0.069-0.547-0.261-1.389-0.541-2.318"/></g><g transform="translate(362.13 610.14)"><path d="M 0,0 -14.441,14.438 16.846,45.723 -14.441,77.008 0,91.446 31.283,60.162 62.569,91.446 77.007,77.008 45.723,45.723 77.007,14.438 62.569,0 31.283,31.284 Z" fill="#fff"/><path d="M 0,0 -14.441,14.438 16.846,45.723 -14.441,77.008 0,91.446 31.283,60.162 62.569,91.446 77.007,77.008 45.723,45.723 77.007,14.438 62.569,0 31.283,31.284 Z" fill="none" stroke="#000" stroke-width=".5"/></g><g transform="translate(431.22 690.15)"><path d="m0 0-1.763 1.763-3.002-3.001 1.395-1.393 1.607 1.609 0.372-0.371c0.803-0.805 0.712-2.011-0.186-2.909-0.526-0.526-1.144-0.711-1.918-0.494-0.836 0.278-1.916 1.051-2.848 1.981-0.741 0.742-1.42 1.67-1.73 2.413-0.465 1.083-0.311 1.856 0.401 2.567 0.68 0.681 1.329 0.774 2.476 0.372l0.803 1.856c-1.979 0.805-3.341 0.557-4.703-0.804-0.989-0.99-1.392-2.073-1.267-3.249 0.185-1.361 1.175-3.155 2.6-4.58 1.08-1.082 2.381-1.949 3.527-2.351 1.639-0.588 2.913-0.315 4.243 1.016 1.609 1.609 1.603 3.966-7e-3 5.575m-7.787-13.051-8.819 8.819-1.394-1.392 5.633-5.632-8.851 2.413-1.391-1.391 8.819-8.819 1.39 1.392-5.97 5.972 9.345-2.6zm-10.607-10.605-8.817 8.819-1.425-1.424 8.818-8.818zm-7.943-2.87c-3.465 3.465-6.529-1.763-8.293-0.247-0.869 0.743-0.343 1.763 0.34 2.382 1.018 0.959 2.073 0.526 2.073 0.526l0.866 1.609c-1.515 0.649-3.063 0.526-4.302-0.712-1.577-1.578-2.102-3.403-0.372-5.135 1.456-1.455 3.159-0.805 3.901-0.496 1.609 0.681 3.154 1.857 4.331 0.681 0.744-0.743 0.744-1.857-0.063-2.662-0.833-0.835-1.979-1.052-3.184-0.587l-0.837-1.825c1.918-0.743 3.935-0.532 5.451 0.984 0.741 0.742 1.17 1.676 1.231 2.604 0.063 1.052-0.339 2.073-1.142 2.878m-9.368-9.369c-3.466 3.467-6.53-1.762-8.292-0.245-0.866 0.742-0.34 1.762 0.339 2.381 1.022 0.959 2.074 0.526 2.074 0.526l0.866 1.609c-1.517 0.649-3.064 0.526-4.302-0.71-1.578-1.579-2.104-3.405-0.37-5.138 1.454-1.454 3.155-0.804 3.897-0.494 1.61 0.68 3.157 1.856 4.333 0.68 0.742-0.743 0.742-1.857-0.061-2.662-0.836-0.835-1.982-1.051-3.188-0.588l-0.835-1.824c1.918-0.743 3.935-0.532 5.45 0.985 0.741 0.742 1.17 1.675 1.232 2.602 0.062 1.052-0.34 2.075-1.143 2.878m-13.082-9.367c0.681-0.68 1.391-1.703 1.673-2.352 0.462-1.081 0.401-1.825-0.249-2.474-0.558-0.557-1.146-0.711-1.887-0.527-0.899 0.218-2.042 0.991-2.972 1.92-0.743 0.741-1.423 1.67-1.732 2.413-0.464 1.083-0.372 1.855 0.341 2.505 0.557 0.496 1.084 0.65 1.825 0.464 0.927-0.247 2.011-0.959 3.001-1.949m1.391 1.394c-1.113 1.113-2.443 2.01-3.59 2.413-1.638 0.526-2.906 0.247-4.02-0.867-1.022-1.02-1.424-2.043-1.269-3.248 0.247-1.424 1.176-3.095 2.63-4.55 1.053-1.051 2.477-1.979 3.59-2.351 1.608-0.557 2.882-0.283 4.119 0.954 0.93 0.928 1.326 1.954 1.14 3.13-0.152 1.393-1.205 3.124-2.6 4.519m-13.575-9.678c0.372-0.371 0.526-0.959 0.372-1.487-0.094-0.339-0.218-0.525-0.649-0.957l-1.673-1.672-2.164 2.167 1.672 1.67c0.463 0.465 0.617 0.557 0.957 0.651 0.525 0.153 1.113 0 1.485-0.372m7.921-4.765-5.66 2.568c0.431 1.176 0.06 2.66-0.869 3.589-0.897 0.897-2.381 1.269-3.528 0.867-0.649-0.217-1.175-0.621-1.855-1.299l-2.909-2.909 8.819-8.82 1.394 1.394-3.838 3.836 1.673 1.671 5.257-2.413zm-12.245-8.656-1.825-0.838c0.372-1.05 0.247-1.792-0.341-2.38-0.617-0.62-1.237-0.805-2.01-0.649-0.896 0.215-2.073 0.959-3.033 1.918-0.741 0.744-1.392 1.64-1.702 2.382-0.463 1.083-0.31 1.856 0.402 2.568 0.681 0.681 1.147 0.774 2.383 0.526l0.743 1.855c-1.826 0.65-3.218 0.373-4.55-0.957-0.99-0.989-1.391-2.075-1.267-3.25 0.154-1.392 1.175-3.155 2.567-4.547 1.113-1.115 2.476-1.982 3.651-2.352 1.64-0.526 2.976-0.192 4.276 1.109 1.269 1.267 1.479 2.788 0.706 4.615" fill-rule="evenodd"/></g><g transform="translate(381.76 658.71)"><path d="m0 0 1.299 1.299-4.084 4.085 7.518 7.519-1.391 1.392-8.819-8.818zm-9.019 9.019 8.818 8.819-1.423 1.423-8.819-8.819zm-3.173 10.969-1.763 1.763 3.374 1.579zm-1.051-6.745 5.787 11.85-1.392 1.393-11.853-5.787 1.487-1.485 3.341 1.609 2.754-2.753-1.609-3.342zm-4.842 17.528c-0.37-0.371-0.96-0.526-1.485-0.371-0.341 0.093-0.526 0.216-0.96 0.649l-1.671 1.671 2.167 2.166 1.67-1.67c0.464-0.464 0.557-0.619 0.651-0.96 0.153-0.526 0-1.114-0.372-1.485m-4.767-7.921 2.571 5.663c1.174-0.434 2.659-0.063 3.587 0.866 0.898 0.897 1.27 2.383 0.868 3.528-0.217 0.649-0.62 1.175-1.299 1.855l-2.909 2.909-8.819-8.819 1.393-1.392 3.837 3.837 1.67-1.671-2.414-5.26z" fill-rule="evenodd"/></g><g transform="translate(428.28 621.04)"><path d="m0 0c-1.176-1.176-2.413-1.858-3.465-1.858-0.497 0-0.866 0.186-1.33 0.649l-1.394 1.394 6.003 6.003 1.578-1.579c0.372-0.37 0.529-0.835 0.529-1.268-0.032-0.899-0.745-2.165-1.921-3.341m1.424-1.424c1.732 1.732 2.601 3.651 2.477 5.384-0.096 0.834-0.34 1.269-1.239 2.166l-2.848 2.846-8.818-8.819 2.691-2.691c0.219-0.217 0.405-0.402 0.496-0.496 0.497-0.432 1.114-0.742 1.765-0.773 1.763-0.217 3.712 0.619 5.476 2.383m-10.57 9.518-1.763 1.765 3.37 1.577zm-1.052-6.744 5.784 11.849-1.39 1.393-11.851-5.786 1.483-1.486 3.342 1.61 2.753-2.753-1.607-3.343zm-5.465 14.251c-0.682-0.679-1.702-1.391-2.351-1.669-1.084-0.465-1.827-0.403-2.476 0.247-0.559 0.557-0.713 1.144-0.526 1.886 0.215 0.898 0.99 2.043 1.918 2.972 0.744 0.741 1.671 1.423 2.413 1.731 1.084 0.466 1.858 0.373 2.506-0.339 0.495-0.556 0.649-1.083 0.465-1.826-0.248-0.928-0.96-2.011-1.949-3.002m1.391-1.391c1.114 1.113 2.011 2.444 2.414 3.589 0.525 1.64 0.248 2.909-0.865 4.022-1.023 1.021-2.045 1.423-3.25 1.269-1.424-0.248-3.093-1.175-4.549-2.63-1.053-1.052-1.98-2.474-2.353-3.59-0.554-1.608-0.283-2.882 0.955-4.12 0.927-0.928 1.955-1.326 3.131-1.14 1.392 0.155 3.126 1.208 4.517 2.6m-7.013 10.91c-0.369-0.369-0.957-0.526-1.483-0.369-0.343 0.091-0.529 0.215-0.961 0.648l-1.671 1.671 2.168 2.166 1.669-1.67c0.464-0.463 0.559-0.62 0.65-0.96 0.153-0.526 0-1.114-0.372-1.486m-4.765-7.921 2.57 5.664c1.176-0.434 2.658-0.062 3.59 0.865 0.895 0.899 1.267 2.383 0.865 3.528-0.216 0.65-0.62 1.176-1.3 1.857l-2.907 2.908-8.822-8.819 1.395-1.392 3.837 3.836 1.67-1.669-2.414-5.262z" fill-rule="evenodd"/></g><g transform="translate(362.88 590.09)"><path d="m0 0v20.42h20.421v20.421h20.422v-20.421h20.421v-20.42z" fill="#fff"/><path d="m0 0v20.42h20.421v20.421h20.422v-20.421h20.421v-20.42z" fill="none" stroke="#000" stroke-width=".5"/></g><g transform="translate(397.61 618.6)"><path d="m0 0c0 1.225-0.261 1.881-1.181 2.713 0.526 0.789 0.701 1.313 0.701 2.057 0 2.101-1.706 3.808-3.807 3.808-1.62 0-3.019-0.964-3.676-2.539l1.838-0.701c0.438 0.833 1.051 1.226 1.881 1.226 1.007 0 1.794-0.7 1.794-1.663 0-0.787-0.436-1.225-1.224-1.225h-0.482v0.043-2.012h0.218c0.921-0.044 0.965-0.044 1.269-0.263 0.44-0.307 0.701-0.919 0.701-1.576 0-1.268-0.918-2.188-2.231-2.188-1.182 0-2.014 0.657-2.32 1.882l-1.924-0.568c0.524-2.014 2.144-3.333 4.156-3.333 2.538 0 4.287 1.801 4.287 4.339" fill-rule="evenodd"/></g><g transform="translate(415.98 598.37)"><path d="m0 0c0 3.564-4.264 2.45-4.391 4.138-0.065 0.827 0.731 1.082 1.399 1.05 1.019-0.032 1.337-0.795 1.337-0.795l1.274 0.381c-0.447 1.114-1.306 1.846-2.579 1.846-1.623 0-2.832-0.669-2.832-2.451 0-1.495 1.209-2.037 1.75-2.259 1.179-0.477 2.578-0.669 2.578-1.879 0-0.762-0.572-1.336-1.399-1.336-0.859 0-1.56 0.477-1.942 1.336l-1.369-0.509c0.605-1.369 1.751-2.296 3.311-2.296 0.764 0 1.464 0.259 1.972 0.705 0.573 0.509 0.891 1.241 0.891 2.069m-7.258-2.61-2.992 5.538 2.8 3.533h-1.845l-2.866-3.597v3.597h-1.431v-9.071h1.431v3.118l0.955 1.179 2.293-4.297zm-8.5 1.845-1.369 0.51c-0.35-0.732-0.796-1.05-1.4-1.05-0.638 0-1.051 0.223-1.368 0.7-0.352 0.574-0.573 1.56-0.573 2.545 0 0.765 0.126 1.561 0.349 2.101 0.319 0.796 0.795 1.115 1.528 1.115 0.699 0 0.987-0.191 1.496-0.955l1.337 0.573c-0.605 1.273-1.465 1.846-2.833 1.846-1.019 0-1.783-0.349-2.323-1.018-0.637-0.795-1.019-2.229-1.019-3.662 0-1.144 0.255-2.291 0.669-3.085 0.573-1.116 1.431-1.629 2.769-1.629 1.304 0 2.196 0.673 2.737 2.009m-10.474 2.165h-1.815l0.923 2.547zm2.929-4.01-3.119 9.071h-1.432l-3.12-9.071h1.527l0.891 2.547h2.834l0.89-2.547zm-10.188 6.524c0-0.381-0.223-0.764-0.572-0.954-0.224-0.128-0.383-0.16-0.827-0.16h-1.72v2.229h1.72c0.475 0 0.603-0.032 0.827-0.16 0.349-0.191 0.572-0.572 0.572-0.955m1.623-6.524-1.591 4.234c0.828 0.381 1.4 1.336 1.4 2.29 0 0.923-0.572 1.878-1.368 2.26-0.445 0.223-0.923 0.287-1.624 0.287h-2.992v-9.071h1.433v3.946h1.72l1.463-3.946zm-7.704 7.798v1.273h-5.601v-1.273h2.069v-7.798h1.432v7.798z" fill-rule="evenodd"/></g><g transform="translate(315.18 401.59)"><path d="m0 0 8.486-8.301" fill="none" stroke="#000" stroke-width=".75"/></g><g transform="translate(313.92 402.07)"><path d="m0 0c0.437-0.794 0.672-1.361 0.974-2.048l1.852 1.894c-0.262 0.089-1.265 0.508-2.069 0.928-0.861 0.449-1.597 0.901-2.035 1.234 0.342-0.431 0.81-1.158 1.278-2.008"/></g></g><text transform="matrix(1 0 0 -1 280.41 548.28)" fill="#000000" font-family="Helvetica" font-size="9px"><tspan x="0 5.0040002 7.506 10.008 12.51" y="0">9 ft*</tspan><tspan x="140.94901 145.953 148.95 150.948 155.952 160.452 165.45599 167.95799 174.45599 179.46001 181.45799 183.96001 188.964 191.466 196.47 199.467 201.96899 204.966 209.97 214.974" y="60.119999">2-inch white or red </tspan><tspan x="140.94901 143.946 148.95 151.452 154.44901 159.453 162.45 167.45399 169.95599 171.95399 176.95799 181.45799 183.96001 185.95799 190.233 195.237" y="70.119003">retroreflective </tspan><tspan x="140.94901 145.44901 147.951 151.08299 153.08099 158.08501 160.58701 165.591 170.595 173.097 175.599 178.59599 183.60001 188.604" y="80.117996">strip on front</tspan></text><text transform="matrix(1 0 0 -1 424.21 550.66)" fill="#000000" font-family="Helvetica" font-size="9px" font-weight="bold"><tspan x="0 7.0019999" y="0">OR</tspan></text><g clip-path="url(#c)"><g transform="translate(381.16 452.11)"><path d="m0 0h-14.002m0-28.548h14.002m-7.001 8.793v-6.389" fill="none" stroke="#000" stroke-width=".75"/></g><g transform="translate(374.7 426.25)"><path d="m0 0c0.263 0.868 0.504 1.433 0.783 2.129h-2.648c0.118-0.25 0.521-1.261 0.783-2.129 0.28-0.929 0.473-1.771 0.541-2.317 0.068 0.546 0.261 1.388 0.541 2.317"/></g><g transform="translate(374.16 448.18)"><path d="m0 0v-5.332" fill="none" stroke="#000" stroke-width=".75"/></g><g transform="translate(373.63 449.42)"><path d="m0 0c-0.263-0.868-0.504-1.433-0.783-2.129h2.648c-0.118 0.25-0.521 1.261-0.783 2.129-0.28 0.929-0.473 1.771-0.541 2.317-0.068-0.546-0.261-1.388-0.541-2.317"/></g><g transform="translate(385.61 422.61)"><path d="m0 0 14.438 2.664v-18.754h-14.491" fill="#fff"/></g><g transform="translate(312.32 408.99)"><path d="m0 0 115.33 21.667" fill="none" stroke="#000"/></g><g transform="translate(269.66 408.97)"><path d="m0 0h42.581v-4.436h-42.581" fill="#fff" stroke="#000" stroke-width=".5"/></g></g><text transform="matrix(1 0 0 -1 340.74 434.45)" fill="#000000" font-family="Helvetica" font-size="9px"><tspan x="0 5.0040002 7.506 10.008 12.51 15.012 22.509001 28.511999 34.514999 37.016998 40.518002" y="0">2 ft MAX.**</tspan><tspan x="-15.633 -9.6300001 -4.6259999 0.37799999 5.382 7.8839998 12.888 15.39 17.892 20.889 25.893 30.896999 35.901001 42.264 46.998001" y="44.199001">Edge of roadway</tspan></text><g clip-path="url(#b)"><g transform="translate(443.15 568.68)"><path d="m0 0v-28.201l19.952-19.918h28.176l19.946 19.918v28.201l-19.946 19.952h-28.176z" fill="#fff"/><path d="m0 0v-28.201l19.952-19.918h28.176l19.946 19.918v28.201l-19.946 19.952h-28.176z" fill="none" stroke="#000" stroke-width=".5"/></g><g transform="translate(444.86 567.99)"><path d="m0 0 18.945 18.939h26.751l18.972-18.939v-26.793l-18.972-18.938h-26.751l-18.945 18.938z" fill="#c0311a" fill-rule="evenodd"/></g><g transform="translate(502.29 559.57)"><path d="m0 0c0-2.068-1.034-3.262-2.943-3.262h-3.343v6.445h3.343c1.75 0 2.943-1.273 2.943-3.183m3.183 0c0 3.82-2.387 6.366-5.968 6.366h-6.763v-22.679h3.262v9.948h3.501c3.82 0 5.968 2.228 5.968 6.365m-19.416-4.934c0-2.626-0.16-3.978-0.718-5.808-0.557-1.909-1.432-2.785-2.783-2.785-1.434 0-2.309 0.876-2.864 2.785-0.479 1.83-0.717 3.262-0.717 5.73 0 2.545 0.159 4.057 0.717 5.809 0.555 1.908 1.43 2.784 2.864 2.784 1.351 0 2.226-0.876 2.783-2.864 0.478-1.672 0.718-3.104 0.718-5.651m3.102 0c0 3.422-0.318 5.571-1.273 7.799-1.114 2.783-2.704 3.899-5.33 3.899-2.625 0-4.219-1.116-5.411-3.821-0.955-2.146-1.275-4.455-1.275-7.877 0-3.501 0.32-5.648 1.275-7.877 1.114-2.705 2.706-3.912 5.411-3.912 2.546 0 4.216 1.207 5.33 3.912 0.955 2.149 1.273 4.376 1.273 7.877m-15.04 8.276v3.024h-11.538v-3.024h4.138v-19.655h3.262v19.655zm-12.654-13.448c0 3.262-1.909 5.73-6.284 8.276-1.672 0.955-2.149 1.592-2.149 2.707 0 1.51 1.194 2.625 2.705 2.625 1.432 0 2.546-1.035 2.625-2.625h3.103c-0.079 3.42-2.546 5.887-5.728 5.887-3.263 0-5.809-2.625-5.809-5.887 0-1.991 0.954-3.741 2.785-5.014 4.615-3.103 3.343-2.228 3.819-2.707 1.352-1.033 1.83-1.987 1.83-3.262 0-1.83-1.431-3.421-3.181-3.421-2.229 0-3.184 1.99-3.184 3.9h-3.183c0-3.74 2.387-7.096 6.367-7.096 3.5 0 6.284 2.957 6.284 6.617" fill="#fff" fill-rule="evenodd"/></g><g transform="translate(397.69 518.78)"><path d="m0 0 36.022 62.548c0.301 0.529 0.514 1.051 0.582 1.668 0.088 0.856 0 1.758-0.313 2.559-0.722 1.851-2.624 3.074-4.595 3.074l-71.807-0.037c-1.314 0-2.56-0.513-3.492-1.443-1.018-1.02-1.526-2.415-1.438-3.852 0.048-0.74 0.303-1.435 0.67-2.076l36.032-62.407c0.841-1.455 2.535-2.296 4.188-2.296 0.823 0 1.642 0.194 2.366 0.591 0.715 0.395 1.374 0.959 1.785 1.671" fill="#fff"/><path d="m0 0 36.022 62.548c0.301 0.529 0.514 1.051 0.582 1.668 0.088 0.856 0 1.758-0.313 2.559-0.722 1.851-2.624 3.074-4.595 3.074l-71.807-0.037c-1.314 0-2.56-0.513-3.492-1.443-1.018-1.02-1.526-2.415-1.438-3.852 0.048-0.74 0.303-1.435 0.67-2.076l36.032-62.407c0.841-1.455 2.535-2.296 4.188-2.296 0.823 0 1.642 0.194 2.366 0.591 0.715 0.395 1.374 0.959 1.785 1.671z" fill="none" stroke="#000" stroke-width=".5"/></g><g transform="translate(396.1 519.71)"><path d="m0 0c-0.274-0.423-0.567-0.695-1.017-0.955-0.797-0.459-1.834-0.499-2.69-0.184-0.594 0.218-1.118 0.626-1.435 1.175l-36.059 62.414c-0.373 0.643-0.496 1.379-0.359 2.112 0.27 1.407 1.609 2.476 3.036 2.479l71.81 0.034c1.475 0 2.75-1.03 3.029-2.487 0.142-0.718 0.047-1.406-0.317-2.039z" fill="#c0311a" fill-rule="evenodd"/></g><g transform="translate(410.65 569.74)"><path d="m0 0c0.157 0.281 0.289 0.574 0.387 0.884 0.272 0.868 0.098 1.715-0.42 2.467-0.567 0.83-1.531 1.337-2.537 1.337l-29.059-0.019c-1.417 0-2.75-1.011-3.02-2.427-0.142-0.733-0.058-1.456 0.317-2.11l14.508-25.179c0.574-0.996 1.506-1.619 2.68-1.614 0.939 1e-3 2.008 0.467 2.496 1.309z" fill="#fff" fill-rule="evenodd"/></g><g transform="translate(384.48 568.84)"><path d="m0 0-1.188 2.651h-1.152l1.81-4.055v-3.428h1.059v3.428l1.81 4.055h-1.152z" fill="#c0311a" fill-rule="evenodd"/></g><g transform="translate(391.75 567.51)"><path d="m0 0h1.589v1.048h-1.589v1.873h2.576v1.055h-3.624v-7.483h3.742v1.043h-2.694z" fill="#c0311a" fill-rule="evenodd"/></g><g transform="translate(396.77 571.49)"><path d="m0 0h-1.049v-7.483h3.743v0.993h-2.694z" fill="#c0311a" fill-rule="evenodd"/></g><g transform="translate(403.56 565.88)"><path d="m0 0c-0.121-0.482-0.545-0.834-1.051-0.834h-0.738v5.385h0.765c0.459 0 0.881-0.31 1.008-0.754 0.174-0.617 0.213-1.299 0.217-1.933 0-0.623-0.047-1.26-0.201-1.864m1.114 3.535c-0.105 0.621-0.318 1.21-0.831 1.614-0.366 0.292-0.834 0.457-1.307 0.457h-1.813v-7.483h1.813c0.512 0.03 0.908 0.134 1.324 0.463 0.69 0.549 0.814 1.387 0.905 2.206 0.101 0.911 0.068 1.839-0.091 2.743" fill="#c0311a" fill-rule="evenodd"/></g><path d="m388.08 564h1.043v7.483h-1.043z" fill="#c0311a" fill-rule="evenodd"/><g transform="translate(396.95 483.24)"><path d="m0 0 23.012 7.709" fill="none" stroke="#000" stroke-width=".75"/></g><g transform="translate(395.95 482.33)"><path d="m0 0c0.907 0.03 1.518-0.017 2.267-0.058l-0.851 2.508c-0.198-0.192-1.026-0.899-1.763-1.426-0.79-0.564-1.527-1.016-2.022-1.256 0.54 0.11 1.4 0.199 2.369 0.232"/></g></g><text transform="matrix(1 0 0 -1 421.36 414.2)" fill="#000000" font-family="Helvetica" font-size="9px"><tspan x="0 5.0040002 8.0010004 9.9989996 15.003 19.503 24.507 27.009001 33.507 38.511002 40.508999 43.011002 48.014999" y="0">2-inch white </tspan><tspan x="0 2.997 8.0010004 10.503 13.5 18.504 21.500999 26.504999 29.007 31.004999 36.008999 40.508999 43.011002 45.008999 49.284 54.287998 56.790001 61.290001 63.792 66.924004 68.921997 73.926003" y="9.9989996">retroreflective strip </tspan><tspan x="0 5.0040002 10.008 12.51 17.514 22.518 26.837999 31.337999 33.84 38.844002 41.346001 43.848 48.348 53.352001 58.355999 63.360001 68.363998 71.721001" y="19.997999">on back of support</tspan></text><g clip-path="url(#a)"><g transform="translate(401.36 460.31)"><path d="m0 0 18.508-42.34" fill="none" stroke="#000" stroke-width=".75"/></g><g transform="translate(400.38 461.23)"><path d="m0 0c0.101-0.901 0.101-1.515 0.12-2.265l2.434 1.046c-0.207 0.182-0.977 0.952-1.56 1.646-0.625 0.743-1.134 1.441-1.412 1.916 0.152-0.529 0.308-1.379 0.418-2.343"/></g><g transform="translate(381.16 516.52)"><path d="m0 0h-84.204" fill="none" stroke="#000" stroke-width=".75"/></g><path d="m303.76 494.24h-8.211v10.054h8.211z" fill="#fff"/></g><text transform="matrix(1 0 0 -1 293.77 495.92)" fill="#000000" font-family="Helvetica" font-size="9px"><tspan x="0 6.0029998 11.007 16.011 18.513 25.011 30.014999 32.516998 37.521 42.021 44.522999 49.527 52.028999 54.530998 59.535 62.036999 64.539001 69.542999 74.546997 79.551003 82.053001" y="0">See Notes 2, 3, and 4</tspan></text><text transform="matrix(1 0 0 -1 66.103 556.17)" fill="#000000" font-family="Helvetica" font-size="9px"><tspan x="0" y="0">*</tspan><tspan x="3.5009999 7.0019999 8.0010004 14.499 19.503 21.500999 26.504999 31.509001 34.011002 36.513 44.009998 48.743999 53.243999 55.745998 60.75 65.753998 68.255997 72.530998 77.535004 80.667 82.665001 87.668999 92.672997 95.175003 100.179 104.679 107.181 110.178 115.182 120.186 125.19 127.188 130.185 135.189 140.19299" y="0">* Height may be varied as required </tspan><tspan x="8.0010004 12.825 17.325001 19.827 21.825001 26.829 31.329 36.333 38.331001 40.833 45.333 50.337002 55.341 60.345001 62.342999 64.845001 66.843002 71.847 76.850998 81.350998 83.852997 88.857002 93.861 98.864998 101.367 108.864 113.598 118.098 120.6 125.604 130.608" y="9.9989996">by local conditions and may be </tspan><tspan x="8.0010004 9.9989996 15.003 19.503 22.5 27.504 32.507999 37.007999 42.012001 47.015999 49.518002 52.02 57.023998 59.526001 64.529999 69.029999 73.529999 78.533997 86.030998 93.528 98.531998 103.536 108.54 111.042 116.046 118.548 123.048 125.046 130.05 135.054 139.554" y="19.997999">increased to accommodate signs </tspan><tspan x="8.0010004 15.498 20.502001 25.506001 30.51 33.012001 38.015999 43.02 45.521999 50.526001 55.529999 57.528 62.396999 68.894997 71.397003 73.899002 78.903 83.906998 86.408997 92.906998 95.903999 100.908 105.408 109.908 114.732 119.736 124.056 128.556 131.058 135.558 137.556 142.56 147.564" y="29.997">mounted below the Crossbuck sign </tspan><tspan x="0 3.5009999 7.0019999 8.0010004 15.498 20.502001 25.506001 30.006001 35.009998 38.007 43.011002 48.014999 50.516998 53.019001 58.022999 60.525002 63.027 68.030998 73.035004 75.537003 80.541 83.538002 88.542 93.545998 98.550003 103.554 106.056 108.054 112.698 116.973 121.977 123.975 126.477 131.481 133.983" y="45.999001">** Measured to the ground level at </tspan><tspan x="8.0010004 10.503 15.507 20.511 23.013 28.017 33.021 37.521 42.525002 45.027 50.030998 52.533001 55.035 57.536999 62.541 67.544998 70.046997 74.546997 79.551003 84.555 89.558998 94.563004 97.919998" y="55.998001">the base of the support</tspan><tspan x="-23.805 -17.306999 -12.303 -9.8009996 -4.7969999 -0.29699999" y="178.614">Notes:</tspan><tspan x="-23.805 -18.648001 -13.644 -11.682 -5.8049998 0.198 2.7 8.7030001 13.707 20.205 22.707001 27.711 30.708 33.209999 39.213001 44.352001 51.354 57.356998 59.859001 64.359001 66.357002 71.361 76.364998 80.864998 83.366997 88.371002 91.367996 96.372002 98.874001 103.878 108.378 113.382 118.386 120.888 125.892 130.896 132.894 137.394 139.896 144.89999 147.40199 149.90401 154.908 159.912 164.412 168.912 170.91 175.185 180.189 182.69099 187.19099 190.188 195.192 199.692 204.192 206.19 211.194 216.198 220.563 222.52499 227.52901 233.532 236.034 242.037 247.17599 254.17799 260.181 262.68301 267.18301 269.181 274.185 279.189 281.69101 283.689 288.189 290.69101 295.69501 300.19501 305.19901 310.203 312.70499 317.70901 322.71301 324.711 329.211 331.71301 333.711 336.21301 338.715 343.71899 348.72299 351.22501 356.229 361.233 366.237 368.23499 373.23901 378.24301 383.24701 386.379 388.37701 393.38101 398.38501 400.88699 405.38699 407.88901 412.89301 417.897 422.397" y="191.61"> 1. YIELD or STOP signs are used only at passive crossings. A STOP sign is used only if an engineering study </tspan><tspan x="-5.8049998 -0.801 4.2030001 6.7049999 11.709 14.931 22.427999 24.426001 29.43 34.433998 38.933998 41.436001 43.938 48.942001 53.945999 56.448002 58.950001 60.948002 63.450001 65.952003 67.949997 72.449997 74.952003 79.956001 84.959999 89.963997 92.960999 97.964996 102.969 106.101 108.099 113.103 115.605 120.609 123.111 125.343 130.347 133.34399 135.84599 138.34801 143.35201 148.356 150.858 153.36 158.364 163.368 166.72501 169.22701 171.22501 175.72501 180.729 182.72701 187.731 190.728 193.23 198.23399 203.23801 208.242 211.239 216.243 221.24699 225.74699 230.75101" y="201.60899">determines that it is appropriate for that particular approach.</tspan><tspan x="-23.805 -18.648001 -13.644 -11.682 -5.8049998 1.692 6.6960001 11.7 16.704 19.205999 21.204 26.208 31.212 33.714001 38.717999 43.722 45.720001 50.723999 55.728001 58.23 60.731998 65.232002 70.236 75.239998 77.237999 79.236 81.737999 86.741997 91.746002 94.248001 99.251999 101.754 104.256 106.254 111.258 116.262 120.762 123.264 125.766 130.77 133.272 135.504 140.508 145.51199 148.01401 150.51601 152.748 157.752 160.74899 163.25101 165.24899 170.25301 174.75301 177.255 182.259 184.257 186.255 191.259 193.761 195.759 200.763 205.767 210.267 212.769 217.77299 220.27499 221.967 227.97 230.472 236.47501 241.479 247.97701 250.479 255.483 258.48001 260.98199 266.98499 272.12399 279.12601 285.129 287.63101 292.13101 294.129 299.133 304.13699 308.63699 311.13901 316.14301 321.147 323.64899 328.383 332.883 334.88101 339.38101 341.883 343.88101 348.88501 353.88901 356.39099 362.88901 365.88599 370.89001 375.39001 379.89001 384.71399 389.71799 394.03799 398.53799 401.04001 405.54001 407.53799 412.54199 417.54599 420.048 424.548 429.552 434.556 439.56 444.564 447.92099 450.423 454.78799" y="214.605"> 2. Mounting height shall be at least 4 feet for installations of YIELD or STOP signs on existing Crossbuck sign supports.</tspan><tspan x="-23.813999 -18.657 -13.653 -11.691 -5.8140001 1.683 6.6869998 11.691 16.695 19.197001 21.195 26.198999 31.202999 33.705002 38.709 43.713001 45.710999 50.715 55.719002 58.221001 60.723 65.223 70.226997 75.231003 77.228996 79.226997 81.728996 86.733002 91.737 94.238998 99.242996 101.745 104.247 106.245 111.249 116.253 120.753 123.255 125.757 130.761 133.263 135.495 140.49899 145.50301 148.005 150.507 152.739 157.743 160.74001 163.242 168.246 173.07001 179.56799 182.07001 184.06799 189.07201 193.57201 196.07401 201.078 203.076 205.07401 210.078 212.58 214.578 219.582 224.586 229.086 231.588 233.586 238.59 241.092 246.09599 249.093 254.097 259.10101 263.60101 266.103 272.60101 274.599 277.10101 282.10501 284.60699 289.61099 294.61499 299.61899 304.62299 309.12299 311.625 314.75699 316.755 321.759 326.763 329.26501 336.76199 341.63101 345.90601 350.91 358.40701 363.41101 368.41501 370.91699 375.41699 377.91901 382.923 385.92001 388.422 393.42599 398.42999 401.56201 406.06201 408.06 413.064 418.06799" y="227.601"> 3. Mounting height shall be at least 7 feet for new installations in areas with pedestrian movements or parking.</tspan></text></g></svg>
