<?xml version="1.0" encoding="UTF-8"?>
<svg width="255.79" height="567.01" version="1.1" viewBox="0 0 255.79 567.01" xml:space="preserve" xmlns="http://www.w3.org/2000/svg"><defs><clipPath id="b"><path d="m27 45h513v693h-513z"/></clipPath><clipPath id="a"><path d="m27 45h513v693h-513z"/></clipPath></defs><g transform="matrix(1.3333 0 0 -1.3333 -250.1 960.75)"><path d="m379.42 295.31h-191.85v425.26h191.85z" fill="#b1b4b6"/><g transform="translate(273.95 716.29)"><path d="m0 0h94.001" fill="none" stroke="#000" stroke-miterlimit="3.864" stroke-width=".75"/></g><g><path d="m266.12 716.29h-20v-53.622h20z" fill="#fff"/><path d="m266.62 383.48h-20v-53.622h20z" fill="#fff"/><text transform="matrix(1 0 0 -1 336.19 685.98)" fill="#000000" font-family="Helvetica" font-size="9px"><tspan x="0 5.0040002 7.506 9.5039997 14.508 19.007999 24.011999 29.016001" y="0">6 inches</tspan><tspan x="0 5.0040002 7.506 9.5039997 14.508 19.007999 24.011999 29.016001" y="45.999001">5 inches</tspan><tspan x="-2.5020001 2.5020001 7.506 10.008 12.006 17.01 21.51 26.514 31.518" y="179.00101">24 inches</tspan><tspan x="0 5.0040002 7.506 9.5039997 14.508 19.007999 24.011999 29.016001" y="295.00201">2 inches</tspan><tspan x="0 5.0040002 7.506 9.5039997 14.508 19.007999 24.011999 29.016001" y="329.004">6 inches</tspan></text></g><g transform="translate(272.95 662.67)"><path d="m0 0h95.001m-105-44.684h105m-62.001-215h62.001m-95.001-19h95.001m-95.001-53.622h95.001m-13.981 364.03v18.132" fill="none" stroke="#000" stroke-miterlimit="3.864" stroke-width=".75"/></g><g clip-path="url(#b)"><g transform="translate(353.43 713.76)"><path d="m0 0c-0.263-0.868-0.504-1.432-0.784-2.128h2.649c-0.118 0.249-0.522 1.26-0.783 2.128-0.281 0.929-0.473 1.771-0.541 2.318-0.069-0.547-0.261-1.389-0.541-2.318"/></g><g transform="translate(353.97 683.67)"><path d="m0 0v-17.069" fill="none" stroke="#000" stroke-miterlimit="3.864" stroke-width=".75"/></g><g transform="translate(354.5 665.36)"><path d="m0 0c0.262 0.868 0.504 1.432 0.783 2.128h-2.648c0.118-0.249 0.521-1.26 0.783-2.128 0.28-0.929 0.472-1.772 0.541-2.318 0.068 0.546 0.261 1.389 0.541 2.318"/></g><g transform="translate(353.97 646.85)"><path d="m0 0v11.889" fill="none" stroke="#000" stroke-miterlimit="3.864" stroke-width=".75"/></g><g transform="translate(353.43 659.97)"><path d="m0 0c-0.263-0.868-0.504-1.432-0.784-2.128h2.649c-0.118 0.249-0.522 1.26-0.783 2.128-0.281 0.929-0.473 1.771-0.541 2.318-0.069-0.547-0.261-1.389-0.541-2.318"/></g><g transform="translate(353.97 637.73)"><path d="m0 0v-15.818" fill="none" stroke="#000" stroke-miterlimit="3.864" stroke-width=".75"/></g><g transform="translate(354.5 620.67)"><path d="m0 0c0.262 0.868 0.504 1.433 0.783 2.129h-2.648c0.118-0.249 0.521-1.261 0.783-2.129 0.28-0.928 0.472-1.771 0.541-2.317 0.068 0.546 0.261 1.389 0.541 2.317"/></g><g transform="translate(353.97 513.87)"><path d="m0 0v100.18" fill="none" stroke="#000" stroke-miterlimit="3.864" stroke-width=".75"/></g><g transform="translate(353.43 615.29)"><path d="m0 0c-0.263-0.868-0.504-1.432-0.784-2.128h2.649c-0.118 0.249-0.522 1.26-0.783 2.128-0.281 0.929-0.473 1.772-0.541 2.318-0.069-0.546-0.261-1.389-0.541-2.318"/></g><g transform="translate(353.97 504.76)"><path d="m0 0v-97.845" fill="none" stroke="#000" stroke-miterlimit="3.864" stroke-width=".75"/></g><g transform="translate(354.5 405.67)"><path d="m0 0c0.262 0.868 0.504 1.432 0.783 2.129h-2.648c0.118-0.25 0.521-1.261 0.783-2.129 0.28-0.929 0.472-1.771 0.541-2.318 0.068 0.547 0.261 1.389 0.541 2.318"/></g><g transform="translate(353.97 365.44)"><path d="m0 0v14.611" fill="none" stroke="#000" stroke-miterlimit="3.864" stroke-width=".75"/></g><g transform="translate(353.43 381.29)"><path d="M 0,0 C -0.263,-0.868 -0.504,-1.433 -0.784,-2.129 H 1.865 C 1.747,-1.88 1.343,-0.868 1.082,0 0.801,0.929 0.609,1.772 0.541,2.317 0.472,1.772 0.28,0.929 0,0"/></g><g transform="translate(353.97 354.7)"><path d="m0 0v-20.406" fill="none" stroke="#000" stroke-miterlimit="3.864" stroke-width=".75"/></g><g transform="translate(354.5 333.05)"><path d="m0 0c0.262 0.868 0.504 1.432 0.783 2.129h-2.648c0.118-0.249 0.521-1.261 0.783-2.129 0.28-0.929 0.472-1.772 0.541-2.318 0.068 0.546 0.261 1.389 0.541 2.318"/></g><g transform="translate(353.42 400.29)"><path d="m0 0c-0.263-0.868-0.504-1.433-0.783-2.129h2.648c-0.118 0.249-0.521 1.261-0.783 2.129-0.28 0.929-0.473 1.772-0.541 2.317-0.069-0.545-0.261-1.388-0.541-2.317"/></g><g transform="translate(354.51 386.67)"><path d="m0 0c0.261 0.868 0.504 1.432 0.783 2.129h-2.648c0.118-0.249 0.521-1.261 0.783-2.129 0.28-0.929 0.472-1.772 0.541-2.318 0.068 0.546 0.26 1.389 0.541 2.318"/></g><g transform="translate(261.66 583.28)"><path d="m0 0-9.94-14.523-18.098-36.306 4.842-13.405 16.823 30.72 7.393-22.901-19.628-13.405 4.333-35.747 7.902 5.027-2.04 20.106 12.491 8.38-16.314-64.795 8.411-10.053 22.176 89.371z" fill="#fff"/></g><g transform="translate(203.67 454.82)"><path d="m0 0c0-20.053 7.419-36.306 16.568-36.306s16.567 16.253 16.567 36.306c0 20.051-7.418 36.306-16.567 36.306s-16.568-16.255-16.568-36.306m16.568 51.388c12.951 0 23.448-23.008 23.448-51.388 0-28.381-10.497-51.39-23.448-51.39s-23.451 23.009-23.451 51.39c0 28.38 10.5 51.388 23.451 51.388" fill="#fff"/></g><g transform="translate(275.94 454.82)"><path d="m0 0c0-20.053 7.417-36.306 16.567-36.306 9.149 0 16.566 16.253 16.566 36.306 0 20.051-7.417 36.306-16.566 36.306-9.15 0-16.567-16.255-16.567-36.306m16.567 51.388c12.951 0 23.448-23.008 23.448-51.388 0-28.381-10.497-51.39-23.448-51.39-12.95 0-23.449 23.009-23.449 51.39 0 28.38 10.499 51.388 23.449 51.388" fill="#fff"/></g><g transform="translate(264.68 599.48)"><path d="m0 0c0 24.576-26.294 24.576-26.294 0 0-0.232 2.261-0.327 5.451-0.347-9e-3 -0.349-0.025-0.695-0.025-1.05 0-9.718 3.596-17.595 8.03-17.595s8.029 7.877 8.029 17.595c0 0.428-0.015 0.847-0.028 1.268 2.861 0.069 4.837 0.129 4.837 0.129" fill="#fff"/></g></g><text transform="matrix(1 0 0 -1 254.12 307.93)" fill="#000000" font-family="Helvetica" font-size="9px"><tspan x="0" y="0">2</tspan><tspan x="-10.503 -8.5050001 -3.5009999 0.99900001 6.0029998 11.007" y="9">inches</tspan></text><g clip-path="url(#a)"><g transform="translate(246.62 308.88)"><path d="m0 0v14.984m20-14.978v14.978" fill="none" stroke="#000" stroke-miterlimit="3.864" stroke-width=".75"/></g><g transform="translate(249.31 317.02)"><path d="m0 0c0.869-0.262 1.433-0.503 2.129-0.783v2.649c-0.249-0.118-1.26-0.522-2.129-0.784-0.928-0.28-1.771-0.472-2.317-0.541 0.546-0.068 1.389-0.26 2.317-0.541"/></g><g transform="translate(263.93 318.11)"><path d="m0 0c-0.869 0.262-1.433 0.504-2.129 0.784v-2.648c0.249 0.117 1.26 0.521 2.129 0.782 0.928 0.281 1.771 0.473 2.317 0.541-0.546 0.069-1.389 0.261-2.317 0.541"/></g><g transform="translate(251 317.56)"><path d="m0 0h11.874" fill="none" stroke="#000" stroke-miterlimit="3.864" stroke-width=".75"/></g></g></g></svg>
