<?xml version="1.0" encoding="UTF-8"?>
<svg width="592.66" height="745.49" version="1.1" viewBox="0 0 592.66 745.49" xml:space="preserve" xmlns="http://www.w3.org/2000/svg"><defs><clipPath id="h"><path d="m27 45h513v693h-513z"/></clipPath><clipPath id="g"><path d="m60.926 142.72h445.15v595.28h-445.15z"/></clipPath><clipPath id="f"><path d="m27 45h513v693h-513z"/></clipPath><clipPath id="e"><path d="m60.926 142.72h445.15v595.28h-445.15z"/></clipPath><clipPath id="d"><path d="m27 45h513v693h-513z"/></clipPath><clipPath id="c"><path d="m27 45h513v693h-513z"/></clipPath><clipPath id="b"><path d="m60.926 142.72h445.15v595.28h-445.15z"/></clipPath><clipPath id="a"><path d="m27 45h513v693h-513z"/></clipPath></defs><g transform="matrix(1.3333 0 0 -1.3333 -81.235 935.79)"><g transform="translate(422.21 321.3)"><path d="m0 0v2.87h-3.002v2.035h-7.817v-2.035h-3.002v-2.87h6.911z" fill="#231f20"/></g><g clip-path="url(#h)"><g transform="translate(415.17 317.4)"><path d="m0 0c0.082-4.863 5.027-5.16 9.8-4.664" fill="none" stroke="#231f20" stroke-miterlimit="2.613" stroke-width=".75"/></g><g transform="translate(415.96 318.66)"><path d="m0 0c0.312-0.989 0.597-1.629 0.927-2.418l-3.023-0.045c0.129 0.285 0.572 1.447 0.859 2.443 0.305 1.067 0.51 2.035 0.579 2.658 0.085-0.623 0.32-1.582 0.658-2.638" fill="#231f20" fill-rule="evenodd"/></g><g transform="translate(421.41 537.39)"><path d="m0 0v2.869h-3v2.035h-7.819v-2.035h-3.001v-2.869h6.91z" fill="#231f20"/></g><g transform="translate(414.37 533.49)"><path d="m0 0c0.082-4.864 5.027-5.161 9.801-4.664" fill="none" stroke="#231f20" stroke-miterlimit="2.613" stroke-width=".75"/></g><g transform="translate(415.16 534.75)"><path d="m0 0c0.312-0.989 0.598-1.629 0.93-2.419l-3.026-0.044c0.129 0.285 0.572 1.447 0.86 2.443 0.304 1.067 0.509 2.035 0.578 2.659 0.086-0.624 0.32-1.582 0.658-2.639" fill="#231f20" fill-rule="evenodd"/></g><g transform="translate(401.36 142.73)" fill="#b1b4b6" fill-rule="evenodd"><path d="m0 0v559.12h-340.43v-559.12z"/><path d="m0 0v559.12h-340.43v-559.12z"/></g></g><g clip-path="url(#g)"><g transform="translate(115.23 142.73)"><path d="m0 0v180.85l-18.305 181.58v188.58" fill="none" stroke="#ffd24f" stroke-width="4"/></g><g transform="translate(187.33 693.73)"><path d="m0 0v-192.55l6.408-58.909" fill="none" stroke="#fff" stroke-width="4"/></g><g transform="translate(193.73 442.27)"><path d="m0 0 11.897-119.57v-179.97" fill="none" stroke="#fff" stroke-dasharray="70.02, 210.06" stroke-width="4"/></g><g transform="translate(277.73 504.6)"><path d="m0 0v189.12m18.305-370.16v-180.85" fill="none" stroke="#fff" stroke-width="4"/></g></g><g clip-path="url(#f)"><g transform="translate(278.82 489.64)"><path d="m0 0 17.211-166.06" fill="none" stroke="#fff" stroke-dasharray="14.004, 28.008" stroke-width="4"/></g></g><g clip-path="url(#e)"><g transform="translate(312.53 504.6)"><path d="m0 0v189.12" fill="none" stroke="#fff" stroke-width="8"/></g><g transform="translate(328.83 323.57)"><path d="m0 0v-180.85" fill="none" stroke="#fff" stroke-width="4"/></g><g transform="translate(90.926 693.73)"><path d="m0 0v-189.08l18.305-181.58v-180.35" fill="none" stroke="#ffd24f" stroke-width="4"/></g></g><text transform="matrix(1 0 0 -1 415.2 394.48)" fill="#000000" font-family="Helvetica" font-size="9px"><tspan x="0 6.4980001 11.502 14.004 16.506001 21.51 26.514 29.016001 31.014 33.012001 38.015999 43.02" y="0">Dotted lines</tspan><tspan x="5.0040002 8.0010004 13.005 18.009001 20.511 22.509001 27.513 32.516998 37.521 39.519001" y="9.9989996">(optional)</tspan></text><g clip-path="url(#d)"><g transform="translate(378.96 652.41)"><path d="m0 0c-6.411 5.758-12.801 11.336-19.211 17.094 1.425-4.985 2.859-9.973 4.285-14.949-1.426-0.043-2.86-0.075-4.285-0.118-12.707-0.929-19.473-7.636-21.328-19.125v-19.234h6.375v12.859c1.41 8.965 5.918 14.481 14.953 14.95h4.285c-0.727-4.981-1.465-9.965-2.195-14.95 5.714 7.762 11.398 15.707 17.121 23.473" fill="#fff" fill-rule="evenodd"/></g><g transform="translate(341.22 514.79)"><path d="m0 0c-1.965 0-2.754 3.985-2.715 22.219 0.047 18.231 0.75 22.215 2.715 22.215s2.551-3.984 2.551-22.215c0-18.234-0.586-22.219-2.551-22.219m-0.132 54.954c-2.895 0-5.196-5.871-5.258-32.735-0.059-26.863 2.363-32.738 5.258-32.738 2.894 0 5.253 5.875 5.253 32.738 0 26.864-2.359 32.735-5.253 32.735" fill="#fff"/></g><g transform="translate(348.89 504.58)"><path d="m0 0v65.164h2.617l5.239-41.735v41.735h2.617v-65.164h-2.617l-5.239 41.679v-41.679z" fill="#fff"/></g><g transform="translate(362.01 569.74)"><path d="m0 0v-65.141h10.425v10.531h-7.82v54.61z" fill="#fff"/></g><g transform="translate(371.12 569.69)"><path d="m0 0 3.91-39.102v-26.066h2.609v26.066l3.91 39.102h-2.609l-2.605-26.105-2.61 26.105z" fill="#fff"/></g><g transform="translate(98.926 685.73)"><path d="m0 0h307.89" fill="none" stroke="#fff" stroke-width="16"/></g></g><text transform="matrix(1 0 0 -1 419.03 271.51)" fill="#000000" font-family="Helvetica" font-size="9px"><tspan x="0 6.4980001 11.502 14.499 19.503 22.004999 27.009001 29.511 32.013 37.016998 42.021 46.521 49.022999 52.02 57.023998 62.028 69.525002 72.027 77.030998 82.035004" y="0">R4-4 at upstream end</tspan><tspan x="0.071999997 5.0760002 7.5780001 10.08 13.212 15.21 20.214001 25.218 27.719999 30.222 32.723999 37.728001 40.950001 45.953999 48.456001 53.459999 58.464001 60.462002 64.961998 67.463997 69.461998 74.466003 79.470001" y="9.9989996">of right turn only lane</tspan><tspan x="17.136 23.634001 28.638 31.635 36.639" y="-231.174">R3-7R</tspan></text><g clip-path="url(#c)"><g transform="translate(345.5 321.57)"><path d="m0 0h-18.666m18.666-136.88h-18.666" fill="none" stroke="#fff" stroke-width="4"/></g><g transform="translate(428.95 561.06)"><path d="m0 0h40.867c1.608 0 2.918-1.311 2.918-2.919v-40.867c0-1.607-1.31-2.918-2.918-2.918h-40.867c-1.607 0-2.918 1.311-2.918 2.918v40.867c0 1.588 1.33 2.919 2.918 2.919" fill="#fff" stroke="#000" stroke-width=".25"/></g><g transform="translate(428.96 560.28)"><path d="m0 0h40.845c1.178-4e-3 2.151-0.973 2.151-2.151v-40.845c0-1.177-0.973-2.15-2.151-2.151h-40.845c-1.178 1e-3 -2.147 0.974-2.151 2.151v40.845c4e-3 1.178 0.973 2.147 2.151 2.151" fill-rule="evenodd"/></g><g transform="translate(428.97 559.11)"><path d="m0 0h40.819c0.551 8e-3 1.004-0.449 0.998-0.998v-40.817c6e-3 -0.549-0.447-1.004-0.998-0.997h-40.819c-0.546-7e-3 -1.004 0.448-0.996 0.997v40.817c-8e-3 0.549 0.45 1.006 0.996 0.998" fill="#fff" fill-rule="evenodd"/></g><g transform="translate(468.66 553.19)"><path d="m0 0v0.868h-2.869v-6.225h3.111v0.868h-2.232v2.053h1.261v0.869h-1.261v1.567zm-6.713-1.185 1.865-4.172h0.664v6.225h-0.877v-3.723l-1.652 3.723h-0.879v-6.225h0.879zm-3.445-1.596h-0.879l0.439 1.802zm0.213-0.868 0.421-1.708h0.877l-1.521 6.225h-0.85l-1.521-6.225h0.877l0.422 1.708zm-5.17 4.517h-0.879v-6.225h3.109v0.83h-2.23zm-4.09-0.831v0.831h-3.11v-0.831h1.129v-5.394h0.877v5.394zm-4.164 0.831h-0.879v-2.539h-1.652v2.539h-0.877v-6.225h0.877v2.818h1.652v-2.818h0.879zm-4.727-3.21h-1.549v-0.868h0.672v-0.43c0-0.644-0.215-0.943-0.662-0.943-0.469 0-0.775 0.328-0.887 0.925-0.085 0.476-0.132 1.027-0.132 1.558 0 0.746 0.103 1.447 0.261 1.755 0.161 0.289 0.403 0.447 0.702 0.447 0.41 0 0.699-0.279 0.718-0.689h0.877c-0.037 0.914-0.699 1.559-1.586 1.559-0.691 0-1.316-0.468-1.541-1.131-0.195-0.588-0.281-1.232-0.281-2.089 0-0.823 0.131-1.699 0.328-2.149 0.309-0.707 0.832-1.066 1.57-1.066 0.606 0 1.102 0.32 1.344 0.861 0.121 0.28 0.166 0.532 0.166 0.962zm-4.722 3.21h-0.879v-6.225h0.879zm-4.725-2.435v1.567h0.896c0.467 0 0.786-0.316 0.786-0.783 0-0.504-0.282-0.784-0.786-0.784zm1.672-0.738c0.56 0.234 0.859 0.766 0.859 1.522 0 0.999-0.637 1.651-1.588 1.651h-1.82v-6.225h0.877v2.921h0.822l0.821-2.921h0.888z" fill-rule="evenodd"/></g><g transform="translate(469.36 526.76)"><path d="m0 0v0.832h-3.109v-0.832h1.131v-5.394h0.877v5.394zm-4.164 0.832h-0.877v-2.539h-1.652v2.539h-0.877v-6.226h0.877v2.82h1.652v-2.82h0.877zm-4.724-3.211h-1.551v-0.869h0.674v-0.428c0-0.645-0.215-0.944-0.663-0.944-0.466 0-0.777 0.327-0.888 0.925-0.082 0.477-0.131 1.026-0.131 1.558 0 0.746 0.103 1.448 0.264 1.755 0.158 0.29 0.4 0.449 0.699 0.449 0.41 0 0.701-0.28 0.719-0.691h0.877c-0.038 0.914-0.7 1.559-1.586 1.559-0.692 0-1.317-0.466-1.541-1.13-0.198-0.587-0.282-1.231-0.282-2.091 0-0.821 0.133-1.699 0.326-2.145 0.311-0.711 0.834-1.068 1.571-1.068 0.605 0 1.101 0.319 1.346 0.86 0.119 0.28 0.166 0.533 0.166 0.963zm-4.723 3.211h-0.879v-6.226h0.879zm-4.725-2.436v1.569h0.897c0.467 0 0.783-0.319 0.783-0.785 0-0.504-0.279-0.784-0.783-0.784zm1.672-0.738c0.559 0.233 0.858 0.765 0.858 1.522 0 0.998-0.635 1.652-1.586 1.652h-1.821v-6.226h0.877v2.922h0.821l0.822-2.922h0.887zm-8.664 1.121 1.865-4.173h0.662v6.226h-0.877v-3.725l-1.65 3.725h-0.879v-6.226h0.879zm-4.726-0.383v1.569h0.896c0.467 0 0.785-0.319 0.785-0.785 0-0.504-0.279-0.784-0.785-0.784zm1.671-0.738c0.561 0.233 0.86 0.765 0.86 1.522 0 0.998-0.637 1.652-1.588 1.652h-1.82v-6.226h0.877v2.922h0.82l0.824-2.922h0.887zm-4.744 3.174v-4.481c0-0.588-0.326-0.98-0.81-0.98-0.504 0-0.84 0.392-0.84 0.98v4.481h-0.879v-4.36c0-0.513 0.055-0.774 0.234-1.092 0.299-0.531 0.895-0.879 1.485-0.879 0.578 0 1.166 0.357 1.457 0.879 0.176 0.318 0.232 0.579 0.232 1.092v4.36zm-3.594-0.832v0.832h-3.109v-0.832h1.131v-5.394h0.877v5.394z" fill-rule="evenodd"/></g><g transform="translate(461.35 540.56)"><path d="m0 0v1.039h-3.886v-1.039h1.412v-6.744h1.097v6.744zm-5.603-0.84c-0.047 1.165-0.864 2.005-1.949 2.005-1.073 0-1.95-0.898-1.95-2.005 0-0.7 0.328-1.284 0.957-1.726 1.53-1.074 1.108-0.771 1.285-0.923 0.43-0.373 0.596-0.689 0.596-1.119 0-0.643-0.48-1.18-1.062-1.18-0.619 0-1.075 0.537-1.075 1.249v0.095h-1.062v-0.107c0-1.306 0.934-2.323 2.137-2.323 1.166 0 2.123 1.017 2.123 2.266 0 1.108-0.655 1.97-2.123 2.835-0.549 0.325-0.711 0.536-0.711 0.933 0 0.501 0.396 0.91 0.885 0.91 0.492 0 0.863-0.374 0.888-0.91zm-7.403 1.879v-5.601c0-0.735-0.406-1.226-1.013-1.226-0.629 0-1.051 0.491-1.051 1.226v5.601h-1.096v-5.45c0-0.64 0.071-0.968 0.291-1.364 0.373-0.665 1.121-1.099 1.856-1.099 0.724 0 1.459 0.445 1.82 1.099 0.223 0.396 0.293 0.724 0.293 1.364v5.45zm-5.216 0h-1.096l-1.424-4.376-1.426 4.376h-1.095v-7.783h1.095v4.375l1.426-4.375 1.424 4.375v-4.375h1.096z" fill-rule="evenodd"/></g><g transform="translate(430.58 331.54)"><path d="m0 0h50.437c1.969 0 3.582-1.612 3.582-3.582v-40.836c0-1.969-1.613-3.582-3.582-3.582h-50.437c-1.969 0-3.582 1.613-3.582 3.582v40.836c0 1.97 1.613 3.582 3.582 3.582" fill="#fff"/><path d="m0 0h50.437c1.969 0 3.582-1.612 3.582-3.582v-40.836c0-1.969-1.613-3.582-3.582-3.582h-50.437c-1.969 0-3.582 1.613-3.582 3.582v40.836c0 1.97 1.613 3.582 3.582 3.582z" fill="none" stroke="#000" stroke-width=".25"/></g><g transform="translate(430.58 330.54)"><path d="m0 0h50.437c1.42 0 2.582-1.161 2.582-2.582v-40.836c0-1.418-1.162-2.582-2.582-2.582h-50.437c-1.42 0-2.582 1.164-2.582 2.582v40.836c0 1.421 1.162 2.582 2.582 2.582" fill-rule="evenodd"/></g><g transform="translate(430.58 329.14)"><path d="m0 0h50.437c0.651 0 1.182-0.533 1.182-1.183v-40.836c0-0.649-0.531-1.182-1.182-1.182h-50.437c-0.649 0-1.182 0.533-1.182 1.182v40.836c0 0.65 0.533 1.183 1.182 1.183" fill="#fff" fill-rule="evenodd"/></g><g transform="translate(465.55 319.5)"><path d="m0 0v6.396h-0.92v-3.838l-1.75 3.838h-0.92v-6.396h0.92v4.287l1.974-4.287zm-4.983 6.396h-0.896v-6.396h0.896zm-2.152-4.623v1.324h-1.641v-0.898h0.719v-0.426c0-0.674-0.225-0.988-0.695-0.988-0.494 0-0.809 0.336-0.942 0.965-0.092 0.494-0.136 1.054-0.136 1.593 0 0.764 0.113 1.481 0.292 1.797 0.157 0.313 0.405 0.469 0.719 0.469 0.449 0 0.74-0.291 0.762-0.717h0.922c-0.047 0.944-0.742 1.615-1.662 1.615-0.741 0-1.391-0.492-1.616-1.166-0.224-0.607-0.292-1.257-0.292-2.154 0-0.832 0.134-1.728 0.337-2.199 0.315-0.719 0.875-1.106 1.639-1.106 0.65 0 1.166 0.342 1.414 0.903 0.133 0.269 0.18 0.539 0.18 0.988m-4.535-1.773v0.898h-2.334v2.109h1.324v0.875h-1.324v1.616h2.088v0.898h-3.008v-6.396zm-5.207 1.818c0-0.561-0.336-0.92-0.852-0.92h-0.92v1.996h0.92c0.471 0 0.852-0.471 0.852-1.076m-0.112 2.916c0-0.582-0.269-0.941-0.695-0.941h-0.965v1.705h0.965c0.494 0 0.695-0.225 0.695-0.764m1.01-2.984c0 0.65-0.291 1.189-0.785 1.593 0.516 0.539 0.672 0.809 0.672 1.391 0 0.988-0.606 1.662-1.457 1.662h-2.02v-6.396h1.885c0.943 0 1.705 0.785 1.705 1.75" fill-rule="evenodd"/></g><g transform="translate(463.78 303.01)"><path d="m0 0-4.504-2.613 2.49-2.176c0.075-0.066 0.127-0.164 0.172-0.25 0.227-0.437 0.205-0.965-0.193-1.301-0.205-0.175-0.49-0.32-0.768-0.3l-12.398 0.957 5.312 11.22c0.09 0.192 0.215 0.34 0.397 0.442 0.439 0.252 1.014 0.168 1.353-0.209 0.075-0.086 0.219-0.328 0.248-0.457l0.797-3.42 4.508 2.609z" fill-rule="evenodd"/></g><g transform="translate(445.91 315.55)"><path d="m0 0v0.83h-2.424v-0.83h0.785v-5.566h0.807v5.566zm-3.082-5.566v6.396h-0.809v-2.58h-1.144v2.58h-0.809v-6.396h0.809v2.984h1.144v-2.984zm-3.735 1.459v1.638h-1.187v-0.83h0.381v-0.853c0-0.426-0.158-0.695-0.449-0.695s-0.45 0.224-0.539 0.65c-0.067 0.539-0.112 0.965-0.112 1.842 0 0.875 0.045 1.301 0.133 1.816 0.068 0.426 0.271 0.629 0.562 0.629 0.225 0 0.36-0.135 0.405-0.404h0.806c-0.089 0.785-0.515 1.234-1.234 1.234-0.627 0-1.008-0.246-1.211-0.83-0.224-0.605-0.291-1.168-0.291-2.445 0-1.303 0.067-1.887 0.268-2.469 0.203-0.607 0.584-0.857 1.234-0.857 0.584 0 1.01 0.295 1.145 0.744 0.045 0.201 0.089 0.539 0.089 0.83m-3.732 4.937h-0.807v-6.396h0.807zm-2.408-1.773c0-0.606-0.135-0.807-0.584-0.807h-0.539v1.75h0.404c0.561 0 0.719-0.224 0.719-0.943m0.83-0.022c0 1.19-0.518 1.795-1.504 1.795h-1.256v-6.396h0.807v2.984h0.381l0.718-2.984h0.83l-0.65 3.187c0.471 0.291 0.674 0.696 0.674 1.414" fill-rule="evenodd"/></g><g transform="translate(462.62 309.98)"><path d="m0 0v6.396h-0.809v-3.185l-1.144 3.185h-0.807v-6.396h0.807v3.793l1.258-3.793zm-4.115 4.625c0-0.608-0.135-0.809-0.584-0.809h-0.539v1.75h0.404c0.561 0 0.719-0.224 0.719-0.941m0.83-0.024c0 1.19-0.516 1.795-1.504 1.795h-1.256v-6.396h0.807v2.986h0.382l0.717-2.986h0.83l-0.65 3.187c0.471 0.293 0.674 0.696 0.674 1.414m-3.668-3.029v4.824h-0.807v-4.937c0-0.471-0.203-0.74-0.56-0.74-0.383 0-0.584 0.269-0.584 0.74v4.937h-0.809v-4.824c0-0.381 0.045-0.607 0.113-0.808 0.225-0.584 0.627-0.879 1.28-0.879 0.56 0 0.918 0.205 1.166 0.677 0.134 0.247 0.201 0.561 0.201 1.01m-3.195 3.994v0.83h-2.424v-0.83h0.787v-5.566h0.806v5.566z" fill-rule="evenodd"/></g><g transform="translate(480.61 309.94)"><path d="m0 0v0.83h-1.638v2.244h1.033v0.854h-1.033v1.636h1.548v0.832h-2.355v-6.396zm-3.592 0v6.396h-0.808v-3.187l-1.145 3.187h-0.808v-6.396h0.808v3.793l1.258-3.793zm-4.804 2.535h-0.698l0.36 1.684zm1.39-2.535-1.324 6.396h-0.83l-1.303-6.396h0.832l0.36 1.705h1.054l0.358-1.705zm-3.615 0v0.74h-1.639v5.656h-0.808v-6.396z" fill-rule="evenodd"/></g><g transform="translate(448.2 292.14)"><path d="m0 0c0-0.56-0.045-1.279-0.068-1.504-0.09-0.47-0.247-0.674-0.538-0.674h-0.517v4.735h0.517c0.336 0 0.471-0.223 0.538-0.92 0.023-0.447 0.068-1.166 0.068-1.637m0.83 0.201c0 0.539-0.045 1.121-0.135 1.639-0.045 0.404-0.179 0.83-0.338 1.076-0.201 0.315-0.515 0.473-0.963 0.473h-1.326v-6.397h1.326c0.358 0 0.672 0.112 0.852 0.315 0.383 0.426 0.584 1.39 0.584 2.894m-3.637-3.209v0.741h-1.636v5.656h-0.809v-6.397zm-3.455 0v0.83h-1.638v2.245h1.033v0.853h-1.033v1.637h1.548v0.832h-2.355v-6.397zm-3.838 6.397h-0.808v-6.397h0.808zm-1.683 0h-0.875l-0.83-2.246-0.852 2.246h-0.875l1.301-3.502v-2.895h0.83v2.895z" fill-rule="evenodd"/></g><g transform="translate(457.73 292.34)"><path d="m0 0c0-0.425 0.09-2.49-0.629-2.49-0.738 0-0.65 2.065-0.65 2.49 0 0.45-0.088 2.448 0.65 2.448 0.608 0 0.629-1.932 0.629-2.448m0.854 0c0 1.079 0.09 3.278-1.483 3.278-1.57 0-1.48-2.178-1.48-3.278 0-1.054-0.111-3.324 1.48-3.324 1.573 0 1.483 2.27 1.483 3.324m-3.682 2.356v0.832h-2.422v-0.832h0.785v-5.565h0.809v5.565z" fill-rule="evenodd"/></g><g transform="translate(478.61 290.5)"><path d="m0 0c0 0.449-0.135 0.986-0.314 1.39-0.202 0.404-0.313 0.563-1.01 1.348-0.336 0.359-0.449 0.582-0.449 0.875 0 0.426 0.179 0.695 0.494 0.695 0.293 0 0.426-0.201 0.449-0.695h0.83c-0.09 1.01-0.516 1.504-1.301 1.504-0.763 0-1.302-0.629-1.302-1.504 0-0.449 0.158-0.899 0.515-1.324 0.069-0.09 0.27-0.336 0.563-0.674 0.492-0.584 0.695-1.055 0.695-1.615 0-0.405-0.203-0.651-0.516-0.651-0.248 0-0.449 0.156-0.515 0.402-0.047 0.135-0.069 0.225-0.069 0.473h-0.83c0.045-1.123 0.516-1.709 1.414-1.709 0.336 0 0.629 0.115 0.83 0.295 0.315 0.268 0.516 0.74 0.516 1.19m-3.389-1.37v0.83h-1.636v2.245h1.031v0.853h-1.031v1.637h1.547v0.832h-2.356v-6.397zm-3.457 0-1.142 4.198 1.055 2.199h-0.944l-1.01-2.043v2.043h-0.808v-6.397h0.808v2.401l0.315 0.629 0.851-3.03zm-4.24 6.397h-0.806v-6.397h0.806zm-2.627-4.715c0-0.648-0.111-0.852-0.492-0.852h-0.629v2.133h0.606c0.404 0 0.515-0.269 0.515-1.281m-0.111 3.008c0-0.672-0.09-0.875-0.449-0.875h-0.561v1.75h0.473c0.402 0 0.537-0.246 0.537-0.875m0.943-2.94c0 0.405-0.045 0.83-0.135 1.079-0.044 0.246-0.111 0.335-0.291 0.56 0.223 0.336 0.313 0.674 0.313 1.301 0 1.281-0.359 1.707-1.481 1.707h-1.167v-6.397h1.527c0.808 0 1.234 0.606 1.234 1.75" fill-rule="evenodd"/></g><g transform="translate(313.91 488.76)"><path d="m0 0 14.924-165.19" fill="none" stroke="#fff" stroke-dasharray="14, 28" stroke-width="4"/></g><g transform="translate(302.01 646.43)"><path d="m0 0-7.75 22.483-7.748-22.483 4.864 1.214v-22.178h5.771v22.178z" fill="#fff" fill-rule="evenodd"/></g><g transform="translate(320.17 266.68)"><path d="m0 0-7.75 22.485-7.748-22.485 4.863 1.215v-22.178h5.771v22.178z" fill="#fff" fill-rule="evenodd"/></g></g><g clip-path="url(#b)"><g transform="translate(401.36 142.73)"><path d="m0 0v559.12" fill="none" stroke="#000" stroke-miterlimit="2.613"/></g></g><g clip-path="url(#a)"><g transform="translate(321.52 440.77)"><path d="m0 0 90.602-42.031-120.4 0.506" fill="none" stroke="#000" stroke-width=".75"/></g><g transform="translate(290.48 398.71)"><path d="m0 0c0.867-0.266 1.43-0.51 2.125-0.793l0.012 2.649c-0.25-0.117-1.264-0.516-2.133-0.773-0.93-0.276-1.773-0.466-2.32-0.532 0.547-0.071 1.388-0.266 2.316-0.551"/></g><g transform="translate(320.17 440.8)"><path d="m0 0c0.677-0.602 1.088-1.058 1.601-1.604l1.113 2.403c-0.275-3e-3 -1.363 0.057-2.259 0.184-0.961 0.136-1.807 0.315-2.332 0.482 0.468-0.292 1.152-0.819 1.877-1.465"/></g><g transform="translate(307.05 186.08)"><path d="m0 0 1.294 11.084-0.41 2.171 0.82 2.772h1.76l0.025-1.572h-1.543l-0.314-1.049 0.362-2.024-0.454-5.006h6.316l0.097 0.916c-0.508 0.206-1.384 1.176-1.593 1.741-0.209 0.564-0.026 1.084 0.213 1.107 1.246 0.164 3.098 0.49 3.45 0.494s0.389-0.545 0.152-1.345c-0.235-0.799-0.441-1.52-1.334-1.95l-0.24-2.023 1.495-5.75c0.704 1.328 1.556 2.019 2.384 2.019 2.483 0 4.511-6.291 4.511-14.007 0-7.713-2.028-14.008-4.511-14.008-2.044 0-3.841 4.377-4.368 10.428l-1.374-0.768c-0.06-0.502-0.197-0.887-0.36-1.189l0.245-3.61h0.314l0.023-0.974-0.989-0.147v1.047h0.242l-0.298 3.607c-0.445 0.225-0.677 1.409-0.545 2.58l-4.488 15.76-0.2-1.689c1.089-2.664 1.74-6.768 1.74-11.037 0-7.713-2.024-14.008-4.508-14.008-2.485 0-4.51 6.295-4.51 14.008 0 7.716 2.025 14.007 4.51 14.007 0.721 0 1.461-0.546 2.086-1.585m8.972-15.528c0.412-4.779 1.882-8.236 3.508-8.236 2.012 0 3.652 5.094 3.652 11.342s-1.64 11.341-3.652 11.341c-0.642 0-1.385-0.468-1.926-1.455l1.982-8.173c0.242-0.012 0.453-0.684 0.453-1.499 0-0.824-0.217-1.498-0.482-1.498-0.074 0-0.15 0.061-0.217 0.155zm-10.566 3.358c0.846 2.089 1.505 4.08 1.98 8.064 0.751-2.113 1.179-5.172 1.179-8.316 0-6.246-1.641-11.342-3.651-11.342-2.012 0-3.653 5.096-3.653 11.342 0 6.248 1.641 11.341 3.653 11.341 0.64 0 1.297-0.574 1.826-1.544-0.359-3.516-0.706-5.329-1.809-8.084-0.267-0.036-0.471-0.704-0.471-1.499 0-0.824 0.217-1.498 0.483-1.498 0.265 0 0.463 0.674 0.463 1.536m2.792 15.171 0.098 0.932 6.305 0.027-1.678-15.793-0.071 1.647h0.192l-0.024 1.049h-0.843l0.024-0.973h0.216l0.048-1.797s-4.243 14.834-4.267 14.908m6.795-16.693c-5e-3 0.34-0.022 0.887-0.022 1.27 0 3.884 0.403 7.66 1.502 10.798l-1.143 4.252-1.771-16.773zm0.849 0.574 3.088 1.565-1.946 7.851c-1.009-2.732-1.134-6.009-1.142-9.416" fill="#fff" fill-rule="evenodd"/></g><g transform="translate(288.9 565.83)"><path d="m0 0 1.294 11.084-0.41 2.172 0.819 2.772h1.761l0.024-1.573h-1.543l-0.313-1.049 0.361-2.023-0.454-5.006h6.317l0.096 0.916c-0.508 0.205-1.383 1.176-1.592 1.741-0.209 0.564-0.026 1.084 0.212 1.107 1.247 0.164 3.099 0.49 3.451 0.494s0.388-0.545 0.152-1.345c-0.235-0.8-0.441-1.52-1.334-1.951l-0.24-2.022 1.495-5.751c0.704 1.329 1.556 2.02 2.384 2.02 2.483 0 4.51-6.292 4.51-14.008 0-7.713-2.027-14.007-4.51-14.007-2.044 0-3.841 4.377-4.369 10.428l-1.374-0.768c-0.059-0.502-0.196-0.888-0.359-1.189l0.245-3.61h0.314l0.023-0.974-0.989-0.148v1.047h0.242l-0.298 3.607c-0.445 0.225-0.678 1.409-0.546 2.58l-4.487 15.761-0.2-1.69c1.089-2.664 1.74-6.768 1.74-11.037 0-7.713-2.024-14.007-4.509-14.007-2.484 0-4.51 6.294-4.51 14.007 0 7.716 2.026 14.008 4.51 14.008 0.722 0 1.462-0.547 2.087-1.586m8.972-15.528c0.412-4.779 1.882-8.236 3.508-8.236 2.011 0 3.652 5.095 3.652 11.342 0 6.248-1.641 11.342-3.652 11.342-0.642 0-1.385-0.469-1.926-1.455l1.981-8.173c0.242-0.012 0.453-0.685 0.453-1.499 0-0.825-0.216-1.498-0.481-1.498-0.074 0-0.15 0.06-0.217 0.155zm-10.567 3.359c0.847 2.088 1.505 4.08 1.981 8.063 0.751-2.112 1.179-5.171 1.179-8.316 0-6.245-1.641-11.342-3.652-11.342s-3.652 5.097-3.652 11.342c0 6.248 1.641 11.342 3.652 11.342 0.641 0 1.298-0.575 1.826-1.545-0.358-3.515-0.706-5.329-1.808-8.083-0.268-0.036-0.471-0.704-0.471-1.499 0-0.825 0.217-1.498 0.483-1.498 0.265 0 0.462 0.673 0.462 1.536m2.792 15.171 0.099 0.932 6.305 0.026-1.678-15.793-0.071 1.648h0.192l-0.024 1.049h-0.843l0.023-0.974h0.217l0.048-1.797s-4.243 14.834-4.268 14.909m6.795-16.694c-5e-3 0.34-0.021 0.887-0.021 1.27 0 3.885 0.403 7.661 1.502 10.798l-1.144 4.253-1.77-16.773zm0.85 0.574 3.088 1.566-1.946 7.85c-1.009-2.731-1.134-6.009-1.142-9.416" fill="#fff" fill-rule="evenodd"/></g></g></g></svg>
