<?xml version="1.0" encoding="UTF-8"?>
<svg width="512.67" height="549.01" version="1.1" viewBox="0 0 512.67 549.01" xml:space="preserve" xmlns="http://www.w3.org/2000/svg"><defs><clipPath id="e"><path d="m127.25 298.1h384.5v439.9h-384.5z"/></clipPath><clipPath id="d"><path d="m127.25 298.1h384.5v439.9h-384.5z"/></clipPath><clipPath id="c"><path d="m127.25 298.1h384.5v439.9h-384.5z"/></clipPath><clipPath id="b"><path d="m127.25 298.1h384.5v439.9h-384.5z"/></clipPath><clipPath id="a"><path d="m127.25 298.1h384.5v439.9h-384.5z"/></clipPath></defs><g transform="matrix(1.3333 0 0 -1.3333 -169.67 954.99)"><text transform="matrix(.98 0 0 -1 146.99 524.89)" fill="black" font-family="Helvetica" font-size="9px"><tspan x="0 6.9840002 9.3086996 11.7927 14.7717 17.255699 22.241699 24.7257 29.7117 32.690701 37.172699 39.6567 44.6427 47.126701 52.112701 54.596699 60.581699 65.567703 70.049698 72.029701 77.015701 82.001701 86.483704 90.965698 93.449699 99.929703 104.9157 109.9017 112.3857 117.3717 119.8557 125.8407 127.8207 132.8067" y="0">Off-Interstate Business Route Sign</tspan></text><text transform="matrix(1 0 0 -1 190.01 514.89)" fill="black" font-family="Helvetica" font-size="9px"><tspan x="0 7.4970002 12.501 15.498 20.502001 23.004 26.000999 31.004999 36.008999 41.013 46.016998" y="0">M1-2 (Loop)</tspan><tspan x="-7.7670002 -1.2690001 1.233 7.2360001 9.7379999 12.24 18.738001 23.742001 28.746 31.247999 36.251999 38.754002 44.757 46.755001 51.758999" y="96.147003">U.S. Route Sign</tspan><tspan x="14.247 21.743999 26.747999 29.745001" y="106.146">M1-4</tspan><tspan x="-17.775 -15.273 -10.269 -7.7670002 -2.763 0.234 4.7340002 7.2360001 12.24 14.742 19.746 22.247999 28.746 33.75 38.754002 41.256001 46.259998 48.762001 54.764999 56.763 61.766998" y="-116.649">Interstate Route Sign</tspan><tspan x="14.247 21.743999 26.747999 29.745001" y="-106.65">M1-1</tspan></text><g clip-path="url(#e)"><g transform="translate(297.01 429.95)"><path d="m0 0h-81.006c-2.476 0-4.501 2.025-4.501 4.5v63.005c0 2.476 2.025 4.501 4.501 4.501h81.006c2.475 0 4.5-2.025 4.5-4.501v-63.005c0-2.475-2.025-4.5-4.5-4.5"/></g><g transform="translate(256.51 431.45)"><path d="m0 0c3.027 3.665 7.606 6 12.73 6h11.272c10.77 0 19.501 8.732 19.501 19.502 0 2.881-0.624 5.616-1.746 8.077-3.155 6.875-2.77 15.179 1.746 21.925l-13.501 13.502c-9.5-5.878-21.104-5.5-30.002 0-8.898-5.5-20.502-5.878-30.002 0l-13.501-13.502c4.516-6.746 4.901-15.05 1.746-21.925-1.122-2.461-1.746-5.196-1.746-8.077 0-10.77 8.731-19.502 19.501-19.502h11.272c5.124 0 9.703-2.335 12.73-6" fill="#fff"/></g><g transform="translate(223.55 478.63)"><path d="m0 0h-3.249v4.55h0.373c1.499 0 3.128 0.882 4.127 2.273h4.5v-36.003h-5.751z"/></g><g transform="translate(241.96 463.6)"><path d="m0 0h10.274v13.519zm15.985-14.149h-5.711v8.969h-17.884v3.407l17.884 23.627h5.711v-21.854h3.425v-5.18h-3.425z"/></g><g transform="translate(276.21 449.45)"><path d="m0 0c0 14.046 5.891 25.224 9.271 30.319h-17.272v5.684h24.508v-5.684c-2.412-2.534-10.665-14.091-10.665-30.319z"/></g></g><text transform="matrix(1 0 0 -1 390.46 418.31)" fill="black" font-family="Helvetica" font-size="9px"><tspan x="0 6.0029998 8.5050001 13.509 16.011 21.014999 23.517 30.014999 35.019001 40.022999 42.525002 47.528999 50.030998 56.034 58.032001 63.035999" y="0">State Route Sign</tspan><tspan x="23.768999 31.266001 36.27 39.266998" y="9.9989996">M1-5</tspan><tspan x="-2.25 3.2490001 8.2530003 11.25 16.254 20.754 23.256001 25.757999 32.256001 37.259998 42.264 44.765999 49.77 52.271999 58.275002 60.272999 65.277" y="103.707">Forest Route Sign</tspan><tspan x="23.768999 31.266001 36.27 39.266998" y="113.706">M1-7</tspan></text><g clip-path="url(#d)"><g transform="translate(405.77 326.54)"><path d="m0 0c-3.991 0-7.361 2.853-8.015 6.783l-9.303 56.126c-0.062 0.409-0.091 0.813-0.091 1.216 0 4.48 3.644 8.125 8.125 8.125h56c4.48 0 8.125-3.645 8.125-8.125 0-0.403-0.029-0.807-0.088-1.199l-9.307-56.143c-0.653-3.93-4.023-6.783-8.014-6.783z" fill="#fff"/></g><g transform="translate(452.49 398.91)"><path d="m0 0h-56c-4.549 0-8.25-3.701-8.25-8.25 0-0.407 0.03-0.817 0.089-1.217l0.022-0.137 9.285-56.008c0.664-3.991 4.086-6.888 8.138-6.888h37.432c4.052 0 7.474 2.897 8.138 6.888l9.285 56.008 0.022 0.136c0.059 0.401 0.089 0.81 0.089 1.218 0 4.549-3.701 8.25-8.25 8.25m0-0.25c4.418 0 8-3.582 8-8 0-0.401-0.03-0.796-0.087-1.181-6e-3 -0.044-0.013-0.088-0.02-0.132l-9.286-56.008c-0.63-3.79-3.923-6.679-7.891-6.679h-37.432c-3.968 0-7.261 2.889-7.891 6.679l-9.286 56.008c-7e-3 0.044-0.014 0.088-0.02 0.132-0.057 0.385-0.087 0.78-0.087 1.181 0 4.418 3.582 8 8 8z"/></g><g transform="translate(390.57 389.68)"><path d="m0 0 5.639-34.014h56.561l5.639 34.013c5e-3 0.033 0.011 0.066 0.015 0.099 0.044 0.291 0.065 0.59 0.065 0.888 0 3.308-2.691 6-5.999 6h-56c-3.309 0-6-2.692-6-6 0-0.298 0.022-0.597 0.065-0.888 5e-3 -0.033 0.01-0.066 0.015-0.098" fill="#7d4802"/></g><g transform="translate(396.54 353.66)"><path d="m0 0 3.315-19.993c0.23-1.383 0.947-2.651 2.021-3.569 1.084-0.927 2.468-1.438 3.897-1.438h37.432c1.429 0 2.813 0.511 3.897 1.438 1.073 0.918 1.791 2.186 2.021 3.568l3.315 19.994z" fill="#7d4802"/></g><g transform="translate(413.78 342.64)"><path d="m0 0c0.127 2.004 0.333 4.009 0.234 6.013-0.071 0.81-1.636 0.59-1.62-0.249 0.012-0.717 0.012-1.433-0.016-2.15 0.014-0.317-0.032-0.633-0.14-0.95-0.613 1.101-1.226 2.202-1.838 3.302-0.416 0.629-1.366 0.38-1.402-0.607l0.015-1.449c-0.031-0.706-0.062-1.412-0.093-2.118-0.031-0.873-0.078-1.823-0.109-2.695 0.085-1.267 1.679-0.961 1.589 0.249 5e-3 0.992 0.01 1.983 0.015 2.975 0.435-1.034 0.96-2.023 1.558-2.975 0.931-1.347 1.696-0.707 1.807 0.654" fill="#fff"/></g><g transform="translate(437.73 344.69)"><path d="m0 0c0.057 0.837 0.166 1.672 0.534 2.491 0.1 0.205 0.182 0.2 0.246-0.014 0.245-0.824-8e-3 -1.68-0.602-2.559-0.087-0.076-0.164-0.117-0.178 0.082m-3.599-1.745c-0.285-0.156-0.491-0.124-0.52 0.322 0.12 0.571 0.498 0.978 1.019 1.293 0.025-0.03 0.051-0.059 0.076-0.089 0.018-0.678-0.21-1.158-0.575-1.526m-7.879-0.086c-0.245-0.369-0.46-0.388-0.647-0.057-0.142 0.396-0.154 0.768 0.121 1.087l0.582-0.042c0.095-0.329 0.076-0.659-0.056-0.988m-9.724 0.332c-0.239-0.431-0.928-0.236-0.741 0.324 0.186 0.56 0.499 0.909 0.903 1.175 0.392-0.467 0.076-1.068-0.162-1.499m23.245 1.056c-0.186-0.101-0.347-0.268-0.428-0.519-0.065-0.203-0.043-0.434-0.137-0.626-0.07-0.142-0.232-0.217-0.336-0.336-0.173-0.196-0.408-0.17-0.687-0.03 0.838 1.522 1.488 3.041 1.528 4.534 6e-3 0.21 0.02 0.55-0.246 0.901-0.209 0.276-0.508 0.471-0.778 0.687-0.352 0.28-0.705 0.12-1.039-0.214-1.105-1.59-1.364-3.516-1.099-5.649-0.732-0.142-0.88 0.535-0.443 2.031 0.066 0.172 0.052 0.338-0.137 0.488-0.143 0.067-0.285 0.133-0.428 0.199-0.148 0.08-0.285 0.065-0.412-0.046-0.207 0.338-0.563 0.399-1.068 0.183-0.963-0.719-1.656-1.777-2.214-3.007-0.581 0.319-0.377 0.975-0.061 1.679 0.111 0.249 0.116 0.509 0.015 0.779-0.357 0.533-0.81 0.619-1.359 0.259-0.234-0.219-0.468-0.437-0.702-0.656-0.172 0.204-0.372 0.394-0.672 0.534-0.267 0.136-0.481 0.08-0.641-0.168-0.266-0.273-0.575-0.468-0.947-0.549-0.334 0.413-0.448 0.998-1.42 0.916-0.13 0.159-0.279 0.211-0.473 0.03-0.706-0.84-1.304-1.679-1.901-2.563-0.131-0.129-0.286-0.173-0.313 0.044-0.108 0.572 0.087 1.181 0.489 1.817-0.245 0.249-0.489 0.499-0.733 0.748-0.066-5e-3 -0.133-0.01-0.199-0.015-0.198-0.082-0.397-0.163-0.595-0.245 0.012-0.193-0.028-0.386-0.122-0.58-0.259-0.706-0.775-1.725-1.161-1.679-0.666 0.292-0.38 1.873 0.352 2.962 0.282 0.027 0.563 0.058 0.824 0.213 0.181 0.151 0.189 0.361 8e-3 0.597-0.22 0.233-0.415 0.49-0.771 0.564-0.11 0.024-0.217 0.058-0.306 0.168-0.056 0.046-0.112 0.091-0.168 0.137-0.249 0.154-0.517 0.153-0.809-0.076-0.056-0.092-0.112-0.183-0.168-0.275-0.057-0.135-0.126-0.249-0.29-0.214-0.122 4e-3 -0.244-0.011-0.366-0.046-0.187-0.022-0.335-0.083-0.443-0.183-0.149-0.133-0.338-0.169-0.565-0.107-0.452 0.098-0.403-0.627-0.015-0.916 0.334-0.176 0.695-0.217 1.069-0.198-3e-3 -1.026-0.368-2.009-1.161-2.474-0.218 0.222-0.194 0.82-0.061 1.588 0.107 0.405 0.126 0.79-0.473 1.039-0.077-0.102-0.153-0.204-0.229-0.306-1.635 0.848-3.161-0.888-3.176-2.84-0.015-1.951 1.691-1.974 2.596-0.595 0.813-1.457 1.688-0.836 2.58 0.366 0.615-1.704 1.465-1.847 2.55-0.427 0.929-1.262 1.703-1.313 2.32-0.153 0.908-1.533 2.896-0.927 3.329 1.298 0.218 0.122 0.437 0.244 0.656 0.366 0.042-0.605-0.153-1.2-0.168-1.816-4e-3 -0.814 0.937-0.92 1.451-0.352 0.168 0.353 0.253 0.733 0.335 1.115 0.045 0.222 0.147 0.415 0.306 0.58-0.019-2.362 1.489-2.459 2.351-1.511 0.694-0.703 1.364-0.815 2-0.062 0.023 0.088 0.09 0.119 0.199 0.092 0.081-0.015 0.195-0.02 0.276-0.035 0.477-0.583 1.372-0.42 2.075-0.011 1.564-1.949 3.94 0.246 2.611 2.565" fill="#fff"/></g><g transform="translate(423.67 346.81)"><path d="m0 0c0.503 0.486 0.393 0.464 0.42 0.676 0.026 0.212-0.284 0.59-0.543 0.599s-0.545 0.087-0.891-0.535c-0.347-0.622 0.511-1.227 1.014-0.74" fill="#fff"/></g><g transform="translate(418.25 337.96)"><path d="m0 0c-0.703 0.086-1.406 0.092-2.108-0.018 0.024 0.462 0.049 0.924 0.073 1.387 0.974 0.073 1.949 0.234 2.923 0.407 0.056 0.65-0.07 1.525-1.295 1.387-1.338-0.247-2.676-0.494-4.013-0.74-0.592-0.099-0.691-0.395-0.296-0.888 0.289-0.309 0.622-0.401 0.961-0.462-0.024-0.475-0.049-0.95-0.073-1.424-0.13-0.062-0.259-0.124-0.389-0.185-0.136-0.111-0.148-0.222-0.037-0.333 0.074-0.08 0.148-0.161 0.222-0.241 0.148-0.178 0.167-0.4 0.166-0.629 0.013-0.678 0.025-1.356 0.038-2.034 0.49-1.615 1.845-1.005 1.793-0.074 0.038 0.771 0.074 1.541 0.111 2.312 0.642 0.049 1.283 0.099 1.924 0.148 0.32 0.018 0.469 0.185 0.444 0.499v0.444c0.025 0.247-0.124 0.395-0.444 0.444" fill="#fff"/></g><g transform="translate(430.73 334.92)"><path d="m0 0c-0.084-0.062-0.167-0.124-0.251-0.185-0.065-0.037-0.131-0.081-0.185 0-0.073 0.091-0.146 0.181-0.219 0.272-0.108 0.063-0.08 0.147 0.011 0.24 0.16 0.242 0.296 0.49 0.382 0.753 0.031 0.147 0.091 0.128 0.164 0.033 0.144-0.299 0.158-0.608 0.174-0.917 1e-3 -0.091-0.024-0.157-0.076-0.196m-3.387 1.289c-0.159-0.216-0.364-0.337-0.457-0.268-0.092 0.068-0.038 0.299 0.121 0.515s0.364 0.337 0.456 0.269c0.093-0.068 0.039-0.3-0.12-0.516m-6.299-0.896c-0.065-0.138-0.131-0.277-0.196-0.415-0.087-0.202-0.171-0.189-0.36-0.218-0.244-0.014-0.342 0.175-0.295 0.567 0.087 0.382 0.222 0.764 0.426 1.146 0.11-0.353 0.249-0.651 0.447-0.829 0.065-0.121 0.029-0.19-0.022-0.251m14.944 4.332c-0.117 0.121-0.277 0.171-0.481 0.147h-0.87c-0.08 0.112-0.16 0.222-0.24 0.333-0.103 0.102-0.22 0.102-0.351 0-0.315-0.215-0.629-0.431-0.944-0.647-0.508-0.071-1.061-0.211-1.627-0.37-0.093-0.098-0.229-0.186-0.321-0.285 0.106-0.181 0.286-0.358 0.45-0.51 0.118-0.147 0.26-0.192 0.407-0.222 0.296-0.08 0.592-0.16 0.888-0.24-0.107-0.787-0.474-1.418-1.017-1.943-0.143 0.499-0.276 1.016-0.389 1.573-0.027 0.111-0.062 0.222-0.148 0.333-0.068 0.092-0.135 0.185-0.203 0.277-0.08 0.12-0.203 0.139-0.37 0.056-0.154-0.075-0.308-0.148-0.462-0.222-0.074-0.025-0.148-0.05-0.222-0.074h-0.13c-0.171 0.023-0.189-0.107-0.185-0.259-0.231-0.875-0.704-1.657-1.313-2.386-0.264-0.314-0.547-0.509-0.869-0.444 0.282 0.201 0.492 0.417 0.629 0.647 0.201 0.306 0.374 0.627 0.518 0.962 0.141 0.283 0.187 0.543-0.09 0.92-0.18 0.241-0.298 0.497-0.743 0.671-0.362 0.192-0.752 0.212-1.202-0.148-0.436-0.451-0.819-0.974-1.11-1.628-0.303-0.459-0.26-0.936 0.019-1.424-0.136 0.02-0.271 0.069-0.407 0.148-0.34 0.208-0.34 0.637-0.185 1.165 0.105 0.321 0.21 0.641 0.314 0.962 0.097 0.165 0.102 0.349-0.092 0.573-0.171 0.132-0.352 0.252-0.61 0.296-0.159 0.031-0.38 0.048-0.51-0.037-0.222-0.031-0.378-0.062-0.6-0.092-0.074 0.055-0.148 0.11-0.222 0.166-0.191 0.128-0.374 0.139-0.536-0.111-0.272-0.394-0.543-0.789-0.814-1.184-0.109 0.163-0.137 0.345-0.13 0.537-0.012 0.176-0.057 0.331-0.332 0.333-0.087-7e-3 -0.173-0.013-0.259-0.019-0.288 0.4-0.62 0.683-1.258 0.148-1.119-1.036-1.711-2.165-0.851-3.551 0.716-1.12 1.551-1.059 2.442-0.462 0.447 0.365 0.694 0.825 0.647 1.424 0.658 0.158 0.973 0.747 1.362 1.294 0.02-0.02 0.102-0.012 0.092-0.038-0.858-2.358 0.381-3.688 2.485-2.551 1.174-0.952 2.237-0.637 3.237 0.389 0.178-0.285 0.4-0.525 0.666-0.722 0.679-0.349 1.228-0.306 1.646 0.13 0.345 0.363 0.69 0.727 1.035 1.091 0.214-0.56 0.5-1.015 0.888-1.313 1.04-0.419 1.597-0.018 2.053 0.555 0.204 0.545 0.304 1.108 0.333 1.683-0.171 0.261-0.373 0.49-0.573 0.721-0.173 0.189-0.303 0.146-0.389-0.13-0.052-0.469-0.131-0.923-0.388-1.276-0.072-0.108-0.155-0.121-0.314 0.092-0.748 0.766 0.123 2.38 0.406 3.2 0.617 0.056 1.233 0.111 1.85 0.167 0.26 0.013 0.24 0.206 0.092 0.481-0.234 0.271-0.468 0.542-0.702 0.814" fill="#fff"/></g><g transform="translate(412.84 383.62)"><path d="m0 0h-2.166v3.033h0.249c0.999 0 2.085 0.588 2.751 1.515h3v-24h-3.834z" fill="#fff"/></g><g transform="translate(421.96 370.14)"><path d="m0 0 3.726 1.095c0.594-2.358 2.199-3.621 4.485-3.621 2.538 0 4.317 1.767 4.317 4.209 0 1.263-0.507 2.442-1.353 3.033-0.594 0.417-0.681 0.417-2.457 0.504h-0.423v3.789h0.933c1.524 0 2.37 0.843 2.37 2.358 0 1.854-1.524 3.201-3.471 3.201-1.608 0-2.793-0.759-3.639-2.358l-3.555 1.347c1.266 3.033 3.978 4.881 7.11 4.881 4.062 0 7.365-3.285 7.365-7.326 0-1.431-0.339-2.442-1.356-3.957 1.776-1.599 2.286-2.865 2.286-5.223 0-4.881-3.387-8.331-8.295-8.331-3.894 0-7.026 2.526-8.043 6.399" fill="#fff"/></g></g><text transform="matrix(.98 0 0 -1 356.97 524.89)" fill="black" font-family="Helvetica" font-size="9px"><tspan x="0 6.9840002 9.3086996 11.7927 14.7717 17.255699 22.241699 24.7257 29.7117 32.690701 37.172699 39.6567 44.6427 47.126701 52.112701 54.596699 60.581699 65.567703 70.049698 72.029701 77.015701 82.001701 86.483704 90.965698 93.449699 99.929703 104.9157 109.9017 112.3857 117.3717 119.8557 125.8407 127.8207 132.8067" y="0">Off-Interstate Business Route Sign</tspan></text><text transform="matrix(1 0 0 -1 400.5 514.89)" fill="black" font-family="Helvetica" font-size="9px"><tspan x="0 7.4970002 12.501 15.498 20.502001 23.004 26.000999 32.004002 37.007999 42.012001 45.008999" y="0">M1-3 (Spur)</tspan></text><g clip-path="url(#c)"><g transform="translate(404.98 429.95)"><path d="m0 0h-63c-2.475 0-4.5 2.025-4.5 4.5v63c0 2.475 2.025 4.5 4.5 4.5h63c2.475 0 4.5-2.025 4.5-4.5v-63c0-2.475-2.025-4.5-4.5-4.5"/></g><g transform="translate(407.98 465.95)"><path d="m0 0c0-19.054-15.446-34.5-34.5-34.5s-34.5 15.446-34.5 34.5 15.446 34.5 34.5 34.5 34.5-15.446 34.5-34.5" fill="#fff"/></g><g transform="translate(356.02 477.13)"><path d="m0 0h-3.249v4.549h0.374c1.498 0 3.127 0.882 4.126 2.273h4.5v-36h-5.751z"/></g><g transform="translate(376.89 474.48)"><path d="m0 0c0-2.146 2.272-3.919 5.053-3.919s5.054 1.773 5.054 3.919c0 2.398-2.273 4.293-5.054 4.293s-5.053-1.895-5.053-4.293m-1.391-15.16c0-3.411 2.907-6.188 6.444-6.188 3.663 0 6.57 2.777 6.57 6.188 0 3.033-3.033 5.431-6.57 5.431s-6.444-2.398-6.444-5.431m-5.809 0.126c0 3.411 1.521 6.192 4.171 8.338-1.773 1.895-2.654 4.046-2.654 6.57 0 5.558 4.927 10.224 10.736 10.224 5.81 0 10.863-4.675 10.863-10.233 0-2.524-1.008-4.671-2.776-6.565 2.781-2.147 4.167-5.054 4.167-8.339 0-6.561-5.684-12.118-12.254-12.118s-12.253 5.557-12.253 12.123"/></g><g transform="translate(511.49 434.45)"><path d="m0 0c0-2.485-2.015-4.5-4.5-4.5h-81.007c-2.485 0-4.5 2.015-4.5 4.5v63.005c0 2.486 2.015 4.5 4.5 4.5h81.007c2.485 0 4.5-2.014 4.5-4.5z"/></g><g transform="translate(509.99 465.95)"><path d="m0 0c0-19.055-15.447-34.503-34.503-34.503h-18.001c-19.056 0-34.503 15.448-34.503 34.503s15.447 34.503 34.503 34.503h18.001c19.056 0 34.503-15.448 34.503-34.503" fill="#fff"/></g><g transform="translate(436.74 453.76)"><path d="m0 0h17.686v-5.81h-24.509c0.127 4.167 1.004 7.588 3.034 10.99 6.318 10.558 15.791 9.5 15.791 15.031 0 2.651-3.024 4.802-6.57 4.802-3.663 0-5.941-1.769-6.571-5.054l-5.684 1.265c1.265 5.935 5.936 9.599 12.25 9.599 6.827 0 12.25-4.802 12.25-10.738 0-4.307-2.47-7.048-5.679-9.041-4.847-3.015-9.302-4.348-11.998-11.044"/></g><g transform="translate(464.88 477.13)"><path d="m0 0h-3.249v4.55h0.373c1.499 0 3.128 0.882 4.127 2.273h4.5v-36.003h-5.751z"/></g><g transform="translate(485.75 474.48)"><path d="m0 0c0-2.147 2.304-3.92 5.054-3.92 2.781 0 5.054 1.773 5.054 3.92 0 2.376-2.228 4.293-5.054 4.293-2.781 0-5.054-1.867-5.054-4.293m-1.391-15.162c0-3.411 2.921-6.188 6.445-6.188 3.663 0 6.57 2.777 6.57 6.188 0 3.106-3.019 5.432-6.57 5.432-3.537 0-6.445-2.425-6.445-5.432m-5.809 0.126c0 3.412 1.521 6.193 4.171 8.34-1.773 1.894-2.655 4.045-2.655 6.57 0 5.558 4.928 10.225 10.738 10.225 5.832 0 10.864-4.676 10.864-10.234 0-2.525-1.008-4.671-2.777-6.566 2.781-2.147 4.167-5.054 4.167-8.339 0-6.602-5.684-12.119-12.254-12.119-6.445 0-12.254 5.548-12.254 12.123"/></g></g><text transform="matrix(1 0 0 -1 382.22 631.54)" fill="black" font-family="Helvetica" font-size="9px"><tspan x="0 2.5020001 7.506 10.008 15.012 18.009001 22.509001 25.011 30.014999 32.516998 37.521 40.022999 46.521 51.525002 56.528999 59.030998 64.035004 66.537003 72.540001 74.538002 79.542" y="0">Interstate Route Sign</tspan><tspan x="29.52 37.016998 42.021 45.018002 50.021999" y="9.9989996">M1-1a</tspan></text><g clip-path="url(#b)"><g transform="translate(256.5 643.81)"><path d="m0 0c-25.719 3.016-45.114 24.848-45.114 50.781 0 7.47 1.575 14.671 4.682 21.401l0.045 0.098 0.103-0.03c6.517-1.899 13.296-2.862 20.149-2.862 6.84 0 13.608 0.959 20.114 2.852 6.578-1.893 13.345-2.852 20.186-2.852 6.852 0 13.631 0.963 20.148 2.862l0.104 0.03 0.044-0.098c3.107-6.73 4.682-13.931 4.682-21.401 0-25.933-19.394-47.765-45.114-50.781l-0.014-2e-3z" fill="#fff"/></g><g transform="translate(296.98 716.24)"><path d="m0 0-0.207-0.06c-6.505-1.896-13.273-2.857-20.113-2.857-6.829 0-13.585 0.958-20.081 2.847l-0.069 0.021-0.07-0.021c-6.496-1.889-13.252-2.847-20.08-2.847-6.841 0-13.609 0.961-20.114 2.857l-0.207 0.06-0.09-0.195c-3.114-6.748-4.693-13.966-4.693-21.454 0-25.997 19.442-47.882 45.224-50.905l0.03-4e-3 0.029 4e-3c25.782 3.023 45.224 24.908 45.224 50.905 0 7.488-1.579 14.706-4.693 21.454zm-0.137-0.3c2.997-6.495 4.67-13.726 4.67-21.349 0-26.139-19.662-47.685-45.003-50.657-25.342 2.972-45.004 24.518-45.004 50.657 0 7.623 1.673 14.854 4.67 21.349 6.404-1.866 13.177-2.867 20.184-2.867 6.994 0 13.755 0.997 20.15 2.857 6.394-1.86 13.155-2.857 20.15-2.857 7.006 0 13.779 1.001 20.183 2.867"/></g><g transform="translate(213.24 699.44)"><path d="m0 0c-0.156-1.608-0.236-3.227-0.236-4.847 0-6.204 1.133-12.253 3.366-17.98 2.158-5.532 5.27-10.591 9.251-15.036 8.033-8.969 18.996-14.693 30.887-16.131 11.891 1.438 22.854 7.162 30.887 16.131 3.981 4.445 7.093 9.504 9.251 15.036 2.233 5.727 3.365 11.776 3.365 17.98 0 1.62-0.079 3.239-0.235 4.847z" fill="#005a9c"/></g><g transform="translate(299.61 700.94)"><path d="m0 0c-0.19 1.489-0.447 2.966-0.771 4.425-0.666 3.003-1.619 5.951-2.836 8.781-6.276-1.707-12.776-2.572-19.342-2.572-6.847 0-13.624 0.941-20.15 2.797-6.525-1.856-13.302-2.797-20.15-2.797-6.565 0-13.065 0.865-19.341 2.572-1.218-2.83-2.17-5.778-2.837-8.781-0.323-1.459-0.58-2.936-0.77-4.425z" fill="#c0311a"/></g><path d="m233.44 709.94h1.05v-7.501h-1.05z" fill="#fff"/><g transform="translate(237.21 707.47)"><path d="m0 0v-5.026h-1.076v7.5h1.076l2.049-4.5v4.5h1.077v-7.5h-0.814z" fill="#fff"/></g><g transform="translate(243.84 702.44)"><path d="m0 0h-1.082v6.5h-1.373v1.001h3.828v-1.001h-1.373z" fill="#fff"/></g><g transform="translate(246.27 709.94)"><path d="m0 0h3.536v-1.053h-2.454v-1.895h1.556v-1.026h-1.556v-2.475h2.745v-1.052h-3.827z" fill="#fff"/></g><g transform="translate(252.45 708.89)"><path d="m0 0v-1.895h1.103c0.631 0 0.972 0.342 0.972 0.948 0 0.58-0.394 0.947-0.971 0.947zm1.025-2.921h-1.025v-3.527h-1.076v7.501h2.232c1.177 0 1.97-0.79 1.97-2 0-0.894-0.369-1.553-1.077-1.816l1.076-3.685h-1.102z" fill="#fff"/></g><g transform="translate(258.62 707.21)"><path d="m0 0c0.82-0.515 2.05-1.236 2.05-2.716 0-1.214-0.925-2.184-2.087-2.184-1.322 0-2.115 1.118-2.115 2.342h1.058c0-0.638 0.317-1.29 1.057-1.29 0.581 0 1.056 0.526 1.056 1.132 0 1.63-2.8 1.536-2.8 3.632 0 1.079 0.845 1.946 1.928 1.946 1.058 0 1.877-0.815 1.903-1.947h-1.031c-0.026 0.526-0.396 0.868-0.872 0.868-0.502 0-0.898-0.367-0.898-0.867 0-0.488 0.259-0.608 0.751-0.916" fill="#fff"/></g><g transform="translate(263.8 702.44)"><path d="m0 0h-1.082v6.5h-1.373v1.001h3.828v-1.001h-1.373z" fill="#fff"/></g><g transform="translate(267.47 705.55)"><path d="m0 0h1.082l-0.554 2.158zm1.345-1.053h-1.608l-0.502-2.052h-1.082l1.873 7.5h1.057l1.872-7.5h-1.082z" fill="#fff"/></g><g transform="translate(273.33 702.44)"><path d="m0 0h-1.082v6.5h-1.373v1.001h3.828v-1.001h-1.373z" fill="#fff"/></g><g transform="translate(275.76 709.94)"><path d="m0 0h3.536v-1.053h-2.454v-1.895h1.556v-1.026h-1.556v-2.475h2.745v-1.052h-3.827z" fill="#fff"/></g><g transform="translate(232.79 667.78)"><path d="m0 0h13.265v-4.357h-18.382c0.095 3.125 0.753 5.69 2.275 8.242 4.739 7.918 11.844 7.125 11.844 11.273 0 1.988-2.268 3.602-4.928 3.602-2.748 0-4.455-1.327-4.928-3.791l-4.263 0.949c0.949 4.452 4.452 7.199 9.188 7.199 5.12 0 9.187-3.601 9.187-8.053 0-3.23-1.853-5.286-4.26-6.781-3.635-2.262-6.976-3.261-8.998-8.283" fill="#fff"/></g><g transform="translate(253.39 674.04)"><path d="m0 0h7.706v10.139zm11.989-10.612h-4.283v6.727h-13.414v2.555l13.414 17.72h4.283v-16.39h2.568v-3.885h-2.568z" fill="#fff"/></g><g transform="translate(280.61 667.31)"><path d="m0 0c2.91 0 5.272 2.758 5.272 9.62 0 6.861-2.362 9.619-5.272 9.619-2.909 0-5.272-2.754-5.272-9.619 0-6.862 2.363-9.62 5.272-9.62m9.545 9.62c0-0.969 0.206-13.974-9.592-13.974-9.799 0-9.593 13.005-9.593 13.974 0 0.968-0.206 13.97 9.593 13.97 9.798 0 9.592-13.002 9.592-13.97" fill="#fff"/></g><g transform="translate(466.48 643.81)"><path d="m0 0c-25.72 3.016-45.114 24.848-45.114 50.781 0 7.469 1.575 14.67 4.681 21.401l0.045 0.098 0.104-0.03c6.516-1.899 13.295-2.862 20.148-2.862 6.841 0 13.61 0.96 20.115 2.852 6.577-1.892 13.345-2.852 20.186-2.852 6.854 0 13.632 0.963 20.148 2.862l0.104 0.03 0.045-0.098c3.106-6.731 4.682-13.932 4.682-21.401 0-25.933-19.395-47.764-45.115-50.781l-0.014-2e-3z" fill="#fff"/></g><g transform="translate(506.97 716.24)"><path d="m0 0-0.207-0.06c-6.505-1.896-13.273-2.857-20.113-2.857-6.829 0-13.585 0.958-20.081 2.847l-0.069 0.021-0.07-0.021c-6.496-1.889-13.252-2.847-20.08-2.847-6.841 0-13.609 0.961-20.114 2.857l-0.207 0.06-0.09-0.195c-3.114-6.748-4.693-13.966-4.693-21.454 0-25.997 19.442-47.882 45.224-50.905l0.03-4e-3 0.029 4e-3c25.782 3.023 45.224 24.908 45.224 50.905 0 7.488-1.579 14.706-4.693 21.454zm-0.137-0.3c2.997-6.495 4.67-13.726 4.67-21.349 0-26.139-19.662-47.685-45.003-50.657-25.342 2.972-45.004 24.518-45.004 50.657 0 7.623 1.673 14.854 4.67 21.349 6.404-1.866 13.177-2.867 20.184-2.867 6.994 0 13.755 0.997 20.15 2.857 6.394-1.86 13.155-2.857 20.15-2.857 7.006 0 13.779 1.001 20.183 2.867"/></g><g transform="translate(423.23 699.44)"><path d="m0 0c-0.156-1.608-0.236-3.227-0.236-4.847 0-6.204 1.133-12.253 3.366-17.98 2.158-5.532 5.27-10.591 9.251-15.036 8.033-8.969 18.996-14.693 30.887-16.131 11.891 1.438 22.854 7.162 30.887 16.131 3.981 4.445 7.093 9.504 9.251 15.036 2.233 5.727 3.365 11.776 3.365 17.98 0 1.62-0.079 3.239-0.235 4.847z" fill="#005a9c"/></g><g transform="translate(509.6 700.94)"><path d="m0 0c-0.19 1.489-0.447 2.966-0.771 4.425-0.666 3.003-1.619 5.951-2.836 8.781-6.276-1.707-12.776-2.572-19.342-2.572-6.847 0-13.624 0.941-20.15 2.797-6.525-1.856-13.302-2.797-20.15-2.797-6.565 0-13.065 0.865-19.341 2.572-1.218-2.83-2.17-5.778-2.837-8.781-0.323-1.459-0.58-2.936-0.77-4.425z" fill="#c0311a"/></g><g transform="translate(453.92 693.44)"><path d="m0 0-0.713 2.89-0.697-2.89h-0.634l-0.665 4.5h0.728l0.349-2.369 0.57 2.369h0.697l0.586-2.369 0.349 2.369h0.728l-0.665-4.5z" fill="#fff"/></g><path d="m455.89 697.94h0.72v-4.5h-0.72z" fill="#fff"/><g transform="translate(457.37 694.5)"><path d="m0 0 0.679 0.252c0.189-0.426 0.537-0.662 0.964-0.662 0.426 0 0.694 0.283 0.694 0.662 0 0.601-0.694 0.694-1.278 0.93-0.269 0.111-0.868 0.379-0.868 1.12 0 0.884 0.599 1.214 1.404 1.214 0.632 0 1.058-0.362 1.279-0.914l-0.631-0.189c-0.104 0.203-0.322 0.394-0.701 0.394s-0.659-0.157-0.659-0.454c0-0.421 0.364-0.504 0.953-0.689 0.6-0.188 1.228-0.465 1.228-1.428s-0.788-1.371-1.421-1.371c-0.774 0-1.343 0.457-1.643 1.135" fill="#fff"/></g><g transform="translate(461.11 695.7)"><path d="m0 0c0 0.633 0.127 2.32 1.658 2.32 0.652 0 1.097-0.265 1.406-0.915l-0.664-0.284c-0.23 0.33-0.344 0.473-0.742 0.473-0.941 0-0.931-1.312-0.931-1.595 0-0.279-0.018-1.611 0.963-1.611 0.344 0 0.541 0.208 0.695 0.522l0.679-0.253c-0.254-0.626-0.679-0.994-1.359-0.994-1.619 0-1.705 1.789-1.705 2.337" fill="#fff"/></g><g transform="translate(466.68 694.09)"><path d="m0 0c0.485 0 0.879 0.46 0.879 1.603 0 1.144-0.394 1.603-0.879 1.603s-0.879-0.459-0.879-1.603c0-1.143 0.394-1.603 0.879-1.603m1.591 1.603c0-0.161 0.034-2.329-1.599-2.329s-1.599 2.168-1.599 2.329c0 0.162-0.034 2.329 1.599 2.329s1.599-2.167 1.599-2.329" fill="#fff"/></g><g transform="translate(469.98 696.49)"><path d="m0 0v-3.047h-0.71v4.5h0.71l1.643-2.874v2.874h0.711v-4.5h-0.632z" fill="#fff"/></g><g transform="translate(473.09 694.5)"><path d="m0 0 0.679 0.252c0.189-0.426 0.537-0.662 0.964-0.662 0.426 0 0.694 0.283 0.694 0.662 0 0.601-0.694 0.694-1.278 0.93-0.269 0.111-0.868 0.379-0.868 1.12 0 0.884 0.599 1.214 1.404 1.214 0.632 0 1.058-0.362 1.279-0.914l-0.631-0.189c-0.104 0.203-0.322 0.394-0.701 0.394s-0.659-0.157-0.659-0.454c0-0.421 0.364-0.504 0.953-0.689 0.6-0.188 1.228-0.465 1.228-1.428s-0.788-1.371-1.421-1.371c-0.774 0-1.343 0.457-1.643 1.135" fill="#fff"/></g><path d="m476.92 697.94h0.72v-4.5h-0.72z" fill="#fff"/><g transform="translate(479.43 696.49)"><path d="m0 0v-3.047h-0.71v4.5h0.71l1.643-2.874v2.874h0.711v-4.5h-0.632z" fill="#fff"/></g><g transform="translate(477.99 707.71)"><path d="m0 0-0.528-2.158h1.082zm1.346-5.264-0.528 2.053h-1.61l-0.501-2.053h-1.082l1.874 7.501h1.055l1.874-7.501z" fill="#fff"/></g><g transform="translate(456.25 702.44)"><path d="m0 0v7.501h3.537v-1.053h-2.455v-1.895h1.557v-1.026h-1.557v-2.474h2.745v-1.053z" fill="#fff"/></g><path d="m443.42 709.94h1.05v-7.501h-1.05z" fill="#fff"/><g transform="translate(449.51 702.44)"><path d="m0 0-2.311 5.027v-5.027h-1.077v7.501h1.077l2.048-4.501v4.501h1.077v-7.501z" fill="#fff"/></g><g transform="translate(463.54 708.89)"><path d="m0 0h-1.103v-1.895h1.103c0.63 0 0.972 0.342 0.972 0.948 0 0.579-0.394 0.947-0.972 0.947m0.919-6.448-0.998 3.527h-1.024v-3.527h-1.077v7.501h2.233c1.181 0 1.969-0.79 1.969-2 0-0.895-0.367-1.553-1.077-1.816l1.077-3.685z" fill="#fff"/></g><g transform="translate(468.59 705.91)"><path d="m0 0c-0.324 0.21-0.64 0.421-0.841 0.563-0.604 0.425-0.925 1-0.925 1.658 0 1.079 0.846 1.947 1.93 1.947 1.057 0 1.876-0.816 1.902-1.947h-1.03c-0.027 0.526-0.397 0.868-0.872 0.868-0.503 0-0.899-0.368-0.899-0.868 0-0.369 0.159-0.579 0.714-0.895 1.453-0.842 2.087-1.658 2.087-2.737 0-1.211-0.925-2.185-2.087-2.185-1.322 0-2.115 1.106-2.115 2.343h1.057c0-0.632 0.318-1.29 1.058-1.29 0.581 0 1.057 0.527 1.057 1.132 0 0.47-0.195 0.866-1.036 1.411" fill="#fff"/></g><g transform="translate(453.83 708.94)"><path d="m0 0v-6.501h-1.082v6.501h-1.373v1h3.828v-1z" fill="#fff"/></g><g transform="translate(485.74 702.44)"><path d="m0 0v7.501h3.537v-1.053h-2.455v-1.895h1.557v-1.026h-1.557v-2.474h2.745v-1.053z" fill="#fff"/></g><g transform="translate(483.32 708.94)"><path d="m0 0v-6.501h-1.082v6.501h-1.373v1h3.828v-1z" fill="#fff"/></g><g transform="translate(473.79 708.94)"><path d="m0 0v-6.501h-1.082v6.501h-1.373v1h3.827v-1z" fill="#fff"/></g><g transform="translate(442.78 667.8)"><path d="m0 0h13.265v-4.358h-18.382c0.095 3.126 0.753 5.691 2.275 8.243 4.739 7.919 11.844 7.125 11.844 11.274 0 1.988-2.268 3.601-4.928 3.601-2.748 0-4.455-1.326-4.928-3.79l-4.263 0.948c0.949 4.452 4.452 7.2 9.187 7.2 5.121 0 9.188-3.602 9.188-8.054 0-3.23-1.853-5.286-4.26-6.781-3.635-2.261-6.976-3.261-8.998-8.283" fill="#fff"/></g><g transform="translate(463.37 674.05)"><path d="m0 0h7.706v10.139zm11.989-10.612h-4.283v6.727h-13.414v2.555l13.414 17.72h4.283v-16.39h2.568v-3.885h-2.568z" fill="#fff"/></g><g transform="translate(490.24 676.04)"><path d="m0 0v4.263h1.05c1.714 0 2.666 0.948 2.666 2.653 0 2.099-1.704 3.601-3.905 3.601-1.809 0-3.142-0.854-4.094-2.653l-4 1.516c1.424 3.412 4.476 5.491 7.999 5.491 4.571 0 8.287-3.679 8.287-8.242 0-1.61-0.382-2.747-1.526-4.452 1.998-1.799 2.572-3.217 2.572-5.876 0-5.495-3.784-9.377-9.333-9.377-4.381 0-7.904 2.846-9.049 7.203l4.192 1.232c0.669-2.653 2.474-4.074 5.046-4.074 2.856 0 4.857 2.005 4.857 4.736 0 1.113-0.459 3.979-3.56 3.979z" fill="#fff"/></g><g transform="translate(373.46 643.81)"><path d="m0 0c-20.912 4.273-36.096 22.843-36.103 44.156 0 3.034 0.311 6.094 0.923 9.094 1.433 7.009 4.395 13.387 8.805 18.956l0.053 0.067 0.082-0.025c4.259-1.307 8.669-1.969 13.106-1.969 4.431 0 8.846 0.663 13.123 1.969 4.351-1.307 8.766-1.969 13.197-1.969 4.438 0 8.848 0.662 13.106 1.969l0.082 0.025 0.053-0.067c4.411-5.572 7.373-11.95 8.803-18.956 0.614-3 0.924-6.06 0.923-9.094-6e-3 -21.312-15.189-39.883-36.102-44.156l-0.026-5e-3z" fill="#fff"/></g><g transform="translate(399.88 716.23)"><path d="m0 0-0.163-0.05c-4.247-1.303-8.644-1.963-13.071-1.963-4.417 0-8.82 0.66-13.086 1.963l-0.073 0.022-0.073-0.022c-4.266-1.303-8.669-1.963-13.087-1.963-4.426 0-8.823 0.66-13.07 1.963l-0.163 0.05-0.106-0.134c-4.423-5.586-7.393-11.981-8.829-19.009-0.615-3.008-0.926-6.076-0.925-9.119 6e-3 -21.371 15.232-39.993 36.203-44.278l0.05-0.01 0.05 0.01c20.971 4.285 36.197 22.907 36.203 44.278 1e-3 3.043-0.311 6.111-0.925 9.119-1.436 7.028-4.407 13.424-8.829 19.009zm-26.393-0.289c4.38-1.338 8.806-1.974 13.159-1.974 4.505 0 8.931 0.682 13.144 1.974 4.239-5.354 7.319-11.756 8.78-18.904 0.622-3.044 0.921-6.079 0.92-9.069-6e-3 -20.932-14.696-39.679-36.003-44.033-21.308 4.354-35.997 23.101-36.003 44.033-1e-3 2.99 0.298 6.025 0.92 9.069 1.46 7.148 4.541 13.55 8.78 18.904 4.214-1.293 8.638-1.974 13.143-1.974 4.353 0 8.781 0.637 13.16 1.974"/></g><g transform="translate(406.03 700.94)"><path d="m0 0c-0.592 1.914-1.313 3.782-2.159 5.585-1.271 2.712-2.827 5.293-4.633 7.687-4.102-1.158-8.33-1.745-12.584-1.745-4.44 0-8.864 0.642-13.159 1.908-4.295-1.266-8.719-1.908-13.16-1.908-4.253 0-8.481 0.587-12.584 1.745-1.806-2.394-3.362-4.975-4.633-7.687-0.845-1.803-1.566-3.671-2.159-5.585z" fill="#c0311a"/></g><g transform="translate(406.46 699.44)"><path d="m0 0h-65.941c-0.242-0.893-0.457-1.794-0.643-2.703-1.176-5.754-1.19-11.566-0.041-17.274 1.11-5.514 3.252-10.701 6.367-15.415 3.115-4.715 7.045-8.72 11.682-11.904 4.716-3.238 9.965-5.484 15.605-6.676 5.641 1.192 10.89 3.438 15.606 6.676 4.637 3.184 8.567 7.189 11.682 11.904 3.115 4.714 5.257 9.901 6.367 15.415 1.148 5.708 1.135 11.52-0.041 17.274-0.186 0.909-0.401 1.81-0.643 2.703" fill="#005a9c"/></g><g transform="translate(355.36 696.49)"><path d="m0 0v-3.047h-0.71v4.5h0.71l1.643-2.874v2.874h0.711v-4.5h-0.632z" fill="#fff"/></g><g transform="translate(358.79 697.94)"><path d="m0 0h2.65v-0.711h-1.94v-1.105h1.309v-0.726h-1.309v-1.232h2.081v-0.726h-2.791z" fill="#fff"/></g><g transform="translate(364.65 693.44)"><path d="m0 0-0.713 2.89-0.697-2.89h-0.634l-0.665 4.5h0.728l0.349-2.369 0.57 2.369h0.697l0.586-2.369 0.349 2.369h0.728l-0.665-4.5z" fill="#fff"/></g><g transform="translate(371.1 694.48)"><path d="m0 0c0.222-0.284 0.443-0.394 0.744-0.394 0.491 0 0.76 0.308 0.76 0.852v3h0.728v-3.142c0-0.85-0.598-1.437-1.488-1.437-0.634 0-1.186 0.4-1.393 0.821z" fill="#fff"/></g><g transform="translate(374.41 697.94)"><path d="m0 0h2.65v-0.711h-1.94v-1.105h1.309v-0.726h-1.309v-1.232h2.081v-0.726h-2.791z" fill="#fff"/></g><g transform="translate(379.57 696.13)"><path d="m0 0c0.565 0 0.654 0.407 0.654 0.552 0 0.197-0.147 0.553-0.62 0.553h-0.928v-1.105zm-0.894-0.726v-1.958h-0.71v4.5h1.628c1.032 0 1.341-0.825 1.341-1.264 0-0.167-0.062-0.825-0.698-1.127l0.793-2.109h-0.774l-0.726 1.958z" fill="#fff"/></g><g transform="translate(381.48 694.5)"><path d="m0 0 0.679 0.252c0.189-0.426 0.537-0.662 0.964-0.662 0.426 0 0.694 0.283 0.694 0.662 0 0.601-0.694 0.694-1.278 0.93-0.269 0.111-0.868 0.379-0.868 1.12 0 0.884 0.599 1.214 1.404 1.214 0.632 0 1.058-0.362 1.279-0.914l-0.631-0.189c-0.104 0.203-0.322 0.394-0.701 0.394s-0.659-0.157-0.659-0.454c0-0.421 0.364-0.504 0.953-0.689 0.6-0.188 1.228-0.465 1.228-1.428s-0.788-1.371-1.421-1.371c-0.774 0-1.343 0.457-1.643 1.135" fill="#fff"/></g><g transform="translate(385.31 697.94)"><path d="m0 0h2.65v-0.711h-1.94v-1.105h1.309v-0.726h-1.309v-1.232h2.081v-0.726h-2.791z" fill="#fff"/></g><g transform="translate(390.76 693.44)"><path d="m0 0h-0.714v1.958l-1.587 2.542h0.857l1.079-1.737 1.095 1.737h0.841l-1.571-2.542z" fill="#fff"/></g><path d="m350.42 709.94h1.05v-7.501h-1.05z" fill="#fff"/><g transform="translate(354.19 707.47)"><path d="m0 0v-5.026h-1.076v7.5h1.076l2.049-4.5v4.5h1.077v-7.5h-0.814z" fill="#fff"/></g><g transform="translate(360.83 702.44)"><path d="m0 0h-1.082v6.5h-1.373v1.001h3.828v-1.001h-1.373z" fill="#fff"/></g><g transform="translate(363.25 709.94)"><path d="m0 0h3.536v-1.053h-2.454v-1.895h1.556v-1.026h-1.556v-2.475h2.745v-1.052h-3.827z" fill="#fff"/></g><g transform="translate(369.43 708.89)"><path d="m0 0v-1.895h1.103c0.631 0 0.972 0.342 0.972 0.948 0 0.58-0.394 0.947-0.971 0.947zm1.025-2.921h-1.025v-3.527h-1.076v7.501h2.232c1.177 0 1.97-0.79 1.97-2 0-0.894-0.369-1.553-1.077-1.816l1.076-3.685h-1.102z" fill="#fff"/></g><g transform="translate(375.6 707.21)"><path d="m0 0c0.82-0.515 2.05-1.236 2.05-2.716 0-1.214-0.925-2.184-2.088-2.184-1.321 0-2.114 1.118-2.114 2.342h1.058c0-0.638 0.317-1.29 1.056-1.29 0.582 0 1.057 0.526 1.057 1.132 0 1.63-2.8 1.537-2.8 3.632 0 1.079 0.845 1.946 1.928 1.946 1.058 0 1.877-0.815 1.903-1.947h-1.031c-0.026 0.526-0.396 0.868-0.872 0.868-0.502 0-0.898-0.367-0.898-0.867 0-0.488 0.259-0.608 0.751-0.916" fill="#fff"/></g><g transform="translate(380.78 702.44)"><path d="m0 0h-1.082v6.5h-1.373v1.001h3.828v-1.001h-1.373z" fill="#fff"/></g><g transform="translate(384.45 705.55)"><path d="m0 0h1.082l-0.554 2.158zm1.345-1.053h-1.608l-0.502-2.052h-1.082l1.873 7.5h1.057l1.872-7.5h-1.082z" fill="#fff"/></g><g transform="translate(390.31 702.44)"><path d="m0 0h-1.082v6.5h-1.373v1.001h3.828v-1.001h-1.373z" fill="#fff"/></g><g transform="translate(392.74 709.94)"><path d="m0 0h3.536v-1.053h-2.454v-1.895h1.556v-1.026h-1.556v-2.475h2.745v-1.052h-3.827z" fill="#fff"/></g><g transform="translate(358 683.32)"><path d="m0 0c0-1.61 1.728-2.94 3.79-2.94 2.086 0 3.791 1.33 3.791 2.94 0 1.782-1.671 3.22-3.791 3.22-2.085 0-3.79-1.401-3.79-3.22m-1.043-11.371c0-2.559 2.191-4.641 4.833-4.641 2.748 0 4.928 2.082 4.928 4.641 0 2.329-2.265 4.074-4.928 4.074-2.652 0-4.833-1.82-4.833-4.074m-4.357 0.094c0 2.559 1.14 4.645 3.128 6.255-1.329 1.421-1.991 3.034-1.991 4.928 0 4.168 3.696 7.668 8.053 7.668 4.375 0 8.148-3.507 8.148-7.675 0-1.894-0.756-3.504-2.082-4.925 2.086-1.61 3.125-3.79 3.125-6.254 0-4.952-4.263-9.09-9.191-9.09-4.833 0-9.19 4.162-9.19 9.093" fill="#fff"/></g><g transform="translate(379.88 667.78)"><path d="m0 0h13.265v-4.357h-18.382c0.095 3.125 0.753 5.69 2.275 8.242 4.739 7.918 11.844 7.125 11.844 11.273 0 1.988-2.268 3.602-4.928 3.602-2.747 0-4.455-1.327-4.928-3.791l-4.263 0.949c0.949 4.452 4.452 7.199 9.188 7.199 5.12 0 9.187-3.601 9.187-8.053 0-3.23-1.853-5.286-4.26-6.781-3.635-2.262-6.976-3.261-8.998-8.283" fill="#fff"/></g><g transform="translate(195.01 429.95)"><path d="m0 0h-63.005c-2.475 0-4.5 2.025-4.5 4.5v63.005c0 2.476 2.025 4.501 4.5 4.501h63.005c2.475 0 4.5-2.025 4.5-4.501v-63.005c0-2.475-2.025-4.5-4.5-4.5"/></g><g transform="translate(163.5 431.45)"><path d="m0 0c3.027 3.665 7.606 6 12.73 6h2.271c10.771 0 19.502 8.732 19.502 19.502 0 2.881-0.625 5.616-1.746 8.077-3.156 6.875-2.771 15.179 1.746 21.925l-13.501 13.502c-2.853-2.357-6.512-3.773-10.502-3.773-3.989 0-7.647 1.416-10.5 3.773-2.853-2.357-6.511-3.773-10.5-3.773-3.99 0-7.649 1.416-10.502 3.773l-13.501-13.502c4.517-6.746 4.902-15.05 1.746-21.925-1.121-2.461-1.746-5.196-1.746-8.077 0-10.77 8.731-19.502 19.502-19.502h2.271c5.124 0 9.703-2.335 12.73-6" fill="#fff"/></g><g transform="translate(141.06 463.6)"><path d="m0 0h10.274v13.519zm15.985-14.149h-5.711v8.969h-17.884v3.407l17.884 23.627h5.711v-21.854h3.425v-5.18h-3.425z"/></g><g transform="translate(178.87 454.62)"><path d="m0 0c3.879 0 7.03 3.677 7.03 12.826s-3.151 12.826-7.03 12.826-7.03-3.672-7.03-12.826c0-9.149 3.151-12.826 7.03-12.826m12.727 12.826c0-1.292 0.275-18.631-12.79-18.631-13.064 0-12.79 17.339-12.79 18.631s-0.274 18.627 12.79 18.627c13.065 0 12.79-17.335 12.79-18.627"/></g></g><text transform="matrix(1 0 0 -1 176.73 314.6)" fill="black" font-family="Helvetica" font-size="9px"><tspan x="0 6.4980001 11.502 16.506001 21.51 24.011999 28.511999 31.014 37.512001 42.515999 47.52 50.021999 55.026001 57.528 63.530998 65.528999 70.532997" y="0">County Route Sign</tspan><tspan x="27.521999 35.019001 40.022999 43.02" y="9.9989996">M1-6</tspan></text><g clip-path="url(#a)"><g transform="translate(193.16 326.54)"><path d="m0 0-14.458 49.848c-1.118 3.856 0.703 7.904 4.331 9.626l22.828 10.83c2.684 1.273 5.673 1.946 8.643 1.946s5.959-0.673 8.643-1.946l22.828-10.83c3.628-1.722 5.449-5.77 4.331-9.626l-14.458-49.848z" fill="#ffd046"/></g><g transform="translate(214.51 398.91)"><path d="m0 0c-2.989 0-5.996-0.677-8.697-1.958l-22.828-10.831c-3.683-1.747-5.532-5.857-4.397-9.773l14.432-49.758 0.052-0.18h42.876l0.052 0.18 14.432 49.758c1.135 3.916-0.714 8.026-4.397 9.773l-22.828 10.831c-2.701 1.281-5.708 1.958-8.697 1.958m0-0.25c2.936 0 5.871-0.645 8.589-1.934l22.829-10.831c3.553-1.685 5.359-5.7 4.264-9.477l-14.432-49.758h-42.5l-14.432 49.758c-1.095 3.777 0.711 7.792 4.264 9.477l22.829 10.831c2.718 1.289 5.653 1.934 8.589 1.934"/></g><g transform="translate(235.76 326.66)"><path d="m0 0 14.432 49.758" fill="#ffd046" stroke="#000" stroke-miterlimit="10" stroke-width=".25"/></g><g transform="translate(206.88 394.7)"><path d="m0 0-22.83-10.831c-2.555-1.212-3.854-4.099-3.066-6.816l13.961-48.136h39.12l13.961 48.136c0.788 2.717-0.511 5.604-3.067 6.816l-22.829 10.831c-4.826 2.289-10.424 2.289-15.25 0" fill="#005a9c"/></g><g transform="translate(192.68 379.07)"><path d="m0 0 0.904 0.336c0.253-0.568 0.717-0.883 1.285-0.883 0.547 0 0.928 0.378 0.928 0.883 0 0.802-0.928 0.925-1.706 1.24-0.357 0.147-1.156 0.505-1.156 1.493 0 1.178 0.799 1.619 1.871 1.619 0.841 0 1.409-0.484 1.703-1.219l-0.841-0.252c-0.139 0.27-0.43 0.525-0.934 0.525-0.726 0-0.877-0.396-0.877-0.606 0-0.56 0.484-0.671 1.269-0.918 0.8-0.251 1.638-0.619 1.638-1.903 0-1.295-1.051-1.829-1.895-1.829-1.03 0-1.789 0.609-2.189 1.514" fill="#ffd046"/></g><g transform="translate(199.57 377.66)"><path d="m0 0h-0.952v5.158h-1.374v0.842h3.722v-0.842h-1.396z" fill="#ffd046"/></g><g transform="translate(204.01 381.24)"><path d="m0 0c0.753 0 0.871 0.543 0.871 0.736 0 0.262-0.195 0.738-0.825 0.738h-1.238v-1.474zm-1.192-0.967v-2.612h-0.946v6h2.17c1.376 0 1.788-1.1 1.788-1.685 0-0.223-0.082-1.101-0.931-1.503l1.057-2.812h-1.032l-0.968 2.612z" fill="#ffd046"/></g><g transform="translate(208.38 380.32)"><path d="m0 0h1.207l-0.594 1.684zm1.545-0.968h-1.884l-0.593-1.685h-1.016l2.075 6h0.953l2.074-6h-1.016z" fill="#ffd046"/></g><g transform="translate(213.38 381.24)"><path d="m0 0h1.745v-0.968h-1.745v-2.611h-0.946v6h3.721v-0.947h-2.775z" fill="#ffd046"/></g><g transform="translate(218.01 381.24)"><path d="m0 0h1.745v-0.968h-1.745v-2.611h-0.946v6h3.721v-0.947h-2.775z" fill="#ffd046"/></g><g transform="translate(223.7 378.53)"><path d="m0 0c0.646 0 1.171 0.613 1.171 2.137 0 1.525-0.525 2.138-1.171 2.138s-1.171-0.612-1.171-2.138c0-1.524 0.525-2.137 1.171-2.137m2.121 2.137c0-0.215 0.046-3.104-2.131-3.104-2.178 0-2.132 2.889-2.132 3.104 0 0.216-0.046 3.105 2.132 3.105 2.177 0 2.131-2.889 2.131-3.105" fill="#ffd046"/></g><g transform="translate(229.28 381.24)"><path d="m0 0c0.753 0 0.871 0.543 0.871 0.736 0 0.262-0.195 0.738-0.825 0.738h-1.238v-1.474zm-1.192-0.967v-2.612h-0.946v6h2.17c1.376 0 1.788-1.1 1.788-1.685 0-0.223-0.082-1.101-0.931-1.503l1.057-2.812h-1.032l-0.968 2.612z" fill="#ffd046"/></g><g transform="translate(234.27 382.72)"><path d="m0 0h-1.074v-4.084h1.007c0.873 0 1.16 1.058 1.16 2.187 0 0.537-0.153 1.897-1.093 1.897m-2.02-5.053v6h2.164c1.514 0 1.92-1.994 1.92-2.865 0-2.25-1.157-3.135-1.916-3.135z" fill="#ffd046"/></g><g transform="translate(199.2 338.67)"><path d="m0 0c0 0.844 0.169 3.094 2.21 3.094 0.87 0 1.463-0.354 1.874-1.221l-0.884-0.379c-0.307 0.441-0.46 0.631-0.989 0.631-1.256 0-1.242-1.749-1.242-2.126 0-0.372-0.023-2.148 1.284-2.148 0.458 0 0.721 0.277 0.926 0.696l0.905-0.337c-0.337-0.835-0.904-1.325-1.811-1.325-2.159 0-2.273 2.385-2.273 3.115" fill="#ffd046"/></g><g transform="translate(206.62 336.53)"><path d="m0 0c0.646 0 1.171 0.613 1.171 2.137 0 1.525-0.525 2.138-1.171 2.138s-1.171-0.612-1.171-2.138c0-1.524 0.525-2.137 1.171-2.137m2.121 2.137c0-0.215 0.046-3.104-2.131-3.104-2.178 0-2.132 2.889-2.132 3.104 0 0.216-0.046 3.105 2.132 3.105 2.177 0 2.131-2.889 2.131-3.105" fill="#ffd046"/></g><g transform="translate(210.06 337.81)"><path d="m0 0v3.853h0.946v-3.853c0-0.779 0.443-1.284 1.095-1.284 0.653 0 1.095 0.505 1.095 1.284v3.853h0.948v-3.853c0-1.897-1.455-2.252-2.042-2.252-0.534 0-2.042 0.314-2.042 2.252" fill="#ffd046"/></g><g transform="translate(216.54 339.73)"><path d="m0 0v-4.063h-0.946v6h0.946l2.19-3.832v3.832h0.948v-6h-0.842z" fill="#ffd046"/></g><g transform="translate(222.9 335.66)"><path d="m0 0h-0.952v5.158h-1.374v0.842h3.722v-0.842h-1.396z" fill="#ffd046"/></g><g transform="translate(227.72 335.66)"><path d="m0 0h-0.952v2.611l-2.116 3.389h1.143l1.438-2.316 1.46 2.316h1.122l-2.095-3.389z" fill="#ffd046"/></g><g transform="translate(202.86 367.12)"><path d="m0 0h-2.166v3.033h0.249c0.999 0 2.085 0.588 2.751 1.515h3v-24h-3.834z" fill="#ffd046"/></g><g transform="translate(215.85 354.65)"><path d="m0 0c0-1.926 1.938-3.537 4.296-3.537s4.38 1.599 4.38 3.537c0 1.899-1.938 3.453-4.38 3.453-2.358 0-4.296-1.599-4.296-3.453m-3.873 0.255c0 6.648 3.705 13.47 9.267 17.172l1.935-3.201c-2.946-2.274-4.464-4.209-5.895-7.242 1.347 0.249 1.938 0.252 2.865 0.252 4.464 0 8.166-3.285 8.166-7.329 0-4.14-3.489-7.317-8.169-7.317-4.632 0-8.169 3.372-8.169 7.665" fill="#ffd046"/></g><g transform="translate(163.48 643.81)"><path d="m0 0c-20.914 4.273-36.098 22.844-36.104 44.156 0 3.035 0.31 6.095 0.922 9.094 1.432 7.008 4.394 13.386 8.805 18.958l0.053 0.066 0.082-0.024c4.259-1.307 8.669-1.97 13.107-1.969 4.431 0 8.846 0.662 13.123 1.969 4.351-1.307 8.766-1.969 13.196-1.969 4.439 0 8.849 0.662 13.108 1.969l0.081 0.024 0.053-0.066c4.411-5.572 7.373-11.95 8.805-18.958 0.613-3 0.923-6.059 0.922-9.094-6e-3 -21.312-15.19-39.883-36.103-44.156l-0.025-5e-3z" fill="#fff"/></g><g transform="translate(189.9 716.23)"><path d="m0 0-0.163-0.05c-4.247-1.303-8.645-1.963-13.071-1.963-4.418 0-8.821 0.66-13.087 1.963l-0.073 0.022-0.073-0.022c-4.266-1.303-8.669-1.963-13.086-1.963-4.427 0-8.824 0.66-13.071 1.963l-0.163 0.05-0.106-0.134c-4.423-5.586-7.393-11.981-8.829-19.009-0.615-3.008-0.926-6.076-0.925-9.12 6e-3 -21.371 15.232-39.993 36.203-44.278l0.05-0.01 0.05 0.01c20.972 4.285 36.198 22.907 36.204 44.278 1e-3 3.044-0.31 6.112-0.925 9.12-1.436 7.028-4.406 13.423-8.829 19.009zm-26.394-0.289c4.38-1.338 8.807-1.974 13.16-1.974 4.505 0 8.931 0.682 13.144 1.974 4.239-5.354 7.32-11.756 8.78-18.904 0.622-3.044 0.921-6.079 0.92-9.069-6e-3 -20.933-14.696-39.68-36.004-44.034-21.307 4.354-35.997 23.101-36.003 44.034-1e-3 2.99 0.298 6.025 0.92 9.069 1.46 7.148 4.541 13.55 8.78 18.904 4.214-1.293 8.638-1.974 13.144-1.974 4.352 0 8.78 0.637 13.159 1.974"/></g><g transform="translate(196.04 700.93)"><path d="m0 0c-0.592 1.914-1.313 3.782-2.159 5.586-1.271 2.711-2.827 5.293-4.633 7.687-4.102-1.159-8.33-1.746-12.584-1.746-4.44 0-8.865 0.642-13.16 1.908-4.294-1.266-8.719-1.908-13.16-1.908-4.253 0-8.481 0.587-12.584 1.746-1.806-2.394-3.362-4.976-4.633-7.687-0.846-1.804-1.566-3.672-2.159-5.586z" fill="#c0311a"/></g><g transform="translate(196.48 699.43)"><path d="m0 0h-65.942c-0.242-0.893-0.457-1.794-0.643-2.703-1.176-5.755-1.19-11.567-0.041-17.275 1.109-5.514 3.252-10.7 6.367-15.415s7.045-8.72 11.682-11.904c4.716-3.238 9.965-5.484 15.606-6.676 5.641 1.192 10.889 3.438 15.606 6.676 4.636 3.184 8.567 7.189 11.682 11.904s5.257 9.901 6.367 15.415c1.148 5.708 1.135 11.52-0.041 17.275-0.186 0.909-0.401 1.81-0.643 2.703" fill="#005a9c"/></g><path d="m140.43 709.94h1.05v-7.501h-1.05z" fill="#fff"/><g transform="translate(144.21 707.47)"><path d="m0 0v-5.026h-1.076v7.5h1.076l2.049-4.5v4.5h1.077v-7.5h-0.814z" fill="#fff"/></g><g transform="translate(150.84 702.44)"><path d="m0 0h-1.082v6.5h-1.373v1.001h3.828v-1.001h-1.373z" fill="#fff"/></g><g transform="translate(153.26 709.94)"><path d="m0 0h3.537v-1.053h-2.455v-1.895h1.556v-1.026h-1.556v-2.475h2.745v-1.052h-3.827z" fill="#fff"/></g><g transform="translate(159.44 708.89)"><path d="m0 0v-1.895h1.103c0.632 0 0.972 0.342 0.972 0.948 0 0.579-0.394 0.947-0.971 0.947zm1.025-2.922h-1.025v-3.526h-1.076v7.501h2.232c1.177 0 1.97-0.79 1.97-2 0-0.894-0.369-1.553-1.077-1.816l1.076-3.685h-1.102z" fill="#fff"/></g><g transform="translate(165.62 707.21)"><path d="m0 0c0.82-0.515 2.051-1.236 2.051-2.716 0-1.214-0.926-2.184-2.088-2.184-1.322 0-2.115 1.118-2.115 2.342h1.058c0-0.638 0.317-1.29 1.057-1.29 0.581 0 1.056 0.526 1.056 1.132 0 1.63-2.8 1.537-2.8 3.632 0 1.079 0.845 1.946 1.928 1.946 1.058 0 1.877-0.815 1.904-1.947h-1.032c-0.026 0.526-0.396 0.868-0.872 0.868-0.502 0-0.898-0.367-0.898-0.867 0-0.487 0.259-0.607 0.751-0.916" fill="#fff"/></g><g transform="translate(170.8 702.44)"><path d="m0 0h-1.082v6.5h-1.373v1.001h3.828v-1.001h-1.373z" fill="#fff"/></g><g transform="translate(174.47 705.55)"><path d="m0 0h1.082l-0.554 2.158zm1.345-1.053h-1.609l-0.501-2.052h-1.082l1.873 7.5h1.057l1.872-7.5h-1.082z" fill="#fff"/></g><g transform="translate(180.33 702.44)"><path d="m0 0h-1.082v6.5h-1.373v1.001h3.828v-1.001h-1.373z" fill="#fff"/></g><g transform="translate(182.75 709.94)"><path d="m0 0h3.537v-1.053h-2.455v-1.895h1.556v-1.026h-1.556v-2.475h2.745v-1.052h-3.827z" fill="#fff"/></g><g transform="translate(145.74 667.91)"><path d="m0 0h14.74v-4.842h-20.426c0.105 3.473 0.837 6.324 2.528 9.159 5.266 8.799 13.161 7.917 13.161 12.527 0 2.209-2.521 4.002-5.476 4.002-3.053 0-4.951-1.474-5.476-4.212l-4.737 1.054c1.054 4.947 4.947 8 10.209 8 5.69 0 10.209-4.002 10.209-8.949 0-3.59-2.059-5.874-4.733-7.535-4.039-2.513-7.752-3.623-9.999-9.204" fill="#fff"/></g><g transform="translate(172.16 667.91)"><path d="m0 0h14.74v-4.842h-20.426c0.105 3.473 0.837 6.324 2.528 9.159 5.266 8.799 13.161 7.917 13.161 12.527 0 2.209-2.521 4.002-5.476 4.002-3.053 0-4.951-1.474-5.476-4.212l-4.737 1.054c1.054 4.947 4.947 8 10.209 8 5.69 0 10.209-4.002 10.209-8.949 0-3.59-2.059-5.874-4.733-7.535-4.039-2.513-7.752-3.623-9.999-9.204" fill="#fff"/></g><g transform="translate(214.48 536.48)"><path d="m0 0c-20.914 4.273-36.098 22.844-36.104 44.156 0 3.035 0.31 6.095 0.923 9.094 1.432 7.009 4.394 13.387 8.804 18.958l0.053 0.066 0.082-0.024c4.259-1.307 8.669-1.97 13.107-1.969 4.431 0 8.846 0.662 13.123 1.969 4.351-1.307 8.766-1.969 13.197-1.969 4.439 0 8.848 0.662 13.107 1.969l0.082 0.024 0.053-0.066c4.41-5.571 7.372-11.949 8.804-18.958 0.613-2.999 0.923-6.059 0.922-9.094-6e-3 -21.312-15.189-39.883-36.103-44.156l-0.025-5e-3z" fill="#fff"/></g><g transform="translate(240.9 608.89)"><path d="m0 0-0.163-0.05c-4.247-1.303-8.645-1.963-13.071-1.963-4.418 0-8.821 0.66-13.087 1.963l-0.073 0.022-0.073-0.022c-4.266-1.303-8.669-1.963-13.086-1.963-4.426 0-8.824 0.66-13.071 1.963l-0.163 0.05-0.106-0.134c-4.423-5.586-7.393-11.981-8.829-19.009-0.615-3.008-0.926-6.076-0.925-9.12 6e-3 -21.371 15.232-39.993 36.203-44.278l0.05-0.01 0.05 0.01c20.972 4.285 36.198 22.907 36.204 44.278 1e-3 3.044-0.31 6.112-0.925 9.12-1.436 7.028-4.406 13.423-8.829 19.009zm-26.394-0.289c4.38-1.338 8.807-1.974 13.16-1.974 4.505 0 8.931 0.682 13.144 1.974 4.239-5.354 7.32-11.756 8.78-18.904 0.622-3.044 0.921-6.079 0.92-9.069-6e-3 -20.933-14.696-39.68-36.004-44.034-21.307 4.354-35.997 23.101-36.003 44.034-1e-3 2.99 0.298 6.025 0.92 9.069 1.46 7.148 4.541 13.55 8.78 18.904 4.214-1.293 8.638-1.974 13.144-1.974 4.352 0 8.78 0.637 13.159 1.974"/></g><g transform="translate(243.87 598.71)"><path d="m0 0c-1.13 2.412-2.493 4.718-4.061 6.876-3.965-1.05-8.04-1.582-12.138-1.582-4.438 0-8.861 0.626-13.159 1.861-4.298-1.235-8.721-1.861-13.16-1.861-4.098 0-8.172 0.532-12.138 1.582-1.568-2.158-2.93-4.464-4.061-6.876-0.774-1.652-1.441-3.36-1.998-5.108h62.713c-0.556 1.748-1.224 3.456-1.998 5.108" fill="#006f51"/></g><g transform="translate(181.13 580.63)"><path d="m0 0c1e-3 -4.853 0.835-9.635 2.478-14.213 1.611-4.491 3.95-8.653 6.953-12.372 3.027-3.749 6.63-6.925 10.711-9.441 4.072-2.511 8.523-4.302 13.236-5.326 4.714 1.024 9.164 2.815 13.236 5.326 4.081 2.516 7.685 5.692 10.712 9.441 3.003 3.719 5.342 7.881 6.953 12.372 1.643 4.578 2.476 9.36 2.478 14.213 0 2.85-0.291 5.724-0.867 8.543-0.201 0.985-0.438 1.962-0.707 2.928h-63.609c-0.269-0.966-0.506-1.943-0.707-2.928-0.576-2.819-0.868-5.693-0.867-8.543" fill="#006f51"/></g><g transform="translate(192.98 598.37)"><path d="m0 0v-2.053h1.79c0.609 0 0.921 0.289 0.921 0.869 0 0.579-0.401 1.184-1.014 1.184zm1.738 3.053h-1.738v-1.843h1.508c0.673 0 1.046 0.587 1.046 1.08 0 0.499-0.276 0.763-0.816 0.763m-2.921-6.317v7.501h2.842c1.185 0 2.079-0.816 2.079-1.895 0-0.737-0.341-1.29-1.052-1.685 0.79-0.368 1.237-1.007 1.237-1.815 0-0.534-0.301-2.106-2.264-2.106z" fill="#fff"/></g><g transform="translate(198.18 597.79)"><path d="m0 0v4.816h1.183v-4.816c0-0.974 0.553-1.605 1.369-1.605s1.369 0.631 1.369 1.605v4.816h1.185v-4.816c0-2.372-1.82-2.816-2.553-2.816-0.668 0-2.553 0.393-2.553 2.816" fill="#fff"/></g><g transform="translate(204.56 596.86)"><path d="m0 0 1.131 0.42c0.316-0.71 0.896-1.104 1.606-1.104 0.683 0 1.159 0.473 1.159 1.104 0 1.002-1.159 1.156-2.132 1.551-0.447 0.184-1.445 0.631-1.445 1.866 0 1.473 0.998 2.024 2.339 2.024 1.051 0 1.761-0.605 2.129-1.525l-1.052-0.315c-0.173 0.339-0.537 0.658-1.167 0.658-0.908 0-1.096-0.495-1.096-0.758 0-0.7 0.605-0.839 1.586-1.148 1-0.314 2.048-0.774 2.048-2.379-1e-3 -1.618-1.315-2.286-2.369-2.286-1.288 0-2.237 0.761-2.737 1.892" fill="#fff"/></g><path d="m210.94 602.6h1.2v-7.501h-1.2z" fill="#fff"/><g transform="translate(215.13 600.18)"><path d="m0 0v-5.079h-1.183v7.501h1.183l2.738-4.79v4.79h1.185v-7.501h-1.053z" fill="#fff"/></g><g transform="translate(220.85 602.6)"><path d="m0 0h4.416v-1.184h-3.233v-1.843h2.182v-1.21h-2.182v-2.053h3.469v-1.211h-4.652z" fill="#fff"/></g><g transform="translate(226.25 596.86)"><path d="m0 0 1.131 0.42c0.316-0.71 0.896-1.104 1.606-1.104 0.683 0 1.159 0.473 1.159 1.104 0 1.002-1.159 1.156-2.132 1.551-0.447 0.184-1.445 0.631-1.445 1.866 0 1.473 0.998 2.024 2.339 2.024 1.051 0 1.761-0.605 2.129-1.525l-1.052-0.315c-0.173 0.339-0.537 0.658-1.167 0.658-0.908 0-1.096-0.495-1.096-0.758 0-0.7 0.605-0.839 1.586-1.148 1-0.314 2.048-0.774 2.048-2.379-1e-3 -1.618-1.315-2.286-2.369-2.286-1.288 0-2.237 0.761-2.737 1.892" fill="#fff"/></g><g transform="translate(232.11 596.86)"><path d="m0 0 1.131 0.42c0.316-0.71 0.896-1.104 1.606-1.104 0.683 0 1.159 0.473 1.159 1.104 0 1.002-1.159 1.156-2.132 1.551-0.447 0.184-1.445 0.631-1.445 1.866 0 1.473 0.998 2.024 2.339 2.024 1.051 0 1.761-0.605 2.129-1.525l-1.052-0.315c-0.173 0.339-0.537 0.658-1.167 0.658-0.908 0-1.096-0.495-1.096-0.758 0-0.7 0.605-0.839 1.586-1.148 1-0.314 2.048-0.774 2.048-2.379-1e-3 -1.618-1.315-2.286-2.369-2.286-1.288 0-2.237 0.761-2.737 1.892" fill="#fff"/></g><g transform="translate(204.69 590.6)"><path d="m0 0h0.947v-5.116h2.775v-0.885h-3.722z" fill="#fff"/></g><g transform="translate(211.33 585.47)"><path d="m0 0c0.647 0 1.172 0.613 1.172 2.138s-0.525 2.137-1.172 2.137-1.172-0.612-1.172-2.137 0.525-2.138 1.172-2.138m2.121 2.138c0-0.216 0.046-3.106-2.131-3.106-2.178 0-2.132 2.89-2.132 3.106 0 0.215-0.046 3.104 2.132 3.104 2.177 0 2.131-2.889 2.131-3.104" fill="#fff"/></g><g transform="translate(216.8 585.47)"><path d="m0 0c0.647 0 1.172 0.613 1.172 2.138s-0.525 2.137-1.172 2.137-1.172-0.612-1.172-2.137 0.525-2.138 1.172-2.138m2.121 2.138c0-0.216 0.046-3.106-2.131-3.106-2.178 0-2.132 2.89-2.132 3.106 0 0.215-0.046 3.104 2.132 3.104 2.177 0 2.131-2.889 2.131-3.104" fill="#fff"/></g><g transform="translate(221.19 588.18)"><path d="m0 0h1.336c0.753 0 0.833 0.543 0.833 0.737 0 0.281-0.211 0.737-0.801 0.737h-1.368zm1.118-0.968h-1.118v-2.611h-0.947v6h2.269c1.411 0 1.816-1.147 1.816-1.684 0-0.373-0.204-1.705-2.02-1.705" fill="#fff"/></g><g transform="translate(200.37 555.73)"><path d="m0 0c0 9.364 3.927 16.817 6.181 20.213h-11.516v3.789h16.34v-3.789c-1.608-1.689-7.111-9.394-7.111-20.213z" fill="#fff"/></g><g transform="translate(224.02 559.18)"><path d="m0 0c2.586 0 4.686 2.451 4.686 8.551 0 6.099-2.1 8.551-4.686 8.551s-4.686-2.449-4.686-8.551c0-6.1 2.1-8.551 4.686-8.551m8.485 8.551c0-0.861 0.183-12.421-8.527-12.421s-8.527 11.56-8.527 12.421-0.183 12.418 8.527 12.418 8.527-11.557 8.527-12.418" fill="#fff"/></g><g transform="translate(424.47 536.48)"><path d="m0 0c-20.914 4.273-36.098 22.844-36.104 44.156 0 3.035 0.31 6.095 0.923 9.094 1.431 7.008 4.394 13.387 8.805 18.958l0.053 0.066 0.082-0.024c4.259-1.307 8.669-1.97 13.106-1.969 4.431 0 8.846 0.662 13.123 1.969 4.351-1.307 8.766-1.969 13.197-1.969 4.438 0 8.848 0.662 13.106 1.969l0.082 0.024 0.053-0.066c4.411-5.571 7.374-11.95 8.804-18.958 0.614-2.999 0.924-6.059 0.923-9.094-6e-3 -21.312-15.189-39.883-36.102-44.156l-0.026-5e-3z" fill="#fff"/></g><g transform="translate(450.89 608.89)"><path d="m0 0-0.163-0.05c-4.247-1.303-8.645-1.963-13.071-1.963-4.418 0-8.821 0.66-13.087 1.963l-0.073 0.022-0.073-0.022c-4.266-1.303-8.669-1.963-13.086-1.963-4.426 0-8.824 0.66-13.071 1.963l-0.163 0.05-0.106-0.134c-4.423-5.586-7.393-11.981-8.829-19.009-0.615-3.008-0.926-6.076-0.925-9.12 6e-3 -21.371 15.232-39.993 36.203-44.278l0.05-0.01 0.05 0.01c20.972 4.285 36.198 22.907 36.204 44.278 1e-3 3.044-0.31 6.112-0.925 9.12-1.436 7.028-4.406 13.423-8.829 19.009zm-26.394-0.289c4.38-1.338 8.807-1.974 13.16-1.974 4.505 0 8.931 0.682 13.144 1.974 4.239-5.354 7.32-11.756 8.78-18.904 0.622-3.044 0.921-6.079 0.92-9.069-6e-3 -20.933-14.696-39.68-36.004-44.034-21.307 4.354-35.997 23.101-36.003 44.034-1e-3 2.99 0.298 6.025 0.92 9.069 1.46 7.148 4.541 13.55 8.78 18.904 4.214-1.293 8.638-1.974 13.144-1.974 4.352 0 8.78 0.637 13.159 1.974"/></g><g transform="translate(453.85 598.71)"><path d="m0 0c-1.13 2.412-2.493 4.718-4.06 6.876-3.966-1.05-8.041-1.582-12.139-1.582-4.438 0-8.861 0.626-13.159 1.861-4.298-1.235-8.721-1.861-13.16-1.861-4.098 0-8.172 0.532-12.138 1.582-1.568-2.158-2.93-4.464-4.061-6.876-0.774-1.652-1.441-3.36-1.998-5.108h62.713c-0.556 1.748-1.224 3.456-1.998 5.108" fill="#006f51"/></g><g transform="translate(391.12 580.63)"><path d="m0 0c1e-3 -4.853 0.835-9.635 2.478-14.213 1.611-4.491 3.95-8.653 6.953-12.372 3.026-3.749 6.63-6.925 10.711-9.441 4.072-2.511 8.523-4.302 13.236-5.326 4.714 1.024 9.164 2.815 13.236 5.326 4.081 2.516 7.685 5.692 10.712 9.441 3.003 3.719 5.342 7.881 6.953 12.372 1.643 4.578 2.476 9.36 2.478 14.213 0 2.85-0.291 5.724-0.867 8.543-0.201 0.985-0.438 1.962-0.707 2.928h-63.609c-0.269-0.966-0.506-1.943-0.707-2.928-0.576-2.819-0.868-5.693-0.867-8.543" fill="#006f51"/></g><g transform="translate(402.97 598.37)"><path d="m0 0v-2.053h1.79c0.609 0 0.921 0.289 0.921 0.869 0 0.579-0.401 1.184-1.014 1.184zm1.738 3.053h-1.738v-1.843h1.508c0.673 0 1.046 0.587 1.046 1.08 0 0.499-0.276 0.763-0.816 0.763m-2.921-6.317v7.501h2.842c1.185 0 2.079-0.816 2.079-1.895 0-0.737-0.341-1.29-1.052-1.685 0.79-0.368 1.237-1.007 1.237-1.815 0-0.534-0.301-2.106-2.264-2.106z" fill="#fff"/></g><g transform="translate(408.17 597.79)"><path d="m0 0v4.816h1.183v-4.816c0-0.974 0.553-1.605 1.369-1.605s1.369 0.631 1.369 1.605v4.816h1.185v-4.816c0-2.372-1.82-2.816-2.553-2.816-0.668 0-2.553 0.393-2.553 2.816" fill="#fff"/></g><g transform="translate(414.55 596.86)"><path d="m0 0 1.131 0.42c0.316-0.71 0.896-1.104 1.606-1.104 0.683 0 1.159 0.473 1.159 1.104 0 1.002-1.159 1.156-2.132 1.551-0.447 0.184-1.445 0.631-1.445 1.866 0 1.473 0.998 2.024 2.339 2.024 1.051 0 1.761-0.605 2.129-1.525l-1.052-0.315c-0.173 0.339-0.537 0.658-1.167 0.658-0.908 0-1.096-0.495-1.096-0.758 0-0.7 0.605-0.839 1.586-1.148 1-0.314 2.048-0.774 2.048-2.379-1e-3 -1.618-1.315-2.286-2.369-2.286-1.288 0-2.237 0.761-2.737 1.892" fill="#fff"/></g><path d="m420.93 602.6h1.2v-7.501h-1.2z" fill="#fff"/><g transform="translate(425.11 600.18)"><path d="m0 0v-5.079h-1.183v7.501h1.183l2.738-4.79v4.79h1.185v-7.501h-1.053z" fill="#fff"/></g><g transform="translate(430.84 602.6)"><path d="m0 0h4.416v-1.184h-3.233v-1.843h2.182v-1.21h-2.182v-2.053h3.469v-1.211h-4.652z" fill="#fff"/></g><g transform="translate(436.24 596.86)"><path d="m0 0 1.131 0.42c0.316-0.71 0.896-1.104 1.606-1.104 0.683 0 1.159 0.473 1.159 1.104 0 1.002-1.159 1.156-2.132 1.551-0.447 0.184-1.445 0.631-1.445 1.866 0 1.473 0.998 2.024 2.339 2.024 1.051 0 1.761-0.605 2.129-1.525l-1.052-0.315c-0.173 0.339-0.537 0.658-1.167 0.658-0.908 0-1.096-0.495-1.096-0.758 0-0.7 0.605-0.839 1.586-1.148 1-0.314 2.048-0.774 2.048-2.379-1e-3 -1.618-1.314-2.286-2.369-2.286-1.288 0-2.237 0.761-2.737 1.892" fill="#fff"/></g><g transform="translate(442.1 596.86)"><path d="m0 0 1.131 0.42c0.316-0.71 0.896-1.104 1.606-1.104 0.683 0 1.159 0.473 1.159 1.104 0 1.002-1.159 1.156-2.132 1.551-0.447 0.184-1.445 0.631-1.445 1.866 0 1.473 0.998 2.024 2.339 2.024 1.051 0 1.761-0.605 2.129-1.525l-1.052-0.315c-0.173 0.339-0.537 0.658-1.167 0.658-0.908 0-1.096-0.495-1.096-0.758 0-0.7 0.605-0.839 1.586-1.148 1-0.314 2.048-0.774 2.048-2.379-1e-3 -1.618-1.315-2.286-2.369-2.286-1.288 0-2.237 0.761-2.737 1.892" fill="#fff"/></g><g transform="translate(410.35 555.73)"><path d="m0 0c0 9.364 3.927 16.817 6.181 20.213h-11.516v3.789h16.34v-3.789c-1.608-1.689-7.111-9.394-7.111-20.213z" fill="#fff"/></g><g transform="translate(434.01 559.18)"><path d="m0 0c2.586 0 4.686 2.451 4.686 8.551 0 6.099-2.1 8.551-4.686 8.551s-4.686-2.449-4.686-8.551c0-6.1 2.1-8.551 4.686-8.551m8.485 8.551c0-0.861 0.183-12.421-8.527-12.421s-8.527 11.56-8.527 12.421-0.183 12.418 8.527 12.418 8.527-11.557 8.527-12.418" fill="#fff"/></g><g transform="translate(414.64 586.01)"><path d="m0 0 0.905 0.336c0.252-0.568 0.717-0.883 1.284-0.883 0.547 0 0.928 0.378 0.928 0.883 0 0.802-0.928 0.925-1.705 1.241-0.358 0.147-1.157 0.504-1.157 1.492 0 1.179 0.799 1.62 1.871 1.62 0.841 0 1.409-0.484 1.704-1.22l-0.842-0.252c-0.139 0.271-0.43 0.526-0.934 0.526-0.726 0-0.876-0.396-0.876-0.606 0-0.561 0.483-0.672 1.269-0.918 0.799-0.252 1.638-0.62 1.638-1.904-1e-3 -1.295-1.052-1.829-1.896-1.829-1.03 0-1.789 0.609-2.189 1.514" fill="#fff"/></g><g transform="translate(420.7 588.18)"><path d="m0 0h1.336c0.753 0 0.833 0.543 0.833 0.737 0 0.281-0.211 0.737-0.801 0.737h-1.368zm1.118-0.968h-1.118v-2.611h-0.947v6h2.269c1.411 0 1.816-1.147 1.816-1.684 0-0.373-0.205-1.705-2.02-1.705" fill="#fff"/></g><g transform="translate(424.73 586.75)"><path d="m0 0v3.853h0.947v-3.853c0-0.779 0.442-1.284 1.095-1.284 0.652 0 1.095 0.505 1.095 1.284v3.853h0.948v-3.853c0-1.898-1.456-2.252-2.043-2.252-0.534 0-2.042 0.314-2.042 2.252" fill="#fff"/></g><g transform="translate(432.4 588.18)"><path d="m0 0c0.753 0 0.872 0.543 0.872 0.737 0 0.261-0.196 0.737-0.826 0.737h-1.238v-1.474zm-1.192-0.968v-2.611h-0.946v6h2.17c1.376 0 1.788-1.1 1.788-1.685 0-0.223-0.082-1.101-0.931-1.503l1.057-2.812h-1.032l-0.968 2.611z" fill="#fff"/></g></g></g></svg>
