<?xml version="1.0" encoding="UTF-8"?>
<svg width="597.11" height="616.1" version="1.1" viewBox="0 0 597.11 616.1" xml:space="preserve" xmlns="http://www.w3.org/2000/svg"><defs><clipPath id="e"><path d="m55.279 255.2h466.44v489.8h-466.44z"/></clipPath><clipPath id="d"><path d="m55.279 255.2h466.44v489.8h-466.44z"/></clipPath><clipPath id="c"><path d="m55.279 255.2h466.44v489.8h-466.44z"/></clipPath><clipPath id="b"><path d="m55.279 255.2h466.44v489.8h-466.44z"/></clipPath><clipPath id="a"><path d="m55.279 255.2h466.44v489.8h-466.44z"/></clipPath></defs><g transform="matrix(1.3333 0 0 -1.3333 -79.261 956.37)"><g clip-path="url(#e)"><g transform="translate(261.1 342.53)"><path d="m0 0v-88.809h40.557v88.809c0 9.742 7.897 17.64 17.639 17.64h157.2v50.893h-157.2c-9.742 0-17.639 7.897-17.639 17.64v88.612c0 9.742 7.897 17.64 17.639 17.64h63.238l26.808 19.305h67.156v50.9h-157.2c-9.742 0-17.639 7.898-17.639 17.64v82.287h-40.557v-82.287c0-9.742-7.898-17.64-17.64-17.64h-173.93v-51.29h173.93c9.742 0 17.64-7.898 17.64-17.64v-88.264c0-9.742-7.898-17.64-17.64-17.64h-64.968l-26.808-19.263h-82.157v-50.893h173.93c9.742 0 17.64-7.898 17.64-17.64" fill="#b1b4b6"/></g><g transform="translate(323.86 385.61)"><path d="m0 0h157.64" fill="none" stroke="#fff" stroke-dasharray="15.24, 45.72" stroke-width="2"/></g><g transform="translate(237.17 385.61)"><path d="m0 0h-156.23" fill="none" stroke="#fff" stroke-dasharray="15.24, 45.72" stroke-width="2"/></g><g transform="translate(237.17 579.71)"><path d="m0 0h-157.99" fill="none" stroke="#fff" stroke-dasharray="15.24, 45.72" stroke-width="2"/></g><g transform="translate(319.97 579.71)"><path d="m0 0h161.53" fill="none" stroke="#fff" stroke-dasharray="15.24, 45.72" stroke-width="2"/></g><g transform="translate(323.86 404.89)"><path d="m0 0h157.64" fill="none" stroke="#ffd046" stroke-width="2"/></g><g transform="translate(71.528 560.03)"><path d="m0 0h165.64" fill="none" stroke="#ffd046" stroke-width="2"/></g><g transform="translate(71.528 404.89)"><path d="m0 0h81.657l26.808 19.334h57.175" fill="none" stroke="#ffd046" stroke-width="2"/></g><g transform="translate(319.97 541.07)"><path d="m0 0h60.988l26.885 18.965h73.656" fill="none" stroke="#ffd046" stroke-width="2"/></g><g transform="translate(71.528 598.99)"><path d="m0 0h165.64" fill="none" stroke="#fff" stroke-width="2"/></g><g transform="translate(71.528 366.33)"><path d="m0 0h165.64" fill="none" stroke="#fff" stroke-width="2"/></g><g transform="translate(323.86 366.33)"><path d="m0 0h157.64" fill="none" stroke="#fff" stroke-width="2"/></g><g transform="translate(319.97 598.99)"><path d="m0 0h161.53" fill="none" stroke="#fff" stroke-width="2"/></g><g transform="translate(282.88 348.5)"><path d="m0 0v-90.783" fill="none" stroke="#ffd046" stroke-width="2"/></g><g transform="translate(279.88 257.72)"><path d="m0 0v90.783" fill="none" stroke="#ffd046" stroke-width="2"/></g><g transform="translate(279.88 617.32)"><path d="m0 0v92.767" fill="none" stroke="#ffd046" stroke-width="2"/></g><g transform="translate(282.88 710.08)"><path d="m0 0v-92.767" fill="none" stroke="#ffd046" stroke-width="2"/></g><g transform="translate(291.52 681.88)"><path d="m0 0v6.354h-1.559l2.577 4.376 2.398-4.376h-1.439v-6.354z"/></g><g transform="translate(271.14 692.61)"><path d="m0 0v-6.354h1.559l-2.577-4.376-2.398 4.376h1.439v6.354z"/></g><g transform="translate(433.38 396.37)"><path d="m0 0h6.353v1.559l4.377-2.577-4.377-2.398v1.439h-6.353z"/></g><g transform="translate(433.38 376.76)"><path d="m0 0h6.353v1.559l4.377-2.577-4.377-2.398v1.439h-6.353z"/></g><g transform="translate(103.29 396.37)"><path d="m0 0h6.354v1.559l4.376-2.577-4.376-2.398v1.439h-6.354z"/></g><g transform="translate(103.29 376.76)"><path d="m0 0h6.354v1.559l4.376-2.577-4.376-2.398v1.439h-6.354z"/></g><g transform="translate(444.11 568.24)"><path d="m0 0h-6.354v-1.559l-4.376 2.577 4.376 2.398v-1.439h6.354z"/></g><g transform="translate(444.11 587.86)"><path d="m0 0h-6.354v-1.559l-4.376 2.577 4.376 2.398v-1.439h6.354z"/></g><g transform="translate(103.29 568.24)"><path d="m0 0h-6.354v-1.559l-4.377 2.577 4.377 2.398v-1.439h6.354z"/></g><g transform="translate(103.29 587.86)"><path d="m0 0h-6.354v-1.559l-4.377 2.577 4.377 2.398v-1.439h6.354z"/></g><g transform="translate(283.88 346.5)"><path d="m0 0h21.648" fill="none" stroke="#fff" stroke-width="4"/></g><g transform="translate(282.88 525.24)"><path d="m0 0v-84.582" fill="none" stroke="#ffd046" stroke-width="2"/></g><g transform="translate(279.88 440.66)"><path d="m0 0v84.582" fill="none" stroke="#ffd046" stroke-width="2"/></g><g transform="translate(283.88 523.24)"><path d="m0 0h21.648" fill="none" stroke="#fff" stroke-width="4"/></g><g transform="translate(278.88 442.66)"><path d="m0 0h-21.648" fill="none" stroke="#fff" stroke-width="4"/></g><g transform="translate(246.65 619.32)"><path d="m0 0h32.233" fill="none" stroke="#fff" stroke-width="4"/></g><g transform="translate(261.1 342.53)"><path d="m0 0v-88.809h40.557v88.809c0 9.742 7.897 17.64 17.639 17.64h157.2v50.893h-157.2c-9.742 0-17.639 7.897-17.639 17.64v88.612c0 9.742 7.897 17.64 17.639 17.64h63.238l26.808 19.305h67.156v50.9h-157.2c-9.742 0-17.639 7.898-17.639 17.64v82.287h-40.557v-82.287c0-9.742-7.898-17.64-17.64-17.64h-173.93v-51.29h173.93c9.742 0 17.64-7.898 17.64-17.64v-88.264c0-9.742-7.898-17.64-17.64-17.64h-64.968l-26.808-19.263h-82.157v-50.893h173.93c9.742 0 17.64-7.898 17.64-17.64z" fill="none" stroke="#000"/></g><g fill="#fff"><path d="m71.529 355.16h-12.083v262.67h12.083z"/><path d="m487.58 348.51h-12.082v262.67h12.082z"/><path d="m305.66 704.08h-51.142v13.195h51.142z"/><path d="m305.66 242.52h-51.142v15.195h51.142z"/></g><g transform="translate(319.97 560.03)"><path d="m0 0h48.555" fill="none" stroke="#fff" stroke-width="2"/></g><g transform="translate(188.61 404.89)"><path d="m0 0h48.555" fill="none" stroke="#fff" stroke-width="2"/></g></g><g clip-path="url(#d)"><g transform="translate(336.22 545.45)"><path d="m0 0c-1.439 1.601-2.834 3.199-4.273 4.803 1.246-0.358 2.494-0.715 3.738-1.073 0.01 0.358 0.017 0.715 0.029 1.073 0.233 3.175 1.908 4.867 4.781 5.332h4.809v-1.594h-3.215c-2.242-0.353-3.621-1.481-3.738-3.738v-1.073c1.246 0.182 2.492 0.368 3.738 0.549-1.941-1.428-3.928-2.849-5.869-4.279" fill="#fff" fill-rule="evenodd"/></g><g transform="translate(291.52 268.49)"><path d="m0 0v6.354h-1.559l2.577 4.376 2.398-4.376h-1.439v-6.354z"/></g><g transform="translate(271.14 279.22)"><path d="m0 0v-6.353h1.559l-2.577-4.377-2.398 4.377h1.439v6.353z"/></g><g transform="translate(235.29 462.44)"><path d="m0 0c30.292-15.478 16.551-32.542 4.66-27.429" fill="none" stroke="#000" stroke-width=".75"/></g><g transform="translate(233.42 436.03)"><path d="m0 0-1.091 0.6 2.311 4.202 1.091-0.6 0.847 1.542 1.543-0.849-2.041-3.713-2.042-3.712-1.543 0.849z"/></g><g transform="translate(238.37 436.57)"><path d="m0 0c0.887-0.188 1.498-0.249 2.243-0.339l-1.276-2.321c-0.161 0.223-0.854 1.064-1.488 1.712-0.679 0.693-1.325 1.268-1.77 1.59 0.511-0.203 1.342-0.44 2.291-0.642"/></g><g transform="translate(321.87 641.14)"><path d="m0 0c-29.283-17.328-12.64-35.231-0.516-30.203" fill="none" stroke="#000" stroke-width=".75"/></g><g transform="translate(325.67 615.99)"><path d="m0 0 1.094 0.594 2.288-4.215-1.094-0.594 0.839-1.546-1.547-0.84-2.022 3.724-2.021 3.723 1.548 0.84z"/></g><g transform="translate(323.45 611.53)"><path d="m0 0c-0.638-0.645-1.019-1.126-1.497-1.704l-1.264 2.328c0.275 0.015 1.357 0.143 2.245 0.327 0.95 0.197 1.782 0.43 2.295 0.63-0.448-0.321-1.096-0.892-1.779-1.581"/></g><g transform="translate(323.85 502.5)"><path d="m0 0c-30.308 15.486-12.438 32.471 0.125 28.014" fill="none" stroke="#000" stroke-width=".75"/></g><g transform="translate(330.55 529.91)"><path d="m0 0 1.127-0.53-2.042-4.34-1.127 0.531-0.749-1.592-1.593 0.75 1.804 3.834 1.804 3.833 1.593-0.75z"/></g><g transform="translate(325.64 529.06)"><path d="m0 0c-0.897 0.132-1.511 0.154-2.26 0.198l1.128 2.396c0.175-0.213 0.919-1.009 1.593-1.615 0.721-0.649 1.401-1.182 1.866-1.476-0.523 0.17-1.367 0.355-2.327 0.497"/></g><g transform="translate(241.53 317.3)"><path d="m0 0c15.796 6.34 24.392 41.439-0.652 37.568" fill="none" stroke="#000" stroke-width=".75"/></g><g transform="translate(235.45 351.02)"><path d="m0 0-1.207-0.307-1.181 4.648 1.206 0.307-0.433 1.705 1.706 0.433 2.088-8.212-1.706-0.434z"/></g><g transform="translate(238.7 354.8)"><path d="m0 0c0.777 0.469 1.264 0.841 1.87 1.284l0.653-2.567c-0.271 0.053-1.35 0.195-2.256 0.234-0.97 0.043-1.834 0.022-2.38-0.046 0.513 0.2 1.282 0.595 2.113 1.095"/></g><g transform="translate(437.78 665.44)"><path d="m0 0c-20.732 0-30.64-53.155 9.681-53.194" fill="none" stroke="#000" stroke-width=".75"/></g><g transform="translate(453.66 614.56)"><path d="m0 0 1.245-3e-3 -0.012-4.796-1.245 3e-3 -4e-3 -1.759-1.761 5e-3 0.01 4.237 0.011 4.236 1.761-4e-3z"/></g><g transform="translate(449.58 611.72)"><path d="m0 0c-0.869-0.261-1.434-0.5-2.131-0.778l7e-3 2.648c0.248-0.118 1.259-0.524 2.127-0.788 0.928-0.283 1.77-0.477 2.316-0.547-0.546-0.067-1.39-0.257-2.319-0.535"/></g><g transform="translate(437.78 665.44)"><path d="m0 0c-37.03 0-30.653-118.28 9.669-118.39" fill="none" stroke="#000" stroke-width=".75"/></g><g transform="translate(453.66 549.37)"><path d="m0 0 1.245-3e-3 -0.013-4.796-1.245 3e-3 -5e-3 -1.759-1.761 5e-3 0.012 4.237 0.011 4.237 1.761-5e-3z"/></g><g transform="translate(449.58 546.52)"><path d="m0 0c-0.869-0.26-1.434-0.5-2.131-0.777l7e-3 2.648c0.249-0.119 1.259-0.525 2.127-0.789 0.928-0.283 1.77-0.477 2.316-0.547-0.546-0.067-1.39-0.257-2.319-0.535"/></g><g transform="translate(109.09 297.49)"><path d="m0 0c20.732 0 24.645 55.792-15.682 55.832" fill="none" stroke="#000" stroke-width=".75"/></g><g transform="translate(87.206 351.01)"><path d="m0 0-1.245 3e-3 0.012 4.796 1.245-3e-3 5e-3 1.759 1.761-5e-3 -0.011-4.237-0.011-4.236-1.761 4e-3z"/></g><g transform="translate(91.292 353.85)"><path d="m0 0c0.869 0.26 1.434 0.5 2.131 0.778l-7e-3 -2.649c-0.249 0.119-1.259 0.525-2.127 0.789-0.928 0.283-1.77 0.477-2.316 0.547 0.546 0.067 1.39 0.257 2.319 0.535"/></g><g transform="translate(109.09 297.49)"><path d="m0 0c37.03 0 24.659 120.44-15.67 120.55" fill="none" stroke="#000" stroke-width=".75"/></g><g transform="translate(87.206 415.73)"><path d="m0 0-1.245 3e-3 0.013 4.796 1.245-3e-3 5e-3 1.759 1.761-5e-3 -0.012-4.237-0.011-4.237-1.761 5e-3z"/></g><g transform="translate(91.292 418.58)"><path d="m0 0c0.869 0.26 1.434 0.5 2.131 0.777l-7e-3 -2.648c-0.249 0.119-1.259 0.525-2.127 0.789-0.928 0.283-1.77 0.478-2.316 0.547 0.546 0.067 1.39 0.257 2.319 0.535"/></g><g transform="translate(219.21 392.29)"><path d="m0 0 9.406 2.975-9.406 2.944 1.758-2.095-10.014-0.029v-1.731h10.014z" fill="#fff" fill-rule="evenodd"/></g><g transform="translate(222.19 419.63)"><path d="m0 0c1.439-1.602 2.834-3.199 4.273-4.803-1.246 0.358-2.494 0.715-3.738 1.073-0.01-0.358-0.017-0.715-0.029-1.073-0.233-3.175-1.908-4.867-4.781-5.332h-4.809v1.594h3.215c2.242 0.353 3.621 1.481 3.738 3.738v1.073c-1.246-0.182-2.492-0.368-3.738-0.549 1.941 1.427 3.928 2.849 5.869 4.279" fill="#fff" fill-rule="evenodd"/></g><g transform="translate(211.53 374.06)"><path d="m0 0c2.162-1.574 4.323-3.147 6.483-4.721 1.573 1.77 3.145 3.539 4.717 5.309-1.375-0.393-2.752-0.787-4.127-1.18 0.114 2.301-0.336 4.02-1.474 5.308h6.781c-0.59-0.689-1.18-1.374-1.768-2.062 3.143 0.981 6.286 1.965 9.431 2.947-3.145 0.984-6.288 1.966-9.431 2.949 0.588-0.688 1.178-1.377 1.768-2.065h-15.917v-1.769h2.945c2.778-0.078 4.509-1.281 4.718-4.128v-1.18c-1.377 0.197-2.751 0.393-4.126 0.592" fill="#fff" fill-rule="evenodd"/></g><g transform="translate(339.2 572.83)"><path d="m0 0-9.406-2.975 9.406-2.944-1.758 2.095 10.014 0.029v1.73h-10.014z" fill="#fff" fill-rule="evenodd"/></g><g transform="translate(336.22 545.48)"><path d="m0 0c-1.439 1.602-2.834 3.199-4.273 4.803 1.246-0.358 2.494-0.715 3.738-1.072 0.01 0.357 0.018 0.714 0.029 1.072 0.233 3.176 1.908 4.867 4.781 5.332h4.809v-1.594h-3.215c-2.242-0.353-3.621-1.48-3.738-3.738v-1.072c1.246 0.181 2.492 0.367 3.738 0.548-1.941-1.427-3.928-2.849-5.869-4.279" fill="#fff" fill-rule="evenodd"/></g><g transform="translate(346.88 591.26)"><path d="m0 0c-2.162 1.574-4.323 3.146-6.483 4.721-1.573-1.77-3.145-3.539-4.717-5.309 1.375 0.393 2.752 0.787 4.127 1.18-0.114-2.301 0.336-4.02 1.474-5.308h-6.781c0.59 0.689 1.18 1.374 1.768 2.062-3.143-0.981-6.286-1.965-9.431-2.947 3.145-0.984 6.288-1.966 9.431-2.949-0.588 0.688-1.178 1.377-1.768 2.065h15.917v1.769h-2.945c-2.778 0.078-4.509 1.28-4.718 4.128v1.18c1.377-0.198 2.751-0.393 4.126-0.592" fill="#fff" fill-rule="evenodd"/></g><g transform="translate(326.85 337.05)"><path d="m0 0h6.353v1.559l4.377-2.577-4.377-2.398v1.439h-6.353z"/></g><g transform="translate(339.01 324.06)"><path d="m0 0-2.35-0.716 1.544-2.171-1.41-0.985-1.521 2.037-1.544-2.037-1.41 0.985 1.521 2.171-2.327 0.716 0.515 1.634 2.282-0.761v2.663h1.902v-2.663l2.261 0.761z"/></g><g transform="translate(474.12 696.38)"><path d="m0 0-2.35-0.716 1.544-2.171-1.41-0.985-1.521 2.037-1.544-2.037-1.41 0.985 1.521 2.171-2.327 0.716 0.514 1.634 2.283-0.761v2.663h1.902v-2.663l2.261 0.761z"/></g><g transform="translate(351.88 692.67)"><path d="m0 0-2.35-0.716 1.544-2.171-1.41-0.985-1.521 2.037-1.544-2.037-1.41 0.985 1.521 2.171-2.327 0.716 0.514 1.634 2.283-0.761v2.663h1.902v-2.663l2.261 0.761z"/></g><g transform="translate(107.67 266.9)"><path d="m0 0-2.35-0.716 1.544-2.171-1.41-0.985-1.521 2.037-1.544-2.037-1.41 0.985 1.521 2.171-2.327 0.716 0.515 1.634 2.282-0.761v2.663h1.902v-2.663l2.261 0.761z"/></g><g transform="translate(188.46 333)"><path d="m0 0-2.35-0.716 1.544-2.171-1.41-0.985-1.521 2.037-1.544-2.037-1.41 0.985 1.521 2.171-2.327 0.716 0.515 1.634 2.282-0.761v2.663h1.902v-2.663l2.261 0.761z"/></g><g transform="translate(350.57 345.24)"><path d="m0 0h29.291" fill="none" stroke="#000" stroke-width=".75"/></g></g><text transform="matrix(1 0 0 -1 350.1 348.19)" fill="black" font-family="Helvetica" font-size="9px"><tspan x="0 5.0040002 10.008 15.012 20.016001 25.02" y="0">Legend</tspan><tspan x="-7.4790001 -0.98100001 1.017 4.0139999 9.0179996 13.518 16.02 18.018 23.021999 28.025999 30.528 35.532001 38.034 40.535999 43.037998 46.035 51.039001 55.539001 60.542999" y="15.354">Direction of travel</tspan><tspan x="-7.4790001 -0.477 4.527 7.0289998 9.0270004 14.031 19.035 24.039" y="28.35">Optional</tspan><tspan x="-7.4790001 -1.9683 3.0357001 8.0396996 10.0377 14.5377 16.5357 21.5397 24.0417 29.0457 34.049702 36.551701 41.555698 44.057701 49.061699 51.563702 54.065701 56.063702 61.067699 63.569698 66.071701 68.5737 71.075699 76.079697 79.076698" y="42.354">Vehicle path of left turn</tspan><tspan x="-7.4790001 -4.4819999 0.017999999 5.0219998 10.026 12.528 18.531 23.535 28.035 30.537001 32.535 37.539001 42.542999 45.044998 50.049 56.051998 58.554001 63.557999 68.561996" y="53.352001">(see Section 2A.23)</tspan></text><g clip-path="url(#c)"><g transform="translate(313.79 316.27)"><path d="m0 0c0-7.769 4.881-7.675 8.178-7.675h10.224" fill="none" stroke="#005a9c"/></g></g><g transform="translate(331.1 304.86)"><path d="M 0,0 6.476,3.74 0,7.479 Z" fill="#005a9c"/></g><g clip-path="url(#b)"><g transform="translate(441.94 638.65)"><path d="m0 0c-1.26 0-2.285 1.025-2.285 2.285v47.52c0 1.26 1.025 2.285 2.285 2.285h30.24c1.26 0 2.285-1.025 2.285-2.285v-47.52c0-1.26-1.025-2.285-2.285-2.285z" fill="#fff"/></g><g transform="translate(472.18 690.87)"><path d="m0 0h-30.24c-1.329 0-2.41-1.081-2.41-2.41v-47.52c0-1.329 1.081-2.41 2.41-2.41h30.24c1.329 0 2.41 1.081 2.41 2.41v47.52c0 1.329-1.081 2.41-2.41 2.41m0-0.25c1.188 0 2.16-0.972 2.16-2.16v-47.52c0-1.188-0.972-2.16-2.16-2.16h-30.24c-1.188 0-2.16 0.972-2.16 2.16v47.52c0 1.188 0.972 2.16 2.16 2.16z"/></g><g transform="translate(440.5 688.46)"><path d="m0 0c0 0.794 0.646 1.44 1.44 1.44h30.24c0.794 0 1.44-0.646 1.44-1.44v-47.52c0-0.794-0.646-1.44-1.44-1.44h-30.24c-0.794 0-1.44 0.646-1.44 1.44z" fill="#c0311a"/></g><g transform="translate(459.22 678.43)"><path d="m0 0 5.548 1.369-5.548 1.339v1.217l8.64 1.276v-1.398l-4.548-0.67 4.548-1.094v-1.339l-4.548-1.124 4.548-0.67v-1.399l-8.64 1.278z" fill="#fff"/></g><g transform="translate(464.38 671.56)"><path d="m0 0c0-1.084 0.782-1.255 1.061-1.255 0.376 0 1.061 0.282 1.061 1.189v1.782h-2.122zm-1.393 1.716h-3.761v1.363h8.64v-3.125c0-1.981-1.584-2.575-2.427-2.575-0.32 0-1.584 0.119-2.163 1.341l-4.05-1.522v1.486l3.761 1.394z" fill="#fff"/></g><g transform="translate(460.46 664.38)"><path d="m0 0c0-0.931 0.882-1.687 3.078-1.687s3.078 0.756 3.078 1.687-0.881 1.687-3.078 1.687c-2.196 0-3.078-0.756-3.078-1.687m3.078-3.054c-0.31 0-4.471-0.066-4.471 3.069s4.161 3.069 4.471 3.069 4.47 0.066 4.47-3.069-4.16-3.069-4.47-3.069" fill="#fff"/></g><g transform="translate(465.07 658.06)"><path d="m0 0h-5.85v1.363h8.64v-1.363l-5.518-3.154h5.518v-1.365h-8.64v1.213z" fill="#fff"/></g><g transform="translate(468.01 648.51)"><path d="m0 0c0-1.385-0.525-2.164-1.909-2.75l-0.515 1.304c0.759 0.364 1.031 0.727 1.031 1.394 0 1.899-2.89 1.79-3.092 1.79-0.325 0-3.062 0.073-3.062-1.607 0-0.879 0.545-1.517 1.334-1.517h0.363v1.577h1.365v-2.94h-1.728c-1.576 0-2.728 1.152-2.728 2.73 0 0.313-0.258 3.151 4.471 3.151 0.662 0 4.47-0.037 4.47-3.132" fill="#fff"/></g><g transform="translate(446.26 671.25)"><path d="m0 0 5.548 1.369-5.548 1.338v1.218l8.64 1.276v-1.398l-4.548-0.67 4.548-1.094v-1.339l-4.548-1.124 4.548-0.67v-1.398l-8.64 1.277z" fill="#fff"/></g><g transform="translate(450.08 665.44)"><path d="m0 0v-1.738l2.425 0.855zm-1.394-2.225v2.713l-2.426 0.854v1.464l8.64-2.988v-1.373l-8.64-2.987v1.463z" fill="#fff"/></g><g transform="translate(446.26 655.96)"><path d="m0 0v1.372h3.759l4.881 3.046v-1.646l-3.335-2.071 3.335-2.103v-1.614l-4.881 3.016z" fill="#fff"/></g><g transform="translate(74.687 272.19)"><path d="m0 0c-1.26 0-2.285 1.025-2.285 2.285v47.52c0 1.259 1.025 2.285 2.285 2.285h30.24c1.26 0 2.285-1.026 2.285-2.285v-47.52c0-1.26-1.025-2.285-2.285-2.285z" fill="#fff"/></g><g transform="translate(104.93 324.4)"><path d="m0 0h-30.24c-1.329 0-2.41-1.081-2.41-2.41v-47.52c0-1.329 1.081-2.41 2.41-2.41h30.24c1.329 0 2.41 1.081 2.41 2.41v47.52c0 1.329-1.081 2.41-2.41 2.41m0-0.25c1.188 0 2.16-0.972 2.16-2.16v-47.52c0-1.188-0.972-2.16-2.16-2.16h-30.24c-1.188 0-2.16 0.972-2.16 2.16v47.52c0 1.188 0.972 2.16 2.16 2.16z"/></g><g transform="translate(106.37 274.47)"><path d="m0 0c0-0.794-0.646-1.44-1.44-1.44h-30.24c-0.794 0-1.44 0.646-1.44 1.44v47.52c0 0.794 0.646 1.44 1.44 1.44h30.24c0.794 0 1.44-0.646 1.44-1.44z" fill="#c0311a"/></g><g transform="translate(87.647 284.5)"><path d="m0 0-5.548-1.369 5.548-1.338v-1.218l-8.64-1.276v1.398l4.548 0.67-4.548 1.094v1.339l4.548 1.124-4.548 0.67v1.399l8.64-1.278z" fill="#fff"/></g><g transform="translate(82.493 291.37)"><path d="m0 0c0 1.084-0.782 1.255-1.061 1.255-0.376 0-1.061-0.282-1.061-1.189v-1.782h2.122zm1.393-1.716h3.761v-1.363h-8.64v3.125c0 1.981 1.584 2.575 2.427 2.575 0.32 0 1.584-0.119 2.163-1.341l4.05 1.523v-1.487l-3.761-1.394z" fill="#fff"/></g><g transform="translate(86.405 298.55)"><path d="m0 0c0 0.931-0.882 1.687-3.078 1.687s-3.078-0.756-3.078-1.687 0.881-1.687 3.078-1.687c2.196 0 3.078 0.756 3.078 1.687m-3.078 3.054c0.31 0 4.471 0.066 4.471-3.069s-4.161-3.069-4.471-3.069-4.47-0.066-4.47 3.069 4.16 3.069 4.47 3.069" fill="#fff"/></g><g transform="translate(81.797 304.87)"><path d="m0 0h5.85v-1.363h-8.64v1.363l5.518 3.154h-5.518v1.365h8.64v-1.213z" fill="#fff"/></g><g transform="translate(78.857 314.42)"><path d="m0 0c0 1.385 0.525 2.164 1.909 2.75l0.515-1.304c-0.759-0.364-1.031-0.727-1.031-1.394 0-1.899 2.89-1.79 3.092-1.79 0.325 0 3.062-0.073 3.062 1.607 0 0.879-0.545 1.517-1.334 1.517h-0.363v-1.577h-1.365v2.94h1.728c1.576 0 2.728-1.152 2.728-2.73 0-0.313 0.258-3.151-4.471-3.151-0.662 0-4.47 0.037-4.47 3.132" fill="#fff"/></g><g transform="translate(100.61 291.68)"><path d="m0 0-5.548-1.369 5.548-1.338v-1.218l-8.64-1.276v1.398l4.548 0.67-4.548 1.094v1.339l4.548 1.124-4.548 0.67v1.399l8.64-1.278z" fill="#fff"/></g><g transform="translate(96.787 297.5)"><path d="m0 0v1.738l-2.425-0.855zm1.394 2.225v-2.713l2.426-0.854v-1.464l-8.64 2.989v1.372l8.64 2.987v-1.463z" fill="#fff"/></g><g transform="translate(100.61 306.97)"><path d="m0 0v-1.372h-3.759l-4.881-3.046v1.646l3.335 2.071-3.335 2.103v1.614l4.881-3.016z" fill="#fff"/></g><g transform="translate(338 620.1)"><path d="m0 0c-1.205 0-2.325 0.644-2.924 1.68l-22.68 39.283c-0.927 1.607-0.375 3.669 1.232 4.597l39.283 22.68c0.508 0.293 1.086 0.448 1.673 0.448 1.205 0 2.325-0.644 2.924-1.68l22.68-39.283c0.927-1.607 0.375-3.669-1.232-4.597l-39.283-22.68c-0.508-0.293-1.087-0.448-1.673-0.448" fill="#fff"/></g><g transform="translate(354.58 688.92)"><path d="m0 0c-0.609 0-1.209-0.161-1.736-0.465l-39.283-22.68c-0.804-0.464-1.38-1.217-1.622-2.12s-0.12-1.843 0.345-2.647l22.68-39.283c0.62-1.075 1.782-1.743 3.031-1.743 0.609 0 1.209 0.161 1.736 0.465l39.283 22.68c1.667 0.962 2.24 3.101 1.277 4.768l-22.68 39.283c-0.62 1.074-1.782 1.742-3.031 1.742m0-0.25c1.122 0 2.216-0.581 2.815-1.617l22.68-39.283c0.891-1.544 0.357-3.535-1.186-4.426l-39.283-22.68c-0.507-0.293-1.062-0.432-1.611-0.432-1.122 0-2.216 0.581-2.815 1.618l-22.68 39.283c-0.891 1.543-0.357 3.534 1.186 4.425l39.283 22.68c0.507 0.293 1.062 0.432 1.611 0.432"/></g><g transform="translate(331.97 670.62)"><path d="m0 0c1.067 0.943 2.244 1.795 3.525 2.534 1.281 0.74 2.607 1.333 3.957 1.786l21.168-36.664c-1.067-0.943-2.244-1.794-3.525-2.534s-2.607-1.333-3.957-1.786zm36.149-3.572c-6.959 12.053-22.371 16.183-34.424 9.224s-16.183-22.371-9.224-34.424 22.371-16.182 34.424-9.224c12.053 6.959 16.183 22.371 9.224 34.424" fill="#c0311a"/></g><g transform="translate(350.7 674.78)"><path d="m0 0-0.644 1.116-4.244-2.45 0.604-1.047c0.524-0.907 1.795-0.57 2.968 0.107 0.558 0.323 1.88 1.297 1.316 2.274m-6.463-0.932 6.235 3.6 1.299-2.249c0.908-1.574-0.921-3.192-1.826-3.714-2.339-1.351-3.952-0.679-4.407 0.11z" fill="#fff"/></g><g transform="translate(349.59 666.65)"><path d="m0 0c0.388-0.672 1.34-0.85 2.924 0.065 1.585 0.915 1.907 1.828 1.519 2.5s-1.339 0.85-2.925-0.065c-1.584-0.915-1.906-1.828-1.518-2.5m3.494-0.922c-0.224-0.129-3.2-1.91-4.506 0.352-1.306 2.263 1.725 3.949 1.948 4.078 0.224 0.13 3.199 1.91 4.505-0.352 1.306-2.263-1.723-3.948-1.947-4.078" fill="#fff"/></g><g transform="translate(358.35 659.15)"><path d="m0 0-4.222-2.438-0.568 0.984 6.235 3.6 0.568-0.984-2.668-4.575 3.982 2.299 0.569-0.985-6.235-3.6-0.506 0.876z" fill="#fff"/></g><g transform="translate(358.99 650.37)"><path d="m0 0c0.388-0.672 1.34-0.85 2.924 0.065 1.585 0.915 1.907 1.828 1.519 2.5s-1.339 0.85-2.925-0.065c-1.584-0.915-1.906-1.828-1.518-2.5m3.494-0.922c-0.224-0.129-3.199-1.91-4.506 0.352-1.306 2.263 1.724 3.949 1.948 4.078 0.224 0.13 3.199 1.911 4.505-0.352s-1.723-3.949-1.947-4.078" fill="#fff"/></g><g transform="translate(361.23 644.42)"><path d="m0 0-0.571 0.989 5.36 3.095-0.824 1.428 0.875 0.505 2.233-3.868-0.875-0.505-0.838 1.451z" fill="#fff"/></g><g transform="translate(332.48 662.53)"><path d="m0 0 2.119-3.671-0.984-0.568-1.552 2.687-1.531-0.884 1.047-1.814-1.006-0.581-1.047 1.814-1.707-0.986 1.665-2.883-1.007-0.581-2.232 3.867z" fill="#fff"/></g><g transform="translate(333.88 655.46)"><path d="m0 0-4.222-2.438-0.568 0.984 6.235 3.6 0.568-0.984-2.668-4.574 3.982 2.299 0.569-0.986-6.235-3.6-0.506 0.876z" fill="#fff"/></g><g transform="translate(333.48 646.4)"><path d="m0 0-0.571 0.989 5.36 3.095-0.824 1.428 0.875 0.505 2.233-3.867-0.876-0.506-0.837 1.451z" fill="#fff"/></g><g transform="translate(341.09 647.62)"><path d="m0 0 2.119-3.671-0.984-0.568-1.552 2.687-1.531-0.884 1.047-1.814-1.006-0.581-1.047 1.814-1.707-0.986 1.665-2.883-1.007-0.581-2.232 3.867z" fill="#fff"/></g><g transform="translate(342.7 639.02)"><path d="m0 0c0.452-0.783 1.087-0.58 1.288-0.464 0.272 0.157 0.649 0.646 0.271 1.301l-0.742 1.286-1.532-0.885zm-1.72 0.658-2.714-1.567-0.568 0.984 6.235 3.6 1.302-2.256c0.826-1.429-0.07-2.518-0.678-2.869-0.232-0.134-1.193-0.575-2.12 0.067l-2.289-2.787-0.619 1.073 2.133 2.573z" fill="#fff"/></g><g transform="translate(198.98 276.09)"><path d="m0 0c-1.523 0-2.861 1.025-3.254 2.494l-11.741 43.815c-0.232 0.864-0.111 1.77 0.34 2.55 0.45 0.782 1.175 1.339 2.04 1.571l43.814 11.74c0.283 0.075 0.574 0.114 0.865 0.114 1.524 0 2.863-1.025 3.256-2.494l11.74-43.814c0.481-1.792-0.587-3.641-2.379-4.122l-43.815-11.74c-0.283-0.076-0.574-0.114-0.866-0.114" fill="#fff"/></g><g transform="translate(231.04 338.5)"><path d="m0 0c-0.303 0-0.605-0.04-0.898-0.119l-43.815-11.74c-0.897-0.24-1.648-0.818-2.116-1.628-0.467-0.809-0.592-1.749-0.352-2.646l11.74-43.814c0.408-1.523 1.797-2.587 3.377-2.587 0.302 0 0.604 0.04 0.898 0.119l43.814 11.74c0.897 0.24 1.649 0.818 2.116 1.628 0.467 0.809 0.592 1.749 0.352 2.646l-11.74 43.815c-0.408 1.522-1.796 2.586-3.376 2.586m0-0.25c1.43 0 2.748-0.958 3.134-2.401l11.74-43.814c0.462-1.722-0.569-3.507-2.291-3.969l-43.814-11.74c-0.278-0.074-0.558-0.11-0.833-0.11-1.431 0-2.748 0.958-3.135 2.401l-11.74 43.815c-0.461 1.721 0.57 3.507 2.291 3.968l43.814 11.74c0.278 0.074 0.558 0.11 0.834 0.11"/></g><g transform="translate(224.66 287.91)"><path d="m0 0c-1.275-0.635-2.632-1.153-4.061-1.536s-2.863-0.613-4.285-0.7l-10.957 40.893c1.275 0.635 2.632 1.152 4.061 1.535s2.863 0.613 4.285 0.701zm-33.993 12.806c3.602-13.443 17.42-21.421 30.864-17.819 13.443 3.602 21.421 17.42 17.819 30.864-3.602 13.443-17.42 21.421-30.864 17.819-13.443-3.602-21.421-17.421-17.819-30.864" fill="#c0311a"/></g><g transform="translate(205.49 288.73)"><path d="m0 0 0.334-1.245 4.733 1.269-0.313 1.167c-0.271 1.012-1.586 1.015-2.895 0.665-0.622-0.167-2.151-0.767-1.859-1.856m6.484-0.773-6.954-1.863-0.673 2.509c-0.47 1.755 1.716 2.844 2.725 3.115 2.609 0.699 3.993-0.368 4.229-1.247z" fill="#fff"/></g><g transform="translate(208.67 296.3)"><path d="m0 0c-0.201 0.749-1.074 1.167-2.841 0.694-1.768-0.474-2.315-1.272-2.114-2.022 0.201-0.749 1.073-1.167 2.841-0.694 1.768 0.474 2.315 1.273 2.114 2.022m-3.136 1.794c0.249 0.067 3.585 1.018 4.261-1.506 0.676-2.523-2.688-3.368-2.937-3.434-0.25-0.067-3.584-1.018-4.261 1.506-0.676 2.523 2.687 3.368 2.937 3.434" fill="#fff"/></g><g transform="translate(202.14 305.82)"><path d="m0 0 4.709 1.262 0.294-1.097-6.955-1.864-0.293 1.097 3.761 3.729-4.442-1.19-0.294 1.099 6.955 1.863 0.261-0.976z" fill="#fff"/></g><g transform="translate(203.8 314.46)"><path d="m0 0c-0.201 0.749-1.074 1.168-2.841 0.694-1.768-0.474-2.315-1.272-2.114-2.022 0.201-0.749 1.073-1.168 2.841-0.694s2.315 1.273 2.114 2.022m-3.136 1.795c0.249 0.066 3.584 1.017 4.261-1.507 0.676-2.523-2.688-3.368-2.937-3.435-0.25-0.067-3.584-1.017-4.26 1.507-0.677 2.524 2.686 3.368 2.936 3.435" fill="#fff"/></g><g transform="translate(203.18 320.79)"><path d="m0 0 0.296-1.103-5.979-1.602 0.427-1.593-0.976-0.261-1.156 4.313 0.976 0.262 0.434-1.618z" fill="#fff"/></g><g transform="translate(226.26 295.85)"><path d="m0 0-1.097 4.094 1.098 0.295 0.803-2.998 1.708 0.458-0.542 2.023 1.123 0.301 0.542-2.023 1.903 0.51-0.861 3.216 1.122 0.301 1.156-4.314z" fill="#fff"/></g><g transform="translate(226.74 303.05)"><path d="m0 0 4.709 1.262 0.294-1.097-6.955-1.864-0.293 1.097 3.761 3.729-4.442-1.19-0.294 1.098 6.955 1.864 0.261-0.976z" fill="#fff"/></g><g transform="translate(229.47 311.69)"><path d="m0 0 0.296-1.103-5.979-1.602 0.427-1.593-0.976-0.261-1.156 4.313 0.976 0.262 0.434-1.618z" fill="#fff"/></g><g transform="translate(221.8 312.48)"><path d="m0 0-1.097 4.094 1.098 0.295 0.803-2.998 1.708 0.458-0.542 2.023 1.123 0.301 0.542-2.023 1.903 0.51-0.861 3.216 1.122 0.301 1.156-4.314z" fill="#fff"/></g><g transform="translate(222.47 321.21)"><path d="m0 0c-0.234 0.873-0.9 0.841-1.124 0.781-0.304-0.081-0.794-0.455-0.598-1.186l0.384-1.434 1.708 0.458zm1.492-1.081 3.027 0.811 0.294-1.097-6.955-1.863-0.674 2.515c-0.427 1.595 0.72 2.415 1.398 2.596 0.258 0.069 1.301 0.246 2.03-0.613l2.932 2.099 0.321-1.196-2.727-1.933z" fill="#fff"/></g><g transform="translate(355.58 453.16)"><path d="m0 0c-0.586 0-1.165 0.155-1.673 0.448l-39.283 22.68c-1.607 0.929-2.159 2.991-1.232 4.597l22.68 39.283c0.599 1.036 1.719 1.68 2.924 1.68 0.586 0 1.165-0.155 1.673-0.448l39.283-22.68c1.607-0.928 2.158-2.99 1.232-4.597l-22.68-39.283c-0.599-1.036-1.719-1.68-2.924-1.68" fill="#fff"/></g><g transform="translate(339 521.97)"><path d="m0 0c-1.25 0-2.411-0.668-3.032-1.742l-22.68-39.283c-0.464-0.805-0.587-1.745-0.345-2.648s0.818-1.656 1.623-2.12l39.283-22.68c0.527-0.304 1.127-0.465 1.735-0.465 1.25 0 2.411 0.668 3.032 1.743l22.68 39.282c0.962 1.667 0.389 3.806-1.277 4.768l-39.283 22.68c-0.527 0.304-1.127 0.465-1.736 0.465m0-0.25c0.549 0 1.104-0.139 1.611-0.432l39.283-22.68c1.543-0.891 2.077-2.882 1.186-4.426l-22.68-39.282c-0.599-1.037-1.694-1.618-2.816-1.618-0.548 0-1.104 0.139-1.61 0.432l-39.283 22.68c-1.544 0.891-2.077 2.882-1.186 4.426l22.68 39.283c0.598 1.036 1.693 1.617 2.815 1.617"/></g><g transform="translate(354.13 507.99)"><path d="m0 0c1.35-0.453 2.676-1.046 3.957-1.786 1.282-0.739 2.458-1.591 3.525-2.534l-21.167-36.664c-1.351 0.453-2.676 1.046-3.958 1.786-1.281 0.74-2.458 1.591-3.525 2.534zm14.981-33.092c6.959 12.053 2.829 27.465-9.224 34.424s-27.465 2.829-34.424-9.224c-6.958-12.053-2.829-27.465 9.224-34.424 12.053-6.958 27.465-2.829 34.424 9.224" fill="#c0311a"/></g><g transform="translate(367.1 493.85)"><path d="m0 0 0.644 1.116-4.244 2.45-0.604-1.046c-0.524-0.908 0.403-1.84 1.577-2.517 0.558-0.323 2.063-0.98 2.627-3e-3m-4.039 5.131 6.236-3.6-1.299-2.249c-0.908-1.574-3.224-0.799-4.129-0.276-2.339 1.35-2.564 3.083-2.109 3.872z" fill="#fff"/></g><g transform="translate(359.51 490.75)"><path d="m0 0c-0.388-0.672-0.066-1.585 1.518-2.5 1.585-0.915 2.537-0.737 2.925-0.065s0.067 1.585-1.519 2.5c-1.584 0.915-2.536 0.737-2.924 0.065m0.949-3.487c-0.224 0.13-3.254 1.816-1.948 4.078 1.306 2.263 4.282 0.482 4.505 0.352 0.224-0.129 3.254-1.815 1.948-4.077-1.307-2.263-4.281-0.482-4.505-0.353" fill="#fff"/></g><g transform="translate(357.39 479.4)"><path d="m0 0-4.222 2.438 0.568 0.983 6.235-3.6-0.568-0.983-5.296 0.023 3.982-2.299-0.569-0.985-6.235 3.6 0.505 0.875z" fill="#fff"/></g><g transform="translate(350.1 474.47)"><path d="m0 0c-0.388-0.672-0.066-1.585 1.518-2.5 1.585-0.915 2.537-0.737 2.925-0.065s0.067 1.585-1.519 2.5c-1.584 0.915-2.536 0.737-2.924 0.065m0.949-3.487c-0.224 0.129-3.254 1.816-1.948 4.078 1.306 2.263 4.282 0.482 4.506 0.353 0.223-0.13 3.253-1.815 1.947-4.078-1.307-2.263-4.282-0.482-4.505-0.353" fill="#fff"/></g><g transform="translate(346.07 469.55)"><path d="m0 0 0.571 0.989 5.36-3.095 0.825 1.428 0.875-0.505-2.233-3.867-0.875 0.505 0.837 1.45z" fill="#fff"/></g><g transform="translate(347.38 503.5)"><path d="m0 0-2.119-3.671-0.985 0.568 1.552 2.688-1.532 0.884-1.047-1.814-1.006 0.581 1.047 1.814-1.707 0.985-1.665-2.883-1.006 0.581 2.233 3.867z" fill="#fff"/></g><g transform="translate(341.96 498.75)"><path d="m0 0-4.222 2.438 0.568 0.983 6.235-3.6-0.568-0.983-5.296 0.023 3.982-2.299-0.568-0.985-6.236 3.6 0.506 0.875z" fill="#fff"/></g><g transform="translate(333.92 494.58)"><path d="m0 0 0.571 0.989 5.36-3.095 0.824 1.428 0.876-0.505-2.233-3.867-0.875 0.505 0.837 1.45z" fill="#fff"/></g><g transform="translate(338.78 488.59)"><path d="m0 0-2.119-3.671-0.985 0.568 1.552 2.688-1.532 0.884-1.047-1.814-1.006 0.581 1.047 1.814-1.707 0.985-1.665-2.883-1.006 0.581 2.233 3.867z" fill="#fff"/></g><g transform="translate(332.13 482.9)"><path d="m0 0c-0.452-0.783 0.041-1.231 0.243-1.348 0.272-0.157 0.883-0.238 1.261 0.416l0.743 1.286-1.532 0.884zm-0.29 1.819-2.714 1.567 0.567 0.983 6.236-3.6-1.302-2.255c-0.826-1.429-2.217-1.198-2.824-0.847-0.232 0.134-1.094 0.746-1.003 1.869l-3.557 0.589 0.619 1.072 3.295-0.56z" fill="#fff"/></g><g transform="translate(218.76 442.17)"><path d="m0 0c-0.586 0-1.165 0.155-1.673 0.448l-39.283 22.68c-0.775 0.448-1.331 1.174-1.564 2.044-0.233 0.871-0.115 1.778 0.332 2.553l22.68 39.283c0.599 1.036 1.719 1.68 2.924 1.68 0.586 0 1.165-0.156 1.673-0.449l39.283-22.679c0.775-0.448 1.331-1.174 1.565-2.045 0.232-0.87 0.115-1.777-0.333-2.552l-22.68-39.283c-0.599-1.036-1.719-1.68-2.924-1.68" fill="#fff"/></g><g transform="translate(202.17 510.98)"><path d="m0 0c-1.249 0-2.411-0.668-3.032-1.742l-22.68-39.283c-0.464-0.805-0.587-1.745-0.345-2.648s0.818-1.655 1.623-2.12l39.283-22.68c0.527-0.304 1.127-0.465 1.735-0.465 1.25 0 2.411 0.668 3.032 1.743l22.68 39.283c0.962 1.666 0.389 3.805-1.277 4.767l-39.283 22.68c-0.527 0.304-1.127 0.465-1.736 0.465m0-0.25c0.549 0 1.104-0.139 1.611-0.432l39.283-22.68c1.543-0.891 2.077-2.882 1.186-4.425l-22.68-39.283c-0.599-1.037-1.694-1.618-2.816-1.618-0.548 0-1.104 0.139-1.61 0.432l-39.283 22.68c-1.544 0.891-2.077 2.882-1.186 4.426l22.68 39.283c0.598 1.036 1.693 1.617 2.815 1.617"/></g><g transform="translate(203.62 456.02)"><path d="m0 0c-1.351 0.453-2.676 1.046-3.957 1.786-1.282 0.739-2.458 1.591-3.525 2.534l21.167 36.664c1.351-0.453 2.676-1.046 3.958-1.786 1.281-0.74 2.458-1.591 3.525-2.534zm-14.981 33.092c-6.959-12.053-2.829-27.465 9.224-34.424s27.465-2.829 34.423 9.224c6.959 12.053 2.83 27.465-9.223 34.424-12.053 6.958-27.465 2.829-34.424-9.224" fill="#c0311a"/></g><g transform="translate(190.65 470.16)"><path d="m0 0-0.644-1.116 4.244-2.45 0.604 1.046c0.524 0.908-0.403 1.84-1.577 2.517-0.558 0.323-2.063 0.98-2.627 3e-3m4.039-5.131-6.236 3.6 1.299 2.249c0.908 1.574 3.224 0.799 4.129 0.276 2.339-1.35 2.564-3.083 2.109-3.872z" fill="#fff"/></g><g transform="translate(198.25 473.26)"><path d="m0 0c0.388 0.672 0.066 1.585-1.518 2.5-1.585 0.915-2.537 0.737-2.925 0.065s-0.067-1.585 1.519-2.5c1.584-0.915 2.536-0.737 2.924-0.065m-0.949 3.487c0.224-0.13 3.254-1.816 1.948-4.078-1.306-2.263-4.282-0.482-4.505-0.352-0.224 0.129-3.254 1.815-1.948 4.077 1.307 2.263 4.281 0.482 4.505 0.353" fill="#fff"/></g><g transform="translate(200.37 484.61)"><path d="m0 0 4.222-2.438-0.568-0.983-6.235 3.6 0.568 0.983 5.296-0.023-3.982 2.299 0.569 0.985 6.235-3.6-0.505-0.875z" fill="#fff"/></g><g transform="translate(207.65 489.55)"><path d="m0 0c0.388 0.672 0.066 1.585-1.518 2.5-1.585 0.915-2.537 0.737-2.925 0.065s-0.067-1.585 1.519-2.5c1.584-0.915 2.536-0.737 2.924-0.065m-0.949 3.487c0.224-0.129 3.254-1.816 1.948-4.078-1.306-2.263-4.282-0.482-4.506-0.353-0.223 0.13-3.253 1.815-1.947 4.078 1.307 2.263 4.282 0.482 4.505 0.353" fill="#fff"/></g><g transform="translate(211.68 494.46)"><path d="m0 0-0.571-0.989-5.36 3.095-0.825-1.428-0.875 0.505 2.233 3.868 0.875-0.506-0.837-1.45z" fill="#fff"/></g><g transform="translate(210.37 460.51)"><path d="m0 0 2.119 3.671 0.985-0.568-1.552-2.688 1.532-0.884 1.047 1.814 1.006-0.581-1.047-1.814 1.707-0.985 1.665 2.883 1.006-0.581-2.233-3.867z" fill="#fff"/></g><g transform="translate(215.8 465.26)"><path d="m0 0 4.222-2.438-0.568-0.983-6.235 3.6 0.568 0.983 5.296-0.023-3.982 2.299 0.568 0.985 6.236-3.6-0.506-0.875z" fill="#fff"/></g><g transform="translate(223.84 469.43)"><path d="m0 0-0.571-0.989-5.36 3.095-0.824-1.428-0.876 0.505 2.233 3.867 0.875-0.505-0.837-1.45z" fill="#fff"/></g><g transform="translate(218.98 475.42)"><path d="m0 0 2.119 3.671 0.985-0.568-1.552-2.688 1.532-0.884 1.047 1.814 1.006-0.581-1.047-1.814 1.707-0.985 1.665 2.883 1.006-0.581-2.233-3.867z" fill="#fff"/></g><g transform="translate(225.62 481.12)"><path d="m0 0c0.452 0.783-0.041 1.231-0.243 1.348-0.272 0.157-0.883 0.238-1.261-0.416l-0.743-1.286 1.532-0.884zm0.29-1.819 2.714-1.567-0.567-0.983-6.236 3.6 1.302 2.255c0.826 1.429 2.217 1.198 2.824 0.847 0.232-0.134 1.094-0.746 1.003-1.869l3.557-0.589-0.619-1.072-3.295 0.56z" fill="#fff"/></g><g transform="translate(82.27 619.08)"><path d="m0 0v78.92l-3.111-21.215 0.282-3.677 2.263 1.98" stroke="#000"/></g><g transform="translate(85.37 666.63)"><path d="m0 0h2.665v-22.176h-3.09l-10.348 17.914h-0.056v-17.914h-2.665v22.176h3.259l10.177-17.913h0.058z"/></g><g transform="translate(268.11 657.16)"><path d="m0 0c-1.574-2.162-3.147-4.323-4.721-6.483 1.77-1.573 3.539-3.145 5.309-4.717-0.393 1.375-0.787 2.752-1.18 4.127 2.301-0.113 4.02 0.336 5.308 1.474v-6.781c-0.689 0.59-1.374 1.18-2.062 1.768 0.981-3.143 1.965-6.286 2.947-9.431 0.984 3.145 1.966 6.288 2.949 9.431-0.688-0.588-1.377-1.178-2.065-1.768v15.917h-1.769v-2.945c-0.078-2.777-1.281-4.509-4.128-4.718h-1.18c0.197 1.377 0.393 2.751 0.592 4.126" fill="#fff" fill-rule="evenodd"/></g><g transform="translate(294.45 310.16)"><path d="m0 0c1.574 2.162 3.146 4.323 4.721 6.483-1.77 1.573-3.539 3.145-5.309 4.717 0.393-1.375 0.787-2.752 1.18-4.127-2.301 0.113-4.02-0.336-5.308-1.474v6.781c0.689-0.59 1.374-1.18 2.062-1.768-0.981 3.143-1.965 6.286-2.947 9.431-0.984-3.145-1.966-6.288-2.949-9.431 0.688 0.588 1.377 1.178 2.065 1.768v-15.917h1.769v2.945c0.078 2.777 1.28 4.509 4.128 4.718h1.18c-0.197-1.377-0.393-2.751-0.592-4.126" fill="#fff" fill-rule="evenodd"/></g><g transform="translate(271.94 480.55)"><path d="m0 0c1.574-2.162 3.146-4.323 4.721-6.483-1.77-1.573-3.539-3.145-5.309-4.717 0.393 1.375 0.787 2.752 1.18 4.127-2.301-0.113-4.02 0.336-5.308 1.474v-6.781c0.689 0.59 1.374 1.18 2.062 1.768-0.981-3.143-1.965-6.286-2.947-9.431-0.984 3.145-1.966 6.288-2.949 9.431 0.688-0.588 1.377-1.178 2.065-1.768v15.917h1.769v-2.945c0.078-2.777 1.28-4.509 4.128-4.718h1.18c-0.197 1.377-0.393 2.751-0.592 4.126" fill="#fff" fill-rule="evenodd"/></g><g transform="translate(290.8 485.48)"><path d="m0 0c-1.574 2.162-3.147 4.323-4.721 6.483 1.77 1.573 3.539 3.145 5.309 4.717-0.393-1.375-0.787-2.752-1.18-4.127 2.301 0.114 4.02-0.336 5.308-1.474v6.781c-0.689-0.59-1.374-1.18-2.062-1.768 0.981 3.143 1.965 6.286 2.947 9.431 0.984-3.145 1.966-6.288 2.949-9.431-0.688 0.588-1.377 1.178-2.065 1.768v-15.917h-1.769v2.945c-0.078 2.778-1.281 4.509-4.128 4.718h-1.18c0.197-1.377 0.393-2.751 0.592-4.126" fill="#fff" fill-rule="evenodd"/></g><g transform="translate(319.97 550.88)"><path d="m0 0c-49.773 0-49.174-31.27-49.174-52.396v-96.055" fill="none" stroke="#005a9c" stroke-width="2"/></g><g transform="translate(263.32 404.61)"><path d="m0 0 7.479-12.953 7.48 12.953z" fill="#005a9c"/></g><g transform="translate(237.17 413.61)"><path d="m0 0c49.773 0 55.534 27.438 55.534 48.564v99.887" fill="none" stroke="#005a9c" stroke-width="2"/></g><g transform="translate(300.18 559.88)"><path d="m0 0-7.479 12.953-7.48-12.953z" fill="#005a9c"/></g></g><text transform="matrix(1 0 0 -1 308.1 276.17)" fill="black" font-family="Helvetica" font-size="8px"><tspan x="0 5.776 10.224 12.448 16.896 19.120001 24 29.336 33.784 37.784 42.231998 48.896 53.344002 57.792 60.015999 62.240002 68.903999 73.351997 76.015999 80.015999 81.792 86.239998 90.688004 92.912003 97.360001 100.024 104.472 108.472 110.248 114.248 116.024 120.472 124.92 128.92 131.144 135.592 138.256 142.70399 144.92799 147.15199 151.60001 156.048 160.496 164.944 167.168 168.944 173.392 175.616 180.952 185.39999 188.064 190.28799 192.51199 196.96001 199.18401" y="0">Note: Pavement marking provisions are found in Part 3. </tspan><tspan x="24 28.888 33.335999 37.784 40.007999 44.456001 48.903999 52.903999 57.352001 64.015999 68.463997 72.912003 75.136002 77.360001 84.024002 88.472 91.136002 95.136002 96.912003 101.36 105.808 109.808 112.032 113.808 115.584 117.36 121.808 125.808 128.032 130.696 135.144 137.368 141.81599 146.26401 148.48801 152.936 157.384 159.608 161.832 166.28 168.056 172.056 174.28 176.504 178.28 182.728 187.17599 189.84 194.28799" y="8.4960003">The pavement markings illustrated on this figure </tspan></text><g clip-path="url(#a)"><text transform="matrix(1 0 0 -1 332.1 259.18)" fill="black" font-family="Helvetica" font-size="8px"><tspan x="0 4.448 7.112 11.56 13.784 17.784 22.232 26.68 32.456001 36.903999 39.127998 41.352001 45.799999 48.464001 50.688 54.688 56.464001 60.911999 63.576 65.351997 67.575996 69.351997 73.351997 77.800003 80.024002 81.800003 86.248001 90.695999 92.919998 97.367996 101.816 104.48 108.928 113.376 117.376 121.824 125.824 128.048 132.496 136.944 138.72 142.1488" y="0">are shown for clarification purposes only.</tspan></text></g></g></svg>
