<?xml version="1.0" encoding="UTF-8"?>
<svg width="670.32" height="876.51" version="1.1" viewBox="0 0 670.32 876.51" xml:space="preserve" xmlns="http://www.w3.org/2000/svg"><defs><clipPath id="f"><path d="m52.52 60.24h532.52v685.76h-532.52z"/></clipPath><clipPath id="e"><path d="m52.52 60.24h532.52v685.76h-532.52z"/></clipPath><clipPath id="d"><path d="m52.52 60.24h532.52v685.76h-532.52z"/></clipPath><clipPath id="c"><path d="m52.52 60.24h532.52v685.76h-532.52z"/></clipPath><clipPath id="b"><path d="m52.52 60.24h532.52v685.76h-532.52z"/></clipPath><clipPath id="a"><path d="m52.52 60.24h532.52v685.76h-532.52z"/></clipPath></defs><g transform="matrix(1.3333 0 0 -1.3333 -90.423 956.83)"><g clip-path="url(#f)"><g transform="translate(420.44 627.01)"><path d="m0 0c-14.282-17.843-22.823-40.481-22.823-65.114v-69.859" fill="none" stroke="#000" stroke-width="9.5"/></g></g><g transform="translate(217 627.01)" fill="none"><path d="m0 0h203.44" stroke="#000" stroke-width="9.5"/><path d="m0 0h203.44" stroke="#b1b4b6" stroke-width="8"/></g><g clip-path="url(#e)"><g transform="translate(420.44 627.01)" fill="none"><path d="m0 0c-14.282-17.843-22.823-40.481-22.823-65.114v-69.859" stroke="#b1b4b6" stroke-width="8"/><path d="m0 0c-14.282-17.843-22.823-40.481-22.823-65.114v-69.859" stroke="#ffd046" stroke-width="4"/></g><g transform="translate(570.18 627.16)"><path d="m0 0h-68.288c-18.024 0-34.342-7.306-46.154-19.117-11.812-11.812-19.117-28.13-19.117-46.154v-69.859" fill="none" stroke="#000" stroke-miterlimit="10" stroke-width="9.5"/></g><g transform="translate(570.18 685.28)"><path d="m0 0h-75.591c-2.921 0-5.79-0.769-8.32-2.23l-15.098-9.585c-2.795-1.614-12.467-8.297-15.695-8.297h-238.48" fill="none" stroke="#000" stroke-miterlimit="10" stroke-width="9.5"/></g><g transform="translate(570.18 627.16)"><path d="m0 0h-68.288c-18.024 0-34.342-7.306-46.154-19.117-11.812-11.812-19.117-28.13-19.117-46.154v-69.859" fill="none" stroke="#b1b4b6" stroke-miterlimit="10" stroke-width="8"/></g><g transform="translate(570.18 685.28)"><path d="m0 0h-75.591c-2.921 0-5.79-0.769-8.32-2.23l-15.098-9.585c-2.795-1.614-12.467-8.297-15.695-8.297h-238.48" fill="none" stroke="#b1b4b6" stroke-miterlimit="10" stroke-width="8"/></g><g transform="translate(570.18 627.16)"><path d="m0 0h-68.288c-18.024 0-34.342-7.306-46.154-19.117-11.812-11.812-19.117-28.13-19.117-46.154v-69.859" fill="none" stroke="#fff" stroke-miterlimit="10" stroke-width="4"/></g><g transform="translate(570.18 685.28)"><path d="m0 0h-75.591c-2.921 0-5.79-0.769-8.32-2.23l-15.098-9.585c-2.563-2.062-12.467-8.297-15.695-8.297h-238.48" fill="none" stroke="#ffd046" stroke-miterlimit="10" stroke-width="4"/></g></g><g transform="translate(217 627.01)"><path d="m0 0h203.44" fill="none" stroke="#fff" stroke-width="4"/></g><g clip-path="url(#d)"><g transform="translate(501.89 666.17)"><path d="m0 0c-28.796 0-54.866-11.672-73.736-30.543-18.871-18.87-30.543-44.94-30.543-73.736h39.008c0 18.024 7.306 34.342 19.117 46.154 11.812 11.811 28.13 19.117 46.154 19.117h68.288v39.008z" fill="#b1b4b6"/></g><g transform="translate(416.94 622.68)"><path d="m0 0 33.102-21.859" fill="#fff" stroke="#fff" stroke-miterlimit="10" stroke-width="6"/></g><g transform="translate(217 627.01)"><path d="m0 0h353.18v58.277h-75.591c-2.921 0-5.79-0.769-8.32-2.23l-15.098-9.584c-2.564-1.958-12.467-8.298-15.695-8.298h-238.48z" fill="#b1b4b6"/></g><g transform="translate(397.61 561.89)"><path d="m0 0v-69.859h39.008v69.859" fill="#b1b4b6"/></g><g transform="translate(417.12 561.89)"><path d="m0 0v-49.819" fill="none" stroke="#fff" stroke-dasharray="4.32, 12.96" stroke-width="2"/></g><g transform="translate(429.39 646.09)" fill="none" stroke-width="2"><path d="m0 0h140.79" stroke="#b1b4b6"/><path d="m0 0h140.79" stroke="#fff" stroke-dasharray="14.4, 43.2"/></g><g transform="translate(330.11 646.09)"><path d="m0 0h60.11" fill="none" stroke="#fff" stroke-miterlimit="10" stroke-width="2"/></g><g transform="translate(217 646.09)" fill="none" stroke-width="2"><path d="m0 0h113.11" stroke="#b1b4b6"/><path d="m0 0h113.11" stroke="#fff" stroke-dasharray="14.4, 43.2"/></g><g transform="translate(463.67 666.17)"><path d="m0 0h106.51" fill="none" stroke="#fff" stroke-dasharray="2.88, 5.76" stroke-width="2"/></g><g transform="translate(417.12 561.89)"><path d="m0 0c0 19.843 6.655 39.078 18.16 53.451" fill="none" stroke="#fff" stroke-miterlimit="10" stroke-width="2"/></g><g transform="translate(522.54 664.89)"><path d="m0 0c-6.411-0.978-9.71-1.753-19.199-4.525-20.654-6.033-47.973-18.654-68.061-45.025" fill="none" stroke="#fff" stroke-dasharray="2.88, 5.76" stroke-width="2"/></g><g transform="translate(375.92 614.96)"><path d="m0 0c4.804-7.437 8.621-15.353 11.41-23.628 0.831-2.463 4.291-2.456 5.11 0.011 2.768 8.348 6.542 16.322 11.246 23.709 1.153 1.812-0.12 4.181-2.267 4.173l-23.26-0.08c-2.146-7e-3 -3.403-2.383-2.239-4.185z" fill="none" stroke="#000" stroke-miterlimit="10"/></g><g transform="translate(447.82 514.09)"><path d="m0 0h-53.31" fill="none" stroke="#000"/></g><g transform="translate(445.41 514.09)"><path d="m0 0c0-1.323 1.076-2.398 2.398-2.398 1.323 0 2.399 1.075 2.399 2.398s-1.076 2.398-2.399 2.398c-1.322 0-2.398-1.075-2.398-2.398"/></g><g transform="translate(417.96 513.8)"><path d="m0 0v-1.725h17.318v1.725z"/></g><g transform="translate(400.62 513.8)"><path d="m0 0v-1.725h15.345v1.725z"/></g><g transform="translate(514.45 614.15)"><path d="m0 0v73.819" fill="none" stroke="#000"/></g><g transform="translate(514.45 616.56)"><path d="m0 0c-1.323 0-2.398-1.076-2.398-2.398 0-1.323 1.075-2.399 2.398-2.399s2.398 1.076 2.398 2.399c0 1.322-1.075 2.398-2.398 2.398"/></g><g transform="translate(514.15 660.97)"><path d="m0 0h-1.725v-29.772h1.725v14.886z"/></g><g transform="translate(514.15 682.27)"><path d="m0 0h-1.725v-12.214h1.725v6.107z"/></g></g><text transform="matrix(1 0 0 -1 287.42 204.26)" fill="black" font-family="Helvetica" font-size="8px"><tspan x="0 2.7335999 7.3415999 11.876 15.9984 18.2136 21.0376 27.8416 32.382401 36.880001 41.392799 43.6464 48.2216 52.6712 54.895199 59.439999 63.889599 66.113602 68.0056 72.476799 74.999199 77.214401 80.038399 84.554398 89.101601 93.690399" y="0">(post-mounted on left-hand</tspan><tspan x="38.824001 42.952801 44.877602 49.437599 53.885601 56.1096 60.591999 62.816002 65.040001 67.809601 72.313599 76.848 81.416 87.173599 91.573601 95.475998" y="8.4960003">side of roadway)</tspan></text><g clip-path="url(#c)"><g transform="translate(269.4 438.51)"><path d="m0 0c0 48.04 139.12 20.731 139.12 65.285v3.832" fill="none" stroke="#000" stroke-miterlimit="10" stroke-width=".75"/></g><g transform="translate(409.06 509.76)"><path d="m0 0c0.263-0.868 0.504-1.433 0.783-2.129h-2.648c0.118 0.249 0.521 1.261 0.783 2.129 0.28 0.929 0.473 1.771 0.541 2.317 0.068-0.546 0.261-1.388 0.541-2.317"/></g><g transform="translate(427.09 507.63)"><path d="m0 0v-3.832c0-49.865-50.621-41.075-50.621-65.285" fill="none" stroke="#000" stroke-miterlimit="10" stroke-width=".75"/></g><g transform="translate(426.55 509.76)"><path d="m0 0c-0.263-0.868-0.504-1.433-0.783-2.129h2.648c-0.118 0.249-0.521 1.261-0.783 2.129-0.28 0.929-0.473 1.771-0.541 2.317-0.068-0.546-0.261-1.388-0.541-2.317"/></g><g transform="translate(507.6 646.09)"><path d="m0 0h-1.554c-31.459 0 8.399-54.564 38.739-229.87 15.667-90.525 22.579-290.94-16.923-290.94" fill="none" stroke="#010101" stroke-miterlimit="10" stroke-width=".75"/></g><g transform="translate(509.73 646.63)"><path d="m0 0c-0.868 0.263-1.433 0.504-2.129 0.783v-2.648c0.249 0.118 1.261 0.521 2.129 0.783 0.929 0.28 1.771 0.473 2.317 0.541-0.546 0.068-1.388 0.261-2.317 0.541" fill="#010101"/></g><g transform="translate(187.12 635.09)"><path d="m0 0v-58.145c0-7.746 6.28-14.026 14.027-14.026h85.47" fill="none" stroke="#231f20" stroke-miterlimit="10" stroke-width="2"/></g><g transform="translate(87.625 562.92)"><path d="m0 0h85.471c7.746 0 14.026 6.28 14.026 14.027" fill="none" stroke="#231f20" stroke-miterlimit="10" stroke-width="2"/></g><g transform="translate(266.7 542.92)"><path d="m0 0c0-11.046-8.954-20-20-20h-127.15c-11.046 0-20 8.954-20 20s8.954 20 20 20h127.15c11.046 0 20-8.954 20-20z" fill="none" stroke="#231f20" stroke-miterlimit="10" stroke-width="2"/></g><g transform="translate(187.12 453.74)"><path d="m0 0v55.147c0 7.747 6.28 14.027 14.027 14.027h85.47" fill="none" stroke="#231f20" stroke-miterlimit="10" stroke-width="2"/></g><g transform="translate(87.625 522.92)"><path d="m0 0h85.471c7.746 0 14.026-6.28 14.026-14.027" fill="none" stroke="#231f20" stroke-miterlimit="10" stroke-width="2"/></g></g><text transform="matrix(.99996 -.0093499 -.0093499 -.99996 190.98 595.05)" fill="black" font-family="Helvetica" font-size="8px"><tspan x="0 5.0600314 9.5880594 13.709685 16.056099 20.591328 22.367338 24.591352 30.44739 34.921818" y="0">Vestal Rd.</tspan><tspan x="1.0960068 6.1560383 10.684067 14.805692 17.151306 21.687334 23.463346 25.687359 31.543396 36.017822" y="117.53673">Vestal Rd.</tspan></text><g clip-path="url(#b)"><g transform="translate(81.003 529.88)"><path d="m0 0c-1.159 1.403-2.867 2.208-4.686 2.208h-0.853c-4.107 0-7.45 3.343-7.45 7.451 0 1.075 0.225 2.113 0.668 3.086 1.218 2.655 0.977 5.689-0.647 8.114l-0.057 0.085 5.225 5.224 0.087-0.072c1.084-0.895 2.457-1.388 3.865-1.388s2.781 0.493 3.865 1.388l0.079 0.066 0.08-0.066c1.084-0.895 2.456-1.388 3.865-1.388 1.408 0 2.781 0.493 3.864 1.388l0.088 0.072 5.224-5.224-0.057-0.085c-1.623-2.425-1.865-5.459-0.646-8.114 0.443-0.972 0.667-2.01 0.667-3.086 0-4.108-3.342-7.451-7.45-7.451h-0.853c-1.818 0-3.526-0.805-4.686-2.208l-0.096-0.117z" fill="#fff"/></g><g transform="translate(89.004 556.21)"><path d="m0 0-0.175-0.145c-1.062-0.877-2.406-1.36-3.786-1.36-1.379 0-2.723 0.483-3.785 1.36l-0.159 0.132-0.159-0.132c-1.062-0.877-2.406-1.36-3.785-1.36s-2.724 0.483-3.785 1.36l-0.175 0.145-0.161-0.161-5.072-5.071-0.145-0.145 0.115-0.171c1.599-2.389 1.837-5.376 0.636-7.992-0.45-0.989-0.679-2.044-0.679-3.138 0-4.177 3.398-7.576 7.575-7.576h0.854c1.781 0 3.453-0.788 4.588-2.163l0.193-0.233 0.193 0.233c1.135 1.375 2.808 2.163 4.589 2.163h0.853c4.177 0 7.575 3.399 7.575 7.576 0 1.094-0.228 2.149-0.678 3.137-1.201 2.617-0.963 5.604 0.636 7.993l0.114 0.171-5.216 5.216zm-0.016-0.338 5.071-5.071c-1.696-2.534-1.841-5.653-0.656-8.235 0.422-0.925 0.656-1.952 0.656-3.034 0-4.046-3.279-7.326-7.325-7.326h-0.853c-1.925 0-3.645-0.877-4.782-2.254-1.137 1.377-2.857 2.254-4.781 2.254h-0.854c-4.045 0-7.325 3.28-7.325 7.326 0 1.082 0.235 2.109 0.656 3.034 1.185 2.582 1.041 5.701-0.656 8.235l5.072 5.071c1.071-0.885 2.446-1.417 3.944-1.417 1.499 0 2.873 0.532 3.944 1.417 1.072-0.885 2.446-1.417 3.944-1.417 1.499 0 2.873 0.532 3.945 1.417" fill="#010101"/></g><g transform="translate(85.576 537.44)"><path d="m0 0v10.504h-1.17v1.637h0.135c0.54 0 1.125 0.319 1.485 0.819h1.62v-12.96z"/></g><g transform="translate(78.267 547.4)"><path d="m0 0-3.699-4.866h3.699zm2.055-6.73v-3.229h-2.055v3.229h-6.439v1.228l6.439 8.503h2.055v-7.867h1.233v-1.864z"/></g><g transform="translate(84.625 562.08)"><path d="m0 0h-6.354v-1.559l-4.376 2.577 4.376 2.398v-1.439h6.354z"/></g><g transform="translate(73.895 523.84)"><path d="m0 0h6.354v1.559l4.376-2.577-4.376-2.398v1.439h-6.354z"/></g><g transform="translate(300.35 562.08)"><path d="m0 0h-6.353v-1.559l-4.377 2.577 4.377 2.398v-1.439h6.353z"/></g><g transform="translate(289.62 523.84)"><path d="m0 0h6.354v1.559l4.376-2.577-4.376-2.398v1.439h-6.354z"/></g><g transform="translate(182.14 464.38)"><path d="m0 0v-6.353h1.559l-2.577-4.377-2.398 4.377h1.439v6.353z"/></g><g transform="translate(193.96 453.65)"><path d="m0 0v6.354h1.559l-2.577 4.376-2.398-4.376h1.44v-6.354z"/></g><g transform="translate(182.14 635.09)"><path d="m0 0v-6.354h1.559l-2.577-4.377-2.398 4.377h1.439v6.354z"/></g><g transform="translate(193.96 624.36)"><path d="m0 0v6.354h1.559l-2.577 4.377-2.398-4.377h1.44v-6.354z"/></g></g><text transform="matrix(1 0 0 -1 207.42 711.07)" fill="black" font-family="Helvetica" font-size="9px" font-weight="bold"><tspan x="0 6.4980001 9 14.004 16.506001 19.007999 24.507 27.504 32.507999 36.008999 41.013 46.016998 51.515999 54.513 59.516998 65.015999 67.517998 72.522003 76.023003 81.522003 86.526001 91.529999 95.030998 100.53 105.534 111.033 113.535 120.537 123.039 126.036 131.535 134.037 136.539 141.543 144.53999 147.537 150.039 153.036 158.535 162.036 167.535 172.539 175.041 180.53999 184.041 189.53999 195.039 197.541 203.03999 205.54201 208.539 213.543 219.04201" y="0">B – Intercepted crossroad with left turns prohibited </tspan></text><g transform="translate(217.86 514.4)"><path d="m0 0h146.11" fill="none" stroke="#000" stroke-width=".75"/></g><g transform="translate(363.23 513.31)"><path d="M 0,0 4.065,1.089 0,2.179 Z"/></g><text transform="matrix(1 0 0 -1 392.75 250.76)" fill="black" font-family="Helvetica" font-size="8px"><tspan x="0 6.3119998" y="0">OR</tspan></text><g clip-path="url(#a)"><g transform="translate(415.16 574.75)"><path d="m0 0c-1.497 1.548-2.993 3.051-4.492 4.599 0.269-1.268 0.538-2.538 0.808-3.805-0.357 0.016-0.714 0.033-1.072 0.046-3.184-0.01-4.988-1.563-5.653-4.397-0.112-1.597-0.224-3.197-0.336-4.797l1.59-0.111c0.075 1.068 0.15 2.137 0.225 3.207 0.509 2.212 1.73 3.509 3.99 3.468 0.357-0.025 0.713-0.05 1.07-0.075-0.269-1.23-0.541-2.46-0.809-3.691 1.56 1.837 3.117 3.719 4.679 5.556" fill="#fff" fill-rule="evenodd"/></g><g transform="translate(434.27 574.75)"><path d="m0 0c-1.497 1.548-2.993 3.051-4.492 4.599 0.269-1.268 0.538-2.538 0.808-3.805-0.357 0.016-0.714 0.033-1.072 0.046-3.184-0.01-4.988-1.563-5.653-4.397-0.112-1.597-0.224-3.197-0.336-4.797l1.59-0.111c0.075 1.068 0.15 2.137 0.225 3.207 0.509 2.212 1.73 3.509 3.99 3.468 0.357-0.025 0.713-0.05 1.07-0.075-0.269-1.23-0.541-2.46-0.809-3.691 1.56 1.837 3.117 3.719 4.679 5.556" fill="#fff" fill-rule="evenodd"/></g><g transform="translate(404.14 536.82)"><path d="m0 0c-0.49 0-0.687 0.996-0.678 5.555 0.012 4.558 0.188 5.554 0.678 5.554 0.492 0 0.639-0.996 0.639-5.554 0-4.559-0.147-5.555-0.639-5.555m-0.033 13.738c-0.723 0-1.299-1.467-1.315-8.183-0.013-6.715 0.592-8.184 1.315-8.184 0.724 0 1.314 1.469 1.314 8.184 0 6.716-0.59 8.183-1.314 8.183" fill="#fff"/></g><g transform="translate(406.06 534.27)"><path d="m0 0v16.291h0.654l1.309-10.434v10.434h0.654v-16.291h-0.654l-1.309 10.42v-10.42z" fill="#fff"/></g><g transform="translate(409.33 550.56)"><path d="m0 0v-16.285h2.607v2.633h-1.955v13.652z" fill="#fff"/></g><g transform="translate(411.61 550.54)"><path d="m0 0 0.978-9.775v-6.518h0.653v6.518l0.976 9.775h-0.652l-0.65-6.527-0.653 6.527z" fill="#fff"/></g><g transform="translate(492.92 680.53)"><path d="m0 0c0 0.49 0.996 0.687 5.555 0.678 4.558-0.012 5.554-0.188 5.554-0.678 0-0.492-0.996-0.639-5.554-0.639-4.559 0-5.555 0.147-5.555 0.639m13.738 0.033c0 0.723-1.467 1.299-8.183 1.315-6.715 0.013-8.184-0.592-8.184-1.315 0-0.724 1.469-1.314 8.184-1.314 6.716 0 8.183 0.59 8.183 1.314" fill="#fff"/></g><g transform="translate(490.36 678.61)"><path d="m0 0h16.291v-0.654l-10.434-1.309h10.434v-0.654h-16.291v0.654l10.42 1.309h-10.42z" fill="#fff"/></g><g transform="translate(506.65 675.33)"><path d="m0 0h-16.285v-2.607h2.633v1.955h13.652z" fill="#fff"/></g><g transform="translate(506.64 673.05)"><path d="m0 0-9.775-0.978h-6.518v-0.653h6.518l9.775-0.976v0.652l-6.527 0.65 6.527 0.653z" fill="#fff"/></g><g transform="translate(422.89 536.82)"><path d="m0 0c-0.49 0-0.687 0.996-0.678 5.555 0.012 4.558 0.188 5.554 0.678 5.554 0.492 0 0.639-0.996 0.639-5.554 0-4.559-0.147-5.555-0.639-5.555m-0.033 13.738c-0.723 0-1.299-1.467-1.315-8.183-0.013-6.715 0.592-8.184 1.315-8.184 0.724 0 1.314 1.469 1.314 8.184 0 6.716-0.59 8.183-1.314 8.183" fill="#fff"/></g><g transform="translate(424.81 534.27)"><path d="m0 0v16.291h0.654l1.309-10.434v10.434h0.654v-16.291h-0.654l-1.309 10.42v-10.42z" fill="#fff"/></g><g transform="translate(428.09 550.56)"><path d="m0 0v-16.285h2.607v2.633h-1.955v13.652z" fill="#fff"/></g><g transform="translate(430.37 550.54)"><path d="m0 0 0.978-9.775v-6.518h0.653v6.518l0.976 9.775h-0.652l-0.65-6.527-0.653 6.527z" fill="#fff"/></g><g transform="translate(413.7 617.93)"><path d="m0 0c0.547 0.68 1.452 1.924 1.612 2.138 0.16 0.213 3.555 4.932 3.555 4.932l-2.199-0.013z" fill="#ffd046"/></g><g transform="translate(367.3 616.56)"><path d="m0 0v-148.71h202.89v231.23h-360.64v-82.513z" fill="none" stroke="#000" stroke-width=".75"/></g><g transform="translate(507.98 676.16)"><path d="m0 0h-1.934c-17.543 0-38.476-66.883-26.057-172.69 5.079-43.275 13.16-147.68 13.16-202.34" fill="none" stroke="#010101" stroke-miterlimit="10" stroke-width=".75"/></g><g transform="translate(510.11 676.7)"><path d="m0 0c-0.868 0.263-1.433 0.504-2.129 0.783v-2.648c0.249 0.118 1.261 0.521 2.129 0.783 0.929 0.28 1.771 0.473 2.317 0.541-0.546 0.068-1.388 0.261-2.317 0.541" fill="#010101"/></g><g transform="translate(390.22 665.17)"><path d="m0 0v-39.17" fill="#fff" stroke="#fff" stroke-miterlimit="10" stroke-width="6"/></g><g transform="translate(233 338.92)"><path d="m0 0c-6.024 0-10.925 4.9-10.925 10.925v75.6c0 6.024 4.901 10.925 10.925 10.925h70.2c6.024 0 10.925-4.901 10.925-10.925v-75.6c0-6.025-4.901-10.925-10.925-10.925z" fill="#fff"/></g><g transform="translate(303.19 436.49)"><path d="m0 0h-70.2c-6.093 0-11.05-4.957-11.05-11.05v-75.6c0-6.093 4.957-11.05 11.05-11.05h70.2c6.093 0 11.05 4.957 11.05 11.05v75.6c0 6.093-4.957 11.05-11.05 11.05m0-0.25c5.965 0 10.8-4.835 10.8-10.8v-75.6c0-5.965-4.835-10.8-10.8-10.8h-70.2c-5.965 0-10.8 4.835-10.8 10.8v75.6c0 5.965 4.835 10.8 10.8 10.8z"/></g><g transform="translate(303.19 340.39)"><path d="m0 0h-70.2c-5.219 0-9.45 4.231-9.45 9.45v75.6c0 5.219 4.231 9.45 9.45 9.45h70.2c5.219 0 9.45-4.231 9.45-9.45v-75.6c0-5.219-4.231-9.45-9.45-9.45" fill="#006f51"/></g><g transform="translate(278.22 356.63)"><path d="m0 0c-0.053 0-0.105-6e-3 -0.155-0.018l-7.776-2.007v6.075h-4.388v-6.075l-7.776 2.007c-0.05 0.012-0.102 0.018-0.155 0.018-0.373 0-0.675-0.302-0.675-0.675 0-0.199 0.086-0.378 0.224-0.502l10.576-9.623 10.576 9.623c0.138 0.124 0.224 0.303 0.224 0.502 0 0.373-0.302 0.675-0.675 0.675" fill="#fff"/></g><g transform="translate(245.66 382.09)"><path d="m0 0c0.947 1.147 2.381 1.878 3.985 1.878h0.711c3.371 0 6.104 2.733 6.104 6.105 0 0.901-0.196 1.758-0.547 2.528-0.987 2.152-0.867 4.751 0.547 6.863l-4.226 4.226c-0.893-0.738-2.038-1.181-3.287-1.181s-2.394 0.443-3.287 1.181c-0.893-0.738-2.038-1.181-3.287-1.181s-2.394 0.443-3.287 1.181l-4.226-4.226c1.414-2.112 1.534-4.711 0.547-6.863-0.351-0.77-0.547-1.627-0.547-2.528 0-3.372 2.733-6.105 6.104-6.105h0.711c1.604 0 3.038-0.731 3.985-1.878" fill="#fff"/></g><g transform="translate(249.39 388.33)"><path d="m0 0v8.754h-0.975v1.364h0.112c0.45 0 0.938 0.265 1.238 0.682h1.35v-10.8z"/></g><g transform="translate(243.3 396.63)"><path d="m0 0-3.082-4.055h3.082zm1.712-5.608v-2.691h-1.712v2.691h-5.366v1.023l5.366 7.086h1.712v-6.556h1.028v-1.553z"/></g><g transform="translate(271.48 395.14)"><path d="m0 0c-0.634-0.384-1.455-0.609-2.283-0.609-1.553 0-2.728 0.576-3.742 1.761l1.3 1.025c0.666-0.8 1.395-1.153 2.41-1.153 1.142 0 1.966 0.536 1.966 1.184 0 0.915-0.912 0.977-3.431 1.684-1.267 0.356-1.834 1.32-1.834 2.286 0 1.507 1.27 2.529 3.109 2.529 1.332 0 2.444-0.446 3.362-1.406l-1.206-1.089c-0.57 0.609-1.3 0.897-2.156 0.897-0.987 0-1.458-0.401-1.458-0.918 0-0.998 1.225-0.778 3.463-1.566 1.581-0.558 1.769-1.908 1.769-2.48 0-0.928-0.413-1.633-1.269-2.145" fill="#fff"/></g><g transform="translate(275.42 398.3)"><path d="m0 0c0-1.541 0.658-2.45 1.747-2.45 1.367 0 1.696 1.339 1.696 2.45 0 1.529-0.627 2.426-1.696 2.426-1.089 0-1.747-0.91-1.747-2.426m-1.317 0c0 2.299 1.165 3.712 3.064 3.712 1.793 0 2.988-1.479 2.988-3.688 0-2.247-1.156-3.763-2.988-3.763-2.127 0-3.064 1.932-3.064 3.739" fill="#fff"/></g><g transform="translate(284.72 395.88)"><path d="m0 0c0.755 0 1.627 0.532 1.627 1.656v4.353h1.294v-4.295c0-1.768-1.217-3.031-2.917-3.031-1.701 0-2.918 1.263-2.918 3.031v4.295h1.294v-4.346c0-1.084 0.809-1.663 1.62-1.663" fill="#fff"/></g><g transform="translate(292.2 394.69)"><path d="m0 0h-1.262v5.936h-2.069v1.264h5.4v-1.264h-2.069z" fill="#fff"/></g><g transform="translate(300.04 397.82)"><path d="m0 0h-3.247v-3.133h-1.294v7.2h1.294v-2.779h3.247v2.779h1.294v-7.2h-1.294z" fill="#fff"/></g><g transform="translate(292.56 425.33)"><path d="m0 0h-2.65v-2.182h2.65c0.709 0 1.215 0.437 1.215 1.108 0 0.604-0.506 1.074-1.215 1.074m1.215-7.687-1.316 3.592h-2.549v-3.592h-1.89v9.6h4.371c0.81 0 1.215-0.1 1.756-0.403 0.945-0.537 1.519-1.51 1.519-2.584 0-1.041-0.507-1.981-1.384-2.551l1.519-4.062z" fill="#fff"/></g><g transform="translate(302.08 422.31)"><path d="m0 0c-0.27 0.47-0.776 0.671-1.248 0.671-0.776 0-1.383-0.805-1.383-1.812s0.607-1.813 1.417-1.813c0.438 0 0.944 0.202 1.214 0.671zm0-4.666v0.336c-0.337-0.302-1.012-0.437-1.551-0.437-1.619 0-3.002 1.679-3.002 3.626s1.383 3.625 3.035 3.625c0.506 0 1.113-0.134 1.518-0.47v2.316l1.788 0.739v-9.735z" fill="#fff"/></g><g transform="translate(237.82 417.64)"><path d="m0 0h-2.024l-3.474 9.6h2.024l2.462-6.747 2.361 6.747h1.99z" fill="#fff"/></g><g transform="translate(270.84 420.46)"><path d="m0 0c-0.573 0.201-1.248 0.302-1.619 0.302-0.607 0-1.079-0.336-1.079-0.772s0.573-0.806 1.248-0.806c0.404 0 0.91 0.068 1.45 0.37zm0-2.82v0.235c-0.675-0.268-1.315-0.335-1.855-0.335-1.551 0-2.665 0.973-2.665 2.349 0 1.444 1.248 2.518 2.901 2.518 0.405 0 1.046-0.067 1.619-0.269-0.034 0.672-0.54 0.94-1.248 0.94-0.674 0-1.315-0.168-1.99-0.537l-0.708 1.511c1.045 0.537 1.754 0.738 2.698 0.738 1.923 0 3.069-0.94 3.069-2.887v-4.263z" fill="#fff"/></g><g transform="translate(245.83 423.08)"><path d="m0 0c-0.506 0-0.978-0.336-1.18-0.973h2.293c-0.27 0.704-0.573 0.973-1.113 0.973m-1.282-2.551c0.203-0.806 0.776-1.276 1.383-1.276 0.405 0 0.776 0.235 1.079 0.638l1.316-1.141c-0.708-0.839-1.45-1.209-2.395-1.209-1.787 0-3.339 1.578-3.339 3.626 0 2.014 1.518 3.625 3.238 3.625 1.147 0 2.192-0.705 2.698-1.813 0.27-0.637 0.405-1.309 0.405-2.182v-0.268z" fill="#fff"/></g><g transform="translate(276.5 417.64)"><path d="m0 0v8.996l1.92 0.738v-9.734z" fill="#fff"/></g><g transform="translate(256.59 418.3)"><path d="m0 0c-0.61-0.503-1.424-0.705-2.543-0.705-1.323 0-2.17 0.168-3.187 0.671l0.746 1.679c0.712-0.336 1.661-0.537 2.373-0.537 0.78 0 1.289 0.134 1.289 0.403 0 0.201-0.17 0.369-0.543 0.436-0.373 0.101-1.153 0.268-1.458 0.369-1.526 0.436-2.204 1.141-2.204 2.216 0 1.241 1.119 2.014 2.882 2.014 0.983 0 1.933-0.202 3.052-0.739l-0.746-1.678c-0.712 0.369-1.594 0.604-2.238 0.604-0.712 0-1.017-0.101-1.017-0.369 0-0.269 0.135-0.336 1.153-0.504 2.034-0.403 3.051-1.141 3.051-2.45 0-0.604-0.169-1.041-0.61-1.41" fill="#fff"/></g><g transform="translate(262.32 423)"><path d="m0 0v-2.618c0-0.638 0.135-1.007 0.844-0.94 0.506 0.033 0.607 0.168 0.945 0.503l-0.507-1.98c-0.641-0.269-0.573-0.369-1.248-0.369-1.316 0-1.924 0.772-1.924 2.148v3.256h-1.316v1.645h1.316v2.047l1.89 0.739v-2.753h1.789v-1.678z" fill="#fff"/></g><g transform="translate(286.99 367.02)"><path d="m0 0c0-0.621-0.504-1.125-1.125-1.125h-35.55c-0.621 0-1.125 0.504-1.125 1.125v8.55c0 0.621 0.504 1.125 1.125 1.125h35.55c0.621 0 1.125-0.504 1.125-1.125z" fill="#ffd046"/></g><g transform="translate(255.04 371.3)"><path d="m0 0c0-1.541 0.658-2.45 1.747-2.45 1.367 0 1.696 1.339 1.696 2.45 0 1.529-0.627 2.426-1.696 2.426-1.089 0-1.747-0.91-1.747-2.426m-1.317 0c0 2.299 1.165 3.712 3.064 3.712 1.793 0 2.988-1.479 2.988-3.688 0-2.247-1.156-3.763-2.988-3.763-2.127 0-3.064 1.932-3.064 3.739"/></g><g transform="translate(262.7 372.64)"><path d="m0 0v-4.952h-1.268v7.2h1.267l3.325-4.75v4.75h1.243v-7.2h-1.117z"/></g><g transform="translate(269.14 374.89)"><path d="m0 0h1.293v-6.088h4.107v-1.112h-5.4z"/></g><g transform="translate(279.44 367.69)"><path d="m0 0h-1.288v2.93l-3.031 4.27h1.591l2.096-2.93 2.071 2.93h1.591l-3.03-4.27z"/></g><g><path d="m231.2 409.09h73.8v1.35h-73.8z" fill="#fff"/><path d="m292.37 280.37h35.328v-2.677h-35.328z"/><path d="m292.37 226.84h35.328v-2.677h-35.328z"/></g><g transform="translate(423.27 206.24)"><path d="m0 0c-6.024 0-10.925 4.9-10.925 10.925v70.2c0 6.024 4.901 10.925 10.925 10.925h91.8c6.024 0 10.925-4.901 10.925-10.925v-70.2c0-6.025-4.901-10.925-10.925-10.925z" fill="#fff"/></g><g transform="translate(515.07 298.42)"><path d="m0 0h-91.8c-6.093 0-11.05-4.957-11.05-11.05v-70.2c0-6.093 4.957-11.05 11.05-11.05h91.8c6.093 0 11.05 4.957 11.05 11.05v70.2c0 6.093-4.957 11.05-11.05 11.05m0-0.25c5.965 0 10.8-4.835 10.8-10.8v-70.2c0-5.965-4.835-10.8-10.8-10.8h-91.8c-5.965 0-10.8 4.835-10.8 10.8v70.2c0 5.965 4.835 10.8 10.8 10.8z"/></g><g transform="translate(413.82 217.17)"><path d="m0 0v70.2c0 5.219 4.231 9.45 9.45 9.45h91.8c5.219 0 9.45-4.231 9.45-9.45v-70.2c0-5.219-4.231-9.45-9.45-9.45h-91.8c-5.219 0-9.45 4.231-9.45 9.45" fill="#006f51"/></g><g transform="translate(430.05 242.14)"><path d="m0 0c0 0.053-6e-3 0.105-0.018 0.155l-2.007 7.776h6.075v4.388h-6.075l2.007 7.776c0.012 0.05 0.018 0.102 0.018 0.155 0 0.373-0.302 0.675-0.675 0.675-0.199 0-0.378-0.086-0.502-0.224l-9.623-10.576 9.623-10.576c0.124-0.138 0.303-0.224 0.502-0.224 0.373 0 0.675 0.302 0.675 0.675" fill="#fff"/></g><g transform="translate(455.52 274.7)"><path d="m0 0c1.147-0.947 1.878-2.381 1.878-3.985v-0.711c0-3.371 2.733-6.104 6.105-6.104 0.901 0 1.758 0.196 2.528 0.547 2.152 0.987 4.751 0.867 6.863-0.547l4.226 4.226c-0.738 0.893-1.181 2.038-1.181 3.287s0.443 2.394 1.181 3.287c-0.738 0.893-1.181 2.038-1.181 3.287s0.443 2.394 1.181 3.287l-4.226 4.226c-2.112-1.414-4.711-1.534-6.863-0.547-0.77 0.351-1.627 0.547-2.528 0.547-3.372 0-6.105-2.733-6.105-6.104v-0.711c0-1.604-0.731-3.038-1.878-3.985" fill="#fff"/></g><g transform="translate(461.75 270.97)"><path d="m0 0h8.754v0.975h1.364v-0.112c0-0.45 0.265-0.938 0.682-1.238v-1.35h-10.8z"/></g><g transform="translate(470.05 277.06)"><path d="m0 0-4.055 3.082v-3.082zm-5.608-1.712h-2.691v1.712h2.691v5.366h1.023l7.086-5.366v-1.712h-6.556v-1.028h-1.553z"/></g><g transform="translate(468.57 248.88)"><path d="m0 0c-0.384 0.635-0.609 1.455-0.609 2.283 0 1.553 0.576 2.728 1.761 3.742l1.025-1.3c-0.8-0.666-1.153-1.395-1.153-2.41 0-1.142 0.536-1.966 1.184-1.966 0.915 0 0.977 0.912 1.684 3.431 0.356 1.267 1.32 1.834 2.286 1.834 1.507 0 2.529-1.27 2.529-3.109 0-1.332-0.446-2.444-1.406-3.362l-1.089 1.206c0.609 0.57 0.897 1.3 0.897 2.156 0 0.987-0.401 1.458-0.918 1.458-0.998 0-0.778-1.225-1.566-3.463-0.558-1.581-1.908-1.769-2.48-1.769-0.928 0-1.633 0.413-2.145 1.269" fill="#fff"/></g><g transform="translate(471.73 244.94)"><path d="m0 0c-1.541 0-2.45-0.658-2.45-1.747 0-1.367 1.339-1.696 2.45-1.696 1.529 0 2.426 0.627 2.426 1.696 0 1.089-0.91 1.747-2.426 1.747m0 1.317c2.299 0 3.712-1.165 3.712-3.064 0-1.793-1.479-2.988-3.688-2.988-2.247 0-3.763 1.156-3.763 2.988 0 2.127 1.932 3.064 3.739 3.064" fill="#fff"/></g><g transform="translate(469.31 235.64)"><path d="m0 0c0-0.755 0.532-1.627 1.656-1.627h4.353v-1.294h-4.295c-1.768 0-3.031 1.217-3.031 2.917 0 1.701 1.263 2.918 3.031 2.918h4.295v-1.294h-4.346c-1.084 0-1.663-0.809-1.663-1.62" fill="#fff"/></g><g transform="translate(468.12 228.16)"><path d="m0 0v1.262h5.936v2.069h1.264v-5.4h-1.264v2.069z" fill="#fff"/></g><g transform="translate(471.25 220.33)"><path d="m0 0v3.247h-3.133v1.294h7.2v-1.294h-2.779v-3.247h2.779v-1.294h-7.2v1.294z" fill="#fff"/></g><g transform="translate(514.95 227.8)"><path d="m0 0v2.65h-2.182v-2.65c0-0.709 0.437-1.215 1.108-1.215 0.604 0 1.074 0.506 1.074 1.215m-7.687-1.215 3.592 1.316v2.549h-3.592v1.89h9.6v-4.371c0-0.81-0.1-1.215-0.403-1.756-0.537-0.945-1.51-1.519-2.584-1.519-1.041 0-1.981 0.507-2.551 1.384l-4.062-1.519z" fill="#fff"/></g><g transform="translate(511.93 218.28)"><path d="m0 0c0.47 0.27 0.671 0.776 0.671 1.248 0 0.776-0.805 1.383-1.812 1.383s-1.813-0.607-1.813-1.417c0-0.438 0.202-0.944 0.671-1.214zm-4.666 0h0.336c-0.302 0.337-0.437 1.012-0.437 1.551 0 1.619 1.679 3.002 3.626 3.002s3.625-1.383 3.625-3.035c0-0.506-0.134-1.113-0.47-1.518h2.316l0.739-1.788h-9.735z" fill="#fff"/></g><g transform="translate(507.27 282.54)"><path d="m0 0v2.024l9.6 3.474v-2.024l-6.747-2.462 6.747-2.361v-1.99z" fill="#fff"/></g><g transform="translate(510.09 249.52)"><path d="m0 0c0.201 0.573 0.302 1.248 0.302 1.619 0 0.607-0.336 1.079-0.772 1.079s-0.806-0.573-0.806-1.248c0-0.404 0.068-0.91 0.37-1.45zm-2.82 0h0.235c-0.268 0.675-0.335 1.315-0.335 1.855 0 1.551 0.973 2.665 2.349 2.665 1.444 0 2.518-1.248 2.518-2.901 0-0.405-0.067-1.046-0.269-1.619 0.672 0.034 0.94 0.54 0.94 1.248 0 0.674-0.168 1.315-0.537 1.99l1.511 0.708c0.537-1.045 0.738-1.754 0.738-2.698 0-1.923-0.94-3.069-2.887-3.069h-4.263z" fill="#fff"/></g><g transform="translate(512.7 274.53)"><path d="m0 0c0 0.506-0.336 0.978-0.973 1.18v-2.293c0.704 0.27 0.973 0.573 0.973 1.113m-2.551 1.282c-0.806-0.203-1.276-0.776-1.276-1.383 0-0.405 0.235-0.776 0.638-1.079l-1.141-1.316c-0.839 0.708-1.209 1.45-1.209 2.395 0 1.787 1.578 3.339 3.626 3.339 2.014 0 3.625-1.518 3.625-3.238 0-1.147-0.705-2.192-1.813-2.698-0.637-0.27-1.309-0.405-2.182-0.405h-0.268z" fill="#fff"/></g><g transform="translate(507.27 243.86)"><path d="m0 0h8.996l0.738-1.92h-9.734z" fill="#fff"/></g><g transform="translate(507.92 263.77)"><path d="m0 0c-0.503 0.61-0.705 1.424-0.705 2.543 0 1.323 0.168 2.17 0.671 3.187l1.679-0.746c-0.336-0.712-0.537-1.661-0.537-2.373 0-0.78 0.134-1.289 0.402-1.289 0.202 0 0.37 0.17 0.437 0.543 0.101 0.373 0.268 1.153 0.369 1.458 0.436 1.526 1.141 2.204 2.215 2.204 1.242 0 2.015-1.119 2.015-2.882 0-0.983-0.202-1.933-0.739-3.052l-1.678 0.746c0.369 0.712 0.604 1.594 0.604 2.238 0 0.712-0.101 1.017-0.369 1.017-0.269 0-0.336-0.135-0.504-1.153-0.403-2.034-1.141-3.051-2.45-3.051-0.604 0-1.041 0.169-1.41 0.61" fill="#fff"/></g><g transform="translate(512.62 258.04)"><path d="m0 0h-2.618c-0.638 0-1.007-0.135-0.94-0.844 0.033-0.506 0.168-0.607 0.503-0.945l-1.98 0.507c-0.269 0.641-0.369 0.573-0.369 1.248 0 1.316 0.772 1.924 2.148 1.924h3.256v1.316h1.645v-1.316h2.047l0.739-1.89h-2.753v-1.789h-1.678z" fill="#fff"/></g><g transform="translate(440.44 233.37)"><path d="m0 0c-0.621 0-1.125 0.504-1.125 1.125v35.55c0 0.621 0.504 1.125 1.125 1.125h8.55c0.621 0 1.125-0.504 1.125-1.125v-35.55c0-0.621-0.504-1.125-1.125-1.125z" fill="#ffd046"/></g><g transform="translate(444.73 265.32)"><path d="m0 0c-1.541 0-2.45-0.658-2.45-1.747 0-1.367 1.339-1.696 2.45-1.696 1.529 0 2.426 0.627 2.426 1.696 0 1.089-0.91 1.747-2.426 1.747m0 1.317c2.299 0 3.712-1.165 3.712-3.064 0-1.793-1.479-2.988-3.688-2.988-2.247 0-3.763 1.156-3.763 2.988 0 2.127 1.932 3.064 3.739 3.064"/></g><g transform="translate(446.07 257.66)"><path d="m0 0h-4.952v1.268h7.2v-1.267l-4.75-3.325h4.75v-1.243h-7.2v1.117z"/></g><g transform="translate(448.32 251.22)"><path d="m0 0v-1.293h-6.088v-4.107h-1.112v5.4z"/></g><g transform="translate(441.12 240.93)"><path d="m0 0v1.288h2.93l4.27 3.031v-1.591l-2.93-2.096 2.93-2.071v-1.591l-4.27 3.03z"/></g><path d="m482.52 215.37h1.35v73.8h-1.35z" fill="#fff"/><g transform="translate(491.07 260.68)"><path d="m0 0 6.031 1.455-6.031 1.422v1.707l9 1.644v-1.675l-5.811-0.98 5.811-1.329v-1.612l-5.811-1.391 5.811-0.916v-1.644l-9 1.612z" fill="#fff"/></g><g transform="translate(498.26 256.06)"><path d="m0 0v-5.273h-1.289v3.955h-1.338v-2.155h-1.314v2.155h-1.97v-4.082h-1.289v5.4z" fill="#fff"/></g><g transform="translate(491.42 244.84)"><path d="m0 0c-0.307 0.508-0.487 1.164-0.487 1.826 0 1.243 0.461 2.183 1.409 2.994l0.819-1.04c-0.639-0.533-0.922-1.116-0.922-1.928 0-0.913 0.429-1.573 0.948-1.573 0.731 0 0.781 0.73 1.347 2.745 0.284 1.013 1.056 1.467 1.829 1.467 1.205 0 2.023-1.016 2.023-2.487 0-1.065-0.357-1.955-1.125-2.69l-0.871 0.965c0.487 0.456 0.717 1.04 0.717 1.725 0 0.79-0.32 1.167-0.734 1.167-0.799 0-0.622-0.98-1.253-2.771-0.447-1.265-1.527-1.415-1.984-1.415-0.742 0-1.307 0.33-1.716 1.015" fill="#fff"/></g><g transform="translate(491.06 239.7)"><path d="m0 0v1.262h5.936v2.069h1.264v-5.4h-1.264v2.069z" fill="#fff"/></g><g transform="translate(315.36 217.04)"><path d="m0 0c-3.046 0-5.525 2.479-5.525 5.525v59.4c0 3.047 2.479 5.525 5.525 5.525h64.8c3.047 0 5.525-2.478 5.525-5.525v-59.4c0-3.046-2.478-5.525-5.525-5.525z" fill="#fff"/></g><g transform="translate(380.16 287.62)"><path d="m0 0h-64.8c-3.115 0-5.65-2.535-5.65-5.65v-59.4c0-3.115 2.535-5.65 5.65-5.65h64.8c3.115 0 5.65 2.535 5.65 5.65v59.4c0 3.115-2.535 5.65-5.65 5.65m0-0.25c2.982 0 5.4-2.418 5.4-5.4v-59.4c0-2.982-2.418-5.4-5.4-5.4h-64.8c-2.982 0-5.4 2.418-5.4 5.4v59.4c0 2.982 2.418 5.4 5.4 5.4z"/></g><g transform="translate(311.09 222.34)"><path d="m0 0v59.85c0 2.237 1.813 4.05 4.05 4.05h65.25c2.237 0 4.05-1.813 4.05-4.05v-59.85c0-2.237-1.813-4.05-4.05-4.05h-65.25c-2.237 0-4.05 1.813-4.05 4.05" fill="#006f51"/></g><g transform="translate(376.93 233.92)"><path d="m0 0v1.987h-1.636v-1.987c0-0.532 0.327-0.911 0.83-0.911 0.454 0 0.806 0.379 0.806 0.911m-5.765-0.911 2.694 0.987v1.911h-2.694v1.418h7.2v-3.278c0-0.608-0.076-0.912-0.302-1.317-0.403-0.709-1.133-1.139-1.939-1.139-0.78 0-1.485 0.379-1.913 1.038l-3.046-1.14z" fill="#fff"/></g><g transform="translate(374.66 226.78)"><path d="m0 0c0.352 0.202 0.503 0.582 0.503 0.936 0 0.582-0.604 1.037-1.359 1.037s-1.359-0.455-1.359-1.062c0-0.329 0.151-0.709 0.503-0.911zm-3.499 0h0.251c-0.226 0.253-0.327 0.759-0.327 1.164 0 1.214 1.259 2.251 2.719 2.251s2.719-1.037 2.719-2.277c0-0.379-0.101-0.834-0.353-1.138h1.738l0.553-1.341h-7.3z" fill="#fff"/></g><g transform="translate(371.16 274.98)"><path d="m0 0v1.518l7.2 2.605v-1.518l-5.06-1.846 5.06-1.771v-1.492z" fill="#fff"/></g><g transform="translate(373.28 250.21)"><path d="m0 0c0.151 0.43 0.227 0.936 0.227 1.214 0 0.456-0.252 0.81-0.579 0.81-0.328 0-0.605-0.43-0.605-0.936 0-0.304 0.051-0.683 0.277-1.088zm-2.115 0h0.177c-0.202 0.506-0.252 0.987-0.252 1.391 0 1.164 0.73 1.999 1.762 1.999 1.083 0 1.888-0.936 1.888-2.176 0-0.303-0.05-0.784-0.201-1.214 0.503 0.025 0.705 0.405 0.705 0.936 0 0.506-0.126 0.986-0.403 1.492l1.133 0.532c0.403-0.785 0.554-1.316 0.554-2.024 0-1.442-0.705-2.302-2.165-2.302h-3.198z" fill="#fff"/></g><g transform="translate(375.24 268.96)"><path d="m0 0c0 0.379-0.252 0.734-0.73 0.885v-1.72c0.529 0.203 0.73 0.43 0.73 0.835m-1.913 0.961c-0.604-0.152-0.957-0.582-0.957-1.037 0-0.303 0.176-0.582 0.478-0.809l-0.856-0.987c-0.629 0.531-0.906 1.088-0.906 1.796 0 1.341 1.183 2.504 2.719 2.504 1.511 0 2.719-1.138 2.719-2.428 0-0.86-0.529-1.644-1.36-2.024-0.478-0.202-0.981-0.303-1.636-0.303h-0.201z" fill="#fff"/></g><g transform="translate(371.16 245.96)"><path d="m0 0h6.747l0.554-1.44h-7.301z" fill="#fff"/></g><g transform="translate(371.65 260.9)"><path d="m0 0c-0.378 0.458-0.529 1.068-0.529 1.907 0 0.992 0.126 1.628 0.504 2.391l1.259-0.56c-0.252-0.534-0.403-1.246-0.403-1.78 0-0.585 0.1-0.966 0.302-0.966 0.151 0 0.277 0.127 0.327 0.407 0.076 0.279 0.202 0.864 0.277 1.093 0.327 1.145 0.856 1.653 1.662 1.653 0.931 0 1.51-0.839 1.51-2.161 0-0.738-0.151-1.45-0.554-2.289l-1.258 0.559c0.276 0.534 0.453 1.196 0.453 1.679 0 0.534-0.076 0.763-0.277 0.763-0.202 0-0.252-0.102-0.378-0.865-0.302-1.526-0.856-2.289-1.838-2.289-0.453 0-0.78 0.127-1.057 0.458" fill="#fff"/></g><g transform="translate(375.18 256.6)"><path d="m0 0h-1.964c-0.478 0-0.755-0.101-0.705-0.633 0.026-0.379 0.126-0.455 0.378-0.708l-1.485 0.379c-0.202 0.481-0.277 0.431-0.277 0.937 0 0.987 0.579 1.442 1.611 1.442h2.442v0.987h1.234v-0.987h1.535l0.554-1.417h-2.064v-1.341h-1.259z" fill="#fff"/></g><path d="m352.04 226.9h1.125v50.735h-1.125z" fill="#fff"/><g transform="translate(358.56 259)"><path d="m0 0 4.825 1.164-4.825 1.137v1.366l7.2 1.315v-1.34l-4.649-0.784 4.649-1.062v-1.29l-4.649-1.113 4.649-0.733v-1.315l-7.2 1.29z" fill="#fff"/></g><g transform="translate(364.32 255.3)"><path d="m0 0v-4.218h-1.031v3.163h-1.071v-1.723h-1.051v1.723h-1.576v-3.265h-1.031v4.32z" fill="#fff"/></g><g transform="translate(358.85 246.32)"><path d="m0 0c-0.246 0.406-0.39 0.931-0.39 1.461 0 0.994 0.369 1.746 1.127 2.395l0.656-0.832c-0.512-0.426-0.738-0.893-0.738-1.542 0-0.731 0.344-1.259 0.758-1.259 0.586 0 0.625 0.584 1.078 2.196 0.228 0.811 0.845 1.174 1.463 1.174 0.964 0 1.619-0.813 1.619-1.99 0-0.852-0.286-1.564-0.9-2.152l-0.697 0.772c0.389 0.365 0.574 0.833 0.574 1.38 0 0.632-0.257 0.934-0.588 0.934-0.639 0-0.497-0.785-1.002-2.217-0.357-1.012-1.221-1.132-1.587-1.132-0.594 0-1.045 0.264-1.373 0.812" fill="#fff"/></g><g transform="translate(358.56 242.21)"><path d="m0 0v1.009h4.749v1.656h1.011v-4.32h-1.011v1.655z" fill="#fff"/></g><g transform="translate(330.44 269.53)"><path d="m0 0c0.86-0.711 1.409-1.786 1.409-2.989v-0.533c0-2.528 2.049-4.578 4.578-4.578 0.676 0 1.318 0.147 1.896 0.41 1.614 0.741 3.564 0.65 5.147-0.41l3.17 3.17c-0.553 0.669-0.886 1.528-0.886 2.465s0.333 1.795 0.886 2.465c-0.553 0.67-0.886 1.529-0.886 2.465 0 0.937 0.333 1.796 0.886 2.465l-3.17 3.17c-1.583-1.06-3.533-1.151-5.147-0.41-0.578 0.263-1.22 0.41-1.896 0.41-2.529 0-4.578-2.05-4.578-4.578v-0.533c0-1.203-0.549-2.278-1.409-2.989" fill="#fff"/></g><g transform="translate(335.11 266.74)"><path d="m0 0h6.565v0.731h1.023v-0.084c0-0.338 0.199-0.703 0.512-0.928v-1.013h-8.1z"/></g><g transform="translate(341.34 271.31)"><path d="m0 0-3.041 2.312v-2.312zm-4.206-1.284h-2.018v1.284h2.018v4.024h0.767l5.315-4.024v-1.284h-4.917v-0.771h-1.165z"/></g><g transform="translate(339.67 249.41)"><path d="m0 0c-0.307 0.508-0.487 1.164-0.487 1.826 0 1.243 0.461 2.183 1.409 2.994l0.819-1.04c-0.639-0.533-0.922-1.116-0.922-1.928 0-0.913 0.429-1.573 0.948-1.573 0.731 0 0.781 0.73 1.347 2.745 0.284 1.013 1.056 1.467 1.829 1.467 1.205 0 2.023-1.016 2.023-2.487 0-1.065-0.357-1.955-1.125-2.69l-0.871 0.965c0.487 0.456 0.717 1.04 0.717 1.725 0 0.79-0.32 1.167-0.734 1.167-0.799 0-0.622-0.98-1.253-2.771-0.447-1.265-1.527-1.415-1.984-1.415-0.742 0-1.306 0.33-1.716 1.015" fill="#fff"/></g><g transform="translate(342.02 246.33)"><path d="m0 0c-1.156 0-1.837-0.493-1.837-1.31 0-1.025 1.004-1.273 1.837-1.273 1.147 0 1.819 0.471 1.819 1.273 0 0.817-0.682 1.31-1.819 1.31m0 0.988c1.724 0 2.784-0.874 2.784-2.298 0-1.345-1.109-2.241-2.766-2.241-1.685 0-2.822 0.867-2.822 2.241 0 1.595 1.449 2.298 2.804 2.298" fill="#fff"/></g><g transform="translate(340.2 239.35)"><path d="m0 0c0-0.566 0.399-1.22 1.242-1.22h3.265v-0.971h-3.221c-1.326 0-2.274 0.913-2.274 2.188s0.948 2.189 2.274 2.189h3.221v-0.971h-3.26c-0.813 0-1.247-0.607-1.247-1.215" fill="#fff"/></g><g transform="translate(339.31 233.75)"><path d="m0 0v0.946h4.452v1.552h0.948v-4.05h-0.948v1.552z" fill="#fff"/></g><g transform="translate(341.66 227.87)"><path d="m0 0v2.435h-2.35v0.971h5.4v-0.971h-2.084v-2.435h2.084v-0.971h-5.4v0.971z" fill="#fff"/></g><g transform="translate(324.94 255.17)"><path d="m0 0-4.498 6.75c-0.223 0.334-0.713 0.334-0.936 0l-4.498-6.75c-0.287-0.43 0.11-0.986 0.61-0.856l2.95 0.769-0.45-12.713h3.712l-0.45 12.713 2.95-0.769c0.5-0.13 0.897 0.426 0.61 0.856" fill="#fff"/></g><g transform="translate(474.57 60.364)"><path d="m0 0c-4.535 0-8.225 3.689-8.225 8.225v108c0 4.535 3.69 8.225 8.225 8.225h43.2c4.535 0 8.225-3.69 8.225-8.225v-108c0-4.536-3.69-8.225-8.225-8.225z" fill="#fff"/></g><g transform="translate(517.77 184.94)"><path d="m0 0h-43.2c-4.604 0-8.35-3.746-8.35-8.35v-108c0-4.604 3.746-8.35 8.35-8.35h43.2c4.604 0 8.35 3.746 8.35 8.35v108c0 4.604-3.746 8.35-8.35 8.35m0-0.25c4.474 0 8.1-3.626 8.1-8.1v-108c0-4.474-3.626-8.1-8.1-8.1h-43.2c-4.474 0-8.1 3.626-8.1 8.1v108c0 4.474 3.626 8.1 8.1 8.1z"/></g><g transform="translate(467.82 68.589)"><path d="m0 0v108c0 3.728 3.022 6.75 6.75 6.75h43.2c3.728 0 6.75-3.022 6.75-6.75v-108c0-3.728-3.022-6.75-6.75-6.75h-43.2c-3.728 0-6.75 3.022-6.75 6.75" fill="#006f51"/></g><g transform="translate(495.27 145.08)"><path d="m0 0c1.147-0.947 1.878-2.381 1.878-3.985v-0.711c0-3.371 2.733-6.104 6.105-6.104 0.901 0 1.758 0.196 2.528 0.547 2.152 0.987 4.751 0.867 6.863-0.547l4.226 4.226c-0.738 0.893-1.181 2.038-1.181 3.287s0.443 2.394 1.181 3.287c-0.738 0.893-1.181 2.038-1.181 3.287s0.443 2.394 1.181 3.287l-4.226 4.226c-2.112-1.414-4.711-1.534-6.863-0.547-0.77 0.351-1.627 0.547-2.528 0.547-3.372 0-6.105-2.733-6.105-6.104v-0.711c0-1.604-0.731-3.038-1.878-3.985" fill="#fff"/></g><g transform="translate(501.5 141.35)"><path d="m0 0h8.754v0.975h1.364v-0.113c0-0.45 0.265-0.937 0.682-1.237v-1.35h-10.8z"/></g><g transform="translate(509.8 147.44)"><path d="m0 0-4.055 3.082v-3.082zm-5.608-1.712h-2.691v1.712h2.691v5.366h1.023l7.086-5.366v-1.712h-6.556v-1.028h-1.553z"/></g><g transform="translate(514.06 123.69)"><path d="m0 0h-6.19v1.585h9v-1.584l-5.937-4.157h5.937v-1.553h-9v1.396z" fill="#fff"/></g><g transform="translate(511.48 114.78)"><path d="m0 0c-1.541 0-2.45-0.658-2.45-1.747 0-1.367 1.339-1.696 2.45-1.696 1.529 0 2.426 0.627 2.426 1.696 0 1.089-0.91 1.747-2.426 1.747m0 1.317c2.299 0 3.712-1.165 3.712-3.064 0-1.793-1.479-2.988-3.688-2.988-2.247 0-3.763 1.156-3.763 2.988 0 2.127 1.932 3.064 3.739 3.064" fill="#fff"/></g><g transform="translate(513.78 107.1)"><path d="m0 0h-1.793v-2.074c0-0.63 0.363-1.035 0.884-1.035 0.556 0 0.909 0.405 0.909 1.036zm-2.83-3.234-3.081-1.313v1.439l2.829 1.162v1.946h-2.829v1.289h7.2v-3.404c0-1.488-1.176-2.281-2.198-2.281-0.808 0-1.517 0.43-1.921 1.162" fill="#fff"/></g><g transform="translate(507.87 98.429)"><path d="m0 0v1.262h5.936v2.069h1.264v-5.4h-1.264v2.069z" fill="#fff"/></g><g transform="translate(511 90.594)"><path d="m0 0v3.247h-3.133v1.294h7.2v-1.294h-2.779v-3.247h2.779v-1.294h-7.2v1.294z" fill="#fff"/></g><g transform="translate(480.42 77.14)"><path d="m0 0h5.85v4.5h-5.85l1.774 7.435c0.218 0.914-0.934 1.511-1.554 0.804l-9.22-10.489 9.22-10.489c0.62-0.707 1.772-0.11 1.554 0.804z" fill="#fff"/></g><g transform="translate(480.42 163.54)"><path d="m0 0h5.85v4.5h-5.85l1.774 7.435c0.218 0.914-0.934 1.511-1.554 0.804l-9.22-10.489 9.22-10.489c0.62-0.707 1.772-0.11 1.554 0.804z" fill="#fff"/></g><g transform="translate(534.53 681.53)"><path d="m0 0c1.548-1.497 3.051-2.993 4.599-4.492-1.268 0.269-2.538 0.538-3.805 0.808 0.016-0.357 0.033-0.714 0.046-1.072-0.01-3.184-1.563-4.988-4.397-5.653-1.597-0.112-3.197-0.224-4.796-0.336-0.038 0.53-0.075 1.06-0.112 1.59 1.068 0.075 2.137 0.15 3.207 0.225 2.212 0.509 3.509 1.73 3.468 3.99-0.025 0.357-0.05 0.713-0.075 1.07-1.23-0.269-2.46-0.541-3.691-0.809 1.837 1.56 3.719 3.117 5.556 4.679" fill="#fff" fill-rule="evenodd"/></g><g transform="translate(354.86 349.72)"><path d="m0 0c-4.535 0-8.225 3.689-8.225 8.225v70.2c0 4.535 3.69 8.225 8.225 8.225h43.2c4.535 0 8.225-3.69 8.225-8.225v-70.2c0-4.536-3.69-8.225-8.225-8.225z" fill="#fff"/></g><g transform="translate(398.06 436.49)"><path d="m0 0h-43.2c-4.604 0-8.35-3.746-8.35-8.35v-70.2c0-4.604 3.746-8.35 8.35-8.35h43.2c4.604 0 8.35 3.746 8.35 8.35v70.2c0 4.604-3.746 8.35-8.35 8.35m0-0.25c4.455 0 8.1-3.645 8.1-8.1v-70.2c0-4.455-3.645-8.1-8.1-8.1h-43.2c-4.455 0-8.1 3.645-8.1 8.1v70.2c0 4.455 3.645 8.1 8.1 8.1z"/></g><g transform="translate(354.86 351.19)"><path d="m0 0c-0.906 0-1.787 0.179-2.617 0.532-0.804 0.341-1.527 0.83-2.149 1.452s-1.111 1.345-1.452 2.149c-0.353 0.83-0.532 1.711-0.532 2.617v70.2c0 0.906 0.179 1.787 0.532 2.617 0.341 0.804 0.83 1.527 1.452 2.149s1.345 1.111 2.149 1.452c0.83 0.353 1.711 0.532 2.617 0.532h43.2c0.906 0 1.787-0.179 2.617-0.532 0.804-0.341 1.527-0.83 2.149-1.452s1.111-1.345 1.452-2.149c0.353-0.83 0.532-1.711 0.532-2.617v-70.2c0-0.906-0.179-1.787-0.532-2.617-0.341-0.804-0.83-1.527-1.452-2.149s-1.345-1.111-2.149-1.452c-0.83-0.353-1.711-0.532-2.617-0.532z" fill="#006f51"/></g><g transform="translate(376.46 389.89)"><path d="m0 0c0.947 1.147 2.381 1.878 3.985 1.878h0.711c3.371 0 6.104 2.733 6.104 6.105 0 0.901-0.196 1.758-0.547 2.528-0.987 2.152-0.867 4.751 0.547 6.863l-4.226 4.226c-0.893-0.738-2.038-1.181-3.287-1.181s-2.394 0.443-3.287 1.181c-0.893-0.738-2.038-1.181-3.287-1.181s-2.394 0.443-3.287 1.181l-4.226-4.226c1.414-2.112 1.534-4.711 0.547-6.863-0.351-0.77-0.547-1.627-0.547-2.528 0-3.372 2.733-6.105 6.104-6.105h0.711c1.604 0 3.038-0.731 3.985-1.878" fill="#fff"/></g><g transform="translate(380.2 396.13)"><path d="m0 0v8.754h-0.975v1.364h0.113c0.449 0 0.937 0.265 1.237 0.682h1.35v-10.8z"/></g><g transform="translate(374.1 404.43)"><path d="m0 0-3.082-4.055h3.082zm1.712-5.608v-2.691h-1.712v2.691h-5.366v1.023l5.366 7.086h1.712v-6.556h1.028v-1.553z"/></g><g transform="translate(393.16 418.24)"><path d="m0 0v3.133h-3.248v-3.133h-1.294v7.2h1.294v-2.779h3.248v2.779h1.294v-7.2z" fill="#fff"/></g><g transform="translate(364.37 418.24)"><path d="m0 0-4.313 6.189v-6.189h-1.586v9h1.586l4.154-5.937v5.937h1.554v-9z" fill="#fff"/></g><g transform="translate(370.72 424.28)"><path d="m0 0c-1.089 0-1.747-0.909-1.747-2.425 0-1.541 0.658-2.451 1.747-2.451 1.367 0 1.696 1.339 1.696 2.451 0 1.516-0.607 2.425-1.696 2.425m0-6.164c-2.127 0-3.064 1.92-3.064 3.739 0 2.299 1.165 3.713 3.064 3.713 1.772 0 2.988-1.49 2.988-3.688 0-2.248-1.165-3.764-2.988-3.764" fill="#fff"/></g><g transform="translate(378.73 424.15)"><path d="m0 0h-2.073v-1.794h2.073c0.631 0 1.035 0.354 1.035 0.885 0 0.555-0.404 0.909-1.035 0.909m1.035-5.912-1.161 2.83h-1.947v-2.83h-1.288v7.2h3.336c0.53 0 0.858-0.075 1.237-0.303 0.682-0.379 1.111-1.086 1.111-1.894 0-0.809-0.429-1.516-1.162-1.92l1.313-3.083z" fill="#fff"/></g><g transform="translate(385.33 424.18)"><path d="m0 0v-5.937h-1.262v5.937h-2.069v1.263h5.4v-1.263z" fill="#fff"/></g><g transform="translate(386.59 364.24)"><path d="m0 0c-0.053 0-0.105-6e-3 -0.155-0.018l-7.776-2.007v6.075h-4.388v-6.075l-7.776 2.007c-0.05 0.012-0.102 0.018-0.155 0.018-0.373 0-0.675-0.302-0.675-0.675 0-0.199 0.086-0.378 0.224-0.502l10.576-9.623 10.576 9.623c0.138 0.124 0.224 0.303 0.224 0.502 0 0.373-0.302 0.675-0.675 0.675" fill="#fff"/></g><g transform="translate(395.36 374.82)"><path d="m0 0c0-0.621-0.504-1.125-1.125-1.125h-35.55c-0.621 0-1.125 0.504-1.125 1.125v8.55c0 0.621 0.504 1.125 1.125 1.125h35.55c0.621 0 1.125-0.504 1.125-1.125z" fill="#ffd046"/></g><g transform="translate(363.41 379.1)"><path d="m0 0c0-1.541 0.658-2.45 1.747-2.45 1.367 0 1.696 1.339 1.696 2.45 0 1.529-0.627 2.426-1.696 2.426-1.089 0-1.747-0.91-1.747-2.426m-1.317 0c0 2.299 1.165 3.712 3.064 3.712 1.793 0 2.988-1.479 2.988-3.688 0-2.247-1.156-3.763-2.988-3.763-2.127 0-3.064 1.932-3.064 3.739"/></g><g transform="translate(371.07 380.44)"><path d="m0 0v-4.952h-1.268v7.2h1.267l3.325-4.75v4.75h1.243v-7.2h-1.117z"/></g><g transform="translate(377.51 382.69)"><path d="m0 0h1.293v-6.088h4.107v-1.112h-5.4z"/></g><g transform="translate(387.8 375.49)"><path d="m0 0h-1.288v2.93l-3.031 4.27h1.591l2.096-2.93 2.071 2.93h1.591l-3.03-4.27z"/></g><g transform="translate(188.98 520.99)"><path d="m0 0v-21.173h28.886v32.921h-51.346v-11.748z" fill="none" stroke="#000" stroke-width=".75"/></g><g transform="translate(72.092 662.35)"><path d="m0 0h78.92l-21.215 3.111-3.677-0.282 1.98-2.263" stroke="#000"/></g><g transform="translate(119.64 659.25)"><path d="m0 0v-2.665h-22.176v3.09l17.914 10.348v0.056h-17.914v2.665h22.176v-3.259l-17.913-10.177v-0.058z"/></g></g></g></svg>
