<?xml version="1.0" encoding="UTF-8"?>
<svg width="616" height="873.07" version="1.1" viewBox="0 0 616 873.07" xml:space="preserve" xmlns="http://www.w3.org/2000/svg"><defs><clipPath id="b"><path d="m51.054 63.587h462.89v674.41h-462.89z"/></clipPath><clipPath id="a"><path d="m51.054 63.587h462.89v674.41h-462.89z"/></clipPath></defs><g transform="matrix(1.3333 0 0 -1.3333 -69.259 961.43)"><g clip-path="url(#b)"><g transform="translate(62.295 642.71)"><path d="m0 0c-3.345 0.684-6.224 2.629-8.105 5.477-1.882 2.849-2.542 6.259-1.859 9.604 0.405 1.985 1.244 3.791 2.493 5.369l0.054 0.067 0.081-0.025c1.19-0.365 2.421-0.55 3.66-0.55 1.237 0 2.47 0.185 3.664 0.55 1.268-0.365 2.5-0.55 3.737-0.55 1.24 0 2.471 0.185 3.66 0.55l0.082 0.025 0.053-0.067c1.25-1.578 2.088-3.385 2.494-5.369 0.683-3.345 0.023-6.755-1.859-9.604-1.882-2.848-4.76-4.793-8.105-5.477l-0.025-5e-3z" fill="#fff"/></g><g transform="translate(69.807 663.37)"><path d="m0 0-0.163-0.05c-1.177-0.361-2.396-0.544-3.623-0.544-1.225 0-2.445 0.183-3.628 0.544l-0.073 0.022-0.073-0.022c-1.183-0.361-2.403-0.544-3.628-0.544-1.227 0-2.446 0.183-3.623 0.544l-0.163 0.05-0.106-0.134c-1.262-1.593-2.109-3.417-2.518-5.421-0.69-3.378-0.024-6.822 1.876-9.698 1.901-2.877 4.807-4.841 8.185-5.531l0.05-0.01 0.05 0.01c3.377 0.69 6.284 2.654 8.184 5.531 1.901 2.876 2.567 6.32 1.877 9.698-0.409 2.004-1.257 3.828-2.518 5.421zm-0.09-0.289c1.192-1.506 2.058-3.306 2.469-5.316 1.4-6.849-3.018-13.535-9.866-14.934-6.848 1.399-11.266 8.085-9.866 14.934 0.41 2.01 1.277 3.81 2.469 5.316 1.185-0.364 2.429-0.555 3.696-0.555 1.224 0 2.469 0.179 3.701 0.555 1.232-0.376 2.476-0.555 3.701-0.555 1.266 0 2.511 0.191 3.696 0.555"/></g><g transform="translate(71.47 658.87)"><path d="m0 0c-0.167 0.538-0.369 1.064-0.607 1.571-0.357 0.762-0.795 1.488-1.303 2.162-1.154-0.326-2.343-0.491-3.539-0.491-1.249 0-2.493 0.18-3.701 0.536-1.208-0.356-2.452-0.536-3.701-0.536-1.196 0-2.385 0.165-3.539 0.491-0.507-0.674-0.945-1.4-1.303-2.162-0.237-0.507-0.44-1.033-0.607-1.571z" fill="#c0311a"/></g><g transform="translate(71.592 658.44)"><path d="m0 0h-18.545c-0.068-0.251-0.128-0.504-0.18-0.76-0.331-1.618-0.335-3.253-0.012-4.858 0.312-1.551 0.915-3.009 1.791-4.335s1.981-2.452 3.285-3.348c1.326-0.911 2.802-1.542 4.389-1.877 1.586 0.335 3.062 0.966 4.389 1.877 1.304 0.896 2.409 2.022 3.285 3.348s1.478 2.784 1.79 4.335c0.323 1.605 0.319 3.24-0.011 4.858-0.053 0.256-0.113 0.509-0.181 0.76" fill="#005a9c"/></g><g transform="translate(65.767 660.87)"><path d="m0 0-0.158-0.647h0.324zm0.404-1.579-0.159 0.616h-0.482l-0.151-0.616h-0.324l0.562 2.25h0.316l0.562-2.25z" fill="#fff"/></g><g transform="translate(59.248 659.29)"><path d="m0 0v2.25h1.061v-0.316h-0.736v-0.568h0.467v-0.308h-0.467v-0.742h0.823v-0.316z" fill="#fff"/></g><path d="m55.399 661.54h0.315v-2.25h-0.315z" fill="#fff"/><g transform="translate(57.225 659.29)"><path d="m0 0-0.693 1.508v-1.508h-0.323v2.25h0.323l0.614-1.35v1.35h0.323v-2.25z" fill="#fff"/></g><g transform="translate(61.432 661.22)"><path d="m0 0h-0.331v-0.568h0.331c0.189 0 0.292 0.102 0.292 0.284 0 0.173-0.119 0.284-0.292 0.284m0.276-1.934-0.3 1.058h-0.307v-1.058h-0.323v2.25h0.67c0.354 0 0.591-0.237 0.591-0.6 0-0.269-0.111-0.466-0.323-0.545l0.323-1.105z" fill="#fff"/></g><g transform="translate(62.949 660.33)"><path d="m0 0c-0.097 0.063-0.192 0.126-0.252 0.169-0.182 0.128-0.278 0.3-0.278 0.497 0 0.324 0.254 0.584 0.579 0.584 0.317 0 0.563-0.244 0.571-0.584h-0.309c-8e-3 0.158-0.119 0.261-0.262 0.261-0.151 0-0.27-0.111-0.27-0.261 0-0.11 0.048-0.174 0.215-0.268 0.436-0.253 0.626-0.498 0.626-0.821 0-0.363-0.278-0.655-0.626-0.655-0.397 0-0.635 0.331-0.635 0.702h0.317c0-0.189 0.096-0.387 0.318-0.387 0.174 0 0.317 0.158 0.317 0.34 0 0.141-0.059 0.259-0.311 0.423" fill="#fff"/></g><g transform="translate(58.521 661.24)"><path d="m0 0v-1.95h-0.325v1.95h-0.411v0.3h1.148v-0.3z" fill="#fff"/></g><g transform="translate(68.093 659.29)"><path d="m0 0v2.25h1.061v-0.316h-0.736v-0.568h0.467v-0.308h-0.467v-0.742h0.823v-0.316z" fill="#fff"/></g><g transform="translate(67.367 661.24)"><path d="m0 0v-1.95h-0.325v1.95h-0.411v0.3h1.148v-0.3z" fill="#fff"/></g><g transform="translate(64.508 661.24)"><path d="m0 0v-1.95h-0.325v1.95h-0.411v0.3h1.148v-0.3z" fill="#fff"/></g><g transform="translate(66.724 654.66)"><path d="m0 0-2.408-3.168h2.408zm1.338-4.382v-2.102h-1.338v2.102h-4.192v0.8l4.192 5.536h1.338v-5.122h0.803v-1.214z" fill="#fff"/></g><g transform="translate(58.648 655.4)"><path d="m0 0c-0.651 0-1.184-0.444-1.184-1.007 0-0.503 0.533-0.917 1.184-0.917s1.184 0.414 1.184 0.917c0 0.563-0.533 1.007-1.184 1.007m0-3.286c-0.829 0-1.51-0.563-1.51-1.273 0-0.799 0.681-1.451 1.51-1.451 0.859 0 1.54 0.652 1.54 1.451 0 0.71-0.711 1.273-1.54 1.273m0-4.086c-1.54 0-2.872 1.303-2.872 2.842 0 0.8 0.355 1.451 0.977 1.954-0.414 0.444-0.622 0.948-0.622 1.54 0 1.303 1.155 2.398 2.517 2.398s2.546-1.095 2.546-2.398c0-0.592-0.237-1.096-0.651-1.54 0.651-0.503 0.977-1.184 0.977-1.954 0-1.539-1.332-2.842-2.872-2.842" fill="#fff"/></g><g transform="translate(53.037 663.46)"><path d="m0 0c-0.533 0-0.966 0.434-0.966 0.966v8.443c0 0.532 0.433 0.966 0.966 0.966h18.567c0.533 0 0.967-0.434 0.967-0.966v-8.443c0-0.532-0.434-0.966-0.967-0.966z" fill="#fff"/></g><g transform="translate(71.604 673.96)"><path d="m0 0h-18.567c-0.602 0-1.092-0.49-1.092-1.091v-8.443c0-0.601 0.49-1.091 1.092-1.091h18.567c0.602 0 1.091 0.49 1.091 1.091v8.443c0 0.601-0.489 1.091-1.091 1.091m0-0.25c0.465 0 0.841-0.377 0.841-0.841v-8.443c0-0.464-0.376-0.841-0.841-0.841h-18.567c-0.465 0-0.842 0.377-0.842 0.841v8.443c0 0.464 0.377 0.841 0.842 0.841z"/></g><g transform="translate(71.6 663.87)"><path d="m0 0h-18.559c-0.311 0-0.564 0.253-0.564 0.564v8.434c0 0.312 0.253 0.565 0.564 0.565h18.559c0.312 0 0.564-0.253 0.564-0.565v-8.434c0-0.311-0.252-0.564-0.564-0.564" fill="#005a9c"/></g><g transform="translate(60.745 665.84)"><path d="m0 0v4.5h2.122v-0.631h-1.473v-1.137h0.934v-0.616h-0.934v-1.484h1.647v-0.632z" fill="#fff"/></g><g transform="translate(64.862 667.92)"><path d="m0 0c-0.195 0.126-0.384 0.253-0.504 0.338-0.363 0.255-0.555 0.6-0.555 0.994 0 0.648 0.507 1.169 1.157 1.169 0.634 0 1.126-0.49 1.142-1.169h-0.619c-0.015 0.316-0.237 0.521-0.523 0.521-0.301 0-0.539-0.221-0.539-0.521 0-0.221 0.095-0.347 0.428-0.536 0.872-0.506 1.253-0.995 1.253-1.643 0-0.726-0.555-1.31-1.253-1.31-0.793 0-1.268 0.663-1.268 1.405h0.634c0-0.379 0.19-0.774 0.634-0.774 0.349 0 0.634 0.316 0.634 0.679 0 0.282-0.116 0.52-0.621 0.847" fill="#fff"/></g><g transform="translate(67.98 669.74)"><path d="m0 0v-3.9h-0.649v3.9h-0.824v0.6h2.297v-0.6z" fill="#fff"/></g><g transform="translate(59.204 665.84)"><path d="m0 0h-0.693l-0.535 2.941-0.535-2.941h-0.713l-0.891 5.625h0.792l0.476-3 0.554 3h0.634l0.535-3 0.495 3h0.792z" fill="#fff"/></g><g transform="translate(287.97 510.06)"><path d="m0 0c-1.93 0-3.5 1.57-3.5 3.5v27c0 1.93 1.57 3.5 3.5 3.5h37.125c1.93 0 3.5-1.57 3.5-3.5v-27c0-1.93-1.57-3.5-3.5-3.5z" fill="#fff"/></g><g transform="translate(325.1 544.18)"><path d="m0 0h-37.125c-1.999 0-3.625-1.626-3.625-3.625v-27c0-1.999 1.626-3.625 3.625-3.625h37.125c1.999 0 3.625 1.626 3.625 3.625v27c0 1.999-1.626 3.625-3.625 3.625m0-0.25c1.864 0 3.375-1.511 3.375-3.375v-27c0-1.864-1.511-3.375-3.375-3.375h-37.125c-1.864 0-3.375 1.511-3.375 3.375v27c0 1.864 1.511 3.375 3.375 3.375z"/></g><g transform="translate(287.97 511.02)"><path d="m0 0c-0.676 0-1.312 0.263-1.79 0.741s-0.741 1.114-0.741 1.79v27c0 0.676 0.263 1.312 0.741 1.79s1.114 0.742 1.79 0.742h37.125c0.676 0 1.312-0.264 1.79-0.742s0.741-1.114 0.741-1.79v-27c0-0.676-0.263-1.312-0.741-1.79s-1.114-0.741-1.79-0.741z" fill="#006f51"/></g><g transform="translate(294.05 531.56)"><path d="m0 0v6.75h4.944v-1.208h-3.708v-1.255h2.02v-1.232h-2.02v-1.847h3.826v-1.208z" fill="#fff"/></g><path d="m310.16 538.31h1.215v-6.75h-1.215z" fill="#fff"/><g transform="translate(317.07 537.12)"><path d="m0 0v-5.566h-1.183v5.566h-1.94v1.184h5.063v-1.184z" fill="#fff"/></g><g transform="translate(305.69 531.56)"><path d="m0 0-1.522 2.392-1.499-2.392h-1.427l2.212 3.553-2.022 3.197h1.451l1.285-2.061 1.284 2.061h1.451l-1.998-3.197 2.212-3.553z" fill="#fff"/></g><g transform="translate(323.45 517.69)"><path d="m0 0 1.64 8.3c0.025 0.133-0.013 0.275-0.116 0.377-0.102 0.103-0.245 0.142-0.377 0.117l-8.3-1.641c-0.082-0.015-0.159-0.053-0.222-0.116-0.165-0.165-0.165-0.432 0-0.597 0.027-0.027 0.057-0.049 0.088-0.068l2.945-1.771-6.961-6.364 2.386-2.387 6.365 6.961 1.771-2.944c0.018-0.032 0.041-0.062 0.068-0.089 0.165-0.165 0.432-0.165 0.597 0 0.062 0.063 0.101 0.141 0.116 0.222" fill="#fff"/></g><g transform="translate(290.96 520.06)"><path d="m0 0h3.944v4.05zm5.721-3.694h-1.777v2.06h-6.254v1.634l6.254 6.431h1.777v-6.431h1.492v-1.634h-1.492z" fill="#fff"/></g><g transform="translate(301.71 523.58)"><path d="m0 0c0-0.745 0.857-1.278 2.177-1.278 1.212 0 2.068 0.533 2.068 1.278s-0.856 1.28-2.105 1.28c-1.284 0-2.14-0.498-2.14-1.28m-0.357-7.389v1.847h0.179c1.035 0 1.784 0.177 2.495 0.568 0.928 0.533 1.462 1.138 1.962 2.239-0.892-0.285-1.463-0.356-2.284-0.356-2.213 0-3.818 1.314-3.818 3.091 3e-3 1.811 1.609 3.089 3.892 3.089 1.249 0 2.322-0.391 3.105-1.065 0.855-0.746 1.212-1.74 1.212-3.091 0-2.13-0.927-4.013-2.675-5.185-1.142-0.819-2.32-1.137-4.068-1.137" fill="#fff"/></g><g transform="translate(236.74 315.87)"><path d="m0 0c-3.678 0-6.671 2.992-6.671 6.671v81.409c0 3.678 2.993 6.67 6.671 6.67h270.41c3.678 0 6.67-2.992 6.67-6.67v-81.409c0-3.679-2.992-6.671-6.67-6.671z" fill="#fff"/></g><g transform="translate(507.15 410.74)"><path d="m0 0h-270.41c-3.747 0-6.796-3.049-6.796-6.796v-81.408c0-3.747 3.049-6.796 6.796-6.796h270.41c3.747 0 6.795 3.049 6.795 6.796v81.408c0 3.747-3.048 6.796-6.795 6.796m0-0.25c3.6 0 6.545-2.945 6.545-6.546v-81.408c0-3.601-2.945-6.546-6.545-6.546h-270.41c-3.6 0-6.546 2.945-6.546 6.546v81.408c0 3.601 2.946 6.546 6.546 6.546z"/></g><g transform="translate(236.74 317.12)"><path d="m0 0c-0.728 0-1.435 0.144-2.102 0.427-0.645 0.274-1.225 0.667-1.725 1.166-0.5 0.5-0.893 1.081-1.167 1.726-0.283 0.667-0.427 1.374-0.427 2.102v81.408c0 0.728 0.144 1.435 0.427 2.102 0.274 0.645 0.667 1.226 1.167 1.726 0.5 0.499 1.08 0.892 1.725 1.166 0.667 0.283 1.374 0.427 2.102 0.427h270.41c0.728 0 1.435-0.144 2.102-0.427 0.645-0.274 1.225-0.667 1.725-1.166 0.5-0.5 0.892-1.081 1.166-1.726 0.284-0.667 0.427-1.374 0.427-2.102v-81.408c0-0.728-0.143-1.435-0.427-2.102-0.274-0.645-0.666-1.226-1.166-1.726-0.5-0.499-1.08-0.892-1.725-1.166-0.667-0.283-1.374-0.427-2.102-0.427z" fill="#006f51"/></g><path d="m397.35 364.4h-1.125v45h1.125z" fill="#fff"/><g transform="translate(401.63 348.95)"><path d="m0 0c-0.114 0.024-0.253 7e-3 -0.361-0.024-0.315-0.085-0.557-0.33-0.626-0.655-0.037-0.171-8e-3 -0.325 0.051-0.489 5e-3 -0.033 0.017-0.058 0.034-0.086 0.024-0.042 0.044-0.09 0.075-0.128l1.662-2.022c-7.809-2.594-10.34-4.346-13.609-8.149v13.227l2.487-0.802c0.116-0.038 0.273-0.067 0.391-0.043 0.412 0.087 0.714 0.427 0.725 0.853 3e-3 0.185-0.061 0.343-0.165 0.497l-5.596 8.179-5.638-8.202c-0.065-0.097-0.101-0.232-0.112-0.345-0.038-0.325 0.098-0.642 0.373-0.827 0.145-0.098 0.298-0.128 0.471-0.135 0.033-7e-3 0.06-5e-3 0.093 0 0.048 7e-3 0.1 8e-3 0.146 0.023l2.536 0.81 0.026-1.472v-25.852l4.263 0.015v3.678c0 3.225 2.963 11.709 15.218 14.557l8e-3 -0.02 0.185-2.643c8e-3 -0.122 0.04-0.279 0.106-0.381 0.234-0.35 0.661-0.505 1.059-0.357 0.173 0.066 0.294 0.184 0.398 0.339l5.486 8.254z" fill="#fff" fill-rule="evenodd"/></g><g transform="translate(319.37 351.13)"><path d="m0 0-5.602 8.175-5.645-8.198c-0.064-0.097-0.101-0.232-0.112-0.345-0.038-0.325 0.098-0.641 0.373-0.826 0.146-0.098 0.299-0.128 0.472-0.135 0.032-7e-3 0.061-5e-3 0.093 0 0.048 7e-3 0.1 8e-3 0.146 0.023l2.54 0.81h0.026v-27.329h4.268v27.32l2.49-0.801c0.115-0.039 0.272-0.067 0.392-0.043 0.411 0.087 0.714 0.426 0.724 0.853 4e-3 0.185-0.06 0.342-0.165 0.496" fill="#fff" fill-rule="evenodd"/></g><g transform="translate(249.44 351.13)"><path d="m0 0-5.602 8.175-5.645-8.198c-0.064-0.097-0.101-0.232-0.112-0.345-0.038-0.325 0.098-0.641 0.373-0.826 0.146-0.098 0.299-0.128 0.472-0.135 0.032-7e-3 0.061-5e-3 0.093 0 0.048 7e-3 0.1 8e-3 0.146 0.023l2.54 0.81h0.026v-27.329h4.268v27.32l2.489-0.801c0.116-0.039 0.273-0.067 0.393-0.043 0.411 0.087 0.714 0.426 0.724 0.853 4e-3 0.185-0.06 0.342-0.165 0.496" fill="#fff" fill-rule="evenodd"/></g><g transform="translate(466.7 347.76)"><path d="m0 0c-0.113 0.022-0.251 3e-3 -0.359-0.03-0.312-0.09-0.549-0.337-0.613-0.662-0.033-0.171-3e-3 -0.324 0.059-0.485 5e-3 -0.034 0.017-0.058 0.035-0.086 0.025-0.042 0.046-0.09 0.077-0.126l1.679-1.977c-9.389-3.285-10.882-9.281-10.882-12.438v-8.655h4.247v8.655c0 2.181 1.201 6.135 8.29 8.532l0.02-0.047 8e-3 -0.021 0.227-2.627c0.01-0.122 0.043-0.277 0.111-0.378 0.239-0.345 0.667-0.492 1.061-0.338 0.17 0.068 0.29 0.187 0.39 0.343l5.333 8.305z" fill="#fff" fill-rule="evenodd"/></g><g transform="translate(450.13 324.27)"><path d="m0 0c0-0.582-0.472-1.055-1.055-1.055h-35.015c-0.583 0-1.055 0.473-1.055 1.055v8.016c0 0.582 0.472 1.054 1.055 1.054h35.015c0.583 0 1.055-0.472 1.055-1.054z" fill="#ffd046"/></g><g transform="translate(420.55 324.9)"><path d="m0 0v6.75h4.944v-1.208h-3.708v-1.255h2.02v-1.232h-2.02v-1.847h3.826v-1.208z"/></g><path d="m434.7 331.65h1.215v-6.75h-1.215z"/><g transform="translate(440.65 330.47)"><path d="m0 0v-5.566h-1.183v5.566h-1.94v1.184h5.063v-1.184z"/></g><g transform="translate(431.39 324.9)"><path d="m0 0-1.522 2.392-1.499-2.392h-1.427l2.212 3.553-2.022 3.197h1.451l1.285-2.061 1.284 2.061h1.451l-1.998-3.197 2.212-3.553z"/></g><g transform="translate(504.7 324.27)"><path d="m0 0c0-0.582-0.472-1.055-1.055-1.055h-35.015c-0.583 0-1.055 0.473-1.055 1.055v8.016c0 0.582 0.472 1.054 1.055 1.054h35.015c0.583 0 1.055-0.472 1.055-1.054z" fill="#ffd046"/></g><g transform="translate(487.42 324.9)"><path d="m0 0v6.75h1.212v-5.708h3.85v-1.042z"/></g><g transform="translate(484.62 324.9)"><path d="m0 0-3.235 4.642v-4.642h-1.189v6.75h1.189l3.116-4.453v4.453h1.166v-6.75z"/></g><g transform="translate(475.84 330.56)"><path d="m0 0c-1.021 0-1.638-0.853-1.638-2.274 0-1.445 0.617-2.297 1.638-2.297 1.282 0 1.59 1.255 1.59 2.297 0 1.421-0.569 2.274-1.59 2.274m0-5.779c-1.994 0-2.872 1.8-2.872 3.505 0 2.156 1.092 3.482 2.872 3.482 1.662 0 2.801-1.398 2.801-3.458 0-2.108-1.092-3.529-2.801-3.529"/></g><g transform="translate(497.07 327.65)"><path d="m0 0v-2.747h-1.208v2.747l-2.841 4.003h1.492l1.965-2.748 1.942 2.748h1.491z"/></g><g transform="translate(425.15 374.06)"><path d="m0 0h-2.637v-2.046h2.637c0.693 0 1.133 0.409 1.133 1.039 0 0.567-0.471 1.007-1.133 1.007m1.511-3.462c-0.534-0.283-0.912-0.378-1.73-0.378h-2.418v-3.367h-1.762v9h4.274c0.756 0 1.132-0.094 1.636-0.377 0.849-0.504 1.385-1.416 1.385-2.423 0-1.039-0.536-1.983-1.385-2.455" fill="#fff"/></g><g transform="translate(439.03 369.5)"><path d="m0 0c-0.538 0.19-1.17 0.284-1.519 0.284-0.568 0-1.011-0.315-1.011-0.723 0-0.41 0.537-0.756 1.17-0.756 0.379 0 0.854 0.063 1.36 0.346zm0-2.642v0.22c-0.633-0.251-1.233-0.314-1.74-0.314-1.454 0-2.498 0.912-2.498 2.202 0 1.354 1.17 2.361 2.719 2.361 0.38 0 0.981-0.064 1.519-0.253-0.032 0.629-0.506 0.882-1.17 0.882-0.633 0-1.233-0.157-1.866-0.504l-0.664 1.416c0.98 0.504 1.644 0.693 2.53 0.693 1.802 0 2.878-0.882 2.878-2.707v-3.996z" fill="#fff"/></g><g transform="translate(486.26 371.95)"><path d="m0 0c-0.474 0-0.916-0.315-1.106-0.914h2.15c-0.252 0.661-0.538 0.914-1.044 0.914m-1.201-2.393c0.19-0.754 0.727-1.195 1.296-1.195 0.38 0 0.727 0.22 1.012 0.598l1.233-1.071c-0.664-0.786-1.359-1.131-2.245-1.131-1.676 0-3.13 1.477-3.13 3.397 0 1.889 1.422 3.4 3.035 3.4 1.076 0 2.056-0.661 2.53-1.7 0.253-0.598 0.38-1.227 0.38-2.047v-0.251z" fill="#fff"/></g><g transform="translate(445.22 374.22)"><path d="m0 0c-0.475 0-0.853 0.408-0.853 0.882 0 0.503 0.378 0.88 0.853 0.88 0.505 0 0.884-0.377 0.884-0.88 0-0.474-0.379-0.882-0.884-0.882m-0.884-0.818h1.8v-6.546h-1.8z" fill="#fff"/></g><g transform="translate(468.72 374.22)"><path d="m0 0c-0.473 0-0.853 0.408-0.853 0.882 0 0.503 0.38 0.88 0.853 0.88 0.506 0 0.886-0.377 0.886-0.88 0-0.474-0.38-0.882-0.886-0.882m-0.883-0.818h1.799v-6.546h-1.799z" fill="#fff"/></g><g transform="translate(430.2 366.85)"><path d="m0 0v8.433l1.799 0.693v-9.126z" fill="#fff"/></g><g transform="translate(473.24 366.85)"><path d="m0 0v8.433l1.8 0.693v-9.126z" fill="#fff"/></g><g transform="translate(478.64 366.85)"><path d="m0 0v8.433l1.801 0.693v-9.126z" fill="#fff"/></g><g transform="translate(453.91 366.9)"><path d="m0 0v3.935c0 0.598-0.411 1.07-1.106 1.07-0.634 0-1.265-0.504-1.265-1.038v-3.967h-1.804v6.547h1.804v-0.346c0.6 0.378 1.169 0.504 1.771 0.504 1.359 0 2.371-0.944 2.371-2.204v-4.501z" fill="#fff"/></g><g transform="translate(462.76 366.9)"><path d="m0 0h-1.995l-2.47 6.547h1.869l1.645-4.186 1.519 4.186h1.901z" fill="#fff"/></g><g transform="translate(284.62 366.85)"><path d="m0 0h-1.934l-1.42 5.412-1.581-5.412h-1.935l-1.453 9.05h1.841l0.806-4.873 1.29 4.873h1.935l1.292-4.873 0.773 4.873h1.839z" fill="#fff"/></g><g transform="translate(291.79 369.51)"><path d="m0 0c-0.549 0.19-1.196 0.286-1.553 0.286-0.583 0-1.035-0.318-1.035-0.73 0-0.411 0.548-0.759 1.196-0.759 0.39 0 0.875 0.064 1.392 0.348zm0-2.658v0.221c-0.648-0.252-1.263-0.315-1.779-0.315-1.49 0-2.558 0.916-2.558 2.214 0 1.362 1.197 2.374 2.784 2.374 0.388 0 1.004-0.063 1.553-0.254-0.032 0.634-0.517 0.887-1.196 0.887-0.648 0-1.263-0.158-1.911-0.507l-0.679 1.425c1.002 0.506 1.683 0.695 2.59 0.695 1.844 0 2.946-0.886 2.946-2.722v-4.018z" fill="#fff"/></g><g transform="translate(321.8 371.89)"><path d="m0 0c-0.455 0-0.809-0.19-1.069-0.633v-2.152c0.26-0.444 0.614-0.633 1.036-0.633 0.777 0 1.36 0.758 1.36 1.707 0 0.951-0.583 1.711-1.327 1.711m0.29-5.126c-0.517 0-1.035 0.125-1.359 0.41v-0.316h-1.844v8.481l1.844 0.696v-2.88c0.388 0.317 0.842 0.443 1.327 0.443 1.586 0 2.915-1.583 2.915-3.419 0-1.834-1.329-3.415-2.883-3.415" fill="#fff"/></g><g transform="translate(306.24 371.98)"><path d="m0 0c-0.485 0-0.939-0.317-1.132-0.919h2.201c-0.259 0.665-0.551 0.919-1.069 0.919m-1.229-2.406c0.194-0.759 0.744-1.203 1.327-1.203 0.388 0 0.744 0.222 1.036 0.602l1.263-1.078c-0.68-0.79-1.392-1.137-2.299-1.137-1.716 0-3.206 1.488-3.206 3.416 0 1.9 1.457 3.419 3.108 3.419 1.101 0 2.104-0.664 2.591-1.708 0.259-0.602 0.387-1.235 0.387-2.059v-0.252z" fill="#fff"/></g><g transform="translate(341.6 371.37)"><path d="m0 0c-0.26 0.411-0.714 0.568-1.071 0.568-0.811 0-1.07-0.474-1.07-1.392v-3.637h-1.85v6.58h1.85v-0.316c0.453 0.348 0.843 0.475 1.331 0.475 0.55 0 0.973-0.127 1.426-0.475z" fill="#fff"/></g><g transform="translate(316.06 371.37)"><path d="m0 0c-0.26 0.411-0.714 0.568-1.071 0.568-0.811 0-1.071-0.474-1.071-1.392v-3.637h-1.85v6.58h1.85v-0.316c0.454 0.348 0.844 0.475 1.332 0.475 0.55 0 0.971-0.127 1.426-0.475z" fill="#fff"/></g><g transform="translate(299.29 371.9)"><path d="m0 0v-2.468c0-0.6 0.131-0.949 0.812-0.885 0.485 0.031 0.583 0.158 0.905 0.473l-0.485-1.867c-0.615-0.251-0.55-0.348-1.198-0.348-1.265 0-1.848 0.729-1.848 2.027v3.068h-1.262v1.551h1.262v1.93l1.814 0.697v-2.596h1.717v-1.582z" fill="#fff"/></g><g transform="translate(332.17 366.9)"><path d="m0 0v0.41c-0.679-0.443-1.099-0.507-1.779-0.507-0.811 0-1.393 0.191-1.879 0.665-0.421 0.413-0.679 0.981-0.679 1.583v4.429h1.845v-3.828c0-0.634 0.421-1.107 1.133-1.107 0.648 0 1.263 0.506 1.263 1.044v3.891h1.846v-6.58z" fill="#fff"/></g><g transform="translate(347.33 364.5)"><path d="m0 0-1.869 8e-3 1.127 2.621-3.179 6.504 2.131-0.011 1.847-4.376 1.893 4.358 1.965-9e-3z" fill="#fff"/></g><g transform="translate(305.48 396.74)"><path d="m0 0c-0.411 2.01-1.277 3.811-2.469 5.316-2.33-0.714-4.891-0.765-7.397 0-2.506-0.765-5.068-0.714-7.397 0-1.192-1.505-2.059-3.306-2.47-5.316-1.399-6.848 3.018-13.535 9.867-14.934 6.848 1.399 11.265 8.086 9.866 14.934" fill="#fff"/></g><g transform="translate(304.76 397.84)"><path d="m0 0c-0.167 0.538-0.369 1.064-0.607 1.571-0.357 0.762-0.795 1.488-1.303 2.162-1.154-0.326-2.343-0.491-3.539-0.491-1.249 0-2.493 0.18-3.701 0.536-1.208-0.356-2.452-0.536-3.701-0.536-1.196 0-2.385 0.165-3.539 0.491-0.507-0.674-0.945-1.4-1.303-2.162-0.237-0.507-0.44-1.033-0.607-1.571z" fill="#c0311a"/></g><g transform="translate(304.88 397.41)"><path d="m0 0h-18.544c-0.069-0.251-0.129-0.505-0.181-0.76-0.331-1.619-0.335-3.253-0.012-4.858 0.312-1.551 0.915-3.009 1.791-4.335s1.981-2.453 3.285-3.348c1.326-0.911 2.802-1.542 4.389-1.877 1.586 0.335 3.062 0.966 4.389 1.877 1.303 0.895 2.409 2.022 3.285 3.348s1.478 2.784 1.79 4.335c0.323 1.605 0.319 3.239-0.011 4.858-0.052 0.255-0.113 0.509-0.181 0.76" fill="#005a9c"/></g><g transform="translate(299.06 399.84)"><path d="m0 0-0.158-0.647h0.324zm0.404-1.579-0.159 0.616h-0.483l-0.15-0.616h-0.324l0.562 2.25h0.316l0.562-2.25z" fill="#fff"/></g><g transform="translate(292.54 398.26)"><path d="m0 0v2.25h1.061v-0.316h-0.736v-0.568h0.467v-0.308h-0.467v-0.742h0.823v-0.316z" fill="#fff"/></g><path d="m288.69 400.51h0.315v-2.25h-0.315z" fill="#fff"/><g transform="translate(290.52 398.26)"><path d="m0 0-0.693 1.508v-1.508h-0.323v2.25h0.323l0.614-1.35v1.35h0.323v-2.25z" fill="#fff"/></g><g transform="translate(294.72 400.19)"><path d="m0 0h-0.331v-0.568h0.331c0.189 0 0.292 0.102 0.292 0.284 0 0.173-0.119 0.284-0.292 0.284m0.276-1.934-0.3 1.058h-0.307v-1.058h-0.323v2.25h0.67c0.354 0 0.591-0.237 0.591-0.6 0-0.269-0.111-0.466-0.323-0.545l0.323-1.105z" fill="#fff"/></g><g transform="translate(296.24 399.3)"><path d="m0 0c-0.097 0.063-0.192 0.126-0.252 0.169-0.182 0.128-0.278 0.3-0.278 0.497 0 0.324 0.254 0.584 0.579 0.584 0.317 0 0.563-0.244 0.571-0.584h-0.309c-8e-3 0.158-0.119 0.261-0.262 0.261-0.151 0-0.269-0.111-0.269-0.261 0-0.11 0.047-0.173 0.213-0.268 0.437-0.253 0.627-0.498 0.627-0.821 0-0.363-0.278-0.656-0.627-0.656-0.396 0-0.634 0.332-0.634 0.703h0.317c0-0.189 0.096-0.387 0.317-0.387 0.175 0 0.318 0.158 0.318 0.34 0 0.141-0.059 0.259-0.311 0.423" fill="#fff"/></g><g transform="translate(291.81 400.21)"><path d="m0 0v-1.95h-0.325v1.95h-0.411v0.3h1.148v-0.3z" fill="#fff"/></g><g transform="translate(301.39 398.26)"><path d="m0 0v2.25h1.061v-0.316h-0.736v-0.568h0.467v-0.308h-0.467v-0.742h0.823v-0.316z" fill="#fff"/></g><g transform="translate(300.66 400.21)"><path d="m0 0v-1.95h-0.325v1.95h-0.411v0.3h1.148v-0.3z" fill="#fff"/></g><g transform="translate(297.8 400.21)"><path d="m0 0v-1.95h-0.325v1.95h-0.411v0.3h1.148v-0.3z" fill="#fff"/></g><g transform="translate(300.02 393.63)"><path d="m0 0-2.408-3.168h2.408zm1.338-4.382v-2.102h-1.338v2.102h-4.192v0.8l4.192 5.536h1.338v-5.122h0.803v-1.214z" fill="#fff"/></g><g transform="translate(291.94 394.37)"><path d="m0 0c-0.651 0-1.184-0.444-1.184-1.007 0-0.503 0.533-0.917 1.184-0.917s1.184 0.414 1.184 0.917c0 0.563-0.533 1.007-1.184 1.007m0-3.286c-0.829 0-1.51-0.563-1.51-1.273 0-0.8 0.681-1.451 1.51-1.451 0.859 0 1.54 0.651 1.54 1.451 0 0.71-0.711 1.273-1.54 1.273m0-4.086c-1.54 0-2.872 1.303-2.872 2.842 0 0.8 0.355 1.451 0.977 1.954-0.414 0.444-0.622 0.948-0.622 1.54 0 1.302 1.155 2.398 2.517 2.398s2.546-1.096 2.546-2.398c0-0.592-0.237-1.096-0.651-1.54 0.651-0.503 0.977-1.184 0.977-1.954 0-1.539-1.332-2.842-2.872-2.842" fill="#fff"/></g><g transform="translate(324.56 393.62)"><path d="m0 0v6.834h5.005v-1.223h-3.753v-1.271h2.046v-1.246h-2.046v-1.871h3.874v-1.223z" fill="#fff"/></g><g transform="translate(333.19 396.68)"><path d="m0 0c-0.305 0.085-1.068 0.268-1.327 0.419-0.516 0.302-0.909 0.795-0.909 1.526 0 1.127 0.965 1.895 2.361 1.895 1.011 0 1.854-0.336 2.553-1.055l-0.915-0.816c-0.435 0.456-0.987 0.672-1.638 0.672-0.699 0-1.107-0.264-1.107-0.696 0-0.384 0.24-0.551 1.082-0.743 0.916-0.192 1.517-0.384 1.903-0.576 0.602-0.311 0.989-0.959 0.989-1.702 0-0.696-0.314-1.223-0.963-1.607-0.483-0.288-1.109-0.456-1.735-0.456-1.18 0-2.072 0.432-2.842 1.319l0.986 0.767c0.507-0.599 1.06-0.862 1.831-0.862 0.867 0 1.494 0.383 1.494 0.886 0 0.642-0.699 0.735-1.763 1.029" fill="#fff"/></g><g transform="translate(340.09 399.25)"><path d="m0 0v-5.635h-1.196v5.635h-1.964v1.199h5.125v-1.199z" fill="#fff"/></g><g transform="translate(321.61 393.62)"><path d="m0 0h-1.601l-1.363 5.655-1.333-5.655h-1.6l-1.541 8.438h1.569l0.919-5.448 1.247 5.448h1.51l1.304-5.448 0.86 5.448h1.541z" fill="#fff"/></g><g transform="translate(446.93 391.93)"><path d="m0 0c0-5.592-4.534-10.125-10.126-10.125-5.591 0-10.124 4.533-10.124 10.125s4.533 10.125 10.124 10.125c5.592 0 10.126-4.533 10.126-10.125" fill="#fff"/></g><g transform="translate(442.84 391.44)"><path d="m0 0c-1.363-0.847-2.617-1.222-3.375-3.106h4.974v-1.634h-6.892c0.035 1.173 0.28 2.134 0.853 3.091 1.776 2.97 4.44 2.642 4.44 4.228 0 0.746-0.852 1.35-1.848 1.35-1.029 0-1.669-0.498-1.846-1.421l-1.599 0.355c0.354 1.669 1.67 2.7 3.445 2.7 1.919 0 3.447-1.35 3.447-3.019 0-1.211-0.696-1.982-1.599-2.544"/></g><g transform="translate(434.84 394.02)"><path d="m0 0c-0.894-1.492-1.571-3.198-1.894-4.832-0.142-0.853-0.214-1.492-0.214-2.487h-1.643c0.036 2.345 0.463 4.299 1.463 6.431 0.358 0.781 0.788 1.527 1.145 2.096h-4.858v1.598h6.893v-1.598c-0.357-0.462-0.572-0.676-0.892-1.208"/></g><g transform="translate(465.75 393.62)"><path d="m0 0v6.834h5.005v-1.223h-3.753v-1.271h2.045v-1.246h-2.045v-1.871h3.874v-1.223z" fill="#fff"/></g><g transform="translate(474.38 396.68)"><path d="m0 0c-0.305 0.085-1.068 0.268-1.327 0.419-0.516 0.302-0.909 0.795-0.909 1.526 0 1.127 0.965 1.895 2.361 1.895 1.011 0 1.854-0.336 2.553-1.055l-0.915-0.816c-0.434 0.456-0.987 0.672-1.638 0.672-0.699 0-1.107-0.264-1.107-0.696 0-0.384 0.24-0.551 1.082-0.743 0.916-0.192 1.517-0.384 1.903-0.576 0.602-0.311 0.989-0.959 0.989-1.702 0-0.696-0.314-1.223-0.963-1.607-0.483-0.288-1.109-0.456-1.735-0.456-1.18 0-2.072 0.432-2.842 1.319l0.986 0.767c0.507-0.599 1.06-0.862 1.831-0.862 0.867 0 1.494 0.383 1.494 0.886 0 0.642-0.699 0.735-1.763 1.029" fill="#fff"/></g><g transform="translate(481.28 399.25)"><path d="m0 0v-5.635h-1.196v5.635h-1.964v1.199h5.125v-1.199z" fill="#fff"/></g><g transform="translate(462.8 393.62)"><path d="m0 0h-1.601l-1.363 5.655-1.333-5.655h-1.6l-1.541 8.438h1.569l0.919-5.448 1.247 5.448h1.51l1.304-5.448 0.86 5.448h1.541z" fill="#fff"/></g><g transform="translate(451.26 410.62)"><path d="m0 0c-0.999 0-1.812 0.813-1.812 1.812v13.501c0 0.999 0.813 1.812 1.812 1.812h60.75c0.999 0 1.813-0.813 1.813-1.812v-13.501c0-0.999-0.814-1.812-1.813-1.812z" fill="#fff"/></g><g transform="translate(512.01 427.87)"><path d="m0 0h-60.75c-1.068 0-1.938-0.869-1.938-1.937v-13.501c0-1.068 0.87-1.937 1.938-1.937h60.75c1.068 0 1.937 0.869 1.937 1.937v13.501c0 1.068-0.869 1.937-1.937 1.937m0-0.25c0.932 0 1.687-0.755 1.687-1.687v-13.501c0-0.932-0.755-1.687-1.687-1.687h-60.75c-0.932 0-1.688 0.755-1.688 1.687v13.501c0 0.932 0.756 1.687 1.688 1.687z"/></g><g transform="translate(451.26 411.87)"><path d="m0 0c-0.31 0-0.562 0.252-0.562 0.562v13.501c0 0.31 0.252 0.562 0.562 0.562h60.75c0.31 0 0.563-0.252 0.563-0.562v-13.501c0-0.31-0.253-0.562-0.563-0.562z" fill="#006f51"/></g><g transform="translate(460.42 416.37)"><path d="m0 0v5.625h4.12v-1.007h-3.09v-1.046h1.683v-1.026h-1.683v-1.539h3.189v-1.007z" fill="#fff"/></g><path d="m471.83 421.99h1.013v-5.625h-1.013z" fill="#fff"/><g transform="translate(476.59 421.01)"><path d="m0 0v-4.638h-0.986v4.638h-1.616v0.987h4.218v-0.987z" fill="#fff"/></g><g transform="translate(469.29 416.37)"><path d="m0 0-1.269 1.993-1.249-1.993h-1.189l1.844 2.96-1.685 2.665h1.209l1.07-1.717 1.071 1.717h1.209l-1.665-2.665 1.843-2.96z" fill="#fff"/></g><g transform="translate(491.85 421.42)"><path d="m0 0-3.286-3.375h3.286zm1.48-4.737v-1.717h-1.48v1.717h-5.212v1.362l5.212 5.358h1.48v-5.358h1.243v-1.362z" fill="#fff"/></g><g transform="translate(499.31 422.04)"><path d="m0 0c-1.07 0-1.785-0.415-1.785-1.066 0-0.622 0.715-1.066 1.815-1.066 1.01 0 1.725 0.444 1.725 1.066s-0.715 1.066-1.755 1.066m1.308-6.277c-0.952-0.68-1.933-0.947-3.389-0.947v1.539h0.148c0.863 0 1.488 0.149 2.081 0.474 0.775 0.444 1.22 0.947 1.636 1.865-0.744-0.237-1.22-0.295-1.904-0.295-1.843 0-3.181 1.094-3.181 2.575 0 1.51 1.338 2.575 3.241 2.575 1.041 0 1.932-0.324 2.588-0.888 0.712-0.621 1.01-1.45 1.01-2.575 0-1.776-0.773-3.345-2.23-4.323" fill="#fff"/></g><g transform="translate(236.75 86.764)"><path d="m0 0c-3.678 0-6.67 2.992-6.67 6.671v88.158c0 3.679 2.992 6.671 6.67 6.671h270.4c3.678 0 6.67-2.992 6.67-6.671v-88.158c0-3.679-2.992-6.671-6.67-6.671z" fill="#fff"/></g><g transform="translate(507.15 188.39)"><path d="m0 0h-270.4c-3.747 0-6.796-3.049-6.796-6.796v-88.158c0-3.747 3.049-6.796 6.796-6.796h270.4c3.747 0 6.795 3.049 6.795 6.796v88.158c0 3.747-3.048 6.796-6.795 6.796m0-0.25c3.6 0 6.545-2.945 6.545-6.546v-88.158c0-3.601-2.945-6.546-6.545-6.546h-270.4c-3.6 0-6.546 2.945-6.546 6.546v88.158c0 3.601 2.946 6.546 6.546 6.546z"/></g><g transform="translate(236.75 88.014)"><path d="m0 0c-0.728 0-1.435 0.144-2.102 0.427-0.645 0.274-1.225 0.667-1.725 1.166-0.5 0.5-0.892 1.081-1.167 1.726-0.283 0.667-0.427 1.374-0.427 2.102v88.158c0 0.728 0.144 1.435 0.427 2.102 0.275 0.645 0.667 1.226 1.167 1.726 0.5 0.499 1.08 0.892 1.725 1.166 0.667 0.283 1.374 0.427 2.102 0.427h270.4c0.728 0 1.435-0.144 2.101-0.427 0.646-0.274 1.226-0.667 1.726-1.166 0.5-0.5 0.892-1.081 1.166-1.726 0.283-0.667 0.427-1.374 0.427-2.102v-88.158c0-0.728-0.144-1.435-0.427-2.102-0.274-0.645-0.666-1.226-1.166-1.726-0.5-0.499-1.08-0.892-1.726-1.166-0.666-0.283-1.373-0.427-2.101-0.427z" fill="#006f51"/></g><path d="m397.35 130.73h-1.125v56.318h1.125z" fill="#fff"/><g transform="translate(401.64 119.84)"><path d="m0 0c-0.114 0.024-0.253 7e-3 -0.361-0.024-0.315-0.085-0.557-0.33-0.626-0.655-0.037-0.171-8e-3 -0.325 0.05-0.489 6e-3 -0.033 0.018-0.058 0.035-0.086 0.024-0.042 0.044-0.09 0.075-0.128l1.662-2.022c-7.809-2.594-10.34-4.345-13.609-8.149v13.227l2.487-0.802c0.116-0.038 0.273-0.067 0.392-0.043 0.411 0.087 0.713 0.427 0.724 0.854 3e-3 0.185-0.06 0.342-0.165 0.496l-5.595 8.179-5.639-8.202c-0.064-0.097-0.1-0.232-0.112-0.345-0.038-0.325 0.098-0.642 0.373-0.827 0.146-0.098 0.298-0.128 0.471-0.135 0.033-7e-3 0.061-5e-3 0.093 0 0.048 7e-3 0.1 8e-3 0.146 0.023l2.537 0.811 0.026-1.473v-25.852l4.262 0.015v3.678c0 3.225 2.963 11.709 15.218 14.557l8e-3 -0.02 0.185-2.643c8e-3 -0.122 0.04-0.279 0.106-0.381 0.234-0.35 0.661-0.505 1.059-0.356 0.173 0.065 0.294 0.183 0.398 0.338l5.486 8.254z" fill="#fff" fill-rule="evenodd"/></g><g transform="translate(319.38 122.03)"><path d="m0 0-5.602 8.175-5.645-8.198c-0.064-0.097-0.1-0.232-0.112-0.345-0.038-0.325 0.098-0.641 0.374-0.826 0.145-0.098 0.298-0.128 0.471-0.135 0.033-7e-3 0.061-5e-3 0.093 0 0.048 7e-3 0.1 8e-3 0.147 0.023l2.539 0.81h0.026v-27.329h4.268v27.32l2.49-0.801c0.116-0.039 0.272-0.067 0.392-0.043 0.411 0.087 0.714 0.427 0.725 0.853 3e-3 0.185-0.06 0.342-0.166 0.496" fill="#fff" fill-rule="evenodd"/></g><g transform="translate(249.44 122.03)"><path d="m0 0-5.602 8.175-5.645-8.198c-0.064-0.097-0.1-0.232-0.112-0.345-0.038-0.325 0.098-0.641 0.373-0.826 0.146-0.098 0.299-0.128 0.472-0.135 0.033-7e-3 0.061-5e-3 0.093 0 0.048 7e-3 0.1 8e-3 0.146 0.023l2.54 0.81h0.026v-27.329h4.268v27.32l2.489-0.801c0.116-0.039 0.273-0.067 0.393-0.043 0.411 0.087 0.714 0.427 0.724 0.853 4e-3 0.185-0.06 0.342-0.165 0.496" fill="#fff" fill-rule="evenodd"/></g><g transform="translate(466.7 118.66)"><path d="m0 0c-0.113 0.022-0.251 3e-3 -0.359-0.03-0.312-0.09-0.549-0.337-0.613-0.662-0.033-0.171-3e-3 -0.324 0.059-0.485 5e-3 -0.035 0.017-0.058 0.035-0.086 0.025-0.042 0.046-0.09 0.077-0.126l1.679-1.977c-9.388-3.285-10.882-9.281-10.882-12.438v-8.655h4.247v8.655c0 2.181 1.201 6.135 8.29 8.532l0.02-0.047 8e-3 -0.021 0.227-2.627c0.01-0.122 0.043-0.277 0.111-0.378 0.239-0.345 0.667-0.492 1.061-0.338 0.17 0.068 0.29 0.187 0.39 0.343l5.333 8.305z" fill="#fff" fill-rule="evenodd"/></g><g transform="translate(450.13 95.167)"><path d="m0 0c0-0.582-0.472-1.055-1.055-1.055h-35.015c-0.582 0-1.054 0.473-1.054 1.055v8.016c0 0.582 0.472 1.054 1.054 1.054h35.015c0.583 0 1.055-0.472 1.055-1.054z" fill="#ffd046"/></g><g transform="translate(420.55 95.8)"><path d="m0 0v6.75h4.944v-1.208h-3.708v-1.255h2.02v-1.232h-2.02v-1.847h3.826v-1.208z"/></g><path d="m434.71 102.55h1.215v-6.75h-1.215z"/><g transform="translate(440.65 101.37)"><path d="m0 0v-5.566h-1.183v5.566h-1.94v1.184h5.063v-1.184z"/></g><g transform="translate(431.39 95.8)"><path d="m0 0-1.523 2.392-1.498-2.392h-1.428l2.213 3.553-2.022 3.197h1.451l1.284-2.061 1.285 2.061h1.451l-1.998-3.197 2.212-3.553z"/></g><g transform="translate(504.7 95.167)"><path d="m0 0c0-0.582-0.472-1.055-1.055-1.055h-35.015c-0.582 0-1.054 0.473-1.054 1.055v8.016c0 0.582 0.472 1.054 1.054 1.054h35.015c0.583 0 1.055-0.472 1.055-1.054z" fill="#ffd046"/></g><g transform="translate(487.42 95.8)"><path d="m0 0v6.75h1.212v-5.708h3.85v-1.042z"/></g><g transform="translate(484.62 95.8)"><path d="m0 0-3.235 4.642v-4.642h-1.189v6.75h1.189l3.116-4.453v4.453h1.166v-6.75z"/></g><g transform="translate(475.84 101.46)"><path d="m0 0c-1.021 0-1.638-0.853-1.638-2.274 0-1.445 0.617-2.297 1.638-2.297 1.282 0 1.59 1.255 1.59 2.297 0 1.421-0.569 2.274-1.59 2.274m0-5.779c-1.994 0-2.872 1.8-2.872 3.505 0 2.156 1.092 3.482 2.872 3.482 1.662 0 2.801-1.397 2.801-3.458 0-2.108-1.092-3.529-2.801-3.529"/></g><g transform="translate(497.07 98.547)"><path d="m0 0v-2.747h-1.208v2.747l-2.841 4.003h1.492l1.965-2.748 1.942 2.748h1.491z"/></g><g transform="translate(425.15 151.71)"><path d="m0 0h-2.637v-2.046h2.637c0.693 0 1.133 0.41 1.133 1.039 0 0.567-0.471 1.007-1.133 1.007m1.511-3.462c-0.534-0.283-0.912-0.378-1.73-0.378h-2.418v-3.367h-1.762v9h4.273c0.757 0 1.133-0.094 1.637-0.377 0.849-0.504 1.385-1.416 1.385-2.423 0-1.039-0.536-1.983-1.385-2.455" fill="#fff"/></g><g transform="translate(439.03 147.14)"><path d="m0 0c-0.538 0.19-1.17 0.284-1.519 0.284-0.568 0-1.011-0.315-1.011-0.723 0-0.41 0.537-0.756 1.17-0.756 0.379 0 0.854 0.063 1.36 0.346zm0-2.642v0.22c-0.633-0.251-1.233-0.314-1.74-0.314-1.454 0-2.498 0.912-2.498 2.202 0 1.354 1.17 2.361 2.719 2.361 0.38 0 0.981-0.064 1.519-0.253-0.032 0.63-0.506 0.882-1.17 0.882-0.633 0-1.233-0.157-1.866-0.504l-0.664 1.416c0.98 0.504 1.645 0.693 2.53 0.693 1.802 0 2.878-0.882 2.878-2.707v-3.996z" fill="#fff"/></g><g transform="translate(486.26 149.6)"><path d="m0 0c-0.475 0-0.916-0.315-1.107-0.914h2.151c-0.252 0.661-0.538 0.914-1.044 0.914m-1.202-2.393c0.191-0.754 0.727-1.195 1.297-1.195 0.379 0 0.727 0.22 1.011 0.598l1.234-1.071c-0.664-0.786-1.359-1.131-2.245-1.131-1.676 0-3.13 1.477-3.13 3.397 0 1.889 1.422 3.4 3.035 3.4 1.076 0 2.055-0.661 2.53-1.7 0.253-0.598 0.379-1.227 0.379-2.046v-0.252z" fill="#fff"/></g><g transform="translate(445.22 151.86)"><path d="m0 0c-0.475 0-0.853 0.408-0.853 0.882 0 0.503 0.378 0.88 0.853 0.88 0.505 0 0.884-0.377 0.884-0.88 0-0.474-0.379-0.882-0.884-0.882m-0.884-0.818h1.8v-6.546h-1.8z" fill="#fff"/></g><g transform="translate(468.72 151.86)"><path d="m0 0c-0.473 0-0.853 0.408-0.853 0.882 0 0.503 0.38 0.88 0.853 0.88 0.506 0 0.886-0.377 0.886-0.88 0-0.474-0.38-0.882-0.886-0.882m-0.883-0.818h1.799v-6.546h-1.799z" fill="#fff"/></g><g transform="translate(430.2 144.5)"><path d="m0 0v8.434l1.799 0.692v-9.126z" fill="#fff"/></g><g transform="translate(473.24 144.5)"><path d="m0 0v8.434l1.8 0.692v-9.126z" fill="#fff"/></g><g transform="translate(478.64 144.5)"><path d="m0 0v8.434l1.8 0.692v-9.126z" fill="#fff"/></g><g transform="translate(453.91 144.55)"><path d="m0 0v3.935c0 0.598-0.411 1.07-1.106 1.07-0.633 0-1.265-0.504-1.265-1.038v-3.967h-1.803v6.547h1.803v-0.346c0.6 0.378 1.169 0.504 1.771 0.504 1.359 0 2.371-0.944 2.371-2.204v-4.501z" fill="#fff"/></g><g transform="translate(462.76 144.55)"><path d="m0 0h-1.995l-2.47 6.547h1.869l1.645-4.186 1.519 4.186h1.901z" fill="#fff"/></g><g transform="translate(284.62 144.5)"><path d="m0 0h-1.934l-1.419 5.412-1.581-5.412h-1.936l-1.452 9.05h1.84l0.806-4.873 1.29 4.873h1.935l1.292-4.873 0.773 4.873h1.839z" fill="#fff"/></g><g transform="translate(291.8 147.16)"><path d="m0 0c-0.549 0.19-1.196 0.286-1.553 0.286-0.583 0-1.035-0.318-1.035-0.73 0-0.411 0.548-0.759 1.196-0.759 0.39 0 0.875 0.064 1.392 0.348zm0-2.658v0.221c-0.648-0.252-1.263-0.315-1.779-0.315-1.49 0-2.558 0.916-2.558 2.214 0 1.362 1.198 2.374 2.784 2.374 0.388 0 1.004-0.063 1.553-0.254-0.032 0.634-0.517 0.887-1.196 0.887-0.648 0-1.263-0.158-1.91-0.507l-0.68 1.425c1.002 0.506 1.683 0.695 2.59 0.695 1.844 0 2.946-0.886 2.946-2.722v-4.018z" fill="#fff"/></g><g transform="translate(321.81 149.53)"><path d="m0 0c-0.455 0-0.809-0.19-1.069-0.633v-2.152c0.26-0.444 0.614-0.633 1.036-0.633 0.777 0 1.36 0.758 1.36 1.708s-0.583 1.71-1.327 1.71m0.29-5.126c-0.517 0-1.035 0.125-1.359 0.41v-0.316h-1.844v8.481l1.844 0.696v-2.88c0.388 0.317 0.842 0.443 1.327 0.443 1.586 0 2.915-1.582 2.915-3.418 0-1.835-1.329-3.416-2.883-3.416" fill="#fff"/></g><g transform="translate(306.24 149.63)"><path d="m0 0c-0.485 0-0.939-0.317-1.132-0.919h2.201c-0.259 0.665-0.551 0.919-1.069 0.919m-1.229-2.406c0.194-0.759 0.744-1.203 1.327-1.203 0.388 0 0.744 0.222 1.036 0.602l1.262-1.078c-0.679-0.79-1.391-1.136-2.298-1.136-1.716 0-3.206 1.487-3.206 3.415 0 1.9 1.457 3.419 3.108 3.419 1.101 0 2.104-0.664 2.591-1.708 0.259-0.602 0.387-1.235 0.387-2.058v-0.253z" fill="#fff"/></g><g transform="translate(341.6 149.01)"><path d="m0 0c-0.26 0.411-0.714 0.568-1.071 0.568-0.811 0-1.07-0.474-1.07-1.392v-3.637h-1.85v6.58h1.85v-0.316c0.453 0.348 0.843 0.475 1.331 0.475 0.55 0 0.973-0.127 1.426-0.475z" fill="#fff"/></g><g transform="translate(316.07 149.01)"><path d="m0 0c-0.26 0.411-0.714 0.568-1.071 0.568-0.811 0-1.071-0.474-1.071-1.392v-3.637h-1.85v6.58h1.85v-0.316c0.454 0.348 0.844 0.475 1.332 0.475 0.55 0 0.971-0.127 1.426-0.475z" fill="#fff"/></g><g transform="translate(299.29 149.55)"><path d="m0 0v-2.468c0-0.6 0.131-0.949 0.812-0.885 0.485 0.031 0.583 0.158 0.905 0.473l-0.485-1.867c-0.615-0.251-0.55-0.347-1.198-0.347-1.265 0-1.848 0.728-1.848 2.026v3.068h-1.262v1.551h1.262v1.93l1.814 0.697v-2.596h1.717v-1.582z" fill="#fff"/></g><g transform="translate(332.17 144.55)"><path d="m0 0v0.41c-0.679-0.443-1.098-0.507-1.779-0.507-0.81 0-1.393 0.191-1.879 0.665-0.421 0.413-0.679 0.981-0.679 1.583v4.429h1.845v-3.828c0-0.634 0.421-1.107 1.133-1.107 0.648 0 1.263 0.506 1.263 1.044v3.891h1.846v-6.58z" fill="#fff"/></g><g transform="translate(347.34 142.14)"><path d="m0 0-1.869 8e-3 1.127 2.621-3.179 6.504 2.131-0.011 1.847-4.376 1.893 4.358 1.965-9e-3z" fill="#fff"/></g><g transform="translate(305.48 174.38)"><path d="m0 0c-0.411 2.01-1.277 3.811-2.469 5.316-2.33-0.714-4.891-0.765-7.397 0-2.506-0.765-5.067-0.714-7.397 0-1.192-1.505-2.059-3.306-2.469-5.316-1.4-6.848 3.018-13.535 9.866-14.934 6.848 1.399 11.265 8.086 9.866 14.934" fill="#fff"/></g><g transform="translate(304.77 175.48)"><path d="m0 0c-0.167 0.538-0.369 1.064-0.607 1.571-0.357 0.762-0.795 1.488-1.303 2.162-1.154-0.326-2.343-0.491-3.539-0.491-1.249 0-2.493 0.18-3.701 0.536-1.207-0.356-2.452-0.536-3.7-0.536-1.197 0-2.386 0.165-3.539 0.491-0.508-0.674-0.946-1.4-1.303-2.162-0.238-0.507-0.441-1.033-0.607-1.571z" fill="#c0311a"/></g><g transform="translate(304.89 175.06)"><path d="m0 0h-18.544c-0.068-0.251-0.129-0.505-0.181-0.76-0.331-1.618-0.335-3.253-0.011-4.858 0.312-1.551 0.914-3.009 1.79-4.335s1.981-2.453 3.285-3.348c1.327-0.911 2.803-1.542 4.389-1.877 1.586 0.335 3.062 0.966 4.389 1.877 1.304 0.895 2.409 2.022 3.285 3.348s1.478 2.784 1.79 4.335c0.323 1.605 0.32 3.24-0.011 4.858-0.052 0.255-0.113 0.509-0.181 0.76" fill="#005a9c"/></g><g transform="translate(299.06 177.48)"><path d="m0 0-0.158-0.647h0.324zm0.404-1.579-0.159 0.616h-0.483l-0.15-0.616h-0.324l0.562 2.25h0.316l0.562-2.25z" fill="#fff"/></g><g transform="translate(292.54 175.9)"><path d="m0 0v2.25h1.061v-0.316h-0.736v-0.568h0.467v-0.308h-0.467v-0.742h0.823v-0.316z" fill="#fff"/></g><path d="m288.7 178.15h0.315v-2.25h-0.315z" fill="#fff"/><g transform="translate(290.52 175.9)"><path d="m0 0-0.693 1.508v-1.508h-0.323v2.25h0.323l0.614-1.35v1.35h0.323v-2.25z" fill="#fff"/></g><g transform="translate(294.73 177.84)"><path d="m0 0h-0.331v-0.568h0.331c0.189 0 0.291 0.102 0.291 0.284 0 0.173-0.118 0.284-0.291 0.284m0.276-1.934-0.3 1.058h-0.307v-1.058h-0.323v2.25h0.67c0.354 0 0.591-0.237 0.591-0.6 0-0.269-0.111-0.466-0.323-0.545l0.323-1.105z" fill="#fff"/></g><g transform="translate(296.25 176.94)"><path d="m0 0c-0.097 0.063-0.192 0.126-0.252 0.169-0.182 0.128-0.278 0.3-0.278 0.497 0 0.324 0.254 0.584 0.579 0.584 0.317 0 0.563-0.244 0.571-0.584h-0.309c-8e-3 0.158-0.119 0.261-0.262 0.261-0.151 0-0.269-0.111-0.269-0.261 0-0.11 0.047-0.173 0.214-0.268 0.436-0.253 0.626-0.498 0.626-0.821 0-0.363-0.278-0.656-0.626-0.656-0.397 0-0.635 0.332-0.635 0.703h0.317c0-0.189 0.096-0.387 0.318-0.387 0.174 0 0.317 0.158 0.317 0.34 0 0.141-0.059 0.26-0.311 0.423" fill="#fff"/></g><g transform="translate(291.82 177.85)"><path d="m0 0v-1.95h-0.325v1.95h-0.411v0.3h1.148v-0.3z" fill="#fff"/></g><g transform="translate(301.39 175.9)"><path d="m0 0v2.25h1.061v-0.316h-0.736v-0.568h0.467v-0.308h-0.467v-0.742h0.823v-0.316z" fill="#fff"/></g><g transform="translate(300.66 177.85)"><path d="m0 0v-1.95h-0.325v1.95h-0.411v0.3h1.148v-0.3z" fill="#fff"/></g><g transform="translate(297.8 177.85)"><path d="m0 0v-1.95h-0.325v1.95h-0.411v0.3h1.148v-0.3z" fill="#fff"/></g><g transform="translate(300.02 171.28)"><path d="m0 0-2.408-3.168h2.408zm1.338-4.382v-2.102h-1.338v2.102h-4.192v0.8l4.192 5.536h1.338v-5.122h0.803v-1.214z" fill="#fff"/></g><g transform="translate(291.94 172.02)"><path d="m0 0c-0.651 0-1.184-0.444-1.184-1.007 0-0.503 0.533-0.917 1.184-0.917s1.184 0.414 1.184 0.917c0 0.563-0.533 1.007-1.184 1.007m0-3.286c-0.829 0-1.51-0.563-1.51-1.273 0-0.8 0.681-1.451 1.51-1.451 0.859 0 1.539 0.651 1.539 1.451 0 0.71-0.71 1.273-1.539 1.273m0-4.086c-1.54 0-2.872 1.303-2.872 2.842 0 0.8 0.355 1.451 0.977 1.954-0.414 0.444-0.622 0.948-0.622 1.54 0 1.302 1.155 2.398 2.517 2.398s2.546-1.096 2.546-2.398c0-0.592-0.237-1.096-0.651-1.54 0.651-0.503 0.977-1.184 0.977-1.954 0-1.539-1.333-2.842-2.872-2.842" fill="#fff"/></g><g transform="translate(324.56 171.26)"><path d="m0 0v6.834h5.005v-1.223h-3.753v-1.271h2.045v-1.246h-2.045v-1.871h3.874v-1.223z" fill="#fff"/></g><g transform="translate(333.19 174.33)"><path d="m0 0c-0.305 0.085-1.069 0.268-1.327 0.419-0.516 0.302-0.909 0.795-0.909 1.526 0 1.127 0.965 1.895 2.361 1.895 1.011 0 1.854-0.336 2.553-1.055l-0.915-0.816c-0.435 0.456-0.988 0.672-1.638 0.672-0.699 0-1.108-0.264-1.108-0.696 0-0.384 0.241-0.551 1.083-0.743 0.916-0.192 1.517-0.384 1.903-0.575 0.602-0.312 0.989-0.96 0.989-1.703 0-0.696-0.314-1.223-0.963-1.607-0.483-0.288-1.109-0.456-1.735-0.456-1.18 0-2.072 0.432-2.842 1.319l0.986 0.767c0.507-0.599 1.06-0.862 1.831-0.862 0.867 0 1.494 0.383 1.494 0.886 0 0.642-0.699 0.735-1.763 1.029" fill="#fff"/></g><g transform="translate(340.1 176.9)"><path d="m0 0v-5.635h-1.196v5.635h-1.964v1.199h5.125v-1.199z" fill="#fff"/></g><g transform="translate(321.62 171.26)"><path d="m0 0h-1.601l-1.363 5.655-1.333-5.655h-1.6l-1.541 8.438h1.569l0.919-5.448 1.247 5.448h1.51l1.304-5.448 0.86 5.448h1.541z" fill="#fff"/></g><g transform="translate(446.93 169.58)"><path d="m0 0c0-5.592-4.534-10.125-10.126-10.125-5.591 0-10.124 4.533-10.124 10.125s4.533 10.125 10.124 10.125c5.592 0 10.126-4.533 10.126-10.125" fill="#fff"/></g><g transform="translate(442.84 169.09)"><path d="m0 0c-1.363-0.847-2.617-1.222-3.375-3.106h4.973v-1.634h-6.89c0.034 1.173 0.279 2.134 0.852 3.091 1.776 2.969 4.44 2.642 4.44 4.228 0 0.746-0.852 1.35-1.848 1.35-1.029 0-1.669-0.498-1.846-1.421l-1.598 0.355c0.353 1.67 1.669 2.7 3.444 2.7 1.919 0 3.446-1.35 3.446-3.019 0-1.211-0.695-1.982-1.598-2.544"/></g><g transform="translate(434.84 171.67)"><path d="m0 0c-0.894-1.492-1.571-3.198-1.894-4.832-0.142-0.853-0.214-1.492-0.214-2.487h-1.642c0.036 2.345 0.463 4.299 1.463 6.431 0.357 0.781 0.787 1.527 1.144 2.096h-4.858v1.598h6.893v-1.598c-0.357-0.462-0.572-0.676-0.892-1.208"/></g><g transform="translate(465.75 171.26)"><path d="m0 0v6.834h5.005v-1.223h-3.753v-1.271h2.045v-1.246h-2.045v-1.871h3.874v-1.223z" fill="#fff"/></g><g transform="translate(474.38 174.33)"><path d="m0 0c-0.305 0.085-1.068 0.268-1.327 0.419-0.516 0.302-0.909 0.795-0.909 1.526 0 1.127 0.965 1.895 2.361 1.895 1.011 0 1.854-0.336 2.553-1.055l-0.915-0.816c-0.434 0.456-0.987 0.672-1.638 0.672-0.699 0-1.107-0.264-1.107-0.696 0-0.384 0.24-0.551 1.082-0.743 0.916-0.192 1.517-0.384 1.903-0.575 0.602-0.312 0.989-0.96 0.989-1.703 0-0.696-0.314-1.223-0.963-1.607-0.483-0.288-1.109-0.456-1.735-0.456-1.18 0-2.071 0.432-2.842 1.319l0.987 0.767c0.506-0.599 1.059-0.862 1.83-0.862 0.867 0 1.494 0.383 1.494 0.886 0 0.642-0.699 0.735-1.763 1.029" fill="#fff"/></g><g transform="translate(481.28 176.9)"><path d="m0 0v-5.635h-1.196v5.635h-1.963v1.199h5.124v-1.199z" fill="#fff"/></g><g transform="translate(462.8 171.26)"><path d="m0 0h-1.601l-1.363 5.655-1.333-5.655h-1.6l-1.541 8.438h1.569l0.919-5.448 1.247 5.448h1.51l1.304-5.448 0.86 5.448h1.541z" fill="#fff"/></g><g transform="translate(451.26 188.26)"><path d="m0 0c-0.999 0-1.812 0.813-1.812 1.812v13.501c0 0.999 0.813 1.812 1.812 1.812h60.749c0.999 0 1.813-0.813 1.813-1.812v-13.501c0-0.999-0.814-1.812-1.813-1.812z" fill="#fff"/></g><g transform="translate(512.01 205.51)"><path d="m0 0h-60.749c-1.068 0-1.937-0.869-1.937-1.937v-13.501c0-1.068 0.869-1.937 1.937-1.937h60.749c1.068 0 1.937 0.869 1.937 1.937v13.501c0 1.068-0.869 1.937-1.937 1.937m0-0.25c0.932 0 1.687-0.756 1.687-1.687v-13.501c0-0.932-0.755-1.687-1.687-1.687h-60.749c-0.932 0-1.687 0.755-1.687 1.687v13.501c0 0.931 0.755 1.687 1.687 1.687z"/></g><g transform="translate(451.26 189.51)"><path d="m0 0c-0.31 0-0.562 0.252-0.562 0.562v13.501c0 0.31 0.252 0.562 0.562 0.562h60.749c0.31 0 0.563-0.252 0.563-0.562v-13.501c0-0.31-0.253-0.562-0.563-0.562z" fill="#006f51"/></g><g transform="translate(460.42 194.01)"><path d="m0 0v5.625h4.12v-1.007h-3.09v-1.046h1.683v-1.026h-1.683v-1.539h3.189v-1.007z" fill="#fff"/></g><path d="m471.83 199.64h1.013v-5.625h-1.013z" fill="#fff"/><g transform="translate(476.59 198.65)"><path d="m0 0v-4.638h-0.986v4.638h-1.616v0.987h4.219v-0.987z" fill="#fff"/></g><g transform="translate(469.29 194.01)"><path d="m0 0-1.269 1.993-1.249-1.993h-1.189l1.844 2.96-1.685 2.665h1.209l1.07-1.717 1.071 1.717h1.209l-1.665-2.665 1.843-2.96z" fill="#fff"/></g><g transform="translate(491.86 199.06)"><path d="m0 0-3.286-3.375h3.286zm1.48-4.737v-1.717h-1.48v1.717h-5.211v1.362l5.211 5.358h1.48v-5.358h1.243v-1.362z" fill="#fff"/></g><g transform="translate(499.31 199.68)"><path d="m0 0c-1.07 0-1.785-0.415-1.785-1.066 0-0.622 0.715-1.066 1.815-1.066 1.01 0 1.725 0.444 1.725 1.066s-0.715 1.066-1.755 1.066m1.308-6.277c-0.952-0.681-1.933-0.947-3.389-0.947v1.539h0.148c0.863 0 1.488 0.149 2.081 0.474 0.774 0.445 1.22 0.947 1.636 1.865-0.744-0.237-1.22-0.295-1.904-0.295-1.843 0-3.181 1.095-3.181 2.575 0 1.51 1.338 2.575 3.241 2.575 1.04 0 1.932-0.324 2.588-0.888 0.712-0.621 1.01-1.45 1.01-2.575 0-1.776-0.773-3.345-2.23-4.323" fill="#fff"/></g><g transform="translate(465.54 131.84)"><path d="m0 0v5.625h4.12v-1.007h-3.09v-1.046h1.683v-1.026h-1.683v-1.539h3.189v-1.007z" fill="#fff"/></g><path d="m457.89 137.47h1.013v-5.625h-1.013z" fill="#fff"/><g transform="translate(460.36 131.84)"><path d="m0 0v5.625h1.01v-4.757h3.209v-0.868z" fill="#fff"/></g><g transform="translate(455.44 131.84)"><path d="m0 0v3.434l-1.664-3.434-1.645 3.434v-3.434h-0.99v5.625h0.99l1.645-3.335 1.664 3.335h0.991v-5.625z" fill="#fff"/></g><g transform="translate(441.23 130.44)"><path d="m0 0 0.029 6.306h-1.059l-0.03 1.214c0.648 0.148 1.001 0.385 1.325 0.918h1.207v-8.438z" fill="#fff"/></g><g transform="translate(159.79 539.89)"><path d="m0 0v152.53h-7v-175.36l6.859-0.982c26.774 91.578 76.81 177.3 91.04 196.54l-5.627 4.163c-13.278-17.949-57.274-92.935-85.272-176.89" fill="#b1b4b6"/><path d="m0 0v152.53h-7v-175.36l6.859-0.982c26.774 91.578 76.81 177.3 91.04 196.54l-5.627 4.163c-13.278-17.949-57.274-92.935-85.272-176.89z" fill="none" stroke="#000" stroke-width="2"/></g><g transform="translate(160.29 617.55)"><path d="m0 0c-0.084-15.25 16.82-28.254 27.849-4.395l7.966-5.715-38.916-100.42-6.167 1.333 1.667 109.58z" fill="#b1b4b6"/><path d="m0 0c-0.084-15.25 16.82-28.254 27.849-4.395l7.966-5.715-38.916-100.42-6.167 1.333 1.667 109.58z" fill="none" stroke="#000"/></g><g transform="translate(159.79 539.89)"><path d="m0 0v152.53h-7v-175.36l5.532-11.973c26.775 91.578 78.137 188.3 92.367 207.53l-5.627 4.163c-13.278-17.949-57.274-92.935-85.272-176.89" fill="#b1b4b6"/></g><g transform="translate(185.31 590.93)"><path d="m0 0c-0.767-0.441-18.313-9.918-20.148-10.973-0.583 1.017-21.175 33.377-22.385 35.482 0.248 0.748 1.204 3.631 2.111 6.365 1.224-2.131 22.118-35.019 22.118-35.019s18.038 9.759 20.668 11.269c-1.041-3.137-2.15-6.479-2.364-7.124" fill="#fff"/></g><g transform="translate(171.38 561.76)"><path d="m0 0s-0.144-0.43-0.266-0.796c-0.622-0.405-8.261-5.137-9.827-6.159-0.64 0.983-13.4 18.261-14.899 20.557 0.053 0.176 0.112 0.375 0.112 0.375s1.041 3.138 1.892 5.702c2.203-3.376 14.348-19.714 14.348-19.714s10.869 6.84 10.907 6.864c-1.062-3.198-2.267-6.829-2.267-6.829" fill="#fff"/></g><g transform="translate(156.58 539.55)"><path d="m0 0 2.136-2.9s4.466 2.932 5.923 4.004c-0.348-1.038-2.503-7.466-2.763-8.244-0.421-0.311-3.189-1.992-4.22-2.751-0.695 0.943-3.398 4.346-3.65 4.691-0.061 0.752-0.656 8.346-0.742 9.437 0.809-1.101 3.316-4.237 3.316-4.237" fill="#fff"/></g><g transform="translate(280.87 691.77)"><path d="m0 0-32.197 22.336c-12.342-16.683-67.215-113.25-93.094-203.38l-0.295 181.69h-57.56v-615.44h79.119v313.64c1.816 26.529 5.797 65.035 11.709 90.184 22.58 96.051 78.507 192.29 92.318 210.96" fill="#b1b4b6"/></g><g transform="translate(155.29 609.87)"><path d="m0 0v82.546" fill="none" stroke="#fff" stroke-width="2"/></g><g transform="translate(187.82 602.69)"><path d="m0 0c-11.623-26.546-22.805-55.78-31.531-85.629v92.815" fill="none" stroke="#fff" stroke-width="4"/></g><g transform="translate(248.77 714.28)"><path d="m0 0c-9.903-13.388-35.928-56.908-60.053-112.01" fill="none" stroke="#ffd046" stroke-width="2"/></g><g transform="translate(155.29 692.42)"><path d="m0 0h-57.559v-615.44h79.119v313.63c1.815 26.53 5.796 65.041 11.709 90.193 22.58 96.051 78.507 192.29 92.317 210.96" fill="none" stroke="#000"/></g><g transform="translate(223.72 633.03)"><path d="m0 0c16.955 34.104 32.556 59.78 40.048 69.909" fill="none" stroke="#fff" stroke-dasharray="14.4, 43.2" stroke-width="2"/></g><g transform="translate(156.29 324.35)"><path d="m0 0v49.009c0 18.076 4.111 73.995 12.987 111.75 8.863 37.701 22.71 75.531 37.312 109.03" fill="none" stroke="#fff" stroke-width="4"/></g><g transform="translate(156.29 178.94)"><path d="m0 0v145.41" fill="none" stroke="#fff" stroke-dasharray="3, 9" stroke-width="4"/></g><g transform="translate(116.51 96.503)"><path d="m0 0v601.55" fill="none" stroke="#fff" stroke-dasharray="14.4, 43.2" stroke-width="2"/></g><g transform="translate(135.79 96.503)"><path d="m0 0v601.55" fill="none" stroke="#fff" stroke-dasharray="14.4, 43.2" stroke-width="2"/></g><g transform="translate(157.07 96.503)"><path d="m0 0v73.535" fill="none" stroke="#fff" stroke-dasharray="14.4, 43.2" stroke-width="2"/></g><g transform="translate(190.55 311.99)"><path d="m0 0-39.732 10.84-18.951-10.674-41.726 12.615v8.25l41.726-12.617 18.951 10.674 39.732-10.84z" fill="#fff"/><path d="m0 0-39.732 10.84-18.951-10.674-41.726 12.615v8.25l41.726-12.617 18.951 10.674 39.732-10.84z" fill="none" stroke="#000"/></g><path d="m91.207 318.79h-6.449v19.047h6.449z" fill="#fff"/><path d="m194.75 310.24h-11.376v19.049h11.376z" fill="#fff"/><g transform="translate(190.55 204.92)"><path d="m0 0-39.732 10.635-18.951-10.674-41.726 12.615v8.248l41.726-12.615 18.951 10.674 39.732-10.635z" fill="#fff"/><path d="m0 0-39.732 10.635-18.951-10.674-41.726 12.615v8.248l41.726-12.615 18.951 10.674 39.732-10.635z" fill="none" stroke="#000"/></g><g fill="#fff"><path d="m91.207 208.4h-6.449v19.047h6.449z"/><path d="m192.9 199.85h-9.53v19.049h9.53z"/><path d="m198.11 66.273h-120.5v15.5h120.5z"/><path d="m167.19 690.88h-78.086v9.896h78.086z"/></g><g transform="translate(281.91 661.93)"><path d="m0 0-56.413 30.226 15.495 28.916 56.412-30.226z" fill="#fff"/></g><g transform="translate(82.773 151.76)"><path d="m0 0h107.83" fill="none" stroke="#000"/></g><g transform="translate(84.685 151.9)"><path d="m0 0c0-1.049-0.85-1.898-1.898-1.898s-1.899 0.849-1.899 1.898 0.851 1.898 1.899 1.898 1.898-0.849 1.898-1.898"/><path d="m0 0c0-1.049-0.85-1.898-1.898-1.898s-1.899 0.849-1.899 1.898 0.851 1.898 1.899 1.898 1.898-0.849 1.898-1.898z" fill="none" stroke="#000"/></g><g transform="translate(192.4 151.9)"><path d="m0 0c0-1.049-0.852-1.898-1.902-1.898-1.047 0-1.897 0.849-1.897 1.898s0.85 1.898 1.897 1.898c1.05 0 1.902-0.849 1.902-1.898"/><path d="m0 0c0-1.049-0.852-1.898-1.902-1.898-1.047 0-1.897 0.849-1.897 1.898s0.85 1.898 1.897 1.898c1.05 0 1.902-0.849 1.902-1.898z" fill="none" stroke="#000"/></g><g transform="translate(105.33 150.6)"><path d="m0 0h62.895" fill="none" stroke="#000" stroke-width="1.725"/></g><g transform="translate(82.773 385.15)"><path d="m0 0h107.83" fill="none" stroke="#000"/></g><g transform="translate(84.685 385.29)"><path d="m0 0c0-1.049-0.85-1.898-1.898-1.898s-1.899 0.849-1.899 1.898 0.851 1.898 1.899 1.898 1.898-0.849 1.898-1.898"/><path d="m0 0c0-1.049-0.85-1.898-1.898-1.898s-1.899 0.849-1.899 1.898 0.851 1.898 1.899 1.898 1.898-0.849 1.898-1.898z" fill="none" stroke="#000"/></g><g transform="translate(192.4 385.29)"><path d="m0 0c0-1.049-0.852-1.898-1.902-1.898-1.047 0-1.897 0.849-1.897 1.898s0.85 1.898 1.897 1.898c1.05 0 1.902-0.849 1.902-1.898"/><path d="m0 0c0-1.049-0.852-1.898-1.902-1.898-1.047 0-1.897 0.849-1.897 1.898s0.85 1.898 1.897 1.898c1.05 0 1.902-0.849 1.902-1.898z" fill="none" stroke="#000"/></g><g transform="translate(105.33 383.99)"><path d="m0 0h65.69" fill="none" stroke="#000" stroke-width="1.725"/></g></g><text transform="matrix(1 0 0 -1 120.94 696.95)" fill="black" font-family="Helvetica" font-size="9px"><tspan x="0 2.5020001 5.4990001 10.503" y="0">I-84</tspan><tspan x="127.647 134.145 139.149 146.646 151.64999 154.15199 156.65401 161.658 164.16 170.16299 176.661 179.16299 184.16701" y="12.969">Ramp to SR 72</tspan><tspan x="9.5670004 12.069 15.066 20.07" y="626.86798">I-84</tspan></text><g transform="translate(165.46 685.86)"><path d="m0 0v1.245h4.796v-1.245h1.759v-1.761h-8.474v1.761h0.96z"/></g><g clip-path="url(#a)"><g transform="translate(167.78 680.54)"><path d="m0 0c0-42.47-73.989-25.027-92.74-25.027" fill="none" stroke="#000" stroke-width=".75"/></g><g transform="translate(168.31 681.78)"><path d="m0 0c0.263-0.868 0.504-1.433 0.783-2.129h-2.648c0.118 0.249 0.521 1.261 0.783 2.129 0.28 0.929 0.473 1.771 0.541 2.317 0.068-0.546 0.261-1.388 0.541-2.317"/></g><g transform="translate(176.11 616.69)"><path d="m0 0v1.245h-4.796v-1.245h-1.759v-1.761h8.474v1.761h-0.96z"/></g><g transform="translate(173.79 611.37)"><path d="m0 0c0-61.927 65.756-84.877 108.8-84.877" fill="none" stroke="#000" stroke-width=".75"/></g><g transform="translate(173.25 612.61)"><path d="m0 0c-0.263-0.868-0.504-1.433-0.783-2.129h2.648c-0.118 0.249-0.521 1.261-0.783 2.129-0.28 0.929-0.473 1.771-0.541 2.317-0.068-0.546-0.261-1.388-0.541-2.317"/></g><g transform="translate(136.77 146.05)"><path d="m0 0c0-61.926 55.63-18.657 90.399-18.657" fill="none" stroke="#000" stroke-width=".75"/></g><g transform="translate(136.23 147.29)"><path d="m0 0c-0.263-0.867-0.504-1.432-0.783-2.129h2.648c-0.118 0.25-0.521 1.262-0.783 2.129-0.28 0.93-0.473 1.771-0.541 2.318-0.068-0.547-0.261-1.388-0.541-2.318"/></g><g transform="translate(138.17 379.43)"><path d="m0 0c0-74.559 15.095-25.105 88.874-25.105" fill="none" stroke="#000" stroke-width=".75"/></g><g transform="translate(137.63 380.67)"><path d="m0 0c-0.263-0.867-0.504-1.432-0.783-2.129h2.648c-0.118 0.25-0.521 1.262-0.783 2.129-0.28 0.93-0.473 1.771-0.541 2.318-0.068-0.547-0.261-1.388-0.541-2.318"/></g><g transform="translate(138.17 262.04)"><path d="m0 0c0-57.125 69.846-42.326 69.846 20.921 0 52.581 3.316 71.367 19.028 71.367" fill="none" stroke="#000" stroke-width=".75"/></g><g transform="translate(137.63 263.28)"><path d="m0 0c-0.263-0.867-0.504-1.432-0.783-2.129h2.648c-0.118 0.25-0.521 1.262-0.783 2.129-0.28 0.93-0.473 1.772-0.541 2.318-0.068-0.546-0.261-1.388-0.541-2.318"/></g><g transform="translate(82.773 267.75)"><path d="m0 0h107.83" fill="none" stroke="#000"/></g><g transform="translate(84.685 267.9)"><path d="m0 0c0-1.049-0.85-1.898-1.898-1.898s-1.899 0.849-1.899 1.898 0.851 1.898 1.899 1.898 1.898-0.849 1.898-1.898"/><path d="m0 0c0-1.049-0.85-1.898-1.898-1.898s-1.899 0.849-1.899 1.898 0.851 1.898 1.899 1.898 1.898-0.849 1.898-1.898z" fill="none" stroke="#000"/></g><g transform="translate(192.4 267.9)"><path d="m0 0c0-1.049-0.852-1.898-1.902-1.898-1.047 0-1.897 0.849-1.897 1.898s0.85 1.898 1.897 1.898c1.05 0 1.902-0.849 1.902-1.898"/><path d="m0 0c0-1.049-0.852-1.898-1.902-1.898-1.047 0-1.897 0.849-1.897 1.898s0.85 1.898 1.897 1.898c1.05 0 1.902-0.849 1.902-1.898z" fill="none" stroke="#000"/></g><g transform="translate(105.33 266.6)"><path d="m0 0h62.895" fill="none" stroke="#000" stroke-width="1.725"/></g></g><g transform="translate(387.85 569.71)"><path d="m0 0h6.353v1.559l4.377-2.577-4.377-2.398v1.439h-6.353z"/></g><g transform="translate(409.33 578.22)"><path d="m0 0h29.291" fill="none" stroke="#000" stroke-width=".75"/></g><text transform="matrix(1 0 0 -1 408.86 581.17)" fill="black" font-family="Helvetica" font-size="9px"><tspan x="0 5.0040002 10.008 15.012 20.016001 25.02" y="0">Legend</tspan><tspan x="-7.4879999 -0.99000001 1.008 4.0050001 9.0089998 13.509 16.011 18.009001 23.013 28.017 30.518999 35.522999 38.025002 40.527 43.028999 46.026001 51.029999 55.529999 60.534" y="15.354">Direction of travel</tspan></text><g transform="translate(105.72 91.482)"><path d="m0 0v6.354h-1.559l2.577 4.376 2.398-4.376h-1.439v-6.354z"/></g><g transform="translate(124.9 91.482)"><path d="m0 0v6.354h-1.559l2.577 4.376 2.398-4.376h-1.439v-6.354z"/></g><g transform="translate(145.83 91.482)"><path d="m0 0v6.354h-1.559l2.577 4.376 2.398-4.376h-1.439v-6.354z"/></g><g transform="translate(165.88 91.482)"><path d="m0 0v6.354h-1.559l2.577 4.376 2.398-4.376h-1.439v-6.354z"/></g><g transform="translate(105.72 671.17)"><path d="m0 0v6.353h-1.559l2.577 4.377 2.398-4.377h-1.439v-6.353z"/></g><g transform="translate(124.9 671.17)"><path d="m0 0v6.353h-1.559l2.577 4.377 2.398-4.377h-1.439v-6.353z"/></g><g transform="translate(144.43 671.17)"><path d="m0 0v6.353h-1.559l2.577 4.377 2.398-4.377h-1.439v-6.353z"/></g><g transform="translate(231.81 669.28)"><path d="m0 0 3.018 5.591-1.371 0.74 4.346 2.628 0.031-4.991-1.266 0.684-3.019-5.591z"/></g><g transform="translate(249.45 659.75)"><path d="m0 0 3.018 5.591-1.371 0.74 4.346 2.628 0.031-4.991-1.266 0.684-3.019-5.591z"/></g><g transform="translate(390.16 613.07)"><path d="m0 0h78.92l-21.215 3.111-3.678-0.282 1.981-2.263" stroke="#000"/></g><g transform="translate(437.71 609.97)"><path d="m0 0v-2.665h-22.176v3.09l17.914 10.348v0.056h-17.914v2.665h22.176v-3.259l-17.912-10.177v-0.058z"/></g></g></svg>
