<?xml version="1.0" encoding="UTF-8"?>
<svg width="687.3" height="877.88" version="1.1" viewBox="0 0 687.3 877.88" xml:space="preserve" xmlns="http://www.w3.org/2000/svg"><defs><clipPath id="o"><path d="m0 41.4h560.82v700.2h-560.82z"/></clipPath><clipPath id="n"><path d="m0 41.4h560.82v700.2h-560.82z"/></clipPath><clipPath id="m"><path d="m0 41.4h560.82v700.2h-560.82z"/></clipPath><clipPath id="l"><path d="m0 41.4h560.82v700.2h-560.82z"/></clipPath><clipPath id="k"><path d="m0 41.4h560.82v700.2h-560.82z"/></clipPath><clipPath id="j"><path d="m0 41.4h560.82v700.2h-560.82z"/></clipPath><clipPath id="i"><path d="m0 41.4h560.82v700.2h-560.82z"/></clipPath><clipPath id="h"><path d="m0 41.4h560.82v700.2h-560.82z"/></clipPath><clipPath id="g"><path d="m0 41.4h560.82v700.2h-560.82z"/></clipPath><clipPath id="f"><path d="m0 41.4h560.82v700.2h-560.82z"/></clipPath><clipPath id="e"><path d="m0 41.4h560.82v700.2h-560.82z"/></clipPath><clipPath id="d"><path d="m0 41.4h560.82v700.2h-560.82z"/></clipPath><clipPath id="c"><path d="m0 41.4h560.82v700.2h-560.82z"/></clipPath><clipPath id="b"><path d="m0 41.4h560.82v700.2h-560.82z"/></clipPath><clipPath id="a"><path d="m0 41.4h560.82v700.2h-560.82z"/></clipPath></defs><g transform="matrix(1.3333 0 0 -1.3333 -31.72 938.05)"><g clip-path="url(#o)"><g transform="translate(94.576 493.89)"><path d="m0 0c1.811 2.176 3.737 4.638 5.796 7.269 11.917 15.232 29.926 38.251 63.614 52.291 19.776 8.241 38.176 16.1 55.975 23.702 20.611 8.803 40.08 17.118 59.985 25.311 3.7 1.522 7.406 3.068 11.129 4.621l0.587 0.245c22.151 9.245 47.056 15.804 72.736 22.411 13.216 3.4 26.849 6.459 43.844 9.332 1.66 0.28 4.85-1.819 6.546-1.547 26.678 4.278 57.71 7.424 92.813 8.133l28.363 0.573-0.146 37.881h-242.06v-30.635h115.07c0.565 0 0.589-0.8 0.03-0.881-42.291-6.117-75.451-12.625-130.53-31.564-6.228-2.142-12.907-4.438-20.13-6.907-8.845-3.024-17.503-5.977-25.875-8.832l-1.119-0.382c-22.769-7.764-44.275-15.098-60.951-20.923-25.845-9.025-49.919-11.974-71.556-8.767-20.364 3.019-39.253 11.602-56.144 25.511l-8.581-10.421c23.992-19.759 51.733-29.778 82.449-29.778 13.504 0 27.707 1.958 42.39 5.832 1.22 0.28 1.876-0.187 0.175-0.916-36.672-15.709-56.126-40.013-68.9-56.339-1.967-2.514-3.824-4.888-5.502-6.905z" fill="#b1b4b6" fill-rule="evenodd"/></g><g transform="translate(260.22 608.21)"><path d="m0 0c-9.241-3.159-18.278-6.241-26.999-9.215-22.774-7.767-44.286-15.103-60.907-20.908-19.68-6.872-38.335-10.304-55.893-10.304-29.043 0-55.088 9.387-77.84 28.124" fill="none" stroke="#b1b4b6" stroke-width="6"/></g><g transform="translate(262 603)"><path d="m0 0c-9.242-3.159-18.28-6.242-27.002-9.216-22.761-7.763-44.26-15.095-60.869-20.894-20.164-7.042-39.579-10.613-57.706-10.613-30.3 0-57.665 9.885-81.336 29.379" fill="none" stroke="#b1b4b6" stroke-width="3"/></g><g transform="translate(89.003 498.52)"><path d="m0 0c1.746 2.099 3.646 4.527 5.657 7.097 12.383 15.828 31.096 39.748 66.537 54.517 19.702 8.211 38.11 16.073 55.911 23.676 20.636 8.813 40.127 17.138 60.078 25.349 3.883 1.599 7.773 3.222 11.683 4.854 22.387 9.343 47.537 16.003 73.722 22.741 35.357 9.096 84.141 17.552 144.86 18.778l28.363 0.573" fill="none" stroke="#b1b4b6" stroke-width="6"/></g><g transform="translate(535.93 650.61)"><path d="m0 0-28.363-0.573c-60.304-1.217-108.65-9.614-143.6-18.606-25.802-6.639-50.766-13.222-72.974-22.49-3.918-1.635-7.816-3.262-11.708-4.864-19.917-8.198-39.393-16.515-60.011-25.321-17.812-7.608-36.231-15.474-55.956-23.695-34.111-14.215-52.291-37.452-64.321-52.829-2.037-2.604-3.962-5.064-5.761-7.226" fill="none" stroke="#b1b4b6" stroke-width="3"/></g><g transform="translate(85.544 501.4)"><path d="m0 0c1.691 2.032 3.554 4.414 5.527 6.936 12.72 16.257 31.871 40.733 68.395 55.954 19.654 8.191 38.021 16.035 55.783 23.621l0.092 0.039c20.688 8.836 40.166 17.154 60.132 25.373 3.878 1.595 7.76 3.216 11.662 4.844" fill="none" stroke="#b1b4b6" stroke-width="2"/></g><g transform="translate(86.698 500.44)"><path d="m0 0c1.717 2.064 3.603 4.475 5.6 7.027 12.577 16.075 31.581 40.366 67.746 55.438 0.298 0.124 0.596 0.248 0.893 0.372" fill="none" stroke="#ffd046"/></g><g transform="translate(158.88 570.26)"><path d="m0 0c-14.734-3.973-28.963-5.98-42.457-5.98-29.823 0-56.761 9.731-80.064 28.923" fill="none" stroke="#fff"/></g><g transform="translate(160.84 563.52)"><path d="m0 0c19.358 8.073 37.569 15.569 55.093 23.054 11.409 4.872 22.468 9.596 33.452 14.235-5.098-1.74-10.115-3.452-15.033-5.128-22.777-7.768-44.077-15.581-60.683-21.38-4.912-1.715-9.908-2.994-14.72-4.292" fill="none" stroke="#fff" stroke-width="1.5"/></g><g transform="translate(33.972 590.31)"><path d="m0 0c23.992-19.759 51.732-29.778 82.448-29.778 13.505 0 27.708 1.957 42.39 5.832 1.22 0.28 1.877-0.187 0.176-0.916-36.672-15.709-56.126-40.013-68.9-56.34-1.967-2.513-3.824-4.887-5.502-6.904" fill="none" stroke="#000" stroke-width=".5"/></g><g transform="translate(164.3 568.17)"><path d="m0 0 1.667 3.741-2.703-0.538-1.935-4.342 3.838-1.71 2.858 1.189z" fill="#fff"/></g><g transform="translate(172.66 571.38)"><path d="m0 0 1.495 3.355-2.807-0.771-1.66-3.724 3.522-1.569 2.861 1.189z" fill="#fff"/></g><g transform="translate(181.03 574.59)"><path d="m0 0 1.219 2.736-2.924-1.035-1.266-2.84 3.447-1.536 2.748 1.238z" fill="#fff"/></g><g transform="translate(189.39 577.79)"><path d="m0 0 1.097 2.462-2.929-1.044-1.14-2.558 2.891-1.288 2.856 1.192z" fill="#fff"/></g><g transform="translate(197.76 581)"><path d="m0 0 0.978 2.195-2.924-1.034-1.025-2.3 2.519-1.122 2.889 1.175z" fill="#fff"/></g><g transform="translate(206.13 584.21)"><path d="m0 0 0.856 1.92-2.817-0.793-1.01-2.266 2.219-0.989 2.825 1.204z" fill="#fff"/></g><g transform="translate(214.49 587.42)"><path d="m0 0 0.723 1.622-2.922-1.03-0.772-1.731 1.82-0.811 2.59 1.104z" fill="#fff"/></g><g transform="translate(535.82 663.11)"><path d="m0 0h-242.06" fill="none" stroke="#b1b4b6" stroke-width="6"/></g><g transform="translate(535.82 670.11)"><path d="m0 0h-242.06" fill="none" stroke="#b1b4b6" stroke-width="6"/></g><g transform="translate(535.82 682.61)"><path d="m0 0h-242.06" fill="none" stroke="#b1b4b6" stroke-width="3"/></g><g transform="translate(535.82 680.61)"><path d="m0 0h-242.06" fill="none" stroke="#ffd046"/></g><g transform="translate(535.82 677.11)"><path d="m0 0h-242.06" fill="none" stroke="#b1b4b6" stroke-width="6"/></g><g transform="translate(487.09 656.72)"><path d="m0 0h-193.33" fill="none" stroke="#b1b4b6" stroke-width="6"/></g><g transform="translate(42.553 600.73)"><path d="m0 0c16.891-13.909 35.779-22.492 56.144-25.511 21.636-3.207 45.71-0.259 71.555 8.767 16.677 5.825 38.183 13.159 60.951 20.923l1.12 0.382c8.372 2.855 17.03 5.808 25.875 8.832 7.222 2.469 13.902 4.765 20.129 6.907 31.388 10.793 64.499 22.316 130.53 31.564 0.56 0.078 0.536 0.881-0.03 0.881h-115.07" fill="none" stroke="#000" stroke-width=".5"/></g><g transform="translate(408.88 659.61)"><path d="m0 0h-115.12" fill="none" stroke="#fff"/></g><g transform="translate(476.92 659.36)"><path d="m0 0h-68.043" fill="none" stroke="#fff" stroke-width="1.5"/></g><g transform="translate(488.44 659.61)" fill="none"><path d="m0 0h39.542" stroke="#b1b4b6"/><path d="m0 0h39.542" stroke="#fff" stroke-dasharray="4.32, 12.96"/></g><g transform="translate(535.82 684.11)"><path d="m0 0h-242.06" fill="none" stroke="#000" stroke-width=".5"/></g><g transform="translate(91.694 496.29)"><path d="m0 0c12.506 15.028 30.513 43.812 70.85 60.622 42.352 17.65 79.686 33.672 116.97 49.019 26.082 10.735 53.458 19.598 83.946 27.442 37.921 9.756 88.79 17.553 144.06 18.669l28.364 0.572" fill="none" stroke="#fff"/></g><g transform="translate(409.75 650.74)"><path d="m0 0c-71.362-9.612-105.78-23.879-150.67-39.221-33.908-11.59-65.064-22.146-87.929-30.13-54.189-18.924-96.667-10.525-130.35 17.217" fill="none" stroke="#ffd046"/></g><g transform="translate(416.17 659.3)"><path d="m0 0-4.209-5.103 2.923-2.41 3.005 0.439-2.76 2.276 3.952 4.79z" fill="#fff"/></g><g transform="translate(426.34 653.47)"><path d="m0 0-2.293 1.891 3.266 3.96h-2.916l-3.517-4.264 2.45-2.02z" fill="#fff"/></g><g transform="translate(432.84 659.61)"><path d="m0 0-3.046-3.693 2.037-1.68 3.044 0.406-1.913 1.578 2.795 3.389z" fill="#fff"/></g><g transform="translate(440.82 659.32)"><path d="m0 0-2.104-2.551 1.721-1.42 3.082 0.375-1.636 1.349 1.853 2.247z" fill="#fff"/></g><g transform="translate(449.03 659.32)"><path d="m0 0-1.398-1.695 1.52-1.253 3.114 0.349-1.466 1.208 1.147 1.391z" fill="#fff"/></g><g transform="translate(535.96 646.13)"><path d="m0 0-28.363-0.573c-34.851-0.703-65.675-3.899-92.238-8.04-3.015-0.47-4.116 2.097-7.34 1.509-16.591-3.029-30.646-5.955-43.625-9.295-37.613-9.677-56.111-15.618-84.453-27.277-19.904-8.193-39.373-16.507-59.985-25.311-17.798-7.602-36.199-15.461-55.974-23.702-33.688-14.039-51.697-37.059-63.614-52.291-2.059-2.631-3.985-5.092-5.796-7.269" fill="none" stroke="#000" stroke-width=".5"/></g><g transform="translate(533.94 666.61)"><path d="m0 0h-242.06" fill="none" stroke="#fff" stroke-dasharray="7.2, 21.6"/></g><g transform="translate(533.94 673.61)"><path d="m0 0h-242.06" fill="none" stroke="#fff" stroke-dasharray="7.2, 21.6"/></g><g transform="translate(476.92 658.7)"><path d="m0 0c-24.269-1.248-50.381-5.059-67.327-7.753" fill="none" stroke="#fff" stroke-width="1.5"/></g><g transform="translate(234.09 45.127)"><path d="m0 0c0 70.512 56.612 116.83 116.83 116.83" fill="none" stroke="#fff" stroke-miterlimit="10" stroke-width="27.279"/></g><g transform="translate(248.73 45.127)"><path d="m0 0h-11c0 70.851 57.55 113.19 113.19 113.19h184.62v-11h-184.62c-50.231 0-102.19-38.223-102.19-102.19" fill="#b1b4b6"/></g><g transform="translate(535.55 147.32)"><path d="m0 0h-184.62c-50.231 0-102.19-38.224-102.19-102.19" fill="none" stroke="#000" stroke-miterlimit="10"/></g><g transform="translate(70.517 152.76)"><path d="m0 0c-35.316-2.653-37.188-40.361-10.228-40.361" fill="none" stroke="#000" stroke-miterlimit="10" stroke-width=".75"/></g><g transform="translate(72.641 153.29)"><path d="m0 0c-0.871 0.253-1.438 0.488-2.138 0.759l0.03-2.648c0.248 0.121 1.255 0.536 2.12 0.807 0.926 0.291 1.766 0.493 2.311 0.567-0.546 0.062-1.391 0.245-2.323 0.515"/></g><g transform="translate(75.012 148.53)"><path d="m0 0 1.761 0.02-0.021 1.839 1.245 0.014-0.054 4.795-1.245-0.014-0.021 1.839-1.76-0.02z"/></g></g><text transform="matrix(1 0 0 -1 76.839 76.672)" fill="black" font-family="Helvetica" font-size="8px"><tspan x="0 7.552 12 14.664 19.112" y="0">W4-3R</tspan></text><g transform="translate(31.545 418.93)"><path d="m0 0h504" fill="none" stroke="#000" stroke-miterlimit="10"/></g><g clip-path="url(#n)"><g transform="translate(31.545 395.15)"><path d="m0 0h504" fill="none" stroke="#fff" stroke-width="46.558"/></g><g transform="translate(398.57 368.23)"><path d="m0 0h-44.651c-106.14 0-201.22-35.653-296.22-100.16" fill="none" stroke="#fff" stroke-miterlimit="10" stroke-width="27.279"/></g><g transform="translate(49.76 279.76)"><path d="m0 0c50.326 34.175 98.488 59.013 147.24 75.934 4.886 1.696 9.768 3.307 14.65 4.835 3.544 1.109 2.733 6.342-0.981 6.342h-179.12v9.5h291.51c-42.235-2.722-83.203-11.096-124.41-25.401-48.331-16.775-96.111-41.421-146.07-75.346z" fill="#b1b4b6"/></g><g transform="translate(65.927 255.95)"><path d="m0 0-6.18 9.1c100 67.907 193.48 99.536 294.17 99.536h181.62v-11h-181.62c-98.39 0-189.9-31.025-287.99-97.636" fill="#b1b4b6"/></g><g transform="translate(535.55 353.59)"><path d="m0 0h-181.62c-98.39 0-189.9-31.024-287.99-97.636" fill="none" stroke="#000" stroke-miterlimit="10"/></g><g transform="translate(31.545 413.93)"><path d="m0 0h504" fill="none" stroke="#000" stroke-miterlimit="10"/></g><g transform="translate(31.545 395.15)"><path d="m0 0h504" fill="none" stroke="#b1b4b6" stroke-width="36.558"/></g><path d="m355.09 369.21h-21.13v12.656h21.13z" fill="#b1b4b6"/><g transform="translate(535.55 368.23)"><path d="m0 0h-181.62c-106.14 0-201.22-35.653-296.22-100.16" fill="none" stroke="#b1b4b6" stroke-miterlimit="10" stroke-width="17.279"/></g><g transform="translate(31.545 395.15)"><path d="m0 0h504" fill="none" stroke="#fff" stroke-dasharray="14.4, 43.2" stroke-width="2"/></g><g transform="translate(506.92 376.37)"><path d="m0 0h-170.87" fill="none" stroke="#fff" stroke-dasharray="14.4, 43.2" stroke-width="2"/></g><g transform="translate(35.575 386.74)"><path d="m0 0h6.354v1.559l4.376-2.577-4.376-2.398v1.439h-6.354z"/></g><g transform="translate(516.33 386.74)"><path d="m0 0h6.354v1.559l4.376-2.577-4.376-2.398v1.439h-6.354z"/></g><g transform="translate(516.33 368.66)"><path d="m0 0h6.354v1.559l4.376-2.577-4.376-2.398v1.439h-6.354z"/></g><g transform="translate(61.222 271.64)"><path d="m0 0 5.279 3.535-0.867 1.296 5.07 0.295-2.302-4.429-0.801 1.196-5.279-3.535z"/></g><g transform="translate(31.545 212.66)"><path d="m0 0h504" fill="none" stroke="#000" stroke-miterlimit="10"/></g><g transform="translate(31.545 188.88)"><path d="m0 0h504" fill="none" stroke="#fff" stroke-width="46.558"/></g><g transform="translate(31.545 207.66)"><path d="m0 0h504" fill="none" stroke="#000" stroke-miterlimit="10"/></g><g transform="translate(31.545 188.88)"><path d="m0 0h504" fill="none" stroke="#b1b4b6" stroke-width="36.558"/></g><g transform="translate(535.55 161.96)"><path d="m0 0h-184.62" fill="none" stroke="#b1b4b6" stroke-miterlimit="10" stroke-width="17.279"/></g><g transform="translate(31.545 188.88)"><path d="m0 0h504" fill="none" stroke="#fff" stroke-dasharray="14.4, 43.2" stroke-width="2"/></g></g><text transform="matrix(1 0 0 -1 198.85 111.1)" fill="black" font-family="Helvetica" font-size="8px"><tspan x="0 7.552 12 14.664 19.112" y="0">W4-6R</tspan></text><g transform="translate(35.575 180.47)"><path d="m0 0h6.354v1.559l4.376-2.577-4.376-2.398v1.439h-6.354z"/></g><g clip-path="url(#m)"><g transform="translate(234.09 45.127)"><path d="m0 0c0 70.512 56.612 116.83 116.83 116.83" fill="none" stroke="#b1b4b6" stroke-miterlimit="10" stroke-width="17.279"/></g></g><g transform="translate(233.13 47.193)"><path d="m0 0 0.337 6.345-1.556 0.082 2.804 4.234 2.163-4.498-1.437 0.077-0.337-6.345z"/></g><g clip-path="url(#l)"><g transform="translate(218.06 79.672)"><path d="m0 0c-5.603-29.599-38.109-23.737-38.109-10.933" fill="none" stroke="#000" stroke-miterlimit="10" stroke-width=".75"/></g><g transform="translate(217.7 81.86)"><path d="m0 0c-0.359-0.833-0.663-1.366-1.019-2.026l2.631-0.301c-0.089 0.261-0.375 1.312-0.537 2.204-0.173 0.955-0.269 1.814-0.275 2.364-0.13-0.535-0.416-1.35-0.8-2.241"/></g><g transform="translate(222.71 83.621)"><path d="m0 0 0.199 1.749-1.827 0.209 0.142 1.237-4.765 0.543-0.142-1.237-1.827 0.209-0.199-1.75z"/></g><path d="m23.79 403.01h515.48v19.86h-515.48z" fill="#fff"/><path d="m23.79 196.71h515.48v17.656h-515.48z" fill="#fff"/></g><g clip-path="url(#k)"><g transform="translate(535.55 359.09)"><path d="m0 0h-181.62c-99.543 0-192.04-31.326-291.08-98.585" fill="none" stroke="#fff" stroke-miterlimit="10" stroke-width="2"/></g></g><g transform="translate(377.56 170.1)"><path d="m0 0h157.98" fill="none" stroke="#fff" stroke-dasharray="14.4, 43.2" stroke-width="2"/></g><g clip-path="url(#j)"><g transform="translate(535.55 152.82)"><path d="m0 0h-184.62c-52.935 0-107.69-40.281-107.69-107.69" fill="none" stroke="#fff" stroke-miterlimit="10" stroke-width="2"/></g><g transform="translate(49.76 279.76)"><path d="m0 0c50.326 34.175 98.488 59.013 147.24 75.934 4.886 1.696 9.768 3.307 14.65 4.835 3.544 1.109 2.733 6.342-0.981 6.342h-179.12" fill="none" stroke="#010101" stroke-miterlimit="10"/></g><g transform="translate(217.51 357.11)"><path d="m0 0c-0.515-0.156-1.03-0.314-1.546-0.472-5.774-1.774-11.548-3.663-17.327-5.669-48.332-16.775-96.112-41.421-146.07-75.347" fill="none" stroke="#ffd046" stroke-miterlimit="10" stroke-width="2"/></g></g><g transform="translate(31.545 376.37)"><path d="m0 0h182.38" fill="none" stroke="#fff" stroke-miterlimit="10" stroke-width="2"/></g><g clip-path="url(#i)"><g transform="translate(213.92 375.37)"><path d="m0 0h120.04c-43.565 0-81.873-6.72-116.76-17.309" fill="none" stroke="#fff" stroke-miterlimit="10" stroke-width="4"/></g><g transform="translate(335.24 170.1)"><path d="m0 0c-26.642-3.358-52.094-15.136-71.575-33.459-24.963-23.481-38.71-55.981-38.71-91.513h-5c0 36.926 14.307 70.719 40.285 95.154 3.302 3.107 6.77 6.031 10.381 8.766 4.912 3.72 2.263 11.552-3.898 11.552h-235.18v9.5z" fill="#b1b4b6"/></g><g transform="translate(31.545 160.6)"><path d="m0 0h235.18c6.162 0 8.81-7.832 3.899-11.552-3.612-2.735-7.08-5.659-10.382-8.766-25.978-24.435-40.285-58.228-40.285-95.154" fill="none" stroke="#000" stroke-miterlimit="10"/></g><g transform="translate(272.14 170.1)"><path d="m0 0h-240.59" fill="none" stroke="#fff" stroke-miterlimit="10" stroke-width="2"/></g><g transform="translate(335.24 169.1)"><path d="m0 0h-63.1" fill="none" stroke="#fff" stroke-miterlimit="10" stroke-width="4"/></g><g transform="translate(276.7 147.32)"><path d="m0 0c-0.578-0.411-1.153-0.827-1.724-1.248-3.954-2.914-7.737-6.061-11.318-9.429-24.963-23.48-38.71-55.98-38.71-91.513" fill="none" stroke="#ffd046" stroke-miterlimit="10" stroke-width="2"/></g><g transform="translate(335.24 169.1)"><path d="m0 0c-19.487-2.456-38.932-7.637-55.274-18.368-1.301-0.855-2.586-1.733-3.854-2.634" fill="none" stroke="#fff" stroke-miterlimit="10" stroke-width="4"/></g><path d="m365.94 163.77h-32.043v12.656h32.043z" fill="#b1b4b6"/></g><text transform="matrix(1 0 0 -1 94.707 216.75)" fill="black" font-family="Helvetica" font-size="8px"><tspan x="0 7.552 12 14.664 19.112" y="0">W4-6R</tspan><tspan x="34.984001 42.535999 46.984001 49.647999 54.096001" y="-200.07201">W4-3R</tspan></text><g clip-path="url(#h)"><g transform="translate(70.521 359.38)"><path d="m0 0c-26.564 0.176-26.11 73.979 9.607 73.979" fill="none" stroke="#000" stroke-miterlimit="10" stroke-width=".75"/></g></g><g transform="translate(76.719 357.07)"><path d="m0 0 1.245-3e-3 0.013 4.795-1.245 4e-3 5e-3 1.759-1.76 5e-3 -0.012-4.238-0.012-4.236 1.761-5e-3z"/></g><g clip-path="url(#g)"><g transform="translate(72.648 359.94)"><path d="m0 0c-0.867 0.265-1.431 0.508-2.127 0.789l-7e-3 -2.648c0.249 0.117 1.262 0.518 2.131 0.777 0.929 0.278 1.773 0.468 2.319 0.535-0.546 0.069-1.388 0.264-2.316 0.547"/></g><g transform="translate(62.846 295.46)"><path d="m0 0c-59.096-44.23-13.395-88.105 24.114-67.48" fill="none" stroke="#000" stroke-miterlimit="10" stroke-width=".75"/></g><g transform="translate(64.28 297.11)"><path d="m0 0c-0.86-0.289-1.459-0.42-2.189-0.596l1.536-2.158c0.134 0.241 0.725 1.156 1.28 1.872 0.594 0.767 1.17 1.413 1.575 1.785-0.485-0.261-1.283-0.593-2.202-0.903"/></g><g transform="translate(68.938 294.57)"><path d="m0 0 1.435 1.021-1.066 1.498 1.014 0.722-2.78 3.908-1.015-0.722-1.066 1.498-1.435-1.021z"/></g><g transform="translate(109.1 405.96)"><path d="m0 0c-0.695 0-1.349 0.271-1.84 0.762l-24.523 24.523c-1.014 1.014-1.014 2.665 0 3.68l24.523 24.523c0.491 0.491 1.145 0.762 1.84 0.762s1.349-0.271 1.84-0.762l24.523-24.523c1.014-1.015 1.014-2.666 0-3.68l-24.523-24.523c-0.491-0.491-1.145-0.762-1.84-0.762" fill="#ffd046"/></g><g transform="translate(109.1 460.33)"><path d="m0 0c-0.728 0-1.413-0.284-1.928-0.799l-24.523-24.523c-1.064-1.063-1.064-2.793 0-3.856l24.523-24.523c0.515-0.515 1.2-0.799 1.928-0.799s1.413 0.284 1.928 0.799l24.523 24.523c1.064 1.063 1.064 2.793 0 3.856l-24.523 24.523c-0.515 0.515-1.2 0.799-1.928 0.799m0-0.25c0.634 0 1.268-0.242 1.752-0.726l24.522-24.522c0.968-0.968 0.968-2.536 0-3.504l-24.522-24.522c-0.484-0.484-1.118-0.726-1.752-0.726s-1.268 0.242-1.752 0.726l-24.522 24.522c-0.968 0.968-0.968 2.536 0 3.504l24.522 24.522c0.484 0.484 1.118 0.726 1.752 0.726"/></g><g transform="translate(107.84 458.87)"><path d="m0 0c0.698 0.698 1.833 0.698 2.53 0l24.523-24.523c0.698-0.697 0.698-1.832 0-2.53l-24.523-24.523c-0.697-0.697-1.832-0.697-2.53 0l-24.523 24.523c-0.697 0.698-0.697 1.833 0 2.53z"/></g><g transform="translate(108.52 458.19)"><path d="m0 0c0.322 0.322 0.846 0.322 1.168 0l24.523-24.523c0.322-0.322 0.322-0.846 0-1.168l-24.523-24.522c-0.322-0.322-0.846-0.322-1.168 0l-24.523 24.522c-0.322 0.322-0.322 0.846 0 1.168z" fill="#ffd046"/></g><g transform="translate(114.8 435.7)"><path d="m0 0 8.343 5.637-8.343 5.637c-0.132 0.091-0.292 0.143-0.464 0.143-0.456 0-0.826-0.369-0.826-0.825 0-0.105 0.02-0.205 0.055-0.297l0.911-2.446h-19.407v-4.404h19.414l-0.918-2.465c-0.035-0.092-0.055-0.192-0.055-0.297 0-0.456 0.37-0.826 0.826-0.826 0.172 0 0.332 0.053 0.464 0.143"/></g><g transform="translate(102.69 428.62)"><path d="m0 0c1.226 1.226 2.654 2.189 4.243 2.861 1.645 0.696 3.392 1.049 5.194 1.049h2e-3v1.651h-22.845v-1.651h15.996c-1.385-0.711-2.645-1.63-3.758-2.742l-5.761-5.761 1.168-1.168z"/></g><g transform="translate(109.7 421.62)"><path d="m0 0c0.65 0.65 1.514 1.008 2.433 1.008h2.345l-0.914-2.456c-0.035-0.092-0.055-0.192-0.055-0.297 0-0.456 0.37-0.825 0.826-0.825 0.172 0 0.332 0.052 0.464 0.142l8.344 5.638-8.344 5.637c-0.132 0.09-0.292 0.143-0.464 0.143-0.456 0-0.826-0.37-0.826-0.826 0-0.105 0.02-0.205 0.055-0.297l0.914-2.455h-2.345c-1.058 0-2.086-0.208-3.054-0.618-0.935-0.395-1.773-0.96-2.493-1.68l-5.761-5.76 3.115-3.115z"/></g><g><path d="m114.61 434.19h3.303v-1.651h-3.303z"/><path d="m120.39 434.19h3.303v-1.651h-3.303z"/><path d="m126.17 434.19h3.303v-1.651h-3.303z"/></g><g transform="translate(89.284 85.416)"><path d="m0 0c-0.695 0-1.349 0.271-1.84 0.763l-24.523 24.521c-1.014 1.016-1.014 2.666 0 3.681l24.523 24.523c0.491 0.491 1.145 0.762 1.84 0.762s1.349-0.271 1.84-0.763l24.523-24.521c1.014-1.016 1.014-2.666 0-3.681l-24.523-24.523c-0.491-0.491-1.145-0.762-1.84-0.762" fill="#ffd046"/></g><g transform="translate(89.285 139.79)"><path d="m0 0c-0.729 0-1.414-0.284-1.929-0.799l-24.522-24.523c-1.064-1.063-1.064-2.793 0-3.856l24.522-24.523c0.515-0.515 1.2-0.799 1.929-0.799 0.728 0 1.413 0.284 1.928 0.799l24.523 24.523c1.063 1.063 1.063 2.793 0 3.856l-24.523 24.523c-0.515 0.515-1.2 0.799-1.928 0.799m0-0.25c0.634 0 1.268-0.242 1.751-0.726l24.523-24.522c0.968-0.968 0.968-2.536 0-3.504l-24.523-24.522c-0.483-0.484-1.117-0.726-1.751-0.726s-1.268 0.242-1.752 0.726l-24.523 24.522c-0.967 0.968-0.967 2.536 0 3.504l24.523 24.522c0.484 0.484 1.118 0.726 1.752 0.726"/></g><g transform="translate(88.019 138.33)"><path d="m0 0c0.698 0.698 1.833 0.698 2.53 0l24.523-24.523c0.698-0.697 0.698-1.832 0-2.53l-24.523-24.523c-0.697-0.697-1.832-0.697-2.53 0l-24.523 24.523c-0.697 0.698-0.697 1.833 0 2.53z"/></g><g transform="translate(88.7 137.65)"><path d="m0 0c0.322 0.322 0.846 0.322 1.168 0l24.523-24.523c0.322-0.322 0.322-0.846 0-1.168l-24.523-24.522c-0.322-0.322-0.846-0.322-1.168 0l-24.523 24.522c-0.322 0.322-0.322 0.846 0 1.168z" fill="#ffd046"/></g><g transform="translate(94.978 115.16)"><path d="m0 0 8.343 5.637-8.343 5.637c-0.132 0.091-0.292 0.143-0.464 0.143-0.456 0-0.826-0.369-0.826-0.825 0-0.105 0.02-0.205 0.055-0.297l0.911-2.446h-19.407v-4.404h19.414l-0.918-2.465c-0.035-0.092-0.055-0.192-0.055-0.297 0-0.456 0.37-0.826 0.826-0.826 0.172 0 0.332 0.053 0.464 0.143"/></g><g transform="translate(82.873 108.08)"><path d="m0 0c1.226 1.226 2.654 2.189 4.243 2.861 1.645 0.696 3.392 1.049 5.194 1.049h2e-3v1.651h-22.845v-1.651h15.996c-1.385-0.711-2.645-1.63-3.758-2.742l-5.761-5.761 1.168-1.168z"/></g><g transform="translate(89.879 101.07)"><path d="m0 0c0.65 0.65 1.514 1.008 2.433 1.008h2.345l-0.914-2.456c-0.035-0.092-0.055-0.192-0.055-0.297 0-0.456 0.37-0.825 0.826-0.825 0.172 0 0.332 0.052 0.464 0.142l8.344 5.638-8.344 5.637c-0.132 0.09-0.292 0.143-0.464 0.143-0.456 0-0.826-0.37-0.826-0.826 0-0.105 0.02-0.205 0.055-0.297l0.914-2.455h-2.345c-1.058 0-2.086-0.208-3.054-0.618-0.935-0.395-1.773-0.96-2.493-1.68l-5.761-5.76 3.115-3.115z"/></g><g><path d="m94.789 113.64h3.303v-1.651h-3.303z"/><path d="m100.57 113.64h3.303v-1.651h-3.303z"/><path d="m106.35 113.64h3.303v-1.651h-3.303z"/></g></g><text transform="matrix(1 0 0 -1 83.979 585.45)" fill="black" font-family="Helvetica" font-size="8px"><tspan x="0 7.552 12 14.664 19.112" y="0">W4-1R</tspan></text><text transform="matrix(1 -2.5e-5 -2.5e-5 -1 139.66 477.18)" fill="black" font-family="Helvetica" font-size="8px"><tspan x="0 7.552 12 14.664 19.112" y="0">W4-1L</tspan></text><g clip-path="url(#f)"><g transform="translate(97.681 593.39)"><path d="m0 0c-0.726 0-1.424 0.306-1.916 0.84l-23.517 25.525c-0.973 1.055-0.906 2.706 0.15 3.679l25.525 23.517c0.482 0.444 1.109 0.689 1.763 0.689 0.726 0 1.425-0.306 1.916-0.84l23.517-25.525c0.472-0.511 0.716-1.176 0.687-1.87-0.028-0.696-0.326-1.338-0.837-1.809l-25.525-23.517c-0.482-0.444-1.108-0.689-1.763-0.689" fill="#ffd046"/></g><g transform="translate(99.687 647.76)"><path d="m0 0c-0.687 0-1.343-0.256-1.849-0.722l-25.525-23.517c-1.106-1.02-1.177-2.75-0.157-3.856l23.517-25.525c0.515-0.559 1.247-0.88 2.007-0.88 0.687 0 1.344 0.256 1.849 0.722l25.525 23.517c1.106 1.02 1.177 2.75 0.158 3.856l-23.518 25.525c-0.515 0.559-1.246 0.88-2.007 0.88m0-0.25c0.668 0 1.335-0.269 1.824-0.799l23.517-25.525c0.927-1.007 0.863-2.575-0.144-3.503l-25.524-23.517c-0.477-0.439-1.079-0.656-1.68-0.656-0.668 0-1.335 0.269-1.823 0.799l-23.518 25.525c-0.927 1.007-0.863 2.575 0.144 3.503l25.525 23.517c0.476 0.439 1.078 0.656 1.679 0.656"/></g><g transform="translate(98.474 646.35)"><path d="m0 0c0.726 0.669 1.861 0.622 2.53-0.104l23.517-25.524c0.669-0.726 0.623-1.861-0.104-2.53l-25.524-23.517c-0.726-0.669-1.861-0.623-2.53 0.103l-23.517 25.525c-0.669 0.726-0.623 1.861 0.103 2.53z"/></g><g transform="translate(99.128 645.64)"><path d="m0 0c0.335 0.309 0.859 0.287 1.168-0.048l23.517-25.525c0.309-0.335 0.287-0.858-0.048-1.167l-25.525-23.517c-0.335-0.309-0.859-0.288-1.167 0.047l-23.518 25.525c-0.308 0.335-0.287 0.859 0.048 1.168z" fill="#ffd046"/></g><g transform="translate(93.673 613.86)"><path d="m0 0c1.199 0.815 2.479 1.524 3.803 2.105 1.09 0.478 2.234 0.834 3.403 1.057 1.182 0.226 2.398 0.317 3.614 0.271l-1.314-3.187c-0.051-0.12-0.081-0.25-0.087-0.387-0.025-0.608 0.448-1.121 1.056-1.146 0.23-0.01 0.446 0.052 0.627 0.165l11.248 7.068-10.632 7.963c-0.172 0.128-0.382 0.207-0.612 0.216-0.608 0.025-1.121-0.448-1.146-1.056-6e-3 -0.137 0.014-0.269 0.055-0.392l1.074-3.366-20.546 0.842-0.237-5.78 8.812-0.361c-0.437-0.263-0.866-0.537-1.287-0.823-1.384-0.942-2.69-2.016-3.882-3.193l2.71-2.744c1.025 1.013 2.15 1.938 3.341 2.748"/></g><g transform="translate(94.706 554.94)"><path d="m0 0c-34.904-0.128-48.085 66.475-25.009 66.475" fill="none" stroke="#000" stroke-miterlimit="10" stroke-width=".75"/></g><g transform="translate(100.81 552.37)"><path d="m0 0 1.244-0.052 0.2 4.792-1.244 0.052 0.073 1.757-1.759 0.073-0.177-4.233-0.176-4.233 1.759-0.073z"/></g><g transform="translate(96.856 555.4)"><path d="m0 0c-0.857 0.299-1.41 0.563-2.094 0.871l-0.111-2.646c0.254 0.108 1.282 0.469 2.16 0.694 0.94 0.241 1.789 0.398 2.338 0.444-0.543 0.091-1.377 0.318-2.293 0.637"/></g><g transform="translate(311.98 551.44)"><path d="m0 0c-0.695 0-1.349 0.271-1.84 0.762l-24.523 24.523c-1.015 1.015-1.015 2.665 0 3.68l24.522 24.523c0.492 0.491 1.146 0.762 1.841 0.762s1.349-0.271 1.84-0.762l24.523-24.523c1.014-1.015 1.014-2.665 0-3.68l-24.523-24.523c-0.491-0.491-1.145-0.762-1.84-0.762" fill="#ffd046"/></g><g transform="translate(311.98 605.81)"><path d="m0 0c-0.728 0-1.413-0.284-1.928-0.799l-24.523-24.523c-1.064-1.063-1.064-2.793 0-3.856l24.523-24.523c0.515-0.515 1.2-0.799 1.928-0.799s1.413 0.284 1.928 0.799l24.523 24.523c0.515 0.515 0.799 1.2 0.799 1.928s-0.284 1.413-0.799 1.928l-24.523 24.523c-0.515 0.515-1.2 0.799-1.928 0.799m0-0.25c0.634 0 1.268-0.242 1.752-0.726l24.522-24.522c0.968-0.968 0.968-2.536 0-3.504l-24.522-24.522c-0.484-0.484-1.118-0.726-1.752-0.726s-1.268 0.242-1.752 0.726l-24.522 24.522c-0.968 0.968-0.968 2.536 0 3.504l24.522 24.522c0.484 0.484 1.118 0.726 1.752 0.726"/></g><g transform="translate(310.71 604.35)"><path d="m0 0c0.698 0.698 1.833 0.698 2.53 0l24.523-24.523c0.698-0.697 0.698-1.832 0-2.53l-24.523-24.523c-0.697-0.697-1.832-0.697-2.53 0l-24.523 24.523c-0.697 0.698-0.697 1.833 0 2.53z"/></g><g transform="translate(311.39 603.67)"><path d="m0 0c0.322 0.322 0.846 0.322 1.168 0l24.523-24.523c0.322-0.322 0.322-0.846 0-1.168l-24.523-24.522c-0.322-0.322-0.846-0.322-1.168 0l-24.523 24.522c-0.322 0.322-0.322 0.846 0 1.168z" fill="#ffd046"/></g><g transform="translate(307.25 571.71)"><path d="m0 0c1.164 0.863 2.412 1.623 3.711 2.257 1.068 0.522 2.197 0.924 3.354 1.194 1.171 0.274 2.381 0.415 3.597 0.419l-1.181-3.236c-0.046-0.121-0.071-0.253-0.071-0.39 0-0.608 0.493-1.101 1.101-1.101 0.23 0 0.443 0.071 0.619 0.191l10.941 7.516-10.941 7.516c-0.176 0.12-0.389 0.191-0.619 0.191-0.608 0-1.101-0.493-1.101-1.101 0-0.138 0.025-0.269 0.071-0.39l1.21-3.316h-20.548v-5.78h8.812c-0.425-0.281-0.842-0.572-1.251-0.875-1.343-0.997-2.603-2.122-3.745-3.346l2.818-2.629c0.982 1.053 2.067 2.022 3.223 2.88"/></g></g><text transform="matrix(1 0 0 -1 299.7 543.86)" fill="black" font-family="Helvetica" font-size="8px"><tspan x="0 7.552 12 14.664 19.112" y="0">W4-1R</tspan></text><g clip-path="url(#e)"><g transform="translate(312.98 647.41)"><path d="m0 0h-8.939c-54.742 0-56.814-68.85-21.065-68.85" fill="none" stroke="#000" stroke-miterlimit="10" stroke-width=".75"/></g></g><g transform="translate(319.19 645.1)"><path d="m0 0h1.245v4.796h-1.245v1.759h-1.761v-8.474h1.761z"/></g><g clip-path="url(#d)"><g transform="translate(315.11 647.95)"><path d="m0 0c-0.868 0.263-1.433 0.504-2.129 0.783v-2.648c0.249 0.118 1.261 0.521 2.129 0.783 0.929 0.28 1.771 0.473 2.317 0.541-0.546 0.068-1.388 0.261-2.317 0.541"/></g></g><text transform="matrix(1 0 0 -1 167.84 696.62)" fill="black" font-family="Helvetica" font-size="9.5px" font-weight="bold"><tspan x="0 6.5075002 9.1485004 14.43145 17.072451 23.408951 28.69095 33.97295 42.418449 48.22295 50.863949 56.14595 58.786949 61.950451 67.754951 71.450447 74.091454 79.373451 85.177948 90.982452 96.26445 101.54645 105.24195 111.04645 113.68745 119.49195 125.29645 127.93745 133.21945 139.02396 144.82845 147.46945 152.75145 158.55595 161.71945 167.00145 170.69695 173.33795 179.14246 184.94695 187.58795 191.28345 197.08795 202.36995 208.17445 215.56544 220.84744 226.12946" y="0">A – Example for converging and entering roadways</tspan><tspan x="44.165501 51.024502 53.665501 58.947498 61.588501 67.925003 73.207001 78.488998 86.934502 92.738998 95.379997 100.662 105.944 108.585 111.7485 117.553 121.2485 123.8895 129.17149 134.976 137.617 142.899 148.70351 154.508 159.78999 165.5945 168.2355 170.8765 176.15849 181.963" y="240.3405">B – Examples for an added lane</tspan></text><g clip-path="url(#c)"><g transform="translate(105.75 535.9)"><path d="m0 0c-15.528-25.844 5.706-65.226 23.844-51.175" fill="none" stroke="#000" stroke-miterlimit="10" stroke-width=".75"/></g></g><g transform="translate(111.37 539.48)"><path d="m0 0 0.74 1.001-3.856 2.852-0.74-1.001-1.414 1.046-1.047-1.416 3.407-2.52 3.406-2.519 1.047 1.416z"/></g><g clip-path="url(#b)"><g transform="translate(106.65 537.9)"><path d="m0 0c-0.727-0.542-1.257-0.852-1.896-1.246l2.13-1.575c0.053 0.271 0.33 1.324 0.636 2.178 0.327 0.913 0.673 1.705 0.943 2.184-0.38-0.398-1.035-0.961-1.813-1.541"/></g><g transform="translate(467.93 509.27)"><path d="m0 0v78.92l-3.111-21.215 0.282-3.677 2.263 1.98" stroke="#000"/></g><g transform="translate(471.04 556.81)"><path d="m0 0h2.665v-22.176h-3.09l-10.348 17.914h-0.056v-17.914h-2.665v22.176h3.259l10.177-17.913h0.058z"/></g><g transform="translate(124.85 225.4)"><path d="m0 0-34.598 2.345c-1.432 0.097-2.518 1.341-2.421 2.772l2.346 34.599c0.091 1.36 1.23 2.426 2.592 2.426 0.06 0 0.119-2e-3 0.179-6e-3l34.598-2.345c1.432-0.098 2.518-1.341 2.421-2.772l-2.346-34.599c-0.091-1.36-1.23-2.426-2.592-2.426-0.059 0-0.119 2e-3 -0.179 6e-3" fill="#ffd046"/></g><g transform="translate(92.774 267.66)"><path d="m0 0c-1.428 0-2.622-1.117-2.718-2.543l-2.345-34.598c-0.102-1.5 1.036-2.803 2.536-2.905l34.599-2.345c0.062-4e-3 0.125-6e-3 0.186-6e-3 1.428 0 2.622 1.117 2.719 2.542l2.345 34.599c0.101 1.5-1.037 2.803-2.537 2.905l-34.598 2.345c-0.063 4e-3 -0.125 6e-3 -0.187 6e-3m0-0.25c0.056 0 0.113-2e-3 0.17-6e-3l34.598-2.345c1.365-0.092 2.397-1.274 2.304-2.638l-2.345-34.599c-0.088-1.308-1.177-2.309-2.469-2.309-0.056 0-0.112 2e-3 -0.169 5e-3l-34.599 2.345c-1.365 0.093-2.396 1.274-2.304 2.639l2.345 34.598c0.089 1.308 1.177 2.31 2.469 2.31"/></g><g transform="translate(90.992 265.06)"><path d="m0 0c0.067 0.984 0.922 1.731 1.906 1.664l34.598-2.345c0.984-0.067 1.731-0.922 1.664-1.906l-2.345-34.598c-0.066-0.984-0.921-1.731-1.906-1.664l-34.598 2.345c-0.984 0.067-1.731 0.921-1.664 1.906z"/></g><g transform="translate(91.953 264.99)"><path d="m0 0c0.031 0.454 0.425 0.799 0.88 0.768l34.598-2.345c0.454-0.031 0.799-0.425 0.768-0.879l-2.345-34.599c-0.031-0.454-0.425-0.799-0.88-0.768l-34.598 2.345c-0.454 0.031-0.799 0.425-0.768 0.88z" fill="#ffd046"/></g><g transform="translate(113.49 244.7)"><path d="m0 0c-0.105 0.083-0.235 0.135-0.378 0.145-0.379 0.026-0.708-0.261-0.733-0.64-6e-3 -0.086 4e-3 -0.17 0.029-0.249l0.637-2.106-2.085 0.141c-0.883 0.06-1.753-0.055-2.584-0.343-0.802-0.277-1.534-0.701-2.176-1.261l-9.018-7.874 2.398-2.746 9.018 7.873c0.587 0.513 1.338 0.766 2.115 0.713l2.086-0.141-0.916-2.002c-0.035-0.074-0.057-0.156-0.063-0.242-0.025-0.38 0.261-0.708 0.64-0.733 0.144-0.01 0.28 0.025 0.395 0.092l7.208 4.22z"/></g><g transform="translate(111.39 247.94)"><path d="m0 0-19.221 1.303-0.093-1.373 13.503-0.915c-1.208-0.518-2.323-1.22-3.323-2.093l-11.403-9.955 0.905-1.037 11.403 9.955c1.097 0.959 2.349 1.685 3.72 2.158 1.419 0.49 2.905 0.686 4.416 0.584z"/></g><g transform="translate(113.49 246.42)"><path d="m0 0 0.093 1.373 2.746-0.186-0.093-1.373z"/></g><g transform="translate(118.44 246.09)"><path d="m0 0 0.093 1.373 2.746-0.186-0.093-1.373z"/></g><g transform="translate(123.38 245.75)"><path d="m0 0 0.093 1.373 2.746-0.186-0.093-1.373z"/></g><g transform="translate(114.43 258.53)"><path d="m0 0c-0.105 0.083-0.235 0.135-0.378 0.145-0.379 0.026-0.708-0.261-0.733-0.64-6e-3 -0.086 4e-3 -0.17 0.029-0.249l0.636-2.101-16.472 1.116-0.247-3.638 16.476-1.117-0.918-2.006c-0.035-0.074-0.057-0.156-0.063-0.242-0.025-0.38 0.261-0.708 0.64-0.733 0.144-0.01 0.28 0.025 0.395 0.092l7.208 4.22z"/></g><g transform="translate(357.42 87.792)"><path d="m0 0h6.353v1.559l4.377-2.577-4.377-2.398v1.439h-6.353z"/></g><g transform="translate(378.9 96.307)"><path d="m0 0h29.291" fill="none" stroke="#000" stroke-width=".75"/></g></g><text transform="matrix(1 0 0 -1 378.43 99.256)" fill="black" font-family="Helvetica" font-size="9px"><tspan x="0 5.0040002 10.008 15.012 20.016001 25.02" y="0">Legend</tspan><tspan x="-7.4879999 -0.99000001 1.008 4.0050001 9.0089998 13.509 16.011 18.009001 23.013 28.017 30.518999 35.522999 38.025002 40.527 43.028999 46.026001 51.029999 55.529999 60.534" y="15.354">Direction of travel</tspan></text><g transform="translate(516.33 180.47)"><path d="m0 0h6.354v1.559l4.376-2.577-4.376-2.398v1.439h-6.354z"/></g><g transform="translate(516.33 162.39)"><path d="m0 0h6.354v1.559l4.376-2.577-4.376-2.398v1.439h-6.354z"/></g><g transform="translate(296.97 677.81)"><path d="m0 0h4.765v1.169l3.283-1.932-3.283-1.799v1.08h-4.765z"/></g><g transform="translate(296.97 669.41)"><path d="m0 0h4.765v-1.169l3.283 1.932-3.283 1.799v-1.08h-4.765z"/></g><g transform="translate(296.97 663.81)"><path d="m0 0h4.765v1.169l3.283-1.932-3.283-1.799v1.08h-4.765z"/></g><g transform="translate(40.002 595.74)"><path d="m0 0 3.817-2.852 0.7 0.936 1.473-3.512-3.706 0.524 0.646 0.864-3.817 2.853z"/></g><g transform="translate(89.859 500.19)"><path d="m0 0 2.921 3.765-0.923 0.716 3.539 1.409-0.592-3.696-0.853 0.662-2.921-3.765z"/></g><g transform="translate(525.46 677.81)"><path d="m0 0h4.765v1.169l3.283-1.932-3.283-1.799v1.08h-4.765z"/></g><g transform="translate(525.46 669.41)"><path d="m0 0h4.765v-1.169l3.283 1.932-3.283 1.799v-1.08h-4.765z"/></g><g transform="translate(525.46 663.81)"><path d="m0 0h4.765v1.169l3.283-1.932-3.283-1.799v1.08h-4.765z"/></g><g transform="translate(525.46 655.41)"><path d="m0 0h4.765v-1.169l3.283 1.932-3.283 1.799v-1.08h-4.765z"/></g><g clip-path="url(#a)"><g transform="translate(179.8 70.035)"><path d="m0 0c-0.798 0-1.541 0.358-2.038 0.982l-21.587 27.139c-0.894 1.123-0.707 2.763 0.417 3.656l27.139 21.588c0.465 0.37 1.024 0.566 1.617 0.566 0.799 0 1.542-0.359 2.038-0.983l21.588-27.138c0.432-0.544 0.628-1.224 0.549-1.914-0.078-0.692-0.422-1.31-0.966-1.743l-27.139-21.587c-0.465-0.37-1.025-0.566-1.618-0.566" fill="#ffd046"/></g><g transform="translate(185.35 124.09)"><path d="m0 0c-0.622 0-1.208-0.205-1.696-0.593l-27.139-21.587c-0.57-0.454-0.929-1.102-1.012-1.826-0.082-0.724 0.122-1.436 0.575-2.006l21.588-27.139c0.52-0.654 1.299-1.03 2.136-1.03 0.622 0 1.208 0.205 1.696 0.593l27.139 21.588c1.176 0.936 1.372 2.655 0.436 3.832l-21.587 27.139c-0.521 0.654-1.299 1.029-2.136 1.029m0-0.25c0.729 0 1.451-0.32 1.94-0.935l21.588-27.139c0.851-1.071 0.674-2.629-0.397-3.481l-27.139-21.587c-0.456-0.363-1-0.539-1.54-0.539-0.729 0-1.451 0.321-1.94 0.935l-21.588 27.139c-0.852 1.071-0.674 2.629 0.397 3.481l27.139 21.587c0.455 0.363 1 0.539 1.54 0.539"/></g><g transform="translate(156.81 98.663)"><path d="m0 0c-0.614 0.772-0.486 1.9 0.286 2.514l27.139 21.587c0.772 0.614 1.9 0.486 2.514-0.286l21.588-27.139c0.614-0.772 0.485-1.9-0.287-2.514l-27.139-21.587c-0.772-0.614-1.899-0.486-2.513 0.286z"/></g><g transform="translate(157.57 99.262)"><path d="m0 0c-0.283 0.356-0.224 0.877 0.132 1.16l27.139 21.588c0.356 0.283 0.877 0.224 1.16-0.132l21.588-27.139c0.283-0.357 0.224-0.877-0.132-1.161l-27.139-21.587c-0.357-0.284-0.877-0.224-1.16 0.132z" fill="#ffd046"/></g><g transform="translate(187.15 98.785)"><path d="m0 0c-0.133-0.01-0.265-0.058-0.377-0.148-0.298-0.236-0.347-0.669-0.11-0.966 0.054-0.068 0.118-0.123 0.189-0.165l1.891-1.126-1.636-1.302c-0.693-0.551-1.257-1.222-1.678-1.994-0.406-0.746-0.661-1.553-0.757-2.399l-1.355-11.895 3.622-0.412 1.356 11.895c0.088 0.774 0.472 1.467 1.082 1.952l1.635 1.301 0.673-2.096c0.024-0.078 0.063-0.153 0.117-0.221 0.237-0.298 0.67-0.347 0.967-0.11 0.113 0.089 0.19 0.207 0.229 0.334l2.481 7.975z"/></g><g transform="translate(183.42 99.769)"><path d="m0 0-15.077-11.993 0.856-1.077 10.593 8.426c-0.544-1.197-0.895-2.467-1.045-3.787l-1.714-15.039 1.368-0.156 1.713 15.04c0.165 1.448 0.601 2.828 1.294 4.101 0.718 1.319 1.683 2.465 2.869 3.408z"/></g><g transform="translate(186 100.06)"><path d="m0 0-0.857 1.077 2.154 1.713 0.857-1.077z"/></g><g transform="translate(189.87 103.15)"><path d="m0 0-0.857 1.077 2.154 1.713 0.857-1.077z"/></g><g transform="translate(193.75 106.23)"><path d="m0 0-0.857 1.077 2.154 1.713 0.857-1.077z"/></g><g transform="translate(178.53 109.64)"><path d="m0 0c-0.133-0.01-0.265-0.058-0.377-0.148-0.298-0.236-0.347-0.669-0.11-0.966 0.054-0.068 0.118-0.123 0.189-0.165l1.886-1.124-12.921-10.277 2.27-2.854 12.924 10.28 0.674-2.101c0.024-0.078 0.063-0.153 0.117-0.221 0.237-0.298 0.67-0.347 0.967-0.11 0.113 0.089 0.19 0.207 0.229 0.334l2.481 7.975z"/></g><g transform="translate(132.86 485.65)"><path d="m0 0c-1.396 0-2.536 1.093-2.598 2.488l-1.518 34.645c-0.03 0.694 0.211 1.359 0.68 1.871 0.47 0.513 1.111 0.811 1.806 0.842l34.759 1.521c1.396 0 2.537-1.093 2.599-2.488l1.518-34.645c0.03-0.694-0.211-1.359-0.681-1.871-0.469-0.513-1.11-0.812-1.805-0.842z" fill="#ffd046"/></g><g transform="translate(165.99 527.14)"><path d="m0 0c-0.04 0-0.081-1e-3 -0.121-3e-3l-34.645-1.518c-0.728-0.032-1.399-0.345-1.891-0.883-0.492-0.537-0.746-1.233-0.714-1.961l1.519-34.644c0.064-1.463 1.26-2.608 2.722-2.608 0.04 0 0.081 1e-3 0.122 3e-3l34.644 1.518c1.502 0.066 2.671 1.342 2.605 2.844l-1.519 34.644c-0.064 1.463-1.26 2.608-2.722 2.608m0-0.25c1.318 0 2.414-1.039 2.473-2.369l1.518-34.644c0.06-1.367-0.999-2.523-2.366-2.583l-34.644-1.519c-0.037-1e-3 -0.074-2e-3 -0.111-2e-3 -1.318 0-2.414 1.039-2.473 2.368l-1.518 34.645c-0.06 1.367 0.999 2.523 2.366 2.583l34.645 1.519c0.036 1e-3 0.073 2e-3 0.11 2e-3"/></g><g transform="translate(129.55 522.81)"><path d="m0 0c-0.043 0.985 0.723 1.822 1.709 1.866l34.644 1.518c0.986 0.043 1.823-0.723 1.866-1.709l1.518-34.644c0.044-0.986-0.723-1.823-1.708-1.866l-34.645-1.518c-0.985-0.044-1.822 0.723-1.865 1.709z"/></g><g transform="translate(130.52 522.86)"><path d="m0 0c-0.02 0.455 0.334 0.841 0.789 0.861l34.644 1.519c0.455 0.019 0.841-0.334 0.861-0.789l1.519-34.645c0.02-0.454-0.334-0.841-0.789-0.861l-34.644-1.518c-0.455-0.02-0.842 0.334-0.861 0.789z" fill="#ffd046"/></g><g transform="translate(141.18 507.47)"><path d="m0 0c1.422 0.275 2.826 0.683 4.171 1.212 1.106 0.435 2.165 0.995 3.146 1.666 0.992 0.679 1.913 1.476 2.738 2.369l-3.184 1.316c-0.121 0.048-0.234 0.118-0.336 0.21-0.448 0.411-0.478 1.107-0.068 1.556 0.155 0.169 0.351 0.279 0.56 0.328l12.931 2.99-1.848-13.143c-0.031-0.211-0.123-0.416-0.278-0.586-0.411-0.448-1.107-0.479-1.555-0.068-0.101 0.093-0.181 0.2-0.24 0.316l-1.627 3.132-13.879-15.151-4.262 3.904 5.952 6.498c-0.493-0.125-0.99-0.235-1.489-0.332-1.643-0.318-3.324-0.486-4.997-0.502l-0.036 3.853c1.441 0.013 2.888 0.159 4.301 0.432"/></g></g></g></svg>
