<?xml version="1.0" encoding="UTF-8"?>
<svg width="559.1" height="224.74" version="1.1" viewBox="0 0 559.1 224.74" xml:space="preserve" xmlns="http://www.w3.org/2000/svg"><defs><clipPath id="b"><path d="m92.139 185.56h457.4v197.84h-457.4z"/></clipPath><clipPath id="a"><path d="m92.139 185.56h457.4v197.84h-457.4z"/></clipPath></defs><g transform="matrix(1.3333 0 0 -1.3333 -148.58 480.66)"><text transform="matrix(1 0 0 -1 325.79 288.65)" fill="black" font-family="Helvetica" font-size="8px"><tspan x="0 5.776 10.224 12.448 16.896 19.120001 23.568001 28.903999 32.903999 37.352001 44.015999 48.464001 50.240002 54.688 58.688 60.911999 65.360001 67.584 69.807999 75.584 81.807999 87.143997 89.367996 91.143997 95.592003 100.04 104.488 106.712 109.376 113.824 115.6 120.048 126.712 131.16 135.608 140.056 142.28 146.28 150.28 156.944 161.392 165.84 167.616 170.28 172.504 176.504 178.28 182.728 187.17599 191.17599" y="0">Note: Examples of HOV lane (diamond symbol) signs </tspan><tspan x="24 28.448 31.112 35.560001 37.784 39.560001 41.335999 43.112 47.560001 51.560001 53.784 56.448002 60.896 63.119999 67.568001 72.015999 74.239998 76.463997 81.351997 85.800003 88.463997 90.688004 95.136002 97.360001 101.808 106.256 108.92 111.144 113.368 117.368 121.816 126.264 130.26401 132.48801 136.936 139.16 141.384 145.832 148.496 152.944 155.168 159.616 162.28 166.728 171.17599 173.39999 175.17599 179.62399 181.39999 183.62399 185.39999 189.84801 194.29601 198.744 202.744 204.968" y="8.4960003">are illustrated. For other types of preferential lanes, </tspan><tspan x="24 26.224001 30.672001 35.119999 37.344002 41.792 46.240002 50.688 53.352001 57.799999 62.248001 64.912003 66.688004 71.136002 73.360001 77.807999 80.031998 84.031998 88.031998 94.695999 99.143997 103.592 105.368 107.592 112.04 114.704 116.928 122.704 127.152 129.81599 134.26401 136.48801 143.15199 147.60001 151.60001 155.60001 160.048 164.496 168.944 171.168 173.832 177.832 182.28 186.728" y="16.992001">the appropriate symbol or word message (see </tspan><tspan x="24 29.336 33.784 37.784 40.007999 41.784 46.231998 50.68 52.903999 57.352001 63.576 65.800003 70.248001 74.695999 77.360001 79.584 81.360001 85.360001 87.584 92.031998 93.807999 97.807999 102.256 104.032 108.48 112.48 116.928 121.376 123.6 125.376 129.82401 132.048 137.82401 142.272 144.048 146.272 150.72 152.944 157.392 161.84 164.064 166.28799 170.73599 175.18401 177.408 181.856 183.632 188.08 192.08 196.08" y="25.488001">Section 2G.03) is displayed in white on the black </tspan><tspan x="24 28.448 32.896 36.896 40.896 45.344002 48.007999 52.456001 56.903999 61.352001 65.800003 68.024002 72.472 74.695999 76.919998 79.143997 83.592003 88.040001 90.264 92.487999 96.935997 101.384 103.608 108.056 112.504 115.168 117.392 119.168 123.616 128.064 130.28799 134.73599 136.96001 139.18401 141.408 145.856 150.304 154.304 158.752 160.976 164.976 166.752 171.2 175.64799 179.64799" y="33.984001">background of the top portion of these signs.</tspan></text><text transform="matrix(1 0 0 -1 248.43 192.05)" fill="black" font-family="Helvetica" font-size="9px"><tspan x="0 6.0029998 11.007 14.004 19.007999" y="0">E8-1a</tspan></text><g clip-path="url(#b)"><g transform="translate(226.42 204.6)"><path d="m0 0c-2.749 0-4.985 2.236-4.985 4.985v126.36c0 2.749 2.236 4.985 4.985 4.985h68.04c2.749 0 4.985-2.236 4.985-4.985v-126.36c0-2.749-2.236-4.985-4.985-4.985z" fill="#fff"/></g><g transform="translate(294.46 341.06)"><path d="m0 0h-68.04c-2.818 0-5.11-2.292-5.11-5.11v-126.36c0-2.818 2.292-5.11 5.11-5.11h68.04c2.818 0 5.11 2.292 5.11 5.11v126.36c0 2.818-2.292 5.11-5.11 5.11m0-0.25c2.673 0 4.86-2.187 4.86-4.86v-126.36c0-2.673-2.187-4.86-4.86-4.86h-68.04c-2.673 0-4.86 2.187-4.86 4.86v126.36c0 2.673 2.187 4.86 4.86 4.86z"/></g><g transform="translate(223.18 301.93)"><path d="m0 0v-92.34c0-0.86 0.339-1.672 0.953-2.287 0.615-0.614 1.427-0.953 2.287-0.953h68.04c0.86 0 1.672 0.339 2.287 0.953 0.614 0.615 0.953 1.427 0.953 2.287v92.34z" fill="#006f51"/></g><g transform="translate(296.75 338.23)"><path d="m0 0c-0.615 0.615-1.427 0.953-2.287 0.953h-68.04c-0.86 0-1.672-0.338-2.287-0.953-0.614-0.615-0.953-1.427-0.953-2.287v-34.02h74.52v34.02c0 0.86-0.338 1.672-0.953 2.287"/></g><g transform="translate(252.94 266.3)"><path d="m0 0-1.818-4.365h3.636zm4.091-9.731-1.273 3.046h-5.637l-1.272-3.046h-2.546l5.455 12.96h2.364l5.41-12.96z" fill="#fff"/></g><g transform="translate(275.61 256.57)"><path d="m0 0v12.96h9.492v-2.319h-7.119v-2.41h3.879v-2.365h-3.879v-3.547h7.347v-2.319z" fill="#fff"/></g><g transform="translate(235.55 256.57)"><path d="m0 0v12.96h2.327v-10.959h7.393v-2.001z" fill="#fff"/></g><g transform="translate(270.23 256.57)"><path d="m0 0-6.211 8.913v-8.913h-2.284v12.96h2.284l5.983-8.549v8.549h2.237v-12.96z" fill="#fff"/></g><g transform="translate(249.07 279.25)"><path d="m0 0v5.639h-5.846v-5.639h-2.329v12.96h2.329v-5.002h5.846v5.002h2.329v-12.96z" fill="#fff"/></g><g transform="translate(260.49 290.12)"><path d="m0 0c-1.96 0-3.145-1.637-3.145-4.365 0-2.774 1.185-4.411 3.145-4.411 2.461 0 3.054 2.41 3.054 4.411 0 2.728-1.094 4.365-3.054 4.365m0-11.096c-3.829 0-5.515 3.456-5.515 6.731 0 4.138 2.097 6.684 5.515 6.684 3.19 0 5.378-2.683 5.378-6.639 0-4.047-2.097-6.776-5.378-6.776" fill="#fff"/></g><g transform="translate(275.23 279.25)"><path d="m0 0h-2.467l-4.709 12.96h2.467l3.498-9.458 3.498 9.458h2.467z" fill="#fff"/></g><g transform="translate(270.23 246.85)"><path d="m0 0-15.324-16.757-3.864 6.81c-0.057 0.101-0.128 0.196-0.214 0.282-0.514 0.514-1.348 0.514-1.862 0-0.195-0.196-0.316-0.438-0.363-0.691l-3.644-19.078c-0.09-0.422 0.028-0.88 0.356-1.209 0.328-0.327 0.786-0.446 1.208-0.355l19.078 3.644c0.253 0.046 0.496 0.167 0.691 0.363 0.514 0.514 0.514 1.347 0 1.861-0.086 0.086-0.18 0.157-0.281 0.215l-6.81 3.863 16.757 15.324z" fill="#fff"/></g><g transform="translate(260.44 335.14)"><path d="m0 0-7.29-14.533 7.29-14.627 7.29 14.627z" fill="#fff"/></g><g transform="translate(255.64 320.6)"><path d="M 0,0 4.8,9.568 9.599,0 4.8,-9.63 Z"/></g></g><text transform="matrix(1 0 0 -1 141.06 192.05)" fill="black" font-family="Helvetica" font-size="9px"><tspan x="0 6.0029998 11.007 14.004" y="0">E8-1</tspan></text><g clip-path="url(#a)"><g transform="translate(116.54 204.6)"><path d="m0 0c-2.749 0-4.985 2.236-4.985 4.985v145.8c0 2.749 2.236 4.985 4.985 4.985h68.04c2.749 0 4.985-2.236 4.985-4.985v-145.8c0-2.749-2.236-4.985-4.985-4.985z" fill="#fff"/></g><g transform="translate(184.58 360.5)"><path d="m0 0h-68.04c-2.818 0-5.11-2.292-5.11-5.11v-145.8c0-2.818 2.292-5.11 5.11-5.11h68.04c2.818 0 5.11 2.292 5.11 5.11v145.8c0 2.818-2.292 5.11-5.11 5.11m0-0.25c2.684 0 4.86-2.176 4.86-4.86v-145.8c0-2.684-2.176-4.86-4.86-4.86h-68.04c-2.684 0-4.86 2.176-4.86 4.86v145.8c0 2.684 2.176 4.86 4.86 4.86z"/></g><g transform="translate(113.3 209.59)"><path d="m0 0c0-1.786 1.454-3.24 3.24-3.24h68.04c1.786 0 3.24 1.454 3.24 3.24v111.78h-74.52z" fill="#006f51"/></g><g transform="translate(184.58 358.63)"><path d="m0 0h-68.04c-1.786 0-3.24-1.453-3.24-3.24v-34.02h74.52v34.02c0 1.787-1.454 3.24-3.24 3.24"/></g><g transform="translate(143.06 285.74)"><path d="m0 0-1.818-4.366h3.636zm4.091-9.731-1.273 3.046h-5.637l-1.272-3.046h-2.546l5.455 12.96h2.364l5.41-12.96z" fill="#fff"/></g><g transform="translate(165.73 276.01)"><path d="m0 0v12.96h9.492v-2.319h-7.119v-2.41h3.879v-2.365h-3.879v-3.547h7.347v-2.319z" fill="#fff"/></g><g transform="translate(125.67 276.01)"><path d="m0 0v12.96h2.327v-10.959h7.393v-2.001z" fill="#fff"/></g><g transform="translate(160.35 276.01)"><path d="m0 0-6.211 8.913v-8.913h-2.284v12.96h2.284l5.983-8.549v8.549h2.237v-12.96z" fill="#fff"/></g><g transform="translate(139.2 298.69)"><path d="m0 0v5.639h-5.846v-5.639h-2.329v12.96h2.329v-5.002h5.846v5.002h2.329v-12.96z" fill="#fff"/></g><g transform="translate(150.62 309.56)"><path d="m0 0c-1.96 0-3.145-1.637-3.145-4.365 0-2.774 1.185-4.411 3.145-4.411 2.461 0 3.054 2.41 3.054 4.411 0 2.728-1.094 4.365-3.054 4.365m0-11.096c-3.828 0-5.515 3.456-5.515 6.731 0 4.138 2.097 6.684 5.515 6.684 3.19 0 5.378-2.683 5.378-6.639 0-4.047-2.097-6.776-5.378-6.776" fill="#fff"/></g><g transform="translate(165.35 298.69)"><path d="m0 0h-2.467l-4.709 12.96h2.467l3.498-9.459 3.498 9.459h2.467z" fill="#fff"/></g><g transform="translate(150.56 354.58)"><path d="m0 0-7.29-14.533 7.29-14.627 7.29 14.627z" fill="#fff"/></g><g transform="translate(145.76 340.04)"><path d="M 0,0 4.8,9.568 9.599,0 4.8,-9.63 Z"/></g><g transform="translate(160.35 246.85)"><path d="m0 0-15.324-16.757-3.864 6.81c-0.057 0.101-0.128 0.196-0.214 0.282-0.514 0.514-1.348 0.514-1.862 0-0.195-0.196-0.316-0.438-0.363-0.691l-3.644-19.078c-0.09-0.423 0.028-0.881 0.356-1.209s0.786-0.446 1.208-0.355l19.078 3.644c0.254 0.046 0.496 0.167 0.691 0.363 0.514 0.514 0.514 1.347 0 1.861-0.086 0.086-0.18 0.157-0.281 0.214l-6.81 3.864 16.757 15.324z" fill="#fff"/></g><g transform="translate(118.61 266.29)"><path d="m0 0h5.723v-1.534h-4.19v-2.388h2.828v-1.568h-2.828v-2.661h4.496v-1.569h-6.029z" fill="#fff"/></g><g transform="translate(127.83 263.15)"><path d="m0 0v-6.582h-1.533v9.72h1.533l3.548-6.207v6.207h1.535v-9.72h-1.364z" fill="#fff"/></g><g transform="translate(138.13 256.57)"><path d="m0 0h-1.542v8.356h-2.226v1.364h6.029v-1.364h-2.261z" fill="#fff"/></g><g transform="translate(145.32 262.36)"><path d="m0 0c1.22 0 1.412 0.88 1.412 1.193 0 0.424-0.317 1.195-1.338 1.195h-2.005v-2.388zm-1.931-1.567v-4.231h-1.533v9.72h3.516c2.228 0 2.897-1.782 2.897-2.73 0-0.361-0.134-1.783-1.509-2.434l1.713-4.556h-1.672l-1.568 4.231z" fill="#fff"/></g><g transform="translate(152.41 260.86)"><path d="m0 0h1.955l-0.961 2.728zm2.503-1.569h-3.052l-0.961-2.728h-1.646l3.361 9.719h1.545l3.36-9.719h-1.646z" fill="#fff"/></g><g transform="translate(160.51 263.15)"><path d="m0 0v-6.582h-1.533v9.72h1.533l3.548-6.207v6.207h1.535v-9.72h-1.364z" fill="#fff"/></g><g transform="translate(167.73 261.44)"><path d="m0 0c0 1.367 0.275 5.012 3.58 5.012 1.41 0 2.37-0.574 3.037-1.978l-1.433-0.614c-0.497 0.715-0.745 1.023-1.602 1.023-2.034 0-2.012-2.834-2.012-3.444 0-0.603-0.038-3.48 2.08-3.48 0.742 0 1.168 0.448 1.5 1.126l1.467-0.545c-0.547-1.352-1.466-2.147-2.935-2.147-3.497 0-3.682 3.864-3.682 5.047" fill="#fff"/></g><g transform="translate(176.48 266.29)"><path d="m0 0h5.723v-1.534h-4.19v-2.388h2.828v-1.568h-2.828v-2.661h4.496v-1.569h-6.029z" fill="#fff"/></g></g></g></svg>
