<?xml version="1.0" encoding="UTF-8"?>
<svg width="273.04" height="137.86" version="1.1" viewBox="0 0 273.04 137.86" xml:space="preserve" xmlns="http://www.w3.org/2000/svg"><defs><clipPath id="a"><path d="m201.51 401.5h235.98v133.48h-235.98z"/></clipPath></defs><g transform="matrix(1.3333 0 0 -1.3333 -291.01 681.7)"><text transform="matrix(1 0 0 -1 354.03 407.99)" fill="black" font-family="Helvetica" font-size="9px"><tspan x="0 6.4980001 11.502 16.506001 19.503 24.507" y="0">R10-29</tspan></text><text transform="matrix(1 0 0 -1 239.75 407.99)" fill="black" font-family="Helvetica" font-size="9px"><tspan x="0 6.4980001 11.502 16.506001 19.503 24.507" y="0">R10-28</tspan></text><g clip-path="url(#a)"><g transform="translate(223 420.9)"><path d="m0 0c-2.55 0-4.625 2.075-4.625 4.625v80.999c0 2.55 2.075 4.625 4.625 4.625h62.999c2.55 0 4.625-2.075 4.625-4.625v-80.999c0-2.55-2.075-4.625-4.625-4.625z" fill="#fff"/></g><g transform="translate(286 511.27)"><path d="m0 0h-62.999c-2.619 0-4.75-2.131-4.75-4.75v-80.999c0-2.619 2.131-4.75 4.75-4.75h62.999c2.619 0 4.75 2.131 4.75 4.75v80.999c0 2.619-2.131 4.75-4.75 4.75m0-0.25c2.485 0 4.5-2.015 4.5-4.5v-80.999c0-2.485-2.015-4.5-4.5-4.5h-62.999c-2.485 0-4.5 2.015-4.5 4.5v80.999c0 2.485 2.015 4.5 4.5 4.5z"/></g><g transform="translate(223 422.15)"><path d="m0 0c-1.861 0-3.375 1.514-3.375 3.375v80.999c0 1.861 1.514 3.375 3.375 3.375h62.999c1.861 0 3.375-1.514 3.375-3.375v-80.999c0-1.861-1.514-3.375-3.375-3.375z"/></g><g transform="translate(223 424.02)"><path d="m0 0c-0.827 0-1.5 0.673-1.5 1.5v80.999c0 0.827 0.673 1.5 1.5 1.5h62.999c0.827 0 1.5-0.673 1.5-1.5v-80.999c0-0.827-0.673-1.5-1.5-1.5z" fill="#fff"/></g><g transform="translate(243.96 491)"><path d="m0 0c1.293 0 2.343 1.225 2.343 4.275 0 3.049-1.05 4.275-2.343 4.275s-2.343-1.224-2.343-4.275c0-3.05 1.05-4.275 2.343-4.275m4.242 4.275c0-0.431 0.091-6.21-4.263-6.21s-4.263 5.779-4.263 6.21c0 0.43-0.091 6.208 4.263 6.208s4.263-5.778 4.263-6.208"/></g><g transform="translate(252.73 497.4)"><path d="m0 0v-8.125h-1.893v11.999h1.893l4.38-7.663v7.663h1.896v-11.999h-1.685z"/></g><g transform="translate(261.89 501.27)"><path d="m0 0h7.065v-1.894h-5.172v-2.948h3.49v-1.936h-3.49v-3.285h5.55v-1.937h-7.443z"/></g><g transform="translate(230.66 469.77)"><path d="m0 0-3.045 12h1.734l1.989-7.791 1.986 7.791h1.734l-3.087-12z"/></g><g transform="translate(236.74 481.77)"><path d="m0 0h5.658v-1.685h-3.927v-3.031h2.49v-1.642h-2.49v-3.959h4.392v-1.683h-6.123z"/></g><g transform="translate(249.9 475.21)"><path d="m0 0h-3.279v-5.431h-1.722v11.999h1.722v-4.884h3.277v4.884h1.724v-11.999h-1.722z"/></g><path d="m254.26 481.77h1.68v-12h-1.68z"/><g transform="translate(263.33 478.57)"><path d="m0 0c-0.166 1.179-0.633 1.727-1.437 1.727-1.395 0-1.903-1.095-1.903-4.209 0-3.453 0.592-4.842 2.073-4.842 1.015 0 1.267 0.843 1.267 1.726h1.734c-0.042-1.978-1.31-3.411-3.001-3.411-2.579 0-3.722 2.063-3.722 6.485 0 3.871 1.226 5.932 3.594 5.932 2.199 0 3.07-2.006 3.129-3.408z"/></g><g transform="translate(267.47 481.77)"><path d="m0 0h1.731v-10.399h4.392v-1.601h-6.123z"/></g><g transform="translate(275.27 481.77)"><path d="m0 0h5.658v-1.685h-3.927v-3.031h2.49v-1.642h-2.49v-3.959h4.392v-1.683h-6.123z"/></g><g transform="translate(242.59 457.43)"><path d="m0 0h2.671c1.506 0 1.667 1.086 1.667 1.473 0 0.562-0.423 1.474-1.602 1.474h-2.736zm2.235-1.936h-2.235v-5.222h-1.893v12h4.536c2.823 0 3.633-2.295 3.633-3.369 0-0.746-0.41-3.409-4.041-3.409"/></g><g transform="translate(250.66 462.27)"><path d="m0 0h7.065v-1.894h-5.172v-2.948h3.49v-1.936h-3.49v-3.285h5.55v-1.937h-7.443z"/></g><g transform="translate(264.42 457.43)"><path d="m0 0c1.506 0 1.743 1.086 1.743 1.473 0 0.523-0.392 1.474-1.651 1.474h-2.475v-2.947zm-2.383-1.935v-5.223h-1.893v12h4.341c2.75 0 3.575-2.201 3.575-3.371 0-0.445-0.165-2.2-1.863-3.004l2.115-5.625h-2.064l-1.936 5.223z"/></g><g transform="translate(234.78 442.98)"><path d="m0 0c1.923 0 3.006-0.729 3.819-2.652l-1.811-0.714c-0.505 1.053-1.009 1.431-1.936 1.431-2.637 0-2.485-4.014-2.485-4.294 0-0.452-0.102-4.253 2.231-4.253 1.221 0 2.106 0.758 2.106 1.853v0.504h-2.189v1.896h4.082v-2.4c0-2.189-1.599-3.789-3.79-3.789-0.435 0-4.377-0.359-4.377 6.21 0 0.919 0.051 6.208 4.35 6.208"/></g><g transform="translate(245.51 437.93)"><path d="m0 0c1.506 0 1.743 1.086 1.743 1.473 0 0.523-0.392 1.474-1.652 1.474h-2.474v-2.947zm-2.383-1.935v-5.223h-1.893v12h4.341c2.75 0 3.575-2.201 3.575-3.371 0-0.445-0.165-2.2-1.863-3.004l2.115-5.625h-2.064l-1.936 5.223z"/></g><g transform="translate(251.44 442.77)"><path d="m0 0h7.065v-1.894h-5.172v-2.948h3.49v-1.936h-3.49v-3.285h5.55v-1.937h-7.443z"/></g><g transform="translate(260.93 442.77)"><path d="m0 0h7.065v-1.894h-5.172v-2.948h3.49v-1.936h-3.49v-3.285h5.55v-1.937h-7.443z"/></g><g transform="translate(272.3 438.9)"><path d="m0 0v-8.125h-1.893v11.999h1.893l4.38-7.663v7.663h1.896v-11.999h-1.685z"/></g><g transform="translate(319.28 420.9)"><path d="m0 0c-2.55 0-4.625 2.075-4.625 4.625v62.999c0 2.55 2.075 4.625 4.625 4.625h98.998c2.55 0 4.625-2.075 4.625-4.625v-62.999c0-2.55-2.075-4.625-4.625-4.625z" fill="#fff"/></g><g transform="translate(418.28 493.27)"><path d="m0 0h-98.998c-2.62 0-4.75-2.131-4.75-4.75v-62.999c0-2.619 2.13-4.75 4.75-4.75h98.998c2.619 0 4.75 2.131 4.75 4.75v62.999c0 2.619-2.131 4.75-4.75 4.75m0-0.25c2.485 0 4.5-2.015 4.5-4.5v-62.999c0-2.485-2.015-4.5-4.5-4.5h-98.998c-2.486 0-4.5 2.015-4.5 4.5v62.999c0 2.485 2.014 4.5 4.5 4.5z"/></g><g transform="translate(319.28 422.15)"><path d="m0 0c-1.861 0-3.375 1.514-3.375 3.375v62.999c0 1.861 1.514 3.375 3.375 3.375h98.998c1.861 0 3.375-1.514 3.375-3.375v-62.999c0-1.861-1.514-3.375-3.375-3.375z"/></g><g transform="translate(319.28 424.02)"><path d="m0 0c-0.827 0-1.5 0.673-1.5 1.5v62.999c0 0.827 0.673 1.5 1.5 1.5h98.998c0.828 0 1.5-0.673 1.5-1.5v-62.999c0-0.827-0.672-1.5-1.5-1.5z" fill="#fff"/></g><g transform="translate(330.51 481.93)"><path d="m0 0h-1.354v1.896h0.156c0.624 0 1.303 0.367 1.719 0.946h1.875v-14.999h-2.396z"/></g><g transform="translate(348.7 471.27)"><path d="m0 0-3.802 12h1.986l2.576-8 2.535 8h2.028l-3.844-12z"/></g><g transform="translate(355.83 483.27)"><path d="m0 0h7.065v-1.894h-5.172v-2.948h3.49v-1.936h-3.49v-3.285h5.55v-1.937h-7.443z"/></g><g transform="translate(371.58 476.5)"><path d="m0 0h-4.381v-5.221h-1.893v11.999h1.893v-4.842h4.38v4.842h1.895v-11.999h-1.894z"/></g><path d="m376.36 483.27h1.92v-12h-1.92z"/><g transform="translate(380.92 477.3)"><path d="m0 0c0 1.687 0.339 6.187 4.42 6.187 1.74 0 2.925-0.708 3.749-2.442l-1.769-0.757c-0.613 0.882-0.919 1.263-1.978 1.263-2.511 0-2.484-3.5-2.484-4.253 0-0.744-0.047-4.295 2.568-4.295 0.916 0 1.443 0.553 1.852 1.39l1.811-0.673c-0.675-1.67-1.809-2.651-3.623-2.651-4.318 0-4.546 4.77-4.546 6.231"/></g><g transform="translate(391.73 483.27)"><path d="m0 0h1.893v-10.231h5.55v-1.769h-7.443z"/></g><g transform="translate(400.97 483.27)"><path d="m0 0h7.065v-1.894h-5.172v-2.948h3.49v-1.936h-3.49v-3.285h5.55v-1.937h-7.443z"/></g><g transform="translate(328.29 458.18)"><path d="m0 0h2.671c1.506 0 1.667 1.086 1.667 1.473 0 0.562-0.423 1.474-1.602 1.474h-2.736zm2.235-1.936h-2.235v-5.222h-1.893v12h4.536c2.823 0 3.633-2.295 3.633-3.369 0-0.746-0.41-3.409-4.041-3.409"/></g><g transform="translate(336.37 463.02)"><path d="m0 0h7.065v-1.894h-5.172v-2.948h3.49v-1.936h-3.49v-3.285h5.55v-1.937h-7.443z"/></g><g transform="translate(350.12 458.18)"><path d="m0 0c1.506 0 1.743 1.086 1.743 1.473 0 0.523-0.392 1.474-1.652 1.474h-2.474v-2.947zm-2.383-1.935v-5.223h-1.893v12h4.341c2.75 0 3.575-2.201 3.575-3.371 0-0.445-0.165-2.2-1.863-3.004l2.115-5.625h-2.064l-1.936 5.223z"/></g><g transform="translate(367.37 463.23)"><path d="m0 0c1.923 0 3.006-0.729 3.819-2.652l-1.811-0.714c-0.505 1.053-1.009 1.431-1.936 1.431-2.637 0-2.485-4.014-2.485-4.294 0-0.452-0.102-4.253 2.232-4.253 1.22 0 2.105 0.758 2.105 1.853v0.504h-2.189v1.896h4.082v-2.4c0-2.189-1.599-3.789-3.79-3.789-0.435 0-4.377-0.359-4.377 6.21 0 0.919 0.051 6.208 4.35 6.208"/></g><g transform="translate(378.1 458.18)"><path d="m0 0c1.506 0 1.743 1.086 1.743 1.473 0 0.523-0.392 1.474-1.651 1.474h-2.475v-2.947zm-2.383-1.935v-5.223h-1.893v12h4.341c2.75 0 3.575-2.201 3.575-3.371 0-0.445-0.165-2.2-1.863-3.004l2.115-5.625h-2.064l-1.936 5.223z"/></g><g transform="translate(384.04 463.02)"><path d="m0 0h7.065v-1.894h-5.172v-2.948h3.49v-1.936h-3.49v-3.285h5.55v-1.937h-7.443z"/></g><g transform="translate(393.52 463.02)"><path d="m0 0h7.065v-1.894h-5.172v-2.948h3.49v-1.936h-3.49v-3.285h5.55v-1.937h-7.443z"/></g><g transform="translate(404.89 459.15)"><path d="m0 0v-8.125h-1.893v11.999h1.893l4.38-7.663v7.663h1.896v-11.999h-1.685z"/></g><g transform="translate(325.38 442.77)"><path d="m0 0h7.065v-1.894h-5.172v-2.948h3.49v-1.936h-3.49v-3.285h5.55v-1.937h-7.443z"/></g><g transform="translate(337.68 436.08)"><path d="m0 0h2.413l-1.186 3.367zm3.09-1.936h-3.768l-1.186-3.369h-2.033l4.151 11.999h1.906l4.149-11.999h-2.033z"/></g><g transform="translate(345.55 436.8)"><path d="m0 0c0 1.687 0.339 6.187 4.42 6.187 1.74 0 2.925-0.708 3.749-2.442l-1.769-0.757c-0.613 0.882-0.919 1.263-1.978 1.263-2.511 0-2.484-3.5-2.484-4.253 0-0.743-0.047-4.295 2.568-4.295 0.916 0 1.443 0.553 1.852 1.39l1.811-0.673c-0.675-1.67-1.809-2.651-3.623-2.651-4.318 0-4.546 4.77-4.546 6.231"/></g><g transform="translate(362.63 436)"><path d="m0 0h-4.381v-5.221h-1.893v11.999h1.893v-4.842h4.38v4.842h1.895v-11.999h-1.894z"/></g><g transform="translate(373.53 442.77)"><path d="m0 0h1.893v-10.231h5.55v-1.769h-7.443z"/></g><g transform="translate(385.59 436.08)"><path d="m0 0h2.413l-1.186 3.367zm3.09-1.936h-3.768l-1.186-3.369h-2.033l4.15 11.999h1.907l4.149-11.999h-2.033z"/></g><g transform="translate(395.59 438.9)"><path d="m0 0v-8.125h-1.893v11.999h1.893l4.38-7.663v7.663h1.896v-11.999h-1.685z"/></g><g transform="translate(404.74 442.77)"><path d="m0 0h7.065v-1.894h-5.172v-2.948h3.49v-1.936h-3.49v-3.285h5.55v-1.937h-7.443z"/></g></g></g></svg>
