<?xml version="1.0" encoding="UTF-8"?>
<svg width="287.92" height="432.1" version="1.1" viewBox="0 0 287.92 432.1" xml:space="preserve" xmlns="http://www.w3.org/2000/svg"><defs><clipPath id="c"><path d="m344.67 49.758h225.33v370.54h-225.33z"/></clipPath><clipPath id="b"><path d="m344.67 49.758h225.33v370.54h-225.33z"/></clipPath><clipPath id="a"><path d="m344.67 49.758h225.33v370.54h-225.33z"/></clipPath></defs><g transform="matrix(1.3333 0 0 -1.3333 -467.43 506.95)"><g transform="translate(419.1 219.61)"><path d="m0 0h-2.597v-17.397h-2.525v17.397h-2.455v2.595h7.577z" fill="#fff" fill-rule="evenodd"/></g><g clip-path="url(#c)"><g transform="translate(358.6 69.74)"><path d="m0 0c-4.357 0-7.901 3.544-7.901 7.901v264.38c0 4.357 3.544 7.901 7.901 7.901h77.76c4.357 0 7.901-3.544 7.901-7.901v-264.38c0-4.357-3.544-7.901-7.901-7.901z" fill="#fff"/></g><g transform="translate(358.6 72.457)"><path d="m0 0c-2.859 0-5.184 2.326-5.184 5.184v264.38c0 2.859 2.325 5.184 5.184 5.184h77.76c2.858 0 5.184-2.325 5.184-5.184v-264.38c0-2.858-2.326-5.184-5.184-5.184z" fill="#006f51"/></g><g transform="translate(397.48 209.83)"><path d="m0 0c-3.006 3.612-7.522 5.815-12.221 5.815h-2.886c-10.198 0-18.515 8.343-18.515 18.572 0 6.323 4.024 10.964 4.024 17.503 0 4.445-1.505 9.059-4.098 12.582l13.342 12.862c2.747-2.326 6.441-3.798 10.102-3.798 3.723 0 7.506 1.408 10.252 3.856 2.746-2.448 6.53-3.856 10.252-3.856 3.662 0 7.356 1.472 10.102 3.798l13.342-12.862c-2.592-3.523-4.097-8.137-4.097-12.582 0-6.539 4.024-11.18 4.024-17.503 0-10.229-8.318-18.572-18.515-18.572h-2.887c-4.699 0-9.214-2.203-12.221-5.815" fill="#fff"/></g><g transform="translate(418.95 157.99)"><path d="m0 0v31.104h14.667v-4.365h-10.179v-7.858h6.457v-4.257h-6.457v-10.258h11.383v-4.366z" fill="#fff"/></g><path d="m387.53 189.1h4.354v-31.104h-4.354z" fill="#fff"/><g transform="translate(398.72 157.99)"><path d="m0 0v31.104h4.488v-26.957h11.383v-4.147z" fill="#fff"/></g><g transform="translate(376.2 157.99)"><path d="m0 0v17.462l-5.792-17.462-5.791 17.462v-17.462h-4.481v31.104h4.481l5.791-17.462 5.792 17.462h4.48v-31.104z" fill="#fff"/></g><g transform="translate(377.3 297.96)"><path d="m0 0-3.456 20.371-3.33-20.371h-3.969l-4.254 36.288h4.735l1.951-16.806 2.948 16.806h3.964l2.953-16.806 1.946 16.806h4.736l-4.25-36.288z" fill="#fff"/></g><g transform="translate(390.03 329.06)"><path d="m0 0h11.391v-4.039h-7.484v-7.967h4.992v-4.144h-4.992v-10.913h7.92v-4.04h-11.827z" fill="#fff"/></g><g transform="translate(414.31 304.62)"><path d="m0 0c0 7.795-8.577 10.248-8.577 17.573 0 4.257 2.594 7.309 6.31 7.309 3.822 0 5.871-2.399 6.306-7.309h-4.039c-0.109 2.403-0.735 3.383-2.158 3.383-1.528 0-2.375-1.315-2.375-3.383 0-2.34 1.314-3.192 3.188-5.424 1.376-1.64 5.388-5.629 5.388-12.149 0-3.029-1.951-7.2-6.527-7.2-4.37 0-6.637 2.834-6.855 8.293h4.04c0-1.194 0.171-4.258 2.815-4.258 1.528 0 2.484 1.202 2.484 3.165" fill="#fff"/></g><g transform="translate(428.61 297.96)"><path d="m0 0h-3.927v27.063h-3.841v4.04h11.827v-4.04h-4.059z" fill="#fff"/></g><g transform="translate(381.13 254.61)"><path d="m0 0h-3.041v4.258h0.35c1.402 0 2.927 0.826 3.862 2.127h4.212v-33.696h-5.383z"/></g><g transform="translate(400.32 232.73)"><path d="m0 0h16.553v-5.438h-22.938c0.118 3.901 0.939 7.102 2.839 10.286 5.913 9.881 14.779 8.891 14.779 14.068 0 2.481-2.83 4.494-6.149 4.494-3.429 0-5.56-1.655-6.15-4.73l-5.319 1.184c1.183 5.555 5.555 8.984 11.465 8.984 6.389 0 11.465-4.494 11.465-10.05 0-4.031-2.313-6.596-5.316-8.462-4.536-2.822-8.706-4.069-11.229-10.336"/></g><g transform="translate(382.23 101.17)"><path d="m0 0v-5.386h-17.112c0 20.539 12.452 25.173 12.452 32.597 0 2.763-1.239 4.365-3.422 4.365-2.037 0-3.499-1.457-3.644-3.494h-5.386c0.29 5.09 3.934 8.724 9.03 8.724 5.246 0 8.813-3.929 8.813-9.606 0-3.701-1.431-5.832-3.867-9.668-3.194-5.018-8.004-12.638-8.004-17.532z" fill="#fff"/></g><g transform="translate(398.74 108.58)"><path d="m0 0c0 4.365-1.192 6.413-3.525 6.413-2.478 0-3.556-2.188-3.556-7.128 0-6.983 2.073-7.434 3.556-7.434 2.115 0 3.525 1.223 3.525 8.149m-12.462-1.167c0 12.37 5.049 22.711 14.94 30.56l2.903-4.51c-4.65-3.789-7.745-7.859-9.917-13.245 0.69 0.228 1.415 0.347 2.136 0.347 6.189 0 7.781-8.237 7.781-12.716 0-8.652-3.204-12.789-9.051-12.789-5.573 0-8.792 4.36-8.792 12.353" fill="#fff"/></g><g transform="translate(416.22 116.45)"><path d="m0 0c0-7.247 0.104-16.008 4.08-16.008s4.074 8.761 4.074 16.008-0.098 16.008-4.074 16.008-4.08-8.761-4.08-16.008m4.08-21.389c-9.311 0-9.544 11.705-9.544 21.389s0.233 21.384 9.544 21.384c9.31 0 9.544-11.7 9.544-21.384s-0.234-21.389-9.544-21.389" fill="#fff"/></g></g><text transform="matrix(1 0 0 -.99716 509 56.25)" fill="black" font-family="Helvetica" font-size="9.0256px"><tspan x="0 6.5164833 11.534717 16.55295 19.558475" y="0">D10-5</tspan></text><g clip-path="url(#b)"><g transform="translate(480.73 68.801)"><path d="m0 0c-4.356 0-7.901 3.544-7.901 7.9v295.49c0 4.356 3.545 7.9 7.901 7.9h77.76c4.356 0 7.901-3.544 7.901-7.9v-295.49c0-4.356-3.545-7.9-7.901-7.9z" fill="#fff"/></g><g transform="translate(558.49 380.22)"><path d="m0 0h-77.76c-4.425 0-8.026-3.6-8.026-8.026v-295.49c0-4.426 3.601-8.026 8.026-8.026h77.76c4.426 0 8.026 3.6 8.026 8.026v295.49c0 4.426-3.6 8.026-8.026 8.026m0-0.25c4.294 0 7.776-3.481 7.776-7.776v-295.49c0-4.294-3.482-7.776-7.776-7.776h-77.76c-4.295 0-7.776 3.482-7.776 7.776v295.49c0 4.295 3.481 7.776 7.776 7.776z"/></g><g transform="translate(480.73 71.517)"><path d="m0 0c-2.859 0-5.184 2.326-5.184 5.184v295.49c0 2.859 2.325 5.184 5.184 5.184h77.76c2.858 0 5.184-2.325 5.184-5.184v-295.49c0-2.858-2.326-5.184-5.184-5.184z" fill="#006f51"/></g><path d="m564.81 133.72h-90.401v2.592h90.401z" fill="#fff"/><g transform="translate(519.61 249.07)"><path d="m0 0c-3.006 3.612-7.522 5.815-12.221 5.815h-2.886c-10.198 0-18.515 8.343-18.515 18.572 0 6.323 4.024 10.965 4.024 17.503 0 4.445-1.505 9.059-4.098 12.582l13.343 12.862c2.746-2.326 6.44-3.798 10.101-3.798 3.723 0 7.506 1.408 10.252 3.856 2.746-2.448 6.53-3.856 10.252-3.856 3.662 0 7.356 1.472 10.102 3.798l13.342-12.862c-2.592-3.523-4.097-8.137-4.097-12.582 0-6.538 4.024-11.18 4.024-17.503 0-10.229-8.317-18.572-18.515-18.572h-2.887c-4.698 0-9.214-2.203-12.221-5.815" fill="#fff"/></g><g transform="translate(541.08 203.68)"><path d="m0 0v31.104h14.667v-4.365h-10.18v-7.858h6.458v-4.257h-6.458v-10.258h11.384v-4.366z" fill="#fff"/></g><path d="m509.65 234.79h4.354v-31.104h-4.354z" fill="#fff"/><g transform="translate(520.85 203.68)"><path d="m0 0v31.104h4.488v-26.957h11.383v-4.147z" fill="#fff"/></g><g transform="translate(498.33 203.68)"><path d="m0 0v17.462l-5.792-17.462-5.791 17.462v-17.462h-4.481v31.104h4.481l5.791-17.462 5.792 17.462h4.48v-31.104z" fill="#fff"/></g><g transform="translate(499.43 330.72)"><path d="m0 0-3.456 20.371-3.33-20.371h-3.969l-4.254 36.288h4.735l1.951-16.806 2.948 16.806h3.964l2.953-16.806 1.946 16.806h4.736l-4.25-36.288z" fill="#fff"/></g><g transform="translate(512.16 361.82)"><path d="m0 0h11.391v-4.039h-7.484v-7.967h4.992v-4.144h-4.992v-10.913h7.92v-4.04h-11.827z" fill="#fff"/></g><g transform="translate(536.44 337.37)"><path d="m0 0c0 7.795-8.577 10.248-8.577 17.573 0 4.257 2.594 7.309 6.31 7.309 3.822 0 5.871-2.399 6.306-7.309h-4.039c-0.109 2.403-0.735 3.382-2.158 3.382-1.528 0-2.375-1.314-2.375-3.382 0-2.341 1.314-3.192 3.188-5.424 1.376-1.64 5.388-5.629 5.388-12.149 0-3.029-1.951-7.2-6.527-7.2-4.37 0-6.637 2.834-6.855 8.292h4.04c0-1.193 0.171-4.257 2.815-4.257 1.528 0 2.484 1.202 2.484 3.165" fill="#fff"/></g><g transform="translate(550.74 330.72)"><path d="m0 0h-3.927v27.063h-3.841v4.04h11.827v-4.04h-4.059z" fill="#fff"/></g><g transform="translate(503.26 293.84)"><path d="m0 0h-3.041v4.258h0.35c1.402 0 2.927 0.826 3.862 2.127h4.212v-33.696h-5.383z"/></g><g transform="translate(522.44 271.97)"><path d="m0 0h16.553v-5.438h-22.938c0.118 3.901 0.939 7.102 2.838 10.286 5.914 9.881 14.78 8.891 14.78 14.068 0 2.481-2.83 4.494-6.149 4.494-3.429 0-5.56-1.655-6.15-4.73l-5.319 1.184c1.183 5.555 5.555 8.984 11.465 8.984 6.389 0 11.465-4.494 11.465-10.05 0-4.031-2.313-6.596-5.316-8.462-4.536-2.822-8.706-4.069-11.229-10.336"/></g><g transform="translate(504.35 152.15)"><path d="m0 0v-5.386h-17.112c0 20.539 12.452 25.173 12.452 32.597 0 2.763-1.239 4.365-3.422 4.365-2.037 0-3.499-1.457-3.644-3.494h-5.386c0.29 5.09 3.934 8.724 9.03 8.724 5.246 0 8.813-3.929 8.813-9.606 0-3.701-1.431-5.832-3.867-9.668-3.194-5.018-8.004-12.638-8.004-17.532z" fill="#fff"/></g><g transform="translate(520.87 159.56)"><path d="m0 0c0 4.365-1.192 6.413-3.525 6.413-2.478 0-3.556-2.188-3.556-7.128 0-6.983 2.073-7.434 3.556-7.434 2.115 0 3.525 1.223 3.525 8.149m-12.462-1.167c0 12.37 5.049 22.711 14.94 30.56l2.903-4.51c-4.65-3.789-7.745-7.859-9.917-13.245 0.69 0.228 1.415 0.347 2.136 0.347 6.19 0 7.781-8.237 7.781-12.716 0-8.652-3.204-12.789-9.051-12.789-5.573 0-8.792 4.36-8.792 12.353" fill="#fff"/></g><g transform="translate(538.35 167.42)"><path d="m0 0c0-7.247 0.104-16.008 4.08-16.008s4.074 8.761 4.074 16.008-0.098 16.008-4.074 16.008-4.08-8.761-4.08-16.008m4.08-21.389c-9.311 0-9.544 11.705-9.544 21.389s0.233 21.384 9.544 21.384c9.31 0 9.544-11.7 9.544-21.384s-0.234-21.389-9.544-21.389" fill="#fff"/></g><g transform="translate(497.2 84.792)"><path d="m0 0c0 1.747 1.592 3.349 3.318 3.349s3.318-1.602 3.318-3.349-1.587-3.344-3.318-3.344c-1.726 0-3.318 1.597-3.318 3.344" fill="#fff"/></g><g transform="translate(531.22 87.701)"><path d="m0 0v-5.822h-23.235c0.332 13.069 6.081 19.544 10.856 23.349 3.665 2.924 6.676 3.681 6.676 7.201 0 3.224-2.617 5.847-5.842 5.847-3.224 0-5.842-2.623-5.842-5.847h-5.848c0.146 6.552 5.127 11.643 11.69 11.643 6.428 0 11.545-5.241 11.545-11.643 0-12.188-13.033-8.015-16.807-24.728z" fill="#fff"/></g></g><text transform="matrix(1 0 0 -.99716 383.87 56.25)" fill="black" font-family="Helvetica" font-size="9.0256px"><tspan x="0 6.5164833 11.534717 16.55295 19.558475" y="0">D10-4</tspan></text><g clip-path="url(#a)"><g transform="translate(436.36 350.05)"><path d="m0 0h-77.76c-4.426 0-8.026-3.6-8.026-8.026v-264.38c0-4.426 3.6-8.026 8.026-8.026h77.76c4.425 0 8.026 3.6 8.026 8.026v264.38c0 4.426-3.601 8.026-8.026 8.026m0-0.25c4.294 0 7.776-3.481 7.776-7.776v-264.38c0-4.295-3.482-7.776-7.776-7.776h-77.76c-4.295 0-7.776 3.481-7.776 7.776v264.38c0 4.295 3.481 7.776 7.776 7.776z"/></g></g></g></svg>
