<?xml version="1.0" encoding="UTF-8"?>
<svg width="672.5" height="215.68" version="1.1" viewBox="0 0 672.5 215.68" xml:space="preserve" xmlns="http://www.w3.org/2000/svg"><defs><clipPath id="a"><path d="m31.624 45h505.75v181.92h-505.75z"/></clipPath></defs><g transform="matrix(1.3333 0 0 -1.3333 -42.166 275.68)"><g clip-path="url(#a)"><g transform="translate(282.58 123.46)"><path d="m0 0c-19.919 0-36.067 16.15-36.067 36.069s16.148 36.07 36.067 36.07 36.069-16.151 36.069-36.07-16.15-36.069-36.069-36.069" fill="#f4da8f"/></g><g transform="translate(281.29 193.02)"><path d="m0 0 0.284 0.24c0.628 0.303 1.241 0.541 1.673 0.602 1.109 0.157 3.113-0.538 3.43-2.777 0.312-2.239-0.785-2.48-0.66-3.375 0.127-0.894 1.388-1.815 1.523-2.773 0.133-0.96-0.342-2.773-0.076-4.659l-4.576 0.292z" fill="#fff"/><path d="m0 0 0.284 0.24c0.628 0.303 1.241 0.541 1.673 0.602 1.109 0.157 3.113-0.538 3.43-2.777 0.312-2.239-0.785-2.48-0.66-3.375 0.127-0.894 1.388-1.815 1.523-2.773 0.133-0.96-0.342-2.773-0.076-4.659l-4.576 0.292z" fill="none" stroke="#0066b3" stroke-width=".748"/></g><g transform="translate(277.54 193.46)"><path d="m0 0 0.284 0.239c0.628 0.305 1.24 0.545 1.674 0.604 1.108 0.157 3.113-0.54 3.429-2.778 0.313-2.239-0.784-2.479-0.66-3.373 0.127-0.894 1.389-1.816 1.524-2.776 0.133-0.96-0.343-2.773-0.077-4.657l-4.575 0.29z" fill="#fff"/><path d="m0 0 0.284 0.239c0.628 0.305 1.24 0.545 1.674 0.604 1.108 0.157 3.113-0.54 3.429-2.778 0.313-2.239-0.784-2.479-0.66-3.373 0.127-0.894 1.389-1.816 1.524-2.776 0.133-0.96-0.343-2.773-0.077-4.657l-4.575 0.29z" fill="none" stroke="#0066b3" stroke-width=".748"/></g><g transform="translate(275.19 182.26)"><path d="m0 0-0.163 1.27-0.287 2.231-0.317 2.485-0.299 2.335-0.329 2.558 0.284 0.239c0.629 0.304 1.24 0.543 1.673 0.603 1.109 0.157 3.114-0.538 3.429-2.777 0.316-2.237-0.784-2.478-0.659-3.373 0.128-0.895 1.39-1.817 1.523-2.775 0.133-0.96-0.342-2.773-0.077-4.66l-3.622-0.939z" fill="#fff"/><path d="m0 0-0.163 1.27-0.287 2.231-0.317 2.485-0.299 2.335-0.329 2.558 0.284 0.239c0.629 0.304 1.24 0.543 1.673 0.603 1.109 0.157 3.114-0.538 3.429-2.777 0.316-2.237-0.784-2.478-0.659-3.373 0.128-0.895 1.39-1.817 1.523-2.775 0.133-0.96-0.342-2.773-0.077-4.66l-3.622-0.939z" fill="none" stroke="#0066b3" stroke-width=".748"/></g><g transform="translate(267.29 193.11)"><path d="m0 0c0.152 0.4 3.406 1.046 4.689 1.226 1.112 0.156 3.117-0.54 3.432-2.778 0.314-2.237-0.784-2.478-0.659-3.373 0.126-0.895 1.39-1.817 1.522-2.776 0.134-0.958-0.342-2.773-0.076-4.659l-0.336-0.92" fill="#f4da8f" stroke="#0066b3" stroke-width=".748"/></g><g transform="translate(248.82 172.26)"><path d="m0 0c5.143 13.639 18.317 23.343 33.757 23.343s28.614-9.704 33.757-23.343h11.605c-5.553 19.828-23.76 34.373-45.362 34.373-21.604 0-39.808-14.545-45.359-34.373z" fill="#5d0201"/></g><g transform="translate(245.87 178.65)"><path d="m0 0 1.945-1.108c0.184-0.106 0.314-0.171 0.388-0.198 0.073-0.026 0.131-0.033 0.17-0.016 0.026 0.013 0.065 0.029 0.115 0.055 0.184 0.101 0.336 0.116 0.454 0.046 0.087-0.047 0.132-0.114 0.137-0.203 3e-3 -0.087-0.033-0.197-0.108-0.331l-0.932-1.635c-0.072-0.124-0.148-0.206-0.226-0.246-0.08-0.036-0.162-0.031-0.249 0.017-0.101 0.059-0.159 0.183-0.175 0.374-1e-3 0.053-5e-3 0.092-6e-3 0.12-9e-3 0.06-0.041 0.121-0.101 0.179-0.058 0.055-0.162 0.128-0.311 0.213l-4.254 2.422c-0.185 0.106-0.316 0.173-0.391 0.2-0.079 0.029-0.137 0.036-0.173 0.016-0.032-0.016-0.077-0.038-0.131-0.069-0.178-0.095-0.325-0.111-0.434-0.049-0.086 0.049-0.13 0.121-0.135 0.212-3e-3 0.09 0.031 0.205 0.11 0.338l0.927 1.626c0.069 0.124 0.145 0.206 0.223 0.244 0.077 0.039 0.158 0.034 0.245-0.015 0.102-0.059 0.167-0.19 0.184-0.395 4e-3 -0.045 5e-3 -0.074 7e-3 -0.091 9e-3 -0.061 0.041-0.121 0.099-0.177 0.056-0.055 0.157-0.125 0.304-0.208l1.563-0.891 1.518 2.661-1.493 0.85c-0.186 0.107-0.316 0.172-0.393 0.201-0.075 0.029-0.133 0.032-0.172 0.012-0.031-0.012-0.074-0.036-0.131-0.065-0.178-0.096-0.322-0.111-0.433-0.05-0.085 0.05-0.131 0.118-0.135 0.209-6e-3 0.09 0.03 0.205 0.108 0.34l0.936 1.641c0.068 0.121 0.14 0.201 0.217 0.239 0.077 0.037 0.159 0.032 0.246-0.02 0.104-0.059 0.167-0.19 0.184-0.399 4e-3 -0.041 7e-3 -0.07 9e-3 -0.087 8e-3 -0.062 0.039-0.121 0.097-0.179 0.054-0.057 0.157-0.126 0.304-0.21l4.261-2.43c0.185-0.104 0.316-0.17 0.39-0.196 0.073-0.026 0.131-0.031 0.172-0.013 0.026 0.013 0.062 0.031 0.115 0.055 0.184 0.102 0.336 0.115 0.454 0.05 0.087-0.05 0.13-0.118 0.133-0.207 5e-3 -0.089-0.033-0.2-0.109-0.335l-0.929-1.634c-0.072-0.126-0.149-0.207-0.229-0.246-0.08-0.036-0.162-0.033-0.246 0.017-0.103 0.058-0.162 0.183-0.177 0.374-2e-3 0.049-3e-3 0.09-8e-3 0.118-5e-3 0.063-0.037 0.121-0.099 0.179-0.059 0.057-0.164 0.13-0.312 0.213l-2.009 1.143z" fill="#fff"/></g><g transform="translate(254.05 189.17)"><path d="m0 0 1.51 1.352c-0.528 0.296-1.006 0.549-1.433 0.761s-0.76 0.365-1.004 0.459c0.121-0.406 0.258-0.821 0.41-1.243 0.155-0.424 0.327-0.866 0.517-1.329m0.388-0.902c0.194-0.44 0.34-0.755 0.439-0.949 0.095-0.19 0.174-0.318 0.232-0.383 0.063-0.071 0.15-0.099 0.268-0.087 0.034 5e-3 0.061 8e-3 0.077 0.011 0.125 0.011 0.219 0.01 0.28-5e-3 0.062-0.015 0.113-0.047 0.155-0.093 0.057-0.066 0.087-0.135 0.087-0.209 2e-3 -0.073-0.028-0.136-0.082-0.185l-1.079-0.965c-0.089-0.081-0.174-0.122-0.258-0.127-0.082-4e-3 -0.155 0.029-0.22 0.098-0.074 0.083-0.092 0.203-0.058 0.36 0.036 0.158 0.05 0.253 0.048 0.29-5e-3 0.078-0.151 0.456-0.438 1.125-0.283 0.67-0.529 1.266-0.738 1.785-0.259 0.643-0.484 1.24-0.667 1.787-0.186 0.548-0.321 1.009-0.405 1.38l-0.019 0.078c-0.131 0.548-0.071 0.931 0.178 1.153 0.15 0.137 0.287 0.222 0.401 0.255 0.115 0.032 0.256 0.029 0.422-0.01 0.224-0.05 0.656-0.212 1.295-0.489 0.639-0.275 1.344-0.613 2.116-1.011 0.646-0.335 1.267-0.679 1.863-1.037 0.598-0.354 0.906-0.534 0.922-0.538 0.038-0.01 0.14-7e-3 0.299 9e-3 0.162 0.015 0.28-0.022 0.362-0.113 0.071-0.08 0.094-0.164 0.071-0.256s-0.095-0.193-0.212-0.299l-1.447-1.296c-0.094-0.082-0.183-0.125-0.268-0.128-0.087-4e-3 -0.164 0.036-0.231 0.109-0.083 0.094-0.111 0.215-0.08 0.37 0.029 0.154 0.019 0.259-0.036 0.32-0.058 0.065-0.205 0.172-0.441 0.323-0.237 0.15-0.522 0.318-0.853 0.502z" fill="#fff"/></g><g transform="translate(263.4 198.69)"><path d="m0 0 1.48-3.554c0.131-0.311 0.238-0.531 0.322-0.656 0.087-0.125 0.169-0.188 0.246-0.193 0.057 0 0.142 3e-3 0.253 0.012 0.297 0.024 0.48-0.049 0.55-0.215 0.048-0.118 0.047-0.221-4e-3 -0.306-0.053-0.089-0.159-0.166-0.32-0.234l-1.466-0.611c-0.162-0.066-0.289-0.087-0.395-0.066-0.104 0.023-0.179 0.087-0.221 0.192-0.066 0.157-6e-3 0.321 0.179 0.489 0.061 0.059 0.102 0.105 0.119 0.138 0.053 0.087 0.063 0.21 0.031 0.367-0.032 0.159-0.154 0.494-0.364 1.004l-1.467 3.515c-0.082 0.2-0.148 0.321-0.201 0.37-0.051 0.048-0.12 0.072-0.209 0.076-0.039 0-0.092-4e-3 -0.16-7e-3 -0.268-0.013-0.434 0.06-0.497 0.213-0.061 0.142-0.053 0.263 0.022 0.369 0.073 0.108 0.219 0.205 0.437 0.294l1.547 0.647c0.219 0.091 0.386 0.121 0.504 0.089 0.116-0.034 0.292-0.169 0.53-0.415l2.394-2.46-0.025 3.575c0 0.272 0.023 0.455 0.068 0.547s0.13 0.164 0.256 0.216l1.581 0.66c0.197 0.082 0.351 0.108 0.465 0.078 0.116-0.03 0.202-0.115 0.261-0.257 0.069-0.169 0.012-0.332-0.174-0.487-0.029-0.027-0.052-0.05-0.065-0.063-0.07-0.069-0.112-0.138-0.119-0.204-9e-3 -0.068 0.017-0.174 0.078-0.316l1.772-4.251c0.098-0.237 0.189-0.394 0.267-0.476 0.082-0.082 0.194-0.128 0.333-0.138 0.016 0 0.043 0 0.076-2e-3 0.206-7e-3 0.338-0.08 0.396-0.211 0.046-0.118 0.041-0.223-0.026-0.312-0.065-0.088-0.193-0.174-0.389-0.256l-1.882-0.782c-0.145-0.061-0.267-0.084-0.359-0.066-0.094 0.018-0.16 0.074-0.2 0.167-0.06 0.147-0.019 0.304 0.122 0.471 0.049 0.06 0.083 0.102 0.105 0.132 0.04 0.063 0.05 0.147 0.04 0.251-0.016 0.103-0.065 0.254-0.147 0.451l-1.596 3.829 0.061-4.427c8e-3 -0.242-0.012-0.422-0.055-0.538-0.043-0.114-0.121-0.196-0.232-0.242-0.115-0.048-0.229-0.046-0.342 3e-3 -0.109 0.051-0.263 0.174-0.454 0.371z" fill="#fff"/></g><g transform="translate(278.57 204.63)"><path d="m0 0c0.148 0.017 0.26 5e-3 0.337-0.036 0.075-0.041 0.118-0.108 0.131-0.207 0.011-0.121-0.061-0.249-0.217-0.384-0.029-0.026-0.054-0.049-0.073-0.065-0.045-0.039-0.071-0.095-0.084-0.177-0.012-0.079-8e-3 -0.2 9e-3 -0.368l0.533-4.872c0.022-0.21 0.046-0.355 0.066-0.43 0.022-0.076 0.053-0.125 0.094-0.148 0.024-0.013 0.062-0.033 0.111-0.059 0.19-0.092 0.291-0.205 0.308-0.342 0.01-0.097-0.022-0.174-0.089-0.229-0.07-0.054-0.183-0.09-0.337-0.109l-1.888-0.206c-0.142-0.014-0.251 0-0.332 0.042-0.077 0.043-0.123 0.113-0.133 0.21-0.01 0.115 0.056 0.236 0.205 0.361 0.042 0.037 0.075 0.063 0.097 0.082 0.04 0.039 0.067 0.099 0.077 0.181 0.016 0.078 0.012 0.205-7e-3 0.377l-0.529 4.861c-0.022 0.194-0.046 0.333-0.072 0.418-0.026 0.086-0.059 0.14-0.099 0.162-0.027 0.019-0.072 0.04-0.129 0.069-0.177 0.085-0.274 0.193-0.289 0.324-9e-3 0.099 0.018 0.178 0.089 0.233 0.073 0.056 0.182 0.092 0.336 0.109z" fill="#fff"/></g><g transform="translate(285.26 197.31)"><path d="m0 0c-0.154 0.021-0.262 0.062-0.334 0.125-0.066 0.061-0.092 0.146-0.079 0.253 0.021 0.147 0.136 0.251 0.343 0.311 0.029 0.01 0.05 0.017 0.07 0.022 0.096 0.034 0.16 0.077 0.193 0.123 0.034 0.049 0.061 0.138 0.079 0.269l0.701 5.227c0.011 0.066 6e-3 0.123-0.01 0.167-0.016 0.046-0.049 0.085-0.1 0.118-0.015 0.013-0.039 0.029-0.074 0.051-0.199 0.136-0.287 0.28-0.267 0.435 0.015 0.123 0.07 0.209 0.16 0.256 0.091 0.047 0.222 0.059 0.394 0.036l2.149-0.289c0.134-0.016 0.236-0.062 0.298-0.134 0.063-0.073 0.088-0.166 0.071-0.283-0.022-0.168-0.133-0.272-0.328-0.315-0.051-0.01-0.088-0.018-0.114-0.026-0.109-0.033-0.183-0.075-0.224-0.124-0.041-0.053-0.073-0.164-0.096-0.332l-0.654-4.876c-0.031-0.223-4e-3 -0.374 0.078-0.452 0.084-0.077 0.297-0.138 0.641-0.184 0.404-0.055 0.73-0.069 0.976-0.04 0.248 0.026 0.459 0.1 0.635 0.217 0.082 0.055 0.187 0.137 0.316 0.246 0.196 0.171 0.348 0.249 0.459 0.236 0.119-0.016 0.209-0.06 0.268-0.13 0.06-0.07 0.082-0.155 0.068-0.263-0.015-0.107-0.047-0.23-0.094-0.375-0.045-0.141-0.109-0.301-0.191-0.486-0.092-0.203-0.18-0.328-0.262-0.377s-0.197-0.062-0.347-0.043z" fill="#fff"/></g><g transform="translate(299.14 194.99)"><path d="m0 0c-0.084-0.19-0.133-0.325-0.147-0.403-9e-3 -0.081-1e-3 -0.142 0.032-0.184 0.019-0.033 0.045-0.069 0.076-0.112 0.133-0.187 0.172-0.341 0.117-0.466-0.039-0.092-0.103-0.141-0.197-0.152-0.09-0.012-0.211 0.014-0.358 0.08l-1.81 0.794c-0.139 0.062-0.233 0.131-0.281 0.209-0.049 0.077-0.055 0.159-0.016 0.249 0.053 0.12 0.191 0.192 0.412 0.212 0.057 6e-3 0.096 9e-3 0.117 9e-3 0.057 8e-3 0.114 0.043 0.166 0.105 0.055 0.064 0.116 0.175 0.184 0.332l2.152 4.895-0.388 0.172c-0.204 0.087-0.395 0.123-0.581 0.108-0.185-0.016-0.423-0.094-0.712-0.237-0.01-2e-3 -0.026-9e-3 -0.051-0.021-0.246-0.123-0.434-0.156-0.557-0.104-0.09 0.039-0.144 0.095-0.168 0.171-0.023 0.075-0.01 0.162 0.033 0.266 0.02 0.043 0.036 0.075 0.049 0.098 0.016 0.023 0.028 0.044 0.045 0.064l0.5 0.701c0.108 0.157 0.211 0.252 0.307 0.285s0.222 0.017 0.373-0.05l4.664-2.05c0.15-0.066 0.246-0.144 0.287-0.238 0.037-0.091 0.037-0.231-4e-3 -0.418l-0.18-0.846c-2e-3 -0.027-7e-3 -0.053-0.017-0.077-8e-3 -0.026-0.02-0.062-0.035-0.101-0.047-0.101-0.106-0.167-0.174-0.2-0.072-0.032-0.153-0.032-0.238 7e-3 -0.123 0.052-0.225 0.213-0.301 0.478-0.01 0.026-0.016 0.046-0.02 0.06-0.09 0.304-0.195 0.531-0.308 0.679-0.116 0.148-0.272 0.266-0.469 0.351l-0.379 0.167z" fill="#fff"/></g><g transform="translate(308.53 191.99)"><path d="m0 0c-0.666-0.752-1.047-1.454-1.141-2.108-0.097-0.654 0.1-1.197 0.586-1.629 0.518-0.456 1.084-0.595 1.703-0.417 0.62 0.18 1.29 0.675 2.014 1.494 0.639 0.723 1.004 1.406 1.086 2.045 0.084 0.639-0.119 1.175-0.611 1.61-0.5 0.441-1.059 0.578-1.684 0.409-0.623-0.171-1.273-0.638-1.953-1.404m-1.443 1.274c0.404 0.456 0.843 0.796 1.318 1.013 0.473 0.22 1.006 0.329 1.598 0.331 0.48 0 0.949-0.092 1.406-0.272 0.459-0.181 0.881-0.44 1.262-0.782 0.414-0.364 0.738-0.76 0.972-1.19 0.237-0.43 0.381-0.883 0.432-1.358 0.06-0.577 0.01-1.11-0.154-1.605-0.164-0.492-0.452-0.969-0.86-1.428-0.412-0.468-0.853-0.81-1.314-1.027-0.461-0.215-0.987-0.321-1.576-0.318-0.494 4e-3 -0.975 0.093-1.436 0.272-0.461 0.181-0.885 0.44-1.267 0.778-0.397 0.353-0.708 0.739-0.93 1.155-0.223 0.417-0.361 0.88-0.42 1.384-0.07 0.601-0.026 1.144 0.133 1.633 0.154 0.49 0.433 0.96 0.836 1.414" fill="#fff"/></g><g transform="translate(319.35 182.66)"><path d="m0 0-3.693-2.082c-0.211-0.119-0.342-0.215-0.387-0.283-0.049-0.073-0.065-0.168-0.053-0.283 6e-3 -0.04 0.016-0.091 0.03-0.158 0.046-0.206 1e-3 -0.347-0.133-0.425-0.106-0.058-0.194-0.075-0.262-0.046-0.066 0.025-0.141 0.112-0.223 0.255l-0.834 1.48c-0.072 0.128-0.101 0.233-0.09 0.315 0.014 0.079 0.069 0.148 0.165 0.204 0.14 0.078 0.279 0.055 0.416-0.071 0.132-0.127 0.209-0.192 0.23-0.2 0.1-0.041 0.201-0.051 0.305-0.028 0.101 0.019 0.281 0.101 0.539 0.249l4.004 2.255c0.156 0.087 0.256 0.165 0.297 0.229 0.039 0.063 0.05 0.147 0.041 0.256-2e-3 0.043-0.01 0.099-0.024 0.167-0.039 0.214 0.016 0.364 0.166 0.448 0.094 0.053 0.178 0.065 0.258 0.038 0.076-0.03 0.146-0.095 0.205-0.204l0.789-1.394c0.151-0.271 0.141-0.616-0.033-1.034-0.018-0.048-0.035-0.089-0.049-0.121-0.262-0.673-0.58-1.42-0.953-2.238-0.373-0.817-0.793-1.68-1.256-2.592l3.078 1.736c0.141 0.079 0.244 0.154 0.311 0.226 0.06 0.074 0.097 0.151 0.099 0.23-2e-3 0.049-7e-3 0.115-0.013 0.197-0.018 0.223 0.041 0.374 0.179 0.452 0.1 0.057 0.196 0.066 0.286 0.028 0.091-0.038 0.173-0.12 0.246-0.251l0.73-1.295c0.065-0.116 0.084-0.22 0.061-0.312-0.026-0.096-0.092-0.171-0.198-0.231-0.119-0.068-0.257-0.042-0.414 0.08-0.048 0.039-0.087 0.065-0.119 0.085-0.09 0.049-0.181 0.069-0.271 0.059s-0.246-0.079-0.463-0.202l-4.598-2.589c-0.299-0.169-0.511-0.237-0.642-0.208-0.125 0.031-0.256 0.16-0.383 0.389-0.102 0.182-0.164 0.328-0.182 0.438-0.017 0.112 4e-3 0.231 0.059 0.364 0.021 0.046 0.105 0.226 0.254 0.539 0.857 1.788 1.697 3.63 2.525 5.528" fill="#fff"/></g><g transform="translate(291.72 176.63)"><path d="m0 0c0.592 1.711-0.988 5.262-3.353 3.486 1.181 2.434-3.619 4.669-4.408 1.906-1.053 2.763-4.736 1.974-4.933-0.13-1.644 2.369-5.065 0.33-4.472-1.644-1.841 0.92-3.946-1.382-2.697-3.881 0.922-1.512 3.945-1.315 4.339 0.198 0.791-1.843 4.281-2.883 4.707-0.652 1.148-2.835 6.014-2.966 6.342-0.992 1.252-1.58 3.883 0 4.475 1.709" fill="#fff"/><path d="m0 0c0.592 1.711-0.988 5.262-3.353 3.486 1.181 2.434-3.619 4.669-4.408 1.906-1.053 2.763-4.736 1.974-4.933-0.13-1.644 2.369-5.065 0.33-4.472-1.644-1.841 0.92-3.946-1.382-2.697-3.881 0.922-1.512 3.945-1.315 4.339 0.198 0.791-1.843 4.281-2.883 4.707-0.652 1.148-2.835 6.014-2.966 6.342-0.992 1.252-1.58 3.883 0 4.475 1.709z" fill="none" stroke="#0066b3" stroke-miterlimit="2" stroke-width=".708"/></g><g transform="translate(294.55 174.18)"><path d="m0 0c0.594 1.711-0.986 5.262-3.352 3.486 1.182 2.435-3.617 4.67-4.408 1.907-1.053 2.763-4.735 1.973-4.931-0.131-1.645 2.367-5.065 0.328-4.473-1.644-1.843 0.922-3.947-1.382-2.697-3.882 0.921-1.512 3.946-1.312 4.34 0.199 0.789-1.843 4.28-2.883 4.707-0.652 1.148-2.835 6.013-2.966 6.341-0.994 1.252-1.578 3.881 0 4.473 1.711" fill="#fff"/><path d="m0 0c0.594 1.711-0.986 5.262-3.352 3.486 1.182 2.435-3.617 4.67-4.408 1.907-1.053 2.763-4.735 1.973-4.931-0.131-1.645 2.367-5.065 0.328-4.473-1.644-1.843 0.922-3.947-1.382-2.697-3.882 0.921-1.512 3.946-1.312 4.34 0.199 0.789-1.843 4.28-2.883 4.707-0.652 1.148-2.835 6.013-2.966 6.341-0.994 1.252-1.578 3.881 0 4.473 1.711z" fill="none" stroke="#0066b3" stroke-miterlimit="2" stroke-width=".708"/></g><g transform="translate(300.93 171.68)"><path d="m0 0c0.592 1.709-0.986 5.261-3.353 3.484 1.183 2.435-3.62 4.669-4.409 1.909-1.051 2.76-4.734 1.973-4.931-0.132-1.645 2.368-5.066 0.33-4.471-1.646-1.843 0.922-3.946-1.381-2.697-3.878 0.92-1.512 3.945-1.316 4.338 0.197 0.789-1.841 4.281-2.884 4.707-0.653 1.148-2.834 6.015-2.965 6.343-0.991 1.25-1.58 3.881 0 4.473 1.71" fill="#fff"/><path d="m0 0c0.592 1.709-0.986 5.261-3.353 3.484 1.183 2.435-3.62 4.669-4.409 1.909-1.051 2.76-4.734 1.973-4.931-0.132-1.645 2.368-5.066 0.33-4.471-1.646-1.843 0.922-3.946-1.381-2.697-3.878 0.92-1.512 3.945-1.316 4.338 0.197 0.789-1.841 4.281-2.884 4.707-0.653 1.148-2.834 6.015-2.965 6.343-0.991 1.25-1.58 3.881 0 4.473 1.71z" fill="none" stroke="#0066b3" stroke-miterlimit="2" stroke-width=".708"/></g><g transform="translate(289.29 169.64)"><path d="m0 0c0.59 1.712-0.986 5.262-3.355 3.486 1.183 2.434-3.618 4.67-4.407 1.908-1.052 2.762-4.736 1.973-4.932-0.132-1.645 2.367-5.064 0.328-4.473-1.644-1.841 0.92-3.945-1.382-2.697-3.882 0.922-1.512 3.949-1.314 4.343 0.199 0.789-1.842 4.278-2.883 4.704-0.652 1.148-2.835 6.017-2.966 6.345-0.994 1.247-1.578 3.88 0 4.472 1.711" fill="#fff"/><path d="m0 0c0.59 1.712-0.986 5.262-3.355 3.486 1.183 2.434-3.618 4.67-4.407 1.908-1.052 2.762-4.736 1.973-4.932-0.132-1.645 2.367-5.064 0.328-4.473-1.644-1.841 0.92-3.945-1.382-2.697-3.882 0.922-1.512 3.949-1.314 4.343 0.199 0.789-1.842 4.278-2.883 4.704-0.652 1.148-2.835 6.017-2.966 6.345-0.994 1.247-1.578 3.88 0 4.472 1.711z" fill="none" stroke="#0066b3" stroke-miterlimit="2" stroke-width=".708"/></g><g transform="translate(298.94 167.61)"><path d="m0 0c0.59 1.71-0.986 5.26-3.355 3.485 1.187 2.435-3.618 4.669-4.405 1.907-1.053 2.762-4.736 1.974-4.933-0.132-1.646 2.369-5.065 0.33-4.474-1.644-1.841 0.922-3.945-1.382-2.695-3.882 0.92-1.51 3.947-1.312 4.34 0.201 0.79-1.843 4.28-2.884 4.704-0.654 1.148-2.835 6.017-2.966 6.345-0.992 1.248-1.578 3.881 0 4.473 1.711" fill="#fff"/><path d="m0 0c0.59 1.71-0.986 5.26-3.355 3.485 1.187 2.435-3.618 4.669-4.405 1.907-1.053 2.762-4.736 1.974-4.933-0.132-1.646 2.369-5.065 0.33-4.474-1.644-1.841 0.922-3.945-1.382-2.695-3.882 0.92-1.51 3.947-1.312 4.34 0.201 0.79-1.843 4.28-2.884 4.704-0.654 1.148-2.835 6.017-2.966 6.345-0.992 1.248-1.578 3.881 0 4.473 1.711z" fill="none" stroke="#0066b3" stroke-miterlimit="2" stroke-width=".708"/></g><g transform="translate(327.94 172.26)"><path d="m0 0c-5.553 19.828-23.76 34.373-45.362 34.373-21.604 0-39.808-14.545-45.36-34.373" fill="none" stroke="#000" stroke-width=".25"/></g><path d="m373.3 45.251h-181.44v127.01h181.44z" fill="#fff"/><path d="m373.3 46.805h-181.44v123.94h181.44z" fill="#005a9c"/><g transform="translate(373.55 172.51)"><path d="m0 0h-181.94v-127.51h181.94v127.26zm-0.25-127.26h-181.44v127.01h181.44z"/></g><path d="m373.3 117.95h-181.44v1.509h181.44z" fill="#fff"/><path d="m373.3 81.677h-181.44v1.513h181.44z" fill="#fff"/><g transform="translate(218.67 144.56)"><path d="m0 0-0.093 0.145-8.929 11.041-0.053 0.056c-0.177 0.174-0.415 0.279-0.653 0.279-0.25 0-0.497-0.099-0.66-0.283l-0.088-0.109-8.813-10.896-0.179-0.275c-0.046-0.108-0.087-0.253-0.087-0.381 0-0.489 0.39-0.902 0.899-0.902l0.574 0.106 6.11 1.462-0.783-10.797h6.058l-0.783 10.797 6.469-1.549s0.184-0.019 0.215-0.019c0.488 0 0.899 0.413 0.899 0.902 0 0.148-0.038 0.292-0.103 0.423" fill="#fff"/></g><g transform="translate(209.43 109.54)"><path d="m0 0-0.147-0.092-11.039-8.931-0.055-0.052c-0.174-0.171-0.279-0.41-0.279-0.647 0-0.251 0.098-0.501 0.281-0.663l0.111-0.089 10.898-8.813 0.271-0.179c0.112-0.044 0.255-0.085 0.383-0.085 0.49 0 0.902 0.391 0.902 0.898l-0.106 0.572-1.466 6.111 10.803-0.784v6.058l-10.803-0.781 1.551 6.466s0.021 0.185 0.021 0.217c0 0.489-0.412 0.9-0.902 0.9-0.148 0-0.294-0.041-0.424-0.106" fill="#fff"/></g><g transform="translate(346.66 53.666)"><path d="m0 0 0.145 0.096 11.041 8.927 0.056 0.055c0.174 0.174 0.278 0.411 0.278 0.65 0 0.251-0.1 0.5-0.28 0.663l-0.111 0.088-10.899 8.812-0.275 0.18c-0.107 0.045-0.25 0.086-0.379 0.086-0.49 0-0.902-0.391-0.902-0.898l0.105-0.574 1.463-6.11-10.799 0.781v-6.057l10.799 0.783-1.547-6.468s-0.021-0.185-0.021-0.215c0-0.488 0.412-0.899 0.902-0.899 0.147 0 0.295 0.035 0.424 0.1" fill="#fff"/></g><path d="m535.88 172.26h-129.6v-64.799h129.6z" fill="#2e3092"/><g transform="translate(535.88 172.26)"><path d="m0 0h-129.6v-64.799h129.6z" fill="none" stroke="#fff" stroke-width=".096"/></g><path d="m535.88 161.46h-129.6v10.8h129.6z" fill="#584f5f"/><path d="m535.88 107.46h-129.6v5.398h129.6z" fill="#584f5f"/><g transform="translate(535.88 172.26)"><path d="m0 0h-129.6v-64.799h129.6z" fill="none" stroke="#000" stroke-width=".25"/></g><g transform="translate(416.44 169.68)"><path d="m0 0 0.041-1.8h-0.164c-0.076 0.45-0.266 0.813-0.568 1.088-0.303 0.275-0.629 0.412-0.981 0.412-0.271 0-0.488-0.072-0.646-0.217-0.159-0.144-0.237-0.31-0.237-0.5 0-0.119 0.028-0.224 0.084-0.318 0.076-0.125 0.199-0.247 0.369-0.37 0.127-0.086 0.415-0.241 0.868-0.465 0.632-0.31 1.06-0.603 1.281-0.879 0.219-0.274 0.326-0.59 0.326-0.944 0-0.451-0.176-0.839-0.527-1.163-0.352-0.327-0.801-0.488-1.344-0.488-0.17 0-0.33 0.017-0.482 0.051-0.151 0.035-0.34 0.102-0.571 0.196-0.127 0.054-0.232 0.081-0.314 0.081-0.071 0-0.143-0.027-0.219-0.081-0.078-0.054-0.141-0.137-0.189-0.247h-0.145v2.038h0.145c0.117-0.571 0.343-1.008 0.677-1.311 0.334-0.3 0.694-0.45 1.078-0.45 0.299 0 0.536 0.081 0.713 0.242 0.176 0.163 0.266 0.35 0.266 0.565 0 0.127-0.035 0.251-0.102 0.37-0.068 0.12-0.171 0.233-0.31 0.341-0.139 0.106-0.383 0.247-0.735 0.419-0.492 0.239-0.845 0.447-1.06 0.615-0.215 0.171-0.379 0.361-0.494 0.57-0.115 0.211-0.174 0.441-0.174 0.692 0 0.431 0.158 0.796 0.476 1.099 0.317 0.302 0.717 0.454 1.198 0.454 0.175 0 0.347-0.023 0.512-0.065 0.125-0.03 0.277-0.088 0.456-0.176 0.18-0.087 0.307-0.129 0.379-0.129 0.069 0 0.123 0.02 0.165 0.064 0.038 0.042 0.076 0.145 0.111 0.306z" fill="#fff"/></g><g transform="translate(423.6 169.38)"><path d="m0 0c-0.492 0-0.869-0.254-1.125-0.757-0.209-0.414-0.314-1.009-0.314-1.783 0-0.921 0.162-1.603 0.484-2.042 0.227-0.308 0.541-0.461 0.947-0.461 0.274 0 0.5 0.065 0.684 0.197 0.234 0.17 0.416 0.442 0.545 0.815 0.131 0.374 0.195 0.859 0.195 1.46 0 0.713-0.066 1.247-0.199 1.602-0.133 0.354-0.301 0.604-0.506 0.75-0.207 0.145-0.443 0.219-0.711 0.219m-0.049 0.252c0.861 0.033 1.561-0.218 2.098-0.75 0.537-0.535 0.805-1.201 0.805-2.004 0-0.685-0.2-1.287-0.6-1.807-0.531-0.691-1.281-1.035-2.25-1.035-0.971 0-1.723 0.33-2.252 0.987-0.42 0.52-0.629 1.137-0.629 1.851 0 0.803 0.272 1.469 0.817 2.004 0.546 0.534 1.216 0.787 2.011 0.754" fill="#fff"/></g><g transform="translate(430.2 169.56)"><path d="m0 0h2.789v-0.145h-0.141c-0.209 0-0.353-0.022-0.431-0.065-0.076-0.045-0.133-0.104-0.166-0.182-0.033-0.077-0.051-0.269-0.051-0.576v-2.642c0-0.483 0.037-0.803 0.111-0.958 0.073-0.156 0.194-0.286 0.362-0.39 0.168-0.102 0.379-0.154 0.634-0.154 0.291 0 0.541 0.064 0.748 0.196 0.205 0.132 0.36 0.312 0.463 0.542 0.102 0.231 0.155 0.633 0.155 1.207v2.199c0 0.241-0.028 0.413-0.077 0.518-0.05 0.102-0.115 0.174-0.191 0.215-0.121 0.059-0.289 0.09-0.508 0.09v0.145h1.867v-0.145h-0.111c-0.152 0-0.277-0.031-0.379-0.09-0.101-0.061-0.174-0.153-0.219-0.276-0.033-0.086-0.05-0.238-0.05-0.457v-2.05c0-0.635-0.043-1.092-0.127-1.373-0.084-0.282-0.287-0.54-0.612-0.776-0.324-0.236-0.765-0.354-1.326-0.354-0.469 0-0.83 0.063-1.084 0.188-0.349 0.17-0.596 0.386-0.738 0.651-0.145 0.266-0.215 0.622-0.215 1.072v2.642c0 0.309-0.018 0.503-0.053 0.578-0.033 0.076-0.093 0.137-0.179 0.182s-0.243 0.067-0.471 0.063z" fill="#fff"/></g><g transform="translate(444.32 169.56)"><path d="m0 0v-1.461h-0.145c-0.083 0.337-0.179 0.581-0.283 0.728-0.103 0.147-0.244 0.264-0.425 0.352-0.1 0.048-0.278 0.073-0.528 0.073h-0.404v-4.167c0-0.276 0.015-0.45 0.045-0.52 0.031-0.067 0.092-0.128 0.18-0.182 0.089-0.051 0.21-0.076 0.365-0.076h0.179v-0.146h-2.826v0.146h0.176c0.156 0 0.281 0.027 0.377 0.082 0.068 0.039 0.121 0.103 0.162 0.192 0.029 0.065 0.043 0.232 0.043 0.504v4.167h-0.389c-0.365 0-0.632-0.078-0.797-0.232-0.232-0.216-0.378-0.522-0.441-0.921h-0.144v1.461z" fill="#fff"/></g><g transform="translate(450.1 166.76)"><path d="m0 0v-1.673c0-0.276 0.014-0.45 0.045-0.52 0.029-0.068 0.09-0.128 0.178-0.182 0.088-0.051 0.209-0.076 0.359-0.076h0.176v-0.147h-2.817v0.147h0.18c0.156 0 0.281 0.027 0.377 0.082 0.068 0.039 0.123 0.102 0.16 0.192 0.028 0.065 0.043 0.232 0.043 0.504v3.552c0 0.277-0.015 0.451-0.043 0.518-0.029 0.07-0.09 0.13-0.177 0.183-0.09 0.052-0.209 0.077-0.36 0.077h-0.18v0.145h2.817v-0.145h-0.176c-0.156 0-0.281-0.027-0.377-0.084-0.068-0.036-0.123-0.1-0.162-0.19-0.029-0.065-0.043-0.233-0.043-0.504v-1.527h1.902v1.527c0 0.277-0.015 0.451-0.043 0.518-0.029 0.07-0.089 0.13-0.179 0.183-0.09 0.052-0.211 0.077-0.362 0.077h-0.175v0.145h2.818v-0.145h-0.176c-0.158 0-0.285-0.027-0.377-0.084-0.07-0.036-0.123-0.1-0.164-0.19-0.027-0.065-0.043-0.233-0.043-0.504v-3.552c0-0.276 0.016-0.45 0.043-0.52 0.03-0.068 0.09-0.128 0.18-0.182 0.09-0.051 0.211-0.076 0.361-0.076h0.176v-0.147h-2.818v0.147h0.175c0.159 0 0.286 0.027 0.377 0.082 0.071 0.039 0.123 0.102 0.164 0.192 0.028 0.065 0.043 0.232 0.043 0.504v1.673z" fill="#fff"/></g><g transform="translate(465.01 166.76)"><path d="m0 0v-1.673c0-0.276 0.018-0.45 0.047-0.52 0.029-0.068 0.09-0.128 0.178-0.182 0.089-0.051 0.207-0.076 0.357-0.076h0.18v-0.147h-2.819v0.147h0.18c0.154 0 0.281 0.027 0.377 0.082 0.068 0.039 0.123 0.102 0.158 0.192 0.03 0.065 0.045 0.232 0.045 0.504v3.552c0 0.277-0.015 0.451-0.045 0.518-0.029 0.07-0.088 0.13-0.176 0.183-0.089 0.052-0.209 0.077-0.359 0.077h-0.18v0.145h2.819v-0.145h-0.18c-0.154 0-0.281-0.027-0.375-0.084-0.068-0.036-0.123-0.1-0.162-0.19-0.029-0.065-0.045-0.233-0.045-0.504v-1.527h1.904v1.527c0 0.277-0.015 0.451-0.045 0.518-0.029 0.07-0.088 0.13-0.177 0.183-0.09 0.052-0.211 0.077-0.364 0.077h-0.173v0.145h2.816v-0.145h-0.176c-0.156 0-0.283-0.027-0.377-0.084-0.068-0.036-0.123-0.1-0.16-0.19-0.029-0.065-0.045-0.233-0.045-0.504v-3.552c0-0.276 0.016-0.45 0.045-0.52 0.029-0.068 0.088-0.128 0.178-0.182 0.09-0.051 0.209-0.076 0.359-0.076h0.176v-0.147h-2.816v0.147h0.173c0.16 0 0.287 0.027 0.381 0.082 0.067 0.039 0.121 0.102 0.16 0.192 0.03 0.065 0.045 0.232 0.045 0.504v1.673z" fill="#fff"/></g><g transform="translate(475.36 164.3)"><path d="m0 0v-0.146h-2.818v0.146h0.179c0.159 0 0.282 0.027 0.377 0.082 0.071 0.039 0.123 0.103 0.16 0.192 0.03 0.065 0.043 0.232 0.043 0.504v3.552c0 0.277-0.013 0.451-0.043 0.519-0.027 0.069-0.087 0.13-0.177 0.182-0.088 0.052-0.209 0.077-0.36 0.077h-0.179v0.145h2.818v-0.145h-0.178c-0.156 0-0.281-0.027-0.377-0.084-0.068-0.036-0.121-0.1-0.162-0.19-0.029-0.064-0.043-0.232-0.043-0.504v-3.552c0-0.276 0.014-0.45 0.045-0.52 0.031-0.068 0.09-0.128 0.178-0.182 0.088-0.051 0.209-0.076 0.359-0.076z" fill="#fff"/></g><g transform="translate(483.97 166.06)"><path d="m0 0-0.201-1.898h-4.797v0.146h0.18c0.156 0 0.281 0.027 0.377 0.082 0.068 0.039 0.123 0.103 0.158 0.193 0.029 0.064 0.045 0.231 0.045 0.503v3.552c0 0.278-0.016 0.451-0.045 0.519-0.028 0.069-0.088 0.13-0.178 0.182-0.088 0.052-0.209 0.078-0.357 0.078h-0.18v0.144h2.877v-0.144h-0.234c-0.157 0-0.282-0.028-0.377-0.084-0.069-0.037-0.123-0.101-0.165-0.191-0.029-0.064-0.044-0.232-0.044-0.504v-3.438c0-0.277 0.017-0.452 0.048-0.528 0.034-0.077 0.096-0.131 0.186-0.171 0.068-0.023 0.228-0.034 0.484-0.034h0.451c0.286 0 0.524 0.05 0.713 0.151 0.194 0.102 0.36 0.261 0.498 0.479 0.139 0.218 0.272 0.538 0.397 0.963z" fill="#fff"/></g><g transform="translate(492.67 166.06)"><path d="m0 0-0.201-1.898h-4.795v0.146h0.18c0.154 0 0.281 0.027 0.377 0.082 0.066 0.039 0.121 0.103 0.158 0.193 0.029 0.064 0.045 0.231 0.045 0.503v3.552c0 0.278-0.016 0.451-0.045 0.519-0.03 0.069-0.088 0.13-0.176 0.182-0.09 0.052-0.209 0.078-0.359 0.078h-0.18v0.144h2.877v-0.144h-0.237c-0.154 0-0.281-0.028-0.376-0.084-0.069-0.037-0.124-0.101-0.163-0.191-0.029-0.064-0.044-0.232-0.044-0.504v-3.438c0-0.277 0.017-0.452 0.048-0.528 0.032-0.077 0.094-0.131 0.186-0.171 0.068-0.023 0.228-0.034 0.482-0.034h0.451c0.286 0 0.526 0.05 0.717 0.151 0.192 0.102 0.356 0.261 0.494 0.479 0.139 0.218 0.272 0.538 0.397 0.963z" fill="#fff"/></g><g transform="translate(514.74 128.48)"><path d="m0 0 0.131 0.084 9.902 7.973 0.049 0.047c0.158 0.156 0.25 0.369 0.25 0.58 0 0.224-0.088 0.447-0.25 0.59l-0.1 0.081-9.773 7.868-0.246 0.16c-0.1 0.039-0.227 0.076-0.342 0.076-0.439 0-0.81-0.348-0.81-0.802l0.095-0.511 1.313-5.455-9.686 0.698v-5.409l9.686 0.698-1.389-5.774s-0.019-0.164-0.019-0.192c0-0.436 0.371-0.802 0.81-0.802 0.131 0 0.264 0.031 0.379 0.09" fill="#fff"/></g><g transform="translate(95.373 137.8)"><path d="m 0,0 c -14.066,0 -25.474,11.404 -25.474,25.475 0,14.064 11.408,25.468 25.474,25.468 14.07,0 25.473,-11.404 25.473,-25.468 C 25.473,11.404 14.07,0 0,0" fill="#f4da8f"/></g><g transform="translate(94.464 186.92)"><path d="m0 0 0.2 0.17c0.446 0.217 0.877 0.383 1.181 0.426 0.784 0.109 2.202-0.383 2.425-1.961 0.219-1.582-0.555-1.752-0.469-2.383 0.092-0.633 0.98-1.285 1.079-1.963 0.096-0.676-0.242-1.957-0.058-3.287l-3.231 0.203z" fill="#fff"/><path d="m0 0 0.2 0.17c0.446 0.217 0.877 0.383 1.181 0.426 0.784 0.109 2.202-0.383 2.425-1.961 0.219-1.582-0.555-1.752-0.469-2.383 0.092-0.633 0.98-1.285 1.079-1.963 0.096-0.676-0.242-1.957-0.058-3.287l-3.231 0.203z" fill="none" stroke="#0066b3" stroke-width=".528"/></g><g transform="translate(91.818 187.23)"><path d="m0 0 0.202 0.17c0.443 0.215 0.872 0.383 1.181 0.424 0.782 0.111 2.198-0.381 2.418-1.959 0.223-1.582-0.553-1.752-0.462-2.385 0.09-0.631 0.98-1.281 1.074-1.961 0.094-0.676-0.241-1.959-0.054-3.289l-3.232 0.205z" fill="#fff"/><path d="m0 0 0.202 0.17c0.443 0.215 0.872 0.383 1.181 0.424 0.782 0.111 2.198-0.381 2.418-1.959 0.223-1.582-0.553-1.752-0.462-2.385 0.09-0.631 0.98-1.281 1.074-1.961 0.094-0.676-0.241-1.959-0.054-3.289l-3.232 0.205z" fill="none" stroke="#0066b3" stroke-width=".528"/></g><g transform="translate(90.156 179.32)"><path d="m0 0-0.115 0.895-0.203 1.576-0.227 1.756-0.21 1.648-0.232 1.807 0.2 0.168c0.447 0.214 0.879 0.384 1.181 0.427 0.784 0.11 2.203-0.382 2.424-1.963 0.222-1.58-0.554-1.75-0.467-2.38 0.09-0.635 0.979-1.286 1.078-1.963 0.095-0.676-0.241-1.957-0.056-3.287l-2.556-0.666z" fill="#fff"/><path d="m0 0-0.115 0.895-0.203 1.576-0.227 1.756-0.21 1.648-0.232 1.807 0.2 0.168c0.447 0.214 0.879 0.384 1.181 0.427 0.784 0.11 2.203-0.382 2.424-1.963 0.222-1.58-0.554-1.75-0.467-2.38 0.09-0.635 0.979-1.286 1.078-1.963 0.095-0.676-0.241-1.957-0.056-3.287l-2.556-0.666z" fill="none" stroke="#0066b3" stroke-width=".528"/></g><g transform="translate(84.575 186.98)"><path d="m0 0c0.106 0.281 2.403 0.738 3.311 0.865 0.787 0.11 2.201-0.383 2.422-1.963 0.222-1.578-0.552-1.75-0.463-2.381 0.086-0.632 0.98-1.283 1.076-1.961 0.093-0.677-0.243-1.958-0.06-3.289l-0.232-0.65" fill="#f4da8f" stroke="#0066b3" stroke-width=".528"/></g><g transform="translate(71.532 172.26)"><path d="m0 0c3.634 9.631 12.935 16.482 23.841 16.482 10.907 0 20.21-6.851 23.844-16.482h8.191c-3.921 14.004-16.777 24.275-32.035 24.275s-28.115-10.271-32.036-24.275z" fill="#5d0201"/></g><g transform="translate(69.445 176.77)"><path d="m0 0 1.378-0.783c0.126-0.076 0.22-0.123 0.268-0.141 0.055-0.021 0.096-0.023 0.125-0.011 0.017 7e-3 0.044 0.021 0.078 0.039 0.13 0.072 0.238 0.082 0.323 0.031 0.062-0.031 0.092-0.082 0.095-0.143 3e-3 -0.062-0.02-0.138-0.074-0.234l-0.661-1.153c-0.05-0.089-0.101-0.146-0.159-0.173-0.058-0.028-0.115-0.022-0.173 0.011-0.073 0.041-0.114 0.129-0.128 0.264 0 0.033 0 0.064-3e-3 0.084-3e-3 0.043-0.029 0.086-0.068 0.125-0.043 0.039-0.115 0.09-0.224 0.152l-3.002 1.713c-0.132 0.073-0.225 0.121-0.279 0.141-0.053 0.018-0.094 0.023-0.118 0.01-0.025-0.01-0.053-0.028-0.095-0.049-0.127-0.068-0.23-0.078-0.307-0.033-0.057 0.033-0.09 0.082-0.093 0.146 0 0.065 0.022 0.145 0.077 0.238l0.651 1.149c0.054 0.09 0.109 0.146 0.16 0.172 0.053 0.031 0.113 0.025 0.173-0.01 0.073-0.041 0.119-0.135 0.131-0.277 5e-3 -0.032 5e-3 -0.051 5e-3 -0.065 7e-3 -0.043 0.028-0.086 0.069-0.125s0.112-0.088 0.216-0.148l1.105-0.627 1.071 1.879-1.055 0.601c-0.132 0.074-0.221 0.121-0.279 0.141-0.054 0.019-0.093 0.023-0.119 8e-3 -0.024-0.01-0.053-0.024-0.094-0.045-0.123-0.069-0.225-0.08-0.306-0.035-0.06 0.035-0.092 0.082-0.096 0.146-3e-3 0.065 0.024 0.143 0.079 0.24l0.659 1.158c0.05 0.086 0.099 0.143 0.156 0.17 0.054 0.028 0.11 0.024 0.172-0.015 0.074-0.039 0.115-0.135 0.132-0.28 0-0.031 3e-3 -0.05 3e-3 -0.06 5e-3 -0.043 0.029-0.088 0.07-0.129 0.038-0.039 0.111-0.09 0.214-0.148l3.01-1.715c0.132-0.075 0.222-0.121 0.276-0.141 0.049-0.017 0.088-0.021 0.118-8e-3 0.02 8e-3 0.049 0.02 0.082 0.039 0.131 0.073 0.238 0.082 0.325 0.034 0.055-0.034 0.088-0.082 0.093-0.147 0-0.06-0.024-0.141-0.077-0.236l-0.661-1.153c-0.049-0.088-0.103-0.146-0.159-0.173-0.054-0.028-0.111-0.022-0.174 0.013-0.072 0.041-0.115 0.127-0.121 0.262-5e-3 0.035-5e-3 0.064-0.01 0.084-4e-3 0.045-0.028 0.086-0.069 0.127-0.041 0.039-0.115 0.092-0.222 0.15l-1.416 0.807z" fill="#fff"/></g><g transform="translate(75.223 184.2)"><path d="m0 0 1.066 0.953c-0.374 0.209-0.709 0.387-1.009 0.537-0.303 0.151-0.541 0.258-0.71 0.325 0.082-0.288 0.18-0.581 0.289-0.879 0.109-0.297 0.229-0.614 0.364-0.936m0.275-0.639c0.135-0.312 0.242-0.535 0.307-0.669 0.07-0.135 0.123-0.227 0.164-0.272 0.044-0.051 0.11-0.07 0.189-0.061 0.03 4e-3 0.045 6e-3 0.057 6e-3 0.09 8e-3 0.153 8e-3 0.197-2e-3 0.044-0.011 0.078-0.033 0.11-0.064 0.043-0.049 0.062-0.098 0.062-0.149 0-0.054-0.019-0.095-0.057-0.13l-0.763-0.684c-0.062-0.055-0.123-0.084-0.184-0.088-0.059-4e-3 -0.111 0.02-0.152 0.069-0.055 0.058-0.066 0.144-0.041 0.255 0.025 0.114 0.032 0.18 0.032 0.203-3e-3 0.057-0.106 0.321-0.308 0.795-0.203 0.473-0.377 0.895-0.525 1.26-0.18 0.455-0.34 0.877-0.47 1.262-0.132 0.389-0.225 0.713-0.285 0.975l-0.011 0.058c-0.093 0.385-0.054 0.656 0.123 0.813 0.106 0.097 0.2 0.156 0.282 0.179 0.082 0.024 0.181 0.022 0.301-8e-3 0.155-0.033 0.464-0.148 0.913-0.345 0.453-0.196 0.948-0.434 1.493-0.713 0.46-0.236 0.899-0.481 1.317-0.733 0.422-0.25 0.64-0.376 0.652-0.378 0.026-6e-3 0.098-4e-3 0.21 5e-3 0.115 0.01 0.2-0.017 0.259-0.082 0.049-0.052 0.066-0.113 0.049-0.179-0.016-0.067-0.065-0.135-0.152-0.209l-1.023-0.916c-0.065-0.059-0.126-0.09-0.186-0.09-0.063-2e-3 -0.115 0.021-0.164 0.076-0.06 0.066-0.079 0.15-0.06 0.26 0.027 0.107 0.017 0.185-0.022 0.228-0.043 0.043-0.145 0.121-0.312 0.227-0.164 0.105-0.366 0.224-0.604 0.355z" fill="#fff"/></g><g transform="translate(81.827 190.92)"><path d="m0 0 1.045-2.506c0.092-0.223 0.169-0.377 0.229-0.465s0.116-0.133 0.174-0.136c0.039 0 0.099 1e-3 0.176 7e-3 0.208 0.016 0.34-0.035 0.389-0.152 0.033-0.082 0.033-0.154-3e-3 -0.217-0.036-0.06-0.112-0.113-0.227-0.162l-1.037-0.431c-0.111-0.049-0.2-0.063-0.275-0.049-0.073 0.017-0.127 0.062-0.155 0.136-0.048 0.114-9e-3 0.229 0.121 0.346 0.046 0.041 0.077 0.074 0.087 0.098 0.038 0.06 0.045 0.146 0.022 0.26-0.022 0.111-0.109 0.347-0.259 0.706l-1.034 2.483c-0.058 0.14-0.107 0.228-0.14 0.262-0.037 0.033-0.087 0.054-0.147 0.054-0.027 0-0.066-4e-3 -0.114-5e-3 -0.19-8e-3 -0.307 0.04-0.354 0.152-0.041 0.099-0.035 0.183 0.017 0.26 0.052 0.074 0.156 0.144 0.308 0.209l1.095 0.453c0.152 0.066 0.271 0.088 0.352 0.064 0.082-0.023 0.21-0.119 0.378-0.293l1.69-1.736-0.017 2.523c0 0.194 0.017 0.321 0.046 0.387 0.033 0.065 0.094 0.115 0.181 0.152l1.118 0.467c0.14 0.057 0.246 0.074 0.328 0.053 0.082-0.02 0.145-0.078 0.185-0.182 0.048-0.115 0.01-0.23-0.122-0.344-0.022-0.017-0.037-0.033-0.049-0.042-0.049-0.049-0.075-0.098-0.082-0.143-5e-3 -0.047 0.012-0.125 0.053-0.225l1.254-3.002c0.066-0.166 0.131-0.279 0.189-0.338 0.057-0.056 0.135-0.089 0.233-0.093 0.013 0 0.03 0 0.054-4e-3 0.147-6e-3 0.238-0.057 0.279-0.149 0.032-0.082 0.028-0.156-0.016-0.22-0.044-0.061-0.14-0.123-0.275-0.18l-1.328-0.553c-0.103-0.043-0.19-0.058-0.257-0.047-0.065 0.014-0.114 0.053-0.137 0.118-0.046 0.103-0.016 0.216 0.086 0.334 0.032 0.041 0.056 0.072 0.073 0.093 0.024 0.045 0.033 0.104 0.024 0.176-8e-3 0.074-0.046 0.18-0.101 0.32l-1.125 2.704 0.043-3.127c2e-3 -0.172-0.011-0.299-0.043-0.379-0.029-0.082-0.082-0.141-0.164-0.172-0.082-0.033-0.16-0.033-0.237 2e-3 -0.082 0.035-0.19 0.121-0.325 0.263z" fill="#fff"/></g><g transform="translate(92.544 195.12)"><path d="m0 0c0.105 0.01 0.184 2e-3 0.236-0.027 0.054-0.028 0.087-0.079 0.095-0.145 9e-3 -0.088-0.046-0.178-0.15-0.273-0.027-0.02-0.043-0.032-0.055-0.045-0.032-0.026-0.054-0.067-0.061-0.123-9e-3 -0.057-4e-3 -0.143 7e-3 -0.262l0.374-3.441c0.017-0.149 0.033-0.25 0.049-0.305 0.017-0.053 0.036-0.088 0.066-0.102 0.016-0.01 0.046-0.025 0.082-0.043 0.131-0.064 0.201-0.144 0.213-0.242 8e-3 -0.068-0.012-0.123-0.062-0.16-0.049-0.039-0.126-0.065-0.236-0.076l-1.334-0.145c-0.098-0.013-0.175-4e-3 -0.235 0.028-0.053 0.029-0.085 0.078-0.094 0.148-7e-3 0.082 0.039 0.168 0.144 0.256 0.032 0.023 0.054 0.043 0.07 0.057 0.028 0.027 0.044 0.068 0.058 0.127 8e-3 0.056 3e-3 0.146-9e-3 0.265l-0.372 3.436c-0.016 0.136-0.033 0.236-0.049 0.295-0.021 0.058-0.047 0.097-0.071 0.115-0.021 0.012-0.054 0.027-0.093 0.047-0.125 0.058-0.194 0.138-0.202 0.23-9e-3 0.069 0.012 0.125 0.061 0.164 0.048 0.039 0.127 0.063 0.239 0.074z" fill="#fff"/></g><g transform="translate(97.264 189.95)"><path d="m0 0c-0.106 0.016-0.185 0.043-0.234 0.086-0.044 0.045-0.066 0.105-0.053 0.18 0.014 0.103 0.096 0.177 0.238 0.22 0.022 6e-3 0.038 0.012 0.049 0.014 0.071 0.025 0.115 0.053 0.14 0.09 0.024 0.033 0.041 0.097 0.052 0.185l0.497 3.692c8e-3 0.049 5e-3 0.09-7e-3 0.121-0.014 0.031-0.034 0.058-0.07 0.084-0.012 8e-3 -0.029 0.021-0.053 0.035-0.14 0.096-0.203 0.199-0.19 0.307 0.014 0.088 0.053 0.148 0.115 0.181 0.066 0.032 0.157 0.041 0.28 0.026l1.517-0.205c0.093-0.012 0.164-0.045 0.208-0.094 0.046-0.051 0.063-0.117 0.054-0.201-0.016-0.117-0.093-0.192-0.237-0.223-0.033-4e-3 -0.058-0.01-0.079-0.017-0.078-0.024-0.126-0.053-0.155-0.09-0.032-0.037-0.053-0.114-0.07-0.231l-0.464-3.445c-0.02-0.156 0-0.264 0.059-0.319 0.055-0.052 0.208-0.099 0.449-0.13 0.289-0.037 0.518-0.049 0.694-0.028 0.172 0.018 0.321 0.069 0.448 0.151 0.056 0.041 0.131 0.099 0.22 0.177 0.141 0.118 0.246 0.174 0.324 0.165 0.086-0.01 0.149-0.042 0.19-0.09 0.041-0.049 0.057-0.112 0.049-0.188-0.012-0.076-0.033-0.164-0.066-0.262-0.033-0.101-0.077-0.214-0.136-0.345-0.066-0.143-0.126-0.231-0.184-0.268-0.058-0.033-0.14-0.043-0.246-0.027z" fill="#fff"/></g><g transform="translate(107.07 188.31)"><path d="m0 0c-0.057-0.135-0.09-0.23-0.101-0.287-0.01-0.057 0-0.1 0.023-0.129 0.013-0.021 0.029-0.047 0.054-0.078 0.093-0.131 0.123-0.24 0.082-0.33-0.028-0.065-0.074-0.098-0.14-0.106-0.065-9e-3 -0.147 0.01-0.254 0.057l-1.274 0.561c-0.099 0.044-0.164 0.089-0.202 0.146-0.034 0.053-0.038 0.113-8e-3 0.178 0.036 0.084 0.131 0.135 0.292 0.148 0.036 4e-3 0.065 6e-3 0.082 6e-3 0.039 6e-3 0.077 0.031 0.118 0.076 0.036 0.043 0.078 0.119 0.128 0.233l1.52 3.459-0.273 0.119c-0.145 0.062-0.279 0.088-0.41 0.078-0.132-0.014-0.301-0.069-0.506-0.166-3e-3 -4e-3 -0.017-0.01-0.033-0.016-0.177-0.088-0.308-0.111-0.394-0.076-0.065 0.029-0.106 0.068-0.118 0.121-0.016 0.055-0.01 0.115 0.02 0.188 0.016 0.031 0.025 0.052 0.036 0.068 0.01 0.018 0.021 0.033 0.03 0.047l0.357 0.494c0.073 0.113 0.148 0.18 0.213 0.203 0.07 0.024 0.154 0.012 0.263-0.035l3.293-1.449c0.106-0.047 0.176-0.102 0.205-0.166 0.029-0.067 0.029-0.164-3e-3 -0.297l-0.125-0.598c-4e-3 -0.019-7e-3 -0.037-0.012-0.054-8e-3 -0.018-0.016-0.043-0.027-0.069-0.033-0.074-0.076-0.121-0.125-0.144-0.05-0.026-0.106-0.022-0.168 6e-3 -0.085 0.039-0.155 0.15-0.213 0.337-3e-3 0.02-8e-3 0.032-0.013 0.041-0.061 0.217-0.134 0.377-0.216 0.483-0.082 0.101-0.194 0.183-0.331 0.246l-0.268 0.117z" fill="#fff"/></g><g transform="translate(113.7 186.19)"><path d="m0 0c-0.471-0.531-0.738-1.027-0.809-1.488-0.065-0.461 0.076-0.846 0.42-1.151 0.364-0.322 0.761-0.42 1.201-0.293 0.435 0.125 0.911 0.477 1.419 1.055 0.455 0.51 0.71 0.992 0.766 1.443 0.062 0.452-0.082 0.831-0.43 1.139-0.352 0.311-0.746 0.406-1.189 0.285-0.438-0.117-0.898-0.447-1.378-0.99m-1.023 0.902c0.29 0.321 0.601 0.559 0.933 0.715 0.336 0.155 0.713 0.231 1.132 0.233 0.336-2e-3 0.669-0.065 0.992-0.192 0.323-0.129 0.619-0.312 0.892-0.552 0.29-0.258 0.519-0.54 0.688-0.842 0.164-0.303 0.266-0.621 0.302-0.959 0.043-0.408 5e-3 -0.785-0.109-1.131-0.116-0.35-0.321-0.686-0.608-1.01-0.29-0.332-0.601-0.574-0.927-0.725-0.328-0.152-0.697-0.228-1.112-0.226-0.351 2e-3 -0.689 0.066-1.017 0.193-0.324 0.127-0.623 0.309-0.893 0.549-0.283 0.25-0.502 0.522-0.656 0.817-0.158 0.292-0.259 0.619-0.3 0.978-0.044 0.422-0.017 0.809 0.094 1.152 0.111 0.346 0.307 0.678 0.589 1" fill="#fff"/></g><g transform="translate(121.34 179.6)"><path d="m0 0-2.608-1.469c-0.149-0.084-0.237-0.15-0.27-0.201-0.032-0.049-0.046-0.117-0.038-0.199 6e-3 -0.027 0.012-0.066 0.021-0.111 0.034-0.145 0-0.247-0.094-0.299-0.074-0.043-0.135-0.053-0.184-0.035-0.05 0.021-0.098 0.08-0.158 0.181l-0.59 1.045c-0.05 0.092-0.072 0.166-0.061 0.223 8e-3 0.056 0.044 0.103 0.115 0.142 0.098 0.057 0.197 0.041 0.29-0.048 0.096-0.088 0.148-0.135 0.164-0.141 0.071-0.027 0.144-0.035 0.214-0.02 0.075 0.014 0.201 0.073 0.382 0.176l2.827 1.592c0.115 0.064 0.183 0.115 0.213 0.162 0.028 0.045 0.036 0.106 0.028 0.182-5e-3 0.029-9e-3 0.068-0.017 0.117-0.027 0.152 0.012 0.258 0.116 0.316 0.065 0.037 0.126 0.047 0.185 0.026 0.052-0.02 0.102-0.067 0.143-0.143l0.557-0.986c0.107-0.192 0.099-0.432-0.024-0.727-0.014-0.035-0.025-0.064-0.033-0.088-0.184-0.476-0.41-1.002-0.673-1.578-0.266-0.58-0.561-1.189-0.889-1.832l2.177 1.225c0.099 0.056 0.169 0.109 0.219 0.16 0.044 0.053 0.068 0.105 0.068 0.162 0 0.033-3e-3 0.082-8e-3 0.139-0.011 0.16 0.028 0.267 0.126 0.32 0.071 0.041 0.136 0.047 0.202 0.02 0.066-0.026 0.123-0.086 0.172-0.176l0.517-0.916c0.045-0.082 0.06-0.154 0.041-0.223-0.017-0.064-0.063-0.117-0.134-0.162-0.088-0.045-0.185-0.027-0.296 0.059-0.032 0.027-0.062 0.047-0.082 0.06-0.065 0.033-0.128 0.049-0.193 0.041-0.063-8e-3 -0.173-0.054-0.328-0.144l-3.245-1.827c-0.214-0.121-0.365-0.169-0.456-0.146-0.089 0.02-0.179 0.113-0.27 0.273-0.073 0.129-0.114 0.233-0.128 0.311-0.012 0.076 0 0.162 0.043 0.256 0.017 0.033 0.072 0.16 0.181 0.379 0.601 1.263 1.197 2.566 1.778 3.904" fill="#fff"/></g><g transform="translate(101.83 175.35)"><path d="m0 0c0.417 1.209-0.694 3.715-2.367 2.461 0.836 1.721-2.555 3.301-3.113 1.348-0.743 1.953-3.343 1.394-3.483-0.094-1.16 1.672-3.576 0.232-3.158-1.16-1.299 0.65-2.789-0.977-1.906-2.741 0.651-1.07 2.789-0.929 3.068 0.139 0.558-1.301 3.022-2.035 3.32-0.459 0.814-2.002 4.249-2.096 4.479-0.703 0.886-1.113 2.745 0 3.16 1.209" fill="#fff"/><path d="m0 0c0.417 1.209-0.694 3.715-2.367 2.461 0.836 1.721-2.555 3.301-3.113 1.348-0.743 1.953-3.343 1.394-3.483-0.094-1.16 1.672-3.576 0.232-3.158-1.16-1.299 0.65-2.789-0.977-1.906-2.741 0.651-1.07 2.789-0.929 3.068 0.139 0.558-1.301 3.022-2.035 3.32-0.459 0.814-2.002 4.249-2.096 4.479-0.703 0.886-1.113 2.745 0 3.16 1.209z" fill="none" stroke="#0066b3" stroke-miterlimit="2" stroke-width=".5"/></g><g transform="translate(103.83 173.61)"><path d="m0 0c0.419 1.209-0.693 3.719-2.367 2.461 0.837 1.721-2.555 3.299-3.113 1.349-0.743 1.95-3.341 1.395-3.482-0.091-1.16 1.67-3.577 0.23-3.157-1.162-1.306 0.65-2.789-0.977-1.908-2.743 0.651-1.068 2.789-0.929 3.068 0.141 0.558-1.301 3.023-2.039 3.322-0.459 0.813-2.002 4.249-2.094 4.479-0.703 0.883-1.115 2.74 0 3.158 1.207" fill="#fff"/><path d="m0 0c0.419 1.209-0.693 3.719-2.367 2.461 0.837 1.721-2.555 3.299-3.113 1.349-0.743 1.95-3.341 1.395-3.482-0.091-1.16 1.67-3.577 0.23-3.157-1.162-1.306 0.65-2.789-0.977-1.908-2.743 0.651-1.068 2.789-0.929 3.068 0.141 0.558-1.301 3.023-2.039 3.322-0.459 0.813-2.002 4.249-2.094 4.479-0.703 0.883-1.115 2.74 0 3.158 1.207z" fill="none" stroke="#0066b3" stroke-miterlimit="2" stroke-width=".5"/></g><g transform="translate(108.33 171.85)"><path d="m0 0c0.421 1.209-0.695 3.717-2.368 2.465 0.836 1.719-2.554 3.297-3.111 1.346-0.745 1.951-3.347 1.394-3.485-0.094-1.162 1.674-3.576 0.23-3.16-1.16-1.299 0.65-2.784-0.977-1.903-2.741 0.65-1.068 2.786-0.927 3.065 0.141 0.558-1.303 3.022-2.037 3.322-0.461 0.812-2.002 4.249-2.096 4.484-0.703 0.881-1.113 2.74 0 3.156 1.207" fill="#fff"/><path d="m0 0c0.421 1.209-0.695 3.717-2.368 2.465 0.836 1.719-2.554 3.297-3.111 1.346-0.745 1.951-3.347 1.394-3.485-0.094-1.162 1.674-3.576 0.23-3.16-1.16-1.299 0.65-2.784-0.977-1.903-2.741 0.65-1.068 2.786-0.927 3.065 0.141 0.558-1.303 3.022-2.037 3.322-0.461 0.812-2.002 4.249-2.096 4.484-0.703 0.881-1.113 2.74 0 3.156 1.207z" fill="none" stroke="#0066b3" stroke-miterlimit="2" stroke-width=".5"/></g><g transform="translate(100.11 170.41)"><path d="m0 0c0.419 1.207-0.697 3.715-2.365 2.461 0.831 1.717-2.557 3.299-3.114 1.346-0.742 1.953-3.347 1.394-3.487-0.092-1.16 1.67-3.576 0.232-3.158-1.16-1.299 0.648-2.786-0.977-1.903-2.742 0.653-1.069 2.786-0.928 3.065 0.138 0.558-1.299 3.022-2.035 3.325-0.459 0.809-2.002 4.244-2.093 4.479-0.701 0.881-1.117 2.74 0 3.158 1.209" fill="#fff"/><path d="m0 0c0.419 1.207-0.697 3.715-2.365 2.461 0.831 1.717-2.557 3.299-3.114 1.346-0.742 1.953-3.347 1.394-3.487-0.092-1.16 1.67-3.576 0.232-3.158-1.16-1.299 0.648-2.786-0.977-1.903-2.742 0.653-1.069 2.786-0.928 3.065 0.138 0.558-1.299 3.022-2.035 3.325-0.459 0.809-2.002 4.244-2.093 4.479-0.701 0.881-1.117 2.74 0 3.158 1.209z" fill="none" stroke="#0066b3" stroke-miterlimit="2" stroke-width=".5"/></g><g transform="translate(106.93 168.98)"><path d="m0 0c0.418 1.207-0.697 3.715-2.371 2.461 0.837 1.717-2.556 3.297-3.114 1.346-0.742 1.951-3.342 1.394-3.482-0.092-1.161 1.672-3.576 0.232-3.158-1.162-1.301 0.652-2.789-0.975-1.907-2.74 0.652-1.069 2.789-0.93 3.067 0.138 0.558-1.299 3.024-2.035 3.324-0.461 0.811-2 4.249-2.093 4.483-0.699 0.883-1.115 2.739 0 3.158 1.209" fill="#fff"/><path d="m0 0c0.418 1.207-0.697 3.715-2.371 2.461 0.837 1.717-2.556 3.297-3.114 1.346-0.742 1.951-3.342 1.394-3.482-0.092-1.161 1.672-3.576 0.232-3.158-1.162-1.301 0.652-2.789-0.975-1.907-2.74 0.652-1.069 2.789-0.93 3.067 0.138 0.558-1.299 3.024-2.035 3.324-0.461 0.811-2 4.249-2.093 4.483-0.699 0.883-1.115 2.739 0 3.158 1.209z" fill="none" stroke="#0066b3" stroke-miterlimit="2" stroke-width=".5"/></g><path d="m158.88 117.83h-127.01v54.432h127.01z" fill="#fff"/><path d="m158.88 119.38h-127.01v51.371h127.01z" fill="#005a9c"/><g transform="translate(127.41 172.26)"><path d="m0 0c-3.921 14.004-16.777 24.275-32.035 24.275s-28.115-10.271-32.036-24.275" fill="none" stroke="#000" stroke-width=".25"/></g><g transform="translate(159.13 172.51)"><path d="m0 0h-127.51v-54.932h127.51v54.682zm-0.25-54.682h-127.01v54.432h127.01z"/></g><g transform="translate(64.88 149.37)"><path d="m0 0c-1.101 0-3.751 0.204-3.751 6.238 0 6.035 2.52 6.28 3.622 6.28 1.748 0 3.07-1.272 3.154-3.054h-1.747c-0.043 0.807-0.596 1.359-1.449 1.359-0.583 0-1.917-0.183-1.917-4.586s1.461-4.541 2.044-4.541c0.895 0 1.322 0.59 1.322 1.868v0.806h-1.364v1.699h3.111v-2.504c0-3.027-1.992-3.565-3.025-3.565" fill="#fff"/></g><g transform="translate(72.848 156.96)"><path d="m0 0c-0.977 0-1.105-0.636-1.105-1.74v-5.648h-1.659v8.83h1.657v-0.423c0.425 0.425 0.597 0.637 1.19 0.637s0.854-0.254 1.148-0.595l-0.254-1.571c-0.34 0.297-0.594 0.51-0.977 0.51" fill="#fff"/></g><g transform="translate(76.717 154.85)"><path d="m0 0h2.784c0 0.845-0.13 2.204-1.372 2.204v3e-3c-1.243 0-1.412-1.315-1.412-2.207m1.412-3.822c0.684 0 1.243 0.636 1.414 1.4l1.329-0.977c-0.431-1.146-1.244-2.037-2.743-2.037-2.572 0-3.083 2.335-3.083 4.629 0 2.003 0.514 4.584 3.083 4.584 2.74 0 3.089-2.696 3.089-4.829v-0.478h-4.459c0.085-0.977 0.384-2.292 1.37-2.292" fill="#fff"/></g><g transform="translate(85.184 153.94)"><path d="m0 0c-0.682 0-1.302-0.449-1.302-1.436 0-1.097 0.596-1.571 1.441-1.571 0.593 0 1.018 0.257 1.018 0.806l1e-3 1.74c-0.27 0.248-0.791 0.461-1.158 0.461m1.241-4.113c-0.296-0.254-0.931-0.379-1.483-0.379-1.485 0-2.756 1.315-2.756 3.099 0 1.895 1.205 2.987 2.67 2.987 0.432 0 1.096-0.164 1.485-0.354-0.043 1.061-0.046 1.867-1.399 1.867-0.763 0-1.527-0.636-1.823-1.104l-0.424 1.655c0.721 0.678 1.611 1.019 2.459 1.019 2.334 0 2.841-1.703 2.841-3.142v-5.902h-1.57z" fill="#fff"/></g><g transform="translate(91.877 149.41)"><path d="m0 0c-1.272 0-1.65 1.049-1.65 2.292v5.094h-1.143v1.612h1.143v2.549l1.692 0.935v-3.484h1.396v-1.612h-1.396v-4.926c0-0.588 0.083-0.848 0.592-0.848 0.381 0 0.55 0.125 0.931 0.425l-0.254-1.659c-0.549-0.293-0.888-0.378-1.311-0.378" fill="#fff"/></g><g transform="translate(104.26 156.92)"><path d="m0 0h2.427v-1.656h-2.427v-5.686h-1.745v12.096h6.172v-1.698h-4.427z" fill="#fff"/></g><g transform="translate(112.53 153.94)"><path d="m0 0c-0.682 0-1.302-0.449-1.302-1.436 0-1.097 0.596-1.571 1.441-1.571 0.593 0 1.018 0.257 1.018 0.806l1e-3 1.74c-0.27 0.248-0.791 0.461-1.158 0.461m1.241-4.113c-0.296-0.254-0.931-0.379-1.483-0.379-1.485 0-2.756 1.315-2.756 3.099 0 1.895 1.205 2.987 2.67 2.987 0.432 0 1.096-0.164 1.485-0.354-0.043 1.061-0.046 1.867-1.399 1.867-0.763 0-1.527-0.636-1.823-1.104l-0.424 1.655c0.721 0.678 1.611 1.019 2.459 1.019 2.334 0 2.841-1.703 2.841-3.142v-5.902h-1.57z" fill="#fff"/></g><g transform="translate(117.4 160.96)"><path d="m0 0 1.693 0.934v-12.313h-1.693z" fill="#fff"/></g><g transform="translate(121.27 160.96)"><path d="m0 0 1.693 0.934v-12.313h-1.693z" fill="#fff"/></g><g transform="translate(127.02 149.41)"><path d="m0 0h-0.032c-0.778 0-1.468 0.37-1.905 0.948-0.395 0.514-0.612 1.195-0.612 1.914h1.596c0-0.474 0.202-1.276 0.953-1.276 0.517 0 0.937 0.492 0.937 1.096 0 1.623-3.093 1.869-3.093 4.139 0 1.344 1.036 2.396 2.359 2.396 1.286 0 2.33-1.023 2.33-2.421h-1.596c-0.015 0.501-0.31 0.835-0.734 0.835-0.436 0-0.762-0.251-0.762-0.714 1e-3 -1.282 3.092-1.552 3.092-4.235 0-1.478-1.136-2.682-2.533-2.682" fill="#fff"/></g><g transform="translate(51.288 133.89)"><path d="m0 0h-3.305v-5.475h-1.736v12.096h1.736v-4.923h3.304v4.923h1.737v-12.096h-1.736z" fill="#fff"/></g><path d="m55.444 137.24h1.693v-8.833h-1.693zm-0.023 2.544c0 0.513 0.378 0.891 0.848 0.891 0.513 0 0.891-0.378 0.891-0.891 0-0.47-0.378-0.848-0.891-0.848-0.47 0-0.848 0.378-0.848 0.848" fill="#fff"/><g transform="translate(61.198 128.24)"><path d="m0 0h-0.032c-0.778 0-1.468 0.37-1.905 0.948-0.394 0.514-0.612 1.195-0.612 1.914h1.596c0-0.475 0.202-1.276 0.953-1.276 0.517 0 0.937 0.491 0.937 1.096 0 1.623-3.093 1.869-3.093 4.139 0 1.344 1.036 2.396 2.359 2.396 1.286 0 2.33-1.024 2.33-2.421h-1.596c-0.015 0.501-0.31 0.835-0.734 0.835-0.436 0-0.762-0.251-0.762-0.714 1e-3 -1.282 3.092-1.552 3.092-4.235 0-1.478-1.136-2.682-2.533-2.682" fill="#fff"/></g><g transform="translate(67.068 128.24)"><path d="m0 0c-1.272 0-1.65 1.049-1.65 2.292v5.094h-1.143v1.612h1.143v2.549l1.692 0.935v-3.484h1.396v-1.612h-1.396v-4.926c0-0.588 0.083-0.848 0.592-0.848 0.381 0 0.55 0.125 0.931 0.425l-0.254-1.659c-0.549-0.293-0.888-0.378-1.311-0.378" fill="#fff"/></g><g transform="translate(71.152 132.83)"><path d="m0 0c0-0.892 0.171-3.015 1.414-3.015 1.259 0 1.413 2.165 1.413 3.057 0 0.856-0.176 2.968-1.413 2.968v5e-3c-1.243 0-1.414-2.123-1.414-3.015m-1.672 0.041c0 1.956 0.514 4.584 3.086 4.584s3.086-2.461 3.086-4.584c0-2.111-0.514-4.628-3.086-4.628-2.577 0-3.086 2.334-3.086 4.628" fill="#fff"/></g><g transform="translate(80.23 135.8)"><path d="m0 0c-0.977 0-1.105-0.637-1.105-1.74v-5.648h-1.659v8.83h1.657v-0.423c0.425 0.425 0.597 0.637 1.19 0.637s0.854-0.254 1.148-0.595l-0.254-1.571c-0.34 0.297-0.594 0.51-0.977 0.51" fill="#fff"/></g><path d="m82.792 137.24h1.693v-8.833h-1.693zm-0.022 2.544c0 0.513 0.378 0.891 0.848 0.891 0.513 0 0.891-0.378 0.891-0.891 0-0.47-0.378-0.848-0.891-0.848-0.47 0-0.848 0.378-0.848 0.848" fill="#fff"/><g transform="translate(86.3 132.87)"><path d="m0 0c0 1.97 0.516 4.584 3.091 4.584 1.637 0 2.488-0.934 2.831-2.207l-1.631-0.679c-0.172 0.721-0.514 1.315-1.2 1.315-1.231 0-1.417-2.116-1.417-3.013 0-0.875 0.152-3.015 1.417-3.015 0.858 0 1.2 0.933 1.329 1.825l1.631-0.51c-0.301-1.572-1.072-2.928-2.96-2.928-2.591 0-3.091 2.334-3.091 4.628" fill="#fff"/></g><g transform="translate(104.51 138.81)"><path d="m0 0h-1.356v-8.7h1.206c1.416 0 2.14 0.618 2.14 4.286 0 4.251-1.06 4.414-1.99 4.414m-3.092-10.398v12.096h3.452c0.738 0 3.325-0.036 3.325-6.027 0-5.481-2.389-6.069-3.182-6.069z" fill="#fff"/></g><path d="m110.38 137.24h1.693v-8.833h-1.693zm-0.022 2.544c0 0.513 0.378 0.891 0.848 0.891 0.513 0 0.891-0.378 0.891-0.891 0-0.47-0.378-0.848-0.891-0.848-0.47 0-0.848 0.378-0.848 0.848" fill="#fff"/><g transform="translate(116.13 128.24)"><path d="m0 0h-0.032c-0.778 0-1.468 0.37-1.905 0.948-0.395 0.514-0.612 1.195-0.612 1.914h1.596c0-0.475 0.202-1.276 0.953-1.276 0.517 0 0.937 0.491 0.937 1.096 0 1.623-3.093 1.869-3.093 4.139 0 1.344 1.036 2.396 2.359 2.396 1.286 0 2.33-1.024 2.33-2.421h-1.596c-0.015 0.501-0.31 0.835-0.734 0.835-0.436 0-0.762-0.251-0.762-0.714 1e-3 -1.282 3.092-1.552 3.092-4.235 0-1.478-1.136-2.682-2.533-2.682" fill="#fff"/></g><g transform="translate(122 128.24)"><path d="m0 0c-1.272 0-1.65 1.049-1.65 2.292v5.094h-1.143v1.612h1.143v2.549l1.692 0.935v-3.484h1.396v-1.612h-1.396v-4.926c0-0.588 0.084-0.848 0.592-0.848 0.381 0 0.55 0.125 0.931 0.425l-0.254-1.659c-0.549-0.293-0.888-0.378-1.311-0.378" fill="#fff"/></g><g transform="translate(127.54 135.8)"><path d="m0 0c-0.977 0-1.105-0.637-1.105-1.74v-5.648h-1.659v8.83h1.657v-0.423c0.425 0.425 0.597 0.637 1.19 0.637s0.854-0.254 1.148-0.595l-0.254-1.571c-0.34 0.297-0.594 0.51-0.977 0.51" fill="#fff"/></g><path d="m130.1 137.24h1.693v-8.833h-1.693zm-0.022 2.544c0 0.513 0.378 0.891 0.848 0.891 0.513 0 0.891-0.378 0.891-0.891 0-0.47-0.378-0.848-0.891-0.848-0.47 0-0.848 0.378-0.848 0.848" fill="#fff"/><g transform="translate(133.61 132.87)"><path d="m0 0c0 1.97 0.516 4.584 3.091 4.584 1.637 0 2.488-0.934 2.831-2.207l-1.631-0.679c-0.172 0.721-0.514 1.315-1.2 1.315-1.231 0-1.417-2.116-1.417-3.013 0-0.875 0.153-3.015 1.417-3.015 0.858 0 1.2 0.933 1.329 1.825l1.631-0.51c-0.301-1.572-1.072-2.928-2.96-2.928-2.591 0-3.091 2.334-3.091 4.628" fill="#fff"/></g><g transform="translate(142.94 128.24)"><path d="m0 0c-1.272 0-1.65 1.049-1.65 2.292v5.094h-1.143v1.612h1.143v2.549l1.692 0.935v-3.484h1.396v-1.612h-1.396v-4.926c0-0.588 0.084-0.848 0.592-0.848 0.381 0 0.55 0.125 0.931 0.425l-0.254-1.659c-0.549-0.293-0.888-0.378-1.311-0.378" fill="#fff"/></g><g transform="translate(421.57 149.13)"><path d="m0 0c-0.15 1.061-0.57 1.554-1.293 1.554-1.255 0-1.713-0.986-1.713-3.788 0-3.107 0.533-4.357 1.865-4.357 0.914 0 1.141 0.759 1.141 1.554h1.56c-0.037-1.781-1.178-3.07-2.701-3.07-2.32 0-3.348 1.856-3.348 5.835 0 3.484 1.102 5.339 3.234 5.339 1.978 0 2.763-1.805 2.815-3.067z" fill="#fff"/></g><g transform="translate(426.24 145.15)"><path d="m0 0c0-0.796 0.153-2.691 1.262-2.691 1.124 0 1.262 1.932 1.262 2.729 0 0.764-0.158 2.649-1.262 2.649v4e-3c-1.109 0-1.262-1.895-1.262-2.691m-1.493 0.036c0 1.747 0.459 4.093 2.755 4.093s2.755-2.197 2.755-4.093c0-1.884-0.459-4.131-2.755-4.131-2.3 0-2.755 2.084-2.755 4.131" fill="#fff"/></g><g transform="translate(440.96 141.21)"><path d="m0 0h-1.558v5.421c0 1.03-0.417 1.25-1.214 1.25-0.57 0-1.025-0.336-1.025-1.25v-5.421h-1.52v5.421c0 1.039-0.455 1.25-1.215 1.25-0.571 0-1.025-0.336-1.025-1.25v-5.421h-1.519v7.883h1.481v-0.454c0.721 0.645 1.254 0.644 1.595 0.644 0.683 0 1.215-0.302 1.671-0.947 0.421 0.664 0.964 0.955 1.917 0.955 1.329 0 2.412-0.879 2.412-2.66z" fill="#fff"/></g><g transform="translate(451.87 141.21)"><path d="m0 0h-1.558v5.421c0 1.03-0.417 1.25-1.214 1.25-0.57 0-1.025-0.336-1.025-1.25v-5.421h-1.52v5.421c0 1.039-0.455 1.25-1.215 1.25-0.571 0-1.025-0.336-1.025-1.25v-5.421h-1.519v7.883h1.481v-0.454c0.721 0.645 1.254 0.644 1.595 0.644 0.683 0 1.215-0.302 1.671-0.947 0.421 0.664 0.964 0.955 1.917 0.955 1.329 0 2.412-0.879 2.412-2.66z" fill="#fff"/></g><g transform="translate(457.62 141.66)"><path d="m0 0c-0.728-0.645-1.263-0.645-1.608-0.645-1.112 0-2.41 0.86-2.41 2.653v5.42h1.53v-5.42c0-0.973 0.574-1.212 1.339-1.212 0.581 0 1.11 0.303 1.11 1.212v5.42h1.53v-7.883h-1.491z" fill="#fff"/></g><g transform="translate(465.03 146.59)"><path d="m0 0c0 1.046-0.579 1.25-1.339 1.25-0.575 0-1.11-0.344-1.11-1.25v-5.383h-1.53v7.883h1.493v-0.34c0.245 0.311 0.83 0.522 1.479 0.522 1.165 0 2.538-0.675 2.538-2.644v-5.421h-1.531z" fill="#fff"/></g><path d="m468.4 149.1h1.512v-7.885h-1.512zm-0.021 2.271c0 0.458 0.338 0.795 0.758 0.795 0.457 0 0.795-0.337 0.795-0.795 0-0.419-0.338-0.757-0.795-0.757-0.42 0-0.758 0.338-0.758 0.757" fill="#fff"/><g transform="translate(473.48 141.06)"><path d="m0 0c-1.135 0-1.473 0.937-1.473 2.046v4.548h-1.02v1.439h1.02v2.275l1.511 0.834v-3.109h1.246v-1.439h-1.246v-4.398c0-0.525 0.074-0.757 0.528-0.757 0.34 0 0.491 0.112 0.831 0.379l-0.227-1.481c-0.49-0.261-0.792-0.337-1.17-0.337" fill="#fff"/></g><g transform="translate(476.72 138.18)"><path d="m0 0 0.985 3.033-2.498 7.884h1.552l1.778-5.534 1.741 5.534h1.627l-3.557-10.917z" fill="#fff"/></g><g transform="translate(435.88 130.23)"><path d="m0 0c-0.15 1.061-0.57 1.554-1.293 1.554-1.256 0-1.713-0.986-1.713-3.788 0-3.108 0.533-4.358 1.865-4.358 0.914 0 1.141 0.759 1.141 1.554h1.561c-0.038-1.781-1.179-3.07-2.702-3.07-2.32 0-3.349 1.856-3.349 5.836 0 3.484 1.103 5.339 3.235 5.339 1.979 0 2.763-1.805 2.816-3.067z" fill="#fff"/></g><g transform="translate(440.55 127.01)"><path d="m0 0h2.485c0 0.755-0.116 1.968-1.224 1.968v3e-3c-1.11 0-1.261-1.175-1.261-1.971m1.261-3.413c0.61 0 1.109 0.569 1.262 1.25l1.187-0.872c-0.385-1.023-1.111-1.818-2.449-1.818-2.296 0-2.753 2.084-2.753 4.132 0 1.789 0.459 4.093 2.753 4.093 2.446 0 2.758-2.407 2.758-4.312v-0.426h-3.981c0.075-0.872 0.343-2.047 1.223-2.047" fill="#fff"/></g><g transform="translate(449.96 127.69)"><path d="m0 0c0 1.046-0.579 1.25-1.339 1.25-0.575 0-1.11-0.344-1.11-1.25v-5.384h-1.531v7.884h1.493v-0.34c0.246 0.312 0.831 0.522 1.48 0.522 1.165 0 2.538-0.675 2.538-2.644v-5.422h-1.531z" fill="#fff"/></g><g transform="translate(454.95 122.16)"><path d="m0 0c-1.135 0-1.473 0.937-1.473 2.047v4.547h-1.02v1.44h1.02v2.276l1.511 0.834v-3.11h1.246v-1.44h-1.246v-4.398c0-0.525 0.074-0.757 0.528-0.757 0.34 0 0.491 0.112 0.831 0.379l-0.227-1.48c-0.49-0.262-0.792-0.338-1.17-0.338" fill="#fff"/></g><g transform="translate(458.6 127.01)"><path d="m0 0h2.485c0 0.755-0.116 1.968-1.224 1.968v3e-3c-1.11 0-1.261-1.175-1.261-1.971m1.261-3.413c0.61 0 1.109 0.569 1.262 1.25l1.187-0.872c-0.385-1.023-1.111-1.818-2.449-1.818-2.296 0-2.753 2.084-2.753 4.132 0 1.789 0.459 4.093 2.753 4.093 2.446 0 2.758-2.407 2.758-4.312v-0.426h-3.981c0.075-0.872 0.343-2.047 1.223-2.047" fill="#fff"/></g><g transform="translate(466.49 128.91)"><path d="m0 0c-0.872 0-0.987-0.568-0.987-1.554v-5.042h-1.481v7.884h1.48v-0.378c0.379 0.379 0.533 0.568 1.062 0.568s0.763-0.227 1.025-0.53l-0.227-1.403c-0.304 0.265-0.53 0.455-0.872 0.455" fill="#fff"/></g><g transform="translate(235.64 160.19)"><path d="m0 0c-0.345 0-1.904 0.071-1.904-4.545 0-4.649 1.559-4.578 1.904-4.578s1.902-0.071 1.902 4.578c0 4.616-1.557 4.545-1.902 4.545m-3.57-4.536c0 6.334 2.938 6.232 3.59 6.232 0.651 0 3.55 0.097 3.55-6.237 0-6.379-2.899-6.279-3.55-6.279-0.652 0-3.59-0.1-3.59 6.284" fill="#fff"/></g><g transform="translate(243.41 149.58)"><path d="m0 0-2.867 8.832h1.71l1.839-5.946 1.795 5.946h1.796l-2.864-8.832z" fill="#fff"/></g><g transform="translate(250.32 154.85)"><path d="m0 0h2.784c0 0.845-0.13 2.204-1.372 2.204v3e-3c-1.243 0-1.412-1.315-1.412-2.207m1.412-3.822c0.684 0 1.243 0.636 1.414 1.4l1.329-0.977c-0.431-1.146-1.244-2.037-2.743-2.037-2.572 0-3.083 2.335-3.083 4.629 0 2.003 0.514 4.584 3.083 4.584 2.74 0 3.089-2.696 3.089-4.829v-0.478h-4.459c0.085-0.977 0.384-2.292 1.37-2.292" fill="#fff"/></g><g transform="translate(259.16 156.96)"><path d="m0 0c-0.977 0-1.105-0.636-1.105-1.74v-5.648h-1.659v8.83h1.657v-0.423c0.425 0.425 0.597 0.637 1.19 0.637s0.854-0.254 1.148-0.595l-0.254-1.571c-0.34 0.297-0.594 0.51-0.977 0.51" fill="#fff"/></g><g transform="translate(261.72 160.96)"><path d="m0 0 1.693 0.934v-12.313h-1.693z" fill="#fff"/></g><g transform="translate(266.9 154)"><path d="m0 0c0-0.892 0.171-3.015 1.414-3.015 1.259 0 1.413 2.165 1.413 3.057 0 0.856-0.176 2.968-1.413 2.968v5e-3c-1.243 0-1.414-2.123-1.414-3.015m-1.672 0.041c0 1.956 0.514 4.584 3.086 4.584s3.086-2.461 3.086-4.584c0-2.111-0.514-4.628-3.086-4.628-2.577 0-3.086 2.334-3.086 4.628" fill="#fff"/></g><g transform="translate(274.53 154)"><path d="m0 0c0-0.892 0.171-3.015 1.414-3.015 1.259 0 1.413 2.165 1.413 3.057 0 0.856-0.176 2.968-1.413 2.968v5e-3c-1.243 0-1.414-2.123-1.414-3.015m-1.672 0.041c0 1.956 0.514 4.584 3.086 4.584s3.086-2.461 3.086-4.584c0-2.111-0.514-4.628-3.086-4.628-2.577 0-3.086 2.334-3.086 4.628" fill="#fff"/></g><g transform="translate(283.45 154.55)"><path d="m0 0-0.928-1.146v-3.822h-1.686v11.379l1.686 0.934v-6.03l2.024 2.548h2.023l-1.94-2.421 2.742-6.41h-1.813z" fill="#fff"/></g><g transform="translate(298.19 156.54)"><path d="m0 0h1.778c1.016 0 1.568 0.635 1.568 1.739 0 1.019-0.641 1.698-1.566 1.698h-1.78zm0-1.656v-5.305h-1.736v12.096h3.6c1.907 0 3.177-1.364 3.177-3.396 0-2.208-1.145-3.395-3.177-3.395z" fill="#fff"/></g><g transform="translate(307.8 153.94)"><path d="m0 0c-0.682 0-1.302-0.449-1.302-1.436 0-1.097 0.596-1.571 1.441-1.571 0.593 0 1.018 0.257 1.018 0.806l1e-3 1.74c-0.27 0.248-0.791 0.461-1.158 0.461m1.241-4.113c-0.296-0.254-0.931-0.379-1.483-0.379-1.485 0-2.756 1.315-2.756 3.099 0 1.895 1.205 2.987 2.67 2.987 0.432 0 1.096-0.164 1.485-0.354-0.043 1.061-0.046 1.867-1.399 1.867-0.763 0-1.527-0.636-1.823-1.104l-0.424 1.655c0.722 0.678 1.611 1.019 2.459 1.019 2.334 0 2.841-1.703 2.841-3.142v-5.902h-1.57z" fill="#fff"/></g><g transform="translate(315.43 156.96)"><path d="m0 0c-0.977 0-1.105-0.636-1.105-1.74v-5.648h-1.659v8.83h1.657v-0.423c0.425 0.425 0.597 0.637 1.19 0.637s0.854-0.254 1.148-0.595l-0.254-1.571c-0.34 0.297-0.594 0.51-0.977 0.51" fill="#fff"/></g><g transform="translate(320.6 154.55)"><path d="m0 0-0.928-1.146v-3.822h-1.686v11.379l1.686 0.934v-6.03l2.024 2.548h2.023l-1.94-2.421 2.742-6.41h-1.813z" fill="#fff"/></g><g transform="translate(235.15 129.42)"><path d="m0 0-3.069 12.096h1.748l2.004-7.853 2.002 7.853h1.748l-3.112-12.096z" fill="#fff"/></g><path d="m241.03 138.25h1.693v-8.833h-1.693zm-0.023 2.544c0 0.513 0.378 0.891 0.849 0.891 0.512 0 0.89-0.378 0.89-0.891 0-0.47-0.378-0.848-0.89-0.848-0.471 0-0.849 0.378-0.849 0.848" fill="#fff"/><g transform="translate(246.79 129.25)"><path d="m0 0h-0.032c-0.778 0-1.468 0.37-1.905 0.948-0.395 0.514-0.612 1.194-0.612 1.914h1.596c0-0.475 0.202-1.276 0.953-1.276 0.517 0 0.937 0.491 0.937 1.096 0 1.623-3.093 1.869-3.093 4.139 0 1.344 1.036 2.396 2.359 2.396 1.286 0 2.33-1.024 2.33-2.421h-1.596c-0.015 0.501-0.31 0.835-0.734 0.835-0.436 0-0.762-0.251-0.762-0.714 1e-3 -1.282 3.092-1.552 3.092-4.235 0-1.478-1.136-2.682-2.533-2.682" fill="#fff"/></g><path d="m250.83 138.25h1.693v-8.833h-1.693zm-0.023 2.544c0 0.513 0.378 0.891 0.848 0.891 0.513 0 0.891-0.378 0.891-0.891 0-0.47-0.378-0.848-0.891-0.848-0.47 0-0.848 0.378-0.848 0.848" fill="#fff"/><g transform="translate(256.53 129.25)"><path d="m0 0c-1.272 0-1.65 1.049-1.65 2.292v5.094h-1.143v1.612h1.143v2.549l1.692 0.935v-3.484h1.396v-1.612h-1.396v-4.926c0-0.588 0.083-0.848 0.592-0.848 0.381 0 0.55 0.125 0.931 0.425l-0.254-1.659c-0.549-0.293-0.888-0.378-1.311-0.378" fill="#fff"/></g><g transform="translate(260.61 133.84)"><path d="m0 0c0-0.892 0.171-3.015 1.414-3.015 1.259 0 1.413 2.165 1.413 3.057 0 0.856-0.176 2.968-1.413 2.968v5e-3c-1.243 0-1.414-2.123-1.414-3.015m-1.672 0.041c0 1.956 0.514 4.584 3.086 4.584s3.086-2.461 3.086-4.584c0-2.111-0.514-4.628-3.086-4.628-2.577 0-3.086 2.334-3.086 4.628" fill="#fff"/></g><g transform="translate(269.69 136.81)"><path d="m0 0c-0.977 0-1.105-0.637-1.105-1.74v-5.648h-1.659v8.83h1.657v-0.423c0.425 0.425 0.597 0.637 1.19 0.637s0.854-0.254 1.148-0.595l-0.254-1.571c-0.34 0.297-0.594 0.51-0.977 0.51" fill="#fff"/></g><g transform="translate(285.02 138.29)"><path d="m0 0c-0.168 1.188-0.638 1.74-1.448 1.74-1.407 0-1.919-1.103-1.919-4.242 0-3.481 0.597-4.881 2.089-4.881 1.024 0 1.278 0.85 1.278 1.74h1.748c-0.042-1.994-1.32-3.438-3.026-3.438-2.599 0-3.751 2.079-3.751 6.536 0 3.903 1.235 5.98 3.623 5.98 2.216 0 3.095-2.021 3.154-3.435z" fill="#fff"/></g><g transform="translate(290.25 134.69)"><path d="m0 0h2.784c0 0.845-0.13 2.204-1.372 2.204v4e-3c-1.243 0-1.412-1.316-1.412-2.208m1.412-3.822c0.684 0 1.243 0.636 1.414 1.4l1.329-0.977c-0.431-1.146-1.244-2.037-2.743-2.037-2.572 0-3.083 2.335-3.083 4.629 0 2.003 0.514 4.584 3.083 4.584 2.74 0 3.089-2.696 3.089-4.829v-0.478h-4.459c0.085-0.977 0.384-2.292 1.37-2.292" fill="#fff"/></g><g transform="translate(300.79 135.45)"><path d="m0 0c0 1.172-0.649 1.4-1.5 1.4-0.644 0-1.243-0.385-1.243-1.4v-6.03h-1.714v8.83h1.672v-0.381c0.275 0.349 0.93 0.585 1.657 0.585 1.305 0 2.843-0.756 2.843-2.962v-6.072h-1.715z" fill="#fff"/></g><g transform="translate(306.38 129.25)"><path d="m0 0c-1.272 0-1.65 1.049-1.65 2.292v5.094h-1.143v1.612h1.143v2.549l1.692 0.935v-3.484h1.396v-1.612h-1.396v-4.926c0-0.588 0.084-0.848 0.592-0.848 0.381 0 0.55 0.125 0.931 0.425l-0.254-1.659c-0.549-0.293-0.888-0.378-1.311-0.378" fill="#fff"/></g><g transform="translate(310.46 134.69)"><path d="m0 0h2.784c0 0.845-0.13 2.204-1.372 2.204v4e-3c-1.243 0-1.412-1.316-1.412-2.208m1.412-3.822c0.684 0 1.243 0.636 1.414 1.4l1.329-0.977c-0.431-1.146-1.244-2.037-2.743-2.037-2.572 0-3.083 2.335-3.083 4.629 0 2.003 0.514 4.584 3.083 4.584 2.74 0 3.089-2.696 3.089-4.829v-0.478h-4.459c0.085-0.977 0.384-2.292 1.37-2.292" fill="#fff"/></g><g transform="translate(319.3 136.81)"><path d="m0 0c-0.977 0-1.105-0.637-1.105-1.74v-5.648h-1.659v8.83h1.657v-0.423c0.425 0.425 0.597 0.637 1.19 0.637s0.854-0.254 1.148-0.595l-0.254-1.571c-0.34 0.297-0.594 0.51-0.977 0.51" fill="#fff"/></g><g transform="translate(233.81 104.17)"><path d="m0 0v-3.056h1.778c1.019 0 1.568 0.552 1.568 1.529 0 0.934-0.635 1.527-1.566 1.527zm1.653-4.711h-1.653v-5.687h-1.736v12.096h3.6c1.898 0 3.177-1.273 3.177-3.225 0-1.443-0.594-2.504-1.737-2.929l1.735-5.942h-1.776z" fill="#fff"/></g><g transform="translate(241.98 98.191)"><path d="m0 0c0-0.892 0.171-3.015 1.414-3.015 1.259 0 1.413 2.165 1.413 3.057 0 0.856-0.176 2.968-1.413 2.968v5e-3c-1.243 0-1.414-2.123-1.414-3.015m-1.672 0.041c0 1.956 0.514 4.584 3.086 4.584s3.086-2.461 3.086-4.584c0-2.111-0.514-4.628-3.086-4.628-2.577 0-3.086 2.334-3.086 4.628" fill="#fff"/></g><g transform="translate(250.97 101.2)"><path d="m0 0c-1.098 0-1.352-1.678-1.352-2.97 0-1.315 0.309-3.06 1.31-3.06 0.889 0 1.394 0.635 1.394 1.7v2.634c0 1.309-0.626 1.696-1.352 1.696m-1.098-10.442c1.056 0.212 2.492 0.811 2.492 2.295v0.805c-0.36-0.139-0.965-0.251-1.352-0.251-2.579 0-3.086 2.464-3.086 4.629 0 2.123 0.465 4.585 2.875 4.585h6e-3c0.493 0 1.188-0.269 1.557-0.596v0.384h1.734v-8.509c0-1.4 0.041-4.192-3.424-4.7z" fill="#fff"/></g><g transform="translate(257.59 99.04)"><path d="m0 0h2.784c0 0.845-0.13 2.204-1.372 2.204v4e-3c-1.243 0-1.412-1.316-1.412-2.208m1.412-3.822c0.684 0 1.243 0.636 1.414 1.4l1.329-0.977c-0.431-1.146-1.244-2.037-2.743-2.037-2.572 0-3.083 2.335-3.083 4.629 0 2.003 0.514 4.584 3.083 4.584 2.74 0 3.089-2.696 3.089-4.829v-0.478h-4.459c0.085-0.977 0.384-2.292 1.37-2.292" fill="#fff"/></g><g transform="translate(266.43 101.16)"><path d="m0 0c-0.977 0-1.105-0.637-1.105-1.74v-5.648h-1.659v8.83h1.657v-0.423c0.425 0.425 0.597 0.637 1.19 0.637s0.854-0.254 1.148-0.595l-0.254-1.571c-0.34 0.297-0.594 0.51-0.977 0.51" fill="#fff"/></g><g transform="translate(270.87 93.602)"><path d="m0 0h-0.032c-0.778 0-1.468 0.37-1.905 0.948-0.394 0.514-0.612 1.194-0.612 1.914h1.596c0-0.475 0.202-1.276 0.953-1.276 0.517 0 0.937 0.491 0.937 1.096 0 1.623-3.093 1.869-3.093 4.139 0 1.344 1.036 2.396 2.359 2.396 1.286 0 2.33-1.024 2.33-2.421h-1.596c-0.015 0.501-0.31 0.835-0.734 0.835-0.436 0-0.762-0.251-0.762-0.714 1e-3 -1.282 3.092-1.552 3.092-4.235 0-1.478-1.136-2.682-2.533-2.682" fill="#fff"/></g><g transform="translate(282.54 105.87)"><path d="m0 0h1.745v-10.483h4.427v-1.613h-6.172z" fill="#fff"/></g><g transform="translate(291.47 98.191)"><path d="m0 0c0-0.892 0.171-3.015 1.414-3.015 1.259 0 1.413 2.165 1.413 3.057 0 0.856-0.176 2.968-1.413 2.968v5e-3c-1.243 0-1.414-2.123-1.414-3.015m-1.672 0.041c0 1.956 0.514 4.584 3.086 4.584s3.086-2.461 3.086-4.584c0-2.111-0.514-4.628-3.086-4.628-2.577 0-3.086 2.334-3.086 4.628" fill="#fff"/></g><g transform="translate(297.42 98.232)"><path d="m0 0c0 1.97 0.516 4.584 3.091 4.584 1.637 0 2.488-0.934 2.831-2.207l-1.631-0.679c-0.172 0.721-0.514 1.315-1.2 1.315-1.231 0-1.417-2.116-1.417-3.013 0-0.875 0.153-3.015 1.417-3.015 0.858 0 1.2 0.933 1.329 1.825l1.631-0.509c-0.301-1.573-1.072-2.929-2.96-2.929-2.591 0-3.091 2.334-3.091 4.628" fill="#fff"/></g><g transform="translate(306.23 98.191)"><path d="m0 0c0-0.892 0.171-3.015 1.414-3.015 1.259 0 1.413 2.165 1.413 3.057 0 0.856-0.176 2.968-1.413 2.968v5e-3c-1.243 0-1.414-2.123-1.414-3.015m-1.672 0.041c0 1.956 0.514 4.584 3.086 4.584s3.086-2.461 3.086-4.584c0-2.111-0.514-4.628-3.086-4.628-2.577 0-3.086 2.334-3.086 4.628" fill="#fff"/></g><g transform="translate(322.71 93.772)"><path d="m0 0h-1.745v6.072c0 1.154-0.467 1.4-1.361 1.4-0.638 0-1.147-0.376-1.147-1.4v-6.072h-1.703v6.072c0 1.164-0.509 1.4-1.361 1.4-0.639 0-1.149-0.376-1.149-1.4v-6.072h-1.701v8.83h1.659v-0.508c0.807 0.723 1.405 0.721 1.787 0.721 0.765 0 1.361-0.338 1.872-1.061 0.472 0.744 1.08 1.07 2.147 1.07 1.489 0 2.702-0.984 2.702-2.98z" fill="#fff"/></g><g transform="translate(326.08 98.191)"><path d="m0 0c0-0.892 0.171-3.015 1.414-3.015 1.259 0 1.413 2.165 1.413 3.057 0 0.856-0.176 2.968-1.413 2.968v5e-3c-1.243 0-1.414-2.123-1.414-3.015m-1.672 0.041c0 1.956 0.514 4.584 3.086 4.584s3.086-2.461 3.086-4.584c0-2.111-0.514-4.628-3.086-4.628-2.577 0-3.086 2.334-3.086 4.628" fill="#fff"/></g><g transform="translate(334.22 93.604)"><path d="m0 0c-1.272 0-1.65 1.049-1.65 2.292v5.094h-1.143v1.612h1.143v2.549l1.692 0.935v-3.484h1.396v-1.612h-1.396v-4.926c0-0.588 0.083-0.848 0.592-0.848 0.381 0 0.55 0.125 0.931 0.425l-0.254-1.659c-0.549-0.293-0.888-0.378-1.311-0.378" fill="#fff"/></g><path d="m337 102.6h1.693v-8.833h-1.693zm-0.023 2.545c0 0.512 0.378 0.89 0.848 0.89 0.513 0 0.891-0.378 0.891-0.89 0-0.47-0.378-0.848-0.891-0.848-0.47 0-0.848 0.378-0.848 0.848" fill="#fff"/><g transform="translate(342.89 93.772)"><path d="m0 0-2.867 8.832h1.71l1.839-5.946 1.795 5.946h1.796l-2.864-8.832z" fill="#fff"/></g><g transform="translate(349.8 99.04)"><path d="m0 0h2.784c0 0.845-0.13 2.204-1.372 2.204v4e-3c-1.243 0-1.412-1.316-1.412-2.208m1.412-3.822c0.684 0 1.243 0.636 1.414 1.4l1.329-0.977c-0.431-1.146-1.244-2.037-2.743-2.037-2.572 0-3.083 2.335-3.083 4.629 0 2.003 0.514 4.584 3.083 4.584 2.74 0 3.089-2.696 3.089-4.829v-0.478h-4.459c0.085-0.977 0.384-2.292 1.37-2.292" fill="#fff"/></g><g transform="translate(237.11 66.217)"><path d="m0 0c-0.168 1.188-0.638 1.74-1.448 1.74-1.407 0-1.919-1.103-1.919-4.242 0-3.481 0.597-4.881 2.089-4.881 1.024 0 1.278 0.85 1.278 1.74h1.748c-0.042-1.994-1.32-3.438-3.026-3.438-2.599 0-3.751 2.079-3.751 6.536 0 3.903 1.235 5.98 3.623 5.98 2.216 0 3.095-2.021 3.154-3.435z" fill="#fff"/></g><path d="m241.03 66.179h1.693v-8.833h-1.693zm-0.023 2.545c0 0.513 0.378 0.891 0.848 0.891 0.513 0 0.891-0.378 0.891-0.891 0-0.47-0.378-0.848-0.891-0.848-0.47 0-0.848 0.378-0.848 0.848" fill="#fff"/><g transform="translate(246.73 57.178)"><path d="m0 0c-1.272 0-1.65 1.049-1.65 2.292v5.094h-1.143v1.612h1.143v2.549l1.692 0.935v-3.484h1.396v-1.612h-1.396v-4.926c0-0.588 0.083-0.848 0.592-0.848 0.381 0 0.55 0.125 0.931 0.425l-0.254-1.659c-0.549-0.293-0.888-0.378-1.311-0.378" fill="#fff"/></g><g transform="translate(250.35 53.948)"><path d="m0 0 1.104 3.397-2.799 8.832h1.739l1.991-6.199 1.951 6.199h1.822l-3.985-12.229z" fill="#fff"/></g><g transform="translate(270.27 62.821)"><path d="m0 0h-3.305v-5.475h-1.736v12.096h1.736v-4.923h3.303v4.923h1.738v-12.096h-1.736z" fill="#fff"/></g><g transform="translate(276.82 61.713)"><path d="m0 0c-0.682 0-1.302-0.449-1.302-1.436 0-1.097 0.596-1.571 1.441-1.571 0.593 0 1.018 0.257 1.018 0.806l1e-3 1.74c-0.27 0.248-0.791 0.461-1.158 0.461m1.241-4.113c-0.296-0.254-0.931-0.379-1.483-0.379-1.485 0-2.756 1.315-2.756 3.099 0 1.895 1.205 2.987 2.67 2.987 0.432 0 1.096-0.164 1.485-0.354-0.043 1.061-0.046 1.867-1.399 1.867-0.763 0-1.527-0.636-1.823-1.104l-0.424 1.655c0.721 0.678 1.611 1.019 2.459 1.019 2.334 0 2.841-1.703 2.841-3.142v-5.902h-1.57z" fill="#fff"/></g><g transform="translate(281.69 68.725)"><path d="m0 0 1.693 0.934v-12.313h-1.693z" fill="#fff"/></g><g transform="translate(285.56 68.725)"><path d="m0 0 1.693 0.934v-12.313h-1.693z" fill="#fff"/></g></g></g></svg>
