<?xml version="1.0" encoding="UTF-8"?>
<svg width="672" height="407.77" version="1.1" viewBox="0 0 672 407.77" xml:space="preserve" xmlns="http://www.w3.org/2000/svg"><defs><clipPath id="b"><path d="m27 404.74h511.84v333.26h-511.84z"/></clipPath><clipPath id="a"><path d="m27 404.74h511.84v333.26h-511.84z"/></clipPath></defs><g transform="matrix(1.3333 0 0 -1.3333 -41.227 955.81)"><g fill="black" font-family="Helvetica" font-size="9.5px"><text transform="matrix(1 0 0 -1 387.55 709.94)" font-weight="bold"><tspan x="0 6.8590002 9.5 14.782 17.423 23.759501 26.400499 32.205002 38.009499 40.650501 45.932499 48.573502 51.2145 57.019001 60.182499 65.4645 69.160004 74.442001 79.723999 85.005997 88.169502 90.810501 96.614998" y="0">B – Single intersection</tspan></text><text transform="matrix(1 0 0 -1 375.92 698.54)"><tspan x="0 3.1635001 8.4455004 13.7275 16.3685 21.650499 26.400499 29.0415 34.323502 36.9645 39.605499 44.887501 50.169498 55.4515 60.733501 65.483498 67.592499 72.874496 78.156502 80.797501 82.906502 88.188499 90.829498 93.470497 96.634003 99.275002 104.557 107.7205 113.0025 115.1115 120.3935" y="0">(paths of opposing left-turning</tspan><tspan x="16.91 21.66 26.941999 32.223999 34.333 39.083 41.192001 46.473999 51.223999 53.865002 59.146999 64.429001 67.07 72.351997 77.634003 80.275002 82.916 87.666 90.829498 96.111504 100.8615 105.6115" y="11.4">vehicles do not cross)</tspan></text><text transform="matrix(1 0 0 -1 105.51 709.94)" font-weight="bold"><tspan x="0 6.8590002 9.5 14.782 17.423 23.759501 29.0415 34.846001 40.127998 43.823502 49.105499 52.269001 57.550999 60.192001 62.833 68.637497 71.801003 77.083 80.778503 86.060501 91.342499 96.624496 99.788002 102.429 108.2335 114.038" y="0">A – Separate intersections</tspan></text><text transform="matrix(1 0 0 -1 69.597 698.54)"><tspan x="0 3.1635001 8.4455004 13.7275 16.3685 21.650499 26.400499 29.0415 34.323502 36.9645 39.605499 44.887501 50.169498 55.4515 60.733501 65.483498 67.592499 72.874496 78.156502 80.797501 82.906502 88.188499 90.829498 93.470497 96.634003 99.275002 104.557 107.7205 113.0025 115.1115 120.3935 125.6755 128.3165 133.0665 138.3485 143.63049 145.7395 150.4895 152.5985 157.88049 162.63049 165.2715 170.0215 173.185 178.467 183.217 187.967" y="0">(paths of opposing left-turning vehicles cross)</tspan></text></g><g transform="translate(283.23 437.37)"><path d="m0 0h6.354v1.559l4.376-2.577-4.376-2.398v1.439h-6.354z"/></g><g transform="translate(304.73 445.65)"><path d="m0 0h29.291" fill="none" stroke="#000" stroke-width=".75"/></g><text transform="matrix(1 0 0 -1 304.07 448.6)" fill="black" font-family="Helvetica" font-size="9px"><tspan x="0 5.0580001 10.161 15.2379 20.2959 25.4196" y="0">Legend</tspan><tspan x="-7.3439999 -0.76679999 1.2762001 4.3182001 9.4211998 14.0877 16.679701 18.790199 23.863501 28.869301 31.3713 36.376202 38.8755 41.377499 43.948799 46.990799 51.918301 56.3508 61.399799" y="15.363">Direction of travel</tspan><tspan x="-7.3439999 -1.341 3.6630001 6.165 11.169 13.671 18.674999 21.177 23.679001 25.677 30.681 33.182999 35.685001 38.681999 41.183998 46.188 49.185001 54.188999 56.187 61.191002 66.195" y="27.864">Path of left-turning </tspan><tspan x="0.162 4.6620002 9.6660004 14.67 16.667999 21.167999 23.166" y="37.368">vehicle</tspan></text><g clip-path="url(#b)"><g transform="translate(270.02 426.42)"><path d="m0 0c0-7.769 4.881-7.676 8.178-7.676h10.224" fill="none" stroke="#005a9c"/></g></g><g transform="translate(287.33 415.01)"><path d="M 0,0 6.477,3.74 0,7.479 Z" fill="#005a9c"/></g><g clip-path="url(#a)"><g transform="translate(266.51 530.56)"><path d="m0 0h31.275v29.606h-31.275c-7.112 0-12.877 5.766-12.877 12.877v107.92h-37.152v-107.92c0-7.111-5.765-12.877-12.877-12.877h-64.687c-7.112 0-12.877 5.766-12.877 12.877v47.324l-14.093 38.57v22.024h-37.157v-107.92c0-7.111-5.765-12.877-12.877-12.877h-30.997v-29.606h30.997c7.112 0 12.877-5.765 12.877-12.877v-106.44h37.442v106.44c0 7.112 5.765 12.877 12.877 12.877h64.433c7.112 0 12.877-5.765 12.877-12.877v-47.427l14.062-38.569v-20.448h37.152v106.44c0 7.112 5.765 12.877 12.877 12.877" fill="#b1b3b6"/></g><g transform="translate(235.06 576.38)"><path d="m0 0v104.59" fill="none" stroke="#fff" stroke-dasharray="11.125, 33.376" stroke-width="1.46"/></g><g transform="translate(235.06 517.48)"><path d="m0 0v-106.45" fill="none" stroke="#fff" stroke-dasharray="11.125, 33.376" stroke-width="1.46"/></g><g transform="translate(93.371 517.48)"><path d="m0 0v-106.23" fill="none" stroke="#fff" stroke-dasharray="11.125, 33.376" stroke-width="1.46"/></g><g transform="translate(93.371 573.54)"><path d="m0 0v107.43" fill="none" stroke="#fff" stroke-dasharray="11.125, 33.376" stroke-width="1.46"/></g><g transform="translate(220.99 576.38)"><path d="m0 0v104.59" fill="none" stroke="#ffd046" stroke-width="1.46"/></g><g transform="translate(107.74 411.24)"><path d="m0 0v106.23" fill="none" stroke="#ffd046" stroke-width="1.46"/></g><g transform="translate(220.99 411.24)"><path d="m0 0v21.547l-14.114 38.57v46.12" fill="none" stroke="#ffd046" stroke-width="1.46"/></g><g transform="translate(121.58 573.54)"><path d="m0 0v45.682l-13.844 38.626v23.118" fill="none" stroke="#ffd046" stroke-width="1.46"/></g><g transform="translate(79.296 411.24)"><path d="m0 0v106.23" fill="none" stroke="#fff" stroke-width="1.46"/></g><g transform="translate(249.13 411.24)"><path d="m0 0v106.24" fill="none" stroke="#fff" stroke-width="1.46"/></g><g transform="translate(249.13 576.38)"><path d="m0 0v104.59" fill="none" stroke="#fff" stroke-width="1.46"/></g><g transform="translate(79.296 573.54)"><path d="m0 0v107.43" fill="none" stroke="#fff" stroke-width="1.46"/></g><g transform="translate(262.15 546.46)"><path d="m0 0h35.636" fill="none" stroke="#ffd046" stroke-width="1.46"/></g><g transform="translate(297.79 544.27)"><path d="m0 0h-35.636" fill="none" stroke="#ffd046" stroke-width="1.46"/></g><g transform="translate(133.13 546.46)"><path d="m0 0h61.746" fill="none" stroke="#ffd046" stroke-width="1.46"/></g><g transform="translate(194.88 544.27)"><path d="m0 0h-61.746" fill="none" stroke="#ffd046" stroke-width="1.46"/></g><g transform="translate(107.74 573.54)"><path d="m0 0v41.958" fill="none" stroke="#fff" stroke-width="1.46"/></g><g transform="translate(107.74 619.36)" fill="none" stroke-width="1.46"><path d="m0 0v31.163" stroke="#b1b3b6"/><path d="m0 0v31.163" stroke="#fff" stroke-dasharray="3.154, 9.461"/></g><g transform="translate(220.99 444.11)" fill="none" stroke-width="1.46"><path d="m0 0v33.542" stroke="#b1b3b6"/><path d="m0 0v33.542" stroke="#fff" stroke-dasharray="3.154, 9.461"/></g><g transform="translate(220.99 477.65)"><path d="m0 0v39.827" fill="none" stroke="#fff" stroke-width="1.46"/></g><g transform="translate(118.38 585.4)"><path d="m0 0c-1.169-1.051-2.335-2.069-3.506-3.12 0.261 0.91 0.522 1.821 0.783 2.729-0.261 8e-3 -0.522 0.013-0.783 0.022-2.318 0.169-3.553 1.393-3.892 3.49v3.51h1.163v-2.346c0.258-1.637 1.081-2.644 2.729-2.729h0.783c-0.133 0.909-0.268 1.819-0.401 2.729 1.042-1.418 2.081-2.868 3.124-4.285" fill="#fff" fill-rule="evenodd"/></g><g transform="translate(210.23 502.16)"><path d="m0 0c1.169 1.051 2.335 2.069 3.506 3.12-0.261-0.91-0.522-1.821-0.783-2.729 0.261-7e-3 0.522-0.013 0.783-0.022 2.318-0.169 3.553-1.392 3.892-3.49v-3.51h-1.163v2.346c-0.258 1.638-1.081 2.644-2.729 2.729h-0.783c0.133-0.909 0.268-1.819 0.401-2.729-1.042 1.418-2.081 2.868-3.124 4.285" fill="#fff" fill-rule="evenodd"/></g><g transform="translate(66.648 544.27)"><path d="m0 0h-35.728" fill="none" stroke="#ffd046" stroke-width="1.46"/></g><g transform="translate(30.92 546.46)"><path d="m0 0h35.728" fill="none" stroke="#ffd046" stroke-width="1.46"/></g><g transform="translate(87.011 675.9)"><path d="m0 0v-4.638h1.138l-1.881-3.195-1.751 3.195h1.051v4.638z"/></g><g transform="translate(101.23 675.9)"><path d="m0 0v-4.638h1.138l-1.881-3.195-1.751 3.195h1.051v4.638z"/></g><g transform="translate(87.011 423.49)"><path d="m0 0v-4.638h1.138l-1.881-3.195-1.751 3.195h1.051v4.638z"/></g><g transform="translate(101.23 423.49)"><path d="m0 0v-4.638h1.138l-1.881-3.195-1.751 3.195h1.051v4.638z"/></g><g transform="translate(241.49 415.65)"><path d="m0 0v4.638h-1.138l1.881 3.195 1.751-3.195h-1.051v-4.638z"/></g><g transform="translate(227.27 415.65)"><path d="m0 0v4.638h-1.138l1.881 3.195 1.751-3.195h-1.051v-4.638z"/></g><g transform="translate(241.49 668.06)"><path d="m0 0v4.638h-1.138l1.881 3.195 1.751-3.195h-1.051v-4.638z"/></g><g transform="translate(227.27 668.06)"><path d="m0 0v4.638h-1.138l1.881 3.195 1.751-3.195h-1.051v-4.638z"/></g><g transform="translate(293.64 551.94)"><path d="m0 0h-4.638v-1.138l-3.195 1.881 3.195 1.751v-1.051h4.638z"/></g><g transform="translate(285.81 539.08)"><path d="m0 0h4.638v1.138l3.195-1.881-3.195-1.751v1.051h-4.638z"/></g><g transform="translate(44.232 551.94)"><path d="m0 0h-4.638v-1.138l-3.195 1.881 3.195 1.751v-1.051h4.638z"/></g><g transform="translate(36.398 539.08)"><path d="m0 0h4.638v1.138l3.195-1.881-3.195-1.751v1.051h-4.638z"/></g><g transform="translate(263.61 547.19)"><path d="m0 0v15.804" fill="none" stroke="#fff" stroke-width="2.92"/></g><g transform="translate(134.59 547.19)"><path d="m0 0v15.804" fill="none" stroke="#fff" stroke-width="2.92"/></g><g transform="translate(193.42 543.54)"><path d="m0 0v-14.718" fill="none" stroke="#fff" stroke-width="2.92"/></g><g transform="translate(65.188 528.82)"><path d="m0 0v15.448" fill="none" stroke="#fff" stroke-width="2.92"/></g><g transform="translate(297.79 560.17)"><path d="m0 0h-31.275c-7.112 0-12.877 5.765-12.877 12.877v107.92" fill="none" stroke="#000" stroke-width=".75"/></g><g transform="translate(253.64 411.24)"><path d="m0 0v106.44c0 7.112 5.765 12.877 12.877 12.877h31.275" fill="none" stroke="#000" stroke-width=".75"/></g><g transform="translate(112.24 411.24)"><path d="m0 0v106.44c0 7.112 5.765 12.877 12.877 12.877h64.433c7.111 0 12.877-5.765 12.877-12.877v-47.427l14.062-38.569v-20.449" fill="none" stroke="#000" stroke-width=".75"/></g><g transform="translate(30.92 530.56)"><path d="m0 0h30.997c7.112 0 12.877-5.765 12.877-12.877v-106.44" fill="none" stroke="#000" stroke-width=".75"/></g><g transform="translate(74.794 680.97)"><path d="m0 0v-107.92c0-7.112-5.765-12.877-12.877-12.877h-30.997" fill="none" stroke="#000" stroke-width=".75"/></g><g transform="translate(216.49 680.97)"><path d="m0 0v-107.92c0-7.112-5.766-12.877-12.877-12.877h-64.687c-7.112 0-12.877 5.765-12.877 12.877v47.323l-14.093 38.57v22.024" fill="none" stroke="#000" stroke-width=".75"/></g><g transform="translate(93.756 553.63)"><path d="m0 0h85.411c15.422 0 35.452-4.206 35.452-40.54v-5.552" fill="none" stroke="#005a9c" stroke-width="1.46"/></g><g transform="translate(95.354 548.17)"><path d="m0 0-9.456 5.46 9.456 5.46z" fill="#005a9c"/></g><g transform="translate(235.74 537.64)"><path d="m0 0h-83.068c-15.422 0-38.248-0.437-38.248 35.897v6.154" fill="none" stroke="#005a9c" stroke-width="1.46"/></g><g transform="translate(234.14 543.1)"><path d="m0 0 9.456-5.46-9.456-5.46z" fill="#005a9c"/></g><g transform="translate(440.04 574.88)"><path d="m0 0v43.231l-14.314 39.569v23.438h-37.807v-107.63c0-7.352-5.96-13.312-13.313-13.312h-32.011v-29.607h32.011c7.353 0 13.313-5.96 13.313-13.312v-106.22h37.436v106.06c0 3.327 2.697 6.023 6.023 6.023h0.37c3.326 0 6.022-2.696 6.022-6.023v-45.73l14.315-39.57v-20.758h37.154v106.22c0 7.352 5.96 13.312 13.313 13.312h32.367v29.607h-32.367c-7.353 0-13.313 5.96-13.313 13.312v107.63h-37.154v-106.24c0-3.326-2.696-6.022-6.023-6.022-3.326 0-6.022 2.696-6.022 6.022" fill="#b1b3b6"/></g><g transform="translate(420.86 648.84)" fill="none" stroke-width="1.46"><path d="m0 0v-33.542" stroke="#b1b3b6"/><path d="m0 0v-33.542" stroke="#fff" stroke-dasharray="3.154, 9.461"/></g><g transform="translate(470.66 573.54)"><path d="m0 0v107.57" fill="none" stroke="#fff" stroke-dasharray="10.512, 31.536" stroke-width="1.46"/></g><g transform="translate(470.66 517.09)"><path d="m0 0v-106.07" fill="none" stroke="#fff" stroke-dasharray="10.512, 31.536" stroke-width="1.46"/></g><g transform="translate(406.5 517.09)"><path d="m0 0v-106.07" fill="none" stroke="#fff" stroke-dasharray="10.512, 31.536" stroke-width="1.46"/></g><g transform="translate(406.5 573.54)"><path d="m0 0v107.57" fill="none" stroke="#fff" stroke-dasharray="10.512, 31.536" stroke-width="1.46"/></g><g transform="translate(456.59 573.54)"><path d="m0 0v107.57" fill="none" stroke="#ffd046" stroke-width="1.46"/></g><g transform="translate(420.86 411.03)"><path d="m0 0v106.07" fill="none" stroke="#ffd046" stroke-width="1.46"/></g><g transform="translate(456.59 411.03)"><path d="m0 0v24.919l-14.261 35.409v45.738" fill="none" stroke="#ffd046" stroke-width="1.46"/></g><g transform="translate(392.42 411.03)"><path d="m0 0v106.07" fill="none" stroke="#fff" stroke-width="1.46"/></g><g transform="translate(484.74 411.03)"><path d="m0 0v106.07" fill="none" stroke="#fff" stroke-width="1.46"/></g><g transform="translate(484.74 573.54)"><path d="m0 0v107.57" fill="none" stroke="#fff" stroke-width="1.46"/></g><g transform="translate(392.42 573.54)"><path d="m0 0v107.57" fill="none" stroke="#fff" stroke-width="1.46"/></g><g transform="translate(497.76 546.46)"><path d="m0 0h37.163" fill="none" stroke="#ffd046" stroke-width="1.46"/></g><g transform="translate(534.92 544.27)"><path d="m0 0h-37.163" fill="none" stroke="#ffd046" stroke-width="1.46"/></g><g transform="translate(356.58 552.77)"><path d="m0 0h-4.639v-1.138l-3.194 1.881 3.194 1.751v-1.051h4.639z"/></g><g transform="translate(348.74 537.89)"><path d="m0 0h4.638v1.138l3.195-1.881-3.195-1.751v1.051h-4.638z"/></g><g transform="translate(528.31 552.77)"><path d="m0 0h-4.638v-1.138l-3.195 1.881 3.195 1.751v-1.051h4.638z"/></g><g transform="translate(520.48 537.89)"><path d="m0 0h4.638v1.138l3.195-1.881-3.195-1.751v1.051h-4.638z"/></g><g transform="translate(462.81 667.03)"><path d="m0 0v4.638h-1.138l1.88 3.195 1.751-3.195h-1.051v-4.638z"/></g><g transform="translate(477.13 667.03)"><path d="m0 0v4.638h-1.138l1.881 3.195 1.751-3.195h-1.052v-4.638z"/></g><g transform="translate(414.86 674.86)"><path d="m0 0v-4.638h1.138l-1.88-3.195-1.751 3.195h1.051v4.638z"/></g><g transform="translate(400.55 674.86)"><path d="m0 0v-4.638h1.138l-1.881-3.195-1.751 3.195h1.051v4.638z"/></g><g transform="translate(462.81 415.4)"><path d="m0 0v4.638h-1.138l1.88 3.195 1.751-3.195h-1.051v-4.638z"/></g><g transform="translate(477.13 415.4)"><path d="m0 0v4.638h-1.138l1.881 3.195 1.751-3.195h-1.052v-4.638z"/></g><g transform="translate(414.86 423.23)"><path d="m0 0v-4.638h1.138l-1.88-3.195-1.751 3.195h1.051v4.638z"/></g><g transform="translate(400.55 423.23)"><path d="m0 0v-4.638h1.138l-1.881-3.195-1.751 3.195h1.051v4.638z"/></g><g transform="translate(420.86 573.54)"><path d="m0 0v41.763" fill="none" stroke="#fff" stroke-width="1.46"/></g><g transform="translate(456.59 479.51)"><path d="m0 0-2e-3 37.559" fill="none" stroke="#fff" stroke-width="1.46"/></g><g transform="translate(446.19 502.75)"><path d="m0 0c1.17 1.051 2.336 2.068 3.507 3.119-0.262-0.909-0.523-1.82-0.783-2.728 0.26-8e-3 0.521-0.014 0.783-0.022 2.318-0.17 3.553-1.393 3.891-3.49v-3.51h-1.163v2.346c-0.257 1.637-1.081 2.644-2.728 2.729h-0.783c0.132-0.909 0.268-1.819 0.4-2.729-1.042 1.417-2.08 2.868-3.124 4.285" fill="#fff" fill-rule="evenodd"/></g><g transform="translate(431.81 587.85)"><path d="m0 0c-1.169-1.051-2.335-2.069-3.506-3.12 0.261 0.91 0.523 1.821 0.783 2.729-0.26 8e-3 -0.522 0.014-0.783 0.022-2.318 0.17-3.553 1.393-3.892 3.49v3.51h1.164v-2.346c0.257-1.637 1.081-2.644 2.728-2.729h0.783c-0.132 0.909-0.268 1.819-0.4 2.729 1.042-1.418 2.08-2.868 3.123-4.285" fill="#fff" fill-rule="evenodd"/></g><g transform="translate(421.23 681.11)"><path d="m0 0v-23.438l14.261-39.569v-44.567" fill="none" stroke="#ffd046" stroke-width="1.46"/></g><g transform="translate(379.04 544.27)"><path d="m0 0h-36.447" fill="none" stroke="#ffd046" stroke-width="1.46"/></g><g transform="translate(342.6 546.46)"><path d="m0 0h36.447" fill="none" stroke="#ffd046" stroke-width="1.46"/></g><g transform="translate(499.22 547.19)"><path d="m0 0v15.804" fill="none" stroke="#fff" stroke-width="2.92"/></g><g transform="translate(377.54 528.47)"><path d="m0 0v15.803" fill="none" stroke="#fff" stroke-width="2.92"/></g><g transform="translate(452.09 681.11)"><path d="m0 0v-106.24c0-3.326-2.696-6.023-6.022-6.023-3.327 0-6.023 2.697-6.023 6.023" fill="none" stroke="#000" stroke-width=".75"/></g><g transform="translate(534.92 560.17)"><path d="m0 0h-32.367c-7.353 0-13.313 5.96-13.313 13.313v107.63" fill="none" stroke="#000" stroke-width=".75"/></g><g transform="translate(489.24 411.03)"><path d="m0 0v106.22c0 7.353 5.96 13.313 13.313 13.313h32.367" fill="none" stroke="#000" stroke-width=".75"/></g><g transform="translate(425.36 411.03)"><path d="m0 0v106.06c0 3.326 2.696 6.023 6.022 6.023h0.371c3.326 0 6.022-2.697 6.022-6.023v-45.731l14.314-35.41v-24.918" fill="none" stroke="#000" stroke-width=".75"/></g><g transform="translate(342.6 530.56)"><path d="m0 0h32.012c7.352 0 13.312-5.96 13.312-13.313v-106.22" fill="none" stroke="#000" stroke-width=".75"/></g><g transform="translate(387.92 681.11)"><path d="m0 0v-107.63c0-7.352-5.96-13.312-13.313-13.312h-32.011" fill="none" stroke="#000" stroke-width=".75"/></g><g transform="translate(440.04 574.88)"><path d="m0 0v43.231l-14.314 39.569v23.438" fill="none" stroke="#000" stroke-width=".75"/></g><g transform="translate(449.31 508.18)"><path d="m0 0c0 32.963-21.922 44.411-40.127 44.411h-13.535" fill="none" stroke="#005a9c" stroke-width="1.46"/></g><g transform="translate(397.25 558.05)"><path d="m0 0-9.455-5.46 9.455-5.46z" fill="#005a9c"/></g><g transform="translate(429.41 582.38)"><path d="m0 0c0-32.951 21.915-44.396 40.115-44.396h13.193" fill="none" stroke="#005a9c" stroke-width="1.46"/></g><g transform="translate(481.12 532.52)"><path d="M 0,0 9.456,5.46 0,10.92 Z" fill="#005a9c"/></g><g transform="translate(320.78 578.93)"><path d="m0 0v78.92l-3.111-21.215 0.282-3.677 2.263 1.98" stroke="#000"/></g><g transform="translate(323.88 626.47)"><path d="m0 0h2.665v-22.176h-3.09l-10.348 17.914h-0.056v-17.914h-2.665v22.176h3.259l10.177-17.913h0.058z"/></g></g></g></svg>
