<?xml version="1.0" encoding="UTF-8"?>
<svg width="521.76" height="538.87" version="1.1" viewBox="0 0 521.76 538.87" xml:space="preserve" xmlns="http://www.w3.org/2000/svg"><defs><clipPath id="f"><path d="m21.6 297.75h523v447.25h-523z"/></clipPath><clipPath id="e"><path d="m21.6 297.75h523v447.25h-523z"/></clipPath><clipPath id="d"><path d="m21.6 297.75h523v447.25h-523z"/></clipPath><clipPath id="c"><path d="m21.6 297.75h523v447.25h-523z"/></clipPath><clipPath id="b"><path d="m21.6 297.75h523v447.25h-523z"/></clipPath><clipPath id="a"><path d="m21.6 297.75h523v447.25h-523z"/></clipPath></defs><g transform="matrix(1.3333 0 0 -1.3333 -110.22 954.79)"><text transform="matrix(1 0 0 -1 176.77 709.29)" fill="black" font-family="Helvetica" font-size="9.5px" font-weight="bold"><tspan x="0 6.8590002 9.5 14.782 17.423 24.282 26.923 32.727501 38.532001 41.695499 44.336498 46.977501 52.259499 58.063999 63.346001 65.987 71.791496 77.596001 80.237 85.518997 91.323502 97.127998 102.41 107.692 113.4965 116.66 119.301 125.1055 130.91 136.192 138.83299 141.474 145.16949 150.974 156.256 162.0605 164.70151 167.86501 170.506 173.147 178.429 184.23351 189.5155 192.15649 197.43851 203.243 209.0475" y="0">B – Right lane on conventional road - lane ends</tspan></text><g transform="translate(181.47 312.96)"><path d="m0 0v385.66h55.562v-57.255l19.458-41.212v-287.2z" fill="#b1b4b6"/></g><g transform="translate(244.49 609.97)"><path d="m0 0-14.32 30.03v-30.03z" fill="#b1b4b6"/></g><text transform="matrix(1 0 0 -1 311.54 372.07)" fill="black" font-family="Helvetica" font-size="9px"><tspan x="0 8.4960003 13.5 16.497 21.500999" y="0">W4-2R</tspan></text><g transform="translate(229.67 698.63)"><path d="m0 0v-385.66" fill="none" stroke="#b1b4b6" stroke-miterlimit="10" stroke-width="2"/></g><g clip-path="url(#f)"><g transform="translate(220.04 698.63)"><path d="m0 0v-385.66" fill="none" stroke="#b1b4b6" stroke-miterlimit="10" stroke-width="17.279"/></g><g transform="translate(239.31 618.62)"><path d="m0 0v-305.65" fill="none" stroke="#b1b4b6" stroke-miterlimit="10" stroke-width="17.279"/></g></g><g transform="translate(233.72 698.63)"><path d="m0 0v-57.255l19.279-41.212v-287.2" fill="none" stroke="#b1b4b6" stroke-miterlimit="10" stroke-width="6"/></g><g transform="translate(248.95 312.96)"><path d="m0 0v287.2l-19.28 41.212v57.255" fill="none" stroke="#fff" stroke-miterlimit="10" stroke-width="2"/></g><g transform="translate(237.04 698.63)"><path d="m0 0v-57.255l19.458-41.212v-287.2" fill="none" stroke="#000" stroke-miterlimit="10"/></g><g transform="translate(234.31 492.9)"><path d="m0 0 3.38-20.853 0.3 6.65 4.688-12.347 1.647 3.838-4.511 12.216 1.278 3.963z" fill="#fff" fill-rule="evenodd"/></g><g transform="translate(234.31 420.21)"><path d="m0 0 3.38-20.853 0.3 6.65 4.688-12.347 1.647 3.838-4.511 12.216 1.278 3.962z" fill="#fff" fill-rule="evenodd"/></g><g transform="translate(234.31 565.59)"><path d="m0 0 3.38-20.853 0.3 6.65 4.688-12.347 1.647 3.838-4.511 12.216 1.278 3.963z" fill="#fff" fill-rule="evenodd"/></g><g transform="translate(210.39 698.63)"><path d="m0 0v-385.66" fill="none" stroke="#ffd046" stroke-miterlimit="10" stroke-width="2"/></g><g transform="translate(207.39 698.63)"><path d="m0 0v-385.66" fill="none" stroke="#ffd046" stroke-miterlimit="10" stroke-width="2"/></g><g clip-path="url(#e)"><g transform="translate(325.54 381.68)"><path d="m0 0c-0.695 0-1.349 0.271-1.841 0.762l-24.522 24.523c-0.491 0.491-0.762 1.145-0.762 1.84s0.271 1.349 0.763 1.84l24.521 24.523c0.492 0.491 1.146 0.762 1.841 0.762s1.349-0.271 1.84-0.762l24.523-24.523c0.491-0.491 0.762-1.145 0.762-1.84s-0.271-1.349-0.763-1.84l-24.521-24.523c-0.492-0.491-1.146-0.762-1.841-0.762" fill="#ffd046"/></g><g transform="translate(325.54 436.06)"><path d="m0 0c-0.728 0-1.413-0.284-1.928-0.799l-24.523-24.523c-0.515-0.515-0.799-1.2-0.799-1.928s0.284-1.413 0.799-1.928l24.523-24.523c0.515-0.515 1.2-0.799 1.928-0.799s1.413 0.284 1.928 0.799l24.523 24.523c1.064 1.063 1.064 2.793 0 3.856l-24.523 24.523c-0.515 0.515-1.2 0.799-1.928 0.799m0-0.25c0.634 0 1.268-0.242 1.752-0.726l24.522-24.522c0.968-0.968 0.968-2.536 0-3.504l-24.522-24.522c-0.484-0.484-1.118-0.726-1.752-0.726s-1.268 0.242-1.752 0.726l-24.522 24.522c-0.968 0.968-0.968 2.536 0 3.504l24.522 24.522c0.484 0.484 1.118 0.726 1.752 0.726"/></g><g transform="translate(326.85 382.97)"><path d="m0 0c-0.724-0.724-6.903 2.276-2.627 0l-24.523 24.523c-5.725 3.724-0.725 1.903 0 2.627l24.523 24.523c0.724 0.724 1.903 0.724 2.627 0l24.523-24.523c0.724-0.724 0.724-1.903 0-2.627z"/></g><g transform="translate(326.12 383.7)"><path d="m0 0c-0.322-0.322-0.846-0.322-1.168 0l-24.523 24.523c-0.322 0.322-0.322 0.846 0 1.168l24.523 24.522c0.322 0.322 0.846 0.322 1.168 0l24.523-24.522c0.322-0.322 0.322-0.846 0-1.168z" fill="#ffd046"/></g><g><path d="m320.01 395.6h-4.438v26.423h4.438z"/><path d="m328.53 395.6h-1.961v3.303h1.961z"/><path d="m328.53 405.5h-1.961v3.303h1.961z"/><path d="m328.53 400.55h-1.961v3.303h1.961z"/></g><g transform="translate(335.5 395.59)"><path d="m0 0v15.05l-4.49 4.49v6.883h-4.438v-8.721l4.49-4.49v-13.212z"/></g><g transform="translate(271.87 378.49)"><path d="m0 0h12.437" fill="none" stroke="#000" stroke-width=".75"/></g><g transform="translate(258.75 600.16)"><path d="m0 0h25.56" fill="none" stroke="#000" stroke-width=".75"/></g><g transform="translate(278.31 381.81)"><path d="m0 0v215.03" fill="none" stroke="#000" stroke-width=".75"/></g><g transform="translate(279.4 382.55)"><path d="m0 0-1.089-4.065-1.09 4.065z"/></g><g transform="translate(279.4 596.09)"><path d="m0 0-1.089 4.065-1.09-4.065z"/></g><g transform="translate(312.45 392.08)"><path d="m0 0c-17.84-17.84-46.759-48.045-46.759-19.311v0.267" fill="none" stroke="#000" stroke-width=".75"/></g><g transform="translate(263.38 379.24)"><path d="m0 0-1e-3 1.245 4.796 3e-3 1e-3 -1.245 1.759 1e-3 1e-3 -1.761-4.238-2e-3 -4.236-3e-3 -1e-3 1.761z"/></g><g transform="translate(266.24 375.16)"><path d="m0 0c0.263-0.868 0.505-1.432 0.784-2.128l-2.648-2e-3c0.118 0.249 0.521 1.261 0.782 2.129 0.28 0.929 0.472 1.772 0.54 2.318 0.068-0.546 0.261-1.388 0.542-2.317"/></g><g transform="translate(219.11 317.8)"><path d="m0 0v6.353h-1.559l2.577 4.377 2.398-4.377h-1.439v-6.353z"/></g><g transform="translate(199.31 328.53)"><path d="m0 0v-6.354h1.559l-2.577-4.376-2.398 4.376h1.439v6.354z"/></g><g transform="translate(219.11 684.77)"><path d="m0 0v6.354h-1.559l2.577 4.376 2.398-4.376h-1.439v-6.354z"/></g><g transform="translate(199.17 695.5)"><path d="m0 0v-6.353h1.559l-2.577-4.377-2.398 4.377h1.439v6.353z"/><path d="m0 0v-6.353h1.559l-2.577-4.377-2.398 4.377h1.439v6.353z"/></g><g transform="translate(237.12 317.8)"><path d="m0 0v6.353h-1.559l2.577 4.377 2.398-4.377h-1.439v-6.353z"/></g></g><text transform="matrix(1 0 0 -1 406.28 356.49)" fill="black" font-family="Helvetica" font-size="9px"><tspan x="0 8.4960003 13.5 16.497 21.500999 27.999001 30.500999 33.498001 38.501999 43.506001 46.007999 48.006001 53.009998 58.014 63.018002 65.015999" y="0">W9-1R (optional)</tspan></text><g clip-path="url(#d)"><g transform="translate(361.08 344.62)"><path d="m0 0c-30.822-30.822-95.383-44.37-95.383-19.074v0.266" fill="none" stroke="#000" stroke-width=".75"/></g></g><g transform="translate(263.38 332.01)"><path d="m0 0-1e-3 1.245 4.796 4e-3 1e-3 -1.246 1.759 2e-3 1e-3 -1.761-8.474-6e-3 -1e-3 1.761z"/></g><g clip-path="url(#c)"><g transform="translate(266.24 327.94)"><path d="m0 0c0.263-0.868 0.505-1.432 0.785-2.128l-2.649-2e-3c0.118 0.249 0.521 1.261 0.782 2.129 0.28 0.929 0.471 1.772 0.539 2.318 0.069-0.546 0.262-1.389 0.543-2.317"/></g></g><text transform="matrix(1 0 0 -1 391.61 318.95)" fill="black" font-family="Helvetica" font-size="9px"><tspan x="0 8.4960003 13.5 18.504 21.500999 26.504999 32.349602 34.851601 37.848598 42.8526 47.856602 50.358601 52.356602 57.3606 62.364601 67.368599 69.3666" y="0">W16-2P (optional)</tspan></text><g clip-path="url(#b)"><g transform="translate(376.19 332.87)"><path d="m0 0c-0.695 0-1.349 0.271-1.841 0.762l-24.522 24.522c-0.491 0.492-0.762 1.146-0.762 1.841s0.271 1.349 0.763 1.84l24.521 24.523c0.492 0.491 1.146 0.762 1.841 0.762s1.349-0.271 1.84-0.762l24.523-24.523c1.014-1.015 1.014-2.665 0-3.68l-24.523-24.523c-0.491-0.491-1.145-0.762-1.84-0.762" fill="#ffd046"/></g><g transform="translate(376.19 387.25)"><path d="m0 0c-0.728 0-1.413-0.284-1.928-0.799l-24.523-24.523c-0.515-0.515-0.799-1.2-0.799-1.928s0.284-1.413 0.799-1.928l24.523-24.523c0.515-0.515 1.2-0.799 1.928-0.799s1.413 0.284 1.928 0.799l24.523 24.523c1.064 1.063 1.064 2.793 0 3.856l-24.523 24.523c-0.515 0.515-1.2 0.799-1.928 0.799m0-0.25c0.634 0 1.268-0.242 1.752-0.726l24.522-24.522c0.968-0.968 0.968-2.536 0-3.504l-24.522-24.522c-0.484-0.484-1.118-0.726-1.752-0.726s-1.268 0.242-1.752 0.726l-24.522 24.522c-0.968 0.968-0.968 2.536 0 3.504l24.522 24.522c0.484 0.484 1.118 0.726 1.752 0.726"/></g><g transform="translate(350.4 358.73)"><path d="m0 0c-0.698 0.698-0.698 1.833 0 2.53l24.523 24.523c0.697 0.698 1.832 0.698 2.53 0l24.523-24.523c0.697-0.697 0.697-1.832 0-2.53l-24.523-24.523c-0.698-0.697-1.833-0.697-2.53 0z"/></g><g transform="translate(351.08 359.42)"><path d="m0 0c-0.322 0.322-0.322 0.846 0 1.168l24.523 24.523c0.322 0.322 0.846 0.322 1.168 0l24.522-24.523c0.322-0.322 0.322-0.846 0-1.168l-24.522-24.523c-0.322-0.322-0.846-0.322-1.168 0z" fill="#ffd046"/></g><g transform="translate(366.71 369.44)"><path d="m0 0c0.829 0 0.959 0.598 0.959 0.811 0 0.288-0.215 0.812-0.909 0.812h-1.362v-1.623zm-1.312-1.065v-2.875h-1.042v6.605h2.39c1.514 0 1.968-1.211 1.968-1.855 0-0.245-0.091-1.211-1.026-1.654l1.165-3.096h-1.136l-1.066 2.875z"/></g><path d="m369.97 372.11h1.057v-6.606h-1.057z"/><g transform="translate(374.88 372.22)"><path d="m0 0c1.059 0 1.655-0.401 2.102-1.46l-0.996-0.393c-0.279 0.58-0.556 0.788-1.066 0.788-1.452 0-1.369-2.21-1.369-2.364 0-0.249-0.056-2.341 1.229-2.341 0.672 0 1.159 0.417 1.159 1.02v0.277h-1.205v1.044h2.247v-1.321c0-1.205-0.88-2.086-2.086-2.086-0.24 0-2.41-0.198-2.41 3.418 0 0.507 0.029 3.418 2.395 3.418"/></g><g transform="translate(381.89 368.38)"><path d="m0 0h-2.412v-2.874h-1.042v6.605h1.042v-2.665h2.411v2.665h1.044v-6.605h-1.043z"/></g><g transform="translate(386.48 365.5)"><path d="m0 0h-1.048v5.678h-1.512v0.928h4.097v-0.928h-1.537z"/></g><g transform="translate(365.55 362.2)"><path d="m0 0h1.042v-5.632h3.055v-0.974h-4.097z"/></g><g transform="translate(372.18 358.52)"><path d="m0 0h1.329l-0.654 1.854zm1.701-1.066h-2.074l-0.653-1.855h-1.119l2.285 6.606h1.049l2.284-6.606h-1.119z"/></g><g transform="translate(377.69 360.07)"><path d="m0 0v-4.473h-1.042v6.606h1.042l2.411-4.219v4.219h1.044v-6.606h-0.928z"/></g><g transform="translate(382.73 362.2)"><path d="m0 0h3.889v-1.043h-2.847v-1.622h1.922v-1.066h-1.922v-1.809h3.055v-1.066h-4.097z"/></g><g transform="translate(365.54 352.29)"><path d="m0 0h3.889v-1.043h-2.847v-1.622h1.921v-1.066h-1.921v-1.809h3.055v-1.066h-4.097z"/></g><g transform="translate(371.81 350.16)"><path d="m0 0v-4.473h-1.042v6.606h1.042l2.411-4.219v4.219h1.044v-6.606h-0.928z"/></g><g transform="translate(379.07 351.25)"><path d="m0 0h-1.182v-4.496h1.109c0.961 0 1.276 1.164 1.276 2.408 0 0.591-0.168 2.088-1.203 2.088m-2.224-5.563v6.606h2.383c1.667 0 2.113-2.196 2.113-3.154 0-2.478-1.274-3.452-2.109-3.452z"/></g><g transform="translate(382.33 347.24)"><path d="m0 0 0.997 0.371c0.278-0.626 0.787-0.974 1.413-0.974 0.603 0 1.021 0.417 1.021 0.974 0 0.883-1.02 1.02-1.878 1.367-0.394 0.163-1.275 0.557-1.275 1.646 0 1.299 0.88 1.783 2.063 1.783 0.927 0 1.553-0.533 1.877-1.344l-0.927-0.278c-0.104 0.261-0.481 0.579-0.973 0.579-0.942 0-1.022-0.502-1.022-0.668 0-0.617 0.532-0.739 1.398-1.011 0.882-0.277 1.803-0.683 1.803-2.099 0-1.426-1.156-2.015-2.087-2.015-1.136 0-1.97 0.672-2.41 1.669"/></g><g transform="translate(364.63 312.82)"><path d="m0 0c-0.979 0-1.776 0.797-1.776 1.775v16.514c0 0.98 0.797 1.776 1.776 1.776h23.118c0.98 0 1.777-0.796 1.777-1.776v-16.514c0-0.978-0.797-1.775-1.777-1.775z" fill="#ffd046"/></g><g transform="translate(387.75 333.01)"><path d="m0 0h-23.118c-1.049 0-1.902-0.853-1.902-1.901v-16.514c0-1.048 0.853-1.901 1.902-1.901h23.118c1.048 0 1.901 0.853 1.901 1.901v16.514c0 1.048-0.853 1.901-1.901 1.901m0-0.25c0.908 0 1.651-0.743 1.651-1.651v-16.514c0-0.908-0.743-1.651-1.651-1.651h-23.118c-0.909 0-1.652 0.743-1.652 1.651v16.514c0 0.908 0.743 1.651 1.652 1.651z"/></g><g transform="translate(364.63 313.35)"><path d="m0 0c-0.683 0-1.238 0.556-1.238 1.238v16.514c0 0.683 0.555 1.238 1.238 1.238h23.118c0.683 0 1.239-0.555 1.239-1.238v-16.514c0-0.682-0.556-1.238-1.239-1.238z"/></g><g transform="translate(364.63 314.04)"><path d="m0 0c-0.303 0-0.55 0.247-0.55 0.55v16.514c0 0.303 0.247 0.55 0.55 0.55h23.118c0.304 0 0.551-0.247 0.551-0.55v-16.514c0-0.303-0.247-0.55-0.551-0.55z" fill="#ffd046"/></g><g transform="translate(369.13 319.53)"><path d="m0 0h1.601v-0.888h-1.601v-2.395h-0.868v5.504h3.414v-0.869h-2.546z"/></g><g transform="translate(372.5 321.75)"><path d="m0 0h3.241v-0.869h-2.373v-1.352h1.601v-0.888h-1.601v-1.507h2.546v-0.888h-3.414z"/></g><g transform="translate(376.85 321.75)"><path d="m0 0h3.241v-0.869h-2.373v-1.352h1.601v-0.888h-1.601v-1.507h2.546v-0.888h-3.414z"/></g><g transform="translate(382.84 316.24)"><path d="m0 0h-0.873v4.732h-1.261v0.772h3.414v-0.772h-1.28z"/></g><g transform="translate(368.42 328.41)"><path d="m0 0h-0.497v0.696h0.057c0.229 0 0.479 0.134 0.631 0.347h0.688v-5.504h-0.879z"/></g><g transform="translate(372.48 324.74)"><path d="m0 0c0.593 0 1.075 0.562 1.075 1.961s-0.482 1.961-1.075 1.961-1.075-0.562-1.075-1.961 0.482-1.961 1.075-1.961m1.946 1.961c0-0.198 0.042-2.849-1.956-2.849-1.997 0-1.955 2.651-1.955 2.849 0 0.197-0.042 2.848 1.955 2.848 1.998 0 1.956-2.651 1.956-2.848"/></g><g transform="translate(377.49 324.74)"><path d="m0 0c0.593 0 1.075 0.562 1.075 1.961s-0.482 1.961-1.075 1.961-1.075-0.562-1.075-1.961 0.482-1.961 1.075-1.961m1.946 1.961c0-0.198 0.042-2.849-1.956-2.849-1.997 0-1.955 2.651-1.955 2.849 0 0.197-0.042 2.848 1.955 2.848 1.998 0 1.956-2.651 1.956-2.848"/></g><g transform="translate(382.5 324.74)"><path d="m0 0c0.593 0 1.075 0.562 1.075 1.961s-0.482 1.961-1.075 1.961-1.075-0.562-1.075-1.961 0.482-1.961 1.075-1.961m1.946 1.961c0-0.198 0.042-2.849-1.956-2.849-1.997 0-1.955 2.651-1.955 2.849 0 0.197-0.042 2.848 1.955 2.848 1.998 0 1.956-2.651 1.956-2.848"/></g><g transform="translate(127.55 590.89)"><path d="m0 0v78.92l-3.111-21.215 0.282-3.677 2.263 1.98" stroke="#000"/></g><g transform="translate(130.65 638.44)"><path d="m0 0h2.665v-22.176h-3.09l-10.348 17.914h-0.056v-17.914h-2.665v22.176h3.259l10.177-17.913h0.058z"/></g><g transform="translate(82.668 552.1)"><path d="m0 0h6.354v1.559l4.376-2.577-4.376-2.398v1.439h-6.354z"/></g><g transform="translate(105.66 560.29)"><path d="m0 0h29.291" fill="none" stroke="#000" stroke-width=".75"/></g></g><g fill="black" font-family="Helvetica"><text transform="matrix(1 0 0 -1 105.25 563.18)" font-size="9px"><tspan x="0 5.0040002 10.008 15.012 20.016001 25.02" y="0">Legend</tspan><tspan x="-7.4790001 -0.98100001 1.017 4.0139999 9.0179996 13.518 16.02 18.018 23.021999 28.025999 30.528 35.532001 38.034 40.535999 43.037998 46.035 51.039001 55.539001 60.542999" y="15.354">Direction of travel</tspan></text><text transform="matrix(1 0 0 -1 281.38 491.01)" font-size="8px"><tspan x="0 5.336 9.7840004 14.232 16.316799 20.316799 24.764799 29.212799 30.9888 35.436798 37.660801 42.108799 47.8848 50.548801 54.996799 57.220798 59.444801 63.892799 66.116798 70.564796 75.012802 77.236801 81.684799 84.348801 91.012802 92.788803 97.236801 101.6848 103.9088 106.1328 110.5808 115.0288" y="0">See Table 2C-3 to determine the </tspan><tspan x="0 4.448 8.8959999 12.896 17.344 21.792 25.792 30.24 32.464001 36.911999 41.360001 45.360001 49.807999 56.472 60.919998 65.367996 67.592003 69.816002 74.264 76.040001 80.040001 82.264 86.711998 91.160004 95.160004" y="9">advance pacement distance</tspan></text><text transform="matrix(1 0 0 -1 380.5 628.09)" font-size="8px"><tspan x="0 5.776 10.224 12.448 16.896 19.120001 24 29.336 33.784 38.231998 40.456001 45.792 50.240002 54.240002 56.464001 58.240002 62.688 67.136002 69.360001 73.807999 79.143997 81.367996 85.816002 90.264" y="0">Note: See Section 3B.12 </tspan><tspan x="24 26.224001 30.672001 33.335999 35.560001 37.335999 41.784 46.231998 50.68 53.344002 56.007999 60.456001 64.903999 69.351997 73.351997 75.575996 77.351997 81.800003 86.248001" y="8.4960003">for lane-reduction </tspan><tspan x="24 28.448 32.896 36.896 41.344002 48.007999 52.456001 56.903999 59.127998 61.352001 68.015999 72.463997 75.127998 79.127998 80.903999 85.351997 89.800003" y="16.992001">pavement markings</tspan></text></g><g transform="translate(229.67 341.56)"><path d="m0 0v-28.596" fill="none" stroke="#fff" stroke-dasharray="14.4, 43.2" stroke-width="2"/></g><g transform="translate(229.67 420.21)"><path d="m0 0v-69.464" fill="none" stroke="#fff" stroke-dasharray="14, 43" stroke-width="2"/></g><g transform="translate(229.68 600.16)"><path d="m0 0v-179.05" fill="none" stroke="#fff" stroke-dasharray="4, 12.3" stroke-width="2"/></g><g transform="translate(181.47 698.63)"><path d="m0 0v-385.66" fill="none" stroke="#000" stroke-miterlimit="10"/></g><g transform="translate(189.11 698.63)"><path d="m0 0v-385.66" fill="none" stroke="#fff" stroke-miterlimit="10" stroke-width="2"/></g><g transform="translate(225.67 453.23)"><path d="m0 0-52.312 25.132" fill="none" stroke="#000" stroke-width=".75"/></g><g clip-path="url(#a)"><g transform="translate(227.82 452.79)"><path d="m0 0c-0.669 0.613-1.073 1.075-1.58 1.628l-1.147-2.387c0.276-2e-3 1.363-0.076 2.258-0.216 0.959-0.15 1.802-0.341 2.323-0.516-0.462 0.298-1.138 0.836-1.854 1.491"/></g></g><text transform="matrix(1 0 0 -1 109.6 476.4)" fill="black" font-family="Helvetica" font-size="9px"><tspan x="0 7.0019999 12.006 14.508 16.506001 21.51 26.514 31.518 33.515999 36.018002 41.021999 46.026001 48.528 51.029999 56.034" y="0">Optional dotted</tspan><tspan x="27.521999 29.52 34.523998 39.528 44.532001 47.034 49.032001 51.029999 56.034" y="9.5039997">lane line</tspan></text><g transform="translate(260.82 349.26)" fill="none" stroke-miterlimit="10"><path d="m0 0h-27.1l-6.367-6.367-12.731 12.73-6.367-6.367h-34.898" stroke="#000" stroke-width="5.5"/><path d="m0 0h-27.1l-6.367-6.367-12.731 12.73-6.367-6.367h-34.898" stroke="#fff" stroke-width="4"/></g></g></svg>
