<?xml version="1.0" encoding="UTF-8"?>
<svg width="672.23" height="958.3" version="1.1" viewBox="0 0 672.23 958.3" xml:space="preserve" xmlns="http://www.w3.org/2000/svg"><defs><clipPath id="h"><path d="m57.466 0h524.07v747h-524.07z"/></clipPath><clipPath id="g"><path d="m399.79 215.43h16.076v6.311h-16.076z"/></clipPath><clipPath id="f"><path d="m400.04 215.68h15.576v5.811h-15.576z"/></clipPath><clipPath id="e"><path d="m57.466 0h524.07v747h-524.07z"/></clipPath><clipPath id="d"><path d="m57.466 0h524.07v747h-524.07z"/></clipPath><clipPath id="c"><path d="m57.466 0h524.07v747h-524.07z"/></clipPath><clipPath id="b"><path d="m57.466 0h524.07v747h-524.07z"/></clipPath><clipPath id="a"><path d="m57.466 0h524.07v747h-524.07z"/></clipPath></defs><g transform="matrix(1.3333 0 0 -1.3333 -94.051 958.3)"><g clip-path="url(#h)"><g transform="translate(470.82 695.26)"><path d="m0 0v-92.168c0.17-14.092-3.842-37.091-8.143-53.209-4.094-15.325-4.023-15.184-8.41-30.9-2-7.169-5.641-11.307-7.936-11.014s-4.86 2.342-4.86 12.715c-1e-3 104.49-3e-3 171.99-3e-3 174.58h-46.873v-651.26h64.927v110.91l19.281 69.62v190.64c0 27.062 16.226 69.155 26.613 84.377 10.386 15.221 68.794 67.622 68.794 100.44v95.274z" fill="#b1b4b6"/></g><g transform="translate(250.95 594.81)"><path d="m0 0-0.938 1.152-35.015-28.481 0.969-1.189c18.042-22.132 20.131-30.82 20.297-31.63v-64.401c0-11.238-9.35-26.647-23.502-49.971l-0.179-0.294c-1.211-1.996-2.447-4.034-3.704-6.114-10.963-18.142-25.787-46.274-40.32-78.786l-3e-3 -7e-3c-3.975-8.322-9.284-12.905-14.811-12.905h-2e-3c-2.973 0-5.839 1.303-8.289 3.766-3.396 3.416-5.448 8.547-5.538 13.806l-8e-3 1e-3v355.51h-46.873v-651.26h64.914v69.174c1.878 27.364 5.909 65.171 11.602 89.39 16.647 70.81 55.741 151.2 77.958 187.96 1.306 2.162 2.588 4.275 3.844 6.344 17.444 28.749 30.047 49.52 30.047 73.379v64.634c0 22.564-21.338 48.738-30.449 59.915" fill="#b1b4b6"/></g><g transform="translate(96.626 652.4)"><path d="m0 0h38.063v-420.33h-19.782v-149.65h-18.281z" fill="#6d276a"/></g><g transform="translate(135.19 332.79)"><path d="m0 0v362.47" fill="none" stroke="#fff" stroke-width="2"/></g><g transform="translate(135.47 292.36)"><path d="m0 0v-8.775c2.815-3.849 5.229-7.144 5.497-7.557 1.567 1.021 9.206 5.754 9.829 6.158 0.121 0.366 0.265 0.797 0.265 0.797s1.205 3.631 2.266 6.828c-0.037-0.023-10.906-6.863-10.906-6.863s-3.415 4.594-6.951 9.412" fill="#fff"/></g><g transform="translate(164.33 317.37)"><path d="m0 0c-5.967-3.274-17.49-9.507-17.49-9.507s-5.633 8.865-11.22 17.69v-9.681c4.785-7.552 9.113-14.378 9.376-14.837 1.354 0.779 11.275 6.149 16.681 9.083z" fill="#fff"/></g><g transform="translate(135.19 44.005)"><path d="m0 0v69.952l0.044 0.64c0.939 13.719 4.592 60.981 12.162 93.181 17.248 73.368 57.671 156.53 80.634 194.53 1.312 2.171 2.6 4.294 3.861 6.371 16.108 26.547 26.749 44.084 26.749 61.579v64.635c0 9.596-8.522 24.916-25.329 45.533l-0.961 1.181" fill="none" stroke="#fff" stroke-dasharray="14.4, 43.2" stroke-width="2"/></g><g transform="translate(96.626 44.005)"><path d="m0 0v651.26" fill="none" stroke="#ffd046" stroke-width="2"/></g><g transform="translate(167.46 324.85)"><path d="m0 0c15.694 36.14 32.185 67.698 44.098 87.411 1.256 2.079 2.49 4.114 3.701 6.109l0.178 0.293c14.425 23.775 23.956 39.481 23.956 51.593v64.634c-0.027 0.307-0.928 8.749-21 33.371l-0.969 1.189" fill="none" stroke="#ffd046" stroke-miterlimit="10" stroke-width="2"/></g><g transform="translate(136.19 334.41)"><path d="m0 0v-90.636c7.828 25.771 18.109 53.341 30.617 82.087" fill="none" stroke="#fff" stroke-miterlimit="10" stroke-width="4"/></g><path d="m144.38 232.08h-9.696v-4.044h9.696z" fill="#b1b4b6"/><path d="m398.69 652.4h37.063v-444.82h-37.063z" fill="#6d276a"/><g transform="translate(417.47 -8.1819)"><path d="m0 0v703.44" fill="none" stroke="#fff" stroke-dasharray="14.4, 43.2" stroke-width="2"/></g><g transform="translate(436.75 -8.1819)"><path d="m0 0v212.61" fill="none" stroke="#fff" stroke-dasharray="14.4, 43.2" stroke-width="2"/></g><g transform="translate(456.03 337.29)"><path d="m0 0v93.244c0 11.064 3.711 20.357 8.02 33.082" fill="none" stroke="#fff" stroke-width="2"/></g><g transform="translate(499.63 554.55)"><path d="m0 0-35.586-90.932" fill="none" stroke="#fff" stroke-dasharray="4.32, 12.96" stroke-width="2"/></g><g transform="translate(551.44 696.04)"><path d="m0 0v-94.639" fill="none" stroke="#fff" stroke-width="2"/></g><g transform="translate(493.59 695.26)"><path d="m0 0v-93.86" fill="none" stroke="#fff" stroke-width="2"/></g><g transform="translate(532.15 695.26)"><path d="m0 0v-93.858c0.042-16.166-9.184-36.996-9.184-36.996" fill="none" stroke="#fff" stroke-width="2"/></g><g transform="translate(512.87 695.26)"><path d="m0 0v-96.603c0.148-14.407-10.396-36.838-10.396-36.838" fill="none" stroke="#fff" stroke-width="2"/></g><g transform="translate(436.76 320.13)"><path d="m0 0v-112.55" fill="none" stroke="#fff" stroke-dasharray="4.7, 13.3" stroke-width="4"/></g><g transform="translate(456.03 222.16)"><path d="m0 0v106.59" fill="none" stroke="#fff" stroke-dasharray="14.4, 43.2" stroke-width="2"/></g><g clip-path="url(#g)"><g clip-path="url(#f)"><path d="m415.61 215.68h-15.576v5.811h15.576z" fill="#6d276a" fill-rule="evenodd"/></g></g><g transform="translate(403.46 253.05)"><path d="m0 0c-0.49 0-0.687 0.995-0.678 5.554 0.012 4.558 0.188 5.553 0.678 5.553 0.492 0 0.639-0.995 0.639-5.553 0-4.559-0.147-5.554-0.639-5.554m-0.033 13.736c-0.723 0-1.299-1.467-1.315-8.182-0.013-6.714 0.592-8.183 1.315-8.183 0.724 0 1.314 1.469 1.314 8.183 0 6.715-0.59 8.182-1.314 8.182" fill="#fff"/></g><g transform="translate(405.38 250.5)"><path d="m0 0v16.291h0.654l1.309-10.434v10.434h0.654v-16.291h-0.654l-1.309 10.42v-10.42z" fill="#fff"/></g><g transform="translate(408.65 266.79)"><path d="m0 0v-16.285h2.608v2.633h-1.956v13.652z" fill="#fff"/></g><g transform="translate(410.93 266.78)"><path d="m0 0 0.979-9.775v-6.518h0.652v6.518l0.977 9.775h-0.653l-0.65-6.527-0.653 6.527z" fill="#fff"/></g><g transform="translate(422.24 253.05)"><path d="m0 0c-0.49 0-0.687 0.996-0.678 5.555 0.012 4.558 0.188 5.554 0.678 5.554 0.492 0 0.639-0.996 0.639-5.554 0-4.559-0.147-5.555-0.639-5.555m-0.033 13.738c-0.723 0-1.299-1.467-1.315-8.183-0.013-6.715 0.592-8.184 1.315-8.184 0.724 0 1.314 1.469 1.314 8.184 0 6.716-0.59 8.183-1.314 8.183" fill="#fff"/></g><g transform="translate(424.16 250.5)"><path d="m0 0v16.291h0.654l1.309-10.434v10.434h0.654v-16.291h-0.654l-1.309 10.42v-10.42z" fill="#fff"/></g><g transform="translate(427.44 266.79)"><path d="m0 0v-16.285h2.607v2.633h-1.955v13.652z" fill="#fff"/></g><g transform="translate(429.71 266.78)"><path d="m0 0 0.978-9.775v-6.518h0.653v6.518l0.976 9.775h-0.652l-0.65-6.527-0.653 6.527z" fill="#fff"/></g></g><text transform="matrix(1 0 0 -1 335.57 672.08)" fill="black" font-family="Helvetica" font-size="9px"><tspan x="0 7.0019999 12.006 17.01 22.014 25.011 28.007999 33.012001 38.015999" y="0">Open-road</tspan><tspan x="4.5089998 9.5129995 11.511 16.514999 21.014999 23.517 26.514 31.518 36.521999 38.52" y="9.9989996">electronic</tspan><tspan x="-8.4960003 -5.994 -0.99000001 1.008 3.006 5.5079999 10.008 15.012 17.01 19.007999 24.011999 28.511999 31.014 33.012001 38.015999" y="19.997999">toll collection</tspan><tspan x="23.517 28.521 33.525002 35.522999 40.527" y="29.997">point</tspan><tspan x="-181.593 -174.591 -169.58701 -164.58299 -159.57899 -156.582 -153.58501 -148.58099 -143.577" y="3.9968029e-15">Open-road</tspan><tspan x="-181.593 -176.589 -174.591 -169.58701 -165.08701 -162.58501 -159.588 -154.584 -149.58 -147.582" y="9.9989996">electronic</tspan><tspan x="-181.593 -179.091 -174.08701 -172.089 -170.091 -167.589 -163.089 -158.08501 -156.08701 -154.089 -149.08501 -144.58501 -142.08299 -140.08501 -135.08099" y="19.997999">toll collection</tspan><tspan x="-181.593 -176.589 -171.58501 -169.58701 -164.58299" y="29.997">point</tspan></text><text transform="matrix(1 0 0 -1 376.35 711.81)" fill="black" font-family="Helvetica" font-size="9.5px" font-weight="bold"><tspan x="0 6.8590002 9.5 14.782 20.3281 27.719101 33.523602 38.805599 44.6101 47.773602 51.469101 57.273602 62.555599 68.3601 71.001099 76.283096 78.924103 84.2061 89.488098 92.651604 96.347099 102.1516 107.9561 110.5971 115.8791 118.5201 121.6836 127.4881 130.1291 132.7701 135.4111 140.6931 146.4976 149.1386 151.7796 157.0616 162.3436 165.5071 168.1481 173.95261" y="0">C – Open-road electronic toll collection</tspan><tspan x="0 20.32905 26.133551 31.41555 37.220051 42.502048 47.78405 53.066051 55.70705 63.098049 65.739052 68.90255 74.707047 77.348053 83.15255 88.434547 94.239052 96.880051 102.16205 107.44405 110.60755 115.88955 121.69405 124.33505 129.61705 135.42155 141.22604 144.92155 150.72604 156.00806 161.29005 167.09454 169.73555 172.37656 177.65855 183.46304 188.74506" y="10.4975"> bypass with dedicated approach lanes</tspan></text><g clip-path="url(#e)"><g transform="translate(101.4 166.67)"><path d="m0 0c-0.49 0-0.687 0.995-0.678 5.554 0.012 4.558 0.188 5.553 0.678 5.553 0.492 0 0.639-0.995 0.639-5.553 0-4.559-0.147-5.554-0.639-5.554m-0.033 13.736c-0.723 0-1.299-1.466-1.315-8.182-0.013-6.714 0.592-8.183 1.315-8.183 0.724 0 1.314 1.469 1.314 8.183 0 6.716-0.59 8.182-1.314 8.182" fill="#fff"/></g><g transform="translate(103.32 164.12)"><path d="m0 0v16.291h0.654l1.309-10.434v10.434h0.654v-16.291h-0.654l-1.309 10.42v-10.42z" fill="#fff"/></g><g transform="translate(106.59 180.41)"><path d="m0 0v-16.285h2.607v2.633h-1.955v13.652z" fill="#fff"/></g><g transform="translate(108.87 180.39)"><path d="m0 0 0.979-9.775v-6.518h0.652v6.518l0.976 9.775h-0.652l-0.65-6.527-0.653 6.527z" fill="#fff"/></g><g transform="translate(99.563 101.01)"><path d="m0 0h2.607v-2.605h-0.977v-13.685h-0.652v13.685h-0.978z" fill="#fff" fill-rule="evenodd"/></g><g transform="translate(104.17 87.314)"><path d="m0 0c-0.491 0-0.689 0.996-0.678 5.554 0.01 4.556 0.187 5.553 0.678 5.553s0.639-0.997 0.639-5.553c0-4.558-0.148-5.554-0.639-5.554m-0.033 13.735c-0.724 0-1.299-1.468-1.315-8.181-0.014-6.716 0.591-8.184 1.315-8.184 0.723 0 1.314 1.468 1.314 8.184 0 6.713-0.591 8.181-1.314 8.181" fill="#fff" fill-rule="evenodd"/></g><g transform="translate(106.1 101)"><path d="m0 0v-16.284h2.607v2.635h-1.955v13.649z" fill="#fff" fill-rule="evenodd"/></g><g transform="translate(109.36 101)"><path d="m0 0v-16.284h2.608v2.635h-1.956v13.649z" fill="#fff" fill-rule="evenodd"/></g><g transform="translate(107.4 140.78)"><path d="m0 0c1.159 4e-3 1.217-2.113 1.302-3.971-0.223-0.218-0.425-0.435-0.649-0.654-0.04 0.965-0.146 1.953-0.653 1.959-0.506 8e-3 -0.593-0.787-0.654-1.676v-0.635c-2e-3 -1.437 2.003-3.183 1.956-4.377v-2.437c-5e-3 -2.27-0.164-4.676-1.302-4.676-1.137 0-1.143 2.071-1.306 4.024 0.217 0.211 0.436 0.423 0.654 0.634 0.114-1.046 0.193-1.937 0.652-1.939 0.46-4e-3 0.619 0.617 0.65 1.57 0.197 1.678-1.871 3.311-1.956 4.942v2.912c0 2.199 0.147 4.32 1.306 4.324" fill="#fff" fill-rule="evenodd"/></g><g transform="translate(110.66 140.78)"><path d="m0 0c1.159 4e-3 1.216-2.113 1.302-3.971-0.223-0.218-0.426-0.435-0.649-0.654-0.04 0.965-0.146 1.953-0.653 1.959-0.506 8e-3 -0.593-0.787-0.654-1.676v-0.635c-2e-3 -1.437 2.002-3.183 1.956-4.377v-2.437c-5e-3 -2.27-0.164-4.676-1.302-4.676-1.137 0-1.143 2.071-1.306 4.024 0.217 0.211 0.435 0.423 0.654 0.634 0.113-1.046 0.193-1.937 0.652-1.939 0.46-4e-3 0.619 0.617 0.65 1.57 0.197 1.678-1.871 3.311-1.956 4.942v2.912c0 2.199 0.146 4.32 1.306 4.324" fill="#fff" fill-rule="evenodd"/></g><g transform="translate(102.83 124.4)"><path d="m0 0 0.991 16.297h0.638l0.979-16.297h-0.652l-0.153 2.607h-0.973l-0.177-2.607zm0.978 5.215 0.327 5.605 0.335-5.605z" fill="#fff" fill-rule="evenodd"/></g><g transform="translate(100.22 132.87)"><path d="m0 0v5.217c1.09 2e-3 1.304-1.065 1.305-2.609 0-1.546-0.253-2.594-1.305-2.608m-0.65 7.809v-16.284h0.64s0.01 3.918 0.01 5.868c1.682 0.205 1.953 1.847 1.956 5.215 4e-3 3.369-0.826 5.464-2.606 5.201" fill="#fff" fill-rule="evenodd"/></g><g transform="translate(121.68 316.9)"><path d="m0 0c-0.49 0-0.687 0.995-0.678 5.554 0.012 4.558 0.188 5.553 0.678 5.553 0.492 0 0.639-0.995 0.639-5.553 0-4.559-0.147-5.554-0.639-5.554m-0.033 13.736c-0.723 0-1.299-1.466-1.315-8.182-0.013-6.714 0.592-8.183 1.315-8.183 0.724 0 1.314 1.469 1.314 8.183 0 6.716-0.59 8.182-1.314 8.182" fill="#fff"/></g><g transform="translate(123.6 314.34)"><path d="m0 0v16.291h0.654l1.309-10.434v10.434h0.654v-16.291h-0.654l-1.309 10.42v-10.42z" fill="#fff"/></g><g transform="translate(126.88 330.63)"><path d="m0 0v-16.285h2.607v2.633h-1.955v13.652z" fill="#fff"/></g><g transform="translate(129.15 330.62)"><path d="m0 0 0.979-9.775v-6.518h0.652v6.518l0.976 9.775h-0.652l-0.65-6.527-0.653 6.527z" fill="#fff"/></g><g transform="translate(119.84 251.23)"><path d="m0 0h2.607v-2.605h-0.977v-13.685h-0.653v13.685h-0.977z" fill="#fff" fill-rule="evenodd"/></g><g transform="translate(124.45 237.54)"><path d="m0 0c-0.491 0-0.689 0.996-0.678 5.554 0.01 4.556 0.187 5.553 0.678 5.553s0.639-0.997 0.639-5.553c0-4.558-0.148-5.554-0.639-5.554m-0.033 13.735c-0.724 0-1.299-1.468-1.315-8.181-0.014-6.716 0.591-8.184 1.315-8.184 0.723 0 1.314 1.468 1.314 8.184 0 6.713-0.591 8.181-1.314 8.181" fill="#fff" fill-rule="evenodd"/></g><g transform="translate(126.38 251.23)"><path d="m0 0v-16.284h2.607v2.635h-1.955v13.649z" fill="#fff" fill-rule="evenodd"/></g><g transform="translate(129.64 251.23)"><path d="m0 0v-16.284h2.608v2.635h-1.956v13.649z" fill="#fff" fill-rule="evenodd"/></g><g transform="translate(127.68 291.01)"><path d="m0 0c1.159 4e-3 1.217-2.113 1.302-3.971-0.223-0.218-0.425-0.435-0.649-0.654-0.04 0.965-0.146 1.953-0.653 1.959-0.506 8e-3 -0.593-0.787-0.654-1.676v-0.635c-2e-3 -1.437 2.003-3.183 1.956-4.377v-2.437c-5e-3 -2.27-0.164-4.676-1.302-4.676-1.137 0-1.143 2.07-1.306 4.024 0.217 0.211 0.436 0.423 0.654 0.634 0.114-1.046 0.193-1.937 0.652-1.939 0.46-4e-3 0.619 0.617 0.65 1.57 0.197 1.678-1.871 3.311-1.956 4.942v2.912c0 2.199 0.147 4.32 1.306 4.324" fill="#fff" fill-rule="evenodd"/></g><g transform="translate(130.94 291.01)"><path d="m0 0c1.159 4e-3 1.216-2.113 1.302-3.971-0.223-0.218-0.426-0.435-0.649-0.654-0.04 0.965-0.146 1.953-0.653 1.959-0.506 8e-3 -0.593-0.787-0.654-1.676v-0.635c-2e-3 -1.437 2.002-3.183 1.956-4.377v-2.437c-5e-3 -2.27-0.164-4.676-1.302-4.676-1.137 0-1.143 2.07-1.306 4.024 0.217 0.211 0.435 0.423 0.654 0.634 0.113-1.046 0.193-1.937 0.652-1.939 0.46-4e-3 0.619 0.617 0.65 1.57 0.197 1.678-1.871 3.311-1.956 4.942v2.912c0 2.199 0.146 4.32 1.306 4.324" fill="#fff" fill-rule="evenodd"/></g><g transform="translate(123.11 274.62)"><path d="m0 0 0.991 16.297h0.638l0.979-16.297h-0.652l-0.153 2.607h-0.973l-0.177-2.607zm0.978 5.215 0.327 5.605 0.335-5.605z" fill="#fff" fill-rule="evenodd"/></g><g transform="translate(120.5 283.1)"><path d="m0 0v5.217c1.09 2e-3 1.304-1.065 1.305-2.61 0-1.545-0.253-2.593-1.305-2.607m-0.65 7.809v-16.284h0.64s0.01 3.918 0.01 5.868c1.682 0.205 1.953 1.847 1.956 5.214 4e-3 3.37-0.826 5.465-2.606 5.202" fill="#fff" fill-rule="evenodd"/></g><g transform="translate(101.9 631.26)"><path d="m0 0c-0.49 0-0.687 0.995-0.678 5.554 0.012 4.558 0.188 5.553 0.678 5.553 0.492 0 0.639-0.995 0.639-5.553 0-4.559-0.147-5.554-0.639-5.554m-0.033 13.736c-0.723 0-1.299-1.466-1.315-8.182-0.013-6.714 0.592-8.183 1.315-8.183 0.724 0 1.314 1.469 1.314 8.183 0 6.716-0.59 8.182-1.314 8.182" fill="#fff"/></g><g transform="translate(103.82 628.71)"><path d="m0 0v16.291h0.654l1.309-10.434v10.434h0.654v-16.291h-0.654l-1.309 10.42v-10.42z" fill="#fff"/></g><g transform="translate(107.09 645)"><path d="m0 0v-16.285h2.607v2.633h-1.955v13.652z" fill="#fff"/></g><g transform="translate(109.37 644.99)"><path d="m0 0 0.979-9.775v-6.518h0.652v6.518l0.976 9.775h-0.652l-0.65-6.527-0.653 6.527z" fill="#fff"/></g><g transform="translate(100.06 565.6)"><path d="m0 0h2.607v-2.605h-0.977v-13.685h-0.652v13.685h-0.978z" fill="#fff" fill-rule="evenodd"/></g><g transform="translate(104.67 551.91)"><path d="m0 0c-0.491 0-0.689 0.996-0.678 5.554 0.01 4.556 0.187 5.553 0.678 5.553s0.639-0.997 0.639-5.553c0-4.558-0.148-5.554-0.639-5.554m-0.033 13.735c-0.724 0-1.299-1.468-1.315-8.181-0.014-6.716 0.591-8.184 1.315-8.184 0.723 0 1.314 1.468 1.314 8.184 0 6.713-0.591 8.181-1.314 8.181" fill="#fff" fill-rule="evenodd"/></g><g transform="translate(106.6 565.59)"><path d="m0 0v-16.284h2.607v2.635h-1.955v13.649z" fill="#fff" fill-rule="evenodd"/></g><g transform="translate(109.86 565.59)"><path d="m0 0v-16.284h2.608v2.635h-1.956v13.649z" fill="#fff" fill-rule="evenodd"/></g><g transform="translate(107.9 605.37)"><path d="m0 0c1.159 4e-3 1.217-2.113 1.302-3.971-0.223-0.218-0.425-0.435-0.649-0.654-0.04 0.965-0.146 1.953-0.653 1.959-0.506 8e-3 -0.593-0.787-0.654-1.676v-0.635c-2e-3 -1.437 2.003-3.183 1.956-4.377v-2.437c-5e-3 -2.269-0.164-4.676-1.302-4.676-1.137 0-1.143 2.071-1.306 4.024 0.217 0.211 0.436 0.423 0.654 0.634 0.114-1.046 0.193-1.937 0.652-1.939 0.46-4e-3 0.619 0.617 0.65 1.57 0.197 1.678-1.871 3.311-1.956 4.942v2.912c0 2.199 0.147 4.32 1.306 4.324" fill="#fff" fill-rule="evenodd"/></g><g transform="translate(111.16 605.37)"><path d="m0 0c1.159 4e-3 1.216-2.113 1.302-3.971-0.223-0.218-0.426-0.435-0.649-0.654-0.04 0.965-0.146 1.953-0.653 1.959-0.506 8e-3 -0.593-0.787-0.654-1.676v-0.635c-2e-3 -1.437 2.002-3.183 1.956-4.377v-2.437c-5e-3 -2.269-0.164-4.676-1.302-4.676-1.137 0-1.143 2.071-1.306 4.024 0.217 0.211 0.435 0.423 0.654 0.634 0.113-1.046 0.193-1.937 0.652-1.939 0.46-4e-3 0.619 0.617 0.65 1.57 0.197 1.678-1.871 3.311-1.956 4.942v2.912c0 2.199 0.146 4.32 1.306 4.324" fill="#fff" fill-rule="evenodd"/></g><g transform="translate(103.33 588.99)"><path d="m0 0 0.991 16.297h0.638l0.979-16.297h-0.652l-0.153 2.607h-0.973l-0.177-2.607zm0.978 5.215 0.327 5.605 0.335-5.605z" fill="#fff" fill-rule="evenodd"/></g><g transform="translate(100.72 597.46)"><path d="m0 0v5.217c1.09 2e-3 1.304-1.065 1.305-2.61 0-1.545-0.253-2.593-1.305-2.607m-0.65 7.809v-16.284h0.64s0.01 3.918 0.01 5.868c1.682 0.205 1.953 1.847 1.956 5.214 4e-3 3.37-0.826 5.465-2.606 5.202" fill="#fff" fill-rule="evenodd"/></g><g transform="translate(121.18 631.26)"><path d="m0 0c-0.49 0-0.687 0.995-0.678 5.554 0.012 4.558 0.188 5.553 0.678 5.553 0.492 0 0.639-0.995 0.639-5.553 0-4.559-0.147-5.554-0.639-5.554m-0.033 13.736c-0.723 0-1.299-1.466-1.315-8.182-0.013-6.714 0.592-8.183 1.315-8.183 0.724 0 1.314 1.469 1.314 8.183 0 6.716-0.59 8.182-1.314 8.182" fill="#fff"/></g><g transform="translate(123.1 628.71)"><path d="m0 0v16.291h0.654l1.309-10.434v10.434h0.654v-16.291h-0.654l-1.309 10.42v-10.42z" fill="#fff"/></g><g transform="translate(126.38 645)"><path d="m0 0v-16.285h2.607v2.633h-1.955v13.652z" fill="#fff"/></g><g transform="translate(128.65 644.99)"><path d="m0 0 0.979-9.775v-6.518h0.652v6.518l0.976 9.775h-0.652l-0.65-6.527-0.653 6.527z" fill="#fff"/></g><g transform="translate(119.34 565.6)"><path d="m0 0h2.607v-2.605h-0.977v-13.685h-0.653v13.685h-0.977z" fill="#fff" fill-rule="evenodd"/></g><g transform="translate(123.95 551.91)"><path d="m0 0c-0.491 0-0.689 0.996-0.678 5.554 0.01 4.556 0.187 5.553 0.678 5.553s0.639-0.997 0.639-5.553c0-4.558-0.148-5.554-0.639-5.554m-0.033 13.735c-0.724 0-1.299-1.468-1.315-8.181-0.014-6.716 0.591-8.184 1.315-8.184 0.723 0 1.314 1.468 1.314 8.184 0 6.713-0.591 8.181-1.314 8.181" fill="#fff" fill-rule="evenodd"/></g><g transform="translate(125.88 565.59)"><path d="m0 0v-16.284h2.607v2.635h-1.955v13.649z" fill="#fff" fill-rule="evenodd"/></g><g transform="translate(129.14 565.59)"><path d="m0 0v-16.284h2.608v2.635h-1.956v13.649z" fill="#fff" fill-rule="evenodd"/></g><g transform="translate(127.18 605.37)"><path d="m0 0c1.159 4e-3 1.217-2.113 1.302-3.971-0.223-0.218-0.425-0.435-0.649-0.654-0.04 0.965-0.146 1.953-0.653 1.959-0.506 8e-3 -0.593-0.787-0.654-1.676v-0.635c-2e-3 -1.437 2.003-3.183 1.956-4.377v-2.437c-5e-3 -2.269-0.164-4.676-1.302-4.676-1.137 0-1.143 2.071-1.306 4.024 0.217 0.211 0.436 0.423 0.654 0.634 0.114-1.046 0.193-1.937 0.652-1.939 0.46-4e-3 0.619 0.617 0.65 1.57 0.197 1.678-1.871 3.311-1.956 4.942v2.912c0 2.199 0.147 4.32 1.306 4.324" fill="#fff" fill-rule="evenodd"/></g><g transform="translate(130.44 605.37)"><path d="m0 0c1.159 4e-3 1.216-2.113 1.302-3.971-0.223-0.218-0.426-0.435-0.649-0.654-0.04 0.965-0.146 1.953-0.653 1.959-0.506 8e-3 -0.593-0.787-0.654-1.676v-0.635c-2e-3 -1.437 2.002-3.183 1.956-4.377v-2.437c-5e-3 -2.269-0.164-4.676-1.302-4.676-1.137 0-1.143 2.071-1.306 4.024 0.217 0.211 0.435 0.423 0.654 0.634 0.113-1.046 0.193-1.937 0.652-1.939 0.46-4e-3 0.619 0.617 0.65 1.57 0.197 1.678-1.871 3.311-1.956 4.942v2.912c0 2.199 0.146 4.32 1.306 4.324" fill="#fff" fill-rule="evenodd"/></g><g transform="translate(122.61 588.99)"><path d="m0 0 0.991 16.297h0.638l0.979-16.297h-0.652l-0.153 2.607h-0.973l-0.177-2.607zm0.978 5.215 0.327 5.605 0.335-5.605z" fill="#fff" fill-rule="evenodd"/></g><g transform="translate(120 597.46)"><path d="m0 0v5.217c1.09 2e-3 1.304-1.065 1.305-2.61 0-1.545-0.253-2.593-1.305-2.607m-0.65 7.809v-16.284h0.64s0.01 3.918 0.01 5.868c1.682 0.205 1.953 1.847 1.956 5.214 4e-3 3.37-0.826 5.465-2.606 5.202" fill="#fff" fill-rule="evenodd"/></g><g transform="translate(247.29 593.74)"><path d="m0 0 0.941-1.156c8.875-10.887 29.659-36.383 29.659-57.696v-64.634c0-22.876-12.389-43.296-29.537-71.557-1.256-2.07-2.54-4.186-3.848-6.35-22.331-36.951-61.631-117.77-78.37-188.98-5.751-24.463-9.813-62.578-11.697-90.089l1e-3 -69.278" fill="none" stroke="#fff" stroke-miterlimit="10" stroke-width="2"/></g><g transform="translate(157.95 44.005)"><path d="m0 0v69.174c1.878 27.364 5.909 65.171 11.602 89.39 16.647 70.81 55.742 151.2 77.958 187.96 1.307 2.162 2.589 4.276 3.845 6.345 17.443 28.749 30.046 49.52 30.046 73.378v64.635c0 22.564-21.337 48.738-30.449 59.915l-0.938 1.152" fill="none" stroke="#000" stroke-miterlimit="10"/></g><g transform="translate(93.034 695.26)"><path d="m0 0v-651.26" fill="none" stroke="#000" stroke-miterlimit="10"/></g><g transform="translate(215 567.48)"><path d="m0 0 0.969-1.189c18.042-22.132 20.132-30.82 20.297-31.63v-64.401c0-11.237-9.35-26.647-23.502-49.97l-0.179-0.295c-1.211-1.996-2.447-4.033-3.704-6.114-10.963-18.142-25.787-46.274-40.32-78.786l-2e-3 -7e-3c-3.976-8.322-9.285-12.905-14.812-12.905h-1e-3c-2.974 0-5.84 1.303-8.289 3.766-3.397 3.416-5.449 8.547-5.538 13.806l-9e-3 1e-3v355.51" fill="none" stroke="#000" stroke-miterlimit="10"/></g><g transform="translate(115.91 374.83)"><path d="m0 0v321.71" fill="none" stroke="#fff" stroke-dasharray="14.4, 43.2" stroke-width="2"/></g><g transform="translate(115.91 82.428)"><path d="m0 0v248.19" fill="none" stroke="#fff" stroke-miterlimit="10" stroke-width="4"/></g><g transform="translate(115.91 47.504)" fill="none" stroke-width="4"><path d="m0 0v34.34" stroke="#b1b4b6"/><path d="m0 0v34.34" stroke="#fff" stroke-dasharray="4.32, 12.96"/></g><path d="m289.58 498.74h-63.704v14.542h63.704z"/><g transform="translate(454.65 507.4)"><path d="m0 0c-1.616-5.761-13.221-47.317-15.03-53.781l-2.856-10.054" fill="none" stroke="#fff" stroke-miterlimit="10" stroke-width="4"/></g><g transform="translate(474.32 695.26)"><path d="m0 0v-92.168c0.184-15.208-4.154-38.72-8.262-54.112-6.2-23.209-10.833-39.536-11.408-41.586" fill="none" stroke="#ffd046" stroke-miterlimit="10" stroke-width="2"/></g><g transform="translate(456.02 44.004)"><path d="m0 0v111.38l19.281 69.619v190.17c0 27.928 16.384 70.468 27.222 86.349 2.803 4.108 8.609 10.441 15.961 18.459 19.532 21.304 52.224 56.96 52.224 80.004v95.274" fill="none" stroke="#fff" stroke-miterlimit="10" stroke-width="2"/></g><path d="m574.51 652.4h-103.51v14.542h103.51z"/></g><g transform="translate(436.75 509.33)"><path d="m0 0v185.93" fill="none" stroke="#fff" stroke-width="2"/></g><g transform="translate(436.75 444.19)"><path d="m0 0v65.143" fill="none" stroke="#fff" stroke-width="4"/></g><g transform="translate(436.75 332.79)"><path d="m0 0v111.4" fill="none" stroke="#fff" stroke-width="4"/></g><g transform="translate(398.19 44.005)"><path d="m0 0v651.26" fill="none" stroke="#ffd046" stroke-width="2"/></g><g clip-path="url(#d)"><g transform="translate(436.3 482)"><path d="m0 0 0.042-8.404s3.691-4.648 3.976-5.05c1.525 1.083 5.243 3.588 5.243 3.588l1.172 6.971-5.234-3.587z" fill="#fff"/></g><g transform="translate(453.2 502.17)"><path d="m0 0-8.863-5.264-7.343 10.627-0.478-8.431s5.965-8.643 6.246-9.091c1.323 0.831 8.457 5.06 8.457 5.06z" fill="#fff"/></g><g transform="translate(451.17 653.4)"><path d="m0 0v-1h-1" fill="none" stroke="#000"/></g><g transform="translate(448.2 652.4)"><path d="m0 0h-61.96" fill="none" stroke="#000" stroke-dasharray="1.967, 1.967"/></g><g transform="translate(385.26 652.4)"><path d="m0 0h-1v1" fill="none" stroke="#000"/></g><g transform="translate(384.26 655.2)"><path d="m0 0v9.849" fill="none" stroke="#000" stroke-dasharray="1.791, 1.791"/></g><g transform="translate(384.26 665.94)"><path d="m0 0v1h1" fill="none" stroke="#000"/></g><g transform="translate(387.23 666.94)"><path d="m0 0h61.96" fill="none" stroke="#000" stroke-dasharray="1.967, 1.967"/></g><g transform="translate(450.17 666.94)"><path d="m0 0h1v-1" fill="none" stroke="#000"/></g><g transform="translate(451.17 664.15)"><path d="m0 0v-9.849" fill="none" stroke="#000" stroke-dasharray="1.791, 1.791"/></g><g transform="translate(459.52 44.005)"><path d="m0 0v110.91l19.281 69.619v190.64c0 27.062 16.226 69.156 26.612 84.377 10.387 15.222 68.795 67.623 68.795 100.44v95.275" fill="none" stroke="#000" stroke-miterlimit="10"/></g><g transform="translate(394.59 695.26)"><path d="m0 0v-651.26" fill="none" stroke="#000" stroke-miterlimit="10"/></g><g transform="translate(470.82 695.26)"><path d="m0 0v-92.168c0.17-14.092-3.842-37.091-8.143-53.209-4.094-15.325-4.023-15.184-8.41-30.9-2-7.169-5.641-11.307-7.936-11.014s-4.86 2.342-4.86 12.715c-1e-3 104.49-3e-3 171.99-3e-3 174.58" fill="none" stroke="#000" stroke-miterlimit="10"/></g><g transform="translate(149.11 653.4)"><path d="m0 0v-1h-1" fill="none" stroke="#000"/></g><g transform="translate(146.15 652.4)"><path d="m0 0h-61.96" fill="none" stroke="#000" stroke-dasharray="1.967, 1.967"/></g><g transform="translate(83.202 652.4)"><path d="m0 0h-1v1" fill="none" stroke="#000"/></g><g transform="translate(82.202 655.2)"><path d="m0 0v9.849" fill="none" stroke="#000" stroke-dasharray="1.791, 1.791"/></g><g transform="translate(82.202 665.94)"><path d="m0 0v1h1" fill="none" stroke="#000"/></g><g transform="translate(85.168 666.94)"><path d="m0 0h61.96" fill="none" stroke="#000" stroke-dasharray="1.967, 1.967"/></g><g transform="translate(148.11 666.94)"><path d="m0 0h1v-1" fill="none" stroke="#000"/></g><g transform="translate(149.11 664.15)"><path d="m0 0v-9.849" fill="none" stroke="#000" stroke-dasharray="1.791, 1.791"/></g><g transform="translate(386.19 293.27)"><path d="m0 0 31.875-11.338 23.248 9.305 48.849-18.145-1.144-8.763-48.849 18.144-23.25-9.305-31.875 11.336z" fill="#fff"/><path d="m0 0 31.875-11.338 23.248 9.305 48.849-18.145-1.144-8.763-48.849 18.144-23.25-9.305-31.875 11.336z" fill="none" stroke="#000"/></g><g transform="translate(489.02 278.41)"><path d="m0 0 8.639-2.963-6.999-14.635-8.642 2.965z" fill="#fff"/></g><g transform="translate(391.39 293.93)"><path d="m0 0-17.28 5.928-7.389-15.446 17.281-5.929z" fill="#fff"/></g><g transform="translate(312.7 517.38)"><path d="m0 0-19.131-9.409" fill="none" stroke="#000" stroke-width=".75"/></g><g transform="translate(291.42 507.52)"><path d="m0 0c0.663 0.619 1.063 1.084 1.565 1.642l1.168-2.376c-0.275-4e-3 -1.361-0.089-2.256-0.237-0.957-0.158-1.798-0.358-2.318-0.537 0.46 0.302 1.131 0.847 1.841 1.508"/></g></g><text transform="matrix(1 0 0 -1 313.96 516.39)" fill="black" font-family="Helvetica" font-size="9px"><tspan x="0 4.5 9.5039997 11.502 13.5 16.002001 21.006001 23.004 28.007999 32.507999" y="0">Toll plaza</tspan></text><g transform="translate(466.87 657.63)"><path d="m0 0-88.743-45.942" fill="none" stroke="#000" stroke-width=".75"/></g><g clip-path="url(#c)"><g transform="translate(468.51 659.09)"><path d="m0 0c-0.892-0.166-1.504-0.211-2.251-0.283l1.218-2.352c0.167 0.219 0.88 1.043 1.53 1.674 0.696 0.676 1.356 1.234 1.81 1.546-0.517-0.19-1.354-0.407-2.307-0.585"/></g></g><text transform="matrix(1 0 0 -1 338.08 609.18)" fill="black" font-family="Helvetica" font-size="9px"><tspan x="0 4.5 9.5039997 11.502 13.5 16.002001 21.006001 23.004 28.007999 32.507999" y="0">Toll plaza</tspan></text><g transform="translate(277.35 247.53)"><path d="m0 0v78.92l-3.111-21.215 0.282-3.677 2.263 1.98" stroke="#000"/></g><g transform="translate(280.45 295.08)"><path d="m0 0h2.665v-22.176h-3.09l-10.348 17.914h-0.056v-17.914h-2.665v22.176h3.259l10.177-17.913h0.058z"/></g><g transform="translate(232.13 190.92)"><path d="m0 0h6.354v1.559l4.376-2.577-4.376-2.398v1.439h-6.354z"/></g><g transform="translate(255.85 199.11)"><path d="m0 0h29.291" fill="none" stroke="#000" stroke-width=".75"/></g><text transform="matrix(1 0 0 -1 255.38 202.06)" fill="black" font-family="Helvetica" font-size="9px"><tspan x="0 5.0040002 10.008 15.012 20.016001 25.02" y="0">Legend</tspan><tspan x="-7.4790001 -0.98100001 1.017 4.0139999 9.0179996 13.518 16.02 18.018 23.021999 28.025999 30.528 35.532001 38.034 40.535999 43.037998 46.035 51.039001 55.539001 60.542999" y="15.354">Direction of travel</tspan></text><g transform="translate(408.73 48.172)"><path d="m0 0v6.211h1.523l-2.517 4.275-2.344-4.275h1.406v-6.211z"/></g><g transform="translate(145.44 46.216)"><path d="m0 0v6.211h1.523l-2.517 4.275-2.344-4.275h1.406v-6.211z"/></g><g transform="translate(124.94 46.216)"><path d="m0 0v6.211h-1.523l2.517 4.275 2.344-4.275h-1.406v-6.211z"/></g><g transform="translate(161.51 221.88)"><path d="m0 0 1.791 5.947 1.459-0.439-1.178 4.819-3.477-3.417 1.347-0.406-1.792-5.947z"/></g><g transform="translate(141.89 227.79)"><path d="m0 0 1.791 5.947-1.458 0.44 3.643 3.367 1.011-4.77-1.346 0.406-1.791-5.947z"/></g><g transform="translate(249.43 576.85)"><path d="m0 0-3.895 4.838 1.186 0.955-4.642 1.751 0.856-4.8 1.095 0.882 3.895-4.837z"/></g><g transform="translate(233.47 563.99)"><path d="m0 0-3.895 4.838-1.187-0.956-0.72 4.909 4.507-1.86-1.096-0.882 3.896-4.838z"/></g><g transform="translate(106.88 46.216)"><path d="m0 0v6.211h1.523l-2.517 4.275-2.344-4.275h1.406v-6.211z"/></g><g transform="translate(124.94 681.77)"><path d="m0 0v6.211h-1.523l2.517 4.275 2.344-4.275h-1.406v-6.211z"/></g><g transform="translate(106.88 681.77)"><path d="m0 0v6.211h1.523l-2.517 4.275-2.344-4.275h1.406v-6.211z"/></g><g transform="translate(426.2,48.172)"><path d="m0 0v6.211h-1.523l2.517 4.275 2.344-4.275h-1.406v-6.211z"/></g><g transform="translate(447.3 48.172)"><path d="m0 0v6.211h1.523l-2.517 4.275-2.344-4.275h1.406v-6.211z"/></g><g transform="translate(408.73 681.77)"><path d="m0 0v6.211h1.523l-2.517 4.275-2.344-4.275h1.406v-6.211z"/></g><g transform="translate(426.2 681.77)"><path d="m0 0v6.211h-1.523l2.517 4.275 2.344-4.275h-1.406v-6.211z"/></g><g transform="translate(484.86 681.77)"><path d="m0 0v6.211h1.523l-2.517 4.275-2.344-4.275h1.406v-6.211z"/></g><g transform="translate(502.32 681.77)"><path d="m0 0v6.211h-1.523l2.517 4.275 2.344-4.275h-1.406v-6.211z"/></g><g transform="translate(450.7 450.14)"><path d="m0 0 2.185 5.814 1.426-0.536-0.852 4.888-3.698-3.178 1.316-0.495-2.185-5.813z"/></g><g transform="translate(467.05 444)"><path d="M 0,0 2.185,5.814 0.759,6.35 4.62,9.466 5.31,4.64 3.993,5.134 1.808,-0.68 Z"/></g><g transform="translate(540.89 681.77)"><path d="m0 0v6.211h-1.523l2.517 4.275 2.344-4.275h-1.406v-6.211z"/></g><g transform="translate(561.98 681.77)"><path d="m0 0v6.211h1.523l-2.517 4.275-2.344-4.275h1.406v-6.211z"/></g><g transform="translate(523.42 681.77)"><path d="m0 0v6.211h1.523l-2.517 4.275-2.344-4.275h1.406v-6.211z"/></g><text transform="matrix(1 0 0 -1 70.538 711.81)" fill="black" font-family="Helvetica" font-size="9.5px" font-weight="bold"><tspan x="0 6.8590002 9.5 14.782 20.3281 27.719101 33.523602 38.805599 44.6101 47.773602 51.469101 57.273602 62.555599 68.3601 71.001099 76.283096 78.924103 84.2061 89.488098 92.651604 96.347099 102.1516 107.9561 110.5971 115.8791 118.5201 121.6836 127.4881 130.1291 132.7701 135.4111 140.6931 146.4976 149.1386 151.7796 157.0616 162.3436 165.5071 168.1481 173.95261" y="0">B – Open-road electronic toll collection</tspan><tspan x="0 20.32905 26.133551 31.41555 37.220051 42.502048 47.78405 53.066051 55.70705 63.098049 65.739052 68.90255 74.707047 77.348053 83.15255 88.957047 94.239052 97.40255 101.09805 106.38005 111.66205 120.10755 122.74855 128.55305 134.35754 137.52106 140.16205 145.96655 151.77106 154.41205 157.05305 162.33505 168.13956" y="10.4975"> bypass with upstream option lane</tspan></text><g clip-path="url(#b)"><g transform="translate(131.38 227.23)"><path d="m0 0c-1.767-7.142-3.793-16.557-5.661-28.169-2.713-16.858-4.891-26.434-6.5-48.101" fill="none" stroke="#fff" stroke-dasharray="4.32, 12.96" stroke-width="2"/></g></g><g fill="black" font-size="8px"><text transform="matrix(1 0 0 -1 182.82 144.99)" font-family="Helvetica"><tspan x="0 5.776 10.224 12.448 16.896 20.896 23.120001" y="0">Notes: </tspan><tspan x="5.7119999 10.16 12.384 18 22.888 27.336 31.784 34.007999 39.344002 44.231998 50.007999 51.792801 57.128799 61.128799 65.128799 69.576797 74.024803 78.472801 80.6968 83.360802 89.584801 94.032799 95.8088 99.8088 102.0328 107.8088 112.2568 114.9208 119.3688 121.5928 128.25681 132.7048 135.3688 139.3688 141.14481 145.5928 150.0408 154.0408 156.2648 160.7128 165.1608 169.6088 171.83279 177.16879 182.05679 187.83279" y="11.496">1. The ETC Account-Only word markings and ETC </tspan><tspan x="18 22.448 24.224001 28.224001 30.448 34.896 39.344002 42.007999 46.456001 50.903999 55.352001 59.352001 61.576 63.799999 68.248001 72.695999 74.919998 77.143997 81.592003 84.255997 88.704002 90.928001 94.928001 99.375999 103.824 109.6 114.048 116.272 120.72 123.384 127.832 130.056 134.504 138.952 140.728 144.728 146.952 151.39999 155.39999 159.84801 166.51199 170.96001 172.73599 177.18401 181.18401 183.408" y="19.992001">pictographs that are shown are only examples. </tspan><tspan x="18 22.888 27.336 31.784 34.007999 39.784 44.231998 46.896 51.344002 53.568001 60.231998 64.68 67.344002 71.344002 73.120003 77.568001 82.015999 86.015999 88.239998 92.688004 97.136002 101.584 103.808 108.256 110.032 114.032 116.256 120.704 125.152 127.816 132.26401 136.71201 141.16 143.384 145.608 150.056 152.72 154.944 157.168 161.616 166.064 168.28799 170.51199 174.96001 176.73599 178.51199" y="28.488001">The word markings and pictograph for the toll </tspan></text><text transform="matrix(1 0 0 -1 200.82 108.01)" font-family="'BATJAF +Helvetica'"><tspan x="0 2.224 6.6719999 10.672 12.448 14.224 16 18.224001 22.224001 23.863199 27.863199 30.0872 34.535198 38.9832 43.431198 47.8792 50.103199 54.551201 58.999199 61.223202 66.559196 71.447197 77.223198 79.447197 83.447197 87.447197 91.447197 93.671204 98.119202 104.7832 107.0072 111.0072 115.4552 119.9032 121.6792 123.4552 125.6792 130.1272 134.5752 136.79919 141.24719 145.24719 149.69521 154.1432" y="0">facility’s adopted ETC system shall be used </tspan></text><text transform="matrix(1 0 0 -1 200.82 99.51)" font-family="Helvetica"><tspan x="0 2.664 6.664 11.112 15.56 17.784 23.120001 27.568001 31.568001 33.792 35.568001 40.015999 44.464001 46.688 51.136002 56.472 58.695999 63.144001 67.592003 70.255997" y="0">(see Section 3E.03).</tspan><tspan x="-18 -12.288 -7.8400002 -5.6160002 0 5.336 9.7840004 14.232 16.455999 22.232 26.68 31.128 35.576 37.799999 42.248001 44.911999 47.136002 51.584 56.472 58.695999 60.919998 65.367996 68.031998 70.255997 72.480003 76.928001 78.704002 80.480003 82.704002 85.367996 89.816002 94.264 98.711998 100.936 104.936 106.712 111.16 115.608 119.608" y="11.496"> 2. See Chapter 2F for toll road signs.</tspan><tspan x="-18 -12.288 -7.8400002 -5.6160002 0 5.336 9.7840004 14.232 16.455999 22.232 26.68 31.128 35.576 37.799999 42.248001 44.911999 47.136002 51.584 56.472 58.695999 60.919998 65.367996 68.031998 70.255997 76.919998 81.367996 84.031998 88.031998 89.807999 94.255997 98.704002 102.704 104.928 109.376 111.6 113.824 116.048 120.496 122.272 124.048 126.272 130.72 132.496 136.944 140.944 145.392 149.392" y="22.992001"> 3. See Chapter 3F for markings at toll plazas.</tspan><tspan x="-18 -12.288 -7.8400002 -5.6160002 0 4.888 9.3360004 13.784 16.007999 20.455999 24.455999 28.903999 31.128 35.576 37.799999 40.023998 44.023998 48.472 50.248001 54.695999 57.360001 61.807999 66.255997 68.480003 72.928001 77.375999 81.375999 85.823997 92.487999 96.935997 101.384 103.608 105.832 107.608 111.608 113.832 118.28 122.728 124.952 126.728 131.17599 135.62399 140.07201 141.84801" y="34.487999"> 4. The use of colored pavement is optional.</tspan></text></g><path d="m416.02 211.28h-16.392v15.288h16.392z" fill="#fff" fill-rule="evenodd"/><g transform="translate(401.53 213.08)"><path d="m0 0h-0.544l0.787 8.516h-1.432l0.098 1.064h4.345l-0.098-1.064h-2.371z" fill="#6d276a"/></g><g clip-path="url(#a)"><g transform="translate(403.52 219.4)"><path d="m0 0c-0.392 0-0.537-0.786-0.59-1.36-0.053-0.569-0.053-1.357 0.34-1.357 0.391 0 0.537 0.788 0.589 1.357 0.053 0.574 0.053 1.36-0.339 1.36m-0.341-3.704c-0.52 0-0.92 0.735-0.772 2.344 0.149 1.612 0.684 2.349 1.204 2.349 0.518 0 0.919-0.737 0.77-2.349-0.147-1.609-0.683-2.344-1.202-2.344" fill="#6d276a"/></g><g transform="translate(404.95 214.53)"><path d="m0 0h-0.508l0.941 10.256h0.507z" fill="#6d276a"/></g><g transform="translate(405.95 214.53)"><path d="m0 0h-0.508l0.941 10.256h0.509z" fill="#6d276a"/></g><g transform="translate(408.69 219.85)"><path d="m0 0c0.406 0 0.469 0.669 0.493 0.937 0.055 0.586-0.064 0.831-0.401 0.831h-0.433l-0.163-1.768zm-0.879-4.038h-0.544l0.633 6.843h1.191c0.503 0 0.739-0.744 0.631-1.924-0.051-0.547-0.307-1.921-1.009-1.921h-0.624z" fill="#6d276a"/></g><g transform="translate(410.67 217.98)"><path d="m0 0c-0.06-0.093-0.149-0.169-0.367-0.244-0.195-0.076-0.362-0.186-0.407-0.672-0.038-0.407 0.089-0.537 0.187-0.537 0.224 0 0.483 0.337 0.534 0.882zm0.378-1.301c-0.049-0.528-0.01-0.645 0.048-0.696l-0.016-0.174h-0.549c-0.01 0.21-0.01 0.276 2e-3 0.525-0.141-0.273-0.338-0.642-0.684-0.642-0.289 0-0.553 0.379-0.468 1.299 0.08 0.869 0.36 1.314 0.694 1.426l0.472 0.159c0.082 0.022 0.186 0.097 0.209 0.349 0.046 0.495-0.155 0.522-0.284 0.522-0.255 0-0.331-0.361-0.37-0.622h-0.491c0.184 1.367 0.614 1.56 1.007 1.56 0.274 0 0.752-0.193 0.652-1.294z" fill="#6d276a"/></g><g transform="translate(412.8 218.91)"><path d="m0 0c4e-3 0.283-0.012 0.586-0.288 0.586-0.275 0-0.335-0.242-0.353-0.435-0.064-0.708 1.192-0.192 1.039-1.836-0.119-1.298-0.685-1.533-0.985-1.533-0.438 0-0.882 0.352-0.788 1.541h0.524c-0.036-0.376 0.041-0.655 0.36-0.655 0.261 0 0.35 0.293 0.367 0.464 0.067 0.745-1.183 0.183-1.028 1.851 0.058 0.654 0.314 1.492 0.917 1.492 0.377 0 0.807-0.218 0.731-1.475z" fill="#6d276a"/></g><g transform="translate(414.82 218.91)"><path d="m0 0c5e-3 0.283-0.012 0.586-0.287 0.586-0.276 0-0.334-0.242-0.354-0.435-0.063-0.708 1.193-0.192 1.04-1.836-0.119-1.298-0.684-1.533-0.985-1.533-0.438 0-0.883 0.352-0.788 1.541h0.522c-0.034-0.376 0.042-0.655 0.362-0.655 0.261 0 0.35 0.293 0.365 0.464 0.069 0.745-1.182 0.183-1.026 1.851 0.059 0.654 0.314 1.492 0.918 1.492 0.376 0 0.806-0.218 0.73-1.475z" fill="#6d276a"/></g><g transform="translate(415 214.53)"><path d="m0 0h-9.236l0.023 0.264h9.238z" fill="#6d276a"/></g><g transform="translate(404.41 213.8)"><path d="m0 0h-0.786l0.025 0.264h0.785z" fill="#6d276a"/></g><g transform="translate(407.04 213.8)"><path d="m0 0h-0.785l0.024 0.264h0.785z" fill="#6d276a"/></g><g transform="translate(409.68 213.8)"><path d="m0 0h-0.786l0.023 0.264h0.785z" fill="#6d276a"/></g><g transform="translate(412.3 213.8)"><path d="m0 0h-0.785l0.023 0.264h0.786z" fill="#6d276a"/></g><g transform="translate(414.94 213.8)"><path d="m0 0h-0.786l0.024 0.264h0.784z" fill="#6d276a"/></g><g transform="translate(414.87 213.08)"><path d="m0 0h-12.158l0.023 0.261h12.159z" fill="#6d276a"/></g><path d="m435.3 211.28h-16.392v15.288h16.392z" fill="#fff" fill-rule="evenodd"/><g transform="translate(420.81 213.08)"><path d="m0 0h-0.544l0.787 8.516h-1.432l0.098 1.064h4.345l-0.098-1.064h-2.371z" fill="#6d276a"/></g><g transform="translate(422.8 219.4)"><path d="m0 0c-0.392 0-0.537-0.786-0.59-1.36-0.053-0.569-0.053-1.357 0.34-1.357 0.391 0 0.537 0.788 0.589 1.357 0.053 0.574 0.053 1.36-0.339 1.36m-0.341-3.704c-0.52 0-0.92 0.735-0.772 2.344 0.149 1.612 0.684 2.349 1.204 2.349 0.518 0 0.919-0.737 0.77-2.349-0.147-1.609-0.683-2.344-1.202-2.344" fill="#6d276a"/></g><g transform="translate(424.23 214.53)"><path d="m0 0h-0.508l0.941 10.256h0.507z" fill="#6d276a"/></g><g transform="translate(425.24 214.53)"><path d="m0 0h-0.508l0.941 10.256h0.509z" fill="#6d276a"/></g><g transform="translate(427.98 219.85)"><path d="m0 0c0.406 0 0.469 0.669 0.493 0.937 0.055 0.586-0.064 0.831-0.401 0.831h-0.433l-0.163-1.768zm-0.879-4.038h-0.544l0.633 6.843h1.191c0.503 0 0.739-0.744 0.631-1.924-0.051-0.547-0.307-1.921-1.009-1.921h-0.624z" fill="#6d276a"/></g><g transform="translate(429.95 217.98)"><path d="m0 0c-0.06-0.093-0.149-0.169-0.367-0.244-0.196-0.076-0.362-0.186-0.407-0.672-0.038-0.407 0.089-0.537 0.187-0.537 0.224 0 0.483 0.337 0.534 0.882zm0.378-1.301c-0.049-0.528-0.01-0.645 0.048-0.696l-0.016-0.174h-0.549c-0.01 0.21-0.01 0.276 2e-3 0.525-0.141-0.273-0.338-0.642-0.684-0.642-0.289 0-0.553 0.379-0.468 1.299 0.08 0.869 0.36 1.314 0.694 1.426l0.472 0.159c0.082 0.022 0.186 0.097 0.209 0.349 0.046 0.495-0.155 0.522-0.284 0.522-0.255 0-0.331-0.361-0.37-0.622h-0.491c0.184 1.367 0.614 1.56 1.007 1.56 0.274 0 0.752-0.193 0.652-1.294z" fill="#6d276a"/></g><g transform="translate(432.08 218.91)"><path d="m0 0c4e-3 0.283-0.012 0.586-0.288 0.586s-0.335-0.242-0.353-0.435c-0.064-0.708 1.192-0.192 1.039-1.836-0.119-1.298-0.685-1.533-0.985-1.533-0.438 0-0.882 0.352-0.788 1.541h0.524c-0.036-0.376 0.041-0.655 0.36-0.655 0.261 0 0.35 0.293 0.367 0.464 0.067 0.745-1.183 0.183-1.028 1.851 0.058 0.654 0.314 1.492 0.917 1.492 0.377 0 0.807-0.218 0.731-1.475z" fill="#6d276a"/></g><g transform="translate(434.1 218.91)"><path d="m0 0c5e-3 0.283-0.012 0.586-0.287 0.586-0.277 0-0.334-0.242-0.354-0.435-0.063-0.708 1.193-0.192 1.04-1.836-0.119-1.298-0.684-1.533-0.985-1.533-0.439 0-0.883 0.352-0.788 1.541h0.522c-0.034-0.376 0.042-0.655 0.362-0.655 0.261 0 0.35 0.293 0.365 0.464 0.069 0.745-1.182 0.183-1.026 1.851 0.059 0.654 0.314 1.492 0.918 1.492 0.376 0 0.806-0.218 0.73-1.475z" fill="#6d276a"/></g><g transform="translate(434.28 214.53)"><path d="m0 0h-9.236l0.023 0.264h9.238z" fill="#6d276a"/></g><g transform="translate(423.69 213.8)"><path d="m0 0h-0.786l0.025 0.264h0.785z" fill="#6d276a"/></g><g transform="translate(426.32 213.8)"><path d="m0 0h-0.785l0.024 0.264h0.785z" fill="#6d276a"/></g><g transform="translate(428.96 213.8)"><path d="m0 0h-0.786l0.023 0.264h0.786z" fill="#6d276a"/></g><g transform="translate(431.59 213.8)"><path d="m0 0h-0.785l0.023 0.264h0.786z" fill="#6d276a"/></g><g transform="translate(434.22 213.8)"><path d="m0 0h-0.786l0.024 0.264h0.784z" fill="#6d276a"/></g><g transform="translate(434.15 213.08)"><path d="m0 0h-12.158l0.023 0.261h12.159z" fill="#6d276a"/></g><g transform="translate(403.46 398.35)"><path d="m0 0c-0.49 0-0.687 0.995-0.678 5.554 0.012 4.558 0.188 5.553 0.678 5.553 0.492 0 0.639-0.995 0.639-5.553 0-4.559-0.147-5.554-0.639-5.554m-0.033 13.736c-0.723 0-1.299-1.466-1.315-8.182-0.013-6.714 0.592-8.183 1.315-8.183 0.724 0 1.314 1.469 1.314 8.183 0 6.716-0.59 8.182-1.314 8.182" fill="#fff"/></g><g transform="translate(405.38 395.8)"><path d="m0 0v16.291h0.654l1.309-10.434v10.434h0.654v-16.291h-0.654l-1.309 10.42v-10.42z" fill="#fff"/></g><g transform="translate(408.65 412.09)"><path d="m0 0v-16.285h2.608v2.633h-1.956v13.652z" fill="#fff"/></g><g transform="translate(410.93 412.08)"><path d="m0 0 0.979-9.775v-6.518h0.652v6.518l0.977 9.775h-0.653l-0.65-6.527-0.653 6.527z" fill="#fff"/></g><g transform="translate(422.24 398.35)"><path d="m0 0c-0.49 0-0.687 0.996-0.678 5.555 0.012 4.558 0.188 5.554 0.678 5.554 0.492 0 0.639-0.996 0.639-5.554 0-4.559-0.147-5.555-0.639-5.555m-0.033 13.738c-0.723 0-1.299-1.466-1.315-8.183-0.013-6.715 0.592-8.184 1.315-8.184 0.724 0 1.314 1.469 1.314 8.184 0 6.717-0.59 8.183-1.314 8.183" fill="#fff"/></g><g transform="translate(424.16 395.8)"><path d="m0 0v16.291h0.654l1.309-10.434v10.434h0.654v-16.291h-0.654l-1.309 10.42v-10.42z" fill="#fff"/></g><g transform="translate(427.44 412.09)"><path d="m0 0v-16.285h2.607v2.633h-1.955v13.652z" fill="#fff"/></g><g transform="translate(429.71 412.08)"><path d="m0 0 0.978-9.775v-6.518h0.653v6.518l0.976 9.775h-0.652l-0.65-6.527-0.653 6.527z" fill="#fff"/></g><path d="m416.02 356.58h-16.392v15.288h16.392z" fill="#fff" fill-rule="evenodd"/><g transform="translate(401.53 358.38)"><path d="m0 0h-0.544l0.787 8.515h-1.432l0.098 1.065h4.345l-0.098-1.065h-2.371z" fill="#6d276a"/></g><g transform="translate(403.52 364.7)"><path d="m0 0c-0.392 0-0.537-0.786-0.59-1.36-0.053-0.569-0.053-1.357 0.34-1.357 0.391 0 0.537 0.788 0.589 1.357 0.053 0.574 0.053 1.36-0.339 1.36m-0.341-3.704c-0.52 0-0.92 0.735-0.772 2.344 0.149 1.612 0.684 2.349 1.204 2.349 0.518 0 0.919-0.737 0.77-2.349-0.147-1.609-0.683-2.344-1.202-2.344" fill="#6d276a"/></g><g transform="translate(404.95 359.83)"><path d="m0 0h-0.508l0.941 10.256h0.507z" fill="#6d276a"/></g><g transform="translate(405.95 359.83)"><path d="m0 0h-0.508l0.941 10.256h0.509z" fill="#6d276a"/></g><g transform="translate(408.69 365.15)"><path d="m0 0c0.406 0 0.469 0.669 0.493 0.937 0.055 0.586-0.064 0.83-0.401 0.83h-0.433l-0.163-1.767zm-0.879-4.038h-0.544l0.633 6.843h1.191c0.503 0 0.739-0.745 0.631-1.924-0.051-0.547-0.307-1.921-1.009-1.921h-0.624z" fill="#6d276a"/></g><g transform="translate(410.67 363.28)"><path d="m0 0c-0.06-0.093-0.149-0.169-0.367-0.244-0.195-0.076-0.362-0.186-0.407-0.672-0.038-0.407 0.089-0.537 0.187-0.537 0.224 0 0.483 0.337 0.534 0.882zm0.378-1.301c-0.049-0.528-0.01-0.645 0.048-0.696l-0.016-0.174h-0.549c-0.01 0.21-0.01 0.276 2e-3 0.525-0.141-0.273-0.338-0.642-0.684-0.642-0.289 0-0.553 0.379-0.468 1.299 0.08 0.869 0.36 1.314 0.694 1.426l0.472 0.159c0.082 0.022 0.186 0.097 0.209 0.349 0.046 0.495-0.155 0.522-0.284 0.522-0.255 0-0.331-0.361-0.37-0.622h-0.491c0.184 1.367 0.614 1.56 1.007 1.56 0.274 0 0.752-0.193 0.652-1.294z" fill="#6d276a"/></g><g transform="translate(412.8 364.21)"><path d="m0 0c4e-3 0.283-0.012 0.586-0.288 0.586-0.275 0-0.335-0.242-0.353-0.435-0.064-0.708 1.192-0.193 1.039-1.836-0.119-1.299-0.685-1.533-0.985-1.533-0.438 0-0.882 0.352-0.788 1.541h0.524c-0.036-0.376 0.041-0.655 0.36-0.655 0.261 0 0.35 0.293 0.367 0.464 0.067 0.745-1.183 0.183-1.028 1.851 0.058 0.654 0.314 1.491 0.917 1.491 0.377 0 0.807-0.217 0.731-1.474z" fill="#6d276a"/></g><g transform="translate(414.82 364.21)"><path d="m0 0c5e-3 0.283-0.012 0.586-0.287 0.586-0.276 0-0.334-0.242-0.354-0.435-0.063-0.708 1.193-0.193 1.04-1.836-0.119-1.299-0.684-1.533-0.985-1.533-0.438 0-0.883 0.352-0.788 1.541h0.522c-0.034-0.376 0.042-0.655 0.362-0.655 0.261 0 0.35 0.293 0.365 0.464 0.069 0.745-1.182 0.183-1.026 1.851 0.059 0.654 0.314 1.491 0.918 1.491 0.376 0 0.806-0.217 0.73-1.474z" fill="#6d276a"/></g><g transform="translate(415 359.83)"><path d="m0 0h-9.236l0.023 0.264h9.238z" fill="#6d276a"/></g><g transform="translate(404.41 359.1)"><path d="m0 0h-0.786l0.025 0.264h0.785z" fill="#6d276a"/></g><g transform="translate(407.04 359.1)"><path d="m0 0h-0.785l0.024 0.264h0.785z" fill="#6d276a"/></g><g transform="translate(409.68 359.1)"><path d="m0 0h-0.786l0.023 0.264h0.785z" fill="#6d276a"/></g><g transform="translate(412.3 359.1)"><path d="m0 0h-0.785l0.023 0.264h0.786z" fill="#6d276a"/></g><g transform="translate(414.94 359.1)"><path d="m0 0h-0.786l0.024 0.264h0.784z" fill="#6d276a"/></g><g transform="translate(414.87 358.38)"><path d="m0 0h-12.158l0.023 0.261h12.159z" fill="#6d276a"/></g><path d="m435.3 356.58h-16.392v15.288h16.392z" fill="#fff" fill-rule="evenodd"/><g transform="translate(420.81 358.38)"><path d="m0 0h-0.544l0.787 8.515h-1.432l0.098 1.065h4.345l-0.098-1.065h-2.371z" fill="#6d276a"/></g><g transform="translate(422.8 364.7)"><path d="m0 0c-0.392 0-0.537-0.786-0.59-1.36-0.053-0.569-0.053-1.357 0.34-1.357 0.391 0 0.537 0.788 0.589 1.357 0.053 0.574 0.053 1.36-0.339 1.36m-0.341-3.704c-0.52 0-0.92 0.735-0.772 2.344 0.149 1.612 0.684 2.349 1.204 2.349 0.518 0 0.919-0.737 0.77-2.349-0.147-1.609-0.683-2.344-1.202-2.344" fill="#6d276a"/></g><g transform="translate(424.23 359.83)"><path d="m0 0h-0.508l0.941 10.256h0.507z" fill="#6d276a"/></g><g transform="translate(425.24 359.83)"><path d="m0 0h-0.508l0.941 10.256h0.509z" fill="#6d276a"/></g><g transform="translate(427.98 365.15)"><path d="m0 0c0.406 0 0.469 0.669 0.493 0.937 0.055 0.586-0.064 0.83-0.401 0.83h-0.433l-0.163-1.767zm-0.879-4.038h-0.544l0.633 6.843h1.191c0.503 0 0.739-0.745 0.631-1.924-0.051-0.547-0.307-1.921-1.009-1.921h-0.624z" fill="#6d276a"/></g><g transform="translate(429.95 363.28)"><path d="m0 0c-0.06-0.093-0.149-0.169-0.367-0.244-0.196-0.076-0.362-0.186-0.407-0.672-0.038-0.407 0.089-0.537 0.187-0.537 0.224 0 0.483 0.337 0.534 0.882zm0.378-1.301c-0.049-0.528-0.01-0.645 0.048-0.696l-0.016-0.174h-0.549c-0.01 0.21-0.01 0.276 2e-3 0.525-0.141-0.273-0.338-0.642-0.684-0.642-0.289 0-0.553 0.379-0.468 1.299 0.08 0.869 0.36 1.314 0.694 1.426l0.472 0.159c0.082 0.022 0.186 0.097 0.209 0.349 0.046 0.495-0.155 0.522-0.284 0.522-0.255 0-0.331-0.361-0.37-0.622h-0.491c0.184 1.367 0.614 1.56 1.007 1.56 0.274 0 0.752-0.193 0.652-1.294z" fill="#6d276a"/></g><g transform="translate(432.08 364.21)"><path d="m0 0c4e-3 0.283-0.012 0.586-0.288 0.586s-0.335-0.242-0.353-0.435c-0.064-0.708 1.192-0.193 1.039-1.836-0.119-1.299-0.685-1.533-0.985-1.533-0.438 0-0.882 0.352-0.788 1.541h0.524c-0.036-0.376 0.041-0.655 0.36-0.655 0.261 0 0.35 0.293 0.367 0.464 0.067 0.745-1.183 0.183-1.028 1.851 0.058 0.654 0.314 1.491 0.917 1.491 0.377 0 0.807-0.217 0.731-1.474z" fill="#6d276a"/></g><g transform="translate(434.1 364.21)"><path d="m0 0c5e-3 0.283-0.012 0.586-0.287 0.586-0.277 0-0.334-0.242-0.354-0.435-0.063-0.708 1.193-0.193 1.04-1.836-0.119-1.299-0.684-1.533-0.985-1.533-0.439 0-0.883 0.352-0.788 1.541h0.522c-0.034-0.376 0.042-0.655 0.362-0.655 0.261 0 0.35 0.293 0.365 0.464 0.069 0.745-1.182 0.183-1.026 1.851 0.059 0.654 0.314 1.491 0.918 1.491 0.376 0 0.806-0.217 0.73-1.474z" fill="#6d276a"/></g><g transform="translate(434.28 359.83)"><path d="m0 0h-9.236l0.023 0.264h9.238z" fill="#6d276a"/></g><g transform="translate(423.69 359.1)"><path d="m0 0h-0.786l0.025 0.264h0.785z" fill="#6d276a"/></g><g transform="translate(426.32 359.1)"><path d="m0 0h-0.785l0.024 0.264h0.785z" fill="#6d276a"/></g><g transform="translate(428.96 359.1)"><path d="m0 0h-0.786l0.023 0.264h0.786z" fill="#6d276a"/></g><g transform="translate(431.59 359.1)"><path d="m0 0h-0.785l0.023 0.264h0.786z" fill="#6d276a"/></g><g transform="translate(434.22 359.1)"><path d="m0 0h-0.786l0.024 0.264h0.784z" fill="#6d276a"/></g><g transform="translate(434.15 358.38)"><path d="m0 0h-12.158l0.023 0.261h12.159z" fill="#6d276a"/></g></g></g></svg>
