<?xml version="1.0" encoding="UTF-8"?>
<svg width="544.49" height="887.35" version="1.1" viewBox="0 0 544.49 887.35" xml:space="preserve" xmlns="http://www.w3.org/2000/svg"><defs><clipPath id="b"><path d="m62.315 19.332h442.37v723.67h-442.37z"/></clipPath><clipPath id="a"><path d="m62.315 19.332h442.37v723.67h-442.37z"/></clipPath><clipPath id="e"><path d="m62.315 19.332h442.37v723.67h-442.37z"/></clipPath><clipPath id="d"><path d="m62.315 19.332h442.37v723.67h-442.37z"/></clipPath><clipPath id="c"><path d="m62.315 19.332h442.37v723.67h-442.37z"/></clipPath></defs><g transform="matrix(1.3333 0 0 -1.3333 -108.58 934.5)"><g clip-path="url(#b)"><g transform="translate(311.84 35.36)"><path d="m0 0v84.059c0 13.904 19.484 75.401 19.484 85.027v214.77l75.768 254.89 4.49 6.132h-197.06v-644.88" fill="#b1b4b6" stroke="#000"/></g><g transform="translate(312.59 674.79)"><path d="m0 0v-40.779s0-12.913 8.728-13.066c9.297-0.162 13.073 12.407 13.073 12.407l12.299 40.95z" fill="#fff"/><path d="m0 0v-40.779s0-12.913 8.728-13.066c9.297-0.162 13.073 12.407 13.073 12.407l12.299 40.95z" fill="none" stroke="#000"/></g><g transform="translate(301.86 330.96)"><path d="m0 0-0.041-23.062" fill="none" stroke="#fff" stroke-dasharray="4.32, 12.96" stroke-width="2"/></g><g transform="translate(301.86 477.08)"><path d="m0 0-0.041-39.005" fill="none" stroke="#fff" stroke-dasharray="4.32, 12.96" stroke-width="2"/></g><g transform="translate(301.65 116.05)"><path d="m0 0 0.164 183.54" fill="none" stroke="#fff" stroke-dasharray="4.32, 12.9" stroke-width="2"/></g><g transform="translate(224.74 679.79)"><path d="m0 0v-644.43" fill="none" stroke="#ffd24f" stroke-width="2"/></g><g transform="translate(243.87 703.68)"><path d="m0 0v-679.35" fill="none" stroke="#fff" stroke-dasharray="14.4, 43.2" stroke-width="2"/></g><g transform="translate(263.18 703.68)"><path d="m0 0v-679.35" fill="none" stroke="#fff" stroke-dasharray="14.4, 43.2" stroke-width="2"/></g><g transform="translate(282.4 703.68)"><path d="m0 0v-679.35" fill="none" stroke="#fff" stroke-dasharray="14.4, 43.2" stroke-width="2"/></g></g><text transform="matrix(1 0 0 -1 361 460.55)" fill="black" font-family="Helvetica" font-size="9px"><tspan x="0 6.4980001 11.502 14.499 21.996 27 28.997999 31.5 37.998001 39.995998 45 47.501999 52.506001 55.007999 60.012001 63.008999 65.511002 72.009003 74.007004 79.011002" y="0">Normal width or wide</tspan><tspan x="0 4.5 9.5039997 11.502 13.5 18.504 21.006001 27.504 32.507999 34.506001 37.007999 42.012001 44.514 46.512001 51.515999 56.52 61.523998 64.026001 66.024002 68.022003 73.026001" y="9.9989996">solid white lane line</tspan></text><g transform="translate(363.68 696.22)"><path d="m0 0-26.072-80.122" fill="none" stroke="#ffd24f" stroke-width="2"/></g><g transform="translate(371.16 654.01)"><path d="m0 0 11.027 36.608" fill="none" stroke="#fff" stroke-dasharray="10, 30" stroke-width="2"/></g><g clip-path="url(#a)"><g transform="translate(301.86 343.92)"><path d="m0 0v69.333c0 6.667 0.365 11.072 2.256 18.203l55.363 183.78" fill="none" stroke="#fff" stroke-width="4"/></g><g transform="translate(301.65 35.36)"><path d="m0 0v84.059c0 13.904 19.484 75.401 19.484 85.027v207.8c0 10 0.434 12.364 1.485 17.015l78.427 255.65" fill="none" stroke="#fff" stroke-width="2"/></g></g><g transform="translate(340.62 582.16)"><path d="m0 0 1.607 6 1.473-0.394-1.326 4.782-3.369-3.525 1.357-0.363-1.607-6z"/></g><g transform="translate(359.38 577.14)"><path d="m0 0 1.607 6 1.473-0.394-1.326 4.782-3.369-3.524 1.357-0.364-1.607-6z"/></g><g transform="translate(302.86 624.16)"><path d="m0 0v52.016" fill="none" stroke="#fff" stroke-miterlimit="9" stroke-width="2"/></g><g transform="translate(339.16 621.71)"><path d="m0 0-36.301-128.31v130.76" fill="none" stroke="#fff" stroke-miterlimit="9" stroke-width="4"/></g><path d="m437.77 671.22h-274.22v29.653h274.22z" fill="#fff"/><g transform="translate(235.28 610.06)"><path d="m0 0v6.211h1.523l-2.517 4.276-2.344-4.276h1.406v-6.211z"/></g><g transform="translate(254.56 610.06)"><path d="m0 0v6.211h1.523l-2.517 4.276-2.344-4.276h1.406v-6.211z"/></g><g transform="translate(273.84 610.06)"><path d="m0 0v6.211h1.523l-2.517 4.276-2.344-4.276h1.406v-6.211z"/></g><g transform="translate(293.12 610.06)"><path d="m0 0v6.211h1.523l-2.517 4.276-2.344-4.276h1.406v-6.211z"/></g><g transform="translate(303.06 578.37)"><path d="m0 0 9.514-13.704 12.99 8.388" fill="none" stroke="#fff" stroke-width="4"/></g><g transform="translate(319.23 551.65)"><path d="m0 0-9.461-6.144-6.941 10.072" fill="none" stroke="#fff" stroke-width="4"/></g><g transform="translate(313.71 530.76)"><path d="m0 0-6.748-4.422-4.012 5.889" fill="none" stroke="#fff" stroke-width="4"/></g><g transform="translate(302.95 601.79)"><path d="m0 0 12.434-17.952 15.685 10.128" fill="none" stroke="#fff" stroke-width="4"/></g><g transform="translate(303.12 623.01)"><path d="m0 0 15.076-20.004 19.112 12.478" fill="none" stroke="#fff" stroke-width="4"/></g><g transform="translate(358.65 462.82)"><path d="m0 0-49.506-24.747" fill="none" stroke="#000" stroke-width=".75"/></g><g clip-path="url(#e)"><g transform="translate(308.27 437.04)"><path d="m0 0c0.895 0.148 1.508 0.18 2.256 0.236l-1.168 2.377c-0.172-0.216-0.903-1.024-1.565-1.642-0.71-0.661-1.38-1.205-1.841-1.508 0.521 0.18 1.361 0.379 2.318 0.537"/></g><g transform="translate(199.92 399.05)"><path d="m0 0 98.219-11.313" fill="none" stroke="#000" stroke-width=".75"/></g><g transform="translate(299.43 388.13)"><path d="m0 0c-0.832 0.361-1.365 0.666-2.023 1.024l-0.307-2.63c0.262 0.089 1.312 0.371 2.205 0.531 0.955 0.172 1.814 0.265 2.363 0.269-0.533 0.132-1.347 0.42-2.238 0.806"/></g><g transform="translate(199.92 469.11)"><path d="m0 0 98.219-11.313" fill="none" stroke="#000" stroke-width=".75"/></g><g transform="translate(299.43 458.18)"><path d="m0 0c-0.832 0.361-1.365 0.666-2.023 1.024l-0.307-2.63c0.262 0.088 1.312 0.371 2.205 0.531 0.955 0.172 1.814 0.264 2.363 0.269-0.533 0.132-1.347 0.42-2.238 0.806"/></g><g transform="translate(200.42 266.24)"><path d="m0 0 97.557 7.014" fill="none" stroke="#000" stroke-width=".75"/></g><g transform="translate(299.17 273.89)"><path d="m0 0c-0.885 0.197-1.467 0.396-2.182 0.622l0.198-2.641c0.24 0.137 1.218 0.614 2.064 0.94 0.906 0.349 1.732 0.603 2.272 0.712-0.551 0.028-1.405 0.156-2.352 0.367"/></g><g transform="translate(200.42 161.97)"><path d="m0 0 97.557 7.014" fill="none" stroke="#000" stroke-width=".75"/></g><g transform="translate(299.17 169.61)"><path d="m0 0c-0.885 0.197-1.467 0.395-2.182 0.622l0.198-2.641c0.24 0.137 1.218 0.614 2.064 0.94 0.906 0.349 1.732 0.603 2.272 0.712-0.551 0.028-1.405 0.156-2.352 0.367"/></g><g transform="translate(204.57 314.65)"><path d="m0 0 43.016-11.338 31.372 9.305 65.922-18.145-1.544-8.763-65.922 18.144-31.375-9.305-43.016 11.336z" fill="#fff"/><path d="m0 0 43.016-11.338 31.372 9.305 65.922-18.145-1.544-8.763-65.922 18.144-31.375-9.305-43.016 11.336z" fill="none" stroke="#000"/></g><g transform="translate(343.34 299.79)"><path d="m0 0 11.658-2.963-9.445-14.635-11.664 2.965z" fill="#fff"/></g><g transform="translate(211.58 315.3)"><path d="m0 0-23.32 5.928-9.972-15.446 23.321-5.929z" fill="#fff"/></g></g><text transform="matrix(1 0 0 -1 386.23 560.66)" fill="black" font-family="Helvetica" font-size="9px"><tspan x="0 7.0019999 12.006 14.508 16.506001 21.51 26.514 31.518 33.515999 36.018002 42.515999 47.52 49.518002 52.02" y="0">Optional white</tspan><tspan x="0 4.5 9.5039997 14.508 19.007999 22.004999 27.009001 32.013 34.514999 42.012001 47.015999 50.013 54.513 56.511002 61.514999 66.518997" y="9.9989996">chevron markings</tspan><tspan x="0 1.998 7.0019999 9.5039997 14.508 19.511999 24.516001 27.018 30.014999 35.019001 37.016998 39.519001 44.522999 47.52 52.523998" y="19.997999">in neutral area</tspan></text><g transform="translate(384.58 553.56)"><path d="m0 0-64.438 12.417" fill="none" stroke="#000" stroke-width=".75"/></g><g clip-path="url(#d)"><g transform="translate(318.82 565.69)"><path d="m0 0c0.801-0.423 1.309-0.768 1.939-1.174l0.504 2.6c-0.265-0.069-1.336-0.272-2.238-0.364-0.965-0.099-1.828-0.126-2.379-0.09 0.524-0.171 1.315-0.52 2.174-0.972"/></g><g transform="translate(407.12 647.09)"><path d="m0 0s-60.029 2.57-83.959-23.038" fill="none" stroke="#000" stroke-width=".75"/></g><g transform="translate(322.68 622.78)"><path d="m0 0c0.791 0.44 1.359 0.677 2.043 0.982l-1.899 1.845c-0.089-0.262-0.503-1.268-0.921-2.073-0.446-0.861-0.895-1.601-1.227-2.04 0.43 0.345 1.154 0.815 2.004 1.286"/></g></g><text transform="matrix(1 0 0 -1 408.34 643.88)" fill="black" font-family="Helvetica" font-size="9px"><tspan x="0 6.0029998 11.007 15.507 20.007 22.004999 26.504999 31.509001 33.507 36.008999 41.013 46.016998 49.014" y="0">Physical gore</tspan></text><g transform="translate(202.49 596.4)"><path d="m0 0 96.717 7.232" fill="none" stroke="#000" stroke-width=".75"/></g><g clip-path="url(#c)"><g transform="translate(300.4 604.26)"><path d="m0 0c-0.885 0.203-1.463 0.405-2.178 0.637l0.182-2.642c0.24 0.134 1.221 0.605 2.07 0.925 0.906 0.344 1.735 0.593 2.276 0.698-0.551 0.031-1.405 0.166-2.35 0.382"/></g><g transform="translate(202.49 596.4)"><path d="m0 0 121.72-12.498" fill="none" stroke="#000" stroke-width=".75"/></g><g transform="translate(325.49 584.31)"><path d="m0 0c-0.836 0.352-1.371 0.65-2.035 1l-0.278-2.633c0.262 0.092 1.309 0.387 2.2 0.557 0.953 0.181 1.81 0.285 2.361 0.295-0.535 0.125-1.353 0.404-2.248 0.781"/></g></g><text transform="matrix(1 0 0 -1 112.36 402.12)" fill="black" font-family="Helvetica" font-size="9px"><tspan x="0 6.4980001 11.502 14.499 21.996 27 28.997999 31.5 37.998001 39.995998 45 47.501999 52.506001 55.007999 60.012001 63.008999 65.511002 72.009003 74.007004 79.011002 84.014999" y="0">Normal width or wide </tspan><tspan x="5.9850001 10.485 15.489 17.487 19.485001 24.489 26.990999 33.488998 38.493 40.491001 42.993 47.997002 50.499001 52.497002 57.500999 62.505001 67.509003 70.011002 72.009003 74.007004 79.011002 84.014999" y="9.9989996">solid white lane line </tspan><tspan x="-17.028 -14.031 -9.0270004 -4.0229998 -1.521 0.477 5.4809999 10.485 15.489 17.487 19.989 22.490999 26.990999 31.995001 34.992001 36.990002 41.993999 46.998001 48.995998 54 56.501999 58.5 63.504002 68.508003 73.512001 76.014 81.017998" y="19.997999">(optional, variable length)</tspan></text><g transform="translate(406.89 118.96)"><path d="m0 0h6.354v1.559l4.376-2.577-4.376-2.398v1.439h-6.354z"/></g><g transform="translate(428.37 127.47)"><path d="m0 0h29.291" fill="none" stroke="#000" stroke-width=".75"/></g><g fill="black" font-family="Helvetica"><text transform="matrix(1 0 0 -1 427.9 130.42)" font-size="9px"><tspan x="0 5.0040002 10.008 15.012 20.016001 25.02" y="0">Legend</tspan><tspan x="-7.4879999 -0.99000001 1.008 4.0050001 9.0089998 13.509 16.011 18.009001 23.013 28.017 30.518999 35.522999 38.025002 40.527 43.028999 46.026001 51.029999 55.529999 60.534" y="15.354">Direction of travel</tspan></text><text transform="matrix(1 0 0 -1 93.783 693.39)" font-size="9.5px" font-weight="bold"><tspan x="0 6.8590002 9.5 14.782 17.423 23.759501 29.0415 32.737 38.019001 40.66 43.300999 48.583 51.223999 53.865002 59.669498 64.9515 70.233498 75.515503 78.156502 83.438499 87.134003 92.416 95.579498 98.220497 104.025 109.8295 112.4705 115.1115 120.3935 126.198 131.48 134.121 139.403 142.5665 145.2075 150.4895 153.13049 161.576 167.38049 170.0215 173.185 175.826 178.9895 181.63049 186.91251 192.717 197.99899 200.64 205.922 211.20399 213.845 217.0085 219.64951 223.345 228.627 237.07249 242.877 245.51801 251.32249 256.60449 261.88651 264.5275 270.332 276.13651 278.7775 284.05951 289.86401 292.505 298.30951 304.11401 307.2775 309.91849 315.72299 321.5275 326.80951 329.4505 332.09149 337.3735 342.65549 345.29651 348.45999 351.10101 353.742 359.02399 364.82849" y="0">C – Parallel deceleration lane at a multi-lane exit ramp having an optional exit lane</tspan><tspan x="107.711 110.8745 116.679 121.961 125.1245 127.7655 133.0475 135.68851 140.9705 146.77499 149.416 154.698 159.98 163.67551 167.371 170.01199 175.29401 180.576 183.217 186.38049 192.185 197.467 200.108 203.2715 209.076 212.7715 218.576 224.38049 230.185 235.9895 238.63049 242.326 248.13049 253.935 257.09851" y="11.4">that also carries the through route</tspan></text><text transform="matrix(1 0 0 -1 94.205 285.1)" font-size="9px"><tspan x="0 6.4980001 11.502 14.499 21.996 27 28.997999 31.5 37.998001 39.995998 45 47.501999 52.506001 55.007999 60.012001 65.015999 67.517998 70.019997 75.024002 80.028 82.529999 89.028 94.031998 96.029999 98.531998 103.536" y="0">Normal width dotted white </tspan><tspan x="-8.0100002 -6.0120001 -1.008 3.9960001 9 11.502 13.5 15.498 20.502001 25.506001 28.007999 30.51 33.507 38.511002 46.007999 48.509998 53.514 58.518002 63.018002 65.519997 68.516998 73.521004 78.525002 86.022003 88.524002 93.528 98.531998 103.536" y="9.9989996">lane line from upstream end </tspan><tspan x="6.993 11.997 14.499 17.000999 19.503 24.507 26.504999 28.503 31.004999 37.502998 39.500999 44.505001 47.007 52.011002 54.513 59.516998 64.521004 69.021004 74.025002 76.023003 81.027 84.024002 89.028 91.529999 93.528 98.531998 103.536" y="19.997999">of full width deceleration </tspan><tspan x="8.9910002 10.989 15.993 20.997 26.000999 28.503 31.004999 36.008999 38.511002 43.514999 48.519001 53.019001 55.521 58.518002 63.521999 68.526001 76.023003 78.525002 83.528999 88.532997 93.537003 96.039001 101.043 103.545" y="29.997">lane to upstream end of </tspan><tspan x="25.506001 30.006001 35.009998 37.007999 39.006001 44.009998 46.512001 53.009998 58.014 60.012001 62.514 67.517998 70.019997 72.017998 77.022003 82.026001 87.029999 89.531998 91.529999 93.528 98.531998" y="39.995998">solid white lane line</tspan><tspan x="22.149 28.646999 33.651001 36.647999 44.145 49.148998 51.146999 53.648998 60.146999 62.145 67.149002 69.651001 74.654999 77.156998 82.161003 87.165001 89.667 92.168999 97.172997 102.177" y="116.847">Normal width dotted </tspan><tspan x="30.636 32.633999 37.638 42.641998 47.646 50.147999 52.146 54.144001 59.147999 64.152 66.653999 71.657997 74.654999 77.156998 82.161003 87.165001 89.667 92.168999 97.172997 102.177" y="126.846">lane line or dotted </tspan><tspan x="30.645 35.648998 40.148998 42.651001 47.654999 52.659 57.159 59.157001 64.161003 69.165001 71.667 76.670998 79.172997 81.675003 84.671997 86.669998 91.674004 96.678001 99.18" y="136.845">extension of right-</tspan><tspan x="43.127998 48.132 53.136002 58.139999 63.144001 65.646004 70.650002 75.653999 80.657997 85.662003 88.164001 90.162003 92.160004 97.164001" y="146.84399">hand edge line</tspan><tspan x="22.707001 29.205 34.209 37.206001 44.702999 49.707001 51.705002 54.207001 60.705002 62.702999 67.707001 70.209 75.212997 77.714996 82.719002 87.723 90.224998 92.726997 97.731003 102.735" y="-181.45799">Normal width dotted </tspan><tspan x="45.710999 52.209 57.213001 59.210999 61.713001 66.717003 69.219002 71.217003 76.221001 81.224998 86.228996 88.731003 90.728996 92.726997 97.731003" y="-171.459">white lane line</tspan><tspan x="-12.879 -4.3829999 -2.385 2.619 7.6230001 10.125 16.622999 21.627001 23.625 26.127001 31.131001 33.632999 38.132999 43.137001 48.140999 53.145 58.148998 63.153 65.151001 67.149002 71.649002 73.647003 78.651001 83.654999 86.156998 88.154999 90.153 95.156998 100.161" y="-308.07001">Wide white channelizing lines</tspan></text></g><g transform="translate(293.03 204.45)"><path d="m0 0h65.297" fill="none" stroke="#000" stroke-dasharray="10, 13" stroke-width=".5"/></g><g transform="translate(444.06 155.03)"><path d="m0 0v78.92l-3.111-21.215 0.282-3.677 2.263 1.98" stroke="#000"/></g><g transform="translate(447.16 202.57)"><path d="m0 0h2.665v-22.176h-3.09l-10.348 17.914h-0.056v-17.914h-2.665v22.176h3.259l10.177-17.913h0.058z"/></g></g></svg>
