<?xml version="1.0" encoding="UTF-8"?>
<svg width="548.85" height="920.05" version="1.1" viewBox="0 0 548.85 920.05" xml:space="preserve" xmlns="http://www.w3.org/2000/svg"><defs><clipPath id="g"><path d="m100.29 8.643h438.42v734.36h-438.42z"/></clipPath><clipPath id="f"><path d="m100.29 8.643h438.42v734.36h-438.42z"/></clipPath><clipPath id="e"><path d="m100.29 8.643h438.42v734.36h-438.42z"/></clipPath><clipPath id="d"><path d="m100.29 8.643h438.42v734.36h-438.42z"/></clipPath><clipPath id="c"><path d="m100.29 8.643h438.42v734.36h-438.42z"/></clipPath><clipPath id="b"><path d="m100.29 8.643h438.42v734.36h-438.42z"/></clipPath><clipPath id="a"><path d="m100.29 8.643h438.42v734.36h-438.42z"/></clipPath></defs><g transform="matrix(1.3333 0 0 -1.3333 -149.59 938.24)"><g transform="translate(244.63 673.37)"><path d="m0 0v-638.01h116.8v383.86l75.767 254.89 4.49 6.133h-197.06z" fill="#b1b4b6"/><path d="m0 0v-638.01h116.8v383.86l75.767 254.89 4.49 6.133h-197.06z" fill="none" stroke="#000"/></g><g clip-path="url(#g)"><g transform="translate(342.7 674.79)"><path d="m0 0v-39.705c0-7.092 2.077-13.294 8.392-14.134 6.864-0.913 11.581 6.323 13.393 12.352 1.532 5.096 12.315 40.999 12.315 40.999z" fill="#fff"/><path d="m0 0v-39.705c0-7.092 2.077-13.294 8.392-14.134 6.864-0.913 11.581 6.323 13.393 12.352 1.532 5.096 12.315 40.999 12.315 40.999z" fill="none" stroke="#000"/></g><g transform="translate(366.93 116.22)"><path d="m0 0h31.738" fill="none" stroke="#000" stroke-width=".75"/></g><g transform="translate(366.93 419.03)"><path d="m0 0h31.738" fill="none" stroke="#000" stroke-width=".75"/></g><g transform="translate(331.97 330.96)"><path d="m0 0-0.041-23.062" fill="none" stroke="#fff" stroke-dasharray="4.32, 12.96" stroke-width="4"/></g><g transform="translate(331.97 477.6)"><path d="m0 0-0.041-46.105" fill="none" stroke="#fff" stroke-dasharray="4.32, 12.96" stroke-width="2"/></g><g transform="translate(331.76 116.05)"><path d="m0 0 0.164 183.54" fill="none" stroke="#fff" stroke-dasharray="4.32, 12.9" stroke-width="4"/></g><g transform="translate(331.97 13.642)"><path d="m0 0v117.24" fill="none" stroke="#fff" stroke-dasharray="10, 30" stroke-width="2"/></g><g transform="translate(254.85 679.79)"><path d="m0 0v-650.01" fill="none" stroke="#ffd24f" stroke-width="2"/></g><g transform="translate(273.98 703.68)"><path d="m0 0v-679.35" fill="none" stroke="#fff" stroke-dasharray="14.4, 43.2" stroke-width="2"/></g><g transform="translate(293.29 703.68)"><path d="m0 0v-679.35" fill="none" stroke="#fff" stroke-dasharray="14.4, 43.2" stroke-width="2"/></g><g transform="translate(312.51 703.68)"><path d="m0 0v-679.35" fill="none" stroke="#fff" stroke-dasharray="14.4, 43.2" stroke-width="2"/></g></g><text transform="matrix(1 0 0 -1 391.11 459.92)" fill="black" font-family="Helvetica" font-size="9px"><tspan x="0 8.4960003 10.494 15.498 20.502001 23.004 27.504 32.507999 34.506001 36.504002 41.507999 44.009998 50.507999 55.512001 57.509998 60.012001 65.015999 67.517998 69.515999 74.519997 79.524002 84.528 87.029999 89.028 91.026001 96.029999 101.034" y="0">Wide solid white lane line </tspan></text><g transform="translate(393.79 696.22)"><path d="m0 0-26.072-80.122" fill="none" stroke="#ffd24f" stroke-width="2"/></g><g transform="translate(401.27 654.01)"><path d="m0 0 11.027 36.608" fill="none" stroke="#fff" stroke-dasharray="10, 30" stroke-width="2"/></g><g clip-path="url(#f)"><g transform="translate(331.97 343.74)"><path d="m0 0v69.507c0 6.667 0.365 11.072 2.256 18.202l55.363 183.78" fill="none" stroke="#fff" stroke-width="4"/></g><g transform="translate(351.25 28.981)"><path d="m0 0v383.27c0 9.999 0.434 12.364 1.484 17.015l78.428 255.65" fill="none" stroke="#fff" stroke-width="2"/></g></g><g transform="translate(392.58 653.93)"><path d="m0 0 1.607 6 1.473-0.394-1.326 4.782-3.369-3.525 1.357-0.363-1.607-6z"/></g><g transform="translate(411.34 648.9)"><path d="m0 0 1.607 6 1.473-0.394-1.326 4.782-3.369-3.524 1.357-0.364-1.607-6z"/></g><g transform="translate(332.97 624.16)"><path d="m0 0v52.016" fill="none" stroke="#fff" stroke-miterlimit="9" stroke-width="2"/></g><g transform="translate(369.27 621.71)"><path d="m0 0-36.301-128.31v130.76" fill="none" stroke="#fff" stroke-miterlimit="9" stroke-width="4"/></g><path d="m467.88 671.22h-274.22v29.653h274.22z" fill="#fff"/><path d="m364.78 29.1h-125.65v59.905h125.65z" fill="#fff"/><g transform="translate(265.39 651.34)"><path d="m0 0v6.211h1.523l-2.517 4.276-2.344-4.276h1.406v-6.211z"/></g><g transform="translate(284.67 651.34)"><path d="m0 0v6.211h1.523l-2.517 4.276-2.344-4.276h1.406v-6.211z"/></g><g transform="translate(303.95 651.34)"><path d="m0 0v6.211h1.523l-2.517 4.276-2.344-4.276h1.406v-6.211z"/></g><g transform="translate(323.23 651.34)"><path d="m0 0v6.211h1.523l-2.517 4.276-2.344-4.276h1.406v-6.211z"/></g><g transform="translate(265.39 98.406)"><path d="m0 0v6.211h1.523l-2.517 4.276-2.344-4.276h1.406v-6.211z"/></g><g transform="translate(284.67 98.406)"><path d="m0 0v6.211h1.523l-2.517 4.276-2.344-4.276h1.406v-6.211z"/></g><g transform="translate(303.95 98.406)"><path d="m0 0v6.211h1.523l-2.517 4.276-2.344-4.276h1.406v-6.211z"/></g><g transform="translate(323.23 98.406)"><path d="m0 0v6.211h1.523l-2.517 4.276-2.344-4.276h1.406v-6.211z"/></g><g transform="translate(342.63 98.406)"><path d="m0 0v6.211h1.523l-2.517 4.276-2.344-4.276h1.406v-6.211z"/></g><g transform="translate(333.17 578.37)"><path d="m0 0 9.514-13.704 12.99 8.388" fill="none" stroke="#fff" stroke-width="4"/></g><g transform="translate(349.34 551.65)"><path d="m0 0-9.461-6.144-6.941 10.072" fill="none" stroke="#fff" stroke-width="4"/></g><g transform="translate(343.82 530.76)"><path d="m0 0-6.748-4.422-4.012 5.889" fill="none" stroke="#fff" stroke-width="4"/></g><g transform="translate(333.06 601.79)"><path d="m0 0 12.434-17.952 15.685 10.128" fill="none" stroke="#fff" stroke-width="4"/></g><g transform="translate(333.23 623.01)"><path d="m0 0 15.076-20.004 19.112 12.478" fill="none" stroke="#fff" stroke-width="4"/></g><g transform="translate(388.76 462.82)"><path d="m0 0-49.506-24.747" fill="none" stroke="#000" stroke-width=".75"/></g><g clip-path="url(#e)"><g transform="translate(338.38 437.04)"><path d="m0 0c0.895 0.148 1.508 0.18 2.256 0.236l-1.168 2.377c-0.172-0.216-0.903-1.024-1.565-1.642-0.71-0.661-1.381-1.205-1.841-1.508 0.521 0.18 1.361 0.379 2.318 0.537"/></g><g transform="translate(230.03 470.24)"><path d="m0 0 98.219-11.313" fill="none" stroke="#000" stroke-width=".75"/></g><g transform="translate(329.54 459.31)"><path d="m0 0c-0.832 0.361-1.365 0.666-2.023 1.024l-0.307-2.63c0.262 0.089 1.312 0.371 2.205 0.531 0.955 0.172 1.814 0.265 2.363 0.269-0.533 0.132-1.347 0.42-2.238 0.806"/></g><g transform="translate(230.03 266.24)"><path d="m0 0 97.557 7.014" fill="none" stroke="#000" stroke-width=".75"/></g><g transform="translate(328.78 273.89)"><path d="m0 0c-0.885 0.197-1.467 0.396-2.182 0.622l0.198-2.641c0.24 0.137 1.218 0.614 2.064 0.94 0.906 0.349 1.732 0.603 2.272 0.712-0.551 0.028-1.405 0.156-2.352 0.367"/></g><g transform="translate(234.68 313.65)"><path d="m0 0 43.016-11.338 31.372 9.305 65.923-18.145-1.545-8.763-65.922 18.144-31.375-9.305-43.016 11.336z" fill="#fff"/><path d="m0 0 43.016-11.338 31.372 9.305 65.923-18.145-1.545-8.763-65.922 18.144-31.375-9.305-43.016 11.336z" fill="none" stroke="#000"/></g><g transform="translate(373.45 298.79)"><path d="m0 0 11.658-2.963-9.445-14.635-11.664 2.965z" fill="#fff"/></g><g transform="translate(241.69 314.3)"><path d="m0 0-23.32 5.928-9.972-15.446 23.321-5.929z" fill="#fff"/></g><g transform="translate(394.51 119.19)"><path d="m0 0-4e-3 125.46-2e-3 171.33" fill="none" stroke="#000" stroke-width=".75"/></g><g transform="translate(393.97 416.33)"><path d="m0 0c-0.264-0.867-0.504-1.432-0.783-2.128h2.648c-0.119 0.249-0.521 1.261-0.783 2.129-0.281 0.929-0.473 1.771-0.541 2.317-0.068-0.546-0.262-1.388-0.541-2.318"/></g><g transform="translate(395.05 118.92)"><path d="m0 0c0.262 0.868 0.504 1.433 0.783 2.129h-2.648c0.119-0.249 0.521-1.261 0.783-2.129 0.281-0.929 0.473-1.772 0.541-2.317 0.068 0.545 0.262 1.388 0.541 2.317"/></g></g><text transform="matrix(1 0 0 -1 416.34 560.66)" fill="black" font-family="Helvetica" font-size="9px"><tspan x="0 7.0019999 12.006 14.508 16.506001 21.51 26.514 31.518 33.515999 36.018002 42.515999 47.52 49.518002 52.02" y="0">Optional white</tspan><tspan x="0 4.5 9.5039997 14.508 19.007999 22.004999 27.009001 32.013 34.514999 42.012001 47.015999 50.013 54.513 56.511002 61.514999 66.518997" y="9.9989996">chevron markings</tspan><tspan x="0 1.998 7.0019999 9.5039997 14.508 19.511999 24.516001 27.018 30.014999 35.019001 37.016998 39.519001 44.522999 47.52 52.523998" y="19.997999">in neutral area</tspan></text><g transform="translate(414.69 553.56)"><path d="m0 0-64.438 12.417" fill="none" stroke="#000" stroke-width=".75"/></g><g clip-path="url(#d)"><g transform="translate(348.93 565.69)"><path d="m0 0c0.801-0.423 1.309-0.768 1.939-1.174l0.504 2.6c-0.265-0.069-1.336-0.272-2.238-0.364-0.965-0.099-1.828-0.126-2.379-0.09 0.524-0.171 1.315-0.52 2.174-0.972"/></g></g><text transform="matrix(1 0 0 -1 112.08 594.22)" fill="black" font-family="Helvetica" font-size="9px"><tspan x="0 8.4960003 10.494 15.498 20.502001 23.004 29.502001 34.506001 36.504002 39.006001 44.009998 46.512001 51.012001 56.015999 61.02 66.024002 71.028 76.031998 78.029999 80.028 84.528 86.526001 91.529999 96.533997 99.036003 101.034 103.032 108.036 113.04" y="0">Wide white channelizing lines</tspan></text><g clip-path="url(#c)"><g transform="translate(437.23 647.09)"><path d="m0 0s-60.029 2.57-83.959-23.038" fill="none" stroke="#000" stroke-width=".75"/></g><g transform="translate(352.79 622.78)"><path d="m0 0c0.791 0.44 1.359 0.677 2.043 0.982l-1.898 1.845c-0.09-0.262-0.504-1.268-0.922-2.073-0.446-0.861-0.895-1.601-1.227-2.04 0.43 0.345 1.154 0.815 2.004 1.286"/></g></g><text transform="matrix(1 0 0 -1 438.45 643.88)" fill="black" font-family="Helvetica" font-size="9px"><tspan x="0 6.0029998 11.007 15.507 20.007 22.004999 26.504999 31.509001 33.507 36.008999 41.013 46.016998 49.014" y="0">Physical gore</tspan></text><g transform="translate(232.6 596.4)"><path d="m0 0 96.717 7.232" fill="none" stroke="#000" stroke-width=".75"/></g><g clip-path="url(#b)"><g transform="translate(330.51 604.26)"><path d="m0 0c-0.885 0.203-1.463 0.405-2.178 0.637l0.182-2.642c0.24 0.134 1.221 0.605 2.07 0.925 0.906 0.344 1.735 0.593 2.276 0.698-0.551 0.031-1.405 0.166-2.35 0.382"/></g><g transform="translate(232.6 596.4)"><path d="m0 0 121.72-12.498" fill="none" stroke="#000" stroke-width=".75"/></g><g transform="translate(355.6 584.31)"><path d="m0 0c-0.836 0.352-1.371 0.65-2.035 1l-0.278-2.633c0.262 0.092 1.309 0.387 2.2 0.557 0.953 0.181 1.81 0.285 2.361 0.295-0.535 0.125-1.353 0.404-2.248 0.781"/></g></g><text transform="matrix(1 0 0 -1 146.96 467.88)" fill="black" font-family="Helvetica" font-size="9px"><tspan x="0 6.4980001 11.502 14.499 21.996 27 28.997999 31.5 37.998001 39.995998 45 47.501999 52.506001 55.007999 60.012001 65.015999 67.517998 70.019997 75.024002" y="0">Normal width dotted</tspan><tspan x="23.004 29.502001 34.506001 36.504002 39.006001 44.009998 46.512001 48.509998 53.514 58.518002 63.521999 66.024002 68.022003 70.019997 75.024002" y="9.9989996">white lane line</tspan></text><g transform="translate(230.03 390.45)"><path d="m0 0 98.219-11.313" fill="none" stroke="#000" stroke-width=".75"/></g><g clip-path="url(#a)"><g transform="translate(329.54 379.53)"><path d="m0 0c-0.832 0.361-1.365 0.666-2.023 1.024l-0.307-2.63c0.262 0.089 1.312 0.371 2.205 0.531 0.955 0.172 1.814 0.265 2.363 0.269-0.533 0.132-1.347 0.42-2.238 0.806"/></g></g><g><text transform="matrix(1 0 0 -1 125.94 388.09)" fill="black" font-family="Helvetica" font-size="9px"><tspan x="0 8.4960003 10.494 15.498 20.502001 23.004 27.504 32.507999 34.506001 36.504002 41.507999 44.009998 50.507999 55.512001 57.509998 60.012001 65.015999 67.517998 69.515999 74.519997 79.524002 84.528 87.029999 89.028 91.026001 96.029999 101.034" y="0">Wide solid white lane line </tspan><tspan x="-0.0089999996 2.9879999 7.9920001 12.996 15.498 17.496 22.5 27.504 32.507999 34.506001 37.007999 39.509998 44.009998 49.014 52.011002 54.008999 59.013 64.016998 66.014999 71.018997 73.521004 75.518997 80.523003 85.527 90.530998 93.032997 98.037003" y="9.9989996">(optional, variable length)</tspan><tspan x="-5.9759998 2.52 4.5180001 9.5220003 14.526 17.028 22.032 27.035999 29.538 32.040001 37.043999 42.048 44.549999 51.048 56.051998 58.049999 60.551998 65.556 68.057999 70.056 75.059998 80.064003 85.068001 87.57 89.568001 91.566002 96.57" y="124.236">Wide dotted white lane line</tspan></text><path d="m397.04 239.68h-4.215v11.286h4.215z" fill="#fff"/><text transform="matrix(1 0 0 -1 368 241.7)" fill="black" font-family="Helvetica" font-size="9px"><tspan x="0 5.0040002 7.506 12.51 15.012 22.509001 24.507 26.504999 31.509001 34.011002 41.507999 44.009998 50.507999" y="0">1/2 mile MIN.</tspan></text><text transform="matrix(1 0 0 -1 156.47 693.39)" fill="black" font-family="Helvetica" font-size="9.5px" font-weight="bold"><tspan x="0 6.8590002 9.5 14.782 17.423 23.227501 28.509501 34.313999 39.596001 42.237 48.0415 51.737 57.5415 63.346001 65.987 71.268997 74.432503 77.073502 82.355499 84.996498 93.442001 99.246498 101.8875 105.051 107.692 110.8555 113.4965 118.7785 124.583 129.86501 132.506 137.78799 143.07001 145.711 148.8745 151.5155 155.211 160.493 168.93851 174.743 177.384 183.18851 188.4705 193.7525 196.39349 202.198 208.0025 210.64349 215.92551 221.73 224.371 230.17551 235.98 239.14349 241.7845 247.589 253.39349 258.67551 261.3165 263.95749 269.2395 274.52151 277.16251 280.32599 282.96701 285.608 290.89001 296.69449" y="0">B – Lane drop at a multi-lane exit ramp having an optional exit lane</tspan><tspan x="73.643997 76.807503 82.612 87.893997 91.057503 93.698502 98.980499 101.6215 106.9035 112.708 115.349 120.631 125.913 129.60851 133.304 135.94501 141.22701 146.509 149.14999 152.31351 158.118 163.39999 166.041 169.2045 175.009 178.7045 184.509 190.31351 196.118 201.9225 204.56351 208.259 214.06351 219.868 223.03149" y="11.4">that also carries the through route</tspan></text></g><g transform="translate(440.92 97.15)"><path d="m0 0h6.353v1.559l4.377-2.577-4.377-2.398v1.439h-6.353z"/></g><g transform="translate(462.4 105.66)"><path d="m0 0h29.291" fill="none" stroke="#000" stroke-width=".75"/></g><text transform="matrix(1 0 0 -1 461.93 108.61)" fill="black" font-family="Helvetica" font-size="9px"><tspan x="0 5.0040002 10.008 15.012 20.016001 25.02" y="0">Legend</tspan><tspan x="-7.4879999 -0.99000001 1.008 4.0050001 9.0089998 13.509 16.011 18.009001 23.013 28.017 30.518999 35.522999 38.025002 40.527 43.028999 46.026001 51.029999 55.529999 60.534" y="15.354">Direction of travel</tspan></text><g transform="translate(480.28 131.45)"><path d="m0 0v78.92l-3.111-21.215 0.282-3.677 2.263 1.98" stroke="#000"/></g><g transform="translate(483.38 179)"><path d="m0 0h2.665v-22.176h-3.09l-10.348 17.914h-0.056v-17.914h-2.665v22.176h3.259l10.177-17.913h0.058z"/></g></g></svg>
