<?xml version="1.0" encoding="UTF-8"?>
<svg width="632.81" height="364.68" version="1.1" viewBox="0 0 632.81 364.68" xml:space="preserve" xmlns="http://www.w3.org/2000/svg"><defs><clipPath id="s"><path d="m25.276 440.26h516.45v302.75h-516.45z"/></clipPath><clipPath id="r"><path d="m25.276 440.26h516.45v302.75h-516.45z"/></clipPath><clipPath id="q"><path d="m25.276 440.26h516.45v302.75h-516.45z"/></clipPath><clipPath id="p"><path d="m25.276 440.26h516.45v302.75h-516.45z"/></clipPath><clipPath id="o"><path d="m25.276 440.26h516.45v302.75h-516.45z"/></clipPath><clipPath id="n"><path d="m25.276 440.26h516.45v302.75h-516.45z"/></clipPath><clipPath id="m"><path d="m25.276 440.26h516.45v302.75h-516.45z"/></clipPath><clipPath id="l"><path d="m25.276 440.26h516.45v302.75h-516.45z"/></clipPath><clipPath id="k"><path d="m25.276 440.26h516.45v302.75h-516.45z"/></clipPath><clipPath id="j"><path d="m25.276 440.26h516.45v302.75h-516.45z"/></clipPath><clipPath id="i"><path d="m25.276 440.26h516.45v302.75h-516.45z"/></clipPath><clipPath id="h"><path d="m25.276 440.26h516.45v302.75h-516.45z"/></clipPath><clipPath id="g"><path d="m25.276 440.26h516.45v302.75h-516.45z"/></clipPath><clipPath id="f"><path d="m25.276 440.26h516.45v302.75h-516.45z"/></clipPath><clipPath id="e"><path d="m25.276 440.26h516.45v302.75h-516.45z"/></clipPath><clipPath id="d"><path d="m25.276 440.26h516.45v302.75h-516.45z"/></clipPath><clipPath id="c"><path d="m25.276 440.26h516.45v302.75h-516.45z"/></clipPath><clipPath id="b"><path d="m25.276 440.26h516.45v302.75h-516.45z"/></clipPath><clipPath id="a"><path d="m25.276 440.26h516.45v302.75h-516.45z"/></clipPath></defs><g transform="matrix(1.3333 0 0 -1.3333 -69.649 959.25)"><g transform="translate(443.93 701.53)"><path d="m0 0h6.354v1.559l4.377-2.577-4.377-2.398v1.439h-6.354z"/></g><g transform="translate(465.41 710.05)"><path d="m0 0h29.291" fill="none" stroke="#000" stroke-width=".75"/></g><g><text transform="matrix(1 0 0 -1 464.94 712.99)" fill="black" font-family="Helvetica" font-size="9px"><tspan x="0 5.0040002 10.008 15.012 20.016001 25.02" y="0">Legend</tspan><tspan x="-7.4879999 -0.99000001 1.008 4.0050001 9.0089998 13.509 16.011 18.009001 23.013 28.017 30.518999 35.522999 38.025002 40.527 43.028999 46.026001 51.029999 55.529999 60.534" y="15.354">Direction of travel</tspan></text><path d="m295.99 523.7h147.34v116.65h-147.34z" fill="#b1b4b6"/><path d="m53.131 523.7h147.34v116.65h-147.34z" fill="#b1b4b6"/></g><g transform="translate(52.736 503.56)"><path d="m0 0v184.96" fill="none" stroke="#000"/></g><g transform="translate(126.21 503.56)"><path d="m0 0v184.96" fill="none" stroke="#000" stroke-dasharray="10, 2, 3, 2"/></g><g transform="translate(200.86 503.56)"><path d="m0 0v184.96" fill="none" stroke="#000"/></g><g transform="translate(89.076 618.03)"><path d="m0 0-10.979 22.515h-7.318l18.297-37.525 20.413 37.525h-8.165z" fill="#fff"/></g><g transform="translate(84.261 640.55)"><path d="m0 0 4.815-9.875 5.373 9.875z" fill="#fff"/></g><g transform="translate(162.94 546.22)"><path d="m0 0 10.979-22.515h7.318l-18.297 37.525-20.413-37.525h8.165z" fill="#fff"/></g><g transform="translate(167.76 523.7)"><path d="m0 0-4.815 9.875-5.373-9.875z" fill="#fff"/></g><g transform="translate(162.94 509.48)"><path d="m0 0v152.96" fill="none" stroke="#000" stroke-dasharray="10, 2, 3, 2"/></g><g transform="translate(53.875 559.93)"><path d="m0 0h145.64" fill="none" stroke="#000" stroke-dasharray="6"/></g><g transform="translate(234.23 560)"><path d="m0 0h-26.303" fill="none" stroke="#000" stroke-width=".75"/></g><g transform="translate(234.23 601.9)"><path d="m0 0h-26.303" fill="none" stroke="#000" stroke-width=".75"/></g><g transform="translate(234.23 640.68)"><path d="m0 0h-26.303" fill="none" stroke="#000" stroke-width=".75"/></g><g transform="translate(234.23 523.44)"><path d="m0 0h-26.303" fill="none" stroke="#000" stroke-width=".75"/></g><g transform="translate(221.06 532.37)"><path d="m0 0v-4.996" fill="none" stroke="#000" stroke-width=".75"/></g><g clip-path="url(#s)"><g transform="translate(221.6 526.13)"><path d="m0 0c0.262 0.868 0.504 1.433 0.783 2.129h-2.648c0.118-0.25 0.52-1.261 0.783-2.129 0.28-0.929 0.473-1.771 0.541-2.317 0.068 0.546 0.261 1.388 0.541 2.317"/></g></g><g transform="translate(221.06 556.07)"><path d="m0 0v-4.988" fill="none" stroke="#000" stroke-width=".75"/></g><g clip-path="url(#r)"><g transform="translate(220.52 557.31)"><path d="m0 0c-0.263-0.868-0.504-1.432-0.783-2.128h2.648c-0.119 0.249-0.521 1.26-0.783 2.128-0.281 0.929-0.473 1.771-0.541 2.318-0.068-0.547-0.261-1.389-0.541-2.318"/></g></g><g transform="translate(221.06 612.48)"><path d="m0 0v-6.655" fill="none" stroke="#000" stroke-width=".75"/></g><g clip-path="url(#q)"><g transform="translate(221.6 604.59)"><path d="m0 0c0.262 0.868 0.504 1.433 0.783 2.129h-2.648c0.118-0.25 0.52-1.261 0.783-2.129 0.28-0.929 0.473-1.771 0.541-2.317 0.068 0.546 0.261 1.388 0.541 2.317"/></g></g><g transform="translate(221.06 636.75)"><path d="m0 0v-5.55" fill="none" stroke="#000" stroke-width=".75"/></g><g clip-path="url(#p)"><g transform="translate(220.52 637.99)"><path d="m0 0c-0.263-0.868-0.504-1.432-0.783-2.128h2.648c-0.119 0.249-0.521 1.26-0.783 2.128-0.281 0.929-0.473 1.771-0.541 2.318-0.068-0.547-0.261-1.389-0.541-2.318"/></g></g><g transform="translate(70.549 650.7)"><path d="m0 0v17.117" fill="none" stroke="#000" stroke-width=".75"/></g><g transform="translate(108.88 650.7)"><path d="m0 0v17.117" fill="none" stroke="#000" stroke-width=".75"/></g><g transform="translate(96.896 660.75)"><path d="m0 0h8.047" fill="none" stroke="#000" stroke-width=".75"/></g><g clip-path="url(#o)"><g transform="translate(106.18 661.29)"><path d="m0 0c-0.867 0.262-1.432 0.504-2.128 0.783v-2.648c0.249 0.118 1.261 0.521 2.128 0.783 0.93 0.281 1.771 0.473 2.318 0.541-0.547 0.068-1.388 0.261-2.318 0.541"/></g></g><g transform="translate(74.482 660.75)"><path d="m0 0h7.765" fill="none" stroke="#000" stroke-width=".75"/></g><g clip-path="url(#n)"><g transform="translate(73.241 660.21)"><path d="m0 0c0.868-0.262 1.433-0.503 2.129-0.783v2.648c-0.25-0.118-1.261-0.521-2.129-0.783-0.929-0.281-1.771-0.473-2.317-0.541 0.546-0.068 1.388-0.26 2.317-0.541"/></g></g><g transform="translate(295.59 503.56)"><path d="m0 0v184.96" fill="none" stroke="#000"/></g><g transform="translate(369.06 503.56)"><path d="m0 0v184.96" fill="none" stroke="#000" stroke-dasharray="10, 2, 3, 2"/></g><g transform="translate(443.72 503.56)"><path d="m0 0v184.96" fill="none" stroke="#000"/></g><g transform="translate(331.93 618.03)"><path d="m0 0-10.979 22.515h-7.318l18.297-37.525 20.413 37.525h-8.165z" fill="#fff"/></g><g transform="translate(327.12 640.55)"><path d="m0 0 4.815-9.875 5.372 9.875z" fill="#fff"/></g><g transform="translate(331.93 537.19)"><path d="m0 0-10.979 22.515h-7.318l18.297-37.525 20.413 37.525h-8.165z" fill="#fff"/></g><g transform="translate(327.12 559.71)"><path d="m0 0 4.815-9.875 5.372 9.875z" fill="#fff"/></g><g transform="translate(405.8 546.22)"><path d="m0 0 10.977-22.515h7.319l-18.296 37.525-20.414-37.525h8.166z" fill="#fff"/></g><g transform="translate(410.61 523.7)"><path d="m0 0-4.814 9.875-5.374-9.875z" fill="#fff"/></g><g transform="translate(405.8 625.83)"><path d="m0 0 10.977-22.515h7.319l-18.296 37.525-20.414-37.525h8.166z" fill="#fff"/></g><g transform="translate(410.61 603.32)"><path d="m0 0-4.814 9.875-5.374-9.875z" fill="#fff"/></g><g transform="translate(331.93 509.48)"><path d="m0 0v134.73" fill="none" stroke="#000" stroke-dasharray="10, 2, 3, 2"/></g><g transform="translate(296.73 559.93)"><path d="m0 0h145.64" fill="none" stroke="#000" stroke-dasharray="6"/></g><g transform="translate(53.875 601.55)"><path d="m0 0h145.64" fill="none" stroke="#000" stroke-dasharray="6"/></g><g transform="translate(296.73 601.55)"><path d="m0 0h145.64" fill="none" stroke="#000" stroke-dasharray="6"/></g><g transform="translate(417.54 521.65)"><path d="m0 0 23.399-43.982" fill="#fff" stroke="#000" stroke-width=".75"/></g><g transform="translate(424.76 522.18)"><path d="m0 0 23.399-43.982" fill="#fff" stroke="#000" stroke-width=".75"/></g><g transform="translate(411.04 522.18)"><path d="m0 0 8.37-15.339" fill="#fff" stroke="#000" stroke-width=".75"/></g><g transform="translate(313.41 650.7)"><path d="m0 0v17.117" fill="none" stroke="#000" stroke-width=".75"/></g><g transform="translate(351.73 650.7)"><path d="m0 0v17.117" fill="none" stroke="#000" stroke-width=".75"/></g><g transform="translate(340.28 660.75)"><path d="m0 0h7.847" fill="none" stroke="#000" stroke-width=".75"/></g><g clip-path="url(#m)"><g transform="translate(349.04 661.29)"><path d="m0 0c-0.868 0.262-1.433 0.504-2.129 0.783v-2.648c0.249 0.118 1.261 0.521 2.129 0.783 0.929 0.281 1.771 0.473 2.317 0.541-0.546 0.068-1.388 0.261-2.317 0.541"/></g></g><g transform="translate(316.64 660.75)"><path d="m0 0h6.996" fill="none" stroke="#000" stroke-width=".75"/></g><g clip-path="url(#l)"><g transform="translate(316.1 660.21)"><path d="m0 0c0.868-0.262 1.433-0.503 2.129-0.783v2.648c-0.249-0.118-1.261-0.521-2.129-0.783-0.929-0.281-1.772-0.473-2.317-0.541 0.545-0.068 1.388-0.26 2.317-0.541"/></g></g><g transform="translate(439.46 485.03)"><path d="m0 0 2.039 1.132" fill="none" stroke="#000" stroke-width=".75"/></g><g transform="translate(441.43 485.47)"><path d="m0 0 1.613 1.56-2.177-0.544z"/></g><g transform="translate(439.52 485.73)"><path d="m0 0-1.613-1.56 2.178 0.544z"/></g><g transform="translate(222.61 654.21)"><path d="m0 0h-31.864l-24.052-10.378" fill="none" stroke="#000" stroke-width=".75"/></g><g clip-path="url(#k)"><g transform="translate(165.77 642.85)"><path d="m0 0c0.9 0.103 1.515 0.105 2.265 0.125l-1.05 2.431c-0.182-0.208-0.95-0.978-1.644-1.562-0.742-0.626-1.439-1.136-1.914-1.415 0.53 0.153 1.379 0.311 2.343 0.421"/></g></g><g transform="translate(268.27 654.21)"><path d="m0 0h32.826l26.996-11.583" fill="none" stroke="#000" stroke-width=".75"/></g><g clip-path="url(#j)"><g transform="translate(329.44 642.63)"><path d="m0 0c-0.694 0.583-1.117 1.027-1.647 1.559l-1.044-2.434c0.275 0.011 1.364-0.018 2.264-0.12 0.965-0.108 1.815-0.264 2.344-0.416-0.476 0.278-1.174 0.787-1.917 1.411"/></g></g><g transform="translate(281.29 701.43)"><path d="m0 0h65.074l19.186-13.15" fill="none" stroke="#000" stroke-width=".75"/></g><g clip-path="url(#i)"><g transform="translate(366.88 688.02)"><path d="m0 0c-0.567 0.707-0.897 1.225-1.313 1.85l-1.498-2.185c0.273-0.043 1.335-0.283 2.199-0.557 0.926-0.294 1.728-0.612 2.217-0.864-0.412 0.365-0.998 1-1.605 1.756"/></g></g><g transform="translate(222.28 701.43)"><path d="m0 0h-71.855l-20.721-13.504" fill="none" stroke="#000" stroke-width=".75"/></g><g clip-path="url(#h)"><g transform="translate(128.96 686.79)"><path d="m0 0c0.871 0.254 1.476 0.36 2.211 0.506l-1.446 2.219c-0.144-0.235-0.771-1.125-1.356-1.818-0.625-0.743-1.225-1.363-1.645-1.719 0.495 0.241 1.305 0.54 2.236 0.812"/></g></g><g transform="translate(405.65 459.79)"><path d="m0 0v15.884h-3.896l6.44 10.942 5.996-10.942h-3.599v-15.884z"/></g><g transform="translate(162.65 459.79)"><path d="m0 0v15.884h-3.896l6.44 10.942 5.996-10.942h-3.599v-15.884z"/></g><g transform="translate(330.65 486.62)"><path d="m0 0v-15.884h-3.896l6.44-10.942 5.996 10.942h-3.599v15.884z"/></g><g transform="translate(85.647 486.62)"><path d="m0 0v-15.884h-3.896l6.44-10.942 5.996 10.942h-3.599v15.884z"/></g><g transform="translate(459.23 495.83)"><path d="m0 0-12.392-6.755" fill="none" stroke="#000" stroke-width=".75"/></g><g clip-path="url(#g)"><g transform="translate(446 488.01)"><path d="m0 0c0.888 0.185 1.498 0.243 2.243 0.331l-1.268 2.325c-0.162-0.223-0.856-1.06-1.493-1.706-0.681-0.691-1.329-1.263-1.776-1.584 0.513 0.201 1.344 0.436 2.294 0.634"/></g></g><text transform="matrix(1 0 0 -1 106.92 710.75)" fill="black" font-family="Helvetica" font-size="9.5px" font-weight="bold"><tspan x="0 7.3909998 13.7275 19.532 22.173 29.563999 36.423 38.712502 237.90849 245.2995 251.636 257.44049 260.08151 267.4725 274.33151 276.9725" y="0">OPTION AOPTION B</tspan></text><text transform="matrix(1 0 0 -1 83.33 658.05)" fill="black" font-family="Helvetica" font-size="9px"><tspan x="0 5.0040002 7.506 10.008" y="0">6 ft</tspan><tspan x="140.562 147.06 149.562 154.56599 157.06799 159.57001 166.06799 171.07201 176.076 181.08 187.578 192.582" y="-41.210999">C of Roadway</tspan><tspan x="143.037" y="-39.077999">L</tspan><tspan x="242.30701 247.311 249.813 252.315" y="-0.054000001">6 ft</tspan><tspan x="377.45999 382.46399 387.46799 390.465 392.46301 397.46701 401.96701" y="164.313">12-inch</tspan><tspan x="377.45999 383.95801 388.96201 390.95999 393.46201" y="173.817">white</tspan><tspan x="377.45999 384.957 389.961 392.95801 397.45801 399.45599 404.45999 409.46399" y="183.321">markings</tspan><tspan x="143.685 150.183 155.187 160.19099 162.69299 167.69701 170.694 173.196 178.2" y="1.791">Center of</tspan><tspan x="141.435 143.937 146.93401 151.938 156.438 161.442 163.44 165.942 167.94 172.944 177.948" y="11.295">travel lane</tspan><tspan x="131.44501 136.44901 138.951 141.453" y="34.424999">6 ft</tspan><tspan x="124.947 127.449 131.94901 136.953 138.951 143.451 148.455" y="43.929001">typical</tspan><tspan x="131.49899 136.50301 139.005 141.507" y="114.588">6 ft</tspan><tspan x="125.001 127.503 132.00301 137.007 139.005 143.505 148.509" y="124.092">typical</tspan></text><g transform="translate(476.98 560)"><path d="m0 0h-26.274" fill="none" stroke="#000" stroke-width=".75"/></g><g transform="translate(476.98 601.9)"><path d="m0 0h-26.274" fill="none" stroke="#000" stroke-width=".75"/></g><g transform="translate(476.98 640.68)"><path d="m0 0h-26.274" fill="none" stroke="#000" stroke-width=".75"/></g><g transform="translate(476.98 523.44)"><path d="m0 0h-26.274" fill="none" stroke="#000" stroke-width=".75"/></g><g transform="translate(463.84 530.33)"><path d="m0 0v-3.796" fill="none" stroke="#000" stroke-width=".75"/></g><g clip-path="url(#f)"><g transform="translate(464.38 526.13)"><path d="m0 0c0.262 0.868 0.504 1.433 0.783 2.129h-2.648c0.118-0.25 0.521-1.261 0.783-2.129 0.28-0.929 0.473-1.771 0.541-2.317 0.068 0.546 0.261 1.388 0.541 2.317"/></g></g><g transform="translate(463.84 556.3)"><path d="m0 0v-7.28" fill="none" stroke="#000" stroke-width=".75"/></g><g clip-path="url(#e)"><g transform="translate(463.3 557.31)"><path d="m0 0c-0.263-0.868-0.504-1.432-0.783-2.128h2.648c-0.118 0.249-0.521 1.26-0.783 2.128-0.28 0.929-0.473 1.771-0.541 2.318-0.068-0.547-0.261-1.389-0.541-2.318"/></g></g><g transform="translate(463.84 611.13)"><path d="m0 0v-4.649" fill="none" stroke="#000" stroke-width=".75"/></g><g clip-path="url(#d)"><g transform="translate(464.38 604.59)"><path d="m0 0c0.262 0.868 0.504 1.433 0.783 2.129h-2.648c0.118-0.25 0.521-1.261 0.783-2.129 0.28-0.929 0.473-1.771 0.541-2.317 0.068 0.546 0.261 1.388 0.541 2.317"/></g></g><g transform="translate(463.84 636.25)"><path d="m0 0v-6.065" fill="none" stroke="#000" stroke-width=".75"/></g><g clip-path="url(#c)"><g transform="translate(463.3 637.99)"><path d="m0 0c-0.263-0.868-0.504-1.432-0.783-2.128h2.648c-0.118 0.249-0.521 1.26-0.783 2.128-0.28 0.929-0.473 1.771-0.541 2.318-0.068-0.547-0.261-1.389-0.541-2.318"/></g></g><text transform="matrix(1 0 0 -1 457.55 622.71)" fill="black" font-family="Helvetica" font-size="9px"><tspan x="0 5.0040002 7.506 10.008" y="0">6 ft</tspan><tspan x="-6.4980001 -3.9960001 0.50400001 5.5079999 7.506 12.006 17.01" y="9.5039997">typical</tspan><tspan x="0.054000001 5.0580001 7.5599999 10.062" y="81.369003">6 ft</tspan><tspan x="-6.4439998 -3.9419999 0.55800003 5.5619998 7.5599999 12.06 17.063999" y="90.873001">typical</tspan><tspan x="-395.073 -388.57501 -385.578 -380.57401 -376.07401 -371.57401 -365.07599 -360.07199 -358.07401 -353.57401 -351.07199 -346.06799" y="35.361">Crosswalk or</tspan><tspan x="-392.33701 -387.83701 -382.83301 -377.82901 -372.82501 -367.82101 -365.319 -362.81699 -357.81299 -352.80899 -350.811" y="44.865002">speed table</tspan><tspan x="-378.07199 -373.06799 -370.07101 -365.06699" y="54.368999">area</tspan><tspan x="-77.462997 -70.964996 -67.968002 -62.964001 -58.464001 -53.964001 -47.466 -42.462002 -40.464001 -35.964001 -33.462002 -28.458" y="35.306999">Crosswalk or</tspan><tspan x="-74.726997 -70.226997 -65.223 -60.219002 -55.215 -50.210999 -47.709 -45.207001 -40.202999 -35.199001 -33.201" y="44.811001">speed table</tspan><tspan x="-60.462002 -55.458 -52.460999 -47.457001" y="54.314999">area</tspan></text><g transform="translate(419.86 510.55)"><path d="m0 0 0.851 0.492" fill="none" stroke="#000" stroke-width=".75"/></g><g transform="translate(420.64 510.35)"><path d="m0 0 1.613 1.561-2.177-0.545z"/></g><g transform="translate(419.94 511.25)"><path d="m0 0-1.613-1.561 2.177 0.545z"/></g><text transform="matrix(1 0 0 -1 382.01 493.16)" fill="black" font-family="Helvetica" font-size="9px"><tspan x="0 5.0040002 10.008 12.51 14.508 19.511999 24.011999 29.016001 34.02" y="0">12 inches</tspan></text><g clip-path="url(#b)"><g transform="translate(422.1 495.75)"><path d="m0 0s6.477 0.372 0.246 11.354" fill="none" stroke="#000" stroke-linejoin="bevel" stroke-width=".75"/></g><g transform="translate(421.33 507.89)"><path d="m0 0c0.181-0.845 0.237-1.426 0.323-2.136l2.21 1.215c-0.212 0.154-1.013 0.814-1.63 1.418-0.66 0.646-1.207 1.262-1.515 1.686 0.193-0.488 0.421-1.279 0.612-2.183"/></g><g transform="translate(174.69 521.65)"><path d="m0 0 23.399-43.982" fill="#fff" stroke="#000" stroke-width=".75"/></g><g transform="translate(181.9 522.18)"><path d="m0 0 23.4-43.982" fill="#fff" stroke="#000" stroke-width=".75"/></g><g transform="translate(168.18 522.18)"><path d="m0 0 8.37-15.339" fill="#fff" stroke="#000" stroke-width=".75"/></g><g transform="translate(196.6 485.03)"><path d="m0 0 2.039 1.132" fill="none" stroke="#000" stroke-width=".75"/></g><g transform="translate(198.57 485.47)"><path d="m0 0 1.613 1.56-2.176-0.544z"/></g><g transform="translate(196.67 485.73)"><path d="m0 0-1.613-1.56 2.177 0.544z"/></g><g transform="translate(215.82 495.78)"><path d="m0 0-12.392-6.755" fill="none" stroke="#000" stroke-width=".75"/></g><g transform="translate(203.06 488.23)"><path d="m0 0c0.888 0.185 1.499 0.243 2.244 0.331l-1.267 2.325c-0.163-0.223-0.858-1.06-1.495-1.706-0.681-0.691-1.329-1.263-1.776-1.584 0.513 0.201 1.344 0.436 2.294 0.634"/></g></g><text transform="matrix(1 0 0 -1 217.93 493.74)" fill="black" font-family="Helvetica" font-size="9px"><tspan x="0 5.0040002 10.008 13.005 15.003 20.007 24.507" y="0">12-inch</tspan><tspan x="0 6.4980001 11.502 13.5 16.002001" y="9.5039997">white</tspan><tspan x="0 7.4970002 12.501 15.498 19.997999 21.996 27 32.004002" y="19.007999">markings</tspan></text><text transform="matrix(1 0 0 -1 210.39 446.02)" fill="black" font-family="Helvetica" font-size="8px"><tspan x="0 5.776 10.224 12.448 16.896 19.120001 21.344 27.120001 29.784 34.231998 38.231998 42.231998 48.007999 52.456001 54.231998 58.231998 60.456001 62.231998 64.008003 68.456001 72.903999 76.903999 79.127998 83.575996 86.239998 90.688004 92.912003 97.360001 101.808 104.032 106.256 110.256 114.704 119.152 124.928" y="0">Note: Crosswalk lines are not shown</tspan></text><g transform="translate(177 510.55)"><path d="m0 0 0.851 0.492" fill="none" stroke="#000" stroke-width=".75"/></g><g transform="translate(177.79 510.35)"><path d="m0 0 1.613 1.561-2.177-0.545z"/></g><g transform="translate(177.09 511.25)"><path d="m0 0-1.613-1.561 2.177 0.545z"/></g><text transform="matrix(1 0 0 -1 139.15 494.16)" fill="black" font-family="Helvetica" font-size="9px"><tspan x="0 5.0040002 10.008 12.51 14.508 19.511999 24.011999 29.016001 34.02" y="0">12 inches</tspan></text><g clip-path="url(#a)"><g transform="translate(179.25 495.75)"><path d="m0 0s6.477 0.372 0.246 11.354" fill="none" stroke="#000" stroke-linejoin="bevel" stroke-width=".75"/></g><g transform="translate(178.41 507.91)"><path d="m0 0c0.2-0.884 0.27-1.494 0.369-2.238l2.304 1.307c-0.226 0.159-1.075 0.839-1.732 1.465-0.702 0.67-1.285 1.307-1.614 1.749 0.21-0.509 0.459-1.337 0.673-2.283"/></g><g transform="translate(510.76 601.76)"><path d="m0 0v78.92l-3.111-21.215 0.282-3.677 2.263 1.98" stroke="#000"/></g><g transform="translate(513.86 649.31)"><path d="m0 0h2.665v-22.176h-3.09l-10.348 17.914h-0.056v-17.914h-2.665v22.176h3.259l10.177-17.913h0.058z"/></g></g></g></svg>
