<?xml version="1.0" encoding="UTF-8"?>
<svg width="639.07" height="864.85" version="1.1" viewBox="0 0 639.07 864.85" xml:space="preserve" xmlns="http://www.w3.org/2000/svg"><defs><clipPath id="i"><path d="m66.459 52.091h506.08v690.91h-506.08z"/></clipPath><clipPath id="h"><path d="m66.459 52.091h506.08v690.91h-506.08z"/></clipPath><clipPath id="g"><path d="m66.459 52.091h506.08v690.91h-506.08z"/></clipPath><clipPath id="f"><path d="m66.459 52.091h506.08v690.91h-506.08z"/></clipPath><clipPath id="e"><path d="m66.459 52.091h506.08v690.91h-506.08z"/></clipPath><clipPath id="d"><path d="m66.459 52.091h506.08v690.91h-506.08z"/></clipPath><clipPath id="c"><path d="m66.459 52.091h506.08v690.91h-506.08z"/></clipPath><clipPath id="b"><path d="m66.459 52.091h506.08v690.91h-506.08z"/></clipPath><clipPath id="a"><path d="m66.459 52.091h506.08v690.91h-506.08z"/></clipPath></defs><g transform="matrix(1.3333 0 0 -1.3333 -104.48 940.97)"><g clip-path="url(#i)"><g transform="translate(238.9 58.158)"><path d="m0 0v18.735l16.497 91.416v255.45s0.568 76.366 8.902 101.7c13.16 40.004 34.453 86.972 62.158 118.22l-34.261 35.552s-40.607-58.675-44.414-66.293c-3.806-7.618-10.151-12.696-10.151-1.269v74.617h-63.446v-628.14" fill="#b1b4b6" stroke="#000"/></g></g><g transform="translate(188.05 682.46)"><path d="m0 0v-624.3" fill="none" stroke="#ffd046" stroke-width="2"/></g><g clip-path="url(#h)"><g transform="translate(452.18 58.158)"><path d="m0 0 0.018 115.35 78.24 528.37-48.549 1.297-17.943-118.58s-7.1-18.253-7.1-0.065v117.54l-66.5-0.191v-643.71" fill="#b1b4b6" stroke="#000"/></g><g transform="translate(226.66 58.158)"><path d="m0 0v16.851c0.045 0.267 19.393 97.685 19.393 97.685v245.43c1e-3 0.4 1.24 59.082 1.421 92.394 0.161 29.596 34.983 103.37 71.168 142.95" fill="none" stroke="#fff" stroke-width="2"/></g></g><g transform="translate(226.66 420.45)"><path d="m0 0v-333.58" fill="none" stroke="#fff" stroke-dasharray="4.32, 12.96" stroke-width="2"/></g><g transform="translate(226.66 609.78)"><path d="m0 0v-189.33" fill="none" stroke="#fff" stroke-width="4"/></g><g transform="translate(226.66 685.63)"><path d="m0 0v-75.851" fill="none" stroke="#fff" stroke-width="2"/></g><g transform="translate(207.35 664.42)"><path d="m0 0v-607.33" fill="none" stroke="#fff" stroke-dasharray="14.4, 43.2" stroke-width="2"/></g><g clip-path="url(#g)"><g transform="translate(255.25 597.63)"><path d="m0 0c-30.735-66.347-28.592-87.088-28.592-88.526" fill="none" stroke="#fff" stroke-width="4"/></g><g transform="translate(300.51 672.78)"><path d="m0 0c-20.144-28.425-34.712-52.362-45.266-75.145" fill="none" stroke="#ffd046" stroke-width="2"/></g><g transform="translate(225.85 601.54)"><path d="m0 0 0.603-3.638 9.634-15.523 17.39 8.943 0.434 4.646-2.264-1.089s-11.474-5.9-14.108-7.254c-1.61 2.594-9.801 15.792-9.801 15.792z" fill="#fff"/></g><g transform="translate(226.91 581.38)"><path d="m0 0 8.471-10.9 11.129 6.5" fill="none" stroke="#fff" stroke-width="4"/></g><g transform="translate(225.65 565.78)"><path d="m0 0 0.735-2.843 5.737-7.466 9.117 4.455 0.417 1.295-0.421 3.154s-5.842-2.854-7.933-3.876c-1.452 1.89-5.818 7.572-5.818 7.572z" fill="#fff"/></g><g transform="translate(166.32 545.58)"><path d="m0 0 66.267 24.548" fill="none" stroke="#000" stroke-width=".75"/></g><g transform="translate(233.56 571.06)"><path d="m0 0c-0.905-0.056-1.518-0.026-2.268-7e-3l0.922-2.482c0.193 0.197 1 0.927 1.722 1.475 0.774 0.587 1.497 1.06 1.985 1.315-0.536-0.127-1.393-0.24-2.361-0.301"/></g><g transform="translate(166.32 599.67)"><path d="m0 0 69.649 4.568" fill="none" stroke="#000" stroke-width=".75"/></g><g transform="translate(237.17 604.86)"><path d="m0 0c-0.884 0.205-1.462 0.409-2.175 0.643l0.173-2.643c0.241 0.134 1.223 0.602 2.072 0.92 0.91 0.341 1.737 0.588 2.278 0.691-0.55 0.034-1.403 0.169-2.348 0.389"/></g></g><text transform="matrix(1 0 0 -1 119.35 481.38)" fill="black" font-family="Helvetica" font-size="9px"><tspan x="0 8.4960003 10.494 15.498 20.502001 23.004 29.502001 34.506001 36.504002 39.006001" y="0">Wide white</tspan><tspan x="-6.0209999 -1.521 3.483 8.4870005 13.491 18.495001 23.499001 25.497 27.495001 31.995001 33.993 38.997002" y="9.9989996">channelizing</tspan><tspan x="25.506001 27.504 29.502001 34.506001 39.509998" y="19.997999">lines</tspan><tspan x="10.503 16.506001 21.51 26.01 30.51 32.507999 37.007999 42.012001" y="-120.888">Physical</tspan><tspan x="26.000999 31.004999 36.008999 39.006001" y="-110.889">gore</tspan><tspan x="397.49399 403.49701 408.50101 413.00101 417.50101 419.49899 423.99899 429.00299" y="-62.604">Physical</tspan><tspan x="397.49399 402.49799 407.50201 410.49899" y="-52.605">gore</tspan></text><g transform="translate(401.95 702.06)"><path d="m0 0v-643.9" fill="none" stroke="#ffd046" stroke-width="2"/></g><g transform="translate(421.32 666.03)"><path d="m0 0v-606.58" fill="none" stroke="#fff" stroke-dasharray="14.4, 43.2" stroke-width="2"/></g><g transform="translate(440.54 349.23)"><path d="m0 0v-161.57" fill="none" stroke="#fff" stroke-dasharray="4.32, 12.96" stroke-width="2"/></g><g transform="translate(440.54 702.06)"><path d="m0 0v-115.3" fill="none" stroke="#fff" stroke-width="2"/></g><g transform="translate(440.54 586.77)"><path d="m0 0v-237.55" fill="none" stroke="#fff" stroke-width="4"/></g><g transform="translate(440.54 493.01)"><path d="m0 0 10.334-13.096 10.502 7.774" fill="none" stroke="#fff" stroke-width="4"/></g><g transform="translate(458.32 467.33)"><path d="m0 0-9.066-6.712-8.707 11.032" fill="none" stroke="#fff" stroke-width="4"/></g><g transform="translate(455.25 446.96)"><path d="m0 0-7.633-5.65-7.078 8.967" fill="none" stroke="#fff" stroke-width="4"/></g><g transform="translate(452.19 426.6)"><path d="m0 0-6.199-4.589-5.449 6.905" fill="none" stroke="#fff" stroke-width="4"/></g><g transform="translate(473.63 569.15)"><path d="m0 0-16.236-12.02-16.848 21.351" fill="none" stroke="#fff" stroke-width="4"/></g><g transform="translate(440.54 514.38)"><path d="m0 0 11.963-15.16 11.935 8.835" fill="none" stroke="#fff" stroke-width="4"/></g><g transform="translate(440.54 535.75)"><path d="m0 0 13.592-17.224 13.367 9.898" fill="none" stroke="#fff" stroke-width="4"/></g><g transform="translate(470.56 548.78)"><path d="m0 0-14.801-10.958-15.221 19.287" fill="none" stroke="#fff" stroke-width="4"/></g><g transform="translate(474.99 578.19)"><path d="m0 0-34.43-228.96" fill="none" stroke="#fff" stroke-width="4"/></g><g transform="translate(493.55 693.43)"><path d="m0 0-18.56-115.24" fill="none" stroke="#ffd046" stroke-width="2"/></g><g transform="translate(518.24 696.94)"><path d="m0 0-77.646-521.92-0.051-116.87" fill="none" stroke="#fff" stroke-width="2"/></g><g transform="translate(382.03 185.44)"><path d="m0 0 55.35 38.368" fill="none" stroke="#000" stroke-width=".75"/></g><g clip-path="url(#f)"><g transform="translate(438.09 224.96)"><path d="m0 0c-0.863-0.277-1.465-0.399-2.195-0.566l1.505-2.178c0.137 0.239 0.741 1.145 1.305 1.854 0.606 0.759 1.19 1.397 1.6 1.763-0.488-0.254-1.291-0.575-2.215-0.873"/></g></g><text transform="matrix(1 0 0 -1 502.65 412.61)" fill="black" font-family="Helvetica" font-size="9px"><tspan x="0 8.4960003 10.494 15.498 20.502001 23.004 29.502001 34.506001 36.504002 39.006001 44.009998" y="0">Wide white </tspan><tspan x="0 4.5 9.5039997 14.508 19.511999 24.516001 29.52 31.518 33.515999 38.015999 40.014 45.018002" y="9.9989996">channelizing</tspan><tspan x="0 1.998 3.9960001 9 14.004" y="19.997999">lines</tspan></text><g transform="translate(382.84 517.99)"><path d="m0 0 66.096 21.151" fill="none" stroke="#000" stroke-width=".75"/></g><g clip-path="url(#e)"><g transform="translate(449.95 540.03)"><path d="m0 0c-0.906-0.015-1.518 0.043-2.266 0.098l0.807-2.523c0.201 0.189 1.041 0.881 1.789 1.395 0.799 0.55 1.543 0.99 2.043 1.221-0.543-0.101-1.402-0.175-2.373-0.191"/></g><g transform="translate(218.46 171.04)"><path d="m0 0h65.297" fill="none" stroke="#000" stroke-dasharray="10, 13" stroke-width=".5"/></g><g transform="translate(339.11 629.69)"><path d="m0 0-52.952 54.954 6.317 6.087 52.953-54.954z" fill="#fff"/></g><g transform="translate(410.7 469.69)"><path d="m0 0v6.354h-1.559l2.576 4.376 2.399-4.376h-1.439v-6.354z"/></g><g transform="translate(429.98 469.69)"><path d="m0 0v6.354h-1.559l2.576 4.376 2.399-4.376h-1.439v-6.354z"/></g><g transform="translate(471.55 469.63)"><path d="m0 0 1.098 6.259-1.535 0.269 3.292 3.866 1.606-4.725-1.418 0.249-1.098-6.259z"/></g><g transform="translate(235.42 271.62)"><path d="m0 0v6.354h-1.559l2.577 4.376 2.398-4.376h-1.439v-6.354z"/></g><g transform="translate(216.14 271.62)"><path d="m0 0v6.354h-1.559l2.577 4.376 2.398-4.376h-1.439v-6.354z"/></g><g transform="translate(196.86 271.62)"><path d="m0 0v6.354h-1.559l2.577 4.376 2.398-4.376h-1.439v-6.354z"/></g><g transform="translate(224.16 552.86)"><path d="m0 0-57.84-77.667" fill="none" stroke="#000" stroke-width=".75"/></g><g transform="translate(224.47 554.18)"><path d="m0 0c-0.73-0.538-1.262-0.844-1.903-1.234l2.119-1.588c0.055 0.271 0.339 1.321 0.65 2.174 0.332 0.911 0.683 1.7 0.956 2.179-0.382-0.397-1.041-0.956-1.822-1.531"/></g><g transform="translate(166.32 475.2)"><path d="m0 0 64.398 66.272" fill="none" stroke="#000" stroke-width=".75"/></g><g transform="translate(231.19 542.73)"><path d="m0 0c-0.792-0.44-1.358-0.678-2.044-0.983l1.902-1.843c0.088 0.261 0.503 1.267 0.919 2.073 0.445 0.863 0.894 1.601 1.224 2.041-0.429-0.345-1.153-0.816-2.001-1.288"/></g><g transform="translate(444.09 410.93)"><path d="m0 0 55.385 0.754-53.254-37.417" fill="none" stroke="#000" stroke-width=".75"/></g><g transform="translate(442.86 410.38)"><path d="m0 0c0.871-0.25 1.437-0.484 2.139-0.754l-0.037 2.648c-0.247-0.122-1.252-0.538-2.118-0.812-0.923-0.293-1.763-0.497-2.31-0.572 0.549-0.062 1.392-0.242 2.326-0.51"/></g><g transform="translate(445.52 373.12)"><path d="m0 0c0.859 0.284 1.461 0.411 2.191 0.583l-1.523 2.167c-0.135-0.24-0.73-1.151-1.291-1.864-0.598-0.764-1.178-1.406-1.584-1.776 0.486 0.258 1.285 0.585 2.207 0.89"/></g></g><text transform="matrix(1 0 0 -1 129.85 563.21)" fill="black" font-family="Helvetica" font-size="9px"><tspan x="0 7.0019999 12.006 14.508 16.506001 21.51 26.514 31.518" y="0">Optional</tspan><tspan x="-22.004999 -15.507 -10.503 -8.5050001 -6.0029998 -0.99900001 1.503 6.0029998 11.007 16.011 20.511 23.507999 28.511999" y="9.9989996">white chevron</tspan><tspan x="-12.492 -4.9949999 0.0089999996 3.006 7.506 9.5039997 14.508 19.511999 24.011999 26.514 28.511999" y="19.997999">markings in</tspan><tspan x="-14.508 -9.5039997 -4.5 0.50400001 3.006 6.0029998 11.007 13.005 15.507 20.511 23.507999 28.511999" y="29.997">neutral area</tspan><tspan x="216.009 223.011 228.015 230.517 232.515 237.519 242.52299 247.52699" y="16.443001">Optional</tspan><tspan x="194.004 200.502 205.506 207.504 210.006 215.00999 217.51199 222.01199 227.01601 232.02 236.52 239.517 244.521" y="26.441999">white chevron</tspan><tspan x="213.021 220.51801 225.522 228.519 233.019 235.017 240.021 245.02499" y="36.441002">markings</tspan><tspan x="212.508 214.506 219.50999 222.01199 227.01601 232.02 237.024 239.526 242.52299 247.52699" y="46.439999">in neutral</tspan><tspan x="231.51601 236.52 239.517 244.521" y="56.438999">area</tspan><tspan x="184.491 189.99001 194.994 199.998 205.002 207.99899 213.00301 215.505 217.50301 222.00301 227.007 229.005 231.507 236.511 241.515 244.51199" y="243.468">Theoretical gore</tspan></text><g transform="translate(263.17 476.98)"><path d="m0 0-34.025 31.46" fill="none" stroke="#000" stroke-width=".75"/></g><g clip-path="url(#d)"><g transform="translate(227.87 508.89)"><path d="m0 0c0.459-0.783 0.709-1.343 1.029-2.021l1.8 1.941c-0.264 0.083-1.278 0.476-2.093 0.874-0.872 0.425-1.621 0.856-2.067 1.178 0.353-0.422 0.841-1.135 1.331-1.972"/></g><g transform="translate(513.71 548.24)"><path d="m0 0-50.754 26.017" fill="none" stroke="#000" stroke-width=".75"/></g><g transform="translate(461.6 574.34)"><path d="m0 0c0.654-0.629 1.047-1.101 1.539-1.666l1.205 2.357c-0.275 8e-3 -1.359 0.111-2.25 0.272-0.955 0.174-1.793 0.386-2.31 0.575 0.455-0.31 1.117-0.865 1.816-1.538"/></g></g><text transform="matrix(1 0 0 -1 264.76 470.21)" fill="black" font-family="Helvetica" font-size="9px"><tspan x="0 5.4990001 10.503 15.507 20.511 23.507999 28.511999 31.014 33.012001 37.512001 42.515999 44.514 47.015999 52.02 57.023998 60.021" y="0">Theoretical gore</tspan><tspan x="62.099998 68.598 73.601997 76.598999 84.096001 89.099998 91.098 93.599998 100.098 102.096 107.1 109.602" y="268.92899">Normal width</tspan><tspan x="66.078003 71.082001 76.085999 78.587997 81.089996 86.094002 91.098 93.599998 100.098 105.102 107.1 109.602" y="278.92801">dotted white</tspan><tspan x="66.078003 71.082001 75.582001 78.084 83.087997 88.092003 92.592003 94.589996 99.594002 104.598 107.1 112.104" y="288.927">extension of</tspan><tspan x="74.087997 77.084999 79.083 84.086998 89.091003 91.593002 94.589996 99.594002 104.598 109.602" y="298.92599">right-hand</tspan><tspan x="78.084 83.087997 88.092003 93.096001 98.099998 100.602 102.6 104.598 109.602" y="308.92499">edge line</tspan></text><g transform="translate(474.75 105.51)"><path d="m0 0h6.353v1.559l4.377-2.577-4.377-2.398v1.439h-6.353z"/></g><g transform="translate(496.23 114.03)"><path d="m0 0h29.291" fill="none" stroke="#000" stroke-width=".75"/></g><text transform="matrix(1 0 0 -1 495.76 116.98)" fill="black" font-family="Helvetica" font-size="9px"><tspan x="0 5.0040002 10.008 15.012 20.016001 25.02" y="0">Legend</tspan><tspan x="-7.4879999 -0.99000001 1.008 4.0050001 9.0089998 13.509 16.011 18.009001 23.013 28.017 30.518999 35.522999 38.025002 40.527 43.028999 46.026001 51.029999 55.529999 60.534" y="15.354">Direction of travel</tspan><tspan x="-417.51001 -409.01401 -407.01599 -402.01199 -397.008 -394.50601 -389.50201 -386.505 -384.00299 -378.99899 -373.995 -370.99799 -363.50101 -358.49701 -356.49899 -353.99701 -347.49899 -345.50101 -340.49701 -337.995 -332.991" y="-313.10101">Wide or normal width </tspan><tspan x="-411.03 -406.53 -401.526 -399.52802 -397.53 -392.526 -390.02399 -383.526 -378.522 -376.52399 -374.022 -369.01801 -366.51599 -364.51801 -359.51401 -354.51001 -349.50601 -347.004 -345.00601 -343.008 -338.004 -333" y="-303.10199">solid white lane line </tspan><tspan x="-408.02399 -405.02701 -400.52701 -395.52301 -392.526 -390.52802 -385.52399 -380.51999 -378.522 -373.51801 -371.01599 -369.01801 -364.01401 -359.01001 -354.00601 -351.504 -346.5 -343.50299 -341.00101 -335.99701 -333" y="-293.103">(variable length) or </tspan><tspan x="-411.534 -406.53 -401.526 -398.52899 -391.03201 -386.02802 -384.03 -381.52802 -375.03 -373.03201 -368.02802 -365.526 -360.522 -358.01999 -353.01599 -348.01199 -345.51001 -343.008 -338.004 -333" y="-283.104">normal width dotted </tspan><tspan x="-390.02399 -383.526 -378.522 -376.52399 -374.022 -369.01801 -366.51599 -364.51801 -359.51401 -354.51001 -349.50601 -347.004 -345.00601 -343.008 -338.004" y="-273.10501">white lane line</tspan></text><g transform="translate(166.32 418.82)"><path d="m0 0 55.752 21.764" fill="none" stroke="#000" stroke-width=".75"/></g><g clip-path="url(#c)"><g transform="translate(223.03 441.53)"><path d="m0 0c-0.904-0.071-1.517-0.051-2.267-0.043l0.961-2.468c0.189 0.201 0.985 0.944 1.699 1.503 0.763 0.599 1.479 1.084 1.963 1.346-0.534-0.135-1.389-0.262-2.356-0.338"/></g></g><text transform="matrix(1 0 0 -1 82.742 326.82)" fill="black" font-family="Helvetica" font-size="9px"><tspan x="0 6.4980001 11.502 14.499 21.996 27 28.997999 31.5 37.998001 39.995998 45 47.501999 52.506001 55.007999 60.012001 65.015999 67.517998 70.019997 75.024002 80.028" y="0">Normal width dotted </tspan><tspan x="2.5020001 9 14.004 16.002001 18.504 23.507999 26.01 28.007999 33.012001 38.015999 43.02 45.521999 47.52 49.518002 54.521999 59.526001 62.028 64.529999 67.527 72.530998 80.028" y="9.9989996">white lane line from </tspan><tspan x="0.99900001 6.0029998 11.007 15.507 18.009001 21.006001 26.01 31.014 38.511002 41.013 46.016998 51.021 56.025002 58.527 63.530998 66.032997 68.535004 71.037003 76.041 78.039001 80.037003" y="19.997999">upstream end of full </tspan><tspan x="7.4970002 13.995 15.993 20.997 23.499001 28.503 31.004999 36.008999 41.013 45.513 50.516998 52.514999 57.519001 60.515999 65.519997 68.022003 70.019997 75.024002 80.028" y="29.997">width deceleration </tspan><tspan x="13.005 15.003 20.007 25.011 30.014999 32.516998 35.019001 40.022999 42.525002 47.528999 52.533001 57.033001 59.535 62.532001 67.536003 72.540001 80.037003" y="39.995998">lane to upstream </tspan><tspan x="10.503 15.507 20.511 25.514999 28.017 33.021 35.522999 38.025002 42.525002 47.528999 49.527 51.525002 56.528999 59.030998 65.528999 70.532997 72.530998 75.032997 80.037003" y="49.994999">end of solid white </tspan><tspan x="46.521 48.519001 53.522999 58.527 63.530998 66.032997 68.030998 70.028999 75.032997" y="59.993999">lane line</tspan><tspan x="0.0089999996 6.507 11.511 14.508 22.004999 27.009001 29.007 31.509001 38.007 40.005001 45.008999 47.511002 52.514999 55.016998 60.021 65.025002 67.527 70.028999 75.032997 80.037003" y="180.28799">Normal width dotted </tspan><tspan x="8.4960003 10.494 15.498 20.502001 25.506001 28.007999 30.006001 32.004002 37.007999 42.012001 44.514 49.518002 52.514999 55.016998 60.021 65.025002 67.527 70.028999 75.032997 80.037003" y="190.287">lane line or dotted </tspan><tspan x="8.5050001 13.509 18.009001 20.511 25.514999 30.518999 35.019001 37.016998 42.021 47.025002 49.527 54.530998 57.033001 59.535 62.532001 64.529999 69.533997 74.538002 77.040001" y="200.286">extension of right-</tspan><tspan x="11.484 16.488001 21.492001 26.496 31.5 34.001999 39.006001 44.009998 49.014 54.018002 56.52 58.518002 60.515999 65.519997 70.524002 73.026001 75.024002" y="210.285">hand edge line in</tspan><tspan x="31.004999 36.008999 41.013 45.513 50.516998 52.514999 57.519001 60.515999 65.519997 68.022003 70.019997 75.024002" y="220.284">deceleration</tspan><tspan x="40.005001 42.002998 47.007 52.011002 57.014999 59.516998 62.019001 67.023003 72.027 77.030998" y="230.283">lane taper</tspan></text><g transform="translate(223.85 346.08)"><path d="m0 0-57.532-64.49" fill="none" stroke="#000" stroke-width=".75"/></g><g clip-path="url(#b)"><g transform="translate(224.28 347.36)"><path d="m0 0c-0.774-0.473-1.33-0.732-2.002-1.065l1.975-1.765c0.078 0.265 0.451 1.287 0.834 2.109 0.409 0.88 0.827 1.636 1.14 2.089-0.415-0.362-1.119-0.862-1.947-1.368"/></g><g transform="translate(222.89 140.84)"><path d="m0 0-55.196-16.017" fill="none" stroke="#000" stroke-width=".75"/></g><g transform="translate(223.93 141.7)"><path d="m0 0c-0.907 0.011-1.516 0.086-2.262 0.161l0.736-2.544c0.207 0.183 1.066 0.851 1.827 1.344 0.814 0.528 1.57 0.946 2.075 1.164-0.543-0.086-1.406-0.136-2.376-0.125"/></g><path d="m541.46 680.26h-374.92v25.468h374.92z" fill="#fff"/></g><text transform="matrix(1 0 0 -1 189.26 690.5)" fill="black" font-family="Helvetica" font-size="9.5px" font-weight="bold"><tspan x="0 6.5131998 9.1541996 14.4362 17.0772 23.4137 28.6957 32.391201 37.673199 40.314201 42.9552 48.237202 50.878201 53.519199 59.3237 64.605698 69.887703 75.169701 77.810699 83.092697 86.7882 92.070198 95.233704 97.874702 103.6792 109.4837 112.1247 114.7657 120.0477 125.8522 205.65601 212.515 215.15601 220.438 223.07899 228.18146 233.46346 239.26794 244.54996 248.24545 253.52745 259.33194 261.97296 267.77744 273.05945 278.34146 283.62344 286.26443 291.54645 295.24194 300.52396 303.68744 306.32846 312.13297 317.93744 320.57846 323.21945 328.50146 334.30594" y="0">A – Parallel deceleration laneB – Tapered deceleration lane</tspan></text><g transform="translate(381.83 322.26)"><path d="m0 0 55.682 25.541" fill="none" stroke="#000" stroke-width=".75"/></g><g clip-path="url(#a)"><g transform="translate(438.42 348.81)"><path d="m0 0c-0.898-0.121-1.512-0.135-2.262-0.171l1.1-2.409c0.178 0.211 0.929 0.998 1.611 1.596 0.729 0.642 1.414 1.166 1.883 1.456-0.525-0.165-1.371-0.34-2.332-0.472"/></g><g transform="translate(512.42 155.85)"><path d="m0 0v78.92l-3.111-21.215 0.282-3.677 2.263 1.98" stroke="#000"/></g><g transform="translate(515.52 203.39)"><path d="m0 0h2.665v-22.176h-3.09l-10.348 17.914h-0.056v-17.914h-2.665v22.176h3.259l10.177-17.913h0.058z"/></g></g></g></svg>
