<?xml version="1.0" encoding="UTF-8"?>
<svg width="539.49" height="860.21" version="1.1" viewBox="0 0 539.49 860.21" xml:space="preserve" xmlns="http://www.w3.org/2000/svg"><defs><clipPath id="h"><path d="m65.387 51.66h436.23v691.34h-436.23z"/></clipPath><clipPath id="g"><path d="m65.387 51.66h436.23v691.34h-436.23z"/></clipPath><clipPath id="f"><path d="m65.387 51.66h436.23v691.34h-436.23z"/></clipPath><clipPath id="e"><path d="m65.387 51.66h436.23v691.34h-436.23z"/></clipPath><clipPath id="d"><path d="m65.387 51.66h436.23v691.34h-436.23z"/></clipPath><clipPath id="c"><path d="m65.387 51.66h436.23v691.34h-436.23z"/></clipPath><clipPath id="b"><path d="m65.387 51.66h436.23v691.34h-436.23z"/></clipPath><clipPath id="a"><path d="m65.387 51.66h436.23v691.34h-436.23z"/></clipPath></defs><g transform="matrix(1.3333 0 0 -1.3333 -109.49 937.09)"><text transform="matrix(1 0 0 -1 206.96 696.02)" fill="black" font-family="Helvetica" font-size="9.5px" font-weight="bold"><tspan x="0 6.3365002 8.9775 14.2595 16.900499 23.759501 29.563999 35.3685 38.532001 43.813999 46.455002 51.737 57.5415 60.182499 62.823502 65.987 68.627998 76.018997 78.660004 81.818748 87.623253 90.264252 96.068748 101.87325 105.03675 107.67775 113.48225 119.28675 121.92775 124.56875 129.85075 135.65524" y="0">E – Route split with option lane</tspan></text><g clip-path="url(#h)"><g transform="translate(345.37 689.88)"><path d="m0 0c-25.664-48.392-47.104-101.04-64.169-157.24l9e-3 0.054-0.033 1e-3c-0.095-0.369-0.195-0.735-0.304-1.095-0.567-1.842-2.278-3.181-4.305-3.181-2.485 0-4.5 2.014-4.5 4.5v157.06h-58.84v-632.32h78.121v124.64c0 183.99 36.557 349.12 105.98 479.98z" fill="#b1b4b6"/></g><g transform="translate(276.53 532.46)"><path d="m0 0c1.728 31.846 12.708 49.256 12.708 70.123" fill="none" stroke="#000" stroke-width=".75"/></g><g transform="translate(275.92 531.26)"><path d="m0 0c-0.216 0.881-0.426 1.458-0.667 2.169l2.645-0.144c-0.133-0.242-0.589-1.231-0.897-2.083-0.332-0.913-0.569-1.743-0.666-2.285-0.039 0.549-0.185 1.401-0.415 2.343"/></g><g transform="translate(314.69 541.39)"><path d="m0 0c15.463 47.59 34.371 92.752 56.793 134.95" fill="none" stroke="#fff" stroke-dasharray="14.4, 43.2" stroke-width="2"/></g><g transform="translate(266.35 292.44)"><path d="m0 0c6.598 80.557 20.611 157.65 42.255 229.51" fill="none" stroke="#fff" stroke-width="4"/></g><g transform="translate(261.94 185.72)"><path d="m0 0c0.087 36.131 1.554 71.755 4.418 106.73" fill="none" stroke="#fff" stroke-width="4"/></g><g transform="translate(261.93 181.35)"><path d="m0 0v-46.865" fill="none" stroke="#fff" stroke-dasharray="3, 9" stroke-width="4"/></g><g transform="translate(262.77 308.63)"><path d="m0 0v114.77" fill="none" stroke="#fff" stroke-dasharray="4.32, 12.96" stroke-width="2"/></g><g transform="translate(261.93 76.66)"><path d="m0 0v51.829" fill="none" stroke="#fff" stroke-dasharray="14.4, 43.2" stroke-width="2"/></g><g transform="translate(223.37 689.98)"><path d="m0 0v-632.32" fill="none" stroke="#ffd046" stroke-miterlimit="10" stroke-width="2"/></g><g transform="translate(261.93 529.7)"><path d="m0 0v160.27" fill="none" stroke="#fff" stroke-miterlimit="10" stroke-width="2"/></g><g transform="translate(354.43 685.31)"><path d="m0 0c-25.871-48.743-47.413-101.87-64.455-158.67" fill="none" stroke="#ffd046" stroke-miterlimit="10" stroke-width="2"/></g><g transform="translate(281.21 57.66)"><path d="m0 0v124.64c0 185.76 37.01 352.61 107.3 484.98" fill="none" stroke="#fff" stroke-miterlimit="10" stroke-width="2"/></g><g transform="translate(242.65 76.659)"><path d="m0 0v613.32" fill="none" stroke="#fff" stroke-dasharray="14.4, 43.2" stroke-width="2"/></g><g transform="translate(341.21 286.06)"><path d="m0 0v-148.02" fill="none" stroke="#000" stroke-width=".75"/></g><g transform="translate(341.75 136.81)"><path d="m0 0c0.264 0.867 0.504 1.432 0.783 2.129h-2.648c0.119-0.25 0.521-1.262 0.783-2.129 0.281-0.93 0.473-1.771 0.541-2.318 0.068 0.547 0.262 1.388 0.541 2.318"/></g><g transform="translate(340.67 287.3)"><path d="m0 0c-0.262-0.868-0.504-1.433-0.783-2.129h2.648c-0.117 0.249-0.519 1.261-0.783 2.129-0.279 0.929-0.473 1.772-0.541 2.317-0.068-0.545-0.26-1.388-0.541-2.317"/></g><g transform="translate(302.07 290)"><path d="m0 0h45.146" fill="none" stroke="#000" stroke-width=".75"/></g><g transform="translate(297.3 134.49)"><path d="m0 0h49.908" fill="none" stroke="#000" stroke-width=".75"/></g><path d="m346.87 208.48h-11.323v9.625h11.323z" fill="#fff"/></g><text transform="matrix(1 0 0 -1 314.73 210.33)" fill="black" font-family="Helvetica" font-size="9px"><tspan x="0 5.0040002 7.506 12.51 15.012 22.509001 24.507 26.504999 31.509001 34.011002 41.507999 44.009998 50.507999" y="0">1/2 mile MIN.</tspan></text><g clip-path="url(#g)"><g transform="translate(291.35 57.66)"><path d="m0 0v124.64c0 183.99 36.557 349.12 105.98 479.98" fill="none" stroke="#000" stroke-miterlimit="10"/></g></g><g transform="translate(213.23 689.98)"><path d="m0 0v-632.32" fill="none" stroke="#000" stroke-miterlimit="10"/></g><g clip-path="url(#f)"><g transform="translate(345.37 689.88)"><path d="m0 0c-25.664-48.392-47.104-101.04-64.169-157.24l9e-3 0.054-0.033 1e-3c-0.095-0.369-0.195-0.735-0.304-1.095-0.567-1.842-2.278-3.181-4.305-3.181-2.485 0-4.5 2.014-4.5 4.5v157.06" fill="none" stroke="#000" stroke-miterlimit="10"/></g></g><g transform="translate(305.03 171.9)"><path d="m0 0-39.731 10.84-18.951-10.674-41.727 12.615v8.25l41.727-12.617 18.951 10.674 39.731-10.84z" fill="#fff"/><path d="m0 0-39.731 10.84-18.951-10.674-41.727 12.615v8.25l41.727-12.617 18.951 10.674 39.731-10.84z" fill="none" stroke="#000"/></g><path d="m205.69 178.69h-6.449v19.047h6.449z" fill="#fff"/><path d="m309.23 170.14h-11.377v19.049h11.377z" fill="#fff"/><g clip-path="url(#e)"><g transform="translate(262.93 530.33)"><path d="m0 0v-111.01c7.006 37.108 15.787 73.327 26.144 107.82" fill="none" stroke="#fff" stroke-miterlimit="10" stroke-width="4"/></g></g><g transform="translate(232.08 672.23)"><path d="m0 0v6.354h-1.559l2.577 4.376 2.398-4.376h-1.439v-6.354z"/></g><g transform="translate(251.36 672.23)"><path d="m0 0v6.354h-1.559l2.577 4.376 2.398-4.376h-1.439v-6.354z"/></g><g transform="translate(232.08 67.15)"><path d="m0 0v6.354h-1.559l2.577 4.377 2.398-4.377h-1.439v-6.354z"/></g><g transform="translate(251.36 67.15)"><path d="m0 0v6.354h-1.559l2.577 4.377 2.398-4.377h-1.439v-6.354z"/></g><g transform="translate(270.64 67.15)"><path d="m0 0v6.354h-1.559l2.577 4.377 2.398-4.377h-1.439v-6.354z"/></g><g transform="translate(352.76 663.23)"><path d="m0 0 3.006 5.599-1.374 0.737 4.341 2.637 0.042-4.99-1.267 0.681-3.006-5.598z"/></g><g transform="translate(369.75 654.11)"><path d="m0 0 3.005 5.598-1.373 0.737 4.34 2.637 0.043-4.99-1.269 0.681-3.005-5.598z"/></g><text transform="matrix(1 0 0 -1 273.96 613.73)" fill="black" font-family="Helvetica" font-size="9px"><tspan x="0 6.0029998 11.007 15.507 20.007 22.004999 26.504999 31.509001" y="0">Physical</tspan><tspan x="7.7490001 12.753 17.757 20.754" y="9.5039997">gore</tspan></text><g clip-path="url(#d)"><g transform="translate(262.85 466.69)"><path d="m0 0-0.08-7.028 3.752-2.942 1.547 0.715 3.52 1.623 1.696 6.927c-2.609-1.203-5.027-2.318-6.003-2.767-0.754 0.591-2.489 1.949-4.432 3.472" fill="#fff"/></g><g transform="translate(263.08 487.28)"><path d="m0 0-0.08-7.027 5.872-4.6 1.546 0.714 6.089 2.806 1.696 6.928c-3.446-1.588-7.277-3.355-8.572-3.951-1.025 0.801-3.84 3.007-6.551 5.13" fill="#fff"/></g><g transform="translate(274.34 519.99)"><path d="m0 0c-1.616 1.267-7.7 6.032-10.787 8.451l-0.08-7.029 10.108-7.918 1.548 0.713 11.228 5.176 1.696 6.929c-3.111-1.434-11.648-5.37-13.713-6.322" fill="#fff"/></g><g transform="translate(263.32 507.86)"><path d="m0 0-0.08-7.027 7.99-6.26 1.548 0.714 8.657 3.99 1.695 6.929c-3.844-1.772-9.51-4.385-11.141-5.138-1.297 1.017-5.474 4.29-8.669 6.792" fill="#fff"/></g></g><text transform="matrix(1 0 0 -1 148.78 490.88)" fill="black" font-family="Helvetica" font-size="9px"><tspan x="0 8.4960003 10.494 15.498 20.502001 23.004 29.502001 34.506001 36.504002 39.006001" y="0">Wide white</tspan><tspan x="-6.0209999 -1.521 3.483 8.4870005 13.491 18.495001 23.499001 25.497 27.495001 31.995001 33.993 38.997002" y="9.9989996">channelizing</tspan><tspan x="25.506001 27.504 29.502001 34.506001 39.509998" y="19.997999">lines</tspan></text><g transform="translate(196.32 483.15)"><path d="m0 0 63.085 9.293" fill="none" stroke="#000" stroke-width=".75"/></g><g clip-path="url(#c)"><g transform="translate(260.56 493.15)"><path d="m0 0c-0.897 0.133-1.489 0.29-2.22 0.465l0.386-2.62c0.229 0.153 1.171 0.698 1.992 1.084 0.877 0.413 1.683 0.726 2.214 0.873-0.552-0.012-1.412 0.055-2.372 0.198"/></g><g transform="translate(196.32 483.15)"><path d="m0 0 73.777-12.214" fill="none" stroke="#000" stroke-width=".75"/></g><g transform="translate(271.41 471.26)"><path d="m0 0c-0.813 0.401-1.331 0.731-1.972 1.121l-0.432-2.613c0.264 0.076 1.328 0.308 2.227 0.426 0.962 0.125 1.824 0.176 2.375 0.154-0.528 0.157-1.327 0.484-2.198 0.912"/></g></g><text transform="matrix(1 0 0 -1 341.04 486.05)" fill="black" font-family="Helvetica" font-size="9px"><tspan x="0 7.0019999 12.006 14.508 16.506001 21.51 26.514 31.518 33.515999 36.018002 42.515999 47.52 49.518002 52.02" y="0">Optional white</tspan><tspan x="0 4.5 9.5039997 14.508 19.007999 22.004999 27.009001 32.013 34.514999 42.012001 47.015999 50.013 54.513 56.511002 61.514999 66.518997" y="9.9989996">chevron markings</tspan><tspan x="0 1.998 7.0019999 9.5039997 14.508 19.511999 24.516001 27.018 30.014999 35.019001 37.016998 39.519001 44.522999 47.52 52.523998" y="19.997999">in neutral area</tspan><tspan x="12.402 20.898001 22.896 27.9 32.903999 35.405998 39.905998 44.91 46.908001 48.905998 53.91 56.411999 62.91 67.914001 69.912003 72.414001 77.417999 79.919998 81.917999 86.921997 91.926003 96.93 99.431999 101.43 103.4334 108.4374" y="113.346">Wide solid white lane line</tspan></text><g transform="translate(339.02 479.75)"><path d="m0 0-58.333 36.31" fill="none" stroke="#000" stroke-width=".75"/></g><g clip-path="url(#b)"><g transform="translate(279.35 516.26)"><path d="m0 0c0.6-0.681 0.951-1.185 1.393-1.79l1.4 2.248c-0.273 0.031-1.346 0.225-2.221 0.46-0.937 0.253-1.754 0.534-2.253 0.765 0.427-0.346 1.04-0.955 1.681-1.683"/></g><g transform="translate(350.99 375.24)"><path d="m0 0-72.51-9.887" fill="none" stroke="#000" stroke-width=".75"/></g><g transform="translate(277.33 364.66)"><path d="m0 0c0.896-0.144 1.487-0.309 2.214-0.491l-0.353 2.624c-0.231-0.152-1.179-0.684-2.005-1.061-0.884-0.4-1.693-0.704-2.225-0.845 0.551 5e-3 1.411-0.073 2.369-0.227"/></g><g transform="translate(203.33 159.28)"><path d="m0 0 55.174-10.13" fill="none" stroke="#000" stroke-width=".75"/></g><g transform="translate(259.82 149.46)"><path d="m0 0c-0.807 0.415-1.318 0.755-1.953 1.155l-0.478-2.605c0.267 0.072 1.335 0.285 2.236 0.386 0.963 0.109 1.826 0.145 2.376 0.114-0.524 0.166-1.318 0.506-2.181 0.95"/></g></g><text transform="matrix(1 0 0 -1 152.23 162.23)" fill="black" font-family="Helvetica" font-size="9px"><tspan x="0 8.4960003 10.494 15.498 20.502001 23.004 28.007999 33.012001 35.514 38.015999 43.02" y="0">Wide dotted</tspan><tspan x="-9.0089998 -2.5109999 2.493 4.4910002 6.993 11.997 14.499 16.497 21.500999 26.504999 31.509001 34.011002 36.008999 38.007 43.011002" y="9.9989996">white lane line</tspan></text><g transform="translate(200.2 267.44)"><path d="m0 0 60.42-11.045" fill="none" stroke="#000" stroke-width=".75"/></g><g clip-path="url(#a)"><g transform="translate(261.93 256.7)"><path d="m0 0c-0.807 0.415-1.318 0.755-1.953 1.155l-0.478-2.605c0.267 0.072 1.335 0.285 2.236 0.386 0.963 0.109 1.826 0.145 2.376 0.114-0.524 0.166-1.318 0.506-2.181 0.95"/></g><g transform="translate(403.82 110.11)"><path d="m0 0h6.354v1.559l4.376-2.577-4.376-2.398v1.439h-6.354z"/></g><g transform="translate(425.3 118.62)"><path d="m0 0h29.291" fill="none" stroke="#000" stroke-width=".75"/></g></g><text transform="matrix(1 0 0 -1 424.83 121.57)" fill="black" font-family="Helvetica" font-size="9px"><tspan x="0 5.0040002 10.008 15.012 20.016001 25.02" y="0">Legend</tspan><tspan x="-7.4879999 -0.99000001 1.008 4.0050001 9.0089998 13.509 16.011 18.009001 23.013 28.017 30.518999 35.522999 38.025002 40.527 43.028999 46.026001 51.029999 55.529999 60.534" y="15.354">Direction of travel</tspan></text><g transform="translate(443.19 144.41)"><path d="m0 0v78.92l-3.111-21.215 0.282-3.677 2.263 1.98" stroke="#000"/></g><g transform="translate(446.29 191.96)"><path d="m0 0h2.665v-22.176h-3.09l-10.348 17.914h-0.056v-17.914h-2.665v22.176h3.259l10.177-17.913h0.058z"/></g><text transform="matrix(1 0 0 -1 96.841 275.39)" fill="black" font-family="Helvetica" font-size="9px"><tspan x="0 8.4960003 10.494 15.498 20.502001 23.004 27.504 32.507999 34.506001 36.504002 41.507999 44.009998 50.507999 55.512001 57.509998 60.012001 65.015999 67.517998 69.515999 74.519997 79.524002 84.528 87.029999 89.028 91.026001 96.029999 101.034" y="0">Wide solid white lane line </tspan><tspan x="-0.0089999996 2.9879999 7.9920001 12.996 15.498 17.496 22.5 27.504 32.507999 34.506001 37.007999 39.509998 44.009998 49.014 52.011002 54.008999 59.013 64.016998 66.014999 71.018997 73.521004 75.518997 80.523003 85.527 90.530998 93.032997 98.037003" y="9.9989996">(optional, variable length)</tspan><tspan x="-15.021 -10.017 -7.02 -4.5180001 1.98 3.9779999 8.9820004 13.986 16.488001 21.492001 26.496 28.997999 31.5 36.504002 41.507999 44.009998 50.507999 55.512001 57.509998 60.012001 65.015999 67.517998 69.515999 74.519997 79.524002 84.528 87.029999 89.028 91.026001 96.029999" y="19.997999">or wide dotted white lane line</tspan></text></g></svg>
