<?xml version="1.0" encoding="UTF-8"?>
<svg width="684" height="328.61" version="1.1" viewBox="0 0 684 328.61" xml:space="preserve" xmlns="http://www.w3.org/2000/svg"><defs><clipPath id="g"><path d="m27 470.4h513v272.6h-513z"/></clipPath><clipPath id="f"><path d="m27 470.4h513v272.6h-513z"/></clipPath><clipPath id="e"><path d="m27 470.4h513v272.6h-513z"/></clipPath><clipPath id="d"><path d="m27 470.4h513v272.6h-513z"/></clipPath><clipPath id="c"><path d="m27 470.4h513v272.6h-513z"/></clipPath><clipPath id="b"><path d="m27 470.4h513v272.6h-513z"/></clipPath><clipPath id="a"><path d="m27 470.4h513v272.6h-513z"/></clipPath></defs><g transform="matrix(1.3333 0 0 -1.3333 -36 955.81)"><g transform="translate(422.53 685.89)"><path d="m0 0h6.354v1.559l4.376-2.577-4.376-2.398v1.439h-6.354z"/></g><g transform="translate(444.03 694.36)"><path d="m0 0h29.291" fill="none" stroke="#000" stroke-width=".75"/></g><g><text transform="matrix(1 0 0 -1 443.56 697.31)" fill="black" font-family="Helvetica" font-size="9px"><tspan x="0 5.0040002 10.008 15.012 20.016001 25.02" y="0">Legend</tspan><tspan x="-7.4790001 -0.98100001 1.017 4.0139999 9.0179996 13.518 16.02 18.018 23.021999 28.025999 30.528 35.532001 38.034 40.535999 43.037998 46.035 51.039001 55.539001 60.542999" y="15.354">Direction of travel</tspan></text><text transform="matrix(1 0 0 -1 213.09 710.06)" fill="black" font-family="Helvetica" font-size="9.5px" font-weight="bold"><tspan x="0 6.5131998 9.1541996 14.4362 17.0772 23.936199 29.218201 34.500198 40.304699 48.750198 57.195702 62.477699 68.282204 74.0867 79.368698 85.173203 87.814201 93.618698 96.259697 104.7052 109.9872 115.7917 121.0737 123.7147 129.5192 135.3237" y="0">A – Recommended dimensions</tspan></text><path d="m388.77 560.64h-210.3v143.38h210.3z" fill="#b1b4b6"/></g><g transform="translate(388.77 560.64)"><path d="m0 0h-210.3" fill="none" stroke="#000"/></g><g><path d="m200.88 668.33h8v13.568h-8z" fill="#fff"/><path d="m178.47 680.33h210.3v4h-210.3z" fill="#ffd046"/><path d="m178.47 687.33h210.3v4h-210.3z" fill="#ffd046"/><path d="m178.47 580.33h210.3v4h-210.3z" fill="#fff"/><path d="m200.88 582.76h8v13.568h-8z" fill="#fff"/><text transform="matrix(1 0 0 -1 239.95 671.08)" fill="black" font-family="Helvetica" font-size="9px"><tspan x="0 5.0040002 10.008 12.51 14.508 19.511999 24.011999 29.016001 34.02 38.52 41.021999 48.519001 54.521999 60.525002" y="0">18 inches MAX.</tspan><tspan x="-54.530998 -49.527 -44.522999 -42.021 -40.022999 -35.019001 -30.518999 -25.514999 -20.511" y="44.424">12 inches</tspan><tspan x="-46.269001 -38.771999 -32.769001 -26.766001" y="54.423">MAX.</tspan></text></g><g transform="translate(209.88 680.22)"><path d="m0 0h12.92" fill="none" stroke="#000" stroke-width=".75"/></g><g transform="translate(209.88 668.33)"><path d="m0 0h12.92" fill="none" stroke="#000" stroke-width=".75"/></g><g transform="translate(216.34 694.49)"><path d="m0 0v-10.205" fill="none" stroke="#000" stroke-width=".75"/></g><g clip-path="url(#g)"><g transform="translate(216.96 682.87)"><path d="m0 0c0.299 0.992 0.576 1.637 0.895 2.432h-3.026c0.135-0.285 0.596-1.44 0.895-2.432 0.32-1.062 0.539-2.024 0.617-2.649 0.08 0.625 0.299 1.587 0.619 2.649"/></g></g><g transform="translate(216.34 654.06)"><path d="m0 0v10.205" fill="none" stroke="#000" stroke-width=".75"/></g><g clip-path="url(#f)"><g transform="translate(215.72 665.68)"><path d="m0 0c-0.301-0.992-0.576-1.637-0.895-2.432h3.026c-0.135 0.285-0.596 1.44-0.895 2.432-0.32 1.062-0.541 2.024-0.619 2.649-0.078-0.625-0.297-1.587-0.617-2.649"/></g></g><g transform="translate(204.79 636.16)"><path d="m0 0v4.523" fill="none" stroke="#000" stroke-width=".75"/></g><g clip-path="url(#e)"><g transform="translate(204.18 642.1)"><path d="m0 0c-0.301-0.992-0.576-1.637-0.895-2.432h3.026c-0.135 0.285-0.596 1.44-0.895 2.432-0.32 1.062-0.541 2.024-0.619 2.649-0.078-0.625-0.297-1.587-0.617-2.649"/></g></g><g transform="translate(200.88 645.91)"><path d="m0 0v12.919" fill="none" stroke="#000" stroke-width=".75"/></g><g transform="translate(208.88 645.91)"><path d="m0 0v12.919" fill="none" stroke="#000" stroke-width=".75"/></g><g transform="translate(186.61 648.87)"><path d="m0 0h10.205" fill="none" stroke="#000" stroke-width=".75"/></g><g clip-path="url(#d)"><g transform="translate(198.23 649.49)"><path d="m0 0c-0.992 0.3-1.637 0.576-2.432 0.895v-3.026c0.286 0.135 1.44 0.596 2.432 0.895 1.062 0.321 2.025 0.54 2.648 0.618-0.623 0.079-1.586 0.298-2.648 0.618"/></g></g><g transform="translate(223.15 648.86)"><path d="m0 0h-10.205" fill="none" stroke="#000" stroke-width=".75"/></g><g clip-path="url(#c)"><g transform="translate(211.53 648.25)"><path d="m0 0c0.99-0.3 1.637-0.575 2.432-0.895v3.027c-0.286-0.136-1.442-0.596-2.432-0.896-1.062-0.32-2.025-0.54-2.65-0.618 0.625-0.078 1.588-0.298 2.65-0.618"/></g></g><g transform="translate(238.53 673.98)"><path d="m0 0h-10.205" fill="none" stroke="#000" stroke-width=".75"/></g><g clip-path="url(#b)"><g transform="translate(226.91 673.37)"><path d="m0 0c0.991-0.3 1.637-0.575 2.432-0.894v3.026c-0.285-0.136-1.441-0.596-2.432-0.896-1.062-0.32-2.024-0.54-2.649-0.618 0.625-0.078 1.587-0.298 2.649-0.618"/></g></g><path d="m388.35 705.63h1.199v-148.14h-1.199z" fill="#fff"/><path d="m177.59 705.63h1.199v-148.14h-1.199z" fill="#fff"/><g clip-path="url(#a)"><g transform="translate(459.74 534.72)"><path d="M 0,0 H -458.877 V -61.83 H 0 c 57.582,0 108.344,12.117 150.873,36.015 30.904,17.368 56.699,40.393 76.672,68.442 L 177.18,78.492 C 151.682,42.685 100.244,0 0,0" fill="#b1b4b6"/><path d="M 0,0 H -458.877 V -61.83 H 0 c 57.582,0 108.344,12.117 150.873,36.015 30.904,17.368 56.699,40.393 76.672,68.442 L 177.18,78.492 C 151.682,42.685 100.244,0 0,0 Z" fill="none" stroke="#000"/></g><g transform="translate(437.43 505.31)"><path d="m0 0h-436.57" fill="none" stroke="#ffd046" stroke-width="2"/></g><g transform="translate(660.88 596.15)"><path d="m0 0c-17.182-24.129-39.438-43.975-66.146-58.984-37.624-21.141-83.041-31.86-135-31.86h-22.31" fill="none" stroke="#ffd046" stroke-width="2"/></g><g transform="translate(470.85 498.81)"><path d="m0 0c0.338-6e-3 0.672-0.012 3.982-2e-3l0.045 2.996c-3.306-6e-3 -3.636 0-3.972 6e-3z" fill="#fff"/></g><g transform="translate(455.62 498.8)"><path d="m0 0c0.336 2e-3 0.67 0.01 4.02 2e-3l-0.047 2.998c-3.342 8e-3 -3.676 2e-3 -4.006 2e-3z" fill="#fff"/></g><g transform="translate(440.68 498.77)"><path d="m0 0c0.336 2e-3 0.672-2e-3 4.029 0l-4e-3 3.002c-3.351-4e-3 -3.681-4e-3 -4.013-2e-3z" fill="#fff"/></g><g transform="translate(425.61 498.8)"><path d="m0 0c0.336-4e-3 0.672-6e-3 4.047-0.014l8e-3 3.002c-3.371 8e-3 -3.703 8e-3 -4.035 0.012z" fill="#fff"/></g><g transform="translate(410.58 498.83)"><path d="m0 0c0.336-4e-3 0.672-6e-3 4.012-0.012l0.011 2.998c-3.334 8e-3 -3.664 0.01-3.998 0.014z" fill="#fff"/></g><g transform="translate(395.69 498.83)"><path d="m0 0c0.336-2e-3 0.672-4e-3 4.041-0.014v3c-3.361 0.01-3.695 0.012-4.025 0.014z" fill="#fff"/></g><g transform="translate(380.58 498.8)"><path d="m0 0c0.336 0 0.67-2e-3 4.029-2e-3l-4e-3 2.998c-3.355 6e-3 -3.685 2e-3 -4.015 4e-3z" fill="#fff"/></g><g transform="translate(365.78 498.79)"><path d="m0 0c0.336 0 0.67 0 3.992 6e-3l-0.017 3c-3.319-4e-3 -3.649-6e-3 -3.981-8e-3z" fill="#fff"/></g><g transform="translate(347.64 498.79)"><path d="m0 0c0.334-2e-3 0.67-2e-3 4 6e-3l-2e-3 2.998c-3.328-4e-3 -3.66-4e-3 -3.99-2e-3z" fill="#fff"/></g><g transform="translate(330.64 501.77)"><path d="m0 0c-3.365 2e-3 -3.697 0-4.029 0l2e-3 -3c0.336 2e-3 0.67 0 4.037 2e-3z" fill="#fff"/></g><g transform="translate(306.8 501.77)"><path d="m0 0c-3.332 0.022-3.664 0.022-3.996 0.024l-0.016-2.999c0.336-1e-3 0.672-3e-3 4.006-0.025z" fill="#fff"/></g><g fill="#fff"><path d="m274.19 498.81h4v3h-4z"/><path d="m244.19 498.81h4v3h-4z"/><path d="m214.19 498.81h4v3h-4z"/><path d="m181.19 498.81h4v3h-4z"/><path d="m148.19 498.81h4v3h-4z"/><path d="m112.19 498.81h4v3h-4z"/><path d="m76.184 498.81h4v3h-4z"/><path d="m37.204 498.81h4v3h-4z"/><path d="m37.204 483.03h4v3h-4z"/><path d="m12.329 498.81h1v3h-1z"/></g><g transform="translate(585.29 553.98)"><path d="m0 0c-34.703-19.5-76.943-29.389-125.55-29.389h-458.88v-41.56h458.88c55.822 0 104.91 11.681 145.91 34.717 29.592 16.629 54.282 38.662 73.381 65.484l-33.853 24.107c-15.522-21.798-35.672-39.75-59.887-53.359z" fill="none" stroke="#fff" stroke-width="2"/></g><g fill="#fff"><path d="m13.366 486.53h-1v-3.5h1z"/><path d="m80.231 486.53h-4v-3.5h4z"/><path d="m116.23 486.53h-4v-3.5h4z"/><path d="m152.23 486.53h-4v-3.5h4z"/><path d="m185.23 486.53h-4v-3.5h4z"/><path d="m218.23 486.53h-4v-3.5h4z"/><path d="m248.23 486.53h-4v-3.5h4z"/><path d="m278.23 486.53h-4v-3.5h4z"/><path d="m306.75 486.53h-4v-3.5h4z"/></g><g transform="translate(327.68 486.53)"><path d="m0 0c-0.193-4e-3 -0.387-2e-3 -0.582-2e-3 -0.133 0-0.266 2e-3 -0.397-2e-3l0.014-3.5c0.125 2e-3 0.254 2e-3 0.381 2e-3 0.207 0 0.414-2e-3 3.65-2e-3l-0.033 3.502z" fill="#fff"/></g><g transform="translate(348.69 486.52)"><path d="m0 0c-0.156-2e-3 -0.315 0-0.473 0-0.174 2e-3 -0.347 4e-3 -0.521 4e-3l2e-3 -3.5c0.164 0 0.326 0 0.49-4e-3 0.164 0 0.334-2e-3 0.496 0 2e-3 -2e-3 0.01-2e-3 3.012 4e-3l-8e-3 3.502z" fill="#fff"/></g><g transform="translate(366.68 486.53)"><path d="m0 0c-0.182 0-0.361 2e-3 -0.545 0h-0.451v-3.5c0.15 0 0.301-2e-3 0.453-2e-3 0.182 2e-3 0.363 0 3.535 2e-3l-6e-3 3.502z" fill="#fff"/></g><g transform="translate(381.67 486.53)"><path d="m0 0h-0.629l-0.361-2e-3 6e-3 -3.502c0.121 4e-3 0.24 2e-3 0.355 2e-3 0.217 0 0.43 2e-3 3.666-2e-3l-0.014 3.502z" fill="#fff"/></g><g transform="translate(396.67 486.54)"><path d="m0 0c-0.191 0-0.383 4e-3 -0.574 4e-3 -0.137 0-0.27 2e-3 -0.403 4e-3l-0.017-3.5c0.131 0 0.258 0 0.39-4e-3 0.202 0 0.409-4e-3 3.643-0.016l-8e-3 3.502z" fill="#fff"/></g><g transform="translate(411.65 486.53)"><path d="m0 0h-0.504l-0.494-8e-3 0.01-3.498c0.166 0 0.334 2e-3 0.502 4e-3 0.164 0 0.332 2e-3 3.502-4e-3l-0.012 3.504z" fill="#fff"/></g><g transform="translate(426.64 486.54)"><path d="m0 0c-0.119 0-0.24 0-0.361-4e-3 -0.203-4e-3 -0.41-2e-3 -0.614-4e-3l-7e-3 -3.5c0.218 0 0.433 2e-3 0.648 6e-3 0.117-2e-3 0.236 2e-3 3.391-6e-3l-0.016 3.502z" fill="#fff"/></g><g transform="translate(441.65 486.52)"><path d="m0 0c-0.328 2e-3 -0.656 4e-3 -0.984 2e-3l-0.014-3.498c0.334 0 0.664-2e-3 4.02 0v3.5z" fill="#fff"/></g><g transform="translate(456.6 486.54)"><path d="m0 0c-0.15-2e-3 -0.299-6e-3 -0.447-6e-3 -0.182-2e-3 -0.362-2e-3 -0.547-4e-3l0.029-3.502c0.188 2e-3 0.371 4e-3 0.563 6e-3 0.146 4e-3 0.291 6e-3 3.447-6e-3l-0.033 3.502z" fill="#fff"/></g><g transform="translate(471.66 486.52)"><path d="m0 0c-0.148 0-0.297 2e-3 -0.445 4e-3 -0.184 2e-3 -0.367-2e-3 -0.551 2e-3l-0.039-3.498c0.187-2e-3 0.375-6e-3 0.56-8e-3 0.147 2e-3 0.295 0 3.413 8e-3l0.039 3.502z" fill="#fff"/></g><g transform="translate(.86 502.31)"><path d="m0 0h458.88c52.475 0 98.387 10.848 136.46 32.244 27.097 15.227 49.681 35.367 67.121 59.86" fill="none" stroke="#ffd046" stroke-width="2"/></g><g transform="translate(54.067 493.6)"><path d="m0 0h6.354v1.559l4.376-2.577-4.376-2.398v1.439h-6.354z"/></g><g transform="translate(64.798 514.02)"><path d="m0 0h-6.354v-1.559l-4.376 2.577 4.376 2.398v-1.439h6.354z"/></g><g transform="translate(517.79 497.73)"><path d="m0 0 6.223 1.284-0.314 1.529 4.806-1.643-3.802-3.231-0.292 1.41-6.223-1.282z"/></g><g transform="translate(523.28 519.89)"><path d="m0 0-6.224-1.28 0.314-1.528-4.805 1.64 3.801 3.232 0.291-1.41 6.224 1.282z"/></g><path d="m31.303 465.36h-35.871v79.08h35.871z" fill="#fff"/></g><text transform="matrix(1 0 0 -1 224.7 541.31)" fill="black" font-family="Helvetica" font-size="9.5px" font-weight="bold"><tspan x="0 6.8590002 9.5 14.782 17.423 23.759501 29.0415 34.323502 42.769001 48.573502 51.2145 56.496498 59.137501 64.942001 68.105499 70.746498 76.551003 79.192001 84.473999 89.755997 95.038002 103.4835 108.7655 114.57" y="0">B – Example of placement</tspan></text><path d="m534.98 470.4h5.02v149.8h-5.02z" fill="#fff"/><g transform="translate(343.42 633.2)"><path d="m0 0h6.354v1.559l4.377-2.577-4.377-2.398v1.439h-6.354z"/></g><g transform="translate(106.43 598.96)"><path d="m0 0v78.92l-3.111-21.215 0.282-3.677 2.263 1.98" stroke="#000"/></g><g transform="translate(109.53 646.51)"><path d="m0 0h2.665v-22.176h-3.09l-10.348 17.914h-0.056v-17.914h-2.665v22.176h3.259l10.177-17.913h0.058z"/></g></g></svg>
