<?xml version="1.0" encoding="UTF-8"?>
<svg width="625.19" height="349.13" version="1.1" viewBox="0 0 625.19 349.13" xml:space="preserve" xmlns="http://www.w3.org/2000/svg"><defs><clipPath id="p"><path d="m78.174 63h482.65v288.57h-482.65z"/></clipPath><clipPath id="o"><path d="m78.174 63h482.65v288.57h-482.65z"/></clipPath><clipPath id="n"><path d="m78.174 63h482.65v288.57h-482.65z"/></clipPath><clipPath id="m"><path d="m78.174 63h482.65v288.57h-482.65z"/></clipPath><clipPath id="l"><path d="m78.174 63h482.65v288.57h-482.65z"/></clipPath><clipPath id="k"><path d="m78.174 63h482.65v288.57h-482.65z"/></clipPath><clipPath id="j"><path d="m78.174 63h482.65v288.57h-482.65z"/></clipPath><clipPath id="i"><path d="m78.174 63h482.65v288.57h-482.65z"/></clipPath><clipPath id="h"><path d="m78.174 63h482.65v288.57h-482.65z"/></clipPath><clipPath id="g"><path d="m78.174 63h482.65v288.57h-482.65z"/></clipPath><clipPath id="f"><path d="m78.174 63h482.65v288.57h-482.65z"/></clipPath><clipPath id="e"><path d="m78.174 63h482.65v288.57h-482.65z"/></clipPath><clipPath id="d"><path d="m78.174 63h482.65v288.57h-482.65z"/></clipPath><clipPath id="c"><path d="m78.174 63h482.65v288.57h-482.65z"/></clipPath><clipPath id="b"><path d="m78.174 63h482.65v288.57h-482.65z"/></clipPath><clipPath id="a"><path d="m78.174 63h482.65v288.57h-482.65z"/></clipPath></defs><g transform="matrix(1.3333 0 0 -1.3333 -112.17 437.13)"><text transform="matrix(.96 0 0 -1 109.14 320.93)" fill="black" font-family="Helvetica" font-size="9.5px" font-weight="bold"><tspan x="0 6.4942002 9.1162004 14.3792 17.0012 23.318701 29.1042 34.367199 39.630199 45.415699 48.037701 50.659698 53.2817 61.708199 64.3302 67.474701 70.096703 75.882202 79.026703 81.648697 86.911697 92.174698 94.7967 103.2232 109.0087 114.7942 117.4162 123.2017 126.8782 129.5002 135.28571 138.9622 144.2252 149.4882 152.63271 157.89571" y="0">A – Speed limit of 45 mph or greater</tspan><tspan x="276.146 282.98599 285.608 290.871 293.49301 299.81049 305.59601 310.85901 316.12201 321.9075 324.52951 327.15149 329.7735 338.20001 340.82199 343.96649 346.5885 352.37399 355.51849 358.1405 360.76251 366.02551 371.28851 376.55151 379.17349 382.31799 388.10349 393.36649 399.15201 401.77399 407.03699 412.29999 414.922 423.34851 429.134" y="0.0285">B – Speed limit of less than 45 mph</tspan></text><path d="m289.26 66h-205.14v249.81h205.14z" fill="#b1b4b6"/><g transform="translate(237.58 287.94)"><path d="m0 0-54.507-206.64-54.504 206.64z" fill="#fff"/></g><g transform="translate(216.53 252.47)"><path d="m0 0-33.451-126.82-33.45 126.82z" fill="#b1b4b6"/></g><g transform="translate(182.96 292.13)"><path d="m0 0v-226.13" fill="none" stroke="#000" stroke-dasharray="10, 2, 3, 2"/></g><g transform="translate(241.61 287.46)"><path d="m0 0h37.344" fill="none" stroke="#000" stroke-width=".75"/></g><g transform="translate(241.61 252.91)"><path d="m0 0h19.139" fill="none" stroke="#000" stroke-width=".75"/></g><g transform="translate(190.26 81.595)"><path d="m0 0h88.694" fill="none" stroke="#000" stroke-width=".75"/></g><g transform="translate(274.75 179.99)"><path d="m0 0v-95.59" fill="none" stroke="#000" stroke-width=".75"/></g><g clip-path="url(#p)"><g transform="translate(275.29 84.288)"><path d="m0 0c0.263 0.868 0.504 1.432 0.783 2.128h-2.648c0.118-0.249 0.521-1.26 0.783-2.128 0.28-0.929 0.473-1.771 0.541-2.318 0.068 0.547 0.261 1.389 0.541 2.318"/></g></g><g transform="translate(274.75 284.65)"><path d="m0 0v-94.478" fill="none" stroke="#000" stroke-width=".75"/></g><g clip-path="url(#o)"><g transform="translate(274.21 284.76)"><path d="m0 0c-0.263-0.868-0.504-1.432-0.783-2.128h2.648c-0.118 0.249-0.521 1.26-0.783 2.128-0.28 0.929-0.473 1.771-0.541 2.318-0.068-0.547-0.261-1.389-0.541-2.318"/></g></g><g transform="translate(250.48 279.25)"><path d="m0 0v4.936" fill="none" stroke="#000" stroke-width=".75"/></g><g clip-path="url(#n)"><g transform="translate(249.94 284.76)"><path d="m0 0c-0.263-0.868-0.504-1.432-0.783-2.128h2.648c-0.118 0.249-0.521 1.26-0.783 2.128-0.28 0.929-0.473 1.771-0.541 2.318-0.068-0.547-0.261-1.389-0.541-2.318"/></g></g><g transform="translate(250.48 255.85)"><path d="m0 0v4.388" fill="none" stroke="#000" stroke-width=".75"/></g><g clip-path="url(#m)"><g transform="translate(251.01 255.61)"><path d="m0 0c0.263 0.868 0.504 1.432 0.783 2.128h-2.648c0.118-0.249 0.521-1.26 0.783-2.128 0.28-0.929 0.473-1.772 0.541-2.318 0.068 0.546 0.261 1.389 0.541 2.318"/></g></g><g transform="translate(128.32 290.9)"><path d="m0 0v20.532" fill="none" stroke="#000" stroke-width=".75"/></g><g transform="translate(237.55 290.9)"><path d="m0 0v20.532" fill="none" stroke="#000" stroke-width=".75"/></g><g transform="translate(192.41 306.5)"><path d="m0 0h42.439" fill="none" stroke="#000" stroke-width=".75"/></g><g clip-path="url(#l)"><g transform="translate(234.85 307.04)"><path d="m0 0c-0.868 0.262-1.433 0.504-2.129 0.783v-2.648c0.249 0.118 1.261 0.521 2.129 0.783 0.929 0.281 1.771 0.473 2.317 0.541-0.546 0.068-1.388 0.261-2.317 0.541"/></g></g><g transform="translate(130.78 306.5)"><path d="m0 0h46.014" fill="none" stroke="#000" stroke-width=".75"/></g><g clip-path="url(#k)"><g transform="translate(131.01 305.96)"><path d="m0 0c0.868-0.262 1.432-0.504 2.128-0.783v2.648c-0.249-0.118-1.26-0.521-2.128-0.783-0.929-0.281-1.771-0.473-2.318-0.541 0.547-0.068 1.389-0.261 2.318-0.541"/></g></g><g transform="translate(148.99 196.72)"><path d="m0 0-6.484-1.826" fill="none" stroke="#000" stroke-width=".75"/></g><g clip-path="url(#j)"><g transform="translate(150.04 197.58)"><path d="m0 0c-0.907 0.016-1.516 0.094-2.262 0.173l0.722-2.548c0.208 0.182 1.071 0.845 1.835 1.334 0.817 0.523 1.575 0.938 2.082 1.153-0.544-0.084-1.407-0.129-2.377-0.112"/></g></g><g transform="translate(166.64 201.91)"><path d="m0 0 8.787 2.491" fill="none" stroke="#000" stroke-width=".75"/></g><g clip-path="url(#i)"><g transform="translate(165.6 201.05)"><path d="m0 0c0.907-0.016 1.516-0.094 2.262-0.173l-0.723 2.548c-0.207-0.182-1.07-0.845-1.834-1.334-0.817-0.523-1.575-0.938-2.082-1.153 0.544 0.083 1.407 0.129 2.377 0.112"/></g></g><g transform="translate(120.18 88.69)"><path d="m0 0v10.9" fill="none" stroke="#000" stroke-width="2"/></g><g transform="translate(122.47 98.004)"><path d="m0 0-2.323 8.674-2.324-8.674z"/></g><text transform="matrix(1 0 0 -1 178.32 303.84)" fill="black" font-family="Helvetica" font-size="9px"><tspan x="0 5.0040002 7.506 10.008" y="0">6 ft</tspan><tspan x="67.176003 72.18" y="32.273998">36</tspan><tspan x="59.174999 61.173 66.177002 70.677002 75.681 80.684998" y="41.778">inches</tspan><tspan x="87.515999 92.519997 97.524002 100.026 102.528" y="122.049">20 ft</tspan><tspan x="-70.938004 -65.933998 -63.431999 -61.433998 -56.43 -51.93 -46.925999 -41.922001" y="111.861">8 inches</tspan><tspan x="-88.352997 -81.855003 -79.857002 -76.860001 -71.856003 -67.356003 -64.853996 -62.855999 -57.852001 -52.848 -50.346001 -45.341999 -42.84 -40.338001 -37.835999 -34.839001 -29.834999 -25.334999 -20.330999" y="231.62399">Direction of travel</tspan></text><path d="m553.02 89.194h-205.14v226.1h205.14z" fill="#b1b4b6"/><g transform="translate(501.34 294.17)"><path d="m0 0-54.508-188.94-54.504 188.94z" fill="#fff"/></g><g transform="translate(480.28 258.69)"><path d="M 0,0 -33.451,-117.473 -66.9,0 Z" fill="#b1b4b6"/></g><g transform="translate(446.72 294.99)"><path d="m0 0v-205.79" fill="none" stroke="#000" stroke-dasharray="10, 2, 3, 2"/></g><g transform="translate(505.36 293.68)"><path d="m0 0h37.344" fill="none" stroke="#000" stroke-width=".75"/></g><g transform="translate(505.36 259.13)"><path d="m0 0h19.139" fill="none" stroke="#000" stroke-width=".75"/></g><g transform="translate(454.01 105.03)"><path d="m0 0h88.693" fill="none" stroke="#000" stroke-width=".75"/></g><g transform="translate(538.5 198.22)"><path d="m0 0v-90.391" fill="none" stroke="#000" stroke-width=".75"/></g><g clip-path="url(#h)"><g transform="translate(539.04 107.72)"><path d="m0 0c0.264 0.869 0.504 1.434 0.783 2.129h-2.648c0.119-0.248 0.521-1.26 0.783-2.129 0.281-0.928 0.473-1.772 0.541-2.316 0.068 0.544 0.262 1.388 0.541 2.316"/></g></g><g transform="translate(538.5 290.88)"><path d="m0 0v-83.01" fill="none" stroke="#000" stroke-width=".75"/></g><g clip-path="url(#g)"><g transform="translate(537.97 290.99)"><path d="m0 0c-0.262-0.867-0.504-1.432-0.783-2.129h2.648c-0.117 0.25-0.521 1.262-0.783 2.129-0.279 0.93-0.473 1.771-0.541 2.318-0.068-0.547-0.26-1.388-0.541-2.318"/></g></g><g transform="translate(514.23 285.3)"><path d="m0 0v5.107" fill="none" stroke="#000" stroke-width=".75"/></g><g clip-path="url(#f)"><g transform="translate(513.69 290.99)"><path d="m0 0c-0.262-0.867-0.504-1.432-0.783-2.129h2.648c-0.117 0.25-0.521 1.262-0.783 2.129-0.279 0.93-0.473 1.771-0.541 2.318-0.068-0.547-0.26-1.388-0.541-2.318"/></g></g><g transform="translate(514.23 262.07)"><path d="m0 0v4.719" fill="none" stroke="#000" stroke-width=".75"/></g><g clip-path="url(#e)"><g transform="translate(514.77 261.83)"><path d="m0 0c0.264 0.869 0.504 1.434 0.783 2.131h-2.648c0.119-0.25 0.521-1.262 0.783-2.131 0.281-0.928 0.473-1.771 0.541-2.316 0.068 0.545 0.262 1.388 0.541 2.316"/></g></g><g transform="translate(392.08 297.12)"><path d="m0 0v13.477" fill="none" stroke="#000" stroke-width=".75"/></g><g transform="translate(501.3 297.12)"><path d="m0 0v13.477" fill="none" stroke="#000" stroke-width=".75"/></g><g transform="translate(454.38 305.67)"><path d="m0 0h44.232" fill="none" stroke="#000" stroke-width=".75"/></g><g clip-path="url(#d)"><g transform="translate(498.61 306.21)"><path d="m0 0c-0.867 0.262-1.432 0.504-2.129 0.783v-2.648c0.25 0.118 1.262 0.52 2.129 0.783 0.93 0.28 1.772 0.473 2.318 0.541-0.546 0.068-1.388 0.26-2.318 0.541"/></g></g><g transform="translate(394.54 305.67)"><path d="m0 0h44.697" fill="none" stroke="#000" stroke-width=".75"/></g><g clip-path="url(#c)"><g transform="translate(394.77 305.13)"><path d="m0 0c0.867-0.263 1.432-0.504 2.129-0.783v2.648c-0.25-0.119-1.262-0.521-2.129-0.783-0.93-0.281-1.771-0.473-2.318-0.541 0.547-0.068 1.388-0.262 2.318-0.541"/></g></g><g transform="translate(385.12 113.02)"><path d="m0 0v10.9" fill="none" stroke="#000" stroke-width="2"/></g><g transform="translate(387.41 122.34)"><path d="m0 0-2.324 8.674-2.324-8.674z"/></g><text transform="matrix(1 0 0 -1 440.77 302.8)" fill="black" font-family="Helvetica" font-size="9px"><tspan x="0 5.0040002 7.506 10.008" y="0">6 ft</tspan><tspan x="68.417999 73.421997" y="25.028999">30</tspan><tspan x="60.417 62.415001 67.418999 71.918999 76.922997 81.927002" y="34.533001">inches</tspan><tspan x="88.793999 93.797997 98.802002 101.304 103.806" y="102.825">13 ft</tspan><tspan x="-86.022003 -79.524002 -77.526001 -74.528999 -69.525002 -65.025002 -62.522999 -60.525002 -55.521 -50.516998 -48.014999 -43.011002 -40.508999 -38.007 -35.505001 -32.507999 -27.504 -23.004 -18" y="206.00999">Direction of travel</tspan></text><g transform="translate(413.97 206.18)"><path d="m0 0-6.484-1.826" fill="none" stroke="#000" stroke-width=".75"/></g><g clip-path="url(#b)"><g transform="translate(415.02 207.04)"><path d="m0 0c-0.907 0.016-1.516 0.094-2.262 0.173l0.722-2.548c0.208 0.182 1.071 0.845 1.835 1.334 0.816 0.523 1.574 0.938 2.082 1.153-0.545-0.084-1.407-0.129-2.377-0.112"/></g></g><g transform="translate(430.61 211.14)"><path d="m0 0 8.787 2.491" fill="none" stroke="#000" stroke-width=".75"/></g><g clip-path="url(#a)"><g transform="translate(429.56 210.29)"><path d="m0 0c0.907-0.016 1.516-0.094 2.262-0.173l-0.723 2.548c-0.207-0.182-1.07-0.845-1.834-1.334-0.817-0.523-1.575-0.938-2.082-1.153 0.544 0.083 1.407 0.129 2.377 0.112"/></g></g><text transform="matrix(1 0 0 -1 372.36 201.45)" fill="black" font-family="Helvetica" font-size="9px"><tspan x="0 5.0040002 7.506 9.5039997 14.508 19.007999 24.011999 29.016001" y="0">8 inches</tspan></text></g></svg>
