<?xml version="1.0" encoding="UTF-8"?>
<svg width="655.21" height="306.82" version="1.1" viewBox="0 0 655.21 306.82" xml:space="preserve" xmlns="http://www.w3.org/2000/svg"><g transform="matrix(1.3333 0 0 -1.3333 -50.767 931.85)"><g transform="translate(247.31 556.28)"><path d="m0 0h269.27" fill="none" stroke="#000" stroke-miterlimit="10" stroke-width=".5"/></g><g transform="translate(247.31 589.19)"><path d="m0 0h269.27" fill="none" stroke="#000" stroke-miterlimit="10" stroke-width=".5"/></g><g transform="translate(247.31 622.1)"><path d="m0 0h269.27" fill="none" stroke="#000" stroke-miterlimit="10" stroke-width=".5"/></g><g transform="translate(247.31 653.98)"><path d="m0 0h269.27" fill="none" stroke="#000" stroke-miterlimit="10" stroke-width=".5"/></g><g transform="translate(280.94 687.02)"><path d="m0 0v-163.78" fill="none" stroke="#000" stroke-miterlimit="10" stroke-width=".5"/></g><g transform="translate(314.43 687.02)"><path d="m0 0v-163.78" fill="none" stroke="#000" stroke-miterlimit="10" stroke-width=".5"/></g><g transform="translate(347.93 687.02)"><path d="m0 0v-163.78" fill="none" stroke="#000" stroke-miterlimit="10" stroke-width=".5"/></g><g transform="translate(382.46 687.02)"><path d="m0 0v-163.78" fill="none" stroke="#000" stroke-miterlimit="10" stroke-width=".5"/></g><g transform="translate(415.96 687.02)"><path d="m0 0v-163.78" fill="none" stroke="#000" stroke-miterlimit="10" stroke-width=".5"/></g><g transform="translate(449.45 687.02)"><path d="m0 0v-163.78" fill="none" stroke="#000" stroke-miterlimit="10" stroke-width=".5"/></g><g transform="translate(482.95 687.02)"><path d="m0 0v-163.78" fill="none" stroke="#000" stroke-miterlimit="10" stroke-width=".5"/></g><g transform="translate(341.4 581.86)"><path d="m0 0 13.559-20.337 13.392-13.559 14.055-8.433 13.228-6.448 11.514-2.875" fill="none" stroke="#000"/></g><g transform="translate(287.5 680.02)"><path d="m0 0 14-73.229 13.281-38.049 13.641-20.461 13.281-11.487 13.281-6.461" fill="none" stroke="#000" stroke-miterlimit="10"/></g><g transform="translate(271.43 687.02)"><path d="m0 0 2.431-25.301 13.282-79.69 13.64-31.948 13.282-15.076 8.949-4.285" fill="none" stroke="#000" stroke-miterlimit="10"/></g><g transform="translate(261.74 687.02)"><path d="m0 0 11.764-106.78 14.001-37.692 13.281-12.204" fill="none" stroke="#000" stroke-miterlimit="10"/></g><g transform="translate(300.78 530.56)"><path d="m0 0h215.8" fill="none" stroke="#000" stroke-miterlimit="10"/></g><g transform="translate(247.31 686.89)"><path d="m0 0h269.27" fill="none" stroke="#000" stroke-miterlimit="10" stroke-width=".5"/></g><g transform="translate(516.45 687.02)"><path d="m0 0v-163.78" fill="none" stroke="#000" stroke-miterlimit="10" stroke-width=".5"/></g><g transform="translate(247.44 687.02)"><path d="m0 0v-163.78" fill="none" stroke="#000" stroke-miterlimit="10" stroke-width=".5"/></g><g transform="translate(247.31 523.37)"><path d="m0 0h269.27" fill="none" stroke="#000" stroke-miterlimit="10" stroke-width=".5"/></g><g fill="black" font-family="Helvetica"><g><text transform="matrix(1 0 0 -1 250.19 495.98)" font-size="10px"><tspan x="0 8.3299999 15 20 27.780001 35 37.779999 44.450001 50.560001 57.779999 64.449997 71.120003 77.051003 79.831001 89.831001 92.431999 98.363998 106.144 111.514 118.184 123.379 126.159 133.939 140.049 142.82899 149.49899 157.27901 163.38901 170.60899 172.832 179.502 186.172 192.842 200.062 207.842 214.51199 221.73199 228.952 235.62199 242.29201 245.07201" y="0">MAJOR STREET — TOTAL OF BOTH APPROACHES —</tspan><tspan x="60.02 66.690002 73.360001 80.580002 83.360001 90.580002 96.139999 102.81 109.48 112.26 118.93 125.6 132.82001 135.60001 142.82001 150.60001 157.82001 165.03999 167.82001 171.14999 177.82001 184.49001 191.71001" y="11">VEHICLES PER HOUR (VPH)</tspan></text><text transform="matrix(1 0 0 -1 245.11 512.21)" font-size="8.205px"><tspan x="0 62.55492 67.116898 71.678879 128.30159 132.86357 137.42555 141.98752 195.29541 199.85739 204.41937 208.98135 28.939035 33.501015 38.062996 96.055939 100.61791 105.17989 161.8026 166.36458 170.92656 175.48854 228.79643 233.3584 237.92038 242.48236 262.28925 266.85123 271.41321 275.97519" y="0">050010001500250750125017502000</tspan><tspan x="-17.21409 -12.65211 -8.0901299" y="-41.262943">100</tspan><tspan x="-17.21409 -12.65211 -8.0901299" y="-74.173203">200</tspan><tspan x="-17.21409 -12.65211 -8.0901299" y="-107.08345">300</tspan><tspan x="-17.21409 -12.65211 -8.0901299" y="-139.99371">400</tspan><tspan x="-17.21409 -12.65211 -8.0901299" y="-172.90396">500</tspan></text><text transform="matrix(1 0 0 -1 149.86 619.58)" font-size="10px"><tspan x="0 5.9330001 13.713 19.082001 25.752001 30.947001 33.726002 41.506001 47.616001 49.846001 56.515999 62.076" y="0">TOTAL OF ALL</tspan><tspan x="-59.419998 -52.75 -46.080002 -38.860001 -32.189999 -25.52 -19.41 -12.19 -9.4099998 -2.74 4.48 11.15 13.93 21.15 28.370001 36.150002 42.82 49.490002 52.27 59.490002" y="11">PEDESTRIANS CROSSING</tspan><tspan x="-112.02 -105.91 -98.690002 -92.019997 -89.239998 -80.910004 -74.239998 -69.239998 -61.459999 -54.240002 -51.459999 -44.790001 -38.68 -31.459999 -24.790001 -18.120001 -12.191 -9.4110003 -6.0809999 -3.3010001 3.369 10.039 17.259001 23.929001 30.599001 36.709 43.929001 46.709 53.379002 60.598999" y="22">THE MAJOR STREET - PEDESTRIANS</tspan><tspan x="-15.52 -8.8500004 -2.1800001 5.04 7.8200002 15.04 22.82 30.040001 37.259998 40.040001 43.369999 50.040001 56.709999 63.93" y="33">PER HOUR (PPH)</tspan></text><text transform="matrix(1 0 0 -1 517.45 527.95)" font-size="8.205px"><tspan x="0 4.5619798 9.1239595" y="0">20*</tspan></text><text transform="matrix(1 0 0 -1 427.14 665.67)" font-size="9px"><tspan x="0 4.6754999 7.1774998 12.4335 14.9355 19.435499 22.432501 27.436501 31.936501 36.436501 42.934502 47.938499 49.936501 54.436501 56.938499 58.936501 63.940498 68.944504 73.948502 76.4505" y="0">L = crosswalk length</tspan></text><text transform="matrix(1 0 0 -1 284.12 470.36)" font-size="8px"><tspan x="0 3.112 5.336 11.112 15.56 17.784 22.232 24.455999 26.68 31.128 35.576 37.799999 42.248001 46.695999 51.144001 53.368 57.816002 62.264 66.711998 68.487999 70.264 74.711998 78.711998 80.935997 85.384003 89.384003 91.608002 93.832001 98.279999 102.728 104.952 106.728 111.176 116.952 121.4 124.064 126.288 128.51199 132.96001 135.62399 140.07201 144.07201 148.52 152.968 154.744 159.192 161.416 165.416 169.864 171.64 176.088 182.752" y="0">* Note: 20 pph applies as the lower threshold volume</tspan></text></g><g font-weight="bold"><text transform="matrix(.50119 -.86534 -.86534 -.50119 313.61 581.27)" font-size="7.5px"><tspan x="0 4.4489775 6.533967 10.913944 12.998934 17.168913 21.338892 23.423882 25.921368" y="0">L = 50 ft</tspan></text><text transform="matrix(.38323 -.92365 -.92365 -.38323 289.68 585.1)" font-size="7.5px"><tspan x="0 4.4489961 6.5339942 10.91399 12.998988 17.168983 21.33898 23.423979 25.921476" y="0">L = 72 ft</tspan></text><text transform="matrix(.34157 -.93985 -.93985 -.34157 276.73 580.72)" font-size="7.5px"><tspan x="0 4.4489927 6.533989 10.913981 12.998978 17.168972 21.338964 25.508957 27.593954 30.09145" y="0">L = 100 ft</tspan></text><text transform="matrix(.63029 -.77636 -.77636 -.63029 348.94 575.54)" font-size="7.5001px"><tspan x="0 4.4490561 6.5340824 10.914138 12.999164 17.169216 21.33927 23.424295 25.921827" y="0">L = 34 ft</tspan></text><text transform="matrix(1 0 0 -1 314.87 691.61)" font-size="10px"><tspan x="0 6.6700001 12.78 18.34 23.9 30.01 35.57 38.349998 44.459999 47.790001 50.57 59.459999 65.57 69.459999 75.019997 77.800003 81.129997 87.239998 92.800003 98.910004 101.69 107.25 112.81 115.59 124.48 130.59" y="0">Speeds of more than 35 mph</tspan></text></g></g></g></svg>
