<?xml version="1.0" encoding="UTF-8"?>
<svg width="508.09" height="570.63" version="1.1" viewBox="0 0 508.09 570.63" xml:space="preserve" xmlns="http://www.w3.org/2000/svg"><defs><clipPath id="p"><path d="m59.631 270.24h480.37v472.76h-480.37z"/></clipPath><clipPath id="o"><path d="m179.41 669.58v-7.453h235.39c-0.75 0.502-1.516 1.012-1.516 1.012s1.553 1.779 2.136 2.444c-0.631 0.516-2.262 1.853-2.262 1.853s1.355 1.212 1.913 1.712c-0.123 0.114-0.295 0.267-0.482 0.432z"/></clipPath><linearGradient id="b" x2="1" gradientTransform="matrix(0 -7.5615 -7.5615 0 297.42 669.58)" gradientUnits="userSpaceOnUse"><stop stop-color="#808285" offset="0"/><stop stop-color="#bcbec0" offset=".41011"/><stop offset="1"/></linearGradient><clipPath id="n"><path d="m59.631 270.24h480.37v472.76h-480.37z"/></clipPath><clipPath id="m"><path d="m179.34 564.27v-7.453h235.65c-0.524 0.499-1.061 1.011-1.061 1.011s1.086 1.779 1.494 2.443c-0.442 0.517-1.582 1.852-1.582 1.852s0.948 1.213 1.339 1.715c-0.087 0.111-0.208 0.264-0.337 0.432z"/></clipPath><linearGradient id="a" x2="1" gradientTransform="matrix(0 -7.5615 -7.5615 0 297.38 564.27)" gradientUnits="userSpaceOnUse"><stop stop-color="#808285" offset="0"/><stop stop-color="#bcbec0" offset=".41011"/><stop offset="1"/></linearGradient><clipPath id="l"><path d="m59.631 270.24h480.37v472.76h-480.37z"/></clipPath><clipPath id="k"><path d="m59.631 270.24h480.37v472.76h-480.37z"/></clipPath><clipPath id="j"><path d="m59.631 270.24h480.37v472.76h-480.37z"/></clipPath><clipPath id="i"><path d="m59.631 270.24h480.37v472.76h-480.37z"/></clipPath><clipPath id="h"><path d="m59.631 270.24h480.37v472.76h-480.37z"/></clipPath><clipPath id="g"><path d="m59.631 270.24h480.37v472.76h-480.37z"/></clipPath><clipPath id="f"><path d="m59.631 270.24h480.37v472.76h-480.37z"/></clipPath><clipPath id="e"><path d="m59.631 270.24h480.37v472.76h-480.37z"/></clipPath><clipPath id="d"><path d="m59.631 270.24h480.37v472.76h-480.37z"/></clipPath><clipPath id="c"><path d="m59.631 270.24h480.37v472.76h-480.37z"/></clipPath></defs><g transform="matrix(1.3333 0 0 -1.3333 -209.9 936.4)"><g transform="translate(283.12 332.63)"><path d="m0 0h-42.789v21.133h42.762z"/></g><g clip-path="url(#p)"><g transform="translate(386.06 381.3)"><path d="m0 0c4.715 0 8.539-3.822 8.539-8.539 0-4.715-3.824-8.539-8.539-8.539-4.717 0-8.539 3.824-8.539 8.539 0 4.717 3.822 8.539 8.539 8.539"/><path d="m0 0c4.715 0 8.539-3.822 8.539-8.539 0-4.715-3.824-8.539-8.539-8.539-4.717 0-8.539 3.824-8.539 8.539 0 4.717 3.822 8.539 8.539 8.539z" fill="none" stroke="#fff" stroke-width=".5"/></g></g><text transform="matrix(1 0 0 -1 238.25 695.14)" fill="black" font-family="Helvetica" font-size="10px" font-weight="bold"><tspan x="0 6.8559999 9.6359997 15.196 17.976 23.344999 28.905001 35.014999 37.794998 43.355 48.915001 51.695 54.474998 60.584999 66.695 72.254997 75.035004 78.364998 81.144997 87.254997 93.364998" y="0">A – Typical positions</tspan><tspan x="-11.03 -3.8099999 -1.03 4.5300002 7.3099999 12.681 18.240999 24.351 27.131001 32.691002 38.250999 41.030998 43.811001 49.370998 53.261002 57.151001 62.710999 68.820999 74.931 80.490997 89.380997 94.941002 101.051 104.381" y="292.06">B – Typical arrangements</tspan></text><g transform="translate(231.33 483.29)"><path d="m0 0v-55.008" fill="none" stroke="#fff"/></g><g transform="translate(370.28 483.29)"><path d="m0 0v-55.008" fill="none" stroke="#000"/></g><g transform="translate(301.24 428.28)"><path d="m0 0v55.008" fill="none" stroke="#fff"/></g><text transform="matrix(1 0 0 -1 275.83 684.27)" fill="black" font-family="Helvetica" font-size="9px" font-weight="bold"><tspan x="0" y="0">*</tspan><tspan x="5.7509999" y="75.086998">G</tspan></text><g clip-path="url(#o)"><path d="m179.41 669.58v-7.453h235.39c-0.75 0.502-1.516 1.012-1.516 1.012s1.553 1.779 2.136 2.444c-0.631 0.516-2.262 1.853-2.262 1.853s1.355 1.212 1.913 1.712c-0.123 0.114-0.295 0.267-0.482 0.432z" fill="url(#b)"/></g><g clip-path="url(#n)"><g transform="translate(180.84 665.85)"><path d="m0 0c0-2.058-0.64-3.726-1.428-3.726-0.789 0-1.429 1.668-1.429 3.726s0.64 3.726 1.429 3.726c0.788 0 1.428-1.668 1.428-3.726"/></g></g><text transform="matrix(1 0 0 -1 281.58 673.83)" fill="black" font-family="Helvetica" font-size="9px" font-weight="bold"><tspan x="0" y="0">R</tspan><tspan x="0" y="21.636">Y</tspan><tspan x="0" y="43.271999">G</tspan><tspan x="-69.920998" y="0.0089999996">R</tspan><tspan x="-69.920998" y="21.645">Y</tspan><tspan x="-69.920998" y="43.280998">G</tspan><tspan x="69.939003" y="0.017999999">R</tspan><tspan x="69.939003" y="21.653999">Y</tspan><tspan x="69.939003" y="43.290001">G</tspan></text><g clip-path="url(#m)"><path d="m179.34 564.27v-7.453h235.65c-0.524 0.499-1.061 1.011-1.061 1.011s1.086 1.779 1.494 2.443c-0.442 0.517-1.582 1.852-1.582 1.852s0.948 1.213 1.339 1.715c-0.087 0.111-0.208 0.264-0.337 0.432z" fill="url(#a)"/></g><g clip-path="url(#l)"><g transform="translate(180.77 560.54)"><path d="m0 0c0-2.058-0.64-3.726-1.428-3.726-0.789 0-1.428 1.668-1.428 3.726s0.639 3.726 1.428 3.726c0.788 0 1.428-1.668 1.428-3.726"/></g></g><text transform="matrix(1 0 0 -1 317.19 568.52)" fill="black" font-family="Helvetica" font-size="9px" font-weight="bold"><tspan x="0" y="0">R</tspan><tspan x="0" y="21.636">Y</tspan><tspan x="0" y="43.271999">G</tspan></text><g transform="translate(184.9 538.91)"><path d="m0 0v-21.382h21.133v64.396h-21.133v-21.382z"/></g><g clip-path="url(#k)"><g transform="translate(186.93 549.72)"><path d="m0 0c0-4.716 3.822-8.539 8.537-8.539 4.717 0 8.541 3.823 8.541 8.539 0 4.717-3.824 8.539-8.541 8.539-4.715 0-8.537-3.822-8.537-8.539" fill="#fff200"/></g><g transform="translate(186.93 571.35)"><path d="m0 0c0-4.717 3.822-8.539 8.537-8.539 4.717 0 8.541 3.822 8.541 8.539s-3.824 8.539-8.541 8.539c-4.715 0-8.537-3.822-8.537-8.539" fill="#ed1d24"/></g><g transform="translate(186.93 528.09)"><path d="m0 0c0-4.717 3.822-8.539 8.537-8.539 4.717 0 8.541 3.822 8.541 8.539s-3.824 8.539-8.541 8.539c-4.715 0-8.537-3.822-8.537-8.539" fill="#00a651"/></g><g transform="translate(206.03 560.54)"><path d="m0 0h-21.133" fill="none" stroke="#fff" stroke-width=".5"/></g><g transform="translate(206.03 538.91)"><path d="m0 0h-21.133" fill="none" stroke="#fff" stroke-width=".5"/></g></g><text transform="matrix(1 0 0 -1 211.66 568.52)" fill="black" font-family="Helvetica" font-size="9px" font-weight="bold"><tspan x="0" y="0">R</tspan><tspan x="0" y="21.636">Y</tspan><tspan x="0" y="43.271999">G</tspan></text><path d="m371.8 428.28h-69.923v55.008h69.923z" fill="#b1b4b6"/><g clip-path="url(#j)"><g transform="translate(348.87 461.8)"><path d="m0 0c-4.004 3.6-7.998 7.086-12.006 10.684 0.893-3.116 1.787-6.235 2.68-9.346-0.893-0.024-1.787-0.043-2.68-0.072-7.939-0.582-12.168-4.772-13.33-11.954v-12.021h3.984v8.037c0.883 5.606 3.702 9.053 9.346 9.346h2.68c-0.453-3.115-0.918-6.231-1.371-9.346 3.568 4.854 7.123 9.818 10.697 14.672" fill="#fff" fill-rule="evenodd"/></g><path d="m229.43 428.28h-69.925v55.006h69.925z" fill="#b1b4b6"/><g transform="translate(160.04 428.28)"><path d="m0 0v55.008" fill="none" stroke="#000"/></g><g transform="translate(196.84 449.13)"><path d="m0 0v6.354h1.559l-2.577 4.376-2.398-4.376h1.439v-6.354z"/></g><path d="m300.56 428.41h-69.925v55.008h69.925z" fill="#b1b4b6"/><g transform="translate(270.77 437.56)"><path d="m0 0c3.391 4.656 6.777 9.315 10.168 13.965-3.81 3.387-7.621 6.773-11.433 10.158 0.845-2.961 1.695-5.926 2.54-8.887-4.955 0.244-8.656-0.724-11.431-3.177v14.605c1.483-1.271 2.961-2.541 4.441-3.806-2.111 6.767-4.231 13.539-6.348 20.312-2.121-6.773-4.235-13.545-6.351-20.312 1.48 1.265 2.966 2.535 4.446 3.806v-34.281h3.812v6.344c0.168 5.98 2.759 9.713 8.891 10.162h2.54c-0.425-2.965-0.845-5.926-1.275-8.889" fill="#fff" fill-rule="evenodd"/></g></g><text transform="matrix(1 0 0 -1 184.18 383.63)" fill="black" font-family="Helvetica" font-size="9px" font-weight="bold"><tspan x="0" y="0">R</tspan><tspan x="0" y="21.627001">Y</tspan><tspan x="0" y="43.263">G</tspan></text><g transform="translate(178.56 354.02)"><path d="m0 0v-42.764h-21.133v85.778h21.133v-21.381z"/></g><g transform="translate(157.42 375.65)"><path d="m0 0h21.133" fill="none" stroke="#fff" stroke-width=".5"/></g><g transform="translate(157.42 354.02)"><path d="m0 0h21.133" fill="none" stroke="#fff" stroke-width=".5"/></g><g clip-path="url(#i)"><g transform="translate(167.99 395.01)"><path d="m0 0c4.717 0 8.539-3.824 8.539-8.539 0-4.717-3.822-8.539-8.539-8.539-4.713 0-8.538 3.822-8.538 8.539 0 4.715 3.825 8.539 8.538 8.539" fill="#ed1d24"/></g><g transform="translate(167.99 373.37)"><path d="m0 0c4.717 0 8.539-3.824 8.539-8.539 0-4.717-3.822-8.539-8.539-8.539-4.713 0-8.538 3.822-8.538 8.539 0 4.715 3.825 8.539 8.538 8.539" fill="#fff200"/></g><g transform="translate(167.99 351.74)"><path d="m0 0c4.717 0 8.539-3.824 8.539-8.539 0-4.717-3.822-8.539-8.539-8.539-4.713 0-8.538 3.822-8.538 8.539 0 4.715 3.825 8.539 8.538 8.539" fill="#00a651"/></g></g><text transform="matrix(1 0 0 -1 184.18 318.98)" fill="black" font-family="Helvetica" font-size="9px" font-weight="bold"><tspan x="0" y="0">G</tspan></text><g transform="translate(157.42 332.64)"><path d="m0 0h21.133" fill="none" stroke="#fff" stroke-width=".5"/></g><g clip-path="url(#h)"><g transform="translate(167.99 330.36)"><path d="m0 0c4.716 0 8.539-3.822 8.539-8.539 0-4.715-3.823-8.539-8.539-8.539-4.717 0-8.539 3.824-8.539 8.539 0 4.717 3.822 8.539 8.539 8.539"/><path d="m0 0c4.716 0 8.539-3.822 8.539-8.539 0-4.715-3.823-8.539-8.539-8.539-4.717 0-8.539 3.824-8.539 8.539 0 4.717 3.822 8.539 8.539 8.539z" fill="none" stroke="#fff" stroke-width=".5"/></g><g transform="translate(170.35 321.81)"><path d="m0 0h-8.505" fill="none" stroke="#00a651" stroke-width="1.395"/></g><g transform="translate(168.74 328.15)"><path d="m0 0 6.324-6.324-6.325-6.326" fill="none" stroke="#00a651" stroke-width="1.395"/></g><g transform="translate(250.9 351.74)"><path d="m0 0c-4.718 0-8.54-3.822-8.54-8.537 0-4.717 3.822-8.541 8.54-8.541 4.717 0 8.539 3.824 8.539 8.541 0 4.715-3.822 8.537-8.539 8.537" fill="#00a651"/></g><g transform="translate(261.71 332.63)"><path d="m0 0v21.133" fill="none" stroke="#fff" stroke-width=".5"/></g></g><text transform="matrix(1 0 0 -1 277.9 383.63)" fill="black" font-family="Helvetica" font-size="9px" font-weight="bold"><tspan x="0" y="0">R</tspan><tspan x="0" y="21.627001">Y</tspan><tspan x="10.674 -50.084999" y="43.263">GG</tspan></text><g transform="translate(251.15 353.99)"><path d="m0 0v43.041h21.133v-43.014z"/></g><g clip-path="url(#g)"><g transform="translate(270.25 364.83)"><path d="m0 0c0-4.717-3.822-8.539-8.537-8.539-4.717 0-8.541 3.822-8.541 8.539s3.824 8.539 8.541 8.539c4.715 0 8.537-3.822 8.537-8.539" fill="#fff200"/></g><g transform="translate(270.25 386.47)"><path d="m0 0c0-4.717-3.822-8.539-8.537-8.539-4.717 0-8.541 3.822-8.541 8.539s3.824 8.539 8.541 8.539c4.715 0 8.537-3.822 8.537-8.539" fill="#ed1d24"/></g><g transform="translate(251.15 375.65)"><path d="m0 0h21.133" fill="none" stroke="#fff" stroke-width=".5"/></g><g transform="translate(240.33 354.02)"><path d="m0 0h42.762" fill="none" stroke="#fff" stroke-width=".5"/></g></g><text transform="matrix(1 0 0 -1 339.42 389.3)" fill="black" font-family="Helvetica" font-size="9px" font-weight="bold"><tspan x="0 21.959999 43.011002 64.394997" y="0">RYGG</tspan></text><g transform="translate(375.24 383.32)"><path d="m0 0h42.765v-21.133h-85.779v21.133h21.383z"/></g><g transform="translate(353.61 362.19)"><path d="m0 0v21.133" fill="none" stroke="#fff" stroke-width=".5"/></g><g transform="translate(375.24 362.19)"><path d="m0 0v21.133" fill="none" stroke="#fff" stroke-width=".5"/></g><g clip-path="url(#f)"><g transform="translate(334.26 372.76)"><path d="m0 0c0 4.717 3.824 8.539 8.539 8.539 4.717 0 8.539-3.822 8.539-8.539 0-4.713-3.822-8.539-8.539-8.539-4.715 0-8.539 3.826-8.539 8.539" fill="#ed1d24"/></g><g transform="translate(355.89 372.76)"><path d="m0 0c0 4.717 3.824 8.539 8.539 8.539 4.717 0 8.539-3.822 8.539-8.539 0-4.713-3.822-8.539-8.539-8.539-4.715 0-8.539 3.826-8.539 8.539" fill="#fff200"/></g><g transform="translate(396.62 362.19)"><path d="m0 0v21.133" fill="none" stroke="#fff" stroke-width=".5"/></g><g transform="translate(394.6 372.76)"><path d="m0 0c0 4.715-3.822 8.539-8.539 8.539-4.715 0-8.539-3.824-8.539-8.539 0-4.717 3.824-8.539 8.539-8.539 4.717 0 8.539 3.822 8.539 8.539" fill="#00a651"/></g></g><text transform="matrix(1 0 0 -1 455.57 664.18)" fill="black" font-family="Helvetica" font-size="8px"><tspan x="0 3.112 5.336 10.672 15.12 19.568001 22.232 26.68 31.128 33.352001 37.352001 39.127998 43.576 48.023998 52.472 54.248001 56.472 58.695999 63.144001 67.143997" y="0">* Shared signal face</tspan></text><g transform="translate(455.58 456.48)"><path d="m0 0h6.354v1.559l4.376-2.577-4.376-2.398v1.439h-6.354z"/></g><g transform="translate(477.06 465)"><path d="m0 0h29.291" fill="none" stroke="#000" stroke-width=".75"/></g><text transform="matrix(1 0 0 -1 476.59 467.95)" fill="black" font-family="Helvetica" font-size="9px"><tspan x="0 5.0040002 10.008 15.012 20.016001 25.02" y="0">Legend</tspan></text><g clip-path="url(#e)"><text transform="matrix(1 0 0 -1 469.1 452.6)" fill="black" font-family="Helvetica" font-size="9px"><tspan x="0 6.4980001 8.4960003 11.493 16.497 20.997 23.499001 25.497 30.500999 35.505001 38.007 43.011002 45.513 48.014999 50.516998 53.514 58.518002 63.018002 68.022003" y="0">Direction of travel</tspan></text></g><text transform="matrix(1 0 0 -1 258.3 588.28)" fill="black" font-family="Helvetica" font-size="9px"><tspan x="0 7.0019999" y="0">OR</tspan></text><g transform="translate(290.43 538.91)"><path d="m0 0v-42.763h21.133v85.777h-21.133v-21.382z"/></g><g transform="translate(311.56 560.54)"><path d="m0 0h-21.133" fill="none" stroke="#fff" stroke-width=".5"/></g><g transform="translate(311.56 538.91)" fill="none" stroke="#fff" stroke-width=".5"><path d="m0 0h-21.133"/><path d="m0 0h-21.133"/></g><g transform="translate(311.56 517.28)"><path d="m0 0h-21.133" fill="none" stroke="#fff" stroke-width=".5"/></g><g clip-path="url(#d)"><g transform="translate(301 579.89)"><path d="m0 0c-4.717 0-8.539-3.824-8.539-8.539 0-4.717 3.822-8.539 8.539-8.539 4.713 0 8.537 3.822 8.537 8.539 0 4.715-3.824 8.539-8.537 8.539" fill="#ed1d24"/></g><g transform="translate(301 558.26)"><path d="m0 0c-4.717 0-8.539-3.824-8.539-8.539 0-4.717 3.822-8.539 8.539-8.539 4.713 0 8.537 3.822 8.537 8.539 0 4.715-3.824 8.539-8.537 8.539" fill="#fff200"/></g><g transform="translate(301 536.63)"><path d="m0 0c-4.717 0-8.539-3.824-8.539-8.539 0-4.717 3.822-8.539 8.539-8.539 4.713 0 8.537 3.822 8.537 8.539 0 4.715-3.824 8.539-8.537 8.539" fill="#00a651"/></g><g transform="translate(301 515.25)"><path d="m0 0c-4.717 0-8.539-3.824-8.539-8.539 0-4.717 3.822-8.539 8.539-8.539s8.539 3.822 8.539 8.539c0 4.715-3.822 8.539-8.539 8.539"/><path d="m0 0c-4.717 0-8.539-3.824-8.539-8.539 0-4.717 3.822-8.539 8.539-8.539s8.539 3.822 8.539 8.539c0 4.715-3.822 8.539-8.539 8.539z" fill="none" stroke="#fff" stroke-width=".5"/></g><g transform="translate(302.43 506.7)"><path d="m0 0h-8.506" fill="none" stroke="#00a651" stroke-width="1.395"/></g><g transform="translate(300.82 513.04)"><path d="m0 0 6.324-6.324-6.326-6.324" fill="none" stroke="#00a651" stroke-width="1.395"/></g></g><text transform="rotate(180 157.27 289.48)" fill="black" font-family="Helvetica" font-size="9px" font-weight="bold"><tspan x="0" y="0">*</tspan></text><g transform="translate(184.9 644.22)"><path d="m0 0v-21.382h21.133v64.396h-21.133v-21.382z"/></g><g clip-path="url(#c)"><g transform="translate(186.93 655.04)"><path d="m0 0c0-4.716 3.822-8.539 8.537-8.539 4.717 0 8.541 3.823 8.541 8.539 0 4.717-3.824 8.539-8.541 8.539-4.715 0-8.537-3.822-8.537-8.539" fill="#fff200"/></g><g transform="translate(186.93 676.67)"><path d="m0 0c0-4.717 3.822-8.539 8.537-8.539 4.717 0 8.541 3.822 8.541 8.539s-3.824 8.539-8.541 8.539c-4.715 0-8.537-3.822-8.537-8.539" fill="#ed1d24"/></g><g transform="translate(186.93 633.4)"><path d="m0 0c0-4.717 3.822-8.539 8.537-8.539 4.717 0 8.541 3.822 8.541 8.539s-3.824 8.539-8.541 8.539c-4.715 0-8.537-3.822-8.537-8.539" fill="#00a651"/></g><g transform="translate(206.03 665.85)"><path d="m0 0h-21.133" fill="none" stroke="#fff" stroke-width=".5"/></g><g transform="translate(206.03 644.22)"><path d="m0 0h-21.133" fill="none" stroke="#fff" stroke-width=".5"/></g><g transform="translate(324.75 644.22)"><path d="m0 0v-21.382h21.133v64.396h-21.133v-21.382z"/></g><g transform="translate(345.88 665.85)"><path d="m0 0h-21.133" fill="none" stroke="#fff" stroke-width=".5"/></g><g transform="translate(345.88 644.22)"><path d="m0 0h-21.133" fill="none" stroke="#fff" stroke-width=".5"/></g><g transform="translate(254.82 644.22)"><path d="m0 0v-42.764h21.133v85.778h-21.133v-21.382z"/></g><g transform="translate(275.96 665.85)"><path d="m0 0h-21.133" fill="none" stroke="#fff" stroke-width=".5"/></g><g transform="translate(275.96 644.22)"><path d="m0 0h-21.133" fill="none" stroke="#fff" stroke-width=".5"/></g><g transform="translate(265.39 685.21)"><path d="m0 0c-4.717 0-8.539-3.824-8.539-8.539 0-4.717 3.822-8.539 8.539-8.539 4.713 0 8.537 3.822 8.537 8.539 0 4.715-3.824 8.539-8.537 8.539" fill="#ed1d24"/></g><g transform="translate(265.39 663.57)"><path d="m0 0c-4.717 0-8.539-3.824-8.539-8.539 0-4.717 3.822-8.539 8.539-8.539 4.713 0 8.537 3.822 8.537 8.539 0 4.715-3.824 8.539-8.537 8.539" fill="#fff200"/></g><g transform="translate(265.39 641.94)"><path d="m0 0c-4.717 0-8.539-3.824-8.539-8.539 0-4.717 3.822-8.539 8.539-8.539 4.713 0 8.537 3.822 8.537 8.539 0 4.715-3.824 8.539-8.537 8.539" fill="#00a651"/></g><g transform="translate(335.32 685.21)"><path d="m0 0c-4.716 0-8.539-3.823-8.539-8.539s3.823-8.539 8.539-8.539c4.717 0 8.539 3.823 8.539 8.539s-3.822 8.539-8.539 8.539"/><path d="m0 0c-4.716 0-8.539-3.823-8.539-8.539s3.823-8.539 8.539-8.539c4.717 0 8.539 3.823 8.539 8.539s-3.822 8.539-8.539 8.539z" fill="none" stroke="#fff" stroke-width=".5"/></g><g transform="translate(336.75 676.66)"><path d="m0 0h-8.505" fill="none" stroke="#ed1d24" stroke-width="1.395"/></g><g transform="translate(335.13 683)"><path d="m0 0 6.324-6.324-6.325-6.325" fill="none" stroke="#ed1d24" stroke-width="1.395"/></g><g transform="translate(335.32 663.57)"><path d="m0 0c-4.716 0-8.539-3.823-8.539-8.539s3.823-8.539 8.539-8.539c4.717 0 8.539 3.823 8.539 8.539s-3.822 8.539-8.539 8.539"/><path d="m0 0c-4.716 0-8.539-3.823-8.539-8.539s3.823-8.539 8.539-8.539c4.717 0 8.539 3.823 8.539 8.539s-3.822 8.539-8.539 8.539z" fill="none" stroke="#fff" stroke-width=".5"/></g><g transform="translate(336.75 655.03)"><path d="m0 0h-8.505" fill="none" stroke="#fff200" stroke-width="1.395"/></g><g transform="translate(335.13 661.37)"><path d="m0 0 6.324-6.324-6.325-6.325" fill="none" stroke="#fff200" stroke-width="1.395"/></g><g transform="translate(335.32 641.94)"><path d="m0 0c-4.716 0-8.539-3.823-8.539-8.539s3.823-8.539 8.539-8.539c4.717 0 8.539 3.823 8.539 8.539s-3.822 8.539-8.539 8.539"/><path d="m0 0c-4.716 0-8.539-3.823-8.539-8.539s3.823-8.539 8.539-8.539c4.717 0 8.539 3.823 8.539 8.539s-3.822 8.539-8.539 8.539z" fill="none" stroke="#fff" stroke-width=".5"/></g><g transform="translate(336.75 633.39)"><path d="m0 0h-8.505" fill="none" stroke="#00a651" stroke-width="1.395"/></g><g transform="translate(335.13 639.74)"><path d="m0 0 6.324-6.324-6.325-6.325" fill="none" stroke="#00a651" stroke-width="1.395"/></g><g transform="translate(265.39 620.56)"><path d="m0 0c-4.717 0-8.539-3.823-8.539-8.539s3.822-8.539 8.539-8.539 8.539 3.823 8.539 8.539-3.822 8.539-8.539 8.539"/><path d="m0 0c-4.717 0-8.539-3.823-8.539-8.539s3.822-8.539 8.539-8.539 8.539 3.823 8.539 8.539-3.822 8.539-8.539 8.539z" fill="none" stroke="#fff" stroke-width=".5"/></g><g transform="translate(266.82 612.01)"><path d="m0 0h-8.506" fill="none" stroke="#00a651" stroke-width="1.395"/></g><g transform="translate(265.21 618.36)"><path d="m0 0 6.324-6.324-6.326-6.325" fill="none" stroke="#00a651" stroke-width="1.395"/></g><g transform="translate(271.59 351.74)"><path d="m0 0c4.716 0 8.539-3.822 8.539-8.539 0-4.715-3.823-8.539-8.539-8.539-4.717 0-8.539 3.824-8.539 8.539 0 4.717 3.822 8.539 8.539 8.539"/><path d="m0 0c4.716 0 8.539-3.822 8.539-8.539 0-4.715-3.823-8.539-8.539-8.539-4.717 0-8.539 3.824-8.539 8.539 0 4.717 3.822 8.539 8.539 8.539z" fill="none" stroke="#fff" stroke-width=".5"/></g><g transform="translate(273.96 343.19)"><path d="m0 0h-8.505" fill="none" stroke="#00a651" stroke-width="1.395"/></g><g transform="translate(272.35 349.54)"><path d="m0 0 6.324-6.324-6.325-6.326" fill="none" stroke="#00a651" stroke-width="1.395"/></g><g transform="translate(406.51 381.3)"><path d="m0 0c4.716 0 8.539-3.822 8.539-8.539 0-4.715-3.823-8.539-8.539-8.539-4.717 0-8.539 3.824-8.539 8.539 0 4.717 3.822 8.539 8.539 8.539"/><path d="m0 0c4.716 0 8.539-3.822 8.539-8.539 0-4.715-3.823-8.539-8.539-8.539-4.717 0-8.539 3.824-8.539 8.539 0 4.717 3.822 8.539 8.539 8.539z" fill="none" stroke="#fff" stroke-width=".5"/></g><g transform="translate(408.87 372.75)"><path d="m0 0h-8.505" fill="none" stroke="#00a651" stroke-width="1.395"/></g><g transform="translate(407.26 379.09)"><path d="m0 0 6.324-6.324-6.325-6.326" fill="none" stroke="#00a651" stroke-width="1.395"/></g><g transform="translate(275.96 622.84)"><path d="m0 0h-21.133" fill="none" stroke="#fff" stroke-width=".5"/></g></g><text transform="matrix(1 0 0 -1 165.75 293)" fill="black" font-family="Helvetica" font-size="8px"><tspan x="0 5.776 10.224 12.448 16.896 19.120001 23.568001 28.903999 33.352001 37.799999 40.464001 44.911999 49.360001 51.584 55.584 57.360001 61.807999 66.255997 70.704002 72.480003 74.704002 76.928001 81.375999 85.375999 89.823997 93.823997 96.047997 100.048 104.496 108.944 110.72 112.496 114.72 119.168 123.616 125.392 129.392 131.616 136.064 140.51199 142.73599 147.18401 151.19839 155.64639 160.09441 162.31841 164.5424 168.9904 171.6544 173.8784 178.3264 180.5504 184.9984 187.6624 192.1104 194.3344 198.78239 202.78239 205.00639 209.45441 213.9024 216.56641 221.0144 225.4624 227.2384 231.2384 233.4624 240.1264 244.5744 249.0224 253.4704 255.6944 258.3584 260.1344 264.5824 269.0304 271.25439 273.47839 275.70239 280.15039 282.81439 287.26239" y="0">Note: Shared signal faces shall only be used for a protected-only mode right turn </tspan><tspan x="24 25.775999 28 30.224001 32.448002 36.896 41.344002 43.568001 47.568001 49.344002 52.007999 56.007999 60.456001 62.231998 66.68 69.344002 71.568001 76.015999 78.68 83.127998 87.575996 92.024002 94.248001 98.695999 103.144 107.592 109.816 114.264 116.928 121.376 125.824 130.272 132.496 135.16 136.936 141.384 145.832 148.056 150.7328 152.9568 157.4048 160.0688 164.5168 166.7408 171.1888 173.8528 176.5168 180.9648 186.7408 188.9648 190.7408 195.1888 199.6368 201.4128 205.4128 209.86079 212.08479 213.86079 218.30881 222.75681 226.75681 228.9808 233.4288 235.2048 240.9808 245.4288 249.4288 253.4288 255.6528 260.1008 264.5488 268.9968 270.7728 275.22079" y="8.4960003">if the circular green and green right-turn arrow indications always begin </tspan><tspan x="24 28.448 32.896 37.344002 39.568001 41.792 46.240002 48.903999 55.568001 57.344002 61.792 66.239998 68.463997 72.912003 75.136002 77.360001 81.807999 86.255997 90.704002 92.928001 97.375999 101.824" y="16.992001">and terminate together</tspan></text></g></svg>
