<?xml version="1.0" encoding="UTF-8"?>
<svg width="632.77" height="253.16" version="1.1" viewBox="0 0 632.77 253.16" xml:space="preserve" xmlns="http://www.w3.org/2000/svg"><defs><clipPath id="f"><path d="m70.915 517.86h497.17v220.14h-497.17z"/></clipPath><clipPath id="e"><path d="m70.915 517.86h497.17v220.14h-497.17z"/></clipPath><clipPath id="d"><path d="m70.915 517.86h497.17v220.14h-497.17z"/></clipPath><clipPath id="c"><path d="m70.915 517.86h497.17v220.14h-497.17z"/></clipPath><clipPath id="b"><path d="m70.915 517.86h497.17v220.14h-497.17z"/></clipPath><clipPath id="a"><path d="m70.915 517.86h497.17v220.14h-497.17z"/></clipPath></defs><g transform="matrix(1.3333 0 0 -1.3333 -111.58 949.09)"><text transform="matrix(1 0 0 -1 153.75 698.41)" fill="black" font-family="Helvetica" font-size="9px" font-weight="bold"><tspan x="0 -60.048" y="0">RR</tspan><tspan x="-10.26" y="21.636">Y</tspan></text><g transform="translate(105.71 711.82)"><path d="m0 0h42.789v-21.133h-42.762z"/></g><g transform="translate(127.11 711.82)"><path d="m0 0v-21.133" fill="none" stroke="#fff" stroke-width=".5"/></g><g transform="translate(116.55 669.05)"><path d="m0 0v21.381l21.133 0.028v-21.409z"/></g><g transform="translate(148.49 690.43)"><path d="m0 0h-42.762" fill="none" stroke="#fff" stroke-width=".5"/></g><text transform="matrix(1 0 0 -1 82.706 656.4)" fill="black" font-family="Helvetica" font-size="9px"><tspan x="0 5.0040002 7.506 10.008 16.506001 21.51 24.507 29.007 31.509001 38.007 43.011002 45.513 47.511002 49.508999 51.5214 57.524399 62.024399 64.526398 66.524399 71.024399 76.028397 78.530403 83.534401" y="0">1. Dark Until Activated</tspan></text><g transform="translate(220.84 711.82)"><path d="m0 0h42.789v-21.133h-42.762z"/></g><g transform="translate(242.25 711.82)"><path d="m0 0v-21.133" fill="none" stroke="#fff" stroke-width=".5"/></g><text transform="matrix(1 0 0 -1 268.89 698.41)" fill="black" font-family="Helvetica" font-size="9px" font-weight="bold"><tspan x="0" y="0">R</tspan></text><text transform="matrix(1 0 0 -1 208.84 698.41)" fill="black" font-family="Helvetica" font-size="9px" font-weight="bold"><tspan x="0" y="0">R</tspan><tspan x="49.787998 55.286999" y="21.636">FY</tspan></text><g transform="translate(231.68 669.05)"><path d="m0 0v21.381l21.133 0.028v-21.409z"/></g><g transform="translate(263.63 690.43)"><path d="m0 0h-42.762" fill="none" stroke="#fff" stroke-width=".5"/></g><g clip-path="url(#f)"><g transform="translate(242.25 671.08)"><path d="m0 0c-4.716 0-8.539 3.822-8.539 8.539 0 4.715 3.823 8.539 8.539 8.539 4.717 0 8.539-3.824 8.539-8.539 0-4.717-3.822-8.539-8.539-8.539" fill="#fff200"/></g></g><text transform="matrix(1 0 0 -1 206.09 656.4)" fill="black" font-family="Helvetica" font-size="9px"><tspan x="0 5.0040002 7.506 10.0062 15.5052 17.503201 22.5072 27.0072 32.0112 34.009201 39.013199 44.0172 46.366199 51.542999 56.547001 58.544998 60.542999 65.546997" y="0">2. Flashing Yellow</tspan><tspan x="4.7519999 11.25 16.254 21.257999 26.261999 28.278 34.280998 38.780998 41.283001 43.280998 47.780998 52.785 55.286999 57.285 62.289001" y="10.998">Upon Activation</tspan></text><g transform="translate(324.98 711.82)"><path d="m0 0h42.789v-21.133h-42.762z"/></g><g transform="translate(346.39 711.82)"><path d="m0 0v-21.133" fill="none" stroke="#fff" stroke-width=".5"/></g><text transform="matrix(1 0 0 -1 373.03 698.41)" fill="black" font-family="Helvetica" font-size="9px" font-weight="bold"><tspan x="0" y="0">R</tspan></text><text transform="matrix(1 0 0 -1 312.98 698.41)" fill="black" font-family="Helvetica" font-size="9px" font-weight="bold"><tspan x="0" y="0">R</tspan><tspan x="49.787998 55.791" y="21.636">SY</tspan></text><g transform="translate(335.82 669.05)"><path d="m0 0v21.381l21.133 0.028v-21.409z"/></g><g transform="translate(367.77 690.43)"><path d="m0 0h-42.762" fill="none" stroke="#fff" stroke-width=".5"/></g><g clip-path="url(#e)"><g transform="translate(346.39 671.08)"><path d="m0 0c-4.715 0-8.539 3.822-8.539 8.539 0 4.715 3.824 8.539 8.539 8.539 4.717 0 8.539-3.824 8.539-8.539 0-4.717-3.822-8.539-8.539-8.539" fill="#fff200"/></g></g><text transform="matrix(1 0 0 -1 313.22 656.4)" fill="black" font-family="Helvetica" font-size="9px"><tspan x="0 5.0040002 7.506 10.0062 16.009199 18.5112 23.5152 28.519199 33.523201 38.023201 40.3722 45.549 50.553001 52.550999 54.549 59.553001" y="0">3. Steady Yellow</tspan></text><g transform="translate(441.7 711.82)"><path d="m0 0h42.791v-21.133h-42.764z"/></g><g clip-path="url(#d)"><g transform="translate(452.29 692.71)"><path d="m0 0c-4.719 0-8.541 3.822-8.541 8.537 0 4.717 3.822 8.541 8.541 8.541 4.717 0 8.539-3.824 8.539-8.541 0-4.715-3.822-8.537-8.539-8.537" fill="#ed1d24"/></g><g transform="translate(463.11 711.82)"><path d="m0 0v-21.133" fill="none" stroke="#fff" stroke-width=".5"/></g></g><text transform="matrix(1 0 0 -1 489.75 698.41)" fill="black" font-family="Helvetica" font-size="9px" font-weight="bold"><tspan x="0 6.0029998 -66.051003 -60.048" y="0">SRSR</tspan><tspan x="-10.26" y="21.636">Y</tspan></text><g transform="translate(452.54 669.05)"><path d="m0 0v21.381l21.133 0.028v-21.409z"/></g><g transform="translate(484.49 690.43)"><path d="m0 0h-42.764" fill="none" stroke="#fff" stroke-width=".5"/></g><g clip-path="url(#c)"><g transform="translate(473.93 692.71)"><path d="m0 0c-4.717 0-8.539 3.822-8.539 8.539 0 4.715 3.822 8.539 8.539 8.539s8.539-3.824 8.539-8.539c0-4.717-3.822-8.539-8.539-8.539" fill="#ed1d24"/></g></g><text transform="matrix(1 0 0 -1 419.95 656.4)" fill="black" font-family="Helvetica" font-size="9px"><tspan x="0 5.0040002 7.506 10.008 16.011 18.513 23.517 28.521 33.525002 38.025002 40.527 47.025002 52.028999 57.033001 59.535 66.032997 71.037003 74.033997 76.031998 81.036003" y="0">4. Steady Red During</tspan><tspan x="-5.5799999 0.42300001 5.427 10.431 15.435 19.934999 22.437 25.434 27.431999 32.436001 37.439999 39.942001 48.112202 53.116199 55.114201 59.614201 62.116199 64.618202 69.6222 72.124199 77.128197 80.125198 84.625198 89.629204" y="10.998">Pedestrian Walk Interval</tspan></text><text transform="matrix(1 0 0 -1 406.75 613.82)" fill="black" font-family="Helvetica" font-size="9px" font-weight="bold"><tspan x="0 -60.056999" y="0">RR</tspan><tspan x="-10.269" y="21.636">Y</tspan></text><g transform="translate(358.7 627.22)"><path d="m0 0h42.789v-21.133h-42.762z"/></g><g transform="translate(380.11 627.22)"><path d="m0 0v-21.133" fill="none" stroke="#fff" stroke-width=".5"/></g><g transform="translate(369.55 584.45)"><path d="m0 0v21.381l21.133 0.028v-21.409z"/></g><g transform="translate(401.49 605.84)"><path d="m0 0h-42.762" fill="none" stroke="#fff" stroke-width=".5"/></g><text transform="matrix(1 0 0 -1 149.27 571.7)" fill="black" font-family="Helvetica" font-size="9px"><tspan x="0 5.0040002 7.506 9.5138998 15.5169 17.5149 20.016899 25.020901 28.0179 33.0219 38.025902 40.527901 42.525902 47.5299 52.533901 55.0359 60.534901 62.532902 67.536903 72.036903 77.040901 79.038902 84.0429 89.046898 91.548897 98.046898 103.0509 108.0549 110.5569 117.0549 122.0589 125.0559 127.0539 132.05791" y="0">5. Alternating Flashing Red During</tspan><tspan x="14.004 20.007 25.011 30.014999 35.019001 39.519001 42.021 45.018002 47.015999 52.02 57.023998 59.526001 66.024002 71.028 76.031998 81.036003 86.040001 91.043999 93.545998 96.047997 101.052 103.554 108.558 111.555 116.055 121.059" y="10.998">Pedestrian Change Interval</tspan><tspan x="175.086 180.09 182.592 185.09219 191.59019 196.59419 199.5912 204.0912 206.09821 212.1012 217.10519 222.10921 224.10719 229.11121 231.61681 238.11481 243.1188 245.6208 247.6188 249.61681 251.6292 257.6322 262.1322 264.63419 266.6322 271.1322 276.1362 278.63821 283.64221" y="0">6. Dark Again Until Activated</tspan></text><g transform="translate(155.98 627.12)"><path d="m0 0h42.789v-21.133h-42.762z"/></g><g clip-path="url(#b)"><g transform="translate(166.57 608.01)"><path d="m0 0c-4.717 0-8.539 3.822-8.539 8.537 0 4.717 3.822 8.541 8.539 8.541s8.539-3.824 8.539-8.541c0-4.715-3.822-8.537-8.539-8.537" fill="#ed1d24"/></g><g transform="translate(177.39 627.12)"><path d="m0 0v-21.133" fill="none" stroke="#fff" stroke-width=".5"/></g></g><text transform="matrix(1 0 0 -1 204.03 613.71)" fill="black" font-family="Helvetica" font-size="9px" font-weight="bold"><tspan x="0" y="0">R</tspan></text><text transform="matrix(1 0 0 -1 137.98 613.71)" fill="black" font-family="Helvetica" font-size="9px" font-weight="bold"><tspan x="0 5.4990001" y="0">FR</tspan><tspan x="55.782001" y="21.636">Y</tspan></text><g transform="translate(166.82 584.35)"><path d="m0 0v21.381l21.133 0.028v-21.409z"/></g><g transform="translate(198.77 605.73)"><path d="m0 0h-42.762" fill="none" stroke="#fff" stroke-width=".5"/></g><g transform="translate(237.6 627.12)"><path d="m0 0h42.788v-21.133h-42.761z"/></g><g transform="translate(259 627.12)"><path d="m0 0v-21.133" fill="none" stroke="#fff" stroke-width=".5"/></g><text transform="matrix(1 0 0 -1 285.64 613.71)" fill="black" font-family="Helvetica" font-size="9px" font-weight="bold"><tspan x="0 5.4990001 -60.048" y="0">FRR</tspan><tspan x="-10.26" y="21.636">Y</tspan></text><g transform="translate(248.44 584.35)"><path d="m0 0v21.381l21.131 0.028v-21.409z"/></g><g transform="translate(280.39 605.73)"><path d="m0 0h-42.761" fill="none" stroke="#fff" stroke-width=".5"/></g><g clip-path="url(#a)"><g transform="translate(269.82 608.01)"><path d="m0 0c-4.715 0-8.537 3.822-8.537 8.539 0 4.715 3.822 8.539 8.537 8.539 4.718 0 8.54-3.824 8.54-8.539 0-4.717-3.822-8.539-8.54-8.539" fill="#ed1d24"/></g><g transform="translate(500.24 614.04)"><path d="m0 0h29.291" fill="none" stroke="#000" stroke-width=".75"/></g></g><g fill="black" font-family="Helvetica"><g font-size="9px"><text transform="matrix(1 0 0 -1 499.77 616.99)"><tspan x="0 5.0040002 10.008 15.012 20.016001 25.02" y="0">Legend</tspan></text><text transform="matrix(1 0 0 -1 477.98 599.93)" font-weight="bold"><tspan x="0 6.0029998" y="0">SY</tspan></text><text transform="matrix(1 0 0 -1 497.3 599.93)"><tspan x="0 6.0029998 8.5050001 13.509 18.513 23.517 28.017 30.518999 35.019001 40.022999 42.021 44.019001 49.022999" y="0">Steady yellow</tspan></text><text transform="matrix(1 0 0 -1 477.98 589.13)" font-weight="bold"><tspan x="0 5.4980998 11.3391" y="0">FY </tspan></text><text transform="matrix(1 0 0 -1 496.82 589.13)"><tspan x="0 5.4990001 7.4970002 12.501 17.000999 22.004999 24.003 29.007 34.011002 36.513 41.013 46.016998 48.014999 50.013 55.016998" y="0">Flashing yellow</tspan></text><text transform="matrix(1 0 0 -1 477.98 578.33)" font-weight="bold"><tspan x="0 6.0029998" y="0">SR</tspan></text><text transform="matrix(1 0 0 -1 497.25 578.33)"><tspan x="0 6.0029998 8.5050001 13.509 18.513 23.517 28.017 30.518999 33.515999 38.52" y="0">Steady red</tspan></text><text transform="matrix(1 0 0 -1 477.98 567.53)" font-weight="bold"><tspan x="0 5.4990001" y="0">FR</tspan></text><text transform="matrix(1 0 0 -1 496.93 567.53)"><tspan x="0 5.4990001 7.4970002 12.501 17.000999 22.004999 24.003 29.007 34.011002 36.513 39.509998 44.514" y="0">Flashing red</tspan></text></g><text transform="matrix(1 0 0 -1 142.63 540.62)" font-size="8px"><tspan x="0 5.776 10.224 12.448 16.896 19.120001 23.128799 28.4648 32.9128 35.136799 39.584801 44.032799 46.256802 48.032799 52.480801 56.928799 61.376801 63.152802 65.376801 69.376801 71.6008 76.048798 80.496803 84.944801 88.944801 91.1688 93.832802 98.2808 102.7288 104.9528 108.9528 110.7288 115.1768 119.6248 122.2888 126.7368 131.1848 135.1848 139.6328 141.8568 143.6328 148.0808 150.30479 154.75281 157.41679 161.41679 165.86481 167.64079 169.86481 176.52879 180.97681 184.97681 187.20081 191.6488 196.0968 198.3208 202.7688 207.2168 211.66479 216.11279 220.56081 222.78481 227.2328 229.4568 231.6808 236.1288 238.7928 241.0168 243.2408 247.6888 249.9128 254.36079 257.02481 261.02481 265.47281 267.24881 269.47281 273.92081 276.14481 278.3688 282.8168 287.2648 291.7128 293.9368 298.3848 302.83279" y="0">Note: An optional steady red clearance interval may be added after Interval 3, and an </tspan><tspan x="24 28.448 32.896 35.119999 36.896 41.344002 45.792 50.240002 52.015999 54.240002 58.240002 62.688 67.136002 69.800003 72.024002 74.248001 78.695999 83.143997 85.234398 87.458397 91.906403 94.570396 96.794403 98.570396 103.0184 105.2424 109.6904 112.3544 116.3544 120.8024 122.5784 124.8024 127.4664 131.9144 133.6904 135.9144 140.3624 143.0264 147.4744 151.92239 154.14639 155.92239 160.37041 164.81841 167.0424 169.2664 171.0424 175.4904 179.4904 183.9384 185.7144 190.1624 194.6104 196.8344 199.4984 203.9464 208.39439 210.61839 216.39439 220.84241 222.61839 224.39439 228.84241 231.06641 233.29041 237.7384 242.1864 244.4104 248.8584 253.3064 257.75439 262.20239 266.20239 268.42639 271.09039 272.86639 277.31439 281.76239 283.98639 287.98639 289.76239 294.21039 298.65839 303.10641 304.88239" y="8.4960003">optional short buffer interval (alternating flashing red while the pedestrian signal </tspan><tspan x="24 28.448 32.896 37.344002 41.792 45.792 48.015999 52.464001 55.127998 59.576 61.799999 66.248001 68.024002 72.024002 76.472 78.248001 82.695999 86.695999 88.472 92.919998 97.367996 99.592003 104.04 106.264 110.264 112.488 116.936 121.384 125.832 129.832 132.056 137.832 143.168 148.944 154.28 156.504 161.84 167.17599 172.952 175.17599 180.952 186.28799 192.064 197.84 200.504 202.728 209.392 213.84 217.84 220.064 224.51199 228.96001 231.18401 235.632 240.08 244.528 248.976 253.424 255.64799 260.09601 262.32001 264.54401 268.992 271.65601 273.88 276.104 280.552 282.776 287.224 289.888 293.888 298.336 300.112 302.336 306.784" y="16.992001">heads are displaying a steady UPRAISED HAND) may be added after Interval 5.</tspan></text></g></g></svg>
