<?xml version="1.0" encoding="UTF-8"?>
<svg width="673.44" height="792.48" version="1.1" viewBox="0 0 673.44 792.48" xml:space="preserve" xmlns="http://www.w3.org/2000/svg"><defs><clipPath id="p"><path d="m21.625 103.97h523.75v639.03h-523.75z"/></clipPath><clipPath id="o"><path d="m321.47 669.6v-7.453h165.55c-0.75 0.5-1.517 1.012-1.517 1.012s1.554 1.778 2.136 2.444c-0.631 0.515-2.261 1.851-2.261 1.851s1.356 1.213 1.915 1.714c-0.126 0.112-0.297 0.266-0.484 0.432z"/></clipPath><linearGradient id="d" x2="1" gradientTransform="matrix(0 -7.5615 -7.5615 0 404.56 669.59)" gradientUnits="userSpaceOnUse"><stop stop-color="#808285" offset="0"/><stop stop-color="#bcbec0" offset=".41011"/><stop offset="1"/></linearGradient><clipPath id="n"><path d="m142.29 669.6v-7.453h102.6c-0.749 0.5-1.517 1.012-1.517 1.012s1.555 1.778 2.137 2.444c-0.631 0.515-2.261 1.851-2.261 1.851s1.354 1.213 1.913 1.714c-0.125 0.112-0.297 0.266-0.482 0.432z"/></clipPath><linearGradient id="c" x2="1" gradientTransform="matrix(0 -7.5615 -7.5615 0 193.9 669.59)" gradientUnits="userSpaceOnUse"><stop stop-color="#808285" offset="0"/><stop stop-color="#bcbec0" offset=".41011"/><stop offset="1"/></linearGradient><clipPath id="m"><path d="m21.625 103.97h523.75v639.03h-523.75z"/></clipPath><clipPath id="l"><path d="m21.625 103.97h523.75v639.03h-523.75z"/></clipPath><clipPath id="k"><path d="m334.04 496.78v-7.453h165.55c-0.75 0.501-1.517 1.011-1.517 1.011s1.554 1.779 2.136 2.445c-0.631 0.515-2.261 1.852-2.261 1.852s1.355 1.212 1.913 1.713c-0.124 0.113-0.297 0.266-0.482 0.432z"/></clipPath><linearGradient id="b" x2="1" gradientTransform="matrix(0 -7.562 -7.562 0 417.13 496.78)" gradientUnits="userSpaceOnUse"><stop stop-color="#808285" offset="0"/><stop stop-color="#bcbec0" offset=".41011"/><stop offset="1"/></linearGradient><clipPath id="j"><path d="m21.625 103.97h523.75v639.03h-523.75z"/></clipPath><clipPath id="i"><path d="m21.625 103.97h523.75v639.03h-523.75z"/></clipPath><clipPath id="h"><path d="m88.686 497.05v-7.452h165.55c-0.75 0.499-1.516 1.011-1.516 1.011s1.553 1.778 2.135 2.444c-0.63 0.515-2.26 1.851-2.26 1.851s1.354 1.213 1.912 1.713c-0.125 0.113-0.297 0.267-0.481 0.433z"/></clipPath><linearGradient id="a" x2="1" gradientTransform="matrix(0 -7.561 -7.561 0 171.77 497.05)" gradientUnits="userSpaceOnUse"><stop stop-color="#808285" offset="0"/><stop stop-color="#bcbec0" offset=".41011"/><stop offset="1"/></linearGradient><clipPath id="g"><path d="m21.625 103.97h523.75v639.03h-523.75z"/></clipPath><clipPath id="ab"><path d="m21.625 103.97h523.75v639.03h-523.75z"/></clipPath><clipPath id="aa"><path d="m21.625 103.97h523.75v639.03h-523.75z"/></clipPath><clipPath id="z"><path d="m54.031 324.16v-7.452h230.52c-0.752 0.501-1.519 1.012-1.519 1.012s1.556 1.777 2.137 2.443c-0.631 0.515-2.262 1.852-2.262 1.852s1.357 1.213 1.915 1.712c-0.125 0.115-0.297 0.266-0.484 0.433z"/></clipPath><linearGradient id="f" x2="1" gradientTransform="matrix(0 -7.5611 -7.5611 0 169.6 324.16)" gradientUnits="userSpaceOnUse"><stop stop-color="#808285" offset="0"/><stop stop-color="#bcbec0" offset=".41011"/><stop offset="1"/></linearGradient><clipPath id="y"><path d="m21.625 103.97h523.75v639.03h-523.75z"/></clipPath><clipPath id="x"><path d="m21.625 103.97h523.75v639.03h-523.75z"/></clipPath><clipPath id="w"><path d="m21.625 103.97h523.75v639.03h-523.75z"/></clipPath><clipPath id="v"><path d="m21.625 103.97h523.75v639.03h-523.75z"/></clipPath><clipPath id="u"><path d="m21.625 103.97h523.75v639.03h-523.75z"/></clipPath><clipPath id="t"><path d="m21.625 103.97h523.75v639.03h-523.75z"/></clipPath><clipPath id="s"><path d="m371.95 323.68v-7.453h165.56c-0.75 0.5-1.519 1.012-1.519 1.012s1.555 1.778 2.139 2.444c-0.631 0.516-2.263 1.85-2.263 1.85s1.355 1.215 1.913 1.715c-0.125 0.114-0.297 0.267-0.482 0.432z"/></clipPath><linearGradient id="e" x2="1" gradientTransform="matrix(0 -7.5621 -7.5621 0 455.04 323.68)" gradientUnits="userSpaceOnUse"><stop stop-color="#808285" offset="0"/><stop stop-color="#bcbec0" offset=".41011"/><stop offset="1"/></linearGradient><clipPath id="r"><path d="m21.625 103.97h523.75v639.03h-523.75z"/></clipPath><clipPath id="q"><path d="m21.625 103.97h523.75v639.03h-523.75z"/></clipPath></defs><g transform="matrix(1.3333 0 0 -1.3333 -44.054 936.56)"><g><text transform="matrix(1 0 0 -1 142.58 695.14)" fill="black" font-family="Helvetica" font-size="10px" font-weight="bold"><tspan x="0 7.2199998 10 15.56 18.34 25.01 30.57 36.68 42.240002 47.799999 51.130001 55.02 57.799999 63.360001 69.470001 72.25 78.360001 82.25 85.029999 90.589996 96.150002 102.26 105.04 110.6 116.71 119.49 125.05 128.94 131.72 137.28 143.39 149.5 152.83 155.61 158.39 163.95 167.28 170.06 177.84 180.62 183.95 190.06 192.84 198.95 205.06 210.62 213.39999 216.73 222.84 226.73 232.84 235.62 244.50999 250.62 256.17999 261.73999 270.63 276.19 282.29999" y="0">B – Pedestrian or vehicular conflict with one turn movement</tspan></text><text transform="matrix(1 0 0 -1 350.81 609.19)" fill="black" font-family="Helvetica" font-size="9px" font-weight="bold"><tspan x="0 7.0019999" y="0">G*</tspan><tspan x="0" y="-64.647003">R</tspan><tspan x="0" y="-43.011002">Y</tspan><tspan x="0" y="-21.375">G</tspan><tspan x="69.93" y="-64.638">R</tspan><tspan x="69.93" y="-43.001999">Y</tspan><tspan x="69.93" y="-21.365999">G</tspan></text><path d="m407.57 551.47h-69.925v42.998h69.925z" fill="#b1b4b6"/></g><g clip-path="url(#p)"><g transform="translate(395.96 578.99)"><path d="m0 0c-4.004 3.6-7.998 7.086-12.006 10.684 0.893-3.116 1.787-6.235 2.68-9.346-0.893-0.023-1.787-0.043-2.68-0.072-5.473-0.402-9.181-2.518-11.338-6.144-2.158 3.626-5.865 5.742-11.338 6.144-0.892 0.029-1.787 0.049-2.679 0.072 0.892 3.111 1.787 6.23 2.679 9.346-4.008-3.598-8.002-7.084-12.006-10.684 3.575-4.854 7.129-9.818 10.698-14.672-0.453 3.115-0.918 6.231-1.371 9.346h2.679c5.645-0.293 8.463-3.74 9.346-9.346v-8.037h3.984v8.037c0.883 5.606 3.702 9.053 9.346 9.346h2.68c-0.453-3.115-0.918-6.231-1.371-9.346 3.568 4.854 7.123 9.818 10.697 14.672" fill="#fff" fill-rule="evenodd"/></g></g><g clip-path="url(#o)"><path d="m321.47 669.6v-7.453h165.55c-0.75 0.5-1.517 1.012-1.517 1.012s1.554 1.778 2.136 2.444c-0.631 0.515-2.261 1.851-2.261 1.851s1.356 1.213 1.915 1.714c-0.126 0.112-0.297 0.266-0.484 0.432z" fill="url(#d)"/></g><g clip-path="url(#n)"><path d="m142.29 669.6v-7.453h102.6c-0.749 0.5-1.517 1.012-1.517 1.012s1.555 1.778 2.137 2.444c-0.631 0.515-2.261 1.851-2.261 1.851s1.354 1.213 1.913 1.714c-0.125 0.112-0.297 0.266-0.482 0.432z" fill="url(#c)"/></g><g clip-path="url(#m)"><g transform="translate(322.9 665.87)"><path d="m0 0c0-2.058-0.639-3.726-1.428-3.726s-1.429 1.668-1.429 3.726 0.64 3.726 1.429 3.726 1.428-1.668 1.428-3.726"/></g><g transform="translate(418.1 644.24)"><path d="m0 0v-21.382h-21.133v64.396h21.133v-21.382z"/></g><g transform="translate(416.08 655.05)"><path d="m0 0c0-4.716-3.822-8.539-8.537-8.539-4.717 0-8.541 3.823-8.541 8.539 0 4.717 3.824 8.539 8.541 8.539 4.715 0 8.537-3.822 8.537-8.539" fill="#fff200"/></g><g transform="translate(416.08 676.68)"><path d="m0 0c0-4.717-3.822-8.539-8.537-8.539-4.717 0-8.541 3.822-8.541 8.539s3.824 8.539 8.541 8.539c4.715 0 8.537-3.822 8.537-8.539" fill="#ed1d24"/></g><g transform="translate(416.08 633.42)"><path d="m0 0c0-4.717-3.822-8.539-8.537-8.539-4.717 0-8.541 3.822-8.541 8.539s3.824 8.539 8.541 8.539c4.715 0 8.537-3.822 8.537-8.539" fill="#00a651"/></g><g transform="translate(396.97 665.87)"><path d="m0 0h21.133" fill="none" stroke="#fff" stroke-width=".5"/></g><g transform="translate(396.97 644.24)"><path d="m0 0h21.133" fill="none" stroke="#fff" stroke-width=".5"/></g><g transform="translate(348.18 644.24)"><path d="m0 0v-42.764h-21.133v85.778h21.133v-21.382z"/></g><g transform="translate(327.04 665.87)"><path d="m0 0h21.133" fill="none" stroke="#fff" stroke-width=".5"/></g><g transform="translate(327.04 644.24)"><path d="m0 0h21.133" fill="none" stroke="#fff" stroke-width=".5"/></g><g transform="translate(337.61 685.22)"><path d="m0 0c4.717 0 8.539-3.824 8.539-8.539 0-4.717-3.822-8.539-8.539-8.539-4.713 0-8.537 3.822-8.537 8.539 0 4.715 3.824 8.539 8.537 8.539" fill="#ed1d24"/></g><g transform="translate(337.61 663.59)"><path d="m0 0c4.717 0 8.539-3.824 8.539-8.539 0-4.717-3.822-8.539-8.539-8.539-4.713 0-8.537 3.822-8.537 8.539 0 4.715 3.824 8.539 8.537 8.539" fill="#fff200"/></g><g transform="translate(337.61 641.96)"><path d="m0 0c4.717 0 8.539-3.824 8.539-8.539 0-4.717-3.822-8.539-8.539-8.539-4.713 0-8.537 3.822-8.537 8.539 0 4.715 3.824 8.539 8.537 8.539" fill="#00a651"/></g><g transform="translate(337.61 620.58)"><path d="m0 0c4.717 0 8.539-3.823 8.539-8.539s-3.822-8.539-8.539-8.539-8.539 3.823-8.539 8.539 3.822 8.539 8.539 8.539"/><path d="m0 0c4.717 0 8.539-3.823 8.539-8.539s-3.822-8.539-8.539-8.539-8.539 3.823-8.539 8.539 3.822 8.539 8.539 8.539z" fill="none" stroke="#fff" stroke-width=".5"/></g><g transform="translate(336.18 612.03)"><path d="m0 0h8.506" fill="none" stroke="#00a651" stroke-width="1.395"/></g><g transform="translate(337.79 618.37)"><path d="m0 0-6.324-6.324 6.326-6.326" fill="none" stroke="#00a651" stroke-width="1.395"/></g><g transform="translate(327.04 622.85)"><path d="m0 0h21.133" fill="none" stroke="#fff" stroke-width=".5"/></g><g transform="translate(337.65 551.47)"><path d="m0 0v43" fill="none" stroke="#000"/></g><g transform="translate(407.57 551.47)"><path d="m0 0v43" fill="none" stroke="#000"/></g></g><text transform="matrix(1 0 0 -1 285.75 575.52)" fill="black" font-family="Helvetica" font-size="9px"><tspan x="0 6.0029998 8.0010004 13.005 18.009001 20.007 25.011 28.007999 30.006001 35.009998 40.014 45.018002" y="0">Single-lane </tspan><tspan x="5.0040002 10.008 15.012 20.016001 23.013 28.017 33.021 37.521" y="9.5039997">approach</tspan></text><path d="m225.49 551.47h-69.925v42.998h69.925z" fill="#b1b4b6"/><g clip-path="url(#l)"><g transform="translate(213.87 578.99)"><path d="m0 0c-4.004 3.6-7.998 7.086-12.006 10.684 0.893-3.116 1.787-6.235 2.68-9.346-0.893-0.023-1.787-0.043-2.68-0.072-5.473-0.402-9.181-2.518-11.338-6.144-2.158 3.626-5.865 5.742-11.338 6.144-0.892 0.029-1.787 0.049-2.679 0.072 0.892 3.111 1.787 6.23 2.679 9.346-4.007-3.598-8.002-7.084-12.006-10.684 3.575-4.854 7.129-9.818 10.698-14.672-0.453 3.115-0.918 6.231-1.371 9.346h2.679c5.645-0.293 8.463-3.74 9.346-9.346v-8.037h3.984v8.037c0.883 5.606 3.702 9.053 9.346 9.346h2.68c-0.453-3.115-0.918-6.231-1.371-9.346 3.568 4.854 7.123 9.818 10.697 14.672" fill="#fff" fill-rule="evenodd"/></g><g transform="translate(155.56 551.47)"><path d="m0 0v43" fill="none" stroke="#000"/></g><g transform="translate(225.49 551.47)"><path d="m0 0v43" fill="none" stroke="#000"/></g></g><text transform="matrix(1 0 0 -1 103.66 575.52)" fill="black" font-family="Helvetica" font-size="9px"><tspan x="0 6.0029998 8.0010004 13.005 18.009001 20.007 25.011 28.007999 30.006001 35.009998 40.014 45.018002" y="0">Single-lane </tspan><tspan x="5.0040002 10.008 15.012 20.016001 23.013 28.017 33.021 37.521" y="9.5039997">approach</tspan><tspan x="169.416 176.418" y="-62.046001">OR</tspan><tspan x="173.11501 180.117" y="112.356">OR</tspan><tspan x="194.436 201.438" y="284.841">OR</tspan></text><text transform="matrix(1 0 0 -1 363.38 436.37)" fill="black" font-family="Helvetica" font-size="9px" font-weight="bold"><tspan x="0 7.0019999" y="0">G*</tspan></text><g clip-path="url(#k)"><path d="m334.04 496.78v-7.453h165.55c-0.75 0.501-1.517 1.011-1.517 1.011s1.554 1.779 2.136 2.445c-0.631 0.515-2.261 1.852-2.261 1.852s1.355 1.212 1.913 1.713c-0.124 0.113-0.297 0.266-0.482 0.432z" fill="url(#b)"/></g><g clip-path="url(#j)"><g transform="translate(335.47 493.05)"><path d="m0 0c0-2.058-0.639-3.725-1.428-3.725s-1.429 1.667-1.429 3.725 0.64 3.727 1.429 3.727 1.428-1.669 1.428-3.727"/></g></g><text transform="matrix(1 0 0 -1 363.38 501.02)" fill="black" font-family="Helvetica" font-size="9px" font-weight="bold"><tspan x="0" y="0">R</tspan><tspan x="0" y="21.636">Y</tspan><tspan x="0" y="43.271999">G</tspan><tspan x="69.705002" y="0.0089999996">R</tspan><tspan x="70.019997" y="21.645">Y</tspan><tspan x="70.019997" y="43.280998">G</tspan></text><g transform="translate(430.67 471.42)"><path d="m0 0v-21.382h-21.133v64.396h21.133v-21.382z"/></g><g clip-path="url(#i)"><g transform="translate(428.64 482.23)"><path d="m0 0c0-4.717-3.822-8.539-8.537-8.539-4.717 0-8.541 3.822-8.541 8.539s3.824 8.539 8.541 8.539c4.715 0 8.537-3.822 8.537-8.539" fill="#fff200"/></g><g transform="translate(428.64 503.87)"><path d="m0 0c0-4.717-3.822-8.539-8.537-8.539-4.717 0-8.541 3.822-8.541 8.539s3.824 8.539 8.541 8.539c4.715 0 8.537-3.822 8.537-8.539" fill="#ed1d24"/></g><g transform="translate(428.64 460.6)"><path d="m0 0c0-4.717-3.822-8.539-8.537-8.539-4.717 0-8.541 3.822-8.541 8.539s3.824 8.539 8.541 8.539c4.715 0 8.537-3.822 8.537-8.539" fill="#00a651"/></g><g transform="translate(409.54 493.05)"><path d="m0 0h21.133" fill="none" stroke="#fff" stroke-width=".5"/></g><g transform="translate(409.54 471.42)"><path d="m0 0h21.133" fill="none" stroke="#fff" stroke-width=".5"/></g><g transform="translate(360.75 471.42)"><path d="m0 0v-42.764h-21.133v85.778h21.133v-21.382z"/></g><g transform="translate(339.62 493.05)"><path d="m0 0h21.133" fill="none" stroke="#fff" stroke-width=".5"/></g><g transform="translate(339.62 471.42)"><path d="m0 0h21.133" fill="none" stroke="#fff" stroke-width=".5"/></g><g transform="translate(350.18 512.4)"><path d="m0 0c4.717 0 8.539-3.824 8.539-8.539 0-4.717-3.822-8.539-8.539-8.539-4.713 0-8.537 3.822-8.537 8.539 0 4.715 3.824 8.539 8.537 8.539" fill="#ed1d24"/></g><g transform="translate(350.18 490.77)"><path d="m0 0c4.717 0 8.539-3.824 8.539-8.539 0-4.717-3.822-8.539-8.539-8.539-4.713 0-8.537 3.822-8.537 8.539 0 4.715 3.824 8.539 8.537 8.539" fill="#fff200"/></g><g transform="translate(350.18 469.14)"><path d="m0 0c4.717 0 8.539-3.824 8.539-8.539 0-4.717-3.822-8.539-8.539-8.539-4.713 0-8.537 3.822-8.537 8.539 0 4.715 3.824 8.539 8.537 8.539" fill="#00a651"/></g><g transform="translate(350.18 447.76)"><path d="m0 0c4.717 0 8.539-3.823 8.539-8.539s-3.822-8.539-8.539-8.539-8.539 3.823-8.539 8.539 3.822 8.539 8.539 8.539"/><path d="m0 0c4.717 0 8.539-3.823 8.539-8.539s-3.822-8.539-8.539-8.539-8.539 3.823-8.539 8.539 3.822 8.539 8.539 8.539z" fill="none" stroke="#fff" stroke-width=".5"/></g><g transform="translate(348.75 439.21)"><path d="m0 0h8.506" fill="none" stroke="#00a651" stroke-width="1.395"/></g><g transform="translate(350.36 445.55)"><path d="m0 0-6.324-6.324 6.326-6.325" fill="none" stroke="#00a651" stroke-width="1.395"/></g><g transform="translate(339.62 450.04)"><path d="m0 0h21.133" fill="none" stroke="#fff" stroke-width=".5"/></g></g><g clip-path="url(#h)"><path d="m88.686 497.05v-7.452h165.55c-0.75 0.499-1.516 1.011-1.516 1.011s1.553 1.778 2.135 2.444c-0.63 0.515-2.26 1.851-2.26 1.851s1.354 1.213 1.912 1.713c-0.125 0.113-0.297 0.267-0.481 0.433z" fill="url(#a)"/></g><g clip-path="url(#g)"><g transform="translate(90.114 493.32)"><path d="m0 0c0-2.059-0.639-3.727-1.428-3.727s-1.429 1.668-1.429 3.727c0 2.057 0.64 3.726 1.429 3.726s1.428-1.669 1.428-3.726"/></g></g><text transform="matrix(1 0 0 -1 117.96 501.64)" fill="black" font-family="Helvetica" font-size="9px" font-weight="bold"><tspan x="0" y="0">R</tspan><tspan x="0" y="21.627001">Y</tspan><tspan x="0" y="43.254002">G</tspan></text><g transform="translate(115.39 472.04)"><path d="m0 0v-21.383h-21.133v64.397h21.133v-21.383z"/></g><g clip-path="url(#ab)"><g transform="translate(113.36 504.49)"><path d="m0 0c0-4.717-3.822-8.539-8.537-8.539-4.717 0-8.541 3.822-8.541 8.539s3.824 8.539 8.541 8.539c4.715 0 8.537-3.822 8.537-8.539" fill="#ed1d24"/></g><g transform="translate(94.256 493.67)"><path d="m0 0h21.133" fill="none" stroke="#fff" stroke-width=".5"/></g><g transform="translate(94.256 472.04)"><path d="m0 0h21.133" fill="none" stroke="#fff" stroke-width=".5"/></g></g><text transform="matrix(1 0 0 -1 187.63 501.64)" fill="black" font-family="Helvetica" font-size="9px" font-weight="bold"><tspan x="0" y="0">R</tspan><tspan x="11.322 17.325001" y="21.627001">SY</tspan><tspan x="11.322 16.820999" y="43.254002">FY</tspan><tspan x="-43.146" y="21.627001">Y</tspan><tspan x="-43.667999" y="43.254002">G</tspan></text><g transform="translate(196.16 450.66)"><path d="m0 0h-42.79v21.133h42.763z"/></g><g transform="translate(174.75 450.66)"><path d="m0 0v21.133" fill="none" stroke="#fff" stroke-width=".5"/></g><g transform="translate(164.18 472.01)"><path d="m0 0v43.041h21.133v-43.014z"/></g><g transform="translate(164.18 493.67)"><path d="m0 0h21.133" fill="none" stroke="#fff" stroke-width=".5"/></g><g transform="translate(153.37 472.04)"><path d="m0 0h42.763" fill="none" stroke="#fff" stroke-width=".5"/></g><g clip-path="url(#aa)"><g transform="translate(174.75 513.03)"><path d="m0 0c4.717 0 8.539-3.822 8.539-8.539 0-4.715-3.822-8.539-8.539-8.539s-8.539 3.824-8.539 8.539c0 4.717 3.822 8.539 8.539 8.539" fill="#ed1d24"/></g><g transform="translate(196.16 472.29)"><path d="m0 0h-42.79v21.133h42.763z"/></g><g transform="translate(174.75 472.29)"><path d="m0 0v21.133" fill="none" stroke="#fff" stroke-width=".5"/></g><g transform="translate(164.18 493.67)"><path d="m0 0h21.133" fill="none" stroke="#fff" stroke-width=".5"/></g><g transform="translate(163.93 491.4)"><path d="m0 0c4.716 0 8.539-3.822 8.539-8.539 0-4.715-3.823-8.539-8.539-8.539-4.717 0-8.539 3.824-8.539 8.539 0 4.717 3.822 8.539 8.539 8.539"/><path d="m0 0c4.716 0 8.539-3.822 8.539-8.539 0-4.715-3.823-8.539-8.539-8.539-4.717 0-8.539 3.824-8.539 8.539 0 4.717 3.822 8.539 8.539 8.539z" fill="none" stroke="#fff" stroke-width=".5"/></g><g transform="translate(162.5 482.85)"><path d="m0 0h8.505" fill="none" stroke="#fff200" stroke-width="1.395"/></g><g transform="translate(164.11 489.19)"><path d="m0 0-6.324-6.324 6.325-6.326" fill="none" stroke="#fff200" stroke-width="1.395"/></g><g transform="translate(163.93 469.77)"><path d="m0 0c4.716 0 8.539-3.822 8.539-8.539 0-4.715-3.823-8.539-8.539-8.539-4.717 0-8.539 3.824-8.539 8.539 0 4.717 3.822 8.539 8.539 8.539"/><path d="m0 0c4.716 0 8.539-3.822 8.539-8.539 0-4.715-3.823-8.539-8.539-8.539-4.717 0-8.539 3.824-8.539 8.539 0 4.717 3.822 8.539 8.539 8.539z" fill="none" stroke="#fff" stroke-width=".5"/></g><g transform="translate(162.5 461.22)"><path d="m0 0h8.505" fill="none" stroke="#00a651" stroke-width="1.395"/></g><g transform="translate(164.11 467.56)"><path d="m0 0-6.324-6.324 6.325-6.326" fill="none" stroke="#00a651" stroke-width="1.395"/></g><g transform="translate(104.82 491.39)"><path d="m0 0c4.716 0 8.539-3.822 8.539-8.539 0-4.715-3.823-8.539-8.539-8.539-4.717 0-8.539 3.824-8.539 8.539 0 4.717 3.822 8.539 8.539 8.539"/><path d="m0 0c4.716 0 8.539-3.822 8.539-8.539 0-4.715-3.823-8.539-8.539-8.539-4.717 0-8.539 3.824-8.539 8.539 0 4.717 3.822 8.539 8.539 8.539z" fill="none" stroke="#fff" stroke-width=".5"/></g><g transform="translate(103.39 482.85)"><path d="m0 0h8.505" fill="none" stroke="#fff200" stroke-width="1.395"/></g><g transform="translate(105 489.19)"><path d="m0 0-6.324-6.324 6.325-6.326" fill="none" stroke="#fff200" stroke-width="1.395"/></g><g transform="translate(104.82 469.76)"><path d="m0 0c4.716 0 8.539-3.822 8.539-8.539 0-4.715-3.823-8.539-8.539-8.539-4.717 0-8.539 3.824-8.539 8.539 0 4.717 3.822 8.539 8.539 8.539"/><path d="m0 0c4.716 0 8.539-3.822 8.539-8.539 0-4.715-3.823-8.539-8.539-8.539-4.717 0-8.539 3.824-8.539 8.539 0 4.717 3.822 8.539 8.539 8.539z" fill="none" stroke="#fff" stroke-width=".5"/></g><g transform="translate(103.39 461.21)"><path d="m0 0h8.505" fill="none" stroke="#00a651" stroke-width="1.395"/></g><g transform="translate(105 467.56)"><path d="m0 0-6.324-6.324 6.325-6.326" fill="none" stroke="#00a651" stroke-width="1.395"/></g><g transform="translate(103.39 482.85)"><path d="m0 0h8.505" fill="none" stroke="#fff200" stroke-width="1.395"/></g><g transform="translate(105 489.19)"><path d="m0 0-6.324-6.324 6.325-6.326" fill="none" stroke="#fff200" stroke-width="1.395"/></g><g transform="translate(104.82 469.76)"><path d="m0 0c4.716 0 8.539-3.822 8.539-8.539 0-4.715-3.823-8.539-8.539-8.539-4.717 0-8.539 3.824-8.539 8.539 0 4.717 3.822 8.539 8.539 8.539"/><path d="m0 0c4.716 0 8.539-3.822 8.539-8.539 0-4.715-3.823-8.539-8.539-8.539-4.717 0-8.539 3.824-8.539 8.539 0 4.717 3.822 8.539 8.539 8.539z" fill="none" stroke="#fff" stroke-width=".5"/></g><g transform="translate(103.39 461.21)"><path d="m0 0h8.505" fill="none" stroke="#00a651" stroke-width="1.395"/></g><g transform="translate(105 467.56)"><path d="m0 0-6.324-6.324 6.325-6.326" fill="none" stroke="#00a651" stroke-width="1.395"/></g><g transform="translate(185.56 491.4)"><path d="m0 0c-4.716 0-8.539-3.822-8.539-8.539 0-4.715 3.823-8.539 8.539-8.539 4.717 0 8.539 3.824 8.539 8.539 0 4.717-3.822 8.539-8.539 8.539"/><path d="m0 0c-4.716 0-8.539-3.822-8.539-8.539 0-4.715 3.823-8.539 8.539-8.539 4.717 0 8.539 3.824 8.539 8.539 0 4.717-3.822 8.539-8.539 8.539z" fill="none" stroke="#fff" stroke-width=".5"/></g><g transform="translate(186.99 482.85)"><path d="m0 0h-8.505" fill="none" stroke="#fff200" stroke-width="1.395"/></g><g transform="translate(185.38 489.19)"><path d="m0 0 6.324-6.324-6.325-6.326" fill="none" stroke="#fff200" stroke-width="1.395"/></g><g transform="translate(185.56 469.77)"><path d="m0 0c-4.716 0-8.539-3.822-8.539-8.539 0-4.715 3.823-8.539 8.539-8.539 4.717 0 8.539 3.824 8.539 8.539 0 4.717-3.822 8.539-8.539 8.539"/><path d="m0 0c-4.716 0-8.539-3.822-8.539-8.539 0-4.715 3.823-8.539 8.539-8.539 4.717 0 8.539 3.824 8.539 8.539 0 4.717-3.822 8.539-8.539 8.539z" fill="none" stroke="#fff" stroke-width=".5"/></g><g transform="translate(186.99 461.22)"><path d="m0 0h-8.505" fill="none" stroke="#fff200" stroke-width="1.395"/></g><g transform="translate(185.38 467.56)"><path d="m0 0 6.324-6.324-6.325-6.326" fill="none" stroke="#fff200" stroke-width="1.395"/></g><g fill="#b1b4b6"><path d="m139.79 378.34h69.924v43.008h-69.924z"/><path d="m69.862 378.34h69.924v43.008h-69.924z"/><path d="m69.862 378.34h69.924v43.008h-69.924z"/></g><g transform="translate(139.79 421.35)"><path d="m0 0v-43.008" fill="none" stroke="#fff"/></g><g transform="translate(209.71 378.34)"><path d="m0 0v43.008" fill="none" stroke="#000"/></g><g transform="translate(69.862 421.35)"><path d="m0 0v-43.008" fill="none" stroke="#000"/></g><g transform="translate(139.79 378.34)"><path d="m0 0v43.008" fill="none" stroke="#fff"/></g><g transform="translate(92.155 405.86)"><path d="m0 0c4.004 3.6 7.998 7.086 12.006 10.684-0.893-3.116-1.787-6.235-2.68-9.346 0.893-0.024 1.787-0.043 2.68-0.072 7.939-0.582 12.168-4.772 13.33-11.954v-12.021h-3.985v8.037c-0.882 5.606-3.701 9.053-9.345 9.346h-2.68c0.453-3.115 0.918-6.231 1.371-9.346-3.568 4.854-7.123 9.818-10.697 14.672" fill="#fff" fill-rule="evenodd"/></g><g transform="translate(198.09 405.86)"><path d="m0 0c-4.004 3.6-7.998 7.086-12.006 10.684 0.893-3.116 1.787-6.235 2.68-9.346-0.893-0.024-1.787-0.043-2.68-0.072-5.473-0.402-9.181-2.517-11.338-6.144-2.158 3.627-5.865 5.742-11.338 6.144-0.892 0.029-1.787 0.048-2.679 0.072 0.892 3.111 1.787 6.23 2.679 9.346-4.007-3.598-8.002-7.084-12.006-10.684 3.575-4.854 7.129-9.818 10.698-14.672-0.453 3.115-0.918 6.231-1.371 9.346h2.679c5.645-0.293 8.463-3.74 9.346-9.346v-8.037h3.984v8.037c0.883 5.606 3.702 9.053 9.346 9.346h2.68c-0.453-3.115-0.918-6.231-1.371-9.346 3.568 4.854 7.123 9.818 10.697 14.672" fill="#fff" fill-rule="evenodd"/></g><g fill="#b1b4b6"><path d="m385.14 378.34h69.924v43.008h-69.924z"/><path d="m315.22 378.34h69.924v43.008h-69.924z"/><path d="m315.22 378.34h69.924v43.008h-69.924z"/></g><g transform="translate(385.14 421.35)"><path d="m0 0v-43.008" fill="none" stroke="#fff"/></g><g transform="translate(455.07 378.34)"><path d="m0 0v43.008" fill="none" stroke="#000"/></g><g transform="translate(315.22 421.35)"><path d="m0 0v-43.008" fill="none" stroke="#000"/></g><g transform="translate(385.14 378.34)"><path d="m0 0v43.008" fill="none" stroke="#fff"/></g><g transform="translate(337.51 405.86)"><path d="m0 0c4.004 3.6 7.998 7.086 12.006 10.684-0.893-3.116-1.787-6.235-2.68-9.346 0.893-0.024 1.787-0.043 2.68-0.072 7.939-0.582 12.168-4.772 13.33-11.954v-12.021h-3.984v8.037c-0.883 5.606-3.702 9.053-9.346 9.346h-2.68c0.453-3.115 0.918-6.231 1.371-9.346-3.568 4.854-7.123 9.818-10.697 14.672" fill="#fff" fill-rule="evenodd"/></g><g transform="translate(443.45 405.86)"><path d="m0 0c-4.004 3.6-7.998 7.086-12.006 10.684 0.893-3.116 1.787-6.235 2.68-9.346-0.893-0.024-1.787-0.043-2.68-0.072-5.472-0.402-9.181-2.517-11.338-6.144-2.158 3.627-5.865 5.742-11.338 6.144-0.892 0.029-1.787 0.048-2.679 0.072 0.892 3.111 1.787 6.23 2.679 9.346-4.007-3.598-8.002-7.084-12.006-10.684 3.575-4.854 7.129-9.818 10.698-14.672-0.453 3.115-0.918 6.231-1.371 9.346h2.679c5.645-0.293 8.463-3.74 9.346-9.346v-8.037h3.984v8.037c0.883 5.606 3.702 9.053 9.346 9.346h2.68c-0.453-3.115-0.918-6.231-1.371-9.346 3.568 4.854 7.123 9.818 10.697 14.672" fill="#fff" fill-rule="evenodd"/></g></g><g clip-path="url(#z)"><path d="m54.031 324.16v-7.452h230.52c-0.752 0.501-1.519 1.012-1.519 1.012s1.556 1.777 2.137 2.443c-0.631 0.515-2.262 1.852-2.262 1.852s1.357 1.213 1.915 1.712c-0.125 0.115-0.297 0.266-0.484 0.433z" fill="url(#f)"/></g><g clip-path="url(#y)"><g transform="translate(55.458 320.43)"><path d="m0 0c0-2.059-0.639-3.727-1.428-3.727s-1.428 1.668-1.428 3.727c0 2.057 0.639 3.726 1.428 3.726s1.428-1.669 1.428-3.726"/></g><g transform="translate(59.602 320.43)"><path d="m0 0h21.133" fill="none" stroke="#fff" stroke-width=".5"/></g></g><text transform="matrix(1 0 0 -1 82.222 328.76)" fill="black" font-family="Helvetica" font-size="9px" font-weight="bold"><tspan x="0" y="0">R</tspan><tspan x="0" y="21.636">Y</tspan><tspan x="0" y="43.263">G</tspan></text><g transform="translate(80.05 299.15)"><path d="m0 0v-21.383h-21.133v64.397h21.133v-21.383z"/></g><g clip-path="url(#x)"><g transform="translate(78.023 331.6)"><path d="m0 0c0-4.717-3.822-8.539-8.537-8.539-4.717 0-8.541 3.822-8.541 8.539s3.824 8.539 8.541 8.539c4.715 0 8.537-3.822 8.537-8.539" fill="#ed1d24"/></g><g transform="translate(58.917 320.78)"><path d="m0 0h21.133" fill="none" stroke="#fff" stroke-width=".5"/></g><g transform="translate(58.917 299.15)"><path d="m0 0h21.133" fill="none" stroke="#fff" stroke-width=".5"/></g><g transform="translate(199.45 320.43)"><path d="m0 0h21.133" fill="none" stroke="#fff" stroke-width=".5"/></g></g><text transform="matrix(1 0 0 -1 222.17 328.76)" fill="black" font-family="Helvetica" font-size="9px" font-weight="bold"><tspan x="0" y="0">R</tspan><tspan x="0 6.0029998" y="21.636">SY</tspan><tspan x="0 5.4990001" y="43.263">FY</tspan></text><g transform="translate(219.9 299.15)"><path d="m0 0v-21.383h-21.133v64.397h21.133v-21.383z"/></g><g clip-path="url(#w)"><g transform="translate(217.87 331.6)"><path d="m0 0c0-4.717-3.822-8.539-8.537-8.539-4.717 0-8.541 3.822-8.541 8.539s3.824 8.539 8.541 8.539c4.715 0 8.537-3.822 8.537-8.539" fill="#ed1d24"/></g><g transform="translate(198.76 320.78)"><path d="m0 0h21.133" fill="none" stroke="#fff" stroke-width=".5"/></g><g transform="translate(198.76 299.15)"><path d="m0 0h21.133" fill="none" stroke="#fff" stroke-width=".5"/></g></g><text transform="matrix(1 0 0 -1 152.3 328.76)" fill="black" font-family="Helvetica" font-size="9px" font-weight="bold"><tspan x="0" y="0">R</tspan><tspan x="11.331 17.334" y="21.636">SY</tspan><tspan x="11.115 16.614" y="43.263">FY</tspan><tspan x="-43.146" y="21.636">Y</tspan><tspan x="-43.640999" y="43.263">G</tspan></text><g transform="translate(160.82 277.77)"><path d="m0 0h-42.79v21.133h42.763z"/></g><g transform="translate(139.41 277.77)"><path d="m0 0v21.133" fill="none" stroke="#fff" stroke-width=".5"/></g><g transform="translate(128.84 299.13)"><path d="m0 0v43.041h21.133v-43.014z"/></g><g transform="translate(128.84 320.79)"><path d="m0 0h21.133" fill="none" stroke="#fff" stroke-width=".5"/></g><g transform="translate(118.03 299.15)"><path d="m0 0h42.763" fill="none" stroke="#fff" stroke-width=".5"/></g><g clip-path="url(#v)"><g transform="translate(139.41 340.14)"><path d="m0 0c4.717 0 8.539-3.822 8.539-8.539 0-4.715-3.822-8.539-8.539-8.539s-8.539 3.824-8.539 8.539c0 4.717 3.822 8.539 8.539 8.539" fill="#ed1d24"/></g><g transform="translate(160.82 299.4)"><path d="m0 0h-42.79v21.133h42.763z"/></g><g transform="translate(139.41 299.4)"><path d="m0 0v21.133" fill="none" stroke="#fff" stroke-width=".5"/></g><g transform="translate(128.84 320.79)"><path d="m0 0h21.133" fill="none" stroke="#fff" stroke-width=".5"/></g><g transform="translate(128.59 318.51)"><path d="m0 0c4.716 0 8.539-3.822 8.539-8.539 0-4.715-3.823-8.539-8.539-8.539-4.717 0-8.539 3.824-8.539 8.539 0 4.717 3.822 8.539 8.539 8.539"/><path d="m0 0c4.716 0 8.539-3.822 8.539-8.539 0-4.715-3.823-8.539-8.539-8.539-4.717 0-8.539 3.824-8.539 8.539 0 4.717 3.822 8.539 8.539 8.539z" fill="none" stroke="#fff" stroke-width=".5"/></g><g transform="translate(127.16 309.96)"><path d="m0 0h8.505" fill="none" stroke="#fff200" stroke-width="1.395"/></g><g transform="translate(128.78 316.3)"><path d="m0 0-6.324-6.324 6.325-6.326" fill="none" stroke="#fff200" stroke-width="1.395"/></g><g transform="translate(128.59 296.88)"><path d="m0 0c4.716 0 8.539-3.822 8.539-8.539 0-4.715-3.823-8.539-8.539-8.539-4.717 0-8.539 3.824-8.539 8.539 0 4.717 3.822 8.539 8.539 8.539"/><path d="m0 0c4.716 0 8.539-3.822 8.539-8.539 0-4.715-3.823-8.539-8.539-8.539-4.717 0-8.539 3.824-8.539 8.539 0 4.717 3.822 8.539 8.539 8.539z" fill="none" stroke="#fff" stroke-width=".5"/></g><g transform="translate(127.16 288.33)"><path d="m0 0h8.505" fill="none" stroke="#00a651" stroke-width="1.395"/></g><g transform="translate(128.78 294.67)"><path d="m0 0-6.324-6.324 6.325-6.326" fill="none" stroke="#00a651" stroke-width="1.395"/></g><g transform="translate(69.486 318.51)"><path d="m0 0c4.716 0 8.539-3.822 8.539-8.539 0-4.715-3.823-8.539-8.539-8.539-4.717 0-8.539 3.824-8.539 8.539 0 4.717 3.822 8.539 8.539 8.539"/><path d="m0 0c4.716 0 8.539-3.822 8.539-8.539 0-4.715-3.823-8.539-8.539-8.539-4.717 0-8.539 3.824-8.539 8.539 0 4.717 3.822 8.539 8.539 8.539z" fill="none" stroke="#fff" stroke-width=".5"/></g><g transform="translate(68.056 309.96)"><path d="m0 0h8.505" fill="none" stroke="#fff200" stroke-width="1.395"/></g><g transform="translate(69.667 316.3)"><path d="m0 0-6.324-6.324 6.325-6.326" fill="none" stroke="#fff200" stroke-width="1.395"/></g><g transform="translate(69.486 296.88)"><path d="m0 0c4.716 0 8.539-3.822 8.539-8.539 0-4.715-3.823-8.539-8.539-8.539-4.717 0-8.539 3.824-8.539 8.539 0 4.717 3.822 8.539 8.539 8.539"/><path d="m0 0c4.716 0 8.539-3.822 8.539-8.539 0-4.715-3.823-8.539-8.539-8.539-4.717 0-8.539 3.824-8.539 8.539 0 4.717 3.822 8.539 8.539 8.539z" fill="none" stroke="#fff" stroke-width=".5"/></g><g transform="translate(68.056 288.33)"><path d="m0 0h8.505" fill="none" stroke="#00a651" stroke-width="1.395"/></g><g transform="translate(69.667 294.67)"><path d="m0 0-6.324-6.324 6.325-6.326" fill="none" stroke="#00a651" stroke-width="1.395"/></g><g transform="translate(150.22 318.51)"><path d="m0 0c-4.716 0-8.539-3.822-8.539-8.539 0-4.715 3.823-8.539 8.539-8.539 4.717 0 8.539 3.824 8.539 8.539 0 4.717-3.822 8.539-8.539 8.539"/><path d="m0 0c-4.716 0-8.539-3.822-8.539-8.539 0-4.715 3.823-8.539 8.539-8.539 4.717 0 8.539 3.824 8.539 8.539 0 4.717-3.822 8.539-8.539 8.539z" fill="none" stroke="#fff" stroke-width=".5"/></g><g transform="translate(151.65 309.96)"><path d="m0 0h-8.505" fill="none" stroke="#fff200" stroke-width="1.395"/></g><g transform="translate(150.04 316.3)"><path d="m0 0 6.324-6.324-6.325-6.326" fill="none" stroke="#fff200" stroke-width="1.395"/></g><g transform="translate(150.22 296.88)"><path d="m0 0c-4.716 0-8.539-3.822-8.539-8.539 0-4.715 3.823-8.539 8.539-8.539 4.717 0 8.539 3.824 8.539 8.539 0 4.717-3.822 8.539-8.539 8.539"/><path d="m0 0c-4.716 0-8.539-3.822-8.539-8.539 0-4.715 3.823-8.539 8.539-8.539 4.717 0 8.539 3.824 8.539 8.539 0 4.717-3.822 8.539-8.539 8.539z" fill="none" stroke="#fff" stroke-width=".5"/></g><g transform="translate(151.65 288.33)"><path d="m0 0h-8.505" fill="none" stroke="#fff200" stroke-width="1.395"/></g><g transform="translate(150.04 294.67)"><path d="m0 0 6.324-6.324-6.325-6.326" fill="none" stroke="#fff200" stroke-width="1.395"/></g><g transform="translate(104.45 205.45)"><path d="m0 0h69.924v43.008h-69.924v-21.504z" fill="#b1b4b6"/></g><path d="m34.523 205.45h69.924v43.008h-69.924z" fill="#b1b4b6"/><g transform="translate(34.524 205.45)"><path d="m0 0h69.924v43.008h-69.924v-21.504z" fill="#b1b4b6"/></g><g transform="translate(104.45 248.46)"><path d="m0 0v-43.008" fill="none" stroke="#fff"/></g><g transform="translate(34.524 248.46)"><path d="m0 0v-43.008" fill="none" stroke="#000"/></g><g transform="translate(104.45 205.45)"><path d="m0 0v43.008" fill="none" stroke="#fff"/></g><g transform="translate(56.817 232.97)"><path d="m0 0c4.004 3.6 7.998 7.086 12.006 10.684-0.893-3.116-1.787-6.235-2.68-9.346 0.893-0.024 1.787-0.043 2.68-0.072 7.939-0.582 12.168-4.772 13.33-11.954v-12.021h-3.985v8.037c-0.882 5.606-3.701 9.053-9.345 9.346h-2.68c0.453-3.115 0.918-6.231 1.371-9.346-3.568 4.854-7.123 9.818-10.697 14.672" fill="#fff" fill-rule="evenodd"/></g><path d="m244.3 205.45h-69.924v43.008h69.924z" fill="#b1b4b6"/><g transform="translate(244.3 205.45)"><path d="m0 0h-69.924v43.008h69.924v-21.504z" fill="#b1b4b6"/></g><g transform="translate(244.3 248.46)"><path d="m0 0v-43.008" fill="none" stroke="#000"/></g><g transform="translate(222 232.97)"><path d="m0 0c-4.004 3.6-7.998 7.086-12.006 10.684 0.893-3.116 1.787-6.235 2.68-9.346-0.893-0.024-1.787-0.043-2.68-0.072-7.939-0.582-12.168-4.772-13.33-11.954v-12.021h3.984v8.037c0.883 5.606 3.702 9.053 9.346 9.346h2.68c-0.453-3.115-0.918-6.231-1.371-9.346 3.568 4.854 7.123 9.818 10.697 14.672" fill="#fff" fill-rule="evenodd"/></g><g transform="translate(162.75 232.97)"><path d="m0 0c-4.004 3.6-7.998 7.086-12.006 10.684 0.893-3.116 1.787-6.235 2.68-9.346-0.893-0.024-1.787-0.043-2.68-0.072-5.472-0.402-9.181-2.517-11.338-6.144-2.158 3.627-5.865 5.742-11.338 6.144-0.892 0.029-1.787 0.048-2.679 0.072 0.892 3.111 1.787 6.23 2.679 9.346-4.007-3.598-8.002-7.084-12.005-10.684 3.574-4.854 7.128-9.818 10.697-14.672-0.453 3.115-0.918 6.231-1.371 9.346h2.679c5.645-0.293 8.463-3.74 9.346-9.346v-8.037h3.984v8.037c0.883 5.606 3.702 9.053 9.346 9.346h2.68c-0.453-3.115-0.918-6.231-1.371-9.346 3.568 4.854 7.123 9.818 10.697 14.672" fill="#fff" fill-rule="evenodd"/></g><g transform="translate(174.37 205.45)"><path d="m0 0v43.008" fill="none" stroke="#fff"/></g><g transform="translate(209.33 318.51)"><path d="m0 0c-4.716 0-8.539-3.822-8.539-8.539 0-4.715 3.823-8.539 8.539-8.539 4.717 0 8.539 3.824 8.539 8.539 0 4.717-3.822 8.539-8.539 8.539"/><path d="m0 0c-4.716 0-8.539-3.822-8.539-8.539 0-4.715 3.823-8.539 8.539-8.539 4.717 0 8.539 3.824 8.539 8.539 0 4.717-3.822 8.539-8.539 8.539z" fill="none" stroke="#fff" stroke-width=".5"/></g><g transform="translate(210.76 309.96)"><path d="m0 0h-8.505" fill="none" stroke="#fff200" stroke-width="1.395"/></g><g transform="translate(209.15 316.3)"><path d="m0 0 6.324-6.324-6.325-6.326" fill="none" stroke="#fff200" stroke-width="1.395"/></g><g transform="translate(209.33 296.88)"><path d="m0 0c-4.716 0-8.539-3.822-8.539-8.539 0-4.715 3.823-8.539 8.539-8.539 4.717 0 8.539 3.824 8.539 8.539 0 4.717-3.822 8.539-8.539 8.539"/><path d="m0 0c-4.716 0-8.539-3.822-8.539-8.539 0-4.715 3.823-8.539 8.539-8.539 4.717 0 8.539 3.824 8.539 8.539 0 4.717-3.822 8.539-8.539 8.539z" fill="none" stroke="#fff" stroke-width=".5"/></g><g transform="translate(210.76 288.33)"><path d="m0 0h-8.505" fill="none" stroke="#fff200" stroke-width="1.395"/></g><g transform="translate(209.15 294.67)"><path d="m0 0 6.324-6.324-6.325-6.326" fill="none" stroke="#fff200" stroke-width="1.395"/></g><g transform="translate(143.45 665.52)"><path d="m0 0c0-2.059-0.639-3.727-1.428-3.727s-1.429 1.668-1.429 3.727c0 2.057 0.64 3.726 1.429 3.726s1.428-1.669 1.428-3.726"/></g><g transform="translate(147.59 665.52)"><path d="m0 0h21.133" fill="none" stroke="#fff" stroke-width=".5"/></g></g><text transform="matrix(1 0 0 -1 170.21 673.84)" fill="black" font-family="Helvetica" font-size="9px" font-weight="bold"><tspan x="0" y="0">R</tspan><tspan x="0" y="21.636">Y</tspan><tspan x="0" y="43.263">G</tspan></text><g transform="translate(168.04 644.24)"><path d="m0 0v-21.383h-21.133v64.397h21.133v-21.383z"/></g><g clip-path="url(#u)"><g transform="translate(166.02 676.68)"><path d="m0 0c0-4.717-3.822-8.539-8.537-8.539-4.717 0-8.541 3.822-8.541 8.539s3.824 8.539 8.541 8.539c4.715 0 8.537-3.822 8.537-8.539" fill="#ed1d24"/></g><g transform="translate(146.91 665.87)"><path d="m0 0h21.133" fill="none" stroke="#fff" stroke-width=".5"/></g><g transform="translate(146.91 644.24)"><path d="m0 0h21.133" fill="none" stroke="#fff" stroke-width=".5"/></g><g transform="translate(214.47 665.52)"><path d="m0 0h21.133" fill="none" stroke="#fff" stroke-width=".5"/></g></g><text transform="matrix(1 0 0 -1 237.19 673.84)" fill="black" font-family="Helvetica" font-size="9px" font-weight="bold"><tspan x="0" y="0">R</tspan><tspan x="0 6.0029998" y="21.636">SY</tspan><tspan x="0 5.4990001" y="43.263">FY</tspan></text><g transform="translate(234.92 644.24)"><path d="m0 0v-21.383h-21.133v64.397h21.133v-21.383z"/></g><g clip-path="url(#t)"><g transform="translate(232.89 676.68)"><path d="m0 0c0-4.717-3.822-8.539-8.537-8.539-4.717 0-8.541 3.822-8.541 8.539s3.824 8.539 8.541 8.539c4.715 0 8.537-3.822 8.537-8.539" fill="#ed1d24"/></g><g transform="translate(213.78 665.87)"><path d="m0 0h21.133" fill="none" stroke="#fff" stroke-width=".5"/></g><g transform="translate(213.78 644.24)"><path d="m0 0h21.133" fill="none" stroke="#fff" stroke-width=".5"/></g><g transform="translate(157.48 663.59)"><path d="m0 0c4.716 0 8.539-3.822 8.539-8.539 0-4.715-3.823-8.539-8.539-8.539-4.717 0-8.539 3.824-8.539 8.539 0 4.717 3.822 8.539 8.539 8.539"/><path d="m0 0c4.716 0 8.539-3.822 8.539-8.539 0-4.715-3.823-8.539-8.539-8.539-4.717 0-8.539 3.824-8.539 8.539 0 4.717 3.822 8.539 8.539 8.539z" fill="none" stroke="#fff" stroke-width=".5"/></g><g transform="translate(156.05 655.04)"><path d="m0 0h8.505" fill="none" stroke="#fff200" stroke-width="1.395"/></g><g transform="translate(157.66 661.39)"><path d="m0 0-6.324-6.324 6.325-6.326" fill="none" stroke="#fff200" stroke-width="1.395"/></g><g transform="translate(157.48 641.96)"><path d="m0 0c4.716 0 8.539-3.822 8.539-8.539 0-4.715-3.823-8.539-8.539-8.539-4.717 0-8.539 3.824-8.539 8.539 0 4.717 3.822 8.539 8.539 8.539"/><path d="m0 0c4.716 0 8.539-3.822 8.539-8.539 0-4.715-3.823-8.539-8.539-8.539-4.717 0-8.539 3.824-8.539 8.539 0 4.717 3.822 8.539 8.539 8.539z" fill="none" stroke="#fff" stroke-width=".5"/></g><g transform="translate(156.05 633.41)"><path d="m0 0h8.505" fill="none" stroke="#00a651" stroke-width="1.395"/></g><g transform="translate(157.66 639.76)"><path d="m0 0-6.324-6.324 6.325-6.326" fill="none" stroke="#00a651" stroke-width="1.395"/></g><g transform="translate(224.35 663.59)"><path d="m0 0c-4.716 0-8.539-3.822-8.539-8.539 0-4.715 3.823-8.539 8.539-8.539 4.717 0 8.539 3.824 8.539 8.539 0 4.717-3.822 8.539-8.539 8.539"/><path d="m0 0c-4.716 0-8.539-3.822-8.539-8.539 0-4.715 3.823-8.539 8.539-8.539 4.717 0 8.539 3.824 8.539 8.539 0 4.717-3.822 8.539-8.539 8.539z" fill="none" stroke="#fff" stroke-width=".5"/></g><g transform="translate(225.78 655.04)"><path d="m0 0h-8.505" fill="none" stroke="#fff200" stroke-width="1.395"/></g><g transform="translate(224.17 661.39)"><path d="m0 0 6.324-6.324-6.325-6.326" fill="none" stroke="#fff200" stroke-width="1.395"/></g><g transform="translate(224.35 641.96)"><path d="m0 0c-4.716 0-8.539-3.822-8.539-8.539 0-4.715 3.823-8.539 8.539-8.539 4.717 0 8.539 3.824 8.539 8.539 0 4.717-3.822 8.539-8.539 8.539"/><path d="m0 0c-4.716 0-8.539-3.822-8.539-8.539 0-4.715 3.823-8.539 8.539-8.539 4.717 0 8.539 3.824 8.539 8.539 0 4.717-3.822 8.539-8.539 8.539z" fill="none" stroke="#fff" stroke-width=".5"/></g><g transform="translate(225.78 633.41)"><path d="m0 0h-8.505" fill="none" stroke="#fff200" stroke-width="1.395"/></g><g transform="translate(224.17 639.76)"><path d="m0 0 6.324-6.324-6.325-6.326" fill="none" stroke="#fff200" stroke-width="1.395"/></g><g transform="translate(69.668 532.95)"><path d="m0 0h430.55" fill="#fff" stroke="#000" stroke-dasharray="24, 16"/></g><g transform="translate(33.04 359.82)"><path d="m0 0h504" fill="#fff" stroke="#000" stroke-dasharray="24, 16"/></g></g><text transform="matrix(1 0 0 -1 401.28 263.28)" fill="black" font-family="Helvetica" font-size="9px" font-weight="bold"><tspan x="0 7.0019999" y="0">G*</tspan></text><g clip-path="url(#s)"><path d="m371.95 323.68v-7.453h165.56c-0.75 0.5-1.519 1.012-1.519 1.012s1.555 1.778 2.139 2.444c-0.631 0.516-2.263 1.85-2.263 1.85s1.355 1.215 1.913 1.715c-0.125 0.114-0.297 0.267-0.482 0.432z" fill="url(#e)"/></g><g clip-path="url(#r)"><g transform="translate(373.38 319.96)"><path d="m0 0c0-2.058-0.639-3.727-1.428-3.727s-1.428 1.669-1.428 3.727 0.639 3.727 1.428 3.727 1.428-1.669 1.428-3.727"/></g></g><text transform="matrix(1 0 0 -1 401.28 327.93)" fill="black" font-family="Helvetica" font-size="9px" font-weight="bold"><tspan x="0" y="0">R</tspan><tspan x="0" y="21.636">Y</tspan><tspan x="0" y="43.263">G</tspan><tspan x="69.93" y="7.9936058e-15">R</tspan><tspan x="69.93" y="21.636">Y</tspan><tspan x="69.93" y="43.263">G</tspan></text><g transform="translate(468.58 298.32)"><path d="m0 0v-21.382h-21.133v64.396h21.133v-21.382z"/></g><g clip-path="url(#q)"><g transform="translate(466.55 309.14)"><path d="m0 0c0-4.717-3.822-8.539-8.537-8.539-4.717 0-8.541 3.822-8.541 8.539s3.824 8.539 8.541 8.539c4.715 0 8.537-3.822 8.537-8.539" fill="#fff200"/></g><g transform="translate(466.55 330.77)"><path d="m0 0c0-4.717-3.822-8.539-8.537-8.539-4.717 0-8.541 3.822-8.541 8.539s3.824 8.539 8.541 8.539c4.715 0 8.537-3.822 8.537-8.539" fill="#ed1d24"/></g><g transform="translate(466.55 287.51)"><path d="m0 0c0-4.717-3.822-8.539-8.537-8.539-4.717 0-8.541 3.822-8.541 8.539s3.824 8.539 8.541 8.539c4.715 0 8.537-3.822 8.537-8.539" fill="#00a651"/></g><g transform="translate(447.45 319.96)"><path d="m0 0h21.133" fill="none" stroke="#fff" stroke-width=".5"/></g><g transform="translate(447.45 298.32)"><path d="m0 0h21.133" fill="none" stroke="#fff" stroke-width=".5"/></g><g transform="translate(398.65 298.32)"><path d="m0 0v-42.764h-21.133v85.778h21.133v-21.382z"/></g><g transform="translate(377.52 319.96)"><path d="m0 0h21.133" fill="none" stroke="#fff" stroke-width=".5"/></g><g transform="translate(377.52 298.32)"><path d="m0 0h21.133" fill="none" stroke="#fff" stroke-width=".5"/></g><g transform="translate(388.09 339.31)"><path d="m0 0c4.717 0 8.539-3.824 8.539-8.539 0-4.717-3.822-8.539-8.539-8.539-4.713 0-8.537 3.822-8.537 8.539 0 4.715 3.824 8.539 8.537 8.539" fill="#ed1d24"/></g><g transform="translate(388.09 317.68)"><path d="m0 0c4.717 0 8.539-3.824 8.539-8.539 0-4.717-3.822-8.539-8.539-8.539-4.713 0-8.537 3.822-8.537 8.539 0 4.715 3.824 8.539 8.537 8.539" fill="#fff200"/></g><g transform="translate(388.09 296.05)"><path d="m0 0c4.717 0 8.539-3.824 8.539-8.539 0-4.717-3.822-8.539-8.539-8.539-4.713 0-8.537 3.822-8.537 8.539 0 4.715 3.824 8.539 8.537 8.539" fill="#00a651"/></g><g transform="translate(388.09 274.67)"><path d="m0 0c4.717 0 8.539-3.823 8.539-8.539s-3.822-8.539-8.539-8.539-8.539 3.823-8.539 8.539 3.822 8.539 8.539 8.539"/><path d="m0 0c4.717 0 8.539-3.823 8.539-8.539s-3.822-8.539-8.539-8.539-8.539 3.823-8.539 8.539 3.822 8.539 8.539 8.539z" fill="none" stroke="#fff" stroke-width=".5"/></g><g transform="translate(377.52 276.94)"><path d="m0 0h21.133" fill="none" stroke="#fff" stroke-width=".5"/></g><g transform="translate(389.09 205.45)"><path d="m0 0h69.924v43.008h-69.924v-21.504z" fill="#b1b4b6"/></g><path d="m319.16 205.45h69.924v43.008h-69.924z" fill="#b1b4b6"/><g transform="translate(319.17 205.45)"><path d="m0 0h69.924v43.008h-69.924v-21.504z" fill="#b1b4b6"/></g><g transform="translate(389.09 248.46)"><path d="m0 0v-43.008" fill="none" stroke="#fff"/></g><g transform="translate(319.17 248.46)"><path d="m0 0v-43.008" fill="none" stroke="#000"/></g><g transform="translate(389.09 205.45)"><path d="m0 0v43.008" fill="none" stroke="#fff"/></g><g transform="translate(341.46 232.97)"><path d="m0 0c4.004 3.6 7.998 7.086 12.006 10.684-0.893-3.116-1.787-6.235-2.68-9.346 0.893-0.024 1.787-0.043 2.68-0.072 7.939-0.582 12.168-4.772 13.33-11.954v-12.021h-3.985v8.037c-0.882 5.606-3.701 9.053-9.345 9.346h-2.68c0.453-3.115 0.918-6.231 1.371-9.346-3.568 4.854-7.123 9.818-10.697 14.672" fill="#fff" fill-rule="evenodd"/></g><path d="m528.94 205.45h-69.924v43.008h69.924z" fill="#b1b4b6"/><g transform="translate(528.94 205.45)"><path d="m0 0h-69.924v43.008h69.924v-21.504z" fill="#b1b4b6"/></g><g transform="translate(528.94 248.46)"><path d="m0 0v-43.008" fill="none" stroke="#000"/></g><g transform="translate(506.64 232.97)"><path d="m0 0c-4.004 3.6-7.998 7.086-12.006 10.684 0.893-3.116 1.787-6.235 2.68-9.346-0.893-0.024-1.787-0.043-2.68-0.072-7.939-0.582-12.168-4.772-13.33-11.954v-12.021h3.984v8.037c0.883 5.606 3.702 9.053 9.346 9.346h2.68c-0.453-3.115-0.918-6.231-1.371-9.346 3.568 4.854 7.123 9.818 10.697 14.672" fill="#fff" fill-rule="evenodd"/></g><g transform="translate(447.4 232.97)"><path d="m0 0c-4.004 3.6-7.998 7.086-12.006 10.684 0.893-3.116 1.787-6.235 2.68-9.346-0.893-0.024-1.787-0.043-2.68-0.072-5.473-0.402-9.181-2.517-11.338-6.144-2.158 3.627-5.865 5.742-11.338 6.144-0.892 0.029-1.787 0.048-2.679 0.072 0.892 3.111 1.787 6.23 2.679 9.346-4.008-3.598-8.002-7.084-12.006-10.684 3.575-4.854 7.129-9.818 10.698-14.672-0.453 3.115-0.918 6.231-1.371 9.346h2.679c5.645-0.293 8.463-3.74 9.346-9.346v-8.037h3.984v8.037c0.883 5.606 3.702 9.053 9.346 9.346h2.68c-0.453-3.115-0.918-6.231-1.371-9.346 3.568 4.854 7.123 9.818 10.697 14.672" fill="#fff" fill-rule="evenodd"/></g><g transform="translate(459.01 205.45)"><path d="m0 0v43.008" fill="none" stroke="#fff"/></g><g transform="translate(388.09 274.67)"><path d="m0 0c4.716 0 8.539-3.822 8.539-8.539 0-4.715-3.823-8.539-8.539-8.539-4.717 0-8.539 3.824-8.539 8.539 0 4.717 3.822 8.539 8.539 8.539"/><path d="m0 0c4.716 0 8.539-3.822 8.539-8.539 0-4.715-3.823-8.539-8.539-8.539-4.717 0-8.539 3.824-8.539 8.539 0 4.717 3.822 8.539 8.539 8.539z" fill="none" stroke="#fff" stroke-width=".5"/></g><g transform="translate(386.66 266.12)"><path d="m0 0h8.505" fill="none" stroke="#00a651" stroke-width="1.395"/></g><g transform="translate(388.27 272.46)"><path d="m0 0-6.324-6.324 6.325-6.326" fill="none" stroke="#00a651" stroke-width="1.395"/></g><g transform="translate(193.9 687.25)"><path d="m0 0v-34.02" fill="none" stroke="#fff" stroke-width="2"/></g></g><text transform="matrix(1 0 0 -1 120.62 175.68)" fill="black" font-family="Helvetica" font-size="8px"><tspan x="0 5.776 10.224 12.448 16.896 20.896" y="0">Notes:</tspan><tspan x="0 5.7119999 10.16 12.384 18 22.898399 25.1224 29.1224 33.5704 38.018398 40.242401 42.018398 43.794399 47.794399 50.018398 52.242401 58.018398 59.794399 62.018398 66.4664 68.690399 70.914398 75.362396 79.810402 82.034401 84.698402 86.474403 90.922401 95.370399 97.594398 100.2584 102.4824 106.9304 109.5944 114.0424 116.2664 122.9304 127.3784 131.3784 135.8264 142.4904 146.9384 151.3864 153.6104 155.8344 157.6104 161.6104 163.8344 165.6104 167.3864 169.1624 173.6104 177.6104 179.8344 182.4984 186.9464 189.17039 193.61839 198.06641" y="11.496"> 1. A conflict with the right-turn movement is illustrated.</tspan><tspan x="0 5.7119999 10.16 12.384 18 23.775999 28.224001 30.888 32.664001 36.664001 41.112 45.560001 47.784 52.231998 54.007999 55.784 59.784 62.448002 66.896004 68.671997 70.447998 74.896004 79.344002 83.792 88.239998 90.463997 94.463997 96.239998 100.688 105.136 109.584 111.36 113.584 115.808 120.256 124.256 128.70399 132.70399 134.92799 141.592 146.03999 150.03999 152.26401 156.71201 158.48801 162.48801 166.936 169.16 173.608 178.056 180.28 184.728 188.728 193.17599 197.62399" y="22.992001"> 2. Horizontally-aligned signal faces may also be used.</tspan><tspan x="0 5.7119999 10.16 12.384 18 23.336 27.784 32.231998 34.896 39.344002 43.792 46.015999 50.015999 51.792 56.240002 60.688 65.136002 66.912003 69.136002 71.360001 75.807999 79.807999 84.255997 88.255997 90.480003 97.143997 101.592 105.592 107.816 112.264 114.04 118.04 122.488 124.712 129.16 133.608 135.832 140.28 142.504 146.504 150.952 154.952 157.17599 158.952 163.39999 167.84801 171.84801 174.07201 175.84801 180.29601 182.52 186.968 189.192 193.192 197.64 200.304 202.528 204.304 208.304 212.752 214.528 216.752 220.752 222.976 225.64 230.088 231.864 236.312 240.75999 242.98399 245.20799 246.98399 248.75999 253.20799 257.65601 259.88 261.65601 266.104 270.104 272.328 276.776 281.224 285.672 287.896 292.34399 294.56799 296.79199 301.23999 303.46399 307.46399 309.23999 313.68799 317.68799 319.91199 324.35999 326.61359" y="34.487999"> 3. Shared signal faces may also be 5 sections in a vertical straight line instead of a cluster.</tspan><tspan x="-5 -2.776 0.336 4.7839999 9.2320004 11.456 13.68 16.344 18.568001 23.016001 25.68 30.128 32.352001 38.576 44.352001 49.688 55.023998 60.799999 62.585602 67.9216 73.697601 79.473602 85.697601 93.249603 95.473602 99.473602 103.9216 107.9216 110.1456 111.9216 116.3696 120.8176 123.0416 127.0416 131.48959 135.93761 137.71359 139.48959 141.71359 146.16161 150.6096 152.8336 154.6096 159.0576 163.0576 164.8336 169.2816 173.7296 178.1776 182.6256 184.84959 186.6256 188.84959 191.07359 193.29761 197.74561 202.1936 204.8576 209.3056 211.5296 213.3056 217.3056 219.5296 223.9776 228.4256 230.6496 235.0976 239.54559 243.99361 248.4416 252.4416 254.21761 258.66559 263.11359" y="57.439999"> *Left-turn GREEN ARROW section shall be included if there is an opposing </tspan><tspan x="0 4.448 8.8959999 13.344 16.007999 21.784 26.232 30.232 32.456001 36.903999 41.352001 45.799999 48.464001 52.911999 57.360001 61.360001 65.807999 68.031998 72.480003 76.928001 81.375999 83.599998 85.823997 90.272003 94.720001 96.944 100.944 102.72 107.168 111.616 116.064 117.84 120.064 124.512 128.96001 133.408 137.408 139.18401 143.632 148.08 150.304 154.752 156.528 158.304 164.968 166.744 171.192 175.64 177.864 182.312 186.312 188.536 192.536 196.98399 201.43201 203.65601 205.43201 207.20799 211.20799 213.43201 217.43201" y="65.935997">one-way approach and the signal phasing eliminates conflicts.</tspan></text></g></svg>
