<?xml version="1.0" encoding="UTF-8"?>
<svg width="684.65" height="735.86" version="1.1" viewBox="0 0 684.65 735.86" xml:space="preserve" xmlns="http://www.w3.org/2000/svg"><defs><clipPath id="ak"><path d="m58.057 184.03h522.89v558.97h-522.89z"/></clipPath><clipPath id="aj"><path d="m58.057 184.03h522.89v558.97h-522.89z"/></clipPath><clipPath id="ai"><path d="m58.057 184.03h522.89v558.97h-522.89z"/></clipPath><clipPath id="ah"><path d="m58.057 184.03h522.89v558.97h-522.89z"/></clipPath><clipPath id="ag"><path d="m0 0h9.609v3.097h-9.609z"/></clipPath><pattern id="i" width="9.60941" height="3.09668" patternTransform="translate(-348.53 -440.2)" patternUnits="userSpaceOnUse"><g clip-path="url(#ag)"><g transform="translate(1.6191,3.0967)"><path d="m0 0c0 0.228-0.186 0.413-0.413 0.413-0.228 0-0.413-0.185-0.413-0.413s0.185-0.412 0.413-0.412c0.227 0 0.413 0.184 0.413 0.412m0.25 0c0-0.365-0.298-0.662-0.663-0.662s-0.663 0.297-0.663 0.662 0.298 0.663 0.663 0.663 0.663-0.298 0.663-0.663"/></g><g transform="translate(4.0205,3.0967)"><path d="m0 0c0 0.228-0.186 0.413-0.413 0.413-0.228 0-0.413-0.185-0.413-0.413s0.185-0.412 0.413-0.412c0.227 0 0.413 0.184 0.413 0.412m0.25 0c0-0.365-0.298-0.662-0.663-0.662s-0.663 0.297-0.663 0.662 0.298 0.663 0.663 0.663 0.663-0.298 0.663-0.663"/></g><g transform="translate(6.4219,3.0967)"><path d="m0 0c0 0.228-0.186 0.413-0.413 0.413-0.228 0-0.413-0.185-0.413-0.413s0.185-0.412 0.413-0.412c0.227 0 0.413 0.184 0.413 0.412m0.25 0c0-0.365-0.298-0.662-0.663-0.662s-0.663 0.297-0.663 0.662 0.298 0.663 0.663 0.663 0.663-0.298 0.663-0.663"/></g><g transform="translate(8.8232,3.0967)"><path d="m0 0c0 0.228-0.186 0.413-0.413 0.413-0.228 0-0.413-0.185-0.413-0.413s0.185-0.412 0.413-0.412c0.227 0 0.413 0.184 0.413 0.412m0.25 0c0-0.365-0.298-0.662-0.663-0.662s-0.663 0.297-0.663 0.662 0.298 0.663 0.663 0.663 0.663-0.298 0.663-0.663"/></g><g transform="translate(1.6182)"><path d="m0 0c0 0.228-0.186 0.413-0.413 0.413-0.228 0-0.413-0.185-0.413-0.413s0.185-0.412 0.413-0.412c0.227 0 0.413 0.184 0.413 0.412m0.25 0c0-0.365-0.298-0.662-0.663-0.662s-0.663 0.297-0.663 0.662 0.298 0.663 0.663 0.663 0.663-0.298 0.663-0.663"/></g><g transform="translate(4.0195)"><path d="m0 0c0 0.228-0.186 0.413-0.413 0.413-0.228 0-0.413-0.185-0.413-0.413s0.185-0.412 0.413-0.412c0.227 0 0.413 0.184 0.413 0.412m0.25 0c0-0.365-0.298-0.662-0.663-0.662s-0.663 0.297-0.663 0.662 0.298 0.663 0.663 0.663 0.663-0.298 0.663-0.663"/></g><g transform="translate(6.4209)"><path d="m0 0c0 0.228-0.186 0.413-0.413 0.413-0.228 0-0.413-0.185-0.413-0.413s0.185-0.412 0.413-0.412c0.227 0 0.413 0.184 0.413 0.412m0.25 0c0-0.365-0.298-0.662-0.663-0.662s-0.663 0.297-0.663 0.662 0.298 0.663 0.663 0.663 0.663-0.298 0.663-0.663"/></g><g transform="translate(8.8223)"><path d="m0 0c0 0.228-0.186 0.413-0.413 0.413-0.228 0-0.413-0.185-0.413-0.413s0.185-0.412 0.413-0.412c0.227 0 0.413 0.184 0.413 0.412m0.25 0c0-0.365-0.298-0.662-0.663-0.662s-0.663 0.297-0.663 0.662 0.298 0.663 0.663 0.663 0.663-0.298 0.663-0.663"/></g><g transform="translate(10.022 1.5479)"><path d="m0 0c0 0.228-0.186 0.413-0.413 0.413-0.228 0-0.413-0.185-0.413-0.413s0.185-0.412 0.413-0.412c0.227 0 0.413 0.184 0.413 0.412m0.25 0c0-0.365-0.298-0.662-0.663-0.662s-0.663 0.297-0.663 0.662 0.298 0.663 0.663 0.663 0.663-0.298 0.663-0.663"/></g><g transform="translate(7.6201,1.5479)"><path d="m0 0c0 0.228-0.186 0.413-0.413 0.413-0.228 0-0.413-0.185-0.413-0.413s0.185-0.412 0.413-0.412c0.227 0 0.413 0.184 0.413 0.412m0.25 0c0-0.365-0.298-0.662-0.663-0.662s-0.663 0.297-0.663 0.662 0.298 0.663 0.663 0.663 0.663-0.298 0.663-0.663"/></g><g transform="translate(5.2178,1.5479)"><path d="m0 0c0 0.228-0.186 0.413-0.413 0.413-0.228 0-0.413-0.185-0.413-0.413s0.185-0.412 0.413-0.412c0.227 0 0.413 0.184 0.413 0.412m0.25 0c0-0.365-0.298-0.662-0.663-0.662s-0.663 0.297-0.663 0.662 0.298 0.663 0.663 0.663 0.663-0.298 0.663-0.663"/></g><g transform="translate(2.8154,1.5479)"><path d="m0 0c0 0.228-0.186 0.413-0.413 0.413-0.228 0-0.413-0.185-0.413-0.413s0.185-0.412 0.413-0.412c0.227 0 0.413 0.184 0.413 0.412m0.25 0c0-0.365-0.298-0.662-0.663-0.662s-0.663 0.297-0.663 0.662 0.298 0.663 0.663 0.663 0.663-0.298 0.663-0.663"/></g><g transform="translate(.4131 1.5479)"><path d="m0 0c0 0.228-0.186 0.413-0.413 0.413-0.228 0-0.413-0.185-0.413-0.413s0.185-0.412 0.413-0.412c0.227 0 0.413 0.184 0.413 0.412m0.25 0c0-0.365-0.298-0.662-0.663-0.662s-0.663 0.297-0.663 0.662 0.298 0.663 0.663 0.663 0.663-0.298 0.663-0.663"/></g></g></pattern><clipPath id="af"><path d="m0 0h9.609v3.097h-9.609z"/></clipPath><pattern id="h" width="9.60941" height="3.09668" patternTransform="translate(-348.53 -440.2)" patternUnits="userSpaceOnUse"><g clip-path="url(#af)"><g transform="translate(1.6191,3.0967)"><path d="m0 0c0 0.228-0.186 0.413-0.413 0.413-0.228 0-0.413-0.185-0.413-0.413s0.185-0.412 0.413-0.412c0.227 0 0.413 0.184 0.413 0.412m0.25 0c0-0.365-0.298-0.662-0.663-0.662s-0.663 0.297-0.663 0.662 0.298 0.663 0.663 0.663 0.663-0.298 0.663-0.663"/></g><g transform="translate(4.0205,3.0967)"><path d="m0 0c0 0.228-0.186 0.413-0.413 0.413-0.228 0-0.413-0.185-0.413-0.413s0.185-0.412 0.413-0.412c0.227 0 0.413 0.184 0.413 0.412m0.25 0c0-0.365-0.298-0.662-0.663-0.662s-0.663 0.297-0.663 0.662 0.298 0.663 0.663 0.663 0.663-0.298 0.663-0.663"/></g><g transform="translate(6.4219,3.0967)"><path d="m0 0c0 0.228-0.186 0.413-0.413 0.413-0.228 0-0.413-0.185-0.413-0.413s0.185-0.412 0.413-0.412c0.227 0 0.413 0.184 0.413 0.412m0.25 0c0-0.365-0.298-0.662-0.663-0.662s-0.663 0.297-0.663 0.662 0.298 0.663 0.663 0.663 0.663-0.298 0.663-0.663"/></g><g transform="translate(8.8232,3.0967)"><path d="m0 0c0 0.228-0.186 0.413-0.413 0.413-0.228 0-0.413-0.185-0.413-0.413s0.185-0.412 0.413-0.412c0.227 0 0.413 0.184 0.413 0.412m0.25 0c0-0.365-0.298-0.662-0.663-0.662s-0.663 0.297-0.663 0.662 0.298 0.663 0.663 0.663 0.663-0.298 0.663-0.663"/></g><g transform="translate(1.6182)"><path d="m0 0c0 0.228-0.186 0.413-0.413 0.413-0.228 0-0.413-0.185-0.413-0.413s0.185-0.412 0.413-0.412c0.227 0 0.413 0.184 0.413 0.412m0.25 0c0-0.365-0.298-0.662-0.663-0.662s-0.663 0.297-0.663 0.662 0.298 0.663 0.663 0.663 0.663-0.298 0.663-0.663"/></g><g transform="translate(4.0195)"><path d="m0 0c0 0.228-0.186 0.413-0.413 0.413-0.228 0-0.413-0.185-0.413-0.413s0.185-0.412 0.413-0.412c0.227 0 0.413 0.184 0.413 0.412m0.25 0c0-0.365-0.298-0.662-0.663-0.662s-0.663 0.297-0.663 0.662 0.298 0.663 0.663 0.663 0.663-0.298 0.663-0.663"/></g><g transform="translate(6.4209)"><path d="m0 0c0 0.228-0.186 0.413-0.413 0.413-0.228 0-0.413-0.185-0.413-0.413s0.185-0.412 0.413-0.412c0.227 0 0.413 0.184 0.413 0.412m0.25 0c0-0.365-0.298-0.662-0.663-0.662s-0.663 0.297-0.663 0.662 0.298 0.663 0.663 0.663 0.663-0.298 0.663-0.663"/></g><g transform="translate(8.8223)"><path d="m0 0c0 0.228-0.186 0.413-0.413 0.413-0.228 0-0.413-0.185-0.413-0.413s0.185-0.412 0.413-0.412c0.227 0 0.413 0.184 0.413 0.412m0.25 0c0-0.365-0.298-0.662-0.663-0.662s-0.663 0.297-0.663 0.662 0.298 0.663 0.663 0.663 0.663-0.298 0.663-0.663"/></g><g transform="translate(10.022 1.5479)"><path d="m0 0c0 0.228-0.186 0.413-0.413 0.413-0.228 0-0.413-0.185-0.413-0.413s0.185-0.412 0.413-0.412c0.227 0 0.413 0.184 0.413 0.412m0.25 0c0-0.365-0.298-0.662-0.663-0.662s-0.663 0.297-0.663 0.662 0.298 0.663 0.663 0.663 0.663-0.298 0.663-0.663"/></g><g transform="translate(7.6201,1.5479)"><path d="m0 0c0 0.228-0.186 0.413-0.413 0.413-0.228 0-0.413-0.185-0.413-0.413s0.185-0.412 0.413-0.412c0.227 0 0.413 0.184 0.413 0.412m0.25 0c0-0.365-0.298-0.662-0.663-0.662s-0.663 0.297-0.663 0.662 0.298 0.663 0.663 0.663 0.663-0.298 0.663-0.663"/></g><g transform="translate(5.2178,1.5479)"><path d="m0 0c0 0.228-0.186 0.413-0.413 0.413-0.228 0-0.413-0.185-0.413-0.413s0.185-0.412 0.413-0.412c0.227 0 0.413 0.184 0.413 0.412m0.25 0c0-0.365-0.298-0.662-0.663-0.662s-0.663 0.297-0.663 0.662 0.298 0.663 0.663 0.663 0.663-0.298 0.663-0.663"/></g><g transform="translate(2.8154,1.5479)"><path d="m0 0c0 0.228-0.186 0.413-0.413 0.413-0.228 0-0.413-0.185-0.413-0.413s0.185-0.412 0.413-0.412c0.227 0 0.413 0.184 0.413 0.412m0.25 0c0-0.365-0.298-0.662-0.663-0.662s-0.663 0.297-0.663 0.662 0.298 0.663 0.663 0.663 0.663-0.298 0.663-0.663"/></g><g transform="translate(.4131 1.5479)"><path d="m0 0c0 0.228-0.186 0.413-0.413 0.413-0.228 0-0.413-0.185-0.413-0.413s0.185-0.412 0.413-0.412c0.227 0 0.413 0.184 0.413 0.412m0.25 0c0-0.365-0.298-0.662-0.663-0.662s-0.663 0.297-0.663 0.662 0.298 0.663 0.663 0.663 0.663-0.298 0.663-0.663"/></g></g></pattern><clipPath id="ae"><path d="m469.51 333.9h20.258v18.297h-20.258z"/></clipPath><clipPath id="ad"><path d="m158.53 327.91h18.758v18.297h-18.758z"/></clipPath><clipPath id="ac"><path d="m458.73 341.45h16.807v19.068h-16.807z"/></clipPath><clipPath id="ab"><path d="m0 0h9.609v3.097h-9.609z"/></clipPath><pattern id="g" width="9.60941" height="3.09668" patternTransform="translate(-473.53 -361.52)" patternUnits="userSpaceOnUse"><g clip-path="url(#ab)"><g transform="translate(1.6191,3.0967)"><path d="m0 0c0 0.228-0.186 0.413-0.413 0.413-0.228 0-0.413-0.185-0.413-0.413s0.185-0.412 0.413-0.412c0.227 0 0.413 0.184 0.413 0.412m0.25 0c0-0.365-0.298-0.662-0.663-0.662s-0.663 0.297-0.663 0.662 0.298 0.663 0.663 0.663 0.663-0.298 0.663-0.663"/></g><g transform="translate(4.0205,3.0967)"><path d="m0 0c0 0.228-0.186 0.413-0.413 0.413-0.228 0-0.413-0.185-0.413-0.413s0.185-0.412 0.413-0.412c0.227 0 0.413 0.184 0.413 0.412m0.25 0c0-0.365-0.298-0.662-0.663-0.662s-0.663 0.297-0.663 0.662 0.298 0.663 0.663 0.663 0.663-0.298 0.663-0.663"/></g><g transform="translate(6.4219,3.0967)"><path d="m0 0c0 0.228-0.186 0.413-0.413 0.413-0.228 0-0.413-0.185-0.413-0.413s0.185-0.412 0.413-0.412c0.227 0 0.413 0.184 0.413 0.412m0.25 0c0-0.365-0.298-0.662-0.663-0.662s-0.663 0.297-0.663 0.662 0.298 0.663 0.663 0.663 0.663-0.298 0.663-0.663"/></g><g transform="translate(8.8232,3.0967)"><path d="m0 0c0 0.228-0.186 0.413-0.413 0.413-0.228 0-0.413-0.185-0.413-0.413s0.185-0.412 0.413-0.412c0.227 0 0.413 0.184 0.413 0.412m0.25 0c0-0.365-0.298-0.662-0.663-0.662s-0.663 0.297-0.663 0.662 0.298 0.663 0.663 0.663 0.663-0.298 0.663-0.663"/></g><g transform="translate(1.6182)"><path d="m0 0c0 0.228-0.186 0.413-0.413 0.413-0.228 0-0.413-0.185-0.413-0.413s0.185-0.412 0.413-0.412c0.227 0 0.413 0.184 0.413 0.412m0.25 0c0-0.365-0.298-0.662-0.663-0.662s-0.663 0.297-0.663 0.662 0.298 0.663 0.663 0.663 0.663-0.298 0.663-0.663"/></g><g transform="translate(4.0195)"><path d="m0 0c0 0.228-0.186 0.413-0.413 0.413-0.228 0-0.413-0.185-0.413-0.413s0.185-0.412 0.413-0.412c0.227 0 0.413 0.184 0.413 0.412m0.25 0c0-0.365-0.298-0.662-0.663-0.662s-0.663 0.297-0.663 0.662 0.298 0.663 0.663 0.663 0.663-0.298 0.663-0.663"/></g><g transform="translate(6.4209)"><path d="m0 0c0 0.228-0.186 0.413-0.413 0.413-0.228 0-0.413-0.185-0.413-0.413s0.185-0.412 0.413-0.412c0.227 0 0.413 0.184 0.413 0.412m0.25 0c0-0.365-0.298-0.662-0.663-0.662s-0.663 0.297-0.663 0.662 0.298 0.663 0.663 0.663 0.663-0.298 0.663-0.663"/></g><g transform="translate(8.8223)"><path d="m0 0c0 0.228-0.186 0.413-0.413 0.413-0.228 0-0.413-0.185-0.413-0.413s0.185-0.412 0.413-0.412c0.227 0 0.413 0.184 0.413 0.412m0.25 0c0-0.365-0.298-0.662-0.663-0.662s-0.663 0.297-0.663 0.662 0.298 0.663 0.663 0.663 0.663-0.298 0.663-0.663"/></g><g transform="translate(10.022 1.5479)"><path d="m0 0c0 0.228-0.186 0.413-0.413 0.413-0.228 0-0.413-0.185-0.413-0.413s0.185-0.412 0.413-0.412c0.227 0 0.413 0.184 0.413 0.412m0.25 0c0-0.365-0.298-0.662-0.663-0.662s-0.663 0.297-0.663 0.662 0.298 0.663 0.663 0.663 0.663-0.298 0.663-0.663"/></g><g transform="translate(7.6201,1.5479)"><path d="m0 0c0 0.228-0.186 0.413-0.413 0.413-0.228 0-0.413-0.185-0.413-0.413s0.185-0.412 0.413-0.412c0.227 0 0.413 0.184 0.413 0.412m0.25 0c0-0.365-0.298-0.662-0.663-0.662s-0.663 0.297-0.663 0.662 0.298 0.663 0.663 0.663 0.663-0.298 0.663-0.663"/></g><g transform="translate(5.2178,1.5479)"><path d="m0 0c0 0.228-0.186 0.413-0.413 0.413-0.228 0-0.413-0.185-0.413-0.413s0.185-0.412 0.413-0.412c0.227 0 0.413 0.184 0.413 0.412m0.25 0c0-0.365-0.298-0.662-0.663-0.662s-0.663 0.297-0.663 0.662 0.298 0.663 0.663 0.663 0.663-0.298 0.663-0.663"/></g><g transform="translate(2.8154,1.5479)"><path d="m0 0c0 0.228-0.186 0.413-0.413 0.413-0.228 0-0.413-0.185-0.413-0.413s0.185-0.412 0.413-0.412c0.227 0 0.413 0.184 0.413 0.412m0.25 0c0-0.365-0.298-0.662-0.663-0.662s-0.663 0.297-0.663 0.662 0.298 0.663 0.663 0.663 0.663-0.298 0.663-0.663"/></g><g transform="translate(.4131 1.5479)"><path d="m0 0c0 0.228-0.186 0.413-0.413 0.413-0.228 0-0.413-0.185-0.413-0.413s0.185-0.412 0.413-0.412c0.227 0 0.413 0.184 0.413 0.412m0.25 0c0-0.365-0.298-0.662-0.663-0.662s-0.663 0.297-0.663 0.662 0.298 0.663 0.663 0.663 0.663-0.298 0.663-0.663"/></g></g></pattern><clipPath id="aa"><path d="m0 0h9.609v3.097h-9.609z"/></clipPath><pattern id="f" width="9.60941" height="3.09668" patternTransform="translate(-139.98 -298.54)" patternUnits="userSpaceOnUse"><g clip-path="url(#aa)"><g transform="translate(1.6191,3.0967)"><path d="m0 0c0 0.228-0.186 0.413-0.413 0.413-0.228 0-0.413-0.185-0.413-0.413s0.185-0.412 0.413-0.412c0.227 0 0.413 0.184 0.413 0.412m0.25 0c0-0.365-0.298-0.662-0.663-0.662s-0.663 0.297-0.663 0.662 0.298 0.663 0.663 0.663 0.663-0.298 0.663-0.663"/></g><g transform="translate(4.0205,3.0967)"><path d="m0 0c0 0.228-0.186 0.413-0.413 0.413-0.228 0-0.413-0.185-0.413-0.413s0.185-0.412 0.413-0.412c0.227 0 0.413 0.184 0.413 0.412m0.25 0c0-0.365-0.298-0.662-0.663-0.662s-0.663 0.297-0.663 0.662 0.298 0.663 0.663 0.663 0.663-0.298 0.663-0.663"/></g><g transform="translate(6.4219,3.0967)"><path d="m0 0c0 0.228-0.186 0.413-0.413 0.413-0.228 0-0.413-0.185-0.413-0.413s0.185-0.412 0.413-0.412c0.227 0 0.413 0.184 0.413 0.412m0.25 0c0-0.365-0.298-0.662-0.663-0.662s-0.663 0.297-0.663 0.662 0.298 0.663 0.663 0.663 0.663-0.298 0.663-0.663"/></g><g transform="translate(8.8232,3.0967)"><path d="m0 0c0 0.228-0.186 0.413-0.413 0.413-0.228 0-0.413-0.185-0.413-0.413s0.185-0.412 0.413-0.412c0.227 0 0.413 0.184 0.413 0.412m0.25 0c0-0.365-0.298-0.662-0.663-0.662s-0.663 0.297-0.663 0.662 0.298 0.663 0.663 0.663 0.663-0.298 0.663-0.663"/></g><g transform="translate(1.6182)"><path d="m0 0c0 0.228-0.186 0.413-0.413 0.413-0.228 0-0.413-0.185-0.413-0.413s0.185-0.412 0.413-0.412c0.227 0 0.413 0.184 0.413 0.412m0.25 0c0-0.365-0.298-0.662-0.663-0.662s-0.663 0.297-0.663 0.662 0.298 0.663 0.663 0.663 0.663-0.298 0.663-0.663"/></g><g transform="translate(4.0195)"><path d="m0 0c0 0.228-0.186 0.413-0.413 0.413-0.228 0-0.413-0.185-0.413-0.413s0.185-0.412 0.413-0.412c0.227 0 0.413 0.184 0.413 0.412m0.25 0c0-0.365-0.298-0.662-0.663-0.662s-0.663 0.297-0.663 0.662 0.298 0.663 0.663 0.663 0.663-0.298 0.663-0.663"/></g><g transform="translate(6.4209)"><path d="m0 0c0 0.228-0.186 0.413-0.413 0.413-0.228 0-0.413-0.185-0.413-0.413s0.185-0.412 0.413-0.412c0.227 0 0.413 0.184 0.413 0.412m0.25 0c0-0.365-0.298-0.662-0.663-0.662s-0.663 0.297-0.663 0.662 0.298 0.663 0.663 0.663 0.663-0.298 0.663-0.663"/></g><g transform="translate(8.8223)"><path d="m0 0c0 0.228-0.186 0.413-0.413 0.413-0.228 0-0.413-0.185-0.413-0.413s0.185-0.412 0.413-0.412c0.227 0 0.413 0.184 0.413 0.412m0.25 0c0-0.365-0.298-0.662-0.663-0.662s-0.663 0.297-0.663 0.662 0.298 0.663 0.663 0.663 0.663-0.298 0.663-0.663"/></g><g transform="translate(10.022 1.5479)"><path d="m0 0c0 0.228-0.186 0.413-0.413 0.413-0.228 0-0.413-0.185-0.413-0.413s0.185-0.412 0.413-0.412c0.227 0 0.413 0.184 0.413 0.412m0.25 0c0-0.365-0.298-0.662-0.663-0.662s-0.663 0.297-0.663 0.662 0.298 0.663 0.663 0.663 0.663-0.298 0.663-0.663"/></g><g transform="translate(7.6201,1.5479)"><path d="m0 0c0 0.228-0.186 0.413-0.413 0.413-0.228 0-0.413-0.185-0.413-0.413s0.185-0.412 0.413-0.412c0.227 0 0.413 0.184 0.413 0.412m0.25 0c0-0.365-0.298-0.662-0.663-0.662s-0.663 0.297-0.663 0.662 0.298 0.663 0.663 0.663 0.663-0.298 0.663-0.663"/></g><g transform="translate(5.2178,1.5479)"><path d="m0 0c0 0.228-0.186 0.413-0.413 0.413-0.228 0-0.413-0.185-0.413-0.413s0.185-0.412 0.413-0.412c0.227 0 0.413 0.184 0.413 0.412m0.25 0c0-0.365-0.298-0.662-0.663-0.662s-0.663 0.297-0.663 0.662 0.298 0.663 0.663 0.663 0.663-0.298 0.663-0.663"/></g><g transform="translate(2.8154,1.5479)"><path d="m0 0c0 0.228-0.186 0.413-0.413 0.413-0.228 0-0.413-0.185-0.413-0.413s0.185-0.412 0.413-0.412c0.227 0 0.413 0.184 0.413 0.412m0.25 0c0-0.365-0.298-0.662-0.663-0.662s-0.663 0.297-0.663 0.662 0.298 0.663 0.663 0.663 0.663-0.298 0.663-0.663"/></g><g transform="translate(.4131 1.5479)"><path d="m0 0c0 0.228-0.186 0.413-0.413 0.413-0.228 0-0.413-0.185-0.413-0.413s0.185-0.412 0.413-0.412c0.227 0 0.413 0.184 0.413 0.412m0.25 0c0-0.365-0.298-0.662-0.663-0.662s-0.663 0.297-0.663 0.662 0.298 0.663 0.663 0.663 0.663-0.298 0.663-0.663"/></g></g></pattern><clipPath id="z"><path d="m58.057 184.03h522.89v558.97h-522.89z"/></clipPath><clipPath id="y"><path d="m0 0h9.609v3.097h-9.609z"/></clipPath><pattern id="e" width="9.60941" height="3.09668" patternTransform="translate(-229.24 -399.27)" patternUnits="userSpaceOnUse"><g clip-path="url(#y)"><g transform="translate(1.6191,3.0967)"><path d="m0 0c0 0.228-0.186 0.413-0.413 0.413-0.228 0-0.413-0.185-0.413-0.413s0.185-0.412 0.413-0.412c0.227 0 0.413 0.184 0.413 0.412m0.25 0c0-0.365-0.298-0.662-0.663-0.662s-0.663 0.297-0.663 0.662 0.298 0.663 0.663 0.663 0.663-0.298 0.663-0.663"/></g><g transform="translate(4.0205,3.0967)"><path d="m0 0c0 0.228-0.186 0.413-0.413 0.413-0.228 0-0.413-0.185-0.413-0.413s0.185-0.412 0.413-0.412c0.227 0 0.413 0.184 0.413 0.412m0.25 0c0-0.365-0.298-0.662-0.663-0.662s-0.663 0.297-0.663 0.662 0.298 0.663 0.663 0.663 0.663-0.298 0.663-0.663"/></g><g transform="translate(6.4219,3.0967)"><path d="m0 0c0 0.228-0.186 0.413-0.413 0.413-0.228 0-0.413-0.185-0.413-0.413s0.185-0.412 0.413-0.412c0.227 0 0.413 0.184 0.413 0.412m0.25 0c0-0.365-0.298-0.662-0.663-0.662s-0.663 0.297-0.663 0.662 0.298 0.663 0.663 0.663 0.663-0.298 0.663-0.663"/></g><g transform="translate(8.8232,3.0967)"><path d="m0 0c0 0.228-0.186 0.413-0.413 0.413-0.228 0-0.413-0.185-0.413-0.413s0.185-0.412 0.413-0.412c0.227 0 0.413 0.184 0.413 0.412m0.25 0c0-0.365-0.298-0.662-0.663-0.662s-0.663 0.297-0.663 0.662 0.298 0.663 0.663 0.663 0.663-0.298 0.663-0.663"/></g><g transform="translate(1.6182)"><path d="m0 0c0 0.228-0.186 0.413-0.413 0.413-0.228 0-0.413-0.185-0.413-0.413s0.185-0.412 0.413-0.412c0.227 0 0.413 0.184 0.413 0.412m0.25 0c0-0.365-0.298-0.662-0.663-0.662s-0.663 0.297-0.663 0.662 0.298 0.663 0.663 0.663 0.663-0.298 0.663-0.663"/></g><g transform="translate(4.0195)"><path d="m0 0c0 0.228-0.186 0.413-0.413 0.413-0.228 0-0.413-0.185-0.413-0.413s0.185-0.412 0.413-0.412c0.227 0 0.413 0.184 0.413 0.412m0.25 0c0-0.365-0.298-0.662-0.663-0.662s-0.663 0.297-0.663 0.662 0.298 0.663 0.663 0.663 0.663-0.298 0.663-0.663"/></g><g transform="translate(6.4209)"><path d="m0 0c0 0.228-0.186 0.413-0.413 0.413-0.228 0-0.413-0.185-0.413-0.413s0.185-0.412 0.413-0.412c0.227 0 0.413 0.184 0.413 0.412m0.25 0c0-0.365-0.298-0.662-0.663-0.662s-0.663 0.297-0.663 0.662 0.298 0.663 0.663 0.663 0.663-0.298 0.663-0.663"/></g><g transform="translate(8.8223)"><path d="m0 0c0 0.228-0.186 0.413-0.413 0.413-0.228 0-0.413-0.185-0.413-0.413s0.185-0.412 0.413-0.412c0.227 0 0.413 0.184 0.413 0.412m0.25 0c0-0.365-0.298-0.662-0.663-0.662s-0.663 0.297-0.663 0.662 0.298 0.663 0.663 0.663 0.663-0.298 0.663-0.663"/></g><g transform="translate(10.022 1.5479)"><path d="m0 0c0 0.228-0.186 0.413-0.413 0.413-0.228 0-0.413-0.185-0.413-0.413s0.185-0.412 0.413-0.412c0.227 0 0.413 0.184 0.413 0.412m0.25 0c0-0.365-0.298-0.662-0.663-0.662s-0.663 0.297-0.663 0.662 0.298 0.663 0.663 0.663 0.663-0.298 0.663-0.663"/></g><g transform="translate(7.6201,1.5479)"><path d="m0 0c0 0.228-0.186 0.413-0.413 0.413-0.228 0-0.413-0.185-0.413-0.413s0.185-0.412 0.413-0.412c0.227 0 0.413 0.184 0.413 0.412m0.25 0c0-0.365-0.298-0.662-0.663-0.662s-0.663 0.297-0.663 0.662 0.298 0.663 0.663 0.663 0.663-0.298 0.663-0.663"/></g><g transform="translate(5.2178,1.5479)"><path d="m0 0c0 0.228-0.186 0.413-0.413 0.413-0.228 0-0.413-0.185-0.413-0.413s0.185-0.412 0.413-0.412c0.227 0 0.413 0.184 0.413 0.412m0.25 0c0-0.365-0.298-0.662-0.663-0.662s-0.663 0.297-0.663 0.662 0.298 0.663 0.663 0.663 0.663-0.298 0.663-0.663"/></g><g transform="translate(2.8154,1.5479)"><path d="m0 0c0 0.228-0.186 0.413-0.413 0.413-0.228 0-0.413-0.185-0.413-0.413s0.185-0.412 0.413-0.412c0.227 0 0.413 0.184 0.413 0.412m0.25 0c0-0.365-0.298-0.662-0.663-0.662s-0.663 0.297-0.663 0.662 0.298 0.663 0.663 0.663 0.663-0.298 0.663-0.663"/></g><g transform="translate(.4131 1.5479)"><path d="m0 0c0 0.228-0.186 0.413-0.413 0.413-0.228 0-0.413-0.185-0.413-0.413s0.185-0.412 0.413-0.412c0.227 0 0.413 0.184 0.413 0.412m0.25 0c0-0.365-0.298-0.662-0.663-0.662s-0.663 0.297-0.663 0.662 0.298 0.663 0.663 0.663 0.663-0.298 0.663-0.663"/></g></g></pattern><clipPath id="x"><path d="m236.04 373.36h10.921v6.329h-10.921z"/></clipPath><clipPath id="w"><path d="m58.057 184.03h522.89v558.97h-522.89z"/></clipPath><clipPath id="v"><path d="m0 0h9.609v3.097h-9.609z"/></clipPath><pattern id="d" width="9.60941" height="3.09668" patternTransform="translate(-388.48 -708.08)" patternUnits="userSpaceOnUse"><g clip-path="url(#v)"><g transform="translate(1.6191,3.0967)"><path d="m0 0c0 0.228-0.186 0.413-0.413 0.413-0.228 0-0.413-0.185-0.413-0.413s0.185-0.412 0.413-0.412c0.227 0 0.413 0.184 0.413 0.412m0.25 0c0-0.365-0.298-0.662-0.663-0.662s-0.663 0.297-0.663 0.662 0.298 0.663 0.663 0.663 0.663-0.298 0.663-0.663"/></g><g transform="translate(4.0205,3.0967)"><path d="m0 0c0 0.228-0.186 0.413-0.413 0.413-0.228 0-0.413-0.185-0.413-0.413s0.185-0.412 0.413-0.412c0.227 0 0.413 0.184 0.413 0.412m0.25 0c0-0.365-0.298-0.662-0.663-0.662s-0.663 0.297-0.663 0.662 0.298 0.663 0.663 0.663 0.663-0.298 0.663-0.663"/></g><g transform="translate(6.4219,3.0967)"><path d="m0 0c0 0.228-0.186 0.413-0.413 0.413-0.228 0-0.413-0.185-0.413-0.413s0.185-0.412 0.413-0.412c0.227 0 0.413 0.184 0.413 0.412m0.25 0c0-0.365-0.298-0.662-0.663-0.662s-0.663 0.297-0.663 0.662 0.298 0.663 0.663 0.663 0.663-0.298 0.663-0.663"/></g><g transform="translate(8.8232,3.0967)"><path d="m0 0c0 0.228-0.186 0.413-0.413 0.413-0.228 0-0.413-0.185-0.413-0.413s0.185-0.412 0.413-0.412c0.227 0 0.413 0.184 0.413 0.412m0.25 0c0-0.365-0.298-0.662-0.663-0.662s-0.663 0.297-0.663 0.662 0.298 0.663 0.663 0.663 0.663-0.298 0.663-0.663"/></g><g transform="translate(1.6182)"><path d="m0 0c0 0.228-0.186 0.413-0.413 0.413-0.228 0-0.413-0.185-0.413-0.413s0.185-0.412 0.413-0.412c0.227 0 0.413 0.184 0.413 0.412m0.25 0c0-0.365-0.298-0.662-0.663-0.662s-0.663 0.297-0.663 0.662 0.298 0.663 0.663 0.663 0.663-0.298 0.663-0.663"/></g><g transform="translate(4.0195)"><path d="m0 0c0 0.228-0.186 0.413-0.413 0.413-0.228 0-0.413-0.185-0.413-0.413s0.185-0.412 0.413-0.412c0.227 0 0.413 0.184 0.413 0.412m0.25 0c0-0.365-0.298-0.662-0.663-0.662s-0.663 0.297-0.663 0.662 0.298 0.663 0.663 0.663 0.663-0.298 0.663-0.663"/></g><g transform="translate(6.4209)"><path d="m0 0c0 0.228-0.186 0.413-0.413 0.413-0.228 0-0.413-0.185-0.413-0.413s0.185-0.412 0.413-0.412c0.227 0 0.413 0.184 0.413 0.412m0.25 0c0-0.365-0.298-0.662-0.663-0.662s-0.663 0.297-0.663 0.662 0.298 0.663 0.663 0.663 0.663-0.298 0.663-0.663"/></g><g transform="translate(8.8223)"><path d="m0 0c0 0.228-0.186 0.413-0.413 0.413-0.228 0-0.413-0.185-0.413-0.413s0.185-0.412 0.413-0.412c0.227 0 0.413 0.184 0.413 0.412m0.25 0c0-0.365-0.298-0.662-0.663-0.662s-0.663 0.297-0.663 0.662 0.298 0.663 0.663 0.663 0.663-0.298 0.663-0.663"/></g><g transform="translate(10.022 1.5479)"><path d="m0 0c0 0.228-0.186 0.413-0.413 0.413-0.228 0-0.413-0.185-0.413-0.413s0.185-0.412 0.413-0.412c0.227 0 0.413 0.184 0.413 0.412m0.25 0c0-0.365-0.298-0.662-0.663-0.662s-0.663 0.297-0.663 0.662 0.298 0.663 0.663 0.663 0.663-0.298 0.663-0.663"/></g><g transform="translate(7.6201,1.5479)"><path d="m0 0c0 0.228-0.186 0.413-0.413 0.413-0.228 0-0.413-0.185-0.413-0.413s0.185-0.412 0.413-0.412c0.227 0 0.413 0.184 0.413 0.412m0.25 0c0-0.365-0.298-0.662-0.663-0.662s-0.663 0.297-0.663 0.662 0.298 0.663 0.663 0.663 0.663-0.298 0.663-0.663"/></g><g transform="translate(5.2178,1.5479)"><path d="m0 0c0 0.228-0.186 0.413-0.413 0.413-0.228 0-0.413-0.185-0.413-0.413s0.185-0.412 0.413-0.412c0.227 0 0.413 0.184 0.413 0.412m0.25 0c0-0.365-0.298-0.662-0.663-0.662s-0.663 0.297-0.663 0.662 0.298 0.663 0.663 0.663 0.663-0.298 0.663-0.663"/></g><g transform="translate(2.8154,1.5479)"><path d="m0 0c0 0.228-0.186 0.413-0.413 0.413-0.228 0-0.413-0.185-0.413-0.413s0.185-0.412 0.413-0.412c0.227 0 0.413 0.184 0.413 0.412m0.25 0c0-0.365-0.298-0.662-0.663-0.662s-0.663 0.297-0.663 0.662 0.298 0.663 0.663 0.663 0.663-0.298 0.663-0.663"/></g><g transform="translate(.4131 1.5479)"><path d="m0 0c0 0.228-0.186 0.413-0.413 0.413-0.228 0-0.413-0.185-0.413-0.413s0.185-0.412 0.413-0.412c0.227 0 0.413 0.184 0.413 0.412m0.25 0c0-0.365-0.298-0.662-0.663-0.662s-0.663 0.297-0.663 0.662 0.298 0.663 0.663 0.663 0.663-0.298 0.663-0.663"/></g></g></pattern><clipPath id="u"><path d="m0 0h9.609v3.097h-9.609z"/></clipPath><pattern id="c" width="9.60941" height="3.09668" patternTransform="translate(-388.48 -708.08)" patternUnits="userSpaceOnUse"><g clip-path="url(#u)"><g transform="translate(1.6191,3.0967)"><path d="m0 0c0 0.228-0.186 0.413-0.413 0.413-0.228 0-0.413-0.185-0.413-0.413s0.185-0.412 0.413-0.412c0.227 0 0.413 0.184 0.413 0.412m0.25 0c0-0.365-0.298-0.662-0.663-0.662s-0.663 0.297-0.663 0.662 0.298 0.663 0.663 0.663 0.663-0.298 0.663-0.663"/></g><g transform="translate(4.0205,3.0967)"><path d="m0 0c0 0.228-0.186 0.413-0.413 0.413-0.228 0-0.413-0.185-0.413-0.413s0.185-0.412 0.413-0.412c0.227 0 0.413 0.184 0.413 0.412m0.25 0c0-0.365-0.298-0.662-0.663-0.662s-0.663 0.297-0.663 0.662 0.298 0.663 0.663 0.663 0.663-0.298 0.663-0.663"/></g><g transform="translate(6.4219,3.0967)"><path d="m0 0c0 0.228-0.186 0.413-0.413 0.413-0.228 0-0.413-0.185-0.413-0.413s0.185-0.412 0.413-0.412c0.227 0 0.413 0.184 0.413 0.412m0.25 0c0-0.365-0.298-0.662-0.663-0.662s-0.663 0.297-0.663 0.662 0.298 0.663 0.663 0.663 0.663-0.298 0.663-0.663"/></g><g transform="translate(8.8232,3.0967)"><path d="m0 0c0 0.228-0.186 0.413-0.413 0.413-0.228 0-0.413-0.185-0.413-0.413s0.185-0.412 0.413-0.412c0.227 0 0.413 0.184 0.413 0.412m0.25 0c0-0.365-0.298-0.662-0.663-0.662s-0.663 0.297-0.663 0.662 0.298 0.663 0.663 0.663 0.663-0.298 0.663-0.663"/></g><g transform="translate(1.6182)"><path d="m0 0c0 0.228-0.186 0.413-0.413 0.413-0.228 0-0.413-0.185-0.413-0.413s0.185-0.412 0.413-0.412c0.227 0 0.413 0.184 0.413 0.412m0.25 0c0-0.365-0.298-0.662-0.663-0.662s-0.663 0.297-0.663 0.662 0.298 0.663 0.663 0.663 0.663-0.298 0.663-0.663"/></g><g transform="translate(4.0195)"><path d="m0 0c0 0.228-0.186 0.413-0.413 0.413-0.228 0-0.413-0.185-0.413-0.413s0.185-0.412 0.413-0.412c0.227 0 0.413 0.184 0.413 0.412m0.25 0c0-0.365-0.298-0.662-0.663-0.662s-0.663 0.297-0.663 0.662 0.298 0.663 0.663 0.663 0.663-0.298 0.663-0.663"/></g><g transform="translate(6.4209)"><path d="m0 0c0 0.228-0.186 0.413-0.413 0.413-0.228 0-0.413-0.185-0.413-0.413s0.185-0.412 0.413-0.412c0.227 0 0.413 0.184 0.413 0.412m0.25 0c0-0.365-0.298-0.662-0.663-0.662s-0.663 0.297-0.663 0.662 0.298 0.663 0.663 0.663 0.663-0.298 0.663-0.663"/></g><g transform="translate(8.8223)"><path d="m0 0c0 0.228-0.186 0.413-0.413 0.413-0.228 0-0.413-0.185-0.413-0.413s0.185-0.412 0.413-0.412c0.227 0 0.413 0.184 0.413 0.412m0.25 0c0-0.365-0.298-0.662-0.663-0.662s-0.663 0.297-0.663 0.662 0.298 0.663 0.663 0.663 0.663-0.298 0.663-0.663"/></g><g transform="translate(10.022 1.5479)"><path d="m0 0c0 0.228-0.186 0.413-0.413 0.413-0.228 0-0.413-0.185-0.413-0.413s0.185-0.412 0.413-0.412c0.227 0 0.413 0.184 0.413 0.412m0.25 0c0-0.365-0.298-0.662-0.663-0.662s-0.663 0.297-0.663 0.662 0.298 0.663 0.663 0.663 0.663-0.298 0.663-0.663"/></g><g transform="translate(7.6201,1.5479)"><path d="m0 0c0 0.228-0.186 0.413-0.413 0.413-0.228 0-0.413-0.185-0.413-0.413s0.185-0.412 0.413-0.412c0.227 0 0.413 0.184 0.413 0.412m0.25 0c0-0.365-0.298-0.662-0.663-0.662s-0.663 0.297-0.663 0.662 0.298 0.663 0.663 0.663 0.663-0.298 0.663-0.663"/></g><g transform="translate(5.2178,1.5479)"><path d="m0 0c0 0.228-0.186 0.413-0.413 0.413-0.228 0-0.413-0.185-0.413-0.413s0.185-0.412 0.413-0.412c0.227 0 0.413 0.184 0.413 0.412m0.25 0c0-0.365-0.298-0.662-0.663-0.662s-0.663 0.297-0.663 0.662 0.298 0.663 0.663 0.663 0.663-0.298 0.663-0.663"/></g><g transform="translate(2.8154,1.5479)"><path d="m0 0c0 0.228-0.186 0.413-0.413 0.413-0.228 0-0.413-0.185-0.413-0.413s0.185-0.412 0.413-0.412c0.227 0 0.413 0.184 0.413 0.412m0.25 0c0-0.365-0.298-0.662-0.663-0.662s-0.663 0.297-0.663 0.662 0.298 0.663 0.663 0.663 0.663-0.298 0.663-0.663"/></g><g transform="translate(.4131 1.5479)"><path d="m0 0c0 0.228-0.186 0.413-0.413 0.413-0.228 0-0.413-0.185-0.413-0.413s0.185-0.412 0.413-0.412c0.227 0 0.413 0.184 0.413 0.412m0.25 0c0-0.365-0.298-0.662-0.663-0.662s-0.663 0.297-0.663 0.662 0.298 0.663 0.663 0.663 0.663-0.298 0.663-0.663"/></g></g></pattern><clipPath id="t"><path d="m58.057 184.03h522.89v558.97h-522.89z"/></clipPath><clipPath id="s"><path d="m151.13 594.49 7.52-11.381 11.593 7.258-7.52 11.381z"/></clipPath><clipPath id="r"><path d="m0 0h9.609v3.097h-9.609z"/></clipPath><pattern id="b" width="9.60941" height="3.09668" patternTransform="rotate(5.7935 -2188.2 7306.4)" patternUnits="userSpaceOnUse"><g clip-path="url(#r)"><g transform="translate(1.6191,3.0967)"><path d="m0 0c0 0.228-0.186 0.413-0.413 0.413-0.228 0-0.413-0.185-0.413-0.413s0.185-0.412 0.413-0.412c0.227 0 0.413 0.184 0.413 0.412m0.25 0c0-0.365-0.298-0.662-0.663-0.662s-0.663 0.297-0.663 0.662 0.298 0.663 0.663 0.663 0.663-0.298 0.663-0.663"/></g><g transform="translate(4.0205,3.0967)"><path d="m0 0c0 0.228-0.186 0.413-0.413 0.413-0.228 0-0.413-0.185-0.413-0.413s0.185-0.412 0.413-0.412c0.227 0 0.413 0.184 0.413 0.412m0.25 0c0-0.365-0.298-0.662-0.663-0.662s-0.663 0.297-0.663 0.662 0.298 0.663 0.663 0.663 0.663-0.298 0.663-0.663"/></g><g transform="translate(6.4219,3.0967)"><path d="m0 0c0 0.228-0.186 0.413-0.413 0.413-0.228 0-0.413-0.185-0.413-0.413s0.185-0.412 0.413-0.412c0.227 0 0.413 0.184 0.413 0.412m0.25 0c0-0.365-0.298-0.662-0.663-0.662s-0.663 0.297-0.663 0.662 0.298 0.663 0.663 0.663 0.663-0.298 0.663-0.663"/></g><g transform="translate(8.8232,3.0967)"><path d="m0 0c0 0.228-0.186 0.413-0.413 0.413-0.228 0-0.413-0.185-0.413-0.413s0.185-0.412 0.413-0.412c0.227 0 0.413 0.184 0.413 0.412m0.25 0c0-0.365-0.298-0.662-0.663-0.662s-0.663 0.297-0.663 0.662 0.298 0.663 0.663 0.663 0.663-0.298 0.663-0.663"/></g><g transform="translate(1.6182)"><path d="m0 0c0 0.228-0.186 0.413-0.413 0.413-0.228 0-0.413-0.185-0.413-0.413s0.185-0.412 0.413-0.412c0.227 0 0.413 0.184 0.413 0.412m0.25 0c0-0.365-0.298-0.662-0.663-0.662s-0.663 0.297-0.663 0.662 0.298 0.663 0.663 0.663 0.663-0.298 0.663-0.663"/></g><g transform="translate(4.0195)"><path d="m0 0c0 0.228-0.186 0.413-0.413 0.413-0.228 0-0.413-0.185-0.413-0.413s0.185-0.412 0.413-0.412c0.227 0 0.413 0.184 0.413 0.412m0.25 0c0-0.365-0.298-0.662-0.663-0.662s-0.663 0.297-0.663 0.662 0.298 0.663 0.663 0.663 0.663-0.298 0.663-0.663"/></g><g transform="translate(6.4209)"><path d="m0 0c0 0.228-0.186 0.413-0.413 0.413-0.228 0-0.413-0.185-0.413-0.413s0.185-0.412 0.413-0.412c0.227 0 0.413 0.184 0.413 0.412m0.25 0c0-0.365-0.298-0.662-0.663-0.662s-0.663 0.297-0.663 0.662 0.298 0.663 0.663 0.663 0.663-0.298 0.663-0.663"/></g><g transform="translate(8.8223)"><path d="m0 0c0 0.228-0.186 0.413-0.413 0.413-0.228 0-0.413-0.185-0.413-0.413s0.185-0.412 0.413-0.412c0.227 0 0.413 0.184 0.413 0.412m0.25 0c0-0.365-0.298-0.662-0.663-0.662s-0.663 0.297-0.663 0.662 0.298 0.663 0.663 0.663 0.663-0.298 0.663-0.663"/></g><g transform="translate(10.022 1.5479)"><path d="m0 0c0 0.228-0.186 0.413-0.413 0.413-0.228 0-0.413-0.185-0.413-0.413s0.185-0.412 0.413-0.412c0.227 0 0.413 0.184 0.413 0.412m0.25 0c0-0.365-0.298-0.662-0.663-0.662s-0.663 0.297-0.663 0.662 0.298 0.663 0.663 0.663 0.663-0.298 0.663-0.663"/></g><g transform="translate(7.6201,1.5479)"><path d="m0 0c0 0.228-0.186 0.413-0.413 0.413-0.228 0-0.413-0.185-0.413-0.413s0.185-0.412 0.413-0.412c0.227 0 0.413 0.184 0.413 0.412m0.25 0c0-0.365-0.298-0.662-0.663-0.662s-0.663 0.297-0.663 0.662 0.298 0.663 0.663 0.663 0.663-0.298 0.663-0.663"/></g><g transform="translate(5.2178,1.5479)"><path d="m0 0c0 0.228-0.186 0.413-0.413 0.413-0.228 0-0.413-0.185-0.413-0.413s0.185-0.412 0.413-0.412c0.227 0 0.413 0.184 0.413 0.412m0.25 0c0-0.365-0.298-0.662-0.663-0.662s-0.663 0.297-0.663 0.662 0.298 0.663 0.663 0.663 0.663-0.298 0.663-0.663"/></g><g transform="translate(2.8154,1.5479)"><path d="m0 0c0 0.228-0.186 0.413-0.413 0.413-0.228 0-0.413-0.185-0.413-0.413s0.185-0.412 0.413-0.412c0.227 0 0.413 0.184 0.413 0.412m0.25 0c0-0.365-0.298-0.662-0.663-0.662s-0.663 0.297-0.663 0.662 0.298 0.663 0.663 0.663 0.663-0.298 0.663-0.663"/></g><g transform="translate(.4131 1.5479)"><path d="m0 0c0 0.228-0.186 0.413-0.413 0.413-0.228 0-0.413-0.185-0.413-0.413s0.185-0.412 0.413-0.412c0.227 0 0.413 0.184 0.413 0.412m0.25 0c0-0.365-0.298-0.662-0.663-0.662s-0.663 0.297-0.663 0.662 0.298 0.663 0.663 0.663 0.663-0.298 0.663-0.663"/></g></g></pattern><clipPath id="q"><path d="m171.65 569.79 11.457-7.402 7.701 11.303-11.457 7.402z"/></clipPath><clipPath id="p"><path d="m0 0h9.609v3.097h-9.609z"/></clipPath><pattern id="a" width="9.60941" height="3.09668" patternTransform="rotate(29.473 -6906.6 8055.6)" patternUnits="userSpaceOnUse"><g clip-path="url(#p)"><g transform="translate(1.6191,3.0967)"><path d="m0 0c0 0.228-0.186 0.413-0.413 0.413-0.228 0-0.413-0.185-0.413-0.413s0.185-0.412 0.413-0.412c0.227 0 0.413 0.184 0.413 0.412m0.25 0c0-0.365-0.298-0.662-0.663-0.662s-0.663 0.297-0.663 0.662 0.298 0.663 0.663 0.663 0.663-0.298 0.663-0.663"/></g><g transform="translate(4.0205,3.0967)"><path d="m0 0c0 0.228-0.186 0.413-0.413 0.413-0.228 0-0.413-0.185-0.413-0.413s0.185-0.412 0.413-0.412c0.227 0 0.413 0.184 0.413 0.412m0.25 0c0-0.365-0.298-0.662-0.663-0.662s-0.663 0.297-0.663 0.662 0.298 0.663 0.663 0.663 0.663-0.298 0.663-0.663"/></g><g transform="translate(6.4219,3.0967)"><path d="m0 0c0 0.228-0.186 0.413-0.413 0.413-0.228 0-0.413-0.185-0.413-0.413s0.185-0.412 0.413-0.412c0.227 0 0.413 0.184 0.413 0.412m0.25 0c0-0.365-0.298-0.662-0.663-0.662s-0.663 0.297-0.663 0.662 0.298 0.663 0.663 0.663 0.663-0.298 0.663-0.663"/></g><g transform="translate(8.8232,3.0967)"><path d="m0 0c0 0.228-0.186 0.413-0.413 0.413-0.228 0-0.413-0.185-0.413-0.413s0.185-0.412 0.413-0.412c0.227 0 0.413 0.184 0.413 0.412m0.25 0c0-0.365-0.298-0.662-0.663-0.662s-0.663 0.297-0.663 0.662 0.298 0.663 0.663 0.663 0.663-0.298 0.663-0.663"/></g><g transform="translate(1.6182)"><path d="m0 0c0 0.228-0.186 0.413-0.413 0.413-0.228 0-0.413-0.185-0.413-0.413s0.185-0.412 0.413-0.412c0.227 0 0.413 0.184 0.413 0.412m0.25 0c0-0.365-0.298-0.662-0.663-0.662s-0.663 0.297-0.663 0.662 0.298 0.663 0.663 0.663 0.663-0.298 0.663-0.663"/></g><g transform="translate(4.0195)"><path d="m0 0c0 0.228-0.186 0.413-0.413 0.413-0.228 0-0.413-0.185-0.413-0.413s0.185-0.412 0.413-0.412c0.227 0 0.413 0.184 0.413 0.412m0.25 0c0-0.365-0.298-0.662-0.663-0.662s-0.663 0.297-0.663 0.662 0.298 0.663 0.663 0.663 0.663-0.298 0.663-0.663"/></g><g transform="translate(6.4209)"><path d="m0 0c0 0.228-0.186 0.413-0.413 0.413-0.228 0-0.413-0.185-0.413-0.413s0.185-0.412 0.413-0.412c0.227 0 0.413 0.184 0.413 0.412m0.25 0c0-0.365-0.298-0.662-0.663-0.662s-0.663 0.297-0.663 0.662 0.298 0.663 0.663 0.663 0.663-0.298 0.663-0.663"/></g><g transform="translate(8.8223)"><path d="m0 0c0 0.228-0.186 0.413-0.413 0.413-0.228 0-0.413-0.185-0.413-0.413s0.185-0.412 0.413-0.412c0.227 0 0.413 0.184 0.413 0.412m0.25 0c0-0.365-0.298-0.662-0.663-0.662s-0.663 0.297-0.663 0.662 0.298 0.663 0.663 0.663 0.663-0.298 0.663-0.663"/></g><g transform="translate(10.022 1.5479)"><path d="m0 0c0 0.228-0.186 0.413-0.413 0.413-0.228 0-0.413-0.185-0.413-0.413s0.185-0.412 0.413-0.412c0.227 0 0.413 0.184 0.413 0.412m0.25 0c0-0.365-0.298-0.662-0.663-0.662s-0.663 0.297-0.663 0.662 0.298 0.663 0.663 0.663 0.663-0.298 0.663-0.663"/></g><g transform="translate(7.6201,1.5479)"><path d="m0 0c0 0.228-0.186 0.413-0.413 0.413-0.228 0-0.413-0.185-0.413-0.413s0.185-0.412 0.413-0.412c0.227 0 0.413 0.184 0.413 0.412m0.25 0c0-0.365-0.298-0.662-0.663-0.662s-0.663 0.297-0.663 0.662 0.298 0.663 0.663 0.663 0.663-0.298 0.663-0.663"/></g><g transform="translate(5.2178,1.5479)"><path d="m0 0c0 0.228-0.186 0.413-0.413 0.413-0.228 0-0.413-0.185-0.413-0.413s0.185-0.412 0.413-0.412c0.227 0 0.413 0.184 0.413 0.412m0.25 0c0-0.365-0.298-0.662-0.663-0.662s-0.663 0.297-0.663 0.662 0.298 0.663 0.663 0.663 0.663-0.298 0.663-0.663"/></g><g transform="translate(2.8154,1.5479)"><path d="m0 0c0 0.228-0.186 0.413-0.413 0.413-0.228 0-0.413-0.185-0.413-0.413s0.185-0.412 0.413-0.412c0.227 0 0.413 0.184 0.413 0.412m0.25 0c0-0.365-0.298-0.662-0.663-0.662s-0.663 0.297-0.663 0.662 0.298 0.663 0.663 0.663 0.663-0.298 0.663-0.663"/></g><g transform="translate(.4131 1.5479)"><path d="m0 0c0 0.228-0.186 0.413-0.413 0.413-0.228 0-0.413-0.185-0.413-0.413s0.185-0.412 0.413-0.412c0.227 0 0.413 0.184 0.413 0.412m0.25 0c0-0.365-0.298-0.662-0.663-0.662s-0.663 0.297-0.663 0.662 0.298 0.663 0.663 0.663 0.663-0.298 0.663-0.663"/></g></g></pattern><clipPath id="o"><path d="m58.057 184.03h522.89v558.97h-522.89z"/></clipPath><clipPath id="n"><path d="m58.057 184.03h522.89v558.97h-522.89z"/></clipPath><clipPath id="m"><path d="m58.057 184.03h522.89v558.97h-522.89z"/></clipPath><clipPath id="l"><path d="m415.32 640.1h20.332l-0.397 18.79-19.935 2e-3z"/></clipPath><clipPath id="k"><path d="m518.1 540.71h18.562v21.132h-18.562z"/></clipPath><clipPath id="j"><path d="m58.057 184.03h522.89v558.97h-522.89z"/></clipPath></defs><g transform="matrix(1.3333 0 0 -1.3333 -88.024 986.69)"><g clip-path="url(#ak)"><g transform="translate(71.969 449.05)"><path d="m0 0v-209.22h209.17l1e-3 42.179h-71.291c-51.695 0-93.75 42.055-93.75 93.75v73.287z" fill="#b1b4b6"/></g><g fill="#fff"><path d="m187.04 312.71h-5.62v-82.775h5.62z"/><path d="m147.85 312.71h-5.62v-82.775h5.62z"/><path d="m161.36 317.1h-91.768v-5.62h91.768z"/><path d="m147.08 356.44h-77.49v-5.62h77.49z"/></g><g transform="translate(281.14 282.01)"><path d="m0 0h-71.291c-51.695 0-93.75 42.055-93.75 93.75v73.287h35v-73.287c0-32.395 26.355-58.75 58.75-58.75h71.291z" fill="#75c594"/><path d="m0 0h-71.291c-51.695 0-93.75 42.055-93.75 93.75v73.287h35v-73.287c0-32.395 26.355-58.75 58.75-58.75h71.291z" fill="none" stroke="#000"/></g><g transform="translate(281.14 317.01)"><path d="m0 0h-71.291c-32.395 0-58.75 26.355-58.75 58.75v73.287h28.1v-73.287c0-16.9 13.749-30.65 30.65-30.65h71.291" fill="none" stroke="#000"/></g><path d="m549.54 708.12h-448.28v31.896h448.28z" fill="#fff"/></g><g fill="#fff"><path d="m279.7 239.09h3.127v109.34h-3.127z"/><path d="m71.782 447.48h115.26v3.126h-115.26z"/><path d="m158.4 346.21h18.881v-45.311h-18.881z"/></g><g transform="translate(158.4 346.21)"><path d="m0 0h18.881v-45.311h-18.881z" fill="none" stroke="#000"/></g><g transform="translate(158.4 327.33)"><path d="m0 0h18.881v-38.986l-18.881 9.22z" fill="#fff"/><path d="m0 0h18.881v-38.986l-18.881 9.22z" fill="none" stroke="#000" stroke-width=".991"/></g><g clip-path="url(#aj)"><g transform="translate(158.65 304.78)"><path d="m0 0h18.381v-16.686s-1.385 0.156-9.622 4.312c-8.238 4.156-8.759 5.159-8.759 5.159z" fill="#fff"/><path d="m0 0h18.381v-16.686s-1.385 0.156-9.622 4.312c-8.238 4.156-8.759 5.159-8.759 5.159z" fill="none" stroke="#000" stroke-width=".398"/></g><g transform="translate(167.85 312.71)"><path d="m0 0v7.773" fill="none" stroke="#000" stroke-width="2"/></g><g transform="translate(165.35 313.44)"><path d="M 0,0 2.493,-4.317 4.986,0 Z"/></g><g transform="translate(177.28 346.21)"><path d="m0 0v-18.881h-47.23l-8.744 18.881z" fill="#fff"/><path d="m0 0v-18.881h-47.23l-8.744 18.881z" fill="none" stroke="#000"/></g><path d="m158.4 327.33h-24.266v18.881h24.266z" fill="#fff"/><g transform="translate(158.4 327.33)"><path d="m0 0h-24.266v18.881h24.266z" fill="none" stroke="#000" stroke-width=".991"/></g><g transform="translate(136.77 345.96)"><path d="m0 0v-18.381h-7.213s-2.122 3.085-4.834 8.913c-2.711 5.828-3.659 9.468-3.659 9.468z" fill="#fff"/><path d="m0 0v-18.381h-7.213s-2.122 3.085-4.834 8.913c-2.711 5.828-3.659 9.468-3.659 9.468z" fill="none" stroke="#000" stroke-width=".398"/></g><g transform="translate(143.78 336.76)"><path d="m0 0h7.773" fill="none" stroke="#000" stroke-width="2"/></g><g transform="translate(144.51 339.26)"><path d="m0 0-4.318-2.493 4.318-2.493z"/></g></g><text transform="matrix(1 0 0 -1 71.13 455.05)" fill="black" font-family="Helvetica" font-size="9.5px" font-weight="bold"><tspan x="0 6.8590002 9.5 14.782 17.423 23.759501 29.0415 32.737 38.5415 43.823502 49.627998 55.432499 58.073502 63.355499 69.160004 71.801003 77.083 80.778503 83.419502 88.7015 94.505997 98.2015 104.006 106.647 110.3425 115.6245 124.07 129.8745 135.15649 137.7975 145.18851 147.8295 150.993 156.7975 159.43851 164.7205 170.52499 175.80701 179.5025 184.7845 190.589 193.23 195.871 201.153 206.9575 212.76199 215.403 221.2075 227.01199 229.653 234.935 238.63049 243.91251" y="0">C – Perpendicular curb ramps with shared landing area</tspan></text><g clip-path="url(#ai)"><g transform="translate(115.3 695.64)"><path d="m0 0v-64.572c0-57.897 47.102-105 105-105h60.832v-39.643h-209.17v209.22z" fill="#b1b4b6"/></g><g fill="#fff"><path d="m148.87 557.57h-3.566v-74.363h3.566z"/><path d="m178.37 543.39h-3.566v-65.364h3.566z"/><path d="m145.3 557.57h-74.363v3.566h74.363z"/><path d="m133.47 586.92h-63.765v3.566h63.765z"/></g><g transform="translate(155.61 695.64)"><path d="m0 0-4e-3 -77.939 48.879-48.879h76.645v-42.813h-60.832c-57.898 0-105 47.104-105 105v64.631z" fill="none" stroke="#000"/></g><path d="m66.018 694.22h96.297v3.127h-96.297z" fill="#fff"/><path d="m279.57 482.54h3.127v88.85h-3.127z" fill="#fff"/></g><text transform="matrix(1 0 0 -1 72.133 709.61)" fill="black" font-family="Helvetica" font-size="9.5px" font-weight="bold"><tspan x="0 6.5131998 9.1541996 14.4362 17.0012 23.3377 28.619699 32.315201 38.119701 43.401699 49.2062 55.0107 57.651699 62.933701 68.738197 71.379204 76.661201 80.356697 82.997704 88.279701 94.084198 97.779701 103.5842 106.2252 109.9207 115.2027 123.6482 129.4527 134.7347 137.3757 144.76669 147.4077 150.5712" y="0">A – Perpendicular curb ramps with</tspan><tspan x="16.995501 22.2775 25.973 31.7775 37.059502 42.341499 49.732498 55.0145 57.655499 62.9375 68.219498 70.860497 76.142502 78.783501 84.587997 89.870003 95.152 97.792999 100.9565 106.761 112.5655 117.8475 121.011 126.8155 132.0975" y="10.0035">crosswalks close together</tspan></text><g clip-path="url(#ah)"><g transform="translate(367.2 436.29)"><path d="m0 0v-196.46h209.17v50.672h-101.61c-33.138 0-60 26.864-60 60v85.356z" fill="#b1b4b6"/></g><g fill="#fff"><path d="m498.23 238.52h-5.62v57.767h5.62z"/><path d="m458.68 238.52h-5.62v78.396h5.62z"/><path d="m364.21 366.67h57.769v5.62h-57.769z"/><path d="m364.21 327.54h83.583v5.62h-83.583z"/></g><path d="m577.22 290.5h-87.609v43.41h87.609z" fill="#75c594"/><g transform="translate(577.22 290.5)"><path d="m0 0h-87.609v43.41h87.609z" fill="none" stroke="#000"/></g><path d="m458.73 360.47h-43.971v75.858h43.971z" fill="#75c594"/><g transform="translate(458.73 360.47)"><path d="m0 0h-43.971v75.858h43.971z" fill="none" stroke="#000"/></g><g transform="translate(475.54 341.73)"><path d="m0 0h-60.054l-0.581 18.789h60.635z" fill="none" stroke="#000"/></g><g transform="translate(426.52 342.09)"><path d="m0 0h-11.178l-0.357 18.768h11.535z" fill="url(#i)"/><path d="m0 0h-11.178l-0.357 18.768h11.535z" fill="none" stroke="#000" stroke-miterlimit="1" stroke-width=".5"/></g><g transform="translate(489.61 352.2)"><path d="m0 0h-20.096v-60.695l20.096-1z" fill="none" stroke="#000"/></g><g transform="translate(469.83 290.88)"><path d="m0 0 19.776-0.379v11.508h-19.776z" fill="url(#h)"/><path d="m0 0 19.776-0.379v11.508h-19.776z" fill="none" stroke="#000" stroke-miterlimit="1" stroke-width=".5"/></g><g transform="translate(486.86 437.01)"><path d="m0 0v-74.985h89.513" fill="none" stroke="#000"/></g><g transform="translate(438.67 351.43)"><path d="m0 0h7.773" fill="none" stroke="#000" stroke-width="2"/></g><g transform="translate(439.4 353.93)"><path d="m0 0-4.317-2.494 4.317-2.492z"/></g><g transform="translate(479.23 313.79)"><path d="m0 0v7.773" fill="none" stroke="#000" stroke-width="2"/></g><g transform="translate(476.73 314.52)"><path d="M 0,0 2.493,-4.318 4.986,0 Z"/></g><g transform="translate(576.37 290.5)"><path d="m0 0h-101.61c-33.138 0-60 26.863-60 60v85.356" fill="none" stroke="#000"/></g><path d="m574.8 237.01h3.127v130.1h-3.127z" fill="#fff"/><path d="m364.87 434.87h132.08v3.127h-132.08z" fill="#fff"/></g><text transform="matrix(1 0 0 -1 367.1 455.05)" fill="black" font-family="Helvetica" font-size="9.5px" font-weight="bold"><tspan x="0 6.8590002 9.5 14.782 16.99835 23.33485 28.61685 32.312351 38.116852 43.398849 49.20335 55.007851 57.648849 62.930851 68.735352 71.37635 76.658348 80.353851 82.99485 88.276848 94.081352 97.776848 103.58135 106.22235 109.91785 115.19985 123.64535 129.44984 134.73186 137.37285 144.76385 147.40485 150.56834 156.37285" y="0">D – Perpendicular curb ramps with </tspan><tspan x="16.995501 22.2775 28.082001 33.886501 37.049999 39.691002 45.495499 51.299999 57.1045 62.909 68.191002 70.832001 76.113998 81.918503 85.613998 88.777496 94.059502 99.341499 104.6235 107.2645 113.069 118.351 121.5145 128.9055 134.1875 139.4695 145.274 147.91499 151.6105 156.8925 165.338 171.1425" y="10.0035">continuous surface between ramps</tspan></text><g clip-path="url(#ae)"><g transform="translate(504.34 352.92)"><path d="m0 0-19.516-19.516" fill="none" stroke="#000" stroke-width=".5"/></g><g transform="translate(501 352.92)"><path d="m0 0-19.516-19.516" fill="none" stroke="#000" stroke-width=".5"/></g><g transform="translate(497.67 352.92)"><path d="m0 0-19.516-19.516" fill="none" stroke="#000" stroke-width=".5"/></g><g transform="translate(494.33 352.92)"><path d="m0 0-19.515-19.516" fill="none" stroke="#000" stroke-width=".5"/></g><g transform="translate(490.99 352.92)"><path d="m0 0-19.515-19.516" fill="none" stroke="#000" stroke-width=".5"/></g><g transform="translate(487.66 352.92)"><path d="m0 0-19.516-19.516" fill="none" stroke="#000" stroke-width=".5"/></g><g transform="translate(484.32 352.92)"><path d="m0 0-19.516-19.516" fill="none" stroke="#000" stroke-width=".5"/></g><g transform="translate(480.98 352.92)"><path d="m0 0-19.516-19.516" fill="none" stroke="#000" stroke-width=".5"/></g><g transform="translate(477.65 352.92)"><path d="m0 0-19.516-19.516" fill="none" stroke="#000" stroke-width=".5"/></g><g transform="translate(454.79 333.4)"><path d="m0 0 19.516 19.516" fill="none" stroke="#000" stroke-width=".5"/></g></g><g clip-path="url(#ad)"><g transform="translate(191.85 346.93)"><path d="m0 0-19.516-19.516" fill="none" stroke="#000" stroke-width=".5"/></g><g transform="translate(188.52 346.93)"><path d="m0 0-19.516-19.516" fill="none" stroke="#000" stroke-width=".5"/></g><g transform="translate(185.18 346.93)"><path d="m0 0-19.516-19.516" fill="none" stroke="#000" stroke-width=".5"/></g><g transform="translate(181.84 346.93)"><path d="m0 0-19.515-19.516" fill="none" stroke="#000" stroke-width=".5"/></g><g transform="translate(178.51 346.93)"><path d="m0 0-19.515-19.516" fill="none" stroke="#000" stroke-width=".5"/></g><g transform="translate(175.17 346.93)"><path d="m0 0-19.516-19.516" fill="none" stroke="#000" stroke-width=".5"/></g><g transform="translate(171.83 346.93)"><path d="m0 0-19.516-19.516" fill="none" stroke="#000" stroke-width=".5"/></g><g transform="translate(168.5 346.93)"><path d="m0 0-19.516-19.516" fill="none" stroke="#000" stroke-width=".5"/></g><g transform="translate(165.16 346.93)"><path d="m0 0-19.516-19.516" fill="none" stroke="#000" stroke-width=".5"/></g><g transform="translate(142.31 327.41)"><path d="m0 0 19.516 19.516" fill="none" stroke="#000" stroke-width=".5"/></g></g><g clip-path="url(#ac)"><g transform="translate(492.2 360.54)"><path d="m0 0-19.516-19.516" fill="none" stroke="#000" stroke-width=".5"/></g><g transform="translate(488.86 360.54)"><path d="m0 0-19.516-19.516" fill="none" stroke="#000" stroke-width=".5"/></g><g transform="translate(485.53 360.54)"><path d="m0 0-19.516-19.516" fill="none" stroke="#000" stroke-width=".5"/></g><g transform="translate(482.19 360.54)"><path d="m0 0-19.515-19.516" fill="none" stroke="#000" stroke-width=".5"/></g><g transform="translate(478.85 360.54)"><path d="m0 0-19.515-19.516" fill="none" stroke="#000" stroke-width=".5"/></g><g transform="translate(475.52 360.54)"><path d="m0 0-19.516-19.516" fill="none" stroke="#000" stroke-width=".5"/></g><g transform="translate(472.18 360.54)"><path d="m0 0-19.516-19.516" fill="none" stroke="#000" stroke-width=".5"/></g><g transform="translate(468.84 360.54)"><path d="m0 0-19.516-19.516" fill="none" stroke="#000" stroke-width=".5"/></g><g transform="translate(465.51 360.54)"><path d="m0 0-19.516-19.516" fill="none" stroke="#000" stroke-width=".5"/></g><g transform="translate(442.65 341.02)"><path d="m0 0 19.516 19.516" fill="none" stroke="#000" stroke-width=".5"/></g></g><path d="m130.05 346.21h6.713v-18.881h-6.713z" fill="url(#g)"/><g transform="translate(130.05 346.21)"><path d="m0 0h6.713v-18.881h-6.713z" fill="none" stroke="#000" stroke-miterlimit="1" stroke-width=".5"/></g><g transform="translate(158.65 297.56)"><path d="m0 0v7.215h18.381v-7.208z" fill="url(#f)"/><path d="m0 0v7.215h18.381v-7.208z" fill="none" stroke="#000" stroke-miterlimit="1" stroke-width=".5"/></g><text transform="matrix(1 0 0 -1 135.57 221.29)" fill="black" font-family="Helvetica" font-size="8px"><tspan x="0 5.776 10.224 12.448 16.896 20.896" y="0">Notes:</tspan><tspan x="0 5.7119999 10.16 12.384 18 22.888 27.336 29.112 33.112 35.335999 37.560001 39.335999 43.784 48.231998 50.896 55.344002 57.568001 59.344002 63.344002 65.568001 70.015999 74.463997 76.688004 78.912003 83.360001 86.024002 90.472 96.248001 100.696 102.92 105.144 109.592 111.816 115.816 119.816 124.264 126.04 130.48801" y="11.496"> 1. This figure is not drawn to scale.</tspan><tspan x="0 5.7119999 10.16 12.384 18 22.888 27.336 31.784 35.784 40.231998 42.456001 46.903999 49.568001 54.015999 59.792 61.568001 66.015999 70.463997 74.463997 76.688004 81.136002 83.800003 88.248001 90.472 92.248001 96.695999 98.919998 103.368 107.816 112.264 116.712 121.16 123.384 125.608 130.056 132.28 136.728 141.17599 145.17599 149.17599 151.84 153.616 158.064 162.51199 164.73599 166.96001 171.408 175.856 178.08 180.304 184.304 188.752 190.528 194.528 198.976 200.752 202.976 204.752 209.2 213.2 217.64799 219.87199 221.64799 226.09599 230.54401 234.54401 236.76801 238.992 243.44 246.104 248.328 252.776 257.2496 261.6976 266.1456 270.1456 272.3696 275.0336 276.8096 281.2576 285.7056 287.9296 292.37759 296.82559 300.82559 305.27359 307.49759 311.94559 316.39359 318.61761 320.84161 325.28961 329.73761 331.96161 333.73761 338.18561 342.18561 344.40961 348.8576 350.63361 352.40961 356.8576 359.0816 360.8576 365.3056 369.7536 373.7536 375.9776" y="22.992001"> 2. These drawings are intended to describe the typical locations for pedestrian push button installations. </tspan><tspan x="18 22.888 27.336 31.784 35.784 38.007999 42.456001 45.119999 49.568001 51.792 56.240002 60.688 62.911999 65.136002 66.912003 71.360001 73.584 78.031998 82.480003 86.928001 91.375999 95.823997 98.047997 100.272 104.72 106.944 111.392 115.84 118.064 122.512 124.736 129.18401 133.632 135.408 139.856 144.304 146.528 148.752 153.2 155.864 158.088 160.312 164.75999 169.20799 171.43201 175.88 180.328 184.328 186.104 190.552 195 197.224 201.672 203.896 206.12 210.12 214.56799 217.23199 221.67999 223.90401 226.56799 231.01601 237.67999 242.12801 246.12801" y="31.488001">They are not intended to be a guide for the design of curb ramps.</tspan></text><g transform="translate(256.7 425.11)"><path d="m0 0h29.29" fill="none" stroke="#000" stroke-width=".75"/></g><text transform="matrix(1 0 0 -1 256.23 428.06)" fill="black" font-family="Helvetica" font-size="9px"><tspan x="0 5.0040002 10.008 15.012 20.016001 25.02" y="0">Legend</tspan><tspan x="-7.3260002 -0.82800001 4.1760001 10.674 15.678 22.176001 27.18 30.177 35.181 37.682999 42.182999 44.181 49.185001 54.188999" y="15.354">Downward slope</tspan><tspan x="-7.3260002 -1.323 3.681 8.6850004 13.689 18.188999 20.691 23.688 25.686001 30.690001 35.694 38.195999 43.200001 48.203999 52.703999 57.708 60.209999 65.213997 70.218002 72.720001 75.222 80.225998" y="28.35">Pedestrian push button</tspan><tspan x="-7.3260002 -0.82800001 4.1760001 6.678 11.682 16.181999 18.684 23.688 28.691999 30.690001 35.694 38.195999 44.694 49.698002 52.695 57.699001 59.696999 64.700996 69.705002" y="41.346001">Detectable warning </tspan><tspan x="-7.3260002 -2.322 2.6819999 7.6859999 12.69 14.688 19.691999 24.695999 27.198 32.202 35.199001 40.202999" y="54.341999">Landing area</tspan></text><g clip-path="url(#z)"><g transform="translate(246.54 402.75)"><path d="m0 0c0-2.295-1.859-4.156-4.156-4.156-2.295 0-4.157 1.861-4.157 4.156 0 2.294 1.862 4.156 4.157 4.156 2.297 0 4.156-1.862 4.156-4.156"/></g><path d="m239.76 403.82h-3.063v-2.145h3.063z"/><g transform="translate(243.1 415.94)"><path d="m0 0h-7.773" fill="none" stroke="#000" stroke-width="2"/></g><g transform="translate(242.37 413.44)"><path d="M 0,0 4.318,2.493 0,4.986 Z"/></g><path d="m246.96 386.55h-10.921v6.328h10.921z" fill="url(#e)"/><g transform="translate(246.96 386.55)"><path d="m0 0h-10.921v6.328h10.921z" fill="none" stroke="#000" stroke-miterlimit="1" stroke-width=".5"/></g></g><g clip-path="url(#x)"><g transform="translate(263.21 384.71)"><path d="m0 0-19.516-19.516" fill="none" stroke="#000" stroke-width=".5"/></g><g transform="translate(259.87 384.71)"><path d="m0 0-19.516-19.516" fill="none" stroke="#000" stroke-width=".5"/></g><g transform="translate(256.54 384.71)"><path d="m0 0-19.516-19.516" fill="none" stroke="#000" stroke-width=".5"/></g><g transform="translate(253.2 384.71)"><path d="m0 0-19.515-19.516" fill="none" stroke="#000" stroke-width=".5"/></g><g transform="translate(249.86 384.71)"><path d="m0 0-19.516-19.516" fill="none" stroke="#000" stroke-width=".5"/></g><g transform="translate(246.52 384.71)"><path d="m0 0-19.516-19.516" fill="none" stroke="#000" stroke-width=".5"/></g><g transform="translate(243.19 384.71)"><path d="m0 0-19.516-19.516" fill="none" stroke="#000" stroke-width=".5"/></g><g transform="translate(239.85 384.71)"><path d="m0 0-19.516-19.516" fill="none" stroke="#000" stroke-width=".5"/></g><g transform="translate(236.51 384.71)"><path d="m0 0-19.516-19.516" fill="none" stroke="#000" stroke-width=".5"/></g></g><g transform="translate(246.96 373.36)"><path d="m0 0h-10.921v6.328h10.921z" fill="none" stroke="#000" stroke-width=".5"/></g><g clip-path="url(#w)"><g transform="translate(407.16 704.17)"><path d="m0 0v-58.457c0-61.743 50.232-111.98 111.98-111.98h58.811v-38.674l-209.34-0.109v209.22z" fill="#b1b4b6"/></g><g fill="#fff"><path d="m414.07 632.18h-57.768v-5.625h57.768z"/><path d="m414.07 671.54h-57.768v-5.625h57.768z"/><path d="m549.06 541.82h-5.529v-57.769h5.529z"/><path d="m510.82 541.82h-5.529v-57.769h5.529z"/></g><g transform="translate(407.16 704.17)"><path d="m0 0v-58.457c0-61.743 50.232-111.98 111.98-111.98h58.811v28.1h-58.811c-46.249 0-83.875 37.625-83.875 83.876v58.457z" fill="#fff"/><path d="m0 0v-58.457c0-61.743 50.232-111.98 111.98-111.98h58.811v28.1h-58.811c-46.249 0-83.875 37.625-83.875 83.876v58.457z" fill="none" stroke="#000"/></g><g transform="translate(424.84 664.28)"><path d="m0 0v7.773" fill="none" stroke="#000" stroke-width="2"/></g><g transform="translate(422.34 665.01)"><path d="M 0,0 2.493,-4.318 4.986,0 Z"/></g><g transform="translate(424.83 634.14)"><path d="m0 0v-7.773" fill="none" stroke="#000" stroke-width="2"/></g><g transform="translate(427.33 633.41)"><path d="m0 0-2.493 4.318-2.493-4.318z"/></g><g transform="translate(407.19 688.12)"><path d="m0 0h28.069" fill="none" stroke="#000"/></g><g transform="translate(416.71 601.21)"><path d="m0 0 25.292 11.006" fill="none" stroke="#000"/></g><g transform="translate(407.19 658.89)"><path d="m0 0h28.069" fill="none" stroke="#000"/></g><g transform="translate(407.19 640.1)"><path d="m0 0h28.467" fill="none" stroke="#000"/></g><path d="m415.32 640.1h-8.135v18.792h8.135z" fill="url(#d)"/><g transform="translate(415.32 640.1)"><path d="m0 0h-8.135v18.792h8.135z" fill="none" stroke="#000" stroke-width=".5"/></g><g transform="translate(491.11 566.5)"><path d="m0 0-11.746-25.08" fill="none" stroke="#000"/></g><g transform="translate(518.1 561.84)"><path d="m0 0v-28.124" fill="none" stroke="#000"/></g><g transform="translate(536.66 561.84)"><path d="m0 0v-28.124" fill="none" stroke="#000"/></g><path d="m536.66 533.71h-18.563v6.992h18.563z" fill="url(#c)"/><g transform="translate(536.66 533.71)"><path d="m0 0h-18.563v6.992h18.563z" fill="none" stroke="#000" stroke-width=".5"/></g><g transform="translate(566.57 561.84)"><path d="m0 0v-28.124" fill="none" stroke="#000"/></g><path d="m576.38 494.22h3.127v88.624h-3.127z" fill="#fff"/><path d="m357.38 702.61h88.625v3.126h-88.625z" fill="#fff"/><g transform="translate(512.09 550.22)"><path d="m0 0h-7.773" fill="none" stroke="#000" stroke-width="2"/></g><g transform="translate(511.36 547.71)"><path d="M 0,0 4.317,2.493 0,4.986 Z"/></g><g transform="translate(542.23 550.2)"><path d="m0 0h7.773" fill="none" stroke="#000" stroke-width="2"/></g><g transform="translate(542.96 552.7)"><path d="m0 0-4.317-2.493 4.317-2.493z"/></g></g><text transform="matrix(1 0 0 -1 367.76 708.59)" fill="black" font-family="Helvetica" font-size="9.5px" font-weight="bold"><tspan x="0 6.8590002 9.5 14.782 17.423 23.759501 29.0415 32.737 38.019001 40.66 43.300999 48.583 51.223999 53.865002 59.146999 64.9515 68.647003 74.4515 77.092499 80.788002 86.07 94.515503 100.32" y="0">B – Parallel curb ramps</tspan></text><g clip-path="url(#t)"><g transform="translate(163.35 354.79)"><path d="m0 0c-1.607 0-2.909-1.302-2.909-2.909s1.302-2.91 2.909-2.91c1.606 0 2.909 1.303 2.909 2.91s-1.303 2.909-2.909 2.909"/></g><path d="m164.42 347.44h-2.145v3.063h2.145z"/><g transform="translate(186.04 330.78)"><path d="m0 0c0-1.607-1.302-2.909-2.909-2.909s-2.91 1.302-2.91 2.909c0 1.606 1.303 2.909 2.91 2.909s2.909-1.303 2.909-2.909"/></g><path d="m181.75 331.86h-3.063v-2.145h3.063z"/><g transform="translate(438.29 302.85)"><path d="m0 0 31.049 31.049 0.986-4e-3h19.443" fill="none" stroke="#000"/></g><g transform="translate(428.99 311.71)"><path d="m0 0 29.741 29.741v18.916" fill="none" stroke="#000"/></g><g transform="translate(144.04 582.33)"><path d="m0 0 6.606 4.092" fill="none" stroke="#000" stroke-width="2"/></g><g transform="translate(143.34 584.84)"><path d="m0 0-2.358-4.393 4.984 0.154z"/></g></g><g clip-path="url(#s)"><g transform="translate(185.96 604.75)"><path d="m0 0-17.446-21.386" fill="none" stroke="#000" stroke-width=".5"/></g><g transform="translate(182.64 604.42)"><path d="m0 0-17.446-21.386" fill="none" stroke="#000" stroke-width=".5"/></g><g transform="translate(179.32 604.08)"><path d="m0 0-17.446-21.386" fill="none" stroke="#000" stroke-width=".5"/></g><g transform="translate(176 603.74)"><path d="m0 0-17.446-21.386" fill="none" stroke="#000" stroke-width=".5"/></g><g transform="translate(172.68 603.41)"><path d="m0 0-17.446-21.387" fill="none" stroke="#000" stroke-width=".5"/></g><g transform="translate(169.36 603.07)"><path d="m0 0-17.446-21.387" fill="none" stroke="#000" stroke-width=".5"/></g><g transform="translate(166.04 602.73)"><path d="m0 0-17.446-21.387" fill="none" stroke="#000" stroke-width=".5"/></g><g transform="translate(162.72 602.4)"><path d="m0 0-17.446-21.387" fill="none" stroke="#000" stroke-width=".5"/></g><g transform="translate(159.4 602.06)"><path d="m0 0-17.446-21.387" fill="none" stroke="#000" stroke-width=".5"/></g><g transform="translate(138.63 580.34)"><path d="m0 0 17.446 21.388" fill="none" stroke="#000" stroke-width=".5"/></g></g><g transform="translate(145.3 557.57)"><path d="m0 0 13.351 25.535" fill="none" stroke="#000" stroke-miterlimit="1"/></g><g transform="translate(122.1 593.88)"><path d="m0 0 29.035 0.606" fill="none" stroke="#000" stroke-miterlimit="1"/></g><g transform="translate(158.65 583.11)"><path d="m0 0-7.519 11.381" fill="none" stroke="#000" stroke-miterlimit="1"/></g><g transform="translate(128.59 579.98)"><path d="m0 0 34.141 21.768 7.518-11.381-11.592-7.259" fill="none" stroke="#000"/></g><g transform="translate(158.33 582.92)"><path d="m0 0-22.445-14.237" fill="none" stroke="#000"/></g><text transform="matrix(1 0 0 -1 169.37 624.56)" fill="black" font-family="Helvetica" font-size="9px"><tspan x="0 5.0040002 7.506 10.008" y="0">4 ft</tspan><tspan x="-6.993 -1.989 5.5079999 8.0100002 14.508" y="9.5039997"> MIN.</tspan><tspan x="29.195999 31.698 36.702 39.203999 41.706001" y="36.882"> 4 ft</tspan><tspan x="24.705 29.709 37.206001 39.708 46.206001" y="46.386002"> MIN.</tspan><tspan x="27.108 29.610001 34.613998 37.116001 39.618" y="250.866"> 4 ft</tspan><tspan x="22.617001 27.621 35.118 37.619999 44.118" y="260.37"> MIN.</tspan></text><g transform="translate(128.27 579.84)"><path d="m0 0 7.326-11.343 6.619 4.177-7.546 11.173z" fill="url(#b)"/><path d="m0 0 7.326-11.343 6.619 4.177-7.546 11.173z" fill="none" stroke="#000" stroke-miterlimit="1" stroke-width=".5"/></g><g transform="translate(170.03 555.81)"><path d="m0 0 4.406 6.401" fill="none" stroke="#000" stroke-width="2"/></g><g transform="translate(168.38 557.82)"><path d="m0 0-0.395-4.97 4.502 2.143z"/></g><g clip-path="url(#q)"><g transform="translate(196.51 591.53)"><path d="m0 0-7.388-26.592" fill="none" stroke="#000" stroke-width=".5"/></g><g transform="translate(193.61 589.89)"><path d="m0 0-7.388-26.592" fill="none" stroke="#000" stroke-width=".5"/></g><g transform="translate(190.7 588.25)"><path d="m0 0-7.387-26.592" fill="none" stroke="#000" stroke-width=".5"/></g><g transform="translate(187.8 586.61)"><path d="m0 0-7.387-26.593" fill="none" stroke="#000" stroke-width=".5"/></g><g transform="translate(184.89 584.97)"><path d="m0 0-7.387-26.593" fill="none" stroke="#000" stroke-width=".5"/></g><g transform="translate(181.99 583.33)"><path d="m0 0-7.387-26.593" fill="none" stroke="#000" stroke-width=".5"/></g><g transform="translate(179.08 581.68)"><path d="m0 0-7.387-26.593" fill="none" stroke="#000" stroke-width=".5"/></g><g transform="translate(176.18 580.04)"><path d="m0 0-7.387-26.593" fill="none" stroke="#000" stroke-width=".5"/></g><g transform="translate(165.89 551.81)"><path d="m0 0 7.387 26.593" fill="none" stroke="#000" stroke-width=".5"/></g></g><g transform="translate(181.13 533.64)"><path d="m0 0 1.971 28.747" fill="none" stroke="#000" stroke-miterlimit="1"/></g><g transform="translate(145.3 557.57)"><path d="m0 0 26.347 12.216" fill="none" stroke="#000" stroke-miterlimit="1"/></g><g transform="translate(183.11 562.39)"><path d="m0 0-11.457 7.403" fill="none" stroke="#000" stroke-miterlimit="1"/></g><g transform="translate(156.83 547.45)"><path d="m0 0 22.524 33.647 11.456-7.403-7.701-11.303" fill="none" stroke="#000"/></g><g transform="translate(182.89 562.09)"><path d="m0 0-14.837-22.053" fill="none" stroke="#000"/></g><g transform="translate(156.6 547.2)"><path d="m0 0 11.265-7.446 4.384 6.484-11.398 7.202z" fill="url(#a)"/><path d="m0 0 11.265-7.446 4.384 6.484-11.398 7.202z" fill="none" stroke="#000" stroke-miterlimit="1" stroke-width=".5"/></g><g clip-path="url(#o)"><g transform="translate(166.17 618.64)"><path d="m0 0c-7.155 0-14.641-5.184-8.996-10.732" fill="none" stroke="#010101" stroke-miterlimit="10"/></g></g><g transform="translate(155.55 606.13)"><path d="m0 0 3.247 3.546" fill="none" stroke="#010101" stroke-miterlimit="10"/></g><g clip-path="url(#n)"><g transform="translate(154.86 604.84)"><path d="m0 0c0.52 0.309 0.893 0.478 1.344 0.694l-1.303 1.192c-0.054-0.175-0.311-0.854-0.573-1.399-0.28-0.583-0.565-1.084-0.777-1.383 0.279 0.238 0.753 0.566 1.309 0.896" fill="#010101"/></g><g transform="translate(160.03 610.48)"><path d="m0 0c-0.262-0.545-0.397-0.931-0.573-1.399l-1.303 1.192c0.171 0.069 0.824 0.385 1.344 0.694 0.556 0.331 1.03 0.658 1.309 0.896-0.212-0.299-0.497-0.8-0.777-1.383" fill="#010101"/></g><g transform="translate(179.22 360.84)"><path d="m0 0-10.851-5.868" fill="none" stroke="#010101" stroke-miterlimit="10"/></g><g transform="translate(180.29 361.83)"><path d="m0 0c-0.592-0.121-1-0.159-1.497-0.216l0.84-1.553c0.109 0.148 0.574 0.706 1 1.134 0.456 0.459 0.889 0.839 1.187 1.053-0.341-0.133-0.897-0.288-1.53-0.418" fill="#010101"/></g><g transform="translate(166.94 354.62)"><path d="m0 0c0.426 0.429 0.68 0.75 1 1.134l0.84-1.553c-0.184-9e-3 -0.905-0.094-1.497-0.216-0.633-0.13-1.189-0.284-1.53-0.417 0.298 0.213 0.731 0.593 1.187 1.052" fill="#010101"/></g><g transform="translate(193.05 346.1)"><path d="m0 0-6.935-10.161" fill="none" stroke="#010101" stroke-miterlimit="10"/></g><g transform="translate(193.56 347.47)"><path d="m0 0c-0.471-0.379-0.816-0.6-1.231-0.878l1.458-0.995c0.028 0.181 0.187 0.89 0.369 1.466 0.194 0.617 0.405 1.153 0.573 1.48-0.243-0.275-0.666-0.667-1.169-1.073" fill="#010101"/></g><g transform="translate(185.02 334.97)"><path d="m0 0c0.182 0.577 0.261 0.978 0.369 1.467l1.458-0.996c-0.159-0.092-0.761-0.498-1.231-0.878-0.504-0.406-0.926-0.797-1.169-1.072 0.167 0.326 0.378 0.862 0.573 1.479" fill="#010101"/></g><g transform="translate(207.87 576.94)"><path d="m0 0c0-7.155-4.763-15.603-11.627-8.313" fill="none" stroke="#010101" stroke-miterlimit="10"/></g><g transform="translate(205.35 362.69)" fill="none" stroke="#010101" stroke-miterlimit="10"><path d="m0 0c-8.043-8.043-27.106-12.993-31.564-4.786"/><path d="m0 0c0-12.537-6.42-25.604-15.769-21.677"/></g><g transform="translate(463.81 369.15)"><path d="m0 0c-1.607 0-2.909-1.302-2.909-2.909s1.302-2.91 2.909-2.91c1.606 0 2.909 1.303 2.909 2.91s-1.303 2.909-2.909 2.909"/></g><path d="m464.88 361.8h-2.145v3.063h2.145z"/></g><text transform="matrix(1 0 0 -1 511.76 378.79)" fill="black" font-family="Helvetica" font-size="9px"><tspan x="0 5.0040002 7.506 10.008" y="0">4 ft</tspan><tspan x="-6.993 -1.989 5.5079999 8.0100002 14.508" y="9.5039997"> MIN.</tspan></text><g transform="translate(483.38 366.24)"><path d="m0 0h-13.694" fill="none" stroke="#010101" stroke-miterlimit="10"/></g><g clip-path="url(#m)"><g transform="translate(484.8 366.6)"><path d="m0 0c-0.579 0.175-0.955 0.336-1.419 0.522v-1.765c0.166 0.078 0.84 0.347 1.419 0.522 0.619 0.187 1.181 0.315 1.545 0.36-0.364 0.046-0.926 0.174-1.545 0.361" fill="#010101"/></g><g transform="translate(468.27 366.6)"><path d="m0 0c0.579 0.175 0.955 0.336 1.419 0.522v-1.765c-0.166 0.078-0.84 0.347-1.419 0.522-0.619 0.187-1.181 0.315-1.545 0.36 0.364 0.046 0.926 0.174 1.545 0.361" fill="#010101"/></g><g transform="translate(498.36 338.98)"><path d="m0 0c0-1.607-1.302-2.909-2.909-2.909s-2.91 1.302-2.91 2.909c0 1.606 1.303 2.909 2.91 2.909s2.909-1.303 2.909-2.909"/></g><path d="m494.07 340.06h-3.063v-2.145h3.063z"/><g transform="translate(495.45 358.55)"><path d="m0 0v-13.694" fill="none" stroke="#010101" stroke-miterlimit="10"/></g><g transform="translate(495.09 359.97)"><path d="m0 0c-0.175-0.579-0.336-0.955-0.522-1.419h1.765c-0.078 0.166-0.347 0.84-0.522 1.419-0.187 0.619-0.315 1.181-0.36 1.545-0.046-0.364-0.174-0.926-0.361-1.545" fill="#010101"/></g><g transform="translate(495.09 343.44)"><path d="m0 0c-0.175 0.579-0.336 0.955-0.522 1.419h1.765c-0.078-0.166-0.347-0.84-0.522-1.419-0.187-0.619-0.315-1.181-0.36-1.545-0.046 0.364-0.174 0.926-0.361 1.545" fill="#010101"/></g><g transform="translate(508.65 371.64)" fill="none" stroke="#010101" stroke-miterlimit="10"><path d="m0 0c-7.174-7.174-32.116 4.025-32.116-5.403"/><path d="m0 0c-7.174-7.174-3.772-19.937-13.201-19.937"/></g><g transform="translate(313.76 601.93)"><path d="m0 0v78.92l-3.111-21.215 0.282-3.677 2.263 1.98" stroke="#000"/></g><g transform="translate(316.86 649.48)"><path d="m0 0h2.665v-22.176h-3.09l-10.348 17.914h-0.056v-17.914h-2.665v22.176h3.259l10.177-17.913h0.058z"/></g><g transform="translate(151.87 604.51)"><path d="m0 0c1.606 0 2.909-1.302 2.909-2.909s-1.303-2.91-2.909-2.91-2.909 1.303-2.909 2.91 1.303 2.909 2.909 2.909"/></g><path d="m150.79 597.16h2.145v3.063h-2.145z"/><g transform="translate(193.14 562.79)"><path d="m0 0c0-1.607-1.302-2.909-2.909-2.909s-2.91 1.302-2.91 2.909c0 1.606 1.303 2.909 2.91 2.909s2.909-1.303 2.909-2.909"/></g><path d="m188.85 563.87h-3.063v-2.145h3.063z"/><g transform="translate(194.46 566.89)"><path d="m0 0 3.566 3.473" fill="none" stroke="#010101" stroke-miterlimit="10"/></g><g transform="translate(193.7 565.64)"><path d="m0 0c0.537 0.278 0.919 0.426 1.381 0.616l-1.232 1.265c-0.064-0.172-0.359-0.835-0.652-1.364-0.313-0.566-0.626-1.05-0.855-1.337 0.292 0.222 0.784 0.522 1.358 0.82" fill="#010101"/></g><g transform="translate(199.29 571.1)"><path d="m0 0c-0.292-0.529-0.45-0.907-0.652-1.364l-1.232 1.265c0.174 0.059 0.844 0.337 1.381 0.616 0.574 0.298 1.066 0.598 1.358 0.819-0.229-0.286-0.542-0.77-0.855-1.336" fill="#010101"/></g></g><text transform="matrix(1 0 0 -1 517.69 589.15)" fill="black" font-family="Helvetica" font-size="9px"><tspan x="0 5.0040002 7.506 10.008" y="0">4 ft</tspan><tspan x="-6.993 -1.989 5.5079999 8.0100002 14.508" y="9.5039997"> MIN.</tspan></text><g clip-path="url(#l)"><g transform="translate(449.84 661.75)"><path d="m0 0-17.446-21.386" fill="none" stroke="#000" stroke-width=".5"/></g><g transform="translate(446.46 661.41)"><path d="m0 0-17.446-21.386" fill="none" stroke="#000" stroke-width=".5"/></g><g transform="translate(443.07 661.07)"><path d="m0 0-17.446-21.386" fill="none" stroke="#000" stroke-width=".5"/></g><g transform="translate(439.69 660.74)"><path d="m0 0-17.446-21.386" fill="none" stroke="#000" stroke-width=".5"/></g><g transform="translate(436.31 660.4)"><path d="m0 0-17.446-21.387" fill="none" stroke="#000" stroke-width=".5"/></g><g transform="translate(432.92 660.06)"><path d="m0 0-17.446-21.387" fill="none" stroke="#000" stroke-width=".5"/></g><g transform="translate(429.54 659.73)"><path d="m0 0-17.446-21.387" fill="none" stroke="#000" stroke-width=".5"/></g><g transform="translate(426.16 659.39)"><path d="m0 0-17.446-21.387" fill="none" stroke="#000" stroke-width=".5"/></g><g transform="translate(422.78 659.05)"><path d="m0 0-17.446-21.387" fill="none" stroke="#000" stroke-width=".5"/></g><g transform="translate(401.95 637.33)"><path d="m0 0 17.446 21.388" fill="none" stroke="#000" stroke-width=".5"/></g></g><g clip-path="url(#k)"><g transform="translate(553.45 560.05)"><path d="m0 0-17.446-21.386" fill="none" stroke="#000" stroke-width=".5"/></g><g transform="translate(549.98 560.5)"><path d="m0 0-17.446-21.386" fill="none" stroke="#000" stroke-width=".5"/></g><g transform="translate(546.51 560.95)"><path d="m0 0-17.446-21.386" fill="none" stroke="#000" stroke-width=".5"/></g><g transform="translate(543.04 561.41)"><path d="m0 0-17.446-21.386" fill="none" stroke="#000" stroke-width=".5"/></g><g transform="translate(539.57 561.86)"><path d="m0 0-17.446-21.387" fill="none" stroke="#000" stroke-width=".5"/></g><g transform="translate(536.1 562.32)"><path d="m0 0-17.446-21.387" fill="none" stroke="#000" stroke-width=".5"/></g><g transform="translate(532.63 562.77)"><path d="m0 0-17.446-21.387" fill="none" stroke="#000" stroke-width=".5"/></g><g transform="translate(529.17 563.22)"><path d="m0 0-17.446-21.387" fill="none" stroke="#000" stroke-width=".5"/></g><g transform="translate(525.7 563.68)"><path d="m0 0-17.446-21.387" fill="none" stroke="#000" stroke-width=".5"/></g><g transform="translate(504.78 542.74)"><path d="m0 0 17.446 21.388" fill="none" stroke="#000" stroke-width=".5"/></g></g><text transform="matrix(1 0 0 -1 454 650.62)" fill="black" font-family="Helvetica" font-size="9px"><tspan x="0 5.0040002 7.506 10.008" y="0">4 ft</tspan><tspan x="-6.993 -1.989 5.5079999 8.0100002 14.508" y="9.5039997"> MIN.</tspan></text><g transform="translate(432.27 656.5)"><path d="m0 0h-24.582" fill="none" stroke="#fff" stroke-miterlimit="10" stroke-width="1.75"/></g><g clip-path="url(#j)"><g transform="translate(427.7 655.17)"><path d="m0 0v2.648l0.172 0.117 0.266-0.108c0.591-0.239 1.102-0.445 1.852-0.672 0.883-0.267 1.742-0.467 2.297-0.537v-0.248c-0.555-0.069-1.414-0.27-2.297-0.536-0.859-0.26-1.869-0.662-2.111-0.777z" fill="#010101"/></g><g transform="translate(427.92 658.05)"><path d="m0 0-0.343-0.232v-2.648l0.357-0.226c0.239 0.113 1.24 0.512 2.094 0.769 0.877 0.265 1.728 0.464 2.276 0.533v0.496c-0.548 0.068-1.399 0.267-2.276 0.532-0.744 0.225-1.253 0.431-1.842 0.669zm-0.093-0.232c0.696-0.279 1.261-0.521 2.129-0.783 0.929-0.28 1.771-0.473 2.317-0.541-0.546-0.068-1.388-0.261-2.317-0.541-0.868-0.262-1.88-0.665-2.129-0.783z" fill="#fff"/></g><g transform="translate(412.08 655.06)"><path d="m0 0c-0.242 0.115-1.252 0.517-2.111 0.776-0.883 0.267-1.743 0.468-2.297 0.537v0.248c0.554 0.069 1.414 0.27 2.297 0.537 0.75 0.227 1.26 0.433 1.851 0.672l0.267 0.107 0.172-0.116v-2.648z" fill="#010101"/></g><g transform="translate(412.04 658.05)"><path d="m0 0-0.266-0.107c-0.589-0.238-1.098-0.444-1.842-0.669-0.877-0.265-1.728-0.464-2.276-0.532v-0.496c0.548-0.069 1.399-0.268 2.276-0.532 0.854-0.258 1.855-0.657 2.094-0.77l0.357 0.226v2.648zm0.093-0.232v-2.648c-0.249 0.118-1.261 0.521-2.129 0.783-0.929 0.28-1.771 0.473-2.317 0.541 0.546 0.068 1.388 0.261 2.317 0.541 0.868 0.262 1.433 0.504 2.129 0.783" fill="#fff"/></g><g transform="translate(428.5 656.5)"><path d="m0 0h-16.906" fill="none" stroke="#010101" stroke-miterlimit="10"/></g><g transform="translate(450.52 646.89)" fill="none" stroke-miterlimit="10"><path d="m0 0c-8.216 0-30.677-5.433-30.677 9.077" stroke="#fff" stroke-width="1.75"/><path d="m0 0c-8.216 0-30.677-5.433-30.677 9.077" stroke="#010101"/></g><g transform="translate(534.05 555.34)"><path d="m0 0v-17.174" fill="none" stroke="#fff" stroke-miterlimit="10" stroke-width="1.75"/></g><g transform="translate(533.51 556.56)"><path d="m0 0c-0.263-0.868-0.504-1.433-0.783-2.129h2.648c-0.118 0.249-0.521 1.261-0.783 2.129-0.28 0.929-0.473 1.771-0.541 2.317-0.068-0.546-0.261-1.388-0.541-2.317" fill="#010101"/></g><g transform="translate(533.51 536.61)"><path d="m0 0c-0.263 0.868-0.504 1.433-0.783 2.129h2.648c-0.118-0.249-0.521-1.261-0.783-2.129-0.28-0.929-0.473-1.771-0.541-2.317-0.068 0.546-0.261 1.388-0.541 2.317" fill="#010101"/></g><g transform="translate(532.55 554.3)"><path d="m0 0 0.176 0.438c0.239 0.592 0.445 1.103 0.672 1.852 0.266 0.883 0.467 1.742 0.537 2.297h0.248c0.069-0.555 0.27-1.414 0.537-2.297 0.259-0.859 0.661-1.87 0.776-2.111l0.084-0.179z" fill="#010101"/></g><g transform="translate(533.81 558.9)"><path d="m0 0c-0.069-0.548-0.268-1.399-0.532-2.276-0.226-0.745-0.431-1.254-0.669-1.843l-0.107-0.265-0.138-0.343h3.414l-0.17 0.357c-0.113 0.239-0.512 1.239-0.77 2.094-0.264 0.877-0.463 1.728-0.532 2.276zm0.248-0.031c0.068-0.546 0.261-1.389 0.541-2.317 0.262-0.869 0.665-1.88 0.783-2.129h-2.648c0.279 0.696 0.52 1.26 0.783 2.129 0.28 0.928 0.473 1.771 0.541 2.317" fill="#fff"/></g><g transform="translate(533.93 534.28)"><path d="m0 0c-0.069 0.555-0.271 1.414-0.537 2.297-0.227 0.749-0.433 1.26-0.672 1.852l-0.176 0.438h3.031l-0.084-0.179c-0.116-0.241-0.518-1.252-0.777-2.111-0.266-0.883-0.468-1.742-0.537-2.297z" fill="#010101"/></g><g transform="translate(535.77 538.99)"><path d="m0 0h-3.414l0.138-0.343 0.107-0.266c0.238-0.589 0.444-1.097 0.669-1.842 0.265-0.877 0.464-1.728 0.532-2.276h0.496c0.069 0.548 0.268 1.399 0.533 2.276 0.257 0.854 0.656 1.855 0.769 2.094zm-0.395-0.25c-0.119-0.249-0.522-1.261-0.784-2.129-0.28-0.929-0.472-1.771-0.541-2.317-0.068 0.546-0.26 1.388-0.541 2.317-0.262 0.868-0.504 1.433-0.783 2.129z" fill="#fff"/></g><g transform="translate(427.7 655.17)"><path d="m0 0v2.648l0.172 0.117 0.266-0.108c0.591-0.239 1.102-0.445 1.852-0.672 0.883-0.267 1.742-0.467 2.297-0.537v-0.248c-0.555-0.069-1.414-0.27-2.297-0.536-0.859-0.26-1.869-0.662-2.111-0.777z" fill="#010101"/></g><g transform="translate(427.92 658.05)"><path d="m0 0-0.343-0.232v-2.648l0.357-0.226c0.239 0.113 1.24 0.512 2.094 0.769 0.877 0.265 1.728 0.464 2.276 0.533v0.496c-0.548 0.068-1.399 0.267-2.276 0.532-0.744 0.225-1.253 0.431-1.842 0.669zm-0.093-0.232c0.696-0.279 1.261-0.521 2.129-0.783 0.929-0.28 1.771-0.473 2.317-0.541-0.546-0.068-1.388-0.261-2.317-0.541-0.868-0.262-1.88-0.665-2.129-0.783z" fill="#fff"/></g><g transform="translate(412.08 655.06)"><path d="m0 0c-0.242 0.115-1.252 0.517-2.111 0.776-0.883 0.267-1.743 0.468-2.297 0.537v0.248c0.554 0.069 1.414 0.27 2.297 0.537 0.75 0.227 1.26 0.433 1.851 0.672l0.267 0.107 0.172-0.116v-2.648z" fill="#010101"/></g><g transform="translate(412.04 658.05)"><path d="m0 0-0.266-0.107c-0.589-0.238-1.098-0.444-1.842-0.669-0.877-0.265-1.728-0.464-2.276-0.532v-0.496c0.548-0.069 1.399-0.268 2.276-0.532 0.854-0.258 1.855-0.657 2.094-0.77l0.357 0.226v2.648zm0.093-0.232v-2.648c-0.249 0.118-1.261 0.521-2.129 0.783-0.929 0.28-1.771 0.473-2.317 0.541 0.546 0.068 1.388 0.261 2.317 0.541 0.868 0.262 1.433 0.504 2.129 0.783" fill="#fff"/></g><g transform="translate(524.45 577.12)" fill="none" stroke-miterlimit="10"><path d="m0 0c0-8.216-4.986-30.677 9.524-30.677" stroke="#fff" stroke-width="1.75"/><path d="m0 0c0-8.216-4.986-30.677 9.524-30.677" stroke="#010101"/></g><g transform="translate(438.17 656.5)"><path d="m0 0c0 1.608-1.303 2.909-2.909 2.909-1.607 0-2.91-1.301-2.91-2.909 0-1.227 0.763-2.272 1.837-2.699v-1.742h2.145v1.742c1.075 0.427 1.837 1.472 1.837 2.699"/><path d="m0 0c0 1.608-1.303 2.909-2.909 2.909-1.607 0-2.91-1.301-2.91-2.909 0-1.227 0.763-2.272 1.837-2.699v-1.742h2.145v1.742c1.075 0.427 1.837 1.472 1.837 2.699z" fill="none" stroke="#fff" stroke-miterlimit="10" stroke-width=".75"/><path d="m0 0c0 1.608-1.303 2.909-2.909 2.909-1.607 0-2.91-1.301-2.91-2.909 0-1.227 0.763-2.272 1.837-2.699v-1.742h2.145v1.742c1.075 0.427 1.837 1.472 1.837 2.699"/></g><g transform="translate(534.05 564.77)"><path d="m0 0c1.608 0 2.909-1.303 2.909-2.909 0-1.607-1.301-2.91-2.909-2.91-1.227 0-2.272 0.763-2.699 1.837h-1.742v2.145h1.742c0.427 1.075 1.472 1.837 2.699 1.837"/><path d="m0 0c1.608 0 2.909-1.303 2.909-2.909 0-1.607-1.301-2.91-2.909-2.91-1.227 0-2.272 0.763-2.699 1.837h-1.742v2.145h1.742c0.427 1.075 1.472 1.837 2.699 1.837z" fill="none" stroke="#fff" stroke-miterlimit="10" stroke-width=".75"/><path d="m0 0c1.608 0 2.909-1.303 2.909-2.909 0-1.607-1.301-2.91-2.909-2.91-1.227 0-2.272 0.763-2.699 1.837h-1.742v2.145h1.742c0.427 1.075 1.472 1.837 2.699 1.837"/></g><g transform="translate(534.05 554.93)"><path d="m0 0v-16.765" fill="#fff" stroke="#000"/></g><g transform="translate(533.51 556.56)"><path d="m0 0c-0.263-0.868-0.504-1.433-0.783-2.129h2.648c-0.118 0.249-0.521 1.261-0.783 2.129-0.28 0.929-0.473 1.771-0.541 2.317-0.068-0.546-0.261-1.388-0.541-2.317" fill="#010101"/></g><g transform="translate(533.51 536.61)"><path d="m0 0c-0.263 0.868-0.504 1.433-0.783 2.129h2.648c-0.118-0.249-0.521-1.261-0.783-2.129-0.28-0.929-0.473-1.771-0.541-2.317-0.068 0.546-0.261 1.388-0.541 2.317" fill="#010101"/></g><g transform="translate(411.64 656.5)"><path d="m0 0h16.765" fill="#fff" stroke="#000"/></g><g transform="translate(410.01 655.96)"><path d="m0 0c0.868-0.263 1.433-0.504 2.129-0.783v2.648c-0.249-0.118-1.261-0.521-2.129-0.783-0.929-0.28-1.771-0.473-2.317-0.541 0.546-0.068 1.388-0.261 2.317-0.541" fill="#010101"/></g><g transform="translate(429.96 655.96)"><path d="m0 0c-0.868-0.263-1.433-0.504-2.129-0.783v2.648c0.249-0.118 1.261-0.521 2.129-0.783 0.929-0.28 1.771-0.473 2.317-0.541-0.546-0.068-1.388-0.261-2.317-0.541" fill="#010101"/></g></g></g></svg>
