<?xml version="1.0" encoding="UTF-8"?>
<svg width="704.21" height="601.76" version="1.1" viewBox="0 0 704.21 601.76" xml:space="preserve" xmlns="http://www.w3.org/2000/svg"><defs><clipPath id="h"><path d="m48.714 40h537.57v489.94h-537.57z"/></clipPath><clipPath id="g"><path d="m48.714 40h537.57v489.94h-537.57z"/></clipPath><clipPath id="f"><path d="m48.714 40h537.57v489.94h-537.57z"/></clipPath><clipPath id="e"><path d="m48.714 40h537.57v489.94h-537.57z"/></clipPath><clipPath id="d"><path d="m48.714 40h537.57v489.94h-537.57z"/></clipPath><clipPath id="c"><path d="m48.714 40h537.57v489.94h-537.57z"/></clipPath><clipPath id="b"><path d="m48.714 40h537.57v489.94h-537.57z"/></clipPath><clipPath id="a"><path d="m48.714 40h537.57v489.94h-537.57z"/></clipPath></defs><g transform="matrix(1.3333 0 0 -1.3333 -75.668 660.38)"><g clip-path="url(#h)"><g transform="translate(197.85 486.25)"><path d="m0 0c14.779 0 17.725-8.603 82.512-8.603" fill="none" stroke="#231f20" stroke-width=".75"/></g><g transform="translate(196.61 486.79)"><path d="m0 0c0.869 0.263 1.434 0.504 2.129 0.783v-2.648c-0.248 0.118-1.26 0.521-2.129 0.783-0.928 0.28-1.771 0.473-2.316 0.541 0.545 0.068 1.388 0.261 2.316 0.541" fill="#231f20"/></g><g transform="translate(434.66 486.25)"><path d="m0 0c-24.614 0-21.319-8.619-82.645-8.619" fill="none" stroke="#231f20" stroke-width=".75"/></g><g transform="translate(435.9 486.79)"><path d="m0 0c-0.869 0.263-1.434 0.504-2.129 0.783v-2.648c0.248 0.118 1.26 0.521 2.129 0.783 0.928 0.28 1.772 0.473 2.316 0.541-0.544 0.068-1.388 0.261-2.316 0.541" fill="#231f20"/></g></g><text transform="matrix(1 0 0 -1 283.57 474.72)" fill="#231f20" font-family="Helvetica" font-size="8px"><tspan x="0 5.776 10.224 14.672 19.120001 21.784 24.007999 26.672001 31.120001 32.896 34.672001 36.448002 40.896 45.344002 47.568001 52.015999 56.464001 60.911999" y="0">Hand-trailing edge</tspan><tspan x="6 11.776 16.224001 18.448 22.896 26.896 29.120001 30.896 35.344002 39.792 42.015999 46.464001 48.240002 52.688 54.911999" y="101.488">Detection plate</tspan></text><text transform="matrix(1 0 0 -1 278.9 445.19)" fill="#231f20" font-family="Helvetica" font-size="9px" font-weight="bold"><tspan x="0 6.4980001 9.9989996 15.498 20.502001 25.506001 28.503 34.506001 39.509998 44.514 47.511002 50.013 55.512001 61.011002 63.513 69.358498 71.860497 76.864502" y="0">Cross-Section View</tspan></text><g transform="translate(385.6 489.51)"><path d="m0 0v-147.37" fill="none" stroke="#231f20" stroke-width=".75"/></g><g clip-path="url(#g)"><g transform="translate(386.14 341.61)"><path d="m0 0c0.262 0.869 0.504 1.434 0.783 2.129h-2.648c0.117-0.248 0.519-1.26 0.783-2.129 0.279-0.928 0.473-1.772 0.541-2.316 0.068 0.544 0.26 1.388 0.541 2.316" fill="#231f20"/></g><g transform="translate(385.06 490.03)"><path d="m0 0c-0.264-0.869-0.504-1.434-0.783-2.129h2.648c-0.119 0.248-0.521 1.26-0.783 2.129-0.281 0.928-0.473 1.772-0.541 2.316-0.068-0.544-0.262-1.388-0.541-2.316" fill="#231f20"/></g><g transform="translate(289.79 375.9)"><path d="m0 0h-92.651" fill="none" stroke="#231f20" stroke-width=".75"/></g><g transform="translate(196.61 375.36)"><path d="m0 0c0.869-0.262 1.434-0.504 2.129-0.783v2.648c-0.248-0.118-1.26-0.52-2.129-0.783-0.928-0.28-1.771-0.473-2.316-0.541 0.545-0.068 1.388-0.261 2.316-0.541" fill="#231f20"/></g><g transform="translate(342.73 375.9)"><path d="m0 0h92.648" fill="none" stroke="#231f20" stroke-width=".75"/></g><g transform="translate(435.9 376.44)"><path d="m0 0c-0.869 0.262-1.434 0.504-2.129 0.783v-2.648c0.248 0.118 1.26 0.52 2.129 0.783 0.928 0.28 1.772 0.473 2.316 0.541-0.544 0.068-1.388 0.261-2.316 0.541" fill="#231f20"/></g><path d="m170.52 342.34h-92.684v152.44h92.684z" fill="#fff"/><g transform="translate(170.52 342.34)"><path d="m0 0h-92.684v152.44h92.684z" fill="none" stroke="#231f20"/></g><path d="m462 342.34h92.684v152.44h-92.684z" fill="#fff"/><g transform="translate(462 342.34)"><path d="m0 0h92.684v152.44h-92.684z" fill="none" stroke="#231f20"/></g><path d="m182.1 384.42h12.195v-33.537h-12.195z" fill="#918f90"/><g transform="translate(182.1 384.42)"><path d="m0 0h12.195v-33.537h-12.195z" fill="none" stroke="#231f20" stroke-width=".5"/></g><path d="m450.41 384.42h-12.195v-33.537h12.195z" fill="#918f90"/><g transform="translate(450.41 384.42)"><path d="m0 0h-12.195v-33.537h12.195z" fill="none" stroke="#231f20" stroke-width=".5"/></g><path d="m182.1 492.34h12.195v-33.537h-12.195z" fill="#918f90"/><g transform="translate(182.1 492.34)"><path d="m0 0h12.195v-33.537h-12.195z" fill="none" stroke="#231f20" stroke-width=".5"/></g><g transform="translate(450.42 486.24)"><path d="m0 0c0-3.368-2.731-6.099-6.1-6.099-3.367 0-6.097 2.731-6.097 6.099s2.73 6.098 6.097 6.098c3.369 0 6.1-2.73 6.1-6.098" fill="#918f90"/><path d="m0 0c0-3.368-2.731-6.099-6.1-6.099-3.367 0-6.097 2.731-6.097 6.099s2.73 6.098 6.097 6.098c3.369 0 6.1-2.73 6.1-6.098z" fill="none" stroke="#231f20" stroke-width=".5"/></g><path d="m581.83 339.29h-522v-15.854h522z" fill="#c8c7c7"/></g><text transform="matrix(1 0 0 -1 97.49 417.05)" fill="#231f20" font-family="Helvetica" font-size="8px"><tspan x="0 5.336 9.7840004 14.232 18.68 23.128 25.792 28.016001 30.24 34.688 39.136002 43.136002 44.911999 48.911999 384.168 389.504 393.952 398.39999 402.84799 407.29599 409.95999 412.18399 414.40799 418.85599 423.30399 427.30399 429.07999 433.07999" y="0">Support deviceSupport device</tspan></text><g transform="translate(382.6 492.34)"><path d="m0 0h50.247" fill="none" stroke="#231f20" stroke-width=".75"/></g><path d="m389.72 407.84h-7.047v18.792h7.047z" fill="#fff"/><text transform="matrix(1 0 0 -1 358.92 418.56)" fill="#231f20" font-family="Helvetica" font-size="8px"><tspan x="0 4.448 8.8959999 11.12 12.896 17.344 21.344 25.792 30.24 34.240002 36.464001 43.127998 45.352001 51.127998" y="0">32 inches MIN.</tspan><tspan x="-5.7839999 -3.5599999 0.88800001 3.112 7.5599999 12.008 14.232 16.007999 20.455999 24.455999 28.903999 33.352001 37.352001 39.576 46.240002 51.576 56.911999" y="8.4960003">to 38 inches MAX.</tspan></text><g transform="translate(225.29 381.58)"><path d="m0 0v-39.447" fill="none" stroke="#231f20" stroke-width=".75"/></g><g clip-path="url(#f)"><g transform="translate(225.83 341.61)"><path d="m0 0c0.262 0.869 0.504 1.434 0.783 2.129h-2.648c0.117-0.248 0.519-1.26 0.783-2.129 0.279-0.928 0.473-1.772 0.541-2.316 0.068 0.544 0.26 1.388 0.541 2.316" fill="#231f20"/></g><g transform="translate(224.76 382.1)"><path d="m0 0c-0.264-0.869-0.504-1.434-0.783-2.129h2.648c-0.119 0.248-0.521 1.26-0.783 2.129-0.281 0.928-0.473 1.771-0.541 2.316-0.068-0.545-0.262-1.388-0.541-2.316" fill="#231f20"/></g><g transform="translate(197.3 384.42)"><path d="m0 0h31" fill="none" stroke="#231f20" stroke-width=".75"/></g><path d="m229.41 357.96h-7.047v8.568h7.047z" fill="#fff"/></g><text transform="matrix(1 0 0 -1 200.84 360.34)" fill="#231f20" font-family="Helvetica" font-size="8px"><tspan x="0 4.448 6.6719999 8.448 12.896 16.896 21.344 25.792 29.792 32.015999 38.68 40.903999 46.68" y="0">8 inches MIN.</tspan></text><g transform="translate(446.4 348.04)"><path d="m0 0v-5.911" fill="none" stroke="#231f20" stroke-width=".75"/></g><g clip-path="url(#e)"><g transform="translate(446.94 341.61)"><path d="m0 0c0.262 0.869 0.504 1.434 0.783 2.129h-2.648c0.117-0.248 0.519-1.26 0.783-2.129 0.279-0.928 0.473-1.772 0.541-2.316 0.068 0.544 0.26 1.388 0.541 2.316" fill="#231f20"/></g><g transform="translate(445.87 348.56)"><path d="m0 0c-0.264-0.869-0.504-1.434-0.783-2.129h2.648c-0.119 0.248-0.521 1.26-0.783 2.129-0.281 0.928-0.473 1.771-0.541 2.316-0.068-0.545-0.262-1.388-0.541-2.316" fill="#231f20"/></g><g transform="translate(453.25 486.24)"><path d="m0 0h5.911" fill="none" stroke="#231f20" stroke-width=".75"/></g><g transform="translate(459.69 486.78)"><path d="m0 0c-0.869 0.262-1.434 0.504-2.129 0.783v-2.648c0.248 0.117 1.26 0.519 2.129 0.783 0.928 0.279 1.772 0.473 2.316 0.541-0.544 0.068-1.388 0.26-2.316 0.541" fill="#231f20"/></g><g transform="translate(452.73 485.7)"><path d="m0 0c0.869-0.264 1.434-0.504 2.129-0.783v2.648c-0.248-0.119-1.26-0.521-2.129-0.783-0.928-0.281-1.772-0.473-2.316-0.541 0.544-0.068 1.388-0.262 2.316-0.541" fill="#231f20"/></g></g><text transform="matrix(1 0 0 -1 393.36 341.88)" fill="#231f20" font-family="Helvetica" font-size="8px"><tspan x="0 4.448 6.6719999 8.448 12.896 16.896 21.344 25.792 29.792 32.015999 38.68 44.015999 49.352001" y="0">2 inches MAX.</tspan><tspan x="14.616 19.063999 21.288 23.063999 27.511999 31.511999 35.959999 40.408001 44.408001 46.632 53.296001 55.52 61.296001" y="-117.112">2 inches MIN.</tspan></text><g clip-path="url(#d)"><g transform="translate(456.21 486.24)"><path d="m0 0c0-11.917-8.371-12.718-8.371-19.487" fill="none" stroke="#231f20" stroke-width=".75"/></g></g><text transform="matrix(1 0 0 -1 59.992 100.25)" fill="#231f20" font-family="Helvetica" font-size="8px"><tspan x="0 5.776 10.224 12.448 16.896 20.896" y="0">Notes:</tspan><tspan x="0 5.7119999 10.16 12.384 18 22.888 27.336 31.784 34.448002 38.896 41.119999 45.119999 49.568001 54.015999 58.464001 60.240002 64.688004 66.912003 71.360001 75.807999 78.031998 82.480003 84.704002 86.928001 88.704002 93.152 97.599998 101.6 103.824 106.048 110.496 112.72 117.168 119.832 121.608 126.056 130.056 134.504 136.728 141.17599 145.62399 150.07201 152.29601 156.744 161.192 163.416 169.192 173.64 178.088 182.536 184.75999 186.98399 191.43201 195.88 198.104 202.552 207 211.448 215.896 218.56 220.784 223.448 227.896 229.672 231.448 233.224 237.672 242.12 244.34399 248.79201 253.24001 257.71841 262.16641 264.39041 268.83841 273.28641 277.73441 279.9584 281.73441 283.9584 287.9584 290.1824 294.1824 298.6304 303.0784 307.5264 311.9744 314.6384 316.8624" y="11.496"> 1. There should be at least a 2-inch gap between the hand-trailing edge and its support.</tspan><tspan x="0 5.7119999 10.16 12.384 18 22.898399 25.1224 31.7864 36.234402 40.234402 42.010399 48.6744 53.122398 59.7864 62.010399 66.458397 69.122398 70.898399 75.346397 79.346397 83.794403 86.018402 90.4664 94.914398 99.362396 101.5864 106.0344 110.4824 112.7064 118.4824 122.9304 127.3784 131.8264 134.0504 136.2744 140.7224 145.17039 147.39439 151.84241 156.29041 158.5144 160.7384 165.1864 171.8504 174.0744 178.5224 182.9704 185.6344 187.8584 189.6344 194.0824 198.5304 200.75439 205.20239 207.42641 209.65041 211.8744 216.3224 220.7704 222.9944 227.4424 231.8904 234.1144 236.33839 240.78641 247.45039 249.67439 252.33839 256.79999 258.57599 260.35199 262.57599 267.02399 271.47198 275.92001 278.14401 280.36801 284.81601 289.26401" y="22.992001"> 2. A maximum 2-inch gap between the bottom portion of the bottom rail and the </tspan><tspan x="18 23.775999 28.224001 30 34 39.776001 44.223999 48.223999 50.448002 57.112 61.560001 65.559998 67.783997 72.232002 76.68 78.903999 83.351997 87.351997 91.800003 96.248001 98.472 100.696 105.144 107.368 111.816 114.48 118.928 122.928 124.704 129.15199 133.60001 135.82401 140.272 142.936 147.384 149.16 153.608 158.056 162.504 166.952" y="31.488001">walkway may be used to provide drainage.</tspan><tspan x="0 5.7119999 10.16 12.384 18 23.336 25.559999 28.224001 30 34.448002 36.223999 40.672001 45.119999 47.344002 51.792 56.240002 58.464001 62.464001 66.912003 71.360001 75.807999 78.031998 79.807999 84.255997 88.704002 90.928001 95.375999 99.823997 104.272 108.72 110.496 114.496 116.72 123.384 127.832 131.832 134.056 138.504 142.952 145.17599 149.62399 151.39999 153.62399 158.07201 162.52 165.18401 167.408 171.408 175.856 178.52 180.744 182.52 186.52 190.968 192.744 194.968 199.416 202.08 204.304 208.752 210.976 213.2 217.64799 219.87199 224.32001 228.76801 231.43201 235.88 240.328 244.776 247.44 251.888 256.36319 258.58719 263.03519 267.48318 271.93121 273.70721 278.15521" y="42.984001"> 3. Striping on sheeting panels may be either vertical or at a 45-degree angle.</tspan><tspan x="0 5.7119999 10.16 12.384 18 23.775999 28.224001 32.672001 37.119999 39.784 42.007999 44.672001 49.119999 50.896 52.672001 54.448002 58.896 63.344002 65.568001 70.015999 74.463997 78.912003 83.360001 85.584 90.031998 94.480003 98.928001 101.152 105.6 108.264 110.488 114.936 119.384 121.608 126.056 130.056 132.28 134.056 138.504 142.952 145.17599 149.62399 151.39999 155.84801 158.07201 162.52 166.52 168.744 173.192 175.856 180.304 182.528 186.976 191.424 193.64799 195.424 199.87199 204.32001 208.76801 210.54401 212.76801 214.992 219.44 222.104 224.328 228.328 232.776 237.224 239.448 241.224 245.672 250.12 254.60159 259.04959 263.04959 265.27359 271.04959 275.49759 277.27359 279.04959 283.04959" y="54.48"> 4. Hand-trailing edge and/or detection plates are optional for continuous walls.</tspan></text><g transform="translate(206.77 289.05)"><path d="m0 0-3.832 8.761h-140.9l-4.79-8.761" fill="#fff" stroke="#231f20" stroke-linejoin="round"/></g><g transform="translate(345.29 269.9)"><path d="m0 0 28.443 10.44-156.29 16.922-8.279-8.22" fill="#fff" stroke="#231f20" stroke-linejoin="round"/></g><g transform="translate(373.73 261.2)"><path d="m0 0v19.14z" fill="#fff"/></g><g transform="translate(373.73 280.34)"><path d="m0 0v-19.14" fill="none" stroke="#231f20" stroke-linejoin="bevel"/></g><g transform="translate(492.19 209.25)"><path d="m0 0v19.139z" fill="#fff"/></g><g transform="translate(492.19 228.39)"><path d="m0 0v-19.14" fill="none" stroke="#231f20" stroke-linejoin="bevel"/></g><path d="m206.77 289.05h-149.52v-101.04h149.52z" fill="#fff"/><g transform="translate(206.77 289.05)"><path d="m0 0h-149.52v-101.04h149.52z" fill="none" stroke="#231f20" stroke-linejoin="round"/></g><path d="m208.16 191.96h-149.48v15.184h149.48z" fill="#fff"/><g transform="translate(208.16 191.96)"><path d="m0 0h-149.48v15.184h149.48z" fill="none" stroke="#231f20" stroke-width=".75"/></g><path d="m208.16 270.73h-149.48v15.184h149.48z" fill="#fff"/><g transform="translate(208.16 270.73)"><path d="m0 0h-149.48v15.184h149.48z" fill="none" stroke="#231f20" stroke-width=".75"/></g><g transform="translate(345.29 269.9)"><path d="m0 0-136.12 19.142v-101.04l136.12-18.153z" fill="#fff"/><path d="m0 0-136.12 19.142v-101.04l136.12-18.153z" fill="none" stroke="#231f20" stroke-linejoin="round"/></g><g transform="translate(348.8 173.03)"><path d="m0 0-140.64 18.922v15.183l140.64-18.365z" fill="#fff"/><path d="m0 0-140.64 18.922v15.183l140.64-18.365z" fill="none" stroke="#231f20" stroke-linejoin="round" stroke-width=".75"/></g><g transform="translate(348.8 248.98)"><path d="m0 0-140.64 21.745v15.184l140.64-19.478z" fill="#fff"/><path d="m0 0-140.64 21.745v15.184l140.64-19.478z" fill="none" stroke="#231f20" stroke-linejoin="round" stroke-width=".75"/></g><g transform="translate(351.97 269.49)"><path d="m0 0v-101.8l99.961-49.42v99.594" fill="#fff" stroke="#231f20" stroke-linejoin="round"/></g><g transform="translate(492.19 228.39)"><path d="m0 0-102.72 49.76-37.498-8.66 99.961-51.383z" fill="#fff"/><path d="m0 0-102.72 49.76-37.498-8.66 99.961-51.383z" fill="none" stroke="#231f20" stroke-linejoin="round"/></g><g transform="translate(447.93 193.67)"><path d="m0 0-99.132 55.31v17.451l99.132-50.841z" fill="#fff"/><path d="m0 0-99.132 55.31v17.451l99.132-50.841z" fill="none" stroke="#231f20" stroke-linejoin="round" stroke-width=".75"/></g><g transform="translate(447.93 123.75)"><path d="m0 0-99.132 49.283v15.74l99.132-43.583z" fill="#fff"/><path d="m0 0-99.132 49.283v15.74l99.132-43.583z" fill="none" stroke="#231f20" stroke-linejoin="round" stroke-width=".75"/></g><g transform="translate(514.82 146.98)"><path d="m0 0-58.982 70.322v-98.164l58.982-74.678" fill="#fff" stroke="#231f20" stroke-linejoin="round"/></g><g transform="translate(584.41 146.98)"><path d="m0 0-68.18 70.734-60.879-0.412" fill="#fff" stroke="#231f20" stroke-linejoin="round"/></g><g transform="translate(501.21 128.47)"><path d="m0 0-53.281 65.203v21.92l53.281-66.735z" fill="#fff"/><path d="m0 0-53.281 65.203v21.92l53.281-66.735z" fill="none" stroke="#231f20" stroke-linejoin="round" stroke-width=".75"/></g><g transform="translate(501.88 56.05)"><path d="m0 0-53.947 67.701v21.441l53.947-68.206z" fill="#fff"/><path d="m0 0-53.947 67.701v21.441l53.947-68.206z" fill="none" stroke="#231f20" stroke-linejoin="round" stroke-width=".75"/></g><path d="m514.82 146.98h69.594v-102.52h-69.594z" fill="#fff"/><g transform="translate(514.82 146.98)"><path d="m0 0h69.594v-102.52h-69.594z" fill="none" stroke="#231f20" stroke-linejoin="round"/></g><g fill="#f48412"><path d="m92.042 191.96h-24.829v15.184h24.829z"/><path d="m141.48 191.96h-24.828v15.184h24.828z"/><path d="m191.35 191.96h-24.829v15.184h24.829z"/><path d="m102.78 270.73h-24.829v15.184h24.829z"/><path d="m148.41 270.73h-24.829v15.184h24.829z"/><path d="m193.76 270.73h-24.829v15.184h24.829z"/></g><g transform="translate(241.8 187.62)"><path d="m0 0-23.759 2.995v15.097l23.759-2.822z" fill="#f48412"/></g><g transform="translate(285.08 181.52)"><path d="m0 0-23.454 3.207v15.435l23.454-2.99z" fill="#f48412"/></g><g transform="translate(327.98 175.76)"><path d="m0 0-23.655 3.314v15.434l23.655-2.994z" fill="#f48412"/></g><g transform="translate(243.86 265.3)"><path d="m0 0-24.619 3.717v15.241l24.619-3.219z" fill="#f48412"/></g><g transform="translate(291.84 257.83)"><path d="m0 0-23.718 3.545v16.148l23.718-3.174z" fill="#f48412"/></g><g transform="translate(336.91 250.88)"><path d="m0 0-20.803 3.216v16.874l20.803-2.855z" fill="#f48412"/></g><g transform="translate(372.15 161.37)"><path d="m0 0-18.498 9.442v15.988l18.498-8.134z" fill="#f48412"/></g><g transform="translate(405.82 144.53)"><path d="m0 0-19.297 9.667v18.145l19.297-8.657z" fill="#f48412"/></g><g transform="translate(438.82 128.44)"><path d="m0 0-18.863 9.486v19.606l18.863-8.324z" fill="#f48412"/></g><g transform="translate(377.8 232.77)"><path d="m0 0-18.316 10.103v18.295l18.316-9.675z" fill="#f48412"/></g><g transform="translate(410.92 214.13)"><path d="m0 0-18.832 10.62v19.776l18.832-9.794z" fill="#f48412"/></g><g transform="translate(441.63 197.4)"><path d="m0 0-19.199 10.613 0.177 20.532 19.202-9.894z" fill="#f48412"/></g><g transform="translate(463.16 104.47)"><path d="m0 0-10.205 13.634v20.948l10.205-12.831z" fill="#f48412"/></g><g transform="translate(480.97 82.068)"><path d="m0 0-10.391 13.383v20.81l10.391-12.898z" fill="#f48412"/></g><g transform="translate(501.68 56.05)"><path d="m0 0-11.617 15.241v20.777l11.617-15.082z" fill="#f48412"/></g><g transform="translate(460.38 178.55)"><path d="m0 0-9.231 11.33v21.688l9.231-11.607z" fill="#f48412"/></g><g transform="translate(478.8 155.97)"><path d="m0 0-8.275 10.243v21.173l8.275-10.572z" fill="#f48412"/></g><g transform="translate(497.05 133.58)"><path d="m0 0-9.285 11.393 0.111 20.689 9.287-11.675z" fill="#f48412"/></g><g transform="translate(348.8 173.03)"><path d="m0 0-140.64 18.922v15.183l140.64-18.365z" fill="none" stroke="#231f20" stroke-linejoin="round" stroke-width=".75"/></g><g transform="translate(348.8 248.98)"><path d="m0 0-140.64 21.745v15.184l140.64-19.478z" fill="none" stroke="#231f20" stroke-linejoin="round" stroke-width=".75"/></g><g transform="translate(208.16 191.96)"><path d="m0 0h-149.48v15.184h149.48z" fill="none" stroke="#231f20" stroke-width=".75"/></g><g transform="translate(208.16 270.73)"><path d="m0 0h-149.48v15.184h149.48z" fill="none" stroke="#231f20" stroke-width=".75"/></g><g transform="translate(447.93 193.67)"><path d="m0 0-99.132 55.31v17.451l99.132-50.841z" fill="none" stroke="#231f20" stroke-linejoin="round" stroke-width=".75"/></g><g transform="translate(447.93 123.75)"><path d="m0 0-99.132 49.283v15.74l99.132-43.583z" fill="none" stroke="#231f20" stroke-linejoin="round" stroke-width=".75"/></g><g transform="translate(501.21 128.47)"><path d="m0 0-53.281 65.203v21.92l53.281-66.735z" fill="none" stroke="#231f20" stroke-linejoin="bevel" stroke-width=".75"/></g><g transform="translate(501.88 56.05)"><path d="m0 0-53.947 67.701v21.441l53.947-68.206z" fill="none" stroke="#231f20" stroke-linejoin="bevel" stroke-width=".75"/></g><path d="m501.88 56.05h2.018v20.936h-2.018z" fill="#fff"/><g transform="translate(501.88 56.05)"><path d="m0 0h2.018v20.936h-2.018z" fill="none" stroke="#231f20" stroke-linejoin="round" stroke-width=".75"/></g><path d="m501.22 128.47h2.018v20.388h-2.018z" fill="#fff"/><g transform="translate(501.21 128.47)"><path d="m0 0h2.018v20.388h-2.018z" fill="none" stroke="#231f20" stroke-linejoin="round" stroke-width=".75"/></g><g transform="translate(503.9 76.986)"><path d="m0 0-54.19 68.206" fill="#fff" stroke="#231f20" stroke-width=".75"/></g><g transform="translate(447.93 145.19)"><path d="m0 0 53.947-68.206h2.018l-54.19 68.206z" fill="#fff"/><path d="m0 0 53.947-68.206h2.018l-54.19 68.206z" fill="none" stroke="#231f20" stroke-linejoin="round" stroke-width=".75"/></g><g transform="translate(447.93 215.59)"><path d="m0 0 53.281-66.735h2.018l-53.524 66.735z" fill="#fff"/><path d="m0 0 53.281-66.735h2.018l-53.524 66.735z" fill="none" stroke="#231f20" stroke-linejoin="round" stroke-width=".75"/></g><text transform="matrix(1 0 0 -1 522.93 94.214)" fill="#231f20" font-family="Helvetica" font-size="8px"><tspan x="0 5.336 9.7840004 14.232 18.68 23.128 25.792 28.016001 30.24 34.688 39.136002 43.136002 44.911999 48.911999" y="0">Support device</tspan><tspan x="-59.375999 -53.599998 -49.152 -44.703999 -42.48 -40.703999 -36.256001 -31.808001 -27.360001 -22.912001 -18.912001 -16.688 -12.24 -7.7919998 -3.3440001 1.104 3.7679999 5.9920001 8.6560001 13.104 14.88 16.656 18.431999 22.879999 27.327999 29.552 34 38.448002 42.896" y="-194.992">Continuous hand-trailing edge</tspan><tspan x="-463.73599 -457.95999 -453.51199 -449.064 -446.84 -445.064 -440.616 -436.168 -431.72 -427.272 -423.272 -421.048 -416.60001 -412.15201 -409.92801 -405.48001 -401.48001 -399.25601 -397.48001 -393.03201 -388.58401 -386.35999 -381.91199 -380.13599 -375.68799 -373.46399" y="-60.231998">Continuous detection plate</tspan></text><g clip-path="url(#c)"><g transform="translate(136.84 281.68)"><path d="m0 0c0 50.712 258.56 10.271 323.34 10.271" fill="none" stroke="#231f20" stroke-width=".75"/></g><g transform="translate(136.3 280.44)"><path d="m0 0c-0.263 0.869-0.504 1.434-0.783 2.129h2.648c-0.118-0.248-0.521-1.26-0.783-2.129-0.28-0.928-0.473-1.771-0.541-2.316-0.068 0.545-0.261 1.388-0.541 2.316" fill="#231f20"/></g><g transform="translate(396.15 154.34)"><path d="m0 0c0-35.977-50 3.048-237.2 3.048" fill="none" stroke="#231f20" stroke-width=".75"/></g><g transform="translate(396.69 155.58)"><path d="m0 0c0.262-0.869 0.504-1.434 0.783-2.129h-2.648c0.117 0.248 0.521 1.26 0.783 2.129 0.279 0.928 0.473 1.772 0.541 2.316 0.068-0.544 0.26-1.388 0.541-2.316" fill="#231f20"/></g><g transform="translate(475.2 95.22)"><path d="m0 0c0-35.977-135.9 62.171-316.24 62.171" fill="none" stroke="#231f20" stroke-width=".75"/></g><g transform="translate(475.74 96.461)"><path d="m0 0c0.262-0.869 0.504-1.434 0.783-2.129h-2.648c0.117 0.248 0.521 1.26 0.783 2.129 0.279 0.928 0.473 1.771 0.541 2.316 0.068-0.545 0.26-1.388 0.541-2.316" fill="#231f20"/></g><g transform="translate(274.2 187.27)"><path d="m0 0c0-35.977-50.456-29.879-115.24-29.879" fill="none" stroke="#231f20" stroke-width=".75"/></g><g transform="translate(274.74 188.51)"><path d="m0 0c0.262-0.869 0.504-1.434 0.783-2.129h-2.648c0.117 0.248 0.521 1.26 0.783 2.129 0.279 0.928 0.473 1.771 0.541 2.316 0.068-0.545 0.26-1.388 0.541-2.316" fill="#231f20"/></g><g transform="translate(130.3 196.42)"><path d="m0 0c0-29.269 28.659-18.903 28.659-39.025" fill="none" stroke="#231f20" stroke-width=".75"/></g><g transform="translate(130.84 197.66)"><path d="m0 0c0.262-0.869 0.504-1.434 0.783-2.129h-2.648c0.117 0.248 0.521 1.26 0.783 2.129 0.279 0.928 0.473 1.772 0.541 2.316 0.068-0.544 0.26-1.388 0.541-2.316" fill="#231f20"/></g><g transform="translate(402.86 232.39)"><path d="m0 0c0 42.175 1.22 59.559 57.317 59.559" fill="none" stroke="#231f20" stroke-width=".75"/></g><g transform="translate(402.32 231.15)"><path d="m0 0c-0.264 0.869-0.504 1.434-0.783 2.129h2.648c-0.119-0.248-0.521-1.26-0.783-2.129-0.281-0.928-0.473-1.772-0.541-2.316-0.068 0.544-0.262 1.388-0.541 2.316" fill="#231f20"/></g><g transform="translate(474.81 173.86)"><path d="m0 0c0 42.175-70.731 118.1-14.634 118.1" fill="none" stroke="#231f20" stroke-width=".75"/></g><g transform="translate(474.28 172.62)"><path d="m0 0c-0.264 0.869-0.504 1.434-0.783 2.129h2.648c-0.119-0.248-0.521-1.26-0.783-2.129-0.281-0.928-0.473-1.772-0.541-2.316-0.068 0.544-0.262 1.388-0.541 2.316" fill="#231f20"/></g><g transform="translate(492.25 53.214)"><path d="m0 0v-5.911" fill="none" stroke="#231f20" stroke-width=".75"/></g><g transform="translate(492.78 46.781)"><path d="m0 0c0.262 0.869 0.504 1.434 0.783 2.129h-2.648c0.117-0.248 0.519-1.26 0.783-2.129 0.279-0.928 0.473-1.771 0.541-2.316 0.068 0.545 0.26 1.388 0.541 2.316" fill="#231f20"/></g><g transform="translate(491.71 53.734)"><path d="m0 0c-0.264-0.869-0.504-1.434-0.783-2.129h2.648c-0.119 0.248-0.521 1.26-0.783 2.129-0.281 0.928-0.473 1.771-0.541 2.316-0.068-0.545-0.262-1.388-0.541-2.316" fill="#231f20"/></g></g><text transform="matrix(1 0 0 -1 437.48 47.054)" fill="#231f20" font-family="Helvetica" font-size="8px"><tspan x="0 4.448 6.6719999 8.448 12.896 16.896 21.344 25.792 29.792 32.015999 38.68 44.015999 49.352001" y="0">2 inches MAX.</tspan></text><g transform="translate(489.24 44.465)"><path d="m0 0h21.414" fill="none" stroke="#231f20" stroke-width=".75"/></g><g transform="translate(489.24 56.05)"><path d="m0 0h9.637" fill="none" stroke="#231f20" stroke-width=".75"/></g><g transform="translate(506.07 136.54)"><path d="m0 0h5.911" fill="none" stroke="#231f20" stroke-width=".75"/></g><g clip-path="url(#b)"><g transform="translate(512.5 137.08)"><path d="m0 0c-0.869 0.262-1.434 0.504-2.129 0.783v-2.648c0.248 0.117 1.26 0.519 2.129 0.783 0.928 0.279 1.771 0.473 2.316 0.541-0.545 0.068-1.388 0.26-2.316 0.541" fill="#231f20"/></g><g transform="translate(505.55 136.01)"><path d="m0 0c0.869-0.264 1.434-0.504 2.129-0.783v2.648c-0.248-0.119-1.26-0.521-2.129-0.783-0.928-0.281-1.772-0.473-2.316-0.541 0.544-0.068 1.388-0.262 2.316-0.541" fill="#231f20"/></g></g><text transform="matrix(1 0 0 -1 481.92 117.4)" fill="#231f20" font-family="Helvetica" font-size="8px"><tspan x="0 4.448 6.6719999 8.448 12.896 16.896 21.344 25.792" y="0">2 inches</tspan><tspan x="6.4559999 13.12 15.344 21.120001" y="8.4960003">MIN.</tspan></text><g clip-path="url(#a)"><g transform="translate(509.03 136.54)"><path d="m0 0c0-7.368-3.484-6.16-3.484-12.928" fill="none" stroke="#231f20" stroke-width=".75"/></g></g></g></svg>
