<?xml version="1.0" encoding="UTF-8"?>
<svg width="673" height="452.86" version="1.1" viewBox="0 0 673 452.86" xml:space="preserve" xmlns="http://www.w3.org/2000/svg"><defs><clipPath id="t"><path d="m30.423 373.31h518.58v369.69h-518.58z"/></clipPath><clipPath id="s"><path d="m30.423 373.31h518.58v369.69h-518.58z"/></clipPath><clipPath id="r"><path d="m30.423 373.31h518.58v369.69h-518.58z"/></clipPath><clipPath id="q"><path d="m30.423 373.31h518.58v369.69h-518.58z"/></clipPath><clipPath id="p"><path d="m30.423 373.31h518.58v369.69h-518.58z"/></clipPath><clipPath id="o"><path d="m30.423 373.31h518.58v369.69h-518.58z"/></clipPath><clipPath id="n"><path d="m30.423 373.31h518.58v369.69h-518.58z"/></clipPath><clipPath id="m"><path d="m30.423 373.31h518.58v369.69h-518.58z"/></clipPath><clipPath id="l"><path d="m30.423 373.31h518.58v369.69h-518.58z"/></clipPath><clipPath id="k"><path d="m30.423 373.31h518.58v369.69h-518.58z"/></clipPath><clipPath id="j"><path d="m30.423 373.31h518.58v369.69h-518.58z"/></clipPath><clipPath id="i"><path d="m30.423 373.31h518.58v369.69h-518.58z"/></clipPath><clipPath id="h"><path d="m30.423 373.31h518.58v369.69h-518.58z"/></clipPath><clipPath id="g"><path d="m30.423 373.31h518.58v369.69h-518.58z"/></clipPath><clipPath id="f"><path d="m30.423 373.31h518.58v369.69h-518.58z"/></clipPath><clipPath id="e"><path d="m30.423 373.31h518.58v369.69h-518.58z"/></clipPath><clipPath id="d"><path d="m30.423 373.31h518.58v369.69h-518.58z"/></clipPath><clipPath id="c"><path d="m30.423 373.31h518.58v369.69h-518.58z"/></clipPath><clipPath id="b"><path d="m30.423 373.31h518.58v369.69h-518.58z"/></clipPath><clipPath id="a"><path d="m30.423 373.31h518.58v369.69h-518.58z"/></clipPath></defs><g transform="matrix(1.3333 0 0 -1.3333 -41.015 956.05)"><g clip-path="url(#t)"><g transform="translate(178.93 627.39)"><path d="m0 0c-0.899 0-1.744 0.35-2.379 0.985l-32.075 32.075c-0.636 0.635-0.985 1.481-0.985 2.379 0 0.899 0.349 1.745 0.985 2.38l32.075 32.075c0.635 0.635 1.48 0.985 2.379 0.985s1.744-0.35 2.379-0.985l32.075-32.075c0.636-0.635 0.985-1.481 0.985-2.38 0-0.898-0.349-1.744-0.985-2.379l-32.075-32.075c-0.635-0.635-1.48-0.985-2.379-0.985" fill="#ffd046"/></g><g transform="translate(178.93 698.39)"><path d="m0 0c-0.932 0-1.809-0.363-2.468-1.022l-32.074-32.075c-0.659-0.659-1.023-1.535-1.023-2.468 0-0.932 0.364-1.808 1.023-2.467l32.074-32.075c0.659-0.659 1.536-1.022 2.468-1.022s1.809 0.363 2.468 1.022l32.074 32.075c0.66 0.659 1.023 1.535 1.023 2.467 0 0.933-0.363 1.809-1.023 2.468l-32.074 32.075c-0.659 0.659-1.536 1.022-2.468 1.022m0-0.25c0.829 0 1.658-0.316 2.291-0.949l32.075-32.074c1.265-1.266 1.265-3.317 0-4.583l-32.075-32.074c-0.633-0.633-1.462-0.949-2.291-0.949s-1.658 0.316-2.291 0.949l-32.075 32.074c-1.265 1.266-1.265 3.317 0 4.583l32.075 32.074c0.633 0.633 1.462 0.949 2.291 0.949"/></g><g transform="translate(145.2 661.17)"><path d="m0 0c-0.912 0.912-0.912 2.397 0 3.309l32.074 32.075c0.913 0.912 2.397 0.912 3.31 0l32.074-32.075c0.913-0.912 0.913-2.397 0-3.309l-32.074-32.075c-0.913-0.912-2.397-0.912-3.31 0z"/></g><g transform="translate(146.09 662.07)"><path d="m0 0c-0.421 0.421-0.421 1.106 0 1.527l32.075 32.075c0.421 0.421 1.106 0.421 1.527 0l32.074-32.075c0.422-0.421 0.422-1.106 0-1.527l-32.074-32.074c-0.421-0.422-1.106-0.422-1.527 0z" fill="#ffd046"/></g><path d="m174.6 658.51h-8.64v8.64h8.64z" fill-rule="evenodd"/><g transform="translate(174.61 667.15)"><path d="m0 0v12.96h-8.64v-12.96h-12.96v-8.64h12.96v-12.96h8.64v12.96h8.64v8.64z" fill-rule="evenodd"/></g><path d="m191.44 673.2h-3.45v2.339h3.45zm0-4.558h-3.45v2.259h3.45zm0-4.64h-3.45v2.319h3.45zm0-4.622h-3.45v2.294h3.45zm0-4.622h-3.45v2.328h3.45zm0-4.587h-3.45v2.294h3.45zm3.458 16.15-2e-3 2.321h-2.321v2.259h2.321v2.31h-2.326l5e-3 2.329h2.323l-2e-3 2.316h-2.326l5e-3 2.25h-1.152v-2.25h-3.427v2.25h-1.126v-2.25h-2.321v-2.316h2.321v-2.329h-2.321v-2.31h2.321v-2.259h-2.321v-2.321h2.321l7e-3 -2.319h-2.328v-2.328h2.328l-7e-3 -2.301h-2.321v-2.287h2.328l-7e-3 -2.333h-2.321v-2.289h2.328l-7e-3 -2.297h-2.321v-2.3l2.328 0.01-7e-3 -2.331 1.119 3e-3v2.328h3.434l0.026-2.331 1.121 3e-3 5e-3 2.318h2.321v2.3l-2.326 4e-3v2.293h2.328v2.294h-2.328v2.328h2.328l-2e-3 2.287-2.326 7e-3v2.294h2.328v2.328h-2.328l5e-3 2.319z"/><path d="m204.85 658.51h-8.64v8.64h8.64z" fill-rule="evenodd"/></g><text transform="matrix(1 0 0 -1 166.92 614.93)" fill="black" font-family="Helvetica" font-size="9px"><tspan x="0 8.4960003 13.5 18.504 21.500999" y="0">W10-2</tspan></text><g clip-path="url(#s)"><g transform="translate(261.26 627.39)"><path d="m0 0c-0.899 0-1.744 0.35-2.379 0.985l-32.075 32.075c-0.635 0.635-0.985 1.481-0.985 2.379 0 0.899 0.35 1.745 0.985 2.38l32.075 32.074c0.635 0.636 1.48 0.985 2.379 0.985 0.898 0 1.744-0.349 2.379-0.985l32.076-32.074c1.31-1.312 1.31-3.447 0-4.759l-32.076-32.075c-0.635-0.635-1.481-0.985-2.379-0.985" fill="#ffd046"/></g><g transform="translate(261.26 698.39)"><path d="m0 0c-0.932 0-1.809-0.363-2.468-1.022l-32.074-32.074c-1.361-1.361-1.361-3.575 0-4.936l32.074-32.075c0.659-0.659 1.536-1.022 2.468-1.022s1.809 0.363 2.468 1.022l32.074 32.075c1.361 1.361 1.361 3.575 0 4.936l-32.074 32.074c-0.659 0.659-1.536 1.022-2.468 1.022m0-0.25c0.829 0 1.658-0.316 2.291-0.949l32.074-32.074c1.266-1.266 1.266-3.317 0-4.582l-32.074-32.075c-0.633-0.632-1.462-0.949-2.291-0.949s-1.658 0.317-2.291 0.949l-32.074 32.075c-1.266 1.265-1.266 3.316 0 4.582l32.074 32.074c0.633 0.633 1.462 0.949 2.291 0.949"/></g><g transform="translate(227.53 661.17)"><path d="m0 0c-0.912 0.912-0.912 2.397 0 3.309l32.074 32.075c0.913 0.912 2.397 0.912 3.31 0l32.074-32.075c0.912-0.912 0.912-2.397 0-3.309l-32.074-32.074c-0.913-0.913-2.397-0.913-3.31 0z"/></g><g transform="translate(228.42 662.07)"><path d="m0 0c-0.421 0.421-0.421 1.106 0 1.527l32.074 32.075c0.421 0.421 1.107 0.421 1.528 0l32.074-32.075c0.421-0.421 0.421-1.106 0-1.527l-32.074-32.074c-0.421-0.421-1.107-0.421-1.528 0z" fill="#ffd046"/></g><g transform="translate(256.94 667.15)"><path d="m0 0v12.96h-8.64v-34.56h8.64v12.96h8.64v8.64z" fill-rule="evenodd"/></g><path d="m273.77 673.2h-3.45v2.339h3.45zm0-4.558h-3.45v2.259h3.45zm0-4.64h-3.45v2.319h3.45zm0-4.622h-3.45v2.294h3.45zm0-4.622h-3.45v2.328h3.45zm0-4.587h-3.45v2.294h3.45zm3.459 16.15-2e-3 2.321h-2.321v2.259h2.321v2.31h-2.326l5e-3 2.328h2.323l-2e-3 2.316h-2.326l5e-3 2.251h-1.152v-2.251h-3.427v2.251h-1.126v-2.251h-2.321v-2.316h2.321v-2.328h-2.321v-2.31h2.321v-2.259h-2.321v-2.321h2.321l7e-3 -2.319h-2.328v-2.329h2.328l-7e-3 -2.3h-2.321v-2.287h2.328l-7e-3 -2.334h-2.321v-2.288h2.328l-7e-3 -2.297h-2.321v-2.3l2.328 0.01-7e-3 -2.331 1.119 3e-3v2.328h3.434l0.026-2.331 1.121 3e-3 5e-3 2.318h2.321v2.3l-2.326 4e-3v2.293h2.328v2.294h-2.328v2.328h2.328l-2e-3 2.287-2.326 7e-3v2.293h2.328v2.329h-2.328l5e-3 2.319z"/><path d="m287.18 658.51h-8.64v8.64h8.64z" fill-rule="evenodd"/></g><text transform="matrix(1 0 0 -1 249.25 614.93)" fill="black" font-family="Helvetica" font-size="9px"><tspan x="0 8.4960003 13.5 18.504 21.500999" y="0">W10-3</tspan></text><g clip-path="url(#r)"><g transform="translate(343.59 627.39)"><path d="m0 0c-0.898 0-1.744 0.35-2.379 0.985l-32.075 32.075c-0.635 0.635-0.985 1.481-0.985 2.379 0 0.899 0.35 1.745 0.986 2.38l32.073 32.074c0.636 0.636 1.482 0.985 2.38 0.985s1.744-0.349 2.379-0.985l32.075-32.074c0.635-0.635 0.985-1.481 0.985-2.38 0-0.898-0.35-1.744-0.986-2.379l-32.073-32.075c-0.636-0.635-1.482-0.985-2.38-0.985" fill="#ffd046"/></g><g transform="translate(343.59 698.39)"><path d="m0 0c-0.932 0-1.809-0.363-2.468-1.022l-32.074-32.074c-1.361-1.361-1.361-3.575 0-4.936l32.074-32.075c0.659-0.659 1.536-1.022 2.468-1.022s1.809 0.363 2.468 1.022l32.074 32.075c1.361 1.361 1.361 3.575 0 4.936l-32.074 32.074c-0.659 0.659-1.536 1.022-2.468 1.022m0-0.25c0.829 0 1.658-0.316 2.291-0.949l32.074-32.074c1.266-1.266 1.266-3.317 0-4.582l-32.074-32.075c-0.633-0.632-1.462-0.949-2.291-0.949s-1.658 0.317-2.291 0.949l-32.074 32.075c-1.266 1.265-1.266 3.316 0 4.582l32.074 32.074c0.633 0.633 1.462 0.949 2.291 0.949"/></g><g transform="translate(309.86 661.17)"><path d="m0 0c-0.912 0.912-0.912 2.397 0 3.309l32.074 32.075c0.913 0.912 2.397 0.912 3.31 0l32.074-32.075c0.912-0.912 0.912-2.397 0-3.309l-32.074-32.074c-0.913-0.913-2.397-0.913-3.31 0z"/></g><g transform="translate(310.75 662.07)"><path d="m0 0c-0.421 0.421-0.421 1.106 0 1.527l32.074 32.075c0.421 0.421 1.107 0.421 1.528 0l32.074-32.075c0.421-0.421 0.421-1.106 0-1.527l-32.074-32.074c-0.421-0.421-1.107-0.421-1.528 0z" fill="#ffd046"/></g><g><path d="m354.48 673.2h-3.45v2.339h3.45zm0-4.558h-3.45v2.259h3.45zm0-4.64h-3.45v2.319h3.45zm0-4.622h-3.45v2.294h3.45zm0-4.622h-3.45v2.328h3.45zm0-4.587h-3.45v2.294h3.45zm3.459 16.15-3e-3 2.321h-2.321v2.259h2.321v2.31h-2.326l5e-3 2.328h2.324l-3e-3 2.316h-2.326l5e-3 2.251h-1.151v-2.251h-3.427v2.251h-1.126v-2.251h-2.321v-2.316h2.321v-2.328h-2.321v-2.31h2.321v-2.259h-2.321v-2.321h2.321l7e-3 -2.319h-2.328v-2.329h2.328l-7e-3 -2.3h-2.321v-2.287h2.328l-7e-3 -2.334h-2.321v-2.288h2.328l-7e-3 -2.297h-2.321v-2.3l2.328 0.01-7e-3 -2.331 1.119 3e-3v2.328h3.434l0.026-2.331 1.12 3e-3 5e-3 2.318h2.321v2.3l-2.326 4e-3v2.293h2.329v2.294h-2.329v2.328h2.329l-3e-3 2.287-2.326 7e-3v2.293h2.329v2.329h-2.329l5e-3 2.319z"/><path d="m346.28 662.83h-24.48v8.64h24.48z"/><path d="m365 662.83h-5.76v8.64h5.76z"/><path d="m340.16 645.55h-8.64v24.48h8.64z"/></g></g><text transform="matrix(1 0 0 -1 331.58 614.93)" fill="black" font-family="Helvetica" font-size="9px"><tspan x="0 8.4960003 13.5 18.504 21.500999" y="0">W10-4</tspan></text><g clip-path="url(#q)"><g transform="translate(56.931 627.39)"><path d="m0 0c-14.361 0-26.045 11.684-26.045 26.045s11.684 26.045 26.045 26.045 26.045-11.684 26.045-26.045-11.684-26.045-26.045-26.045" fill="#ffd046"/></g><g transform="translate(56.931 679.6)"><path d="m0 0c-14.43 0-26.17-11.74-26.17-26.17s11.74-26.17 26.17-26.17 26.17 11.74 26.17 26.17-11.74 26.17-26.17 26.17m0-0.25c14.315 0 25.92-11.605 25.92-25.92s-11.605-25.92-25.92-25.92-25.92 11.605-25.92 25.92 11.605 25.92 25.92 25.92"/></g><g transform="translate(56.931 628.23)"><path d="m0 0c-3.402 0-6.702 0.666-9.809 1.98-1.493 0.631-2.933 1.413-4.28 2.323-1.335 0.902-2.59 1.937-3.73 3.078-1.141 1.14-2.176 2.395-3.078 3.73-0.91 1.347-1.691 2.787-2.323 4.28-1.314 3.106-1.98 6.407-1.98 9.809s0.666 6.702 1.98 9.809c0.632 1.493 1.413 2.933 2.323 4.28 0.902 1.335 1.937 2.589 3.078 3.73 1.14 1.141 2.395 2.176 3.73 3.078 1.347 0.91 2.787 1.691 4.28 2.323 3.107 1.314 6.407 1.98 9.809 1.98s6.702-0.666 9.809-1.98c1.493-0.632 2.933-1.413 4.28-2.323 1.335-0.902 2.59-1.937 3.73-3.078 1.141-1.141 2.176-2.395 3.078-3.73 0.91-1.347 1.692-2.787 2.323-4.28 1.314-3.107 1.98-6.407 1.98-9.809s-0.666-6.703-1.98-9.809c-0.631-1.493-1.413-2.933-2.323-4.28-0.902-1.335-1.937-2.59-3.078-3.73-1.14-1.141-2.395-2.176-3.73-3.078-1.347-0.91-2.787-1.692-4.28-2.323-3.107-1.314-6.407-1.98-9.809-1.98"/></g><g transform="translate(56.931 629.31)"><path d="m0 0c-3.257 0-6.415 0.637-9.388 1.895-1.429 0.604-2.807 1.352-4.096 2.223-1.278 0.863-2.48 1.855-3.571 2.947-1.092 1.091-2.084 2.293-2.947 3.57-0.871 1.29-1.619 2.668-2.223 4.097-1.257 2.972-1.895 6.131-1.895 9.388s0.638 6.416 1.895 9.388c0.604 1.429 1.352 2.807 2.223 4.096 0.863 1.278 1.855 2.479 2.947 3.571 1.091 1.092 2.293 2.084 3.571 2.947 1.289 0.871 2.667 1.619 4.096 2.223 2.972 1.258 6.131 1.895 9.388 1.895s6.416-0.637 9.388-1.895c1.429-0.604 2.807-1.352 4.097-2.223 1.277-0.863 2.479-1.855 3.57-2.947 1.092-1.092 2.084-2.293 2.947-3.571 0.871-1.289 1.619-2.667 2.223-4.096 1.257-2.972 1.895-6.131 1.895-9.388s-0.638-6.416-1.895-9.388c-0.604-1.429-1.352-2.807-2.223-4.097-0.863-1.277-1.855-2.479-2.947-3.57-1.091-1.092-2.293-2.084-3.57-2.947-1.29-0.871-2.668-1.619-4.097-2.223-2.972-1.258-6.131-1.895-9.388-1.895" fill="#ffd046"/></g><g transform="translate(72.327 633.97)"><path d="m0 0-34.864 34.863 4.073 4.073 34.864-34.863z"/></g><g transform="translate(41.536 633.97)"><path d="m0 0-4.073 4.073 34.864 34.863 4.072-4.073z"/></g><g transform="translate(41.609 657.13)"><path d="m0 0h-3.317v-2.87h3.317c1.01 0 1.656 0.566 1.656 1.415 0 0.889-0.646 1.455-1.656 1.455m1.656-9.459-1.858 4.528h-3.115v-4.528h-2.061v11.52h5.338c0.848 0 1.373-0.121 1.979-0.485 1.091-0.606 1.778-1.738 1.778-3.031 0-1.294-0.687-2.425-1.859-3.072l2.101-4.932z"/></g><g transform="translate(74.729 657.13)"><path d="m0 0h-3.317v-2.87h3.317c1.01 0 1.656 0.566 1.656 1.415 0 0.889-0.646 1.455-1.656 1.455m1.656-9.459-1.858 4.528h-3.115v-4.528h-2.061v11.52h5.338c0.848 0 1.373-0.121 1.979-0.485 1.091-0.606 1.778-1.738 1.778-3.031 0-1.294-0.687-2.425-1.859-3.072l2.101-4.932z"/></g></g><text transform="matrix(1 0 0 -1 44.93 614.93)" fill="black" font-family="Helvetica" font-size="9px"><tspan x="0 8.4960003 13.5 18.504 21.500999" y="0">W10-1</tspan></text><g clip-path="url(#p)"><g transform="translate(296.85 532.07)"><path d="m0 0c-0.899 0-1.745 0.35-2.38 0.985l-32.074 32.075c-0.636 0.635-0.986 1.481-0.986 2.379 0 0.899 0.35 1.744 0.986 2.379l32.073 32.075c0.636 0.635 1.482 0.985 2.381 0.985 0.898 0 1.744-0.35 2.379-0.985l32.075-32.075c1.311-1.311 1.311-3.446 0-4.758l-32.074-32.075c-0.636-0.635-1.482-0.985-2.38-0.985" fill="#ffd046"/></g><g transform="translate(296.85 603.07)"><path d="m0 0c-0.932 0-1.809-0.363-2.468-1.022l-32.074-32.075c-0.659-0.659-1.022-1.535-1.022-2.467 0-0.933 0.363-1.809 1.022-2.468l32.074-32.075c0.659-0.659 1.536-1.022 2.468-1.022s1.809 0.363 2.468 1.022l32.074 32.075c1.361 1.361 1.361 3.575 0 4.935l-32.074 32.075c-0.659 0.659-1.536 1.022-2.468 1.022m0-0.25c0.829 0 1.658-0.316 2.291-0.949l32.074-32.074c1.266-1.266 1.266-3.317 0-4.582l-32.074-32.075c-0.633-0.633-1.462-0.949-2.291-0.949s-1.658 0.316-2.291 0.949l-32.074 32.075c-1.266 1.265-1.266 3.316 0 4.582l32.074 32.074c0.633 0.633 1.462 0.949 2.291 0.949"/></g><g transform="translate(263.12 565.85)"><path d="m0 0c-0.912 0.912-0.912 2.397 0 3.309l32.074 32.075c0.913 0.912 2.397 0.912 3.31 0l32.074-32.075c0.912-0.912 0.912-2.397 0-3.309l-32.074-32.074c-0.913-0.913-2.397-0.913-3.31 0z"/></g><g transform="translate(264.01 566.74)"><path d="m0 0c-0.421 0.421-0.421 1.106 0 1.527l32.074 32.075c0.422 0.421 1.107 0.421 1.528 0l32.074-32.075c0.421-0.421 0.421-1.106 0-1.527l-32.074-32.074c-0.421-0.421-1.106-0.421-1.528 0z" fill="#ffd046"/></g><g><path d="m301.17 563.18h-8.64v8.64h8.64z"/><path d="m301.17 541.58h-8.64v8.64h8.64z"/><path d="m301.17 571.82h-8.64v8.64h8.64z"/><path d="m314.13 571.82h-12.96v8.64h12.96z"/><path d="m292.53 571.82h-12.96v8.64h12.96z"/><path d="m286.75 555.02h-2.279v3.36h2.279zm4.44 0h-2.2v3.36h2.2zm4.519 0h-2.258v3.36h2.258zm4.502 0h-2.234v3.36h2.234zm4.502 0h-2.268v3.36h2.268zm4.468 0h-2.234v3.36h2.234zm-15.73 6.729-2.261-2e-3v-2.261h-2.2v2.261h-2.251v-2.266l-2.268 5e-3v2.263l-2.255-2e-3v-2.266l-2.193 5e-3v-1.122h2.193v-3.338h-2.193v-1.096h2.193v-2.26h2.255v2.26h2.268v-2.26h2.251v2.26h2.2v-2.26h2.261v2.26l2.258 7e-3v-2.268h2.268v2.268l2.241-7e-3v-2.26l2.227-1e-3v2.268l2.273-7e-3v-2.26l2.229-1e-3v2.268l2.238-7e-3v-2.26h2.239l-9e-3 2.267 2.27-7e-3 -2e-3 1.09h-2.268v3.344l2.27 0.026-2e-3 1.091-2.259 5e-3v2.261h-2.239l-4e-3 -2.266h-2.234v2.268h-2.234v-2.268h-2.268v2.268l-2.227-2e-3 -7e-3 -2.266h-2.234v2.268h-2.268v-2.268l-2.258 5e-3z"/></g></g><text transform="matrix(1 0 0 -1 281.43 519.47)" fill="black" font-family="Helvetica" font-size="9px"><tspan x="0 8.4960003 13.5 18.504 21.500999 25.8417" y="0">W10-11</tspan></text><g clip-path="url(#o)"><g transform="translate(499.95 532.07)"><path d="m0 0c-0.898 0-1.744 0.35-2.379 0.985l-32.075 32.075c-0.635 0.635-0.985 1.481-0.985 2.379 0 0.899 0.35 1.744 0.986 2.379l32.073 32.075c0.636 0.635 1.482 0.985 2.38 0.985s1.744-0.35 2.379-0.985l32.075-32.075c0.635-0.635 0.985-1.48 0.985-2.379 0-0.898-0.35-1.744-0.985-2.379l-32.074-32.075c-0.636-0.635-1.482-0.985-2.38-0.985" fill="#ffd046"/></g><g transform="translate(499.95 603.07)"><path d="m0 0c-0.932 0-1.809-0.363-2.468-1.022l-32.074-32.075c-1.361-1.36-1.361-3.574 0-4.935l32.074-32.075c0.659-0.659 1.536-1.022 2.468-1.022s1.809 0.363 2.468 1.022l32.074 32.075c0.659 0.659 1.022 1.535 1.022 2.468 0 0.932-0.363 1.808-1.022 2.467l-32.074 32.075c-0.659 0.659-1.536 1.022-2.468 1.022m0-0.25c0.829 0 1.658-0.316 2.291-0.949l32.074-32.074c1.266-1.266 1.266-3.317 0-4.582l-32.074-32.075c-0.633-0.633-1.462-0.949-2.291-0.949s-1.658 0.316-2.291 0.949l-32.074 32.075c-1.266 1.265-1.266 3.316 0 4.582l32.074 32.074c0.633 0.633 1.462 0.949 2.291 0.949"/></g><g transform="translate(466.22 565.85)"><path d="m0 0c-0.912 0.912-0.912 2.397 0 3.309l32.074 32.075c0.913 0.912 2.397 0.912 3.31 0l32.074-32.075c0.912-0.912 0.912-2.397 0-3.309l-32.074-32.074c-0.913-0.913-2.397-0.913-3.31 0z"/></g><g transform="translate(467.11 566.74)"><path d="m0 0c-0.421 0.421-0.421 1.106 0 1.527l32.074 32.075c0.421 0.421 1.107 0.421 1.528 0l32.074-32.075c0.421-0.421 0.421-1.106 0-1.527l-32.074-32.074c-0.421-0.421-1.107-0.421-1.528 0z" fill="#ffd046"/></g><g transform="translate(504.27 542.67)"><path d="m0 0h-8.64v11.009l8.64 8.647z" fill-rule="evenodd"/></g><g transform="translate(495.63 592.35)"><path d="m0 0h8.64v-11.009l-8.64-8.647z" fill-rule="evenodd"/></g><g transform="translate(508.47 573.6)"><path d="m0 0-2.44 2.44 1.655 1.654 2.439-2.44zm-3.223-3.223-2.44 2.439 1.597 1.597 2.44-2.439zm-3.281-3.281-2.44 2.439 1.64 1.64 2.439-2.44zm-3.268-3.268-2.44 2.439 1.622 1.622 2.439-2.44zm-3.269-3.269-2.439 2.44 1.646 1.646 2.44-2.439zm-3.243-3.243-2.44 2.439 1.622 1.622 2.44-2.44zm20.375 18.777 1.595 1.588-0.814 0.814-1.592-1.592-2.423 2.424 1.591 1.591-0.796 0.796-1.591-1.591-1.641 1.641-1.638-1.638 1.641-1.641-1.646-1.646-1.641 1.641-1.634-1.634 1.641-1.641-1.597-1.598-1.641 1.642-1.642-1.642 1.642-1.641-1.635-1.644-1.647 1.646-1.646-1.646 1.646-1.647-1.631-1.621-1.641 1.641-1.618-1.617 1.647-1.646-1.655-1.646-1.642 1.642-1.618-1.618 1.647-1.647-1.63-1.619-1.641 1.641-1.626-1.626 1.653-1.639-1.653-1.644 0.793-0.789 1.646 1.646 2.428-2.427-1.629-1.667 0.794-0.791 1.643 1.636 1.641-1.641 1.626 1.626-1.642 1.647 1.622 1.622 1.646-1.646 1.622 1.622-1.647 1.646 1.647 1.647 1.646-1.647 1.616 1.619-1.64 1.649 1.622 1.622 1.646-1.646 1.646 1.646-1.646 1.647 1.643 1.636 1.643-1.643 1.64 1.643-1.642 1.641 1.598 1.597 1.641-1.641 1.634 1.634-1.645 1.645 1.65 1.643 1.643-1.643 1.636 1.639z"/></g></g><text transform="matrix(1 0 0 -1 484.19 519.47)" fill="black" font-family="Helvetica" font-size="9px"><tspan x="0 8.4960003 13.5 18.504 21.500999 26.504999" y="0">W10-12</tspan></text><text transform="matrix(1 0 0 -1 119.09 387.58)" fill="black" font-family="Helvetica" font-size="8px"><tspan x="0 5.776 10.224 12.448 16.896 19.120001 21.203199 26.0912 30.5392 34.987202 37.211201 44.763199 49.211201 53.659199 56.3232 60.183201 64.631203 66.855202 70.855202 72.631203 77.079201 81.527199 83.751198 85.527199 89.527199 91.751198 96.199203 98.423203 105.9752 110.4232 114.8712 117.5352 121.9832 124.2072 128.2072 129.9832 134.4312 138.8792 141.1032 147.7672 152.21519 156.66319 158.43919 160.66319 162.43919 166.88721 171.33521 173.5592 175.7832 180.2312 182.8952 185.1192 189.5672 194.0152 198.4632 205.1272 209.5752 211.79919 214.4632 216.2392 220.2392 224.2392 226.4632 228.68719 234.91119 237.13519 241.58321 246.0312 248.69521 250.9192 254.9192 256.69519 261.14319 265.59119 269.59119 271.81519 275.81519 280.26321 284.71121 286.93521 291.38321 295.83121 298.05521 302.5032 305.16721 306.94321 311.3912 315.8392 318.0632 322.5112 326.9592" y="0">Note: The W10-11 sign is a W10-3 sign modified for geometrics. Other signs can be oriented </tspan><tspan x="24 28.448 31.112 33.335999 36 40.448002 44.448002 46.223999 50.223999 54.672001 59.119999 61.344002 65.792 69.792 72.015999 76.463997 80.912003 85.360001 89.807999 94.255997 98.704002 100.928 103.152 107.6 109.824 114.272 118.72 120.944 123.168 127.616 130.28 132.504 136.952 141.39999 144.064 146.28799 148.952 153.39999 157.39999 159.62399 161.84801 166.29601 170.744 172.968 177.416 181.864 186.312 192.976 197.424 199.64799 202.312 204.088 208.088 212.088 214.312 218.75999 220.98399 223.20799 225.43201 229.88 234.328 236.552 239.216 243.664 248.112 252.56 258.336 262.784 266.784 270.784 273.008 277.45599 281.90399 286.35199 288.57599 290.79999 295.24799 299.69601 301.92001 304.14401 306.80801 311.25601 315.25601 319.25601 323.25601" y="8.4960003">or revised as needed to better portray the geometrics of the roadways and the tracks.</tspan></text><g clip-path="url(#n)"><g transform="translate(530.37 646.62)"><path d="m0 0h-30.24c-1.188 0-2.16 0.972-2.16 2.16v30.24c0 1.188 0.972 2.16 2.16 2.16h30.24c1.188 0 2.16-0.972 2.16-2.16v-30.24c0-1.188-0.972-2.16-2.16-2.16"/></g><g transform="translate(507.84 652.46)"><path d="m0 0 0.609 1.13h13.711l0.609-1.13zm1.827 3.392h11.274l0.483-0.886h-12.274zm10.634 1.281h-9.994l0.341 0.574h9.34zm-12.899 2.298 1e-3 0.575h16.051v-0.575zm-9e-3 3.085c0.226 0.324 0.651 0.455 1.022 0.314 0.213-0.081 0.355-0.236 0.462-0.428 0.105 0.193 0.246 0.348 0.458 0.43 0.366 0.139 0.797 4e-3 1.02-0.315 0.202-0.289 0.203-0.669 4e-3 -0.96-0.222-0.325-0.655-0.463-1.024-0.322-0.212 0.082-0.352 0.236-0.458 0.428-0.107-0.192-0.25-0.341-0.462-0.423-0.374-0.145-0.795-0.014-1.023 0.315-0.198 0.287-0.198 0.673 1e-3 0.961m-0.014 9.143 7.185 0.577v-6.519h-7.876zm3.064 3.34h9.694v-2.211h-9.694zm4.88 1.592c0.267 0 0.485-0.128 0.485-0.285 0-0.158-0.218-0.286-0.485-0.286s-0.485 0.128-0.485 0.286c0 0.157 0.218 0.285 0.485 0.285m8.057-14.871c-0.17-0.385-0.558-0.57-0.966-0.503-0.283 0.046-0.467 0.23-0.596 0.471-0.104-0.194-0.246-0.353-0.46-0.433-0.363-0.136-0.797-0.013-1.018 0.31-0.201 0.293-0.204 0.666-7e-3 0.963 0.221 0.332 0.655 0.464 1.025 0.319 0.219-0.085 0.349-0.229 0.46-0.423 0.106 0.191 0.249 0.343 0.458 0.425 0.368 0.145 0.804 4e-3 1.025-0.321 0.164-0.242 0.199-0.54 0.079-0.808m0.028 10.008 0.621-6.011h-8.013v6.494zm2.554-20.7-0.78 1.504h-1.191l-0.612 1.124h1.171l-0.681 1.333h-1.264l-0.451 0.913h1.193l-0.709 1.231h-1.155l-0.374 0.583h4.153-0.056l-0.017 2.109-0.323 0.456 0.394 3.297-1.205 9.246c-0.079 0.608-0.227 1.214-0.602 1.715-0.216 0.289-0.49 0.544-0.8 0.732-0.243 0.146-0.513 0.23-0.798 0.23h-5.706c0.49 0.19 0.819 0.539 0.819 0.937 0 0.102-0.022 0.201-0.062 0.295h3.947v-0.32c0-0.177 0.147-0.321 0.325-0.321h0.15c0.179 0 0.325 0.144 0.325 0.321v0.32h8e-3v0.85h-12.63v-0.85h3e-3v-0.32c0-0.177 0.147-0.321 0.325-0.321h0.15c0.179 0 0.325 0.144 0.325 0.321v0.32h3.864c-0.04-0.094-0.062-0.193-0.062-0.295 0-0.398 0.33-0.747 0.819-0.937h-4.294c-0.503 0-1.023-3e-3 -1.513-0.141-0.492-0.138-0.925-0.415-1.285-0.771-0.387-0.381-0.675-0.857-0.745-1.4l-1.181-9.2 0.419-3.753-0.278-0.39-9e-3 -2.13h3.903l-0.346-0.583h-1.21l-0.644-1.231h1.183l-0.52-0.913h-1.183l-0.715-1.333h1.193l-0.612-1.124h-1.192l-0.882-1.504h1.266l-0.446-0.796 1.177-9e-3 0.485 0.805h16.557l0.451-0.805 1.211 9e-3 -0.412 0.796z" fill="#fff200"/></g></g><text transform="matrix(1 0 0 -1 502 633.93)" fill="black" font-family="Helvetica" font-size="9px"><tspan x="0 8.4960003 13.5 18.504 21.500999" y="0">W10-7</tspan><tspan x="-6.507 -0.50400001 3.9960001 6.4980001 8.4960003 12.996 18 20.502001 25.506001 30.51" y="9.5039997">Activated </tspan><tspan x="-6.7589998 -0.75599998 1.242 6.2459998 11.25 15.75 18.747 25.749001 30.753" y="19.007999">Blank-Out</tspan></text><text transform="matrix(1 0 0 -1 67.012 424.35)" fill="black" font-family="Helvetica" font-size="9px"><tspan x="0 8.4960003 13.5 18.504 21.500999 26.504999 31.509001" y="0">W10-13P</tspan><tspan x="27.531 36.027 41.030998 46.035 49.032001 54.035999 59.040001" y="-190.56599">W10-1aP</tspan></text><g clip-path="url(#m)"><g transform="translate(98.112 627.39)"><path d="m0 0c-1.26 0-2.285 1.025-2.285 2.285v12.96c0 1.26 1.025 2.285 2.285 2.285h30.24c1.26 0 2.285-1.025 2.285-2.285v-12.96c0-1.26-1.025-2.285-2.285-2.285z" fill="#ffd046"/></g><g transform="translate(128.35 645.04)"><path d="m0 0h-30.24c-1.329 0-2.41-1.081-2.41-2.41v-12.96c0-1.329 1.081-2.41 2.41-2.41h30.24c1.329 0 2.41 1.081 2.41 2.41v12.96c0 1.329-1.081 2.41-2.41 2.41m0-0.25c1.188 0 2.16-0.972 2.16-2.16v-12.96c0-1.188-0.972-2.16-2.16-2.16h-30.24c-1.188 0-2.16 0.972-2.16 2.16v12.96c0 1.188 0.972 2.16 2.16 2.16z"/></g><g transform="translate(98.111 628.05)"><path d="m0 0c-0.893 0-1.62 0.727-1.62 1.62v12.96c0 0.893 0.727 1.62 1.62 1.62h30.24c0.893 0 1.62-0.727 1.62-1.62v-12.96c0-0.893-0.727-1.62-1.62-1.62z"/></g><g transform="translate(98.111 628.95)"><path d="m0 0c-0.397 0-0.72 0.323-0.72 0.72v12.96c0 0.397 0.323 0.72 0.72 0.72h30.24c0.397 0 0.72-0.323 0.72-0.72v-12.96c0-0.397-0.323-0.72-0.72-0.72z" fill="#ffd046"/></g><g transform="translate(99.572 639.03)"><path d="m0 0h3.391v-0.909h-2.482v-1.415h1.675v-0.93h-1.675v-1.577h2.663v-0.929h-3.572z"/></g><g transform="translate(105.68 635.2)"><path d="m0 0-0.929-1.92h-1.031l1.434 2.97-1.334 2.79h1.031l0.829-1.718 0.829 1.718h1.031l-1.355-2.79 1.456-2.97h-1.031z"/></g><g transform="translate(108.62 639.03)"><path d="m0 0h3.391v-0.909h-2.482v-1.415h1.675v-0.93h-1.675v-1.577h2.663v-0.929h-3.572z"/></g><g transform="translate(116.76 636.61)"><path d="m0 0-1.336-3.335-1.337 3.335v-3.335h-0.911v5.76h0.911l1.337-3.234 1.336 3.234h0.911v-5.76h-0.911z"/></g><g transform="translate(119.96 636.71)"><path d="m0 0h1.282c0.723 0 0.8 0.521 0.8 0.707 0 0.27-0.203 0.708-0.769 0.708h-1.313zm1.073-0.93h-1.073v-2.506h-0.909v5.76h2.178c1.355 0 1.743-1.101 1.743-1.617 0-0.358-0.196-1.637-1.939-1.637"/></g><g transform="translate(125.55 633.27)"><path d="m0 0h-0.914v4.951h-1.319v0.809h3.573v-0.809h-1.34z"/></g></g><text transform="matrix(1 0 0 -1 451.19 625.12)" fill="black" font-family="Helvetica" font-size="9px"><tspan x="0 8.4960003 13.5 18.504 21.500999 26.504999" y="0">W10-5P</tspan><tspan x="-1.9349999 6.5609999 11.565 16.569 19.566" y="-31.905001">W10-5</tspan></text><g clip-path="url(#l)"><g transform="translate(425.92 646.03)"><path d="m0 0c-0.899 0-1.744 0.35-2.38 0.986l-32.074 32.074c-0.635 0.635-0.985 1.481-0.985 2.379 0 0.899 0.35 1.745 0.986 2.38l32.073 32.074c0.636 0.636 1.481 0.986 2.38 0.986 0.898 0 1.744-0.35 2.38-0.986l32.074-32.074c0.635-0.635 0.985-1.481 0.985-2.38 0-0.898-0.35-1.744-0.986-2.379l-32.073-32.074c-0.636-0.636-1.482-0.986-2.38-0.986" fill="#ffd046"/></g><g transform="translate(425.92 717.04)"><path d="m0 0c-0.932 0-1.809-0.363-2.468-1.022l-32.074-32.074c-0.659-0.66-1.022-1.536-1.022-2.468 0-0.933 0.363-1.809 1.022-2.468l32.074-32.075c0.659-0.659 1.536-1.022 2.468-1.022s1.809 0.363 2.468 1.022l32.074 32.075c0.659 0.659 1.022 1.535 1.022 2.468 0 0.932-0.363 1.808-1.022 2.468l-32.074 32.074c-0.659 0.659-1.536 1.022-2.468 1.022m0-0.25c0.829 0 1.658-0.316 2.291-0.949l32.074-32.074c1.266-1.266 1.266-3.317 0-4.582l-32.074-32.075c-0.633-0.632-1.462-0.949-2.291-0.949s-1.658 0.317-2.291 0.949l-32.074 32.075c-1.266 1.265-1.266 3.316 0 4.582l32.074 32.074c0.633 0.633 1.462 0.949 2.291 0.949"/></g><g transform="translate(392.19 679.82)"><path d="m0 0c-0.912 0.912-0.912 2.397 0 3.309l32.074 32.075c0.913 0.912 2.397 0.912 3.31 0l32.074-32.075c0.912-0.912 0.912-2.397 0-3.309l-32.074-32.074c-0.913-0.913-2.397-0.913-3.31 0z"/></g><g transform="translate(393.08 680.71)"><path d="m0 0c-0.421 0.421-0.421 1.106 0 1.527l32.074 32.075c0.421 0.421 1.107 0.421 1.528 0l32.074-32.075c0.421-0.421 0.421-1.106 0-1.527l-32.074-32.074c-0.421-0.421-1.107-0.421-1.528 0z" fill="#ffd046"/></g><g transform="translate(447.03 682.39)"><path d="m0 0c-0.356-0.236-0.035-0.836 0.384-0.913l4.108-0.748v-1.089l-20.043 3.502 7.03-4.192-1.37 0.101 2.64-3.716-5.323 4.345h0.875l-3.955 3.48-1.378 0.241 0.092-0.482h1.164l0.324-0.935h-1.31l0.095-0.497h1.387l0.399-1.152h-1.566l0.117-0.613h1.662l0.467-1.349h-1.871l0.12-0.63h1.969l0.572-1.649h-2.226l0.152-0.797h2.35l0.618-1.785h-2.628l0.202-1.056h2.792l0.766-2.212h-3.136l0.317-1.66h3.394l1.098-3.169h-3.887l0.577-3.019h-2.212l-0.453 3.019h-10.445l-0.343-3.019h-2.211l0.497 3.019h-3.733l1 3.169h3.254l0.273 1.66h-3.002l0.698 2.212h2.668l0.174 1.056h-2.509l0.564 1.785h2.239l0.131 0.797h-2.119l0.521 1.649h1.87l0.103 0.63h-1.775l0.426 1.349h1.571l0.101 0.613h-1.478l0.364 1.152h1.304l0.082 0.497h-1.23l0.296 0.935h1.087l0.08 0.482-24.085-3.807v0.741l10.197 1.765c-0.461 0.25-0.846 0.666-1.022 1.167l-0.756 0.67c-0.261 0.232-0.241 0.647 0.042 0.852l0.158 0.115v4.085c0 0.399 0.323 0.721 0.721 0.721h1.818c0.507 0 0.977 0.261 1.246 0.69l1.201 1.913c0.194 0.31 0.535 0.497 0.9 0.496l1.951-0.01c0.334 0 0.604-0.272 0.603-0.606l-0.015-3.721c-2e-3 -0.279 0.223-0.506 0.502-0.508l3.945-0.027c-0.049 0.297-0.292 0.525-0.592 0.555l-2.619 0.265 0.438 1.1 4.606 0.202 3.452-4.287 8.211-0.327 2.854 2.705-0.598 0.741 4.74 4.593-2.471-4.368 1.134-0.752-4.49-2.953 9.891-0.404c0.316 0.826 1.117 1.414 2.055 1.414 1.006 0 1.849-0.683 2.111-1.605l2.729-0.101 0.213-1.292h-3.002c-0.166-0.427-0.462-0.784-0.839-1.033m-26.006 2.007 2.651 3e-3c0.151 0 0.235 0.173 0.142 0.292l-1.895 2.421-1.545-0.614c0.11-0.252 0.174-0.529 0.179-0.821 0.011-0.544-0.181-1.046-0.506-1.432zm-3.671-0.649c-0.514 0.285-0.9 0.774-1.047 1.36l-5.274-1.035c2e-3 -0.032 3e-3 -0.065 3e-3 -0.097 0-0.55-0.209-1.052-0.551-1.43zm9.005 6.083 1.37-0.1-7.286 4.345 4.108-3.616h-0.875l5.323-4.345zm-18.445-7.731m36.534 0.401c-0.082 0.07-0.16 0.149-0.234 0.233-0.182 0.209-0.317 0.442-0.407 0.687h-5.361c-0.21 0-0.237-0.305-0.03-0.342l5.521-0.978c0.255-0.046 0.494 0.141 0.511 0.4m-22.335-6.407-0.091-0.797h7.84l-0.119 0.797zm-0.665-5.85-0.188-1.66h9.609l-0.249 1.66zm0.372 3.268-0.12-1.056h8.588l-0.158 1.056zm25.211 8.878m-24.659-4.017-0.072-0.63h7.196l-0.095 0.63zm0.223 1.962-0.07-0.613h6.674l-0.092 0.613zm0.187 1.649-0.056-0.497h6.208l-0.074 0.497zm0.161 1.413-0.054-0.478h5.831l-0.072 0.478z"/></g><g transform="translate(406.48 610.98)"><path d="m0 0c-1.26 0-2.285 1.025-2.285 2.285v30.24c0 1.26 1.025 2.285 2.285 2.285h38.88c1.26 0 2.285-1.025 2.285-2.285v-30.24c0-1.26-1.025-2.285-2.285-2.285z" fill="#ffd046"/></g><g transform="translate(445.36 645.91)"><path d="m0 0h-38.88c-1.329 0-2.41-1.081-2.41-2.41v-30.24c0-1.329 1.081-2.41 2.41-2.41h38.88c1.329 0 2.41 1.081 2.41 2.41v30.24c0 1.329-1.081 2.41-2.41 2.41m0-0.25c1.193 0 2.16-0.967 2.16-2.16v-30.24c0-1.193-0.967-2.16-2.16-2.16h-38.88c-1.193 0-2.16 0.967-2.16 2.16v30.24c0 1.193 0.967 2.16 2.16 2.16z"/></g><g transform="translate(406.48 611.64)"><path d="m0 0c-0.893 0-1.62 0.727-1.62 1.62v30.24c0 0.893 0.727 1.62 1.62 1.62h38.88c0.893 0 1.62-0.727 1.62-1.62v-30.24c0-0.893-0.727-1.62-1.62-1.62z"/></g><g transform="translate(406.48 612.54)"><path d="m0 0c-0.397 0-0.72 0.323-0.72 0.72v30.24c0 0.397 0.323 0.72 0.72 0.72h38.88c0.397 0 0.72-0.323 0.72-0.72v-30.24c0-0.397-0.323-0.72-0.72-0.72z" fill="#ffd046"/></g><g transform="translate(406.98 638.46)"><path d="m0 0h0.905v-6.367h1.833v-0.833h-2.738z"/></g><g transform="translate(411.22 634.85)"><path d="m0 0c0-1.258 0.018-2.779 0.708-2.779 0.691 0 0.708 1.521 0.708 2.779s-0.017 2.779-0.708 2.779c-0.69 0-0.708-1.521-0.708-2.779m0.708-3.713c-1.616 0-1.657 2.032-1.657 3.713s0.041 3.713 1.657 3.713c1.617 0 1.657-2.032 1.657-3.713s-0.04-3.713-1.657-3.713"/></g><g transform="translate(417.11 631.26)"><path d="m0 0-0.686 4.042-0.66-4.042h-0.788l-0.844 7.2h0.939l0.387-3.334 0.586 3.334h0.786l0.586-3.334 0.386 3.334h0.94l-0.844-7.2z"/></g><g transform="translate(409.26 625.6)"><path d="m0 0c0.813 0 1.344-0.505 1.422-1.389h-0.94c-0.025 0.304-0.203 0.456-0.457 0.456-0.452 0-0.761-0.387-0.761-2.779 0-2.393 0.308-2.78 0.761-2.78 0.383 0 0.457 0.443 0.457 0.885h0.94c0-0.471 0.066-1.819-1.421-1.819-1.3 0-1.677 0.996-1.677 3.714 0 3.193 0.691 3.712 1.676 3.712"/></g><g transform="translate(412.05 625.5)"><path d="m0 0h0.904v-6.367h1.834v-0.833h-2.738z"/></g><g transform="translate(415.8 625.5)"><path d="m0 0h2.637v-0.935h-1.733v-1.844h1.156v-0.96h-1.156v-2.526h1.834v-0.935h-2.738z"/></g><g transform="translate(420.65 621.16)"><path d="m0 0h0.783l-0.379 1.895zm0.985-0.935h-1.187l-0.405-1.92h-0.934l1.465 7.2h0.935l1.49-7.2h-0.959z"/></g><g transform="translate(426.17 623.5)"><path d="m0 0c0 0.815-0.178 1.061-0.809 1.061h-0.443v-1.97h0.595c0.505 0 0.657 0.227 0.657 0.909m0.178-1.619 0.733-3.585h-0.987l-0.686 3.36h-0.49v-3.36h-0.91v7.2h1.403c1.115 0 1.695-0.682 1.695-2.021 0-0.69-0.204-1.285-0.758-1.594"/></g><g transform="translate(429.22 621.16)"><path d="m0 0h0.783l-0.379 1.895zm0.984-0.935h-1.186l-0.405-1.92h-0.934l1.465 7.2h0.935l1.49-7.2h-0.96z"/></g><g transform="translate(433.49 622.57)"><path d="m0 0v-4.27h-0.908v7.2h0.908l1.284-3.587v3.587h0.906v-7.2h-0.782z"/></g><g transform="translate(438.72 625.6)"><path d="m0 0c0.813 0 1.345-0.505 1.422-1.389h-0.94c-0.025 0.304-0.203 0.456-0.457 0.456-0.452 0-0.761-0.387-0.761-2.779 0-2.393 0.308-2.78 0.761-2.78 0.383 0 0.457 0.443 0.457 0.885h0.94c0-0.471 0.067-1.819-1.421-1.819-1.3 0-1.677 0.996-1.677 3.714 0 3.193 0.691 3.712 1.676 3.712"/></g><g transform="translate(441.51 625.5)"><path d="m0 0h2.637v-0.935h-1.732v-1.844h1.155v-0.96h-1.155v-2.526h1.833v-0.935h-2.738z"/></g><g transform="translate(423.12 638.56)"><path d="m0 0c0.813 0 1.346-0.506 1.422-1.39h-0.94c-0.025 0.304-0.203 0.455-0.457 0.455-0.452 0-0.761-0.385-0.761-2.778 0-2.392 0.309-2.779 0.761-2.779 0.383 0 0.483 0.443 0.483 0.885v0.859h-0.431v0.935h1.345v-1.794c0-0.471 0.068-1.819-1.42-1.819-1.3 0-1.678 0.996-1.678 3.713 0 3.194 0.691 3.713 1.676 3.713"/></g><g transform="translate(427.66 636.46)"><path d="m0 0c0 0.815-0.178 1.061-0.809 1.061h-0.443v-1.97h0.595c0.505 0 0.657 0.227 0.657 0.909m0.178-1.619 0.733-3.585h-0.987l-0.686 3.36h-0.49v-3.36h-0.91v7.2h1.403c1.115 0 1.695-0.682 1.695-2.021 0-0.69-0.204-1.285-0.758-1.594"/></g><g transform="translate(430.2 634.85)"><path d="m0 0c0-1.258 0.018-2.779 0.708-2.779s0.708 1.521 0.708 2.779-0.018 2.779-0.708 2.779-0.708-1.521-0.708-2.779m0.708-3.713c-1.616 0-1.657 2.032-1.657 3.713s0.041 3.713 1.657 3.713c1.617 0 1.657-2.032 1.657-3.713s-0.04-3.713-1.657-3.713"/></g><g transform="translate(433.53 633.03)"><path d="m0 0v5.432h0.909v-5.559c0-0.53 0.22-0.833 0.65-0.833 0.404 0 0.631 0.303 0.631 0.833v5.559h0.908v-5.432c0-1.502-0.791-1.894-1.539-1.894-0.814 0-1.559 0.45-1.559 1.894"/></g><g transform="translate(438.64 635.53)"><path d="m0 0v-4.27h-0.908v7.2h0.908l1.284-3.587v3.587h0.906v-7.2h-0.782z"/></g><g transform="translate(442.85 637.53)"><path d="m0 0v-5.33h0.578c0.702 0 0.668 1.081 0.668 2.675 0 2.384-0.221 2.655-0.668 2.655zm-0.908-6.265v7.2h1.486c0.604 0 1.612-0.031 1.612-3.587s-1.008-3.613-1.612-3.613z"/></g></g><text transform="matrix(1 0 0 -1 53.072 519.47)" fill="black" font-family="Helvetica" font-size="9px"><tspan x="0 8.4960003 13.5 18.504 21.500999" y="0">W10-8</tspan></text><g clip-path="url(#k)"><g transform="translate(66.326 532.07)"><path d="m0 0c-0.899 0-1.744 0.35-2.379 0.985l-32.075 32.075c-0.635 0.635-0.985 1.481-0.985 2.379 0 0.899 0.35 1.744 0.985 2.379l32.075 32.075c0.635 0.635 1.48 0.985 2.379 0.985s1.744-0.35 2.379-0.985l32.075-32.075c1.311-1.311 1.311-3.446 0-4.758l-32.075-32.075c-0.635-0.635-1.48-0.985-2.379-0.985" fill="#ffd046"/></g><g transform="translate(66.326 603.07)"><path d="m0 0c-0.932 0-1.809-0.363-2.468-1.022l-32.074-32.075c-1.361-1.36-1.361-3.574 0-4.935l32.074-32.075c0.659-0.659 1.536-1.022 2.468-1.022s1.809 0.363 2.468 1.022l32.074 32.075c1.361 1.361 1.361 3.575 0 4.935l-32.074 32.075c-0.659 0.659-1.536 1.022-2.468 1.022m0-0.25c0.829 0 1.658-0.316 2.291-0.949l32.074-32.074c1.266-1.266 1.266-3.317 0-4.582l-32.074-32.075c-0.633-0.633-1.462-0.949-2.291-0.949s-1.658 0.316-2.291 0.949l-32.074 32.075c-1.266 1.265-1.266 3.316 0 4.582l32.074 32.074c0.633 0.633 1.462 0.949 2.291 0.949"/></g><g transform="translate(32.597 565.85)"><path d="m0 0c-0.912 0.912-0.912 2.397 0 3.309l32.074 32.075c0.913 0.912 2.397 0.912 3.31 0l32.074-32.075c0.912-0.912 0.912-2.397 0-3.309l-32.074-32.074c-0.913-0.913-2.397-0.913-3.31 0z"/></g><g transform="translate(33.488 566.74)"><path d="m0 0c-0.421 0.421-0.421 1.106 0 1.527l32.074 32.075c0.421 0.421 1.107 0.421 1.528 0l32.074-32.075c0.421-0.421 0.421-1.106 0-1.527l-32.074-32.074c-0.421-0.421-1.107-0.421-1.528 0z" fill="#ffd046"/></g><g transform="translate(55.249 574.71)"><path d="m0 0h-1.039v6.24h-1.317v0.96h3.674v-0.96h-1.318z"/></g><g transform="translate(58.608 580.89)"><path d="m0 0v-1.819h1.058c0.607 0 0.934 0.329 0.934 0.91 0 0.556-0.378 0.909-0.933 0.909zm0.984-2.804h-0.984v-3.385h-1.033v7.2h2.143c1.129 0 1.89-0.758 1.89-1.92 0-0.859-0.353-1.49-1.034-1.743l1.033-3.537h-1.057z"/></g><g transform="translate(64.029 577.69)"><path d="m0 0h1.038l-0.531 2.072zm1.291-1.011h-1.544l-0.481-1.97h-1.039l1.798 7.2h1.014l1.798-7.2h-1.039z"/></g><path d="m67.874 581.9h1.008v-7.2h-1.008z"/><g transform="translate(71.499 579.53)"><path d="m0 0v-4.825h-1.033v7.2h1.033l1.966-4.32v4.32h1.034v-7.2h-0.781z"/></g><g transform="translate(77.753 575.59)"><path d="m0 0c0.558 0 1.014 0.506 1.014 1.087-1e-3 1.534-2.688 1.53-2.688 3.488 0 1.036 0.812 1.868 1.851 1.868 1.015 0 1.802-0.782 1.827-1.869h-0.991c-0.025 0.505-0.38 0.833-0.837 0.833-0.482 0-0.862-0.353-0.862-0.832 0-0.431 0.271-0.603 0.607-0.814 0.974-0.588 2.082-1.297 2.082-2.675 0-1.165-0.888-2.097-2.004-2.097-1.268 0-2.028 1.073-2.028 2.25h1.016c0-0.613 0.303-1.239 1.013-1.239"/></g><g transform="translate(49.367 558.51)"><path d="m0 0c0-0.581 0.381-0.96 0.913-0.96 0.51 0 0.889 0.385 0.889 0.96 0 0.53-0.372 0.91-0.889 0.91-0.532 0-0.913-0.375-0.913-0.91m-0.101-3.284c0-0.734 0.405-1.238 1.014-1.238 0.61 0 1.016 0.505 1.016 1.238 0 0.778-0.407 1.288-1.016 1.288-0.612 0-1.014-0.505-1.014-1.288m1.014-2.248c-1.682 0-2.029 1.559-2.029 2.248 0 0.714 0.228 1.339 0.685 1.794-0.381 0.404-0.583 0.909-0.583 1.49 0 1.112 0.785 1.919 1.927 1.919 1.116 0 1.903-0.808 1.903-1.92 0-0.581-0.202-1.112-0.583-1.491 0.457-0.429 0.685-1.085 0.685-1.792 0-0.689-0.322-2.248-2.005-2.248"/></g><g transform="translate(55.489 559.42)"><path d="m0 0c-0.205 0-1.132 0.042-1.132-2.706 0-2.768 0.927-2.726 1.132-2.726s1.132-0.042 1.132 2.726c0 2.748-0.927 2.706-1.132 2.706m-2.125-2.704c0 3.772 1.75 3.713 2.138 3.713s2.112 0.057 2.112-3.714c0-3.797-1.724-3.737-2.112-3.737s-2.138-0.059-2.138 3.738"/></g><g transform="translate(69.25 557.15)"><path d="m0 0-1.341-4.042-1.341 4.042v-4.042h-1.037v7.2h1.037l1.341-4.042 1.341 4.042h1.037v-7.2h-1.037z"/></g><g transform="translate(74.489 557.25)"><path d="m0 0h1.058c0.605 0 0.934 0.378 0.934 1.035 0 0.607-0.382 1.011-0.933 1.011h-1.059zm0-0.985v-3.159h-1.033v7.2h2.143c1.135 0 1.891-0.811 1.891-2.021 0-1.314-0.682-2.02-1.891-2.02z"/></g><g transform="translate(83.37 556.36)"><path d="m0 0h-1.967v-3.259h-1.033v7.2h1.033v-2.93h1.966v2.93h1.034v-7.2h-1.033z"/></g><g transform="translate(45.807 567.95)"><path d="m0 0-1.341-4.042-1.341 4.042v-4.042h-1.037v7.2h1.037l1.341-4.042 1.341 4.042h1.037v-7.2h-1.037z"/></g><g transform="translate(49.625 566.89)"><path d="m0 0h1.039l-0.532 2.072zm1.291-1.011h-1.544l-0.481-1.97h-1.039l1.798 7.2h1.015l1.797-7.2h-1.039z"/></g><g transform="translate(55.706 563.91)"><path d="m0 0h-1.038v3.259l-1.773 3.941h1.089l1.215-2.602 1.191 2.602h1.114l-1.798-3.941z"/></g><g transform="translate(61.824 571.11)"><path d="m0 0h3.395v-1.011h-2.356v-1.819h1.494v-0.985h-1.494v-2.375h2.635v-1.01h-3.674z"/></g><g transform="translate(68.258 566.36)"><path d="m0 0-1.018-2.45h-1.094l1.577 3.739-1.475 3.461h1.094l0.916-2.172 0.916 2.172h1.094l-1.45-3.461 1.577-3.739h-1.119z"/></g><g transform="translate(74.253 569.19)"><path d="m0 0c-0.1 0.707-0.38 1.036-0.862 1.036-0.837 0-1.142-0.657-1.142-2.526 0-2.071 0.355-2.905 1.243-2.905 0.61 0 0.761 0.506 0.761 1.036h1.04c-0.025-1.187-0.785-2.046-1.801-2.046-1.547 0-2.232 1.237-2.232 3.89 0 2.323 0.735 3.56 2.156 3.56 1.319 0 1.842-1.204 1.877-2.045z"/></g><g transform="translate(76.733 571.11)"><path d="m0 0h3.395v-1.011h-2.357v-1.819h1.494v-0.985h-1.494v-2.375h2.636v-1.01h-3.674z"/></g><g transform="translate(81.631 571.11)"><path d="m0 0h3.395v-1.011h-2.357v-1.819h1.494v-0.985h-1.494v-2.375h2.636v-1.01h-3.674z"/></g><g transform="translate(88.369 570.09)"><path d="m0 0h-0.807v-5.179h0.718c0.842 0 1.273 0.369 1.273 2.552 0 2.53-0.631 2.627-1.184 2.627m-1.84-6.189v7.2h2.054c0.439 0 1.979-0.022 1.979-3.588 0-3.262-1.422-3.612-1.893-3.612z"/></g></g><text transform="matrix(1 0 0 -1 139.06 519.47)" fill="black" font-family="Helvetica" font-size="9px"><tspan x="0 8.4960003 13.5 18.504 21.500999" y="0">W10-9</tspan></text><g clip-path="url(#j)"><g transform="translate(152.31 532.07)"><path d="m0 0c-0.898 0-1.744 0.35-2.379 0.985l-32.075 32.075c-0.635 0.635-0.985 1.481-0.985 2.379 0 0.899 0.35 1.744 0.985 2.379l32.075 32.075c0.635 0.635 1.481 0.985 2.379 0.985 0.899 0 1.744-0.35 2.379-0.985l32.075-32.075c0.635-0.635 0.985-1.48 0.985-2.379 0-0.898-0.35-1.744-0.985-2.379l-32.075-32.075c-0.635-0.635-1.48-0.985-2.379-0.985" fill="#ffd046"/></g><g transform="translate(152.31 603.07)"><path d="m0 0c-0.932 0-1.809-0.363-2.468-1.022l-32.074-32.075c-1.361-1.36-1.361-3.574 0-4.935l32.074-32.075c0.659-0.659 1.536-1.022 2.468-1.022s1.809 0.363 2.468 1.022l32.074 32.075c1.361 1.361 1.361 3.575 0 4.935l-32.074 32.075c-0.659 0.659-1.536 1.022-2.468 1.022m0-0.25c0.829 0 1.658-0.316 2.291-0.949l32.074-32.074c1.266-1.266 1.266-3.317 0-4.582l-32.074-32.075c-0.633-0.633-1.462-0.949-2.291-0.949s-1.658 0.316-2.291 0.949l-32.074 32.075c-1.266 1.265-1.266 3.316 0 4.582l32.074 32.074c0.633 0.633 1.462 0.949 2.291 0.949"/></g><g transform="translate(118.58 565.85)"><path d="m0 0c-0.912 0.912-0.912 2.397 0 3.309l32.074 32.075c0.913 0.912 2.397 0.912 3.31 0l32.074-32.075c0.912-0.912 0.912-2.397 0-3.309l-32.074-32.074c-0.913-0.913-2.397-0.913-3.31 0z"/></g><g transform="translate(119.47 566.74)"><path d="m0 0c-0.421 0.421-0.421 1.106 0 1.527l32.074 32.075c0.421 0.421 1.107 0.421 1.528 0l32.074-32.075c0.421-0.421 0.421-1.106 0-1.527l-32.074-32.074c-0.421-0.421-1.107-0.421-1.528 0z" fill="#ffd046"/></g><g transform="translate(147.07 587.4)"><path d="m0 0v-5.85h-1.363v8.64h1.363l3.154-5.518v5.518h1.365v-8.64h-1.213z"/></g><g transform="translate(156.58 582.79)"><path d="m0 0c0.931 0 1.687 0.882 1.687 3.078s-0.756 3.078-1.687 3.078-1.687-0.881-1.687-3.078c0-2.196 0.756-3.078 1.687-3.078m3.054 3.078c0-0.31 0.066-4.471-3.069-4.471s-3.069 4.161-3.069 4.471-0.066 4.47 3.069 4.47 3.069-4.16 3.069-4.47"/></g><g transform="translate(140.05 566.43)"><path d="m0 0h-1.37v7.427h-1.979v1.213h5.359v-1.213h-2.01z"/></g><g transform="translate(146.44 571.58)"><path d="m0 0c1.084 0 1.255 0.782 1.255 1.061 0 0.376-0.282 1.061-1.189 1.061h-1.782v-2.122zm-1.716-1.393v-3.761h-1.363v8.64h3.125c1.981 0 2.575-1.584 2.575-2.426 0-0.321-0.119-1.585-1.341-2.164l1.523-4.05h-1.487l-1.394 3.761z"/></g><g transform="translate(152.74 570.25)"><path d="m0 0h1.738l-0.855 2.425zm2.225-1.394h-2.713l-0.854-2.426h-1.464l2.989 8.64h1.372l2.987-8.64h-1.463z"/></g><path d="m158.58 575.06h1.382v-8.64h-1.382z"/><g transform="translate(163.4 572.28)"><path d="m0 0v-5.85h-1.363v8.64h1.363l3.154-5.518v5.518h1.365v-8.64h-1.213z"/></g><g transform="translate(142.3 555.06)"><path d="m0 0h-3.155v-3.76h-1.363v8.64h1.363v-3.486h3.154v3.486h1.365v-8.64h-1.364z"/></g><g transform="translate(148.65 552.55)"><path d="m0 0c0.931 0 1.687 0.882 1.687 3.078s-0.756 3.078-1.687 3.078-1.687-0.881-1.687-3.078c0-2.196 0.756-3.078 1.687-3.078m3.054 3.078c0-0.31 0.066-4.471-3.069-4.471s-3.069 4.161-3.069 4.471-0.066 4.47 3.069 4.47 3.069-4.16 3.069-4.47"/></g><g transform="translate(156.68 556.46)"><path d="m0 0c1.084 0 1.255 0.782 1.255 1.06 0 0.377-0.282 1.062-1.189 1.062h-1.782v-2.122zm-1.716-1.393v-3.761h-1.363v8.64h3.125c1.981 0 2.575-1.584 2.575-2.427 0-0.32-0.119-1.584-1.341-2.163l1.523-4.05h-1.487l-1.394 3.761z"/></g><g transform="translate(162.32 557.16)"><path d="m0 0v-5.85h-1.363v8.64h1.363l3.154-5.518v5.518h1.365v-8.64h-1.213z"/></g></g><text transform="matrix(1 0 0 -1 208.4 519.47)" fill="black" font-family="Helvetica" font-size="9px"><tspan x="0 8.4960003 13.5 18.504 21.500999 26.504999" y="0">W10-9P</tspan></text><g clip-path="url(#i)"><g transform="translate(205.14 532.07)"><path d="m0 0c-1.26 0-2.285 1.025-2.285 2.285v30.24c0 1.26 1.025 2.285 2.285 2.285h38.88c1.26 0 2.285-1.025 2.285-2.285v-30.24c0-1.26-1.025-2.285-2.285-2.285z" fill="#ffd046"/></g><g transform="translate(244.02 567)"><path d="m0 0h-38.88c-1.329 0-2.41-1.081-2.41-2.41v-30.24c0-1.329 1.081-2.41 2.41-2.41h38.88c1.329 0 2.41 1.081 2.41 2.41v30.24c0 1.329-1.081 2.41-2.41 2.41m0-0.25c1.193 0 2.16-0.967 2.16-2.16v-30.24c0-1.193-0.967-2.16-2.16-2.16h-38.88c-1.193 0-2.16 0.967-2.16 2.16v30.24c0 1.193 0.967 2.16 2.16 2.16z"/></g><g transform="translate(205.14 532.73)"><path d="m0 0c-0.893 0-1.62 0.727-1.62 1.62v30.24c0 0.893 0.727 1.62 1.62 1.62h38.88c0.893 0 1.62-0.727 1.62-1.62v-30.24c0-0.893-0.727-1.62-1.62-1.62z"/></g><g transform="translate(205.14 533.63)"><path d="m0 0c-0.397 0-0.72 0.323-0.72 0.72v30.24c0 0.397 0.323 0.72 0.72 0.72h38.88c0.397 0 0.72-0.323 0.72-0.72v-30.24c0-0.397-0.323-0.72-0.72-0.72z" fill="#ffd046"/></g><g transform="translate(207.09 539.39)"><path d="m0 0h-0.909v6.265h-0.889v0.935h2.738v-0.935h-0.94z"/></g><g transform="translate(211.2 544.59)"><path d="m0 0c0 0.815-0.178 1.061-0.809 1.061h-0.443v-1.97h0.595c0.505 0 0.657 0.227 0.657 0.909m0.178-1.619 0.733-3.585h-0.987l-0.686 3.36h-0.49v-3.36h-0.91v7.2h1.403c1.116 0 1.695-0.682 1.695-2.021 0-0.689-0.204-1.285-0.758-1.594"/></g><g transform="translate(214.26 542.25)"><path d="m0 0h0.783l-0.379 1.895zm0.985-0.935h-1.187l-0.405-1.92h-0.934l1.465 7.2h0.935l1.49-7.2h-0.959z"/></g><path d="m217.61 546.59h0.936v-7.2h-0.936z"/><g transform="translate(221.04 543.66)"><path d="m0 0v-4.27h-0.908v7.2h0.908l1.285-3.587v3.587h0.905v-7.2h-0.781z"/></g><g transform="translate(219.92 557.23)"><path d="m0 0v-4.875h-1.136v7.2h1.136l2.628-4.598v4.598h1.137v-7.2h-1.01z"/></g><g transform="translate(227.84 553.39)"><path d="m0 0c0.776 0 1.406 0.735 1.406 2.565s-0.63 2.565-1.406 2.565-1.406-0.734-1.406-2.565c0-1.83 0.63-2.565 1.406-2.565m2.545 2.565c0-0.258 0.055-3.726-2.558-3.726-2.612 0-2.557 3.468-2.557 3.726s-0.055 3.725 2.557 3.725c2.613 0 2.558-3.467 2.558-3.725"/></g><g transform="translate(229.02 542.75)"><path d="m0 0h-1.283v-3.36h-0.908v7.2h0.908v-2.905h1.285v2.905h0.905v-7.2h-0.907z"/></g><g transform="translate(232.24 542.98)"><path d="m0 0c0-1.258 0.018-2.779 0.708-2.779 0.691 0 0.708 1.521 0.708 2.779s-0.017 2.779-0.708 2.779c-0.69 0-0.708-1.521-0.708-2.779m0.708-3.713c-1.616 0-1.657 2.032-1.657 3.713s0.041 3.713 1.657 3.713c1.617 0 1.657-2.032 1.657-3.713s-0.04-3.713-1.657-3.713"/></g><g transform="translate(238.14 544.59)"><path d="m0 0c0 0.815-0.178 1.061-0.809 1.061h-0.443v-1.97h0.595c0.505 0 0.657 0.227 0.657 0.909m0.178-1.619 0.733-3.585h-0.987l-0.686 3.36h-0.49v-3.36h-0.91v7.2h1.403c1.115 0 1.695-0.682 1.695-2.021 0-0.689-0.204-1.285-0.758-1.594"/></g><g transform="translate(241.14 543.66)"><path d="m0 0v-4.27h-0.908v7.2h0.908l1.284-3.587v3.587h0.906v-7.2h-0.782z"/></g></g><text transform="matrix(1 0 0 -1 409.75 519.47)" fill="black" font-family="Helvetica" font-size="9px"><tspan x="0 8.4960003 13.5 18.504 21.500999 25.8444 30.8484" y="0">W10-11b</tspan></text><g clip-path="url(#h)"><g transform="translate(408.78 532.07)"><path d="m0 0c-1.558 0-2.825 1.268-2.825 2.825v46.44c0 1.558 1.267 2.825 2.825 2.825h37.8c1.557 0 2.825-1.267 2.825-2.825v-46.44c0-1.557-1.268-2.825-2.825-2.825z" fill="#ffd046"/></g><g transform="translate(446.58 584.28)"><path d="m0 0h-37.8c-1.627 0-2.95-1.323-2.95-2.95v-46.44c0-1.627 1.323-2.95 2.95-2.95h37.8c1.627 0 2.95 1.323 2.95 2.95v46.44c0 1.627-1.323 2.95-2.95 2.95m0-0.25c1.491 0 2.7-1.209 2.7-2.7v-46.44c0-1.491-1.209-2.7-2.7-2.7h-37.8c-1.491 0-2.7 1.209-2.7 2.7v46.44c0 1.491 1.209 2.7 2.7 2.7z"/></g><g transform="translate(447.48 534.89)"><path d="m0 0c0-0.496-0.404-0.9-0.9-0.9h-37.8c-0.496 0-0.9 0.404-0.9 0.9v46.44c0 0.496 0.404 0.9 0.9 0.9h37.8c0.496 0 0.9-0.404 0.9-0.9zm-0.9 48.42h-37.8c-1.092 0-1.98-0.888-1.98-1.98v-46.44c0-1.092 0.888-1.98 1.98-1.98h37.8c1.092 0 1.98 0.888 1.98 1.98v46.44c0 1.092-0.888 1.98-1.98 1.98"/></g><g transform="translate(414.02 578.68)"><path d="m0 0h-0.369v0.627c0.329 0.02 0.533 0.161 0.656 0.404h0.554v-5.76h-0.841z"/></g><g transform="translate(415.84 574.35)"><path d="m0 0 0.549 0.587c0.284-0.203 0.507-0.284 0.792-0.284 0.622 0 1.075 0.566 1.075 1.354 0 0.627-0.304 1.011-0.792 1.011-0.263 0-0.486-0.1-0.689-0.283l-0.792 0.101 0.141 2.87h2.72v-0.809h-1.948l-0.061-1.212c0.283 0.101 0.426 0.121 0.649 0.121 0.934 0 1.583-0.736 1.583-1.84 0-1.211-0.765-2.121-1.806-2.121-0.508 0-0.995 0.182-1.421 0.505"/></g><g transform="translate(421.63 579)"><path d="m0 0c-0.164 0-0.906 0.034-0.906-2.165 0-2.214 0.742-2.18 0.906-2.18s0.906-0.034 0.906 2.18c0 2.199-0.742 2.165-0.906 2.165m-1.7-2.163c0 3.018 1.4 2.97 1.71 2.97s1.69 0.046 1.69-2.971c0-3.037-1.38-2.99-1.69-2.99s-1.71-0.047-1.71 2.991"/></g><g transform="translate(428.48 577.45)"><path d="m0 0h1.155v-0.788h-1.155v-2.708h-0.831v5.76h2.939v-0.809h-2.108z"/></g><g transform="translate(431.4 579.71)"><path d="m0 0h2.716v-0.809h-1.885v-1.455h1.195v-0.788h-1.195v-1.9h2.108v-0.808h-2.939z"/></g><g transform="translate(435.32 579.71)"><path d="m0 0h2.716v-0.809h-1.885v-1.455h1.195v-0.788h-1.195v-1.9h2.108v-0.808h-2.939z"/></g><g transform="translate(440.66 573.95)"><path d="m0 0h-0.831v4.992h-1.054v0.768h2.939v-0.768h-1.054z"/></g><g transform="translate(414.9 565.4)"><path d="m0 0h0.827c0.464 0 0.766 0.323 0.766 0.829 0 0.556-0.333 0.97-0.766 0.97h-0.827zm0 4.143v-1.536h0.867c0.384 0 0.626 0.323 0.626 0.849 0 0.495-0.178 0.687-0.625 0.687zm-0.827-4.952v5.76h1.816c0.764 0 1.31-0.606 1.31-1.495 0-0.528-0.141-0.768-0.604-1.253 0.443-0.364 0.705-0.849 0.705-1.435 0-0.862-0.686-1.577-1.532-1.577z"/></g><g transform="translate(418.28 570.35)"><path d="m0 0h2.716v-0.809h-1.885v-1.455h1.195v-0.788h-1.195v-1.9h2.108v-0.808h-2.939z"/></g><g transform="translate(423.63 564.59)"><path d="m0 0h-0.831v4.992h-1.054v0.768h2.939v-0.768h-1.054z"/></g><g transform="translate(427.76 564.59)"><path d="m0 0-0.547 3.011-0.548-3.011h-0.729l-0.913 5.76h0.811l0.487-3.072 0.567 3.072h0.649l0.548-3.072 0.506 3.072h0.812l-0.933-5.76z"/></g><g transform="translate(430.21 570.35)"><path d="m0 0h2.716v-0.809h-1.885v-1.455h1.195v-0.788h-1.195v-1.9h2.108v-0.808h-2.939z"/></g><g transform="translate(434.13 570.35)"><path d="m0 0h2.716v-0.809h-1.885v-1.455h1.195v-0.788h-1.195v-1.9h2.108v-0.808h-2.939z"/></g><g transform="translate(438.88 568.45)"><path d="m0 0v-3.86h-0.827v5.76h0.827l1.573-3.456v3.456h0.827v-5.76h-0.625z"/></g><g transform="translate(411.02 557.84)"><path d="m0 0h-1.574v-2.607h-0.826v5.76h0.826v-2.345h1.573v2.345h0.828v-5.76h-0.827z"/></g><path d="m412.48 560.99h0.806v-5.76h-0.806z"/><g transform="translate(415.65 555.13)"><path d="m0 0c-0.524 0-1.786 0.097-1.786 2.971 0 2.873 1.2 2.99 1.725 2.99 0.832 0 1.461-0.606 1.502-1.455h-0.833c-0.02 0.385-0.283 0.648-0.689 0.648-0.278 0-0.913-0.087-0.913-2.184s0.695-2.162 0.973-2.162c0.426 0 0.629 0.281 0.629 0.889v0.384h-0.649v0.809h1.482v-1.192c0-1.442-0.949-1.698-1.441-1.698"/></g><g transform="translate(420.06 557.84)"><path d="m0 0h-1.574v-2.607h-0.826v5.76h0.826v-2.345h1.573v2.345h0.828v-5.76h-0.827z"/></g><g transform="translate(424.03 555.23)"><path d="m0 0-0.547 3.011-0.548-3.011h-0.729l-0.913 5.76h0.811l0.487-3.072 0.567 3.072h0.649l0.548-3.072 0.507 3.072h0.811l-0.933-5.76z"/></g><g transform="translate(427.27 557.62)"><path d="m0 0h0.831l-0.426 1.657zm1.033-0.809h-1.235l-0.385-1.576h-0.831l1.438 5.76h0.811l1.438-5.76h-0.83z"/></g><g transform="translate(431.96 555.23)"><path d="m0 0h-0.831v2.607l-1.418 3.153h0.871l0.973-2.081 0.952 2.081h0.892l-1.439-3.153z"/></g><g transform="translate(436.61 557.62)"><path d="m0 0h0.831l-0.426 1.657zm1.033-0.809h-1.235l-0.385-1.576h-0.831l1.438 5.76h0.812l1.437-5.76h-0.83z"/></g><g transform="translate(440.11 559.09)"><path d="m0 0v-3.86h-0.827v5.76h0.827l1.573-3.456v3.456h0.827v-5.76h-0.625z"/></g><g transform="translate(444.62 560.18)"><path d="m0 0h-0.646v-4.143h0.575c0.674 0 1.019 0.295 1.019 2.041 0 2.024-0.505 2.102-0.948 2.102m-1.472-4.952v5.76h1.643c0.352 0 1.584-0.017 1.584-2.869 0-2.61-1.138-2.891-1.515-2.891z"/></g><g transform="translate(417.86 545.87)"><path d="m0 0h-0.831v4.992h-1.054v0.768h2.939v-0.768h-1.054z"/></g><g transform="translate(420.55 550.82)"><path d="m0 0v-1.455h0.847c0.485 0 0.746 0.263 0.746 0.728 0 0.445-0.302 0.727-0.746 0.727zm0.787-2.244h-0.787v-2.708h-0.827v5.76h1.715c0.903 0 1.512-0.606 1.512-1.535 0-0.687-0.283-1.193-0.827-1.395l0.827-2.83h-0.846z"/></g><g transform="translate(424.89 548.26)"><path d="m0 0h0.831l-0.426 1.657zm1.033-0.809h-1.235l-0.385-1.576h-0.831l1.438 5.76h0.811l1.438-5.76h-0.83z"/></g><g transform="translate(430.24 550.1)"><path d="m0 0c-0.08 0.566-0.304 0.829-0.69 0.829-0.669 0-0.913-0.526-0.913-2.021 0-1.657 0.284-2.324 0.995-2.324 0.487 0 0.608 0.405 0.608 0.829h0.832c-0.02-0.95-0.628-1.637-1.44-1.637-1.238 0-1.787 0.99-1.787 3.112 0 1.858 0.589 2.848 1.725 2.848 1.056 0 1.474-0.963 1.502-1.636z"/></g><g transform="translate(433.58 548.68)"><path d="m0 0-0.525-0.969v-1.841h-0.826v5.761h0.826v-2.305l1.311 2.305h0.949l-1.191-2.021 1.331-3.74h-0.866z"/></g><g transform="translate(437.77 546.58)"><path d="m0 0c0.446 0 0.811 0.405 0.811 0.87 0 1.227-2.15 1.224-2.15 2.79 0 0.828 0.649 1.494 1.481 1.494 0.812 0 1.441-0.625 1.461-1.495h-0.792c-0.02 0.404-0.305 0.667-0.67 0.667-0.386 0-0.69-0.282-0.69-0.666 0-0.345 0.217-0.483 0.486-0.651 0.779-0.47 1.666-1.038 1.666-2.14 0-0.932-0.711-1.678-1.604-1.678-1.014 0-1.623 0.859-1.623 1.8h0.813c0-0.49 0.243-0.991 0.811-0.991"/></g><g transform="translate(409.78 537.32)"><path d="m0 0h0.827c0.464 0 0.766 0.323 0.766 0.829 0 0.556-0.333 0.97-0.766 0.97h-0.827zm0 4.143v-1.536h0.867c0.384 0 0.625 0.323 0.625 0.849 0 0.495-0.177 0.687-0.624 0.687zm-0.827-4.952v5.76h1.816c0.764 0 1.31-0.606 1.31-1.495 0-0.528-0.141-0.768-0.604-1.253 0.443-0.364 0.705-0.849 0.705-1.435 0-0.862-0.686-1.577-1.532-1.577z"/></g><g transform="translate(413.16 542.27)"><path d="m0 0h2.716v-0.809h-1.885v-1.455h1.195v-0.788h-1.195v-1.9h2.108v-0.808h-2.939z"/></g><g transform="translate(419.48 539.12)"><path d="m0 0h-1.574v-2.607h-0.826v5.76h0.826v-2.344h1.573v2.344h0.828v-5.76h-0.827z"/></g><path d="m421.57 542.27h0.806v-5.76h-0.806z"/><g transform="translate(424.47 540.37)"><path d="m0 0v-3.86h-0.827v5.76h0.827l1.573-3.456v3.456h0.827v-5.76h-0.625z"/></g><g transform="translate(429.61 541.46)"><path d="m0 0h-0.646v-4.143h0.575c0.674 0 1.018 0.295 1.018 2.041 0 2.024-0.504 2.102-0.947 2.102m-1.472-4.951v5.76h1.643c0.352 0 1.583-0.018 1.583-2.87 0-2.61-1.137-2.89-1.514-2.89z"/></g><g transform="translate(436.49 536.51)"><path d="m0 0h-0.831v2.607l-1.418 3.153h0.871l0.973-2.081 0.952 2.081h0.892l-1.439-3.153z"/></g><g transform="translate(440.32 541.56)"><path d="m0 0c-0.164 0-0.906 0.034-0.906-2.164 0-2.214 0.742-2.18 0.906-2.18s0.906-0.034 0.906 2.18c0 2.198-0.742 2.164-0.906 2.164m-1.7-2.16c0 3.016 1.399 2.968 1.709 2.968 0.311 0 1.691 0.046 1.691-2.97 0-3.038-1.38-2.99-1.691-2.99-0.31 0-1.709-0.048-1.709 2.992"/></g><g transform="translate(443.18 538.18)"><path d="m0 0v4.086h0.827v-4.143c0-0.542 0.316-0.91 0.806-0.91 0.443 0 0.767 0.364 0.767 0.91v4.143h0.827v-4.098c0-1.311-1.012-1.763-1.594-1.763-0.532 0-1.633 0.347-1.633 1.775"/></g></g><text transform="matrix(1 0 0 -1 351.19 519.47)" fill="black" font-family="Helvetica" font-size="9px"><tspan x="0 8.4960003 13.5 18.504 21.500999 25.8444 30.8484" y="0">W10-11a</tspan></text><g clip-path="url(#g)"><g transform="translate(350.22 532.07)"><path d="m0 0c-1.558 0-2.825 1.268-2.825 2.825v46.44c0 1.558 1.267 2.825 2.825 2.825h37.8c1.557 0 2.825-1.267 2.825-2.825v-46.44c0-1.557-1.268-2.825-2.825-2.825z" fill="#ffd046"/></g><g transform="translate(388.02 584.28)"><path d="m0 0h-37.8c-1.627 0-2.95-1.323-2.95-2.95v-46.44c0-1.627 1.323-2.95 2.95-2.95h37.8c1.627 0 2.95 1.323 2.95 2.95v46.44c0 1.627-1.323 2.95-2.95 2.95m0-0.25c1.491 0 2.7-1.209 2.7-2.7v-46.44c0-1.491-1.209-2.7-2.7-2.7h-37.8c-1.491 0-2.7 1.209-2.7 2.7v46.44c0 1.491 1.209 2.7 2.7 2.7z"/></g><g transform="translate(388.92 534.89)"><path d="m0 0c0-0.496-0.404-0.9-0.9-0.9h-37.8c-0.496 0-0.9 0.404-0.9 0.9v46.44c0 0.496 0.404 0.9 0.9 0.9h37.8c0.496 0 0.9-0.404 0.9-0.9zm-0.9 48.42h-37.8c-1.092 0-1.98-0.888-1.98-1.98v-46.44c0-1.092 0.888-1.98 1.98-1.98h37.8c1.092 0 1.98 0.888 1.98 1.98v46.44c0 1.092-0.888 1.98-1.98 1.98"/></g><g transform="translate(355.92 575.62)"><path d="m0 0h-0.369v0.627c0.329 0.02 0.533 0.161 0.656 0.404h0.554v-5.76h-0.841z"/></g><g transform="translate(359.61 575.94)"><path d="m0 0c-0.164 0-0.906 0.034-0.906-2.165 0-2.214 0.742-2.18 0.906-2.18s0.906-0.034 0.906 2.18c0 2.199-0.742 2.165-0.906 2.165m-1.7-2.163c0 3.018 1.4 2.97 1.71 2.97s1.69 0.046 1.69-2.971c0-3.037-1.38-2.99-1.69-2.99s-1.71-0.047-1.71 2.991"/></g><g transform="translate(364.05 575.94)"><path d="m0 0c-0.164 0-0.906 0.034-0.906-2.165 0-2.214 0.742-2.18 0.906-2.18s0.906-0.034 0.906 2.18c0 2.199-0.742 2.165-0.906 2.165m-1.7-2.163c0 3.018 1.4 2.97 1.71 2.97s1.69 0.046 1.69-2.971c0-3.037-1.38-2.99-1.69-2.99s-1.71-0.047-1.71 2.991"/></g><g transform="translate(369.46 574.39)"><path d="m0 0h1.156v-0.788h-1.156v-2.708h-0.831v5.76h2.939v-0.809h-2.108z"/></g><g transform="translate(372.38 576.65)"><path d="m0 0h2.716v-0.809h-1.885v-1.455h1.195v-0.788h-1.195v-1.9h2.108v-0.808h-2.939z"/></g><g transform="translate(376.29 576.65)"><path d="m0 0h2.716v-0.809h-1.885v-1.455h1.195v-0.788h-1.195v-1.9h2.108v-0.808h-2.939z"/></g><g transform="translate(381.64 570.89)"><path d="m0 0h-0.831v4.992h-1.054v0.768h2.939v-0.768h-1.054z"/></g><g transform="translate(356.35 561.26)"><path d="m0 0h0.827c0.464 0 0.766 0.323 0.766 0.829 0 0.556-0.333 0.97-0.766 0.97h-0.827zm0 4.143v-1.536h0.867c0.384 0 0.625 0.323 0.625 0.849 0 0.495-0.177 0.687-0.625 0.687zm-0.827-4.951v5.759h1.815c0.765 0 1.311-0.606 1.311-1.495 0-0.528-0.141-0.768-0.604-1.253 0.443-0.364 0.705-0.849 0.705-1.435 0-0.862-0.686-1.576-1.533-1.576z"/></g><g transform="translate(359.73 566.21)"><path d="m0 0h2.716v-0.809h-1.885v-1.455h1.195v-0.788h-1.195v-1.9h2.108v-0.808h-2.939z"/></g><g transform="translate(365.07 560.45)"><path d="m0 0h-0.831v4.992h-1.054v0.768h2.939v-0.768h-1.054z"/></g><g transform="translate(369.21 560.45)"><path d="m0 0-0.547 3.011-0.548-3.011h-0.729l-0.913 5.76h0.811l0.487-3.072 0.567 3.072h0.649l0.548-3.072 0.506 3.072h0.812l-0.933-5.76z"/></g><g transform="translate(371.66 566.21)"><path d="m0 0h2.716v-0.809h-1.885v-1.455h1.195v-0.788h-1.195v-1.9h2.108v-0.808h-2.939z"/></g><g transform="translate(375.58 566.21)"><path d="m0 0h2.716v-0.809h-1.885v-1.455h1.195v-0.788h-1.195v-1.9h2.108v-0.808h-2.939z"/></g><g transform="translate(380.32 564.31)"><path d="m0 0v-3.86h-0.827v5.76h0.827l1.573-3.456v3.456h0.827v-5.76h-0.625z"/></g><g transform="translate(353.06 550.01)"><path d="m0 0h-0.831v4.992h-1.054v0.768h2.939v-0.768h-1.054z"/></g><g transform="translate(355.35 554.96)"><path d="m0 0v-1.455h0.847c0.485 0 0.746 0.263 0.746 0.728 0 0.445-0.302 0.727-0.746 0.727zm0.787-2.243h-0.787v-2.708h-0.827v5.76h1.715c0.903 0 1.512-0.607 1.512-1.536 0-0.687-0.283-1.192-0.827-1.395l0.827-2.829h-0.846z"/></g><g transform="translate(359.43 552.4)"><path d="m0 0h0.831l-0.426 1.657zm1.033-0.809h-1.235l-0.386-1.576h-0.83l1.438 5.76h0.812l1.437-5.76h-0.831z"/></g><g transform="translate(364.44 554.24)"><path d="m0 0c-0.08 0.566-0.304 0.829-0.69 0.829-0.669 0-0.913-0.526-0.913-2.021 0-1.657 0.284-2.324 0.995-2.324 0.487 0 0.608 0.405 0.608 0.829h0.832c-0.02-0.95-0.628-1.637-1.44-1.637-1.238 0-1.787 0.99-1.787 3.112 0 1.858 0.589 2.848 1.725 2.848 1.056 0 1.474-0.963 1.502-1.636z"/></g><g transform="translate(367.19 552.82)"><path d="m0 0-0.525-0.969v-1.841h-0.826v5.761h0.826v-2.305l1.311 2.305h0.949l-1.191-2.021 1.331-3.74h-0.866z"/></g><g transform="translate(371.04 550.72)"><path d="m0 0c0.446 0 0.811 0.405 0.811 0.87 0 1.227-2.15 1.224-2.15 2.79 0 0.828 0.649 1.494 1.481 1.494 0.812 0 1.441-0.625 1.461-1.495h-0.792c-0.021 0.404-0.305 0.667-0.67 0.667-0.386 0-0.69-0.283-0.69-0.666 0-0.345 0.217-0.483 0.486-0.651 0.779-0.47 1.666-1.038 1.666-2.14 0-0.932-0.711-1.678-1.604-1.678-1.014 0-1.623 0.859-1.623 1.8h0.813c0-0.49 0.243-0.991 0.811-0.991"/></g><g transform="translate(376.94 552.4)"><path d="m0 0h0.831l-0.426 1.657zm1.033-0.809h-1.235l-0.385-1.576h-0.831l1.438 5.76h0.812l1.437-5.76h-0.83z"/></g><g transform="translate(380.44 553.87)"><path d="m0 0v-3.86h-0.827v5.76h0.827l1.573-3.456v3.456h0.827v-5.76h-0.625z"/></g><g transform="translate(384.95 554.96)"><path d="m0 0h-0.646v-4.143h0.575c0.674 0 1.018 0.295 1.018 2.041 0 2.024-0.504 2.102-0.947 2.102m-1.472-4.951v5.76h1.643c0.352 0 1.584-0.018 1.584-2.87 0-2.61-1.138-2.89-1.515-2.89z"/></g><g transform="translate(357.87 542.18)"><path d="m0 0h-1.574v-2.607h-0.826v5.76h0.826v-2.344h1.573v2.344h0.827v-5.76h-0.826z"/></g><path d="m359.96 545.33h0.806v-5.76h-0.806z"/><g transform="translate(363.7 539.47)"><path d="m0 0c-0.524 0-1.786 0.097-1.786 2.971 0 2.873 1.2 2.99 1.725 2.99 0.832 0 1.461-0.606 1.502-1.455h-0.833c-0.02 0.385-0.283 0.648-0.689 0.648-0.278 0-0.913-0.087-0.913-2.184s0.695-2.162 0.973-2.162c0.426 0 0.629 0.281 0.629 0.889v0.384h-0.649v0.809h1.482v-1.192c0-1.442-0.949-1.698-1.441-1.698"/></g><g transform="translate(368.7 542.18)"><path d="m0 0h-1.574v-2.607h-0.826v5.76h0.826v-2.344h1.573v2.344h0.828v-5.76h-0.827z"/></g><g transform="translate(373.07 539.57)"><path d="m0 0-0.547 3.011-0.548-3.011h-0.729l-0.913 5.76h0.811l0.487-3.072 0.567 3.072h0.65l0.547-3.072 0.507 3.072h0.811l-0.933-5.76z"/></g><g transform="translate(376.47 541.96)"><path d="m0 0h0.831l-0.426 1.657zm1.033-0.809h-1.235l-0.386-1.576h-0.83l1.438 5.76h0.812l1.437-5.76h-0.831z"/></g><g transform="translate(381.34 539.57)"><path d="m0 0h-0.831v2.607l-1.418 3.153h0.871l0.973-2.081 0.952 2.081h0.891l-1.438-3.153z"/></g><g transform="translate(66.257 436.78)"><path d="m0 0c-1.26 0-2.285 1.025-2.285 2.285v30.24c0 1.26 1.025 2.285 2.285 2.285h38.88c1.26 0 2.285-1.025 2.285-2.285v-30.24c0-1.26-1.025-2.285-2.285-2.285z" fill="#ffd046"/></g><g transform="translate(105.14 471.72)"><path d="m0 0h-38.88c-1.329 0-2.41-1.081-2.41-2.41v-30.24c0-1.329 1.081-2.41 2.41-2.41h38.88c1.329 0 2.41 1.081 2.41 2.41v30.24c0 1.329-1.081 2.41-2.41 2.41m0-0.25c1.193 0 2.16-0.967 2.16-2.16v-30.24c0-1.193-0.967-2.16-2.16-2.16h-38.88c-1.193 0-2.16 0.967-2.16 2.16v30.24c0 1.193 0.967 2.16 2.16 2.16z"/></g><g transform="translate(66.257 437.45)"><path d="m0 0c-0.893 0-1.62 0.727-1.62 1.62v30.24c0 0.893 0.727 1.62 1.62 1.62h38.88c0.893 0 1.62-0.727 1.62-1.62v-30.24c0-0.893-0.727-1.62-1.62-1.62z"/></g><g transform="translate(66.257 438.35)"><path d="m0 0c-0.397 0-0.72 0.323-0.72 0.72v30.24c0 0.397 0.323 0.72 0.72 0.72h38.88c0.397 0 0.72-0.323 0.72-0.72v-30.24c0-0.397-0.323-0.72-0.72-0.72z" fill="#ffd046"/></g><g transform="translate(68.393 462.07)"><path d="m0 0v-4.825h-1.033v7.2h1.033l1.966-4.32v4.32h1.035v-7.2h-0.782z"/></g><g transform="translate(74.671 463.56)"><path d="m0 0c-0.205 0-1.133 0.042-1.133-2.705 0-2.768 0.928-2.726 1.133-2.726s1.132-0.042 1.132 2.726c0 2.747-0.927 2.705-1.132 2.705m-2.125-2.7c0 3.77 1.749 3.71 2.137 3.71s2.113 0.057 2.113-3.713c0-3.797-1.725-3.737-2.113-3.737s-2.137-0.06-2.137 3.74"/></g><g transform="translate(83.708 457.12)"><path d="m0 0c-0.655 0-2.233 0.122-2.233 3.713 0 3.592 1.5 3.738 2.156 3.738 1.041 0 1.827-0.757 1.878-1.818h-1.041c-0.025 0.481-0.354 0.809-0.862 0.809-0.347 0-1.141-0.109-1.141-2.729 0-2.621 0.869-2.703 1.217-2.703 0.533 0 0.786 0.351 0.786 1.111v0.48h-0.811v1.012h1.852v-1.491c0-1.802-1.186-2.122-1.801-2.122"/></g><g transform="translate(87.973 460.23)"><path d="m0 0h1.039l-0.532 2.072zm1.292-1.011h-1.545l-0.481-1.97h-1.039l1.798 7.2h1.015l1.797-7.2h-1.039z"/></g><g transform="translate(93.512 457.25)"><path d="m0 0h-1.039v6.24h-1.317v0.96h3.674v-0.96h-1.318z"/></g><g transform="translate(95.636 464.45)"><path d="m0 0h3.395v-1.011h-2.356v-1.819h1.494v-0.985h-1.494v-2.375h2.635v-1.01h-3.674z"/></g><g transform="translate(102.03 458.13)"><path d="m0 0c0.558 0 1.014 0.506 1.014 1.087-1e-3 1.534-2.688 1.53-2.688 3.488 0 1.036 0.812 1.868 1.851 1.868 1.016 0 1.802-0.782 1.827-1.869h-0.991c-0.025 0.505-0.38 0.833-0.837 0.833-0.482 0-0.862-0.353-0.862-0.832 0-0.431 0.271-0.603 0.607-0.814 0.974-0.588 2.082-1.297 2.082-2.675 0-1.165-0.888-2.097-2.004-2.097-1.268 0-2.028 1.073-2.028 2.25h1.016c0-0.613 0.303-1.239 1.013-1.239"/></g><g transform="translate(68.848 450.24)"><path d="m0 0c-0.205 0-1.133 0.042-1.133-2.705 0-2.768 0.928-2.726 1.133-2.726s1.132-0.042 1.132 2.726c0 2.747-0.927 2.705-1.132 2.705m-2.125-2.7c0 3.77 1.749 3.71 2.137 3.71s2.113 0.057 2.113-3.713c0-3.797-1.725-3.737-2.113-3.737s-2.137-0.06-2.137 3.74"/></g><g transform="translate(73.015 450.11)"><path d="m0 0v-1.819h1.059c0.606 0 0.933 0.329 0.933 0.91 0 0.556-0.378 0.909-0.933 0.909zm0.984-2.804h-0.984v-3.385h-1.033v7.2h2.143c1.129 0 1.891-0.758 1.891-1.92 0-0.859-0.354-1.49-1.034-1.743l1.033-3.537h-1.058z"/></g><g transform="translate(80.335 451.13)"><path d="m0 0h1.038v-6.24h2.636v-0.96h-3.674z"/></g><path d="m84.714 451.12h1.008v-7.2h-1.008z"/><g transform="translate(88.963 443.8)"><path d="m0 0c-0.655 0-2.233 0.122-2.233 3.713 0 3.592 1.5 3.738 2.156 3.738 1.041 0 1.827-0.757 1.878-1.818h-1.041c-0.025 0.481-0.354 0.809-0.862 0.809-0.347 0-1.141-0.109-1.141-2.729 0-2.621 0.869-2.703 1.217-2.703 0.533 0 0.786 0.351 0.786 1.111v0.48h-0.811v1.012h1.852v-1.491c0-1.802-1.186-2.122-1.801-2.122"/></g><g transform="translate(94.773 447.18)"><path d="m0 0h-1.967v-3.259h-1.033v7.2h1.033v-2.93h1.966v2.93h1.034v-7.2h-1.033z"/></g><g transform="translate(98.868 443.93)"><path d="m0 0h-1.039v6.24h-1.317v0.96h3.674v-0.96h-1.318z"/></g><g transform="translate(102.67 444.81)"><path d="m0 0c0.558 0 1.014 0.506 1.014 1.087-1e-3 1.534-2.688 1.53-2.688 3.488 0 1.036 0.812 1.868 1.851 1.868 1.016 0 1.802-0.782 1.827-1.869h-0.991c-0.025 0.505-0.38 0.833-0.837 0.833-0.482 0-0.862-0.353-0.862-0.832 0-0.432 0.271-0.603 0.607-0.814 0.974-0.588 2.082-1.297 2.082-2.675 0-1.165-0.888-2.097-2.004-2.097-1.268 0-2.028 1.073-2.028 2.25h1.016c0-0.613 0.303-1.239 1.013-1.239"/></g></g><text transform="matrix(1 0 0 -1 128.22 424.36)" fill="black" font-family="Helvetica" font-size="9px"><tspan x="0 8.4960003 13.5 18.504 21.500999 26.504999 31.509001" y="0">W10-14P</tspan></text><g clip-path="url(#f)"><g transform="translate(127.46 436.78)"><path d="m0 0c-1.26 0-2.285 1.025-2.285 2.285v30.24c0 1.26 1.025 2.285 2.285 2.285h38.88c1.26 0 2.285-1.025 2.285-2.285v-30.24c0-1.26-1.025-2.285-2.285-2.285z" fill="#ffd046"/></g><g transform="translate(166.34 471.72)"><path d="m0 0h-38.88c-1.329 0-2.41-1.081-2.41-2.41v-30.24c0-1.329 1.081-2.41 2.41-2.41h38.88c1.329 0 2.41 1.081 2.41 2.41v30.24c0 1.329-1.081 2.41-2.41 2.41m0-0.25c1.193 0 2.16-0.967 2.16-2.16v-30.24c0-1.193-0.967-2.16-2.16-2.16h-38.88c-1.193 0-2.16 0.967-2.16 2.16v30.24c0 1.193 0.967 2.16 2.16 2.16z"/></g><g transform="translate(127.46 437.45)"><path d="m0 0c-0.893 0-1.62 0.727-1.62 1.62v30.24c0 0.893 0.727 1.62 1.62 1.62h38.88c0.893 0 1.62-0.727 1.62-1.62v-30.24c0-0.893-0.727-1.62-1.62-1.62z"/></g><g transform="translate(127.46 438.35)"><path d="m0 0c-0.397 0-0.72 0.323-0.72 0.72v30.24c0 0.397 0.323 0.72 0.72 0.72h38.88c0.397 0 0.72-0.323 0.72-0.72v-30.24c0-0.397-0.323-0.72-0.72-0.72z" fill="#ffd046"/></g><g transform="translate(138.78 461.89)"><path d="m0 0v-4.825h-1.033v7.2h1.033l1.966-4.32v4.32h1.034v-7.2h-0.781z"/></g><g transform="translate(143.37 464.27)"><path d="m0 0h3.395v-1.011h-2.356v-1.819h1.494v-0.985h-1.494v-2.375h2.635v-1.01h-3.674z"/></g><g transform="translate(149.8 459.52)"><path d="m0 0-1.018-2.45h-1.094l1.577 3.739-1.476 3.461h1.095l0.916-2.172 0.916 2.172h1.094l-1.45-3.461 1.577-3.739h-1.119z"/></g><g transform="translate(154.73 457.07)"><path d="m0 0h-1.039v6.24h-1.317v0.96h3.673v-0.96h-1.317z"/></g><g transform="translate(131.68 449.39)"><path d="m0 0c-0.1 0.707-0.38 1.036-0.862 1.036-0.837 0-1.142-0.657-1.142-2.526 0-2.071 0.355-2.905 1.244-2.905 0.609 0 0.76 0.506 0.76 1.036h1.04c-0.025-1.187-0.785-2.046-1.8-2.046-1.547 0-2.233 1.237-2.233 3.89 0 2.323 0.735 3.56 2.156 3.56 1.319 0 1.842-1.203 1.877-2.045z"/></g><g transform="translate(134.9 450.29)"><path d="m0 0v-1.819h1.058c0.607 0 0.934 0.329 0.934 0.91 0 0.556-0.378 0.909-0.933 0.909zm0.984-2.804h-0.984v-3.385h-1.033v7.2h2.143c1.129 0 1.891-0.758 1.891-1.92 0-0.859-0.354-1.49-1.035-1.743l1.034-3.537h-1.058z"/></g><g transform="translate(140.89 450.42)"><path d="m0 0c-0.205 0-1.133 0.042-1.133-2.705 0-2.768 0.928-2.726 1.133-2.726s1.132-0.042 1.132 2.726c0 2.747-0.927 2.705-1.132 2.705m-2.125-2.7c0 3.77 1.749 3.71 2.137 3.71s2.113 0.057 2.113-3.713c0-3.797-1.725-3.737-2.113-3.737s-2.137-0.06-2.137 3.74"/></g><g transform="translate(145.91 444.99)"><path d="m0 0c0.558 0 1.014 0.506 1.014 1.087-1e-3 1.534-2.688 1.53-2.688 3.488 0 1.036 0.812 1.868 1.851 1.868 1.015 0 1.802-0.782 1.827-1.869h-0.991c-0.025 0.505-0.38 0.833-0.837 0.833-0.482 0-0.862-0.353-0.862-0.832 0-0.431 0.271-0.603 0.607-0.814 0.974-0.588 2.082-1.297 2.082-2.675 0-1.165-0.888-2.097-2.004-2.097-1.268 0-2.028 1.073-2.028 2.25h1.016c0-0.613 0.303-1.239 1.013-1.239"/></g><g transform="translate(150.63 444.99)"><path d="m0 0c0.558 0 1.014 0.506 1.014 1.087-1e-3 1.534-2.688 1.53-2.688 3.488 0 1.036 0.812 1.868 1.851 1.868 1.015 0 1.802-0.782 1.827-1.869h-0.991c-0.025 0.505-0.38 0.833-0.837 0.833-0.482 0-0.862-0.353-0.862-0.832 0-0.431 0.271-0.603 0.607-0.814 0.974-0.588 2.082-1.297 2.082-2.675 0-1.165-0.888-2.097-2.004-2.097-1.268 0-2.028 1.073-2.028 2.25h1.016c0-0.613 0.303-1.239 1.013-1.239"/></g><path d="m153.62 451.3h1.008v-7.2h-1.008z"/><g transform="translate(156.93 448.93)"><path d="m0 0v-4.825h-1.033v7.2h1.033l1.966-4.32v4.32h1.035v-7.2h-0.782z"/></g><g transform="translate(163.31 443.98)"><path d="m0 0c-0.655 0-2.233 0.121-2.233 3.713s1.5 3.738 2.156 3.738c1.041 0 1.827-0.757 1.878-1.818h-1.041c-0.025 0.481-0.354 0.809-0.862 0.809-0.347 0-1.141-0.109-1.141-2.73 0-2.62 0.87-2.702 1.217-2.702 0.533 0 0.786 0.351 0.786 1.111v0.48h-0.811v1.012h1.852v-1.491c0-1.802-1.186-2.122-1.801-2.122"/></g></g><text transform="matrix(1 0 0 -1 186.91 424.36)" fill="black" font-family="Helvetica" font-size="9px"><tspan x="0 8.4960003 13.5 18.504 21.500999 26.504999 31.509001 36.513" y="0">W10-14aP</tspan></text><g clip-path="url(#e)"><g transform="translate(188.66 436.78)"><path d="m0 0c-1.26 0-2.285 1.025-2.285 2.285v30.24c0 1.26 1.025 2.285 2.285 2.285h38.88c1.26 0 2.285-1.025 2.285-2.285v-30.24c0-1.26-1.025-2.285-2.285-2.285z" fill="#ffd046"/></g><g transform="translate(227.54 471.72)"><path d="m0 0h-38.88c-1.329 0-2.41-1.081-2.41-2.41v-30.24c0-1.329 1.081-2.41 2.41-2.41h38.88c1.329 0 2.41 1.081 2.41 2.41v30.24c0 1.329-1.081 2.41-2.41 2.41m0-0.25c1.193 0 2.16-0.967 2.16-2.16v-30.24c0-1.193-0.967-2.16-2.16-2.16h-38.88c-1.193 0-2.16 0.967-2.16 2.16v30.24c0 1.193 0.967 2.16 2.16 2.16z"/></g><g transform="translate(188.66 437.45)"><path d="m0 0c-0.893 0-1.62 0.727-1.62 1.62v30.24c0 0.893 0.727 1.62 1.62 1.62h38.88c0.893 0 1.62-0.727 1.62-1.62v-30.24c0-0.893-0.727-1.62-1.62-1.62z"/></g><g transform="translate(188.66 438.35)"><path d="m0 0c-0.397 0-0.72 0.323-0.72 0.72v30.24c0 0.397 0.323 0.72 0.72 0.72h38.88c0.397 0 0.72-0.323 0.72-0.72v-30.24c0-0.397-0.323-0.72-0.72-0.72z" fill="#ffd046"/></g><g transform="translate(209.78 461.89)"><path d="m0 0v-4.825h-1.033v7.2h1.033l1.966-4.32v4.32h1.034v-7.2h-0.781z"/></g><g transform="translate(214.36 464.27)"><path d="m0 0h3.395v-1.011h-2.356v-1.819h1.494v-0.985h-1.494v-2.375h2.635v-1.01h-3.674z"/></g><g transform="translate(220.8 459.52)"><path d="m0 0-1.018-2.45h-1.094l1.577 3.739-1.476 3.461h1.095l0.916-2.172 0.916 2.172h1.094l-1.45-3.461 1.577-3.739h-1.119z"/></g><g transform="translate(225.72 457.07)"><path d="m0 0h-1.038v6.24h-1.318v0.96h3.674v-0.96h-1.318z"/></g><g transform="translate(192.88 449.39)"><path d="m0 0c-0.1 0.707-0.38 1.036-0.862 1.036-0.837 0-1.142-0.657-1.142-2.526 0-2.071 0.355-2.905 1.243-2.905 0.61 0 0.761 0.506 0.761 1.036h1.04c-0.025-1.187-0.785-2.046-1.801-2.046-1.547 0-2.232 1.237-2.232 3.89 0 2.323 0.735 3.56 2.156 3.56 1.319 0 1.842-1.203 1.877-2.045z"/></g><g transform="translate(196.1 450.29)"><path d="m0 0v-1.819h1.058c0.607 0 0.934 0.329 0.934 0.91 0 0.556-0.378 0.909-0.933 0.909zm0.984-2.804h-0.984v-3.385h-1.033v7.2h2.143c1.129 0 1.89-0.758 1.89-1.92 0-0.859-0.353-1.49-1.034-1.743l1.034-3.537h-1.058z"/></g><g transform="translate(202.09 450.42)"><path d="m0 0c-0.205 0-1.133 0.042-1.133-2.705 0-2.768 0.928-2.726 1.133-2.726s1.132-0.042 1.132 2.726c0 2.747-0.927 2.705-1.132 2.705m-2.125-2.7c0 3.77 1.749 3.71 2.137 3.71s2.113 0.057 2.113-3.713c0-3.797-1.725-3.737-2.113-3.737s-2.137-0.06-2.137 3.74"/></g><g transform="translate(207.11 444.99)"><path d="m0 0c0.558 0 1.014 0.506 1.014 1.087-1e-3 1.534-2.688 1.53-2.688 3.488 0 1.036 0.812 1.868 1.851 1.868 1.016 0 1.802-0.782 1.827-1.869h-0.991c-0.025 0.505-0.38 0.833-0.837 0.833-0.482 0-0.862-0.353-0.862-0.832 0-0.431 0.271-0.603 0.607-0.814 0.974-0.588 2.082-1.297 2.082-2.675 0-1.165-0.888-2.097-2.004-2.097-1.268 0-2.028 1.073-2.028 2.25h1.016c0-0.613 0.303-1.239 1.013-1.239"/></g><g transform="translate(211.83 444.99)"><path d="m0 0c0.558 0 1.014 0.506 1.014 1.087-1e-3 1.534-2.688 1.53-2.688 3.488 0 1.036 0.812 1.868 1.851 1.868 1.015 0 1.802-0.782 1.827-1.869h-0.991c-0.025 0.505-0.38 0.833-0.837 0.833-0.482 0-0.862-0.353-0.862-0.832 0-0.431 0.271-0.603 0.607-0.814 0.974-0.588 2.082-1.297 2.082-2.675 0-1.165-0.888-2.097-2.004-2.097-1.268 0-2.028 1.073-2.028 2.25h1.016c0-0.613 0.303-1.239 1.013-1.239"/></g><path d="m214.82 451.3h1.008v-7.2h-1.008z"/><g transform="translate(218.13 448.93)"><path d="m0 0v-4.825h-1.033v7.2h1.033l1.966-4.32v4.32h1.035v-7.2h-0.782z"/></g><g transform="translate(224.51 443.98)"><path d="m0 0c-0.655 0-2.233 0.121-2.233 3.713s1.5 3.738 2.156 3.738c1.041 0 1.827-0.757 1.878-1.818h-1.041c-0.025 0.481-0.354 0.809-0.862 0.809-0.347 0-1.141-0.109-1.141-2.73 0-2.62 0.87-2.702 1.217-2.702 0.533 0 0.786 0.351 0.786 1.111v0.48h-0.811v1.012h1.852v-1.491c0-1.802-1.186-2.122-1.801-2.122"/></g><g transform="translate(189.51 459.16)"><path d="m0 0v5.107h1.033v-5.178c0-0.678 0.396-1.138 1.008-1.138 0.555 0 0.959 0.455 0.959 1.138v5.178h1.034v-5.122c0-1.638-1.266-2.204-1.993-2.204-0.665 0-2.041 0.433-2.041 2.219"/></g><g transform="translate(196.8 457.95)"><path d="m0 0c0.558 0 1.014 0.506 1.014 1.087-1e-3 1.534-2.688 1.53-2.688 3.488 0 1.036 0.812 1.868 1.851 1.868 1.016 0 1.802-0.782 1.827-1.869h-0.991c-0.025 0.505-0.38 0.833-0.837 0.833-0.482 0-0.862-0.353-0.862-0.832 0-0.431 0.271-0.603 0.607-0.814 0.974-0.588 2.082-1.297 2.082-2.675 0-1.165-0.888-2.097-2.004-2.097-1.268 0-2.028 1.073-2.028 2.25h1.016c0-0.613 0.303-1.239 1.013-1.239"/></g><g transform="translate(200.03 464.27)"><path d="m0 0h3.395v-1.011h-2.356v-1.819h1.494v-0.985h-1.494v-2.375h2.635v-1.01h-3.674z"/></g></g><text transform="matrix(1 0 0 -1 250.62 424.36)" fill="black" font-family="Helvetica" font-size="9px"><tspan x="0 8.4960003 13.5 18.504 21.500999 26.504999 31.509001" y="0">W10-15P</tspan></text><g clip-path="url(#d)"><g transform="translate(249.86 436.78)"><path d="m0 0c-1.26 0-2.285 1.025-2.285 2.285v30.24c0 1.26 1.025 2.285 2.285 2.285h38.88c1.26 0 2.285-1.025 2.285-2.285v-30.24c0-1.26-1.025-2.285-2.285-2.285z" fill="#ffd046"/></g><g transform="translate(288.74 471.72)"><path d="m0 0h-38.88c-1.329 0-2.41-1.081-2.41-2.41v-30.24c0-1.329 1.081-2.41 2.41-2.41h38.88c1.329 0 2.41 1.081 2.41 2.41v30.24c0 1.329-1.081 2.41-2.41 2.41m0-0.25c1.193 0 2.16-0.967 2.16-2.16v-30.24c0-1.193-0.967-2.16-2.16-2.16h-38.88c-1.193 0-2.16 0.967-2.16 2.16v30.24c0 1.193 0.967 2.16 2.16 2.16z"/></g><g transform="translate(249.86 437.45)"><path d="m0 0c-0.893 0-1.62 0.727-1.62 1.62v30.24c0 0.893 0.727 1.62 1.62 1.62h38.88c0.893 0 1.62-0.727 1.62-1.62v-30.24c0-0.893-0.727-1.62-1.62-1.62z"/></g><g transform="translate(249.86 438.35)"><path d="m0 0c-0.397 0-0.72 0.323-0.72 0.72v30.24c0 0.397 0.323 0.72 0.72 0.72h38.88c0.397 0 0.72-0.323 0.72-0.72v-30.24c0-0.397-0.323-0.72-0.72-0.72z" fill="#ffd046"/></g><g transform="translate(254.08 449.39)"><path d="m0 0c-0.1 0.707-0.38 1.036-0.862 1.036-0.837 0-1.142-0.657-1.142-2.526 0-2.071 0.355-2.905 1.244-2.905 0.609 0 0.76 0.506 0.76 1.036h1.04c-0.025-1.187-0.785-2.046-1.8-2.046-1.547 0-2.233 1.237-2.233 3.89 0 2.323 0.735 3.56 2.156 3.56 1.319 0 1.842-1.203 1.877-2.045z"/></g><g transform="translate(257.3 450.29)"><path d="m0 0v-1.819h1.058c0.607 0 0.934 0.329 0.934 0.91 0 0.556-0.378 0.909-0.933 0.909zm0.984-2.804h-0.984v-3.385h-1.033v7.2h2.143c1.129 0 1.89-0.758 1.89-1.92 0-0.859-0.353-1.49-1.034-1.743l1.034-3.537h-1.058z"/></g><g transform="translate(263.29 450.42)"><path d="m0 0c-0.205 0-1.133 0.042-1.133-2.705 0-2.768 0.928-2.726 1.133-2.726s1.132-0.042 1.132 2.726c0 2.747-0.927 2.705-1.132 2.705m-2.125-2.7c0 3.77 1.749 3.71 2.137 3.71s2.113 0.057 2.113-3.713c0-3.797-1.725-3.737-2.113-3.737s-2.137-0.06-2.137 3.74"/></g><g transform="translate(268.31 444.99)"><path d="m0 0c0.558 0 1.014 0.506 1.014 1.087-1e-3 1.534-2.688 1.53-2.688 3.488 0 1.036 0.812 1.868 1.851 1.868 1.016 0 1.802-0.782 1.827-1.869h-0.991c-0.025 0.505-0.38 0.833-0.837 0.833-0.482 0-0.862-0.353-0.862-0.832 0-0.431 0.271-0.603 0.607-0.814 0.974-0.588 2.082-1.297 2.082-2.675 0-1.165-0.888-2.097-2.004-2.097-1.268 0-2.028 1.073-2.028 2.25h1.016c0-0.613 0.303-1.239 1.013-1.239"/></g><g transform="translate(273.03 444.99)"><path d="m0 0c0.558 0 1.014 0.506 1.014 1.087-1e-3 1.534-2.688 1.53-2.688 3.488 0 1.036 0.812 1.868 1.851 1.868 1.015 0 1.802-0.782 1.827-1.869h-0.991c-0.025 0.505-0.38 0.833-0.837 0.833-0.482 0-0.862-0.353-0.862-0.832 0-0.431 0.271-0.603 0.607-0.814 0.974-0.588 2.082-1.297 2.082-2.675 0-1.165-0.888-2.097-2.004-2.097-1.268 0-2.028 1.073-2.028 2.25h1.016c0-0.613 0.303-1.239 1.013-1.239"/></g><path d="m276.02 451.3h1.008v-7.2h-1.008z"/><g transform="translate(279.33 448.93)"><path d="m0 0v-4.825h-1.033v7.2h1.033l1.966-4.32v4.32h1.034v-7.2h-0.781z"/></g><g transform="translate(285.71 443.98)"><path d="m0 0c-0.655 0-2.233 0.121-2.233 3.713s1.5 3.738 2.156 3.738c1.041 0 1.827-0.757 1.878-1.818h-1.041c-0.025 0.481-0.354 0.809-0.862 0.809-0.347 0-1.141-0.109-1.141-2.73 0-2.62 0.87-2.702 1.217-2.702 0.533 0 0.786 0.351 0.786 1.111v0.48h-0.811v1.012h1.852v-1.491c0-1.802-1.186-2.122-1.801-2.122"/></g><g transform="translate(257.44 463.25)"><path d="m0 0v-1.819h1.058c0.607 0 0.934 0.329 0.934 0.91 0 0.556-0.378 0.909-0.933 0.909zm0.984-2.804h-0.984v-3.385h-1.033v7.2h2.143c1.129 0 1.89-0.758 1.89-1.92 0-0.859-0.353-1.49-1.034-1.743l1.034-3.537h-1.058z"/></g><g transform="translate(263.64 463.38)"><path d="m0 0c-0.205 0-1.133 0.042-1.133-2.705 0-2.768 0.928-2.726 1.133-2.726s1.132-0.042 1.132 2.726c0 2.747-0.927 2.705-1.132 2.705m-2.125-2.7c0 3.77 1.749 3.71 2.137 3.71s2.113 0.057 2.113-3.713c0-3.797-1.725-3.737-2.113-3.737s-2.137-0.06-2.137 3.74"/></g><g transform="translate(267.21 459.16)"><path d="m0 0v5.107h1.033v-5.178c0-0.678 0.396-1.138 1.008-1.138 0.554 0 0.958 0.455 0.958 1.138v5.178h1.034v-5.122c0-1.638-1.265-2.204-1.992-2.204-0.665 0-2.041 0.433-2.041 2.219"/></g><g transform="translate(274.91 456.94)"><path d="m0 0c-0.655 0-2.233 0.122-2.233 3.713 0 3.592 1.5 3.738 2.157 3.738 1.04 0 1.826-0.757 1.877-1.818h-1.041c-0.025 0.481-0.354 0.809-0.862 0.809-0.347 0-1.141-0.109-1.141-2.729 0-2.621 0.87-2.703 1.217-2.703 0.533 0 0.786 0.351 0.786 1.111v0.48h-0.811v1.012h1.852v-1.491c0-1.802-1.186-2.122-1.801-2.122"/></g><g transform="translate(281.16 460.32)"><path d="m0 0h-1.967v-3.259h-1.033v7.2h1.033v-2.93h1.966v2.93h1.034v-7.2h-1.033z"/></g></g><text transform="matrix(1 0 0 -1 314.74 424.36)" fill="black" font-family="Helvetica" font-size="9px"><tspan x="0 8.4960003 13.5 18.504 21.500999 26.504999" y="0">W10-16</tspan><tspan x="-4.0050001 1.998 6.4980001 9 10.998 15.498 20.502001 23.004 28.007999 33.012001" y="9.5039997">Activated </tspan><tspan x="-4.257 1.7460001 3.744 8.7480001 13.752 18.252001 21.249001 28.250999 33.255001" y="19.007999">Blank-Out</tspan></text><g clip-path="url(#c)"><g transform="translate(349.4 436.91)"><path d="m0 0h-37.8c-1.485 0-2.7 1.215-2.7 2.7v37.8c0 1.485 1.215 2.7 2.7 2.7h37.8c1.485 0 2.7-1.215 2.7-2.7v-37.8c0-1.485-1.215-2.7-2.7-2.7"/></g><g transform="translate(314.55 470.49)"><path d="m0 0h1.039l-0.532 2.072zm1.291-1.011h-1.544l-0.481-1.97h-1.039l1.798 7.2h1.014l1.798-7.2h-1.039z" fill="#fff200"/></g><g transform="translate(319.43 472.33)"><path d="m0 0v-4.825h-1.033v7.2h1.033l1.966-4.32v4.32h1.035v-7.2h-0.782z" fill="#fff200"/></g><g transform="translate(326 473.82)"><path d="m0 0c-0.205 0-1.133 0.042-1.133-2.705 0-2.768 0.928-2.726 1.133-2.726s1.132-0.042 1.132 2.726c0 2.747-0.927 2.705-1.132 2.705m-2.125-2.7c0 3.77 1.749 3.71 2.137 3.71s2.113 0.057 2.113-3.713c0-3.797-1.725-3.737-2.113-3.737s-2.137-0.06-2.137 3.74" fill="#fff200"/></g><g transform="translate(331.34 467.51)"><path d="m0 0h-1.039v6.24h-1.317v0.96h3.674v-0.96h-1.318z" fill="#fff200"/></g><g transform="translate(336.67 470.76)"><path d="m0 0h-1.967v-3.259h-1.033v7.2h1.033v-2.93h1.966v2.93h1.034v-7.2h-1.033z" fill="#fff200"/></g><g transform="translate(339.28 474.71)"><path d="m0 0h3.395v-1.011h-2.356v-1.819h1.494v-0.985h-1.494v-2.375h2.635v-1.01h-3.674z" fill="#fff200"/></g><g transform="translate(345.21 473.69)"><path d="m0 0v-1.819h1.058c0.607 0 0.934 0.329 0.934 0.91 0 0.556-0.378 0.909-0.933 0.909zm0.984-2.804h-0.984v-3.385h-1.033v7.2h2.143c1.129 0 1.89-0.758 1.89-1.92 0-0.859-0.353-1.49-1.034-1.743l1.034-3.537h-1.058z" fill="#fff200"/></g><g transform="translate(322.05 454.91)"><path d="m0 0h-1.038v6.24h-1.318v0.96h3.673v-0.96h-1.317z" fill="#fff200"/></g><g transform="translate(325.41 461.09)"><path d="m0 0v-1.819h1.058c0.607 0 0.933 0.329 0.933 0.91 0 0.556-0.378 0.909-0.932 0.909zm0.984-2.804h-0.984v-3.385h-1.033v7.2h2.143c1.129 0 1.89-0.758 1.89-1.92 0-0.859-0.353-1.49-1.034-1.743l1.033-3.537h-1.057z" fill="#fff200"/></g><g transform="translate(330.83 457.89)"><path d="m0 0h1.038l-0.531 2.072zm1.291-1.011h-1.544l-0.481-1.97h-1.039l1.798 7.2h1.014l1.797-7.2h-1.038z" fill="#fff200"/></g><path d="m334.67 462.1h1.008v-7.2h-1.008z" fill="#fff200"/><g transform="translate(338.3 459.73)"><path d="m0 0v-4.825h-1.033v7.2h1.033l1.966-4.32v4.32h1.034v-7.2h-0.781z" fill="#fff200"/></g><g transform="translate(318.76 447.59)"><path d="m0 0c-0.1 0.707-0.38 1.036-0.862 1.036-0.837 0-1.142-0.657-1.142-2.526 0-2.071 0.355-2.905 1.244-2.905 0.609 0 0.76 0.506 0.76 1.036h1.04c-0.025-1.187-0.785-2.046-1.8-2.046-1.547 0-2.233 1.237-2.233 3.89 0 2.323 0.735 3.56 2.156 3.56 1.319 0 1.842-1.204 1.877-2.045z" fill="#fff200"/></g><g transform="translate(323.22 448.62)"><path d="m0 0c-0.205 0-1.133 0.042-1.133-2.705 0-2.768 0.928-2.726 1.133-2.726s1.132-0.042 1.132 2.726c0 2.747-0.927 2.705-1.132 2.705m-2.125-2.7c0 3.77 1.749 3.71 2.137 3.71s2.113 0.057 2.113-3.713c0-3.797-1.725-3.737-2.113-3.737s-2.137-0.06-2.137 3.74" fill="#fff200"/></g><g transform="translate(330.51 446.35)"><path d="m0 0-1.341-4.042-1.341 4.042v-4.042h-1.037v7.2h1.037l1.341-4.042 1.341 4.042h1.037v-7.2h-1.037z" fill="#fff200"/></g><path d="m333.13 449.5h1.008v-7.2h-1.008z" fill="#fff200"/><g transform="translate(336.75 447.13)"><path d="m0 0v-4.825h-1.033v7.2h1.033l1.966-4.32v4.32h1.034v-7.2h-0.781z" fill="#fff200"/></g><g transform="translate(343.43 442.18)"><path d="m0 0c-0.655 0-2.233 0.122-2.233 3.713 0 3.592 1.5 3.738 2.156 3.738 1.041 0 1.827-0.757 1.878-1.818h-1.041c-0.025 0.481-0.354 0.809-0.862 0.809-0.347 0-1.141-0.109-1.141-2.729 0-2.621 0.869-2.703 1.217-2.703 0.533 0 0.786 0.351 0.786 1.111v0.48h-0.811v1.012h1.852v-1.491c0-1.802-1.186-2.122-1.801-2.122" fill="#fff200"/></g></g><text transform="matrix(1 0 0 -1 389.65 424.36)" fill="black" font-family="Helvetica" font-size="9px"><tspan x="0 8.4960003 13.5 18.504 21.500999 26.504999" y="0">W10-21</tspan></text><g clip-path="url(#b)"><g transform="translate(405.41 436.78)"><path d="m0 0c-0.899 0-1.744 0.35-2.38 0.986l-32.075 32.074c-1.311 1.312-1.311 3.447 0 4.759l32.075 32.074c0.636 0.636 1.481 0.986 2.38 0.986 0.898 0 1.744-0.35 2.38-0.986l32.074-32.074c1.311-1.312 1.311-3.447 0-4.759l-32.074-32.074c-0.636-0.636-1.482-0.986-2.38-0.986" fill="#ffd046"/></g><g transform="translate(405.41 507.78)"><path d="m0 0c-0.932 0-1.809-0.363-2.468-1.022l-32.074-32.074c-1.361-1.361-1.361-3.575 0-4.936l32.074-32.075c0.659-0.659 1.536-1.022 2.468-1.022s1.809 0.363 2.468 1.022l32.074 32.075c1.361 1.361 1.361 3.575 0 4.936l-32.074 32.074c-0.659 0.659-1.536 1.022-2.468 1.022m0-0.25c0.829 0 1.658-0.316 2.291-0.949l32.074-32.074c1.266-1.266 1.266-3.317 0-4.582l-32.074-32.075c-0.633-0.632-1.462-0.949-2.291-0.949s-1.658 0.317-2.291 0.949l-32.074 32.075c-1.266 1.265-1.266 3.316 0 4.582l32.074 32.074c0.633 0.633 1.462 0.949 2.291 0.949"/></g><g transform="translate(371.68 470.57)"><path d="m0 0c-0.912 0.912-0.912 2.397 0 3.309l32.074 32.075c0.913 0.912 2.397 0.912 3.31 0l32.074-32.075c0.912-0.912 0.912-2.397 0-3.309l-32.074-32.074c-0.913-0.913-2.397-0.913-3.31 0z"/></g><g transform="translate(372.57 471.46)"><path d="m0 0c-0.421 0.421-0.421 1.106 0 1.527l32.074 32.075c0.421 0.421 1.107 0.421 1.528 0l32.074-32.075c0.421-0.421 0.421-1.106 0-1.527l-32.074-32.074c-0.421-0.421-1.107-0.421-1.528 0z" fill="#ffd046"/></g><g transform="translate(388.2 477.21)"><path d="m0 0h1.24c0.696 0 1.15 0.485 1.15 1.243 0 0.835-0.5 1.455-1.149 1.455h-1.241zm0 6.214v-2.303h1.3c0.577 0 0.939 0.485 0.939 1.273 0 0.743-0.267 1.03-0.938 1.03zm-1.24-7.427v8.64h2.723c1.147 0 1.966-0.909 1.966-2.243 0-0.792-0.211-1.152-0.907-1.88 0.665-0.546 1.058-1.274 1.058-2.153 0-1.293-1.029-2.364-2.299-2.364z"/></g><g transform="translate(393.27 478.51)"><path d="m0 0v6.129h1.24v-6.214c0-0.813 0.475-1.365 1.209-1.365 0.666 0 1.15 0.545 1.15 1.365v6.214h1.241v-6.147c0-1.966-1.518-2.644-2.391-2.644-0.798 0-2.449 0.519-2.449 2.662"/></g><g transform="translate(402.01 477.06)"><path d="m0 0c0.67 0 1.217 0.607 1.217 1.305-1e-3 1.84-3.226 1.836-3.226 4.185 0 1.243 0.974 2.242 2.222 2.242 1.218 0 2.162-0.939 2.192-2.243h-1.189c-0.03 0.605-0.457 1-1.004 1-0.579 0-1.035-0.424-1.035-0.999 0-0.518 0.325-0.724 0.728-0.977 1.169-0.705 2.499-1.556 2.499-3.209 0-1.399-1.066-2.517-2.405-2.517-1.522 0-2.434 1.287-2.434 2.7h1.219c0-0.735 0.364-1.487 1.216-1.487"/></g><g transform="translate(409.3 476)"><path d="m0 0-0.821 4.517-0.822-4.517h-1.094l-1.369 8.64h1.217l0.73-4.608 0.851 4.608h0.974l0.821-4.608 0.76 4.608h1.217l-1.399-8.64z"/></g><g transform="translate(414.41 479.58)"><path d="m0 0h1.246l-0.638 2.486zm1.55-1.213h-1.853l-0.578-2.364h-1.247l2.158 8.64h1.217l2.157-8.64h-1.246z"/></g><g transform="translate(421.71 476)"><path d="m0 0h-1.246v3.911l-2.128 4.729h1.307l1.459-3.122 1.429 3.122h1.337l-2.158-4.729z"/></g><g transform="translate(386.1 468.66)"><path d="m0 0c-0.12 0.849-0.456 1.243-1.035 1.243-1.004 0-1.37-0.788-1.37-3.03 0-2.486 0.426-3.487 1.492-3.487 0.732 0 0.913 0.607 0.913 1.243h1.248c-0.03-1.424-0.942-2.455-2.161-2.455-1.856 0-2.679 1.485-2.679 4.668 0 2.788 0.882 4.272 2.588 4.272 1.583 0 2.21-1.444 2.252-2.454z"/></g><g transform="translate(390.32 469.75)"><path d="m0 0v-2.183h1.27c0.728 0 1.12 0.395 1.12 1.092 0 0.668-0.454 1.091-1.119 1.091zm1.18-3.365h-1.18v-4.062h-1.24v8.64h2.572c1.355 0 2.269-0.91 2.269-2.304 0-1.03-0.425-1.788-1.241-2.092l1.239-4.244h-1.268z"/></g><g transform="translate(397.76 469.9)"><path d="m0 0c-0.246 0-1.36 0.051-1.36-3.247 0-3.32 1.114-3.27 1.36-3.27s1.359-0.05 1.359 3.27c0 3.298-1.113 3.247-1.359 3.247m-2.55-3.24c0 4.524 2.099 4.452 2.564 4.452s2.536 0.069 2.536-4.455c0-4.557-2.071-4.485-2.536-4.485s-2.564-0.072-2.564 4.488"/></g><g transform="translate(404.04 463.38)"><path d="m0 0c0.669 0 1.217 0.607 1.217 1.305-1e-3 1.84-3.226 1.836-3.226 4.185 0 1.243 0.974 2.242 2.222 2.242 1.218 0 2.162-0.939 2.192-2.244h-1.189c-0.03 0.606-0.457 1.001-1.004 1.001-0.579 0-1.035-0.424-1.035-0.999 0-0.518 0.325-0.724 0.728-0.977 1.169-0.705 2.499-1.556 2.499-3.21 0-1.398-1.066-2.516-2.405-2.516-1.522 0-2.434 1.287-2.434 2.7h1.219c0-0.735 0.364-1.487 1.216-1.487"/></g><g transform="translate(409.92 463.38)"><path d="m0 0c0.67 0 1.217 0.607 1.217 1.305-1e-3 1.84-3.226 1.836-3.226 4.185 0 1.243 0.974 2.242 2.222 2.242 1.218 0 2.162-0.939 2.192-2.244h-1.189c-0.03 0.606-0.457 1.001-1.004 1.001-0.579 0-1.035-0.424-1.035-0.999 0-0.518 0.325-0.724 0.728-0.977 1.168-0.705 2.499-1.556 2.499-3.21 0-1.398-1.066-2.516-2.405-2.516-1.522 0-2.434 1.287-2.434 2.7h1.219c0-0.735 0.364-1.487 1.216-1.487"/></g><path d="m413.8 470.96h1.21v-8.64h-1.21z"/><g transform="translate(418.15 468.11)"><path d="m0 0v-5.79h-1.24v8.64h1.24l2.36-5.184v5.184h1.241v-8.64h-0.938z"/></g><g transform="translate(426.15 462.17)"><path d="m0 0c-0.786 0-2.68 0.146-2.68 4.456s1.801 4.485 2.588 4.485c1.249 0 2.192-0.908 2.253-2.181h-1.248c-0.031 0.576-0.426 0.971-1.035 0.971-0.417 0-1.369-0.131-1.369-3.276s1.043-3.243 1.46-3.243c0.639 0 0.944 0.421 0.944 1.334v0.575h-0.975v1.214h2.223v-1.788c0-2.163-1.423-2.547-2.161-2.547"/></g></g><text transform="matrix(1 0 0 -1 459.14 424.36)" fill="black" font-family="Helvetica" font-size="9px"><tspan x="0 8.4960003 13.5 18.504 21.500999 26.504999 31.509001 36.513" y="0">W10-21aP</tspan></text><g clip-path="url(#a)"><g transform="translate(460.89 436.78)"><path d="m0 0c-1.26 0-2.284 1.025-2.284 2.285v30.24c0 1.26 1.024 2.285 2.284 2.285h38.88c1.26 0 2.285-1.025 2.285-2.285v-30.24c0-1.26-1.025-2.285-2.285-2.285z" fill="#ffd046"/></g><g transform="translate(499.77 471.72)"><path d="m0 0h-38.88c-1.329 0-2.41-1.081-2.41-2.41v-30.24c0-1.329 1.081-2.41 2.41-2.41h38.88c1.329 0 2.41 1.081 2.41 2.41v30.24c0 1.329-1.081 2.41-2.41 2.41m0-0.25c1.193 0 2.16-0.967 2.16-2.16v-30.24c0-1.193-0.967-2.16-2.16-2.16h-38.88c-1.193 0-2.16 0.967-2.16 2.16v30.24c0 1.193 0.967 2.16 2.16 2.16z"/></g><g transform="translate(460.89 437.45)"><path d="m0 0c-0.893 0-1.62 0.727-1.62 1.62v30.24c0 0.893 0.727 1.62 1.62 1.62h38.88c0.893 0 1.62-0.727 1.62-1.62v-30.24c0-0.893-0.727-1.62-1.62-1.62z"/></g><g transform="translate(460.89 438.35)"><path d="m0 0c-0.397 0-0.72 0.323-0.72 0.72v30.24c0 0.397 0.323 0.72 0.72 0.72h38.88c0.397 0 0.72-0.323 0.72-0.72v-30.24c0-0.397-0.323-0.72-0.72-0.72z" fill="#ffd046"/></g><g transform="translate(464.15 458.76)"><path d="m0 0 1.086 0.404c0.304-0.682 0.859-1.061 1.541-1.061 0.657 0 1.112 0.455 1.112 1.061 0 0.963-1.111 1.112-2.046 1.491-0.429 0.177-1.39 0.606-1.39 1.793 0 1.416 0.96 1.944 2.248 1.944 1.011 0 1.693-0.581 2.047-1.465l-1.011-0.303c-0.113 0.284-0.524 0.631-1.061 0.631-1.027 0-1.114-0.548-1.114-0.728 0-0.673 0.581-0.806 1.525-1.102 0.961-0.302 1.964-0.744 1.964-2.288 0-1.554-1.26-2.196-2.274-2.196-1.238 0-2.147 0.733-2.627 1.819"/></g><path d="m470.16 464.26h1.152v-7.2h-1.152z"/><g transform="translate(475.35 464.39)"><path d="m0 0c1.154 0 1.804-0.437 2.291-1.591l-1.086-0.429c-0.303 0.632-0.606 0.859-1.162 0.859-1.582 0-1.491-2.408-1.491-2.577 0-0.271-0.061-2.551 1.339-2.551 0.733 0 1.264 0.454 1.264 1.111v0.303h-1.314v1.137h2.449v-1.44c0-1.313-0.959-2.273-2.274-2.273-0.261 0-2.626-0.215-2.626 3.726 0 0.552 0.031 3.725 2.61 3.725"/></g><g transform="translate(480.2 461.94)"><path d="m0 0v-4.875h-1.136v7.2h1.136l2.628-4.598v4.598h1.137v-7.2h-1.01z"/></g><g transform="translate(487.27 460.25)"><path d="m0 0h1.448l-0.712 2.02zm1.854-1.162h-2.261l-0.712-2.021h-1.219l2.49 7.2h1.144l2.489-7.2h-1.219z"/></g><g transform="translate(492.03 464.27)"><path d="m0 0h1.136v-6.139h3.33v-1.061h-4.466z"/></g><g transform="translate(466.5 447.29)"><path d="m0 0h1.448l-0.712 2.021zm1.854-1.162h-2.261l-0.712-2.021h-1.219l2.49 7.2h1.144l2.489-7.2h-1.219z"/></g><g transform="translate(475.46 447.24)"><path d="m0 0h-2.629v-3.133h-1.136v7.2h1.136v-2.905h2.628v2.905h1.138v-7.2h-1.137z"/></g><g transform="translate(478.84 451.31)"><path d="m0 0h4.239v-1.137h-3.103v-1.768h2.094v-1.162h-2.094v-1.971h3.33v-1.162h-4.466z"/></g><g transform="translate(486.39 447.29)"><path d="m0 0h1.448l-0.712 2.021zm1.854-1.162h-2.261l-0.712-2.021h-1.219l2.49 7.2h1.144l2.489-7.2h-1.219z"/></g><g transform="translate(494.01 450.17)"><path d="m0 0h-1.289v-4.9h1.209c1.047 0 1.391 1.269 1.391 2.624 0 0.644-0.183 2.276-1.311 2.276m-2.424-6.063v7.2h2.597c1.817 0 2.304-2.393 2.304-3.438 0-2.701-1.389-3.762-2.3-3.762z"/></g></g></g></svg>
