<?xml version="1.0" encoding="UTF-8"?>
<svg width="380.05" height="566.16" version="1.1" viewBox="0 0 380.05 566.16" xml:space="preserve" xmlns="http://www.w3.org/2000/svg"><defs><clipPath id="h"><path d="m211.11 159.77h363.89v464.13h-363.89z"/></clipPath><clipPath id="g"><path d="m211.11 159.77h363.89v464.13h-363.89z"/></clipPath><clipPath id="f"><path d="m211.11 159.77h363.89v464.13h-363.89z"/></clipPath><clipPath id="e"><path d="m211.11 159.77h363.89v464.13h-363.89z"/></clipPath><clipPath id="d"><path d="m211.11 159.77h363.89v464.13h-363.89z"/></clipPath><clipPath id="c"><path d="m211.11 159.77h363.89v464.13h-363.89z"/></clipPath><clipPath id="b"><path d="m211.11 159.77h363.89v464.13h-363.89z"/></clipPath><clipPath id="a"><path d="m211.11 159.77h363.89v464.13h-363.89z"/></clipPath></defs><g transform="matrix(1.3333 0 0 -1.3333 -321.25 786.76)"><text transform="matrix(1 0 0 -1 278.75 202.53)" fill="black" font-family="Helvetica" font-size="8px"><tspan x="0 6.664 8.4399996 12.888 14.664 21.327999 25.775999 32.439999 34.664001 41.327999 45.776001 50.223999 54.672001 56.896 58.672001 63.119999 67.568001 69.792 74.239998 78.688004 80.463997 84.912003 89.360001 91.584 93.807999 98.255997 102.704 104.48 108.928 112.928 117.376 121.824 124.048 126.272 128.496 132.944 135.168 139.168 140.944 145.392 149.84 155.616 160.064 161.84 165.84 169.84 172.064 176.51199 180.96001 185.408 187.632 192.08 196.528 198.752 203.2 208.976 213.424 217.424 221.424 223.64799 227.64799 232.09599 236.54401 240.992 242.76801 247.216" y="0">Minimum mounting height adjacent to sidewalks and pathways should </tspan><tspan x="0 4.448 8.8959999 11.12 15.568 17.792 20.016001 24.464001 28.912001 31.136 33.360001 35.584 42.248001 44.023998 48.472 50.248001 56.911999 61.360001 68.024002 70.248001 76.912003 81.360001 85.807999 90.255997 92.480003 94.255997 98.704002 103.152 105.376 109.824 114.272 116.048 120.496 124.944 127.168 129.392 133.84 138.28799 142.73599 146.73599 151.18401 153.408 157.856 160.08 164.08 165.856 170.304 174.752 180.528 184.976 186.752 190.752 192.976 196.976 201.424 205.87199 207.64799 209.424 211.64799 216.09599 220.54401 222.76801 227.216 229.44 231.664 236.112 240.56 242.784 245.008" y="8.4960003">be 4 feet. Minimum mounting height above a sidewalk shall be 7 feet. </tspan><tspan x="0 6.664 8.4399996 12.888 14.664 21.327999 25.775999 32.439999 34.664001 41.327999 45.776001 50.223999 54.672001 56.896 58.672001 63.119999 67.568001 69.792 74.239998 78.688004 80.463997 84.912003 89.360001 91.584 93.807999 98.255997 102.704 107.152 111.152 115.6 117.824 122.272 124.496 128.944 133.392 135.616 140.064 145.84 150.28799 154.28799 156.51199 160.51199 164.96001 169.408 173.856 175.632 180.08 182.304 186.752 191.2 193.424 197.87199 200.09599 202.32001 206.76801 211.216 213.44" y="16.992001">Minimum mounting height above a pathway should be 8 feet.</tspan><tspan x="0 6.664 8.4399996 12.888 14.664 21.327999 25.775999 32.439999 34.664001 36.439999 40.888 43.112 47.560001 50.223999 54.672001 56.448002 58.672001 63.119999 65.211197 67.435204 71.435204 75.883202 78.107201 80.3312 82.555199 87.003197 89.667198 91.891197 96.339203 100.7872 103.0112 107.4592 113.2352 117.6832 121.6832 125.6832 127.9072 131.9072 136.35519 140.80321 145.25121 147.02721 151.4752 153.6992 158.1472 162.5952 164.8192 169.2672 171.4912 173.71519 178.16319 182.61121 184.83521 187.0592 189.2832 194.6192 196.3952 200.8432 205.2912 211.0672 215.5152 217.2912 221.2912 225.2912 227.5152 231.9632 236.41119" y="28.488001">Minimum lateral offset for pathways should be 2 feet. Sidewalks do </tspan><tspan x="0 4.448 8.8959999 11.12 13.344 17.792 22.24 26.24 30.688 32.911999 37.360001 39.584 46.248001 48.023998 52.472 54.248001 60.911999 65.360001 72.024002 74.248001 76.024002 80.472 82.695999 87.143997 89.807999 94.255997 96.031998 98.255997 102.704 104.7968 107.0208 111.0208 115.4688 117.6928" y="36.984001">not have a minimum lateral offset.</tspan></text><g transform="translate(415.33 481.98)"><path d="m0 0h51.111" fill="none" stroke="#000" stroke-miterlimit="2.613" stroke-width=".856"/></g><g transform="translate(471.22 486.51)"><path d="m0 0h-60.655" fill="none" stroke="#000" stroke-miterlimit="2.613" stroke-width=".856"/></g><g clip-path="url(#h)"><g transform="translate(386.42 470.39)"><path d="m0 0c0 10.023 8.129 18.152 18.152 18.152 10.024 0 18.165-8.129 18.165-18.152 0-10.026-8.141-18.153-18.165-18.153-10.023 0-18.152 8.127-18.152 18.153" fill="#fff" stroke="#000" stroke-miterlimit="2.613" stroke-width=".856"/></g><g transform="translate(459.05 470.39)"><path d="m0 0c0 10.023 8.128 18.152 18.151 18.152 10.024 0 18.154-8.129 18.154-18.152 0-10.026-8.13-18.153-18.154-18.153-10.023 0-18.151 8.127-18.151 18.153" fill="#fff" stroke="#000" stroke-miterlimit="2.613" stroke-width=".856"/></g><g transform="translate(395.49 470.39)"><path d="m0 0c0 5.012 4.064 9.076 9.076 9.076s9.075-4.064 9.075-9.076c0-5.013-4.063-9.077-9.075-9.077s-9.076 4.064-9.076 9.077" fill="#ed1d24" fill-rule="evenodd"/><path d="m0 0c0 5.012 4.064 9.076 9.076 9.076s9.075-4.064 9.075-9.076c0-5.013-4.063-9.077-9.075-9.077s-9.076 4.064-9.076 9.077z" fill="none" stroke="#000" stroke-miterlimit="2.613" stroke-width=".856"/></g><g transform="translate(404.57 481.77)"><path d="m0 0c-6.059 0-11.012-4.762-11.351-10.736l4.582-0.646c0 3.732 3.037 6.768 6.769 6.768s6.769-3.036 6.769-6.768l4.581 0.646c-0.339 5.974-5.291 10.736-11.35 10.736" fill-rule="evenodd"/></g><g transform="translate(468.13 470.39)"><path d="m0 0c0 5.011 4.065 9.075 9.075 9.075 5.012 0 9.076-4.064 9.076-9.075 0-5.013-4.064-9.076-9.076-9.076-5.01 0-9.075 4.063-9.075 9.076" fill="#ed1d24" fill-rule="evenodd"/><path d="m0 0c0 5.011 4.065 9.075 9.075 9.075 5.012 0 9.076-4.064 9.076-9.075 0-5.013-4.064-9.076-9.076-9.076-5.01 0-9.075 4.063-9.075 9.076z" fill="none" stroke="#000" stroke-miterlimit="2.613" stroke-width=".856"/></g><g transform="translate(477.21 481.77)"><path d="m0 0c-6.057 0-11.012-4.762-11.351-10.736l4.583-0.646c0 3.732 3.038 6.768 6.768 6.768 3.733 0 6.77-3.036 6.77-6.768l4.582 0.646c-0.339 5.974-5.291 10.736-11.352 10.736" fill-rule="evenodd"/></g><g transform="translate(410.56 487.51)"><path d="m0 0c1.725-0.602 3.327-1.459 4.772-2.527" fill="none" stroke="#000" stroke-miterlimit="2.613" stroke-width=".856"/></g><g transform="translate(466.44 484.98)"><path d="m0 0c1.443 1.067 3.045 1.924 4.771 2.527" fill="none" stroke="#000" stroke-miterlimit="2.613" stroke-width=".856"/></g><g transform="translate(445.22 256.7)"><path d="m0 0h-8.628v320.97h8.628z" fill="none" stroke="#000" stroke-miterlimit="2.613" stroke-width=".856"/></g><g transform="translate(425.57 233.35)"><path d="m0 0h-87.301" fill="none" stroke="#000" stroke-miterlimit="2.613" stroke-width=".856"/></g><g transform="translate(454.4 233.35)"><path d="m0 0h26.39" fill="none" stroke="#000" stroke-miterlimit="2.613" stroke-width=".856"/></g><g transform="translate(340.88 232.19)"><path d="m0 0 2.472-1.648" fill="none" stroke="#000" stroke-miterlimit="2.613" stroke-width=".856"/></g><g transform="translate(342.69 233.18)"><path d="m0 0 2.143-1.484" fill="none" stroke="#000" stroke-miterlimit="2.613" stroke-width=".856"/></g><g transform="translate(346.64 233.18)"><path d="m0 0-4.614-4.449" fill="none" stroke="#000" stroke-miterlimit="2.613" stroke-width=".856"/></g><g transform="translate(348.95 233.18)"><path d="m0 0-4.119-4.449" fill="none" stroke="#000" stroke-miterlimit="2.613" stroke-width=".856"/></g><g transform="translate(351.26 233.35)"><path d="m0 0-4.284-4.945" fill="none" stroke="#000" stroke-miterlimit="2.613" stroke-width=".856"/></g><g transform="translate(351.42 232.69)"><path d="m0 0 1.483-1.484" fill="none" stroke="#000" stroke-miterlimit="2.613" stroke-width=".856"/></g><g transform="translate(350.1 232.03)"><path d="m0 0 1.978-2.141" fill="none" stroke="#000" stroke-miterlimit="2.613" stroke-width=".856"/></g><g transform="translate(349.28 230.55)"><path d="m0 0 1.978-2.801" fill="none" stroke="#000" stroke-miterlimit="2.613" stroke-width=".856"/></g><g transform="translate(354.06 233.35)"><path d="m0 0-1.978-4.119" fill="none" stroke="#000" stroke-miterlimit="2.613" stroke-width=".856"/></g><g transform="translate(356.04 233.35)"><path d="m0 0-3.131-4.945" fill="none" stroke="#000" stroke-miterlimit="2.613" stroke-width=".856"/></g><g transform="translate(357.68 233.35)"><path d="m0 0-2.472-4.449" fill="none" stroke="#000" stroke-miterlimit="2.613" stroke-width=".856"/></g><g transform="translate(359.83 233.35)"><path d="m0 0-2.966-4.945" fill="none" stroke="#000" stroke-miterlimit="2.613" stroke-width=".856"/></g><g transform="translate(358.01 229.89)"><path d="m0 0 1.154-0.988" fill="none" stroke="#000" stroke-miterlimit="2.613" stroke-width=".856"/></g><g transform="translate(358.84 231.2)"><path d="m0 0 2.143-2.471" fill="none" stroke="#000" stroke-miterlimit="2.613" stroke-width=".856"/></g><g transform="translate(359.66 232.69)"><path d="m0 0 2.143-2.309" fill="none" stroke="#000" stroke-miterlimit="2.613" stroke-width=".856"/></g><g transform="translate(361.47 233.18)"><path d="m0 0 0.99-1.154" fill="none" stroke="#000" stroke-miterlimit="2.613" stroke-width=".856"/></g><g transform="translate(364.11 233.18)"><path d="m0 0-3.79-4.943" fill="none" stroke="#000" stroke-miterlimit="2.613" stroke-width=".856"/></g><g transform="translate(366.25 233.18)"><path d="m0 0-3.13-3.789" fill="none" stroke="#000" stroke-miterlimit="2.613" stroke-width=".856"/></g><g transform="translate(368.07 233.35)"><path d="m0 0-3.13-4.945" fill="none" stroke="#000" stroke-miterlimit="2.613" stroke-width=".856"/></g><g transform="translate(366.91 228.73)"><path d="m0 0 2.966 4.449 2.473-2.803" fill="none" stroke="#000" stroke-miterlimit="2.613" stroke-width=".856"/></g><g transform="translate(367.9 230.22)"><path d="m0 0 1.978-2.309" fill="none" stroke="#000" stroke-miterlimit="2.613" stroke-width=".856"/></g><g transform="translate(369.22 231.37)"><path d="m0 0 2.472-2.803" fill="none" stroke="#000" stroke-miterlimit="2.613" stroke-width=".856"/></g><g transform="translate(371.86 233.02)"><path d="m0 0 1.484-1.32" fill="none" stroke="#000" stroke-miterlimit="2.613" stroke-width=".856"/></g><g transform="translate(374.99 233.18)"><path d="m0 0-3.79-5.437" fill="none" stroke="#000" stroke-miterlimit="2.613" stroke-width=".856"/></g><g transform="translate(377.29 233.18)"><path d="m0 0-3.954-5.107" fill="none" stroke="#000" stroke-miterlimit="2.613" stroke-width=".856"/></g><g transform="translate(379.27 233.51)"><path d="m0 0-3.46-4.779" fill="none" stroke="#000" stroke-miterlimit="2.613" stroke-width=".856"/></g><g transform="translate(382.07 233.35)"><path d="m0 0-4.613-5.109" fill="none" stroke="#000" stroke-miterlimit="2.613" stroke-width=".856"/></g><g transform="translate(378.94 229.56)"><path d="m0 0 1.648-1.316" fill="none" stroke="#000" stroke-miterlimit="2.613" stroke-width=".856"/></g><g transform="translate(380.09 231.04)"><path d="m0 0 2.308-2.639" fill="none" stroke="#000" stroke-miterlimit="2.613" stroke-width=".856"/></g><g transform="translate(381.25 232.19)"><path d="m0 0 2.309-2.473" fill="none" stroke="#000" stroke-miterlimit="2.613" stroke-width=".856"/></g><g transform="translate(383.06 233.18)"><path d="m0 0 1.814-1.978" fill="none" stroke="#000" stroke-miterlimit="2.613" stroke-width=".856"/></g><g transform="translate(386.69 233.35)"><path d="m0 0-4.119-5.604" fill="none" stroke="#000" stroke-miterlimit="2.613" stroke-width=".856"/></g><g transform="translate(389.16 233.51)"><path d="m0 0-3.296-4.283" fill="none" stroke="#000" stroke-miterlimit="2.613" stroke-width=".856"/></g><g transform="translate(391.3 233.18)"><path d="m0 0-3.791-5.437" fill="none" stroke="#000" stroke-miterlimit="2.613" stroke-width=".856"/></g><g transform="translate(393.28 233.35)"><path d="m0 0-3.461-5.109" fill="none" stroke="#000" stroke-miterlimit="2.613" stroke-width=".856"/></g><g transform="translate(390.81 229.56)"><path d="m0 0 2.307-1.811" fill="none" stroke="#000" stroke-miterlimit="2.613" stroke-width=".856"/></g><g transform="translate(391.96 231.04)"><path d="m0 0 1.979-1.812" fill="none" stroke="#000" stroke-miterlimit="2.613" stroke-width=".856"/></g><g transform="translate(393.11 232.52)"><path d="m0 0 2.143-1.812" fill="none" stroke="#000" stroke-miterlimit="2.613" stroke-width=".856"/></g><g transform="translate(395.09 233.18)"><path d="m0 0 0.826-0.824" fill="none" stroke="#000" stroke-miterlimit="2.613" stroke-width=".856"/></g><g transform="translate(397.56 233.18)"><path d="m0 0-3.295-4.779" fill="none" stroke="#000" stroke-miterlimit="2.613" stroke-width=".856"/></g><g transform="translate(399.87 233.35)"><path d="m0 0-3.295-4.119" fill="none" stroke="#000" stroke-miterlimit="2.613" stroke-width=".856"/></g><g transform="translate(401.68 233.02)"><path d="m0 0-3.131-4.451" fill="none" stroke="#000" stroke-miterlimit="2.613" stroke-width=".856"/></g><g transform="translate(399.7 229.72)"><path d="m0 0 1.647-1.482" fill="none" stroke="#000" stroke-miterlimit="2.613" stroke-width=".856"/></g><g transform="translate(400.86 231.37)"><path d="m0 0 2.309-2.471" fill="none" stroke="#000" stroke-miterlimit="2.613" stroke-width=".856"/></g><g transform="translate(401.85 232.52)"><path d="m0 0 1.977-1.812" fill="none" stroke="#000" stroke-miterlimit="2.613" stroke-width=".856"/></g><g transform="translate(403.82 233.18)"><path d="m0 0 0.988-1.154" fill="none" stroke="#000" stroke-miterlimit="2.613" stroke-width=".856"/></g><g transform="translate(405.8 233.18)"><path d="m0 0-2.967-5.107" fill="none" stroke="#000" stroke-miterlimit="2.613" stroke-width=".856"/></g><g transform="translate(408.27 233.35)"><path d="m0 0-2.637-4.781" fill="none" stroke="#000" stroke-miterlimit="2.613" stroke-width=".856"/></g><g transform="translate(410.09 233.02)"><path d="m0 0-1.979-3.955" fill="none" stroke="#000" stroke-miterlimit="2.613" stroke-width=".856"/></g><g transform="translate(409.59 228.24)"><path d="m0 0 2.636 4.779 2.966-2.306" fill="none" stroke="#000" stroke-miterlimit="2.613" stroke-width=".856"/></g><g transform="translate(410.75 229.23)"><path d="m0 0 2.471-1.484" fill="none" stroke="#000" stroke-miterlimit="2.613" stroke-width=".856"/></g><g transform="translate(411.4 231.2)"><path d="m0 0 3.131-2.305" fill="none" stroke="#000" stroke-miterlimit="2.613" stroke-width=".856"/></g><g transform="translate(414.53 233.02)"><path d="m0 0 1.154-1.154" fill="none" stroke="#000" stroke-miterlimit="2.613" stroke-width=".856"/></g><g transform="translate(417.34 233.35)"><path d="m0 0-3.461-6.262" fill="none" stroke="#000" stroke-miterlimit="2.613" stroke-width=".856"/></g><g transform="translate(419.97 233.18)"><path d="m0 0-3.297-4.615" fill="none" stroke="#000" stroke-miterlimit="2.613" stroke-width=".856"/></g><g transform="translate(421.45 233.18)"><path d="m0 0-2.8-5.107" fill="none" stroke="#000" stroke-miterlimit="2.613" stroke-width=".856"/></g><g transform="translate(423.93 233.18)"><path d="m0 0-2.967-4.943" fill="none" stroke="#000" stroke-miterlimit="2.613" stroke-width=".856"/></g><g transform="translate(424.75 230.87)"><path d="m0 0-2.473-3.129" fill="none" stroke="#000" stroke-miterlimit="2.613" stroke-width=".856"/></g><g transform="translate(452.71 580.06)"><path d="m0 0h-23.643c0 5.291 5.293 9.581 11.825 9.581 6.527 0 11.818-4.29 11.818-9.581z" fill="none" stroke="#000" stroke-miterlimit="2.613" stroke-width=".856"/></g><g transform="translate(433.22 580.06)"><path d="m0 0h15.337v-2.397h-15.337z" fill="none" stroke="#000" stroke-miterlimit="2.613" stroke-width=".856"/></g><g transform="translate(448.96 482.7)"><path d="m0 0c0-1.565-1.28-2.847-2.849-2.847h-10.451c-1.569 0-2.854 1.282-2.854 2.847v3.203c0 1.567 1.285 2.848 2.854 2.848h10.451c1.569 0 2.849-1.281 2.849-2.848z" fill="#fff" fill-rule="evenodd"/><path d="m0 0c0-1.565-1.28-2.847-2.849-2.847h-10.451c-1.569 0-2.854 1.282-2.854 2.847v3.203c0 1.567 1.285 2.848 2.854 2.848h10.451c1.569 0 2.849-1.281 2.849-2.848z" fill="none" stroke="#000" stroke-miterlimit="2.613" stroke-width=".856"/></g><g transform="translate(447.92 254.95)"><path d="m0 0c0-0.857-0.922-1.559-2.044-1.559" fill="none" stroke="#000" stroke-miterlimit="2.613" stroke-width=".856"/></g><g transform="translate(445.88 253.39)"><path d="m0 0h-10.1" fill="none" stroke="#000" stroke-miterlimit="2.613" stroke-width=".856"/></g><g transform="translate(435.78 253.39)"><path d="m0 0c-1.125 0-2.044 0.701-2.044 1.559" fill="none" stroke="#000" stroke-miterlimit="2.613" stroke-width=".856"/></g><g transform="translate(433.73 254.95)"><path d="m0 0v0.131" fill="none" stroke="#000" stroke-miterlimit="2.613" stroke-width=".856"/></g><g transform="translate(433.73 255.08)"><path d="m0 0c0 0.857 0.919 1.561 2.044 1.561" fill="none" stroke="#000" stroke-miterlimit="2.613" stroke-width=".856"/></g><g transform="translate(435.78 256.64)"><path d="m0 0h10.1" fill="none" stroke="#000" stroke-miterlimit="2.613" stroke-width=".856"/></g><g transform="translate(445.88 256.64)"><path d="m0 0c1.122 0 2.044-0.703 2.044-1.561" fill="none" stroke="#000" stroke-miterlimit="2.613" stroke-width=".856"/></g><g transform="translate(447.92 255.08)"><path d="m0 0v-0.131" fill="none" stroke="#000" stroke-miterlimit="2.613" stroke-width=".856"/></g><g transform="translate(446.19 246.62)"><path d="m0 0h-10.724v6.775h10.724z" fill="none" stroke="#000" stroke-miterlimit="2.613" stroke-width=".856"/></g><g transform="translate(440.83 246.62)"><path d="m0 0v6.545" fill="none" stroke="#000" stroke-miterlimit="2.613" stroke-width=".856"/></g><g transform="translate(447.46 245.84)"><path d="m0 0c0 0.43-0.46 0.781-1.022 0.781" fill="none" stroke="#000" stroke-miterlimit="2.613" stroke-width=".856"/></g><g transform="translate(446.44 246.62)"><path d="m0 0h-11.23" fill="none" stroke="#000" stroke-miterlimit="2.613" stroke-width=".856"/></g><g transform="translate(435.21 246.62)"><path d="m0 0c-0.56 0-1.022-0.352-1.022-0.781" fill="none" stroke="#000" stroke-miterlimit="2.613" stroke-width=".856"/></g><g transform="translate(434.19 245.84)"><path d="m0 0v-0.877" fill="none" stroke="#000" stroke-miterlimit="2.613" stroke-width=".856"/></g><g transform="translate(434.19 244.96)"><path d="m0 0c0-0.428 0.463-0.781 1.022-0.781" fill="none" stroke="#000" stroke-miterlimit="2.613" stroke-width=".856"/></g><g transform="translate(435.21 244.18)"><path d="m0 0h11.23" fill="none" stroke="#000" stroke-miterlimit="2.613" stroke-width=".856"/></g><g transform="translate(446.44 244.18)"><path d="m0 0c0.562 0 1.022 0.354 1.022 0.781" fill="none" stroke="#000" stroke-miterlimit="2.613" stroke-width=".856"/></g><g transform="translate(447.46 244.96)"><path d="m0 0v0.877" fill="none" stroke="#000" stroke-miterlimit="2.613" stroke-width=".856"/></g><g transform="translate(453.06 240.77)"><path d="m0 0h-24.478v1.785h24.478z" fill="none" stroke="#000" stroke-miterlimit="2.613" stroke-width=".856"/></g><g transform="translate(453.06 242.55)"><path d="m0 0h-24.478l5.106 1.473h14.022z" fill="none" stroke="#000" stroke-miterlimit="2.613" stroke-width=".856"/></g><g transform="translate(447.21 243.54)"><path d="m0 0c0 0.428-0.46 0.779-1.019 0.779h-10.723c-0.561 0-1.021-0.351-1.021-0.779v-0.49c0-0.43 0.46-0.586 1.021-0.588h10.723c0.559 2e-3 1.019 0.158 1.019 0.588z" fill="#fff" fill-rule="evenodd"/><path d="m0 0c0 0.428-0.46 0.779-1.019 0.779h-10.723c-0.561 0-1.021-0.351-1.021-0.779v-0.49c0-0.43 0.46-0.586 1.021-0.588h10.723c0.559 2e-3 1.019 0.158 1.019 0.588z" fill="none" stroke="#000" stroke-miterlimit="2.613" stroke-width=".856"/></g><g transform="translate(423.56 221.28)"><path d="m0 0c-1.209-3.109 5.832-3.648 8.811-2.838 2.989 0.815 7.866 1.898 11.388 1.355 3.523-0.54 5.96-2.165 8.399-1.626 2.438 0.543 6.108 3.109 6.108 3.109" fill="none" stroke="#000" stroke-dasharray="2.5, 1.5" stroke-miterlimit="2.613" stroke-width=".856"/></g><g transform="translate(458.27 221.28)"><path d="m0 0-2.386 12.072h-29.933l-2.387-12.072" fill="none" stroke="#000" stroke-dasharray="2.5, 1.5" stroke-miterlimit="2.613" stroke-width=".856"/></g><g transform="translate(455.88 233.35)"><path d="m0 0-0.991 5.012" fill="none" stroke="#000" stroke-miterlimit="2.613" stroke-width=".856"/></g><g transform="translate(454.89 238.36)"><path d="m0 0c-0.25 1.264-1.507 2.297-2.795 2.297" fill="none" stroke="#000" stroke-miterlimit="2.613" stroke-width=".856"/></g><g transform="translate(452.1 240.66)"><path d="m0 0h-22.366" fill="none" stroke="#000" stroke-miterlimit="2.613" stroke-width=".856"/></g><g transform="translate(429.73 240.66)"><path d="m0 0c-1.285 0-2.542-1.033-2.791-2.297" fill="none" stroke="#000" stroke-miterlimit="2.613" stroke-width=".856"/></g><g transform="translate(426.94 238.36)"><path d="m0 0-0.99-5.012h29.933" fill="none" stroke="#000" stroke-miterlimit="2.613" stroke-width=".856"/></g><g transform="translate(461.56 232.8)"><path d="m0 0 4.334-3.793" fill="none" stroke="#000" stroke-miterlimit="2.613" stroke-width=".856"/></g><g transform="translate(459.66 231.99)"><path d="m0 0 5.146-4.336" fill="none" stroke="#000" stroke-miterlimit="2.613" stroke-width=".856"/></g><g transform="translate(457.22 229.28)"><path d="m0 0 4.336-4.604" fill="none" stroke="#000" stroke-miterlimit="2.613" stroke-width=".856"/></g><g transform="translate(469.69 232.26)"><path d="m0 0-6.502-6.232-4.877 4.878" fill="none" stroke="#000" stroke-miterlimit="2.613" stroke-width=".856"/></g><g transform="translate(465.35 225.76)"><path d="m0 0 6.502 6.773" fill="none" stroke="#000" stroke-miterlimit="2.613" stroke-width=".856"/></g><g transform="translate(473.21 231.99)"><path d="m0 0-5.69-5.963" fill="none" stroke="#000" stroke-miterlimit="2.613" stroke-width=".856"/></g><g transform="translate(469.42 225.76)"><path d="m0 0 5.419 5.42" fill="none" stroke="#000" stroke-miterlimit="2.613" stroke-width=".856"/></g></g><text transform="matrix(1 0 0 -1 342.35 581.34)" fill="black" font-family="Helvetica" font-size="8px"><tspan x="0 5.336 9.7840004 14.232 16.007999 20.455999 22.232 26.68 28.903999 33.352001 37.799999 41.799999 43.576 47.576" y="0">Audible device</tspan><tspan x="-74.552002 -69.216003 -64.767998 -62.543999 -58.096001 -52.32 -47.872002 -43.872002 -41.647999 -37.200001 -34.535999 -32.312 -28.312 -26.535999 -22.087999 -17.639999 -11.864 -7.4159999 -5.6399999" y="362.35999">Pathway or sidewalk</tspan></text><path d="m263.27 233.78h82.747v-6.615h-82.747z" fill-rule="evenodd"/><g transform="translate(333.77 448.3)"><path d="m0 0v-210.59" fill="none" stroke="#000" stroke-width=".75"/></g><g clip-path="url(#g)"><g transform="translate(334.3 236.1)"><path d="m0 0c0.263 0.867 0.504 1.432 0.783 2.127h-2.648c0.118-0.248 0.521-1.26 0.783-2.127 0.28-0.93 0.473-1.771 0.541-2.318 0.068 0.547 0.261 1.388 0.541 2.318"/></g><g transform="translate(333.23 449.92)"><path d="m0 0c-0.263-0.868-0.504-1.432-0.783-2.128h2.648c-0.118 0.249-0.521 1.26-0.783 2.128-0.28 0.929-0.473 1.771-0.541 2.318-0.068-0.547-0.261-1.389-0.541-2.318"/></g><g transform="translate(394.57 452.24)"><path d="m0 0h-63.839" fill="none" stroke="#000" stroke-width=".75"/></g><path d="m337.53 339.73h-8.211v10.053h8.211z" fill="#fff"/></g><text transform="matrix(1 0 0 -1 331.66 342.52)" fill="black" font-family="Helvetica" font-size="8px"><tspan x="0" y="0">a</tspan></text><g transform="translate(382.48 276.11)"><path d="m0 0h-32.534" fill="none" stroke="#000" stroke-width=".75"/></g><g clip-path="url(#f)"><g transform="translate(348.33 275.57)"><path d="m0 0c0.867-0.264 1.432-0.504 2.129-0.783v2.649c-0.25-0.119-1.262-0.522-2.129-0.784-0.93-0.281-1.771-0.473-2.318-0.541 0.547-0.068 1.388-0.262 2.318-0.541"/></g><g transform="translate(384.1 276.65)"><path d="m0 0c-0.867 0.262-1.432 0.504-2.129 0.784v-2.649c0.25 0.117 1.262 0.521 2.129 0.783 0.93 0.279 1.771 0.473 2.318 0.541-0.547 0.068-1.388 0.26-2.318 0.541"/></g><g transform="translate(386.42 460.39)"><path d="m0 0v-189.28" fill="none" stroke="#000" stroke-width=".75"/></g><path d="m361.19 279.19h6.482v-8.212h-6.482z" fill="#fff"/></g><text transform="matrix(1 0 0 -1 362.44 273.93)" fill="black" font-family="Helvetica" font-size="8px"><tspan x="0" y="0">b</tspan></text><g transform="translate(346.02 281.12)"><path d="m0 0v-47.331" fill="none" stroke="#000" stroke-width=".75"/></g><g transform="translate(373.97 282.57)"><path d="m0 0-2.35-0.717 1.544-2.171-1.41-0.984-1.521 2.036-1.544-2.036-1.41 0.984 1.521 2.171-2.327 0.717 0.515 1.633 2.282-0.76v2.662h1.902v-2.662l2.261 0.76z"/></g><g transform="translate(382.5 282.57)"><path d="m0 0-2.35-0.717 1.545-2.171-1.41-0.984-1.521 2.036-1.545-2.036-1.41 0.984 1.521 2.171-2.326 0.717 0.513 1.633 2.284-0.76v2.662h1.902v-2.662l2.26 0.76z"/></g><g transform="translate(344.91 345.2)"><path d="m0 0-2.35-0.717 1.544-2.171-1.41-0.984-1.521 2.036-1.544-2.036-1.41 0.984 1.521 2.171-2.327 0.717 0.515 1.633 2.282-0.76v2.662h1.902v-2.662l2.261 0.76z"/></g><g transform="translate(426.9 583.21)"><path d="m0 0-30.423 0.018" fill="none" stroke="#000" stroke-miterlimit="2.613" stroke-width=".75"/></g><g clip-path="url(#e)"><g transform="translate(426.83 583.75)"><path d="m0 0c-0.868 0.264-1.433 0.504-2.129 0.783v-2.648c0.25 0.119 1.261 0.521 2.129 0.783 0.929 0.281 1.771 0.473 2.317 0.541-0.546 0.068-1.388 0.262-2.317 0.541"/></g></g><text transform="matrix(1 0 0 -1 284.83 486.48)" fill="black" font-family="Helvetica" font-size="8px"><tspan x="0 4.888 6.664 11.112 15.112 19.559999 21.336 25.784 30.232 32.456001 35.119999 39.568001 44.015999 46.240002 48.015999 49.792 54.240002 58.688 60.911999" y="0">Flashing red lights</tspan><tspan x="-22.664 -20 -15.552 -13.328 -11.552 -7.1040001 -3.1040001 1.344 5.7919998 9.7919998 12.016 18.68 20.903999 26.68 28.903999 31.128 35.576 37.352001 41.799999 48.464001 52.911999 55.136002 59.584 62.248001" y="9">(4 inches MIN. diameter)</tspan></text><g transform="translate(401.46 467.15)"><path d="m0 0-50.233 12.062" fill="none" stroke="#000" stroke-miterlimit="2.613" stroke-width=".75"/></g><g clip-path="url(#d)"><g transform="translate(401.53 467.69)"><path d="m0 0c-0.781 0.46-1.274 0.825-1.886 1.261l-0.621-2.575c0.272 0.057 1.349 0.21 2.254 0.262 0.969 0.056 1.832 0.044 2.381-0.017-0.517 0.195-1.289 0.58-2.128 1.069"/></g></g><text transform="matrix(1 0 0 -1 240.35 505.99)" fill="black" font-family="Helvetica" font-size="8px"><tspan x="0 5.336 9.7840004 13.784 17.784 22.232 24.896 29.344 33.792 38.240002 42.688 44.911999 49.360001 53.807999 58.256001 60.48 64.928001 69.375999 73.823997 78.272003 80.496002 83.160004 84.935997 87.160004 89.384003 93.832001 97.832001 102.28 106.728" y="0">Background and hood (if used)</tspan></text><g transform="translate(395.2 480.21)"><path d="m0 0-43.97 27.12" fill="none" stroke="#000" stroke-miterlimit="2.613" stroke-width=".75"/></g><g clip-path="url(#c)"><g transform="translate(395.43 480.7)"><path d="m0 0c-0.599 0.681-0.954 1.181-1.399 1.786l-1.393-2.253c0.276-0.03 1.348-0.22 2.224-0.453 0.938-0.249 1.754-0.53 2.257-0.759-0.43 0.346-1.044 0.953-1.689 1.679"/></g><g transform="translate(510.48 452.24)"><path d="m0 0h-23.271" fill="none" stroke="#000" stroke-width=".75"/></g><g transform="translate(510.48 488.54)"><path d="m0 0h-23.271" fill="none" stroke="#000" stroke-width=".75"/></g><g transform="translate(507.48 484.61)"><path d="m0 0v-28.441" fill="none" stroke="#000" stroke-width=".75"/></g><g transform="translate(508.02 454.56)"><path d="m0 0c0.263 0.867 0.504 1.432 0.783 2.127h-2.648c0.118-0.248 0.521-1.26 0.783-2.127 0.28-0.93 0.473-1.771 0.541-2.318 0.068 0.547 0.261 1.388 0.541 2.318"/></g><g transform="translate(506.94 486.22)"><path d="m0 0c-0.263-0.868-0.504-1.432-0.783-2.128h2.648c-0.118 0.249-0.521 1.26-0.783 2.128-0.28 0.929-0.473 1.772-0.541 2.318-0.068-0.546-0.261-1.389-0.541-2.318"/></g></g><text transform="matrix(1 0 0 -1 476.45 539.96)" fill="black" font-family="Helvetica" font-size="8px"><tspan x="0 4.448 6.6719999 8.448 12.896 16.896 21.344 25.792 29.792 32.015999 38.68 40.903999 46.68" y="0">8 inches MIN.</tspan><tspan x="0 1.776 4 6.224 10.672 13.336 15.112 19.559999 23.559999 28.007999 30.232 32.007999 33.784 38.231998 42.68 44.903999" y="8.4960003">if 4-inch lights</tspan><tspan x="0 4.448 7.112 11.56 13.784 18.232 22.232 26.68" y="16.992001">are used</tspan><tspan x="-19.384001 -14.048 -9.6000004 -5.152 -2.4879999 1.96 5.96 7.7360001 14.4 18.848 21.072001 25.52 27.296" y="134.664">Approximately</tspan><tspan x="-19.384001 -14.936 -10.488 -8.2639999 -6.4879999 -2.04 1.96 6.408 10.856 14.856 17.08 18.856001 21.08 23.304001 27.752001 30.416 32.192001 36.639999 40.639999" y="143.16">16 inches if 4-inch</tspan><tspan x="-19.384001 -17.608 -15.832 -11.384 -6.9359999 -4.7119999 -0.71200001 1.512 5.96 8.6239996 13.072 15.296 19.743999 23.743999 28.191999" y="151.65601">lights are used</tspan></text><g transform="translate(404.57 433.97)"><path d="m0 0v15.271" fill="none" stroke="#000" stroke-width=".75"/></g><g transform="translate(477.21 433.97)"><path d="m0 0v15.271" fill="none" stroke="#000" stroke-width=".75"/></g><g transform="translate(473.27 436.96)"><path d="m0 0h-64.772" fill="none" stroke="#000" stroke-width=".75"/></g><g clip-path="url(#b)"><g transform="translate(406.89 436.43)"><path d="m0 0c0.867-0.263 1.432-0.504 2.127-0.783v2.648c-0.248-0.118-1.26-0.521-2.127-0.783-0.93-0.28-1.772-0.473-2.318-0.541 0.546-0.068 1.388-0.261 2.318-0.541"/></g><g transform="translate(474.89 437.5)"><path d="m0 0c-0.868 0.263-1.433 0.504-2.128 0.783v-2.648c0.249 0.118 1.26 0.521 2.128 0.783 0.929 0.28 1.771 0.473 2.317 0.541-0.546 0.068-1.388 0.261-2.317 0.541"/></g><g transform="translate(458.75 415.28)"><path d="m0 0-8.549 21.681" fill="none" stroke="#000" stroke-width=".75"/></g><g transform="translate(507.48 470.24)"><path d="m0 0c18.498 16.878 15.099 45.07 1.095 54.995" fill="none" stroke="#000" stroke-width=".75"/></g></g><g transform="translate(440.81 520.33)"><path d="m0 0-31.249-31.249-14.6 14.599 31.249 31.25-31.249 31.249 14.6 14.599 31.249-31.249 31.249 31.249 14.6-14.599-31.249-31.249 31.249-31.25-14.6-14.599z" fill="#fff" fill-rule="evenodd"/></g><g transform="translate(472.05 580.96)"><path d="m0 0-31.249-31.249-31.249 31.249-14.776-14.776 31.249-31.249-31.249-31.249 14.776-14.776 31.249 31.249 31.249-31.249 14.776 14.776-31.249 31.249 31.249 31.249-14.599 14.599zm0-0.354 14.423-14.422-31.249-31.249 31.249-31.249-14.423-14.423-31.249 31.249-31.249-31.249-14.423 14.423 31.249 31.249-31.249 31.249 14.423 14.422 31.249-31.249z"/></g><g clip-path="url(#a)"><g transform="translate(408.74 568.7)"><path d="m0 0c1.106-1.106 2.078-0.482 2.362-0.198 0.385 0.384 0.796 1.37-0.13 2.296l-1.818 1.818-2.165-2.165zm-3.172 0.33-3.836-3.837-1.39 1.391 8.813 8.813 3.189-3.188c2.02-2.02 1.01-4.243 0.151-5.102-0.328-0.327-1.738-1.495-3.575-0.838l-2.578-5.685-1.516 1.516 2.413 5.258z"/></g><g transform="translate(415.25 559.47)"><path d="m0 0 1.773-1.773 1.602 3.345zm0.847-3.692-2.767 2.768-3.346-1.603-1.493 1.493 11.862 5.765 1.4-1.4-5.766-11.862-1.493 1.493z"/></g><g transform="translate(427.57 556.98)"><path d="m0 0 1.41-1.41-8.814-8.814-1.41 1.41z"/></g><g transform="translate(432.53 552.02)"><path d="m0 0 1.39-1.39-7.515-7.515 4.077-4.077-1.299-1.299-5.467 5.467z"/></g><g transform="translate(452.01 525.43)"><path d="m0 0c1.106-1.106 2.078-0.482 2.362-0.198 0.385 0.384 0.796 1.37-0.13 2.296l-1.818 1.817-2.165-2.164zm-3.172 0.329-3.836-3.836-1.39 1.391 8.813 8.813 3.189-3.188c2.02-2.021 1.01-4.243 0.151-5.102-0.327-0.327-1.738-1.495-3.575-0.839l-2.578-5.684-1.516 1.516 2.413 5.258z"/></g><g transform="translate(455.1 514.36)"><path d="m0 0c0.95-0.95 2.621-0.821 4.861 1.419s2.368 3.911 1.419 4.861c-0.95 0.949-2.62 0.822-4.861-1.419-2.24-2.24-2.369-3.911-1.419-4.861m6.255 0.024c-0.316-0.316-4.493-4.628-7.692-1.43-3.198 3.198 1.114 7.376 1.43 7.692 0.317 0.317 4.493 4.628 7.692 1.429 3.198-3.198-1.113-7.375-1.43-7.691"/></g><g transform="translate(464.64 510.07)"><path d="m0 0 1.773-1.773 1.602 3.345zm0.847-3.692-2.767 2.768-3.346-1.603-1.493 1.492 11.862 5.766 1.401-1.401-5.767-11.861-1.493 1.493z"/></g><g transform="translate(476.85 504.92)"><path d="m0 0-1.578 1.578-5.999-5.999 1.48-1.48c1.282-1.282 3.257-0.15 4.916 1.51 0.789 0.788 2.561 3.011 1.181 4.391m-10.39-4.454 8.813 8.814 3.18-3.18c2.224-2.224-0.109-5.75-1.388-7.029-3.306-3.306-6.305-2.905-7.42-1.79z"/></g><g transform="translate(404.73 498.89)"><path d="m0 0c-1.24 1.24-4.296 4.794-1.298 7.791 1.278 1.278 2.668 1.629 4.547 0.96l-0.743-1.855c-1.098 0.197-1.603 0.252-2.38-0.526-1.845-1.844 0.745-4.395 1.298-4.948 0.547-0.546 3.122-3.189 5.042-1.269 0.673 0.673 0.653 1.467 0.339 2.382l1.825 0.835c0.73-1.722 0.618-3.275-0.714-4.607-3.172-3.172-6.843 0.164-7.916 1.237"/></g><g transform="translate(417.47 513.29)"><path d="m0 0c1.106 1.106 0.482 2.078 0.198 2.362-0.384 0.385-1.37 0.796-2.296-0.13l-1.817-1.818 2.164-2.165zm-0.329-3.172 3.836-3.836-1.391-1.39-8.813 8.813 3.188 3.189c2.021 2.02 4.243 1.01 5.102 0.151 0.327-0.328 1.495-1.738 0.838-3.575l5.685-2.578-1.516-1.516-5.258 2.414z"/></g><g transform="translate(431.28 519.12)"><path d="m0 0c0.95 0.95 0.821 2.621-1.419 4.861s-3.911 2.368-4.861 1.419c-0.949-0.95-0.822-2.62 1.419-4.861 2.24-2.24 3.911-2.369 4.861-1.419m-0.024 6.256c0.316-0.317 4.628-4.494 1.43-7.693-3.199-3.198-7.376 1.114-7.692 1.43-0.317 0.317-4.628 4.493-1.429 7.692 3.198 3.198 7.375-1.113 7.691-1.429"/></g><g transform="translate(437.4 526.85)"><path d="m0 0 0.835 1.824c1.206-0.463 2.35-0.247 3.185 0.588 0.804 0.804 0.806 1.918 0.063 2.66-1.179 1.179-2.721 0-4.33-0.68-0.742-0.309-2.443-0.959-3.897 0.494-1.733 1.733-1.205 3.554 0.373 5.132 1.237 1.237 2.784 1.361 4.299 0.712l-0.866-1.609c-0.487 0.21-1.416 0.131-2.073-0.525-1.257-1.257-0.693-2.035-0.472-2.256 0.824-0.824 1.698-0.276 3.216 0.517 1.547 0.807 3.316 1.494 5.205-0.395 1.903-1.903 1.146-4.231-0.095-5.473-1.516-1.516-3.526-1.732-5.443-0.989"/></g><g transform="translate(446.77 536.22)"><path d="m0 0 0.835 1.824c1.207-0.463 2.35-0.247 3.185 0.588 0.804 0.804 0.806 1.918 0.063 2.66-1.179 1.179-2.721 0-4.33-0.681-0.742-0.308-2.443-0.958-3.897 0.495-1.733 1.733-1.205 3.554 0.373 5.132 1.237 1.237 2.784 1.361 4.299 0.712l-0.866-1.609c-0.487 0.21-1.416 0.131-2.073-0.525-1.257-1.257-0.693-2.035-0.472-2.256 0.824-0.824 1.697-0.276 3.216 0.517 1.546 0.807 3.316 1.494 5.205-0.395 1.903-1.903 1.146-4.231-0.095-5.473-1.517-1.516-3.526-1.731-5.443-0.989"/></g><g transform="translate(450.01 552.95)"><path d="m0 0 1.41 1.41 8.814-8.814-1.41-1.41z"/></g><g transform="translate(460.26 557.51)"><path d="m0 0 5.968-5.968-1.39-1.39-8.814 8.813 1.39 1.391 8.846-2.412-5.629 5.629 1.393 1.392 8.814-8.813-1.238-1.238z"/></g><g transform="translate(469.5 572.74)"><path d="m0 0c1.412 1.412 2.743 1.672 4.753 0.857l-0.805-1.854c-1.145 0.402-1.793 0.31-2.474-0.371-1.937-1.937 1.123-4.774 1.329-4.98 0.331-0.332 3.048-3.198 4.762-1.484 0.897 0.897 0.991 2.103 0.187 2.907l-0.37 0.371-1.609-1.609-1.393 1.393 2.999 2.999 1.763-1.763c1.608-1.608 1.609-3.958-1e-3 -5.567-0.319-0.32-2.951-3.478-7.776 1.346-0.675 0.675-4.523 4.598-1.365 7.755"/></g></g><text transform="matrix(1 0 0 -1 269.33 194.12)" fill="black" font-family="Arial" font-size="20px" font-weight="bold"><tspan x="0" y="0">*</tspan></text><text transform="matrix(.9985 -.0551 -.0551 -.9985 259.25 165.8)" fill="black" font-family="Arial" font-size="20px" font-weight="bold"><tspan x="0 7.780149" y="0">**</tspan></text></g></svg>
