<?xml version="1.0" encoding="UTF-8"?>
<svg width="635.75" height="874.99" version="1.1" viewBox="0 0 635.75 874.99" xml:space="preserve" xmlns="http://www.w3.org/2000/svg"><defs><clipPath id="h"><path d="m71.049 37.916h496.9v700.08h-496.9z"/></clipPath><clipPath id="g"><path d="m71.049 37.916h496.9v700.08h-496.9z"/></clipPath><clipPath id="f"><path d="m71.049 37.916h496.9v700.08h-496.9z"/></clipPath><clipPath id="e"><path d="m71.049 37.916h496.9v700.08h-496.9z"/></clipPath><clipPath id="d"><path d="m71.049 37.916h496.9v700.08h-496.9z"/></clipPath><clipPath id="c"><path d="m71.049 37.916h496.9v700.08h-496.9z"/></clipPath><clipPath id="b"><path d="m71.049 37.916h496.9v700.08h-496.9z"/></clipPath><clipPath id="a"><path d="m71.049 37.916h496.9v700.08h-496.9z"/></clipPath></defs><g transform="matrix(1.3333 0 0 -1.3333 -103.1 930.99)"><g clip-path="url(#h)"><g transform="translate(480.91 276.22)"><path d="m0 0c0-2.485-2.015-4.5-4.5-4.5h-53.927v47.104h53.927c2.485 0 4.5-2.015 4.5-4.5z" fill="none" stroke="#000" stroke-miterlimit="2"/></g></g><text transform="matrix(1 0 0 -1 152.67 118.45)" fill="black" font-family="Helvetica" font-size="8px"><tspan x="0 3.112 8 12.448 15.112 17.336 19.112 23.559999 27.559999 32.007999 34.231998 36.007999 40.456001 44.903999 47.127998 49.352001 53.799999 55.576 59.576 61.799999 64.463997 68.912003 71.136002 75.584 78.248001 82.695999 87.143997 91.143997 95.592003 97.816002 99.592003 101.368 105.816 110.264 112.488 116.936 121.384 123.608 128.056 132.504 134.728 139.17599 143.62399 148.07201 150.73599 155.18401 159.632 163.632 168.08 170.304 172.528 176.976 181.424 183.64799 185.87199 190.32001 194.76801 199.216 203.216 205.44 209.888 214.336 216.56 218.784 223.23199 227.67999 231.67999 236.12801 238.35201 242.8 245.024 249.024 253.472 256.13599 260.58401 262.80801 265.03201 269.03201 273.48001 277.92801 280.15201 285.48801 289.936 293.936 296.16 297.936 302.384 306.832 309.056 313.504 319.28 321.504 325.952 330.39999" y="0">*For locating this reference line on an approach that does not have a curb, see Section 8D.01.</tspan></text><g transform="translate(273.43 625.18)"><path d="m0 0h155.94v3.436h-154.5z" fill="none" stroke="#000" stroke-linecap="square" stroke-miterlimit="2"/></g><g transform="translate(382.71 554.38)"><path d="m0 0-9.466 100.83-9.579-0.828 8.052-102.1 2.49 1.768 3.587-3.31 2.901 6.302z" fill="#fff"/></g><g transform="translate(375.49 631.33)"><path d="m0 0-9.936-0.857 3.825-48.49 10.658 0.921z" fill="#c0311a"/></g><g transform="translate(387.26 352.49)"><path d="m0 0 14.62 1.262-4.545 48.427-13.899-1.201z" fill="#c0311a"/></g><g transform="translate(388.29 497.59)"><path d="m0 0-12.457-1.075 3.823-48.489 13.18 1.138z" fill="#c0311a"/></g><g transform="translate(373.59 524.31)"><path d="m0 0 14.345-181.25 14.74 1.272-16.918 180.81-0.441 0.795-1.36 0.497-1.803-2.648-2.794 5.006-1.273-1.438 0.191-1.725-2.725-0.653-1.723 0.017z" fill="none" stroke="#000" stroke-linecap="square" stroke-miterlimit="2"/></g><g transform="translate(427.42 667.73)"><path d="m0 0h2.51l-0.188 3.343-2.135 0.557v2.602h0.837l-0.186 4.831h-3.437l-0.094 1.022-3.161 2.88-2.879-2.322-0.65-1.58h-3.718l0.188-4.831h1.301l0.185-1.487-0.185-1.115-186.13 0.013 0.035 4.54" fill="none" stroke="#000" stroke-linecap="square" stroke-miterlimit="2"/></g><g transform="translate(418.04 679.06)"><path d="m0 0h6.784" fill="none" stroke="#000" stroke-linecap="square" stroke-miterlimit="2"/></g><g transform="translate(415.81 674.23)"><path d="m0 0h11.8" fill="none" stroke="#000" stroke-linecap="square" stroke-miterlimit="2"/></g><g transform="translate(423.42 671.63)" fill="none" stroke="#000" stroke-linecap="square" stroke-miterlimit="2"><path d="m0 0h-7.617"/><path d="m0 0h4.183"/></g><g transform="translate(415.71 667.73)"><path d="m0 0h11.708" fill="none" stroke="#000" stroke-linecap="square" stroke-miterlimit="2"/></g><g transform="translate(421.57 661.08)"><path d="m0 0v-26.479" fill="none" stroke="#000" stroke-linecap="square" stroke-miterlimit="2"/></g><g transform="translate(229.62 654.16)"><path d="m0 0h18.726l-8e-3 2.402-18.718 0.015v11.149h186.09v-39.116" fill="none" stroke="#000" stroke-linecap="square" stroke-miterlimit="2"/></g><g transform="translate(427.59 667.73)"><path d="m0 0v-39.116" fill="none" stroke="#000" stroke-linecap="square" stroke-miterlimit="2"/></g><g transform="translate(427.62 624.74)"><path d="m0 0 0.046-3.035 0.021-1.313-0.05-0.594-4.307-0.296-1.437 1.931" fill="none" stroke="#000" stroke-linecap="square" stroke-miterlimit="2"/></g><g transform="translate(421.48 624.64)"><path d="m0 0 0.046-3.036-0.971-1.853-0.347-0.347-4.407 0.085-0.05 0.509-0.015 1.507v3.094" fill="none" stroke="#000" stroke-linecap="square" stroke-miterlimit="2"/></g><g transform="translate(424.26 205.33)"><path d="m0 0v-8.454l2.693-3.345 1.765-2.695 2.045-1.393 0.184-1.116h-1.764v-13.191l-3.253-0.372-4.182-0.091-2.228-1.952-1.3 0.184-2.23 1.674-7.525 0.185v13.563h-2.045l0.372 1.395 1.95 1.114 0.93 2.045 0.928 0.835 2.23 3.065v9.758l-0.465 4.737" fill="#fff" stroke="#000" stroke-linecap="square" stroke-miterlimit="2"/></g><g transform="translate(219.95 681.31)"><path d="m0 0 3.848 3.466 3.411-3.407" fill="none" stroke="#000" stroke-linecap="square" stroke-miterlimit="2"/></g><g transform="translate(240.58 625.55)"><path d="m0 0h-36.33l1.471 3.903h12.004v24.898h-15.747l-1.317 2.322h17.064v11.058l-0.941 0.022v4.064h0.988v4.367" fill="none" stroke="#000" stroke-linecap="square" stroke-miterlimit="2"/></g><g transform="translate(219.12 676.18)" fill="none" stroke="#000" stroke-linecap="square" stroke-miterlimit="2"><path d="m0 0h-1.209"/><path d="m0 0h10.592"/></g><g transform="translate(217.77 671.64)"><path d="m0 0h12.078" fill="none" stroke="#000" stroke-linecap="square" stroke-miterlimit="2"/></g><g transform="translate(218.41 667.75)"><path d="m0 0 11.207-0.022" fill="none" stroke="#000" stroke-linecap="square" stroke-miterlimit="2"/></g><g transform="translate(217.73 656.67)"><path d="m0 0v-2.322" fill="none" stroke="#000" stroke-linecap="square" stroke-miterlimit="2"/></g><g transform="translate(238.35 629.45)" fill="none" stroke="#000" stroke-linecap="square" stroke-miterlimit="2"><path d="m0 0 1.672-2.417 0.558-1.486"/><path d="m0 0h-20.626"/></g><g transform="translate(229.62 629.45)"><path d="m0 0v27.129" fill="none" stroke="#000" stroke-linecap="square" stroke-miterlimit="2"/></g><g transform="translate(413.39 296.75)"><path d="m0 0v2.044" fill="none" stroke="#000" stroke-linecap="square" stroke-miterlimit="2"/></g><g transform="translate(424.54 235.99)"><path d="m0 0v190.56h-11.146l-0.185-190.56z" fill="#fff"/><path d="m0 0v190.56h-11.146l-0.185-190.56z" fill="none" stroke="#000" stroke-linecap="square" stroke-miterlimit="2"/></g><g transform="translate(413.39 426.54)"><path d="m0 0h-10.591l-2.885 3.345h39.491l0.276-3.345h-15.145z" fill="none" stroke="#000" stroke-linecap="square" stroke-miterlimit="2"/></g><g transform="translate(419.7 502.88)"><path d="m0 0v6.41" fill="none" stroke="#000" stroke-linecap="square" stroke-miterlimit="2"/></g><g transform="translate(434.39 211.27)"><path d="m0 0h-10.125v-5.946" fill="none" stroke="#000" stroke-linecap="square" stroke-miterlimit="2"/></g><g transform="translate(408.74 190.83)"><path d="m0 0h19.976" fill="none" stroke="#000" stroke-linecap="square" stroke-miterlimit="2"/></g><g transform="translate(412.83 196.78)"><path d="M 0,0 3.624,0.095 8.084,0 11.43,0.095" fill="none" stroke="#000" stroke-linecap="square" stroke-miterlimit="2"/></g><g transform="translate(416.18 211.27)"><path d="m0 0h-3.81" fill="none" stroke="#000" stroke-linecap="square" stroke-miterlimit="2"/></g><g transform="translate(414.51 211.27)"><path d="m0 0h19.881" fill="none" stroke="#000" stroke-linecap="square" stroke-miterlimit="2"/></g><g transform="translate(409.12 188.32)"><path d="m0 0h20.068" fill="none" stroke="#000" stroke-linecap="square" stroke-miterlimit="2"/></g><g transform="translate(431.6 168.07)"><path d="m0 0 1.857-3.532h10.962l4.832-9.053h-60.388l0.183 1.767 0.651 2.135" fill="none" stroke="#000" stroke-linecap="square" stroke-miterlimit="2"/></g><g transform="translate(322.63 156.03)"><path d="m0 0v6.617" fill="none" stroke="#000" stroke-linecap="square" stroke-miterlimit="2"/></g><g transform="translate(389.7 159.39)"><path d="m0 0 2.789 5.15h11.984l0.372 1.859 1.673 3.344 1.3 3.065 1.301 0.467 7.06-0.281 2.602-2.507 0.743-0.185 3.437 3.16 6.413-0.094 2.229-5.295" fill="none" stroke="#000" stroke-linecap="square" stroke-miterlimit="2"/></g><g transform="translate(431.6 168.07)"><path d="m0 0-1.208-0.187-0.743 0.187-1.672 1.114-1.673-1.208 1.857-3.438h5.296" fill="none" stroke="#000" stroke-linecap="square" stroke-miterlimit="2"/></g><g transform="translate(428.16 164.54)"><path d="m0 0h-23.691" fill="none" stroke="#000" stroke-linecap="square" stroke-miterlimit="2"/></g><g transform="translate(410.05 164.54)"><path d="m0 0 0.556 1.674 1.208 1.765h-2.694l-1.485-0.094-1.209 0.094" fill="none" stroke="#000" stroke-linecap="square" stroke-miterlimit="2"/></g><g transform="translate(411.81 167.98)"><path d="m0 0h14.495" fill="none" stroke="#000" stroke-linecap="square" stroke-miterlimit="2"/></g><g transform="translate(456.76 164.54)"><path d="m0 0h8.454" fill="none" stroke="#000" stroke-linecap="square" stroke-miterlimit="2" stroke-width=".75"/></g><g clip-path="url(#g)"><g transform="translate(168.12 639.25)"><path d="m0 0c0 12.145 9.844 21.989 21.988 21.989s21.989-9.844 21.989-21.989c0-12.143-9.845-21.987-21.989-21.987s-21.988 9.844-21.988 21.987" fill="#fff"/><path d="m0 0c0 12.145 9.844 21.989 21.988 21.989s21.989-9.844 21.989-21.989c0-12.143-9.845-21.987-21.989-21.987s-21.988 9.844-21.988 21.987z" fill="none" stroke="#000" stroke-miterlimit="2.613"/></g><g transform="translate(176.79 639.25)"><path d="m0 0c0 7.354 5.963 13.316 13.317 13.316s13.315-5.962 13.315-13.316-5.961-13.315-13.315-13.315-13.317 5.961-13.317 13.315" fill="#c0311a"/><path d="m0 0c0 7.354 5.963 13.316 13.317 13.316s13.315-5.962 13.315-13.316-5.961-13.315-13.315-13.315-13.317 5.961-13.317 13.315z" fill="none" stroke="#000" stroke-miterlimit="2.613"/></g><g transform="translate(173.66 645.68)"><path d="m0 0c2.568 6.57 8.963 11.224 16.445 11.224 7.763 0 14.357-5.013 16.72-11.977" fill="none" stroke="#000" stroke-miterlimit="2.613"/></g><g transform="translate(230.49 680.94)"><path d="m0 0h-13.821v-4.762h13.821z" fill="none" stroke="#000" stroke-linecap="square" stroke-miterlimit="2"/></g><g transform="translate(234.91 639.25)"><path d="m0 0c0 12.144 9.845 21.988 21.987 21.988 12.145 0 21.988-9.844 21.988-21.988s-9.843-21.988-21.988-21.988c-12.142 0-21.987 9.844-21.987 21.988" fill="#fff"/><path d="m0 0c0 12.144 9.845 21.988 21.987 21.988 12.145 0 21.988-9.844 21.988-21.988s-9.843-21.988-21.988-21.988c-12.142 0-21.987 9.844-21.987 21.988z" fill="none" stroke="#000" stroke-miterlimit="2.613"/></g><g transform="translate(243.58 639.25)"><path d="m0 0c0 7.354 5.963 13.316 13.316 13.316 7.356 0 13.318-5.962 13.318-13.316 0-7.355-5.962-13.317-13.318-13.317-7.353 0-13.316 5.962-13.316 13.317" fill="#c0311a"/><path d="m0 0c0 7.354 5.963 13.316 13.316 13.316 7.356 0 13.318-5.962 13.318-13.316 0-7.355-5.962-13.317-13.318-13.317-7.353 0-13.316 5.962-13.316 13.317z" fill="none" stroke="#000" stroke-miterlimit="2.613"/></g><g transform="translate(240.45 645.68)"><path d="m0 0c2.569 6.57 8.964 11.225 16.444 11.225 7.764 0 14.358-5.014 16.72-11.978" fill="none" stroke="#000" stroke-miterlimit="2.613"/></g><g transform="translate(363.69 412.89)"><path d="m0 0c0 12.143 9.845 21.986 21.988 21.986 12.142 0 21.989-9.843 21.989-21.986 0-12.146-9.847-21.989-21.989-21.989-12.143 0-21.988 9.843-21.988 21.989" fill="#fff"/><path d="m0 0c0 12.143 9.845 21.986 21.988 21.986 12.142 0 21.989-9.843 21.989-21.986 0-12.146-9.847-21.989-21.989-21.989-12.143 0-21.988 9.843-21.988 21.989z" fill="none" stroke="#000" stroke-miterlimit="2.613"/></g><g transform="translate(372.36 412.89)"><path d="m0 0c0 7.352 5.964 13.316 13.318 13.316 7.355 0 13.316-5.964 13.316-13.316 0-7.356-5.961-13.316-13.316-13.316-7.354 0-13.318 5.96-13.318 13.316" fill="#c0311a"/><path d="m0 0c0 7.352 5.964 13.316 13.318 13.316 7.355 0 13.316-5.964 13.316-13.316 0-7.356-5.961-13.316-13.316-13.316-7.354 0-13.318 5.96-13.318 13.316z" fill="none" stroke="#000" stroke-miterlimit="2.613"/></g><g transform="translate(369.23 419.32)"><path d="m0 0c2.566 6.57 8.962 11.225 16.444 11.225 7.763 0 14.357-5.014 16.72-11.978" fill="none" stroke="#000" stroke-miterlimit="2.613"/></g><g transform="translate(430.26 412.66)"><path d="m0 0c0 12.143 9.843 21.986 21.988 21.986 12.143 0 21.989-9.843 21.989-21.986 0-12.147-9.846-21.989-21.989-21.989-12.145 0-21.988 9.842-21.988 21.989" fill="#fff"/><path d="m0 0c0 12.143 9.843 21.986 21.988 21.986 12.143 0 21.989-9.843 21.989-21.986 0-12.147-9.846-21.989-21.989-21.989-12.145 0-21.988 9.842-21.988 21.989z" fill="none" stroke="#000" stroke-miterlimit="2.613"/></g><g transform="translate(438.94 412.66)"><path d="m0 0c0 7.355 5.962 13.316 13.317 13.316s13.317-5.961 13.317-13.316c0-7.354-5.962-13.318-13.317-13.318s-13.317 5.964-13.317 13.318" fill="#c0311a"/><path d="m0 0c0 7.355 5.962 13.316 13.317 13.316s13.317-5.961 13.317-13.316c0-7.354-5.962-13.318-13.317-13.318s-13.317 5.964-13.317 13.318z" fill="none" stroke="#000" stroke-miterlimit="2.613"/></g><g transform="translate(435.81 419.08)"><path d="m0 0c2.57 6.57 8.963 11.225 16.446 11.225 7.763 0 14.357-5.012 16.721-11.978" fill="none" stroke="#000" stroke-miterlimit="2.613"/></g><g transform="translate(415.48 551.12)"><path d="m0 0h6.968" fill="none" stroke="#000" stroke-linecap="square" stroke-miterlimit="2"/></g><g transform="translate(413.62 546.94)"><path d="m0 0h10.685" fill="none" stroke="#000" stroke-linecap="square" stroke-miterlimit="2"/></g><g transform="translate(418.96 530.12)"><path d="m0 0v9.756" fill="none" stroke="#000" stroke-linecap="square" stroke-miterlimit="2"/></g><g transform="translate(413.44 546.94)"><path d="m0 0h-1.672l0.187 4.183h3.623l0.093 1.021 3.437 2.6 3.253-2.693 0.184-0.928h3.44l0.184-4.183h-1.021" fill="none" stroke="#000" stroke-linecap="square" stroke-miterlimit="2"/></g><g transform="translate(425.01 485.62)"><path d="m0 0h-12.102v61.315h12.102z" fill="none" stroke="#000" stroke-linecap="square" stroke-miterlimit="2"/></g><g transform="translate(223.88 687.41)"><path d="m0 0v10.838" stroke="#000" stroke-miterlimit="2" stroke-width=".75"/></g><g transform="translate(421.57 687.41)"><path d="m0 0v10.838" stroke="#000" stroke-miterlimit="2" stroke-width=".75"/></g><g transform="translate(362.61 694.01)"><path d="m0 0h55.687" stroke="#000" stroke-miterlimit="2" stroke-width=".75"/></g><g transform="translate(419.3 694.54)"><path d="m0 0c-0.85 0.255-1.399 0.492-2.083 0.765v-2.589c0.245 0.116 1.233 0.509 2.083 0.765 0.908 0.275 1.733 0.462 2.267 0.528-0.534 0.069-1.359 0.256-2.267 0.531"/></g><g transform="translate(281.43 694.01)"><path d="m0 0h-54.068" stroke="#000" stroke-miterlimit="2" stroke-width=".75"/></g><g transform="translate(226.15 693.49)"><path d="m0 0c0.848-0.256 1.4-0.492 2.081-0.766v2.591c-0.245-0.116-1.233-0.511-2.081-0.766-0.909-0.275-1.733-0.463-2.268-0.53 0.535-0.066 1.359-0.255 2.268-0.529"/></g><g transform="translate(265.99 617.26)"><path d="m0 0h26.594" stroke="#000" stroke-miterlimit="2" stroke-width=".75"/></g><g transform="translate(363.69 427.9)"><path d="m0 0v193.91" stroke="#000" stroke-miterlimit="2" stroke-width=".75"/></g><g transform="translate(363.69 167.82)"><path d="m0 0v229.46" stroke="#000" stroke-miterlimit="2" stroke-width=".75"/></g><g transform="translate(286.24 284.64)"><path d="m0 0v269.93" fill="none" stroke="#000" stroke-miterlimit="2" stroke-width=".75"/></g><g transform="translate(286.24 613.54)"><path d="m0 0v-27.112" fill="none" stroke="#000" stroke-miterlimit="2" stroke-width=".75"/></g><g transform="translate(285.72 614.99)"><path d="m0 0c-0.256-0.849-0.492-1.4-0.766-2.081h2.59c-0.117 0.244-0.509 1.232-0.766 2.081-0.275 0.909-0.462 1.733-0.529 2.267-0.067-0.534-0.256-1.358-0.529-2.267"/></g><g transform="translate(286.24 268.46)"><path d="m0 0v-101.62" fill="none" stroke="#000" stroke-miterlimit="2" stroke-width=".75"/></g><g transform="translate(286.77 166.81)"><path d="m0 0c0.256 0.849 0.492 1.4 0.765 2.081h-2.59c0.116-0.242 0.51-1.232 0.765-2.081 0.276-0.909 0.462-1.733 0.531-2.269 0.066 0.536 0.255 1.36 0.529 2.269"/></g><g transform="translate(95.391 163.57)"><path d="m0 0 215.04-6.494-15.579 0.515v-13.615h27.778v12.058" fill="none" stroke="#000" stroke-linecap="square" stroke-miterlimit="2"/></g><g transform="translate(252.99 204.08)"><path d="m0 0v-35.717" fill="none" stroke="#000" stroke-miterlimit="2" stroke-width=".75"/></g><g transform="translate(253.51 166.81)"><path d="m0 0c0.257 0.851 0.493 1.402 0.767 2.082h-2.59c0.115-0.242 0.509-1.231 0.764-2.082 0.277-0.907 0.463-1.731 0.53-2.267 0.066 0.536 0.256 1.36 0.529 2.267"/></g><g transform="translate(252.99 267.25)"><path d="m0 0v-42.856" fill="none" stroke="#000" stroke-miterlimit="2" stroke-width=".75"/></g><g transform="translate(252.46 268.8)"><path d="m0 0c-0.255-0.849-0.493-1.399-0.766-2.08h2.592c-0.118 0.242-0.512 1.231-0.766 2.08-0.277 0.907-0.463 1.732-0.53 2.267-0.068-0.535-0.255-1.36-0.53-2.267"/></g><g transform="translate(108.77 164.54)"><path d="m0 0h285.54" fill="none" stroke="#000" stroke-dasharray="6" stroke-miterlimit="2" stroke-width=".75"/></g><g transform="translate(102.44 159.39)"><path d="m0 0v-10.718" fill="none" stroke="#000" stroke-miterlimit="2" stroke-width=".75"/></g><g transform="translate(101.91 160.6)"><path d="m0 0c-0.258-0.848-0.493-1.399-0.767-2.081h2.589c-0.114 0.243-0.508 1.233-0.764 2.081-0.275 0.91-0.463 1.735-0.53 2.268-0.066-0.533-0.255-1.358-0.528-2.268"/></g><g transform="translate(310.42 194.67)"><path d="m0 0v-28.855" fill="none" stroke="#000" stroke-miterlimit="2" stroke-width=".75"/></g><g transform="translate(346.27 187.24)"><path d="m0 0h13.837" fill="none" stroke="#000" stroke-miterlimit="2" stroke-width=".75"/></g><g transform="translate(361.42 187.76)"><path d="m0 0c-0.849 0.257-1.4 0.492-2.081 0.766v-2.59c0.243 0.115 1.232 0.511 2.081 0.765 0.909 0.275 1.733 0.464 2.268 0.53-0.535 0.066-1.359 0.255-2.268 0.529"/></g><g transform="translate(313.9 187.24)"><path d="m0 0h13.326" fill="none" stroke="#000" stroke-miterlimit="2" stroke-width=".75"/></g><g transform="translate(312.69 186.71)"><path d="m 0,0 c 0.85,-0.255 1.403,-0.492 2.084,-0.765 v 2.59 C 1.842,1.71 0.85,1.314 0,1.06 -0.907,0.786 -1.73,0.597 -2.265,0.53 -1.73,0.464 -0.907,0.275 0,0"/></g><g transform="translate(353.2 166.81)"><path d="m0 0c0.259 0.851 0.493 1.402 0.767 2.083h-2.591c0.118-0.243 0.51-1.232 0.768-2.083 0.273-0.907 0.46-1.731 0.528-2.267 0.067 0.536 0.255 1.36 0.528 2.267"/></g><g transform="translate(310.42 156.57)"><path d="m0 0v6.09s49.128 0.882 81.083-0.96" fill="none" stroke="#000" stroke-miterlimit="2"/></g><g transform="translate(96.243 280.79)"><path d="m0 0 0.01-8.813 29.772-0.16v9.476z" fill="none" stroke="#000" stroke-linecap="square" stroke-miterlimit="2"/></g><g transform="translate(126.03 281.3)"><path d="m0 0v-9.476l48.639-0.417v10.314z" fill="#c0311a"/><path d="m0 0v-9.476l48.639-0.417v10.314z" fill="none" stroke="#000" stroke-linecap="square" stroke-miterlimit="2"/></g><g transform="translate(174.66 281.72)"><path d="m0 0v-10.314l49.449-0.62v11.431z" fill="none" stroke="#000" stroke-linecap="square" stroke-miterlimit="2"/></g><g transform="translate(224.11 282.21)"><path d="m0 0v-11.431l49.034-0.392v12.352z" fill="#c0311a"/><path d="m0 0v-11.431l49.034-0.392v12.352z" fill="none" stroke="#000" stroke-linecap="square" stroke-miterlimit="2"/></g><g transform="translate(308.28 270.02)"><path d="m0 0 0.891 0.989 1.188 1.089-2.574 0.495 2.375 1.287-1.088 1.881 1.22 1.456-2.606 1.613 2.574 0.89-0.891 1.386-1.287 0.693-1.228 1.112-33.71-0.162v-12.353z" fill="#fff"/><path d="m0 0 0.891 0.989 1.188 1.089-2.574 0.495 2.375 1.287-1.088 1.881 1.22 1.456-2.606 1.613 2.574 0.89-0.891 1.386-1.287 0.693-1.228 1.112-33.71-0.162v-12.353z" fill="none" stroke="#000" stroke-linecap="square" stroke-miterlimit="2"/></g><g transform="translate(352.67 168.43)"><path d="m0 0v139.88" fill="none" stroke="#000" stroke-miterlimit="2" stroke-width=".75"/></g><g transform="translate(352.66 409.41)"><path d="m0 0v-80.84" fill="none" stroke="#000" stroke-miterlimit="2" stroke-width=".75"/></g><g transform="translate(352.14 410.62)"><path d="m0 0c-0.259-0.848-0.493-1.4-0.769-2.08h2.591c-0.116 0.242-0.508 1.232-0.766 2.08-0.274 0.908-0.461 1.732-0.529 2.266-0.067-0.534-0.255-1.358-0.527-2.266"/></g><g transform="translate(349.68 412.89)"><path d="m0 0h141.09" fill="none" stroke="#000" stroke-dasharray="6" stroke-miterlimit="2" stroke-width=".75"/></g><g transform="translate(422.44 384.34)"><path d="m0 0h26.331" fill="none" stroke="#000" stroke-miterlimit="2" stroke-width=".75"/></g><g transform="translate(449.99 384.87)"><path d="m0 0c-0.85 0.257-1.402 0.492-2.082 0.765v-2.589c0.244 0.115 1.232 0.509 2.082 0.764 0.907 0.276 1.732 0.462 2.267 0.531-0.535 0.067-1.36 0.255-2.267 0.529"/></g><g transform="translate(421.23 383.82)"><path d="m0 0c0.849-0.256 1.4-0.493 2.081-0.765v2.588c-0.244-0.114-1.232-0.509-2.081-0.764-0.908-0.275-1.734-0.463-2.266-0.531 0.532-0.066 1.358-0.255 2.266-0.528"/></g><g transform="translate(452.25 388.61)"><path d="m0 0v-8.55" fill="none" stroke="#000" stroke-miterlimit="2" stroke-width=".75"/></g><g transform="translate(390.07 438.75)"><path d="m0 0h12.956" fill="none" stroke="#000" stroke-miterlimit="2" stroke-width=".75"/></g><g transform="translate(387.94 438.22)"><path d="m0 0c0.85-0.255 1.402-0.492 2.083-0.766v2.59c-0.245-0.116-1.233-0.51-2.083-0.765-0.909-0.276-1.732-0.463-2.267-0.53 0.535-0.067 1.358-0.254 2.267-0.529"/></g><g transform="translate(447.85 439.03)"><path d="m0 0h-5.261" fill="none" stroke="#000" stroke-miterlimit="2" stroke-width=".75"/></g><g transform="translate(449.99 439.55)"><path d="m0 0c-0.85 0.256-1.402 0.492-2.082 0.766v-2.59c0.244 0.115 1.232 0.51 2.082 0.766 0.907 0.275 1.732 0.462 2.267 0.53-0.535 0.066-1.36 0.255-2.267 0.528"/></g><g transform="translate(452.25 441.24)"><path d="m0 0v-4.49" fill="none" stroke="#000" stroke-miterlimit="2" stroke-width=".75"/></g><g transform="translate(385.67 440.97)"><path d="m0 0v-3.987" fill="none" stroke="#000" stroke-miterlimit="2" stroke-width=".75"/></g><g transform="translate(460.92 159.03)"><path d="m0 0v1.896" fill="none" stroke="#000" stroke-linecap="square" stroke-miterlimit="2" stroke-width=".75"/></g><g transform="translate(460.39 162.41)"><path d="m 0,0 c -0.256,-0.799 -0.492,-1.318 -0.766,-1.958 h 2.59 C 1.707,-1.73 1.314,-0.799 1.06,0 0.783,0.855 0.597,1.63 0.528,2.131 0.461,1.63 0.275,0.855 0,0"/></g><g transform="translate(461.45 157.8)"><path d="m0 0c0.258 0.8 0.492 1.317 0.767 1.96h-2.59c0.114-0.231 0.508-1.16 0.765-1.96 0.274-0.854 0.461-1.629 0.528-2.133 0.068 0.504 0.256 1.279 0.53 2.133"/></g><g transform="translate(180.63 609.11)"><path d="m0 0h18.941" fill="none" stroke="#000" stroke-miterlimit="2" stroke-width=".75"/></g><g transform="translate(201.15 609.64)"><path d="m0 0c-0.848 0.256-1.4 0.493-2.08 0.766v-2.591c0.244 0.116 1.232 0.51 2.08 0.766 0.909 0.275 1.733 0.462 2.268 0.529-0.535 0.067-1.359 0.256-2.268 0.53"/></g><g transform="translate(179.05 608.59)"><path d="m0 0c0.849-0.258 1.401-0.493 2.082-0.766v2.589c-0.244-0.115-1.233-0.51-2.082-0.766-0.907-0.274-1.731-0.462-2.267-0.528 0.536-0.067 1.36-0.256 2.267-0.529"/></g><g transform="translate(176.79 629.43)"><path d="m0 0v-24.494" fill="none" stroke="#000" stroke-miterlimit="2" stroke-width=".75"/></g><g transform="translate(203.42 629.43)"><path d="m0 0v-24.494" fill="none" stroke="#000" stroke-miterlimit="2" stroke-width=".75"/></g></g><text transform="matrix(1 0 0 -1 168.09 596.26)" fill="black" font-family="Helvetica" font-size="9px"><tspan x="0 5.0040002 7.506 9.5039997 14.508 19.007999 24.011999 29.016001 33.515999 36.018002 41.021999" y="0">8 inches or</tspan><tspan x="2.7449999 7.7490001 12.753 15.255 17.253 22.257 26.757 31.761 36.764999" y="9.2880001">12 inches</tspan></text><g transform="translate(360.29 463.76)"><path d="m0 0-7.441 1.802" fill="none" stroke="#000" stroke-miterlimit="2" stroke-width=".75"/></g><g clip-path="url(#f)"><g transform="translate(361.59 464)"><path d="m0 0c-0.771 0.44-1.257 0.794-1.856 1.212l-0.582-2.523c0.264 0.059 1.316 0.22 2.2 0.28 0.948 0.064 1.792 0.063 2.328 9e-3 -0.505 0.183-1.267 0.552-2.09 1.022"/></g></g><text transform="matrix(1 0 0 -1 266.92 575.39)" fill="black" font-family="Helvetica" font-size="9px"><tspan x="0 5.0040002 10.008 12.51 15.012 17.514 20.016001 27.513 30.014999 36.513" y="0">17 ft MIN.</tspan><tspan x="-13.518 -9.0179996 -7.02 -2.016 2.9879999 5.9850001 10.989 15.993 20.493 25.497 27.999001 33.012001 38.015999 43.02 47.52" y="9.2880001">clearance above</tspan><tspan x="-15.759 -11.259 -8.2620001 -3.2579999 3.24 8.2440004 10.746 15.75 18.252001 20.754 23.750999 28.754999 33.758999 38.763 45.261002 50.264999" y="18.576">crown of roadway</tspan><tspan x="218.187 223.19099 225.69299 227.69099 232.69501 237.19501 242.19901 247.203" y="392.922">4 inches</tspan><tspan x="218.187 225.68401 231.687 237.69 240.192 242.694 247.698 252.702 257.70599 262.20599" y="402.20999">MAX. above</tspan><tspan x="218.187 223.19099 226.188 231.192 236.196 241.2 246.20399 248.70599 250.70399 255.70799 260.20801 265.21201" y="411.49799">ground level</tspan><tspan x="218.187 221.18401 225.68401 230.688 235.692 238.194 244.692 249.696 252.198 257.202 259.70401 264.70801" y="420.78601">(see Note 2)</tspan></text><g transform="translate(482.76 163.82)"><path d="m0 0-17.172-3.197" stroke="#000" stroke-miterlimit="2" stroke-width=".75"/></g><g clip-path="url(#e)"><g transform="translate(464.51 159.96)"><path d="m0 0c0.881-0.099 1.466-0.235 2.185-0.381l-0.462 2.548c-0.221-0.157-1.124-0.723-1.913-1.127-0.844-0.434-1.619-0.763-2.132-0.926 0.535 0.031 1.381-6e-3 2.322-0.114"/></g></g><text transform="matrix(1 0 0 -1 496.18 208.62)" fill="black" font-family="Helvetica" font-size="9px"><tspan x="0 6.4980001 11.502 16.506001 21.51 24.011999 29.016001 32.013 38.511002 43.514999 45.513 50.516998 55.521" y="0">Counterweight</tspan><tspan x="0 2.997 7.4970002 12.501 17.504999 20.007 26.504999 31.509001 34.011002 39.014999 41.516998 46.521" y="9.2880001">(see Note 1)</tspan></text><g transform="translate(494.18 213.92)"><path d="m0 0-49.85 8.699" stroke="#000" stroke-miterlimit="2" stroke-width=".75"/></g><g clip-path="url(#d)"><g transform="translate(443.09 222.38)"><path d="m0 0c0.787-0.404 1.283-0.74 1.902-1.133l0.481 2.544c-0.26-0.069-1.307-0.272-2.19-0.369-0.942-0.106-1.785-0.134-2.323-0.102 0.511-0.165 1.288-0.501 2.13-0.94"/></g><g transform="translate(506.49 143.17)"><path d="m0 0c-13.091 5.665-41.201 10.034-57.242 12.321" fill="none" stroke="#000" stroke-miterlimit="2" stroke-width=".75"/></g><g transform="translate(122.74 286.43)"><path d="m0 0c0 2.626 2.125 4.748 4.749 4.748 2.623 0 4.749-2.122 4.749-4.748s-2.126-4.75-4.749-4.75c-2.624 0-4.749 2.124-4.749 4.75" fill="#c0311a" fill-rule="evenodd"/><path d="m0 0c0 2.626 2.125 4.748 4.749 4.748 2.623 0 4.749-2.122 4.749-4.748s-2.126-4.75-4.749-4.75c-2.624 0-4.749 2.124-4.749 4.75z" fill="none" stroke="#000" stroke-miterlimit="2.613" stroke-width=".75"/></g><g transform="translate(194.44 287.08)"><path d="m0 0c0 2.623 2.126 4.747 4.746 4.747 2.631 0 4.753-2.124 4.753-4.747 0-2.628-2.122-4.751-4.753-4.751-2.62 0-4.746 2.123-4.746 4.751" fill="#c0311a" fill-rule="evenodd"/><path d="m0 0c0 2.623 2.126 4.747 4.746 4.747 2.631 0 4.753-2.124 4.753-4.747 0-2.628-2.122-4.751-4.753-4.751-2.62 0-4.746 2.123-4.746 4.751z" fill="none" stroke="#000" stroke-miterlimit="2.613" stroke-width=".75"/></g><g transform="translate(266.14 287.84)"><path d="m0 0c0 2.624 2.126 4.747 4.748 4.747 2.629 0 4.751-2.123 4.751-4.747 0-2.627-2.122-4.753-4.751-4.753-2.622 0-4.748 2.126-4.748 4.753" fill="#c0311a" fill-rule="evenodd"/><path d="m0 0c0 2.624 2.126 4.747 4.748 4.747 2.629 0 4.751-2.123 4.751-4.747 0-2.627-2.122-4.753-4.751-4.753-2.622 0-4.748 2.126-4.748 4.753z" fill="none" stroke="#000" stroke-miterlimit="2.613" stroke-width=".75"/></g><g transform="translate(456.76 155.66)"><path d="m0 0h8.454" fill="none" stroke="#000" stroke-linecap="square" stroke-miterlimit="2" stroke-width=".75"/></g></g><text transform="matrix(1 0 0 -1 98.148 138.75)" fill="black" font-family="Helvetica" font-size="8.8018px"><tspan x="0 6.3548994 9.2858992 14.1797 20.534599 25.4284 27.875301 32.7691 35.216003 37.662903 40.109802 45.003605 49.897404 52.344303 55.275303 60.169106 65.062904 69.956703 76.311607 81.205406" y="0">Crown of the roadway</tspan></text><text transform="matrix(1 0 0 -1 232.15 215.87)" fill="black" font-family="Helvetica" font-size="9px"><tspan x="0 5.0040002 7.506 12.51 15.012 17.514 20.016001 22.518 30.014999 32.516998 39.014999" y="0">3.5 ft MIN.</tspan><tspan x="-1.503 3.5009999 6.0029998 11.007 13.509 16.011 18.513 21.014999 28.511999 34.514999 40.518002" y="9.783">4.5 ft MAX.</tspan><tspan x="-115.119 -107.622 -105.624 -100.62 -98.622002 -91.125 -86.121002 -78.624001 -76.122002 -71.117996 -68.615997 -66.113998 -63.612 -58.608002 -55.611 -50.606998 -45.603001 -43.101002 -40.104 -35.099998 -30.096001 -27.594 -25.596001 -23.598 -18.594 -13.59 -11.088 -6.5879998 -4.086 0.91799998 5.9219999 10.422 12.42 14.922 16.92 21.924 26.927999 31.931999 36.936001 39.438 44.442001" y="-90.549004">Minimum of three red lights positioned as</tspan><tspan x="-100.539 -95.535004 -90.530998 -85.527 -82.529999 -77.526001 -72.522003 -69.525002 -67.527 -62.522999 -60.021 -55.016998 -52.514999 -50.013 -45.008999 -42.012001 -39.509998 -34.506001 -29.502001 -24.497999 -21.500999 -16.497 -11.493 -6.993 -1.989 0.0089999996 5.013 10.017 12.519 15.021 18.018 23.021999 25.3818 27.883801 29.8818" y="-81.261002">appropriate for approaching traffic</tspan><tspan x="97.191002 102.195 104.697 107.199 109.701" y="31.545">2 ft*</tspan><tspan x="74.772003 80.271004 85.275002 89.775002 94.778999 97.280998 102.285" y="-11.448">Face of</tspan><tspan x="74.772003 79.272003 84.276001 87.273003" y="-2.1600001">curb</tspan><tspan x="94.364998 99.369003 101.871 104.373 106.875 109.377 116.874 119.376 125.874" y="-104.301">8 ft MIN.</tspan><tspan x="91.359001 96.362999 98.864998 101.367 103.869 106.371 113.868 119.871 125.874" y="-95.013">9 ft MAX.</tspan><tspan x="193.32001 198.32401 203.328 205.83 207.828 212.832 217.332 222.336 227.34" y="-157.05901">15 inches</tspan><tspan x="172.395 177.174 181.953 184.23 186.00301 190.782 195.05701 199.836 204.61501" y="-220.041">30 inches</tspan><tspan x="51.201 56.205002 61.209 66.212997 71.217003 73.719002 78.723 81.224998 86.228996 90.728996 93.231003 97.731003 102.735 107.739 112.239 114.237 116.739 118.737 123.741" y="-475.44299">Length as specified</tspan><tspan x="72.530998 78.533997 83.538002 88.542 93.545998 96.047997 101.052 103.554 106.056 108.558 113.562 118.566" y="-267.021">Edge of the </tspan><tspan x="67.211998 69.713997 72.710999 77.714996 80.056801 82.5588 84.556801 89.056801 91.5588 96.0588 101.0628 106.0668 108.5688 111.5658 116.5698 118.5678" y="-257.733">traffic control </tspan><tspan x="66.042 71.045998 76.050003 80.550003 82.547997 87.047997 92.052002 94.554001 97.056 102.06 107.064 109.566 112.068 114.066" y="-248.44501">device that is</tspan><tspan x="63.530998 68.535004 73.539001 78.542999 81.540001 86.543999 91.043999 93.545998 96.047997 98.550003 103.554 106.056 108.558 113.562 118.566" y="-239.157">nearest to the </tspan><tspan x="84.545998 87.542999 92.546997 97.551003 102.555 109.053 114.057" y="-229.869">roadway</tspan></text><g transform="translate(418.96 387.33)"><path d="m0 0v-6.955" fill="none" stroke="#000" stroke-width=".75"/></g><g transform="translate(418.96 422.11)"><path d="m0 0v-27.818" fill="none" stroke="#000" stroke-width=".75"/></g><g transform="translate(418.96 338.65)"><path d="m0 0v-6.954" fill="none" stroke="#000" stroke-width=".75"/></g><g transform="translate(418.96 373.42)"><path d="m0 0v-27.82" fill="none" stroke="#000" stroke-width=".75"/></g><g transform="translate(418.96 324.74)"><path d="m0 0v-15.759" fill="none" stroke="#000" stroke-width=".75"/></g><g transform="translate(382.71 554.38)"><path d="m0 0-9.466 100.83-9.579-0.828 8.052-102.1 2.49 1.768 3.587-3.31 2.901 6.302z" fill="none" stroke="#000" stroke-linecap="square" stroke-miterlimit="2"/></g><g clip-path="url(#c)"><g transform="translate(375.08 636.12)"><path d="m0 0c0 2.625 2.127 4.749 4.748 4.749 2.629 0 4.752-2.124 4.752-4.749s-2.123-4.75-4.752-4.75c-2.621 0-4.748 2.125-4.748 4.75" fill="#c0311a" fill-rule="evenodd"/><path d="m0 0c0 2.625 2.127 4.749 4.748 4.749 2.629 0 4.752-2.124 4.752-4.749s-2.123-4.75-4.752-4.75c-2.621 0-4.748 2.125-4.748 4.75z" fill="none" stroke="#000" stroke-miterlimit="2.613" stroke-width=".75"/></g><g transform="translate(387.04 508.44)"><path d="M 0,0 C 0,2.624 2.127,4.747 4.746,4.747 7.377,4.747 9.5,2.624 9.5,0 9.5,-2.626 7.377,-4.751 4.746,-4.751 2.127,-4.751 0,-2.626 0,0" fill="#c0311a" fill-rule="evenodd"/><path d="M 0,0 C 0,2.624 2.127,4.747 4.746,4.747 7.377,4.747 9.5,2.624 9.5,0 9.5,-2.626 7.377,-4.751 4.746,-4.751 2.127,-4.751 0,-2.626 0,0 Z" fill="none" stroke="#000" stroke-miterlimit="2.613" stroke-width=".75"/></g><g transform="translate(398.55 385.46)"><path d="M 0,0 C 0,2.624 2.127,4.748 4.749,4.748 7.378,4.748 9.5,2.624 9.5,0 9.5,-2.626 7.378,-4.751 4.749,-4.751 2.127,-4.751 0,-2.626 0,0" fill="#c0311a" fill-rule="evenodd"/><path d="M 0,0 C 0,2.624 2.127,4.748 4.749,4.748 7.378,4.748 9.5,2.624 9.5,0 9.5,-2.626 7.378,-4.751 4.749,-4.751 2.127,-4.751 0,-2.626 0,0 Z" fill="none" stroke="#000" stroke-miterlimit="2.613" stroke-width=".75"/></g><g transform="translate(420.23 300.84)"><path d="m0 0-2.299 3.149-3.73 2.002-3.002 1.43-10.254 3.548-3.7 3.554-2.649 1.86-4.516 7.129-0.83 11.584-4.719 3.479-1.195 8.857 1.125 1.198 2.134 0.152 12.786 0.915 5.401 0.83 1.257-1.258 1.467-8.489-1.245-1.3-3.03-3.199 0.723-10.1 3.066-3.785 3.341-2.461 12.393-4.912 6.349-3.157 1.477-1.103 1.754-1.087 0.636-1.073 0.37-1.276 0.083-102h-13.82z" fill="#fff"/><path d="m0 0-2.299 3.149-3.73 2.002-3.002 1.43-10.254 3.548-3.7 3.554-2.649 1.86-4.516 7.129-0.83 11.584-4.719 3.479-1.195 8.857 1.125 1.198 2.134 0.152 12.786 0.915 5.401 0.83 1.257-1.258 1.467-8.489-1.245-1.3-3.03-3.199 0.723-10.1 3.066-3.785 3.341-2.461 12.393-4.912 6.349-3.157 1.477-1.103 1.754-1.087 0.636-1.073 0.37-1.276 0.083-102h-13.82z" fill="none" stroke="#000" stroke-linecap="square" stroke-miterlimit="2"/></g><path d="m440.89 211.27h-34.468v24.713h34.468z" fill="#fff"/><g transform="translate(440.89 211.27)"><path d="m0 0h-34.468v24.713h34.468z" fill="none" stroke="#000" stroke-linecap="square" stroke-miterlimit="2"/></g><g transform="translate(410.48 223.63)"><path d="m0 0c0-3.094 5.899-5.605 13.178-5.605 7.278 0 13.177 2.511 13.177 5.605 0 3.096-5.899 5.607-13.177 5.607-7.279 0-13.178-2.511-13.178-5.607" fill="#fff"/><path d="m0 0c0-3.094 5.899-5.605 13.178-5.605 7.278 0 13.177 2.511 13.177 5.605 0 3.096-5.899 5.607-13.177 5.607-7.279 0-13.178-2.511-13.178-5.607z" fill="none" stroke="#000" stroke-linecap="square" stroke-miterlimit="2"/></g></g><text transform="matrix(1 0 0 -1 136.94 100.66)" fill="black" font-family="Helvetica" font-size="8px"><tspan x="0 5.776 10.224 12.448 16.896 20.896" y="0">Notes:</tspan><tspan x="0 5.7119999 10.16 12.384 18 25.552 30 34.448002 37.112 41.560001 43.784 48.231998 52.68 54.903999 59.352001 63.352001 65.575996 70.024002 72.688004 77.136002 79.360001 81.136002 85.584 89.584 94.031998 96.255997 100.704 105.152 107.376 109.152 113.6 115.824 118.048 122.496 126.944 129.168 135.832 140.28 144.728 146.504 150.952 155.39999 157.62399 159.84801 164.29601 168.744 173.192 174.968 177.192 178.968 183.416 187.864 192.312 194.088 196.312 202.976 207.424 211.87199 213.64799 218.09599 222.54401 224.76801 230.54401 232.32001 236.76801 238.992 243.44 245.664 252.328 256.80481 260.80481 263.02881 267.47681 271.9248 274.1488 276.81281 281.2608 285.7088 290.1568 291.9328 294.5968 299.0448 303.4928 305.7168 307.9408 312.38879 314.61279 319.06079 321.72479 326.17279 330.17279 331.94879 336.39679 340.84479 343.06879 345.29279 349.74081 354.18881" y="11.496"> 1. Where gates are located in the median, additional median width may be required to provide the </tspan><tspan x="18 24.664 26.440001 30.888 32.664001 39.327999 43.776001 50.439999 52.664001 56.664001 58.439999 62.888 67.335999 70 74.447998 78.896004 82.896004 87.344002 89.568001 91.792 96.239998 98.903999 101.128 103.352 107.8 112.248 114.472 118.472 122.92 127.368 131.81599 134.03999 138.48801 141.15199 146.92799 151.37601 153.15199 157.60001 162.048 164.272 166.496 170.496 174.944 179.392 183.84 188.28799 190.952 193.17599 197.17599" y="19.992001">minimum clearance for the counterweight supports.</tspan><tspan x="0 5.7119999 10.16 12.384 18 22.888 27.336 31.784 34.007999 36.231998 40.68 45.127998 47.352001 51.799999 54.023998 56.248001 58.472 62.919998 67.367996 69.592003 73.592003 75.367996 79.816002 84.264 88.711998 90.487999 92.711998 94.935997 99.384003 103.832 108.28 112.728 117.176 119.4 121.176 125.624 130.07201 132.29601 136.29601 140.744 145.192 149.64 151.416 155.864 158.088 162.536 166.98399 169.20799 173.65601 178.104 180.328 186.992 191.44 194.104 198.552 200.776 203 207.448 211.896 216.34399 218.56799 223.01601 225.24001 227.01601 231.464 235.464 239.912 244.36 248.36 250.584 255.0544 259.50241 263.95041 267.95041 272.39841 274.62241 276.84641 281.2944 285.7424 287.9664 291.9664 296.4144 299.0784 301.3024 305.7504 309.7504 314.19839 316.42239 320.87039 323.09439 325.31839 327.54239 331.99039 336.43839 338.66241 343.11041 345.77441 350.22241 354.67041 359.11841 363.56641" y="31.488001"> 2. The top of the signal foundation should be no more than 4 inches above the surface of the ground </tspan><tspan x="18 22.448 26.896 31.344 33.568001 37.568001 42.015999 46.464001 50.911999 52.688 57.136002 59.360001 63.807999 68.255997 70.480003 74.928001 77.152 79.375999 81.599998 86.047997 90.496002 92.720001 96.720001 101.168 107.832 112.28 114.504 118.952 120.728 125.176 129.17599 133.62399 135.84801 137.62399 142.07201 146.52 148.744 153.192 157.192 159.416 161.64 166.088 170.536 172.75999 176.75999 179.424 183.87199 189.64799 194.09599 196.32001 200.76801 202.992 205.216 207.44 211.888 216.336 218.56 221.224 225.672 230.12 234.56799 240.34399 244.79201 248.2224 250.4464 252.67039 260.22241 264.67041 269.11841 271.78241 276.23041 278.45441 282.45441 284.23041 286.45441 290.9024 293.1264 297.1264 301.5744 306.0224 310.4704 312.2464 314.4704 316.2464 320.6944 325.1424 329.1424 331.36639 337.1424 341.59039 346.03839 347.81439 352.26239 354.48639 358.93439 363.38239 365.60641" y="39.984001">and should be at the same elevation as the crown of the roadway. Where site conditions would not </tspan><tspan x="18 22.448 24.224001 26 30.448 36.223999 38.448002 40.672001 45.119999 46.896 50.896 53.119999 55.344002 59.792 62.015999 66.463997 70.912003 73.136002 77.584 81.584 86.031998 87.807999 92.255997 96.255997 100.704 105.152 107.376 109.6 111.824 116.272 120.72 122.944 126.944 131.392 135.84 140.28799 142.064 146.51199 150.96001 153.62399 155.84801 159.84801 161.62399 166.07201 170.52 172.744 176.744 178.52 182.968 187.416 191.864 194.088 198.088 202.536 206.98399 211.43201 213.20799 217.65601 219.88 224.328 228.776 231 233.664 238.112 240.776 245.224 247.888 252.336 256.8168 261.2648 265.7128 267.9368 272.3848 275.0488 277.2728 279.4968 283.94479 288.39279 290.61679 295.06479 299.51279 301.28879 305.73679 310.18481 312.40881 314.63281 319.08081 321.30481 323.52881 325.75281 330.20081 334.6488 336.8728 340.8728 342.6488 347.0968 351.5448 355.9928 357.7688" y="48.48">allow this to be achieved, the shoulder side slope should be re-graded or the height of the signal </tspan><tspan x="18 22.448 26.896 30.896 33.119999 35.344002 39.344002 43.792 48.240002 52.688 54.464001 58.911999 61.136002 65.584 70.031998 72.255997 76.704002 81.152 82.928001 87.375999 91.375999 93.599998 98.047997 102.496 104.72 106.944 111.392 113.616 120.28 124.728 129.17599 131.39999 133.62399 135.84801 140.29601 144.744 146.968 151.416 155.864 158.528 160.752 165.2 169.64799 171.87199 174.09599 178.09599 182.54401 185.20799 187.43201 189.20799 193.20799 197.65601 199.43201 201.65601 205.65601 207.43201 211.88 216.328 218.992 223.44 227.888 231.888 236.336 238.56 241.224 245.672 250.12 254.59039 256.36639 259.0304 263.47839 270.1424 274.59039 279.03839 281.26239" y="56.976002">post should be adjusted to meet the 17-foot vertical clearance requirement.</tspan></text><g transform="translate(388.88 446.58)"><path d="m0 0v20.223h19.973v19.973h20.223v-19.973h19.973v-20.223z" fill="#fff"/></g><g transform="translate(429.2 486.9)"><path d="m0 0h-20.473v-19.973h-19.973v-20.473h60.419v20.473h-19.973v19.723zm-0.25-0.25v-19.973h19.973v-19.973h-59.919v19.973h19.973v19.973z" fill="#010101"/></g><g transform="translate(400.68 452.25)"><path d="m0 0h-1.408v7.631h-2.033v1.246h5.506v-1.246h-2.065z" fill="#010101"/></g><g clip-path="url(#b)"><g transform="translate(407.24 457.54)"><path d="m0 0c1.114 0 1.289 0.803 1.289 1.09 0 0.387-0.289 1.09-1.221 1.09h-1.831v-2.18zm-1.763-1.431v-3.864h-1.4v8.877h3.211c2.035 0 2.645-1.628 2.645-2.493 0-0.33-0.122-1.628-1.378-2.223l1.564-4.161h-1.527l-1.432 3.864z" fill="#010101"/></g><g transform="translate(413.72 456.17)"><path d="m0 0h1.785l-0.877 2.491zm2.286-1.433h-2.787l-0.878-2.492h-1.504l3.07 8.877h1.411l3.069-8.877h-1.504z" fill="#010101"/></g><g transform="translate(419.54 456.7)"><path d="m0 0c0 1.248 0.251 4.577 3.27 4.577 1.287 0 2.164-0.524 2.773-1.806l-1.309-0.561c-0.453 0.653-0.68 0.935-1.463 0.935-1.857 0-1.837-2.589-1.837-3.146 0-0.55-0.035-3.178 1.899-3.178 0.678 0 1.068 0.409 1.37 1.029l1.34-0.499c-0.5-1.235-1.339-1.96-2.68-1.96-3.194 0-3.363 3.528-3.363 4.609" fill="#010101"/></g><g transform="translate(429.88 456.45)"><path d="m0 0-0.937-1.153v-3.051h-1.406v8.876h1.406v-3.519l2.812 3.519h1.812l-2.749-3.457 2.937-5.419h-1.625z" fill="#010101"/></g><g transform="translate(434.64 454.34)"><path d="m0 0 1.339 0.498c0.374-0.841 1.059-1.308 1.9-1.308 0.81 0 1.371 0.56 1.371 1.308 0 1.188-1.37 1.371-2.523 1.838-0.529 0.218-1.713 0.748-1.713 2.211 0 1.746 1.183 2.397 2.772 2.397 1.246 0 2.087-0.717 2.523-1.807l-1.246-0.373c-0.14 0.35-0.647 0.778-1.308 0.778-1.266 0-1.374-0.675-1.374-0.897 0-0.83 0.716-0.994 1.88-1.359 1.185-0.373 2.422-0.918 2.422-2.821 0-1.916-1.554-2.707-2.804-2.707-1.527 0-2.648 0.903-3.239 2.242" fill="#010101"/></g><g transform="translate(417.12 472.52)"><path d="m0 0h5.996v-1.97h-8.309c0.043 1.413 0.34 2.573 1.028 3.726 2.142 3.579 5.354 3.221 5.354 5.096 0 0.899-1.025 1.628-2.228 1.628-1.241 0-2.013-0.6-2.227-1.714l-1.927 0.429c0.429 2.013 2.012 3.254 4.153 3.254 2.314 0 4.153-1.627 4.153-3.64 0-1.46-0.838-2.389-1.925-3.065-1.644-1.022-3.154-1.474-4.068-3.744" fill="#010101"/></g><g transform="translate(418.96 497.15)"><path d="m0 0-30.6-30.599-14.299 14.299 30.599 30.6-30.599 30.599 14.299 14.3 30.6-30.6 30.6 30.6 14.299-14.3-30.599-30.599 30.599-30.6-14.299-14.299z" fill="#fff" fill-rule="evenodd"/></g><g transform="translate(449.56 556.53)"><path d="m0 0-30.599-30.599-30.6 30.599-0.176-0.177-14.123-14.123-0.177-0.176 30.599-30.6-30.599-30.599 14.3-14.3 0.176-0.177 30.6 30.6 30.422-30.423 0.177-0.177 14.3 14.3 0.176 0.177-0.176 0.177-30.423 30.422 30.423 30.423 0.176 0.177-14.299 14.299zm0-0.354 14.123-14.122-30.6-30.6 30.6-30.599-14.123-14.123-30.599 30.599-30.6-30.599-14.123 14.123 30.6 30.599-30.6 30.6 14.123 14.122 30.6-30.599z"/></g><g transform="translate(387.57 544.52)"><path d="m0 0c1.083-1.083 2.035-0.472 2.313-0.194 0.376 0.376 0.779 1.342-0.127 2.248l-1.78 1.78-2.12-2.12zm-3.106 0.323-3.756-3.757-1.362 1.362 8.631 8.63 3.122-3.122c1.978-1.978 0.989-4.155 0.148-4.996-0.321-0.32-1.702-1.464-3.501-0.821l-2.525-5.567-1.484 1.485 2.364 5.149z"/></g><g transform="translate(393.94 535.48)"><path d="m0 0 1.736-1.736 1.568 3.275zm0.83-3.615-2.71 2.71-3.277-1.57-1.462 1.462 11.616 5.646 1.371-1.372-5.646-11.614-1.462 1.462z"/></g><g transform="translate(406 533.05)"><path d="m0 0 1.381-1.381-8.631-8.63-1.381 1.38z"/></g><g transform="translate(410.86 528.18)"><path d="m0 0 1.361-1.362-7.358-7.358 3.991-3.992-1.271-1.272-5.354 5.353z"/></g><g transform="translate(429.93 502.15)"><path d="m0 0c1.083-1.083 2.035-0.473 2.313-0.194 0.376 0.376 0.779 1.342-0.127 2.248l-1.78 1.78-2.12-2.12zm-3.106 0.323-3.756-3.757-1.362 1.362 8.631 8.63 3.122-3.122c1.978-1.979 0.989-4.155 0.148-4.996-0.321-0.32-1.702-1.464-3.501-0.821l-2.525-5.567-1.484 1.485 2.364 5.149z"/></g><g transform="translate(432.96 491.31)"><path d="m0 0c0.93-0.93 2.566-0.804 4.76 1.389 2.193 2.194 2.319 3.83 1.389 4.76s-2.565 0.805-4.76-1.389c-2.193-2.194-2.319-3.83-1.389-4.76m6.125 0.024c-0.309-0.31-4.4-4.532-7.532-1.4-3.132 3.131 1.091 7.222 1.4 7.532 0.31 0.309 4.4 4.531 7.532 1.399s-1.09-7.222-1.4-7.531"/></g><g transform="translate(442.3 487.11)"><path d="m0 0 1.736-1.736 1.568 3.275zm0.83-3.615-2.71 2.71-3.277-1.57-1.462 1.462 11.616 5.645 1.371-1.371-5.646-11.614-1.462 1.461z"/></g><g transform="translate(454.25 482.07)"><path d="m0 0-1.545 1.545-5.874-5.874 1.449-1.449c1.256-1.256 3.189-0.147 4.814 1.478 0.772 0.772 2.508 2.948 1.156 4.3m-10.174-4.362 8.63 8.631 3.114-3.114c2.178-2.178-0.107-5.63-1.36-6.883-3.237-3.237-6.174-2.844-7.265-1.752z"/></g><g transform="translate(383.64 476.16)"><path d="m0 0c-1.214 1.214-4.206 4.694-1.271 7.629 1.252 1.252 2.613 1.595 4.452 0.94l-0.727-1.817c-1.075 0.193-1.569 0.247-2.331-0.514-1.806-1.806 0.73-4.304 1.272-4.845 0.535-0.535 3.056-3.123 4.937-1.243 0.659 0.659 0.639 1.436 0.332 2.332l1.786 0.818c0.716-1.686 0.606-3.207-0.699-4.512-3.106-3.105-6.7 0.161-7.751 1.212"/></g><g transform="translate(396.11 490.27)"><path d="m0 0c1.083 1.083 0.473 2.035 0.194 2.313-0.376 0.377-1.342 0.779-2.248-0.127l-1.78-1.78 2.12-2.12zm-0.323-3.106 3.757-3.756-1.361-1.362-8.631 8.631 3.122 3.122c1.979 1.978 4.155 0.989 4.996 0.148 0.32-0.321 1.464-1.702 0.821-3.501l5.567-2.525-1.485-1.484-5.149 2.364z"/></g><g transform="translate(409.63 495.97)"><path d="m0 0c0.93 0.93 0.804 2.567-1.389 4.76-2.194 2.193-3.83 2.319-4.76 1.389s-0.805-2.565 1.389-4.759 3.83-2.32 4.76-1.39m-0.024 6.126c0.31-0.31 4.532-4.401 1.401-7.533-3.132-3.132-7.223 1.091-7.533 1.4-0.309 0.31-4.531 4.4-1.399 7.532s7.222-1.09 7.531-1.399"/></g><g transform="translate(415.63 503.54)"><path d="m0 0 0.818 1.787c1.181-0.455 2.301-0.243 3.119 0.575 0.787 0.787 0.788 1.878 0.061 2.605-1.154 1.154-2.665 0-4.24-0.667-0.727-0.302-2.392-0.938-3.815 0.485-1.697 1.697-1.181 3.48 0.364 5.025 1.212 1.211 2.726 1.332 4.21 0.697l-0.848-1.575c-0.477 0.205-1.386 0.128-2.03-0.515-1.23-1.231-0.678-1.993-0.462-2.208 0.807-0.807 1.662-0.271 3.149 0.506 1.514 0.789 3.247 1.462 5.097-0.388 1.863-1.863 1.122-4.142-0.094-5.358-1.484-1.485-3.452-1.696-5.329-0.969"/></g><g transform="translate(424.8 512.72)"><path d="m0 0 0.818 1.786c1.181-0.454 2.301-0.242 3.119 0.576 0.787 0.787 0.788 1.878 0.061 2.605-1.154 1.154-2.665 0-4.24-0.667-0.727-0.302-2.393-0.938-3.815 0.484-1.697 1.698-1.181 3.481 0.364 5.026 1.212 1.211 2.726 1.332 4.21 0.697l-0.848-1.576c-0.477 0.205-1.387 0.129-2.03-0.514-1.23-1.231-0.678-1.993-0.462-2.208 0.807-0.807 1.662-0.271 3.149 0.506 1.514 0.789 3.247 1.462 5.097-0.388 1.863-1.863 1.122-4.142-0.094-5.358-1.484-1.485-3.452-1.696-5.329-0.969"/></g><g transform="translate(427.98 529.1)"><path d="m0 0 1.381 1.381 8.63-8.631-1.38-1.381z"/></g><g transform="translate(438.02 533.56)"><path d="m0 0 5.844-5.844-1.362-1.361-8.63 8.63 1.361 1.362 8.662-2.362-5.511 5.512 1.363 1.363 8.631-8.63-1.212-1.212z"/></g><g transform="translate(447.06 548.48)"><path d="m0 0c1.383 1.383 2.686 1.638 4.654 0.839l-0.789-1.815c-1.12 0.393-1.755 0.303-2.422-0.364-1.896-1.896 1.1-4.674 1.302-4.876 0.324-0.325 2.985-3.132 4.663-1.453 0.878 0.878 0.97 2.059 0.183 2.847l-0.363 0.362-1.575-1.575-1.364 1.364 2.937 2.936 1.726-1.726c1.574-1.574 1.575-3.875-1e-3 -5.451-0.313-0.313-2.89-3.406-7.614 1.318-0.662 0.661-4.429 4.502-1.337 7.594"/></g></g><text transform="matrix(1 0 0 -1 88.007 253.64)" fill="black" font-family="Helvetica" font-size="9px"><tspan x="0 5.4990001 10.503 15.507 18.009001 25.506001 27.504 32.507999 34.506001 42.002998 47.007 54.504002 57.006001 63.504002 65.501999 70.505997 73.008003 78.012001 80.514 85.517998 88.019997 90.522003 93.024002 98.028 103.032" y="0">The minimum width of the </tspan><tspan x="0 2.997 8.0010004 12.501 15.003 18 23.004 26.000999 31.004999 33.507 35.505001 40.508999 45.008999 47.511002 49.508999 54.008999 59.013 61.514999 66.014999 71.018997 76.023003 81.027 83.528999 85.527 90.530998 95.535004 98.037003 100.539 105.543 108.54 111.042 113.544 118.548 123.552" y="9.5039997">rectroreflective sheeting for the </tspan><tspan x="0 2.5020001 4.5 7.4970002 11.997 14.499 17.000999 22.004999 27.009001 29.511 32.013 37.016998 42.021 44.522999 47.025002 52.028999 54.530998 57.033001 59.535 64.539001 69.542999 72.044998 77.049004 82.053001 84.555 89.558998 92.060997 97.065002 100.062 107.559 110.061 112.059 116.559 119.061 124.065" y="19.007999">first 32 feet of the gate arm is 4 </tspan><tspan x="0 1.998 7.0019999 11.502 16.506001 21.51 26.01 28.511999 33.515999 38.52 43.523998 46.026001 48.528 53.532001 58.535999 61.037998 68.535004 70.532997 75.537003 77.535004 85.031998 90.036003 97.532997 100.035 106.533 108.531 113.535 116.037 121.041 123.543 128.547 131.049" y="28.511999">inches and the minimum width of </tspan><tspan x="0 2.5020001 7.506 12.51 15.012 18.009001 23.013 27.513 30.014999 33.012001 38.015999 41.013 46.016998 48.519001 50.516998 55.521 60.021 62.522999 64.521004 69.021004 74.025002 76.527 81.027 86.030998 91.035004 96.039001 98.541 100.539 105.543 110.547 113.049 115.551 118.548 123.552 131.049" y="38.015999">the rectroreflective sheeting from </tspan><tspan x="0 2.5020001 7.506 12.51 15.012 20.016001 25.02 30.024 32.526001 37.529999 40.032001 42.534 45.035999 50.040001 55.043999 57.546001 60.048 62.046001 65.042999 69.542999 72.044998 74.546997 79.551003 84.555 87.056999 89.558998 94.563004 99.567001 102.069 104.571 107.073 112.077 114.579 117.081 122.085 127.089" y="47.52">the end of the first 32 feet to the </tspan><tspan x="0 2.5020001 4.5 9.5039997 12.006 17.01 19.511999 22.014 24.516001 29.52 34.523998 37.026001 42.029999 47.034 49.535999 54.540001 57.042 62.046001 65.042999 72.540001 75.042 77.040001 81.540001 84.042 89.045998 91.547997 93.545998 98.550003 103.05 108.054 113.058 117.558" y="57.023998">tip of the gate arm is 2 inches.</tspan></text><g transform="translate(89.547 280.79)"><path d="m0 0 0.01-8.813" fill="none" stroke="#000" stroke-miterlimit="2" stroke-width=".75"/></g><g transform="translate(85.146 280.79)"><path d="m0 0 8.875 0.01" fill="none" stroke="#000" stroke-miterlimit="2" stroke-width=".75"/></g><g transform="translate(85.146 271.97)"><path d="m0 0 8.875 0.01" fill="none" stroke="#000" stroke-miterlimit="2" stroke-width=".75"/></g><g clip-path="url(#a)"><g transform="translate(85.107 276.24)"><path d="m0 0c-11.558-1.945-7.702-11.968-1.175-17.84" fill="none" stroke="#000" stroke-width=".75"/></g><g transform="translate(87.191 276.9)"><path d="m0 0c-0.888 0.185-1.472 0.375-2.19 0.591l0.235-2.638c0.237 0.14 1.209 0.632 2.051 0.969 0.9 0.362 1.722 0.628 2.26 0.745-0.55 0.019-1.406 0.136-2.356 0.333"/></g><g transform="translate(306.36 218.43)"><path d="m0 0c-20.553-10.041-18.984-47.694 1.004-57.452" fill="none" stroke="#000" stroke-miterlimit="2" stroke-width=".75"/></g><g transform="translate(308.62 160.89)"><path d="m0 0c-0.658 0.592-1.052 1.043-1.551 1.58l-1.113-2.337c0.269 1e-3 1.333-0.07 2.212-0.201 0.938-0.138 1.76-0.326 2.272-0.494-0.452 0.29-1.118 0.812-1.82 1.452"/></g></g></g></svg>
