<?xml version="1.0" encoding="UTF-8"?>
<svg width="372.86" height="441.61" version="1.1" viewBox="0 0 372.86 441.61" xml:space="preserve" xmlns="http://www.w3.org/2000/svg"><defs><clipPath id="f"><path d="m225.5 356.5h299.58v376.7h-299.58z"/></clipPath><clipPath id="e"><path d="m225.5 356.5h299.58v376.7h-299.58z"/></clipPath><clipPath id="d"><path d="m225.5 356.5h299.58v376.7h-299.58z"/></clipPath><clipPath id="c"><path d="m225.5 356.5h299.58v376.7h-299.58z"/></clipPath><clipPath id="b"><path d="m225.5 356.5h299.58v376.7h-299.58z"/></clipPath><clipPath id="a"><path d="m225.5 356.5h299.58v376.7h-299.58z"/></clipPath></defs><g transform="matrix(1.3333 0 0 -1.3333 -313.45 923.85)"><g transform="translate(251.06 406.83)"><path d="m0 0h6.354v1.559l4.376-2.576-4.376-2.399v1.439h-6.354z"/></g><g transform="translate(272.54 415.35)"><path d="m0 0h29.291" fill="none" stroke="#000" stroke-width=".75"/></g><text transform="matrix(1 0 0 -1 272.07 418.3)" fill="black" font-family="Helvetica" font-size="9px"><tspan x="0 5.0040002 10.008 15.012 20.016001 25.02" y="0">Legend</tspan><tspan x="-7.4879999 -0.99000001 1.008 4.0050001 9.0089998 13.509 16.011 18.009001 23.013 28.017 30.518999 35.522999 38.025002 40.527 43.028999 46.026001 51.029999 55.529999 60.534" y="15.354">Direction of travel</tspan></text><g clip-path="url(#f)"><g transform="translate(410.74 692.89)"><path d="m0 0v-52.855c0-21.247-2.82-36.17-10.055-53.225-1.983-4.674-4.402-9.553-6.963-14.719-3.777-7.618-7.902-15.943-11.575-25.468-4.311 3.862-8.66 7.265-12.661 10.39-7.265 5.674-14.127 11.033-17.627 16.633-9.107 14.572-14.752 30.761-14.752 66.389v52.855h-38.563v-52.855c0-38.749 5.78-63.093 20.614-86.828 7.104-11.366 17.01-19.103 26.59-26.586 16.299-12.73 25.52-20.826 25.52-39.161v-125.27h38.564v125.27c0 30.306 9.375 49.215 18.441 67.502 2.697 5.44 5.487 11.065 7.912 16.788 9.317 21.961 13.118 41.744 13.118 68.285v52.855z" fill="#b1b4b6"/></g><g transform="translate(346.66 688.64)"><path d="m0 0v1.245h-4.797v-1.245h-1.758v-1.761h8.473v1.761z"/></g><g transform="translate(344.34 683.33)"><path d="m0 0c0-3.833 3.376-7.289 9.015-7.289" fill="none" stroke="#000" stroke-width=".75"/></g><g transform="translate(343.8 684.57)"><path d="m0 0c-0.262-0.868-0.504-1.433-0.783-2.129h2.648c-0.117 0.249-0.521 1.261-0.783 2.129-0.279 0.929-0.473 1.771-0.541 2.317-0.068-0.546-0.26-1.388-0.541-2.317"/></g><g transform="translate(329.34 688.03)"><path d="m0 0h2.256v-2.256h-0.846v-11.84h-0.564v11.84h-0.846z" fill="#fff" fill-rule="evenodd"/></g><g transform="translate(327.08 685.78)"><path d="m0 0c0.942 2e-3 1.128-0.924 1.128-2.261 1e-3 -1.336-0.219-2.24-1.128-2.252zm-0.564 2.243c1.541 0.228 2.259-1.588 2.256-4.504-2e-3 -1.945-0.106-3.229-0.611-3.921l0.611-5.665h-0.564l-0.496 5.261c-0.181-0.102-0.387-0.154-0.632-0.183v-5.078h-0.564z" fill="#fff" fill-rule="evenodd"/></g><g transform="translate(332.16 673.93)"><path d="m0 0v14.095h0.566v-5.098h1.133v5.098h0.567v-14.095h-0.567v6.764h-1.133v-6.764z" fill="#fff" fill-rule="evenodd"/></g><g transform="translate(324.84 676.18)"><path d="m0 0c-0.425 0-0.596 0.862-0.587 4.806 9e-3 3.943 0.162 4.805 0.587 4.805s0.553-0.862 0.553-4.805c0-3.944-0.128-4.806-0.553-4.806m-0.028 11.886c-0.627 0-1.124-1.27-1.138-7.08-0.013-5.81 0.511-7.081 1.138-7.081 0.626 0 1.136 1.271 1.136 7.081s-0.51 7.08-1.136 7.08" fill="#fff" fill-rule="evenodd"/></g><g transform="translate(320.85 673.93)"><path d="m0 0v14.095h0.566l1.133-9.028v9.028h0.568v-14.095h-0.568l-1.133 9.015v-9.015z" fill="#fff" fill-rule="evenodd"/></g><g transform="translate(390.55 487.46)"><path d="m0 0v-125.27" fill="none" stroke="#ffd046" stroke-miterlimit="10" stroke-width="2"/></g><g transform="translate(317.83 692.89)"><path d="m0 0v-52.855c0-37.196 5.826-57.638 17.683-76.608 7.92-12.672 22.466-20.831 34.617-31.903" fill="none" stroke="#ffd046" stroke-miterlimit="10" stroke-width="2"/></g><g transform="translate(399.21 537.2)"><path d="m0 0c5.94 16.209 13.715 29.076 19.23 42.078 8.538 20.122 11.586 37.805 11.586 60.755v52.855" fill="none" stroke="#ffd046" stroke-miterlimit="10" stroke-width="2"/></g><g transform="translate(410.74 692.89)"><path d="m0 0v-52.855c0-21.247-2.82-36.17-10.055-53.225-1.983-4.674-4.402-9.553-6.963-14.719-3.777-7.618-7.902-15.943-11.575-25.468-4.311 3.862-8.66 7.265-12.661 10.39-7.265 5.674-14.127 11.033-17.627 16.633-9.107 14.572-14.752 30.761-14.752 66.389v52.855" fill="none" stroke="#000" stroke-miterlimit="10"/></g><g transform="translate(409.83 362.18)"><path d="m0 0v125.27c0 30.306 9.375 49.215 18.441 67.502 2.698 5.44 5.487 11.065 7.912 16.788 9.317 21.961 13.118 41.744 13.118 68.285v52.855" fill="none" stroke="#000" stroke-miterlimit="10"/></g><g transform="translate(298.55 692.89)"><path d="m0 0v-52.855c0-38.749 5.78-63.093 20.614-86.828 7.105-11.366 17.01-19.103 26.59-26.586 16.299-12.73 25.521-20.826 25.521-39.161v-125.27" fill="none" stroke="#000" stroke-miterlimit="10"/></g><g transform="translate(455.55 384.84)"><path d="m0 0c0-1.865-1.51-3.375-3.375-3.375h-20.25c-1.863 0-3.375 1.51-3.375 3.375v33.75c0 1.863 1.512 3.375 3.375 3.375h20.25c1.865 0 3.375-1.512 3.375-3.375z" fill="#006f53"/></g><g transform="translate(449.46 411.18)"><path d="m0 0c-1.846 3.193-4.428 5.689-7.41 7.406-2.981-1.717-5.565-4.213-7.408-7.406-1.846-3.197-2.721-6.687-2.717-10.131 2.978-1.723 6.437-2.707 10.125-2.707 3.689 0 7.146 0.984 10.125 2.707 6e-3 3.444-0.869 6.934-2.715 10.131" fill="#fff"/></g><g transform="translate(431.92 382.59)"><path d="m0 0c-1.24 0-2.25 1.01-2.25 2.25v9c0 1.24 1.01 2.25 2.25 2.25h20.25c1.24 0 2.25-1.01 2.25-2.25v-9c0-1.24-1.01-2.25-2.25-2.25z" fill="#fff"/></g><g transform="translate(447.55 401.79)"><path d="m0 0c-1.213 0-2.24 0.793-2.592 1.889l2.42 0.521c0.051-0.027 0.11-0.045 0.172-0.045 0.195 0 0.355 0.16 0.355 0.356 0 0.172-0.121 0.314-0.283 0.347l-1.486 1.977c0.412 0.252 0.896 0.396 1.414 0.396 1.502 0 2.721-1.216 2.721-2.72 0-1.502-1.219-2.721-2.721-2.721m-2.721 2.721c0 0.793 0.338 1.506 0.879 2.004l1.377-1.83-2.238-0.483c-0.012 0.102-0.018 0.205-0.018 0.309m-0.603-0.444-1.065-0.228 1.235 4.42 0.931-1.237c-0.693-0.615-1.131-1.511-1.131-2.511 0-0.151 0.01-0.297 0.03-0.444m-1.516 0.143-0.166 0.629h0.258v0.252h-0.814v-0.252h0.324l0.164-0.623-3.506 3.814c0.057 0.182 0.115 0.369 0.174 0.557h4.789zm-3.449 0.301c0-1.502-1.219-2.721-2.721-2.721-1.504 0-2.722 1.219-2.722 2.721 0 1.504 1.218 2.72 2.722 2.72 0.533 0 1.031-0.154 1.451-0.419-0.334-0.725-0.984-1.506-1.455-1.946-0.195-2e-3 -0.351-0.16-0.351-0.355 0-0.196 0.158-0.356 0.355-0.356 0.18 0 0.33 0.137 0.352 0.313 0.23 0.215 0.529 0.531 0.826 0.91 0.221 0.283 0.496 0.674 0.705 1.096 0.516-0.495 0.838-1.192 0.838-1.963m8.289 3.353c-0.66 0-1.277-0.191-1.797-0.521l-1.176 1.562 0.155 0.553c0.738 0.062 1.144 0.344 1.119 0.615-0.024 0.262-0.754 0.065-1.569 0.055-0.222-4e-3 -1.406 2e-3 -1.398-0.215 8e-3 -0.223 0.764-0.404 1.293-0.455l-0.094-0.338h-4.775c0.101 0.332 0.195 0.639 0.265 0.877 0.063 0.203 0.108 0.356 0.131 0.432l-0.347 0.265 0.164 0.166h1.279v0.422h-1.455l-0.625-0.633 0.4-0.306c-0.185-0.614-0.623-2.057-0.906-2.926-0.492 0.285-1.064 0.447-1.674 0.447-1.853 0-3.355-1.502-3.355-3.353 0-1.852 1.502-3.354 3.355-3.354 1.852 0 3.354 1.502 3.354 3.354 0 1.043-0.477 1.972-1.223 2.588 0.035 0.105 0.072 0.22 0.113 0.345l3.61-3.927c-2e-3 -0.012-2e-3 -0.022-2e-3 -0.032 0-0.213 0.168-0.386 0.379-0.392l0.254-0.961h-0.258v-0.254h0.814v0.254h-0.324l-0.268 1.017c0.055 0.034 0.1 0.08 0.133 0.135l1.215 0.262c0.414-1.383 1.695-2.389 3.213-2.389 1.852 0 3.353 1.502 3.353 3.354 0 1.851-1.501 3.353-3.353 3.353" fill="#006f53"/></g><g transform="translate(443.94 414.23)"><path d="m0 0c-0.125 0.035-0.439 0.111-0.547 0.174-0.211 0.127-0.373 0.332-0.373 0.637 0 0.47 0.397 0.791 0.971 0.791 0.418 0 0.764-0.141 1.051-0.44l-0.375-0.342c-0.18 0.192-0.407 0.282-0.676 0.282-0.287 0-0.455-0.112-0.455-0.291 0-0.161 0.099-0.231 0.445-0.311 0.377-0.08 0.625-0.158 0.783-0.238 0.248-0.131 0.406-0.401 0.406-0.711 0-0.291-0.128-0.51-0.396-0.67-0.197-0.121-0.455-0.192-0.713-0.192-0.486 0-0.851 0.182-1.17 0.551l0.407 0.321c0.208-0.25 0.437-0.36 0.753-0.36 0.358 0 0.616 0.16 0.616 0.369 0 0.268-0.287 0.307-0.727 0.43" fill="#006f53"/></g><g transform="translate(440.35 412.92)"><path d="m0 0c-0.664 0-1.141 0.494-1.141 1.186v1.677h0.506v-1.677c0-0.168 0.02-0.258 0.09-0.366 0.109-0.187 0.316-0.306 0.545-0.306 0.228 0 0.435 0.119 0.545 0.306 0.068 0.108 0.09 0.207 0.09 0.366v1.677h0.504v-1.677c0-0.692-0.475-1.186-1.139-1.186" fill="#006f53"/></g><g transform="translate(445.02 384.69)"><path d="m0 0c-0.789 0-1.58 0.189-2.211 0.506l0.695 1.261c0.379-0.189 1.041-0.314 1.705-0.314 1.295 0 2.305 0.852 2.305 2.02 0 0.884-0.726 1.58-1.609 1.58-0.633 0-0.916-0.19-1.453-0.948l-1.422 0.411 0.22 4.642h5.18v-1.422h-3.789l-0.096-1.484c0.664 0.189 0.948 0.254 1.391 0.254 1.643 0 3-1.391 3-3.033 0-1.989-1.643-3.473-3.916-3.473" fill="#006f53"/></g><g transform="translate(440.49 391.35)"><path d="m0 0c-0.793-1.326-1.397-2.842-1.682-4.293-0.127-0.76-0.191-1.328-0.191-2.211h-1.459c0.031 2.084 0.412 3.82 1.301 5.715 0.318 0.695 0.699 1.357 1.015 1.863h-4.316v1.422h6.127v-1.422c-0.318-0.41-0.508-0.599-0.795-1.074" fill="#006f53"/></g><g transform="translate(431.92 468.23)"><path d="m0 0c-1.93 0-3.5 1.57-3.5 3.5v33.75c0 1.929 1.57 3.5 3.5 3.5h20.25c1.93 0 3.5-1.571 3.5-3.5v-33.75c0-1.93-1.57-3.5-3.5-3.5z" fill="#fff"/></g><g transform="translate(452.17 509.11)"><path d="m0 0h-20.25c-1.999 0-3.625-1.626-3.625-3.625v-33.75c0-1.998 1.626-3.625 3.625-3.625h20.25c1.999 0 3.625 1.627 3.625 3.625v33.75c0 1.999-1.626 3.625-3.625 3.625m0-0.25c1.865 0 3.375-1.512 3.375-3.375v-33.75c0-1.865-1.51-3.375-3.375-3.375h-20.25c-1.863 0-3.375 1.51-3.375 3.375v33.75c0 1.863 1.512 3.375 3.375 3.375z"/></g><g transform="translate(453.3 488.61)"><path d="m0 0c0-9.941-5.037-18-11.25-18s-11.25 8.059-11.25 18 5.037 18 11.25 18 11.25-8.059 11.25-18" fill="#006f53"/></g><g transform="translate(447.55 492.61)"><path d="m0 0c-1.213 0-2.24 0.794-2.592 1.89l2.42 0.52c0.051-0.028 0.11-0.044 0.172-0.044 0.197 0 0.355 0.159 0.355 0.355 0 0.172-0.121 0.314-0.283 0.347l-1.486 1.978c0.412 0.251 0.896 0.396 1.414 0.396 1.504 0 2.721-1.218 2.721-2.721 0-1.502-1.217-2.721-2.721-2.721m-2.721 2.721c0 0.793 0.338 1.506 0.879 2.004l1.377-1.83-2.238-0.483c-0.012 0.102-0.018 0.204-0.018 0.309m-0.603-0.443-1.065-0.229 1.235 4.42 0.931-1.237c-0.693-0.615-1.131-1.511-1.131-2.511 0-0.15 0.01-0.298 0.03-0.443m-1.516 0.142-0.166 0.628h0.258v0.254h-0.814v-0.254h0.324l0.164-0.622-3.506 3.815c0.057 0.182 0.115 0.369 0.174 0.556h4.789zm-3.449 0.301c0-1.502-1.219-2.721-2.723-2.721-1.502 0-2.72 1.219-2.72 2.721 0 1.503 1.218 2.721 2.72 2.721 0.535 0 1.033-0.154 1.453-0.42-0.334-0.725-0.986-1.505-1.455-1.946-0.195-2e-3 -0.351-0.16-0.351-0.355 0-0.196 0.158-0.355 0.353-0.355 0.182 0 0.332 0.136 0.354 0.312 0.23 0.215 0.529 0.531 0.826 0.911 0.221 0.282 0.496 0.672 0.705 1.096 0.516-0.496 0.838-1.193 0.838-1.964m8.289 3.354c-0.66 0-1.277-0.191-1.797-0.521l-1.176 1.562 0.155 0.552c0.738 0.063 1.144 0.344 1.119 0.615-0.024 0.262-0.754 0.066-1.569 0.055-0.222-2e-3 -1.406 2e-3 -1.398-0.215 6e-3 -0.222 0.764-0.403 1.293-0.454l-0.094-0.338h-4.775c0.101 0.332 0.193 0.639 0.265 0.876 0.063 0.203 0.108 0.356 0.131 0.432l-0.347 0.265 0.164 0.166h1.279v0.422h-1.455l-0.625-0.633 0.4-0.305c-0.185-0.615-0.623-2.057-0.906-2.926-0.492 0.284-1.064 0.447-1.676 0.447-1.851 0-3.353-1.502-3.353-3.354s1.502-3.354 3.353-3.354c1.854 0 3.356 1.502 3.356 3.354 0 1.043-0.477 1.973-1.223 2.589 0.035 0.104 0.072 0.22 0.113 0.344l3.61-3.928c-2e-3 -0.01-2e-3 -0.021-2e-3 -0.032 0-0.212 0.168-0.385 0.379-0.392l0.254-0.961h-0.258v-0.253h0.814v0.253h-0.324l-0.268 1.018c0.055 0.034 0.1 0.08 0.133 0.135l1.215 0.262c0.414-1.382 1.695-2.389 3.213-2.389 1.852 0 3.353 1.502 3.353 3.354s-1.501 3.354-3.353 3.354" fill="#fff"/></g><g transform="translate(442.92 483.75)"><path d="m0 0-3.213-4.225h3.213zm1.785-5.844v-2.803h-1.785v2.803h-5.592v1.067l5.592 7.383h1.785v-6.831h1.069v-1.619z" fill="#fff"/></g></g><text transform="matrix(1 0 0 -1 457.48 513.1)" fill="black" font-family="Helvetica" font-size="8px"><tspan x="0 6.664 11.112 13.776" y="0">M3-1</tspan><tspan x="0 6.664 11.112 13.776" y="25.104">M1-8</tspan><tspan x="0 6.664 11.112 13.776" y="57.327999">M6-2</tspan></text><g clip-path="url(#e)"><g transform="translate(431.92 361.81)"><path d="m0 0c-1.93 0-3.5 1.57-3.5 3.5v12.535c0 1.93 1.57 3.5 3.5 3.5h20.25c1.93 0 3.5-1.57 3.5-3.5v-12.535c0-1.93-1.57-3.5-3.5-3.5z" fill="#fff"/></g><g transform="translate(452.17 381.47)"><path d="m0 0h-20.25c-1.999 0-3.625-1.626-3.625-3.625v-12.535c0-1.999 1.626-3.625 3.625-3.625h20.25c1.999 0 3.625 1.626 3.625 3.625v12.535c0 1.999-1.626 3.625-3.625 3.625m0-0.25c1.865 0 3.375-1.512 3.375-3.375v-12.535c0-1.863-1.51-3.375-3.375-3.375h-20.25c-1.863 0-3.375 1.512-3.375 3.375v12.535c0 1.863 1.512 3.375 3.375 3.375z"/></g><g transform="translate(431.92 362.78)"><path d="m0 0c-1.395 0-2.531 1.137-2.531 2.531v12.535c0 1.396 1.136 2.531 2.531 2.531h20.25c1.396 0 2.531-1.135 2.531-2.531v-12.535c0-1.394-1.135-2.531-2.531-2.531z" fill="#006f53"/></g><g transform="translate(447.83 370.42)"><path d="m0 0v-5.757h-3.369v4.433c0 0.066-0.016 0.14-0.045 0.199-0.029 0.068-0.074 0.127-0.125 0.172l-3.156 2.74-0.746-1.935c-0.043-0.12-0.125-0.229-0.25-0.311-0.12-0.074-0.252-0.111-0.385-0.103-0.125 7e-3 -0.26 0.058-0.369 0.148-0.112 0.088-0.186 0.213-0.215 0.332l-1.944 7.5 7.7-0.879c0.125-0.016 0.252-0.066 0.363-0.162 0.101-0.098 0.17-0.223 0.191-0.348 0.03-0.127 0.014-0.267-0.045-0.4-0.066-0.125-0.162-0.229-0.273-0.287l-1.816-1.006 4.152-3.613c0.103-0.088 0.191-0.2 0.25-0.325 0.053-0.132 0.082-0.265 0.082-0.398" fill="#fff" fill-rule="evenodd"/></g></g><text transform="matrix(1 0 0 -1 457.48 426.22)" fill="black" font-family="Helvetica" font-size="8px"><tspan x="0 6.664 11.112 13.776" y="0">M3-1</tspan><tspan x="0 6.664 11.112 13.776" y="23.143999">M1-9</tspan><tspan x="2.224 4.888 9.3360004 11.112 13.336" y="32.144001">(alt)</tspan><tspan x="0 6.664 11.112 13.776" y="57.327999">M5-2</tspan></text><g clip-path="url(#d)"><g transform="translate(382.36 639.26)"><path d="m0 0c0-1.864-1.511-3.375-3.375-3.375h-20.25c-1.864 0-3.375 1.511-3.375 3.375v33.75c0 1.864 1.511 3.375 3.375 3.375h20.25c1.864 0 3.375-1.511 3.375-3.375z" fill="#006f53"/></g><g transform="translate(376.27 665.6)"><path d="m0 0c-1.845 3.194-4.428 5.689-7.409 7.407-2.982-1.718-5.565-4.213-7.409-7.407-1.846-3.196-2.721-6.687-2.716-10.13 2.978-1.723 6.436-2.708 10.125-2.708 3.688 0 7.146 0.985 10.125 2.708 5e-3 3.443-0.87 6.934-2.716 10.13" fill="#fff"/></g><g transform="translate(358.73 637.01)"><path d="m0 0c-1.241 0-2.25 1.01-2.25 2.25v9c0 1.24 1.009 2.25 2.25 2.25h20.25c1.24 0 2.25-1.01 2.25-2.25v-9c0-1.24-1.01-2.25-2.25-2.25z" fill="#fff"/></g><g transform="translate(374.36 656.21)"><path d="m0 0c-1.213 0-2.24 0.793-2.592 1.89l2.419 0.52c0.051-0.027 0.11-0.045 0.173-0.045 0.195 0 0.354 0.16 0.354 0.356 0 0.172-0.121 0.314-0.282 0.347l-1.487 1.978c0.412 0.251 0.897 0.396 1.415 0.396 1.502 0 2.721-1.217 2.721-2.721 0-1.502-1.219-2.721-2.721-2.721m-2.722 2.721c0 0.793 0.339 1.506 0.88 2.004l1.377-1.83-2.239-0.483c-0.012 0.102-0.018 0.205-0.018 0.309m-0.603-0.443-1.065-0.229 1.236 4.42 0.93-1.237c-0.693-0.615-1.13-1.511-1.13-2.511 0-0.151 9e-3 -0.297 0.029-0.443m-1.516 0.142-0.165 0.629h0.258v0.252h-0.815v-0.252h0.325l0.163-0.623-3.506 3.815c0.058 0.182 0.115 0.369 0.174 0.556h4.79zm-3.449 0.301c0-1.502-1.219-2.721-2.721-2.721-1.504 0-2.721 1.219-2.721 2.721 0 1.504 1.217 2.721 2.721 2.721 0.533 0 1.032-0.154 1.452-0.421-0.333-0.724-0.985-1.505-1.456-1.945-0.194-2e-3 -0.351-0.16-0.351-0.355 0-0.196 0.158-0.356 0.355-0.356 0.181 0 0.33 0.137 0.352 0.313 0.23 0.215 0.529 0.531 0.826 0.911 0.221 0.282 0.496 0.673 0.705 1.096 0.517-0.495 0.838-1.193 0.838-1.964m8.29 3.354c-0.661 0-1.277-0.191-1.797-0.521l-1.176 1.562 0.155 0.552c0.737 0.064 1.144 0.344 1.119 0.615-0.024 0.262-0.755 0.066-1.568 0.055-0.223-3e-3 -1.407 2e-3 -1.4-0.215 8e-3 -0.223 0.764-0.403 1.294-0.454l-0.095-0.338h-4.775c0.101 0.332 0.195 0.638 0.266 0.876 0.062 0.203 0.108 0.356 0.13 0.432l-0.346 0.265 0.164 0.166h1.278v0.422h-1.455l-0.624-0.633 0.4-0.305c-0.185-0.614-0.624-2.057-0.907-2.927-0.492 0.285-1.064 0.448-1.674 0.448-1.853 0-3.354-1.502-3.354-3.354s1.501-3.354 3.354-3.354c1.852 0 3.354 1.502 3.354 3.354 0 1.043-0.476 1.973-1.222 2.589 0.034 0.104 0.072 0.22 0.112 0.344l3.61-3.927c-2e-3 -0.011-2e-3 -0.022-2e-3 -0.032 0-0.213 0.169-0.386 0.38-0.392l0.253-0.961h-0.258v-0.254h0.814v0.254h-0.324l-0.267 1.017c0.054 0.034 0.1 0.081 0.132 0.135l1.216 0.262c0.414-1.382 1.696-2.389 3.213-2.389 1.852 0 3.354 1.502 3.354 3.354s-1.502 3.354-3.354 3.354" fill="#006f53"/></g><g transform="translate(370.75 668.65)"><path d="m0 0c-0.125 0.034-0.44 0.111-0.547 0.174-0.211 0.126-0.373 0.332-0.373 0.637 0 0.47 0.397 0.791 0.971 0.791 0.417 0 0.763-0.141 1.051-0.441l-0.376-0.341c-0.179 0.191-0.407 0.282-0.675 0.282-0.287 0-0.455-0.112-0.455-0.291 0-0.161 0.098-0.231 0.445-0.311 0.377-0.08 0.625-0.159 0.783-0.239 0.248-0.13 0.406-0.401 0.406-0.71 0-0.291-0.128-0.511-0.396-0.671-0.198-0.12-0.456-0.191-0.713-0.191-0.486 0-0.853 0.181-1.17 0.551l0.406 0.321c0.208-0.25 0.437-0.361 0.753-0.361 0.358 0 0.616 0.16 0.616 0.37 0 0.268-0.288 0.307-0.726 0.43" fill="#006f53"/></g><g transform="translate(367.16 667.34)"><path d="m0 0c-0.664 0-1.14 0.494-1.14 1.185v1.677h0.505v-1.677c0-0.167 0.02-0.257 0.09-0.366 0.11-0.187 0.317-0.305 0.545-0.305 0.229 0 0.436 0.118 0.545 0.305 0.069 0.109 0.09 0.208 0.09 0.366v1.677h0.505v-1.677c0-0.691-0.476-1.185-1.14-1.185" fill="#006f53"/></g><g transform="translate(371.83 639.11)"><path d="m0 0c-0.789 0-1.579 0.19-2.211 0.506l0.695 1.263c0.379-0.19 1.042-0.316 1.705-0.316 1.295 0 2.306 0.853 2.306 2.021 0 0.884-0.727 1.579-1.61 1.579-0.632 0-0.916-0.19-1.453-0.947l-1.421 0.41 0.22 4.642h5.18v-1.421h-3.79l-0.095-1.484c0.663 0.189 0.948 0.253 1.39 0.253 1.643 0 3-1.39 3-3.032 0-1.99-1.642-3.474-3.916-3.474" fill="#006f53"/></g><g transform="translate(367.3 645.77)"><path d="m0 0c-0.794-1.326-1.397-2.842-1.683-4.294-0.127-0.759-0.19-1.327-0.19-2.211h-1.46c0.031 2.084 0.412 3.821 1.301 5.716 0.318 0.694 0.699 1.357 1.016 1.863h-4.317v1.421h6.127v-1.421c-0.318-0.411-0.508-0.6-0.794-1.074" fill="#006f53"/></g></g><text transform="matrix(1 0 0 -1 384.29 680.64)" fill="black" font-family="Helvetica" font-size="8px"><tspan x="0 6.664 11.112 13.776" y="0">M3-1</tspan><tspan x="0 6.664 11.112 13.776" y="23.143999">M1-9</tspan><tspan x="2.224 4.888 9.3360004 11.112 13.336" y="32.144001">(alt)</tspan></text><g clip-path="url(#c)"><g transform="translate(334.38 633.95)"><path d="m0 0c0-1.865-0.755-3.375-1.687-3.375h-10.126c-0.931 0-1.687 1.51-1.687 3.375v33.75c0 1.863 0.756 3.375 1.687 3.375h10.126c0.932 0 1.687-1.512 1.687-3.375z" fill="#26b14b"/></g><g transform="translate(331.34 660.29)"><path d="m0 0c-0.923 3.193-2.214 5.69-3.705 7.406-1.49-1.716-2.782-4.213-3.704-7.406-0.923-3.197-1.361-6.687-1.359-10.131 1.49-1.723 3.219-2.707 5.063-2.707 1.845 0 3.573 0.984 5.062 2.707 3e-3 3.444-0.434 6.934-1.357 10.131" fill="#fff"/></g><g transform="translate(322.57 631.7)"><path d="m0 0c-0.62 0-1.125 1.01-1.125 2.25v9c0 1.24 0.505 2.25 1.125 2.25h10.125c0.62 0 1.125-1.01 1.125-2.25v-9c0-1.24-0.505-2.25-1.125-2.25z" fill="#fff"/></g><g transform="translate(330.39 650.9)"><path d="m0 0c-0.606 0-1.12 0.793-1.296 1.889l1.21 0.521c0.025-0.027 0.055-0.045 0.086-0.045 0.098 0 0.178 0.16 0.178 0.356 0 0.172-0.061 0.314-0.142 0.347l-0.743 1.977c0.206 0.252 0.448 0.396 0.707 0.396 0.751 0 1.36-1.216 1.36-2.72 0-1.502-0.609-2.721-1.36-2.721m-1.36 2.721c0 0.793 0.169 1.506 0.439 2.004l0.689-1.83-1.12-0.483c-5e-3 0.102-8e-3 0.205-8e-3 0.309m-0.302-0.444-0.532-0.228 0.617 4.42 0.466-1.237c-0.347-0.615-0.566-1.511-0.566-2.511 0-0.151 5e-3 -0.297 0.015-0.444m-0.758 0.143-0.083 0.629h0.129v0.252h-0.407v-0.252h0.162l0.082-0.623-1.753 3.814c0.028 0.182 0.058 0.369 0.087 0.557h2.394zm-1.725 0.301c0-1.502-0.609-2.721-1.36-2.721-0.752 0-1.361 1.219-1.361 2.721 0 1.504 0.609 2.72 1.361 2.72 0.267 0 0.516-0.154 0.726-0.42-0.167-0.724-0.492-1.505-0.728-1.945-0.098-2e-3 -0.176-0.16-0.176-0.355 0-0.196 0.079-0.356 0.178-0.356 0.09 0 0.165 0.137 0.176 0.313 0.115 0.215 0.265 0.531 0.413 0.91 0.11 0.283 0.248 0.674 0.352 1.096 0.258-0.494 0.419-1.192 0.419-1.963m4.145 3.353c-0.33 0-0.639-0.191-0.898-0.521l-0.588 1.562 0.077 0.553c0.369 0.062 0.572 0.344 0.559 0.615-0.011 0.262-0.377 0.065-0.784 0.055-0.111-4e-3 -0.703 2e-3 -0.699-0.215 4e-3 -0.223 0.382-0.404 0.647-0.455l-0.047-0.338h-2.388c0.051 0.332 0.098 0.639 0.133 0.877 0.031 0.203 0.053 0.356 0.065 0.432l-0.174 0.265 0.082 0.166h0.64v0.422h-0.727l-0.313-0.633 0.2-0.306c-0.093-0.613-0.311-2.057-0.453-2.926-0.246 0.285-0.532 0.447-0.837 0.447-0.927 0-1.678-1.502-1.678-3.353 0-1.852 0.751-3.354 1.678-3.354 0.926 0 1.677 1.502 1.677 3.354 0 1.043-0.238 1.972-0.611 2.588 0.017 0.105 0.036 0.22 0.056 0.345l1.805-3.927c-1e-3 -0.012-1e-3 -0.022-1e-3 -0.032 0-0.213 0.084-0.386 0.189-0.392l0.127-0.961h-0.129v-0.254h0.408v0.254h-0.162l-0.134 1.017c0.027 0.034 0.05 0.081 0.066 0.135l0.608 0.262c0.207-1.383 0.847-2.389 1.606-2.389 0.926 0 1.677 1.502 1.677 3.354 0 1.851-0.751 3.353-1.677 3.353" fill="#26b14b"/></g><g transform="translate(328.58 663.34)"><path d="m0 0c-0.062 0.035-0.22 0.111-0.273 0.174-0.106 0.127-0.187 0.332-0.187 0.636 0 0.471 0.198 0.792 0.485 0.792 0.209 0 0.382-0.141 0.526-0.44l-0.188-0.342c-0.09 0.192-0.203 0.282-0.338 0.282-0.143 0-0.227-0.112-0.227-0.292 0-0.16 0.05-0.23 0.223-0.31 0.188-0.08 0.312-0.158 0.391-0.238 0.124-0.131 0.203-0.401 0.203-0.711 0-0.291-0.064-0.51-0.198-0.67-0.099-0.121-0.228-0.192-0.356-0.192-0.244 0-0.426 0.182-0.585 0.551l0.203 0.32c0.104-0.25 0.218-0.359 0.377-0.359 0.178 0 0.307 0.16 0.307 0.369 0 0.268-0.143 0.307-0.363 0.43" fill="#26b14b"/></g><g transform="translate(326.78 662.02)"><path d="m0 0c-0.332 0-0.57 0.494-0.57 1.186v1.677h0.253v-1.677c0-0.168 9e-3 -0.258 0.044-0.366 0.055-0.187 0.159-0.306 0.273-0.306s0.218 0.119 0.273 0.306c0.034 0.108 0.044 0.207 0.044 0.366v1.677h0.252v-1.677c0-0.692-0.237-1.186-0.569-1.186" fill="#26b14b"/></g><g transform="translate(329.12 633.79)"><path d="m0 0c-0.395 0-0.79 0.19-1.105 0.506l0.347 1.262c0.19-0.19 0.521-0.315 0.853-0.315 0.647 0 1.152 0.852 1.152 2.02 0 0.884-0.363 1.58-0.805 1.58-0.316 0-0.458-0.19-0.726-0.947l-0.711 0.41 0.11 4.642h2.59v-1.422h-1.894l-0.048-1.484c0.332 0.189 0.473 0.254 0.695 0.254 0.821 0 1.5-1.391 1.5-3.033 0-1.989-0.821-3.473-1.958-3.473" fill="#26b14b"/></g><g transform="translate(326.85 640.45)"><path d="m0 0c-0.396-1.326-0.698-2.842-0.841-4.293-0.063-0.76-0.096-1.328-0.096-2.211h-0.729c0.016 2.084 0.206 3.82 0.65 5.715 0.159 0.695 0.35 1.357 0.508 1.863h-2.158v1.422h3.063v-1.422c-0.159-0.41-0.254-0.599-0.397-1.074" fill="#26b14b"/></g><g transform="translate(459.23 688.64)"><path d="m0 0v1.245h-4.797v-1.245h-1.758v-1.761h8.473v1.761z"/></g><g transform="translate(456.91 683.33)"><path d="m0 0c0-3.833 3.375-7.289 9.014-7.289" fill="none" stroke="#000" stroke-width=".75"/></g><g transform="translate(456.37 684.57)"><path d="m0 0c-0.262-0.868-0.504-1.433-0.783-2.129h2.648c-0.117 0.249-0.521 1.261-0.783 2.129-0.279 0.929-0.473 1.771-0.541 2.317-0.068-0.546-0.26-1.388-0.541-2.317"/></g><g transform="translate(419.85 486.21)"><path d="m0 0v1.245h-4.797v-1.245h-1.758v-1.761h8.473v1.761z"/></g><g transform="translate(417.53 480.9)"><path d="m0 0c0-3.833 3.375-7.289 9.014-7.289" fill="none" stroke="#000" stroke-width=".75"/></g><g transform="translate(416.99 482.14)"><path d="m0 0c-0.262-0.868-0.504-1.433-0.783-2.129h2.648c-0.117 0.249-0.521 1.261-0.783 2.129-0.279 0.929-0.473 1.771-0.541 2.317-0.068-0.546-0.26-1.388-0.541-2.317"/></g><g transform="translate(419.85 429.38)"><path d="m0 0v1.246h-4.797v-1.246h-1.758v-1.76h8.473v1.76z"/></g><g transform="translate(417.53 424.06)"><path d="m0 0c0-3.832 3.375-7.288 9.014-7.288" fill="none" stroke="#000" stroke-width=".75"/></g><g transform="translate(416.99 425.3)"><path d="m0 0c-0.262-0.867-0.504-1.432-0.783-2.129h2.648c-0.117 0.25-0.521 1.262-0.783 2.129-0.279 0.93-0.473 1.772-0.541 2.318-0.068-0.546-0.26-1.388-0.541-2.318"/></g><g transform="translate(441.9 688.03)"><path d="m0 0h2.258v-2.256h-0.848v-11.84h-0.562v11.84h-0.848z" fill="#fff" fill-rule="evenodd"/></g><g transform="translate(439.64 685.78)"><path d="m0 0c0.941 2e-3 1.127-0.924 1.129-2.261 0-1.336-0.219-2.24-1.129-2.252zm-0.564 2.243c1.541 0.228 2.259-1.588 2.257-4.504-3e-3 -1.945-0.107-3.229-0.613-3.921l0.613-5.665h-0.564l-0.496 5.261c-0.182-0.102-0.387-0.154-0.633-0.183v-5.078h-0.564z" fill="#fff" fill-rule="evenodd"/></g><g transform="translate(444.72 673.93)"><path d="m0 0v14.095h0.566v-5.098h1.133v5.098h0.567v-14.095h-0.567v6.764h-1.133v-6.764z" fill="#fff" fill-rule="evenodd"/></g><g transform="translate(437.41 676.18)"><path d="m0 0c-0.426 0-0.596 0.862-0.586 4.806 8e-3 3.943 0.16 4.805 0.586 4.805 0.424 0 0.553-0.862 0.553-4.805 0-3.944-0.129-4.806-0.553-4.806m-0.029 11.886c-0.625 0-1.123-1.27-1.137-7.08-0.012-5.81 0.512-7.081 1.137-7.081 0.627 0 1.136 1.271 1.136 7.081s-0.509 7.08-1.136 7.08" fill="#fff" fill-rule="evenodd"/></g><g transform="translate(433.41 673.93)"><path d="m0 0v14.095h0.566l1.133-9.028v9.028h0.567v-14.095h-0.567l-1.133 9.015v-9.015z" fill="#fff" fill-rule="evenodd"/></g></g><text transform="matrix(1 0 0 -1 496.86 680.64)" fill="black" font-family="Helvetica" font-size="8px"><tspan x="0 6.664 11.112 13.776" y="0">M3-1</tspan><tspan x="0 6.664 11.112 13.776" y="25.176001">M1-8</tspan></text><g clip-path="url(#b)"><g transform="translate(471.3 635.76)"><path d="m0 0c-1.93 0-3.5 1.57-3.5 3.5v33.75c0 1.93 1.57 3.5 3.5 3.5h20.25c1.93 0 3.5-1.57 3.5-3.5v-33.75c0-1.93-1.57-3.5-3.5-3.5z" fill="#fff"/></g><g transform="translate(491.55 676.64)"><path d="m0 0h-20.25c-1.999 0-3.625-1.626-3.625-3.625v-33.75c0-1.999 1.626-3.625 3.625-3.625h20.25c1.999 0 3.625 1.626 3.625 3.625v33.75c0 1.999-1.626 3.625-3.625 3.625m0-0.25c1.863 0 3.375-1.512 3.375-3.375v-33.75c0-1.864-1.512-3.375-3.375-3.375h-20.25c-1.865 0-3.375 1.511-3.375 3.375v33.75c0 1.863 1.51 3.375 3.375 3.375z"/></g><g transform="translate(492.67 656.14)"><path d="m0 0c0-9.941-5.037-18-11.25-18s-11.25 8.059-11.25 18 5.037 18 11.25 18 11.25-8.059 11.25-18" fill="#006f53"/></g><g transform="translate(486.93 660.15)"><path d="m0 0c-1.213 0-2.24 0.794-2.592 1.89l2.418 0.52c0.051-0.028 0.11-0.044 0.174-0.044 0.195 0 0.354 0.159 0.354 0.355 0 0.172-0.122 0.314-0.282 0.347l-1.488 1.978c0.412 0.251 0.896 0.396 1.416 0.396 1.502 0 2.721-1.218 2.721-2.721 0-1.502-1.219-2.721-2.721-2.721m-2.723 2.721c0 0.793 0.34 1.506 0.881 2.004l1.377-1.83-2.24-0.483c-0.012 0.102-0.018 0.204-0.018 0.309m-0.603-0.443-1.065-0.229 1.237 4.42 0.929-1.237c-0.693-0.615-1.13-1.511-1.13-2.511 0-0.15 0.011-0.298 0.029-0.443m-1.516 0.142-0.164 0.628h0.258v0.254h-0.814v-0.254h0.324l0.164-0.622-3.506 3.815c0.057 0.182 0.115 0.369 0.172 0.556h4.791zm-3.449 0.301c0-1.502-1.219-2.721-2.721-2.721s-2.72 1.219-2.72 2.721c0 1.503 1.218 2.721 2.72 2.721 0.535 0 1.034-0.154 1.453-0.419-0.334-0.726-0.986-1.506-1.455-1.947-0.195-2e-3 -0.353-0.16-0.353-0.355 0-0.196 0.16-0.355 0.355-0.355 0.182 0 0.33 0.136 0.352 0.312 0.23 0.215 0.531 0.531 0.826 0.911 0.221 0.282 0.496 0.672 0.707 1.096 0.516-0.495 0.836-1.193 0.836-1.964m8.291 3.354c-0.662 0-1.277-0.191-1.797-0.521l-1.176 1.562 0.155 0.552c0.736 0.064 1.144 0.344 1.119 0.615-0.024 0.262-0.756 0.066-1.569 0.055-0.222-2e-3 -1.406 2e-3 -1.4-0.215 8e-3 -0.222 0.764-0.403 1.295-0.454l-0.096-0.338h-4.775c0.101 0.332 0.195 0.639 0.267 0.876 0.061 0.203 0.108 0.356 0.131 0.432l-0.347 0.265 0.164 0.166h1.279v0.422h-1.457l-0.623-0.633 0.4-0.305c-0.185-0.614-0.625-2.057-0.908-2.926-0.492 0.284-1.064 0.447-1.674 0.447-1.851 0-3.353-1.502-3.353-3.354s1.502-3.354 3.353-3.354c1.852 0 3.354 1.502 3.354 3.354 0 1.043-0.475 1.973-1.221 2.589 0.035 0.104 0.072 0.22 0.111 0.344l3.61-3.928c0-0.01-2e-3 -0.021-2e-3 -0.032 0-0.212 0.17-0.385 0.381-0.392l0.252-0.961h-0.258v-0.253h0.814v0.253h-0.324l-0.267 1.018c0.054 0.034 0.101 0.081 0.134 0.135l1.215 0.262c0.414-1.382 1.695-2.389 3.213-2.389 1.852 0 3.354 1.502 3.354 3.354s-1.502 3.354-3.354 3.354" fill="#fff"/></g><g transform="translate(482.29 651.28)"><path d="m0 0-3.211-4.225h3.211zm1.785-5.844v-2.803h-1.785v2.803h-5.59v1.067l5.59 7.384h1.785v-6.832h1.07v-1.619z" fill="#fff"/></g><g transform="translate(446.95 633.95)"><path d="m0 0c0-1.863-0.756-3.375-1.687-3.375h-10.126c-0.931 0-1.687 1.512-1.687 3.375v33.75c0 1.863 0.756 3.375 1.687 3.375h10.126c0.931 0 1.687-1.512 1.687-3.375z" fill="#fff"/></g><g transform="translate(445.82 650.83)"><path d="m0 0c0-9.941-2.518-18-5.625-18-3.105 0-5.625 8.059-5.625 18s2.52 18 5.625 18c3.107 0 5.625-8.059 5.625-18" fill="#26b14b"/></g><g transform="translate(442.95 654.83)"><path d="m0 0c-0.607 0-1.121 0.795-1.297 1.891l1.209 0.519c0.026-0.027 0.055-0.043 0.088-0.043 0.098 0 0.176 0.158 0.176 0.354 0 0.172-0.061 0.314-0.141 0.347l-0.744 1.979c0.207 0.25 0.449 0.396 0.709 0.396 0.75 0 1.359-1.218 1.359-2.722 0-1.502-0.609-2.721-1.359-2.721m-1.361 2.721c0 0.793 0.17 1.506 0.439 2.004l0.69-1.83-1.121-0.483c-6e-3 0.102-8e-3 0.205-8e-3 0.309m-0.303-0.442-0.531-0.23 0.617 4.42 0.465-1.237c-0.346-0.615-0.565-1.511-0.565-2.511 0-0.149 6e-3 -0.297 0.014-0.442m-0.758 0.141-0.082 0.629h0.129v0.254h-0.406v-0.254h0.162l0.082-0.623-1.754 3.816c0.029 0.182 0.059 0.369 0.086 0.555h2.396zm-1.724 0.301c0-1.502-0.61-2.721-1.36-2.721-0.752 0-1.361 1.219-1.361 2.721 0 1.504 0.609 2.722 1.361 2.722 0.268 0 0.516-0.154 0.727-0.42-0.168-0.726-0.494-1.505-0.729-1.947-0.097-2e-3 -0.176-0.16-0.176-0.355 0-0.196 0.081-0.354 0.178-0.354 0.09 0 0.164 0.135 0.176 0.311 0.115 0.215 0.266 0.531 0.412 0.912 0.111 0.281 0.248 0.672 0.354 1.096 0.257-0.496 0.418-1.194 0.418-1.965m4.146 3.355c-0.332 0-0.639-0.191-0.898-0.521l-0.588 1.562 0.076 0.551c0.369 0.064 0.572 0.344 0.56 0.615-0.011 0.262-0.378 0.067-0.785 0.055-0.111-2e-3 -0.703 2e-3 -0.699-0.215 4e-3 -0.221 0.381-0.402 0.647-0.453l-0.047-0.338h-2.389c0.051 0.332 0.098 0.639 0.135 0.875 0.029 0.203 0.053 0.356 0.064 0.432l-0.174 0.265 0.082 0.166h0.641v0.422h-0.728l-0.313-0.633 0.201-0.304c-0.094-0.615-0.312-2.057-0.455-2.926-0.246 0.283-0.531 0.447-0.836 0.447-0.926 0-1.678-1.502-1.678-3.355 0-1.852 0.752-3.354 1.678-3.354s1.676 1.502 1.676 3.354c0 1.043-0.236 1.974-0.609 2.59 0.017 0.103 0.035 0.22 0.054 0.343l1.805-3.927v-0.032c0-0.213 0.084-0.386 0.189-0.392l0.127-0.961h-0.129v-0.254h0.407v0.254h-0.162l-0.133 1.017c0.027 0.034 0.051 0.081 0.066 0.135l0.608 0.262c0.207-1.381 0.847-2.389 1.607-2.389 0.926 0 1.676 1.502 1.676 3.354 0 1.853-0.75 3.355-1.676 3.355" fill="#fff"/></g><g transform="translate(440.88 645.97)"><path d="m0 0-1.605-4.225h1.605zm0.893-5.844v-2.804h-0.893v2.804h-2.795v1.067l2.795 7.383h0.893v-6.831h0.535v-1.619z" fill="#fff"/></g><g transform="translate(431.92 448.7)"><path d="m0 0c-1.93 0-3.5 1.57-3.5 3.5v12.535c0 1.93 1.57 3.5 3.5 3.5h20.25c1.93 0 3.5-1.57 3.5-3.5v-12.535c0-1.93-1.57-3.5-3.5-3.5z" fill="#fff"/></g><g transform="translate(452.17 468.36)"><path d="m0 0h-20.25c-1.999 0-3.625-1.626-3.625-3.625v-12.535c0-1.999 1.626-3.625 3.625-3.625h20.25c1.999 0 3.625 1.626 3.625 3.625v12.535c0 1.999-1.626 3.625-3.625 3.625m0-0.25c1.865 0 3.375-1.512 3.375-3.375v-12.535c0-1.863-1.51-3.375-3.375-3.375h-20.25c-1.863 0-3.375 1.512-3.375 3.375v12.535c0 1.863 1.512 3.375 3.375 3.375z"/></g><g transform="translate(431.92 449.67)"><path d="m0 0c-1.395 0-2.531 1.137-2.531 2.531v12.535c0 1.397 1.136 2.532 2.531 2.532h20.25c1.396 0 2.531-1.135 2.531-2.532v-12.535c0-1.394-1.135-2.531-2.531-2.531z" fill="#006f53"/></g><g transform="translate(447.66 457.53)"><path d="m0 0 1.947 7.498-7.699-0.877c-0.127-0.014-0.254-0.066-0.359-0.164-0.114-0.098-0.172-0.225-0.203-0.344-0.022-0.129-8e-3 -0.271 0.052-0.398 0.061-0.135 0.159-0.233 0.27-0.291l1.82-1.004-8.814-7.662 2.209-2.547 8.814 7.662 0.742-1.939c0.045-0.121 0.135-0.233 0.254-0.307 0.121-0.084 0.256-0.113 0.383-0.105 0.135 7e-3 0.27 0.06 0.373 0.142 0.106 0.09 0.182 0.201 0.211 0.336" fill="#fff" fill-rule="evenodd"/></g><g transform="translate(399.26 368.2)"><path d="m0 0v6.354h-1.559l2.577 4.377 2.398-4.377h-1.439v-6.354z"/></g><g transform="translate(381.84 378.93)"><path d="m0 0v-6.354h1.559l-2.577-4.378-2.398 4.378h1.439v6.354z"/></g><g transform="translate(436.81 610.55)"><path d="m0 0 0.765 6.307-1.547 0.187 3.084 4.035 1.853-4.633-1.427 0.172-0.766-6.306z"/></g><g transform="translate(420.81 623.3)"><path d="m0 0-0.766-6.309 1.548-0.187-3.085-4.035-1.853 4.635 1.428-0.174 0.765 6.308z"/></g><g transform="translate(327.74 612.14)"><path d="m0 0-0.41 6.339-1.556-0.101 2.287 4.535 2.677-4.212-1.436-0.095 0.411-6.339z"/></g><g transform="translate(309.66 621.72)"><path d="m0 0 0.41-6.342 1.557 0.101-2.289-4.534-2.677 4.214 1.437 0.091-0.411 6.342z"/></g></g><text transform="matrix(1 0 0 -1 234.48 465.97)" fill="black" font-family="Helvetica" font-size="8px"><tspan x="0 5.776 10.224 12.448 16.896 19.120001 24 29.775999 31.552 36 40.448002 42.672001 45.335999 49.784 52.007999 54.672001 60.448002 64.896004 68.896004 71.120003 75.568001 79.568001 83.568001 85.344002 89.792 94.239998 100.904 105.352 109.8 112.024" y="0">Note: Right-of-way assignment </tspan><tspan x="24 28.448 32.896 37.344002 39.568001 44.015999 48.015999 52.015999 56.464001 60.464001 62.240002 66.688004 68.912003 73.360001 77.807999 80.031998 82.255997 84.919998 89.367996 91.456802 93.680801 95.456802 99.456802" y="8.4960003">and associated traffic </tspan><tspan x="24 28 32.448002 36.896 39.119999 41.784 46.231998 48.007999 50.231998 52.007999 56.007999 58.231998 62.68 67.127998 69.351997 71.575996 75.575996 80.024002 84.472 90.248001 94.695999" y="16.992001">control is not shown.</tspan></text><g clip-path="url(#a)"><g transform="translate(431.94 422.11)"><path d="m0 0c-1.927 0-3.495 1.568-3.495 3.495v6.739c0 1.927 1.568 3.495 3.495 3.495h20.217c1.927 0 3.495-1.568 3.495-3.495v-6.739c0-1.927-1.568-3.495-3.495-3.495z" fill="#fff"/></g><g transform="translate(452.16 435.96)"><path d="m0 0h-20.218c-1.995 0-3.619-1.624-3.619-3.62v-6.739c0-1.996 1.624-3.619 3.619-3.619h20.218c1.996 0 3.62 1.623 3.62 3.619v6.739c0 1.996-1.624 3.62-3.62 3.62m0-0.25c1.861 0 3.37-1.509 3.37-3.37v-6.739c0-1.861-1.509-3.369-3.37-3.369h-20.218c-1.861 0-3.369 1.508-3.369 3.369v6.739c0 1.861 1.508 3.37 3.369 3.37z"/></g><g transform="translate(431.94 423.07)"><path d="m0 0c-1.394 0-2.527 1.134-2.527 2.527v6.739c0 1.394 1.133 2.528 2.527 2.528h20.218c1.393 0 2.527-1.134 2.527-2.528v-6.739c0-1.393-1.134-2.527-2.527-2.527z" fill="#006f53"/></g><g transform="translate(432.06 430.5)"><path d="m0 0v-6.021h-1.289v8.985h1.289l2.454-5.391v5.391h1.291v-8.985h-0.975z" fill="#fff"/></g><g transform="translate(438.6 430.39)"><path d="m0 0c-0.192 0-1.061 0.04-1.061-2.532 0-2.591 0.869-2.551 1.061-2.551s1.06-0.04 1.06 2.551c0 2.572-0.868 2.532-1.06 2.532m-1.989-2.527c0 3.529 1.637 3.472 2 3.472s1.978 0.054 1.978-3.475c0-3.554-1.615-3.498-1.978-3.498s-2-0.056-2 3.501" fill="#fff"/></g><g transform="translate(442.37 430.27)"><path d="m0 0v-1.702h0.991c0.567 0 0.873 0.307 0.873 0.851 0 0.521-0.354 0.851-0.873 0.851zm0.921-2.625h-0.921v-3.168h-0.967v6.739h2.006c1.057 0 1.769-0.709 1.769-1.797 0-0.803-0.331-1.395-0.967-1.632l0.967-3.31h-0.99z" fill="#fff"/></g><g transform="translate(447.75 424.48)"><path d="m0 0h-0.972v5.84h-1.233v0.899h3.438v-0.899h-1.233z" fill="#fff"/></g><g transform="translate(452.35 427.53)"><path d="m0 0h-1.841v-3.05h-0.967v6.739h0.967v-2.743h1.84v2.743h0.968v-6.739h-0.967z" fill="#fff"/></g><g transform="translate(431.94 508.99)"><path d="m0 0c-1.927 0-3.495 1.568-3.495 3.495v6.739c0 1.927 1.568 3.495 3.495 3.495h20.217c1.927 0 3.495-1.568 3.495-3.495v-6.739c0-1.927-1.568-3.495-3.495-3.495z" fill="#fff"/></g><g transform="translate(452.16 522.85)"><path d="m0 0h-20.218c-1.995 0-3.619-1.624-3.619-3.62v-6.739c0-1.996 1.624-3.619 3.619-3.619h20.218c1.996 0 3.62 1.623 3.62 3.619v6.739c0 1.996-1.624 3.62-3.62 3.62m0-0.25c1.861 0 3.37-1.509 3.37-3.37v-6.739c0-1.861-1.509-3.369-3.37-3.369h-20.218c-1.861 0-3.369 1.508-3.369 3.369v6.739c0 1.861 1.508 3.37 3.369 3.37z"/></g><g transform="translate(431.94 509.96)"><path d="m0 0c-1.394 0-2.527 1.134-2.527 2.527v6.739c0 1.394 1.133 2.528 2.527 2.528h20.218c1.393 0 2.527-1.134 2.527-2.528v-6.739c0-1.393-1.134-2.527-2.527-2.527z" fill="#006f53"/></g><g transform="translate(432.06 517.39)"><path d="m0 0v-6.021h-1.289v8.985h1.289l2.454-5.391v5.391h1.291v-8.985h-0.975z" fill="#fff"/></g><g transform="translate(438.6 517.28)"><path d="m0 0c-0.192 0-1.061 0.04-1.061-2.532 0-2.591 0.869-2.551 1.061-2.551s1.06-0.04 1.06 2.551c0 2.572-0.868 2.532-1.06 2.532m-1.989-2.527c0 3.529 1.637 3.472 2 3.472s1.978 0.054 1.978-3.475c0-3.554-1.615-3.498-1.978-3.498s-2-0.056-2 3.501" fill="#fff"/></g><g transform="translate(442.37 517.16)"><path d="m0 0v-1.703h0.991c0.567 0 0.873 0.308 0.873 0.852 0 0.521-0.354 0.851-0.873 0.851zm0.921-2.625h-0.921v-3.168h-0.967v6.739h2.006c1.057 0 1.769-0.709 1.769-1.797 0-0.803-0.331-1.395-0.967-1.632l0.967-3.31h-0.99z" fill="#fff"/></g><g transform="translate(447.75 511.36)"><path d="m0 0h-0.972v5.84h-1.233v0.899h3.438v-0.899h-1.233z" fill="#fff"/></g><g transform="translate(452.35 514.41)"><path d="m0 0h-1.841v-3.05h-0.967v6.739h0.967v-2.743h1.84v2.743h0.968v-6.739h-0.967z" fill="#fff"/></g><g transform="translate(358.75 676.53)"><path d="m0 0c-1.927 0-3.495 1.568-3.495 3.495v6.739c0 1.927 1.568 3.495 3.495 3.495h20.218c1.927 0 3.494-1.568 3.494-3.495v-6.739c0-1.927-1.567-3.495-3.494-3.495z" fill="#fff"/></g><g transform="translate(378.97 690.38)"><path d="m0 0h-20.218c-1.995 0-3.619-1.624-3.619-3.62v-6.739c0-1.996 1.624-3.619 3.619-3.619h20.218c1.996 0 3.62 1.623 3.62 3.619v6.739c0 1.996-1.624 3.62-3.62 3.62m0-0.25c1.861 0 3.37-1.509 3.37-3.37v-6.739c0-1.861-1.509-3.369-3.37-3.369h-20.218c-1.861 0-3.369 1.508-3.369 3.369v6.739c0 1.861 1.508 3.37 3.369 3.37z"/></g><g transform="translate(358.75 677.49)"><path d="m0 0c-1.393 0-2.527 1.134-2.527 2.527v6.739c0 1.394 1.134 2.528 2.527 2.528h20.218c1.393 0 2.527-1.134 2.527-2.528v-6.739c0-1.393-1.134-2.527-2.527-2.527z" fill="#006f53"/></g><g transform="translate(358.87 684.92)"><path d="m0 0v-6.021h-1.289v8.985h1.289l2.454-5.391v5.391h1.291v-8.985h-0.975z" fill="#fff"/></g><g transform="translate(365.42 684.81)"><path d="m0 0c-0.192 0-1.061 0.04-1.061-2.532 0-2.591 0.869-2.551 1.061-2.551s1.06-0.04 1.06 2.551c0 2.572-0.868 2.532-1.06 2.532m-1.989-2.527c0 3.529 1.637 3.472 2 3.472s1.978 0.054 1.978-3.475c0-3.554-1.615-3.498-1.978-3.498s-2-0.056-2 3.501" fill="#fff"/></g><g transform="translate(369.18 684.69)"><path d="m0 0v-1.702h0.991c0.567 0 0.873 0.307 0.873 0.851 0 0.521-0.354 0.851-0.873 0.851zm0.921-2.625h-0.921v-3.168h-0.967v6.739h2.006c1.057 0 1.769-0.709 1.769-1.797 0-0.803-0.331-1.395-0.967-1.632l0.967-3.31h-0.99z" fill="#fff"/></g><g transform="translate(374.56 678.9)"><path d="m0 0h-0.972v5.84h-1.233v0.899h3.438v-0.899h-1.233z" fill="#fff"/></g><g transform="translate(379.17 681.95)"><path d="m0 0h-1.841v-3.05h-0.967v6.739h0.967v-2.743h1.84v2.743h0.968v-6.739h-0.967z" fill="#fff"/></g><g transform="translate(471.32 676.53)"><path d="m0 0c-1.927 0-3.495 1.568-3.495 3.495v6.739c0 1.927 1.568 3.495 3.495 3.495h20.217c1.927 0 3.495-1.568 3.495-3.495v-6.739c0-1.927-1.568-3.495-3.495-3.495z" fill="#fff"/></g><g transform="translate(491.53 690.38)"><path d="m0 0h-20.218c-1.995 0-3.619-1.624-3.619-3.62v-6.739c0-1.996 1.624-3.619 3.619-3.619h20.218c1.996 0 3.62 1.623 3.62 3.619v6.739c0 1.996-1.624 3.62-3.62 3.62m0-0.25c1.861 0 3.37-1.509 3.37-3.37v-6.739c0-1.861-1.509-3.369-3.37-3.369h-20.218c-1.861 0-3.369 1.508-3.369 3.369v6.739c0 1.861 1.508 3.37 3.369 3.37z"/></g><g transform="translate(471.31 677.49)"><path d="m0 0c-1.393 0-2.527 1.134-2.527 2.527v6.739c0 1.394 1.134 2.528 2.527 2.528h20.218c1.393 0 2.527-1.134 2.527-2.528v-6.739c0-1.393-1.134-2.527-2.527-2.527z" fill="#006f53"/></g><g transform="translate(471.44 684.92)"><path d="m0 0v-6.021h-1.289v8.985h1.289l2.454-5.391v5.391h1.291v-8.985h-0.975z" fill="#fff"/></g><g transform="translate(477.98 684.81)"><path d="m0 0c-0.192 0-1.061 0.04-1.061-2.532 0-2.591 0.869-2.551 1.061-2.551s1.06-0.04 1.06 2.551c0 2.572-0.868 2.532-1.06 2.532m-1.989-2.527c0 3.529 1.637 3.472 2 3.472s1.978 0.054 1.978-3.475c0-3.554-1.615-3.498-1.978-3.498s-2-0.056-2 3.501" fill="#fff"/></g><g transform="translate(481.75 684.69)"><path d="m0 0v-1.702h0.991c0.567 0 0.873 0.307 0.873 0.851 0 0.521-0.354 0.851-0.873 0.851zm0.921-2.625h-0.921v-3.168h-0.967v6.739h2.006c1.057 0 1.769-0.709 1.769-1.797 0-0.803-0.331-1.395-0.967-1.632l0.967-3.31h-0.99z" fill="#fff"/></g><g transform="translate(487.12 678.9)"><path d="m0 0h-0.972v5.84h-1.233v0.899h3.438v-0.899h-1.233z" fill="#fff"/></g><g transform="translate(491.73 681.95)"><path d="m0 0h-1.841v-3.05h-0.967v6.739h0.967v-2.743h1.84v2.743h0.968v-6.739h-0.967z" fill="#fff"/></g><g transform="translate(249.41 611.78)"><path d="m0 0v78.92l-3.111-21.215 0.282-3.677 2.263 1.98" stroke="#000"/></g><g transform="translate(252.51 659.33)"><path d="m0 0h2.665v-22.176h-3.09l-10.348 17.914h-0.056v-17.914h-2.665v22.176h3.259l10.177-17.913h0.058z"/></g></g></g></svg>
