<?xml version="1.0" encoding="UTF-8"?>
<svg width="580.5" height="774.27" version="1.1" viewBox="0 0 580.5 774.27" xml:space="preserve" xmlns="http://www.w3.org/2000/svg"><defs><clipPath id="v"><path d="m79.244 99.311h480.52v643.69h-480.52z"/></clipPath><clipPath id="u"><path d="m79.244 99.311h480.52v643.69h-480.52z"/></clipPath><clipPath id="t"><path d="m79.244 99.311h480.52v643.69h-480.52z"/></clipPath><clipPath id="s"><path d="m79.244 99.311h480.52v643.69h-480.52z"/></clipPath><clipPath id="r"><path d="m79.244 99.311h480.52v643.69h-480.52z"/></clipPath><clipPath id="q"><path d="m79.244 99.311h480.52v643.69h-480.52z"/></clipPath><clipPath id="p"><path d="m79.244 99.311h480.52v643.69h-480.52z"/></clipPath><clipPath id="o"><path d="m79.244 99.311h480.52v643.69h-480.52z"/></clipPath><clipPath id="n"><path d="m0 0h9.609v3.097h-9.609z"/></clipPath><pattern id="d" width="9.60941" height="3.09668" patternTransform="matrix(.45894 -.19842 .19842 .45894 -6346.5 2461.7)" patternUnits="userSpaceOnUse"><g clip-path="url(#n)"><g transform="translate(1.6191,3.0967)"><path d="m0 0c0 0.228-0.186 0.413-0.413 0.413-0.228 0-0.413-0.185-0.413-0.413s0.185-0.412 0.413-0.412c0.227 0 0.413 0.184 0.413 0.412m0.25 0c0-0.365-0.298-0.662-0.663-0.662s-0.663 0.297-0.663 0.662 0.298 0.663 0.663 0.663 0.663-0.298 0.663-0.663" fill="#231f20"/></g><g transform="translate(4.0205,3.0967)"><path d="m0 0c0 0.228-0.186 0.413-0.413 0.413-0.228 0-0.413-0.185-0.413-0.413s0.185-0.412 0.413-0.412c0.227 0 0.413 0.184 0.413 0.412m0.25 0c0-0.365-0.298-0.662-0.663-0.662s-0.663 0.297-0.663 0.662 0.298 0.663 0.663 0.663 0.663-0.298 0.663-0.663" fill="#231f20"/></g><g transform="translate(6.4219,3.0967)"><path d="m0 0c0 0.228-0.186 0.413-0.413 0.413-0.228 0-0.413-0.185-0.413-0.413s0.185-0.412 0.413-0.412c0.227 0 0.413 0.184 0.413 0.412m0.25 0c0-0.365-0.298-0.662-0.663-0.662s-0.663 0.297-0.663 0.662 0.298 0.663 0.663 0.663 0.663-0.298 0.663-0.663" fill="#231f20"/></g><g transform="translate(8.8232,3.0967)"><path d="m0 0c0 0.228-0.186 0.413-0.413 0.413-0.228 0-0.413-0.185-0.413-0.413s0.185-0.412 0.413-0.412c0.227 0 0.413 0.184 0.413 0.412m0.25 0c0-0.365-0.298-0.662-0.663-0.662s-0.663 0.297-0.663 0.662 0.298 0.663 0.663 0.663 0.663-0.298 0.663-0.663" fill="#231f20"/></g><g transform="translate(1.6182)"><path d="m0 0c0 0.228-0.186 0.413-0.413 0.413-0.228 0-0.413-0.185-0.413-0.413s0.185-0.412 0.413-0.412c0.227 0 0.413 0.184 0.413 0.412m0.25 0c0-0.365-0.298-0.662-0.663-0.662s-0.663 0.297-0.663 0.662 0.298 0.663 0.663 0.663 0.663-0.298 0.663-0.663" fill="#231f20"/></g><g transform="translate(4.0195)"><path d="m0 0c0 0.228-0.186 0.413-0.413 0.413-0.228 0-0.413-0.185-0.413-0.413s0.185-0.412 0.413-0.412c0.227 0 0.413 0.184 0.413 0.412m0.25 0c0-0.365-0.298-0.662-0.663-0.662s-0.663 0.297-0.663 0.662 0.298 0.663 0.663 0.663 0.663-0.298 0.663-0.663" fill="#231f20"/></g><g transform="translate(6.4209)"><path d="m0 0c0 0.228-0.186 0.413-0.413 0.413-0.228 0-0.413-0.185-0.413-0.413s0.185-0.412 0.413-0.412c0.227 0 0.413 0.184 0.413 0.412m0.25 0c0-0.365-0.298-0.662-0.663-0.662s-0.663 0.297-0.663 0.662 0.298 0.663 0.663 0.663 0.663-0.298 0.663-0.663" fill="#231f20"/></g><g transform="translate(8.8223)"><path d="m0 0c0 0.228-0.186 0.413-0.413 0.413-0.228 0-0.413-0.185-0.413-0.413s0.185-0.412 0.413-0.412c0.227 0 0.413 0.184 0.413 0.412m0.25 0c0-0.365-0.298-0.662-0.663-0.662s-0.663 0.297-0.663 0.662 0.298 0.663 0.663 0.663 0.663-0.298 0.663-0.663" fill="#231f20"/></g><g transform="translate(10.022 1.5479)"><path d="m0 0c0 0.228-0.186 0.413-0.413 0.413-0.228 0-0.413-0.185-0.413-0.413s0.185-0.412 0.413-0.412c0.227 0 0.413 0.184 0.413 0.412m0.25 0c0-0.365-0.298-0.662-0.663-0.662s-0.663 0.297-0.663 0.662 0.298 0.663 0.663 0.663 0.663-0.298 0.663-0.663" fill="#231f20"/></g><g transform="translate(7.6201,1.5479)"><path d="m0 0c0 0.228-0.186 0.413-0.413 0.413-0.228 0-0.413-0.185-0.413-0.413s0.185-0.412 0.413-0.412c0.227 0 0.413 0.184 0.413 0.412m0.25 0c0-0.365-0.298-0.662-0.663-0.662s-0.663 0.297-0.663 0.662 0.298 0.663 0.663 0.663 0.663-0.298 0.663-0.663" fill="#231f20"/></g><g transform="translate(5.2178,1.5479)"><path d="m0 0c0 0.228-0.186 0.413-0.413 0.413-0.228 0-0.413-0.185-0.413-0.413s0.185-0.412 0.413-0.412c0.227 0 0.413 0.184 0.413 0.412m0.25 0c0-0.365-0.298-0.662-0.663-0.662s-0.663 0.297-0.663 0.662 0.298 0.663 0.663 0.663 0.663-0.298 0.663-0.663" fill="#231f20"/></g><g transform="translate(2.8154,1.5479)"><path d="m0 0c0 0.228-0.186 0.413-0.413 0.413-0.228 0-0.413-0.185-0.413-0.413s0.185-0.412 0.413-0.412c0.227 0 0.413 0.184 0.413 0.412m0.25 0c0-0.365-0.298-0.662-0.663-0.662s-0.663 0.297-0.663 0.662 0.298 0.663 0.663 0.663 0.663-0.298 0.663-0.663" fill="#231f20"/></g><g transform="translate(.4131 1.5479)"><path d="m0 0c0 0.228-0.186 0.413-0.413 0.413-0.228 0-0.413-0.185-0.413-0.413s0.185-0.412 0.413-0.412c0.227 0 0.413 0.184 0.413 0.412m0.25 0c0-0.365-0.298-0.662-0.663-0.662s-0.663 0.297-0.663 0.662 0.298 0.663 0.663 0.663 0.663-0.298 0.663-0.663" fill="#231f20"/></g></g></pattern><clipPath id="m"><path d="m0 0h9.609v3.097h-9.609z"/></clipPath><pattern id="c" width="9.60941" height="3.09668" patternTransform="matrix(-.45894 -.19842 -.19842 .45894 -10017 2461.9)" patternUnits="userSpaceOnUse"><g clip-path="url(#m)"><g transform="translate(1.6191,3.0967)"><path d="m0 0c0 0.228-0.186 0.413-0.413 0.413-0.228 0-0.413-0.185-0.413-0.413s0.185-0.412 0.413-0.412c0.227 0 0.413 0.184 0.413 0.412m0.25 0c0-0.365-0.298-0.662-0.663-0.662s-0.663 0.297-0.663 0.662 0.298 0.663 0.663 0.663 0.663-0.298 0.663-0.663" fill="#231f20"/></g><g transform="translate(4.0205,3.0967)"><path d="m0 0c0 0.228-0.186 0.413-0.413 0.413-0.228 0-0.413-0.185-0.413-0.413s0.185-0.412 0.413-0.412c0.227 0 0.413 0.184 0.413 0.412m0.25 0c0-0.365-0.298-0.662-0.663-0.662s-0.663 0.297-0.663 0.662 0.298 0.663 0.663 0.663 0.663-0.298 0.663-0.663" fill="#231f20"/></g><g transform="translate(6.4219,3.0967)"><path d="m0 0c0 0.228-0.186 0.413-0.413 0.413-0.228 0-0.413-0.185-0.413-0.413s0.185-0.412 0.413-0.412c0.227 0 0.413 0.184 0.413 0.412m0.25 0c0-0.365-0.298-0.662-0.663-0.662s-0.663 0.297-0.663 0.662 0.298 0.663 0.663 0.663 0.663-0.298 0.663-0.663" fill="#231f20"/></g><g transform="translate(8.8232,3.0967)"><path d="m0 0c0 0.228-0.186 0.413-0.413 0.413-0.228 0-0.413-0.185-0.413-0.413s0.185-0.412 0.413-0.412c0.227 0 0.413 0.184 0.413 0.412m0.25 0c0-0.365-0.298-0.662-0.663-0.662s-0.663 0.297-0.663 0.662 0.298 0.663 0.663 0.663 0.663-0.298 0.663-0.663" fill="#231f20"/></g><g transform="translate(1.6182)"><path d="m0 0c0 0.228-0.186 0.413-0.413 0.413-0.228 0-0.413-0.185-0.413-0.413s0.185-0.412 0.413-0.412c0.227 0 0.413 0.184 0.413 0.412m0.25 0c0-0.365-0.298-0.662-0.663-0.662s-0.663 0.297-0.663 0.662 0.298 0.663 0.663 0.663 0.663-0.298 0.663-0.663" fill="#231f20"/></g><g transform="translate(4.0195)"><path d="m0 0c0 0.228-0.186 0.413-0.413 0.413-0.228 0-0.413-0.185-0.413-0.413s0.185-0.412 0.413-0.412c0.227 0 0.413 0.184 0.413 0.412m0.25 0c0-0.365-0.298-0.662-0.663-0.662s-0.663 0.297-0.663 0.662 0.298 0.663 0.663 0.663 0.663-0.298 0.663-0.663" fill="#231f20"/></g><g transform="translate(6.4209)"><path d="m0 0c0 0.228-0.186 0.413-0.413 0.413-0.228 0-0.413-0.185-0.413-0.413s0.185-0.412 0.413-0.412c0.227 0 0.413 0.184 0.413 0.412m0.25 0c0-0.365-0.298-0.662-0.663-0.662s-0.663 0.297-0.663 0.662 0.298 0.663 0.663 0.663 0.663-0.298 0.663-0.663" fill="#231f20"/></g><g transform="translate(8.8223)"><path d="m0 0c0 0.228-0.186 0.413-0.413 0.413-0.228 0-0.413-0.185-0.413-0.413s0.185-0.412 0.413-0.412c0.227 0 0.413 0.184 0.413 0.412m0.25 0c0-0.365-0.298-0.662-0.663-0.662s-0.663 0.297-0.663 0.662 0.298 0.663 0.663 0.663 0.663-0.298 0.663-0.663" fill="#231f20"/></g><g transform="translate(10.022 1.5479)"><path d="m0 0c0 0.228-0.186 0.413-0.413 0.413-0.228 0-0.413-0.185-0.413-0.413s0.185-0.412 0.413-0.412c0.227 0 0.413 0.184 0.413 0.412m0.25 0c0-0.365-0.298-0.662-0.663-0.662s-0.663 0.297-0.663 0.662 0.298 0.663 0.663 0.663 0.663-0.298 0.663-0.663" fill="#231f20"/></g><g transform="translate(7.6201,1.5479)"><path d="m0 0c0 0.228-0.186 0.413-0.413 0.413-0.228 0-0.413-0.185-0.413-0.413s0.185-0.412 0.413-0.412c0.227 0 0.413 0.184 0.413 0.412m0.25 0c0-0.365-0.298-0.662-0.663-0.662s-0.663 0.297-0.663 0.662 0.298 0.663 0.663 0.663 0.663-0.298 0.663-0.663" fill="#231f20"/></g><g transform="translate(5.2178,1.5479)"><path d="m0 0c0 0.228-0.186 0.413-0.413 0.413-0.228 0-0.413-0.185-0.413-0.413s0.185-0.412 0.413-0.412c0.227 0 0.413 0.184 0.413 0.412m0.25 0c0-0.365-0.298-0.662-0.663-0.662s-0.663 0.297-0.663 0.662 0.298 0.663 0.663 0.663 0.663-0.298 0.663-0.663" fill="#231f20"/></g><g transform="translate(2.8154,1.5479)"><path d="m0 0c0 0.228-0.186 0.413-0.413 0.413-0.228 0-0.413-0.185-0.413-0.413s0.185-0.412 0.413-0.412c0.227 0 0.413 0.184 0.413 0.412m0.25 0c0-0.365-0.298-0.662-0.663-0.662s-0.663 0.297-0.663 0.662 0.298 0.663 0.663 0.663 0.663-0.298 0.663-0.663" fill="#231f20"/></g><g transform="translate(.4131 1.5479)"><path d="m0 0c0 0.228-0.186 0.413-0.413 0.413-0.228 0-0.413-0.185-0.413-0.413s0.185-0.412 0.413-0.412c0.227 0 0.413 0.184 0.413 0.412m0.25 0c0-0.365-0.298-0.662-0.663-0.662s-0.663 0.297-0.663 0.662 0.298 0.663 0.663 0.663 0.663-0.298 0.663-0.663" fill="#231f20"/></g></g></pattern><clipPath id="l"><path d="m79.244 99.311h480.52v643.69h-480.52z"/></clipPath><clipPath id="k"><path d="m79.244 99.311h480.52v643.69h-480.52z"/></clipPath><clipPath id="j"><path d="m79.244 99.311h480.52v643.69h-480.52z"/></clipPath><clipPath id="i"><path d="m79.244 99.311h480.52v643.69h-480.52z"/></clipPath><clipPath id="h"><path d="m0 0h9.609v3.097h-9.609z"/></clipPath><pattern id="b" width="9.60941" height="3.09668" patternTransform="matrix(.45894 -.19842 .19842 .45894 -6325.4 2764.6)" patternUnits="userSpaceOnUse"><g clip-path="url(#h)"><g transform="translate(1.6191,3.0967)"><path d="m0 0c0 0.228-0.186 0.413-0.413 0.413-0.228 0-0.413-0.185-0.413-0.413s0.185-0.412 0.413-0.412c0.227 0 0.413 0.184 0.413 0.412m0.25 0c0-0.365-0.298-0.662-0.663-0.662s-0.663 0.297-0.663 0.662 0.298 0.663 0.663 0.663 0.663-0.298 0.663-0.663" fill="#231f20"/></g><g transform="translate(4.0205,3.0967)"><path d="m0 0c0 0.228-0.186 0.413-0.413 0.413-0.228 0-0.413-0.185-0.413-0.413s0.185-0.412 0.413-0.412c0.227 0 0.413 0.184 0.413 0.412m0.25 0c0-0.365-0.298-0.662-0.663-0.662s-0.663 0.297-0.663 0.662 0.298 0.663 0.663 0.663 0.663-0.298 0.663-0.663" fill="#231f20"/></g><g transform="translate(6.4219,3.0967)"><path d="m0 0c0 0.228-0.186 0.413-0.413 0.413-0.228 0-0.413-0.185-0.413-0.413s0.185-0.412 0.413-0.412c0.227 0 0.413 0.184 0.413 0.412m0.25 0c0-0.365-0.298-0.662-0.663-0.662s-0.663 0.297-0.663 0.662 0.298 0.663 0.663 0.663 0.663-0.298 0.663-0.663" fill="#231f20"/></g><g transform="translate(8.8232,3.0967)"><path d="m0 0c0 0.228-0.186 0.413-0.413 0.413-0.228 0-0.413-0.185-0.413-0.413s0.185-0.412 0.413-0.412c0.227 0 0.413 0.184 0.413 0.412m0.25 0c0-0.365-0.298-0.662-0.663-0.662s-0.663 0.297-0.663 0.662 0.298 0.663 0.663 0.663 0.663-0.298 0.663-0.663" fill="#231f20"/></g><g transform="translate(1.6182)"><path d="m0 0c0 0.228-0.186 0.413-0.413 0.413-0.228 0-0.413-0.185-0.413-0.413s0.185-0.412 0.413-0.412c0.227 0 0.413 0.184 0.413 0.412m0.25 0c0-0.365-0.298-0.662-0.663-0.662s-0.663 0.297-0.663 0.662 0.298 0.663 0.663 0.663 0.663-0.298 0.663-0.663" fill="#231f20"/></g><g transform="translate(4.0195)"><path d="m0 0c0 0.228-0.186 0.413-0.413 0.413-0.228 0-0.413-0.185-0.413-0.413s0.185-0.412 0.413-0.412c0.227 0 0.413 0.184 0.413 0.412m0.25 0c0-0.365-0.298-0.662-0.663-0.662s-0.663 0.297-0.663 0.662 0.298 0.663 0.663 0.663 0.663-0.298 0.663-0.663" fill="#231f20"/></g><g transform="translate(6.4209)"><path d="m0 0c0 0.228-0.186 0.413-0.413 0.413-0.228 0-0.413-0.185-0.413-0.413s0.185-0.412 0.413-0.412c0.227 0 0.413 0.184 0.413 0.412m0.25 0c0-0.365-0.298-0.662-0.663-0.662s-0.663 0.297-0.663 0.662 0.298 0.663 0.663 0.663 0.663-0.298 0.663-0.663" fill="#231f20"/></g><g transform="translate(8.8223)"><path d="m0 0c0 0.228-0.186 0.413-0.413 0.413-0.228 0-0.413-0.185-0.413-0.413s0.185-0.412 0.413-0.412c0.227 0 0.413 0.184 0.413 0.412m0.25 0c0-0.365-0.298-0.662-0.663-0.662s-0.663 0.297-0.663 0.662 0.298 0.663 0.663 0.663 0.663-0.298 0.663-0.663" fill="#231f20"/></g><g transform="translate(10.022 1.5479)"><path d="m0 0c0 0.228-0.186 0.413-0.413 0.413-0.228 0-0.413-0.185-0.413-0.413s0.185-0.412 0.413-0.412c0.227 0 0.413 0.184 0.413 0.412m0.25 0c0-0.365-0.298-0.662-0.663-0.662s-0.663 0.297-0.663 0.662 0.298 0.663 0.663 0.663 0.663-0.298 0.663-0.663" fill="#231f20"/></g><g transform="translate(7.6201,1.5479)"><path d="m0 0c0 0.228-0.186 0.413-0.413 0.413-0.228 0-0.413-0.185-0.413-0.413s0.185-0.412 0.413-0.412c0.227 0 0.413 0.184 0.413 0.412m0.25 0c0-0.365-0.298-0.662-0.663-0.662s-0.663 0.297-0.663 0.662 0.298 0.663 0.663 0.663 0.663-0.298 0.663-0.663" fill="#231f20"/></g><g transform="translate(5.2178,1.5479)"><path d="m0 0c0 0.228-0.186 0.413-0.413 0.413-0.228 0-0.413-0.185-0.413-0.413s0.185-0.412 0.413-0.412c0.227 0 0.413 0.184 0.413 0.412m0.25 0c0-0.365-0.298-0.662-0.663-0.662s-0.663 0.297-0.663 0.662 0.298 0.663 0.663 0.663 0.663-0.298 0.663-0.663" fill="#231f20"/></g><g transform="translate(2.8154,1.5479)"><path d="m0 0c0 0.228-0.186 0.413-0.413 0.413-0.228 0-0.413-0.185-0.413-0.413s0.185-0.412 0.413-0.412c0.227 0 0.413 0.184 0.413 0.412m0.25 0c0-0.365-0.298-0.662-0.663-0.662s-0.663 0.297-0.663 0.662 0.298 0.663 0.663 0.663 0.663-0.298 0.663-0.663" fill="#231f20"/></g><g transform="translate(.4131 1.5479)"><path d="m0 0c0 0.228-0.186 0.413-0.413 0.413-0.228 0-0.413-0.185-0.413-0.413s0.185-0.412 0.413-0.412c0.227 0 0.413 0.184 0.413 0.412m0.25 0c0-0.365-0.298-0.662-0.663-0.662s-0.663 0.297-0.663 0.662 0.298 0.663 0.663 0.663 0.663-0.298 0.663-0.663" fill="#231f20"/></g></g></pattern><clipPath id="g"><path d="m0 0h9.609v3.097h-9.609z"/></clipPath><pattern id="a" width="9.60941" height="3.09668" patternTransform="matrix(-.45894 -.19842 -.19842 .45894 -10038 2764.8)" patternUnits="userSpaceOnUse"><g clip-path="url(#g)"><g transform="translate(1.6191,3.0967)"><path d="m0 0c0 0.228-0.186 0.413-0.413 0.413-0.228 0-0.413-0.185-0.413-0.413s0.185-0.412 0.413-0.412c0.227 0 0.413 0.184 0.413 0.412m0.25 0c0-0.365-0.298-0.662-0.663-0.662s-0.663 0.297-0.663 0.662 0.298 0.663 0.663 0.663 0.663-0.298 0.663-0.663" fill="#231f20"/></g><g transform="translate(4.0205,3.0967)"><path d="m0 0c0 0.228-0.186 0.413-0.413 0.413-0.228 0-0.413-0.185-0.413-0.413s0.185-0.412 0.413-0.412c0.227 0 0.413 0.184 0.413 0.412m0.25 0c0-0.365-0.298-0.662-0.663-0.662s-0.663 0.297-0.663 0.662 0.298 0.663 0.663 0.663 0.663-0.298 0.663-0.663" fill="#231f20"/></g><g transform="translate(6.4219,3.0967)"><path d="m0 0c0 0.228-0.186 0.413-0.413 0.413-0.228 0-0.413-0.185-0.413-0.413s0.185-0.412 0.413-0.412c0.227 0 0.413 0.184 0.413 0.412m0.25 0c0-0.365-0.298-0.662-0.663-0.662s-0.663 0.297-0.663 0.662 0.298 0.663 0.663 0.663 0.663-0.298 0.663-0.663" fill="#231f20"/></g><g transform="translate(8.8232,3.0967)"><path d="m0 0c0 0.228-0.186 0.413-0.413 0.413-0.228 0-0.413-0.185-0.413-0.413s0.185-0.412 0.413-0.412c0.227 0 0.413 0.184 0.413 0.412m0.25 0c0-0.365-0.298-0.662-0.663-0.662s-0.663 0.297-0.663 0.662 0.298 0.663 0.663 0.663 0.663-0.298 0.663-0.663" fill="#231f20"/></g><g transform="translate(1.6182)"><path d="m0 0c0 0.228-0.186 0.413-0.413 0.413-0.228 0-0.413-0.185-0.413-0.413s0.185-0.412 0.413-0.412c0.227 0 0.413 0.184 0.413 0.412m0.25 0c0-0.365-0.298-0.662-0.663-0.662s-0.663 0.297-0.663 0.662 0.298 0.663 0.663 0.663 0.663-0.298 0.663-0.663" fill="#231f20"/></g><g transform="translate(4.0195)"><path d="m0 0c0 0.228-0.186 0.413-0.413 0.413-0.228 0-0.413-0.185-0.413-0.413s0.185-0.412 0.413-0.412c0.227 0 0.413 0.184 0.413 0.412m0.25 0c0-0.365-0.298-0.662-0.663-0.662s-0.663 0.297-0.663 0.662 0.298 0.663 0.663 0.663 0.663-0.298 0.663-0.663" fill="#231f20"/></g><g transform="translate(6.4209)"><path d="m0 0c0 0.228-0.186 0.413-0.413 0.413-0.228 0-0.413-0.185-0.413-0.413s0.185-0.412 0.413-0.412c0.227 0 0.413 0.184 0.413 0.412m0.25 0c0-0.365-0.298-0.662-0.663-0.662s-0.663 0.297-0.663 0.662 0.298 0.663 0.663 0.663 0.663-0.298 0.663-0.663" fill="#231f20"/></g><g transform="translate(8.8223)"><path d="m0 0c0 0.228-0.186 0.413-0.413 0.413-0.228 0-0.413-0.185-0.413-0.413s0.185-0.412 0.413-0.412c0.227 0 0.413 0.184 0.413 0.412m0.25 0c0-0.365-0.298-0.662-0.663-0.662s-0.663 0.297-0.663 0.662 0.298 0.663 0.663 0.663 0.663-0.298 0.663-0.663" fill="#231f20"/></g><g transform="translate(10.022 1.5479)"><path d="m0 0c0 0.228-0.186 0.413-0.413 0.413-0.228 0-0.413-0.185-0.413-0.413s0.185-0.412 0.413-0.412c0.227 0 0.413 0.184 0.413 0.412m0.25 0c0-0.365-0.298-0.662-0.663-0.662s-0.663 0.297-0.663 0.662 0.298 0.663 0.663 0.663 0.663-0.298 0.663-0.663" fill="#231f20"/></g><g transform="translate(7.6201,1.5479)"><path d="m0 0c0 0.228-0.186 0.413-0.413 0.413-0.228 0-0.413-0.185-0.413-0.413s0.185-0.412 0.413-0.412c0.227 0 0.413 0.184 0.413 0.412m0.25 0c0-0.365-0.298-0.662-0.663-0.662s-0.663 0.297-0.663 0.662 0.298 0.663 0.663 0.663 0.663-0.298 0.663-0.663" fill="#231f20"/></g><g transform="translate(5.2178,1.5479)"><path d="m0 0c0 0.228-0.186 0.413-0.413 0.413-0.228 0-0.413-0.185-0.413-0.413s0.185-0.412 0.413-0.412c0.227 0 0.413 0.184 0.413 0.412m0.25 0c0-0.365-0.298-0.662-0.663-0.662s-0.663 0.297-0.663 0.662 0.298 0.663 0.663 0.663 0.663-0.298 0.663-0.663" fill="#231f20"/></g><g transform="translate(2.8154,1.5479)"><path d="m0 0c0 0.228-0.186 0.413-0.413 0.413-0.228 0-0.413-0.185-0.413-0.413s0.185-0.412 0.413-0.412c0.227 0 0.413 0.184 0.413 0.412m0.25 0c0-0.365-0.298-0.662-0.663-0.662s-0.663 0.297-0.663 0.662 0.298 0.663 0.663 0.663 0.663-0.298 0.663-0.663" fill="#231f20"/></g><g transform="translate(.4131 1.5479)"><path d="m0 0c0 0.228-0.186 0.413-0.413 0.413-0.228 0-0.413-0.185-0.413-0.413s0.185-0.412 0.413-0.412c0.227 0 0.413 0.184 0.413 0.412m0.25 0c0-0.365-0.298-0.662-0.663-0.662s-0.663 0.297-0.663 0.662 0.298 0.663 0.663 0.663 0.663-0.298 0.663-0.663" fill="#231f20"/></g></g></pattern><clipPath id="f"><path d="m79.244 99.311h480.52v643.69h-480.52z"/></clipPath><clipPath id="e"><path d="m79.244 99.311h480.52v643.69h-480.52z"/></clipPath><clipPath><path d="m162.28 568.31h37.316v-37.316h-37.316z"/></clipPath><clipPath><path d="m162.28 608.2h37.316v-37.316h-37.316z"/></clipPath><clipPath><path d="m429.82 571.16h37.316v-37.316h-37.316z"/></clipPath><clipPath><path d="m429.82 257.89h37.316v-37.316h-37.316z"/></clipPath><clipPath><path d="m162.28 294.93h37.316v-37.316h-37.316z"/></clipPath><clipPath><path d="m162.28 255.04h37.316v-37.316h-37.316z"/></clipPath><clipPath><path d="m429.82 531.27h37.316v-37.316h-37.316z"/></clipPath><clipPath><path d="m436.68 495.71h23.6v-17.12h-23.6z"/></clipPath><clipPath><path d="m436.68 182.43h23.6v-17.12h-23.6z"/></clipPath><clipPath><path d="m436.68 586.54h23.6v-17.12h-23.6z"/></clipPath><clipPath><path d="m436.68 273.26h23.6v-17.12h-23.6z"/></clipPath><clipPath><path d="m169.14 219.47h23.6v-17.12h-23.6z"/></clipPath><clipPath><path d="m169.14 310.3h23.6v-17.12h-23.6z"/></clipPath><clipPath><path d="m169.14 532.75h23.6v-17.12h-23.6z"/></clipPath><clipPath><path d="m169.14 623.58h23.6v-17.12h-23.6z"/></clipPath><clipPath><path d="m429.82 217.99h37.316v-37.316h-37.316z"/></clipPath></defs><g transform="matrix(1.3333 0 0 -1.3333 -113.98 920.87)"><path d="m270.15 426.12h98.116v241.89h-98.116z" fill="#b2b1b1"/><path d="m270.15 109.95h98.116v244.89h-98.116z" fill="#b2b1b1"/><g clip-path="url(#v)"><g transform="translate(428.82 512.61)"><path d="m0 0c-32.174 0-51.553-5.375-51.761 20.677v0.614" fill="none" stroke="#110f0d" stroke-miterlimit="10" stroke-width=".75"/></g><g transform="translate(377.6 536.03)"><path d="m0 0c0.263-0.868 0.504-1.433 0.783-2.129h-2.648c0.118 0.249 0.521 1.261 0.783 2.129 0.28 0.929 0.473 1.771 0.541 2.317 0.068-0.546 0.261-1.388 0.541-2.317" fill="#110f0d"/></g><g transform="translate(372.82 538.35)"><path d="m0 0v1.761h1.839v1.245h4.796v-1.245h1.839v-1.761z" fill="#110f0d"/></g></g><text transform="matrix(1 0 0 -1 468.14 510.91)" fill="#231f20" font-family="Helvetica, Arial, sans-serif" font-size="9px"><tspan x="0 8.4960003 12.8376 17.8416 20.8386" y="0">W11-2</tspan><tspan x="-5.8590002 2.6370001 7.6409998 12.645 15.642 20.646 26.649" y="26.469">W16-7PL</tspan></text><g clip-path="url(#u)"><g transform="translate(428.61 552.33)"><path d="m0 0c-30.553 0-51.553 11.347-51.553-2.913v-0.614" fill="none" stroke="#110f0d" stroke-miterlimit="10" stroke-width=".75"/></g><g transform="translate(376.52 546.68)"><path d="m0 0c-0.263 0.868-0.504 1.433-0.783 2.129h2.648c-0.118-0.249-0.521-1.261-0.783-2.129-0.28-0.929-0.473-1.771-0.541-2.317-0.068 0.546-0.261 1.388-0.541 2.317" fill="#110f0d"/></g><g transform="translate(381.3 544.36)"><path d="m0 0v-1.761h-1.839v-1.245h-4.796v1.245h-1.839v1.761z" fill="#110f0d"/></g></g><text transform="matrix(1 0 0 -1 468.14 549.81)" fill="#231f20" font-family="Helvetica, Arial, sans-serif" font-size="9px"><tspan x="0 8.4960003 12.8376 17.8416 20.8386" y="0">W11-2</tspan><tspan x="-5.8590002 2.6370001 7.6409998 12.645 15.642 20.646 26.649" y="-26.469">W16-7PR</tspan></text><g clip-path="url(#t)"><g transform="translate(201.12 589.45)"><path d="m0 0c30.005 0 60.607 40.72 60.766 20.769v-0.614" fill="none" stroke="#110f0d" stroke-miterlimit="10" stroke-width=".75"/></g><g transform="translate(261.35 607.48)"><path d="m0 0c-0.263 0.868-0.504 1.433-0.783 2.129h2.648c-0.118-0.249-0.521-1.261-0.783-2.129-0.28-0.929-0.473-1.771-0.541-2.317-0.068 0.546-0.261 1.388-0.541 2.317" fill="#110f0d"/></g><g transform="translate(266.12 605.16)"><path d="m0 0v-1.761h-1.839v-1.245h-4.796v1.245h-1.839v1.761z" fill="#110f0d"/></g></g><text transform="matrix(1 0 0 -1 135.44 586.85)" fill="#231f20" font-family="Helvetica, Arial, sans-serif" font-size="9px"><tspan x="0 8.4960003 12.8376 17.8416 20.8386" y="0">W11-2</tspan><tspan x="-5.6609998 2.835 7.8390002 12.843 15.84 20.844 26.847" y="-26.469">W16-7PL</tspan></text><g clip-path="url(#s)"><g transform="translate(200.81 549.48)"><path d="m0 0c7.788 0 5.426 27.601 28.774 39.536 19.191 9.81 32.307-6.168 32.307 5.075v0.614" fill="none" stroke="#110f0d" stroke-miterlimit="10" stroke-width=".75"/></g><g transform="translate(262.43 596.83)"><path d="m0 0c0.263-0.868 0.504-1.433 0.783-2.129h-2.648c0.118 0.249 0.521 1.261 0.783 2.129 0.28 0.929 0.473 1.771 0.541 2.317 0.068-0.546 0.261-1.388 0.541-2.317" fill="#110f0d"/></g><g transform="translate(257.65 599.15)"><path d="m0 0v1.761h1.839v1.245h4.796v-1.245h1.839v-1.761z" fill="#110f0d"/></g></g><text transform="matrix(1 0 0 -1 135.44 547.95)" fill="#231f20" font-family="Helvetica, Arial, sans-serif" font-size="9px"><tspan x="0 8.4960003 12.8376 17.8416 20.8386" y="0">W11-2</tspan><tspan x="-7.1550002 1.341 6.3449998 11.349 14.346 19.35 25.353001" y="26.469">W16-7PR</tspan></text><g clip-path="url(#r)"><g transform="translate(428.82 199.34)"><path d="m0 0c-32.174 0-51.553-5.375-51.761 20.676v0.615" fill="none" stroke="#110f0d" stroke-miterlimit="10" stroke-width=".75"/></g><g transform="translate(377.6 222.75)"><path d="m0 0c0.263-0.868 0.504-1.433 0.783-2.129h-2.648c0.118 0.249 0.521 1.261 0.783 2.129 0.28 0.929 0.473 1.771 0.541 2.317 0.068-0.546 0.261-1.388 0.541-2.317" fill="#110f0d"/></g><g transform="translate(372.82 225.07)"><path d="m0 0v1.761h1.839v1.245h4.796v-1.245h1.839v-1.761z" fill="#110f0d"/></g></g><text transform="matrix(1 0 0 -1 468.14 197.64)" fill="#231f20" font-family="Helvetica, Arial, sans-serif" font-size="9px"><tspan x="0 8.4960003 12.8376 17.8416 20.8386" y="0">W11-2</tspan><tspan x="-5.8590002 2.6370001 7.6409998 12.645 15.642 20.646 26.649" y="26.469">W16-7PL</tspan></text><g clip-path="url(#q)"><g transform="translate(428.61 239.06)"><path d="m0 0c-12.288 0-51.553 11.347-51.553-2.913v-0.614" fill="none" stroke="#110f0d" stroke-miterlimit="10" stroke-width=".75"/></g><g transform="translate(376.52 233.4)"><path d="m0 0c-0.263 0.868-0.504 1.433-0.783 2.129h2.648c-0.118-0.249-0.521-1.261-0.783-2.129-0.28-0.929-0.473-1.771-0.541-2.317-0.068 0.546-0.261 1.388-0.541 2.317" fill="#110f0d"/></g><g transform="translate(381.3 231.08)"><path d="m0 0v-1.761h-1.839v-1.245h-4.796v1.245h-1.839v1.761z" fill="#110f0d"/></g></g><text transform="matrix(1 0 0 -1 468.14 236.53)" fill="#231f20" font-family="Helvetica, Arial, sans-serif" font-size="9px"><tspan x="0 8.4960003 12.8376 17.8416 20.8386" y="0">W11-2</tspan><tspan x="-5.8590002 2.6370001 7.6409998 12.645 15.642 20.646 26.649" y="-26.469">W16-7PR</tspan></text><g clip-path="url(#p)"><g transform="translate(201.12 276.18)"><path d="m0 0c30.005 0 60.607 40.72 60.766 20.769v-0.614" fill="none" stroke="#110f0d" stroke-miterlimit="10" stroke-width=".75"/></g><g transform="translate(261.35 294.2)"><path d="m0 0c-0.263 0.868-0.504 1.433-0.783 2.129h2.648c-0.118-0.249-0.521-1.261-0.783-2.129-0.28-0.929-0.473-1.771-0.541-2.317-0.068 0.546-0.261 1.388-0.541 2.317" fill="#110f0d"/></g><g transform="translate(266.12 291.89)"><path d="m0 0v-1.761h-1.839v-1.245h-4.796v1.245h-1.839v1.761z" fill="#110f0d"/></g></g><text transform="matrix(1 0 0 -1 135.44 273.57)" fill="#231f20" font-family="Helvetica, Arial, sans-serif" font-size="9px"><tspan x="0 8.4960003 12.8376 17.8416 20.8386" y="0">W11-2</tspan><tspan x="-5.6609998 2.835 7.8390002 12.843 15.84 20.844 26.847" y="-26.469">W16-7PL</tspan></text><g clip-path="url(#o)"><g transform="translate(200.81 236.2)"><path d="m0 0c7.788 0 2.426 23.601 25.774 35.536 19.191 9.81 35.307-2.168 35.307 9.075v0.614" fill="none" stroke="#110f0d" stroke-miterlimit="10" stroke-width=".75"/></g><g transform="translate(262.43 283.56)"><path d="m0 0c0.263-0.868 0.504-1.433 0.783-2.129h-2.648c0.118 0.249 0.521 1.261 0.783 2.129 0.28 0.929 0.473 1.771 0.541 2.317 0.068-0.546 0.261-1.388 0.541-2.317" fill="#110f0d"/></g><g transform="translate(257.65 285.87)"><path d="m0 0v1.761h1.839v1.245h4.796v-1.245h1.839v-1.761z" fill="#110f0d"/></g></g><text transform="matrix(1 0 0 -1 135.44 234.67)" fill="#231f20" font-family="Helvetica, Arial, sans-serif" font-size="9px"><tspan x="0 8.4960003 12.8376 17.8416 20.8386" y="0">W11-2</tspan><tspan x="-7.1550002 1.341 6.3449998 11.349 14.346 19.35 25.353001" y="26.469">W16-7PR</tspan></text><text transform="matrix(1 0 0 -1 242.94 684.13)" fill="#231f20" font-family="Helvetica, Arial, sans-serif" font-size="9px" font-weight="bold"><tspan x="0 6.1704001 8.6724005 13.6764 16.1784 21.0105 26.509501 32.008499 37.5075 40.005001 45.008999 48.509998 51.012001 59.013 64.016998 67.517998 72.522003 77.533203 81.034203 86.0382 88.540199 93.544197 99.043198 104.5422 110.0412 112.5432 117.5472 125.5482 130.5522 136.05119 139.0482 141.5502 147.04919" y="0">A – Tubular markers supplementing</tspan><tspan x="32.507999 37.512001 42.515999 48.014999 51.012001 56.015999 59.516998 62.019001 64.521004 67.023003 72.522003 77.526001 80.028 88.028999 93.032997 96.533997 101.538 104.04 109.539 115.038" y="9.9989996">center line markings</tspan></text><g transform="translate(402.39 565.16)"><path d="m0 0v21.436h-30.032v-21.436" fill="#d9d8d8"/></g><g transform="translate(402.39 586.59)"><path d="m0 0h-30.032" fill="none" stroke="#231f20" stroke-miterlimit="10" stroke-width=".5"/></g><g transform="translate(402.39 565.16)"><path d="m0 0h-30.032" fill="none" stroke="#231f20" stroke-miterlimit="10" stroke-width=".5"/></g><g transform="translate(236.02 565.16)"><path d="m0 0v21.436h30.032v-21.436" fill="#d9d8d8"/></g><g transform="translate(364.27 668.01)"><path d="m0 0v-241.89" fill="none" stroke="#b2b1b1" stroke-miterlimit="10" stroke-width="8"/></g><g transform="translate(330.35 668.01)"><path d="m0 0v-241.89" fill="none" stroke="#b2b1b1" stroke-miterlimit="10" stroke-width="17.279"/></g><g transform="translate(359.27 562.15)"><path d="m0 0v-136.04" fill="none" stroke="#fff" stroke-miterlimit="10" stroke-width="2"/></g><g transform="translate(359.27 668.01)"><path d="m0 0v-78.153" fill="none" stroke="#fff" stroke-miterlimit="10" stroke-width="2"/></g><g transform="translate(368.27 668.01)"><path d="m0 0v-241.89" fill="none" stroke="#231f20" stroke-miterlimit="10"/></g><g transform="translate(349.63 668.01)"><path d="m0 0v-241.89" fill="none" stroke="#b2b1b1" stroke-miterlimit="10" stroke-width="17.279"/></g><g transform="translate(298.43 562.15)" fill="none" stroke-width="2"><path d="m0 0v-136.04" stroke="#b2b1b1"/><path d="m0 0v-136.04" stroke="#fff" stroke-dasharray="14.4, 43.2"/></g><g transform="translate(339.99 589.85)" fill="none" stroke-width="2"><path d="m0 0v78.153" stroke="#b2b1b1"/><path d="m0 0v78.153" stroke="#fff" stroke-dasharray="14.4, 43.2"/></g><g transform="translate(274.15 668.01)"><path d="m0 0v-241.89" fill="none" stroke="#b2b1b1" stroke-miterlimit="10" stroke-width="8"/></g><g transform="translate(288.79 668.01)"><path d="m0 0v-241.89" fill="none" stroke="#b2b1b1" stroke-miterlimit="10" stroke-width="17.279"/></g><g transform="translate(279.15 562.15)"><path d="m0 0v-136.04" fill="none" stroke="#fff" stroke-miterlimit="10" stroke-width="2"/></g><g transform="translate(279.15 668.01)"><path d="m0 0v-78.153" fill="none" stroke="#fff" stroke-miterlimit="10" stroke-width="2"/></g><g transform="translate(308.06 668.01)"><path d="m0 0v-241.89" fill="none" stroke="#b2b1b1" stroke-miterlimit="10" stroke-width="17.279"/></g><g transform="translate(339.99 562.15)"><path d="m0 0v-72.644" fill="none" stroke="#fff" stroke-miterlimit="10" stroke-width="2"/></g><g transform="translate(298.43 668.01)"><path d="m0 0v-78.153" fill="none" stroke="#fff" stroke-miterlimit="10" stroke-width="2"/></g><g transform="translate(270.15 668.01)"><path d="m0 0v-241.89" fill="none" stroke="#231f20" stroke-miterlimit="10"/></g><g transform="translate(289.63 664.79)"><path d="m0 0v-6.354h1.559l-2.577-4.377-2.398 4.377h1.439v6.354z" fill="#231f20"/></g><g transform="translate(308.9 664.79)"><path d="m0 0v-6.354h1.559l-2.577-4.377-2.398 4.377h1.439v6.354z" fill="#231f20"/></g><g transform="translate(350.65 429.43)"><path d="m0 0v6.353h1.559l-2.577 4.377-2.398-4.377h1.439v-6.353z" fill="#231f20"/></g><g transform="translate(331.37 429.43)"><path d="m0 0v6.353h1.559l-2.577 4.377-2.398-4.377h1.439v-6.353z" fill="#231f20"/></g><g transform="translate(319.21 562.15)" fill="none" stroke-miterlimit="10"><path d="m0 0v-136.04" stroke="#fccc2d" stroke-width="5"/><path d="m0 0v-136.04" stroke="#b2b1b1"/></g><g transform="translate(319.21 668.01)" fill="none" stroke-miterlimit="10"><path d="m0 0v-78.153" stroke="#fccc2d" stroke-width="5"/><path d="m0 0v-78.153" stroke="#b2b1b1"/></g><g transform="translate(339.99 432.12)" fill="none" stroke-width="2"><path d="m0 0v16.956" stroke="#b2b1b1"/><path d="m0 0v16.956" stroke="#fff" stroke-dasharray="14.4, 43.2"/></g><g transform="translate(236.02 586.59)"><path d="m0 0h30.032" fill="none" stroke="#231f20" stroke-miterlimit="10" stroke-width=".5"/></g><g transform="translate(236.02 565.16)"><path d="m0 0h30.032" fill="none" stroke="#231f20" stroke-miterlimit="10" stroke-width=".5"/></g><g transform="translate(276.15 565.16)"><path d="m0 0v21.436" fill="none" stroke="#fff" stroke-miterlimit="10" stroke-width="4"/></g><g transform="translate(283.96 565.16)"><path d="m0 0v21.436" fill="none" stroke="#fff" stroke-miterlimit="10" stroke-width="4"/></g><g transform="translate(291.76 565.16)"><path d="m0 0v21.436" fill="none" stroke="#fff" stroke-miterlimit="10" stroke-width="4"/></g><g transform="translate(299.57 565.16)"><path d="m0 0v21.436" fill="none" stroke="#fff" stroke-miterlimit="10" stroke-width="4"/></g><g transform="translate(307.37 565.16)"><path d="m0 0v21.436" fill="none" stroke="#fff" stroke-miterlimit="10" stroke-width="4"/></g><g transform="translate(315.18 565.16)"><path d="m0 0v21.436" fill="none" stroke="#fff" stroke-miterlimit="10" stroke-width="4"/></g><g transform="translate(322.99 565.16)"><path d="m0 0v21.436" fill="none" stroke="#fff" stroke-miterlimit="10" stroke-width="4"/></g><g transform="translate(330.79 565.16)"><path d="m0 0v21.436" fill="none" stroke="#fff" stroke-miterlimit="10" stroke-width="4"/></g><g transform="translate(338.6 565.16)"><path d="m0 0v21.436" fill="none" stroke="#fff" stroke-miterlimit="10" stroke-width="4"/></g><g transform="translate(346.4 565.16)"><path d="m0 0v21.436" fill="none" stroke="#fff" stroke-miterlimit="10" stroke-width="4"/></g><g transform="translate(354.21 565.16)"><path d="m0 0v21.436" fill="none" stroke="#fff" stroke-miterlimit="10" stroke-width="4"/></g><g transform="translate(362.02 565.16)"><path d="m0 0v21.436" fill="none" stroke="#fff" stroke-miterlimit="10" stroke-width="4"/></g><g transform="translate(372.36 565.16)"><path d="m0 0v21.436l-4.096 1e-3v-21.436z" fill="#fccc2d"/><path d="m0 0v21.436l-4.096 1e-3v-21.436z" fill="url(#d)"/><path d="m0 0v21.436l-4.096 1e-3v-21.436z" fill="none" stroke="#231f20" stroke-linecap="round" stroke-linejoin="round" stroke-width=".5"/><path d="m0 0-4.346 1e-3v-3.008z" fill="#d9d8d8"/><path d="m0 0-4.346 1e-3v-3.008z" fill="none" stroke="#231f20" stroke-linecap="round" stroke-linejoin="round" stroke-width=".5"/></g><g transform="translate(368.02 589.85)"><path d="m0 0 4.346-3.26h-4.346z" fill="#d9d8d8"/><path d="M 0,0 4.346,-3.26 H 0 V 0" fill="none" stroke="#231f20" stroke-linecap="round" stroke-linejoin="round" stroke-width=".5"/></g><g transform="translate(266.05 565.16)"><path d="m0 0v21.436l4.096 1e-3v-21.436z" fill="#fccc2d"/><path d="m0 0v21.436l4.096 1e-3v-21.436z" fill="url(#c)"/><path d="m0 0v21.436l4.096 1e-3v-21.436z" fill="none" stroke="#231f20" stroke-linecap="round" stroke-linejoin="round" stroke-width=".5"/><path d="m0 0 4.346 1e-3v-3.008z" fill="#d9d8d8"/><path d="m0 0 4.346 1e-3v-3.008z" fill="none" stroke="#231f20" stroke-linecap="round" stroke-linejoin="round" stroke-width=".5"/></g><g transform="translate(270.4 589.85)"><path d="m0 0-4.346-3.26h4.346z" fill="#d9d8d8"/><path d="m0 0-4.346-3.26h4.346v3.26" fill="none" stroke="#231f20" stroke-linecap="round" stroke-linejoin="round" stroke-width=".5"/></g><g transform="translate(319.21 565.16)" fill="none" stroke-miterlimit="10"><path d="m0 0v21.436" stroke="#b2b1b1"/><path d="m0 0v0" stroke="#231f20" stroke-linecap="round" stroke-width="3"/></g><g transform="translate(319.21 586.59)"><path d="m0 0v0" fill="none" stroke="#231f20" stroke-linecap="round" stroke-miterlimit="10" stroke-width="3"/></g><g transform="translate(319.21 565.16)"><path d="m0 0v0" fill="none" stroke="#b2b1b1" stroke-linecap="round" stroke-miterlimit="10"/></g><g transform="translate(319.21 586.59)"><path d="m0 0v0" fill="none" stroke="#b2b1b1" stroke-linecap="round" stroke-miterlimit="10"/></g><g transform="translate(515.09 589.09)"><path d="m0 0v78.92l-3.111-21.215 0.282-3.677 2.263 1.98" fill="#231f20" stroke="#231f20"/></g><g transform="translate(518.2 636.63)"><path d="m0 0h2.665v-22.176h-3.09l-10.348 17.914h-0.056v-17.914h-2.665v22.176h3.259l10.177-17.913h0.058z" fill="#231f20"/></g><g transform="translate(85.482 118.55)"><path d="m0 0h6.354v1.559l4.376-2.577-4.376-2.398v1.439h-6.354z" fill="#231f20"/></g><g transform="translate(108.47 126.74)"><path d="m0 0h29.291" fill="none" stroke="#231f20" stroke-width=".75"/></g><text transform="matrix(1 0 0 -1 108.07 129.63)" fill="#231f20" font-family="Helvetica, Arial, sans-serif" font-size="9px"><tspan x="0 5.0040002 10.008 15.012 20.016001 25.02" y="0">Legend</tspan><tspan x="-7.4790001 -0.98100001 1.017 4.0139999 9.0179996 13.518 16.02 18.018 23.021999 28.025999 30.528 35.532001 38.034 40.535999 43.037998 46.035 51.039001 55.539001 60.542999" y="15.354">Direction of travel</tspan><tspan x="107.559 112.7268 117.7308 122.7348 127.7388 129.7368 134.7408" y="-392.832">Tubular</tspan><tspan x="107.559 115.056 120.06 123.057 127.557 132.561 135.558" y="-382.83301">markers</tspan><tspan x="270.909 276.07681 281.08081 286.08481 291.08881 293.08679 298.09079" y="-38.637001">Tubular</tspan><tspan x="270.909 278.40601 283.41 286.40701 290.90701 295.91101 298.90799" y="-28.638">markers</tspan><tspan x="121.626 126.7938 131.79781 136.8018 141.8058 143.8038 148.8078" y="-81.153">Tubular</tspan><tspan x="121.626 129.123 134.127 137.12399 141.62399 146.62801 149.625" y="-71.153999">markers</tspan><tspan x="117.072 122.2398 127.2438 132.2478 137.2518 139.2498 144.2538" y="-212.319">Tubular</tspan><tspan x="117.072 124.569 129.573 132.57001 137.07001 142.07401 145.071" y="-202.32001">markers</tspan></text><text transform="matrix(1 0 0 -1 242.76 370.96)" fill="#231f20" font-family="Helvetica, Arial, sans-serif" font-size="9px" font-weight="bold"><tspan x="0 6.4980001 9 14.004 16.506001 21.339899 26.8389 32.337898 37.836899 40.3344 45.338402 48.839401 51.3414 59.3424 64.346397 67.847397 72.851402 77.862602 81.363602 86.367599 88.869598 93.873596 99.372597 104.8716 110.3706 112.8726 117.8766 125.8776 130.88161 136.3806 139.37759 141.87959 147.3786" y="0">B – Tubular markers supplementing</tspan><tspan x="4.158 9.1619997 14.166 19.665001 22.662001 27.666 31.167 33.668999 36.171001 38.673 44.1675 49.171501 51.6735 56.677502 62.176498 67.675499 70.177498 72.679497 77.683502 83.182503 88.186501 90.688499 93.190498 95.692497 101.1852 106.1892 108.6912 116.6922 121.6962 125.1972 130.2012 132.7032 138.20219 143.7012" y="9.9989996">center line and lane line markings</tspan></text><g transform="translate(406.39 248.99)"><path d="m0 0v21.436h-34.032v-21.436" fill="#d9d8d8"/></g><g transform="translate(406.39 270.43)"><path d="m0 0h-34.032" fill="none" stroke="#231f20" stroke-miterlimit="10" stroke-width=".5"/></g><g transform="translate(406.39 248.99)"><path d="m0 0h-34.032" fill="none" stroke="#231f20" stroke-miterlimit="10" stroke-width=".5"/></g><g transform="translate(232.02 248.99)"><path d="m0 0v21.436h34.032v-21.436" fill="#d9d8d8"/></g><g clip-path="url(#l)"><g transform="translate(364.27 354.84)"><path d="m0 0v-244.89" fill="none" stroke="#b2b1b1" stroke-miterlimit="10" stroke-width="8"/></g><g transform="translate(330.35 354.84)"><path d="m0 0v-244.89" fill="none" stroke="#b2b1b1" stroke-miterlimit="10" stroke-width="17.279"/></g></g><g transform="translate(359.27 245.99)"><path d="m0 0v-136.04" fill="none" stroke="#fff" stroke-miterlimit="10" stroke-width="2"/></g><g transform="translate(359.27 354.84)"><path d="m0 0v-81.153" fill="none" stroke="#fff" stroke-miterlimit="10" stroke-width="2"/></g><g transform="translate(368.27 354.84)"><path d="m0 0v-244.89" fill="none" stroke="#231f20" stroke-miterlimit="10"/></g><g clip-path="url(#k)"><g transform="translate(349.63 354.84)"><path d="m0 0v-244.89" fill="none" stroke="#b2b1b1" stroke-miterlimit="10" stroke-width="17.279"/></g></g><g transform="translate(298.43 245.99)" fill="none" stroke-width="2"><path d="m0 0v-136.04" stroke="#b2b1b1"/><path d="m0 0v-136.04" stroke="#fff" stroke-dasharray="14.4, 43.2"/></g><g transform="translate(339.99 273.69)" fill="none" stroke-width="2"><path d="m0 0v81.153" stroke="#b2b1b1"/><path d="m0 0v81.153" stroke="#fff" stroke-dasharray="14.4, 43.2"/></g><g clip-path="url(#j)"><g transform="translate(274.15 354.84)"><path d="m0 0v-244.89" fill="none" stroke="#b2b1b1" stroke-miterlimit="10" stroke-width="8"/></g><g transform="translate(288.79 354.84)"><path d="m0 0v-244.89" fill="none" stroke="#b2b1b1" stroke-miterlimit="10" stroke-width="17.279"/></g></g><g transform="translate(279.15 245.99)"><path d="m0 0v-136.04" fill="none" stroke="#fff" stroke-miterlimit="10" stroke-width="2"/></g><g transform="translate(279.15 354.84)"><path d="m0 0v-81.153" fill="none" stroke="#fff" stroke-miterlimit="10" stroke-width="2"/></g><g clip-path="url(#i)"><g transform="translate(308.06 354.84)"><path d="m0 0v-244.89" fill="none" stroke="#b2b1b1" stroke-miterlimit="10" stroke-width="17.279"/></g></g><g transform="translate(339.99 245.99)"><path d="m0 0v-72.644" fill="none" stroke="#fff" stroke-miterlimit="10" stroke-width="2"/></g><g transform="translate(298.43 351.84)"><path d="m0 0v-76.153" fill="none" stroke="#fff" stroke-miterlimit="10" stroke-width="2"/></g><g transform="translate(270.15 354.84)"><path d="m0 0v-244.89" fill="none" stroke="#231f20" stroke-miterlimit="10"/></g><g transform="translate(289.63 346.4)"><path d="m0 0v-6.353h1.559l-2.577-4.377-2.398 4.377h1.439v6.353z" fill="#231f20"/></g><g transform="translate(308.9 346.4)"><path d="m0 0v-6.353h1.559l-2.577-4.377-2.398 4.377h1.439v6.353z" fill="#231f20"/></g><g transform="translate(350.65 113.27)"><path d="m0 0v6.354h1.559l-2.577 4.376-2.398-4.376h1.439v-6.354z" fill="#231f20"/></g><g transform="translate(331.37 113.27)"><path d="m0 0v6.354h1.559l-2.577 4.376-2.398-4.376h1.439v-6.354z" fill="#231f20"/></g><g transform="translate(319.21 245.99)" fill="none" stroke-miterlimit="10"><path d="m0 0v-136.04" stroke="#fccc2d" stroke-width="5"/><path d="m0 0v-136.04" stroke="#b2b1b1"/></g><g transform="translate(319.21 354.84)" fill="none" stroke-miterlimit="10"><path d="m0 0v-81.153" stroke="#fccc2d" stroke-width="5"/><path d="m0 0v-81.153" stroke="#b2b1b1"/></g><g transform="translate(339.99 115.95)" fill="none" stroke-width="2"><path d="m0 0v16.956" stroke="#b2b1b1"/><path d="m0 0v16.956" stroke="#fff" stroke-dasharray="14.4, 43.2"/></g><g transform="translate(232.02 270.43)"><path d="m0 0h34.032" fill="none" stroke="#231f20" stroke-miterlimit="10" stroke-width=".5"/></g><g transform="translate(232.02 248.99)"><path d="m0 0h34.032" fill="none" stroke="#231f20" stroke-miterlimit="10" stroke-width=".5"/></g><g transform="translate(276.15 248.99)"><path d="m0 0v21.436" fill="none" stroke="#fff" stroke-miterlimit="10" stroke-width="4"/></g><g transform="translate(283.96 248.99)"><path d="m0 0v21.436" fill="none" stroke="#fff" stroke-miterlimit="10" stroke-width="4"/></g><g transform="translate(291.76 248.99)"><path d="m0 0v21.436" fill="none" stroke="#fff" stroke-miterlimit="10" stroke-width="4"/></g><g transform="translate(299.57 248.99)"><path d="m0 0v21.436" fill="none" stroke="#fff" stroke-miterlimit="10" stroke-width="4"/></g><g transform="translate(307.37 248.99)"><path d="m0 0v21.436" fill="none" stroke="#fff" stroke-miterlimit="10" stroke-width="4"/></g><g transform="translate(315.18 248.99)"><path d="m0 0v21.436" fill="none" stroke="#fff" stroke-miterlimit="10" stroke-width="4"/></g><g transform="translate(322.99 248.99)"><path d="m0 0v21.436" fill="none" stroke="#fff" stroke-miterlimit="10" stroke-width="4"/></g><g transform="translate(330.79 248.99)"><path d="m0 0v21.436" fill="none" stroke="#fff" stroke-miterlimit="10" stroke-width="4"/></g><g transform="translate(338.6 248.99)"><path d="m0 0v21.436" fill="none" stroke="#fff" stroke-miterlimit="10" stroke-width="4"/></g><g transform="translate(346.4 248.99)"><path d="m0 0v21.436" fill="none" stroke="#fff" stroke-miterlimit="10" stroke-width="4"/></g><g transform="translate(354.21 248.99)"><path d="m0 0v21.436" fill="none" stroke="#fff" stroke-miterlimit="10" stroke-width="4"/></g><g transform="translate(362.02 248.99)"><path d="m0 0v21.436" fill="none" stroke="#fff" stroke-miterlimit="10" stroke-width="4"/></g><g transform="translate(372.36 248.99)"><path d="m0 0v21.436l-4.096 1e-3v-21.436z" fill="#fccc2d"/><path d="m0 0v21.436l-4.096 1e-3v-21.436z" fill="url(#b)"/><path d="m0 0v21.436l-4.096 1e-3v-21.436z" fill="none" stroke="#231f20" stroke-linecap="round" stroke-linejoin="round" stroke-width=".5"/><path d="m0 0-4.346 1e-3v-3.008z" fill="#d9d8d8"/><path d="m0 0-4.346 1e-3v-3.008z" fill="none" stroke="#231f20" stroke-linecap="round" stroke-linejoin="round" stroke-width=".5"/></g><g transform="translate(368.02 273.69)"><path d="m0 0 4.346-3.26h-4.346z" fill="#d9d8d8"/><path d="M 0,0 4.346,-3.26 H 0 V 0" fill="none" stroke="#231f20" stroke-linecap="round" stroke-linejoin="round" stroke-width=".5"/></g><g transform="translate(266.05 248.99)"><path d="m0 0v21.436l4.096 1e-3v-21.436z" fill="#fccc2d"/><path d="m0 0v21.436l4.096 1e-3v-21.436z" fill="url(#a)"/><path d="m0 0v21.436l4.096 1e-3v-21.436z" fill="none" stroke="#231f20" stroke-linecap="round" stroke-linejoin="round" stroke-width=".5"/><path d="m0 0 4.346 1e-3v-3.008z" fill="#d9d8d8"/><path d="m0 0 4.346 1e-3v-3.008z" fill="none" stroke="#231f20" stroke-linecap="round" stroke-linejoin="round" stroke-width=".5"/></g><g transform="translate(270.4 273.69)"><path d="m0 0-4.346-3.26h4.346z" fill="#d9d8d8"/><path d="m0 0-4.346-3.26h4.346v3.26" fill="none" stroke="#231f20" stroke-linecap="round" stroke-linejoin="round" stroke-width=".5"/></g><g transform="translate(319.21 248.99)" fill="none" stroke-miterlimit="10"><path d="m0 0v21.436" stroke="#b2b1b1"/><path d="m0 0v0" stroke="#231f20" stroke-linecap="round" stroke-width="3"/></g><g transform="translate(319.21 270.43)"><path d="m0 0v0" fill="none" stroke="#231f20" stroke-linecap="round" stroke-miterlimit="10" stroke-width="3"/></g><g transform="translate(319.21 248.99)"><path d="m0 0v0" fill="none" stroke="#b2b1b1" stroke-linecap="round" stroke-miterlimit="10"/></g><g transform="translate(319.21 270.43)"><path d="m0 0v0" fill="none" stroke="#b2b1b1" stroke-linecap="round" stroke-miterlimit="10"/></g><g transform="translate(298.43 274.22)"><path d="m0 0v0" fill="none" stroke="#231f20" stroke-linecap="round" stroke-miterlimit="10" stroke-width="3"/></g><g transform="translate(298.43 352.84)"><path d="m0 0v0" fill="none" stroke="#231f20" stroke-linecap="round" stroke-miterlimit="10" stroke-width="3"/></g><g transform="translate(298.43 274.22)"><path d="m0 0v0" fill="none" stroke="#b2b1b1" stroke-linecap="round" stroke-miterlimit="10"/></g><g transform="translate(298.43 352.84)"><path d="m0 0v0" fill="none" stroke="#b2b1b1" stroke-linecap="round" stroke-miterlimit="10"/></g><g transform="translate(339.99 174.36)"><path d="m0 0v0" fill="none" stroke="#231f20" stroke-linecap="round" stroke-miterlimit="10" stroke-width="3"/></g><g transform="translate(339.99 244.99)"><path d="m0 0v0" fill="none" stroke="#231f20" stroke-linecap="round" stroke-miterlimit="10" stroke-width="3"/></g><g transform="translate(339.99 174.36)"><path d="m0 0v0" fill="none" stroke="#b2b1b1" stroke-linecap="round" stroke-miterlimit="10"/></g><g transform="translate(339.99 244.99)"><path d="m0 0v0" fill="none" stroke="#b2b1b1" stroke-linecap="round" stroke-miterlimit="10"/></g><g transform="translate(313.94 562.42)"><path d="m0 0-65.524-36.798 66.101 57.349" fill="none" stroke="#231f20" stroke-width=".75"/></g><g clip-path="url(#f)"><g transform="translate(315.53 563.94)"><path d="m0 0c-0.886-0.196-1.496-0.262-2.24-0.36l1.297-2.309c0.159 0.225 0.844 1.072 1.473 1.726 0.672 0.699 1.313 1.279 1.755 1.606-0.509-0.208-1.338-0.453-2.285-0.663" fill="#231f20"/></g><g transform="translate(316.48 583.96)"><path d="m0 0c-0.484-0.767-0.752-1.319-1.095-1.987l-1.735 2.001c0.265 0.074 1.294 0.432 2.121 0.803 0.885 0.397 1.648 0.804 2.105 1.11-0.368-0.409-0.878-1.107-1.396-1.927" fill="#231f20"/></g><g transform="translate(314.04 246.08)"><path d="m0 0-52.538-32.839 53.226 53.336" fill="none" stroke="#231f20" stroke-width=".75"/></g><g transform="translate(315.56 247.66)"><path d="m0 0c-0.875-0.237-1.482-0.332-2.22-0.464l1.403-2.246c0.149 0.232 0.793 1.11 1.39 1.792 0.639 0.73 1.252 1.34 1.679 1.687-0.499-0.231-1.316-0.514-2.252-0.769" fill="#231f20"/></g><g transform="translate(316.62 267.7)"><path d="m0 0c-0.427-0.8-0.655-1.37-0.949-2.06l-1.875 1.871c0.26 0.092 1.26 0.524 2.058 0.953 0.855 0.46 1.586 0.92 2.02 1.258-0.337-0.434-0.796-1.167-1.254-2.022" fill="#231f20"/></g><g transform="translate(345.86 173.86)"><path d="m0 0 31.197-3.999-34.479 69.905" fill="none" stroke="#231f20" stroke-miterlimit="1" stroke-width=".75"/></g><g transform="translate(343.68 173.59)"><path d="m0 0c0.828-0.371 1.357-0.682 2.012-1.048l0.337 2.627c-0.262-0.085-1.317-0.357-2.211-0.506-0.957-0.16-1.818-0.243-2.368-0.242 0.533-0.137 1.344-0.435 2.23-0.831" fill="#231f20"/></g><g transform="translate(342.13 241.91)"><path d="m0 0c0.62-0.662 1.086-1.062 1.644-1.563l-2.375-1.171c-4e-3 0.275-0.09 1.361-0.239 2.255-0.16 0.957-0.36 1.798-0.54 2.318 0.303-0.459 0.848-1.13 1.51-1.839" fill="#231f20"/></g><g transform="translate(292.62 351.59)"><path d="m0 0-35.193-7.027 37.999-65.149" fill="none" stroke="#231f20" stroke-miterlimit="1" stroke-width=".75"/></g><g transform="translate(294.6 352.53)"><path d="m0 0c-0.903 0.088-1.504 0.214-2.241 0.351l0.519-2.597c0.221 0.165 1.134 0.758 1.934 1.185 0.856 0.457 1.644 0.81 2.166 0.984-0.548-0.04-1.412-0.016-2.378 0.077" fill="#231f20"/></g><g transform="translate(296.03 277.3)"><path d="m0 0c-0.664 0.618-1.157 0.984-1.749 1.444l2.288 1.335c0.023-0.275 0.184-1.352 0.396-2.234 0.225-0.943 0.484-1.768 0.7-2.274-0.334 0.437-0.925 1.068-1.635 1.729" fill="#231f20"/></g><g transform="translate(180.94 531.87)"><path d="m0 0c-0.466 0-0.905 0.182-1.234 0.511l-16.038 16.038c-0.33 0.33-0.511 0.768-0.511 1.234s0.181 0.904 0.511 1.234l16.038 16.038c0.329 0.33 0.768 0.511 1.234 0.511s0.904-0.181 1.234-0.511l16.037-16.038c0.681-0.68 0.681-1.788 0-2.468l-16.037-16.038c-0.33-0.329-0.768-0.511-1.234-0.511" fill="#fccc2d"/></g><g transform="translate(180.94 567.56)"><path d="m0 0c-0.5 0-0.969-0.195-1.322-0.548l-16.038-16.038c-0.353-0.353-0.548-0.823-0.548-1.322 0-0.5 0.195-0.969 0.548-1.322l16.038-16.038c0.353-0.353 0.822-0.548 1.322-0.548s0.969 0.195 1.322 0.548l16.038 16.038c0.729 0.729 0.729 1.915 0 2.644l-16.038 16.038c-0.353 0.353-0.822 0.548-1.322 0.548m0-0.25c0.415 0 0.829-0.158 1.146-0.474l16.037-16.038c0.633-0.633 0.633-1.659 0-2.292l-16.037-16.037c-0.317-0.317-0.731-0.475-1.146-0.475s-0.829 0.158-1.146 0.475l-16.037 16.037c-0.633 0.633-0.633 1.659 0 2.292l16.037 16.038c0.317 0.316 0.731 0.474 1.146 0.474" fill="#231f20"/></g><g transform="translate(164.06 548.81)"><path d="m0 0c-0.463 0.463-0.463 1.217 0 1.68l16.038 16.038c0.463 0.463 1.217 0.463 1.68 0l16.038-16.038c0.463-0.463 0.463-1.217 0-1.68l-16.038-16.038c-0.463-0.463-1.217-0.463-1.68 0z" fill="#231f20"/></g><g transform="translate(164.52 549.27)"><path d="m0 0c-0.211 0.211-0.211 0.553 0 0.764l16.038 16.038c0.21 0.21 0.553 0.21 0.764 0l16.038-16.038c0.21-0.211 0.21-0.553 0-0.764l-16.038-16.038c-0.211-0.21-0.554-0.21-0.764 0z" fill="#fccc2d"/></g><g transform="translate(179.22 561.32)"><path d="m0 0c0.905 0 1.644-0.738 1.644-1.644 0-0.905-0.739-1.644-1.644-1.644s-1.644 0.739-1.644 1.644c0 0.906 0.739 1.644 1.644 1.644" fill="#231f20"/></g><g transform="translate(174.25 550.95)"><path d="m0 0 3.448 2.299c0.16 0.674 0.821 3.665 2.147 4.357 1.314 0.868 6.158-2.7 6.185-2.729v-5.205l-1.05 0.182-0.411 4.155c-0.395 0.08-0.791 0.159-1.187 0.239 0.865-2.236 1.182-4.39 0.685-5.809l2.1-8.585-1.415-1.004-3.059 7.945-1.416-1.507-1.963-5.981-1.872 0.685 1.689 6.301 1.964 3.516-0.753 2.594-0.8-1.042-3.744-1.233z" fill="#231f20"/></g><g transform="translate(180.94 571.76)"><path d="m0 0c-0.466 0-0.905 0.182-1.234 0.511l-16.038 16.038c-0.33 0.33-0.511 0.768-0.511 1.234s0.181 0.904 0.511 1.234l16.038 16.038c0.329 0.33 0.768 0.511 1.234 0.511s0.904-0.181 1.234-0.511l16.037-16.038c0.33-0.33 0.512-0.768 0.512-1.234s-0.182-0.904-0.512-1.234l-16.037-16.038c-0.33-0.329-0.768-0.511-1.234-0.511" fill="#fccc2d"/></g><g transform="translate(180.94 607.45)"><path d="m0 0c-0.5 0-0.969-0.195-1.322-0.548l-16.038-16.038c-0.353-0.353-0.548-0.823-0.548-1.322 0-0.5 0.195-0.969 0.548-1.322l16.038-16.038c0.353-0.353 0.822-0.548 1.322-0.548s0.969 0.195 1.322 0.548l16.038 16.038c0.729 0.729 0.729 1.915 0 2.644l-16.038 16.038c-0.353 0.353-0.822 0.548-1.322 0.548m0-0.25c0.415 0 0.829-0.158 1.146-0.475l16.037-16.037c0.633-0.633 0.633-1.659 0-2.292l-16.037-16.037c-0.317-0.317-0.731-0.475-1.146-0.475s-0.829 0.158-1.146 0.475l-16.037 16.037c-0.633 0.633-0.633 1.659 0 2.292l16.037 16.037c0.317 0.317 0.731 0.475 1.146 0.475" fill="#231f20"/></g><g transform="translate(197.82 590.39)"><path d="m0 0c0.463-0.463 0.463-1.217 0-1.68l-16.038-16.038c-0.463-0.463-1.217-0.463-1.68 0l-16.038 16.038c-0.463 0.463-0.463 1.217 0 1.68l16.038 16.038c0.463 0.463 1.217 0.463 1.68 0z" fill="#231f20"/></g><g transform="translate(197.36 589.93)"><path d="m0 0c0.211-0.211 0.211-0.553 0-0.764l-16.038-16.038c-0.21-0.21-0.553-0.21-0.764 0l-16.038 16.038c-0.21 0.211-0.21 0.553 0 0.764l16.038 16.038c0.211 0.21 0.554 0.21 0.764 0z" fill="#fccc2d"/></g><g transform="translate(182.66 577.88)"><path d="m0 0c-0.905 0-1.644 0.738-1.644 1.644 0 0.905 0.739 1.644 1.644 1.644s1.644-0.739 1.644-1.644c0-0.906-0.739-1.644-1.644-1.644" fill="#231f20"/></g><g transform="translate(187.64 588.25)"><path d="m0 0-3.448-2.299c-0.16-0.674-0.821-3.665-2.147-4.357-1.314-0.868-6.158 2.7-6.185 2.729v5.206l1.05-0.183 0.411-4.155c0.395-0.08 0.791-0.159 1.187-0.239-0.865 2.236-1.182 4.39-0.685 5.809l-2.1 8.585 1.415 1.004 3.059-7.945 1.416 1.507 1.963 5.981 1.872-0.685-1.689-6.301-1.964-3.516 0.753-2.594 0.8 1.042 3.744 1.233z" fill="#231f20"/></g><g transform="translate(448.48 534.72)"><path d="m0 0c-0.466 0-0.904 0.182-1.234 0.511l-16.038 16.038c-0.679 0.68-0.679 1.787 0 2.468l16.038 16.038c0.33 0.329 0.768 0.511 1.234 0.511 0.467 0 0.904-0.182 1.234-0.511l16.038-16.038c0.33-0.33 0.511-0.768 0.511-1.234s-0.181-0.905-0.511-1.234l-16.038-16.038c-0.33-0.329-0.767-0.511-1.234-0.511" fill="#fccc2d"/></g><g transform="translate(448.48 570.41)"><path d="m0 0c-0.5 0-0.969-0.195-1.322-0.548l-16.038-16.038c-0.353-0.353-0.548-0.823-0.548-1.322 0-0.5 0.195-0.969 0.548-1.322l16.038-16.038c0.353-0.354 0.823-0.548 1.322-0.548 0.5 0 0.969 0.194 1.322 0.548l16.038 16.038c0.354 0.353 0.548 0.822 0.548 1.322 0 0.499-0.194 0.969-0.548 1.322l-16.038 16.038c-0.353 0.353-0.822 0.548-1.322 0.548m0-0.25c0.415 0 0.829-0.158 1.146-0.475l16.038-16.038c0.632-0.632 0.632-1.658 0-2.291l-16.038-16.038c-0.317-0.316-0.731-0.474-1.146-0.474s-0.829 0.158-1.146 0.474l-16.037 16.038c-0.633 0.633-0.633 1.659 0 2.291l16.037 16.038c0.317 0.317 0.731 0.475 1.146 0.475" fill="#231f20"/></g><g transform="translate(465.36 553.35)"><path d="m0 0c0.463-0.463 0.463-1.217 0-1.68l-16.038-16.038c-0.463-0.463-1.217-0.463-1.68 0l-16.038 16.038c-0.463 0.463-0.463 1.217 0 1.68l16.038 16.038c0.463 0.463 1.217 0.463 1.68 0z" fill="#231f20"/></g><g transform="translate(464.9 552.89)"><path d="m0 0c0.211-0.211 0.211-0.553 0-0.764l-16.038-16.038c-0.211-0.21-0.553-0.21-0.764 0l-16.038 16.038c-0.21 0.211-0.21 0.553 0 0.764l16.038 16.038c0.211 0.21 0.553 0.21 0.764 0z" fill="#fccc2d"/></g><g transform="translate(450.2 540.84)"><path d="m0 0c-0.905 0-1.644 0.738-1.644 1.644 0 0.905 0.739 1.644 1.644 1.644s1.644-0.739 1.644-1.644c0-0.906-0.739-1.644-1.644-1.644" fill="#231f20"/></g><g transform="translate(455.17 551.21)"><path d="m0 0-3.448-2.299c-0.16-0.673-0.821-3.665-2.147-4.357-1.314-0.868-6.158 2.7-6.185 2.729v5.206l1.05-0.183 0.411-4.155c0.395-0.08 0.791-0.159 1.187-0.239-0.865 2.236-1.182 4.39-0.685 5.809l-2.1 8.585 1.415 1.004 3.059-7.945 1.416 1.507 1.963 5.981 1.872-0.684-1.689-6.302-1.964-3.515 0.753-2.595 0.8 1.042 3.744 1.233z" fill="#231f20"/></g><g transform="translate(448.48 221.45)"><path d="m0 0c-0.466 0-0.904 0.182-1.234 0.511l-16.038 16.038c-0.679 0.68-0.679 1.788 0 2.468l16.038 16.039c0.33 0.329 0.768 0.51 1.234 0.51 0.467 0 0.904-0.181 1.234-0.511l16.038-16.037c0.33-0.331 0.511-0.769 0.511-1.235s-0.181-0.904-0.511-1.234l-16.038-16.038c-0.33-0.329-0.767-0.511-1.234-0.511" fill="#fccc2d"/></g><g transform="translate(448.48 257.14)"><path d="m0 0c-0.5 0-0.969-0.195-1.322-0.548l-16.038-16.038c-0.353-0.353-0.548-0.822-0.548-1.322s0.195-0.969 0.548-1.322l16.038-16.038c0.353-0.353 0.822-0.548 1.322-0.548s0.969 0.195 1.322 0.548l16.038 16.038c0.354 0.353 0.548 0.822 0.548 1.322s-0.194 0.969-0.548 1.322l-16.038 16.038c-0.353 0.353-0.822 0.548-1.322 0.548m0-0.25c0.415 0 0.829-0.158 1.146-0.475l16.038-16.037c0.632-0.633 0.632-1.659 0-2.292l-16.038-16.037c-0.317-0.317-0.731-0.475-1.146-0.475s-0.829 0.158-1.146 0.475l-16.037 16.037c-0.633 0.633-0.633 1.659 0 2.292l16.037 16.037c0.317 0.317 0.731 0.475 1.146 0.475" fill="#231f20"/></g><g transform="translate(465.36 240.07)"><path d="m0 0c0.463-0.463 0.463-1.217 0-1.68l-16.038-16.038c-0.463-0.463-1.217-0.463-1.68 0l-16.038 16.038c-0.463 0.463-0.463 1.217 0 1.68l16.038 16.038c0.463 0.463 1.217 0.463 1.68 0z" fill="#231f20"/></g><g transform="translate(464.9 239.61)"><path d="m0 0c0.211-0.211 0.211-0.553 0-0.764l-16.038-16.038c-0.211-0.21-0.553-0.21-0.764 0l-16.038 16.038c-0.21 0.211-0.21 0.553 0 0.764l16.038 16.038c0.211 0.21 0.553 0.21 0.764 0z" fill="#fccc2d"/></g><g transform="translate(450.2 227.57)"><path d="m0 0c-0.905 0-1.644 0.738-1.644 1.644 0 0.905 0.739 1.644 1.644 1.644s1.644-0.739 1.644-1.644c0-0.906-0.739-1.644-1.644-1.644" fill="#231f20"/></g><g transform="translate(455.17 237.93)"><path d="m0 0-3.448-2.299c-0.16-0.674-0.821-3.665-2.147-4.357-1.314-0.868-6.158 2.7-6.185 2.729v5.206l1.05-0.183 0.411-4.155c0.395-0.08 0.791-0.159 1.187-0.239-0.865 2.236-1.182 4.39-0.685 5.809l-2.1 8.585 1.415 1.004 3.059-7.945 1.416 1.507 1.963 5.981 1.872-0.684-1.689-6.302-1.964-3.515 0.753-2.595 0.8 1.042 3.744 1.233z" fill="#231f20"/></g><g transform="translate(180.94 258.49)"><path d="m0 0c-0.466 0-0.905 0.181-1.234 0.51l-16.038 16.038c-0.33 0.33-0.511 0.768-0.511 1.234s0.181 0.905 0.511 1.235l16.038 16.038c0.329 0.329 0.768 0.51 1.234 0.51s0.904-0.181 1.234-0.51l16.037-16.038c0.33-0.33 0.512-0.769 0.512-1.235s-0.182-0.904-0.512-1.234l-16.037-16.038c-0.33-0.329-0.768-0.51-1.234-0.51" fill="#fccc2d"/></g><g transform="translate(180.94 294.18)"><path d="m0 0c-0.5 0-0.969-0.195-1.322-0.548l-16.038-16.038c-0.354-0.353-0.548-0.823-0.548-1.322 0-0.5 0.194-0.969 0.548-1.322l16.038-16.038c0.353-0.353 0.822-0.548 1.322-0.548 0.499 0 0.969 0.195 1.322 0.548l16.038 16.038c0.729 0.729 0.729 1.915 0 2.644l-16.038 16.038c-0.353 0.353-0.822 0.548-1.322 0.548m0-0.25c0.415 0 0.829-0.158 1.146-0.475l16.037-16.037c0.633-0.633 0.633-1.659 0-2.292l-16.037-16.037c-0.317-0.317-0.731-0.475-1.146-0.475s-0.829 0.158-1.146 0.475l-16.038 16.037c-0.632 0.633-0.632 1.659 0 2.292l16.038 16.037c0.317 0.317 0.731 0.475 1.146 0.475" fill="#231f20"/></g><g transform="translate(197.82 277.11)"><path d="m0 0c0.463-0.463 0.463-1.217 0-1.68l-16.038-16.038c-0.463-0.463-1.217-0.463-1.68 0l-16.038 16.038c-0.463 0.463-0.463 1.217 0 1.68l16.038 16.038c0.463 0.463 1.217 0.463 1.68 0z" fill="#231f20"/></g><g transform="translate(197.36 276.65)"><path d="m0 0c0.211-0.211 0.211-0.553 0-0.764l-16.038-16.038c-0.21-0.21-0.553-0.21-0.764 0l-16.038 16.038c-0.21 0.211-0.21 0.553 0 0.764l16.038 16.038c0.211 0.21 0.554 0.21 0.764 0z" fill="#fccc2d"/></g><g transform="translate(182.66 264.61)"><path d="m0 0c-0.905 0-1.644 0.738-1.644 1.644 0 0.905 0.739 1.644 1.644 1.644s1.644-0.739 1.644-1.644c0-0.906-0.739-1.644-1.644-1.644" fill="#231f20"/></g><g transform="translate(187.64 274.97)"><path d="m0 0-3.448-2.299c-0.16-0.674-0.821-3.665-2.147-4.357-1.314-0.868-6.158 2.7-6.185 2.729v5.206l1.05-0.183 0.411-4.155c0.395-0.08 0.791-0.159 1.187-0.239-0.865 2.236-1.182 4.39-0.685 5.809l-2.1 8.585 1.415 1.004 3.059-7.945 1.416 1.507 1.963 5.981 1.872-0.684-1.689-6.302-1.964-3.515 0.753-2.595 0.8 1.042 3.744 1.233z" fill="#231f20"/></g><g transform="translate(180.94 218.59)"><path d="m0 0c-0.466 0-0.905 0.182-1.234 0.511l-16.038 16.038c-0.33 0.33-0.511 0.768-0.511 1.234s0.181 0.904 0.511 1.235l16.038 16.038c0.329 0.329 0.768 0.51 1.234 0.51s0.904-0.181 1.234-0.51l16.037-16.038c0.33-0.331 0.512-0.769 0.512-1.235s-0.182-0.904-0.512-1.234l-16.037-16.038c-0.33-0.329-0.768-0.511-1.234-0.511" fill="#fccc2d"/></g><g transform="translate(180.94 254.28)"><path d="m0 0c-0.5 0-0.969-0.195-1.322-0.548l-16.038-16.038c-0.353-0.353-0.548-0.822-0.548-1.322s0.195-0.969 0.548-1.322l16.038-16.038c0.353-0.353 0.822-0.548 1.322-0.548 0.499 0 0.969 0.195 1.322 0.548l16.038 16.038c0.729 0.729 0.729 1.915 0 2.644l-16.038 16.038c-0.353 0.353-0.822 0.548-1.322 0.548m0-0.25c0.415 0 0.829-0.158 1.146-0.474l16.037-16.038c0.633-0.633 0.633-1.659 0-2.292l-16.037-16.037c-0.317-0.317-0.731-0.475-1.146-0.475s-0.829 0.158-1.146 0.475l-16.037 16.037c-0.633 0.633-0.633 1.659 0 2.292l16.037 16.038c0.317 0.316 0.731 0.474 1.146 0.474" fill="#231f20"/></g><g transform="translate(164.06 235.54)"><path d="m0 0c-0.463 0.463-0.463 1.217 0 1.68l16.038 16.038c0.463 0.463 1.217 0.463 1.68 0l16.038-16.038c0.463-0.463 0.463-1.217 0-1.68l-16.038-16.038c-0.463-0.463-1.217-0.463-1.68 0z" fill="#231f20"/></g><g transform="translate(164.52 235.99)"><path d="m0 0c-0.211 0.211-0.211 0.553 0 0.764l16.038 16.038c0.21 0.21 0.553 0.21 0.764 0l16.038-16.038c0.21-0.211 0.21-0.553 0-0.764l-16.038-16.038c-0.211-0.21-0.554-0.21-0.764 0z" fill="#fccc2d"/></g><g transform="translate(179.22 248.04)"><path d="m0 0c0.905 0 1.644-0.738 1.644-1.644 0-0.905-0.739-1.644-1.644-1.644s-1.644 0.739-1.644 1.644c0 0.906 0.739 1.644 1.644 1.644" fill="#231f20"/></g><g transform="translate(174.25 237.68)"><path d="m0 0 3.448 2.299c0.16 0.674 0.821 3.665 2.147 4.357 1.314 0.868 6.158-2.7 6.185-2.729v-5.206l-1.05 0.183-0.411 4.155c-0.395 0.08-0.791 0.159-1.187 0.239 0.865-2.236 1.182-4.39 0.685-5.809l2.1-8.585-1.415-1.004-3.059 7.945-1.416-1.507-1.963-5.981-1.872 0.684 1.689 6.302 1.964 3.515-0.753 2.595-0.8-1.042-3.744-1.233z" fill="#231f20"/></g><g transform="translate(448.48 494.83)"><path d="m0 0c-0.466 0-0.904 0.182-1.234 0.511l-16.038 16.038c-0.33 0.329-0.511 0.768-0.511 1.234s0.181 0.904 0.512 1.234l16.037 16.038c0.33 0.329 0.768 0.511 1.234 0.511s0.904-0.182 1.234-0.511l16.038-16.038c0.33-0.33 0.511-0.768 0.511-1.234s-0.181-0.905-0.511-1.234l-16.038-16.038c-0.33-0.329-0.768-0.511-1.234-0.511" fill="#fccc2d"/></g><g transform="translate(448.48 530.52)"><path d="m0 0c-0.5 0-0.969-0.195-1.322-0.548l-16.038-16.038c-0.729-0.729-0.729-1.915 0-2.644l16.038-16.038c0.353-0.353 0.822-0.548 1.322-0.548s0.969 0.195 1.322 0.548l16.038 16.038c0.729 0.729 0.729 1.915 0 2.644l-16.038 16.038c-0.353 0.353-0.822 0.548-1.322 0.548m0-0.25c0.415 0 0.829-0.158 1.146-0.475l16.038-16.037c0.632-0.633 0.632-1.659 0-2.292l-16.038-16.037c-0.317-0.317-0.731-0.475-1.146-0.475s-0.829 0.158-1.146 0.474l-16.038 16.038c-0.632 0.633-0.632 1.659 0 2.292l16.038 16.037c0.317 0.317 0.731 0.475 1.146 0.475" fill="#231f20"/></g><g transform="translate(431.6 511.77)"><path d="m0 0c-0.463 0.463-0.463 1.217 0 1.68l16.038 16.038c0.463 0.463 1.217 0.463 1.68 0l16.038-16.038c0.463-0.463 0.463-1.217 0-1.68l-16.038-16.038c-0.463-0.463-1.217-0.463-1.68 0z" fill="#231f20"/></g><g transform="translate(432.06 512.23)"><path d="m0 0c-0.211 0.211-0.211 0.553 0 0.764l16.038 16.038c0.21 0.21 0.553 0.21 0.764 0l16.038-16.038c0.21-0.211 0.21-0.553 0-0.764l-16.038-16.038c-0.211-0.211-0.554-0.211-0.764 0z" fill="#fccc2d"/></g><g transform="translate(446.76 524.28)"><path d="m0 0c0.905 0 1.644-0.738 1.644-1.644 0-0.905-0.739-1.644-1.644-1.644s-1.644 0.739-1.644 1.644c0 0.906 0.739 1.644 1.644 1.644" fill="#231f20"/></g><g transform="translate(441.78 513.91)"><path d="m0 0 3.448 2.299c0.16 0.674 0.821 3.665 2.147 4.357 1.314 0.868 6.158-2.7 6.185-2.729v-5.206l-1.05 0.183-0.411 4.155c-0.395 0.08-0.791 0.159-1.187 0.239 0.865-2.236 1.182-4.39 0.685-5.809l2.1-8.585-1.415-1.004-3.059 7.945-1.416-1.507-1.963-5.981-1.872 0.684 1.689 6.302 1.964 3.516-0.753 2.594-0.8-1.042-3.744-1.233z" fill="#231f20"/></g><g transform="translate(448.48 181.55)"><path d="m0 0c-0.466 0-0.904 0.182-1.234 0.511l-16.038 16.038c-0.33 0.33-0.511 0.768-0.511 1.234s0.181 0.904 0.511 1.235l16.038 16.038c0.33 0.329 0.768 0.51 1.234 0.51s0.904-0.181 1.234-0.51l16.038-16.038c0.33-0.331 0.511-0.769 0.511-1.235s-0.181-0.904-0.511-1.234l-16.038-16.038c-0.33-0.329-0.768-0.511-1.234-0.511" fill="#fccc2d"/></g><g transform="translate(448.48 217.24)"><path d="m0 0c-0.5 0-0.969-0.195-1.322-0.548l-16.038-16.038c-0.729-0.729-0.729-1.915 0-2.644l16.038-16.038c0.353-0.353 0.822-0.548 1.322-0.548s0.969 0.195 1.322 0.548l16.038 16.038c0.729 0.729 0.729 1.915 0 2.644l-16.038 16.038c-0.353 0.353-0.822 0.548-1.322 0.548m0-0.25c0.415 0 0.829-0.158 1.146-0.475l16.038-16.037c0.632-0.633 0.632-1.659 0-2.292l-16.038-16.037c-0.317-0.317-0.731-0.475-1.146-0.475s-0.829 0.158-1.146 0.475l-16.038 16.037c-0.632 0.633-0.632 1.659 0 2.292l16.038 16.037c0.317 0.317 0.731 0.475 1.146 0.475" fill="#231f20"/></g><g transform="translate(431.6 198.5)"><path d="m0 0c-0.463 0.463-0.463 1.217 0 1.68l16.038 16.038c0.463 0.463 1.217 0.463 1.68 0l16.038-16.038c0.463-0.463 0.463-1.217 0-1.68l-16.038-16.038c-0.463-0.463-1.217-0.463-1.68 0z" fill="#231f20"/></g><g transform="translate(432.06 198.95)"><path d="m0 0c-0.211 0.211-0.211 0.553 0 0.764l16.038 16.038c0.21 0.21 0.553 0.21 0.764 0l16.038-16.038c0.21-0.211 0.21-0.553 0-0.764l-16.038-16.038c-0.211-0.21-0.554-0.21-0.764 0z" fill="#fccc2d"/></g><g transform="translate(446.76 211)"><path d="m0 0c0.905 0 1.644-0.738 1.644-1.644 0-0.905-0.739-1.644-1.644-1.644s-1.644 0.739-1.644 1.644c0 0.906 0.739 1.644 1.644 1.644" fill="#231f20"/></g><g transform="translate(441.78 200.64)"><path d="m0 0 3.448 2.299c0.16 0.674 0.821 3.665 2.147 4.357 1.314 0.868 6.158-2.7 6.185-2.729v-5.206l-1.05 0.183-0.411 4.155c-0.395 0.08-0.791 0.159-1.187 0.239 0.865-2.236 1.182-4.39 0.685-5.809l2.1-8.585-1.415-1.004-3.059 7.945-1.416-1.507-1.963-5.981-1.872 0.684 1.689 6.302 1.964 3.515-0.753 2.595-0.8-1.042-3.744-1.233z" fill="#231f20"/></g><g transform="translate(439.03 479.46)"><path d="m0 0c-0.813 0-1.475 0.662-1.475 1.475v12.42c0 0.813 0.662 1.475 1.475 1.475h18.9c0.814 0 1.475-0.662 1.475-1.475v-12.42c0-0.813-0.661-1.475-1.475-1.475z" fill="#fccc2d"/></g><g transform="translate(457.93 494.96)"><path d="m0 0h-18.9c-0.882 0-1.6-0.718-1.6-1.6v-12.42c0-0.882 0.718-1.6 1.6-1.6h18.9c0.882 0 1.6 0.718 1.6 1.6v12.42c0 0.882-0.718 1.6-1.6 1.6m0-0.25c0.742 0 1.35-0.607 1.35-1.35v-12.42c0-0.742-0.608-1.35-1.35-1.35h-18.9c-0.743 0-1.35 0.608-1.35 1.35v12.42c0 0.743 0.607 1.35 1.35 1.35z" fill="#231f20"/></g><g transform="translate(457.93 479.95)"><path d="m0 0c0.263 0 0.511 0.103 0.699 0.291s0.291 0.436 0.291 0.699v12.42c0 0.263-0.103 0.511-0.291 0.699s-0.436 0.291-0.699 0.291h-18.9c-0.263 0-0.511-0.103-0.699-0.291s-0.291-0.436-0.291-0.699v-12.42c0-0.263 0.103-0.511 0.291-0.699s0.436-0.291 0.699-0.291z" fill="#231f20"/></g><g transform="translate(457.93 480.49)"><path d="m0 0c0.12 0 0.23 0.046 0.317 0.133s0.133 0.197 0.133 0.317v12.42c0 0.12-0.046 0.23-0.133 0.317s-0.197 0.133-0.317 0.133h-18.9c-0.12 0-0.23-0.046-0.317-0.133s-0.133-0.197-0.133-0.317v-12.42c0-0.12 0.046-0.23 0.133-0.317s0.197-0.133 0.317-0.133z" fill="#fccc2d"/></g><g transform="translate(446.93 484.01)"><path d="m0 0 7.463 6.488-1.771 2.037-7.463-6.487z" fill="#231f20"/></g><g transform="translate(448.82 483.43)"><path d="m0 0c0.037-0.024 0.069-0.052 0.096-0.083 0.163-0.188 0.143-0.472-0.044-0.635-0.066-0.058-0.15-0.097-0.243-0.108l-6.194-0.718 1.573 6.034c0.024 0.091 0.074 0.168 0.14 0.226 0.188 0.163 0.472 0.143 0.635-0.045 0.027-0.031 0.051-0.067 0.069-0.107l1.318-2.86z" fill="#231f20"/></g><g transform="translate(439.03 166.18)"><path d="m0 0c-0.813 0-1.475 0.662-1.475 1.476v12.42c0 0.813 0.662 1.474 1.475 1.474h18.9c0.814 0 1.475-0.661 1.475-1.474v-12.42c0-0.814-0.661-1.476-1.475-1.476z" fill="#fccc2d"/></g><g transform="translate(457.93 181.68)"><path d="m0 0h-18.9c-0.882 0-1.6-0.718-1.6-1.6v-12.42c0-0.882 0.718-1.6 1.6-1.6h18.9c0.882 0 1.6 0.718 1.6 1.6v12.42c0 0.882-0.718 1.6-1.6 1.6m0-0.25c0.742 0 1.35-0.607 1.35-1.35v-12.42c0-0.742-0.608-1.35-1.35-1.35h-18.9c-0.743 0-1.35 0.608-1.35 1.35v12.42c0 0.743 0.607 1.35 1.35 1.35z" fill="#231f20"/></g><g transform="translate(457.93 166.67)"><path d="m0 0c0.263 0 0.511 0.103 0.699 0.291s0.291 0.436 0.291 0.699v12.42c0 0.263-0.103 0.511-0.291 0.699s-0.436 0.291-0.699 0.291h-18.9c-0.263 0-0.511-0.103-0.699-0.291s-0.291-0.436-0.291-0.699v-12.42c0-0.263 0.103-0.511 0.291-0.699s0.436-0.291 0.699-0.291z" fill="#231f20"/></g><g transform="translate(457.93 167.21)"><path d="m0 0c0.12 0 0.23 0.046 0.317 0.133s0.133 0.197 0.133 0.317v12.42c0 0.12-0.046 0.23-0.133 0.317s-0.197 0.133-0.317 0.133h-18.9c-0.12 0-0.23-0.046-0.317-0.133s-0.133-0.197-0.133-0.317v-12.42c0-0.12 0.046-0.23 0.133-0.317s0.197-0.133 0.317-0.133z" fill="#fccc2d"/></g><g transform="translate(446.93 170.73)"><path d="m0 0 7.463 6.488-1.771 2.037-7.463-6.487z" fill="#231f20"/></g><g transform="translate(448.82 170.15)"><path d="m0 0c0.037-0.024 0.069-0.052 0.096-0.083 0.163-0.188 0.143-0.472-0.044-0.635-0.066-0.058-0.15-0.097-0.243-0.108l-6.194-0.718 1.573 6.034c0.024 0.091 0.074 0.168 0.14 0.226 0.188 0.163 0.472 0.143 0.635-0.045 0.027-0.031 0.051-0.067 0.069-0.107l1.318-2.86z" fill="#231f20"/></g><g transform="translate(439.03 570.29)"><path d="m0 0c-0.813 0-1.475 0.662-1.475 1.475v12.42c0 0.813 0.662 1.475 1.475 1.475h18.9c0.814 0 1.475-0.662 1.475-1.475v-12.42c0-0.813-0.661-1.475-1.475-1.475z" fill="#fccc2d"/></g><g transform="translate(457.93 585.78)"><path d="m0 0h-18.9c-0.882 0-1.6-0.718-1.6-1.6v-12.42c0-0.882 0.718-1.6 1.6-1.6h18.9c0.882 0 1.6 0.718 1.6 1.6v12.42c0 0.882-0.718 1.6-1.6 1.6m0-0.25c0.742 0 1.35-0.607 1.35-1.35v-12.42c0-0.742-0.608-1.35-1.35-1.35h-18.9c-0.743 0-1.35 0.608-1.35 1.35v12.42c0 0.743 0.607 1.35 1.35 1.35z" fill="#231f20"/></g><g transform="translate(457.93 585.17)"><path d="m0 0c0.263 0 0.511-0.103 0.699-0.291s0.291-0.436 0.291-0.699v-12.42c0-0.263-0.103-0.511-0.291-0.699s-0.436-0.291-0.699-0.291h-18.9c-0.263 0-0.511 0.103-0.699 0.291s-0.291 0.436-0.291 0.699v12.42c0 0.263 0.103 0.511 0.291 0.699s0.436 0.291 0.699 0.291z" fill="#231f20"/></g><g transform="translate(457.93 584.63)"><path d="m0 0c0.12 0 0.23-0.046 0.317-0.133s0.133-0.197 0.133-0.317v-12.42c0-0.12-0.046-0.23-0.133-0.317s-0.197-0.133-0.317-0.133h-18.9c-0.12 0-0.23 0.046-0.317 0.133s-0.133 0.197-0.133 0.317v12.42c0 0.12 0.046 0.23 0.133 0.317s0.197 0.133 0.317 0.133z" fill="#fccc2d"/></g><g transform="translate(446.93 581.11)"><path d="m0 0 7.463-6.488-1.771-2.037-7.463 6.487z" fill="#231f20"/></g><g transform="translate(448.82 581.69)"><path d="m0 0c0.037 0.024 0.069 0.052 0.096 0.083 0.163 0.188 0.143 0.472-0.044 0.635-0.066 0.058-0.15 0.097-0.243 0.108l-6.194 0.718 1.573-6.034c0.024-0.091 0.074-0.168 0.14-0.226 0.188-0.163 0.472-0.143 0.635 0.045 0.027 0.031 0.051 0.067 0.069 0.107l1.318 2.86z" fill="#231f20"/></g><g transform="translate(439.03 257.01)"><path d="m0 0c-0.813 0-1.475 0.662-1.475 1.476v12.42c0 0.813 0.662 1.474 1.475 1.474h18.9c0.814 0 1.475-0.661 1.475-1.474v-12.42c0-0.814-0.661-1.476-1.475-1.476z" fill="#fccc2d"/></g><g transform="translate(457.93 272.51)"><path d="m0 0h-18.9c-0.882 0-1.6-0.718-1.6-1.6v-12.42c0-0.882 0.718-1.6 1.6-1.6h18.9c0.882 0 1.6 0.718 1.6 1.6v12.42c0 0.882-0.718 1.6-1.6 1.6m0-0.25c0.742 0 1.35-0.608 1.35-1.35v-12.42c0-0.743-0.608-1.35-1.35-1.35h-18.9c-0.743 0-1.35 0.607-1.35 1.35v12.42c0 0.742 0.607 1.35 1.35 1.35z" fill="#231f20"/></g><g transform="translate(457.93 271.9)"><path d="m0 0c0.263 0 0.511-0.103 0.699-0.291s0.291-0.436 0.291-0.699v-12.42c0-0.263-0.103-0.511-0.291-0.699s-0.436-0.291-0.699-0.291h-18.9c-0.263 0-0.511 0.103-0.699 0.291s-0.291 0.436-0.291 0.699v12.42c0 0.263 0.103 0.511 0.291 0.699s0.436 0.291 0.699 0.291z" fill="#231f20"/></g><g transform="translate(457.93 271.36)"><path d="m0 0c0.12 0 0.23-0.046 0.317-0.133s0.133-0.197 0.133-0.317v-12.42c0-0.12-0.046-0.23-0.133-0.317s-0.197-0.133-0.317-0.133h-18.9c-0.12 0-0.23 0.046-0.317 0.133s-0.133 0.197-0.133 0.317v12.42c0 0.12 0.046 0.23 0.133 0.317s0.197 0.133 0.317 0.133z" fill="#fccc2d"/></g><g transform="translate(446.93 267.84)"><path d="m0 0 7.463-6.488-1.771-2.037-7.463 6.487z" fill="#231f20"/></g><g transform="translate(448.82 268.41)"><path d="m0 0c0.037 0.024 0.069 0.052 0.096 0.083 0.163 0.188 0.143 0.472-0.044 0.635-0.066 0.058-0.15 0.097-0.243 0.108l-6.194 0.718 1.573-6.034c0.024-0.091 0.074-0.168 0.14-0.226 0.188-0.163 0.472-0.143 0.635 0.045 0.027 0.031 0.051 0.067 0.069 0.107l1.318 2.86z" fill="#231f20"/></g><g transform="translate(171.49 203.22)"><path d="m0 0c-0.813 0-1.475 0.661-1.475 1.475v12.42c0 0.813 0.662 1.474 1.475 1.474h18.9c0.813 0 1.475-0.661 1.475-1.474v-12.42c0-0.814-0.662-1.475-1.475-1.475z" fill="#fccc2d"/></g><g transform="translate(190.39 218.72)"><path d="m0 0h-18.9c-0.882 0-1.6-0.718-1.6-1.6v-12.42c0-0.882 0.718-1.6 1.6-1.6h18.9c0.882 0 1.6 0.718 1.6 1.6v12.42c0 0.882-0.718 1.6-1.6 1.6m0-0.25c0.742 0 1.35-0.607 1.35-1.35v-12.42c0-0.742-0.608-1.35-1.35-1.35h-18.9c-0.743 0-1.35 0.608-1.35 1.35v12.42c0 0.743 0.607 1.35 1.35 1.35z" fill="#231f20"/></g><g transform="translate(171.49 203.71)"><path d="m0 0c-0.263 0-0.511 0.103-0.699 0.291s-0.291 0.436-0.291 0.699v12.42c0 0.263 0.103 0.511 0.291 0.699s0.436 0.291 0.699 0.291h18.9c0.263 0 0.511-0.103 0.699-0.291s0.291-0.436 0.291-0.699v-12.42c0-0.263-0.103-0.511-0.291-0.699s-0.436-0.291-0.699-0.291z" fill="#231f20"/></g><g transform="translate(171.49 204.25)"><path d="m0 0c-0.12 0-0.23 0.046-0.317 0.133s-0.133 0.197-0.133 0.317v12.42c0 0.12 0.046 0.23 0.133 0.317s0.197 0.133 0.317 0.133h18.9c0.12 0 0.23-0.046 0.317-0.133s0.133-0.197 0.133-0.317v-12.42c0-0.12-0.046-0.23-0.133-0.317s-0.197-0.133-0.317-0.133z" fill="#fccc2d"/></g><g transform="translate(182.5 207.77)"><path d="m0 0-7.463 6.488 1.771 2.037 7.463-6.487z" fill="#231f20"/></g><g transform="translate(180.61 207.19)"><path d="m0 0c-0.037-0.024-0.069-0.052-0.096-0.083-0.163-0.188-0.143-0.472 0.044-0.635 0.066-0.058 0.15-0.097 0.244-0.108l6.193-0.718-1.573 6.034c-0.024 0.091-0.074 0.168-0.14 0.226-0.188 0.163-0.472 0.143-0.635-0.045-0.027-0.031-0.051-0.067-0.069-0.107l-1.318-2.86z" fill="#231f20"/></g><g transform="translate(171.49 294.05)"><path d="m0 0c-0.813 0-1.475 0.662-1.475 1.476v12.42c0 0.813 0.662 1.474 1.475 1.474h18.9c0.813 0 1.475-0.661 1.475-1.474v-12.42c0-0.814-0.662-1.476-1.475-1.476z" fill="#fccc2d"/></g><g transform="translate(190.39 309.55)"><path d="m0 0h-18.9c-0.882 0-1.6-0.718-1.6-1.6v-12.42c0-0.882 0.718-1.6 1.6-1.6h18.9c0.882 0 1.6 0.718 1.6 1.6v12.42c0 0.882-0.718 1.6-1.6 1.6m0-0.25c0.742 0 1.35-0.607 1.35-1.35v-12.42c0-0.742-0.608-1.35-1.35-1.35h-18.9c-0.743 0-1.35 0.608-1.35 1.35v12.42c0 0.743 0.607 1.35 1.35 1.35z" fill="#231f20"/></g><g transform="translate(171.49 308.94)"><path d="m0 0c-0.263 0-0.511-0.103-0.699-0.291s-0.291-0.436-0.291-0.699v-12.42c0-0.263 0.103-0.511 0.291-0.699s0.436-0.291 0.699-0.291h18.9c0.263 0 0.511 0.103 0.699 0.291s0.291 0.436 0.291 0.699v12.42c0 0.263-0.103 0.511-0.291 0.699s-0.436 0.291-0.699 0.291z" fill="#231f20"/></g><g transform="translate(171.49 308.4)"><path d="m0 0c-0.12 0-0.23-0.046-0.317-0.133s-0.133-0.197-0.133-0.317v-12.42c0-0.12 0.046-0.23 0.133-0.317s0.197-0.133 0.317-0.133h18.9c0.12 0 0.23 0.046 0.317 0.133s0.133 0.197 0.133 0.317v12.42c0 0.12-0.046 0.23-0.133 0.317s-0.197 0.133-0.317 0.133z" fill="#fccc2d"/></g><g transform="translate(182.5 304.88)"><path d="m0 0-7.463-6.488 1.771-2.037 7.463 6.487z" fill="#231f20"/></g><g transform="translate(180.61 305.45)"><path d="m0 0c-0.037 0.024-0.069 0.052-0.096 0.083-0.163 0.188-0.143 0.472 0.044 0.635 0.066 0.058 0.15 0.097 0.244 0.108l6.193 0.718-1.573-6.034c-0.024-0.091-0.074-0.168-0.14-0.226-0.188-0.163-0.472-0.143-0.635 0.045-0.027 0.031-0.051 0.067-0.069 0.107l-1.318 2.86z" fill="#231f20"/></g><g transform="translate(171.49 516.5)"><path d="m0 0c-0.813 0-1.475 0.662-1.475 1.475v12.42c0 0.813 0.662 1.475 1.475 1.475h18.9c0.813 0 1.475-0.662 1.475-1.475v-12.42c0-0.813-0.662-1.475-1.475-1.475z" fill="#fccc2d"/></g><g transform="translate(190.39 532)"><path d="m0 0h-18.9c-0.882 0-1.6-0.718-1.6-1.6v-12.42c0-0.882 0.718-1.6 1.6-1.6h18.9c0.882 0 1.6 0.718 1.6 1.6v12.42c0 0.882-0.718 1.6-1.6 1.6m0-0.25c0.742 0 1.35-0.607 1.35-1.35v-12.42c0-0.742-0.608-1.35-1.35-1.35h-18.9c-0.743 0-1.35 0.608-1.35 1.35v12.42c0 0.743 0.607 1.35 1.35 1.35z" fill="#231f20"/></g><g transform="translate(171.49 516.99)"><path d="m0 0c-0.263 0-0.511 0.103-0.699 0.291s-0.291 0.436-0.291 0.699v12.42c0 0.263 0.103 0.511 0.291 0.699s0.436 0.291 0.699 0.291h18.9c0.263 0 0.511-0.103 0.699-0.291s0.291-0.436 0.291-0.699v-12.42c0-0.263-0.103-0.511-0.291-0.699s-0.436-0.291-0.699-0.291z" fill="#231f20"/></g><g transform="translate(171.49 517.53)"><path d="m0 0c-0.12 0-0.23 0.046-0.317 0.133s-0.133 0.197-0.133 0.317v12.42c0 0.12 0.046 0.23 0.133 0.317s0.197 0.133 0.317 0.133h18.9c0.12 0 0.23-0.046 0.317-0.133s0.133-0.197 0.133-0.317v-12.42c0-0.12-0.046-0.23-0.133-0.317s-0.197-0.133-0.317-0.133z" fill="#fccc2d"/></g><g transform="translate(182.5 521.05)"><path d="m0 0-7.463 6.488 1.771 2.037 7.463-6.487z" fill="#231f20"/></g><g transform="translate(180.61 520.47)"><path d="m0 0c-0.037-0.024-0.069-0.052-0.096-0.083-0.163-0.188-0.143-0.472 0.044-0.635 0.066-0.058 0.15-0.097 0.244-0.108l6.193-0.718-1.573 6.034c-0.024 0.091-0.074 0.168-0.14 0.226-0.188 0.163-0.472 0.143-0.635-0.045-0.027-0.031-0.051-0.067-0.069-0.107l-1.318-2.86z" fill="#231f20"/></g><g transform="translate(171.49 607.33)"><path d="m0 0c-0.813 0-1.475 0.662-1.475 1.475v12.42c0 0.813 0.662 1.475 1.475 1.475h18.9c0.813 0 1.475-0.662 1.475-1.475v-12.42c0-0.813-0.662-1.475-1.475-1.475z" fill="#fccc2d"/></g><g transform="translate(190.39 622.82)"><path d="m0 0h-18.9c-0.882 0-1.6-0.718-1.6-1.6v-12.42c0-0.882 0.718-1.6 1.6-1.6h18.9c0.882 0 1.6 0.718 1.6 1.6v12.42c0 0.882-0.718 1.6-1.6 1.6m0-0.25c0.742 0 1.35-0.608 1.35-1.35v-12.42c0-0.743-0.608-1.35-1.35-1.35h-18.9c-0.743 0-1.35 0.607-1.35 1.35v12.42c0 0.742 0.607 1.35 1.35 1.35z" fill="#231f20"/></g><g transform="translate(171.49 622.21)"><path d="m0 0c-0.263 0-0.511-0.103-0.699-0.291s-0.291-0.436-0.291-0.699v-12.42c0-0.263 0.103-0.511 0.291-0.699s0.436-0.291 0.699-0.291h18.9c0.263 0 0.511 0.103 0.699 0.291s0.291 0.436 0.291 0.699v12.42c0 0.263-0.103 0.511-0.291 0.699s-0.436 0.291-0.699 0.291z" fill="#231f20"/></g><g transform="translate(171.49 621.67)"><path d="m0 0c-0.12 0-0.23-0.046-0.317-0.133s-0.133-0.197-0.133-0.317v-12.42c0-0.12 0.046-0.23 0.133-0.317s0.197-0.133 0.317-0.133h18.9c0.12 0 0.23 0.046 0.317 0.133s0.133 0.197 0.133 0.317v12.42c0 0.12-0.046 0.23-0.133 0.317s-0.197 0.133-0.317 0.133z" fill="#fccc2d"/></g><g transform="translate(182.5 618.15)"><path d="m0 0-7.463-6.488 1.771-2.037 7.463 6.487z" fill="#231f20"/></g><g transform="translate(180.61 618.73)"><path d="m0 0c-0.037 0.024-0.069 0.052-0.096 0.083-0.163 0.188-0.143 0.472 0.044 0.635 0.066 0.058 0.15 0.097 0.244 0.108l6.193 0.718-1.573-6.034c-0.024-0.091-0.074-0.168-0.14-0.226-0.188-0.163-0.472-0.143-0.635 0.045-0.027 0.031-0.051 0.067-0.069 0.106l-1.318 2.861z" fill="#231f20"/></g></g><g clip-path="url(#e)"/></g></svg>
