<?xml version="1.0" encoding="UTF-8"?>
<svg width="256.03" height="265.1" version="1.1" viewBox="0 0 256.03 265.1" xml:space="preserve" xmlns="http://www.w3.org/2000/svg"><defs><clipPath id="a"><path d="m335.48 445.72h192.02v245.17h-192.02z"/></clipPath></defs><g transform="matrix(1.3333 0 0 -1.3333 -447.31 867.9)"><text transform="matrix(1 0 0 -.99716 418.86 452.21)" fill="black" font-family="Helvetica" font-size="9.0256px"><tspan x="0 6.5164833 11.534717 16.55295 19.558475 -69.840096 -63.323608 -58.305374 -53.287144 -50.281616 69.840096 76.356575 81.374809 86.393044 89.398567" y="0">D10-2D10-1D10-3</tspan></text><g clip-path="url(#a)"><g transform="translate(343.51 464.77)"><path d="m0 0c-4.357 0-7.901 3.544-7.901 7.901v77.76c0 4.357 3.544 7.901 7.901 7.901h36.288c4.357 0 7.901-3.544 7.901-7.901v-77.76c0-4.357-3.544-7.901-7.901-7.901z" fill="#fff"/></g><g transform="translate(379.79 558.46)"><path d="m0 0h-36.288c-4.426 0-8.026-3.6-8.026-8.026v-77.76c0-4.425 3.6-8.026 8.026-8.026h36.288c4.425 0 8.026 3.601 8.026 8.026v77.76c0 4.426-3.601 8.026-8.026 8.026m0-0.25c4.295 0 7.776-3.481 7.776-7.776v-77.76c0-4.295-3.481-7.776-7.776-7.776h-36.288c-4.295 0-7.776 3.481-7.776 7.776v77.76c0 4.295 3.481 7.776 7.776 7.776z"/></g><g transform="translate(343.51 467.49)"><path d="m0 0c-2.858 0-5.184 2.326-5.184 5.184v77.76c0 2.858 2.326 5.184 5.184 5.184h36.288c2.859 0 5.184-2.326 5.184-5.184v-77.76c0-2.858-2.325-5.184-5.184-5.184z" fill="#006f51"/></g><g transform="translate(374.1 521.92)"><path d="m0 0v20.736h7.595v-2.692h-4.991v-5.311h3.328v-2.765h-3.328v-7.276h5.281v-2.692z" fill="#fff"/></g><path d="m356.05 542.66h2.696v-20.736h-2.696z" fill="#fff"/><g transform="translate(363.31 521.92)"><path d="m0 0v20.736h2.604v-18.335h5.281v-2.401z" fill="#fff"/></g><g transform="translate(348.87 521.92)"><path d="m0 0v12.296l-2.401-7.785-2.528 7.785v-12.296h-2.618v20.736h2.618l2.528-7.348 2.401 7.348h2.618v-20.736z" fill="#fff"/></g><g transform="translate(356.55 492.67)"><path d="m0 0h8.876v11.68zm13.81-12.224h-4.934v7.749h-15.451v2.943l15.451 20.412h4.934v-18.88h2.959v-4.475h-2.959z" fill="#fff"/></g><g transform="translate(413.35 464.77)"><path d="m0 0c-4.357 0-7.901 3.544-7.901 7.901v124.42c0 4.357 3.544 7.901 7.901 7.901h36.288c4.356 0 7.901-3.544 7.901-7.901v-124.42c0-4.357-3.545-7.901-7.901-7.901z" fill="#fff"/></g><g transform="translate(449.63 605.11)"><path d="m0 0h-36.288c-4.426 0-8.026-3.601-8.026-8.026v-124.42c0-4.426 3.6-8.026 8.026-8.026h36.288c4.425 0 8.026 3.6 8.026 8.026v124.42c0 4.425-3.601 8.026-8.026 8.026m0-0.25c4.294 0 7.776-3.482 7.776-7.776v-124.42c0-4.295-3.482-7.776-7.776-7.776h-36.288c-4.295 0-7.776 3.481-7.776 7.776v124.42c0 4.294 3.481 7.776 7.776 7.776z"/></g><g transform="translate(413.35 467.49)"><path d="m0 0c-2.858 0-5.184 2.326-5.184 5.184v124.42c0 2.859 2.326 5.184 5.184 5.184h36.288c2.859 0 5.184-2.325 5.184-5.184v-124.42c0-2.858-2.325-5.184-5.184-5.184z" fill="#006f51"/></g><g transform="translate(443.93 568.57)"><path d="m0 0v20.736h7.595v-2.692h-4.991v-5.311h3.328v-2.765h-3.328v-7.276h5.281v-2.692z" fill="#fff"/></g><path d="m425.89 589.31h2.696v-20.736h-2.696z" fill="#fff"/><g transform="translate(433.15 568.57)"><path d="m0 0v20.736h2.604v-18.335h5.281v-2.401z" fill="#fff"/></g><g transform="translate(418.71 568.57)"><path d="m0 0v12.296l-2.401-7.785-2.528 7.785v-12.296h-2.618v20.736h2.618l2.528-7.348 2.401 7.348h2.618v-20.736z" fill="#fff"/></g><g transform="translate(426.39 539.33)"><path d="m0 0h8.876v11.68zm13.81-12.224h-4.934v7.749h-15.451v2.943l15.451 20.412h4.934v-18.88h2.959v-4.475h-2.959z" fill="#fff"/></g><g transform="translate(426.39 492.67)"><path d="m0 0h8.876v11.68zm13.81-12.224h-4.934v7.749h-15.451v2.943l15.451 20.412h4.934v-18.88h2.959v-4.475h-2.959z" fill="#fff"/></g><g transform="translate(483.19 463.93)"><path d="m0 0c-4.356 0-7.9 3.544-7.9 7.901v171.07c0 4.357 3.544 7.901 7.9 7.901h36.288c4.357 0 7.902-3.544 7.902-7.901v-171.07c0-4.357-3.545-7.901-7.902-7.901z" fill="#fff"/></g><g transform="translate(519.47 650.93)"><path d="m0 0h-36.288c-4.426 0-8.026-3.601-8.026-8.026v-171.07c0-4.426 3.6-8.026 8.026-8.026h36.288c4.426 0 8.026 3.6 8.026 8.026v171.07c0 4.425-3.6 8.026-8.026 8.026m0-0.25c4.294 0 7.776-3.481 7.776-7.776v-171.07c0-4.295-3.482-7.776-7.776-7.776h-36.288c-4.295 0-7.776 3.481-7.776 7.776v171.07c0 4.295 3.481 7.776 7.776 7.776z"/></g><g transform="translate(483.19 466.65)"><path d="m0 0c-2.858 0-5.184 2.326-5.184 5.184v171.07c0 2.858 2.326 5.184 5.184 5.184h36.288c2.859 0 5.184-2.326 5.184-5.184v-171.07c0-2.858-2.325-5.184-5.184-5.184z" fill="#006f51"/></g><g transform="translate(513.77 614.39)"><path d="m0 0v20.736h7.595v-2.692h-4.991v-5.311h3.328v-2.765h-3.328v-7.276h5.281v-2.692z" fill="#fff"/></g><path d="m495.73 635.13h2.696v-20.736h-2.696z" fill="#fff"/><g transform="translate(502.99 614.39)"><path d="m0 0v20.736h2.604v-18.335h5.281v-2.401z" fill="#fff"/></g><g transform="translate(488.55 614.39)"><path d="m0 0v12.296l-2.401-7.785-2.528 7.785v-12.296h-2.618v20.736h2.618l2.528-7.348 2.401 7.348h2.618v-20.736z" fill="#fff"/></g><g transform="translate(496.23 585.14)"><path d="m0 0h8.876v11.68zm13.81-12.224h-4.934v7.749h-15.451v2.943l15.451 20.412h4.934v-18.88h2.959v-4.475h-2.959z" fill="#fff"/></g><g transform="translate(496.23 538.49)"><path d="m0 0h8.876v11.68zm13.81-12.224h-4.934v7.749h-15.451v2.943l15.451 20.412h4.934v-18.88h2.959v-4.475h-2.959z" fill="#fff"/></g><g transform="translate(496.23 491.83)"><path d="m0 0h8.876v11.68zm13.81-12.224h-4.934v7.749h-15.451v2.943l15.451 20.412h4.934v-18.88h2.959v-4.475h-2.959z" fill="#fff"/></g></g></g></svg>
