<?xml version="1.0" encoding="UTF-8"?>
<svg width="515.59" height="644.85" version="1.1" viewBox="0 0 515.59 644.85" xml:space="preserve" xmlns="http://www.w3.org/2000/svg"><defs><clipPath id="g"><path d="m57.8 223.52h523v521.48h-523z"/></clipPath><clipPath id="f"><path d="m57.8 223.52h523v521.48h-523z"/></clipPath><clipPath id="e"><path d="m57.8 223.52h523v521.48h-523z"/></clipPath><clipPath id="d"><path d="m57.8 223.52h523v521.48h-523z"/></clipPath><clipPath id="c"><path d="m57.8 223.52h523v521.48h-523z"/></clipPath><clipPath id="b"><path d="m57.8 223.52h523v521.48h-523z"/></clipPath><clipPath id="a"><path d="m57.8 223.52h523v521.48h-523z"/></clipPath></defs><g transform="matrix(1.3333 0 0 -1.3333 -181.03 956.28)"><g transform="translate(267.63 234.16)"><path d="m0 0v333.27l-10.639 65.212v57.255h-32.363v-57.255l-10.639-65.212v-333.27z" fill="#b1b4b6"/></g><text transform="matrix(1 0 0 -1 183.33 710.29)" fill="black" font-family="Helvetica" font-size="9.5px" font-weight="bold"><tspan x="0 5.8045001 8.4455004 13.7275 16.3685 23.227501 28.509501 34.313999 40.1185 45.400501 48.563999 51.205002 57.009499 62.813999 65.455002 71.259499 74.422997 77.064003 80.227501 87.6185 93.422997 96.064003 98.705002 103.987 109.7915 115.0735 120.3555 122.9965 126.16 131.96449 134.6055 140.41 146.21449 151.49651 154.1375 156.7785 162.0605 167.86501 173.147 175.78799 178.429 184.23351 186.8745 190.03799 195.8425 201.1245 203.7655 209.0475 214.3295 222.77499 228.05701 230.698 236.5025 239.14349 242.839 248.121 253.403 256.5665 259.20749 265.01199" y="0">F – Reduction of two lanes to one lane in the same direction</tspan><tspan x="29.013 34.817501 37.980999 40.622002 43.7855 47.480999 52.763 58.044998 63.327 65.968002 68.609001 76 78.640999 81.804497 87.609001 90.25 98.695503 103.9775 107.673 113.4775 116.1185 121.923 127.7275 130.3685 138.814 144.09599 149.9005 155.1825 160.987 166.269 171.55099 175.24651 180.5285 183.16949 186.33299 192.1375 195.83299 198.474 203.756 209.03799 214.32001 220.1245 222.7655 225.40649 230.68851 236.493" y="11.4">of travel with merging maneuvers for each lane</tspan></text><path d="m253.49 603.54h-25.362v86.348h25.362z" fill="#b1b4b6"/><g transform="translate(240.81 689.89)"><path d="m0 0v-455.74" fill="none" stroke="#b1b4b6" stroke-miterlimit="10" stroke-width="2"/></g><g clip-path="url(#g)"><g transform="translate(231.17 610.16)"><path d="m0 0v-376" fill="none" stroke="#b1b4b6" stroke-miterlimit="10" stroke-width="17.279"/></g><g transform="translate(228.13 689.89)"><path d="m0 0v-57.255l-10.639-65.212v-333.27" fill="none" stroke="#b1b4b6" stroke-miterlimit="10" stroke-width="6"/></g></g><g transform="translate(221.53 234.16)"><path d="m0 0v333.27l10.641 65.212v57.255" fill="none" stroke="#ffd046" stroke-miterlimit="10" stroke-width="2"/></g><g transform="translate(224.63 689.89)"><path d="m0 0v-57.255l-10.639-65.212v-333.27" fill="none" stroke="#000" stroke-miterlimit="10"/></g><g transform="translate(256.99 689.89)"><path d="m0 0v-57.255l10.639-65.212v-333.27" fill="none" stroke="#000" stroke-miterlimit="10"/></g><g clip-path="url(#f)"><g transform="translate(250.45 610.16)"><path d="m0 0v-376" fill="none" stroke="#b1b4b6" stroke-miterlimit="10" stroke-width="17.279"/></g><g transform="translate(253.49 689.89)"><path d="m0 0v-57.255l10.639-65.212v-333.27" fill="none" stroke="#b1b4b6" stroke-miterlimit="10" stroke-width="6"/></g></g><g transform="translate(260.09 234.16)"><path d="m0 0v333.27l-10.641 65.212v57.255" fill="none" stroke="#fff" stroke-miterlimit="10" stroke-width="2"/></g><g transform="translate(240.81 498.34)"><path d="m0 0v-264.78" fill="none" stroke="#fff" stroke-dasharray="14.4, 43.2" stroke-width="2"/></g><g transform="translate(251.38 238.99)"><path d="m0 0v6.354h1.559l-2.577 4.376-2.398-4.376h1.439v-6.354z"/></g><g transform="translate(241.74 673.72)"><path d="m0 0v6.353h1.559l-2.577 4.377-2.398-4.377h1.439v-6.353z"/></g><g transform="translate(233.37 238.99)"><path d="m0 0v6.354h1.559l-2.577 4.376-2.398-4.376h1.439v-6.354z"/></g><text transform="matrix(1 0 0 -1 347.74 390.44)" fill="black" font-family="Helvetica" font-size="9px"><tspan x="0 8.4960003 13.5 16.497" y="0">W4-8</tspan></text><g clip-path="url(#e)"><g transform="translate(342.21 412.23)"><path d="m0 0c-37.826-37.826-68.13-26.458-68.13 24.793v0.266" fill="none" stroke="#000" stroke-width=".75"/></g></g><g transform="translate(271.76 443.5)"><path d="m0 0-1e-3 1.245 4.796 3e-3 1e-3 -1.245 1.759 1e-3 1e-3 -1.76-8.474-6e-3 -1e-3 1.761z"/></g><g clip-path="url(#d)"><g transform="translate(274.63 439.42)"><path d="m0 0c0.263-0.868 0.505-1.432 0.785-2.128l-2.649-2e-3c0.118 0.249 0.521 1.261 0.782 2.129 0.28 0.929 0.471 1.772 0.539 2.318 0.069-0.546 0.262-1.388 0.543-2.317"/></g><g transform="translate(342.21 412.23)"><path d="m0 0c-43.272-63.719-134.91-26.458-134.91 24.793v0.266" fill="none" stroke="#000" stroke-width=".75"/></g><g transform="translate(204.98 443.5)"><path d="m0 0-1e-3 1.245 4.796 5e-3 1e-3 -1.245 1.759 1e-3 1e-3 -1.76-4.237-5e-3 -4.236-4e-3 -2e-3 1.761z"/></g><g transform="translate(207.85 439.42)"><path d="m0 0c0.264-0.868 0.505-1.432 0.785-2.128l-2.648-3e-3c0.118 0.249 0.52 1.261 0.781 2.13 0.279 0.929 0.471 1.772 0.539 2.318 0.069-0.546 0.262-1.389 0.543-2.317"/></g><g transform="translate(360 400.36)"><path d="m0 0c-0.695 0-1.349 0.271-1.84 0.762l-24.522 24.523c-0.492 0.491-0.763 1.145-0.763 1.84s0.271 1.349 0.763 1.84l24.522 24.523c0.491 0.491 1.145 0.762 1.84 0.762s1.349-0.271 1.84-0.762l24.523-24.523c0.491-0.491 0.762-1.145 0.762-1.84s-0.271-1.349-0.763-1.84l-24.521-24.523c-0.492-0.491-1.146-0.762-1.841-0.762" fill="#ffd046"/></g><g transform="translate(360 454.73)"><path d="m0 0c-0.729 0-1.414-0.284-1.929-0.799l-24.522-24.523c-1.064-1.063-1.064-2.793 0-3.856l24.522-24.523c0.515-0.515 1.2-0.799 1.929-0.799 0.728 0 1.413 0.284 1.928 0.799l24.523 24.523c1.063 1.063 1.063 2.793 0 3.856l-24.523 24.523c-0.515 0.515-1.2 0.799-1.928 0.799m0-0.25c0.634 0 1.268-0.242 1.751-0.726l24.523-24.522c0.968-0.968 0.968-2.536 0-3.504l-24.523-24.522c-0.483-0.484-1.117-0.726-1.751-0.726s-1.268 0.242-1.752 0.726l-24.523 24.522c-0.967 0.968-0.967 2.536 0 3.504l24.523 24.522c0.484 0.484 1.118 0.726 1.752 0.726"/></g><g transform="translate(334.16 426.17)"><path d="m0 0c-0.724 0.724-0.724 1.903 0 2.627l24.523 24.523c0.724 0.725 1.903 0.725 2.627 0l24.523-24.523c0.724-0.724 0.724-1.903 0-2.627l-24.523-24.523c-0.724-0.724-1.903-0.724-2.627 0z"/></g><g transform="translate(334.89 426.9)"><path d="m0 0c-0.322 0.322-0.322 0.846 0 1.168l24.523 24.523c0.322 0.322 0.846 0.322 1.168 0l24.522-24.523c0.322-0.322 0.322-0.846 0-1.168l-24.522-24.523c-0.322-0.322-0.846-0.322-1.168 0z" fill="#ffd046"/></g><g><path d="m360.98 415.51h-1.961v3.303h1.961z"/><path d="m360.98 425.42h-1.961v3.303h1.961z"/><path d="m360.98 420.46h-1.961v3.303h1.961z"/></g><g transform="translate(348.54 415.51)"><path d="m0 0v15.05l4.49 4.49v6.883h4.438v-8.721l-4.49-4.49v-13.212z"/></g><g transform="translate(371.45 415.51)"><path d="m0 0v15.05l-4.49 4.49v6.883h-4.438v-8.721l4.49-4.49v-13.212z"/></g></g><text transform="matrix(1 0 0 -1 390.01 317.31)" fill="black" font-family="Helvetica" font-size="9px"><tspan x="0 8.4960003 13.5 16.497 21.500999 24.003 27 32.004002 37.007999 39.509998 41.507999 46.512001 51.515999 56.52 58.518002" y="0">W9-4 (optional)</tspan><tspan x="-14.211 -5.7150002 -0.71100003 4.2930002 7.29 12.294" y="37.125">W16-2P</tspan></text><g clip-path="url(#c)"><g transform="translate(342.21 305.98)"><path d="m0 0c-37.826-37.826-68.13-26.458-68.13 24.793v0.266" fill="none" stroke="#000" stroke-width=".75"/></g></g><g transform="translate(271.76 337.24)"><path d="m0 0-1e-3 1.245 4.796 3e-3 1e-3 -1.245 1.759 1e-3 1e-3 -1.76-8.474-6e-3 -1e-3 1.761z"/></g><g clip-path="url(#b)"><g transform="translate(274.63 333.17)"><path d="m0 0c0.263-0.868 0.505-1.432 0.785-2.128l-2.649-2e-3c0.118 0.249 0.521 1.261 0.782 2.129 0.28 0.929 0.471 1.772 0.539 2.318 0.069-0.546 0.262-1.388 0.543-2.317"/></g><g transform="translate(342.21 305.98)"><path d="m0 0c-47.241-75.532-134.91-26.458-134.91 24.793v0.266" fill="none" stroke="#000" stroke-width=".75"/></g><g transform="translate(204.98 337.24)"><path d="m0 0-1e-3 1.245 4.796 5e-3 1e-3 -1.245 1.759 1e-3 1e-3 -1.761-8.473-8e-3 -2e-3 1.761z"/></g><g transform="translate(207.85 333.17)"><path d="m0 0c0.264-0.868 0.505-1.432 0.785-2.128l-2.648-3e-3c0.118 0.249 0.52 1.262 0.781 2.13 0.279 0.929 0.471 1.772 0.539 2.318 0.069-0.546 0.262-1.389 0.543-2.317"/></g><g transform="translate(360.38 293.83)"><path d="m0 0c-0.695 0-1.349 0.271-1.84 0.762l-24.52 24.521c-1.015 1.015-1.015 2.665 0 3.68l24.52 24.521c0.491 0.492 1.145 0.762 1.84 0.762s1.349-0.27 1.841-0.762l24.52-24.52c0.492-0.492 0.762-1.146 0.762-1.841s-0.27-1.349-0.763-1.84l-24.519-24.521c-0.492-0.491-1.146-0.762-1.841-0.762" fill="#ffd046"/></g><g transform="translate(360.38 348.2)"><path d="m0 0c-0.728 0-1.413-0.284-1.928-0.799l-24.521-24.521c-1.063-1.063-1.063-2.793 0-3.856l24.521-24.521c0.515-0.515 1.2-0.799 1.928-0.799s1.413 0.284 1.928 0.799l24.521 24.521c1.063 1.063 1.063 2.793 0 3.856l-24.521 24.521c-0.515 0.515-1.2 0.799-1.928 0.799m0-0.25c0.634 0 1.268-0.242 1.751-0.725l24.521-24.521c0.968-0.968 0.968-2.536 0-3.503l-24.521-24.521c-0.483-0.484-1.117-0.726-1.751-0.726s-1.268 0.242-1.751 0.726l-24.521 24.521c-0.968 0.967-0.968 2.535 0 3.503l24.521 24.521c0.483 0.483 1.117 0.725 1.751 0.725"/></g><g transform="translate(334.6 319.69)"><path d="m0 0c-0.698 0.697-0.698 1.832 0 2.53l24.521 24.521c0.697 0.697 1.832 0.697 2.53 0l24.521-24.521c0.697-0.698 0.697-1.833 0-2.53l-24.521-24.521c-0.698-0.697-1.833-0.697-2.53 0z"/></g><g transform="translate(335.28 320.37)"><path d="m0 0c-0.322 0.322-0.322 0.846 0 1.168l24.521 24.521c0.322 0.321 0.846 0.321 1.168 0l24.52-24.521c0.322-0.322 0.322-0.846 0-1.168l-24.52-24.521c-0.322-0.322-0.846-0.322-1.168 0z" fill="#ffd046"/></g><g transform="translate(346.8 330.59)"><path d="m0 0h1.042v-5.632h3.055v-0.973h-4.097z"/></g><g transform="translate(353.52 326.9)"><path d="m0 0h1.328l-0.653 1.854zm1.701-1.066h-2.074l-0.653-1.854h-1.119l2.285 6.605h1.049l2.284-6.605h-1.119z"/></g><g transform="translate(359.22 328.46)"><path d="m0 0v-4.473h-1.042v6.606h1.042l2.411-4.219v4.219h1.043v-6.606h-0.927z"/></g><g transform="translate(364.58 330.59)"><path d="m0 0h3.889v-1.043h-2.847v-1.622h1.921v-1.066h-1.921v-1.808h3.055v-1.066h-4.097z"/></g><g transform="translate(369.47 325.54)"><path d="m0 0 0.997 0.371c0.278-0.626 0.787-0.974 1.413-0.974 0.603 0 1.02 0.417 1.02 0.974 0 0.883-1.019 1.019-1.877 1.367-0.394 0.163-1.275 0.556-1.275 1.646 0 1.298 0.88 1.783 2.063 1.783 0.927 0 1.553-0.533 1.877-1.344l-0.927-0.278c-0.104 0.26-0.481 0.579-0.973 0.579-0.943 0-1.023-0.503-1.023-0.668 0-0.617 0.533-0.74 1.399-1.011 0.882-0.278 1.802-0.683 1.802-2.099 0-1.426-1.156-2.015-2.086-2.015-1.136 0-1.97 0.672-2.41 1.669"/></g><g transform="translate(350.23 316.25)"><path d="m0 0-1.531-3.824-1.534 3.824v-3.824h-1.045v6.605h1.045l1.534-3.708 1.531 3.708h1.045v-6.605h-1.045z"/></g><g transform="translate(353.18 319.03)"><path d="m0 0h3.889v-1.043h-2.847v-1.622h1.921v-1.066h-1.921v-1.808h3.055v-1.066h-4.097z"/></g><g transform="translate(360.98 316.36)"><path d="m0 0c0.829 0 0.959 0.598 0.959 0.811 0 0.288-0.215 0.811-0.909 0.811h-1.362v-1.622zm-1.312-1.065v-2.875h-1.042v6.605h2.39c1.514 0 1.968-1.211 1.968-1.855 0-0.245-0.091-1.211-1.026-1.654l1.164-3.096h-1.136l-1.065 2.875z"/></g><g transform="translate(366.7 319.14)"><path d="m0 0c1.058 0 1.655-0.401 2.102-1.46l-0.996-0.393c-0.279 0.58-0.556 0.788-1.066 0.788-1.452 0-1.368-2.21-1.368-2.364 0-0.248-0.057-2.341 1.228-2.341 0.672 0 1.159 0.417 1.159 1.02v0.277h-1.205v1.044h2.247v-1.321c0-1.205-0.88-2.086-2.086-2.086-0.24 0-2.409-0.197-2.409 3.419 0 0.506 0.028 3.417 2.394 3.417"/></g><g transform="translate(370.55 319.03)"><path d="m0 0h3.889v-1.043h-2.847v-1.622h1.921v-1.066h-1.921v-1.808h3.055v-1.066h-4.097z"/></g><g transform="translate(348.82 273.77)"><path d="m0 0c-0.979 0-1.776 0.797-1.776 1.776v16.514c0 0.98 0.797 1.776 1.776 1.776h23.118c0.98 0 1.777-0.796 1.777-1.776v-16.514c0-0.979-0.797-1.776-1.777-1.776z" fill="#ffd046"/></g><g transform="translate(371.94 293.96)"><path d="m0 0h-23.118c-1.049 0-1.902-0.853-1.902-1.901v-16.514c0-1.048 0.853-1.901 1.902-1.901h23.118c1.048 0 1.901 0.853 1.901 1.901v16.514c0 1.048-0.853 1.901-1.901 1.901m0-0.25c0.908 0 1.651-0.743 1.651-1.651v-16.514c0-0.908-0.743-1.651-1.651-1.651h-23.118c-0.909 0-1.652 0.743-1.652 1.651v16.514c0 0.908 0.743 1.651 1.652 1.651z"/></g><g transform="translate(348.82 274.3)"><path d="m0 0c-0.683 0-1.238 0.556-1.238 1.238v16.514c0 0.683 0.555 1.238 1.238 1.238h23.118c0.683 0 1.239-0.555 1.239-1.238v-16.514c0-0.682-0.556-1.238-1.239-1.238z"/></g><g transform="translate(348.82 274.99)"><path d="m0 0c-0.303 0-0.55 0.247-0.55 0.55v16.514c0 0.303 0.247 0.55 0.55 0.55h23.118c0.304 0 0.551-0.247 0.551-0.55v-16.514c0-0.303-0.247-0.55-0.551-0.55z" fill="#ffd046"/></g><g transform="translate(353.5 285.11)"><path d="m0 0 0.425 0.773c0.231-0.117 0.637-0.194 1.043-0.194 0.792 0 1.409 0.524 1.409 1.236 0 0.541-0.438 0.966-0.985 0.966-0.386 0-0.56-0.116-0.888-0.579l-0.869 0.251 0.136 2.839h3.167v-0.869h-2.318l-0.057-0.908c0.406 0.116 0.579 0.154 0.85 0.154 1.006 0 1.834-0.836 1.834-1.853 0-1.217-1.003-2.125-2.395-2.125-0.483 0-0.966 0.116-1.352 0.309"/></g><g transform="translate(360.31 285.69)"><path d="m0 0c0.593 0 1.075 0.562 1.075 1.961s-0.482 1.961-1.075 1.961-1.075-0.562-1.075-1.961 0.482-1.961 1.075-1.961m1.946 1.961c0-0.198 0.042-2.849-1.956-2.849-1.997 0-1.955 2.651-1.955 2.849 0 0.197-0.042 2.848 1.955 2.848 1.998 0 1.956-2.651 1.956-2.848"/></g><g transform="translate(365.32 285.69)"><path d="m0 0c0.593 0 1.075 0.562 1.075 1.961s-0.482 1.961-1.075 1.961-1.075-0.562-1.075-1.961 0.482-1.961 1.075-1.961m1.946 1.961c0-0.198 0.042-2.849-1.956-2.849-1.997 0-1.955 2.651-1.955 2.849 0 0.197-0.042 2.848 1.955 2.848 1.998 0 1.956-2.651 1.956-2.848"/></g><g transform="translate(353.32 280.48)"><path d="m0 0h1.601v-0.888h-1.601v-2.395h-0.868v5.504h3.414v-0.869h-2.546z"/></g><g transform="translate(356.69 282.7)"><path d="m0 0h3.241v-0.869h-2.373v-1.352h1.601v-0.888h-1.601v-1.507h2.546v-0.888h-3.414z"/></g><g transform="translate(361.04 282.7)"><path d="m0 0h3.241v-0.869h-2.373v-1.352h1.601v-0.888h-1.601v-1.507h2.546v-0.888h-3.414z"/></g><g transform="translate(367.03 277.19)"><path d="m0 0h-0.873v4.732h-1.261v0.772h3.414v-0.772h-1.28z"/></g><g transform="translate(479.26 583.02)"><path d="m0 0v78.92l-3.111-21.215 0.282-3.677 2.263 1.98" stroke="#000"/></g><g transform="translate(482.36 630.56)"><path d="m0 0h2.665v-22.176h-3.09l-10.348 17.914h-0.056v-17.914h-2.665v22.176h3.259l10.177-17.913h0.058z"/></g><g transform="translate(434.38 554.24)"><path d="m0 0h6.353v1.559l4.377-2.577-4.377-2.398v1.439h-6.353z"/></g><g transform="translate(457.37 562.43)"><path d="m0 0h29.291" fill="none" stroke="#000" stroke-width=".75"/></g></g><text transform="matrix(1 0 0 -1 456.96 565.33)" fill="black" font-family="Helvetica" font-size="9px"><tspan x="0 5.0040002 10.008 15.012 20.016001 25.02" y="0">Legend</tspan><tspan x="-7.4790001 -0.98100001 1.017 4.0139999 9.0179996 13.518 16.02 18.018 23.021999 28.025999 30.528 35.532001 38.034 40.535999 43.037998 46.035 51.039001 55.539001 60.542999" y="15.354">Direction of travel</tspan></text><g transform="translate(289.35 355.93)" fill="none" stroke-miterlimit="10"><path d="m0 0h-31.991l-6.367-6.367-12.731 12.73-6.367-6.367h-31.016" stroke="#000" stroke-width="5.5"/><path d="m0 0h-31.991l-6.367-6.367-12.731 12.73-6.367-6.367h-31.016" stroke="#fff" stroke-width="4"/></g><g transform="translate(280.89 441.92)"><path d="m0 0h8.669" fill="none" stroke="#000" stroke-width=".75"/></g><g transform="translate(270.63 567.42)"><path d="m0 0h18.928" fill="none" stroke="#000" stroke-width=".75"/></g><g transform="translate(285.1 445.24)"><path d="m0 0v118.86" fill="none" stroke="#000" stroke-width=".75"/></g><g transform="translate(286.18 445.99)"><path d="m0 0-1.089-4.065-1.09 4.065z"/></g><g transform="translate(286.18 563.36)"><path d="m0 0-1.089 4.065-1.09-4.065z"/></g><text transform="matrix(1 0 0 -1 288.3 506.36)" fill="black" font-family="Helvetica" font-size="8px"><tspan x="0 5.336 9.7840004 14.232 16.316799 20.316799 24.764799 29.212799 30.9888 35.436798 37.660801 42.108799 47.8848 50.548801 54.996799 57.220798 59.444801 63.892799 66.116798 70.564796 75.012802 77.236801 81.684799 84.348801 91.012802 92.788803 97.236801 101.6848 103.9088 106.1328 110.5808 115.0288" y="0">See Table 2C-3 to determine the </tspan><tspan x="0 4.448 8.8959999 12.896 17.344 21.792 25.792 30.24 32.464001 36.911999 41.360001 45.360001 49.807999 56.472 60.919998 65.367996 67.592003 69.816002 74.264 76.040001 80.040001 82.264 86.711998 91.160004 95.160004" y="9">advance pacement distance</tspan></text><text transform="matrix(1 0 0 -1 431.1 465.57)" fill="black" font-family="Helvetica" font-size="8px"><tspan x="0 5.776 10.224 12.448 16.896 20.896" y="0">Notes:</tspan><tspan x="0 5.7119999 10.16 12.384 18 23.336 27.784 32.231998 34.456001 39.792 44.240002 48.240002 50.464001 52.240002 56.688 61.136002 63.360001 67.807999 73.143997 75.367996 79.816002 84.264" y="11.496"> 1. See Section 3B.12 </tspan><tspan x="18 20.224001 24.672001 27.336 29.559999 31.336 35.784 40.231998 44.68 47.344002 50.007999 54.456001 58.903999 63.352001 67.351997 69.575996 71.351997 75.800003 80.248001" y="19.992001">for lane-reduction </tspan><tspan x="18 22.448 26.896 30.896 35.344002 42.007999 46.456001 50.903999 53.127998 55.352001 62.015999 66.463997 69.127998 73.127998 74.903999 79.351997 83.800003" y="28.488001">pavement markings</tspan><tspan x="0 5.7119999 10.16 12.384 18 23.336 27.784 32.231998 34.456001 39.792 44.240002 48.240002 50.464001 52.240002 56.688 61.136002 63.360001 67.807999 73.584 75.807999 80.255997 84.704002" y="39.984001"> 2. See Section 2C.48 </tspan><tspan x="18 20.224001 24.672001 27.336 29.559999 31.336 35.784 38.007999 42.456001 45.119999 51.784 56.231998 58.456001 60.231998 64.68 69.127998 71.351997 75.800003 80.248001 84.695999 89.143997 91.367996" y="48.48">for information about </tspan><tspan x="18 20.224001 24.672001 26.448 30.448 32.672001 34.896 38.896 43.344002 47.792 50.015999 54.464001 56.688 58.911999 65.575996 70.024002 72.688004 77.136002" y="56.976002">this type of merge</tspan></text><g transform="translate(240.81 567.42)"><path d="m0 0v-65.098" fill="none" stroke="#fff" stroke-dasharray="4.32, 12.96" stroke-width="2"/></g><g transform="translate(236.55 532.03)"><path d="m0 0-38.612 12.841" fill="none" stroke="#000" stroke-width=".75"/></g><g clip-path="url(#a)"><g transform="translate(238.74 531.87)"><path d="m0 0c-0.741 0.523-1.2 0.93-1.773 1.415l-0.836-2.513c0.274 0.033 1.361 0.097 2.268 0.071 0.969-0.027 1.83-0.11 2.369-0.218-0.496 0.237-1.235 0.686-2.028 1.245"/></g></g><text transform="matrix(1 0 0 -1 135.34 543.25)" fill="black" font-family="Helvetica" font-size="9px"><tspan x="0 7.0019999 12.006 14.508 16.506001 21.51 26.514 31.518 33.515999 36.018002 41.021999 46.026001 48.528 51.029999 56.034" y="0">Optional dotted</tspan><tspan x="27.521999 29.52 34.523998 39.528 44.532001 47.034 49.032001 51.029999 56.034" y="9.5039997">lane line</tspan></text></g></svg>
