<?xml version="1.0" encoding="UTF-8"?>
<svg width="684.04" height="356.42" version="1.1" viewBox="0 0 684.04 356.42" xml:space="preserve" xmlns="http://www.w3.org/2000/svg"><defs><clipPath id="g"><path d="m26.972 434.64h513.03v303.36h-513.03z"/></clipPath><clipPath id="f"><path d="m26.972 434.64h513.03v303.36h-513.03z"/></clipPath><clipPath id="e"><path d="m26.972 434.64h513.03v303.36h-513.03z"/></clipPath><clipPath id="d"><path d="m26.972 434.64h513.03v303.36h-513.03z"/></clipPath><clipPath id="c"><path d="m26.972 434.64h513.03v303.36h-513.03z"/></clipPath><clipPath id="b"><path d="m26.972 434.64h513.03v303.36h-513.03z"/></clipPath><clipPath id="a"><path d="m26.972 434.64h513.03v303.36h-513.03z"/></clipPath></defs><g transform="matrix(1.3333 0 0 -1.3333 -35.963 936.93)"><text transform="matrix(1 0 0 -1 235.48 694.73)" fill="black" font-family="Helvetica" font-size="11px" font-weight="bold"><tspan x="0 7.9419999 11 15.279 21.395 27.511 31.174 34.231998 40.952999 47.674 53.790001 56.848 59.905998 66.022003 70.301003 74.580002 81.301003 89.859001" y="0">Directional arrows</tspan><tspan x="16.511 24.452999 31.174 39.731998 46.452999 49.511002 55.626999 59.905998 64.184998 70.905998" y="184.83299">Down arrow</tspan></text><text transform="matrix(1 0 0 -1 53.284 457.4)" fill="black" font-family="Helvetica" font-size="8px"><tspan x="0 5.776 10.224 12.448 16.896 19.120001 24 28.888 33.335999 37.784 40.007999 42.672001 48.007999 50.231998 54.68 59.127998 63.576 68.024002 70.688004 75.136002 77.360001 83.136002 84.912003 89.360001 93.807999 99.584 104.032 108.032 110.256 115.592 117.368 121.816 126.264 130.26401 132.92799" y="0">Note: The “Standard Highway Signs” </tspan><tspan x="24 28.448 32.896 37.344002 39.119999 40.896 44.896 49.344002 51.568001 53.344002 57.792 62.240002 64.463997 68.463997 72.912003 77.360001 79.584 84.031998 85.807999 90.255997 94.255997 96.480003 98.704002 103.152 107.6 109.824 114.272 118.72 120.944 125.392 127.168 128.944 132.944" y="8.4960003">publication contains the details </tspan><tspan x="24 28.448 30.672001 32.896 35.119999 39.568001 44.015999 48.015999 52.464001 54.688 59.136002 61.799999 64.463997 68.912003 74.688004 76.912003 81.360001 85.807999 89.807999 91.584 96.031998 100.48 104.48" y="16.992001">of these arrow designs.</tspan></text><g clip-path="url(#g)"><g transform="translate(330.05 485.06)"><path d="m0 0c-0.245 0-0.484-0.028-0.713-0.082l-35.771-9.233v27.945h-20.182v-27.945l-35.771 9.233c-0.229 0.054-0.468 0.082-0.713 0.082-1.715 0-3.105-1.39-3.105-3.105 0-0.916 0.397-1.74 1.028-2.308l48.652-44.267 48.652 44.267c0.631 0.568 1.028 1.392 1.028 2.308 0 1.715-1.39 3.105-3.105 3.105"/></g></g><text transform="matrix(1 0 0 -1 47.783 540.73)" fill="black" font-family="Helvetica" font-size="9px"><tspan x="0 5.0057998 9.5058002 14.5098 19.5138 21.5208" y="0">Type A</tspan></text><g clip-path="url(#f)"><g transform="translate(95.519 616.28)"><path d="m0 0-31.453 46.625c-0.558 0.824-1.501 1.366-2.571 1.366s-2.013-0.542-2.571-1.366l-31.453-46.625c-0.316-0.486-0.499-1.066-0.499-1.689 0-1.715 1.389-3.105 3.103-3.105 0.249 0 0.491 0.029 0.723 0.085l22.357 5.348-2.715-63.264h22.11l-2.715 63.264 22.357-5.348c0.232-0.056 0.474-0.085 0.723-0.085 1.714 0 3.103 1.39 3.103 3.105 0 0.623-0.183 1.203-0.499 1.689"/></g></g><text transform="matrix(1 0 0 -1 117.66 540.73)" fill="black" font-family="Helvetica" font-size="9px"><tspan x="0 5.0057998 9.5058002 14.5098 19.5138 21.524401 27.035101 29.5371 32.5341 35.036098 41.039101 45.539101 48.0411 53.045101 58.049099 63.053101 68.057098" y="0">Type A - Extended</tspan></text><g clip-path="url(#e)"><g transform="translate(188.22 654.7)"><path d="m0 0-31.453 46.625c-0.558 0.824-1.501 1.366-2.571 1.366s-2.013-0.542-2.571-1.366l-31.453-46.625c-0.316-0.486-0.499-1.066-0.499-1.689 0-1.715 1.389-3.105 3.103-3.105 0.249 0 0.491 0.029 0.723 0.085l22.357 5.348-4.364-101.69h25.408l-4.364 101.69 22.357-5.348c0.232-0.056 0.474-0.085 0.723-0.085 1.714 0 3.103 1.39 3.103 3.105 0 0.623-0.183 1.203-0.499 1.689"/></g></g><text transform="matrix(1 0 0 -1 232.3 540.73)" fill="black" font-family="Helvetica" font-size="9px"><tspan x="0 5.0057998 9.5058002 14.5098 19.5138 22.0158" y="0">Type B</tspan></text><g clip-path="url(#d)"><g transform="translate(279.55 592.1)"><path d="m0 0-30.838 38.036c-0.569 0.699-1.436 1.145-2.407 1.145s-1.838-0.446-2.407-1.145l-30.838-38.036c-0.435-0.534-0.696-1.217-0.696-1.96 0-1.715 1.389-3.105 3.103-3.105 0.252 0 0.497 0.03 0.731 0.087l22.349 5.347-2.715-38.813h20.946l-2.715 38.813 22.349-5.347c0.234-0.057 0.479-0.087 0.731-0.087 1.714 0 3.103 1.39 3.103 3.105 0 0.743-0.261 1.426-0.696 1.96"/></g></g><text transform="matrix(1 0 0 -1 331.08 540.73)" fill="black" font-family="Helvetica" font-size="9px"><tspan x="0 5.0057998 9.5058002 14.5098 19.5138 22.0158" y="0">Type C</tspan></text><g clip-path="url(#c)"><g transform="translate(387.64 609.04)"><path d="m0 0-38.014 30.856c-0.534 0.436-1.216 0.697-1.959 0.697-1.714 0-3.103-1.39-3.103-3.105 0-0.252 0.03-0.497 0.086-0.732l5.344-22.362-42.589 1.881c-0.031 2e-3 -0.194 6e-3 -0.194 6e-3 -1.714 0-3.104-1.39-3.104-3.105h-1e-3l-2.211-59.523h20.946s-1.551 41.671-1.551 41.723c0 1.286 1.042 2.329 2.327 2.329l26.377 1.164-5.344-22.361c-0.056-0.235-0.086-0.48-0.086-0.732 0-1.715 1.389-3.105 3.103-3.105 0.743 0 1.425 0.261 1.959 0.697l38.014 30.856c0.698 0.569 1.144 1.436 1.144 2.408 0 0.971-0.446 1.839-1.144 2.408"/></g></g><text transform="matrix(1 0 0 -1 414.8 540.73)" fill="black" font-family="Helvetica" font-size="9px"><tspan x="0 5.0057998 9.5058002 14.5098 19.5138 22.0158" y="0">Type D</tspan></text><g clip-path="url(#b)"><g transform="translate(429.05 609.51)"><path d="m0 0-18.142-26.352c-1.499-2.177 0.708-4.986 3.179-4.047l14.963 5.682 14.963-5.682c2.471-0.939 4.678 1.87 3.179 4.047z"/></g><path d="m436.03 553.66h-13.973v31.141h13.973z"/></g><text transform="matrix(1 0 0 -1 490.64 540.73)" fill="black" font-family="Helvetica" font-size="9px"><tspan x="0 5.0057998 9.5058002 14.5098 19.5138 22.0158" y="0">Type E</tspan></text><g clip-path="url(#a)"><g transform="translate(469.33 610.35)"><path d="m0 0 26.352-18.142c2.177-1.499 4.986 0.708 4.047 3.179l-5.682 14.963 5.682 14.963c0.939 2.471-1.87 4.678-4.047 3.179z"/></g><g transform="translate(525.81 553.66)"><path d="m0 0h-13.982v8.146c0 9.772 5.076 15.546 9.154 20.186 0.629 0.715 1.265 1.437 1.89 2.184 2.175 2.599 3.146 5.024 3.146 7.861 0 6.246-5.081 11.327-11.326 11.327h-27.1v13.983h27.1c13.955 0 25.308-11.354 25.308-25.31 0-6.179-2.095-11.687-6.408-16.837-0.697-0.833-1.406-1.641-2.108-2.439-3.832-4.36-5.674-6.646-5.674-10.955z"/></g></g></g></svg>
