<?xml version="1.0" encoding="UTF-8"?>
<svg width="624.53" height="711.84" version="1.1" viewBox="0 0 624.53 711.84" xml:space="preserve" xmlns="http://www.w3.org/2000/svg"><defs><clipPath id="d"><path d="m47.963 177.3h471.07v560.7h-471.07z"/></clipPath><clipPath id="c"><path d="m47.963 177.3h471.07v560.7h-471.07z"/></clipPath><clipPath id="b"><path d="m47.963 177.3h471.07v560.7h-471.07z"/></clipPath><clipPath id="a"><path d="m47.963 177.3h471.07v560.7h-471.07z"/></clipPath></defs><g transform="matrix(1.3333 0 0 -1.3333 -67.523 951.69)"><g clip-path="url(#d)"><g transform="translate(418.65 608.66)"><path d="m0 0c-1.58 0-2.865 1.285-2.865 2.864v80.049c0 1.58 1.285 2.866 2.865 2.866h79.102c1.552 0 2.865-1.313 2.865-2.866v-80.049c0-1.579-1.285-2.864-2.865-2.864z" fill="#fff"/></g><g transform="translate(497.75 694.57)"><path d="m0 0h-79.101c-1.649 0-2.991-1.342-2.991-2.992v-80.048c0-1.648 1.342-2.989 2.991-2.989h79.101c1.649 0 2.99 1.341 2.99 2.989v80.048c0 1.622-1.369 2.992-2.99 2.992m0-0.25c1.49 0 2.74-1.252 2.74-2.742v-80.048c0-1.509-1.231-2.739-2.74-2.739h-79.101c-1.509 0-2.741 1.23-2.741 2.739v80.048c0 1.51 1.232 2.742 2.741 2.742z"/></g></g><g clip-path="url(#c)"><g transform="translate(137.91 686.1)"><path d="m0 0-21.508 8.372c-1.394 0.543-2.09 2.121-1.547 3.515l5.417 13.918c0.543 1.394 2.124 2.089 3.517 1.546l21.509-8.373c1.393-0.542 2.089-2.122 1.546-3.516l-5.418-13.918c-0.537-1.377-2.141-2.08-3.516-1.544" fill="#fff" stroke="#000" stroke-width=".25"/></g><g transform="translate(116.61 694.98)"><path d="m0 0c-1.116 0.47-1.649 1.683-1.239 2.822l5.457 14.014c0.512 1.066 1.673 1.5 2.776 1.131l21.606-8.414c1.065-0.512 1.497-1.672 1.131-2.775l-5.46-14.013c-0.514-1.068-1.672-1.498-2.775-1.132z" fill="#7d4802" fill-rule="evenodd"/></g><g transform="translate(116.91 695.73)"><path d="m0 0c-0.677 0.267-1.02 1.005-0.813 1.698l5.436 13.968c0.267 0.676 1.006 1.024 1.698 0.811l21.559-8.39c0.678-0.264 1.023-1.005 0.814-1.697l-5.437-13.967c-0.263-0.678-1.005-1.022-1.698-0.812z" fill="#7d4802" fill-rule="evenodd"/></g><g transform="translate(125.94 696.82)"><path d="m0 0-4.608 6.662 7.903 1.802c0.349 0.08 0.698-0.138 0.777-0.486 0.054-0.233-0.043-0.416-0.19-0.619l-1.263-1.621 11.525-4.486-1.275-3.276-11.524 4.486-0.167-2.015c-0.028-0.276-0.071-0.473-0.276-0.614-0.293-0.203-0.698-0.128-0.902 0.167" fill="#fff" fill-rule="evenodd"/></g><g transform="translate(364.63 268.13)"><path d="m0 0-0.506-3.5-0.122 0.012-2.556 4.642c-1.086 1.385-2.168 2.77-3.251 4.153 1.563-0.803 3.128-1.602 4.693-2.403l5.046-1.625 0.047-0.105z"/></g><g transform="translate(281.2 603.99)"><path d="m0 0s-16.899-0.926-16.435 16.165" fill="none" stroke="#000"/></g><g transform="translate(280.35 603.94)"><path d="m0 0-1.67-3.117 0.109-0.063 4.812 2.224c1.692 0.471 3.387 0.941 5.079 1.412-1.735 0.283-3.469 0.567-5.204 0.851l-5.025 1.683-0.101-0.057z"/></g><g transform="translate(257.72 600.14)"><path d="m0 0s-9.824 7.573-10.831 15.198" fill="none" stroke="#000"/></g><g transform="translate(257.1 600.73)"><path d="m0 0-3.413-0.924 0.028-0.123 4.92-1.974c1.503-0.908 3.009-1.819 4.513-2.726-0.984 1.456-1.968 2.912-2.952 4.369l-2.223 4.812-0.112 0.033z"/></g><g transform="translate(132.56 524.98)"><path d="m0 0s7.725 8.461 2.928 17.284" fill="none" stroke="#000"/></g><g transform="translate(133.13 525.62)"><path d="m0 0 3.471-0.681-0.018-0.123-4.768-2.318c-1.436-1.013-2.872-2.026-4.309-3.039 0.879 1.522 1.758 3.046 2.636 4.567l1.877 4.957 0.107 0.041z"/></g><g transform="translate(302.32 574.38)"><path d="m0 0c-4.752-1.808-9.036-4.612-12.546-8.163v26.116h12.546zm-251.36-349.67c24.765 10.98 89.298 35.396 193.24 34.798 119.34-0.685 218.9-66.005 238.08-79.209m0 17.977c-32.248 21.103-122.46 73.693-232.38 76.061-2.222 8.376-6.165 25.507-5.662 40.072 0.264 7.656 4.134 76.193 57.944 125.18 20.738 18.88 34.712 29.953 45.17 37.574l44.492-66.412c-6.757-7.479-10.875-17.388-10.875-28.261 0-23.287 18.876-42.164 42.163-42.164 23.288 0 42.166 18.877 42.166 42.164 0 23.288-18.878 42.163-42.166 42.163-7.024 0-13.641-1.728-19.466-4.764l-44.097 65.822c0.39 0.266 0.774 0.527 1.156 0.785 7.25 4.916 12.977 8.799 19.729 14.966 19.551 17.85 36.249 60.608 29.135 98.558-6.85 36.538-36.999 81.774-99.384 82.839-0.125 8e-3 -0.243 0.038-0.37 0.038-0.106 0-0.204-0.027-0.307-0.032-1.169 0.015-2.321 0.05-3.511 0.031-33.946-0.52-55.812-3.49-73.7-13.925-9.216-5.376-21.367-14.421-27.331-23.366-5.112-7.67-14.409-21.368-18.253-53.667h-94.546v-14.907h93.219c-0.024-0.987-0.047-1.974-0.047-2.981v-46.959h-15.653v-4.142c-3.614-0.381-8.259-1.093-11.542-2.408-3.753-1.501-7.481-4.24-10.77-6.658-1.94-1.427-3.774-2.775-5.203-3.554-2.302-1.256-4.525-1.696-6.879-2.16l-4.104-0.957c-4.112-1.233-8.065-4.068-10.846-7.774-0.695-0.927-2.835-1.626-4.737-1.962-3.104 17.584-10.59 29.987-19.338 29.987-9.224 0-41.502-68.572-41.502-100.07 0-38.894 13.91-70.427 31.067-70.427 17.156 0 31.067 31.533 31.067 70.427 0 9.944 0.238 43.241 0.238 51.99 0 4.207-0.236 8.287-0.676 12.177 2.553 0.414 6.549 1.492 8.652 4.296 2.003 2.67 4.914 4.779 7.788 5.641l3.548 0.816c2.566 0.509 5.473 1.084 8.576 2.777 1.783 0.972 3.774 2.436 5.881 3.985 3.002 2.206 6.405 4.708 9.452 5.926 2.509 1.005 6.221 1.601 9.328 1.949v-83.779h30.561v140.88c-0.249 36.77 9.542 53.911 13.664 60.126 4.122 6.217 14.693 16.614 26.834 23.355 12.139 6.741 31.237 9.938 61.547 10.373v-68.531h-43.851v-57.133h21.151c-5e-3 -0.26-0.02-0.521-0.02-0.782 0-19.451 15.77-35.219 35.219-35.219 19.452 0 35.22 15.768 35.22 35.219 0 18.395-14.431 33.487-32.415 35.071v91.093c48.386-3.78 71.527-39.438 77.32-70.35 6.434-34.307-10.424-71.919-24.533-84.802-5.957-5.44-11.291-9.057-18.044-13.636-11.982-8.125-28.394-19.253-60.213-48.222-58.327-53.102-62.519-127.4-62.805-135.69-0.501-14.5 2.695-30.561 5.148-40.526-94.423-0.822-154.93-21.277-183.53-33.371" fill="none" stroke="#000"/></g><g transform="translate(287.32 607.64)"><path d="m0 0c0-0.649 0.417-1.176 0.932-1.176h11.552c0.515 0 0.932 0.527 0.932 1.176s-0.417 1.175-0.932 1.175h-11.552c-0.515 0-0.932-0.526-0.932-1.175"/></g><g transform="translate(290.86 604.48)"><path d="m0 0c0 1.745 1.415 3.162 3.162 3.162 1.745 0 3.162-1.417 3.162-3.162 0-1.748-1.417-3.162-3.162-3.162-1.747 0-3.162 1.414-3.162 3.162"/></g><g transform="translate(351.14 274.07)"><path d="m0 0c1.643-0.594 2.49-2.41 1.894-4.051-0.597-1.64-2.411-2.488-4.05-1.892-1.643 0.595-2.491 2.408-1.895 4.05 0.596 1.641 2.409 2.491 4.051 1.893"/></g><g transform="translate(366.39 306.8)"><path d="m0 0c-0.609 0.223-1.245 0.01-1.422-0.475l-15.006-41.336c-0.175-0.484 0.177-1.056 0.787-1.277 0.611-0.223 1.246-0.012 1.422 0.475l15.008 41.338c0.176 0.482-0.177 1.054-0.789 1.275"/></g><g transform="translate(362.2 304.55)"><path d="m0 0c1.64-0.598 2.489-2.41 1.892-4.051-0.595-1.642-2.409-2.49-4.05-1.892-1.642 0.595-2.489 2.41-1.894 4.048 0.595 1.643 2.409 2.491 4.052 1.895"/></g><g transform="translate(142.59 210.02)"><path d="m0 0c-1.641-0.594-2.489-2.408-1.893-4.051 0.596-1.64 2.41-2.488 4.051-1.892 1.642 0.595 2.489 2.41 1.894 4.05-0.597 1.641-2.41 2.491-4.052 1.893"/></g><g transform="translate(127.34 242.75)"><path d="m0 0c0.611 0.223 1.247 0.01 1.423-0.475l15.007-41.336c0.175-0.482-0.178-1.056-0.788-1.277s-1.247-0.01-1.422 0.475l-15.007 41.338c-0.175 0.482 0.177 1.056 0.787 1.275"/></g><g transform="translate(131.53 240.5)"><path d="m0 0c-1.642-0.596-2.49-2.41-1.894-4.051 0.596-1.64 2.41-2.49 4.052-1.892 1.641 0.595 2.488 2.41 1.893 4.05-0.596 1.641-2.409 2.489-4.051 1.893"/></g><g transform="translate(343.33 455.51)"><path d="m0 0c0.527 0.377 0.714 1.023 0.414 1.441l-6.722 9.397c-0.298 0.418-0.97 0.452-1.498 0.075-0.528-0.379-0.712-1.024-0.414-1.443l6.72-9.395c0.302-0.42 0.972-0.454 1.5-0.075"/></g><g transform="translate(343.84 460.24)"><path d="m0 0c-1.42-1.016-3.395-0.689-4.411 0.732s-0.689 3.395 0.732 4.412c1.419 1.015 3.395 0.688 4.411-0.733 1.017-1.419 0.69-3.394-0.732-4.411"/></g><g transform="translate(172.07 616.57)"><path d="m0 0c-0.216-0.613 4e-3 -1.248 0.489-1.418l10.9-3.832c0.485-0.17 1.053 0.188 1.269 0.801 0.215 0.613-5e-3 1.248-0.489 1.418l-10.9 3.83c-0.486 0.171-1.054-0.187-1.269-0.799"/></g><g transform="translate(174.36 612.4)"><path d="m0 0c0.579 1.648 2.383 2.514 4.031 1.935s2.514-2.385 1.935-4.031c-0.579-1.649-2.384-2.514-4.032-1.935-1.648 0.578-2.514 2.383-1.934 4.031"/></g><g transform="translate(123.13 524.77)"><path d="m0 0c-0.58-0.294-0.859-0.906-0.627-1.364l5.235-10.298c0.233-0.46 0.891-0.594 1.47-0.299 0.579 0.294 0.859 0.904 0.626 1.363l-5.234 10.3c-0.234 0.458-0.891 0.592-1.47 0.298"/></g><g transform="translate(121.91 520.17)"><path d="m0 0c1.557 0.792 3.461 0.17 4.251-1.386 0.792-1.558 0.172-3.461-1.385-4.251-1.557-0.792-3.461-0.172-4.252 1.386-0.791 1.556-0.17 3.461 1.386 4.251"/></g><g transform="translate(324.35 698.37)"><path d="m0 0c-0.65 0-1.176-0.418-1.176-0.932v-11.553c0-0.515 0.526-0.932 1.176-0.932 0.648 0 1.175 0.417 1.175 0.932v11.553c0 0.514-0.527 0.932-1.175 0.932"/></g><g transform="translate(321.18 694.83)"><path d="m0 0c1.746 0 3.162-1.417 3.162-3.162 0-1.747-1.416-3.162-3.162-3.162s-3.162 1.415-3.162 3.162c0 1.745 1.416 3.162 3.162 3.162"/></g><g transform="translate(116.75 433.18)"><path d="m0 0h52.964" fill="none" stroke="#000"/></g><g transform="translate(50.963 281.34)"><path d="m0 0c29.789 24.865 51.667 107.45 51.667 205.51 0 98.06-21.878 180.64-51.667 205.51" fill="#fff" stroke="#000"/></g><g transform="translate(254.68 576.37)"><path d="m0 0-30.56-5.302v29.07l30.56-5.306z" fill="#fff"/><path d="m0 0-30.56-5.302v29.07l30.56-5.306z" fill="none" stroke="#000"/></g><g transform="translate(183.48 624.13)"><path d="m0 0s5.033 16.158-11.652 19.89" fill="none" stroke="#000"/></g><g transform="translate(183.73 624.95)"><path d="m0 0 3.432 0.855 0.035-0.118-3.335-4.122c-0.87-1.526-1.741-3.053-2.612-4.579 0.15 1.751 0.299 3.502 0.449 5.253l-0.403 5.285 0.081 0.084z"/></g><g transform="translate(147.77 279.46)"><path d="m0 0-13.78-30.418" fill="none" stroke="#000"/></g><g transform="translate(134.35 249.83)"><path d="m0 0 3.517 0.426 0.019-0.123-3.821-3.686c-1.055-1.41-2.109-2.82-3.163-4.23 0.365 1.722 0.73 3.445 1.094 5.168l0.251 5.304 0.09 0.073z"/></g><g transform="translate(321.08 423.08)"><path d="m0 0 13.5 30" fill="none" stroke="#000"/></g><g transform="translate(334.23 452.3)"><path d="m0 0-3.516-0.436-0.019 0.122 3.812 3.696c1.051 1.413 2.101 2.826 3.152 4.239-0.361-1.724-0.722-3.447-1.081-5.17l-0.239-5.305-0.088-0.073z"/></g><g transform="translate(411.42 682.64)"><path d="m0 0c-36.897 0-53.122 9.607-78.867 9.607" fill="none" stroke="#000"/></g><g transform="translate(333.27 692.25)"><path d="m0 0 1.562-2.505-0.086-0.058-4.13 1.588c-1.437 0.299-2.873 0.598-4.309 0.898 1.429 0.331 2.858 0.662 4.288 0.994l4.094 1.678 0.087-0.042z"/></g><g transform="translate(234.91 534.58)"><path d="m0 0v32" fill="none" stroke="#000"/></g><g transform="translate(234.91 565.78)"><path d="m0 0-2.82-1.714-0.064 0.095 1.826 4.599c0.353 1.602 0.705 3.204 1.058 4.806 0.353-1.602 0.705-3.204 1.058-4.806l1.826-4.599-0.048-0.095z"/></g></g><text transform="matrix(1 0 0 -1 114.35 596.11)" fill="black" font-family="Helvetica" font-size="9px"><tspan x="0 5.0040002 10.008 15.012 20.016001 24.516001 29.52 32.021999 35.019001 40.022999 47.52" y="0">Launch ramp</tspan><tspan x="-50.112 -43.613998 -38.610001 -33.605999 -28.601999" y="105.012">Cedar</tspan><tspan x="-53.109001 -47.105999 -42.102001 -39.105 -37.106998 -32.103001 -27.099001" y="115.011">Springs</tspan><tspan x="-47.610001 -42.605999 -37.602001 -33.102001" y="125.01">Lake</tspan><tspan x="11.025 17.028 22.032 27.035999 31.535999" y="214.785">Beach</tspan><tspan x="18.684 24.687 26.684999 31.184999 36.188999 38.187" y="125.973">Picnic</tspan><tspan x="21.681 26.684999 29.681999 34.686001" y="135.972">area</tspan><tspan x="92.627998 98.630997 103.635 106.632 111.132 113.13 118.134" y="138.726">Parking</tspan><tspan x="98.639999 104.643 112.14 117.144 122.148 124.146 126.648 131.65199 136.65601 141.66 144.162 149.166" y="73.152">Amphitheater</tspan><tspan x="105.39 111.393 116.397 119.394 123.894 125.892 130.896" y="-20.052">Parking</tspan><tspan x="176.769 179.271 184.27499 186.77699 191.78101 194.778 202.27499 207.27901 209.78101 211.77901 216.783" y="54.261002">Information</tspan><tspan x="186.77699 191.27699 196.28101 201.285 203.787 208.791" y="64.260002">center</tspan><tspan x="281.58301 288.08099 293.08499 300.582 305.586 310.59 313.58701 318.591 323.595 328.599" y="218.11501">Campground</tspan></text><g clip-path="url(#b)"><g transform="translate(117.49 404.74)"><path d="m0 0s16.59 3.348 18.589-13.634" fill="none" stroke="#000"/></g><g transform="translate(118.33 404.91)"><path d="m0 0 1.204 3.326-0.116 0.048-4.442-2.895c-1.607-0.708-3.216-1.417-4.824-2.127 1.758-0.031 3.515-0.062 5.272-0.091l5.216-0.945 0.09 0.072z"/></g><g transform="translate(191.5 480.68)"><path d="m0 0s16.59 3.348 18.589-13.634" fill="none" stroke="#000"/></g><g transform="translate(192.34 480.85)"><path d="m0 0 1.204 3.326-0.116 0.048-4.443-2.895c-1.606-0.708-3.215-1.417-4.823-2.127 1.758-0.031 3.515-0.062 5.272-0.091l5.216-0.946 0.09 0.073z"/></g><g transform="translate(363.97 268.67)"><path d="m0 0c4.977-3.953 6.698-5.184 14.815-7.643" fill="none" stroke="#000"/></g><g transform="translate(169.71 522.95)"><path d="m0 0v-5.995" fill="none" stroke="#000"/></g></g><text transform="matrix(.84744 .53089 .53089 -.84744 138.56 510.52)" fill="black" font-family="Helvetica" font-size="9px"><tspan x="0 6.0030155 11.007028 13.509034" y="0">Path</tspan></text><g clip-path="url(#a)"><g transform="translate(336.54 392.58)"><path d="m0 0c-0.667 0-1.282 0.303-1.687 0.832l-17.005 22.21c-0.711 0.929-0.535 2.264 0.395 2.976l22.21 17.005c0.374 0.286 0.819 0.437 1.289 0.437 0.667 0 1.282-0.303 1.688-0.832l17.005-22.209c0.71-0.93 0.534-2.265-0.396-2.977l-22.209-17.005c-0.374-0.286-0.82-0.437-1.29-0.437" fill="#fff"/></g><g transform="translate(341.74 436.16)"><path d="m0 0c-0.497 0-0.969-0.16-1.365-0.463l-22.21-17.005c-0.476-0.365-0.783-0.894-0.862-1.489-0.079-0.596 0.079-1.186 0.444-1.663l17.005-22.209c0.429-0.56 1.08-0.882 1.786-0.882 0.498 0 0.97 0.16 1.366 0.464l22.209 17.005c0.477 0.365 0.783 0.893 0.862 1.489 0.079 0.595-0.079 1.185-0.444 1.662l-17.005 22.209c-0.429 0.561-1.08 0.882-1.786 0.882m0-0.25c0.601 0 1.194-0.27 1.588-0.783l17.005-22.21c0.671-0.876 0.504-2.13-0.372-2.801l-22.209-17.005c-0.363-0.277-0.79-0.412-1.214-0.412-0.6 0-1.194 0.27-1.587 0.784l-17.005 22.209c-0.671 0.876-0.505 2.13 0.371 2.801l22.21 17.005c0.362 0.278 0.789 0.412 1.213 0.412"/></g><g transform="translate(318.48 416.1)"><path d="m0 0c-0.447 0.583-0.335 1.421 0.248 1.867l22.209 17.005c0.583 0.447 1.421 0.336 1.868-0.247l17.005-22.21c0.446-0.583 0.335-1.421-0.248-1.867l-22.21-17.005c-0.583-0.447-1.42-0.336-1.867 0.247z" fill="#7d4802"/></g><g transform="translate(326.02 421.11)"><path d="m0 0 1.707-2.229m5.092-9.451-8.151 10.645 1.352 1.035 1.707-2.229 19.899 1.885-7.011-18.718 1.67-2.181-1.351-1.035zm7.004 5.362-8.333-0.826 2.681-3.501 2.681-3.502zm2.462-14.925-1.67 2.181" fill="#fff"/></g><g transform="translate(310.01 371.81)"><path d="m0 0c-0.67 0-1.285 0.302-1.689 0.829l-17.005 22.21c-0.711 0.93-0.535 2.265 0.394 2.976l22.21 17.005c0.372 0.285 0.817 0.436 1.287 0.436 0.67 0 1.285-0.303 1.69-0.831l17.005-22.209c0.711-0.93 0.534-2.265-0.395-2.976l-22.21-17.005c-0.372-0.285-0.817-0.435-1.287-0.435" fill="#fff"/></g><g transform="translate(315.21 415.39)"><path d="m0 0c-0.498 0-0.969-0.159-1.363-0.461l-22.21-17.005c-0.984-0.754-1.171-2.167-0.418-3.152l17.005-22.209c0.428-0.559 1.08-0.879 1.789-0.879 0.498 0 0.969 0.159 1.363 0.461l22.209 17.005c0.984 0.753 1.172 2.167 0.419 3.151l-17.006 22.21c-0.427 0.559-1.079 0.879-1.788 0.879m0-0.25c0.602 0 1.198-0.269 1.59-0.781l17.005-22.21c0.668-0.872 0.501-2.133-0.372-2.801l-22.209-17.005c-0.361-0.276-0.788-0.409-1.211-0.409-0.602 0-1.198 0.269-1.59 0.781l-17.005 22.209c-0.668 0.873-0.501 2.133 0.371 2.802l22.21 17.005c0.36 0.276 0.787 0.409 1.211 0.409"/></g><g transform="translate(291.94 395.33)"><path d="m0 0c-0.447 0.583-0.335 1.421 0.248 1.867l22.209 17.005c0.583 0.447 1.421 0.336 1.868-0.247l17.005-22.21c0.446-0.583 0.335-1.421-0.248-1.867l-22.21-17.005c-0.583-0.447-1.42-0.336-1.867 0.247z" fill="#7d4802"/></g><g transform="translate(297.56 394.56)"><path d="m0 0 13.633-17.805 1.848 1.416-12.217 15.956 7.002 5.361 19.425-10.438 1.921 1.471-24.091 12.948-1.92-1.47 2.411-1.305z" fill="#fff"/></g><g transform="translate(316.59 388.4)"><path d="m0 0-0.901-0.69-1.133 1.48-1.48-2.519 1.7-2.22-0.9-0.689-1.42 1.855-1.73-2.951-0.832 1.087 1.73 2.951-2.541 3.317-3.299-0.9-0.833 1.088 3.3 0.9-1.42 1.854 0.9 0.69 1.7-2.221 2.818 0.772-1.133 1.48 0.9 0.69zm-4.347-0.641 1.48 2.519-0.641 0.838-2.819-0.771z" fill="#fff"/></g><g transform="translate(291.72 359.94)"><path d="m0 0c-0.669 0-1.285 0.303-1.689 0.83l-14.576 19.037c-0.343 0.448-0.491 1.006-0.416 1.57 0.075 0.563 0.363 1.063 0.811 1.407l12.691 9.717c0.372 0.284 0.818 0.435 1.287 0.435 0.67 0 1.286-0.303 1.69-0.83l14.576-19.037c0.343-0.448 0.491-1.006 0.416-1.569-0.074-0.565-0.363-1.064-0.811-1.408l-12.691-9.716c-0.372-0.285-0.817-0.436-1.288-0.436" fill="#fff"/></g><g transform="translate(289.83 393.06)"><path d="m0 0c-0.498 0-0.969-0.159-1.363-0.461l-12.691-9.717c-0.475-0.364-0.78-0.893-0.86-1.49-0.079-0.596 0.078-1.187 0.442-1.662l14.575-19.036c0.428-0.559 1.08-0.879 1.789-0.879 0.498 0 0.969 0.159 1.363 0.46l12.691 9.718c0.475 0.363 0.78 0.892 0.859 1.489 0.08 0.597-0.077 1.187-0.441 1.662l-14.575 19.037c-0.428 0.559-1.08 0.879-1.789 0.879m0-0.25c0.602 0 1.198-0.269 1.59-0.781l14.576-19.037c0.668-0.872 0.501-2.133-0.372-2.801l-12.691-9.717c-0.361-0.276-0.787-0.409-1.211-0.409-0.602 0-1.198 0.269-1.59 0.781l-14.576 19.036c-0.668 0.873-0.501 2.133 0.372 2.801l12.691 9.718c0.361 0.276 0.787 0.409 1.211 0.409"/></g><g transform="translate(292.53 361.01)"><path d="m0 0 12.691 9.717c0.584 0.447 0.695 1.283 0.248 1.868l-14.576 19.036c-0.447 0.584-1.283 0.695-1.867 0.248l-12.691-9.717c-0.584-0.447-0.695-1.283-0.248-1.868l14.575-19.036c0.448-0.584 1.284-0.695 1.868-0.248" fill="#7d4802"/></g><g transform="translate(296.13 376.92)"><path d="m0 0c-7e-3 0.129-0.052 0.257-0.136 0.368-0.224 0.292-0.642 0.347-0.934 0.124-0.066-0.051-0.12-0.111-0.161-0.178l-2.151-3.375-3.82-1.197c-0.075-0.022-0.147-0.058-0.213-0.109-0.292-0.224-0.348-0.642-0.124-0.934 0.084-0.11 0.197-0.186 0.319-0.227l7.634-2.491z" fill="#fff"/></g><g transform="translate(291.36 372.81)"><path d="m0 0-8.04 10.501 2.776 2.125 8.04-10.5z" fill="#fff"/></g><g transform="translate(418.66 693.4)"><path d="m0 0c-0.989-0.05-1.746-0.763-1.821-1.733l-3e-3 -80.128c0.051-0.991 0.763-1.747 1.733-1.821l79.179-3e-3c1.007 0.027 1.794 0.814 1.824 1.83v80.031c-0.05 0.99-0.763 1.746-1.733 1.821z" fill="#7d4802"/></g><g transform="translate(493.21 656.58)"><path d="m0 0v27.973c0 0.526-0.213 1.04-0.585 1.413-0.373 0.372-0.887 0.585-1.413 0.585h-27.971c-0.526 0-1.041-0.213-1.413-0.585-0.373-0.373-0.586-0.887-0.586-1.413v-27.973c0-0.526 0.213-1.041 0.586-1.411 0.372-0.373 0.887-0.586 1.413-0.586h27.971c0.685 0 1.332 0.363 1.699 0.939 0.21 0.331 0.26 0.678 0.299 1.058" fill="#fff"/></g><g transform="translate(492.54 656.58)"><path d="m0 0c-0.028-0.264-0.059-0.485-0.205-0.712-0.244-0.382-0.675-0.62-1.127-0.62h-27.971c-0.353 0-0.695 0.144-0.942 0.392-0.25 0.246-0.39 0.591-0.39 0.94v27.973c0 0.35 0.14 0.693 0.39 0.942 0.247 0.248 0.589 0.39 0.942 0.39h27.971c0.35 0 0.695-0.142 0.942-0.39 0.248-0.249 0.39-0.592 0.39-0.942z" fill="#7d4802" fill-rule="evenodd"/></g><g transform="translate(476.35 672.79)"><path d="m0 0v-4.174h-5.37c2e-3 0.759 6e-3 4.173 6e-3 4.173 0 1.479 1.204 2.681 2.683 2.681 1.478 0 2.681-1.202 2.681-2.68m-10.186-0.063 5e-3 -9.153h21.924v5.042h-6.757c1e-3 0.757 5e-3 4.11 5e-3 4.11 0 4.185-3.405 7.589-7.59 7.589-4.183 0-7.587-3.404-7.587-7.588" fill="#fff"/></g><path d="m475.48 641.86h3.497v-12.408h-3.497z" fill="#fff"/><g transform="translate(481.77 629.84)"><path d="m0 0c0.073 0.107 0.115 0.236 0.115 0.375 0 0.368-0.298 0.666-0.666 0.666-0.083 0-0.162-0.015-0.235-0.043l-3.761-1.372-3.76 1.372c-0.073 0.028-0.152 0.043-0.236 0.043-0.367 0-0.666-0.298-0.666-0.666 0-0.139 0.043-0.268 0.116-0.375l4.546-6.618z" fill="#fff"/></g><g transform="translate(455.19 684.55)"><path d="m0 0v-27.972c0-1.099-0.899-1.998-1.998-1.998h-27.972c-1.099 0-1.998 0.899-1.998 1.998v27.972c0 1.099 0.899 1.998 1.998 1.998h27.972c1.099 0 1.998-0.899 1.998-1.998" fill="#fff"/></g><g transform="translate(454.52 656.58)"><path d="m0 0c0-0.734-0.598-1.332-1.332-1.332h-27.972c-0.734 0-1.332 0.598-1.332 1.332v27.972c0 0.734 0.598 1.332 1.332 1.332h27.972c0.734 0 1.332-0.598 1.332-1.332z" fill="#7d4802"/></g><g transform="translate(429.98 667.7)"><path d="m0 0c0 0.995-0.806 1.8-1.799 1.8-0.995 0-1.8-0.805-1.8-1.8 0-0.993 0.805-1.8 1.8-1.8 0.993 0 1.799 0.807 1.799 1.8" fill="#fff"/></g><g transform="translate(438.88 657.65)"><path d="m0 0c-1.461 0-2.648 1.182-2.648 2.643v5.58h-4.006c-0.994 0-1.8 0.805-1.8 1.798 0 0.995 0.806 1.802 1.8 1.802l0.62 2e-3 0.68 2.652c0.105 0.467 0.57 0.76 1.035 0.655 0.468-0.105 0.76-0.569 0.655-1.036l-0.531-2.273h1.547v2.674l-7.572 7.315 1.967-0.214 2.401 3.6c0.339 0.599 1.103 0.813 1.701 0.475 0.472-0.269 0.703-0.8 0.612-1.305l-0.053-0.292c1.4-0.344 2.436-1.611 2.436-3.116 0-0.299-0.045-0.586-0.12-0.86l5.578-2.731 7.65-3e-3c0.657 0 1.192-0.534 1.192-1.19 0-0.657-0.535-1.19-1.192-1.19h-7.824v-6.025l1.846-1.076 5.374 2.256c0.573 0.325 1.299 0.124 1.623-0.448 0.323-0.573 0.122-1.299-0.452-1.624l-6.197-2.632h-1.977l1.853-1.176h5.754c0.657 0 1.19-0.533 1.19-1.19 0-0.659-0.533-1.192-1.19-1.192h-6.646l-1.541 0.983h-5.216l1.498-0.979h4.343v-1.883zm-3.72 23.417-0.362-1.909 2.203-1.106c0.04 0.179 0.06 0.366 0.06 0.558 0 1.182-0.806 2.173-1.901 2.457" fill="#fff"/></g><g transform="translate(263.07 611.43)"><path d="m0 0c-0.683 0-1.353 0.277-1.839 0.761-0.483 0.484-0.761 1.154-0.761 1.838v45.846c0 0.684 0.278 1.354 0.761 1.838 0.485 0.484 1.156 0.761 1.839 0.761h31.992c0.505-0.052 0.946-0.117 1.377-0.389 0.754-0.48 1.222-1.327 1.222-2.21v-45.846c0-0.684-0.278-1.354-0.761-1.838-0.484-0.484-1.154-0.761-1.838-0.761z" fill="#fff"/></g><g transform="translate(295.07 662.6)"><path d="m0 0h-32.005c-0.716 0-1.419-0.291-1.927-0.798-0.507-0.507-0.797-1.209-0.797-1.926v-45.846c0-0.717 0.29-1.419 0.797-1.927 0.509-0.506 1.211-0.797 1.927-0.797h31.992c0.717 0 1.419 0.291 1.926 0.797 0.507 0.509 0.798 1.211 0.798 1.927v45.846c0 0.925-0.49 1.812-1.28 2.315-0.452 0.287-0.929 0.357-1.418 0.408zm-0.013-0.25c0.473-0.049 0.902-0.111 1.31-0.369 0.714-0.456 1.164-1.257 1.164-2.105v-45.846c0-0.652-0.264-1.288-0.725-1.75-0.46-0.46-1.097-0.724-1.749-0.724h-31.992c-0.651 0-1.288 0.264-1.75 0.724-0.461 0.462-0.724 1.098-0.724 1.75v45.846c0 0.652 0.263 1.289 0.724 1.749 0.462 0.462 1.099 0.725 1.75 0.725z"/></g><g transform="translate(295.06 661.53)"><path d="m0 0c0.328-0.034 0.601-0.074 0.882-0.253 0.473-0.302 0.768-0.837 0.768-1.396v-45.846c0-0.435-0.176-0.859-0.483-1.166-0.308-0.308-0.733-0.484-1.167-0.484h-31.992c-0.436 0-0.86 0.176-1.167 0.484-0.308 0.307-0.482 0.731-0.482 1.166v45.846c0 0.434 0.174 0.86 0.482 1.166 0.307 0.307 0.731 0.483 1.167 0.483z" fill="#7d4802" fill-rule="evenodd"/></g><g transform="translate(266.94 614.96)"><path d="m0 0c-0.371 0-0.732 0.15-0.993 0.412-0.261 0.26-0.411 0.622-0.411 0.993v24.245c0 0.371 0.15 0.734 0.412 0.995 0.261 0.261 0.623 0.411 0.992 0.411h24.243c0.281-0.029 0.51-0.065 0.752-0.218 0.402-0.257 0.652-0.712 0.652-1.188v-24.245c0-0.369-0.15-0.732-0.412-0.993-0.26-0.262-0.622-0.412-0.992-0.412z" fill="#7d4802" fill-rule="evenodd"/></g><g transform="translate(291.21 642.27)"><path d="m0 0h-24.269c-0.435 0-0.862-0.177-1.17-0.485-0.308-0.306-0.485-0.733-0.485-1.171v-24.244c0-0.437 0.177-0.864 0.486-1.172 0.306-0.307 0.732-0.483 1.169-0.483h24.242c0.437 0 0.863 0.176 1.17 0.485 0.308 0.307 0.485 0.734 0.485 1.17v24.244c0 0.561-0.295 1.097-0.768 1.399-0.286 0.182-0.557 0.224-0.833 0.254zm-0.027-0.5c0.23-0.025 0.421-0.053 0.618-0.179 0.33-0.21 0.537-0.585 0.537-0.977v-24.244c0-0.305-0.124-0.603-0.339-0.817-0.215-0.216-0.512-0.338-0.816-0.338h-24.242c-0.306 0-0.601 0.122-0.816 0.338-0.216 0.214-0.339 0.512-0.339 0.817v24.244c0 0.304 0.123 0.603 0.339 0.818 0.215 0.215 0.51 0.338 0.816 0.338z" fill="#fff"/></g><g transform="translate(277.13 627.72)"><path d="m0 0h3.622v-4.66c-0.658 1e-3 -3.621 5e-3 -3.621 5e-3 -1.285 0-2.328 1.045-2.328 2.328s1.043 2.327 2.327 2.327m0.055-8.841 7.943 5e-3v19.028h-4.376v-5.864c-0.656 0-3.566 4e-3 -3.566 4e-3 -3.633 0-6.587-2.955-6.587-6.587 0-3.63 2.954-6.586 6.586-6.586" fill="#fff"/></g><g transform="translate(280.22 644.4)"><path d="m0 0c-0.562 0-1.02 0.458-1.02 1.02v11.544c0 0.562 0.458 1.019 1.02 1.019h11.544c0.562 0 1.019-0.457 1.019-1.019v-11.544c0-0.562-0.457-1.02-1.019-1.02z" fill="#7d4802"/></g><g transform="translate(291.76 658.23)"><path d="m0 0h-11.544c-0.7 0-1.27-0.57-1.27-1.27v-11.544c0-0.7 0.57-1.269 1.27-1.269h11.544c0.7 0 1.27 0.569 1.27 1.269v11.544c0 0.7-0.57 1.27-1.27 1.27m0-0.5c0.424 0 0.77-0.345 0.77-0.77v-11.544c0-0.424-0.346-0.769-0.77-0.769h-11.544c-0.424 0-0.77 0.345-0.77 0.769v11.544c0 0.425 0.346 0.77 0.77 0.77z" fill="#fff"/></g><g transform="translate(287.23 647.18)"><path d="m0 0c-0.433 0-0.783-0.351-0.783-0.783 0-0.433 0.35-0.783 0.783-0.783 0.432 0 0.783 0.35 0.783 0.783 0 0.432-0.351 0.783-0.783 0.783" fill="#fff"/></g><g transform="translate(291.61 651.05)"><path d="m0 0c0-0.636-0.515-1.153-1.15-1.153h-2.429v-1.743c0-0.432-0.35-0.783-0.782-0.783-0.433 0-0.785 0.351-0.785 0.783v0.27l-1.155 0.296c-0.203 0.046-0.33 0.248-0.285 0.45 0.046 0.204 0.248 0.331 0.451 0.286l0.989-0.232v0.673h-1.164l-3.183-3.295 0.093 0.856-1.566 1.045c-0.261 0.148-0.354 0.48-0.207 0.741 0.117 0.205 0.348 0.306 0.568 0.266l0.127-0.023c0.149 0.609 0.701 1.06 1.356 1.06 0.13 0 0.255-0.02 0.374-0.052l1.189 2.427 1e-3 3.33c0 0.286 0.232 0.519 0.518 0.519s0.518-0.233 0.518-0.519v-3.406h2.622l0.468 0.804-0.982 2.339c-0.141 0.249-0.054 0.565 0.196 0.706 0.249 0.141 0.565 0.053 0.706-0.197l1.145-2.697v-0.86l0.513 0.806v2.505c0 0.286 0.232 0.518 0.518 0.518s0.518-0.232 0.518-0.518v-2.893l-0.428-0.67v-2.27l0.427 0.652v1.89h0.819zm-10.191-1.619 0.83-0.158 0.482 0.959c-0.078 0.018-0.16 0.026-0.243 0.026-0.515 0-0.946-0.35-1.069-0.827" fill="#fff"/></g><path d="m271.37 653.12h6.404v-3.848h-6.404z" fill="#fff"/><g transform="translate(272.53 646.18)"><path d="m0 0c0.124-0.086 0.275-0.136 0.437-0.136 0.425 0 0.77 0.344 0.77 0.769 0 0.098-0.019 0.192-0.052 0.278l-1.584 4.099 1.584 4.1c0.033 0.086 0.052 0.18 0.052 0.278 0 0.425-0.345 0.769-0.77 0.769-0.162 0-0.313-0.05-0.437-0.136l-7.259-5.011z" fill="#fff"/></g><g transform="translate(165.57 639.27)"><path d="m0 0c-0.26 0-0.515 0.048-0.758 0.143l-25.832 10.055c-1.081 0.422-1.619 1.645-1.198 2.726l10.056 25.832c0.313 0.802 1.103 1.341 1.967 1.341 0.26 0 0.515-0.049 0.758-0.143l25.832-10.056c0.522-0.204 0.934-0.6 1.161-1.116s0.24-1.088 0.037-1.61l-10.056-25.831c-0.312-0.802-1.103-1.341-1.967-1.341" fill="#fff"/></g><g transform="translate(149.8 679.49)"><path d="m0 0c-0.915 0-1.753-0.571-2.083-1.42l-10.056-25.832c-0.446-1.146 0.123-2.441 1.269-2.887l25.832-10.056c0.258-0.1 0.528-0.151 0.804-0.151 0.915 0 1.752 0.571 2.083 1.42l10.056 25.832c0.215 0.553 0.201 1.159-0.039 1.705-0.241 0.547-0.677 0.967-1.231 1.182l-25.831 10.056c-0.258 0.1-0.529 0.151-0.804 0.151m0-0.25c0.238 0 0.479-0.043 0.713-0.134l25.832-10.056c1.015-0.395 1.522-1.549 1.127-2.563l-10.056-25.832c-0.304-0.781-1.057-1.261-1.85-1.261-0.238 0-0.48 0.043-0.714 0.134l-25.831 10.056c-1.015 0.395-1.522 1.548-1.127 2.563l10.056 25.832c0.304 0.781 1.057 1.261 1.85 1.261"/></g><g transform="translate(176.11 668.43)"><path d="m0 0c0.678-0.264 1.015-1.031 0.751-1.709l-10.056-25.832c-0.264-0.678-1.03-1.015-1.708-0.751l-25.832 10.056c-0.679 0.264-1.016 1.03-0.751 1.709l10.055 25.832c0.264 0.678 1.031 1.015 1.709 0.751z" fill="#7d4802"/></g><g transform="translate(151.8 649.92)"><path d="m0 0c-3.802 1.48-5.683 5.761-4.203 9.563 1.479 3.802 5.761 5.684 9.562 4.204l4.428-1.73 2.544 6.535 3.965-1.544-7.899-20.291zm3.774 9.874c-1.683 0.655-3.579-0.178-4.234-1.861s0.178-3.579 1.861-4.235l4.488-1.754 2.375 6.101z" fill="#fff"/></g><g transform="translate(176.14 671.38)"><path d="m0 0c-0.264 0-0.522 0.049-0.769 0.145l-22.463 8.744c-1.097 0.427-1.642 1.666-1.215 2.763l5.83 14.975c0.317 0.813 1.118 1.359 1.994 1.359 0.263 0 0.522-0.048 0.769-0.144l22.463-8.744c1.096-0.427 1.641-1.667 1.215-2.764l-5.83-14.975c-0.317-0.813-1.118-1.359-1.994-1.359" fill="#fff"/></g><g transform="translate(159.52 699.49)"><path d="m0 0c-0.927 0-1.775-0.578-2.11-1.439l-5.83-14.975c-0.452-1.161 0.125-2.473 1.286-2.925l22.463-8.744c0.261-0.102 0.535-0.154 0.814-0.154 0.927 0 1.775 0.579 2.11 1.439l5.83 14.976c0.452 1.16-0.125 2.472-1.285 2.924l-22.464 8.745c-0.261 0.101-0.535 0.153-0.814 0.153m0-0.25c0.241 0 0.486-0.044 0.723-0.136l22.464-8.745c1.03-0.401 1.544-1.571 1.143-2.601l-5.83-14.975c-0.308-0.792-1.072-1.28-1.877-1.28-0.241 0-0.486 0.044-0.723 0.137l-22.464 8.744c-1.029 0.401-1.544 1.571-1.143 2.601l5.83 14.976c0.308 0.792 1.072 1.279 1.877 1.279"/></g><g transform="translate(182.46 689.74)"><path d="m0 0c0.688-0.268 1.03-1.046 0.762-1.734l-5.83-14.975c-0.267-0.689-1.045-1.03-1.733-0.763l-22.464 8.745c-0.688 0.268-1.03 1.046-0.762 1.734l5.83 14.976c0.268 0.688 1.045 1.03 1.733 0.762z" fill="#7d4802"/></g><g transform="translate(166.02 685.59)"><path d="m0 0 2.535 6.511 3.276-1.275-2.535-6.511z" fill="#fff"/></g><g transform="translate(172.13 683.83)"><path d="m0 0c0.107 0.073 0.194 0.179 0.245 0.309 0.134 0.345-0.036 0.733-0.381 0.867-0.078 0.03-0.158 0.045-0.237 0.046l-4.023 0.085-3.023 2.657c-0.058 0.053-0.127 0.096-0.205 0.127-0.345 0.134-0.733-0.037-0.867-0.381-0.051-0.131-0.058-0.267-0.028-0.394l1.846-7.858z" fill="#fff"/></g><g transform="translate(127.96 653.64)"><path d="m0 0c-0.26 0-0.515 0.048-0.758 0.143l-25.832 10.056c-0.522 0.203-0.934 0.599-1.161 1.115-0.228 0.517-0.24 1.088-0.037 1.61l10.056 25.832c0.312 0.802 1.102 1.341 1.966 1.341 0.26 0 0.516-0.049 0.759-0.143l25.832-10.056c0.522-0.203 0.934-0.599 1.161-1.115s0.24-1.088 0.037-1.61l-10.056-25.832c-0.313-0.802-1.103-1.341-1.967-1.341" fill="#fff"/></g><g transform="translate(112.2 693.86)"><path d="m0 0c-0.915 0-1.752-0.571-2.083-1.42l-10.056-25.832c-0.215-0.553-0.201-1.159 0.039-1.706 0.24-0.546 0.677-0.966 1.23-1.181l25.832-10.056c0.258-0.1 0.528-0.151 0.804-0.151 0.915 0 1.752 0.571 2.083 1.42l10.056 25.832c0.215 0.553 0.201 1.159-0.039 1.705-0.24 0.547-0.677 0.967-1.23 1.182l-25.832 10.056c-0.258 0.1-0.528 0.151-0.804 0.151m0-0.25c0.238 0 0.479-0.043 0.713-0.134l25.832-10.056c1.015-0.395 1.522-1.549 1.127-2.563l-10.056-25.832c-0.304-0.781-1.057-1.261-1.85-1.261-0.238 0-0.479 0.043-0.713 0.134l-25.832 10.056c-1.015 0.395-1.522 1.548-1.127 2.563l10.056 25.832c0.304 0.781 1.057 1.261 1.85 1.261"/></g><g transform="translate(138.5 682.8)"><path d="m0 0c0.678-0.264 1.015-1.031 0.751-1.709l-10.056-25.832c-0.264-0.678-1.03-1.015-1.709-0.751l-25.831 10.056c-0.678 0.264-1.016 1.03-0.751 1.709l10.055 25.832c0.264 0.678 1.031 1.015 1.709 0.751z" fill="#7d4802"/></g><g transform="translate(124.99 662.46)"><path d="m0 0-4.171 3.085-3.29-0.787-0.814 0.57 3.264 0.802-12.628 9.381 2.512 3.394 12.685-9.393c4.864-3.775 2.433-7.05 2.433-7.05" fill="#fff"/></g><g transform="translate(116.28 676.36)"><path d="m0 0c-0.107-0.322-0.163-0.65-0.172-0.974l-5.705 4.272 0.511 0.706z" fill="#fff"/></g><g transform="translate(121.46 672.49)"><path d="m0 0c-0.269-0.186-0.563-0.334-0.873-0.437l9.527-7.1 0.33 0.848z" fill="#fff"/></g><g transform="translate(111.98 686.75)"><path d="m0 0c0.504-0.196 0.944-0.499 1.301-0.862 0.364-0.378 0.816-0.693 1.339-0.896 0.52-0.203 1.067-0.277 1.59-0.244 0.508 0.026 1.039-0.049 1.542-0.245 0.506-0.197 0.946-0.5 1.303-0.862 0.363-0.379 0.816-0.694 1.337-0.897 0.522-0.202 1.067-0.276 1.592-0.244 0.508 0.026 1.037-0.048 1.543-0.245 0.503-0.196 0.944-0.499 1.302-0.862 0.363-0.378 0.816-0.693 1.337-0.896 0.52-0.203 1.067-0.277 1.592-0.244 0.508 0.026 1.037-0.049 1.541-0.245 0.505-0.197 0.946-0.5 1.302-0.862 0.365-0.379 0.816-0.693 1.338-0.896 0.521-0.203 1.067-0.277 1.591-0.244 0.508 0.026 1.037-0.049 1.543-0.246l-3.269-8.485-10.416 7.759c0.652-0.701 0.893-1.732 0.523-2.684-0.516-1.324-2.007-1.979-3.331-1.464-1.325 0.516-1.979 2.006-1.464 3.33 0.516 1.325 2.006 1.982 3.331 1.466 0.08-0.031 0.151-0.078 0.228-0.117l-9.497 7.074zm7.938-10.427c-0.573 0.223-1.22-0.06-1.444-0.635-0.223-0.574 0.061-1.221 0.635-1.444s1.22 0.061 1.444 0.635c0.224 0.575-0.061 1.221-0.635 1.444" fill="#fff"/></g><g transform="translate(153.32 607.8)"><path d="m0 0c-0.26 0-0.516 0.048-0.759 0.143l-25.831 10.055c-0.522 0.203-0.935 0.6-1.161 1.116-0.228 0.516-0.241 1.088-0.038 1.61l10.056 25.831c0.313 0.802 1.103 1.341 1.967 1.341 0.26 0 0.516-0.048 0.759-0.142l25.832-10.056c0.522-0.204 0.934-0.6 1.161-1.116 0.226-0.516 0.24-1.088 0.036-1.61l-10.055-25.831c-0.313-0.802-1.103-1.341-1.967-1.341" fill="#fff"/></g><g transform="translate(137.55 648.02)"><path d="m0 0c-0.915 0-1.753-0.571-2.083-1.42l-10.056-25.832c-0.216-0.553-0.202-1.159 0.039-1.706 0.24-0.546 0.677-0.966 1.23-1.181l25.832-10.056c0.257-0.1 0.528-0.151 0.803-0.151 0.916 0 1.753 0.571 2.084 1.42l10.055 25.832c0.216 0.553 0.202 1.159-0.038 1.705-0.241 0.547-0.678 0.967-1.231 1.182l-25.831 10.056c-0.258 0.1-0.529 0.151-0.804 0.151m0-0.25c0.238 0 0.479-0.043 0.713-0.134l25.832-10.056c1.014-0.395 1.522-1.549 1.126-2.563l-10.055-25.832c-0.304-0.781-1.057-1.261-1.851-1.261-0.237 0-0.479 0.043-0.713 0.134l-25.831 10.056c-1.015 0.395-1.522 1.548-1.127 2.563l10.056 25.832c0.303 0.781 1.057 1.261 1.85 1.261"/></g><g transform="translate(163.85 636.96)"><path d="m0 0c0.678-0.264 1.015-1.031 0.751-1.709l-10.055-25.832c-0.265-0.678-1.031-1.015-1.709-0.751l-25.832 10.056c-0.678 0.264-1.015 1.031-0.751 1.709l10.055 25.832c0.264 0.678 1.031 1.015 1.709 0.751z" fill="#7d4802"/></g><g transform="translate(150.7 618.67)"><path d="m0 0-0.823-2.115-15.354 5.976 0.824 2.116 3.877-1.51-0.085 6.618-5.718 2.225 0.823 2.116 4.857-1.891-0.111 7.71 2.624-1.021 0.111-7.71 8.734-3.4 5.275 5.613 2.624-1.022-5.274-5.613 4.817-1.875-0.823-2.116-5.68 2.211-4.536-4.818zm-1.691 7.242-7.01 2.729 0.084-6.617 2.39-0.93z" fill="#fff"/></g><g transform="translate(115.41 533.5)"><path d="m0 0c-0.799 0-1.519 0.439-1.88 1.147l-12.602 24.69c-0.255 0.498-0.3 1.069-0.126 1.605s0.545 0.972 1.044 1.226l24.689 12.603c0.298 0.151 0.618 0.229 0.952 0.229 0.798 0 1.519-0.44 1.88-1.147l12.602-24.69c0.528-1.034 0.116-2.304-0.918-2.832l-24.69-12.602c-0.293-0.15-0.622-0.229-0.951-0.229" fill="#fff"/></g><g transform="translate(127.49 575.12)"><path d="m0 0c-0.349 0-0.697-0.084-1.008-0.243l-24.69-12.602c-0.528-0.269-0.921-0.731-1.105-1.299s-0.137-1.172 0.133-1.701l12.602-24.689c0.382-0.75 1.146-1.215 1.992-1.215 0.348 0 0.697 0.083 1.008 0.242l24.69 12.602c1.095 0.559 1.531 1.905 0.972 3l-12.602 24.69c-0.382 0.749-1.146 1.215-1.992 1.215m0-0.25c0.722 0 1.42-0.395 1.769-1.079l12.602-24.689c0.496-0.97 0.107-2.169-0.863-2.664l-24.69-12.602c-0.286-0.146-0.592-0.215-0.894-0.215-0.722 0-1.42 0.394-1.769 1.078l-12.603 24.69c-0.495 0.97-0.106 2.169 0.864 2.664l24.69 12.602c0.286 0.146 0.592 0.215 0.894 0.215"/></g><g transform="translate(141.27 548.81)"><path d="m0 0c0.331-0.648 0.073-1.445-0.576-1.776l-24.689-12.602c-0.649-0.331-1.445-0.073-1.776 0.576l-12.602 24.69c-0.331 0.648-0.073 1.444 0.575 1.775l24.69 12.602c0.648 0.331 1.445 0.073 1.776-0.575z" fill="#7d4802"/></g><g transform="translate(123.2 568.97)"><path d="m0 0c0.245-0.48 0.372-0.996 0.398-1.503 0.02-0.52 0.147-1.054 0.399-1.548 0.254-0.497 0.611-0.912 1.022-1.234 0.394-0.317 0.737-0.723 0.981-1.201 0.246-0.481 0.373-0.996 0.398-1.501 0.02-0.522 0.147-1.055 0.399-1.55 0.253-0.496 0.611-0.912 1.021-1.233 0.395-0.317 0.738-0.724 0.983-1.203 0.245-0.48 0.371-0.994 0.397-1.5 0.019-0.521 0.147-1.055 0.4-1.55 0.252-0.496 0.61-0.911 1.021-1.233 0.394-0.317 0.737-0.722 0.982-1.203 0.244-0.478 0.372-0.994 0.398-1.501 0.019-0.52 0.146-1.054 0.399-1.55 0.253-0.495 0.61-0.91 1.021-1.233 0.394-0.316 0.737-0.722 0.981-1.2l-2.025-1.034c-0.244 0.479-0.588 0.884-0.981 1.201-0.411 0.322-0.768 0.737-1.021 1.233-0.253 0.495-0.38 1.029-0.4 1.55-0.026 0.506-0.153 1.022-0.397 1.501-0.245 0.48-0.589 0.885-0.982 1.202-0.412 0.323-0.769 0.738-1.021 1.233-0.253 0.495-0.381 1.029-0.4 1.55-0.027 0.506-0.152 1.02-0.397 1.501-0.245 0.479-0.589 0.885-0.983 1.202-0.41 0.321-0.768 0.738-1.021 1.233-0.252 0.495-0.379 1.028-0.399 1.55-0.026 0.505-0.153 1.021-0.398 1.501-0.244 0.479-0.588 0.884-0.981 1.201-0.411 0.323-0.768 0.738-1.022 1.234-0.252 0.494-0.379 1.028-0.399 1.549-0.026 0.506-0.153 1.022-0.398 1.502z" fill="#fff"/></g><g transform="translate(120.2 563.08)"><path d="m0 0c-0.736 1.443-2.504 2.015-3.946 1.279-1.443-0.737-2.015-2.503-1.279-3.946 0.737-1.443 2.503-2.015 3.946-1.279 1.442 0.736 2.069 2.399 1.279 3.946" fill="#fff"/></g><g transform="translate(129.29 548.91)"><path d="m0 0c-0.05 0.225-0.079 0.453-0.086 0.676-0.027 0.507-0.154 1.022-0.398 1.501-0.245 0.481-0.589 0.886-0.982 1.203-0.411 0.322-0.768 0.737-1.021 1.233-0.253 0.495-0.38 1.029-0.4 1.55-0.026 0.506-0.152 1.02-0.397 1.5-0.245 0.479-0.589 0.886-0.982 1.203-0.411 0.321-0.768 0.738-1.021 1.233s-0.38 1.028-0.4 1.55c-0.026 0.505-0.152 1.02-0.397 1.501-0.179 0.349-0.409 0.658-0.674 0.924l-5.634-8.362-3.512 4.591c-0.52 0.67-1.376 0.91-2.127 0.526-0.821-0.419-1.147-1.426-0.727-2.248 0.029-0.058 0.061-0.113 0.095-0.166l5.415-7.094c0.41-0.484 1.582-0.803 2.362 0.113 0.041 0.05 0.084 0.097 0.12 0.149l2.648 3.922z" fill="#fff"/></g><g transform="translate(153.86 273.6)"><path d="m0 0c-1.362 0-2.587 0.861-3.048 2.144l-27.902 77.67c-0.604 1.68 0.273 3.539 1.952 4.141l38.104 13.689c0.354 0.127 0.722 0.192 1.095 0.192 1.362 0 2.587-0.862 3.048-2.145l27.901-77.67c0.292-0.814 0.25-1.693-0.118-2.475-0.369-0.782-1.02-1.374-1.834-1.666l-38.104-13.689c-0.354-0.127-0.722-0.191-1.094-0.191" fill="#fff"/></g><g transform="translate(164.06 371.56)"><path d="m0 0c-0.387 0-0.77-0.067-1.137-0.199l-38.104-13.688c-0.845-0.304-1.521-0.918-1.905-1.731-0.383-0.812-0.426-1.725-0.123-2.571l27.902-77.67c0.479-1.332 1.751-2.227 3.165-2.227 0.387 0 0.77 0.067 1.137 0.199l38.104 13.688c0.845 0.304 1.522 0.918 1.905 1.731 0.383 0.812 0.426 1.725 0.123 2.571l-27.902 77.67c-0.479 1.332-1.75 2.227-3.165 2.227m0-0.25c1.276 0 2.473-0.791 2.93-2.061l27.901-77.671c0.582-1.618-0.259-3.401-1.877-3.982l-38.103-13.688c-0.348-0.125-0.703-0.184-1.053-0.184-1.276 0-2.473 0.791-2.93 2.061l-27.901 77.671c-0.582 1.618 0.259 3.4 1.877 3.982l38.104 13.688c0.347 0.125 0.703 0.184 1.052 0.184"/></g><g transform="translate(125.43 355.98)"><path d="m0 0 38.096 13.685c0.811 0.292 1.704-0.13 1.995-0.94l27.899-77.663c0.292-0.811-0.129-1.704-0.94-1.995l-38.096-13.686c-0.811-0.291-1.705 0.13-1.996 0.941l-27.899 77.662c-0.291 0.811 0.13 1.705 0.941 1.996" fill="#7d4802"/></g><g transform="translate(148.61 306.16)"><path d="M 0,0 C -0.113,0.316 0.05,0.663 0.365,0.776 0.68,0.89 1.028,0.726 1.141,0.41 1.254,0.095 1.09,-0.252 0.775,-0.365 0.46,-0.479 0.113,-0.315 0,0" fill="#7d4802"/></g><g transform="translate(143.92 334.61)"><path d="m0 0 3.13-8.712 3.938 1.415-3.13 8.712z" fill="#fff"/></g><g transform="translate(150.65 335.23)"><path d="m0 0-4.762 0.087-3.619-3.098c-0.626-0.536-1.57 0.056-1.359 0.853l2.448 9.286 7.798-5.605c0.669-0.481 0.318-1.538-0.506-1.523" fill="#fff"/></g><g transform="translate(153.43 302.3)"><path d="m0 0-0.53 6.964c0.013-0.049 0.019-0.098 0.037-0.146 0.283-0.789 1.152-1.198 1.941-0.915 0.789 0.284 1.199 1.152 0.915 1.941-0.283 0.788-1.152 1.198-1.94 0.915-0.568-0.204-0.933-0.71-0.992-1.272l-0.581 7.639-5.041-1.831c0.108-0.301 0.28-0.565 0.488-0.781 0.218-0.221 0.396-0.492 0.508-0.803 0.111-0.31 0.146-0.633 0.119-0.942-0.024-0.299 0.012-0.612 0.12-0.914 0.108-0.3 0.28-0.564 0.488-0.78 0.218-0.221 0.397-0.493 0.508-0.802 0.111-0.311 0.147-0.635 0.119-0.942-0.023-0.301 0.013-0.614 0.121-0.914 0.108-0.301 0.279-0.565 0.488-0.781 0.217-0.221 0.396-0.492 0.507-0.803 0.112-0.31 0.147-0.634 0.119-0.942-0.023-0.299 0.013-0.612 0.121-0.913 0.108-0.3 0.28-0.566 0.488-0.782 0.218-0.219 0.396-0.492 0.507-0.801 0.112-0.312 0.147-0.635 0.12-0.943-0.023-0.299 0.012-0.612 0.12-0.913zm0.713 7.95c0.342 0.123 0.719-0.055 0.841-0.397 0.123-0.341-0.055-0.718-0.396-0.841-0.343-0.123-0.719 0.055-0.842 0.397-0.123 0.341 0.054 0.718 0.397 0.841m0.711 1.331c0.187-0.048 0.367-0.122 0.532-0.219l-0.529 6.987-0.505-0.181zm0.584-7.741 0.512 0.046-0.308 4.192c-0.148-0.121-0.315-0.224-0.5-0.301zm2.515 13.188s-2.399-0.186-2.195-3.812l0.732-9.281 2.483 0.197-0.716 9.25 1.621-1.141-0.062 0.583-1.624 1.159-0.242 3.05m-8.754-17.25c0.145-0.404 0.592-0.615 0.996-0.47l15.387 5.527c0.404 0.146 0.615 0.593 0.47 0.996l-5.528 15.388c-0.145 0.404-0.592 0.614-0.996 0.469l-15.387-5.527c-0.404-0.146-0.614-0.592-0.469-0.996zm-0.366-0.132-5.528 15.387c-0.217 0.604 0.1 1.277 0.705 1.494l15.387 5.527c0.604 0.218 1.277-0.099 1.494-0.704l5.527-15.387c0.217-0.604-0.1-1.277-0.704-1.494l-15.387-5.527c-0.605-0.217-1.277 0.099-1.494 0.704" fill="#fff"/></g><g transform="translate(157.35 361.57)"><path d="m0 0c1.03 0.37 3.852 1.15 4.748-1.342 0.381-1.062 0.209-1.941-0.669-2.824l-0.851 0.913c0.404 0.568 0.57 0.839 0.338 1.485-0.551 1.534-2.682 0.75-3.142 0.584-0.454-0.163-2.633-0.914-2.06-2.51 0.201-0.56 0.655-0.76 1.256-0.826l-0.014-1.253c-1.168 0.046-2.016 0.523-2.413 1.63-0.948 2.637 1.915 3.823 2.807 4.143" fill="#fff"/></g><g transform="translate(159.79 353.5)"><path d="m0 0 0.717-1.995c0.516 0.186 1.096 0.51 0.784 1.379-0.32 0.89-0.971 0.806-1.501 0.616m-1.072-0.414c-0.573-0.264-1.109-0.715-0.851-1.432 0.169-0.471 0.595-0.768 1.105-0.729l-0.252-1.158c-0.806 0.057-1.548 0.425-1.934 1.499-0.663 1.845 0.625 2.707 2.016 3.207 1.183 0.425 2.907 0.64 3.568-1.201 0.693-1.927-0.907-2.726-2.199-3.19l-0.331-0.119z" fill="#fff"/></g><g transform="translate(159.8 346.18)"><path d="m0 0c0.148-0.412 0.326-0.667 0.712-0.848l2.702 0.971c0.223 0.429 0.183 0.708 0.064 1.039-0.317 0.883-1.334 0.798-2.106 0.521-0.749-0.269-1.66-0.882-1.372-1.683m4.468 1.834c0.163-0.453 0.211-1.001 0.114-1.321l1.723 0.62 0.982-0.955-7.463-2.681-0.415 1.158 0.154 0.056c-0.335 0.286-0.505 0.515-0.653 0.926-0.583 1.624 0.518 2.684 2.036 3.229 1.4 0.503 2.955 0.547 3.522-1.032" fill="#fff"/></g><g transform="translate(161.9 340.32)"><path d="m0 0c0.134-0.374 0.406-0.708 0.579-0.866l1.235 0.444c0.026 0.26 5e-3 0.702-0.13 1.077-0.161 0.447-0.482 0.788-1.073 0.576-0.729-0.262-0.777-0.77-0.611-1.231m3.454 1.283c-0.194 0.541-0.668 0.925-1.156 1.074l1.013 0.74c0.549-0.345 0.998-0.853 1.269-1.609 0.372-1.037 0.082-2.218-1.184-2.672l-3.577-1.285-0.405 1.127 0.155 0.056c-0.22 0.124-0.462 0.558-0.609 0.968-0.387 1.077-0.028 2.248 1.263 2.711 1.055 0.379 2.065-0.266 2.495-1.462 0.091-0.254 0.153-0.679 0.142-0.948 0.28 0.101 0.897 0.458 0.594 1.3" fill="#fff"/></g><g transform="translate(167.57 335.41)"><path d="m0 0c-0.241 0.67-0.65 0.61-1.324 0.368l-3.346-1.202-0.427 1.187 5.353 1.923 0.426-1.187-0.257-0.093c0.359-0.191 0.534-0.273 0.683-0.686 0.145-0.403 0.058-0.649-0.083-0.904l-1.084-0.214c0.097 0.297 0.16 0.526 0.059 0.808" fill="#fff"/></g><g transform="translate(167.82 326.27)"><path d="m0 0 0.807-0.957c-0.582-0.558-0.763-1.263-0.514-1.956 0.24-0.668 0.868-0.967 1.485-0.746 0.979 0.352 0.722 1.539 0.766 2.627 0.023 0.501 0.11 1.634 1.316 2.067 1.439 0.517 2.327-0.265 2.798-1.575 0.369-1.026 0.027-1.932-0.742-2.615l-0.677 0.917c0.27 0.289 0.454 0.756 0.233 1.371-0.319 0.887-0.869 0.897-1.125 0.805-0.684-0.246-0.608-0.885-0.564-1.952 0.043-1.087-0.038-2.272-1.607-2.836-1.581-0.567-2.694 0.482-3.064 1.513-0.452 1.258-0.041 2.452 0.888 3.337" fill="#fff"/></g><g transform="translate(172.95 319.26)"><path d="m0 0-2.702-0.971c-0.185-0.383-0.16-0.689-0.012-1.101 0.284-0.79 1.379-0.689 2.126-0.42 0.79 0.283 1.616 0.846 1.296 1.736-0.119 0.332-0.272 0.596-0.708 0.756m1.899-0.651c0.557-1.551-0.731-2.538-2.064-3.017-1.517-0.545-3.039-0.431-3.618 1.183-0.146 0.406-0.165 0.695-0.084 1.125l-1.709-0.614-0.941 0.99 7.413 2.663 0.423-1.176-0.174-0.063c0.28-0.187 0.591-0.638 0.754-1.091" fill="#fff"/></g><g transform="translate(175.8 312.5)"><path d="m0 0c-0.241 0.67-0.65 0.61-1.324 0.368l-3.346-1.202-0.427 1.187 5.353 1.923 0.426-1.187-0.257-0.093c0.359-0.191 0.535-0.273 0.683-0.686 0.145-0.403 0.058-0.649-0.083-0.904l-1.084-0.214c0.097 0.297 0.16 0.526 0.059 0.808" fill="#fff"/></g><g transform="translate(177.52 310.69)"><path d="m0 0 0.421-1.172-5.352-1.923-0.421 1.172zm1.482 0.567c0.336 0.121 0.713-0.061 0.839-0.395 0.121-0.336-0.06-0.719-0.396-0.839-0.334-0.12-0.693 0.069-0.813 0.404s0.035 0.71 0.37 0.83" fill="#fff"/></g><g transform="translate(178.06 303.52)"><path d="m0 0c0.692 0.249 0.683 0.768 0.461 1.386-0.059 0.164-0.418 0.867-1.225 0.577l-3.5-1.257-0.425 1.184 5.352 1.923 0.416-1.158-0.179-0.065c0.287-0.227 0.621-0.689 0.744-1.033l5e-3 -0.014c0.363-1.009 0.07-2.234-1.104-2.655l-3.681-1.323-0.416 1.159z" fill="#fff"/></g><g transform="translate(180.76 298.71)"><path d="m0 0c-0.318 0.885-1.333 0.796-2.105 0.519-0.748-0.269-1.658-0.884-1.371-1.683 0.148-0.412 0.325-0.669 0.711-0.847l2.702 0.971c0.224 0.43 0.182 0.708 0.063 1.04m0.99 0.67c0.162-0.453 0.21-0.998 0.112-1.32l0.18 0.064 0.415-1.157-5.054-1.815c-0.686-0.247-2.565-1.144-3.85 1.364l0.67 0.88c0.392-0.612 1.08-1.693 1.976-1.371l0.641 0.23c-0.339 0.286-0.507 0.513-0.655 0.925-0.583 1.623 0.522 2.687 2.044 3.234 1.399 0.503 2.954 0.543 3.521-1.034" fill="#fff"/></g><g transform="translate(178.21 291.64)"><path d="m0 0c-0.273 0.759-0.077 1.627 0.713 2.321l0.749-0.856c-0.409-0.36-0.519-0.734-0.394-1.081 0.128-0.361 0.474-0.447 0.83-0.319 1.139 0.409-0.228 2.415 1.597 3.07 0.906 0.326 1.716-0.088 2.063-1.053 0.249-0.695 0.05-1.391-0.55-1.905l-0.742 0.862c0.247 0.153 0.311 0.476 0.219 0.73-0.085 0.237-0.302 0.404-0.605 0.295-0.845-0.303 0.387-2.356-1.598-3.069-0.895-0.322-1.921-1e-3 -2.282 1.005" fill="#fff"/></g><g transform="translate(453.16 648.53)"><path d="m0 0c1.103 0 1.998-0.895 1.998-1.998v-27.972c0-1.103-0.895-1.998-1.998-1.998h-27.972c-1.104 0-1.998 0.895-1.998 1.998v27.972c0 1.103 0.894 1.998 1.998 1.998z" fill="#fff"/></g><g transform="translate(454.5 618.56)"><path d="m0 0c0-0.734-0.598-1.332-1.332-1.332h-27.972c-0.735 0-1.332 0.598-1.332 1.332v27.972c0 0.734 0.597 1.332 1.332 1.332h27.972c0.734 0 1.332-0.598 1.332-1.332z" fill="#7d4802"/></g><path d="m431.18 621.33h15.991v-2.079h-15.991z" fill="#fff"/><g transform="translate(437.69 625.11)"><path d="m0 0h9.483v-2.017h-15.991v2.017l7.968 2.852h-7.968v2.011h15.991v-1.735z" fill="#fff"/></g><g transform="translate(437.35 633.74)"><path d="m0 0v2.343h2.131v-2.343h7.688v-2.009h-15.991v6.08h2.076v-4.071z" fill="#fff"/></g><g transform="translate(439.2 640.79)"><path d="m0 0c2.795 0 6.173 0.039 6.173 1.572s-3.378 1.573-6.173 1.573c-2.794 0-6.172-0.04-6.172-1.573s3.378-1.572 6.172-1.572m8.248 1.572c0-3.59-4.514-3.679-8.248-3.679s-8.245 0.089-8.245 3.679 4.511 3.682 8.245 3.682 8.248-0.092 8.248-3.682" fill="#fff"/></g><g transform="translate(513.27 485.57)"><path d="m0 0v78.92l-3.111-21.215 0.282-3.677 2.263 1.98" stroke="#000"/></g><g transform="translate(516.37 533.12)"><path d="m0 0h2.665v-22.176h-3.09l-10.348 17.914h-0.056v-17.914h-2.665v22.176h3.259l10.177-17.913h0.058z"/></g><g transform="translate(421.18 239.66)"><path d="m0 0c-0.373 0-0.741 0.064-1.095 0.192l-38.103 13.688c-1.68 0.603-2.556 2.462-1.952 4.141l27.901 77.671c0.46 1.283 1.686 2.144 3.048 2.144 0.372 0 0.74-0.065 1.094-0.191l38.103-13.689c0.815-0.292 1.466-0.884 1.835-1.666 0.368-0.782 0.41-1.661 0.117-2.475l-27.901-77.67c-0.46-1.283-1.685-2.145-3.047-2.145" fill="#fff"/></g><g transform="translate(410.98 337.62)"><path d="m0 0c-1.415 0-2.687-0.895-3.165-2.227l-27.902-77.67c-0.627-1.745 0.283-3.675 2.028-4.302l38.104-13.688c0.367-0.132 0.75-0.199 1.137-0.199 1.414 0 2.686 0.895 3.165 2.227l27.901 77.67c0.304 0.846 0.26 1.759-0.123 2.571-0.383 0.813-1.059 1.427-1.905 1.731l-38.103 13.688c-0.368 0.132-0.75 0.199-1.137 0.199m0-0.25c0.349 0 0.704-0.059 1.052-0.184l38.104-13.688c1.618-0.581 2.458-2.364 1.877-3.982l-27.902-77.671c-0.456-1.27-1.653-2.061-2.929-2.061-0.35 0-0.705 0.059-1.053 0.184l-38.103 13.688c-1.618 0.581-2.459 2.364-1.878 3.982l27.902 77.671c0.457 1.27 1.654 2.061 2.93 2.061"/></g><g transform="translate(420.65 241.43)"><path d="m0 0-38.096 13.685c-0.811 0.292-1.232 1.185-0.94 1.996l27.898 77.662c0.292 0.811 1.185 1.232 1.996 0.941l38.096-13.685c0.811-0.292 1.232-1.185 0.941-1.996l-27.899-77.662c-0.292-0.811-1.185-1.232-1.996-0.941" fill="#7d4802"/></g><g transform="translate(434.47 294.62)"><path d="m0 0c-0.113-0.316-0.46-0.48-0.775-0.367-0.316 0.114-0.48 0.461-0.366 0.777 0.113 0.315 0.46 0.478 0.776 0.365 0.315-0.113 0.478-0.46 0.365-0.775" fill="#7d4802"/></g><g transform="translate(424.73 295.93)"><path d="m0 0-3.13-8.712 3.939-1.414 3.129 8.711z" fill="#fff"/></g><g transform="translate(430.32 292.12)"><path d="m0 0-3.618 3.098-4.763-0.087c-0.824-0.015-1.175 1.042-0.506 1.523l7.798 5.605 2.448-9.286c0.211-0.797-0.733-1.389-1.359-0.853" fill="#fff"/></g><g transform="translate(425.15 278.21)"><path d="m0 0-4.023-5.709c0.022 0.046 0.048 0.088 0.065 0.136 0.284 0.789-0.127 1.657-0.916 1.941-0.788 0.283-1.657-0.126-1.941-0.915-0.283-0.788 0.127-1.657 0.915-1.941 0.567-0.204 1.172-0.045 1.575 0.35l-4.413-6.262 5.054-1.796c0.108 0.302 0.144 0.615 0.12 0.914-0.027 0.309 8e-3 0.631 0.12 0.942 0.111 0.31 0.289 0.582 0.507 0.803 0.208 0.216 0.38 0.48 0.488 0.781 0.108 0.3 0.144 0.613 0.121 0.912-0.028 0.309 8e-3 0.633 0.119 0.942 0.111 0.311 0.29 0.583 0.507 0.803 0.209 0.217 0.381 0.481 0.488 0.781 0.109 0.301 0.144 0.615 0.121 0.914-0.027 0.309 8e-3 0.631 0.119 0.942 0.112 0.31 0.29 0.583 0.508 0.802 0.208 0.216 0.38 0.481 0.488 0.782 0.108 0.3 0.144 0.614 0.121 0.913-0.028 0.308 7e-3 0.632 0.118 0.941 0.112 0.312 0.291 0.583 0.508 0.804 0.209 0.216 0.38 0.48 0.488 0.78zm-5.609-5.679c-0.342 0.123-0.519 0.5-0.397 0.841 0.123 0.342 0.5 0.52 0.842 0.397s0.519-0.5 0.397-0.842c-0.123-0.341-0.499-0.519-0.842-0.396m-1.395-0.574c-0.114 0.156-0.206 0.327-0.271 0.508l-4.038-5.728 0.504-0.181zm4.475 6.343-0.424 0.291-2.43-3.43c0.191-1e-3 0.385-0.028 0.577-0.087zm-10.332-8.574s1.969-1.382 4.119 1.545l5.341 7.625-2.04 1.428-5.335-7.591-0.524 1.912-0.323-0.489 0.515-1.928-1.754-2.507m17.73 7.737c0.145 0.404-0.066 0.851-0.47 0.996l-15.387 5.527c-0.404 0.146-0.851-0.065-0.996-0.469l-5.527-15.387c-0.145-0.404 0.065-0.851 0.469-0.996l15.387-5.528c0.404-0.145 0.851 0.066 0.996 0.47zm0.366-0.132-5.527-15.387c-0.217-0.604-0.89-0.921-1.494-0.704l-15.387 5.528c-0.605 0.217-0.922 0.889-0.705 1.493l5.528 15.387c0.217 0.605 0.889 0.922 1.494 0.705l15.387-5.528c0.604-0.217 0.921-0.889 0.704-1.494" fill="#fff"/></g><g transform="translate(392.47 257.43)"><path d="m0 0c-1.03 0.37-3.704 1.564-2.808 4.056 0.381 1.063 1.074 1.631 2.313 1.754l0.075-1.246c-0.674-0.182-0.973-0.285-1.206-0.931-0.55-1.534 1.592-2.285 2.052-2.45 0.454-0.163 2.613-0.971 3.186 0.626 0.201 0.559-0.021 1.002-0.442 1.436l0.808 0.958c0.871-0.779 1.222-1.686 0.824-2.794-0.947-2.637-3.91-1.729-4.802-1.409" fill="#fff"/></g><g transform="translate(395.73 265.21)"><path d="m0 0 0.717 1.995c-0.517 0.185-1.17 0.304-1.482-0.565-0.32-0.89 0.235-1.24 0.765-1.43m1.09-0.363c0.61-0.161 1.311-0.154 1.568 0.563 0.169 0.471 0.029 0.971-0.388 1.266l0.931 0.732c0.585-0.556 0.923-1.313 0.538-2.386-0.663-1.846-2.205-1.691-3.595-1.191-1.184 0.425-2.651 1.356-1.989 3.197 0.692 1.927 2.434 1.526 3.726 1.061l0.331-0.118z" fill="#fff"/></g><g transform="translate(400.37 270.86)"><path d="m0 0c0.148 0.412 0.173 0.722-0.01 1.107l-2.702 0.971c-0.445-0.189-0.591-0.43-0.71-0.762-0.318-0.883 0.521-1.464 1.293-1.741 0.748-0.269 1.841-0.375 2.129 0.425m-4.614 1.429c0.163 0.452 0.475 0.906 0.753 1.09l-1.724 0.62-0.15 1.361 7.463-2.681-0.416-1.158-0.155 0.056c0.077-0.434 0.062-0.72-0.085-1.131-0.584-1.624-2.107-1.74-3.626-1.195-1.399 0.503-2.627 1.459-2.06 3.038" fill="#fff"/></g><g transform="translate(402.48 276.72)"><path d="m0 0c0.134 0.374 0.137 0.805 0.104 1.036l-1.235 0.444c-0.185-0.184-0.45-0.539-0.585-0.914-0.161-0.447-0.13-0.914 0.462-1.127 0.728-0.261 1.089 0.1 1.254 0.561m-3.481 1.208c-0.194-0.541-0.073-1.138 0.209-1.564l-1.253 0.074c-0.204 0.616-0.226 1.293 0.045 2.049 0.372 1.036 1.348 1.762 2.614 1.308l3.577-1.285-0.405-1.128-0.155 0.056c0.091-0.235 1e-3 -0.724-0.147-1.135-0.387-1.077-1.408-1.751-2.699-1.287-1.055 0.379-1.424 1.519-0.994 2.716 0.091 0.253 0.314 0.621 0.493 0.821-0.28 0.101-0.982 0.218-1.285-0.625" fill="#fff"/></g><g transform="translate(401.24 284.11)"><path d="m0 0c-0.241-0.67 0.113-0.885 0.788-1.127l3.345-1.202-0.426-1.187-5.353 1.923 0.427 1.187 0.257-0.092c-0.155 0.376-0.238 0.551-0.09 0.964 0.145 0.403 0.368 0.538 0.639 0.644l0.973-0.524c-0.264-0.168-0.459-0.304-0.56-0.586" fill="#fff"/></g><g transform="translate(406.86 291.33)"><path d="m0 0-0.014 1.252c0.805 0.059 1.393 0.488 1.642 1.182 0.24 0.667-0.055 1.298-0.671 1.52-0.979 0.352-1.536-0.727-2.263-1.539-0.336-0.372-1.124-1.191-2.33-0.757-1.439 0.517-1.627 1.686-1.157 2.995 0.369 1.027 1.209 1.508 2.237 1.545l-0.061-1.138c-0.392-0.051-0.831-0.294-1.052-0.91-0.319-0.886 0.099-1.244 0.355-1.336 0.684-0.246 1.032 0.296 1.678 1.147 0.658 0.866 1.475 1.728 3.043 1.165 1.581-0.569 1.772-2.086 1.402-3.117-0.452-1.258-1.529-1.918-2.809-2.009" fill="#fff"/></g><g transform="translate(407.37 300)"><path d="m0 0 2.702-0.971c0.386 0.178 0.562 0.43 0.71 0.843 0.283 0.789-0.625 1.408-1.373 1.677-0.789 0.283-1.784 0.375-2.104-0.515-0.119-0.332-0.169-0.633 0.065-1.034m-1.05 1.71c0.557 1.552 2.178 1.494 3.512 1.015 1.516-0.545 2.618-1.602 2.038-3.215-0.146-0.407-0.315-0.641-0.651-0.921l1.709-0.614 0.096-1.363-7.414 2.663 0.423 1.176 0.174-0.062c-0.097 0.322-0.05 0.869 0.113 1.321" fill="#fff"/></g><g transform="translate(409.47 307.02)"><path d="m0 0c-0.241-0.67 0.113-0.885 0.788-1.127l3.345-1.202-0.426-1.187-5.353 1.923 0.427 1.187 0.257-0.092c-0.155 0.376-0.238 0.551-0.09 0.964 0.145 0.403 0.368 0.538 0.639 0.644l0.973-0.524c-0.264-0.168-0.459-0.304-0.56-0.586" fill="#fff"/></g><g transform="translate(409.29 309.52)"><path d="m0 0 0.421 1.172 5.353-1.923-0.421-1.172zm-1.504 0.505c-0.336 0.121-0.512 0.501-0.396 0.839 0.121 0.336 0.503 0.517 0.839 0.396 0.335-0.12 0.491-0.495 0.37-0.83-0.12-0.334-0.479-0.525-0.813-0.405" fill="#fff"/></g><g transform="translate(413.43 315.39)"><path d="m0 0c-0.692 0.249-1.015-0.158-1.237-0.776-0.059-0.164-0.23-0.935 0.577-1.225l3.5-1.257-0.426-1.184-5.352 1.923 0.416 1.158 0.18-0.064c-0.078 0.357-0.041 0.926 0.083 1.271l5e-3 0.013c0.362 1.009 1.368 1.768 2.541 1.346l3.681-1.322-0.416-1.159z" fill="#fff"/></g><g transform="translate(414.42 320.82)"><path d="m0 0c-0.318-0.885 0.521-1.462 1.294-1.74 0.748-0.268 1.841-0.373 2.128 0.426 0.148 0.412 0.175 0.723-0.01 1.106l-2.702 0.97c-0.446-0.189-0.591-0.43-0.71-0.762m-1.19 0.113c0.163 0.453 0.474 0.904 0.754 1.09l-0.18 0.065 0.416 1.157 5.054-1.816c0.686-0.247 2.706-0.75 2.102-3.503l-1.077-0.252c0.087 0.722 0.244 1.993-0.651 2.315l-0.642 0.23c0.08-0.436 0.065-0.718-0.083-1.13-0.583-1.623-2.112-1.741-3.635-1.194-1.399 0.503-2.625 1.461-2.058 3.038" fill="#fff"/></g><g transform="translate(420.88 324.65)"><path d="m0 0c-0.273-0.759-0.976-1.304-2.027-1.337l-0.033 1.137c0.545 0.017 0.867 0.236 0.992 0.584 0.13 0.359-0.081 0.646-0.437 0.774-1.139 0.409-1.361-2.008-3.186-1.353-0.906 0.326-1.268 1.161-0.921 2.126 0.249 0.694 0.846 1.105 1.637 1.12l0.022-1.138c-0.287 0.039-0.541-0.169-0.633-0.424-0.085-0.236-0.023-0.503 0.28-0.612 0.844-0.304 1.2 2.064 3.185 1.351 0.896-0.322 1.482-1.222 1.121-2.228" fill="#fff"/></g></g></g></svg>
