<?xml version="1.0" encoding="UTF-8"?>
<svg width="591.32" height="866.1" version="1.1" viewBox="0 0 591.32 866.1" xml:space="preserve" xmlns="http://www.w3.org/2000/svg"><defs><clipPath id="m"><path d="m27.391 45h512.61v694.96h-512.61z"/></clipPath><clipPath id="l"><path d="m27.391 45h512.61v694.96h-512.61z"/></clipPath><clipPath id="k"><path d="m143.31 522.83h84.593v23.169h-84.593z"/></clipPath><clipPath id="j"><path d="m143.68 523.58h83.968v21.37h-83.968z"/></clipPath><clipPath id="i"><path d="m143.31 522.83h77.599v23.169h-77.599z"/></clipPath><clipPath id="h"><path d="m143.68 523.58h76.478v18.13h-76.478z"/></clipPath><clipPath id="g"><path d="m219.88 539.22h4.968v3.148h-4.968z"/></clipPath><clipPath id="f"><path d="m220.13 539.47h4.468v2.648h-4.468z"/></clipPath><clipPath id="e"><path d="m224.28 536.19h3.622v9.003h-3.622z"/></clipPath><clipPath id="d"><path d="m224.53 536.44h3.122v8.504h-3.122z"/></clipPath><clipPath id="c"><path d="m27.391 45h512.61v694.96h-512.61z"/></clipPath><clipPath id="b"><path d="m27.391 45h512.61v694.96h-512.61z"/></clipPath><clipPath id="a"><path d="m27.391 45h512.61v694.96h-512.61z"/></clipPath></defs><g transform="matrix(1.3333 0 0 -1.3333 -85.772 933.65)"><g clip-path="url(#m)"><g transform="translate(217.51 61.075)"><path d="m0 0c39.944 44.806 61.941 102.54 61.941 162.56v169.28c0 93.528 76.091 169.62 169.62 169.62h5.444" fill="none" stroke="#b1b4b6" stroke-miterlimit="10" stroke-width="17.28"/></g><g transform="translate(228.81 51)"><path d="m0 0c42.419 47.582 65.78 108.89 65.78 172.64v169.28c0 85.316 69.162 154.48 154.48 154.48h5.445v52.56h-102.98c-31.449 0-56.943 25.495-56.943 56.943v43.104h-30.28v-66.527c0-15.897-5.441-33.52-20.337-33.52h-125.7v-52.56h122.25c13.138 0 23.789-10.65 23.789-23.789v-299.97c0-56.306-20.634-110.46-58.103-152.49z" fill="#b1b4b6"/></g><g transform="translate(224.71 54.66)"><path d="m0 0c41.52 46.573 64.386 106.58 64.386 168.98v169.28c0 88.212 71.765 159.98 159.98 159.98h5.444" fill="none" stroke="#ffd046" stroke-width="2"/></g><g transform="translate(118.28 549.9)"><path d="m0 0h336.24" fill="none" stroke="#b1b4b6" stroke-miterlimit="10" stroke-width="4"/></g><g transform="translate(118.28 597.46)"><path d="m0 0h336.24" fill="none" stroke="#b1b4b6" stroke-miterlimit="10" stroke-width="4"/></g><g transform="translate(118.28 584.82)"><path d="m0 0h336.24" fill="none" stroke="#b1b4b6" stroke-miterlimit="10" stroke-width="17.28"/></g><g transform="translate(118.28 562.54)"><path d="m0 0h336.24" fill="none" stroke="#b1b4b6" stroke-miterlimit="10" stroke-width="17.28"/></g><g transform="translate(454.51 552.9)"><path d="m0 0h-5.444" fill="none" stroke="#fff" stroke-miterlimit="10" stroke-width="2"/></g><g transform="translate(293.93 573.68)" fill="none" stroke-miterlimit="10"><path d="m0 0h160.59" stroke="#ffd046" stroke-width="5"/><path d="m0 0h160.59" stroke="#b1b4b6"/></g><g transform="translate(118.28 573.68)" fill="none" stroke-miterlimit="10"><path d="m0 0h133.43" stroke="#ffd046" stroke-width="5"/><path d="m0 0h133.43" stroke="#b1b4b6"/></g></g><text transform="matrix(.99976 .022022 .022022 -.99976 399.3 443.41)" fill="black" font-family="Helvetica" font-size="9px"><tspan x="0 7.0595865" y="0">OR</tspan></text><g clip-path="url(#l)"><g transform="translate(335.27 244.17)"><path d="m0 0c0 28.912-32.407 34.903-32.439 10.311" fill="none" stroke="#000" stroke-width=".75"/></g><g transform="translate(302.3 252.38)"><path d="m0 0c-0.261 0.869-0.5 1.434-0.778 2.131l2.648-7e-3c-0.118-0.248-0.524-1.259-0.788-2.127-0.283-0.928-0.477-1.77-0.547-2.316-0.067 0.546-0.257 1.39-0.535 2.319"/></g><g transform="translate(307.07 250.05)"><path d="m0 0-4e-3 -1.761-1.839 5e-3 -3e-3 -1.245-4.796 0.011 3e-3 1.246-1.839 4e-3 4e-3 1.761z"/></g><g transform="translate(223.67 244.17)"><path d="m0 0c0 28.912 32.407 34.903 32.439 10.311" fill="none" stroke="#000" stroke-width=".75"/></g><g transform="translate(255.56 252.38)"><path d="m0 0c-0.265 0.868-0.507 1.431-0.788 2.127l2.648 6e-3c-0.118-0.249-0.518-1.261-0.778-2.13-0.278-0.93-0.468-1.773-0.535-2.319-0.07 0.546-0.264 1.388-0.547 2.316"/></g><g transform="translate(260.34 250.07)"><path d="m0 0 4e-3 -1.761-1.838-4e-3 3e-3 -1.245-4.796-0.012-3e-3 1.245-1.839-5e-3 -5e-3 1.761z"/></g><g transform="translate(359.66 214.22)"><path d="m0 0-0.762-2.262h2.664v-1.902h-2.664l0.762-2.281-1.635-0.516-0.716 2.328-2.17-1.521-0.985 1.41 2.037 1.543-2.037 1.521 0.985 1.41 2.17-1.542 0.716 2.349z"/></g><g transform="translate(387.46 471.16)"><path d="m0 0c-15.303 4.176-32.21 35.209-24.691 41.24" fill="none" stroke="#000" stroke-width=".75"/></g><g transform="translate(364.77 513.31)"><path d="m0 0c-0.513-0.748-0.802-1.289-1.171-1.943l-1.657 2.066c0.268 0.064 1.31 0.382 2.151 0.721 0.9 0.362 1.678 0.74 2.146 1.028-0.383-0.395-0.92-1.072-1.469-1.872"/></g><g transform="translate(363.59 518.48)"><path d="m0 0 1.374 1.102 1.15-1.435 0.971 0.779 3.001-3.741-0.971-0.779 1.15-1.434-1.373-1.102z"/></g><g transform="translate(405.49 670.1)"><path d="m0 0 0.716-2.35 2.171 1.543 0.984-1.41-2.036-1.521 2.036-1.543-0.984-1.41-2.171 1.521-0.716-2.328-1.634 0.516 0.761 2.281h-2.663v1.902h2.663l-0.761 2.262z"/></g><g transform="translate(385.72 606.61)"><path d="m0 0c12.011 0 42.164-0.516 42.164 28.756" fill="none" stroke="#000" stroke-width=".75"/></g><g transform="translate(383.59 606.07)"><path d="m0 0c0.868-0.263 1.433-0.504 2.129-0.783v2.648c-0.249-0.118-1.261-0.521-2.129-0.783-0.929-0.28-1.771-0.473-2.317-0.541 0.546-0.068 1.388-0.261 2.317-0.541"/></g><g transform="translate(381.27 610.85)"><path d="m0 0h-1.761v-1.839h-1.245v-4.796h1.245v-1.839h1.761z"/></g><g transform="translate(269.81 633.48)"><path d="m0 0v66.528" fill="none" stroke="#ffd046" stroke-width="2"/></g><g transform="translate(289.09 223.64)"><path d="m0 0c0-62.394-22.866-122.4-64.386-168.98" fill="none" stroke="#fff" stroke-miterlimit="10" stroke-width="2"/></g><g transform="translate(279.45 700.01)"><path d="m0 0v-476.37c0-59.952-22.046-117.81-61.941-162.56" fill="none" stroke="#b1b4b6" stroke-miterlimit="10" stroke-width="17.28"/></g><g transform="translate(208.08 69.486)"><path d="m0 0c37.877 42.486 58.736 97.232 58.736 154.15v476.37" fill="none" stroke="#b1b4b6" stroke-miterlimit="10" stroke-width="4"/></g><g transform="translate(292.09 700.01)"><path d="m0 0v-476.37c0-63.131-23.136-123.85-65.146-170.97" fill="none" stroke="#b1b4b6" stroke-miterlimit="10" stroke-width="4"/></g><g transform="translate(279.45 700.01)"><path d="m0 0v-476.37c0-59.952-22.046-117.81-61.941-162.56" fill="none" stroke="#b1b4b6" stroke-miterlimit="10" stroke-width="4"/></g><g transform="translate(269.81 536.92)"><path d="m0 0h18.993" fill="none" stroke="#fff" stroke-width="6"/></g><g transform="translate(206.21 71.15)"><path d="m0 0c37.468 42.027 58.103 96.182 58.103 152.49v300.04c0 13.103-10.623 23.726-23.727 23.726h-122.31" fill="none" stroke="#000" stroke-miterlimit="10"/></g><g transform="translate(226.95 52.664)"><path d="m0 0c42.01 47.123 65.146 107.84 65.146 170.97v169.28c0 86.558 70.42 156.98 156.98 156.98h5.444" fill="none" stroke="#b1b4b6" stroke-miterlimit="10" stroke-width="4"/></g><g transform="translate(255.99 598.18)"><path d="m0 0c-3.349-2.356-7.341-3.723-12.013-3.723h-125.7" fill="none" stroke="#fff" stroke-miterlimit="10" stroke-width="2"/></g><g transform="translate(266.36 612.82)"><path d="m0 0c-2.27-6.124-5.695-11.346-10.374-14.638" fill="none" stroke="#ffd046" stroke-miterlimit="10" stroke-width="2"/></g><g transform="translate(269.81 633.48)"><path d="m0 0c0-7.094-1.114-14.354-3.451-20.659" fill="none" stroke="#ffd046" stroke-miterlimit="10" stroke-width="2"/></g><g transform="translate(118.28 599.96)"><path d="m0 0h125.7c14.896 0 20.337 17.623 20.337 33.519v66.528" fill="none" stroke="#000" stroke-miterlimit="10"/></g><g transform="translate(454.51 594.46)"><path d="m0 0h-102.98c-34.432 0-62.443 28.012-62.443 62.443v43.104" fill="none" stroke="#fff" stroke-miterlimit="10" stroke-width="2"/></g><g transform="translate(454.51 599.96)"><path d="m0 0h-102.98c-31.448 0-56.942 25.494-56.942 56.943v43.104" fill="none" stroke="#000" stroke-miterlimit="10"/></g><g transform="translate(228.81 51)"><path d="m0 0c42.419 47.582 65.78 108.89 65.78 172.64v169.28c0 85.316 69.162 154.48 154.48 154.48h5.445" fill="none" stroke="#000" stroke-miterlimit="10"/></g><g transform="translate(224.71 54.66)"><path d="m0 0c41.52 46.573 64.386 106.58 64.386 168.98v169.28c0 88.212 71.765 159.98 159.98 159.98h5.444" fill="none" stroke="#fff" stroke-miterlimit="10" stroke-width="2"/></g><g transform="translate(286.86 474.88)"><path d="m0 0c14.976 29.52 37.736 54.445 65.821 72.081 1.601 1.005 3.215 1.983 4.843 2.936" fill="none" stroke="#b1b4b6" stroke-miterlimit="10" stroke-width="4"/></g><g transform="translate(454.51 552.9)"><path d="m0 0h-5.444c-88.213 0-159.98-71.766-159.98-159.98" fill="none" stroke="#fff" stroke-miterlimit="10" stroke-width="2"/></g><g transform="translate(344.8 551.9)"><path d="m0 0h24.166c-7.383-2.595-15.025-5.945-21.868-10.526" fill="none" stroke="#fff" stroke-miterlimit="3" stroke-width="4"/></g><g transform="translate(289.09 497.37)"><path d="m0 0v55.53h55.708" fill="none" stroke="#fff" stroke-miterlimit="3" stroke-width="2"/></g><g transform="translate(300.67 495.12)"><path d="m0 0-10.581-21.12v23.372" fill="none" stroke="#fff" stroke-miterlimit="3" stroke-width="4"/></g><g transform="translate(118.28 552.73)"><path d="m0 0h133.43" fill="none" stroke="#fff" stroke-miterlimit="10" stroke-width="2"/></g><g transform="translate(294.59 545.41)"><path d="m0 0v-45.657c0-1.933 2.494-2.738 3.605-1.156 12.298 17.517 27.578 32.818 45.18 45.181 1.594 1.12 0.821 3.62-1.127 3.62h-45.67c-1.098 0-1.988-0.89-1.988-1.988" fill="#fff"/><path d="m0 0v-45.657c0-1.933 2.494-2.738 3.605-1.156 12.298 17.517 27.578 32.818 45.18 45.181 1.594 1.12 0.821 3.62-1.127 3.62h-45.67c-1.098 0-1.988-0.89-1.988-1.988z" fill="none" stroke="#000" stroke-miterlimit="1"/></g><g transform="translate(294.57 493.25)"><path d="m0 0-2.491 4.095-1.433-6.305 2.418-3.975 4.495 2.736 1.258 6.033z" fill="#fff"/></g><g transform="translate(347.6 540.62)"><path d="m0 0c-18.005-12.408-33.64-28.02-46.075-46.006" fill="none" stroke="#ffd046" stroke-width="2"/></g><g transform="translate(345.08 535.08)"><path d="m0 0 3.277 4.652 2.136-2.896z" fill="#fff"/></g><g transform="translate(347.72 531.5)"><path d="m0 0 3.278 4.651 2.135-2.895z" fill="#fff"/></g><g transform="translate(350.36 527.92)"><path d="m0 0 3.277 4.653 2.136-2.897z" fill="#fff"/></g><g transform="translate(353 524.34)"><path d="m0 0 3.278 4.651 2.135-2.895z" fill="#fff"/></g><g transform="translate(277.04 505.45)"><path d="m0 0c-1.574 2.162-3.147 4.323-4.721 6.483 1.77 1.573 3.539 3.145 5.309 4.717-0.393-1.375-0.787-2.752-1.18-4.127 2.301 0.113 4.02-0.336 5.308-1.474v6.781c-0.689-0.59-1.374-1.18-2.062-1.768 0.981 3.143 1.965 6.286 2.947 9.431 0.984-3.145 1.966-6.288 2.949-9.431-0.688 0.588-1.377 1.178-2.065 1.768v-15.917h-1.769v2.945c-0.078 2.777-1.281 4.509-4.128 4.718h-1.18c0.197-1.377 0.393-2.751 0.592-4.126" fill="#fff" fill-rule="evenodd"/></g><g transform="translate(188.84 564.45)"><path d="m0 0c2.162 1.574 4.323 3.146 6.483 4.721 1.573-1.77 3.145-3.539 4.717-5.309-1.375 0.393-2.752 0.787-4.127 1.18 0.113-2.301-0.336-4.02-1.474-5.308h6.781c-0.59 0.689-1.18 1.374-1.768 2.062 3.143-0.981 6.286-1.965 9.431-2.947-3.145-0.984-6.288-1.966-9.431-2.949 0.588 0.688 1.178 1.377 1.768 2.065h-15.917v1.769h2.945c2.778 0.078 4.509 1.281 4.718 4.128v1.18c-1.377-0.198-2.751-0.393-4.126-0.592" fill="#fff" fill-rule="evenodd"/></g><g transform="translate(387.6 586.73)"><path d="m0 0c-2.162 1.574-4.323 3.147-6.483 4.721-1.573-1.77-3.145-3.539-4.717-5.309 1.375 0.393 2.752 0.787 4.127 1.18-0.113-2.301 0.336-4.02 1.474-5.308h-6.781c0.59 0.689 1.18 1.374 1.768 2.062-3.143-0.981-6.286-1.965-9.431-2.947 3.145-0.984 6.288-1.966 9.431-2.949-0.588 0.688-1.178 1.377-1.768 2.065h15.917v1.769h-2.945c-2.778 0.078-4.509 1.281-4.718 4.128v1.18c1.377-0.197 2.751-0.393 4.126-0.592" fill="#fff" fill-rule="evenodd"/></g><g transform="translate(437.81 563.45)"><path d="m0 0h6.353v1.559l4.377-2.577-4.377-2.398v1.439h-6.353z"/></g><g transform="translate(448.54 583.89)"><path d="m0 0h-6.354v-1.559l-4.376 2.577 4.376 2.398v-1.439h6.354z"/></g><g transform="translate(278.43 685.15)"><path d="m0 0v6.354h-1.559l2.577 4.377 2.398-4.377h-1.439v-6.354z"/></g><g transform="translate(220.92 66.416)"><path d="m0 0 3.958 4.97-1.22 0.971 4.742 1.82-0.85-4.919-1.126 0.897-3.958-4.97z"/></g><g transform="translate(123.95 563.45)"><path d="m0 0h6.354v1.559l4.376-2.577-4.376-2.398v1.439h-6.354z"/></g><g transform="translate(134.68 583.89)"><path d="m0 0h-6.354v-1.559l-4.376 2.577 4.376 2.398v-1.439h6.354z"/></g><g transform="translate(375.38 552.9)" fill="none" stroke-width="2"><path d="m0 0h47.348" stroke="#b1b4b6"/><path d="m0 0h47.348" stroke="#fff" stroke-dasharray="4.32, 12.96"/></g><g transform="translate(341.86 658.6)"><path d="m0 0-0.716 2.35-2.171-1.543-0.984 1.41 2.036 1.521-2.036 1.543 0.984 1.411 2.171-1.522 0.716 2.328 1.634-0.516-0.761-2.281h2.663v-1.902h-2.663l0.761-2.262z"/></g><g transform="translate(255.67 424.02)"><path d="m0 0-0.716 2.35-2.171-1.543-0.985 1.41 2.037 1.521-2.037 1.543 0.985 1.41 2.171-1.521 0.716 2.328 1.634-0.516-0.761-2.281h2.663v-1.902h-2.663l0.761-2.262z"/></g><g transform="translate(166.37 513.51)"><path d="m0 0-0.716 2.35-2.171-1.543-0.984 1.41 2.036 1.521-2.036 1.543 0.984 1.41 2.171-1.521 0.716 2.328 1.634-0.516-0.761-2.281h2.663v-1.902h-2.663l0.761-2.262z"/></g><g transform="translate(349.48 410.36)"><path d="m0 0-0.716 2.35-2.171-1.543-0.985 1.41 2.037 1.521-2.037 1.543 0.985 1.41 2.171-1.521 0.716 2.328 1.634-0.516-0.761-2.281h2.663v-1.902h-2.663l0.761-2.262z"/></g><g transform="translate(330.24 410.36)"><path d="m0 0-0.716 2.35-2.171-1.543-0.984 1.41 2.036 1.521-2.036 1.543 0.984 1.41 2.171-1.521 0.716 2.328 1.634-0.516-0.761-2.281h2.663v-1.902h-2.663l0.761-2.262z"/></g><g clip-path="url(#k)"><g clip-path="url(#j)"><g clip-path="url(#i)"><g clip-path="url(#h)"><g transform="translate(220.16 540.71)"><path d="m0 0c-41.389 0.52-76.099 4.539-76.099-17.13" fill="none" stroke="#000" stroke-width=".75"/></g></g></g><g clip-path="url(#g)"><g clip-path="url(#f)"><g transform="translate(222.29 541.29)"><path d="m0 0c-0.863 0.278-1.424 0.529-2.115 0.82l-0.046-2.648c0.251 0.114 1.269 0.5 2.142 0.746 0.933 0.264 1.779 0.442 2.326 0.5-0.544 0.078-1.383 0.286-2.307 0.582"/></g></g></g><g clip-path="url(#e)"><g clip-path="url(#d)"><g transform="translate(224.53 536.48)"><path d="m0 0 1.761-0.031 0.032 1.839 1.245-0.022 0.084 4.795-1.245 0.022 0.032 1.838-1.76 0.031z"/></g></g></g></g></g><g transform="translate(304.19 545.7)"><path d="m0 0 0.9-1.513-1.58-0.94 0.636-1.07-4.122-2.452-0.636 1.07-1.58-0.94-0.901 1.513z"/></g><g transform="translate(320.92 502.85)"><path d="m0 0-0.708 0.711 17.588 17.518 0.708-0.71z" fill="#fff"/></g><g transform="translate(342.12 521.33)"><path d="m0 0 3.84 6.468-0.707 0.711-6.484-3.815-6.484-3.814 0.255-0.433 0.254-0.432 11.34 6.672-2.876-4.845-3.841-6.468 0.431-0.256 0.432-0.256z" fill="#fff"/></g><path d="m279.95 238.37h-1.003v24.824h1.003z" fill="#fff"/><g transform="translate(281.83 266.44)"><path d="m0 0-1.873 7.286h-1.003l-1.872-7.286-1.873-7.286 0.486-0.125 0.485-0.124 1.873 7.285 1.403 5.458 1.403-5.458 1.872-7.285 0.486 0.124 0.486 0.125z" fill="#fff"/></g></g><text transform="matrix(1 0 0 -1 427.48 472)" fill="black" font-family="Helvetica" font-size="8px"><tspan x="0 2.664 7.112 11.112 15.56 17.784 22.232 24.455999 28.455999 30.68 35.127998 39.576 41.799999 43.576 45.352001 49.799999 54.248001 56.472 58.248001 60.472 62.695999 67.143997" y="0">(use a stop line if a </tspan><tspan x="0 5.336 10.0824 16.3064 21.5 23.724001 27.724001 29.5 33.948002 38.396 40.619999 42.396 46.396 48.619999 50.396 54.844002 58.844002 61.068001 65.515999 67.292 69.068001 73.515999 77.963997" y="8.4960003">STOP sign is installed)</tspan></text><text transform="matrix(1 0 0 -1 298.27 691.51)" fill="black" font-family="Helvetica" font-size="10px"><tspan x="0 6.5500002 12.101 14.916 18.254999 23.855 29.485001 34.618999 40.18 42.959999 46.299 51.898998 60.296001" y="0">Entrance ramp</tspan><tspan x="-159.3 -152.104 -148.72701 -143.147 -138.022 -132.951 -129.573 -124.033 -118.453" y="88.629997">Crossroad</tspan><tspan x="-8.5100002 -1.677 3.3629999 5.6230001 8.401 11.181 14.52 20.120001 28.516001" y="538.37">Exit ramp</tspan></text><g clip-path="url(#c)"><g transform="translate(256.3 544.08)"><path d="m0 0c41.592 55.923-6.532 63.983-20.131 73.292" fill="none" stroke="#000" stroke-width=".75"/></g><g transform="translate(255.42 542.07)"><path d="m0 0c0.732 0.536 1.264 0.841 1.906 1.229l-2.115 1.594c-0.056-0.27-0.342-1.321-0.655-2.172-0.335-0.911-0.688-1.699-0.962-2.177 0.383 0.395 1.043 0.953 1.826 1.526"/></g><g transform="translate(297.94 547.15)"><path d="m0 0c-11.802 19.262-33.377 59.918 13.645 85.072" fill="none" stroke="#000" stroke-width=".75"/></g><g transform="translate(299.54 545.63)"><path d="m0 0c-0.228 0.878-0.316 1.486-0.44 2.225l-2.261-1.378c0.231-0.152 1.102-0.805 1.777-1.41 0.723-0.647 1.326-1.267 1.669-1.697-0.226 0.502-0.501 1.321-0.745 2.26"/></g><g transform="translate(249.96 542.71)"><path d="m0 0-0.9-1.513 1.58-0.94-0.636-1.07 4.122-2.452 0.636 1.07 1.58-0.94 0.901 1.513-3.642 2.166z"/></g><g transform="translate(81.002 397.65)"><path d="m0 0h6.353v1.559l4.377-2.577-4.377-2.398v1.439h-6.353z"/></g><g transform="translate(83.378 365.28)"><path d="m0 0h-15.627v2.269h3.197c2.819 0.08 4.283 1.355 4.468 3.897l-1e-3 0.874-4.841-0.695 7.487 5.448 5.438-6.122-4.622 1.322c0.051-2.003-0.339-3.525-1.216-4.724h5.717l-1.978 2.31 11.022-3.444-11.023-3.448z" fill="#fff" fill-rule="evenodd"/></g><g transform="translate(78.096 377.41)"><path d="m0 0-0.367-0.267-6.486-4.721-1.634-1.188 2 0.289 2.731 0.392 0.824 0.118v-0.603c-0.175-2.388-1.52-3.553-4.231-3.629h-3.433v-2.769h15.334l-1.062-1.24-1.129-1.32 1.659 0.518 2.301 0.719 7.131 2.23 1.525 0.478-1.526 0.477-3.562 1.113-5.87 1.834-1.657 0.517 1.128-1.319 0.91-1.061 0.151-0.177h-4.704c0.678 1.105 1.003 2.453 1.002 4.141l1.498-0.428 1.974-0.565 1.653-0.471-1.142 1.284-4.717 5.309zm-0.072-0.671c1.572-1.77 3.144-3.539 4.716-5.309-1.375 0.393-2.752 0.787-4.127 1.18 0.114-2.301-0.336-4.02-1.474-5.309h6.781c-0.59 0.69-1.18 1.375-1.768 2.063 3.143-0.981 6.288-1.965 9.432-2.947-3.144-0.985-6.289-1.967-9.432-2.95 0.588 0.688 1.178 1.377 1.768 2.065h-15.92v1.769h2.947c2.778 0.078 4.51 1.282 4.717 4.129v1.18c-1.375-0.197-2.75-0.393-4.127-0.592 2.164 1.574 4.324 3.147 6.487 4.721"/></g><g transform="translate(84.772 359.45)"><path d="m0 0 2.262-0.762v2.664h1.902v-2.664l2.281 0.762 0.516-1.635-2.328-0.716 1.521-2.17-1.41-0.985-1.543 2.037-1.521-2.037-1.41 0.985 1.542 2.17-2.349 0.716z"/></g><g transform="translate(103.99 405.84)"><path d="m0 0h29.291" fill="none" stroke="#000" stroke-width=".75"/></g></g><text transform="matrix(1 0 0 -1 103.59 408.73)" fill="black" font-family="Helvetica" font-size="9px"><tspan x="0 5.0040002 10.008 15.012 20.016001 25.02" y="0">Legend</tspan><tspan x="-7.4790001 -0.98100001 1.017 4.0139999 9.0179996 13.518 16.02 18.018 23.021999 28.025999 30.528 35.532001 38.034 40.535999 43.037998 46.035 51.039001 55.539001 60.542999" y="15.354">Direction of travel</tspan><tspan x="-7.4790001 0.85769999 3.8547001 8.8586998 13.8627 18.866699 21.863701 30.033001 35.036999 39.536999 42.039001 47.042999 50.040001 53.036999 58.041" y="28.35">Wrong-Way arrow</tspan><tspan x="-7.4790001 -2.4749999 2.529 7.533 12.537 15.534 22.032 26.532 31.535999 34.037998 39.042 42.039001 45.035999 50.040001" y="41.346001">Lane-Use arrow</tspan><tspan x="-7.4790001 -0.477 4.527 7.0289998 9.0270004 14.031 19.035 24.039" y="54.341999">Optional</tspan></text><path d="m64.579 384.61h19.054v-1.249h-19.054z" fill="#fff"/><g transform="translate(83.883 384.86)"><path d="m0 0h-19.554v-1.75h19.554v1.25zm-0.5-1.25h-18.554v0.75h18.554z"/></g><g transform="translate(79.873 381.72)"><path d="m0 0 8.824 2.269-8.824 2.268 0.311 1.21 11.321-2.911v-1.137l-11.321-2.91z" fill="#fff"/></g><g transform="translate(80.004 387.77)"><path d="m0 0-0.124-0.484-0.094-0.363-0.093-0.363-0.125-0.485 0.485-0.124 5.445-1.4 2.195-0.564-2.195-0.564-5.445-1.4-0.485-0.125 0.125-0.484 0.093-0.363 0.094-0.363 0.124-0.484 0.484 0.124 5.446 1.4 5.445 1.4 0.376 0.096v1.525l-0.376 0.097-5.445 1.4-5.446 1.4zm0.36-0.609 5.445-1.4 5.446-1.399v-0.75l-5.446-1.4-5.445-1.399-0.094 0.363-0.093 0.363 5.446 1.399 4.079 1.049-4.079 1.048-5.446 1.4 0.093 0.363z"/></g><g clip-path="url(#b)"><g transform="translate(210.31 67.49)"><path d="m0 0c38.367 43.037 59.497 98.491 59.497 156.15v316.29" fill="none" stroke="#ffd046" stroke-width="2"/></g></g><text transform="matrix(1 0 0 -1 76.822 323.08)" fill="black" font-family="Helvetica" font-size="8px"><tspan x="0 5.776 10.224 12.448 16.896 19.120001 24 29.336 33.784 37.784 42.231998 48.896 53.344002 57.792 60.015999 62.240002 68.903999 73.351997 76.015999 80.015999 81.792 86.239998 90.688004 92.912003 97.360001 100.024 104.472 108.472 110.248 114.248 116.024 120.472 124.92 128.92 131.144 135.592 138.256 142.70399 144.92799 147.15199 151.60001 156.048 160.496 164.944 167.168 168.944 173.392" y="0">Note: Pavement marking provisions are found in </tspan><tspan x="24 29.336 33.784 36.448002 38.672001 40.896 45.344002 47.568001 49.647999 54.535999 58.984001 63.431999 65.655998 70.103996 74.552002 78.552002 83 89.664001 94.112 98.559998 100.784 103.008 109.672 114.12 116.784 120.784 122.56 127.008 131.45599 135.45599 137.67999 139.45599 141.23199 143.008 147.45599 151.45599 153.67999 156.34399 160.79201 163.01601 167.464 171.912" y="8.4960003">Part 3. The pavement markings illustrated </tspan><tspan x="24 28.448 32.896 35.119999 37.344002 41.792 43.568001 47.568001 49.792 52.015999 53.792 58.240002 62.688 65.351997 69.800003 72.024002 76.472 79.136002 83.584 85.807999 89.807999 94.255997 98.704002 104.48 108.928 111.152 113.376 117.824 120.488 122.712 126.712 128.48801 132.936 135.60001 137.37601 139.60001 141.37601 145.37601 149.82401 152.048 153.82401 158.272 162.72" y="16.992001">on this figure are shown for clarification </tspan><tspan x="24 28.448 32.896 35.560001 40.007999 44.456001 48.456001 52.903999 56.903999 59.127998 63.576 68.024002 69.800003 73.218399" y="25.488001">purposes only.</tspan></text><g transform="translate(332.67 369.88)"><path d="m0 0-9.769 9.716-0.036 13.778 9.716 9.768 13.777 0.036 9.769-9.716 0.036-13.777-9.753-9.805z" fill="#fff"/></g><g transform="translate(346.46 403.3)"><path d="m0 0h-13.896l-9.826-9.826v-13.896l9.826-9.826h13.896l9.826 9.826v13.896l-9.753 9.753zm-0.104-0.25 9.68-9.68v-13.688l-9.68-9.68h-13.688l-9.68 9.68v13.688l9.68 9.68z"/></g><g transform="translate(333 370.81)"><path d="m0 0-9.209 9.209v13.023l9.209 9.209h13.023l9.21-9.209v-13.023l-9.21-9.209z" fill="#c0311a"/></g><g clip-path="url(#a)"><g transform="translate(329.03 382.37)"><path d="m0 0c0.854 0 1.552 0.774 1.552 1.663-2e-3 2.347-4.113 2.341-4.113 5.336 0 1.585 1.242 2.859 2.832 2.859 1.553 0 2.757-1.197 2.795-2.86h-1.516c-0.038 0.772-0.582 1.275-1.28 1.275-0.738 0-1.319-0.54-1.319-1.274 0-0.659 0.414-0.922 0.928-1.245 1.49-0.899 3.186-1.984 3.186-4.092 0-1.783-1.359-3.208-3.066-3.208-1.94 0-3.104 1.641-3.104 3.442h1.555c0-0.938 0.464-1.896 1.55-1.896" fill="#fff"/></g><g transform="translate(336.3 381.02)"><path d="m0 0h-1.589v9.547h-2.016v1.469h5.621v-1.469h-2.016z" fill="#fff"/></g><g transform="translate(342.36 390.68)"><path d="m0 0c-0.314 0-1.734 0.065-1.734-4.139 0-4.235 1.42-4.17 1.734-4.17s1.732-0.065 1.732 4.17c0 4.204-1.418 4.139-1.732 4.139m-3.251-4.131c0 5.768 2.675 5.676 3.269 5.676 0.593 0 3.233 0.088 3.233-5.68 0-5.81-2.64-5.719-3.233-5.719-0.594 0-3.269-0.091-3.269 5.723" fill="#fff"/></g><g transform="translate(348.51 387.36)"><path d="m0 0h1.619c0.926 0 1.428 0.578 1.428 1.584 0 0.928-0.584 1.546-1.426 1.546h-1.621zm0-1.508v-4.832h-1.581v11.016h3.279c1.736 0 2.893-1.242 2.893-3.092 0-2.011-1.043-3.092-2.893-3.092z" fill="#fff"/></g><g transform="translate(232.96 394.95)"><path d="m0 0-9.768 9.716-0.037 13.778 9.717 9.768 13.777 0.036 9.768-9.716 0.036-13.777-9.752-9.805z" fill="#fff"/></g><g transform="translate(246.75 428.37)"><path d="m0 0h-13.896l-9.826-9.826v-13.896l9.826-9.826h13.896l9.826 9.826v13.896l-9.753 9.753zm-0.104-0.25 9.68-9.68v-13.688l-9.68-9.68h-13.688l-9.68 9.68v13.688l9.68 9.68z"/></g><g transform="translate(233.29 395.87)"><path d="m0 0-9.209 9.209v13.023l9.209 9.209h13.023l9.209-9.209v-13.023l-9.209-9.209z" fill="#c0311a"/></g><g transform="translate(229.32 407.44)"><path d="m0 0c0.854 0 1.552 0.774 1.552 1.663-2e-3 2.347-4.113 2.341-4.113 5.336 0 1.585 1.242 2.859 2.832 2.859 1.553 0 2.757-1.197 2.795-2.86h-1.516c-0.038 0.772-0.582 1.275-1.28 1.275-0.738 0-1.319-0.54-1.319-1.274 0-0.659 0.414-0.922 0.928-1.245 1.49-0.899 3.186-1.984 3.186-4.092 0-1.783-1.359-3.208-3.066-3.208-1.941 0-3.104 1.641-3.104 3.442h1.555c0-0.938 0.464-1.896 1.55-1.896" fill="#fff"/></g><g transform="translate(236.59 406.09)"><path d="m0 0h-1.589v9.547h-2.016v1.469h5.621v-1.469h-2.016z" fill="#fff"/></g><g transform="translate(242.65 415.75)"><path d="m0 0c-0.314 0-1.734 0.065-1.734-4.139 0-4.234 1.42-4.17 1.734-4.17s1.732-0.064 1.732 4.17c0 4.204-1.418 4.139-1.732 4.139m-3.251-4.131c0 5.768 2.675 5.676 3.269 5.676 0.593 0 3.233 0.088 3.233-5.68 0-5.81-2.64-5.719-3.233-5.719-0.594 0-3.269-0.091-3.269 5.723" fill="#fff"/></g><g transform="translate(248.8 412.43)"><path d="m0 0h1.619c0.926 0 1.428 0.578 1.428 1.584 0 0.928-0.584 1.546-1.426 1.546h-1.621zm0-1.508v-4.832h-1.581v11.016h3.279c1.736 0 2.893-1.242 2.893-3.092 0-2.011-1.043-3.092-2.893-3.092z" fill="#fff"/></g><g transform="translate(409.11 412.39)"><path d="m0 0-6.921 11.913 3.53 13.317 11.914 6.921 13.318-3.531 6.92-11.912-3.531-13.318-11.958-6.947z" fill="#fff"/></g><g transform="translate(417.66 444.7)"><path d="m0 0-0.09-0.052-11.855-6.844-0.089-0.052-0.027-0.1-3.543-13.223-0.027-0.1 0.052-0.089 6.844-11.855 0.052-0.09 0.1-0.027 13.223-3.543 0.1-0.026 0.089 0.051 11.855 6.845 0.09 0.052 0.027 0.1 3.543 13.222 0.027 0.1-0.052 0.09-6.845 11.855-0.051 0.089-0.1 0.027-13.223 3.543zm0.035-0.268 13.223-3.543 6.844-11.855-3.543-13.223-11.855-6.844-13.222 3.543-6.845 11.855 3.543 13.222z"/></g><g transform="translate(403.16 424.48)"><path d="m0 0 3.371 12.58 11.278 6.511 12.58-3.37 6.512-11.279-3.371-12.58-11.279-6.511-12.579 3.37z" fill="#c0311a"/></g><g transform="translate(411.19 433.7)"><path d="m0 0c0.427-0.739 1.446-0.957 2.216-0.512 2.032 1.174-0.029 4.732 2.565 6.23 1.373 0.792 3.097 0.353 3.892-1.024 0.776-1.345 0.342-2.986-1.079-3.851l-0.758 1.313c0.649 0.42 0.813 1.142 0.464 1.747-0.369 0.639-1.128 0.872-1.763 0.505-0.571-0.329-0.592-0.82-0.614-1.426-0.034-1.74-0.125-3.751-1.951-4.805-1.544-0.892-3.458-0.428-4.312 1.051-0.97 1.68-0.13 3.509 1.43 4.409l0.777-1.346c-0.812-0.469-1.41-1.35-0.867-2.291" fill="#fff"/></g><g transform="translate(413.66 426.73)"><path d="m0 0-0.794 1.376 8.267 4.773-1.008 1.746 1.273 0.735 2.81-4.868-1.272-0.734-1.008 1.745z" fill="#fff"/></g><g transform="translate(425.05 426.31)"><path d="m0 0c-0.157 0.272-0.811 1.534-4.452-0.568-3.666-2.117-2.901-3.315-2.744-3.586 0.157-0.272 0.81-1.533 4.477 0.584 3.641 2.102 2.876 3.298 2.719 3.57m-5.203 0.75c4.995 2.884 6.253 0.521 6.55 7e-3s1.693-2.756-3.303-5.64c-5.031-2.905-6.272-0.573-6.569-0.059-0.296 0.514-1.713 2.785 3.322 5.692" fill="#fff"/></g><g transform="translate(425.25 419.32)"><path d="m0 0 0.81-1.402c0.462-0.802 1.214-0.948 2.085-0.445 0.804 0.464 1.047 1.279 0.626 2.008l-0.81 1.404zm-1.306-0.754-4.184-2.416-0.791 1.369 9.54 5.508 1.64-2.839c0.868-1.504 0.371-3.127-1.232-4.052-1.741-1.005-3.199-0.643-4.124 0.96z" fill="#fff"/></g><g transform="translate(384.03 454.45)"><path d="m0 0c-0.709 0-1.344 0.367-1.698 0.98-0.355 0.615-0.355 1.348 0 1.961l13.344 23.113c0.354 0.614 0.99 0.98 1.699 0.98 0.708 0 1.343-0.366 1.698-0.98l13.344-23.113c0.354-0.614 0.353-1.347-1e-3 -1.961-0.355-0.614-0.989-0.98-1.698-0.98z" fill="#fff"/></g><g transform="translate(397.37 481.61)"><path d="m0 0c-0.754 0-1.429-0.39-1.807-1.043l-13.344-23.112c-0.377-0.654-0.377-1.433 1e-3 -2.086 0.377-0.654 1.052-1.043 1.806-1.043h26.688c0.754 0 1.429 0.389 1.806 1.043 0.378 0.653 0.378 1.433 0 2.086l-13.343 23.112c-0.378 0.653-1.053 1.043-1.807 1.043m0-0.25c0.618 0 1.237-0.306 1.59-0.918l13.344-23.112c0.707-1.224-0.177-2.754-1.59-2.754h-26.688c-1.413 0-2.297 1.53-1.59 2.754l13.344 23.112c0.353 0.612 0.972 0.918 1.59 0.918"/></g><g transform="translate(384.03 454.45)"><path d="m0 0c-0.709 0-1.344 0.367-1.698 0.98-0.355 0.615-0.355 1.348 0 1.961l13.344 23.113c0.354 0.614 0.99 0.98 1.699 0.98 0.708 0 1.343-0.366 1.698-0.98l13.344-23.113c0.354-0.614 0.353-1.347-1e-3 -1.961-0.355-0.614-0.989-0.98-1.698-0.98z" fill="#fff"/></g><g transform="translate(397.37 481.61)"><path d="m0 0c-0.754 0-1.429-0.39-1.807-1.043l-13.344-23.112c-0.377-0.654-0.377-1.433 1e-3 -2.086 0.377-0.654 1.052-1.043 1.806-1.043h26.688c0.754 0 1.429 0.389 1.806 1.043 0.378 0.653 0.378 1.433 0 2.086l-13.343 23.112c-0.378 0.653-1.053 1.043-1.807 1.043m0-0.25c0.618 0 1.237-0.306 1.59-0.918l13.344-23.112c0.707-1.224-0.177-2.754-1.59-2.754h-26.688c-1.413 0-2.297 1.53-1.59 2.754l13.344 23.112c0.353 0.612 0.972 0.918 1.59 0.918"/></g><g transform="translate(384.03 455.26)"><path d="m0 0h26.688c0.883 0 1.435 0.956 0.994 1.721l-13.344 23.113c-0.442 0.765-1.546 0.765-1.988 0l-13.344-23.113c-0.441-0.765 0.111-1.721 0.994-1.721" fill="#c0311a"/></g><g transform="translate(391.98 459.85)"><path d="m0 0h10.788c0.883 0 1.435 0.956 0.993 1.721l-5.393 9.343c-0.442 0.765-1.546 0.765-1.988 0l-5.394-9.343c-0.441-0.765 0.111-1.721 0.994-1.721" fill="#fff"/></g><g transform="translate(395.46 466.77)"><path d="m0 0-0.199 0.344 1.08 0.623 0.966 1.341 0.209-0.36-0.63-0.901 1.09 0.103 0.213-0.369-1.649-0.158z" fill="#c0311a"/></g><g transform="translate(398.38 467.22)"><path d="m0 0 0.193-0.334-2.385-1.377-0.193 0.334z" fill="#c0311a"/></g><g transform="translate(398.87 466.36)"><path d="m0 0 0.649-1.125-0.335-0.193-0.45 0.781-0.603-0.348 0.286-0.495-0.326-0.189-0.286 0.495-0.787-0.454 0.504-0.873-0.334-0.193-0.703 1.217z" fill="#c0311a"/></g><g transform="translate(399.81 464.74)"><path d="m0 0 0.199-0.344-2.067-1.193 0.504-0.873-0.318-0.184-0.703 1.217z" fill="#c0311a"/></g><g transform="translate(400.72 462.38)"><path d="m0 0-0.154 0.267-1.716-0.99 0.138-0.238c0.161-0.279 0.365-0.351 1.088 0.066 0.838 0.484 0.75 0.712 0.644 0.895m-2.402-0.574 2.385 1.377 0.393-0.681c0.084-0.145 0.371-0.659-0.81-1.341-1.081-0.624-1.469-0.22-1.559-0.064z" fill="#c0311a"/></g><g transform="translate(412.45 489.77)"><path d="m0 0c-0.784 0-1.514 0.419-1.903 1.094l-14.458 25.043c-0.291 0.505-0.368 1.094-0.217 1.661 0.152 0.567 0.514 1.039 1.018 1.331l25.043 14.458c0.331 0.191 0.707 0.292 1.089 0.292 0.784 0 1.514-0.419 1.904-1.093l14.459-25.043c0.603-1.047 0.243-2.389-0.803-2.993l-25.042-14.458c-0.331-0.191-0.708-0.292-1.09-0.292" fill="#fff"/></g><g transform="translate(423.02 533.78)"><path d="m0 0c-0.404 0-0.802-0.107-1.152-0.309l-25.043-14.458c-1.105-0.639-1.486-2.057-0.847-3.163l14.458-25.043c0.412-0.713 1.183-1.156 2.011-1.156 0.404 0 0.802 0.107 1.152 0.308l25.043 14.459c0.534 0.308 0.916 0.808 1.077 1.407 0.16 0.599 0.079 1.222-0.229 1.756l-14.459 25.043c-0.412 0.713-1.182 1.156-2.011 1.156m0-0.25c0.715 0 1.413-0.37 1.795-1.031l14.458-25.043c0.568-0.984 0.228-2.254-0.756-2.822l-25.043-14.458c-0.323-0.187-0.677-0.275-1.027-0.275-0.715 0-1.413 0.37-1.794 1.031l-14.459 25.043c-0.568 0.984-0.228 2.253 0.756 2.821l25.043 14.459c0.323 0.186 0.677 0.275 1.027 0.275"/></g><g transform="translate(426.86 501.4)"><path d="m0 0c-0.68-0.601-1.43-1.144-2.247-1.616-0.817-0.471-1.662-0.85-2.523-1.138l-13.494 23.373c0.68 0.601 1.43 1.144 2.247 1.616 0.817 0.471 1.662 0.85 2.523 1.138zm-23.045 2.277c4.436-7.684 14.261-10.316 21.945-5.88s10.317 14.261 5.88 21.945c-4.436 7.684-14.261 10.316-21.945 5.88s-10.316-14.261-5.88-21.945" fill="#c0311a"/></g><g transform="translate(414.92 498.75)"><path d="m0 0 0.411-0.711 2.705 1.562-0.385 0.667c-0.334 0.578-1.144 0.363-1.892-0.069-0.356-0.205-1.198-0.826-0.839-1.449m4.12 0.594-3.975-2.295-0.828 1.434c-0.579 1.003 0.587 2.035 1.164 2.368 1.491 0.861 2.52 0.432 2.81-0.07z" fill="#fff"/></g><g transform="translate(415.63 503.93)"><path d="m0 0c-0.247 0.428-0.854 0.542-1.864-0.042-1.01-0.583-1.215-1.165-0.968-1.593s0.853-0.542 1.864 0.041c1.01 0.584 1.215 1.166 0.968 1.594m-2.227 0.587c0.142 0.083 2.039 1.218 2.872-0.224s-1.099-2.517-1.242-2.6c-0.142-0.082-2.039-1.217-2.872 0.225-0.832 1.442 1.099 2.517 1.242 2.599" fill="#fff"/></g><g transform="translate(410.04 508.72)"><path d="m0 0 2.692 1.554 0.362-0.627-3.975-2.295-0.362 0.627 1.7 2.917-2.538-1.466-0.363 0.628 3.975 2.295 0.322-0.558z" fill="#fff"/></g><g transform="translate(409.64 514.31)"><path d="m0 0c-0.247 0.428-0.854 0.542-1.864-0.041-1.01-0.584-1.215-1.166-0.968-1.594s0.853-0.542 1.864 0.041c1.01 0.584 1.215 1.166 0.968 1.594m-2.227 0.588c0.142 0.082 2.039 1.218 2.872-0.225 0.833-1.442-1.099-2.517-1.242-2.6-0.142-0.082-2.039-1.217-2.872 0.225-0.832 1.443 1.099 2.517 1.242 2.6" fill="#fff"/></g><g transform="translate(408.21 518.11)"><path d="m0 0 0.364-0.631-3.417-1.972 0.526-0.911-0.558-0.322-1.424 2.466 0.558 0.322 0.534-0.925z" fill="#fff"/></g><g transform="translate(426.54 506.56)"><path d="m0 0-1.351 2.34 0.627 0.363 0.99-1.714 0.976 0.564-0.668 1.156 0.642 0.371 0.667-1.157 1.089 0.629-1.062 1.838 0.642 0.37 1.423-2.465z" fill="#fff"/></g><g transform="translate(425.64 511.07)"><path d="m0 0 2.692 1.554 0.362-0.627-3.975-2.295-0.362 0.627 1.7 2.916-2.538-1.465-0.363 0.628 3.975 2.295 0.323-0.558z" fill="#fff"/></g><g transform="translate(425.9 516.84)"><path d="m0 0 0.364-0.63-3.417-1.973 0.526-0.911-0.558-0.322-1.424 2.466 0.558 0.322 0.534-0.925z" fill="#fff"/></g><g transform="translate(421.05 516.07)"><path d="m0 0-1.351 2.34 0.627 0.362 0.99-1.713 0.976 0.564-0.668 1.156 0.642 0.371 0.667-1.157 1.089 0.629-1.062 1.838 0.642 0.37 1.423-2.465z" fill="#fff"/></g><g transform="translate(420.02 521.55)"><path d="m0 0c-0.288 0.499-0.693 0.37-0.821 0.296-0.174-0.101-0.414-0.412-0.173-0.829l0.473-0.82 0.977 0.564zm1.097-0.419 1.73 0.998 0.362-0.627-3.975-2.295-0.83 1.438c-0.526 0.912 0.045 1.606 0.432 1.829 0.148 0.086 0.761 0.367 1.352-0.042l1.459 1.776 0.394-0.683-1.359-1.641z" fill="#fff"/></g><g transform="translate(322.28 619.89)"><path d="m0 0c-0.784 0-1.513 0.419-1.902 1.093l-14.459 25.043c-0.604 1.046-0.244 2.388 0.801 2.993l25.043 14.458c0.331 0.191 0.708 0.292 1.09 0.292 0.784 0 1.513-0.419 1.903-1.094l14.459-25.042c0.291-0.505 0.368-1.095 0.216-1.662s-0.513-1.039-1.018-1.331l-25.043-14.458c-0.331-0.191-0.708-0.292-1.09-0.292" fill="#fff"/></g><g transform="translate(332.85 663.89)"><path d="m0 0c-0.404 0-0.802-0.107-1.152-0.309l-25.043-14.458c-1.106-0.639-1.486-2.057-0.847-3.163l14.458-25.043c0.412-0.713 1.182-1.156 2.011-1.156 0.404 0 0.802 0.107 1.152 0.309l25.043 14.458c0.534 0.308 0.916 0.808 1.076 1.407 0.161 0.599 0.08 1.222-0.229 1.756l-14.458 25.043c-0.412 0.713-1.182 1.156-2.011 1.156m0-0.25c0.715 0 1.413-0.37 1.794-1.031l14.459-25.043c0.568-0.984 0.228-2.254-0.756-2.822l-25.043-14.458c-0.323-0.187-0.677-0.275-1.027-0.275-0.715 0-1.413 0.37-1.794 1.031l-14.459 25.043c-0.568 0.984-0.228 2.253 0.756 2.821l25.043 14.459c0.323 0.186 0.677 0.275 1.027 0.275"/></g><g transform="translate(337.87 650.96)"><path d="m0 0c0.601-0.68 1.144-1.43 1.616-2.247 0.471-0.817 0.85-1.662 1.138-2.523l-23.373-13.495c-0.601 0.681-1.144 1.431-1.616 2.248-0.471 0.817-0.85 1.662-1.138 2.523zm-2.277-23.045c7.684 4.436 10.316 14.261 5.88 21.945s-14.261 10.317-21.945 5.88c-7.684-4.436-10.316-14.261-5.88-21.945s14.261-10.316 21.945-5.88" fill="#c0311a"/></g><g transform="translate(340.53 639.02)"><path d="m0 0 0.711 0.411-1.562 2.705-0.667-0.385c-0.578-0.334-0.363-1.144 0.069-1.892 0.205-0.356 0.826-1.198 1.449-0.839m-0.594 4.12 2.295-3.975-1.434-0.828c-1.003-0.579-2.035 0.587-2.368 1.164-0.861 1.491-0.432 2.52 0.07 2.81z" fill="#fff"/></g><g transform="translate(335.34 639.73)"><path d="m0 0c-0.428-0.247-0.542-0.854 0.042-1.864 0.583-1.01 1.165-1.215 1.593-0.968s0.542 0.853-0.041 1.864c-0.584 1.01-1.166 1.215-1.594 0.968m-0.587-2.227c-0.083 0.142-1.218 2.039 0.224 2.872s2.517-1.099 2.6-1.242c0.082-0.142 1.217-2.039-0.225-2.872-1.442-0.832-2.517 1.099-2.599 1.242" fill="#fff"/></g><g transform="translate(330.56 634.14)"><path d="m0 0-1.554 2.692 0.627 0.362 2.295-3.975-0.627-0.362-2.917 1.7 1.466-2.538-0.628-0.363-2.295 3.975 0.558 0.322z" fill="#fff"/></g><g transform="translate(324.96 633.73)"><path d="m0 0c-0.428-0.247-0.542-0.854 0.041-1.864 0.584-1.01 1.166-1.215 1.594-0.968s0.542 0.853-0.041 1.864c-0.584 1.01-1.166 1.215-1.594 0.968m-0.588-2.227c-0.082 0.142-1.218 2.039 0.225 2.872 1.442 0.833 2.517-1.099 2.6-1.242 0.082-0.142 1.217-2.039-0.225-2.872-1.443-0.832-2.517 1.099-2.6 1.242" fill="#fff"/></g><g transform="translate(321.17 632.31)"><path d="m0 0 0.631 0.364 1.972-3.417 0.911 0.526 0.322-0.558-2.466-1.424-0.322 0.558 0.925 0.534z" fill="#fff"/></g><g transform="translate(332.72 650.63)"><path d="m0 0-2.34-1.351-0.363 0.627 1.714 0.99-0.564 0.976-1.156-0.668-0.371 0.642 1.157 0.667-0.629 1.089-1.838-1.062-0.37 0.642 2.465 1.423z" fill="#fff"/></g><g transform="translate(328.21 649.74)"><path d="m0 0-1.554 2.692 0.627 0.362 2.295-3.975-0.627-0.362-2.916 1.701 1.465-2.539-0.628-0.363-2.295 3.975 0.558 0.323z" fill="#fff"/></g><g transform="translate(322.44 650)"><path d="m0 0 0.631 0.364 1.972-3.417 0.911 0.526 0.322-0.559-2.466-1.423-0.322 0.558 0.925 0.534z" fill="#fff"/></g><g transform="translate(323.21 645.14)"><path d="m0 0-2.34-1.351-0.363 0.627 1.714 0.99-0.564 0.976-1.156-0.668-0.371 0.642 1.157 0.667-0.629 1.089-1.838-1.062-0.37 0.642 2.465 1.423z" fill="#fff"/></g><g transform="translate(317.73 644.12)"><path d="m0 0c-0.499-0.288-0.37-0.693-0.296-0.821 0.1-0.174 0.412-0.414 0.829-0.173l0.82 0.473-0.564 0.977zm0.419 1.097-0.998 1.73 0.627 0.362 2.295-3.975-1.438-0.83c-0.912-0.526-1.606 0.045-1.829 0.432-0.086 0.148-0.367 0.761 0.042 1.352l-1.776 1.459 0.683 0.394 1.641-1.359z" fill="#fff"/></g><g transform="translate(225.42 604.97)"><path d="m0 0c-0.381 0-0.758 0.101-1.089 0.292l-25.043 14.458c-0.505 0.292-0.866 0.764-1.018 1.331s-0.075 1.157 0.216 1.662l14.459 25.042c0.39 0.675 1.119 1.094 1.903 1.094 0.382 0 0.759-0.101 1.089-0.292l25.043-14.458c1.046-0.605 1.406-1.947 0.802-2.993l-14.459-25.042c-0.389-0.675-1.118-1.094-1.903-1.094" fill="#fff"/></g><g transform="translate(214.85 648.98)"><path d="m0 0c-0.829 0-1.599-0.443-2.011-1.156l-14.459-25.043c-0.638-1.106-0.258-2.525 0.848-3.163l25.043-14.459c0.349-0.201 0.748-0.308 1.152-0.308 0.828 0 1.599 0.443 2.011 1.156l14.458 25.043c0.308 0.533 0.39 1.157 0.229 1.756-0.16 0.599-0.543 1.099-1.076 1.407l-25.043 14.458c-0.35 0.202-0.748 0.309-1.152 0.309m0-0.25c0.35 0 0.704-0.089 1.027-0.275l25.043-14.459c0.984-0.568 1.324-1.837 0.756-2.821l-14.459-25.043c-0.381-0.661-1.079-1.031-1.794-1.031-0.35 0-0.704 0.088-1.027 0.275l-25.043 14.458c-0.984 0.568-1.324 1.838-0.756 2.822l14.458 25.043c0.382 0.661 1.08 1.031 1.795 1.031"/></g><g transform="translate(233.2 622.55)"><path d="m0 0c-0.288-0.861-0.667-1.706-1.138-2.523-0.472-0.817-1.015-1.567-1.616-2.247l-23.373 13.494c0.288 0.861 0.667 1.706 1.138 2.523 0.472 0.817 1.015 1.567 1.616 2.247zm-21.096-9.551c7.684-4.436 17.509-1.803 21.945 5.881 4.436 7.683 1.804 17.509-5.88 21.945s-17.509 1.803-21.945-5.88c-4.436-7.684-1.804-17.509 5.88-21.946" fill="#c0311a"/></g><g transform="translate(224.18 614.28)"><path d="m0 0 0.711-0.411 1.563 2.706-0.668 0.385c-0.578 0.334-1.172-0.257-1.604-1.005-0.206-0.356-0.625-1.316-2e-3 -1.675m3.271 2.575-2.295-3.975-1.434 0.827c-1.003 0.58-0.509 2.056-0.176 2.633 0.861 1.491 1.966 1.634 2.469 1.344z" fill="#fff"/></g><g transform="translate(222.2 619.13)"><path d="m0 0c-0.428 0.247-1.01 0.042-1.594-0.968-0.583-1.01-0.469-1.617-0.041-1.864 0.428-0.248 1.01-0.043 1.593 0.968 0.584 1.01 0.47 1.617 0.042 1.864m-2.223-0.605c0.083 0.143 1.158 2.075 2.6 1.242s0.307-2.73 0.224-2.872c-0.082-0.143-1.157-2.075-2.599-1.242s-0.307 2.73-0.225 2.872" fill="#fff"/></g><g transform="translate(214.97 620.48)"><path d="m0 0 1.554 2.692 0.627-0.362-2.295-3.976-0.627 0.363 0.015 3.376-1.466-2.539-0.628 0.363 2.295 3.975 0.558-0.322z" fill="#fff"/></g><g transform="translate(211.82 625.12)"><path d="m0 0c-0.428 0.247-1.01 0.042-1.594-0.968-0.583-1.01-0.469-1.617-0.041-1.864s1.01-0.043 1.594 0.968c0.583 1.01 0.469 1.617 0.041 1.864m-2.223-0.605c0.083 0.143 1.158 2.075 2.6 1.242s0.307-2.73 0.225-2.872c-0.083-0.143-1.158-2.075-2.6-1.242s-0.307 2.73-0.225 2.872" fill="#fff"/></g><g transform="translate(208.69 627.69)"><path d="m0 0 0.631-0.364-1.973-3.417 0.91-0.526-0.322-0.558-2.466 1.424 0.322 0.558 0.925-0.534z" fill="#fff"/></g><g transform="translate(230.33 626.86)"><path d="m0 0-2.34 1.351 0.362 0.628 1.713-0.989 0.564 0.976-1.156 0.667 0.37 0.642 1.156-0.668 0.629 1.089-1.839 1.061 0.371 0.641 2.465-1.423z" fill="#fff"/></g><g transform="translate(227.31 630.31)"><path d="m0 0 1.554 2.692 0.627-0.362-2.295-3.975-0.627 0.362 0.015 3.376-1.466-2.539-0.628 0.363 2.295 3.975 0.558-0.322z" fill="#fff"/></g><g transform="translate(224.64 635.44)"><path d="m0 0 0.631-0.364-1.973-3.417 0.91-0.526-0.322-0.558-2.466 1.424 0.323 0.558 0.924-0.534z" fill="#fff"/></g><g transform="translate(220.83 632.34)"><path d="m0 0-2.34 1.351 0.362 0.628 1.713-0.989 0.564 0.976-1.156 0.667 0.37 0.642 1.156-0.668 0.629 1.089-1.839 1.061 0.371 0.641 2.465-1.423z" fill="#fff"/></g><g transform="translate(217.2 636.58)"><path d="m0 0c-0.499 0.288-0.785-0.026-0.859-0.155-0.1-0.173-0.152-0.563 0.265-0.804l0.82-0.473 0.564 0.976zm1.16 0.185 0.998 1.73 0.627-0.362-2.294-3.975-1.438 0.83c-0.912 0.527-0.764 1.413-0.54 1.801 0.085 0.147 0.475 0.697 1.191 0.639l0.376 2.268 0.683-0.395-0.357-2.101z" fill="#fff"/></g><g transform="translate(206.67 214.82)"><path d="m0 0c-1.018 0-1.846 0.828-1.846 1.847v24.097c0 1.018 0.828 1.846 1.846 1.846h35.114c1.018 0 1.846-0.828 1.846-1.846v-24.097c0-1.019-0.828-1.847-1.846-1.847z" fill="#fff"/></g><g transform="translate(241.79 242.73)"><path d="m0 0h-35.113c-1.087 0-1.972-0.884-1.972-1.971v-24.098c0-1.087 0.885-1.971 1.972-1.971h35.113c1.087 0 1.971 0.884 1.971 1.971v24.098c0 1.087-0.884 1.971-1.971 1.971m0-0.25c0.947 0 1.721-0.775 1.721-1.721v-24.098c0-0.946-0.774-1.721-1.721-1.721h-35.113c-0.947 0-1.722 0.775-1.722 1.721v24.098c0 0.946 0.775 1.721 1.722 1.721z"/></g><g transform="translate(241.79 241.8)"><path d="m0 0c0.274 0 0.533-0.108 0.729-0.304s0.304-0.455 0.304-0.729v-24.097c0-0.274-0.108-0.533-0.304-0.729s-0.455-0.304-0.729-0.304h-35.113c-0.274 0-0.533 0.108-0.729 0.304s-0.304 0.455-0.304 0.729v24.097c0 0.274 0.108 0.533 0.304 0.729s0.455 0.304 0.729 0.304z" fill="#c0311a"/></g><g transform="translate(235.9 226.88)"><path d="m0 0 1.164-4.716 1.137 4.716h1.035l1.085-7.344h-1.189l-0.569 3.866-0.93-3.866h-1.138l-0.956 3.866-0.569-3.866h-1.189l1.086 7.344z" fill="#fff"/></g><g transform="translate(230.07 222.5)"><path d="m0 0c-0.922 0-1.067-0.665-1.067-0.901 0-0.321 0.24-0.903 1.011-0.903h1.515v1.804zm1.459 1.184v3.197h1.158v-7.344h-2.656c-1.684 0-2.189 1.346-2.189 2.062 0 0.273 0.101 1.347 1.14 1.839l-1.294 3.443h1.263l1.185-3.197z" fill="#fff"/></g><g transform="translate(223.96 225.82)"><path d="m0 0c-0.791 0-1.434-0.75-1.434-2.616 0-1.867 0.643-2.617 1.434-2.617s1.434 0.75 1.434 2.617c0 1.866-0.643 2.616-1.434 2.616m-2.596-2.616c0 0.263-0.056 3.8 2.609 3.8s2.609-3.537 2.609-3.8c0-0.264 0.056-3.8-2.609-3.8s-2.609 3.536-2.609 3.8" fill="#fff"/></g><g transform="translate(218.59 221.91)"><path d="m0 0v4.973h1.158v-7.344h-1.158l-2.68 4.69v-4.69h-1.161v7.344h1.031z" fill="#fff"/></g><g transform="translate(210.47 219.41)"><path d="m0 0c-1.177 0-1.84 0.446-2.337 1.623l1.108 0.437c0.309-0.644 0.618-0.876 1.185-0.876 1.614 0 1.521 2.457 1.521 2.628 0 0.277 0.062 2.603-1.366 2.603-0.747 0-1.289-0.464-1.289-1.134v-0.308h1.34v-1.161h-2.498v1.469c0 1.34 0.978 2.319 2.319 2.319 0.267 0 2.679 0.22 2.679-3.8 0-0.563-0.031-3.8-2.662-3.8" fill="#fff"/></g><g transform="translate(229.8 237.89)"><path d="m0 0 1.164-4.716 1.137 4.716h1.035l1.085-7.344h-1.189l-0.569 3.866-0.93-3.866h-1.138l-0.956 3.866-0.569-3.866h-1.189l1.086 7.344z" fill="#fff"/></g><g transform="translate(224.86 234.65)"><path d="m0 0h-1.477l0.726-2.061zm-1.891 1.185h2.306l0.726 2.062h1.244l-2.54-7.344h-1.167l-2.539 7.344h1.244z" fill="#fff"/></g><g transform="translate(216.8 237.89)"><path d="m0 0h1.166v-3.196l2.589-4.148h-1.399l-1.76 2.835-1.788-2.835h-1.372l2.564 4.148z" fill="#fff"/></g><g transform="translate(317.15 214.82)"><path d="m0 0c-1.018 0-1.846 0.828-1.846 1.847v24.097c0 1.018 0.828 1.846 1.846 1.846h35.113c1.019 0 1.847-0.828 1.847-1.846v-24.097c0-1.019-0.828-1.847-1.847-1.847z" fill="#fff"/></g><g transform="translate(352.27 242.73)"><path d="m0 0h-35.113c-1.087 0-1.972-0.884-1.972-1.971v-24.098c0-1.087 0.885-1.971 1.972-1.971h35.113c1.087 0 1.971 0.884 1.971 1.971v24.098c0 1.087-0.884 1.971-1.971 1.971m0-0.25c0.947 0 1.721-0.775 1.721-1.721v-24.098c0-0.946-0.774-1.721-1.721-1.721h-35.113c-0.947 0-1.722 0.775-1.722 1.721v24.098c0 0.946 0.775 1.721 1.722 1.721z"/></g><g transform="translate(352.27 241.8)"><path d="m0 0c0.274 0 0.533-0.108 0.729-0.304s0.304-0.455 0.304-0.729v-24.097c0-0.274-0.108-0.533-0.304-0.729s-0.455-0.304-0.729-0.304h-35.113c-0.274 0-0.533 0.108-0.729 0.304s-0.304 0.455-0.304 0.729v24.097c0 0.274 0.108 0.533 0.304 0.729s0.455 0.304 0.729 0.304z" fill="#c0311a"/></g><g transform="translate(346.39 226.88)"><path d="m0 0 1.164-4.716 1.137 4.716h1.035l1.085-7.344h-1.189l-0.569 3.866-0.93-3.866h-1.138l-0.956 3.866-0.569-3.866h-1.189l1.086 7.344z" fill="#fff"/></g><g transform="translate(340.55 222.5)"><path d="m0 0c-0.922 0-1.067-0.665-1.067-0.901 0-0.321 0.24-0.903 1.011-0.903h1.515v1.804zm1.459 1.184v3.197h1.158v-7.344h-2.656c-1.684 0-2.189 1.346-2.189 2.062 0 0.273 0.101 1.347 1.14 1.839l-1.294 3.443h1.263l1.185-3.197z" fill="#fff"/></g><g transform="translate(334.44 225.82)"><path d="m0 0c-0.791 0-1.434-0.75-1.434-2.616 0-1.867 0.643-2.617 1.434-2.617s1.434 0.75 1.434 2.617c0 1.866-0.643 2.616-1.434 2.616m-2.596-2.616c0 0.263-0.056 3.8 2.609 3.8s2.609-3.537 2.609-3.8c0-0.264 0.056-3.8-2.609-3.8s-2.609 3.536-2.609 3.8" fill="#fff"/></g><g transform="translate(329.07 221.91)"><path d="m0 0v4.973h1.158v-7.344h-1.158l-2.68 4.69v-4.69h-1.161v7.344h1.031z" fill="#fff"/></g><g transform="translate(320.95 219.41)"><path d="m0 0c-1.177 0-1.84 0.446-2.337 1.623l1.108 0.437c0.309-0.644 0.618-0.876 1.185-0.876 1.614 0 1.521 2.457 1.521 2.628 0 0.277 0.062 2.603-1.366 2.603-0.747 0-1.289-0.464-1.289-1.134v-0.308h1.341v-1.161h-2.499v1.469c0 1.34 0.978 2.319 2.319 2.319 0.267 0 2.679 0.22 2.679-3.8 0-0.563-0.031-3.8-2.662-3.8" fill="#fff"/></g><g transform="translate(340.28 237.89)"><path d="m0 0 1.164-4.716 1.137 4.716h1.035l1.085-7.344h-1.189l-0.569 3.866-0.93-3.866h-1.138l-0.956 3.866-0.569-3.866h-1.189l1.086 7.344z" fill="#fff"/></g><g transform="translate(335.34 234.65)"><path d="m0 0h-1.477l0.726-2.061zm-1.891 1.185h2.306l0.726 2.062h1.244l-2.54-7.344h-1.167l-2.539 7.344h1.244z" fill="#fff"/></g><g transform="translate(327.28 237.89)"><path d="m0 0h1.166v-3.196l2.589-4.148h-1.399l-1.76 2.835-1.788-2.835h-1.372l2.564 4.148z" fill="#fff"/></g><g transform="translate(129.6 488.83)"><path d="m0 0c-1.208 0-2.19 0.982-2.19 2.19v28.917c0 1.208 0.982 2.191 2.19 2.191h28.917c1.208 0 2.19-0.983 2.19-2.191v-28.917c0-1.208-0.982-2.19-2.19-2.19z" fill="#fff"/></g><g transform="translate(158.51 522.25)"><path d="m0 0h-28.917c-1.277 0-2.315-1.039-2.315-2.316v-28.917c0-1.276 1.038-2.315 2.315-2.315h28.917c1.277 0 2.316 1.039 2.316 2.315v28.917c0 1.277-1.039 2.316-2.316 2.316m0-0.25c1.136 0 2.066-0.93 2.066-2.066v-28.917c0-1.136-0.93-2.065-2.066-2.065h-28.917c-1.136 0-2.065 0.929-2.065 2.065v28.917c0 1.136 0.929 2.066 2.065 2.066z"/></g><g transform="translate(128.11 519.93)"><path d="m0 0c0 0.396 0.156 0.77 0.439 1.053s0.657 0.439 1.053 0.439h28.917c0.396 0 0.77-0.156 1.053-0.439s0.438-0.657 0.438-1.053v-28.917c0-0.396-0.155-0.77-0.438-1.053s-0.657-0.439-1.053-0.439h-28.917c-0.396 0-0.77 0.156-1.053 0.439s-0.439 0.657-0.439 1.053z"/></g><g transform="translate(128.91 519.93)"><path d="m0 0c0 0.184 0.07 0.352 0.203 0.485 0.134 0.133 0.301 0.204 0.486 0.204h28.916c0.185 0 0.352-0.071 0.486-0.204 0.133-0.133 0.203-0.301 0.203-0.485v-28.917c0-0.184-0.07-0.352-0.203-0.485-0.134-0.133-0.301-0.203-0.486-0.203h-28.916c-0.185 0-0.352 0.07-0.486 0.203-0.133 0.133-0.203 0.301-0.203 0.485z" fill="#fff"/></g><g transform="translate(152.43 501.64)"><path d="m0 0c0.077 0.111 0.121 0.245 0.121 0.39 0 0.381-0.308 0.689-0.688 0.689-0.087 0-0.17-0.017-0.247-0.046l-3.655-1.389-3.654 1.389c-0.077 0.029-0.16 0.046-0.247 0.046-0.38 0-0.689-0.308-0.689-0.689 0-0.145 0.045-0.279 0.122-0.39l4.468-6.495z"/></g><g transform="translate(149.68 501.25)"><path d="m0 0v6.981c0 1.521-1.233 2.754-2.754 2.754h-11.819v-3.443h11.13v-6.292z"/></g><g transform="translate(144.06 517.18)"><path d="m0 0c2.736 0 5.253-0.939 7.245-2.512l-16.438-16.438c-1.573 1.993-2.511 4.51-2.511 7.245 0 6.465 5.24 11.705 11.704 11.705m0-23.409c-2.736 0-5.253 0.939-7.245 2.512l16.438 16.438c1.573-1.993 2.511-4.51 2.511-7.246 0-6.464-5.24-11.704-11.704-11.704m14.458 11.704c0 7.986-6.473 14.459-14.458 14.459s-14.458-6.473-14.458-14.459c0-7.985 6.473-14.458 14.458-14.458s14.458 6.473 14.458 14.458" fill="#c0311a" fill-rule="evenodd"/></g><g transform="translate(413.42 636.92)"><path d="m0 0c-1.208 0-2.19 0.983-2.19 2.191v28.917c0 1.208 0.982 2.19 2.19 2.19h28.917c1.208 0 2.19-0.982 2.19-2.19v-28.917c0-1.208-0.982-2.191-2.19-2.191z" fill="#fff"/></g><g transform="translate(442.34 670.35)"><path d="m0 0h-28.917c-1.277 0-2.316-1.039-2.316-2.315v-28.917c0-1.277 1.039-2.316 2.316-2.316h28.917c1.277 0 2.315 1.039 2.315 2.316v28.917c0 1.276-1.038 2.315-2.315 2.315m0-0.25c1.136 0 2.065-0.93 2.065-2.065v-28.917c0-1.137-0.929-2.066-2.065-2.066h-28.917c-1.136 0-2.066 0.929-2.066 2.066v28.917c0 1.135 0.93 2.065 2.066 2.065z"/></g><g transform="translate(443.83 639.11)"><path d="m0 0c0-0.396-0.156-0.77-0.439-1.053s-0.657-0.439-1.053-0.439h-28.917c-0.396 0-0.77 0.156-1.053 0.439s-0.438 0.657-0.438 1.053v28.917c0 0.396 0.155 0.77 0.438 1.053s0.657 0.439 1.053 0.439h28.917c0.396 0 0.77-0.156 1.053-0.439s0.439-0.657 0.439-1.053z"/></g><g transform="translate(443.03 639.11)"><path d="m0 0c0-0.184-0.07-0.352-0.203-0.485-0.134-0.133-0.301-0.204-0.485-0.204h-28.917c-0.185 0-0.352 0.071-0.486 0.204-0.133 0.133-0.203 0.301-0.203 0.485v28.917c0 0.184 0.07 0.352 0.203 0.485 0.134 0.133 0.301 0.203 0.486 0.203h28.917c0.184 0 0.351-0.07 0.485-0.203 0.133-0.133 0.203-0.301 0.203-0.485z" fill="#fff"/></g><g transform="translate(419.51 649.75)"><path d="m0 0c-0.077 0.111-0.121 0.245-0.121 0.39 0 0.381 0.308 0.689 0.688 0.689 0.087 0 0.17-0.017 0.247-0.046l3.655-1.389 3.654 1.389c0.077 0.029 0.16 0.046 0.247 0.046 0.38 0 0.689-0.308 0.689-0.689 0-0.145-0.045-0.279-0.122-0.39l-4.468-6.495z"/></g><g transform="translate(425.7 649.36)"><path d="m0 0v5.606c0 0.379 0.307 0.686 0.686 0.686h10.445v3.443h-11.82c-1.521 0-2.754-1.233-2.754-2.754v-6.981z"/></g><g transform="translate(427.88 641.87)"><path d="m0 0c-2.736 0-5.253 0.939-7.245 2.512l16.438 16.438c1.573-1.993 2.511-4.51 2.511-7.245 0-6.465-5.24-11.705-11.704-11.705m0 23.409c2.736 0 5.253-0.939 7.245-2.512l-16.438-16.438c-1.573 1.993-2.512 4.51-2.512 7.246 0 6.464 5.241 11.704 11.705 11.704m-14.459-11.704c0-7.986 6.474-14.459 14.459-14.459s14.458 6.473 14.458 14.459c0 7.985-6.473 14.458-14.458 14.458s-14.459-6.473-14.459-14.458" fill="#c0311a" fill-rule="evenodd"/></g><g transform="translate(323.53 419.84)"><path d="m0 0c-1.019 0-1.847 0.828-1.847 1.846v40.622c0 1.018 0.828 1.846 1.847 1.846h13.081c1.019 0 1.847-0.828 1.847-1.846v-40.622c0-1.018-0.828-1.846-1.847-1.846z" fill="#fff"/></g><g transform="translate(336.62 464.27)"><path d="m0 0h-13.082c-1.086 0-1.971-0.884-1.971-1.971v-40.622c0-1.087 0.885-1.971 1.971-1.971h13.082c1.087 0 1.971 0.884 1.971 1.971v40.622c0 1.087-0.884 1.971-1.971 1.971m0-0.25c0.947 0 1.721-0.775 1.721-1.721v-40.622c0-0.946-0.774-1.721-1.721-1.721h-13.082c-0.946 0-1.721 0.775-1.721 1.721v40.622c0 0.946 0.775 1.721 1.721 1.721z"/></g><g transform="translate(322.5 462.3)"><path d="m0 0v-40.621c0-0.569 0.465-1.033 1.033-1.033h13.081c0.568 0 1.033 0.464 1.033 1.033v40.621c0 0.568-0.465 1.033-1.033 1.033h-13.081c-0.568 0-1.033-0.465-1.033-1.033"/></g><path d="m326.86 423.17h6.426v31.389h-6.426z" fill="#fff"/><g transform="translate(328.44 449.86)"><path d="m0 0c0-0.495 0.469-0.896 1.635-0.896 1.167 0 1.635 0.401 1.635 0.896s-0.468 0.896-1.635 0.896c-1.166 0-1.635-0.401-1.635-0.896m1.635-1.623c-0.165 0-2.375-0.035-2.375 1.631s2.21 1.631 2.375 1.631 2.375 0.035 2.375-1.631-2.21-1.631-2.375-1.631"/></g><g transform="translate(330.89 446.5)"><path d="m0 0h-3.108v0.724h4.59v-0.724l-2.931-1.675h2.931v-0.726h-4.59v0.645z"/></g><g transform="translate(332.37 443)"><path d="m0 0v-2.702h-0.725v1.978h-1.127v-1.335h-0.741v1.335h-1.256v-2.123h-0.741v2.847z"/></g><g transform="translate(327.78 434.64)"><path d="m0 0 2.947 0.728-2.947 0.71v0.647l4.59 0.678v-0.743l-2.416-0.356 2.416-0.581v-0.711l-2.416-0.597 2.416-0.356v-0.743l-4.59 0.679z"/></g><g transform="translate(329.81 431.55)"><path d="m0 0v-0.923l1.288 0.454zm-0.741-1.182v1.441l-1.288 0.454v0.778l4.59-1.588v-0.729l-4.59-1.587v0.777z"/></g><g transform="translate(327.78 427.07)"><path d="m0 0v0.729h1.997l2.593 1.618v-0.874l-1.772-1.101 1.772-1.117v-0.857l-2.593 1.602z"/></g><g transform="translate(330.08 461.73)"><path d="m0 0 6.258-9.11c0.508-0.739-0.232-1.694-1.075-1.386l-5.184 1.891h-1e-3l-5.185-1.891c-0.842-0.308-1.582 0.647-1.074 1.386l6.258 9.11z" fill="#fff"/></g><g transform="translate(342.77 419.84)"><path d="m0 0c-1.018 0-1.846 0.828-1.846 1.846v40.622c0 1.018 0.828 1.846 1.846 1.846h13.082c1.018 0 1.846-0.828 1.846-1.846v-40.622c0-1.018-0.828-1.846-1.846-1.846z" fill="#fff"/></g><g transform="translate(355.85 464.27)"><path d="m0 0h-13.082c-1.086 0-1.971-0.884-1.971-1.971v-40.622c0-1.087 0.885-1.971 1.971-1.971h13.082c1.087 0 1.971 0.884 1.971 1.971v40.622c0 1.087-0.884 1.971-1.971 1.971m0-0.25c0.947 0 1.721-0.775 1.721-1.721v-40.622c0-0.946-0.774-1.721-1.721-1.721h-13.082c-0.946 0-1.721 0.775-1.721 1.721v40.622c0 0.946 0.775 1.721 1.721 1.721z"/></g><g transform="translate(356.89 462.3)"><path d="m0 0v-40.621c0-0.569-0.465-1.033-1.033-1.033h-13.081c-0.568 0-1.033 0.464-1.033 1.033v40.621c0 0.568 0.465 1.033 1.033 1.033h13.081c0.568 0 1.033-0.465 1.033-1.033"/></g><path d="m352.53 423.17h-6.426v31.389h6.426z" fill="#fff"/><g transform="translate(350.95 427.11)"><path d="m0 0c0 0.495-0.469 0.896-1.635 0.896-1.167 0-1.635-0.401-1.635-0.896s0.468-0.896 1.635-0.896c1.166 0 1.635 0.401 1.635 0.896m-1.635 1.623c0.164 0 2.375 0.035 2.375-1.631s-2.211-1.631-2.375-1.631c-0.165 0-2.375-0.035-2.375 1.631s2.21 1.631 2.375 1.631"/></g><g transform="translate(348.5 430.46)"><path d="m0 0h3.108v-0.724h-4.59v0.724l2.931 1.675h-2.931v0.726h4.59v-0.645z"/></g><g transform="translate(347.02 433.97)"><path d="m0 0v2.702h0.725v-1.978h1.127v1.335h0.741v-1.335h1.256v2.123h0.741v-2.847z"/></g><g transform="translate(351.61 442.33)"><path d="m0 0-2.947-0.728 2.947-0.71v-0.647l-4.59-0.678v0.743l2.416 0.356-2.416 0.581v0.711l2.416 0.597-2.416 0.356v0.743l4.59-0.679z"/></g><g transform="translate(349.58 445.42)"><path d="m0 0v0.923l-1.288-0.454zm0.741 1.182v-1.441l1.288-0.454v-0.778l-4.59 1.588v0.729l4.59 1.587v-0.777z"/></g><g transform="translate(351.61 449.9)"><path d="m0 0v-0.729h-1.997l-2.593-1.618v0.874l1.772 1.101-1.772 1.117v0.857l2.593-1.602z"/></g><g transform="translate(349.31 461.73)"><path d="m0 0-6.258-9.11c-0.508-0.739 0.232-1.694 1.075-1.386l5.184 1.891h1e-3l5.185-1.891c0.842-0.308 1.582 0.647 1.074 1.386l-6.258 9.11z" fill="#fff"/></g><g transform="translate(223.59 443.95)"><path d="m0 0c-1.018 0-1.846 0.828-1.846 1.846v40.622c0 1.018 0.828 1.846 1.846 1.846h13.082c1.018 0 1.846-0.828 1.846-1.846v-40.622c0-1.018-0.828-1.846-1.846-1.846z" fill="#fff"/></g><g transform="translate(236.67 488.39)"><path d="m0 0h-13.081c-1.087 0-1.972-0.884-1.972-1.971v-40.622c0-1.087 0.885-1.971 1.972-1.971h13.081c1.087 0 1.971 0.884 1.971 1.971v40.622c0 1.087-0.884 1.971-1.971 1.971m0-0.25c0.947 0 1.721-0.775 1.721-1.721v-40.622c0-0.946-0.774-1.721-1.721-1.721h-13.081c-0.947 0-1.722 0.775-1.722 1.721v40.622c0 0.946 0.775 1.721 1.722 1.721z"/></g><g transform="translate(222.56 486.42)"><path d="m0 0v-40.621c0-0.569 0.465-1.033 1.033-1.033h13.081c0.568 0 1.033 0.464 1.033 1.033v40.621c0 0.568-0.465 1.033-1.033 1.033h-13.081c-0.568 0-1.033-0.465-1.033-1.033"/></g><path d="m226.92 447.29h6.426v31.389h-6.426z" fill="#fff"/><g transform="translate(228.5 473.98)"><path d="m0 0c0-0.495 0.469-0.896 1.635-0.896 1.167 0 1.635 0.401 1.635 0.896s-0.468 0.896-1.635 0.896c-1.166 0-1.635-0.401-1.635-0.896m1.635-1.623c-0.164 0-2.375-0.035-2.375 1.631s2.211 1.631 2.375 1.631c0.165 0 2.375 0.035 2.375-1.631s-2.21-1.631-2.375-1.631"/></g><g transform="translate(230.95 470.62)"><path d="m0 0h-3.108v0.724h4.59v-0.724l-2.931-1.675h2.931v-0.726h-4.59v0.645z"/></g><g transform="translate(232.43 467.12)"><path d="m0 0v-2.702h-0.725v1.978h-1.127v-1.335h-0.741v1.335h-1.256v-2.123h-0.741v2.847z"/></g><g transform="translate(227.84 458.75)"><path d="m0 0 2.947 0.728-2.947 0.71v0.647l4.59 0.678v-0.743l-2.416-0.356 2.416-0.581v-0.711l-2.416-0.597 2.416-0.356v-0.743l-4.59 0.679z"/></g><g transform="translate(229.87 455.66)"><path d="m0 0v-0.923l1.288 0.454zm-0.741-1.182v1.441l-1.288 0.454v0.778l4.59-1.588v-0.729l-4.59-1.587v0.777z"/></g><g transform="translate(227.84 451.19)"><path d="m0 0v0.729h1.997l2.593 1.618v-0.874l-1.772-1.101 1.772-1.117v-0.857l-2.593 1.602z"/></g><g transform="translate(230.14 485.85)"><path d="m0 0 6.258-9.11c0.508-0.739-0.232-1.694-1.075-1.386l-5.184 1.891h-1e-3l-5.185-1.891c-0.842-0.308-1.582 0.647-1.074 1.386l6.258 9.11z" fill="#fff"/></g><g transform="translate(242.83 443.95)"><path d="m0 0c-1.018 0-1.846 0.828-1.846 1.846v40.622c0 1.018 0.828 1.846 1.846 1.846h13.082c1.018 0 1.846-0.828 1.846-1.846v-40.622c0-1.018-0.828-1.846-1.846-1.846z" fill="#fff"/></g><g transform="translate(255.91 488.39)"><path d="m0 0h-13.082c-1.086 0-1.971-0.884-1.971-1.971v-40.622c0-1.087 0.885-1.971 1.971-1.971h13.082c1.087 0 1.971 0.884 1.971 1.971v40.622c0 1.087-0.884 1.971-1.971 1.971m0-0.25c0.947 0 1.721-0.775 1.721-1.721v-40.622c0-0.946-0.774-1.721-1.721-1.721h-13.082c-0.946 0-1.721 0.775-1.721 1.721v40.622c0 0.946 0.775 1.721 1.721 1.721z"/></g><g transform="translate(256.95 486.42)"><path d="m0 0v-40.621c0-0.569-0.465-1.033-1.033-1.033h-13.081c-0.568 0-1.033 0.464-1.033 1.033v40.621c0 0.568 0.465 1.033 1.033 1.033h13.081c0.568 0 1.033-0.465 1.033-1.033"/></g><path d="m252.59 447.29h-6.426v31.389h6.426z" fill="#fff"/><g transform="translate(251.01 451.23)"><path d="m0 0c0 0.495-0.469 0.896-1.635 0.896-1.167 0-1.635-0.401-1.635-0.896s0.468-0.896 1.635-0.896c1.166 0 1.635 0.401 1.635 0.896m-1.635 1.623c0.165 0 2.375 0.035 2.375-1.631s-2.21-1.631-2.375-1.631-2.375-0.035-2.375 1.631 2.21 1.631 2.375 1.631"/></g><g transform="translate(248.56 454.58)"><path d="m0 0h3.108v-0.724h-4.59v0.724l2.931 1.675h-2.931v0.726h4.59v-0.645z"/></g><g transform="translate(247.08 458.08)"><path d="m0 0v2.702h0.725v-1.978h1.127v1.335h0.741v-1.335h1.256v2.123h0.741v-2.847z"/></g><g transform="translate(251.67 466.45)"><path d="m0 0-2.947-0.728 2.947-0.71v-0.647l-4.59-0.678v0.743l2.416 0.356-2.416 0.581v0.711l2.416 0.597-2.416 0.356v0.743l4.59-0.679z"/></g><g transform="translate(249.64 469.54)"><path d="m0 0v0.923l-1.288-0.454zm0.741 1.182v-1.441l1.288-0.454v-0.778l-4.59 1.588v0.729l4.59 1.587v-0.777z"/></g><g transform="translate(251.67 474.01)"><path d="m0 0v-0.729h-1.997l-2.593-1.618v0.874l1.772 1.101-1.772 1.117v0.857l2.593-1.602z"/></g><g transform="translate(249.37 485.85)"><path d="m0 0-6.258-9.11c-0.508-0.739 0.232-1.694 1.075-1.386l5.184 1.891h1e-3l5.185-1.891c0.842-0.308 1.582 0.647 1.074 1.386l-6.258 9.11z" fill="#fff"/></g><g transform="translate(499.81 621.25)"><path d="m0 0v78.92l-3.111-21.215 0.282-3.677 2.263 1.98" stroke="#000"/></g><g transform="translate(502.91 668.79)"><path d="m0 0h2.665v-22.176h-3.09l-10.348 17.914h-0.056v-17.914h-2.665v22.176h3.259l10.177-17.913h0.058z"/></g><g transform="translate(249.37 489.76)"><path d="m0 0c0 10.785 40.671 41.753 17.362 41.753h-1.481" fill="none" stroke="#000" stroke-width=".75"/></g><g transform="translate(263.12 532.05)"><path d="m0 0c0.868 0.263 1.433 0.504 2.129 0.783v-2.648c-0.249 0.118-1.261 0.521-2.129 0.783-0.929 0.28-1.771 0.473-2.317 0.541 0.546 0.068 1.388 0.261 2.317 0.541"/></g><g transform="translate(251.39 531.46)"><path d="m0 0c-0.637-9e-3 -1.264-0.015-1.883-0.015-28.35 0-19.374-32.547-19.374-41.691" fill="none" stroke="#000" stroke-width=".75"/></g><g transform="translate(253.52 532.03)"><path d="m0 0c-0.871 0.253-1.438 0.489-2.137 0.761l0.028-2.649c0.248 0.121 1.255 0.535 2.12 0.806 0.926 0.29 1.767 0.491 2.312 0.566-0.547 0.062-1.391 0.246-2.323 0.516"/></g><g transform="translate(349.19 466.15)"><path d="m0 0c0 18.539-30.711 64.149-42.205 65.336" fill="none" stroke="#000" stroke-width=".75"/></g><g transform="translate(304.87 532)"><path d="m0 0c0.874 0.244 1.443 0.473 2.145 0.738l-0.056-2.648c-0.247 0.123-1.25 0.548-2.112 0.828-0.923 0.3-1.761 0.511-2.305 0.591 0.547 0.056 1.394 0.231 2.328 0.491"/></g><g transform="translate(330.07 466.02)"><path d="m0 0c0 18.699-69.28 65.068-36.95 65.487" fill="none" stroke="#000" stroke-width=".75"/></g><g transform="translate(295.26 530.95)"><path d="m0 0c-0.866-0.27-1.428-0.516-2.122-0.801l-0.022 2.648c0.25-0.116 1.265-0.511 2.135-0.765 0.931-0.273 1.775-0.458 2.322-0.522-0.546-0.073-1.387-0.272-2.313-0.56"/></g><g transform="translate(447.13 514.3)"><path d="m0 0c-0.661 0-1.275 0.353-1.604 0.921l-6.542 11.329c-0.507 0.882-0.205 2.013 0.676 2.522l35.179 20.313c0.278 0.161 0.596 0.246 0.918 0.246 0.661 0 1.276-0.353 1.604-0.922l6.541-11.328c0.509-0.882 0.207-2.013-0.675-2.523l-35.179-20.312c-0.278-0.161-0.596-0.246-0.918-0.246" fill="#fff"/></g><g transform="translate(475.76 549.76)"><path d="m0 0c-0.344 0-0.683-0.091-0.981-0.263l-35.178-20.312c-0.941-0.544-1.265-1.752-0.721-2.693l6.541-11.329c0.351-0.607 1.007-0.984 1.712-0.984 0.344 0 0.683 0.091 0.981 0.263l35.178 20.312c0.941 0.544 1.265 1.752 0.721 2.693l-6.541 11.329c-0.351 0.607-1.007 0.984-1.712 0.984m0-0.25c0.596 0 1.178-0.309 1.496-0.859l6.541-11.329c0.473-0.82 0.19-1.878-0.63-2.351l-35.178-20.313c-0.27-0.155-0.564-0.229-0.856-0.229-0.596 0-1.178 0.309-1.496 0.859l-6.541 11.329c-0.473 0.82-0.19 1.878 0.63 2.351l35.178 20.313c0.27 0.155 0.564 0.229 0.856 0.229"/></g><g transform="translate(475.25 548.68)"><path d="m0 0-35.178-20.313c-0.492-0.284-0.662-0.918-0.378-1.41l6.541-11.329c0.284-0.492 0.919-0.662 1.411-0.378l35.178 20.313c0.492 0.284 0.662 0.919 0.378 1.41l-6.541 11.329c-0.284 0.492-0.919 0.662-1.411 0.378"/></g><g transform="translate(470.72 541.04)"><path d="m0 0-27.183-15.696 3.214-5.565 27.182 15.696z" fill="#fff"/></g><g transform="translate(467.44 537.32)"><path d="m0 0c-0.428-0.247-0.542-0.854 0.042-1.864 0.583-1.01 1.165-1.215 1.593-0.968 0.429 0.247 0.542 0.853-0.041 1.864-0.584 1.01-1.166 1.215-1.594 0.968m-0.587-2.227c-0.083 0.142-1.219 2.039 0.224 2.872 1.442 0.833 2.517-1.099 2.6-1.242 0.082-0.142 1.217-2.039-0.225-2.872-1.442-0.832-2.517 1.099-2.599 1.242"/></g><g transform="translate(465.76 533.52)"><path d="m0 0-1.554 2.692 0.627 0.362 2.295-3.975-0.627-0.362-2.917 1.7 1.466-2.538-0.628-0.363-2.295 3.975 0.558 0.322z"/></g><g transform="translate(463.47 530.48)"><path d="m0 0-2.34-1.351-0.363 0.627 1.714 0.989-0.564 0.977-1.156-0.668-0.371 0.642 1.156 0.667-0.628 1.088-1.838-1.061-0.371 0.641 2.466 1.424z"/></g><g transform="translate(453.93 530.28)"><path d="m0 0 2.104-2.189-0.858 2.908 0.56 0.324 2.882-3.636-0.643-0.372-1.517 1.915 0.705-2.383-0.616-0.356-1.725 1.794 0.9-2.271-0.644-0.371-1.707 4.314z"/></g><g transform="translate(452.27 526.97)"><path d="m0 0-0.799-0.462 1.037-0.888zm-1.394 0.05 1.248 0.721-0.251 1.343 0.673 0.389 0.92-4.769-0.631-0.365-3.67 3.182 0.674 0.389z"/></g><g transform="translate(447.38 526.49)"><path d="m0 0 0.631 0.364 0.999-1.729 2.698-1.436-0.757-0.437-1.839 0.984-0.082-2.093-0.743-0.429 0.092 3.046z"/></g><g transform="translate(478.54 541.84)"><path d="m0 0-4.76-9.975c-0.386-0.809-1.583-0.645-1.738 0.238l-0.954 5.435-1e-3 1e-3 -4.23 3.544c-0.688 0.576-0.231 1.694 0.663 1.624l11.018-0.864c1e-3 -1e-3 1e-3 -2e-3 2e-3 -3e-3" fill="#fff"/></g><g transform="translate(485.28 541.96)"><path d="m0 0-0.716 2.35-2.171-1.543-0.984 1.41 2.036 1.521-2.036 1.543 0.984 1.41 2.171-1.521 0.716 2.328 1.634-0.516-0.761-2.281h2.663v-1.902h-2.663l0.761-2.262z"/></g><g transform="translate(387.46 471.16)"><path d="m0 0c-29.617 5.542-73.65 56.102-62.103 65.941" fill="none" stroke="#000" stroke-width=".75"/></g><g transform="translate(327.33 538.07)"><path d="m0 0c-0.49-0.763-0.764-1.313-1.112-1.977l-1.718 2.016c0.266 0.071 1.298 0.421 2.128 0.785 0.889 0.389 1.655 0.789 2.115 1.091-0.371-0.406-0.888-1.099-1.413-1.915"/></g><g transform="translate(326 543.21)"><path d="m0 0 1.34 1.142 1.193-1.4 0.948 0.808 3.11-3.65-0.948-0.808 1.193-1.4-1.34-1.142z"/></g><g transform="translate(254.09 530.3)"><path d="m0 0-5e-3 -1.261 4.237-0.012 4.236-0.013 6e-3 1.261z"/></g><g transform="translate(257.11 531.51)"><path d="m0 0c0 0.668 0.541 1.209 1.209 1.209s1.21-0.541 1.21-1.209-0.542-1.209-1.21-1.209-1.209 0.541-1.209 1.209"/></g><g transform="translate(259.53 527.28)"><path d="m0 0 1.261-5e-3 0.012 4.237 0.013 4.236-1.261 6e-3z"/></g><g transform="translate(257.11 535.75)"><path d="m0 0-1.261 5e-3 -0.012-4.237-0.013-4.236 1.261-6e-3z"/></g><g transform="translate(295.82 530.3)"><path d="m0 0-5e-3 -1.261 4.237-0.012 4.236-0.013 6e-3 1.261z"/></g><g transform="translate(298.85 531.51)"><path d="m0 0c0 0.668 0.541 1.209 1.209 1.209s1.21-0.541 1.21-1.209-0.542-1.209-1.21-1.209-1.209 0.541-1.209 1.209"/></g><g transform="translate(301.26 527.28)"><path d="m0 0 1.261-5e-3 0.012 4.237 0.013 4.236-1.261 6e-3z"/></g><g transform="translate(298.85 535.75)"><path d="m0 0-1.261 5e-3 -0.012-4.237-0.013-4.236 1.261-6e-3z"/></g><g transform="translate(389.89 528.92)"><path d="m0 0-0.63 1.092-7.336-4.24 0.63-1.092z"/></g><g transform="translate(387.88 526.36)"><path d="m0 0c0.336-0.577 0.14-1.318-0.437-1.654s-1.318-0.14-1.654 0.437c-0.336 0.578-0.14 1.318 0.437 1.654 0.578 0.336 1.318 0.14 1.654-0.437"/></g><g transform="translate(390.01 522.7)"><path d="m0 0 1.092 0.63-4.24 7.336-1.092-0.63z"/></g><g transform="translate(258.51 524.59)"><path d="m0 0c2.744-35.161 34.157-112.17-0.646-112.17" fill="none" stroke="#000" stroke-width=".75"/></g><g transform="translate(257.89 526.69)"><path d="m0 0c-0.219-0.88-0.432-1.456-0.677-2.165l2.645 0.131c-0.13 0.243-0.583 1.233-0.887 2.088-0.326 0.913-0.56 1.745-0.655 2.287-0.042-0.548-0.192-1.4-0.426-2.341"/></g><g transform="translate(300.03 524.71)"><path d="m0 0c-0.53-55.804-10.235-137.33 20.96-137.33" fill="none" stroke="#000" stroke-width=".75"/></g><g transform="translate(299.47 526.85)"><path d="m0 0c-0.279-0.863-0.531-1.423-0.823-2.114l2.648-0.049c-0.114 0.251-0.498 1.27-0.743 2.143-0.263 0.934-0.44 1.78-0.498 2.327-0.078-0.545-0.286-1.384-0.584-2.307"/></g><g transform="translate(392.72 529.41)"><path d="m0 0c9.179 5.249 13.342 2.131 15.974-2.451" fill="none" stroke="#000" stroke-width=".75"/></g><g transform="translate(391.23 527.78)"><path d="m0 0c0.873 0.246 1.479 0.346 2.216 0.485l-1.425 2.233c-0.146-0.234-0.782-1.118-1.373-1.806-0.632-0.736-1.239-1.351-1.662-1.702 0.497 0.236 1.31 0.527 2.244 0.79"/></g><g transform="translate(383.48 531.81)"><path d="m0 0c-15.299 33.601 64.519 26.011 72.78 8.217" fill="none" stroke="#000" stroke-width=".75"/></g><g transform="translate(385 530.2)"><path d="m0 0c-0.167 0.892-0.212 1.504-0.285 2.25l-2.351-1.219c0.22-0.167 1.043-0.879 1.676-1.529 0.676-0.695 1.235-1.355 1.547-1.808-0.191 0.516-0.408 1.353-0.587 2.306"/></g><g transform="translate(322.68 537.82)"><path d="m0 0-0.716 2.35-2.171-1.543-0.985 1.41 2.037 1.521-2.037 1.543 0.985 1.41 2.171-1.521 0.716 2.328 1.634-0.516-0.761-2.281h2.663v-1.902h-2.663l0.761-2.262z"/></g><g transform="translate(356.21 536.55)"><path d="m0 0c22.506 17.442-3.79-26.193 69.492-61.904" fill="none" stroke="#000" stroke-width=".75"/></g><g transform="translate(354.91 534.77)"><path d="m0 0c0.842 0.337 1.433 0.502 2.152 0.719l-1.655 2.067c-0.121-0.247-0.659-1.194-1.173-1.941-0.55-0.799-1.088-1.476-1.471-1.87 0.469 0.287 1.247 0.664 2.147 1.025"/></g></g></g></svg>
