<?xml version="1.0" encoding="UTF-8"?>
<svg width="667.29" height="831.1" version="1.1" viewBox="0 0 667.29 831.1" xml:space="preserve" xmlns="http://www.w3.org/2000/svg"><defs><clipPath id="g"><path d="m33.265 79.811h500.47v663.19h-500.47z"/></clipPath><clipPath id="f"><path d="m33.265 79.811h500.47v663.19h-500.47z"/></clipPath><clipPath id="e"><path d="m33.265 79.811h500.47v663.19h-500.47z"/></clipPath><clipPath id="d"><path d="m33.265 79.811h500.47v663.19h-500.47z"/></clipPath><clipPath id="c"><path d="m33.265 79.811h500.47v663.19h-500.47z"/></clipPath><clipPath id="b"><path d="m33.265 79.811h500.47v663.19h-500.47z"/></clipPath><clipPath id="a"><path d="m33.265 79.811h500.47v663.19h-500.47z"/></clipPath></defs><g transform="matrix(1.3333 0 0 -1.3333 -44.354 946.17)"><text transform="matrix(1 0 0 -1 92.176 241.5)" fill="black" font-family="Helvetica" font-size="9px"><tspan x="0 6.4980001 13.5 19.997999 26.000999 31.004999 37.007999 40.005001 46.007999 52.011002 54.513 59.850899 62.352901 64.854897 71.352898 76.851898 82.854897 89.352898 95.850899 102.3489 108.3519 114.8499 121.8519" y="0">DOUBLE-EXIT INTERCHANGE</tspan></text><g clip-path="url(#g)"><g transform="translate(49.98 253.99)"><path d="m0 0c-3.642 0-6.605 2.963-6.605 6.604v112.32c0 3.641 2.963 6.604 6.605 6.604h90.72c3.642 0 6.605-2.963 6.605-6.604v-112.32c0-3.641-2.963-6.604-6.605-6.604z" fill="#fff"/></g><g transform="translate(140.7 379.64)"><path d="m0 0h-90.72c-3.711 0-6.73-3.019-6.73-6.73v-112.32c0-3.711 3.019-6.73 6.73-6.73h90.72c3.711 0 6.73 3.019 6.73 6.73v112.32c0 3.711-3.019 6.73-6.73 6.73m0-0.25c3.579 0 6.48-2.901 6.48-6.48v-112.32c0-3.579-2.901-6.48-6.48-6.48h-90.72c-3.579 0-6.48 2.901-6.48 6.48v112.32c0 3.579 2.901 6.48 6.48 6.48z"/></g><g transform="translate(44.94 260.59)"><path d="m0 0v112.33c0 2.78 2.254 5.034 5.034 5.034h90.732c2.78 0 5.034-2.254 5.034-5.034v-112.33c0-2.78-2.254-5.034-5.034-5.034h-90.732c-2.78 0-5.034 2.254-5.034 5.034" fill="#005a9c"/></g><g transform="translate(91.29 262.3)"><path d="m0 0h-28.8v21.6h28.8z" fill="none" stroke="#fff" stroke-miterlimit="10" stroke-width=".5"/></g><g transform="translate(128.19 262.3)"><path d="m0 0h-28.8v21.6h28.8z" fill="none" stroke="#fff" stroke-miterlimit="10" stroke-width=".5"/></g><path d="m44.22 303.34h102.24v1.44h-102.24z" fill="#fff"/><path d="m75.284 368.11h3.6v-1.46h-3.6z" fill="#fff"/><g transform="translate(50.647 368.41)"><path d="m0 0c0 1.863 0.858 3.7 2.954 3.7 1.238 0 2.148-0.705 2.602-1.787l-1.338-0.504c-0.227 0.555-0.682 0.856-1.264 0.856-1.237 0-1.49-1.259-1.49-2.266 0-1.032 0.253-2.29 1.49-2.29 0.557 0 1.011 0.302 1.264 0.856h-0.859v1.435h2.476c-0.101-1.813-0.656-3.725-2.881-3.725-2.096 0-2.954 1.862-2.954 3.725" fill="#fff"/></g><g transform="translate(60.286 367.94)"><path d="m0 0h1.687l-0.806 2.013zm2.266-1.435h-2.845l-0.679-1.687h-1.537l2.896 7.2h1.485l2.896-7.2h-1.536z" fill="#fff"/></g><g transform="translate(71.684 366.93)"><path d="m0 0c0-0.755-0.404-1.485-1.036-1.838-0.429-0.252-1.187-0.402-1.869-0.402-0.808 0-1.591 0.226-2.222 0.654-0.227 0.125-0.38 0.251-0.708 0.554l1.01 1.007c0.607-0.554 1.162-0.781 1.996-0.781 0.833 0 1.414 0.278 1.414 0.781 0 0.201-0.127 0.478-0.328 0.604-0.253 0.15-0.505 0.226-1.44 0.403-0.758 0.174-1.212 0.327-1.516 0.528-0.478 0.328-0.783 0.957-0.783 1.561 0 0.73 0.379 1.385 1.011 1.762 0.404 0.252 0.884 0.352 1.516 0.352 0.808 0 1.566-0.177 2.172-0.554 0.151-0.1 0.227-0.151 0.455-0.327l-0.884-1.132c-0.582 0.428-1.112 0.579-1.794 0.579-0.657 0-1.061-0.227-1.061-0.68 0-0.653 0.831-0.549 1.783-0.784 1.074-0.265 2.284-0.832 2.284-2.287" fill="#fff"/></g><g transform="translate(82.484 372.01)"><path d="m0 0h5.231v-1.435h-3.823v-1.183h2.163v-1.435h-2.163v-1.712h3.923v-1.435h-5.331z" fill="#fff"/></g><g transform="translate(91.97 367.23)"><path d="m0 0-1.485-2.417h-1.661l2.265 3.802-2.064 3.399h1.687l1.258-2.04 1.208 2.04h1.711l-2.038-3.426 2.24-3.775h-1.687z" fill="#fff"/></g><path d="m96.604 372.02h1.44v-7.2h-1.44z" fill="#fff"/><g transform="translate(102.71 364.81)"><path d="m0 0h-1.382v5.765h-1.988v1.435h5.332v-1.435h-1.962z" fill="#fff"/></g><g transform="translate(120.07 364.75)"><path d="m0 0v4.884h-0.703v1.46c0.527 0.252 0.577 0.403 0.803 0.856h1.357v-7.2z" fill="#fff"/></g><g transform="translate(124.1 364.75)"><path d="m0 0v4.884h-0.703v1.46c0.527 0.252 0.577 0.403 0.803 0.856h1.357v-7.2z" fill="#fff"/></g><g transform="translate(113.56 368.24)"><path d="m0 0c1.129 0.82 2.656 0.937 2.656 1.651 0 0.428-0.581 0.73-1.415 0.73-0.732 0-1.212-0.176-1.92-0.73l-1.01 1.057c0.48 0.353 0.707 0.504 1.036 0.655 0.581 0.302 1.238 0.453 1.945 0.453 0.909 0 1.718-0.252 2.198-0.705 0.379-0.353 0.581-0.806 0.581-1.41 0-1.057-0.657-1.787-2.046-2.266-0.809-0.302-1.011-0.402-1.39-0.78-0.227-0.227-0.379-0.428-0.53-0.705h4.041v-1.435h-5.835c0 1.281 0.649 2.73 1.689 3.485" fill="#fff"/></g><g transform="translate(136.43 369.89)"><path d="m0 0-0.881-2.014h1.687zm2.065-5.136-0.68 1.687h-2.845l-0.68-1.687h-1.536l2.895 7.2h1.486l2.896-7.2z" fill="#fff"/></g><path d="m76.005 293.5h3.6v-1.46h-3.6z" fill="#fff"/><g transform="translate(51.368 293.8)"><path d="m0 0c0 1.863 0.858 3.7 2.954 3.7 1.238 0 2.148-0.705 2.602-1.787l-1.338-0.504c-0.227 0.555-0.682 0.856-1.264 0.856-1.237 0-1.49-1.259-1.49-2.266 0-1.032 0.253-2.29 1.49-2.29 0.557 0 1.011 0.302 1.264 0.856h-0.859v1.435h2.476c-0.101-1.813-0.656-3.725-2.881-3.725-2.096 0-2.954 1.862-2.954 3.725" fill="#fff"/></g><g transform="translate(61.007 293.33)"><path d="m0 0h1.687l-0.806 2.013zm2.266-1.435h-2.845l-0.679-1.687h-1.537l2.896 7.2h1.485l2.896-7.2h-1.536z" fill="#fff"/></g><g transform="translate(72.405 292.32)"><path d="m0 0c0-0.755-0.404-1.485-1.036-1.838-0.429-0.252-1.187-0.402-1.869-0.402-0.808 0-1.591 0.226-2.222 0.654-0.227 0.125-0.38 0.251-0.708 0.554l1.01 1.007c0.607-0.554 1.162-0.781 1.996-0.781 0.833 0 1.414 0.278 1.414 0.781 0 0.201-0.127 0.478-0.328 0.604-0.253 0.15-0.505 0.226-1.44 0.403-0.758 0.174-1.212 0.327-1.516 0.528-0.478 0.328-0.783 0.957-0.783 1.561 0 0.73 0.379 1.385 1.011 1.762 0.404 0.252 0.884 0.352 1.516 0.352 0.808 0 1.566-0.177 2.172-0.554 0.151-0.1 0.227-0.151 0.455-0.327l-0.884-1.132c-0.582 0.428-1.112 0.579-1.794 0.579-0.657 0-1.061-0.227-1.061-0.68 0-0.653 0.831-0.549 1.783-0.784 1.074-0.265 2.284-0.832 2.284-2.287" fill="#fff"/></g><g transform="translate(83.205 297.4)"><path d="m0 0h5.231v-1.435h-3.823v-1.183h2.163v-1.435h-2.163v-1.712h3.923v-1.435h-5.331z" fill="#fff"/></g><g transform="translate(92.691 292.62)"><path d="m0 0-1.485-2.417h-1.661l2.265 3.802-2.064 3.399h1.687l1.258-2.04 1.208 2.04h1.711l-2.038-3.426 2.24-3.775h-1.687z" fill="#fff"/></g><path d="m97.325 297.4h1.44v-7.2h-1.44z" fill="#fff"/><g transform="translate(103.43 290.2)"><path d="m0 0h-1.382v5.765h-1.987v1.435h5.331v-1.435h-1.962z" fill="#fff"/></g><g transform="translate(120.79 290.14)"><path d="m0 0v4.884h-0.703v1.46c0.527 0.252 0.577 0.403 0.804 0.856h1.356v-7.2z" fill="#fff"/></g><g transform="translate(124.82 290.14)"><path d="m0 0v4.884h-0.703v1.46c0.527 0.252 0.577 0.403 0.803 0.856h1.357v-7.2z" fill="#fff"/></g><g transform="translate(114.28 293.63)"><path d="m0 0c1.129 0.82 2.656 0.937 2.656 1.651 0 0.428-0.581 0.73-1.415 0.73-0.732 0-1.212-0.177-1.92-0.73l-1.01 1.057c0.48 0.353 0.707 0.504 1.036 0.655 0.581 0.302 1.238 0.453 1.945 0.453 0.909 0 1.718-0.252 2.198-0.705 0.379-0.353 0.581-0.806 0.581-1.41 0-1.057-0.657-1.787-2.046-2.266-0.809-0.302-1.011-0.402-1.39-0.78-0.227-0.227-0.379-0.428-0.53-0.705h4.041v-1.435h-5.835c0 1.281 0.649 2.73 1.689 3.485" fill="#fff"/></g><g transform="translate(137.41 293.14)"><path d="m0 0c-0.152 0.076-0.304 0.101-0.558 0.101h-1.954v-1.662h2.157c0.533 0 0.837 0.277 0.837 0.705 0 0.352-0.178 0.705-0.482 0.856m-0.406 2.769h-2.106v-1.233h1.979c0.457 0 0.787 0.302 0.787 0.679 0 0.353-0.229 0.554-0.66 0.554m1.243-5.488c-0.33-0.176-0.71-0.277-1.065-0.277h-3.705v7.2h3.375c0.634 0 0.862-0.05 1.243-0.277 0.609-0.327 0.99-1.007 0.99-1.712 0-0.553-0.178-1.007-0.584-1.384 0.558-0.453 0.812-1.007 0.812-1.687 0-0.78-0.406-1.485-1.066-1.863" fill="#fff"/></g><g transform="translate(91.29 309.01)"><path d="m0 0h-28.8v21.6h28.8z" fill="none" stroke="#fff" stroke-miterlimit="10" stroke-width=".5"/></g><g transform="translate(91.29 336.91)"><path d="m0 0h-28.8v21.6h28.8z" fill="none" stroke="#fff" stroke-miterlimit="10" stroke-width=".5"/></g><g transform="translate(128.19 309.01)"><path d="m0 0h-28.8v21.6h28.8z" fill="none" stroke="#fff" stroke-miterlimit="10" stroke-width=".5"/></g><g transform="translate(128.19 336.91)"><path d="m0 0h-28.8v21.6h28.8z" fill="none" stroke="#fff" stroke-miterlimit="10" stroke-width=".5"/></g><g transform="translate(178.23 253.99)"><path d="m0 0c-3.642 0-6.604 2.963-6.604 6.604v86.401c0 3.641 2.962 6.604 6.604 6.604h108c3.642 0 6.604-2.963 6.604-6.604v-86.401c0-3.641-2.962-6.604-6.604-6.604z" fill="#fff"/></g><g transform="translate(286.23 353.72)"><path d="m0 0h-108c-3.711 0-6.73-3.019-6.73-6.73v-86.4c0-3.711 3.019-6.73 6.73-6.73h108c3.711 0 6.73 3.019 6.73 6.73v86.4c0 3.711-3.019 6.73-6.73 6.73m0-0.25c3.579 0 6.48-2.901 6.48-6.48v-86.4c0-3.579-2.901-6.48-6.48-6.48h-108c-3.579 0-6.48 2.901-6.48 6.48v86.4c0 3.579 2.901 6.48 6.48 6.48z"/></g><g transform="translate(173.19 260.59)"><path d="m0 0v86.412c0 2.78 2.254 5.034 5.034 5.034h108.01c2.78 0 5.034-2.254 5.034-5.034v-86.412c0-2.78-2.254-5.034-5.034-5.034h-108.01c-2.78 0-5.034 2.254-5.034 5.034" fill="#005a9c"/></g><g transform="translate(209.73 262.3)"><path d="m0 0h-28.8v21.6h28.8z" fill="none" stroke="#fff" stroke-miterlimit="10" stroke-width=".5"/></g><g transform="translate(246.63 262.3)"><path d="m0 0h-28.8v21.6h28.8z" fill="none" stroke="#fff" stroke-miterlimit="10" stroke-width=".5"/></g><g transform="translate(283.53 262.3)"><path d="m0 0h-28.8v21.6h28.8z" fill="none" stroke="#fff" stroke-miterlimit="10" stroke-width=".5"/></g><path d="m172.47 303.34h119.52v1.44h-119.52z" fill="#fff"/><path d="m212.18 342.19h3.6v-1.46h-3.6z" fill="#fff"/><g transform="translate(187.54 342.49)"><path d="m0 0c0 1.863 0.859 3.7 2.955 3.7 1.237 0 2.147-0.705 2.601-1.788l-1.338-0.503c-0.227 0.555-0.682 0.856-1.263 0.856-1.238 0-1.491-1.259-1.491-2.266 0-1.032 0.253-2.29 1.491-2.29 0.556 0 1.01 0.302 1.263 0.855h-0.858v1.436h2.475c-0.1-1.813-0.656-3.725-2.88-3.725-2.096 0-2.955 1.862-2.955 3.725" fill="#fff"/></g><g transform="translate(197.18 342.02)"><path d="m0 0h1.687l-0.806 2.013zm2.266-1.436h-2.846l-0.678-1.686h-1.537l2.896 7.2h1.485l2.896-7.2h-1.536z" fill="#fff"/></g><g transform="translate(208.57 341.01)"><path d="m0 0c0-0.755-0.404-1.485-1.036-1.838-0.429-0.252-1.187-0.402-1.869-0.402-0.808 0-1.591 0.226-2.222 0.654-0.227 0.125-0.38 0.251-0.708 0.554l1.01 1.007c0.607-0.554 1.162-0.781 1.996-0.781 0.833 0 1.414 0.278 1.414 0.781 0 0.201-0.127 0.478-0.328 0.604-0.253 0.15-0.505 0.227-1.44 0.403-0.758 0.174-1.212 0.327-1.516 0.528-0.479 0.328-0.783 0.957-0.783 1.561 0 0.73 0.379 1.385 1.011 1.762 0.404 0.252 0.884 0.352 1.515 0.352 0.809 0 1.567-0.176 2.173-0.554 0.151-0.1 0.227-0.151 0.454-0.327l-0.883-1.132c-0.582 0.428-1.112 0.579-1.794 0.579-0.657 0-1.061-0.227-1.061-0.68 0-0.653 0.831-0.549 1.783-0.784 1.074-0.265 2.284-0.832 2.284-2.287" fill="#fff"/></g><g transform="translate(219.37 346.09)"><path d="m0 0h5.231v-1.435h-3.823v-1.183h2.163v-1.435h-2.163v-1.712h3.923v-1.435h-5.331z" fill="#fff"/></g><g transform="translate(228.86 341.31)"><path d="m0 0-1.485-2.417h-1.661l2.265 3.802-2.064 3.398h1.687l1.258-2.039 1.208 2.039h1.712l-2.039-3.425 2.24-3.775h-1.686z" fill="#fff"/></g><path d="m233.5 346.1h1.44v-7.2h-1.44z" fill="#fff"/><g transform="translate(239.6 338.89)"><path d="m0 0h-1.382v5.765h-1.987v1.435h5.331v-1.435h-1.962z" fill="#fff"/></g><g transform="translate(256.96 338.83)"><path d="m0 0v4.884h-0.703v1.46c0.527 0.252 0.577 0.403 0.803 0.856h1.357v-7.2z" fill="#fff"/></g><g transform="translate(260.99 338.83)"><path d="m0 0v4.884h-0.703v1.46c0.527 0.252 0.577 0.403 0.803 0.856h1.357v-7.2z" fill="#fff"/></g><g transform="translate(250.45 342.32)"><path d="m0 0c1.129 0.82 2.656 0.937 2.656 1.651 0 0.428-0.581 0.73-1.414 0.73-0.733 0-1.213-0.176-1.92-0.73l-1.011 1.057c0.48 0.352 0.707 0.504 1.036 0.655 0.581 0.302 1.238 0.453 1.945 0.453 0.909 0 1.718-0.252 2.198-0.705 0.379-0.353 0.581-0.806 0.581-1.41 0-1.057-0.657-1.787-2.046-2.266-0.809-0.302-1.011-0.402-1.39-0.78-0.227-0.227-0.379-0.428-0.53-0.705h4.042v-1.435h-5.836c0 1.281 0.649 2.73 1.689 3.485" fill="#fff"/></g><g transform="translate(273.32 343.97)"><path d="m0 0-0.881-2.014h1.687zm2.065-5.136-0.68 1.687h-2.845l-0.68-1.687h-1.536l2.895 7.2h1.486l2.896-7.2z" fill="#fff"/></g><path d="m212.9 293.5h3.6v-1.46h-3.6z" fill="#fff"/><g transform="translate(188.26 293.8)"><path d="m0 0c0 1.863 0.859 3.7 2.955 3.7 1.237 0 2.147-0.705 2.601-1.787l-1.338-0.504c-0.227 0.555-0.682 0.856-1.263 0.856-1.238 0-1.491-1.259-1.491-2.266 0-1.032 0.253-2.29 1.491-2.29 0.556 0 1.01 0.302 1.263 0.856h-0.858v1.435h2.475c-0.1-1.813-0.656-3.725-2.88-3.725-2.096 0-2.955 1.862-2.955 3.725" fill="#fff"/></g><g transform="translate(197.9 293.33)"><path d="m0 0h1.686l-0.805 2.013zm2.266-1.435h-2.846l-0.678-1.687h-1.537l2.896 7.2h1.485l2.896-7.2h-1.536z" fill="#fff"/></g><g transform="translate(209.3 292.32)"><path d="m0 0c0-0.755-0.404-1.485-1.036-1.838-0.429-0.252-1.187-0.402-1.869-0.402-0.808 0-1.591 0.226-2.222 0.654-0.227 0.125-0.38 0.251-0.708 0.554l1.01 1.007c0.607-0.554 1.162-0.781 1.996-0.781 0.833 0 1.414 0.278 1.414 0.781 0 0.201-0.127 0.478-0.328 0.604-0.253 0.15-0.505 0.226-1.44 0.403-0.758 0.174-1.212 0.327-1.516 0.528-0.479 0.328-0.783 0.957-0.783 1.561 0 0.73 0.379 1.385 1.011 1.762 0.404 0.252 0.884 0.352 1.515 0.352 0.809 0 1.566-0.177 2.173-0.554 0.151-0.1 0.227-0.151 0.454-0.327l-0.883-1.132c-0.582 0.428-1.112 0.579-1.794 0.579-0.657 0-1.061-0.227-1.061-0.68 0-0.653 0.831-0.549 1.783-0.784 1.074-0.265 2.284-0.832 2.284-2.287" fill="#fff"/></g><g transform="translate(220.1 297.4)"><path d="m0 0h5.231v-1.435h-3.823v-1.183h2.163v-1.435h-2.163v-1.712h3.923v-1.435h-5.331z" fill="#fff"/></g><g transform="translate(229.58 292.62)"><path d="m0 0-1.485-2.417h-1.661l2.265 3.802-2.064 3.399h1.687l1.258-2.04 1.208 2.04h1.711l-2.038-3.426 2.24-3.775h-1.686z" fill="#fff"/></g><path d="m234.22 297.4h1.44v-7.2h-1.44z" fill="#fff"/><g transform="translate(240.32 290.2)"><path d="m0 0h-1.382v5.765h-1.988v1.435h5.332v-1.435h-1.962z" fill="#fff"/></g><g transform="translate(257.68 290.14)"><path d="m0 0v4.884h-0.703v1.46c0.527 0.252 0.577 0.403 0.803 0.856h1.357v-7.2z" fill="#fff"/></g><g transform="translate(261.71 290.14)"><path d="m0 0v4.884h-0.703v1.46c0.527 0.252 0.577 0.403 0.804 0.856h1.356v-7.2z" fill="#fff"/></g><g transform="translate(251.17 293.63)"><path d="m0 0c1.129 0.82 2.656 0.937 2.656 1.651 0 0.428-0.581 0.73-1.414 0.73-0.733 0-1.213-0.177-1.92-0.73l-1.011 1.057c0.48 0.353 0.707 0.504 1.036 0.655 0.581 0.302 1.238 0.453 1.945 0.453 0.909 0 1.718-0.252 2.198-0.705 0.379-0.353 0.581-0.806 0.581-1.41 0-1.057-0.657-1.787-2.046-2.266-0.809-0.302-1.011-0.402-1.39-0.78-0.227-0.227-0.379-0.428-0.53-0.705h4.042v-1.435h-5.836c0 1.281 0.649 2.73 1.689 3.485" fill="#fff"/></g><g transform="translate(274.3 293.14)"><path d="m0 0c-0.152 0.076-0.305 0.101-0.558 0.101h-1.954v-1.662h2.157c0.533 0 0.837 0.277 0.837 0.705 0 0.352-0.177 0.705-0.482 0.856m-0.406 2.769h-2.106v-1.233h1.979c0.457 0 0.787 0.302 0.787 0.679 0 0.353-0.229 0.554-0.66 0.554m1.243-5.488c-0.33-0.176-0.71-0.277-1.065-0.277h-3.705v7.2h3.375c0.634 0 0.863-0.05 1.243-0.277 0.609-0.327 0.99-1.007 0.99-1.712 0-0.553-0.178-1.007-0.584-1.384 0.558-0.453 0.812-1.007 0.812-1.687 0-0.78-0.406-1.485-1.066-1.863" fill="#fff"/></g><g transform="translate(209.73 310.99)"><path d="m0 0h-28.8v21.6h28.8z" fill="none" stroke="#fff" stroke-miterlimit="10" stroke-width=".5"/></g><g transform="translate(246.63 310.99)"><path d="m0 0h-28.8v21.6h28.8z" fill="none" stroke="#fff" stroke-miterlimit="10" stroke-width=".5"/></g><g transform="translate(283.53 310.99)"><path d="m0 0h-28.8v21.6h28.8z" fill="none" stroke="#fff" stroke-miterlimit="10" stroke-width=".5"/></g></g><text transform="matrix(1 0 0 -1 152.45 323.92)" fill="black" font-family="Helvetica" font-size="9px"><tspan x="0 7.0019999" y="0">OR</tspan></text><g clip-path="url(#f)"><g transform="translate(325.37 253.99)"><path d="m0 0c-3.643 0-6.605 2.963-6.605 6.604v64.801c0 3.642 2.962 6.605 6.605 6.605h95.04c3.642 0 6.605-2.963 6.605-6.605v-64.801c0-3.641-2.963-6.604-6.605-6.604z" fill="#fff"/></g><g transform="translate(420.41 332.12)"><path d="m0 0h-95.04c-3.711 0-6.73-3.019-6.73-6.73v-64.8c0-3.711 3.019-6.73 6.73-6.73h95.04c3.711 0 6.73 3.019 6.73 6.73v64.8c0 3.711-3.019 6.73-6.73 6.73m0-0.25c3.579 0 6.48-2.901 6.48-6.48v-64.8c0-3.579-2.901-6.48-6.48-6.48h-95.04c-3.579 0-6.48 2.901-6.48 6.48v64.8c0 3.579 2.901 6.48 6.48 6.48z"/></g><g transform="translate(320.33 260.59)"><path d="m0 0v64.812c0 2.78 2.254 5.034 5.034 5.034h95.052c2.78 0 5.034-2.254 5.034-5.034v-64.812c0-2.78-2.254-5.034-5.034-5.034h-95.052c-2.78 0-5.034 2.254-5.034 5.034" fill="#005a9c"/></g><g transform="translate(368.84 289.39)"><path d="m0 0h-28.8v21.6h28.8z" fill="none" stroke="#fff" stroke-miterlimit="10" stroke-width=".5"/></g><g transform="translate(368.84 261.49)"><path d="m0 0h-28.8v21.6h28.8z" fill="none" stroke="#fff" stroke-miterlimit="10" stroke-width=".5"/></g><g transform="translate(405.74 289.39)"><path d="m0 0h-28.8v21.6h28.8z" fill="none" stroke="#fff" stroke-miterlimit="10" stroke-width=".5"/></g><g transform="translate(405.74 261.49)"><path d="m0 0h-28.8v21.6h28.8z" fill="none" stroke="#fff" stroke-miterlimit="10" stroke-width=".5"/></g><path d="m349.44 320.59h3.6v-1.46h-3.6z" fill="#fff"/><g transform="translate(324.81 320.89)"><path d="m0 0c0 1.863 0.858 3.7 2.955 3.7 1.237 0 2.147-0.705 2.601-1.787l-1.338-0.504c-0.227 0.555-0.682 0.856-1.263 0.856-1.238 0-1.491-1.259-1.491-2.266 0-1.032 0.253-2.29 1.491-2.29 0.556 0 1.01 0.302 1.263 0.855h-0.859v1.436h2.476c-0.1-1.813-0.656-3.725-2.88-3.725-2.097 0-2.955 1.862-2.955 3.725" fill="#fff"/></g><g transform="translate(334.45 320.42)"><path d="m0 0h1.687l-0.806 2.013zm2.266-1.435h-2.845l-0.679-1.687h-1.537l2.896 7.2h1.485l2.896-7.2h-1.536z" fill="#fff"/></g><g transform="translate(345.84 319.41)"><path d="m0 0c0-0.755-0.404-1.485-1.036-1.838-0.429-0.252-1.187-0.402-1.869-0.402-0.808 0-1.591 0.226-2.222 0.654-0.227 0.125-0.38 0.251-0.708 0.554l1.01 1.007c0.607-0.554 1.162-0.781 1.996-0.781 0.833 0 1.414 0.278 1.414 0.781 0 0.201-0.127 0.478-0.328 0.604-0.253 0.15-0.505 0.227-1.44 0.403-0.758 0.175-1.213 0.327-1.516 0.528-0.478 0.328-0.783 0.957-0.783 1.561 0 0.73 0.379 1.385 1.011 1.762 0.404 0.252 0.884 0.352 1.515 0.352 0.809 0 1.566-0.176 2.173-0.554 0.151-0.099 0.227-0.151 0.455-0.327l-0.884-1.132c-0.582 0.428-1.112 0.579-1.794 0.579-0.657 0-1.061-0.227-1.061-0.68 0-0.653 0.831-0.549 1.783-0.784 1.074-0.265 2.284-0.832 2.284-2.287" fill="#fff"/></g><g transform="translate(403.9 317.17)"><path d="m0 0c-2.097 0-2.956 1.863-2.956 3.726s0.859 3.701 2.956 3.701c1.238 0 2.147-0.705 2.602-1.788l-1.339-0.503c-0.227 0.554-0.682 0.856-1.263 0.856-1.238 0-1.49-1.259-1.49-2.266 0-1.032 0.252-2.291 1.49-2.291 0.556 0 1.011 0.302 1.263 0.856h-0.859v1.435h2.476c-0.101-1.813-0.657-3.726-2.88-3.726" fill="#fff"/></g><g transform="translate(412.92 317.29)"><path d="m0 0v3.147h-2.994v-3.147h-1.421v7.2h1.421v-2.618h2.994v2.618h1.421v-7.2z" fill="#fff"/></g><path d="m397.77 324.5h1.44v-7.2h-1.44z" fill="#fff"/><g transform="translate(393.83 323.06)"><path d="m0 0h-1.987v-1.636h1.987c0.532 0 0.911 0.327 0.911 0.83 0 0.453-0.379 0.806-0.911 0.806m0.911-5.765-0.987 2.694h-1.911v-2.694h-1.418v7.2h3.278c0.608 0 0.912-0.076 1.317-0.302 0.709-0.403 1.139-1.133 1.139-1.939 0-0.78-0.38-1.485-1.038-1.913l1.14-3.046z" fill="#fff"/></g><g transform="translate(419.01 323.06)"><path d="m0 0v-5.765h-1.383v5.765h-1.987v1.435h5.332v-1.435z" fill="#fff"/></g><g transform="translate(364.5 317.29)"><path d="m0 0v7.2h5.231v-1.435h-3.823v-1.183h2.163v-1.435h-2.163v-1.712h3.924v-1.435z" fill="#fff"/></g><g transform="translate(361.24 317.29)"><path d="m0 0-3.172 4.607v-4.607h-1.42v7.2h1.42l2.994-4.406v4.406h1.421v-7.2z" fill="#fff"/></g><g transform="translate(381.26 323.06)"><path d="m0 0v-5.765h-1.383v5.765h-1.987v1.435h5.332v-1.435z" fill="#fff"/></g><g transform="translate(375.42 317.29)"><path d="m0 0-1.435 2.417-1.485-2.417h-1.661l2.265 3.801-2.064 3.399h1.687l1.258-2.039 1.208 2.039h1.712l-2.039-3.424 2.24-3.776z" fill="#fff"/></g><g transform="translate(439.26 253.99)"><path d="m0 0c-3.642 0-6.604 2.963-6.604 6.604v73.441c0 3.642 2.962 6.604 6.604 6.604h77.761c3.641 0 6.604-2.962 6.604-6.604v-73.441c0-3.641-2.963-6.604-6.604-6.604z" fill="#fff"/></g><g transform="translate(517.02 340.76)"><path d="m0 0h-77.76c-3.711 0-6.73-3.019-6.73-6.73v-73.44c0-3.711 3.019-6.73 6.73-6.73h77.76c3.711 0 6.73 3.019 6.73 6.73v73.44c0 3.711-3.019 6.73-6.73 6.73m0-0.25c3.579 0 6.48-2.901 6.48-6.48v-73.44c0-3.579-2.901-6.48-6.48-6.48h-77.76c-3.579 0-6.48 2.901-6.48 6.48v73.44c0 3.579 2.901 6.48 6.48 6.48z"/></g><g transform="translate(434.22 260.59)"><path d="m0 0v73.452c0 2.78 2.254 5.034 5.034 5.034h77.772c2.78 0 5.034-2.254 5.034-5.034v-73.452c0-2.78-2.254-5.034-5.034-5.034h-77.772c-2.78 0-5.034 2.254-5.034 5.034" fill="#005a9c"/></g><path d="m477.42 272.47h1.44v60.66h-1.44z" fill="#fff"/><g transform="translate(470.22 272.47)"><path d="m0 0h-28.8v21.6h28.8z" fill="none" stroke="#fff" stroke-miterlimit="10" stroke-width=".5"/></g><g transform="translate(470.22 300.37)"><path d="m0 0h-28.8v21.6h28.8z" fill="none" stroke="#fff" stroke-miterlimit="10" stroke-width=".5"/></g><g transform="translate(486.06 272.47)"><path d="m0 0h28.8v21.6h-28.8z" fill="none" stroke="#fff" stroke-miterlimit="10" stroke-width=".5"/></g><g transform="translate(486.06 300.37)"><path d="m0 0h28.8v21.6h-28.8z" fill="none" stroke="#fff" stroke-miterlimit="10" stroke-width=".5"/></g><g transform="translate(445.3 329.53)"><path d="m0 0c0 1.863 0.858 3.7 2.954 3.7 1.238 0 2.148-0.705 2.602-1.787l-1.338-0.504c-0.227 0.555-0.682 0.856-1.264 0.856-1.237 0-1.49-1.259-1.49-2.266 0-1.032 0.253-2.29 1.49-2.29 0.557 0 1.011 0.302 1.264 0.855h-0.859v1.436h2.476c-0.101-1.813-0.656-3.725-2.881-3.725-2.096 0-2.954 1.862-2.954 3.725" fill="#fff"/></g><g transform="translate(454.94 329.06)"><path d="m0 0h1.687l-0.806 2.013zm2.266-1.436h-2.845l-0.679-1.686h-1.537l2.896 7.2h1.485l2.896-7.2h-1.536z" fill="#fff"/></g><g transform="translate(466.34 328.05)"><path d="m0 0c0-0.755-0.404-1.485-1.036-1.838-0.429-0.252-1.187-0.402-1.869-0.402-0.808 0-1.591 0.226-2.222 0.654-0.227 0.125-0.38 0.251-0.708 0.554l1.01 1.007c0.607-0.554 1.162-0.781 1.996-0.781 0.833 0 1.414 0.278 1.414 0.781 0 0.201-0.127 0.478-0.328 0.604-0.253 0.15-0.505 0.227-1.44 0.403-0.758 0.174-1.212 0.327-1.516 0.528-0.478 0.328-0.783 0.957-0.783 1.561 0 0.73 0.379 1.385 1.011 1.762 0.404 0.252 0.884 0.352 1.516 0.352 0.808 0 1.566-0.176 2.172-0.554 0.151-0.1 0.227-0.151 0.455-0.327l-0.884-1.132c-0.582 0.428-1.112 0.579-1.794 0.579-0.657 0-1.061-0.227-1.061-0.68 0-0.653 0.831-0.549 1.783-0.784 1.075-0.265 2.284-0.832 2.284-2.287" fill="#fff"/></g><g transform="translate(493.23 261.19)"><path d="m0 0c-2.097 0-2.956 1.863-2.956 3.726s0.859 3.701 2.956 3.701c1.238 0 2.147-0.705 2.602-1.788l-1.339-0.503c-0.227 0.554-0.682 0.856-1.263 0.856-1.238 0-1.49-1.259-1.49-2.266 0-1.032 0.252-2.291 1.49-2.291 0.556 0 1.011 0.302 1.263 0.856h-0.859v1.435h2.476c-0.101-1.813-0.657-3.726-2.88-3.726" fill="#fff"/></g><g transform="translate(502.25 261.31)"><path d="m0 0v3.147h-2.994v-3.147h-1.421v7.2h1.421v-2.618h2.994v2.618h1.421v-7.2z" fill="#fff"/></g><path d="m487.11 268.51h1.44v-7.2h-1.44z" fill="#fff"/><g transform="translate(483.17 267.08)"><path d="m0 0h-1.987v-1.636h1.987c0.532 0 0.911 0.327 0.911 0.83 0 0.454-0.379 0.806-0.911 0.806m0.911-5.765-0.987 2.694h-1.911v-2.694h-1.418v7.2h3.278c0.608 0 0.912-0.076 1.317-0.302 0.709-0.403 1.139-1.133 1.139-1.939 0-0.78-0.38-1.485-1.038-1.913l1.14-3.046z" fill="#fff"/></g><g transform="translate(508.34 267.08)"><path d="m0 0v-5.765h-1.383v5.765h-1.987v1.435h5.332v-1.435z" fill="#fff"/></g><g transform="translate(453.83 261.31)"><path d="m0 0v7.2h5.231v-1.435h-3.823v-1.183h2.163v-1.435h-2.163v-1.712h3.924v-1.435z" fill="#fff"/></g><g transform="translate(450.57 261.31)"><path d="m0 0-3.172 4.607v-4.607h-1.42v7.2h1.42l2.994-4.406v4.406h1.421v-7.2z" fill="#fff"/></g><g transform="translate(470.6 267.08)"><path d="m0 0v-5.765h-1.383v5.765h-1.987v1.435h5.332v-1.435z" fill="#fff"/></g><g transform="translate(464.75 261.31)"><path d="m0 0-1.435 2.417-1.485-2.417h-1.661l2.265 3.801-2.064 3.399h1.687l1.258-2.039 1.208 2.039h1.712l-2.039-3.424 2.24-3.776z" fill="#fff"/></g><g transform="translate(510.79 331.7)"><path d="m0 0h-0.913v-4.33h0.913c1.294 0 2.081 0.805 2.081 2.165 0 1.359-0.787 2.165-2.081 2.165m-0.076-5.765h-2.258v7.2h2.258c2.182 0 3.577-1.435 3.577-3.6 0-2.19-1.42-3.6-3.577-3.6" fill="#fff"/></g><g transform="translate(488.04 331.7)"><path d="m0 0v-1.284h2.314v-1.435h-2.314v-3.046h-1.408v7.2h5.331v-1.435z" fill="#fff"/></g><g transform="translate(503.71 331.8)"><path d="m0 0c-1.038 0-1.595-0.755-1.595-2.266 0-1.46 0.582-2.291 1.595-2.291 0.987 0 1.595 0.907 1.595 2.316 0 1.561-0.582 2.241-1.595 2.241m0-5.992c-2.178 0-3.039 1.838-3.039 3.726 0 2.266 1.165 3.701 3.039 3.701 1.747 0 3.013-1.485 3.013-3.701 0-2.291-1.19-3.726-3.013-3.726" fill="#fff"/></g><g transform="translate(496.22 331.8)"><path d="m0 0c-1.038 0-1.595-0.755-1.595-2.266 0-1.46 0.582-2.291 1.595-2.291 0.987 0 1.595 0.907 1.595 2.316 0 1.561-0.582 2.241-1.595 2.241m0-5.992c-2.177 0-3.038 1.838-3.038 3.726 0 2.266 1.164 3.701 3.038 3.701 1.747 0 3.013-1.485 3.013-3.701 0-2.291-1.19-3.726-3.013-3.726" fill="#fff"/></g></g><text transform="matrix(1 0 0 -1 387.69 241.52)" fill="black" font-family="Helvetica" font-size="9px"><tspan x="0 2.5020001 9 14.499 20.502001 27 33.002998 39.006001 45.504002 51.002998 53.505001 60.507" y="0">INTERSECTION</tspan></text><text transform="matrix(1 0 0 -1 348.45 229.47)" fill="black" font-family="Helvetica" font-size="8px"><tspan x="0 5.776 10.224 12.448 16.896 19.120001 24 29.775999 31.552 34.216 38.664001 42.664001 44.888 46.664001 51.112 55.560001 60.007999 61.784 64.008003 68.456001 71.120003 73.783997 78.232002 84.008003 88.008003 90.232002 94.68 97.344002 99.568001 104.016 105.792 109.792 112.016 116.464 120.912 124.912 129.36 131.584 138.248 142.696" y="0">Note: Directional arrows or distance may</tspan><tspan x="0 24 28.448 32.896 35.119999 39.568001 43.568001 48.015999 52.464001 54.688 60.464001 64.912003 69.360001 73.807999 76.031998 80.480003 84.928001 89.375999 92.040001 96.487999 100.936 103.6 105.3856 109.8336 112.0576" y="8.4960003"> be used when appropriate</tspan></text><g clip-path="url(#e)"><g transform="translate(285.3 99.046)"><path d="m0 0c-3.642 0-6.605 2.963-6.605 6.604v95.042c0 3.641 2.963 6.604 6.605 6.604h51.84c3.642 0 6.605-2.963 6.605-6.604v-95.042c0-3.641-2.963-6.604-6.605-6.604z" fill="#fff"/></g><g transform="translate(337.14 207.42)"><path d="m0 0h-51.84c-3.711 0-6.73-3.019-6.73-6.73v-95.04c0-3.711 3.019-6.73 6.73-6.73h51.84c3.711 0 6.73 3.019 6.73 6.73v95.04c0 3.711-3.019 6.73-6.73 6.73m0-0.25c3.579 0 6.48-2.901 6.48-6.48v-95.04c0-3.579-2.901-6.48-6.48-6.48h-51.84c-3.579 0-6.48 2.901-6.48 6.48v95.04c0 3.579 2.901 6.48 6.48 6.48z"/></g><g transform="translate(280.26 105.65)"><path d="m0 0v95.052c0 2.78 2.254 5.034 5.034 5.034h51.852c2.78 0 5.034-2.254 5.034-5.034v-95.052c0-2.78-2.254-5.034-5.034-5.034h-51.852c-2.78 0-5.034 2.254-5.034 5.034" fill="#005a9c"/></g><path d="m342.18 189.89h-61.92v-1.44h61.92z" fill="#fff"/><g transform="translate(321.55 199.44)"><path d="m0 0h-0.913v-4.33h0.913c1.294 0 2.08 0.806 2.08 2.165s-0.786 2.165-2.08 2.165m-0.076-5.765h-2.258v7.2h2.258c2.182 0 3.577-1.435 3.577-3.6 0-2.19-1.421-3.6-3.577-3.6" fill="#fff"/></g><g transform="translate(298.8 199.44)"><path d="m0 0v-1.284h2.314v-1.435h-2.314v-3.046h-1.408v7.2h5.331v-1.435z" fill="#fff"/></g><g transform="translate(314.48 199.54)"><path d="m0 0c-1.038 0-1.595-0.755-1.595-2.266 0-1.46 0.582-2.291 1.595-2.291 0.987 0 1.595 0.907 1.595 2.316 0 1.561-0.582 2.241-1.595 2.241m0-5.992c-2.178 0-3.039 1.838-3.039 3.726 0 2.266 1.165 3.701 3.039 3.701 1.747 0 3.013-1.485 3.013-3.701 0-2.291-1.19-3.726-3.013-3.726" fill="#fff"/></g><g transform="translate(306.99 199.54)"><path d="m0 0c-1.038 0-1.595-0.755-1.595-2.266 0-1.46 0.582-2.291 1.595-2.291 0.987 0 1.595 0.907 1.595 2.316 0 1.561-0.582 2.241-1.595 2.241m0-5.992c-2.177 0-3.038 1.838-3.038 3.726 0 2.266 1.164 3.701 3.038 3.701 1.747 0 3.013-1.485 3.013-3.701 0-2.291-1.19-3.726-3.013-3.726" fill="#fff"/></g><g transform="translate(336.54 160.55)"><path d="m0 0h-28.8v21.6h28.8z" fill="none" stroke="#fff" stroke-miterlimit="10" stroke-width=".5"/></g><path d="m293.39 177.02h6.015v-2.7h-6.015z" fill="#fff"/><g transform="translate(293.7 172.17)"><path d="m0 0c0.087-0.06 0.192-0.095 0.306-0.095 0.298 0 0.54 0.241 0.54 0.54 0 0.068-0.013 0.133-0.036 0.194l-1.089 2.866 1.089 2.866c0.023 0.06 0.036 0.125 0.036 0.194 0 0.298-0.242 0.54-0.54 0.54-0.114 0-0.219-0.035-0.306-0.095l-5.094-3.505z" fill="#fff"/></g><g transform="translate(287.26 166.22)"><path d="m0 0c0.903 0.656 2.125 0.749 2.125 1.321 0 0.342-0.465 0.584-1.132 0.584-0.586 0-0.97-0.141-1.536-0.584l-0.808 0.846c0.384 0.281 0.566 0.402 0.828 0.523 0.465 0.242 0.991 0.363 1.557 0.363 0.727 0 1.374-0.202 1.758-0.564 0.303-0.282 0.465-0.645 0.465-1.128 0-0.846-0.526-1.43-1.637-1.813-0.647-0.241-0.809-0.322-1.112-0.624-0.182-0.181-0.303-0.343-0.424-0.564h3.233v-1.148h-4.668c0 1.025 0.519 2.184 1.351 2.788" fill="#fff"/></g><g transform="translate(293.83 165.35)"><path d="m0 0v2.605h-0.375v0.779c0.281 0.134 0.308 0.214 0.429 0.456h0.723v-3.84z" fill="#fff"/></g><g transform="translate(298.02 169.19)"><path d="m0 0h0.887l-3.326-5.76h-0.887z" fill="#fff"/></g><g transform="translate(300.77 166.24)"><path d="m0 0-1.249-1.249h1.249zm0.752-1.96v-0.846h-0.752v0.846h-2.243v0.711l2.243 2.283h0.752v-2.283h0.578v-0.711z" fill="#fff"/></g><g transform="translate(316.5 104.75)"><path d="m0 0h-28.8v21.6h28.8z" fill="none" stroke="#fff" stroke-miterlimit="10" stroke-width=".5"/></g><g transform="translate(316.5 132.65)"><path d="m0 0h-28.8v21.6h28.8z" fill="none" stroke="#fff" stroke-miterlimit="10" stroke-width=".5"/></g><path d="m329.96 149.12h-6.015v-2.7h6.015z" fill="#fff"/><g transform="translate(329.65 144.27)"><path d="m0 0c-0.087-0.06-0.192-0.095-0.306-0.095-0.298 0-0.54 0.241-0.54 0.54 0 0.068 0.013 0.133 0.036 0.194l1.089 2.866-1.089 2.866c-0.023 0.06-0.036 0.125-0.036 0.194 0 0.298 0.242 0.54 0.54 0.54 0.114 0 0.219-0.035 0.306-0.096l5.094-3.504z" fill="#fff"/></g><g transform="translate(325.4 137.45)"><path d="m0 0v2.605h-0.375v0.779c0.281 0.134 0.308 0.214 0.429 0.456h0.723v-3.84z" fill="#fff"/></g><g transform="translate(331.45 137.39)"><path d="m0 0c0.602 0.437 1.417 0.499 1.417 0.88 0 0.229-0.31 0.39-0.755 0.39-0.391 0-0.647-0.094-1.024-0.39l-0.539 0.564c0.256 0.188 0.378 0.269 0.553 0.349 0.309 0.161 0.66 0.242 1.037 0.242 0.485 0 0.916-0.134 1.172-0.376 0.202-0.188 0.31-0.43 0.31-0.752 0-0.564-0.35-0.953-1.091-1.208-0.431-0.161-0.539-0.215-0.741-0.416-0.122-0.121-0.202-0.229-0.283-0.376h2.155v-0.766h-3.112c0 0.683 0.347 1.456 0.901 1.859" fill="#fff"/></g><g transform="translate(329.58 141.29)"><path d="m0 0h0.887l-3.326-5.76h-0.887z" fill="#fff"/></g><path d="m329.96 121.22h-6.015v-2.7h6.015z" fill="#fff"/><g transform="translate(329.65 116.37)"><path d="m0 0c-0.087-0.06-0.192-0.095-0.306-0.095-0.298 0-0.54 0.241-0.54 0.54 0 0.068 0.013 0.133 0.036 0.193l1.089 2.867-1.089 2.866c-0.023 0.06-0.036 0.125-0.036 0.194 0 0.298 0.242 0.54 0.54 0.54 0.114 0 0.219-0.036 0.306-0.096l5.094-3.504z" fill="#fff"/></g><g transform="translate(329.27 107.53)"><path d="m0 0c-0.728 0-1.536 0.322-2.061 0.806-0.142 0.141-0.223 0.221-0.405 0.463l0.93 0.644c0.384-0.503 0.93-0.765 1.597-0.765 0.626 0 1.01 0.262 1.01 0.665 0 0.282-0.202 0.563-0.445 0.684-0.161 0.081-0.343 0.121-0.565 0.121h-0.162v1.148h0.303c0.202 0 0.243 0 0.344 0.061 0.141 0.08 0.242 0.241 0.242 0.402 0 0.343-0.364 0.564-0.929 0.564-0.465 0-0.849-0.141-1.213-0.483l-0.829 0.745c0.627 0.624 1.294 0.886 2.082 0.886 1.192 0 2.021-0.684 2.021-1.671 0-0.423-0.162-0.806-0.445-1.088 0.505-0.423 0.728-0.846 0.728-1.39 0-1.067-0.91-1.792-2.203-1.792" fill="#fff"/></g><g transform="translate(360.27 99.046)"><path d="m0 0c-3.642 0-6.604 2.963-6.604 6.604v64.801c0 3.642 2.962 6.605 6.604 6.605h47.521c3.641 0 6.604-2.963 6.604-6.605v-64.801c0-3.641-2.963-6.604-6.604-6.604z" fill="#fff"/></g><g transform="translate(407.79 177.18)"><path d="m0 0h-47.52c-3.711 0-6.73-3.019-6.73-6.73v-64.8c0-3.711 3.019-6.73 6.73-6.73h47.52c3.711 0 6.73 3.019 6.73 6.73v64.8c0 3.711-3.019 6.73-6.73 6.73m0-0.25c3.579 0 6.48-2.901 6.48-6.48v-64.8c0-3.579-2.901-6.48-6.48-6.48h-47.52c-3.579 0-6.48 2.901-6.48 6.48v64.8c0 3.579 2.901 6.48 6.48 6.48z"/></g><g transform="translate(355.23 105.65)"><path d="m0 0v64.812c0 2.78 2.254 5.034 5.034 5.034h47.532c2.78 0 5.034-2.254 5.034-5.034v-64.812c0-2.78-2.254-5.034-5.034-5.034h-47.532c-2.78 0-5.034 2.254-5.034 5.034" fill="#005a9c"/></g><g transform="translate(373.51 165.95)"><path d="m0 0c0 1.863 0.859 3.7 2.955 3.7 1.237 0 2.147-0.705 2.601-1.787l-1.338-0.504c-0.227 0.555-0.682 0.856-1.263 0.856-1.238 0-1.491-1.259-1.491-2.266 0-1.032 0.253-2.29 1.491-2.29 0.556 0 1.01 0.302 1.263 0.855h-0.858v1.436h2.475c-0.1-1.813-0.656-3.725-2.88-3.725-2.096 0-2.955 1.862-2.955 3.725" fill="#fff"/></g><g transform="translate(383.15 165.47)"><path d="m0 0h1.686l-0.805 2.013zm2.266-1.436h-2.846l-0.678-1.686h-1.537l2.896 7.2h1.485l2.896-7.2h-1.537z" fill="#fff"/></g><g transform="translate(394.54 164.47)"><path d="m0 0c0-0.755-0.404-1.485-1.036-1.838-0.429-0.252-1.187-0.402-1.869-0.402-0.808 0-1.591 0.226-2.222 0.654-0.227 0.125-0.38 0.251-0.708 0.554l1.01 1.007c0.607-0.554 1.162-0.781 1.995-0.781 0.834 0 1.415 0.278 1.415 0.781 0 0.201-0.127 0.478-0.328 0.604-0.253 0.15-0.505 0.227-1.44 0.403-0.758 0.175-1.212 0.327-1.516 0.528-0.479 0.328-0.783 0.957-0.783 1.561 0 0.73 0.379 1.385 1.011 1.762 0.404 0.252 0.884 0.352 1.515 0.352 0.809 0 1.566-0.177 2.173-0.554 0.151-0.099 0.227-0.151 0.454-0.327l-0.883-1.132c-0.582 0.428-1.112 0.579-1.794 0.579-0.657 0-1.061-0.227-1.061-0.68 0-0.653 0.831-0.549 1.783-0.784 1.074-0.265 2.284-0.832 2.284-2.287" fill="#fff"/></g><g transform="translate(388.89 106.55)"><path d="m0 0h-28.8v21.6h28.8z" fill="none" stroke="#fff" stroke-miterlimit="10" stroke-width=".5"/></g><g transform="translate(394.32 114.47)"><path d="m0 0v3.907h-0.563v1.168c0.422 0.202 0.463 0.323 0.643 0.685h1.085v-5.76z" fill="#fff"/></g><g transform="translate(404.38 120.23)"><path d="m0 0h0.887l-3.326-5.76h-0.887z" fill="#fff"/></g><g transform="translate(406.63 117.28)"><path d="m0 0-1.249-1.249h1.249zm0.752-1.96v-0.846h-0.752v0.846h-2.243v0.711l2.243 2.283h0.752v-2.283h0.578v-0.711z" fill="#fff"/></g><g transform="translate(400.01 116.33)"><path d="m0 0c-0.485 0-1.024 0.215-1.374 0.537-0.095 0.094-0.148 0.148-0.27 0.309l0.62 0.43c0.256-0.336 0.62-0.511 1.064-0.511 0.418 0 0.674 0.175 0.674 0.443 0 0.188-0.135 0.376-0.296 0.457-0.108 0.054-0.229 0.08-0.378 0.08h-0.107v0.766h0.202c0.135 0 0.161 0 0.229 0.04 0.094 0.054 0.162 0.161 0.162 0.269 0 0.228-0.243 0.376-0.62 0.376-0.31 0-0.566-0.094-0.809-0.323l-0.552 0.497c0.418 0.416 0.862 0.591 1.388 0.591 0.795 0 1.347-0.457 1.347-1.115 0-0.282-0.108-0.537-0.296-0.725 0.336-0.281 0.485-0.564 0.485-0.926 0-0.712-0.607-1.195-1.469-1.195" fill="#fff"/></g><g transform="translate(388.89 134.45)"><path d="m0 0h-28.8v21.6h28.8z" fill="none" stroke="#fff" stroke-miterlimit="10" stroke-width=".5"/></g><g transform="translate(400.56 142.37)"><path d="m0 0v3.907h-0.563v1.168c0.422 0.202 0.463 0.323 0.643 0.685h1.085v-5.76z" fill="#fff"/></g><g transform="translate(159.21 99.046)"><path d="m0 0c-3.642 0-6.604 2.963-6.604 6.605v95.041c0 3.641 2.962 6.604 6.604 6.604h103.68c3.641 0 6.604-2.963 6.604-6.604v-95.041c0-3.642-2.963-6.605-6.604-6.605z" fill="#fff"/></g><g transform="translate(262.89 207.42)"><path d="m0 0h-103.68c-3.711 0-6.73-3.019-6.73-6.73v-95.04c0-3.711 3.019-6.73 6.73-6.73h103.68c3.711 0 6.73 3.019 6.73 6.73v95.04c0 3.711-3.019 6.73-6.73 6.73m0-0.25c3.579 0 6.48-2.901 6.48-6.48v-95.04c0-3.579-2.901-6.48-6.48-6.48h-103.68c-3.579 0-6.48 2.901-6.48 6.48v95.04c0 3.579 2.901 6.48 6.48 6.48z"/></g><g transform="translate(154.17 105.65)"><path d="m0 0v95.052c0 2.78 2.254 5.034 5.034 5.034h103.69c2.78 0 5.034-2.254 5.034-5.034v-95.052c0-2.78-2.254-5.034-5.034-5.034h-103.69c-2.78 0-5.034 2.254-5.034 5.034" fill="#005a9c"/></g><path d="m267.93 189.89h-113.76v-1.44h113.76z" fill="#fff"/><path d="m211.23 99.172h1.44v89.28h-1.44z" fill="#fff"/><g transform="translate(200.54 197.27)"><path d="m0 0c0 1.863 0.859 3.7 2.955 3.7 1.237 0 2.147-0.705 2.601-1.787l-1.338-0.504c-0.227 0.555-0.682 0.856-1.263 0.856-1.238 0-1.491-1.259-1.491-2.266 0-1.032 0.253-2.29 1.491-2.29 0.556 0 1.01 0.302 1.263 0.855h-0.858v1.436h2.475c-0.1-1.813-0.656-3.725-2.88-3.725-2.096 0-2.955 1.862-2.955 3.725" fill="#fff"/></g><g transform="translate(210.17 196.79)"><path d="m0 0h1.686l-0.805 2.013zm2.266-1.436h-2.846l-0.678-1.686h-1.537l2.896 7.2h1.485l2.896-7.2h-1.536z" fill="#fff"/></g><g transform="translate(221.57 195.79)"><path d="m0 0c0-0.755-0.404-1.485-1.036-1.838-0.429-0.252-1.187-0.402-1.869-0.402-0.808 0-1.591 0.226-2.222 0.654-0.227 0.125-0.38 0.251-0.708 0.554l1.01 1.007c0.607-0.554 1.162-0.781 1.996-0.781 0.833 0 1.414 0.278 1.414 0.781 0 0.201-0.127 0.478-0.328 0.604-0.253 0.15-0.505 0.226-1.44 0.403-0.758 0.175-1.212 0.327-1.516 0.528-0.479 0.328-0.783 0.957-0.783 1.561 0 0.73 0.379 1.385 1.011 1.762 0.404 0.252 0.884 0.352 1.516 0.352 0.808 0 1.565-0.177 2.172-0.554 0.151-0.099 0.227-0.151 0.454-0.327l-0.883-1.132c-0.582 0.428-1.112 0.579-1.794 0.579-0.657 0-1.061-0.227-1.061-0.68 0-0.653 0.831-0.549 1.783-0.784 1.074-0.265 2.284-0.832 2.284-2.287" fill="#fff"/></g><g transform="translate(206.61 104.75)"><path d="m0 0h-28.8v21.6h28.8z" fill="none" stroke="#fff" stroke-miterlimit="10" stroke-width=".5"/></g><g transform="translate(206.61 132.65)"><path d="m0 0h-28.8v21.6h28.8z" fill="none" stroke="#fff" stroke-miterlimit="10" stroke-width=".5"/></g><g transform="translate(206.61 160.55)"><path d="m0 0h-28.8v21.6h28.8z" fill="none" stroke="#fff" stroke-miterlimit="10" stroke-width=".5"/></g><g transform="translate(246.09 104.75)"><path d="m0 0h-28.8v21.6h28.8z" fill="none" stroke="#fff" stroke-miterlimit="10" stroke-width=".5"/></g><g transform="translate(246.09 160.55)"><path d="m0 0h-28.8v21.6h28.8z" fill="none" stroke="#fff" stroke-miterlimit="10" stroke-width=".5"/></g><path d="m165.38 172.7h6.015v-2.7h-6.015z" fill="#fff"/><g transform="translate(165.69 167.85)"><path d="m0 0c0.087-0.06 0.192-0.095 0.306-0.095 0.298 0 0.54 0.241 0.54 0.54 0 0.068-0.013 0.133-0.036 0.193l-1.089 2.867 1.089 2.866c0.023 0.06 0.036 0.125 0.036 0.194 0 0.298-0.242 0.54-0.54 0.54-0.114 0-0.219-0.036-0.306-0.096l-5.094-3.504z" fill="#fff"/></g><path d="m165.38 121.22h6.015v-2.7h-6.015z" fill="#fff"/><g transform="translate(165.69 116.37)"><path d="m0 0c0.087-0.06 0.192-0.095 0.306-0.095 0.298 0 0.54 0.241 0.54 0.54 0 0.068-0.013 0.133-0.036 0.193l-1.089 2.867 1.089 2.866c0.023 0.06 0.036 0.125 0.036 0.194 0 0.298-0.242 0.54-0.54 0.54-0.114 0-0.219-0.035-0.306-0.096l-5.094-3.504z" fill="#fff"/></g><g transform="translate(159.25 110.42)"><path d="m0 0c0.903 0.656 2.125 0.749 2.125 1.32 0 0.343-0.465 0.585-1.132 0.585-0.586 0-0.97-0.141-1.536-0.585l-0.808 0.846c0.384 0.282 0.566 0.403 0.828 0.524 0.465 0.242 0.991 0.363 1.557 0.363 0.727 0 1.374-0.202 1.758-0.564 0.303-0.282 0.465-0.645 0.465-1.128 0-0.846-0.526-1.43-1.637-1.813-0.647-0.241-0.809-0.322-1.112-0.624-0.182-0.181-0.303-0.343-0.424-0.564h3.233v-1.148h-4.668c0 1.025 0.519 2.184 1.351 2.788" fill="#fff"/></g><g transform="translate(165.82 109.55)"><path d="m0 0v2.605h-0.375v0.778c0.281 0.135 0.308 0.215 0.429 0.457h0.723v-3.84z" fill="#fff"/></g><g transform="translate(171.87 109.49)"><path d="m0 0c0.602 0.437 1.417 0.5 1.417 0.88 0 0.229-0.31 0.39-0.755 0.39-0.391 0-0.647-0.094-1.024-0.39l-0.539 0.564c0.256 0.188 0.377 0.269 0.553 0.349 0.31 0.161 0.66 0.242 1.037 0.242 0.485 0 0.916-0.134 1.172-0.376 0.202-0.188 0.31-0.43 0.31-0.752 0-0.564-0.35-0.953-1.091-1.208-0.431-0.161-0.539-0.215-0.741-0.416-0.122-0.121-0.202-0.229-0.283-0.376h2.156v-0.766h-3.113c0 0.683 0.346 1.456 0.901 1.859" fill="#fff"/></g><g transform="translate(170.01 113.39)"><path d="m0 0h0.887l-3.326-5.76h-0.887z" fill="#fff"/></g><path d="m257.63 177.02h-6.015v-2.7h6.015z" fill="#fff"/><g transform="translate(257.32 172.17)"><path d="m0 0c-0.087-0.06-0.192-0.095-0.306-0.095-0.298 0-0.54 0.241-0.54 0.54 0 0.068 0.013 0.133 0.036 0.194l1.089 2.866-1.089 2.866c-0.023 0.06-0.036 0.126-0.036 0.194 0 0.298 0.242 0.54 0.54 0.54 0.114 0 0.219-0.035 0.306-0.095l5.094-3.505z" fill="#fff"/></g><g transform="translate(253.07 165.35)"><path d="m0 0v2.605h-0.375v0.778c0.281 0.135 0.308 0.215 0.429 0.457h0.723v-3.84z" fill="#fff"/></g><g transform="translate(259.12 165.29)"><path d="m0 0c0.602 0.437 1.417 0.5 1.417 0.88 0 0.229-0.31 0.39-0.755 0.39-0.391 0-0.647-0.094-1.024-0.39l-0.539 0.564c0.256 0.188 0.377 0.269 0.553 0.349 0.309 0.161 0.66 0.242 1.037 0.242 0.485 0 0.916-0.134 1.172-0.376 0.202-0.188 0.31-0.429 0.31-0.752 0-0.564-0.35-0.953-1.091-1.208-0.431-0.161-0.539-0.215-0.741-0.416-0.122-0.121-0.202-0.229-0.283-0.376h2.155v-0.766h-3.112c0 0.684 0.346 1.456 0.901 1.859" fill="#fff"/></g><g transform="translate(257.25 169.19)"><path d="m0 0h0.887l-3.326-5.76h-0.887z" fill="#fff"/></g><g transform="translate(246.09 132.65)"><path d="m0 0h-28.8v21.6h28.8z" fill="none" stroke="#fff" stroke-miterlimit="10" stroke-width=".5"/></g><path d="m257.63 149.12h-6.015v-2.7h6.015z" fill="#fff"/><g transform="translate(257.32 144.27)"><path d="m0 0c-0.087-0.06-0.192-0.095-0.306-0.095-0.298 0-0.54 0.241-0.54 0.54 0 0.068 0.013 0.133 0.036 0.194l1.089 2.866-1.089 2.866c-0.023 0.06-0.036 0.125-0.036 0.194 0 0.298 0.242 0.54 0.54 0.54 0.114 0 0.219-0.035 0.306-0.096l5.094-3.504z" fill="#fff"/></g><g transform="translate(253.07 137.45)"><path d="m0 0v2.605h-0.375v0.778c0.281 0.135 0.308 0.215 0.429 0.457h0.723v-3.84z" fill="#fff"/></g><g transform="translate(259.12 137.39)"><path d="m0 0c0.602 0.437 1.417 0.5 1.417 0.88 0 0.229-0.31 0.39-0.755 0.39-0.391 0-0.647-0.094-1.024-0.39l-0.539 0.564c0.256 0.188 0.377 0.269 0.553 0.349 0.309 0.161 0.66 0.242 1.037 0.242 0.485 0 0.916-0.134 1.172-0.376 0.202-0.188 0.31-0.43 0.31-0.752 0-0.564-0.35-0.953-1.091-1.208-0.431-0.161-0.539-0.215-0.741-0.416-0.122-0.121-0.202-0.229-0.283-0.376h2.155v-0.766h-3.112c0 0.683 0.346 1.456 0.901 1.859" fill="#fff"/></g><g transform="translate(257.25 141.29)"><path d="m0 0h0.887l-3.326-5.76h-0.887z" fill="#fff"/></g><path d="m165.38 149.12h6.015v-2.7h-6.015z" fill="#fff"/><g transform="translate(165.69 144.27)"><path d="m0 0c0.087-0.06 0.192-0.095 0.306-0.095 0.298 0 0.54 0.241 0.54 0.54 0 0.068-0.013 0.133-0.036 0.194l-1.089 2.866 1.089 2.866c0.023 0.06 0.036 0.125 0.036 0.194 0 0.298-0.242 0.54-0.54 0.54-0.114 0-0.219-0.035-0.306-0.096l-5.094-3.504z" fill="#fff"/></g><g transform="translate(165.69 135.53)"><path d="m0 0v3.907h-0.563v1.168c0.422 0.202 0.462 0.323 0.643 0.685h1.085v-5.76z" fill="#fff"/></g><path d="m257.63 121.22h-6.015v-2.7h6.015z" fill="#fff"/><g transform="translate(257.32 116.37)"><path d="m0 0c-0.087-0.06-0.192-0.095-0.306-0.095-0.298 0-0.54 0.241-0.54 0.54 0 0.068 0.013 0.133 0.036 0.193l1.089 2.867-1.089 2.866c-0.023 0.06-0.036 0.125-0.036 0.194 0 0.298 0.242 0.54 0.54 0.54 0.114 0 0.219-0.035 0.306-0.096l5.094-3.504z" fill="#fff"/></g><g transform="translate(256.94 107.53)"><path d="m0 0c-0.727 0-1.536 0.322-2.061 0.806-0.142 0.141-0.223 0.221-0.405 0.463l0.93 0.644c0.384-0.503 0.93-0.765 1.597-0.765 0.626 0 1.01 0.262 1.01 0.665 0 0.282-0.202 0.564-0.445 0.684-0.161 0.081-0.343 0.121-0.565 0.121h-0.162v1.148h0.303c0.202 0 0.243 0 0.344 0.061 0.141 0.08 0.242 0.241 0.242 0.402 0 0.343-0.364 0.564-0.929 0.564-0.465 0-0.849-0.141-1.213-0.483l-0.829 0.745c0.627 0.625 1.294 0.886 2.082 0.886 1.192 0 2.021-0.684 2.021-1.671 0-0.423-0.162-0.806-0.445-1.088 0.506-0.423 0.728-0.846 0.728-1.39 0-1.067-0.91-1.792-2.203-1.792" fill="#fff"/></g></g><text transform="matrix(1 0 0 -1 272.4 86.303)" fill="black" font-family="Helvetica" font-size="9px"><tspan x="0 6.4980001 12.501 19.997999" y="0">RAMP</tspan><tspan x="-184.842 -178.839 -176.33701 -169.839 -162.83701 -157.83299 -151.83 -148.83299 -142.83 -136.827 -134.325 -128.98531 -126.4833 -123.9813 -117.4833 -111.9843 -105.9813 -99.483299 -92.985298 -86.487297 -80.484299 -73.986298 -66.984299" y="-493.686">SINGLE-EXIT INTERCHANGE</tspan><tspan x="-156.591 -153.59399 -146.592 -140.09399 -134.091 -131.589 -125.586 -119.583 -113.2416 -107.2386 -104.7366 -98.238602 -92.235603" y="-483.68701">(ONE SERVICE)</tspan><tspan x="76.643997 82.647003 85.149002 91.647003 98.649002 103.653 109.656 112.653 118.656 124.659 127.161 132.5007 135.0027 137.5047 144.0027 149.50169 155.5047 162.0027 168.5007 174.9987 181.00169 187.49969 194.50169" y="-493.84799">SINGLE-EXIT INTERCHANGE</tspan><tspan x="101.151 104.148 109.647 118.143 125.145 127.647 133.64999 139.653 145.9935 151.99651 154.4985 160.99651 166.9995 173.0025" y="-483.849">(TWO SERVICES)</tspan><tspan x="-131.103 -125.1 -122.598 -116.1 -109.098 -104.094 -98.091003 -95.094002 -89.091003 -83.087997 -80.585999 -75.2463 -72.744301 -70.242302 -63.744301 -58.2453 -52.242298 -45.744301 -39.2463 -32.748299 -26.7453 -20.247299 -13.2453 -7.2423" y="-314.97299">SINGLE-EXIT INTERCHANGE </tspan><tspan x="-110.097 -107.1 -101.601 -95.102997 -88.605003 -82.601997 -76.598999 -74.097 -68.094002 -62.091 -55.749599 -49.746601 -47.244598 -40.746601 -34.743599 -28.740601" y="-304.974">(THREE SERVICES)</tspan></text><g clip-path="url(#d)"><g transform="translate(88.285 414.73)"><path d="m0 0c-3.642 0-6.605 2.963-6.605 6.605v129.6c0 3.641 2.963 6.604 6.605 6.604h69.12c3.642 0 6.605-2.963 6.605-6.604v-129.6c0-3.642-2.963-6.605-6.605-6.605z" fill="#fff"/></g><g transform="translate(157.41 557.67)"><path d="m0 0h-69.12c-3.711 0-6.73-3.019-6.73-6.73v-129.6c0-3.711 3.019-6.73 6.73-6.73h69.12c3.711 0 6.73 3.019 6.73 6.73v129.6c0 3.711-3.019 6.73-6.73 6.73m0-0.25c3.579 0 6.48-2.901 6.48-6.48v-129.6c0-3.579-2.901-6.48-6.48-6.48h-69.12c-3.579 0-6.48 2.901-6.48 6.48v129.6c0 3.579 2.901 6.48 6.48 6.48z"/></g><g transform="translate(83.245 421.33)"><path d="m0 0v129.61c0 2.78 2.254 5.034 5.034 5.034h69.132c2.78 0 5.034-2.254 5.034-5.034v-129.61c0-2.78-2.254-5.034-5.034-5.034h-69.132c-2.78 0-5.034 2.254-5.034 5.034" fill="#005a9c"/></g><g fill="#fff"><path d="m162.72 540.14h-79.831v-1.44h79.831z"/><path d="m162.72 498.38h-79.831v1.44h79.831z"/><path d="m162.72 458.24h-79.831v1.44h79.831z"/></g><g transform="translate(117.63 453.31)"><path d="m0 0h-0.731v-3.464h0.731c1.035 0 1.664 0.644 1.664 1.732s-0.629 1.732-1.664 1.732m-0.061-4.612h-1.806v5.76h1.806c1.746 0 2.862-1.148 2.862-2.88 0-1.752-1.137-2.88-2.862-2.88" fill="#fff"/></g><g transform="translate(138.81 448.6)"><path d="m0 0c-1.677 0-2.365 1.49-2.365 2.981 0 1.49 0.688 2.96 2.365 2.96 0.99 0 1.718-0.564 2.082-1.43l-1.071-0.402c-0.182 0.443-0.546 0.684-1.011 0.684-0.99 0-1.192-1.007-1.192-1.812 0-0.826 0.202-1.833 1.192-1.833 0.445 0 0.809 0.242 1.011 0.685h-0.688v1.148h1.981c-0.081-1.45-0.525-2.981-2.304-2.981" fill="#fff"/></g><g transform="translate(123.94 448.6)"><path d="m0 0c-1.677 0-2.365 1.49-2.365 2.981 0 1.49 0.688 2.96 2.365 2.96 0.99 0 1.718-0.564 2.082-1.43l-1.071-0.402c-0.182 0.443-0.546 0.684-1.011 0.684-0.99 0-1.192-1.007-1.192-1.812 0-0.826 0.202-1.833 1.192-1.833 0.445 0 0.808 0.242 1.011 0.685h-0.688v1.148h1.981c-0.081-1.45-0.525-2.981-2.304-2.981" fill="#fff"/></g><path d="m127.63 454.46h1.152v-5.76h-1.152z" fill="#fff"/><g transform="translate(104.58 448.7)"><path d="m0 0v5.76h1.127v-4.673h3.138v-1.087z" fill="#fff"/></g><g transform="translate(134.07 448.7)"><path d="m0 0-2.537 3.686v-3.686h-1.137v5.76h1.137l2.395-3.524v3.524h1.137v-5.76z" fill="#fff"/></g><g transform="translate(111.97 453.39)"><path d="m0 0c-0.831 0-1.276-0.604-1.276-1.813 0-1.168 0.466-1.832 1.276-1.832 0.79 0 1.276 0.725 1.276 1.852 0 1.249-0.466 1.793-1.276 1.793m0-4.793c-1.742 0-2.431 1.47-2.431 2.98 0 1.813 0.932 2.961 2.431 2.961 1.398 0 2.41-1.188 2.41-2.961 0-1.832-0.952-2.98-2.41-2.98" fill="#fff"/></g><g transform="translate(101.31 551.12)"><path d="m0 0h5.231v-1.435h-3.822v-1.183h2.162v-1.435h-2.162v-1.712h3.922v-1.435h-5.331z" fill="#fff"/></g><g transform="translate(110.8 546.33)"><path d="m0 0-1.485-2.417h-1.661l2.265 3.802-2.064 3.399h1.687l1.258-2.04 1.208 2.04h1.711l-2.038-3.426 2.24-3.775h-1.687z" fill="#fff"/></g><path d="m115.43 551.12h1.44v-7.2h-1.44z" fill="#fff"/><g transform="translate(121.54 543.92)"><path d="m0 0h-1.382v5.765h-1.988v1.435h5.332v-1.435h-1.962z" fill="#fff"/></g><g transform="translate(138.89 543.85)"><path d="m0 0v4.884h-0.703v1.46c0.527 0.252 0.577 0.403 0.803 0.856h1.357v-7.2z" fill="#fff"/></g><g transform="translate(142.92 543.85)"><path d="m0 0v4.884h-0.703v1.46c0.527 0.252 0.577 0.403 0.803 0.856h1.357v-7.2z" fill="#fff"/></g><g transform="translate(132.39 547.34)"><path d="m0 0c1.129 0.82 2.656 0.937 2.656 1.651 0 0.428-0.581 0.73-1.415 0.73-0.732 0-1.212-0.176-1.92-0.73l-1.01 1.057c0.48 0.352 0.707 0.504 1.036 0.655 0.581 0.302 1.238 0.453 1.945 0.453 0.909 0 1.718-0.252 2.198-0.705 0.379-0.353 0.581-0.806 0.581-1.41 0-1.057-0.657-1.787-2.046-2.266-0.809-0.302-1.011-0.403-1.39-0.78-0.227-0.227-0.379-0.428-0.53-0.705h4.041v-1.435h-5.835c0 1.281 0.649 2.73 1.689 3.485" fill="#fff"/></g><g transform="translate(114.43 532.04)"><path d="m0 0c0 1.49 0.687 2.96 2.364 2.96 0.99 0 1.717-0.564 2.081-1.43l-1.07-0.402c-0.182 0.443-0.546 0.684-1.011 0.684-0.99 0-1.193-1.007-1.193-1.813 0-0.826 0.203-1.832 1.193-1.832 0.445 0 0.808 0.242 1.011 0.685h-0.687v1.148h1.98c-0.08-1.45-0.524-2.98-2.304-2.98-1.677 0-2.364 1.49-2.364 2.98" fill="#fff"/></g><g transform="translate(122.14 531.65)"><path d="m0 0h1.349l-0.644 1.611zm1.813-1.148h-2.277l-0.543-1.35h-1.229l2.317 5.76h1.188l2.317-5.76h-1.229z" fill="#fff"/></g><g transform="translate(131.26 530.85)"><path d="m0 0c0-0.604-0.323-1.188-0.829-1.47-0.343-0.202-0.949-0.322-1.495-0.322-0.647 0-1.273 0.181-1.778 0.523-0.181 0.1-0.304 0.201-0.566 0.443l0.808 0.806c0.486-0.443 0.93-0.625 1.596-0.625 0.667 0 1.132 0.222 1.132 0.625 0 0.161-0.101 0.382-0.263 0.483-0.202 0.12-0.404 0.181-1.152 0.322-0.606 0.14-0.969 0.262-1.212 0.423-0.383 0.262-0.626 0.766-0.626 1.249 0 0.583 0.303 1.108 0.808 1.409 0.323 0.202 0.707 0.282 1.213 0.282 0.646 0 1.252-0.141 1.738-0.443 0.121-0.08 0.181-0.121 0.363-0.262l-0.707-0.906c-0.465 0.343-0.889 0.464-1.435 0.464-0.525 0-0.849-0.182-0.849-0.544 0-0.522 0.665-0.44 1.427-0.628 0.859-0.211 1.827-0.665 1.827-1.829" fill="#fff"/></g><g transform="translate(118.79 423.32)"><path d="m0 0h-28.8v21.6h28.8z" fill="none" stroke="#fff" stroke-miterlimit="10" stroke-width=".5"/></g><g transform="translate(118.79 463.46)"><path d="m0 0h-28.8v21.6h28.8z" fill="none" stroke="#fff" stroke-miterlimit="10" stroke-width=".5"/></g><g transform="translate(118.79 503.6)"><path d="m0 0h-28.8v21.6h28.8z" fill="none" stroke="#fff" stroke-miterlimit="10" stroke-width=".5"/></g><g transform="translate(155.69 423.32)"><path d="m0 0h-28.8v21.6h28.8z" fill="none" stroke="#fff" stroke-miterlimit="10" stroke-width=".5"/></g><g transform="translate(155.69 463.46)"><path d="m0 0h-28.8v21.6h28.8z" fill="none" stroke="#fff" stroke-miterlimit="10" stroke-width=".5"/></g><g transform="translate(155.69 503.6)"><path d="m0 0h-28.8v21.6h28.8z" fill="none" stroke="#fff" stroke-miterlimit="10" stroke-width=".5"/></g><g transform="translate(131.11 493.45)"><path d="m0 0h-0.731v-3.464h0.731c1.035 0 1.664 0.644 1.664 1.732s-0.629 1.732-1.664 1.732m-0.061-4.612h-1.806v5.76h1.806c1.746 0 2.862-1.148 2.862-2.88 0-1.752-1.137-2.88-2.862-2.88" fill="#fff"/></g><g transform="translate(112.91 493.45)"><path d="m0 0v-1.027h1.851v-1.148h-1.851v-2.437h-1.127v5.76h4.266v-1.148z" fill="#fff"/></g><g transform="translate(125.45 493.53)"><path d="m0 0c-0.831 0-1.276-0.604-1.276-1.813 0-1.168 0.466-1.832 1.276-1.832 0.79 0 1.276 0.725 1.276 1.852 0 1.249-0.466 1.793-1.276 1.793m0-4.793c-1.742 0-2.431 1.47-2.431 2.98 0 1.813 0.932 2.961 2.431 2.961 1.398 0 2.41-1.188 2.41-2.961 0-1.832-0.952-2.98-2.41-2.98" fill="#fff"/></g><g transform="translate(119.46 493.53)"><path d="m0 0c-0.831 0-1.276-0.604-1.276-1.813 0-1.168 0.466-1.832 1.276-1.832 0.79 0 1.276 0.725 1.276 1.852 0 1.249-0.466 1.793-1.276 1.793m0-4.793c-1.742 0-2.431 1.47-2.431 2.98 0 1.813 0.932 2.961 2.431 2.961 1.398 0 2.41-1.188 2.41-2.961 0-1.832-0.952-2.98-2.41-2.98" fill="#fff"/></g><g transform="translate(195.41 414.74)"><path d="m0 0c-3.642 0-6.605 2.963-6.605 6.605v77.76c0 3.642 2.963 6.605 6.605 6.605h125.28c3.641 0 6.604-2.963 6.604-6.605v-77.76c0-3.642-2.963-6.605-6.604-6.605z" fill="#fff"/></g><g transform="translate(320.69 505.83)"><path d="m0 0h-125.28c-3.711 0-6.73-3.019-6.73-6.73v-77.76c0-3.711 3.019-6.73 6.73-6.73h125.28c3.711 0 6.73 3.019 6.73 6.73v77.76c0 3.711-3.019 6.73-6.73 6.73m0-0.25c3.579 0 6.48-2.901 6.48-6.48v-77.76c0-3.579-2.901-6.48-6.48-6.48h-125.28c-3.579 0-6.48 2.901-6.48 6.48v77.76c0 3.579 2.901 6.48 6.48 6.48z"/></g><g transform="translate(190.37 421.34)"><path d="m0 0v77.772c0 2.78 2.254 5.034 5.034 5.034h125.29c2.78 0 5.034-2.254 5.034-5.034v-77.772c0-2.78-2.254-5.034-5.034-5.034h-125.29c-2.78 0-5.034 2.254-5.034 5.034" fill="#005a9c"/></g><g fill="#fff"><path d="m326.5 488.3h-136.49v-1.44h136.49z"/><path d="m234.52 414.86h1.44v72.001h-1.44z"/><path d="m281.57 414.86h-1.44v72.001h1.44z"/></g><g transform="translate(272.45 422.42)"><path d="m0 0h-28.8v21.6h28.8z" fill="none" stroke="#fff" stroke-miterlimit="10" stroke-width=".5"/></g><g transform="translate(272.45 450.32)"><path d="m0 0h-28.8v21.6h28.8z" fill="none" stroke="#fff" stroke-miterlimit="10" stroke-width=".5"/></g><g transform="translate(298.43 480.49)"><path d="m0 0h-0.731v-3.464h0.731c1.035 0 1.664 0.644 1.664 1.732s-0.629 1.732-1.664 1.732m-0.061-4.612h-1.806v5.76h1.806c1.746 0 2.862-1.148 2.862-2.88 0-1.752-1.137-2.88-2.862-2.88" fill="#fff"/></g><g transform="translate(319.61 475.78)"><path d="m0 0c-1.677 0-2.365 1.49-2.365 2.981 0 1.49 0.688 2.96 2.365 2.96 0.99 0 1.718-0.564 2.082-1.43l-1.072-0.403c-0.181 0.444-0.545 0.685-1.01 0.685-0.99 0-1.192-1.007-1.192-1.812 0-0.826 0.202-1.833 1.192-1.833 0.445 0 0.808 0.242 1.01 0.685h-0.687v1.148h1.981c-0.081-1.45-0.525-2.981-2.304-2.981" fill="#fff"/></g><g transform="translate(304.74 475.78)"><path d="m0 0c-1.677 0-2.365 1.49-2.365 2.981 0 1.49 0.688 2.96 2.365 2.96 0.99 0 1.718-0.564 2.082-1.43l-1.071-0.403c-0.182 0.444-0.546 0.685-1.011 0.685-0.99 0-1.192-1.007-1.192-1.812 0-0.826 0.202-1.833 1.192-1.833 0.445 0 0.808 0.242 1.011 0.685h-0.688v1.148h1.981c-0.081-1.45-0.525-2.981-2.304-2.981" fill="#fff"/></g><path d="m308.43 481.64h1.152v-5.76h-1.152z" fill="#fff"/><g transform="translate(285.38 475.88)"><path d="m0 0v5.76h1.127v-4.673h3.138v-1.087z" fill="#fff"/></g><g transform="translate(314.87 475.88)"><path d="m0 0-2.537 3.686v-3.686h-1.137v5.76h1.137l2.395-3.524v3.524h1.137v-5.76z" fill="#fff"/></g><g transform="translate(292.77 480.57)"><path d="m0 0c-0.831 0-1.276-0.604-1.276-1.813 0-1.168 0.466-1.832 1.276-1.832 0.79 0 1.276 0.725 1.276 1.852 0 1.249-0.466 1.793-1.276 1.793m0-4.793c-1.742 0-2.431 1.47-2.431 2.98 0 1.813 0.932 2.961 2.431 2.961 1.398 0 2.411-1.188 2.411-2.961 0-1.832-0.953-2.98-2.411-2.98" fill="#fff"/></g><g transform="translate(236.51 499.28)"><path d="m0 0h5.231v-1.435h-3.822v-1.183h2.162v-1.435h-2.162v-1.712h3.922v-1.435h-5.331z" fill="#fff"/></g><g transform="translate(246 494.5)"><path d="m0 0-1.485-2.417h-1.661l2.265 3.802-2.064 3.398h1.687l1.258-2.039 1.208 2.039h1.711l-2.038-3.425 2.24-3.775h-1.686z" fill="#fff"/></g><path d="m250.63 499.28h1.44v-7.2h-1.44z" fill="#fff"/><g transform="translate(256.74 492.08)"><path d="m0 0h-1.382v5.765h-1.988v1.435h5.332v-1.435h-1.962z" fill="#fff"/></g><g transform="translate(274.09 492.02)"><path d="m0 0v4.884h-0.703v1.46c0.527 0.252 0.577 0.403 0.803 0.856h1.357v-7.2z" fill="#fff"/></g><g transform="translate(278.12 492.02)"><path d="m0 0v4.884h-0.703v1.46c0.527 0.252 0.577 0.403 0.804 0.856h1.356v-7.2z" fill="#fff"/></g><g transform="translate(267.59 495.5)"><path d="m0 0c1.129 0.82 2.656 0.937 2.656 1.651 0 0.428-0.581 0.73-1.415 0.73-0.732 0-1.212-0.177-1.92-0.73l-1.01 1.057c0.48 0.352 0.707 0.503 1.036 0.655 0.581 0.302 1.238 0.453 1.945 0.453 0.909 0 1.718-0.252 2.198-0.705 0.379-0.353 0.581-0.806 0.581-1.41 0-1.057-0.657-1.787-2.046-2.266-0.809-0.302-1.011-0.403-1.39-0.78-0.227-0.227-0.379-0.428-0.53-0.705h4.041v-1.435h-5.835c0 1.281 0.649 2.73 1.689 3.485" fill="#fff"/></g><g transform="translate(226.84 422.42)"><path d="m0 0h-28.8v21.6h28.8z" fill="none" stroke="#fff" stroke-miterlimit="10" stroke-width=".5"/></g><g transform="translate(226.84 450.32)"><path d="m0 0h-28.8v21.6h28.8z" fill="none" stroke="#fff" stroke-miterlimit="10" stroke-width=".5"/></g><g transform="translate(289.25 422.42)"><path d="m0 0h28.8v21.6h-28.8z" fill="none" stroke="#fff" stroke-miterlimit="10" stroke-width=".5"/></g><g transform="translate(289.25 450.32)"><path d="m0 0h28.8v21.6h-28.8z" fill="none" stroke="#fff" stroke-miterlimit="10" stroke-width=".5"/></g><g transform="translate(204.03 478.76)"><path d="m0 0c0 1.49 0.687 2.96 2.364 2.96 0.99 0 1.718-0.564 2.081-1.43l-1.07-0.402c-0.182 0.443-0.546 0.684-1.011 0.684-0.99 0-1.193-1.007-1.193-1.813 0-0.826 0.203-1.832 1.193-1.832 0.445 0 0.808 0.242 1.011 0.685h-0.687v1.148h1.98c-0.08-1.45-0.525-2.98-2.304-2.98-1.677 0-2.364 1.49-2.364 2.98" fill="#fff"/></g><g transform="translate(211.74 478.38)"><path d="m0 0h1.349l-0.644 1.611zm1.813-1.148h-2.277l-0.543-1.35h-1.229l2.317 5.76h1.188l2.316-5.76h-1.229z" fill="#fff"/></g><g transform="translate(220.86 477.57)"><path d="m0 0c0-0.604-0.323-1.188-0.829-1.47-0.343-0.202-0.949-0.322-1.495-0.322-0.647 0-1.273 0.181-1.778 0.523-0.181 0.1-0.304 0.201-0.566 0.443l0.808 0.806c0.485-0.443 0.93-0.625 1.596-0.625 0.667 0 1.132 0.222 1.132 0.625 0 0.161-0.101 0.382-0.263 0.483-0.202 0.12-0.404 0.181-1.152 0.323-0.606 0.139-0.969 0.261-1.212 0.422-0.383 0.262-0.626 0.766-0.626 1.249 0 0.583 0.303 1.108 0.808 1.409 0.323 0.202 0.707 0.282 1.213 0.282 0.646 0 1.252-0.141 1.738-0.443 0.121-0.08 0.181-0.121 0.363-0.262l-0.707-0.906c-0.465 0.343-0.889 0.464-1.435 0.464-0.525 0-0.849-0.181-0.849-0.544 0-0.522 0.665-0.44 1.427-0.628 0.859-0.211 1.827-0.665 1.827-1.829" fill="#fff"/></g><g transform="translate(266.31 480.49)"><path d="m0 0h-0.731v-3.464h0.731c1.035 0 1.664 0.644 1.664 1.732s-0.629 1.732-1.664 1.732m-0.061-4.612h-1.806v5.76h1.806c1.746 0 2.862-1.148 2.862-2.88 0-1.752-1.137-2.88-2.862-2.88" fill="#fff"/></g><g transform="translate(248.11 480.49)"><path d="m0 0v-1.027h1.851v-1.148h-1.851v-2.437h-1.127v5.76h4.266v-1.148z" fill="#fff"/></g><g transform="translate(260.65 480.57)"><path d="m0 0c-0.831 0-1.276-0.604-1.276-1.813 0-1.168 0.466-1.832 1.276-1.832 0.79 0 1.276 0.725 1.276 1.852 0 1.249-0.466 1.793-1.276 1.793m0-4.793c-1.742 0-2.431 1.47-2.431 2.98 0 1.813 0.932 2.961 2.431 2.961 1.398 0 2.41-1.188 2.41-2.961 0-1.832-0.952-2.98-2.41-2.98" fill="#fff"/></g><g transform="translate(254.66 480.57)"><path d="m0 0c-0.831 0-1.276-0.604-1.276-1.813 0-1.168 0.466-1.832 1.276-1.832 0.79 0 1.276 0.725 1.276 1.852 0 1.249-0.466 1.793-1.276 1.793m0-4.793c-1.742 0-2.431 1.47-2.431 2.98 0 1.813 0.932 2.961 2.431 2.961 1.398 0 2.41-1.188 2.41-2.961 0-1.832-0.952-2.98-2.41-2.98" fill="#fff"/></g></g><text transform="matrix(1 0 0 -1 169.54 457.37)" fill="black" font-family="Helvetica" font-size="9px"><tspan x="0 7.0019999" y="0">OR</tspan></text><text transform="matrix(1 0 0 -1 351.5 435.54)" fill="black" font-family="Helvetica" font-size="9px"><tspan x="0 6.0029998 12.501 18.504 21.006001 27.504 33.507 39.509998 45.513 50.516998 53.019001 59.516998 65.519997 72.017998 77.516998 80.018997 85.517998 88.019997 94.517998 99.856796 105.3558 107.8578 114.8598 121.3578 123.8598 129.19949 135.2025 141.7005 147.70351" y="0">BUSINESS IDENTIFICATION PANEL</tspan><tspan x="50.174999 53.172001 58.175999 63.18 65.681999 68.183998 70.685997 75.690002 78.192001 82.692001 87.192001 92.195999 94.194 99.197998" y="9.9989996">(not to scale)</tspan></text><g clip-path="url(#c)"><g transform="translate(440.6 592.61)"><path d="m0 0c-3.642 0-6.604 2.963-6.604 6.605v103.68c0 3.642 2.962 6.605 6.604 6.605h86.4c3.643 0 6.606-2.963 6.606-6.605v-103.68c0-3.642-2.963-6.605-6.606-6.605z" fill="#fff"/></g><g transform="translate(527 709.63)"><path d="m0 0h-86.4c-3.711 0-6.73-3.019-6.73-6.73v-103.68c0-3.711 3.019-6.73 6.73-6.73h86.4c3.711 0 6.73 3.019 6.73 6.73v103.68c0 3.711-3.019 6.73-6.73 6.73m0-0.25c3.579 0 6.48-2.901 6.48-6.48v-103.68c0-3.579-2.901-6.48-6.48-6.48h-86.4c-3.579 0-6.48 2.901-6.48 6.48v103.68c0 3.579 2.901 6.48 6.48 6.48z"/></g><g transform="translate(435.56 599.21)"><path d="m0 0v103.69c0 2.78 2.254 5.034 5.034 5.034h86.412c2.78 0 5.034-2.254 5.034-5.034v-103.69c0-2.78-2.254-5.034-5.034-5.034h-86.412c-2.78 0-5.034 2.254-5.034 5.034" fill="#005a9c"/></g><path d="m532.32 692.1h-97.111v-1.44h97.111z" fill="#fff"/><path d="m483.09 592.73h1.44v97.921h-1.44z" fill="#fff"/><g transform="translate(473.72 598.32)"><path d="m0 0h-28.8v21.6h28.8z" fill="none" stroke="#fff" stroke-miterlimit="10" stroke-width=".5"/></g><g transform="translate(473.72 626.22)"><path d="m0 0h-28.8v21.6h28.8z" fill="none" stroke="#fff" stroke-miterlimit="10" stroke-width=".5"/></g><g transform="translate(473.72 654.12)"><path d="m0 0h-28.8v21.6h28.8z" fill="none" stroke="#fff" stroke-miterlimit="10" stroke-width=".5"/></g><g transform="translate(522.69 598.32)"><path d="m0 0h-28.8v21.6h28.8z" fill="none" stroke="#fff" stroke-miterlimit="10" stroke-width=".5"/></g><g transform="translate(522.69 626.22)"><path d="m0 0h-28.8v21.6h28.8z" fill="none" stroke="#fff" stroke-miterlimit="10" stroke-width=".5"/></g><g transform="translate(522.69 654.12)"><path d="m0 0h-28.8v21.6h28.8z" fill="none" stroke="#fff" stroke-miterlimit="10" stroke-width=".5"/></g><g transform="translate(503.07 684.29)"><path d="m0 0h-0.731v-3.464h0.731c1.035 0 1.665 0.644 1.665 1.732s-0.63 1.732-1.665 1.732m-0.061-4.612h-1.806v5.76h1.806c1.746 0 2.862-1.148 2.862-2.88 0-1.752-1.136-2.88-2.862-2.88" fill="#fff"/></g><g transform="translate(524.25 679.57)"><path d="m0 0c-1.677 0-2.365 1.49-2.365 2.981 0 1.49 0.688 2.96 2.365 2.96 0.99 0 1.718-0.564 2.082-1.43l-1.071-0.403c-0.182 0.444-0.546 0.685-1.011 0.685-0.99 0-1.192-1.007-1.192-1.812 0-0.826 0.202-1.833 1.192-1.833 0.445 0 0.808 0.242 1.011 0.685h-0.688v1.148h1.981c-0.081-1.45-0.525-2.981-2.304-2.981" fill="#fff"/></g><g transform="translate(509.38 679.57)"><path d="m0 0c-1.677 0-2.365 1.49-2.365 2.981 0 1.49 0.688 2.96 2.365 2.96 0.99 0 1.718-0.564 2.082-1.43l-1.072-0.403c-0.181 0.444-0.545 0.685-1.01 0.685-0.99 0-1.192-1.007-1.192-1.812 0-0.826 0.202-1.833 1.192-1.833 0.445 0 0.808 0.242 1.01 0.685h-0.687v1.148h1.981c-0.081-1.45-0.525-2.981-2.304-2.981" fill="#fff"/></g><path d="m513.07 685.44h1.152v-5.76h-1.152z" fill="#fff"/><g transform="translate(490.02 679.67)"><path d="m0 0v5.76h1.127v-4.672h3.138v-1.088z" fill="#fff"/></g><g transform="translate(519.51 679.67)"><path d="m0 0-2.537 3.686v-3.686h-1.137v5.76h1.137l2.395-3.524v3.524h1.137v-5.76z" fill="#fff"/></g><g transform="translate(497.41 684.37)"><path d="m0 0c-0.831 0-1.276-0.604-1.276-1.813 0-1.168 0.466-1.832 1.276-1.832 0.79 0 1.276 0.725 1.276 1.853 0 1.248-0.466 1.792-1.276 1.792m0-4.793c-1.742 0-2.431 1.47-2.431 2.98 0 1.813 0.932 2.961 2.431 2.961 1.398 0 2.411-1.188 2.411-2.961 0-1.832-0.953-2.98-2.411-2.98" fill="#fff"/></g><g transform="translate(462.23 703.07)"><path d="m0 0h5.231v-1.435h-3.822v-1.183h2.162v-1.435h-2.162v-1.712h3.922v-1.435h-5.331z" fill="#fff"/></g><g transform="translate(471.71 698.29)"><path d="m0 0-1.485-2.417h-1.661l2.265 3.802-2.064 3.399h1.687l1.258-2.04 1.208 2.04h1.711l-2.038-3.426 2.24-3.775h-1.686z" fill="#fff"/></g><path d="m476.35 703.08h1.44v-7.2h-1.44z" fill="#fff"/><g transform="translate(482.45 695.87)"><path d="m0 0h-1.382v5.765h-1.988v1.435h5.332v-1.435h-1.962z" fill="#fff"/></g><g transform="translate(499.81 695.81)"><path d="m0 0v4.884h-0.703v1.46c0.527 0.252 0.577 0.403 0.803 0.856h1.357v-7.2z" fill="#fff"/></g><g transform="translate(503.84 695.81)"><path d="m0 0v4.884h-0.703v1.46c0.527 0.252 0.577 0.403 0.803 0.856h1.357v-7.2z" fill="#fff"/></g><g transform="translate(493.3 699.3)"><path d="m0 0c1.129 0.82 2.656 0.937 2.656 1.651 0 0.428-0.581 0.73-1.415 0.73-0.732 0-1.212-0.176-1.92-0.73l-1.01 1.057c0.48 0.353 0.707 0.504 1.036 0.655 0.581 0.302 1.238 0.453 1.945 0.453 0.909 0 1.718-0.252 2.198-0.705 0.379-0.353 0.581-0.806 0.581-1.41 0-1.057-0.657-1.787-2.047-2.266-0.808-0.302-1.01-0.402-1.389-0.78-0.227-0.227-0.379-0.428-0.53-0.705h4.041v-1.435h-5.835c0 1.281 0.649 2.73 1.689 3.485" fill="#fff"/></g><g transform="translate(450.91 682.55)"><path d="m0 0c0 1.49 0.687 2.96 2.364 2.96 0.99 0 1.717-0.564 2.081-1.43l-1.071-0.402c-0.181 0.443-0.545 0.684-1.01 0.684-0.99 0-1.193-1.007-1.193-1.813 0-0.826 0.203-1.832 1.193-1.832 0.445 0 0.808 0.242 1.01 0.685h-0.686v1.148h1.98c-0.08-1.45-0.525-2.98-2.304-2.98-1.677 0-2.364 1.49-2.364 2.98" fill="#fff"/></g><g transform="translate(458.62 682.17)"><path d="m0 0h1.349l-0.644 1.611zm1.813-1.148h-2.277l-0.543-1.35h-1.229l2.317 5.76h1.188l2.317-5.76h-1.229z" fill="#fff"/></g><g transform="translate(467.74 681.37)"><path d="m0 0c0-0.604-0.323-1.188-0.829-1.47-0.343-0.202-0.949-0.322-1.495-0.322-0.647 0-1.273 0.181-1.778 0.523-0.181 0.1-0.304 0.201-0.566 0.443l0.808 0.806c0.485-0.443 0.93-0.625 1.596-0.625 0.667 0 1.132 0.222 1.132 0.625 0 0.161-0.101 0.382-0.263 0.483-0.202 0.12-0.404 0.181-1.152 0.323-0.606 0.139-0.969 0.261-1.212 0.422-0.383 0.262-0.626 0.766-0.626 1.249 0 0.584 0.303 1.108 0.808 1.409 0.323 0.202 0.707 0.282 1.213 0.282 0.646 0 1.252-0.141 1.738-0.443 0.12-0.08 0.181-0.121 0.363-0.262l-0.707-0.906c-0.465 0.343-0.889 0.464-1.435 0.464-0.525 0-0.849-0.181-0.849-0.544 0-0.522 0.665-0.44 1.427-0.627 0.859-0.212 1.827-0.666 1.827-1.83" fill="#fff"/></g><g transform="translate(294.95 592.61)"><path d="m0 0c-3.642 0-6.604 2.963-6.604 6.605v86.4c0 3.642 2.962 6.605 6.604 6.605h108c3.643 0 6.605-2.963 6.605-6.605v-86.4c0-3.642-2.962-6.605-6.605-6.605z" fill="#fff"/></g><g transform="translate(402.95 692.34)"><path d="m0 0h-108c-3.711 0-6.73-3.019-6.73-6.73v-86.4c0-3.711 3.019-6.73 6.73-6.73h108c3.711 0 6.73 3.019 6.73 6.73v86.4c0 3.711-3.019 6.73-6.73 6.73m0-0.25c3.579 0 6.48-2.901 6.48-6.48v-86.4c0-3.579-2.901-6.48-6.48-6.48h-108c-3.579 0-6.48 2.901-6.48 6.48v86.4c0 3.579 2.901 6.48 6.48 6.48z"/></g><g transform="translate(289.91 599.21)"><path d="m0 0v86.412c0 2.78 2.254 5.034 5.034 5.034h108.01c2.78 0 5.034-2.254 5.034-5.034v-86.412c0-2.78-2.254-5.034-5.034-5.034h-108.01c-2.78 0-5.034 2.254-5.034 5.034" fill="#005a9c"/></g><g transform="translate(326.45 649.61)"><path d="m0 0h-28.8v21.6h28.8z" fill="none" stroke="#fff" stroke-miterlimit="10" stroke-width=".5"/></g><g transform="translate(326.45 600.92)"><path d="m0 0h-28.8v21.6h28.8z" fill="none" stroke="#fff" stroke-miterlimit="10" stroke-width=".5"/></g><g transform="translate(363.35 649.61)"><path d="m0 0h-28.8v21.6h28.8z" fill="none" stroke="#fff" stroke-miterlimit="10" stroke-width=".5"/></g><g transform="translate(363.35 600.92)"><path d="m0 0h-28.8v21.6h28.8z" fill="none" stroke="#fff" stroke-miterlimit="10" stroke-width=".5"/></g><g transform="translate(400.25 649.61)"><path d="m0 0h-28.8v21.6h28.8z" fill="none" stroke="#fff" stroke-miterlimit="10" stroke-width=".5"/></g><g transform="translate(400.25 600.92)"><path d="m0 0h-28.8v21.6h28.8z" fill="none" stroke="#fff" stroke-miterlimit="10" stroke-width=".5"/></g><path d="m336.13 680.81h3.6v-1.46h-3.6z" fill="#fff"/><g transform="translate(311.5 681.11)"><path d="m0 0c0 1.863 0.859 3.7 2.955 3.7 1.237 0 2.147-0.705 2.601-1.788l-1.338-0.503c-0.227 0.555-0.682 0.856-1.263 0.856-1.238 0-1.491-1.259-1.491-2.266 0-1.032 0.253-2.29 1.491-2.29 0.556 0 1.01 0.302 1.263 0.856h-0.858v1.435h2.475c-0.1-1.813-0.656-3.725-2.88-3.725-2.096 0-2.955 1.862-2.955 3.725" fill="#fff"/></g><g transform="translate(321.14 680.64)"><path d="m0 0h1.687l-0.806 2.013zm2.266-1.435h-2.845l-0.679-1.687h-1.537l2.896 7.2h1.485l2.896-7.2h-1.536z" fill="#fff"/></g><g transform="translate(332.53 679.63)"><path d="m0 0c0-0.755-0.404-1.485-1.036-1.838-0.429-0.252-1.187-0.402-1.869-0.402-0.808 0-1.591 0.226-2.222 0.654-0.227 0.125-0.38 0.251-0.708 0.554l1.01 1.007c0.607-0.554 1.162-0.781 1.996-0.781 0.833 0 1.414 0.278 1.414 0.781 0 0.201-0.127 0.478-0.328 0.604-0.253 0.15-0.505 0.226-1.44 0.403-0.758 0.174-1.212 0.327-1.516 0.528-0.478 0.328-0.783 0.957-0.783 1.561 0 0.73 0.379 1.385 1.011 1.762 0.404 0.252 0.884 0.352 1.516 0.352 0.808 0 1.565-0.177 2.172-0.554 0.151-0.1 0.227-0.151 0.455-0.327l-0.884-1.132c-0.582 0.428-1.112 0.579-1.794 0.579-0.657 0-1.061-0.227-1.061-0.68 0-0.653 0.831-0.549 1.783-0.784 1.074-0.265 2.284-0.832 2.284-2.287" fill="#fff"/></g><g transform="translate(343.33 684.71)"><path d="m0 0h5.23v-1.435h-3.822v-1.183h2.163v-1.435h-2.163v-1.712h3.923v-1.435h-5.331z" fill="#fff"/></g><g transform="translate(352.82 679.93)"><path d="m0 0-1.485-2.417h-1.661l2.265 3.802-2.064 3.398h1.687l1.258-2.039 1.208 2.039h1.711l-2.038-3.425 2.24-3.775h-1.687z" fill="#fff"/></g><path d="m357.45 684.71h1.44v-7.2h-1.44z" fill="#fff"/><g transform="translate(363.56 677.51)"><path d="m0 0h-1.382v5.765h-1.988v1.435h5.332v-1.435h-1.962z" fill="#fff"/></g><g transform="translate(380.92 677.45)"><path d="m0 0v4.884h-0.703v1.46c0.527 0.252 0.577 0.403 0.803 0.856h1.357v-7.2z" fill="#fff"/></g><g transform="translate(384.95 677.45)"><path d="m0 0v4.884h-0.703v1.46c0.527 0.252 0.577 0.403 0.803 0.856h1.357v-7.2z" fill="#fff"/></g><g transform="translate(374.41 680.94)"><path d="m0 0c1.129 0.82 2.656 0.937 2.656 1.651 0 0.428-0.581 0.73-1.415 0.73-0.732 0-1.212-0.176-1.92-0.73l-1.01 1.057c0.48 0.353 0.707 0.504 1.036 0.655 0.581 0.302 1.238 0.453 1.945 0.453 0.909 0 1.718-0.252 2.198-0.705 0.379-0.353 0.581-0.806 0.581-1.41 0-1.057-0.657-1.787-2.047-2.266-0.808-0.302-1.01-0.403-1.389-0.78-0.227-0.227-0.379-0.428-0.53-0.705h4.042v-1.435h-5.836c0 1.281 0.649 2.73 1.689 3.485" fill="#fff"/></g><path d="m289.19 641.96h119.52v1.44h-119.52z" fill="#fff"/><path d="m348.45 632.12h3.6v-1.46h-3.6z" fill="#fff"/><g transform="translate(355.65 636.02)"><path d="m0 0h5.231v-1.435h-3.823v-1.183h2.163v-1.435h-2.163v-1.712h3.923v-1.435h-5.331z" fill="#fff"/></g><g transform="translate(365.14 631.24)"><path d="m0 0-1.485-2.417h-1.661l2.265 3.802-2.064 3.399h1.687l1.258-2.04 1.208 2.04h1.711l-2.038-3.426 2.24-3.775h-1.686z" fill="#fff"/></g><path d="m369.77 636.02h1.44v-7.2h-1.44z" fill="#fff"/><g transform="translate(375.87 628.82)"><path d="m0 0h-1.382v5.765h-1.987v1.435h5.331v-1.435h-1.962z" fill="#fff"/></g><g transform="translate(393.23 628.76)"><path d="m0 0v4.884h-0.703v1.46c0.527 0.252 0.577 0.403 0.803 0.856h1.357v-7.2z" fill="#fff"/></g><g transform="translate(397.26 628.76)"><path d="m0 0v4.884h-0.703v1.46c0.527 0.252 0.578 0.403 0.804 0.856h1.356v-7.2z" fill="#fff"/></g><g transform="translate(386.73 632.25)"><path d="m0 0c1.129 0.82 2.656 0.937 2.656 1.651 0 0.428-0.581 0.73-1.415 0.73-0.732 0-1.212-0.176-1.919-0.73l-1.011 1.057c0.48 0.353 0.707 0.504 1.036 0.655 0.581 0.302 1.238 0.453 1.945 0.453 0.909 0 1.718-0.252 2.198-0.705 0.379-0.353 0.581-0.806 0.581-1.41 0-1.057-0.657-1.787-2.046-2.266-0.809-0.302-1.011-0.403-1.39-0.78-0.227-0.227-0.379-0.428-0.53-0.705h4.042v-1.435h-5.836c0 1.281 0.649 2.73 1.689 3.485" fill="#fff"/></g><g transform="translate(315.49 634.59)"><path d="m0 0h-0.913v-4.33h0.913c1.294 0 2.08 0.806 2.08 2.165s-0.786 2.165-2.08 2.165m-0.076-5.765h-2.258v7.2h2.258c2.182 0 3.577-1.435 3.577-3.6 0-2.19-1.421-3.6-3.577-3.6" fill="#fff"/></g><g transform="translate(341.97 628.7)"><path d="m0 0c-2.097 0-2.956 1.863-2.956 3.726s0.859 3.701 2.956 3.701c1.238 0 2.147-0.705 2.602-1.788l-1.339-0.503c-0.227 0.554-0.682 0.856-1.263 0.856-1.238 0-1.491-1.259-1.491-2.266 0-1.032 0.253-2.291 1.491-2.291 0.556 0 1.01 0.302 1.263 0.856h-0.859v1.435h2.476c-0.101-1.813-0.657-3.726-2.88-3.726" fill="#fff"/></g><g transform="translate(323.39 628.7)"><path d="m0 0c-2.097 0-2.956 1.863-2.956 3.726s0.859 3.701 2.956 3.701c1.238 0 2.147-0.705 2.602-1.788l-1.339-0.503c-0.227 0.554-0.682 0.856-1.263 0.856-1.238 0-1.49-1.259-1.49-2.266 0-1.032 0.252-2.291 1.49-2.291 0.556 0 1.011 0.302 1.263 0.856h-0.859v1.435h2.476c-0.101-1.813-0.657-3.726-2.88-3.726" fill="#fff"/></g><path d="m327.99 636.02h1.44v-7.2h-1.44z" fill="#fff"/><g transform="translate(299.18 628.82)"><path d="m0 0v7.2h1.408v-5.841h3.924v-1.359z" fill="#fff"/></g><g transform="translate(336.04 628.82)"><path d="m0 0-3.172 4.607v-4.607h-1.42v7.2h1.42l2.994-4.406v4.406h1.421v-7.2z" fill="#fff"/></g><g transform="translate(308.41 634.69)"><path d="m0 0c-1.038 0-1.595-0.755-1.595-2.266 0-1.46 0.582-2.291 1.595-2.291 0.987 0 1.595 0.907 1.595 2.316 0 1.561-0.582 2.241-1.595 2.241m0-5.992c-2.177 0-3.038 1.838-3.038 3.726 0 2.266 1.164 3.701 3.038 3.701 1.747 0 3.013-1.485 3.013-3.701 0-2.291-1.19-3.726-3.013-3.726" fill="#fff"/></g></g><text transform="matrix(1 0 0 -1 414.86 645.23)" fill="black" font-family="Helvetica" font-size="9px"><tspan x="0 7.0019999" y="0">OR</tspan></text><g clip-path="url(#b)"><g transform="translate(39.995 592.61)"><path d="m0 0c-3.642 0-6.605 2.963-6.605 6.605v64.8c0 3.642 2.963 6.605 6.605 6.605h108c3.642 0 6.605-2.963 6.605-6.605v-64.8c0-3.642-2.963-6.605-6.605-6.605z" fill="#fff"/></g><g transform="translate(148 670.74)"><path d="m0 0h-108c-3.711 0-6.73-3.019-6.73-6.73v-64.8c0-3.711 3.019-6.73 6.73-6.73h108c3.711 0 6.73 3.019 6.73 6.73v64.8c0 3.711-3.019 6.73-6.73 6.73m0-0.25c3.579 0 6.48-2.901 6.48-6.48v-64.8c0-3.579-2.901-6.48-6.48-6.48h-108c-3.579 0-6.48 2.901-6.48 6.48v64.8c0 3.579 2.901 6.48 6.48 6.48z"/></g><g transform="translate(34.955 599.21)"><path d="m0 0v64.812c0 2.78 2.254 5.034 5.034 5.034h108.01c2.78 0 5.034-2.254 5.034-5.034v-64.812c0-2.78-2.254-5.034-5.034-5.034h-108.01c-2.78 0-5.034 2.254-5.034 5.034" fill="#005a9c"/></g><g transform="translate(71.495 628.01)"><path d="m0 0h-28.8v21.6h28.8z" fill="none" stroke="#fff" stroke-miterlimit="10" stroke-width=".5"/></g><g transform="translate(71.495 600.11)"><path d="m0 0h-28.8v21.6h28.8z" fill="none" stroke="#fff" stroke-miterlimit="10" stroke-width=".5"/></g><g transform="translate(108.39 628.01)"><path d="m0 0h-28.8v21.6h28.8z" fill="none" stroke="#fff" stroke-miterlimit="10" stroke-width=".5"/></g><g transform="translate(108.39 600.11)"><path d="m0 0h-28.8v21.6h28.8z" fill="none" stroke="#fff" stroke-miterlimit="10" stroke-width=".5"/></g><g transform="translate(145.29 628.01)"><path d="m0 0h-28.8v21.6h28.8z" fill="none" stroke="#fff" stroke-miterlimit="10" stroke-width=".5"/></g><g transform="translate(145.29 600.11)"><path d="m0 0h-28.8v21.6h28.8z" fill="none" stroke="#fff" stroke-miterlimit="10" stroke-width=".5"/></g><path d="m80.708 659.21h3.6v-1.46h-3.6z" fill="#fff"/><g transform="translate(56.071 659.51)"><path d="m0 0c0 1.863 0.859 3.7 2.955 3.7 1.237 0 2.147-0.705 2.601-1.788l-1.338-0.503c-0.227 0.555-0.682 0.856-1.263 0.856-1.238 0-1.491-1.259-1.491-2.266 0-1.032 0.253-2.29 1.491-2.29 0.556 0 1.01 0.302 1.263 0.855h-0.858v1.436h2.475c-0.1-1.813-0.656-3.725-2.88-3.725-2.096 0-2.955 1.862-2.955 3.725" fill="#fff"/></g><g transform="translate(65.71 659.04)"><path d="m0 0h1.687l-0.806 2.013zm2.266-1.435h-2.846l-0.678-1.687h-1.537l2.896 7.2h1.485l2.896-7.2h-1.537z" fill="#fff"/></g><g transform="translate(77.108 658.03)"><path d="m0 0c0-0.755-0.404-1.485-1.036-1.838-0.429-0.252-1.187-0.402-1.869-0.402-0.808 0-1.591 0.226-2.222 0.654-0.227 0.125-0.38 0.251-0.708 0.554l1.01 1.007c0.607-0.554 1.162-0.781 1.996-0.781 0.833 0 1.414 0.278 1.414 0.781 0 0.201-0.127 0.478-0.328 0.604-0.253 0.15-0.505 0.227-1.44 0.403-0.758 0.175-1.212 0.327-1.516 0.528-0.479 0.328-0.783 0.957-0.783 1.561 0 0.73 0.379 1.385 1.011 1.762 0.404 0.252 0.884 0.352 1.515 0.352 0.809 0 1.566-0.176 2.173-0.554 0.151-0.099 0.227-0.151 0.454-0.327l-0.883-1.132c-0.582 0.428-1.112 0.579-1.794 0.579-0.657 0-1.061-0.227-1.061-0.68 0-0.653 0.831-0.549 1.783-0.784 1.074-0.265 2.284-0.832 2.284-2.287" fill="#fff"/></g><g transform="translate(87.908 663.11)"><path d="m0 0h5.231v-1.435h-3.823v-1.183h2.163v-1.435h-2.163v-1.712h3.923v-1.435h-5.331z" fill="#fff"/></g><g transform="translate(97.394 658.33)"><path d="m0 0-1.485-2.417h-1.661l2.265 3.802-2.064 3.399h1.687l1.258-2.04 1.208 2.04h1.711l-2.038-3.426 2.24-3.775h-1.687z" fill="#fff"/></g><path d="m102.03 663.11h1.44v-7.2h-1.44z" fill="#fff"/><g transform="translate(108.13 655.91)"><path d="m0 0h-1.382v5.765h-1.987v1.435h5.331v-1.435h-1.962z" fill="#fff"/></g><g transform="translate(119.16 658.83)"><path d="m0 0h2.343v2.342zm3.753-2.92h-1.41v1.586h-4.207v1.335l4.207 4.279h1.41v-4.279h1.083v-1.335h-1.083z" fill="#fff"/></g><g transform="translate(127.08 658.83)"><path d="m0 0h2.343v2.342zm3.753-2.92h-1.41v1.586h-4.207v1.335l4.207 4.279h1.41v-4.279h1.082v-1.335h-1.082z" fill="#fff"/></g><g transform="translate(185.55 592.61)"><path d="m0 0c-3.642 0-6.605 2.963-6.605 6.605v95.041c0 3.641 2.963 6.604 6.605 6.604h73.44c3.642 0 6.605-2.963 6.605-6.604v-95.041c0-3.642-2.963-6.605-6.605-6.605z" fill="#fff"/></g><g transform="translate(258.99 700.98)"><path d="m0 0h-73.44c-3.711 0-6.73-3.019-6.73-6.73v-95.04c0-3.711 3.019-6.73 6.73-6.73h73.44c3.711 0 6.73 3.019 6.73 6.73v95.04c0 3.711-3.019 6.73-6.73 6.73m0-0.25c3.579 0 6.48-2.901 6.48-6.48v-95.04c0-3.579-2.901-6.48-6.48-6.48h-73.44c-3.579 0-6.48 2.901-6.48 6.48v95.04c0 3.579 2.901 6.48 6.48 6.48z"/></g><g transform="translate(180.51 599.21)"><path d="m0 0v95.052c0 2.78 2.254 5.034 5.034 5.034h73.452c2.78 0 5.034-2.254 5.034-5.034v-95.052c0-2.78-2.254-5.034-5.034-5.034h-73.452c-2.78 0-5.034 2.254-5.034 5.034" fill="#005a9c"/></g><g transform="translate(218.22 658.25)"><path d="m0 0h-28.8v21.6h28.8z" fill="none" stroke="#fff" stroke-miterlimit="10" stroke-width=".5"/></g><g transform="translate(218.22 630.35)"><path d="m0 0h-28.8v21.6h28.8z" fill="none" stroke="#fff" stroke-miterlimit="10" stroke-width=".5"/></g><g transform="translate(255.12 658.25)"><path d="m0 0h-28.8v21.6h28.8z" fill="none" stroke="#fff" stroke-miterlimit="10" stroke-width=".5"/></g><g transform="translate(255.12 630.35)"><path d="m0 0h-28.8v21.6h28.8z" fill="none" stroke="#fff" stroke-miterlimit="10" stroke-width=".5"/></g><g transform="translate(218.22 602.45)"><path d="m0 0h-28.8v21.6h28.8z" fill="none" stroke="#fff" stroke-miterlimit="10" stroke-width=".5"/></g><g transform="translate(255.12 602.45)"><path d="m0 0h-28.8v21.6h28.8z" fill="none" stroke="#fff" stroke-miterlimit="10" stroke-width=".5"/></g><path d="m208.98 689.45h3.6v-1.46h-3.6z" fill="#fff"/><g transform="translate(184.34 689.75)"><path d="m0 0c0 1.863 0.859 3.7 2.955 3.7 1.237 0 2.147-0.705 2.601-1.788l-1.338-0.503c-0.227 0.555-0.682 0.856-1.263 0.856-1.238 0-1.491-1.259-1.491-2.266 0-1.032 0.253-2.29 1.491-2.29 0.556 0 1.01 0.302 1.263 0.856h-0.858v1.435h2.475c-0.1-1.813-0.656-3.725-2.88-3.725-2.096 0-2.955 1.862-2.955 3.725" fill="#fff"/></g><g transform="translate(193.98 689.28)"><path d="m0 0h1.686l-0.805 2.013zm2.266-1.435h-2.846l-0.678-1.687h-1.537l2.896 7.2h1.485l2.896-7.2h-1.536z" fill="#fff"/></g><g transform="translate(205.38 688.27)"><path d="m0 0c0-0.755-0.404-1.485-1.036-1.838-0.429-0.252-1.187-0.402-1.869-0.402-0.808 0-1.591 0.226-2.222 0.654-0.227 0.125-0.38 0.251-0.708 0.554l1.01 1.007c0.607-0.554 1.162-0.781 1.996-0.781 0.833 0 1.414 0.278 1.414 0.781 0 0.201-0.127 0.478-0.328 0.604-0.253 0.15-0.505 0.226-1.44 0.403-0.758 0.174-1.212 0.327-1.516 0.528-0.479 0.328-0.783 0.957-0.783 1.561 0 0.73 0.379 1.385 1.011 1.762 0.404 0.252 0.884 0.352 1.515 0.352 0.809 0 1.566-0.177 2.173-0.554 0.151-0.1 0.227-0.151 0.454-0.327l-0.883-1.132c-0.582 0.428-1.112 0.579-1.794 0.579-0.657 0-1.061-0.227-1.061-0.68 0-0.653 0.831-0.549 1.783-0.784 1.074-0.265 2.284-0.832 2.284-2.287" fill="#fff"/></g><g transform="translate(216.18 693.35)"><path d="m0 0h5.231v-1.435h-3.822v-1.183h2.162v-1.435h-2.162v-1.712h3.922v-1.435h-5.331z" fill="#fff"/></g><g transform="translate(225.67 688.57)"><path d="m0 0-1.485-2.417h-1.661l2.265 3.802-2.064 3.399h1.687l1.258-2.04 1.208 2.04h1.711l-2.038-3.426 2.24-3.775h-1.687z" fill="#fff"/></g><path d="m230.3 693.35h1.44v-7.2h-1.44z" fill="#fff"/><g transform="translate(236.41 686.15)"><path d="m0 0h-1.382v5.765h-1.987v1.435h5.331v-1.435h-1.962z" fill="#fff"/></g><g transform="translate(247.43 689.07)"><path d="m0 0h2.343v2.342zm3.753-2.92h-1.41v1.586h-4.207v1.335l4.207 4.279h1.41v-4.279h1.083v-1.335h-1.083z" fill="#fff"/></g><g transform="translate(255.36 689.07)"><path d="m0 0h2.343v2.342zm3.753-2.92h-1.41v1.586h-4.207v1.335l4.207 4.279h1.41v-4.279h1.082v-1.335h-1.082z" fill="#fff"/></g></g><text transform="matrix(1 0 0 -1 159.99 628.76)" fill="black" font-family="Helvetica" font-size="9px"><tspan x="0 7.0019999" y="0">OR</tspan></text><g clip-path="url(#a)"><g transform="translate(401.04 448.28)"><path d="m0 0c-1.26 0-2.285 1.025-2.285 2.285v38.88c0 1.26 1.025 2.285 2.285 2.285h53.28c1.26 0 2.285-1.025 2.285-2.285v-38.88c0-1.26-1.025-2.285-2.285-2.285z" fill="#fff"/></g><g transform="translate(454.32 491.85)"><path d="m0 0h-53.28c-1.329 0-2.41-1.081-2.41-2.41v-38.88c0-1.329 1.081-2.41 2.41-2.41h53.28c1.329 0 2.41 1.081 2.41 2.41v38.88c0 1.329-1.081 2.41-2.41 2.41m0-0.25c1.193 0 2.16-0.967 2.16-2.16v-38.88c0-1.193-0.967-2.16-2.16-2.16h-53.28c-1.193 0-2.16 0.967-2.16 2.16v38.88c0 1.193 0.967 2.16 2.16 2.16z"/></g><g transform="translate(399.6 450.56)"><path d="m0 0v38.88c0 0.794 0.646 1.44 1.44 1.44h53.28c0.793 0 1.44-0.646 1.44-1.44v-38.88c0-0.794-0.647-1.44-1.44-1.44h-53.28c-0.794 0-1.44 0.646-1.44 1.44" fill="#005a9c"/></g><g transform="translate(413.87 477.89)"><path d="m0 0-2.003-5.003-2.006 5.003v-5.003h-1.367v8.64h1.367l2.006-4.85 2.003 4.85h1.367v-8.64h-1.367z" fill="#fff"/></g><g transform="translate(419.12 474)"><path d="m0 0c0.441 0 0.892 0.159 1.121 0.28v1.457c-0.261 0.124-0.731 0.267-1.174 0.267-0.527 0-1.003-0.207-1.003-0.905 0-0.858 0.513-1.099 1.056-1.099m-0.044 4.089c-0.639 0-1.216-0.351-1.555-0.805l-0.394 1.336c0.567 0.444 1.266 0.722 2.157 0.722 1.223 0 2.347-0.747 2.347-2.239v-4.219h-1.33v0.183c-0.211-0.183-0.755-0.272-1.239-0.272-1.27 0-2.358 0.814-2.358 2.336 0 1.244 1.053 2.057 2.464 2.057 0.299 0 0.766-0.095 1.043-0.207 0 0.33-0.142 1.108-1.135 1.108" fill="#fff"/></g><g transform="translate(425.56 478.07)"><path d="m0 0c-0.791 0-0.881-0.45-0.881-1.245v-3.945h-1.4v6.311h1.4v-0.303c0.334 0.303 0.486 0.455 0.973 0.455 0.475 0 0.7-0.182 0.912-0.425l-0.182-1.213c-0.274 0.213-0.489 0.365-0.822 0.365" fill="#fff"/></g><g transform="translate(427.74 474.4)"><path d="m0 0v3.52h-0.918v1.274h0.918v1.821l1.347 0.667v-2.488h1.101v-1.244h-1.101v-3.337c0-0.431 0.051-0.607 0.459-0.607 0.305 0 0.459 0.089 0.734 0.303l-0.185-1.274c-0.544-0.239-0.69-0.278-1.159-0.278-0.914 0-1.196 0.76-1.196 1.643" fill="#fff"/></g><path d="m431.23 479.2h1.382v-6.311h-1.382zm-0.037 1.76c0 0.396 0.332 0.722 0.728 0.728 0.397 0 0.728-0.332 0.728-0.728 0-0.394-0.333-0.698-0.728-0.698-0.394 0-0.728 0.304-0.728 0.698" fill="#fff"/><g transform="translate(438.07 477.07)"><path d="m0 0c0 0.816-0.545 1.001-1.274 1.001-0.194 0-1.063-0.111-1.063-1.063v-4.126h-1.397v6.311h1.367v-0.211c0.344 0.214 0.952 0.389 1.358 0.389h0.016c1.19 0 2.359-0.765 2.359-2.149v-4.34h-1.366z" fill="#fff"/></g><g transform="translate(440.82 478.07)"><path d="m0 0-0.255 3.456h1.555l-0.255-3.456z" fill="#fff"/></g><g transform="translate(444.97 472.77)"><path d="m0 0c-0.895 0-1.728 0.53-2.157 1.616l1.175 0.461c0.223-0.563 0.573-0.818 0.982-0.818 0.424-1e-3 0.645 0.328 0.645 0.748 0 1.342-2.608 0.667-2.608 2.82 0 1.068 0.736 1.759 1.874 1.759 0.819 0 1.471-0.47 1.783-1.29l-1.179-0.45c-0.067 0.314-0.38 0.502-0.68 0.502-0.279 0-0.535-0.164-0.535-0.521-1e-3 -0.996 2.606-0.48 2.606-2.82 0-1.057-0.72-2.007-1.906-2.007" fill="#fff"/></g><g transform="translate(419.67 462.24)"><path d="m0 0h-3.155v-3.759h-1.363v8.639h1.363v-3.486h3.154v3.486h1.365v-8.639h-1.364z" fill="#fff"/></g><g transform="translate(423.99 461.64)"><path d="m0 0c0-0.637 0.183-2.033 1.25-2.033s1.219 1.427 1.219 2.063c0 0.607-0.184 2.005-1.219 2.005v-2e-3c-1.067 0-1.25-1.396-1.25-2.033m-1.402 0.03c0 1.396 0.457 3.278 2.652 3.278 2.164 0 2.621-1.76 2.621-3.278 0-1.517-0.457-3.307-2.621-3.307-2.195 0-2.652 1.669-2.652 3.307" fill="#fff"/></g><g transform="translate(429.38 460)"><path d="m0 0v3.52h-0.918v1.274h0.918v1.821l1.347 0.667v-2.488h1.101v-1.244h-1.101v-3.337c0-0.431 0.05-0.607 0.459-0.607 0.305 0 0.459 0.089 0.734 0.303l-0.185-1.274c-0.544-0.239-0.69-0.278-1.159-0.278-0.914 0-1.196 0.76-1.196 1.643" fill="#fff"/></g><g transform="translate(433.91 462.34)"><path d="m0 0h2.352c0 0.609-0.121 1.336-1.146 1.336-1.049 0-1.206-0.711-1.206-1.336m0.03-1.274c0.061-0.698 0.331-1.427 1.176-1.427 0.555 0 1.025 0.334 1.176 0.88l1.115-0.698c-0.362-0.819-1.025-1.456-2.291-1.456-2.176 0-2.593 1.668-2.593 3.308 0 1.395 0.423 3.276 2.593 3.276 2.273 0 2.507-1.97 2.507-3.493v-0.39z" fill="#fff"/></g><g transform="translate(438.84 466.62)"><path d="m0 0 1.382 0.667v-8.799h-1.382z" fill="#fff"/></g></g></g></svg>
