<?xml version="1.0" encoding="UTF-8"?>
<svg width="638.49" height="783.12" version="1.1" viewBox="0 0 638.49 783.12" xml:space="preserve" xmlns="http://www.w3.org/2000/svg"><defs><clipPath id="e"><path d="m39.827 108.22h489.35v634.78h-489.35z"/></clipPath><clipPath id="d"><path d="m39.827 108.22h489.35v634.78h-489.35z"/></clipPath><clipPath id="c"><path d="m39.827 108.22h489.35v634.78h-489.35z"/></clipPath><clipPath id="b"><path d="m39.827 108.22h489.35v634.78h-489.35z"/></clipPath><clipPath id="a"><path d="m39.827 108.22h489.35v634.78h-489.35z"/></clipPath></defs><g transform="matrix(1.3333 0 0 -1.3333 -67.077 933.55)"><text transform="matrix(1 0 0 -1 62.083 256.02)" fill="black" font-family="Helvetica" font-size="8px"><tspan x="0 4.888 9.3360004 12 14.224 18.672001 22.672001 26.672001 31.120001 35.119999 39.119999 41.784 44.448002 48.896 52.896 55.119999 57.784 59.560001 63.560001 65.783997 70.232002 74.68 76.903999 79.127998 83.575996 87.575996 89.351997 91.127998 92.903999 95.127998 96.903999 101.352" y="0">For access-restricted facilities</tspan></text><g transform="translate(58.436 259.4)"><path d="m0 0-2.35-0.717 1.544-2.172-1.41-0.984-1.521 2.037-1.544-2.037-1.41 0.984 1.521 2.172-2.327 0.717 0.515 1.633 2.282-0.76v2.662h1.902v-2.662l2.261 0.76z"/></g><text transform="matrix(1 0 0 -1 50.308 457.04)" fill="black" font-family="Helvetica" font-size="8px"><tspan x="0 5.776 10.224 12.448 16.896 20.896" y="0">Notes:</tspan><tspan x="0 5.7119999 10.16 12.384 18 23.336 27.784 32.231998 34.456001 40.231998 44.68 49.127998 53.576 55.799999 60.248001 62.911999 65.136002 69.584 74.919998 77.143997 79.367996 83.816002 86.480003 88.704002 93.152 97.599998 101.6 106.048 112.712 117.16 121.608 123.832 126.056 132.72 137.168 139.832 143.832 145.608 150.056 154.504" y="11.496"> 1. See Chapter 3E for pavement markings</tspan><tspan x="0 5.7119999 10.16 12.384 18 23.336 25.112 29.559999 34.007999 36.231998 38.007999 42.456001 46.456001 50.903999 53.127998 54.903999 59.352001 63.799999 67.804802 70.028801 74.476799 77.1408 81.588799 83.812798 88.260803 92.708801 97.156799 99.820801 104.2688 108.2688 110.0448 116.7088 121.1568 123.3808" y="22.992001"> 2. Sign locations are approximate</tspan><tspan x="0 5.7119999 10.16 12.384 18 22.888 27.336 31.784 34.007999 40.672001 45.119999 49.568001 54.015999 58.464001 62.911999 67.367203 69.591202 71.367203 75.815201 80.263199 84.711197 86.935204 90.935204 95.383202 99.8312 101.6072 106.0552 108.2792 112.7272 117.1752 119.3992 123.8472 128.30479 130.9688 133.6328 135.4088 139.8568 142.5208 145.1848 149.1848 153.6328 158.0808 162.52879 165.19279 169.64079 171.86481 176.31281 180.7608 182.9848" y="34.487999"> 3. The managed lane could be barrier-separated, </tspan><tspan x="18 22.448 26.896 28.980801 31.2048 35.652802 38.316799 40.980801 44.980801 49.428799 53.876801 58.324799 60.9888 65.436798 67.660797 72.108803 76.556801 78.7808 81.004799 85.452797 88.116798 90.340797 94.340797 98.788803 103.2368 105.4608 107.2368 111.6848 116.1328 120.5808 125.0288" y="42.984001">buffer-separated, or contiguous</tspan></text><g transform="translate(332.8 133.55)"><path d="m0 0v548.29" fill="none" stroke="#000" stroke-miterlimit="7" stroke-width="4"/></g><g clip-path="url(#e)"><g transform="translate(156.07 626.04)"><path d="m0 0-0.017-0.033c109.04-35.208 138.38-120.88 144.91-173.84l5e-3 -2.157v-316.31" fill="none" stroke="#000" stroke-miterlimit="7" stroke-width="4"/></g><g transform="translate(300.97 681.84)"><path d="m0 0v-130.38c-13.16 23.316-49.125 76.338-132.72 104.52-0.061 0.02-1.212 0.429-3.18 1.023l-0.124-0.303" fill="none" stroke="#000" stroke-miterlimit="7" stroke-width="4"/></g><g transform="translate(300.97 551.46)"><path d="m0 0c-13.16 23.315-49.125 76.338-132.72 104.52-0.061 0.021-1.212 0.43-3.18 1.024l-0.124-0.303-8.88-30.659-0.017-0.033c109.04-35.208 138.38-120.88 144.91-173.84l5e-3 -2.157v-316.57h31.822v548.4h-31.822z" fill="#b1b4b6" fill-rule="evenodd"/></g><g transform="translate(332.8 133.14)"><path d="m0 0v547.73" fill="none" stroke="#fff" stroke-miterlimit="7" stroke-width="2"/></g><g transform="translate(156.07 626.04)"><path d="m0 0-0.017-0.033c109.04-35.208 138.38-120.88 144.91-173.84l5e-3 -2.157v-316.6" fill="none" stroke="#ffd046" stroke-miterlimit="7" stroke-width="2"/></g><g transform="translate(300.97 555.32)"><path d="m0 0v-3.863c-13.16 23.315-49.125 76.338-132.72 104.52-0.061 0.021-1.212 0.43-3.18 1.024" fill="none" stroke="#fff" stroke-miterlimit="7" stroke-width="2"/></g><g transform="translate(300.97 681.84)"><path d="m0 0v-126.52" fill="none" stroke="#ffd046" stroke-miterlimit="7" stroke-width="2"/></g><g transform="translate(270.87 217.62)"><path d="m0 0h18.9" fill="none" stroke="#000" stroke-linejoin="bevel" stroke-miterlimit="1.415"/></g><g transform="translate(270.87 451.44)"><path d="m0 0h18.9" fill="none" stroke="#000" stroke-linejoin="bevel" stroke-miterlimit="1.415" stroke-width=".75"/></g><g transform="translate(270.87 334.26)"><path d="m0 0h18.9" fill="none" stroke="#000" stroke-linejoin="bevel" stroke-miterlimit="1.415" stroke-width=".75"/></g><g transform="translate(270.87 217.62)"><path d="m0 0h18.9" fill="none" stroke="#000" stroke-linejoin="bevel" stroke-miterlimit="1.415" stroke-width=".75"/></g><g transform="translate(278.25 330.32)"><path d="m0 0 3e-3 -108.78" fill="none" stroke="#000" stroke-linejoin="bevel" stroke-miterlimit="1.415" stroke-width=".75"/></g><g transform="translate(278.8 220.31)"><path d="m0 0c0.263 0.868 0.504 1.433 0.783 2.129h-2.648c0.118-0.249 0.521-1.261 0.783-2.129 0.281-0.929 0.473-1.771 0.541-2.317 0.068 0.546 0.261 1.388 0.541 2.317"/></g><g transform="translate(277.72 331.56)"><path d="m0 0c-0.262-0.868-0.504-1.433-0.783-2.129h2.648c-0.118 0.249-0.521 1.261-0.783 2.129-0.28 0.929-0.473 1.771-0.541 2.317-0.068-0.546-0.261-1.388-0.541-2.317"/></g><g transform="translate(278.31 338.19)"><path d="m0 0-3e-3 109.32" fill="none" stroke="#000" stroke-linejoin="bevel" stroke-miterlimit="1.415" stroke-width=".75"/></g><g transform="translate(277.77 448.74)"><path d="m0 0c-0.262-0.868-0.504-1.432-0.783-2.128h2.648c-0.118 0.249-0.521 1.26-0.783 2.128-0.281 0.929-0.473 1.772-0.541 2.318-0.068-0.546-0.261-1.389-0.541-2.318"/></g><g transform="translate(278.85 336.95)"><path d="m0 0c0.263 0.868 0.504 1.433 0.783 2.129h-2.648c0.118-0.249 0.521-1.261 0.783-2.129 0.28-0.929 0.473-1.772 0.541-2.317 0.068 0.545 0.261 1.388 0.541 2.317"/></g><g transform="translate(278.25 213.68)"><path d="m0 0 2e-3 -52.494" fill="none" stroke="#000" stroke-linejoin="bevel" stroke-miterlimit="1.415" stroke-width=".75"/></g><g transform="translate(278.79 159.95)"><path d="m0 0c0.263 0.868 0.504 1.433 0.783 2.129h-2.648c0.118-0.249 0.521-1.261 0.783-2.129 0.281-0.929 0.473-1.771 0.541-2.317 0.068 0.546 0.261 1.388 0.541 2.317"/></g><g transform="translate(277.72 214.92)"><path d="m0 0c-0.262-0.868-0.504-1.433-0.783-2.129h2.648c-0.118 0.249-0.521 1.261-0.783 2.129-0.28 0.929-0.473 1.771-0.541 2.317-0.068-0.546-0.261-1.388-0.541-2.317"/></g><g transform="translate(270.87 157.26)"><path d="m0 0h18.9" fill="none" stroke="#000" stroke-linejoin="bevel" stroke-miterlimit="1.415" stroke-width=".75"/></g><g transform="translate(315.71 606.37)"><path d="m0 0v6.354h-1.559l2.576 4.376 2.399-4.376h-1.439v-6.354z"/></g><g transform="translate(315.71 167.14)"><path d="m0 0v6.354h-1.559l2.576 4.376 2.399-4.376h-1.439v-6.354z"/></g><g transform="translate(315.71 386.14)"><path d="m0 0v6.353h-1.559l2.576 4.378 2.399-4.378h-1.439v-6.353z"/></g><g transform="translate(236.41 599.82)"><path d="m0 0-4.957 3.974-0.976-1.216-1.802 4.748 4.915-0.867-0.901-1.123 4.957-3.975z"/></g><g transform="translate(398.87 154.49)"><path d="m0 0c-43.06 0-86.149-26.275-84.874-1.733" fill="none" stroke="#000" stroke-width=".75"/></g><g transform="translate(313.46 153.99)"><path d="m0 0c-0.262-0.867-0.504-1.433-0.779-2.128l2.646 4e-3c-0.119 0.249-0.523 1.26-0.787 2.128-0.283 0.928-0.475 1.769-0.544 2.316-0.067-0.547-0.26-1.389-0.536-2.32"/></g><g transform="translate(154.57 615.02)"><path d="m0 0-11.091 3.485 14.915 47.462 11.09-3.485z" fill="#fff" fill-rule="evenodd"/></g><g transform="translate(294.89 568.81)"><path d="m0 0c-2e-3 -0.257 0.082-0.486 0.224-0.672 0.141-0.185 0.34-0.327 0.569-0.408h-4.1v-1h8.959v1h-4.086c0.227 0.08 0.424 0.22 0.566 0.404 0.14 0.184 0.225 0.411 0.227 0.666 2e-3 0.325-0.128 0.621-0.34 0.836-0.213 0.214-0.507 0.348-0.833 0.348-0.327 2e-3 -0.623-0.129-0.837-0.341-0.215-0.212-0.348-0.507-0.349-0.833"/></g><g transform="translate(295.06 203.71)"><path d="m0 0h9.29l3.12-4.258v7.789l6.3-3.531 34.63-0.025v-7.2h-20.55l-6.3 3.506v-7.763l-3.18 4.257h-23.31" fill="#fff" stroke="#000" stroke-linejoin="bevel" stroke-miterlimit="1.415" stroke-width=".335"/></g><path d="m351.8 188.16h-5.333v22.166h5.333z" fill="#fff"/><g transform="translate(295.06 315.38)"><path d="m0 0h9.29l3.12-4.258v7.791l6.3-3.533 34.63-0.025v-7.198h-20.55l-6.3 3.504v-7.763l-3.18 4.259h-23.31" fill="#fff" stroke="#000" stroke-linejoin="bevel" stroke-miterlimit="1.415" stroke-width=".335"/></g><path d="m351.8 299.84h-5.333v22.168h5.333z" fill="#fff"/><g transform="translate(295.06 380.35)"><path d="m0 0h9.29l3.12-4.258v7.789l6.3-3.531 34.63-0.025v-7.2h-20.55l-6.3 3.506v-7.763l-3.18 4.257h-23.31" fill="#fff" stroke="#000" stroke-linejoin="bevel" stroke-miterlimit="1.415" stroke-width=".335"/></g><path d="m351.8 364.81h-5.333v22.166h5.333z" fill="#fff"/><g transform="translate(294.3 554.41)"><path d="m0 0 4.583-1.417 3.167-5.917-3-2.416-5.084 8.916z" fill="#b1b4b6" fill-rule="evenodd"/></g><g transform="translate(295.09 334.33)"><path d="m0 0h27.18" fill="none" stroke="#000" stroke-linejoin="bevel" stroke-miterlimit="1.415"/></g><g transform="translate(298.35 334.33)"><path d="m0 0c0-1.389-1.125-2.514-2.513-2.514s-2.513 1.125-2.513 2.514c0 1.387 1.125 2.512 2.513 2.512s2.513-1.125 2.513-2.512" fill-rule="evenodd"/></g><g transform="translate(393.55 630.55)"><path d="m0 0h6.353v1.559l4.377-2.577-4.377-2.398v1.439h-6.353z"/></g><g transform="translate(415.03 639.07)"><path d="m0 0h29.291" fill="none" stroke="#000" stroke-width=".75"/></g></g><text transform="matrix(1 0 0 -1 414.56 642.02)" fill="black" font-family="Helvetica" font-size="9px"><tspan x="0 5.0040002 10.008 15.012 20.016001 25.02" y="0">Legend</tspan><tspan x="-7.4879999 -0.99000001 1.008 4.0050001 9.0089998 13.509 16.011 18.009001 23.013 28.017 30.518999 35.522999 38.025002 40.527 43.028999 46.026001 51.029999 55.529999 60.534" y="15.354">Direction of travel</tspan></text><g transform="translate(309.74 544.94)"><path d="m0 0h16.48v1.442h-16.48v-0.721z" fill-rule="evenodd"/></g><g transform="translate(306.99 332.84)"><path d="m0 0h14.008v1.441h-7.004-7.004v-0.72z" fill-rule="evenodd"/></g><g transform="translate(295.09 217.62)"><path d="m0 0h27.179" fill="none" stroke="#000" stroke-linejoin="bevel" stroke-miterlimit="1.415"/></g><g clip-path="url(#d)"><g transform="translate(298.35 217.62)"><path d="m0 0c0-1.389-1.125-2.514-2.513-2.514s-2.513 1.125-2.513 2.514c0 1.387 1.125 2.512 2.513 2.512s2.513-1.125 2.513-2.512" fill-rule="evenodd"/></g><g transform="translate(306.99 216.03)"><path d="m0 0h14.008v1.443h-14.008v-0.721z" fill-rule="evenodd"/></g><g transform="translate(300.96 545.85)"><path d="m0 0v-79.858" fill="none" stroke="#fff" stroke-dasharray="3, 9" stroke-miterlimit="7" stroke-width="2"/></g><path d="m338.08 132.24h-40.98v2.625h40.98z" fill="#fff" fill-rule="evenodd"/></g><text transform="matrix(1 0 0 -1 283.16 124.71)" fill="black" font-family="Helvetica" font-size="9px"><tspan x="0 2.5020001 5.4990001 10.503 15.507 18.009001 22.509001 27.513 32.516998 35.019001 40.022999 45.027 50.030998 55.035 60.039001 65.042999" y="0">I-25 southbound </tspan><tspan x="5.256 12.753 17.757 22.761 27.764999 32.769001 37.772999 42.777 45.278999 47.277 52.280998 57.285" y="9.9989996">managed lane</tspan></text><g clip-path="url(#c)"><g transform="translate(366.38 451.97)"><path d="m0 0c-39.768 0-48.137 39.992-48.391 89.413" fill="none" stroke="#000" stroke-width=".75"/></g><g transform="translate(317.45 542.62)"><path d="m0 0c-0.258-0.87-0.497-1.435-0.772-2.133l2.648 0.014c-0.12 0.248-0.528 1.258-0.794 2.124-0.286 0.928-0.482 1.769-0.554 2.315-0.065-0.547-0.253-1.39-0.528-2.32"/></g><g transform="translate(398.87 350.37)"><path d="m0 0c-31.922 0-84.929-46.467-84.929-21.089" fill="none" stroke="#000" stroke-width=".75"/></g><g transform="translate(313.42 330.53)"><path d="m0 0c-0.274-0.864-0.524-1.425-0.814-2.117l2.649-0.037c-0.115 0.251-0.503 1.267-0.753 2.139-0.268 0.933-0.447 1.778-0.509 2.326-0.076-0.546-0.279-1.385-0.573-2.311"/></g><g transform="translate(295.09 157.9)"><path d="m0 0h27.179" fill="none" stroke="#000" stroke-linejoin="bevel" stroke-miterlimit="1.415"/></g><g transform="translate(298.35 157.91)"><path d="m0 0c0-1.389-1.125-2.514-2.513-2.514s-2.513 1.125-2.513 2.514c0 1.387 1.125 2.512 2.513 2.512s2.513-1.125 2.513-2.512" fill-rule="evenodd"/></g><g transform="translate(306.99 156.32)"><path d="m0 0h14.008v1.443h-14.008v-0.721z" fill-rule="evenodd"/></g><g transform="translate(515.93 177.64)"><path d="m0 0-2.35-0.717 1.544-2.172-1.41-0.984-1.521 2.037-1.544-2.037-1.41 0.984 1.521 2.172-2.327 0.717 0.515 1.633 2.282-0.76v2.662h1.902v-2.662l2.261 0.76z"/></g><path d="m335.76 680.53h-37.583v5.275h37.583z" fill="#fff" fill-rule="evenodd"/></g><text transform="matrix(1 0 0 -1 282.25 693.7)" fill="black" font-family="Helvetica" font-size="9px"><tspan x="0 2.5020001 5.4990001 10.503 15.507 18.009001 22.509001 27.513 32.516998 35.019001 40.022999 45.027 50.030998 55.035 60.039001 65.042999" y="0">I-25 southbound </tspan><tspan x="5.256 12.753 17.757 22.761 27.764999 32.769001 37.772999 42.777 45.278999 47.277 52.280998 57.285" y="9.9989996">managed lane</tspan></text><g clip-path="url(#b)"><g transform="translate(398.75 248.17)"><path d="m0 0c-13.499 0-25.665-1.928-42.388-17.174-23.122-21.079-42.386-33.193-42.386-18.523" fill="none" stroke="#000" stroke-width=".75"/></g><g transform="translate(313.44 213.72)"><path d="m0 0c-0.268-0.865-0.514-1.428-0.796-2.123l2.649-0.018c-0.12 0.25-0.514 1.265-0.77 2.134-0.276 0.932-0.463 1.775-0.527 2.321-0.073-0.545-0.27-1.387-0.556-2.314"/></g><g fill="#fff"><path d="m283.15 386.32h-9.866v10.543h9.866z"/><path d="m283.15 271.01h-9.866v10.543h9.866z"/><path d="m283.15 181.52h-9.866v10.543h9.866z"/></g></g><text transform="matrix(1 0 0 -1 266.21 183.72)" fill="black" font-family="Helvetica" font-size="9px"><tspan x="0 5.0040002 7.506 15.003 17.000999 18.999001" y="0">1 mile</tspan><tspan x="-3.753 1.251 3.753 8.757 11.259 18.756001 20.754 22.752001" y="-89.343002">1/2 mile</tspan><tspan x="-3.753 1.251 3.753 8.757 11.259 18.756001 20.754 22.752001" y="-204.633">1/2 mile</tspan></text><g transform="translate(273.3 552.3)"><path d="m0 0 2.444 1.577 1.573-2.444-1.832-1.182 2.361-3.664 1.832 1.181 1.576-2.444-1.833-1.179 2.756-4.278 1.832 1.182 1.59-2.465-2.443-1.576z" fill="#fff" fill-rule="evenodd"/></g><g transform="translate(280.3 556.78)"><path d="m0 0 0.611 0.393 9.842-15.268-0.611-0.395z" fill="#fff" fill-rule="evenodd"/></g><g transform="translate(281.94 557.84)"><path d="m0 0 2.443 1.575 1.576-2.44-0.918-0.593 8.265-12.829-0.609-0.391-8.267 12.826-0.917-0.589z" fill="#fff" fill-rule="evenodd"/></g><g transform="translate(276.79 554.52)"><path d="m0 0 5.836-7.044 4.006-8.226 0.611 0.394-2.672 5.484 3.893-4.697 0.612 0.395-5.838 7.045-4.003 8.225-0.611-0.392 2.667-5.486-3.889 4.698z" fill="#fff" fill-rule="evenodd"/></g><g transform="translate(304.55 565.94)"><path d="m0 0h2.907v-2.908h-2.179v-4.364h2.179v-2.906h-2.179v-5.092h2.179v-2.931h-2.907z" fill="#fff" fill-rule="evenodd"/></g><g transform="translate(319.09 565.94)"><path d="m0 0h2.908v-2.908h-2.18v-4.364h2.18v-2.906h-2.18v-5.092h2.18v-2.931h-2.908z" fill="#fff" fill-rule="evenodd"/></g><g clip-path="url(#a)"><g transform="translate(312.54 557.19)"><path d="m0 0v5.801c1.214 3e-3 1.472-1.161 1.472-2.885 2e-3 -1.726-0.301-2.901-1.472-2.916m-0.722 8.72v-18.168h0.715c0 2.176 7e-3 4.358 7e-3 6.533 1.875 0.228 2.189 2.071 2.194 5.831 3e-3 3.757-0.929 6.099-2.916 5.804" fill="#fff"/></g><g transform="translate(324.19 566.03)"><path d="m0 0c1.293 5e-3 1.381-2.357 1.477-4.428-0.249-0.242-0.5-0.488-0.749-0.73-0.044 1.075-0.163 2.177-0.728 2.185-0.565 0.01-0.66-0.878-0.73-1.869v-0.708c-2e-3 -1.607 2.238-3.552 2.186-4.884v-2.717c-5e-3 -2.537-0.186-5.219-1.456-5.219s-1.274 2.309-1.458 4.49c0.244 0.235 0.486 0.473 0.728 0.709 0.128-1.169 0.218-2.164 0.73-2.166 0.514-7e-3 0.692 0.688 0.728 1.751 0.218 1.875-2.089 3.694-2.186 5.511v3.251c-0.017 2.456 0.164 4.822 1.458 4.824" fill="#fff" fill-rule="evenodd"/></g><g transform="translate(327.84 566.03)"><path d="m0 0c1.293 5e-3 1.382-2.357 1.478-4.428-0.25-0.242-0.501-0.488-0.749-0.73-0.044 1.075-0.164 2.177-0.729 2.185-0.564 0.01-0.662-0.878-0.729-1.869v-0.708c-3e-3 -1.607 2.238-3.552 2.184-4.884v-2.717c-5e-3 -2.537-0.185-5.219-1.455-5.219-1.269 0-1.273 2.309-1.458 4.49 0.243 0.235 0.487 0.473 0.729 0.709 0.127-1.169 0.217-2.164 0.729-2.166 0.514-7e-3 0.694 0.688 0.729 1.751 0.218 1.875-2.091 3.694-2.187 5.511v3.251c-0.017 2.456 0.164 4.822 1.458 4.824" fill="#fff" fill-rule="evenodd"/></g><g transform="translate(316.18 562.99)"><path d="m0 0c1.214 3e-3 1.472-1.161 1.475-2.885 0-1.725-0.301-2.901-1.475-2.916zm-0.723 2.919c1.988 0.295 2.922-2.046 2.917-5.804-2e-3 -2.509-0.144-4.163-0.795-5.059l0.789-7.304h-0.716l-0.649 6.785c-0.236-0.132-0.507-0.217-0.823-0.252 0-2.176-5e-3 -4.358-5e-3 -6.533h-0.718z" fill="#fff" fill-rule="evenodd"/></g><g transform="translate(308.18 565.93)"><path d="m0 0 1.093-9.086-1.093-9.09h0.727l0.728 6.059 0.726-6.059h0.729l-1.092 9.09 1.092 9.086h-0.729l-0.726-6.06-0.728 6.06z" fill="#fff" fill-rule="evenodd"/></g><g transform="translate(304.55 276.51)"><path d="m0 0h2.907v-2.907h-2.179v-4.365h2.179v-2.907h-2.179v-5.092h2.179v-2.93h-2.907z" fill="#fff" fill-rule="evenodd"/></g><g transform="translate(319.09 276.51)"><path d="m0 0h2.908v-2.907h-2.18v-4.365h2.18v-2.907h-2.18v-5.092h2.18v-2.93h-2.908z" fill="#fff" fill-rule="evenodd"/></g><g transform="translate(312.54 267.76)"><path d="m0 0v5.801c1.214 3e-3 1.472-1.161 1.472-2.885 2e-3 -1.726-0.301-2.901-1.472-2.916m-0.722 8.72v-18.168h0.715c0 2.176 7e-3 4.357 7e-3 6.533 1.875 0.228 2.189 2.07 2.194 5.831 3e-3 3.757-0.929 6.099-2.916 5.804" fill="#fff"/></g><g transform="translate(324.19 276.6)"><path d="m0 0c1.293 6e-3 1.381-2.357 1.477-4.428-0.249-0.242-0.5-0.488-0.749-0.73-0.044 1.076-0.163 2.178-0.728 2.185-0.565 0.01-0.66-0.877-0.73-1.869v-0.707c-2e-3 -1.607 2.238-3.553 2.186-4.885v-2.716c-5e-3 -2.538-0.186-5.219-1.456-5.219s-1.274 2.308-1.458 4.489c0.244 0.235 0.486 0.474 0.728 0.709 0.128-1.169 0.218-2.163 0.73-2.165 0.514-8e-3 0.692 0.688 0.728 1.75 0.218 1.875-2.089 3.694-2.186 5.512v3.25c-0.017 2.457 0.164 4.823 1.458 4.824" fill="#fff" fill-rule="evenodd"/></g><g transform="translate(327.84 276.6)"><path d="m0 0c1.293 6e-3 1.382-2.357 1.478-4.428-0.25-0.242-0.501-0.488-0.749-0.73-0.044 1.076-0.164 2.178-0.729 2.185-0.564 0.01-0.662-0.877-0.729-1.869v-0.707c-3e-3 -1.607 2.238-3.553 2.184-4.885v-2.716c-5e-3 -2.538-0.185-5.219-1.455-5.219-1.269 0-1.273 2.308-1.458 4.489 0.243 0.235 0.487 0.474 0.729 0.709 0.127-1.169 0.217-2.163 0.729-2.165 0.514-8e-3 0.694 0.688 0.729 1.75 0.218 1.875-2.091 3.694-2.187 5.512v3.25c-0.017 2.457 0.164 4.823 1.458 4.824" fill="#fff" fill-rule="evenodd"/></g><g transform="translate(316.18 273.56)"><path d="m0 0c1.214 3e-3 1.472-1.161 1.475-2.885 0-1.725-0.301-2.901-1.475-2.916zm-0.723 2.919c1.988 0.295 2.922-2.047 2.917-5.804-2e-3 -2.51-0.144-4.163-0.795-5.059l0.789-7.305h-0.716l-0.649 6.786c-0.236-0.132-0.507-0.218-0.823-0.253 0-2.176-5e-3 -4.357-5e-3 -6.533h-0.718z" fill="#fff" fill-rule="evenodd"/></g><g transform="translate(308.18 276.5)"><path d="m0 0 1.093-9.087-1.093-9.09h0.727l0.728 6.06 0.726-6.06h0.729l-1.092 9.09 1.092 9.087h-0.729l-0.726-6.06-0.728 6.06z" fill="#fff" fill-rule="evenodd"/></g><g transform="translate(253.37 546.39)"><path d="m0 0h88.914" fill="none" stroke="#000" stroke-linejoin="bevel" stroke-miterlimit="1.415"/></g><g transform="translate(256.63 546.39)"><path d="m0 0c0-1.389-1.125-2.514-2.513-2.514s-2.513 1.125-2.513 2.514c0 1.387 1.125 2.512 2.513 2.512s2.513-1.125 2.513-2.512" fill-rule="evenodd"/></g><g transform="translate(344.8 546.39)"><path d="m0 0c0-1.389-1.125-2.514-2.513-2.514s-2.513 1.125-2.513 2.514c0 1.387 1.125 2.512 2.513 2.512s2.513-1.125 2.513-2.512" fill-rule="evenodd"/></g><path d="m278.84 544.94h16.48v1.442h-16.48z" fill-rule="evenodd"/><g transform="translate(397.71 557.37)"><path d="m0 0s-87.041-17.335-99.941 6.241" fill="none" stroke="#000" stroke-width=".75"/></g><g transform="translate(296.7 564.44)"><path d="m0 0c0.187-0.887 0.246-1.499 0.335-2.243l2.323 1.271c-0.223 0.162-1.062 0.856-1.709 1.491-0.692 0.681-1.264 1.327-1.587 1.773 0.202-0.511 0.438-1.342 0.638-2.292"/></g><g transform="translate(79.632 583.89)"><path d="m0 0v-78.92l3.111 21.215-0.282 3.677-2.263-1.98" stroke="#000"/></g><g transform="translate(85.844 552.51)"><path d="m0 0h2.665v-22.176h-3.09l-10.348 17.914h-0.056v-17.914h-2.665v22.176h3.259l10.177-17.912h0.058z"/></g><g transform="translate(406.43 217.94)"><path d="m0 0c-3.134 0-5.683 2.55-5.683 5.685v50.023c0 3.135 2.549 5.685 5.683 5.685h63.921c3.134 0 5.683-2.55 5.683-5.685v-50.023c0-3.135-2.549-5.685-5.683-5.685z" fill="#fff"/></g><g transform="translate(470.35 279.46)"><path d="m0 0h-63.92c-3.203 0-5.808-2.606-5.808-5.809v-50.024c0-3.204 2.605-5.81 5.808-5.81h63.92c3.202 0 5.808 2.606 5.808 5.81v50.024c0 3.203-2.606 5.809-5.808 5.809m0-0.25c3.057 0 5.558-2.502 5.558-5.559v-50.024c0-3.058-2.501-5.56-5.558-5.56h-63.92c-3.057 0-5.558 2.502-5.558 5.56v50.024c0 3.057 2.501 5.559 5.558 5.559z"/></g><g transform="translate(401.8 223.63)"><path d="m0 0c0-0.622 0.123-1.226 0.366-1.796 0.233-0.551 0.568-1.048 0.996-1.474 0.427-0.428 0.923-0.763 1.474-0.997 0.57-0.242 1.174-0.366 1.796-0.366h63.921c0.622 0 1.226 0.124 1.796 0.366 0.551 0.234 1.047 0.569 1.474 0.997 0.428 0.426 0.763 0.923 0.996 1.474 0.243 0.57 0.366 1.174 0.366 1.796v38.907h-73.185z" fill="#006f51"/></g><g transform="translate(474.98 273.65)"><path d="m0 0c0 0.622-0.123 1.226-0.366 1.796-0.233 0.551-0.569 1.048-0.996 1.474-0.427 0.428-0.923 0.763-1.474 0.997-0.57 0.242-1.284 0.365-1.906 0.365h-63.811c-0.622 0-1.226-0.123-1.796-0.365-0.551-0.234-1.047-0.569-1.474-0.997-0.428-0.426-0.763-0.923-0.997-1.474-0.242-0.57-0.365-1.174-0.365-1.796v-10.19h73.185z" fill="#006f51"/></g><g transform="translate(402.27 279.41)"><path d="m0 0c-0.835 0-1.514 0.68-1.514 1.515v11.111c0 0.835 0.679 1.514 1.514 1.514h30.561c0.835 0 1.513-0.679 1.513-1.514v-11.111c0-0.835-0.678-1.515-1.513-1.515z" fill="#ffd046"/></g><g transform="translate(432.83 293.67)"><path d="m0 0h-30.56c-0.904 0-1.639-0.735-1.639-1.638v-11.112c0-0.904 0.735-1.64 1.639-1.64h30.56c0.904 0 1.64 0.736 1.64 1.64v11.112c0 0.903-0.736 1.638-1.64 1.638m0-0.25c0.764 0 1.39-0.624 1.39-1.388v-11.112c0-0.764-0.626-1.39-1.39-1.39h-30.56c-0.764 0-1.389 0.626-1.389 1.39v11.112c0 0.764 0.625 1.388 1.389 1.388z"/></g><g transform="translate(433.29 280.92)"><path d="m0 0c0-0.124-0.047-0.237-0.137-0.327-0.089-0.089-0.202-0.137-0.326-0.137h-30.561c-0.123 0-0.236 0.048-0.326 0.137-0.089 0.09-0.137 0.203-0.137 0.327v11.112c0 0.124 0.048 0.236 0.137 0.326 0.09 0.09 0.203 0.137 0.326 0.137h30.561c0.124 0 0.237-0.047 0.326-0.137 0.09-0.09 0.137-0.202 0.137-0.326zm0.354 11.929c-0.22 0.22-0.509 0.34-0.817 0.34h-30.561c-0.307 0-0.597-0.12-0.817-0.34-0.22-0.219-0.34-0.51-0.34-0.817v-11.112c0-0.308 0.12-0.599 0.34-0.819 0.22-0.219 0.51-0.34 0.817-0.34h30.561c0.308 0 0.597 0.121 0.817 0.34 0.22 0.22 0.34 0.511 0.34 0.819v11.112c0 0.307-0.12 0.598-0.34 0.817"/></g><g transform="translate(412.89 283.71)"><path d="m0 0v5.556h4.07v-0.994h-3.052v-1.033h1.662v-1.015h-1.662v-1.52h3.15v-0.994z"/></g><g transform="translate(419.31 288.27)"><path d="m0 0v-1.132h1.741v-1.013h-1.741v-2.417h-1.017v5.556h4.167v-0.994z"/></g><g transform="translate(407.73 283.71)"><path d="m0 0v5.556h0.999v-4.698h3.169v-0.858z"/></g><g transform="translate(425.76 288.29)"><path d="m0 0v-4.581h-0.973v4.581h-1.598v0.975h4.167v-0.975z"/></g><g transform="translate(407.98 268)"><path d="m0 0v5.559h4.071v-0.995h-3.053v-1.033h1.663v-1.015h-1.663v-1.521h3.151v-0.995z" fill="#fff"/></g><g transform="translate(429.95 268)"><path d="m0 0v5.559h4.071v-0.995h-3.053v-1.033h1.663v-1.015h-1.663v-1.521h3.151v-0.995z" fill="#fff"/></g><g transform="translate(421.57 272.56)"><path d="m0 0h-1.678v-1.385h1.678c0.487 0 0.819 0.273 0.819 0.683 0 0.429-0.332 0.702-0.819 0.702m0.954-2.165c-0.312-0.175-0.564-0.214-0.993-0.214h-1.639v-2.185h-1.015v5.559h2.654c0.429 0 0.681-0.059 0.993-0.235 0.527-0.292 0.859-0.838 0.859-1.462 0-0.585-0.332-1.171-0.859-1.463" fill="#fff"/></g><g transform="translate(426.92 272.56)"><path d="m0 0h-1.601v-1.385h1.601c0.487 0 0.798 0.273 0.798 0.683 0 0.429-0.311 0.702-0.798 0.702m0.798-4.564-0.896 2.185h-1.503v-2.185h-0.994v5.559h2.576c0.409 0 0.663-0.059 0.955-0.235 0.526-0.292 0.857-0.838 0.857-1.462 0-0.625-0.331-1.171-0.897-1.483l1.014-2.379z" fill="#fff"/></g><g transform="translate(436.96 270.49)"><path d="m0 0c-0.246 0.069-0.87 0.217-1.079 0.34-0.418 0.246-0.738 0.648-0.738 1.242 0 0.916 0.784 1.541 1.92 1.541 0.823 0 1.508-0.273 2.076-0.858l-0.744-0.664c-0.353 0.37-0.804 0.547-1.332 0.547-0.569 0-0.901-0.214-0.901-0.566 0-0.313 0.195-0.448 0.881-0.604 0.745-0.157 1.234-0.313 1.547-0.469 0.49-0.254 0.804-0.779 0.804-1.385 0-0.565-0.255-0.994-0.784-1.306-0.392-0.234-0.901-0.371-1.41-0.371-0.96 0-1.685 0.352-2.312 1.073l0.804 0.624c0.411-0.487 0.86-0.702 1.488-0.702 0.706 0 1.215 0.311 1.215 0.721 0 0.522-0.568 0.598-1.435 0.837" fill="#fff"/></g><g transform="translate(442.25 270.49)"><path d="m0 0c-0.247 0.069-0.869 0.217-1.079 0.34-0.419 0.246-0.739 0.648-0.739 1.242 0 0.916 0.783 1.541 1.92 1.541 0.822 0 1.508-0.273 2.077-0.858l-0.746-0.664c-0.351 0.37-0.802 0.547-1.331 0.547-0.568 0-0.9-0.214-0.9-0.566 0-0.313 0.195-0.448 0.881-0.604 0.744-0.157 1.234-0.313 1.547-0.469 0.489-0.254 0.802-0.779 0.802-1.385 0-0.565-0.253-0.994-0.783-1.306-0.391-0.234-0.901-0.371-1.41-0.371-0.96 0-1.685 0.352-2.311 1.073l0.803 0.624c0.411-0.487 0.862-0.702 1.489-0.702 0.704 0 1.213 0.311 1.213 0.721 0 0.522-0.567 0.598-1.433 0.837" fill="#fff"/></g><g transform="translate(416.59 268)"><path d="m0 0-1.254 1.97-1.234-1.97h-1.176l1.822 2.926-1.666 2.633h1.196l1.058-1.697 1.057 1.697h1.195l-1.645-2.633 1.821-2.926z" fill="#fff"/></g><g transform="translate(451.79 268)"><path d="m0 0v5.559h4.07v-0.995h-3.053v-1.033h1.664v-1.015h-1.664v-1.521h3.152v-0.995z" fill="#fff"/></g><path d="m462.69 273.56h1v-5.559h-1z" fill="#fff"/><g transform="translate(467.2 272.58)"><path d="m0 0v-4.583h-0.974v4.583h-1.597v0.976h4.169v-0.976z" fill="#fff"/></g><g transform="translate(460.4 268)"><path d="m0 0-1.254 1.97-1.234-1.97h-1.176l1.823 2.926-1.665 2.633h1.194l1.058-1.697 1.059 1.697h1.194l-1.645-2.633 1.822-2.926z" fill="#fff"/></g><g transform="translate(443.67 249.74)"><path d="m0 0h-5.216v6.954h4.974v-1.249h-3.724v-1.391h2.228v-1.249h-2.228v-1.817h3.966z" fill="#fff"/></g><g transform="translate(448.01 252.02)"><path d="m0 0-0.795 1.911-0.801-1.911zm2.041-2.279h-1.085l-0.533 1.274h-2.438l-0.533-1.274h-1.085l2.325 5.565h1.018z" fill="#fff"/></g><g transform="translate(454.99 254.43)"><path d="m0 0-0.757-0.622c-0.275 0.211-0.471 0.348-0.59 0.411-0.234 0.127-0.486 0.191-0.757 0.191-0.233 0-0.441-0.064-0.622-0.188-0.179-0.125-0.269-0.262-0.269-0.414 3e-3 -0.305 0.414-0.536 1.23-0.696 0.658-0.13 1.157-0.36 1.498-0.69 0.297-0.294 0.447-0.629 0.447-1.008 0-0.45-0.199-0.846-0.596-1.191-0.419-0.357-0.93-0.534-1.53-0.534-0.587 0-1.056 0.092-1.408 0.277-0.279 0.15-0.603 0.435-0.974 0.854l0.812 0.618c0.181-0.24 0.369-0.418 0.562-0.527 0.263-0.146 0.598-0.218 1.005-0.218 0.315 0 0.582 0.072 0.799 0.218 0.216 0.145 0.325 0.312 0.325 0.505 0 0.325-0.373 0.564-1.119 0.712-1.371 0.273-2.055 0.824-2.055 1.652 0 0.474 0.187 0.863 0.562 1.168 0.36 0.287 0.8 0.432 1.319 0.432 0.499 0 0.917-0.088 1.255-0.266 0.226-0.119 0.514-0.346 0.863-0.684" fill="#fff"/></g><g transform="translate(459.96 254.3)"><path d="m0 0h-1.57v-4.559h-1.037v4.559h-1.566v1.006h4.173z" fill="#fff"/></g><g transform="translate(448.84 226.87)"><path d="m0 0v5.56h4.073v-0.995h-3.055v-1.034h1.663v-1.015h-1.663v-1.521h3.151v-0.995z" fill="#fff"/></g><path d="m441.28 232.43h1v-5.56h-1z" fill="#fff"/><g transform="translate(443.73 226.87)"><path d="m0 0v5.56h1v-4.702h3.172v-0.858z" fill="#fff"/></g><g transform="translate(438.86 226.87)"><path d="m0 0v3.395l-1.645-3.395-1.625 3.395v-3.395h-0.98v5.56h0.98l1.625-3.296 1.645 3.296h0.98v-5.56z" fill="#fff"/></g><g transform="translate(424.82 225.48)"><path d="m0 0 0.028 6.233h-1.046l-0.031 1.2c0.64 0.146 0.991 0.379 1.311 0.906h1.193v-8.339z" fill="#fff"/></g><g transform="translate(423.06 256.51)"><path d="m0 0c-2.064-0.63-4.174-0.589-6.093 0-0.981-1.24-1.695-2.723-2.033-4.379-0.144-0.705-0.214-1.408-0.213-2.1 1e-3 -4.849 3.404-9.191 8.339-10.2 4.936 1.009 8.338 5.351 8.34 10.2 0 0.692-0.069 1.395-0.214 2.1-0.338 1.656-1.051 3.139-2.033 4.379-1.919-0.589-4.029-0.63-6.093 0" fill="#fff"/></g><g transform="translate(430.6 253.04)"><path d="m0 0c-0.137 0.443-0.304 0.876-0.5 1.294-0.294 0.628-0.655 1.226-1.073 1.78-0.95-0.268-1.93-0.404-2.915-0.404-1.029 0-2.054 0.149-3.048 0.442-0.995-0.293-2.02-0.442-3.049-0.442-0.985 0-1.964 0.136-2.914 0.404-0.419-0.554-0.779-1.152-1.074-1.78-0.195-0.418-0.362-0.851-0.5-1.294z" fill="#c0311a"/></g><g transform="translate(430.7 252.69)"><path d="m0 0h-15.274c-0.056-0.207-0.106-0.416-0.149-0.626-0.272-1.333-0.276-2.679-0.01-4.001 0.257-1.278 0.754-2.479 1.475-3.571 0.722-1.092 1.632-2.02 2.706-2.757 1.092-0.75 2.308-1.27 3.615-1.547 1.306 0.277 2.522 0.797 3.615 1.547 1.074 0.737 1.984 1.665 2.706 2.757 0.721 1.092 1.217 2.293 1.474 3.571 0.266 1.322 0.263 2.668-9e-3 4.001-0.043 0.21-0.093 0.419-0.149 0.626" fill="#005a9c"/></g><g transform="translate(425.9 254.68)"><path d="m0 0-0.13-0.533h0.267zm0.332-1.301-0.13 0.508h-0.398l-0.123-0.508h-0.268l0.463 1.854h0.261l0.463-1.854z" fill="#fff"/></g><g transform="translate(420.53 253.38)"><path d="m0 0v1.853h0.874v-0.26h-0.607v-0.468h0.385v-0.254h-0.385v-0.611h0.679v-0.26z" fill="#fff"/></g><path d="m417.36 255.24h0.259v-1.853h-0.259z" fill="#fff"/><g transform="translate(418.86 253.38)"><path d="m0 0-0.571 1.242v-1.242h-0.266v1.853h0.266l0.506-1.112v1.112h0.266v-1.853z" fill="#fff"/></g><g transform="translate(422.33 254.98)"><path d="m0 0h-0.272v-0.468h0.272c0.156 0 0.24 0.084 0.24 0.234 0 0.143-0.097 0.234-0.24 0.234m0.227-1.593-0.246 0.871h-0.253v-0.871h-0.267v1.853h0.552c0.292 0 0.487-0.195 0.487-0.494 0-0.221-0.091-0.384-0.266-0.449l0.266-0.91z" fill="#fff"/></g><g transform="translate(423.58 254.24)"><path d="m0 0c-0.08 0.052-0.158 0.104-0.208 0.139-0.149 0.105-0.228 0.247-0.228 0.41 0 0.266 0.209 0.481 0.476 0.481 0.262 0 0.464-0.202 0.471-0.481h-0.255c-7e-3 0.13-0.098 0.214-0.216 0.214-0.124 0-0.222-0.091-0.222-0.214 0-0.091 0.04-0.143 0.177-0.221 0.359-0.208 0.516-0.41 0.516-0.677 0-0.299-0.229-0.539-0.516-0.539-0.327 0-0.523 0.273-0.523 0.578h0.261c0-0.156 0.079-0.318 0.262-0.318 0.143 0 0.261 0.13 0.261 0.279 0 0.116-0.048 0.214-0.256 0.349" fill="#fff"/></g><g transform="translate(419.93 254.99)"><path d="m0 0v-1.606h-0.267v1.606h-0.34v0.247h0.946v-0.247z" fill="#fff"/></g><g transform="translate(427.81 253.38)"><path d="m0 0v1.853h0.874v-0.26h-0.607v-0.468h0.385v-0.254h-0.385v-0.611h0.679v-0.26z" fill="#fff"/></g><g transform="translate(427.22 254.99)"><path d="m0 0v-1.606h-0.267v1.606h-0.34v0.247h0.946v-0.247z" fill="#fff"/></g><g transform="translate(424.86 254.99)"><path d="m0 0v-1.606h-0.267v1.606h-0.339v0.247h0.945v-0.247z" fill="#fff"/></g><g transform="translate(420.56 245.94)"><path d="m0 0c-0.098-0.586-0.147-1.024-0.147-1.707h-1.127c0.024 1.61 0.318 2.951 1.005 4.414 0.191 0.411 0.543 1.055 0.784 1.438h-3.334v1.098h4.731v-1.098c-0.245-0.317-0.391-0.463-0.612-0.829-0.614-1.024-1.079-2.195-1.3-3.316" fill="#fff"/></g><g transform="translate(424.77 246.26)"><path d="m0 0c0-0.561 0.561-1.024 1.244-1.024s1.268 0.463 1.268 1.024c0 0.537-0.561 1-1.268 1-0.683 0-1.244-0.463-1.244-1m-1.121 0.074v2e-3c0 1.924 1.073 3.899 2.683 4.97l0.56-0.927c-0.853-0.658-1.292-1.218-1.707-2.097 0.39 0.072 0.562 0.073 0.83 0.073 1.293 0 2.364-0.951 2.364-2.122 0-1.193-1.024-2.119-2.365-2.119s-2.365 0.975-2.365 2.22" fill="#fff"/></g><g transform="translate(406.43 318.28)"><path d="m0 0c-3.134 0-5.684 2.55-5.684 5.685v50.028c0 3.135 2.55 5.684 5.684 5.684h63.925c3.134 0 5.683-2.549 5.683-5.684v-50.028c0-3.135-2.549-5.685-5.683-5.685z" fill="#fff"/></g><g transform="translate(470.36 379.81)"><path d="m0 0h-63.925c-3.203 0-5.808-2.606-5.808-5.81v-50.028c0-3.203 2.605-5.809 5.808-5.809h63.925c3.203 0 5.808 2.606 5.808 5.809v50.028c0 3.204-2.605 5.81-5.808 5.81m0-0.25c3.057 0 5.558-2.502 5.558-5.56v-50.028c0-3.057-2.501-5.559-5.558-5.559h-63.925c-3.057 0-5.558 2.502-5.558 5.559v50.028c0 3.058 2.501 5.56 5.558 5.56z"/></g><g transform="translate(401.8 323.97)"><path d="m0 0c0-0.622 0.123-1.227 0.366-1.797 0.233-0.551 0.569-1.047 0.996-1.474s0.923-0.763 1.474-0.996c0.57-0.243 1.175-0.366 1.797-0.366h63.925c0.622 0 1.226 0.123 1.796 0.366 0.551 0.233 1.048 0.569 1.474 0.996 0.428 0.427 0.763 0.923 0.997 1.474 0.243 0.57 0.366 1.175 0.366 1.797v38.91h-73.191z" fill="#006f51"/></g><g transform="translate(474.99 374)"><path d="m0 0c0 0.622-0.123 1.227-0.366 1.797-0.233 0.55-0.568 1.047-0.996 1.474-0.427 0.427-0.923 0.763-1.474 0.996-0.57 0.243-1.284 0.366-1.906 0.366h-63.816c-0.622 0-1.226-0.123-1.796-0.366-0.551-0.233-1.048-0.569-1.474-0.996-0.428-0.427-0.763-0.924-0.997-1.474-0.243-0.57-0.366-1.175-0.366-1.797v-10.191h73.191z" fill="#006f51"/></g><g transform="translate(402.26 379.75)"><path d="m0 0c-0.835 0-1.515 0.679-1.515 1.514v11.118c0 0.835 0.68 1.515 1.515 1.515h30.572c0.836 0 1.516-0.68 1.516-1.515v-11.118c0-0.835-0.68-1.514-1.516-1.514z" fill="#ffd046"/></g><g transform="translate(432.84 394.03)"><path d="m0 0h-30.573c-0.904 0-1.639-0.736-1.639-1.64v-11.118c0-0.904 0.735-1.639 1.639-1.639h30.573c0.904 0 1.64 0.735 1.64 1.639v11.118c0 0.904-0.736 1.64-1.64 1.64m0-0.25c0.764 0 1.39-0.626 1.39-1.39v-11.118c0-0.764-0.626-1.389-1.39-1.389h-30.573c-0.764 0-1.389 0.625-1.389 1.389v11.118c0 0.764 0.625 1.39 1.389 1.39z"/></g><g transform="translate(433.3 381.27)"><path d="m0 0c0-0.123-0.047-0.236-0.137-0.326-0.089-0.089-0.202-0.137-0.326-0.137h-30.573c-0.123 0-0.236 0.048-0.327 0.137-0.089 0.09-0.137 0.203-0.137 0.326v11.118c0 0.124 0.048 0.237 0.137 0.326 0.091 0.09 0.204 0.137 0.327 0.137h30.573c0.124 0 0.237-0.047 0.326-0.137 0.09-0.089 0.137-0.202 0.137-0.326zm0.354 11.935c-0.219 0.22-0.509 0.341-0.817 0.341h-30.573c-0.308 0-0.598-0.121-0.818-0.341-0.22-0.219-0.34-0.51-0.34-0.817v-11.118c0-0.307 0.12-0.598 0.34-0.818 0.22-0.219 0.51-0.34 0.818-0.34h30.573c0.308 0 0.598 0.121 0.817 0.34 0.22 0.22 0.341 0.511 0.341 0.818v11.118c0 0.307-0.121 0.598-0.341 0.817"/></g><g transform="translate(412.89 384.05)"><path d="m0 0v5.558h4.072v-0.994h-3.054v-1.035h1.663v-1.013h-1.663v-1.522h3.151v-0.994z"/></g><g transform="translate(419.31 388.62)"><path d="m0 0v-1.131h1.742v-1.015h-1.742v-2.418h-1.017v5.558h4.168v-0.994z"/></g><g transform="translate(407.73 384.05)"><path d="m0 0v5.558h0.999v-4.7h3.17v-0.858z"/></g><g transform="translate(425.76 388.64)"><path d="m0 0v-4.583h-0.974v4.583h-1.598v0.975h4.169v-0.975z"/></g><g transform="translate(407.98 368.34)"><path d="m0 0v5.56h4.071v-0.996h-3.053v-1.033h1.663v-1.015h-1.663v-1.521h3.151v-0.995z" fill="#fff"/></g><g transform="translate(429.95 368.34)"><path d="m0 0v5.56h4.072v-0.996h-3.054v-1.033h1.663v-1.015h-1.663v-1.521h3.151v-0.995z" fill="#fff"/></g><g transform="translate(421.57 372.91)"><path d="m0 0h-1.678v-1.385h1.678c0.488 0 0.819 0.273 0.819 0.683 0 0.429-0.331 0.702-0.819 0.702m0.955-2.165c-0.313-0.175-0.565-0.214-0.994-0.214h-1.639v-2.185h-1.015v5.559h2.654c0.429 0 0.681-0.059 0.994-0.235 0.527-0.292 0.858-0.837 0.858-1.462 0-0.585-0.331-1.171-0.858-1.463" fill="#fff"/></g><g transform="translate(426.93 372.91)"><path d="m0 0h-1.601v-1.385h1.601c0.488 0 0.799 0.273 0.799 0.683 0 0.429-0.311 0.702-0.799 0.702m0.799-4.564-0.897 2.185h-1.503v-2.185h-0.994v5.559h2.576c0.409 0 0.663-0.059 0.955-0.235 0.527-0.292 0.857-0.837 0.857-1.462s-0.33-1.171-0.897-1.483l1.015-2.379z" fill="#fff"/></g><g transform="translate(436.97 370.84)"><path d="m0 0c-0.246 0.069-0.87 0.217-1.079 0.34-0.418 0.246-0.738 0.648-0.738 1.242 0 0.916 0.784 1.541 1.92 1.541 0.823 0 1.508-0.273 2.076-0.858l-0.744-0.664c-0.353 0.371-0.804 0.547-1.332 0.547-0.569 0-0.902-0.214-0.902-0.566 0-0.312 0.196-0.448 0.882-0.604 0.745-0.157 1.234-0.313 1.547-0.469 0.49-0.254 0.804-0.779 0.804-1.385 0-0.565-0.255-0.994-0.784-1.306-0.392-0.234-0.901-0.371-1.41-0.371-0.96 0-1.685 0.351-2.312 1.073l0.804 0.624c0.411-0.487 0.86-0.702 1.488-0.702 0.706 0 1.215 0.311 1.215 0.721 0 0.522-0.568 0.598-1.435 0.837" fill="#fff"/></g><g transform="translate(442.25 370.84)"><path d="m0 0c-0.247 0.069-0.87 0.217-1.079 0.34-0.419 0.246-0.739 0.648-0.739 1.242 0 0.916 0.783 1.541 1.92 1.541 0.822 0 1.508-0.273 2.077-0.858l-0.745-0.664c-0.352 0.371-0.803 0.547-1.332 0.547-0.568 0-0.9-0.214-0.9-0.566 0-0.312 0.195-0.448 0.881-0.604 0.744-0.157 1.234-0.313 1.547-0.469 0.489-0.254 0.803-0.779 0.803-1.385 0-0.565-0.254-0.994-0.784-1.306-0.391-0.234-0.901-0.371-1.41-0.371-0.96 0-1.685 0.351-2.311 1.073l0.802 0.624c0.412-0.487 0.863-0.702 1.49-0.702 0.704 0 1.214 0.311 1.214 0.721 0 0.522-0.568 0.598-1.434 0.837" fill="#fff"/></g><g transform="translate(416.59 368.34)"><path d="m0 0-1.254 1.971-1.234-1.971h-1.176l1.822 2.926-1.666 2.634h1.196l1.058-1.698 1.057 1.698h1.195l-1.646-2.634 1.822-2.926z" fill="#fff"/></g><g transform="translate(451.79 368.34)"><path d="m0 0v5.56h4.07v-0.996h-3.053v-1.033h1.664v-1.015h-1.664v-1.521h3.152v-0.995z" fill="#fff"/></g><path d="m462.69 373.9h1v-5.56h-1z" fill="#fff"/><g transform="translate(467.21 372.92)"><path d="m0 0v-4.583h-0.974v4.583h-1.597v0.976h4.169v-0.976z" fill="#fff"/></g><g transform="translate(460.4 368.34)"><path d="m0 0-1.254 1.971-1.234-1.971h-1.176l1.823 2.926-1.666 2.634h1.195l1.058-1.698 1.059 1.698h1.194l-1.645-2.634 1.822-2.926z" fill="#fff"/></g><g transform="translate(453.26 327.21)"><path d="m0 0v5.558h4.07v-0.994h-3.053v-1.034h1.664v-1.014h-1.664v-1.522h3.151v-0.994z" fill="#fff"/></g><path d="m445.7 332.77h1v-5.558h-1z" fill="#fff"/><g transform="translate(448.15 327.21)"><path d="m0 0v5.558h0.999v-4.7h3.17v-0.858z" fill="#fff"/></g><g transform="translate(443.28 327.21)"><path d="m0 0v3.394l-1.644-3.394-1.625 3.394v-3.394h-0.979v5.558h0.979l1.625-3.296 1.644 3.296h0.98v-5.558z" fill="#fff"/></g><g transform="translate(420.55 328.6)"><path d="m0 0 0.019 4.155h-0.698l-0.019 0.8c0.426 0.097 0.659 0.253 0.872 0.605h0.795v-5.56z" fill="#fff"/></g><g transform="translate(426.19 325.82)"><path d="m0 0c0 0.664 0.137 1.152 0.449 1.698 0.49 0.818 1.196 1.325 2.214 1.598 0.628 0.176 0.842 0.371 0.842 0.703 0 0.409-0.391 0.644-1.097 0.644-0.725 0-1.253-0.177-1.723-0.606l-0.685 0.761c0.646 0.566 1.449 0.858 2.35 0.858 1.313 0 2.154-0.644 2.154-1.657 0-0.468-0.195-0.897-0.567-1.21-0.177-0.136-0.432-0.273-0.823-0.389-0.745-0.215-0.96-0.313-1.293-0.605-0.254-0.214-0.412-0.429-0.607-0.8h3.29v-0.995z" fill="#fff"/></g><g transform="translate(422.07 325.82)"><path d="m0 0h-0.993l4.849 8.339h0.993z" fill="#fff"/></g><g transform="translate(443.67 350.09)"><path d="m0 0h-5.217v6.955h4.975v-1.249h-3.724v-1.392h2.228v-1.249h-2.228v-1.817h3.966z" fill="#fff"/></g><g transform="translate(448.01 352.37)"><path d="m0 0-0.795 1.911-0.801-1.911zm2.042-2.279h-1.086l-0.533 1.274h-2.438l-0.533-1.274h-1.086l2.326 5.565h1.019z" fill="#fff"/></g><g transform="translate(455 354.77)"><path d="m0 0-0.757-0.622c-0.275 0.211-0.471 0.348-0.59 0.411-0.234 0.127-0.486 0.191-0.757 0.191-0.233 0-0.442-0.064-0.622-0.188-0.179-0.125-0.269-0.262-0.269-0.414 3e-3 -0.305 0.414-0.536 1.23-0.696 0.658-0.13 1.157-0.36 1.498-0.69 0.297-0.294 0.447-0.629 0.447-1.008 0-0.45-0.199-0.846-0.597-1.191-0.418-0.357-0.929-0.535-1.529-0.535-0.587 0-1.057 0.093-1.408 0.278-0.28 0.15-0.603 0.434-0.974 0.853l0.811 0.619c0.182-0.24 0.37-0.418 0.563-0.527 0.262-0.146 0.598-0.219 1.005-0.219 0.315 0 0.582 0.073 0.799 0.219 0.215 0.144 0.325 0.312 0.325 0.505 0 0.325-0.374 0.564-1.119 0.712-1.371 0.273-2.055 0.824-2.055 1.652 0 0.474 0.186 0.863 0.562 1.168 0.359 0.287 0.8 0.432 1.319 0.432 0.499 0 0.917-0.088 1.255-0.266 0.226-0.119 0.514-0.346 0.863-0.684" fill="#fff"/></g><g transform="translate(459.96 354.65)"><path d="m0 0h-1.571v-4.559h-1.037v4.559h-1.565v1.006h4.173z" fill="#fff"/></g><g transform="translate(423.06 356.86)"><path d="m0 0c-2.065-0.63-4.174-0.589-6.093 0-0.982-1.24-1.696-2.723-2.034-4.379-0.144-0.705-0.213-1.408-0.213-2.101 1e-3 -4.849 3.404-9.192 8.34-10.2 4.936 1.008 8.339 5.351 8.34 10.2 0 0.693-0.069 1.396-0.213 2.101-0.338 1.656-1.052 3.139-2.034 4.379-1.919-0.589-4.029-0.63-6.093 0" fill="#fff"/></g><g transform="translate(430.6 353.38)"><path d="m0 0c-0.137 0.443-0.304 0.876-0.5 1.294-0.294 0.628-0.655 1.226-1.073 1.781-0.951-0.269-1.93-0.405-2.915-0.405-1.029 0-2.054 0.149-3.049 0.442-0.995-0.293-2.02-0.442-3.048-0.442-0.985 0-1.965 0.136-2.915 0.405-0.419-0.555-0.779-1.153-1.074-1.781-0.196-0.418-0.362-0.851-0.5-1.294z" fill="#c0311a"/></g><g transform="translate(430.7 353.03)"><path d="m0 0h-15.275c-0.056-0.207-0.106-0.416-0.149-0.626-0.273-1.333-0.276-2.68-0.01-4.002 0.257-1.277 0.754-2.479 1.475-3.571 0.722-1.092 1.632-2.02 2.706-2.757 1.093-0.75 2.309-1.27 3.615-1.547 1.307 0.277 2.523 0.797 3.615 1.547 1.075 0.737 1.985 1.665 2.707 2.757 0.721 1.092 1.217 2.294 1.474 3.571 0.266 1.322 0.263 2.669-9e-3 4.002-0.043 0.21-0.093 0.419-0.149 0.626" fill="#005a9c"/></g><g transform="translate(425.9 355.03)"><path d="m0 0-0.13-0.533h0.267zm0.333-1.301-0.131 0.508h-0.398l-0.123-0.508h-0.268l0.463 1.854h0.261l0.463-1.854z" fill="#fff"/></g><g transform="translate(420.53 353.73)"><path d="m0 0v1.853h0.874v-0.26h-0.607v-0.468h0.385v-0.254h-0.385v-0.611h0.679v-0.26z" fill="#fff"/></g><path d="m417.36 355.58h0.259v-1.853h-0.259z" fill="#fff"/><g transform="translate(418.86 353.73)"><path d="m0 0-0.571 1.242v-1.242h-0.266v1.853h0.266l0.506-1.112v1.112h0.266v-1.853z" fill="#fff"/></g><g transform="translate(422.33 355.32)"><path d="m0 0h-0.273v-0.468h0.273c0.156 0 0.24 0.084 0.24 0.234 0 0.143-0.097 0.234-0.24 0.234m0.227-1.593-0.247 0.871h-0.253v-0.871h-0.266v1.853h0.552c0.292 0 0.487-0.195 0.487-0.494 0-0.221-0.091-0.384-0.266-0.449l0.266-0.91z" fill="#fff"/></g><g transform="translate(423.58 354.58)"><path d="m0 0c-0.08 0.052-0.158 0.104-0.208 0.139-0.149 0.105-0.228 0.247-0.228 0.41 0 0.266 0.209 0.481 0.476 0.481 0.262 0 0.464-0.202 0.471-0.481h-0.255c-7e-3 0.13-0.098 0.214-0.216 0.214-0.124 0-0.222-0.091-0.222-0.214 0-0.091 0.04-0.143 0.177-0.221 0.359-0.209 0.516-0.41 0.516-0.677 0-0.299-0.229-0.54-0.516-0.54-0.327 0-0.523 0.274-0.523 0.579h0.262c0-0.156 0.078-0.318 0.261-0.318 0.143 0 0.261 0.13 0.261 0.279 0 0.116-0.048 0.214-0.256 0.349" fill="#fff"/></g><g transform="translate(419.93 355.33)"><path d="m0 0v-1.606h-0.267v1.606h-0.34v0.247h0.946v-0.247z" fill="#fff"/></g><g transform="translate(427.82 353.73)"><path d="m0 0v1.853h0.874v-0.26h-0.607v-0.468h0.385v-0.254h-0.385v-0.611h0.679v-0.26z" fill="#fff"/></g><g transform="translate(427.22 355.33)"><path d="m0 0v-1.606h-0.267v1.606h-0.34v0.247h0.946v-0.247z" fill="#fff"/></g><g transform="translate(424.86 355.33)"><path d="m0 0v-1.606h-0.267v1.606h-0.34v0.247h0.946v-0.247z" fill="#fff"/></g><g transform="translate(420.56 346.28)"><path d="m0 0c-0.098-0.586-0.147-1.024-0.147-1.707h-1.128c0.025 1.61 0.319 2.951 1.006 4.414 0.191 0.411 0.543 1.056 0.784 1.439h-3.334v1.097h4.731v-1.097c-0.245-0.317-0.391-0.464-0.612-0.83-0.614-1.024-1.079-2.195-1.3-3.316" fill="#fff"/></g><g transform="translate(424.77 346.6)"><path d="m0 0c0-0.561 0.561-1.024 1.244-1.024s1.269 0.463 1.269 1.024c0 0.537-0.562 1-1.269 1-0.683 0-1.244-0.463-1.244-1m-1.121 0.074-1e-3 2e-3c0 1.925 1.074 3.899 2.684 4.971l0.56-0.927c-0.853-0.659-1.292-1.219-1.707-2.097 0.39 0.072 0.562 0.073 0.83 0.073 1.293 0 2.365-0.952 2.365-2.123 0-1.193-1.024-2.119-2.366-2.119-1.341 0-2.365 0.975-2.365 2.22" fill="#fff"/></g><g transform="translate(373.95 418.54)"><path d="m0 0c-3.137 0-5.689 2.552-5.689 5.689v52.86c0 3.138 2.552 5.69 5.689 5.69h63.985c3.137 0 5.69-2.552 5.69-5.69v-52.86c0-3.137-2.553-5.689-5.69-5.689z" fill="#fff"/></g><g transform="translate(437.93 482.9)"><path d="m0 0h-63.986c-3.206 0-5.815-2.608-5.815-5.814v-52.86c0-3.206 2.609-5.815 5.815-5.815h63.986c3.206 0 5.814 2.609 5.814 5.815v52.86c0 3.206-2.608 5.814-5.814 5.814m0-0.25c3.061 0 5.564-2.503 5.564-5.564v-52.86c0-3.061-2.503-5.565-5.564-5.565h-63.986c-3.061 0-5.565 2.504-5.565 5.565v52.86c0 3.061 2.504 5.564 5.565 5.564z"/></g><g transform="translate(369.31 424.23)"><path d="m0 0c0-0.623 0.122-1.228 0.364-1.798 0.235-0.552 0.57-1.048 0.998-1.476 0.428-0.427 0.924-0.763 1.477-0.997 0.57-0.243 1.175-0.366 1.797-0.366h63.986c0.624 0 1.228 0.123 1.798 0.366 0.552 0.234 1.049 0.57 1.477 0.997 0.428 0.428 0.763 0.924 0.998 1.476 0.242 0.57 0.364 1.175 0.364 1.798v41.732h-73.259z" fill="#006f51"/></g><g transform="translate(442.57 477.09)"><path d="m0 0c0 0.623-0.122 1.228-0.364 1.798-0.235 0.552-0.57 1.048-0.998 1.476-0.428 0.427-0.924 0.763-1.477 0.997-0.57 0.243-1.284 0.366-1.907 0.366h-63.876c-0.623 0-1.228-0.123-1.798-0.366-0.552-0.234-1.049-0.57-1.477-0.997-0.428-0.428-0.763-0.924-0.998-1.476-0.242-0.57-0.364-1.175-0.364-1.798v-10.201h73.259z" fill="#006f51"/></g><g transform="translate(369.77 482.85)"><path d="m0 0c-0.836 0-1.516 0.68-1.516 1.517v11.128c0 0.836 0.68 1.516 1.516 1.516h30.603c0.835 0 1.515-0.68 1.515-1.516v-11.128c0-0.837-0.68-1.517-1.515-1.517z" fill="#ffd046"/></g><g transform="translate(400.38 497.14)"><path d="m0 0h-30.602c-0.905 0-1.642-0.736-1.642-1.641v-11.128c0-0.905 0.737-1.641 1.642-1.641h30.602c0.904 0 1.64 0.736 1.64 1.641v11.128c0 0.905-0.736 1.641-1.64 1.641m0-0.25c0.764 0 1.39-0.626 1.39-1.391v-11.128c0-0.765-0.626-1.391-1.39-1.391h-30.602c-0.766 0-1.392 0.626-1.392 1.391v11.128c0 0.765 0.626 1.391 1.392 1.391z"/></g><g transform="translate(400.84 484.37)"><path d="m0 0c0-0.124-0.047-0.237-0.137-0.327-0.09-0.089-0.202-0.137-0.326-0.137h-30.603c-0.124 0-0.237 0.048-0.326 0.137-0.09 0.09-0.137 0.203-0.137 0.327v11.128c0 0.124 0.047 0.237 0.137 0.326 0.089 0.09 0.202 0.138 0.326 0.138h30.603c0.124 0 0.236-0.048 0.326-0.138 0.09-0.089 0.137-0.202 0.137-0.326zm0.354 11.946c-0.219 0.22-0.51 0.341-0.817 0.341h-30.603c-0.308 0-0.599-0.121-0.818-0.341-0.22-0.219-0.341-0.51-0.341-0.818v-11.128c0-0.309 0.121-0.599 0.341-0.819 0.219-0.219 0.51-0.34 0.818-0.34h30.603c0.307 0 0.598 0.121 0.817 0.34 0.221 0.22 0.342 0.51 0.342 0.819v11.128c0 0.308-0.121 0.599-0.342 0.818"/></g><g transform="translate(380.41 487.16)"><path d="m0 0v5.564h4.075v-0.996h-3.056v-1.034h1.665v-1.015h-1.665v-1.523h3.154v-0.996z"/></g><g transform="translate(386.84 491.72)"><path d="m0 0v-1.133h1.744v-1.014h-1.744v-2.421h-1.018v5.564h4.173v-0.996z"/></g><g transform="translate(375.25 487.16)"><path d="m0 0v5.564h0.999v-4.705h3.174v-0.859z"/></g><g transform="translate(393.29 491.74)"><path d="m0 0v-4.588h-0.975v4.588h-1.6v0.976h4.175v-0.976z"/></g><g transform="translate(375.5 471.43)"><path d="m0 0v5.563h4.075v-0.995h-3.056v-1.034h1.666v-1.016h-1.666v-1.523h3.154v-0.995z" fill="#fff"/></g><g transform="translate(397.49 471.43)"><path d="m0 0v5.563h4.075v-0.995h-3.057v-1.034h1.666v-1.016h-1.666v-1.523h3.155v-0.995z" fill="#fff"/></g><g transform="translate(389.11 476)"><path d="m0 0h-1.681v-1.386h1.681c0.488 0 0.819 0.273 0.819 0.683 0 0.43-0.331 0.703-0.819 0.703m0.956-2.167c-0.312-0.176-0.566-0.215-0.995-0.215h-1.642v-2.186h-1.014v5.563h2.656c0.429 0 0.683-0.058 0.995-0.234 0.527-0.292 0.858-0.839 0.858-1.464 0-0.586-0.331-1.171-0.858-1.464" fill="#fff"/></g><g transform="translate(394.46 476)"><path d="m0 0h-1.602v-1.386h1.602c0.487 0 0.8 0.273 0.8 0.683 0 0.43-0.313 0.703-0.8 0.703m0.8-4.568-0.898 2.186h-1.504v-2.186h-0.995v5.563h2.578c0.409 0 0.663-0.058 0.956-0.234 0.527-0.292 0.858-0.839 0.858-1.464s-0.331-1.171-0.898-1.484l1.015-2.381z" fill="#fff"/></g><g transform="translate(404.51 473.93)"><path d="m0 0c-0.247 0.069-0.869 0.218-1.08 0.341-0.419 0.245-0.739 0.647-0.739 1.243 0 0.917 0.784 1.542 1.922 1.542 0.822 0 1.509-0.274 2.078-0.859l-0.745-0.664c-0.353 0.371-0.804 0.547-1.333 0.547-0.569 0-0.903-0.215-0.903-0.566 0-0.313 0.197-0.45 0.883-0.606 0.745-0.156 1.235-0.312 1.548-0.468 0.49-0.254 0.804-0.781 0.804-1.386 0-0.566-0.254-0.996-0.783-1.308-0.393-0.234-0.903-0.371-1.412-0.371-0.961 0-1.686 0.351-2.314 1.073l0.805 0.625c0.411-0.488 0.861-0.703 1.489-0.703 0.705 0 1.216 0.313 1.216 0.723 0 0.522-0.569 0.598-1.436 0.837" fill="#fff"/></g><g transform="translate(409.8 473.93)"><path d="m0 0c-0.248 0.069-0.871 0.218-1.08 0.341-0.419 0.245-0.739 0.647-0.739 1.243 0 0.917 0.784 1.542 1.921 1.542 0.823 0 1.51-0.274 2.079-0.859l-0.745-0.664c-0.353 0.371-0.805 0.547-1.334 0.547-0.568 0-0.902-0.215-0.902-0.566 0-0.313 0.196-0.45 0.883-0.606 0.745-0.156 1.235-0.312 1.548-0.468 0.49-0.254 0.804-0.781 0.804-1.386 0-0.566-0.254-0.996-0.785-1.308-0.391-0.234-0.901-0.371-1.411-0.371-0.96 0-1.686 0.351-2.313 1.073l0.803 0.625c0.413-0.488 0.863-0.703 1.491-0.703 0.705 0 1.216 0.313 1.216 0.723 0 0.522-0.569 0.598-1.436 0.837" fill="#fff"/></g><g transform="translate(384.12 471.43)"><path d="m0 0-1.254 1.971-1.235-1.971h-1.177l1.823 2.928-1.666 2.635h1.196l1.059-1.697 1.059 1.697h1.195l-1.646-2.635 1.823-2.928z" fill="#fff"/></g><g transform="translate(419.35 471.43)"><path d="m0 0v5.563h4.075v-0.995h-3.056v-1.034h1.665v-1.016h-1.665v-1.523h3.154v-0.995z" fill="#fff"/></g><path d="m430.26 476.99h1.002v-5.563h-1.002z" fill="#fff"/><g transform="translate(434.78 476.02)"><path d="m0 0v-4.588h-0.975v4.588h-1.598v0.976h4.173v-0.976z" fill="#fff"/></g><g transform="translate(427.97 471.43)"><path d="m0 0-1.254 1.971-1.236-1.971h-1.176l1.823 2.928-1.667 2.635h1.197l1.059-1.697 1.058 1.697h1.196l-1.646-2.635 1.823-2.928z" fill="#fff"/></g><g transform="translate(408.4 436.03)"><path d="m0 0c-5e-3 3e-3 -9e-3 6e-3 -0.014 9e-3 -0.031 0.017-0.062 0.03-0.095 0.039-3e-3 0-5e-3 2e-3 -9e-3 3e-3l1e-3 -2e-3c-0.011 4e-3 -0.023 7e-3 -0.034 9e-3l-0.109 0.015-7.992 1.549-0.151 0.021c-0.15 0.021-0.3-0.029-0.4-0.129-0.114-0.114-0.164-0.264-0.135-0.407l0.019-0.1 1.562-8.016 0.023-0.14c0.021-0.093 0.063-0.165 0.136-0.236 0.177-0.179 0.471-0.186 0.656 0 0.021 0.021 0.043 0.057 0.057 0.085l0.047 0.086 1.755 2.853 6.403-6.974 2.334 2.334-6.96 6.404-0.014-1e-3 2.809 1.728 0.103 0.072c0.036 0.021 0.071 0.042 0.099 0.07 0.179 0.179 0.179 0.479 2e-3 0.658-0.03 0.028-0.06 0.05-0.093 0.07" fill="#fff"/></g><g transform="translate(411.22 453.16)"><path d="m0 0h-5.217v6.955h4.975v-1.25h-3.724v-1.391h2.228v-1.249h-2.228v-1.816h3.966z" fill="#fff"/></g><g transform="translate(415.56 455.44)"><path d="m0 0-0.795 1.911-0.801-1.911zm2.041-2.278h-1.085l-0.533 1.274h-2.438l-0.533-1.274h-1.086l2.326 5.563h1.019z" fill="#fff"/></g><g transform="translate(422.54 457.84)"><path d="m0 0-0.757-0.623c-0.275 0.212-0.471 0.35-0.59 0.413-0.234 0.126-0.486 0.189-0.757 0.189-0.233 0-0.442-0.063-0.622-0.187-0.179-0.125-0.269-0.262-0.269-0.415 3e-3 -0.304 0.414-0.535 1.23-0.695 0.658-0.131 1.157-0.36 1.498-0.691 0.297-0.293 0.447-0.628 0.447-1.007 0-0.449-0.199-0.846-0.596-1.191-0.419-0.357-0.93-0.535-1.53-0.535-0.587 0-1.057 0.092-1.408 0.278-0.28 0.149-0.603 0.434-0.974 0.853l0.811 0.619c0.182-0.241 0.37-0.417 0.563-0.528 0.263-0.145 0.598-0.217 1.005-0.217 0.315 0 0.582 0.072 0.799 0.217 0.215 0.145 0.325 0.313 0.325 0.506 0 0.326-0.374 0.564-1.119 0.712-1.371 0.273-2.055 0.824-2.055 1.651 0 0.475 0.186 0.864 0.562 1.168 0.36 0.289 0.8 0.433 1.319 0.433 0.499 0 0.917-0.088 1.255-0.266 0.226-0.119 0.514-0.347 0.863-0.684" fill="#fff"/></g><g transform="translate(427.51 457.72)"><path d="m0 0h-1.57v-4.558h-1.038v4.558h-1.565v1.005h4.173z" fill="#fff"/></g><g transform="translate(390.59 459.93)"><path d="m0 0c-2.064-0.63-4.174-0.589-6.093 0-0.982-1.24-1.695-2.723-2.034-4.379-0.144-0.705-0.213-1.408-0.213-2.101 2e-3 -4.848 3.404-9.191 8.34-10.2 4.936 1.009 8.338 5.352 8.34 10.2 0 0.693-0.069 1.396-0.213 2.101-0.339 1.656-1.052 3.139-2.034 4.379-1.919-0.589-4.029-0.63-6.093 0" fill="#fff"/></g><g transform="translate(398.13 456.45)"><path d="m0 0c-0.137 0.443-0.304 0.876-0.5 1.294-0.294 0.628-0.655 1.226-1.073 1.78-0.95-0.268-1.93-0.404-2.915-0.404-1.029 0-2.054 0.149-3.048 0.442-0.995-0.293-2.02-0.442-3.049-0.442-0.985 0-1.964 0.136-2.915 0.404-0.418-0.554-0.779-1.152-1.073-1.78-0.196-0.418-0.363-0.851-0.5-1.294z" fill="#c0311a"/></g><g transform="translate(398.23 456.1)"><path d="m0 0h-15.275c-0.056-0.207-0.106-0.416-0.149-0.626-0.272-1.333-0.275-2.679-9e-3 -4.002 0.257-1.277 0.753-2.478 1.475-3.57 0.721-1.093 1.632-2.02 2.706-2.758 1.092-0.75 2.308-1.27 3.615-1.546 1.306 0.276 2.522 0.796 3.615 1.546 1.074 0.738 1.984 1.665 2.706 2.758 0.721 1.092 1.217 2.293 1.474 3.57 0.266 1.323 0.263 2.669-9e-3 4.002-0.043 0.21-0.093 0.419-0.149 0.626" fill="#005a9c"/></g><g transform="translate(393.43 458.1)"><path d="m0 0-0.13-0.533h0.267zm0.332-1.301-0.13 0.508h-0.398l-0.123-0.508h-0.268l0.463 1.854h0.261l0.463-1.854z" fill="#fff"/></g><g transform="translate(388.06 456.8)"><path d="m0 0v1.853h0.874v-0.26h-0.607v-0.468h0.385v-0.254h-0.385v-0.611h0.679v-0.26z" fill="#fff"/></g><path d="m384.89 458.65h0.259v-1.853h-0.259z" fill="#fff"/><g transform="translate(386.4 456.8)"><path d="m0 0-0.571 1.242v-1.242h-0.266v1.853h0.266l0.506-1.112v1.112h0.266v-1.853z" fill="#fff"/></g><g transform="translate(389.86 458.39)"><path d="m0 0h-0.273v-0.468h0.273c0.156 0 0.24 0.084 0.24 0.234 0 0.143-0.097 0.234-0.24 0.234m0.227-1.593-0.247 0.871h-0.253v-0.871h-0.266v1.853h0.552c0.292 0 0.487-0.195 0.487-0.494 0-0.221-0.091-0.384-0.266-0.449l0.266-0.91z" fill="#fff"/></g><g transform="translate(391.11 457.65)"><path d="m0 0c-0.08 0.052-0.158 0.104-0.208 0.139-0.149 0.105-0.228 0.247-0.228 0.41 0 0.266 0.209 0.481 0.476 0.481 0.262 0 0.464-0.202 0.471-0.481h-0.255c-7e-3 0.13-0.098 0.214-0.216 0.214-0.124 0-0.222-0.091-0.222-0.214 0-0.091 0.039-0.143 0.177-0.221 0.359-0.208 0.516-0.41 0.516-0.677 0-0.299-0.229-0.539-0.516-0.539-0.327 0-0.523 0.273-0.523 0.578h0.261c0-0.156 0.079-0.318 0.262-0.318 0.143 0 0.261 0.13 0.261 0.279 0 0.117-0.048 0.214-0.256 0.349" fill="#fff"/></g><g transform="translate(387.46 458.4)"><path d="m0 0v-1.606h-0.267v1.606h-0.34v0.247h0.946v-0.247z" fill="#fff"/></g><g transform="translate(395.35 456.8)"><path d="m0 0v1.853h0.874v-0.26h-0.607v-0.468h0.385v-0.254h-0.385v-0.611h0.679v-0.26z" fill="#fff"/></g><g transform="translate(394.75 458.4)"><path d="m0 0v-1.606h-0.267v1.606h-0.34v0.247h0.946v-0.247z" fill="#fff"/></g><g transform="translate(392.4 458.4)"><path d="m0 0v-1.606h-0.267v1.606h-0.339v0.247h0.945v-0.247z" fill="#fff"/></g><g transform="translate(388.09 449.35)"><path d="m0 0c-0.098-0.586-0.147-1.024-0.147-1.707h-1.127c0.024 1.61 0.318 2.951 1.005 4.414 0.191 0.411 0.543 1.055 0.784 1.439h-3.334v1.097h4.731v-1.097c-0.245-0.318-0.391-0.464-0.612-0.83-0.614-1.024-1.079-2.195-1.3-3.316" fill="#fff"/></g><g transform="translate(392.31 449.67)"><path d="m0 0c0-0.561 0.561-1.024 1.244-1.024s1.268 0.463 1.268 1.024c0 0.537-0.561 1-1.268 1-0.683 0-1.244-0.463-1.244-1m-1.122 0.074v2e-3c0 1.925 1.074 3.899 2.684 4.971l0.56-0.927c-0.853-0.659-1.292-1.219-1.707-2.098 0.39 0.073 0.561 0.073 0.83 0.073 1.293 0 2.365-0.951 2.365-2.122 0-1.193-1.025-2.119-2.366-2.119s-2.366 0.975-2.366 2.22" fill="#fff"/></g><g transform="translate(406.96 125.09)"><path d="m0 0c-3.497 0-6.342 2.846-6.342 6.343v43.519c0 3.497 2.845 6.342 6.342 6.342h93.255c3.497 0 6.343-2.845 6.343-6.342v-43.519c0-3.497-2.846-6.343-6.343-6.343z" fill="#fff"/></g><g transform="translate(500.22 181.42)"><path d="m0 0h-93.255c-3.566 0-6.467-2.901-6.467-6.467v-43.519c0-3.567 2.901-6.468 6.467-6.468h93.255c3.566 0 6.467 2.901 6.467 6.468v43.519c0 3.566-2.901 6.467-6.467 6.467m0-0.25c3.42 0 6.217-2.798 6.217-6.217v-43.519c0-3.42-2.797-6.218-6.217-6.218h-93.255c-3.419 0-6.217 2.798-6.217 6.218v43.519c0 3.419 2.798 6.217 6.217 6.217z"/></g><g transform="translate(505.4 162.52)"><path d="m0 0v-31.085c0-0.696-0.137-1.373-0.408-2.01-0.262-0.617-0.637-1.171-1.115-1.649-0.478-0.477-1.033-0.852-1.65-1.115-0.637-0.27-1.312-0.407-2.008-0.407h-93.255c-0.696 0-1.372 0.137-2.008 0.407-0.617 0.263-1.172 0.638-1.651 1.115-0.477 0.478-0.852 1.032-1.114 1.649-0.271 0.637-0.408 1.314-0.408 2.01v31.085z" fill="#006f51"/></g><g transform="translate(401.78 163.56)"><path d="m0 0v11.398c0 0.694 0.137 1.371 0.408 2.008 0.262 0.617 0.637 1.172 1.114 1.649 0.479 0.479 1.034 0.853 1.651 1.115 0.636 0.272 1.312 0.409 2.008 0.409h93.255c0.696 0 1.371-0.137 2.008-0.409 0.617-0.262 1.172-0.636 1.65-1.115 0.478-0.477 0.853-1.032 1.115-1.649 0.271-0.637 0.408-1.314 0.408-2.008v-11.398z" fill="#006f51"/></g><g transform="translate(482.03 148.29)"><path d="m0 0c0-0.57-0.467-1.037-1.037-1.037h-25.904c-0.569 0-1.035 0.467-1.035 1.037v5.699c0 0.57 0.466 1.036 1.035 1.036h25.904c0.57 0 1.037-0.466 1.037-1.036z" fill="#ffd046"/></g><g transform="translate(463.57 148.54)"><path d="m0 0v5.181h3.795v-0.927h-2.847v-0.963h1.552v-0.945h-1.552v-1.418h2.938v-0.928z"/></g><g transform="translate(469.56 152.8)"><path d="m0 0v-1.055h1.623v-0.944h-1.623v-2.255h-0.949v5.181h3.885v-0.927z"/></g><g transform="translate(458.76 148.54)"><path d="m0 0v5.181h0.93v-4.38h2.956v-0.801z"/></g><g transform="translate(475.56 152.82)"><path d="m0 0v-4.273h-0.908v4.273h-1.489v0.908h3.886v-0.908z"/></g><g transform="translate(416.62 168.22)"><path d="m0 0v6.217h4.554v-1.113h-3.415v-1.156h1.86v-1.135h-1.86v-1.701h3.524v-1.112z" fill="#fff"/></g><g transform="translate(441.18 168.22)"><path d="m0 0v6.217h4.554v-1.113h-3.415v-1.156h1.86v-1.135h-1.86v-1.701h3.523v-1.112z" fill="#fff"/></g><g transform="translate(431.81 173.32)"><path d="m0 0h-1.876v-1.549h1.876c0.546 0 0.917 0.306 0.917 0.764 0 0.48-0.371 0.785-0.917 0.785m1.069-2.421c-0.349-0.196-0.632-0.24-1.112-0.24h-1.833v-2.443h-1.134v6.217h2.967c0.48 0 0.763-0.066 1.112-0.261 0.589-0.328 0.96-0.938 0.96-1.637 0-0.655-0.371-1.308-0.96-1.636" fill="#fff"/></g><g transform="translate(437.8 173.32)"><path d="m0 0h-1.79v-1.549h1.79c0.546 0 0.894 0.306 0.894 0.764 0 0.48-0.348 0.785-0.894 0.785m0.894-5.104-1.002 2.443h-1.682v-2.443h-1.112v6.217h2.88c0.459 0 0.742-0.066 1.069-0.261 0.588-0.328 0.959-0.938 0.959-1.637 0-0.698-0.371-1.308-1.003-1.658l1.134-2.661z" fill="#fff"/></g><g transform="translate(449.03 171.01)"><path d="m0 0c-0.277 0.076-0.972 0.244-1.207 0.381-0.467 0.275-0.827 0.723-0.827 1.389 0 1.024 0.878 1.722 2.148 1.722 0.919 0 1.686-0.304 2.322-0.959l-0.833-0.742c-0.393 0.415-0.897 0.611-1.489 0.611-0.636 0-1.008-0.24-1.008-0.632 0-0.349 0.219-0.502 0.987-0.677 0.831-0.174 1.38-0.349 1.73-0.524 0.547-0.283 0.898-0.871 0.898-1.549 0-0.632-0.285-1.112-0.876-1.461-0.438-0.262-1.008-0.414-1.577-0.414-1.074 0-1.884 0.392-2.586 1.199l0.899 0.699c0.459-0.546 0.963-0.786 1.664-0.786 0.788 0 1.358 0.349 1.358 0.807 0 0.584-0.634 0.668-1.603 0.936" fill="#fff"/></g><g transform="translate(454.94 171.01)"><path d="m0 0c-0.277 0.076-0.972 0.244-1.207 0.381-0.469 0.275-0.827 0.723-0.827 1.389 0 1.024 0.878 1.722 2.147 1.722 0.92 0 1.687-0.304 2.323-0.959l-0.833-0.742c-0.394 0.415-0.898 0.611-1.49 0.611-0.635 0-1.007-0.24-1.007-0.632 0-0.349 0.219-0.502 0.985-0.677 0.833-0.174 1.38-0.349 1.732-0.524 0.547-0.283 0.898-0.871 0.898-1.549 0-0.632-0.285-1.112-0.876-1.461-0.438-0.262-1.008-0.414-1.578-0.414-1.073 0-1.884 0.392-2.585 1.199l0.899 0.699c0.459-0.546 0.963-0.786 1.664-0.786 0.788 0 1.358 0.349 1.358 0.807 0 0.584-0.634 0.668-1.603 0.936" fill="#fff"/></g><g transform="translate(487.85 171.01)"><path d="m0 0c-0.277 0.076-0.973 0.244-1.207 0.381-0.469 0.275-0.826 0.723-0.826 1.389 0 1.024 0.876 1.722 2.147 1.722 0.919 0 1.687-0.304 2.322-0.959l-0.833-0.742c-0.393 0.415-0.897 0.611-1.489 0.611-0.636 0-1.008-0.24-1.008-0.632 0-0.349 0.22-0.502 0.985-0.677 0.833-0.174 1.382-0.349 1.732-0.524 0.547-0.283 0.898-0.871 0.898-1.549 0-0.632-0.285-1.112-0.876-1.461-0.438-0.262-1.008-0.414-1.578-0.414-1.073 0-1.884 0.392-2.585 1.199l0.899 0.699c0.459-0.546 0.963-0.786 1.664-0.786 0.788 0 1.358 0.349 1.358 0.807 0 0.584-0.634 0.668-1.603 0.936" fill="#fff"/></g><g transform="translate(426.25 168.22)"><path d="m0 0-1.403 2.203-1.38-2.203h-1.315l2.039 3.272-1.864 2.945h1.337l1.183-1.898 1.183 1.898h1.337l-1.841-2.945 2.038-3.272z" fill="#fff"/></g><g transform="translate(465.61 168.22)"><path d="m0 0v6.217h4.554v-1.113h-3.415v-1.156h1.86v-1.135h-1.86v-1.701h3.524v-1.112z" fill="#fff"/></g><path d="m477.8 174.44h1.118v-6.217h-1.118z" fill="#fff"/><g transform="translate(482.85 173.35)"><path d="m0 0v-5.126h-1.089v5.126h-1.786v1.09h4.661v-1.09z" fill="#fff"/></g><g transform="translate(475.24 168.22)"><path d="m0 0-1.403 2.203-1.38-2.203h-1.315l2.038 3.272-1.862 2.945h1.336l1.183-1.898 1.183 1.898h1.337l-1.841-2.945 2.038-3.272z" fill="#fff"/></g><g transform="translate(412.36 135.67)"><path d="m0 0c-0.146 0.072-0.295 0.098-0.538 0.098h-1.884v-1.602h2.079c0.514 0 0.808 0.266 0.808 0.679 0 0.34-0.172 0.679-0.465 0.825m-0.391 2.67h-2.031v-1.188h1.908c0.44 0 0.758 0.29 0.758 0.655 0 0.339-0.22 0.533-0.635 0.533m1.198-5.292c-0.318-0.17-0.685-0.266-1.028-0.266h-3.571v6.942h3.254c0.611 0 0.831-0.049 1.198-0.267 0.588-0.316 0.955-0.971 0.955-1.65 0-0.535-0.172-0.972-0.563-1.336 0.539-0.437 0.782-0.97 0.782-1.626 0-0.753-0.391-1.432-1.027-1.797" fill="#fff"/></g><g transform="translate(430.17 134.82)"><path d="m0 0c-0.415 0.146-0.903 0.218-1.172 0.218-0.438 0-0.781-0.242-0.781-0.558 0-0.315 0.416-0.583 0.904-0.583 0.292 0 0.658 0.05 1.049 0.268zm0-2.039v0.17c-0.489-0.194-0.952-0.244-1.342-0.244-1.122 0-1.927 0.705-1.927 1.7 0 1.044 0.903 1.821 2.097 1.821 0.293 0 0.757-0.048 1.172-0.194-0.026 0.486-0.391 0.679-0.903 0.679-0.487 0-0.952-0.121-1.439-0.389l-0.512 1.093c0.755 0.389 1.268 0.535 1.951 0.535 1.39 0 2.219-0.681 2.219-2.088v-3.083z" fill="#fff"/></g><g transform="translate(451.98 134.82)"><path d="m0 0c-0.414 0.146-0.902 0.218-1.171 0.218-0.439 0-0.78-0.242-0.78-0.558 0-0.315 0.415-0.583 0.903-0.583 0.293 0 0.658 0.05 1.048 0.268zm0-2.039v0.17c-0.487-0.194-0.951-0.244-1.342-0.244-1.122 0-1.926 0.705-1.926 1.7 0 1.044 0.902 1.821 2.097 1.821 0.294 0 0.757-0.048 1.171-0.194-0.024 0.486-0.39 0.679-0.902 0.679-0.488 0-0.951-0.121-1.439-0.389l-0.513 1.093c0.757 0.389 1.268 0.535 1.952 0.535 1.39 0 2.218-0.681 2.218-2.088v-3.083z" fill="#fff"/></g><g transform="translate(436.93 136.16)"><path d="m0 0c-0.196 0.34-0.561 0.486-0.903 0.486-0.561 0-1-0.582-1-1.31 0-0.729 0.439-1.311 1.024-1.311 0.318 0 0.683 0.146 0.879 0.485zm0-3.373v0.242c-0.244-0.218-0.731-0.316-1.122-0.316-1.171 0-2.171 1.214-2.171 2.623 0 1.407 1 2.622 2.195 2.622 0.367 0 0.805-0.098 1.098-0.341v1.675l1.294 0.534v-7.039z" fill="#fff"/></g><g transform="translate(422.99 136.68)"><path d="m0 0c-0.536 0-0.95-0.583-0.95-1.336 0-0.727 0.414-1.31 0.95-1.31 0.512 0 0.974 0.583 0.974 1.31 0 0.753-0.462 1.336-0.974 1.336m0-3.957c-1.266 0-2.337 1.165-2.337 2.621 0 1.506 1.022 2.646 2.337 2.646 1.217 0 2.387-1.189 2.387-2.646 0-1.456-1.144-2.621-2.387-2.621" fill="#fff"/></g><g transform="translate(419.14 136.24)"><path d="m0 0c-0.194 0.316-0.537 0.438-0.806 0.438-0.611 0-0.806-0.364-0.806-1.069v-2.79h-1.394v5.049h1.394v-0.244c0.342 0.268 0.634 0.364 1.001 0.364 0.417 0 0.734-0.096 1.077-0.364z" fill="#fff"/></g><g transform="translate(445.83 132.78)"><path d="m0 0h-1.345l-0.634 2.5-0.806-2.5h-1.345l-1.466 5.049h1.417l0.709-2.403 0.709 2.403h1.514l0.612-2.379 0.683 2.379h1.442z" fill="#fff"/></g><g transform="translate(458.26 130.97)"><path d="m0 0-1.408 6e-3 0.851 2.011-2.397 4.988 1.607-7e-3 1.39-3.357 1.426 3.343 1.481-8e-3z" fill="#fff"/></g><g transform="translate(494.64 150.98)"><path d="m0 0c1.089 0.79 2.562 0.903 2.562 1.591 0 0.412-0.561 0.704-1.365 0.704-0.706 0-1.169-0.17-1.851-0.704l-0.975 1.019c0.464 0.34 0.683 0.486 0.999 0.632 0.561 0.291 1.194 0.437 1.877 0.437 0.876 0 1.655-0.244 2.119-0.679 0.364-0.34 0.559-0.778 0.559-1.36 0-1.02-0.633-1.724-1.972-2.185-0.78-0.292-0.975-0.388-1.341-0.752-0.218-0.219-0.364-0.413-0.51-0.68h3.897v-1.383h-5.628c0 1.235 0.626 2.631 1.629 3.36" fill="#fff"/></g><g transform="translate(497.77 133.24)"><path d="m0 0c-0.414-0.364-1.121-0.583-1.9-0.583-1.024 0-1.997 0.243-2.85 0.729l0.755 1.19c0.707-0.389 1.315-0.535 2.095-0.535 0.925 0 1.413 0.34 1.413 1.068 0 0.68-0.488 1.043-1.438 1.043-0.389 0-0.657-0.048-1.265-0.266l-1.414 0.558 0.293 3.277h4.579v-1.384l-3.192-0.024-0.12-0.898c0.364 0.073 0.754 0.121 1.144 0.121 0.657 0 1.145-0.121 1.56-0.339 0.754-0.437 1.217-1.238 1.217-2.112 0-0.68-0.341-1.408-0.877-1.845" fill="#fff"/></g><g transform="translate(431.83 151.15)"><path d="m0 0h-4.663v6.217h4.445v-1.117h-3.328v-1.243h1.992v-1.117h-1.992v-1.624h3.546z" fill="#fff"/></g><g transform="translate(435.71 153.19)"><path d="m0 0-0.711 1.709-0.716-1.709zm1.824-2.036h-0.97l-0.476 1.138h-2.179l-0.476-1.138h-0.972l2.08 4.974h0.91z" fill="#fff"/></g><g transform="translate(441.95 155.34)"><path d="m0 0-0.677-0.556c-0.246 0.189-0.421 0.312-0.528 0.368-0.208 0.113-0.434 0.17-0.677 0.17-0.208 0-0.394-0.057-0.554-0.167-0.162-0.112-0.242-0.235-0.242-0.371 3e-3 -0.272 0.37-0.479 1.101-0.622 0.587-0.116 1.034-0.321 1.34-0.617 0.264-0.262 0.397-0.561 0.397-0.901 0-0.402-0.178-0.756-0.532-1.064-0.376-0.32-0.83-0.479-1.369-0.479-0.524 0-0.943 0.084-1.258 0.249-0.25 0.135-0.539 0.387-0.871 0.762l0.727 0.554c0.161-0.215 0.328-0.373 0.501-0.472 0.235-0.129 0.535-0.194 0.9-0.194 0.281 0 0.519 0.065 0.714 0.194 0.193 0.13 0.289 0.279 0.289 0.452 0 0.291-0.333 0.504-0.999 0.637-1.225 0.244-1.838 0.737-1.838 1.476 0 0.424 0.167 0.771 0.504 1.044 0.321 0.258 0.714 0.388 1.179 0.388 0.444 0 0.819-0.08 1.121-0.239 0.202-0.107 0.46-0.31 0.772-0.612" fill="#fff"/></g><g transform="translate(446.39 155.23)"><path d="m0 0h-1.404v-4.075h-0.927v4.075h-1.399v0.899h3.73z" fill="#fff"/></g><g transform="translate(414.73 157.34)"><path d="m0 0c-1.54-0.47-3.113-0.439-4.544 0-0.732-0.925-1.264-2.031-1.517-3.266-0.107-0.526-0.159-1.05-0.159-1.566 1e-3 -3.617 2.539-6.855 6.22-7.607 3.681 0.752 6.219 3.99 6.22 7.607 0 0.516-0.052 1.04-0.159 1.566-0.252 1.235-0.785 2.341-1.517 3.266-1.431-0.439-3.004-0.47-4.544 0" fill="#fff"/></g><g transform="translate(420.35 154.75)"><path d="m0 0c-0.102 0.331-0.227 0.653-0.373 0.965-0.219 0.468-0.488 0.914-0.8 1.328-0.709-0.2-1.439-0.302-2.174-0.302-0.767 0-1.532 0.111-2.274 0.33-0.742-0.219-1.506-0.33-2.273-0.33-0.735 0-1.465 0.102-2.174 0.302-0.312-0.414-0.581-0.86-0.8-1.328-0.146-0.312-0.271-0.634-0.373-0.965z" fill="#c0311a"/></g><g transform="translate(420.43 154.49)"><path d="m0 0h-11.392c-0.041-0.154-0.079-0.31-0.111-0.467-0.203-0.994-0.205-1.998-7e-3 -2.984 0.192-0.953 0.562-1.849 1.1-2.663 0.538-0.815 1.217-1.507 2.018-2.057 0.815-0.559 1.722-0.947 2.696-1.153 0.975 0.206 1.881 0.594 2.696 1.153 0.801 0.55 1.48 1.242 2.018 2.057 0.538 0.814 0.908 1.71 1.1 2.663 0.199 0.986 0.196 1.99-7e-3 2.984-0.032 0.157-0.069 0.313-0.111 0.467" fill="#005a9c"/></g><g transform="translate(416.85 155.98)"><path d="m0 0-0.097-0.398h0.199zm0.248-0.97-0.097 0.378h-0.297l-0.092-0.378h-0.199l0.345 1.382h0.194l0.345-1.382z" fill="#fff"/></g><g transform="translate(412.85 155.01)"><path d="m0 0v1.382h0.652v-0.194h-0.453v-0.349h0.287v-0.189h-0.287v-0.456h0.506v-0.194z" fill="#fff"/></g><path d="m410.48 156.39h0.194v-1.382h-0.194z" fill="#fff"/><g transform="translate(411.6 155.01)"><path d="m0 0-0.426 0.926v-0.926h-0.198v1.382h0.198l0.378-0.829v0.829h0.198v-1.382z" fill="#fff"/></g><g transform="translate(414.19 156.2)"><path d="m0 0h-0.203v-0.349h0.203c0.116 0 0.179 0.063 0.179 0.174 0 0.107-0.073 0.175-0.179 0.175m0.169-1.188-0.184 0.65h-0.188v-0.65h-0.199v1.382h0.412c0.217 0 0.363-0.145 0.363-0.369 0-0.164-0.068-0.286-0.199-0.334l0.199-0.679z" fill="#fff"/></g><g transform="translate(415.12 155.65)"><path d="m0 0c-0.06 0.039-0.118 0.078-0.155 0.104-0.111 0.078-0.17 0.184-0.17 0.305 0 0.199 0.155 0.359 0.355 0.359 0.195 0 0.346-0.15 0.351-0.359h-0.19c-5e-3 0.097-0.073 0.16-0.161 0.16-0.092 0-0.165-0.068-0.165-0.16 0-0.068 0.029-0.106 0.131-0.165 0.268-0.155 0.385-0.305 0.385-0.504 0-0.223-0.171-0.403-0.385-0.403-0.243 0-0.39 0.204-0.39 0.432h0.195c0-0.116 0.059-0.238 0.195-0.238 0.107 0 0.195 0.097 0.195 0.209 0 0.087-0.036 0.16-0.191 0.26" fill="#fff"/></g><g transform="translate(412.4 156.21)"><path d="m0 0v-1.198h-0.199v1.198h-0.253v0.184h0.705v-0.184z" fill="#fff"/></g><g transform="translate(418.28 155.01)"><path d="m0 0v1.382h0.652v-0.194h-0.453v-0.349h0.287v-0.189h-0.287v-0.456h0.506v-0.194z" fill="#fff"/></g><g transform="translate(417.83 156.21)"><path d="m0 0v-1.198h-0.199v1.198h-0.253v0.184h0.705v-0.184z" fill="#fff"/></g><g transform="translate(416.08 156.21)"><path d="m0 0v-1.198h-0.199v1.198h-0.253v0.184h0.705v-0.184z" fill="#fff"/></g><g transform="translate(412.87 149.46)"><path d="m0 0c-0.073-0.437-0.109-0.764-0.109-1.273h-0.842c0.019 1.201 0.238 2.201 0.75 3.292 0.143 0.306 0.405 0.787 0.585 1.073h-2.486v0.818h3.528v-0.818c-0.183-0.237-0.292-0.346-0.457-0.619-0.457-0.764-0.804-1.637-0.969-2.473" fill="#fff"/></g><g transform="translate(416.01 149.69)"><path d="m0 0c0-0.419 0.418-0.764 0.928-0.764 0.509 0 0.946 0.345 0.946 0.764 0 0.4-0.419 0.746-0.946 0.746-0.51 0-0.928-0.346-0.928-0.746m-0.836 0.055v2e-3c0 1.435 0.8 2.907 2.001 3.707l0.418-0.692c-0.636-0.491-0.964-0.909-1.273-1.564 0.291 0.054 0.418 0.055 0.618 0.055 0.964 0 1.764-0.71 1.764-1.583 0-0.89-0.764-1.58-1.764-1.58-1.001 0-1.764 0.727-1.764 1.655" fill="#fff"/></g><g transform="translate(528.92 454.17)"><path d="m0 0v10.076" fill="#fff" fill-rule="evenodd"/></g><g transform="translate(453.83 418.59)"><path d="m0 0c-3.136 0-5.687 2.551-5.687 5.687v50.063c0 3.137 2.551 5.688 5.687 5.688h69.532c3.136 0 5.688-2.551 5.688-5.688v-50.063c0-3.136-2.552-5.687-5.688-5.687z" fill="#fff"/></g><g transform="translate(523.36 480.16)"><path d="m0 0h-69.532c-3.205 0-5.813-2.607-5.813-5.812v-50.064c0-3.205 2.608-5.812 5.813-5.812h69.532c3.205 0 5.812 2.607 5.812 5.812v50.064c0 3.205-2.607 5.812-5.812 5.812m0-0.25c3.059 0 5.562-2.503 5.562-5.562v-50.064c0-3.059-2.503-5.562-5.562-5.562h-69.532c-3.059 0-5.563 2.503-5.563 5.562v50.064c0 3.059 2.504 5.562 5.563 5.562z"/></g><g transform="translate(528 474.34)"><path d="m0 0c0 0.622-0.123 1.227-0.364 1.797-0.235 0.552-0.571 1.048-0.998 1.476-0.427 0.427-0.924 0.763-1.475 0.998-0.571 0.242-1.176 0.364-1.798 0.364h-69.532c-0.623 0-1.227-0.122-1.798-0.364-0.551-0.235-1.048-0.571-1.476-0.998-0.426-0.428-0.762-0.924-0.997-1.476-0.241-0.57-0.364-1.175-0.364-1.797v-10.198h78.802z" fill="#006f51"/></g><g transform="translate(449.19 424.28)"><path d="m0 0c0-0.622 0.123-1.227 0.364-1.797 0.235-0.552 0.571-1.048 0.997-1.476 0.428-0.428 0.925-0.763 1.476-0.998 0.571-0.242 1.175-0.364 1.798-0.364h69.532c0.622 0 1.227 0.122 1.798 0.364 0.551 0.235 1.048 0.57 1.475 0.998s0.763 0.924 0.998 1.476c0.241 0.57 0.364 1.175 0.364 1.797v38.938h-78.802z" fill="#006f51"/></g><g transform="translate(506.41 472.9)"><path d="m0 0-0.78-1.874h1.56zm1.756-4.177-0.547 1.308h-2.418l-0.547-1.308h-1.093l2.342 5.563h1.014l2.322-5.563z" fill="#fff"/></g><g transform="translate(516.14 468.72)"><path d="m0 0v5.563h4.075v-0.995h-3.057v-1.035h1.666v-1.015h-1.666v-1.523h3.155v-0.995z" fill="#fff"/></g><g transform="translate(498.95 468.72)"><path d="m0 0v5.563h1v-4.704h3.173v-0.859z" fill="#fff"/></g><g transform="translate(513.83 468.72)"><path d="m0 0-2.666 3.826v-3.826h-0.981v5.563h0.981l2.567-3.669v3.669h0.961v-5.563z" fill="#fff"/></g><g transform="translate(478.86 468.72)"><path d="m0 0v5.563h4.074v-0.995h-3.055v-1.035h1.664v-1.015h-1.664v-1.523h3.153v-0.995z" fill="#fff"/></g><g transform="translate(456.88 468.72)"><path d="m0 0v5.563h4.075v-0.995h-3.057v-1.035h1.666v-1.015h-1.666v-1.523h3.155v-0.995z" fill="#fff"/></g><g transform="translate(470.48 473.29)"><path d="m0 0h-1.68v-1.386h1.68c0.488 0 0.819 0.273 0.819 0.683 0 0.43-0.331 0.703-0.819 0.703m0.956-2.167c-0.312-0.175-0.566-0.215-0.995-0.215h-1.641v-2.186h-1.015v5.564h2.656c0.429 0 0.683-0.059 0.995-0.235 0.527-0.293 0.858-0.839 0.858-1.464 0-0.585-0.331-1.171-0.858-1.464" fill="#fff"/></g><g transform="translate(475.83 473.29)"><path d="m0 0h-1.602v-1.386h1.602c0.488 0 0.8 0.273 0.8 0.683 0 0.43-0.312 0.703-0.8 0.703m0.8-4.568-0.898 2.186h-1.504v-2.186h-0.995v5.564h2.578c0.409 0 0.663-0.059 0.956-0.235 0.526-0.293 0.858-0.839 0.858-1.464 0-0.624-0.332-1.171-0.898-1.483l1.015-2.382z" fill="#fff"/></g><g transform="translate(485.88 471.22)"><path d="m0 0c-0.248 0.068-0.87 0.217-1.08 0.341-0.418 0.245-0.739 0.647-0.739 1.242 0 0.917 0.784 1.542 1.922 1.542 0.822 0 1.508-0.274 2.078-0.859l-0.745-0.664c-0.354 0.371-0.804 0.547-1.333 0.547-0.57 0-0.902-0.215-0.902-0.566 0-0.312 0.196-0.449 0.881-0.605 0.745-0.156 1.236-0.313 1.549-0.469 0.491-0.253 0.804-0.78 0.804-1.385 0-0.566-0.254-0.996-0.784-1.308-0.392-0.234-0.901-0.371-1.412-0.371-0.96 0-1.685 0.351-2.312 1.073l0.803 0.625c0.412-0.488 0.862-0.703 1.49-0.703 0.705 0 1.216 0.313 1.216 0.722 0 0.523-0.568 0.599-1.436 0.838" fill="#fff"/></g><g transform="translate(491.17 471.22)"><path d="m0 0c-0.247 0.068-0.87 0.217-1.081 0.341-0.418 0.245-0.738 0.647-0.738 1.242 0 0.917 0.784 1.542 1.92 1.542 0.824 0 1.51-0.274 2.079-0.859l-0.745-0.664c-0.353 0.371-0.804 0.547-1.334 0.547-0.568 0-0.901-0.215-0.901-0.566 0-0.312 0.196-0.449 0.883-0.605 0.745-0.156 1.234-0.313 1.547-0.469 0.491-0.253 0.804-0.78 0.804-1.385 0-0.566-0.254-0.996-0.784-1.308-0.392-0.234-0.902-0.371-1.411-0.371-0.96 0-1.685 0.351-2.314 1.073l0.804 0.625c0.412-0.488 0.863-0.703 1.49-0.703 0.706 0 1.216 0.313 1.216 0.722 0 0.523-0.569 0.599-1.435 0.838" fill="#fff"/></g><g transform="translate(465.49 468.72)"><path d="m0 0-1.254 1.971-1.235-1.971h-1.177l1.824 2.928-1.667 2.635h1.196l1.059-1.698 1.058 1.698h1.197l-1.647-2.635 1.822-2.928z" fill="#fff"/></g><g transform="translate(495.55 432.16)"><path d="m0 0c-0.051 0-0.091 0-0.132-0.01l-5.321-1.381v4.172h-3.013v-4.172l-5.33 1.381c-0.041 0.01-0.081 0.01-0.111 0.01-0.262 0-0.464-0.202-0.464-0.464 0-0.121 0.051-0.242 0.141-0.332l0.011-0.01 7.265-6.611 7.256 6.611c0.1 0.09 0.161 0.221 0.161 0.342 0 0.262-0.212 0.464-0.463 0.464" fill="#fff"/></g><g transform="translate(512.57 450.28)"><path d="m0 0v2.42h-2.51v-2.42h-0.999v5.562h0.999v-2.147h2.51v2.147h1v-5.562z" fill="#fff"/></g><g transform="translate(494.9 454.99)"><path d="m0 0c-0.842 0-1.35-0.703-1.35-1.874 0-1.191 0.508-1.893 1.35-1.893 1.056 0 1.311 1.034 1.311 1.893 0 1.171-0.469 1.874-1.311 1.874m0-4.763c-1.643 0-2.367 1.484-2.367 2.889 0 1.776 0.899 2.87 2.367 2.87 1.37 0 2.308-1.152 2.308-2.85 0-1.738-0.899-2.909-2.308-2.909" fill="#fff"/></g><g transform="translate(488.63 453.4)"><path d="m0 0c-0.31 0.085-1.088 0.272-1.351 0.426-0.523 0.307-0.923 0.809-0.923 1.553 0 1.146 0.98 1.927 2.401 1.927 1.029 0 1.887-0.342 2.598-1.073l-0.931-0.83c-0.441 0.464-1.005 0.683-1.667 0.683-0.71 0-1.127-0.268-1.127-0.707 0-0.391 0.246-0.561 1.103-0.757 0.931-0.195 1.544-0.39 1.936-0.585 0.612-0.317 1.004-0.976 1.004-1.732 0-0.708-0.318-1.244-0.98-1.635-0.489-0.292-1.127-0.463-1.764-0.463-1.201 0-2.107 0.439-2.891 1.342l1.004 0.78c0.515-0.61 1.079-0.878 1.863-0.878 0.881 0 1.519 0.39 1.519 0.903 0 0.652-0.711 0.747-1.794 1.046" fill="#fff"/></g><g transform="translate(506.52 454.86)"><path d="m0 0v-4.587h-0.975v4.587h-1.598v0.976h4.171v-0.976z" fill="#fff"/></g><g transform="translate(500.74 450.23)"><path d="m0 0c-1.313 0-2.254 0.976-2.254 2.342v3.318h1v-3.318c0-0.332 0.039-0.507 0.175-0.722 0.216-0.371 0.629-0.605 1.079-0.605s0.863 0.234 1.079 0.605c0.136 0.215 0.175 0.41 0.175 0.722v3.318h1v-3.318c0-1.366-0.941-2.342-2.254-2.342" fill="#fff"/></g><g transform="translate(469.89 457.3)"><path d="m0 0c-2.064-0.63-4.174-0.589-6.093 0-0.982-1.24-1.695-2.723-2.034-4.379-0.144-0.705-0.213-1.408-0.213-2.101 2e-3 -4.849 3.404-9.191 8.34-10.2 4.936 1.009 8.338 5.351 8.34 10.2 0 0.693-0.069 1.396-0.213 2.101-0.339 1.656-1.052 3.139-2.034 4.379-1.919-0.589-4.029-0.63-6.093 0" fill="#fff"/></g><g transform="translate(477.43 453.83)"><path d="m0 0c-0.137 0.443-0.304 0.876-0.5 1.294-0.294 0.628-0.655 1.226-1.073 1.78-0.95-0.268-1.93-0.404-2.915-0.404-1.029 0-2.054 0.149-3.049 0.442-0.994-0.293-2.019-0.442-3.048-0.442-0.985 0-1.965 0.136-2.915 0.404-0.418-0.554-0.779-1.152-1.073-1.78-0.196-0.418-0.363-0.851-0.5-1.294z" fill="#c0311a"/></g><g transform="translate(477.53 453.48)"><path d="m0 0h-15.275c-0.056-0.207-0.106-0.416-0.149-0.626-0.272-1.333-0.275-2.679-9e-3 -4.002 0.257-1.277 0.753-2.478 1.475-3.57 0.721-1.092 1.632-2.02 2.706-2.758 1.092-0.75 2.308-1.27 3.615-1.546 1.306 0.276 2.522 0.796 3.615 1.546 1.074 0.738 1.984 1.666 2.706 2.758 0.721 1.092 1.217 2.293 1.474 3.57 0.267 1.323 0.263 2.669-9e-3 4.002-0.043 0.21-0.093 0.419-0.149 0.626" fill="#005a9c"/></g><g transform="translate(472.73 455.48)"><path d="m0 0-0.13-0.533h0.267zm0.332-1.301-0.13 0.508h-0.398l-0.123-0.508h-0.268l0.463 1.854h0.261l0.463-1.854z" fill="#fff"/></g><g transform="translate(467.36 454.17)"><path d="m0 0v1.853h0.874v-0.26h-0.607v-0.468h0.385v-0.254h-0.385v-0.611h0.679v-0.26z" fill="#fff"/></g><path d="m464.19 456.03h0.259v-1.853h-0.259z" fill="#fff"/><g transform="translate(465.7 454.17)"><path d="m0 0-0.571 1.242v-1.242h-0.266v1.853h0.266l0.506-1.112v1.112h0.266v-1.853z" fill="#fff"/></g><g transform="translate(469.16 455.77)"><path d="m0 0h-0.272v-0.468h0.272c0.156 0 0.24 0.084 0.24 0.234 0 0.143-0.097 0.234-0.24 0.234m0.227-1.593-0.246 0.871h-0.253v-0.871h-0.267v1.853h0.552c0.292 0 0.487-0.195 0.487-0.494 0-0.221-0.091-0.384-0.266-0.449l0.266-0.91z" fill="#fff"/></g><g transform="translate(470.41 455.03)"><path d="m0 0c-0.08 0.052-0.158 0.104-0.208 0.139-0.149 0.105-0.228 0.247-0.228 0.41 0 0.266 0.209 0.481 0.476 0.481 0.262 0 0.464-0.202 0.471-0.481h-0.255c-7e-3 0.13-0.098 0.214-0.216 0.214-0.124 0-0.222-0.091-0.222-0.214 0-0.091 0.04-0.143 0.177-0.221 0.359-0.208 0.516-0.41 0.516-0.677 0-0.299-0.229-0.539-0.516-0.539-0.327 0-0.523 0.273-0.523 0.578h0.262c0-0.156 0.078-0.318 0.261-0.318 0.143 0 0.261 0.13 0.261 0.279 0 0.116-0.048 0.214-0.256 0.349" fill="#fff"/></g><g transform="translate(466.76 455.78)"><path d="m0 0v-1.606h-0.267v1.606h-0.339v0.247h0.945v-0.247z" fill="#fff"/></g><g transform="translate(474.65 454.17)"><path d="m0 0v1.853h0.874v-0.26h-0.607v-0.468h0.385v-0.254h-0.385v-0.611h0.679v-0.26z" fill="#fff"/></g><g transform="translate(474.05 455.78)"><path d="m0 0v-1.606h-0.267v1.606h-0.34v0.247h0.946v-0.247z" fill="#fff"/></g><g transform="translate(471.69 455.78)"><path d="m0 0v-1.606h-0.267v1.606h-0.34v0.247h0.946v-0.247z" fill="#fff"/></g><g transform="translate(465.9 446.15)"><path d="m0 0h3.414v-1.122h-4.731c0.024 0.805 0.194 1.465 0.585 2.122 1.22 2.038 3.049 1.811 3.049 2.901 0 0.512-0.586 0.927-1.268 0.927-0.708 0-1.147-0.341-1.269-0.975l-1.097 0.244c0.244 1.146 1.146 1.853 2.365 1.853 1.317 0 2.364-0.927 2.364-2.073v-4e-3c0-0.829-0.478-1.357-1.096-1.741-0.936-0.582-1.796-0.839-2.316-2.132" fill="#fff"/></g><g transform="translate(470.7 445.29)"><path d="m0 0 0.536 0.975c0.293-0.146 0.804-0.244 1.317-0.244 1 0 1.78 0.658 1.78 1.561 0 0.682-0.561 1.219-1.244 1.219-0.487 0-0.707-0.146-1.122-0.731l-1.097 0.317 0.172 3.584h3.999v-1.097h-2.927l-0.072-1.146c0.513 0.146 0.732 0.195 1.073 0.195 1.268 0 2.316-1.073 2.316-2.34-1e-3 -1.537-1.268-2.683-3.024-2.683-0.61 0-1.22 0.146-1.707 0.39" fill="#fff"/></g><g transform="translate(402.15 536.63)"><path d="m0 0c-0.843 0-1.529 0.686-1.529 1.529v33.696c0 0.843 0.686 1.529 1.529 1.529h25.271c0.843 0 1.53-0.686 1.53-1.529v-33.696c0-0.843-0.687-1.529-1.53-1.529z" fill="#fff"/></g><g transform="translate(427.42 573.51)"><path d="m0 0h-25.272c-0.912 0-1.654-0.742-1.654-1.654v-33.696c0-0.912 0.742-1.654 1.654-1.654h25.272c0.912 0 1.654 0.742 1.654 1.654v33.696c0 0.912-0.742 1.654-1.654 1.654m0-0.25c0.775 0 1.404-0.629 1.404-1.404v-33.696c0-0.775-0.629-1.404-1.404-1.404h-25.272c-0.775 0-1.404 0.629-1.404 1.404v33.696c0 0.775 0.629 1.404 1.404 1.404z"/></g><g transform="translate(402.15 537.23)"><path d="m0 0c-0.516 0-0.936 0.42-0.936 0.936v33.696c0 0.516 0.42 0.936 0.936 0.936h25.272c0.516 0 0.936-0.42 0.936-0.936v-33.696c0-0.516-0.42-0.936-0.936-0.936z" fill="#006f51"/></g><g transform="translate(411.98 567.92)"><path d="m0 0c-0.105 0.052-0.171 0.066-0.355 0.066h-0.775v-0.92h0.775c0.184 0 0.25 0.013 0.355 0.066 0.131 0.065 0.223 0.236 0.223 0.394 0 0.157-0.092 0.315-0.223 0.394m0.25-1.327c-0.171-0.079-0.395-0.131-0.684-0.131h-0.696v-1.629h-0.591v3.744h1.287c0.303 0 0.5-0.027 0.684-0.118 0.328-0.158 0.578-0.552 0.578-0.933 0-0.394-0.25-0.788-0.578-0.933" fill="#fff"/></g><g transform="translate(415.3 567.92)"><path d="m0 0c-0.092 0.052-0.145 0.066-0.342 0.066h-0.709v-0.92h0.709c0.184 0 0.25 0.013 0.342 0.066 0.145 0.079 0.237 0.236 0.237 0.394 0 0.157-0.092 0.315-0.237 0.394m0.263-3.087-0.605 1.629h-0.709v-1.629h-0.591v3.744h1.235c0.289 0 0.486-0.027 0.67-0.118 0.328-0.158 0.565-0.552 0.565-0.933 0-0.394-0.237-0.788-0.578-0.946l0.656-1.747z" fill="#fff"/></g><g transform="translate(422.22 565.06)"><path d="m0 0c-0.21-0.184-0.499-0.289-0.814-0.289-0.644 0-1.117 0.381-1.367 0.946l0.565 0.21c0.158-0.355 0.447-0.552 0.802-0.552 0.341 0 0.578 0.237 0.578 0.552 0 0.499-0.578 0.578-1.065 0.775-0.223 0.092-0.722 0.315-0.722 0.933 0 0.736 0.499 1.011 1.169 1.011 0.526 0 0.88-0.302 1.064-0.762l-0.525-0.157s-0.132 0.315-0.552 0.328c-0.276 0.013-0.604-0.092-0.578-0.433 0.052-0.697 1.813-0.237 1.813-1.708 0-0.342-0.131-0.644-0.368-0.854" fill="#fff"/></g><g transform="translate(425.33 565.06)"><path d="m0 0c-0.21-0.184-0.499-0.289-0.814-0.289-0.644 0-1.117 0.381-1.367 0.946l0.565 0.21c0.158-0.355 0.447-0.552 0.802-0.552 0.341 0 0.578 0.237 0.578 0.552 0 0.499-0.578 0.578-1.065 0.775-0.223 0.092-0.722 0.315-0.722 0.933 0 0.736 0.499 1.011 1.169 1.011 0.526 0 0.88-0.302 1.064-0.762l-0.525-0.157s-0.132 0.315-0.552 0.328c-0.276 0.013-0.604-0.092-0.578-0.433 0.053-0.696 1.813-0.237 1.813-1.708 0-0.342-0.131-0.644-0.368-0.854" fill="#fff"/></g><g transform="translate(408.64 564.84)"><path d="m0 0-0.604 1.248-0.605-1.248h-0.67l0.933 1.931-0.867 1.813h0.67l0.539-1.117 0.538 1.117h0.67l-0.88-1.813 0.946-1.931z" fill="#fff"/></g><g transform="translate(403.87 564.84)"><path d="m0 0v3.744h2.204v-0.591h-1.614v-0.92h1.089v-0.604h-1.089v-1.025h1.732v-0.604z" fill="#fff"/></g><g transform="translate(417.16 564.84)"><path d="m0 0v3.744h2.204v-0.591h-1.614v-0.92h1.089v-0.604h-1.089v-1.025h1.732v-0.604z" fill="#fff"/></g><g transform="translate(404.4 554.54)"><path d="m0 0v5.616h4.113v-1.005h-3.085v-1.044h1.681v-1.025h-1.681v-1.537h3.184v-1.005z" fill="#fff"/></g><path d="m417.8 560.16h1.011v-5.616h-1.011z" fill="#fff"/><g transform="translate(423.56 559.17)"><path d="m0 0v-4.631h-0.984v4.631h-1.614v0.985h4.212v-0.985z" fill="#fff"/></g><g transform="translate(414.09 554.54)"><path d="m0 0-1.267 1.99-1.247-1.99h-1.187l1.84 2.956-1.682 2.66h1.207l1.069-1.714 1.069 1.714h1.207l-1.662-2.66 1.84-2.956z" fill="#fff"/></g><g transform="translate(416.72 548.97)"><path d="m0 0-6.906 1.365c-0.111 0.021-0.231-0.011-0.317-0.097-0.085-0.085-0.117-0.205-0.096-0.315l1.365-6.907c0.013-0.067 0.045-0.13 0.097-0.182 0.137-0.137 0.359-0.137 0.496 0 0.02 0.02 0.038 0.043 0.052 0.066l1.478 2.457 5.295-5.791 1.986 1.986-5.791 5.295 2.457 1.478c0.023 0.014 0.046 0.032 0.066 0.052 0.137 0.137 0.137 0.359 0 0.497-0.052 0.051-0.115 0.083-0.182 0.096" fill="#fff"/></g></g><text transform="matrix(1 0 0 -1 82.584 654.62)" fill="black" font-family="Helvetica" font-size="9px"><tspan x="0 6.4980001 11.502 18.999001 24.003 26.504999 29.007 34.011002 36.513 39.014999 42.012001 47.015999 52.02" y="0">Ramp to I-76 </tspan><tspan x="-15.021 -10.017 -5.013 -0.51300001 1.989 6.993 11.997 17.000999 22.004999 27.009001 29.511 37.007999 42.012001 47.015999 52.02 57.023998 62.028 67.031998" y="9.9989996">eastbound managed </tspan><tspan x="-19.017 -17.018999 -12.015 -7.0110002 -2.007 0.495 5.4990001 8.4960003 10.998 13.5 16.497 21.500999 26.504999 29.007 34.011002 39.014999 43.514999 46.016998 51.021 56.025002 61.028999 66.032997 71.037003" y="19.997999">lane or I-76 eastbound </tspan><tspan x="-18.764999 -13.761 -8.757 -3.753 1.251 4.2480001 9.2519999 11.25 14.247 19.250999 24.254999 27.252001 32.256001 37.259998 41.759998 46.764 49.265999 51.264 56.268002 61.271999 66.276001" y="29.997">general-purpose lanes</tspan></text></g></svg>
