<?xml version="1.0" encoding="UTF-8"?>
<svg width="552.02" height="799.69" version="1.1" viewBox="0 0 552.02 799.69" xml:space="preserve" xmlns="http://www.w3.org/2000/svg"><defs><clipPath id="d"><path d="m101.02 100.06h436.96v642.94h-436.96z"/></clipPath><clipPath id="c"><path d="m101.02 100.06h436.96v642.94h-436.96z"/></clipPath><clipPath id="b"><path d="m101.02 100.06h436.96v642.94h-436.96z"/></clipPath><clipPath id="a"><path d="m101.02 100.06h436.96v642.94h-436.96z"/></clipPath></defs><g transform="matrix(1.3333 0 0 -1.3333 -149.31 938.56)"><g transform="translate(137.37 109.42)"><path d="m0 0-2.35-0.716 1.544-2.171-1.41-0.985-1.521 2.037-1.544-2.037-1.41 0.985 1.521 2.171-2.327 0.716 0.515 1.634 2.282-0.761v2.663h1.902v-2.663l2.261 0.761z"/></g><g fill="black" font-family="Helvetica"><text transform="matrix(1 0 0 -1 140.37 105.83)" font-size="8px"><tspan x="0 5.336 7.112 11.56 16.007999 18.232 20.007999 24.007999 26.232 30.68 32.456001 36.903999 41.352001 45.799999 48.464001 50.688 52.911999 57.360001 61.807999 66.255997 68.480003 70.704002 75.152 79.599998 81.823997 86.272003 88.935997 91.160004 93.384003 95.608002 102.272 106.72 111.168 115.616 117.84 119.616 124.064 128.51199 130.73599 135.18401 139.632 141.408 145.856 150.304 152.528 154.752 159.2 163.2 165.424 167.64799 172.09599 176.54401 178.76801 182.76801 184.54401 188.54401 192.992 195.216 199.664 201.888 204.112 206.336 210.784 215.23199 217.45599 221.90401 226.35201 229.192 231.416 235.416 237.64 242.088 246.536 249.37601 251.60001 259.15201 264.92801 271.15201 276.92801 283.15201 285.37601 292.64481 297.39041 302.5856 304.8096 308.8096 310.5856 315.0336 319.4816 321.7056 323.4816 327.4816 329.7056 333.7056 338.15359 342.60159 344.82559 347.48959 351.93759 353.71359 355.48959 357.26559 361.71359 366.16159" y="0">Sign is higher than the 5-ft mounting height as the size of the 42" x 30" WRONG WAY sign is controlling.</tspan></text><text transform="matrix(1 0 0 -1 227.37 408.79)" font-size="9.5px" font-weight="bold"><tspan x="0 5.8045001 11.609 15.3045 17.945499 23.227501 26.391001 29.554501 32.717999 35.359001 43.804501 49.609001 55.413502 61.217999 64.3815 67.022499 72.827003 78.6315 81.272499 87.077003 92.359001 95 100.8045 106.609 109.7725 112.4135 118.218 121.3815 124.0225 129.827 133.52251 136.1635 144.60899 149.89101 153.5865 158.8685 161.50951 166.7915 169.4325 175.237" y="0">For 7-ft mounting height of primary sign</tspan><tspan x="0 5.8045001 11.609 15.3045 17.945499 23.227501 26.391001 29.554501 32.717999 35.359001 43.804501 49.609001 55.413502 61.217999 64.3815 67.022499 72.827003 78.6315 81.272499 87.077003 92.359001 95 100.8045 106.609 109.7725 112.4135 118.218 121.3815 124.0225 129.827 133.52251 136.1635 144.60899 149.89101 153.5865 158.8685 161.50951 166.7915 169.4325 175.237" y="284.82901">For 5-ft mounting height of primary sign</tspan></text><text transform="matrix(1 0 0 -1 512.87 640.91)" font-size="8px"><tspan x="0 4.448 8.8959999" y="0">48"</tspan><tspan x="0 4.448 8.8959999" y="67.031998">18"</tspan><tspan x="0 4.448 8.8959999" y="115.416">30"</tspan><tspan x="0 4.448 8.8959999" y="181.696">36"</tspan><tspan x="-60.952 -56.504002 -52.056" y="-57.256001">48"</tspan></text></g><g transform="translate(506.68 691.31)"><path d="m0 0h8.739z" fill="#fff"/></g><g transform="translate(506.68 691.31)"><path d="m0 0h8.739" fill="none" stroke="#000" stroke-width=".5"/></g><g transform="translate(511.05 593.54)"><path d="m0 0v97.768z" fill="#fff"/></g><g transform="translate(511.05 686.88)"><path d="m0 0v-88.909" fill="none" stroke="#000" stroke-width=".5"/></g><g transform="translate(509.59 685.88)"><path d="M 0,0 1.453,5.42 2.905,0 Z"/></g><g transform="translate(509.59 598.96)"><path d="m0 0 1.453-5.42 1.452 5.42z"/></g><g transform="translate(506.68 593.54)"><path d="m0 0h8.74z" fill="#fff"/></g><g transform="translate(506.68 593.54)"><path d="m0 0h8.739" fill="none" stroke="#000" stroke-width=".5"/></g><g transform="translate(500.63 557.25)"><path d="m0 0h14.787z" fill="#fff"/></g><g transform="translate(500.63 557.25)"><path d="m0 0h14.787" fill="none" stroke="#000" stroke-width=".5"/></g><g transform="translate(511.05 557.25)"><path d="m0 0v36.288z" fill="#fff"/></g><g transform="translate(511.05 561.68)"><path d="m0 0v27.429" fill="none" stroke="#000" stroke-width=".5"/></g><g transform="translate(512.5 562.67)"><path d="m0 0-1.453-5.42-1.452 5.42z"/></g><g transform="translate(512.5 588.12)"><path d="m0 0-1.453 5.42-1.452-5.42z"/></g><g transform="translate(511.05 496.77)"><path d="m0 0v60.48z" fill="#fff"/></g><g transform="translate(511.05 552.82)"><path d="m0 0v-51.621" fill="none" stroke="#000" stroke-width=".5"/></g><g transform="translate(509.59 551.83)"><path d="M 0,0 1.453,5.42 2.905,0 Z"/></g><g transform="translate(509.59 502.19)"><path d="m0 0 1.453-5.42 1.452 5.42z"/></g><g transform="translate(500.63 496.77)"><path d="m0 0h14.788z" fill="#fff"/></g><g transform="translate(500.63 496.77)"><path d="m0 0h14.787" fill="none" stroke="#000" stroke-width=".5"/></g><g transform="translate(511.05 424.69)"><path d="m0 0v72.077z" fill="#fff"/></g><g transform="translate(511.05 429.12)"><path d="m0 0v63.217" fill="none" stroke="#000" stroke-width=".5"/></g><g transform="translate(512.5 430.11)"><path d="m0 0-1.453-5.42-1.452 5.42z"/></g><g transform="translate(512.5 491.35)"><path d="m0 0-1.453 5.42-1.452-5.42z"/></g><text transform="matrix(1 0 0 -1 460.76 564.12)" fill="black" font-family="Helvetica" font-size="8px"><tspan x="0 4.448 8.8959999" y="0">42"</tspan></text><path d="m459.32 424.19h-6.048v224.67h6.048z" fill="#fff"/><g transform="translate(459.32 424.19)"><path d="m0 0h-6.048v224.67h6.048z" fill="none" stroke="#000" stroke-miterlimit="10" stroke-width=".5"/></g><g clip-path="url(#d)"><g transform="translate(413.96 593.41)"><path d="m0 0c-3.403 0-6.173 2.77-6.173 6.173v84.672c0 3.404 2.77 6.173 6.173 6.173h84.672c3.403 0 6.173-2.769 6.173-6.173v-84.672c0-3.403-2.77-6.173-6.173-6.173z" fill="#fff"/></g><g transform="translate(498.63 690.56)"><path d="m0 0h-84.672c-3.473 0-6.298-2.825-6.298-6.298v-84.672c0-3.473 2.825-6.298 6.298-6.298h84.672c3.473 0 6.298 2.825 6.298 6.298v84.672c0 3.473-2.825 6.298-6.298 6.298m0-0.25c3.34 0 6.048-2.708 6.048-6.048v-84.672c0-3.34-2.708-6.048-6.048-6.048h-84.672c-3.34 0-6.048 2.708-6.048 6.048v84.672c0 3.34 2.708 6.048 6.048 6.048z"/></g><g transform="translate(416.78 633.86)"><path d="m0 0c-0.529 2.606-0.807 5.302-0.807 8.064s0.278 5.458 0.807 8.064h79.027c0.529-2.606 0.806-5.302 0.806-8.064s-0.277-5.458-0.806-8.064zm39.513 55.44c-26.165 0-47.376-21.211-47.376-47.376s21.211-47.376 47.376-47.376 47.376 21.211 47.376 47.376-21.211 47.376-47.376 47.376" fill="#c0311a"/></g><g transform="translate(430.41 666.22)"><path d="m0 0h-2.165v-8.233h2.03c1.76 0 2.338 2.132 2.338 4.409 0 1.083-0.308 3.824-2.203 3.824m-4.073-10.186v12.096h4.363c3.053 0 3.871-4.021 3.871-5.776 0-4.538-2.333-6.32-3.863-6.32z" fill="#fff"/></g><g transform="translate(441.31 657.77)"><path d="m0 0c1.303 0 2.362 1.235 2.362 4.309s-1.059 4.309-2.362 4.309-2.362-1.233-2.362-4.309c0-3.074 1.059-4.309 2.362-4.309m4.276 4.309c0-0.434 0.092-6.26-4.297-6.26-4.39 0-4.297 5.826-4.297 6.26s-0.093 6.258 4.297 6.258c4.389 0 4.297-5.824 4.297-6.258" fill="#fff"/></g><g transform="translate(459.59 664.22)"><path d="m0 0v-8.19h-1.908v12.095h1.908l4.415-7.724v7.724h1.911v-12.095h-1.698z" fill="#fff"/></g><g transform="translate(472.9 657.77)"><path d="m0 0c1.303 0 2.362 1.235 2.362 4.309s-1.059 4.309-2.362 4.309-2.362-1.233-2.362-4.309c0-3.074 1.059-4.309 2.362-4.309m4.276 4.309c0-0.434 0.092-6.259-4.297-6.259s-4.297 5.825-4.297 6.259-0.092 6.258 4.297 6.258 4.297-5.824 4.297-6.258" fill="#fff"/></g><g transform="translate(483.43 656.03)"><path d="m0 0h-1.919v10.398h-2.77v1.698h7.503v-1.698h-2.814z" fill="#fff"/></g><g transform="translate(432.93 627.81)"><path d="m0 0h7.121v-1.91h-5.213v-2.971h3.518v-1.952h-3.518v-3.311h5.594v-1.952h-7.502z" fill="#fff"/></g><g transform="translate(444.4 623.9)"><path d="m0 0v-8.19h-1.908v12.096h1.908l4.415-7.725v7.725h1.911v-12.096h-1.698z" fill="#fff"/></g><g transform="translate(457.23 615.71)"><path d="m0 0h-1.919v10.398h-2.77v1.698h7.503v-1.698h-2.814z" fill="#fff"/></g><g transform="translate(461.86 627.81)"><path d="m0 0h7.121v-1.91h-5.213v-2.971h3.518v-1.952h-3.518v-3.311h5.594v-1.952h-7.502z" fill="#fff"/></g><g transform="translate(475.73 622.93)"><path d="m0 0c1.518 0 1.757 1.095 1.757 1.485 0 0.527-0.395 1.486-1.665 1.486h-2.494v-2.971zm-2.402-1.95v-5.265h-1.909v12.096h4.376c2.773 0 3.605-2.218 3.605-3.398 0-0.449-0.167-2.218-1.878-3.028l2.132-5.67h-2.081l-1.952 5.265z" fill="#fff"/></g><g transform="translate(417.74 496.64)"><path d="m0 0c-2.153 0-3.905 1.752-3.905 3.905v52.92c0 2.154 1.752 3.905 3.905 3.905h77.111c2.154 0 3.906-1.751 3.906-3.905v-52.92c0-2.153-1.752-3.905-3.906-3.905z" fill="#fff"/></g><g transform="translate(494.85 557.5)"><path d="m0 0h-77.112c-2.222 0-4.03-1.808-4.03-4.03v-52.92c0-2.222 1.808-4.03 4.03-4.03h77.112c2.222 0 4.03 1.808 4.03 4.03v52.92c0 2.222-1.808 4.03-4.03 4.03m0-0.25c2.079 0 3.78-1.701 3.78-3.78v-52.92c0-2.079-1.701-3.78-3.78-3.78h-77.112c-2.079 0-3.78 1.701-3.78 3.78v52.92c0 2.079 1.701 3.78 3.78 3.78z"/></g><g transform="translate(417.74 498.28)"><path d="m0 0c-0.602 0-1.17 0.237-1.6 0.668-0.431 0.43-0.668 0.998-0.668 1.6v52.92c0 0.602 0.237 1.17 0.668 1.6 0.43 0.431 0.998 0.668 1.6 0.668h77.112c0.602 0 1.17-0.237 1.6-0.668 0.431-0.43 0.668-0.998 0.668-1.6v-52.92c0-0.602-0.237-1.17-0.668-1.6-0.43-0.431-0.998-0.668-1.6-0.668z" fill="#c0311a"/></g><g transform="translate(430.65 531.04)"><path d="m0 0-2.556 10.356-2.498-10.356h-2.272l-2.383 16.128h2.611l1.25-8.489 2.042 8.489h2.5l2.098-8.489 1.25 8.489h2.611l-2.385-16.128z" fill="#fff"/></g><g transform="translate(443.47 540.66)"><path d="m0 0c2.024 0 2.342 1.46 2.342 1.98 0 0.703-0.526 1.981-2.219 1.981h-3.326v-3.961zm-3.203-2.601v-7.019h-2.544v16.128h5.834c3.697 0 4.806-2.958 4.806-4.53 0-0.599-0.222-2.958-2.504-4.038l2.842-7.56h-2.774l-2.602 7.019z" fill="#fff"/></g><g transform="translate(456.88 533.36)"><path d="m0 0c1.738 0 3.149 1.647 3.149 5.746 0 4.098-1.411 5.745-3.149 5.745s-3.149-1.645-3.149-5.745c0-4.099 1.411-5.746 3.149-5.746m5.701 5.746c0-0.579 0.123-8.347-5.729-8.347s-5.729 7.768-5.729 8.347c0 0.578-0.123 8.344 5.729 8.344s5.729-7.766 5.729-8.344" fill="#fff"/></g><g transform="translate(468.68 541.96)"><path d="m0 0v-10.921h-2.544v16.128h2.544l5.886-10.299v10.299h2.549v-16.128h-2.264z" fill="#fff"/></g><g transform="translate(486.51 547.45)"><path d="m0 0c2.584 0 4.04-0.98 5.132-3.564l-2.433-0.96c-0.679 1.415-1.356 1.923-2.602 1.923-3.544 0-3.341-5.394-3.341-5.771 0-0.607-0.137-5.716 3-5.716 1.641 0 2.83 1.018 2.83 2.49v0.677h-2.943v2.549h5.487v-3.226c0-2.941-2.148-5.092-5.094-5.092-0.584 0-5.882-0.482-5.882 8.346 0 1.236 0.068 8.344 5.846 8.344" fill="#fff"/></g><g transform="translate(444.06 506.85)"><path d="m0 0-2.556 10.356-2.498-10.356h-2.272l-2.383 16.128h2.611l1.25-8.489 2.042 8.489h2.5l2.098-8.489 1.25 8.489h2.611l-2.385-16.128z" fill="#fff"/></g><g transform="translate(454.91 513.98)"><path d="m0 0h3.244l-1.595 4.526zm4.153-2.603h-5.064l-1.595-4.528h-2.731l5.578 16.128h2.562l5.576-16.128h-2.732z" fill="#fff"/></g><g transform="translate(472.61 506.85)"><path d="m0 0h-2.56v7.018l-5.687 9.11h3.072l3.867-6.225 3.925 6.225h3.013l-5.63-9.11z" fill="#fff"/></g><g transform="translate(407.91 692.31)"><path d="m0 0v8.739" fill="#fff" stroke="#000" stroke-width=".5"/></g><g transform="translate(407.91 696.67)"><path d="m0 0h96.768" fill="#fff"/></g><g transform="translate(412.34 696.67)"><path d="m0 0h87.909" fill="none" stroke="#000" stroke-width=".5"/></g><g transform="translate(413.33 695.22)"><path d="m0 0-5.42 1.453 5.42 1.452z"/></g><g transform="translate(499.26 695.22)"><path d="M 0,0 5.42,1.453 0,2.905 Z"/></g><g transform="translate(504.68 692.31)"><path d="m0 0v8.739" fill="#fff" stroke="#000" stroke-width=".5"/></g><g transform="translate(413.96 559.25)"><path d="m0 0v7.739" fill="#fff" stroke="#000" stroke-width=".5"/></g><g transform="translate(413.96 562.62)"><path d="m0 0h84.672" fill="#fff"/></g><g transform="translate(418.39 562.62)"><path d="m0 0h75.813" fill="none" stroke="#000" stroke-width=".5"/></g><g transform="translate(419.38 561.17)"><path d="m0 0-5.42 1.453 5.42 1.452z"/></g><g transform="translate(493.21 561.17)"><path d="M 0,0 5.42,1.453 0,2.905 Z"/></g><g transform="translate(498.63 559.25)"><path d="m0 0v7.739" fill="#fff" stroke="#000" stroke-width=".5"/></g></g><text transform="matrix(1 0 0 -1 363.61 628.31)" fill="black" font-family="Helvetica" font-size="8px"><tspan x="0 4.448 8.8959999" y="0">36"</tspan><tspan x="0 4.448 8.8959999" y="54.431999">18"</tspan><tspan x="0 4.448 8.8959999" y="102.816">30"</tspan><tspan x="0 4.448 8.8959999" y="169.09599">36"</tspan><tspan x="-54.903999 -50.456001 -46.007999" y="-44.944">36"</tspan></text><g transform="translate(351.37 666.11)"><path d="m0 0h14.787z" fill="#fff"/></g><g transform="translate(351.37 666.11)"><path d="m0 0h14.787" fill="none" stroke="#000" stroke-width=".5"/></g><g transform="translate(361.78 593.54)"><path d="m0 0v72.576z" fill="#fff"/></g><g transform="translate(361.78 661.68)"><path d="m0 0v-63.717" fill="none" stroke="#000" stroke-width=".5"/></g><g transform="translate(360.33 660.69)"><path d="M 0,0 1.453,5.42 2.905,0 Z"/></g><g transform="translate(360.33 598.96)"><path d="m0 0 1.453-5.42 1.452 5.42z"/></g><g transform="translate(361.78 593.54)"><path d="m0 0h-10.417 14.787z" fill="#fff"/></g><g transform="translate(351.37 593.54)"><path d="m0 0h14.787" fill="none" stroke="#000" stroke-width=".5"/></g><g transform="translate(357.41 557.25)"><path d="m0 0h8.739z" fill="#fff"/></g><g transform="translate(357.41 557.25)"><path d="m0 0h8.739" fill="none" stroke="#000" stroke-width=".5"/></g><g transform="translate(361.78 557.25)"><path d="m0 0v36.288z" fill="#fff"/></g><g transform="translate(361.78 561.68)"><path d="m0 0v27.429" fill="none" stroke="#000" stroke-width=".5"/></g><g transform="translate(363.24 562.67)"><path d="m0 0-1.453-5.42-1.452 5.42z"/></g><g transform="translate(363.24 588.12)"><path d="m0 0-1.453 5.42-1.452-5.42z"/></g><g transform="translate(361.78 496.77)"><path d="m0 0v60.48z" fill="#fff"/></g><g transform="translate(361.78 552.82)"><path d="m0 0v-51.621" fill="none" stroke="#000" stroke-width=".5"/></g><g transform="translate(360.33 551.83)"><path d="M 0,0 1.453,5.42 2.905,0 Z"/></g><g transform="translate(360.33 502.19)"><path d="m0 0 1.453-5.42 1.452 5.42z"/></g><g transform="translate(361.78 496.77)"><path d="m0 0h-4.369 8.739z" fill="#fff"/></g><g transform="translate(357.41 496.77)"><path d="m0 0h8.739" fill="none" stroke="#000" stroke-width=".5"/></g><g transform="translate(361.78 424.69)"><path d="m0 0v72.077z" fill="#fff"/></g><g transform="translate(361.78 429.12)"><path d="m0 0v63.217" fill="none" stroke="#000" stroke-width=".5"/></g><g transform="translate(363.24 430.11)"><path d="m0 0-1.453-5.42-1.452 5.42z"/></g><g transform="translate(363.24 491.35)"><path d="m0 0-1.453 5.42-1.452-5.42z"/></g><g transform="translate(276.79 668.11)"><path d="m0 0v7.018z" fill="#fff"/></g><g transform="translate(276.79 668.11)"><path d="m0 0v7.018" fill="none" stroke="#000" stroke-width=".5"/></g><g transform="translate(276.79 671.76)"><path d="m0 0h72.576z" fill="#fff"/></g><g transform="translate(281.22 671.76)"><path d="m0 0h63.717" fill="none" stroke="#000" stroke-width=".5"/></g><g transform="translate(282.21 670.31)"><path d="m0 0-5.42 1.453 5.42 1.452z"/></g><g transform="translate(343.94 670.31)"><path d="M 0,0 5.42,1.453 0,2.905 Z"/></g><g transform="translate(349.36 668.11)"><path d="m0 0v7.018z" fill="#fff"/></g><g transform="translate(349.37 668.11)"><path d="m0 0v7.018" fill="none" stroke="#000" stroke-width=".5"/></g><path d="m316.1 424.19h-6.048v224.67h6.048z" fill="#fff"/><g transform="translate(316.1 424.19)"><path d="m0 0h-6.048v224.67h6.048z" fill="none" stroke="#000" stroke-miterlimit="10" stroke-width=".5"/></g><g clip-path="url(#c)"><g transform="translate(281.32 593.41)"><path d="m0 0c-2.57 0-4.661 2.091-4.661 4.661v63.504c0 2.57 2.091 4.661 4.661 4.661h63.504c2.57 0 4.661-2.091 4.661-4.661v-63.504c0-2.57-2.091-4.661-4.661-4.661z" fill="#fff"/></g><g transform="translate(344.83 666.36)"><path d="m0 0h-63.504c-2.639 0-4.786-2.147-4.786-4.786v-63.504c0-2.639 2.147-4.786 4.786-4.786h63.504c2.639 0 4.786 2.147 4.786 4.786v63.504c0 2.639-2.147 4.786-4.786 4.786m0-0.25c2.495 0 4.536-2.041 4.536-4.536v-63.504c0-2.495-2.041-4.536-4.536-4.536h-63.504c-2.495 0-4.536 2.041-4.536 4.536v63.504c0 2.495 2.041 4.536 4.536 4.536z"/></g><g transform="translate(283.44 623.78)"><path d="m0 0c-0.397 1.954-0.605 3.977-0.605 6.048s0.208 4.094 0.605 6.048h59.27c0.396-1.954 0.605-3.977 0.605-6.048s-0.209-4.094-0.605-6.048zm29.635 41.328c-19.485 0-35.28-15.795-35.28-35.28s15.795-35.28 35.28-35.28c19.484 0 35.28 15.795 35.28 35.28s-15.796 35.28-35.28 35.28" fill="#c0311a"/></g><g transform="translate(291.51 649.4)"><path d="m0 0h-1.804v-6.861h1.692c1.466 0 1.948 1.777 1.948 3.674 0 0.903-0.257 3.187-1.836 3.187m-3.394-8.489v10.08h3.636c2.544 0 3.225-3.35 3.225-4.813 0-3.781-1.944-5.267-3.219-5.267z" fill="#fff"/></g><g transform="translate(300.59 642.36)"><path d="m0 0c1.086 0 1.968 1.029 1.968 3.591s-0.882 3.591-1.968 3.591-1.968-1.028-1.968-3.591c0-2.562 0.882-3.591 1.968-3.591m3.563 3.591c0-0.362 0.077-5.216-3.581-5.216-3.657 0-3.58 4.854-3.58 5.216s-0.077 5.215 3.58 5.215c3.658 0 3.581-4.853 3.581-5.215" fill="#fff"/></g><g transform="translate(315.82 647.74)"><path d="m0 0v-6.825h-1.59v10.08h1.59l3.679-6.438v6.438h1.593v-10.08h-1.415z" fill="#fff"/></g><g transform="translate(326.91 642.36)"><path d="m0 0c1.086 0 1.968 1.029 1.968 3.591s-0.882 3.591-1.968 3.591-1.968-1.028-1.968-3.591c0-2.562 0.882-3.591 1.968-3.591m3.563 3.591c0-0.362 0.077-5.216-3.581-5.216-3.657 0-3.581 4.854-3.581 5.216s-0.076 5.215 3.581 5.215c3.658 0 3.581-4.853 3.581-5.215" fill="#fff"/></g><g transform="translate(335.69 640.91)"><path d="m0 0h-1.599v8.665h-2.308v1.415h6.252v-1.415h-2.345z" fill="#fff"/></g><g transform="translate(293.61 618.74)"><path d="m0 0h5.934v-1.591h-4.344v-2.476h2.932v-1.627h-2.932v-2.759h4.662v-1.627h-6.252z" fill="#fff"/></g><g transform="translate(303.17 615.48)"><path d="m0 0v-6.825h-1.59v10.08h1.59l3.679-6.438v6.438h1.593v-10.08h-1.415z" fill="#fff"/></g><g transform="translate(313.86 608.66)"><path d="m0 0h-1.599v8.665h-2.308v1.415h6.252v-1.415h-2.345z" fill="#fff"/></g><g transform="translate(317.71 618.74)"><path d="m0 0h5.934v-1.591h-4.344v-2.476h2.932v-1.627h-2.932v-2.759h4.662v-1.627h-6.252z" fill="#fff"/></g><g transform="translate(329.27 614.67)"><path d="m0 0c1.265 0 1.464 0.912 1.464 1.237 0 0.44-0.329 1.239-1.387 1.239h-2.079v-2.476zm-2.002-1.625v-4.388h-1.59v10.08h3.646c2.311 0 3.004-1.848 3.004-2.831 0-0.374-0.139-1.848-1.565-2.524l1.777-4.725h-1.734l-1.627 4.388z" fill="#fff"/></g><g transform="translate(274.52 496.64)"><path d="m0 0c-2.153 0-3.905 1.752-3.905 3.905v52.92c0 2.154 1.752 3.905 3.905 3.905h77.111c2.154 0 3.906-1.751 3.906-3.905v-52.92c0-2.153-1.752-3.905-3.906-3.905z" fill="#fff"/></g><g transform="translate(351.63 557.5)"><path d="m0 0h-77.112c-2.222 0-4.03-1.808-4.03-4.03v-52.92c0-2.222 1.808-4.03 4.03-4.03h77.112c2.222 0 4.03 1.808 4.03 4.03v52.92c0 2.222-1.808 4.03-4.03 4.03m0-0.25c2.079 0 3.78-1.701 3.78-3.78v-52.92c0-2.079-1.701-3.78-3.78-3.78h-77.112c-2.079 0-3.78 1.701-3.78 3.78v52.92c0 2.079 1.701 3.78 3.78 3.78z"/></g><g transform="translate(274.52 498.28)"><path d="m0 0c-0.602 0-1.17 0.237-1.6 0.668-0.431 0.43-0.668 0.998-0.668 1.6v52.92c0 0.602 0.237 1.17 0.668 1.6 0.43 0.431 0.998 0.668 1.6 0.668h77.112c0.602 0 1.17-0.237 1.6-0.668 0.431-0.43 0.668-0.998 0.668-1.6v-52.92c0-0.602-0.237-1.17-0.668-1.6-0.43-0.431-0.998-0.668-1.6-0.668z" fill="#c0311a"/></g><g transform="translate(287.44 531.04)"><path d="m0 0-2.556 10.356-2.498-10.356h-2.272l-2.383 16.128h2.611l1.25-8.489 2.042 8.489h2.5l2.098-8.489 1.25 8.489h2.611l-2.385-16.128z" fill="#fff"/></g><g transform="translate(300.26 540.66)"><path d="m0 0c2.024 0 2.342 1.46 2.342 1.98 0 0.703-0.526 1.981-2.219 1.981h-3.326v-3.961zm-3.203-2.601v-7.019h-2.544v16.128h5.834c3.697 0 4.806-2.958 4.806-4.53 0-0.599-0.222-2.958-2.504-4.038l2.842-7.56h-2.774l-2.602 7.019z" fill="#fff"/></g><g transform="translate(313.67 533.36)"><path d="m0 0c1.738 0 3.149 1.647 3.149 5.746 0 4.098-1.411 5.745-3.149 5.745s-3.149-1.645-3.149-5.745c0-4.099 1.411-5.746 3.149-5.746m5.701 5.746c0-0.579 0.123-8.347-5.729-8.347s-5.729 7.768-5.729 8.347c0 0.578-0.123 8.344 5.729 8.344s5.729-7.766 5.729-8.344" fill="#fff"/></g><g transform="translate(325.46 541.96)"><path d="m0 0v-10.921h-2.544v16.128h2.544l5.886-10.299v10.299h2.549v-16.128h-2.264z" fill="#fff"/></g><g transform="translate(343.29 547.45)"><path d="m0 0c2.584 0 4.04-0.98 5.133-3.564l-2.434-0.96c-0.679 1.415-1.356 1.923-2.602 1.923-3.544 0-3.341-5.394-3.341-5.771 0-0.607-0.137-5.716 3-5.716 1.641 0 2.83 1.018 2.83 2.49v0.677h-2.943v2.549h5.488v-3.226c0-2.941-2.149-5.092-5.095-5.092-0.584 0-5.882-0.482-5.882 8.346 0 1.236 0.068 8.344 5.846 8.344" fill="#fff"/></g><g transform="translate(300.84 506.85)"><path d="m0 0-2.556 10.356-2.498-10.356h-2.272l-2.383 16.128h2.611l1.25-8.489 2.042 8.489h2.5l2.098-8.489 1.25 8.489h2.611l-2.385-16.128z" fill="#fff"/></g><g transform="translate(311.7 513.98)"><path d="m0 0h3.244l-1.595 4.526zm4.153-2.603h-5.064l-1.595-4.528h-2.731l5.578 16.128h2.562l5.576-16.128h-2.732z" fill="#fff"/></g><g transform="translate(329.39 506.85)"><path d="m0 0h-2.56v7.018l-5.687 9.11h3.072l3.867-6.225 3.925 6.225h3.013l-5.63-9.11z" fill="#fff"/></g></g><text transform="matrix(1 0 0 -1 317.55 564.12)" fill="black" font-family="Helvetica" font-size="8px"><tspan x="0 4.448 8.8959999" y="0">42"</tspan></text><g transform="translate(270.74 559.25)"><path d="m0 0v7.739z" fill="#fff"/></g><g transform="translate(270.74 559.25)"><path d="m0 0v7.739" fill="none" stroke="#000" stroke-width=".5"/></g><g transform="translate(270.74 562.62)"><path d="m0 0h84.672z" fill="#fff"/></g><g transform="translate(275.17 562.62)"><path d="m0 0h75.813" fill="none" stroke="#000" stroke-width=".5"/></g><g transform="translate(276.16 561.17)"><path d="m0 0-5.42 1.453 5.42 1.452z"/></g><g transform="translate(349.99 561.17)"><path d="M 0,0 5.42,1.453 0,2.905 Z"/></g><g transform="translate(355.41 559.25)"><path d="m0 0v7.739z" fill="#fff"/></g><g transform="translate(355.41 559.25)"><path d="m0 0v7.739" fill="none" stroke="#000" stroke-width=".5"/></g><text transform="matrix(1 0 0 -1 121.71 511.85)" fill="black" font-family="Helvetica" font-size="8px"><tspan x="0 4.448 6.6719999 8.8959999" y="0">7 ft</tspan><tspan x="-8.4399996 -5.776 -3.552 0.44800001 4.8959999 6.6719999 10.672 15.12 16.896" y="8.4960003">(typical)</tspan></text><g transform="translate(138.59 593.54)"><path d="m0 0h11.495z" fill="#fff"/></g><g transform="translate(138.59 593.54)"><path d="m0 0h11.495" fill="none" stroke="#000" stroke-width=".5"/></g><g transform="translate(143.04 424.69)"><path d="m0 0v168.84z" fill="#fff"/></g><g transform="translate(143.04 429.12)"><path d="m0 0v159.98" fill="none" stroke="#000" stroke-width=".5"/></g><g transform="translate(144.49 430.11)"><path d="m0 0-1.453-5.42-1.452 5.42z"/></g><g transform="translate(144.49 588.12)"><path d="m0 0-1.453 5.42-1.452-5.42z"/></g><text transform="matrix(1 0 0 -1 226.44 622.27)" fill="black" font-family="Helvetica" font-size="8px"><tspan x="0 4.448 8.8959999" y="0">30"</tspan><tspan x="0 4.448 8.8959999" y="54.431999">24"</tspan><tspan x="0 4.448 8.8959999" y="102.816">24"</tspan><tspan x="0 4.448 8.8959999" y="163.048">36"</tspan><tspan x="-48.48 -44.032001 -39.584" y="-38.896">30"</tspan></text><g transform="translate(214.57 654.02)"><path d="m0 0h14.418z" fill="#fff"/></g><g transform="translate(214.57 654.02)"><path d="m0 0h14.418" fill="none" stroke="#000" stroke-width=".5"/></g><g transform="translate(224.61 593.54)"><path d="m0 0v60.48z" fill="#fff"/></g><g transform="translate(224.61 649.59)"><path d="m0 0v-51.621" fill="none" stroke="#000" stroke-width=".5"/></g><g transform="translate(223.16 648.6)"><path d="M 0,0 1.453,5.42 2.905,0 Z"/></g><g transform="translate(223.16 598.96)"><path d="m0 0 1.453-5.42 1.452 5.42z"/></g><g transform="translate(224.61 593.54)"><path d="m0 0h-10.048 14.418z" fill="#fff"/></g><g transform="translate(214.57 593.54)"><path d="m0 0h14.418" fill="none" stroke="#000" stroke-width=".5"/></g><g transform="translate(220.61 545.15)"><path d="m0 0h8.37z" fill="#fff"/></g><g transform="translate(220.61 545.15)"><path d="m0 0h8.37" fill="none" stroke="#000" stroke-width=".5"/></g><g transform="translate(224.61 545.15)"><path d="m0 0v48.384z" fill="#fff"/></g><g transform="translate(224.61 549.58)"><path d="m0 0v39.525" fill="none" stroke="#000" stroke-width=".5"/></g><g transform="translate(226.07 550.57)"><path d="m0 0-1.453-5.42-1.452 5.42z"/></g><g transform="translate(226.07 588.12)"><path d="m0 0-1.453 5.42-1.452-5.42z"/></g><g transform="translate(224.61 496.77)"><path d="m0 0v48.384z" fill="#fff"/></g><g transform="translate(224.61 540.72)"><path d="m0 0v-39.525" fill="none" stroke="#000" stroke-width=".5"/></g><g transform="translate(223.16 539.73)"><path d="M 0,0 1.453,5.42 2.905,0 Z"/></g><g transform="translate(223.16 502.19)"><path d="m0 0 1.453-5.42 1.452 5.42z"/></g><g transform="translate(224.61 496.77)"><path d="m0 0h-4 8.37z" fill="#fff"/></g><g transform="translate(220.61 496.77)"><path d="m0 0h8.37" fill="none" stroke="#000" stroke-width=".5"/></g><g transform="translate(224.61 424.69)"><path d="m0 0v72.077z" fill="#fff"/></g><g transform="translate(224.61 429.12)"><path d="m0 0v63.217" fill="none" stroke="#000" stroke-width=".5"/></g><g transform="translate(226.07 430.11)"><path d="m0 0-1.453-5.42-1.452 5.42z"/></g><g transform="translate(226.07 491.35)"><path d="m0 0-1.453 5.42-1.452-5.42z"/></g><g transform="translate(152.09 656.02)"><path d="m0 0v7.018z" fill="#fff"/></g><g transform="translate(152.09 656.02)"><path d="m0 0v7.018" fill="none" stroke="#000" stroke-width=".5"/></g><g transform="translate(152.09 659.67)"><path d="m0 0h60.48z" fill="#fff"/></g><g transform="translate(156.52 659.67)"><path d="m0 0h51.621" fill="none" stroke="#000" stroke-width=".5"/></g><g transform="translate(157.51 658.21)"><path d="m0 0-5.42 1.453 5.42 1.452z"/></g><g transform="translate(207.15 658.21)"><path d="M 0,0 5.42,1.453 0,2.905 Z"/></g><g transform="translate(212.57 656.02)"><path d="m0 0v7.018z" fill="#fff"/></g><g transform="translate(212.57 656.02)"><path d="m0 0v7.018" fill="none" stroke="#000" stroke-width=".5"/></g><path d="m185.35 424.19h-6.048v224.67h6.048z" fill="#fff"/><g transform="translate(185.35 424.19)"><path d="m0 0h-6.048v224.67h6.048z" fill="none" stroke="#000" stroke-miterlimit="10" stroke-width=".5"/></g><g clip-path="url(#b)"><g transform="translate(155.87 593.41)"><path d="m0 0c-2.153 0-3.905 1.752-3.905 3.905v52.92c0 2.154 1.752 3.905 3.905 3.905h52.92c2.153 0 3.905-1.751 3.905-3.905v-52.92c0-2.153-1.752-3.905-3.905-3.905z" fill="#fff"/></g><g transform="translate(208.79 654.27)"><path d="m0 0h-52.92c-2.222 0-4.03-1.808-4.03-4.03v-52.92c0-2.222 1.808-4.03 4.03-4.03h52.92c2.222 0 4.03 1.808 4.03 4.03v52.92c0 2.222-1.808 4.03-4.03 4.03m0-0.25c2.079 0 3.78-1.701 3.78-3.78v-52.92c0-2.079-1.701-3.78-3.78-3.78h-52.92c-2.079 0-3.78 1.701-3.78 3.78v52.92c0 2.079 1.701 3.78 3.78 3.78z"/></g><g transform="translate(157.63 618.74)"><path d="m0 0c-0.331 1.628-0.504 3.314-0.504 5.04s0.173 3.411 0.504 5.04h49.391c0.331-1.629 0.505-3.314 0.505-5.04s-0.174-3.412-0.505-5.04zm24.696 34.272c-16.145 0-29.232-13.088-29.232-29.232s13.087-29.232 29.232-29.232c16.144 0 29.232 13.088 29.232 29.232s-13.088 29.232-29.232 29.232" fill="#c0311a"/></g><g transform="translate(165.07 639.64)"><path d="m0 0h-1.443v-5.489h1.353c1.174 0 1.559 1.422 1.559 2.94 0 0.721-0.206 2.549-1.469 2.549m-2.715-6.791v8.064h2.909c2.035 0 2.58-2.68 2.58-3.85 0-3.025-1.555-4.214-2.575-4.214z" fill="#fff"/></g><g transform="translate(172.34 634.01)"><path d="m0 0c0.869 0 1.574 0.824 1.574 2.873s-0.705 2.873-1.574 2.873-1.574-0.823-1.574-2.873c0-2.049 0.705-2.873 1.574-2.873m2.85 2.873c0-0.29 0.062-4.173-2.864-4.173s-2.865 3.883-2.865 4.173c0 0.289-0.061 4.172 2.865 4.172s2.864-3.883 2.864-4.172" fill="#fff"/></g><g transform="translate(184.52 638.31)"><path d="m0 0v-5.46h-1.272v8.064h1.272l2.943-5.15v5.15h1.274v-8.064h-1.132z" fill="#fff"/></g><g transform="translate(193.4 634.01)"><path d="m0 0c0.869 0 1.574 0.823 1.574 2.873 0 2.049-0.705 2.873-1.574 2.873s-1.574-0.823-1.574-2.873 0.705-2.873 1.574-2.873m2.85 2.873c0-0.29 0.062-4.173-2.864-4.173s-2.865 3.883-2.865 4.173c0 0.289-0.061 4.172 2.865 4.172s2.864-3.883 2.864-4.172" fill="#fff"/></g><g transform="translate(200.42 632.85)"><path d="m0 0h-1.279v6.932h-1.847v1.132h5.002v-1.132h-1.876z" fill="#fff"/></g><g transform="translate(166.75 614.71)"><path d="m0 0h4.747v-1.273h-3.475v-1.981h2.346v-1.301h-2.346v-2.208h3.729v-1.301h-5.001z" fill="#fff"/></g><g transform="translate(174.4 612.1)"><path d="m0 0v-5.46h-1.272v8.064h1.272l2.943-5.15v5.15h1.274v-8.064h-1.132z" fill="#fff"/></g><g transform="translate(182.95 606.64)"><path d="m0 0h-1.279v6.932h-1.847v1.132h5.002v-1.132h-1.876z" fill="#fff"/></g><g transform="translate(186.04 614.71)"><path d="m0 0h4.747v-1.273h-3.475v-1.981h2.346v-1.301h-2.346v-2.208h3.729v-1.301h-5.001z" fill="#fff"/></g><g transform="translate(195.28 611.45)"><path d="m0 0c1.012 0 1.171 0.73 1.171 0.99 0 0.352-0.263 0.991-1.11 0.991h-1.663v-1.981zm-1.602-1.3v-3.51h-1.272v8.064h2.917c1.849 0 2.403-1.479 2.403-2.265 0-0.3-0.111-1.479-1.252-2.019l1.422-3.78h-1.387l-1.302 3.51z" fill="#fff"/></g><g transform="translate(149.06 496.64)"><path d="m0 0c-1.736 0-3.149 1.413-3.149 3.149v42.336c0 1.737 1.413 3.149 3.149 3.149h66.528c1.736 0 3.149-1.412 3.149-3.149v-42.336c0-1.736-1.413-3.149-3.149-3.149z" fill="#fff"/></g><g transform="translate(215.59 545.4)"><path d="m0 0h-66.528c-1.805 0-3.274-1.469-3.274-3.274v-42.336c0-1.805 1.469-3.274 3.274-3.274h66.528c1.805 0 3.274 1.469 3.274 3.274v42.336c0 1.805-1.469 3.274-3.274 3.274m0-0.25c1.663 0 3.024-1.361 3.024-3.024v-42.336c0-1.663-1.361-3.024-3.024-3.024h-66.528c-1.663 0-3.024 1.361-3.024 3.024v42.336c0 1.663 1.361 3.024 3.024 3.024z"/></g><g transform="translate(149.06 497.78)"><path d="m0 0c-1.112 0-2.016 0.904-2.016 2.016v42.336c0 1.112 0.904 2.016 2.016 2.016h66.528c1.112 0 2.016-0.904 2.016-2.016v-42.336c0-1.112-0.904-2.016-2.016-2.016z" fill="#c0311a"/></g><g transform="translate(163.1 523.99)"><path d="m0 0-1.917 7.767-1.873-7.767h-1.704l-1.788 12.096h1.958l0.938-6.367 1.531 6.367h1.875l1.574-6.367 0.938 6.367h1.958l-1.789-12.096z" fill="#fff"/></g><g transform="translate(172.71 531.2)"><path d="m0 0c1.518 0 1.757 1.095 1.757 1.485 0 0.527-0.395 1.486-1.665 1.486h-2.495v-2.971zm-2.403-1.95v-5.265h-1.908v12.096h4.376c2.773 0 3.605-2.218 3.605-3.398 0-0.449-0.167-2.218-1.878-3.028l2.132-5.67h-2.081l-1.952 5.265z" fill="#fff"/></g><g transform="translate(182.77 525.72)"><path d="m0 0c1.303 0 2.362 1.235 2.362 4.309s-1.059 4.309-2.362 4.309-2.362-1.233-2.362-4.309c0-3.074 1.059-4.309 2.362-4.309m4.276 4.309c0-0.434 0.092-6.26-4.297-6.26s-4.297 5.826-4.297 6.26-0.092 6.258 4.297 6.258 4.297-5.824 4.297-6.258" fill="#fff"/></g><g transform="translate(191.62 532.18)"><path d="m0 0v-8.19h-1.908v12.096h1.908l4.415-7.725v7.725h1.911v-12.096h-1.698z" fill="#fff"/></g><g transform="translate(204.99 536.29)"><path d="m0 0c1.938 0 3.03-0.735 3.849-2.673l-1.824-0.72c-0.51 1.062-1.018 1.443-1.952 1.443-2.658 0-2.506-4.047-2.506-4.329 0-0.455-0.103-4.287 2.25-4.287 1.231 0 2.123 0.764 2.123 1.868v0.508h-2.208v1.911h4.116v-2.419c0-2.206-1.612-3.82-3.821-3.82-0.438 0-4.412-0.361-4.412 6.26 0 0.927 0.052 6.258 4.385 6.258" fill="#fff"/></g><g transform="translate(173.15 505.84)"><path d="m0 0-1.917 7.767-1.873-7.767h-1.704l-1.788 12.096h1.958l0.938-6.367 1.531 6.367h1.875l1.574-6.367 0.938 6.367h1.958l-1.789-12.096z" fill="#fff"/></g><g transform="translate(181.29 511.19)"><path d="m0 0h2.433l-1.196 3.394zm3.115-1.952h-3.798l-1.196-3.396h-2.049l4.184 12.096h1.921l4.182-12.096h-2.048z" fill="#fff"/></g><g transform="translate(194.56 505.84)"><path d="m0 0h-1.92v5.263l-4.265 6.833h2.304l2.9-4.669 2.944 4.669h2.26l-4.223-6.833z" fill="#fff"/></g></g><text transform="matrix(1 0 0 -1 186.98 552.02)" fill="black" font-family="Helvetica" font-size="8px"><tspan x="0 4.448 8.8959999" y="0">36"</tspan></text><g transform="translate(146.04 547.15)"><path d="m0 0v7.739z" fill="#fff"/></g><g transform="translate(146.04 547.15)"><path d="m0 0v7.739" fill="none" stroke="#000" stroke-width=".5"/></g><g transform="translate(146.04 550.52)"><path d="m0 0h72.576z" fill="#fff"/></g><g transform="translate(150.47 550.52)"><path d="m0 0h63.717" fill="none" stroke="#000" stroke-width=".5"/></g><g transform="translate(151.46 549.07)"><path d="m0 0-5.42 1.453 5.42 1.452z"/></g><g transform="translate(213.19 549.07)"><path d="M 0,0 5.42,1.453 0,2.905 Z"/></g><g transform="translate(218.61 547.15)"><path d="m0 0v7.739z" fill="#fff"/></g><g transform="translate(218.61 547.15)"><path d="m0 0v7.739" fill="none" stroke="#000" stroke-width=".5"/></g><g transform="translate(119.6 424.19)"><path d="m0 0h397.44" fill="none" stroke="#000" stroke-miterlimit="10"/></g><text transform="matrix(1 0 0 -1 119.94 202.68)" fill="black" font-family="Helvetica" font-size="8px"><tspan x="0 4.448 6.6719999 8.8959999" y="0">5 ft</tspan><tspan x="-8.4399996 -5.776 -3.552 0.44800001 4.8959999 6.6719999 10.672 15.12 16.896" y="8.4960003">(typical)</tspan></text><g transform="translate(141.36 139.71)"><path d="m0 0v120.46z" fill="#fff"/></g><g transform="translate(141.36 144.14)"><path d="m0 0v111.6" fill="none" stroke="#000" stroke-width=".5"/></g><g transform="translate(142.81 145.13)"><path d="m0 0-1.453-5.42-1.452 5.42z"/></g><g transform="translate(142.81 254.75)"><path d="m0 0-1.453 5.42-1.452-5.42z"/></g><text transform="matrix(1 0 0 -1 365.38 307.3)" fill="black" font-family="Helvetica" font-size="8px"><tspan x="0 4.448 8.8959999" y="0">36"</tspan><tspan x="0 4.448 8.8959999" y="66.655998">30"</tspan><tspan x="0 4.448 8.8959999" y="134.08">36"</tspan><tspan x="-54.903999 -50.456001 -46.007999" y="-43.944">36"</tspan></text><g transform="translate(359.18 345.09)"><path d="m0 0h8.739z" fill="#fff"/></g><g transform="translate(359.18 345.09)"><path d="m0 0h8.739" fill="none" stroke="#000" stroke-width=".5"/></g><g transform="translate(363.55 272.52)"><path d="m0 0v72.576z" fill="#fff"/></g><g transform="translate(363.55 340.66)"><path d="m0 0v-63.717" fill="none" stroke="#000" stroke-width=".5"/></g><g transform="translate(362.1 339.67)"><path d="M 0,0 1.453,5.42 2.905,0 Z"/></g><g transform="translate(362.1 277.94)"><path d="m0 0 1.453-5.42 1.452 5.42z"/></g><g transform="translate(363.55 211.79)"><path d="m0 0v60.73z" fill="#fff"/></g><g transform="translate(363.55 268.09)"><path d="m0 0v-51.871" fill="none" stroke="#000" stroke-width=".5"/></g><g transform="translate(362.1 267.1)"><path d="M 0,0 1.453,5.42 2.905,0 Z"/></g><g transform="translate(362.1 217.21)"><path d="m0 0 1.453-5.42 1.452 5.42z"/></g><g transform="translate(363.55 211.79)"><path d="m0 0h-4.37 8.739z" fill="#fff"/></g><g transform="translate(359.18 211.79)"><path d="m0 0h8.739" fill="none" stroke="#000" stroke-width=".5"/></g><g transform="translate(363.55 139.71)"><path d="m0 0v72.076z" fill="#fff"/></g><g transform="translate(363.55 144.14)"><path d="m0 0v63.217" fill="none" stroke="#000" stroke-width=".5"/></g><g transform="translate(365 145.13)"><path d="m0 0-1.453-5.42-1.452 5.42z"/></g><g transform="translate(365 206.37)"><path d="m0 0-1.453 5.42-1.452-5.42z"/></g><g transform="translate(278.56 345.37)"><path d="m0 0v8.739z" fill="#fff"/></g><g transform="translate(278.56 345.37)"><path d="m0 0v8.739" fill="none" stroke="#000" stroke-width=".5"/></g><g transform="translate(278.56 349.74)"><path d="m0 0h72.576z" fill="#fff"/></g><g transform="translate(282.99 349.74)"><path d="m0 0h63.717" fill="none" stroke="#000" stroke-width=".5"/></g><g transform="translate(283.98 348.29)"><path d="m0 0-5.42 1.453 5.42 1.452z"/></g><g transform="translate(345.71 348.29)"><path d="M 0,0 5.42,1.453 0,2.905 Z"/></g><g transform="translate(351.13 345.37)"><path d="m0 0v8.739z" fill="#fff"/></g><g transform="translate(351.13 345.37)"><path d="m0 0v8.739" fill="none" stroke="#000" stroke-width=".5"/></g><text transform="matrix(1 0 0 -1 228.58 289.03)" fill="black" font-family="Helvetica" font-size="8px"><tspan x="0 4.448 8.8959999" y="0">30"</tspan><tspan x="-0.472 3.9760001 8.4239998" y="54.560001">24"</tspan><tspan x="0 4.448 8.8959999" y="114.792">36"</tspan><tspan x="-48.855999 -44.408001 -39.959999" y="-38.768002">30"</tspan></text><g transform="translate(216.33 320.9)"><path d="m0 0h14.787z" fill="#fff"/></g><g transform="translate(216.34 320.9)"><path d="m0 0h14.787" fill="none" stroke="#000" stroke-width=".5"/></g><g transform="translate(226.75 260.17)"><path d="m0 0v60.73z" fill="#fff"/></g><g transform="translate(226.75 316.47)"><path d="m0 0v-51.871" fill="none" stroke="#000" stroke-width=".5"/></g><g transform="translate(225.3 315.48)"><path d="M 0,0 1.453,5.42 2.905,0 Z"/></g><g transform="translate(225.3 265.59)"><path d="m0 0 1.453-5.42 1.452 5.42z"/></g><g transform="translate(226.75 260.17)"><path d="m0 0h-4.37 8.739z" fill="#fff"/></g><g transform="translate(222.38 260.17)"><path d="m0 0h8.739" fill="none" stroke="#000" stroke-width=".5"/></g><g transform="translate(226.75 211.79)"><path d="m0 0v48.384z" fill="#fff"/></g><g transform="translate(226.75 255.74)"><path d="m0 0v-39.525" fill="none" stroke="#000" stroke-width=".5"/></g><g transform="translate(225.3 254.75)"><path d="M 0,0 1.453,5.42 2.905,0 Z"/></g><g transform="translate(225.3 217.21)"><path d="m0 0 1.453-5.42 1.452 5.42z"/></g><g transform="translate(226.75 211.79)"><path d="m0 0h-4.37 8.739z" fill="#fff"/></g><g transform="translate(222.38 211.79)"><path d="m0 0h8.739" fill="none" stroke="#000" stroke-width=".5"/></g><g transform="translate(226.75 139.71)"><path d="m0 0v72.076z" fill="#fff"/></g><g transform="translate(226.75 144.14)"><path d="m0 0v63.217" fill="none" stroke="#000" stroke-width=".5"/></g><g transform="translate(228.21 145.13)"><path d="m0 0-1.453-5.42-1.452 5.42z"/></g><g transform="translate(228.21 206.37)"><path d="m0 0-1.453 5.42-1.452-5.42z"/></g><g transform="translate(153.86 322.9)"><path d="m0 0v7.018z" fill="#fff"/></g><g transform="translate(153.86 322.9)"><path d="m0 0v7.018" fill="none" stroke="#000" stroke-width=".5"/></g><g transform="translate(153.86 326.55)"><path d="m0 0h60.48z" fill="#fff"/></g><g transform="translate(158.28 326.55)"><path d="m0 0h51.621" fill="none" stroke="#000" stroke-width=".5"/></g><g transform="translate(159.28 325.1)"><path d="m0 0-5.42 1.453 5.42 1.452z"/></g><g transform="translate(208.91 325.1)"><path d="M 0,0 5.42,1.453 0,2.905 Z"/></g><g transform="translate(214.34 322.9)"><path d="m0 0v7.018z" fill="#fff"/></g><g transform="translate(214.34 322.9)"><path d="m0 0v7.018" fill="none" stroke="#000" stroke-width=".5"/></g><text transform="matrix(1 0 0 -1 514.64 319.39)" fill="black" font-family="Helvetica" font-size="8px"><tspan x="0 4.448 8.8959999" y="0">48"</tspan><tspan x="0 4.448 8.8959999" y="78.872002">30"</tspan><tspan x="0 4.448 8.8959999" y="145.15199">36"</tspan><tspan x="-60.952 -56.504002 -52.056" y="-57.768002">48"</tspan></text><g transform="translate(508.45 369.54)"><path d="m0 0h8.739z" fill="#fff"/></g><g transform="translate(508.45 369.54)"><path d="m0 0h8.739" fill="none" stroke="#000" stroke-width=".5"/></g><g transform="translate(512.82 272.27)"><path d="m0 0v97.268z" fill="#fff"/></g><g transform="translate(512.82 365.11)"><path d="m0 0v-88.409" fill="none" stroke="#000" stroke-width=".5"/></g><g transform="translate(511.36 364.12)"><path d="M 0,0 1.453,5.42 2.905,0 Z"/></g><g transform="translate(511.36 277.69)"><path d="m0 0 1.453-5.42 1.452 5.42z"/></g><g transform="translate(512.82 272.27)"><path d="m0 0h-4.369 8.739z" fill="#fff"/></g><g transform="translate(508.45 272.27)"><path d="m0 0h8.739" fill="none" stroke="#000" stroke-width=".5"/></g><g transform="translate(512.82 211.79)"><path d="m0 0v60.48z" fill="#fff"/></g><g transform="translate(512.82 267.84)"><path d="m0 0v-51.621" fill="none" stroke="#000" stroke-width=".5"/></g><g transform="translate(511.36 266.85)"><path d="M 0,0 1.453,5.42 2.905,0 Z"/></g><g transform="translate(511.36 217.21)"><path d="m0 0 1.453-5.42 1.452 5.42z"/></g><g transform="translate(512.82 211.79)"><path d="m0 0h-10.417 14.787z" fill="#fff"/></g><g transform="translate(502.4 211.79)"><path d="m0 0h14.787" fill="none" stroke="#000" stroke-width=".5"/></g><g transform="translate(512.82 139.71)"><path d="m0 0v72.076z" fill="#fff"/></g><g transform="translate(512.82 144.14)"><path d="m0 0v63.217" fill="none" stroke="#000" stroke-width=".5"/></g><g transform="translate(514.27 145.13)"><path d="m0 0-1.453-5.42-1.452 5.42z"/></g><g transform="translate(514.27 206.37)"><path d="m0 0-1.453 5.42-1.452-5.42z"/></g><g transform="translate(409.68 371.29)"><path d="m0 0v8.739z" fill="#fff"/></g><g transform="translate(409.68 371.29)"><path d="m0 0v8.739" fill="none" stroke="#000" stroke-width=".5"/></g><g transform="translate(409.68 375.66)"><path d="m0 0h96.768z" fill="#fff"/></g><g transform="translate(414.11 375.66)"><path d="m0 0h87.909" fill="none" stroke="#000" stroke-width=".5"/></g><g transform="translate(415.1 374.2)"><path d="m0 0-5.42 1.453 5.42 1.452z"/></g><g transform="translate(501.03 374.2)"><path d="M 0,0 5.42,1.453 0,2.905 Z"/></g><g transform="translate(506.45 371.29)"><path d="m0 0v8.739z" fill="#fff"/></g><g transform="translate(506.45 371.29)"><path d="m0 0v8.739" fill="none" stroke="#000" stroke-width=".5"/></g><text transform="matrix(1 0 0 -1 462.53 197.53)" fill="black" font-family="Helvetica" font-size="8px"><tspan x="0 4.448 8.8959999 -274.08801 -269.64001 -265.19199" y="0">42"36"</tspan></text><g transform="translate(407.68 365.75)"><path d="m0 0-2.35-0.716 1.544-2.171-1.41-0.985-1.521 2.037-1.544-2.037-1.41 0.985 1.521 2.171-2.327 0.716 0.515 1.634 2.282-0.761v2.663h1.902v-2.663l2.261 0.761z"/></g><g transform="translate(276.56 341.56)"><path d="m0 0-2.35-0.716 1.544-2.171-1.41-0.985-1.521 2.037-1.544-2.037-1.41 0.985 1.521 2.171-2.327 0.716 0.514 1.634 2.283-0.761v2.663h1.902v-2.663l2.261 0.761z"/></g><g transform="translate(136.91 260.17)"><path d="m0 0h8.894z" fill="#fff"/></g><g transform="translate(136.91 260.17)"><path d="m0 0h8.894" fill="none" stroke="#000" stroke-width=".5"/></g><path d="m187.12 139.21h-6.048v161.07h6.048z" fill="#fff"/><g transform="translate(187.12 139.21)"><path d="m0 0h-6.048v161.07h6.048z" fill="none" stroke="#000" stroke-miterlimit="10" stroke-width=".5"/></g><path d="m317.87 139.21h-6.048v161.07h6.048z" fill="#fff"/><g transform="translate(317.87 139.21)"><path d="m0 0h-6.048v161.07h6.048z" fill="none" stroke="#000" stroke-miterlimit="10" stroke-width=".5"/></g><path d="m461.08 139.21h-6.048v161.07h6.048z" fill="#fff"/><g transform="translate(461.09 139.21)"><path d="m0 0h-6.048v161.07h6.048z" fill="none" stroke="#000" stroke-miterlimit="10" stroke-width=".5"/></g><g clip-path="url(#a)"><g transform="translate(157.64 260.3)"><path d="m0 0c-2.153 0-3.905 1.752-3.905 3.905v52.92c0 2.154 1.752 3.905 3.905 3.905h52.92c2.153 0 3.905-1.751 3.905-3.905v-52.92c0-2.153-1.752-3.905-3.905-3.905z" fill="#fff"/></g><g transform="translate(210.56 321.15)"><path d="m0 0h-52.92c-2.222 0-4.03-1.808-4.03-4.03v-52.92c0-2.222 1.808-4.03 4.03-4.03h52.92c2.222 0 4.03 1.808 4.03 4.03v52.92c0 2.222-1.808 4.03-4.03 4.03m0-0.25c2.079 0 3.78-1.701 3.78-3.78v-52.92c0-2.079-1.701-3.78-3.78-3.78h-52.92c-2.079 0-3.78 1.701-3.78 3.78v52.92c0 2.079 1.701 3.78 3.78 3.78z"/></g><g transform="translate(159.4 285.62)"><path d="m0 0c-0.331 1.629-0.504 3.314-0.504 5.04s0.173 3.412 0.504 5.04h49.391c0.331-1.628 0.505-3.314 0.505-5.04s-0.174-3.411-0.505-5.04zm24.696 34.272c-16.145 0-29.232-13.088-29.232-29.232s13.087-29.232 29.232-29.232c16.144 0 29.232 13.088 29.232 29.232s-13.088 29.232-29.232 29.232" fill="#c0311a"/></g><g transform="translate(166.84 306.53)"><path d="m0 0h-1.443v-5.489h1.353c1.174 0 1.559 1.422 1.559 2.94 0 0.722-0.206 2.549-1.469 2.549m-2.715-6.791v8.064h2.909c2.035 0 2.58-2.68 2.58-3.85 0-3.025-1.555-4.214-2.575-4.214z" fill="#fff"/></g><g transform="translate(174.11 300.89)"><path d="m0 0c0.869 0 1.574 0.824 1.574 2.873s-0.705 2.873-1.574 2.873-1.574-0.823-1.574-2.873c0-2.049 0.705-2.873 1.574-2.873m2.85 2.873c0-0.29 0.062-4.173-2.864-4.173s-2.865 3.883-2.865 4.173c0 0.289-0.061 4.172 2.865 4.172s2.864-3.883 2.864-4.172" fill="#fff"/></g><g transform="translate(186.29 305.19)"><path d="m0 0v-5.46h-1.272v8.064h1.272l2.943-5.15v5.15h1.274v-8.064h-1.132z" fill="#fff"/></g><g transform="translate(195.16 300.89)"><path d="m0 0c0.869 0 1.574 0.824 1.574 2.873s-0.705 2.873-1.574 2.873-1.574-0.823-1.574-2.873c0-2.049 0.705-2.873 1.574-2.873m2.85 2.873c0-0.29 0.062-4.173-2.864-4.173s-2.865 3.883-2.865 4.173c0 0.289-0.061 4.172 2.865 4.172s2.864-3.883 2.864-4.172" fill="#fff"/></g><g transform="translate(202.19 299.73)"><path d="m0 0h-1.279v6.932h-1.847v1.132h5.002v-1.132h-1.876z" fill="#fff"/></g><g transform="translate(168.52 281.59)"><path d="m0 0h4.747v-1.273h-3.475v-1.981h2.346v-1.301h-2.346v-2.208h3.729v-1.301h-5.001z" fill="#fff"/></g><g transform="translate(176.17 278.99)"><path d="m0 0v-5.46h-1.272v8.064h1.272l2.943-5.15v5.15h1.274v-8.064h-1.132z" fill="#fff"/></g><g transform="translate(184.72 273.53)"><path d="m0 0h-1.279v6.932h-1.847v1.132h5.002v-1.132h-1.876z" fill="#fff"/></g><g transform="translate(187.81 281.59)"><path d="m0 0h4.747v-1.273h-3.475v-1.981h2.346v-1.301h-2.346v-2.208h3.729v-1.301h-5.001z" fill="#fff"/></g><g transform="translate(197.05 278.34)"><path d="m0 0c1.012 0 1.171 0.73 1.171 0.99 0 0.352-0.263 0.991-1.11 0.991h-1.663v-1.981zm-1.602-1.3v-3.51h-1.272v8.064h2.917c1.849 0 2.403-1.479 2.403-2.265 0-0.3-0.111-1.479-1.252-2.019l1.422-3.78h-1.387l-1.302 3.51z" fill="#fff"/></g><g transform="translate(415.73 272.39)"><path d="m0 0c-3.403 0-6.173 2.77-6.173 6.173v84.672c0 3.403 2.77 6.173 6.173 6.173h84.672c3.404 0 6.174-2.77 6.174-6.173v-84.672c0-3.403-2.77-6.173-6.174-6.173z" fill="#fff"/></g><g transform="translate(500.4 369.54)"><path d="m0 0h-84.672c-3.473 0-6.298-2.825-6.298-6.298v-84.672c0-3.473 2.825-6.298 6.298-6.298h84.672c3.473 0 6.298 2.825 6.298 6.298v84.672c0 3.473-2.825 6.298-6.298 6.298m0-0.25c3.34 0 6.048-2.708 6.048-6.048v-84.672c0-3.34-2.708-6.048-6.048-6.048h-84.672c-3.34 0-6.048 2.708-6.048 6.048v84.672c0 3.34 2.708 6.048 6.048 6.048z"/></g><g transform="translate(418.55 312.84)"><path d="m0 0c-0.529 2.606-0.807 5.302-0.807 8.064s0.278 5.458 0.807 8.064h79.027c0.529-2.606 0.806-5.302 0.806-8.064s-0.277-5.458-0.806-8.064zm39.513 55.44c-26.165 0-47.376-21.211-47.376-47.376s21.211-47.376 47.376-47.376 47.376 21.211 47.376 47.376-21.211 47.376-47.376 47.376" fill="#c0311a"/></g><g transform="translate(432.18 345.2)"><path d="m0 0h-2.165v-8.233h2.03c1.76 0 2.338 2.132 2.338 4.409 0 1.083-0.308 3.824-2.203 3.824m-4.073-10.186v12.096h4.363c3.053 0 3.871-4.021 3.871-5.776 0-4.538-2.333-6.32-3.863-6.32z" fill="#fff"/></g><g transform="translate(443.08 336.75)"><path d="m0 0c1.303 0 2.362 1.235 2.362 4.309s-1.059 4.309-2.362 4.309-2.362-1.233-2.362-4.309c0-3.074 1.059-4.309 2.362-4.309m4.276 4.309c0-0.434 0.092-6.259-4.297-6.259-4.39 0-4.297 5.825-4.297 6.259s-0.093 6.258 4.297 6.258c4.389 0 4.297-5.824 4.297-6.258" fill="#fff"/></g><g transform="translate(461.36 343.2)"><path d="m0 0v-8.19h-1.908v12.095h1.908l4.415-7.724v7.724h1.911v-12.095h-1.698z" fill="#fff"/></g><g transform="translate(474.66 336.75)"><path d="m0 0c1.303 0 2.362 1.235 2.362 4.309s-1.059 4.309-2.362 4.309-2.362-1.233-2.362-4.309c0-3.074 1.059-4.309 2.362-4.309m4.276 4.309c0-0.434 0.092-6.259-4.297-6.259s-4.297 5.825-4.297 6.259-0.092 6.258 4.297 6.258 4.297-5.824 4.297-6.258" fill="#fff"/></g><g transform="translate(485.2 335.01)"><path d="m0 0h-1.919v10.398h-2.77v1.698h7.503v-1.698h-2.814z" fill="#fff"/></g><g transform="translate(434.7 306.79)"><path d="m0 0h7.121v-1.91h-5.213v-2.971h3.518v-1.952h-3.518v-3.311h5.594v-1.952h-7.502z" fill="#fff"/></g><g transform="translate(446.17 302.88)"><path d="m0 0v-8.19h-1.908v12.095h1.908l4.415-7.724v7.724h1.911v-12.095h-1.698z" fill="#fff"/></g><g transform="translate(459 294.69)"><path d="m0 0h-1.919v10.398h-2.77v1.698h7.503v-1.698h-2.814z" fill="#fff"/></g><g transform="translate(463.63 306.79)"><path d="m0 0h7.121v-1.91h-5.213v-2.971h3.518v-1.952h-3.518v-3.311h5.594v-1.952h-7.502z" fill="#fff"/></g><g transform="translate(477.5 301.91)"><path d="m0 0c1.518 0 1.757 1.095 1.757 1.485 0 0.527-0.395 1.486-1.665 1.486h-2.494v-2.971zm-2.402-1.95v-5.265h-1.909v12.096h4.376c2.773 0 3.605-2.218 3.605-3.398 0-0.449-0.167-2.218-1.878-3.028l2.132-5.67h-2.081l-1.952 5.265z" fill="#fff"/></g><g transform="translate(283.09 272.39)"><path d="m0 0c-2.57 0-4.661 2.091-4.661 4.661v63.504c0 2.57 2.091 4.661 4.661 4.661h63.503c2.571 0 4.662-2.091 4.662-4.661v-63.504c0-2.57-2.091-4.661-4.662-4.661z" fill="#fff"/></g><g transform="translate(346.6 345.34)"><path d="m0 0h-63.504c-2.639 0-4.786-2.147-4.786-4.786v-63.504c0-2.639 2.147-4.786 4.786-4.786h63.504c2.639 0 4.786 2.147 4.786 4.786v63.504c0 2.639-2.147 4.786-4.786 4.786m0-0.25c2.495 0 4.536-2.041 4.536-4.536v-63.504c0-2.495-2.041-4.536-4.536-4.536h-63.504c-2.495 0-4.536 2.041-4.536 4.536v63.504c0 2.495 2.041 4.536 4.536 4.536z"/></g><g transform="translate(285.21 302.76)"><path d="m0 0c-0.397 1.954-0.605 3.977-0.605 6.048s0.208 4.094 0.605 6.048h59.27c0.396-1.954 0.605-3.977 0.605-6.048s-0.209-4.094-0.605-6.048zm29.635 41.328c-19.485 0-35.28-15.795-35.28-35.28s15.795-35.28 35.28-35.28c19.484 0 35.28 15.795 35.28 35.28s-15.796 35.28-35.28 35.28" fill="#c0311a"/></g><g transform="translate(293.28 328.38)"><path d="m0 0h-1.804v-6.861h1.692c1.466 0 1.948 1.777 1.948 3.674 0 0.903-0.257 3.187-1.836 3.187m-3.394-8.489v10.08h3.636c2.544 0 3.225-3.35 3.225-4.813 0-3.781-1.944-5.267-3.219-5.267z" fill="#fff"/></g><g transform="translate(302.36 321.34)"><path d="m0 0c1.086 0 1.968 1.029 1.968 3.591s-0.882 3.591-1.968 3.591-1.968-1.028-1.968-3.591c0-2.562 0.882-3.591 1.968-3.591m3.563 3.591c0-0.362 0.077-5.216-3.581-5.216-3.657 0-3.58 4.854-3.58 5.216s-0.077 5.215 3.58 5.215c3.658 0 3.581-4.853 3.581-5.215" fill="#fff"/></g><g transform="translate(317.59 326.72)"><path d="m0 0v-6.825h-1.59v10.08h1.59l3.679-6.438v6.438h1.593v-10.08h-1.415z" fill="#fff"/></g><g transform="translate(328.68 321.34)"><path d="m0 0c1.086 0 1.968 1.029 1.968 3.591s-0.882 3.591-1.968 3.591-1.968-1.028-1.968-3.591c0-2.562 0.882-3.591 1.968-3.591m3.563 3.591c0-0.362 0.077-5.216-3.581-5.216-3.657 0-3.581 4.854-3.581 5.216s-0.076 5.215 3.581 5.215c3.658 0 3.581-4.853 3.581-5.215" fill="#fff"/></g><g transform="translate(337.46 319.89)"><path d="m0 0h-1.599v8.665h-2.308v1.415h6.252v-1.415h-2.345z" fill="#fff"/></g><g transform="translate(295.38 297.72)"><path d="m0 0h5.934v-1.591h-4.344v-2.476h2.932v-1.627h-2.932v-2.759h4.662v-1.627h-6.252z" fill="#fff"/></g><g transform="translate(304.94 294.46)"><path d="m0 0v-6.825h-1.59v10.08h1.59l3.679-6.438v6.438h1.593v-10.08h-1.415z" fill="#fff"/></g><g transform="translate(315.63 287.64)"><path d="m0 0h-1.599v8.665h-2.308v1.415h6.252v-1.415h-2.345z" fill="#fff"/></g><g transform="translate(319.48 297.72)"><path d="m0 0h5.934v-1.591h-4.344v-2.476h2.932v-1.627h-2.932v-2.759h4.662v-1.627h-6.252z" fill="#fff"/></g><g transform="translate(331.04 293.65)"><path d="m0 0c1.265 0 1.464 0.912 1.464 1.237 0 0.44-0.329 1.239-1.387 1.239h-2.079v-2.476zm-2.002-1.625v-4.388h-1.59v10.08h3.646c2.311 0 3.004-1.848 3.004-2.831 0-0.374-0.139-1.848-1.565-2.524l1.777-4.725h-1.734l-1.627 4.388z" fill="#fff"/></g><g transform="translate(276.29 211.66)"><path d="m0 0c-2.153 0-3.905 1.752-3.905 3.905v52.92c0 2.154 1.752 3.905 3.905 3.905h77.112c2.154 0 3.905-1.751 3.905-3.905v-52.92c0-2.153-1.751-3.905-3.905-3.905z" fill="#fff"/></g><g transform="translate(353.4 272.52)"><path d="m0 0h-77.112c-2.222 0-4.03-1.808-4.03-4.03v-52.92c0-2.222 1.808-4.03 4.03-4.03h77.112c2.222 0 4.03 1.808 4.03 4.03v52.92c0 2.222-1.808 4.03-4.03 4.03m0-0.25c2.079 0 3.78-1.701 3.78-3.78v-52.92c0-2.079-1.701-3.78-3.78-3.78h-77.112c-2.079 0-3.78 1.701-3.78 3.78v52.92c0 2.079 1.701 3.78 3.78 3.78z"/></g><g transform="translate(276.29 213.3)"><path d="m0 0c-0.602 0-1.17 0.237-1.6 0.668-0.431 0.43-0.668 0.998-0.668 1.6v52.92c0 0.602 0.237 1.17 0.668 1.6 0.43 0.431 0.998 0.668 1.6 0.668h77.112c0.602 0 1.17-0.237 1.6-0.668 0.431-0.43 0.668-0.998 0.668-1.6v-52.92c0-0.602-0.237-1.17-0.668-1.6-0.43-0.431-0.998-0.668-1.6-0.668z" fill="#c0311a"/></g><g transform="translate(289.21 246.06)"><path d="m0 0-2.556 10.356-2.498-10.356h-2.272l-2.383 16.128h2.611l1.25-8.489 2.042 8.489h2.5l2.098-8.489 1.25 8.489h2.611l-2.385-16.128z" fill="#fff"/></g><g transform="translate(302.03 255.68)"><path d="m0 0c2.024 0 2.342 1.46 2.342 1.98 0 0.703-0.526 1.981-2.219 1.981h-3.326v-3.961zm-3.203-2.601v-7.019h-2.544v16.128h5.834c3.697 0 4.806-2.958 4.806-4.53 0-0.599-0.222-2.958-2.504-4.038l2.842-7.56h-2.774l-2.602 7.019z" fill="#fff"/></g><g transform="translate(315.44 248.38)"><path d="m0 0c1.738 0 3.149 1.647 3.149 5.746 0 4.098-1.411 5.745-3.149 5.745s-3.149-1.645-3.149-5.745c0-4.099 1.411-5.746 3.149-5.746m5.701 5.746c0-0.579 0.123-8.347-5.729-8.347s-5.729 7.768-5.729 8.347c0 0.578-0.123 8.344 5.729 8.344s5.729-7.766 5.729-8.344" fill="#fff"/></g><g transform="translate(327.23 256.98)"><path d="m0 0v-10.921h-2.544v16.128h2.544l5.886-10.299v10.299h2.549v-16.128h-2.264z" fill="#fff"/></g><g transform="translate(345.06 262.47)"><path d="m0 0c2.584 0 4.04-0.98 5.133-3.564l-2.434-0.96c-0.679 1.415-1.356 1.923-2.602 1.923-3.544 0-3.341-5.394-3.341-5.771 0-0.607-0.137-5.716 3-5.716 1.641 0 2.83 1.018 2.83 2.49v0.677h-2.943v2.549h5.488v-3.226c0-2.941-2.149-5.092-5.095-5.092-0.584 0-5.882-0.482-5.882 8.346 0 1.236 0.068 8.344 5.846 8.344" fill="#fff"/></g><g transform="translate(302.61 221.87)"><path d="m0 0-2.556 10.356-2.498-10.356h-2.272l-2.383 16.128h2.611l1.25-8.489 2.042 8.489h2.5l2.098-8.489 1.25 8.489h2.611l-2.385-16.128z" fill="#fff"/></g><g transform="translate(313.47 229)"><path d="m0 0h3.244l-1.595 4.526zm4.153-2.603h-5.064l-1.595-4.528h-2.731l5.578 16.128h2.562l5.576-16.128h-2.732z" fill="#fff"/></g><g transform="translate(331.16 221.87)"><path d="m0 0h-2.56v7.018l-5.687 9.11h3.072l3.867-6.225 3.925 6.225h3.013l-5.63-9.11z" fill="#fff"/></g><g transform="translate(419.51 211.66)"><path d="m0 0c-2.153 0-3.905 1.752-3.905 3.905v52.92c0 2.154 1.752 3.905 3.905 3.905h77.112c2.154 0 3.905-1.751 3.905-3.905v-52.92c0-2.153-1.751-3.905-3.905-3.905z" fill="#fff"/></g><g transform="translate(496.62 272.52)"><path d="m0 0h-77.112c-2.222 0-4.03-1.808-4.03-4.03v-52.92c0-2.222 1.808-4.03 4.03-4.03h77.112c2.222 0 4.03 1.808 4.03 4.03v52.92c0 2.222-1.808 4.03-4.03 4.03m0-0.25c2.079 0 3.78-1.701 3.78-3.78v-52.92c0-2.079-1.701-3.78-3.78-3.78h-77.112c-2.079 0-3.78 1.701-3.78 3.78v52.92c0 2.079 1.701 3.78 3.78 3.78z"/></g><g transform="translate(419.51 213.3)"><path d="m0 0c-0.602 0-1.17 0.237-1.6 0.668-0.431 0.43-0.668 0.998-0.668 1.6v52.92c0 0.602 0.237 1.17 0.668 1.6 0.43 0.431 0.998 0.668 1.6 0.668h77.112c0.602 0 1.17-0.237 1.6-0.668 0.431-0.43 0.668-0.998 0.668-1.6v-52.92c0-0.602-0.237-1.17-0.668-1.6-0.43-0.431-0.998-0.668-1.6-0.668z" fill="#c0311a"/></g><g transform="translate(432.42 246.06)"><path d="m0 0-2.556 10.356-2.498-10.356h-2.272l-2.383 16.128h2.611l1.25-8.489 2.042 8.489h2.5l2.098-8.489 1.25 8.489h2.611l-2.385-16.128z" fill="#fff"/></g><g transform="translate(445.24 255.68)"><path d="m0 0c2.024 0 2.342 1.46 2.342 1.98 0 0.703-0.526 1.981-2.219 1.981h-3.326v-3.961zm-3.203-2.601v-7.019h-2.544v16.128h5.834c3.697 0 4.806-2.958 4.806-4.53 0-0.599-0.222-2.958-2.504-4.038l2.842-7.56h-2.774l-2.602 7.019z" fill="#fff"/></g><g transform="translate(458.65 248.38)"><path d="m0 0c1.738 0 3.149 1.647 3.149 5.746 0 4.098-1.411 5.745-3.149 5.745s-3.149-1.645-3.149-5.745c0-4.099 1.411-5.746 3.149-5.746m5.701 5.746c0-0.579 0.123-8.347-5.729-8.347s-5.729 7.768-5.729 8.347c0 0.578-0.123 8.344 5.729 8.344s5.729-7.766 5.729-8.344" fill="#fff"/></g><g transform="translate(470.45 256.98)"><path d="m0 0v-10.921h-2.544v16.128h2.544l5.886-10.299v10.299h2.549v-16.128h-2.264z" fill="#fff"/></g><g transform="translate(488.28 262.47)"><path d="m0 0c2.584 0 4.04-0.98 5.132-3.564l-2.433-0.96c-0.679 1.415-1.356 1.923-2.602 1.923-3.544 0-3.341-5.394-3.341-5.771 0-0.607-0.137-5.716 3-5.716 1.641 0 2.83 1.018 2.83 2.49v0.677h-2.943v2.549h5.487v-3.226c0-2.941-2.148-5.092-5.094-5.092-0.584 0-5.882-0.482-5.882 8.346 0 1.236 0.068 8.344 5.846 8.344" fill="#fff"/></g><g transform="translate(445.82 221.87)"><path d="m0 0-2.556 10.356-2.498-10.356h-2.272l-2.383 16.128h2.611l1.25-8.489 2.042 8.489h2.5l2.098-8.489 1.25 8.489h2.611l-2.385-16.128z" fill="#fff"/></g><g transform="translate(456.68 229)"><path d="m0 0h3.244l-1.595 4.526zm4.153-2.603h-5.064l-1.595-4.528h-2.731l5.578 16.128h2.562l5.576-16.128h-2.732z" fill="#fff"/></g><g transform="translate(474.38 221.87)"><path d="m0 0h-2.56v7.018l-5.687 9.11h3.072l3.867-6.225 3.925 6.225h3.013l-5.63-9.11z" fill="#fff"/></g><g transform="translate(150.83 211.66)"><path d="m0 0c-1.736 0-3.149 1.413-3.149 3.149v42.336c0 1.737 1.413 3.149 3.149 3.149h66.528c1.737 0 3.149-1.412 3.149-3.149v-42.336c0-1.736-1.412-3.149-3.149-3.149z" fill="#fff"/></g><g transform="translate(217.36 260.42)"><path d="m0 0h-66.528c-1.805 0-3.274-1.469-3.274-3.274v-42.336c0-1.805 1.469-3.274 3.274-3.274h66.528c1.805 0 3.274 1.469 3.274 3.274v42.336c0 1.805-1.469 3.274-3.274 3.274m0-0.25c1.663 0 3.024-1.361 3.024-3.024v-42.336c0-1.663-1.361-3.024-3.024-3.024h-66.528c-1.663 0-3.024 1.361-3.024 3.024v42.336c0 1.663 1.361 3.024 3.024 3.024z"/></g><g transform="translate(150.83 212.8)"><path d="m0 0c-1.112 0-2.016 0.904-2.016 2.016v42.336c0 1.112 0.904 2.016 2.016 2.016h66.528c1.112 0 2.016-0.904 2.016-2.016v-42.336c0-1.112-0.904-2.016-2.016-2.016z" fill="#c0311a"/></g><g transform="translate(164.87 239)"><path d="m0 0-1.917 7.767-1.873-7.767h-1.704l-1.788 12.096h1.958l0.938-6.367 1.531 6.367h1.875l1.574-6.367 0.938 6.367h1.958l-1.789-12.096z" fill="#fff"/></g><g transform="translate(174.48 246.22)"><path d="m0 0c1.518 0 1.757 1.095 1.757 1.485 0 0.527-0.395 1.486-1.665 1.486h-2.495v-2.971zm-2.403-1.95v-5.265h-1.908v12.096h4.376c2.773 0 3.605-2.218 3.605-3.398 0-0.449-0.167-2.218-1.878-3.028l2.132-5.67h-2.081l-1.952 5.265z" fill="#fff"/></g><g transform="translate(184.54 240.74)"><path d="m0 0c1.303 0 2.362 1.235 2.362 4.309s-1.059 4.309-2.362 4.309-2.362-1.233-2.362-4.309c0-3.074 1.059-4.309 2.362-4.309m4.276 4.309c0-0.434 0.092-6.259-4.297-6.259s-4.297 5.825-4.297 6.259-0.092 6.258 4.297 6.258 4.297-5.824 4.297-6.258" fill="#fff"/></g><g transform="translate(193.38 247.19)"><path d="m0 0v-8.19h-1.908v12.095h1.908l4.415-7.724v7.724h1.911v-12.095h-1.698z" fill="#fff"/></g><g transform="translate(206.76 251.31)"><path d="m0 0c1.938 0 3.03-0.735 3.849-2.673l-1.824-0.72c-0.51 1.062-1.018 1.443-1.952 1.443-2.658 0-2.506-4.047-2.506-4.329 0-0.455-0.103-4.287 2.25-4.287 1.231 0 2.123 0.764 2.123 1.867v0.509h-2.208v1.911h4.116v-2.42c0-2.206-1.612-3.819-3.821-3.819-0.438 0-4.412-0.361-4.412 6.26 0 0.927 0.052 6.258 4.385 6.258" fill="#fff"/></g><g transform="translate(174.92 220.86)"><path d="m0 0-1.917 7.767-1.873-7.767h-1.704l-1.788 12.096h1.958l0.938-6.367 1.531 6.367h1.875l1.574-6.367 0.938 6.367h1.958l-1.789-12.096z" fill="#fff"/></g><g transform="translate(183.06 226.21)"><path d="m0 0h2.433l-1.196 3.394zm3.115-1.952h-3.798l-1.196-3.396h-2.049l4.184 12.096h1.921l4.182-12.096h-2.048z" fill="#fff"/></g><g transform="translate(196.33 220.86)"><path d="m0 0h-1.92v5.263l-4.265 6.833h2.304l2.9-4.669 2.944 4.669h2.26l-4.223-6.833z" fill="#fff"/></g><g transform="translate(147.81 201.05)"><path d="m0 0v8.739" fill="#fff" stroke="#000" stroke-width=".5"/></g><g transform="translate(147.81 205.42)"><path d="m0 0h72.576" fill="#fff"/></g><g transform="translate(152.24 205.42)"><path d="m0 0h63.717" fill="none" stroke="#000" stroke-width=".5"/></g><g transform="translate(153.23 203.97)"><path d="m0 0-5.42 1.453 5.42 1.452z"/></g><g transform="translate(214.96 203.97)"><path d="M 0,0 5.42,1.453 0,2.905 Z"/></g><g transform="translate(220.38 201.05)"><path d="m0 0v8.739" fill="#fff" stroke="#000" stroke-width=".5"/></g><g transform="translate(353.13 345.09)"><path d="m0 0h14.787" fill="#fff" stroke="#000" stroke-width=".5"/></g><g transform="translate(359.18 272.52)"><path d="m0 0h8.739" fill="#fff" stroke="#000" stroke-width=".5"/></g><g transform="translate(415.73 201.05)"><path d="m0 0v8.739" fill="#fff" stroke="#000" stroke-width=".5"/></g><g transform="translate(415.73 205.42)"><path d="m0 0h84.672" fill="#fff"/></g><g transform="translate(420.16 205.42)"><path d="m0 0h75.813" fill="none" stroke="#000" stroke-width=".5"/></g><g transform="translate(421.15 203.97)"><path d="m0 0-5.42 1.453 5.42 1.452z"/></g><g transform="translate(494.98 203.97)"><path d="M 0,0 5.42,1.453 0,2.905 Z"/></g><g transform="translate(500.4 201.05)"><path d="m0 0v8.739" fill="#fff" stroke="#000" stroke-width=".5"/></g></g><text transform="matrix(1 0 0 -1 319.32 197.53)" fill="black" font-family="Helvetica" font-size="8px"><tspan x="0 4.448 8.8959999" y="0">42"</tspan></text><g transform="translate(272.51 201.05)"><path d="m0 0v8.739z" fill="#fff"/></g><g transform="translate(272.51 201.05)"><path d="m0 0v8.739" fill="none" stroke="#000" stroke-width=".5"/></g><g transform="translate(272.51 205.42)"><path d="m0 0h84.672z" fill="#fff"/></g><g transform="translate(276.94 205.42)"><path d="m0 0h75.813" fill="none" stroke="#000" stroke-width=".5"/></g><g transform="translate(277.93 203.97)"><path d="m0 0-5.42 1.453 5.42 1.452z"/></g><g transform="translate(351.76 203.97)"><path d="M 0,0 5.42,1.453 0,2.905 Z"/></g><g transform="translate(357.18 201.05)"><path d="m0 0v8.739z" fill="#fff"/></g><g transform="translate(357.18 201.05)"><path d="m0 0v8.739" fill="none" stroke="#000" stroke-width=".5"/></g><g transform="translate(121.37 139.21)"><path d="m0 0h397.44" fill="none" stroke="#000" stroke-miterlimit="10"/></g></g></svg>
