<?xml version="1.0" encoding="UTF-8"?>
<svg width="672.58" height="740.92" version="1.1" viewBox="0 0 672.58 740.92" xml:space="preserve" xmlns="http://www.w3.org/2000/svg"><defs><clipPath id="u"><path d="m66.854 39h505.29v587.97h-505.29z"/></clipPath><clipPath id="t"><path d="m66.854 39h505.29v587.97h-505.29z"/></clipPath><clipPath id="s"><path d="m66.854 39h505.29v587.97h-505.29z"/></clipPath><clipPath id="r"><path d="m66.854 39h505.29v587.97h-505.29z"/></clipPath><clipPath id="q"><path d="m66.854 39h505.29v587.97h-505.29z"/></clipPath><clipPath id="p"><path d="m66.854 39h505.29v587.97h-505.29z"/></clipPath><clipPath id="o"><path d="m66.854 39h505.29v587.97h-505.29z"/></clipPath><clipPath id="n"><path d="m66.854 39h505.29v587.97h-505.29z"/></clipPath><clipPath id="m"><path d="m66.854 39h505.29v587.97h-505.29z"/></clipPath><clipPath id="l"><path d="m66.854 39h505.29v587.97h-505.29z"/></clipPath><clipPath id="k"><path d="m66.854 39h505.29v587.97h-505.29z"/></clipPath><clipPath id="j"><path d="m66.854 39h505.29v587.97h-505.29z"/></clipPath><clipPath id="i"><path d="m66.854 39h505.29v587.97h-505.29z"/></clipPath><clipPath id="h"><path d="m66.854 39h505.29v587.97h-505.29z"/></clipPath><clipPath id="g"><path d="m66.854 39h505.29v587.97h-505.29z"/></clipPath><clipPath id="f"><path d="m66.854 39h505.29v587.97h-505.29z"/></clipPath><clipPath id="e"><path d="m66.854 39h505.29v587.97h-505.29z"/></clipPath><clipPath id="d"><path d="m66.854 39h505.29v587.97h-505.29z"/></clipPath><clipPath id="c"><path d="m66.854 39h505.29v587.97h-505.29z"/></clipPath><clipPath id="b"><path d="m66.854 39h505.29v587.97h-505.29z"/></clipPath><clipPath id="a"><path d="m66.854 39h505.29v587.97h-505.29z"/></clipPath></defs><g transform="matrix(1.3333 0 0 -1.3333 -89.686 801.43)"><text transform="matrix(1 0 0 -1 99.962 501.71)" fill="black" font-family="Helvetica" font-size="9px"><tspan x="0 8.4960003 13.5 16.497" y="0">W5-1</tspan></text><g clip-path="url(#u)"><g transform="translate(110.71 514.32)"><path d="m0 0c-1.092 0-2.118 0.425-2.891 1.197l-39.226 39.227c-0.773 0.772-1.197 1.799-1.197 2.891 0 1.091 0.424 2.118 1.197 2.89l39.226 39.227c0.773 0.772 1.799 1.197 2.891 1.197s2.118-0.425 2.89-1.197l39.227-39.227c0.772-0.772 1.197-1.799 1.197-2.89 0-1.092-0.425-2.119-1.197-2.891l-39.227-39.227c-0.772-0.772-1.798-1.197-2.89-1.197" fill="#ffd046"/></g><g transform="translate(110.71 601.07)"><path d="m0 0c-1.125 0-2.183-0.438-2.979-1.234l-39.227-39.227c-0.795-0.795-1.233-1.853-1.233-2.979 0-1.125 0.438-2.182 1.233-2.978l39.227-39.227c0.796-0.796 1.854-1.234 2.979-1.234s2.183 0.438 2.979 1.234l39.227 39.227c0.795 0.796 1.233 1.853 1.233 2.978 0 1.126-0.438 2.184-1.233 2.979l-39.227 39.227c-0.796 0.796-1.854 1.234-2.979 1.234m0-0.25c1.014 0 2.028-0.387 2.802-1.161l39.227-39.227c1.547-1.547 1.547-4.056 0-5.603l-39.227-39.227c-0.774-0.774-1.788-1.161-2.802-1.161s-2.028 0.387-2.802 1.161l-39.227 39.227c-1.547 1.547-1.547 4.056 0 5.603l39.227 39.227c0.774 0.774 1.788 1.161 2.802 1.161"/></g><g transform="translate(69.462 555.61)"><path d="m0 0c-1.116 1.116-1.116 2.931 0 4.047l39.227 39.227c1.116 1.116 2.931 1.116 4.047 0l39.227-39.227c1.116-1.116 1.116-2.931 0-4.047l-39.227-39.227c-1.116-1.116-2.931-1.116-4.047 0z"/></g><g transform="translate(70.552 556.7)"><path d="m0 0c-0.515 0.515-0.515 1.353 0 1.868l39.227 39.227c0.515 0.515 1.353 0.515 1.868 0l39.227-39.227c0.515-0.515 0.515-1.353 0-1.868l-39.227-39.227c-0.515-0.515-1.353-0.515-1.868 0z" fill="#ffd046"/></g><g transform="translate(96.766 573.62)"><path d="m0 0c1.326 0 1.535 0.956 1.535 1.297 0 0.461-0.345 1.299-1.454 1.299h-2.18v-2.596zm-2.099-1.704v-4.599h-1.667v10.567h3.823c2.422 0 3.149-1.938 3.149-2.968 0-0.392-0.146-1.938-1.641-2.646l1.862-4.953h-1.817l-1.705 4.599z"/></g><g transform="translate(105.55 568.83)"><path d="m0 0c1.138 0 2.063 1.079 2.063 3.764 0 2.686-0.925 3.765-2.063 3.765-1.139 0-2.063-1.078-2.063-3.765 0-2.685 0.924-3.764 2.063-3.764m3.735 3.764c0-0.379 0.081-5.468-3.754-5.468-3.834 0-3.753 5.089-3.753 5.468s-0.081 5.467 3.753 5.467c3.835 0 3.754-5.088 3.754-5.467"/></g><g transform="translate(114.09 571.99)"><path d="m0 0h2.125l-1.045 2.965zm2.721-1.705h-3.318l-1.045-2.967h-1.789l3.654 10.567h1.679l3.653-10.567h-1.789z"/></g><g transform="translate(124.79 576.21)"><path d="m0 0h-1.891v-7.192h1.773c1.538 0 2.042 1.862 2.042 3.852 0 0.945-0.269 3.34-1.924 3.34m-3.558-8.898v10.566h3.812c2.666 0 3.381-3.512 3.381-5.045 0-3.964-2.038-5.521-3.375-5.521z"/></g><g transform="translate(80.655 557.74)"><path d="m0 0v-7.155h-1.667v10.567h1.667l3.857-6.748v6.748h1.669v-10.567h-1.483z"/></g><g transform="translate(91.198 555.26)"><path d="m0 0h2.125l-1.044 2.965zm2.721-1.705h-3.318l-1.045-2.967h-1.789l3.654 10.567h1.679l3.653-10.567h-1.789z"/></g><g transform="translate(102.1 556.89)"><path d="m0 0c1.326 0 1.535 0.956 1.535 1.297 0 0.461-0.345 1.298-1.455 1.298h-2.179v-2.595zm-2.099-1.704v-4.599h-1.667v10.567h3.823c2.422 0 3.148-1.938 3.148-2.968 0-0.393-0.145-1.938-1.64-2.646l1.862-4.953h-1.817l-1.705 4.599z"/></g><g transform="translate(111.09 556.89)"><path d="m0 0c1.326 0 1.535 0.956 1.535 1.297 0 0.461-0.345 1.298-1.454 1.298h-2.18v-2.595zm-2.099-1.704v-4.599h-1.667v10.567h3.823c2.422 0 3.149-1.938 3.149-2.968 0-0.393-0.146-1.938-1.641-2.646l1.862-4.953h-1.817l-1.705 4.599z"/></g><g transform="translate(119.88 552.1)"><path d="m0 0c1.138 0 2.063 1.079 2.063 3.764 0 2.686-0.925 3.765-2.063 3.765-1.139 0-2.063-1.078-2.063-3.765 0-2.685 0.924-3.764 2.063-3.764m3.735 3.764c0-0.379 0.081-5.468-3.754-5.468-3.834 0-3.753 5.089-3.753 5.468s-0.081 5.467 3.753 5.467c3.835 0 3.754-5.088 3.754-5.467"/></g><g transform="translate(131.35 550.59)"><path d="m0 0-1.675 6.785-1.636-6.785h-1.489l-1.561 10.567h1.71l0.819-5.562 1.338 5.562h1.638l1.375-5.562 0.819 5.562h1.71l-1.562-10.567z"/></g><g transform="translate(135.24 553.07)"><path d="m0 0 1.594 0.593c0.445-1.001 1.26-1.557 2.261-1.557 0.965 0 1.633 0.667 1.633 1.557 0 1.413-1.631 1.631-3.004 2.187-0.63 0.261-2.039 0.891-2.039 2.633 0 2.078 1.408 2.853 3.299 2.853 1.484 0 2.485-0.853 3.004-2.15l-1.483-0.446c-0.167 0.418-0.77 0.928-1.558 0.928-1.507 0-1.635-0.805-1.635-1.069 0-0.988 0.852-1.183 2.238-1.618 1.41-0.444 2.883-1.092 2.883-3.358 0-2.281-1.849-3.222-3.338-3.222-1.817 0-3.151 1.075-3.855 2.669"/></g></g><text transform="matrix(1 0 0 -1 204.33 501.71)" fill="black" font-family="Helvetica" font-size="9px"><tspan x="0 8.4960003 13.5 16.497" y="0">W5-2</tspan></text><g clip-path="url(#t)"><g transform="translate(215.08 514.32)"><path d="m0 0c-1.092 0-2.118 0.425-2.89 1.197l-39.227 39.227c-1.594 1.594-1.594 4.187 0 5.781l39.227 39.227c0.772 0.772 1.798 1.197 2.89 1.197s2.118-0.425 2.891-1.197l39.226-39.227c0.773-0.772 1.198-1.799 1.198-2.89 0-1.092-0.425-2.119-1.198-2.891l-39.226-39.227c-0.773-0.772-1.799-1.197-2.891-1.197" fill="#ffd046"/></g><g transform="translate(215.08 601.07)"><path d="m0 0c-1.125 0-2.183-0.438-2.979-1.234l-39.227-39.227c-0.795-0.795-1.233-1.853-1.233-2.979 0-1.125 0.438-2.182 1.233-2.978l39.227-39.227c0.796-0.796 1.854-1.234 2.979-1.234s2.183 0.438 2.979 1.234l39.227 39.227c0.795 0.796 1.233 1.853 1.233 2.978 0 1.126-0.438 2.184-1.233 2.979l-39.227 39.227c-0.796 0.796-1.854 1.234-2.979 1.234m0-0.25c1.014 0 2.028-0.387 2.802-1.161l39.227-39.227c1.547-1.547 1.547-4.056 0-5.603l-39.227-39.227c-0.774-0.774-1.788-1.161-2.802-1.161s-2.028 0.387-2.802 1.161l-39.227 39.227c-1.547 1.547-1.547 4.056 0 5.603l39.227 39.227c0.774 0.774 1.788 1.161 2.802 1.161"/></g><g transform="translate(173.83 555.61)"><path d="m0 0c-1.116 1.116-1.116 2.931 0 4.047l39.227 39.227c1.116 1.116 2.931 1.116 4.047 0l39.227-39.227c1.116-1.116 1.116-2.931 0-4.047l-39.227-39.227c-1.116-1.116-2.931-1.116-4.047 0z"/></g><g transform="translate(174.92 556.7)"><path d="m0 0c-0.515 0.515-0.515 1.353 0 1.868l39.227 39.227c0.515 0.515 1.353 0.515 1.868 0l39.227-39.227c0.515-0.515 0.515-1.353 0-1.868l-39.227-39.227c-0.515-0.515-1.353-0.515-1.868 0z" fill="#ffd046"/></g><g transform="translate(189.84 566.11)"><path d="m0 0v-7.155h-1.667v10.567h1.667l3.857-6.748v6.748h1.669v-10.567h-1.483z"/></g><g transform="translate(200.06 563.62)"><path d="m0 0h2.125l-1.044 2.965zm2.721-1.705h-3.318l-1.045-2.967h-1.789l3.654 10.567h1.679l3.653-10.567h-1.789z"/></g><g transform="translate(210.65 565.26)"><path d="m0 0c1.326 0 1.535 0.956 1.535 1.297 0 0.461-0.345 1.298-1.454 1.298h-2.18v-2.595zm-2.099-1.704v-4.599h-1.667v10.567h3.823c2.422 0 3.149-1.938 3.149-2.968 0-0.392-0.146-1.938-1.641-2.646l1.862-4.953h-1.817l-1.705 4.599z"/></g><g transform="translate(219.28 565.26)"><path d="m0 0c1.326 0 1.535 0.956 1.535 1.297 0 0.461-0.345 1.298-1.454 1.298h-2.18v-2.595zm-2.099-1.704v-4.599h-1.667v10.567h3.823c2.422 0 3.149-1.938 3.149-2.968 0-0.392-0.146-1.938-1.641-2.646l1.862-4.953h-1.817l-1.705 4.599z"/></g><g transform="translate(227.75 560.47)"><path d="m0 0c1.139 0 2.063 1.079 2.063 3.764 0 2.686-0.924 3.765-2.063 3.765-1.138 0-2.063-1.078-2.063-3.765 0-2.685 0.925-3.764 2.063-3.764m3.735 3.764c0-0.379 0.081-5.468-3.753-5.468-3.835 0-3.754 5.089-3.754 5.468s-0.081 5.467 3.754 5.467c3.834 0 3.753-5.088 3.753-5.467"/></g><g transform="translate(238.95 558.95)"><path d="m0 0-1.675 6.785-1.636-6.785h-1.489l-1.561 10.567h1.71l0.819-5.562 1.338 5.562h1.638l1.375-5.562 0.819 5.562h1.71l-1.562-10.567z"/></g><g transform="translate(194.01 547.7)"><path d="m0 0v-2.893h2.521c0.859 0 1.299 0.409 1.299 1.225s-0.565 1.668-1.429 1.668zm2.449 4.301h-2.449v-2.596h2.124c0.948 0 1.474 0.827 1.474 1.52 0 0.705-0.388 1.076-1.149 1.076m-4.116-8.899v10.567h4.005c1.668 0 2.928-1.149 2.928-2.67 0-1.038-0.481-1.817-1.482-2.373 1.112-0.519 1.742-1.419 1.742-2.557 0-0.753-0.424-2.967-3.188-2.967z"/></g><g transform="translate(204.74 549.41)"><path d="m0 0c1.326 0 1.535 0.956 1.535 1.297 0 0.461-0.345 1.298-1.454 1.298h-2.18v-2.595zm-2.099-1.704v-4.599h-1.667v10.567h3.823c2.422 0 3.149-1.938 3.149-2.968 0-0.392-0.146-1.938-1.641-2.646l1.862-4.953h-1.817l-1.705 4.599z"/></g><path d="m209.61 553.67h1.691v-10.567h-1.691z"/><g transform="translate(216.89 552)"><path d="m0 0h-1.891v-7.192h1.773c1.538 0 2.042 1.862 2.042 3.852 0 0.945-0.269 3.34-1.924 3.34m-3.558-8.898v10.566h3.812c2.666 0 3.381-3.512 3.381-5.045 0-3.964-2.038-5.521-3.375-5.521z"/></g><g transform="translate(226.04 553.85)"><path d="m0 0c1.693 0 2.647-0.642 3.363-2.335l-1.594-0.629c-0.445 0.927-0.889 1.26-1.706 1.26-2.321 0-2.188-3.534-2.188-3.781 0-0.398-0.09-3.745 1.965-3.745 1.075 0 1.855 0.667 1.855 1.631v0.444h-1.929v1.67h3.596v-2.114c0-1.927-1.408-3.336-3.338-3.336-0.383 0-3.854-0.316-3.854 5.468 0 0.81 0.045 5.467 3.83 5.467"/></g><g transform="translate(231.27 553.67)"><path d="m0 0h6.221v-1.668h-4.554v-2.596h3.073v-1.705h-3.073v-2.893h4.887v-1.705h-6.554z"/></g></g><text transform="matrix(1 0 0 -1 306.2 501.71)" fill="black" font-family="Helvetica" font-size="9px"><tspan x="0 8.4960003 13.5 16.497 21.500999" y="0">W5-2a</tspan></text><g clip-path="url(#s)"><g transform="translate(319.45 514.32)"><path d="m0 0c-1.092 0-2.118 0.425-2.89 1.197l-39.227 39.227c-1.594 1.594-1.594 4.187 0 5.781l39.227 39.227c0.772 0.772 1.798 1.197 2.89 1.197s2.118-0.425 2.891-1.197l39.227-39.227c1.593-1.594 1.593-4.187 0-5.781l-39.227-39.227c-0.773-0.772-1.799-1.197-2.891-1.197" fill="#ffd046"/></g><g transform="translate(319.45 601.07)"><path d="m0 0c-1.125 0-2.183-0.438-2.979-1.234l-39.227-39.227c-0.795-0.795-1.234-1.853-1.234-2.979 0-1.125 0.439-2.182 1.234-2.978l39.227-39.227c0.796-0.796 1.854-1.234 2.979-1.234s2.183 0.438 2.979 1.234l39.227 39.227c0.795 0.796 1.233 1.853 1.233 2.978 0 1.126-0.438 2.184-1.233 2.979l-39.227 39.227c-0.796 0.796-1.854 1.234-2.979 1.234m0-0.25c1.014 0 2.028-0.387 2.802-1.161l39.227-39.227c1.547-1.547 1.547-4.056 0-5.603l-39.227-39.227c-0.774-0.774-1.788-1.161-2.802-1.161s-2.028 0.387-2.802 1.161l-39.227 39.227c-1.547 1.547-1.547 4.056 0 5.603l39.227 39.227c0.774 0.774 1.788 1.161 2.802 1.161"/></g><g transform="translate(278.2 555.61)"><path d="m0 0c-1.116 1.116-1.116 2.931 0 4.047l39.227 39.227c1.116 1.116 2.931 1.116 4.047 0l39.227-39.227c1.116-1.116 1.116-2.931 0-4.047l-39.227-39.227c-1.116-1.116-2.931-1.116-4.047 0z"/></g><g transform="translate(279.29 556.7)"><path d="m0 0c-0.515 0.515-0.515 1.353 0 1.868l39.227 39.227c0.515 0.515 1.353 0.515 1.868 0l39.227-39.227c0.515-0.515 0.515-1.353 0-1.868l-39.227-39.227c-0.515-0.515-1.353-0.515-1.868 0z" fill="#ffd046"/></g><g transform="translate(298.91 571.31)"><path d="m0 0v-7.081h-1.516v10.567h1.516l2.886-6.34v6.34h1.518v-10.567h-1.147z"/></g><g transform="translate(306.95 568.61)"><path d="m0 0h1.524l-0.78 3.041zm1.895-1.483h-2.266l-0.707-2.892h-1.524l2.639 10.567h1.489l2.637-10.567h-1.524z"/></g><g transform="translate(313.66 573.32)"><path d="m0 0v-2.669h1.553c0.891 0 1.37 0.482 1.37 1.335 0 0.816-0.555 1.334-1.368 1.334zm1.444-4.116h-1.444v-4.967h-1.516v10.566h3.145c1.657 0 2.775-1.112 2.775-2.817 0-1.26-0.519-2.187-1.518-2.559l1.516-5.19h-1.552z"/></g><g transform="translate(320.84 573.32)"><path d="m0 0v-2.669h1.553c0.891 0 1.37 0.482 1.37 1.335 0 0.816-0.555 1.334-1.368 1.334zm1.444-4.116h-1.444v-4.967h-1.516v10.566h3.145c1.657 0 2.775-1.112 2.775-2.817 0-1.26-0.519-2.187-1.518-2.559l1.516-5.19h-1.552z"/></g><g transform="translate(329.47 573.5)"><path d="m0 0c-0.301 0-1.663 0.062-1.663-3.97 0-4.062 1.362-4 1.663-4s1.661-0.062 1.661 4c0 4.032-1.36 3.97-1.661 3.97m-3.118-3.962c0 5.532 2.566 5.444 3.135 5.444s3.101 0.085 3.101-5.448c0-5.573-2.532-5.486-3.101-5.486s-3.135-0.087-3.135 5.49"/></g><g transform="translate(338.5 564.23)"><path d="m0 0-1.004 5.524-1.005-5.524h-1.338l-1.675 10.567h1.489l0.893-5.636 1.041 5.636h1.191l1.004-5.636 0.93 5.636h1.488l-1.712-10.567z"/></g><g transform="translate(287.81 551.45)"><path d="m0 0v7.496h1.516v-7.6c0-0.995 0.581-1.67 1.48-1.67 0.813 0 1.406 0.667 1.406 1.67v7.6h1.518v-7.518c0-2.404-1.857-3.234-2.924-3.234-0.976 0-2.996 0.636-2.996 3.256"/></g><g transform="translate(296.87 555.46)"><path d="m0 0v-7.081h-1.516v10.567h1.516l2.886-6.34v6.34h1.518v-10.567h-1.147z"/></g><g transform="translate(305.61 557.47)"><path d="m0 0h-1.185v-7.6h1.054c1.236 0 1.869 0.54 1.869 3.744 0 3.713-0.926 3.856-1.738 3.856m-2.701-9.083v10.566h3.015c0.645 0 2.905-0.031 2.905-5.265 0-4.788-2.087-5.301-2.779-5.301z"/></g><g transform="translate(310.3 558.95)"><path d="m0 0h4.982v-1.483h-3.458v-2.67h2.193v-1.446h-2.193v-3.486h3.868v-1.482h-5.392z"/></g><g transform="translate(318.47 557.47)"><path d="m0 0v-2.669h1.553c0.89 0 1.37 0.482 1.37 1.335 0 0.816-0.555 1.334-1.368 1.334zm1.444-4.116h-1.444v-4.967h-1.516v10.566h3.145c1.657 0 2.775-1.112 2.775-2.817 0-1.26-0.52-2.187-1.518-2.559l1.516-5.19h-1.552z"/></g><g transform="translate(325.65 554.46)"><path d="m0 0h1.553c0.888 0 1.37 0.555 1.37 1.519 0 0.89-0.56 1.483-1.368 1.483h-1.555zm0-1.446v-4.635h-1.516v10.567h3.144c1.666 0 2.775-1.192 2.775-2.967 0-1.928-0.999-2.965-2.775-2.965z"/></g><g transform="translate(333.54 552.76)"><path d="m0 0h1.524l-0.78 3.041zm1.895-1.483h-2.266l-0.707-2.892h-1.524l2.639 10.567h1.489l2.637-10.567h-1.524z"/></g><g transform="translate(341.4 555.1)"><path d="m0 0c1.156-0.725 2.889-1.741 2.889-3.827 0-1.71-1.304-3.076-2.942-3.076-1.861 0-2.978 1.575-2.978 3.3h1.49c0-0.9 0.446-1.818 1.488-1.818 0.819 0 1.489 0.741 1.489 1.594 0 2.297-3.945 2.165-3.945 5.117 0 1.521 1.191 2.742 2.716 2.742 1.49 0 2.645-1.149 2.682-2.743h-1.453c-0.037 0.741-0.559 1.223-1.229 1.223-0.708 0-1.265-0.518-1.265-1.222 0-0.686 0.365-0.856 1.058-1.29"/></g><g transform="translate(348.21 555.1)"><path d="m0 0c1.156-0.725 2.889-1.741 2.889-3.827 0-1.71-1.304-3.076-2.942-3.076-1.861 0-2.978 1.575-2.978 3.3h1.49c0-0.9 0.446-1.818 1.488-1.818 0.819 0 1.489 0.741 1.489 1.594 0 2.297-3.945 2.165-3.945 5.117 0 1.521 1.191 2.742 2.716 2.742 1.49 0 2.645-1.149 2.682-2.743h-1.453c-0.037 0.741-0.559 1.223-1.229 1.223-0.708 0-1.265-0.518-1.265-1.222 0-0.686 0.365-0.856 1.058-1.29"/></g></g><text transform="matrix(1 0 0 -1 413.07 501.71)" fill="black" font-family="Helvetica" font-size="9px"><tspan x="0 8.4960003 13.5 16.497" y="0">W5-3</tspan></text><g clip-path="url(#r)"><g transform="translate(423.82 514.32)"><path d="m0 0c-1.092 0-2.118 0.425-2.891 1.197l-39.227 39.227c-1.593 1.594-1.593 4.187 0 5.781l39.227 39.227c0.773 0.772 1.799 1.197 2.891 1.197s2.118-0.425 2.89-1.197l39.227-39.227c0.772-0.772 1.198-1.799 1.198-2.89 0-1.092-0.426-2.119-1.198-2.891l-39.226-39.227c-0.773-0.772-1.799-1.197-2.891-1.197" fill="#ffd046"/></g><g transform="translate(423.82 601.07)"><path d="m0 0c-1.125 0-2.183-0.438-2.979-1.234l-39.227-39.227c-0.795-0.795-1.234-1.853-1.234-2.979 0-1.125 0.439-2.182 1.234-2.978l39.227-39.227c0.796-0.796 1.854-1.234 2.979-1.234s2.183 0.438 2.979 1.234l39.227 39.227c0.795 0.796 1.233 1.853 1.233 2.978 0 1.126-0.438 2.184-1.233 2.979l-39.227 39.227c-0.796 0.796-1.854 1.234-2.979 1.234m0-0.25c1.014 0 2.028-0.387 2.802-1.161l39.227-39.227c1.547-1.547 1.547-4.056 0-5.603l-39.227-39.227c-0.774-0.774-1.788-1.161-2.802-1.161s-2.028 0.387-2.802 1.161l-39.227 39.227c-1.547 1.547-1.547 4.056 0 5.603l39.227 39.227c0.774 0.774 1.788 1.161 2.802 1.161"/></g><g transform="translate(382.57 555.61)"><path d="m0 0c-1.116 1.116-1.116 2.931 0 4.047l39.227 39.227c1.116 1.116 2.931 1.116 4.047 0l39.227-39.227c1.116-1.116 1.116-2.931 0-4.047l-39.227-39.227c-1.116-1.116-2.931-1.116-4.047 0z"/></g><g transform="translate(383.66 556.7)"><path d="m0 0c-0.515 0.515-0.515 1.353 0 1.868l39.227 39.227c0.515 0.515 1.353 0.515 1.868 0l39.227-39.227c0.515-0.515 0.515-1.353 0-1.868l-39.227-39.227c-0.515-0.515-1.353-0.515-1.868 0z" fill="#ffd046"/></g><g transform="translate(397.91 566.9)"><path d="m0 0c-0.301 0-1.663 0.062-1.663-3.97 0-4.062 1.362-4 1.663-4s1.662-0.062 1.662 4c0 4.032-1.361 3.97-1.662 3.97m-3.118-3.962c0 5.532 2.566 5.444 3.135 5.444s3.101 0.085 3.101-5.448c0-5.573-2.532-5.486-3.101-5.486s-3.135-0.087-3.135 5.49"/></g><g transform="translate(404.66 564.71)"><path d="m0 0v-7.081h-1.516v10.567h1.516l2.886-6.34v6.34h1.518v-10.567h-1.147z"/></g><g transform="translate(411.39 568.2)"><path d="m0 0h4.982v-1.483h-3.458v-2.67h2.193v-1.446h-2.193v-3.486h3.868v-1.482h-5.392z"/></g><g transform="translate(423.82 568.2)"><path d="m0 0h1.524v-9.157h3.867v-1.41h-5.391z"/></g><g transform="translate(432.45 562)"><path d="m0 0h1.524l-0.78 3.041zm1.895-1.483h-2.266l-0.707-2.892h-1.524l2.639 10.567h1.489l2.637-10.567h-1.524z"/></g><g transform="translate(439.61 564.71)"><path d="m0 0v-7.081h-1.516v10.567h1.516l2.886-6.34v6.34h1.518v-10.567h-1.147z"/></g><g transform="translate(446.34 568.2)"><path d="m0 0h4.982v-1.483h-3.458v-2.67h2.193v-1.446h-2.193v-3.486h3.868v-1.482h-5.392z"/></g><g transform="translate(405.1 541.5)"><path d="m0 0h1.516c0.852 0 1.407 0.593 1.407 1.52 0 1.021-0.612 1.779-1.405 1.779h-1.518zm0 7.6v-2.817h1.59c0.706 0 1.148 0.593 1.148 1.557 0 0.909-0.326 1.26-1.146 1.26zm-1.516-9.083v10.566h3.329c1.403 0 2.406-1.112 2.406-2.743 0-0.968-0.259-1.409-1.11-2.3 0.814-0.667 1.295-1.557 1.295-2.632 0-1.581-1.259-2.891-2.812-2.891z"/></g><g transform="translate(412.81 549.1)"><path d="m0 0v-2.669h1.553c0.891 0 1.37 0.482 1.37 1.335 0 0.816-0.555 1.334-1.368 1.334zm1.444-4.116h-1.444v-4.967h-1.516v10.566h3.145c1.657 0 2.775-1.112 2.775-2.817 0-1.26-0.52-2.187-1.518-2.559l1.516-5.19h-1.552z"/></g><path d="m419.01 550.58h1.479v-10.567h-1.479z"/><g transform="translate(425.52 549.1)"><path d="m0 0h-1.185v-7.6h1.054c1.236 0 1.869 0.54 1.869 3.744 0 3.713-0.926 3.856-1.738 3.856m-2.701-9.083v10.566h3.015c0.645 0 2.905-0.031 2.905-5.264 0-4.789-2.087-5.302-2.779-5.302z"/></g><g transform="translate(433.92 539.83)"><path d="m0 0c-0.962 0-3.277 0.178-3.277 5.45 0 5.271 2.202 5.485 3.165 5.485 1.526 0 2.681-1.111 2.755-2.668h-1.527c-0.037 0.705-0.52 1.187-1.265 1.187-0.51 0-1.675-0.159-1.675-4.006 0-3.846 1.276-3.966 1.786-3.966 0.782 0 1.154 0.515 1.154 1.631v0.704h-1.191v1.485h2.718v-2.187c0-2.645-1.741-3.115-2.643-3.115"/></g><g transform="translate(438.67 550.59)"><path d="m0 0h4.982v-1.483h-3.458v-2.67h2.193v-1.446h-2.193v-3.486h3.868v-1.482h-5.392z"/></g></g><text transform="matrix(1 0 0 -1 514.94 501.71)" fill="black" font-family="Helvetica" font-size="9px"><tspan x="0 8.4960003 13.5 16.497 21.500999" y="0">W5-3a</tspan></text><g clip-path="url(#q)"><g transform="translate(528.19 514.32)"><path d="m0 0c-1.092 0-2.118 0.425-2.89 1.197l-39.227 39.227c-0.772 0.772-1.197 1.799-1.197 2.891 0 1.091 0.425 2.118 1.197 2.89l39.226 39.227c0.773 0.772 1.799 1.197 2.891 1.197 1.093 0 2.119-0.425 2.891-1.197l39.227-39.227c0.772-0.772 1.197-1.799 1.197-2.89 0-1.092-0.425-2.119-1.197-2.891l-39.226-39.227c-0.773-0.772-1.799-1.197-2.892-1.197" fill="#ffd046"/></g><g transform="translate(528.19 601.07)"><path d="m0 0c-1.125 0-2.183-0.438-2.979-1.234l-39.227-39.227c-0.795-0.795-1.233-1.853-1.233-2.979 0-1.125 0.438-2.182 1.233-2.978l39.227-39.227c0.796-0.796 1.854-1.234 2.979-1.234s2.183 0.438 2.979 1.234l39.227 39.227c0.795 0.796 1.234 1.853 1.234 2.978 0 1.126-0.439 2.184-1.234 2.979l-39.227 39.227c-0.796 0.796-1.854 1.234-2.979 1.234m0-0.25c1.014 0 2.028-0.387 2.802-1.161l39.227-39.227c1.547-1.547 1.547-4.056 0-5.603l-39.227-39.227c-0.774-0.774-1.788-1.161-2.802-1.161s-2.028 0.387-2.802 1.161l-39.227 39.227c-1.547 1.547-1.547 4.056 0 5.603l39.227 39.227c0.774 0.774 1.788 1.161 2.802 1.161"/></g><g transform="translate(486.94 555.61)"><path d="m0 0c-1.116 1.116-1.116 2.931 0 4.047l39.227 39.227c1.116 1.116 2.931 1.116 4.047 0l39.227-39.227c1.116-1.116 1.116-2.931 0-4.047l-39.227-39.227c-1.116-1.116-2.931-1.116-4.047 0z"/></g><g transform="translate(488.03 556.7)"><path d="m0 0c-0.515 0.515-0.515 1.353 0 1.868l39.227 39.227c0.515 0.515 1.353 0.515 1.868 0l39.227-39.227c0.515-0.515 0.515-1.353 0-1.868l-39.227-39.227c-0.515-0.515-1.353-0.515-1.868 0z" fill="#ffd046"/></g><g transform="translate(505.86 569.76)"><path d="m0 0c-0.251 0-1.386 0.052-1.386-3.309 0-3.384 1.135-3.333 1.386-3.333s1.385-0.051 1.385 3.333c0 3.361-1.134 3.309-1.385 3.309m-2.599-3.302c0 4.611 2.139 4.537 2.613 4.537 0.475 0 2.585 0.07 2.585-4.54 0-4.644-2.11-4.572-2.585-4.572-0.474 0-2.613-0.072-2.613 4.575"/></g><g transform="translate(511.49 567.93)"><path d="m0 0v-5.901h-1.264v8.806h1.264l2.405-5.284v5.284h1.265v-8.806h-0.956z"/></g><g transform="translate(517.1 570.84)"><path d="m0 0h4.152v-1.236h-2.882v-2.225h1.827v-1.205h-1.827v-2.905h3.223v-1.235h-4.493z"/></g><g transform="translate(528.19 570.84)"><path d="m0 0h1.27v-7.631h3.223v-1.175h-4.493z"/></g><g transform="translate(535.38 565.68)"><path d="m0 0h1.27l-0.65 2.534zm1.579-1.236h-1.888l-0.589-2.41h-1.27l2.199 8.806h1.24l2.198-8.806h-1.27z"/></g><g transform="translate(541.35 567.93)"><path d="m0 0v-5.901h-1.263v8.806h1.263l2.405-5.284v5.284h1.265v-8.806h-0.956z"/></g><g transform="translate(546.96 570.84)"><path d="m0 0h4.152v-1.236h-2.882v-2.225h1.827v-1.205h-1.827v-2.905h3.223v-1.235h-4.493z"/></g><g transform="translate(500.09 550.5)"><path d="m0 0v6.246h1.264v-6.333c0-0.829 0.484-1.391 1.232-1.391 0.678 0 1.172 0.556 1.172 1.391v6.333h1.265v-6.265c0-2.003-1.547-2.694-2.437-2.694-0.813 0-2.496 0.529-2.496 2.713"/></g><g transform="translate(508.23 553.84)"><path d="m0 0v-5.901h-1.264v8.806h1.264l2.405-5.284v5.284h1.265v-8.806h-0.956z"/></g><g transform="translate(516.09 555.51)"><path d="m0 0h-0.987v-6.333h0.878c1.03 0 1.557 0.45 1.557 3.12 0 3.094-0.771 3.213-1.448 3.213m-2.251-7.57v8.806h2.513c0.537 0 2.42-0.026 2.42-4.387 0-3.99-1.739-4.419-2.315-4.419z"/></g><g transform="translate(520.53 556.75)"><path d="m0 0h4.152v-1.236h-2.882v-2.225h1.827v-1.205h-1.827v-2.905h3.223v-1.235h-4.493z"/></g><g transform="translate(527.78 555.51)"><path d="m0 0v-2.224h1.294c0.742 0 1.142 0.401 1.142 1.112 0 0.68-0.463 1.112-1.141 1.112zm1.203-3.43h-1.203v-4.14h-1.264v8.806h2.621c1.381 0 2.313-0.927 2.313-2.348 0-1.05-0.433-1.823-1.265-2.132l1.263-4.326h-1.293z"/></g><g transform="translate(534.21 553.01)"><path d="m0 0h1.294c0.74 0 1.142 0.462 1.142 1.266 0 0.742-0.467 1.236-1.141 1.236h-1.295zm0-1.205v-3.863h-1.263v8.806h2.62c1.388 0 2.312-0.993 2.312-2.472 0-1.607-0.833-2.471-2.312-2.471z"/></g><g transform="translate(541.11 551.59)"><path d="m0 0h1.27l-0.65 2.534zm1.579-1.236h-1.888l-0.589-2.41h-1.27l2.199 8.806h1.24l2.198-8.806h-1.27z"/></g><g transform="translate(547.9 553.54)"><path d="m0 0c0.963-0.604 2.407-1.451 2.407-3.189 0-1.425-1.086-2.563-2.451-2.563-1.551 0-2.482 1.312-2.482 2.749h1.242c0-0.749 0.372-1.514 1.24-1.514 0.682 0 1.24 0.617 1.24 1.328 0 1.914-3.287 1.804-3.287 4.264 0 1.267 0.993 2.285 2.264 2.285 1.241 0 2.203-0.957 2.234-2.286h-1.211c-0.03 0.618-0.465 1.02-1.023 1.02-0.59 0-1.055-0.432-1.055-1.019 0-0.572 0.304-0.713 0.882-1.075"/></g><g transform="translate(553.89 553.54)"><path d="m0 0c0.963-0.604 2.407-1.451 2.407-3.189 0-1.425-1.086-2.563-2.451-2.563-1.551 0-2.482 1.312-2.482 2.749h1.242c0-0.749 0.372-1.514 1.24-1.514 0.682 0 1.24 0.617 1.24 1.328 0 1.914-3.287 1.804-3.287 4.264 0 1.267 0.993 2.285 2.264 2.285 1.241 0 2.203-0.957 2.234-2.286h-1.211c-0.03 0.618-0.465 1.02-1.023 1.02-0.59 0-1.055-0.432-1.055-1.019 0-0.572 0.304-0.713 0.882-1.075"/></g></g><text transform="matrix(1 0 0 -1 99.95 390.61)" fill="black" font-family="Helvetica" font-size="9px"><tspan x="0 8.4960003 13.5 16.497" y="0">W6-1</tspan></text><g clip-path="url(#p)"><g transform="translate(110.7 403.07)"><path d="m0 0c-1.092 0-2.118 0.425-2.89 1.197l-39.227 39.227c-1.594 1.594-1.594 4.187 0 5.781l39.227 39.227c0.772 0.772 1.798 1.197 2.89 1.197s2.118-0.425 2.891-1.197l39.226-39.227c0.773-0.772 1.198-1.799 1.198-2.891 0-1.091-0.425-2.118-1.198-2.89l-39.226-39.227c-0.773-0.772-1.799-1.197-2.891-1.197" fill="#ffd046"/></g><g transform="translate(110.7 489.83)"><path d="m0 0c-1.125 0-2.183-0.438-2.979-1.234l-39.227-39.227c-1.642-1.642-1.642-4.315 0-5.957l39.227-39.227c0.796-0.796 1.854-1.234 2.979-1.234s2.183 0.438 2.979 1.234l39.227 39.227c1.642 1.642 1.642 4.315 0 5.957l-39.227 39.227c-0.796 0.796-1.854 1.234-2.979 1.234m0-0.25c1.014 0 2.028-0.387 2.802-1.161l39.227-39.227c1.547-1.547 1.547-4.056 0-5.603l-39.227-39.227c-0.774-0.774-1.788-1.161-2.802-1.161s-2.028 0.387-2.802 1.161l-39.227 39.227c-1.547 1.547-1.547 4.056 0 5.603l39.227 39.227c0.774 0.774 1.788 1.161 2.802 1.161"/></g><g transform="translate(69.452 444.37)"><path d="m0 0c-1.116 1.116-1.116 2.931 0 4.047l39.227 39.227c1.116 1.116 2.931 1.116 4.047 0l39.227-39.227c1.116-1.116 1.116-2.931 0-4.047l-39.227-39.227c-1.116-1.116-2.931-1.116-4.047 0z"/></g><g transform="translate(70.541 445.45)"><path d="m0 0c-0.515 0.515-0.515 1.353 0 1.868l39.227 39.227c0.515 0.515 1.353 0.515 1.868 0l39.227-39.227c0.515-0.515 0.515-1.353 0-1.868l-39.227-39.227c-0.515-0.515-1.353-0.515-1.868 0z" fill="#ffd046"/></g><g transform="translate(113.9 452.87)"><path d="m0 0c-0.502-1.273-1.747-2.182-3.198-2.182-1.452 0-2.693 0.901-3.195 2.174-2.313 5.906-3.582 12.335-3.582 19.06h13.553c0-6.725-1.266-13.146-3.578-19.052" fill-rule="evenodd"/></g><g transform="translate(115.42 427.35)"><path d="m0 0v-4.623h7.265v4.623"/></g><g transform="translate(136.67 453.08)"><path d="m0 0-9.453 13.781-9.454-13.781c-0.146-0.213-0.233-0.471-0.233-0.749 0-0.729 0.592-1.32 1.321-1.32 0.162 0 0.317 0.029 0.461 0.082l4.272 1.502v-4.53c0-2.936-1.102-5.735-3.104-7.881-3.261-3.495-5.057-8.055-5.057-12.837v-4.623h7.265v4.623c0 2.937 1.102 5.736 3.104 7.881 3.261 3.496 5.057 8.055 5.057 12.837v4.53l4.273-1.502c0.143-0.053 0.298-0.082 0.46-0.082 0.729 0 1.321 0.591 1.321 1.32 0 0.278-0.086 0.536-0.233 0.749"/></g><g transform="translate(112.07 430.78)"><path d="m0 0-9.453-13.781-9.454 13.781c-0.146 0.213-0.233 0.471-0.233 0.749 0 0.729 0.592 1.32 1.321 1.32 0.162 0 0.317-0.029 0.461-0.082l4.272-1.502v4.53c0 2.936-1.102 5.735-3.104 7.881-3.261 3.496-5.057 8.055-5.057 12.837v4.623h7.265v-4.623c0-2.937 1.102-5.736 3.104-7.881 3.261-3.496 5.057-8.055 5.057-12.837v-4.53l4.273 1.502c0.143 0.053 0.298 0.082 0.46 0.082 0.729 0 1.321-0.591 1.321-1.32 0-0.278-0.086-0.536-0.233-0.749"/></g></g><text transform="matrix(1 0 0 -1 192.55 390.61)" fill="black" font-family="Helvetica" font-size="9px"><tspan x="0 8.4960003 13.5 16.497" y="0">W6-2</tspan></text><g clip-path="url(#o)"><g transform="translate(203.3 403.07)"><path d="m0 0c-1.092 0-2.119 0.425-2.891 1.197l-39.227 39.227c-1.593 1.594-1.593 4.187 0 5.781l39.227 39.227c0.772 0.772 1.799 1.197 2.891 1.197s2.118-0.425 2.89-1.197l39.227-39.227c0.772-0.772 1.197-1.799 1.197-2.891 0-1.091-0.425-2.118-1.197-2.89l-39.227-39.227c-0.772-0.772-1.798-1.197-2.89-1.197" fill="#ffd046"/></g><g transform="translate(203.3 489.83)"><path d="m0 0c-1.125 0-2.183-0.438-2.979-1.234l-39.227-39.227c-1.642-1.642-1.642-4.315 0-5.957l39.227-39.227c0.796-0.796 1.854-1.234 2.979-1.234s2.183 0.438 2.979 1.234l39.227 39.227c1.642 1.642 1.642 4.315 0 5.957l-39.227 39.227c-0.796 0.796-1.854 1.234-2.979 1.234m0-0.25c1.014 0 2.028-0.387 2.802-1.161l39.227-39.227c1.547-1.547 1.547-4.056 0-5.603l-39.227-39.227c-0.774-0.774-1.788-1.161-2.802-1.161s-2.028 0.387-2.802 1.161l-39.227 39.227c-1.547 1.547-1.547 4.056 0 5.603l39.227 39.227c0.774 0.774 1.788 1.161 2.802 1.161"/></g><g transform="translate(162.05 444.37)"><path d="m0 0c-1.116 1.116-1.116 2.931 0 4.047l39.227 39.227c1.116 1.116 2.931 1.116 4.047 0l39.227-39.227c1.116-1.116 1.116-2.931 0-4.047l-39.227-39.227c-1.116-1.116-2.931-1.116-4.047 0z"/></g><g transform="translate(163.14 445.45)"><path d="m0 0c-0.515 0.515-0.515 1.353 0 1.868l39.227 39.227c0.515 0.515 1.353 0.515 1.868 0l39.227-39.227c0.515-0.515 0.515-1.353 0-1.868l-39.227-39.227c-0.515-0.515-1.353-0.515-1.868 0z" fill="#ffd046"/></g><g transform="translate(200.1 439.91)"><path d="m0 0c0.502 1.273 1.747 2.182 3.198 2.182 1.452 0 2.693-0.901 3.195-2.174 2.313-5.906 3.582-12.335 3.582-19.06h-13.553c0 6.725 1.266 13.146 3.578 19.052" fill-rule="evenodd"/></g><g transform="translate(198.59 465.43)"><path d="m0 0v4.623h-7.265v-4.623"/></g><g transform="translate(177.34 439.7)"><path d="m0 0 9.453-13.781 9.454 13.781c0.146 0.213 0.232 0.471 0.232 0.749 0 0.729-0.591 1.32-1.32 1.32-0.162 0-0.317-0.029-0.461-0.082l-4.272-1.502v4.529c0 2.937 1.102 5.736 3.104 7.882 3.261 3.495 5.057 8.054 5.057 12.837v4.623h-7.265v-4.623c0-2.937-1.102-5.736-3.104-7.881-3.261-3.496-5.057-8.055-5.057-12.838v-4.529l-4.273 1.502c-0.143 0.053-0.298 0.082-0.46 0.082-0.73 0-1.321-0.591-1.321-1.32 0-0.278 0.086-0.536 0.233-0.749"/></g><g transform="translate(201.94 462)"><path d="m0 0 9.453 13.781 9.454-13.781c0.146-0.213 0.233-0.47 0.233-0.748 0-0.73-0.592-1.321-1.321-1.321-0.162 0-0.317 0.029-0.461 0.082l-4.272 1.502v-4.529c0-2.937 1.102-5.736 3.104-7.882 3.261-3.495 5.057-8.054 5.057-12.837v-4.623h-7.265v4.623c0 2.937-1.102 5.736-3.104 7.881-3.261 3.496-5.057 8.055-5.057 12.838v4.529l-4.273-1.502c-0.143-0.053-0.298-0.082-0.46-0.082-0.729 0-1.321 0.591-1.321 1.321 0 0.278 0.086 0.535 0.233 0.748"/></g></g><text transform="matrix(1 0 0 -1 275.45 390.61)" fill="black" font-family="Helvetica" font-size="9px"><tspan x="0 8.4960003 13.5 18.504 21.500999" y="0">W12-1</tspan></text><g clip-path="url(#n)"><g transform="translate(288.71 403.07)"><path d="m0 0c-0.915 0-1.776 0.357-2.423 1.004l-32.69 32.689c-0.647 0.647-1.004 1.508-1.004 2.423 0 0.916 0.357 1.776 1.004 2.424l32.69 32.688c0.647 0.648 1.508 1.004 2.423 1.004 0.916 0 1.776-0.356 2.423-1.004l32.69-32.688c1.335-1.337 1.335-3.511 0-4.847l-32.69-32.689c-0.647-0.647-1.507-1.004-2.423-1.004" fill="#ffd046"/></g><g transform="translate(288.71 475.43)"><path d="m0 0c-0.949 0-1.841-0.37-2.512-1.04l-32.689-32.689c-0.671-0.671-1.04-1.563-1.04-2.512s0.369-1.841 1.04-2.512l32.689-32.689c0.671-0.671 1.563-1.04 2.512-1.04s1.841 0.369 2.512 1.04l32.689 32.689c0.671 0.671 1.04 1.563 1.04 2.512s-0.369 1.841-1.04 2.512l-32.689 32.689c-0.671 0.67-1.563 1.04-2.512 1.04m0-0.25c0.845 0 1.69-0.322 2.335-0.967l32.689-32.689c1.29-1.29 1.29-3.381 0-4.67l-32.689-32.689c-0.645-0.645-1.49-0.967-2.335-0.967s-1.69 0.322-2.335 0.967l-32.689 32.689c-1.29 1.289-1.29 3.38 0 4.67l32.689 32.689c0.645 0.645 1.49 0.967 2.335 0.967"/></g><g transform="translate(254.3 437.48)"><path d="m0 0c-0.944 0.944-0.944 2.48 0 3.425l32.689 32.689c0.944 0.944 2.48 0.944 3.425 0l32.689-32.689c0.944-0.945 0.944-2.481 0-3.425l-32.689-32.689c-0.945-0.944-2.481-0.944-3.425 0z"/></g><g transform="translate(255.24 438.41)"><path d="m0 0c-0.429 0.429-0.429 1.128 0 1.557l32.689 32.689c0.429 0.429 1.128 0.429 1.557 0l32.689-32.689c0.429-0.43 0.429-1.128 0-1.557l-32.689-32.689c-0.429-0.429-1.128-0.429-1.557 0z" fill="#ffd046"/></g><g transform="translate(300.35 436.58)"><path d="m0 0-9.166 10.924 5.396 4.528 9.166-10.924z"/></g><g transform="translate(308.83 445.96)"><path d="m0 0c-0.026 0.255-0.125 0.505-0.302 0.716-0.469 0.559-1.302 0.631-1.861 0.163-0.129-0.108-0.231-0.235-0.307-0.373l-3.925-6.914-7.489-2.664c-0.15-0.051-0.293-0.13-0.421-0.238-0.559-0.469-0.632-1.302-0.163-1.861 0.177-0.21 0.406-0.352 0.653-0.422l15.486-4.427z"/></g><g transform="translate(277.06 436.58)"><path d="m0 0 9.166 10.924-5.396 4.528-9.166-10.924z"/></g><g transform="translate(268.58 445.96)"><path d="m0 0c0.026 0.255 0.125 0.505 0.302 0.716 0.469 0.559 1.302 0.631 1.861 0.163 0.128-0.108 0.231-0.235 0.307-0.373l3.924-6.914 7.49-2.664c0.15-0.051 0.293-0.13 0.421-0.238 0.559-0.469 0.632-1.302 0.163-1.861-0.177-0.21-0.406-0.352-0.653-0.422l-15.486-4.427z"/></g></g><text transform="matrix(1 0 0 -1 360.85 390.61)" fill="black" font-family="Helvetica" font-size="9px"><tspan x="0 8.4960003 13.5 18.504 21.500999" y="0">W12-2</tspan></text><g clip-path="url(#m)"><g transform="translate(374.11 403.07)"><path d="m0 0c-1.093 0-2.119 0.425-2.891 1.197l-39.227 39.227c-0.772 0.772-1.198 1.799-1.198 2.89 0 1.092 0.426 2.119 1.198 2.891l39.226 39.227c0.773 0.772 1.799 1.197 2.892 1.197 1.092 0 2.118-0.425 2.89-1.197l39.227-39.227c0.772-0.772 1.197-1.799 1.197-2.891 0-1.091-0.425-2.118-1.197-2.89l-39.226-39.227c-0.773-0.772-1.799-1.197-2.891-1.197" fill="#ffd046"/></g><g transform="translate(374.11 489.83)"><path d="m0 0c-1.125 0-2.183-0.438-2.979-1.234l-39.227-39.227c-1.642-1.642-1.642-4.315 0-5.957l39.227-39.227c0.796-0.796 1.854-1.234 2.979-1.234s2.183 0.438 2.979 1.234l39.227 39.227c1.642 1.642 1.642 4.315 0 5.957l-39.227 39.227c-0.796 0.796-1.854 1.234-2.979 1.234m0-0.25c1.014 0 2.028-0.387 2.802-1.161l39.227-39.227c1.547-1.547 1.547-4.056 0-5.603l-39.227-39.227c-0.774-0.774-1.788-1.161-2.802-1.161s-2.028 0.387-2.802 1.161l-39.227 39.227c-1.547 1.547-1.547 4.056 0 5.603l39.227 39.227c0.774 0.774 1.788 1.161 2.802 1.161"/></g><g transform="translate(332.86 444.37)"><path d="m0 0c-1.116 1.116-1.116 2.931 0 4.047l39.227 39.227c1.116 1.116 2.931 1.116 4.047 0l39.227-39.227c1.116-1.116 1.116-2.931 0-4.047l-39.227-39.227c-1.116-1.116-2.931-1.116-4.047 0z"/></g><g transform="translate(333.95 445.45)"><path d="m0 0c-0.515 0.515-0.515 1.353 0 1.868l39.227 39.227c0.515 0.515 1.353 0.515 1.868 0l39.227-39.227c0.515-0.515 0.515-1.353 0-1.868l-39.227-39.227c-0.515-0.515-1.353-0.515-1.868 0z" fill="#ffd046"/></g><g transform="translate(390.41 468.93)"><path d="m0 0-16.303 15.369-16.303-15.369c-0.127-0.12-0.207-0.291-0.207-0.481 0-0.364 0.295-0.66 0.66-0.66 0.027 0 0.054 2e-3 0.08 5e-3l10.487 1.314v-8.584h10.566v8.584l10.487-1.314c0.027-3e-3 0.053-5e-3 0.08-5e-3 0.365 0 0.661 0.296 0.661 0.66 0 0.19-0.08 0.361-0.208 0.481"/></g><g transform="translate(357.8 423.85)"><path d="m0 0 16.303-15.37 16.303 15.37c0.127 0.12 0.207 0.291 0.207 0.481 0 0.364-0.295 0.66-0.66 0.66-0.027 0-0.054-2e-3 -0.08-5e-3l-10.487-1.314v8.584h-10.566v-8.584l-10.487 1.314c-0.027 3e-3 -0.053 5e-3 -0.08 5e-3 -0.365 0-0.661-0.296-0.661-0.66 0-0.19 0.08-0.361 0.208-0.481"/></g><g transform="translate(369.02 448.43)"><path d="m0 0h-2.305l-0.538 8.527h3.381z"/></g><g transform="translate(403.59 448.43)"><path d="m0 0h-2.218l-0.517 8.527h3.253zm0 0h-2.218l-0.517 8.527h3.253zm-5.84 0h-2.218l-0.517 8.527h3.253z"/></g><path d="m371.04 447.32h7.402v-2.818h-7.402z"/><g transform="translate(345.46 453.17)"><path d="m0 0h-1.353v2.301c1.205 0.074 1.955 0.592 2.407 1.482h2.031v-21.133h-3.085z"/></g><g transform="translate(363.98 438.79)"><path d="m0 0v-2.967h-11.84c0.169 6.66 3.099 9.959 5.532 11.899 1.867 1.489 3.402 1.875 3.402 3.669 0 1.643-1.334 2.98-2.977 2.98s-2.977-1.337-2.977-2.98h-2.98c0.074 3.339 2.613 5.933 5.957 5.933 3.276 0 5.883-2.671 5.883-5.933 0-6.211-6.641-4.084-8.564-12.601z"/></g><g transform="translate(383.88 442.5)"><path d="m0 0c0-2.349 1.189-4.081 2.98-4.081s2.98 1.555 2.98 3.78c0 2.224-1.189 3.859-2.98 3.859s-2.98-1.556-2.98-3.558m8.937-0.301c0-4.008-2.309-6.744-5.957-6.744-3.876 0-5.883 2.818-5.883 7.639 0 5.078 2.678 10.456 7.294 14.014l1.709-2.369c-1.791-1.337-3.722-3.86-4.47-5.857 0.446 0.058 0.895 0.074 1.342 0.074 3.648 0 5.965-2.75 5.965-6.757"/></g></g><text transform="matrix(1 0 0 -1 481.73 390.61)" fill="black" font-family="Helvetica" font-size="9px"><tspan x="0 8.4960003 13.5 18.504 21.500999 26.504999" y="0">W12-2a</tspan></text><g clip-path="url(#l)"><g transform="translate(426.82 403.07)"><path d="m0 0c-1.89 0-3.428 1.538-3.428 3.427v35.663c0 1.889 1.538 3.427 3.428 3.427h141.33c1.89 0 3.427-1.538 3.427-3.427v-35.663c0-1.889-1.537-3.427-3.427-3.427z" fill="#ffd046"/></g><g transform="translate(568.15 445.72)"><path d="m0 0h-141.33c-1.959 0-3.552-1.594-3.552-3.552v-35.663c0-1.958 1.593-3.552 3.552-3.552h141.33c1.959 0 3.552 1.594 3.552 3.552v35.663c0 1.958-1.593 3.552-3.552 3.552m0-0.25c1.816 0 3.302-1.486 3.302-3.302v-35.663c0-1.816-1.486-3.302-3.302-3.302h-141.33c-1.816 0-3.302 1.486-3.302 3.302v35.663c0 1.816 1.486 3.302 3.302 3.302z"/></g><g transform="translate(426.82 404.3)"><path d="m0 0c-0.584 0-1.136 0.23-1.554 0.648-0.417 0.417-0.647 0.969-0.647 1.553v35.663c0 0.584 0.23 1.136 0.647 1.554 0.418 0.417 0.97 0.647 1.554 0.647h141.33c0.584 0 1.136-0.23 1.554-0.647 0.417-0.418 0.647-0.97 0.647-1.554v-35.663c0-0.584-0.23-1.136-0.647-1.553-0.418-0.418-0.97-0.648-1.554-0.648z"/></g><g transform="translate(426.82 405.62)"><path d="m0 0c-0.235 0-0.449 0.09-0.62 0.261-0.17 0.17-0.261 0.385-0.261 0.62v35.662c0 0.235 0.091 0.45 0.261 0.62 0.171 0.171 0.385 0.261 0.62 0.261h141.33c0.235 0 0.449-0.09 0.62-0.261 0.17-0.17 0.26-0.385 0.26-0.62v-35.662c0-0.235-0.09-0.45-0.26-0.62-0.171-0.171-0.385-0.261-0.62-0.261z" fill="#ffd046"/></g><g transform="translate(478.91 425.33)"><path d="m0 0v-2.867h4.415v-2.571h-4.415v-6.13h-2.58v14.089h10.567v-2.521z"/></g><g transform="translate(494.54 425.38)"><path d="m0 0v-11.617h-2.469v11.617h-4.049v2.472h10.567v-2.472z"/></g><g transform="translate(443.9 413.77)"><path d="m0 0 0.074 15.794h-2.654l-0.074 3.041c1.622 0.371 2.506 0.964 3.317 2.299h3.023v-21.134z"/></g><g transform="translate(464.23 429.93)"><path d="m0 0-8.232-8.453h8.232zm3.708-11.864v-4.301h-3.708v4.301h-13.053v3.411l13.053 13.421h3.708v-13.421h3.115v-3.411z"/></g><g transform="translate(523.97 429.93)"><path d="m0 0-8.232-8.453h8.232zm3.708-11.864v-4.301h-3.708v4.301h-13.053v3.411l13.053 13.421h3.708v-13.421h3.115v-3.411z"/></g><path d="m536.11 427.86h2.536v-14.089h-2.536z"/><g transform="translate(551.55 413.77)"><path d="m0 0-6.752 9.689v-9.689h-2.483v14.089h2.483l6.504-9.294v9.294h2.433v-14.089z"/></g></g><text transform="matrix(1 0 0 -1 344.39 294.89)" fill="black" font-family="Helvetica" font-size="9px"><tspan x="0 8.4960003 13.5 18.504 21.500999 26.504999" y="0">W14-1a</tspan></text><g clip-path="url(#k)"><g transform="translate(331.09 306.66)"><path d="m0 0c-1.525 0-2.767 1.241-2.767 2.767v8.805c0 1.526 1.242 2.767 2.767 2.767h58.117c1.526 0 2.767-1.241 2.767-2.767v-8.805c0-1.526-1.241-2.767-2.767-2.767z" fill="#ffd046"/></g><g transform="translate(389.21 321.12)"><path d="m0 0h-58.117c-1.594 0-2.892-1.297-2.892-2.892v-8.805c0-1.595 1.298-2.892 2.892-2.892h58.117c1.595 0 2.892 1.297 2.892 2.892v8.805c0 1.595-1.297 2.892-2.892 2.892m0-0.25c1.459 0 2.642-1.183 2.642-2.642v-8.805c0-1.459-1.183-2.642-2.642-2.642h-58.117c-1.459 0-2.642 1.183-2.642 2.642v8.805c0 1.459 1.183 2.642 2.642 2.642z"/></g><g transform="translate(331.09 307.44)"><path d="m0 0c-1.092 0-1.981 0.889-1.981 1.981v8.806c0 1.092 0.889 1.981 1.981 1.981h58.117c1.092 0 1.981-0.889 1.981-1.981v-8.806c0-1.092-0.889-1.981-1.981-1.981z"/></g><g transform="translate(331.09 308.1)"><path d="m0 0c-0.728 0-1.321 0.592-1.321 1.321v8.805c0 0.729 0.593 1.321 1.321 1.321h58.117c0.728 0 1.321-0.592 1.321-1.321v-8.805c0-0.729-0.593-1.321-1.321-1.321z" fill="#ffd046"/></g><g transform="translate(381.5 317.25)"><path d="m0 0c-0.089 0.061-0.196 0.096-0.311 0.096-0.304 0-0.551-0.246-0.551-0.55 0-0.068 0.013-0.133 0.035-0.194l0.557-1.45h-5.325v-2.642h5.33l-0.562-1.464c-0.022-0.06-0.035-0.125-0.035-0.194 0-0.303 0.247-0.55 0.551-0.55 0.115 0 0.222 0.036 0.311 0.097l4.972 3.425z"/></g><g transform="translate(335.64 316.36)"><path d="m0 0h-0.79v-5.067h0.703c0.824 0 1.246 0.36 1.246 2.497 0 2.475-0.617 2.57-1.159 2.57m-1.801-6.056v7.045h2.011c0.429 0 1.936-0.021 1.936-3.51 0-3.192-1.391-3.535-1.853-3.535z"/></g><g transform="translate(339.19 317.35)"><path d="m0 0h3.322v-0.989h-2.306v-1.779h1.462v-0.965h-1.462v-2.323h2.578v-0.988h-3.594z"/></g><g transform="translate(345.15 313.22)"><path d="m0 0h1.016l-0.52 2.027zm1.264-0.989h-1.511l-0.472-1.927h-1.016l1.76 7.044h0.992l1.758-7.044h-1.016z"/></g><g transform="translate(350.72 316.36)"><path d="m0 0h-0.79v-5.067h0.703c0.824 0 1.246 0.36 1.246 2.497 0 2.475-0.618 2.57-1.159 2.57m-1.801-6.056v7.045h2.01c0.43 0 1.937-0.021 1.937-3.51 0-3.192-1.391-3.535-1.853-3.535z"/></g><g transform="translate(357.27 317.35)"><path d="m0 0h3.322v-0.989h-2.306v-1.779h1.462v-0.965h-1.462v-2.323h2.579v-0.988h-3.595z"/></g><g transform="translate(363.07 315.02)"><path d="m0 0v-4.721h-1.011v7.045h1.011l1.924-4.227v4.227h1.012v-7.045h-0.764z"/></g><g transform="translate(369.36 316.36)"><path d="m0 0h-0.79v-5.067h0.703c0.824 0 1.246 0.36 1.246 2.497 0 2.475-0.617 2.57-1.159 2.57m-1.801-6.056v7.045h2.011c0.429 0 1.936-0.021 1.936-3.51 0-3.192-1.391-3.535-1.853-3.535z"/></g></g><text transform="matrix(1 0 0 -1 405.32 294.89)" fill="black" font-family="Helvetica" font-size="9px"><tspan x="0 8.4960003 13.5 18.504 21.500999" y="0">W14-2</tspan></text><g clip-path="url(#j)"><g transform="translate(418.57 306.66)"><path d="m0 0c-0.916 0-1.776 0.356-2.424 1.004l-32.689 32.689c-1.335 1.336-1.335 3.51 0 4.847l32.689 32.689c0.648 0.647 1.508 1.004 2.424 1.004 0.915 0 1.775-0.357 2.423-1.004l32.689-32.689c0.648-0.648 1.004-1.508 1.004-2.424 0-0.915-0.356-1.776-1.005-2.423l-32.687-32.689c-0.649-0.648-1.509-1.004-2.424-1.004" fill="#ffd046"/></g><g transform="translate(418.57 379.01)"><path d="m0 0c-0.949 0-1.841-0.369-2.512-1.04l-32.689-32.689c-0.671-0.671-1.04-1.563-1.04-2.512s0.369-1.841 1.04-2.512l32.689-32.689c0.671-0.671 1.563-1.04 2.512-1.04s1.841 0.369 2.512 1.04l32.689 32.689c1.385 1.385 1.385 3.639 0 5.023l-32.689 32.69c-0.671 0.671-1.563 1.04-2.512 1.04m0-0.25c0.845 0 1.69-0.322 2.335-0.967l32.689-32.689c1.29-1.29 1.29-3.381 0-4.67l-32.689-32.689c-0.645-0.645-1.49-0.967-2.335-0.967s-1.69 0.322-2.335 0.967l-32.689 32.689c-1.29 1.289-1.29 3.38 0 4.67l32.689 32.689c0.645 0.645 1.49 0.967 2.335 0.967"/></g><g transform="translate(384.17 341.06)"><path d="m0 0c-0.944 0.944-0.944 2.48 0 3.425l32.689 32.689c0.944 0.944 2.481 0.944 3.425 0l32.689-32.689c0.944-0.945 0.944-2.481 0-3.425l-32.689-32.689c-0.944-0.944-2.481-0.944-3.425 0z"/></g><g transform="translate(385.1 341.99)"><path d="m0 0c-0.429 0.429-0.429 1.128 0 1.557l32.689 32.689c0.429 0.429 1.127 0.429 1.557 0l32.689-32.689c0.429-0.429 0.429-1.128 0-1.557l-32.689-32.689c-0.429-0.429-1.128-0.429-1.557 0z" fill="#ffd046"/></g><g transform="translate(411.72 358.73)"><path d="m0 0v-7.155h-1.667v10.567h1.667l3.857-6.748v6.748h1.669v-10.567h-1.483z"/></g><g transform="translate(423.35 353.1)"><path d="m0 0c1.139 0 2.063 1.079 2.063 3.764 0 2.686-0.924 3.765-2.063 3.765-1.138 0-2.063-1.078-2.063-3.765 0-2.685 0.925-3.764 2.063-3.764m3.735 3.764c0-0.379 0.081-5.468-3.753-5.468-3.835 0-3.754 5.089-3.754 5.468s-0.081 5.467 3.754 5.467c3.834 0 3.753-5.088 3.753-5.467"/></g><g transform="translate(397.92 335.48)"><path d="m0 0c1.138 0 2.063 1.079 2.063 3.764 0 2.686-0.925 3.765-2.063 3.765-1.139 0-2.063-1.078-2.063-3.765 0-2.685 0.924-3.764 2.063-3.764m3.735 3.764c0-0.379 0.081-5.468-3.753-5.468-3.835 0-3.754 5.089-3.754 5.468s-0.081 5.467 3.754 5.467c3.834 0 3.753-5.088 3.753-5.467"/></g><g transform="translate(403.98 337.75)"><path d="m0 0v6.785h1.667v-6.785c0-1.372 0.779-2.261 1.928-2.261s1.929 0.889 1.929 2.261v6.785h1.669v-6.785c0-3.342-2.564-3.966-3.597-3.966-0.94 0-3.596 0.553-3.596 3.966"/></g><g transform="translate(416.85 333.97)"><path d="m0 0h-1.676v9.083h-2.42v1.484h6.554v-1.484h-2.458z"/></g><g transform="translate(420.9 344.53)"><path d="m0 0h1.667v-9.009h4.887v-1.558h-6.554z"/></g><g transform="translate(429.04 344.53)"><path d="m0 0h6.221v-1.668h-4.554v-2.596h3.073v-1.705h-3.073v-2.893h4.887v-1.705h-6.554z"/></g><g transform="translate(440.53 333.97)"><path d="m0 0h-1.676v9.083h-2.42v1.484h6.554v-1.484h-2.458z"/></g></g><text transform="matrix(1 0 0 -1 461.23 294.89)" fill="black" font-family="Helvetica" font-size="9px"><tspan x="0 8.4960003 13.5 18.504 21.500999 26.504999" y="0">W14-2a</tspan></text><g clip-path="url(#i)"><g transform="translate(447.93 306.66)"><path d="m0 0c-1.525 0-2.767 1.241-2.767 2.767v8.805c0 1.526 1.242 2.767 2.767 2.767h58.117c1.526 0 2.767-1.241 2.767-2.767v-8.805c0-1.526-1.241-2.767-2.767-2.767z" fill="#ffd046"/></g><g transform="translate(506.04 321.12)"><path d="m0 0h-58.117c-1.595 0-2.892-1.297-2.892-2.892v-8.805c0-1.595 1.297-2.892 2.892-2.892h58.117c1.594 0 2.892 1.297 2.892 2.892v8.805c0 1.595-1.298 2.892-2.892 2.892m0-0.25c1.459 0 2.642-1.183 2.642-2.642v-8.805c0-1.459-1.183-2.642-2.642-2.642h-58.117c-1.459 0-2.642 1.183-2.642 2.642v8.805c0 1.459 1.183 2.642 2.642 2.642z"/></g><g transform="translate(447.93 307.44)"><path d="m0 0c-1.092 0-1.981 0.889-1.981 1.981v8.806c0 1.092 0.889 1.981 1.981 1.981h58.117c1.092 0 1.981-0.889 1.981-1.981v-8.806c0-1.092-0.889-1.981-1.981-1.981z"/></g><g transform="translate(447.93 308.1)"><path d="m0 0c-0.728 0-1.321 0.592-1.321 1.321v8.805c0 0.729 0.593 1.321 1.321 1.321h58.117c0.728 0 1.321-0.592 1.321-1.321v-8.805c0-0.729-0.593-1.321-1.321-1.321z" fill="#ffd046"/></g><g transform="translate(499.76 317.25)"><path d="m0 0c-0.089 0.061-0.196 0.096-0.311 0.096-0.304 0-0.551-0.246-0.551-0.55 0-0.068 0.013-0.133 0.035-0.194l0.557-1.45h-5.325v-2.642h5.33l-0.562-1.464c-0.022-0.06-0.035-0.125-0.035-0.194 0-0.303 0.247-0.55 0.551-0.55 0.115 0 0.222 0.036 0.311 0.097l4.972 3.425z"/></g><g transform="translate(450.25 315.02)"><path d="m0 0v-4.721h-1.011v7.045h1.011l1.924-4.227v4.227h1.012v-7.045h-0.765z"/></g><g transform="translate(456.68 316.48)"><path d="m0 0c-0.201 0-1.108 0.041-1.108-2.647 0-2.708 0.907-2.666 1.108-2.666s1.108-0.042 1.108 2.666c0 2.688-0.907 2.647-1.108 2.647m-2.079-2.642c0 3.689 1.711 3.63 2.091 3.63 0.379 0 2.067 0.056 2.067-3.632 0-3.715-1.688-3.657-2.067-3.657-0.38 0-2.091-0.058-2.091 3.659"/></g><g transform="translate(464.8 316.48)"><path d="m0 0c-0.201 0-1.109 0.041-1.109-2.647 0-2.708 0.908-2.666 1.109-2.666s1.108-0.042 1.108 2.666c0 2.688-0.907 2.647-1.108 2.647m-2.079-2.642c0 3.689 1.711 3.63 2.09 3.63 0.38 0 2.068 0.056 2.068-3.632 0-3.715-1.688-3.657-2.068-3.657-0.379 0-2.09-0.058-2.09 3.659"/></g><g transform="translate(468.28 312.35)"><path d="m0 0v4.997h1.011v-5.067c0-0.663 0.387-1.113 0.986-1.113 0.543 0 0.938 0.445 0.938 1.113v5.067h1.012v-5.012c0-1.603-1.238-2.156-1.95-2.156-0.651 0-1.997 0.424-1.997 2.171"/></g><g transform="translate(475.52 310.3)"><path d="m0 0h-1.016v6.105h-1.289v0.939h3.594v-0.939h-1.289z"/></g><g transform="translate(477.8 317.35)"><path d="m0 0h1.016v-6.105h2.578v-0.939h-3.594z"/></g><g transform="translate(482.38 317.35)"><path d="m0 0h3.321v-0.989h-2.305v-1.779h1.462v-0.965h-1.462v-2.323h2.578v-0.988h-3.594z"/></g><g transform="translate(488.91 310.3)"><path d="m0 0h-1.016v6.105h-1.289v0.939h3.594v-0.939h-1.289z"/></g></g><text transform="matrix(1 0 0 -1 522.15 294.89)" fill="black" font-family="Helvetica" font-size="9px"><tspan x="0 8.4960003 13.5 18.504 21.500999" y="0">W18-1</tspan></text><g clip-path="url(#h)"><g transform="translate(535.4 306.66)"><path d="m0 0c-0.916 0-1.776 0.356-2.424 1.004l-32.689 32.689c-1.335 1.336-1.335 3.51 0 4.847l32.689 32.689c0.648 0.647 1.508 1.004 2.424 1.004 0.915 0 1.775-0.357 2.423-1.004l32.689-32.689c0.648-0.648 1.004-1.508 1.004-2.424 0-0.915-0.356-1.776-1.005-2.423l-32.687-32.689c-0.649-0.648-1.509-1.004-2.424-1.004" fill="#ffd046"/></g><g transform="translate(535.4 379.01)"><path d="m0 0c-0.949 0-1.841-0.369-2.512-1.04l-32.689-32.689c-0.671-0.671-1.04-1.563-1.04-2.512s0.369-1.841 1.04-2.512l32.689-32.689c0.671-0.671 1.563-1.04 2.512-1.04s1.841 0.369 2.512 1.04l32.689 32.689c0.671 0.671 1.04 1.563 1.04 2.512s-0.369 1.841-1.04 2.512l-32.689 32.689c-0.671 0.671-1.563 1.04-2.512 1.04m0-0.25c0.845 0 1.69-0.322 2.335-0.967l32.689-32.689c1.29-1.29 1.29-3.381 0-4.67l-32.689-32.689c-0.645-0.645-1.49-0.967-2.335-0.967s-1.69 0.322-2.335 0.967l-32.689 32.689c-1.29 1.289-1.29 3.38 0 4.67l32.689 32.689c0.645 0.645 1.49 0.967 2.335 0.967"/></g><g transform="translate(537.12 308.37)"><path d="m0 0c-0.944-0.944-2.48-0.944-3.425 0l-32.689 32.689c-0.944 0.944-0.944 2.48 0 3.425l32.689 32.689c0.945 0.944 2.481 0.944 3.425 0l32.689-32.689c0.944-0.944 0.944-2.481 0-3.425z"/></g><g transform="translate(536.18 309.3)"><path d="m0 0c-0.429-0.429-1.128-0.429-1.557 0l-32.689 32.689c-0.429 0.429-0.429 1.128 0 1.557l32.689 32.689c0.429 0.429 1.128 0.429 1.557 0l32.689-32.689c0.429-0.429 0.429-1.128 0-1.557z" fill="#ffd046"/></g><g transform="translate(529.7 360.4)"><path d="m0 0v-5.962h-1.389v8.805h1.389l3.214-5.623v5.623h1.391v-8.805h-1.236z"/></g><g transform="translate(539.38 355.7)"><path d="m0 0c0.949 0 1.719 0.899 1.719 3.137s-0.77 3.137-1.719 3.137-1.719-0.898-1.719-3.137c0-2.238 0.77-3.137 1.719-3.137m3.113 3.137c0-0.316 0.067-4.557-3.128-4.557s-3.128 4.241-3.128 4.557-0.067 4.556 3.128 4.556 3.128-4.24 3.128-4.556"/></g><g transform="translate(516.22 340.13)"><path d="m0 0h-1.397v7.57h-2.016v1.236h5.461v-1.236h-2.048z"/></g><g transform="translate(522.73 345.38)"><path d="m0 0c1.105 0 1.279 0.797 1.279 1.081 0 0.384-0.287 1.082-1.212 1.082h-1.816v-2.163zm-1.749-1.42v-3.833h-1.389v8.806h3.185c2.019 0 2.624-1.615 2.624-2.473 0-0.327-0.121-1.615-1.367-2.205l1.552-4.128h-1.514l-1.421 3.833z"/></g><g transform="translate(529.15 344.02)"><path d="m0 0h1.771l-0.871 2.471zm2.267-1.421h-2.764l-0.871-2.472h-1.491l3.045 8.805h1.399l3.044-8.805h-1.491z"/></g><g transform="translate(536.49 345.38)"><path d="m0 0h2.561v-1.421h-2.561v-3.832h-1.389v8.806h5.461v-1.39h-4.072z"/></g><g transform="translate(543.27 345.38)"><path d="m0 0h2.561v-1.421h-2.561v-3.832h-1.389v8.806h5.461v-1.39h-4.072z"/></g><path d="m548.66 348.94h1.409v-8.806h-1.409z"/><g transform="translate(552.01 344.55)"><path d="m0 0c0 1.238 0.249 4.54 3.244 4.54 1.276 0 2.146-0.519 2.75-1.791l-1.298-0.556c-0.45 0.647-0.674 0.926-1.451 0.926-1.843 0-1.823-2.568-1.823-3.12 0-0.546-0.034-3.153 1.884-3.153 0.673 0 1.059 0.407 1.36 1.021l1.328-0.494c-0.495-1.225-1.327-1.945-2.658-1.945-3.169 0-3.336 3.5-3.336 4.572"/></g><g transform="translate(519.28 327.89)"><path d="m0 0 1.327 0.493c0.371-0.833 1.053-1.295 1.886-1.295 0.802 0 1.361 0.554 1.361 1.295 0 1.177-1.361 1.357-2.502 1.821-0.525 0.215-1.698 0.74-1.698 2.19 0 1.729 1.173 2.376 2.746 2.376 1.234 0 2.067-0.709 2.5-1.789l-1.235-0.37c-0.204 0.397-0.631 0.771-1.37 0.771-1.066 0-1.287-0.581-1.287-0.889 0-0.822 0.71-0.985 1.862-1.347 1.174-0.369 2.404-0.909 2.404-2.794-1e-3 -1.899-1.543-2.683-2.781-2.683-1.512 0-2.626 0.893-3.213 2.221"/></g><path d="m526.77 334.63h1.409v-8.806h-1.409z"/><g transform="translate(533.3 334.78)"><path d="m0 0c1.411 0 2.206-0.535 2.802-1.946l-1.328-0.524c-0.371 0.773-0.741 1.05-1.421 1.05-1.935 0-1.824-2.945-1.824-3.151 0-0.331-0.075-3.121 1.638-3.121 0.896 0 1.545 0.556 1.545 1.36v0.37h-1.607v1.391h2.996v-1.761c0-1.606-1.173-2.781-2.781-2.781-0.319 0-3.212-0.263-3.212 4.557 0 0.675 0.038 4.556 3.192 4.556"/></g><g transform="translate(539.43 331.78)"><path d="m0 0v-5.962h-1.389v8.805h1.389l3.214-5.623v5.623h1.391v-8.805h-1.236z"/></g><g transform="translate(545.54 327.89)"><path d="m0 0 1.327 0.493c0.371-0.833 1.053-1.295 1.886-1.295 0.802 0 1.361 0.554 1.361 1.295 0 1.177-1.361 1.357-2.503 1.821-0.525 0.215-1.697 0.74-1.697 2.19 0 1.729 1.172 2.376 2.746 2.376 1.234 0 2.067-0.709 2.5-1.789l-1.235-0.37c-0.204 0.397-0.631 0.771-1.37 0.771-1.066 0-1.287-0.581-1.287-0.889 0-0.822 0.71-0.985 1.862-1.347 1.174-0.369 2.404-0.909 2.404-2.794-1e-3 -1.899-1.543-2.683-2.781-2.683-1.512 0-2.626 0.893-3.213 2.221"/></g></g><text transform="matrix(1 0 0 -1 181.2 154.51)" fill="black" font-family="Helvetica" font-size="9px"><tspan x="0 8.4960003 13.5 18.504 21.500999" y="0">W19-1</tspan></text><g clip-path="url(#g)"><g transform="translate(78.216 167.13)"><path d="m0 0c-5.895 0-10.692 4.796-10.692 10.691v63.401c0 5.895 4.797 10.692 10.692 10.692h232.47c5.895 0 10.692-4.797 10.692-10.692v-63.401c0-5.895-4.797-10.691-10.692-10.691z" fill="#ffd046"/></g><g transform="translate(310.68 252.04)"><path d="m0 0h-232.47c-5.964 0-10.817-4.852-10.817-10.817v-63.4c0-5.964 4.853-10.817 10.817-10.817h232.47c5.964 0 10.817 4.853 10.817 10.817v63.4c0 5.965-4.853 10.817-10.817 10.817m0-0.25c5.836 0 10.567-4.731 10.567-10.567v-63.4c0-5.836-4.731-10.567-10.567-10.567h-232.47c-5.836 0-10.567 4.731-10.567 10.567v63.4c0 5.836 4.731 10.567 10.567 10.567z"/></g><g transform="translate(78.216 168.58)"><path d="m0 0c-2.47 0-4.792 0.962-6.538 2.708s-2.708 4.068-2.708 6.538v63.4c0 2.47 0.962 4.792 2.708 6.538s4.068 2.708 6.538 2.708h232.47c2.469 0 4.791-0.962 6.538-2.708 1.746-1.746 2.708-4.068 2.708-6.538v-63.4c0-2.47-0.962-4.792-2.708-6.538-1.747-1.746-4.069-2.708-6.538-2.708z"/></g><g transform="translate(78.216 170.78)"><path d="m0 0c-1.882 0-3.651 0.733-4.981 2.063-1.331 1.331-2.063 3.1-2.063 4.981v63.401c0 1.881 0.732 3.65 2.063 4.981 1.33 1.331 3.099 2.063 4.981 2.063h232.47c1.882 0 3.65-0.732 4.981-2.063 1.33-1.331 2.063-3.1 2.063-4.981v-63.401c0-1.881-0.733-3.65-2.063-4.981-1.331-1.33-3.099-2.063-4.981-2.063z" fill="#ffd046"/></g><g transform="translate(222.37 184.87)"><path d="m0 0v17.611h12.898v-3.151h-9.673v-3.275h5.27v-3.214h-5.27v-4.82h9.983v-3.151z"/></g><path d="m198.42 202.48h3.17v-17.611h-3.17z"/><g transform="translate(206.17 184.87)"><path d="m0 0v17.611h3.163v-14.892h10.045v-2.719z"/></g><g transform="translate(190.74 184.87)"><path d="m0 0v10.752l-5.211-10.752-5.149 10.752v-10.752h-3.102v17.611h3.102l5.149-10.443 5.211 10.443h3.102v-17.611z"/></g><g transform="translate(155.98 183.11)"><path d="m0 0 0.074 15.794h-2.654l-0.074 3.041c1.622 0.37 2.507 0.964 3.317 2.298h3.023v-21.133z"/></g><g transform="translate(93.643 228.32)"><path d="m0 0h5.519v-3.212h-5.519v-7.663h-3.225v17.611h13.208v-3.152h-9.983z"/></g><g transform="translate(109.77 231.91)"><path d="m0 0v-4.385h5.072c1.543 0 2.531 0.887 2.531 2.162 0 1.36-0.99 2.223-2.533 2.223zm7.909-6.921 3.212-7.538h-3.52l-2.842 6.921h-4.759v-6.921h-3.152v17.611h8.325c3.639 0 5.578-2.875 5.578-5.375 0-1.977-1.05-3.71-2.842-4.698"/></g><g transform="translate(124.42 235.06)"><path d="m0 0h12.897v-3.152h-9.672v-3.274h5.27v-3.214h-5.27v-4.819h9.983v-3.152h-13.208z"/></g><g transform="translate(141.15 235.06)"><path d="m0 0h12.897v-3.152h-9.672v-3.274h5.27v-3.214h-5.27v-4.819h9.983v-3.152h-13.208z"/></g><g transform="translate(168.48 217.45)"><path d="m0 0-2.846 11.802-2.783-11.802h-3.341l-3.216 17.611h3.277l1.918-11.37 2.599 11.37h3.155l2.723-11.37 1.792 11.37h3.216l-3.155-17.611z"/></g><g transform="translate(182.93 224.74)"><path d="m0 0h4.942l-2.47 5.933zm6.302-3.15h-7.66l-1.731-4.141h-3.458l7.414 17.611h3.212l7.35-17.611h-3.399z"/></g><g transform="translate(206.33 217.45)"><path d="m0 0h-3.15v7.168l-7.414 10.443h3.892l5.127-7.168 5.065 7.168h3.892l-7.412-10.443z"/></g><g transform="translate(231.36 235.06)"><path d="m0 0h12.898v-3.152h-9.673v-3.274h5.27v-3.214h-5.27v-4.819h9.983v-3.152h-13.208z"/></g><g transform="translate(251.19 229.56)"><path d="m0 0v-12.112h-3.102v17.611h3.1l8.134-11.619v11.619h3.04v-17.611h-2.732z"/></g><g transform="translate(270.15 231.91)"><path d="m0 0v-11.306h2.441c2.823 0 5.475 1.862 5.475 5.684 0 3.553-2.225 5.622-5.45 5.622zm-3.21 3.152h5.687c5.076 0 8.585-3.689 8.585-8.774 0-4.839-3.137-8.837-8.429-8.837h-5.843z"/></g><g transform="translate(296 218.33)"><path d="m0 0c-1.242-0.751-2.846-1.191-4.467-1.191-3.04 0-5.338 1.127-7.324 3.445l2.545 2.006c1.303-1.566 2.73-2.257 4.716-2.257 2.234 0 3.848 1.05 3.848 2.318 0 1.79-1.786 1.911-6.715 3.296-2.478 0.696-3.588 2.582-3.588 4.473 0 2.948 2.485 4.949 6.083 4.949 2.606 0 4.783-0.874 6.579-2.752l-2.359-2.131c-1.117 1.191-2.545 1.755-4.22 1.755-1.931 0-2.853-0.784-2.853-1.797 0-1.952 2.397-1.521 6.777-3.064 3.094-1.092 3.461-3.734 3.461-4.852 0-1.816-0.808-3.196-2.483-4.198"/></g></g><text transform="matrix(1 0 0 -1 181.2 45.493)" fill="black" font-family="Helvetica" font-size="9px"><tspan x="0 8.4960003 13.5 18.504 21.500999" y="0">W19-2</tspan></text><g clip-path="url(#f)"><g transform="translate(78.216 57.851)"><path d="m0 0c-5.895 0-10.692 4.796-10.692 10.691v63.401c0 5.895 4.797 10.692 10.692 10.692h232.47c5.895 0 10.692-4.797 10.692-10.692v-63.401c0-5.895-4.797-10.691-10.692-10.691z" fill="#ffd046"/></g><g transform="translate(310.68 142.76)"><path d="m0 0h-232.47c-5.964 0-10.817-4.852-10.817-10.817v-63.4c0-5.964 4.853-10.817 10.817-10.817h232.47c5.964 0 10.817 4.853 10.817 10.817v63.4c0 5.965-4.853 10.817-10.817 10.817m0-0.25c5.836 0 10.567-4.731 10.567-10.567v-63.4c0-5.836-4.731-10.567-10.567-10.567h-232.47c-5.836 0-10.567 4.731-10.567 10.567v63.4c0 5.836 4.731 10.567 10.567 10.567z"/></g><g transform="translate(78.216 59.297)"><path d="m0 0c-2.47 0-4.792 0.962-6.538 2.708s-2.708 4.068-2.708 6.538v63.4c0 2.47 0.962 4.792 2.708 6.538s4.068 2.708 6.538 2.708h232.47c2.469 0 4.791-0.962 6.538-2.708 1.746-1.746 2.708-4.068 2.708-6.538v-63.4c0-2.47-0.962-4.792-2.708-6.538-1.747-1.746-4.069-2.708-6.538-2.708z"/></g><g transform="translate(78.216 61.499)"><path d="m0 0c-1.882 0-3.651 0.733-4.981 2.063-1.331 1.331-2.063 3.1-2.063 4.981v63.401c0 1.881 0.732 3.65 2.063 4.981 1.33 1.33 3.099 2.063 4.981 2.063h232.47c1.882 0 3.65-0.733 4.981-2.063 1.33-1.331 2.063-3.1 2.063-4.981v-63.401c0-1.881-0.733-3.65-2.063-4.981-1.331-1.33-3.099-2.063-4.981-2.063z" fill="#ffd046"/></g><g transform="translate(222.37 75.587)"><path d="m0 0v17.611h12.898v-3.151h-9.673v-3.275h5.27v-3.214h-5.27v-4.819h9.983v-3.152z"/></g><path d="m198.42 93.198h3.17v-17.611h-3.17z"/><g transform="translate(206.17 75.587)"><path d="m0 0v17.611h3.163v-14.892h10.045v-2.719z"/></g><g transform="translate(190.74 75.587)"><path d="m0 0v10.752l-5.211-10.752-5.149 10.752v-10.752h-3.102v17.611h3.102l5.149-10.443 5.211 10.443h3.102v-17.611z"/></g><g transform="translate(155.98 73.826)"><path d="m0 0 0.074 15.794h-2.654l-0.074 3.041c1.622 0.37 2.507 0.964 3.318 2.299h3.022v-21.134z"/></g><g transform="translate(84.746 125.78)"><path d="m0 0h10.368v-2.78h-7.59v-4.326h5.122v-2.842h-5.122v-4.821h8.145v-2.842h-10.923z"/></g><g transform="translate(103.42 114.04)"><path d="m0 0-2.842-5.871h-3.152l4.387 9.083-4.079 8.528h3.152l2.534-5.252 2.534 5.252h3.152l-4.141-8.528 4.449-9.083h-3.152z"/></g><g transform="translate(115.19 118.67)"><path d="m0 0h3.921c2.21 0 2.445 1.594 2.445 2.162 0 0.825-0.621 2.164-2.351 2.164h-4.015zm3.28-2.842h-3.28v-7.663h-2.778v17.611h6.657c4.143 0 5.331-3.368 5.331-4.944 0-1.094-0.601-5.004-5.93-5.004"/></g><g transform="translate(133.32 118.67)"><path d="m0 0c2.21 0 2.558 1.594 2.558 2.162 0 0.768-0.575 2.164-2.424 2.164h-3.632v-4.326zm-3.498-2.84v-7.665h-2.778v17.611h6.371c4.037 0 5.248-3.229 5.248-4.946 0-0.654-0.243-3.23-2.734-4.41l3.103-8.255h-3.029l-2.842 7.665z"/></g><g transform="translate(142.03 125.78)"><path d="m0 0h10.368v-2.78h-7.59v-4.326h5.122v-2.842h-5.122v-4.821h8.145v-2.842h-10.923z"/></g><g transform="translate(154.71 112.3)"><path d="m0 0 2.655 0.986c0.742-1.666 2.104-2.591 3.771-2.591 1.604 0 2.723 1.11 2.723 2.591 0 2.353-2.723 2.714-5.006 3.641-1.05 0.432-3.395 1.482-3.395 4.381 0 3.458 2.345 4.753 5.493 4.753 2.467 0 4.134-1.42 4.999-3.58l-2.47-0.739c-0.407 0.794-1.261 1.543-2.741 1.543-2.131 0-2.573-1.162-2.573-1.779 0-1.644 1.42-1.97 3.725-2.694 2.346-0.738 4.807-1.819 4.807-5.587-2e-3 -3.8-3.086-5.367-5.562-5.367-3.025 0-5.253 1.787-6.426 4.442"/></g><g transform="translate(168.46 112.3)"><path d="m0 0 2.655 0.986c0.742-1.666 2.104-2.591 3.771-2.591 1.604 0 2.723 1.11 2.723 2.591 0 2.353-2.723 2.714-5.006 3.641-1.05 0.432-3.394 1.482-3.394 4.381 0 3.458 2.344 4.753 5.492 4.753 2.467 0 4.134-1.42 4.999-3.58l-2.47-0.739c-0.407 0.794-1.261 1.543-2.741 1.543-2.13 0-2.573-1.162-2.573-1.779 0-1.644 1.42-1.97 3.725-2.694 2.346-0.738 4.807-1.819 4.807-5.587-2e-3 -3.8-3.086-5.367-5.562-5.367-3.025 0-5.253 1.787-6.426 4.442"/></g><g transform="translate(192.46 108.17)"><path d="m0 0-2.791 11.309-2.728-11.309h-2.48l-2.603 17.611h2.851l1.365-9.27 2.23 9.27h2.73l2.291-9.27 1.365 9.27h2.851l-2.604-17.611z"/></g><g transform="translate(204.32 115.95)"><path d="m0 0h3.542l-1.741 4.942zm4.535-2.842h-5.53l-1.741-4.944h-2.983l6.091 17.611h2.798l6.089-17.611h-2.983z"/></g><g transform="translate(223.64 108.17)"><path d="m0 0h-2.796v7.663l-6.209 9.948h3.354l4.222-6.798 4.286 6.798h3.291l-6.148-9.948z"/></g><g transform="translate(247.4 125.78)"><path d="m0 0h10.369v-2.78h-7.591v-4.326h5.123v-2.842h-5.123v-4.821h8.145v-2.842h-10.923z"/></g><g transform="translate(264.1 120.09)"><path d="m0 0v-11.925h-2.778v17.611h2.778l6.428-11.247v11.247h2.783v-17.611h-2.473z"/></g><g transform="translate(283.46 123)"><path d="m0 0h-3.152v-11.987h2.956c2.562 0 3.403 3.104 3.403 6.42 0 1.576-0.449 5.567-3.207 5.567m-5.931-14.831v17.611h6.354c4.444 0 5.635-5.853 5.635-8.409 0-6.606-3.397-9.202-5.624-9.202z"/></g><g transform="translate(292.17 112.3)"><path d="m0 0 2.655 0.986c0.742-1.666 2.104-2.591 3.771-2.591 1.605 0 2.723 1.11 2.723 2.591 0 2.353-2.723 2.714-5.006 3.641-1.05 0.432-3.394 1.482-3.394 4.381 0 3.458 2.344 4.753 5.492 4.753 2.468 0 4.134-1.42 4.999-3.58l-2.47-0.739c-0.407 0.794-1.261 1.543-2.74 1.543-2.131 0-2.574-1.162-2.574-1.779 0-1.644 1.42-1.97 3.725-2.694 2.347-0.738 4.808-1.819 4.808-5.588-2e-3 -3.799-3.087-5.366-5.563-5.366-3.025 0-5.253 1.787-6.426 4.442"/></g></g><text transform="matrix(1 0 0 -1 375.52 154.51)" fill="black" font-family="Helvetica" font-size="9px"><tspan x="0 8.4960003 13.5 18.504 21.500999" y="0">W19-3</tspan></text><g clip-path="url(#e)"><g transform="translate(388.78 167.14)"><path d="m0 0c-1.444 0-2.803 0.562-3.824 1.585l-52.303 52.301c-1.021 1.022-1.584 2.381-1.584 3.825s0.563 2.803 1.584 3.825l52.303 52.302c1.021 1.021 2.38 1.584 3.824 1.584 1.445 0 2.803-0.563 3.825-1.584l52.303-52.302c2.107-2.109 2.107-5.541 0-7.649l-52.303-52.303c-1.022-1.022-2.38-1.584-3.825-1.584" fill="#ffd046"/></g><g transform="translate(388.78 282.68)"><path d="m0 0c-1.478 0-2.867-0.576-3.913-1.621l-52.302-52.302c-2.158-2.158-2.158-5.668 0-7.826l52.302-52.302c1.045-1.045 2.435-1.621 3.913-1.621s2.868 0.576 3.913 1.621l52.302 52.302c2.158 2.158 2.158 5.668 0 7.826l-52.302 52.302c-1.045 1.045-2.435 1.621-3.913 1.621m0-0.25c1.352 0 2.704-0.516 3.736-1.548l52.303-52.302c2.063-2.063 2.063-5.409 0-7.472l-52.303-52.302c-1.032-1.032-2.384-1.548-3.736-1.548s-2.704 0.516-3.736 1.548l-52.302 52.302c-2.064 2.063-2.064 5.409 0 7.472l52.302 52.302c1.032 1.032 2.384 1.548 3.736 1.548"/></g><g transform="translate(391.58 169.74)"><path d="m0 0c-1.545-1.545-4.059-1.545-5.604 0l-52.302 52.303c-1.545 1.545-1.545 4.059 0 5.604l52.302 52.302c1.545 1.545 4.059 1.545 5.604 0l52.303-52.303c1.545-1.544 1.545-4.058 0-5.603z"/></g><g transform="translate(390.02 171.3)"><path d="m0 0c-0.687-0.687-1.804-0.687-2.491 0l-52.302 52.303c-0.687 0.686-0.687 1.804 0 2.49l52.302 52.303c0.687 0.687 1.804 0.687 2.491 0l52.303-52.303c0.686-0.686 0.686-1.804 0-2.49z" fill="#ffd046"/></g><g transform="translate(352.84 230.51)"><path d="m0 0h3.18v-2.169h-3.18v-7.452h-2.286v15.85h8.087v-2.225h-5.801z"/></g><g transform="translate(363.14 234.51)"><path d="m0 0v-4.004h2.33c1.335 0 2.054 0.723 2.054 2.003 0 1.224-0.832 2.001-2.052 2.001zm2.165-6.173h-2.165v-7.452h-2.274v15.85h4.717c2.486 0 4.162-1.668 4.162-4.226 0-1.89-0.778-3.281-2.276-3.838l2.274-7.786h-2.328z"/></g><g transform="translate(372.44 236.74)"><path d="m0 0h7.473v-2.225h-5.187v-4.004h3.289v-2.169h-3.289v-5.229h5.801v-2.223h-8.087z"/></g><g transform="translate(383.22 236.74)"><path d="m0 0h7.473v-2.225h-5.187v-4.004h3.289v-2.169h-3.289v-5.229h5.801v-2.223h-8.087z"/></g><g transform="translate(400.27 220.89)"><path d="m0 0-1.506 8.286-1.507-8.286h-2.007l-2.512 15.85h2.232l1.34-8.454 1.561 8.454h1.787l1.506-8.454 1.394 8.454h2.233l-2.568-15.85z"/></g><g transform="translate(409.64 227.45)"><path d="m0 0h2.286l-1.171 4.561zm2.843-2.225h-3.4l-1.06-4.337h-2.286l3.958 15.85h2.233l3.957-15.85h-2.287z"/></g><g transform="translate(423.03 220.89)"><path d="m0 0h-2.286v7.174l-3.903 8.676h2.397l2.677-5.728 2.621 5.728h2.452l-3.958-8.676z"/></g><g transform="translate(367.13 212.08)"><path d="m0 0h7.473v-2.225h-5.187v-4.004h3.289v-2.169h-3.289v-5.229h5.801v-2.223h-8.087z"/></g><g transform="translate(380.19 206.85)"><path d="m0 0v-10.621h-2.274v15.849h2.274l4.329-9.509v9.509h2.276v-15.849h-1.72z"/></g><g transform="translate(394.33 209.86)"><path d="m0 0h-1.777v-11.4h1.581c1.854 0 2.803 0.81 2.803 5.617 0 5.569-1.389 5.783-2.607 5.783m-4.051-13.625v15.85h4.522c0.967 0 4.357-0.048 4.357-7.897 0-7.182-3.13-7.953-4.168-7.953z"/></g><g transform="translate(406.01 198.17)"><path d="m0 0c1.228 0 2.233 1.113 2.233 2.393-2e-3 3.376-5.918 3.368-5.918 7.678 0 2.28 1.787 4.113 4.075 4.113 2.235 0 3.967-1.722 4.022-4.115h-2.181c-0.056 1.111-0.838 1.834-1.843 1.834-1.062 0-1.898-0.776-1.898-1.832 0-0.949 0.597-1.328 1.336-1.791 2.143-1.294 4.584-2.855 4.584-5.889 0-2.565-1.955-4.616-4.412-4.616-2.791 0-4.465 2.362-4.465 4.953h2.236c0-1.349 0.668-2.728 2.231-2.728"/></g></g><text transform="matrix(1 0 0 -1 500.52 154.51)" fill="black" font-family="Helvetica" font-size="9px"><tspan x="0 8.4960003 13.5 18.504 21.500999" y="0">W19-4</tspan></text><g clip-path="url(#d)"><g transform="translate(513.77 167.14)"><path d="m0 0c-1.445 0-2.803 0.562-3.825 1.584l-52.303 52.302c-1.021 1.022-1.584 2.381-1.584 3.825s0.563 2.803 1.584 3.825l52.303 52.302c1.022 1.021 2.38 1.584 3.825 1.584 1.444 0 2.802-0.563 3.824-1.584l52.303-52.302c1.022-1.022 1.584-2.381 1.584-3.825s-0.562-2.803-1.584-3.825l-52.303-52.302c-1.022-1.022-2.38-1.584-3.824-1.584" fill="#ffd046"/></g><g transform="translate(513.77 282.68)"><path d="m0 0c-1.478 0-2.868-0.576-3.913-1.621l-52.302-52.302c-2.158-2.158-2.158-5.668 0-7.826l52.302-52.302c1.045-1.045 2.435-1.621 3.913-1.621s2.867 0.576 3.913 1.621l52.302 52.302c2.158 2.158 2.158 5.668 0 7.826l-52.302 52.302c-1.046 1.045-2.435 1.621-3.913 1.621m0-0.25c1.352 0 2.704-0.516 3.736-1.548l52.303-52.302c2.063-2.063 2.063-5.409-1e-3 -7.472l-52.302-52.302c-1.032-1.032-2.384-1.548-3.736-1.548s-2.704 0.516-3.736 1.548l-52.303 52.302c-2.063 2.063-2.063 5.409 1e-3 7.472l52.302 52.302c1.032 1.032 2.384 1.548 3.736 1.548"/></g><g transform="translate(516.57 169.74)"><path d="m0 0c-1.545-1.545-4.059-1.545-5.604 0l-52.302 52.303c-1.546 1.545-1.546 4.059 0 5.604l52.302 52.302c1.545 1.545 4.059 1.545 5.604 0l52.303-52.303c1.545-1.544 1.545-4.058 0-5.603z"/></g><g transform="translate(515.02 171.3)"><path d="m0 0c-0.687-0.687-1.804-0.687-2.491 0l-52.302 52.303c-0.687 0.686-0.687 1.804 0 2.49l52.302 52.303c0.687 0.687 1.804 0.687 2.491 0l52.303-52.303c0.686-0.686 0.686-1.804 0-2.49z" fill="#ffd046"/></g><g transform="translate(470.98 231.01)"><path d="m0 0h5.812v-1.731h-4.034v-3.114h2.558v-1.687h-2.558v-4.067h4.512v-1.729h-6.29z"/></g><g transform="translate(481.99 222.88)"><path d="m0 0-1.743-4.195h-1.873l2.701 6.402-2.527 5.926h1.873l1.569-3.72 1.569 3.72h1.873l-2.484-5.926 2.702-6.402h-1.917z"/></g><g transform="translate(489.15 225.78)"><path d="m0 0h1.812c1.036 0 1.598 0.647 1.598 1.772 0 1.039-0.653 1.731-1.596 1.731h-1.814zm0-1.687v-5.408h-1.769v12.328h3.669c1.943 0 3.237-1.39 3.237-3.461 0-2.25-1.166-3.459-3.237-3.459z"/></g><g transform="translate(498.52 229.28)"><path d="m0 0v-3.114h1.812c1.039 0 1.598 0.562 1.598 1.558 0 0.952-0.647 1.556-1.596 1.556zm1.684-4.802h-1.684v-5.795h-1.769v12.328h3.669c1.934 0 3.237-1.298 3.237-3.287 0-1.47-0.605-2.552-1.77-2.985l1.769-6.056h-1.811z"/></g><g transform="translate(505.75 231.01)"><path d="m0 0h5.812v-1.731h-4.034v-3.114h2.558v-1.687h-2.558v-4.067h4.512v-1.729h-6.29z"/></g><g transform="translate(517 220.2)"><path d="m0 0c0.955 0 1.737 0.866 1.737 1.861-2e-3 2.626-4.603 2.62-4.603 5.972 0 1.773 1.39 3.199 3.17 3.199 1.738 0 3.084-1.339 3.128-3.201h-1.697c-0.043 0.865-0.652 1.427-1.433 1.427-0.826 0-1.476-0.604-1.476-1.425 0-0.738 0.464-1.033 1.038-1.393 1.668-1.007 3.566-2.221 3.566-4.58 0-1.996-1.521-3.59-3.432-3.59-2.171 0-3.473 1.836-3.473 3.852h1.74c0-1.05 0.519-2.122 1.735-2.122"/></g><g transform="translate(525.38 220.2)"><path d="m0 0c0.955 0 1.737 0.866 1.737 1.861-2e-3 2.626-4.603 2.62-4.603 5.972 0 1.773 1.39 3.199 3.17 3.199 1.738 0 3.084-1.339 3.128-3.201h-1.697c-0.043 0.865-0.652 1.427-1.433 1.427-0.826 0-1.476-0.604-1.476-1.425 0-0.738 0.464-1.033 1.038-1.393 1.668-1.007 3.566-2.221 3.566-4.58 0-1.996-1.521-3.59-3.432-3.59-2.171 0-3.473 1.836-3.473 3.852h1.74c0-1.05 0.519-2.122 1.735-2.122"/></g><g transform="translate(535.78 218.68)"><path d="m0 0-1.171 6.444-1.173-6.444h-1.561l-1.954 12.328h1.737l1.042-6.576 1.214 6.576h1.39l1.171-6.576 1.085 6.576h1.736l-1.997-12.328z"/></g><g transform="translate(543.08 223.79)"><path d="m0 0h1.778l-0.911 3.547zm2.211-1.73h-2.644l-0.824-3.374h-1.779l3.079 12.328h1.737l3.077-12.328h-1.778z"/></g><g transform="translate(553.49 218.68)"><path d="m0 0h-1.778v5.58l-3.036 6.748h1.865l2.082-4.455 2.038 4.455h1.908l-3.079-6.748z"/></g><g transform="translate(496.94 209.44)"><path d="m0 0h5.812v-1.73h-4.034v-3.115h2.558v-1.687h-2.558v-4.067h4.512v-1.729h-6.29z"/></g><g transform="translate(507.09 205.37)"><path d="m0 0v-8.261h-1.769v12.328h1.769l3.367-7.397v7.397h1.77v-12.328h-1.337z"/></g><g transform="translate(518.09 207.71)"><path d="m0 0h-1.382v-8.867h1.229c1.443 0 2.181 0.631 2.181 4.369 0 4.332-1.08 4.498-2.028 4.498m-3.151-10.597v12.327h3.518c0.752 0 3.388-0.036 3.388-6.142 0-5.586-2.434-6.185-3.242-6.185z"/></g><g transform="translate(527.17 198.62)"><path d="m0 0c0.955 0 1.736 0.866 1.736 1.862-1e-3 2.625-4.602 2.619-4.602 5.971 0 1.774 1.39 3.199 3.169 3.199 1.739 0 3.085-1.339 3.129-3.201h-1.697c-0.043 0.865-0.652 1.427-1.433 1.427-0.826 0-1.476-0.604-1.476-1.425 0-0.738 0.464-1.033 1.038-1.393 1.668-1.006 3.566-2.221 3.566-4.58 0-1.996-1.521-3.59-3.432-3.59-2.171 0-3.473 1.836-3.473 3.852h1.74c0-1.049 0.519-2.122 1.735-2.122"/></g></g><text transform="matrix(1 0 0 -1 288.48 294.89)" fill="black" font-family="Helvetica" font-size="9px"><tspan x="0 8.4960003 13.5 18.504 21.500999" y="0">W14-1</tspan></text><g clip-path="url(#c)"><g transform="translate(301.73 306.66)"><path d="m0 0c-0.916 0-1.776 0.356-2.423 1.004l-32.689 32.689c-0.648 0.647-1.004 1.508-1.004 2.423 0 0.916 0.356 1.776 1.004 2.424l32.689 32.689c0.647 0.647 1.507 1.004 2.423 1.004s1.776-0.357 2.423-1.004l32.69-32.689c0.647-0.648 1.004-1.508 1.004-2.424 0-0.915-0.357-1.776-1.005-2.423l-32.689-32.689c-0.647-0.648-1.507-1.004-2.423-1.004" fill="#ffd046"/></g><g transform="translate(301.73 379.01)"><path d="m0 0c-0.949 0-1.841-0.369-2.512-1.04l-32.689-32.689c-0.671-0.671-1.04-1.563-1.04-2.512s0.369-1.841 1.04-2.512l32.689-32.689c0.671-0.671 1.563-1.04 2.512-1.04s1.841 0.369 2.512 1.04l32.689 32.689c0.671 0.671 1.04 1.563 1.04 2.512s-0.369 1.841-1.04 2.512l-32.689 32.689c-0.671 0.671-1.563 1.04-2.512 1.04m0-0.25c0.845 0 1.69-0.322 2.335-0.967l32.689-32.689c1.29-1.29 1.29-3.381 0-4.67l-32.689-32.689c-0.645-0.645-1.49-0.967-2.335-0.967s-1.69 0.322-2.335 0.967l-32.689 32.689c-1.29 1.289-1.29 3.38 0 4.67l32.689 32.689c0.645 0.645 1.49 0.967 2.335 0.967"/></g><g transform="translate(267.33 341.06)"><path d="m0 0c-0.944 0.944-0.944 2.48 0 3.425l32.689 32.689c0.944 0.944 2.48 0.944 3.425 0l32.689-32.689c0.944-0.945 0.944-2.481 0-3.425l-32.689-32.689c-0.945-0.944-2.481-0.944-3.425 0z"/></g><g transform="translate(268.27 341.99)"><path d="m0 0c-0.429 0.429-0.429 1.128 0 1.557l32.689 32.689c0.429 0.429 1.128 0.429 1.557 0l32.689-32.689c0.429-0.429 0.429-1.128 0-1.557l-32.689-32.689c-0.429-0.429-1.128-0.429-1.557 0z" fill="#ffd046"/></g><g transform="translate(287.95 354.31)"><path d="m0 0h-1.891v-7.192h1.774c1.537 0 2.041 1.862 2.041 3.852 0 0.945-0.269 3.34-1.924 3.34m-3.558-8.898v10.566h3.812c2.666 0 3.381-3.512 3.381-5.045 0-3.964-2.038-5.521-3.375-5.521z"/></g><g transform="translate(293.91 355.98)"><path d="m0 0h6.221v-1.668h-4.554v-2.596h3.073v-1.705h-3.073v-2.892h4.887v-1.706h-6.554z"/></g><g transform="translate(304.74 350.08)"><path d="m0 0h2.125l-1.044 2.965zm2.721-1.705h-3.318l-1.045-2.967h-1.789l3.654 10.567h1.679l3.653-10.567h-1.789z"/></g><g transform="translate(315.44 354.31)"><path d="m0 0h-1.891v-7.192h1.773c1.538 0 2.042 1.862 2.042 3.852 0 0.945-0.269 3.34-1.924 3.34m-3.558-8.898v10.566h3.812c2.666 0 3.381-3.512 3.381-5.045 0-3.964-2.038-5.521-3.375-5.521z"/></g><g transform="translate(289.1 338.37)"><path d="m0 0h6.221v-1.668h-4.554v-2.596h3.073v-1.705h-3.073v-2.893h4.886v-1.705h-6.553z"/></g><g transform="translate(299.12 334.96)"><path d="m0 0v-7.155h-1.667v10.567h1.667l3.857-6.748v6.748h1.669v-10.567h-1.483z"/></g><g transform="translate(310.74 336.7)"><path d="m0 0h-1.891v-7.192h1.774c1.537 0 2.041 1.863 2.041 3.852 0 0.945-0.269 3.34-1.924 3.34m-3.558-8.898v10.566h3.812c2.666 0 3.381-3.512 3.381-5.045 0-3.964-2.038-5.521-3.375-5.521z"/></g></g><text transform="matrix(1 0 0 -1 438.02 45.492)" fill="black" font-family="Helvetica" font-size="9px"><tspan x="0 8.4960003 13.5 18.504 21.500999" y="0">W19-5</tspan></text><g clip-path="url(#b)"><g transform="translate(377.31 58.119)"><path d="m0 0c-2.982 0-5.409 2.426-5.409 5.408v73.968c0 2.982 2.427 5.408 5.409 5.408h147.93c2.982 0 5.408-2.426 5.408-5.408v-73.968c0-2.982-2.426-5.408-5.408-5.408z" fill="#ffd046"/></g><g transform="translate(525.24 143.03)"><path d="m0 0h-147.93c-3.051 0-5.533-2.482-5.533-5.533v-73.967c0-3.052 2.482-5.534 5.533-5.534h147.93c3.051 0 5.533 2.482 5.533 5.534v73.967c0 3.051-2.482 5.533-5.533 5.533m0-0.25c2.918 0 5.283-2.365 5.283-5.283v-73.967c0-2.918-2.365-5.284-5.283-5.284h-147.93c-2.918 0-5.283 2.366-5.283 5.284v73.967c0 2.918 2.365 5.283 5.283 5.283z"/></g><g transform="translate(527 63.528)"><path d="m0 0c0-0.971-0.79-1.761-1.761-1.761h-147.93c-0.971 0-1.761 0.79-1.761 1.761v73.967c0 0.971 0.79 1.761 1.761 1.761h147.93c0.971 0 1.761-0.79 1.761-1.761zm-1.761 77.93h-147.93c-2.185 0-3.963-1.778-3.963-3.963v-73.967c0-2.185 1.778-3.962 3.963-3.962h147.93c2.185 0 3.962 1.777 3.962 3.962v73.967c0 2.185-1.777 3.963-3.962 3.963"/></g><g transform="translate(388.87 115.44)"><path d="m0 0h3.188l-1.567 4.448zm4.081-2.558h-4.976l-1.568-4.45h-2.684l5.482 15.85h2.518l5.48-15.85h-2.685z"/></g><g transform="translate(399.58 124.29)"><path d="m0 0h2.5v-13.514h7.331v-2.336h-9.831z"/></g><g transform="translate(411.79 124.29)"><path d="m0 0h2.5v-13.514h7.331v-2.336h-9.831z"/></g><g transform="translate(443.61 108.44)"><path d="m0 0h-2.514v13.625h-3.63v2.225h9.831v-2.225h-3.687z"/></g><g transform="translate(455.33 117.89)"><path d="m0 0c1.989 0 2.302 1.434 2.302 1.946 0 0.691-0.517 1.947-2.181 1.947h-3.269v-3.893zm-3.148-2.556v-6.899h-2.5v15.85h5.733c3.634 0 4.723-2.906 4.723-4.451 0-0.589-0.218-2.907-2.46-3.969l2.793-7.43h-2.726l-2.558 6.899z"/></g><g transform="translate(466.88 115.44)"><path d="m0 0h3.188l-1.567 4.448zm4.081-2.558h-4.976l-1.568-4.45h-2.684l5.482 15.85h2.518l5.48-15.85h-2.685z"/></g><g transform="translate(480.1 117.89)"><path d="m0 0h4.61v-2.558h-4.61v-6.897h-2.5v15.85h9.83v-2.502h-7.33z"/></g><g transform="translate(492.3 117.89)"><path d="m0 0h4.61v-2.558h-4.61v-6.897h-2.5v15.85h9.83v-2.502h-7.33z"/></g><path d="m502.01 124.29h2.536v-15.85h-2.536z"/><g transform="translate(508.04 116.39)"><path d="m0 0c0 2.229 0.448 8.173 5.839 8.173 2.298 0 3.863-0.935 4.951-3.226l-2.336-1c-0.811 1.165-1.215 1.668-2.613 1.668-3.317 0-3.281-4.622-3.281-5.617 0-0.983-0.062-5.674 3.391-5.674 1.211 0 1.906 0.731 2.447 1.836l2.392-0.889c-0.892-2.205-2.39-3.501-4.785-3.501-5.704 0-6.005 6.3-6.005 8.23"/></g><g transform="translate(407.61 85.787)"><path d="m0 0-3.675-9.177-3.679 9.177v-9.177h-2.508v15.85h2.508l3.679-8.898 3.675 8.898h2.508v-15.85h-2.508z"/></g><g transform="translate(413.93 82.282)"><path d="m0 0v10.178h2.5v-10.178c0-2.058 1.169-3.392 2.893-3.392 1.723 0 2.892 1.334 2.892 3.392v10.178h2.504v-10.178c0-5.012-3.845-5.95-5.394-5.95-1.411 0-5.395 0.831-5.395 5.95"/></g><g transform="translate(427.41 80.329)"><path d="m0 0 2.389 0.888c0.668-1.5 1.894-2.332 3.394-2.332 1.444 0 2.451 0.998 2.451 2.332 0 2.118-2.451 2.442-4.505 3.277-0.945 0.388-3.055 1.333-3.055 3.942 0 3.113 2.11 4.278 4.943 4.278 2.22 0 3.72-1.278 4.499-3.222l-2.223-0.665c-0.367 0.715-1.135 1.388-2.467 1.388-1.917 0-2.316-1.046-2.316-1.6 0-1.48 1.278-1.774 3.353-2.425 2.111-0.664 4.326-1.637 4.326-5.029-2e-3 -3.42-2.777-4.83-5.006-4.83-2.722 0-4.727 1.609-5.783 3.998"/></g><g transform="translate(445.61 76.61)"><path d="m0 0h-2.514v13.625h-3.63v2.225h9.831v-2.225h-3.687z"/></g><g transform="translate(465.15 92.46)"><path d="m0 0h9.331v-2.502h-6.831v-3.893h4.61v-2.558h-4.61v-4.339h7.331v-2.558h-9.831z"/></g><g transform="translate(481.96 81.894)"><path d="m0 0-2.558-5.284h-2.837l3.949 8.175-3.671 7.675h2.837l2.28-4.727 2.28 4.727h2.837l-3.726-7.675 4.004-8.175h-2.837z"/></g><path d="m490.05 92.46h2.536v-15.85h-2.536z"/><g transform="translate(501.11 76.61)"><path d="m0 0h-2.514v13.625h-3.63v2.225h9.831v-2.225h-3.687z"/></g></g><text transform="matrix(1 0 0 -1 146.94 294.89)" fill="black" font-family="Helvetica" font-size="9px"><tspan x="0 8.4960003 13.5 18.504 21.500999 26.504999" y="0">W12-2b</tspan></text><g clip-path="url(#a)"><g transform="translate(72.881 306.66)"><path d="m0 0c-2.982 0-5.408 2.426-5.408 5.409v31.7c0 2.982 2.426 5.408 5.408 5.408h179.63c2.983 0 5.409-2.426 5.409-5.408v-31.7c0-2.983-2.426-5.409-5.409-5.409z" fill="#ffd046"/></g><g transform="translate(252.52 349.3)"><path d="m0 0h-179.63c-3.051 0-5.534-2.482-5.534-5.533v-31.7c0-3.052 2.483-5.534 5.534-5.534h179.63c3.051 0 5.533 2.482 5.533 5.534v31.7c0 3.051-2.482 5.533-5.533 5.533m0-0.25c2.906 0 5.283-2.377 5.283-5.283v-31.7c0-2.906-2.377-5.284-5.283-5.284h-179.63c-2.906 0-5.284 2.378-5.284 5.284v31.7c0 2.906 2.378 5.283 5.284 5.283z"/></g><g transform="translate(72.881 308.1)"><path d="m0 0c-1.053 0-2.046 0.414-2.797 1.165-0.752 0.752-1.166 1.745-1.166 2.798v31.7c0 1.052 0.414 2.046 1.166 2.797 0.751 0.751 1.744 1.165 2.797 1.165h179.63c1.053 0 2.046-0.414 2.798-1.165 0.751-0.751 1.165-1.745 1.165-2.797v-31.7c0-1.053-0.414-2.046-1.165-2.798-0.752-0.751-1.745-1.165-2.798-1.165z"/></g><g transform="translate(72.881 310.3)"><path d="m0 0c-0.471 0-0.9 0.18-1.241 0.52-0.34 0.341-0.52 0.77-0.52 1.241v31.7c0 0.472 0.18 0.901 0.52 1.241 0.341 0.341 0.77 0.52 1.241 0.52h179.63c0.471 0 0.901-0.179 1.241-0.52 0.34-0.34 0.52-0.769 0.52-1.241v-31.7c0-0.471-0.18-0.9-0.52-1.241-0.34-0.34-0.77-0.52-1.241-0.52z" fill="#ffd046"/></g><g transform="translate(116.83 328.91)"><path d="m0 0v-2.867h4.415v-2.571h-4.415v-6.13h-2.58v14.089h10.567v-2.521z"/></g><g transform="translate(132.46 328.96)"><path d="m0 0v-11.617h-2.469v11.617h-4.049v2.472h10.567v-2.472z"/></g><g transform="translate(81.81 317.35)"><path d="m0 0 0.074 15.794h-2.654l-0.074 3.041c1.622 0.37 2.506 0.964 3.317 2.299h3.023v-21.134z"/></g><g transform="translate(102.14 333.51)"><path d="m0 0-8.232-8.453h8.232zm3.708-11.864v-4.301h-3.708v4.301h-13.053v3.411l13.053 13.421h3.708v-13.421h3.115v-3.411z"/></g><g transform="translate(216.48 333.51)"><path d="m0 0-8.232-8.453h8.232zm3.708-11.864v-4.301h-3.708v4.301h-13.053v3.411l13.053 13.421h3.708v-13.421h3.115v-3.411z"/></g><path d="m228.62 331.44h2.536v-14.089h-2.536z"/><g transform="translate(244.06 317.35)"><path d="m0 0-6.752 9.689v-9.689h-2.483v14.089h2.483l6.504-9.294v9.294h2.433v-14.089z"/></g><g transform="translate(189.34 334.52)"><path d="m0 0c-0.139 0-0.274-0.016-0.404-0.046v-1e-3l-14.565-3.475v11.447h-8.806v-11.447l-14.565 3.475-1e-3 1e-3c-0.129 0.03-0.265 0.046-0.404 0.046-0.972 0-1.761-0.788-1.761-1.761 0-0.531 0.236-1.008 0.608-1.331l1e-3 -1e-3 20.525-18.04 20.525 18.04 1e-3 1e-3c0.372 0.323 0.607 0.8 0.607 1.331 0 0.973-0.788 1.761-1.761 1.761"/></g></g></g></svg>
