<?xml version="1.0" encoding="UTF-8"?>
<svg width="616.66" height="240.52" version="1.1" viewBox="0 0 616.66 240.52" xml:space="preserve" xmlns="http://www.w3.org/2000/svg"><defs><clipPath id="a"><path d="m40.25 39h486.5v207.47h-486.5z"/></clipPath></defs><g transform="matrix(1.3333 0 0 -1.3333 -68.453 297.87)"><text transform="matrix(1 0 0 -1 50.731 44.771)" fill="black" font-family="'Helvetica LT Std'" font-size="8px" style="font-variant-caps:normal;font-variant-east-asian:normal;font-variant-ligatures:normal;font-variant-numeric:normal"><tspan x="0 5.776 10.224 12.448 16.896 19.120001 21.200001 26.087999 30.535999 34.984001 37.208 42.543999 47.431999 53.208 55.431999 59.880001 61.655998 65.655998 67.879997 72.328003 76.776001 79.440002 83.888 88.335999 92.783997 95.008003 97.232002 101.68 106.128 108.352 110.576 112.352 116.352 118.576 122.576 127.024 131.472 137.248 141.696 143.92 145.696 149.696 151.92 156.368 160.81599 162.592 166.592 168.81599 173.26401 177.71201 179.936 184.384 188.384 192.832 199.496 203.944 205.72 210.168 212.392 214.4888 219.3768 223.8248 228.2728 230.4968 234.94479 236.72079 240.72079 242.94479 247.39281 251.84081 254.50481 258.95279 263.40079 267.84879 270.07281 272.29681 276.74481 279.40881 281.63281 283.85681 288.30481 292.75281 294.97681 297.20081 301.6488 303.4248 305.20081 307.4248 309.6488 314.0968 318.0968 319.8728 321.6488 323.4248 325.6488 329.6488 331.29361 335.29361 337.51761 341.96561 346.4136 350.8616 355.3096 357.5336 361.9816 366.4296 368.65359 373.98959 378.87759 384.65359 386.87759 390.87759 394.87759 398.87759 401.10159 405.54959 412.21359 414.43759 418.43759 422.88559 427.33359 429.10959 430.88559 433.10959 437.55759 442.00562 444.22961 448.67761 452.67761 457.12561 461.57361" y="0">Note: The ETC pictograph that is shown is only an example. The pictograph for the toll facility’s adopted ETC system shall be used.</tspan></text><g clip-path="url(#a)"><g transform="translate(90.392 58.714)"><path d="m0 0c-7.222 0-13.098 5.875-13.098 13.096v138.37c0 7.222 5.876 13.097 13.098 13.097h121.07c7.222 0 13.097-5.875 13.097-13.097v-138.37c0-7.221-5.875-13.096-13.097-13.096z" fill="#fff"/></g><g transform="translate(211.46 223.4)"><path d="m0 0h-121.07c-7.291 0-13.223-5.932-13.223-13.223v-138.37c0-7.29 5.932-13.221 13.223-13.221h121.07c7.291 0 13.222 5.931 13.222 13.221v138.37c0 7.291-5.931 13.223-13.222 13.223m0-0.25c7.136 0 12.972-5.837 12.972-12.973v-138.37c0-7.134-5.836-12.971-12.972-12.971h-121.07c-7.136 0-12.973 5.837-12.973 12.971v138.37c0 7.136 5.837 12.973 12.973 12.973z"/></g><g transform="translate(90.392 61.72)"><path d="m0 0c-1.354 0-2.67 0.267-3.911 0.794-1.202 0.512-2.282 1.242-3.214 2.174-0.93 0.93-1.661 2.01-2.171 3.212-0.528 1.241-0.795 2.557-0.795 3.91v138.37c0 1.354 0.267 2.669 0.795 3.909 0.51 1.202 1.241 2.283 2.171 3.214 0.932 0.931 2.012 1.662 3.214 2.173 1.241 0.526 2.557 0.794 3.911 0.794h121.07c1.356 0 2.67-0.268 3.911-0.794 1.2-0.511 2.282-1.242 3.214-2.173 0.93-0.931 1.661-2.012 2.171-3.214 0.528-1.24 0.793-2.555 0.793-3.909v-138.37c0-1.353-0.265-2.669-0.793-3.91-0.51-1.202-1.241-2.282-2.171-3.212-0.932-0.932-2.014-1.662-3.214-2.174-1.241-0.527-2.555-0.794-3.911-0.794z" fill="#006f51"/></g><g transform="translate(172.5 96.318)"><path d="m0 0c-0.156 0-0.281 0-0.407-0.033l-16.544-4.292v12.973h-9.369v-12.973l-16.576 4.292c-0.125 0.033-0.251 0.033-0.345 0.033-0.814 0-1.441-0.629-1.441-1.443 0-0.375 0.156-0.752 0.439-1.033l0.031-0.032 22.592-20.555 22.56 20.555c0.313 0.283 0.501 0.69 0.501 1.065 0 0.814-0.656 1.443-1.441 1.443" fill="#fff"/></g><g transform="translate(198.45 122.98)"><path d="m0 0c0-1.194-0.968-2.162-2.162-2.162h-90.806c-1.195 0-2.162 0.968-2.162 2.162v21.62c0 1.195 0.967 2.163 2.162 2.163h90.806c1.194 0 2.162-0.968 2.162-2.163z" fill="#fff"/></g><g transform="translate(153.39 125.14)"><path d="m0 0v17.297h3.106v-14.626h9.865v-2.671z"/></g><g transform="translate(146.21 125.14)"><path d="m0 0-8.289 11.896v-11.896h-3.048v17.297h3.048l7.984-11.409v11.409h2.987v-17.297z"/></g><g transform="translate(123.72 139.65)"><path d="m0 0c-2.616 0-4.197-2.185-4.197-5.826 0-3.701 1.581-5.888 4.197-5.888 3.285 0 4.075 3.217 4.075 5.888 0 3.641-1.461 5.826-4.075 5.826m0-14.809c-5.11 0-7.36 4.613-7.36 8.983 0 5.523 2.797 8.922 7.36 8.922 4.258 0 7.177-3.581 7.177-8.862 0-5.401-2.797-9.043-7.177-9.043"/></g><g transform="translate(178.12 132.18)"><path d="m0 0v-7.042h-3.095v7.042l-7.28 10.256h3.822l5.037-7.041 4.975 7.041h3.822z"/></g><path d="m205.67 164.14h-109.54v38.917h109.54z" fill="#fff"/><path d="m98.284 200.89h105.22v-34.592h-105.22z" fill="#6d276a"/><g transform="translate(117.53 171.2)"><path d="m0 0h-2.88l4.161 18.031h-7.575l0.518 2.253h23.004l-0.518-2.253h-12.547z" fill="#fff"/></g><g transform="translate(128.09 184.59)"><path d="m0 0c-2.074 0-2.843-1.667-3.121-2.873-0.277-1.207-0.277-2.875 1.798-2.875 2.073 0 2.842 1.668 3.12 2.875 0.277 1.206 0.277 2.873-1.797 2.873m-1.804-7.841c-2.748 0-4.866 1.561-4.083 4.968 0.784 3.406 3.621 4.967 6.369 4.967 2.746 0 4.865-1.561 4.081-4.967-0.784-3.407-3.621-4.968-6.367-4.968" fill="#fff"/></g><g transform="translate(135.63 174.27)"><path d="m0 0h-2.689l4.981 21.715h2.689z" fill="#fff"/></g><g transform="translate(140.97 174.27)"><path d="m0 0h-2.689l4.982 21.715h2.689z" fill="#fff"/></g><g transform="translate(155.47 185.54)"><path d="m0 0c2.151 0 2.477 1.419 2.609 1.987 0.285 1.242-0.346 1.757-2.131 1.757h-2.287l-0.861-3.744zm-4.65-8.548h-2.88l3.347 14.491h6.3c2.669 0 3.921-1.578 3.343-4.08-0.264-1.153-1.625-4.063-5.332-4.063h-3.305z" fill="#fff"/></g><g transform="translate(165.92 181.59)"><path d="m0 0c-0.313-0.195-0.791-0.355-1.943-0.514-1.034-0.16-1.915-0.391-2.152-1.42-0.199-0.869 0.47-1.135 0.988-1.135 1.192 0 2.566 0.71 2.83 1.863zm2-2.75c-0.258-1.118-0.046-1.366 0.256-1.472l-0.086-0.373h-2.901c-0.05 0.444-0.057 0.586 8e-3 1.117-0.749-0.585-1.793-1.365-3.618-1.365-1.537 0-2.928 0.798-2.479 2.749 0.425 1.846 1.908 2.786 3.671 3.016l2.498 0.338c0.435 0.053 0.99 0.212 1.113 0.745 0.241 1.046-0.822 1.1-1.515 1.1-1.343 0-1.75-0.763-1.953-1.313h-2.594c0.974 2.891 3.238 3.3 5.331 3.3 1.442 0 3.979-0.409 3.444-2.732z" fill="#fff"/></g><g transform="translate(177.19 183.56)"><path d="m0 0c0.023 0.604-0.06 1.242-1.519 1.242-1.46 0-1.77-0.514-1.865-0.923-0.342-1.49 6.303-0.408 5.503-3.885-0.633-2.75-3.629-3.246-5.224-3.246-2.323 0-4.669 0.745-4.165 3.264h2.765c-0.182-0.799 0.22-1.384 1.911-1.384 1.382 0 1.852 0.621 1.935 0.976 0.363 1.579-6.251 0.39-5.437 3.921 0.319 1.383 1.668 3.158 4.855 3.158 1.998 0 4.274-0.461 3.873-3.123z" fill="#fff"/></g><g transform="translate(187.87 183.56)"><path d="m0 0c0.023 0.604-0.06 1.242-1.519 1.242-1.461 0-1.771-0.514-1.865-0.923-0.342-1.49 6.302-0.408 5.501-3.885-0.631-2.75-3.628-3.246-5.222-3.246-2.323 0-4.669 0.745-4.166 3.264h2.766c-0.184-0.799 0.219-1.384 1.91-1.384 1.383 0 1.853 0.621 1.933 0.976 0.364 1.579-6.248 0.39-5.435 3.921 0.317 1.383 1.667 3.158 4.856 3.158 1.999 0 4.274-0.461 3.872-3.123z" fill="#fff"/></g><g transform="translate(188.85 174.27)"><path d="m0 0h-48.887l0.127 0.559h48.886z" fill="#fff"/></g><g transform="translate(132.81 172.74)"><path d="m0 0h-4.156l0.126 0.559h4.156z" fill="#fff"/></g><g transform="translate(146.73 172.74)"><path d="m0 0h-4.156l0.128 0.559h4.155z" fill="#fff"/></g><g transform="translate(160.66 172.74)"><path d="m0 0h-4.156l0.126 0.559h4.158z" fill="#fff"/></g><g transform="translate(174.58 172.74)"><path d="m0 0h-4.154l0.126 0.559h4.155z" fill="#fff"/></g><g transform="translate(188.5 172.74)"><path d="m0 0h-4.156l0.126 0.559h4.156z" fill="#fff"/></g><g transform="translate(188.16 171.2)"><path d="m0 0h-64.352l0.126 0.558h64.353z" fill="#fff"/></g><g transform="translate(487.85 214.52)"><path d="m0 0c0 4.747-3.884 8.634-8.635 8.634h-224.45c-4.748 0-8.631-3.887-8.631-8.634v-113.16c0-4.747 3.883-8.634 8.631-8.634h224.45c4.751 0 8.635 3.887 8.635 8.634z" fill="#fff"/></g><g transform="translate(479.22 223.15)"><path d="m0 0h-224.45c-2.374 0-4.533-0.971-6.096-2.535-1.564-1.567-2.535-3.725-2.535-6.099v-17.265h241.71v17.265c0 2.374-0.972 4.532-2.536 6.099-1.565 1.564-3.723 2.535-6.099 2.535" fill="#ffd046"/></g><g transform="translate(248.14 98.564)"><path d="m0 0c0.364-0.854 0.886-1.626 1.547-2.287 0.665-0.666 1.434-1.184 2.292-1.548 0.886-0.377 1.823-0.567 2.788-0.567h224.45c0.969 0 1.906 0.19 2.791 0.567 0.855 0.364 1.627 0.882 2.289 1.548 0.664 0.661 1.184 1.433 1.548 2.287 0.376 0.887 0.565 1.827 0.565 2.792v95.899h-238.84v-95.899c0-0.965 0.194-1.905 0.567-2.792" fill="#006f51"/></g><path d="m367.71 93.477h-1.44v103.78h1.44z" fill="#fff"/><g transform="translate(486.67 217.66)"><path d="m0 0c-0.408 0.963-0.993 1.83-1.741 2.573-0.744 0.747-1.611 1.329-2.573 1.741-0.997 0.421-2.054 0.636-3.143 0.636h-224.45c-1.086 0-2.143-0.215-3.14-0.636-0.962-0.412-1.829-0.994-2.573-1.741-0.747-0.743-1.333-1.61-1.741-2.573-0.424-0.997-0.639-2.054-0.639-3.142v-17.265h0.899v17.265c0 0.965 0.193 1.905 0.566 2.791 0.364 0.855 0.886 1.626 1.548 2.289 0.665 0.664 1.434 1.183 2.291 1.547 0.886 0.376 1.823 0.567 2.789 0.567h224.45c0.969 0 1.906-0.191 2.791-0.567 0.855-0.364 1.628-0.883 2.289-1.547 0.664-0.663 1.184-1.434 1.548-2.289 0.376-0.886 0.566-1.826 0.566-2.791v-17.265h0.899v17.265c0 1.088-0.212 2.145-0.636 3.142"/></g><g transform="translate(444.69 153.41)"><path d="m0 0c0-0.896-0.724-1.62-1.617-1.62h-31.295c-0.892 0-1.617 0.724-1.617 1.62v31.292c0 0.893 0.725 1.617 1.617 1.617h31.295c0.893 0 1.617-0.724 1.617-1.617z" fill="#fff"/></g><g transform="translate(420.89 163.82)"><path d="m0 0v16.439h15.202v4.238h-18.746v-31.235h18.746v10.558z"/></g><g transform="translate(429.72 176.26)"><path d="m0 0c0-1.044-0.846-1.892-1.891-1.892-1.044 0-1.892 0.848-1.892 1.892 0 1.045 0.848 1.889 1.892 1.889 1.045 0 1.891-0.844 1.891-1.889"/></g><g transform="translate(437.33 169.06)"><path d="m0 0-4.213-0.096s-1.711 2.688-1.975 3.023c-0.259 0.333-1.164 1.877-2.545 1.877h-1.616c-0.523 0-1.178-0.361-1.643-0.76-0.164-0.142-0.592-0.474-0.785-0.952-0.351-0.88-0.784-4.21-0.833-4.542-0.044-0.307-0.069-0.715-0.021-0.93 0.035-0.165 0.186-1.609 0.32-2.377h1.199c-3e-3 1.029-0.07 2.687-0.07 2.687l0.452 2.69h0.285v-5.377h4.283v5.275c0.576-0.588 2.013-2.05 2.164-2.183 0.191-0.168 0.026-0.168 0.5-0.12 0.475 0.047 4.593 0.832 4.593 0.832z"/></g><g transform="translate(293.04 153.41)"><path d="m0 0c0-0.896-0.725-1.62-1.617-1.62h-31.292c-0.896 0-1.621 0.724-1.621 1.62v31.292c0 0.893 0.725 1.617 1.621 1.617h31.292c0.892 0 1.617-0.724 1.617-1.617z" fill="#fff"/></g><g transform="translate(275.6 170.59)"><path d="m0 0c0-1.966-1.592-3.558-3.557-3.558-1.963 0-3.555 1.592-3.555 3.558s1.592 3.558 3.555 3.558c1.965 0 3.557-1.592 3.557-3.558"/></g><g transform="translate(268.05 163.05)"><path d="m0 0c0-1.963-1.592-3.554-3.554-3.554-1.966 0-3.557 1.591-3.557 3.554 0 1.966 1.591 3.558 3.557 3.558 1.962 0 3.554-1.592 3.554-3.558"/></g><g transform="translate(259.3 157.73)"><path d="m0 0v-5.279h22.364l3.424 5.279z"/></g><g transform="translate(279.3 158.14)"><path d="m0 0c-0.076 1.894-1.636 3.406-3.551 3.406s-3.475-1.512-3.555-3.406z"/></g><g transform="translate(277.37 180.45)"><path d="m0 0c-1.851-0.304-2.542-0.443-2.798-0.503-0.215-0.197-0.436-0.383-0.664-0.564-0.424-0.332-0.329-0.854-0.19-1.044 0.139-0.193 0.576-0.361 1.098-0.076 0.348 0.191 2.351 1.501 3.671 2.368-0.351-0.058-0.734-0.117-1.117-0.181"/></g><g transform="translate(279.91 184.34)"><path d="m0 0c0.263 0.057 1.586 0.3 2.753 0.52 0.285 0.053 0.567 0.103 0.814 0.151-0.076 0.022-0.149 0.038-0.222 0.045-0.474 0.047-1.939-0.102-2.487-0.172-0.548-0.072-1.693-0.206-2.472-0.547-0.073-0.032-0.187-0.158-0.342-0.358 0.962 0.175 1.791 0.326 1.956 0.361"/></g><g transform="translate(281.48 180.9)"><path d="m0 0c-0.086 7e-3 -0.158 0.013-0.215 0.016-0.114 0.01-0.206 0.016-0.257 0.019-0.047 3e-3 -0.098 6e-3 -0.155 6e-3 -0.471-0.354-0.971-0.727-1.396-1.041 0.162-0.129 0.529-0.199 0.918 0.086 0.133 0.094 0.57 0.461 1.105 0.914"/></g><g transform="translate(280.15 180.89)"><path d="m0 0c-0.041-6e-3 -0.472-0.073-1.079-0.168-0.472-0.31-1.111-0.731-1.75-1.149 0.022-0.066 0.053-0.12 0.085-0.158 0.13-0.155 0.513-0.276 0.943-3e-3 0.209 0.133 1.146 0.826 2.058 1.507-0.105-0.01-0.197-0.02-0.257-0.029"/></g><g transform="translate(292.06 179.83)"><path d="m0 0v5.558c-0.902-0.095-3.31-0.193-3.62-0.219-0.307-0.021-2.884-0.177-3.074-0.177-0.189 0-0.718-0.066-0.94-0.114-0.221-0.047-3.997-0.741-4.45-0.838-0.452-0.095-5.222-0.953-5.481-0.975-0.263-0.025-1.079-0.253-1.285-0.399-0.14-0.101-2.516-1.734-3.352-2.298-0.668-0.449-0.649-1.532-0.396-1.893 0.25-0.36 1.013-0.809 1.893-0.335 0.883 0.478 2.58 1.874 2.959 2.039 0.38 0.167 5.634 0.981 5.802 1.006 0.164 0.022 0.604 0.073 0.914 0.047 0.311-0.022 1.902-0.13 2.07-0.177 0.165-0.047 0.443-0.082 0.396-0.535-0.048-0.452-0.386-2.203-0.674-2.75-0.275-0.52-0.934-1.614-2.276-3.077-0.332-0.364-0.399-1.275-0.022-1.639 0.361-0.348 0.962-0.803 2.127 0.288 1.168 1.095 2.041 2.191 3.152 2.921 0.681 0.446 1.811 1.26 2.07 1.475 0.263 0.213 0.832 0.64 1.354 0.949 0.526 0.308 2.833 1.143 2.833 1.143"/></g><g transform="translate(352.25 114.17)"><path d="m0 0c0-0.792-0.648-1.44-1.44-1.44h-87.765c-0.791 0-1.436 0.648-1.436 1.44v27.336c0 0.791 0.645 1.437 1.436 1.437h87.765c0.792 0 1.44-0.646 1.44-1.437z" fill="#fff"/></g><g transform="translate(285.46 136.11)"><path d="m0 0-1.01-2.424h2.019zm2.269-5.403-0.706 1.693h-3.127l-0.709-1.693h-1.411l3.029 7.194h1.31l3.004-7.194z"/></g><g transform="translate(277.99 130.59)"><path d="m0 0c-1.893 0-3.054 1.487-3.054 3.735 0 2.272 1.161 3.708 3.054 3.708 1.161 0 2.222-0.579 2.779-1.588l-1.136-0.607c-0.203 0.303-0.304 0.405-0.507 0.531-0.275 0.228-0.757 0.377-1.136 0.377-1.31 0-1.741-1.285-1.741-2.396 0-1.567 0.655-2.475 1.741-2.475 0.658 0 1.01 0.228 1.643 0.908l1.136-0.604c-0.532-1.01-1.618-1.589-2.779-1.589"/></g><g transform="translate(325.6 130.71)"><path d="m0 0v7.194h1.295v-6.083h4.102v-1.111z"/></g><g transform="translate(322.62 130.71)"><path d="m0 0-3.447 4.95v-4.95h-1.269v7.194h1.269l3.321-4.744v4.744h1.24v-7.194z"/></g><g transform="translate(313.26 136.74)"><path d="m0 0c-1.089 0-1.743-0.908-1.743-2.421 0-1.542 0.654-2.45 1.743-2.45 1.367 0 1.696 1.339 1.696 2.45 0 1.513-0.607 2.421-1.696 2.421m0-6.156c-2.124 0-3.06 1.918-3.06 3.735 0 2.297 1.164 3.709 3.06 3.709 1.772 0 2.985-1.488 2.985-3.684 0-2.247-1.161-3.76-2.985-3.76"/></g><g transform="translate(293.7 136.62)"><path d="m0 0h-2.07v-1.795h2.07c0.633 0 1.035 0.355 1.035 0.887 0 0.553-0.402 0.908-1.035 0.908m1.035-5.909-1.158 2.83h-1.947v-2.83h-1.288v7.194h3.333c0.532 0 0.858-0.076 1.237-0.301 0.681-0.379 1.112-1.085 1.112-1.892 0-0.811-0.431-1.516-1.162-1.921l1.313-3.08z"/></g><g transform="translate(299.86 133.94)"><path d="m0 0c-0.321 0.089-1.124 0.282-1.396 0.442-0.542 0.317-0.956 0.837-0.956 1.606 0 1.186 1.013 1.993 2.484 1.993 1.063 0 1.953-0.351 2.687-1.111l-0.961-0.857c-0.459 0.481-1.041 0.708-1.726 0.708-0.734 0-1.168-0.278-1.168-0.733 0-0.402 0.257-0.58 1.143-0.783 0.963-0.202 1.595-0.404 2.004-0.604 0.632-0.329 1.037-1.01 1.037-1.794 0-0.732-0.329-1.285-1.013-1.69-0.509-0.305-1.167-0.482-1.826-0.482-1.244 0-2.18 0.456-2.99 1.39l1.038 0.807c0.532-0.63 1.117-0.908 1.927-0.908 0.911 0 1.574 0.404 1.574 0.933 0 0.678-0.739 0.776-1.858 1.083"/></g><g transform="translate(335.89 133.64)"><path d="m0 0v-2.93h-1.286v2.93l-3.028 4.263h1.588l2.095-2.927 2.071 2.927h1.588z"/></g><g transform="translate(308.67 123.17)"><path d="m0 0-1.009-2.424h2.018zm2.272-5.403-0.706 1.691h-3.129l-0.706-1.691h-1.414l3.028 7.195h1.313l3-7.195z"/></g><g transform="translate(323.33 117.76)"><path d="m0 0v7.195h5.27v-1.289h-3.954v-1.335h2.153v-1.314h-2.153v-1.968h4.081v-1.289z"/></g><path d="m313.55 124.96h1.295v-7.195h-1.295z"/><g transform="translate(316.72 117.76)"><path d="m0 0v7.195h1.292v-6.084h4.105v-1.111z"/></g><g transform="translate(275.73 117.76)"><path d="m0 0-3.447 4.947v-4.947h-1.266v7.195h1.266l3.32-4.745v4.745h1.244v-7.195z"/></g><g transform="translate(281.57 123.8)"><path d="m0 0c-1.089 0-1.747-0.908-1.747-2.421 0-1.541 0.658-2.449 1.747-2.449 1.364 0 1.694 1.338 1.694 2.449 0 1.513-0.608 2.421-1.694 2.421m0-6.159c-2.127 0-3.06 1.918-3.06 3.738 0 2.295 1.161 3.71 3.06 3.71 1.769 0 2.984-1.492 2.984-3.685 0-2.247-1.164-3.763-2.984-3.763"/></g><g transform="translate(301.72 123.67)"><path d="m0 0h-2.069v-1.791h2.069c0.63 0 1.036 0.354 1.036 0.883 0 0.557-0.406 0.908-1.036 0.908m1.036-5.906-1.161 2.826h-1.944v-2.826h-1.288v7.195h3.332c0.529 0 0.858-0.076 1.239-0.305 0.68-0.376 1.106-1.085 1.106-1.892 0-0.808-0.426-1.513-1.158-1.919l1.311-3.079z"/></g><g transform="translate(333.52 123.67)"><path d="m0 0h-2.071v-1.791h2.071c0.632 0 1.035 0.354 1.035 0.883 0 0.557-0.403 0.908-1.035 0.908m1.035-5.906-1.162 2.826h-1.944v-2.826h-1.287v7.195h3.332c0.532 0 0.858-0.076 1.238-0.305 0.68-0.376 1.111-1.085 1.111-1.892 0-0.808-0.431-1.513-1.162-1.919l1.314-3.079z"/></g><g transform="translate(339.69 120.99)"><path d="m0 0c-0.32 0.088-1.123 0.282-1.396 0.44-0.541 0.32-0.955 0.839-0.955 1.608 0 1.187 1.013 1.994 2.484 1.994 1.063 0 1.953-0.355 2.687-1.112l-0.965-0.857c-0.456 0.478-1.038 0.706-1.722 0.706-0.735 0-1.168-0.279-1.168-0.731 0-0.405 0.253-0.582 1.143-0.782 0.962-0.203 1.595-0.405 2.004-0.608 0.632-0.326 1.038-1.009 1.038-1.791 0-0.731-0.33-1.288-1.014-1.69-0.509-0.304-1.167-0.481-1.825-0.481-1.245 0-2.181 0.456-2.991 1.389l1.038 0.807c0.531-0.629 1.116-0.908 1.927-0.908 0.911 0 1.57 0.405 1.57 0.934 0 0.674-0.735 0.772-1.855 1.082"/></g><g transform="translate(295.07 123.69)"><path d="m0 0v-5.932h-1.259v5.932h-2.067v1.263h5.396v-1.263z"/></g><g transform="translate(390.65 139.57)"><path d="m0 0-1.213-2.909h2.425zm2.725-6.485-0.848 2.031h-3.754l-0.849-2.031h-1.696l3.634 8.634h1.576l3.602-8.634z" fill="#fff"/></g><g transform="translate(446.53 139.57)"><path d="m0 0-1.213-2.909h2.425zm2.725-6.485-0.849 2.031h-3.753l-0.849-2.031h-1.696l3.634 8.634h1.576l3.602-8.634z" fill="#fff"/></g><g transform="translate(381.69 132.94)"><path d="m0 0c-2.272 0-3.665 1.786-3.665 4.481 0 2.726 1.393 4.454 3.665 4.454 1.393 0 2.665-0.696 3.33-1.909l-1.361-0.727c-0.244 0.364-0.364 0.484-0.607 0.636-0.334 0.272-0.909 0.455-1.362 0.455-1.576 0-2.092-1.544-2.092-2.877 0-1.88 0.789-2.968 2.092-2.968 0.789 0 1.213 0.271 1.969 1.088l1.361-0.724c-0.633-1.213-1.937-1.909-3.33-1.909" fill="#fff"/></g><g transform="translate(428.32 132.94)"><path d="m0 0c-2.272 0-3.665 1.786-3.665 4.481 0 2.726 1.393 4.454 3.665 4.454 1.393 0 2.665-0.696 3.329-1.909l-1.36-0.727c-0.244 0.364-0.365 0.484-0.608 0.636-0.332 0.272-0.908 0.455-1.361 0.455-1.576 0-2.092-1.544-2.092-2.877 0-1.88 0.788-2.968 2.092-2.968 0.785 0 1.21 0.271 1.969 1.088l1.36-0.724c-0.635-1.213-1.936-1.909-3.329-1.909" fill="#fff"/></g><g transform="translate(470.35 133.08)"><path d="m0 0v8.634h6.324v-1.544h-4.744v-1.605h2.585v-1.576h-2.585v-2.361h4.896v-1.548z" fill="#fff"/></g><g transform="translate(468.36 137.39)"><path d="m0 0v-1.121c0-1.876-1.516-3.33-3.424-3.33-2.545 0-3.574 2.242-3.574 4.482 0 2.637 1.424 4.453 3.574 4.453 1.544 0 2.604-0.819 3.212-2.151l-1.577-0.545c-0.332 0.728-0.879 1.151-1.635 1.151-1.213 0-2.029-1.211-2.029-2.908 0-1.392 0.423-2.937 2.029-2.937 0.848 0 1.605 0.576 1.816 1.361h-1.421v1.545z" fill="#fff"/></g><g transform="translate(410.16 133.08)"><path d="m0 0v3.756h-3.893v-3.756h-1.55v8.634h1.55v-3.333h3.893v3.333h1.551v-8.634z" fill="#fff"/></g><g transform="translate(439.08 133.08)"><path d="m0 0v3.756h-3.893v-3.756h-1.55v8.634h1.55v-3.333h3.893v3.333h1.551v-8.634z" fill="#fff"/></g><g transform="translate(458.04 133.08)"><path d="m0 0-4.139 5.938v-5.938h-1.519v8.634h1.519l3.988-5.693v5.693h1.49v-8.634z" fill="#fff"/></g><g transform="translate(399.21 136.96)"><path d="m0 0c-0.383 0.108-1.347 0.338-1.673 0.532-0.653 0.379-1.149 1.004-1.149 1.927 0 1.422 1.217 2.393 2.98 2.393 1.279 0 2.342-0.424 3.226-1.332l-1.155-1.032c-0.548 0.576-1.248 0.849-2.071 0.849-0.879 0-1.398-0.334-1.398-0.878 0-0.484 0.304-0.696 1.371-0.94 1.155-0.244 1.914-0.484 2.401-0.727 0.76-0.393 1.247-1.213 1.247-2.15 0-0.879-0.395-1.543-1.215-2.028-0.611-0.364-1.399-0.576-2.191-0.576-1.49 0-2.616 0.544-3.588 1.664l1.246 0.969c0.637-0.757 1.337-1.089 2.311-1.089 1.095 0 1.887 0.484 1.887 1.121 0 0.81-0.88 0.927-2.229 1.297" fill="#fff"/></g><path d="m416.02 138.11h4.318v-1.544h-4.318z" fill="#fff"/><g transform="translate(417.88 117.11)"><path d="m0 0c-2.272 0-3.665 1.789-3.665 4.485 0 2.725 1.393 4.45 3.665 4.45 1.393 0 2.665-0.696 3.329-1.908l-1.36-0.725c-0.244 0.364-0.365 0.484-0.608 0.635-0.332 0.273-0.908 0.454-1.361 0.454-1.576 0-2.092-1.545-2.092-2.878 0-1.876 0.788-2.968 2.092-2.968 0.785 0 1.209 0.272 1.969 1.092l1.36-0.728c-0.635-1.213-1.936-1.909-3.329-1.909" fill="#fff"/></g><g transform="translate(406.27 117.26)"><path d="m0 0v8.635h6.323v-1.548h-4.74v-1.605h2.583v-1.574h-2.583v-2.363h4.893v-1.545z" fill="#fff"/></g><g transform="translate(423.2 117.26)"><path d="m0 0v8.635h6.32v-1.548h-4.741v-1.605h2.583v-1.574h-2.583v-2.363h4.893v-1.545z" fill="#fff"/></g><path d="m431.4 125.9h1.554v-8.635h-1.554z" fill="#fff"/><g transform="translate(439.37 124.35)"><path d="m0 0h-2.608v-2.15h2.608c0.756 0 1.272 0.425 1.272 1.061 0 0.664-0.516 1.089-1.272 1.089m1.484-3.361c-0.484-0.273-0.879-0.333-1.545-0.333h-2.547v-3.393h-1.573v8.635h4.12c0.666 0 1.061-0.093 1.545-0.364 0.817-0.456 1.333-1.304 1.333-2.273 0-0.908-0.516-1.817-1.333-2.272" fill="#fff"/></g><g transform="translate(401.58 124.35)"><path d="m0 0h-2.485v-2.15h2.485c0.759 0 1.243 0.425 1.243 1.061 0 0.664-0.484 1.089-1.243 1.089m1.243-7.087-1.392 3.393h-2.336v-3.393h-1.545v8.635h4.001c0.636 0 1.029-0.093 1.484-0.364 0.817-0.456 1.33-1.304 1.33-2.273 0-0.968-0.513-1.817-1.392-2.301l1.575-3.697z" fill="#fff"/></g><g transform="translate(453.52 121.13)"><path d="m0 0c-0.384 0.104-1.348 0.338-1.674 0.527-0.653 0.384-1.149 1.004-1.149 1.928 0 1.425 1.218 2.394 2.981 2.394 1.279 0 2.345-0.425 3.225-1.333l-1.155-1.029c-0.547 0.576-1.247 0.849-2.07 0.849-0.88 0-1.399-0.336-1.399-0.881 0-0.483 0.304-0.696 1.371-0.936 1.155-0.244 1.915-0.487 2.401-0.728 0.76-0.396 1.248-1.213 1.248-2.153 0-0.876-0.396-1.544-1.216-2.028-0.611-0.364-1.399-0.576-2.19-0.576-1.49 0-2.617 0.547-3.589 1.668l1.247 0.968c0.636-0.756 1.338-1.091 2.31-1.091 1.096 0 1.887 0.483 1.887 1.12 0 0.81-0.88 0.931-2.228 1.301" fill="#fff"/></g><g transform="translate(446.88 124.38)"><path d="m0 0v-7.118h-1.513v7.118h-2.482v1.516h6.473v-1.516z" fill="#fff"/></g><g transform="translate(479.22 223.4)"><path d="m0 0h-224.45c-4.897 0-8.881-3.985-8.881-8.884v-113.16c0-4.898 3.984-8.884 8.881-8.884h224.45c4.899 0 8.885 3.986 8.885 8.884v113.16c0 4.899-3.986 8.884-8.885 8.884m0-0.25c4.751 0 8.635-3.887 8.635-8.634v-113.16c0-4.747-3.884-8.634-8.635-8.634h-224.45c-4.748 0-8.631 3.887-8.631 8.634v113.16c0 4.747 3.883 8.634 8.631 8.634z"/></g><g transform="translate(324.31 172.08)"><path d="m0 0-1.211-2.905h2.423zm2.726-6.482-0.849 2.029h-3.753l-0.849-2.029h-1.696l3.633 8.635h1.575l3.603-8.635z" fill="#fff"/></g><g transform="translate(306.11 165.45)"><path d="m0 0c-2.273 0-3.666 1.788-3.666 4.484 0 2.725 1.393 4.454 3.666 4.454 1.393 0 2.665-0.699 3.33-1.909l-1.361-0.728c-0.244 0.364-0.364 0.484-0.607 0.637-0.333 0.271-0.907 0.455-1.362 0.455-1.576 0-2.09-1.548-2.09-2.88 0-1.877 0.788-2.966 2.09-2.966 0.788 0 1.212 0.273 1.969 1.089l1.361-0.728c-0.635-1.209-1.937-1.908-3.33-1.908" fill="#fff"/></g><g transform="translate(348.14 165.6)"><path d="m0 0v8.635h6.321v-1.545h-4.74v-1.608h2.583v-1.573h-2.583v-2.364h4.893v-1.545z" fill="#fff"/></g><g transform="translate(346.15 169.9)"><path d="m0 0v-1.12c0-1.877-1.513-3.333-3.422-3.333-2.545 0-3.574 2.244-3.574 4.485 0 2.633 1.422 4.453 3.574 4.453 1.545 0 2.605-0.819 3.209-2.152l-1.574-0.544c-0.334 0.728-0.878 1.152-1.635 1.152-1.212 0-2.028-1.213-2.028-2.909 0-1.393 0.422-2.938 2.028-2.938 0.849 0 1.604 0.573 1.817 1.362h-1.424v1.544z" fill="#fff"/></g><g transform="translate(316.87 165.6)"><path d="m0 0v3.757h-3.893v-3.757h-1.55v8.635h1.55v-3.333h3.893v3.333h1.553v-8.635z" fill="#fff"/></g><g transform="translate(335.83 165.6)"><path d="m0 0-4.138 5.938v-5.938h-1.52v8.635h1.52l3.984-5.694v5.694h1.491v-8.635z" fill="#fff"/></g><g transform="translate(328.67 187.91)"><path d="m0 0-1.212-2.909h2.424zm2.725-6.482-0.849 2.029h-3.753l-0.849-2.029h-1.695l3.634 8.632h1.575l3.603-8.632z" fill="#fff"/></g><g transform="translate(337.94 181.28)"><path d="m0 0c-2.271 0-3.666 1.786-3.666 4.482 0 2.725 1.395 4.453 3.666 4.453 1.392 0 2.664-0.696 3.332-1.908l-1.364-0.728c-0.242 0.364-0.364 0.484-0.604 0.636-0.334 0.272-0.908 0.456-1.364 0.456-1.575 0-2.089-1.545-2.089-2.878 0-1.879 0.788-2.968 2.089-2.968 0.788 0 1.212 0.273 1.968 1.089l1.364-0.725c-0.636-1.213-1.94-1.909-3.332-1.909" fill="#fff"/></g><g transform="translate(308.11 181.43)"><path d="m0 0v8.632h6.321v-1.545h-4.741v-1.605h2.584v-1.577h-2.584v-2.36h4.893v-1.545z" fill="#fff"/></g><g transform="translate(346.47 188.55)"><path d="m0 0v-7.116h-1.511v7.116h-2.48v1.516h6.473v-1.516z" fill="#fff"/></g><g transform="translate(321.48 181.43)"><path d="m0 0-1.948 3.058-1.917-3.058h-1.827l2.831 4.542-2.586 4.09h1.855l1.644-2.638 1.641 2.638h1.857l-2.556-4.09 2.831-4.542z" fill="#fff"/></g><g transform="translate(328.72 149.62)"><path d="m0 0c-1.186 0-2.253 0.303-3.347 0.969l0.823 1.303c0.759-0.456 1.642-0.696 2.524-0.696 1.308 0 2.099 0.576 2.099 1.545 0 0.452-0.213 0.908-0.548 1.18-0.304 0.244-0.761 0.364-1.4 0.364-0.577 0-1.033-0.092-1.672-0.332l-1.551 0.392 0.272 4.058h5.781l-0.03-1.513h-4.288l-0.093-1.241c0.7 0.149 1.126 0.212 1.673 0.212 1.977 0 3.407-1.332 3.407-3.12 0-1.817-1.522-3.121-3.65-3.121" fill="#fff"/></g><g transform="translate(322.97 155.83)"><path d="m0 0c-0.576-0.788-1.119-1.937-1.452-2.937-0.336-1.031-0.456-1.817-0.486-3.12h-1.545c0.031 1.303 0.123 2.028 0.395 3.089 0.302 1.092 0.726 2.092 1.241 2.937 0.152 0.275 0.333 0.547 0.695 1.091h-4.873l-0.032 1.513h6.997v-1.544c-0.576-0.545-0.727-0.697-0.94-1.029" fill="#fff"/></g><g transform="translate(337.9 150.78)"><path d="m0 0v-1.516h-1.547v1.545c-1.576 0.335-2.516 1.667-2.516 3.544 0 1.817 1.031 3.15 2.516 3.514v1.272h1.547v-1.272c1-0.153 1.76-0.665 2.243-1.454l-1.211-0.607c-0.396 0.487-0.788 0.848-1.701 0.848-1.302 0-1.878-1.3-1.878-2.301 0-1.24 0.727-2.392 1.819-2.392 0.91 0 1.211 0.332 1.76 0.879l1.211-0.576c-0.483-0.82-1.243-1.304-2.243-1.484" fill="#fff"/></g><g transform="translate(438.51 105.29)"><path d="m0 0-1.009-2.422h2.019zm2.271-5.401-0.707 1.692h-3.127l-0.706-1.692h-1.414l3.029 7.193h1.309l3.004-7.193z" fill="#fff"/></g><g transform="translate(451.1 99.886)"><path d="m0 0v7.193h5.267v-1.288h-3.951v-1.338h2.153v-1.312h-2.153v-1.968h4.078v-1.287z" fill="#fff"/></g><g transform="translate(428.86 99.886)"><path d="m0 0v7.193h1.292v-6.082h4.102v-1.111z" fill="#fff"/></g><g transform="translate(448.11 99.886)"><path d="m0 0-3.447 4.945v-4.945h-1.269v7.193h1.269l3.321-4.745v4.745h1.241v-7.193z" fill="#fff"/></g><g transform="translate(460.18 103.11)"><path d="m0 0c-0.322 0.088-1.127 0.282-1.4 0.442-0.541 0.318-0.952 0.837-0.952 1.606 0 1.187 1.013 1.994 2.481 1.994 1.067 0 1.953-0.355 2.687-1.111l-0.962-0.857c-0.455 0.479-1.039 0.705-1.725 0.705-0.734 0-1.165-0.277-1.165-0.731 0-0.403 0.253-0.58 1.14-0.782 0.966-0.203 1.598-0.405 2.003-0.606 0.633-0.328 1.038-1.01 1.038-1.793 0-0.731-0.329-1.286-1.012-1.69-0.507-0.304-1.165-0.48-1.824-0.48-1.243 0-2.18 0.455-2.991 1.389l1.039 0.806c0.531-0.629 1.114-0.908 1.926-0.908 0.913 0 1.571 0.405 1.571 0.934 0 0.676-0.734 0.774-1.854 1.082" fill="#fff"/></g><g transform="translate(407.57 103.47)"><path d="m0 0v-0.932c0-1.566-1.259-2.777-2.851-2.777-2.118 0-2.977 1.868-2.977 3.735 0 2.197 1.185 3.711 2.977 3.711 1.288 0 2.171-0.682 2.677-1.793l-1.313-0.455c-0.279 0.607-0.731 0.96-1.364 0.96-1.01 0-1.691-1.01-1.691-2.423 0-1.16 0.355-2.448 1.691-2.448 0.709 0 1.338 0.479 1.516 1.136h-1.187v1.286z" fill="#fff"/></g><g transform="translate(413.76 99.886)"><path d="m0 0v3.129h-3.246v-3.129h-1.291v7.193h1.291v-2.776h3.246v2.776h1.293v-7.193z" fill="#fff"/></g><path d="m398.79 107.08h1.295v-7.193h-1.295z" fill="#fff"/><g transform="translate(394.88 105.79)"><path d="m0 0h-2.071v-1.792h2.071c0.632 0 1.035 0.354 1.035 0.883 0 0.555-0.403 0.909-1.035 0.909m1.035-5.905-1.162 2.827h-1.944v-2.827h-1.287v7.193h3.332c0.532 0 0.858-0.076 1.238-0.304 0.68-0.378 1.107-1.084 1.107-1.893 0-0.807-0.427-1.512-1.158-1.917l1.31-3.079z" fill="#fff"/></g><g transform="translate(419.6 105.82)"><path d="m0 0v-5.93h-1.261v5.93h-2.067v1.263h5.396v-1.263z" fill="#fff"/></g><g transform="translate(385.43 204.09)"><path d="m0 0 0.033 8.061h-1.351l-0.04 1.557c0.831 0.187 1.279 0.487 1.695 1.167h1.543v-10.785z"/></g><g transform="translate(317.26 211.65)"><path d="m0 0-1.213-2.909h2.425zm2.725-6.485-0.849 2.031h-3.753l-0.849-2.031h-1.696l3.634 8.634h1.576l3.602-8.634z"/></g><g transform="translate(422.36 205.17)"><path d="m0 0v8.634h6.325v-1.544h-4.745v-1.606h2.586v-1.575h-2.586v-2.361h4.896v-1.548z"/></g><path d="m410.63 213.8h1.551v-8.634h-1.551z"/><g transform="translate(356.71 205.17)"><path d="m0 0v8.634h1.551v-7.299h4.925v-1.335z"/></g><g transform="translate(364.65 205.17)"><path d="m0 0v8.634h1.55v-7.299h4.922v-1.335z"/></g><g transform="translate(414.42 205.17)"><path d="m0 0v8.634h1.548v-7.299h4.925v-1.335z"/></g><g transform="translate(406.86 205.17)"><path d="m0 0v5.272l-2.554-5.272-2.525 5.272v-5.272h-1.519v8.634h1.519l2.525-5.118 2.554 5.118h1.519v-8.634z"/></g><g transform="translate(351.14 212.41)"><path d="m0 0c-1.303 0-2.095-1.091-2.095-2.909 0-1.848 0.792-2.936 2.095-2.936 1.639 0 2.036 1.604 2.036 2.936 0 1.818-0.729 2.909-2.036 2.909m0-7.39c-2.551 0-3.671 2.301-3.671 4.481 0 2.758 1.396 4.454 3.671 4.454 2.127 0 3.583-1.789 3.583-4.422 0-2.697-1.395-4.513-3.583-4.513"/></g><g transform="translate(309.33 212.26)"><path d="m0 0h-2.604v-2.153h2.604c0.756 0 1.272 0.424 1.272 1.061 0 0.667-0.516 1.092-1.272 1.092m1.485-3.362c-0.484-0.275-0.877-0.336-1.545-0.336h-2.545v-3.393h-1.578v8.637h4.123c0.668 0 1.061-0.092 1.545-0.364 0.817-0.453 1.334-1.301 1.334-2.274 0-0.908-0.517-1.817-1.334-2.27"/></g><g transform="translate(343.78 212.28)"><path d="m0 0v-7.118h-1.513v7.118h-2.481v1.516h6.475v-1.516z"/></g><g transform="translate(327.52 208.68)"><path d="m0 0v-3.516h-1.544v3.516l-3.634 5.118h1.909l2.513-3.512 2.484 3.512h1.906z"/></g><g transform="translate(323.26 105.29)"><path d="m0 0-1.01-2.422h2.018zm2.271-5.399-0.708 1.69h-3.127l-0.707-1.69h-1.413l3.028 7.191h1.312l3.001-7.191z" fill="#fff"/></g><g transform="translate(335.84 99.888)"><path d="m0 0v7.191h5.268v-1.285h-3.949v-1.339h2.151v-1.314h-2.151v-1.968h4.075v-1.285z" fill="#fff"/></g><g transform="translate(313.6 99.888)"><path d="m0 0v7.191h1.292v-6.08h4.102v-1.111z" fill="#fff"/></g><g transform="translate(332.85 99.888)"><path d="m0 0-3.448 4.945v-4.945h-1.267v7.191h1.267l3.323-4.745v4.745h1.24v-7.191z" fill="#fff"/></g><g transform="translate(344.92 103.11)"><path d="m0 0c-0.319 0.086-1.125 0.28-1.397 0.441-0.541 0.317-0.954 0.835-0.954 1.605 0 1.187 1.014 1.994 2.483 1.994 1.067 0 1.952-0.353 2.686-1.111l-0.96-0.857c-0.457 0.481-1.039 0.707-1.726 0.707-0.735 0-1.165-0.278-1.165-0.733 0-0.402 0.253-0.579 1.142-0.782 0.961-0.203 1.596-0.403 2.002-0.605 0.631-0.329 1.036-1.009 1.036-1.792 0-0.733-0.329-1.287-1.012-1.692-0.506-0.301-1.166-0.478-1.824-0.478-1.243 0-2.181 0.453-2.993 1.387l1.04 0.808c0.533-0.631 1.115-0.91 1.926-0.91 0.915 0 1.574 0.405 1.574 0.935 0 0.676-0.735 0.774-1.858 1.083" fill="#fff"/></g><g transform="translate(268.84 99.763)"><path d="m0 0c-1.891 0-3.052 1.488-3.052 3.733 0 2.27 1.161 3.708 3.052 3.708 1.16 0 2.22-0.581 2.775-1.589l-1.136-0.605c-0.201 0.302-0.302 0.403-0.504 0.529-0.277 0.227-0.756 0.379-1.135 0.379-1.311 0-1.74-1.287-1.74-2.397 0-1.564 0.656-2.471 1.74-2.471 0.656 0 1.01 0.226 1.639 0.907l1.136-0.605c-0.53-1.009-1.615-1.589-2.775-1.589" fill="#fff"/></g><g transform="translate(273.27 99.889)"><path d="m0 0v7.189h5.265v-1.287h-3.949v-1.337h2.151v-1.311h-2.151v-1.968h4.076v-1.286z" fill="#fff"/></g><g transform="translate(293.76 99.889)"><path d="m0 0v7.189h5.265v-1.287h-3.949v-1.337h2.152v-1.311h-2.152v-1.968h4.076v-1.286z" fill="#fff"/></g><g transform="translate(284.81 99.889)"><path d="m0 0-3.444 4.944v-4.944h-1.268v7.19h1.268l3.318-4.743v4.743h1.241v-7.19z" fill="#fff"/></g><g transform="translate(303.94 105.79)"><path d="m0 0h-2.069v-1.791h2.069c0.63 0 1.033 0.353 1.033 0.883 0 0.555-0.403 0.908-1.033 0.908m1.033-5.903-1.158 2.826h-1.944v-2.826h-1.286v7.19h3.33c0.529 0 0.856-0.076 1.235-0.303 0.681-0.378 1.108-1.085 1.108-1.892s-0.427-1.513-1.158-1.917l1.311-3.078z" fill="#fff"/></g><g transform="translate(290.47 105.82)"><path d="m0 0v-5.929h-1.259v5.929h-2.066v1.261h5.391v-1.261z" fill="#fff"/></g></g></g></svg>
