<?xml version="1.0" encoding="UTF-8"?>
<svg width="672.67" height="888.29" version="1.1" viewBox="0 0 672.67 888.29" xml:space="preserve" xmlns="http://www.w3.org/2000/svg"><defs><clipPath id="b"><path d="m24.818 39.015h517.36v698.98h-517.36z"/></clipPath><clipPath id="a"><path d="m24.818 39.015h517.36v698.98h-517.36z"/></clipPath></defs><g transform="matrix(1.3333 0 0 -1.3333 -50.243 947.68)"><g transform="translate(70.639 587.02)"><path d="m0 0c-3.642 0-6.605 2.963-6.605 6.605v90.72c0 3.642 2.963 6.605 6.605 6.605h108c3.642 0 6.605-2.963 6.605-6.605v-90.72c0-3.642-2.963-6.605-6.605-6.605z" fill="#fff"/></g><g transform="translate(178.64 691.08)"><path d="m0 0h-108c-3.711 0-6.73-3.019-6.73-6.73v-90.72c0-3.711 3.019-6.73 6.73-6.73h108c3.711 0 6.73 3.019 6.73 6.73v90.72c0 3.711-3.019 6.73-6.73 6.73m0-0.25c3.579 0 6.48-2.901 6.48-6.48v-90.72c0-3.579-2.901-6.48-6.48-6.48h-108c-3.579 0-6.48 2.901-6.48 6.48v90.72c0 3.579 2.901 6.48 6.48 6.48z"/></g><g transform="translate(178.64 589.31)"><path d="m0 0h-108c-2.386 0-4.32 1.934-4.32 4.32v90.72c0 2.386 1.934 4.32 4.32 4.32h108c2.386 0 4.32-1.934 4.32-4.32v-90.72c0-2.386-1.934-4.32-4.32-4.32" fill="#006f51"/></g><g transform="translate(101.99 647.63)"><path d="m0 0h10.174v-2.728h-7.448v-4.244h5.026v-2.789h-5.026v-4.73h7.992v-2.789h-10.718z" fill="#fff"/></g><g transform="translate(118.68 636.72)"><path d="m0 0h2.896l-1.424 4.041zm3.708-2.324h-4.522l-1.423-4.043h-2.439l4.98 14.4h2.288l4.979-14.4h-2.439z" fill="#fff"/></g><g transform="translate(127.4 633.74)"><path d="m0 0 2.173 0.808c0.606-1.364 1.717-2.122 3.081-2.122 1.314 0 2.225 0.909 2.225 2.122 0 1.926-2.223 2.223-4.093 2.981-0.859 0.355-2.779 1.213-2.779 3.587 0 2.832 1.918 3.888 4.496 3.888 2.021 0 3.386-1.162 4.093-2.93l-2.021-0.607c-0.227 0.569-1.05 1.264-2.122 1.264-2.054 0-2.229-1.096-2.229-1.456 0-1.347 1.161-1.613 3.049-2.205 1.923-0.605 3.93-1.489 3.93-4.576 0-3.108-2.52-4.392-4.549-4.392-2.477 0-4.295 1.465-5.254 3.638" fill="#fff"/></g><g transform="translate(143.94 630.35)"><path d="m0 0h-2.284v12.379h-3.298v2.021h8.932v-2.021h-3.35z" fill="#fff"/></g><g transform="translate(82.519 670.14)"><path d="m0 0c1.89-1.186 4.724-2.847 4.724-6.257 0-2.797-2.132-5.031-4.81-5.031-3.044 0-4.871 2.575-4.871 5.396h2.436c0-1.471 0.73-2.972 2.435-2.972 1.339 0 2.434 1.211 2.434 2.607 0 3.756-6.452 3.54-6.452 8.367 0 2.486 1.948 4.484 4.443 4.484 2.436 0 4.324-1.879 4.385-4.486h-2.376c-0.061 1.212-0.914 2-2.009 2-1.158 0-2.069-0.847-2.069-1.998 0-1.123 0.596-1.399 1.73-2.11" fill="#fff"/></g><g transform="translate(91.706 665.46)"><path d="m0 0c0-1.274 0.244-4.307 2.02-4.307 1.799 0 2.019 3.093 2.019 4.367 0 1.223-0.253 4.24-2.019 4.24v7e-3c-1.776 0-2.02-3.033-2.02-4.307m-2.389 0.058c0 2.795 0.735 6.549 4.409 6.549s4.408-3.516 4.408-6.549c0-3.015-0.734-6.611-4.408-6.611-3.681 0-4.409 3.335-4.409 6.611" fill="#fff"/></g><g transform="translate(106.98 659.88)"><path d="m0 0c-1.164-1.032-2.022-1.032-2.572-1.032-1.78 0-3.858 1.375-3.858 4.246v8.672h2.449v-8.672c0-1.557 0.918-1.94 2.143-1.94 0.929 0 1.775 0.484 1.775 1.94v8.672h2.45v-12.614h-2.387z" fill="#fff"/></g><g transform="translate(115.09 658.91)"><path d="m0 0c-1.816 0-2.357 1.499-2.357 3.274v7.277h-1.632v2.303h1.632v3.641l2.417 1.335v-4.976h1.994v-2.303h-1.994v-7.037c0-0.84 0.119-1.212 0.845-1.212 0.544 0 0.786 0.18 1.33 0.607l-0.362-2.369c-0.784-0.419-1.268-0.54-1.873-0.54" fill="#fff"/></g><g transform="translate(125.42 667.82)"><path d="m0 0c0 1.637-0.935 2-2.143 2-0.92 0-1.775-0.544-1.775-2v-8.674h-2.449v16.255l2.386 1.335v-5.156c0.607 0.294 1.65 0.54 2.324 0.54 2.19 0 4.106-1.468 4.106-4.3v-8.674h-2.449z" fill="#fff"/></g><g transform="translate(143.64 666.3)"><path d="m0 0h2.493l-1.277 4.972zm3.099-2.426h-3.706l-1.156-4.728h-2.492l4.315 17.28h2.435l4.313-17.28h-2.493z" fill="#fff"/></g><g transform="translate(155.41 659.15)"><path d="m0 0-4.095 12.616h2.443l2.626-8.493 2.564 8.493h2.566l-4.091-12.616z" fill="#fff"/></g><g transform="translate(165.29 666.68)"><path d="m0 0h3.976c0 1.207-0.185 3.149-1.959 3.149v4e-3c-1.775 0-2.017-1.879-2.017-3.153m2.017-5.46c0.977 0 1.776 0.909 2.02 2l1.898-1.396c-0.615-1.637-1.777-2.909-3.918-2.909-3.674 0-4.404 3.335-4.404 6.612 0 2.861 0.735 6.548 4.404 6.548 3.914 0 4.413-3.851 4.413-6.898v-0.683h-6.37c0.121-1.395 0.549-3.274 1.957-3.274" fill="#fff"/></g><path d="m136.48 606.15h-36.68v7.38h36.68z" fill="#fff"/><g transform="translate(133.38 617.58)"><path d="m0 0 2.764-7.238c0.126-0.332 0.126-0.699 0-1.031l-2.764-7.238c-0.504-1.32 0.992-2.504 2.161-1.71l13.939 9.464-13.939 9.463c-1.169 0.794-2.665-0.39-2.161-1.71" fill="#fff"/></g><g transform="translate(317.61 587.02)"><path d="m0 0c-3.643 0-6.605 2.963-6.605 6.605v90.72c0 3.642 2.962 6.605 6.605 6.605h194.4c3.643 0 6.606-2.963 6.606-6.605v-90.72c0-3.642-2.963-6.605-6.606-6.605z" fill="#fff"/></g><g transform="translate(512.01 691.08)"><path d="m0 0h-194.4c-3.711 0-6.73-3.019-6.73-6.73v-90.72c0-3.711 3.019-6.73 6.73-6.73h194.4c3.711 0 6.73 3.019 6.73 6.73v90.72c0 3.711-3.019 6.73-6.73 6.73m0-0.25c3.579 0 6.48-2.901 6.48-6.48v-90.72c0-3.579-2.901-6.48-6.48-6.48h-194.4c-3.579 0-6.48 2.901-6.48 6.48v90.72c0 3.579 2.901 6.48 6.48 6.48z"/></g><g transform="translate(512.01 589.31)"><path d="m0 0h-194.4c-2.386 0-4.32 1.934-4.32 4.32v90.72c0 2.386 1.934 4.32 4.32 4.32h194.4c2.386 0 4.32-1.934 4.32-4.32v-90.72c0-2.386-1.934-4.32-4.32-4.32" fill="#006f51"/></g><g transform="translate(392.16 647.63)"><path d="m0 0h10.174v-2.728h-7.448v-4.244h5.026v-2.789h-5.026v-4.73h7.992v-2.789h-10.718z" fill="#fff"/></g><g transform="translate(408.85 636.72)"><path d="m0 0h2.896l-1.424 4.041zm3.708-2.324h-4.522l-1.423-4.043h-2.439l4.98 14.4h2.288l4.979-14.4h-2.439z" fill="#fff"/></g><g transform="translate(417.58 633.74)"><path d="m0 0 2.173 0.808c0.606-1.364 1.717-2.122 3.081-2.122 1.314 0 2.225 0.909 2.225 2.122 0 1.926-2.223 2.223-4.093 2.981-0.859 0.355-2.779 1.213-2.779 3.587 0 2.832 1.918 3.888 4.496 3.888 2.021 0 3.386-1.162 4.093-2.93l-2.021-0.607c-0.227 0.569-1.05 1.264-2.122 1.264-2.054 0-2.229-1.096-2.229-1.456 0-1.347 1.161-1.613 3.049-2.205 1.923-0.605 3.93-1.489 3.93-4.576 0-3.108-2.52-4.392-4.549-4.392-2.477 0-4.295 1.465-5.254 3.638" fill="#fff"/></g><g transform="translate(434.12 630.35)"><path d="m0 0h-2.284v12.379h-3.298v2.021h8.932v-2.021h-3.35z" fill="#fff"/></g><path d="m426.65 606.15h-36.68v7.38h36.68z" fill="#fff"/><g transform="translate(423.55 617.58)"><path d="m0 0 2.764-7.238c0.126-0.332 0.126-0.699 0-1.031l-2.764-7.238c-0.504-1.32 0.992-2.504 2.161-1.71l13.939 9.464-13.939 9.463c-1.169 0.794-2.665-0.39-2.161-1.71" fill="#fff"/></g><g transform="translate(329.66 670.14)"><path d="m0 0c1.89-1.186 4.724-2.847 4.724-6.258 0-2.797-2.132-5.03-4.81-5.03-3.044 0-4.871 2.575-4.871 5.396h2.436c0-1.471 0.73-2.973 2.435-2.973 1.339 0 2.434 1.212 2.434 2.607 0 3.757-6.452 3.541-6.452 8.368 0 2.486 1.948 4.484 4.443 4.484 2.437 0 4.324-1.879 4.385-4.486h-2.376c-0.061 1.212-0.914 2-2.009 2-1.158 0-2.069-0.846-2.069-1.998 0-1.123 0.596-1.399 1.73-2.11" fill="#fff"/></g><g transform="translate(351.26 674)"><path d="m0 0v-4.365h2.54c1.456 0 2.24 0.788 2.24 2.183 0 1.335-0.907 2.182-2.238 2.182zm2.361-6.731h-2.361v-8.123h-2.48v17.28h5.143c2.711 0 4.538-1.819 4.538-4.608 0-2.06-0.848-3.577-2.481-4.183l2.479-8.489h-2.538z" fill="#fff"/></g><g transform="translate(364.47 665.39)"><path d="m0 0c-0.974 0-1.86-0.642-1.86-2.052 0-1.566 0.851-2.244 2.059-2.244 0.846 0 1.453 0.367 1.453 1.151l3e-3 2.486c-0.387 0.354-1.13 0.659-1.655 0.659m1.773-5.875c-0.423-0.363-1.33-0.542-2.119-0.542-2.121 0-3.937 1.879-3.937 4.428 0 2.706 1.721 4.266 3.814 4.266 0.618 0 1.566-0.234 2.121-0.506-0.06 1.517-0.064 2.668-1.998 2.668-1.09 0-2.181-0.91-2.605-1.577l-0.604 2.363c1.03 0.97 2.3 1.456 3.512 1.456 3.335 0 4.058-2.432 4.058-4.489v-8.43h-2.242z" fill="#fff"/></g><g transform="translate(377.79 667.76)"><path d="m0 0c0 1.674-0.927 2-2.143 2-0.92 0-1.775-0.551-1.775-2v-8.614h-2.45v12.614h2.389v-0.544c0.393 0.499 1.329 0.836 2.368 0.836 1.864 0 4.06-1.08 4.06-4.232v-8.674h-2.449z" fill="#fff"/></g><g transform="translate(387.04 669.76)"><path d="m0 0c-1.579 0-1.946-2.424-1.946-4.244 0-1.882 0.438-4.368 1.886-4.368 1.276 0 2.006 0.938 2.006 2.426v3.76c0 1.912-0.911 2.426-1.946 2.426m2.007-10.614v0.607s-0.851-0.847-1.946-0.847c-3.755 0-4.439 3.519-4.439 6.612 0 3.05 0.684 6.549 4.134 6.549 1.4 0 2.251-0.665 2.251-0.665v4l2.432 1.335v-17.591z" fill="#fff"/></g><g transform="translate(396.46 665.46)"><path d="m0 0c0-1.274 0.244-4.307 2.02-4.307 1.799 0 2.019 3.093 2.019 4.368 0 1.222-0.253 4.24-2.019 4.24v6e-3c-1.776 0-2.02-3.033-2.02-4.307m-2.389 0.058c0 2.795 0.734 6.549 4.409 6.549 3.674 0 4.408-3.516 4.408-6.549 0-3.015-0.734-6.611-4.408-6.611-3.681 0-4.409 3.335-4.409 6.611" fill="#fff"/></g><g transform="translate(405.48 675.41)"><path d="m0 0 2.419 1.335v-17.591h-2.419z" fill="#fff"/></g><g transform="translate(415.48 661.15)"><path d="m0 0c1.585 0 1.944 2.419 1.944 4.247 0 3.697-1.166 4.32-2.199 4.32-0.881 0-1.693-0.648-1.693-2.865v-2.851c0-1.905 0.915-2.851 1.948-2.851m4.352 4.247c0-2.973-0.667-6.55-4.136-6.55-1.4 0-2.246 0.48-2.246 0.48v-3.884l-2.435-1.148v17.469h2.435v-0.596c0.769 0.717 1.473 0.903 2.306 0.903 3.608 0 4.076-3.62 4.076-6.674" fill="#fff"/></g><g transform="translate(428.79 667.82)"><path d="m0 0c0 1.637-0.935 2-2.143 2-0.92 0-1.775-0.544-1.775-2v-8.674h-2.45v16.256l2.387 1.334v-5.155c0.607 0.293 1.65 0.54 2.324 0.54 2.191 0 4.106-1.469 4.106-4.301v-8.674h-2.449z" fill="#fff"/></g><g transform="translate(437.06 659.15)"><path d="m0 0-4.095 12.617h2.443l2.626-8.494 2.564 8.494h2.566l-4.091-12.617z" fill="#fff"/></g><path d="m445.07 671.77h2.419v-12.619h-2.419zm-0.032 3.636c0 0.731 0.54 1.272 1.211 1.272 0.733 0 1.273-0.541 1.273-1.272 0-0.672-0.54-1.212-1.273-1.212-0.671 0-1.211 0.54-1.211 1.212" fill="#fff"/><g transform="translate(450.6 675.41)"><path d="m0 0 2.419 1.335v-17.591h-2.419z" fill="#fff"/></g><g transform="translate(456.13 675.41)"><path d="m0 0 2.419 1.335v-17.591h-2.419z" fill="#fff"/></g><g transform="translate(463.53 666.67)"><path d="m0 0h3.977c0 1.207-0.186 3.149-1.96 3.149v5e-3c-1.775 0-2.017-1.88-2.017-3.154m2.017-5.46c0.977 0 1.776 0.909 2.02 2l1.899-1.396c-0.616-1.637-1.778-2.909-3.919-2.909-3.674 0-4.404 3.335-4.404 6.612 0 2.862 0.735 6.549 4.404 6.549 3.914 0 4.413-3.852 4.413-6.899v-0.683h-6.37c0.121-1.395 0.549-3.274 1.957-3.274" fill="#fff"/></g><g transform="translate(486.84 674)"><path d="m0 0v-4.365h2.54c1.456 0 2.24 0.788 2.24 2.183 0 1.335-0.907 2.182-2.238 2.182zm2.361-6.731h-2.361v-8.123h-2.48v17.28h5.143c2.711 0 4.538-1.819 4.538-4.608 0-2.06-0.848-3.577-2.481-4.183l2.479-8.489h-2.538z" fill="#fff"/></g><g transform="translate(500.49 669.76)"><path d="m0 0c-1.579 0-1.946-2.424-1.946-4.244 0-1.882 0.438-4.368 1.886-4.368 1.276 0 2.006 0.938 2.006 2.426v3.76c0 1.912-0.911 2.426-1.946 2.426m2.007-10.614v0.607s-0.851-0.847-1.947-0.847c-3.754 0-4.438 3.519-4.438 6.612 0 3.05 0.684 6.549 4.134 6.549 1.4 0 2.251-0.665 2.251-0.665v4l2.432 1.335v-17.591z" fill="#fff"/></g><g fill="black" font-family="Helvetica"><g><text transform="matrix(1 0 0 -1 64.16 567.51)" font-size="10px"><tspan x="0 3.5090001 10.194 15.783 21.337999 24.163 29.690001 33.02 35.799999 38.066002 43.066002 45.846001 48.668999 54.27 59.830002 62.610001 67.677002 70.491997 73.821999 79.421997 84.931 87.710999 90.490997 96.042999 101.639 110.014 115.574 118.354 123.951 129.60201 135.162 137.942 143.022 148.582 154.16299 156.39799 158.618 161.39799 167.045 172.567 175.347" y="0">“South” is the street name and shall not </tspan><tspan x="0 5.6479998 11.209 13.989 19.618999 25.280001 30.898001 34.228001 39.676998 44.747002 46.977001 52.488998 55.216999 60.847 66.349998" y="12">be abbreviated.</tspan><tspan x="0 3.5599999" y="30">“E</tspan></text><text transform="matrix(1 0 0 -1 74.543 537.51)" font-size="8px"><tspan x="0 5.336 10.648" y="0">AST</tspan></text><text transform="matrix(1 0 0 -1 90.275 537.51)" font-size="10px"><tspan x="0 3.3299999 6.1100001 8.3760004 13.376 16.156 18.979 24.58 30.139999 32.919998 38.029999 43.617001 46.994999 52.584999 54.827 60.382 65.963997 68.183998 70.963997 76.555 78.786003 82.115997 87.745003 92.889 95.725998 98.028999 103.622 109.182 111.962 117.476 120.256 123.036 125.848 129.186 134.617 139.495 145.05499 147.27499" y="0">” is the cardinal direction of travel </tspan><tspan x="-26.120001 -20.523001 -14.872 -9.3120003 -6.5320001 -1.452 4.1079998 9.6890001 11.924 14.144 16.924 22.570999 28.093 30.872999 33.653 39.298 44.858002 47.638 53.266998 58.929001 64.545998 67.875999 73.325996 78.392998 80.622002 86.135002 88.863998 94.498001 100" y="12">and shall not be abbreviated.</tspan><tspan x="-26.120001 -23.309999 -16.893 -12.015 -6.4349999 -0.85600001 4.698 10.203 13.533 16.313 18.579 23.579 26.358999 29.181999 34.783001 40.342999 43.123001 48.189999 51.006001 54.335999 59.935001 65.443001 68.223 71.002998 76.556 82.152 90.527 96.086998 98.866997 104.48 110.049 115.164 120.269 123.661 125.936 131.496 134.25301 139.83701 143.16701" y="30">”Avenue” is the street name descriptor </tspan><tspan x="-26.120001 -18.870001 -16.606001 -13.785 -8.2250004 -5.4450002 0.115 2.895 6.2249999 11.854 17.017 22.653999 28.232 33.821999 36.019001 41.047001 46.676998 52.306 54.584 60.144001 62.924 68.553001 74.214996 79.832001 83.162003 88.612 93.679001 95.908997 101.421 104.258 106.561 112.155 117.43 121.32 124.1 129.69701 135.34801 140.908" y="42">with a recognizable abbreviation* and </tspan><tspan x="-26.120001 -21.040001 -15.41 -9.8210001 -4.2989998 -1.988 3.5739999 6.3540001 12.001 17.563 20.343 25.973 31.634001 37.251999 40.581001 46.029999 51.099998 53.330002 58.841999 61.570999 67.200996 72.703003" y="54">should be abbreviated.</tspan><tspan x="220.85001 224.35899 231.04401 236.633 242.188 245.013 250.53999 253.87 256.64999 258.91599 263.91599 266.69601 272.25601 275.03601 280.14401 285.73099 289.10901 294.69901 296.94101 302.496 308.078 310.298 313.078 318.668 320.89999 324.23001 329.85901 335.00299 337.84 340.14301 345.73599 351.29599 354.07599 359.673 365.32401 370.884 373.664 381.99399 387.401 392.401" y="-30">“South” is a cardinal direction and may </tspan><tspan x="220.85001 226.49699 232.05901 234.839 240.46899 246.13 251.748 255.078 260.52701 265.59698 267.827 273.33899 276.06799 281.698 287.20099" y="-18">be abbreviated.</tspan><tspan x="220.85001 224.41" y="0">“E</tspan></text><text transform="matrix(1 0 0 -1 321.52 537.51)" font-size="8px"><tspan x="0 5.336 10.648" y="0">AST</tspan></text></g><g font-size="10px"><text transform="matrix(1 0 0 -1 337.25 537.51)"><tspan x="0 3.3299999 8.8900003 11.154 16.153999 18.934 21.757 27.358 32.917999 35.698002 40.808998 46.395 49.772999 55.363998 57.605 63.165001 68.746002 70.966003 73.746002 79.336998 81.568001 84.898003 90.527 95.670998 98.508003 100.811 106.404 111.964 114.744 120.258 123.038 125.818 128.63 131.96899 137.399 142.27699 147.83701 150.05701" y="0">” is the cardinal direction of travel </tspan><tspan x="-26.120001 -20.523001 -14.872 -9.3120003 -6.5320001 -1.452 4.1079998 9.6890001 11.924 14.144 16.924 22.570999 28.093 30.872999 33.653 39.298 44.858002 47.638 53.266998 58.929001 64.545998 67.875999 73.325996 78.392998 80.622002 86.135002 88.863998 94.498001 100" y="12">and shall not be abbreviated.</tspan><tspan x="-26.120001 -22.572001 -15.352 -9.8100004 -4.2290001 1.498 4.8280001 7.6079998 9.875 14.875 17.655001 20.476999 26.079 31.639 34.418999 39.485001 42.300999 45.631001 51.23 56.738998 59.519001 62.299 67.850998 73.446999 81.821999 87.382004 90.162003 95.775002 101.344 106.46 111.565 114.957 117.231 122.791 125.548 131.132 134.46201 137.242 144.492 146.755 149.577 155.13699" y="30">“Road” is the street name descriptor with </tspan><tspan x="-26.120001 -20.559999 -17.780001 -14.45 -8.8219995 -3.6589999 1.979 7.5560002 13.147 15.344 20.372 26.000999 31.631001 33.908001 39.467999 42.248001 47.876999 53.539001 59.157001 62.487 67.936996 73.003998 75.233002 80.746002 83.583 85.886002 91.478996 96.754997 100.645 103.425 109.021 114.672 120.232 123.012 128.092 133.72301 139.312 144.83299 147.145 152.705" y="42">a recognizable abbreviation* and should </tspan><tspan x="-26.120001 -20.473 -14.911 -12.131 -6.5009999 -0.83999997 4.7779999 8.1079998 13.557 18.627001 20.857 26.368999 29.097 34.727001 40.23" y="54">be abbreviated.</tspan></text><text transform="matrix(1 0 0 -1 195.37 703.48)" font-weight="bold"><tspan x="0 6.8559999 9.6359997 15.196 17.976 25.195999 30.756001 34.646 40.756001 43.535999 49.646 55.206001 57.986 60.765999 66.875999 69.655998 73.545998 79.106003 84.666 87.996002 90.776001 96.886002 102.996 108.556 111.336 116.896 123.006 129.116 131.896 138.006 141.896 144.67599 150.23599 156.34599 159.67599 165.23599 168.56599 171.34599 177.45599 183.56599" y="0">A – Cardinal directions and orientations</tspan></text><text transform="matrix(1 0 0 -1 64.149 385.24)"><tspan x="0 3.5090001 10.194 15.783 21.337999 24.163 29.764 35.294998 40.928001 45.999001 49.152 52.481998 55.262001 57.528 62.528 65.307999 70.867996 73.648003 79.244003 84.753998 90.334 95.915001 99.253998 104.85 110.401 113.181 115.961 121.067 126.654 130.032 135.623 137.864 143.424 149.005 151.22501" y="0">“Southeast” is a quadrant cardinal </tspan><tspan x="0 5.5840001 8.9770002 11.251 16.83 22.379999 25.231001 30.743999 33.582001 35.883999 41.478001 47.037998 49.818001 55.414001 61.064999 66.625 69.404999 74.485001 80.115997 85.705002 91.225998 93.538002 99.098 101.878 107.525 113.085 115.865 121.495 127.156 132.774 136.104 141.55299 146.62 148.85001 154.362 157.092 162.72501 168.228" y="12">orientation and should be abbreviated.</tspan><tspan x="0 3.608 10.414 16.003 21.524 23.802 29.250999 34.115002 39.702 43.080002 48.807999 52.138 54.917999 57.183998 62.183998 64.963997 67.786003 73.388 78.947998 81.727997 86.793999 89.610001 92.940002 98.540001 104.048 106.828 109.608 115.16 120.757 129.132 134.692 137.472 143.06799 148.72 154.28 157.06 162.14 167.69501 173.276 175.51199 177.73199" y="30">”Boulevard” is the street name and shall </tspan><tspan x="0 5.6459999 11.169 13.949 16.729 22.372999 27.933001 30.712999 36.342999 42.004002 47.622002 50.952 56.401001 61.467999 63.698002 69.210999 71.940002 77.572998 83.075996" y="42">not be abbreviated.</tspan><tspan x="246.97 250.479 257.164 262.75299 268.30801 271.133 276.73401 282.26501 287.89801 292.96899 296.12201 299.452 302.23199 304.49799 309.49799 312.27802 315.10101 320.702 326.26199 329.04199 334.10901 336.92499 340.255 345.854 351.362 354.142 356.922 362.47501 368.07199 376.44699 382.00699 384.78699 390.383 396.034 401.59399 404.37399 409.45401 415.01401 420.595 422.83099 425.05099" y="0">“Southeast” is the street name and shall </tspan><tspan x="246.97 252.616 258.13901 260.91901 263.69901 269.34299 274.90302 277.68301 283.31299 288.974 294.591 297.92099 303.371 308.43799 310.668 316.17999 318.91 324.543 330.04599" y="12">not be abbreviated.</tspan><tspan x="246.97 250.58501 257.39099 262.98001 268.50101 270.77899 276.228 281.09201 286.67899 290.05701 295.784 299.11401 301.89401 304.16 309.16 311.94 314.763 320.36499 325.92499 328.70499 333.771 336.58701 339.91699 345.51599 351.02499 353.80499 356.58499 362.13699 367.73401 376.10901 381.66901 384.44901 390.061 395.63101 400.745 405.85001 409.242 411.517 417.077 419.83401 425.41901 428.74899" y="30">“Boulevard” is the street name descriptor </tspan><tspan x="246.97 254.22 256.48401 259.30499 264.86499 267.64499 273.20499 275.98499 279.315 284.944 290.10699 295.74399 301.32199 306.91199 309.10901 314.13699 319.767 325.396 327.67401 333.23401 336.01401 341.64301 347.30499 352.922 356.25201 361.702 366.76901 368.99899 374.51099 377.34799 379.651 385.245 390.51999 394.41 397.19 402.78699 408.43799 413.99799" y="42">with a recognizable abbreviation* and </tspan><tspan x="246.97 252.05 257.67999 263.26901 268.79099 271.10199 276.664 279.444 285.091 290.65302 293.43301 299.06299 304.724 310.34201 313.67099 319.12 324.19 326.42001 331.93201 334.66101 340.29099 345.793" y="54">should be abbreviated.</tspan></text><text transform="matrix(1 0 0 -1 202.4 451.73)" font-weight="bold"><tspan x="0 7.2199998 10 15.56 18.34 26.120001 32.23 37.790001 43.900002 47.790001 53.349998 59.459999 62.790001 65.57 71.129997 77.239998 83.349998 86.129997 91.690002 97.25 101.14 107.25 110.03 116.14 121.7 124.48 127.26 133.37 136.14999 140.03999 145.60001 151.16 154.49001 157.27 163.38 169.49001" y="0">B – Quadrant and cardinal directions</tspan></text><text transform="matrix(1 0 0 -1 37.919 143.79)"><tspan x="0 3.5569999 10.037 15.568 21.174 26.434999 29.764999 32.544998 34.811001 39.811001 42.591 48.151001 50.931 56.528 62.155998 67.793999 73.361 76.696999 82.327003 87.956001 93.546997 95.849998 100.959 106.541 108.761 111.541 114.238 119.769 125.282 128.075 133.599 136.929 142.489 145.269 150.901 155.901 158.681 164.241 167.021 172.631 178.201 183.31599 188.42101 191.813 194.088 199.64799 202.405 207.989 211.319 214.099 221.34599 223.612 226.43201 232.02299 234.26601 239.826" y="0">“Peak” is a geographical feature as a descriptor within </tspan><tspan x="0 5.5599999 8.3400002 13.958 17.334999 22.962 28.608999 34.179001 37.508999 40.289001 45.842999 51.439999 59.813999 65.221001 68.000999 70.780998 80.288002 85.889999 91.469002 97.028999 99.808998 105.369 108.149 113.748 119.376 125.014 130.58099 133.91701 139.54601 145.17599 150.767 153.069 158.179 163.761 165.981 168.761 171.457 176.989 182.502 185.29401 190.81799 194.14799 199.70799 202.48801 208.101 213.66901 218.784 223.89 227.28101 229.556 235.116 237.873 243.457 246.787" y="12">a proper name. When a geographical feature descriptor </tspan><tspan x="0 5.6570001 11.27 16.839001 21.839001 24.618999 30.264999 35.786999 38.567001 41.347 46.898998 52.330002 57.208 62.768002 65.547997 71.108002 73.888 77.218002 82.846001 88.009003 93.646004 99.223999 104.814 107.011 112.039 117.668 123.298 125.576 131.136 133.916 139.545 145.20599 150.82401 154.15401 159.604 164.67101 166.89999 172.41299 175.25 177.55299 183.147 188.66701 191.44701 194.22701 196.48801 199.26801 202.048 207.125 212.685 218.26601 220.502 222.722 225.502 231.149 236.67101 239.451" y="24">does not have a recognizable abbreviation, it shall not </tspan><tspan x="0 5.6479998 11.209 13.989 19.618999 25.280001 30.898001 34.228001 39.676998 44.747002 46.977001 52.488998 55.216999 60.847 66.349998" y="36">be abbreviated.</tspan><tspan x="100.42" y="97.559998">*</tspan></text></g><text transform="matrix(1 0 0 -1 144.47 46.224)" font-size="8px"><tspan x="0 5.336 9.7840004 14.232 16.315201 20.315201 24.763201 29.211201 30.9872 35.4352 39.4352 41.659199 46.107201 51.883202 54.547199 58.995201 61.2192 65.667198 70.115196 74.563202 76.787201 81.235199 87.0112 89.675201 94.123199 96.347198 98.571198 103.0192 105.6832 107.9072 110.1312 114.5792 119.0272 121.2512 125.6992 130.1472 134.5952 137.2592 141.7072 145.7072 147.4832 151.9312 154.1552 155.9312 160.3792 164.82719 168.82719 171.05119 173.27521 177.72321 182.1712 184.3952 186.6192 191.0672 193.7312 198.1792 200.4032 204.8512 208.8512 212.8512 217.29919 221.74719 223.97121 228.4192 232.8672 234.6432 239.0912 241.3152 243.5392 247.9872 250.6512 252.8752 257.32321 261.32321 265.77121 267.99521 272.44321 276.8912 279.1152 283.1152 284.8912 289.3392 293.7872" y="0">See Tables 1D-1 and 2D-3 for the abbreviations that are acceptable for use on signs</tspan></text><text transform="matrix(1 0 0 -1 325.93 143.79)" font-size="10px"><tspan x="0 3.615 12.086 17.674999 23.208 28.759001 31.912001 35.242001 38.021999 40.287998 45.287998 48.068001 53.627998 56.408001 62.005001 67.633003 73.271004 78.837997 82.174004 87.804001 93.433998 99.024002 101.327 106.436 112.018 114.238 117.018 119.714 125.246 130.759 133.552 139.076 142.40601 147.966 150.746 156.37801 161.37801 164.158 169.718" y="0">“Mount” is a geographical feature as a </tspan><tspan x="0 5.612 11.182 16.297001 21.402 24.794001 27.069 32.629002 35.386002 40.970001 44.299999 47.080002 54.327999 56.592999 59.414001 65.004997 67.247002 72.806999 75.586998 81.147003 83.927002 89.542999 92.920998 98.547997 104.196 109.765 113.095 115.875 121.429 127.026 135.401 140.80701 143.58701 146.367 155.875 161.476 167.056 172.616 175.396 180.95599" y="12">descriptor within a proper name. When a </tspan><tspan x="0 5.599 11.227 16.865 22.431999 25.768 31.396999 37.027 42.618 44.919998 50.029999 55.612 57.832001 60.612 63.307999 68.839996 74.351997 77.146004 82.668999 85.999001 91.558998 94.338997 99.952003 105.521 110.636 115.741 119.133 121.408 126.968 129.72501 135.30901 138.63901 141.41901 146.97301 152.606 157.606 160.386 165.946" y="24">geographical feature descriptor has a </tspan><tspan x="0 3.3299999 8.9589996 14.122 19.759001 25.336 30.927 33.124001 38.152 43.780998 49.410999 51.688 57.248001 60.028 65.657997 71.319 76.936996 80.266998 85.717003 90.783997 93.013 98.526001 101.363 103.666 109.259 114.78 117.56 120.34 122.601 125.381 128.161 136.491 141.895 146.895" y="36">recognizable abbreviation, it may </tspan><tspan x="0 5.6479998 11.209 13.989 19.618999 25.280001 30.898001 34.228001 39.676998 44.747002 46.977001 52.488998 55.216999 60.847 66.349998" y="48">be abbreviated.</tspan></text><text transform="matrix(1 0 0 -1 188.52 299.8)" font-size="10px" font-weight="bold"><tspan x="0 7.2199998 10 15.56 18.34 26.120001 29.450001 35.560001 41.119999 45.009998 47.790001 53.900002 59.459999 65.019997 70.580002 74.470001 77.25 83.360001 86.690002 92.800003 96.690002 102.25 105.03 112.81 115.59 118.92 125.03 127.81 133.92 136.7 142.81 146.7 152.81 158.92 164.48 168.37 171.14999 177.25999 182.82001 191.71001 197.27" y="0">C – Other descriptors within proper names</tspan></text></g><g clip-path="url(#b)"><g transform="translate(332.41 163.17)"><path d="m0 0c-3.643 0-6.605 2.963-6.605 6.605v38.88c0 3.643 2.962 6.606 6.605 6.606h159.84c3.641 0 6.604-2.963 6.604-6.606v-38.88c0-3.642-2.963-6.605-6.604-6.605z" fill="#fff"/></g><g transform="translate(492.25 215.39)"><path d="m0 0h-159.84c-3.711 0-6.73-3.019-6.73-6.73v-38.88c0-3.711 3.019-6.73 6.73-6.73h159.84c3.711 0 6.73 3.019 6.73 6.73v38.88c0 3.711-3.019 6.73-6.73 6.73m0-0.25c3.579 0 6.48-2.901 6.48-6.48v-38.88c0-3.579-2.901-6.48-6.48-6.48h-159.84c-3.579 0-6.48 2.901-6.48 6.48v38.88c0 3.579 2.901 6.48 6.48 6.48z"/></g><g transform="translate(332.41 165.46)"><path d="m0 0c-2.382 0-4.32 1.938-4.32 4.32v38.88c0 2.382 1.938 4.32 4.32 4.32h159.84c2.382 0 4.32-1.938 4.32-4.32v-38.88c0-2.382-1.938-4.32-4.32-4.32z" fill="#006f51"/></g><g transform="translate(465.96 196.82)"><path d="m0 0c-0.242-0.045-0.474-0.16-0.661-0.348-0.493-0.492-0.493-1.29 0-1.782 0.111-0.112 0.239-0.198 0.376-0.259l3.595-1.624-9.317-9.317 4.582-4.582 9.317 9.317 1.624-3.595c0.061-0.137 0.147-0.265 0.259-0.377 0.492-0.492 1.29-0.492 1.782 0 0.188 0.188 0.304 0.42 0.348 0.662l2.707 14.612z" fill="#fff"/></g><g transform="translate(354.85 190.58)"><path d="m0 0-4.007-10.005-4.011 10.005v-10.005h-2.734v17.28h2.734l4.011-9.701 4.007 9.701h2.735v-17.28h-2.735z" fill="#fff"/></g><g transform="translate(362.79 183.61)"><path d="m0 0v7.039h-1.836v2.549h1.836v3.642l2.694 1.335v-4.977h2.203v-2.488h-2.203v-6.674c0-0.862 0.101-1.214 0.918-1.214 0.611 0 0.918 0.179 1.468 0.607l-0.369-2.549c-1.089-0.478-1.38-0.555-2.32-0.555-1.827 0-2.391 1.518-2.391 3.285" fill="#fff"/></g><g transform="translate(392.2 183.06)"><path d="m0 0c1.862 0 3.374 1.765 3.374 6.156s-1.512 6.156-3.374 6.156-3.374-1.763-3.374-6.156c0-4.391 1.512-6.156 3.374-6.156m6.108 6.156c0-0.62 0.132-8.942-6.138-8.942-6.271 0-6.139 8.322-6.139 8.942s-0.132 8.94 6.139 8.94c6.27 0 6.138-8.32 6.138-8.94" fill="#fff"/></g><g transform="translate(403.49 196.84)"><path d="m0 0 2.765 1.335v-17.6h-2.765z" fill="#fff"/></g><path d="m411.4 193.2h2.765v-12.623h-2.765zm-0.074 3.521c0 0.792 0.663 1.445 1.456 1.455 0.793 0 1.456-0.663 1.456-1.455 0-0.789-0.665-1.396-1.456-1.396-0.788 0-1.456 0.607-1.456 1.396" fill="#fff"/><g transform="translate(422.13 180.58)"><path d="m0 0-4.886 12.623h2.931l3.178-8.495 3.054 8.495h3.114l-4.948-12.623z" fill="#fff"/></g><g transform="translate(434.36 188.29)"><path d="m0 0h4.704c0 1.218-0.241 2.672-2.291 2.672-2.1 0-2.413-1.421-2.413-2.672m0.06-2.549c0.121-1.395 0.661-2.853 2.353-2.853 1.11 0 2.05 0.667 2.352 1.76l2.229-1.395c-0.724-1.64-2.05-2.914-4.581-2.914-4.353 0-5.186 3.337-5.186 6.616 0 2.791 0.844 6.554 5.186 6.554 4.544 0 5.013-3.94 5.013-6.988v-0.78z" fill="#fff"/></g><g transform="translate(332.41 235.87)"><path d="m0 0c-3.643 0-6.605 2.963-6.605 6.605v38.88c0 3.642 2.962 6.605 6.605 6.605h203.04c3.643 0 6.606-2.963 6.606-6.605v-38.88c0-3.642-2.963-6.605-6.606-6.605z" fill="#fff"/></g><g transform="translate(535.45 288.09)"><path d="m0 0h-203.04c-3.711 0-6.73-3.019-6.73-6.73v-38.88c0-3.711 3.019-6.73 6.73-6.73h203.04c3.711 0 6.73 3.019 6.73 6.73v38.88c0 3.711-3.019 6.73-6.73 6.73m0-0.25c3.579 0 6.48-2.901 6.48-6.48v-38.88c0-3.579-2.901-6.48-6.48-6.48h-203.04c-3.579 0-6.48 2.901-6.48 6.48v38.88c0 3.579 2.901 6.48 6.48 6.48z"/></g><g transform="translate(332.41 238.16)"><path d="m0 0c-2.382 0-4.32 1.938-4.32 4.32v38.88c0 2.382 1.938 4.32 4.32 4.32h203.04c2.382 0 4.32-1.938 4.32-4.32v-38.88c0-2.382-1.938-4.32-4.32-4.32z" fill="#006f51"/></g><g transform="translate(509.34 269.52)"><path d="m0 0c-0.242-0.045-0.474-0.16-0.662-0.348-0.492-0.492-0.492-1.29 0-1.782 0.112-0.112 0.24-0.198 0.377-0.259l3.595-1.624-9.317-9.317 4.582-4.582 9.317 9.317 1.624-3.595c0.061-0.137 0.147-0.265 0.259-0.377 0.492-0.492 1.29-0.492 1.782 0 0.188 0.188 0.303 0.42 0.348 0.662l2.707 14.612z" fill="#fff"/></g><g transform="translate(435.75 255.76)"><path d="m0 0c1.862 0 3.374 1.765 3.374 6.156s-1.512 6.156-3.374 6.156-3.374-1.763-3.374-6.156c0-4.391 1.512-6.156 3.374-6.156m6.108 6.156c0-0.62 0.132-8.942-6.138-8.942-6.271 0-6.139 8.322-6.139 8.942s-0.132 8.94 6.139 8.94c6.27 0 6.138-8.32 6.138-8.94" fill="#fff"/></g><g transform="translate(447.04 269.54)"><path d="m0 0 2.765 1.335v-17.6h-2.765z" fill="#fff"/></g><path d="m454.95 265.9h2.765v-12.623h-2.765zm-0.073 3.521c0 0.792 0.663 1.445 1.456 1.455 0.792 0 1.455-0.663 1.455-1.455 0-0.789-0.665-1.396-1.455-1.396-0.789 0-1.456 0.607-1.456 1.396" fill="#fff"/><g transform="translate(465.68 253.28)"><path d="m0 0-4.886 12.623h2.931l3.178-8.495 3.054 8.495h3.114l-4.948-12.623z" fill="#fff"/></g><g transform="translate(477.92 260.98)"><path d="m0 0h4.704c0 1.218-0.241 2.672-2.291 2.672-2.1 0-2.413-1.421-2.413-2.672m0.06-2.549c0.121-1.395 0.661-2.853 2.353-2.853 1.11 0 2.05 0.667 2.352 1.76l2.229-1.395c-0.724-1.64-2.05-2.914-4.581-2.914-4.353 0-5.186 3.337-5.186 6.616 0 2.791 0.844 6.554 5.186 6.554 4.544 0 5.013-3.94 5.013-6.988v-0.78z" fill="#fff"/></g><g transform="translate(354.67 263.28)"><path d="m0 0-4.007-10.005-4.011 10.005v-10.005h-2.734v17.28h2.734l4.011-9.701 4.007 9.701h2.735v-17.28h-2.735z" fill="#fff"/></g><g transform="translate(364.87 259.59)"><path d="m0 0c0-1.274 0.365-4.065 2.499-4.065s2.439 2.853 2.439 4.125c0 1.214-0.367 4.009-2.439 4.009v-4e-3c-2.134 0-2.499-2.791-2.499-4.065m-2.804 0.06c0 2.791 0.914 6.556 5.303 6.556 4.329 0 5.242-3.521 5.242-6.556 0-3.034-0.913-6.613-5.242-6.613-4.389 0-5.303 3.337-5.303 6.613" fill="#fff"/></g><g transform="translate(384.02 253.7)"><path d="m0 0c-0.775-0.451-2.132-0.823-3.028-0.823-2.411 0-4.484 1.626-4.484 4.342v8.678h2.747v-8.374c0-1.62 1.11-2.002 2.566-2.002 1.104 0 2.139 0.544 2.139 2.002v8.374h2.747v-12.623h-2.687z" fill="#fff"/></g><g transform="translate(399.36 261.65)"><path d="m0 0c0 1.633-1.091 2.002-2.549 2.002-0.386 0-2.125-0.222-2.125-2.125v-8.253h-2.793v12.623h2.732v-0.424c0.689 0.43 1.905 0.78 2.718 0.78h0.032c2.378 0 4.717-1.531 4.717-4.298v-8.681h-2.732z" fill="#fff"/></g><g transform="translate(406.52 256.31)"><path d="m0 0v7.039h-1.836v2.549h1.836v3.642l2.694 1.335v-4.977h2.203v-2.488h-2.203v-6.674c0-0.862 0.101-1.214 0.918-1.214 0.611 0 0.918 0.179 1.468 0.607l-0.369-2.549c-1.089-0.478-1.38-0.555-2.32-0.555-1.827 0-2.391 1.518-2.391 3.285" fill="#fff"/></g></g><text transform="matrix(1 0 0 -1 404.82 221.36)" fill="black" font-family="Helvetica" font-size="10px"><tspan x="0 7.8000002" y="0">OR</tspan></text><g clip-path="url(#a)"><g transform="translate(315.45 404.6)"><path d="m0 0c-2.451 0-4.445 1.994-4.445 4.445v25.92c0 2.451 1.994 4.445 4.445 4.445h155.52c2.451 0 4.445-1.994 4.445-4.445v-25.92c0-2.451-1.994-4.445-4.445-4.445z" fill="#fff"/></g><g transform="translate(470.97 439.53)"><path d="m0 0h-155.52c-2.52 0-4.57-2.05-4.57-4.57v-25.92c0-2.52 2.05-4.57 4.57-4.57h155.52c2.52 0 4.57 2.05 4.57 4.57v25.92c0 2.52-2.05 4.57-4.57 4.57m0-0.25c2.386 0 4.32-1.934 4.32-4.32v-25.92c0-2.386-1.934-4.32-4.32-4.32h-155.52c-2.386 0-4.32 1.934-4.32 4.32v25.92c0 2.386 1.934 4.32 4.32 4.32z"/></g><g transform="translate(315.45 406.16)"><path d="m0 0c-1.588 0-2.88 1.292-2.88 2.88v25.92c0 1.588 1.292 2.88 2.88 2.88h155.52c1.588 0 2.88-1.292 2.88-2.88v-25.92c0-1.588-1.292-2.88-2.88-2.88z" fill="#006f51"/></g><g transform="translate(322.27 418.14)"><path d="m0 0 2.607 0.97c0.728-1.637 2.061-2.547 3.698-2.547 1.577 0 2.67 1.091 2.67 2.547 0 2.311-2.668 2.667-4.912 3.577-1.03 0.425-3.335 1.456-3.335 4.305 0 3.397 2.302 4.665 5.396 4.665 2.425 0 4.062-1.395 4.911-3.516l-2.425-0.728c-0.272 0.682-1.26 1.516-2.547 1.516-2.464 0-2.674-1.315-2.674-1.747 0-1.616 1.393-1.936 3.659-2.646 2.307-0.726 4.715-1.787 4.715-5.491 0-3.73-3.024-5.27-5.458-5.27-2.972 0-5.154 1.758-6.305 4.365" fill="#fff"/></g><g transform="translate(338.74 420.39)"><path d="m0 0c0-1.274 0.365-4.065 2.499-4.065s2.439 2.853 2.439 4.125c0 1.214-0.367 4.009-2.439 4.009v-4e-3c-2.134 0-2.499-2.791-2.499-4.065m-2.804 0.06c0 2.791 0.914 6.556 5.303 6.556 4.329 0 5.242-3.521 5.242-6.556 0-3.034-0.913-6.613-5.242-6.613-4.389 0-5.303 3.337-5.303 6.613" fill="#fff"/></g><g transform="translate(356.59 414.51)"><path d="m0 0c-0.775-0.451-2.132-0.823-3.028-0.823-2.411 0-4.484 1.626-4.484 4.342v8.678h2.747v-8.374c0-1.62 1.11-2.002 2.566-2.002 1.104 0 2.139 0.544 2.139 2.002v8.374h2.747v-12.623h-2.687z" fill="#fff"/></g><g transform="translate(363.01 417.12)"><path d="m0 0v7.039h-1.836v2.549h1.836v3.642l2.694 1.335v-4.977h2.203v-2.488h-2.203v-6.674c0-0.862 0.101-1.214 0.918-1.214 0.611 0 0.918 0.179 1.468 0.607l-0.369-2.549c-1.089-0.478-1.38-0.555-2.32-0.555-1.827 0-2.391 1.518-2.391 3.285" fill="#fff"/></g><g transform="translate(377.46 422.46)"><path d="m0 0c0 1.633-1.091 2.002-2.549 2.002-0.386 0-2.125-0.222-2.125-2.125v-8.253h-2.793v16.264l2.732 1.335v-5.4c0.687 0.43 1.903 0.78 2.715 0.78h0.035c2.378 0 4.717-1.529 4.717-4.296v-8.683h-2.732z" fill="#fff"/></g><g transform="translate(385.56 421.79)"><path d="m0 0h4.704c0 1.218-0.241 2.672-2.291 2.672-2.1 0-2.413-1.421-2.413-2.672m0.06-2.549c0.121-1.395 0.661-2.853 2.353-2.853 1.11 0 2.05 0.667 2.352 1.76l2.229-1.395c-0.724-1.64-2.05-2.914-4.581-2.914-4.353 0-5.186 3.337-5.186 6.616 0 2.791 0.844 6.554 5.186 6.554 4.544 0 5.013-3.94 5.013-6.988v-0.78z" fill="#fff"/></g><g transform="translate(399.37 416.31)"><path d="m0 0c0.881 0 1.784 0.318 2.242 0.559v2.914c-0.523 0.249-1.462 0.536-2.348 0.536-1.054 0-2.006-0.415-2.006-1.81 0-1.717 1.026-2.199 2.112-2.199m-0.089 8.178c-1.276 0-2.432-0.702-3.11-1.609l-0.786 2.671c1.134 0.888 2.531 1.443 4.313 1.443 2.445 0 4.694-1.492 4.694-4.477v-8.437h-2.659v0.365c-0.423-0.365-1.512-0.545-2.48-0.545-2.54 0-4.715 1.629-4.715 4.673 0 2.488 2.106 4.114 4.927 4.114 0.598 0 1.534-0.19 2.087-0.414 0 0.661-0.283 2.216-2.271 2.216" fill="#fff"/></g><g transform="translate(417.3 417.12)"><path d="m0 0v7.039h-1.836v2.549h1.836v3.642l2.694 1.335v-4.977h2.203v-2.488h-2.203v-6.674c0-0.862 0.101-1.214 0.918-1.214 0.611 0 0.918 0.179 1.468 0.607l-0.369-2.549c-1.089-0.478-1.38-0.555-2.32-0.555-1.827 0-2.391 1.518-2.391 3.285" fill="#fff"/></g><g transform="translate(437.15 419.09)"><path d="m0 0v-3.154h2.749c0.936 0 1.415 0.445 1.415 1.335s-0.616 1.819-1.558 1.819zm2.67 4.689h-2.67v-2.83h2.315c1.034 0 1.608 0.901 1.608 1.657 0 0.768-0.424 1.173-1.253 1.173m-4.487-9.702v11.52h4.366c1.818 0 3.192-1.252 3.192-2.91 0-1.132-0.524-1.981-1.615-2.588 1.212-0.565 1.899-1.546 1.899-2.787 0-0.821-0.462-3.235-3.476-3.235z" fill="#fff"/></g><g transform="translate(444.91 424.92)"><path d="m0 0 1.843 0.89v-11.733h-1.843z" fill="#fff"/></g><g transform="translate(451.39 414.08)"><path d="m0 0-3.257 8.415h1.954l2.118-5.663 2.036 5.663h2.077l-3.299-8.415z" fill="#fff"/></g><g transform="translate(460.76 415.58)"><path d="m0 0c0.648 0 1.091 0.121 1.536 0.567v4.248c-0.485 0.526-0.894 0.609-1.415 0.609-1.388 0-1.778-1.458-1.778-2.672 0-1.177 0.398-2.752 1.657-2.752m-0.318 7.139c0.711 0 1.499-0.207 1.895-0.502v2.71l1.82 0.89v-11.733h-1.82v0.243c-0.566-0.324-0.971-0.446-1.617-0.446-2.553 0-3.478 2.063-3.478 4.451 0 2.2 0.717 4.387 3.2 4.387" fill="#fff"/></g><g transform="translate(410.96 413.85)"><path d="m0 0c-1.791 0-3.457 1.061-4.315 3.232l2.351 0.923c0.445-1.126 1.145-1.636 1.964-1.636 0.849-2e-3 1.29 0.655 1.29 1.496 0 2.685-5.218 1.335-5.218 5.641 0 2.137 1.473 3.52 3.751 3.52 1.638 0 2.943-0.94 3.567-2.58l-2.359-0.901c-0.134 0.629-0.761 1.005-1.362 1.005-0.557 0-1.069-0.329-1.069-1.044-2e-3 -1.992 5.214-0.959 5.214-5.641 0-2.114-1.442-4.015-3.814-4.015" fill="#fff"/></g><g transform="translate(68.48 404.6)"><path d="m0 0c-2.451 0-4.445 1.994-4.445 4.445v25.92c0 2.451 1.994 4.445 4.445 4.445h155.52c2.451 0 4.445-1.994 4.445-4.445v-25.92c0-2.451-1.994-4.445-4.445-4.445z" fill="#fff"/></g><g transform="translate(224 439.53)"><path d="m0 0h-155.52c-2.52 0-4.57-2.05-4.57-4.57v-25.92c0-2.52 2.05-4.57 4.57-4.57h155.52c2.52 0 4.57 2.05 4.57 4.57v25.92c0 2.52-2.05 4.57-4.57 4.57m0-0.25c2.386 0 4.32-1.934 4.32-4.32v-25.92c0-2.386-1.934-4.32-4.32-4.32h-155.52c-2.386 0-4.32 1.934-4.32 4.32v25.92c0 2.386 1.934 4.32 4.32 4.32z"/></g><g transform="translate(68.48 406.16)"><path d="m0 0c-1.588 0-2.88 1.292-2.88 2.88v25.92c0 1.588 1.292 2.88 2.88 2.88h155.52c1.588 0 2.88-1.292 2.88-2.88v-25.92c0-1.588-1.292-2.88-2.88-2.88z" fill="#006f51"/></g><g transform="translate(80.198 416.79)"><path d="m0 0 1.738 0.647c0.485-1.092 1.374-1.698 2.465-1.698 1.052 0 1.78 0.727 1.78 1.698 0 1.54-1.778 1.778-3.274 2.384-0.687 0.284-2.224 0.971-2.224 2.87 0 2.265 1.535 3.11 3.597 3.11 1.617 0 2.709-0.93 3.275-2.344l-1.617-0.485c-0.182 0.455-0.84 1.011-1.698 1.011-1.643 0-1.783-0.877-1.783-1.165 0-1.077 0.929-1.29 2.44-1.764 1.538-0.484 3.143-1.191 3.143-3.661 0-2.487-2.016-3.513-3.639-3.513-1.981 0-3.435 1.172-4.203 2.91" fill="#fff"/></g><g transform="translate(89.999 425.6)"><path d="m0 0h6.782v-1.819h-4.965v-2.829h3.351v-1.859h-3.351v-3.154h5.328v-1.859h-7.145z" fill="#fff"/></g><g transform="translate(112.83 421.6)"><path d="m0 0v-4.73h4.123c1.404 0 2.124 0.667 2.124 2.002s-0.925 2.728-2.337 2.728zm4.005 7.033h-4.005v-4.244h3.473c1.551 0 2.411 1.352 2.411 2.486 0 1.151-0.635 1.758-1.879 1.758m-6.731-14.552v17.28h6.549c2.728 0 4.789-1.879 4.789-4.365 0-1.698-0.786-2.972-2.424-3.882 1.819-0.849 2.849-2.32 2.849-4.182 0-1.231-0.693-4.851-5.214-4.851z" fill="#fff"/></g><g transform="translate(126.57 420.39)"><path d="m0 0c0-1.274 0.365-4.065 2.499-4.065s2.439 2.853 2.439 4.125c0 1.214-0.367 4.009-2.439 4.009v-4e-3c-2.134 0-2.499-2.791-2.499-4.065m-2.804 0.06c0 2.791 0.914 6.556 5.303 6.556 4.329 0 5.242-3.521 5.242-6.556 0-3.034-0.913-6.613-5.242-6.613-4.389 0-5.303 3.337-5.303 6.613" fill="#fff"/></g><g transform="translate(144.42 414.51)"><path d="m0 0c-0.775-0.451-2.132-0.823-3.028-0.823-2.411 0-4.484 1.626-4.484 4.342v8.678h2.747v-8.374c0-1.62 1.11-2.002 2.566-2.002 1.104 0 2.139 0.544 2.139 2.002v8.374h2.747v-12.623h-2.687z" fill="#fff"/></g><g transform="translate(150.56 430.35)"><path d="m0 0 2.765 1.335v-17.6h-2.765z" fill="#fff"/></g><g transform="translate(158.87 421.79)"><path d="m0 0h4.704c0 1.218-0.241 2.672-2.291 2.672-2.1 0-2.413-1.421-2.413-2.672m0.06-2.549c0.121-1.395 0.661-2.853 2.353-2.853 1.11 0 2.05 0.667 2.352 1.76l2.229-1.395c-0.724-1.64-2.05-2.914-4.581-2.914-4.353 0-5.186 3.337-5.186 6.616 0 2.791 0.844 6.554 5.186 6.554 4.544 0 5.013-3.94 5.013-6.988v-0.78z" fill="#fff"/></g><g transform="translate(172.22 414.08)"><path d="m0 0-4.886 12.623h2.931l3.178-8.495 3.054 8.495h3.114l-4.948-12.623z" fill="#fff"/></g><g transform="translate(185.65 416.31)"><path d="m0 0c0.881 0 1.784 0.318 2.242 0.559v2.914c-0.523 0.249-1.462 0.536-2.348 0.536-1.054 0-2.006-0.415-2.006-1.81 0-1.717 1.025-2.199 2.112-2.199m-0.089 8.178c-1.276 0-2.432-0.702-3.11-1.609l-0.786 2.671c1.134 0.888 2.531 1.443 4.313 1.443 2.445 0 4.694-1.492 4.694-4.477v-8.437h-2.659v0.365c-0.423-0.365-1.512-0.545-2.48-0.545-2.54 0-4.715 1.629-4.715 4.673 0 2.488 2.106 4.114 4.927 4.114 0.598 0 1.534-0.19 2.087-0.414 0 0.661-0.283 2.216-2.271 2.216" fill="#fff"/></g><g transform="translate(198.52 424.46)"><path d="m0 0c-1.581 0-1.763-0.901-1.763-2.49v-7.891h-2.799v12.623h2.799v-0.607c0.67 0.607 0.972 0.912 1.947 0.912 0.95 0 1.399-0.365 1.825-0.851l-0.365-2.426c-0.549 0.425-0.979 0.73-1.644 0.73" fill="#fff"/></g><g transform="translate(207.19 416.33)"><path d="m0 0c0.972 0 1.637 0.181 2.305 0.851v6.372c-0.728 0.788-1.342 0.914-2.124 0.914-2.082 0-2.667-2.188-2.667-4.009 0-1.765 0.598-4.128 2.486-4.128m-0.477 10.709c1.067 0 2.248-0.311 2.842-0.754v4.066l2.73 1.334v-17.599h-2.73v0.365c-0.849-0.486-1.456-0.67-2.425-0.67-3.83 0-5.217 3.096-5.217 6.677 0 3.3 1.076 6.581 4.8 6.581" fill="#fff"/></g><g transform="translate(44.412 199.52)"><path d="m0 0c-3.642 0-6.605 2.963-6.605 6.604v38.88c0 3.643 2.963 6.606 6.605 6.606h254.88c3.642 0 6.605-2.963 6.605-6.606v-38.88c0-3.641-2.963-6.604-6.605-6.604z" fill="#fff"/></g><g transform="translate(299.29 251.74)"><path d="m0 0h-254.88c-3.711 0-6.73-3.019-6.73-6.73v-38.88c0-3.711 3.019-6.73 6.73-6.73h254.88c3.711 0 6.73 3.019 6.73 6.73v38.88c0 3.711-3.019 6.73-6.73 6.73m0-0.25c3.579 0 6.48-2.901 6.48-6.48v-38.88c0-3.579-2.901-6.48-6.48-6.48h-254.88c-3.579 0-6.48 2.901-6.48 6.48v38.88c0 3.579 2.901 6.48 6.48 6.48z"/></g><g transform="translate(44.412 201.81)"><path d="m0 0c-2.382 0-4.32 1.938-4.32 4.32v38.88c0 2.382 1.938 4.32 4.32 4.32h254.88c2.382 0 4.32-1.938 4.32-4.32v-38.88c0-2.382-1.938-4.32-4.32-4.32z" fill="#006f51"/></g><g transform="translate(270.2 233.17)"><path d="m0 0c-0.242-0.045-0.474-0.16-0.662-0.348-0.492-0.492-0.492-1.29 0-1.782 0.112-0.112 0.24-0.198 0.377-0.259l3.595-1.624-9.317-9.317 4.582-4.582 9.317 9.317 1.624-3.595c0.061-0.137 0.147-0.265 0.259-0.377 0.492-0.492 1.29-0.492 1.782 0 0.188 0.188 0.304 0.42 0.348 0.662l2.707 14.612z" fill="#fff"/></g><g transform="translate(197.16 227.23)"><path d="m0 0h3.847c2.169 0 2.4 1.564 2.4 2.121 0 0.81-0.609 2.123-2.307 2.123h-3.94zm3.218-2.789h-3.218v-7.518h-2.726v17.279h6.532c4.065 0 5.231-3.304 5.231-4.851 0-1.073-0.589-4.91-5.819-4.91" fill="#fff"/></g><g transform="translate(211.31 224.64)"><path d="m0 0h4.704c0 1.218-0.241 2.672-2.291 2.672-2.1 0-2.413-1.421-2.413-2.672m0.06-2.549c0.121-1.395 0.661-2.853 2.353-2.853 1.11 0 2.05 0.667 2.352 1.76l2.229-1.395c-0.724-1.64-2.05-2.914-4.581-2.914-4.353 0-5.186 3.337-5.186 6.616 0 2.791 0.844 6.554 5.186 6.554 4.544 0 5.013-3.94 5.013-6.988v-0.78z" fill="#fff"/></g><g transform="translate(225.9 219.16)"><path d="m0 0c0.881 0 1.784 0.318 2.242 0.559v2.914c-0.523 0.249-1.462 0.536-2.348 0.536-1.054 0-2.006-0.415-2.006-1.81 0-1.717 1.025-2.199 2.112-2.199m-0.089 8.178c-1.276 0-2.432-0.702-3.11-1.609l-0.786 2.671c1.134 0.888 2.531 1.443 4.313 1.443 2.445 0 4.694-1.492 4.694-4.477v-8.437h-2.659v0.365c-0.423-0.365-1.512-0.545-2.48-0.545-2.54 0-4.715 1.629-4.715 4.673 0 2.488 2.106 4.114 4.927 4.114 0.598 0 1.534-0.19 2.087-0.414 0 0.661-0.283 2.216-2.271 2.216" fill="#fff"/></g><g transform="translate(240.18 224.03)"><path d="m0 0-1.566-1.642v-5.46h-2.767v16.265l2.767 1.335v-8.619l3.426 3.642h3.486l-3.307-3.458 4.691-9.165h-3.127z" fill="#fff"/></g><g transform="translate(64.526 224.57)"><path d="m0 0h3.475l-1.708 4.849zm4.45-2.789h-5.426l-1.709-4.851h-2.927l5.977 17.28h2.745l5.975-17.28h-2.927z" fill="#fff"/></g><g transform="translate(79.794 216.93)"><path d="m0 0-4.886 12.623h2.931l3.178-8.495 3.054 8.495h3.114l-4.948-12.623z" fill="#fff"/></g><g transform="translate(93.832 219.16)"><path d="m0 0c0.881 0 1.784 0.318 2.242 0.559v2.914c-0.523 0.249-1.462 0.536-2.348 0.536-1.054 0-2.006-0.415-2.006-1.81 0-1.717 1.026-2.199 2.112-2.199m-0.089 8.178c-1.276 0-2.432-0.702-3.11-1.609l-0.786 2.671c1.134 0.888 2.531 1.443 4.313 1.443 2.445 0 4.694-1.492 4.694-4.477v-8.437h-2.659v0.365c-0.423-0.365-1.512-0.545-2.48-0.545-2.54 0-4.715 1.629-4.715 4.673 0 2.488 2.106 4.114 4.927 4.114 0.598 0 1.534-0.19 2.087-0.414 0 0.661-0.283 2.216-2.271 2.216" fill="#fff"/></g><g transform="translate(103.78 233.19)"><path d="m0 0 2.765 1.335v-17.6h-2.765z" fill="#fff"/></g><g transform="translate(115.26 219.16)"><path d="m0 0c0.881 0 1.784 0.318 2.242 0.559v2.914c-0.523 0.249-1.462 0.536-2.348 0.536-1.054 0-2.006-0.415-2.006-1.81 0-1.717 1.026-2.199 2.112-2.199m-0.089 8.178c-1.276 0-2.432-0.702-3.11-1.609l-0.786 2.671c1.134 0.888 2.531 1.443 4.313 1.443 2.445 0 4.694-1.492 4.694-4.477v-8.437h-2.659v0.365c-0.423-0.365-1.512-0.545-2.48-0.545-2.54 0-4.715 1.629-4.715 4.673 0 2.488 2.106 4.114 4.927 4.114 0.598 0 1.534-0.19 2.087-0.414 0 0.661-0.283 2.216-2.271 2.216" fill="#fff"/></g><g transform="translate(132.68 225.3)"><path d="m0 0c0 1.633-1.091 2.002-2.549 2.002-0.386 0-2.125-0.222-2.125-2.125v-8.253h-2.793v12.623h2.732v-0.424c0.689 0.43 1.905 0.78 2.718 0.78h0.032c2.378 0 4.717-1.531 4.717-4.298v-8.681h-2.732z" fill="#fff"/></g><g transform="translate(139.3 223.3)"><path d="m0 0c0 2.838 0.907 6.556 5.251 6.556 2.715 0 4.164-1.335 4.767-3.156l-2.776-0.972c-0.3 1.032-0.905 1.579-1.991 1.579-2.106 0-2.473-2.733-2.473-4.007s0.358-4.065 2.473-4.065c1.384 0 1.991 1.093 2.173 2.367l2.775-0.73c-0.483-2.246-1.81-4.186-4.948-4.186-4.329 0-5.251 3.348-5.251 6.614" fill="#fff"/></g><g transform="translate(160.34 225.3)"><path d="m0 0c0 1.633-1.091 2.002-2.549 2.002-0.386 0-2.125-0.222-2.125-2.125v-8.253h-2.793v16.264l2.732 1.335v-5.4c0.687 0.43 1.903 0.78 2.715 0.78h0.035c2.378 0 4.717-1.529 4.717-4.296v-8.683h-2.732z" fill="#fff"/></g><g transform="translate(169.73 224.64)"><path d="m0 0h4.704c0 1.218-0.241 2.672-2.291 2.672-2.1 0-2.413-1.421-2.413-2.672m0.06-2.549c0.121-1.395 0.661-2.853 2.353-2.853 1.11 0 2.05 0.667 2.352 1.76l2.229-1.395c-0.724-1.64-2.05-2.914-4.581-2.914-4.353 0-5.186 3.337-5.186 6.616 0 2.791 0.844 6.554 5.186 6.554 4.544 0 5.013-3.94 5.013-6.988v-0.78z" fill="#fff"/></g></g></g></svg>
