<?xml version="1.0" encoding="UTF-8"?>
<svg width="672.67" height="737.23" version="1.1" viewBox="0 0 672.67 737.23" xml:space="preserve" xmlns="http://www.w3.org/2000/svg"><defs><clipPath id="o"><path d="m67.25 163h504.5v583h-504.5z"/></clipPath><clipPath id="n"><path d="m67.25 163h504.5v583h-504.5z"/></clipPath><clipPath id="m"><path d="m67.25 163h504.5v583h-504.5z"/></clipPath><clipPath id="l"><path d="m67.25 163h504.5v583h-504.5z"/></clipPath><clipPath id="k"><path d="m67.25 163h504.5v583h-504.5z"/></clipPath><clipPath id="j"><path d="m67.25 163h504.5v583h-504.5z"/></clipPath><clipPath id="i"><path d="m67.25 163h504.5v583h-504.5z"/></clipPath><clipPath id="h"><path d="m67.25 163h504.5v583h-504.5z"/></clipPath><clipPath id="g"><path d="m67.25 163h504.5v583h-504.5z"/></clipPath><clipPath id="f"><path d="m67.25 163h504.5v583h-504.5z"/></clipPath><clipPath id="e"><path d="m67.25 163h504.5v583h-504.5z"/></clipPath><clipPath id="d"><path d="m67.25 163h504.5v583h-504.5z"/></clipPath><clipPath id="c"><path d="m67.25 163h504.5v583h-504.5z"/></clipPath><clipPath id="b"><path d="m67.25 163h504.5v583h-504.5z"/></clipPath><clipPath id="a"><path d="m67.25 163h504.5v583h-504.5z"/></clipPath></defs><g transform="matrix(1.3333 0 0 -1.3333 -89.667 955.68)"><g fill="black" font-family="Helvetica"><text transform="matrix(1 0 0 -1 205.01 709.48)" font-size="10px" font-weight="bold"><tspan x="0 7.2199998 10 15.56 18.34 26.120001 31.68 37.240002 41.130001 47.240002 52.799999 58.360001 64.470001 67.25 73.919998 77.809998 83.370003 86.699997 92.260002 96.150002 101.71 107.82 111.15 113.93 119.49 122.27 125.05 131.16 136.72 142.83 148.39 151.17 155.06 160.62 166.73 172.84 175.62 181.17999 184.50999 190.62 194.50999 200.07001 202.85001 208.41 211.19 217.3 223.41" y="0">B – Overhead Preferential Lane regulatory signs</tspan></text><text transform="matrix(1 0 0 -1 137.39 361.07)" font-size="8px"><tspan x="0 4.8983998 7.1223998 8.8984003 13.3464 17.794399 22.242399 24.906401 29.354401 33.354401 37.802399 40.026402 44.026402 48.4744 52.922401 55.1464 57.810398 62.2584 64.034401 66.2584 70.2584 72.034401 76.482399 80.930397 85.378403 87.154404 89.378403 96.042397 100.4904 104.4904 106.7144 111.1624 115.6104 117.8344 119.6104 124.0584 128.0584 132.50639 135.17039 139.61839 144.06641 146.73039 151.17841 153.4024 157.8504 162.2984 164.5224 166.2984 170.7464 172.9704 177.4184 179.6424 184.09039 188.53841 190.76241 195.2104 199.2104 203.6584 206.3224 210.7704 215.2184 219.6664 224.1144 226.33839 230.78641 233.45039 237.89841 240.12241 244.5704 247.23441 251.6824 256.1304 258.3544 260.1304 264.5784 266.3544 268.5784 270.3544 274.8024 279.2504 283.69839 285.92239 288.5864 293.03439 297.48239 301.93039 303.70639 308.15439 310.37839 314.82639 317.49039 321.49039" y="0">A lane-use control signal may be incorporated into an overhead preferential lane regulatory </tspan><tspan x="0 4 5.776 10.224 14.672 16.896 19.120001 23.568001 25.792 27.568001 32.015999 36.464001 38.240002 42.240002 46.688 48.911999 53.360001 55.584 57.807999 62.256001 66.704002 68.928001 72.928001 75.152 79.599998 81.823997 86.272003 90.272003 92.496002 96.944 99.167999 101.392 105.84 108.064 110.728 115.176 119.176 123.624 126.288 130.28799 132.064 136.51199 138.28799 142.73599 144.96001 149.408 153.856 158.304 160.968 165.416 167.64 169.416 173.864 178.312 180.536 184.98399 188.98399 191.20799 195.20799 199.65601 204.104 209.88 214.328 216.552 218.328 222.776 225 227.224 231.672 236.12 238.34399 240.56799 245.01601 246.79201 248.56799 253.01601 258.79199 260.56799 265.01599 269.46399 271.68799 276.13599 280.13599 284.58401 291.24799 295.69601 297.47198 301.92001" y="8.4960003">sign to indicate the status of a reversible operation as shown in the following example:</tspan></text><text transform="matrix(1 0 0 -1 229.25 229.99)" font-size="9px"><tspan x="0 5.0040002 10.008 15.012 20.016001 22.518 27.521999 32.526001 37.529999" y="0">Lane open</tspan></text></g><g clip-path="url(#o)"><g transform="translate(197.77 242.59)"><path d="m0 0c-2.713 0-4.92 2.207-4.92 4.921v86.313c0 2.713 2.207 4.92 4.92 4.92h105.5c2.713 0 4.92-2.207 4.92-4.92v-86.313c0-2.714-2.207-4.921-4.92-4.921z" fill="#fff"/></g><g transform="translate(303.26 338.87)"><path d="m0 0h-105.49c-2.782 0-5.046-2.263-5.046-5.045v-86.314c0-2.782 2.264-5.045 5.046-5.045h105.49c2.782 0 5.045 2.263 5.045 5.045v86.314c0 2.782-2.263 5.045-5.045 5.045m0-0.25c2.648 0 4.795-2.147 4.795-4.795v-86.314c0-2.648-2.147-4.795-4.795-4.795h-105.49c-2.649 0-4.796 2.147-4.796 4.795v86.314c0 2.648 2.147 4.795 4.796 4.795z"/></g><g transform="translate(197.77 243.91)"><path d="m0 0c-1.983 0-3.596 1.613-3.596 3.596v86.314c0 1.983 1.613 3.596 3.596 3.596h105.49c1.983 0 3.597-1.613 3.597-3.596v-86.314c0-1.983-1.614-3.596-3.597-3.596z"/></g><g transform="translate(303.26 335.42)"><path d="m0 0h-81.518v-44.755h-25.575v-43.157c0-0.881 0.717-1.598 1.599-1.598h105.49c0.881 0 1.598 0.717 1.598 1.598v86.314c0 0.881-0.717 1.598-1.598 1.598" fill="#fff"/></g><g transform="translate(199.77 314.04)"><path d="M 0,0 8.392,16.783 16.783,0 8.392,-16.783 Z" fill="#fff"/></g><g transform="translate(202.45 314.04)"><path d="M 0,0 5.711,11.422 11.422,0 5.711,-11.422 Z"/></g><path d="m265.52 249.88h-30.001v30h30.001z"/><g transform="translate(251.93 261.75)"><path d="m0 0c0-0.779-0.631-1.41-1.409-1.41-0.779 0-1.409 0.631-1.409 1.41 0 0.777 0.63 1.408 1.409 1.408 0.778 0 1.409-0.631 1.409-1.408" fill="#00ae4d"/></g><g transform="translate(251.93 265.48)"><path d="m0 0c0-0.779-0.631-1.41-1.409-1.41-0.779 0-1.409 0.631-1.409 1.41 0 0.777 0.63 1.408 1.409 1.408 0.778 0 1.409-0.631 1.409-1.408" fill="#00ae4d"/></g><g transform="translate(251.93 269.21)"><path d="m0 0c0-0.777-0.631-1.408-1.409-1.408-0.779 0-1.409 0.631-1.409 1.408 0 0.779 0.63 1.41 1.409 1.41 0.778 0 1.409-0.631 1.409-1.41" fill="#00ae4d"/></g><g transform="translate(251.93 272.95)"><path d="m0 0c0-0.777-0.631-1.408-1.409-1.408-0.779 0-1.409 0.631-1.409 1.408s0.63 1.408 1.409 1.408c0.778 0 1.409-0.631 1.409-1.408" fill="#00ae4d"/></g><g transform="translate(251.93 276.68)"><path d="m0 0c0-0.779-0.631-1.41-1.409-1.41-0.779 0-1.409 0.631-1.409 1.41 0 0.777 0.63 1.408 1.409 1.408 0.778 0 1.409-0.631 1.409-1.408" fill="#00ae4d"/></g><g transform="translate(240.01 264.52)"><path d="m0 0c0-0.777-0.631-1.408-1.409-1.408-0.779 0-1.409 0.631-1.409 1.408 0 0.779 0.63 1.41 1.409 1.41 0.778 0 1.409-0.631 1.409-1.41" fill="#00ae4d"/></g><g transform="translate(241.58 260.16)"><path d="m0 0c-0.778 0-1.409 0.631-1.409 1.408 0 0.78 0.631 1.41 1.409 1.41s1.409-0.63 1.409-1.41c0-0.777-0.631-1.408-1.409-1.408" fill="#00ae4d"/></g><g transform="translate(244.56 257.21)"><path d="m0 0c-0.777 0-1.408 0.631-1.408 1.41 0 0.778 0.631 1.408 1.408 1.408 0.778 0 1.409-0.63 1.409-1.408 0-0.779-0.631-1.41-1.409-1.41" fill="#00ae4d"/></g><g transform="translate(247.54 254.26)"><path d="m0 0c-0.778 0-1.409 0.631-1.409 1.41 0 0.778 0.631 1.408 1.409 1.408s1.409-0.63 1.409-1.408c0-0.779-0.631-1.41-1.409-1.41" fill="#00ae4d"/></g><g transform="translate(250.52 251.31)"><path d="m0 0c-0.778 0-1.409 0.631-1.409 1.41 0 0.778 0.631 1.408 1.409 1.408s1.409-0.63 1.409-1.408c0-0.779-0.631-1.41-1.409-1.41" fill="#00ae4d"/></g><g transform="translate(254.88 255.69)"><path d="m0 0c0-0.779-0.631-1.41-1.409-1.41-0.779 0-1.409 0.631-1.409 1.41 0 0.777 0.63 1.408 1.409 1.408 0.778 0 1.409-0.631 1.409-1.408" fill="#00ae4d"/></g><g transform="translate(257.83 258.67)"><path d="m0 0c0-0.779-0.631-1.41-1.408-1.41-0.779 0-1.409 0.631-1.409 1.41 0 0.777 0.63 1.408 1.409 1.408 0.777 0 1.408-0.631 1.408-1.408" fill="#00ae4d"/></g><g transform="translate(260.78 261.65)"><path d="m0 0c0-0.779-0.631-1.41-1.409-1.41s-1.409 0.631-1.409 1.41c0 0.777 0.631 1.408 1.409 1.408s1.409-0.631 1.409-1.408" fill="#00ae4d"/></g><g transform="translate(262.32 266.04)"><path d="m0 0c0.778 0 1.409-0.631 1.409-1.408 0-0.78-0.631-1.41-1.409-1.41s-1.409 0.63-1.409 1.41c0 0.777 0.631 1.408 1.409 1.408" fill="#00ae4d"/></g><g transform="translate(255.53 301.72)"><path d="m0 0v-8.658h-2.017v12.787h2.017l4.667-8.166v8.166h2.02v-12.787h-1.795z"/></g><g transform="translate(265.29 305.85)"><path d="m0 0h2.017v-10.903h5.914v-1.884h-7.931z"/></g><g transform="translate(280.53 293.06)"><path d="m0 0h-2.03v5.564l-4.509 7.223h2.436l3.066-4.936 3.112 4.936h2.389l-4.464-7.223z"/></g><g transform="translate(236.96 321)"><path d="m0 0h-4.669v-5.564h-2.017v12.787h2.017v-5.159h4.667v5.159h2.021v-12.787h-2.019z"/></g><g transform="translate(256.6 315.44)"><path d="m0 0-4.052 12.787h2.116l2.746-8.524 2.702 8.524h2.161l-4.097-12.787z"/></g><g transform="translate(277.48 317.5)"><path d="m0 0h6.282v-2.064h-8.705c0.045 1.481 0.356 2.695 1.077 3.904 2.244 3.75 5.609 3.374 5.609 5.338 0 0.942-1.074 1.706-2.334 1.706-1.301 0-2.11-0.628-2.333-1.795l-2.019 0.449c0.449 2.108 2.108 3.409 4.351 3.409 2.425 0 4.351-1.705 4.351-3.813 0-1.53-0.878-2.504-2.018-3.212-1.721-1.07-3.304-1.544-4.261-3.922"/></g><g transform="translate(293.05 317.5)"><path d="m0 0h-2.02v3.186h-3.277v2.065h3.277v3.184h2.02v-3.184h3.277v-2.065h-3.277z"/></g><g transform="translate(246.36 317.28)"><path d="m0 0c1.378 0 2.497 1.306 2.497 4.555 0 3.25-1.119 4.556-2.497 4.556s-2.497-1.304-2.497-4.556c0-3.249 1.119-4.555 2.497-4.555m4.52 4.555c0-0.458 0.098-6.617-4.542-6.617s-4.543 6.159-4.543 6.617c0 0.459-0.097 6.616 4.543 6.616s4.542-6.157 4.542-6.616"/></g><g transform="translate(246.18 294.9)"><path d="m0 0c1.378 0 2.497 1.306 2.497 4.555 0 3.25-1.119 4.556-2.497 4.556s-2.497-1.305-2.497-4.556c0-3.249 1.119-4.555 2.497-4.555m4.52 4.555c0-0.458 0.098-6.617-4.542-6.617-4.641 0-4.543 6.159-4.543 6.617 0 0.459-0.098 6.616 4.543 6.616 4.64 0 4.542-6.157 4.542-6.616"/></g></g><text transform="matrix(1 0 0 -1 364.21 229.99)" fill="black" font-family="Helvetica" font-size="9px"><tspan x="0 5.0040002 10.008 15.012 20.016001 22.518 27.018 29.016001 34.02 38.52 43.523998" y="0">Lane closed</tspan></text><g clip-path="url(#n)"><g transform="translate(335.73 242.59)"><path d="m0 0c-2.713 0-4.92 2.207-4.92 4.921v86.313c0 2.713 2.207 4.92 4.92 4.92h105.49c2.713 0 4.92-2.207 4.92-4.92v-86.313c0-2.714-2.207-4.921-4.92-4.921z" fill="#fff"/></g><g transform="translate(441.22 338.87)"><path d="m0 0h-105.49c-2.782 0-5.046-2.263-5.046-5.045v-86.314c0-2.782 2.264-5.045 5.046-5.045h105.49c2.782 0 5.045 2.263 5.045 5.045v86.314c0 2.782-2.263 5.045-5.045 5.045m0-0.25c2.648 0 4.795-2.147 4.795-4.795v-86.314c0-2.648-2.147-4.795-4.795-4.795h-105.49c-2.649 0-4.796 2.147-4.796 4.795v86.314c0 2.648 2.147 4.795 4.796 4.795z"/></g><g transform="translate(335.73 243.91)"><path d="m0 0c-1.983 0-3.596 1.613-3.596 3.596v86.314c0 1.983 1.613 3.596 3.596 3.596h105.49c1.983 0 3.597-1.613 3.597-3.596v-86.314c0-1.983-1.614-3.596-3.597-3.596z"/></g><g transform="translate(441.22 335.42)"><path d="m0 0h-81.518v-44.755h-25.575v-43.157c0-0.881 0.717-1.598 1.599-1.598h105.49c0.881 0 1.598 0.717 1.598 1.598v86.314c0 0.881-0.717 1.598-1.598 1.598" fill="#fff"/></g><g transform="translate(337.73 314.04)"><path d="M 0,0 8.392,16.783 16.783,0 8.392,-16.783 Z" fill="#fff"/></g><g transform="translate(340.41 314.04)"><path d="M 0,0 5.711,11.422 11.422,0 5.711,-11.422 Z"/></g><path d="m403.48 249.88h-30v30h30z"/><g transform="translate(377.97 276.68)"><path d="m0 0c0-0.779-0.631-1.41-1.409-1.41-0.779 0-1.409 0.631-1.409 1.41 0 0.777 0.63 1.408 1.409 1.408 0.778 0 1.409-0.631 1.409-1.408" fill="#ef4123"/></g><g transform="translate(379.54 272.32)"><path d="m0 0c-0.778 0-1.409 0.631-1.409 1.41 0 0.778 0.631 1.408 1.409 1.408s1.409-0.63 1.409-1.408c0-0.779-0.631-1.41-1.409-1.41" fill="#ef4123"/></g><g transform="translate(382.52 269.37)"><path d="m0 0c-0.778 0-1.409 0.631-1.409 1.408 0 0.778 0.631 1.408 1.409 1.408s1.409-0.63 1.409-1.408c0-0.777-0.631-1.408-1.409-1.408" fill="#ef4123"/></g><g transform="translate(385.5 266.42)"><path d="m0 0c-0.778 0-1.409 0.631-1.409 1.408 0 0.78 0.631 1.41 1.409 1.41 0.777 0 1.408-0.63 1.408-1.41 0-0.777-0.631-1.408-1.408-1.408" fill="#ef4123"/></g><g transform="translate(388.48 263.47)"><path d="m0 0c-0.778 0-1.408 0.631-1.408 1.408 0 0.78 0.63 1.41 1.408 1.41s1.409-0.63 1.409-1.41c0-0.777-0.631-1.408-1.409-1.408" fill="#ef4123"/></g><g transform="translate(391.46 260.52)"><path d="m0 0c-0.778 0-1.409 0.631-1.409 1.408 0 0.78 0.631 1.41 1.409 1.41s1.409-0.63 1.409-1.41c0-0.777-0.631-1.408-1.409-1.408" fill="#ef4123"/></g><g transform="translate(394.43 257.57)"><path d="m0 0c-0.778 0-1.409 0.631-1.409 1.41 0 0.778 0.631 1.408 1.409 1.408s1.409-0.63 1.409-1.408c0-0.779-0.631-1.41-1.409-1.41" fill="#ef4123"/></g><g transform="translate(397.41 254.61)"><path d="m0 0c-0.778 0-1.409 0.631-1.409 1.41 0 0.778 0.631 1.408 1.409 1.408s1.409-0.63 1.409-1.408c0-0.779-0.631-1.41-1.409-1.41" fill="#ef4123"/></g><g transform="translate(401.8 253.07)"><path d="m0 0c0-0.779-0.63-1.41-1.408-1.41s-1.409 0.631-1.409 1.41c0 0.777 0.631 1.408 1.409 1.408s1.408-0.631 1.408-1.408" fill="#ef4123"/></g><g transform="translate(376.67 254.37)"><path d="m0 0c0.777 0 1.408-0.631 1.408-1.408 0-0.78-0.631-1.41-1.408-1.41-0.778 0-1.409 0.63-1.409 1.41 0 0.777 0.631 1.408 1.409 1.408" fill="#ef4123"/></g><g transform="translate(381.03 255.94)"><path d="m0 0c0-0.779-0.631-1.41-1.409-1.41-0.779 0-1.409 0.631-1.409 1.41 0 0.777 0.63 1.408 1.409 1.408 0.778 0 1.409-0.631 1.409-1.408" fill="#ef4123"/></g><g transform="translate(383.98 258.92)"><path d="m0 0c0-0.777-0.631-1.408-1.409-1.408-0.779 0-1.409 0.631-1.409 1.408 0 0.779 0.63 1.41 1.409 1.41 0.778 0 1.409-0.631 1.409-1.41" fill="#ef4123"/></g><g transform="translate(386.94 261.9)"><path d="m0 0c0-0.777-0.631-1.408-1.409-1.408-0.779 0-1.409 0.631-1.409 1.408 0 0.779 0.63 1.41 1.409 1.41 0.778 0 1.409-0.631 1.409-1.41" fill="#ef4123"/></g><g transform="translate(392.84 267.85)"><path d="m0 0c0-0.777-0.631-1.408-1.409-1.408-0.779 0-1.409 0.631-1.409 1.408 0 0.779 0.63 1.41 1.409 1.41 0.778 0 1.409-0.631 1.409-1.41" fill="#ef4123"/></g><g transform="translate(395.79 270.83)"><path d="m0 0c0-0.777-0.631-1.408-1.409-1.408-0.779 0-1.409 0.631-1.409 1.408 0 0.779 0.63 1.41 1.409 1.41 0.778 0 1.409-0.631 1.409-1.41" fill="#ef4123"/></g><g transform="translate(398.74 273.81)"><path d="m0 0c0-0.777-0.631-1.408-1.409-1.408-0.777 0-1.408 0.631-1.408 1.408s0.631 1.408 1.408 1.408c0.778 0 1.409-0.631 1.409-1.408" fill="#ef4123"/></g><g transform="translate(400.28 278.2)"><path d="m0 0c0.778 0 1.409-0.631 1.409-1.408 0-0.78-0.631-1.41-1.409-1.41s-1.409 0.63-1.409 1.41c0 0.777 0.631 1.408 1.409 1.408" fill="#ef4123"/></g><g transform="translate(393.49 301.72)"><path d="m0 0v-8.658h-2.017v12.787h2.017l4.667-8.166v8.166h2.02v-12.787h-1.794z"/></g><g transform="translate(403.25 305.85)"><path d="m0 0h2.017v-10.903h5.914v-1.884h-7.931z"/></g><g transform="translate(418.49 293.06)"><path d="m0 0h-2.03v5.564l-4.509 7.223h2.436l3.066-4.936 3.112 4.936h2.389l-4.464-7.223z"/></g><g transform="translate(374.92 321)"><path d="m0 0h-4.669v-5.564h-2.017v12.787h2.017v-5.159h4.667v5.159h2.021v-12.787h-2.019z"/></g><g transform="translate(394.56 315.44)"><path d="m0 0-4.052 12.787h2.116l2.746-8.524 2.702 8.524h2.16l-4.096-12.787z"/></g><g transform="translate(415.44 317.5)"><path d="m0 0h6.282v-2.064h-8.705c0.045 1.481 0.356 2.695 1.077 3.904 2.244 3.75 5.609 3.374 5.609 5.338 0 0.942-1.074 1.706-2.334 1.706-1.301 0-2.11-0.628-2.333-1.795l-2.019 0.449c0.449 2.108 2.108 3.409 4.351 3.409 2.424 0 4.35-1.705 4.35-3.813 0-1.53-0.877-2.504-2.017-3.212-1.721-1.07-3.304-1.544-4.261-3.922"/></g><g transform="translate(431.01 317.5)"><path d="m0 0h-2.02v3.186h-3.277v2.065h3.277v3.184h2.02v-3.184h3.277v-2.065h-3.277z"/></g><g transform="translate(384.32 317.28)"><path d="m0 0c1.378 0 2.497 1.306 2.497 4.555 0 3.25-1.119 4.556-2.497 4.556s-2.497-1.304-2.497-4.556c0-3.249 1.119-4.555 2.497-4.555m4.52 4.555c0-0.458 0.098-6.617-4.542-6.617-4.641 0-4.543 6.159-4.543 6.617 0 0.459-0.098 6.616 4.543 6.616 4.64 0 4.542-6.157 4.542-6.616"/></g><g transform="translate(384.14 294.9)"><path d="m0 0c1.378 0 2.497 1.306 2.497 4.555 0 3.25-1.119 4.556-2.497 4.556s-2.497-1.305-2.497-4.556c0-3.249 1.119-4.555 2.497-4.555m4.52 4.555c0-0.458 0.098-6.617-4.542-6.617-4.641 0-4.543 6.159-4.543 6.617 0 0.459-0.098 6.616 4.543 6.616 4.64 0 4.542-6.157 4.542-6.616"/></g></g><text transform="matrix(1 0 0 -1 107.99 588.86)" fill="black" font-family="Helvetica" font-size="9px"><tspan x="0 6.4980001 11.502 14.499 19.503" y="0">R3-13</tspan></text><g clip-path="url(#m)"><g transform="translate(71.096 601.45)"><path d="m0 0c-2.052 0-3.721 1.669-3.721 3.721v50.35c0 2.052 1.669 3.721 3.721 3.721h98.302c2.052 0 3.721-1.669 3.721-3.721v-50.35c0-2.052-1.669-3.721-3.721-3.721z" fill="#fff" fill-rule="evenodd"/></g><g transform="translate(169.4 659.37)"><path d="m0 0h-98.302c-2.121 0-3.846-1.726-3.846-3.846v-50.35c0-2.121 1.725-3.846 3.846-3.846h98.302c2.121 0 3.846 1.725 3.846 3.846v50.35c0 2.12-1.725 3.846-3.846 3.846m0-0.25c1.986 0 3.596-1.61 3.596-3.596v-50.35c0-1.986-1.61-3.596-3.596-3.596h-98.302c-1.986 0-3.596 1.61-3.596 3.596v50.35c0 1.986 1.61 3.596 3.596 3.596z"/></g><g transform="translate(68.499 605.18)"><path d="m0 0c0-1.432 1.165-2.597 2.597-2.597h98.302c1.432 0 2.597 1.165 2.597 2.597v50.35c0 1.432-1.165 2.597-2.597 2.597h-98.302c-1.432 0-2.597-1.165-2.597-2.597v-18.182z"/></g><g transform="translate(69.898 637.34)"><path d="m0 0h12.987v19.381h86.513c0.661 0 1.199-0.538 1.199-1.199v-50.35c0-0.661-0.538-1.199-1.199-1.199h-98.301c-0.661 0-1.199 0.538-1.199 1.199z" fill="#fff"/></g><g transform="translate(75.692 655.72)"><path d="m0 0 3.996-7.992-3.996-7.992-3.996 7.992z" fill="#fff" fill-rule="evenodd"/></g><g transform="translate(73.036 647.73)"><path d="M 0,0 2.656,5.311 5.311,0 2.656,-5.311 Z" fill-rule="evenodd"/></g><g transform="translate(91.844 643.42)"><path d="m0 0h-3.604v-3.477h-1.437v7.991h1.437v-3.084h3.604v3.084h1.436v-7.991h-1.436z"/></g><g transform="translate(96.581 643.95)"><path d="m0 0c0-1.71 0.73-2.719 1.939-2.719 1.517 0 1.883 1.486 1.883 2.719 0 1.697-0.696 2.692-1.883 2.692-1.209 0-1.939-1.01-1.939-2.692m-1.462 0c0 2.551 1.293 4.121 3.401 4.121 1.99 0 3.317-1.642 3.317-4.094 0-2.494-1.283-4.177-3.317-4.177-2.361 0-3.401 2.144-3.401 4.15"/></g><g transform="translate(105.86 639.94)"><path d="m0 0-2.904 7.992h1.52l2.158-5.833 2.157 5.833h1.522l-2.932-7.992z"/></g><g transform="translate(122.78 641.37)"><path d="m0 0v-1.431h-6.478c0 2.054 1.135 3.58 2.81 4.378 0.923 0.439 2.23 0.45 2.23 1.371 0 0.588-0.561 0.926-1.575 0.926-1.042 0-1.802-0.252-2.479-0.869l-0.986 1.093c0.929 0.813 2.084 1.232 3.381 1.232 1.887 0 3.097-0.925 3.097-2.383 0-0.948-0.544-1.683-1.327-2.047-1.09-0.506-2.437-0.386-3.404-2.27z"/></g><g transform="translate(126.9 641.48)"><path d="m0 0h-1.432v1.822h-1.883v1.431h1.883v1.794h1.432v-1.794h1.882v-1.431h-1.882z"/></g><g transform="translate(136.24 643.95)"><path d="m0 0c0-1.71 0.73-2.719 1.939-2.719 1.517 0 1.883 1.486 1.883 2.719 0 1.697-0.696 2.692-1.883 2.692-1.209 0-1.939-1.01-1.939-2.692m-1.462 0c0 2.551 1.293 4.121 3.401 4.121 1.99 0 3.317-1.642 3.317-4.094 0-2.494-1.283-4.177-3.317-4.177-2.361 0-3.401 2.144-3.401 4.15"/></g><g transform="translate(144.74 645.44)"><path d="m0 0v-5.496h-1.408v7.991h1.407l3.691-5.272v5.272h1.38v-7.991h-1.24z"/></g><g transform="translate(151.89 647.93)"><path d="m0 0h1.436v-6.758h4.558v-1.234h-5.994z"/></g><g transform="translate(163.31 639.94)"><path d="m0 0h-1.43v3.253l-3.364 4.739h1.766l2.327-3.253 2.298 3.253h1.766l-3.363-4.739z"/></g><g transform="translate(77.859 625.59)"><path d="m0 0h3.141v-1.032h-4.353c0.023 0.74 0.179 1.348 0.539 1.952 1.122 1.875 2.804 1.687 2.804 2.669 0 0.471-0.537 0.853-1.166 0.853-0.651 0-1.055-0.314-1.167-0.898l-1.01 0.225c0.225 1.054 1.054 1.705 2.176 1.705 1.212 0 2.175-0.853 2.175-1.907 0-0.765-0.438-1.252-1.008-1.606-0.861-0.535-1.652-0.772-2.131-1.961"/></g><g transform="translate(94.023 628.37)"><path d="m0 0c0.802 0 0.929 0.579 0.929 0.785 0 0.279-0.209 0.785-0.88 0.785h-1.319v-1.57zm-1.27-1.031v-2.783h-1.009v6.394h2.313c1.466 0 1.906-1.173 1.906-1.796 0-0.237-0.088-1.172-0.993-1.601l1.127-2.997h-1.1l-1.032 2.783z"/></g><g transform="translate(104.87 628.26)"><path d="m0 0-1.482-3.702-1.484 3.702v-3.702h-1.012v6.394h1.012l1.484-3.589 1.482 3.589h1.012v-6.394h-1.012z"/></g><g transform="translate(115.52 628.37)"><path d="m0 0c0.802 0 0.929 0.579 0.929 0.785 0 0.279-0.209 0.785-0.88 0.785h-1.319v-1.57zm-1.27-1.031v-2.783h-1.008v6.394h2.312c1.466 0 1.906-1.173 1.906-1.796 0-0.237-0.088-1.172-0.993-1.601l1.127-2.997h-1.1l-1.031 2.783z"/></g><g transform="translate(118.68 630.95)"><path d="m0 0h3.764v-1.009h-2.756v-1.571h1.86v-1.032h-1.86v-1.75h2.957v-1.032h-3.965z"/></g><g transform="translate(128.45 628.37)"><path d="m0 0h1.423c0.803 0 0.888 0.579 0.888 0.785 0 0.299-0.225 0.785-0.853 0.785h-1.458zm1.191-1.032h-1.191v-2.782h-1.009v6.394h2.417c1.504 0 1.936-1.223 1.936-1.795 0-0.397-0.219-1.817-2.153-1.817"/></g><g transform="translate(132.75 630.95)"><path d="m0 0h3.764v-1.009h-2.756v-1.571h1.86v-1.032h-1.86v-1.75h2.957v-1.032h-3.965z"/></g><g transform="translate(140.08 628.37)"><path d="m0 0c0.802 0 0.929 0.579 0.929 0.785 0 0.279-0.209 0.785-0.88 0.785h-1.319v-1.57zm-1.27-1.031v-2.783h-1.008v6.394h2.312c1.466 0 1.906-1.173 1.906-1.796 0-0.237-0.088-1.172-0.993-1.601l1.127-2.997h-1.1l-1.032 2.783z"/></g><g transform="translate(142.79 626.06)"><path d="m0 0 0.965 0.359c0.269-0.606 0.762-0.942 1.368-0.942 0.583 0 0.988 0.403 0.988 0.942 0 0.855-0.987 0.987-1.818 1.323-0.381 0.158-1.234 0.539-1.234 1.593 0 1.257 0.852 1.726 1.997 1.726 0.897 0 1.503-0.516 1.817-1.301l-0.898-0.269c-0.1 0.253-0.465 0.561-0.942 0.561-0.912 0-0.989-0.487-0.989-0.647 0-0.597 0.515-0.716 1.354-0.979 0.853-0.268 1.744-0.66 1.744-2.031 0-1.38-1.119-1.95-2.019-1.95-1.1 0-1.907 0.65-2.333 1.615"/></g><g transform="translate(155.06 628.89)"><path d="m0 0v-4.329h-1.008v6.393h1.008l2.334-4.083v4.083h1.01v-6.393h-0.898z"/></g><g transform="translate(159.49 626.06)"><path d="m0 0 0.964 0.359c0.27-0.606 0.763-0.942 1.369-0.942 0.583 0 0.987 0.403 0.987 0.942 0 0.855-0.987 0.987-1.817 1.323-0.381 0.158-1.234 0.539-1.234 1.593 0 1.257 0.852 1.726 1.997 1.726 0.897 0 1.503-0.516 1.817-1.301l-0.898-0.269c-0.1 0.253-0.466 0.561-0.942 0.561-0.912 0-0.989-0.487-0.989-0.647 0-0.597 0.515-0.716 1.354-0.979 0.853-0.268 1.744-0.66 1.744-2.031 0-1.38-1.119-1.95-2.019-1.95-1.1 0-1.907 0.65-2.333 1.615"/></g><g transform="translate(94.58 614.38)"><path d="m0 0h1.423c0.803 0 0.888 0.579 0.888 0.785 0 0.299-0.225 0.785-0.853 0.785h-1.458zm1.191-1.032h-1.191v-2.782h-1.008v6.394h2.416c1.504 0 1.936-1.223 1.936-1.795 0-0.397-0.218-1.817-2.153-1.817"/></g><g transform="translate(98.883 616.96)"><path d="m0 0h3.764v-1.009h-2.756v-1.571h1.86v-1.032h-1.86v-1.75h2.957v-1.032h-3.965z"/></g><g transform="translate(106.21 614.38)"><path d="m0 0c0.802 0 0.929 0.579 0.929 0.785 0 0.279-0.209 0.785-0.88 0.785h-1.319v-1.57zm-1.27-1.031v-2.783h-1.009v6.394h2.313c1.466 0 1.906-1.173 1.906-1.796 0-0.237-0.088-1.172-0.993-1.601l1.127-2.997h-1.1l-1.032 2.783z"/></g><g transform="translate(115.11 610.57)"><path d="m0 0-2.026 6.394h1.058l1.373-4.263 1.351 4.263h1.08l-2.048-6.394z"/></g><g transform="translate(118.9 616.96)"><path d="m0 0h3.764v-1.009h-2.755v-1.571h1.859v-1.032h-1.859v-1.75h2.956v-1.032h-3.965z"/></g><g transform="translate(127.3 613.35)"><path d="m0 0h-2.334v-2.782h-1.009v6.394h1.009v-2.58h2.333v2.58h1.01v-6.394h-1.009z"/></g><path d="m129.84 616.96h1.023v-6.394h-1.023z"/><g transform="translate(132.27 613.78)"><path d="m0 0c0 0.899 0.181 3.297 2.355 3.297 0.927 0 1.558-0.377 1.997-1.301l-0.942-0.404c-0.327 0.47-0.49 0.673-1.054 0.673-1.338 0-1.323-1.865-1.323-2.266 0-0.396-0.025-2.289 1.368-2.289 0.488 0 0.769 0.295 0.987 0.741l0.964-0.359c-0.359-0.889-0.963-1.412-1.93-1.412-2.3 0-2.422 2.542-2.422 3.32"/></g><g transform="translate(138.03 616.96)"><path d="m0 0h1.008v-5.451h2.957v-0.943h-3.965z"/></g><g transform="translate(142.96 616.96)"><path d="m0 0h3.764v-1.009h-2.756v-1.571h1.86v-1.032h-1.86v-1.75h2.957v-1.032h-3.965z"/></g><g transform="translate(88.078 625.48)"><path d="m0 0c0.689 0 1.248 0.653 1.248 2.278 0 1.624-0.559 2.277-1.248 2.277s-1.248-0.652-1.248-2.277 0.559-2.278 1.248-2.278m2.26 2.278c0-0.23 0.049-3.309-2.271-3.309s-2.272 3.079-2.272 3.309c0 0.229-0.048 3.308 2.272 3.308s2.271-3.079 2.271-3.308"/></g><g transform="translate(150.39 625.48)"><path d="m0 0c0.689 0 1.248 0.653 1.248 2.278 0 1.624-0.559 2.277-1.248 2.277s-1.248-0.652-1.248-2.277 0.559-2.278 1.248-2.278m2.26 2.278c0-0.23 0.049-3.309-2.271-3.309s-2.272 3.079-2.272 3.309c0 0.229-0.048 3.308 2.272 3.308s2.271-3.079 2.271-3.308"/></g><g transform="translate(109.57 625.48)"><path d="m0 0c0.689 0 1.248 0.653 1.248 2.278 0 1.624-0.559 2.277-1.248 2.277s-1.248-0.652-1.248-2.277 0.559-2.278 1.248-2.278m2.26 2.278c0-0.23 0.049-3.309-2.271-3.309s-2.272 3.079-2.272 3.309c0 0.229-0.048 3.308 2.272 3.308s2.271-3.079 2.271-3.308"/></g></g><text transform="matrix(1 0 0 -1 231.93 588.86)" fill="black" font-family="Helvetica" font-size="9px"><tspan x="0 6.4980001 11.502 14.499 19.503 24.507" y="0">R3-13a</tspan></text><g clip-path="url(#l)"><g transform="translate(197.54 601.45)"><path d="m0 0c-2.052 0-3.722 1.669-3.722 3.721v50.35c0 2.052 1.67 3.721 3.722 3.721h98.301c2.053 0 3.722-1.669 3.722-3.721v-50.35c0-2.052-1.669-3.721-3.722-3.721z" fill="#fff" fill-rule="evenodd"/></g><g transform="translate(295.84 659.37)"><path d="m0 0h-98.302c-2.121 0-3.846-1.726-3.846-3.846v-50.35c0-2.121 1.725-3.846 3.846-3.846h98.302c2.121 0 3.846 1.725 3.846 3.846v50.35c0 2.12-1.725 3.846-3.846 3.846m0-0.25c1.986 0 3.596-1.61 3.596-3.596v-50.35c0-1.986-1.61-3.596-3.596-3.596h-98.302c-1.986 0-3.596 1.61-3.596 3.596v50.35c0 1.986 1.61 3.596 3.596 3.596z"/></g><g transform="translate(297.04 605.18)"><path d="m0 0c0-0.661-0.538-1.199-1.199-1.199h-98.301c-0.661 0-1.199 0.538-1.199 1.199v32.168h12.987v19.38h86.513c0.661 0 1.199-0.537 1.199-1.198zm-1.199 52.947h-98.301c-1.433 0-2.598-1.165-2.598-2.597v-50.35c0-1.432 1.165-2.597 2.598-2.597h98.301c1.432 0 2.598 1.165 2.598 2.597v50.35c0 1.432-1.166 2.597-2.598 2.597"/></g><g transform="translate(202.13 655.72)"><path d="m0 0 3.996-7.992-3.996-7.992-3.996 7.992z" fill="#fff" fill-rule="evenodd"/></g><g transform="translate(199.48 647.73)"><path d="M 0,0 2.656,5.311 5.311,0 2.656,-5.311 Z" fill-rule="evenodd"/></g><g transform="translate(218.29 646.61)"><path d="m0 0h-3.604v-3.477h-1.437v7.991h1.437v-3.084h3.604v3.084h1.437v-7.991h-1.437z"/></g><g transform="translate(223.02 647.15)"><path d="m0 0c0-1.71 0.73-2.719 1.939-2.719 1.517 0 1.883 1.486 1.883 2.719 0 1.697-0.696 2.692-1.883 2.692-1.209 0-1.939-1.01-1.939-2.692m-1.462 0c0 2.551 1.293 4.121 3.401 4.121 1.99 0 3.317-1.643 3.317-4.094 0-2.495-1.283-4.177-3.317-4.177-2.361 0-3.401 2.144-3.401 4.15"/></g><g transform="translate(232.3 643.14)"><path d="m0 0-2.904 7.992h1.52l2.158-5.833 2.157 5.833h1.521l-2.931-7.992z"/></g><g transform="translate(221.02 620.98)"><path d="m0 0h1.423c0.803 0 0.888 0.579 0.888 0.785 0 0.299-0.225 0.785-0.853 0.785h-1.458zm1.191-1.032h-1.191v-2.782h-1.008v6.394h2.416c1.504 0 1.936-1.223 1.936-1.795 0-0.397-0.218-1.817-2.153-1.817"/></g><g transform="translate(225.32 623.56)"><path d="m0 0h3.764v-1.009h-2.756v-1.571h1.86v-1.032h-1.86v-1.75h2.957v-1.032h-3.965z"/></g><g transform="translate(232.66 620.98)"><path d="m0 0c0.802 0 0.929 0.579 0.929 0.785 0 0.279-0.209 0.785-0.88 0.785h-1.319v-1.57zm-1.27-1.031v-2.783h-1.009v6.394h2.313c1.466 0 1.906-1.173 1.906-1.796 0-0.237-0.088-1.172-0.993-1.601l1.127-2.997h-1.1l-1.032 2.783z"/></g><g transform="translate(241.55 617.16)"><path d="m0 0-2.026 6.394h1.058l1.373-4.262 1.351 4.262h1.08l-2.048-6.394z"/></g><g transform="translate(245.35 623.56)"><path d="m0 0h3.764v-1.009h-2.756v-1.571h1.86v-1.032h-1.86v-1.75h2.957v-1.032h-3.965z"/></g><g transform="translate(253.74 619.95)"><path d="m0 0h-2.334v-2.782h-1.009v6.394h1.009v-2.58h2.333v2.58h1.01v-6.394h-1.009z"/></g><path d="m256.29 623.56h1.023v-6.394h-1.023z"/><g transform="translate(258.72 620.37)"><path d="m0 0c0 0.899 0.181 3.297 2.355 3.297 0.927 0 1.558-0.378 1.997-1.301l-0.942-0.404c-0.327 0.47-0.49 0.673-1.054 0.673-1.338 0-1.323-1.865-1.323-2.266 0-0.396-0.025-2.289 1.368-2.289 0.488 0 0.769 0.295 0.987 0.741l0.964-0.359c-0.359-0.889-0.964-1.412-1.93-1.412-2.301 0-2.422 2.542-2.422 3.32"/></g><g transform="translate(264.48 623.56)"><path d="m0 0h1.008v-5.451h2.957v-0.943h-3.965z"/></g><g transform="translate(269.4 623.56)"><path d="m0 0h3.764v-1.009h-2.755v-1.571h1.859v-1.032h-1.859v-1.75h2.956v-1.032h-3.965z"/></g><g transform="translate(213.44 609.57)"><path d="m0 0c0-0.385 0.387-0.707 0.858-0.707s0.875 0.32 0.875 0.707c0 0.379-0.387 0.69-0.875 0.69-0.471 0-0.858-0.32-0.858-0.69m-0.774 0.051c0 1.328 0.74 2.691 1.852 3.431l0.386-0.64c-0.588-0.454-0.892-0.841-1.178-1.447 0.27 0.05 0.388 0.051 0.573 0.051 0.892 0 1.632-0.657 1.632-1.465 0-0.827-0.698-1.462-1.633-1.462-0.925 0-1.632 0.674-1.632 1.532"/></g><g transform="translate(218.11 610.29)"><path d="m0 0h0.964l-0.474 1.346zm1.235-0.774h-1.506l-0.474-1.346h-0.812l1.658 4.795h0.762l1.658-4.795h-0.812z"/></g><g transform="translate(224.34 610.95)"><path d="m0 0-1.112-2.776-1.113 2.776v-2.776h-0.759v4.795h0.759l1.113-2.692 1.112 2.692h0.759v-4.795h-0.759z"/></g><path d="m225.81 610.92h1.68v-0.758h-1.68z"/><g transform="translate(228.89 611.59)"><path d="m0 0c0-0.404 0.381-0.689 0.858-0.689 0.488 0 0.875 0.302 0.875 0.689 0 0.382-0.395 0.69-0.875 0.69-0.471 0-0.858-0.303-0.858-0.69m0.27-2.86c0.572 0.454 0.875 0.841 1.161 1.463-0.269-0.049-0.387-0.066-0.573-0.066-0.894 0-1.632 0.656-1.632 1.464 0 0.832 0.724 1.463 1.632 1.463 0.917 0 1.633-0.657 1.633-1.531 0-1.309-0.741-2.675-1.851-3.432z"/></g><g transform="translate(233.56 610.29)"><path d="m0 0h0.964l-0.474 1.346zm1.235-0.774h-1.506l-0.474-1.346h-0.812l1.658 4.795h0.762l1.658-4.795h-0.812z"/></g><g transform="translate(239.79 610.95)"><path d="m0 0-1.112-2.776-1.113 2.776v-2.776h-0.759v4.795h0.759l1.113-2.692 1.112 2.692h0.759v-4.795h-0.759z"/></g><g transform="translate(249.23 644.57)"><path d="m0 0v-1.43h-6.478c0 2.053 1.135 3.579 2.81 4.377 0.923 0.439 2.231 0.45 2.231 1.371 0 0.588-0.562 0.926-1.576 0.926-1.042 0-1.802-0.252-2.479-0.869l-0.986 1.093c0.93 0.813 2.084 1.232 3.381 1.232 1.887 0 3.097-0.925 3.097-2.383 0-0.948-0.543-1.683-1.327-2.047-1.09-0.506-2.437-0.386-3.404-2.27z"/></g><g transform="translate(253.34 644.68)"><path d="m0 0h-1.433v1.822h-1.882v1.431h1.882v1.794h1.433v-1.794h1.882v-1.431h-1.882z"/></g><g transform="translate(262.68 647.15)"><path d="m0 0c0-1.71 0.73-2.719 1.939-2.719 1.517 0 1.883 1.486 1.883 2.719 0 1.697-0.696 2.692-1.883 2.692-1.209 0-1.939-1.01-1.939-2.692m-1.462 0c0 2.551 1.293 4.121 3.401 4.121 1.99 0 3.317-1.643 3.317-4.094 0-2.495-1.283-4.177-3.317-4.177-2.361 0-3.401 2.144-3.401 4.15"/></g><g transform="translate(271.18 648.63)"><path d="m0 0v-5.497h-1.408v7.992h1.407l3.691-5.272v5.272h1.38v-7.992h-1.24z"/></g><g transform="translate(278.33 651.13)"><path d="m0 0h1.435v-6.758h4.559v-1.234h-5.994z"/></g><g transform="translate(289.76 643.14)"><path d="m0 0h-1.429v3.253l-3.365 4.739h1.766l2.327-3.253 2.298 3.253h1.767l-3.364-4.739z"/></g><g transform="translate(204.3 628.78)"><path d="m0 0h3.141v-1.032h-4.353c0.023 0.74 0.179 1.348 0.539 1.952 1.122 1.875 2.805 1.687 2.805 2.669 0 0.471-0.538 0.853-1.167 0.853-0.651 0-1.055-0.314-1.167-0.898l-1.01 0.225c0.225 1.054 1.055 1.705 2.176 1.705 1.212 0 2.175-0.853 2.175-1.907 0-0.765-0.438-1.252-1.008-1.606-0.861-0.535-1.652-0.772-2.131-1.961"/></g><g transform="translate(220.47 631.57)"><path d="m0 0c0.802 0 0.929 0.579 0.929 0.785 0 0.279-0.209 0.785-0.88 0.785h-1.319v-1.57zm-1.27-1.031v-2.783h-1.009v6.394h2.313c1.466 0 1.906-1.173 1.906-1.796 0-0.237-0.088-1.172-0.993-1.601l1.127-2.997h-1.1l-1.032 2.783z"/></g><g transform="translate(231.31 631.45)"><path d="m0 0-1.482-3.702-1.484 3.702v-3.702h-1.012v6.394h1.012l1.484-3.59 1.482 3.59h1.012v-6.394h-1.012z"/></g><g transform="translate(241.96 631.57)"><path d="m0 0c0.802 0 0.929 0.579 0.929 0.785 0 0.279-0.209 0.785-0.88 0.785h-1.319v-1.57zm-1.27-1.031v-2.783h-1.008v6.394h2.312c1.466 0 1.906-1.173 1.906-1.796 0-0.237-0.088-1.172-0.993-1.601l1.127-2.997h-1.1l-1.031 2.783z"/></g><g transform="translate(245.12 634.15)"><path d="m0 0h3.764v-1.009h-2.756v-1.571h1.86v-1.032h-1.86v-1.75h2.957v-1.032h-3.965z"/></g><g transform="translate(254.89 631.57)"><path d="m0 0h1.423c0.803 0 0.888 0.579 0.888 0.785 0 0.3-0.225 0.785-0.853 0.785h-1.458zm1.191-1.032h-1.191v-2.782h-1.008v6.394h2.416c1.504 0 1.936-1.223 1.936-1.795 0-0.397-0.218-1.817-2.153-1.817"/></g><g transform="translate(259.19 634.15)"><path d="m0 0h3.764v-1.009h-2.755v-1.571h1.859v-1.032h-1.859v-1.75h2.956v-1.032h-3.965z"/></g><g transform="translate(266.52 631.57)"><path d="m0 0c0.802 0 0.929 0.579 0.929 0.785 0 0.279-0.209 0.785-0.88 0.785h-1.319v-1.57zm-1.27-1.031v-2.783h-1.008v6.394h2.312c1.466 0 1.906-1.173 1.906-1.796 0-0.237-0.088-1.172-0.993-1.601l1.127-2.997h-1.1l-1.031 2.783z"/></g><g transform="translate(269.24 629.26)"><path d="m0 0 0.965 0.359c0.269-0.606 0.762-0.942 1.368-0.942 0.583 0 0.987 0.403 0.987 0.942 0 0.855-0.987 0.987-1.817 1.323-0.381 0.158-1.234 0.539-1.234 1.593 0 1.257 0.852 1.726 1.997 1.726 0.897 0 1.503-0.516 1.817-1.301l-0.898-0.269c-0.1 0.252-0.465 0.561-0.942 0.561-0.912 0-0.989-0.487-0.989-0.647 0-0.597 0.515-0.716 1.354-0.979 0.853-0.268 1.744-0.66 1.744-2.031 0-1.38-1.119-1.95-2.019-1.95-1.1 0-1.907 0.65-2.333 1.615"/></g><g transform="translate(281.51 632.08)"><path d="m0 0v-4.329h-1.008v6.393h1.008l2.334-4.083v4.083h1.01v-6.393h-0.898z"/></g><g transform="translate(285.94 629.26)"><path d="m0 0 0.965 0.359c0.269-0.606 0.762-0.942 1.368-0.942 0.583 0 0.987 0.403 0.987 0.942 0 0.855-0.987 0.987-1.817 1.323-0.381 0.158-1.234 0.539-1.234 1.593 0 1.257 0.852 1.726 1.997 1.726 0.897 0 1.503-0.516 1.817-1.301l-0.898-0.269c-0.1 0.252-0.465 0.561-0.942 0.561-0.912 0-0.989-0.487-0.989-0.647 0-0.597 0.515-0.716 1.354-0.979 0.853-0.268 1.744-0.66 1.744-2.031 0-1.38-1.119-1.95-2.019-1.95-1.1 0-1.907 0.65-2.333 1.615"/></g><g transform="translate(214.52 628.67)"><path d="m0 0c0.689 0 1.248 0.653 1.248 2.278 0 1.624-0.559 2.277-1.248 2.277s-1.248-0.652-1.248-2.277 0.559-2.278 1.248-2.278m2.26 2.278c0-0.23 0.049-3.309-2.271-3.309s-2.272 3.079-2.272 3.309c0 0.229-0.048 3.308 2.272 3.308s2.271-3.079 2.271-3.308"/></g><g transform="translate(276.83 628.67)"><path d="m0 0c0.689 0 1.248 0.653 1.248 2.278 0 1.624-0.559 2.277-1.248 2.277s-1.248-0.652-1.248-2.277 0.559-2.278 1.248-2.278m2.26 2.278c0-0.23 0.049-3.309-2.271-3.309s-2.272 3.079-2.272 3.309c0 0.229-0.048 3.308 2.272 3.308s2.271-3.079 2.271-3.308"/></g><g transform="translate(236.01 628.67)"><path d="m0 0c0.689 0 1.248 0.653 1.248 2.278 0 1.624-0.559 2.277-1.248 2.277s-1.248-0.652-1.248-2.277 0.559-2.278 1.248-2.278m2.26 2.278c0-0.23 0.049-3.309-2.271-3.309s-2.272 3.079-2.272 3.309c0 0.229-0.048 3.308 2.272 3.308s2.271-3.079 2.271-3.308"/></g><g transform="translate(259.51 610.95)"><path d="m0 0-1.112-2.776-1.113 2.776v-2.776h-0.759v4.795h0.759l1.113-2.692 1.112 2.692h0.759v-4.795h-0.759z"/></g><g transform="translate(266.55 611.42)"><path d="m0 0v-3.247h-0.757v4.795h0.757l1.75-3.062v3.062h0.758v-4.795h-0.673z"/></g><path d="m269.77 610.92h1.679v-0.758h-1.679z"/><g transform="translate(272.93 611.03)"><path d="m0 0h1.395v-0.774h-1.395v-2.086h-0.757v4.795h2.975v-0.757h-2.218z"/></g><g transform="translate(277.57 611.03)"><path d="m0 0c0.602 0 0.697 0.434 0.697 0.589 0 0.209-0.157 0.589-0.66 0.589h-0.989v-1.178zm-0.952-0.773v-2.087h-0.757v4.795h1.735c1.099 0 1.429-0.879 1.429-1.347 0-0.178-0.066-0.879-0.745-1.2l0.845-2.248h-0.824l-0.774 2.087z"/></g><path d="m279.94 612.97h0.767v-4.795h-0.767z"/><g transform="translate(263.04 608.86)"><path d="m0 0c0.517 0 0.936 0.49 0.936 1.708 0 1.219-0.419 1.709-0.936 1.709s-0.936-0.49-0.936-1.709c0-1.218 0.419-1.708 0.936-1.708m1.695 1.708c0-0.172 0.037-2.481-1.703-2.481s-1.704 2.309-1.704 2.481-0.036 2.481 1.704 2.481 1.703-2.309 1.703-2.481"/></g></g><text transform="matrix(1 0 0 -1 365.67 588.86)" fill="black" font-family="Helvetica" font-size="9px"><tspan x="0 6.4980001 11.502 14.499 19.503" y="0">R3-14</tspan></text><g clip-path="url(#k)"><g transform="translate(325.18 601.45)"><path d="m0 0c-2.713 0-4.92 2.207-4.92 4.92v86.313c0 2.713 2.207 4.921 4.92 4.921h105.49c2.713 0 4.92-2.208 4.92-4.921v-86.313c0-2.713-2.207-4.92-4.92-4.92z" fill="#fff"/></g><g transform="translate(430.67 697.73)"><path d="m0 0h-105.49c-2.782 0-5.046-2.263-5.046-5.045v-86.314c0-2.782 2.264-5.045 5.046-5.045h105.49c2.782 0 5.045 2.263 5.045 5.045v86.314c0 2.782-2.263 5.045-5.045 5.045m0-0.25c2.648 0 4.795-2.147 4.795-4.795v-86.314c0-2.648-2.147-4.795-4.795-4.795h-105.49c-2.649 0-4.796 2.147-4.796 4.795v86.314c0 2.648 2.147 4.795 4.796 4.795z"/></g><g transform="translate(432.27 606.37)"><path d="m0 0c0-0.881-0.717-1.598-1.598-1.598h-105.5c-0.881 0-1.598 0.717-1.598 1.598v55.944h14.385v31.968h92.708c0.881 0 1.598-0.717 1.598-1.598zm-1.598 89.91h-105.5c-1.983 0-3.596-1.613-3.596-3.596v-86.314c0-1.983 1.613-3.596 3.596-3.596h105.5c1.983 0 3.596 1.613 3.596 3.596v86.314c0 1.983-1.613 3.596-3.596 3.596"/></g><g transform="translate(329.77 692.09)"><path d="m0 0 6.393-12.787-6.393-12.787-6.394 12.787z" fill="#fff" fill-rule="evenodd"/></g><g transform="translate(325.17 679.3)"><path d="M 0,0 4.607,9.213 9.213,0 4.607,-9.213 Z" fill-rule="evenodd"/></g><g transform="translate(380.17 622.36)"><path d="m0 0v-6.212l7.945 2.051c0.053 0.013 0.108 0.02 0.165 0.02 0.381 0 0.69-0.309 0.69-0.69 0-0.192-0.078-0.365-0.203-0.49l-10.84-9.864-10.84 9.864c-0.126 0.125-0.204 0.298-0.204 0.49 0 0.381 0.309 0.69 0.691 0.69 0.057 0 0.112-7e-3 0.165-0.02l7.945-2.051v6.212z"/></g><g transform="translate(362.93 649.55)"><path d="m0 0c0-2.737 1.168-4.351 3.102-4.351 2.428 0 3.013 2.379 3.013 4.351 0 2.716-1.114 4.308-3.013 4.308-1.934 0-3.102-1.616-3.102-4.308m-2.338 0c0 4.082 2.068 6.593 5.44 6.593 3.184 0 5.307-2.627 5.307-6.55 0-3.991-2.052-6.683-5.307-6.683-3.776 0-5.44 3.43-5.44 6.64"/></g><g transform="translate(376.54 651.93)"><path d="m0 0v-8.794h-2.252v12.787h2.25l5.906-8.436v8.436h2.208v-12.787h-1.984z"/></g><g transform="translate(387.97 655.92)"><path d="m0 0h2.297v-10.813h7.293v-1.974h-9.59z"/></g><g transform="translate(406.26 643.14)"><path d="m0 0h-2.287v5.204l-5.383 7.583h2.825l3.723-5.204 3.678 5.204h2.826l-5.382-7.583z"/></g><g transform="translate(329.28 631.08)"><path d="m0 0c0-0.641 0.645-1.178 1.431-1.178 0.785 0 1.458 0.533 1.458 1.178 0 0.632-0.645 1.15-1.458 1.15-0.786 0-1.431-0.533-1.431-1.15m-1.29 0.085c0 2.214 1.234 4.485 3.086 5.718l0.645-1.066c-0.981-0.757-1.487-1.401-1.963-2.411 0.448 0.083 0.645 0.084 0.954 0.084 1.486 0 2.719-1.094 2.719-2.441 0-1.379-1.162-2.437-2.72-2.437-1.543 0-2.721 1.123-2.721 2.553"/></g><g transform="translate(337.07 632.29)"><path d="m0 0h1.607l-0.79 2.243zm2.058-1.29h-2.51l-0.79-2.243h-1.353l2.764 7.991h1.269l2.764-7.991h-1.354z"/></g><g transform="translate(347.44 633.38)"><path d="m0 0-1.853-4.627-1.855 4.627v-4.627h-1.265v7.992h1.265l1.855-4.487 1.853 4.487h1.265v-7.992h-1.265z"/></g><path d="m349.9 633.32h3.996v-1.263h-3.996z"/><g transform="translate(355.99 634.44)"><path d="m0 0c0-0.673 0.635-1.149 1.431-1.149 0.813 0 1.458 0.504 1.458 1.149 0 0.637-0.658 1.15-1.458 1.15-0.786 0-1.431-0.505-1.431-1.15m0.45-4.767c0.953 0.757 1.458 1.401 1.935 2.439-0.449-0.082-0.646-0.11-0.954-0.11-1.491 0-2.721 1.092-2.721 2.439 0 1.388 1.207 2.44 2.721 2.44 1.528 0 2.72-1.096 2.72-2.553 0-2.182-1.234-4.458-3.085-5.72z"/></g><g transform="translate(363.77 632.29)"><path d="m0 0h1.607l-0.79 2.243zm2.058-1.29h-2.51l-0.79-2.243h-1.353l2.764 7.991h1.27l2.763-7.991h-1.354z"/></g><g transform="translate(374.15 633.38)"><path d="m0 0-1.853-4.627-1.855 4.627v-4.627h-1.265v7.992h1.265l1.855-4.487 1.853 4.487h1.265v-7.992h-1.265z"/></g><g transform="translate(391.57 633.38)"><path d="m0 0-1.853-4.627-1.855 4.627v-4.627h-1.265v7.992h1.265l1.855-4.487 1.853 4.487h1.265v-7.992h-1.265z"/></g><g transform="translate(395.89 632.74)"><path d="m0 0c0-0.232-3e-3 -2.837 1.576-2.837 1.566 0 1.545 2.528 1.545 2.837 0 0.227 0.034 2.857-1.515 2.857-1.66 0-1.606-2.639-1.606-2.857m4.385-3e-3c0-0.449 0.038-4.122-2.839-4.122s-2.839 3.673-2.839 4.122c0 0.778 0.117 4.149 2.896 4.149 2.846 0 2.782-3.822 2.782-4.149"/></g><g transform="translate(403.29 634.16)"><path d="m0 0v-5.411h-1.261v7.991h1.261l2.917-5.103v5.103h1.263v-7.991h-1.122z"/></g><path d="m408.67 633.32h3.996v-1.263h-3.996z"/><g transform="translate(414.89 633.52)"><path d="m0 0h2.325v-1.29h-2.325v-3.477h-1.261v7.992h4.957v-1.262h-3.696z"/></g><g transform="translate(422.63 633.52)"><path d="m0 0c1.003 0 1.161 0.723 1.161 0.981 0 0.349-0.261 0.982-1.1 0.982h-1.648v-1.963zm-1.587-1.289v-3.478h-1.261v7.992h2.891c1.832 0 2.381-1.466 2.381-2.245 0-0.297-0.109-1.465-1.24-2.001l1.408-3.746h-1.374l-1.29 3.478z"/></g><path d="m426.58 636.74h1.279v-7.992h-1.279z"/><g transform="translate(360.6 667.88)"><path d="m0 0h-5.767v-5.564h-2.298v12.787h2.298v-4.936h5.767v4.936h2.298v-12.787h-2.298z"/></g><g transform="translate(368.18 668.73)"><path d="m0 0c0-2.736 1.168-4.351 3.102-4.351 2.428 0 3.013 2.379 3.013 4.351 0 2.716-1.114 4.308-3.013 4.308-1.934 0-3.102-1.616-3.102-4.308m-2.338 0c0 4.082 2.068 6.593 5.44 6.593 3.184 0 5.307-2.627 5.307-6.55 0-3.991-2.052-6.683-5.307-6.683-3.776 0-5.44 3.43-5.44 6.64"/></g><g transform="translate(383.03 662.32)"><path d="m0 0-4.646 12.787h2.432l3.453-9.333 3.45 9.333h2.435l-4.69-12.787z"/></g><g transform="translate(410.1 664.61)"><path d="m0 0v-2.289h-10.364c0 3.286 1.816 5.727 4.495 7.004 1.477 0.702 3.569 0.72 3.569 2.193 0 0.942-0.898 1.482-2.52 1.482-1.668 0-2.884-0.403-3.966-1.391l-1.578 1.749c1.487 1.301 3.334 1.972 5.409 1.972 3.019 0 4.955-1.48 4.955-3.813 0-1.517-0.869-2.692-2.123-3.275-1.743-0.809-3.899-0.617-5.447-3.632z"/></g><g transform="translate(416.69 664.79)"><path d="m0 0h-2.292v2.915h-3.011v2.289h3.011v2.871h2.292v-2.871h3.011v-2.289h-3.011z"/></g></g><text transform="matrix(1 0 0 -1 499.2 588.86)" fill="black" font-family="Helvetica" font-size="9px"><tspan x="0 6.4980001 11.502 14.499 19.503 24.507" y="0">R3-14a</tspan></text><g clip-path="url(#j)"><g transform="translate(461.21 601.45)"><path d="m0 0c-2.713 0-4.92 2.207-4.92 4.92v86.313c0 2.713 2.207 4.921 4.92 4.921h105.5c2.713 0 4.92-2.208 4.92-4.921v-86.313c0-2.713-2.207-4.92-4.92-4.92z" fill="#fff"/></g><g transform="translate(566.71 697.73)"><path d="m0 0h-105.49c-2.782 0-5.046-2.263-5.046-5.045v-86.314c0-2.782 2.264-5.045 5.046-5.045h105.49c2.782 0 5.045 2.263 5.045 5.045v86.314c0 2.782-2.263 5.045-5.045 5.045m0-0.25c2.648 0 4.795-2.147 4.795-4.795v-86.314c0-2.648-2.147-4.795-4.795-4.795h-105.49c-2.649 0-4.796 2.147-4.796 4.795v86.314c0 2.648 2.147 4.795 4.796 4.795z"/></g><g transform="translate(568.3 606.37)"><path d="m0 0c0-0.881-0.717-1.598-1.598-1.598h-105.5c-0.881 0-1.598 0.717-1.598 1.598v55.944h14.385v31.968h92.708c0.881 0 1.598-0.717 1.598-1.598zm-1.598 89.91h-105.5c-1.983 0-3.596-1.613-3.596-3.596v-86.314c0-1.983 1.613-3.596 3.596-3.596h105.5c1.983 0 3.596 1.613 3.596 3.596v86.314c0 1.983-1.613 3.596-3.596 3.596"/></g><g transform="translate(465.81 692.09)"><path d="m0 0 6.393-12.787-6.393-12.787-6.394 12.787z" fill="#fff" fill-rule="evenodd"/></g><g transform="translate(461.2 679.3)"><path d="M 0,0 4.607,9.213 9.213,0 4.607,-9.213 Z" fill-rule="evenodd"/></g><g transform="translate(524.01 655.92)"><path d="m0 0v12.787h2.296v-10.813h7.294v-1.974z"/></g><g transform="translate(518.7 655.92)"><path d="m0 0-6.128 8.794v-8.794h-2.253v12.787h2.253l5.903-8.435v8.435h2.208v-12.787z"/></g><g transform="translate(502.07 666.65)"><path d="m0 0c-1.934 0-3.103-1.615-3.103-4.307 0-2.737 1.169-4.352 3.103-4.352 2.428 0 3.013 2.378 3.013 4.352 0 2.692-1.079 4.307-3.013 4.307m0-10.948c-3.777 0-5.441 3.41-5.441 6.641 0 4.083 2.068 6.595 5.441 6.595 3.148 0 5.306-2.647 5.306-6.55 0-3.994-2.068-6.686-5.306-6.686"/></g><g transform="translate(542.29 661.13)"><path d="m0 0v-5.205h-2.288v5.205l-5.382 7.583h2.826l3.723-5.205 3.678 5.205h2.826z"/></g><g transform="translate(516.2 622.36)"><path d="m0 0v-6.212l7.945 2.051c0.053 0.013 0.108 0.02 0.165 0.02 0.381 0 0.69-0.309 0.69-0.691 0-0.191-0.078-0.364-0.203-0.489l-10.84-9.864-10.84 9.864c-0.126 0.125-0.204 0.298-0.204 0.489 0 0.382 0.309 0.691 0.691 0.691 0.057 0 0.112-7e-3 0.165-0.02l7.945-2.051v6.212z"/></g><g transform="translate(474.79 640.67)"><path d="m0 0c0-0.641 0.645-1.178 1.431-1.178 0.785 0 1.458 0.533 1.458 1.178 0 0.632-0.645 1.15-1.458 1.15-0.786 0-1.431-0.533-1.431-1.15m-1.29 0.085c0 2.214 1.234 4.485 3.086 5.718l0.645-1.066c-0.981-0.757-1.487-1.401-1.963-2.411 0.448 0.083 0.645 0.084 0.954 0.084 1.486 0 2.719-1.094 2.719-2.441 0-1.379-1.162-2.437-2.72-2.437-1.543 0-2.721 1.123-2.721 2.553"/></g><g transform="translate(498.94 641.88)"><path d="m0 0h1.607l-0.79 2.243zm2.058-1.29h-2.51l-0.79-2.244h-1.353l2.764 7.992h1.269l2.764-7.992h-1.354z"/></g><g transform="translate(509.32 642.97)"><path d="m0 0-1.853-4.627-1.855 4.627v-4.627h-1.265v7.992h1.265l1.855-4.487 1.853 4.487h1.265v-7.992h-1.265z"/></g><path d="m511.54 642.91h4.995v-1.263h-4.995z"/><g transform="translate(518.62 644.03)"><path d="m0 0c0-0.673 0.635-1.149 1.43-1.149 0.814 0 1.459 0.504 1.459 1.149 0 0.637-0.658 1.15-1.459 1.15-0.785 0-1.43-0.505-1.43-1.15m0.449-4.767c0.954 0.757 1.459 1.401 1.936 2.439-0.449-0.083-0.646-0.11-0.955-0.11-1.49 0-2.72 1.092-2.72 2.439 0 1.388 1.207 2.439 2.72 2.439 1.529 0 2.721-1.095 2.721-2.552 0-2.182-1.234-4.458-3.085-5.72z"/></g><g transform="translate(542.8 641.88)"><path d="m0 0h1.607l-0.79 2.243zm2.058-1.29h-2.509l-0.791-2.244h-1.353l2.764 7.992h1.27l2.763-7.992h-1.354z"/></g><g transform="translate(553.18 642.97)"><path d="m0 0-1.853-4.627-1.855 4.627v-4.627h-1.265v7.992h1.265l1.855-4.487 1.853 4.487h1.265v-7.992h-1.265z"/></g><g transform="translate(498.3 630.18)"><path d="m0 0-1.853-4.627-1.855 4.627v-4.627h-1.265v7.992h1.265l1.855-4.487 1.853 4.487h1.265v-7.992h-1.265z"/></g><g transform="translate(502.62 629.54)"><path d="m0 0c0-0.232-3e-3 -2.837 1.577-2.837 1.565 0 1.544 2.528 1.544 2.837 0 0.227 0.034 2.857-1.515 2.857-1.66 0-1.606-2.639-1.606-2.857m4.386-3e-3c0-0.449 0.038-4.122-2.839-4.122-2.878 0-2.84 3.673-2.84 4.122 0 0.778 0.117 4.149 2.896 4.149 2.847 0 2.783-3.822 2.783-4.149"/></g><g transform="translate(510.02 630.97)"><path d="m0 0v-5.411h-1.261v7.991h1.261l2.917-5.103v5.103h1.263v-7.991h-1.122z"/></g><path d="m515.4 630.13h3.996v-1.263h-3.996z"/><g transform="translate(521.61 630.32)"><path d="m0 0h2.325v-1.29h-2.325v-3.477h-1.261v7.992h4.957v-1.262h-3.696z"/></g><g transform="translate(529.36 630.32)"><path d="m0 0c1.003 0 1.161 0.723 1.161 0.981 0 0.349-0.261 0.982-1.1 0.982h-1.648v-1.963zm-1.587-1.289v-3.478h-1.261v7.992h2.891c1.832 0 2.382-1.466 2.382-2.245 0-0.297-0.11-1.466-1.241-2.001l1.409-3.746h-1.375l-1.29 3.478z"/></g><path d="m533.31 633.55h1.279v-7.992h-1.279z"/><g transform="translate(480.03 640.74)"><path d="m0 0c0 0.365 0.34 0.701 0.734 0.701 0.367 0 0.705-0.336 0.705-0.701-1e-3 -0.393-0.311-0.729-0.705-0.729s-0.734 0.336-0.734 0.729m0 3.197c0 0.392 0.338 0.701 0.734 0.701 0.367 0 0.705-0.309 0.705-0.701 0-0.393-0.311-0.729-0.705-0.729s-0.734 0.336-0.734 0.729"/></g><g transform="translate(485.35 642.07)"><path d="m0 0v1.262h0.311c0.507 0 0.789 0.28 0.789 0.785 0 0.621-0.505 1.066-1.156 1.066-0.535 0-0.93-0.253-1.212-0.785l-1.183 0.448c0.421 1.01 1.324 1.626 2.367 1.626 1.353 0 2.453-1.089 2.453-2.44 0-0.476-0.113-0.813-0.452-1.318 0.592-0.532 0.761-0.952 0.761-1.739 0-1.626-1.12-2.775-2.762-2.775-1.297 0-2.34 0.842-2.678 2.132l1.241 0.364c0.197-0.785 0.732-1.205 1.493-1.205 0.845 0 1.438 0.593 1.438 1.401 0 0.33-0.136 1.178-1.054 1.178z"/></g><g transform="translate(492.48 639.49)"><path d="m0 0c0.861 0 1.56 0.816 1.56 2.847s-0.699 2.847-1.56 2.847-1.56-0.815-1.56-2.847c0-2.031 0.699-2.847 1.56-2.847m2.825 2.847c0-0.287 0.061-4.136-2.839-4.136s-2.839 3.849-2.839 4.136-0.061 4.135 2.839 4.135 2.839-3.848 2.839-4.135"/></g><g transform="translate(523.85 640.74)"><path d="m0 0c0 0.365 0.34 0.701 0.734 0.701 0.367 0 0.705-0.336 0.705-0.701-1e-3 -0.393-0.311-0.729-0.705-0.729s-0.734 0.336-0.734 0.729m0 3.197c0 0.392 0.338 0.701 0.734 0.701 0.367 0 0.705-0.309 0.705-0.701 0-0.393-0.311-0.729-0.705-0.729s-0.734 0.336-0.734 0.729"/></g><g transform="translate(529.17 642.07)"><path d="m0 0v1.262h0.311c0.507 0 0.789 0.28 0.789 0.785 0 0.621-0.505 1.066-1.156 1.066-0.535 0-0.93-0.253-1.212-0.785l-1.183 0.448c0.421 1.01 1.324 1.626 2.367 1.626 1.353 0 2.453-1.089 2.453-2.44 0-0.476-0.113-0.813-0.452-1.318 0.591-0.532 0.761-0.952 0.761-1.739 0-1.626-1.119-2.775-2.762-2.775-1.297 0-2.339 0.842-2.678 2.132l1.241 0.364c0.197-0.785 0.732-1.205 1.493-1.205 0.845 0 1.438 0.593 1.438 1.401 0 0.33-0.136 1.178-1.054 1.178z"/></g><g transform="translate(536.3 639.49)"><path d="m0 0c0.861 0 1.56 0.816 1.56 2.847s-0.699 2.847-1.56 2.847-1.56-0.815-1.56-2.847c0-2.031 0.699-2.847 1.56-2.847m2.825 2.847c0-0.287 0.061-4.136-2.839-4.136s-2.839 3.849-2.839 4.136-0.061 4.135 2.839 4.135 2.839-3.848 2.839-4.135"/></g><g transform="translate(496.63 675.11)"><path d="m0 0v5.564h-5.768v-5.564h-2.298v12.787h2.298v-4.935h5.768v4.935h2.298v-12.787z"/></g><g transform="translate(507.32 685.83)"><path d="m0 0c-1.934 0-3.103-1.615-3.103-4.307 0-2.737 1.169-4.352 3.103-4.352 2.428 0 3.013 2.378 3.013 4.352 0 2.692-1.079 4.307-3.013 4.307m0-10.948c-3.777 0-5.441 3.41-5.441 6.641 0 4.083 2.068 6.595 5.441 6.595 3.148 0 5.306-2.647 5.306-6.55 0-3.994-2.068-6.686-5.306-6.686"/></g><g transform="translate(521.49 675.11)"><path d="m0 0h-2.434l-4.646 12.787h2.434l3.451-9.332 3.452 9.332h2.433z"/></g><g transform="translate(552.72 680.49)"><path d="m0 0v-2.916h-2.292v2.916h-3.012v2.288h3.012v2.872h2.292v-2.872h3.011v-2.288z"/></g><g transform="translate(546.14 677.39)"><path d="m0 0v-2.289h-10.364c0 3.286 1.816 5.727 4.495 7.004 1.477 0.702 3.569 0.72 3.569 2.193 0 0.942-0.898 1.482-2.521 1.482-1.667 0-2.883-0.403-3.965-1.391l-1.578 1.749c1.486 1.301 3.334 1.972 5.409 1.972 3.019 0 4.955-1.48 4.955-3.813 0-1.517-0.87-2.692-2.123-3.276-1.744-0.808-3.9-0.617-5.447-3.631z"/></g></g><text transform="matrix(1 0 0 -1 110.28 468.39)" fill="black" font-family="Helvetica" font-size="9px"><tspan x="0 6.4980001 11.502 14.499 19.503 24.507" y="0">R3-14b</tspan></text><g clip-path="url(#i)"><g transform="translate(72.296 480.83)"><path d="m0 0c-2.713 0-4.92 2.208-4.92 4.92v86.314c0 2.713 2.207 4.92 4.92 4.92h105.49c2.713 0 4.921-2.207 4.921-4.92v-86.314c0-2.712-2.208-4.92-4.921-4.92z" fill="#fff"/></g><g transform="translate(177.79 577.11)"><path d="m0 0h-105.49c-2.782 0-5.046-2.263-5.046-5.045v-86.314c0-2.782 2.264-5.045 5.046-5.045h105.49c2.782 0 5.045 2.263 5.045 5.045v86.314c0 2.782-2.263 5.045-5.045 5.045m0-0.25c2.648 0 4.795-2.147 4.795-4.795v-86.314c0-2.648-2.147-4.795-4.795-4.795h-105.49c-2.649 0-4.796 2.147-4.796 4.795v86.314c0 2.648 2.147 4.795 4.796 4.795z"/></g><g transform="translate(72.296 482.15)"><path d="m0 0c-1.983 0-3.596 1.613-3.596 3.596v86.314c0 1.983 1.613 3.596 3.596 3.596h105.49c1.983 0 3.597-1.613 3.597-3.596v-86.314c0-1.983-1.614-3.596-3.597-3.596z"/></g><g transform="translate(177.79 573.66)"><path d="m0 0h-81.518v-44.755h-25.575v-43.157c0-0.881 0.717-1.598 1.599-1.598h105.49c0.881 0 1.598 0.717 1.598 1.598v86.314c0 0.881-0.717 1.598-1.598 1.598" fill="#fff"/></g><g transform="translate(74.294 552.28)"><path d="M 0,0 8.392,16.783 16.783,0 8.392,-16.783 Z" fill="#fff"/></g><g transform="translate(76.974 552.28)"><path d="M 0,0 5.711,11.422 11.422,0 5.711,-11.422 Z"/></g><g transform="translate(128.94 518.12)"><path d="m0 0v-10.789l13.799 3.561c0.092 0.023 0.188 0.035 0.287 0.035 0.662 0 1.199-0.537 1.199-1.199 0-0.332-0.136-0.633-0.354-0.85l-18.827-17.132-18.827 17.132c-0.219 0.217-0.354 0.518-0.354 0.85 0 0.662 0.537 1.199 1.199 1.199 0.099 0 0.195-0.012 0.287-0.035l13.799-3.561v10.789z"/></g><g transform="translate(130.06 539.96)"><path d="m0 0v-8.659h-2.017v12.788h2.017l4.667-8.167v8.167h2.02v-12.788h-1.794z"/></g><g transform="translate(139.82 544.09)"><path d="m0 0h2.017v-10.903h5.914v-1.884h-7.931z"/></g><g transform="translate(155.05 531.3)"><path d="m0 0h-2.03v5.564l-4.509 7.223h2.436l3.066-4.936 3.112 4.936h2.389l-4.464-7.223z"/></g><g transform="translate(111.49 559.24)"><path d="m0 0h-4.669v-5.564h-2.017v12.787h2.017v-5.159h4.667v5.159h2.021v-12.787h-2.019z"/></g><g transform="translate(131.12 553.68)"><path d="m0 0-4.052 12.787h2.116l2.746-8.524 2.702 8.524h2.161l-4.097-12.787z"/></g><g transform="translate(152 555.74)"><path d="m0 0h6.282v-2.064h-8.705c0.045 1.48 0.356 2.695 1.077 3.904 2.244 3.75 5.609 3.374 5.609 5.338 0 0.942-1.074 1.706-2.334 1.706-1.301 0-2.11-0.628-2.333-1.795l-2.019 0.449c0.449 2.108 2.108 3.409 4.351 3.409 2.424 0 4.351-1.705 4.351-3.813 0-1.53-0.878-2.504-2.018-3.212-1.721-1.07-3.303-1.544-4.261-3.922"/></g><g transform="translate(167.58 555.74)"><path d="m0 0h-2.02v3.186h-3.277v2.065h3.277v3.184h2.02v-3.184h3.277v-2.065h-3.277z"/></g><g transform="translate(120.89 555.52)"><path d="m0 0c1.378 0 2.497 1.306 2.497 4.555 0 3.25-1.119 4.556-2.497 4.556s-2.497-1.304-2.497-4.556c0-3.249 1.119-4.555 2.497-4.555m4.52 4.555c0-0.458 0.098-6.617-4.542-6.617s-4.543 6.159-4.543 6.617c0 0.459-0.097 6.616 4.543 6.616s4.542-6.157 4.542-6.616"/></g><g transform="translate(120.71 533.14)"><path d="m0 0c1.378 0 2.497 1.306 2.497 4.555 0 3.25-1.119 4.556-2.497 4.556s-2.497-1.305-2.497-4.556c0-3.249 1.119-4.555 2.497-4.555m4.52 4.555c0-0.458 0.098-6.617-4.542-6.617-4.641 0-4.543 6.159-4.543 6.617 0 0.459-0.098 6.616 4.543 6.616 4.64 0 4.542-6.157 4.542-6.616"/></g></g><text transform="matrix(1 0 0 -1 244.97 468.39)" fill="black" font-family="Helvetica" font-size="9px"><tspan x="0 6.4980001 11.502 14.499 19.503 24.507" y="0">R3-14c</tspan></text><g clip-path="url(#h)"><g transform="translate(197.14 480.83)"><path d="m0 0c-5.357 0-9.715 4.358-9.715 9.715v76.724c0 5.357 4.358 9.715 9.715 9.715h124.68c5.358 0 9.716-4.358 9.716-9.715v-76.724c0-5.357-4.358-9.715-9.716-9.715z" fill="#fff"/></g><g transform="translate(321.81 577.11)"><path d="m0 0h-124.68c-5.426 0-9.841-4.414-9.841-9.84v-76.724c0-5.426 4.415-9.84 9.841-9.84h124.68c5.426 0 9.84 4.414 9.84 9.84v76.724c0 5.426-4.414 9.84-9.84 9.84m0-0.25c5.297 0 9.59-4.294 9.59-9.59v-76.724c0-5.296-4.293-9.59-9.59-9.59h-124.68c-5.297 0-9.591 4.294-9.591 9.59v76.724c0 5.296 4.294 9.59 9.591 9.59z"/></g><g transform="translate(197.14 482.15)"><path d="m0 0c-2.242 0-4.349 0.873-5.934 2.458s-2.458 3.692-2.458 5.934v76.723c0 2.241 0.873 4.349 2.458 5.934 1.585 1.584 3.692 2.457 5.934 2.457h124.68c2.242 0 4.349-0.873 5.934-2.457 1.585-1.585 2.458-3.693 2.458-5.934v-76.723c0-2.242-0.873-4.349-2.458-5.934s-3.692-2.458-5.934-2.458z"/></g><g transform="translate(197.14 484.15)"><path d="m0 0c-1.708 0-3.313 0.665-4.521 1.873-1.208 1.207-1.873 2.813-1.873 4.521v76.723c0 1.707 0.665 3.313 1.873 4.521 1.208 1.207 2.813 1.872 4.521 1.872h124.68c1.708 0 3.314-0.665 4.521-1.872 1.208-1.208 1.873-2.814 1.873-4.521v-76.723c0-1.708-0.665-3.314-1.873-4.521-1.207-1.208-2.813-1.873-4.521-1.873z" fill="#fff"/></g><g transform="translate(271.2 507.33)"><path d="m0 0c-0.084 0-0.166-0.01-0.244-0.028h-1e-3l-8.813-2.103v6.926h-5.328v-6.926l-8.813 2.103c-0.078 0.018-0.16 0.028-0.244 0.028-0.589 0-1.066-0.477-1.066-1.066 0-0.321 0.143-0.609 0.368-0.805l12.419-10.916 12.419 10.916h1e-3c0.225 0.196 0.368 0.484 0.368 0.805 0 0.589-0.477 1.066-1.066 1.066"/></g><g transform="translate(204.55 553.65)"><path d="m0 0v-3.5h3.051c1.039 0 1.571 0.493 1.571 1.481s-0.684 2.019-1.729 2.019zm2.963 5.204h-2.963v-3.141h2.57c1.148 0 1.784 1.001 1.784 1.84 0 0.852-0.47 1.301-1.391 1.301m-4.98-10.768v12.787h4.846c2.019 0 3.544-1.39 3.544-3.23 0-1.256-0.582-2.2-1.794-2.873 1.346-0.628 2.108-1.716 2.108-3.094 0-0.911-0.513-3.59-3.858-3.59z"/></g><g transform="translate(213.41 552.66)"><path d="m0 0v8.211h2.017v-8.211c0-1.661 0.943-2.736 2.334-2.736 1.39 0 2.333 1.075 2.333 2.736v8.211h2.02v-8.211c0-4.044-3.102-4.8-4.352-4.8-1.138 0-4.352 0.67-4.352 4.8"/></g><g transform="translate(224.29 551.09)"><path d="m0 0 1.929 0.718c0.539-1.212 1.525-1.885 2.736-1.885 1.167 0 1.976 0.807 1.976 1.885 0 1.71-1.974 1.974-3.635 2.647-0.762 0.315-2.467 1.077-2.467 3.185 0 2.514 1.703 3.453 3.992 3.453 1.795 0 3.007-1.033 3.635-2.603l-1.795-0.538c-0.202 0.505-0.932 1.122-1.885 1.122-1.823 0-1.978-0.974-1.978-1.293 0-1.196 1.031-1.432 2.707-1.958 1.707-0.537 3.489-1.322 3.489-4.063 0-2.761-2.237-3.9-4.039-3.9-2.199 0-3.813 1.301-4.665 3.23"/></g><g transform="translate(235.17 560.87)"><path d="m0 0h7.528v-2.019h-5.511v-3.141h3.719v-2.063h-3.719v-3.501h5.914v-2.063h-7.931z"/></g><g transform="translate(244.38 551.09)"><path d="m0 0 1.929 0.718c0.539-1.212 1.525-1.885 2.737-1.885 1.166 0 1.975 0.807 1.975 1.885 0 1.71-1.974 1.974-3.634 2.647-0.763 0.315-2.468 1.077-2.468 3.185 0 2.514 1.704 3.453 3.992 3.453 1.795 0 3.007-1.033 3.635-2.603l-1.795-0.538c-0.201 0.505-0.932 1.122-1.884 1.122-1.824 0-1.979-0.974-1.979-1.293 0-1.196 1.031-1.432 2.707-1.958 1.707-0.537 3.489-1.322 3.489-4.063 0-2.761-2.237-3.9-4.038-3.9-2.2 0-3.814 1.301-4.666 3.23"/></g><path d="m259.48 555.4h6.394v-2.02h-6.394z"/><g transform="translate(277.22 548.09)"><path d="m0 0h-2.028v10.992h-2.929v1.795h7.931v-1.795h-2.974z"/></g><g transform="translate(285.11 553.74)"><path d="m0 0h2.572l-1.265 3.588zm3.293-2.063h-4.015l-1.265-3.591h-2.165l4.422 12.788h2.032l4.421-12.788h-2.166z"/></g><g transform="translate(297.21 552.35)"><path d="m0 0-2.063-4.263h-2.289l3.185 6.595-2.961 6.192h2.288l1.84-3.813 1.84 3.813h2.289l-3.007-6.192 3.23-6.595h-2.288z"/></g><path d="m303.74 560.87h2.046v-12.787h-2.046z"/><g transform="translate(307.96 551.09)"><path d="m0 0 1.929 0.718c0.539-1.212 1.525-1.885 2.736-1.885 1.167 0 1.976 0.807 1.976 1.885 0 1.71-1.974 1.974-3.635 2.647-0.762 0.315-2.467 1.077-2.467 3.185 0 2.514 1.703 3.453 3.992 3.453 1.795 0 3.007-1.033 3.635-2.603l-1.795-0.538c-0.201 0.505-0.932 1.122-1.885 1.122-1.823 0-1.978-0.974-1.978-1.293 0-1.196 1.031-1.432 2.707-1.958 1.707-0.537 3.489-1.322 3.489-4.063 0-2.761-2.237-3.9-4.039-3.9-2.199 0-3.813 1.301-4.665 3.23"/></g><g transform="translate(198.94 501.86)"><path d="m0 0c0-0.888 0.45-1.543 1.127-1.543s1.127 0.588 1.127 1.429-0.45 1.46-1.127 1.46-1.127-0.589-1.127-1.346m3.38-0.114c0-1.515-0.873-2.55-2.253-2.55-1.466 0-2.225 1.066-2.225 2.889 0 1.92 1.013 3.954 2.758 5.3l0.647-0.897c-0.678-0.505-1.408-1.459-1.691-2.214 0.169 0.022 0.339 0.028 0.508 0.028 1.38 0 2.256-1.04 2.256-2.556"/></g><g transform="translate(205.25 502.64)"><path d="m0 0h1.153l-0.591 2.3zm1.434-1.122h-1.715l-0.534-2.187h-1.153l1.996 7.992h1.126l1.995-7.992h-1.153z"/></g><g transform="translate(213.64 503.82)"><path d="m0 0-1.488-4.487-1.489 4.487v-4.487h-1.151v7.992h1.151l1.489-4.486 1.488 4.486h1.151v-7.992h-1.151z"/></g><path d="m217.19 503.68h3.996v-1.066h-3.996z"/><g transform="translate(224.71 504.97)"><path d="m0 0c0-0.868 0.414-1.402 1.127-1.402 0.677 0 1.127 0.506 1.127 1.291 0 0.905-0.453 1.485-1.127 1.485-0.703 0-1.127-0.533-1.127-1.374m-1.126 2e-3c0 1.512 0.871 2.492 2.253 2.492 1.459 0 2.225-0.974 2.225-2.861 0-1.962-1.012-3.896-2.761-5.269l-0.646 0.896c0.677 0.505 1.407 1.487 1.689 2.243-0.169-0.023-0.338-0.028-0.507-0.028-1.38 0-2.253 0.957-2.253 2.527"/></g><g transform="translate(230.75 502.64)"><path d="m0 0h1.153l-0.59 2.3zm1.434-1.122h-1.715l-0.534-2.187h-1.153l1.996 7.992h1.126l1.995-7.992h-1.153z"/></g><g transform="translate(239.14 503.82)"><path d="m0 0-1.488-4.487-1.489 4.487v-4.487h-1.151v7.992h1.151l1.489-4.486 1.488 4.486h1.151v-7.992h-1.151z"/></g><g transform="translate(282.78 503.82)"><path d="m0 0-1.489-4.487-1.488 4.487v-4.487h-1.151v7.992h1.151l1.488-4.486 1.489 4.486h1.151v-7.992h-1.151z"/></g><g transform="translate(287.89 506.34)"><path d="m0 0c-0.228 0-1.258 0.047-1.258-3.003 0-3.072 1.03-3.025 1.258-3.025s1.257-0.047 1.257 3.025c0 3.05-1.029 3.003-1.257 3.003m-2.359-2.997c0 4.185 1.941 4.118 2.372 4.118s2.346 0.064 2.346-4.121c0-4.215-1.915-4.149-2.346-4.149s-2.372-0.066-2.372 4.152"/></g><g transform="translate(293 504.69)"><path d="m0 0v-5.356h-1.147v7.992h1.147l2.183-4.795v4.795h1.148v-7.992h-0.867z"/></g><path d="m298.72 503.68h3.996v-1.066h-3.996z"/><g transform="translate(306.27 504.19)"><path d="m0 0h1.603v-1.094h-1.603v-3.757h-1.153v7.992h4.078v-1.122h-2.925z"/></g><g transform="translate(311.46 506.2)"><path d="m0 0v-2.019h1.175c0.673 0 1.036 0.365 1.036 1.01 0 0.617-0.42 1.009-1.035 1.009zm1.092-3.113h-1.092v-3.757h-1.147v7.992h2.379c1.253 0 2.099-0.841 2.099-2.131 0-0.953-0.393-1.654-1.148-1.935l1.147-3.926h-1.174z"/></g><path d="m316.15 507.33h1.119v-7.992h-1.119z"/><g transform="translate(236.29 532.12)"><path d="m0 0c0-2.736 1.168-4.351 3.102-4.351 2.428 0 3.013 2.379 3.013 4.351 0 2.716-1.114 4.308-3.013 4.308-1.934 0-3.102-1.616-3.102-4.308m-2.338 0c0 4.082 2.068 6.593 5.44 6.593 3.184 0 5.307-2.627 5.307-6.55 0-3.991-2.052-6.683-5.307-6.683-3.776 0-5.44 3.431-5.44 6.64"/></g><g transform="translate(249.9 534.5)"><path d="m0 0v-8.794h-2.252v12.787h2.251l5.905-8.437v8.437h2.208v-12.787h-1.984z"/></g><g transform="translate(261.33 538.5)"><path d="m0 0h2.297v-10.813h7.293v-1.974h-9.59z"/></g><g transform="translate(279.62 525.71)"><path d="m0 0h-2.287v5.204l-5.383 7.583h2.825l3.723-5.204 3.678 5.204h2.826l-5.382-7.583z"/></g></g><text transform="matrix(1 0 0 -1 376.86 468.39)" fill="black" font-family="Helvetica" font-size="9px"><tspan x="0 6.4980001 11.502 14.499 19.503" y="0">R3-15</tspan></text><g clip-path="url(#g)"><g transform="translate(339.96 480.83)"><path d="m0 0c-2.052 0-3.722 1.669-3.722 3.722v50.349c0 2.052 1.67 3.721 3.722 3.721h98.302c2.052 0 3.72-1.669 3.72-3.721v-50.349c0-2.053-1.668-3.722-3.72-3.722z" fill="#fff"/></g><g transform="translate(438.27 538.75)"><path d="m0 0h-98.302c-2.121 0-3.846-1.726-3.846-3.846v-50.35c0-2.121 1.725-3.846 3.846-3.846h98.302c2.121 0 3.846 1.725 3.846 3.846v50.35c0 2.12-1.725 3.846-3.846 3.846m0-0.25c1.986 0 3.596-1.61 3.596-3.596v-50.35c0-1.986-1.61-3.596-3.596-3.596h-98.302c-1.986 0-3.596 1.61-3.596 3.596v50.35c0 1.986 1.61 3.596 3.596 3.596z"/></g><g transform="translate(439.46 484.55)"><path d="m0 0c0-0.661-0.538-1.199-1.199-1.199h-63.536v52.747h63.536c0.661 0 1.199-0.537 1.199-1.198zm-1.199 52.947h-98.301c-1.433 0-2.598-1.165-2.598-2.597v-50.35c0-1.432 1.165-2.597 2.598-2.597h98.301c1.432 0 2.598 1.165 2.598 2.597v50.35c0 1.432-1.166 2.597-2.598 2.597"/></g><g transform="translate(356.15 528.9)"><path d="m0 0 9.59-19.181-9.59-19.181-9.591 19.181z" fill="#fff" fill-rule="evenodd"/></g><g transform="translate(349.68 509.72)"><path d="M 0,0 6.463,12.926 12.926,0 6.463,-12.926 Z" fill-rule="evenodd"/></g><g transform="translate(389.42 524.69)"><path d="m0 0h-3.502v-4.173h-1.513v9.59h1.513v-3.869h3.501v3.869h1.515v-9.59h-1.514z"/></g><g transform="translate(404.14 520.51)"><path d="m0 0-3.039 9.59h1.587l2.06-6.393 2.026 6.393h1.62l-3.072-9.59z"/></g><g transform="translate(417.4 522.06)"><path d="m0 0h4.711v-1.548h-6.529c0.034 1.11 0.268 2.022 0.809 2.928 1.683 2.812 4.206 2.53 4.206 4.004 0 0.706-0.805 1.279-1.75 1.279-0.976 0-1.582-0.471-1.75-1.346l-1.515 0.337c0.337 1.581 1.582 2.557 3.264 2.557 1.818 0 3.263-1.28 3.263-2.861 0-1.147-0.658-1.877-1.513-2.408-1.291-0.803-2.478-1.158-3.196-2.942"/></g><g transform="translate(427.34 522.06)"><path d="m0 0h-1.515v2.389h-2.458v1.549h2.458v2.388h1.515v-2.388h2.458v-1.549h-2.458z"/></g><g transform="translate(391.65 514.52)"><path d="m0 0h1.513v-8.177h4.435v-1.413h-5.948z"/></g><g transform="translate(401.29 509.17)"><path d="m0 0h1.929l-0.948 2.691zm2.47-1.548h-3.012l-0.948-2.692h-1.624l3.317 9.59h1.523l3.316-9.59h-1.624z"/></g><g transform="translate(409.28 511.42)"><path d="m0 0v-6.494h-1.513v9.59h1.513l3.5-6.124v6.124h1.516v-9.59h-1.347z"/></g><g transform="translate(416.6 514.52)"><path d="m0 0h5.646v-1.514h-4.133v-2.356h2.789v-1.547h-2.789v-2.626h4.435v-1.547h-5.948z"/></g><g transform="translate(389.58 493.58)"><path d="m0 0h1.929l-0.948 2.691zm2.469-1.548h-3.011l-0.948-2.692h-1.624l3.317 9.59h1.523l3.316-9.59h-1.624z"/></g><g transform="translate(401.07 493.52)"><path d="m0 0h-3.502v-4.173h-1.512v9.59h1.512v-3.869h3.501v3.869h1.515v-9.59h-1.514z"/></g><g transform="translate(404.89 498.94)"><path d="m0 0h5.646v-1.514h-4.133v-2.356h2.789v-1.547h-2.789v-2.626h4.435v-1.547h-5.948z"/></g><g transform="translate(414.72 493.58)"><path d="m0 0h1.929l-0.948 2.691zm2.47-1.548h-3.012l-0.948-2.692h-1.624l3.317 9.59h1.523l3.316-9.59h-1.624z"/></g><g transform="translate(424.43 497.42)"><path d="m0 0h-1.717v-6.527h1.61c1.396 0 1.854 1.69 1.854 3.495 0 0.859-0.245 3.032-1.747 3.032m-3.229-8.076v9.59h3.459c2.421 0 3.069-3.187 3.069-4.579 0-3.598-1.85-5.011-3.063-5.011z"/></g><g transform="translate(396.46 521.89)"><path d="m0 0c1.033 0 1.872 0.979 1.872 3.417 0 2.437-0.839 3.416-1.872 3.416s-1.872-0.978-1.872-3.416 0.839-3.417 1.872-3.417m3.39 3.417c0-0.344 0.073-4.963-3.407-4.963s-3.407 4.619-3.407 4.963-0.073 4.961 3.407 4.961 3.407-4.617 3.407-4.961"/></g></g><text transform="matrix(1 0 0 -1 494.4 468.39)" fill="black" font-family="Helvetica" font-size="9px"><tspan x="0 6.4980001 11.502 14.499 19.503 24.507" y="0">R3-15a</tspan></text><g clip-path="url(#f)"><g transform="translate(456.42 480.83)"><path d="m0 0c-5.356 0-9.715 4.358-9.715 9.715v57.543c0 5.357 4.359 9.715 9.715 9.715h105.49c5.358 0 9.716-4.358 9.716-9.715v-57.543c0-5.357-4.358-9.715-9.716-9.715z" fill="#fff"/></g><g transform="translate(561.91 557.93)"><path d="m0 0h-105.49c-5.426 0-9.841-4.414-9.841-9.84v-57.543c0-5.426 4.415-9.84 9.841-9.84h105.49c5.426 0 9.84 4.414 9.84 9.84v57.543c0 5.426-4.414 9.84-9.84 9.84m0-0.25c5.275 0 9.59-4.316 9.59-9.59v-57.543c0-5.275-4.315-9.59-9.59-9.59h-105.49c-5.275 0-9.591 4.315-9.591 9.59v57.543c0 5.274 4.316 9.59 9.591 9.59z"/></g><g transform="translate(456.42 481.95)"><path d="m0 0c-1.154 0-2.275 0.228-3.333 0.677-1.023 0.435-1.942 1.056-2.734 1.848-0.791 0.791-1.413 1.711-1.847 2.733-0.45 1.058-0.677 2.179-0.677 3.333v57.543c0 1.154 0.227 2.275 0.677 3.333 0.434 1.022 1.056 1.942 1.847 2.734 0.792 0.791 1.711 1.413 2.734 1.847 1.058 0.449 2.179 0.677 3.333 0.677h105.49c1.154 0 2.276-0.228 3.333-0.677 1.023-0.434 1.943-1.056 2.734-1.847 0.792-0.792 1.413-1.712 1.848-2.734 0.449-1.058 0.677-2.179 0.677-3.333v-57.543c0-1.154-0.228-2.275-0.677-3.333-0.435-1.022-1.056-1.942-1.848-2.733-0.791-0.792-1.711-1.413-2.734-1.848-1.057-0.449-2.179-0.677-3.333-0.677z"/></g><g transform="translate(568.72 550.95)"><path d="m0 0c-0.374 0.88-0.909 1.672-1.592 2.355-0.682 0.682-1.474 1.217-2.354 1.591-0.909 0.387-1.873 0.582-2.865 0.582h-86.313v-72.327h86.313c0.992 0 1.956 0.195 2.865 0.581 0.88 0.374 1.672 0.91 2.354 1.592 0.683 0.682 1.218 1.475 1.592 2.355 0.386 0.908 0.582 1.872 0.582 2.864v57.543c0 0.992-0.196 1.955-0.582 2.864" fill="#fff"/></g><g transform="translate(461.71 538.5)"><path d="m0 0 9.59-19.181-9.59-19.181-9.591 19.181z" fill="#fff" fill-rule="evenodd"/></g><g transform="translate(455.25 519.31)"><path d="M 0,0 6.463,12.926 12.926,0 6.463,-12.926 Z" fill-rule="evenodd"/></g><g transform="translate(534.17 499.33)"><path d="m0 0c-0.084 0-0.166-0.01-0.244-0.028h-1e-3l-8.813-2.103v6.926h-5.328v-6.926l-8.813 2.103c-0.078 0.018-0.16 0.028-0.244 0.028-0.589 0-1.066-0.477-1.066-1.066 0-0.321 0.143-0.609 0.368-0.805l12.419-10.916 12.419 10.916h1e-3c0.225 0.196 0.368 0.484 0.368 0.805 0 0.589-0.477 1.066-1.066 1.066"/></g><g transform="translate(487 544.27)"><path d="m0 0h-3.502v-4.173h-1.512v9.59h1.512v-3.869h3.501v3.869h1.515v-9.59h-1.514z"/></g><g transform="translate(501.73 540.09)"><path d="m0 0-3.039 9.59h1.587l2.06-6.393 2.026 6.393h1.62l-3.072-9.59z"/></g><g transform="translate(514.19 541.64)"><path d="m0 0h4.711v-1.548h-6.528c0.033 1.111 0.267 2.022 0.808 2.928 1.683 2.812 4.206 2.53 4.206 4.004 0 0.706-0.805 1.279-1.75 1.279-0.976 0-1.582-0.471-1.75-1.346l-1.514 0.337c0.337 1.581 1.581 2.557 3.263 2.557 1.818 0 3.263-1.279 3.263-2.861 0-1.147-0.658-1.877-1.513-2.408-1.291-0.803-2.478-1.158-3.196-2.942"/></g><g transform="translate(524.12 541.64)"><path d="m0 0h-1.515v2.389h-2.458v1.549h2.458v2.388h1.515v-2.388h2.458v-1.549h-2.458z"/></g><g transform="translate(541.39 546.59)"><path d="m0 0v-6.494h-1.513v9.59h1.513l3.5-6.124v6.124h1.516v-9.59h-1.347z"/></g><g transform="translate(548.25 549.68)"><path d="m0 0h1.513v-8.177h4.435v-1.413h-5.948z"/></g><g transform="translate(559.56 540.09)"><path d="m0 0h-1.522v4.173l-3.382 5.417h1.827l2.299-3.702 2.334 3.702h1.792l-3.348-5.417z"/></g><g transform="translate(502.61 529.08)"><path d="m0 0v-2.625h2.288c0.78 0 1.179 0.37 1.179 1.111s-0.513 1.514-1.297 1.514zm2.223 3.903h-2.223v-2.355h1.928c0.86 0 1.338 0.75 1.338 1.379 0 0.639-0.353 0.976-1.043 0.976m-3.736-8.076v9.59h3.635c1.514 0 2.657-1.043 2.657-2.422 0-0.943-0.436-1.65-1.345-2.155 1.01-0.471 1.582-1.287 1.582-2.32 0-0.684-0.385-2.693-2.894-2.693z"/></g><g transform="translate(509.25 534.5)"><path d="m0 0h5.646v-1.514h-4.133v-2.356h2.789v-1.547h-2.789v-2.626h4.435v-1.547h-5.948z"/></g><g transform="translate(520.12 534.67)"><path d="m0 0c1.537 0 2.402-0.583 3.052-2.119l-1.447-0.571c-0.404 0.841-0.807 1.144-1.547 1.144-2.108 0-1.987-3.208-1.987-3.433 0-0.36-0.081-3.398 1.784-3.398 0.976 0 1.683 0.605 1.683 1.48v0.403h-1.75v1.515h3.263v-1.918c0-1.749-1.278-3.028-3.029-3.028-0.348 0-3.498-0.286-3.498 4.963 0 0.735 0.04 4.962 3.476 4.962"/></g><path d="m525.28 534.5h1.534v-9.59h-1.534z"/><g transform="translate(530.63 531.4)"><path d="m0 0v-6.494h-1.513v9.59h1.513l3.5-6.124v6.124h1.516v-9.59h-1.347z"/></g><g transform="translate(537.28 527.16)"><path d="m0 0 1.447 0.538c0.404-0.908 1.144-1.413 2.052-1.413 0.875 0 1.482 0.605 1.482 1.413 0 1.283-1.481 1.481-2.726 1.985-0.572 0.237-1.851 0.808-1.851 2.39 0 1.885 1.278 2.589 2.994 2.589 1.347 0 2.255-0.774 2.727-1.952l-1.347-0.404c-0.151 0.379-0.699 0.842-1.413 0.842-1.368 0-1.484-0.73-1.484-0.97 0-0.896 0.773-1.074 2.031-1.468 1.28-0.403 2.617-0.992 2.617-3.048 0-2.07-1.679-2.925-3.03-2.925-1.649 0-2.86 0.976-3.499 2.423"/></g><g transform="translate(503.84 517.5)"><path d="m0 0h-0.866v1.212h0.1c0.399 0 0.833 0.235 1.099 0.605h1.199v-9.59h-1.532z"/></g><g transform="translate(520.93 515.28)"><path d="m0 0-2.224-5.553-2.226 5.553v-5.553h-1.518v9.591h1.518l2.226-5.384 2.224 5.384h1.518v-9.591h-1.518z"/></g><path d="m524.75 519.31h1.534v-9.59h-1.534z"/><g transform="translate(528.59 519.31)"><path d="m0 0h1.513v-8.177h4.435v-1.413h-5.948z"/></g><g transform="translate(535.97 519.31)"><path d="m0 0h5.646v-1.514h-4.133v-2.356h2.789v-1.547h-2.789v-2.626h4.435v-1.547h-5.948z"/></g><g transform="translate(494.05 541.47)"><path d="m0 0c1.033 0 1.873 0.979 1.873 3.417 0 2.437-0.84 3.416-1.873 3.416s-1.872-0.978-1.872-3.416 0.839-3.417 1.872-3.417m3.39 3.417c0-0.344 0.073-4.963-3.407-4.963s-3.407 4.619-3.407 4.963-0.073 4.961 3.407 4.961 3.407-4.617 3.407-4.961"/></g><g transform="translate(534.8 541.47)"><path d="m0 0c1.033 0 1.873 0.979 1.873 3.417 0 2.437-0.84 3.416-1.873 3.416s-1.872-0.978-1.872-3.416 0.839-3.417 1.872-3.417m3.39 3.417c0-0.344 0.073-4.963-3.407-4.963s-3.407 4.619-3.407 4.963-0.073 4.961 3.407 4.961 3.407-4.617 3.407-4.961"/></g></g><text transform="matrix(1 0 0 -1 146.61 385.74)" fill="black" font-family="Helvetica" font-size="9px"><tspan x="0 6.4980001 11.502 14.499 19.503 24.507" y="0">R3-15b</tspan></text><g clip-path="url(#e)"><g transform="translate(112.21 398.35)"><path d="m0 0c-2.052 0-3.721 1.669-3.721 3.721v50.35c0 2.052 1.669 3.721 3.721 3.721h98.302c2.052 0 3.721-1.669 3.721-3.721v-50.35c0-2.052-1.669-3.721-3.721-3.721z" fill="#fff"/></g><g transform="translate(210.51 456.27)"><path d="m0 0h-98.302c-2.12 0-3.846-1.725-3.846-3.846v-50.35c0-2.121 1.726-3.846 3.846-3.846h98.302c2.121 0 3.846 1.725 3.846 3.846v50.35c0 2.121-1.725 3.846-3.846 3.846m0-0.25c1.986 0 3.596-1.61 3.596-3.596v-50.35c0-1.986-1.61-3.596-3.596-3.596h-98.302c-1.986 0-3.596 1.61-3.596 3.596v50.35c0 1.986 1.61 3.596 3.596 3.596z"/></g><g transform="translate(211.71 402.08)"><path d="m0 0c0-0.661-0.538-1.199-1.199-1.199h-63.536v52.747h63.536c0.661 0 1.199-0.537 1.199-1.198zm-1.199 52.947h-98.301c-1.433 0-2.598-1.165-2.598-2.597v-50.35c0-1.432 1.165-2.597 2.598-2.597h98.301c1.432 0 2.598 1.165 2.598 2.597v50.35c0 1.432-1.166 2.597-2.598 2.597"/></g><g transform="translate(128.4 446.43)"><path d="m0 0 9.59-19.181-9.59-19.181-9.591 19.181z" fill="#fff" fill-rule="evenodd"/></g><g transform="translate(121.93 427.25)"><path d="M 0,0 6.463,12.926 12.926,0 6.463,-12.926 Z" fill-rule="evenodd"/></g><g transform="translate(163.9 432.05)"><path d="m0 0h1.513v-8.177h4.435v-1.413h-5.948z"/></g><g transform="translate(173.54 426.7)"><path d="m0 0h1.929l-0.948 2.691zm2.469-1.548h-3.011l-0.948-2.692h-1.624l3.317 9.59h1.523l3.316-9.59h-1.624z"/></g><g transform="translate(181.53 428.95)"><path d="m0 0v-6.494h-1.513v9.59h1.513l3.5-6.124v6.124h1.516v-9.59h-1.347z"/></g><g transform="translate(188.85 432.05)"><path d="m0 0h5.646v-1.514h-4.133v-2.356h2.789v-1.547h-2.789v-2.626h4.435v-1.547h-5.948z"/></g><g transform="translate(163.89 416.46)"><path d="m0 0h5.646v-1.514h-4.133v-2.356h2.789v-1.547h-2.789v-2.626h4.435v-1.547h-5.948z"/></g><g transform="translate(172.99 413.37)"><path d="m0 0v-6.494h-1.513v9.59h1.513l3.5-6.124v6.124h1.516v-9.59h-1.347z"/></g><g transform="translate(183.53 414.95)"><path d="m0 0h-1.717v-6.527h1.61c1.396 0 1.854 1.69 1.854 3.495 0 0.859-0.245 3.032-1.747 3.032m-3.229-8.076v9.59h3.459c2.42 0 3.069-3.187 3.069-4.579 0-3.598-1.85-5.011-3.063-5.011z"/></g><g transform="translate(188.27 409.13)"><path d="m0 0 1.447 0.538c0.404-0.908 1.143-1.413 2.052-1.413 0.875 0 1.482 0.605 1.482 1.413 0 1.283-1.481 1.481-2.726 1.985-0.572 0.237-1.851 0.808-1.851 2.39 0 1.885 1.278 2.589 2.994 2.589 1.347 0 2.255-0.774 2.726-1.952l-1.346-0.404c-0.151 0.379-0.699 0.842-1.413 0.842-1.368 0-1.484-0.73-1.484-0.97 0-0.897 0.773-1.074 2.03-1.468 1.281-0.403 2.617-0.992 2.617-3.048 0-2.07-1.678-2.925-3.029-2.925-1.649 0-2.86 0.976-3.499 2.423"/></g><g transform="translate(172.37 442.21)"><path d="m0 0h-3.502v-4.173h-1.512v9.59h1.512v-3.869h3.501v3.869h1.515v-9.59h-1.514z"/></g><g transform="translate(187.09 438.04)"><path d="m0 0-3.039 9.59h1.587l2.06-6.393 2.026 6.393h1.621l-3.073-9.59z"/></g><g transform="translate(179.41 439.42)"><path d="m0 0c1.033 0 1.872 0.98 1.872 3.417s-0.839 3.416-1.872 3.416-1.872-0.978-1.872-3.416c0-2.437 0.839-3.417 1.872-3.417m3.39 3.417c0-0.344 0.073-4.963-3.407-4.963s-3.407 4.619-3.407 4.963-0.073 4.961 3.407 4.961 3.407-4.617 3.407-4.961"/></g></g><text transform="matrix(1 0 0 -1 275.82 385.74)" fill="black" font-family="Helvetica" font-size="9px"><tspan x="0 6.4980001 11.502 14.499 19.503 24.507" y="0">R3-15c</tspan></text><g clip-path="url(#d)"><g transform="translate(241.17 398.35)"><path d="m0 0c-2.052 0-3.722 1.669-3.722 3.721v50.35c0 2.052 1.67 3.721 3.722 3.721h98.301c2.052 0 3.722-1.669 3.722-3.721v-50.35c0-2.052-1.67-3.721-3.722-3.721z" fill="#fff"/></g><g transform="translate(339.47 456.27)"><path d="m0 0h-98.301c-2.121 0-3.847-1.725-3.847-3.846v-50.35c0-2.121 1.726-3.846 3.847-3.846h98.301c2.121 0 3.846 1.725 3.846 3.846v50.35c0 2.121-1.725 3.846-3.846 3.846m0-0.25c1.986 0 3.596-1.61 3.596-3.596v-50.35c0-1.986-1.61-3.596-3.596-3.596h-98.301c-1.987 0-3.597 1.61-3.597 3.596v50.35c0 1.986 1.61 3.596 3.597 3.596z"/></g><g transform="translate(250.79 427.25)"><path d="M 0,0 6.463,-12.926 12.926,0 6.463,12.926 Z"/></g><g transform="translate(340.67 402.08)"><path d="m0 0c0-0.331-0.134-0.63-0.351-0.847s-0.517-0.352-0.848-0.352h-63.536v52.747h63.536c0.331 0 0.631-0.134 0.848-0.351s0.351-0.517 0.351-0.847v-25.175zm-83.416 5.994-9.591 19.181 9.591 19.181 9.59-19.181zm82.217 46.953h-98.301c-1.432 0-2.598-1.165-2.598-2.597v-50.35c0-1.432 1.166-2.597 2.598-2.597h98.301c1.433 0 2.598 1.165 2.598 2.597v50.35c0 1.432-1.165 2.597-2.598 2.597"/></g><g transform="translate(301.32 442.21)"><path d="m0 0h-3.502v-4.173h-1.512v9.59h1.512v-3.869h3.501v3.869h1.515v-9.59h-1.514z"/></g><g transform="translate(316.05 438.04)"><path d="m0 0-3.039 9.59h1.587l2.06-6.393 2.026 6.393h1.62l-3.072-9.59z"/></g><g transform="translate(280.28 430.7)"><path d="m0 0v-2.423h1.41c0.808 0 1.243 0.438 1.243 1.212 0 0.741-0.504 1.211-1.242 1.211zm1.31-3.735h-1.31v-4.509h-1.376v9.59h2.854c1.505 0 2.519-1.009 2.519-2.557 0-1.143-0.471-1.985-1.378-2.322l1.377-4.711h-1.409z"/></g><g transform="translate(285.25 432.05)"><path d="m0 0h4.522v-1.346h-3.139v-2.423h1.99v-1.313h-1.99v-3.163h3.51v-1.345h-4.893z"/></g><g transform="translate(293.59 428.55)"><path d="m0 0c1.049-0.658 2.622-1.58 2.622-3.473 0-1.552-1.183-2.792-2.67-2.792-1.689 0-2.703 1.429-2.703 2.995h1.352c0-0.817 0.405-1.65 1.351-1.65 0.743 0 1.351 0.673 1.351 1.447 0 2.085-3.581 1.965-3.581 4.644 0 1.38 1.082 2.489 2.466 2.489 1.352 0 2.4-1.043 2.434-2.49h-1.319c-0.033 0.673-0.507 1.11-1.115 1.11-0.642 0-1.148-0.47-1.148-1.109 0-0.623 0.331-0.777 0.96-1.171"/></g><g transform="translate(299.86 422.46)"><path d="m0 0h-1.383v8.311h-1.755v1.279h4.893v-1.279h-1.755z"/></g><g transform="translate(303.8 430.7)"><path d="m0 0v-2.423h1.41c0.808 0 1.243 0.438 1.243 1.212 0 0.741-0.504 1.211-1.242 1.211zm1.31-3.735h-1.31v-4.509h-1.376v9.59h2.854c1.504 0 2.519-1.009 2.519-2.557 0-1.143-0.472-1.985-1.378-2.322l1.376-4.711h-1.408z"/></g><path d="m308.78 432.05h1.343v-9.59h-1.343z"/><g transform="translate(315.26 429.49)"><path d="m0 0c-0.133 0.942-0.506 1.38-1.148 1.38-1.115 0-1.522-0.875-1.522-3.364 0-2.76 0.474-3.87 1.657-3.87 0.812 0 1.013 0.674 1.013 1.38h1.386c-0.034-1.581-1.047-2.726-2.399-2.726-2.061 0-2.974 1.648-2.974 5.182 0 3.095 0.979 4.742 2.872 4.742 1.758 0 2.454-1.603 2.501-2.724z"/></g><g transform="translate(320.47 422.46)"><path d="m0 0h-1.383v8.311h-1.755v1.279h4.893v-1.279h-1.755z"/></g><path d="m323.03 432.05h1.343v-9.59h-1.343z"/><g transform="translate(328.36 430.87)"><path d="m0 0c-0.273 0-1.509 0.056-1.509-3.604 0-3.686 1.236-3.629 1.509-3.629s1.508-0.057 1.508 3.629c0 3.66-1.235 3.604-1.508 3.604m-2.83-3.596c0 5.021 2.329 4.941 2.846 4.941 0.516 0 2.814 0.077 2.814-4.945 0-5.058-2.298-4.979-2.814-4.979-0.517 0-2.846-0.079-2.846 4.983"/></g><g transform="translate(333.71 428.88)"><path d="m0 0v-6.427h-1.376v9.591h1.376l2.619-5.755v5.755h1.378v-9.591h-1.041z"/></g><g transform="translate(292.85 416.46)"><path d="m0 0h5.646v-1.514h-4.133v-2.356h2.789v-1.547h-2.789v-2.626h4.435v-1.547h-5.948z"/></g><g transform="translate(301.94 413.37)"><path d="m0 0v-6.494h-1.513v9.59h1.513l3.5-6.124v6.124h1.515v-9.59h-1.346z"/></g><g transform="translate(312.49 414.95)"><path d="m0 0h-1.717v-6.527h1.61c1.396 0 1.853 1.69 1.853 3.495 0 0.859-0.244 3.032-1.746 3.032m-3.23-8.076v9.59h3.46c2.42 0 3.069-3.187 3.069-4.579 0-3.598-1.85-5.011-3.063-5.011z"/></g><g transform="translate(317.23 409.13)"><path d="m0 0 1.447 0.538c0.404-0.908 1.144-1.413 2.052-1.413 0.875 0 1.482 0.605 1.482 1.413 0 1.283-1.481 1.481-2.726 1.985-0.572 0.237-1.851 0.808-1.851 2.39 0 1.885 1.278 2.589 2.994 2.589 1.347 0 2.255-0.774 2.726-1.952l-1.346-0.404c-0.151 0.379-0.699 0.842-1.413 0.842-1.368 0-1.484-0.73-1.484-0.97 0-0.897 0.773-1.074 2.03-1.468 1.281-0.403 2.617-0.992 2.617-3.048 0-2.07-1.678-2.925-3.029-2.925-1.649 0-2.86 0.976-3.499 2.423"/></g><g transform="translate(308.37 439.42)"><path d="m0 0c1.033 0 1.873 0.98 1.873 3.417s-0.84 3.416-1.873 3.416-1.872-0.978-1.872-3.416c0-2.437 0.839-3.417 1.872-3.417m3.39 3.417c0-0.344 0.073-4.963-3.407-4.963s-3.407 4.619-3.407 4.963-0.073 4.961 3.407 4.961 3.407-4.617 3.407-4.961"/></g></g><text transform="matrix(1 0 0 -1 386.87 385.74)" fill="black" font-family="Helvetica" font-size="9px"><tspan x="0 6.4980001 11.502 14.499 19.503 24.507" y="0">R3-15d</tspan></text><g clip-path="url(#c)"><g transform="translate(369.94 398.35)"><path d="m0 0c-2.052 0-3.722 1.669-3.722 3.721v50.35c0 2.052 1.67 3.721 3.722 3.721h59.939c2.052 0 3.722-1.669 3.722-3.721v-50.35c0-2.052-1.67-3.721-3.722-3.721z" fill="#fff"/></g><g transform="translate(429.88 456.27)"><path d="m0 0h-59.94c-2.121 0-3.846-1.725-3.846-3.846v-50.35c0-2.121 1.725-3.846 3.846-3.846h59.94c2.121 0 3.846 1.725 3.846 3.846v50.35c0 2.121-1.725 3.846-3.846 3.846m0-0.25c1.986 0 3.596-1.61 3.596-3.596v-50.35c0-1.986-1.61-3.596-3.596-3.596h-59.94c-1.986 0-3.596 1.61-3.596 3.596v50.35c0 1.986 1.61 3.596 3.596 3.596z"/></g><g transform="translate(369.94 399.48)"><path d="m0 0c-1.432 0-2.597 1.165-2.597 2.597v50.35c0 1.432 1.165 2.597 2.597 2.597h59.94c1.432 0 2.597-1.165 2.597-2.597v-50.35c0-1.432-1.165-2.597-2.597-2.597z"/></g><g transform="translate(369.94 400.88)"><path d="m0 0c-0.661 0-1.199 0.538-1.199 1.199v50.349c0 0.661 0.538 1.199 1.199 1.199h59.94c0.661 0 1.199-0.538 1.199-1.199v-50.349c0-0.661-0.538-1.199-1.199-1.199z" fill="#fff"/></g><g transform="translate(390 442.21)"><path d="m0 0v-2.625h2.289c0.779 0 1.178 0.37 1.178 1.111s-0.513 1.514-1.297 1.514zm2.223 3.903h-2.223v-2.355h1.928c0.86 0 1.338 0.75 1.338 1.379 0 0.639-0.353 0.976-1.043 0.976m-3.736-8.076v9.59h3.635c1.514 0 2.658-1.043 2.658-2.422 0-0.943-0.437-1.65-1.345-2.155 1.009-0.471 1.581-1.287 1.581-2.32 0-0.684-0.385-2.693-2.894-2.693z"/></g><g transform="translate(396.65 441.47)"><path d="m0 0v6.158h1.513v-6.158c0-1.246 0.707-2.052 1.75-2.052s1.75 0.806 1.75 2.052v6.158h1.516v-6.158c0-3.033-2.327-3.6-3.265-3.6-0.853 0-3.264 0.502-3.264 3.6"/></g><g transform="translate(404.8 440.3)"><path d="m0 0 1.447 0.538c0.404-0.909 1.144-1.413 2.052-1.413 0.875 0 1.482 0.605 1.482 1.413 0 1.283-1.481 1.481-2.726 1.985-0.572 0.237-1.851 0.808-1.851 2.39 0 1.885 1.278 2.589 2.995 2.589 1.346 0 2.255-0.774 2.726-1.952l-1.347-0.404c-0.151 0.379-0.699 0.842-1.413 0.842-1.368 0-1.484-0.73-1.484-0.97 0-0.897 0.773-1.074 2.031-1.468 1.28-0.403 2.617-0.992 2.617-3.048 0-2.07-1.679-2.925-3.03-2.925-1.649 0-2.86 0.976-3.499 2.423"/></g><g transform="translate(384.46 432.05)"><path d="m0 0h1.513v-8.177h4.435v-1.413h-5.948z"/></g><g transform="translate(394.1 426.7)"><path d="m0 0h1.929l-0.948 2.691zm2.47-1.548h-3.012l-0.948-2.692h-1.624l3.317 9.59h1.523l3.316-9.59h-1.624z"/></g><g transform="translate(402.09 428.95)"><path d="m0 0v-6.494h-1.513v9.59h1.513l3.5-6.124v6.124h1.516v-9.59h-1.347z"/></g><g transform="translate(409.41 432.05)"><path d="m0 0h5.646v-1.514h-4.133v-2.356h2.789v-1.547h-2.789v-2.626h4.435v-1.547h-5.948z"/></g><g transform="translate(382.39 411.11)"><path d="m0 0h1.929l-0.949 2.691zm2.469-1.548h-3.011l-0.948-2.692h-1.625l3.318 9.59h1.523l3.316-9.59h-1.624z"/></g><g transform="translate(393.89 411.04)"><path d="m0 0h-3.502v-4.173h-1.512v9.59h1.512v-3.869h3.501v3.869h1.515v-9.59h-1.514z"/></g><g transform="translate(397.7 416.46)"><path d="m0 0h5.646v-1.514h-4.133v-2.356h2.789v-1.547h-2.789v-2.626h4.435v-1.547h-5.948z"/></g><g transform="translate(407.53 411.11)"><path d="m0 0h1.929l-0.948 2.691zm2.469-1.548h-3.011l-0.948-2.692h-1.624l3.317 9.59h1.523l3.316-9.59h-1.624z"/></g><g transform="translate(417.24 414.95)"><path d="m0 0h-1.717v-6.527h1.61c1.396 0 1.854 1.69 1.854 3.495 0 0.859-0.245 3.032-1.747 3.032m-3.23-8.076v9.59h3.46c2.42 0 3.069-3.188 3.069-4.579 0-3.598-1.85-5.011-3.063-5.011z"/></g></g><text transform="matrix(1 0 0 -1 480.53 385.74)" fill="black" font-family="Helvetica" font-size="9px"><tspan x="0 6.4980001 11.502 14.499 19.503 24.507" y="0">R3-15e</tspan></text><g clip-path="url(#b)"><g transform="translate(465.31 398.35)"><path d="m0 0c-2.052 0-3.722 1.669-3.722 3.721v50.35c0 2.052 1.67 3.721 3.722 3.721h59.939c2.052 0 3.722-1.669 3.722-3.721v-50.35c0-2.052-1.67-3.721-3.722-3.721z" fill="#fff"/></g><g transform="translate(525.25 456.27)"><path d="m0 0h-59.94c-2.121 0-3.846-1.725-3.846-3.846v-50.35c0-2.121 1.725-3.846 3.846-3.846h59.94c2.121 0 3.846 1.725 3.846 3.846v50.35c0 2.121-1.725 3.846-3.846 3.846m0-0.25c1.986 0 3.596-1.61 3.596-3.596v-50.35c0-1.986-1.61-3.596-3.596-3.596h-59.94c-1.986 0-3.596 1.61-3.596 3.596v50.35c0 1.986 1.61 3.596 3.596 3.596z"/></g><g transform="translate(465.31 399.48)"><path d="m0 0c-1.432 0-2.597 1.165-2.597 2.597v50.35c0 1.432 1.165 2.597 2.597 2.597h59.94c1.432 0 2.597-1.165 2.597-2.597v-50.35c0-1.432-1.165-2.597-2.597-2.597z"/></g><g transform="translate(465.31 400.88)"><path d="m0 0c-0.661 0-1.199 0.538-1.199 1.199v50.349c0 0.661 0.538 1.199 1.199 1.199h59.94c0.661 0 1.199-0.538 1.199-1.199v-50.349c0-0.661-0.538-1.199-1.199-1.199z" fill="#fff"/></g><g transform="translate(485.37 442.21)"><path d="m0 0v-2.625h2.289c0.779 0 1.178 0.37 1.178 1.111s-0.513 1.514-1.297 1.514zm2.223 3.903h-2.223v-2.355h1.928c0.86 0 1.338 0.75 1.338 1.379 0 0.639-0.353 0.976-1.043 0.976m-3.736-8.076v9.59h3.635c1.514 0 2.658-1.043 2.658-2.422 0-0.943-0.437-1.65-1.345-2.155 1.009-0.471 1.581-1.287 1.581-2.32 0-0.684-0.385-2.693-2.894-2.693z"/></g><g transform="translate(492.02 441.47)"><path d="m0 0v6.158h1.513v-6.158c0-1.246 0.707-2.052 1.75-2.052s1.75 0.806 1.75 2.052v6.158h1.516v-6.158c0-3.033-2.327-3.6-3.265-3.6-0.853 0-3.264 0.502-3.264 3.6"/></g><g transform="translate(500.18 440.3)"><path d="m0 0 1.447 0.538c0.404-0.909 1.144-1.413 2.052-1.413 0.875 0 1.482 0.605 1.482 1.413 0 1.283-1.48 1.481-2.726 1.985-0.572 0.237-1.851 0.808-1.851 2.39 0 1.885 1.278 2.589 2.995 2.589 1.346 0 2.255-0.774 2.726-1.952l-1.347-0.404c-0.151 0.379-0.699 0.842-1.413 0.842-1.368 0-1.484-0.73-1.484-0.97 0-0.897 0.773-1.074 2.031-1.468 1.28-0.403 2.617-0.992 2.617-3.048 0-2.07-1.679-2.925-3.03-2.925-1.649 0-2.86 0.976-3.499 2.423"/></g><g transform="translate(479.83 432.05)"><path d="m0 0h1.513v-8.177h4.435v-1.413h-5.948z"/></g><g transform="translate(489.47 426.7)"><path d="m0 0h1.929l-0.948 2.691zm2.47-1.548h-3.012l-0.948-2.692h-1.624l3.317 9.59h1.523l3.316-9.59h-1.624z"/></g><g transform="translate(497.47 428.95)"><path d="m0 0v-6.494h-1.513v9.59h1.513l3.5-6.124v6.124h1.516v-9.59h-1.347z"/></g><g transform="translate(504.78 432.05)"><path d="m0 0h5.646v-1.514h-4.133v-2.356h2.789v-1.547h-2.789v-2.626h4.435v-1.547h-5.948z"/></g><g transform="translate(479.83 416.46)"><path d="m0 0h5.646v-1.514h-4.133v-2.356h2.789v-1.547h-2.789v-2.626h4.435v-1.547h-5.948z"/></g><g transform="translate(488.92 413.37)"><path d="m0 0v-6.494h-1.513v9.59h1.513l3.5-6.124v6.124h1.516v-9.59h-1.347z"/></g><g transform="translate(499.47 414.95)"><path d="m0 0h-1.717v-6.527h1.61c1.396 0 1.853 1.69 1.853 3.495 0 0.859-0.244 3.032-1.746 3.032m-3.229-8.076v9.59h3.459c2.42 0 3.069-3.188 3.069-4.579 0-3.598-1.85-5.011-3.063-5.011z"/></g><g transform="translate(504.21 409.13)"><path d="m0 0 1.447 0.538c0.404-0.908 1.143-1.413 2.052-1.413 0.875 0 1.482 0.605 1.482 1.413 0 1.283-1.481 1.481-2.726 1.985-0.572 0.237-1.851 0.808-1.851 2.39 0 1.885 1.278 2.589 2.994 2.589 1.347 0 2.255-0.774 2.726-1.952l-1.346-0.404c-0.151 0.379-0.699 0.842-1.413 0.842-1.368 0-1.484-0.73-1.484-0.97 0-0.897 0.773-1.074 2.03-1.468 1.281-0.403 2.617-0.992 2.617-3.048 0-2.07-1.678-2.925-3.029-2.925-1.649 0-2.86 0.976-3.499 2.423"/></g></g><text transform="matrix(1 0 0 -1 121.64 220)" fill="black" font-family="Helvetica" font-size="8px"><tspan x="0 5.776 10.224 12.448 16.896 20.896" y="0">Notes:</tspan><tspan x="0 5.7119999 10.16 12.384 18 22.888 27.336 31.784 34.007999 40.672001 42.448002 46.896 48.672001 55.335999 59.784 66.447998 68.671997 72.671997 77.120003 81.568001 83.344002 87.344002 89.120003 93.568001 95.792 100.24 104.24 108.24 112.688 117.136 121.584 126.032 130.032 134.032 136.256 138.92 143.368 147.81599 152.26401 154.03999 156.70399 161.15199 167.81599 172.26401 176.71201 178.936 181.16 187.82401 192.272 196.272 198.496 202.496 206.944 209.608 213.608 215.832 218.056 222.504 225.168 227.392 231.84 236.28799 240.28799 244.73599 246.96001 249.18401 253.65199 257.65201 259.42801 261.20401 262.98001 265.20401 269.20401 271.42801 274.09201 278.09201 282.54001 286.54001 290.98801 293.21201 297.66 301.66 303.884 308.332 313.004 315.228 317.452 321.89999 326.57199 328.79599 331.01999 335.46799 340.14001 342.80399 345.02802" y="11.496"> 1. The minimum vehicle occupancy requirement may vary for each facility (such as 2+, 3+, 4+). </tspan><tspan x="5.7119999 10.16 12.384 18 22.888 27.336 31.784 34.007999 38.456001 42.456001 46.456001 50.903999 55.352001 59.799999 64.248001 68.248001 72.248001 74.472 77.136002 81.584 86.031998 90.480003 92.255997 94.919998 99.367996 106.032 110.48 114.928 117.152 119.376 126.04 130.48801 134.48801 136.71201 141.16 145.608 147.832 152.28 156.728 161.17599 165.62399 170.07201 172.29601 174.52 178.968 181.192 183.416 187.864 192.312 194.536 196.75999 198.536 201.2 205.2 207.424 209.64799 211.424 213.2 217.64799 222.09599 224.32001 228.76801 230.992 233.216 235.44 239.888 244.336 246.56 252.336 256.79999 259.46399 263.91199 268.35999 272.80801 275.03201 279.48001 283.92801 288.37601 290.60001 296.37601 300.82401 303.48801 307.936 312.384 316.384 318.608 322.608 324.384 328.832 333.28 337.28 339.504" y="22.992001">2. The occupancy requirement may be added to the first line of the R3-15b and R3-15c signs. </tspan><tspan x="5.7119999 10.16 12.384 18 23.336 27.784 34.448002 38.896 41.119999 45.568001 47.792 50.015999 52.240002 56.688 61.136002 63.360001 65.136002 69.584 74.031998 78.480003 82.928001 87.375999 91.375999 93.599998 97.599998 102.048 106.496 112.272 116.72 118.944 123.392 127.84 130.064 132.28799 136.73599 141.18401 145.18401 149.632 151.856 155.856 157.632 162.08 166.528 170.528 172.752 177.2 179.864 184.312 186.536 188.75999 193.20799 195.87199 198.09599 202.54401 206.54401 210.992 217.65601 222.104 223.88 228.328 230.552 235 239.448 242.112 246.56 251.008 255.0304 259.47839 263.47839 265.70239 270.15039 274.59839 276.37439 279.7872 282.0112 284.09201 288.98001 293.42801 297.87601 300.10001 304.10001 308.548 312.996 316.996 318.772 320.996 322.772 326.772 328.996 330.772 335.22 339.668 344.116 348.564 353.01199 355.23599 357.45999 361.90799 364.57199 366.79599 371.24399" y="34.487999">3. Some of the legends shown on these signs are for example purposes only. The specific legend for a </tspan><tspan x="18 22.448 26.896 29.559999 31.784 33.560001 37.560001 42.007999 43.784 48.231998 50.896 53.119999 57.568001 62.015999 66.463997 68.239998 70.015999 74.015999 78.463997 80.688004 82.463997 86.912003 91.360001 93.584 97.584 102.032 106.48 110.928 112.704 117.152 119.376 123.824 128.272 130.496 134.944 139.392 143.392 147.84 152.28799 154.51199 158.96001 163.408 167.856 172.304 174.528 176.304 180.752 184.752 189.2 190.976 193.2 197.2 201.64799 206.09599 210.54401 212.32001 214.54401 216.32001 220.76801 225.216 229.216 231.44 233.664 238.112 240.776 245.224 247 251.448 255.9384 260.38641 264.38641 268.83441 272.83441 275.05841 277.28241 281.73041 286.17841 290.6264 292.8504 298.1864 300.4104 304.8584 307.0824 311.5304 313.75439 317.75439 319.97839 324.42639 326.65039 331.09839 333.32239 337.77039 341.77039 343.99438" y="42.984001">particular application should be based upon local conditions, ordinances, and State statutes. </tspan></text><g clip-path="url(#a)"><text transform="matrix(1 0 0 -1 127.35 165.52)" fill="black" font-family="Helvetica" font-size="8px"><tspan x="0 4.448 6.6719999 12.288 19.84 24.288 28.736 31.4 35.848 38.071999 42.071999 46.52 48.604 50.827999 52.604 56.604 58.380001 62.827999 67.276001 69.5 71.723999 78.388 82.835999 87.283997 89.059998 93.508003 97.956001 100.18 105.956 107.732 112.18 114.404 118.852 121.076 122.852 126.852 129.076 133.524 137.524 141.972 143.748 145.524 149.972 154.42 156.196 160.644 162.868 165.092 167.31599 171.76401 176.21201 178.436 184.21201 188.66 191.32401 195.772 200.22 202.444 206.444 210.892 213.556 215.332 219.78 223.78 226.004 230.452 234.89999 239.34801 241.57201 247.34801 251.8224 254.4864 258.93439 263.38239 265.60641 269.60641 274.05441 276.71841 278.49438 282.94241 286.94241 289.16641 293.16641 294.94241 299.39041 303.83841 307.83841 310.06241 316.72641 321.17441 325.17441 327.39841 331.84641 336.2944 338.5184 342.9664 347.4144 351.4144 353.6384 356.3024 362.9664 367.4144 371.8624 376.31039 378.53439 382.98239 387.43039" y="0">4. Where sufficient median width is available, the R3-13 series and R3-15 series signs may be post-mounted.</tspan></text></g></g></svg>
