<?xml version="1.0" encoding="UTF-8"?>
<svg width="670.56" height="752.42" version="1.1" viewBox="0 0 670.56 752.42" xml:space="preserve" xmlns="http://www.w3.org/2000/svg"><defs><clipPath id="e"><path d="m64.678 140.22h506.64v602.78h-506.64z"/></clipPath><clipPath id="d"><path d="m64.678 140.22h506.64v602.78h-506.64z"/></clipPath><clipPath id="c"><path d="m64.678 140.22h506.64v602.78h-506.64z"/></clipPath><clipPath id="b"><path d="m64.678 140.22h506.64v602.78h-506.64z"/></clipPath><clipPath id="a"><path d="m64.678 140.22h506.64v602.78h-506.64z"/></clipPath></defs><g transform="matrix(1.3333 0 0 -1.3333 -91.201 955.78)"><g clip-path="url(#e)"><g transform="translate(74.666 546.3)"><path d="m0 0c-3.328 0-6.035 2.707-6.035 6.035v86.676c0 3.328 2.707 6.035 6.035 6.035h94.556c3.328 0 6.035-2.707 6.035-6.035v-86.676c0-3.328-2.707-6.035-6.035-6.035z" fill="#fff"/></g><g transform="translate(169.22 645.17)"><path d="m0 0h-94.556c-3.397 0-6.16-2.763-6.16-6.16v-86.676c0-3.397 2.763-6.16 6.16-6.16h94.556c3.396 0 6.16 2.763 6.16 6.16v86.676c0 3.397-2.764 6.16-6.16 6.16m0-0.25c3.264 0 5.91-2.646 5.91-5.91v-86.676c0-3.264-2.646-5.91-5.91-5.91h-94.556c-3.264 0-5.91 2.646-5.91 5.91v86.676c0 3.264 2.646 5.91 5.91 5.91z"/></g><g transform="translate(70.07 552.33)"><path d="m0 0v86.688c0 2.535 2.055 4.591 4.591 4.591h94.567c2.536 0 4.591-2.056 4.591-4.591v-86.688c0-2.536-2.055-4.591-4.591-4.591h-94.567c-2.536 0-4.591 2.055-4.591 4.591" fill="#005a9c"/></g><path d="m173.82 629.16h-103.75v-1.313h103.75z" fill="#fff"/><path d="m122.11 546.43h1.313v81.423h-1.313z" fill="#fff"/><g transform="translate(112.35 635.89)"><path d="m0 0c0 1.699 0.783 3.374 2.695 3.374 1.128 0 1.958-0.642 2.372-1.63l-1.22-0.459c-0.207 0.506-0.622 0.781-1.152 0.781-1.129 0-1.36-1.148-1.36-2.067 0-0.941 0.231-2.089 1.36-2.089 0.507 0 0.921 0.276 1.152 0.781h-0.783v1.309h2.258c-0.092-1.653-0.599-3.397-2.627-3.397-1.912 0-2.695 1.698-2.695 3.397" fill="#fff"/></g><g transform="translate(121.14 635.46)"><path d="m0 0h1.538l-0.735 1.836zm2.067-1.309h-2.596l-0.618-1.538h-1.402l2.641 6.566h1.354l2.641-6.566h-1.401z" fill="#fff"/></g><g transform="translate(131.54 634.54)"><path d="m0 0c0-0.689-0.368-1.354-0.945-1.676-0.391-0.23-1.082-0.367-1.704-0.367-0.738 0-1.451 0.206-2.027 0.597-0.207 0.114-0.346 0.229-0.646 0.504l0.922 0.919c0.553-0.505 1.06-0.712 1.819-0.712 0.761 0 1.291 0.253 1.291 0.712 0 0.184-0.116 0.436-0.3 0.551-0.23 0.137-0.46 0.207-1.313 0.367-0.691 0.16-1.106 0.298-1.382 0.482-0.437 0.299-0.714 0.873-0.714 1.424 0 0.665 0.345 1.263 0.921 1.607 0.369 0.229 0.806 0.321 1.383 0.321 0.737 0 1.428-0.161 1.981-0.505 0.138-0.091 0.207-0.138 0.414-0.299l-0.806-1.033c-0.53 0.391-1.013 0.529-1.635 0.529-0.599 0-0.968-0.207-0.968-0.62 0-0.596 0.757-0.501 1.626-0.715 0.98-0.242 2.083-0.759 2.083-2.086" fill="#fff"/></g><g transform="translate(117.89 551.52)"><path d="m0 0h-26.266v19.699h26.266z" fill="none" stroke="#fff" stroke-miterlimit="10" stroke-width=".5"/></g><g transform="translate(117.89 576.96)"><path d="m0 0h-26.266v19.699h26.266z" fill="none" stroke="#fff" stroke-miterlimit="10" stroke-width=".5"/></g><g transform="translate(117.89 602.41)"><path d="m0 0h-26.266v19.699h26.266z" fill="none" stroke="#fff" stroke-miterlimit="10" stroke-width=".5"/></g><g transform="translate(153.9 551.52)"><path d="m0 0h-26.266v19.699h26.266z" fill="none" stroke="#fff" stroke-miterlimit="10" stroke-width=".5"/></g><g transform="translate(153.9 602.41)"><path d="m0 0h-26.266v19.699h26.266z" fill="none" stroke="#fff" stroke-miterlimit="10" stroke-width=".5"/></g><path d="m80.287 613.48h5.486v-2.462h-5.486z" fill="#fff"/><g transform="translate(80.569 609.06)"><path d="m0 0c0.079-0.055 0.176-0.087 0.279-0.087 0.272 0 0.493 0.221 0.493 0.493 0 0.062-0.012 0.122-0.033 0.176l-0.993 2.614 0.993 2.614c0.021 0.055 0.033 0.115 0.033 0.177 0 0.272-0.221 0.493-0.493 0.493-0.103 0-0.2-0.032-0.279-0.087l-4.646-3.197z" fill="#fff"/></g><path d="m80.287 566.54h5.486v-2.462h-5.486z" fill="#fff"/><g transform="translate(80.569 562.11)"><path d="m0 0c0.079-0.055 0.176-0.087 0.279-0.087 0.272 0 0.493 0.221 0.493 0.493 0 0.062-0.012 0.122-0.033 0.176l-0.993 2.614 0.993 2.614c0.021 0.055 0.033 0.115 0.033 0.177 0 0.272-0.221 0.493-0.493 0.493-0.103 0-0.2-0.033-0.279-0.087l-4.646-3.197z" fill="#fff"/></g><g transform="translate(74.698 556.69)"><path d="m0 0c0.824 0.598 1.938 0.683 1.938 1.204 0 0.313-0.424 0.533-1.032 0.533-0.535 0-0.885-0.128-1.401-0.533l-0.737 0.772c0.35 0.257 0.516 0.367 0.755 0.477 0.424 0.221 0.903 0.331 1.42 0.331 0.663 0 1.253-0.184 1.603-0.514 0.277-0.257 0.424-0.588 0.424-1.029 0-0.771-0.479-1.304-1.493-1.653-0.59-0.22-0.737-0.294-1.014-0.569-0.165-0.166-0.276-0.313-0.387-0.515h2.949v-1.047h-4.257c0 0.935 0.474 1.992 1.232 2.543" fill="#fff"/></g><g transform="translate(80.692 555.9)"><path d="m0 0v2.376h-0.342v0.71c0.256 0.122 0.281 0.196 0.391 0.416h0.66v-3.502z" fill="#fff"/></g><g transform="translate(86.213 555.84)"><path d="m0 0c0.549 0.399 1.292 0.456 1.292 0.803 0 0.208-0.283 0.355-0.688 0.355-0.357 0-0.59-0.086-0.934-0.355l-0.492 0.514c0.234 0.172 0.345 0.245 0.504 0.318 0.283 0.147 0.602 0.221 0.946 0.221 0.443 0 0.836-0.123 1.069-0.343 0.185-0.171 0.283-0.392 0.283-0.686 0-0.514-0.319-0.869-0.995-1.102-0.393-0.147-0.492-0.196-0.676-0.379-0.111-0.111-0.184-0.209-0.258-0.343h1.966v-0.698h-2.839c0 0.623 0.316 1.328 0.822 1.695" fill="#fff"/></g><g transform="translate(84.508 559.4)"><path d="m0 0h0.809l-3.033-5.253h-0.809z" fill="#fff"/></g><path d="m164.42 617.42h-5.486v-2.462h5.486z" fill="#fff"/><g transform="translate(164.14 613)"><path d="m0 0c-0.079-0.055-0.175-0.087-0.279-0.087-0.272 0-0.493 0.221-0.493 0.493 0 0.062 0.012 0.122 0.033 0.176l0.993 2.614-0.993 2.614c-0.021 0.055-0.033 0.115-0.033 0.177 0 0.272 0.221 0.493 0.493 0.493 0.104 0 0.2-0.033 0.279-0.087l4.646-3.197z" fill="#fff"/></g><g transform="translate(160.26 606.78)"><path d="m0 0v2.376h-0.342v0.71c0.257 0.122 0.281 0.196 0.391 0.416h0.66v-3.502z" fill="#fff"/></g><g transform="translate(165.78 606.73)"><path d="m0 0c0.549 0.399 1.292 0.456 1.292 0.803 0 0.208-0.283 0.355-0.688 0.355-0.357 0-0.59-0.086-0.934-0.355l-0.492 0.514c0.234 0.172 0.344 0.245 0.504 0.318 0.283 0.148 0.602 0.221 0.946 0.221 0.443 0 0.836-0.122 1.069-0.343 0.185-0.171 0.283-0.392 0.283-0.686 0-0.514-0.32-0.869-0.995-1.102-0.394-0.147-0.492-0.196-0.676-0.379-0.111-0.11-0.184-0.208-0.258-0.343h1.966v-0.698h-2.839c0 0.623 0.316 1.328 0.822 1.695" fill="#fff"/></g><g transform="translate(164.08 610.29)"><path d="m0 0h0.809l-3.033-5.253h-0.809z" fill="#fff"/></g><g transform="translate(153.9 576.96)"><path d="m0 0h-26.266v19.699h26.266z" fill="none" stroke="#fff" stroke-miterlimit="10" stroke-width=".5"/></g><path d="m164.42 591.98h-5.486v-2.462h5.486z" fill="#fff"/><g transform="translate(164.14 587.56)"><path d="m0 0c-0.079-0.055-0.175-0.087-0.279-0.087-0.272 0-0.493 0.221-0.493 0.493 0 0.062 0.012 0.121 0.033 0.176l0.993 2.614-0.993 2.614c-0.021 0.055-0.033 0.115-0.033 0.177 0 0.272 0.221 0.493 0.493 0.493 0.104 0 0.2-0.033 0.279-0.087l4.646-3.197z" fill="#fff"/></g><g transform="translate(160.26 581.34)"><path d="m0 0v2.376h-0.342v0.71c0.257 0.122 0.281 0.196 0.391 0.416h0.66v-3.502z" fill="#fff"/></g><g transform="translate(165.78 581.28)"><path d="m0 0c0.549 0.399 1.292 0.456 1.292 0.803 0 0.208-0.283 0.355-0.688 0.355-0.357 0-0.59-0.086-0.934-0.355l-0.492 0.514c0.234 0.172 0.344 0.245 0.504 0.318 0.283 0.148 0.602 0.221 0.946 0.221 0.443 0 0.836-0.122 1.069-0.343 0.185-0.171 0.283-0.392 0.283-0.686 0-0.514-0.32-0.869-0.995-1.102-0.394-0.147-0.492-0.196-0.676-0.379-0.111-0.11-0.184-0.208-0.258-0.343h1.966v-0.698h-2.839c0 0.623 0.316 1.328 0.822 1.695" fill="#fff"/></g><g transform="translate(164.08 584.84)"><path d="m0 0h0.809l-3.033-5.253h-0.809z" fill="#fff"/></g><path d="m80.287 591.98h5.486v-2.462h-5.486z" fill="#fff"/><g transform="translate(80.569 587.56)"><path d="m0 0c0.079-0.055 0.176-0.087 0.279-0.087 0.272 0 0.493 0.221 0.493 0.493 0 0.062-0.012 0.121-0.033 0.176l-0.993 2.614 0.993 2.614c0.021 0.055 0.033 0.115 0.033 0.177 0 0.272-0.221 0.492-0.493 0.492-0.103 0-0.2-0.032-0.279-0.086l-4.646-3.197z" fill="#fff"/></g><g transform="translate(80.573 579.59)"><path d="m0 0v3.563h-0.513v1.066c0.385 0.183 0.421 0.293 0.586 0.624h0.99v-5.253z" fill="#fff"/></g><path d="m164.42 566.54h-5.486v-2.462h5.486z" fill="#fff"/><g transform="translate(164.14 562.11)"><path d="m0 0c-0.079-0.055-0.175-0.087-0.279-0.087-0.272 0-0.493 0.221-0.493 0.493 0 0.062 0.012 0.122 0.033 0.176l0.993 2.614-0.993 2.614c-0.021 0.055-0.033 0.115-0.033 0.177 0 0.272 0.221 0.493 0.493 0.493 0.104 0 0.2-0.033 0.279-0.087l4.646-3.197z" fill="#fff"/></g><g transform="translate(163.8 554.05)"><path d="m0 0c-0.663 0-1.401 0.294-1.88 0.735-0.129 0.128-0.203 0.202-0.369 0.422l0.848 0.588c0.35-0.459 0.848-0.698 1.456-0.698 0.572 0 0.922 0.239 0.922 0.606 0 0.257-0.184 0.514-0.406 0.625-0.147 0.073-0.313 0.11-0.516 0.11h-0.147v1.047h0.276c0.185 0 0.222 0 0.314 0.055 0.129 0.073 0.221 0.22 0.221 0.367 0 0.313-0.332 0.515-0.848 0.515-0.424 0-0.774-0.129-1.106-0.441l-0.756 0.679c0.572 0.57 1.18 0.809 1.899 0.809 1.087 0 1.843-0.625 1.843-1.525 0-0.386-0.147-0.735-0.406-0.992 0.461-0.386 0.664-0.771 0.664-1.267 0-0.974-0.829-1.635-2.009-1.635" fill="#fff"/></g></g><g clip-path="url(#d)"><g transform="translate(419.54 665.68)"><path d="m0 0c0 18.167 14.543 32.896 32.711 32.896s32.896-14.729 32.896-32.896-14.728-33.2-32.896-33.2" fill="none" stroke="#000" stroke-width="2"/></g><g transform="translate(432.19 684.91)"><path d="m0 0c5.051 5.336 12.174 8.667 20.057 8.667" fill="none" stroke="#000" stroke-width=".75"/></g><g transform="translate(451.71 693.57)"><path d="m0 0-1.15 1.892 0.064 0.043 3.084-1.226c1.076-0.236 2.15-0.472 3.225-0.709-1.075-0.236-2.149-0.473-3.225-0.71l-3.084-1.225-0.064 0.033z"/></g><g transform="translate(210.03 655.09)"><path d="m0 0h158.5" fill="#fff" stroke="#000" stroke-width="2"/></g><g transform="translate(193.83 655.09)"><path d="m0 0h10.204" fill="#fff" stroke="#000" stroke-width="2"/></g><g transform="translate(109.25 655.09)"><path d="m0 0h78.583" fill="#fff" stroke="#000" stroke-width="2"/></g><g transform="translate(207.03 517.82)"><path d="m0 0 81.405 123.45c4.386 6.179 8.697 13.821 27.574 13.821" fill="#fff" stroke="#000" stroke-width="2"/></g><g transform="translate(288.05 640.7)"><path d="m0 0c1.481 2.394 0.993 11.056 0.993 14" fill="#fff" stroke="#000" stroke-width="2"/></g><g transform="translate(265.15 181.58)"><path d="m0 0v336.24l93.796 126.52" fill="none" stroke="#000" stroke-dasharray="36, 6, 6, 6, 6, 6" stroke-width=".821"/></g><g transform="translate(190.83 669.57)"><path d="m0 0v-485.15" fill="none" stroke="#000" stroke-width="2"/></g><g transform="translate(207.03 669.57)"><path d="m0 0v-485.71" fill="none" stroke="#000" stroke-width="2"/></g><g transform="translate(403.35 629.48)"><path d="m0 0v-65.087" fill="none" stroke="#000" stroke-width="2"/></g><g transform="translate(403.35 714.59)"><path d="m0 0v-79.111" fill="none" stroke="#000" stroke-width="2"/></g><g transform="translate(419.55 629.48)"><path d="m0 0v-65.087" fill="none" stroke="#000" stroke-width="2"/></g><g transform="translate(419.55 714.59)"><path d="m0 0v-79.111" fill="none" stroke="#000" stroke-width="2"/></g><g transform="translate(380.31 632.48)"><path d="m0 0h119.7" fill="none" stroke="#000" stroke-width="2"/></g><g transform="translate(452.09 600.33)"><path d="m0 0v27" fill="none" stroke="#000" stroke-width=".75"/></g><g transform="translate(451.53 628.56)"><path d="m0 0c-0.25-0.872-0.484-1.438-0.756-2.139l2.649 0.035c-0.122 0.248-0.538 1.254-0.811 2.118-0.293 0.926-0.496 1.765-0.57 2.31-0.063-0.547-0.244-1.391-0.512-2.324"/></g><g transform="translate(224.95 443.31)"><path d="m0 0v1.107h-4.263v-1.107h-2.955v1.107h-4.262v-1.107h-1.563v-1.561h14.748v1.561h-0.853z"/></g><g transform="translate(221.17 544.49)"><path d="m0 0 0.137 0.537 0.136 0.536-4.13 1.052-0.136-0.536-0.137-0.537-0.606 0.154-0.606 0.155-0.152 0.039-0.151 0.038-0.674 0.172-0.675 0.171 0.274 1.074-4.132 1.052-0.272-1.074-0.758 0.193-0.757 0.193-0.192-0.757-0.193-0.757 7.145-1.82 7.146-1.82 0.193 0.757 0.192 0.757-0.826 0.211z"/></g><g transform="translate(224.95 387.24)"><path d="m0 0v1.108h-4.263v-1.108h-2.955v1.108h-4.262v-1.108h-1.563v-1.562h14.748v0.781 0.781h-0.853z"/></g><g transform="translate(224.95 332.52)"><path d="m0 0v1.106h-4.263v-1.106h-2.955v1.106h-4.262v-1.106h-1.563v-1.562h14.748v1.562z"/></g><g transform="translate(224.95 275.07)"><path d="m0 0v1.107h-4.263v-1.107h-2.955v1.107h-4.262v-1.107h-1.563v-1.562h14.748v0.781 0.781h-0.853z"/></g><g transform="translate(224.95 187.01)"><path d="m0 0v1.108h-4.263v-1.108h-2.955v1.108h-4.262v-1.108h-1.563v-1.561h14.748v1.561z"/></g><g transform="translate(286.98 451.35)"><path d="m0 0c-21.198 0-63.812-106.58-63.812-69.224" fill="none" stroke="#000" stroke-width=".75"/></g><g transform="translate(222.58 383.34)"><path d="m0 0c-0.232-0.877-0.454-1.449-0.709-2.155l2.647 0.092c-0.127 0.246-0.565 1.242-0.857 2.1-0.313 0.919-0.534 1.754-0.622 2.298-0.049-0.549-0.211-1.398-0.459-2.335"/></g><g transform="translate(286.98 189.23)"><path d="m0 0c-15.963 0-63.993-46.517-63.993-7.34" fill="none" stroke="#000" stroke-width=".75"/></g><g transform="translate(222.4 183.11)"><path d="m0 0c-0.232-0.877-0.454-1.449-0.709-2.154l2.647 0.091c-0.127 0.246-0.565 1.242-0.857 2.1-0.312 0.919-0.534 1.754-0.622 2.298-0.049-0.549-0.211-1.398-0.459-2.335"/></g><g transform="translate(301.53 684.02)"><path d="m0 0-3.183-23.395" fill="none" stroke="#000" stroke-width=".75"/></g><g transform="translate(297.53 658.59)"><path d="m0 0c-0.143 0.896-0.306 1.488-0.489 2.215l2.624-0.357c-0.151-0.231-0.687-1.179-1.063-2.004-0.403-0.882-0.707-1.691-0.848-2.223 5e-3 0.55-0.072 1.411-0.224 2.369"/></g><g transform="translate(265.86 660.03)"><path d="m0 0h-25.842" fill="none" stroke="#000" stroke-width=".75"/></g><g transform="translate(240.55 660.03)"><path d="m0 0 1.15-1.892-0.065-0.043-3.084 1.225c-1.075 0.237-2.149 0.473-3.224 0.71 1.075 0.236 2.149 0.473 3.224 0.709l3.084 1.225 0.065-0.032z"/></g><g transform="translate(172.64 660.03)"><path d="m0 0h-25.841" fill="none" stroke="#000" stroke-width=".75"/></g><g transform="translate(147.33 660.03)"><path d="m0 0 1.15-1.892-0.065-0.043-3.084 1.225c-1.075 0.237-2.149 0.473-3.224 0.71 1.075 0.236 2.149 0.473 3.224 0.709l3.084 1.225 0.065-0.032z"/></g><g transform="translate(185.83 641.35)"><path d="m0 0v-25.841" fill="none" stroke="#000" stroke-width=".75"/></g><g transform="translate(185.83 616.04)"><path d="m0 0 1.892 1.15 0.043-0.064-1.225-3.085c-0.237-1.075-0.473-2.149-0.71-3.224-0.236 1.075-0.473 2.149-0.709 3.224l-1.225 3.085 0.032 0.064z"/></g><g transform="translate(212.05 564.08)"><path d="m0 0v29.534" fill="none" stroke="#000" stroke-width=".75"/></g><g transform="translate(212.05 593.07)"><path d="m0 0-1.892-1.15-0.043 0.064 1.226 3.085c0.236 1.075 0.472 2.149 0.709 3.224 0.236-1.075 0.473-2.149 0.71-3.224l1.225-3.085-0.033-0.064z"/></g><g transform="translate(424.57 637.6)"><path d="m0 0v22.534" fill="none" stroke="#000" stroke-width=".75"/></g><g transform="translate(424.57 659.6)"><path d="m0 0-1.893-1.15-0.042 0.064 1.226 3.085c0.236 1.075 0.473 2.149 0.709 3.224 0.236-1.075 0.473-2.149 0.709-3.224l1.225-3.085-0.032-0.064z"/></g><g transform="translate(398.32 666.53)"><path d="m0 0v-22.534" fill="none" stroke="#000" stroke-width=".75"/></g><g transform="translate(398.32 644.53)"><path d="m0 0 1.893 1.15 0.043-0.064-1.227-3.085c-0.236-1.075-0.473-2.149-0.709-3.224-0.236 1.075-0.473 2.149-0.709 3.224l-1.225 3.085 0.032 0.064z"/></g><g transform="translate(238.33 555.46)"><path d="m0 0 15.587 22.15" fill="none" stroke="#000" stroke-width=".75"/></g><g transform="translate(253.61 577.17)"><path d="m0 0-2.209 0.148 2e-3 0.078 2.777 1.817c0.812 0.743 1.624 1.486 2.436 2.228-0.425-1.015-0.851-2.03-1.276-3.044l-0.773-3.228-0.063-0.034z"/></g><g transform="translate(280.5 638.09)"><path d="m0 0c7.564 12.444 1.34 12.202 1.34 12.202h-7" fill="none" stroke="#000" stroke-width=".616"/></g><g transform="translate(275.28 650.29)"><path d="m0 0 0.944-1.553-0.053-0.035-2.532 1.006c-0.881 0.194-1.764 0.388-2.646 0.582 0.882 0.194 1.765 0.388 2.646 0.582l2.532 1.006 0.053-0.027z"/></g><g transform="translate(291.53 636.41)"><path d="m0 0s6.693 13.687 18.589 13.687" fill="none" stroke="#000" stroke-width=".616"/></g><g transform="translate(309.68 650.1)"><path d="m0 0-0.944 1.553 0.053 0.035 2.532-1.006c0.882-0.194 1.764-0.388 2.646-0.582-0.882-0.194-1.764-0.388-2.646-0.582l-2.532-1.006-0.053 0.027z"/></g><g transform="translate(321.19 650)"><path d="m0 0h20.92" fill="none" stroke="#000" stroke-width=".75"/></g><g transform="translate(341.57 650)"><path d="m0 0-1.15 1.892 0.064 0.043 3.084-1.226c1.074-0.236 2.148-0.472 3.225-0.709-1.077-0.236-2.151-0.473-3.225-0.709l-3.084-1.226-0.064 0.033z"/></g><g transform="translate(329.9 596.76)"><path d="m0 0s-57.816-2.594-47.885 11.079" fill="none" stroke="#000" stroke-width=".75"/></g><g transform="translate(282.31 609.16)"><path d="m0 0c-0.722-0.548-1.25-0.863-1.885-1.262l2.143-1.556c0.051 0.271 0.319 1.326 0.617 2.182 0.319 0.917 0.659 1.711 0.925 2.193-0.377-0.401-1.027-0.97-1.8-1.557"/></g><g transform="translate(323.05 584.97)"><path d="m0 0s-59.685-3.663-50.489 8.452" fill="none" stroke="#000" stroke-width=".75"/></g><g transform="translate(272.88 594.73)"><path d="m0 0c-0.734-0.533-1.268-0.836-1.911-1.222l2.109-1.601c0.056 0.27 0.347 1.319 0.663 2.169 0.338 0.909 0.695 1.696 0.971 2.173-0.385-0.394-1.048-0.949-1.832-1.519"/></g><g transform="translate(315.14 572.56)"><path d="m0 0s-63.022-7.949-51.964 6.372" fill="none" stroke="#000" stroke-width=".75"/></g><g transform="translate(263.5 580.24)"><path d="m0 0c-0.738-0.526-1.274-0.826-1.921-1.206l2.096-1.618c0.059 0.269 0.358 1.316 0.681 2.163 0.346 0.907 0.709 1.691 0.988 2.165-0.388-0.391-1.054-0.94-1.844-1.504"/></g><g transform="translate(177.74 598.3)"><path d="m0 0c55.997 0 99.587 16.298 112.23 24.184" fill="none" stroke="#000" stroke-width=".75"/></g><g transform="translate(291.95 623.41)"><path d="m0 0c-0.522-0.741-0.819-1.279-1.195-1.928l-1.631 2.087c0.269 0.06 1.315 0.365 2.16 0.694 0.904 0.351 1.687 0.718 2.159 1-0.388-0.39-0.934-1.06-1.493-1.853"/></g><g transform="translate(177.74 518.93)"><path d="m0 0c21.188 0 30.403 6.112 36.583 22.022" fill="none" stroke="#000" stroke-width=".75"/></g><g transform="translate(214.14 542.3)"><path d="m0 0c-0.487-0.765-0.873-1.243-1.33-1.837l2.55-0.717c-0.047 0.272-0.161 1.355-0.178 2.261-0.019 0.97 0.024 1.834 0.106 2.378-0.213-0.507-0.627-1.267-1.148-2.085"/></g><g transform="translate(177.74 397.08)"><path d="m0 0c18.292 0 37.873 24.508 37.873 41.115" fill="none" stroke="#000" stroke-width=".75"/></g><g transform="translate(215.04 439.41)"><path d="m0 0c-0.236-0.876-0.461-1.446-0.719-2.151l2.647 0.079c-0.126 0.246-0.559 1.245-0.847 2.105-0.308 0.92-0.525 1.756-0.61 2.3-0.052-0.548-0.219-1.396-0.471-2.333"/></g><g transform="translate(178.05 256.8)"><path d="m0 0s37.777 2.542 37.57 13.15" fill="none" stroke="#000" stroke-width=".75"/></g><g transform="translate(215.06 271.18)"><path d="m0 0c-0.246-0.873-0.476-1.442-0.742-2.144l2.648 0.052c-0.123 0.247-0.546 1.25-0.825 2.113-0.298 0.923-0.506 1.761-0.585 2.306-0.059-0.547-0.234-1.393-0.496-2.327"/></g><g transform="translate(175.09 484.62)"><path d="m0 0c0 10.126 9.099 15.452 26.388 15.452" fill="none" stroke="#000" stroke-width=".75"/></g><g transform="translate(202.72 499.53)"><path d="m0 0c-0.869-0.26-1.434-0.5-2.131-0.777l8e-3 2.649c0.249-0.12 1.259-0.526 2.126-0.79 0.929-0.284 1.77-0.478 2.315-0.548-0.545-0.067-1.388-0.257-2.318-0.534"/></g><g transform="translate(219.28 398.25)"><path d="m0 0v-7.262" fill="none" stroke="#000" stroke-width=".75"/></g><g transform="translate(219.82 389.56)"><path d="m0 0c0.262 0.868 0.504 1.433 0.783 2.129h-2.648c0.118-0.249 0.521-1.261 0.783-2.129 0.281-0.929 0.473-1.771 0.541-2.317 0.068 0.546 0.261 1.388 0.541 2.317"/></g><g transform="translate(219.28 439.68)"><path d="m0 0v-24.045" fill="none" stroke="#000" stroke-width=".75"/></g><g transform="translate(218.74 439.43)"><path d="m0 0c-0.262-0.868-0.504-1.433-0.783-2.129h2.648c-0.118 0.25-0.521 1.261-0.783 2.129-0.281 0.929-0.473 1.771-0.541 2.317-0.068-0.546-0.261-1.388-0.541-2.317"/></g><g transform="translate(219.28 350.34)"><path d="m0 0v-15.741" fill="none" stroke="#000" stroke-width=".75"/></g><g transform="translate(219.82 334.84)"><path d="m0 0c0.262 0.868 0.504 1.433 0.783 2.129h-2.648c0.118-0.249 0.521-1.261 0.783-2.129 0.281-0.929 0.473-1.771 0.541-2.317 0.068 0.546 0.261 1.388 0.541 2.317"/></g><g transform="translate(219.28 383.29)"><path d="m0 0v-15.55" fill="none" stroke="#000" stroke-width=".75"/></g><g transform="translate(218.74 383.36)"><path d="M 0,0 C -0.262,-0.868 -0.504,-1.433 -0.783,-2.129 H 1.865 C 1.747,-1.88 1.344,-0.868 1.082,0 0.801,0.929 0.609,1.772 0.541,2.317 0.473,1.772 0.28,0.929 0,0"/></g><g transform="translate(219.28 293.46)"><path d="m0 0v-14.494" fill="none" stroke="#000" stroke-width=".75"/></g><g transform="translate(219.82 277.39)"><path d="m0 0c0.262 0.868 0.504 1.433 0.783 2.129h-2.648c0.118-0.249 0.521-1.261 0.783-2.129 0.281-0.929 0.473-1.771 0.541-2.317 0.068 0.546 0.261 1.388 0.541 2.317"/></g><g transform="translate(219.28 328.15)"><path d="m0 0v-17.166" fill="none" stroke="#000" stroke-width=".75"/></g><g transform="translate(218.74 328.64)"><path d="M 0,0 C -0.262,-0.868 -0.504,-1.433 -0.783,-2.129 H 1.865 C 1.747,-1.88 1.344,-0.868 1.082,0 0.801,0.929 0.609,1.771 0.541,2.317 0.473,1.771 0.28,0.929 0,0"/></g><g transform="translate(219.28 239.04)"><path d="m0 0v-4.107" fill="none" stroke="#000" stroke-width=".75"/></g><g transform="translate(219.82 233.36)"><path d="m0 0c0.262 0.868 0.504 1.433 0.783 2.129h-2.648c0.118-0.249 0.521-1.261 0.783-2.129 0.281-0.929 0.473-1.771 0.541-2.317 0.068 0.546 0.261 1.388 0.541 2.317"/></g><g transform="translate(219.28 270.72)"><path d="m0 0v-15.178" fill="none" stroke="#000" stroke-width=".75"/></g><g transform="translate(218.74 271.19)"><path d="M 0,0 C -0.262,-0.868 -0.504,-1.433 -0.783,-2.129 H 1.865 C 1.747,-1.88 1.344,-0.868 1.082,0 0.801,0.929 0.609,1.772 0.541,2.317 0.473,1.772 0.28,0.929 0,0"/></g><g transform="translate(219.28 201.91)"><path d="m0 0v-11.001" fill="none" stroke="#000" stroke-width=".75"/></g><g transform="translate(219.82 189.33)"><path d="m0 0c0.262 0.868 0.504 1.433 0.783 2.129h-2.648c0.118-0.249 0.521-1.261 0.783-2.129 0.281-0.929 0.473-1.771 0.541-2.317 0.068 0.546 0.261 1.388 0.541 2.317"/></g><g transform="translate(219.28 226.69)"><path d="m0 0v-8.67" fill="none" stroke="#000" stroke-width=".75"/></g><g transform="translate(218.74 227.16)"><path d="M 0,0 C -0.262,-0.868 -0.504,-1.433 -0.783,-2.129 H 1.865 C 1.747,-1.88 1.344,-0.868 1.082,0 0.801,0.929 0.609,1.771 0.541,2.317 0.473,1.771 0.28,0.929 0,0"/></g><g transform="translate(303.16 629.24)"><path d="m0 0 0.972-0.306-0.603-0.828 0.441-0.306 0.585 0.846 0.585-0.846 0.441 0.306-0.603 0.828 0.972 0.306-0.18 0.495-0.945-0.342v0.99h-0.54v-0.99l-0.945 0.342z"/></g><g transform="translate(224.95 231.04)"><path d="m0 0v1.106h-4.263v-1.106h-2.955v1.106h-4.262v-1.106h-1.563v-1.562h14.748v1.562z"/></g><g transform="translate(294.89 415.76)"><path d="m0 0c-3.328 0-6.035 2.707-6.035 6.035v59.097c0 3.328 2.707 6.035 6.035 6.035h98.497c3.327 0 6.034-2.707 6.034-6.035v-59.097c0-3.328-2.707-6.035-6.034-6.035z" fill="#fff"/></g><g transform="translate(393.38 487.05)"><path d="m0 0h-98.496c-3.397 0-6.16-2.763-6.16-6.16v-59.098c0-3.396 2.763-6.159 6.16-6.159h98.496c3.396 0 6.16 2.763 6.16 6.159v59.098c0 3.397-2.764 6.16-6.16 6.16m0-0.25c3.264 0 5.91-2.646 5.91-5.91v-59.098c0-3.263-2.646-5.909-5.91-5.909h-98.496c-3.264 0-5.91 2.646-5.91 5.909v59.098c0 3.264 2.646 5.91 5.91 5.91z"/></g><g transform="translate(290.29 421.79)"><path d="m0 0v59.109c0 2.535 2.055 4.591 4.591 4.591h98.507c2.536 0 4.591-2.056 4.591-4.591v-59.109c0-2.535-2.055-4.591-4.591-4.591h-98.507c-2.536 0-4.591 2.056-4.591 4.591" fill="#005a9c"/></g><g transform="translate(323.61 448.06)"><path d="m0 0h-26.266v19.699h26.266z" fill="none" stroke="#fff" stroke-miterlimit="10" stroke-width=".5"/></g><g transform="translate(323.61 422.62)"><path d="m0 0h-26.266v19.699h26.266z" fill="none" stroke="#fff" stroke-miterlimit="10" stroke-width=".5"/></g><g transform="translate(357.27 448.06)"><path d="m0 0h-26.266v19.699h26.266z" fill="none" stroke="#fff" stroke-miterlimit="10" stroke-width=".5"/></g><g transform="translate(357.27 422.62)"><path d="m0 0h-26.266v19.699h26.266z" fill="none" stroke="#fff" stroke-miterlimit="10" stroke-width=".5"/></g><g transform="translate(390.92 448.06)"><path d="m0 0h-26.266v19.699h26.266z" fill="none" stroke="#fff" stroke-miterlimit="10" stroke-width=".5"/></g><g transform="translate(390.92 422.62)"><path d="m0 0h-26.266v19.699h26.266z" fill="none" stroke="#fff" stroke-miterlimit="10" stroke-width=".5"/></g><path d="m332.02 476.51h3.283v-1.331h-3.283z" fill="#fff"/><g transform="translate(309.55 476.79)"><path d="m0 0c0 1.699 0.783 3.374 2.695 3.374 1.128 0 1.958-0.642 2.372-1.63l-1.22-0.459c-0.207 0.506-0.622 0.781-1.152 0.781-1.129 0-1.36-1.148-1.36-2.067 0-0.941 0.231-2.089 1.36-2.089 0.507 0 0.921 0.276 1.152 0.781h-0.783v1.309h2.258c-0.092-1.653-0.598-3.397-2.627-3.397-1.912 0-2.695 1.698-2.695 3.397" fill="#fff"/></g><g transform="translate(318.34 476.35)"><path d="m0 0h1.538l-0.735 1.836zm2.067-1.309h-2.596l-0.618-1.538h-1.402l2.641 6.566h1.354l2.641-6.566h-1.401z" fill="#fff"/></g><g transform="translate(328.73 475.44)"><path d="m0 0c0-0.689-0.369-1.354-0.945-1.676-0.391-0.23-1.082-0.367-1.704-0.367-0.737 0-1.452 0.206-2.027 0.597-0.207 0.114-0.346 0.229-0.646 0.505l0.922 0.918c0.553-0.505 1.059-0.712 1.82-0.712 0.76 0 1.29 0.253 1.29 0.712 0 0.184-0.116 0.436-0.3 0.551-0.23 0.137-0.46 0.207-1.313 0.368-0.691 0.159-1.106 0.297-1.382 0.481-0.437 0.299-0.714 0.873-0.714 1.424 0 0.665 0.345 1.263 0.921 1.607 0.369 0.23 0.806 0.321 1.383 0.321 0.737 0 1.428-0.161 1.981-0.505 0.138-0.091 0.207-0.138 0.414-0.299l-0.806-1.032c-0.53 0.39-1.013 0.528-1.635 0.528-0.6 0-0.968-0.207-0.968-0.62 0-0.595 0.758-0.501 1.626-0.715 0.98-0.242 2.083-0.759 2.083-2.086" fill="#fff"/></g><g transform="translate(338.58 480.07)"><path d="m0 0h4.77v-1.308h-3.485v-1.08h1.972v-1.308h-1.972v-1.562h3.577v-1.308h-4.862z" fill="#fff"/></g><g transform="translate(347.23 475.71)"><path d="m0 0-1.354-2.204h-1.515l2.066 3.467-1.882 3.1h1.538l1.147-1.86 1.102 1.86h1.561l-1.86-3.124 2.043-3.443h-1.538z" fill="#fff"/></g><path d="m351.46 480.07h1.313v-6.566h-1.313z" fill="#fff"/><g transform="translate(357.03 473.51)"><path d="m0 0h-1.261v5.258h-1.812v1.308h4.862v-1.308h-1.789z" fill="#fff"/></g><g transform="translate(367.08 476.17)"><path d="m0 0h2.136v2.136zm3.423-2.663h-1.287v1.447h-3.836v1.217l3.836 3.903h1.287v-3.903h0.987v-1.217h-0.987z" fill="#fff"/></g><g transform="translate(374.31 476.17)"><path d="m0 0h2.136v2.136zm3.423-2.663h-1.287v1.447h-3.836v1.217l3.836 3.903h1.287v-3.903h0.987v-1.217h-0.987z" fill="#fff"/></g><g transform="translate(426.7 442.35)"><path d="m0 0c-3.327 0-6.034 2.707-6.034 6.035v31.519c0 3.327 2.707 6.034 6.034 6.034h98.497c3.327 0 6.034-2.707 6.034-6.034v-31.519c0-3.328-2.707-6.035-6.034-6.035z" fill="#fff"/></g><g transform="translate(525.2 486.06)"><path d="m0 0h-98.496c-3.397 0-6.16-2.763-6.16-6.16v-31.519c0-3.396 2.763-6.159 6.16-6.159h98.496c3.396 0 6.159 2.763 6.159 6.159v31.519c0 3.397-2.763 6.16-6.159 6.16m0-0.25c3.264 0 5.909-2.646 5.909-5.91v-31.519c0-3.263-2.645-5.909-5.909-5.909h-98.496c-3.264 0-5.91 2.646-5.91 5.909v31.519c0 3.264 2.646 5.91 5.91 5.91z"/></g><g transform="translate(422.11 448.38)"><path d="m0 0v31.53c0 2.535 2.055 4.591 4.591 4.591h98.507c2.535 0 4.591-2.056 4.591-4.591v-31.53c0-2.536-2.056-4.591-4.591-4.591h-98.507c-2.536 0-4.591 2.055-4.591 4.591" fill="#005a9c"/></g><g transform="translate(455.43 447.07)"><path d="m0 0h-26.266v19.699h26.266z" fill="none" stroke="#fff" stroke-miterlimit="10" stroke-width=".5"/></g><g transform="translate(489.08 447.07)"><path d="m0 0h-26.266v19.699h26.266z" fill="none" stroke="#fff" stroke-miterlimit="10" stroke-width=".5"/></g><g transform="translate(522.74 447.07)"><path d="m0 0h-26.266v19.699h26.266z" fill="none" stroke="#fff" stroke-miterlimit="10" stroke-width=".5"/></g><path d="m463.83 476.51h3.283v-1.331h-3.283z" fill="#fff"/><g transform="translate(441.36 476.79)"><path d="m0 0c0 1.699 0.783 3.374 2.695 3.374 1.128 0 1.958-0.642 2.372-1.63l-1.22-0.459c-0.207 0.506-0.622 0.781-1.152 0.781-1.129 0-1.36-1.148-1.36-2.067 0-0.941 0.231-2.089 1.36-2.089 0.507 0 0.921 0.276 1.152 0.781h-0.783v1.309h2.258c-0.092-1.653-0.598-3.397-2.627-3.397-1.912 0-2.695 1.698-2.695 3.397" fill="#fff"/></g><g transform="translate(450.15 476.35)"><path d="m0 0h1.538l-0.735 1.836zm2.067-1.309h-2.596l-0.618-1.538h-1.402l2.641 6.566h1.354l2.641-6.566h-1.401z" fill="#fff"/></g><g transform="translate(460.55 475.44)"><path d="m0 0c0-0.689-0.368-1.354-0.945-1.676-0.391-0.23-1.082-0.367-1.704-0.367-0.738 0-1.452 0.206-2.027 0.597-0.207 0.114-0.346 0.229-0.646 0.505l0.922 0.918c0.553-0.505 1.059-0.712 1.819-0.712 0.761 0 1.291 0.253 1.291 0.712 0 0.184-0.116 0.436-0.3 0.551-0.23 0.137-0.46 0.207-1.313 0.368-0.691 0.159-1.106 0.297-1.382 0.481-0.437 0.299-0.714 0.873-0.714 1.424 0 0.665 0.345 1.263 0.921 1.607 0.369 0.23 0.806 0.321 1.383 0.321 0.737 0 1.428-0.161 1.981-0.505 0.138-0.091 0.207-0.138 0.414-0.299l-0.806-1.032c-0.53 0.39-1.013 0.528-1.635 0.528-0.6 0-0.968-0.207-0.968-0.62 0-0.595 0.757-0.501 1.626-0.715 0.98-0.242 2.083-0.759 2.083-2.086" fill="#fff"/></g><g transform="translate(470.4 480.07)"><path d="m0 0h4.77v-1.308h-3.485v-1.08h1.972v-1.308h-1.972v-1.562h3.577v-1.308h-4.862z" fill="#fff"/></g><g transform="translate(479.05 475.71)"><path d="m0 0-1.354-2.204h-1.515l2.065 3.467-1.882 3.1h1.538l1.148-1.86 1.101 1.86h1.561l-1.859-3.124 2.043-3.443h-1.538z" fill="#fff"/></g><path d="m483.28 480.07h1.313v-6.566h-1.313z" fill="#fff"/><g transform="translate(488.84 473.51)"><path d="m0 0h-1.261v5.258h-1.812v1.308h4.862v-1.308h-1.789z" fill="#fff"/></g><g transform="translate(498.9 476.17)"><path d="m0 0h2.136v2.136zm3.423-2.663h-1.287v1.447h-3.836v1.217l3.836 3.903h1.287v-3.903h0.987v-1.217h-0.987z" fill="#fff"/></g><g transform="translate(506.13 476.17)"><path d="m0 0h2.137v2.136zm3.423-2.663h-1.286v1.447h-3.837v1.217l3.837 3.903h1.286v-3.903h0.987v-1.217h-0.987z" fill="#fff"/></g></g><g fill="black" font-family="Helvetica"><text transform="matrix(1 0 0 -1 403.29 461.17)" font-size="9px"><tspan x="0 7.0019999" y="0">OR</tspan><tspan x="-329.823 -326.32199 -320.319 -315.315 -310.311 -305.811 -303.81299 -301.311 -299.31299 -294.81299 -292.311 -287.811 -282.80701 -279.81 -275.31 -273.31201 -268.81201 -263.80801 -261.306 -258.30899 -253.30499 -245.808 -240.804 -238.302 -233.802 -231.804 -226.8 -221.79601 -217.29601 -214.79401 -211.797 -206.793 -202.293 -199.791 -194.787 -189.783 -184.77901 -179.77499 -174.771 -169.767" y="-249.11099">*Specific service ramp signs (as needed)</tspan><tspan x="-329.823 -325.89359 -319.89059 -314.8866 -309.8826 -305.3826 -303.38461 -298.38062 -293.37659 -290.8746 -286.3746 -281.37061 -276.36661 -271.36261 -269.36459 -264.34799 -261.84601 -256.84201 -251.838 -249.336 -244.332 -241.83 -239.328 -237.33 -232.326 -227.32201 -222.82201 -220.32001 -217.81799 -212.814 -207.81 -202.806 -200.304 -197.802 -192.798 -187.79401 -185.29201 -182.78999 -180.28799 -177.291 -172.287 -164.78999" y="-239.112"> Spacing should be at least 100 feet from </tspan><tspan x="-325.89359 -323.3916 -318.3876 -313.38361 -310.88159 -305.87759 -301.37759 -299.37961 -296.87759 -294.37561 -289.37161 -284.36761 -281.37061 -276.36661 -273.86459 -269.36459 -267.36661 -262.35629 -257.35229 -254.8503 -252.3483 -249.8463 -246.8493 -241.84531 -234.3483 -231.8463 -226.8423 -221.8383 -217.3383 -212.3343 -209.83231 -204.82829 -202.32629 -197.3223 -192.3183 -189.8127" y="-229.11301">the exit gore sign, from each other,</tspan><tspan x="-329.823 -325.89359 -320.88959 -315.88559 -310.88159 -308.37961 -305.87759 -302.88062 -297.87659 -290.37961 -287.87759 -285.37561 -280.37161 -275.36761 -272.8656 -269.86859 -264.86459 -257.36761 -252.3636 -249.8616 -247.3596 -242.35561 -239.3586 -231.8616 -229.8636 -224.8596 -219.85561 -217.8576" y="-219.114"> and from the ramp terminal.</tspan></text><text transform="matrix(1 0 0 -1 210.8 409.02)" font-size="7px"><tspan x="0 3.892 7.7839999 11.676 13.622 15.568" y="0">800 ft</tspan><tspan x="1.372 7.2030001 9.1490002 14.203" y="8.0010004">MIN.</tspan><tspan x="-0.063000001 3.829 7.7210002 11.613 13.559 15.505" y="48.355999">800 ft</tspan><tspan x="1.309 7.1399999 9.0860004 14.14" y="56.356998">MIN.</tspan><tspan x="0.07 3.9619999 7.8540001 11.746 13.692 15.638" y="105.294">800 ft</tspan><tspan x="1.442 7.2729998 9.2189999 14.273" y="113.295">MIN.</tspan><tspan x="0.07 3.9619999 7.8540001 11.746 13.692 15.638" y="160.237">800 ft</tspan><tspan x="1.442 7.2729998 9.2189999 14.273" y="168.23801">MIN.</tspan><tspan x="0.07 3.9619999 7.8540001 11.746 13.692 15.638" y="197.575">800 ft</tspan><tspan x="1.442 7.2729998 9.2189999 14.273" y="205.576">MIN.</tspan></text><text transform="matrix(1 0 0 -1 109.47 474.8)" font-size="9px"><tspan x="0 5.1677999 8.1647997 13.1688 17.6688 22.6728 24.670799 27.1728 32.1768 34.174801 38.674801 41.1768 46.180801 51.184799 55.684799 60.688801 63.1908 65.692802 70.6968" y="0">Travel distance for</tspan><tspan x="-1.332 3.168 5.1659999 10.17 15.174 17.676001 22.68 25.677 27.674999 32.679001 35.675999 37.674 40.175999 44.675999 47.178001 51.678001 56.681999 61.686001 66.690002 68.688004" y="9.9989996">sign priority should</tspan><tspan x="-8.8380003 -3.8340001 -1.836 4.6620002 9.6660004 14.166 18.666 21.167999 26.172001 31.176001 33.678001 41.174999 46.179001 51.182999 55.682999 60.687 63.683998 68.688004" y="19.997999">always be measured</tspan><tspan x="14.679 17.181 20.177999 25.181999 32.679001 35.181 37.682999 42.687 44.685001 49.185001 51.687 56.691002 61.695 63.693001 68.696999 71.198997" y="29.997">from this point.</tspan><tspan x="148.599 154.09801 159.10201 164.106 166.608 169.11 172.10699 177.11099 181.61099 186.61501 188.61301 191.11501 196.119 198.117 202.617 205.119 210.123 215.127 219.627 224.631 227.133 229.63499 234.63901 237.14101 242.145" y="-231.42599">The travel distance to be</tspan><tspan x="148.599 153.099 158.103 163.10699 169.605 174.60899 177.11099 182.11501 187.119 189.621 194.121 196.119 201.123 206.127 210.627 213.129 217.629 222.633 227.63699 232.64101 234.63901 239.64301 242.145 247.149" y="-221.427">shown on signs should be</tspan><tspan x="148.599 156.09599 161.10001 166.104 170.604 175.608 178.605 183.60899 188.61301 191.11501 193.617 196.614 201.618 209.11501 211.617 214.119 219.123 221.121 225.621 228.123 233.127 238.131 240.129 245.133 247.63499" y="-211.42799">measured from this point.</tspan><tspan x="316.59299 319.095 321.59698 324.099 329.103 331.60501 333.603 338.60699 343.61099 348.61499 351.117 353.11499 357.61499 360.117 364.617 366.61499 371.61899 376.62299 381.62701 386.63101 389.133 391.63501 394.13699 399.14099 404.14499" y="-117.801">If a loop is signed, the </tspan><tspan x="316.59299 319.095 322.09201 327.09601 331.59601 336.60001 338.59799 341.10001 346.104 348.10199 352.60199 355.104 360.108 365.112 369.612 374.616 377.11801 381.61801 386.62201 391.62601 398.12399 403.12799" y="-107.802">travel distance shown </tspan><tspan x="316.59299 321.59698 326.60101 329.103 333.603 335.60101 340.60501 345.60901 350.10901 352.61099 357.11099 362.11499 367.11899 372.12299 374.121 379.125 381.62701 386.63101 391.63501" y="-97.803001">on signs should be </tspan><tspan x="316.59299 324.09 329.09399 334.09799 338.59799 343.60199 346.599 351.603 356.60699 359.10901 361.61099 364.608 369.612 377.10901 379.61099 382.11301 387.117 389.11499 393.61499 396.117 401.121 406.125 408.12299 413.12701 415.629" y="-87.804001">measured from this point.</tspan></text></g><g transform="translate(270.94 579.93)"><path d="m0 0 0.305 0.463 0.304 0.462-1.778 1.173-1.78 1.173-0.305-0.461-0.305-0.462-2.466 1.627 0.304 0.462 0.306 0.461-1.78 1.174-1.779 1.173-0.305-0.462-0.304-0.462-0.652 0.43-0.653 0.431-0.43-0.652-0.43-0.651 3.013-1.987 6.286-4.146 3.013-1.987 0.429 0.651 0.43 0.652-0.712 0.469z"/></g><g transform="translate(280.3 594.43)"><path d="m0 0 0.305 0.463 0.304 0.462-1.778 1.173-1.78 1.173-0.305-0.462-0.305-0.461-2.466 1.627 0.304 0.461 0.306 0.462-1.78 1.174-1.779 1.173-0.305-0.462-0.304-0.462-0.652 0.43-0.653 0.431-0.43-0.652-0.43-0.651 3.013-1.987 6.286-4.146 3.012-1.987 0.86 1.302-0.712 0.47z"/></g><g transform="translate(289.67 608.94)"><path d="m0 0 0.305 0.463 0.304 0.462-1.778 1.173-1.78 1.173-0.305-0.461-0.305-0.462-2.466 1.627 0.304 0.462 0.306 0.461-1.78 1.174-1.779 1.173-0.305-0.462-0.304-0.462-0.652 0.43-0.653 0.431-0.43-0.652-0.43-0.651 3.013-1.987 6.286-4.146 3.013-1.987 0.429 0.651 0.43 0.652-0.712 0.469z"/></g><g transform="translate(299.03 623.44)"><path d="m0 0 0.305 0.463 0.304 0.462-1.778 1.173-1.78 1.174-0.61-0.924-2.466 1.627 0.304 0.462 0.306 0.462-1.78 1.173-1.779 1.173-0.305-0.462-0.304-0.462-0.652 0.43-0.653 0.431-0.43-0.652-0.429-0.651 3.012-1.987 6.286-4.146 3.013-1.987 0.429 0.651 0.43 0.652-0.712 0.469z"/></g><g transform="translate(187.83 659.21)"><path d="m0 0v-8.231" fill="none" stroke="#000"/></g><g transform="translate(193.83 659.21)"><path d="m0 0v-8.231" fill="none" stroke="#000"/></g><g transform="translate(204.03 659.21)"><path d="m0 0v-8.231" fill="none" stroke="#000"/></g><g transform="translate(210.03 659.21)"><path d="m0 0v-8.231" fill="none" stroke="#000"/></g><g transform="translate(423.67 629.48)"><path d="m0 0h-24.436" fill="none" stroke="#000"/></g><g transform="translate(423.67 635.48)"><path d="m0 0h-24.436" fill="none" stroke="#000"/></g><g transform="translate(489.58 664.94)"><path d="m0 0 5e-3 -0.555 4e-3 -0.552 2.132 0.018 2.13 0.019-5e-3 0.554-4e-3 0.553 0.625 7e-3 0.625 5e-3 0.157 1e-3 0.156 1e-3 0.696 6e-3 0.695 7e-3 0.01-1.108 2.132 0.02 2.131 0.017-5e-3 0.554-5e-3 0.555 0.781 5e-3 0.782 9e-3 -8e-3 0.78-5e-3 0.78-3.61-0.032-3.765-0.033-3.764-0.034-3.609-0.032 7e-3 -0.781 6e-3 -0.779 0.853 8e-3z"/></g><g clip-path="url(#c)"><g transform="translate(509.98 678.93)"><path d="m0 0c-10.229 0-14.76 2.702-14.886-7.934" fill="none" stroke="#000" stroke-width=".75"/></g><g transform="translate(494.63 668.86)"><path d="m0 0c-0.285 0.861-0.541 1.419-0.838 2.108l2.648 0.068c-0.112-0.252-0.489-1.273-0.728-2.148-0.257-0.936-0.427-1.783-0.481-2.331-0.083 0.544-0.297 1.382-0.601 2.303"/></g><g transform="translate(455.61 637.48)"><path d="m0 0h-21.533" fill="none" stroke="#000" stroke-width=".75"/></g><g transform="translate(434.62 637.48)"><path d="m0 0 1.15-1.893-0.064-0.043-3.084 1.226c-1.076 0.236-2.15 0.473-3.225 0.71 1.075 0.236 2.149 0.473 3.225 0.709l3.084 1.225 0.064-0.032z"/></g></g><text transform="matrix(1 0 0 -1 332.36 593.37)" fill="black" font-family="Helvetica" font-size="9px"><tspan x="0 6.0029998 12.006 14.508 21.006001 27.504 33.507 40.005001 47.007 49.508999 56.007 63.008999" y="0">EV CHARGING*</tspan><tspan x="-7.0469999 -1.548 5.454 12.456 18.954" y="11.934">FOOD*</tspan><tspan x="-14.751 -9.7469997 -2.7449999 3.753 10.755 13.257 19.754999 26.757" y="24.336">LODGING*</tspan></text><g clip-path="url(#b)"><g transform="translate(175.03 500.82)"><path d="m0 0c0-2.175-1.763-3.938-3.938-3.938h-43.323c-2.175 0-3.938 1.763-3.938 3.938v31.507c0 2.175 1.763 3.939 3.938 3.939h43.323c2.175 0 3.938-1.764 3.938-3.939z" fill="#fff"/><path d="m0 0c0-2.175-1.763-3.938-3.938-3.938h-43.323c-2.175 0-3.938 1.763-3.938 3.938v31.507c0 2.175 1.763 3.939 3.938 3.939h43.323c2.175 0 3.938-1.764 3.938-3.939z" fill="none" stroke="#000" stroke-width=".5"/></g><g transform="translate(127.77 497.86)"><path d="m0 0c-0.789 0-1.531 0.307-2.089 0.865s-0.865 1.3-0.865 2.089v31.507c0 0.789 0.307 1.531 0.865 2.089s1.3 0.865 2.089 0.865h43.322c0.789 0 1.531-0.307 2.089-0.865s0.865-1.3 0.865-2.089v-31.507c0-0.789-0.307-1.531-0.865-2.089s-1.3-0.865-2.089-0.865z" fill="#006f51"/></g><g transform="translate(134.86 521.82)"><path d="m0 0v7.877h5.769v-1.41h-4.327v-1.464h2.358v-1.438h-2.358v-2.156h4.466v-1.409z" fill="#fff"/></g><path d="m153.65 529.7h1.418v-7.877h-1.418z" fill="#fff"/><g transform="translate(161.73 528.32)"><path d="m0 0v-6.495h-1.38v6.495h-2.264v1.382h5.908v-1.382z" fill="#fff"/></g><g transform="translate(148.44 521.82)"><path d="m0 0-1.777 2.791-1.749-2.791h-1.665l2.581 4.146-2.359 3.731h1.693l1.499-2.405 1.499 2.405h1.694l-2.332-3.731 2.582-4.146z" fill="#fff"/></g><g transform="translate(169.17 505.64)"><path d="m0 0 1.914 9.686c0.029 0.154-0.016 0.32-0.135 0.44-0.12 0.12-0.286 0.165-0.441 0.136l-9.686-1.915c-0.094-0.017-0.185-0.062-0.259-0.136-0.192-0.192-0.192-0.504 0-0.696 0.032-0.031 0.067-0.058 0.104-0.079l3.436-2.067-8.123-7.427 2.785-2.785 7.426 8.123 2.068-3.436c0.021-0.037 0.047-0.072 0.079-0.103 0.192-0.192 0.504-0.192 0.696 0 0.073 0.073 0.119 0.164 0.136 0.259" fill="#fff"/></g><g transform="translate(130.48 508.41)"><path d="m0 0h4.602v4.726zm6.676-4.311h-2.074v2.404h-7.297v1.907l7.297 7.504h2.074v-7.504h1.741v-1.907h-1.741z" fill="#fff"/></g><g transform="translate(143.6 508.41)"><path d="m0 0h4.602v4.726zm6.676-4.311h-2.074v2.404h-7.297v1.907l7.297 7.504h2.074v-7.504h1.741v-1.907h-1.741z" fill="#fff"/></g><g transform="translate(74.56 286)"><path d="m0 0c-3.328 0-6.035 2.707-6.035 6.034v90.616c0 3.329 2.707 6.036 6.035 6.036h94.556c3.328 0 6.035-2.707 6.035-6.036v-90.616c0-3.327-2.707-6.034-6.035-6.034z" fill="#fff"/></g><g transform="translate(169.12 388.81)"><path d="m0 0h-94.556c-3.397 0-6.16-2.763-6.16-6.16v-90.616c0-3.397 2.763-6.16 6.16-6.16h94.556c3.396 0 6.16 2.763 6.16 6.16v90.616c0 3.397-2.764 6.16-6.16 6.16m0-0.25c3.264 0 5.91-2.646 5.91-5.91v-90.616c0-3.264-2.646-5.91-5.91-5.91h-94.556c-3.264 0-5.91 2.646-5.91 5.91v90.616c0 3.264 2.646 5.91 5.91 5.91z"/></g><g transform="translate(169.12 387.24)"><path d="m0 0h-94.556c-2.539 0-4.597-2.058-4.597-4.596v-90.617c0-2.538 2.058-4.596 4.597-4.596h94.556c2.539 0 4.597 2.058 4.597 4.596v90.617c0 2.538-2.058 4.596-4.597 4.596" fill="#006f51"/></g><g transform="translate(128.75 297.3)"><path d="m0 0 2.266 11.678c0.04 0.207-0.02 0.429-0.18 0.589s-0.383 0.221-0.589 0.181l-11.679-2.266c-0.12-0.026-0.234-0.085-0.327-0.178-0.256-0.257-0.256-0.672 0-0.929 0.037-0.037 0.078-0.069 0.121-0.095l4.145-2.546-9.867-9.054 3.309-3.308 9.054 9.867 2.545-4.145c0.026-0.043 0.058-0.084 0.095-0.121 0.257-0.257 0.673-0.257 0.929 0 0.093 0.093 0.153 0.207 0.178 0.327" fill="#fff"/></g><g transform="translate(86.777 341.72)"><path d="m0 0-2.793-5.694-2.867 5.694v-5.694h-2.058v10.506h2.058l2.867-5.768 2.793 5.768h2.058v-10.506h-2.058z" fill="#fff"/></g><g transform="translate(93.713 340.91)"><path d="m0 0h2.511c-0.296 0.772-0.629 1.065-1.219 1.065-0.557 0-1.07-0.368-1.292-1.065m1.402-3.122c0.443 0 0.85 0.255 1.183 0.698l1.439-1.249c-0.775-0.918-1.588-1.321-2.622-1.321-1.943 0-3.653 1.725-3.653 3.966 0 2.205 1.66 3.967 3.543 3.967 1.387 0 3.396-1.022 3.396-4.372v-0.293h-4.798c0.222-0.881 0.835-1.396 1.512-1.396" fill="#fff"/></g><g transform="translate(104.01 339.02)"><path d="m0 0c0-0.697 0.172-1.036 0.709-1.036 0.629 0 0.803 0.115 1.249 0.558l-0.554-2.167c-0.472-0.253-0.919-0.404-1.366-0.404-1.441 0-2.105 0.844-2.105 2.35v3.565h-1.441v1.837h1.441v2.204l2.067 0.807v-3.011h1.958v-1.837h-1.958z" fill="#fff"/></g><g transform="translate(112.66 341.92)"><path d="m0 0c-0.924 0-1.22-0.55-1.22-1.615v-4.28h-2.109v7.697h2.109v-0.368c0.517 0.405 0.961 0.55 1.517 0.55 0.629 0 1.109-0.145 1.627-0.55l-0.704-2.095c-0.296 0.478-0.813 0.661-1.22 0.661" fill="#fff"/></g><g transform="translate(118.26 339.9)"><path d="m0 0c0-1.102 0.599-1.983 1.437-1.983 0.773 0 1.473 0.881 1.473 1.983 0 1.139-0.7 2.02-1.473 2.02-0.811 0-1.437-0.881-1.437-2.02m-2.101 0c0 2.267 1.547 4.004 3.538 4.004 1.837 0 3.611-1.8 3.611-4.004s-1.732-3.967-3.611-3.967c-1.914 0-3.538 1.763-3.538 3.967" fill="#fff"/></g><g transform="translate(128.67 341.19)"><path d="m0 0v-2.498c0.292-0.515 0.703-0.735 1.22-0.735 0.848 0 1.514 0.882 1.514 1.983 0 1.1-0.666 1.98-1.551 1.98-0.478 0-0.891-0.22-1.183-0.73m0-4.743v-2.682l-2.104-0.77v10.724h2.104v-0.331c0.37 0.366 0.96 0.51 1.551 0.51 1.773 0 3.285-1.836 3.285-3.966s-1.565-3.961-3.374-3.961c-0.447 0-1.102 0.213-1.462 0.476" fill="#fff"/></g><g transform="translate(137.92 339.9)"><path d="m0 0c0-1.102 0.599-1.983 1.437-1.983 0.773 0 1.473 0.881 1.473 1.983 0 1.139-0.7 2.02-1.473 2.02-0.811 0-1.437-0.881-1.437-2.02m-2.101 0c0 2.267 1.547 4.004 3.538 4.004 1.837 0 3.611-1.8 3.611-4.004s-1.732-3.967-3.611-3.967c-1.914 0-3.538 1.763-3.538 3.967" fill="#fff"/></g><g transform="translate(146.23 345.87)"><path d="m0 0 2.101 0.808v-10.654h-2.101z" fill="#fff"/></g><g transform="translate(152.57 345.65)"><path d="m0 0c0 0.588 0.443 1.027 0.996 1.027 0.589 0 1.032-0.44 1.032-1.028 0-0.568-0.461-1.027-1.029-1.027-0.552 0-0.999 0.478-0.999 1.028m-0.037-1.984h2.101v-7.641h-2.101z" fill="#fff"/></g><g transform="translate(157.68 336.71)"><path d="m0 0 0.817 1.837c0.779-0.368 1.817-0.588 2.598-0.588 0.853 0 1.409 0.147 1.409 0.441 0 0.533-0.805 0.478-1.957 0.816-1.65 0.483-2.645 1.086-2.645 2.49 0 1.359 1.225 2.203 3.154 2.203 1.076 0 2.116-0.218 3.34-0.807l-0.816-1.838c-0.778 0.405-1.744 0.661-2.449 0.661-0.778 0-1.113-0.109-1.113-0.403s0.148-0.368 1.262-0.552c2.224-0.441 3.339-1.249 3.339-2.682 0-1.939-1.998-2.314-3.404-2.314-1.09 0-2.184 0.067-3.535 0.736" fill="#fff"/></g><g transform="translate(95.98 321.57)"><path d="m0 0v6.576h2.074v-6.502c0-1.139 1.073-2.095 2.22-2.095 1.142 0 2.148 0.84 2.148 2.13v6.467h2.073v-6.481c0-2.454-1.971-4.208-4.184-4.208-2.295 0-4.331 1.873-4.331 4.113" fill="#fff"/></g><g transform="translate(110.42 320.63)"><path d="m0 0c0-0.697 0.172-1.036 0.709-1.036 0.629 0 0.803 0.115 1.249 0.558l-0.554-2.167c-0.472-0.253-0.919-0.404-1.366-0.404-1.441 0-2.105 0.844-2.105 2.35v3.565h-1.441v1.837h1.441v2.203l2.067 0.808v-3.011h1.958v-1.837h-1.958z" fill="#fff"/></g><g transform="translate(116.9 321.52)"><path d="m0 0c0-1.102 0.599-1.983 1.437-1.983 0.773 0 1.473 0.881 1.473 1.983 0 1.139-0.7 2.02-1.473 2.02-0.811 0-1.437-0.881-1.437-2.02m-2.101 0c0 2.267 1.547 4.004 3.538 4.004 1.837 0 3.611-1.8 3.611-4.004s-1.732-3.967-3.611-3.967c-1.914 0-3.538 1.763-3.538 3.967" fill="#fff"/></g><g transform="translate(127.31 322.81)"><path d="m0 0v-2.498c0.292-0.515 0.703-0.735 1.22-0.735 0.848 0 1.514 0.882 1.514 1.983 0 1.1-0.666 1.98-1.551 1.98-0.478 0-0.891-0.22-1.183-0.73m0-4.743v-2.682l-2.104-0.77v10.724h2.104v-0.331c0.37 0.366 0.96 0.51 1.551 0.51 1.773 0 3.284-1.836 3.284-3.966s-1.564-3.961-3.373-3.961c-0.447 0-1.102 0.213-1.462 0.476" fill="#fff"/></g><g transform="translate(135.44 327.27)"><path d="m0 0c0 0.588 0.443 1.027 0.995 1.027 0.59 0 1.033-0.44 1.033-1.028 0-0.568-0.461-1.027-1.029-1.027-0.552 0-0.999 0.478-0.999 1.028m-0.037-1.984h2.101v-7.641h-2.101z" fill="#fff"/></g><g transform="translate(145.7 319.73)"><path d="m0 0v0.993c-0.628 0.219-1.365 0.329-1.77 0.329-0.674 0-1.181-0.366-1.181-0.844s0.678-0.883 1.403-0.883c0.457 0 1.149 0.182 1.548 0.405m0-1.839c-0.739-0.291-1.438-0.363-2.029-0.363-1.698 0-2.916 1.065-2.916 2.571 0 1.584 1.366 2.754 3.175 2.754 0.442 0 1.142-0.072 1.77-0.293-0.037 0.734-0.579 1.028-1.365 1.028-0.738 0-1.439-0.182-2.177-0.588l-0.775 1.653c1.144 0.589 1.92 0.808 2.955 0.808 2.099 0 3.357-1.029 3.357-3.16v-4.664h-1.995z" fill="#fff"/></g><g transform="translate(102.14 388.43)"><path d="m0 0c-1.155 0-2.095 0.939-2.095 2.095v15.759c0 1.156 0.94 2.095 2.095 2.095h70.917c1.156 0 2.095-0.939 2.095-2.095v-15.759c0-1.156-0.939-2.095-2.095-2.095z" fill="#fff"/></g><g transform="translate(173.06 408.51)"><path d="m0 0h-70.917c-1.224 0-2.22-0.996-2.22-2.22v-15.759c0-1.224 0.996-2.22 2.22-2.22h70.917c1.224 0 2.22 0.996 2.22 2.22v15.759c0 1.224-0.996 2.22-2.22 2.22m0-0.25c1.088 0 1.97-0.882 1.97-1.97v-15.759c0-1.088-0.882-1.97-1.97-1.97h-70.917c-1.088 0-1.97 0.882-1.97 1.97v15.759c0 1.088 0.882 1.97 1.97 1.97z"/></g><g transform="translate(102.14 389.87)"><path d="m0 0c-0.362 0-0.657 0.294-0.657 0.657v15.759c0 0.362 0.295 0.657 0.657 0.657h70.917c0.362 0 0.657-0.295 0.657-0.657v-15.759c0-0.363-0.295-0.657-0.657-0.657z" fill="#006f51"/></g><g transform="translate(112.34 395.12)"><path d="m0 0v6.566h4.809v-1.175h-3.607v-1.221h1.966v-1.198h-1.966v-1.797h3.723v-1.175z" fill="#fff"/></g><path d="m125.66 401.69h1.182v-6.566h-1.182z" fill="#fff"/><g transform="translate(131.22 400.54)"><path d="m0 0v-5.414h-1.151v5.414h-1.887v1.152h4.925v-1.152z" fill="#fff"/></g><g transform="translate(122.69 395.12)"><path d="m0 0-1.481 2.327-1.458-2.327h-1.388l2.152 3.456-1.967 3.11h1.411l1.25-2.004 1.25 2.004h1.411l-1.944-3.11 2.153-3.456z" fill="#fff"/></g><g transform="translate(145.2 397.08)"><path d="m0 0h3.836v3.94zm5.565-3.594h-1.729v2.005h-6.083v1.589l6.083 6.256h1.729v-6.256h1.452v-1.589h-1.452z" fill="#fff"/></g><g transform="translate(155.84 397.08)"><path d="m0 0h3.836v3.94zm5.565-3.594h-1.729v2.005h-6.083v1.589l6.083 6.256h1.729v-6.256h1.452v-1.589h-1.452z" fill="#fff"/></g><g transform="translate(121.74 354.33)"><path d="m0 0c-1.055 1.277-2.609 2.01-4.265 2.01h-0.777c-3.753 0-6.806 3.052-6.806 6.805 0 0.984 0.205 1.932 0.609 2.82 1.111 2.418 0.891 5.18-0.588 7.389l-0.057 0.085 4.778 4.779 0.088-0.073c0.986-0.815 2.236-1.264 3.518-1.264 1.281 0 2.53 0.449 3.517 1.264l0.079 0.066 0.08-0.066c0.987-0.815 2.236-1.264 3.517-1.264 1.282 0 2.532 0.449 3.519 1.264l0.087 0.073 4.778-4.779-0.057-0.085c-1.479-2.209-1.699-4.971-0.588-7.389 0.404-0.889 0.609-1.838 0.609-2.82 0-3.753-3.053-6.805-6.806-6.805h-0.778c-1.655 0-3.209-0.733-4.265-2.01l-0.096-0.117z" fill="#fff"/></g><g transform="translate(129.05 378.39)"><path d="m0 0-0.175-0.145c-0.964-0.796-2.186-1.235-3.438-1.235-1.253 0-2.474 0.439-3.438 1.235l-0.159 0.132-0.16-0.132c-0.964-0.796-2.185-1.235-3.438-1.235s-2.474 0.439-3.438 1.235l-0.175 0.145-4.931-4.931 0.114-0.171c1.454-2.172 1.671-4.889 0.579-7.267-0.412-0.905-0.621-1.871-0.621-2.871 0-3.822 3.109-6.931 6.93-6.931h0.779c1.617 0 3.137-0.716 4.168-1.965l0.193-0.233 0.192 0.233c1.031 1.249 2.551 1.965 4.168 1.965h0.778c3.822 0 6.931 3.109 6.931 6.931 0 1-0.209 1.966-0.621 2.87-1.092 2.38-0.875 5.096 0.579 7.268l0.114 0.171-4.77 4.77zm-0.016-0.337 4.625-4.626c-1.547-2.311-1.679-5.155-0.598-7.51 0.384-0.843 0.598-1.78 0.598-2.767 0-3.69-2.991-6.681-6.681-6.681h-0.778c-1.755 0-3.324-0.8-4.36-2.056-1.037 1.256-2.606 2.056-4.361 2.056h-0.779c-3.689 0-6.68 2.991-6.68 6.681 0 0.987 0.214 1.924 0.598 2.767 1.081 2.355 0.949 5.199-0.598 7.51l4.625 4.626c0.977-0.808 2.231-1.293 3.597-1.293 1.367 0 2.62 0.485 3.598 1.293 0.977-0.808 2.23-1.293 3.597-1.293 1.366 0 2.62 0.485 3.597 1.293"/></g><g transform="translate(114.17 365.46)"><path d="m0 0h3.373v4.438zm5.248-4.645h-1.875v2.944h-5.871v1.119l5.871 7.756h1.875v-7.174h1.124v-1.701h-1.124z"/></g><g transform="translate(125.64 365.46)"><path d="m0 0h3.373v4.438zm5.248-4.645h-1.875v2.944h-5.871v1.119l5.871 7.756h1.875v-7.174h1.124v-1.701h-1.124z"/></g><g transform="translate(74.685 152.64)"><path d="m0 0c-3.328 0-6.035 2.707-6.035 6.035v82.736c0 3.329 2.707 6.036 6.035 6.036h94.556c3.328 0 6.035-2.707 6.035-6.036v-82.736c0-3.328-2.707-6.035-6.035-6.035z" fill="#fff"/></g><g transform="translate(169.24 247.58)"><path d="m0 0h-94.556c-3.397 0-6.16-2.763-6.16-6.16v-82.736c0-3.397 2.763-6.16 6.16-6.16h94.556c3.396 0 6.16 2.763 6.16 6.16v82.736c0 3.397-2.764 6.16-6.16 6.16m0-0.25c3.264 0 5.91-2.646 5.91-5.91v-82.736c0-3.264-2.646-5.91-5.91-5.91h-94.556c-3.264 0-5.91 2.646-5.91 5.91v82.736c0 3.264 2.646 5.91 5.91 5.91z"/></g><g transform="translate(169.24 246.01)"><path d="m0 0h-94.556c-2.539 0-4.597-2.058-4.597-4.596v-82.737c0-2.539 2.058-4.597 4.597-4.597h94.556c2.539 0 4.596 2.058 4.596 4.597v82.737c0 2.538-2.057 4.596-4.596 4.596" fill="#006f51"/></g><g transform="translate(86.901 200.49)"><path d="m0 0-2.793-5.694-2.867 5.694v-5.694h-2.058v10.506h2.058l2.867-5.768 2.793 5.768h2.058v-10.506h-2.058z" fill="#fff"/></g><g transform="translate(93.838 199.68)"><path d="m0 0h2.511c-0.296 0.772-0.629 1.065-1.219 1.065-0.557 0-1.07-0.368-1.292-1.065m1.402-3.122c0.443 0 0.85 0.255 1.183 0.698l1.439-1.249c-0.775-0.918-1.588-1.321-2.622-1.321-1.943 0-3.653 1.725-3.653 3.966 0 2.205 1.66 3.967 3.543 3.967 1.387 0 3.396-1.022 3.396-4.372v-0.293h-4.798c0.222-0.881 0.835-1.396 1.512-1.396" fill="#fff"/></g><g transform="translate(104.14 197.79)"><path d="m0 0c0-0.697 0.172-1.036 0.709-1.036 0.629 0 0.803 0.115 1.249 0.558l-0.554-2.167c-0.472-0.253-0.919-0.404-1.366-0.404-1.441 0-2.105 0.844-2.105 2.35v3.565h-1.441v1.837h1.441v2.203l2.067 0.808v-3.011h1.958v-1.837h-1.958z" fill="#fff"/></g><g transform="translate(112.78 200.69)"><path d="m0 0c-0.924 0-1.22-0.55-1.22-1.615v-4.28h-2.109v7.697h2.109v-0.368c0.517 0.405 0.961 0.55 1.517 0.55 0.629 0 1.11-0.145 1.627-0.55l-0.704-2.095c-0.296 0.478-0.813 0.661-1.22 0.661" fill="#fff"/></g><g transform="translate(118.39 198.67)"><path d="m0 0c0-1.102 0.599-1.983 1.437-1.983 0.773 0 1.473 0.881 1.473 1.983 0 1.139-0.7 2.02-1.473 2.02-0.811 0-1.437-0.881-1.437-2.02m-2.101 0c0 2.267 1.547 4.004 3.538 4.004 1.837 0 3.611-1.8 3.611-4.004s-1.732-3.967-3.611-3.967c-1.914 0-3.538 1.763-3.538 3.967" fill="#fff"/></g><g transform="translate(128.8 199.96)"><path d="m0 0v-2.498c0.292-0.515 0.703-0.735 1.22-0.735 0.848 0 1.514 0.882 1.514 1.983 0 1.1-0.666 1.98-1.551 1.98-0.478 0-0.891-0.22-1.183-0.73m0-4.744v-2.681l-2.104-0.77v10.724h2.104v-0.331c0.37 0.366 0.96 0.51 1.551 0.51 1.773 0 3.284-1.836 3.284-3.966s-1.564-3.961-3.373-3.961c-0.447 0-1.102 0.213-1.462 0.475" fill="#fff"/></g><g transform="translate(138.04 198.67)"><path d="m0 0c0-1.102 0.599-1.983 1.437-1.983 0.773 0 1.473 0.881 1.473 1.983 0 1.139-0.7 2.02-1.473 2.02-0.811 0-1.437-0.881-1.437-2.02m-2.101 0c0 2.267 1.547 4.004 3.538 4.004 1.837 0 3.611-1.8 3.611-4.004s-1.732-3.967-3.611-3.967c-1.914 0-3.538 1.763-3.538 3.967" fill="#fff"/></g><g transform="translate(146.35 204.64)"><path d="m0 0 2.101 0.808v-10.654h-2.101z" fill="#fff"/></g><g transform="translate(152.69 204.42)"><path d="m0 0c0 0.588 0.443 1.027 0.995 1.027 0.59 0 1.033-0.44 1.033-1.028 0-0.568-0.461-1.027-1.029-1.027-0.553 0-0.999 0.478-0.999 1.028m-0.037-1.984h2.101v-7.641h-2.101z" fill="#fff"/></g><g transform="translate(157.8 195.47)"><path d="m0 0 0.817 1.837c0.779-0.367 1.817-0.588 2.598-0.588 0.853 0 1.409 0.147 1.409 0.441 0 0.533-0.805 0.478-1.957 0.816-1.65 0.483-2.645 1.086-2.645 2.49 0 1.359 1.225 2.203 3.154 2.203 1.076 0 2.116-0.218 3.34-0.807l-0.816-1.838c-0.778 0.405-1.744 0.661-2.449 0.661-0.778 0-1.113-0.109-1.113-0.403s0.148-0.368 1.262-0.552c2.224-0.441 3.339-1.249 3.339-2.681 0-1.94-1.998-2.314-3.404-2.314-1.09 0-2.184 0.067-3.535 0.735" fill="#fff"/></g><g transform="translate(96.104 180.34)"><path d="m0 0v6.576h2.074v-6.502c0-1.139 1.073-2.095 2.22-2.095 1.142 0 2.148 0.84 2.148 2.13v6.467h2.073v-6.481c0-2.454-1.971-4.208-4.184-4.208-2.295 0-4.331 1.873-4.331 4.113" fill="#fff"/></g><g transform="translate(110.54 179.4)"><path d="m0 0c0-0.697 0.172-1.036 0.709-1.036 0.629 0 0.803 0.115 1.249 0.558l-0.554-2.167c-0.472-0.253-0.919-0.404-1.366-0.404-1.441 0-2.105 0.844-2.105 2.35v3.565h-1.441v1.837h1.441v2.204l2.067 0.807v-3.011h1.958v-1.837h-1.958z" fill="#fff"/></g><g transform="translate(117.02 180.28)"><path d="m0 0c0-1.102 0.599-1.983 1.437-1.983 0.773 0 1.473 0.881 1.473 1.983 0 1.139-0.7 2.02-1.473 2.02-0.811 0-1.437-0.881-1.437-2.02m-2.101 0c0 2.267 1.547 4.004 3.538 4.004 1.837 0 3.611-1.8 3.611-4.004s-1.732-3.967-3.611-3.967c-1.914 0-3.538 1.763-3.538 3.967" fill="#fff"/></g><g transform="translate(127.43 181.57)"><path d="m0 0v-2.498c0.292-0.515 0.703-0.735 1.22-0.735 0.848 0 1.514 0.882 1.514 1.983 0 1.1-0.666 1.98-1.551 1.98-0.478 0-0.891-0.22-1.183-0.73m0-4.743v-2.682l-2.104-0.77v10.724h2.104v-0.331c0.37 0.365 0.96 0.51 1.551 0.51 1.773 0 3.284-1.836 3.284-3.966s-1.564-3.961-3.373-3.961c-0.447 0-1.102 0.213-1.462 0.476" fill="#fff"/></g><g transform="translate(135.56 186.03)"><path d="m0 0c0 0.588 0.442 1.027 0.995 1.027 0.59 0 1.033-0.44 1.033-1.028 0-0.568-0.461-1.027-1.029-1.027-0.553 0-0.999 0.478-0.999 1.028m-0.037-1.984h2.101v-7.641h-2.101z" fill="#fff"/></g><g transform="translate(145.83 178.5)"><path d="m0 0v0.993c-0.628 0.219-1.365 0.33-1.77 0.33-0.674 0-1.181-0.367-1.181-0.845s0.678-0.882 1.403-0.882c0.457 0 1.149 0.181 1.548 0.404m0-1.839c-0.739-0.291-1.438-0.363-2.029-0.363-1.698 0-2.915 1.065-2.915 2.571 0 1.584 1.365 2.754 3.174 2.754 0.442 0 1.142-0.072 1.77-0.293-0.037 0.734-0.579 1.029-1.365 1.029-0.737 0-1.439-0.183-2.177-0.589l-0.775 1.654c1.144 0.588 1.92 0.807 2.955 0.807 2.099 0 3.357-1.029 3.357-3.16v-4.664h-1.995z" fill="#fff"/></g><g transform="translate(102.26 247.2)"><path d="m0 0c-1.155 0-2.095 0.939-2.095 2.095v15.759c0 1.156 0.94 2.095 2.095 2.095h70.917c1.156 0 2.095-0.939 2.095-2.095v-15.759c0-1.156-0.939-2.095-2.095-2.095z" fill="#fff"/></g><g transform="translate(173.18 267.27)"><path d="m0 0h-70.917c-1.224 0-2.22-0.996-2.22-2.22v-15.759c0-1.224 0.996-2.22 2.22-2.22h70.917c1.224 0 2.22 0.996 2.22 2.22v15.759c0 1.224-0.996 2.22-2.22 2.22m0-0.25c1.088 0 1.97-0.882 1.97-1.97v-15.759c0-1.088-0.882-1.97-1.97-1.97h-70.917c-1.088 0-1.97 0.882-1.97 1.97v15.759c0 1.088 0.882 1.97 1.97 1.97z"/></g><g transform="translate(102.26 248.64)"><path d="m0 0c-0.362 0-0.657 0.295-0.657 0.657v15.759c0 0.362 0.295 0.657 0.657 0.657h70.917c0.362 0 0.657-0.295 0.657-0.657v-15.759c0-0.362-0.295-0.657-0.657-0.657z" fill="#006f51"/></g><g transform="translate(112.46 253.89)"><path d="m0 0v6.566h4.809v-1.175h-3.607v-1.221h1.966v-1.198h-1.966v-1.797h3.723v-1.175z" fill="#fff"/></g><path d="m125.78 260.46h1.182v-6.566h-1.182z" fill="#fff"/><g transform="translate(131.34 259.31)"><path d="m0 0v-5.414h-1.151v5.414h-1.887v1.152h4.925v-1.152z" fill="#fff"/></g><g transform="translate(122.82 253.89)"><path d="m0 0-1.481 2.327-1.458-2.327h-1.389l2.153 3.456-1.967 3.11h1.411l1.25-2.004 1.25 2.004h1.411l-1.944-3.11 2.152-3.456z" fill="#fff"/></g><g transform="translate(145.32 255.84)"><path d="m0 0h3.836v3.94zm5.565-3.594h-1.729v2.004h-6.083v1.59l6.083 6.256h1.729v-6.256h1.452v-1.59h-1.452z" fill="#fff"/></g><g transform="translate(155.97 255.84)"><path d="m0 0h3.836v3.94zm5.565-3.594h-1.729v2.004h-6.083v1.59l6.083 6.256h1.729v-6.256h1.452v-1.59h-1.452z" fill="#fff"/></g><g transform="translate(121.87 213.1)"><path d="m0 0c-1.055 1.277-2.609 2.01-4.265 2.01h-0.777c-3.753 0-6.806 3.052-6.806 6.805 0 0.984 0.205 1.932 0.609 2.819 1.111 2.419 0.89 5.181-0.588 7.389l-0.057 0.085 4.777 4.779 0.088-0.073c0.988-0.815 2.237-1.263 3.518-1.263 1.282 0 2.531 0.448 3.518 1.263l0.079 0.066 0.08-0.066c0.987-0.815 2.236-1.263 3.517-1.263 1.282 0 2.531 0.448 3.518 1.263l0.088 0.073 4.778-4.779-0.057-0.085c-1.478-2.208-1.699-4.97-0.588-7.389 0.404-0.888 0.609-1.836 0.609-2.819 0-3.753-3.053-6.805-6.806-6.805h-0.778c-1.655 0-3.21-0.733-4.265-2.011l-0.096-0.116z" fill="#fff"/></g><g transform="translate(129.17 237.16)"><path d="m0 0-0.175-0.145c-0.964-0.796-2.186-1.235-3.438-1.235-1.253 0-2.474 0.439-3.438 1.235l-0.159 0.132-0.16-0.132c-0.964-0.796-2.185-1.235-3.438-1.235s-2.474 0.439-3.438 1.235l-0.175 0.145-4.931-4.931 0.114-0.171c1.454-2.172 1.671-4.888 0.579-7.267-0.412-0.904-0.621-1.87-0.621-2.871 0-3.822 3.109-6.931 6.931-6.931h0.778c1.617 0 3.137-0.716 4.168-1.965l0.193-0.233 0.192 0.233c1.031 1.249 2.551 1.965 4.168 1.965h0.778c3.822 0 6.931 3.109 6.931 6.931 0 1.001-0.209 1.967-0.621 2.87-1.092 2.38-0.875 5.096 0.579 7.268l0.114 0.171-4.77 4.77zm-0.016-0.337 4.625-4.625c-1.547-2.312-1.679-5.156-0.598-7.511 0.384-0.843 0.598-1.78 0.598-2.767 0-3.69-2.991-6.681-6.681-6.681h-0.778c-1.755 0-3.324-0.8-4.36-2.056-1.037 1.256-2.606 2.056-4.361 2.056h-0.778c-3.69 0-6.681 2.991-6.681 6.681 0 0.987 0.214 1.924 0.598 2.767 1.081 2.355 0.949 5.199-0.598 7.511l4.625 4.625c0.977-0.808 2.231-1.293 3.597-1.293 1.367 0 2.62 0.485 3.598 1.293 0.977-0.808 2.23-1.293 3.597-1.293 1.366 0 2.62 0.485 3.597 1.293"/></g><g transform="translate(114.29 224.23)"><path d="m0 0h3.373v4.438zm5.248-4.645h-1.875v2.944h-5.871v1.119l5.871 7.756h1.875v-7.174h1.124v-1.701h-1.124z"/></g><g transform="translate(125.76 224.23)"><path d="m0 0h3.373v4.438zm5.248-4.645h-1.875v2.944h-5.871v1.119l5.871 7.756h1.875v-7.174h1.124v-1.701h-1.124z"/></g><g transform="translate(122.52 164.33)"><path d="m0 0-1.943-4.009-1.919 4.009v-4.009h-1.157v6.567h1.157l1.919-3.894 1.943 3.894h1.157v-6.567h-1.157z" fill="#fff"/></g><path d="m125.38 166.89h1.182v-6.566h-1.182z" fill="#fff"/><g transform="translate(128.27 166.89)"><path d="m0 0h1.179v-5.553h3.746v-1.013h-4.925z" fill="#fff"/></g><g transform="translate(134.31 166.89)"><path d="m0 0h4.809v-1.175h-3.607v-1.221h1.965v-1.198h-1.965v-1.797h3.723v-1.175h-4.925z" fill="#fff"/></g><g transform="translate(105.96 166.04)"><path d="m0 0h-1.272v1.417c0.756 0.174 1.17 0.45 1.547 1.071h1.408v-9.849h-1.683z" fill="#fff"/></g></g><text transform="matrix(1 0 0 -1 422.99 372.52)" fill="black" font-family="Helvetica" font-size="9px"><tspan x="0 7.0019999" y="0">OR</tspan><tspan x="-19.701 -12.699" y="84.491997">OR</tspan><tspan x="-19.701 -12.699" y="172.19701">OR</tspan></text><g clip-path="url(#a)"><g transform="translate(294.89 240.35)"><path d="m0 0c-3.328 0-6.035 2.707-6.035 6.034v59.098c0 3.328 2.707 6.035 6.035 6.035h98.497c3.327 0 6.034-2.707 6.034-6.035v-59.098c0-3.327-2.707-6.034-6.034-6.034z" fill="#fff"/></g><g transform="translate(393.38 311.64)"><path d="m0 0h-98.496c-3.397 0-6.16-2.763-6.16-6.16v-59.098c0-3.396 2.763-6.159 6.16-6.159h98.496c3.396 0 6.16 2.763 6.16 6.159v59.098c0 3.397-2.764 6.16-6.16 6.16m0-0.25c3.264 0 5.91-2.646 5.91-5.91v-59.098c0-3.263-2.646-5.909-5.91-5.909h-98.496c-3.264 0-5.91 2.646-5.91 5.909v59.098c0 3.264 2.646 5.91 5.91 5.91z"/></g><g transform="translate(290.29 246.38)"><path d="m0 0v59.109c0 2.535 2.055 4.591 4.591 4.591h98.507c2.536 0 4.591-2.056 4.591-4.591v-59.109c0-2.536-2.055-4.591-4.591-4.591h-98.507c-2.536 0-4.591 2.055-4.591 4.591" fill="#005a9c"/></g><g transform="translate(323.61 272.65)"><path d="m0 0h-26.266v19.699h26.266z" fill="none" stroke="#fff" stroke-miterlimit="10" stroke-width=".5"/></g><g transform="translate(323.61 247.21)"><path d="m0 0h-26.266v19.699h26.266z" fill="none" stroke="#fff" stroke-miterlimit="10" stroke-width=".5"/></g><g transform="translate(357.27 272.65)"><path d="m0 0h-26.266v19.699h26.266z" fill="none" stroke="#fff" stroke-miterlimit="10" stroke-width=".5"/></g><g transform="translate(357.27 247.21)"><path d="m0 0h-26.266v19.699h26.266z" fill="none" stroke="#fff" stroke-miterlimit="10" stroke-width=".5"/></g><g transform="translate(390.92 272.65)"><path d="m0 0h-26.266v19.699h26.266z" fill="none" stroke="#fff" stroke-miterlimit="10" stroke-width=".5"/></g><g transform="translate(390.92 247.21)"><path d="m0 0h-26.266v19.699h26.266z" fill="none" stroke="#fff" stroke-miterlimit="10" stroke-width=".5"/></g><path d="m335.04 301.1h3.283v-1.331h-3.283z" fill="#fff"/><g transform="translate(341.6 304.66)"><path d="m0 0h4.77v-1.308h-3.485v-1.08h1.972v-1.308h-1.972v-1.562h3.577v-1.308h-4.862z" fill="#fff"/></g><g transform="translate(350.26 300.3)"><path d="m0 0-1.354-2.204h-1.515l2.066 3.467-1.882 3.099h1.538l1.147-1.859 1.102 1.859h1.561l-1.86-3.124 2.043-3.442h-1.538z" fill="#fff"/></g><path d="m354.48 304.66h1.313v-6.566h-1.313z" fill="#fff"/><g transform="translate(360.05 298.1)"><path d="m0 0h-1.261v5.258h-1.812v1.308h4.862v-1.308h-1.789z" fill="#fff"/></g><g transform="translate(370.11 300.76)"><path d="m0 0h2.136v2.136zm3.423-2.663h-1.287v1.447h-3.836v1.217l3.836 3.903h1.287v-3.903h0.987v-1.217h-0.987z" fill="#fff"/></g><g transform="translate(377.33 300.76)"><path d="m0 0h2.136v2.136zm3.423-2.663h-1.287v1.447h-3.836v1.217l3.836 3.903h1.287v-3.903h0.987v-1.217h-0.987z" fill="#fff"/></g><g transform="translate(307.81 302.18)"><path d="m0 0h2.11v-1.308h-2.11v-2.779h-1.285v6.567h4.863v-1.309h-3.578z" fill="#fff"/></g><g transform="translate(313.82 301.38)"><path d="m0 0c0-1.331 0.531-2.089 1.454-2.089 0.901 0 1.456 0.827 1.456 2.112 0 1.421-0.535 2.043-1.456 2.043-0.947 0-1.454-0.689-1.454-2.066m-1.316-1e-3c0 2.067 1.062 3.375 2.77 3.375 1.594 0 2.749-1.36 2.749-3.375 0-2.089-1.086-3.397-2.749-3.397-1.983 0-2.77 1.688-2.77 3.397" fill="#fff"/></g><g transform="translate(320.65 301.38)"><path d="m0 0c0-1.331 0.531-2.089 1.454-2.089 0.901 0 1.456 0.827 1.456 2.112 0 1.421-0.535 2.043-1.456 2.043-0.947 0-1.454-0.689-1.454-2.066m-1.316-1e-3c0 2.067 1.062 3.375 2.77 3.375 1.594 0 2.748-1.36 2.748-3.375 0-2.089-1.085-3.397-2.748-3.397-1.983 0-2.77 1.688-2.77 3.397" fill="#fff"/></g><g transform="translate(327.73 303.35)"><path d="m0 0v-3.95h0.833c1.185 0 1.897 0.735 1.897 1.975s-0.712 1.975-1.897 1.975zm-1.296-5.258v6.566h2.059c2.005 0 3.263-1.308 3.263-3.283 0-1.998-1.296-3.283-3.263-3.283z" fill="#fff"/></g><g transform="translate(426.7 266.94)"><path d="m0 0c-3.327 0-6.034 2.707-6.034 6.034v31.52c0 3.327 2.707 6.034 6.034 6.034h98.497c3.327 0 6.034-2.707 6.034-6.034v-31.52c0-3.327-2.707-6.034-6.034-6.034z" fill="#fff"/></g><g transform="translate(525.2 310.65)"><path d="m0 0h-98.496c-3.397 0-6.16-2.763-6.16-6.16v-31.519c0-3.396 2.763-6.159 6.16-6.159h98.496c3.396 0 6.159 2.763 6.159 6.159v31.519c0 3.397-2.763 6.16-6.159 6.16m0-0.25c3.264 0 5.909-2.646 5.909-5.91v-31.519c0-3.263-2.645-5.909-5.909-5.909h-98.496c-3.264 0-5.91 2.646-5.91 5.909v31.519c0 3.264 2.646 5.91 5.91 5.91z"/></g><g transform="translate(422.11 272.97)"><path d="m0 0v31.53c0 2.535 2.055 4.591 4.591 4.591h98.507c2.535 0 4.591-2.056 4.591-4.591v-31.53c0-2.536-2.056-4.591-4.591-4.591h-98.507c-2.536 0-4.591 2.055-4.591 4.591" fill="#005a9c"/></g><g transform="translate(455.43 271.66)"><path d="m0 0h-26.266v19.699h26.266z" fill="none" stroke="#fff" stroke-miterlimit="10" stroke-width=".5"/></g><g transform="translate(489.08 271.66)"><path d="m0 0h-26.266v19.699h26.266z" fill="none" stroke="#fff" stroke-miterlimit="10" stroke-width=".5"/></g><g transform="translate(522.74 271.66)"><path d="m0 0h-26.266v19.699h26.266z" fill="none" stroke="#fff" stroke-miterlimit="10" stroke-width=".5"/></g><path d="m466.85 301.1h3.283v-1.331h-3.283z" fill="#fff"/><g transform="translate(473.42 304.66)"><path d="m0 0h4.77v-1.308h-3.485v-1.08h1.972v-1.308h-1.972v-1.562h3.577v-1.308h-4.862z" fill="#fff"/></g><g transform="translate(482.07 300.3)"><path d="m0 0-1.354-2.204h-1.515l2.065 3.467-1.882 3.099h1.539l1.147-1.859 1.101 1.859h1.562l-1.859-3.124 2.042-3.442h-1.538z" fill="#fff"/></g><path d="m486.3 304.66h1.313v-6.566h-1.313z" fill="#fff"/><g transform="translate(491.87 298.1)"><path d="m0 0h-1.261v5.258h-1.812v1.308h4.862v-1.308h-1.789z" fill="#fff"/></g><g transform="translate(501.92 300.76)"><path d="m0 0h2.136v2.136zm3.423-2.663h-1.287v1.447h-3.836v1.217l3.836 3.903h1.287v-3.903h0.987v-1.217h-0.987z" fill="#fff"/></g><g transform="translate(509.15 300.76)"><path d="m0 0h2.137v2.136zm3.423-2.663h-1.286v1.447h-3.837v1.217l3.837 3.903h1.286v-3.903h0.987v-1.217h-0.987z" fill="#fff"/></g><g transform="translate(439.63 302.18)"><path d="m0 0h2.11v-1.308h-2.11v-2.779h-1.285v6.567h4.863v-1.309h-3.578z" fill="#fff"/></g><g transform="translate(445.64 301.38)"><path d="m0 0c0-1.331 0.531-2.089 1.454-2.089 0.901 0 1.456 0.827 1.456 2.112 0 1.421-0.536 2.043-1.456 2.043-0.947 0-1.454-0.689-1.454-2.066m-1.317-1e-3c0 2.067 1.062 3.375 2.771 3.375 1.594 0 2.748-1.36 2.748-3.375 0-2.089-1.085-3.397-2.748-3.397-1.983 0-2.771 1.688-2.771 3.397" fill="#fff"/></g><g transform="translate(452.47 301.38)"><path d="m0 0c0-1.331 0.531-2.089 1.454-2.089 0.901 0 1.456 0.827 1.456 2.112 0 1.421-0.535 2.043-1.456 2.043-0.947 0-1.454-0.689-1.454-2.066m-1.317-1e-3c0 2.067 1.063 3.375 2.771 3.375 1.594 0 2.748-1.36 2.748-3.375 0-2.089-1.085-3.397-2.748-3.397-1.983 0-2.771 1.688-2.771 3.397" fill="#fff"/></g><g transform="translate(459.54 303.35)"><path d="m0 0v-3.95h0.833c1.185 0 1.897 0.735 1.897 1.975s-0.712 1.975-1.897 1.975zm-1.296-5.258v6.566h2.059c2.005 0 3.263-1.308 3.263-3.283 0-1.998-1.296-3.283-3.263-3.283z" fill="#fff"/></g><g transform="translate(294.89 152.64)"><path d="m0 0c-3.328 0-6.035 2.707-6.035 6.035v59.098c0 3.327 2.707 6.034 6.035 6.034h98.497c3.327 0 6.034-2.707 6.034-6.034v-59.098c0-3.328-2.707-6.035-6.034-6.035z" fill="#fff"/></g><g transform="translate(393.38 223.94)"><path d="m0 0h-98.496c-3.397 0-6.16-2.763-6.16-6.16v-59.098c0-3.396 2.763-6.159 6.16-6.159h98.496c3.396 0 6.16 2.763 6.16 6.159v59.098c0 3.397-2.764 6.16-6.16 6.16m0-0.25c3.264 0 5.91-2.646 5.91-5.91v-59.098c0-3.263-2.646-5.909-5.91-5.909h-98.496c-3.264 0-5.91 2.646-5.91 5.909v59.098c0 3.264 2.646 5.91 5.91 5.91z"/></g><g transform="translate(290.29 158.67)"><path d="m0 0v59.109c0 2.535 2.055 4.591 4.591 4.591h98.507c2.536 0 4.591-2.056 4.591-4.591v-59.109c0-2.536-2.055-4.591-4.591-4.591h-98.507c-2.536 0-4.591 2.055-4.591 4.591" fill="#005a9c"/></g><g transform="translate(323.61 184.94)"><path d="m0 0h-26.266v19.699h26.266z" fill="none" stroke="#fff" stroke-miterlimit="10" stroke-width=".5"/></g><g transform="translate(323.61 159.5)"><path d="m0 0h-26.266v19.699h26.266z" fill="none" stroke="#fff" stroke-miterlimit="10" stroke-width=".5"/></g><g transform="translate(357.27 184.94)"><path d="m0 0h-26.266v19.699h26.266z" fill="none" stroke="#fff" stroke-miterlimit="10" stroke-width=".5"/></g><g transform="translate(357.27 159.5)"><path d="m0 0h-26.266v19.699h26.266z" fill="none" stroke="#fff" stroke-miterlimit="10" stroke-width=".5"/></g><g transform="translate(390.92 184.94)"><path d="m0 0h-26.266v19.699h26.266z" fill="none" stroke="#fff" stroke-miterlimit="10" stroke-width=".5"/></g><g transform="translate(390.92 159.5)"><path d="m0 0h-26.266v19.699h26.266z" fill="none" stroke="#fff" stroke-miterlimit="10" stroke-width=".5"/></g><g transform="translate(378.32 213.05)"><path d="m0 0h2.136v2.136zm3.423-2.663h-1.287v1.446h-3.836v1.218l3.836 3.903h1.287v-3.903h0.987v-1.218h-0.987z" fill="#fff"/></g><g transform="translate(385.54 213.05)"><path d="m0 0h2.136v2.136zm3.423-2.663h-1.287v1.446h-3.836v1.218l3.836 3.903h1.287v-3.903h0.987v-1.218h-0.987z" fill="#fff"/></g><path d="m343.25 213.4h3.283v-1.331h-3.283z" fill="#fff"/><g transform="translate(349.82 216.96)"><path d="m0 0h4.77v-1.308h-3.486v-1.08h1.973v-1.308h-1.973v-1.562h3.578v-1.308h-4.862z" fill="#fff"/></g><g transform="translate(358.47 212.59)"><path d="m0 0-1.354-2.204h-1.515l2.066 3.467-1.882 3.1h1.538l1.147-1.86 1.102 1.86h1.561l-1.86-3.124 2.043-3.443h-1.538z" fill="#fff"/></g><path d="m362.69 216.96h1.313v-6.566h-1.313z" fill="#fff"/><g transform="translate(368.26 210.39)"><path d="m0 0h-1.261v5.258h-1.812v1.308h4.862v-1.308h-1.789z" fill="#fff"/></g><g transform="translate(298.31 216.96)"><path d="m0 0h1.285v-5.326h3.577v-1.24h-4.862z" fill="#fff"/></g><g transform="translate(305.28 213.67)"><path d="m0 0c0-1.331 0.531-2.089 1.454-2.089 0.901 0 1.456 0.827 1.456 2.112 0 1.421-0.535 2.043-1.456 2.043-0.947 0-1.454-0.689-1.454-2.066m-1.317-1e-3c0 2.067 1.062 3.375 2.771 3.375 1.594 0 2.748-1.36 2.748-3.375 0-2.09-1.085-3.397-2.748-3.397-1.984 0-2.771 1.687-2.771 3.397" fill="#fff"/></g><g transform="translate(312.36 215.65)"><path d="m0 0v-3.95h0.833c1.185 0 1.897 0.735 1.897 1.975s-0.712 1.975-1.897 1.975zm-1.296-5.258v6.566h2.059c2.005 0 3.263-1.308 3.263-3.283 0-1.998-1.296-3.283-3.263-3.283z" fill="#fff"/></g><g transform="translate(317.7 213.67)"><path d="m0 0c0 1.699 0.783 3.374 2.695 3.374 1.128 0 1.958-0.642 2.373-1.63l-1.221-0.459c-0.207 0.506-0.622 0.781-1.152 0.781-1.129 0-1.359-1.148-1.359-2.067 0-0.941 0.23-2.089 1.359-2.089 0.507 0 0.922 0.276 1.152 0.781h-0.783v1.309h2.258c-0.092-1.653-0.598-3.397-2.627-3.397-1.912 0-2.695 1.698-2.695 3.397" fill="#fff"/></g><path d="m324.59 216.96h1.313v-6.566h-1.313z" fill="#fff"/><g transform="translate(329.04 214.59)"><path d="m0 0v-4.202h-1.296v6.567h1.296l2.73-4.018v4.018h1.296v-6.567h-1.134z" fill="#fff"/></g><g transform="translate(334.64 213.67)"><path d="m0 0c0 1.699 0.783 3.374 2.695 3.374 1.128 0 1.958-0.642 2.373-1.63l-1.221-0.459c-0.207 0.506-0.622 0.781-1.152 0.781-1.129 0-1.359-1.148-1.359-2.067 0-0.941 0.23-2.089 1.359-2.089 0.507 0 0.922 0.276 1.152 0.781h-0.783v1.309h2.258c-0.092-1.653-0.598-3.397-2.627-3.397-1.912 0-2.695 1.698-2.695 3.397" fill="#fff"/></g><g transform="translate(426.7 180.22)"><path d="m0 0c-3.327 0-6.034 2.707-6.034 6.034v31.52c0 3.327 2.707 6.034 6.034 6.034h98.497c3.327 0 6.034-2.707 6.034-6.034v-31.52c0-3.327-2.707-6.034-6.034-6.034z" fill="#fff"/></g><g transform="translate(525.2 223.94)"><path d="m0 0h-98.496c-3.397 0-6.16-2.763-6.16-6.16v-31.519c0-3.396 2.763-6.159 6.16-6.159h98.496c3.396 0 6.159 2.763 6.159 6.159v31.519c0 3.397-2.763 6.16-6.159 6.16m0-0.25c3.264 0 5.909-2.646 5.909-5.91v-31.519c0-3.263-2.645-5.909-5.909-5.909h-98.496c-3.264 0-5.91 2.646-5.91 5.909v31.519c0 3.264 2.646 5.91 5.91 5.91z"/></g><g transform="translate(422.11 186.25)"><path d="m0 0v31.53c0 2.535 2.055 4.591 4.591 4.591h98.507c2.535 0 4.591-2.056 4.591-4.591v-31.53c0-2.536-2.056-4.591-4.591-4.591h-98.507c-2.536 0-4.591 2.055-4.591 4.591" fill="#005a9c"/></g><g transform="translate(455.43 184.94)"><path d="m0 0h-26.266v19.699h26.266z" fill="none" stroke="#fff" stroke-miterlimit="10" stroke-width=".5"/></g><g transform="translate(489.08 184.94)"><path d="m0 0h-26.266v19.699h26.266z" fill="none" stroke="#fff" stroke-miterlimit="10" stroke-width=".5"/></g><g transform="translate(522.74 184.94)"><path d="m0 0h-26.266v19.699h26.266z" fill="none" stroke="#fff" stroke-miterlimit="10" stroke-width=".5"/></g><g transform="translate(510.13 214.04)"><path d="m0 0h2.136v2.136zm3.423-2.663h-1.287v1.447h-3.836v1.217l3.836 3.903h1.287v-3.903h0.987v-1.217h-0.987z" fill="#fff"/></g><g transform="translate(517.36 214.04)"><path d="m0 0h2.137v2.136zm3.423-2.663h-1.286v1.447h-3.837v1.217l3.837 3.903h1.286v-3.903h0.987v-1.217h-0.987z" fill="#fff"/></g><path d="m475.07 214.39h3.283v-1.331h-3.283z" fill="#fff"/><g transform="translate(481.63 217.95)"><path d="m0 0h4.77v-1.308h-3.485v-1.08h1.972v-1.308h-1.972v-1.562h3.577v-1.308h-4.862z" fill="#fff"/></g><g transform="translate(490.28 213.58)"><path d="m0 0-1.354-2.204h-1.515l2.065 3.467-1.882 3.1h1.538l1.148-1.86 1.101 1.86h1.561l-1.859-3.124 2.043-3.443h-1.538z" fill="#fff"/></g><path d="m494.51 217.94h1.313v-6.566h-1.313z" fill="#fff"/><g transform="translate(500.08 211.38)"><path d="m0 0h-1.261v5.258h-1.812v1.308h4.862v-1.308h-1.789z" fill="#fff"/></g><g transform="translate(430.13 217.95)"><path d="m0 0h1.285v-5.326h3.577v-1.241h-4.862z" fill="#fff"/></g><g transform="translate(437.1 214.66)"><path d="m0 0c0-1.331 0.531-2.089 1.454-2.089 0.901 0 1.456 0.827 1.456 2.112 0 1.421-0.535 2.043-1.456 2.043-0.947 0-1.454-0.689-1.454-2.066m-1.317-1e-3c0 2.067 1.063 3.375 2.771 3.375 1.594 0 2.749-1.36 2.749-3.375 0-2.09-1.086-3.397-2.749-3.397-1.983 0-2.771 1.687-2.771 3.397" fill="#fff"/></g><g transform="translate(444.17 216.64)"><path d="m0 0v-3.95h0.833c1.185 0 1.897 0.735 1.897 1.975s-0.712 1.975-1.897 1.975zm-1.296-5.258v6.566h2.059c2.005 0 3.263-1.308 3.263-3.283 0-1.998-1.296-3.283-3.263-3.283z" fill="#fff"/></g><g transform="translate(449.51 214.66)"><path d="m0 0c0 1.699 0.783 3.374 2.695 3.374 1.128 0 1.958-0.642 2.373-1.63l-1.221-0.459c-0.207 0.506-0.622 0.781-1.152 0.781-1.129 0-1.359-1.148-1.359-2.067 0-0.941 0.23-2.089 1.359-2.089 0.507 0 0.921 0.276 1.152 0.781h-0.783v1.309h2.258c-0.092-1.653-0.598-3.397-2.627-3.397-1.912 0-2.695 1.698-2.695 3.397" fill="#fff"/></g><path d="m456.41 217.94h1.313v-6.567h-1.313z" fill="#fff"/><g transform="translate(460.86 215.58)"><path d="m0 0v-4.202h-1.296v6.567h1.296l2.73-4.018v4.018h1.296v-6.567h-1.134z" fill="#fff"/></g><g transform="translate(466.46 214.66)"><path d="m0 0c0 1.699 0.783 3.374 2.695 3.374 1.128 0 1.958-0.642 2.373-1.63l-1.221-0.459c-0.207 0.506-0.622 0.781-1.152 0.781-1.129 0-1.36-1.148-1.36-2.067 0-0.941 0.231-2.089 1.36-2.089 0.507 0 0.921 0.276 1.152 0.781h-0.783v1.309h2.258c-0.092-1.653-0.598-3.397-2.627-3.397-1.912 0-2.695 1.698-2.695 3.397" fill="#fff"/></g><g transform="translate(286.98 365.76)"><path d="m0 0c-25.454 0-63.812-83.789-63.812-39.007" fill="none" stroke="#000" stroke-width=".75"/></g><g transform="translate(222.57 328.63)"><path d="m0 0c-0.232-0.877-0.454-1.449-0.708-2.155l2.646 0.092c-0.126 0.246-0.564 1.242-0.857 2.1-0.312 0.919-0.534 1.754-0.622 2.298-0.049-0.549-0.211-1.398-0.459-2.335"/></g><g transform="translate(286.98 277.29)"><path d="m0 0c-31.51 0-63.812-45.144-63.812-8" fill="none" stroke="#000" stroke-width=".75"/></g><g transform="translate(222.57 271.17)"><path d="m0 0c-0.232-0.877-0.454-1.449-0.708-2.155l2.646 0.093c-0.126 0.245-0.564 1.241-0.857 2.099-0.312 0.919-0.534 1.754-0.622 2.298-0.049-0.549-0.211-1.397-0.459-2.335"/></g><g transform="translate(517.88 644.7)"><path d="m0 0c-3.327 0-6.034 2.707-6.034 6.035v59.097c0 3.328 2.707 6.035 6.034 6.035h47.279c3.327 0 6.034-2.707 6.034-6.035v-59.097c0-3.328-2.707-6.035-6.034-6.035z" fill="#fff"/></g><g transform="translate(565.16 715.99)"><path d="m0 0h-47.279c-3.396 0-6.159-2.763-6.159-6.16v-59.098c0-3.396 2.763-6.159 6.159-6.159h47.279c3.396 0 6.159 2.763 6.159 6.159v59.098c0 3.397-2.763 6.16-6.159 6.16m0-0.25c3.264 0 5.909-2.646 5.909-5.91v-59.098c0-3.263-2.645-5.909-5.909-5.909h-47.279c-3.263 0-5.909 2.646-5.909 5.909v59.098c0 3.264 2.646 5.91 5.909 5.91z"/></g><g transform="translate(513.29 650.73)"><path d="m0 0v59.109c0 2.535 2.056 4.591 4.591 4.591h47.289c2.536 0 4.591-2.056 4.591-4.591v-59.109c0-2.536-2.055-4.591-4.591-4.591h-47.289c-2.535 0-4.591 2.055-4.591 4.591" fill="#005a9c"/></g><path d="m569.76 699.98h-56.471v-1.313h56.471z" fill="#fff"/><g transform="translate(546.34 649.91)"><path d="m0 0h-26.266v19.699h26.266z" fill="none" stroke="#fff" stroke-miterlimit="10" stroke-width=".5"/></g><g transform="translate(546.34 675.36)"><path d="m0 0h-26.266v19.699h26.266z" fill="none" stroke="#fff" stroke-miterlimit="10" stroke-width=".5"/></g><path d="m558.61 690.37h-5.486v-2.462h5.486z" fill="#fff"/><g transform="translate(558.33 685.95)"><path d="m0 0c-0.079-0.055-0.176-0.087-0.279-0.087-0.272 0-0.493 0.221-0.493 0.493 0 0.062 0.012 0.121 0.033 0.176l0.993 2.614-0.993 2.614c-0.021 0.055-0.033 0.115-0.033 0.177 0 0.272 0.221 0.493 0.493 0.493 0.103 0 0.2-0.033 0.279-0.087l4.646-3.197z" fill="#fff"/></g><path d="m558.61 664.93h-5.486v-2.462h5.486z" fill="#fff"/><g transform="translate(558.33 660.5)"><path d="m0 0c-0.079-0.055-0.176-0.087-0.279-0.087-0.272 0-0.493 0.221-0.493 0.493 0 0.062 0.012 0.122 0.033 0.176l0.993 2.614-0.993 2.614c-0.021 0.055-0.033 0.115-0.033 0.177 0 0.272 0.221 0.493 0.493 0.493 0.103 0 0.2-0.032 0.279-0.087l4.646-3.197z" fill="#fff"/></g><g transform="translate(531.93 706.71)"><path d="m0 0c0 1.699 0.783 3.374 2.695 3.374 1.128 0 1.958-0.642 2.372-1.63l-1.22-0.459c-0.207 0.506-0.622 0.781-1.152 0.781-1.129 0-1.36-1.148-1.36-2.067 0-0.941 0.231-2.089 1.36-2.089 0.507 0 0.921 0.276 1.152 0.781h-0.783v1.309h2.258c-0.092-1.653-0.598-3.397-2.627-3.397-1.912 0-2.695 1.698-2.695 3.397" fill="#fff"/></g><g transform="translate(540.72 706.27)"><path d="m0 0h1.538l-0.734 1.836zm2.067-1.309h-2.596l-0.618-1.538h-1.402l2.641 6.566h1.354l2.641-6.566h-1.401z" fill="#fff"/></g><g transform="translate(551.12 705.35)"><path d="m0 0c0-0.689-0.368-1.354-0.945-1.676-0.391-0.23-1.082-0.367-1.704-0.367-0.737 0-1.451 0.206-2.027 0.597-0.207 0.114-0.346 0.229-0.646 0.505l0.922 0.918c0.553-0.505 1.059-0.712 1.819-0.712 0.761 0 1.291 0.253 1.291 0.712 0 0.184-0.116 0.436-0.3 0.551-0.23 0.137-0.46 0.207-1.313 0.367-0.691 0.16-1.106 0.298-1.382 0.482-0.437 0.299-0.714 0.873-0.714 1.424 0 0.665 0.345 1.263 0.921 1.607 0.369 0.23 0.806 0.321 1.383 0.321 0.737 0 1.428-0.161 1.981-0.505 0.138-0.091 0.207-0.138 0.414-0.299l-0.806-1.033c-0.53 0.391-1.013 0.529-1.635 0.529-0.6 0-0.968-0.207-0.968-0.62 0-0.596 0.758-0.501 1.626-0.715 0.98-0.242 2.083-0.759 2.083-2.086" fill="#fff"/></g><g transform="translate(557.77 681.55)"><path d="m0 0h-0.513v1.065c0.385 0.184 0.422 0.294 0.586 0.625h0.99v-5.254h-1.063z" fill="#fff"/></g><g transform="translate(552.08 656.09)"><path d="m0 0h-0.513v1.065c0.385 0.184 0.422 0.294 0.587 0.625h0.989v-5.254h-1.063z" fill="#fff"/></g><g transform="translate(557.27 654.19)"><path d="m0 0c-0.442 0-0.934 0.196-1.253 0.49-0.086 0.086-0.135 0.134-0.246 0.281l0.565 0.392c0.234-0.306 0.565-0.465 0.971-0.465 0.381 0 0.614 0.159 0.614 0.404 0 0.171-0.123 0.343-0.27 0.416-0.098 0.049-0.209 0.074-0.344 0.074h-0.099v0.698h0.185c0.123 0 0.147 0 0.209 0.037 0.086 0.049 0.147 0.146 0.147 0.244 0 0.209-0.221 0.343-0.565 0.343-0.283 0-0.516-0.085-0.737-0.294l-0.504 0.454c0.381 0.379 0.786 0.538 1.265 0.538 0.726 0 1.229-0.416 1.229-1.016 0-0.257-0.098-0.49-0.27-0.661 0.307-0.257 0.442-0.515 0.442-0.845 0-0.649-0.553-1.09-1.339-1.09" fill="#fff"/></g><g transform="translate(563.32 655.06)"><path d="m0 0-1.139-1.139h1.139zm0.686-1.788v-0.771h-0.686v0.771h-2.046v0.649l2.046 2.082h0.686v-2.082h0.527v-0.649z" fill="#fff"/></g><g transform="translate(561.39 657.76)"><path d="m0 0-3.033-5.253h0.809l3.033 5.253z" fill="#fff"/></g><g transform="translate(565.31 484.46)"><path d="m0 0v78.92l-3.111-21.215 0.282-3.677 2.263 1.98" stroke="#000"/></g><g transform="translate(568.41 532)"><path d="m0 0h2.665v-22.176h-3.09l-10.348 17.914h-0.056v-17.914h-2.665v22.176h3.259l10.177-17.913h0.058z"/></g><g transform="translate(294.89 328.06)"><path d="m0 0c-3.328 0-6.035 2.707-6.035 6.034v59.098c0 3.328 2.707 6.035 6.035 6.035h118.2c3.327 0 6.034-2.707 6.034-6.035v-59.098c0-3.327-2.707-6.034-6.034-6.034z" fill="#fff"/></g><g transform="translate(413.08 399.35)"><path d="m0 0h-118.2c-3.396 0-6.159-2.763-6.159-6.16v-59.098c0-3.396 2.763-6.159 6.159-6.159h118.2c3.396 0 6.16 2.763 6.16 6.159v59.098c0 3.397-2.764 6.16-6.16 6.16m0-0.25c3.264 0 5.91-2.646 5.91-5.91v-59.098c0-3.263-2.646-5.909-5.91-5.909h-118.2c-3.263 0-5.909 2.646-5.909 5.909v59.098c0 3.264 2.646 5.91 5.909 5.91z"/></g><g transform="translate(290.29 334.09)"><path d="m0 0v59.109c0 2.535 2.055 4.591 4.591 4.591h118.21c2.536 0 4.591-2.056 4.591-4.591v-59.109c0-2.535-2.055-4.591-4.591-4.591h-118.21c-2.536 0-4.591 2.056-4.591 4.591" fill="#005a9c"/></g><g transform="translate(333.46 360.36)"><path d="m0 0h-26.266v19.699h26.266z" fill="none" stroke="#fff" stroke-miterlimit="10" stroke-width=".5"/></g><g transform="translate(333.46 334.91)"><path d="m0 0h-26.266v19.699h26.266z" fill="none" stroke="#fff" stroke-miterlimit="10" stroke-width=".5"/></g><g transform="translate(367.12 360.36)"><path d="m0 0h-26.266v19.699h26.266z" fill="none" stroke="#fff" stroke-miterlimit="10" stroke-width=".5"/></g><g transform="translate(367.12 334.91)"><path d="m0 0h-26.266v19.699h26.266z" fill="none" stroke="#fff" stroke-miterlimit="10" stroke-width=".5"/></g><g transform="translate(400.77 360.36)"><path d="m0 0h-26.266v19.699h26.266z" fill="none" stroke="#fff" stroke-miterlimit="10" stroke-width=".5"/></g><g transform="translate(400.77 334.91)"><path d="m0 0h-26.266v19.699h26.266z" fill="none" stroke="#fff" stroke-miterlimit="10" stroke-width=".5"/></g><path d="m365.45 388.81h3.283v-1.331h-3.283z" fill="#fff"/><g transform="translate(372.02 392.37)"><path d="m0 0h4.77v-1.308h-3.485v-1.08h1.972v-1.308h-1.972v-1.562h3.577v-1.308h-4.862z" fill="#fff"/></g><g transform="translate(380.67 388)"><path d="m0 0-1.354-2.204h-1.515l2.066 3.467-1.882 3.099h1.538l1.147-1.859 1.102 1.859h1.561l-1.86-3.124 2.043-3.442h-1.538z" fill="#fff"/></g><path d="m384.89 392.37h1.313v-6.566h-1.313z" fill="#fff"/><g transform="translate(390.46 385.8)"><path d="m0 0h-1.261v5.258h-1.812v1.308h4.862v-1.308h-1.789z" fill="#fff"/></g><g transform="translate(400.52 388.46)"><path d="m0 0h2.136v2.136zm3.422-2.663h-1.286v1.447h-3.836v1.217l3.836 3.903h1.286v-3.903h0.988v-1.217h-0.988z" fill="#fff"/></g><g transform="translate(407.74 388.46)"><path d="m0 0h2.136v2.136zm3.423-2.663h-1.287v1.447h-3.836v1.217l3.836 3.903h1.287v-3.903h0.987v-1.217h-0.987z" fill="#fff"/></g><g transform="translate(295.81 392.37)"><path d="m0 0h4.77v-1.308h-3.485v-1.08h1.972v-1.308h-1.972v-1.562h3.577v-1.308h-4.862z" fill="#fff"/></g><g transform="translate(303.78 385.8)"><path d="m0 0-2.376 6.566h1.384l1.684-4.614 1.615 4.614h1.361l-2.284-6.566z" fill="#fff"/></g><g transform="translate(312.37 389.08)"><path d="m0 0c0 2.021 1.175 3.374 2.903 3.374 1.037 0 1.958-0.527 2.419-1.422l-1.152-0.621c-0.299 0.505-0.783 0.736-1.313 0.736-0.937 0-1.544-0.804-1.544-2.067 0-1.29 0.594-2.09 1.544-2.09 0.53 0 1.014 0.253 1.313 0.759l1.152-0.621c-0.576-0.918-1.336-1.445-2.465-1.445-1.907 0-2.857 1.675-2.857 3.397" fill="#fff"/></g><g transform="translate(323.16 388.67)"><path d="m0 0h-2.73v-2.87h-1.296v6.566h1.296v-2.388h2.73v2.388h1.296v-6.566h-1.296z" fill="#fff"/></g><g transform="translate(328.19 388.65)"><path d="m0 0h1.538l-0.734 1.836zm2.067-1.309h-2.596l-0.618-1.538h-1.402l2.641 6.566h1.354l2.641-6.566h-1.401z" fill="#fff"/></g><g transform="translate(336.56 391.06)"><path d="m0 0h-1.812v-1.492h1.814c0.485 0 0.831 0.299 0.831 0.757 0 0.414-0.347 0.735-0.833 0.735m1.179-2.48 1.039-2.778h-1.385l-0.902 2.457h-1.743v-2.457h-1.292v6.566h3.145c1.048 0 2.084-0.804 2.084-2.057 0-0.62-0.424-1.396-0.946-1.731" fill="#fff"/></g><g transform="translate(339.9 389.08)"><path d="m0 0c0 1.699 0.783 3.374 2.695 3.374 1.128 0 1.958-0.642 2.372-1.63l-1.22-0.459c-0.207 0.506-0.622 0.781-1.152 0.781-1.129 0-1.36-1.148-1.36-2.067 0-0.941 0.231-2.089 1.36-2.089 0.507 0 0.921 0.276 1.152 0.781h-0.783v1.309h2.258c-0.092-1.653-0.599-3.397-2.627-3.397-1.912 0-2.695 1.698-2.695 3.397" fill="#fff"/></g><path d="m346.79 392.37h1.313v-6.566h-1.313z" fill="#fff"/><g transform="translate(351.24 390)"><path d="m0 0v-4.202h-1.296v6.567h1.296l2.73-4.018v4.018h1.296v-6.567h-1.134z" fill="#fff"/></g><g transform="translate(356.84 389.08)"><path d="m0 0c0 1.699 0.783 3.374 2.695 3.374 1.128 0 1.958-0.642 2.372-1.63l-1.22-0.459c-0.207 0.506-0.622 0.781-1.152 0.781-1.129 0-1.36-1.148-1.36-2.067 0-0.941 0.231-2.089 1.36-2.089 0.507 0 0.921 0.276 1.152 0.781h-0.783v1.309h2.258c-0.092-1.653-0.598-3.397-2.627-3.397-1.912 0-2.695 1.698-2.695 3.397" fill="#fff"/></g><g transform="translate(446.4 355.63)"><path d="m0 0c-3.327 0-6.034 2.707-6.034 6.034v31.52c0 3.327 2.707 6.034 6.034 6.034h118.2c3.327 0 6.034-2.707 6.034-6.034v-31.52c0-3.327-2.707-6.034-6.034-6.034z" fill="#fff"/></g><g transform="translate(564.6 399.35)"><path d="m0 0h-118.2c-3.396 0-6.159-2.763-6.159-6.159v-31.52c0-3.396 2.763-6.159 6.159-6.159h118.2c3.396 0 6.16 2.763 6.16 6.159v31.52c0 3.396-2.764 6.159-6.16 6.159m0-0.25c3.264 0 5.91-2.646 5.91-5.909v-31.52c0-3.263-2.646-5.909-5.91-5.909h-118.2c-3.263 0-5.909 2.646-5.909 5.909v31.52c0 3.263 2.646 5.909 5.909 5.909z"/></g><g transform="translate(441.8 361.66)"><path d="m0 0v31.53c0 2.535 2.055 4.591 4.591 4.591h118.21c2.536 0 4.591-2.056 4.591-4.591v-31.53c0-2.536-2.055-4.591-4.591-4.591h-118.21c-2.536 0-4.591 2.055-4.591 4.591" fill="#005a9c"/></g><g transform="translate(484.98 360.36)"><path d="m0 0h-26.266v19.699h26.266z" fill="none" stroke="#fff" stroke-miterlimit="10" stroke-width=".5"/></g><g transform="translate(518.63 360.36)"><path d="m0 0h-26.266v19.699h26.266z" fill="none" stroke="#fff" stroke-miterlimit="10" stroke-width=".5"/></g><g transform="translate(552.28 360.36)"><path d="m0 0h-26.266v19.699h26.266z" fill="none" stroke="#fff" stroke-miterlimit="10" stroke-width=".5"/></g><path d="m516.96 389.8h3.283v-1.331h-3.283z" fill="#fff"/><g transform="translate(523.53 393.36)"><path d="m0 0h4.77v-1.308h-3.485v-1.08h1.972v-1.308h-1.972v-1.562h3.577v-1.308h-4.862z" fill="#fff"/></g><g transform="translate(532.18 388.99)"><path d="m0 0-1.354-2.204h-1.515l2.065 3.467-1.882 3.1h1.539l1.147-1.86 1.102 1.86h1.561l-1.86-3.125 2.043-3.442h-1.538z" fill="#fff"/></g><path d="m536.41 393.36h1.313v-6.566h-1.313z" fill="#fff"/><g transform="translate(541.98 386.79)"><path d="m0 0h-1.261v5.258h-1.812v1.308h4.862v-1.308h-1.789z" fill="#fff"/></g><g transform="translate(552.03 389.45)"><path d="m0 0h2.136v2.136zm3.422-2.663h-1.286v1.447h-3.836v1.217l3.836 3.903h1.286v-3.903h0.988v-1.217h-0.988z" fill="#fff"/></g><g transform="translate(559.26 389.45)"><path d="m0 0h2.136v2.136zm3.423-2.663h-1.287v1.447h-3.836v1.217l3.836 3.903h1.287v-3.903h0.987v-1.217h-0.987z" fill="#fff"/></g><g transform="translate(447.33 393.36)"><path d="m0 0h4.77v-1.308h-3.485v-1.08h1.972v-1.308h-1.972v-1.562h3.577v-1.308h-4.862z" fill="#fff"/></g><g transform="translate(455.29 386.79)"><path d="m0 0-2.376 6.566h1.384l1.684-4.614 1.615 4.614h1.361l-2.284-6.566z" fill="#fff"/></g><g transform="translate(463.88 390.07)"><path d="m0 0c0 2.021 1.175 3.374 2.903 3.374 1.037 0 1.958-0.527 2.419-1.422l-1.152-0.621c-0.299 0.505-0.783 0.736-1.313 0.736-0.937 0-1.544-0.804-1.544-2.067 0-1.29 0.594-2.09 1.544-2.09 0.53 0 1.014 0.253 1.313 0.759l1.152-0.621c-0.576-0.918-1.336-1.445-2.465-1.445-1.907 0-2.857 1.675-2.857 3.397" fill="#fff"/></g><g transform="translate(474.68 389.66)"><path d="m0 0h-2.73v-2.87h-1.296v6.566h1.296v-2.388h2.73v2.388h1.296v-6.566h-1.296z" fill="#fff"/></g><g transform="translate(479.7 389.64)"><path d="m0 0h1.538l-0.734 1.836zm2.067-1.309h-2.596l-0.618-1.538h-1.402l2.641 6.566h1.354l2.641-6.566h-1.401z" fill="#fff"/></g><g transform="translate(488.08 392.05)"><path d="m0 0h-1.812v-1.492h1.814c0.485 0 0.831 0.299 0.831 0.757 0 0.414-0.347 0.735-0.833 0.735m1.179-2.48 1.039-2.778h-1.385l-0.902 2.457h-1.743v-2.457h-1.292v6.566h3.145c1.048 0 2.084-0.804 2.084-2.057 0-0.62-0.424-1.396-0.946-1.731" fill="#fff"/></g><g transform="translate(491.41 390.07)"><path d="m0 0c0 1.699 0.783 3.374 2.695 3.374 1.128 0 1.958-0.642 2.372-1.63l-1.22-0.459c-0.207 0.506-0.622 0.781-1.152 0.781-1.129 0-1.36-1.148-1.36-2.067 0-0.941 0.231-2.089 1.36-2.089 0.507 0 0.921 0.276 1.152 0.781h-0.783v1.309h2.258c-0.092-1.653-0.599-3.397-2.627-3.397-1.912 0-2.695 1.698-2.695 3.397" fill="#fff"/></g><path d="m498.31 393.36h1.313v-6.566h-1.313z" fill="#fff"/><g transform="translate(502.76 390.99)"><path d="m0 0v-4.202h-1.296v6.567h1.296l2.73-4.018v4.018h1.296v-6.567h-1.134z" fill="#fff"/></g><g transform="translate(508.36 390.07)"><path d="m0 0c0 1.699 0.783 3.374 2.695 3.374 1.128 0 1.958-0.642 2.372-1.63l-1.22-0.459c-0.207 0.506-0.622 0.781-1.152 0.781-1.129 0-1.36-1.148-1.36-2.067 0-0.941 0.231-2.089 1.36-2.089 0.507 0 0.921 0.276 1.152 0.781h-0.783v1.309h2.258c-0.092-1.653-0.598-3.397-2.627-3.397-1.912 0-2.695 1.698-2.695 3.397" fill="#fff"/></g></g></g></svg>
