<?xml version="1.0" encoding="UTF-8"?>
<svg width="672.98" height="313.84" version="1.1" viewBox="0 0 672.98 313.84" xml:space="preserve" xmlns="http://www.w3.org/2000/svg"><defs><clipPath id="c"><path d="m17.516 39.763h531.97v266.18h-531.97z"/></clipPath><clipPath id="b"><path d="m17.516 39.763h531.97v266.18h-531.97z"/></clipPath><clipPath id="a"><path d="m17.516 39.763h531.97v266.18h-531.97z"/></clipPath></defs><g transform="matrix(1.3333 0 0 -1.3333 -38.845 372.98)"><path d="m533.13 147.82h-504v-46.271h504z" fill="#b1b4b6"/><g transform="translate(533.13 147.84)"><path d="m0 0h-504" fill="none" stroke="#000"/></g><g transform="translate(533.13 144.33)"><path d="m0 0h-504" fill="none" stroke="#fff" stroke-width="2"/></g><g transform="translate(533.13 105.06)"><path d="m0 0h-504" fill="none" stroke="#fff" stroke-width="2"/></g><g transform="translate(533.13 101.61)"><path d="m0 0h-504" fill="none" stroke="#000"/></g><g transform="translate(32.134 115.55)"><path d="m0 0h6.354v1.559l4.376-2.576-4.376-2.399v1.439h-6.354z"/></g><g transform="translate(42.864 134.24)"><path d="m0 0h-6.354v-1.558l-4.376 2.576 4.376 2.398v-1.439h6.354z"/></g><g transform="translate(519.4 115.55)"><path d="m0 0h6.354v1.559l4.376-2.576-4.376-2.399v1.439h-6.354z"/></g><g transform="translate(530.13 134.24)"><path d="m0 0h-6.354v-1.558l-4.376 2.576 4.376 2.398v-1.439h6.354z"/></g><g transform="translate(44.792 124.69)"><path d="m0 0-15.658-0.011" fill="none" stroke="#ffd046" stroke-dasharray="14.86, 44.58" stroke-width="2"/></g><g transform="translate(163.37 127.17)"><path d="m0 0-118.58-0.081" fill="none" stroke="#ffd046" stroke-dasharray="14.86, 44.58" stroke-width="2"/></g><g transform="translate(474.6 126.23)"><path d="m0 0-266.53-0.061" fill="none" stroke="#ffd046" stroke-width="2"/></g><g transform="translate(518.9 124.68)"><path d="m0 0 14.236 4e-3" fill="none" stroke="#ffd046" stroke-dasharray="14.86, 44.58" stroke-width="2"/></g><g transform="translate(400.41 123.11)"><path d="m0 0 118.49 0.033" fill="none" stroke="#ffd046" stroke-dasharray="14.86, 44.58" stroke-width="2"/></g><g transform="translate(355.49 123.19)"><path d="m0 0-266.45-0.061" fill="none" stroke="#ffd046" stroke-width="2"/></g><text transform="matrix(1 0 0 -1 115.51 272.94)" fill="black" font-family="Helvetica" font-size="9.5px" font-weight="bold"><tspan x="0 6.5131998 9.1541996 14.4362 17.0772 22.17775 29.56875 35.373249 38.536751 41.17775 46.459751 52.264252 57.546249 60.187248 62.828251 65.991753 73.382751 79.187248 82.350754 89.741753 95.02375 100.30575 102.94675 111.39225 116.67425 120.36975 125.65175 128.29276 134.09724 139.90175 142.54276 149.93375 152.57475 155.73825 161.54276 164.18375 169.98825 175.27025 180.55225 185.83424 188.47525 194.27975 200.08424 202.72525 208.52975 213.81175 217.50725 225.95274 228.59375 231.75725 234.92075 240.20274 246.00725 248.64825 251.28925 257.09375 259.73474 265.53925 271.34375 274.50726 280.31174 282.95276 288.75726 291.39825 295.09375 300.37576 305.65775 308.82126 311.46225 317.26675 323.07126" y="0">A – Two-lane, two-way marking with passing permitted in both directions</tspan></text><g clip-path="url(#c)"><g transform="translate(300.89 213)"><path d="m0 0h147.77v45.599h-147.93s-4.69 2.531-4.69 8.329h-38.02s0.621-7.478-7.096-8.329h-140.24v-45.599h141.13c7.111-1.121 6.52-8.255 6.52-8.255h38.018c0 5.178 3.732 7.862 4.533 8.255" fill="#b1b4b6"/></g><g transform="translate(255.84 235.78)"><path d="m0 0h-140.52" fill="none" stroke="#ffd046" stroke-dasharray="14.86, 44.58" stroke-width="2"/></g><g transform="translate(301.73 235.78)"><path d="m0 0 149.85-0.333" fill="none" stroke="#ffd046" stroke-dasharray="14.86, 44.58" stroke-width="2"/></g><g transform="translate(113.69 227.07)"><path d="m0 0h6.354v1.559l4.376-2.577-4.376-2.398v1.439h-6.354z"/></g><g transform="translate(124.42 244.49)"><path d="m0 0h-6.354v-1.558l-4.376 2.576 4.376 2.398v-1.439h6.354z"/></g><g transform="translate(434.92 227.07)"><path d="m0 0h6.353v1.559l4.377-2.577-4.377-2.398v1.439h-6.353z"/></g><g transform="translate(445.66 244.49)"><path d="m0 0h-6.353v-1.558l-4.377 2.576 4.377 2.398v-1.439h6.353z"/></g><g transform="translate(252.92 255.06)"><path d="m0 0h-142.24" fill="none" stroke="#fff" stroke-width="2"/></g><g transform="translate(448.66 255.06)"><path d="m0 0h-146.93" fill="none" stroke="#fff" stroke-width="2"/></g><g transform="translate(252.92 216.49)"><path d="m0 0h-142.24" fill="none" stroke="#fff" stroke-width="2"/></g><g transform="translate(448.66 216.49)"><path d="m0 0h-146.93" fill="none" stroke="#fff" stroke-width="2"/></g><g transform="translate(296.36 204.74)"><path d="m0 0c0 5.178 3.732 7.861 4.533 8.255h147.77" fill="none" stroke="#000"/></g><g transform="translate(110.69 213)"><path d="m0 0h141.13c7.11-1.121 6.519-8.255 6.519-8.255" fill="none" stroke="#000"/></g><g transform="translate(258.02 266.93)"><path d="m0 0s0.62-7.479-7.097-8.329h-140.24" fill="none" stroke="#000"/></g><g transform="translate(448.66 258.6)"><path d="m0 0h-147.93s-4.689 2.531-4.689 8.329" fill="none" stroke="#000"/></g></g><text transform="matrix(1 0 0 -1 158.76 161.41)" fill="black" font-family="Helvetica" font-size="9.5px" font-weight="bold"><tspan x="0 6.8590002 9.5 14.782 17.423 22.52545 29.916451 35.720951 38.884449 41.525452 46.807449 52.61195 57.893951 60.53495 63.175949 66.339447 73.730453 79.53495 82.698448 90.089447 95.371452 100.65345 103.29445 111.73995 117.02195 120.71745 125.99945 128.64046 134.44495 140.24945 142.89046 150.28145 152.92245 156.08595 161.89046 164.53145 170.33595 176.14046 179.30396 185.10844 190.39046 195.67245 200.95445 203.59544 209.39995 215.20445 217.84544 222.59544 228.39995 234.20445 239.48645" y="0">B – Two-lane, two-way marking with no-passing zones</tspan></text><g transform="translate(493.34 196.38)"><path d="m0 0v78.92l-3.111-21.215 0.282-3.677 2.263 1.98" stroke="#000"/></g><g transform="translate(496.44 243.92)"><path d="m0 0h2.665v-22.176h-3.09l-10.348 17.914h-0.056v-17.914h-2.665v22.176h3.259l10.177-17.913h0.058z"/></g><g transform="translate(448.45 166.95)"><path d="m0 0h6.353v1.559l4.377-2.577-4.377-2.398v1.439h-6.353z"/></g><g transform="translate(471.45 175.14)"><path d="m0 0h29.291" fill="none" stroke="#000" stroke-width=".75"/></g><text transform="matrix(1 0 0 -1 471.04 178.03)" fill="black" font-family="Helvetica" font-size="9px"><tspan x="0 5.0040002 10.008 15.012 20.016001 25.02" y="0">Legend</tspan><tspan x="-7.4790001 -0.98100001 1.017 4.0139999 9.0179996 13.518 16.02 18.018 23.021999 28.025999 30.528 35.532001 38.034 40.535999 43.037998 46.035 51.039001 55.539001 60.542999" y="15.354">Direction of travel</tspan></text><g transform="translate(281.14 94.364)" fill="none" stroke-miterlimit="10"><path d="m0 0v17.511l-6.367 6.368 12.73 12.73-6.367 6.368v18.066" stroke="#000" stroke-width="5.5"/><path d="m0 0v17.511l-6.367 6.368 12.73 12.73-6.367 6.368v18.066" stroke="#fff" stroke-width="4"/></g><g transform="translate(89.044 84.359)"><path d="m0 0v33.748" fill="none" stroke="#000" stroke-width=".75"/></g><g transform="translate(355.49 118.11)"><path d="m0 0v-33.748" fill="none" stroke="#000" stroke-width=".75"/></g><g transform="translate(203.62 89.359)"><path d="m0 0h-110.13" fill="none" stroke="#000" stroke-width=".75"/></g><g clip-path="url(#b)"><g transform="translate(205.75 89.9)"><path d="m0 0c-0.868 0.263-1.433 0.504-2.129 0.783v-2.648c0.249 0.118 1.261 0.521 2.129 0.783 0.929 0.28 1.771 0.473 2.317 0.541-0.546 0.068-1.388 0.261-2.317 0.541"/></g><g transform="translate(91.361 89.9)"><path d="m0 0c0.868 0.263 1.433 0.504 2.129 0.783v-2.648c-0.249 0.118-1.261 0.521-2.129 0.783-0.929 0.28-1.771 0.473-2.317 0.541 0.546 0.068 1.388 0.261 2.317 0.541"/></g><g transform="translate(63.663 84.971)"><path d="m0 0-3.284-20.124" fill="none" stroke="#000" stroke-width=".75"/></g><g transform="translate(63.472 87.16)"><path d="m0 0c-0.399-0.815-0.728-1.333-1.116-1.975l2.614-0.427c-0.077 0.265-0.312 1.329-0.43 2.228-0.127 0.961-0.181 1.824-0.161 2.374-0.155-0.528-0.481-1.329-0.907-2.2"/></g><g transform="translate(148.19 84.928)"><path d="m0 0-1.638-20.08" fill="none" stroke="#000" stroke-width=".75"/></g><g transform="translate(147.83 87.094)"><path d="m0 0c-0.332-0.844-0.619-1.387-0.954-2.058l2.64-0.216c-0.098 0.258-0.417 1.299-0.608 2.186-0.203 0.948-0.327 1.804-0.35 2.354-0.113-0.539-0.373-1.363-0.728-2.266"/></g><g transform="translate(281.78 84.913)"><path d="m0 0v-20.065" fill="none" stroke="#000" stroke-width=".75"/></g><g transform="translate(281.24 87.042)"><path d="m0 0c-0.263-0.868-0.504-1.433-0.783-2.129h2.648c-0.118 0.249-0.521 1.261-0.783 2.129-0.28 0.929-0.473 1.771-0.541 2.317-0.068-0.546-0.261-1.388-0.541-2.317"/></g><g transform="translate(415.76 84.971)"><path d="m0 0 3.284-20.124" fill="none" stroke="#000" stroke-width=".75"/></g><g transform="translate(414.88 86.985)"><path d="m0 0c-0.119-0.899-0.267-1.495-0.43-2.227l2.614 0.426c-0.157 0.227-0.718 1.161-1.116 1.975-0.426 0.872-0.752 1.672-0.907 2.2 0.02-0.55-0.034-1.412-0.161-2.374"/></g><g transform="translate(502.83 84.971)"><path d="m0 0 3.284-20.124" fill="none" stroke="#000" stroke-width=".75"/></g><g transform="translate(501.96 86.985)"><path d="m0 0c-0.119-0.899-0.267-1.495-0.43-2.227l2.614 0.426c-0.157 0.227-0.718 1.161-1.116 1.975-0.426 0.872-0.752 1.672-0.907 2.2 0.02-0.55-0.034-1.412-0.161-2.374"/></g><g transform="translate(31.451 88.818)"><path d="m0 0c0.868-0.263 1.433-0.504 2.129-0.783v2.648c-0.249-0.118-1.261-0.521-2.129-0.783-0.929-0.28-1.771-0.473-2.317-0.541 0.546-0.068 1.388-0.261 2.317-0.541"/></g><g transform="translate(530.82 89.9)"><path d="m0 0c-0.868 0.263-1.433 0.504-2.129 0.783v-2.648c0.249 0.118 1.261 0.521 2.129 0.783 0.929 0.28 1.771 0.473 2.317 0.541-0.546 0.068-1.388 0.261-2.317 0.541"/></g></g><text transform="matrix(1 0 0 -1 185.76 191.9)" fill="black" font-family="Helvetica" font-size="8px"><tspan x="0 5.776 10.224 12.448 16.896 19.120001 24 29.336 33.784 38.231998 40.456001 45.792 50.240002 54.240002 56.464001 58.240002 62.688 67.136002 69.360001 73.807999 79.143997 81.367996 85.2304 89.678398 91.902397 94.126404 98.574402 101.2384 103.4624 107.9104 112.3584 116.8064 118.5824 120.3584 124.3584 128.8064 131.0304 132.8064 137.25439 141.70239 143.92641 148.3744 150.5984 152.8224 157.2704 161.7184 165.7184 170.1664 176.8304 181.2784 185.72639 187.95039" y="0">Note: See Section 3B.11 for application of pavement </tspan><tspan x="24 30.664 35.112 37.776001 41.776001 43.551998 48 52.448002 56.448002 58.672001 60.896 65.344002 68.008003 72.456001 76.903999 81.351997 85.800003 88.024002 89.800003 94.248001 96.472 100.92 103.584 107.584 112.032 116.032 118.256 120.032 124.48 128.92799 132.92799 135.15199 139.60001 142.26401 144.48801 146.26401 150.71201 152.936 157.384 160.048 164.048 168.496 172.944 177.392 181.84 186.28799" y="8.4960003">markings through intersections or interchanges</tspan></text><g transform="translate(208.07 84.359)"><path d="m0 0v33.748" fill="none" stroke="#000" stroke-width=".75"/></g><g transform="translate(474.6 118.11)"><path d="m0 0v-33.748" fill="none" stroke="#000" stroke-width=".75"/></g><text transform="matrix(1 0 0 -1 29.307 56.254)" fill="black" font-family="Helvetica" font-size="9px"><tspan x="0 5.0057998 11.5038 16.507799 19.504801 24.508801 26.5068 29.503799 34.507801 39.007801 41.5098 43.507801 48.511799 53.5158" y="0">Two-direction </tspan><tspan x="1.494 6.4980001 11.502 16.002001 20.502001 22.5 27.504 32.507999 35.009998 39.509998 44.514 49.518002" y="9.9989996">passing zone</tspan><tspan x="450.414 455.4198 461.91779 466.92181 469.91879 474.92279 476.92081 479.91779 484.92181 489.42181 491.9238 493.92181 498.92581 503.92981" y="0">Two-direction </tspan><tspan x="451.90799 456.91199 461.91599 466.41599 470.91599 472.914 477.918 482.922 485.42401 489.92401 494.92801 499.93201" y="9.9989996">passing zone</tspan><tspan x="88.983002 95.985001 100.989 105.993 108.99 113.994 115.992 118.989 123.993 128.493 130.995 132.993 137.99699 143.00101" y="0">One-direction </tspan><tspan x="84.222 89.225998 94.230003 97.226997 102.231 107.235 111.735 116.235 118.233 123.237 128.241 130.743 135.243 140.24699 145.25101" y="9.9989996">no-passing zone</tspan><tspan x="361.46701 368.46899 373.47299 378.47699 381.474 386.478 388.47601 391.47299 396.47699 400.97699 403.479 405.47699 410.48099 415.48499" y="0">One-direction </tspan><tspan x="356.70599 361.70999 366.71399 369.711 374.715 379.71899 384.21899 388.71899 390.71701 395.72101 400.72501 403.22699 407.72699 412.73099 417.73499" y="9.9989996">no-passing zone</tspan><tspan x="224.451 229.4568 235.9548 240.9588 243.9558 248.95979 250.95779 253.9548 258.9588 263.4588 265.96078 267.9588 272.9628 277.9668" y="0">Two-direction </tspan><tspan x="219.438 224.442 229.446 232.44299 237.44701 242.451 246.951 251.451 253.44901 258.453 263.457 265.95901 270.45901 275.46301 280.46701" y="9.9989996">no-passing zone</tspan></text><g transform="translate(524.23 89.359)"><path d="m0 0h-45.184" fill="none" stroke="#000" stroke-width=".75"/></g><g clip-path="url(#a)"><g transform="translate(526.35 89.9)"><path d="m0 0c-0.868 0.263-1.433 0.504-2.129 0.783v-2.648c0.249 0.118 1.261 0.521 2.129 0.783 0.929 0.28 1.771 0.473 2.317 0.541-0.546 0.068-1.388 0.261-2.317 0.541"/></g><g transform="translate(476.91 89.9)"><path d="m0 0c0.868 0.263 1.433 0.504 2.129 0.783v-2.648c-0.249 0.118-1.261 0.521-2.129 0.783-0.929 0.28-1.771 0.473-2.317 0.541 0.546 0.068 1.388 0.261 2.317 0.541"/></g><g transform="translate(470.15 89.359)"><path d="m0 0h-110.21" fill="none" stroke="#000" stroke-width=".75"/></g><g transform="translate(472.28 89.9)"><path d="m0 0c-0.868 0.263-1.433 0.504-2.129 0.783v-2.648c0.249 0.118 1.261 0.521 2.129 0.783 0.929 0.28 1.771 0.473 2.317 0.541-0.546 0.068-1.388 0.261-2.317 0.541"/></g><g transform="translate(357.81 89.9)"><path d="m0 0c0.868 0.263 1.433 0.504 2.129 0.783v-2.648c-0.249 0.118-1.261 0.521-2.129 0.783-0.929 0.28-1.771 0.473-2.317 0.541 0.546 0.068 1.388 0.261 2.317 0.541"/></g><g transform="translate(351.04 89.359)"><path d="m0 0h-138.53" fill="none" stroke="#000" stroke-width=".75"/></g><g transform="translate(353.17 89.9)"><path d="m0 0c-0.868 0.263-1.433 0.504-2.129 0.783v-2.648c0.249 0.118 1.261 0.521 2.129 0.783 0.929 0.28 1.771 0.473 2.317 0.541-0.546 0.068-1.388 0.261-2.317 0.541"/></g><g transform="translate(210.38 89.9)"><path d="m0 0c0.868 0.263 1.433 0.504 2.129 0.783v-2.648c-0.249 0.118-1.261 0.521-2.129 0.783-0.929 0.28-1.771 0.473-2.317 0.541 0.546 0.068 1.388 0.261 2.317 0.541"/></g><g transform="translate(84.597 89.359)"><path d="m0 0h-46.555" fill="none" stroke="#000" stroke-width=".75"/></g><g transform="translate(86.726 89.9)"><path d="m0 0c-0.868 0.263-1.433 0.504-2.129 0.783v-2.648c0.249 0.118 1.261 0.521 2.129 0.783 0.929 0.28 1.771 0.473 2.317 0.541-0.546 0.068-1.388 0.261-2.317 0.541"/></g><g transform="translate(35.914 89.9)"><path d="m0 0c0.868 0.263 1.433 0.504 2.129 0.783v-2.648c-0.249 0.118-1.261 0.521-2.129 0.783-0.929 0.28-1.771 0.473-2.317 0.541 0.546 0.068 1.388 0.261 2.317 0.541"/></g></g></g></svg>
