<?xml version="1.0" encoding="UTF-8"?>
<svg width="506.43" height="414.47" version="1.1" viewBox="0 0 506.43 414.47" xml:space="preserve" xmlns="http://www.w3.org/2000/svg"><defs><clipPath id="j"><path d="m200.7 669.58v-7.453h235.39c-0.751 0.502-1.519 1.014-1.519 1.014s1.556 1.776 2.136 2.442c-0.63 0.516-2.262 1.852-2.262 1.852s1.358 1.214 1.917 1.713c-0.127 0.114-0.298 0.267-0.484 0.432z"/></clipPath><linearGradient id="b" x2="1" gradientTransform="matrix(0 -7.5615 -7.5615 0 318.71 669.58)" gradientUnits="userSpaceOnUse"><stop stop-color="#808285" offset="0"/><stop stop-color="#bcbec0" offset=".41011"/><stop offset="1"/></linearGradient><clipPath id="i"><path d="m83.936 391.44h492.06v351.56h-492.06z"/></clipPath><clipPath id="h"><path d="m83.936 391.44h492.06v351.56h-492.06z"/></clipPath><clipPath id="g"><path d="m200.7 585.73v-7.453h235.39c-0.751 0.5-1.519 1.011-1.519 1.011s1.556 1.779 2.136 2.445c-0.63 0.515-2.262 1.851-2.262 1.851s1.358 1.213 1.917 1.714c-0.127 0.112-0.298 0.265-0.484 0.432z"/></clipPath><linearGradient id="a" x2="1" gradientTransform="matrix(0 -7.5616 -7.5616 0 318.71 585.73)" gradientUnits="userSpaceOnUse"><stop stop-color="#808285" offset="0"/><stop stop-color="#bcbec0" offset=".41011"/><stop offset="1"/></linearGradient><clipPath id="f"><path d="m83.936 391.44h492.06v351.56h-492.06z"/></clipPath><clipPath id="e"><path d="m83.936 391.44h492.06v351.56h-492.06z"/></clipPath><clipPath id="d"><path d="m83.936 391.44h492.06v351.56h-492.06z"/></clipPath><clipPath id="c"><path d="m83.936 391.44h492.06v351.56h-492.06z"/></clipPath></defs><g transform="matrix(1.3333 0 0 -1.3333 -241.72 936.4)"><text transform="matrix(1 0 0 -1 259.55 695.14)" fill="black" font-family="Helvetica" font-size="10px" font-weight="bold"><tspan x="0 6.8559999 9.6359997 15.196 17.976 23.344999 28.905001 35.014999 37.794998 43.355 48.915001 51.695 54.474998 60.584999 66.695 72.254997 75.035004 78.364998 81.144997 87.254997 93.364998" y="0">A – Typical positions</tspan><tspan x="19.48 27.26" y="85.900002">OR</tspan></text><g transform="translate(478.21 589.32)"><path d="m0 0h6.354v1.559l4.376-2.577-4.376-2.398v1.439h-6.354z"/></g><g transform="translate(499.69 597.84)"><path d="m0 0h29.29" fill="none" stroke="#000" stroke-width=".75"/></g><text transform="matrix(1 0 0 -1 499.22 600.79)" fill="black" font-family="Helvetica" font-size="9px"><tspan x="0 5.0040002 10.008 15.012 20.016001 25.02" y="0">Legend</tspan><tspan x="-7.4879999 -0.99000001 1.008 4.0050001 9.0089998 13.509 16.011 18.009001 23.013 28.017 30.518999 35.522999 38.025002 40.527 43.028999 46.026001 51.029999 55.529999 60.534" y="15.354">Direction of travel</tspan></text><g clip-path="url(#j)"><path d="m200.7 669.58v-7.453h235.39c-0.751 0.502-1.519 1.014-1.519 1.014s1.556 1.776 2.136 2.442c-0.63 0.516-2.262 1.852-2.262 1.852s1.358 1.214 1.917 1.713c-0.127 0.114-0.298 0.267-0.484 0.432z" fill="url(#b)"/></g><g clip-path="url(#i)"><g transform="translate(202.13 665.86)"><path d="m0 0c0-2.058-0.64-3.726-1.428-3.726-0.789 0-1.429 1.668-1.429 3.726s0.64 3.726 1.429 3.726c0.788 0 1.428-1.668 1.428-3.726"/></g><g fill="#b1b4b6"><path d="m251.72 487.59h-69.925v45.392h69.925z"/><path d="m321.64 487.59h-69.926v45.393h69.926z"/><path d="m391.57 487.59h-69.924v45.393h69.924z"/></g><g transform="translate(251.72 532.99)"><path d="m0 0v-45.393" fill="none" stroke="#fff"/></g><g transform="translate(181.79 487.59)"><path d="m0 0v45.393" fill="none" stroke="#000"/></g><g transform="translate(391.57 532.99)"><path d="m0 0v-45.393" fill="none" stroke="#000"/></g><g transform="translate(321.64 487.59)"><path d="m0 0v45.393" fill="none" stroke="#fff"/></g><g transform="translate(369.27 516.3)"><path d="m0 0c-4.005 3.6-7.999 7.086-12.007 10.684 0.894-3.116 1.787-6.235 2.681-9.346-0.894-0.023-1.787-0.043-2.681-0.072-7.939-0.582-12.168-4.772-13.33-11.954v-12.021h3.984v8.037c0.883 5.606 3.703 9.053 9.346 9.346h2.681c-0.453-3.115-0.919-6.231-1.372-9.346 3.568 4.854 7.123 9.818 10.698 14.672" fill="#fff" fill-rule="evenodd"/></g><g transform="translate(285.7 503.63)"><path d="m0 0v6.354h-1.559l2.577 4.377 2.398-4.377h-1.439v-6.354z"/></g><g transform="translate(215.74 503.63)"><path d="m0 0v6.354h-1.559l2.577 4.377 2.398-4.377h-1.439v-6.354z"/></g></g><text transform="matrix(1 0 0 -1 302.88 673.83)" fill="black" font-family="Helvetica" font-size="9px" font-weight="bold"><tspan x="0" y="0">R</tspan><tspan x="0" y="21.636">Y</tspan><tspan x="0" y="43.271999">G</tspan><tspan x="-69.920998" y="0.0089999996">R</tspan><tspan x="-69.920998" y="21.645">Y</tspan><tspan x="-69.920998" y="43.280998">G</tspan></text><g transform="translate(227.32 644.22)"><path d="m0 0v-21.382h-21.133v64.396h21.133v-21.382z"/></g><g clip-path="url(#h)"><g transform="translate(225.29 655.04)"><path d="m0 0c0-4.716-3.822-8.538-8.537-8.538-4.717 0-8.541 3.822-8.541 8.538 0 4.717 3.824 8.539 8.541 8.539 4.715 0 8.537-3.822 8.537-8.539" fill="#fff200"/></g><g transform="translate(225.29 676.67)"><path d="m0 0c0-4.717-3.822-8.539-8.537-8.539-4.717 0-8.541 3.822-8.541 8.539s3.824 8.539 8.541 8.539c4.715 0 8.537-3.822 8.537-8.539" fill="#ed1d24"/></g><g transform="translate(225.29 633.41)"><path d="m0 0c0-4.717-3.822-8.539-8.537-8.539-4.717 0-8.541 3.822-8.541 8.539s3.824 8.539 8.541 8.539c4.715 0 8.537-3.822 8.537-8.539" fill="#00a651"/></g><g transform="translate(206.19 665.85)"><path d="m0 0h21.133" fill="none" stroke="#fff" stroke-width=".5"/></g><g transform="translate(206.19 644.22)"><path d="m0 0h21.133" fill="none" stroke="#fff" stroke-width=".5"/></g><g transform="translate(297.25 644.22)"><path d="m0 0v-21.382h-21.133v64.396h21.133v-21.382z"/></g><g transform="translate(276.11 665.85)"><path d="m0 0h21.133" fill="none" stroke="#fff" stroke-width=".5"/></g><g transform="translate(276.11 644.22)"><path d="m0 0h21.133" fill="none" stroke="#fff" stroke-width=".5"/></g><g transform="translate(286.68 685.21)"><path d="m0 0c4.717 0 8.539-3.824 8.539-8.539 0-4.717-3.822-8.539-8.539-8.539-4.713 0-8.538 3.822-8.538 8.539 0 4.715 3.825 8.539 8.538 8.539" fill="#ed1d24"/></g><g transform="translate(286.68 663.58)"><path d="m0 0c4.717 0 8.539-3.824 8.539-8.539 0-4.717-3.822-8.539-8.539-8.539-4.713 0-8.538 3.822-8.538 8.539 0 4.715 3.825 8.539 8.538 8.539" fill="#fff200"/></g><g transform="translate(286.68 641.95)"><path d="m0 0c4.717 0 8.539-3.824 8.539-8.539 0-4.717-3.822-8.539-8.539-8.539-4.713 0-8.538 3.822-8.538 8.539 0 4.715 3.825 8.539 8.538 8.539" fill="#00a651"/></g></g><g clip-path="url(#g)"><path d="m200.7 585.73v-7.453h235.39c-0.751 0.5-1.519 1.011-1.519 1.011s1.556 1.779 2.136 2.445c-0.63 0.515-2.262 1.851-2.262 1.851s1.358 1.213 1.917 1.714c-0.127 0.112-0.298 0.265-0.484 0.432z" fill="url(#a)"/></g><g clip-path="url(#f)"><g transform="translate(202.13 582)"><path d="m0 0c0-2.058-0.64-3.726-1.428-3.726-0.789 0-1.429 1.668-1.429 3.726s0.64 3.726 1.429 3.726c0.788 0 1.428-1.668 1.428-3.726"/></g></g><text transform="matrix(1 0 0 -1 302.88 589.98)" fill="black" font-family="Helvetica" font-size="9px" font-weight="bold"><tspan x="0" y="0">R</tspan><tspan x="0" y="21.636">Y</tspan><tspan x="0" y="43.271999">G</tspan><tspan x="69.920998" y="0.0089999996">R</tspan><tspan x="69.920998" y="21.645">Y</tspan><tspan x="69.920998" y="43.280998">G</tspan></text><g transform="translate(367.17 560.37)"><path d="m0 0v-21.382h-21.132v64.396h21.132v-21.382z"/></g><g clip-path="url(#e)"><g transform="translate(365.14 571.18)"><path d="m0 0c0-4.716-3.821-8.539-8.537-8.539-4.717 0-8.541 3.823-8.541 8.539 0 4.717 3.824 8.539 8.541 8.539 4.716 0 8.537-3.822 8.537-8.539" fill="#fff200"/></g><g transform="translate(365.14 592.81)"><path d="m0 0c0-4.717-3.821-8.539-8.537-8.539-4.717 0-8.541 3.822-8.541 8.539s3.824 8.539 8.541 8.539c4.716 0 8.537-3.822 8.537-8.539" fill="#ed1d24"/></g><g transform="translate(365.14 549.55)"><path d="m0 0c0-4.717-3.821-8.539-8.537-8.539-4.717 0-8.541 3.822-8.541 8.539s3.824 8.539 8.541 8.539c4.716 0 8.537-3.822 8.537-8.539" fill="#00a651"/></g><g transform="translate(346.04 582)"><path d="m0 0h21.132" fill="none" stroke="#fff" stroke-width=".5"/></g><g transform="translate(346.04 560.37)"><path d="m0 0h21.132" fill="none" stroke="#fff" stroke-width=".5"/></g></g><text transform="matrix(1 0 0 -1 232.95 589.98)" fill="black" font-family="Helvetica" font-size="9px" font-weight="bold"><tspan x="0" y="0">R</tspan><tspan x="0" y="21.636">Y</tspan><tspan x="0" y="43.271999">G</tspan></text><g transform="translate(227.32 560.37)"><path d="m0 0v-21.382h-21.133v64.396h21.133v-21.382z"/></g><g clip-path="url(#d)"><g transform="translate(225.29 571.18)"><path d="m0 0c0-4.716-3.822-8.539-8.537-8.539-4.717 0-8.541 3.823-8.541 8.539 0 4.717 3.824 8.539 8.541 8.539 4.715 0 8.537-3.822 8.537-8.539" fill="#fff200"/></g><g transform="translate(225.29 592.81)"><path d="m0 0c0-4.717-3.822-8.539-8.537-8.539-4.717 0-8.541 3.822-8.541 8.539s3.824 8.539 8.541 8.539c4.715 0 8.537-3.822 8.537-8.539" fill="#ed1d24"/></g><g transform="translate(225.29 549.55)"><path d="m0 0c0-4.717-3.822-8.539-8.537-8.539-4.717 0-8.541 3.822-8.541 8.539s3.824 8.539 8.541 8.539c4.715 0 8.537-3.822 8.537-8.539" fill="#00a651"/></g><g transform="translate(206.19 582)"><path d="m0 0h21.133" fill="none" stroke="#fff" stroke-width=".5"/></g><g transform="translate(206.19 560.37)"><path d="m0 0h21.133" fill="none" stroke="#fff" stroke-width=".5"/></g><g transform="translate(297.25 560.37)"><path d="m0 0v-21.382h-21.133v64.396h21.133v-21.382z"/></g><g transform="translate(276.11 582)"><path d="m0 0h21.133" fill="none" stroke="#fff" stroke-width=".5"/></g><g transform="translate(276.11 560.37)"><path d="m0 0h21.133" fill="none" stroke="#fff" stroke-width=".5"/></g><g transform="translate(286.68 601.35)"><path d="m0 0c4.717 0 8.539-3.824 8.539-8.539 0-4.717-3.822-8.539-8.539-8.539-4.713 0-8.538 3.822-8.538 8.539 0 4.715 3.825 8.539 8.538 8.539" fill="#ed1d24"/></g><g transform="translate(286.68 579.72)"><path d="m0 0c4.717 0 8.539-3.824 8.539-8.539 0-4.717-3.822-8.539-8.539-8.539-4.713 0-8.538 3.822-8.538 8.539 0 4.715 3.825 8.539 8.538 8.539" fill="#fff200"/></g><g transform="translate(286.68 558.09)"><path d="m0 0c4.717 0 8.539-3.824 8.539-8.539 0-4.717-3.822-8.539-8.539-8.539-4.713 0-8.538 3.822-8.538 8.539 0 4.715 3.825 8.539 8.538 8.539" fill="#00a651"/></g></g><g fill="black" font-family="Helvetica"><text transform="matrix(1 0 0 -1 297.23 684.29)" font-size="9px" font-weight="bold"><tspan x="0" y="0">*</tspan><tspan x="69.912003 73.413002" y="83.681999">**</tspan></text><text transform="matrix(.98 0 0 -1 480.12 499.59)" font-size="8px"><tspan x="0 3.1040001 6.9200001 12.248 16.688 21.128 23.784 28.224001 32.664001 34.880001 38.872002 40.639999 45.080002 49.52 53.959999 55.728001 57.944 60.16 64.599998 68.592003" y="0">* Shared signal face</tspan><tspan x="-7.2639999 -3.1040001 0 3.1040001 6.928 13.144 17.584 19.799999 21.568001 26.007999 30.448 34.888 36.655998 38.872002 42.863998 44.632 49.071999 53.512001 57.952 59.720001 61.936001 64.152 68.592003 72.584 77.024002" y="11.496"> ** Optional signal face </tspan><tspan x="6.928 9.5839996 13.576 18.016001 20.672001 24.664 26.431999 30.872 35.312 37.528 41.967999 45.959999 48.175999 52.167999 56.608002 61.048 63.703999 68.143997 72.584" y="19.992001">(serving as shared </tspan><tspan x="6.928 10.92 12.688 17.128 21.568001 26.007999 27.775999 29.992001 32.208 36.647999 40.639999 45.080002" y="28.488001">signal face)</tspan></text><text transform="matrix(1 0 0 -1 248.52 461.82)" font-size="10px" font-weight="bold"><tspan x="0 7.2199998 10 15.56 18.34 23.711 29.271 35.381001 38.160999 43.721001 49.280998 52.061001 54.841 60.401001 64.291 68.181 73.740997 79.850998 85.960999 91.521004 100.411 105.971 112.081 115.411" y="0">B – Typical arrangements</tspan></text><text transform="matrix(1 0 0 -1 311.99 440.28)" font-size="9px" font-weight="bold"><tspan x="0 21.636 43.271999" y="0">RYG</tspan><tspan x="-36.287998" y="-2.1600001">R</tspan><tspan x="-36.287998" y="19.466999">Y</tspan><tspan x="-36.287998" y="41.103001">G</tspan></text></g><g transform="translate(248.94 455.84)"><path d="m0 0v-64.397h21.134v64.397z"/></g><g clip-path="url(#c)"><g transform="translate(268.04 423.64)"><path d="m0 0c0-4.717-3.822-8.539-8.537-8.539-4.717 0-8.541 3.822-8.541 8.539s3.824 8.538 8.541 8.538c4.715 0 8.537-3.821 8.537-8.538" fill="#fff200"/></g><g transform="translate(268.04 445.28)"><path d="m0 0c0-4.718-3.822-8.54-8.537-8.54-4.717 0-8.541 3.822-8.541 8.54 0 4.717 3.824 8.539 8.541 8.539 4.715 0 8.537-3.822 8.537-8.539" fill="#ed1d24"/></g><g transform="translate(268.04 402.01)"><path d="m0 0c0-4.717-3.822-8.539-8.537-8.539-4.717 0-8.541 3.822-8.541 8.539s3.824 8.539 8.541 8.539c4.715 0 8.537-3.822 8.537-8.539" fill="#00a651"/></g><g transform="translate(248.94 434.46)"><path d="m0 0h21.133" fill="none" stroke="#fff" stroke-width=".5"/></g><g transform="translate(248.94 412.83)"><path d="m0 0h21.133" fill="none" stroke="#fff" stroke-width=".5"/></g><g transform="translate(347.69 434.21)"><path d="m0 0h21.383v-21.132h-64.397v21.132h21.382z"/></g><g transform="translate(336.87 432.18)"><path d="m0 0c4.717 0 8.538-3.821 8.538-8.536 0-4.717-3.821-8.541-8.538-8.541s-8.538 3.824-8.538 8.541c0 4.715 3.821 8.536 8.538 8.536" fill="#fff200"/></g><g transform="translate(315.24 432.18)"><path d="m0 0c4.718 0 8.541-3.821 8.541-8.536 0-4.717-3.823-8.541-8.541-8.541-4.717 0-8.538 3.824-8.538 8.541 0 4.715 3.821 8.536 8.538 8.536" fill="#ed1d24"/></g><g transform="translate(358.51 432.18)"><path d="m0 0c4.717 0 8.538-3.821 8.538-8.536 0-4.717-3.821-8.541-8.538-8.541s-8.54 3.824-8.54 8.541c0 4.715 3.823 8.536 8.54 8.536" fill="#00a651"/></g><g transform="translate(326.06 413.08)"><path d="m0 0v21.132" fill="none" stroke="#fff" stroke-width=".5"/></g><g transform="translate(347.69 413.08)"><path d="m0 0v21.132" fill="none" stroke="#fff" stroke-width=".5"/></g></g></g></svg>
