<?xml version="1.0" encoding="UTF-8"?>
<svg width="604.74" height="321.15" version="1.1" viewBox="0 0 604.74 321.15" xml:space="preserve" xmlns="http://www.w3.org/2000/svg"><defs><clipPath id="c"><path d="m80.227 434.32h478.55v270.41h-478.55z"/></clipPath><clipPath id="b"><path d="m80.227 434.32h478.55v270.41h-478.55z"/></clipPath><clipPath id="a"><path d="m80.227 434.32h478.55v270.41h-478.55z"/></clipPath></defs><g transform="matrix(1.3333 0 0 -1.3333 -124.42 905.82)"><g transform="translate(527.21 647.75)"><path d="m0 0h-341.18" fill="none" stroke="#000" stroke-width=".5"/></g><g transform="translate(527.21 617.04)"><path d="m0 0h-341.18" fill="none" stroke="#000" stroke-width=".5"/></g><g transform="translate(527.21 586.32)"><path d="m0 0h-341.18" fill="none" stroke="#000" stroke-width=".5"/></g><g transform="translate(527.21 555.61)"><path d="m0 0h-341.18" fill="none" stroke="#000" stroke-width=".5"/></g><g transform="translate(217.05 523.48)"><path d="m0 0v154.98" fill="none" stroke="#000" stroke-width=".5"/></g><g transform="translate(248.06 523.48)"><path d="m0 0v154.98" fill="none" stroke="#000" stroke-width=".5"/></g><g transform="translate(279.08 523.48)"><path d="m0 0v154.98" fill="none" stroke="#000" stroke-width=".5"/></g><g transform="translate(310.1 523.48)"><path d="m0 0v154.98" fill="none" stroke="#000" stroke-width=".5"/></g><g transform="translate(341.11 523.48)"><path d="m0 0v154.98" fill="none" stroke="#000" stroke-width=".5"/></g><g transform="translate(372.13 523.48)"><path d="m0 0v154.98" fill="none" stroke="#000" stroke-width=".5"/></g><g transform="translate(403.14 523.48)"><path d="m0 0v154.98" fill="none" stroke="#000" stroke-width=".5"/></g><g transform="translate(434.16 523.48)"><path d="m0 0v154.98" fill="none" stroke="#000" stroke-width=".5"/></g><g transform="translate(465.18 523.48)"><path d="m0 0v154.98" fill="none" stroke="#000" stroke-width=".5"/></g><g transform="translate(496.19 523.48)"><path d="m0 0v154.98" fill="none" stroke="#000" stroke-width=".5"/></g><g clip-path="url(#c)"><g transform="translate(500.71 560.13)"><path d="m0 0c-3.635 0.79-29.86 7.465-35.528 8.782-18.595 4.318-37.364 8.055-62.212 16.45-19.592 6.619-43.666 17-62 25.166-22.49 10.019-45.732 24.957-62 34.167-11.333 6.417-15.083 8.667-40.083 26.167" fill="none" stroke="#000" stroke-width="2"/></g><g transform="translate(509.3 549.7)"><path d="m0 0c-51.334 7.667-106.17 15.917-166.42 37.667-41.751 15.071-95.68 40.242-129.25 58.5" fill="none" stroke="#000" stroke-width="2"/></g><g transform="translate(527.21 549.73)"><path d="m0 0h-86.518c-34.092 0-105.88 20.493-161.56 42.382-29.25 11.5-53.75 23.5-67.75 30.5" fill="none" stroke="#000" stroke-width="2"/></g></g><g transform="translate(527.21 560.16)"><path d="m0 0-81.647-0.097" fill="none" stroke="#000" stroke-width="2"/></g><g transform="translate(270.92 666.27)"><path d="m0 0-12.582-4.194" fill="none" stroke="#000"/></g><g transform="translate(258.79 663.66)"><path d="m0 0-4.425-2.922 5.293 0.318z"/></g><g clip-path="url(#b)"><g transform="translate(418.58 543.62)"><path d="m0 0s35.446 3.523 50.2 9.234" fill="none" stroke="#000"/></g></g><g transform="translate(468.37 551.26)"><path d="m0 0 4.331 3.063-5.28-0.487z"/></g><g clip-path="url(#a)"><g transform="translate(383.04 621.24)"><path d="m0 0s47.764-40.913 86.758-58.338" fill="none" stroke="#000"/></g></g><g transform="translate(468.36 562.09)"><path d="m0 0 5.211-0.992-4.016 3.465z"/></g><g transform="translate(272.27 566.6)"><path d="m0 0 24.417 14.158" fill="none" stroke="#000"/></g><g transform="translate(296.54 579.04)"><path d="m0 0 3.878 3.886-5.264-1.38z"/></g><g fill="#fff"><path d="m270.3 562.06h-73.962v9.136h73.962z"/><path d="m408.64 529.12h-145.59v18.635h145.59z"/><path d="m441.36 662.53h-168.21v9.135h168.21z"/></g><text transform="matrix(1 0 0 -1 275.29 664.12)" fill="black" font-family="Helvetica" font-size="9px"><tspan x="0 5.0040002 7.506 14.508 21.006001 23.507999 31.004999 38.007 44.505001 50.507999 53.009998 58.014 64.016998 70.514999 76.517998 82.521004 85.023003 91.026001 93.528 98.531998 101.034 108.036 114.534 117.036 124.533 131.535 138.033 144.036 146.53799 151.54201 157.545 164.043 170.04601" y="0">2 OR MORE LANES &amp; 2 OR MORE LANES</tspan></text><text transform="matrix(1 0 0 -1 261.43 540.19)" fill="black" font-family="Helvetica" font-size="9px"><tspan x="0 5.0040002 7.506 14.508 21.006001 23.507999 31.004999 38.007 44.505001 50.507999 53.009998 60.507 66.510002 71.010002 78.012001 84.510002 87.507004 93.510002 99.009003 105.507 111.51 117.513 122.85 125.352 130.356 136.35899 142.85699 148.86" y="0">2 OR MORE MAJOR-STREET LANES</tspan><tspan x="0 6.0029998 8.5050001 13.509 16.011 23.507999 26.01 32.507999 39.509998 46.007999 49.005001 55.007999 60.507 67.004997 73.008003 79.011002 84.3489 86.850899 91.854897 97.857903 104.3559" y="9.9989996">&amp; 1 MINOR-STREET LANE</tspan></text><g transform="translate(509.25 623.02)"><path d="m0 0h-145.59v18.635h118.41l0.175-10.02 27.012-0.175z" fill="#fff"/></g><g fill="black" font-family="Helvetica"><text transform="matrix(1 0 0 -1 362.05 634.1)" font-size="9px"><tspan x="0 5.0040002 7.506 15.003 21.006001 25.506001 32.507999 39.006001 42.002998 48.006001 53.505001 60.002998 66.005997 72.009003 77.346001 79.848 84.851997 90.855003 97.352997 103.356 105.858" y="0">1 MAJOR-STREET LANE &amp;</tspan><tspan x="0 5.0040002 7.506 14.508 21.006001 23.507999 31.004999 38.007 44.505001 50.507999 53.009998 60.507 63.008999 69.507004 76.509003 83.007004 86.003998 92.007004 97.505997 104.004 110.007 116.01 121.347 123.849 128.853 134.856 141.354 147.35699" y="9.9989996">2 OR MORE MINOR-STREET LANES</tspan><tspan x="-165.123 -160.119 -157.617 -152.61301 -146.61 -140.112 -134.10899 -131.60699 -125.604 -123.102 -118.098 -115.596 -110.592 -104.589 -98.091003" y="71.153999">1 LANE &amp; 1 LANE</tspan></text><text transform="matrix(1 0 0 -1 178.5 508.91)" font-size="8.205px"><tspan x="0 4.5619798 9.1239595 31.137976 35.699955 40.261936 62.079029 66.641006 71.202988 93.020088 97.582062 102.14404 124.07601 128.63799 133.19997 155.14014 159.70212 164.2641 186.08119 190.64317 195.20515 214.73305 219.29503 223.85701 228.41899 245.90385 249.86194 254.42392 258.9859 276.95978 281.52176 286.08374 290.64572 307.90082 312.4628 317.02478 321.58676 338.95676 343.51874 348.08072 352.6427" y="0">30040050060070080090010001100120013001400</tspan><tspan x="-13.40697 -8.8449898 -4.28301" y="-44.09367">100</tspan><tspan x="-13.50543 -8.94345 -4.3814702" y="-74.238838">200</tspan><tspan x="-13.50543 -8.94345 -4.3814702" y="-104.42504">300</tspan><tspan x="-13.50543 -8.94345 -4.3814702" y="-134.36508">400</tspan><tspan x="-13.50543 -8.94345 -4.3814702" y="-164.55128">500</tspan></text><text transform="matrix(1 0 0 -1 122.24 624.86)" font-size="10px"><tspan x="0 8.3299999 11.11 18.33 26.110001" y="0">MINOR</tspan><tspan x="-5.9400001 0.73000002 6.8400002 14.06 20.73 27.4" y="11">STREET</tspan><tspan x="3.3299999 11.66 19.440001 26.66" y="22">MORE</tspan><tspan x="-11.87 -4.6500001 2.5699999 5.3499999 11.46 14.24 21.459999 28.129999" y="33">CRITICAL</tspan><tspan x="-28.91 -22.24 -15.57 -8.8999996 -1.6799999 6.0999999 12.77 19.99 27.209999 29.99" y="44">APPROACH -</tspan><tspan x="12.76 19.43 26.1" y="55">VPH</tspan></text><text transform="matrix(1 0 0 -1 530.88 559.97)" font-size="8.205px"><tspan x="0 3.958092 8.520072 13.082052" y="0">115*</tspan><tspan x="2.1579151 6.7198949 11.281875" y="12.676725">80*</tspan></text><text transform="matrix(1 0 0 -1 214.13 490.31)" font-size="10px"><tspan x="0 8.3299999 15 20 27.780001 35 37.779999 44.450001 50.560001 57.779999 64.449997 71.120003 77.230003 87.230003 93.158997 100.939 106.309 112.979 118.174 120.954 128.73399 134.84399 137.62399 144.29401 152.07401 158.18401 165.40401 167.627 174.297 180.967 187.63699 194.85699 202.63699 209.30701 216.52699 223.74699 230.41701 237.08701" y="0">MAJOR STREET—TOTAL OF BOTH APPROACHES—</tspan><tspan x="56.029999 62.700001 69.370003 76.589996 79.370003 86.589996 92.150002 98.82 105.49 108.27 114.94 121.61 128.83 131.61 138.83 146.61 153.83 161.05 163.83 167.16 173.83 180.5 187.72" y="11">VEHICLES PER HOUR (VPH)</tspan></text><text transform="matrix(1 0 0 -1 207.32 457.08)" font-size="8px"><tspan x="0 3.112 8.8879995 13.336 15.56 20.007999 22.232 24.455999 28.316799 32.764801 37.212799 39.436798 43.436798 47.8848 52.332802 54.556801 59.004799 63.452801 67.900803 69.676804 71.452797 75.900803 79.900803 82.124802 86.5728 90.5728 92.796799 95.020798 99.468803 103.9168 106.1408 107.9168 112.3648 118.1408 122.5888 125.2528 127.4768 129.70081 134.1488 136.81281 141.2608 145.2608 149.7088 154.1568 155.9328 160.3808 162.6048 166.6048 171.0528 172.8288 177.27679 183.9408 188.38879 190.61279 192.83681 197.28481 199.94881 202.17281 206.6208 208.8448 215.5088 217.28481 221.7328 226.1808 228.8448 231.5088 235.5088 237.7328 240.3968 244.8448 249.2928 251.5168" y="0">*Note: 115 vph applies as the lower threshold volume for a minor-street </tspan><tspan x="3 7.448 11.896 16.344 19.007999 23.455999 27.903999 31.903999 36.352001 38.576 44.352001 46.127998 48.352001 52.799999 55.023998 57.248001 63.023998 67.472 69.695999 74.143997 76.807999 79.031998 85.695999 90.143997 92.807999 97.255997 99.480003 101.256 105.704 110.152 114.6 118.6 120.824 125.272 129.72 134.168 136.392 140.84 145.28799 147.51199 151.51199 155.96001 160.408 162.632 167.08 171.528 175.976 177.752 179.528 183.976 187.976 190.2 194.64799 198.64799 200.87199 203.09599 207.54401 211.992 214.216 215.992 220.44 226.216 230.664 233.328" y="8.4960003">approach with two or more lanes and 80 vph applies as the lower </tspan><tspan x="3 5.224 9.6719999 12.336 16.784 20.784 25.232 29.68 31.455999 35.903999 38.127998 42.127998 46.576 48.352001 52.799999 59.464001 63.911999 66.136002 68.360001 72.807999 75.472 77.695999 82.143997 84.367996 91.031998 92.807999 97.255997 101.704 104.368 107.032 111.032 113.256 115.92 120.368 124.816 127.04 129.26401 133.71201 138.16 142.608 145.272 149.72 154.168 158.168 162.616 164.84 170.616 172.392 174.616 179.064 181.28799 185.73599 190.18401 194.632 196.856 198.632 203.08 207.528" y="16.992001">threshold volume for a minor-street approach with one lane</tspan></text></g><g transform="translate(527.19 523.49)"><path d="m0 0h-341.21v154.94h341.21z" fill="none" stroke="#000" stroke-width=".5"/></g></g></svg>
