<?xml version="1.0" encoding="UTF-8"?>
<svg width="674.49" height="496.31" version="1.1" viewBox="0 0 674.49 496.31" xml:space="preserve" xmlns="http://www.w3.org/2000/svg"><defs><clipPath id="f"><path d="m21.758 71h523.48v392.26h-523.48z"/></clipPath><clipPath id="e"><path d="m21.758 71h523.48v392.26h-523.48z"/></clipPath><clipPath id="d"><path d="m21.758 71h523.48v392.26h-523.48z"/></clipPath><clipPath id="c"><path d="m21.758 71h523.48v392.26h-523.48z"/></clipPath><clipPath id="b"><path d="m21.758 71h523.48v392.26h-523.48z"/></clipPath><clipPath id="a"><path d="m21.758 71h523.48v392.26h-523.48z"/></clipPath></defs><g transform="matrix(1.3333 0 0 -1.3333 -46.401 599.49)"><g fill="black" font-family="Helvetica"><g font-size="9px"><text transform="matrix(1 0 0 -1 415.14 143.51)" font-weight="bold"><tspan x="0" y="0">G</tspan></text><text transform="matrix(1 0 0 -1 425.8 143.51)"><tspan x="0 5.256 9 16.002001 18.999001 24.003 29.007 34.011002 36.513 39.014999 44.019001 46.521 51.525002 54.521999 59.021999 64.026001" y="0">= Green Interval</tspan><tspan x="-22.9986" y="12.501"> </tspan></text><text transform="matrix(1 0 0 -1 416.13 131.01)" font-weight="bold"><tspan x="0" y="0">Y</tspan></text><text transform="matrix(1 0 0 -1 425.8 131.01)"><tspan x="0 5.256 9 14.1768 19.180799 21.178801 23.1768 28.180799 34.678799 37.180801 43.686001 48.689999 53.694 58.698002 63.702 68.706001 71.208 73.709999 78.713997 81.216003 86.220001 89.217003 93.717003 98.721001" y="0">= Yellow Change Interval</tspan><tspan x="-22.9986 9.0017996 11.9988 17.0028 19.504801 22.0068 27.010799 29.5128 32.014801 34.012798 39.0168 44.020802 48.520802 51.0228 53.524799 58.528801 61.0308 65.5308 70.534798 75.034798 80.038803 85.042801 90.046799 94.546799" y="9.5039997"> (of at least 3 seconds)</tspan><tspan x="-22.9986" y="22.004999"> </tspan></text><text transform="matrix(1 0 0 -1 415.64 109)" font-weight="bold"><tspan x="0" y="0">R</tspan></text><text transform="matrix(1 0 0 -1 425.8 109)"><tspan x="0 5.256 9 15.498 20.502001 25.506001 28.007999 34.506001 36.504002 41.514301 46.518299 49.515301 54.519299 59.5233 64.0233 69.027298 71.529297 74.031303 79.035301 81.5373 86.541298 89.5383 94.0383 99.042297" y="0">= Red Clearance Interval</tspan><tspan x="-22.9986" y="12.501"> </tspan></text><text transform="matrix(1 0 0 -1 405.14 96.5)" font-weight="bold"><tspan x="0 6.4980001 11.502" y="0">Red</tspan></text><text transform="matrix(1 0 0 -1 425.8 96.5)"><tspan x="0 5.256 9 15.498 20.502001 25.506001 28.007999 33.012001 38.015999 42.515999 47.52 52.523998 57.023998 62.028" y="0">= Red because </tspan><tspan x="9.0017996 13.5018 18.5058 23.5098 26.011801 28.0098 30.007799 34.507801 37.0098 39.007801 44.011799 49.0158 51.517799 54.019798 57.0168 62.020802 64.367996 66.870003 68.867996 73.367996 75.870003 80.874001 85.877998" y="9.5039997">conflicting traffic has</tspan><tspan x="-22.9986 9.0017996 14.0058 19.0098 24.0138 29.017799 31.5198 34.5168 39.520802 41.518799 46.5228 51.526798 56.026798 61.0308" y="19.007999"> been released</tspan></text></g><text transform="matrix(.98 0 0 -1 51.02 143.16)" font-size="8px"><tspan x="0 3.1040001 6.9200001 11.8 16.24 20.68 22.896 26.888 31.327999 35.768002 40.208 42.424 46.863998 51.304001 57.071999 61.512001 63.728001 68.167999 69.935997 73.928001 78.367996 80.136002 84.575996 88.568001 90.783997 92.552002 96.543999 98.760002 103.2 107.64 109.856 111.624 116.064 120.504 124.944 126.712 128.92799 131.144 135.584 138.24001 140.45599 145.784 150.224 154.664 159.104 163.09599 165.312 167.968 169.73599 174.17599 178.616 180.832 186.60001 191.03999 195.48 199.92 204.36 208.8 211.01601 213.23199 217.672 219.888 224.328 226.98399 230.976 235.416 237.18401 241.17599 243.392 247.832 250.048 252.26401 256.70401 258.92001 262.91199 267.35199 271.34399 275.784 280.224 284.664 288.65601 290.87201 295.31201 297.96799 300.18399 301.952 306.392 310.384 314.37601" y="0">* The countdown display is optional for Pedestrian Change Intervals of 7 seconds or less.</tspan><tspan x="-7.2639999 -3.1040001 0 3.1040001 6.9200001 11.8 16.24 20.68 22.896 30.145599 34.585602 36.3536 40.3456 42.5616 44.777599 49.217602 51.433601 55.8736 58.529598 62.521599 66.961601 68.729599 70.945602 77.601601 82.041603 86.0336 88.249603 92.689598 97.129601 99.345596 102.0016 106.4416 110.8816 115.3216 119.3136 123.7536 128.1936 130.40961 134.84959 139.2896 143.7296 148.1696 150.82561 153.0416 157.0336 161.4736 168.12959 172.5696 174.7856 178.7776 183.21761 187.65759 192.0976 193.8656 196.0816 197.84959 202.2896 206.7296 210.7216 212.93761 215.5936 219.5856 224.0256 228.46561 230.68159 236.0096 240.4496 244.4416 246.65759 248.4256 252.8656 257.3056 259.52161 263.96161 266.17761 268.39359 272.83359 277.27359 279.9296" y="11.496"> ** The Walk Interval may be reduced under some conditions (see Section 4I.07).</tspan><tspan x="-7.2639999 -6.2160001 -3.112 -0.0080000004 3.096 6.9120002 11.792 16.232 20.672001 22.888 28.216 32.655998 34.7304 36.9464 41.386398 44.0424 46.2584 48.4744 52.914398 55.130402 59.5704 62.226398 66.218399 70.658401 72.426399 74.642403 76.858398 82.626404 87.066399 88.834396 92.826401 97.266403 99.482399 103.4744 107.9144 112.3544 114.1224 115.8904 118.1064 122.5464 124.3144 130.0824 134.5224 138.5144 142.50639 144.7224 149.1624 153.6024 155.81841 160.25841 162.9144 167.3544 171.34641 173.1144 177.5544 181.9944 186.4344 188.65041 193.09039 197.5304 201.9704 204.1864 208.6264 210.39439 214.3864 218.8264 220.59441 225.03439 229.0264 233.4664 237.9064 240.12241 242.33839 248.9944 253.4344 257.42639 259.6424 264.0824 268.5224 270.7384 275.17841 279.17041 283.61041 288.05042 290.26639 292.48239 296.92239 299.1384 303.5784 308.0184 309.78641 314.22641" y="22.992001"> *** The Buffer Interval, which shall always be provided and displayed, may be used to help </tspan><tspan x="6.9120002 10.904 15.344 17.559999 19.327999 23.32 25.535999 29.528 31.743999 33.959999 38.400002 42.84 45.056 49.048 53.487999 55.256001 59.248001 63.688 65.456001 69.896004 72.112 76.552002 80.991997 83.208 87.648003 92.087997 96.528 100.968 104.96 107.176 109.832 111.6 116.04 120.48 122.696 126.688 128.45599 132.896 137.336 139.992 144.43201 148.87199 152.864 157.304 159.52 161.73599 163.504 170.16 174.60001 176.81599 179.032 183.472 186.12801 188.34399 195 199.44 203.43201 205.64799 210.088 214.528 218.968 220.73599 225.17599 227.392 231.832 234.048 236.26401 240.70399 243.36 245.576 247.79201 252.23199 256.672 258.888 262.88 267.32001 269.08801 273.07999 277.51999 279.28799 283.728 285.944 290.384 294.82401" y="31.488001">satisfy the calculated pedestrian clearance time, or may begin after the calculated </tspan><tspan x="6.9120002 11.352 15.792 20.232 24.672001 28.664 30.879999 33.535999 35.304001 39.743999 44.183998 46.400002 50.391998 52.16 56.599998 61.040001 63.695999 68.136002 72.575996 76.568001 81.008003 83.223999 85.440002 87.208 93.863998 98.304001 100.52 104.96 109.4 113.392 115.608 120.048 124.488 128.92799 133.368 137.808" y="39.984001">pedestrian clearance time has ended.</tspan></text><text transform="matrix(1 0 0 -1 36.301 404.84)" font-size="9px" font-weight="bold"><tspan x="0 6.0029998 11.007 16.506001 21.51 26.514 29.511 33.012001 35.514 40.518002" y="0">Pedestrian</tspan><tspan x="9.5039997 15.507 18.009001 23.507999 29.007 34.011002" y="9.5039997">Signal</tspan><tspan x="7.0019999 13.5 16.002001 21.006001 26.504999 29.007 34.011002" y="19.007999">Display</tspan><tspan x="-1.2869999 4.7160001 9.7200003 15.219 20.223 25.226999 28.224001 31.725 34.227001 39.230999" y="39.599998">Pedestrian</tspan><tspan x="3.2130001 5.7150002 11.214 14.211 19.215 22.716 27.719999 32.723999 35.226002" y="49.104">Intervals</tspan><tspan x="-2.1600001 4.3379998 9.342 11.844 16.848 19.844999 22.347 27.846001 33.345001 38.348999 43.848 46.349998 51.848999 54.351002 57.348 62.847 65.348999 70.352997 75.357002 80.361 85.860001 90.863998 93.365997 98.370003 101.367 106.371 111.87 114.372 119.376 124.38 129.879 132.381 137.38499 142.884 145.386 150.39 153.89101 156.39301 161.892 167.39101 172.395 177.399 182.3967 184.8987 187.4007 192.8997 195.8967 200.9007 204.4017 209.4057 214.4097 216.9117 221.9157" y="110.502">Relationship to associated vehicular phase intervals:</tspan><tspan x="39.060001 44.570702 49.574699 52.076698 54.578701 60.077702 67.079697 69.581703 76.079697 81.578697 86.582703 92.081703 97.580704 102.5847 105.0867 107.5887 113.0877 116.0847 121.0887 124.5897 129.5937 134.5977 137.0997 139.6017 144.8577 147.3597 153.8577 159.3567 162.3537 165.35069 170.35471 173.8557 176.3577 178.8597 184.3587 187.3557 192.3597 195.8607 200.8647 205.8687" y="128.952">Yellow Change Interval = Buffer Interval</tspan><tspan x="120.996 126 128.502 133.506 138.50999 143.51401 149.013 154.51199 160.011" y="67.608002">7 seconds</tspan><tspan x="130.005 137.502 140.004 146.502 149.004 152.505" y="77.112">MIN.**</tspan><tspan x="452.07001 457.07401 459.57599 464.57999 469.58401 474.58801 480.08701 485.586 491.08499" y="67.608002">2 seconds</tspan><tspan x="464.57999 472.077 474.57901 481.077" y="77.112">MIN.</tspan><tspan x="416.043 420.543 426.04199 431.04599 434.547 440.04599 444.54599 447.048 452.547 458.04599 460.548 466.047 469.04401 471.54599 477.04501 480.04199" y="-38.223">“Zero” point of </tspan><tspan x="407.28601 412.29001 417.789 423.28799 428.78699 431.784 437.28299 442.78201 449.784 455.28299 457.785 463.284 465.78601 470.79001 476.289 478.79099 483.79501" y="-28.719">countdown display</tspan><tspan x="201.825 208.323 213.327 215.82899 220.83299 226.332 228.834 233.838 236.83501 241.839 247.338 249.84 255.339 260.34299 265.84201 270.84601 275.85001 278.84698 282.34799 284.85001 289.854 295.353 297.85501 302.85901 305.36099 310.36499 315.36899 318.87 323.87399 329.37299 334.37701 339.38101 341.883 344.88 347.38199 355.383 360.38699 363.888 367.38901" y="77.237999">Calculated pedestrian clearance time***</tspan><tspan x="247.095 250.092 255.09599 260.10001 265.104 267.60599 273.60901 278.61301 283.617 286.61401 289.116 294.61499 300.11401 302.616 307.62 310.12201 312.62399 317.62799 322.63199" y="86.741997">(see Section 4I.07)</tspan><tspan x="64.601997 70.605003 73.601997 78.606003 83.610001 89.109001 391.599 397.60199 400.599 405.603 410.60699 416.10599 448.59601 454.599 457.59601 462.60001 467.604 473.103" y="-11.772">SteadySteadySteady</tspan><tspan x="236.61 242.10899 244.61099 249.61501 254.619 260.11801 262.62 268.11899 273.61801 276.12 283.12201 285.62399 288.621 294.12 296.62201 301.62601 307.125 312.62399 318.12299 321.12 326.61899 332.11801 339.12 344.61899" y="-11.97">Flashing with countdown*</tspan></text></g><path d="m460.67 351.31h-36v24h36z" fill="#f7921e"/><g transform="translate(460.67 351.31)"><path d="m0 0h-36v24h36z" fill="none" stroke="#000" stroke-width=".5"/></g><g transform="translate(538.67 351.31)"><path d="m0 0h-78v24h78l-2-6 4-12z" fill="#f7921e"/></g><g transform="translate(94.669 375.31)"><path d="m0 0h42v-24h-42l2 6-4 12z" fill="#f7921e"/></g><g transform="translate(538.67 351.31)"><path d="m0 0h-78v24h78" fill="none" stroke="#000" stroke-width=".5"/></g><g transform="translate(94.669 375.31)"><path d="m0 0h42v-24h-42" fill="none" stroke="#000" stroke-width=".5"/></g><path d="m220.67 351.31h-84v24h84z" fill="#fff"/><g transform="translate(220.67 351.31)"><path d="m0 0h-84v24h84z" fill="none" stroke="#000" stroke-width=".5"/></g><path d="m424.67 351.31h-204v24h204z" fill="#fdc589"/><g transform="translate(424.67 351.31)"><path d="m0 0h-204v24h204z" fill="none" stroke="#000" stroke-width=".5"/></g><text transform="matrix(1 0 0 -1 168.33 365.25)" fill="black" font-family="Helvetica" font-size="9px" font-weight="bold"><tspan x="0 8.1647997 13.1688 15.6708" y="0">Walk</tspan><tspan x="-5.6700001 -3.168 2.3310001 5.3280001 10.332 13.833 18.837 23.841" y="9.5039997">Interval</tspan><tspan x="261.09 267.58801 273.08701 276.08401 279.08099 284.08499" y="0">Buffer</tspan><tspan x="258.336 260.83801 266.33701 269.33401 274.33801 277.83899 282.84299 287.84698" y="9.5039997">Interval</tspan><tspan x="131.33701 137.34 142.34399 147.843 152.847 157.851 160.84801 164.349 166.851 171.855" y="0">Pedestrian</tspan><tspan x="120.591 127.089 132.588 137.592 143.091 148.59 153.59399 156.09599 158.59801 164.097 167.09399 172.09801 175.599 180.603 185.60699" y="9.5039997">Change Interval</tspan></text><path d="m460.67 273.31h-36v12h36z" fill="#fff200"/><g transform="translate(460.67 273.31)"><path d="m0 0h-36v12h36z" fill="none" stroke="#000" stroke-width=".5"/></g><g transform="translate(538.67 273.31)"><path d="m0 0h-78v12h78l-1-3 2-6z" fill="#ed1d24"/></g><g transform="translate(251.16 285.31)"><path d="m0 0h173.51v-12h-173.51l1 3-2 6z" fill="#2bb673"/></g><text transform="matrix(1 0 0 -1 439.1 275.25)" fill="black" font-family="Helvetica" font-size="9px" font-weight="bold"><tspan x="0 52.064999 58.563 63.567001 -122.94" y="0">YRedG</tspan><tspan x="-292.46399 -286.95331 -281.94931 -279.4473 -276.94531 -271.44629 -264.44431 -261.94229 -255.44431 -249.9453 -244.9413 -239.44231 -233.9433 -228.9393 -226.4373 -223.9353 -218.43629 -215.4393 -210.4353 -206.9343 -201.9303 -196.9263" y="17.559">Yellow Change Interval</tspan><tspan x="-370.50299 -365.24701 -362.745 -356.24701 -351.24301 -345.74399 -343.242 -336.74399 -334.242 -329.23801 -324.23401 -320.733 -315.729 -310.23001 -305.22601 -300.22198 -297.72 -295.21799 -289.71899 -286.72198 -281.71799 -278.21701 -273.21301 -268.20901 -265.707 -263.20499 -257.94901 -255.44701 -248.94901 -243.45 -240.453 -237.45599 -232.452 -228.951 -226.44901 -223.94701 -218.448 -215.451 -210.44701 -206.946 -201.942 -196.938" y="27.063">+ Red Clearance Interval = Buffer Interval</tspan><tspan x="-323.30701 -317.30399 -312.29999 -308.79901 -305.802 -303.29999 -297.80099 -294.80399 -292.46219 -286.95059 -281.94659 -279.44461 -276.9426 -271.4436 -264.44159 -261.93961 -255.4416 -249.9426 -244.9386 -239.43961 -233.9406 -228.9366 -226.4346 -223.9326 -218.43359 -215.4366 -210.4326 -206.93159 -201.9276 -196.9236" y="42.75">Part of Yellow Change Interval</tspan><tspan x="-370.50299 -365.24701 -362.745 -356.24701 -351.24301 -345.74399 -343.242 -336.74399 -334.242 -329.23801 -324.23401 -320.733 -315.729 -310.23001 -305.22601 -300.22198 -297.72 -295.21799 -289.71899 -286.72198 -281.71799 -278.21701 -273.21301 -268.20901 -265.707 -263.20499 -257.94901 -255.44701 -248.94901 -243.45 -240.453 -237.45599 -232.452 -228.951 -226.44901 -223.94701 -218.448 -215.451 -210.44701 -206.946 -201.942 -196.938" y="52.254002">+ Red Clearance Interval = Buffer Interval</tspan></text><path d="m442.67 249.31h-18v12h18z" fill="#fff200"/><g transform="translate(442.67 249.31)"><path d="m0 0h-18v12h18z" fill="none" stroke="#000" stroke-width=".5"/></g><g transform="translate(538.67 249.31)"><path d="m0 0h-78v12h78l-1-3 2-6z" fill="#ed1d24"/></g><g transform="translate(251.16 261.31)"><path d="m0 0h173.51v-12h-173.51l1 3-2 6z" fill="#2bb673"/></g><text transform="matrix(1 0 0 -1 430.75 251.25)" fill="black" font-family="Helvetica" font-size="9px" font-weight="bold"><tspan x="0" y="0">Y</tspan></text><path d="m460.67 249.31h-18v12h18z" fill="#f9aa8f"/><g transform="translate(460.67 249.31)"><path d="m0 0h-18v12h18z" fill="none" stroke="#000" stroke-width=".5"/></g><text transform="matrix(1 0 0 -1 448.42 251.25)" fill="black" font-family="Helvetica" font-size="9px" font-weight="bold"><tspan x="0 42.75 49.248001 54.251999 -132.255" y="0">RRedG</tspan></text><path d="m442.67 224.72h-36v12h36z" fill="#fff200"/><g transform="translate(442.67 224.72)"><path d="m0 0h-36v12h36z" fill="none" stroke="#000" stroke-width=".5"/></g><g transform="translate(538.67 224.72)"><path d="m0 0h-78v12h78l-1-3 2-6z" fill="#ed1d24"/></g><g transform="translate(251.16 236.72)"><path d="m0 0h155.51v-12h-155.51l1 3-2 6z" fill="#2bb673"/></g><text transform="matrix(1 0 0 -1 421.75 226.66)" fill="black" font-family="Helvetica" font-size="9px" font-weight="bold"><tspan x="0" y="0">Y</tspan></text><path d="m460.67 224.72h-18v12h18z" fill="#f9aa8f"/><g transform="translate(460.67 224.72)"><path d="m0 0h-18v12h18z" fill="none" stroke="#000" stroke-width=".5"/></g><text transform="matrix(1 0 0 -1 448.42 226.66)" fill="black" font-family="Helvetica" font-size="9px" font-weight="bold"><tspan x="0 42.75 49.248001 54.251999 -132.255" y="0">RRedG</tspan><tspan x="-372.06 -365.56201 -360.55801 -355.05899 -352.55701 -346.05899 -343.55701 -338.55301 -333.54901 -330.048 -325.04401 -319.54501 -314.54099 -309.53699 -307.035 -304.53299 -299.034 -296.03699 -291.03299 -287.53201 -282.52802 -277.52399 -275.022 -272.51999 -267.26401 -264.76199 -258.26401 -252.765 -249.76801 -246.771 -241.767 -238.26601 -235.76401 -233.26199 -227.763 -224.76601 -219.76199 -216.261 -211.257 -206.25301" y="22.752001">Red Clearance Interval = Buffer Interval</tspan></text><path d="m424.67 201.31h-36v12h36z" fill="#fff200"/><g transform="translate(424.67 201.31)"><path d="m0 0h-36v12h36z" fill="none" stroke="#000" stroke-width=".5"/></g><g transform="translate(538.67 201.31)"><path d="m0 0h-78v12h78l-1-3 2-6z" fill="#ed1d24"/></g><g transform="translate(251.16 213.31)"><path d="m0 0h137.51v-12h-137.51l1 3-2 6z" fill="#2bb673"/></g><text transform="matrix(1 0 0 -1 403.75 203.25)" fill="black" font-family="Helvetica" font-size="9px" font-weight="bold"><tspan x="0" y="0">Y</tspan></text><path d="m460.67 201.31h-36v12h36z" fill="#f9aa8f"/><g transform="translate(460.67 201.31)"><path d="m0 0h-36v12h36z" fill="none" stroke="#000" stroke-width=".5"/></g><text transform="matrix(1 0 0 -1 439.42 203.25)" fill="black" font-family="Helvetica" font-size="9px" font-weight="bold"><tspan x="0 51.75 58.248001 63.251999 -123.255" y="0">RRedG</tspan><tspan x="-342.306 -335.80801 -330.80399 -325.79999 -320.30099 -315.297 -312.79501 -307.79099 -304.79401 -299.79001 -294.29099 -291.789 -284.78699 -281.28601 -276.28201 -271.27802 -265.77899 -263.27701 -260.77499 -255.276 -252.27901 -247.27499 -243.774 -238.77 -233.76601 -231.26401 -228.76199 -223.758 -218.754 -215.757 -210.75301 -205.254 -199.755 -194.75101" y="17.982">Associated Green Interval extends </tspan><tspan x="-319.76099 -314.26199 -309.258 -304.254 -298.755 -293.25601 -287.75699 -285.255 -280.25101 -274.75201 -269.25299 -266.75101 -261.25201 -258.255 -255.75301 -249.255 -243.756 -240.759 -237.76199 -232.758 -229.257 -226.755 -224.25301 -218.754 -215.757 -210.75301 -207.252 -202.248 -197.244" y="27.486">beyond end of Buffer Interval</tspan></text><path d="m490.67 177.31h-24v12h24z" fill="#fff200"/><g transform="translate(490.67 177.31)"><path d="m0 0h-24v12h24z" fill="none" stroke="#000" stroke-width=".5"/></g><g transform="translate(538.67 177.31)"><path d="m0 0h-24v12h24l-1-3 2-6z" fill="#ed1d24"/></g><g transform="translate(538.67 273.31)"><path d="m0 0h-78v12h78" fill="none" stroke="#000" stroke-width=".5"/></g><g transform="translate(538.67 249.31)"><path d="m0 0h-78v12h78" fill="none" stroke="#000" stroke-width=".5"/></g><g transform="translate(538.67 224.72)"><path d="m0 0h-78v12h78" fill="none" stroke="#000" stroke-width=".5"/></g><g transform="translate(538.67 201.31)"><path d="m0 0h-78v12h78" fill="none" stroke="#000" stroke-width=".5"/></g><g transform="translate(538.67 177.31)"><path d="m0 0h-24v12h24" fill="none" stroke="#000" stroke-width=".5"/></g><g transform="translate(251.16 189.31)"><path d="m0 0h215.51v-12h-215.51l1 3-2 6z" fill="#2bb673"/></g><g transform="translate(251.16 285.31)"><path d="m0 0h173.51v-12h-173.51" fill="none" stroke="#000" stroke-width=".5"/></g><g transform="translate(251.16 261.31)"><path d="m0 0h173.51v-12h-173.51" fill="none" stroke="#000" stroke-width=".5"/></g><g transform="translate(251.16 236.72)"><path d="m0 0h155.51v-12h-155.51" fill="none" stroke="#000" stroke-width=".5"/></g><g transform="translate(251.16 213.31)"><path d="m0 0h137.51v-12h-137.51" fill="none" stroke="#000" stroke-width=".5"/></g><g transform="translate(251.16 189.31)"><path d="m0 0h215.51v-12h-215.51" fill="none" stroke="#000" stroke-width=".5"/></g><text transform="matrix(1 0 0 -1 475.75 179.25)" fill="black" font-family="Helvetica" font-size="9px" font-weight="bold"><tspan x="0" y="0">Y</tspan></text><path d="m514.67 177.31h-24v12h24z" fill="#f9aa8f"/><g transform="translate(514.67 177.31)"><path d="m0 0h-24v12h24z" fill="none" stroke="#000" stroke-width=".5"/></g><text transform="matrix(1 0 0 -1 499.42 179.25)" fill="black" font-family="Helvetica" font-size="9px" font-weight="bold"><tspan x="0 18.747 25.245001 30.249001 -183.258" y="0">RRedG</tspan></text><g transform="translate(136.67 321.31)"><path d="m0 0v24z" fill="#fff"/></g><g transform="translate(136.67 345.31)"><path d="m0 0v-24" fill="none" stroke="#000" stroke-width=".75"/></g><g transform="translate(220.67 321.31)"><path d="m0 0v24z" fill="#fff"/></g><g transform="translate(220.67 345.31)"><path d="m0 0v-24" fill="none" stroke="#000" stroke-width=".75"/></g><g transform="translate(112.67 330.98)"><path d="m0 0h20.067z" fill="#fff"/></g><g transform="translate(112.67 330.98)"><path d="m0 0h20.067" fill="none" stroke="#000" stroke-width=".75"/></g><g clip-path="url(#f)"><g transform="translate(133.98 331.52)"><path d="m0 0c-0.868 0.262-1.432 0.504-2.128 0.783v-2.648c0.249 0.118 1.26 0.521 2.128 0.783 0.929 0.281 1.771 0.473 2.318 0.541-0.547 0.068-1.389 0.261-2.318 0.541"/></g></g><g transform="translate(237.05 330.79)"><path d="m0 0-12.451 5e-3z" fill="#fff"/></g><g transform="translate(237.05 330.79)"><path d="m0 0-12.45 5e-3" fill="none" stroke="#000" stroke-width=".75"/></g><g clip-path="url(#e)"><g transform="translate(223.36 330.26)"><path d="m0 0c0.868-0.263 1.432-0.504 2.128-0.784l1e-3 2.648c-0.249-0.118-1.26-0.52-2.129-0.782-0.929-0.28-1.771-0.472-2.317-0.54 0.546-0.069 1.388-0.261 2.317-0.542"/></g></g><g transform="translate(456.99 330.17)"><path d="m0 0-47.223 5e-3z" fill="#fff"/></g><g transform="translate(409.77 330.17)"><path d="m0 0 47.224-5e-3" fill="none" stroke="#000" stroke-width=".75"/></g><g clip-path="url(#d)"><g transform="translate(458.23 330.71)"><path d="m0 0c-0.868 0.262-1.433 0.504-2.129 0.783v-2.648c0.249 0.119 1.261 0.521 2.129 0.783 0.929 0.28 1.771 0.472 2.317 0.54-0.546 0.069-1.388 0.261-2.317 0.542"/></g></g><g transform="translate(424.55 334.54)"><path d="m0 0v10.765z" fill="#fff"/></g><g transform="translate(424.55 334.54)"><path d="m0 0v10.765" fill="none" stroke="#000" stroke-width=".75"/></g><g transform="translate(460.55 323.31)"><path d="m0 0v22.001z" fill="#fff"/></g><g transform="translate(460.55 345.31)"><path d="m0 0v-22" fill="none" stroke="#000" stroke-width=".75"/></g><g transform="translate(460.55 321.31)"><path d="m0 0 0.117-36" fill="none" stroke="#000" stroke-dasharray="2, 2" stroke-width=".75"/></g><g transform="translate(456.62 340.5)"><path d="m0 0h-28.135" fill="none" stroke="#000" stroke-width=".75"/></g><g clip-path="url(#c)"><g transform="translate(427.24 339.96)"><path d="m0 0c0.868-0.262 1.433-0.504 2.129-0.783v2.648c-0.249-0.118-1.261-0.521-2.129-0.783-0.929-0.281-1.772-0.473-2.317-0.541 0.545-0.068 1.388-0.261 2.317-0.541"/></g><g transform="translate(457.86 341.04)"><path d="m0 0c-0.868 0.262-1.433 0.504-2.129 0.783v-2.648c0.249 0.118 1.261 0.521 2.129 0.783 0.929 0.281 1.771 0.473 2.317 0.541-0.546 0.068-1.388 0.261-2.317 0.541"/></g><g transform="translate(451.92 444.25)"><path d="m0 0c-26.194 0-44.5-16.996-44.5-36.596 0-16.779 6.967-26.248 14.169-30.483" fill="none" stroke="#000" stroke-width=".75"/></g></g><g transform="translate(453.4 157.76)"><path d="m0 0h29.291" fill="none" stroke="#000" stroke-width=".5"/></g><text transform="matrix(1 0 0 -1 452.93 160.71)" fill="black" font-family="Helvetica" font-size="9px"><tspan x="0 5.0040002 10.008 15.012 20.016001 25.02" y="0">Legend</tspan></text><g clip-path="url(#b)"><g transform="translate(487.03 340.5)"><path d="m0 0c-15.021 9.227-35.593 11.263-44.023 2.833" fill="none" stroke="#000" stroke-width=".75"/></g><g transform="translate(442.51 342.08)"><path d="m0 0c0.799 0.428 1.369 0.657 2.059 0.951l-1.873 1.873c-0.092-0.26-0.523-1.26-0.952-2.059-0.458-0.855-0.918-1.587-1.255-2.021 0.434 0.338 1.166 0.798 2.021 1.256"/></g></g><g transform="translate(424.55 333.17)"><path d="m0 0 0.117-47.859" fill="none" stroke="#000" stroke-dasharray="2, 2" stroke-width=".75"/></g><g transform="translate(460.67 261.31)"><path d="m0 0v11z" fill="#fff"/></g><g transform="translate(460.67 272.31)"><path d="m0 0v-11" fill="none" stroke="#000" stroke-dasharray="2, 2" stroke-width=".75"/></g><g transform="translate(424.67 261.31)"><path d="m0 0v11z" fill="#fff"/></g><g transform="translate(424.67 272.31)"><path d="m0 0v-11" fill="none" stroke="#000" stroke-dasharray="2, 2" stroke-width=".75"/></g><g transform="translate(460.67 236.72)"><path d="m0 0v11.592z" fill="#fff"/></g><g transform="translate(460.67 248.31)"><path d="m0 0v-11.592" fill="none" stroke="#000" stroke-dasharray="2, 2" stroke-width=".75"/></g><g transform="translate(424.67 236.72)"><path d="m0 0v11.592z" fill="#fff"/></g><g transform="translate(424.67 248.31)"><path d="m0 0v-11.592" fill="none" stroke="#000" stroke-dasharray="2, 2" stroke-width=".75"/></g><g transform="translate(460.67 213.31)"><path d="m0 0v10.409z" fill="#fff"/></g><g transform="translate(460.67 223.72)"><path d="m0 0v-10.408" fill="none" stroke="#000" stroke-dasharray="2, 2" stroke-width=".75"/></g><g transform="translate(424.67 213.31)"><path d="m0 0v10.409z" fill="#fff"/></g><g transform="translate(424.67 223.72)"><path d="m0 0v-10.408" fill="none" stroke="#000" stroke-dasharray="2, 2" stroke-width=".75"/></g><g transform="translate(460.67 189.31)"><path d="m0 0v11z" fill="#fff"/></g><g transform="translate(460.67 200.31)"><path d="m0 0v-11" fill="none" stroke="#000" stroke-dasharray="2, 2" stroke-width=".75"/></g><g transform="translate(424.67 189.31)"><path d="m0 0v11z" fill="#fff"/></g><g transform="translate(424.67 200.31)"><path d="m0 0v-11" fill="none" stroke="#000" stroke-dasharray="2, 2" stroke-width=".75"/></g><g clip-path="url(#a)"><g transform="translate(422.91 377.16)"><path d="m0 0c-0.632 0.649-1.008 1.135-1.481 1.717l-1.285-2.316c0.274-0.016 1.354-0.156 2.241-0.348 0.948-0.205 1.777-0.446 2.289-0.652-0.446 0.325-1.088 0.903-1.764 1.599"/></g><g transform="translate(130.28 383.22)"><path d="m0 0c0-1.159-0.753-2.1-1.683-2.1h-25.848c-0.93 0-1.683 0.941-1.683 2.1v24.457c0 1.16 0.753 2.1 1.683 2.1h25.848c0.93 0 1.683-0.94 1.683-2.1z" fill="none" stroke="#000" stroke-linejoin="round" stroke-width=".25"/></g><g transform="translate(128.82 386.54)"><path d="m0 0v20.026c0 1.044-0.677 1.89-1.515 1.89h-23.263c-0.836 0-1.514-0.846-1.514-1.89v-20.026z" fill="none" stroke="#000" stroke-linejoin="round" stroke-width=".5"/></g><g transform="translate(128.08 384.88)"><path d="m0 0c0-0.985-0.64-1.785-1.43-1.785h-21.971c-0.79 0-1.43 0.8-1.43 1.785v21.139c0 0.985 0.64 1.786 1.43 1.786h21.971c0.79 0 1.43-0.801 1.43-1.786z" fill="#fff"/><path d="m0 0c0-0.985-0.64-1.785-1.43-1.785h-21.971c-0.79 0-1.43 0.8-1.43 1.785v21.139c0 0.985 0.64 1.786 1.43 1.786h21.971c0.79 0 1.43-0.801 1.43-1.786z" fill="none" stroke="#000" stroke-linejoin="round" stroke-width=".25"/></g><g transform="translate(127.46 385.34)"><path d="m0 0c0-0.936-0.608-1.695-1.359-1.695h-20.872c-0.751 0-1.359 0.759-1.359 1.695v20.199c0 0.937 0.608 1.696 1.359 1.696h20.872c0.751 0 1.359-0.759 1.359-1.696z"/></g><g transform="translate(110.81 386.6)"><path d="m0 0c0.163 0.198 0.35 0.414 0.369 0.765v2.558c0 1.115-0.376 1.305-0.743 1.646-0.608 0.564-0.516 1.363-0.482 2.397 0.093 2.862 0.201 4.586 0.212 7.261 1e-3 0.342 0.278 0.619 0.619 0.619s0.619-0.277 0.619-0.619l0.212-4.341 0.281 8e-3c0.046 1.982 0.137 3.982 0.137 5.964 0 0.341 0.277 0.618 0.618 0.618s0.619-0.277 0.619-0.618c0-5e-3 0-0.013 2e-3 -0.018l0.085-5.952h0.287c0.08 2.245 0.241 4.542 0.241 6.784 0 0.342 0.278 0.619 0.618 0.619 0.341 0 0.619-0.277 0.619-0.619v-7e-3l0.134-6.777h0.375c0.022 2 0.044 4.001 0.066 6.002 0.014 0.328 0.289 0.586 0.618 0.586 0.334 0 0.612-0.268 0.619-0.605l0.305-7.981c-2e-3 -0.147 0.13-0.257 0.277-0.257 0.084 0 0.275 0.061 0.423 0.287l1.398 2.028c0.531 0.743 1.237 0.889 2.066 0.577-0.514-0.966-1.573-3.347-2.648-4.683-0.568-0.887-2.467-1.774-2.467-2.915v-2.333c0-0.481 0.473-1.023 0.451-0.994z" fill="#f7921e" fill-rule="evenodd"/></g><g transform="translate(322.67 383.22)"><path d="m0 0c0-1.159-0.754-2.1-1.684-2.1h-25.847c-0.93 0-1.684 0.941-1.684 2.1v24.457c0 1.16 0.754 2.1 1.684 2.1h25.847c0.93 0 1.684-0.94 1.684-2.1z" fill="none" stroke="#000" stroke-linejoin="round" stroke-width=".25"/></g><g transform="translate(321.21 386.54)"><path d="m0 0v20.026c0 1.044-0.678 1.89-1.516 1.89h-23.263c-0.836 0-1.514-0.846-1.514-1.89v-20.026z" fill="none" stroke="#000" stroke-linejoin="round" stroke-width=".5"/></g><g transform="translate(320.48 384.88)"><path d="m0 0c0-0.985-0.641-1.785-1.43-1.785h-21.972c-0.789 0-1.43 0.8-1.43 1.785v21.139c0 0.985 0.641 1.786 1.43 1.786h21.972c0.789 0 1.43-0.801 1.43-1.786z" fill="#fff"/><path d="m0 0c0-0.985-0.641-1.785-1.43-1.785h-21.972c-0.789 0-1.43 0.8-1.43 1.785v21.139c0 0.985 0.641 1.786 1.43 1.786h21.972c0.789 0 1.43-0.801 1.43-1.786z" fill="none" stroke="#000" stroke-linejoin="round" stroke-width=".25"/></g><g transform="translate(319.86 385.34)"><path d="m0 0c0-0.936-0.608-1.695-1.359-1.695h-20.871c-0.752 0-1.36 0.759-1.36 1.695v20.199c0 0.937 0.608 1.696 1.36 1.696h20.871c0.751 0 1.359-0.759 1.359-1.696z"/></g><g transform="translate(303.2 386.6)"><path d="m0 0c0.163 0.198 0.35 0.414 0.368 0.765v2.558c0 1.115-0.375 1.305-0.742 1.646-0.608 0.564-0.516 1.363-0.483 2.397 0.094 2.862 0.202 4.586 0.213 7.261 1e-3 0.342 0.278 0.619 0.619 0.619 0.34 0 0.619-0.277 0.619-0.619l0.212-4.341 0.281 8e-3c0.046 1.982 0.137 3.982 0.137 5.964 0 0.341 0.277 0.618 0.619 0.618 0.34 0 0.619-0.277 0.619-0.618 0-5e-3 0-0.013 1e-3 -0.018l0.085-5.952h0.287c0.08 2.245 0.24 4.542 0.24 6.784 0 0.342 0.279 0.619 0.619 0.619 0.341 0 0.619-0.277 0.619-0.619v-7e-3l0.133-6.777h0.375c0.023 2 0.045 4.001 0.067 6.002 0.013 0.328 0.289 0.586 0.618 0.586 0.334 0 0.612-0.268 0.619-0.605l0.306-7.981c-3e-3 -0.147 0.129-0.257 0.277-0.257 0.084 0 0.274 0.061 0.422 0.287l1.398 2.028c0.532 0.743 1.237 0.889 2.066 0.577-0.513-0.966-1.573-3.347-2.648-4.683-0.568-0.887-2.467-1.774-2.467-2.915v-2.333c0-0.481 0.473-1.023 0.452-0.994z" fill="#f7921e" fill-rule="evenodd"/></g><g transform="translate(457.28 383.22)"><path d="m0 0c0-1.159-0.752-2.1-1.682-2.1h-25.849c-0.93 0-1.682 0.941-1.682 2.1v24.457c0 1.16 0.752 2.1 1.682 2.1h25.849c0.93 0 1.682-0.94 1.682-2.1z" fill="none" stroke="#000" stroke-linejoin="round" stroke-width=".25"/></g><g transform="translate(455.81 386.54)"><path d="m0 0v20.026c0 1.044-0.677 1.89-1.514 1.89h-23.263c-0.836 0-1.514-0.846-1.514-1.89v-20.026z" fill="none" stroke="#000" stroke-linejoin="round" stroke-width=".5"/></g><g transform="translate(455.08 384.88)"><path d="m0 0c0-0.985-0.64-1.785-1.43-1.785h-21.97c-0.79 0-1.431 0.8-1.431 1.785v21.139c0 0.985 0.641 1.786 1.431 1.786h21.97c0.79 0 1.43-0.801 1.43-1.786z" fill="#fff"/><path d="m0 0c0-0.985-0.64-1.785-1.43-1.785h-21.97c-0.79 0-1.431 0.8-1.431 1.785v21.139c0 0.985 0.641 1.786 1.431 1.786h21.97c0.79 0 1.43-0.801 1.43-1.786z" fill="none" stroke="#000" stroke-linejoin="round" stroke-width=".25"/></g><g transform="translate(454.46 385.34)"><path d="m0 0c0-0.936-0.608-1.695-1.358-1.695h-20.873c-0.75 0-1.36 0.759-1.36 1.695v20.199c0 0.937 0.61 1.696 1.36 1.696h20.873c0.75 0 1.358-0.759 1.358-1.696z"/></g><g transform="translate(437.81 386.6)"><path d="m0 0c0.163 0.198 0.35 0.414 0.369 0.765v2.558c0 1.115-0.377 1.305-0.743 1.646-0.608 0.564-0.516 1.363-0.481 2.397 0.092 2.862 0.2 4.586 0.21 7.261 2e-3 0.342 0.28 0.619 0.62 0.619 0.341 0 0.619-0.277 0.619-0.619l0.213-4.341 0.281 8e-3c0.045 1.982 0.136 3.982 0.136 5.964 0 0.341 0.278 0.618 0.618 0.618 0.342 0 0.619-0.277 0.619-0.618 0-5e-3 0-0.013 2e-3 -0.018l0.086-5.952h0.286c0.08 2.245 0.241 4.542 0.241 6.784 0 0.342 0.278 0.619 0.618 0.619 0.341 0 0.619-0.277 0.619-0.619v-7e-3l0.134-6.777h0.375c0.022 2 0.043 4.001 0.067 6.002 0.013 0.328 0.289 0.586 0.617 0.586 0.334 0 0.611-0.268 0.619-0.605l0.305-7.981c-2e-3 -0.147 0.131-0.257 0.277-0.257 0.084 0 0.275 0.061 0.423 0.287l1.398 2.028c0.532 0.743 1.238 0.889 2.066 0.577-0.514-0.966-1.573-3.347-2.649-4.683-0.566-0.887-2.466-1.774-2.466-2.915v-2.333c0-0.481 0.472-1.023 0.451-0.994z" fill="#f7921e" fill-rule="evenodd"/></g><g transform="translate(514.28 383.22)"><path d="m0 0c0-1.159-0.752-2.1-1.682-2.1h-25.849c-0.93 0-1.682 0.941-1.682 2.1v24.457c0 1.16 0.752 2.1 1.682 2.1h25.849c0.93 0 1.682-0.94 1.682-2.1z" fill="none" stroke="#000" stroke-linejoin="round" stroke-width=".25"/></g><g transform="translate(512.81 386.54)"><path d="m0 0v20.026c0 1.044-0.677 1.89-1.514 1.89h-23.263c-0.836 0-1.514-0.846-1.514-1.89v-20.026z" fill="none" stroke="#000" stroke-linejoin="round" stroke-width=".5"/></g><g transform="translate(512.08 384.88)"><path d="m0 0c0-0.985-0.64-1.785-1.43-1.785h-21.97c-0.79 0-1.431 0.8-1.431 1.785v21.139c0 0.985 0.641 1.786 1.431 1.786h21.97c0.79 0 1.43-0.801 1.43-1.786z" fill="#fff"/><path d="m0 0c0-0.985-0.64-1.785-1.43-1.785h-21.97c-0.79 0-1.431 0.8-1.431 1.785v21.139c0 0.985 0.641 1.786 1.431 1.786h21.97c0.79 0 1.43-0.801 1.43-1.786z" fill="none" stroke="#000" stroke-linejoin="round" stroke-width=".25"/></g><g transform="translate(511.46 385.34)"><path d="m0 0c0-0.936-0.608-1.695-1.358-1.695h-20.873c-0.75 0-1.36 0.759-1.36 1.695v20.199c0 0.937 0.61 1.696 1.36 1.696h20.873c0.75 0 1.358-0.759 1.358-1.696z"/></g><g transform="translate(494.81 386.6)"><path d="m0 0c0.163 0.198 0.35 0.414 0.369 0.765v2.558c0 1.115-0.377 1.305-0.743 1.646-0.608 0.564-0.516 1.363-0.482 2.397 0.093 2.862 0.201 4.586 0.211 7.261 2e-3 0.342 0.28 0.619 0.62 0.619 0.341 0 0.619-0.277 0.619-0.619l0.213-4.341 0.281 8e-3c0.045 1.982 0.136 3.982 0.136 5.964 0 0.341 0.278 0.618 0.618 0.618 0.341 0 0.619-0.277 0.619-0.618 0-5e-3 0-0.013 2e-3 -0.018l0.086-5.952h0.286c0.08 2.245 0.241 4.542 0.241 6.784 0 0.342 0.277 0.619 0.618 0.619s0.619-0.277 0.619-0.619v-7e-3l0.134-6.777h0.375c0.022 2 0.043 4.001 0.067 6.002 0.013 0.328 0.289 0.586 0.617 0.586 0.334 0 0.611-0.268 0.619-0.605l0.305-7.981c-2e-3 -0.147 0.13-0.257 0.277-0.257 0.084 0 0.275 0.061 0.423 0.287l1.398 2.028c0.531 0.743 1.238 0.889 2.066 0.577-0.514-0.966-1.573-3.347-2.649-4.683-0.566-0.887-2.467-1.774-2.467-2.915v-2.333c0-0.481 0.473-1.023 0.452-0.994z" fill="#f7921e" fill-rule="evenodd"/></g><g transform="translate(195.41 383.22)"><path d="m0 0c0-1.159-0.753-2.1-1.683-2.1h-25.848c-0.93 0-1.683 0.941-1.683 2.1v24.457c0 1.16 0.753 2.1 1.683 2.1h25.848c0.93 0 1.683-0.94 1.683-2.1z" fill="none" stroke="#000" stroke-linejoin="round" stroke-width=".25"/></g><g transform="translate(193.94 386.54)"><path d="m0 0v20.026c0 1.044-0.677 1.89-1.515 1.89h-23.263c-0.836 0-1.514-0.846-1.514-1.89v-20.026z" fill="none" stroke="#000" stroke-linejoin="round" stroke-width=".5"/></g><g transform="translate(193.21 384.88)"><path d="m0 0c0-0.985-0.64-1.785-1.43-1.785h-21.971c-0.79 0-1.43 0.8-1.43 1.785v21.139c0 0.985 0.64 1.786 1.43 1.786h21.971c0.79 0 1.43-0.801 1.43-1.786z" fill="#fff"/><path d="m0 0c0-0.985-0.64-1.785-1.43-1.785h-21.971c-0.79 0-1.43 0.8-1.43 1.785v21.139c0 0.985 0.64 1.786 1.43 1.786h21.971c0.79 0 1.43-0.801 1.43-1.786z" fill="none" stroke="#000" stroke-linejoin="round" stroke-width=".25"/></g><g transform="translate(192.59 385.34)"><path d="m0 0c0-0.936-0.608-1.695-1.359-1.695h-20.872c-0.751 0-1.359 0.759-1.359 1.695v20.199c0 0.937 0.608 1.696 1.359 1.696h20.872c0.751 0 1.359-0.759 1.359-1.696z"/></g><g transform="translate(181.57 404.29)"><path d="m0 0c-0.713 0-1.294-0.581-1.294-1.294 0-0.714 0.581-1.295 1.294-1.295s1.294 0.581 1.294 1.295c0 0.713-0.581 1.294-1.294 1.294" fill="#fff" fill-rule="evenodd"/></g><g transform="translate(185.49 396.13)"><path d="m0 0-2.716 1.81c-0.125 0.53-0.646 2.886-1.691 3.431-1.034 0.685-4.849-2.127-4.871-2.149v-4.1l0.827 0.144 0.324 3.272c0.311 0.063 0.623 0.126 0.934 0.189-0.681-1.761-0.931-3.457-0.539-4.576l-1.654-6.76 1.115-0.791 2.409 6.257 1.114-1.187 1.547-4.711 1.474 0.539-1.33 4.964-1.547 2.769 0.593 2.043 0.631-0.821 2.949-0.971z" fill="#fff" fill-rule="evenodd"/></g><g transform="translate(351.88 383.22)"><path d="m0 0c0-1.16-0.752-2.1-1.682-2.1h-25.848c-0.93 0-1.683 0.94-1.683 2.1v24.457c0 1.16 0.753 2.099 1.683 2.099h25.848c0.93 0 1.682-0.939 1.682-2.099z" fill="none" stroke="#000" stroke-linejoin="round" stroke-width=".25"/></g><g transform="translate(350.42 386.54)"><path d="m0 0v20.026c0 1.045-0.678 1.891-1.515 1.891h-23.263c-0.836 0-1.515-0.846-1.515-1.891v-20.026z" fill="none" stroke="#000" stroke-linejoin="round" stroke-width=".5"/></g><g transform="translate(349.69 384.88)"><path d="m0 0c0-0.986-0.64-1.785-1.429-1.785h-21.971c-0.79 0-1.43 0.799-1.43 1.785v21.139c0 0.986 0.64 1.785 1.43 1.785h21.971c0.789 0 1.429-0.799 1.429-1.785z" fill="#fff"/><path d="m0 0c0-0.986-0.64-1.785-1.429-1.785h-21.971c-0.79 0-1.43 0.799-1.43 1.785v21.139c0 0.986 0.64 1.785 1.43 1.785h21.971c0.789 0 1.429-0.799 1.429-1.785z" fill="none" stroke="#000" stroke-linejoin="round" stroke-width=".25"/></g><g transform="translate(349.07 385.34)"><path d="m0 0c0-0.936-0.608-1.695-1.358-1.695h-20.874c-0.75 0-1.358 0.759-1.358 1.695v20.199c0 0.937 0.608 1.696 1.358 1.696h20.874c0.75 0 1.358-0.759 1.358-1.696z"/></g><g transform="translate(334.61 394.66)"><path d="m0 0v-6.492l0.807-0.784 0.806 0.784v6.492l-0.806 0.785z" fill="none" stroke="#000" stroke-width=".5"/></g><g transform="translate(344.8 396.23)"><path d="m0 0h-4.866l-0.807-0.784 0.807-0.784h4.866l0.806 0.784z" fill="#f7921e"/><path d="m0 0h-4.866l-0.807-0.784 0.807-0.784h4.866l0.806 0.784z" fill="none" stroke="#000" stroke-width=".25"/></g><g transform="translate(338.32 402.72)"><path d="m0 0v-6.493l0.806-0.784 0.806 0.784v6.493l-0.806 0.783z" fill="#f7921e"/><path d="m0 0v-6.493l0.806-0.784 0.806 0.784v6.493l-0.806 0.783z" fill="none" stroke="#000" stroke-width=".25"/></g><g transform="translate(344.8 394.66)"><path d="m0 0v-6.492l0.806-0.784 0.806 0.784v6.492l-0.806 0.785z" fill="#f7921e"/><path d="m0 0v-6.492l0.806-0.784 0.806 0.784v6.492l-0.806 0.785z" fill="none" stroke="#000" stroke-width=".25"/></g><g transform="translate(344.8 404.29)"><path d="m0 0h-4.866l-0.807-0.785 0.807-0.782h4.866l0.806 0.782z" fill="#f7921e"/><path d="m0 0h-4.866l-0.807-0.785 0.807-0.782h4.866l0.806 0.782z" fill="none" stroke="#000" stroke-width=".25"/></g><g transform="translate(344.8 388.17)"><path d="m0 0h-4.866l-0.807-0.784 0.807-0.783h4.866l0.806 0.783z" fill="#f7921e"/><path d="m0 0h-4.866l-0.807-0.784 0.807-0.783h4.866l0.806 0.783z" fill="none" stroke="#000" stroke-width=".25"/></g><g transform="translate(334.61 394.66)"><path d="m0 0v-6.492l0.808-0.784 0.805 0.784v6.492l-0.805 0.785z" fill="#f7921e"/><path d="m0 0v-6.492l0.808-0.784 0.805 0.784v6.492l-0.805 0.785z" fill="none" stroke="#000" stroke-width=".25"/></g><g transform="translate(334.61 402.72)"><path d="m0 0v-6.493l0.808-0.784 0.805 0.784v6.493l-0.805 0.783z" fill="#f7921e"/><path d="m0 0v-6.493l0.808-0.784 0.805 0.784v6.493l-0.805 0.783z" fill="none" stroke="#000" stroke-width=".25"/></g></g></g></svg>
