<?xml version="1.0" encoding="UTF-8"?>
<svg width="527.16" height="575.91" version="1.1" viewBox="0 0 527.16 575.91" xml:space="preserve" xmlns="http://www.w3.org/2000/svg"><defs><clipPath id="n"><path d="m56.938 266.27h490.64v476.73h-490.64z"/></clipPath><clipPath id="m"><path d="m173.62 669.59v-7.452h235.39c-0.751 0.501-1.519 1.012-1.519 1.012s1.555 1.778 2.137 2.444c-0.631 0.515-2.262 1.852-2.262 1.852s1.356 1.212 1.915 1.713c-0.126 0.113-0.298 0.267-0.483 0.431z"/></clipPath><linearGradient id="b" x2="1" gradientTransform="matrix(0 -7.5615 -7.5615 0 291.63 669.59)" gradientUnits="userSpaceOnUse"><stop stop-color="#808285" offset="0"/><stop stop-color="#bcbec0" offset=".41011"/><stop offset="1"/></linearGradient><clipPath id="l"><path d="m56.938 266.27h490.64v476.73h-490.64z"/></clipPath><clipPath id="k"><path d="m56.938 266.27h490.64v476.73h-490.64z"/></clipPath><clipPath id="j"><path d="m208.63 559.28v-7.453h199.38c-0.524 0.499-1.059 1.011-1.059 1.011s1.084 1.779 1.493 2.444c-0.443 0.516-1.582 1.851-1.582 1.851s0.947 1.213 1.338 1.714c-0.087 0.112-0.207 0.265-0.338 0.433z"/></clipPath><linearGradient id="a" x2="1" gradientTransform="matrix(0 -7.5616 -7.5616 0 308.54 559.28)" gradientUnits="userSpaceOnUse"><stop stop-color="#808285" offset="0"/><stop stop-color="#bcbec0" offset=".41011"/><stop offset="1"/></linearGradient><clipPath id="i"><path d="m56.938 266.27h490.64v476.73h-490.64z"/></clipPath><clipPath id="h"><path d="m56.938 266.27h490.64v476.73h-490.64z"/></clipPath><clipPath id="g"><path d="m56.938 266.27h490.64v476.73h-490.64z"/></clipPath><clipPath id="f"><path d="m56.938 266.27h490.64v476.73h-490.64z"/></clipPath><clipPath id="e"><path d="m56.938 266.27h490.64v476.73h-490.64z"/></clipPath><clipPath id="d"><path d="m56.938 266.27h490.64v476.73h-490.64z"/></clipPath><clipPath id="c"><path d="m56.938 266.27h490.64v476.73h-490.64z"/></clipPath></defs><g transform="matrix(1.3333 0 0 -1.3333 -183.44 936.4)"><text transform="matrix(1 0 0 -1 232.47 695.14)" fill="black" font-family="Helvetica" font-size="10px" font-weight="bold"><tspan x="0 6.8559999 9.6359997 15.196 17.976 23.344999 28.905001 35.014999 37.794998 43.355 48.915001 51.695 54.474998 60.584999 66.695 72.254997 75.035004 78.364998 81.144997 87.254997 93.364998" y="0">A – Typical positions</tspan><tspan x="-11.03 -3.8099999 -1.03 4.5300002 7.3099999 12.681 18.240999 24.351 27.131001 32.691002 38.250999 41.030998 43.811001 49.370998 53.261002 57.151001 62.710999 68.820999 74.931 80.490997 89.380997 94.941002 101.051 104.381" y="297.07001">B – Typical arrangements</tspan></text><g fill="#b1b4b6"><path d="m224.64 423.3h-69.925v55.006h69.925z"/><path d="m294.56 423.3h-69.925v55.008h69.925z"/><path d="m364.49 423.3h-69.924v55.008h69.924z"/></g><g transform="translate(224.64 478.3)"><path d="m0 0v-55.008" fill="none" stroke="#fff"/></g><g transform="translate(154.72 423.3)"><path d="m0 0v55.008" fill="none" stroke="#000"/></g><g transform="translate(364.49 478.3)"><path d="m0 0v-55.008" fill="none" stroke="#000"/></g><g transform="translate(294.56 423.3)"><path d="m0 0v55.008" fill="none" stroke="#fff"/></g><g clip-path="url(#n)"><g transform="translate(177.01 456.81)"><path d="m0 0c4.004 3.6 7.998 7.086 12.006 10.684-0.893-3.116-1.787-6.235-2.68-9.346 0.893-0.024 1.787-0.043 2.68-0.072 7.939-0.582 12.168-4.772 13.33-11.954v-12.021h-3.984v8.037c-0.883 5.606-3.702 9.053-9.346 9.346h-2.68c0.453-3.115 0.918-6.231 1.371-9.346-3.568 4.854-7.123 9.818-10.697 14.672" fill="#fff" fill-rule="evenodd"/></g><g transform="translate(328.55 444.14)"><path d="m0 0v6.354h-1.559l2.577 4.376 2.398-4.376h-1.44v-6.354z"/></g></g><text transform="matrix(1 0 0 -1 270.05 684.27)" fill="black" font-family="Helvetica" font-size="9px" font-weight="bold"><tspan x="0" y="0">*</tspan><tspan x="5.7509999" y="75.086998">G</tspan></text><g clip-path="url(#m)"><path d="m173.62 669.59v-7.452h235.39c-0.751 0.501-1.519 1.012-1.519 1.012s1.555 1.778 2.137 2.444c-0.631 0.515-2.262 1.852-2.262 1.852s1.356 1.212 1.915 1.713c-0.126 0.113-0.298 0.267-0.483 0.431z" fill="url(#b)"/></g><g clip-path="url(#l)"><g transform="translate(175.05 665.86)"><path d="m0 0c0-2.058-0.64-3.726-1.428-3.726-0.789 0-1.429 1.668-1.429 3.726s0.64 3.726 1.429 3.726c0.788 0 1.428-1.668 1.428-3.726"/></g></g><text transform="matrix(1 0 0 -1 275.8 673.83)" fill="black" font-family="Helvetica" font-size="9px" font-weight="bold"><tspan x="0" y="0">R</tspan><tspan x="0" y="21.636">Y</tspan><tspan x="0" y="43.271999">G</tspan><tspan x="-69.920998" y="0.0089999996">R</tspan><tspan x="-69.920998" y="21.645">Y</tspan><tspan x="-69.920998" y="43.280998">G</tspan><tspan x="69.93" y="0.017999999">R</tspan><tspan x="69.93" y="21.653999">Y</tspan><tspan x="69.93" y="43.290001">G</tspan></text><g transform="translate(340.09 644.23)"><path d="m0 0v-21.382h-21.133v64.396h21.133v-21.382z"/></g><g clip-path="url(#k)"><g transform="translate(338.07 655.04)"><path d="m0 0c0-4.716-3.822-8.539-8.537-8.539-4.717 0-8.541 3.823-8.541 8.539 0 4.717 3.824 8.539 8.541 8.539 4.715 0 8.537-3.822 8.537-8.539" fill="#fff200"/></g><g transform="translate(338.07 676.68)"><path d="m0 0c0-4.717-3.822-8.539-8.537-8.539-4.717 0-8.541 3.822-8.541 8.539s3.824 8.539 8.541 8.539c4.715 0 8.537-3.822 8.537-8.539" fill="#ed1d24"/></g><g transform="translate(338.07 633.41)"><path d="m0 0c0-4.717-3.822-8.539-8.537-8.539-4.717 0-8.541 3.822-8.541 8.539s3.824 8.539 8.541 8.539c4.715 0 8.537-3.822 8.537-8.539" fill="#00a651"/></g><g transform="translate(318.96 665.86)"><path d="m0 0h21.133" fill="none" stroke="#fff" stroke-width=".5"/></g><g transform="translate(318.96 644.23)"><path d="m0 0h21.133" fill="none" stroke="#fff" stroke-width=".5"/></g><g transform="translate(200.24 644.23)"><path d="m0 0v-21.382h-21.133v64.396h21.133v-21.382z"/></g><g transform="translate(179.11 665.86)"><path d="m0 0h21.133" fill="none" stroke="#fff" stroke-width=".5"/></g><g transform="translate(179.11 644.23)"><path d="m0 0h21.133" fill="none" stroke="#fff" stroke-width=".5"/></g><g transform="translate(270.17 644.23)"><path d="m0 0v-42.764h-21.133v85.778h21.133v-21.382z"/></g><g transform="translate(249.04 665.86)"><path d="m0 0h21.133" fill="none" stroke="#fff" stroke-width=".5"/></g><g transform="translate(249.04 644.23)"><path d="m0 0h21.133" fill="none" stroke="#fff" stroke-width=".5"/></g><g transform="translate(259.6 685.22)"><path d="m0 0c4.717 0 8.539-3.824 8.539-8.539 0-4.717-3.822-8.539-8.539-8.539-4.713 0-8.537 3.822-8.537 8.539 0 4.715 3.824 8.539 8.537 8.539" fill="#ed1d24"/></g><g transform="translate(259.6 663.58)"><path d="m0 0c4.717 0 8.539-3.824 8.539-8.539 0-4.717-3.822-8.539-8.539-8.539-4.713 0-8.537 3.822-8.537 8.539 0 4.715 3.824 8.539 8.537 8.539" fill="#fff200"/></g><g transform="translate(259.6 641.95)"><path d="m0 0c4.717 0 8.539-3.824 8.539-8.539 0-4.717-3.822-8.539-8.539-8.539-4.713 0-8.537 3.822-8.537 8.539 0 4.715 3.824 8.539 8.537 8.539" fill="#00a651"/></g><g transform="translate(189.68 685.22)"><path d="m0 0c4.716 0 8.539-3.823 8.539-8.539s-3.823-8.539-8.539-8.539c-4.717 0-8.539 3.823-8.539 8.539s3.822 8.539 8.539 8.539"/><path d="m0 0c4.716 0 8.539-3.823 8.539-8.539s-3.823-8.539-8.539-8.539c-4.717 0-8.539 3.823-8.539 8.539s3.822 8.539 8.539 8.539z" fill="none" stroke="#fff" stroke-width=".5"/></g><g transform="translate(188.25 676.67)"><path d="m0 0h8.505" fill="none" stroke="#ed1d24" stroke-width="1.395"/></g><g transform="translate(189.86 683.01)"><path d="m0 0-6.324-6.324 6.325-6.326" fill="none" stroke="#ed1d24" stroke-width="1.395"/></g><g transform="translate(189.68 663.58)"><path d="m0 0c4.716 0 8.539-3.823 8.539-8.539s-3.823-8.539-8.539-8.539c-4.717 0-8.539 3.823-8.539 8.539s3.822 8.539 8.539 8.539"/><path d="m0 0c4.716 0 8.539-3.823 8.539-8.539s-3.823-8.539-8.539-8.539c-4.717 0-8.539 3.823-8.539 8.539s3.822 8.539 8.539 8.539z" fill="none" stroke="#fff" stroke-width=".5"/></g><g transform="translate(188.25 655.03)"><path d="m0 0h8.505" fill="none" stroke="#fff200" stroke-width="1.395"/></g><g transform="translate(189.86 661.38)"><path d="m0 0-6.324-6.324 6.325-6.325" fill="none" stroke="#fff200" stroke-width="1.395"/></g><g transform="translate(189.68 641.95)"><path d="m0 0c4.716 0 8.539-3.823 8.539-8.539s-3.823-8.539-8.539-8.539c-4.717 0-8.539 3.823-8.539 8.539s3.822 8.539 8.539 8.539"/><path d="m0 0c4.716 0 8.539-3.823 8.539-8.539s-3.823-8.539-8.539-8.539c-4.717 0-8.539 3.823-8.539 8.539s3.822 8.539 8.539 8.539z" fill="none" stroke="#fff" stroke-width=".5"/></g><g transform="translate(188.25 633.4)"><path d="m0 0h8.505" fill="none" stroke="#00a651" stroke-width="1.395"/></g><g transform="translate(189.86 639.75)"><path d="m0 0-6.324-6.324 6.325-6.325" fill="none" stroke="#00a651" stroke-width="1.395"/></g><g transform="translate(259.6 620.57)"><path d="m0 0c4.717 0 8.539-3.823 8.539-8.539s-3.822-8.539-8.539-8.539-8.539 3.823-8.539 8.539 3.822 8.539 8.539 8.539"/><path d="m0 0c4.717 0 8.539-3.823 8.539-8.539s-3.822-8.539-8.539-8.539-8.539 3.823-8.539 8.539 3.822 8.539 8.539 8.539z" fill="none" stroke="#fff" stroke-width=".5"/></g><g transform="translate(258.17 612.02)"><path d="m0 0h8.506" fill="none" stroke="#00a651" stroke-width="1.395"/></g><g transform="translate(259.78 618.36)"><path d="m0 0-6.324-6.324 6.326-6.326" fill="none" stroke="#00a651" stroke-width="1.395"/></g></g><g clip-path="url(#j)"><path d="m208.63 559.28v-7.453h199.38c-0.524 0.499-1.059 1.011-1.059 1.011s1.084 1.779 1.493 2.444c-0.443 0.516-1.582 1.851-1.582 1.851s0.947 1.213 1.338 1.714c-0.087 0.112-0.207 0.265-0.338 0.433z" fill="url(#a)"/></g><g clip-path="url(#i)"><g transform="translate(210.06 555.55)"><path d="m0 0c0-2.058-0.64-3.726-1.428-3.726-0.789 0-1.428 1.668-1.428 3.726s0.639 3.726 1.428 3.726c0.788 0 1.428-1.668 1.428-3.726"/></g></g><text transform="matrix(1 0 0 -1 345.72 563.53)" fill="black" font-family="Helvetica" font-size="9px" font-weight="bold"><tspan x="0" y="0">R</tspan><tspan x="0" y="21.636">Y</tspan><tspan x="0" y="43.271999">G</tspan></text><g transform="translate(340.09 533.92)"><path d="m0 0v-21.382h-21.133v64.396h21.133v-21.382z"/></g><g clip-path="url(#h)"><g transform="translate(338.07 544.74)"><path d="m0 0c0-4.716-3.822-8.539-8.537-8.539-4.717 0-8.541 3.823-8.541 8.539 0 4.717 3.824 8.539 8.541 8.539 4.715 0 8.537-3.822 8.537-8.539" fill="#fff200"/></g><g transform="translate(338.07 566.37)"><path d="m0 0c0-4.717-3.822-8.539-8.537-8.539-4.717 0-8.541 3.822-8.541 8.539s3.824 8.539 8.541 8.539c4.715 0 8.537-3.822 8.537-8.539" fill="#ed1d24"/></g><g transform="translate(338.07 523.1)"><path d="m0 0c0-4.717-3.822-8.539-8.537-8.539-4.717 0-8.541 3.822-8.541 8.539s3.824 8.539 8.541 8.539c4.715 0 8.537-3.822 8.537-8.539" fill="#00a651"/></g><g transform="translate(318.96 555.55)"><path d="m0 0h21.133" fill="none" stroke="#fff" stroke-width=".5"/></g><g transform="translate(318.96 533.92)"><path d="m0 0h21.133" fill="none" stroke="#fff" stroke-width=".5"/></g></g><text transform="matrix(1 0 0 -1 240.96 563.53)" fill="black" font-family="Helvetica" font-size="9px" font-weight="bold"><tspan x="0" y="0">R</tspan><tspan x="0" y="21.636">Y</tspan><tspan x="0" y="43.271999">G</tspan><tspan x="0" y="64.674004">G</tspan></text><g transform="translate(235.32 533.92)"><path d="m0 0v-42.764h-21.133v85.778h21.133v-21.382z"/></g><g transform="translate(214.19 533.92)" fill="none" stroke="#fff" stroke-width=".5"><path d="m0 0h21.133"/><path d="m0 0h21.133"/></g><g transform="translate(214.19 512.29)"><path d="m0 0h21.133" fill="none" stroke="#fff" stroke-width=".5"/></g><g clip-path="url(#g)"><g transform="translate(224.76 574.91)"><path d="m0 0c4.717 0 8.539-3.824 8.539-8.539 0-4.717-3.822-8.539-8.539-8.539-4.713 0-8.537 3.822-8.537 8.539 0 4.715 3.824 8.539 8.537 8.539" fill="#ed1d24"/></g><g transform="translate(224.76 553.28)"><path d="m0 0c4.717 0 8.539-3.824 8.539-8.539 0-4.717-3.822-8.539-8.539-8.539-4.713 0-8.537 3.822-8.537 8.539 0 4.715 3.824 8.539 8.537 8.539" fill="#fff200"/></g><g transform="translate(224.76 531.64)"><path d="m0 0c4.717 0 8.539-3.824 8.539-8.539 0-4.717-3.822-8.539-8.539-8.539-4.713 0-8.537 3.822-8.537 8.539 0 4.715 3.824 8.539 8.537 8.539" fill="#00a651"/></g><g transform="translate(224.76 510.26)"><path d="m0 0c4.717 0 8.539-3.823 8.539-8.539s-3.822-8.539-8.539-8.539-8.539 3.823-8.539 8.539 3.822 8.539 8.539 8.539"/><path d="m0 0c4.717 0 8.539-3.823 8.539-8.539s-3.822-8.539-8.539-8.539-8.539 3.823-8.539 8.539 3.822 8.539 8.539 8.539z" fill="none" stroke="#fff" stroke-width=".5"/></g><g transform="translate(223.33 501.71)"><path d="m0 0h8.506" fill="none" stroke="#00a651" stroke-width="1.395"/></g><g transform="translate(224.94 508.06)"><path d="m0 0-6.324-6.324 6.326-6.325" fill="none" stroke="#00a651" stroke-width="1.395"/></g><g transform="translate(247.43 432.45)"><path d="m0 0c-3.391 4.656-6.777 9.314-10.168 13.965 3.811 3.387 7.621 6.773 11.433 10.158-0.845-2.961-1.695-5.926-2.54-8.887 4.955 0.244 8.656-0.724 11.431-3.177v14.605c-1.483-1.271-2.961-2.541-4.441-3.807 2.111 6.768 4.231 13.54 6.348 20.312 2.121-6.772 4.235-13.544 6.351-20.312-1.48 1.266-2.966 2.536-4.446 3.807v-34.281h-3.812v6.343c-0.168 5.981-2.758 9.713-8.891 10.162h-2.54c0.425-2.964 0.845-5.926 1.275-8.888" fill="#fff" fill-rule="evenodd"/></g></g><text transform="matrix(1 0 0 -1 178.4 378.61)" fill="black" font-family="Helvetica" font-size="9px" font-weight="bold"><tspan x="0" y="0">R</tspan><tspan x="0" y="21.627001">Y</tspan><tspan x="0" y="43.263">G</tspan></text><g transform="translate(172.77 349.01)"><path d="m0 0v-42.764h-21.133v85.778h21.133v-21.381z"/></g><g transform="translate(151.63 370.64)"><path d="m0 0h21.133" fill="none" stroke="#fff" stroke-width=".5"/></g><g transform="translate(151.63 349.01)"><path d="m0 0h21.133" fill="none" stroke="#fff" stroke-width=".5"/></g><g clip-path="url(#f)"><g transform="translate(162.2 390)"><path d="m0 0c4.717 0 8.539-3.824 8.539-8.539 0-4.717-3.822-8.539-8.539-8.539-4.713 0-8.538 3.822-8.538 8.539 0 4.715 3.825 8.539 8.538 8.539" fill="#ed1d24"/></g><g transform="translate(162.2 368.36)"><path d="m0 0c4.717 0 8.539-3.824 8.539-8.539 0-4.717-3.822-8.539-8.539-8.539-4.713 0-8.538 3.822-8.538 8.539 0 4.715 3.825 8.539 8.538 8.539" fill="#fff200"/></g><g transform="translate(162.2 346.73)"><path d="m0 0c4.717 0 8.539-3.824 8.539-8.539 0-4.717-3.822-8.539-8.539-8.539-4.713 0-8.538 3.822-8.538 8.539 0 4.715 3.825 8.539 8.538 8.539" fill="#00a651"/></g></g><text transform="matrix(1 0 0 -1 178.4 313.97)" fill="black" font-family="Helvetica" font-size="9px" font-weight="bold"><tspan x="0" y="0">G</tspan></text><g transform="translate(151.63 327.63)"><path d="m0 0h21.133" fill="none" stroke="#fff" stroke-width=".5"/></g><g clip-path="url(#e)"><g transform="translate(162.2 325.35)"><path d="m0 0c4.716 0 8.539-3.822 8.539-8.539 0-4.715-3.823-8.539-8.539-8.539-4.717 0-8.539 3.824-8.539 8.539 0 4.717 3.822 8.539 8.539 8.539"/><path d="m0 0c4.716 0 8.539-3.822 8.539-8.539 0-4.715-3.823-8.539-8.539-8.539-4.717 0-8.539 3.824-8.539 8.539 0 4.717 3.822 8.539 8.539 8.539z" fill="none" stroke="#fff" stroke-width=".5"/></g><g transform="translate(160.77 316.8)"><path d="m0 0h8.505" fill="none" stroke="#00a651" stroke-width="1.395"/></g><g transform="translate(162.38 323.14)"><path d="m0 0-6.324-6.324 6.325-6.326" fill="none" stroke="#00a651" stroke-width="1.395"/></g><g transform="translate(277.33 327.62)"><path d="m0 0h-42.789v21.133h42.762z"/></g><g transform="translate(266.74 346.73)"><path d="m0 0c4.718 0 8.54-3.822 8.54-8.537 0-4.717-3.822-8.541-8.54-8.541-4.717 0-8.539 3.824-8.539 8.541 0 4.715 3.822 8.537 8.539 8.537" fill="#00a651"/></g><g transform="translate(255.92 327.62)"><path d="m0 0v21.133" fill="none" stroke="#fff" stroke-width=".5"/></g></g><text transform="matrix(1 0 0 -1 272.12 378.61)" fill="black" font-family="Helvetica" font-size="9px" font-weight="bold"><tspan x="0" y="0">R</tspan><tspan x="0" y="21.627001">Y</tspan><tspan x="10.674 -50.084999" y="43.263">GG</tspan></text><g transform="translate(245.36 348.98)"><path d="m0 0v43.041h21.133v-43.014z"/></g><g clip-path="url(#d)"><g transform="translate(264.46 359.82)"><path d="m0 0c0-4.717-3.822-8.539-8.537-8.539-4.717 0-8.541 3.822-8.541 8.539s3.824 8.539 8.541 8.539c4.715 0 8.537-3.822 8.537-8.539" fill="#fff200"/></g><g transform="translate(264.46 381.46)"><path d="m0 0c0-4.717-3.822-8.539-8.537-8.539-4.717 0-8.541 3.822-8.541 8.539s3.824 8.539 8.541 8.539c4.715 0 8.537-3.822 8.537-8.539" fill="#ed1d24"/></g><g transform="translate(245.36 370.64)"><path d="m0 0h21.133" fill="none" stroke="#fff" stroke-width=".5"/></g><g transform="translate(234.54 349.01)"><path d="m0 0h42.762" fill="none" stroke="#fff" stroke-width=".5"/></g><g transform="translate(245.11 346.73)"><path d="m0 0c4.716 0 8.539-3.824 8.539-8.541 0-4.715-3.823-8.539-8.539-8.539-4.717 0-8.539 3.824-8.539 8.539 0 4.717 3.822 8.541 8.539 8.541"/><path d="m0 0c4.716 0 8.539-3.824 8.539-8.541 0-4.715-3.823-8.539-8.539-8.539-4.717 0-8.539 3.824-8.539 8.539 0 4.717 3.822 8.541 8.539 8.541z" fill="none" stroke="#fff" stroke-width=".5"/></g><g transform="translate(243.68 338.18)"><path d="m0 0h8.505" fill="none" stroke="#00a651" stroke-width="1.395"/></g><g transform="translate(245.29 344.52)"><path d="m0 0-6.324-6.324 6.325-6.326" fill="none" stroke="#00a651" stroke-width="1.395"/></g></g><text transform="matrix(1 0 0 -1 333.63 384.29)" fill="black" font-family="Helvetica" font-size="9px" font-weight="bold"><tspan x="0 21.959999 43.011002 64.394997" y="0">RYGG</tspan></text><g transform="translate(369.45 378.31)"><path d="m0 0h42.765v-21.133h-85.779v21.133h21.383z"/></g><g transform="translate(347.82 357.18)"><path d="m0 0v21.133" fill="none" stroke="#fff" stroke-width=".5"/></g><g transform="translate(369.45 357.18)"><path d="m0 0v21.133" fill="none" stroke="#fff" stroke-width=".5"/></g><g clip-path="url(#c)"><g transform="translate(328.47 367.75)"><path d="m0 0c0 4.717 3.824 8.539 8.539 8.539 4.717 0 8.539-3.822 8.539-8.539 0-4.713-3.822-8.539-8.539-8.539-4.715 0-8.539 3.826-8.539 8.539" fill="#ed1d24"/></g><g transform="translate(350.1 367.75)"><path d="m0 0c0 4.717 3.824 8.539 8.539 8.539 4.717 0 8.539-3.822 8.539-8.539 0-4.713-3.822-8.539-8.539-8.539-4.715 0-8.539 3.826-8.539 8.539" fill="#fff200"/></g><g transform="translate(390.84 357.18)"><path d="m0 0v21.133" fill="none" stroke="#fff" stroke-width=".5"/></g><g transform="translate(393.11 367.75)"><path d="m0 0c0 4.715 3.822 8.539 8.539 8.539 4.715 0 8.539-3.824 8.539-8.539 0-4.717-3.824-8.539-8.539-8.539-4.717 0-8.539 3.822-8.539 8.539" fill="#00a651"/></g><g transform="translate(380.27 376.29)"><path d="m0 0c4.715 0 8.539-3.822 8.539-8.539 0-4.715-3.824-8.539-8.539-8.539-4.717 0-8.539 3.824-8.539 8.539 0 4.717 3.822 8.539 8.539 8.539"/><path d="m0 0c4.715 0 8.539-3.822 8.539-8.539 0-4.715-3.824-8.539-8.539-8.539-4.717 0-8.539 3.824-8.539 8.539 0 4.717 3.822 8.539 8.539 8.539z" fill="none" stroke="#fff" stroke-width=".5"/></g><g transform="translate(378.84 367.74)"><path d="m0 0h8.504" fill="none" stroke="#00a651" stroke-width="1.395"/></g><g transform="translate(380.45 374.08)"><path d="m0 0-6.324-6.324 6.324-6.326" fill="none" stroke="#00a651" stroke-width="1.395"/></g></g><text transform="matrix(1 0 0 -1 452.78 664.18)" fill="black" font-family="Helvetica" font-size="9px"><tspan x="0 3.5009999 6.0029998 12.006 17.01 22.014 25.011 30.014999 35.019001 37.521 42.021 44.019001 49.022999 54.027 59.030998 61.028999 63.530998 66.032997 71.037003 75.537003" y="0">* Shared signal face</tspan></text><g transform="translate(449.79 451.5)"><path d="m0 0h6.354v1.559l4.376-2.577-4.376-2.398v1.439h-6.354z"/></g><g transform="translate(471.27 460.01)"><path d="m0 0h29.291" fill="none" stroke="#000" stroke-width=".75"/></g><text transform="matrix(1 0 0 -1 470.8 462.96)" fill="black" font-family="Helvetica" font-size="9px"><tspan x="0 5.0040002 10.008 15.012 20.016001 25.02" y="0">Legend</tspan><tspan x="-7.4879999 -0.99000001 1.008 4.0050001 9.0089998 13.509 16.011 18.009001 23.013 28.017 30.518999 35.522999 38.025002 40.527 43.028999 46.026001 51.029999 55.529999 60.534" y="15.354">Direction of travel</tspan><tspan x="-217.944 -210.942" y="-120.096">OR</tspan></text><text transform="matrix(1 0 0 -1 235.21 573.96)" fill="black" font-family="Helvetica" font-size="9px" font-weight="bold"><tspan x="0" y="0">*</tspan></text><g transform="translate(214.19 555.55)"><path d="m0 0h21.133" fill="none" stroke="#fff" stroke-width=".5"/></g><g transform="translate(249.04 622.85)"><path d="m0 0h21.133" fill="none" stroke="#fff" stroke-width=".5"/></g><text transform="matrix(1 0 0 -1 136.97 289.04)" fill="black" font-family="Helvetica" font-size="8px"><tspan x="0 5.776 10.224 12.448 16.896 19.120001 23.568001 28.903999 33.352001 37.799999 40.464001 44.911999 49.360001 51.584 55.584 57.360001 61.807999 66.255997 70.704002 72.480003 74.704002 76.928001 81.375999 85.375999 89.823997 93.823997 96.047997 100.048 104.496 108.944 110.72 112.496 114.72 119.168 123.616 125.392 129.392 131.616 136.064 140.51199 142.73599 147.18401 151.18401 155.632 160.08 162.304 164.528 168.976 171.64 173.864 178.312 180.536 184.98399 187.64799 192.09599 194.32001 198.76801 202.76801 204.992 209.44 213.888 216.552 221 225.448 227.224 231.224 233.448 240.112 244.56 249.008 253.45599 255.67999 257.45599 261.90399 264.12799 266.35199 268.57599 270.79999 275.24799 277.91199 282.35999 284.58401 286.35999 288.58401" y="0">Note: Shared signal faces shall only be used for a protected-only mode left turn if </tspan><tspan x="24 26.224001 30.672001 35.119999 37.344002 41.344002 43.119999 45.784 49.784 54.231998 56.007999 60.456001 63.119999 65.344002 69.792 72.456001 76.903999 81.351997 85.800003 88.024002 92.472 96.919998 101.368 103.592 108.04 110.704 115.152 119.6 124.048 126.272 128.048 132.496 134.72 136.944 139.608 141.832 146.28 148.944 153.392 155.616 160.064 162.728 165.392 169.84 175.616 177.84 179.616 184.064 188.51199 190.28799 194.28799 198.73599 200.96001 202.73599 207.18401 211.632 215.632 217.856 222.304 224.08 229.856 234.304 238.304 242.304 244.528 248.976 253.424 257.87201 259.64801 264.09601 266.32001 270.76801 275.216 279.664" y="8.4960003">the circular green and green left-turn arrow indications always begin and </tspan><tspan x="24 26.224001 30.672001 33.335999 40 41.776001 46.223999 50.672001 52.896 57.344002 59.568001 61.792 66.239998 70.688004 75.136002 77.360001 81.807999 86.255997" y="16.992001">terminate together</tspan></text></g></svg>
