<?xml version="1.0" encoding="UTF-8"?>
<svg width="536.21" height="798.17" version="1.1" viewBox="0 0 536.21 798.17" xml:space="preserve" xmlns="http://www.w3.org/2000/svg"><defs><clipPath id="k"><path d="m0 0h612v792h-612z"/></clipPath><clipPath id="j"><path d="m63 45h513v698h-513z"/></clipPath><clipPath id="i"><path d="m63 45h513v698h-513z"/></clipPath><clipPath id="h"><path d="m0 0h72v72h-72z"/></clipPath><pattern id="b" width="72" height="72" patternTransform="matrix(.4688 .4688 -.4688 .4688 -79.429 3906.3)" patternUnits="userSpaceOnUse"><g clip-path="url(#h)"><g transform="translate(-.25 3.6)"><path d="m0 0h72.5" fill="none" stroke="#231f20" stroke-width="1.44"/></g><g transform="translate(-.25 18)"><path d="m0 0h72.5" fill="none" stroke="#231f20" stroke-width="1.44"/></g><g transform="translate(-.25 32.4)"><path d="m0 0h72.5" fill="none" stroke="#231f20" stroke-width="1.44"/></g><g transform="translate(-.25 46.8)"><path d="m0 0h72.5" fill="none" stroke="#231f20" stroke-width="1.44"/></g><g transform="translate(-.25 61.2)"><path d="m0 0h72.5" fill="none" stroke="#231f20" stroke-width="1.44"/></g><g transform="translate(-.25 10.8)"><path d="m0 0h72.5" fill="none" stroke="#231f20" stroke-width="1.44"/></g><g transform="translate(-.25 25.2)"><path d="m0 0h72.5" fill="none" stroke="#231f20" stroke-width="1.44"/></g><g transform="translate(-.25 39.6)"><path d="m0 0h72.5" fill="none" stroke="#231f20" stroke-width="1.44"/></g><g transform="translate(-.25 54)"><path d="m0 0h72.5" fill="none" stroke="#231f20" stroke-width="1.44"/></g><g transform="translate(-.25 68.4)"><path d="m0 0h72.5" fill="none" stroke="#231f20" stroke-width="1.44"/></g></g></pattern><clipPath id="g"><path d="m0 0h72v72h-72z"/></clipPath><pattern id="a" width="72" height="72" patternTransform="matrix(.4688 .4688 -.4688 .4688 -79.429 3906.3)" patternUnits="userSpaceOnUse"><g clip-path="url(#g)"><g transform="translate(-.25 3.6)"><path d="m0 0h72.5" fill="none" stroke="#231f20" stroke-width="1.44"/></g><g transform="translate(-.25 18)"><path d="m0 0h72.5" fill="none" stroke="#231f20" stroke-width="1.44"/></g><g transform="translate(-.25 32.4)"><path d="m0 0h72.5" fill="none" stroke="#231f20" stroke-width="1.44"/></g><g transform="translate(-.25 46.8)"><path d="m0 0h72.5" fill="none" stroke="#231f20" stroke-width="1.44"/></g><g transform="translate(-.25 61.2)"><path d="m0 0h72.5" fill="none" stroke="#231f20" stroke-width="1.44"/></g><g transform="translate(-.25 10.8)"><path d="m0 0h72.5" fill="none" stroke="#231f20" stroke-width="1.44"/></g><g transform="translate(-.25 25.2)"><path d="m0 0h72.5" fill="none" stroke="#231f20" stroke-width="1.44"/></g><g transform="translate(-.25 39.6)"><path d="m0 0h72.5" fill="none" stroke="#231f20" stroke-width="1.44"/></g><g transform="translate(-.25 54)"><path d="m0 0h72.5" fill="none" stroke="#231f20" stroke-width="1.44"/></g><g transform="translate(-.25 68.4)"><path d="m0 0h72.5" fill="none" stroke="#231f20" stroke-width="1.44"/></g></g></pattern><clipPath id="f"><path d="m63 45h513v698h-513z"/></clipPath><clipPath id="e"><path d="m63 45h513v698h-513z"/></clipPath><clipPath id="d"><path d="m63 45h513v698h-513z"/></clipPath><clipPath id="c"><path d="m63 45h513v698h-513z"/></clipPath></defs><g transform="matrix(1.3333 0 0 -1.3333 -157.65 970.19)"><g clip-path="url(#k)" fill="#231f20" font-family="Times"><text transform="matrix(1 0 0 -1 -442.78 730)" font-size="12px" font-weight="bold"><tspan x="0 8.4876003 14.3364 18.350401 23.763599 28.431601 31.431601 35.102402 40.972801 46.3008" y="0">Notes for </tspan></text><text transform="matrix(1 0 0 -1 -393.48 730)" font-size="12px" font-weight="bold"><tspan x="0 7.4136 10.6776 16.725599 23.458799 28.660801 33.986401 36.986401 43.110001 49.973999 54.335999 60.335999 70.970398 77.666397 83.708397 90.260399 93.476402 98.833199 104.9412 108.2748 111.2748 119.706 126.2136 132.76559 136.14841 139.3644 144.7224 150.5172 154.5072 157.7124 163.59241 170.26559 173.26559 179.256" y="0">Figure 6P-4—Typical Application 4 </tspan><tspan x="-64.571999 -58.0788 -51.5616 -45.6912 -40.297199 -36.541199 -32.6604 -23.9844 -17.25 -12.0312 -6.2364001 -2.2464001 0.95999998 6.8424001 13.5144 16.5144 22.386 27.714001 30.714001 41.8428 47.652 54.186001 57.568802 60.773998 66.101997 69.101997 78.392403 85.0812 90.3144 95.534401 101.3292 105.3192 108.5244 114.4068 121.0788 124.0788 129.96359 136.6356 139.6356 145.6356 148.6356 155.1312 161.6472 167.496 174.2424 177.4548 183.97079 189.2052" y="15.504">Short-Duration or Mobile Operation on a Shoulder</tspan></text><g font-size="11px"><g><text transform="matrix(1,0,0,-1,-576,699)" font-style="italic"><tspan x="0 8.0354996 13.6048 16.7057 22.3487 28.026899 33.6292 38.4604 42.8494" y="0">Guidance:</tspan></text><text transform="matrix(1 0 0 -1 -558 684.5)" font-style="italic"><tspan x="0 4.664 7.414 17.996 21.625999 27.125999 29.875999 32.933998 38.5583 44.017601 48.2966 53.180599 55.930599 60.216202 63.251099 66.434502 72.090698 77.696297 80.8731 83.931099 89.480598 95.052101 99.3311 102.0811 109.2872 114.8532 119.7163 123.6587 128.54269 131.29269 139.3568 144.90739 147.96539 151.1411 154.1617 159.63091 162.67349 167.5575 170.3075 177.5455 183.0576 187.0957 191.97971 194.72971 197.79761 203.35699 208.2762 213.88181 217.05859 220.11659 225.66611 231.23759 235.5166 238.2666 245.50459 248.53951 251.6041 257.1723 260.27649 265.77649 268.52649 274.02649 276.77649 279.77841 282.91891 290.95331 293.98819 297.0242 301.9082 307.4082 310.1582 315.71649 318.7558 323.06451 326.1445 331.82159 337.42499 342.2562 347.1402 349.8902 358.00601 363.64789 368.63641 373.52039 376.27039 379.3031 382.36111 385.11111 390.62759 394.65469 400.27899 405.14871 408.3255 411.3736 416.29279 421.9292 427.39182 430.43439 435.31839 438.06839 441.1264 446.6264 449.3764 454.84561 457.974 463.5983 468.4306 473.31461" y="0">1. In those situations where multiple work locations within a limited distance make it practicable to place </tspan><tspan x="17.996 22.304701 25.3836 30.989201 34.166 37.223999 42.773499 48.415401 54.056198 58.634399 63.518398 66.268402 70.547401 73.3909 78.8172 84.388702 88.459801 91.209801 93.959801 97.017799 102.5849 107.4689 110.2189 115.775 118.8143 123.123 126.2019 131.8801 137.48241 142.3147 147.1987 149.9487 155.4586 160.3228 163.76469 170.9389 175.769 180.67059 186.17059 188.92059 191.97861 197.5446 202.4286 205.1786 210.84689 216.39751 221.20889 226.8871 232.4894 237.3217 242.2057 244.9557 252.2135 257.85431 262.229 267.78729 270.89041 276.2485 281.7485 284.4985 288.78409 291.6265 297.0528 302.5528 305.3028 310.98099 316.62839 322.12839 324.87839 327.9364 333.50241 338.38641 341.13641 348.37329 353.88541 357.92459 362.80859 365.55859 369.86951 375.4938 380.98279 386.53339 389.6684 395.1684 397.9184 403.53061 409.04269 412.10071 414.85071 419.7226 424.64621 429.47739 434.30859 439.1926 444.6926 447.4426 452.9426 455.6926 463.72699 466.74539 469.78909 474.63129 478.6199" y="11.495">stationary signs, the distance between the advance warning sign and the work should not exceed 5 miles.</tspan><tspan x="0 5.335 8.085 17.996 21.625999 27.125999 29.875999 32.933998 38.5583 44.017601 48.2966 53.180599 55.930599 60.216202 63.251099 66.434502 72.090698 77.696297 80.8731 83.931099 89.480598 95.052101 99.3311 102.0811 109.2872 114.8532 119.7163 123.6587 128.54269 131.29269 134.35069 139.9167 144.8007 147.5507 153.1068 156.1461 160.4548 163.53481 169.2119 174.81419 179.6465 184.5305 187.2805 192.79041 197.6546 201.0965 208.27071 213.1019 218.0024 223.5024 226.2524 229.31039 234.8764 239.76041 242.51041 248.1787 253.72929 258.54071 264.2189 269.8212 274.6535 279.53751 282.28751 286.5665 289.40891 294.83521 300.40671 304.6857 307.4357 313.11609 318.76349 324.26349 327.01349 330.0715 335.63751 340.52151 343.27151 350.50949 356.02161 360.05969 364.9437 367.6937 370.7319 375.01089 377.76089 383.26089 386.01089 394.04639 397.06589 400.10849 404.95071 409.22971 411.97971 415.03769 420.53769 423.28769 428.78769 431.53769 439.57211 442.59052 445.63419 450.47641 454.54861 457.29861 460.04861 465.54861" y="23.000999">2. In those situations where the distance between the advance signs and the work is 2 miles to 5 miles, a </tspan><tspan x="17.996 23.5499 29.139 34.658798 40.127998 43.170601 48.1096 56.1418 61.042301 66.6259 69.704803 75.2939 78.351898 81.101898 89.159401 92.199799 96.507401 99.586304 105.2656 110.8668 115.6991 120.5831 123.3331 128.80009 131.9296 137.5605 143.0506 148.621 153.505 156.255 160.5659 166.1902 171.6792 177.2298 180.36369 185.86369 188.61369 194.12579 199.0098 201.7598 207.3456 211.6246 216.50861 222.00861 224.75861 231.9944 235.0293 238.0873 243.5873 246.3373 249.4019 254.9679 259.8519 262.6019 269.24591 276.8667 283.99249 291.93451 294.68451 303.64731 311.564 318.483 325.82001 328.57001 335.6958 343.75549 350.58429 357.70901 365.651 368.401 372.68771 375.53119 380.95749 386.3992" y="34.495998">Supplemental Distance plaque should be used with the ROAD WORK AHEAD sign.</tspan></text><text transform="matrix(1 0 0 -1 -576.01 635.51)"><tspan x="0 8.0552998 13.4717 16.6166 19.504101 24.899599 30.2346" y="0">Option:</tspan><tspan x="18.007 22.957001 25.707001" y="14.509">3. </tspan></text><text transform="matrix(1 0 0 -1 -540.01 621)"><tspan x="0 7.7033 13.1846 18.7726 21.5886 24.7335 27.622101 33.017601 38.449402 43.486301 46.5443 49.2943 54.854801 60.305302 64.392899 67.2089 70.354897 73.137901 78.271599 83.155602 85.905602 91.405602 95.045502 100.4619 103.5859 108.5469 113.3847 116.5296 119.4171 124.8137 130.31371 133.06371 138.5549 143.1265 148.61771 151.5206 156.43871 161.2644 165.5434 168.2934 176.85139 181.4241 186.9241 189.6741 195.2357 200.11971 202.86971 208.3158 212.57719 217.5327 223.0327 225.7827 231.3784 236.2261 239.8891 242.6391 248.6825 253.64461 258.48129 261.62729 264.5148 269.91031 275.41031 278.16031 283.70099 293.15991 296.02979 301.47809 306.83511" y="0">Additional positive protection devices may be used per Section 6M.02.</tspan><tspan x="-17.996 -12.892 -10.142 0 6.9003 12.3398 17.223801 19.973801 26.822399 34.131901 42.2939 50.235901 52.985901 62.8452 70.658501 78.221001 86.163002 88.913002 97.1157 103.8994 111.9701 118.6911 121.4411 129.591 137.533 140.283 150.23689 154.1243 160.8904 167.69501 173.811 176.561 180.6497 183.49319 189.08231 194.58231 197.33231 205.8903 210.463 215.963 218.713 224.2746 229.1586 231.9086 237.35471 241.6161 246.57159 252.07159 254.82159 258.0061 263.4808 267.62341 270.7485 275.6171 280.51981 286.01981 288.76981 294.0498 297.7128 300.4628 303.6561 309.09561 313.97961 316.72961 323.57709 330.8866 339.04971 346.9917 349.7417 359.60101 367.41431 374.97681 382.91879 385.66879 393.83301 401.98511 408.7457 416.90881 424.8508 427.6008 431.68951 434.53299 440.1221 445.6221 448.3721 451.55109 455.21411" y="11.495">4. The ROAD WORK NEXT XX MILES sign may be used instead of the ROAD WORK AHEAD sign if </tspan><tspan x="0 3.1933 8.6328001 13.5168 16.2668 23.848 29.276501 32.877899 38.377899 41.127899 43.9813 49.537399 54.368599 59.189899 62.334801 65.223396 70.618896 76.093597 80.372597 83.122597 88.679802 93.5858 98.353203 104.0127 107.6757 110.4257 115.5385 120.6722 125.5199 129.18291 131.93291 136.81689 139.56689 145.15269 148.1524 152.2961 155.496 160.5439 165.9559 170.87289 175.7569 178.5069 183.7858 187.44881 190.19881 198.6545 204.08299 207.746 212.63 215.38 218.5722 224.015 229.0629 234.5629 237.3129 242.8129 245.5629 254.34419 257.5166 260.436 265.26279 269.21951" y="22.99">the work locations occur over a distance of more than 2 miles.</tspan><tspan x="-17.996 -13.112 -10.362 0 5.9059 9.1069002 13.9271 17.073099 19.9606 25.3561 30.787901 35.910599 39.858501 45.358501 48.108501 55.755699 60.879501 64.8153 70.469299 73.652702 78.971199 84.471199 87.221199 91.3088 94.152298 99.741402 105.2161 109.4951 112.2451 120.8031 125.3747 130.87469 133.62469 139.18629 144.0703 146.8203 152.21471 160.996 163.812 167.01849 170.1425 175.09911 180.59911 183.34911 186.71181 192.1403 195.8033 198.5533 202.6937 208.1002 213.5287 217.4865 220.2189 224.0392 229.42261 235.08211 238.7803 243.60049 246.74651 249.634 255.0295 260.52951 263.27951 268.70801 272.371 275.121 283.57669 288.97769 294.3512 297.52359 300.44299 305.327 308.077 313.50439 319.1001 323.94669 327.6449 332.46619 335.61111 338.4986 343.8941 349.3688 353.6478 356.3978 359.57791 363.24091 365.99091 369.1853 374.62479 379.50879 382.25879 389.84 395.26849 398.8688 404.3688 407.1188 412.2525 417.0463 422.7113 425.6153 430.23749 433.15689 438.04089" y="34.495998">5. Stationary warning signs may be omitted for short-duration or mobile operations if the work vehicle </tspan><tspan x="0 5.5879998 8.5876999 12.7512 18.036699 20.9935 25.5662 30.819799 35.098801 37.848801 43.513802 46.358398 51.909 57.354 60.799198 63.982601 69.309898 72.433899 77.218903 82.693604 86.780098 89.597198 92.797096 98.297096 101.0471 104.6859 110.1023 113.3033 118.1235 121.2684 124.4529 129.77139 134.7764 137.5264 140.2764 146.23399 151.1631 155.3035 160.96851 164.1519 169.4704 174.4754 177.2254 179.9754 185.427 189.67191 194.51961 197.692 200.8644 203.8223 208.6425 211.7874 214.97189 220.29041 225.29539 228.04539 230.79539 236.22391 239.8869 242.6369 246.7795 250.0179 253.65669 259.05771 264.61929 269.5033 272.2533 275.42899 278.27359 283.82419 289.16251 292.28101 296.2377" y="45.991001">displays high-intensity rotating, fashing, oscillating, or strobe lights.</tspan></text><text transform="matrix(1 0 0 -1 -558 563.5)"><tspan x="0 5.1919999 7.9419999" y="0">6. </tspan></text><text transform="matrix(1 0 0 -1 -540.01 563.5)"><tspan x="0 7.0454998 11.8393 17.504299 20.4083 25.0305 27.9499 32.8339 35.5839 41.026699 46.052601 50.927799 56.050499 59.666199 65.166199 67.916199 75.564499 80.687202 84.623001 90.278099 93.461502 98.779999 104.28 107.03 111.1165 113.9611 119.5502 124.982 130.01891 133.0186 137.29761 140.04761 148.60561 153.1783 158.6783 161.4283 166.9899 171.8739 174.6239 180.07001 184.33141 189.28799 194.78799 197.53799 200.59599 206.09599 208.84599 213.0029 218.34891 223.81371 229.0992 232.0197 236.80141 245.3253 250.10921 255.43649 258.49451 261.24451 266.90729 269.75189 275.30249 280.7475 284.19269 287.3761 292.7034 295.82739 300.6124 306.0871 310.17361 312.99069 316.19061 321.69061 324.44061 328.07941 333.49579 336.69681 341.517 344.6619 347.84641 353.16489 358.16989 360.91989 363.66989 369.6275 374.55661 378.69699 384.362 387.54651 392.86499 397.87 400.62 403.37 408.8194 413.0654 417.91309 421.08551 424.2579 427.21579 432.03601 435.18091 438.36539 443.6839 448.6889 451.4389" y="0">Vehicle hazard warning signals may be used to supplement high-intensity rotating, fashing, oscillating, </tspan><tspan x="0 5.4285002 9.0915003 11.8415 15.9852 19.2225 22.8613 28.2623 33.823898 38.707901 41.457901 44.634701 47.478199 53.028801 58.3671 61.4856 65.442299" y="11.495">or strobe lights.</tspan></text></g><g font-weight="bold"><text transform="matrix(1 0 0 -1 -576.01 537.51)"><tspan x="0 5.9960999 9.7877998 15.422 21.438999 27.571501 33.194698 37.974201 43.887798" y="0">Standard:</tspan><tspan x="18.007 22.363001 24.893 36.002998 43.116699 47.933601 54.1376 57.119701 61.922298 64.9011 69.785103 72.535103 78.627998 84.240196 89.192398 94.815598 99.596199 105.7122 108.4622 116.1842 121.8074 126.7706 132.97459 136.1118 142.20689 147.70689 150.45689 154.72929 157.7598 163.3401 169.4341 175.0683 178.1582 182.43719 185.18719 189.4343 195.52831 201.16251 204.3008 207.3588 210.1088 216.1192 221.5213 225.1843 227.9343 234.06239 238.9464 241.6964 247.8652 252.1882 257.09421 263.21021 265.96021 269.09961 275.25409 279.49899 283.21481 288.14719 293.58121 299.6972 302.4472 307.86581 311.52881 314.27881 317.93079 323.97421 328.85818 331.60818 336.78589 341.60391 347.80679 350.79001 355.59259 358.57031 363.10339 366.1658 370.44479 373.19479 379.3999 382.42929 387.9931 394.07611 397.6445 400.78171 406.7272 410.44299 415.28961 421.44409 425.71759 428.66119 432.35611 437.85611 440.60611 445.39111 450.79321 454.5838 459.9375 463.63239 466.76959 472.86359 478.02481 480.77481" y="14.509">7. Vehicle hazard warning signals shall not be used instead of the vehicle’s high-intensity rotating, </tspan></text><text transform="matrix(1 0 0 -1 -540.01 511.5)"><tspan x="0 6.1610999 11.759 16.003901 22.207899 25.3451 31.440201 36.599201 39.349201 42.099201 47.659698 51.962898 56.797401 59.934601 63.0718 66.101196 71.454903 75.149803 78.287003 84.382103 89.542198 92.292198 95.042198 100.4619 105.3459 108.0959 112.3408 116.0247 120.8097 126.1744 132.3036 137.18761 139.93761 143.0726 146.1031 151.6669 157.6113 161.403 165.5742" y="0">fashing, oscillating, or strobe lights.</tspan></text><text transform="matrix(1 0 0 -1 -558 500)"><tspan x="0 5.2744999 7.8045001 17.996 22.429001 26.091999 28.841999 34.4762 40.592201 43.342201 48.966499 53.9198 58.7048 63.841801 71.783798 74.533798 80.664101 86.128899 91.752098 96.5327 102.6487 105.3987 108.4897 112.7687 115.5187 121.6908 126.0127 130.9198 137.0358 139.7858 143.19141 148.6133 153.4973 156.2473 161.8793 167.9953 170.7453 176.1067 182.2744 187.1111 191.9346 197.2872 200.9821 203.95979 209.3905 215.5065 218.2565 223.68941 229.8054 232.5554 236.20959 242.25191 247.13589 249.88589 254.1297 260.1434 265.5444 271.7627 274.74701 280.76071 285.59631 289.5134 292.2634 295.0134 298.66541 304.7077 309.59171 312.34171 317.28729 322.63989 328.6008 332.29568 335.27341 340.7041 346.8201 349.5701 358.64731 364.18579 370.19949 375.0835 377.8335 382.0773 388.1713 393.80551 396.94269 400.0007 402.7507 408.87769 413.76169 416.51169 422.68051 427.00351 431.90948 437.85172" y="0">8. If an arrow board is used for an operation on the shoulder, the caution mode shall be used.</tspan><tspan x="0 4.664 7.1939998 17.996 25.109699 29.9266 36.1306 39.112701 43.915298 46.8941 51.917801 55.460899 64.535896 69.936897 76.156303 82.1007 85.817596 90.723602 96.8396 99.5896 103.8686 106.8991 112.4794 118.6328 122.9118 125.6618 129.90891 136.004 141.6382 144.77541 147.8334 150.5834 156.7104 161.59441 164.34441 173.41721 178.81821 185.0376 190.98309 194.6989 199.6049 205.7209 208.4709 211.61031 217.7263 220.4763 225.9763 228.7263 237.8893 243.5235 249.72639 255.76871 260.60541 265.48941 268.23941 272.45789 278.49359 283.26431 289.38031 292.13031 295.78448 301.87851 307.23111 310.8941 313.6441 317.29611 323.33951 327.96829 333.46829 336.21829 341.84149 346.6485 351.5325 354.2825 360.29401 365.69501 369.358 372.108 377.47269 383.6228 387.9249 392.7374 398.9469 403.75391 408.65991 414.77591 417.52591 423.31961 428.81961 431.56961 436.43161 442.34851 448.5679 451.4686 457.51199 466.6178 471.46439 477.40991 481.07291" y="11.495">9. Vehicle-mounted signs shall be mounted in a manner such that they are not obscured by equipment </tspan><tspan x="17.996 23.4168 28.3008 31.0508 35.269299 41.220299 47.225201 53.269699 56.406898 59.4132 64.411598 68.581703 71.331703 74.081703 80.108597 83.138 88.7183 94.834297 97.584297 100.5642 105.4603 110.8019 115.6496 121.671 127.8244 132.10339 134.85339 140.2863 146.4023 149.1523 154.3322 159.15021 165.3531 168.33521 173.1389 176.11659 181.1414 184.68449 193.75951 199.16051 205.3788 211.3243 215.0401 219.9472 226.0632 228.8132 233.09219 236.1216 241.7019 247.8553 252.13429 254.88429 259.13251 265.2265 270.86069 273.99899 277.05701 279.80701 285.93289 290.81689 293.56689 298.4014 303.5329 308.7128 313.5495 318.35541 323.26251 329.37851 332.12851 337.55042 342.43439 345.18439 348.8782 355.08661 360.0509 366.0932 371.00031 377.1163 379.8663 383.53699 388.32199 393.72299 402.88599 405.63599 411.23279 414.23911 418.86789 426.80991 429.55991 437.30939 443.35281 448.1994 454.3154 457.0654 464.64221 470.06299 474.78421 480.90021" y="22.99">or supplies. Sign legends on vehicle-mounted signs shall be covered or turned from view when work </tspan><tspan x="17.996 21.084801 25.365999 28.115999 34.132999 39.534 43.196999 45.946999 49.084202 55.2024 57.9524 63.985901 68.770897 74.2258 79.795097 84.600998 89.599403 93.987297 98.158501" y="34.485001">is not in progress.</tspan></text></g></g></g><path d="m278.79 148.08h-154.8v568.5h154.8z" fill="#d9d8d8"/><g transform="translate(123.99 716.58)"><path d="m0 0v-568.5" fill="none" stroke="#231f20"/></g><g transform="translate(278.74 716.58)"><path d="m0 0v-568.5" fill="none" stroke="#231f20"/></g><path d="m237.99 148.08h-70.499v571.25h70.499z" fill="#b2b1b1"/><g transform="translate(237.99 148.08)"><path d="m0 0h-70.499v571.25h70.499z" fill="none" stroke="#fff" stroke-width="2"/></g><g transform="translate(287.77 256.78)"><path d="m0 0v-3.417h-3.416v-3.167h10v3.167h-3.418v3.417h-1.583z" fill="#231f20"/></g><g transform="translate(202.74 719.32)"><path d="m0 0v-571.25" fill="none" stroke="#fccc2d" stroke-dasharray="30, 90" stroke-width="2"/></g><g transform="translate(296.52 250.62)"><path d="m0 0h14" fill="none" stroke="#231f20" stroke-width=".75"/></g><g transform="translate(278.99 368.14)"><path d="m0 0h31.529" fill="none" stroke="#231f20" stroke-width=".75"/></g><g transform="translate(303.52 254.55)"><path d="m0 0v109.66" fill="none" stroke="#231f20" stroke-width=".75"/></g><g clip-path="url(#j)"><g transform="translate(302.98 365.45)"><path d="m0 0c-0.263-0.868-0.504-1.433-0.783-2.129h2.648c-0.118 0.249-0.521 1.261-0.783 2.129-0.28 0.929-0.473 1.771-0.541 2.317-0.068-0.546-0.261-1.388-0.541-2.317" fill="#231f20"/></g><g transform="translate(304.06 253.31)"><path d="m0 0c0.262 0.868 0.504 1.433 0.783 2.129h-2.648c0.118-0.249 0.521-1.261 0.783-2.129 0.28-0.929 0.473-1.771 0.541-2.317 0.068 0.546 0.261 1.388 0.541 2.317" fill="#231f20"/></g></g><path d="m288.24 149.64h-170v-11h170z" fill="#fff"/><path d="m288.24 727.64h-170v-11h170z" fill="#fff"/><g transform="translate(303.87 296.64)"><path d="m0 0h75.375" fill="none" stroke="#231f20" stroke-width=".75"/></g><g transform="translate(274.36 432.29)"><path d="m0 0 53.298 51.039" fill="none" stroke="#231f20" stroke-width=".75"/></g><g clip-path="url(#i)"><g transform="translate(273.84 431.04)"><path d="m0 0c0.809 0.411 1.384 0.626 2.079 0.906l-1.831 1.913c-0.098-0.258-0.55-1.247-0.996-2.037-0.477-0.846-0.953-1.567-1.3-1.994 0.442 0.328 1.184 0.772 2.048 1.212" fill="#231f20"/></g><g transform="translate(260.9 364.94)"><path d="m0 0c0-42.736 30.839-19.849 139.82-19.849" fill="none" stroke="#231f20" stroke-width=".75"/></g><g transform="translate(260.43 366.21)"><path d="m0 0c-0.308-0.853-0.579-1.404-0.895-2.083l2.644-0.142c-0.105 0.255-0.454 1.287-0.668 2.167-0.232 0.943-0.378 1.794-0.417 2.343-0.098-0.542-0.335-1.372-0.664-2.285" fill="#231f20"/></g><g transform="translate(263.44 412.73)"><path d="m0 0c0 1.236-1.002 2.238-2.238 2.238-1.238 0-2.239-1.002-2.239-2.238 0-1.237 1.001-2.24 2.239-2.24 1.236 0 2.238 1.003 2.238 2.24z" fill="none" stroke="#231f20" stroke-width=".5"/></g><g transform="translate(250.64 381.74)"><path d="m0 0c0-0.376 0.308-0.684 0.684-0.684h20.482c0.377 0 0.686 0.308 0.686 0.684v0.532c0 0.376-0.309 0.684-0.686 0.684h-20.482c-0.376 0-0.684-0.308-0.684-0.684z" fill="none" stroke="#231f20"/></g><g transform="translate(271.7 382.96)"><path d="m0 0-0.475 53.676s-5.582 1.108-10.219 1.108c-4.421 0-10.048-1.108-10.048-1.108l-0.237-53.676" fill="#fff" stroke="#231f20"/></g><g transform="translate(271.33 435.21)"><path d="m0 0s-5.345 1.108-9.982 1.108c-4.421 0-10.048-1.108-10.048-1.108" fill="none" stroke="#231f20"/></g><g transform="translate(268.74 420.96)"><path d="m0 0v14.117c-1.984 0.314-4.932 0.691-7.637 0.691-2.684 0-5.813-0.409-7.857-0.729v-13.763" fill="none" stroke="#231f20" stroke-width=".5"/></g><g transform="translate(261.11 435.77)"><path d="m0 0v-11.958" fill="none" stroke="#231f20" stroke-width=".5"/></g><g transform="translate(270.06 420.01)"><path d="m0 0s-3.166 2.059-8.708 2.059-9.263-2.059-9.263-2.059l1.425-3.405s4.671 1.188 7.68 1.188 7.283-1.268 7.283-1.268z" fill="none" stroke="#231f20" stroke-width=".5"/></g><g transform="translate(268.56 408.45)"><path d="m0 0v7.362s-4.274 1.268-7.283 1.268-7.68-1.189-7.68-1.189v-7.441z" fill="none" stroke="#231f20" stroke-width=".5"/></g><g transform="translate(253.25 408.21)"><path d="m0 0v7.838l-1.742 1.743-2.533-2.376 3.562 0.396v-7.601z" fill="#231f20"/></g><g transform="translate(268.94 408.21)"><path d="m0 0v7.838l1.743 1.743 2.533-2.376-3.563 0.396v-7.601z" fill="#231f20"/></g><path d="m253.8 406.87h15.142v1.347h-15.142z" fill="#231f20"/><g transform="translate(271.3 409.64)"><path d="m0 0h-2.06l2.06-1.662" fill="none" stroke="#231f20" stroke-width=".5"/></g><g transform="translate(251.11 409.64)"><path d="m0 0h2.059l-2.059-1.662" fill="none" stroke="#231f20" stroke-width=".5"/></g><g transform="translate(269 407.03)"><path d="m0 0v-23.749" fill="none" stroke="#231f20" stroke-width=".5"/></g><g transform="translate(253.15 407.03)"><path d="m0 0v-23.749" fill="none" stroke="#231f20" stroke-width=".5"/></g><g transform="translate(254.75 387.71)"><path d="m0 0-2.612-1.187v9.262l2.612-1.187z" fill="#fff"/><path d="m0 0-2.612-1.187v9.262l2.612-1.187z" fill="none" stroke="#231f20" stroke-width=".5"/></g><g transform="translate(267.77 387.71)"><path d="m0 0 2.612-1.187v9.262l-2.612-1.187z" fill="#fff"/><path d="m0 0 2.612-1.187v9.262l-2.612-1.187z" fill="none" stroke="#231f20" stroke-width=".5"/></g><g transform="translate(271.69 407.03)"><path d="m0 0h-20.742" fill="#fff" stroke="#231f20"/></g><g transform="translate(270.43 391.19)"><path d="m0 0h1.107" fill="#f48412" stroke="#231f20"/></g><g transform="translate(250.79 391.19)"><path d="m0 0h1.108" fill="#f48412" stroke="#231f20"/></g><g transform="translate(272.22 368.49)"><path d="m0 0v13.671h-22.243v-13.671h11.121z" fill="#fff"/><path d="m0 0v13.671h-22.243v-13.671h11.121z" fill="none" stroke="#231f20"/></g><g transform="translate(272.22 369.34)"><path d="M 0,0 -11.122,12.821 -22.243,0 Z" fill="none" stroke="#231f20" stroke-miterlimit="1"/></g><g transform="translate(255.18 404.28)"><path d="m0 0h11.82" fill="none" stroke="#231f20" stroke-width="2"/></g><g transform="translate(256.06 398.71)"><path d="m0 0c0.871 0 1.577 0.706 1.577 1.578 0 0.871-0.706 1.576-1.577 1.576s-1.577-0.705-1.577-1.576c0-0.872 0.706-1.578 1.577-1.578" fill="#fff200"/><path d="m0 0c0.871 0 1.577 0.706 1.577 1.578 0 0.871-0.706 1.576-1.577 1.576s-1.577-0.705-1.577-1.576c0-0.872 0.706-1.578 1.577-1.578z" fill="none" stroke="#231f20" stroke-width=".5"/></g><g transform="translate(261.09 398.71)"><path d="m0 0c0.871 0 1.577 0.706 1.577 1.578 0 0.871-0.706 1.576-1.577 1.576s-1.577-0.705-1.577-1.576c0-0.872 0.706-1.578 1.577-1.578" fill="#fff200"/><path d="m0 0c0.871 0 1.577 0.706 1.577 1.578 0 0.871-0.706 1.576-1.577 1.576s-1.577-0.705-1.577-1.576c0-0.872 0.706-1.578 1.577-1.578z" fill="none" stroke="#231f20" stroke-width=".5"/></g><g transform="translate(266.13 398.71)"><path d="m0 0c0.871 0 1.577 0.706 1.577 1.578 0 0.871-0.706 1.576-1.577 1.576s-1.578-0.705-1.578-1.576c0-0.872 0.707-1.578 1.578-1.578" fill="#fff200"/><path d="m0 0c0.871 0 1.577 0.706 1.577 1.578 0 0.871-0.706 1.576-1.577 1.576s-1.578-0.705-1.578-1.576c0-0.872 0.707-1.578 1.578-1.578z" fill="none" stroke="#231f20" stroke-width=".5"/></g><path d="m273.47 500.55h-24.481v-29.937h24.481z" fill="#fff"/><path d="m273.47 500.55h-24.481v-29.937h24.481z" fill="url(#b)"/><g transform="translate(273.47 500.55)"><path d="m0 0h-24.481v-29.937h24.481z" fill="none" stroke="#231f20"/></g><path d="m273.47 500.55h-24.481v-29.937h24.481z" fill="url(#a)"/><g transform="translate(273.47 500.55)"><path d="m0 0h-24.481v-29.937h24.481z" fill="none" stroke="#231f20"/></g><g transform="translate(250.64 511.79)"><path d="m0 0c0-0.376 0.308-0.684 0.684-0.684h20.482c0.377 0 0.686 0.308 0.686 0.684v0.532c0 0.376-0.309 0.684-0.686 0.684h-20.482c-0.376 0-0.684-0.308-0.684-0.684z" fill="none" stroke="#231f20"/></g><g transform="translate(271.7 513)"><path d="m0 0-0.475 53.675s-5.582 1.108-10.219 1.108c-4.421 0-10.048-1.108-10.048-1.108l-0.237-53.675" fill="#fff" stroke="#231f20"/></g><g transform="translate(271.33 565.25)"><path d="m0 0s-5.345 1.108-9.982 1.108c-4.421 0-10.048-1.108-10.048-1.108" fill="none" stroke="#231f20"/></g><g transform="translate(268.74 551)"><path d="m0 0v14.117c-1.984 0.314-4.932 0.692-7.637 0.692-2.684 0-5.813-0.409-7.857-0.73v-13.763" fill="none" stroke="#231f20" stroke-width=".5"/></g><g transform="translate(261.11 565.81)"><path d="m0 0v-11.958" fill="none" stroke="#231f20" stroke-width=".5"/></g><g transform="translate(270.06 550.05)"><path d="m0 0s-3.166 2.059-8.708 2.059-9.263-2.059-9.263-2.059l1.425-3.404s4.671 1.188 7.68 1.188 7.283-1.267 7.283-1.267z" fill="none" stroke="#231f20" stroke-width=".5"/></g><g transform="translate(268.56 538.49)"><path d="m0 0v7.362s-4.274 1.267-7.283 1.267-7.68-1.187-7.68-1.187v-7.442z" fill="none" stroke="#231f20" stroke-width=".5"/></g><g transform="translate(253.25 538.26)"><path d="m0 0v7.837l-1.742 1.742-2.533-2.375 3.562 0.396v-7.6z" fill="#231f20"/></g><g transform="translate(268.94 538.26)"><path d="m0 0v7.837l1.743 1.742 2.533-2.375-3.563 0.396v-7.6z" fill="#231f20"/></g><path d="m253.8 536.91h15.142v1.346h-15.142z" fill="#231f20"/><g transform="translate(251.9 513.32)"><path d="m0 0h18.209v23.75h-18.209z" fill="none" stroke="#231f20" stroke-width=".5"/></g><g transform="translate(271.3 539.68)"><path d="m0 0h-2.06l2.06-1.663" fill="none" stroke="#231f20" stroke-width=".5"/></g><g transform="translate(251.11 539.68)"><path d="m0 0h2.059l-2.059-1.663" fill="none" stroke="#231f20" stroke-width=".5"/></g><g transform="translate(269 537.07)"><path d="m0 0v-23.75" fill="none" stroke="#231f20" stroke-width=".5"/></g><g transform="translate(267.68 537.07)"><path d="m0 0v-23.75" fill="none" stroke="#231f20" stroke-width=".5"/></g><g transform="translate(266.36 537.07)"><path d="m0 0v-23.75" fill="none" stroke="#231f20" stroke-width=".5"/></g><g transform="translate(265.04 537.07)"><path d="m0 0v-23.75" fill="none" stroke="#231f20" stroke-width=".5"/></g><g transform="translate(263.72 537.07)"><path d="m0 0v-23.75" fill="none" stroke="#231f20" stroke-width=".5"/></g><g transform="translate(262.4 537.07)"><path d="m0 0v-23.75" fill="none" stroke="#231f20" stroke-width=".5"/></g><g transform="translate(261.08 537.07)"><path d="m0 0v-23.75" fill="none" stroke="#231f20" stroke-width=".5"/></g><g transform="translate(259.75 537.07)"><path d="m0 0v-23.75" fill="none" stroke="#231f20" stroke-width=".5"/></g><g transform="translate(258.43 537.07)"><path d="m0 0v-23.75" fill="none" stroke="#231f20" stroke-width=".5"/></g><g transform="translate(257.11 537.07)"><path d="m0 0v-23.75" fill="none" stroke="#231f20" stroke-width=".5"/></g><g transform="translate(255.79 537.07)"><path d="m0 0v-23.75" fill="none" stroke="#231f20" stroke-width=".5"/></g><g transform="translate(254.47 537.07)"><path d="m0 0v-23.75" fill="none" stroke="#231f20" stroke-width=".5"/></g><g transform="translate(253.15 537.07)"><path d="m0 0v-23.75" fill="none" stroke="#231f20" stroke-width=".5"/></g><g transform="translate(254.75 517.75)"><path d="m0 0-2.612-1.187v9.262l2.612-1.187z" fill="#fff"/><path d="m0 0-2.612-1.187v9.262l2.612-1.187z" fill="none" stroke="#231f20" stroke-width=".5"/></g><g transform="translate(267.77 517.75)"><path d="m0 0 2.612-1.187v9.262l-2.612-1.187z" fill="#fff"/><path d="m0 0 2.612-1.187v9.262l-2.612-1.187z" fill="none" stroke="#231f20" stroke-width=".5"/></g><g transform="translate(271.69 537.07)"><path d="m0 0h-20.742" fill="#fff" stroke="#231f20"/></g><g transform="translate(270.43 521.24)"><path d="m0 0h1.107" fill="#f48412" stroke="#231f20"/></g><g transform="translate(250.79 521.24)"><path d="m0 0h1.108" fill="#f48412" stroke="#231f20"/></g><g transform="translate(263.44 542.77)"><path d="m0 0c0 1.237-1.002 2.239-2.238 2.239-1.238 0-2.239-1.002-2.239-2.239 0-1.236 1.001-2.239 2.239-2.239 1.236 0 2.238 1.003 2.238 2.239z" fill="none" stroke="#231f20" stroke-width=".5"/></g><g transform="translate(222.81 675.5)"><path d="m0 0v10.664h2.615l-4.326 7.346-4.023-7.346h2.414v-10.664z" fill="#231f20"/></g><g transform="translate(184.07 693.51)"><path d="m0 0v-10.664h-2.615l4.325-7.346 4.024 7.346h-2.415v10.664z" fill="#231f20"/></g><g transform="translate(222.27 439)"><path d="m0 0v10.664h2.615l-4.326 7.346-4.023-7.346h2.414v-10.664z" fill="#231f20"/></g><g transform="translate(183.53 457.01)"><path d="m0 0v-10.664h-2.615l4.325-7.346 4.024 7.346h-2.415v10.664z" fill="#231f20"/></g><g transform="translate(222.27 179.7)"><path d="m0 0v10.664h2.615l-4.326 7.346-4.023-7.346h2.414v-10.664z" fill="#231f20"/></g><g transform="translate(183.53 197.71)"><path d="m0 0v-10.664h-2.615l4.325-7.346 4.024 7.346h-2.415v10.664z" fill="#231f20"/></g><g transform="translate(341.84 234.96)"><path d="m0 0c-9.276-10.326-52.484-10.204-52.484 11.671" fill="none" stroke="#231f20" stroke-width=".75"/></g><g transform="translate(288.82 247.88)"><path d="m0 0c-0.263-0.868-0.504-1.433-0.783-2.129h2.648c-0.118 0.249-0.521 1.261-0.783 2.129-0.28 0.929-0.473 1.771-0.541 2.317-0.068-0.546-0.261-1.388-0.541-2.317" fill="#231f20"/></g><path d="m450.61 467.4h-93.959v-40.479h93.959z" fill="#231f20"/><g transform="translate(366.31 464.47)"><path d="m0 0c3.045 0 5.514-2.468 5.514-5.513 0-3.044-2.469-5.512-5.514-5.512-3.043 0-5.512 2.468-5.512 5.512 0 3.045 2.469 5.513 5.512 5.513" fill="#fff200"/></g><g transform="translate(439.36 464.47)"><path d="m0 0c3.045 0 5.512-2.468 5.512-5.513 0-3.044-2.467-5.512-5.512-5.512s-5.514 2.468-5.514 5.512c0 3.045 2.469 5.513 5.514 5.513" fill="#fff200"/></g><g transform="translate(366.31 441.47)"><path d="m0 0c3.045 0 5.514-2.468 5.514-5.513 0-3.044-2.469-5.512-5.514-5.512-3.043 0-5.512 2.468-5.512 5.512 0 3.045 2.469 5.513 5.512 5.513" fill="#fff200"/></g><g transform="translate(439.36 441.47)"><path d="m0 0c3.045 0 5.512-2.468 5.512-5.513 0-3.044-2.467-5.512-5.512-5.512s-5.514 2.468-5.514 5.512c0 3.045 2.469 5.513 5.514 5.513" fill="#fff200"/></g></g><g fill="#231f20" font-family="Helvetica"><text transform="matrix(1 0 0 -1 384.06 417.98)" font-size="9px"><tspan x="0 2.997 8.0010004 13.005 15.507 17.504999 22.509001 27.513 32.516998 34.514999" y="0">(optional)</tspan><tspan x="-20.844 -17.847 -12.843 -7.8390002 -5.3369999 -3.339 1.665 6.6690001 11.673 13.671" y="261.95401">(optional)</tspan><tspan x="-1.161 4.842 9.8459997 14.85 17.351999 23.85 28.854 31.356001 36.360001 38.862" y="124.749">See Note 1</tspan></text><text transform="matrix(1 0 0 -1 260.15 131.54)" font-size="12px" font-weight="bold"><tspan x="0 6.4452 13.1172 20.4492 23.7852 30.457199 37.1292 40.465199 43.357201 52.021198 59.353199 66.685204 70.021202 73.357201 80.029198 86.701202 90.697197 94.033203 101.3652 108.6972 112.0236" y="0">Typical Application 4</tspan></text><text transform="matrix(1 0 0 -1 329.39 484.41)" font-size="9px"><tspan x="0 6.0029998 11.007 16.011 21.014999 26.018999 32.516998 35.019001 39.519001 44.522999 49.527 51.525002 56.025002 58.022999" y="0">Shadow vehicle</tspan></text></g><g transform="translate(275.15 560.42)"><path d="m0 0 52.16 18.382" fill="none" stroke="#231f20" stroke-width=".75"/></g><g clip-path="url(#f)"><g transform="translate(274.16 559.5)"><path d="m0 0c0.906 0.04 1.519 0 2.267-0.032l-0.879 2.498c-0.196-0.195-1.015-0.91-1.747-1.445-0.783-0.575-1.515-1.035-2.007-1.282 0.537 0.118 1.397 0.216 2.366 0.261" fill="#231f20"/></g></g><text transform="matrix(1 0 0 -1 329.39 577.56)" fill="#231f20" font-family="Helvetica" font-size="9px"><tspan x="0 8.3367004 13.3407 16.3377 20.8377 23.339701 27.839701 32.8437 37.847698 39.845699 44.345699 46.3437" y="0">Work vehicle</tspan></text><g transform="translate(275.15 377.42)"><path d="m0 0 52.16 18.383" fill="none" stroke="#231f20" stroke-width=".75"/></g><g clip-path="url(#e)"><g transform="translate(274.16 376.51)"><path d="m0 0c0.906 0.039 1.519 0 2.267-0.033l-0.879 2.498c-0.196-0.194-1.015-0.91-1.747-1.445-0.783-0.575-1.515-1.034-2.007-1.282 0.537 0.117 1.397 0.217 2.366 0.262" fill="#231f20"/></g></g><text transform="matrix(1 0 0 -1 329.28 394.56)" fill="#231f20" font-family="Helvetica" font-size="9px"><tspan x="0 5.1677999 8.1647997 13.1688 17.6688 22.1688 25.1658 32.6628 37.666801 42.670799 47.674801 50.1768 55.180801 60.184799 62.686798 67.690804 70.192802 72.694801 77.698799 82.702797 87.706802 92.7108 95.212799 100.2168" y="0">Truck-mounted attenuator</tspan><tspan x="32.849998 35.847 40.851002 45.855 48.356998 50.355 55.359001 60.362999 65.366997 67.364998" y="9.9989996">(optional)</tspan></text><g transform="translate(269.28 403.77)"><path d="m0 0 84.331 31.814" fill="none" stroke="#231f20" stroke-width=".75"/></g><g clip-path="url(#d)"><g transform="translate(268.31 402.83)"><path d="m0 0c0.904 0.06 1.517 0.032 2.267 0.015l-0.929 2.478c-0.192-0.197-0.998-0.929-1.719-1.479-0.771-0.589-1.492-1.066-1.98-1.321 0.536 0.128 1.391 0.244 2.361 0.307" fill="#231f20"/></g></g><text transform="matrix(1 0 0 -1 309.11 676.6)" fill="#231f20" font-family="Helvetica" font-size="8px"><tspan x="0 5.776 10.224 12.448 16.896 19.120001 24 29.336 33.784 38.231998 40.316002 44.316799 48.764801 53.212799 54.9888 59.436798 61.660801 66.108803 71.444801 74.108803 78.556801 80.7808 83.004799 87.452797 90.116798 92.340797 94.564796 99.012802 103.4608 105.6848 112.3488 116.7968 121.2448 125.6928 127.4688 131.91679 136.36481 140.36481" y="0">Note: See Table 6P-2 for the meanings </tspan><tspan x="24 28.448 30.672001 32.896 35.119999 39.568001 44.015999 46.240002 50.240002 54.240002 60.903999 65.351997 69.800003 71.575996 75.575996 77.800003 82.248001 86.248001 90.695999 95.143997 97.367996 99.143997 103.592 105.816 108.04 112.488 114.264 118.264 120.488 122.712 124.488 128.936 133.384 136.048 140.496" y="8.4960003">of the symbols used in this figure.</tspan></text><g clip-path="url(#c)"><g transform="translate(446.86 300.82)"><path d="m0 0c-1.115 0-2.163 0.435-2.952 1.224l-40.094 40.091c-1.627 1.629-1.627 4.278 0 5.906l40.094 40.092c0.789 0.789 1.837 1.223 2.952 1.223s2.164-0.434 2.953-1.223l40.093-40.092c1.627-1.628 1.627-4.277 0-5.905l-40.093-40.093c-0.789-0.788-1.838-1.223-2.953-1.223" fill="#f48412"/></g><g transform="translate(446.86 389.48)"><path d="m0 0c-1.149 0-2.228-0.447-3.041-1.259l-40.093-40.093c-0.812-0.813-1.259-1.892-1.259-3.041s0.447-2.228 1.259-3.041l40.093-40.092c0.813-0.813 1.892-1.26 3.041-1.26s2.228 0.447 3.041 1.26l40.093 40.092c1.676 1.677 1.676 4.405 0 6.082l-40.093 40.093c-0.813 0.812-1.892 1.259-3.041 1.259m0-0.25c1.036 0 2.073-0.395 2.864-1.186l40.093-40.093c1.581-1.582 1.581-4.146 0-5.728l-40.093-40.093c-0.791-0.79-1.828-1.186-2.864-1.186-1.037 0-2.073 0.395-2.864 1.186l-40.093 40.093c-1.581 1.582-1.581 4.146 0 5.728l40.093 40.093c0.791 0.791 1.828 1.186 2.864 1.186" fill="#231f20"/></g><g transform="translate(448.93 302.93)"><path d="m0 0c-1.14-1.14-2.996-1.14-4.137 0l-40.093 40.093c-1.14 1.14-1.14 2.996 0 4.137l40.093 40.092c1.141 1.141 2.997 1.141 4.137 0l40.093-40.092c1.14-1.141 1.14-2.997 0-4.137z" fill="#231f20"/></g><g transform="translate(447.82 304.04)"><path d="m0 0c-0.526-0.526-1.383-0.526-1.909 0l-40.093 40.093c-0.527 0.526-0.527 1.383 0 1.909l40.093 40.093c0.526 0.526 1.383 0.526 1.909 0l40.093-40.093c0.526-0.526 0.526-1.383 0-1.909z" fill="#f48412"/></g><g transform="translate(420.82 346.42)"><path d="m0 0c0.837 0 1.521 0.759 1.521 1.631-1e-3 2.3-4.032 2.295-4.032 5.231 0 1.554 1.218 2.803 2.777 2.803 1.523 0 2.703-1.174 2.74-2.804h-1.486c-0.038 0.757-0.571 1.25-1.255 1.25-0.724 0-1.294-0.529-1.294-1.249 0-0.647 0.407-0.904 0.91-1.22 1.461-0.882 3.124-1.946 3.124-4.013 0-1.748-1.332-3.145-3.006-3.145-1.902 0-3.043 1.609-3.043 3.375h1.524c0-0.919 0.455-1.859 1.52-1.859" fill="#231f20"/></g><g transform="translate(429.7 349.98)"><path d="m0 0h-2.951v-4.888h-1.55v10.8h1.55v-4.396h2.95v4.396h1.551v-10.8h-1.55z" fill="#231f20"/></g><g transform="translate(432.87 350.51)"><path d="m0 0c0 5.655 2.623 5.565 3.205 5.565s3.169 0.086 3.169-5.569c0-5.696-2.587-5.607-3.169-5.607s-3.205-0.089-3.205 5.611m3.187 4.05c-0.308 0-1.699 0.063-1.699-4.058 0-4.151 1.391-4.088 1.699-4.088s1.698-0.063 1.698 4.088c0 4.121-1.39 4.058-1.698 4.058" fill="#231f20"/></g><g transform="translate(440.87 348.23)"><path d="m0 0v7.661h1.55v-7.768c0-1.016 0.594-1.706 1.512-1.706 0.831 0 1.437 0.682 1.437 1.706v7.768h1.551v-7.684c0-2.457-1.898-3.305-2.988-3.305-0.998 0-3.062 0.65-3.062 3.328" fill="#231f20"/></g><g transform="translate(448.7 355.89)"><path d="m0 0h1.558v-9.359h3.952v-1.441h-5.51z" fill="#231f20"/></g><g transform="translate(455.34 345.09)"><path d="m0 0v10.8h3.082c0.659 0 2.968-0.032 2.968-5.381 0-4.894-2.132-5.419-2.84-5.419zm2.761 9.284h-1.211v-7.768h1.077c1.264 0 1.91 0.552 1.91 3.827 0 3.795-0.946 3.941-1.776 3.941" fill="#231f20"/></g><g transform="translate(463.01 355.89)"><path d="m0 0h5.092v-1.516h-3.534v-2.728h2.241v-1.479h-2.241v-3.562h3.952v-1.515h-5.51z" fill="#231f20"/></g><g transform="translate(472.93 350.17)"><path d="m0 0h-1.475v-5.077h-1.55v10.8h3.214c1.694 0 2.836-1.137 2.836-2.88 0-1.288-0.53-2.235-1.551-2.615l1.55-5.305h-1.586zm-1.475 4.207v-2.729h1.587c0.91 0 1.4 0.493 1.4 1.365 0 0.834-0.567 1.364-1.399 1.364z" fill="#231f20"/></g><g transform="translate(436 327.99)"><path d="m0 0-1.026 5.646-1.027-5.646h-1.368l-1.712 10.8h1.522l0.912-5.76 1.064 5.76h1.218l1.026-5.76 0.95 5.76h1.522l-1.75-10.8z" fill="#231f20"/></g><g transform="translate(443.57 337.46)"><path d="m0 0c-0.308 0-1.7 0.063-1.7-4.058 0-4.151 1.392-4.088 1.7-4.088s1.698-0.063 1.698 4.088c0 4.121-1.39 4.058-1.698 4.058m-3.187-4.05c0 5.655 2.623 5.565 3.205 5.565 0.581 0 3.169 0.086 3.169-5.569 0-5.696-2.588-5.607-3.169-5.607-0.582 0-3.205-0.089-3.205 5.611" fill="#231f20"/></g><g transform="translate(450.46 337.28)"><path d="m0 0v-2.728h1.588c0.909 0 1.399 0.492 1.399 1.364 0 0.835-0.566 1.364-1.398 1.364zm1.476-4.207h-1.476v-5.077h-1.55v10.8h3.215c1.694 0 2.836-1.137 2.836-2.88 0-1.287-0.531-2.235-1.551-2.614l1.549-5.306h-1.586z" fill="#231f20"/></g><g transform="translate(459.34 333.26)"><path d="m0 0-0.984-1.817v-3.451h-1.55v10.8h1.55v-4.32l2.458 4.32h1.779l-2.232-3.789 2.496-7.011h-1.626z" fill="#231f20"/></g><g transform="translate(381.97 199.18)"><path d="m0 0c-1.115 0-2.163 0.435-2.952 1.224l-40.093 40.091c-0.788 0.789-1.223 1.838-1.223 2.954 0 1.114 0.435 2.163 1.223 2.952l40.093 40.092c0.789 0.789 1.837 1.223 2.952 1.223s2.164-0.434 2.953-1.223l40.093-40.092c1.626-1.628 1.626-4.278 0-5.905l-40.093-40.093c-0.789-0.788-1.838-1.223-2.953-1.223" fill="#f48412"/></g><g transform="translate(381.97 287.84)"><path d="m0 0c-1.149 0-2.228-0.447-3.041-1.259l-40.093-40.093c-1.676-1.677-1.676-4.405 0-6.082l40.093-40.092c0.813-0.813 1.892-1.26 3.041-1.26s2.228 0.447 3.041 1.26l40.093 40.092c1.676 1.677 1.676 4.405 0 6.082l-40.093 40.093c-0.813 0.812-1.892 1.259-3.041 1.259m0-0.25c1.036 0 2.073-0.395 2.864-1.186l40.093-40.093c1.581-1.582 1.581-4.146 0-5.728l-40.093-40.093c-0.791-0.79-1.828-1.186-2.864-1.186-1.037 0-2.073 0.395-2.864 1.186l-40.093 40.093c-1.581 1.582-1.581 4.146 0 5.728l40.093 40.093c0.791 0.791 1.828 1.186 2.864 1.186" fill="#231f20"/></g><g transform="translate(384.04 201.29)"><path d="m0 0c-1.14-1.14-2.996-1.14-4.137 0l-40.093 40.093c-1.14 1.14-1.14 2.996 0 4.137l40.093 40.093c1.141 1.14 2.997 1.14 4.137 0l40.093-40.093c1.14-1.141 1.14-2.997 0-4.137z" fill="#231f20"/></g><g transform="translate(382.93 202.4)"><path d="m0 0c-0.526-0.526-1.383-0.526-1.909 0l-40.093 40.093c-0.527 0.526-0.527 1.383 0 1.909l40.093 40.093c0.526 0.526 1.383 0.526 1.909 0l40.093-40.093c0.526-0.526 0.526-1.383 0-1.909z" fill="#f48412"/></g><g transform="translate(370.1 259.62)"><path d="m0 0c1.129 0 1.307 0.814 1.307 1.105 0 0.392-0.293 1.106-1.238 1.106h-1.856v-2.211zm-1.787-1.451v-3.917h-1.42v8.999h3.255c2.063 0 2.682-1.65 2.682-2.527 0-0.334-0.124-1.651-1.397-2.254l1.586-4.218h-1.548l-1.452 3.917z" fill="#231f20"/></g><g transform="translate(377.58 255.54)"><path d="m0 0c0.97 0 1.757 0.919 1.757 3.206s-0.787 3.206-1.757 3.206-1.757-0.918-1.757-3.206c0-2.287 0.787-3.206 1.757-3.206m3.181 3.206c0-0.323 0.069-4.657-3.197-4.657-3.265 0-3.197 4.334-3.197 4.657s-0.068 4.657 3.197 4.657c3.266 0 3.197-4.334 3.197-4.657" fill="#231f20"/></g><g transform="translate(384.85 258.23)"><path d="m0 0h1.81l-0.89 2.526zm2.317-1.452h-2.825l-0.89-2.527h-1.525l3.113 9h1.43l3.111-9h-1.524z" fill="#231f20"/></g><g transform="translate(393.96 261.83)"><path d="m0 0h-1.611v-6.126h1.511c1.309 0 1.739 1.587 1.739 3.281 0 0.805-0.229 2.845-1.639 2.845m-3.031-7.579v9h3.247c2.271 0 2.88-2.991 2.88-4.298 0-3.376-1.736-4.702-2.874-4.702z" fill="#231f20"/></g><g transform="translate(371.63 238.95)"><path d="m0 0-1.426 5.779-1.394-5.779h-1.268l-1.33 9h1.457l0.698-4.737 1.139 4.737h1.395l1.171-4.737 0.698 4.737h1.456l-1.33-9z" fill="#231f20"/></g><g transform="translate(378.61 240.24)"><path d="m0 0c0.97 0 1.757 0.919 1.757 3.206s-0.787 3.206-1.757 3.206-1.757-0.918-1.757-3.206c0-2.287 0.787-3.206 1.757-3.206m3.181 3.206c0-0.323 0.069-4.657-3.197-4.657-3.265 0-3.197 4.334-3.197 4.657s-0.068 4.657 3.197 4.657c3.266 0 3.197-4.334 3.197-4.657" fill="#231f20"/></g><g transform="translate(386.98 244.32)"><path d="m0 0c1.129 0 1.307 0.814 1.307 1.105 0 0.392-0.293 1.106-1.238 1.106h-1.857v-2.211zm-1.788-1.451v-3.917h-1.419v8.999h3.255c2.064 0 2.682-1.65 2.682-2.527 0-0.334-0.123-1.651-1.397-2.254l1.586-4.218h-1.548l-1.452 3.917z" fill="#231f20"/></g><g transform="translate(393.81 243.21)"><path d="m0 0-0.951-1.169v-3.094h-1.425v9h1.425v-3.568l2.852 3.568h1.837l-2.787-3.505 2.977-5.495h-1.647z" fill="#231f20"/></g><g transform="translate(365.53 227.63)"><path d="m0 0h1.81l-0.89 2.526zm2.317-1.452h-2.825l-0.89-2.527h-1.525l3.113 9h1.43l3.112-9h-1.525z" fill="#231f20"/></g><g transform="translate(376.32 227.57)"><path d="m0 0h-3.286v-3.916h-1.42v9h1.42v-3.632h3.285v3.632h1.422v-9h-1.421z" fill="#231f20"/></g><g transform="translate(379.9 232.65)"><path d="m0 0h5.299v-1.421h-3.879v-2.21h2.617v-1.453h-2.617v-2.464h4.162v-1.452h-5.582z" fill="#231f20"/></g><g transform="translate(389.13 227.63)"><path d="m0 0h1.81l-0.89 2.526zm2.317-1.452h-2.825l-0.89-2.527h-1.525l3.113 9h1.43l3.112-9h-1.525z" fill="#231f20"/></g><g transform="translate(398.24 231.23)"><path d="m0 0h-1.611v-6.126h1.511c1.309 0 1.739 1.587 1.739 3.281 0 0.805-0.229 2.845-1.639 2.845m-3.031-7.579v9h3.247c2.271 0 2.88-2.991 2.88-4.298 0-3.376-1.736-4.702-2.874-4.702z" fill="#231f20"/></g><g transform="translate(363.07 166.28)"><path d="m0 0c-1.558 0-2.825 1.267-2.825 2.824v27c0 1.558 1.267 2.825 2.825 2.825h37.8c1.557 0 2.825-1.267 2.825-2.825v-27c0-1.557-1.268-2.824-2.825-2.824z" fill="#f48412"/></g><g transform="translate(400.87 199.06)"><path d="m0 0h-37.8c-1.627 0-2.95-1.323-2.95-2.95v-27c0-1.627 1.323-2.95 2.95-2.95h37.8c1.627 0 2.95 1.323 2.95 2.95v27c0 1.627-1.323 2.95-2.95 2.95m0-0.25c1.491 0 2.7-1.209 2.7-2.7v-27c0-1.491-1.209-2.7-2.7-2.7h-37.8c-1.491 0-2.7 1.209-2.7 2.7v27c0 1.491 1.209 2.7 2.7 2.7z" fill="#231f20"/></g><g transform="translate(400.87 168.21)"><path d="m0 0c0.496 0 0.9 0.404 0.9 0.9v27c0 0.496-0.404 0.9-0.9 0.9h-37.8c-0.496 0-0.9-0.404-0.9-0.9v-27c0-0.496 0.404-0.9 0.9-0.9zm-37.8-1.125c-1.117 0-2.025 0.908-2.025 2.025v27c0 1.117 0.908 2.025 2.025 2.025h37.8c1.117 0 2.025-0.908 2.025-2.025v-27c0-1.117-0.908-2.025-2.025-2.025z" fill="#231f20"/></g><g transform="translate(373.86 190.13)"><path d="m0 0v-4.825h-1.033v7.2h1.033l1.966-4.32v4.32h1.034v-7.2h-0.781z" fill="#231f20"/></g><g transform="translate(378.44 192.51)"><path d="m0 0h3.395v-1.011h-2.356v-1.819h1.494v-0.985h-1.494v-2.375h2.635v-1.01h-3.674z" fill="#231f20"/></g><g transform="translate(384.88 187.76)"><path d="m0 0-1.018-2.45h-1.094l1.577 3.739-1.475 3.461h1.094l0.916-2.172 0.916 2.172h1.095l-1.451-3.461 1.577-3.739h-1.119z" fill="#231f20"/></g><g transform="translate(389.8 185.31)"><path d="m0 0h-1.039v6.24h-1.317v0.96h3.674v-0.96h-1.318z" fill="#231f20"/></g><g transform="translate(381.76 176.75)"><path d="m0 0-1.341-4.042-1.341 4.042v-4.042h-1.037v7.2h1.037l1.341-4.042 1.341 4.042h1.037v-7.2h-1.037z" fill="#231f20"/></g><path d="m384.39 179.91h1.008v-7.2h-1.008z" fill="#231f20"/><g transform="translate(386.98 179.91)"><path d="m0 0h1.039v-6.24h2.635v-0.96h-3.674z" fill="#231f20"/></g><g transform="translate(391.66 179.91)"><path d="m0 0h3.395v-1.011h-2.356v-1.819h1.494v-0.985h-1.494v-2.375h2.635v-1.01h-3.674z" fill="#231f20"/></g><g transform="translate(398.26 177.28)"><path d="m0 0c0.787-0.494 1.968-1.186 1.968-2.607 0-1.166-0.888-2.096-2.004-2.096-1.268 0-2.029 1.072-2.029 2.248h1.015c0-0.613 0.304-1.239 1.014-1.239 0.558 0 1.014 0.505 1.014 1.087 0 1.565-2.688 1.475-2.688 3.486 0 1.036 0.812 1.869 1.851 1.869 1.015 0 1.802-0.783 1.827-1.87h-0.99c-0.025 0.505-0.38 0.834-0.837 0.834-0.482 0-0.862-0.353-0.862-0.833 0-0.468 0.248-0.583 0.721-0.879" fill="#231f20"/></g><g transform="translate(365.83 175.16)"><path d="m0 0-1.018-2.45h-1.094l1.577 3.739-1.476 3.461h1.095l0.916-2.172 0.916 2.172h1.095l-1.451-3.461 1.577-3.739h-1.119z" fill="#231f20"/></g><g transform="translate(370.51 175.16)"><path d="m0 0-1.018-2.45h-1.094l1.577 3.739-1.476 3.461h1.095l0.916-2.172 0.916 2.172h1.095l-1.451-3.461 1.578-3.739h-1.12z" fill="#231f20"/></g></g><text transform="matrix(1 0 0 -1 494.25 342.26)" fill="#231f20" font-family="Helvetica" font-size="9px"><tspan x="0 8.4960003 13.5 18.504 21.500999" y="0">W21-5</tspan><tspan x="-65.420998 -56.924999 -51.921001 -46.917 -43.919998" y="102.024">W20-1</tspan><tspan x="-87.507004 -79.011002 -74.007004 -71.010002 -66.005997 -61.001999" y="163.41299">W7-3aP</tspan></text><g transform="translate(505.12 637.72)"><path d="m0 0v78.92l-3.111-21.215 0.282-3.677 2.263 1.98" fill="#231f20" stroke="#231f20"/></g><g transform="translate(508.22 685.27)"><path d="m0 0h2.665v-22.176h-3.09l-10.348 17.914h-0.056v-17.914h-2.665v22.176h3.259l10.177-17.913h0.058z" fill="#231f20"/></g></g></svg>
