<?xml version="1.0" encoding="UTF-8"?>
<svg width="583.59" height="791.32" version="1.1" viewBox="0 0 583.59 791.32" xml:space="preserve" xmlns="http://www.w3.org/2000/svg"><defs><clipPath id="f"><path d="m0 0h612v792h-612z"/></clipPath><clipPath id="e"><path d="m63 45h513v698h-513z"/></clipPath><clipPath id="d"><path d="m63 45h513v698h-513z"/></clipPath><clipPath id="c"><path d="m63 45h513v698h-513z"/></clipPath><clipPath id="b"><path d="m63 45h513v698h-513z"/></clipPath><clipPath id="a"><path d="m63 45h513v698h-513z"/></clipPath></defs><g transform="matrix(1.3333 0 0 -1.3333 -145.4 982.75)"><g clip-path="url(#f)" fill="#231f20" font-family="Times"><text transform="matrix(1 0 0 -1 -448.41 730)" font-size="12px" font-weight="bold"><tspan x="0 8.4876003 14.3364 18.350401 23.763599 28.431601 31.431601 35.102402 40.972801 46.3008" y="0">Notes for </tspan></text><text transform="matrix(1 0 0 -1 -399.11 730)" font-size="12px" font-weight="bold"><tspan x="0 7.4136 10.6776 16.725599 23.458799 28.660801 33.986401 36.986401 43.110001 49.973999 53.723999 59.6604 65.664001 76.298401 82.9944 89.0364 95.588402 98.804398 104.1612 110.2692 113.6028 116.6028 125.034 131.5416 138.0936 141.47639 144.6924 150.0504 155.8452 159.83521 163.04041 168.92039 175.5936 178.5936 184.53 190.524" y="0">Figure 6P-35—Typical Application 35 </tspan><tspan x="-32.256001 -21.1248 -15.3156 -8.7827997 -5.4000001 -2.1935999 3.1343999 6.1343999 15.426 22.114799 27.348 32.568001 38.362801 42.352798 45.557999 51.440399 58.1124 61.1124 66.9972 73.669197 76.669197 82.669197 85.669197 96.75 103.4952 106.6284 110.6184 113.892 117.7428 125.6736 131.7816 138.3324 143.6604 146.6604 154.99319 160.9128 166.79761" y="15.504">Mobile Operation on a Multi-Lane Road</tspan></text><g font-size="11px"><g font-weight="bold"><text transform="matrix(1,0,0,-1,-576,699)"><tspan x="0 5.9960999 9.7877998 15.422 21.438999 27.571501 33.194698 37.974201 43.887798" y="0">Standard:</tspan><tspan x="17.996 22.934999 25.465 35.992001 44.0616 49.013802 53.7999 58.936901 66.878899 69.628899 75.759201 81.223999 86.847198 91.626701 97.781197 102.0602 104.8102 109.0562 115.1513 120.7855 123.9227 126.7981 129.5481 132.2981 137.8949 142.1739 144.9239 150.4239 153.1739 162.44141 165.5786 171.78259 174.9198 183.92661 190.146 199.14951 201.89951 204.64951 210.7776 215.66161 218.41161 224.60789 230.18269 236.3493 241.23331 243.98331 251.174 253.924 256.67401 264.7084 267.65311 271.30511 277.42111 280.17111 285.67111 288.42111 292.7001 295.81531 300.7851 305.6691 308.4191 313.83441 317.49741 320.24741 325.86511 331.36511 334.11511 339.61511 342.36511 348.03448 353.53448 356.28448 359.42169 365.44089 370.21271 376.255 381.25229 385.42349" y="14.498">1. Arrow boards shall, as a minimum, be Type B, with a size of 60 x 30 inches.</tspan></text><text transform="matrix(1 0 0 -1 -558 673.01)"><tspan x="0 5.3449001 7.8748999" y="0">2. </tspan></text><text transform="matrix(1 0 0 -1 -540.01 673.01)"><tspan x="0 7.1136999 11.9306 18.1346 21.116699 25.9193 28.8981 33.921799 37.464901 46.539902 51.940899 58.160301 64.104698 67.821602 72.7276 78.843597 81.593597 85.872597 88.903099 94.483398 100.6368 104.9158 107.6658 111.9129 118.008 123.6422 126.7794 129.8374 132.5874 138.7144 143.5984 146.3484 155.4212 160.8222 167.0416 172.98711 176.7029 181.6089 187.7249 190.4749 193.6143 199.7303 202.4803 207.9803 210.7303 219.8933 225.5275 231.73039 237.77271 242.60941 247.49339 250.24339 254.4619 260.49759 265.26831 271.38431 274.13431 277.78851 283.88251 289.23511 292.8981 295.6481 299.30011 305.34351 309.97229 315.47229 318.22229 323.84549 328.6525 333.5365 336.2865 342.298 347.69901 351.362 354.112 359.47672 365.6268 369.92889 374.74139 380.9509 385.7579 390.66391 396.77991 399.52991 405.32361 410.82361 413.57361 418.43561 424.35251 430.5719 433.4726 439.51599 448.6218 453.46841 459.41391 463.0769" y="0">Vehicle-mounted signs shall be mounted in a manner such that they are not obscured by equipment </tspan><tspan x="0 5.4208002 10.3048 13.0548 17.2733 23.2243 29.2292 35.273701 38.4109 41.417198 46.4156 50.585701 53.335701 56.085701 62.112598 65.141998 70.722298 76.838303 79.588303 82.568199 87.464302 92.805901 97.653603 103.675 109.8284 114.1074 116.8574 122.2903 128.4063 131.1563 136.3362 141.15421 147.3571 150.3392 155.1429 158.12061 163.1454 166.68851 175.7635 181.16451 187.3828 193.32829 197.0441 201.9512 208.0672 210.8172 215.09621 218.1256 223.7059 229.8593 234.13831 236.88831 241.13651 247.2305 252.8647 256.00299 259.061 261.811 267.93689 272.82089 275.57089 280.4054 285.5369 290.7168 295.5535 300.35941 305.26651 311.38251 314.13251 319.55441 324.43839 327.18839 330.8822 337.09061 342.0549 348.0972 353.0043 359.1203 361.8703 365.54099 370.32599 375.72699 384.89001 387.64001 393.23679 396.2431 400.87189 408.8139 411.5639 419.31339 425.35681 430.2034 436.3194 439.0694 446.64621 452.06699 456.78821 462.90421" y="11.495">or supplies. Sign legends on vehicle-mounted signs shall be covered or turned from view when work </tspan><tspan x="0 3.0888 7.3699999 10.12 16.136999 21.538 25.201 27.951 31.0882 37.206402 39.956402 45.989899 50.774899 56.229801 61.799099 66.605003 71.603401 75.991302 80.162498" y="22.99">is not in progress.</tspan><tspan x="-17.996 -12.914 -10.384" y="34.495998">3. </tspan></text><text transform="matrix(1 0 0 -1 -540.01 638.51)"><tspan x="0 5.9960999 12.0901 17.524099 23.507 28.643999 36.585999 39.335999 44.971298 50.992699 57.1087 59.8587 67.435501 72.8563 77.576401 83.692398 86.442398 91.624496 96.441399 102.6454 105.6275 110.4312 113.4089 118.4073 122.6863 125.4363 129.6834 135.7774 141.41161 144.5499 147.60789 150.35789 156.55859 159.6485 163.85381 169.8983 172.9277 178.08121 183.58121 186.33121 192.5352 195.56461 201.1284 207.2114 210.7798 213.91701 219.8614 223.57829 228.4249 234.57941 238.85181 241.79539 245.49139 250.99139 253.74139 258.5264 263.9274 267.71909 273.07169 276.7666 279.90381 285.9989 291.159 293.909 296.659 302.8212 308.418 312.6629 318.86691 322.00409 328.09921 333.25931 336.00931 338.75931 344.31979 348.62189 353.45639 356.5936 359.7308 362.76129 368.11389 371.80881 374.94601 381.04001 386.2001 388.9501 391.7001 397.12201 402.00601 404.75601 408.99979 412.68369 417.46869 422.8334 428.96259 433.84659 436.59659 439.7316 442.76208 448.3259 454.27029 458.06201 462.23318" y="0">Shadow and work vehicles shall display high-intensity rotating, fashing, oscillating, or strobe lights.</tspan></text><text transform="matrix(1 0 0 -1 -558 627.02)"><tspan x="0 5.2579999 7.7880001 17.996 26.076599 32.1926 34.9426 40.566898 45.520199 50.305199 55.4422 63.384201 66.134201 72.264503 77.729301 83.352501 88.133102 94.2491 96.9991 101.2462 107.3402 112.9744 116.1127 119.1707 121.9207 128.0477 132.9317 135.6817 141.85049 146.17239 151.0795 157.1955 159.9455 167.69501 173.7384 178.58501 184.701 187.451 192.951 195.701 199.3717 204.1776 209.10561 213.73331 221.45419 226.6077 232.1077 234.8577 237.8871 243.5213 249.5636 254.4476 257.1976 260.28531 264.5643 267.3143 272.11911 275.0979 280.65839 284.98029 289.88739 295.82849 298.57849 301.32849 312.4924 318.5358 323.38239 329.49841 332.24841 341.32559 346.7464 351.55231 356.43631 359.18631 362.83719 368.93121 374.5654 380.6814 383.4314 388.86429 394.90771 399.79169 402.54169 406.20471 411.01169 415.9386 420.56741 428.2872 433.4407 438.9407 441.6907 444.72119 450.35431 456.39771 461.28171 464.03171 467.11938 471.39841" y="0">4. An arrow board shall be used when a freeway lane is closed. When more than one freeway lane is </tspan><tspan x="17.996 22.798599 25.777399 31.3379 35.659801 40.566898 46.507999 49.257999 52.007999 57.507999 60.257999 64.581001 69.386902 75.462196 81.085403 85.908897 91.262604 94.978401 99.862396 102.6124 108.2334 113.1867 117.9717 123.1087 131.0507 133.8007 139.931 145.3958 151.019 155.79961 161.9156 164.6656 168.9127 175.0067 180.6409 183.77921 186.8372 189.5872 195.7131 200.59711 203.34711 209.517 213.8389 218.746 224.862 227.612 231.01759 236.4384 241.3224 244.0724 249.00259 254.43221 259.20401 265.32001 268.07001 272.87479 275.85251 281.41299 285.73599 290.642 296.758 299.508 302.53961 308.1738 314.21609 318.95709" y="11.495">closed, a separate arrow board shall be used for each closed lane.</tspan></text></g><g><text transform="matrix(1 0 0 -1 -576.01 601.02)" font-style="italic"><tspan x="0 8.0354996 13.6048 16.7057 22.3487 28.026899 33.6292 38.4604 42.8494" y="0">Guidance:</tspan></text><text transform="matrix(1 0 0 -1 -558 586.51)" font-style="italic"><tspan x="0 5.0654998 7.8099999 17.996 24.1406 29.008101 34.5774 37.6255 42.444599 45.487202 50.329399 54.608398 57.358398 62.947498 67.226501 72.110497 77.610497 80.360497 83.411903 88.924004 93.203003 95.953003 99.0187 104.5847 109.428 113.707 118.591 121.341 126.8047 132.3223 137.18539 141.21359 146.8192 149.996 153.054 158.6035 164.175 168.45399 171.20399 175.5182 181.1425 186.6315 192.1821 195.31599 200.81599 203.56599 209.07809 213.9621 216.7121 224.8279 230.4973 236.05341 240.93739 243.68739 249.2556 252.09801 257.422 262.9704 265.991 270.875 273.625 278.40561 281.44601 285.72501 288.81821 294.28079 297.32339 302.2074 304.9574 312.19101 315.22699 318.285 323.785 326.535 332.1142 337.634 343.15161 347.1666 352.63251 358.15009 362.45221 365.54871 371.1543 374.18921 379.07321 381.82321 386.672 392.16211 397.73141 400.75201 406.34439 414.37659 419.2771 424.86069 427.7977 430.5477 433.2977 437.6152 443.23071 448.09711 453.59711 456.34711 461.94611 466.2251" y="0">5. Vehicles used for these operations should be made highly visible with appropriate equipment, such as </tspan><tspan x="17.996 23.705 29.0851 34.3783 38.4505 41.2005 43.9505 48.2295 51.071899 56.498199 62.069698 66.141899 68.891899 71.641899 77.153999 81.432999 84.182999 89.823799 94.190804 98.205803 103.653 110.99 113.74 119.2785 124.8445 130.48531 134.5179 140.0905 144.0791" y="11.495">fags, signs, or arrow boards.</tspan><tspan x="0 5.3130002 8.0629997 17.996 23.552099 29.205 34.874401 40.469002 45.916199 53.253201 56.003201 62.1478 67.015297 72.584602 75.632698 80.451797 83.4944 88.378403 91.128403 96.628403 99.378403 103.6893 109.3136 114.8026 120.3532 123.4871 128.98711 131.73711 137.24921 142.13319 144.88319 149.73199 155.22211 160.7914 163.8131 169.3329 174.85049 179.7345 185.2345 187.9845 195.22031 198.2552 201.31979 206.81979 209.56979 215.248 220.748 223.498 229.13879 233.5058 237.5208 242.968 250.30499 253.05499 258.59351 264.15948 269.80029 273.83289 279.33289 282.08289 287.76111 293.40851 298.90851 301.65851 304.90131 309.20999 314.8255 319.71939 324.4769 328.31039 336.39981 341.88879 347.5296 353.11319 356.1481 361.0321 366.5321 369.2821 374.8877 378.08649 381.1214 386.02301 391.58459 397.24081 402.84641 405.90439 411.4165 414.65381" y="23.000999">6. Shadow Vehicle 1 should be equipped with an arrow board and truck-mounted attenuator.</tspan><tspan x="0 4.3010001 7.0510001 17.996 23.552099 29.205 34.874401 40.469002 45.916199 53.253201 56.003201 62.1478 67.015297 72.584602 75.632698 80.451797 83.4944 88.378403 91.128403 96.628403 99.378403 103.6893 109.3136 114.8026 120.3532 123.4871 128.98711 131.73711 137.24921 142.13319 144.88319 149.73199 155.22211 160.7914 163.8131 169.3329 174.85049 179.7345 185.2345 187.9845 195.22031 198.2552 201.31979 206.81979 209.56979 215.248 220.748 223.498 229.13879 233.5058 237.5208 242.968 250.30499 253.05499 258.59351 264.15948 269.80029 273.83289 279.26801 282.01801 284.76801 291.68369 297.18369 299.93369 305.51291 311.03271 316.55029 320.56421 326.03009 331.5477 335.85089 338.94629 344.55191 347.58789 352.47189 355.22189 358.34811 364.02631 369.5813 374.4653 377.2153 382.0322 385.10229 390.56161 394.87909 400.48141 404.4238 409.3078 412.0578 416.33679 419.1792 424.6055 430.1055 432.8555 437.16861 442.79291 448.28189 453.83249 456.9664 462.4664 465.2164 470.72849 475.61249" y="34.495998">7. Shadow Vehicle 2 should be equipped with an arrow board. An appropriate lane closure sign should be </tspan><tspan x="17.996 23.4652 26.593599 32.217899 37.050201 41.9342 47.4342 50.1842 55.7337 61.2337 63.9837 69.539803 75.192703 80.862099 86.456703 91.9039 99.240898 101.9909 108.1366 113.003 118.5723 121.6204 126.4395 129.4821 134.3661 137.1161 142.6161 145.3661 149.6682 155.1682 157.9182 163.5172 167.7962 170.5462 176.1617 181.6727 184.7307 187.4807 190.5387 196.0387 198.7887 204.32829 209.81841 214.1436 219.0276 224.6299 228.5712 233.4552 236.2052 239.2632 244.82919 249.7132 252.4632 258.10291 262.46991 266.48489 271.9321 279.2691 282.0191 287.55759 293.1236 298.7644 302.797 308.23209" y="45.991001">placed on Shadow Vehicle 2 so as not to obscure the arrow board.</tspan><tspan x="0 5.4229999 8.1730003 17.996 23.552099 29.205 34.874401 40.469002 45.916199 53.253201 56.003201 62.1478 67.015297 72.584602 75.632698 80.451797 83.4944 88.378403 91.128403 96.628403 99.378403 103.6893 109.3136 114.8026 120.3532 123.4871 128.98711 131.73711 134.9799 139.007 144.584 149.3096 154.1232 157.1812 159.9312 165.53461 168.59261 171.34261 176.84261 179.59261 184.40289 190.0437 194.623 199.474 202.5782 207.93629 213.43629 216.18629 221.7446 224.78391 229.09261 232.17149 237.8497 243.452 248.2832 253.16721 255.91721 259.4339 263.44891 269.0358 276.97781 279.72781 282.79239 288.3584 293.2424 295.9924 303.22931 308.74139 312.78061 317.66461 320.41461 325.8783 331.3959 336.2601 340.2872 345.89279 349.07071 352.12869 357.67819 363.17819 365.92819 370.23251 375.73251 378.48251 384.08151 388.3605 391.1105 394.16849 399.66849 402.41849 407.9361 411.95001 417.37521 422.15799 425.25891 430.815 435.69901 438.44901 444.11621 449.6723 454.52328 460.0134 465.66959 471.27521 474.31009 479.19409" y="57.497002">8. Shadow Vehicle 2 should travel at a varying distance from the work operation so as to provide adequate </tspan><tspan x="17.996 22.281601 25.124001 30.448 36.042599 39.100601 41.850601 47.4067 50.447102 54.7547 57.833599 63.512901 69.114098 73.946404 78.830399 81.580399 84.630699 90.142799 94.421799 97.171799 101.8985 106.7649 112.3342 115.3834 120.2619 125.8125 128.9409 134.5817 138.8607 141.6107 144.8546 148.8828 154.4257 157.8885 163.5513 168.4353 171.1853 176.7634 182.2832 187.8008 191.8147 197.38071 203.005 207.8714 213.4407 216.54379 221.9019 227.4019 230.1519 233.66969 237.68469 243.27161 251.21359 253.96359 257.0293 262.59531 267.47931 270.22931 274.16949 279.0535 284.69431 287.93051" y="68.991997">sight distance for vehicular traffc approaching from the rear.</tspan><tspan x="0 4.9829998 7.7329998 17.996 24.2869 29.851801 34.735802 37.485802 41.7813 47.352798 52.9771 57.822601 60.925701 66.283798 71.783798 74.533798 80.045898 84.910103 88.351997 95.526199 100.3574 105.2579 110.7579 113.5079 116.5659 122.1319 127.0159 129.7659 137.00391 142.51601 146.55409 151.4381 154.1881 158.9115 163.77901 169.3483 172.39639 177.2155 180.2581 185.1003 189.3793 192.1293 197.80969 203.45711 208.95711 211.70711 214.76511 220.3311 225.2151 227.9651 232.276 237.92889 243.5983 249.1929 254.64011 261.97711 264.72711 269.4527 274.31909 279.8884 282.93759 287.75562 290.79819 295.64151 299.71259 302.46259 305.21259 310.89081 316.53821 322.03821 324.78821 330.30029 335.16449 338.60641 345.78061 350.61179 355.5123 361.0123 363.7623 368.6463 374.2706 379.13589 384.63589 387.38589 391.69901 397.3519 403.0213 408.61591 414.06311 421.40009 424.15009 428.8746 433.7421 439.3114 442.3595 447.17749 450.22119 454.84781 457.59781" y="80.498001">9. The spacing between the work vehicles and the shadow vehicles, and between each shadow vehicle, </tspan><tspan x="17.996 22.309099 27.933399 33.422401 38.973 42.106899 47.606899 50.356899 55.868999 60.752998 63.502998 71.535202 74.638298 80.196602 83.338203 91.371498 94.402 98.547897 103.4319 108.9319 111.6819 114.7399 120.2399 122.9899 128.54601 133.4102 136.4451 141.3082 145.5872 148.3372 152.3544 157.92039 163.5898 169.0898 171.8398 177.4267 181.7057 186.5699 190.6124 194.8914 197.6414 201.16141 205.17641 210.76331 218.70531 221.45531 227.0554 231.3586 234.3847 239.1675 242.2706 247.62869 253.12869 255.87869 258.98181 264.48181 267.23181 272.7439 277.60809 281.04999 288.22421 293.05539 297.9559 303.39761" y="91.992996">should be minimized to deter road users from driving in between.</tspan><tspan x="0 5.1975002 10.4203 13.167 17.996 26.774 32.286098 36.325298 41.209301 43.959301 48.270199 53.894501 59.383499 64.934097 68.068001 73.568001 76.318001 81.931297 87.443398 91.855499 99.972397 105.5615 108.5634 111.584 116.468 119.218 124.7279 129.61189 132.36189 137.98511 142.86909 147.7641 153.351 161.38429 166.8535 169.85539 172.8947 177.20779 182.7738 187.65781 193.15781 195.90781 201.4991 207.10139 211.4046 214.50771 219.8658 225.3658 228.1158 233.53661 236.995 240.04201 243.77431 249.2919 254.1759 259.81781 264.70181 267.45181 273.07501 278.564 284.16629 288.2088 292.19739" y="103.499">10. Work should normally be accomplished during off-peak hours.</tspan><tspan x="0 4.7795 9.4434996 12.188 17.996 27.331699 32.897701 37.798199 43.298199 46.048199 49.112801 54.678799 59.562801 62.312801 69.549698 75.061798 79.100998 83.985001 86.735001 91.460602 96.327003 101.8963 104.9455 109.7635 112.8061 117.6901 120.4401 125.9984 130.8824 135.7664 141.3555 146.84669 149.87939 154.7227 159.00169 161.75169 167.431 172.931 175.681 178.7852 184.3688 187.4037 192.2668 196.57001 199.62801 205.14011 209.4191 212.1691 215.2997 220.97791 226.5329 231.4169 234.1669 237.27 242.77 245.52 248.64841 254.3266 259.88159 264.76559 267.51559 273.02441 276.08899 281.655 286.5181 290.79709 293.54709 296.61279 302.26569 307.94391 313.44391 316.19391 319.25851 324.82449 329.7085 332.4585 335.50989 341.1507 345.42969 348.17969 352.48511 355.32751 360.65149 366.24609 369.30411 372.05411 377.564 381.84299 384.59299 387.651 393.29181 397.5708 400.3208 403.3656 408.17041 411.64529 414.13791 417.8009 420.5509 425.97171 429.02969 431.77969 437.27969" y="114.994">11. When the work vehicle occupies an interior lane (a lane other than the far right or far left) of a </tspan><tspan x="17.996 23.5543 26.6189 30.5613 35.407902 40.277599 43.454399 46.512402 52.060799 57.7038 63.291801 66.3498 69.0998 73.112602 78.678596 84.348 89.920601 97.180603 102.7895 107.6735 110.4235 116.0753 121.6523 126.434 129.53819 134.8963 140.3963 143.1463 148.6463 151.3963 155.69839 158.5419 163.86591 169.46049 172.4613 176.2574 181.91029 187.5885 193.2359 198.7359 201.4859 205.7979 211.42329 216.91229 222.46291 225.5968 231.15289 236.01601 240.295 243.045 248.24471 253.74471 256.49469 259.51859 264.34979 269.21289 272.2709 275.0209 280.53189 284.81091 287.56091 295.6525 301.16461 305.1059 309.9899 312.7399 315.84189 321.34189 324.09189 331.3277 334.42859 340.00339 343.0614 348.59 351.34 354.09 359.64609 365.29901 370.96841 376.56299 382.01019 389.3472 392.0972 398.24179 403.10931 408.67859 411.72672 416.54471 419.58841 424.47241 427.22241 432.72241 435.47241 439.78329 445.40759 450.89661 456.4472 459.58109 465.08109" y="126.489">directional roadway having a right-hand shoulder 10 feet or more in width, Shadow Vehicle 2 should </tspan><tspan x="17.996 23.594999 27.898199 30.924299 35.6488 40.532799 43.282799 48.8312 54.3312 57.0812 60.139198 65.7052 70.589203 73.339203 77.640198 80.483704 85.807701 91.402298 94.403099 98.199203 103.8521 109.5303 115.1777 120.6777 123.4277 127.7408 133.3651 138.8541 144.40469 147.5386 153.0947 157.95779 162.2368 164.9868 172.22479 175.2597 178.3243 183.8243 186.5743 192.0743 194.8243 199.1033 201.94569 207.37199 212.87199 215.62199 218.7262 224.3736 229.9319 232.98 237.8992 243.50481 246.68159 249.7847 255.14281 260.64279 263.39279 266.4574 272.11029 277.71591 280.7739 283.5239 290.7608 296.27289 300.311 305.19501 307.94501 310.98318 315.26221 318.01221 321.09329 326.7352 331.71161 334.8147 340.17279 345.67279 348.42279 353.892 357.02039 362.64471 367.47699 372.36099 375.11099 378.21301 383.71301 386.46301 389.521 395.08701 399.97101 402.72101 405.823 411.40659 414.4415 419.3046 423.60779 426.6658 432.17789 436.45691 439.20691 442.33749 448.01569 453.57071 458.1445" y="137.98399">drive on the right-hand shoulder with a sign indicating that work is taking place in the interior lane.</tspan></text><text transform="matrix(1 0 0 -1 -576.01 434.03)"><tspan x="0 8.0552998 13.4717 16.6166 19.504101 24.899599 30.2346" y="0">Option:</tspan><tspan x="18.007 23.166 28.523001 31.273001" y="14.509">12. </tspan></text><text transform="matrix(1 0 0 -1 -540.01 419.52)"><tspan x="0 7.9419999 10.692 13.9315 17.904699 23.3211 28.0368 32.8251 36.318699 44.774399 50.180901 55.7645 61.091801 64.215797 69.172401 74.672401 77.422401 82.242599 85.449097 88.573097 93.357002 98.6689 104.1876 109.0089 112.0669 117.4954 121.1584 123.9084 132.4664 137.03909 142.53909 145.28909 150.85069 155.7347 158.4847 163.9308 168.1922 173.1488 178.6488 181.3988 186.7943 192.2943 195.0443 200.93919 206.382 211.2847 216.7132 221.82491 229.76691 232.51691 239.56461 244.3584 250.02341 252.9274 257.54959 260.47009 265.3541 268.1041 273.45889" y="0">A truck-mounted attenuator may be used on Shadow Vehicle 2.</tspan></text><text transform="matrix(1 0 0 -1 -558 408.03)"><tspan x="0 5.0588999 10.0089 12.76" y="0">13. </tspan></text><text transform="matrix(1 0 0 -1 -540.01 408.03)"><tspan x="0 5.9190998 11.3696 15.4572 18.273199 21.419201 24.2022 29.335899 34.219898 36.969898 42.469898 46.1087 51.525101 54.649101 59.6101 64.447899 67.592796 70.480301 75.875801 81.375801 84.125801 89.618103 94.189697 99.680901 102.5838 107.5019 112.3276 116.6066 119.3566 127.9146 132.4873 137.9873 140.7373 146.2989 151.18291 153.93291 159.379 163.6404 168.5959 174.0959 176.8459 182.4416 187.28931 190.9523 193.7023 199.7457 204.70779 209.54449 212.69051 215.578 220.9735 226.4735 229.2235 234.76421 244.222 247.0919 252.54021 257.89719" y="0">Positive protection devices may be used per Section 6M.02.</tspan><tspan x="-17.996 -13.2495 -8.1433001 -5.3899999 0 8.0113001 13.5113 16.261299 21.9263 24.7698 30.3204 35.7654 39.3745 43.537998 49.133701 54.104599 59.061199 64.561203 67.311203 70.949997 76.379601 81.281197 86.583199 94.231499 98.803101 104.0567 107.9892 110.7392 113.4892 118.3732 121.1232 124.3154 129.98039 133.2397 136.85539 142.35539 145.10539 149.2469 154.6897 159.59129 165.01981 170.1326 178.0746 180.8246 185.96049 190.7543 196.4193 199.3233 203.9455 206.8649 211.7489 214.4989 217.591 222.9865 228.40289 231.46091 234.21091 238.3502 243.7567 248.86951 256.86981 261.79889 265.46191 268.21191 276.7699 281.34259 286.84259 289.59259 295.15311 300.03711 302.78711 308.23431 312.4957 317.4512 322.9512 325.7012 333.61459 336.4306 339.6239 345.1239 347.8739 353.7699 359.21271 364.11429 369.54279 374.65561 382.5976 385.3476 392.39529 397.18909 402.8541 405.75699 410.38031 413.29971 418.18369 420.93369 426.43369 429.18369 432.366 437.866 440.616 443.8093 449.24881 454.13281" y="11.495">14. On high-speed roadways, a third shadow vehicle (not shown) may be used with Shadow Vehicle 1 in the </tspan><tspan x="0 4.6233001 7.4766998 12.9272 17.1875 22.1441 27.6441 30.3941 33.350899 38.3988 43.827301 48.283401 51.033401 53.783401 59.679401 65.1222 70.023804 75.452301 80.565102 88.507103 91.257103 98.303703 103.0986 108.7636 111.6665 116.2898 119.2092 124.0932 126.8432 132.3432 135.0932 139.23579 142.4731 146.17239 151.07401 156.5553 162.1389 165.3168 168.5013 173.81979 179.31979 182.06979 185.26311 190.70261 195.58659 198.33659 203.291 208.6909 214.01489 218.8989 221.6489 224.8257 228.00909 233.43761 237.89481 240.64481 243.39481 248.4416 253.8481 259.34811 262.09811 267.99411 273.43689 278.3385 283.767 288.87979 296.82181 299.57181 306.61841 311.4133 317.07831 319.9812 324.60449 327.5239 332.4079 335.1579 340.6579 343.4079 348.80121 354.30121 357.05121 360.24561 365.68509 370.56909 373.31909 377.4584 382.8649 388.27139 393.84399 396.74249 402.2337 407.08139 410.04919" y="22.99">closed lane, Shadow Vehicle 2 straddling the edge line, and Shadow Vehicle 3 on the shoulder.</tspan><tspan x="-17.996 -12.8722 -7.9882002 -5.2360001 0 10.6348 16.0732 20.9209 24.5839 29.467899 32.217899 37.120602 42.611801 47.5728 52.957298 58.474899 63.2962 66.420197 71.304199 74.054199 78.193497 83.599998 89.0065 94.579102 97.478699 102.9699 107.8165 111.4795 114.2295 122.1429 125.0414 130.4413 133.6346 139.1346 141.8846 144.88541 149.1644 151.9144 157.311 162.7274 165.7854 168.5354 173.0795 178.3056 183.34911 186.5215 189.4783 194.315 199.58949 202.5089 206.96609 209.71609 212.46609 218.36099 223.8038 228.7065 234.13499 239.2478 247.1898 249.9398 256.98639 261.78021 267.44519 270.34921 274.97141 277.89191 282.77591 285.52591 291.02591 293.77591 302.33389 306.90659 312.40659 315.15659 320.19351 323.19431 327.41171 332.91171 335.66171 339.80539 343.04269 346.74091 351.64359 357.12491 362.7085 365.6279 370.5119 373.2619 376.4541 381.89359 386.77759 389.52759 394.48199 399.8819 405.2059 410.0899 412.8399 416.01669 419.2001 424.6286 429.0968" y="34.495998">15. Where adequate shoulder width is not available, Shadow Vehicle 3 may also straddle the edge line.</tspan></text></g></g></g><path d="m241.32 170.16h-33.25v546.59h33.25z" fill="#d9d8d8"/><path d="m363.07 170.16h33.25v546.59h-33.25z" fill="#d9d8d8"/><g transform="translate(396.32 716.75)"><path d="m0 0v-546.59" fill="none" stroke="#231f20"/></g><path d="m362.98 170.16h-121.56v547.09h121.56z" fill="#b2b1b1"/><g transform="translate(282.28 716.66)"><path d="m0 0v-549.75" fill="none" stroke="#fff" stroke-dasharray="30, 90" stroke-width="2"/></g><g transform="translate(322.11 716.66)"><path d="m0 0v-549.75" fill="none" stroke="#fff" stroke-dasharray="30, 90" stroke-width="2"/></g><g transform="translate(208.07 716.75)"><path d="m0 0v-546.59" fill="none" stroke="#231f20"/></g><g transform="translate(241.42 716.75)"><path d="m0 0v-546.59" fill="none" stroke="#fccc2d" stroke-width="2"/></g><g transform="translate(362.98 716.75)"><path d="m0 0v-546.59" fill="none" stroke="#fff" stroke-width="2"/></g><path d="m422.21 737.06h-242.5v-20.5h242.5z" fill="#fff"/><g clip-path="url(#e)"><g transform="translate(259.27 448.2)"><path d="m0 0c0 1.237-1.002 2.239-2.238 2.239-1.237 0-2.24-1.002-2.24-2.239 0-1.236 1.003-2.239 2.24-2.239 1.236 0 2.238 1.003 2.238 2.239z" fill="none" stroke="#231f20" stroke-width=".5"/></g><g transform="translate(267.53 418.43)"><path d="m0 0-0.476 53.675s-5.581 1.109-10.218 1.109c-4.421 0-10.047-1.109-10.047-1.109l-0.239-53.675" fill="#fff" stroke="#231f20"/></g><g transform="translate(267.16 470.68)"><path d="m0 0s-5.344 1.108-9.98 1.108c-4.422 0-10.049-1.108-10.049-1.108" fill="none" stroke="#231f20"/></g><g transform="translate(264.58 456.43)"><path d="m0 0v14.117c-1.984 0.314-4.932 0.691-7.637 0.691-2.684 0-5.812-0.408-7.857-0.729v-13.762" fill="none" stroke="#231f20" stroke-width=".5"/></g></g><g transform="translate(256.94 471.24)"><path d="m0 0v-11.958" fill="none" stroke="#231f20" stroke-width=".5"/></g><g clip-path="url(#d)"><g transform="translate(265.9 455.48)"><path d="m0 0s-3.166 2.059-8.708 2.059-9.263-2.059-9.263-2.059l1.426-3.404s4.67 1.188 7.679 1.188 7.283-1.267 7.283-1.267z" fill="none" stroke="#231f20" stroke-width=".5"/></g><g transform="translate(264.39 443.92)"><path d="m0 0v7.362s-4.274 1.267-7.283 1.267-7.679-1.187-7.679-1.187v-7.442z" fill="none" stroke="#231f20" stroke-width=".5"/></g></g><g transform="translate(249.08 443.68)"><path d="m0 0v7.837l-1.741 1.742-2.534-2.375 3.562 0.396v-7.6z" fill="#231f20"/></g><g transform="translate(264.78 443.68)"><path d="m0 0v7.837l1.742 1.742 2.533-2.375-3.562 0.396v-7.6z" fill="#231f20"/></g><path d="m249.64 442.34h15.141v1.347h-15.141z" fill="#231f20"/><g transform="translate(267.13 445.11)"><path d="m0 0h-2.059l2.059-1.662" fill="none" stroke="#231f20" stroke-width=".5"/></g><g transform="translate(246.94 445.11)"><path d="m0 0h2.058l-2.058-1.662" fill="none" stroke="#231f20" stroke-width=".5"/></g><g transform="translate(264.83 442.5)"><path d="m0 0v-23.75" fill="none" stroke="#231f20" stroke-width=".5"/></g><g transform="translate(248.98 442.5)"><path d="m0 0v-23.75" fill="none" stroke="#231f20" stroke-width=".5"/></g><g transform="translate(250.58 423.18)"><path d="m0 0-2.612-1.187v9.263l2.612-1.187z" fill="#fff"/><path d="m0 0-2.612-1.187v9.263l2.612-1.187z" fill="none" stroke="#231f20" stroke-width=".5"/></g><g transform="translate(263.61 423.18)"><path d="m0 0 2.612-1.187v9.263l-2.612-1.187z" fill="#fff"/><path d="m0 0 2.612-1.187v9.263l-2.612-1.187z" fill="none" stroke="#231f20" stroke-width=".5"/></g><g transform="translate(246.78 442.5)"><path d="m0 0h20.74z" fill="#fff"/></g><g transform="translate(267.53 442.5)"><path d="m0 0h-20.741" fill="none" stroke="#231f20"/></g><g transform="translate(266.26 426.66)"><path d="m0 0h1.107z" fill="#f48412"/></g><g transform="translate(266.26 426.66)"><path d="m0 0h1.107" fill="none" stroke="#231f20"/></g><g transform="translate(246.63 426.66)"><path d="m0 0h1.108z" fill="#f48412"/></g><g transform="translate(246.63 426.66)"><path d="m0 0h1.108" fill="none" stroke="#231f20"/></g><path d="m268.05 418.01h-22.242v-13.67h22.242z" fill="#fff"/><g transform="translate(268.05 418.01)"><path d="m0 0h-22.242v-13.67h22.242z" fill="none" stroke="#231f20"/></g><g transform="translate(268.05 405.19)"><path d="m0 0-11.121 12.82-11.121-12.82z" fill="none" stroke="#231f20" stroke-miterlimit="1"/></g><g transform="translate(251.02 439.75)"><path d="m0 0h11.82" fill="none" stroke="#231f20" stroke-width="2"/></g><g clip-path="url(#c)"><g transform="translate(251.89 434.18)"><path d="m0 0c0.871 0 1.578 0.707 1.578 1.578s-0.707 1.577-1.578 1.577-1.577-0.706-1.577-1.577 0.706-1.578 1.577-1.578" fill="#fff200"/><path d="m0 0c0.871 0 1.578 0.707 1.578 1.578s-0.707 1.577-1.578 1.577-1.577-0.706-1.577-1.577 0.706-1.578 1.577-1.578z" fill="none" stroke="#231f20"/></g><g transform="translate(256.93 434.18)"><path d="m0 0c0.871 0 1.577 0.707 1.577 1.578s-0.706 1.577-1.577 1.577-1.577-0.706-1.577-1.577 0.706-1.578 1.577-1.578" fill="#fff200"/><path d="m0 0c0.871 0 1.577 0.707 1.577 1.578s-0.706 1.577-1.577 1.577-1.577-0.706-1.577-1.577 0.706-1.578 1.577-1.578z" fill="none" stroke="#231f20"/></g><g transform="translate(261.97 434.18)"><path d="m0 0c0.871 0 1.577 0.707 1.577 1.578s-0.706 1.577-1.577 1.577-1.578-0.706-1.578-1.577 0.707-1.578 1.578-1.578" fill="#fff200"/><path d="m0 0c0.871 0 1.577 0.707 1.577 1.578s-0.706 1.577-1.577 1.577-1.578-0.706-1.578-1.577 0.707-1.578 1.578-1.578z" fill="none" stroke="#231f20"/></g><g transform="translate(246.47 567.96)"><path d="m0 0c0-0.376 0.308-0.684 0.685-0.684h20.481c0.376 0 0.685 0.308 0.685 0.684v0.532c0 0.376-0.309 0.684-0.685 0.684h-20.481c-0.377 0-0.685-0.308-0.685-0.684z" fill="none" stroke="#231f20"/></g><g transform="translate(267.53 569.17)"><path d="m0 0-0.475 53.675s-5.582 1.109-10.219 1.109c-4.421 0-10.047-1.109-10.047-1.109l-0.239-53.675" fill="#fff" stroke="#231f20"/></g><g transform="translate(267.16 621.42)"><path d="m0 0s-5.344 1.108-9.98 1.108c-4.422 0-10.049-1.108-10.049-1.108" fill="none" stroke="#231f20"/></g><g transform="translate(264.58 607.17)"><path d="m0 0v14.117c-1.985 0.314-4.933 0.692-7.638 0.692-2.683 0-5.812-0.409-7.857-0.73v-13.762" fill="none" stroke="#231f20" stroke-width=".5"/></g><g transform="translate(256.94 621.98)"><path d="m0 0v-11.958" fill="none" stroke="#231f20" stroke-width=".5"/></g><g transform="translate(265.9 606.22)"><path d="m0 0s-3.166 2.058-8.708 2.058-9.263-2.058-9.263-2.058l1.426-3.404s4.67 1.187 7.679 1.187 7.283-1.266 7.283-1.266z" fill="none" stroke="#231f20" stroke-width=".5"/></g><g transform="translate(264.39 594.67)"><path d="m0 0v7.362s-4.274 1.267-7.283 1.267-7.679-1.187-7.679-1.187v-7.442z" fill="none" stroke="#231f20" stroke-width=".5"/></g><g transform="translate(249.08 594.43)"><path d="m0 0v7.837l-1.741 1.742-2.533-2.375 3.562 0.396v-7.6z" fill="#231f20"/></g><g transform="translate(264.78 594.43)"><path d="m0 0v7.837l1.742 1.742 2.533-2.375-3.562 0.396v-7.6z" fill="#231f20"/></g><path d="m249.64 593.08h15.141v1.346h-15.141z" fill="#231f20"/><g transform="translate(247.73 569.49)"><path d="m0 0h18.209v23.75h-18.209z" fill="none" stroke="#231f20" stroke-width=".5"/></g><g transform="translate(267.13 595.85)"><path d="m0 0h-2.059l2.059-1.663" fill="none" stroke="#231f20" stroke-width=".5"/></g><g transform="translate(246.94 595.85)"><path d="m0 0h2.059l-2.059-1.663" fill="none" stroke="#231f20" stroke-width=".5"/></g><g transform="translate(264.83 593.24)"><path d="m0 0v-23.75" fill="none" stroke="#231f20" stroke-width=".5"/></g><g transform="translate(263.51 593.24)"><path d="m0 0v-23.75" fill="none" stroke="#231f20" stroke-width=".5"/></g><g transform="translate(262.19 593.24)"><path d="m0 0v-23.75" fill="none" stroke="#231f20" stroke-width=".5"/></g><g transform="translate(260.87 593.24)"><path d="m0 0v-23.75" fill="none" stroke="#231f20" stroke-width=".5"/></g><g transform="translate(259.55 593.24)"><path d="m0 0v-23.75" fill="none" stroke="#231f20" stroke-width=".5"/></g><g transform="translate(258.23 593.24)"><path d="m0 0v-23.75" fill="none" stroke="#231f20" stroke-width=".5"/></g><g transform="translate(256.91 593.24)"><path d="m0 0v-23.75" fill="none" stroke="#231f20" stroke-width=".5"/></g><g transform="translate(255.59 593.24)"><path d="m0 0v-23.75" fill="none" stroke="#231f20" stroke-width=".5"/></g><g transform="translate(254.27 593.24)"><path d="m0 0v-23.75" fill="none" stroke="#231f20" stroke-width=".5"/></g><g transform="translate(252.95 593.24)"><path d="m0 0v-23.75" fill="none" stroke="#231f20" stroke-width=".5"/></g><g transform="translate(251.62 593.24)"><path d="m0 0v-23.75" fill="none" stroke="#231f20" stroke-width=".5"/></g><g transform="translate(250.3 593.24)"><path d="m0 0v-23.75" fill="none" stroke="#231f20" stroke-width=".5"/></g><g transform="translate(248.98 593.24)"><path d="m0 0v-23.75" fill="none" stroke="#231f20" stroke-width=".5"/></g><g transform="translate(250.58 573.92)"><path d="m0 0-2.612-1.187v9.262l2.612-1.187z" fill="#fff"/><path d="m0 0-2.612-1.187v9.262l2.612-1.187z" fill="none" stroke="#231f20" stroke-width=".5"/></g><g transform="translate(263.61 573.92)"><path d="m0 0 2.612-1.187v9.262l-2.612-1.187z" fill="#fff"/><path d="m0 0 2.612-1.187v9.262l-2.612-1.187z" fill="none" stroke="#231f20" stroke-width=".5"/></g><g transform="translate(267.53 593.24)"><path d="m0 0h-20.741" fill="#fff" stroke="#231f20"/></g><g transform="translate(266.26 577.41)"><path d="m0 0h1.107" fill="none" stroke="#231f20"/></g><g transform="translate(246.63 577.41)"><path d="m0 0h1.107" fill="none" stroke="#231f20"/></g><g transform="translate(259.27 598.94)"><path d="m0 0c0 1.237-1.002 2.239-2.238 2.239-1.237 0-2.24-1.002-2.24-2.239 0-1.236 1.003-2.239 2.24-2.239 1.236 0 2.238 1.003 2.238 2.239z" fill="none" stroke="#231f20" stroke-width=".5"/></g><path d="m110.71 442.05h49.874v27.201h-49.874z" fill="#231f20"/><g transform="translate(149.97 448.48)"><path d="m0 0c-1.15 0-2.083-0.933-2.083-2.082 0-1.151 0.933-2.083 2.083-2.083s2.083 0.932 2.083 2.083c0 1.149-0.933 2.082-2.083 2.082" fill="#fff200"/></g><g transform="translate(153.29 453.1)"><path d="m0 0c-1.15 0-2.083-0.933-2.083-2.082 0-1.151 0.933-2.083 2.083-2.083s2.082 0.932 2.082 2.083c0 1.149-0.932 2.082-2.082 2.082" fill="#fff200"/></g><g transform="translate(149.97 462.82)"><path d="m0 0c-1.15 0-2.083 0.933-2.083 2.082 0 1.151 0.933 2.083 2.083 2.083s2.083-0.932 2.083-2.083c0-1.149-0.933-2.082-2.083-2.082" fill="#fff200"/></g><g transform="translate(153.29 458.19)"><path d="m0 0c-1.15 0-2.083 0.932-2.083 2.083 0 1.15 0.933 2.082 2.083 2.082s2.082-0.932 2.082-2.082c0-1.151-0.932-2.083-2.082-2.083" fill="#fff200"/></g><g transform="translate(156.6 457.73)"><path d="m0 0c-1.15 0-2.083-0.932-2.083-2.083 0-1.15 0.933-2.082 2.083-2.082s2.083 0.932 2.083 2.082c0 1.151-0.933 2.083-2.083 2.083" fill="#fff200"/></g><g transform="translate(144.36 457.73)"><path d="m0 0c-1.15 0-2.083-0.932-2.083-2.083 0-1.15 0.933-2.082 2.083-2.082s2.083 0.932 2.083 2.082c0 1.151-0.933 2.083-2.083 2.083" fill="#fff200"/></g><g transform="translate(136.95 457.73)"><path d="m0 0c-1.15 0-2.083-0.932-2.083-2.083 0-1.15 0.933-2.082 2.083-2.082s2.083 0.932 2.083 2.082c0 1.151-0.933 2.083-2.083 2.083" fill="#fff200"/></g><g transform="translate(129.53 457.73)"><path d="m0 0c-1.15 0-2.082-0.932-2.082-2.083 0-1.15 0.932-2.082 2.082-2.082s2.083 0.932 2.083 2.082c0 1.151-0.933 2.083-2.083 2.083" fill="#fff200"/></g><g transform="translate(122.11 457.73)"><path d="m0 0c-1.15 0-2.082-0.932-2.082-2.083 0-1.15 0.932-2.082 2.082-2.082s2.083 0.932 2.083 2.082c0 1.151-0.933 2.083-2.083 2.083" fill="#fff200"/></g><g transform="translate(114.7 457.73)"><path d="m0 0c-1.15 0-2.083-0.932-2.083-2.083 0-1.15 0.933-2.082 2.083-2.082s2.083 0.932 2.083 2.082c0 1.151-0.933 2.083-2.083 2.083" fill="#fff200"/></g><path d="m110.71 326.29h49.874v27.2h-49.874z" fill="#231f20"/><g transform="translate(149.97 332.72)"><path d="m0 0c-1.15 0-2.083-0.933-2.083-2.083s0.933-2.083 2.083-2.083 2.083 0.933 2.083 2.083-0.933 2.083-2.083 2.083" fill="#fff200"/></g><g transform="translate(153.29 337.35)"><path d="m0 0c-1.15 0-2.083-0.932-2.083-2.082s0.933-2.083 2.083-2.083 2.082 0.933 2.082 2.083-0.932 2.082-2.082 2.082" fill="#fff200"/></g><g transform="translate(149.97 347.07)"><path d="m0 0c-1.15 0-2.083 0.932-2.083 2.082s0.933 2.083 2.083 2.083 2.083-0.933 2.083-2.083-0.933-2.082-2.083-2.082" fill="#fff200"/></g><g transform="translate(153.29 342.44)"><path d="m0 0c-1.15 0-2.083 0.933-2.083 2.082 0 1.15 0.933 2.083 2.083 2.083s2.082-0.933 2.082-2.083c0-1.149-0.932-2.082-2.082-2.082" fill="#fff200"/></g><g transform="translate(156.6 341.98)"><path d="m0 0c-1.15 0-2.083-0.933-2.083-2.083s0.933-2.082 2.083-2.082 2.083 0.932 2.083 2.082-0.933 2.083-2.083 2.083" fill="#fff200"/></g><g transform="translate(144.36 341.98)"><path d="m0 0c-1.15 0-2.083-0.933-2.083-2.083s0.933-2.082 2.083-2.082 2.083 0.932 2.083 2.082-0.933 2.083-2.083 2.083" fill="#fff200"/></g><g transform="translate(136.95 341.98)"><path d="m0 0c-1.15 0-2.083-0.933-2.083-2.083s0.933-2.082 2.083-2.082 2.083 0.932 2.083 2.082-0.933 2.083-2.083 2.083" fill="#fff200"/></g><g transform="translate(129.53 341.98)"><path d="m0 0c-1.15 0-2.082-0.933-2.082-2.083s0.932-2.082 2.082-2.082 2.083 0.932 2.083 2.082-0.933 2.083-2.083 2.083" fill="#fff200"/></g><g transform="translate(122.11 341.98)"><path d="m0 0c-1.15 0-2.082-0.933-2.082-2.083s0.932-2.082 2.082-2.082 2.083 0.932 2.083 2.082-0.933 2.083-2.083 2.083" fill="#fff200"/></g><g transform="translate(114.7 341.98)"><path d="m0 0c-1.15 0-2.083-0.933-2.083-2.083s0.933-2.082 2.083-2.082 2.083 0.932 2.083 2.082-0.933 2.083-2.083 2.083" fill="#fff200"/></g><g transform="translate(257.67 448.2)"><path d="m0 0c0 1.237-1.002 2.239-2.238 2.239-1.238 0-2.241-1.002-2.241-2.239s1.003-2.239 2.241-2.239c1.236 0 2.238 1.002 2.238 2.239z" fill="none" stroke="#231f20" stroke-width=".5"/></g><g transform="translate(226.47 301.34)"><path d="m0 0c0 1.236-1.003 2.239-2.239 2.239-1.237 0-2.239-1.003-2.239-2.239s1.002-2.239 2.239-2.239c1.236 0 2.239 1.003 2.239 2.239z" fill="none" stroke="#231f20" stroke-width=".5"/></g><g transform="translate(234.73 271.58)"><path d="m0 0-0.476 53.675s-5.581 1.108-10.219 1.108c-4.42 0-10.047-1.108-10.047-1.108l-0.238-53.675" fill="#fff" stroke="#231f20"/></g><g transform="translate(234.36 323.83)"><path d="m0 0s-5.345 1.108-9.982 1.108c-4.421 0-10.047-1.108-10.047-1.108" fill="none" stroke="#231f20"/></g><g transform="translate(231.77 309.58)"><path d="m0 0v14.116c-1.985 0.315-4.932 0.692-7.638 0.692-2.683 0-5.812-0.409-7.856-0.729v-13.763" fill="none" stroke="#231f20" stroke-width=".5"/></g><g transform="translate(224.14 324.39)"><path d="m0 0v-11.957" fill="none" stroke="#231f20" stroke-width=".5"/></g><g transform="translate(233.09 308.63)"><path d="m0 0s-3.166 2.059-8.707 2.059c-5.543 0-9.264-2.059-9.264-2.059l1.426-3.404s4.67 1.187 7.68 1.187c3.008 0 7.283-1.266 7.283-1.266z" fill="none" stroke="#231f20" stroke-width=".5"/></g><g transform="translate(231.59 297.07)"><path d="m0 0v7.363s-4.275 1.266-7.284 1.266-7.679-1.188-7.679-1.188v-7.441z" fill="none" stroke="#231f20" stroke-width=".5"/></g><g transform="translate(216.28 296.83)"><path d="m0 0v7.838l-1.741 1.741-2.533-2.375 3.562 0.397v-7.601z" fill="#231f20"/></g><g transform="translate(231.97 296.83)"><path d="m0 0v7.838l1.742 1.741 2.533-2.375-3.562 0.397v-7.601z" fill="#231f20"/></g><path d="m216.83 295.49h15.141v1.347h-15.141z" fill="#231f20"/><g transform="translate(234.33 298.26)"><path d="m0 0h-2.059l2.059-1.662" fill="none" stroke="#231f20" stroke-width=".5"/></g><g transform="translate(214.14 298.26)"><path d="m0 0h2.059l-2.059-1.662" fill="none" stroke="#231f20" stroke-width=".5"/></g><g transform="translate(232.03 295.64)"><path d="m0 0v-23.749" fill="none" stroke="#231f20" stroke-width=".5"/></g><g transform="translate(216.18 295.64)"><path d="m0 0v-23.749" fill="none" stroke="#231f20" stroke-width=".5"/></g><g transform="translate(217.78 276.33)"><path d="m0 0-2.612-1.187v9.262l2.612-1.187z" fill="#fff"/><path d="m0 0-2.612-1.187v9.262l2.612-1.187z" fill="none" stroke="#231f20" stroke-width=".5"/></g><g transform="translate(230.8 276.33)"><path d="m0 0 2.612-1.187v9.262l-2.612-1.187z" fill="#fff"/><path d="m0 0 2.612-1.187v9.262l-2.612-1.187z" fill="none" stroke="#231f20" stroke-width=".5"/></g><g transform="translate(234.72 295.64)"><path d="m0 0h-20.741" fill="#fff" stroke="#231f20"/></g><g transform="translate(233.46 279.81)"><path d="m0 0h1.108" fill="#f48412" stroke="#231f20"/></g><g transform="translate(213.82 279.81)"><path d="m0 0h1.107" fill="#f48412" stroke="#231f20"/></g><path d="m235.25 271.16h-22.242v-13.671h22.242z" fill="#fff"/><g transform="translate(235.25 271.16)"><path d="m0 0h-22.242v-13.671h22.242z" fill="none" stroke="#231f20"/></g><g transform="translate(235.25 258.33)"><path d="M 0,0 -11.121,12.821 -22.242,0 Z" fill="none" stroke="#231f20" stroke-miterlimit="1"/></g><g transform="translate(218.21 292.9)"><path d="m0 0h11.82" fill="none" stroke="#231f20" stroke-width="2"/></g><g transform="translate(219.09 287.33)"><path d="m0 0c0.871 0 1.578 0.706 1.578 1.577s-0.707 1.577-1.578 1.577-1.576-0.706-1.576-1.577 0.705-1.577 1.576-1.577" fill="#fff200"/><path d="m0 0c0.871 0 1.578 0.706 1.578 1.577s-0.707 1.577-1.578 1.577-1.576-0.706-1.576-1.577 0.705-1.577 1.576-1.577z" fill="none" stroke="#231f20"/></g><g transform="translate(224.12 287.33)"><path d="m0 0c0.871 0 1.578 0.706 1.578 1.577s-0.707 1.577-1.578 1.577-1.576-0.706-1.576-1.577 0.705-1.577 1.576-1.577" fill="#fff200"/><path d="m0 0c0.871 0 1.578 0.706 1.578 1.577s-0.707 1.577-1.578 1.577-1.576-0.706-1.576-1.577 0.705-1.577 1.576-1.577z" fill="none" stroke="#231f20"/></g><g transform="translate(229.16 287.33)"><path d="m0 0c0.871 0 1.578 0.706 1.578 1.577s-0.707 1.577-1.578 1.577-1.577-0.706-1.577-1.577 0.706-1.577 1.577-1.577" fill="#fff200"/><path d="m0 0c0.871 0 1.578 0.706 1.578 1.577s-0.707 1.577-1.578 1.577-1.577-0.706-1.577-1.577 0.706-1.577 1.577-1.577z" fill="none" stroke="#231f20"/></g><g transform="translate(218.21 269.38)"><path d="m0 0h11.82" fill="none" stroke="#231f20"/></g><g transform="translate(226.47 301.34)"><path d="m0 0c0 1.236-1.003 2.239-2.239 2.239-1.237 0-2.239-1.003-2.239-2.239s1.002-2.239 2.239-2.239c1.236 0 2.239 1.003 2.239 2.239z" fill="none" stroke="#231f20" stroke-width=".5"/></g><g transform="translate(171.71 265.81)"><path d="m0 0h39.75" fill="none" stroke="#231f20" stroke-width=".75"/></g><g transform="translate(212.7 266.35)"><path d="m0 0c-0.868 0.263-1.432 0.504-2.128 0.783v-2.648c0.249 0.118 1.26 0.521 2.128 0.783 0.929 0.28 1.771 0.473 2.318 0.541-0.547 0.068-1.389 0.261-2.318 0.541" fill="#231f20"/></g><g transform="translate(428.32 296.52)"><path d="m0 0s-204.26-78.07-204.26-31.447" fill="none" stroke="#231f20" stroke-width=".75"/></g><g transform="translate(223.54 266.32)"><path d="m0 0c-0.276-0.863-0.529-1.424-0.82-2.113l2.647-0.049c-0.114 0.252-0.498 1.27-0.744 2.142-0.265 0.934-0.441 1.78-0.5 2.328-0.078-0.546-0.285-1.384-0.583-2.308" fill="#231f20"/></g><g transform="translate(171.66 587.85)"><path d="m0 0s50.997 25.158 71.43 25.158" fill="none" stroke="#231f20" stroke-width=".75"/></g><g transform="translate(244.32 613.57)"><path d="m0 0c-0.873 0.246-1.441 0.476-2.143 0.742l0.052-2.648c0.246 0.123 1.25 0.546 2.112 0.825 0.924 0.298 1.762 0.507 2.307 0.586-0.548 0.058-1.394 0.233-2.328 0.495" fill="#231f20"/></g><g transform="translate(184.32 427.18)"><path d="m0 0s43.283 33.42 58.35 33.42" fill="none" stroke="#231f20" stroke-width=".75"/></g><g transform="translate(243.81 461.34)"><path d="m0 0c-0.899 0.115-1.496 0.259-2.229 0.419l0.44-2.611c0.227 0.158 1.157 0.723 1.969 1.126 0.869 0.431 1.668 0.76 2.195 0.919-0.55-0.024-1.413 0.026-2.375 0.147" fill="#231f20"/></g><g transform="translate(183.99 308.61)"><path d="m0 0s19.755 6.371 26.753 6.371" fill="none" stroke="#231f20" stroke-width=".75"/></g><g transform="translate(211.97 315.56)"><path d="m0 0c-0.876 0.236-1.447 0.462-2.151 0.72l0.079-2.647c0.245 0.125 1.244 0.558 2.104 0.846 0.92 0.308 1.757 0.524 2.3 0.609-0.548 0.053-1.396 0.219-2.332 0.472" fill="#231f20"/></g><g transform="translate(344.09 678.84)"><path d="m0 0v10.664h2.615l-4.326 7.346-4.023-7.346h2.414v-10.664z" fill="#231f20"/></g><g transform="translate(300.83 678.84)"><path d="m0 0v10.664h-2.615l4.326 7.346 4.023-7.346h-2.414v-10.664z" fill="#231f20"/></g><g transform="translate(258.39 678.84)"><path d="m0 0v10.664h-2.615l4.326 7.346 4.023-7.346h-2.414v-10.664z" fill="#231f20"/></g><path d="m268.31 569.36h-22.242v-13.67h22.242z" fill="#fff"/><g transform="translate(268.31 569.36)"><path d="m0 0h-22.242v-13.67h22.242z" fill="none" stroke="#231f20"/></g><g transform="translate(268.31 556.54)"><path d="m0 0-11.121 12.82-11.121-12.82z" fill="none" stroke="#231f20" stroke-miterlimit="1"/></g><g transform="translate(179.22 556.91)"><path d="m0 0 65.265 5.333" fill="none" stroke="#231f20" stroke-width=".75"/></g><g transform="translate(245.67 562.89)"><path d="m0 0c-0.887 0.188-1.469 0.381-2.187 0.601l0.224-2.639c0.238 0.139 1.212 0.626 2.054 0.96 0.903 0.358 1.725 0.62 2.264 0.735-0.55 0.022-1.405 0.142-2.355 0.343" fill="#231f20"/></g></g><text transform="matrix(1 0 0 -1 116.41 585.5)" fill="#231f20" font-family="Helvetica" font-size="9px"><tspan x="0 8.3367004 13.3407 16.3377 20.8377 23.339701 27.839701 32.8437 37.847698 39.845699 44.345699 46.3437" y="0">Work vehicle</tspan><tspan x="-0.071999997 5.0957999 8.0928001 13.0968 17.5968 22.0968 25.0938 32.590801 37.594799 42.598801 47.602798 50.104801 55.108799" y="31.662001">Truck-mounted</tspan><tspan x="9.7559996 14.76 17.261999 19.764 24.768 29.771999 34.776001 39.779999 42.282001 47.285999" y="41.166">attenuator</tspan><tspan x="11.259 14.256 19.26 24.264 26.766001 28.764 33.768002 38.771999 43.776001 45.773998" y="50.669998">(optional)</tspan><tspan x="-3.5009999 1.6668 4.6637998 9.6677999 14.1678 18.667801 21.664801 29.1618 34.165798 39.1698 44.173801 46.6758 51.679798" y="184.05">Truck-mounted</tspan><tspan x="6.3270001 11.331 13.833 16.334999 21.339001 26.343 31.347 36.351002 38.853001 43.856998" y="193.554">attenuator</tspan><tspan x="-7.5689998 -2.4012001 0.59579998 5.5998001 10.0998 14.5998 17.5968 25.0938 30.097799 35.101799 40.105801 42.6078 47.611801" y="322.91101">Truck-mounted</tspan><tspan x="2.2590001 7.263 9.7650003 12.267 17.271 22.275 27.278999 32.283001 34.785 39.789001" y="332.41501">attenuator</tspan><tspan x="3.7620001 6.7589998 11.763 16.767 19.268999 21.267 26.271 31.275 36.278999 38.277" y="341.91901">(optional)</tspan><tspan x="-5.3280001 0.67500001 5.6789999 10.683 15.687 20.691 27.188999 29.691 35.2071 40.211102 45.215099 47.2131 51.7131 53.711102 58.715099 61.217098" y="162.009">Shadow Vehicle 1</tspan><tspan x="-5.8769999 0.126 5.1300001 10.134 15.138 20.142 26.639999 29.142 34.6581 39.662102 44.6661 46.664101 51.164101 53.162102 58.1661 60.668098" y="279.99899">Shadow Vehicle 2</tspan></text><g transform="translate(176.24 405.18)"><path d="m0 0 67.608 6.083" fill="none" stroke="#231f20" stroke-width=".75"/></g><g clip-path="url(#b)"><g transform="translate(245.04 411.9)"><path d="m0 0c-0.886 0.191-1.468 0.386-2.185 0.608l0.214-2.639c0.239 0.138 1.215 0.621 2.058 0.953 0.904 0.354 1.728 0.614 2.267 0.726-0.55 0.024-1.405 0.148-2.354 0.352" fill="#231f20"/></g></g><text transform="matrix(1 0 0 -1 404.72 219.02)" fill="#231f20" font-family="Helvetica" font-size="8px"><tspan x="0 5.776 10.224 12.448 16.896 19.120001 24 29.336 33.784 38.231998 40.316002 44.316799 48.764801 53.212799 54.9888 59.436798 61.660801 66.108803 71.444801 74.108803 78.556801 80.7808 83.004799 87.452797 90.116798 92.340797 94.564796 99.012802 103.4608 105.6848 112.3488 116.7968 121.2448 125.6928 127.4688 131.91679 136.36481 140.36481" y="0">Note: See Table 6P-2 for the meanings </tspan><tspan x="24 28.448 30.672001 32.896 35.119999 39.568001 44.015999 46.240002 50.240002 54.240002 60.903999 65.351997 69.800003 71.575996 75.575996 77.800003 82.248001 86.248001 90.695999 95.143997 97.367996 99.143997 103.592 105.816 108.04 112.488 114.264 118.264 120.488 122.712 124.488 128.936 133.384 136.048 140.496" y="8.4960003">of the symbols used in this figure.</tspan></text><g clip-path="url(#a)"><g transform="translate(460.82 266.12)"><path d="m0 0c-0.801 0-1.554 0.312-2.12 0.878l-28.44 28.438c-1.169 1.17-1.169 3.072 0 4.242l28.44 28.439c0.566 0.566 1.319 0.877 2.12 0.877s1.554-0.311 2.119-0.877l28.441-28.439c1.169-1.17 1.169-3.072 0-4.242l-28.44-28.438c-0.566-0.566-1.319-0.878-2.12-0.878" fill="#f48412"/></g><g transform="translate(460.82 329.12)"><path d="m0 0c-0.834 0-1.618-0.325-2.208-0.915l-28.439-28.439c-0.59-0.59-0.915-1.374-0.915-2.208s0.325-1.618 0.915-2.208l28.439-28.44c0.59-0.589 1.374-0.914 2.208-0.914s1.618 0.325 2.208 0.915l28.439 28.439c1.218 1.217 1.218 3.198 0 4.416l-28.439 28.439c-0.59 0.59-1.374 0.915-2.208 0.915m0-0.25c0.735 0 1.47-0.28 2.031-0.841l28.44-28.44c1.122-1.122 1.122-2.941 0-4.062l-28.44-28.44c-0.561-0.561-1.296-0.841-2.031-0.841s-1.47 0.28-2.031 0.841l-28.44 28.44c-1.122 1.121-1.122 2.94 0 4.062l28.44 28.44c0.561 0.561 1.296 0.841 2.031 0.841" fill="#231f20"/></g><g transform="translate(462.35 267.6)"><path d="m0 0c-0.84-0.84-2.207-0.84-3.047 0l-28.439 28.439c-0.84 0.84-0.84 2.207 0 3.047l28.439 28.44c0.84 0.84 2.207 0.84 3.047 0l28.439-28.44c0.84-0.84 0.84-2.207 0-3.047z" fill="#231f20"/></g><g transform="translate(461.5 268.44)"><path d="m0 0c-0.373-0.373-0.981-0.373-1.354 0l-28.44 28.439c-0.373 0.374-0.373 0.981 0 1.355l28.44 28.439c0.373 0.373 0.981 0.373 1.354 0l28.439-28.439c0.374-0.374 0.374-0.981 0-1.355z" fill="#f48412"/></g><g transform="translate(467.41 302.07)"><path d="m0 0-0.404-1.653h0.828zm1.031-4.032-0.404 1.572h-1.233l-0.384-1.572h-0.829l1.435 5.746h0.808l1.436-5.746z" fill="#231f20"/></g><g transform="translate(474.56 298.04)"><path d="m0 0v5.746h2.709v-0.807h-1.88v-1.451h1.193v-0.787h-1.193v-1.895h2.103v-0.806z" fill="#231f20"/></g><g transform="translate(462.32 298.04)"><path d="m0 0v5.746h0.829v-4.98h2.103v-0.766z" fill="#231f20"/></g><g transform="translate(472.67 298.04)"><path d="m0 0-1.77 3.851v-3.851h-0.825v5.746h0.825l1.569-3.448v3.448h0.825v-5.746z" fill="#231f20"/></g><g transform="translate(447.89 298.04)"><path d="m0 0v5.746h2.709v-0.807h-1.88v-1.451h1.193v-0.787h-1.193v-1.895h2.103v-0.806z" fill="#231f20"/></g><g transform="translate(452.63 302.98)"><path d="m0 0v-1.452h1.152v-0.786h-1.152v-2.701h-0.829v5.745h2.932v-0.806z" fill="#231f20"/></g><g transform="translate(444.15 298.04)"><path d="m0 0v5.746h0.829v-4.98h2.103v-0.766z" fill="#231f20"/></g><g transform="translate(456.96 303.02)"><path d="m0 0v-4.98h-0.829v4.98h-1.051v0.766h2.931v-0.766z" fill="#231f20"/></g><g transform="translate(451.43 293.28)"><path d="m0 0c-0.08 0.564-0.303 0.827-0.688 0.827-0.668 0-0.911-0.525-0.911-2.016 0-1.653 0.283-2.318 0.992-2.318 0.486 0 0.607 0.404 0.607 0.827h0.83c-0.02-0.948-0.627-1.634-1.437-1.634-1.234 0-1.782 0.988-1.782 3.105 0 1.854 0.587 2.841 1.721 2.841 1.053 0 1.47-0.96 1.498-1.632z" fill="#231f20"/></g><g transform="translate(453.41 294.81)"><path d="m0 0h0.829v-4.979h2.103v-0.767h-2.932z" fill="#231f20"/></g><g transform="translate(458.72 294.1)"><path d="m0 0c-0.164 0-0.904 0.034-0.904-2.159 0-2.208 0.74-2.175 0.904-2.175s0.903-0.033 0.903 2.175c0 2.193-0.739 2.159-0.903 2.159m-1.696-2.155c0 3.009 1.396 2.961 1.705 2.961 0.31 0 1.687 0.046 1.687-2.963 0-3.03-1.377-2.982-1.687-2.982-0.309 0-1.705-0.048-1.705 2.984" fill="#231f20"/></g><g transform="translate(462.9 289.77)"><path d="m0 0c0.445 0 0.809 0.404 0.809 0.868 0 1.223-2.145 1.221-2.145 2.783 0 0.826 0.648 1.491 1.477 1.491 0.811 0 1.438-0.625 1.458-1.492h-0.79c-0.02 0.403-0.304 0.665-0.668 0.665-0.385 0-0.688-0.282-0.688-0.664 0-0.344 0.216-0.482 0.484-0.65 0.777-0.469 1.662-1.035 1.662-2.134 0-0.93-0.709-1.674-1.6-1.674-1.012 0-1.618 0.857-1.618 1.796h0.81c0-0.489 0.242-0.989 0.809-0.989" fill="#231f20"/></g><g transform="translate(465.48 294.81)"><path d="m0 0h2.709v-0.807h-1.88v-1.451h1.192v-0.786h-1.192v-1.896h2.103v-0.806h-2.932z" fill="#231f20"/></g><g transform="translate(470.85 294)"><path d="m0 0h-0.644v-4.133h0.573c0.672 0 1.016 0.294 1.016 2.037 0 2.018-0.503 2.096-0.945 2.096m-1.469-4.939v5.746h1.64c0.35 0 1.579-0.018 1.579-2.863 0-2.604-1.135-2.883-1.511-2.883z" fill="#231f20"/></g><g transform="translate(452.18 282.46)"><path d="m0 0h0.829l-0.425 1.653zm1.031-0.807h-1.233l-0.384-1.572h-0.829l1.435 5.746h0.809l1.435-5.746h-0.829z" fill="#231f20"/></g><g transform="translate(457.64 282.68)"><path d="m0 0h-1.57v-2.601h-0.824v5.746h0.824v-2.338h1.569v2.338h0.825v-5.746h-0.824z" fill="#231f20"/></g><g transform="translate(459.73 285.83)"><path d="m0 0h2.709v-0.807h-1.88v-1.451h1.192v-0.786h-1.192v-1.896h2.103v-0.806h-2.932z" fill="#231f20"/></g><g transform="translate(464.59 282.46)"><path d="m0 0h0.829l-0.425 1.653zm1.031-0.807h-1.233l-0.384-1.572h-0.829l1.435 5.746h0.81l1.434-5.746h-0.829z" fill="#231f20"/></g><g transform="translate(469.13 285.02)"><path d="m0 0h-0.644v-4.133h0.573c0.672 0 1.016 0.294 1.016 2.037 0 2.018-0.503 2.096-0.945 2.096m-1.469-4.939v5.746h1.64c0.35 0 1.579-0.018 1.579-2.863 0-2.604-1.134-2.883-1.511-2.883z" fill="#231f20"/></g></g><text transform="matrix(1 0 0 -1 445.23 256.52)" fill="#231f20" font-family="Helvetica" font-size="9px"><tspan x="0 8.4960003 13.5 18.504 21.500999 26.504999" y="0">W20-5L</tspan></text><g transform="translate(523.89 638.46)"><path d="m0 0v78.92l-3.111-21.215 0.282-3.677 2.263 1.98" fill="#231f20" stroke="#231f20"/></g><g transform="translate(526.99 686)"><path d="m0 0h2.665v-22.176h-3.09l-10.348 17.914h-0.056v-17.914h-2.665v22.176h3.259l10.177-17.913h0.058z" fill="#231f20"/></g><text transform="matrix(1 0 0 -1 239.51 146.1)" fill="#231f20" font-family="Helvetica" font-size="12px" font-weight="bold"><tspan x="0 6.4452 13.1172 20.4492 23.7852 30.457199 37.1292 40.465199 43.357201 52.021198 59.353199 66.685204 70.021202 73.357201 80.029198 86.701202 90.697197 94.033203 101.3652 108.6972 112.0236 118.6956" y="0">Typical Application 35</tspan><tspan x="0" y="15.270779"/></text></g></svg>
