<?xml version="1.0" encoding="UTF-8"?>
<svg width="622.36" height="814.16" version="1.1" viewBox="0 0 622.36 814.16" xml:space="preserve" xmlns="http://www.w3.org/2000/svg"><defs><clipPath id="g"><path d="m47.643 76.617h483.71v666.38h-483.71z"/></clipPath><clipPath id="f"><path d="m47.643 76.617h483.71v666.38h-483.71z"/></clipPath><clipPath id="e"><path d="m47.643 76.617h483.71v666.38h-483.71z"/></clipPath><clipPath id="d"><path d="m47.643 76.617h483.71v666.38h-483.71z"/></clipPath><clipPath id="c"><path d="m47.643 76.617h483.71v666.38h-483.71z"/></clipPath><clipPath id="b"><path d="m47.643 76.617h483.71v666.38h-483.71z"/></clipPath><clipPath id="a"><path d="m47.643 76.617h483.71v666.38h-483.71z"/></clipPath></defs><g transform="matrix(1.3333 0 0 -1.3333 -66.858 921.76)"><path d="m241.73 354.38h84.927v-228.07h-84.927z" fill="#b1b4b6"/><g transform="translate(299.63 290.11)"><path d="m0 0v64.274" fill="none" stroke="#fff" stroke-dasharray="9.792, 29.376, 0, 0" stroke-width="2"/></g><g transform="translate(313.35 290.11)"><path d="m0 0v64.274" fill="none" stroke="#fff" stroke-dasharray="9.792, 29.376, 0, 0" stroke-width="2"/></g><g transform="translate(255.31 290.11)"><path d="m0 0v64.274" fill="none" stroke="#fff" stroke-dasharray="9.792, 29.376, 0, 0" stroke-width="2"/></g><g transform="translate(269.03 290.11)"><path d="m0 0v64.274" fill="none" stroke="#fff" stroke-dasharray="9.792, 29.376, 0, 0" stroke-width="2"/></g><g transform="translate(299.63 234.39)"><path d="m0 0v-100.07" fill="none" stroke="#fff" stroke-dasharray="9.792, 29.376, 0, 0" stroke-width="2"/></g><g transform="translate(313.35 234.39)"><path d="m0 0v-100.07" fill="none" stroke="#fff" stroke-dasharray="9.792, 29.376, 0, 0" stroke-width="2"/></g><g transform="translate(255.31 234.39)"><path d="m0 0v-100.07" fill="none" stroke="#fff" stroke-dasharray="9.792, 29.376, 0, 0" stroke-width="2"/></g><g transform="translate(269.03 234.39)"><path d="m0 0v-100.07" fill="none" stroke="#fff" stroke-dasharray="9.792, 29.376, 0, 0" stroke-width="2"/></g><g transform="translate(285.84 126.31)"><path d="m0 0v228.07" fill="none" stroke="#ffd046" stroke-width="2"/></g><g transform="translate(282.84 354.38)"><path d="m0 0v-228.07" fill="none" stroke="#ffd046" stroke-width="2"/></g><path d="m457.48 650.56h-87.425v-228.07h87.425z" fill="#b1b4b6"/><g transform="translate(412.11 422.49)"><path d="m0 0v228.07" fill="none" stroke="#ffd046" stroke-width="2"/></g><g transform="translate(415.11 650.56)"><path d="m0 0v-228.07" fill="none" stroke="#ffd046" stroke-width="2"/></g><g transform="translate(397.08 428.4)"><path d="m0 0v222.15" fill="none" stroke="#fff" stroke-dasharray="9.792, 29.376, 0, 0" stroke-width="2"/></g><g transform="translate(383.36 428.4)"><path d="m0 0v222.15" fill="none" stroke="#fff" stroke-dasharray="9.792, 29.376, 0, 0" stroke-width="2"/></g><g transform="translate(443.89 428.4)"><path d="m0 0v222.15" fill="none" stroke="#fff" stroke-dasharray="9.792, 29.376, 0, 0" stroke-width="2"/></g><g transform="translate(430.17 428.4)"><path d="m0 0v222.15" fill="none" stroke="#fff" stroke-dasharray="9.792, 29.376, 0, 0" stroke-width="2"/></g><path d="m114.69 650.56h87.427v-228.07h-87.427z" fill="#b1b4b6"/><g transform="translate(160.05 422.49)"><path d="m0 0v228.07" fill="none" stroke="#ffd046" stroke-width="2"/></g><g transform="translate(157.05 650.56)"><path d="m0 0v-228.07" fill="none" stroke="#ffd046" stroke-width="2"/></g><g transform="translate(175.09 428.4)"><path d="m0 0v222.15" fill="none" stroke="#fff" stroke-dasharray="9.792, 29.376, 0, 0" stroke-width="2"/></g><g transform="translate(188.81 428.4)"><path d="m0 0v222.15" fill="none" stroke="#fff" stroke-dasharray="9.792, 29.376, 0, 0" stroke-width="2"/></g><g transform="translate(128.28 428.4)"><path d="m0 0v222.15" fill="none" stroke="#fff" stroke-dasharray="9.792, 29.376, 0, 0" stroke-width="2"/></g><g transform="translate(142 428.4)"><path d="m0 0v222.15" fill="none" stroke="#fff" stroke-dasharray="9.792, 29.376, 0, 0" stroke-width="2"/></g><g transform="translate(372.16 243.96)"><path d="m0 0-3.067 6e-3 6e-3 4.563 3.002-2e-3 2e-3 0.051 0.064-2e-3zm6.195 4.608-6e-3 -4.618-3.119 6e-3 8e-3 4.616zm6.138-9e-3 -4e-3 -4.619-3.07 3e-3 6e-3 4.618zm6.223-0.01-6e-3 -4.617-3.107 4e-3 9e-3 4.619zm6.13-8e-3 -6e-3 -4.621-3.023 8e-3 6e-3 4.615zm6.211-0.011-8e-3 -4.616-3.132 3e-3 7e-3 4.619zm-77.226 0.042 3.132-4e-3 -5e-3 -4.564-3.121-0.031-3e-3 -0.019-8e-3 1e-3zm-6.102 0.01 3.027-4e-3 -8e-3 -4.618-3.026 5e-3zm-6.209 8e-3 3.103-3e-3 -5e-3 -4.617-3.105 5e-3zm-6.194-4.606 7e-3 4.615 3.071-5e-3 -9e-3 -4.615zm-18.522 4.612 3.131-4e-3 -5e-3 -4.565-3.123-0.03v-0.018h-9e-3zm-6.103 0.01 3.027-6e-3 -9e-3 -4.617-3.023 4e-3zm-6.208 9e-3 3.103-6e-3 -7e-3 -4.615-3.104 4e-3zm-6.195-4.609 8e-3 4.615 3.07-2e-3 -8e-3 -4.617zm-18.522 4.613 3.132-4e-3 -8e-3 -4.563-3.12-0.032v-0.018h-0.011zm-6.1 0.01 3.024-4e-3 -9e-3 -4.619-3.023 4e-3zm-6.21 0.01 3.104-5e-3 -8e-3 -4.616-3.104 4e-3zm-6.196-4.609 7e-3 4.619 3.072-6e-3 -9e-3 -4.616zm-18.522 4.613 3.133-3e-3 -8e-3 -4.564-3.12-0.03-1e-3 -0.02-9e-3 -1e-3zm-6.102 0.01 3.026-4e-3 -9e-3 -4.62-3.021 5e-3zm-6.21 0.011 3.105-6e-3 -7e-3 -4.617-3.104 4e-3zm-6.193-4.609 6e-3 4.616 3.07-5e-3 -8e-3 -4.615zm-18.521 4.612 3.13-4e-3 -6e-3 -4.563-3.122-0.03v-0.019h-9e-3zm-6.102 0.011 3.024-7e-3 -7e-3 -4.617-3.024 7e-3zm-6.211 9e-3 3.105-5e-3 -7e-3 -4.616-3.104 4e-3zm-6.196-6.122 3.069-4e-3 -4e-3 -3.12 3.116-1e-3 6e-3 3.114 3.105-0.01-5e-3 -3.108 3.106-2e-3 4e-3 3.104 3.026-5e-3 -5e-3 -3.105 3.092-6e-3 5e-3 3.114 3.102-0.011-4e-3 -3.076h0.013l-1e-3 -0.033 3.101-4e-3 3e-3 3.115 3.016-0.011v0.039h0.026l-6e-3 -3.115 3.073-3e-3 4e-3 3.112 3.115-5e-3 -3e-3 -3.114 3.06-1e-3 0.013 3.112 3.07-4e-3 -5e-3 -3.119 3.118-3e-3 6e-3 3.116 3.102-9e-3 -5e-3 -3.112 3.107-4e-3 6e-3 3.109 3.024-2e-3 -6e-3 -3.109 3.093-6e-3 6e-3 3.116 3.101-0.012-3e-3 -3.076 0.013-2e-3 1e-3 -0.031 3.098-2e-3 4e-3 3.112 3.015-0.01 1e-3 0.038 0.025 2e-3 -5e-3 -3.117 3.073-5e-3 1e-3 3.116 3.118-7e-3 -4e-3 -3.112 3.061-6e-3 0.014 3.114 3.07-5e-3 -6e-3 -3.112 3.118-7e-3 6e-3 3.114 3.102-0.01-3e-3 -3.107h3.105l5e-3 3.103 3.024-4e-3 -6e-3 -3.107 3.094-6e-3 4e-3 3.114 3.104-0.012-4e-3 -3.074 0.013-1e-3 -2e-3 -0.033 3.102-3e-3 4e-3 3.115 3.014-0.012-1e-3 0.038 0.027-1e-3 -6e-3 -3.115 3.071-4e-3 4e-3 3.115 3.116-4e-3 -2e-3 -3.117 3.062-2e-3 0.012 3.114 3.068-3e-3 -3e-3 -3.119 3.117-2e-3 5e-3 3.115 3.104-9e-3 -3e-3 -3.114 3.104-1e-3 6e-3 3.109 3.025-4e-3 -6e-3 -3.109 3.093-6e-3 4e-3 3.115 3.103-0.014-3e-3 -3.074h0.013l-2e-3 -0.031 3.1-4e-3 5e-3 3.113 3.015-0.01v0.038h0.027l-6e-3 -3.116 3.071-2e-3 4e-3 3.112 3.117-3e-3 -4e-3 -3.116h3.059l0.014 3.111 3.069-2e-3 -4e-3 -3.118 3.118-4e-3 5e-3 3.114 3.103-0.01-5e-3 -3.107 3.108-6e-3 4e-3 3.108 3.027-4e-3 -7e-3 -3.108 3.094-6e-3 4e-3 3.114 3.102-8e-3 -2e-3 -3.078h0.01l2e-3 -0.034 3.1-3e-3 4e-3 3.115 3.014-0.01v0.038l0.027-1e-3 -6e-3 -3.117 3.072-4e-3 3e-3 3.115 3.118-5e-3 -4e-3 -3.115 3.059-1e-3 0.011 3.115 3.074-6e-3 -8e-3 -3.117 3.119-4e-3 5e-3 3.118 3.103-0.011-4e-3 -3.112h3.107l5e-3 3.105 3.025-4e-3 -6e-3 -3.106 3.092-4e-3 5e-3 3.11 3.116-0.011-5e-3 -3.107 3.1-3e-3v0.13l0.011 2.984 3.01-0.012-2e-3 0.05 0.063-2e-3 -6e-3 -3.113 3.071-5e-3 4e-3 3.114 3.118-5e-3 -2e-3 -3.116 3.058-1e-3 0.015 3.113 3.067-5e-3 -4e-3 -3.115 3.118-6e-3 5e-3 3.116 3.102-8e-3 -3e-3 -3.11 3.108-3e-3 4e-3 3.107 3.022-3e-3 -4e-3 -3.109 3.094-5e-3 4e-3 3.111 3.118-9e-3 -5e-3 -3.11 3.099-2e-3 4e-3 3.116 3.014-0.012 3e-3 1.54-3.014 4e-3 8e-3 4.589 3.009-4e-3 4e-3 1.506-3.013 5e-3 6e-3 3.104-3.102 8e-3 -5e-3 -3.11-3.114 4e-3 4e-3 3.108-3.095 6e-3 -4e-3 -3.108-3.023 8e-3 4e-3 3.104-3.104 5e-3 -7e-3 -3.105-3.105-5e-3 7e-3 3.116-3.118 6e-3 -4e-3 -3.119-3.079 0.016 4e-3 3.105-3.06 6e-3 -8e-3 -3.119-3.123 0.015 7e-3 3.107-3.063 7e-3 -5e-3 -3.119-3.075 0.015v0.264l4e-3 2.845-3.077 2e-3 -1e-3 -0.043h-0.021l-6e-3 -3.074-3.087 0.014 1e-3 -0.043-0.032 2e-3 6e-3 3.105-3.092 7e-3 -5e-3 -3.108-3.022 6e-3 4e-3 3.105-3.108 4e-3 -4e-3 -3.106-3.107-5e-3 8e-3 3.117-3.118 6e-3 -6e-3 -3.117-3.08 0.013 6e-3 3.108-3.058 4e-3 -7e-3 -3.12-3.123 0.018 5e-3 3.109-3.066 4e-3 -3e-3 -3.119-3.04 0.016 5e-3 3.074h-0.035v0.033l-3.076 3e-3 6e-3 -3.116-3.116 0.015 3e-3 3.075-3.092 6e-3 -5e-3 -3.108-3.023 4e-3 6e-3 3.106-3.108 5e-3 -8e-3 -3.107-3.104-4e-3 8e-3 3.117-3.117 4e-3 -6e-3 -3.118-3.077 0.014 2e-3 3.108-3.058 4e-3 -7e-3 -3.117-3.124 0.016 6e-3 3.108-3.063 3e-3 -6e-3 -3.115-3.038 0.015 5e-3 3.073-0.036-1e-3 -1e-3 0.034-3.077 4e-3 8e-3 -3.117-3.116 0.015 4e-3 3.073-3.092 6e-3 -6e-3 -3.106-3.024 4e-3 6e-3 3.105-3.109 5e-3 -4e-3 -3.106-3.105-4e-3 9e-3 3.117-3.118 5e-3 -5e-3 -3.118-3.08 0.013 6e-3 3.108-3.063 5e-3 -4e-3 -3.119-3.123 0.014 3e-3 3.109-3.063 6e-3 -5e-3 -3.119-3.038 0.018 4e-3 3.072-0.035 1e-3v0.032l-3.076 6e-3 6e-3 -3.119-3.117 0.015 6e-3 3.075-3.094 5e-3 -5e-3 -3.107-3.023 6e-3 6e-3 3.105-3.108 5e-3 -6e-3 -3.108-3.103-3e-3 7e-3 3.116-3.12 6e-3 -3e-3 -3.118-3.081 0.015 6e-3 3.105-3.06 7e-3 -6e-3 -3.118-3.123 0.013 3e-3 3.109-3.062 7e-3 -4e-3 -3.121-3.041 0.016 6e-3 3.075h-0.037l2e-3 0.032-3.078 3e-3 8e-3 -3.117-3.116 0.015 4e-3 3.075-3.092 4e-3 -6e-3 -3.105-3.024 5e-3 5e-3 3.108-3.106 3e-3 -7e-3 -3.107-3.105-5e-3 9e-3 3.118-3.117 4e-3 -8e-3 -3.118-3.079 0.014 6e-3 3.108-3.061 6e-3 -5e-3 -3.119-3.123 0.014 4e-3 3.109-3.063 6e-3 -4e-3 -3.12-3.041 0.017 6e-3 3.074h-0.035v0.032l-3.077 4e-3 6e-3 -3.117-3.116 0.014 5e-3 3.075-3.091 4e-3 -7e-3 -3.106-3.024 6e-3 6e-3 3.105-3.109 4e-3 -5e-3 -3.105-3.104-7e-3 8e-3 3.118-3.118 4e-3 -5e-3 -3.115-3.08 0.015 7e-3 -1.5 3.071-4e-3 -7e-3 -4.619-3.07 5e-3zm175.89 6.025-8e-3 -4.617-3.038 4e-3 5e-3 4.579 3.014-5e-3v0.039zm21.654-0.031 3.025-4e-3 -8e-3 -4.621-3.024 7e-3zm-6.21 7e-3 3.104-2e-3 -8e-3 -4.617-3.103 3e-3zm-6.195-4.606 9e-3 4.616 3.069-4e-3 -6e-3 -4.619zm-3.062 4.62-6e-3 -4.617-3.118 6e-3 6e-3 4.617zm-40.152-4.592 6e-3 4.62 3.118-3e-3 -7e-3 -4.619zm-6.102 4.59 3.011-5e-3 1e-3 0.04 0.025 2e-3 -6e-3 -4.619-3.038 6e-3zm-30.926-4.562 6e-3 4.617 3.116-4e-3 -5e-3 -4.618zm-6.103 4.588 3.012-6e-3 1e-3 0.041 0.027-1e-3 -7e-3 -4.618-3.037 4e-3zm-30.925-4.565 6e-3 4.617 3.118-3e-3 -6e-3 -4.618zm-6.102 4.59 3.011-6e-3v0.037h0.028l-6e-3 -4.617-3.038 4e-3zm-30.925-4.566 5e-3 4.618 3.12-7e-3 -8e-3 -4.614zm-6.103 4.586 3.012-3e-3 1e-3 0.039 0.026-1e-3 -6e-3 -4.617-3.038 6e-3zm178.95-4.69 1e-3 -0.029-0.047 1e-3 5e-3 4.617 3.135-5e-3 -8e-3 -4.553z" fill-rule="evenodd"/></g><g transform="translate(372.16 275.53)"><path d="m0 0-3.067 6e-3 6e-3 4.563 3.002-2e-3 2e-3 0.051 0.064-2e-3zm6.195 4.608-6e-3 -4.618-3.119 6e-3 8e-3 4.616zm6.138-9e-3 -4e-3 -4.62-3.07 4e-3 6e-3 4.618zm6.223-0.01-6e-3 -4.617-3.107 4e-3 9e-3 4.619zm6.13-8e-3 -6e-3 -4.621-3.023 8e-3 6e-3 4.615zm6.211-0.011-8e-3 -4.616-3.132 3e-3 7e-3 4.619zm-77.226 0.042 3.132-4e-3 -5e-3 -4.564-3.121-0.031-3e-3 -0.019-8e-3 1e-3zm-6.102 0.01 3.027-4e-3 -8e-3 -4.618-3.026 5e-3zm-6.209 8e-3 3.103-3e-3 -5e-3 -4.617-3.105 5e-3zm-6.194-4.605 7e-3 4.614 3.071-5e-3 -9e-3 -4.615zm-18.522 4.611 3.131-4e-3 -5e-3 -4.565-3.123-0.03v-0.018h-9e-3zm-6.103 0.01 3.027-6e-3 -9e-3 -4.617-3.023 4e-3zm-6.208 9e-3 3.103-6e-3 -7e-3 -4.615-3.104 4e-3zm-6.195-4.609 8e-3 4.615 3.07-2e-3 -8e-3 -4.617zm-18.522 4.613 3.132-4e-3 -8e-3 -4.563-3.12-0.032v-0.018h-0.011zm-6.1 0.01 3.024-4e-3 -9e-3 -4.619-3.023 4e-3zm-6.21 0.01 3.104-5e-3 -8e-3 -4.616-3.104 4e-3zm-6.196-4.609 7e-3 4.618 3.072-5e-3 -9e-3 -4.616zm-18.522 4.613 3.133-3e-3 -8e-3 -4.564-3.12-0.03-1e-3 -0.02-9e-3 -1e-3zm-6.102 0.01 3.026-5e-3 -9e-3 -4.619-3.021 5e-3zm-6.21 0.011 3.105-6e-3 -7e-3 -4.617-3.104 4e-3zm-6.193-4.609 6e-3 4.616 3.07-5e-3 -8e-3 -4.615zm-18.521 4.612 3.13-4e-3 -6e-3 -4.563-3.122-0.03v-0.019h-9e-3zm-6.102 0.011 3.024-7e-3 -7e-3 -4.617-3.024 7e-3zm-6.211 9e-3 3.105-5e-3 -7e-3 -4.616-3.104 4e-3zm-6.196-6.123 3.069-3e-3 -4e-3 -3.12 3.116-2e-3 6e-3 3.115 3.105-0.01-5e-3 -3.108 3.106-2e-3 4e-3 3.104 3.026-5e-3 -5e-3 -3.105 3.092-6e-3 5e-3 3.114 3.102-0.011-4e-3 -3.076h0.013l-1e-3 -0.033 3.101-4e-3 3e-3 3.115 3.016-0.011v0.039h0.026l-6e-3 -3.116 3.073-2e-3 4e-3 3.112 3.115-5e-3 -3e-3 -3.114 3.06-1e-3 0.013 3.112 3.07-4e-3 -5e-3 -3.119 3.118-3e-3 6e-3 3.116 3.102-9e-3 -5e-3 -3.112 3.107-4e-3 6e-3 3.109 3.024-2e-3 -6e-3 -3.109 3.093-6e-3 6e-3 3.116 3.101-0.012-3e-3 -3.076 0.013-2e-3 1e-3 -0.031 3.098-2e-3 4e-3 3.112 3.015-0.01 1e-3 0.038 0.025 2e-3 -5e-3 -3.117 3.073-5e-3 1e-3 3.116 3.118-7e-3 -4e-3 -3.112 3.061-6e-3 0.014 3.114 3.07-5e-3 -6e-3 -3.113 3.118-6e-3 6e-3 3.114 3.102-0.01-3e-3 -3.107h3.105l5e-3 3.103 3.024-4e-3 -6e-3 -3.107 3.094-6e-3 4e-3 3.114 3.104-0.012-4e-3 -3.074 0.013-1e-3 -2e-3 -0.033 3.102-3e-3 4e-3 3.115 3.014-0.012-1e-3 0.038 0.027-1e-3 -6e-3 -3.115 3.071-4e-3 4e-3 3.115 3.116-4e-3 -2e-3 -3.117 3.062-2e-3 0.012 3.114 3.068-3e-3 -3e-3 -3.119 3.117-2e-3 5e-3 3.116 3.104-0.01-3e-3 -3.114 3.104-1e-3 6e-3 3.109 3.025-4e-3 -6e-3 -3.109 3.093-6e-3 4e-3 3.115 3.103-0.014-3e-3 -3.074h0.013l-2e-3 -0.031 3.1-4e-3 5e-3 3.113 3.015-0.01v0.038l0.027-1e-3 -6e-3 -3.115 3.071-2e-3 4e-3 3.112 3.117-3e-3 -4e-3 -3.117h3.059l0.014 3.112 3.069-2e-3 -4e-3 -3.118 3.118-4e-3 5e-3 3.114 3.103-0.01-5e-3 -3.107 3.108-6e-3 4e-3 3.108 3.027-5e-3 -7e-3 -3.107 3.094-6e-3 4e-3 3.113 3.102-7e-3 -2e-3 -3.078h0.01l2e-3 -0.034 3.1-3e-3 4e-3 3.115 3.014-0.01v0.038l0.027-1e-3 -6e-3 -3.117 3.072-4e-3 3e-3 3.115 3.118-5e-3 -4e-3 -3.115 3.059-1e-3 0.011 3.115 3.074-6e-3 -8e-3 -3.117 3.119-4e-3 5e-3 3.118 3.103-0.011-4e-3 -3.112 3.107-1e-3 5e-3 3.106 3.025-4e-3 -6e-3 -3.106 3.092-4e-3 5e-3 3.11 3.116-0.011-5e-3 -3.107 3.1-3e-3v0.13l0.011 2.984 3.01-0.012-2e-3 0.05 0.063-2e-3 -6e-3 -3.113 3.071-5e-3 4e-3 3.114 3.118-5e-3 -2e-3 -3.116 3.058-1e-3 0.015 3.113 3.067-5e-3 -4e-3 -3.115 3.118-6e-3 5e-3 3.116 3.102-8e-3 -3e-3 -3.11 3.108-3e-3 4e-3 3.107 3.022-3e-3 -4e-3 -3.109 3.094-5e-3 4e-3 3.111 3.118-9e-3 -5e-3 -3.11 3.099-2e-3 4e-3 3.116 3.014-0.012 3e-3 1.54-3.014 4e-3 8e-3 4.589 3.009-4e-3 4e-3 1.506-3.013 5e-3 6e-3 3.104-3.102 8e-3 -5e-3 -3.11-3.114 4e-3 4e-3 3.108-3.095 6e-3 -4e-3 -3.108-3.023 8e-3 4e-3 3.104-3.104 5e-3 -7e-3 -3.105-3.105-5e-3 7e-3 3.116-3.118 6e-3 -4e-3 -3.119-3.079 0.016 4e-3 3.105-3.06 6e-3 -8e-3 -3.119-3.123 0.015 7e-3 3.107-3.063 7e-3 -5e-3 -3.12-3.075 0.016v0.264l4e-3 2.845-3.077 1e-3 -1e-3 -0.042h-0.021l-6e-3 -3.074-3.087 0.014 1e-3 -0.043-0.032 2e-3 6e-3 3.105-3.092 7e-3 -5e-3 -3.108-3.022 6e-3 4e-3 3.105-3.108 4e-3 -4e-3 -3.106-3.107-5e-3 8e-3 3.117-3.118 6e-3 -6e-3 -3.117-3.08 0.013 6e-3 3.108-3.058 4e-3 -7e-3 -3.12-3.123 0.018 5e-3 3.109-3.066 4e-3 -3e-3 -3.119-3.04 0.016 5e-3 3.074h-0.035v0.033l-3.076 3e-3 6e-3 -3.116-3.116 0.015 3e-3 3.075-3.092 6e-3 -5e-3 -3.108-3.023 4e-3 6e-3 3.106-3.108 5e-3 -8e-3 -3.107-3.104-4e-3 8e-3 3.117-3.117 4e-3 -6e-3 -3.118-3.077 0.014 2e-3 3.108-3.058 4e-3 -7e-3 -3.117-3.124 0.015 6e-3 3.109-3.063 3e-3 -6e-3 -3.115-3.038 0.015 5e-3 3.073-0.036-1e-3 -1e-3 0.034-3.077 4e-3 8e-3 -3.117-3.116 0.015 4e-3 3.073-3.092 6e-3 -6e-3 -3.106-3.024 4e-3 6e-3 3.105-3.109 5e-3 -4e-3 -3.107-3.105-3e-3 9e-3 3.117-3.118 5e-3 -5e-3 -3.119-3.08 0.014 6e-3 3.108-3.063 5e-3 -4e-3 -3.119-3.123 0.014 3e-3 3.109-3.063 6e-3 -5e-3 -3.119-3.038 0.018 4e-3 3.072-0.035 1e-3v0.032l-3.076 6e-3 6e-3 -3.119-3.117 0.015 6e-3 3.075-3.094 5e-3 -5e-3 -3.107-3.023 6e-3 6e-3 3.105-3.108 5e-3 -6e-3 -3.108-3.103-3e-3 7e-3 3.116-3.12 6e-3 -3e-3 -3.118-3.081 0.015 6e-3 3.105-3.06 7e-3 -6e-3 -3.118-3.123 0.013 3e-3 3.109-3.062 7e-3 -4e-3 -3.122-3.041 0.017 6e-3 3.075h-0.037l2e-3 0.032-3.078 3e-3 8e-3 -3.117-3.116 0.015 4e-3 3.075-3.092 4e-3 -6e-3 -3.105-3.024 5e-3 5e-3 3.108-3.106 3e-3 -7e-3 -3.107-3.105-5e-3 9e-3 3.118-3.117 4e-3 -8e-3 -3.118-3.079 0.014 6e-3 3.108-3.061 6e-3 -5e-3 -3.119-3.123 0.014 4e-3 3.109-3.063 6e-3 -4e-3 -3.12-3.041 0.016 6e-3 3.075h-0.035v0.032l-3.077 4e-3 6e-3 -3.117-3.116 0.014 5e-3 3.075-3.091 4e-3 -7e-3 -3.106-3.024 6e-3 6e-3 3.105-3.109 4e-3 -5e-3 -3.105-3.104-7e-3 8e-3 3.118-3.118 4e-3 -5e-3 -3.115-3.08 0.015 7e-3 -1.5 3.071-4e-3 -7e-3 -4.619-3.07 5e-3zm175.89 6.026-8e-3 -4.617-3.038 4e-3 5e-3 4.579 3.014-5e-3v0.039zm21.654-0.031 3.025-4e-3 -8e-3 -4.621-3.024 7e-3zm-6.21 7e-3 3.104-2e-3 -8e-3 -4.617-3.103 3e-3zm-6.195-4.606 9e-3 4.616 3.069-4e-3 -6e-3 -4.619zm-3.062 4.62-6e-3 -4.617-3.118 6e-3 6e-3 4.617zm-40.152-4.592 6e-3 4.62 3.118-3e-3 -7e-3 -4.619zm-6.102 4.59 3.011-5e-3 1e-3 0.04 0.025 2e-3 -6e-3 -4.619-3.038 6e-3zm-30.926-4.562 6e-3 4.617 3.116-4e-3 -5e-3 -4.618zm-6.103 4.588 3.012-6e-3 1e-3 0.041 0.027-1e-3 -7e-3 -4.618-3.037 3e-3zm-30.925-4.565 6e-3 4.617 3.118-3e-3 -6e-3 -4.618zm-6.102 4.59 3.011-6e-3v0.037h0.028l-6e-3 -4.617-3.038 4e-3zm-30.925-4.566 5e-3 4.618 3.12-7e-3 -8e-3 -4.614zm-6.103 4.585 3.012-2e-3 1e-3 0.039 0.026-1e-3 -6e-3 -4.617-3.038 6e-3zm178.95-4.689 1e-3 -0.029-0.047 1e-3 5e-3 4.617 3.135-5e-3 -8e-3 -4.553z" fill-rule="evenodd"/></g><path d="m329.11 237.39h-89.397v48.721h89.397z" fill="#d6d8d9"/><g transform="translate(329.11 237.39)"><path d="m0 0h-89.397v48.721h89.397z" fill="none" stroke="#000"/></g><g transform="translate(114.69 422.49)"><path d="m0 0v228.07" fill="none" stroke="#000"/></g><g transform="translate(202.12 650.56)"><path d="m0 0v-228.07" fill="none" stroke="#000"/></g><g transform="translate(167.28 634.73)"><path d="m0 0v6.354h-1.559l2.577 4.376 2.398-4.376h-1.439v-6.354z"/></g><g transform="translate(181.03 634.73)"><path d="m0 0v6.354h-1.559l2.577 4.376 2.398-4.376h-1.439v-6.354z"/></g><g transform="translate(194.79 634.73)"><path d="m0 0v6.354h-1.559l2.577 4.376 2.398-4.376h-1.439v-6.354z"/></g><g transform="translate(122.32 645.46)"><path d="m0 0v-6.353h1.559l-2.577-4.377-2.398 4.377h1.439v6.353z"/></g><g transform="translate(136.08 645.46)"><path d="m0 0v-6.353h1.559l-2.577-4.377-2.398 4.377h1.439v6.353z"/></g><g transform="translate(149.83 645.46)"><path d="m0 0v-6.353h1.559l-2.577-4.377-2.398 4.377h1.439v6.353z"/></g><g transform="translate(241.73 126.31)"><path d="m0 0v228.07" fill="none" stroke="#000"/></g><g transform="translate(326.65 354.38)"><path d="m0 0v-228.07" fill="none" stroke="#000"/></g><g transform="translate(291.81 338.56)"><path d="m0 0v6.353h-1.559l2.576 4.377 2.399-4.377h-1.439v-6.353z"/></g><g transform="translate(305.57 338.56)"><path d="m0 0v6.353h-1.559l2.576 4.377 2.399-4.377h-1.439v-6.353z"/></g><g transform="translate(319.32 338.56)"><path d="m0 0v6.353h-1.559l2.577 4.377 2.398-4.377h-1.439v-6.353z"/></g><g transform="translate(249.36 349.29)"><path d="m0 0v-6.353h1.559l-2.577-4.377-2.398 4.377h1.439v6.353z"/></g><g transform="translate(263.11 349.29)"><path d="m0 0v-6.353h1.559l-2.577-4.377-2.398 4.377h1.439v6.353z"/></g><g transform="translate(276.86 349.29)"><path d="m0 0v-6.353h1.559l-2.576-4.377-2.399 4.377h1.44v6.353z"/></g><g transform="translate(227.67 576.42)"><path d="m0 0-2.172-2.168-3.226 3.231 2.126 2.122-0.036 0.037 0.045 0.045zm1.117 7.638 3.263-3.268-2.208-2.202-3.261 3.269zm4.345 4.337 3.263-3.267-2.173-2.169-3.261 3.268zm4.403 4.395 3.263-3.267-2.198-2.193-3.262 3.269zm4.339 4.333 3.263-3.27-2.141-2.135-3.262 3.267zm4.395 4.386 3.262-3.268-2.216-2.213-3.263 3.268zm-54.602-54.61 2.215 2.213 3.226-3.23-2.184-2.23 0.012-0.013-6e-3 -7e-3zm-4.32-4.31 2.142 2.137 3.263-3.269-2.141-2.136zm-4.393-4.387 2.195 2.193 3.264-3.268-2.198-2.193zm-1.117-7.639-3.261 3.267 2.172 2.17 3.261-3.268zm-16.354-9.846 2.217 2.213 3.224-3.23-2.184-2.229 0.013-0.014-7e-3 -7e-3zm-4.319-4.31 2.143 2.138 3.261-3.27-2.14-2.135zm-4.394-4.386 2.198 2.192 3.259-3.268-2.196-2.192zm-1.117-7.64-3.261 3.267 2.173 2.17 3.26-3.268zm-16.354-9.844 2.217 2.212 3.224-3.23-2.184-2.23 0.014-0.014-8e-3 -6e-3zm-4.317-4.311 2.141 2.137 3.261-3.27-2.14-2.135zm-4.396-4.387 2.198 2.193 3.26-3.267-2.197-2.194zm-1.117-7.639-3.261 3.267 2.172 2.17 3.261-3.268zm-16.352-9.846 2.216 2.213 3.223-3.23-2.184-2.229 0.014-0.014-6e-3 -7e-3zm-8.715-8.697 9.998 9.994 3.262-3.268-9.997-9.994zm-1.117-7.639-3.261 3.267 2.172 2.169 3.262-3.266zm-16.351-9.845 2.215 2.213 3.225-3.23-2.185-2.23 0.013-0.013-7e-3 -7e-3zm-4.32-4.31 2.142 2.136 3.261-3.268-2.14-2.136zm-4.395-4.388 2.198 2.194 3.26-3.268-2.196-2.193zm-0.047-8.71 2.172 2.169 2.202-2.206 2.206 2.202-2.201 2.206 2.2 2.189 2.197-2.201 2.198 2.197-2.195 2.199 2.14 2.136 2.195-2.199 2.189 2.184-2.2 2.204 2.201 2.187 2.174-2.176 9e-3 9e-3 0.023-0.023 2.192 2.191-2.201 2.203 2.14 2.126-0.028 0.027 0.018 0.019 2.201-2.206 2.174 2.17-2.201 2.203 2.206 2.202 2.2-2.204 2.165 2.165-2.193 2.208 2.172 2.17 2.201-2.206 2.208 2.202-2.201 2.205 2.2 2.189 2.199 2.195 2.14 2.137 2.195-2.2 2.19 2.185-2.199 2.203 2.199 2.188 2.174-2.176 9e-3 8e-3 0.024-0.022 2.192 2.191-2.201 2.203 2.138 2.126-0.026 0.027 0.017 0.018 2.202-2.206 2.174 2.171-2.203 2.203 2.208 2.202 2.201-2.204 2.164 2.164-2.193 2.209 2.173 2.169 2.2-2.206 2.206 2.203-2.199 2.206 2.2 2.188 2.197-2.2 2.195 2.197-2.195 2.198 2.142 2.137 2.194-2.201 2.19 2.185-2.2 2.204 2.201 2.188 2.174-2.177 0.01 9e-3 0.021-0.023 2.194 2.192-2.201 2.203 2.138 2.125-0.028 0.026 0.02 0.019 2.2-2.206 2.173 2.171-2.201 2.203 2.205 2.203 2.203-2.204 2.165 2.164-2.193 2.208 2.171 2.17 2.202-2.206 2.206 2.203-2.201 2.205 2.199 2.189 2.2-2.201 2.195 2.196-2.195 2.2 2.142 2.137 2.195-2.201 2.19 2.185-2.201 2.204 2.199 2.187 2.176-2.177 8e-3 0.01 0.023-0.024 2.192 2.193-2.199 2.202 2.137 2.126-0.027 0.027 0.02 0.019 2.2-2.206 2.173 2.17-2.201 2.202 2.205 2.204 2.203-2.205 2.163 2.164-2.193 2.209 2.172 2.17 2.203-2.206 2.206 2.202-2.201 2.206 2.199 2.188 2.197-2.2 2.198 2.196-2.195 2.199 2.142 2.137 2.195-2.2 2.189 2.185-2.2 2.203 2.2 2.188 2.175-2.176 7e-3 9e-3 0.024-0.024 2.194 2.192-2.201 2.203 2.137 2.125-0.027 0.027 0.02 0.019 2.2-2.206-0.028 4.374 2.208 2.202 2.17 2.169 2.172 2.169 2.208 2.203 2.2 2.188 2.196-2.201 2.198 2.197-2.195 2.199 2.141 2.137 2.195-2.201 2.188 2.185-2.199 2.204 2.21 2.198 2.197-2.201 2.192 2.191-0.092 0.093-2.103 2.115 2.134 2.121-0.036 0.035 0.045 0.044 2.2-2.206 2.173 2.17-2.201 2.203 2.206 2.203 2.202-2.205 2.163 2.164-2.191 2.21 2.171 2.168 2.203-2.205 2.205 2.202-2.201 2.205 2.2 2.189 2.197-2.2 2.199 2.196-2.196 2.2 2.139 2.136 2.197-2.199 2.189 2.185-2.2 2.202 2.209 2.199 2.197-2.201 2.192 2.192-2.198 2.203 2.137 2.125-1.09 1.09-2.132-2.129-3.241 3.247 2.13 2.128-1.062 1.067-2.134-2.129-2.193 2.199-2.196-2.19 2.196-2.199-2.204-2.201-2.195 2.198-2.19-2.186 2.195-2.198-2.142-2.135-2.193 2.198-2.199-2.195 2.195-2.2-2.192-2.199-2.201 2.206-2.206-2.201 2.203-2.206-2.186-2.17-2.195 2.199-2.166-2.161 2.2-2.209-2.217-2.198-2.195 2.199-2.168-2.163 2.202-2.207-2.183-2.165-0.187 0.187-2.008 2.013-2.177-2.176 0.03-0.03-0.016-0.016 2.171-2.176-2.192-2.173 0.032-0.03-0.024-0.022-2.195 2.198-2.188-2.183 2.195-2.2-2.141-2.135-2.193 2.199-2.199-2.196 2.194-2.2-2.191-2.199-2.204-2.201-2.188-2.17-2.195 2.2-2.165-2.161 2.203-2.208-2.219-2.199-2.197 2.2-2.167-2.164 2.203-2.208-2.159-2.138-2.171 2.175-0.026-0.025-0.023 0.023-2.176-2.174 2.208-2.198-2.211-2.194-2.174 2.175-2.187-2.184 2.194-2.199-2.141-2.136-2.193 2.199-2.199-2.196 2.192-2.199-2.189-2.2-2.201 2.208-2.206-2.203 2.203-2.207-2.186-2.168-2.197 2.199-2.164-2.161 2.202-2.208-2.219-2.199-2.195 2.2-2.168-2.164 2.202-2.207-2.159-2.139-2.171 2.175-0.025-0.025-0.024 0.023-2.178-2.174 2.213-2.197-2.214-2.195-2.171 2.175-2.19-2.183 2.195-2.2-2.142-2.136-2.193 2.199-2.2-2.195 2.195-2.2-2.192-2.2-2.198 2.208-2.208-2.201 2.203-2.207-2.186-2.17-2.195 2.2-2.167-2.162 2.203-2.208-2.217-2.198-2.197 2.198-2.168-2.163 2.202-2.207-2.159-2.139-2.171 2.176-0.025-0.025-0.022 0.022-2.178-2.173 2.211-2.198-2.214-2.196-2.171 2.177-2.19-2.185 2.195-2.199-2.142-2.135-2.192 2.199-2.2-2.196 2.195-2.2-2.19-2.199-2.201 2.207-2.207-2.201 2.202-2.207-2.186-2.169-2.195 2.199-2.167-2.161 2.204-2.208-2.218-2.199-2.197 2.2-2.169-2.164 2.205-2.207-2.161-2.139-2.171 2.176-0.025-0.026-0.022 0.023-2.178-2.175 2.21-2.197-2.211-2.194-2.167-2.209-2.141-2.134-2.199-2.197-2.19-2.2-2.201 2.208-2.206-2.202 2.201-2.207-2.186-2.17-2.195 2.201-2.166-2.162 2.202-2.208-2.216-2.199-2.197 2.2-2.169-2.164 2.204-2.207-2.16-2.139-2.171 2.176-0.025-0.026-0.022 0.023-2.179-2.174 2.211-2.197-2.213-2.195-2.171 2.175-2.189-2.183 2.194-2.2-2.141-2.136-2.193 2.2-2.2-2.197 2.194-2.199-2.19-2.2-2.201 2.208-2.206-2.202 2.203-2.207-2.187-2.169 1.065-1.053 2.173 2.169 3.262-3.268-2.173-2.168zm120.04 128.71 3.26-3.268-2.149-2.146-3.237 3.239 2.133 2.128-0.027 0.028zm15.323 15.3 2.142 2.136 3.263-3.269-2.142-2.136zm-13.025-13.02 10.828 10.824 3.26-3.267-10.827-10.825zm-23.047-29.561-3.263 3.268 2.206 2.202 3.263-3.268zm-7.559-1.076 2.131 2.128-0.027 0.028 0.018 0.019 3.263-3.267-2.152-2.147zm-18.625-25.106-3.263 3.268 2.205 2.202 3.264-3.267zm-7.559-1.076 2.132 2.128-0.028 0.028 0.019 0.019 3.264-3.268-2.151-2.146zm-18.625-25.105-3.263 3.267 2.206 2.203 3.262-3.268zm-7.559-1.075 2.132 2.128-0.028 0.026 0.02 0.02 3.263-3.267-2.151-2.147zm-18.625-25.106-3.263 3.267 2.208 2.202 3.261-3.267zm-7.558-1.077 2.131 2.128-0.027 0.028 0.019 0.019 3.262-3.267-2.15-2.146zm129.78 123.3 0.021-0.021-0.033-0.032-3.263 3.267 2.217 2.214 3.216-3.223z" fill-rule="evenodd"/></g><g transform="translate(227.67 620.68)"><path d="m0 0-2.172-2.168-3.226 3.231 2.126 2.123-0.036 0.036 0.045 0.045zm1.117 7.638 3.263-3.268-2.208-2.201-3.261 3.268zm4.345 4.337 3.263-3.267-2.173-2.169-3.261 3.268zm4.403 4.395 3.263-3.267-2.198-2.193-3.262 3.269zm4.339 4.333 3.263-3.27-2.141-2.135-3.262 3.267zm4.395 4.386 3.262-3.268-2.216-2.213-3.263 3.268zm-54.602-54.61 2.215 2.213 3.226-3.23-2.184-2.23 0.012-0.013-6e-3 -7e-3zm-4.32-4.31 2.142 2.137 3.263-3.269-2.141-2.136zm-4.393-4.387 2.195 2.193 3.264-3.268-2.198-2.193zm-1.117-7.639-3.261 3.267 2.172 2.17 3.261-3.268zm-16.354-9.846 2.217 2.213 3.224-3.23-2.184-2.229 0.013-0.014-7e-3 -7e-3zm-4.319-4.31 2.143 2.138 3.261-3.27-2.14-2.135zm-4.394-4.386 2.198 2.192 3.259-3.268-2.196-2.192zm-1.117-7.64-3.261 3.267 2.173 2.17 3.26-3.268zm-16.354-9.844 2.217 2.212 3.224-3.23-2.184-2.23 0.014-0.013-8e-3 -7e-3zm-4.317-4.311 2.141 2.137 3.261-3.27-2.14-2.135zm-4.396-4.387 2.198 2.193 3.26-3.267-2.197-2.194zm-1.117-7.639-3.261 3.267 2.172 2.17 3.261-3.268zm-16.352-9.846 2.216 2.214 3.223-3.231-2.184-2.229 0.014-0.014-6e-3 -6e-3zm-8.715-8.697 8.977 8.973 3.261-3.268-8.975-8.973zm-1.117-7.639-3.261 3.267 2.172 2.169 3.262-3.266zm-16.351-9.845 2.215 2.213 3.225-3.23-2.185-2.23 0.013-0.013-7e-3 -7e-3zm-4.32-4.31 2.142 2.136 3.261-3.268-2.14-2.136zm-4.395-4.388 2.198 2.194 3.26-3.267-2.196-2.194zm-0.047-8.71 2.172 2.169 2.202-2.206 2.206 2.202-2.201 2.206 2.2 2.189 2.197-2.201 2.198 2.197-2.195 2.199 2.14 2.136 2.195-2.199 2.189 2.184-2.2 2.204 2.201 2.187 2.174-2.176 9e-3 9e-3 0.023-0.023 2.192 2.191-2.201 2.203 2.14 2.126-0.028 0.027 0.018 0.019 2.201-2.206 2.174 2.17-2.201 2.203 2.206 2.202 2.2-2.204 2.165 2.165-2.193 2.208 2.172 2.17 2.201-2.206 2.208 2.202-2.201 2.206 6.539 6.521 2.195-2.201 2.19 2.185-2.199 2.204 2.199 2.187 2.174-2.176 9e-3 9e-3 0.024-0.023 2.192 2.191-2.201 2.203 2.138 2.126-0.026 0.027 0.017 0.018 2.202-2.206 2.174 2.171-2.203 2.203 2.208 2.202 2.201-2.204 2.164 2.164-2.193 2.209 2.173 2.17 2.2-2.207 2.206 2.203-2.199 2.206 2.2 2.188 2.197-2.2 2.195 2.197-2.195 2.198 2.142 2.137 2.194-2.201 2.19 2.186-2.2 2.203 2.201 2.188 2.174-2.177 0.01 9e-3 0.021-0.023 2.194 2.192-2.201 2.203 2.138 2.125-0.028 0.026 0.02 0.019 2.2-2.206 2.173 2.171-2.201 2.203 2.205 2.203 2.203-2.204 2.165 2.164-2.193 2.208 2.171 2.17 2.202-2.206 2.206 2.203-2.201 2.205 2.199 2.189 2.2-2.201 2.195 2.196-2.195 2.2 2.142 2.137 2.195-2.201 2.19 2.185-2.201 2.204 2.199 2.187 2.176-2.176 8e-3 9e-3 0.023-0.024 2.192 2.193-2.199 2.202 2.137 2.126-0.027 0.027 0.02 0.019 2.2-2.206 2.173 2.17-2.201 2.202 2.205 2.204 2.203-2.205 2.163 2.164-2.193 2.209 2.172 2.17 2.203-2.206 2.206 2.202-2.201 2.206 2.199 2.188 2.197-2.2 2.198 2.196-2.195 2.199 2.142 2.137 2.195-2.2 2.189 2.185-2.2 2.203 2.2 2.188 2.175-2.176 7e-3 9e-3 0.024-0.024 2.194 2.192-2.201 2.203 2.137 2.126-0.027 0.026 0.02 0.019 2.2-2.206-0.028 4.374 2.208 2.203 2.17 2.168 2.172 2.169 2.208 2.203 2.2 2.188 2.196-2.201 2.198 2.197-2.195 2.199 2.141 2.137 2.195-2.201 2.188 2.185-2.199 2.204 2.21 2.198 2.197-2.201 2.192 2.191-0.092 0.093-2.103 2.115 2.134 2.121-0.036 0.035 0.045 0.044 2.2-2.206 2.173 2.17-2.201 2.203 2.206 2.203 2.202-2.205 2.163 2.164-2.191 2.21 2.171 2.168 2.203-2.205 2.205 2.202-2.201 2.205 2.2 2.189 2.197-2.2 2.199 2.196-2.196 2.2 2.139 2.136 2.197-2.199 2.189 2.185-2.2 2.202 2.209 2.199 2.197-2.201 2.192 2.192-2.198 2.203 2.137 2.125-1.09 1.09-2.132-2.129-3.241 3.247 2.13 2.128-1.062 1.067-2.134-2.129-2.193 2.199-2.196-2.19 2.196-2.199-2.204-2.201-2.195 2.198-2.19-2.185 2.195-2.199-2.142-2.135-2.193 2.198-2.199-2.195 2.195-2.2-2.192-2.199-2.201 2.206-2.206-2.201 2.203-2.206-2.186-2.17-2.195 2.199-2.166-2.161 2.2-2.209-2.217-2.198-2.195 2.199-2.168-2.163 2.202-2.207-2.183-2.165-0.187 0.187-2.008 2.013-2.177-2.176 0.03-0.03-0.016-0.016 2.171-2.176-2.192-2.173 0.032-0.03-0.024-0.022-2.195 2.198-2.188-2.183 2.195-2.2-2.141-2.135-2.193 2.199-2.199-2.196 2.194-2.2-2.191-2.199-2.204-2.201-2.188-2.17-2.195 2.2-2.165-2.161 2.203-2.208-2.219-2.199-2.197 2.2-2.167-2.164 2.203-2.207-2.159-2.139-2.171 2.175-0.026-0.025-0.023 0.023-2.176-2.174 2.208-2.197-2.211-2.195-2.174 2.175-2.187-2.184 2.194-2.199-2.141-2.135-2.193 2.198-2.199-2.196 2.192-2.199-2.189-2.2-2.201 2.208-2.206-2.203 2.203-2.207-2.186-2.168-2.197 2.199-2.164-2.16 2.202-2.209-2.219-2.199-2.195 2.2-2.168-2.164 2.202-2.207-2.159-2.139-2.171 2.176-0.025-0.026-0.024 0.023-2.178-2.174 2.213-2.197-2.214-2.195-2.171 2.175-2.19-2.183 2.195-2.2-2.142-2.136-2.193 2.2-2.2-2.196 2.195-2.2-2.192-2.2-2.198 2.208-2.208-2.201 2.203-2.207-2.186-2.17-2.195 2.2-2.167-2.162 2.203-2.208-2.217-2.198-2.197 2.198-2.168-2.163 2.202-2.207-2.159-2.139-2.171 2.176-0.025-0.025-0.022 0.022-2.178-2.173 2.211-2.198-2.214-2.195-2.171 2.176-2.19-2.185 2.195-2.199-2.142-2.135-2.192 2.199-2.2-2.196 2.195-2.2-2.19-2.199-2.201 2.207-2.207-2.201 2.202-2.207-2.186-2.169-2.195 2.199-2.167-2.161 2.204-2.208-2.218-2.199-2.197 2.2-2.169-2.164 2.205-2.207-2.161-2.139-2.171 2.176-0.025-0.026-0.022 0.023-2.178-2.175 2.21-2.197-2.211-2.194-2.167-2.209-2.141-2.134-2.199-2.197-2.19-2.2-2.201 2.208-2.206-2.202 2.201-2.207-2.186-2.169-2.195 2.2-2.166-2.162 2.202-2.208-2.216-2.199-2.197 2.2-2.169-2.164 2.204-2.207-2.16-2.139-2.171 2.176-0.025-0.026-0.022 0.023-2.179-2.174 2.211-2.197-2.213-2.195-2.171 2.176-2.189-2.184 2.194-2.2-2.141-2.136-2.193 2.2-2.2-2.197 2.194-2.199-2.19-2.2-2.201 2.208-2.206-2.202 2.203-2.207-2.187-2.169 1.065-1.053 2.173 2.169 3.262-3.267-2.173-2.169zm120.04 128.71 3.26-3.268-2.149-2.146-3.237 3.239 2.133 2.128-0.027 0.028zm15.323 15.3 2.142 2.136 3.263-3.269-2.142-2.136zm-14.062-14.057 11.865 11.861 3.26-3.267-11.864-11.862zm2.154 2.165 3.262-3.268-1.244-1.24-3.263 3.269zm-24.164-30.689-3.263 3.268 2.206 2.202 3.263-3.268zm-7.559-1.076 2.131 2.128-0.027 0.028 0.018 0.019 3.263-3.267-2.152-2.147zm-18.625-25.106-3.263 3.268 2.205 2.202 3.264-3.267zm-7.559-1.076 2.132 2.128-0.028 0.028 0.019 0.02 3.264-3.269-2.151-2.146zm-18.625-25.105-3.263 3.267 2.206 2.203 3.262-3.268zm-7.559-1.075 2.132 2.128-0.028 0.026 0.02 0.02 3.263-3.267-2.151-2.147zm-18.625-25.106-3.263 3.267 2.208 2.202 3.261-3.267zm-7.558-1.077 2.131 2.128-0.027 0.028 0.019 0.019 3.262-3.267-2.15-2.146zm129.78 123.3 0.021-0.021-0.033-0.032-3.263 3.267 2.217 2.214 3.216-3.223z" fill-rule="evenodd"/></g><g fill="black" font-family="Helvetica"><text transform="matrix(1 0 0 -1 247.23 112.35)" font-size="10px" font-weight="bold"><tspan x="0 7.2199998 10 15.56 18.34 25.559999 28.34 34.450001 40.560001 43.889999 46.669998 52.23 58.34 64.449997 67.230003" y="0">C – Right angle</tspan></text><g><text transform="matrix(1 0 0 -1 384.26 159.46)" font-size="8px"><tspan x="0 4.448 8.8959999 11.12 15.568 18.232 22.68 24.455999 26.68 30.68 32.456001 36.903999 41.352001 44.015999 48.464001 52.911999 56.911999 61.366402 65.366402 67.590401 71.590401 76.038399 80.486397 82.262398 84.038399 86.262398 90.710403 95.158401 97.382401 99.158401 103.6064" y="0">Lateral clearances shall be in </tspan><tspan x="0 4.448 8.448 12.448 16.896 19.559999 24.007999 28.455999 32.903999 36.903999 41.352001 43.576 49.352001 51.127998 53.352001 57.799999 60.023998 64.912003 66.688004 71.136002 75.584 78.248001 82.695999 84.919998 89.367996 95.143997 97.807999 102.256" y="8.4960003">accordance with Figure 8D-1 </tspan><tspan x="0 4.448 8.8959999 13.344 15.568 21.344 25.792 30.24 34.688 36.911999 41.360001 44.023998 46.248001 50.695999 56.472" y="16.992001">and Chapter 8D.</tspan></text><text transform="matrix(1 0 0 -1 156.27 684.77)" font-size="9px"><tspan x="0 5.4990001 10.503 15.507 18.009001 20.007 25.011 29.511 34.514999 37.016998 39.014999 44.019001 49.022999 53.522999 56.025002 61.028999 63.530998 66.032997 68.535004 73.539001 78.542999 81.044998 86.049004 91.053001 93.555 98.558998 103.059 105.561 110.565 115.569 120.573 123.075 125.577 130.58099 135.58501 138.08701 143.091 145.089 150.093 154.593 159.597 167.09399 172.09801 177.10201 179.604 182.106 187.11 189.612 192.114 199.61099 204.61501 209.619 211.617 216.621 221.625 226.125 228.627 233.631 236.62801 239.13 241.12801 245.62801 247.62601 252.63 257.634 262.638 267.138" y="0">The locations of the gates and the placement of medians or islands </tspan><tspan x="0 5.0040002 10.008 12.51 19.007999 24.011999 29.016001 34.02 36.521999 39.023998 44.028 49.032001 51.534 56.537998 61.542 64.043999 69.047997 73.547997 76.050003 81.054001 84.051003 89.055 91.556999 94.058998 99.063004 101.565 106.569 111.573 114.075 119.079 124.083 126.585 131.589 134.586 142.08299 144.08099 149.08501 154.089 159.093 161.595 166.599 171.099 173.601 176.103 181.10699 186.11099 188.61301 195.11099 197.10899 202.11301 207.117 212.121 217.125 221.625 224.127 226.125 230.625 232.9821 237.4821 242.4861 247.4901 254.98711" y="9.9989996">between the gates are to be determined by the Diagnostic Team.</tspan></text><text transform="matrix(.70711 .70711 .70711 -.70711 216.29 584.46)" font-size="8.9999px"><tspan x="0 5.4989471 11.996885 17.999826 24.497765" y="0">TRACK</tspan></text></g></g><g transform="translate(211.82 580.32)"><path d="m0 0 1.873 1.872-0.381 0.38-1.451-1.451-4.069 4.069-0.42-0.42z"/></g><g clip-path="url(#g)"><g transform="translate(210.67 581.65)"><path d="m0 0c-0.614-0.613-1.353-0.545-2.111 0.214-0.759 0.758-0.83 1.543-0.209 2.163 0.494 0.492 1.027 0.545 1.429 0.165l-0.324-0.323c-0.247 0.209-0.609 0.173-0.891-0.112-0.381-0.378-0.295-0.952 0.312-1.559 0.582-0.583 1.137-0.682 1.532-0.287 0.288 0.287 0.325 0.616 0.104 0.882l0.339 0.338c0.383-0.398 0.33-0.97-0.181-1.481"/></g><g transform="translate(204.96 547.62)"><path d="m0 0-93.121-93.122v62.782l93.121 93.121z" fill="#d6d8d9"/></g></g><text transform="matrix(1 0 0 -1 116.57 408.55)" fill="black" font-family="Helvetica" font-size="10px" font-weight="bold"><tspan x="0 6.8559999 9.6359997 15.196 17.976 25.756001 31.861 35.191002 41.300999 46.861 52.421001 55.201 60.761002 66.871002 72.981003 75.761002" y="0">A – Obtuse angle</tspan></text><text transform="matrix(1 0 0 -1 363.66 116.37)" fill="black" font-family="Helvetica" font-size="8px"><tspan x="0 5.776 10.224 12.448 16.896 19.120001 21.344 23.568001 28.016001 30.24 34.688 39.136002 41.360001 45.807999 47.889599 50.113602 54.5616 57.225601 59.4496 61.673599 63.897598 68.345596 70.569603 74.569603 76.345596 83.009598 87.457603 89.233597 91.009598 93.233597 97.233597 99.457603 101.6816 106.1296 110.5776 112.8016 115.0256 116.8016 121.2496 125.6976 128.3616 132.8096 135.0336 137.2576 141.7056" y="0">Note: In an effort to simplify the figure to </tspan><tspan x="24 28 32.448002 36.896 42.672001 44.896 47.119999 51.119999 55.568001 57.344002 61.344002 65.792 67.568001 69.792 71.568001 76.015999 80.015999 84.463997 86.688004 88.463997 92.916801 97.364799 99.588799 104.0368 105.8128 110.2608 114.7088 118.7088 120.9328 123.1568 127.6048 130.2688" y="8.4960003">show typical location plans for </tspan><tspan x="24 26.224001 28 32.448002 36.448002 40.896 42.672001 47.119999 51.568001 54.231998 56.015202 57.791199 62.239201 66.687202 68.911201 71.135201 75.135201 76.911201 81.3592 85.807198 90.255203 92.031197 96.031197 98.255203 102.7032 107.1512 111.6056 113.8296 116.0536 120.5016 124.9496 127.6136 130.2776" y="16.992001">flashing-light signals and four- </tspan><tspan x="24 28.448 32.896 37.344002 41.792 44.456001 48.903999 53.352001 55.576 57.799999 62.248001 66.695999 68.919998 73.367996 77.367996 79.592003 81.816002 86.264 90.711998 92.935997 95.160004 99.608002 101.384 103.16 105.384 107.608 110.272 114.72 116.8032 119.0272 120.8032 124.8032 129.25121 133.25121 137.6992 142.1472 144.3712 147.0352 151.4832 153.2592" y="25.488001">quadrant gates, not all traffic control </tspan><tspan x="24 28.448 32.896 36.896 38.672001 42.672001 47.119999 51.119999 53.344002 57.792 60.456001 64.903999 67.127998 71.127998 75.575996 80.024002 85.800003 90.248001 92.472 96.919998 101.368 103.592 105.816 110.264 112.04 116.04 118.264 120.488 122.264 126.712 131.16 133.82401 138.272" y="33.984001">devices are shown on this figure.</tspan></text><g transform="translate(331.53 291.95)"><path d="M 0,0 -46.944,4.231 0,4.246" fill="#fff" stroke="#000"/></g><g transform="translate(331.53 289.65)"><path d="m0 0h8.046v8.045h-8.046z" fill="none" stroke="#000"/></g><g transform="translate(159.22 281.77)"><path d="m0 0 2e-3 -1.498 249.03-0.184 4e-3 1.506z" fill-rule="evenodd"/></g><g transform="translate(159.22 275.64)"><path d="m0 0 2e-3 -1.5 249.03-0.18 2e-3 1.541z" fill-rule="evenodd"/></g><g transform="translate(159.22 250.2)"><path d="m0 0 2e-3 -1.498 249.03-0.184 4e-3 1.506z" fill-rule="evenodd"/></g><g transform="translate(159.22 244.07)"><path d="m0 0 2e-3 -1.5 249.03-0.18 2e-3 1.541z" fill-rule="evenodd"/></g><g transform="translate(245.22 259.58)"><path d="m0 0h2.646v0.539h-2.052v5.752h-0.593z"/></g><g clip-path="url(#f)"><g transform="translate(245.34 261.34)"><path d="m0 0c-0.868 0-1.343 0.572-1.343 1.645 0 1.072 0.506 1.677 1.382 1.677 0.696 0 1.112-0.342 1.127-0.894h-0.456c-0.027 0.324-0.309 0.552-0.71 0.552-0.538 0-0.882-0.464-0.882-1.322 0-0.826 0.32-1.287 0.882-1.287 0.406 0 0.664 0.205 0.696 0.551h0.478c-8e-3 -0.557-0.451-0.922-1.174-0.922"/></g></g><text transform="matrix(1 0 0 -1 250.13 259.51)" fill="black" font-family="Helvetica" font-size="9px"><tspan x="0 5.4990001 11.997 18 24.497999" y="0">TRACK</tspan></text><g clip-path="url(#e)"><g transform="translate(253.19 248.84)"><path d="m0 0c0.262 0.868 0.504 1.433 0.783 2.128l-2.648 1e-3c0.119-0.249 0.521-1.261 0.783-2.129 0.28-0.929 0.472-1.771 0.54-2.317 0.068 0.546 0.261 1.388 0.542 2.317"/><path d="m0 0c0.262 0.868 0.504 1.433 0.783 2.128l-2.648 1e-3c0.119-0.249 0.521-1.261 0.783-2.129 0.28-0.929 0.472-1.771 0.54-2.317 0.068 0.546 0.261 1.388 0.542 2.317z" fill="none" stroke="#d6d8d9" stroke-miterlimit="8"/></g><g transform="translate(252.65 258.47)"><path d="m0 0-2e-3 -8.053" fill="none" stroke="#000" stroke-width=".75"/></g><g transform="translate(253.19 248.84)"><path d="m0 0c0.262 0.868 0.504 1.433 0.783 2.128l-2.648 1e-3c0.119-0.249 0.521-1.261 0.783-2.129 0.28-0.929 0.472-1.771 0.54-2.317 0.068 0.546 0.261 1.388 0.542 2.317"/></g><g transform="translate(259.41 275.28)"><path d="m0 0c-0.262-0.868-0.504-1.433-0.783-2.129h2.648c-0.118 0.249-0.521 1.261-0.783 2.129-0.28 0.929-0.472 1.772-0.54 2.317-0.068-0.545-0.261-1.388-0.542-2.317"/><path d="m0 0c-0.262-0.868-0.504-1.433-0.783-2.129h2.648c-0.118 0.249-0.521 1.261-0.783 2.129-0.28 0.929-0.472 1.772-0.54 2.317-0.068-0.545-0.261-1.388-0.542-2.317z" fill="none" stroke="#d6d8d9" stroke-miterlimit="8"/><path d="m0 0c-0.262-0.868-0.504-1.433-0.783-2.129h2.648c-0.118 0.249-0.521 1.261-0.783 2.129-0.28 0.929-0.472 1.772-0.54 2.317-0.068-0.545-0.261-1.388-0.542-2.317"/></g><g transform="translate(259.95 266.69)"><path d="m0 0 2e-3 7.095" fill="none" stroke="#000" stroke-width=".75"/></g><g transform="translate(219.52 277.84)"><path d="m0 0h132.34" fill="none" stroke="#000" stroke-dasharray="25, 2, 1, 2" stroke-width=".5"/></g><g transform="translate(216.5 246.25)"><path d="m0 0h145.25" fill="none" stroke="#000" stroke-dasharray="25, 2, 1, 2" stroke-width=".5"/></g><g transform="translate(235.52 292.08)"><path d="m0 0 48.569 4.106h-48.172" fill="#fff" stroke="#000"/></g><g transform="translate(230.07 292.78)"><path d="m0 0c-0.18-0.406-0.908-2.045-0.908-2.045l2.453-1.086 0.941 2.123h1.86l0.941-2.123 2.451 1.086s-0.724 1.639-0.906 2.045v4.184c0.061 0.261 0.502 2.162 0.502 2.162l-2.615 0.603-0.49-2.123h-1.625l-0.493 2.123-2.613-0.603s0.44-1.901 0.502-2.162z"/></g><g transform="translate(155.29 492.09)"><path d="m0 0c0 1.924 1.508 3.498 3.352 3.498 1.842 0 3.353-1.574 3.353-3.498v-52.837c0-1.924-1.511-3.497-3.353-3.497-1.844 0-3.352 1.573-3.352 3.497z" fill="#fff"/><path d="m0 0c0 1.924 1.508 3.498 3.352 3.498 1.842 0 3.353-1.574 3.353-3.498v-52.837c0-1.924-1.511-3.497-3.353-3.497-1.844 0-3.352 1.573-3.352 3.497z" fill="none" stroke="#000"/></g><g transform="translate(161.91 573.46)"><path d="m0 0c0-1.924-1.508-3.498-3.352-3.498-1.842 0-3.353 1.574-3.353 3.498v52.779c0 1.925 1.511 3.497 3.353 3.497 1.844 0 3.352-1.572 3.352-3.497z" fill="#fff"/><path d="m0 0c0-1.924-1.508-3.498-3.352-3.498-1.842 0-3.353 1.574-3.353 3.498v52.779c0 1.925 1.511 3.497 3.353 3.497 1.844 0 3.352-1.572 3.352-3.497z" fill="none" stroke="#000"/></g><g transform="translate(72.78 474.42)"><path d="m0 0 1.062-1.058 176.11 176.07-1.062 1.068z" fill-rule="evenodd"/></g><g transform="translate(77.111 470.08)"><path d="m0 0 1.064-1.059 176.11 176.07-1.09 1.09z" fill-rule="evenodd"/></g><g transform="translate(72.78 430.16)"><path d="m0 0 1.062-1.058 176.11 176.07-1.062 1.068z" fill-rule="evenodd"/></g><g transform="translate(77.111 425.82)"><path d="m0 0 1.064-1.059 176.11 176.07-1.09 1.089z" fill-rule="evenodd"/></g><g transform="translate(209.55 500.55)"><path d="m0 0-50.663-4 50.267-0.107" fill="#fff" stroke="#000"/></g><g transform="translate(215 500.68)"><path d="m0 0c0.18 0.408 0.907 2.045 0.907 2.045l-2.452 1.087-0.941-2.124h-1.86l-0.941 2.124-2.452-1.087s0.724-1.637 0.907-2.045v-4.183c-0.062-0.261-0.502-2.162-0.502-2.162l2.614-0.603 0.491 2.123h1.625l0.493-2.123 2.612 0.603s-0.439 1.901-0.501 2.162z"/></g><g transform="translate(109.89 430.53)"><path d="M 0,0 48.495,4.23 0,4.246" fill="#fff" stroke="#000"/></g><path d="m109.9 428.74h-8.045v8.046h8.045z" fill="#fff"/><g transform="translate(109.89 428.74)"><path d="m0 0h-8.045v8.046h8.045z" fill="none" stroke="#000"/></g><g transform="translate(123.58 494.36)"><path d="m0 0 1.872 1.871-0.379 0.383-1.452-1.453-4.069 4.07-0.421-0.422z"/></g><g transform="translate(122.42 495.69)"><path d="m0 0c-0.615-0.613-1.354-0.545-2.114 0.215-0.757 0.758-0.827 1.541-0.208 2.16 0.494 0.494 1.028 0.549 1.43 0.166l-0.324-0.322c-0.25 0.209-0.609 0.172-0.893-0.112-0.379-0.379-0.295-0.951 0.312-1.56 0.584-0.582 1.138-0.682 1.534-0.285 0.287 0.285 0.324 0.617 0.103 0.881l0.338 0.339c0.386-0.4 0.333-0.972-0.178-1.482"/></g></g><text transform="matrix(.70711 .70711 .70711 -.70711 126.44 497.84)" fill="black" font-family="Helvetica" font-size="8.9999px"><tspan x="0 5.4989471 11.996885 17.999826 24.497765" y="0">TRACK</tspan></text><g transform="translate(207.3 634.96)"><path d="M 0,0 -48.495,-4.23 0,-4.246" fill="#fff" stroke="#000"/></g><path d="m207.3 636.75h8.045v-8.046h-8.045z" fill="#fff"/><g transform="translate(207.3 636.75)"><path d="m0 0h8.045v-8.046h-8.045z" fill="none" stroke="#000"/></g><g transform="translate(107.64 565)"><path d="m0 0 50.663 4-50.267 0.106" fill="#fff" stroke="#000"/></g><g clip-path="url(#d)"><g transform="translate(102.19 564.87)"><path d="m0 0c-0.18-0.408-0.907-2.045-0.907-2.045l2.452-1.087 0.941 2.124h1.86l0.941-2.124 2.452 1.087s-0.724 1.637-0.907 2.045v4.183c0.062 0.261 0.502 2.162 0.502 2.162l-2.614 0.603-0.491-2.123h-1.625l-0.493 2.123-2.612-0.603s0.439-1.901 0.501-2.162z"/></g><g transform="translate(204.96 547.62)"><path d="m0 0-93.121-93.122v62.782l93.121 93.121z" fill="none" stroke="#000"/></g><g transform="translate(199.55 592.25)"><path d="m0 0c0.429-0.799 0.658-1.368 0.954-2.058l1.87 1.876c-0.26 0.092-1.261 0.521-2.06 0.948-0.856 0.457-1.588 0.916-2.024 1.253 0.339-0.434 0.8-1.165 1.26-2.019"/><path d="m0 0c0.429-0.799 0.658-1.368 0.954-2.058l1.87 1.876c-0.26 0.092-1.261 0.521-2.06 0.948-0.856 0.457-1.588 0.916-2.024 1.253 0.339-0.434 0.8-1.165 1.26-2.019z" fill="none" stroke="#d6d8d9"/><path d="m0 0c0.429-0.799 0.658-1.368 0.954-2.058l1.87 1.876c-0.26 0.092-1.261 0.521-2.06 0.948-0.856 0.457-1.588 0.916-2.024 1.253 0.339-0.434 0.8-1.165 1.26-2.019"/></g><g transform="translate(207.04 585.54)"><path d="m0 0-6.857 6.836" fill="none" stroke="#000" stroke-width=".75"/></g><g transform="translate(132.47 487.98)"><path d="m0 0c-0.429 0.798-0.659 1.368-0.955 2.057l-1.869-1.876c0.26-0.092 1.261-0.52 2.06-0.948 0.857-0.457 1.589-0.915 2.024-1.252-0.339 0.434-0.8 1.165-1.26 2.019"/><path d="m0 0c-0.429 0.798-0.659 1.368-0.955 2.057l-1.869-1.876c0.26-0.092 1.261-0.52 2.06-0.948 0.857-0.457 1.589-0.915 2.024-1.252-0.339 0.434-0.8 1.165-1.26 2.019z" fill="none" stroke="#d6d8d9"/><path d="m0 0c-0.429 0.798-0.659 1.368-0.955 2.057l-1.869-1.876c0.26-0.092 1.261-0.52 2.06-0.948 0.857-0.457 1.589-0.915 2.024-1.252-0.339 0.434-0.8 1.165-1.26 2.019"/></g><g transform="translate(124.85 494.81)"><path d="m0 0 6.181-6.16" fill="none" stroke="#000" stroke-width=".75"/></g><g transform="translate(457.48 422.49)"><path d="m0 0v228.07" fill="none" stroke="#000"/></g><g transform="translate(370.05 650.56)"><path d="m0 0v-228.07" fill="none" stroke="#000"/></g><g transform="translate(375.53 648.32)"><path d="m0 0v-6.354h-1.559l2.577-4.376 2.398 4.376h-1.439v6.354z"/></g><g transform="translate(389.28 648.32)"><path d="m0 0v-6.354h-1.559l2.577-4.376 2.398 4.376h-1.439v6.354z"/></g><g transform="translate(403.03 648.32)"><path d="m0 0v-6.354h-1.559l2.577-4.376 2.398 4.376h-1.439v6.354z"/></g><g transform="translate(424.2 637.59)"><path d="m0 0v6.353h1.559l-2.577 4.377-2.398-4.377h1.439v-6.353z"/></g><g transform="translate(437.95 637.59)"><path d="m0 0v6.353h1.559l-2.577 4.377-2.398-4.377h1.439v-6.353z"/></g><g transform="translate(451.7 637.59)"><path d="m0 0v6.353h1.559l-2.576 4.377-2.399-4.377h1.44v-6.353z"/></g><g transform="translate(347.76 579.69)"><path d="m0 0 0.045-0.045-0.035-0.037 2.125-2.122-3.227-3.231-2.172 2.168zm-2.174 2.169-3.261-3.268-2.207 2.202 3.261 3.268zm-4.381 4.371-3.261-3.268-2.172 2.169 3.263 3.267zm-4.377 4.372-3.261-3.269-2.198 2.193 3.262 3.267zm-4.396 4.386-3.262-3.267-2.14 2.135 3.263 3.27zm-4.318 4.311-3.262-3.268-2.217 2.213 3.262 3.268zm49.123-55.664-6e-3 7e-3 0.012 0.013-2.184 2.23 3.224 3.23 2.217-2.213zm4.32-4.311-2.143 2.136 3.264 3.269 2.141-2.137zm4.394-4.387-2.197 2.193 3.264 3.268 2.195-2.193zm2.205-2.203 3.262 3.268 2.172-2.169-3.26-3.268zm15.264-15.281-8e-3 8e-3 0.014 0.013-2.183 2.229 3.224 3.23 2.217-2.213zm4.319-4.311-2.139 2.136 3.26 3.269 2.142-2.137zm4.396-4.387-2.195 2.194 3.259 3.267 2.198-2.193zm2.206-2.203 3.261 3.269 2.172-2.17-3.26-3.267zm15.263-15.281-8e-3 8e-3 0.014 0.014-2.184 2.228 3.225 3.231 2.217-2.212zm4.318-4.31-2.14 2.135 3.261 3.27 2.142-2.138zm4.398-4.387-2.199 2.193 3.261 3.268 2.197-2.194zm2.205-2.201 3.26 3.267 2.173-2.17-3.261-3.267zm15.261-15.283-5e-3 7e-3 0.013 0.014-2.185 2.228 3.224 3.231 2.215-2.213zm8.715-8.698-9.998 9.994 3.262 3.268 9.998-9.994zm2.207-2.201 3.262 3.266 2.172-2.169-3.262-3.267zm15.262-15.282-6e-3 7e-3 0.014 0.013-2.186 2.23 3.225 3.229 2.215-2.213zm4.318-4.312-2.14 2.137 3.262 3.268 2.142-2.136zm4.397-4.386-2.197 2.193 3.261 3.267 2.198-2.193zm4.379-4.372-2.174 2.169 3.262 3.267 2.174-2.168 1.066 1.053-2.188 2.17 2.203 2.207-2.206 2.201-2.202-2.207-2.189 2.199 2.193 2.199-2.199 2.197-2.193-2.2-2.141 2.136 2.193 2.199-2.187 2.184-2.172-2.175-2.213 2.194 2.211 2.198-2.18 2.174-0.021-0.023-0.026 0.025-2.169-2.175-2.161 2.139 2.204 2.207-2.168 2.164-2.198-2.2-2.216 2.198 2.201 2.209-2.166 2.162-2.194-2.201-2.187 2.17 2.201 2.207-2.205 2.201-2.201-2.207-2.19 2.2-2.199 2.197-2.142 2.135-2.167 2.209-2.211 2.193 2.211 2.197-2.179 2.174-0.022-0.022-0.025 0.026-2.17-2.176-2.162 2.139 2.205 2.207-2.168 2.164-2.197-2.2-2.217 2.198 2.203 2.209-2.168 2.16-2.195-2.199-2.186 2.17 2.203 2.207-2.207 2.201-2.201-2.207-2.189 2.199 2.193 2.2-2.199 2.196-2.194-2.199-2.139 2.135 2.194 2.2-2.189 2.183-2.171-2.176-2.214 2.196 2.21 2.198-2.178 2.173-0.021-0.022-0.026 0.025-2.172-2.176-2.158 2.14 2.203 2.207-2.169 2.162-2.196-2.199-2.218 2.199 2.202 2.208-2.166 2.162-2.195-2.2-2.185 2.17 2.203 2.207-2.208 2.201-2.199-2.207-2.192 2.199 2.194 2.199-2.199 2.196-2.193-2.199-2.141 2.136 2.194 2.199-2.19 2.184-2.17-2.175-2.215 2.194 2.213 2.198-2.177 2.173-0.024-0.022-0.025 0.025-2.172-2.175-2.158 2.139 2.203 2.207-2.17 2.164-2.194-2.2-2.22 2.199 2.203 2.208-2.164 2.161-2.198-2.199-2.185 2.168 2.203 2.207-2.207 2.203-2.199-2.208-2.192 2.2 2.194 2.199-2.199 2.196-2.194-2.199-2.14 2.136 2.195 2.199-2.189 2.184-2.172-2.175-2.213 2.194 2.209 2.198-2.176 2.174-0.023-0.023-0.026 0.025-2.172-2.175-2.158 2.138 2.203 2.208-2.168 2.163-2.197-2.199-2.219 2.198 2.203 2.209-2.164 2.161-2.195-2.2-2.188 2.17-2.205 2.201-2.191 2.199 2.195 2.2-2.199 2.196-2.193-2.199-2.141 2.135 2.193 2.199-2.187 2.184-2.195-2.198-0.024 0.022 0.031 0.03-2.191 2.173 2.172 2.176-0.016 0.016 0.029 0.03-2.175 2.176-2.01-2.013-0.186-0.187-2.183 2.165 2.201 2.207-2.168 2.163-2.195-2.199-2.217 2.198 2.201 2.209-2.166 2.161-2.195-2.199-2.186 2.17 2.201 2.206-2.205 2.201-2.201-2.206-2.191 2.199 2.195 2.2-2.199 2.195-2.193-2.198-2.143 2.135 2.195 2.198-2.189 2.185-2.196-2.197-2.203 2.201 2.196 2.199-2.198 2.19-2.191-2.199-2.135 2.129-1.062-1.067 2.131-2.128-3.243-3.247-2.13 2.129-1.09-1.09 2.136-2.125-2.197-2.203 2.191-2.192 2.198 2.201 2.209-2.199-2.201-2.202 2.189-2.185 2.197 2.199 2.139-2.136-2.195-2.2 2.199-2.196 2.197 2.2 2.199-2.189-2.201-2.205 2.205-2.202 2.203 2.205 2.172-2.168-2.191-2.21 2.162-2.164 2.203 2.205 2.205-2.203-2.201-2.203 2.174-2.17 2.199 2.206 0.045-0.044-0.035-0.035 2.135-2.121-2.104-2.115-0.092-0.093 2.192-2.192 2.197 2.202 2.209-2.198-2.199-2.204 2.189-2.185 2.194 2.201 2.142-2.137-2.195-2.199 2.197-2.197 2.197 2.201 2.2-2.189 2.207-2.202 2.173-2.169 2.17-2.169 2.207-2.202-0.027-4.374 2.199 2.206 0.02-0.019-0.028-0.027 2.139-2.125-2.201-2.203 2.193-2.192 0.024 0.024 8e-3 -9e-3 2.175 2.176 2.2-2.188-2.202-2.203 2.192-2.185 2.193 2.2 2.143-2.137-2.196-2.199 2.198-2.196 2.197 2.2 2.199-2.188-2.199-2.206 2.205-2.202 2.203 2.206 2.172-2.17-2.193-2.209 2.162-2.164 2.203 2.205 2.205-2.203-2.199-2.204 2.172-2.169 2.201 2.206 0.019-0.019-0.027-0.027 2.137-2.125-2.199-2.203 2.191-2.193 0.023 0.024 8e-3 -9e-3 2.176 2.176 2.199-2.188-2.199-2.203 2.189-2.186 2.196 2.202 2.14-2.137-2.195-2.199 2.195-2.197 2.199 2.201 2.201-2.189-2.202-2.206 2.207-2.203 2.202 2.207 2.171-2.17-2.194-2.209 2.165-2.164 2.203 2.205 2.206-2.203-2.201-2.203 2.172-2.171 2.201 2.206 0.02-0.02-0.028-0.025 2.137-2.125-2.201-2.203 2.194-2.191 0.022 0.021 0.01-8e-3 2.173 2.177 2.202-2.188-2.201-2.204 2.19-2.185 2.195 2.201 2.141-2.137-2.195-2.199 2.196-2.196 2.196 2.2 2.2-2.189-2.198-2.206 2.205-2.202 2.2 2.206 2.172-2.17-2.193-2.209 2.166-2.164 2.199 2.205 2.209-2.202-2.203-2.204 2.174-2.17 2.201 2.205 0.018-0.017-0.026-0.028 2.137-2.125-2.199-2.203 2.191-2.191 0.024 0.022 9e-3 -8e-3 2.174 2.176 2.199-2.188-2.199-2.203 2.19-2.186 2.195 2.201 2.139-2.136 2.201-2.196 2.199-2.189-2.201-2.205 2.207-2.202 2.201 2.206 2.172-2.17-2.192-2.208 2.164-2.165 2.202 2.205 2.205-2.203-2.201-2.203 2.173-2.17 2.202 2.206 0.017-0.019-0.027-0.027 2.139-2.125-2.2-2.203 2.192-2.192 0.023 0.023 0.01-9e-3 2.172 2.176 2.201-2.188-2.199-2.203 2.189-2.184 2.194 2.2 2.14-2.137-2.193-2.199 2.197-2.197 2.197 2.201 2.199-2.189-2.201-2.206 2.207-2.202 2.202 2.206 2.171-2.169zm-121.08 127.62-0.028-0.028 2.133-2.128-3.236-3.239-2.151 2.146 3.262 3.268zm-18.606 12.05-2.142 2.136 3.263 3.269 2.141-2.137zm13.026-13.019-10.826 10.825 3.259 3.267 10.828-10.824zm24.103-24.091 3.264 3.268 2.205-2.202-3.264-3.269zm6.531-6.518-2.152 2.147 3.264 3.268 0.017-0.02-0.027-0.027 2.131-2.127zm19.653-19.664 3.263 3.268 2.206-2.201-3.264-3.269zm6.529-6.517-2.151 2.146 3.262 3.268 0.02-0.02-0.027-0.027 2.131-2.129zm19.653-19.664 3.264 3.268 2.205-2.203-3.262-3.267zm6.53-6.517-2.151 2.147 3.262 3.266 0.02-0.019-0.028-0.026 2.133-2.129zm19.654-19.664 3.262 3.267 2.207-2.201-3.262-3.268zm6.529-6.517-2.15 2.145 3.262 3.268 0.019-0.02-0.027-0.027 2.133-2.127zm-128.7 128.74 3.215 3.222 2.219-2.213-3.264-3.267-0.033 0.032 0.021 0.021z" fill-rule="evenodd"/></g><g transform="translate(347.76 623.95)"><path d="m0 0 0.045-0.045-0.035-0.037 2.125-2.122-3.227-3.231-2.172 2.168zm-2.174 2.169-3.261-3.268-2.207 2.202 3.261 3.268zm-4.381 4.371-3.261-3.268-2.172 2.169 3.263 3.267zm-4.377 4.372-3.261-3.269-2.198 2.193 3.262 3.267zm-4.396 4.386-3.262-3.267-2.14 2.135 3.263 3.269zm-4.318 4.311-3.262-3.268-2.217 2.213 3.262 3.268zm49.123-55.664-6e-3 7e-3 0.012 0.013-2.184 2.23 3.224 3.23 2.217-2.213zm4.32-4.311-2.143 2.136 3.264 3.269 2.141-2.137zm4.394-4.387-2.197 2.193 3.264 3.267 2.195-2.192zm2.205-2.203 3.262 3.268 2.172-2.169-3.26-3.268zm15.264-15.281-8e-3 7e-3 0.014 0.014-2.183 2.229 3.224 3.23 2.217-2.213zm4.319-4.31-2.139 2.135 3.26 3.269 2.142-2.137zm4.396-4.388-2.195 2.193 3.259 3.268 2.198-2.193zm2.206-2.202 3.261 3.268 2.172-2.17-3.26-3.267zm15.263-15.282-8e-3 7e-3 0.014 0.014-2.184 2.229 3.225 3.23 2.217-2.211zm4.318-4.311-2.14 2.136 3.261 3.27 2.142-2.137zm4.398-4.386-2.199 2.194 3.261 3.267 2.197-2.193zm2.205-2.202 3.26 3.268 2.173-2.17-3.261-3.268zm15.261-15.281-5e-3 6e-3 0.013 0.013-2.185 2.23 3.224 3.23 2.215-2.214zm8.715-8.699-8.976 8.972 3.261 3.269 8.977-8.973zm2.207-2.202 3.262 3.267 2.172-2.169-3.262-3.267zm15.262-15.281-6e-3 6e-3 0.014 0.014-2.186 2.23 3.225 3.23 2.215-2.213zm4.318-4.311-2.14 2.135 3.262 3.269 2.142-2.136zm4.397-4.387-2.197 2.193 3.261 3.267 2.198-2.193zm4.379-4.372-2.174 2.17 3.262 3.266 2.174-2.169 1.066 1.054-2.188 2.169 2.203 2.207-2.206 2.202-2.202-2.208-2.189 2.2 2.193 2.199-2.199 2.197-2.193-2.199-2.141 2.135 2.193 2.2-2.187 2.183-2.172-2.174-2.213 2.193 2.211 2.198-2.18 2.174-0.021-0.023-0.026 0.026-2.169-2.176-2.161 2.139 2.204 2.207-2.168 2.164-2.198-2.199-2.216 2.198 2.201 2.208-2.166 2.162-2.194-2.201-2.187 2.17 2.201 2.207-2.205 2.202-2.201-2.208-2.19 2.199-2.199 2.197-2.142 2.135-2.167 2.209-2.211 2.194 2.211 2.197-2.179 2.175-0.022-0.023-0.025 0.026-2.17-2.176-2.162 2.138 2.205 2.207-2.168 2.165-2.197-2.2-2.217 2.199 2.203 2.208-2.168 2.161-2.195-2.2-2.186 2.169 2.203 2.207-2.207 2.202-2.201-2.207-2.189 2.199 2.193 2.2-2.199 2.196-2.194-2.199-2.139 2.135 2.194 2.199-2.189 2.185-2.171-2.177-2.214 2.196 2.21 2.198-2.178 2.173-0.021-0.022-0.026 0.025-2.172-2.176-2.158 2.139 2.203 2.207-2.169 2.163-2.196-2.199-2.218 2.199 2.202 2.208-2.166 2.162-2.195-2.2-2.185 2.17 2.203 2.207-2.208 2.201-2.199-2.208-2.192 2.2 2.194 2.2-2.199 2.195-2.193-2.199-2.141 2.136 2.194 2.2-2.19 2.183-2.17-2.175-2.215 2.195 2.213 2.197-2.177 2.173-0.024-0.022-0.025 0.025-2.172-2.175-2.158 2.139 2.203 2.207-2.17 2.164-2.194-2.2-2.22 2.199 2.203 2.208-2.164 2.161-2.198-2.199-2.185 2.168 2.203 2.207-2.207 2.203-2.199-2.208-2.192 2.2 2.194 2.199-2.199 2.196-2.194-2.199-2.14 2.136 2.195 2.199-2.189 2.184-2.172-2.175-2.213 2.194 2.209 2.198-2.176 2.174-0.023-0.023-0.026 0.025-2.172-2.175-2.158 2.138 2.203 2.208-2.168 2.163-2.197-2.199-2.219 2.198 2.203 2.209-2.164 2.161-2.195-2.2-2.188 2.17-2.205 2.2-2.191 2.2 2.195 2.2-2.199 2.196-2.193-2.199-2.141 2.135 2.193 2.199-2.187 2.184-2.195-2.198-0.024 0.022 0.031 0.03-2.191 2.172 2.172 2.177-0.016 0.016 0.029 0.03-2.175 2.176-2.01-2.013-0.186-0.187-2.183 2.165 2.201 2.207-2.168 2.163-2.195-2.199-2.217 2.198 2.201 2.209-2.166 2.161-2.195-2.199-2.186 2.17 2.201 2.206-2.205 2.201-2.201-2.206-2.191 2.199 2.195 2.2-2.199 2.195-2.193-2.198-2.143 2.135 2.195 2.198-2.189 2.185-2.196-2.197-2.203 2.201 2.196 2.199-2.198 2.19-2.191-2.199-2.135 2.129-1.062-1.067 2.131-2.128-3.243-3.247-2.13 2.129-1.09-1.09 2.136-2.125-2.197-2.203 2.191-2.192 2.198 2.2 2.209-2.198-2.201-2.202 2.189-2.185 2.197 2.199 2.139-2.136-2.195-2.2 2.199-2.196 2.197 2.2 2.199-2.189-2.201-2.205 2.205-2.202 2.203 2.205 2.172-2.168-2.191-2.21 2.162-2.164 2.203 2.205 2.205-2.203-2.201-2.203 2.174-2.17 2.199 2.206 0.045-0.044-0.035-0.035 2.135-2.121-2.104-2.115-0.092-0.093 2.192-2.192 2.197 2.202 2.209-2.198-2.199-2.204 2.189-2.185 2.194 2.201 2.142-2.137-2.195-2.199 2.197-2.197 2.197 2.201 2.2-2.189 2.207-2.202 2.173-2.169 2.17-2.169 2.207-2.202-0.027-4.374 2.199 2.206 0.02-0.019-0.028-0.027 2.139-2.125-2.201-2.203 2.193-2.192 0.024 0.024 8e-3 -9e-3 2.175 2.176 2.2-2.188-2.202-2.203 2.192-2.185 2.193 2.2 2.143-2.137-2.196-2.199 2.198-2.196 2.197 2.2 2.199-2.188-2.199-2.206 2.205-2.202 2.203 2.206 2.172-2.17-2.193-2.209 2.162-2.164 2.203 2.205 2.205-2.204-2.199-2.202 2.172-2.17 2.201 2.206 0.019-0.019-0.027-0.027 2.137-2.126-2.199-2.202 2.191-2.193 0.023 0.024 8e-3 -0.01 2.176 2.177 2.199-2.187-2.199-2.204 2.189-2.185 2.196 2.201 2.14-2.137-2.195-2.2 2.195-2.196 2.199 2.201 2.201-2.189-2.202-2.205 2.207-2.204 2.202 2.206 2.171-2.169-2.194-2.208 2.165-2.165 2.203 2.205 2.206-2.203-2.201-2.203 2.172-2.171 2.201 2.206 0.02-0.019-0.028-0.026 2.137-2.125-2.201-2.203 2.194-2.192 0.022 0.022 0.01-8e-3 2.173 2.177 2.202-2.189-2.201-2.203 2.19-2.185 2.195 2.2 2.141-2.136-2.195-2.198 2.196-2.197 2.196 2.199 2.2-2.187-2.198-2.206 2.205-2.202 2.2 2.205 2.172-2.169-2.193-2.21 2.166-2.163 2.199 2.204 2.209-2.201-2.203-2.204 2.174-2.171 2.201 2.206 0.018-0.019-0.026-0.027 2.137-2.125-2.199-2.203 2.191-2.192 0.024 0.024 9e-3 -9e-3 2.174 2.177 2.199-2.189-2.199-2.204 2.19-2.184 2.195 2.2 6.539-6.521-2.201-2.205 2.207-2.202 2.201 2.205 2.172-2.169-2.192-2.208 2.164-2.165 2.202 2.204 2.205-2.202-2.201-2.203 2.173-2.171 2.202 2.207 0.017-0.019-0.027-0.028 2.139-2.125-2.2-2.203 2.192-2.191 0.023 0.023 0.01-0.01 2.172 2.177 2.201-2.187-2.199-2.204 2.189-2.184 2.194 2.199 2.14-2.137-2.193-2.199 2.197-2.196 2.197 2.201 2.199-2.188-2.201-2.207 2.207-2.202 2.202 2.206 2.171-2.168zm-121.08 127.62-0.028-0.028 2.133-2.128-3.236-3.239-2.151 2.146 3.262 3.268zm-18.606 12.05-2.142 2.136 3.263 3.269 2.141-2.137zm14.063-14.056-11.863 11.862 3.259 3.267 11.865-11.861zm2.353 4.194-3.263-3.269-1.244 1.24 3.261 3.268zm20.713-27.248 3.264 3.268 2.205-2.202-3.264-3.269zm6.531-6.517-2.152 2.146 3.264 3.268 0.017-0.02-0.027-0.027 2.131-2.128zm19.653-19.665 3.263 3.268 2.206-2.202-3.264-3.268zm6.529-6.517-2.151 2.146 3.262 3.268 0.02-0.019-0.027-0.028 2.131-2.128zm19.653-19.664 3.264 3.269 2.205-2.203-3.262-3.268zm6.53-6.516-2.151 2.146 3.262 3.267 0.02-0.02-0.028-0.026 2.133-2.129zm19.654-19.664 3.262 3.266 2.207-2.202-3.262-3.268zm6.529-6.518-2.15 2.145 3.262 3.268 0.019-0.019-0.027-0.028 2.133-2.128zm-128.7 128.74 3.215 3.222 2.219-2.213-3.264-3.267-0.033 0.032 0.021 0.021z" fill-rule="evenodd"/></g><g transform="translate(367.2 547.62)"><path d="m0 0 93.12-93.122v62.782l-93.12 93.121z" fill="#d6d8d9"/></g><g transform="translate(416.88 492.09)"><path d="m0 0c0 1.924-1.508 3.497-3.352 3.497-1.843 0-3.353-1.573-3.353-3.497v-57.294c0-1.924 1.51-3.497 3.353-3.497 1.844 0 3.352 1.573 3.352 3.497z" fill="#fff"/><path d="m0 0c0 1.924-1.508 3.497-3.352 3.497-1.843 0-3.353-1.573-3.353-3.497v-57.294c0-1.924 1.51-3.497 3.353-3.497 1.844 0 3.352 1.573 3.352 3.497z" fill="none" stroke="#000"/></g><g transform="translate(410.26 573.46)"><path d="m0 0c0-1.924 1.508-3.498 3.351-3.498s3.354 1.574 3.354 3.498v57.201c0 1.924-1.511 3.497-3.354 3.497s-3.351-1.573-3.351-3.497z" fill="#fff"/><path d="m0 0c0-1.924 1.508-3.498 3.351-3.498s3.354 1.574 3.354 3.498v57.201c0 1.924-1.511 3.497-3.354 3.497s-3.351-1.573-3.351-3.497z" fill="none" stroke="#000"/></g><g transform="translate(499.39 474.42)"><path d="m0 0-1.062-1.058-176.11 176.07 1.063 1.068z" fill-rule="evenodd"/></g><g transform="translate(495.06 470.08)"><path d="m0 0-1.065-1.059-176.11 176.07 1.09 1.09z" fill-rule="evenodd"/></g><g transform="translate(499.39 430.16)"><path d="m0 0-1.062-1.059-176.11 176.07 1.063 1.067z" fill-rule="evenodd"/></g><g transform="translate(495.06 425.82)"><path d="m0 0-1.065-1.06-176.11 176.07 1.09 1.09z" fill-rule="evenodd"/></g><g transform="translate(425.65 517.31)"><path d="m0 0 1.871-1.873 0.383 0.379-1.453 1.453 4.07 4.068-0.422 0.422z"/></g><g transform="translate(426.98 518.46)"><path d="m0 0c-0.613 0.615-0.545 1.354 0.215 2.115 0.758 0.756 1.541 0.826 2.16 0.207 0.494-0.494 0.549-1.027 0.166-1.429l-0.322 0.324c0.209 0.25 0.172 0.609-0.112 0.892-0.379 0.379-0.951 0.295-1.56-0.312-0.582-0.584-0.682-1.137-0.285-1.533 0.285-0.287 0.617-0.325 0.881-0.104l0.339-0.338c-0.4-0.387-0.972-0.332-1.482 0.178"/></g></g><text transform="matrix(.70711 -.70711 -.70711 -.70711 429.12 514.44)" fill="black" font-family="Helvetica" font-size="8.9999px"><tspan x="0 5.4989471 11.996885 17.999826 24.497765" y="0">TRACK</tspan></text><g transform="translate(367.2 547.62)"><path d="m0 0 93.12-93.122v62.782l-93.12 93.121z" fill="none" stroke="#000"/></g><g clip-path="url(#c)"><g transform="translate(383.66 581.2)"><path d="m0 0c-0.43-0.799-0.658-1.368-0.955-2.058l-1.869 1.876c0.259 0.092 1.259 0.521 2.06 0.948 0.856 0.457 1.588 0.916 2.024 1.253-0.34-0.434-0.801-1.165-1.26-2.019"/><path d="m0 0c-0.43-0.799-0.658-1.368-0.955-2.058l-1.869 1.876c0.259 0.092 1.259 0.521 2.06 0.948 0.856 0.457 1.588 0.916 2.024 1.253-0.34-0.434-0.801-1.165-1.26-2.019z" fill="none" stroke="#d6d8d9"/><path d="m0 0c-0.43-0.799-0.658-1.368-0.955-2.058l-1.869 1.876c0.259 0.092 1.259 0.521 2.06 0.948 0.856 0.457 1.588 0.916 2.024 1.253-0.34-0.434-0.801-1.165-1.26-2.019"/></g><g transform="translate(376.17 574.5)"><path d="m0 0 6.855 6.836" fill="none" stroke="#000" stroke-width=".75"/></g><g transform="translate(418.4 509.29)"><path d="m0 0c0.43 0.798 0.658 1.368 0.955 2.058l1.869-1.877c-0.26-0.092-1.261-0.52-2.06-0.948-0.857-0.457-1.588-0.916-2.024-1.252 0.338 0.434 0.799 1.165 1.26 2.019"/><path d="m0 0c0.43 0.798 0.658 1.368 0.955 2.058l1.869-1.877c-0.26-0.092-1.261-0.52-2.06-0.948-0.857-0.457-1.588-0.916-2.024-1.252 0.338 0.434 0.799 1.165 1.26 2.019z" fill="none" stroke="#d6d8d9"/><path d="m0 0c0.43 0.798 0.658 1.368 0.955 2.058l1.869-1.877c-0.26-0.092-1.261-0.52-2.06-0.948-0.857-0.457-1.588-0.916-2.024-1.252 0.338 0.434 0.799 1.165 1.26 2.019"/></g><g transform="translate(426.01 516.12)"><path d="m0 0-6.18-6.16" fill="none" stroke="#000" stroke-width=".75"/></g><g transform="translate(362.7 631.15)"><path d="m0 0 50.663 4-50.267 0.107" fill="#fff" stroke="#000"/></g><g transform="translate(357.25 631.02)"><path d="m0 0c-0.18-0.408-0.908-2.046-0.908-2.046l2.453-1.087 0.941 2.124h1.86l0.941-2.124 2.451 1.087s-0.724 1.638-0.906 2.046v4.183c0.06 0.26 0.502 2.161 0.502 2.161l-2.615 0.603-0.491-2.122h-1.625l-0.492 2.122-2.613-0.603s0.44-1.901 0.502-2.161z"/></g><g transform="translate(462.36 573.19)"><path d="M 0,0 -48.494,-4.23 0,-4.247" fill="#fff" stroke="#000"/></g><path d="m462.36 574.98h8.045v-8.045h-8.045z" fill="#fff"/><g transform="translate(462.36 574.98)"><path d="m0 0h8.045v-8.045h-8.045z" fill="none" stroke="#000"/></g><g transform="translate(464.44 434.3)"><path d="m0 0-50.663-4.001 50.266-0.107" fill="#fff" stroke="#000"/></g><g transform="translate(469.89 434.44)"><path d="m0 0c0.18 0.408 0.908 2.045 0.908 2.045l-2.453 1.088-0.941-2.125h-1.86l-0.941 2.125-2.451-1.088s0.724-1.637 0.906-2.045v-4.184c-0.06-0.259-0.502-2.161-0.502-2.161l2.615-0.602 0.491 2.122h1.625l0.492-2.122 2.613 0.602s-0.44 1.902-0.502 2.161z"/></g><g transform="translate(364.79 492.36)"><path d="M 0,0 48.494,4.229 0,4.247" fill="#fff" stroke="#000"/></g><path d="m364.79 490.57h-8.045v8.046h8.045z" fill="#fff"/><g transform="translate(364.79 490.57)"><path d="m0 0h-8.045v8.046h8.045z" fill="none" stroke="#000"/></g></g><text transform="matrix(.70711 -.70711 -.70711 -.70711 375.32 565.02)" fill="black" font-family="Helvetica" font-size="8.9999px"><tspan x="0 5.4989471 11.996885 17.999826 24.497765" y="0">TRACK</tspan></text><g transform="translate(371.18 569.48)"><path d="m0 0 1.871-1.873 0.381 0.381-1.451 1.451 4.069 4.068-0.421 0.42z"/></g><g clip-path="url(#b)"><g transform="translate(372.52 570.64)"><path d="m0 0c-0.613 0.613-0.545 1.352 0.215 2.111 0.758 0.758 1.542 0.83 2.162 0.209 0.492-0.494 0.545-1.027 0.164-1.429l-0.322 0.324c0.209 0.246 0.174 0.609-0.111 0.89-0.379 0.381-0.953 0.295-1.559-0.312-0.584-0.582-0.683-1.137-0.287-1.531 0.287-0.289 0.615-0.326 0.882-0.104l0.338-0.34c-0.398-0.382-0.97-0.33-1.482 0.182"/></g></g><text transform="matrix(1 0 0 -1 376.66 408.55)" fill="black" font-family="Helvetica" font-size="10px" font-weight="bold"><tspan x="0 7.2199998 10 15.56 17.973 25.193001 30.753 36.862999 40.193001 45.752998 48.533001 54.092999 60.202999 66.313004 69.093002" y="0">B – Acute angle</tspan></text><g transform="translate(463.16 505.21)"><path d="m0 0-100.73 100.73" fill="none" stroke="#000" stroke-dasharray="25, 2, 1, 2" stroke-width=".5"/></g><g transform="translate(457.69 466.42)"><path d="m0 0-84.009 84.009" fill="none" stroke="#000" stroke-dasharray="25, 2, 1, 2" stroke-width=".5"/></g><g transform="translate(109 505.21)"><path d="m0 0 100.73 100.73" fill="none" stroke="#000" stroke-dasharray="25, 2, 1, 2" stroke-width=".5"/></g><g transform="translate(114.47 466.42)"><path d="m0 0 84.01 84.009" fill="none" stroke="#000" stroke-dasharray="25, 2, 1, 2" stroke-width=".5"/></g><g transform="translate(51.329 114.5)"><path d="m0 0h6.354v1.559l4.376-2.577-4.376-2.398v1.439h-6.354z"/></g><g transform="translate(75.052 122.7)"><path d="m0 0h29.291" fill="none" stroke="#000" stroke-width=".75"/></g><text transform="matrix(1 0 0 -1 74.58 125.64)" fill="black" font-family="Helvetica" font-size="9px"><tspan x="0 5.0040002 10.008 15.012 20.016001 25.02" y="0">Legend</tspan><tspan x="-7.4790001 -0.98100001 1.017 4.0139999 9.0179996 13.518 16.02 18.018 23.021999 28.025999 30.528 35.532001 38.034 40.535999 43.037998 46.035 51.039001 55.539001 60.542999" y="15.354">Direction of travel</tspan><tspan x="-7.4790001 36.027 42.029999 47.034 49.535999 52.533001 57.536999 62.541 67.041 72.044998 74.546997 79.551003 84.555 87.056999" y="28.35"> Entrance gate</tspan><tspan x="-7.4790001 36.027 42.029999 46.529999 48.528 51.029999 53.532001 58.535999 63.540001 66.042" y="41.346001"> Exit gate</tspan></text><g transform="translate(56.918 98.465)"><path d="m0 0 48.819 4.105h-48.423" fill="#fff" stroke="#000"/></g><g clip-path="url(#a)"><g transform="translate(51.467 98.328)"><path d="m0 0c-0.18-0.406-0.908-2.045-0.908-2.045l2.453-1.086 0.941 2.123h1.86l0.941-2.123 2.451 1.086s-0.724 1.639-0.906 2.045v4.184c0.061 0.261 0.502 2.162 0.502 2.162l-2.615 0.603-0.49-2.123h-1.625l-0.493 2.123-2.613-0.603s0.44-1.901 0.502-2.162z"/></g><g transform="translate(58.69 85.318)"><path d="M 0,0 47.194,4.23 0,4.246" fill="#fff" stroke="#000"/></g><g transform="translate(58.69 83.529)"><path d="m0 0h-8.046v8.045h8.046z" fill="none" stroke="#000"/></g><g transform="translate(237.29 231.54)"><path d="M 0,0 46.944,-4.23 0,-4.246" fill="#fff" stroke="#000"/></g><g transform="translate(237.29 233.85)"><path d="m0 0h-8.046v-8.045h8.046z" fill="none" stroke="#000"/></g><g transform="translate(333.3 231.42)"><path d="m0 0-48.569-4.105h48.172" fill="#fff" stroke="#000"/></g><g transform="translate(338.76 230.72)"><path d="m0 0c0.18 0.406 0.908 2.045 0.908 2.045l-2.453 1.086-0.941-2.123h-1.86l-0.941 2.123-2.451-1.086s0.724-1.639 0.906-2.045v-4.184c-0.06-0.261-0.502-2.162-0.502-2.162l2.615-0.603 0.491 2.123h1.625l0.492-2.123 2.613 0.603s-0.44 1.901-0.502 2.162z"/></g><g transform="translate(70.734 234.5)"><path d="m0 0v78.92l-3.111-21.215 0.282-3.677 2.263 1.98" stroke="#000"/></g><g transform="translate(73.835 282.04)"><path d="m0 0h2.665v-22.176h-3.09l-10.348 17.914h-0.056v-17.914h-2.665v22.176h3.259l10.177-17.913h0.058z"/></g></g></g></svg>
