<?xml version="1.0" encoding="UTF-8"?>
<svg width="671.25" height="445.52" version="1.1" viewBox="0 0 671.25 445.52" xml:space="preserve" xmlns="http://www.w3.org/2000/svg"><defs><clipPath id="h"><path d="m19.318 378.69h521.36v364.31h-521.36z"/></clipPath><clipPath id="g"><path d="m19.318 378.69h521.36v364.31h-521.36z"/></clipPath><clipPath id="f"><path d="m19.318 378.69h521.36v364.31h-521.36z"/></clipPath><clipPath id="e"><path d="m19.318 378.69h521.36v364.31h-521.36z"/></clipPath><clipPath id="d"><path d="m19.318 378.69h521.36v364.31h-521.36z"/></clipPath><clipPath id="c"><path d="m19.318 378.69h521.36v364.31h-521.36z"/></clipPath><clipPath id="b"><path d="m19.318 378.69h521.36v364.31h-521.36z"/></clipPath><clipPath id="a"><path d="m19.318 378.69h521.36v364.31h-521.36z"/></clipPath></defs><g transform="matrix(1.3333 0 0 -1.3333 -44.467 955.89)"><path d="m498.63 461.3h-70.368v224.08h70.368z" fill="#b1b4b6" fill-rule="evenodd"/><path d="m485.68 528.38h-12.428v-67.085h12.428z" fill="#26b14b" fill-rule="evenodd"/><g transform="translate(242.76 416.49)"><path d="m0 0h6.353v1.559l4.377-2.577-4.377-2.398v1.439h-6.353z"/></g><g transform="translate(264.24 425)"><path d="m0 0h29.291" fill="none" stroke="#000" stroke-width=".75"/></g><text transform="matrix(1 0 0 -1 263.77 427.95)" fill="black" font-family="Helvetica" font-size="9px"><tspan x="0 5.0040002 10.008 15.012 20.016001 25.02" y="0">Legend</tspan><tspan x="-7.4879999 -0.99000001 1.008 4.0050001 9.0089998 13.509 16.011 18.009001 23.013 28.017 30.518999 35.522999 38.025002 40.527 43.028999 46.026001 51.029999 55.529999 60.534" y="15.354">Direction of travel</tspan></text><text transform="matrix(1 0 0 -1 508.66 634.67)" fill="black" font-family="Helvetica" font-size="8px"><tspan x="0 5.776 10.224 12.888 17.336" y="0">R3-7R</tspan><tspan x="-4.1999998 1.576 6.0240002 8.6879997 13.136 17.584" y="47.368">R3-7bP</tspan><tspan x="3.0079999 8.7840004 13.232 15.896" y="151.34399">R4-4</tspan></text><g transform="translate(434.75 461.3)"><path d="m0 0v220.08" fill="none" stroke="#ffd046" stroke-width="2"/></g><g transform="translate(454.03 615.04)"><path d="m0 0v63.341" fill="none" stroke="#fff" stroke-width="2"/></g><g transform="translate(473.31 615.04)"><path d="m0 0v63.341" fill="none" stroke="#fff" stroke-width="2"/></g><g transform="translate(473.31 528.38)"><path d="m0 0v-67.085" fill="none" stroke="#fff" stroke-width="2"/></g><g transform="translate(431.75 681.38)"><path d="m0 0v-220.08" fill="none" stroke="#ffd046" stroke-width="2"/></g><g transform="translate(492.6 678.38)"><path d="m0 0h-56.844" fill="none" stroke="#fff" stroke-width="6"/></g><g transform="translate(454.03 571.69)"><path d="m0 0v-110.39" fill="none" stroke="#fff" stroke-dasharray="14.4, 43.2" stroke-width="2"/></g><g transform="translate(473.31 602.19)"><path d="m0 0v-57.881" fill="none" stroke="#fff" stroke-dasharray="4.32, 12.96" stroke-width="2"/></g><g transform="translate(506.35 638.92)"><path d="m0 0v-3.741" fill="none" stroke="#000" stroke-miterlimit="2.613" stroke-width=".75"/></g><g clip-path="url(#h)"><g transform="translate(505.81 640.16)"><path d="m0 0c-0.262-0.869-0.504-1.433-0.783-2.129h2.648c-0.117 0.248-0.521 1.261-0.781 2.129-0.281 0.929-0.475 1.771-0.543 2.317-0.068-0.546-0.26-1.388-0.541-2.317"/></g></g><g transform="translate(506.37 524.83)"><path d="m0 0v-3.741" fill="none" stroke="#000" stroke-miterlimit="2.613" stroke-width=".75"/></g><g clip-path="url(#g)"><g transform="translate(505.83 526.07)"><path d="m0 0c-0.262-0.869-0.504-1.433-0.783-2.129h2.648c-0.117 0.248-0.521 1.261-0.781 2.129-0.281 0.929-0.475 1.771-0.543 2.317-0.068-0.546-0.26-1.388-0.541-2.317"/></g></g><g transform="translate(504.04 644.24)"><path d="m0 0v1.245h4.797v-1.245h1.758v-1.761h-8.473v1.761z"/></g><g transform="translate(504.05 530.14)"><path d="m0 0v1.246h4.797v-1.246h1.758v-1.76h-8.473v1.76z"/></g><g transform="translate(492.6 681.38)"><path d="m0 0v-100.81l-6.987-50.321v-68.958" fill="none" stroke="#fff" stroke-width="2"/></g><g transform="translate(499.13 530.26)"><path d="m0 0h-13.52" fill="none" stroke="#fff" stroke-width="2"/></g><g transform="translate(485.61 466.9)"><path d="m0 0h13.52" fill="none" stroke="#fff" stroke-width="2"/></g><g transform="translate(485.61 498.58)"><path d="m0 0h13.52" fill="none" stroke="#fff" stroke-width="2"/></g><g transform="translate(486.9 537.13)"><path d="m0 0 7.021-7.02" fill="none" stroke="#fff" stroke-width="2"/></g><g transform="translate(487.54 543.86)"><path d="m0 0 11.584-11.585" fill="none" stroke="#fff" stroke-width="2"/></g><g transform="translate(488.49 550.28)"><path d="m0 0 11.584-11.585" fill="none" stroke="#fff" stroke-width="2"/></g><g transform="translate(489.44 556.69)"><path d="m0 0 11.584-11.584" fill="none" stroke="#fff" stroke-width="2"/></g><g transform="translate(490.39 563.11)"><path d="m0 0 11.584-11.584" fill="none" stroke="#fff" stroke-width="2"/></g><g transform="translate(491.34 569.53)"><path d="m0 0 7.741-7.741" fill="none" stroke="#fff" stroke-width="2"/></g><g transform="translate(492.29 575.94)"><path d="m0 0 7.74-7.741" fill="none" stroke="#fff" stroke-width="2"/></g><g transform="translate(492.62 582.98)"><path d="m0 0 8.36-8.36" fill="none" stroke="#fff" stroke-width="2"/></g><g transform="translate(498.63 685.38)"><path d="m0 0v-224.08" fill="none" stroke="#000"/></g><g transform="translate(443.46 467.66)"><path d="m0 0v6.353h-1.559l2.577 4.377 2.398-4.377h-1.439v-6.353z"/></g><g transform="translate(462.74 467.66)"><path d="m0 0v6.353h-1.559l2.577 4.377 2.398-4.377h-1.439v-6.353z"/></g><g clip-path="url(#f)"><g transform="translate(488.02 664.96)"><path d="m0 0c-1.602 1.439-3.199 2.834-4.803 4.273 0.358-1.246 0.715-2.494 1.073-3.738-0.358-0.01-0.715-0.017-1.073-0.029-3.175-0.233-4.867-1.908-5.332-4.781v-4.809h1.594v3.215c0.353 2.242 1.481 3.621 3.738 3.738h1.073c-0.182-1.246-0.368-2.492-0.549-3.738 1.427 1.941 2.849 3.928 4.279 5.869" fill="#fff" fill-rule="evenodd"/></g><g transform="translate(488.02 601.27)"><path d="m0 0c-1.602 1.44-3.199 2.834-4.803 4.273 0.358-1.246 0.715-2.494 1.073-3.738-0.358-0.01-0.715-0.017-1.073-0.029-3.175-0.233-4.867-1.908-5.332-4.781v-4.809h1.594v3.215c0.353 2.242 1.481 3.621 3.738 3.738h1.073c-0.182-1.246-0.368-2.492-0.549-3.738 1.427 1.941 2.849 3.928 4.279 5.869" fill="#fff" fill-rule="evenodd"/></g><g transform="translate(481.39 474.17)"><path d="m0 0c-0.426 0-0.786 0.873-0.908 2.082l0.847 0.572c0.019-0.031 0.04-0.049 0.061-0.049 0.068 0 0.125 0.176 0.125 0.391 0 0.19-0.042 0.346-0.1 0.385l-0.521 2.176c0.145 0.278 0.314 0.438 0.496 0.438 0.526 0 0.954-1.343 0.954-2.999 0-1.655-0.428-2.996-0.954-2.996m-0.954 2.996c0 0.873 0.119 1.659 0.309 2.208l0.483-2.016-0.784-0.532c-7e-3 0.112-8e-3 0.225-8e-3 0.34m-0.211-0.487-0.373-0.254 0.433 4.871 0.326-1.363c-0.242-0.676-0.396-1.665-0.396-2.767 0-0.164 5e-3 -0.327 0.01-0.487m-0.531 0.156-0.057 0.692h0.091v0.279h-0.288v-0.279h0.113l0.059-0.687-1.23 4.205c0.021 0.199 0.042 0.406 0.062 0.611h1.679zm-1.208 0.331c0-1.655-0.429-2.996-0.954-2.996-0.528 0-0.954 1.341-0.954 2.996 0 1.656 0.426 2.999 0.954 2.999 0.187 0 0.36-0.17 0.507-0.463-0.116-0.798-0.344-1.659-0.51-2.143-0.068-2e-3 -0.122-0.177-0.122-0.393 0-0.215 0.054-0.391 0.125-0.391 0.063 0 0.115 0.15 0.122 0.344 0.081 0.237 0.187 0.584 0.291 1.004 0.077 0.311 0.174 0.74 0.247 1.207 0.18-0.547 0.294-1.313 0.294-2.164m2.904 3.695c-0.231 0-0.446-0.211-0.629-0.574l-0.413 1.721 0.055 0.609c0.258 0.071 0.401 0.378 0.391 0.677-7e-3 0.289-0.264 0.071-0.55 0.062-0.078-4e-3 -0.492 2e-3 -0.489-0.238 2e-3 -0.243 0.267-0.445 0.453-0.501l-0.033-0.371h-1.673c0.035 0.365 0.068 0.702 0.093 0.965 0.022 0.223 0.037 0.391 0.045 0.475l-0.121 0.294 0.057 0.182h0.448v0.463h-0.509l-0.22-0.695 0.142-0.337c-0.067-0.677-0.22-2.266-0.318-3.224-0.173 0.313-0.374 0.492-0.587 0.492-0.651 0-1.176-1.654-1.176-3.695 0-2.04 0.525-3.693 1.176-3.693 0.649 0 1.174 1.653 1.174 3.693 0 1.149-0.166 2.175-0.427 2.854 0.011 0.114 0.025 0.242 0.039 0.379l1.265-4.329v-0.033c0-0.235 0.058-0.427 0.132-0.433l0.089-1.059h-0.09v-0.279h0.285v0.279h-0.113l-0.096 1.122c0.021 0.036 0.038 0.087 0.047 0.149l0.427 0.288c0.147-1.524 0.594-2.631 1.126-2.631 0.649 0 1.176 1.653 1.176 3.693 0 2.041-0.527 3.695-1.176 3.695" fill="#fff"/></g><g transform="translate(477.59 500.99)"><path d="m0 0 1.879 5.941 1.859-5.941-1.322 1.111-0.02-6.323h-1.093v6.323z" fill="#fff" fill-rule="evenodd"/></g><g transform="translate(506.14 606.06)"><path d="m0 0c-0.999 0-1.812 0.813-1.812 1.812v23.625c0 1 0.813 1.813 1.812 1.813h23.625c0.999 0 1.812-0.813 1.812-1.813v-23.625c0-0.999-0.813-1.812-1.812-1.812z" fill="#fff"/></g><g transform="translate(529.76 633.43)"><path d="m0 0h-23.625c-1.068 0-1.937-0.869-1.937-1.937v-23.625c0-1.069 0.869-1.938 1.937-1.938h23.625c1.068 0 1.937 0.869 1.937 1.938v23.625c0 1.068-0.869 1.937-1.937 1.937m0-0.25c0.928 0 1.687-0.759 1.687-1.687v-23.625c0-0.929-0.759-1.688-1.687-1.688h-23.625c-0.928 0-1.687 0.759-1.687 1.688v23.625c0 0.928 0.759 1.687 1.687 1.687z"/></g><g transform="translate(506.14 606.63)"><path d="m0 0c-0.682 0-1.237 0.555-1.237 1.237v23.625c0 0.683 0.555 1.238 1.237 1.238h23.625c0.682 0 1.238-0.555 1.238-1.238v-23.625c0-0.682-0.556-1.237-1.238-1.237z"/></g><g transform="translate(506.14 607.31)"><path d="m0 0c-0.31 0-0.562 0.252-0.562 0.562v23.625c0 0.311 0.252 0.563 0.562 0.563h23.625c0.31 0 0.562-0.252 0.562-0.563v-23.625c0-0.31-0.252-0.562-0.562-0.562z" fill="#fff"/></g><g transform="translate(507.11 628.63)"><path d="m0 0v-0.909h0.529c0.303 0 0.467 0.164 0.467 0.455 0 0.278-0.189 0.454-0.466 0.454zm0.492-1.402h-0.492v-1.693h-0.517v3.6h1.072c0.565 0 0.945-0.379 0.945-0.959 0-0.43-0.177-0.746-0.517-0.872l0.517-1.769h-0.529z"/></g><path d="m509.22 629.13h0.504v-3.6h-0.504z"/><g transform="translate(511.56 625.47)"><path d="m0 0c-0.328 0-1.116 0.061-1.116 1.857s0.75 1.869 1.078 1.869c0.52 0 0.913-0.379 0.938-0.909h-0.52c-0.012 0.24-0.177 0.404-0.431 0.404-0.173 0-0.57-0.054-0.57-1.365 0-1.31 0.434-1.351 0.608-1.351 0.266 0 0.393 0.175 0.393 0.556v0.24h-0.406v0.505h0.926v-0.745c0-0.901-0.593-1.061-0.9-1.061"/></g><g transform="translate(514.69 627.16)"><path d="m0 0h-0.984v-1.629h-0.516v3.6h0.516v-1.466h0.984v1.466h0.517v-3.6h-0.517z"/></g><g transform="translate(516.88 625.53)"><path d="m0 0h-0.519v3.12h-0.659v0.48h1.837v-0.48h-0.659z"/></g><g transform="translate(519.8 629.13)"><path d="m0 0h0.519v-3.12h1.318v-0.48h-1.837z"/></g><g transform="translate(522.73 627.02)"><path d="m0 0h0.519l-0.266 1.036zm0.646-0.505h-0.772l-0.241-0.985h-0.519l0.899 3.6h0.507l0.898-3.6h-0.519z"/></g><g transform="translate(525.17 627.94)"><path d="m0 0v-2.412h-0.517v3.6h0.517l0.983-2.16v2.16h0.517v-3.6h-0.39z"/></g><g transform="translate(527.47 629.13)"><path d="m0 0h1.697v-0.505h-1.178v-0.91h0.747v-0.493h-0.747v-1.187h1.318v-0.505h-1.837z"/></g><g transform="translate(514.04 619.96)"><path d="m0 0-0.838-2.526-0.838 2.526v-2.526h-0.648v4.5h0.648l0.838-2.526 0.838 2.526h0.648v-4.5h-0.648z"/></g><g transform="translate(515.68 618.74)"><path d="m0 0v3.192h0.646v-3.236c0-0.424 0.247-0.711 0.63-0.711 0.346 0 0.599 0.284 0.599 0.711v3.236h0.646v-3.202c0-1.023-0.791-1.377-1.245-1.377-0.416 0-1.276 0.271-1.276 1.387"/></g><g transform="translate(520.25 620.29)"><path d="m0 0c0.492-0.309 1.23-0.741 1.23-1.63 0-0.728-0.555-1.31-1.253-1.31-0.792 0-1.268 0.671-1.268 1.406h0.635c0-0.384 0.19-0.774 0.633-0.774 0.349 0 0.634 0.315 0.634 0.678 0 0.979-1.68 0.922-1.68 2.18 0 0.647 0.508 1.167 1.157 1.167 0.635 0 1.126-0.489 1.142-1.168h-0.619c-0.015 0.316-0.238 0.521-0.523 0.521-0.301 0-0.539-0.221-0.539-0.52 0-0.293 0.156-0.365 0.451-0.55"/></g><g transform="translate(523.36 617.43)"><path d="m0 0h-0.649v3.9h-0.824v0.6h2.296v-0.6h-0.823z"/></g><g transform="translate(507.63 610.23)"><path d="m0 0h-0.519v3.12h-0.659v0.48h1.837v-0.48h-0.659z"/></g><g transform="translate(508.79 611.28)"><path d="m0 0v2.554h0.517v-2.59c0-0.338 0.198-0.568 0.504-0.568 0.277 0 0.479 0.227 0.479 0.568v2.59h0.517v-2.562c0-0.819-0.633-1.101-0.996-1.101-0.333 0-1.021 0.216-1.021 1.109"/></g><g transform="translate(512.12 613.33)"><path d="m0 0v-0.909h0.529c0.303 0 0.467 0.164 0.467 0.454 0 0.279-0.189 0.455-0.466 0.455zm0.492-1.402h-0.492v-1.693h-0.517v3.6h1.072c0.565 0 0.945-0.379 0.945-0.96 0-0.429-0.177-0.745-0.517-0.871l0.517-1.769h-0.529z"/></g><g transform="translate(514.75 612.64)"><path d="m0 0v-2.412h-0.517v3.6h0.517l0.983-2.16v2.16h0.517v-3.6h-0.39z"/></g><g transform="translate(519.01 613.33)"><path d="m0 0v-0.909h0.529c0.304 0 0.467 0.164 0.467 0.454 0 0.279-0.189 0.455-0.466 0.455zm0.492-1.402h-0.492v-1.693h-0.517v3.6h1.072c0.565 0 0.945-0.379 0.945-0.96 0-0.429-0.177-0.745-0.517-0.871l0.517-1.769h-0.529z"/></g><path d="m521.13 613.83h0.504v-3.6h-0.504z"/><g transform="translate(523.47 610.17)"><path d="m0 0c-0.328 0-1.116 0.061-1.116 1.857s0.75 1.869 1.078 1.869c0.52 0 0.913-0.379 0.938-0.909h-0.52c-0.012 0.24-0.177 0.404-0.431 0.404-0.174 0-0.57-0.054-0.57-1.365 0-1.31 0.434-1.351 0.608-1.351 0.266 0 0.393 0.175 0.393 0.556v0.24h-0.406v0.505h0.926v-0.745c0-0.901-0.593-1.061-0.9-1.061"/></g><g transform="translate(526.59 611.86)"><path d="m0 0h-0.984v-1.629h-0.516v3.6h0.516v-1.466h0.984v1.466h0.517v-3.6h-0.517z"/></g><g transform="translate(528.79 610.23)"><path d="m0 0h-0.519v3.12h-0.659v0.48h1.837v-0.48h-0.659z"/></g><g transform="translate(508.5 595.01)"><path d="m0 0c-0.813 0-1.475 0.662-1.475 1.475v8.1c0 0.813 0.662 1.475 1.475 1.475h18.9c0.814 0 1.475-0.662 1.475-1.475v-8.1c0-0.813-0.661-1.475-1.475-1.475z" fill="#fff"/></g><g transform="translate(527.4 606.18)"><path d="m0 0h-18.9c-0.882 0-1.6-0.718-1.6-1.6v-8.1c0-0.882 0.718-1.6 1.6-1.6h18.9c0.882 0 1.6 0.718 1.6 1.6v8.1c0 0.882-0.718 1.6-1.6 1.6m0-0.25c0.742 0 1.35-0.607 1.35-1.35v-8.1c0-0.742-0.608-1.35-1.35-1.35h-18.9c-0.742 0-1.35 0.608-1.35 1.35v8.1c0 0.743 0.608 1.35 1.35 1.35z"/></g><g transform="translate(527.96 596.48)"><path d="m0 0v8.1c0 0.309-0.253 0.562-0.562 0.562h-18.9c-0.31 0-0.563-0.253-0.563-0.562v-8.1c0-0.309 0.253-0.562 0.563-0.562h18.9c0.309 0 0.562 0.253 0.562 0.562m-0.562-1.013h-18.9c-0.557 0-1.013 0.456-1.013 1.013v8.1c0 0.557 0.456 1.012 1.013 1.012h18.9c0.556 0 1.012-0.455 1.012-1.012v-8.1c0-0.557-0.456-1.013-1.012-1.013"/></g><g transform="translate(511.73 604.13)"><path d="m0 0h1.59v-0.426h-1.164v-0.663h0.785v-0.436h-0.785v-0.739h1.249v-0.436h-1.675z"/></g><g transform="translate(514.6 602.33)"><path d="m0 0-0.436-0.9h-0.483l0.673 1.392-0.626 1.308h0.484l0.388-0.805 0.388 0.805h0.484l-0.635-1.308 0.682-1.392h-0.483z"/></g><g transform="translate(515.92 602.79)"><path d="m0 0c0 0.38 0.076 1.392 0.995 1.392 0.391 0 0.658-0.159 0.843-0.549l-0.398-0.171c-0.138 0.199-0.207 0.284-0.445 0.284-0.565 0-0.559-0.787-0.559-0.956 0-0.168-0.01-0.967 0.578-0.967 0.206 0 0.325 0.125 0.417 0.313l0.407-0.152c-0.152-0.375-0.407-0.596-0.815-0.596-0.972 0-1.023 1.073-1.023 1.402"/></g><g transform="translate(518.35 604.13)"><path d="m0 0h1.59v-0.426h-1.164v-0.663h0.785v-0.436h-0.785v-0.739h1.249v-0.436h-1.675z"/></g><g transform="translate(520.91 603.04)"><path d="m0 0h0.601c0.339 0 0.375 0.244 0.375 0.331 0 0.127-0.095 0.332-0.36 0.332h-0.616zm0.503-0.436h-0.503v-1.175h-0.426v2.7h1.021c0.635 0 0.817-0.516 0.817-0.758 0-0.167-0.092-0.767-0.909-0.767"/></g><g transform="translate(523.53 601.43)"><path d="m0 0h-0.428v2.321h-0.619v0.379h1.675v-0.379h-0.628z"/></g><g transform="translate(510.13 598.11)"><path d="m0 0v-0.739h0.644c0.22 0 0.332 0.104 0.332 0.313 0 0.208-0.144 0.426-0.365 0.426zm0.626 1.099h-0.626v-0.663h0.543c0.242 0 0.376 0.211 0.376 0.388 0 0.18-0.099 0.275-0.293 0.275m-1.052-2.274v2.7h1.023c0.427 0 0.749-0.293 0.749-0.682 0-0.265-0.123-0.464-0.379-0.606 0.284-0.133 0.445-0.363 0.445-0.654 0-0.192-0.108-0.758-0.815-0.758z"/></g><path d="m512.01 599.63h0.432v-2.7h-0.432z"/><g transform="translate(513.03 598.29)"><path d="m0 0c0 0.38 0.076 1.392 0.995 1.392 0.391 0 0.658-0.159 0.843-0.549l-0.398-0.171c-0.138 0.199-0.207 0.284-0.445 0.284-0.565 0-0.559-0.787-0.559-0.956 0-0.168-0.01-0.967 0.578-0.967 0.206 0 0.325 0.125 0.417 0.313l0.407-0.152c-0.152-0.375-0.407-0.596-0.815-0.596-0.972 0-1.023 1.073-1.023 1.402"/></g><g transform="translate(516.6 596.93)"><path d="m0 0h-0.429v1.175l-0.952 1.525h0.515l0.647-1.042 0.657 1.042h0.505l-0.943-1.525z"/></g><g transform="translate(517.89 598.29)"><path d="m0 0c0 0.38 0.076 1.392 0.995 1.392 0.391 0 0.658-0.159 0.843-0.549l-0.398-0.171c-0.138 0.199-0.207 0.284-0.445 0.284-0.565 0-0.559-0.787-0.559-0.956 0-0.168-0.01-0.967 0.578-0.967 0.206 0 0.325 0.125 0.417 0.313l0.407-0.152c-0.152-0.375-0.407-0.596-0.815-0.596-0.972 0-1.023 1.073-1.023 1.402"/></g><g transform="translate(520.33 599.63)"><path d="m0 0h0.426v-2.302h1.249v-0.398h-1.675z"/></g><g transform="translate(522.41 599.63)"><path d="m0 0h1.59v-0.426h-1.164v-0.663h0.785v-0.436h-0.785v-0.739h1.249v-0.436h-1.675z"/></g><g transform="translate(524.35 597.57)"><path d="m0 0 0.407 0.151c0.114-0.255 0.322-0.397 0.578-0.397 0.247 0 0.417 0.17 0.417 0.397 0 0.362-0.417 0.417-0.767 0.559-0.161 0.067-0.521 0.228-0.521 0.673 0 0.531 0.36 0.729 0.843 0.729 0.379 0 0.635-0.218 0.767-0.549l-0.379-0.114c-0.042 0.106-0.197 0.237-0.398 0.237-0.385 0-0.417-0.206-0.417-0.273 0-0.253 0.217-0.303 0.571-0.414 0.361-0.113 0.737-0.279 0.737-0.858 0-0.582-0.473-0.823-0.853-0.823-0.464 0-0.805 0.275-0.985 0.682"/></g><g transform="translate(505.82 491.96)"><path d="m0 0c-0.999 0-1.812 0.813-1.812 1.812v23.625c0 1 0.813 1.813 1.812 1.813h29.025c0.999 0 1.813-0.813 1.813-1.813v-23.625c0-0.999-0.814-1.812-1.813-1.812z" fill="#fff"/></g><g transform="translate(534.85 519.34)"><path d="m0 0h-29.025c-1.068 0-1.938-0.869-1.938-1.937v-23.625c0-1.069 0.87-1.938 1.938-1.938h29.025c1.068 0 1.937 0.869 1.937 1.938v23.625c0 1.068-0.869 1.937-1.937 1.937m0-0.25c0.932 0 1.687-0.755 1.687-1.687v-23.625c0-0.932-0.755-1.688-1.687-1.688h-29.025c-0.932 0-1.688 0.756-1.688 1.688v23.625c0 0.932 0.756 1.687 1.688 1.687z"/></g><g transform="translate(505.83 492.54)"><path d="m0 0c-0.682 0-1.237 0.555-1.237 1.237v23.625c0 0.683 0.555 1.238 1.237 1.238h29.025c0.682 0 1.238-0.555 1.238-1.238v-23.625c0-0.682-0.556-1.237-1.238-1.237z"/></g><g transform="translate(505.83 493.21)"><path d="m0 0c-0.31 0-0.562 0.252-0.562 0.562v23.625c0 0.311 0.252 0.563 0.562 0.563h29.025c0.31 0 0.563-0.252 0.563-0.563v-23.625c0-0.31-0.253-0.562-0.563-0.562z" fill="#fff"/></g><g transform="translate(519.39 503.58)"><path d="m0 0 3.771 2.177 1.434-2.484-3.771-2.177z"/></g><g transform="translate(522.64 499.5)"><path d="m0 0c0.109-9e-3 0.223 0.015 0.325 0.074 0.269 0.155 0.361 0.499 0.206 0.768-0.036 0.061-0.081 0.113-0.133 0.155l-2.521 2.08-0.54 3.224c-0.011 0.066-0.033 0.131-0.069 0.192-0.155 0.269-0.499 0.361-0.768 0.206-0.102-0.059-0.179-0.146-0.226-0.245l-2.83-5.937z"/></g><g transform="translate(515.33 512.84)"><path d="m0 0h0.517c0.29 0 0.479 0.202 0.479 0.518 0 0.348-0.209 0.606-0.479 0.606h-0.517zm0 2.589v-0.96h0.542c0.24 0 0.391 0.202 0.391 0.531 0 0.31-0.111 0.429-0.391 0.429zm-0.517-3.094v3.6h1.135c0.478 0 0.819-0.379 0.819-0.935 0-0.33-0.088-0.48-0.378-0.783 0.277-0.228 0.441-0.531 0.441-0.897 0-0.539-0.429-0.985-0.958-0.985z"/></g><g transform="translate(517.44 515.94)"><path d="m0 0h1.697v-0.505h-1.178v-0.91h0.747v-0.493h-0.747v-1.187h1.318v-0.505h-1.837z"/></g><g transform="translate(520.93 512.27)"><path d="m0 0c-0.328 0-1.116 0.061-1.116 1.857s0.75 1.869 1.078 1.869c0.52 0 0.913-0.379 0.938-0.909h-0.52c-0.012 0.24-0.177 0.404-0.431 0.404-0.174 0-0.57-0.054-0.57-1.365 0-1.31 0.434-1.351 0.608-1.351 0.266 0 0.393 0.175 0.393 0.556v0.24h-0.406v0.505h0.926v-0.745c0-0.901-0.593-1.061-0.9-1.061"/></g><path d="m522.55 515.94h0.504v-3.6h-0.504z"/><g transform="translate(524.37 514.75)"><path d="m0 0v-2.412h-0.517v3.6h0.517l0.983-2.16v2.16h0.517v-3.6h-0.39z"/></g><g transform="translate(507.58 509.54)"><path d="m0 0c0 0.408-0.089 0.531-0.405 0.531h-0.221v-0.985h0.298c0.252 0 0.328 0.113 0.328 0.454m0.089-0.81 0.366-1.792h-0.493l-0.343 1.68h-0.245v-1.68h-0.455v3.6h0.702c0.557 0 0.847-0.341 0.847-1.011 0-0.344-0.102-0.642-0.379-0.797"/></g><path d="m508.51 510.54h0.468v-3.6h-0.468z"/><g transform="translate(510.36 510.59)"><path d="m0 0c0.406 0 0.673-0.253 0.711-0.695h-0.47c-0.012 0.152-0.101 0.227-0.228 0.227-0.226 0-0.381-0.192-0.381-1.388s0.155-1.39 0.381-1.39c0.191 0 0.241 0.222 0.241 0.443v0.429h-0.216v0.467h0.673v-0.896c0-0.236 0.034-0.91-0.71-0.91-0.65 0-0.839 0.498-0.839 1.857 0 1.596 0.345 1.856 0.838 1.856"/></g><g transform="translate(512.72 508.62)"><path d="m0 0h-0.642v-1.68h-0.453v3.6h0.453v-1.452h0.643v1.452h0.453v-3.6h-0.454z"/></g><g transform="translate(514.47 506.94)"><path d="m0 0h-0.454v3.132h-0.445v0.468h1.369v-0.468h-0.47z"/></g><g transform="translate(517.98 506.94)"><path d="m0 0h-0.454v3.132h-0.445v0.468h1.369v-0.468h-0.47z"/></g><g transform="translate(518.85 507.82)"><path d="m0 0v2.716h0.454v-2.779c0-0.265 0.111-0.417 0.325-0.417 0.202 0 0.316 0.152 0.316 0.417v2.779h0.454v-2.716c0-0.751-0.396-0.947-0.77-0.947-0.406 0-0.779 0.225-0.779 0.947"/></g><g transform="translate(522.12 509.54)"><path d="m0 0c0 0.408-0.089 0.531-0.405 0.531h-0.221v-0.985h0.298c0.252 0 0.328 0.113 0.328 0.454m0.089-0.81 0.366-1.792h-0.493l-0.343 1.68h-0.245v-1.68h-0.455v3.6h0.702c0.557 0 0.847-0.341 0.847-1.011 0-0.344-0.102-0.642-0.379-0.797"/></g><g transform="translate(523.5 509.07)"><path d="m0 0v-2.135h-0.454v3.6h0.454l0.642-1.793v1.793h0.453v-3.6h-0.391z"/></g><g transform="translate(526.73 510.54)"><path d="m0 0h0.452v-3.183h0.917v-0.417h-1.369z"/></g><g transform="translate(529.04 508.36)"><path d="m0 0h0.391l-0.189 0.948zm0.492-0.468h-0.593l-0.202-0.959h-0.467l0.732 3.6h0.467l0.745-3.6h-0.479z"/></g><g transform="translate(531.08 509.07)"><path d="m0 0v-2.135h-0.454v3.6h0.454l0.642-1.793v1.793h0.453v-3.6h-0.391z"/></g><g transform="translate(532.8 510.54)"><path d="m0 0h1.318v-0.468h-0.866v-0.922h0.578v-0.479h-0.578v-1.263h0.917v-0.468h-1.369z"/></g><g transform="translate(508.75 495.24)"><path d="m0 0h-0.467v1.629l-0.739 1.971h0.492l0.486-1.263 0.475 1.263h0.492l-0.739-1.971z"/></g><path d="m509.99 498.84h0.468v-3.6h-0.468z"/><g transform="translate(511.25 498.84)"><path d="m0 0h1.318v-0.468h-0.866v-0.922h0.578v-0.479h-0.578v-1.263h0.917v-0.468h-1.369z"/></g><g transform="translate(513.19 498.84)"><path d="m0 0h0.452v-3.183h0.917v-0.417h-1.369z"/></g><g transform="translate(515.52 498.37)"><path d="m0 0v-2.665h0.289c0.351 0 0.334 0.541 0.334 1.337 0 1.193-0.11 1.328-0.334 1.328zm-0.454-3.132v3.6h0.743c0.302 0 0.806-0.016 0.806-1.794s-0.504-1.806-0.806-1.806z"/></g><g transform="translate(524.77 496.9)"><path d="m0 0v-1.2h0.352c0.215 0 0.278 0.115 0.278 0.48 0 0.568-0.064 0.72-0.291 0.72zm0 1.465v-0.985h0.314c0.203 0 0.252 0.114 0.252 0.493 0 0.354-0.076 0.492-0.302 0.492zm0.402-3.132h-0.856v3.6h0.655c0.632 0 0.831-0.24 0.831-0.96 0-0.354-0.05-0.543-0.177-0.733 0.166-0.181 0.24-0.497 0.24-0.922 0-0.645-0.239-0.985-0.693-0.985"/></g><path d="m526.44 498.84h0.468v-3.6h-0.468z"/><g transform="translate(528.31 496.94)"><path d="m0 0-0.158-0.353v-1.352h-0.454v3.6h0.454v-1.15l0.55 1.15h0.53l-0.593-1.238 0.643-2.362h-0.492z"/></g><g transform="translate(529.86 498.84)"><path d="m0 0h1.318v-0.468h-0.866v-0.922h0.578v-0.479h-0.578v-1.263h0.917v-0.468h-1.369z"/></g><g transform="translate(532.67 496.01)"><path d="m0 0c0 0.902-0.993 1.186-0.993 2.034 0 0.493 0.3 0.846 0.731 0.846 0.442 0 0.679-0.278 0.73-0.846h-0.468c-0.013 0.278-0.085 0.392-0.25 0.392-0.177 0-0.275-0.153-0.275-0.392 0-0.271 0.152-0.369 0.369-0.628 0.16-0.19 0.624-0.651 0.624-1.406 0-0.351-0.226-0.833-0.756-0.833-0.505 0-0.768 0.328-0.793 0.959h0.468c0-0.138 0.019-0.492 0.325-0.492 0.177 0 0.288 0.139 0.288 0.366"/></g><g transform="translate(519.65 495.24)"><path d="m0 0h-0.455v3.132h-0.444v0.468h1.369v-0.468h-0.47z"/></g><g transform="translate(520.99 497.03)"><path d="m0 0c0-0.629 9e-3 -1.39 0.354-1.39s0.354 0.761 0.354 1.39-9e-3 1.39-0.354 1.39-0.354-0.761-0.354-1.39m0.354-1.857c-0.808 0-0.828 1.016-0.828 1.857s0.02 1.856 0.828 1.856 0.829-1.015 0.829-1.856-0.021-1.857-0.829-1.857"/></g><path d="m122.96 461.3h-54.079v224.08h54.079z" fill="#b1b4b6" fill-rule="evenodd"/><g transform="translate(87.659 685.38)"><path d="m0 0v-224.08" fill="none" stroke="#ffd046" stroke-width="2"/></g><g transform="translate(122.96 685.38)"><path d="m0 0v-224.08" fill="none" stroke="#000"/></g><g transform="translate(68.88 685.38)"><path d="m0 0v-224.08" fill="none" stroke="#000"/></g><g transform="translate(78.948 478.39)"><path d="m0 0v-6.354h1.559l-2.577-4.376-2.398 4.376h1.439v6.354z"/></g><g transform="translate(99.37 467.66)"><path d="m0 0v6.353h-1.559l2.577 4.377 2.398-4.377h-1.439v-6.353z"/></g><g transform="translate(109.94 478.33)"><path d="m0 0v4.871" fill="none" stroke="#fff" stroke-width="2"/></g><g transform="translate(90.659 461.3)"><path d="m0 0v224.08" fill="none" stroke="#ffd046" stroke-width="2"/></g><g transform="translate(109.94 473.4)"><path d="m0 0v4.931" fill="none" stroke="#fff" stroke-width="2"/></g><g transform="translate(109.94 478.3)"><path d="m0 0h4.901" fill="none" stroke="#fff" stroke-width="2"/></g><g transform="translate(109.94 510.01)"><path d="m0 0v4.871" fill="none" stroke="#fff" stroke-width="2"/></g><g transform="translate(109.94 505.08)"><path d="m0 0v4.931" fill="none" stroke="#fff" stroke-width="2"/></g><g transform="translate(109.94 509.98)"><path d="m0 0h4.901" fill="none" stroke="#fff" stroke-width="2"/></g><g transform="translate(109.94 541.69)"><path d="m0 0v4.871" fill="none" stroke="#fff" stroke-width="2"/></g><g transform="translate(109.94 536.76)"><path d="m0 0v4.931" fill="none" stroke="#fff" stroke-width="2"/></g><g transform="translate(109.94 541.66)"><path d="m0 0h4.901" fill="none" stroke="#fff" stroke-width="2"/></g><g transform="translate(109.94 573.37)"><path d="m0 0v4.871" fill="none" stroke="#fff" stroke-width="2"/></g><g transform="translate(109.94 568.44)"><path d="m0 0v4.931" fill="none" stroke="#fff" stroke-width="2"/></g><g transform="translate(109.94 573.34)"><path d="m0 0h4.901" fill="none" stroke="#fff" stroke-width="2"/></g><g transform="translate(109.94 605.05)"><path d="m0 0v4.871" fill="none" stroke="#fff" stroke-width="2"/></g><g transform="translate(109.94 600.12)"><path d="m0 0v4.931" fill="none" stroke="#fff" stroke-width="2"/></g><g transform="translate(109.94 605.02)"><path d="m0 0h4.901" fill="none" stroke="#fff" stroke-width="2"/></g><g transform="translate(109.94 636.73)"><path d="m0 0v4.871" fill="none" stroke="#fff" stroke-width="2"/></g><g transform="translate(109.94 631.8)"><path d="m0 0v4.931" fill="none" stroke="#fff" stroke-width="2"/></g><g transform="translate(109.94 636.7)"><path d="m0 0h4.901" fill="none" stroke="#fff" stroke-width="2"/></g><g transform="translate(109.94 668.41)"><path d="m0 0v4.871" fill="none" stroke="#fff" stroke-width="2"/></g><g transform="translate(109.94 663.48)"><path d="m0 0v4.931" fill="none" stroke="#fff" stroke-width="2"/></g><g transform="translate(109.94 668.38)"><path d="m0 0h4.901" fill="none" stroke="#fff" stroke-width="2"/></g><g transform="translate(100.3 643.48)"><path d="m0 0-4.547-5.457v-1.363l4.547 5.456 4.546-5.456v1.363z" fill="#fff"/></g><g transform="translate(100.3 640.76)"><path d="m0 0-4.547-5.456v-1.364l4.547 5.456 4.546-5.456v1.364z" fill="#fff"/></g><g transform="translate(103.12 619.05)"><path d="m0 0c-0.623 0-1.149 1.283-1.33 3.055l1.242 0.843c0.026-0.046 0.056-0.073 0.088-0.073 0.101 0 0.182 0.257 0.182 0.574 0 0.277-0.062 0.507-0.144 0.562l-0.764 3.196c0.211 0.407 0.46 0.641 0.726 0.641 0.771 0 1.396-1.97 1.396-4.399s-0.625-4.399-1.396-4.399m-1.396 4.399c0 1.282 0.173 2.434 0.451 3.239l0.707-2.959-1.15-0.78c-5e-3 0.165-8e-3 0.332-8e-3 0.5m-0.31-0.715-0.546-0.371 0.634 7.144 0.477-1.999c-0.356-0.993-0.58-2.443-0.58-4.059 0-0.243 5e-3 -0.482 0.015-0.715m-0.778 0.229-0.085 1.015h0.133v0.409h-0.418v-0.409h0.166l0.084-1.007-1.799 6.169c0.029 0.293 0.059 0.597 0.088 0.897h2.459zm-1.77 0.486c0-2.429-0.626-4.399-1.397-4.399s-1.396 1.97-1.396 4.399 0.625 4.399 1.396 4.399c0.274 0 0.53-0.249 0.746-0.679-0.172-1.172-0.506-2.434-0.747-3.146-0.1-2e-3 -0.181-0.258-0.181-0.574 0-0.317 0.082-0.574 0.182-0.574 0.093 0 0.17 0.22 0.181 0.503 0.118 0.348 0.272 0.861 0.424 1.474 0.113 0.456 0.255 1.087 0.362 1.771 0.265-0.8 0.43-1.927 0.43-3.174m4.254 5.422c-0.339 0-0.655-0.309-0.922-0.842l-0.603 2.526 0.079 0.891c0.378 0.103 0.587 0.556 0.574 0.994-0.012 0.425-0.387 0.106-0.805 0.089-0.114-4e-3 -0.721 4e-3 -0.718-0.346 4e-3 -0.36 0.392-0.654 0.664-0.735l-0.048-0.546h-2.451c0.052 0.537 0.1 1.032 0.137 1.416 0.031 0.328 0.055 0.575 0.067 0.698l-0.179 0.429 0.084 0.268h0.657v0.683h-0.747l-0.321-1.023 0.206-0.495c-0.095-0.992-0.32-3.324-0.465-4.73-0.253 0.46-0.547 0.723-0.86 0.723-0.951 0-1.721-2.427-1.721-5.422s0.77-5.422 1.721-5.422 1.721 2.427 1.721 5.422c0 1.685-0.244 3.191-0.627 4.185 0.018 0.169 0.037 0.356 0.058 0.557l1.852-6.351v-0.051c0-0.343 0.086-0.623 0.194-0.633l0.13-1.554h-0.132v-0.409h0.418v0.409h-0.167l-0.137 1.645c0.028 0.054 0.052 0.129 0.069 0.218l0.623 0.424c0.213-2.235 0.871-3.862 1.649-3.862 0.951 0 1.721 2.427 1.721 5.422s-0.77 5.422-1.721 5.422" fill="#fff"/></g><g transform="translate(78.02 497.3)"><path d="m0 0 4.547 5.457v1.363l-4.547-5.456-4.546 5.456v-1.363z" fill="#fff"/></g><g transform="translate(78.02 500.03)"><path d="m0 0 4.547 5.456v1.364l-4.547-5.456-4.546 5.456v-1.364z" fill="#fff"/></g><g transform="translate(75.194 521.74)"><path d="m0 0c0.623 0 1.149-1.283 1.33-3.055l-1.242-0.843c-0.026 0.046-0.056 0.073-0.088 0.073-0.101 0-0.182-0.257-0.182-0.574 0-0.277 0.062-0.507 0.144-0.562l0.764-3.196c-0.211-0.406-0.46-0.641-0.726-0.641-0.771 0-1.396 1.97-1.396 4.399s0.625 4.399 1.396 4.399m1.396-4.399c0-1.282-0.173-2.434-0.451-3.239l-0.707 2.959 1.15 0.78c5e-3 -0.164 8e-3 -0.331 8e-3 -0.5m0.31 0.715 0.546 0.371-0.634-7.144-0.477 1.999c0.356 0.993 0.58 2.443 0.58 4.059 0 0.243-5e-3 0.482-0.015 0.715m0.778-0.229 0.085-1.015h-0.133v-0.409h0.418v0.409h-0.166l-0.084 1.007 1.799-6.169c-0.029-0.293-0.059-0.596-0.088-0.897h-2.459zm1.77-0.486c0 2.429 0.626 4.399 1.397 4.399s1.396-1.97 1.396-4.399-0.625-4.399-1.396-4.399c-0.274 0-0.53 0.249-0.746 0.679 0.172 1.172 0.506 2.434 0.747 3.146 0.1 2e-3 0.181 0.258 0.181 0.574 0 0.317-0.082 0.574-0.182 0.574-0.093 0-0.17-0.22-0.181-0.503-0.118-0.348-0.272-0.86-0.424-1.474-0.113-0.456-0.254-1.087-0.362-1.771-0.265 0.8-0.43 1.927-0.43 3.174m-4.254-5.422c0.339 0 0.655 0.309 0.922 0.842l0.603-2.526-0.079-0.891c-0.378-0.103-0.587-0.556-0.574-0.994 0.012-0.425 0.387-0.106 0.805-0.089 0.114 4e-3 0.721-4e-3 0.718 0.346-4e-3 0.36-0.392 0.654-0.664 0.735l0.048 0.546h2.451c-0.052-0.537-0.1-1.032-0.137-1.416-0.031-0.328-0.055-0.575-0.067-0.698l0.179-0.429-0.084-0.268h-0.657v-0.683h0.747l0.321 1.023-0.206 0.495c0.095 0.992 0.32 3.324 0.466 4.73 0.252-0.46 0.546-0.723 0.859-0.723 0.951 0 1.721 2.427 1.721 5.422s-0.77 5.422-1.721 5.422-1.721-2.427-1.721-5.422c0-1.685 0.244-3.191 0.627-4.185-0.018-0.169-0.037-0.356-0.058-0.557l-1.852 6.351v0.051c0 0.343-0.086 0.623-0.194 0.634l-0.13 1.553h0.132v0.409h-0.418v-0.409h0.167l0.137-1.645c-0.028-0.054-0.052-0.129-0.069-0.218l-0.623-0.424c-0.213 2.235-0.871 3.862-1.649 3.862-0.951 0-1.721-2.427-1.721-5.422s0.77-5.422 1.721-5.422" fill="#fff"/></g></g><text transform="matrix(1 0 0 -1 41.815 710.36)" fill="black" font-family="Helvetica" font-size="9px" font-weight="bold"><tspan x="0 6.1704001 8.6724005 13.6764 16.1784 22.1814 27.680401 32.684399 36.185398 41.1894 46.6884 49.685398 52.187401 57.191399 62.690399 67.694397 70.196404 78.197403 83.201401 86.7024 91.706398 94.208397 99.707397 105.2064 110.2104" y="0">A – Shared-lane markings </tspan><tspan x="3.096 8.5950003 14.094 16.596001 21.6 24.101999 27.099001 34.101002 39.599998 42.597 49.598999 54.603001 59.606998 62.109001 67.112999 70.110001 73.611 78.614998 83.619003 86.615997 89.117996 96.120003 98.622002 101.619 107.118" y="9.5039997">on a two-way street with </tspan><tspan x="12.6 18.099001 23.103001 26.604 31.608 34.110001 39.609001 45.108002 47.610001 53.109001 58.608002 61.110001 66.609001 72.108002 77.112 79.613998 84.617996 87.120003 92.619003" y="19.007999">parking on one side</tspan></text><g transform="translate(375.09 407.88)"><path d="m0 0v78.92l-3.111-21.215 0.282-3.677 2.263 1.98" stroke="#000"/></g><g transform="translate(378.19 455.42)"><path d="m0 0h2.665v-22.176h-3.09l-10.348 17.914h-0.056v-17.914h-2.665v22.176h3.259l10.177-17.913h0.058z"/></g><text transform="matrix(1 0 0 -1 203.72 710.36)" fill="black" font-family="Helvetica" font-size="9px" font-weight="bold"><tspan x="0 6.4980001 9 14.004 16.506001 22.509001 28.007999 33.012001 36.513 41.516998 47.015999 50.013 52.514999 57.519001 63.018002 68.022003 70.524002 78.525002 83.528999 87.029999 92.033997 94.536003 100.035 105.534" y="0">B – Shared-lane marking </tspan><tspan x="13.77 19.268999 24.768 27.27 32.273998 37.772999 40.275002 45.278999 50.778 56.277 59.778 65.277 70.280998 75.285004 80.783997 83.286003 86.282997" y="9.5039997">on an approach to</tspan><tspan x="20.763 25.767 31.266001 33.768002 36.27 41.769001 44.765999 49.77 53.271 58.275002 63.278999 68.282997 71.279999 73.781998 79.280998" y="19.007999">an intersection</tspan><tspan x="207.468 213.966 216.468 221.472 223.974 229.97701 235.476 240.48 243.981 248.985 254.48399 257.48099 259.983 264.987 270.48599 275.48999 277.992 285.99301 290.99701 294.49799 299.50201 302.004 307.50299 313.00201" y="0.0089999996">C – Shared-lane marking </tspan><tspan x="219.735 226.737 229.239 232.23599 237.735 240.237 245.73599 251.235 254.23199 256.73401 262.233 267.73199 272.73599 275.23801 277.73999 283.23901 285.741 290.745 295.74899 300.75299" y="9.5129995">with optional black </tspan><tspan x="213.228 218.72701 223.731 228.735 233.739 239.23801 242.739 248.23801 253.737 259.23599 264.73499 267.237 275.23801 280.242 283.74301 288.74701 291.24899 296.74799 302.24701" y="19.017">background markings</tspan></text><text transform="matrix(1 0 0 -1 137.38 655.68)" fill="black" font-family="Helvetica" font-size="8px"><tspan x="0 1.776 6.224 10.224 14.224 16.448 18.672001 23.120001 27.568001" y="0">less than</tspan><tspan x="0 4.448 8.8959999 11.12 13.344" y="9">14 ft</tspan><tspan x="221.744 227.08 228.856 233.304 237.304 241.304 243.528 247.976 252.424 256.42401 260.42401 264.87201 267.53601 271.98401 276.43201 280.88" y="47.944">Black background</tspan><tspan x="217.312 223.976 228.424 231.088 235.088 236.864 241.312 245.75999 249.75999 251.98399 254.64799 259.09601 263.54401 265.76801 267.54401 271.992 276.44 280.888 282.664" y="56.944">markings (optional)</tspan></text><g transform="translate(84.822 640.55)"><path d="m0 0h-12.605" fill="none" stroke="#000" stroke-width=".75"/></g><g clip-path="url(#e)"><g transform="translate(71.696 640.01)"><path d="m0 0c0.869-0.262 1.434-0.504 2.129-0.783v2.648c-0.248-0.118-1.26-0.52-2.129-0.783-0.928-0.28-1.771-0.473-2.316-0.541 0.545-0.068 1.388-0.261 2.316-0.541"/></g><g transform="translate(85.343 641.09)"><path d="m0 0c-0.869 0.263-1.434 0.504-2.129 0.783v-2.648c0.248 0.119 1.26 0.521 2.129 0.783 0.928 0.281 1.771 0.473 2.316 0.541-0.545 0.068-1.388 0.261-2.316 0.541"/></g><g transform="translate(78.517 644.11)"><path d="m0 0c0 17.496 48.324 14.368 56.523 14.368" fill="none" stroke="#000" stroke-width=".75"/></g><g transform="translate(77.979 642.87)"><path d="m0 0c-0.263 0.868-0.504 1.433-0.783 2.129h2.648c-0.118-0.249-0.521-1.261-0.783-2.129-0.28-0.929-0.473-1.771-0.541-2.317-0.068 0.546-0.261 1.388-0.541 2.317"/></g><path d="m289.4 461.3h-67.828v224.08h67.828z" fill="#b1b4b6" fill-rule="evenodd"/><g transform="translate(228.06 461.3)"><path d="m0 0v220.08" fill="none" stroke="#ffd046" stroke-width="2"/></g><g transform="translate(247.34 615.04)"><path d="m0 0v63.341" fill="none" stroke="#fff" stroke-width="2"/></g><g transform="translate(266.62 615.04)"><path d="m0 0v63.341" fill="none" stroke="#fff" stroke-width="2"/></g><g transform="translate(266.62 528.38)"><path d="m0 0v-67.085" fill="none" stroke="#fff" stroke-width="2"/></g><g transform="translate(285.91 681.38)"><path d="m0 0v-153" fill="none" stroke="#fff" stroke-width="2"/></g><g transform="translate(225.06 681.38)"><path d="m0 0v-220.08" fill="none" stroke="#ffd046" stroke-width="2"/></g><g transform="translate(285.91 678.38)"><path d="m0 0h-56.844" fill="none" stroke="#fff" stroke-width="6"/></g><g transform="translate(281.33 664.96)"><path d="m0 0c-1.602 1.439-3.199 2.834-4.803 4.273 0.358-1.246 0.715-2.494 1.073-3.738-0.358-0.01-0.715-0.017-1.073-0.029-3.175-0.233-4.867-1.908-5.332-4.781v-4.809h1.594v3.215c0.353 2.242 1.48 3.621 3.738 3.738h1.073c-0.182-1.246-0.368-2.492-0.549-3.738 1.427 1.941 2.849 3.928 4.279 5.869" fill="#fff" fill-rule="evenodd"/></g><g transform="translate(281.33 601.27)"><path d="m0 0c-1.602 1.44-3.199 2.834-4.803 4.273 0.358-1.246 0.715-2.494 1.073-3.738-0.358-0.01-0.715-0.017-1.073-0.029-3.175-0.233-4.867-1.908-5.332-4.781v-4.809h1.594v3.215c0.353 2.242 1.48 3.621 3.738 3.738h1.073c-0.182-1.246-0.368-2.492-0.549-3.738 1.427 1.941 2.849 3.928 4.279 5.869" fill="#fff" fill-rule="evenodd"/></g><g transform="translate(279.71 474.49)"><path d="m0 0c-0.623 0-1.15 1.279-1.33 3.049l1.242 0.84c0.027-0.045 0.057-0.073 0.088-0.073 0.102 0 0.184 0.258 0.184 0.575 0 0.275-0.063 0.506-0.145 0.56l-0.766 3.19c0.213 0.406 0.461 0.64 0.727 0.64 0.772 0 1.398-1.967 1.398-4.39 0-2.426-0.626-4.391-1.398-4.391m-1.396 4.391c0 1.277 0.173 2.429 0.453 3.232l0.707-2.953-1.151-0.777c-8e-3 0.162-9e-3 0.328-9e-3 0.498m-0.309-0.715-0.549-0.371 0.637 7.133 0.476-1.997c-0.355-0.99-0.58-2.439-0.58-4.05 0-0.243 6e-3 -0.481 0.016-0.715m-0.779 0.228-0.084 1.014h0.132v0.408h-0.419v-0.408h0.166l0.086-1.006-1.801 6.158c0.029 0.293 0.058 0.596 0.09 0.897h2.459zm-1.77 0.487c0-2.426-0.627-4.391-1.396-4.391-0.774 0-1.399 1.965-1.399 4.391 0 2.423 0.625 4.39 1.399 4.39 0.273 0 0.527-0.248 0.744-0.677-0.172-1.17-0.506-2.43-0.748-3.141-0.1-2e-3 -0.18-0.258-0.18-0.572 0-0.317 0.08-0.575 0.184-0.575 0.091 0 0.168 0.219 0.177 0.504 0.12 0.346 0.274 0.858 0.426 1.471 0.113 0.455 0.256 1.084 0.363 1.768 0.264-0.801 0.43-1.924 0.43-3.168m4.254 5.412c-0.338 0-0.654-0.309-0.922-0.842l-0.603 2.521 0.078 0.891c0.379 0.104 0.59 0.555 0.576 0.992-0.012 0.424-0.389 0.106-0.807 0.09-0.113-6e-3 -0.72 4e-3 -0.717-0.348 4e-3 -0.357 0.391-0.652 0.665-0.732l-0.049-0.545h-2.451c0.052 0.535 0.099 1.029 0.136 1.414 0.032 0.326 0.055 0.572 0.067 0.695l-0.178 0.43 0.084 0.268h0.656v0.679h-0.746l-0.32-1.019 0.205-0.494c-0.096-0.99-0.32-3.319-0.465-4.723-0.254 0.459-0.547 0.723-0.859 0.723-0.953 0-1.723-2.424-1.723-5.412 0-2.991 0.77-5.412 1.723-5.412 0.949 0 1.72 2.421 1.72 5.412 0 1.681-0.244 3.183-0.627 4.177 0.018 0.168 0.037 0.356 0.057 0.555l1.854-6.338v-0.051c0-0.343 0.085-0.623 0.193-0.634l0.131-1.551h-0.133v-0.408h0.418v0.408h-0.166l-0.139 1.644c0.029 0.053 0.053 0.127 0.069 0.217l0.625 0.422c0.212-2.23 0.871-3.853 1.648-3.853 0.951 0 1.723 2.421 1.723 5.412 0 2.988-0.772 5.412-1.723 5.412" fill="#fff"/></g><g transform="translate(273.92 515.72)"><path d="m0 0 2.975 9.404 2.943-9.404-2.094 1.758-0.029-10.012h-1.731v10.012z" fill="#fff" fill-rule="evenodd"/></g><g transform="translate(247.34 571.69)"><path d="m0 0v-110.39" fill="none" stroke="#fff" stroke-dasharray="14.4, 43.2" stroke-width="2"/></g><g transform="translate(266.62 602.19)"><path d="m0 0-1e-3 -57.881" fill="none" stroke="#fff" stroke-dasharray="4.32, 12.96" stroke-width="2"/></g><g transform="translate(289.4 685.38)"><path d="m0 0v-224.08" fill="none" stroke="#000"/></g><g transform="translate(297.26 638.92)"><path d="m0 0v-10.912" fill="none" stroke="#000" stroke-miterlimit="2.613" stroke-width=".75"/></g><g transform="translate(296.72 640.16)"><path d="m0 0c-0.262-0.869-0.504-1.433-0.784-2.129h2.649c-0.118 0.248-0.521 1.261-0.782 2.129-0.281 0.929-0.474 1.771-0.542 2.317-0.068-0.546-0.26-1.388-0.541-2.317"/></g><g transform="translate(297.28 524.83)"><path d="m0 0v-3.741" fill="none" stroke="#000" stroke-miterlimit="2.613" stroke-width=".75"/></g><g transform="translate(296.74 526.07)"><path d="m0 0c-0.262-0.869-0.504-1.433-0.784-2.129h2.649c-0.118 0.248-0.521 1.261-0.782 2.129-0.281 0.929-0.474 1.771-0.542 2.317-0.068-0.546-0.26-1.388-0.541-2.317"/></g></g><text transform="matrix(1 0 0 -1 302.79 483.33)" fill="black" font-family="Helvetica" font-size="8px"><tspan x="0 5.776 10.224 12.888" y="0">R4-4</tspan></text><g transform="translate(294.94 644.24)"><path d="m0 0v1.245h4.797v-1.245h1.758v-1.761h-8.473v1.761z"/></g><g transform="translate(294.96 530.14)"><path d="m0 0v1.246h4.797v-1.246h1.758v-1.76h-8.473v1.76z"/></g><g transform="translate(236.77 467.66)"><path d="m0 0v6.353h-1.559l2.577 4.377 2.398-4.377h-1.439v-6.353z"/></g><g transform="translate(256.06 467.66)"><path d="m0 0v6.353h-1.559l2.576 4.377 2.399-4.377h-1.439v-6.353z"/></g><g transform="translate(276.27 643.44)"><path d="m0 0-4.547-5.457v-1.363l4.547 5.456 4.546-5.456v1.363z" fill="#fff"/></g><g transform="translate(276.27 640.71)"><path d="m0 0-4.547-5.456v-1.364l4.547 5.456 4.546-5.456v1.364z" fill="#fff"/></g><g clip-path="url(#d)"><g transform="translate(279.09 619)"><path d="m0 0c-0.623 0-1.149 1.283-1.33 3.055l1.242 0.843c0.026-0.046 0.056-0.073 0.088-0.073 0.101 0 0.182 0.257 0.182 0.574 0 0.277-0.062 0.507-0.144 0.562l-0.764 3.196c0.211 0.407 0.46 0.641 0.726 0.641 0.771 0 1.396-1.97 1.396-4.399s-0.625-4.399-1.396-4.399m-1.397 4.399c0 1.282 0.174 2.434 0.452 3.239l0.707-2.959-1.15-0.78c-5e-3 0.165-9e-3 0.332-9e-3 0.5m-0.309-0.715-0.546-0.371 0.634 7.144 0.477-1.999c-0.356-0.993-0.58-2.443-0.58-4.059 0-0.243 5e-3 -0.482 0.015-0.715m-0.778 0.229-0.085 1.015h0.133v0.409h-0.418v-0.409h0.166l0.084-1.007-1.799 6.169c0.029 0.293 0.059 0.597 0.088 0.897h2.459zm-1.77 0.486c0-2.429-0.626-4.399-1.397-4.399s-1.396 1.97-1.396 4.399 0.625 4.399 1.396 4.399c0.274 0 0.53-0.249 0.746-0.679-0.172-1.172-0.506-2.434-0.747-3.146-0.1-2e-3 -0.181-0.258-0.181-0.574 0-0.317 0.082-0.574 0.182-0.574 0.093 0 0.17 0.22 0.181 0.503 0.118 0.348 0.272 0.861 0.424 1.474 0.113 0.456 0.254 1.087 0.362 1.771 0.265-0.8 0.43-1.926 0.43-3.174m4.254 5.422c-0.339 0-0.655-0.309-0.922-0.842l-0.603 2.526 0.079 0.892c0.378 0.102 0.587 0.555 0.574 0.993-0.012 0.425-0.387 0.106-0.805 0.089-0.114-4e-3 -0.721 4e-3 -0.718-0.346 4e-3 -0.36 0.392-0.654 0.664-0.735l-0.048-0.546h-2.451c0.052 0.537 0.1 1.032 0.137 1.416 0.031 0.328 0.055 0.575 0.067 0.698l-0.179 0.429 0.084 0.268h0.657v0.683h-0.747l-0.321-1.023 0.206-0.495c-0.095-0.992-0.32-3.324-0.466-4.73-0.252 0.46-0.546 0.723-0.859 0.723-0.951 0-1.721-2.427-1.721-5.422s0.77-5.422 1.721-5.422 1.721 2.427 1.721 5.422c0 1.685-0.244 3.191-0.627 4.185 0.018 0.169 0.037 0.357 0.058 0.557l1.852-6.351v-0.051c0-0.343 0.086-0.623 0.194-0.633l0.13-1.554h-0.132v-0.409h0.418v0.409h-0.167l-0.137 1.645c0.028 0.054 0.052 0.129 0.069 0.218l0.623 0.424c0.213-2.234 0.871-3.862 1.649-3.862 0.951 0 1.721 2.427 1.721 5.422s-0.77 5.422-1.721 5.422" fill="#fff"/></g><g transform="translate(296.95 491.96)"><path d="m0 0c-0.999 0-1.812 0.813-1.812 1.812v23.625c0 1 0.813 1.813 1.812 1.813h29.024c0.999 0 1.813-0.813 1.813-1.813v-23.625c0-0.999-0.814-1.812-1.813-1.812z" fill="#fff"/></g><g transform="translate(325.97 519.34)"><path d="m0 0h-29.025c-1.068 0-1.937-0.869-1.937-1.937v-23.625c0-1.069 0.869-1.938 1.937-1.938h29.025c1.068 0 1.937 0.869 1.937 1.938v23.625c0 1.068-0.869 1.937-1.937 1.937m0-0.25c0.932 0 1.687-0.755 1.687-1.687v-23.625c0-0.932-0.755-1.688-1.687-1.688h-29.025c-0.932 0-1.687 0.756-1.687 1.688v23.625c0 0.932 0.755 1.687 1.687 1.687z"/></g><g transform="translate(296.95 492.54)"><path d="m0 0c-0.682 0-1.237 0.555-1.237 1.237v23.625c0 0.683 0.555 1.238 1.237 1.238h29.025c0.682 0 1.238-0.555 1.238-1.238v-23.625c0-0.682-0.556-1.237-1.238-1.237z"/></g><g transform="translate(296.95 493.21)"><path d="m0 0c-0.31 0-0.562 0.252-0.562 0.562v23.625c0 0.311 0.252 0.563 0.562 0.563h29.025c0.31 0 0.562-0.252 0.562-0.563v-23.625c0-0.31-0.252-0.562-0.562-0.562z" fill="#fff"/></g><g transform="translate(310.51 503.58)"><path d="m0 0 3.771 2.177 1.434-2.484-3.771-2.177z"/></g><g transform="translate(313.76 499.5)"><path d="m0 0c0.109-9e-3 0.223 0.015 0.325 0.074 0.269 0.155 0.361 0.499 0.206 0.768-0.036 0.061-0.081 0.113-0.133 0.155l-2.521 2.08-0.54 3.224c-0.011 0.066-0.033 0.131-0.069 0.192-0.155 0.269-0.499 0.361-0.768 0.206-0.102-0.059-0.179-0.146-0.226-0.245l-2.83-5.937z"/></g><g transform="translate(306.45 512.84)"><path d="m0 0h0.517c0.29 0 0.479 0.202 0.479 0.518 0 0.348-0.209 0.606-0.479 0.606h-0.517zm0 2.589v-0.96h0.542c0.24 0 0.391 0.202 0.391 0.531 0 0.31-0.111 0.429-0.391 0.429zm-0.517-3.094v3.6h1.135c0.478 0 0.819-0.379 0.819-0.935 0-0.33-0.088-0.48-0.378-0.783 0.277-0.228 0.441-0.531 0.441-0.897 0-0.539-0.429-0.985-0.958-0.985z"/></g><g transform="translate(308.56 515.94)"><path d="m0 0h1.697v-0.505h-1.178v-0.91h0.747v-0.493h-0.747v-1.187h1.318v-0.505h-1.837z"/></g><g transform="translate(312.06 512.27)"><path d="m0 0c-0.328 0-1.116 0.061-1.116 1.857s0.75 1.869 1.078 1.869c0.52 0 0.913-0.379 0.938-0.909h-0.52c-0.012 0.24-0.177 0.404-0.431 0.404-0.174 0-0.57-0.054-0.57-1.365 0-1.31 0.434-1.351 0.608-1.351 0.266 0 0.393 0.175 0.393 0.556v0.24h-0.406v0.505h0.926v-0.745c0-0.901-0.593-1.061-0.9-1.061"/></g><path d="m313.68 515.94h0.504v-3.6h-0.504z"/><g transform="translate(315.49 514.75)"><path d="m0 0v-2.412h-0.517v3.6h0.517l0.983-2.16v2.16h0.517v-3.6h-0.39z"/></g><g transform="translate(298.71 509.54)"><path d="m0 0c0 0.408-0.089 0.531-0.405 0.531h-0.221v-0.985h0.298c0.252 0 0.328 0.113 0.328 0.454m0.089-0.81 0.366-1.792h-0.493l-0.343 1.68h-0.245v-1.68h-0.455v3.6h0.702c0.557 0 0.847-0.341 0.847-1.011 0-0.344-0.102-0.642-0.379-0.797"/></g><path d="m299.64 510.54h0.468v-3.6h-0.468z"/><g transform="translate(301.49 510.59)"><path d="m0 0c0.406 0 0.673-0.253 0.711-0.695h-0.47c-0.012 0.152-0.102 0.227-0.228 0.227-0.226 0-0.381-0.192-0.381-1.388s0.155-1.39 0.381-1.39c0.191 0 0.241 0.222 0.241 0.443v0.429h-0.216v0.467h0.673v-0.896c0-0.236 0.034-0.91-0.71-0.91-0.65 0-0.839 0.498-0.839 1.857 0 1.596 0.345 1.856 0.838 1.856"/></g><g transform="translate(303.84 508.62)"><path d="m0 0h-0.642v-1.68h-0.453v3.6h0.453v-1.452h0.643v1.452h0.453v-3.6h-0.454z"/></g><g transform="translate(305.6 506.94)"><path d="m0 0h-0.454v3.132h-0.445v0.468h1.369v-0.468h-0.47z"/></g><g transform="translate(309.1 506.94)"><path d="m0 0h-0.454v3.132h-0.445v0.468h1.369v-0.468h-0.47z"/></g><g transform="translate(309.98 507.82)"><path d="m0 0v2.716h0.454v-2.779c0-0.265 0.111-0.417 0.325-0.417 0.202 0 0.316 0.152 0.316 0.417v2.779h0.454v-2.716c0-0.751-0.396-0.947-0.77-0.947-0.406 0-0.779 0.225-0.779 0.947"/></g><g transform="translate(313.24 509.54)"><path d="m0 0c0 0.408-0.089 0.531-0.405 0.531h-0.221v-0.985h0.298c0.252 0 0.328 0.113 0.328 0.454m0.089-0.81 0.366-1.792h-0.493l-0.343 1.68h-0.245v-1.68h-0.455v3.6h0.702c0.557 0 0.847-0.341 0.847-1.011 0-0.344-0.102-0.642-0.379-0.797"/></g><g transform="translate(314.62 509.07)"><path d="m0 0v-2.135h-0.454v3.6h0.454l0.642-1.793v1.793h0.453v-3.6h-0.391z"/></g><g transform="translate(317.86 510.54)"><path d="m0 0h0.452v-3.183h0.917v-0.417h-1.369z"/></g><g transform="translate(320.17 508.36)"><path d="m0 0h0.391l-0.189 0.948zm0.492-0.468h-0.593l-0.202-0.959h-0.467l0.732 3.6h0.467l0.745-3.6h-0.479z"/></g><g transform="translate(322.2 509.07)"><path d="m0 0v-2.135h-0.454v3.6h0.454l0.642-1.793v1.793h0.453v-3.6h-0.391z"/></g><g transform="translate(323.93 510.54)"><path d="m0 0h1.318v-0.468h-0.866v-0.922h0.578v-0.479h-0.578v-1.263h0.917v-0.468h-1.369z"/></g><g transform="translate(299.87 495.24)"><path d="m0 0h-0.467v1.629l-0.739 1.971h0.492l0.486-1.263 0.475 1.263h0.492l-0.739-1.971z"/></g><path d="m301.11 498.84h0.468v-3.6h-0.468z"/><g transform="translate(302.37 498.84)"><path d="m0 0h1.318v-0.468h-0.866v-0.922h0.578v-0.479h-0.578v-1.263h0.917v-0.468h-1.369z"/></g><g transform="translate(304.32 498.84)"><path d="m0 0h0.452v-3.183h0.917v-0.417h-1.369z"/></g><g transform="translate(306.64 498.37)"><path d="m0 0v-2.665h0.289c0.351 0 0.334 0.541 0.334 1.337 0 1.193-0.11 1.328-0.334 1.328zm-0.454-3.132v3.6h0.743c0.302 0 0.806-0.016 0.806-1.794s-0.504-1.806-0.806-1.806z"/></g><g transform="translate(315.89 496.9)"><path d="m0 0v-1.2h0.352c0.214 0 0.278 0.115 0.278 0.48 0 0.568-0.064 0.72-0.291 0.72zm0 1.465v-0.985h0.314c0.203 0 0.252 0.114 0.252 0.493 0 0.354-0.076 0.492-0.302 0.492zm0.402-3.132h-0.856v3.6h0.655c0.632 0 0.831-0.24 0.831-0.96 0-0.354-0.05-0.543-0.177-0.733 0.166-0.181 0.24-0.497 0.24-0.922 0-0.645-0.239-0.985-0.693-0.985"/></g><path d="m317.56 498.84h0.468v-3.6h-0.468z"/><g transform="translate(319.43 496.94)"><path d="m0 0-0.158-0.353v-1.352h-0.454v3.6h0.454v-1.15l0.55 1.15h0.53l-0.593-1.238 0.643-2.362h-0.492z"/></g><g transform="translate(320.98 498.84)"><path d="m0 0h1.318v-0.468h-0.866v-0.922h0.578v-0.479h-0.578v-1.263h0.917v-0.468h-1.369z"/></g><g transform="translate(323.79 496.01)"><path d="m0 0c0 0.902-0.993 1.186-0.993 2.034 0 0.493 0.3 0.846 0.731 0.846 0.442 0 0.679-0.278 0.73-0.846h-0.468c-0.013 0.278-0.085 0.392-0.25 0.392-0.177 0-0.275-0.153-0.275-0.392 0-0.271 0.152-0.369 0.369-0.628 0.16-0.19 0.624-0.651 0.624-1.406 0-0.351-0.226-0.833-0.756-0.833-0.505 0-0.768 0.328-0.793 0.959h0.468c0-0.138 0.019-0.492 0.325-0.492 0.177 0 0.288 0.139 0.288 0.366"/></g><g transform="translate(310.78 495.24)"><path d="m0 0h-0.454v3.132h-0.445v0.468h1.369v-0.468h-0.47z"/></g><g transform="translate(312.12 497.03)"><path d="m0 0c0-0.629 9e-3 -1.39 0.354-1.39s0.354 0.761 0.354 1.39-9e-3 1.39-0.354 1.39-0.354-0.761-0.354-1.39m0.354-1.857c-0.808 0-0.828 1.016-0.828 1.857s0.02 1.856 0.828 1.856 0.829-1.015 0.829-1.856-0.021-1.857-0.829-1.857"/></g></g><text transform="matrix(1 0 0 -1 299.56 628.46)" fill="black" font-family="Helvetica" font-size="8px"><tspan x="0 5.776 10.224 12.888 17.336" y="0">R3-7R</tspan><tspan x="-4.1999998 1.576 6.0240002 8.6879997 13.136 17.584" y="47.368">R3-7bP</tspan></text><g clip-path="url(#c)"><g transform="translate(297.04 599.84)"><path d="m0 0c-0.999 0-1.812 0.813-1.812 1.812v23.625c0 1 0.813 1.813 1.812 1.813h23.625c0.999 0 1.812-0.813 1.812-1.813v-23.625c0-0.999-0.813-1.812-1.812-1.812z" fill="#fff"/></g><g transform="translate(320.67 627.21)"><path d="m0 0h-23.625c-1.068 0-1.937-0.869-1.937-1.937v-23.625c0-1.069 0.869-1.938 1.937-1.938h23.625c1.068 0 1.937 0.869 1.937 1.938v23.625c0 1.068-0.869 1.937-1.937 1.937m0-0.25c0.928 0 1.687-0.759 1.687-1.687v-23.625c0-0.929-0.759-1.688-1.687-1.688h-23.625c-0.928 0-1.687 0.759-1.687 1.688v23.625c0 0.928 0.759 1.687 1.687 1.687z"/></g><g transform="translate(297.04 600.41)"><path d="m0 0c-0.682 0-1.237 0.555-1.237 1.237v23.625c0 0.683 0.555 1.238 1.237 1.238h23.625c0.682 0 1.237-0.555 1.237-1.238v-23.625c0-0.682-0.555-1.237-1.237-1.237z"/></g><g transform="translate(297.04 601.09)"><path d="m0 0c-0.31 0-0.562 0.252-0.562 0.562v23.625c0 0.311 0.252 0.563 0.562 0.563h23.625c0.31 0 0.562-0.252 0.562-0.563v-23.625c0-0.31-0.252-0.562-0.562-0.562z" fill="#fff"/></g><g transform="translate(298.02 622.41)"><path d="m0 0v-0.909h0.529c0.303 0 0.467 0.164 0.467 0.455 0 0.278-0.189 0.454-0.466 0.454zm0.492-1.402h-0.492v-1.693h-0.517v3.6h1.072c0.565 0 0.945-0.379 0.945-0.959 0-0.43-0.177-0.746-0.517-0.872l0.517-1.769h-0.529z"/></g><path d="m300.13 622.91h0.504v-3.6h-0.504z"/><g transform="translate(302.47 619.25)"><path d="m0 0c-0.328 0-1.116 0.061-1.116 1.857s0.75 1.869 1.078 1.869c0.52 0 0.913-0.379 0.938-0.909h-0.52c-0.012 0.24-0.177 0.404-0.431 0.404-0.174 0-0.57-0.054-0.57-1.365 0-1.31 0.434-1.351 0.608-1.351 0.266 0 0.393 0.175 0.393 0.556v0.24h-0.406v0.505h0.926v-0.745c0-0.901-0.593-1.061-0.9-1.061"/></g><g transform="translate(305.59 620.94)"><path d="m0 0h-0.984v-1.629h-0.516v3.6h0.516v-1.466h0.984v1.466h0.517v-3.6h-0.517z"/></g><g transform="translate(307.79 619.31)"><path d="m0 0h-0.519v3.12h-0.659v0.48h1.837v-0.48h-0.659z"/></g><g transform="translate(310.7 622.91)"><path d="m0 0h0.519v-3.12h1.318v-0.48h-1.837z"/></g><g transform="translate(313.64 620.8)"><path d="m0 0h0.519l-0.266 1.036zm0.646-0.505h-0.772l-0.241-0.985h-0.519l0.899 3.6h0.507l0.898-3.6h-0.519z"/></g><g transform="translate(316.08 621.73)"><path d="m0 0v-2.412h-0.517v3.6h0.517l0.983-2.16v2.16h0.517v-3.6h-0.39z"/></g><g transform="translate(318.37 622.91)"><path d="m0 0h1.697v-0.505h-1.178v-0.91h0.747v-0.493h-0.747v-1.187h1.318v-0.505h-1.837z"/></g><g transform="translate(304.95 613.74)"><path d="m0 0-0.838-2.526-0.838 2.526v-2.526h-0.648v4.5h0.648l0.838-2.526 0.838 2.526h0.648v-4.5h-0.648z"/></g><g transform="translate(306.58 612.52)"><path d="m0 0v3.192h0.646v-3.236c0-0.424 0.247-0.711 0.63-0.711 0.346 0 0.599 0.284 0.599 0.711v3.236h0.646v-3.202c0-1.023-0.791-1.377-1.245-1.377-0.416 0-1.276 0.271-1.276 1.387"/></g><g transform="translate(311.16 614.07)"><path d="m0 0c0.492-0.309 1.23-0.741 1.23-1.63 0-0.728-0.555-1.31-1.252-1.31-0.793 0-1.269 0.671-1.269 1.406h0.635c0-0.384 0.19-0.774 0.634-0.774 0.348 0 0.633 0.315 0.633 0.678 0 0.979-1.68 0.922-1.68 2.18 0 0.647 0.508 1.167 1.157 1.167 0.635 0 1.126-0.489 1.142-1.168h-0.619c-0.015 0.316-0.238 0.521-0.523 0.521-0.301 0-0.539-0.221-0.539-0.52 0-0.293 0.156-0.365 0.451-0.55"/></g><g transform="translate(314.27 611.21)"><path d="m0 0h-0.649v3.9h-0.824v0.6h2.296v-0.6h-0.823z"/></g><g transform="translate(298.54 604.01)"><path d="m0 0h-0.519v3.12h-0.659v0.48h1.837v-0.48h-0.659z"/></g><g transform="translate(299.7 605.06)"><path d="m0 0v2.554h0.517v-2.59c0-0.338 0.198-0.568 0.504-0.568 0.277 0 0.479 0.227 0.479 0.568v2.59h0.517v-2.562c0-0.819-0.633-1.101-0.996-1.101-0.333 0-1.021 0.216-1.021 1.109"/></g><g transform="translate(303.03 607.11)"><path d="m0 0v-0.909h0.529c0.303 0 0.467 0.164 0.467 0.455 0 0.278-0.189 0.454-0.466 0.454zm0.492-1.402h-0.492v-1.693h-0.517v3.6h1.072c0.565 0 0.945-0.379 0.945-0.959 0-0.43-0.177-0.746-0.517-0.872l0.517-1.769h-0.529z"/></g><g transform="translate(305.66 606.43)"><path d="m0 0v-2.412h-0.517v3.6h0.517l0.983-2.16v2.16h0.517v-3.6h-0.39z"/></g><g transform="translate(309.92 607.11)"><path d="m0 0v-0.909h0.529c0.303 0 0.467 0.164 0.467 0.455 0 0.278-0.189 0.454-0.466 0.454zm0.492-1.402h-0.492v-1.693h-0.517v3.6h1.072c0.565 0 0.945-0.379 0.945-0.959 0-0.43-0.177-0.746-0.517-0.872l0.517-1.769h-0.529z"/></g><path d="m312.04 607.61h0.504v-3.6h-0.504z"/><g transform="translate(314.38 603.95)"><path d="m0 0c-0.328 0-1.116 0.061-1.116 1.857s0.75 1.869 1.078 1.869c0.52 0 0.913-0.379 0.938-0.909h-0.52c-0.012 0.24-0.177 0.404-0.431 0.404-0.174 0-0.57-0.054-0.57-1.365 0-1.31 0.434-1.351 0.608-1.351 0.266 0 0.393 0.175 0.393 0.556v0.24h-0.406v0.505h0.926v-0.745c0-0.901-0.593-1.061-0.9-1.061"/></g><g transform="translate(317.5 605.64)"><path d="m0 0h-0.984v-1.629h-0.516v3.6h0.516v-1.466h0.984v1.466h0.517v-3.6h-0.517z"/></g><g transform="translate(319.69 604.01)"><path d="m0 0h-0.519v3.12h-0.659v0.48h1.837v-0.48h-0.659z"/></g><g transform="translate(299.41 588.79)"><path d="m0 0c-0.813 0-1.476 0.662-1.476 1.475v8.1c0 0.813 0.663 1.475 1.476 1.475h18.899c0.814 0 1.476-0.662 1.476-1.475v-8.1c0-0.813-0.662-1.475-1.476-1.475z" fill="#fff"/></g><g transform="translate(318.31 599.96)"><path d="m0 0h-18.9c-0.882 0-1.6-0.718-1.6-1.6v-8.1c0-0.882 0.718-1.6 1.6-1.6h18.9c0.882 0 1.6 0.718 1.6 1.6v8.1c0 0.882-0.718 1.6-1.6 1.6m0-0.25c0.742 0 1.35-0.607 1.35-1.35v-8.1c0-0.742-0.608-1.35-1.35-1.35h-18.9c-0.743 0-1.35 0.608-1.35 1.35v8.1c0 0.743 0.607 1.35 1.35 1.35z"/></g><g transform="translate(318.87 590.26)"><path d="m0 0v8.1c0 0.309-0.253 0.562-0.562 0.562h-18.901c-0.309 0-0.562-0.253-0.562-0.562v-8.1c0-0.309 0.253-0.562 0.562-0.562h18.901c0.309 0 0.562 0.253 0.562 0.562m-0.562-1.013h-18.901c-0.556 0-1.012 0.456-1.012 1.013v8.1c0 0.557 0.456 1.012 1.012 1.012h18.901c0.556 0 1.012-0.455 1.012-1.012v-8.1c0-0.557-0.456-1.013-1.012-1.013"/></g><g transform="translate(302.64 597.91)"><path d="m0 0h1.59v-0.426h-1.164v-0.663h0.785v-0.436h-0.785v-0.739h1.249v-0.436h-1.675z"/></g><g transform="translate(305.51 596.11)"><path d="m0 0-0.436-0.9h-0.483l0.673 1.392-0.626 1.308h0.484l0.388-0.805 0.388 0.805h0.484l-0.635-1.308 0.682-1.392h-0.483z"/></g><g transform="translate(306.83 596.57)"><path d="m0 0c0 0.38 0.076 1.392 0.995 1.392 0.391 0 0.658-0.159 0.843-0.549l-0.398-0.171c-0.138 0.199-0.207 0.284-0.445 0.284-0.565 0-0.559-0.787-0.559-0.956 0-0.168-0.01-0.967 0.578-0.967 0.206 0 0.324 0.125 0.417 0.313l0.407-0.152c-0.152-0.375-0.407-0.596-0.815-0.596-0.972 0-1.023 1.073-1.023 1.402"/></g><g transform="translate(309.26 597.91)"><path d="m0 0h1.59v-0.426h-1.164v-0.663h0.785v-0.436h-0.785v-0.739h1.249v-0.436h-1.675z"/></g><g transform="translate(311.82 596.82)"><path d="m0 0h0.601c0.339 0 0.375 0.244 0.375 0.331 0 0.127-0.095 0.332-0.36 0.332h-0.616zm0.503-0.436h-0.503v-1.175h-0.426v2.7h1.021c0.635 0 0.817-0.516 0.817-0.758 0-0.167-0.092-0.767-0.909-0.767"/></g><g transform="translate(314.44 595.21)"><path d="m0 0h-0.428v2.321h-0.619v0.379h1.675v-0.379h-0.628z"/></g><g transform="translate(301.04 591.89)"><path d="m0 0v-0.739h0.644c0.22 0 0.332 0.104 0.332 0.313 0 0.208-0.144 0.426-0.365 0.426zm0.626 1.099h-0.626v-0.663h0.543c0.242 0 0.376 0.211 0.376 0.388 0 0.18-0.099 0.275-0.293 0.275m-1.052-2.274v2.7h1.023c0.427 0 0.749-0.293 0.749-0.682 0-0.265-0.123-0.464-0.379-0.606 0.284-0.133 0.445-0.363 0.445-0.654 0-0.192-0.108-0.758-0.815-0.758z"/></g><path d="m302.91 593.41h0.432v-2.7h-0.432z"/><g transform="translate(303.94 592.07)"><path d="m0 0c0 0.38 0.076 1.392 0.995 1.392 0.391 0 0.658-0.159 0.843-0.549l-0.398-0.171c-0.138 0.199-0.207 0.284-0.445 0.284-0.565 0-0.559-0.787-0.559-0.956 0-0.168-0.01-0.967 0.578-0.967 0.206 0 0.324 0.125 0.417 0.313l0.407-0.152c-0.152-0.375-0.407-0.596-0.815-0.596-0.972 0-1.023 1.073-1.023 1.402"/></g><g transform="translate(307.51 590.71)"><path d="m0 0h-0.429v1.175l-0.952 1.525h0.515l0.647-1.042 0.657 1.042h0.505l-0.943-1.525z"/></g><g transform="translate(308.8 592.07)"><path d="m0 0c0 0.38 0.076 1.392 0.995 1.392 0.391 0 0.658-0.159 0.843-0.549l-0.398-0.171c-0.138 0.199-0.207 0.284-0.445 0.284-0.565 0-0.559-0.787-0.559-0.956 0-0.168-0.01-0.967 0.578-0.967 0.206 0 0.324 0.125 0.417 0.313l0.407-0.152c-0.152-0.375-0.407-0.596-0.815-0.596-0.972 0-1.023 1.073-1.023 1.402"/></g><g transform="translate(311.23 593.41)"><path d="m0 0h0.426v-2.302h1.249v-0.398h-1.675z"/></g><g transform="translate(313.31 593.41)"><path d="m0 0h1.59v-0.426h-1.164v-0.663h0.785v-0.436h-0.785v-0.739h1.249v-0.436h-1.675z"/></g><g transform="translate(315.26 591.35)"><path d="m0 0 0.407 0.151c0.114-0.255 0.322-0.397 0.578-0.397 0.246 0 0.417 0.17 0.417 0.397 0 0.362-0.417 0.417-0.767 0.559-0.161 0.067-0.521 0.228-0.521 0.673 0 0.531 0.359 0.729 0.843 0.729 0.379 0 0.635-0.218 0.767-0.549l-0.379-0.114c-0.042 0.106-0.197 0.237-0.398 0.237-0.385 0-0.417-0.206-0.417-0.273 0-0.253 0.217-0.303 0.571-0.414 0.361-0.113 0.737-0.279 0.737-0.858 0-0.582-0.473-0.823-0.853-0.823-0.464 0-0.805 0.275-0.985 0.682"/></g></g><g fill="black" font-family="Helvetica"><text transform="matrix(.98 0 0 -1 38.947 443.5)" font-size="16px"><tspan x="0" y="0">*</tspan></text><text transform="matrix(1 0 0 -1 48.848 449.5)" font-size="8px"><tspan x="0 4.888 9.3360004 13.784 16.007999 20.007999 24.455999 28.903999 31.128 35.576 38.240002 40.464001 44.911999 47.136002 49.360001 51.584 56.032001 60.48 62.703999 66.704002 71.152 75.599998 78.264 82.711998 87.160004 89.384003 91.160004 95.608002 100.056 104.504 106.728 113.392 117.84 120.504 124.504 126.28 130.728 135.17599 137.39999 141.39999 145.84801 150.29601 154.744 156.52 160.968" y="0">The center of the shared lane marking should </tspan><tspan x="-0.32800001 4.1199999 8.5679998 10.792 15.24 17.464001 24.128 25.903999 30.351999 32.127998 38.792 43.240002 49.903999 52.127998 56.576 58.799999 61.023998 65.472 69.919998 72.143997 74.367996 76.592003 78.816002 81.040001 83.704002 88.152 94.816002 97.040001 99.264 103.712 107.712 112.16 114.384 118.832 121.056 123.28 127.28 131.728 134.392 138.84 141.064 145.51199 148.17599 150.39999 154.84801 159.29601 163.744" y="8.4960003">be a minimum of 12 ft from face of curb or edge</tspan><tspan x="-0.32800001 4.1199999 6.3439999 8.5679998 13.016 17.464001 21.464001 25.912001 32.576 37.023998 41.472 43.695999" y="16.992001">of pavement </tspan></text><text transform="matrix(.98 0 0 -1 32.86 413)" font-size="16px"><tspan x="0 6.2080002" y="0">**</tspan></text><text transform="matrix(1 0 0 -1 48.848 419)" font-size="8px"><tspan x="0 4.888 9.3360004 13.784 16.007999 20.007999 24.455999 28.903999 31.128 35.576 38.240002 40.464001 44.911999 47.136002 49.360001 51.584 56.032001 60.48 62.703999 66.704002 71.152 75.599998 78.264 82.711998 87.160004 89.384003 91.160004 95.608002 100.056 104.504 106.728 113.392 117.84 120.504 124.504 126.28 130.728 135.17599 137.39999 141.39999 145.84801 150.29601 154.744 156.52 160.968" y="0">The center of the shared lane marking should </tspan><tspan x="-0.32800001 4.1199999 8.5679998 10.792 15.24 17.464001 24.128 25.903999 30.351999 32.127998 38.792 43.240002 49.903999 52.127998 56.576 58.799999 61.023998 65.472 67.695999 69.919998 72.143997 74.367996 76.592003 79.255997 83.704002 90.367996 92.592003 94.816002 99.264 103.264 107.712 109.936 114.384 116.608 118.832 122.832 127.28 129.944 134.392 136.616 141.064 143.728 145.952 150.39999 154.84801 159.29601 163.744" y="8.4960003">be a minimum of 4 ft from face of curb or edge </tspan><tspan x="-0.32800001 4.1199999 6.3439999 8.5679998 13.016 17.464001 21.464001 25.912001 32.576 37.023998 41.472" y="16.992001">of pavement</tspan></text><text transform="matrix(1 0 0 -1 97.278 636.71)" font-size="16px"><tspan x="0" y="0">*</tspan><tspan x="-25.535999 -19.312" y="150.12801">**</tspan></text><text transform="matrix(1 0 0 -1 59.203 384.46)" font-size="8px"><tspan x="0 5.776 10.224 12.448 16.896 19.120001 24 28.888 33.335999 36 38.223999 42.223999 46.672001 51.119999 53.784 58.231998 62.68 65.344002 67.120003 71.568001 76.015999 80.463997 82.688004 89.351997 93.800003 96.463997 100.464 102.24 106.688 111.136 113.36 117.808 122.256 126.256 128.032 132.48 136.92799 139.15199 143.60001 148.048 150.272 154.72 156.496 158.272 162.272 164.496 166.72 170.72 175.168 179.616 181.84 184.064 188.51199 192.96001 195.18401 200.52 204.968 208.968 213.416 220.08 224.528 228.976 231.2 233.424 240.088 244.536 247.2 251.2 252.976 257.42401 261.87201 265.8992 268.1232 272.1232 276.5712 281.0192 285.46719 287.69119 292.13919 294.80319 297.02719 301.47519 303.69919 305.92319 308.14719 312.59521 317.04321 319.26721 324.60321 326.82721 331.27521 335.72321 340.1712 344.6192 347.2832 351.7312 353.9552 359.7312 361.5072 365.9552 370.4032 376.1792 380.6272 384.6272 386.8512 392.18719 393.9632 398.41119 402.85919 406.85919 409.08319 413.53119 417.97919 422.42719 424.20319 425.97919 429.97919 434.42719 436.65121 438.42719 442.87521" y="0">Note: For shared-lane marking design details, see the Pavement Markings chapter of the Standard Highway Signs publication</tspan></text></g><path d="m488.07 617.41h-10.224v26.602h10.224z"/><g transform="translate(482.95 643.44)"><path d="m0 0-4.547-5.457v-1.363l4.547 5.456 4.546-5.456v1.363z" fill="#fff"/></g><g transform="translate(482.95 640.71)"><path d="m0 0-4.547-5.456v-1.364l4.547 5.456 4.546-5.456v1.364z" fill="#fff"/></g><g clip-path="url(#b)"><g transform="translate(485.78 619)"><path d="m0 0c-0.622 0-1.149 1.283-1.33 3.055l1.242 0.843c0.026-0.046 0.056-0.073 0.088-0.073 0.101 0 0.182 0.257 0.182 0.574 0 0.277-0.062 0.507-0.144 0.562l-0.764 3.196c0.211 0.407 0.46 0.641 0.726 0.641 0.771 0 1.396-1.97 1.396-4.399s-0.625-4.399-1.396-4.399m-1.396 4.399c0 1.282 0.173 2.434 0.451 3.239l0.707-2.959-1.15-0.78c-5e-3 0.165-8e-3 0.332-8e-3 0.5m-0.31-0.715-0.546-0.371 0.634 7.144 0.477-1.999c-0.356-0.993-0.58-2.443-0.58-4.059 0-0.243 5e-3 -0.482 0.015-0.715m-0.778 0.229-0.085 1.015h0.133v0.409h-0.418v-0.409h0.166l0.084-1.007-1.799 6.169c0.029 0.293 0.059 0.597 0.088 0.897h2.459zm-1.77 0.486c0-2.429-0.626-4.399-1.397-4.399s-1.396 1.97-1.396 4.399 0.625 4.399 1.396 4.399c0.274 0 0.53-0.249 0.746-0.679-0.172-1.172-0.506-2.434-0.747-3.146-0.1-2e-3 -0.181-0.258-0.181-0.574 0-0.317 0.082-0.574 0.182-0.574 0.093 0 0.17 0.22 0.181 0.503 0.118 0.348 0.272 0.861 0.424 1.474 0.113 0.456 0.254 1.087 0.362 1.771 0.265-0.8 0.43-1.926 0.43-3.174m4.254 5.422c-0.339 0-0.655-0.309-0.922-0.842l-0.603 2.526 0.079 0.892c0.378 0.102 0.587 0.555 0.575 0.993-0.013 0.425-0.388 0.106-0.806 0.089-0.114-4e-3 -0.721 4e-3 -0.718-0.346 4e-3 -0.36 0.392-0.654 0.664-0.735l-0.048-0.546h-2.451c0.052 0.537 0.1 1.032 0.137 1.416 0.031 0.328 0.055 0.575 0.067 0.698l-0.179 0.429 0.084 0.268h0.657v0.683h-0.747l-0.321-1.023 0.206-0.495c-0.095-0.992-0.32-3.324-0.466-4.73-0.252 0.46-0.546 0.723-0.859 0.723-0.951 0-1.721-2.427-1.721-5.422s0.77-5.422 1.721-5.422 1.721 2.427 1.721 5.422c0 1.685-0.244 3.191-0.627 4.185 0.018 0.169 0.037 0.357 0.058 0.557l1.852-6.351v-0.051c0-0.343 0.086-0.623 0.194-0.633l0.13-1.554h-0.132v-0.409h0.418v0.409h-0.167l-0.137 1.645c0.028 0.054 0.052 0.129 0.069 0.218l0.623 0.424c0.213-2.234 0.871-3.862 1.649-3.862 0.951 0 1.721 2.427 1.721 5.422s-0.77 5.422-1.721 5.422" fill="#fff"/></g><g transform="translate(475.18 630.11)"><path d="m0 0-13.901-5.203-35.826-13.437" fill="none" stroke="#000" stroke-width=".75"/></g><g transform="translate(475.48 630.79)"><path d="m0 0c-0.906-0.059-1.519-0.031-2.268-0.013l0.928-2.48c0.191 0.198 0.997 0.93 1.719 1.48 0.771 0.588 1.494 1.063 1.98 1.318-0.534-0.127-1.392-0.242-2.359-0.305"/></g></g><text transform="matrix(1 0 0 -1 371.58 537.6)" fill="black" font-family="Helvetica" font-size="8px"><tspan x="0 6.224 8.8879995 13.336 17.784 22.232 24.896 28.896 33.344002 35.119999 39.568001 42.231998 46.68" y="0">Green-colored</tspan></text><text transform="matrix(1 0 0 -1 352.01 528.6)" fill="black" font-family="Helvetica" font-size="8px"><tspan x="0 4.448 8.8959999 12.896 17.344 24.007999 28.455999 32.903999 35.127998 37.352001 40.015999 44.464001 48.911999 51.136002 52.911999 57.360001 61.807999 66.255997 68.031998" y="0">pavement (optional)</tspan></text><g transform="translate(475.18 521.18)"><path d="m0 0-13.901 5.203-35.826 13.437" fill="none" stroke="#000" stroke-width=".75"/></g><g clip-path="url(#a)"><g transform="translate(475.48 520.49)"><path d="m0 0c-0.906 0.059-1.519 0.031-2.268 0.013l0.928 2.48c0.191-0.198 0.997-0.93 1.719-1.48 0.771-0.588 1.494-1.063 1.98-1.318-0.534 0.127-1.392 0.242-2.359 0.305"/></g></g></g></svg>
