<?xml version="1.0" encoding="UTF-8"?>
<svg width="405.41" height="762.53" version="1.1" viewBox="0 0 405.41 762.53" xml:space="preserve" xmlns="http://www.w3.org/2000/svg"><defs><clipPath id="d"><path d="m0 792h612v-792h-612z"/></clipPath><clipPath id="c"><path d="m62.75 44.125h513.38v693h-513.38z"/></clipPath><clipPath id="b"><path d="m62.75 44.125h513.38v693h-513.38z"/></clipPath><clipPath id="a"><path d="m62.75 44.125h513.38v693h-513.38z"/></clipPath></defs><g transform="matrix(1.3333 0 0 -1.3333 -223.3 953.32)"><g clip-path="url(#d)"/><g clip-path="url(#c)"><g transform="translate(287.7 154.51)"><path d="m0 0v409.59c0 84.646 79.545 132.33 79.545 132.33l-9.071 9.002c-82.847-57.671-81.718-130.52-81.718-130.52l-1.129 130.52h-18.604v-550.88c0-2e-3 30.977-0.041 30.977-0.041" fill="#b1b4b6"/></g><g transform="translate(256.72 705.43)"><path d="m0 0v-550.88m30.977-0.041v409.59c0 84.646 79.545 132.33 79.545 132.33" fill="none" stroke="#000"/></g><g transform="translate(266.02 708.96)"><path d="m0 0v-562.07" fill="none" stroke="#fff" stroke-dasharray="7.5, 22.5" stroke-width="2"/></g><g transform="translate(276.2 559.17)"><path d="m0 0v-117.28" fill="none" stroke="#fff" stroke-width="2"/></g><g transform="translate(276.2 441.89)"><path d="m0 0v-259.26" fill="none" stroke="#fff" stroke-dasharray="3, 9" stroke-width="2"/></g><g transform="translate(300.32 268.55)"><path d="m0 0-16.914 4.832-11.178-6.647-25.974 7.854v5.135l25.974-7.854 11.178 6.647 16.914-4.832z" fill="#fff"/><path d="m0 0-16.914 4.832-11.178-6.647-25.974 7.854v5.135l25.974-7.854 11.178 6.647 16.914-4.832z" fill="none" stroke="#000" stroke-width=".622"/></g><g transform="translate(300.32 438.98)"><path d="m0 0-16.914 4.833-11.178-6.648-25.974 7.855v5.134l25.974-7.853 11.178 6.646 16.914-4.833z" fill="#fff"/><path d="m0 0-16.914 4.833-11.178-6.648-25.974 7.855v5.134l25.974-7.853 11.178 6.646 16.914-4.833z" fill="none" stroke="#000" stroke-width=".622"/></g><path d="m298.99 234.92h11.765v221.32h-11.765z" fill="#fff"/><g transform="translate(276.2 168.63)"><path d="m0 0v-13.945" fill="none" stroke="#fff" stroke-dasharray="7.5, 22.5" stroke-width="2"/></g><g transform="translate(358.17 705.43)"><path d="m0 0c-82.847-57.67-81.718-130.52-81.718-130.52l-1.129 130.52m1.129-130.27-0.25-14.25" fill="none" stroke="#000"/></g></g><text transform="matrix(1 0 0 -1 347.74 708.04)" fill="#000000" font-family="Helvetica" font-size="9px"><tspan x="0 6.4980001 12.501 19.997999 26.000999 28.052999 33.192001 40.194 42.695999 48.699001 55.196999 57.699001" y="0">RAMP TO SR 7</tspan><tspan x="-89.847 -83.709 -81.207001 -75.384003 -73.413002 -70.911003 -65.906998" y="564.84003">U.S. 40</tspan><tspan x="-96.453003 -90.315002 -87.813004 -81.989998 -80.018997 -77.516998 -72.513" y="-0.396">U.S. 40</tspan></text><g clip-path="url(#b)"><g transform="translate(171.67 703.87)"><path d="m0 0c-2.202 0-4.067-1.819-4.067-3.967v-15.223c0-2.189 1.823-3.974 4.067-3.974h37.561c2.244 0 4.07 1.785 4.07 3.974v15.223c0 2.183-1.826 3.967-4.07 3.967h-37.561" fill="none" stroke="#000" stroke-width=".25"/></g><g transform="translate(208.84 702.23)"><path d="m0 0c1.344-0.034 2.475-0.985 2.588-2.357l2e-3 -15.03c-0.037-1.365-1.098-2.393-2.442-2.49l-36.944-7e-3c-1.342 0.032-2.476 0.99-2.587 2.359l-4e-3 15.029c0.038 1.365 1.099 2.393 2.442 2.496h36.945" fill="#fff" fill-rule="evenodd" stroke="#000"/></g><g transform="translate(182.74 686.61)"><path d="m0 0h-1.546l-1.193 6.584-1.194-6.584h-1.591l-1.988 12.593h1.768l1.06-6.716 1.238 6.716h1.414l1.193-6.716 1.105 6.716h1.767z"/></g><g transform="translate(185.92 686.61)"><path d="m0 0v11.369h5.344v-1.596h-3.709v-2.872h2.354v-1.556h-2.354v-3.749h4.149v-1.596z"/></g><g transform="translate(195.86 686.41)"><path d="m0 0c-1.995 0-3.191 1.675-3.191 3.55h1.595c0-0.957 0.479-1.955 1.596-1.955 0.877 0 1.595 0.798 1.595 1.715 0 0.639-0.239 1.118-0.917 1.636-0.239 0.239 0.398-0.199-1.915 1.356-0.917 0.639-1.396 1.516-1.396 2.513 0 1.636 1.277 2.953 2.911 2.953 1.596 0 2.833-1.237 2.873-2.953h-1.556c-0.039 0.798-0.598 1.317-1.317 1.317-0.757 0-1.355-0.559-1.355-1.317 0-0.558 0.239-0.877 1.077-1.356 2.193-1.276 3.151-2.513 3.151-4.149 0-1.834-1.396-3.31-3.151-3.31"/></g><g transform="translate(203.36 696.46)"><path d="m0 0v-9.853h-1.636v9.853h-2.074v1.516h5.784v-1.516z"/></g><g transform="translate(170.63 680.11)"><path d="m0 0h39.648c1.67 0 3.035-1.366 3.035-3.036v-39.649c0-1.669-1.365-3.035-3.035-3.035h-39.648c-1.67 0-3.036 1.366-3.036 3.035v39.649c0 1.67 1.366 3.036 3.036 3.036" fill-rule="evenodd"/></g><g transform="translate(190.45 636.34)"><path d="m0 0c-1.872 2.241-4.684 3.61-7.611 3.61h-1.795c-6.351 0-11.53 5.177-11.53 11.527 0 3.926 2.505 6.807 2.505 10.865 0 2.761-0.937 5.625-2.551 7.812l8.309 7.984c1.709-1.443 4.01-2.357 6.289-2.357 2.318 0 4.674 0.874 6.384 2.393 1.71-1.519 4.067-2.393 6.384-2.393 2.28 0 4.582 0.914 6.291 2.357l8.308-7.984c-1.615-2.187-2.552-5.051-2.552-7.812 0-4.058 2.505-6.939 2.505-10.865 0-6.35-5.178-11.527-11.527-11.527h-1.799c-2.926 0-5.738-1.369-7.61-3.61" fill="#fff" fill-rule="evenodd"/></g><g transform="translate(188.03 651.87)"><path d="m0 0v3.101h-2.042v13.085h-3.403l-10.664-14.144v-2.042h10.664v-5.37h3.403v5.37zm-5.445 3.101h-6.126l6.126 8.093z" fill-rule="evenodd"/></g><g transform="translate(207.24 657.24)"><path d="m0 0c0 2.723-0.529 5.445-1.438 7.336-1.361 2.647-3.252 3.857-5.974 3.857-2.496 0-4.236-0.755-5.522-2.42-1.437-2.041-2.344-5.218-2.344-8.773 0-2.572 0.605-5.445 1.512-7.262 1.286-2.646 3.177-3.856 6.202-3.856 2.269 0 4.009 0.756 5.219 2.42 1.513 1.891 2.345 5.294 2.345 8.698m-3.403 0c0-1.664-0.379-3.781-0.832-4.916-0.757-1.891-1.741-2.723-3.329-2.723-1.361 0-2.269 0.53-2.95 1.664-0.832 1.362-1.285 3.705-1.285 5.975 0 1.815 0.303 3.781 0.832 5.067 0.756 1.891 1.815 2.723 3.479 2.648 1.286-0.076 2.118-0.529 2.798-1.664 0.832-1.438 1.287-3.631 1.287-6.051" fill-rule="evenodd"/></g><path d="m247.52 261.39h-27.336v218.44h27.336z" fill="#fff"/><g transform="translate(282.72 692.78)"><path d="m0 0c0-17.497-53.157-20.701-67.411-20.701" fill="none" stroke="#000" stroke-width=".75"/></g><g transform="translate(283.26 694.02)"><path d="m0 0c0.263-0.868 0.504-1.433 0.784-2.129h-2.648c0.118 0.249 0.522 1.261 0.783 2.129 0.281 0.929 0.473 1.771 0.541 2.317 0.069-0.546 0.26-1.388 0.54-2.317"/></g><g transform="translate(298.29 564.7)"><path d="m0 0h-21.036" fill="none" stroke="#000" stroke-width="1.015"/></g><g transform="translate(296.68 564.7)"><path d="m0 0c0-0.778 0.646-1.41 1.438-1.41s1.437 0.632 1.437 1.41c0 0.777-0.645 1.409-1.437 1.409s-1.438-0.632-1.438-1.409"/></g><g transform="translate(277.78 564.32)"><path d="m0 0v-1.761h8.474v1.761z"/></g><g transform="translate(285.04 698.1)"><path d="m0 0v1.245h-4.795v-1.245h-1.759v-1.761h8.473v1.761h-0.96z"/></g><g transform="translate(285.04 627.68)"><path d="m0 0v1.245h-4.795v-1.245h-1.759v-1.761h8.473v1.761h-0.96z"/></g><g transform="translate(282.72 622.36)"><path d="m0 0c0-17.496 31.562-21.06 74.094-21.06" fill="none" stroke="#000" stroke-width=".75"/></g><g transform="translate(282.18 623.6)"><path d="m0 0c-0.262-0.869-0.504-1.433-0.783-2.129h2.648c-0.119 0.249-0.522 1.26-0.784 2.129-0.28 0.928-0.471 1.771-0.54 2.317-0.068-0.546-0.26-1.389-0.541-2.317"/></g><g transform="translate(282.02 559)"><path d="m0 0c0-17.497 32.263-34.129 74.795-34.129" fill="none" stroke="#000" stroke-width=".75"/></g><g transform="translate(281.48 560.24)"><path d="m0 0c-0.262-0.868-0.504-1.433-0.783-2.129h2.648c-0.118 0.249-0.521 1.261-0.783 2.129-0.28 0.929-0.472 1.771-0.541 2.317-0.068-0.546-0.26-1.388-0.541-2.317"/></g><g transform="translate(298.29 354.67)"><path d="m0 0h-21.036" fill="none" stroke="#000" stroke-width="1.015"/></g><g transform="translate(296.68 354.67)"><path d="m0 0c0-0.777 0.646-1.41 1.438-1.41s1.437 0.633 1.437 1.41-0.645 1.41-1.437 1.41-1.438-0.633-1.438-1.41"/></g><g transform="translate(277.78 354.29)"><path d="m0 0v-1.762h8.474v1.762z"/></g><g transform="translate(282.02 348.97)"><path d="m0 0c1.327-25.794 43.132-24.618 74.795-24.618" fill="none" stroke="#000" stroke-width=".75"/></g><g transform="translate(281.48 350.21)"><path d="m0 0c-0.262-0.869-0.504-1.434-0.783-2.129h2.648c-0.118 0.248-0.521 1.26-0.783 2.129-0.28 0.928-0.472 1.771-0.541 2.316-0.068-0.545-0.26-1.388-0.541-2.316"/></g><g transform="translate(298.29 186.8)"><path d="m0 0h-21.036" fill="none" stroke="#000" stroke-width="1.015"/></g><g transform="translate(296.68 186.8)"><path d="m0 0c0-0.778 0.646-1.41 1.438-1.41s1.437 0.632 1.437 1.41c0 0.777-0.645 1.41-1.437 1.41s-1.438-0.633-1.438-1.41"/></g><g transform="translate(277.78 186.42)"><path d="m0 0v-1.762h8.474v1.762z"/></g><g transform="translate(282.02 181.1)"><path d="m0 0c0-17.498 45.85-13.015 74.795-13.015" fill="none" stroke="#000" stroke-width=".75"/></g><g transform="translate(281.48 182.34)"><path d="m0 0c-0.262-0.869-0.504-1.434-0.783-2.129h2.648c-0.118 0.248-0.521 1.26-0.783 2.129-0.28 0.928-0.472 1.771-0.541 2.316-0.068-0.545-0.26-1.388-0.541-2.316"/></g><g transform="translate(235.78 250.56)"><path d="m0 0v-61.972m0 160v-87.763" fill="none" stroke="#000" stroke-width=".75"/></g><g transform="translate(235.25 187.35)"><path d="m0 0c-0.263 0.867-0.504 1.431-0.783 2.129h2.648c-0.118-0.25-0.52-1.262-0.783-2.129-0.28-0.93-0.473-1.772-0.541-2.319-0.069 0.547-0.261 1.389-0.541 2.319"/></g><g transform="translate(236.32 349.83)"><path d="m0 0c0.263-0.869 0.504-1.434 0.783-2.129h-2.648c0.118 0.248 0.52 1.26 0.783 2.129 0.28 0.928 0.473 1.771 0.541 2.316 0.068-0.545 0.261-1.388 0.541-2.316"/></g></g><text transform="matrix(1 0 0 -1 220 252.63)" fill="#000000" font-family="Helvetica" font-size="9px"><tspan x="0 5.0040002 7.506 12.51 15.012 22.509001 24.507 26.504999" y="0">1/2 mile</tspan><tspan x="0 5.0040002 7.506 12.51 15.012 22.509001 24.507 26.504999" y="-210.015">1/2 mile</tspan></text><g clip-path="url(#a)"><g transform="translate(235.78 460.83)"><path d="m0 0v-104.37m0 202.16v-87.523" fill="none" stroke="#000" stroke-width=".75"/></g><g transform="translate(235.25 355.22)"><path d="m0 0c-0.263 0.867-0.504 1.431-0.783 2.129h2.648c-0.118-0.25-0.52-1.262-0.783-2.129-0.28-0.93-0.473-1.772-0.541-2.319-0.069 0.547-0.261 1.389-0.541 2.319"/></g><g transform="translate(236.32 559.86)"><path d="m0 0c0.263-0.868 0.504-1.433 0.783-2.129h-2.648c0.118 0.249 0.52 1.261 0.783 2.129 0.28 0.929 0.473 1.771 0.541 2.317 0.068-0.546 0.261-1.388 0.541-2.317"/></g><g transform="translate(252.78 562.55)"><path d="m0 0h-22m22-210.03h-22m22-167.87h-22" fill="none" stroke="#000" stroke-width=".75"/></g><g transform="translate(471.28 460.02)"><path d="m0 0c0-4.266-3.491-7.756-7.757-7.756h-96.957c-4.266 0-7.757 3.49-7.757 7.756v69.81c0 4.266 3.491 7.756 7.757 7.756h96.957c4.266 0 7.757-3.49 7.757-7.756z" fill="#fff"/></g><g transform="translate(471.28 475.51)"><path d="m0 0v-15.491c0-4.266-3.491-7.756-7.757-7.756h-96.957c-4.266 0-7.757 3.49-7.757 7.756v15.491z" fill="#ffd24f"/></g><g transform="translate(469.48 532.34)"><path d="m0 0c-0.328 0.77-0.796 1.462-1.39 2.059-0.598 0.595-1.29 1.063-2.059 1.39-0.795 0.339-1.639 0.509-2.506 0.509h-96.957c-0.867 0-1.711-0.17-2.507-0.509-0.768-0.327-1.462-0.795-2.057-1.39-0.596-0.597-1.065-1.289-1.391-2.059-0.338-0.795-0.51-1.638-0.51-2.505v-54.319h109.89v54.319c0 0.867-0.173 1.71-0.509 2.505" fill="#006f51"/></g><g transform="translate(359.81 457.17)"><path d="m0 0c0.37-0.874 0.901-1.658 1.577-2.334 0.673-0.675 1.46-1.205 2.333-1.576 0.903-0.385 1.862-0.579 2.848-0.579h96.957c0.984 0 1.943 0.194 2.848 0.579 0.872 0.371 1.658 0.901 2.332 1.576 0.676 0.676 1.207 1.46 1.577 2.334 0.384 0.904 0.579 1.861 0.579 2.847v15.491h-0.872v-15.491c0-0.868-0.173-1.71-0.509-2.506-0.328-0.769-0.796-1.462-1.39-2.058-0.598-0.596-1.29-1.063-2.059-1.39-0.795-0.339-1.639-0.509-2.506-0.509h-96.957c-0.867 0-1.711 0.17-2.507 0.509-0.768 0.327-1.462 0.794-2.057 1.39-0.596 0.596-1.065 1.289-1.391 2.058-0.338 0.796-0.51 1.638-0.51 2.506v15.491h-0.872v-15.491c0-0.985 0.194-1.943 0.579-2.847"/></g><g transform="translate(463.53 537.84)"><path d="m0 0h-96.957c-4.415 0-8.007-3.591-8.007-8.006v-69.81c0-4.415 3.592-8.006 8.007-8.006h96.957c4.415 0 8.007 3.591 8.007 8.006v69.81c0 4.415-3.592 8.006-8.007 8.006m0-0.25c4.266 0 7.757-3.49 7.757-7.756v-69.81c0-4.266-3.491-7.756-7.757-7.756h-96.957c-4.266 0-7.757 3.49-7.757 7.756v69.81c0 4.266 3.491 7.756 7.757 7.756h96.957"/></g><g transform="translate(410.43 490.88)"><path d="m0 0c-0.291 0.506-0.838 0.724-1.345 0.724-0.836 0-1.489-0.868-1.489-1.954 0-1.084 0.653-1.952 1.526-1.952 0.47 0 1.017 0.217 1.308 0.723zm0-5.027v0.362c-0.363-0.325-1.09-0.469-1.673-0.469-1.743 0-3.234 1.808-3.234 3.904 0 2.098 1.491 3.906 3.272 3.906 0.545 0 1.198-0.145 1.635-0.507v2.495l1.926 0.797v-10.488z" fill="#fff"/></g><g transform="translate(443.96 490.88)"><path d="m0 0c-0.29 0.506-0.836 0.724-1.345 0.724-0.836 0-1.49-0.868-1.49-1.954 0-1.084 0.654-1.952 1.527-1.952 0.472 0 1.018 0.217 1.308 0.723zm0-5.027v0.362c-0.363-0.325-1.089-0.469-1.671-0.469-1.744 0-3.235 1.808-3.235 3.904 0 2.098 1.491 3.906 3.271 3.906 0.546 0 1.198-0.145 1.635-0.507v2.495l1.927 0.797v-10.488z" fill="#fff"/></g><g transform="translate(399.91 491.71)"><path d="m0 0c-0.546 0-1.055-0.361-1.272-1.048h2.47c-0.29 0.758-0.616 1.048-1.198 1.048m-1.382-2.748c0.218-0.869 0.836-1.375 1.491-1.375 0.436 0 0.836 0.253 1.162 0.687l1.417-1.229c-0.763-0.904-1.562-1.301-2.579-1.301-1.928 0-3.597 1.699-3.597 3.904 0 2.17 1.634 3.906 3.488 3.906 1.235 0 2.361-0.759 2.906-1.952 0.291-0.688 0.438-1.411 0.438-2.352v-0.288z" fill="#fff"/></g><g transform="translate(418.4 491.61)"><path d="m0 0v-5.751h-1.954v5.751l-0.979-0.037v1.808h0.979v0.905c0 1.373 0.651 2.025 2.064 2.025 0.362 0 0.869-0.037 1.302-0.109v-1.916c-0.506 0.108-0.578 0.108-0.795 0.108-0.362 0-0.617-0.217-0.617-0.578v-0.435h1.412v-1.771z" fill="#fff"/></g><g transform="translate(425.57 491.66)"><path d="m0 0c-0.798 0-1.415-0.867-1.415-1.988 0-1.086 0.617-1.952 1.415-1.952 0.762 0 1.45 0.866 1.45 1.952 0 1.121-0.688 1.988-1.45 1.988m0-5.894c-1.887 0-3.482 1.736-3.482 3.906 0 2.241 1.522 3.942 3.482 3.942 1.814 0 3.554-1.772 3.554-3.942s-1.703-3.906-3.554-3.906" fill="#fff"/></g><g transform="translate(436.81 491.01)"><path d="m0 0c-0.292 0.47-0.802 0.65-1.202 0.65-0.91 0-1.201-0.542-1.201-1.59v-4.159h-2.077v7.522h2.077v-0.362c0.509 0.398 0.946 0.543 1.493 0.543 0.618 0 1.092-0.145 1.602-0.543z" fill="#fff"/></g><g transform="translate(391.81 485.85)"><path d="m0 0v5.606l-2.75-5.606-2.822 5.606v-5.606h-2.025v10.343h2.025l2.822-5.677 2.75 5.677h2.025v-10.343z" fill="#fff"/></g><g transform="translate(426.68 515.61)"><path d="m0 0c0-6.426-5.208-11.635-11.634-11.635-6.425 0-11.634 5.209-11.634 11.635s5.209 11.635 11.634 11.635c6.426 0 11.634-5.209 11.634-11.635" fill="#fff"/></g><g transform="translate(417.98 518.2)"><path d="m0 0c-1.027-1.714-1.807-3.674-2.176-5.552-0.164-0.98-0.247-1.714-0.247-2.858h-1.885c0.04 2.694 0.532 4.94 1.68 7.39 0.412 0.898 0.904 1.755 1.315 2.408h-5.582v1.837h7.92v-1.837c-0.411-0.53-0.656-0.776-1.025-1.388"/></g><g transform="translate(399.52 537.71)"><path d="m0 0c-1.139 0-2.064 0.926-2.064 2.064v15.514c0 1.138 0.925 2.064 2.064 2.064h69.811c1.137 0 2.063-0.926 2.063-2.064v-15.514c0-1.138-0.926-2.064-2.063-2.064z" fill="#fff"/></g><g transform="translate(469.33 557.47)"><path d="m0 0h-69.811c-1.207 0-2.189-0.982-2.189-2.189v-15.514c0-1.207 0.982-2.189 2.189-2.189h69.811c1.207 0 2.188 0.982 2.188 2.189v15.514c0 1.207-0.981 2.189-2.188 2.189m0-0.25c1.068 0 1.938-0.87 1.938-1.939v-15.514c0-1.071-0.87-1.939-1.938-1.939h-69.811c-1.07 0-1.939 0.868-1.939 1.939v15.514c0 1.069 0.869 1.939 1.939 1.939h69.811"/></g><g transform="translate(398.88 539.77)"><path d="m0 0v15.514c0 0.356 0.29 0.647 0.646 0.647h69.811c0.356 0 0.646-0.291 0.646-0.647v-15.514c0-0.356-0.29-0.646-0.646-0.646h-69.811c-0.356 0-0.646 0.29-0.646 0.646" fill="#006f51"/></g><g transform="translate(409.28 544.3)"><path d="m0 0v6.464h4.734v-1.156h-3.55v-1.202h1.935v-1.179h-1.935v-1.769h3.665v-1.158z" fill="#fff"/></g><path d="m421.95 550.76h1.163v-6.464h-1.163z" fill="#fff"/><g transform="translate(427.2 549.63)"><path d="m0 0v-5.331h-1.132v5.331h-1.856v1.133h4.846v-1.133z" fill="#fff"/></g><g transform="translate(419.29 544.3)"><path d="m0 0-1.458 2.291-1.435-2.291h-1.368l2.12 3.403-1.936 3.061h1.388l1.231-1.972 1.229 1.972h1.391l-1.914-3.061 2.119-3.403z" fill="#fff"/></g><g transform="translate(445.97 550.1)"><path d="m0 0-3.778-3.878h3.778zm1.702-5.443v-1.972h-1.702v1.972h-5.989v1.565l5.989 6.157h1.702v-6.157h1.427v-1.565z" fill="#fff"/></g><g transform="translate(456.45 550.1)"><path d="m0 0-3.778-3.878h3.778zm1.7-5.443v-1.972h-1.7v1.972h-5.989v1.565l5.989 6.157h1.7v-6.157h1.431v-1.565z" fill="#fff"/></g><g transform="translate(362.69 594.19)"><path d="m0 0c-0.773 0-1.504 0.303-2.055 0.854-0.551 0.552-0.855 1.282-0.855 2.054v31.026c0 0.773 0.304 1.502 0.855 2.054 0.551 0.551 1.282 0.855 2.055 0.855h42.66c0.773 0 1.5-0.304 2.054-0.855 0.551-0.552 0.855-1.281 0.855-2.054v-31.026c0-0.772-0.304-1.502-0.855-2.054-0.554-0.551-1.281-0.854-2.054-0.854z" fill="#006f51"/></g><g transform="translate(369.95 609.23)"><path d="m0 0-4.534-4.653h4.534zm2.04-6.532v-2.368h-2.04v2.368h-7.188v1.879l7.188 7.388h2.04v-7.388h1.716v-1.879z" fill="#fff"/></g><g transform="translate(382.52 609.23)"><path d="m0 0-4.531-4.653h4.531zm2.041-6.532v-2.368h-2.041v2.368h-7.187v1.879l7.187 7.388h2.041v-7.388h1.716v-1.879z" fill="#fff"/></g><g transform="translate(405.35 632.26)"><path d="m0 0h-42.66c-2.276 0-4.128-1.852-4.128-4.128v-31.026c0-2.276 1.852-4.128 4.128-4.128h42.66c2.276 0 4.127 1.852 4.127 4.128v31.026c0 2.276-1.851 4.128-4.127 4.128m0-0.25c2.133 0 3.877-1.745 3.877-3.878v-31.026c0-2.134-1.744-3.878-3.877-3.878h-42.66c-2.135 0-3.878 1.744-3.878 3.878v31.026c0 2.133 1.743 3.878 3.878 3.878h42.66"/></g><g transform="translate(369.49 617.53)"><path d="m0 0v8.015h5.869v-1.434h-4.401v-1.49h2.398v-1.463h-2.398v-2.194h4.543v-1.434z" fill="#fff"/></g><path d="m388.12 625.54h1.441v-8.015h-1.441z" fill="#fff"/><g transform="translate(396.24 624.14)"><path d="m0 0v-6.609h-1.403v6.609h-2.304v1.406h6.012v-1.406z" fill="#fff"/></g><g transform="translate(383.36 617.53)"><path d="m0 0-1.808 2.841-1.779-2.841h-1.694l2.627 4.219-2.403 3.796h1.725l1.524-2.447 1.526 2.447h1.723l-2.373-3.796 2.627-4.219z" fill="#fff"/></g><g transform="translate(403.46 601.7)"><path d="m0 0c3e-3 7e-3 5e-3 0.011 9e-3 0.017 0.02 0.035 0.034 0.072 0.045 0.109 0 3e-3 2e-3 7e-3 4e-3 0.01h-2e-3c3e-3 0.013 8e-3 0.025 0.01 0.038l0.018 0.126 1.78 9.192 0.024 0.173c0.026 0.173-0.033 0.344-0.148 0.46-0.131 0.131-0.303 0.189-0.467 0.156l-0.116-0.023-9.219-1.796-0.163-0.026c-0.105-0.024-0.188-0.074-0.271-0.156-0.204-0.205-0.213-0.542 0-0.755 0.027-0.025 0.068-0.049 0.099-0.066l0.1-0.055 3.28-2.017-8.021-7.364 2.684-2.684 7.365 8.003v0.018l1.987-3.233 0.082-0.117c0.025-0.042 0.05-0.082 0.082-0.115 0.207-0.205 0.55-0.205 0.756 0 0.033 0.033 0.058 0.068 0.082 0.105" fill="#fff"/></g><g transform="translate(399.52 396.99)"><path d="m0 0c-1.139 0-2.064 0.925-2.064 2.064v15.513c0 1.138 0.925 2.064 2.064 2.064h69.809c1.138 0 2.064-0.926 2.064-2.064v-15.513c0-1.139-0.926-2.064-2.064-2.064z" fill="#fff"/></g><g transform="translate(469.33 416.76)"><path d="m0 0h-69.809c-1.207 0-2.189-0.982-2.189-2.189v-15.513c0-1.207 0.982-2.189 2.189-2.189h69.809c1.207 0 2.189 0.982 2.189 2.189v15.513c0 1.207-0.982 2.189-2.189 2.189m0-0.25c1.07 0 1.939-0.868 1.939-1.939v-15.513c0-1.073-0.869-1.939-1.939-1.939h-69.809c-1.072 0-1.939 0.866-1.939 1.939v15.513c0 1.071 0.867 1.939 1.939 1.939h69.809"/></g><g transform="translate(398.88 399.06)"><path d="m0 0v15.513c0 0.356 0.29 0.646 0.646 0.646h69.809c0.357 0 0.648-0.29 0.648-0.646v-15.513c0-0.356-0.291-0.648-0.648-0.648h-69.809c-0.356 0-0.646 0.292-0.646 0.648" fill="#006f51"/></g><g transform="translate(409.28 403.58)"><path d="m0 0v6.464h4.734v-1.156h-3.551v-1.203h1.936v-1.18h-1.936v-1.768h3.664v-1.157z" fill="#fff"/></g><path d="m421.95 410.05h1.163v-6.464h-1.163z" fill="#fff"/><g transform="translate(427.2 408.91)"><path d="m0 0v-5.33h-1.133v5.33h-1.857v1.134h4.847v-1.134z" fill="#fff"/></g><g transform="translate(419.29 403.58)"><path d="m0 0-1.458 2.291-1.437-2.291h-1.366l2.119 3.402-1.937 3.062h1.39l1.231-1.972 1.229 1.972h1.391l-1.914-3.062 2.119-3.402z" fill="#fff"/></g><g transform="translate(445.97 409.38)"><path d="m0 0-3.776-3.879h3.776zm1.702-5.444v-1.972h-1.702v1.972h-5.988v1.565l5.988 6.159h1.702v-6.159h1.429v-1.565z" fill="#fff"/></g><g transform="translate(456.45 409.38)"><path d="m0 0-3.777-3.879h3.777zm1.701-5.444v-1.972h-1.701v1.972h-5.988v1.565l5.988 6.159h1.701v-6.159h1.43v-1.565z" fill="#fff"/></g><g transform="translate(471.28 319.31)"><path d="m0 0c0-4.266-3.49-7.758-7.756-7.758h-96.957c-4.266 0-7.757 3.492-7.757 7.758v69.809c0 4.266 3.491 7.756 7.757 7.756h96.957c4.266 0 7.756-3.49 7.756-7.756z" fill="#fff"/></g><g transform="translate(471.28 334.8)"><path d="m0 0v-15.492c0-4.266-3.49-7.758-7.756-7.758h-96.957c-4.266 0-7.757 3.492-7.757 7.758v15.492z" fill="#ffd24f"/></g><g transform="translate(469.48 391.62)"><path d="m0 0c-0.327 0.77-0.795 1.462-1.388 2.058-0.598 0.595-1.291 1.063-2.06 1.39-0.795 0.339-1.638 0.51-2.505 0.51h-96.957c-0.869 0-1.712-0.171-2.507-0.51-0.768-0.327-1.462-0.795-2.057-1.39-0.596-0.596-1.065-1.288-1.391-2.058-0.339-0.796-0.51-1.638-0.51-2.505v-54.317h109.89v54.317c0 0.867-0.173 1.709-0.511 2.505" fill="#006f51"/></g><g transform="translate(359.81 316.46)"><path d="m0 0c0.37-0.871 0.901-1.656 1.576-2.334 0.674-0.674 1.461-1.203 2.334-1.574 0.903-0.385 1.862-0.58 2.848-0.58h96.957c0.984 0 1.943 0.195 2.848 0.58 0.871 0.371 1.656 0.9 2.332 1.574 0.676 0.678 1.206 1.463 1.577 2.334 0.384 0.906 0.579 1.863 0.579 2.848v15.492h-0.872v-15.492c0-0.868-0.173-1.709-0.511-2.506-0.327-0.77-0.795-1.461-1.388-2.059-0.598-0.596-1.291-1.062-2.06-1.389-0.795-0.339-1.638-0.507-2.505-0.507h-96.957c-0.869 0-1.712 0.168-2.507 0.507-0.768 0.327-1.462 0.793-2.057 1.389-0.596 0.598-1.065 1.289-1.391 2.059-0.339 0.797-0.51 1.638-0.51 2.506v15.492h-0.872v-15.492c0-0.985 0.194-1.942 0.579-2.848"/></g><g transform="translate(463.53 397.12)"><path d="m0 0h-96.957c-4.415 0-8.007-3.592-8.007-8.006v-69.809c0-4.416 3.592-8.008 8.007-8.008h96.957c4.414 0 8.006 3.592 8.006 8.008v69.809c0 4.414-3.592 8.006-8.006 8.006m0-0.25c4.266 0 7.756-3.49 7.756-7.756v-69.809c0-4.266-3.49-7.758-7.756-7.758h-96.957c-4.266 0-7.757 3.492-7.757 7.758v69.809c0 4.266 3.491 7.756 7.757 7.756h96.957"/></g><g transform="translate(410.43 350.17)"><path d="m0 0c-0.293 0.504-0.838 0.723-1.345 0.723-0.836 0-1.489-0.868-1.489-1.954 0-1.084 0.653-1.951 1.525-1.951 0.471 0 1.016 0.215 1.309 0.723zm0-5.027v0.363c-0.364-0.328-1.092-0.471-1.673-0.471-1.743 0-3.234 1.807-3.234 3.904 0 2.098 1.491 3.907 3.271 3.907 0.544 0 1.199-0.145 1.636-0.508v2.496l1.925 0.797v-10.488z" fill="#fff"/></g><g transform="translate(443.96 350.17)"><path d="m0 0c-0.292 0.504-0.836 0.723-1.345 0.723-0.836 0-1.49-0.868-1.49-1.954 0-1.084 0.654-1.951 1.527-1.951 0.472 0 1.016 0.215 1.308 0.723zm0-5.027v0.363c-0.364-0.328-1.09-0.471-1.671-0.471-1.746 0-3.235 1.807-3.235 3.904 0 2.098 1.489 3.907 3.27 3.907 0.546 0 1.199-0.145 1.636-0.508v2.496l1.926 0.797v-10.488z" fill="#fff"/></g><g transform="translate(399.91 351)"><path d="m0 0c-0.545 0-1.054-0.359-1.271-1.047h2.47c-0.291 0.758-0.616 1.047-1.199 1.047m-1.381-2.748c0.218-0.865 0.836-1.373 1.49-1.373 0.437 0 0.836 0.254 1.163 0.687l1.417-1.23c-0.763-0.904-1.562-1.301-2.58-1.301-1.927 0-3.596 1.697-3.596 3.904 0 2.17 1.634 3.907 3.487 3.907 1.236 0 2.36-0.76 2.906-1.953 0.292-0.688 0.437-1.411 0.437-2.35v-0.291z" fill="#fff"/></g><g transform="translate(418.4 350.89)"><path d="m0 0v-5.75h-1.954v5.75l-0.979-0.038v1.811h0.979v0.902c0 1.373 0.65 2.028 2.062 2.028 0.363 0 0.87-0.037 1.304-0.11v-1.918c-0.507 0.108-0.578 0.108-0.795 0.108-0.362 0-0.617-0.217-0.617-0.576v-0.434h1.412v-1.773z" fill="#fff"/></g><g transform="translate(425.57 350.95)"><path d="m0 0c-0.799 0-1.415-0.869-1.415-1.99 0-1.082 0.616-1.951 1.415-1.951 0.762 0 1.45 0.869 1.45 1.951 0 1.121-0.688 1.99-1.45 1.99m0-5.894c-1.888 0-3.483 1.736-3.483 3.904 0 2.242 1.523 3.943 3.483 3.943 1.814 0 3.554-1.771 3.554-3.943 0-2.168-1.703-3.904-3.554-3.904" fill="#fff"/></g><g transform="translate(436.81 350.3)"><path d="m0 0c-0.29 0.473-0.8 0.652-1.2 0.652-0.912 0-1.201-0.543-1.201-1.59v-4.16h-2.077v7.522h2.077v-0.362c0.509 0.399 0.946 0.543 1.491 0.543 0.62 0 1.094-0.144 1.604-0.543z" fill="#fff"/></g><g transform="translate(391.81 345.14)"><path d="m0 0v5.605l-2.75-5.605-2.822 5.605v-5.605h-2.026v10.343h2.026l2.822-5.677 2.75 5.677h2.024v-10.343z" fill="#fff"/></g><g transform="translate(426.68 374.9)"><path d="m0 0c0-6.425-5.208-11.634-11.634-11.634-6.427 0-11.634 5.209-11.634 11.634 0 6.426 5.207 11.634 11.634 11.634 6.426 0 11.634-5.208 11.634-11.634" fill="#fff"/></g><g transform="translate(417.98 377.49)"><path d="m0 0c-1.027-1.715-1.807-3.676-2.177-5.555-0.163-0.976-0.246-1.714-0.246-2.855h-1.887c0.042 2.693 0.534 4.939 1.682 7.387 0.41 0.898 0.904 1.756 1.315 2.41h-5.582v1.836h7.92v-1.836c-0.411-0.531-0.657-0.777-1.025-1.387"/></g><g transform="translate(399.52 256.28)"><path d="m0 0c-1.138 0-2.063 0.926-2.063 2.065v15.513c0 1.138 0.925 2.063 2.063 2.063h69.812c1.137 0 2.063-0.925 2.063-2.063v-15.513c0-1.139-0.926-2.065-2.063-2.065z" fill="#fff"/></g><g transform="translate(469.33 276.05)"><path d="m0 0h-69.812c-1.207 0-2.188-0.982-2.188-2.188v-15.513c0-1.207 0.981-2.19 2.188-2.19h69.812c1.207 0 2.188 0.983 2.188 2.19v15.513c0 1.206-0.981 2.188-2.188 2.188m0-0.25c1.068 0 1.938-0.865 1.938-1.938v-15.513c0-1.073-0.87-1.94-1.938-1.94h-69.812c-1.069 0-1.938 0.867-1.938 1.94v15.513c0 1.073 0.869 1.938 1.938 1.938h69.812"/></g><g transform="translate(398.88 258.34)"><path d="m0 0v15.513c0 0.356 0.289 0.645 0.645 0.645h69.812c0.355 0 0.646-0.289 0.646-0.645v-15.513c0-0.358-0.291-0.647-0.646-0.647h-69.812c-0.356 0-0.645 0.289-0.645 0.647" fill="#006f51"/></g><g transform="translate(409.28 262.87)"><path d="m0 0v6.465h4.734v-1.156h-3.55v-1.203h1.934v-1.18h-1.934v-1.768h3.665v-1.158z" fill="#fff"/></g><path d="m421.95 269.33h1.163v-6.465h-1.163z" fill="#fff"/><g transform="translate(427.2 268.2)"><path d="m0 0v-5.33h-1.132v5.33h-1.859v1.135h4.849v-1.135z" fill="#fff"/></g><g transform="translate(419.29 262.87)"><path d="m0 0-1.458 2.291-1.435-2.291h-1.368l2.119 3.403-1.935 3.062h1.388l1.231-1.973 1.229 1.973h1.39l-1.913-3.062 2.119-3.403z" fill="#fff"/></g><g transform="translate(445.97 268.67)"><path d="m0 0-3.776-3.879h3.776zm1.704-5.443v-1.973h-1.704v1.973h-5.987v1.564l5.987 6.158h1.704v-6.158h1.427v-1.564z" fill="#fff"/></g><g transform="translate(456.45 268.67)"><path d="m0 0-3.778-3.879h3.778zm1.7-5.443v-1.973h-1.7v1.973h-5.989v1.564l5.989 6.158h1.7v-6.158h1.429v-1.564z" fill="#fff"/></g><g transform="translate(471.28 163.08)"><path d="m0 0c0-4.266-3.491-7.756-7.757-7.756h-96.957c-4.266 0-7.757 3.49-7.757 7.756v85.334c0 4.268 3.491 7.756 7.757 7.756h96.957c4.266 0 7.757-3.488 7.757-7.756z" fill="#fff"/></g><g transform="translate(471.28 178.57)"><path d="m0 0v-15.494c0-4.266-3.491-7.756-7.757-7.756h-96.957c-4.266 0-7.757 3.49-7.757 7.756v15.494z" fill="#ffd24f"/></g><g transform="translate(469.48 250.92)"><path d="m0 0c-0.328 0.768-0.796 1.463-1.39 2.059-0.598 0.595-1.29 1.062-2.06 1.39-0.795 0.338-1.638 0.508-2.505 0.508h-96.957c-0.869 0-1.711-0.17-2.507-0.508-0.768-0.328-1.462-0.795-2.057-1.39-0.596-0.596-1.065-1.291-1.391-2.059-0.338-0.793-0.51-1.639-0.51-2.506v-69.84h109.88v69.84c0 0.867-0.172 1.713-0.508 2.506" fill="#006f51"/></g><g transform="translate(359.81 160.23)"><path d="m0 0c0.37-0.875 0.901-1.656 1.576-2.334 0.674-0.675 1.461-1.207 2.334-1.578 0.903-0.383 1.862-0.578 2.848-0.578h96.957c0.984 0 1.943 0.195 2.848 0.578 0.872 0.371 1.658 0.903 2.332 1.578 0.676 0.678 1.207 1.459 1.577 2.334 0.384 0.905 0.579 1.862 0.579 2.846v15.494h-0.873v-15.494c0-0.865-0.172-1.711-0.508-2.504-0.328-0.771-0.796-1.463-1.39-2.058-0.598-0.596-1.29-1.063-2.059-1.391-0.795-0.338-1.639-0.512-2.506-0.512h-96.957c-0.869 0-1.711 0.174-2.507 0.512-0.768 0.328-1.462 0.795-2.057 1.391-0.596 0.595-1.065 1.287-1.391 2.058-0.338 0.793-0.51 1.639-0.51 2.504v15.494h-0.872v-15.494c0-0.984 0.194-1.941 0.579-2.846"/></g><g transform="translate(463.53 256.42)"><path d="m0 0h-96.957c-4.415 0-8.007-3.592-8.007-8.006v-85.334c0-4.414 3.592-8.006 8.007-8.006h96.957c4.415 0 8.007 3.592 8.007 8.006v85.334c0 4.414-3.592 8.006-8.007 8.006m0-0.25c4.266 0 7.757-3.488 7.757-7.756v-85.334c0-4.266-3.491-7.756-7.757-7.756h-96.957c-4.266 0-7.757 3.49-7.757 7.756v85.334c0 4.268 3.491 7.756 7.757 7.756h96.957"/></g><g transform="translate(428.58 188.43)"><path d="m0 0v6.465h4.733v-1.159h-3.55v-1.203h1.935v-1.178h-1.935v-1.769h3.665v-1.156z" fill="#fff"/></g><path d="m419.23 194.89h1.164v-6.465h-1.164z" fill="#fff"/><g transform="translate(422.41 188.43)"><path d="m0 0v6.465h1.162v-5.469h3.685v-0.996z" fill="#fff"/></g><g transform="translate(416.08 188.43)"><path d="m0 0v3.947l-1.91-3.947-1.891 3.947v-3.947h-1.139v6.465h1.139l1.891-3.834 1.91 3.834h1.14v-6.465z" fill="#fff"/></g><g transform="translate(397.89 186.81)"><path d="m0 0 0.034 7.245h-1.218l-0.033 1.396c0.744 0.168 1.15 0.442 1.521 1.053h1.387v-9.694z" fill="#fff"/></g><g transform="translate(410.43 209.45)"><path d="m0 0c-0.291 0.508-0.838 0.725-1.345 0.725-0.836 0-1.489-0.869-1.489-1.953s0.653-1.954 1.526-1.954c0.47 0 1.017 0.217 1.308 0.725zm0-5.025v0.361c-0.363-0.326-1.092-0.469-1.673-0.469-1.743 0-3.234 1.807-3.234 3.905 0 2.097 1.491 3.904 3.272 3.904 0.543 0 1.198-0.145 1.635-0.506v2.496l1.925 0.795v-10.486z" fill="#fff"/></g><g transform="translate(443.96 209.45)"><path d="m0 0c-0.29 0.508-0.836 0.725-1.345 0.725-0.836 0-1.49-0.869-1.49-1.953s0.654-1.954 1.527-1.954c0.472 0 1.018 0.217 1.308 0.725zm0-5.025v0.361c-0.364-0.326-1.089-0.469-1.671-0.469-1.744 0-3.235 1.807-3.235 3.905 0 2.097 1.491 3.904 3.271 3.904 0.546 0 1.198-0.145 1.635-0.506v2.496l1.927 0.795v-10.486z" fill="#fff"/></g><g transform="translate(399.91 210.29)"><path d="m0 0c-0.545 0-1.054-0.359-1.271-1.049h2.47c-0.29 0.76-0.616 1.049-1.199 1.049m-1.381-2.748c0.218-0.867 0.836-1.375 1.491-1.375 0.436 0 0.836 0.254 1.162 0.69l1.417-1.231c-0.763-0.904-1.562-1.301-2.579-1.301-1.928 0-3.597 1.698-3.597 3.905 0 2.17 1.634 3.904 3.487 3.904 1.236 0 2.362-0.758 2.907-1.951 0.291-0.688 0.438-1.41 0.438-2.352v-0.289z" fill="#fff"/></g><g transform="translate(418.4 210.18)"><path d="m0 0v-5.75h-1.955v5.75l-0.978-0.037v1.806h0.978v0.906c0 1.375 0.652 2.024 2.065 2.024 0.362 0 0.869-0.035 1.302-0.107v-1.917c-0.506 0.108-0.578 0.108-0.795 0.108-0.363 0-0.617-0.215-0.617-0.576v-0.438h1.412v-1.769z" fill="#fff"/></g><g transform="translate(425.57 210.23)"><path d="m0 0c-0.798 0-1.415-0.869-1.415-1.99 0-1.084 0.617-1.953 1.415-1.953 0.762 0 1.45 0.869 1.45 1.953 0 1.121-0.688 1.99-1.45 1.99m0-5.896c-1.887 0-3.482 1.738-3.482 3.906 0 2.242 1.522 3.944 3.482 3.944 1.814 0 3.554-1.774 3.554-3.944 0-2.168-1.703-3.906-3.554-3.906" fill="#fff"/></g><g transform="translate(436.81 209.58)"><path d="m0 0c-0.292 0.469-0.802 0.65-1.203 0.65-0.909 0-1.2-0.545-1.2-1.591v-4.161h-2.077v7.524h2.077v-0.361c0.509 0.396 0.946 0.543 1.493 0.543 0.618 0 1.092-0.147 1.601-0.543z" fill="#fff"/></g><g transform="translate(391.81 204.43)"><path d="m0 0v5.605l-2.75-5.605-2.822 5.605v-5.605h-2.025v10.342h2.025l2.822-5.678 2.75 5.678h2.025v-10.342z" fill="#fff"/></g><g transform="translate(426.68 234.18)"><path d="m0 0c0-6.428-5.21-11.637-11.634-11.637-6.425 0-11.635 5.209-11.635 11.637 0 6.423 5.21 11.634 11.635 11.634 6.424 0 11.634-5.211 11.634-11.634" fill="#fff"/></g><g transform="translate(417.98 236.78)"><path d="m0 0c-1.027-1.714-1.807-3.675-2.176-5.552-0.164-0.981-0.247-1.715-0.247-2.858h-1.885c0.04 2.696 0.532 4.942 1.68 7.389 0.412 0.898 0.904 1.754 1.313 2.41h-5.58v1.834h7.92v-1.834c-0.411-0.531-0.656-0.777-1.025-1.389"/></g><g transform="translate(369.42 319.95)"><path d="m0 0v7.757h5.681v-1.388h-4.261v-1.442h2.322v-1.416h-2.322v-2.122h4.397v-1.389z"/></g><path d="m385.56 327.7h1.397v-7.757h-1.397z"/><g transform="translate(392.38 326.34)"><path d="m0 0v-6.397h-1.36v6.397h-2.229v1.36h5.817v-1.36z"/></g><g transform="translate(381.83 319.95)"><path d="m0 0-1.75 2.75-1.722-2.75h-1.639l2.542 4.082-2.324 3.675h1.666l1.477-2.368 1.476 2.368h1.668l-2.297-3.675 2.543-4.082z"/></g><g transform="translate(449.42 319.94)"><path d="m0 0v7.758h1.393v-6.559h4.424v-1.199z"/></g><g transform="translate(446.21 319.94)"><path d="m0 0-3.717 5.334v-5.334h-1.367v7.758h1.367l3.58-5.117v5.117h1.34v-7.758z"/></g><g transform="translate(436.18 326.45)"><path d="m0 0c-1.172 0-1.881-0.98-1.881-2.613 0-1.66 0.709-2.641 1.881-2.641 1.474 0 1.828 1.444 1.828 2.641 0 1.633-0.655 2.613-1.828 2.613m0-6.641c-2.292 0-3.301 2.069-3.301 4.028 0 2.476 1.255 4.001 3.301 4.001 1.91 0 3.218-1.607 3.218-3.974 0-2.423-1.254-4.055-3.218-4.055"/></g><g transform="translate(460.09 323.1)"><path d="m0 0v-3.158h-1.386v3.158l-3.266 4.6h1.714l2.259-3.157 2.23 3.157h1.715z"/></g><g transform="translate(424.41 327.06)"><path d="m0 0c-0.072 0-0.126 0-0.184-0.015l-7.419-1.925v5.817h-4.201v-5.817l-7.434 1.925c-0.055 0.015-0.112 0.015-0.154 0.015-0.365 0-0.646-0.282-0.646-0.648 0-0.168 0.07-0.337 0.197-0.463l0.014-0.014 10.13-9.219 10.119 9.219c0.139 0.127 0.224 0.309 0.224 0.477 0 0.366-0.296 0.648-0.646 0.648"/></g><g transform="translate(369.42 163.72)"><path d="m0 0v7.757h5.681v-1.388h-4.261v-1.443h2.322v-1.416h-2.322v-2.122h4.397v-1.388z"/></g><path d="m385.56 171.48h1.397v-7.757h-1.397z"/><g transform="translate(392.38 170.12)"><path d="m0 0v-6.396h-1.36v6.396h-2.229v1.361h5.817v-1.361z"/></g><g transform="translate(381.83 163.72)"><path d="m0 0-1.75 2.75-1.722-2.75h-1.64l2.542 4.082-2.323 3.675h1.666l1.477-2.369 1.476 2.369h1.668l-2.297-3.675 2.543-4.082z"/></g><g transform="translate(449.42 163.72)"><path d="m0 0v7.758h1.393v-6.56h4.424v-1.198z"/></g><g transform="translate(446.21 163.72)"><path d="m0 0-3.717 5.334v-5.334h-1.367v7.758h1.367l3.58-5.118v5.118h1.34v-7.758z"/></g><g transform="translate(436.18 170.22)"><path d="m0 0c-1.172 0-1.881-0.981-1.881-2.614 0-1.66 0.709-2.64 1.881-2.64 1.474 0 1.828 1.443 1.828 2.64 0 1.633-0.655 2.614-1.828 2.614m0-6.642c-2.292 0-3.301 2.069-3.301 4.028 0 2.477 1.255 4.001 3.301 4.001 1.91 0 3.218-1.606 3.218-3.973 0-2.423-1.254-4.056-3.218-4.056"/></g><g transform="translate(460.1 166.87)"><path d="m0 0v-3.157h-1.386v3.157l-3.266 4.601h1.714l2.259-3.158 2.23 3.158h1.715z"/></g><g transform="translate(424.42 170.83)"><path d="m0 0c-0.072 0-0.126 0-0.184-0.015l-7.419-1.924v5.816h-4.201v-5.816l-7.434 1.924c-0.055 0.015-0.112 0.015-0.154 0.015-0.365 0-0.646-0.281-0.646-0.647 0-0.168 0.07-0.337 0.197-0.463l0.014-0.015 10.13-9.219 10.119 9.219c0.139 0.127 0.224 0.31 0.224 0.478 0 0.366-0.296 0.647-0.646 0.647"/></g><g transform="translate(420.75 461.14)"><path d="m0 0c4e-3 7e-3 8e-3 0.013 0.011 0.02 0.024 0.043 0.041 0.088 0.054 0.133 1e-3 4e-3 5e-3 7e-3 5e-3 0.012h-2e-3c4e-3 0.015 0.01 0.03 0.012 0.046l0.021 0.151 2.159 11.143 0.029 0.209c0.03 0.21-0.039 0.419-0.179 0.558-0.159 0.159-0.368 0.23-0.567 0.19l-0.139-0.027-11.176-2.178-0.195-0.032c-0.13-0.03-0.23-0.089-0.329-0.188-0.249-0.249-0.259-0.658 0-0.916 0.03-0.031 0.079-0.06 0.12-0.079l0.119-0.067 3.977-2.444-9.722-8.928 3.253-3.254 8.928 9.703-1e-3 0.02 2.408-3.918 0.1-0.143c0.03-0.049 0.06-0.098 0.1-0.138 0.248-0.249 0.666-0.249 0.914-1e-3 0.041 0.04 0.072 0.084 0.1 0.128"/></g><g transform="translate(372.04 460.66)"><path d="m0 0v7.757h5.68v-1.389h-4.26v-1.443h2.321v-1.414h-2.321v-2.123h4.397v-1.388z"/></g><path d="m388.16 468.42h1.396v-7.757h-1.396z"/><g transform="translate(394.97 467.06)"><path d="m0 0v-6.396h-1.36v6.396h-2.229v1.361h5.817v-1.361z"/></g><g transform="translate(384.43 460.66)"><path d="m0 0-1.749 2.749-1.721-2.749h-1.641l2.542 4.082-2.323 3.675h1.668l1.475-2.368 1.476 2.368h1.668l-2.297-3.675 2.543-4.082z"/></g><g transform="translate(447.28 460.69)"><path d="m0 0v7.757h1.394v-6.559h4.424v-1.198z"/></g><g transform="translate(444.07 460.69)"><path d="m0 0-3.718 5.334v-5.334h-1.366v7.757h1.366l3.581-5.117v5.117h1.339v-7.757z"/></g><g transform="translate(434.07 467.19)"><path d="m0 0c-1.173 0-1.882-0.979-1.882-2.612 0-1.66 0.709-2.64 1.882-2.64 1.474 0 1.827 1.442 1.827 2.64 0 1.633-0.654 2.612-1.827 2.612m0-6.64c-2.292 0-3.3 2.068-3.3 4.028 0 2.477 1.254 4.001 3.3 4.001 1.909 0 3.22-1.606 3.22-3.974 0-2.422-1.256-4.055-3.22-4.055"/></g><g transform="translate(457.94 463.85)"><path d="m0 0v-3.158h-1.388v3.158l-3.265 4.599h1.715l2.257-3.158 2.232 3.158h1.714z"/></g></g></g></svg>
