<?xml version="1.0" encoding="UTF-8"?>
<svg width="466.56pt" height="445.2pt" version="1.2" viewBox="0 0 466.56 445.2" xmlns="http://www.w3.org/2000/svg" xmlns:xlink="http://www.w3.org/1999/xlink"><defs><symbol id="l" overflow="visible"><path d="m6.6875-3.7656c0 1.7812-0.98438 3.0625-2.6094 3.0625-1.6406 0-2.625-1.2812-2.625-3.0625 0-1.7656 0.98438-3.0469 2.625-3.0469 1.625 0 2.6094 1.2812 2.6094 3.0469zm1.0469 0c0-1.6094-0.85938-3.9531-3.6562-3.9531-2.8125 0-3.6719 2.3438-3.6719 3.9531 0 1.625 0.85938 3.9688 3.6719 3.9688 2.7969 0 3.6562-2.3438 3.6562-3.9688z"/></symbol><symbol id="k" overflow="visible"><path d="m1.9375-3.2188h2.4531c1.2188 0 1.3438 0.71875 1.3438 1.3281 0 0.28125 0.03125 1.4375 0.1875 1.8906h1.2344v-0.17188c-0.3125-0.17188-0.35938-0.32812-0.375-0.75l-0.0625-1.3594c-0.046875-1.0469-0.46875-1.2344-0.89062-1.4219 0.46875-0.28125 1.0469-0.6875 1.0469-1.7969 0-1.5938-1.25-2.0156-2.4844-2.0156h-3.4688v7.5156h1.0156zm0-3.4219h2.5312c0.5 0 1.3594 0.09375 1.3594 1.25 0 1.1094-0.79688 1.2969-1.5312 1.2969h-2.3594z"/></symbol><symbol id="e" overflow="visible"><path d="m0.73438 0h2.5781c2.125 0 2.75-1.875 2.75-3.3281 0-1.8594-1.0312-3.1406-2.7188-3.1406h-2.6094zm0.875-5.7188h1.625c1.1875 0 1.9375 0.82812 1.9375 2.4531s-0.75 2.5156-1.875 2.5156h-1.6875z"/></symbol><symbol id="d" overflow="visible"><path d="m2.3594-2.1094c0.59375 0 1.2188-0.28125 1.4531-0.76562l0.015625 0.015625c-0.1875 1.6406-0.65625 2.375-1.5156 2.375-0.64062 0-1.0312-0.39062-1.0781-1.0312h-0.78125c0 0.60938 0.39062 1.6875 1.875 1.6875 2.1875 0 2.2969-2.8906 2.2969-3.5625 0-1.0312-0.20312-2.9375-2.2188-2.9375-1.3281 0-2.0312 1.0156-2.0312 2.1719 0 1.2656 0.82812 2.0469 1.9844 2.0469zm0.125-0.71875c-0.53125 0-1.2812-0.15625-1.2812-1.3594 0-0.85938 0.48438-1.4219 1.2188-1.4219 0.90625 0 1.2812 0.625 1.2812 1.3438 0 1.25-0.8125 1.4375-1.2188 1.4375z"/></symbol><symbol id="b" overflow="visible"><path d="m2.5938-2.8906h-2.2031v0.79688h2.2031z"/></symbol><symbol id="a" overflow="visible"><path d="m3.2344-6.3281h-0.625c-0.25 1.0312-0.67188 1.1406-1.7031 1.2031v0.64062h1.4844v4.4844h0.84375z"/></symbol><symbol id="c" overflow="visible"><path d="m4.4219-4.7031c0-0.73438-0.54688-1.625-1.9531-1.625-1.5 0-1.9062 1.0781-1.9062 1.7344 0 0.59375 0.3125 1.0312 0.84375 1.2344-0.65625 0.26562-1.0625 0.76562-1.0625 1.5469 0 0.29688 0 0.98438 0.64062 1.5 0.51562 0.39062 1.1719 0.48438 1.5312 0.48438 1.4844 0 2.1406-0.98438 2.1406-2 0-0.46875-0.1875-1.1719-1.0312-1.5312 0.26562-0.15625 0.79688-0.42188 0.79688-1.3438zm-1.9219 1.7344c0.71875 0 1.3125 0.375 1.3125 1.2344 0 0.98438-0.70312 1.1875-1.2812 1.1875-1.0938 0-1.3438-0.75-1.3438-1.25 0-0.59375 0.42188-1.1719 1.3125-1.1719zm-0.015625-0.6875c-0.57812 0-1.1094-0.35938-1.1094-0.96875 0-0.40625 0.20312-0.98438 1.0625-0.98438 0.92188 0 1.1719 0.54688 1.1719 0.9375 0 0.57812-0.4375 1.0156-1.125 1.0156z"/></symbol><symbol id="h" overflow="visible"><path d="m5.5469-0.78125h-3.9062v-2.1562h3.5469v-0.76562h-3.5469v-1.9844h3.8438v-0.78125h-4.7031v6.4688h4.7656z"/></symbol><symbol id="g" overflow="visible"><path d="m1.5938-5.4219h2.6875v-0.76562h-3.2812l-0.48438 3.3906 0.6875 0.03125c0.29688-0.39062 0.71875-0.59375 1.1719-0.59375 0.78125 0 1.4062 0.48438 1.4062 1.3906 0 0.79688-0.51562 1.4531-1.3281 1.4531-0.71875 0-1.2656-0.32812-1.3438-1.0625h-0.82812c0.15625 1.4219 1.2188 1.75 2.0469 1.75 1.9844 0 2.2969-1.5156 2.2969-2.2188 0-1.3125-1.0469-2.0312-2.0781-2.0312-0.5625 0-0.95312 0.1875-1.2188 0.39062z"/></symbol><symbol id="f" overflow="visible"><path d="m1.6406-5.7188h1.7812c0.71875 0 1.2812 0.26562 1.2812 1.0781 0 0.875-0.53125 1.1719-1.3125 1.1719h-1.75zm0 2.9844h2.0469c1.3906 0 1.9062-1.0156 1.9062-1.9062 0-1.0469-0.71875-1.8281-1.9062-1.8281h-2.9062v6.4688h0.85938z"/></symbol><symbol id="m" overflow="visible"><path d="m1.2812-3.2812c0.0625-0.35938 0.1875-0.90625 1.0781-0.90625 0.75 0 1.1094 0.26562 1.1094 0.76562 0 0.46875-0.21875 0.54688-0.40625 0.5625l-1.3125 0.15625c-1.3125 0.17188-1.4219 1.0781-1.4219 1.4844 0 0.8125 0.60938 1.3594 1.4688 1.3594 0.92188 0 1.3906-0.4375 1.7031-0.76562 0.03125 0.35938 0.14062 0.71875 0.84375 0.71875 0.17188 0 0.29688-0.0625 0.42188-0.09375v-0.57812c-0.078125 0.015625-0.1875 0.03125-0.25 0.03125-0.17188 0-0.26562-0.078125-0.26562-0.26562v-2.7188c0-1.2031-1.375-1.3125-1.75-1.3125-1.1562 0-1.9062 0.4375-1.9375 1.5625zm2.1719 1.6562c0 0.625-0.71875 1.1094-1.4531 1.1094-0.59375 0-0.85938-0.3125-0.85938-0.82812 0-0.59375 0.625-0.70312 1.0156-0.76562 0.96875-0.125 1.1719-0.1875 1.2969-0.29688z"/></symbol><symbol id="j" overflow="visible"><path d="m4.2969-3.125c-0.0625-0.8125-0.53125-1.7188-1.7656-1.7188-1.5625 0-2.2656 1.1562-2.2656 2.625 0 1.3594 0.78125 2.3594 2.1094 2.3594 1.375 0 1.8438-1.0625 1.9219-1.8125h-0.76562c-0.14062 0.73438-0.59375 1.125-1.125 1.125-1.0938 0-1.2969-1-1.2969-1.8125 0-0.82812 0.32812-1.7656 1.2969-1.7656 0.67188 0 1.0156 0.375 1.125 1z"/></symbol><symbol id="i" overflow="visible"><path d="m1.2656 0v-0.57812h0.015625c0.17188 0.25 0.5 0.71875 1.2969 0.71875 1.6094 0 2.0781-1.5156 2.0781-2.6406 0-1.3125-0.71875-2.3438-1.9688-2.3438-0.54688 0.015625-1.0156 0.23438-1.3594 0.73438h-0.015625v-2.3594h-0.79688v6.4688zm2.5625-2.3594c0 1.0312-0.40625 1.8125-1.2656 1.8125-0.5 0-1.2812-0.32812-1.2812-1.5938 0-0.75 0.125-1.9844 1.2656-1.9844 1.2188 0 1.2812 1.1562 1.2812 1.7656z"/></symbol></defs><path d="m158.74 31.426c0 1.9141-1.5508 3.4648-3.4609 3.4648h-124.71c-1.9141 0-3.4648-1.5508-3.4648-3.4648v-27.711c0-1.9141 1.5508-3.4648 3.4648-3.4648h124.71c1.9102 0 3.4609 1.5508 3.4609 3.4648z" fill="#fff" stroke="#211e1e" stroke-width=".5"/><path d="m30.57 32.582c-0.63672 0-1.1562-0.51953-1.1562-1.1562v-27.711c0-0.63672 0.51953-1.1562 1.1562-1.1562h124.71c0.63672 0 1.1524 0.51953 1.1524 1.1562v27.711c0 0.63672-0.51563 1.1562-1.1524 1.1562z" fill="#14549c"/><g fill="#fff"><path d="m58.988 23.344v-11.547h8.4531v2.0664h-6.3398v2.1484h3.4531v2.1055h-3.4531v3.1602h6.543v2.0664z"/><path d="m82.41 11.797h2.0781v11.547h-2.0781z"/><path d="m92.188 13.824v9.5195h-2.0234v-9.5195h-3.3203v-2.0273h8.6602v2.0273z"/><path d="m77.195 23.344-2.6016-4.0938-2.5664 4.0938h-2.4414l3.7852-6.0781-3.4609-5.4688h2.4844l2.1992 3.5234 2.1953-3.5234h2.4844l-3.418 5.4688 3.7812 6.0781z"/><path d="m124.98 14.074c-1.1562 1.582-2.25 3.8906-2.918 5.8984-0.66797 2.0625-0.91015 3.6445-0.97265 6.2578h-3.0977c0.0586-2.6133 0.24219-4.0703 0.78906-6.1992 0.60547-2.1875 1.457-4.1914 2.4922-5.8945 0.30469-0.54688 0.66797-1.0938 1.3945-2.1875h-9.7812l-0.0625-3.0391h14.039v3.0977c-1.1562 1.0977-1.457 1.3984-1.8828 2.0664"/><path d="m158.77 125.39c0 2.6328-2.1328 4.7656-4.7656 4.7656h-142.89c-2.6328 0-4.7656-2.1328-4.7656-4.7656v-85.734c0-2.6328 2.1328-4.7656 4.7656-4.7656h142.89c2.6328 0 4.7656 2.1328 4.7656 4.7656z" stroke="#211e1e" stroke-width=".5"/></g><g><path d="m11.113 128.57c-1.7539 0-3.1758-1.4219-3.1758-3.1758v-85.734c0-1.7539 1.4219-3.1797 3.1758-3.1797h142.89c1.7539 0 3.1758 1.4258 3.1758 3.1797v85.734c0 1.7539-1.4219 3.1758-3.1758 3.1758z" fill="#14549c"/><g fill-rule="evenodd"><path d="m20.914 73.715h7.4453v-31.199h0.01172c0-0.69921 0.57812-1.2578 1.2734-1.2578l0.0078-8e-3 11.207-8e-3c0.69531 0 1.2695 0.58203 1.2773 1.2773v2.1602l3.0312 2.4844c0.5586 0.42578 0.92969 1.0977 0.96485 1.7969v11.758c0 3.9375 2.3398 6.918 2.3398 9.9102 0 1.5039-1.2383 2.7305-2.7305 2.7305-1.2617 0-2.4375-0.99218-2.7773-2.2266-0.53125-1.9453-0.24219-12.188-0.26563-14.449h-0.57031v17.031h6.8125v2.457h-28.027" fill="#fff"/><path d="m44.141 55.824c0-0.57032-0.46875-1.0391-1.0273-1.0391l-1.0117-0.0391v-8.1523l0.58984 0.45703v3.25l1.9922-4e-3c0.0312 3.6953 0.0625 7.3906 0.0898 11.086 8e-3 3.6797 2.1172 6.9336 2.1797 9.0508 0.0234 0.70313-0.57422 1.2812-1.2773 1.2812-0.35938 0-0.84375-0.1875-1.1445-0.6914-0.85937-1.4219-0.3789-13.355-0.39062-15.199" fill="#14549c"/><path d="m31.043 43.008h8.375c0.44922 0 0.81641 0.3711 0.81641 0.82031v6.3945c0 0.45313-0.36719 0.82032-0.81641 0.82032h-8.375c-0.44922 0-0.82031-0.36719-0.82031-0.82032v-6.3945c0-0.44921 0.37109-0.82031 0.82031-0.82031" fill="#14549c"/><path d="m82.559 41.242c9.6211 0 17.465 7.8476 17.465 17.465 0 9.6211-7.8438 17.465-17.465 17.465-9.6172 0-17.465-7.8438-17.465-17.465 0-9.6172 7.8477-17.465 17.465-17.465" fill="#fff"/><path d="m80.277 73.512c4e-3 0.82812-0.30078 1.0234-0.875 1.0273-0.56641 4e-3 -0.97266-0.19922-0.97657-1.0273-8e-3 -6.5 0-12.996 0-19.492-1.5078-1.1719-2.0156-2.8281-1.6953-4.8867 0.32422-1.8828 0.65235-3.7695 0.97656-5.6562 0.0742-8e-3 0.14844-0.0156 0.22657-0.0195 8e-3 2.3086 0.0117 4.6172 0.0234 6.9297h0.38672c0.14453-2.3125 0.28907-4.6211 0.4336-6.9297h0.21875c0.0469 2.3164 0.0937 4.6367 0.14453 6.9531 0.13672-8e-3 0.27344-0.0156 0.41015-0.0234 0.11329-2.3125 0.22266-4.6211 0.33594-6.9297h0.21875c0.0898 2.3008 0.17578 4.6016 0.26563 6.9023h0.50781c-8e-3 -2.3008-0.0156-4.6016-0.0234-6.9023h0.23828c0.31641 1.8906 0.62891 3.7812 0.94532 5.6719 0.14453 2.2656-0.29688 4.0274-1.7891 4.9024 8e-3 6.4922 0.0156 12.988 0.0273 19.48" fill="#14549c"/><path d="m87.039 43.449v30.074c-0.13672 0.61328-0.39454 0.80078-0.97266 0.82031-0.57813 0.0195-0.96094-0.16797-0.98438-0.81641v-15.012c0.0547-0.95312-8e-3 -1.8984-0.86328-2.7773-0.41015-0.27344-0.63281-0.81641-0.66797-1.6211 0.0234-2.957 0.0469-5.918 0.0742-8.875-0.0195-2.0156 2.0195-1.918 3.4141-1.793" fill="#14549c"/></g></g><g fill="#fff" fill-rule="evenodd"><path d="m116.56 56.492c0-1.2227 0.99609-2.2188 2.2148-2.2188 1.2227 0 2.2188 0.99609 2.2188 2.2188 0 1.2188-0.99609 2.2148-2.2188 2.2148-1.2188 0-2.2148-0.99609-2.2148-2.2148"/><path d="m115.51 66.594h-2.7812v-15.773h2.7812v8.8633h29.371v-5.1094h2.7773v12.02h-2.7773v-3.0781h-29.371"/><path d="m122.19 58.707c0.17578-2.2305 1.0508-3.9336 4.4336-3.7539 4.1797-0.0273 8.3633-0.0508 12.543-0.0781 3.3906 0.0234 4.1367 1.8008 4.5078 3.832h-21.484"/><path d="m37.426 88.875c-0.63282 0.0312-1.2578 0.10547-1.875 0.26562-0.71094 0.1875-1.3789 0.46485-2.0039 0.85547-0.51172 0.32422-0.97266 0.69531-1.4063 1.1094l-1.6523 6.6484c-0.62109 2.5117-1.0117 5.0781-1.1172 7.6641-0.03906 1.0078-0.03125 2.0234 0.01172 3.0312 0.05469 1.3242 0.16016 2.6445 0.32812 3.957 0.05078 0.42578 0.13281 0.84765 0.24609 1.2578l2.2305 8.2969c0.51562 0.33593 1.043 0.64453 1.6016 0.90234 0.64843 0.29687 1.3281 0.53125 2.0234 0.69141 0.58204 0.13281 1.168 0.21093 1.7617 0.25l-2.1367-9.3164c-0.3789-0.0859-0.73828-0.23047-1.0469-0.47656-0.25-0.20313-0.69922-0.66407-0.69922-1.0234v-12.422c0-0.66796 0.40625-1.2344 0.92578-1.6211 0.31641-0.23828 0.67578-0.38281 1.0625-0.46484l1.7461-9.6055"/><path d="m39.98 123.32c0.1836-0.0586 0.3125-0.19141 0.41407-0.35157 0.0781-0.125 0.11718-0.2539 0.11718-0.39843-4e-3 -0.1211-0.0195-0.2461-0.0469-0.36328l-1.8867-7.8359c-0.0586-0.23438-0.0625-0.34375-0.28906-0.48438-0.14453-0.0898-0.32422-0.14843-0.48438-0.0977l-1.5 0.43359 2.1289 9.4336 1.5469-0.33593"/><path d="m36.598 98.488 1.3594 0.28516c0.0781 0.0117 0.15625 0.0195 0.23828 0.0273 0.11328 0.0117 0.23437-4e-3 0.33593-0.0703 0.17969-0.11719 0.25391-0.28125 0.29688-0.48438l1.6445-7.9531c0.0273-0.1211 0.0352-0.24219-0.0117-0.36328-0.043-0.11329-0.10937-0.22657-0.1875-0.32422-0.11719-0.14063-0.29297-0.25-0.47656-0.28125l-1.4531-0.23828-1.7461 9.4023"/><path d="m96.648 123.8v-34.93h-6.8594v12.617h-14.457v-12.617h-6.8594v34.93h6.8594v-15.332h14.457v15.332"/><path d="m112.73 116.28h3.6641m13.84 2.2226h-17.504v-2.2226h3.6641l13.84-22.105 13.84 22.105h3.5898v2.2226zm0-11.508-5.7578 9.2852h11.52zm17.43 9.2852h-3.5898"/></g><g><g transform="translate(-67.59 -80.043)" fill="#211e1e"><use x="142.2988" y="393.07709" width="100%" height="100%" xlink:href="#l"/><use x="150.4433" y="393.07709" width="100%" height="100%" xlink:href="#k"/></g><g><path d="m286.93 133.51c-5.8672 0-10.645-4.7734-10.645-10.645v-76.211c0-5.8711 4.7773-10.645 10.645-10.645h131.64c5.8672 0 10.641 4.7734 10.641 10.645v76.211c0 5.8711-4.7734 10.645-10.641 10.645z" fill="#fff"/><path d="m418.57 35.762h-131.64c-6.0078 0-10.891 4.8867-10.891 10.895v76.211c0 6.0078 4.8828 10.895 10.891 10.895h131.64c6.0078 0 10.895-4.8867 10.895-10.895v-76.211c0-6.0078-4.8867-10.895-10.895-10.895m0 0.5c5.7148 0 10.395 4.6758 10.395 10.395v76.211c0 5.7188-4.6797 10.395-10.395 10.395h-131.64c-5.7148 0-10.391-4.6758-10.391-10.395v-76.211c0-5.7188 4.6758-10.395 10.391-10.395h131.64" fill="#211e1e"/><path d="m286.93 131.53c-1.1641 0-2.293-0.22656-3.3594-0.67969-1.0312-0.4414-1.957-1.0664-2.7539-1.8672-0.80079-0.79688-1.4258-1.7227-1.8672-2.7539-0.45313-1.0664-0.67969-2.1953-0.67969-3.3594v-76.211c0-1.1641 0.22656-2.293 0.67969-3.3594 0.4414-1.0312 1.0664-1.957 1.8672-2.7578 0.79687-0.79687 1.7226-1.4219 2.7539-1.8633 1.0664-0.45312 2.1953-0.67969 3.3594-0.67969h131.64c1.1602 0 2.293 0.22657 3.3555 0.67969 1.0352 0.44141 1.9609 1.0664 2.7578 1.8633 0.80078 0.80078 1.4258 1.7266 1.8633 2.7578 0.45313 1.0664 0.67969 2.1953 0.67969 3.3594v76.211c0 1.1641-0.22656 2.293-0.67969 3.3594-0.4375 1.0312-1.0625 1.957-1.8633 2.7539-0.79687 0.80078-1.7226 1.4258-2.7578 1.8672-1.0625 0.45313-2.1953 0.67969-3.3555 0.67969z" fill="#14549c"/></g></g><g fill="#fff"><path d="m331.46 113.23-1.6211 3.8906h3.2383zm3.6445 8.668-1.1367-2.7148h-5.0234l-1.1328 2.7148h-2.2656l4.8594-11.547h2.1055l4.8203 11.547z"/><path d="m319.47 122.1c-3.0391 0-4.9023-2.3906-4.9023-5.9961 0-3.6445 1.8633-5.957 4.9023-5.957 1.8633 0 3.5664 0.93359 4.457 2.5547l-1.8242 0.97266c-0.32422-0.48828-0.48828-0.64844-0.80859-0.85156-0.44531-0.36328-1.2188-0.60938-1.8242-0.60938-2.1055 0-2.7969 2.0664-2.7969 3.8516 0 2.5117 1.0547 3.9688 2.7969 3.9688 1.0547 0 1.6211-0.36328 2.6328-1.457l1.8242 0.97266c-0.85156 1.6211-2.5938 2.5508-4.457 2.5508"/><path d="m390.93 116.15v1.4961c0 2.5117-2.0234 4.457-4.5781 4.457-3.4023 0-4.7773-2.9961-4.7773-5.9961 0-3.5234 1.9023-5.957 4.7773-5.957 2.0664 0 3.4883 1.0938 4.2969 2.8789l-2.1055 0.73047c-0.44531-0.97656-1.1758-1.543-2.1914-1.543-1.6211 0-2.7109 1.6211-2.7109 3.8906 0 1.8672 0.56641 3.9297 2.7109 3.9297 1.1367 0 2.1484-0.76953 2.4336-1.8203h-1.9062v-2.0664z"/><path d="m364.48 110.35h2.0781v11.547h-2.0781z"/><path d="m348.12 121.9v-7.0469l-3.4141 7.0469-3.3789-7.0469v7.0469h-2.0312v-11.547h2.0312l3.3789 6.8477 3.4141-6.8477h2.0352v11.547z"/><path d="m377.13 121.9-5.5312-7.9414v7.9414h-2.0352v-11.547h2.0352l5.3281 7.6211v-7.6211h1.9961v11.547z"/><path d="m358.75 112.42h-3.4844v2.875h3.4844c1.0156 0 1.7031-0.56641 1.7031-1.4141 0-0.89453-0.6875-1.4609-1.7031-1.4609m1.9844 4.5c-0.64453 0.36328-1.1719 0.44531-2.0625 0.44531h-3.4062v4.5352h-2.1094v-11.547h5.5156c0.89062 0 1.418 0.12109 2.0625 0.48828 1.0938 0.60547 1.7812 1.7422 1.7812 3.0391 0 1.2148-0.6875 2.4297-1.7812 3.0391"/><path d="m377.61 92.465-1.6211 3.8906h3.2383zm3.6445 8.6719-1.1328-2.7187h-5.0234l-1.1367 2.7187h-2.2695l4.8633-11.551h2.1055l4.8203 11.551z"/><path d="m318.68 101.14v-5.0273h-5.207v5.0273h-2.0742v-11.551h2.0742v4.457h5.207v-4.457h2.0781v11.551z"/><path d="m358.07 89.586h2.0781v11.551h-2.0781z"/><path d="m385.45 101.14v-11.551h2.0703v9.7656h6.5898v1.7852z"/><path d="m328.33 91.449c-1.75 0-2.8047 1.4609-2.8047 3.8906 0 2.4727 1.0547 3.9297 2.8047 3.9297 2.1914 0 2.7188-2.1445 2.7188-3.9297 0-2.4297-0.97656-3.8906-2.7188-3.8906m0 9.8867c-3.4141 0-4.9141-3.0781-4.9141-5.9961 0-3.6875 1.8672-5.9531 4.9141-5.9531 2.8398 0 4.7891 2.3867 4.7891 5.9141 0 3.6055-1.8672 6.0352-4.7891 6.0352"/><path d="m352.34 91.656h-3.4883v2.875h3.4883c1.0117 0 1.6992-0.56641 1.6992-1.418 0-0.89063-0.6875-1.457-1.6992-1.457m1.9844 4.4961c-0.64844 0.36328-1.1758 0.44531-2.0664 0.44531h-3.4062v4.5391h-2.1094v-11.551h5.5156c0.89063 0 1.418 0.12109 2.0664 0.48828 1.0898 0.60547 1.7812 1.7422 1.7812 3.0391 0 1.2148-0.69141 2.4297-1.7812 3.0391"/><path d="m339.39 95.953c-0.51562-0.14062-1.8086-0.45312-2.2422-0.70703-0.87109-0.51172-1.5352-1.3438-1.5352-2.5781 0-1.9062 1.6289-3.2031 3.9883-3.2031 1.7109 0 3.1328 0.56641 4.3125 1.7852l-1.5469 1.375c-0.73046-0.76953-1.668-1.1328-2.7656-1.1328-1.1797 0-1.8711 0.44531-1.8711 1.1758 0 0.64843 0.40625 0.92968 1.832 1.2539 1.5469 0.32422 2.5625 0.64844 3.2109 0.97266 1.0195 0.52734 1.6719 1.6211 1.6719 2.875 0 1.1758-0.53125 2.0703-1.6289 2.7187-0.8125 0.48437-1.8711 0.76953-2.9297 0.76953-1.9922 0-3.5-0.73047-4.8008-2.2305l1.668-1.2969c0.85547 1.0156 1.7891 1.4609 3.0898 1.4609 1.4688 0 2.5234-0.64843 2.5234-1.5 0-1.0859-1.1758-1.2422-2.9766-1.7383"/><path d="m367.45 91.613v9.5195h-2.0195v-9.5195h-3.3203v-2.0273h8.6602v2.0273z"/><path d="m369.65 71.289c-0.52344-0.28516-1.1328-0.44531-1.7383-0.44531h-1.75v7.4141h1.75c0.60546 0 1.1758-0.16406 1.6602-0.44531 1.2148-0.64844 1.7774-1.7031 1.7774-3.2812 0-1.543-0.5625-2.5938-1.6992-3.2422m0.97265 8.3438c-0.80859 0.44922-1.7773 0.69141-2.7109 0.69141h-3.8555v-11.547h3.8555c0.97265 0 1.9023 0.24219 2.7539 0.73047 1.7812 1.0117 2.75 2.7539 2.75 5.0234 0 2.3086-0.96875 4.0898-2.793 5.1016"/><path d="m385.09 74.57v1.5c0 2.5117-2.0273 4.457-4.5781 4.457-3.4024 0-4.7812-3-4.7812-5.9961 0-3.5274 1.9062-5.957 4.7812-5.957 2.0664 0 3.4844 1.0938 4.2969 2.875l-2.1094 0.73047c-0.44532-0.97266-1.1758-1.5391-2.1875-1.5391-1.6211 0-2.7148 1.6211-2.7148 3.8906 0 1.8633 0.56641 3.9297 2.7148 3.9297 1.1328 0 2.1484-0.76954 2.4297-1.8242h-1.9023v-2.0664z"/><path d="m414.2 74.57v1.5c0 2.5117-2.0234 4.457-4.5781 4.457-3.4023 0-4.7812-3-4.7812-5.9961 0-3.5274 1.9062-5.957 4.7812-5.957 2.0703 0 3.4844 1.0938 4.2969 2.875l-2.1055 0.73047c-0.44532-0.97266-1.1758-1.5391-2.1914-1.5391-1.6172 0-2.7109 1.6211-2.7109 3.8906 0 1.8633 0.5625 3.9297 2.7109 3.9297 1.1367 0 2.1484-0.76954 2.4336-1.8242h-1.9062v-2.0664z"/><path d="m387.74 68.777h2.0781v11.547h-2.0781z"/><path d="m341.42 80.324v-11.547h2.0703v9.7656h6.5898v1.7812z"/><path d="m400.39 80.324-5.5312-7.9414v7.9414h-2.0352v-11.547h2.0352l5.3281 7.6172v-7.6172h1.9961v11.547z"/><path d="m356.61 70.641c-1.7422 0-2.8008 1.457-2.8008 3.8906 0 2.4688 1.0586 3.9297 2.8008 3.9297 2.1953 0 2.7226-2.1484 2.7226-3.9297 0-2.4336-0.97656-3.8906-2.7226-3.8906m0 9.8867c-3.4102 0-4.9141-3.082-4.9141-5.9961 0-3.6875 1.8711-5.957 4.9141-5.957 2.8438 0 4.793 2.3906 4.793 5.9141 0 3.6055-1.8672 6.0391-4.793 6.0391"/><path d="m308.2 71.652-1.6211 3.8906h3.2383zm3.6445 8.6719-1.1367-2.7148h-5.0195l-1.1328 2.7148h-2.2695l4.8594-11.547h2.1094l4.8203 11.547z"/><path d="m300.67 74.57v1.5c0 2.5117-2.0273 4.457-4.5781 4.457-3.4024 0-4.7812-3-4.7812-5.9961 0-3.5274 1.9062-5.957 4.7812-5.957 2.0664 0 3.4844 1.0938 4.293 2.875l-2.1055 0.73047c-0.44532-0.97266-1.1758-1.5391-2.1875-1.5391-1.6211 0-2.7148 1.6211-2.7148 3.8906 0 1.8633 0.56641 3.9297 2.7148 3.9297 1.1328 0 2.1484-0.76954 2.4297-1.8242h-1.9023v-2.0664z"/><path d="m319.64 75.141c-0.51171-0.14062-1.8047-0.45312-2.2383-0.70703-0.87109-0.50781-1.5352-1.3438-1.5352-2.5781 0-1.9024 1.6289-3.1992 3.9883-3.1992 1.707 0 3.1328 0.5664 4.3125 1.7812l-1.5469 1.3789c-0.73047-0.76953-1.668-1.1367-2.7656-1.1367-1.1797 0-1.875 0.44531-1.875 1.1758 0 0.64843 0.41015 0.93359 1.832 1.2539 1.5469 0.32422 2.5664 0.65235 3.2148 0.97657 1.0195 0.52343 1.668 1.6172 1.668 2.875 0 1.1758-0.52734 2.0664-1.625 2.7148-0.8125 0.48828-1.8711 0.76953-2.9297 0.76953-1.9961 0-3.5-0.73047-4.8008-2.2266l1.6641-1.2969c0.85546 1.0117 1.793 1.457 3.0938 1.457 1.4648 0 2.5234-0.64843 2.5234-1.5 0-1.082-1.1797-1.2383-2.9805-1.7383"/><path d="m329.87 73.516h5.7734v2.0664h-5.7734z"/><path d="m333.98 50.5c-0.52735-0.28125-1.1328-0.44141-1.7383-0.44141h-1.7539v7.4141h1.7539c0.60547 0 1.1719-0.16406 1.6562-0.44921 1.2148-0.64844 1.7812-1.6992 1.7812-3.2812 0-1.5391-0.56641-2.5898-1.6992-3.2422m0.96875 8.3476c-0.8086 0.44922-1.7774 0.69141-2.707 0.69141h-3.8594v-11.547h3.8594c0.96875 0 1.8984 0.24218 2.75 0.72656 1.7773 1.0117 2.75 2.7578 2.75 5.0234 0 2.3125-0.97266 4.0938-2.793 5.1055"/><path d="m295.85 50.055v2.3516h3.6172v2.1055h-3.6172v5.0273h-2.1133v-11.547h8.6602v2.0625z"/><path d="m308.93 49.855c-1.75 0-2.8047 1.457-2.8047 3.8867 0 2.4726 1.0547 3.9297 2.8047 3.9297 2.1914 0 2.7188-2.1445 2.7188-3.9297 0-2.4297-0.97265-3.8867-2.7188-3.8867m0 9.8867c-3.4102 0-4.9141-3.082-4.9141-6 0-3.6875 1.8672-5.9531 4.9141-5.9531 2.8398 0 4.7891 2.3906 4.7891 5.9141 0 3.6055-1.8672 6.0391-4.7891 6.0391"/><path d="m320.94 49.855c-1.7422 0-2.8008 1.457-2.8008 3.8867 0 2.4726 1.0586 3.9297 2.8008 3.9297 2.1953 0 2.7227-2.1445 2.7227-3.9297 0-2.4297-0.97266-3.8867-2.7227-3.8867m0 9.8867c-3.4102 0-4.9102-3.082-4.9102-6 0-3.6875 1.8672-5.9531 4.9102-5.9531 2.8477 0 4.793 2.3906 4.793 5.9141 0 3.6055-1.8672 6.0391-4.793 6.0391"/><path d="m403.13 59.539v-11.547h8.457v2.0664h-6.3438v2.1484h3.457v2.1055h-3.457v3.1602h6.5469v2.0664z"/><path d="m373.67 59.539v-5.0234h-5.207v5.0234h-2.0742v-11.547h2.0742v4.4531h5.207v-4.4531h2.0781v11.547z"/><path d="m398.34 59.539-5.5352-7.9414v7.9414h-2.0352v-11.547h2.0352l5.3281 7.6172v-7.6172h1.9961v11.547z"/><path d="m383.32 49.855c-1.7461 0-2.8008 1.457-2.8008 3.8867 0 2.4726 1.0547 3.9297 2.8008 3.9297 2.1953 0 2.7227-2.1445 2.7227-3.9297 0-2.4297-0.97266-3.8867-2.7227-3.8867m0 9.8867c-3.4102 0-4.9102-3.082-4.9102-6 0-3.6875 1.8672-5.9531 4.9102-5.9531 2.8438 0 4.793 2.3906 4.793 5.9141 0 3.6055-1.8672 6.0391-4.793 6.0391"/><path d="m360.66 50.055h-3.4883v2.8789h3.4883c1.0117 0 1.7031-0.5664 1.7031-1.418 0-0.89062-0.6914-1.4609-1.7031-1.4609m1.9844 4.5c-0.64843 0.36328-1.1758 0.44531-2.0625 0.44531h-3.4102v4.5391h-2.1055v-11.547h5.5156c0.88672 0 1.4141 0.12109 2.0625 0.48437 1.0938 0.60547 1.7812 1.7422 1.7812 3.0391 0 1.2148-0.6875 2.4297-1.7812 3.0391"/><path d="m343.52 52.73h5.7734v2.0664h-5.7734z"/></g><g><g transform="translate(-67.59 -80.043)" fill="#211e1e"><use x="232.03999" y="167.3882" width="100%" height="100%" xlink:href="#e"/><use x="238.53799" y="167.3882" width="100%" height="100%" xlink:href="#d"/><use x="243.54201" y="167.3882" width="100%" height="100%" xlink:href="#b"/><use x="246.539" y="167.3882" width="100%" height="100%" xlink:href="#a"/><use x="251.543" y="167.3882" width="100%" height="100%" xlink:href="#c"/><use x="232.03999" y="97.611198" width="100%" height="100%" xlink:href="#h"/><use x="238.043" y="97.611198" width="100%" height="100%" xlink:href="#a"/><use x="243.047" y="97.611198" width="100%" height="100%" xlink:href="#b"/><use x="246.04401" y="97.611198" width="100%" height="100%" xlink:href="#g"/><use x="251.048" y="97.611198" width="100%" height="100%" xlink:href="#f"/><use x="409.0293" y="389.53809" width="100%" height="100%" xlink:href="#l"/><use x="417.1738" y="389.53809" width="100%" height="100%" xlink:href="#k"/><use x="502.34369" y="164.8047" width="100%" height="100%" xlink:href="#e"/><use x="508.84171" y="164.8047" width="100%" height="100%" xlink:href="#d"/><use x="513.8457" y="164.8047" width="100%" height="100%" xlink:href="#b"/><use x="516.84271" y="164.8047" width="100%" height="100%" xlink:href="#a"/><use x="521.84668" y="164.8047" width="100%" height="100%" xlink:href="#c"/><use x="526.85071" y="164.8047" width="100%" height="100%" xlink:href="#m"/><use x="502.34369" y="98.492699" width="100%" height="100%" xlink:href="#h"/><use x="508.34671" y="98.492699" width="100%" height="100%" xlink:href="#a"/><use x="513.35071" y="98.492699" width="100%" height="100%" xlink:href="#b"/><use x="516.34772" y="98.492699" width="100%" height="100%" xlink:href="#g"/><use x="521.35168" y="98.492699" width="100%" height="100%" xlink:href="#f"/></g><g><path d="m283 444.95c-5.8672 0-10.641-4.7734-10.641-10.645v-103.92c0-5.8711 4.7734-10.648 10.641-10.648h138.57c5.8672 0 10.645 4.7773 10.645 10.648v103.92c0 5.8711-4.7773 10.645-10.645 10.645z" fill="#fff"/><path d="m421.57 319.48h-138.57c-6.0078 0-10.895 4.8867-10.895 10.895v103.92c0 6.0078 4.8867 10.895 10.895 10.895h138.57c6.0078 0 10.895-4.8867 10.895-10.895v-103.92c0-6.0078-4.8867-10.895-10.895-10.895m0 0.5c5.7148 0 10.395 4.6758 10.395 10.395v103.92c0 5.7148-4.6797 10.395-10.395 10.395h-138.57c-5.7188 0-10.395-4.6797-10.395-10.395v-103.92c0-5.7188 4.6758-10.395 10.395-10.395h138.57" fill="#211e1e"/><path d="m283 442.38c-1.082 0-2.1367-0.21094-3.1328-0.63281-0.96094-0.41406-1.8281-0.9961-2.5703-1.7422-0.74609-0.74609-1.332-1.6094-1.7422-2.5742-0.42188-0.99219-0.63672-2.0469-0.63672-3.1328v-103.93c0-1.082 0.21484-2.1367 0.63672-3.1328 0.41015-0.96094 0.99609-1.8281 1.7422-2.5742 0.74219-0.74219 1.6094-1.332 2.5703-1.7344 0.99609-0.42578 2.0508-0.64062 3.1328-0.64062h138.57c1.082 0 2.1367 0.21484 3.1328 0.64062 0.96094 0.40235 1.8281 0.99219 2.5742 1.7344 0.7461 0.74609 1.3281 1.6133 1.7383 2.5742 0.42188 0.99609 0.63672 2.0508 0.63672 3.1328v103.93c0 1.0859-0.21484 2.1406-0.63672 3.1328-0.41015 0.96485-0.99218 1.8281-1.7383 2.5742-0.74609 0.74609-1.6133 1.3281-2.5742 1.7422-0.99609 0.42187-2.0508 0.63281-3.1328 0.63281z" fill="#14549c"/></g></g><g fill="#fff"><path d="m377.15 378.41-1.6172 3.8906h3.2383zm3.6445 8.668-1.1328-2.7109h-5.0234l-1.1328 2.7109h-2.2695l4.8594-11.547h2.1094l4.8164 11.547z"/><path d="m318.22 387.08v-5.0234h-5.2109v5.0234h-2.0703v-11.547h2.0703v4.457h5.2109v-4.457h2.0742v11.547z"/><path d="m357.61 375.53h2.0781v11.547h-2.0781z"/><path d="m384.98 387.08v-11.547h2.0742v9.7656h6.5859v1.7812z"/><path d="m327.86 377.39c-1.7461 0-2.8047 1.4609-2.8047 3.8945 0 2.4648 1.0586 3.9258 2.8047 3.9258 2.1953 0 2.7227-2.1445 2.7227-3.9258 0-2.4336-0.97656-3.8945-2.7227-3.8945m0 9.8906c-3.4102 0-4.9141-3.0781-4.9141-5.9961 0-3.6914 1.8672-5.957 4.9141-5.957 2.8438 0 4.793 2.3867 4.793 5.9141 0 3.6055-1.8711 6.0391-4.793 6.0391"/><path d="m351.88 377.6h-3.4883v2.8789h3.4883c1.0156 0 1.6992-0.57031 1.6992-1.418 0-0.89062-0.6836-1.4609-1.6992-1.4609m1.9844 4.5c-0.64843 0.36329-1.1719 0.44532-2.0625 0.44532h-3.4102v4.5352h-2.1016v-11.547h5.5117c0.89063 0 1.4141 0.12109 2.0625 0.48437 1.0938 0.61328 1.7852 1.7461 1.7852 3.043 0 1.2148-0.69141 2.4297-1.7852 3.0391"/><path d="m338.92 381.9c-0.51172-0.14063-1.8047-0.44922-2.2422-0.70704-0.86719-0.51171-1.5312-1.3438-1.5312-2.582 0-1.9023 1.6289-3.1992 3.9844-3.1992 1.7148 0 3.1367 0.57032 4.3125 1.7852l-1.543 1.375c-0.73438-0.76953-1.668-1.1328-2.7695-1.1328-1.1758 0-1.8711 0.44531-1.8711 1.1719 0 0.65235 0.40625 0.9336 1.832 1.2578 1.5469 0.32421 2.5625 0.64843 3.2148 0.97265 1.0156 0.52735 1.668 1.6211 1.668 2.875 0 1.1797-0.53125 2.0664-1.625 2.7188-0.81641 0.48438-1.8711 0.76953-2.9336 0.76953-1.9922 0-3.5-0.73047-4.8008-2.2305l1.668-1.2969c0.85547 1.0156 1.793 1.4609 3.0938 1.4609 1.4688 0 2.5234-0.64844 2.5234-1.5 0-1.082-1.1797-1.2383-2.9805-1.7383"/><path d="m366.99 377.56v9.5195h-2.0234v-9.5195h-3.3203v-2.0273h8.6641v2.0273z"/><path d="m369.19 357.21c-0.52734-0.28516-1.1328-0.44531-1.7383-0.44531h-1.75v7.4141h1.75c0.60547 0 1.1719-0.16406 1.6602-0.44531 1.2109-0.65235 1.7774-1.7031 1.7774-3.2812 0-1.5391-0.56641-2.5938-1.6992-3.2422m0.97266 8.3438c-0.8125 0.44922-1.7812 0.69141-2.7109 0.69141h-3.8594v-11.547h3.8594c0.96875 0 1.8984 0.24219 2.7539 0.72656 1.7734 1.0117 2.7461 2.7578 2.7461 5.0274 0 2.3086-0.97266 4.0898-2.7891 5.1016"/><path d="m384.62 360.49v1.5c0 2.5117-2.0273 4.457-4.5781 4.457-3.4062 0-4.7812-3-4.7812-5.9961 0-3.5274 1.9023-5.957 4.7812-5.957 2.0625 0 3.4805 1.0938 4.293 2.875l-2.1094 0.73046c-0.44531-0.97265-1.1719-1.5391-2.1836-1.5391-1.6211 0-2.7188 1.6211-2.7188 3.8906 0 1.8633 0.57031 3.9297 2.7188 3.9297 1.1328 0 2.1445-0.77343 2.4297-1.8242h-1.9062v-2.0664z"/><path d="m413.73 360.49v1.5c0 2.5117-2.0234 4.457-4.5781 4.457-3.4023 0-4.7812-3-4.7812-5.9961 0-3.5274 1.9062-5.957 4.7812-5.957 2.0664 0 3.4844 1.0938 4.2969 2.875l-2.1094 0.73046c-0.44531-0.97265-1.1758-1.5391-2.1875-1.5391-1.6211 0-2.7148 1.6211-2.7148 3.8906 0 1.8633 0.56641 3.9297 2.7148 3.9297 1.1328 0 2.1484-0.77343 2.4336-1.8242h-1.9062v-2.0664z"/><path d="m387.28 354.7h2.0781v11.547h-2.0781z"/><path d="m340.96 366.24v-11.547h2.0742v9.7617h6.5859v1.7852z"/><path d="m399.93 366.24-5.5352-7.9414v7.9414h-2.0352v-11.547h2.0352l5.332 7.6172v-7.6172h1.9961v11.547z"/><path d="m356.15 356.56c-1.7461 0-2.8047 1.457-2.8047 3.8906 0 2.4726 1.0586 3.9297 2.8047 3.9297 2.1914 0 2.7188-2.1484 2.7188-3.9297 0-2.4336-0.97266-3.8906-2.7188-3.8906m0 9.8867c-3.4102 0-4.9141-3.082-4.9141-5.9961 0-3.6875 1.8672-5.957 4.9141-5.957 2.8438 0 4.793 2.3906 4.793 5.9141 0 3.6055-1.8672 6.0391-4.793 6.0391"/><path d="m307.73 357.57-1.6172 3.8906h3.2383zm3.6445 8.6719-1.1328-2.7148h-5.0234l-1.1328 2.7148h-2.2695l4.8594-11.547h2.1094l4.8203 11.547z"/><path d="m300.2 360.49v1.5c0 2.5117-2.0234 4.457-4.5742 4.457-3.4062 0-4.7812-3-4.7812-5.9961 0-3.5274 1.9023-5.957 4.7812-5.957 2.0625 0 3.4844 1.0938 4.293 2.875l-2.1094 0.73046c-0.44531-0.97265-1.1719-1.5391-2.1836-1.5391-1.6211 0-2.7188 1.6211-2.7188 3.8906 0 1.8633 0.56641 3.9297 2.7188 3.9297 1.1328 0 2.1445-0.77343 2.4297-1.8242h-1.9062v-2.0664z"/><path d="m319.18 361.06c-0.51563-0.14062-1.8086-0.44922-2.2422-0.70703-0.87109-0.50781-1.5312-1.3438-1.5312-2.5781 0-1.9024 1.625-3.2031 3.9844-3.2031 1.7109 0 3.1328 0.57031 4.3125 1.7852l-1.543 1.3789c-0.73438-0.77343-1.668-1.1367-2.7695-1.1367-1.1797 0-1.8711 0.44922-1.8711 1.1758 0 0.64843 0.40625 0.92968 1.832 1.2578 1.5469 0.32031 2.5625 0.64453 3.2148 0.97265 1.0156 0.52735 1.668 1.6172 1.668 2.875 0 1.1758-0.53125 2.0625-1.6289 2.7148-0.8125 0.48437-1.8711 0.76953-2.9297 0.76953-1.9922 0-3.5-0.73047-4.8008-2.2266l1.6641-1.2969c0.85938 1.0117 1.793 1.457 3.0938 1.457 1.4688 0 2.5274-0.64843 2.5274-1.5 0-1.0859-1.1797-1.2422-2.9805-1.7383"/><path d="m329.41 359.44h5.7734v2.0625h-5.7734z"/><path d="m333.51 336.42c-0.52344-0.28125-1.1328-0.44531-1.7383-0.44531h-1.7539v7.4141h1.7539c0.60547 0 1.1719-0.16406 1.6602-0.44531 1.2148-0.64844 1.7773-1.7031 1.7773-3.2852 0-1.5391-0.5625-2.5898-1.6992-3.2383m0.97266 8.3438c-0.8086 0.44532-1.7812 0.69141-2.7109 0.69141h-3.8555v-11.551h3.8555c0.96875 0 1.9023 0.24609 2.75 0.73437 1.7812 1.0078 2.7539 2.7578 2.7539 5.0195 0 2.3086-0.97266 4.0938-2.793 5.1055"/><path d="m295.38 335.98v2.3516h3.6172v2.1055h-3.6172v5.0234h-2.1133v-11.547h8.6562v2.0664z"/><path d="m308.45 335.77c-1.7422 0-2.8008 1.457-2.8008 3.8906 0 2.4688 1.0586 3.9258 2.8008 3.9258 2.1914 0 2.7226-2.1445 2.7226-3.9258 0-2.4336-0.97656-3.8906-2.7226-3.8906m0 9.8867c-3.4102 0-4.9141-3.0781-4.9141-5.9961 0-3.6914 1.8672-5.957 4.9141-5.957 2.8476 0 4.793 2.3906 4.793 5.918 0 3.6016-1.8672 6.0352-4.793 6.0352"/><path d="m320.47 335.77c-1.7461 0-2.8047 1.457-2.8047 3.8906 0 2.4688 1.0586 3.9258 2.8047 3.9258 2.1914 0 2.7227-2.1445 2.7227-3.9258 0-2.4336-0.97656-3.8906-2.7227-3.8906m0 9.8867c-3.4102 0-4.9141-3.0781-4.9141-5.9961 0-3.6914 1.8672-5.957 4.9141-5.957 2.8438 0 4.7891 2.3906 4.7891 5.918 0 3.6016-1.8633 6.0352-4.7891 6.0352"/><path d="m402.66 345.46v-11.551h8.457v2.0703h-6.3438v2.1445h3.457v2.1055h-3.457v3.1641h6.5469v2.0664z"/><path d="m373.2 345.46v-5.0234h-5.207v5.0234h-2.0742v-11.551h2.0742v4.457h5.207v-4.457h2.0742v11.551z"/><path d="m397.86 345.46-5.5352-7.9414v7.9414h-2.0312v-11.551h2.0312l5.332 7.6172v-7.6172h1.9922v11.551z"/><path d="m382.84 335.77c-1.7422 0-2.8008 1.457-2.8008 3.8906 0 2.4688 1.0586 3.9258 2.8008 3.9258 2.1953 0 2.7266-2.1445 2.7266-3.9258 0-2.4336-0.97657-3.8906-2.7266-3.8906m0 9.8867c-3.4062 0-4.9102-3.0781-4.9102-5.9961 0-3.6914 1.8672-5.957 4.9102-5.957 2.8477 0 4.7969 2.3906 4.7969 5.918 0 3.6016-1.8672 6.0352-4.7969 6.0352"/><path d="m360.19 335.98h-3.4883v2.8789h3.4883c1.0117 0 1.6992-0.57032 1.6992-1.4219 0-0.89062-0.6875-1.457-1.6992-1.457m1.9805 4.5c-0.64453 0.36328-1.1719 0.44141-2.0625 0.44141h-3.4062v4.5391h-2.1055v-11.547h5.5117c0.89062 0 1.418 0.1211 2.0625 0.48438 1.0938 0.60937 1.7852 1.7422 1.7852 3.0391 0 1.2188-0.6914 2.4336-1.7852 3.043"/><path d="m343.05 338.65h5.7734v2.0664h-5.7734z"/><path d="m331 399.19-1.6172 3.8906h3.2383zm3.6484 8.6719-1.1367-2.7148h-5.0234l-1.1328 2.7148h-2.2695l4.8594-11.547h2.1094l4.8203 11.547z"/><path d="m319.01 408.06c-3.0352 0-4.8984-2.3906-4.8984-5.9961 0-3.6484 1.8633-5.957 4.8984-5.957 1.8672 0 3.5664 0.92969 4.457 2.5508l-1.8203 0.97657c-0.32421-0.48828-0.48828-0.65235-0.8125-0.85157-0.44531-0.36718-1.2148-0.60937-1.8242-0.60937-2.1055 0-2.793 2.0664-2.793 3.8477 0 2.5117 1.0508 3.9688 2.793 3.9688 1.0547 0 1.6211-0.35938 2.6367-1.457l1.8203 0.97266c-0.85157 1.6211-2.5898 2.5547-4.457 2.5547"/><path d="m390.47 402.11v1.5c0 2.5117-2.0234 4.457-4.5781 4.457-3.4023 0-4.7812-3-4.7812-5.9961 0-3.5273 1.9062-5.957 4.7812-5.957 2.0664 0 3.4844 1.0938 4.2969 2.875l-2.1094 0.73047c-0.44531-0.97265-1.1719-1.5391-2.1875-1.5391-1.6211 0-2.7109 1.6211-2.7109 3.8906 0 1.8633 0.5625 3.9258 2.7109 3.9258 1.1367 0 2.1484-0.76563 2.4336-1.8203h-1.9062v-2.0664z"/><path d="m364.02 396.31h2.0781v11.547h-2.0781z"/><path d="m347.66 407.86v-7.0508l-3.418 7.0508-3.375-7.0508v7.0508h-2.0312v-11.547h2.0312l3.375 6.8438 3.418-6.8438h2.0312v11.547z"/><path d="m376.67 407.86-5.5352-7.9414v7.9414h-2.0352v-11.547h2.0352l5.332 7.6172v-7.6172h1.9922v11.547z"/><path d="m358.29 398.38h-3.4883v2.875h3.4883c1.0117 0 1.6992-0.5664 1.6992-1.418 0-0.89063-0.6875-1.457-1.6992-1.457m1.9844 4.4961c-0.64844 0.36719-1.1719 0.44531-2.0664 0.44531h-3.4062v4.5391h-2.1055v-11.547h5.5117c0.89454 0 1.418 0.12109 2.0664 0.48437 1.0898 0.60938 1.7812 1.7422 1.7812 3.0391 0 1.2148-0.69141 2.4336-1.7812 3.0391"/><path d="m315.49 431.04c-3.0391 0-4.9062-2.3867-4.9062-5.9922 0-3.6484 1.8672-5.957 4.9062-5.957 1.8594 0 3.5625 0.92969 4.4531 2.5508l-1.8203 0.97266c-0.32422-0.48438-0.48828-0.64844-0.8125-0.85156-0.44531-0.36328-1.2148-0.60547-1.8203-0.60547-2.1094 0-2.8008 2.0664-2.8008 3.8476 0 2.5156 1.0586 3.9727 2.8008 3.9727 1.0508 0 1.6172-0.36719 2.6328-1.457l1.8203 0.96875c-0.85157 1.6211-2.5938 2.5508-4.4531 2.5508"/><path d="m352.57 421.8c-0.52344-0.28516-1.1328-0.44532-1.7383-0.44532h-1.7539v7.4141h1.7539c0.60547 0 1.1719-0.16407 1.6602-0.44532 1.2109-0.64843 1.7773-1.7031 1.7773-3.2812 0-1.543-0.56641-2.5938-1.6992-3.2422m0.97266 8.3438c-0.8125 0.44921-1.7852 0.6914-2.7109 0.6914h-3.8594v-11.547h3.8594c0.96875 0 1.8984 0.24218 2.75 0.72656 1.7812 1.0156 2.7539 2.7539 2.7539 5.0273 0 2.3086-0.97266 4.0898-2.793 5.1016"/><path d="m299.96 430.84v-11.547h8.457v2.0664h-6.3398v2.1445h3.4531v2.1094h-3.4531v3.1602h6.543v2.0664z"/><path d="m393.64 425.09v1.5c0 2.5117-2.0234 4.4531-4.5742 4.4531-3.4062 0-4.7812-2.9961-4.7812-5.9922 0-3.5273 1.9023-5.957 4.7812-5.957 2.0664 0 3.4844 1.0938 4.293 2.875l-2.1094 0.73047c-0.44531-0.97266-1.1719-1.5391-2.1836-1.5391-1.6211 0-2.7188 1.6172-2.7188 3.8906 0 1.8633 0.57031 3.9297 2.7188 3.9297 1.1328 0 2.1445-0.76953 2.4297-1.8242h-1.9062v-2.0664z"/><path d="m403.59 430.84v-5.0234h-5.207v5.0234h-2.0742v-11.547h2.0742v4.457h5.207v-4.457h2.0742v11.547z"/><path d="m379.55 419.29h2.0781v11.547h-2.0781z"/><path d="m342.18 430.84-5.5312-7.9414v7.9414h-2.0352v-11.547h2.0352l5.3281 7.6172v-7.6172h1.9961v11.547z"/><path d="m327.17 421.16c-1.7461 0-2.8008 1.457-2.8008 3.8906 0 2.4727 1.0547 3.9297 2.8008 3.9297 2.1914 0 2.7227-2.1484 2.7227-3.9297 0-2.4336-0.97656-3.8906-2.7227-3.8906m0 9.8828c-3.4102 0-4.9102-3.0781-4.9102-5.9922 0-3.6875 1.8633-5.957 4.9102-5.957 2.8438 0 4.793 2.3906 4.793 5.9141 0 3.6055-1.8672 6.0352-4.793 6.0352"/><path d="m373.27 421.36h-3.3242v2.875h3.3242c1.0156 0 1.6602-0.5664 1.6602-1.418 0-0.89062-0.64453-1.457-1.6602-1.457m1.6602 9.4805-1.8594-4.5391h-3.125v4.5391h-2.0664v-11.547h5.3516c0.85156 0 1.3789 0.11718 1.9844 0.48437 1.0938 0.60938 1.7852 1.7422 1.7852 3.0391 0 1.293-0.69141 2.4297-1.8672 3.0781l2.1055 4.9453z"/><path d="m292.6 425.66c-0.51172-0.14063-1.8047-0.45313-2.2383-0.70703-0.8711-0.50782-1.5352-1.3438-1.5352-2.5781 0-1.9062 1.6289-3.1992 3.9883-3.1992 1.707 0 3.1328 0.5625 4.3125 1.7812l-1.5469 1.375c-0.73047-0.76953-1.668-1.1328-2.7656-1.1328-1.1836 0-1.875 0.44531-1.875 1.1758 0 0.64844 0.40625 0.92969 1.832 1.2539 1.5508 0.32812 2.5625 0.64844 3.2148 0.97656 1.0195 0.52344 1.6719 1.6172 1.6719 2.875 0 1.1758-0.53125 2.0664-1.6289 2.7148-0.81641 0.48438-1.8711 0.76954-2.9336 0.76954-1.9922 0-3.4961-0.73047-4.8008-2.2305l1.668-1.2969c0.85547 1.0156 1.793 1.4609 3.0938 1.4609 1.4648 0 2.5234-0.64844 2.5234-1.5 0-1.0859-1.1758-1.2422-2.9805-1.7383"/><path d="m412.96 421.32v9.5234h-2.0195v-9.5234h-3.3203v-2.0234h8.6602v2.0234z"/></g><g><g transform="translate(-67.59 -80.043)" fill="#211e1e"><use x="505.34369" y="465.2334" width="100%" height="100%" xlink:href="#e"/><use x="511.84171" y="465.2334" width="100%" height="100%" xlink:href="#d"/><use x="516.8457" y="465.2334" width="100%" height="100%" xlink:href="#b"/><use x="519.84271" y="465.2334" width="100%" height="100%" xlink:href="#a"/><use x="524.84668" y="465.2334" width="100%" height="100%" xlink:href="#c"/><use x="529.85071" y="465.2334" width="100%" height="100%" xlink:href="#j"/><use x="237.03571" y="311.4234" width="100%" height="100%" xlink:href="#e"/><use x="243.53371" y="311.4234" width="100%" height="100%" xlink:href="#d"/><use x="248.5377" y="311.4234" width="100%" height="100%" xlink:href="#b"/><use x="251.5347" y="311.4234" width="100%" height="100%" xlink:href="#a"/><use x="256.5387" y="311.4234" width="100%" height="100%" xlink:href="#c"/><use x="261.54269" y="311.4234" width="100%" height="100%" xlink:href="#i"/></g><path d="m164.87 288.05c0 2.4805-2.0117 4.4922-4.4922 4.4922h-155.63c-2.4844 0-4.4961-2.0117-4.4961-4.4922v-119.05c0-2.4805 2.0117-4.4922 4.4961-4.4922h155.63c2.4805 0 4.4922 2.0117 4.4922 4.4922z" fill="#fff" stroke="#211e1e" stroke-width=".5"/><path d="m4.7422 290.3c-1.2383 0-2.2461-1.0078-2.2461-2.2461v-119.05c0-1.2383 1.0078-2.2461 2.2461-2.2461h155.63c1.2422 0 2.2461 1.0078 2.2461 2.2461v119.05c0 1.2383-1.0039 2.2461-2.2461 2.2461z" fill="#14549c"/><g fill-rule="evenodd"><path d="m17.582 207.66h7.8008v-32.672h0.0078c0-0.73047 0.60938-1.3203 1.3398-1.3203l0.0039-8e-3 11.738-8e-3c0.72656 0 1.3281 0.61328 1.3359 1.3359v2.2656l3.1758 2.6016c0.58594 0.44532 0.97266 1.1484 1.0117 1.8828-4e-3 4.5781 0 8.6953 0 12.309 0 4.1289 2.4492 7.25 2.4492 10.383 0 1.5742-1.293 2.8594-2.8594 2.8594-1.3203 0-2.5547-1.0391-2.9062-2.332-0.55859-2.0391-0.25781-12.766-0.28125-15.133h-0.59765v17.836h7.1367v2.5742h-29.355z" fill="#fff"/><path d="m41.906 188.93c0-0.59766-0.48828-1.0859-1.0742-1.0859l-1.0586-0.043v-8.5352l0.61719 0.47656v3.4062l2.0898-4e-3c0.0312 3.8711 0.0625 7.7383 0.0898 11.609 8e-3 3.8555 2.2188 7.2617 2.2852 9.4805 0.0234 0.73437-0.60156 1.3359-1.3398 1.3359-0.375 0-0.88281-0.1914-1.1992-0.71875-0.89844-1.4922-0.39453-13.988-0.41016-15.922" fill="#14549c"/><path d="m28.191 175.51h8.7695c0.47266 0 0.85938 0.38672 0.85938 0.85547v6.6992c0 0.47265-0.38672 0.85547-0.85938 0.85547h-8.7695c-0.47266 0-0.85938-0.38282-0.85938-0.85547v-6.6992c0-0.46875 0.38672-0.85547 0.85938-0.85547" fill="#14549c"/></g></g><g fill="#fff"><g><path d="m43.223 280.36v-12.195h8.9297v2.1797h-6.6953v2.2695h3.6484v2.2227h-3.6484v3.3398h6.9102v2.1836z"/><path d="m67.129 268.16h2.1953v12.195h-2.1953z"/><path d="m77.039 270.3v10.055h-2.1367v-10.055h-3.5039v-2.1406h9.1445v2.1406z"/><path d="m62.113 280.36-2.75-4.3242-2.7109 4.3242h-2.5781l3.9961-6.4219-3.6524-5.7734h2.6211l2.3242 3.7227 2.3164-3.7227h2.625l-3.6133 5.7734 4 6.4219z"/><path d="m97.23 283.72c-2.2578 0-4.5117-0.76953-6.125-2.2461-0.44922-0.38672-0.77344-0.70703-1.418-1.4766l2.6445-1.9883c1.2891 1.668 2.9648 2.375 5.0898 2.375 2.2578 0 3.8047-1.0274 3.8047-2.5664 0-0.90234-0.58204-1.9258-1.418-2.375-0.51563-0.25781-1.0977-0.38672-1.8047-0.38672h-0.90234v-3.2734h0.77343c1.418 0 2.4492-0.76953 2.4492-1.7969 0-1.0898-1.2891-1.9258-3.2226-1.9258-1.5469 0-2.9648 0.64062-4.0625 1.7969l-2.4492-2.2461c1.8047-1.8594 4.0625-2.8242 6.7031-2.8242 3.6758 0 6.3828 2.1836 6.3828 5.1367 0 1.2188-0.38671 2.0508-1.4844 3.4648 1.8047 1.6055 2.3203 2.5664 2.3203 4.3008 0 3.3984-3.1562 6.0312-7.2812 6.0312"/><path d="m114.48 268.06c-2.2539 0-3.543 0.64453-3.543 1.668 0 1.0938 1.2891 1.7344 3.543 1.7344 2.2578 0 3.5469-0.64062 3.5469-1.7344 0-1.0234-1.2891-1.668-3.5469-1.668m0 6.6758c-2.6406 0-4.125 1.0273-4.125 2.8242 0 0.89844 0.51562 1.7969 1.3555 2.3086 0.51562 0.32031 1.6758 0.51563 2.7695 0.51563 1.5469 0 2.5156-0.19532 3.1602-0.76953 0.64454-0.57813 0.96485-1.2852 0.96485-2.0547 0-1.7969-1.4805-2.8242-4.125-2.8242m0 8.9844c-4.5117 0-7.4102-2.4375-7.4102-6.1602 0-1.7344 0.70703-3.2109 2.0625-4.4297-1.1602-1.3477-1.4844-2.1172-1.4844-3.3359 0-3.0156 2.7734-5.0078 6.832-5.0078 4.125 0 6.832 1.9922 6.832 5.0078 0 1.2188-0.32031 1.9883-1.418 3.3359 1.3555 1.2188 2 2.6953 2 4.4297 0 4.3633-3.6094 6.1602-7.4141 6.1602"/></g><path d="m118.58 189.5c0-1.2773 1.043-2.3203 2.3203-2.3203 1.2773 0 2.3203 1.043 2.3203 2.3203 0 1.2774-1.043 2.3203-2.3203 2.3203-1.2774 0-2.3203-1.043-2.3203-2.3203" fill-rule="evenodd"/><path d="m118.58 189.5h-8e-3c0-1.2812 1.043-2.3281 2.3281-2.3281 1.2852 0 2.332 1.0469 2.332 2.3281s-1.0469 2.3281-2.332 2.3281c-1.2852 0-2.3281-1.0469-2.3281-2.3281h0.0156c0 0.63672 0.26172 1.2148 0.67968 1.6328 0.41797 0.41797 0.9961 0.67968 1.6328 0.67968s1.2148-0.26171 1.6328-0.67968 0.67969-0.9961 0.67969-1.6328c0-0.63671-0.26172-1.2148-0.67969-1.6328s-0.99609-0.67969-1.6328-0.67969-1.2148 0.26172-1.6328 0.67969c-0.41796 0.41797-0.67968 0.9961-0.67968 1.6328z"/><g fill-rule="evenodd"><path d="m117.48 200.09h-2.9102v-16.523h2.9102v9.2852h30.758v-5.3516h2.9141v12.59h-2.9141v-3.2266h-30.758z"/><path d="m124.48 191.82c0.1836-2.3359 1.1016-4.1172 4.6445-3.9336 4.3789-0.0273 8.7578-0.0508 13.137-0.0781 3.5469 0.0195 4.332 1.8867 4.7188 4.0117z"/><path d="m34.879 219.38c-0.66797 0.0352-1.3203 0.10938-1.9648 0.28125-0.7461 0.19531-1.4453 0.48828-2.0977 0.89453-0.53906 0.33594-1.0195 0.72656-1.4766 1.1641l-1.7266 6.9609c-0.65234 2.6289-1.0586 5.3164-1.1719 8.0274-0.04297 1.0547-0.03516 2.1133 0.01172 3.1758 0.05859 1.3828 0.16797 2.7656 0.34375 4.1445 0.05469 0.4414 0.14062 0.88281 0.25781 1.3164l2.3359 8.6875c0.53906 0.35157 1.0898 0.67188 1.6758 0.94141 0.67969 0.31641 1.3906 0.55859 2.1211 0.72656 0.60938 0.14063 1.2227 0.22266 1.8438 0.26172l-2.2344-9.7578c-0.39844-0.0859-0.77734-0.23828-1.0977-0.5-0.26172-0.21094-0.73047-0.69141-0.73047-1.0703v-13.008c0-0.69921 0.42188-1.293 0.96875-1.6992 0.33203-0.2461 0.70704-0.39844 1.1133-0.48438z"/><path d="m37.555 255.46c0.1875-0.0586 0.32422-0.19922 0.42969-0.36719 0.082-0.12891 0.125-0.26563 0.12109-0.41797 0-0.125-0.0195-0.25391-0.0469-0.37891l-1.9766-8.207c-0.0586-0.24609-0.0625-0.35937-0.30469-0.50781-0.14453-0.0937-0.33594-0.15234-0.50391-0.10156l-1.5703 0.45703 2.2305 9.8789z"/><path d="m34.008 229.45 1.4219 0.30468c0.0859 8e-3 0.16797 0.0195 0.25 0.0234 0.1211 0.0156 0.25 0 0.35156-0.0703 0.1875-0.125 0.26954-0.29688 0.3125-0.50781l1.7266-8.3281c0.0273-0.1289 0.0352-0.25781-0.0156-0.3789-0.0469-0.1211-0.11328-0.24219-0.19531-0.33985-0.125-0.14844-0.30859-0.26562-0.5-0.29687l-1.5234-0.25391z"/></g><path d="m90.168 255.96v-15.988h-15.215v15.988h-7.2188v-36.582h7.2188v13.305h15.215v-13.305h7.2188v36.582z"/><path d="m114.57 248.1h3.8359m14.496 2.3242h-18.332v-2.3242h3.8359l14.496-23.172 14.492 23.172h3.7578v2.3242zm0-12.059-6.0312 9.7344h12.059zm18.25 9.7344h-3.7578" fill-rule="evenodd"/><path d="m82.559 173.66c10.078 0 18.293 8.2148 18.293 18.293 0 10.074-8.2148 18.289-18.293 18.289-10.074 0-18.289-8.2148-18.289-18.289 0-10.078 8.2148-18.293 18.289-18.293" fill-rule="evenodd"/></g><g><path d="m80.172 207.45c0 0.87109-0.32031 1.0742-0.91797 1.0781-0.59375 4e-3 -1.0195-0.20703-1.0234-1.0781-8e-3 -6.8008 0-13.605 0-20.41-1.5781-1.2305-2.1133-2.9648-1.7734-5.1172 0.33985-1.9766 0.67969-3.9492 1.0195-5.9258 0.0781-8e-3 0.15625-0.0156 0.23828-0.0234l0.0234 7.2578h0.40625c0.15235-2.418 0.30079-4.8359 0.45313-7.2578h0.23047c0.0469 2.4297 0.0977 4.8594 0.14844 7.2852 0.14453-8e-3 0.28906-0.0156 0.42968-0.0273 0.11719-2.418 0.23828-4.8359 0.35547-7.2578h0.22656c0.0937 2.4141 0.1875 4.8242 0.27735 7.2344h0.53125c-8e-3 -2.4102-0.0156-4.8203-0.0234-7.2344h0.25c0.33203 1.9844 0.66016 3.9648 0.98828 5.9453 0.15625 2.3711-0.30469 4.2188-1.8711 5.1328 0.0117 6.8008 0.0156 13.602 0.0312 20.398" fill="#14549c" fill-rule="evenodd"/><path d="m87.25 175.97v31.496c-0.14062 0.64063-0.41015 0.83594-1.0156 0.85547-0.60547 0.0234-1.0078-0.17187-1.0352-0.85156v-15.723c0.0586-0.99609-4e-3 -1.9883-0.90234-2.9062-0.42969-0.28906-0.66406-0.85547-0.69922-1.6992 0.0234-3.0976 0.0508-6.1953 0.0742-9.2969-0.0156-2.1094 2.1211-2.0078 3.5781-1.875" fill="#14549c" fill-rule="evenodd"/><g transform="translate(-67.59 -80.043)" fill="#211e1e"><use x="232.03999" y="468.31351" width="100%" height="100%" xlink:href="#e"/><use x="238.53799" y="468.31351" width="100%" height="100%" xlink:href="#d"/><use x="243.54201" y="468.31351" width="100%" height="100%" xlink:href="#b"/><use x="246.539" y="468.31351" width="100%" height="100%" xlink:href="#a"/><use x="251.543" y="468.31351" width="100%" height="100%" xlink:href="#c"/><use x="256.547" y="468.31351" width="100%" height="100%" xlink:href="#i"/></g><path d="m158.77 440.54c0 2.2969-1.8633 4.1602-4.1602 4.1602h-144.11c-2.2969 0-4.1602-1.8633-4.1602-4.1602v-110.23c0-2.2969 1.8633-4.1602 4.1602-4.1602h144.11c2.2969 0 4.1602 1.8633 4.1602 4.1602z" fill="#fff" stroke="#211e1e" stroke-width=".5"/><path d="m10.508 442.61c-1.1445 0-2.0781-0.93359-2.0781-2.0781v-110.23c0-1.1445 0.93359-2.0781 2.0781-2.0781h144.11c1.1445 0 2.0781 0.9336 2.0781 2.0781v110.23c0 1.1445-0.93359 2.0781-2.0781 2.0781z" fill="#14549c"/><g fill-rule="evenodd"><path d="m22.395 366.1h7.2227v-30.25h0.0078c0-0.67968 0.5625-1.2226 1.2383-1.2226l0.0078-8e-3 10.867-8e-3c0.67578 0 1.2305 0.56641 1.2383 1.2383v2.0977l2.9375 2.4102c0.54687 0.41015 0.90234 1.0625 0.9375 1.7422-4e-3 4.2383 0 8.0508 0 11.398 0 3.8203 2.2695 6.707 2.2695 9.6133 0 1.457-1.1992 2.6445-2.6484 2.6445-1.2227 0-2.3633-0.96093-2.6914-2.1602-0.51953-1.8867-0.23828-11.816-0.26171-14.012h-0.55079v16.516h6.6094v2.3867h-27.184z" fill="#fff"/><path d="m44.918 348.75c0-0.55469-0.45312-1.0078-0.99609-1.0078l-0.98047-0.0391v-7.9023l0.57422 0.44141v3.1523l1.9336-4e-3c0.0273 3.5859 0.0547 7.168 0.0859 10.754 4e-3 3.5664 2.0508 6.7188 2.1133 8.7734 0.0195 0.68359-0.55859 1.2383-1.2422 1.2383-0.34765 0-0.8164-0.17578-1.1094-0.66406-0.83203-1.3828-0.36328-12.953-0.37891-14.742" fill="#14549c"/><path d="m32.219 336.32h8.1211c0.4375 0 0.79297 0.35547 0.79297 0.79297v6.2031c0 0.4375-0.35547 0.79297-0.79297 0.79297h-8.1211c-0.4375 0-0.79297-0.35547-0.79297-0.79297v-6.2031c0-0.4375 0.35547-0.79297 0.79297-0.79297" fill="#14549c"/></g></g><g fill="#fff"><path d="m115.91 349.29c0-1.1836 0.96484-2.1484 2.1484-2.1484 1.1836 0 2.1484 0.96484 2.1484 2.1484 0 1.1836-0.96484 2.1484-2.1484 2.1484-1.1836 0-2.1484-0.96484-2.1484-2.1484" fill-rule="evenodd"/><path d="m115.91 349.29h-8e-3c0-1.1875 0.96875-2.1562 2.1562-2.1562s2.1562 0.96875 2.1562 2.1562-0.96875 2.1562-2.1562 2.1562-2.1562-0.96875-2.1562-2.1562h0.0156c0 0.58985 0.24219 1.1211 0.6289 1.5117 0.38672 0.38672 0.92188 0.62891 1.5117 0.62891 0.58985 0 1.125-0.24219 1.5117-0.62891 0.38672-0.39062 0.62891-0.92187 0.62891-1.5117 0-0.58984-0.24219-1.125-0.62891-1.5156-0.38672-0.38672-0.92187-0.625-1.5117-0.625-0.58984 0-1.125 0.23828-1.5117 0.625-0.38671 0.39062-0.6289 0.92578-0.6289 1.5156z"/><g fill-rule="evenodd"><path d="m114.89 359.08h-2.6953v-15.297h2.6953v8.5938h28.48v-4.9531h2.6953v11.656h-2.6953v-2.9883h-28.48z"/><path d="m121.38 351.43c0.16797-2.1641 1.0195-3.8125 4.3008-3.6445 4.0547-0.0234 8.1094-0.0469 12.164-0.0703 3.2852 0.0195 4.0078 1.7422 4.3711 3.7148z"/><path d="m38.41 376.95c-0.61719 0.0312-1.2227 0.10156-1.8203 0.26172-0.6875 0.17968-1.3398 0.44921-1.9414 0.82812-0.49609 0.3125-0.94531 0.67188-1.3672 1.0742l-1.5977 6.4453c-0.60547 2.4375-0.98047 4.9258-1.0859 7.4336-0.03906 0.98046-0.03125 1.9609 0.01172 2.9414 0.05469 1.2812 0.15625 2.5625 0.31641 3.8359 0.05078 0.41016 0.13281 0.82031 0.23828 1.2188l2.1641 8.0469c0.5 0.32422 1.0117 0.625 1.5508 0.875 0.62891 0.28907 1.2891 0.51563 1.9648 0.67188 0.56641 0.12891 1.1328 0.20312 1.707 0.23828l-2.0664-9.0312c-0.37109-0.082-0.72266-0.22656-1.0195-0.46484-0.24219-0.19141-0.67578-0.64453-0.67578-0.99219v-12.043c0-0.64844 0.39453-1.1992 0.89843-1.5742 0.30469-0.23047 0.65625-0.37109 1.0274-0.44922z"/><path d="m40.887 410.36c0.17578-0.0547 0.30078-0.1875 0.39844-0.34375 0.0781-0.11719 0.11719-0.24219 0.11328-0.38282 0-0.11718-0.0156-0.23828-0.043-0.35156l-1.832-7.6016c-0.0547-0.22656-0.0586-0.33203-0.28125-0.46875-0.13281-0.0859-0.30859-0.14063-0.46875-0.0937l-1.4531 0.42187 2.0664 9.1484z"/><path d="m37.605 386.27 1.3164 0.27734c0.0781 0.0117 0.15234 0.0195 0.23047 0.0273 0.11328 8e-3 0.23047-4e-3 0.32812-0.0703 0.17188-0.11719 0.2461-0.27344 0.28907-0.46875l1.5938-7.7109c0.0273-0.12109 0.0352-0.23828-0.0117-0.35156-0.043-0.11328-0.10547-0.22266-0.17969-0.31641-0.11719-0.13671-0.28516-0.24218-0.46484-0.27343l-1.4102-0.23438z"/></g><path d="m89.602 410.82v-14.801h-14.082v14.801h-6.6875v-33.871h6.6875v12.316h14.082v-12.316h6.6836v33.871z"/><path d="m112.2 403.54h3.5547m13.418 2.1562h-16.973v-2.1562h3.5547l13.418-21.453 13.422 21.453h3.4766v2.1562zm0-11.168-5.582 9.0117h11.168zm16.898 9.0117h-3.4766" fill-rule="evenodd"/><path d="m82.559 334.61c9.3281 0 16.938 7.6094 16.938 16.938 0 9.3281-7.6094 16.934-16.938 16.934-9.3281 0-16.934-7.6055-16.934-16.934 0-9.3281 7.6055-16.938 16.934-16.938" fill-rule="evenodd"/></g><path d="m80.348 365.9c4e-3 0.80469-0.29297 0.99219-0.84766 0.9961-0.55078 4e-3 -0.94531-0.19141-0.94531-0.9961-0.0117-6.3008 0-12.602 0-18.902-1.4648-1.1367-1.957-2.7422-1.6484-4.7383 0.31641-1.8281 0.63282-3.6562 0.94922-5.4844 0.0703-8e-3 0.14453-0.0156 0.21485-0.0195 0.0117 2.2383 0.0195 4.4805 0.0273 6.7188h0.37109c0.14063-2.2383 0.28125-4.4805 0.42188-6.7188h0.21094c0.0469 2.2461 0.0937 4.4961 0.14062 6.7422 0.13281-8e-3 0.26563-0.0156 0.39844-0.0234 0.10937-2.2383 0.21875-4.4805 0.32812-6.7188h0.21094c0.0859 2.2305 0.17188 4.4609 0.25781 6.6953h0.49219c-8e-3 -2.2344-0.0156-4.4648-0.0234-6.6953h0.23438c0.30469 1.832 0.60937 3.668 0.91406 5.5 0.14063 2.1953-0.28516 3.9062-1.7344 4.7539 8e-3 6.2969 0.0156 12.594 0.0273 18.891" fill="#14549c" fill-rule="evenodd"/><path d="m86.902 336.75v29.164c-0.13282 0.59375-0.38282 0.77344-0.94141 0.79297-0.5625 0.0195-0.92969-0.16016-0.95703-0.78906v-14.559c0.0547-0.92187-4e-3 -1.8398-0.83594-2.6914-0.39844-0.26563-0.61719-0.79297-0.64844-1.5703 0.0234-2.8711 0.0469-5.7422 0.0703-8.6094-0.0156-1.9531 1.9609-1.8594 3.3125-1.7383" fill="#14549c" fill-rule="evenodd"/><g fill="#fff"><path d="m87.402 424.13v2.8125h3.25c0.98828 0 1.625-0.55078 1.625-1.3867-4e-3 -0.87109-0.63672-1.4258-1.625-1.4258zm3.0508 4.832h-3.0508v4.4414h-2.0234v-11.293h5.2344c0.82813 0 1.3438 0.11719 1.9375 0.47656 0.96094 0.52735 1.7461 1.8516 1.7461 2.9492v0.0195c0 1.2695-0.67578 2.3789-1.8242 3.0117l2.0586 4.8359h-2.2578z"/><path d="m96.789 422.11h2.0312v11.289h-2.0312z"/><path d="m110.57 429.24c0 2.457-1.9805 4.3594-4.4766 4.3594-3.3281 0-4.6758-2.9297-4.6758-5.8633 0-3.4453 1.8633-5.8203 4.6758-5.8203 2.0195 0 3.4062 1.0703 4.1992 2.8125l-2.0586 0.71093c-0.4375-0.95312-1.1484-1.5078-2.1406-1.5078-1.5859 0-2.6562 1.5859-2.6562 3.8047 0 1.8203 0.55469 3.8438 2.6562 3.8438 1.1094 0 2.0977-0.75391 2.375-1.7852h-1.8594v-2.0195h3.9609z"/><path d="m120.29 428.49h-5.0938v4.9102h-2.0274v-11.289h2.0274v4.3594h5.0938v-4.3594h2.0312v11.289h-2.0312z"/><path d="m129.46 433.41h-1.9766v-9.3125h-3.2461v-1.9805h8.4688v1.9805h-3.2461z"/><path d="m34.402 425.64v7.7695h-1.9883v-11.293h1.9883l5.2148 7.4492v-7.4492h1.9492v11.293h-1.7539z"/><path d="m44.5 422.11h8.2695v2.0195h-6.1992v2.1016h3.3789v2.0586h-3.3789v3.0898h6.3984v2.0234h-8.4688z"/><path d="m59.445 429.4-2.5078 4.0039h-2.3867l3.6992-5.9453-3.3828-5.3477h2.4297l2.1484 3.4453 2.1484-3.4453h2.4258l-3.3398 5.3477 3.6992 5.9453h-2.3867z"/><path d="m70.844 433.41h-1.9766v-9.3125h-3.2461v-1.9805h8.4688v1.9805h-3.2461z"/><path d="m428.96 32.309c0 1.9141-1.5508 3.4648-3.4609 3.4648h-124.71c-1.9141 0-3.4648-1.5508-3.4648-3.4648v-27.715c0-1.9141 1.5508-3.4648 3.4648-3.4648h124.71c1.9102 0 3.4609 1.5508 3.4609 3.4648z" stroke="#211e1e" stroke-width=".5"/></g><path d="m300.79 33.461c-0.63672 0-1.1523-0.51563-1.1523-1.1524v-27.715c0-0.63672 0.51562-1.1523 1.1523-1.1523h124.71c0.63672 0 1.1523 0.51562 1.1523 1.1523v27.715c0 0.63672-0.51562 1.1524-1.1523 1.1524z" fill="#14549c"/><g fill="#fff"><path d="m320.98 24.227v-11.551h8.457v2.0703h-6.3438v2.1445h3.457v2.1055h-3.457v3.1641h6.5469v2.0664z"/><path d="m344.4 12.68h2.0781v11.547h-2.0781z"/><path d="m354.18 14.703v9.5234h-2.0234v-9.5234h-3.3203v-2.0273h8.6641v2.0273z"/><path d="m339.19 24.227-2.6055-4.0938-2.5625 4.0938h-2.4414l3.7852-6.0781-3.4609-5.4727h2.4805l2.1992 3.5273 2.1992-3.5273h2.4805l-3.418 5.4727 3.7852 6.0781z"/><path d="m374.82 25.469 1.6445-2.6133c1.293 0.76953 3.5625 1.3984 5.0703 1.4023 2.6211 0 4.2109-1.1602 4.2109-3.1016 0-0.91016-0.42969-1.8242-1.1016-2.3711-0.60938-0.48828-1.5274-0.72656-2.8086-0.72656-1.1602 0-2.0742 0.17578-3.3555 0.66406l-3.1094-0.78906 0.54688-8.1406h11.598l-0.0586 3.0391h-8.6094l-0.18358 2.4922c1.4023-0.30078 2.2578-0.42578 3.3594-0.42578 3.9688 0 6.832 2.6719 6.832 6.2617 0 3.6406-3.0508 6.2539-7.3203 6.2539-2.3789 0-4.5195-0.60547-6.7148-1.9453"/><path d="m391.28 25.469 1.6445-2.6133c1.293 0.76953 3.5625 1.3984 5.0703 1.4023 2.6211 0 4.2109-1.1602 4.2109-3.1016 0-0.91016-0.42968-1.8242-1.1016-2.3711-0.60937-0.48828-1.5273-0.72656-2.8086-0.72656-1.1602 0-2.0742 0.17578-3.3555 0.66406l-3.1094-0.78906 0.54688-8.1406h11.598l-0.0586 3.0391h-8.6094l-0.1836 2.4922c1.4024-0.30078 2.2578-0.42578 3.3594-0.42578 3.9688 0 6.8359 2.6719 6.8359 6.2617 0 3.6406-3.0547 6.2539-7.3242 6.2539-2.3789 0-4.5195-0.60547-6.7148-1.9453"/></g><g><g transform="translate(-67.59 -80.043)" fill="#211e1e"><use x="505.34369" y="311.3374" width="100%" height="100%" xlink:href="#e"/><use x="511.84171" y="311.3374" width="100%" height="100%" xlink:href="#d"/><use x="516.8457" y="311.3374" width="100%" height="100%" xlink:href="#b"/><use x="519.84271" y="311.3374" width="100%" height="100%" xlink:href="#a"/><use x="524.84668" y="311.3374" width="100%" height="100%" xlink:href="#c"/><use x="529.85071" y="311.3374" width="100%" height="100%" xlink:href="#j"/></g><path d="m431.96 283.24c0 5.043-4.0859 9.1328-9.1328 9.1328h-182.66c-5.043 0-9.1328-4.0898-9.1328-9.1328v-109.59c0-5.043 4.0898-9.1328 9.1328-9.1328h182.66c5.0469 0 9.1328 4.0898 9.1328 9.1328z" fill="#fff" stroke="#211e1e" stroke-width=".5"/><path d="m240.18 290.09c-1.8281 0-3.5508-0.71484-4.8438-2.0078-1.293-1.293-2.0039-3.0156-2.0039-4.8438v-109.59c0-1.832 0.71094-3.5508 2.0039-4.8438 1.293-1.293 3.0156-2.0078 4.8438-2.0078h182.66c1.832 0 3.5508 0.71484 4.8438 2.0078 1.2969 1.293 2.0078 3.0117 2.0078 4.8438v109.59c0 1.8281-0.71094 3.5508-2.0078 4.8438-1.293 1.293-3.0117 2.0078-4.8438 2.0078z" fill="#14549c"/></g><g fill="#fff"><path d="m273 277.15v-12.176h8.9219v2.1797h-6.6914v2.2656h3.6445v2.2188h-3.6445v3.3359h6.9023v2.1758z"/><path d="m296.88 264.97h2.1914v12.176h-2.1914z"/><path d="m306.77 267.11v10.039h-2.1328v-10.039h-3.5v-2.1367h9.1328v2.1367z"/><path d="m291.87 277.15-2.7461-4.3125-2.7031 4.3125h-2.5742l3.9922-6.4062-3.6523-5.7695h2.6211l2.3164 3.7188 2.3164-3.7188h2.6172l-3.6055 5.7695 3.9922 6.4062z"/><path d="m380.71 266.48-2.5625 6.1523h5.125zm5.7656 13.715-1.793-4.2969h-7.9453l-1.793 4.2969h-3.5898l7.6914-18.266h3.3281l7.625 18.266z"/><path d="m345.9 280.2c0-2.1797 0.45313-3.7812 1.4805-5.5781 1.6133-2.6914 3.9297-4.3555 7.2773-5.2539 2.0586-0.57813 2.7656-1.2188 2.7656-2.3086 0-1.3438-1.2891-2.1133-3.6055-2.1133-2.3789 0-4.1172 0.57422-5.6641 1.9844l-2.2539-2.4961c2.125-1.8594 4.7656-2.8203 7.7266-2.8203 4.3125 0 7.082 2.1133 7.082 5.4453 0 1.5391-0.64453 2.9492-1.8672 3.9766-0.58203 0.44531-1.418 0.89453-2.707 1.2812-2.4453 0.70312-3.1524 1.0234-4.2461 1.9844-0.83594 0.70703-1.3516 1.4102-1.9961 2.6289h10.816v3.2695z"/><path d="m335.94 264.88c-2.2539 0-3.543 0.64453-3.543 1.668 0 1.0898 1.2891 1.7305 3.543 1.7305s3.5391-0.64063 3.5391-1.7305c0-1.0234-1.2852-1.668-3.5391-1.668m0 6.668c-2.6406 0-4.1211 1.0234-4.1211 2.8203 0 0.89453 0.51562 1.793 1.3516 2.3047 0.51562 0.32031 1.6758 0.51562 2.7695 0.51562 1.5469 0 2.5117-0.19531 3.1523-0.76953 0.64453-0.57812 0.96485-1.2812 0.96485-2.0508 0-1.7969-1.4766-2.8203-4.1172-2.8203m0 8.9726c-4.5078 0-7.4023-2.4375-7.4023-6.1523 0-1.7305 0.70703-3.207 2.0586-4.4219-1.1562-1.3476-1.4805-2.1172-1.4805-3.3359 0-3.0117 2.7695-4.9961 6.8242-4.9961 4.1172 0 6.8203 1.9844 6.8203 4.9961 0 1.2188-0.32031 1.9883-1.4141 3.3359 1.3516 1.2148 1.9961 2.6914 1.9961 4.4219 0 4.3555-3.6055 6.1523-7.4023 6.1523"/><path d="m309.05 243.65-1.7109 4.1016h3.418zm3.8438 9.1445-1.1953-2.8633h-5.2969l-1.1953 2.8633h-2.3945l5.1289-12.18h2.2188l5.082 12.18z"/><path d="m296.41 253.01c-3.2031 0-5.1719-2.5195-5.1719-6.3242 0-3.8438 1.9688-6.2773 5.1719-6.2773 1.9648 0 3.7578 0.98047 4.6992 2.6914l-1.9219 1.0234c-0.34375-0.51172-0.51172-0.68359-0.85547-0.89844-0.46875-0.38281-1.2812-0.63671-1.9219-0.63671-2.2227 0-2.9492 2.1758-2.9492 4.0586 0 2.6484 1.1094 4.1875 2.9492 4.1875 1.1094 0 1.707-0.38672 2.7773-1.5391l1.9219 1.0234c-0.89844 1.7109-2.7344 2.6914-4.6992 2.6914"/><path d="m371.77 246.73v1.5781c0 2.6484-2.1367 4.6992-4.8281 4.6992-3.5859 0-5.0391-3.1602-5.0391-6.3242 0-3.7148 2.0078-6.2773 5.0391-6.2773 2.1797 0 3.6758 1.1523 4.5273 3.0312l-2.2188 0.76953c-0.46875-1.0234-1.2383-1.625-2.3086-1.625-1.707 0-2.8633 1.7109-2.8633 4.1016 0 1.9688 0.59765 4.1484 2.8633 4.1484 1.1953 0 2.2656-0.8125 2.5625-1.9258h-2.0039v-2.1758z"/><path d="m343.87 240.62h2.1914v12.18h-2.1914z"/><path d="m326.62 252.8v-7.4336l-3.6016 7.4336-3.5586-7.4336v7.4336h-2.1484v-12.18h2.1484l3.5586 7.2226 3.6016-7.2226h2.1445v12.18z"/><path d="m357.21 252.8-5.8359-8.375v8.375h-2.1445v-12.18h2.1445l5.6211 8.0352v-8.0352h2.1055v12.18z"/><path d="m337.83 242.8h-3.6797v3.0352h3.6797c1.0664 0 1.793-0.59766 1.793-1.4961 0-0.94141-0.72656-1.5391-1.793-1.5391m2.0898 4.7422c-0.6836 0.38672-1.2383 0.47266-2.1758 0.47266h-3.5938v4.7852h-2.2188v-12.18h5.8125c0.9375 0 1.4922 0.1289 2.1758 0.51562 1.1523 0.64063 1.8789 1.8359 1.8789 3.2031 0 1.2812-0.72656 2.5625-1.8789 3.2031"/><path d="m357.72 222.34-1.707 4.1016h3.418zm3.8438 9.1406-1.1953-2.8633h-5.2969l-1.1953 2.8633h-2.3906l5.125-12.176h2.2188l5.0859 12.176z"/><path d="m295.57 231.48v-5.2969h-5.4922v5.2969h-2.1875v-12.176h2.1875v4.6992h5.4922v-4.6992h2.1875v12.176z"/><path d="m337.11 219.31h2.1914v12.176h-2.1914z"/><path d="m365.98 231.48v-12.176h2.1875v10.297h6.9453v1.8789z"/><path d="m305.75 221.27c-1.8438 0-2.9531 1.5391-2.9531 4.1016 0 2.6055 1.1094 4.1445 2.9531 4.1445 2.3125 0 2.8672-2.2617 2.8672-4.1445 0-2.5625-1.0273-4.1016-2.8672-4.1016m0 10.426c-3.5977 0-5.1836-3.2461-5.1836-6.3242 0-3.8867 1.9727-6.2812 5.1836-6.2812 2.9961 0 5.0547 2.5234 5.0547 6.2383 0 3.8047-1.9726 6.3672-5.0547 6.3672"/><path d="m331.07 221.49h-3.6758v3.0312h3.6758c1.0703 0 1.7969-0.59766 1.7969-1.4922 0-0.9414-0.72656-1.5391-1.7969-1.5391m2.0938 4.7422c-0.6836 0.38281-1.2383 0.46875-2.1758 0.46875h-3.5938v4.7891h-2.2188v-12.18h5.8125c0.9375 0 1.4922 0.12891 2.1758 0.51172 1.1523 0.64063 1.8789 1.8398 1.8789 3.207 0 1.2812-0.72656 2.5625-1.8789 3.2031"/><path d="m317.41 226.03c-0.54297-0.15235-1.9062-0.48438-2.3672-0.75781-0.91406-0.54297-1.6172-1.4375-1.6172-2.7578 0-2.0352 1.7188-3.4219 4.207-3.4219 1.8008 0 3.3047 0.60547 4.5469 1.9062l-1.6289 1.4726c-0.77343-0.82031-1.7578-1.2109-2.918-1.2109-1.2461 0-1.9766 0.47656-1.9766 1.2539 0 0.69532 0.4336 0.9961 1.9336 1.3438 1.6289 0.34766 2.7031 0.69141 3.3906 1.0391 1.0742 0.5625 1.7578 1.7344 1.7578 3.0742 0 1.2578-0.55859 2.2109-1.7148 2.9024-0.85937 0.51953-1.9727 0.82422-3.0898 0.82422-2.1016 0-3.6914-0.78125-5.0625-2.3828l1.7578-1.3867c0.89844 1.0859 1.8867 1.5586 3.2617 1.5586 1.543 0 2.6602-0.69141 2.6602-1.6016 0-1.1562-1.2422-1.3242-3.1406-1.8555"/><path d="m347.01 221.45v10.039h-2.1328v-10.039h-3.5v-2.1367h9.1328v2.1367z"/><path d="m311.7 179.34c-0.55469-0.29688-1.1953-0.46875-1.8359-0.46875h-1.8477v7.8203h1.8477c0.64063 0 1.2383-0.17188 1.75-0.47266 1.2812-0.68359 1.8789-1.793 1.8789-3.4609 0-1.6211-0.59766-2.7344-1.793-3.418m1.0234 8.8047c-0.85157 0.46875-1.8789 0.72657-2.8594 0.72657h-4.0664v-12.18h4.0664c1.0234 0 2.0078 0.25781 2.9023 0.76953 1.8789 1.0703 2.9024 2.9062 2.9024 5.2969 0 2.4375-1.0234 4.3164-2.9453 5.3867"/><path d="m271.49 178.87v2.4766h3.8164v2.2226h-3.8164v5.3008h-2.2305v-12.18h9.1328v2.1797z"/><path d="m285.28 178.65c-1.8398 0-2.9531 1.5391-2.9531 4.1016 0 2.6094 1.1133 4.1445 2.9531 4.1445 2.3125 0 2.8672-2.2617 2.8672-4.1445 0-2.5625-1.0234-4.1016-2.8672-4.1016m0 10.426c-3.5977 0-5.1836-3.2461-5.1836-6.3242 0-3.8867 1.9727-6.2773 5.1836-6.2773 2.9961 0 5.0547 2.5195 5.0547 6.2344 0 3.8047-1.9688 6.3672-5.0547 6.3672"/><path d="m297.95 178.65c-1.8438 0-2.957 1.5391-2.957 4.1016 0 2.6094 1.1133 4.1445 2.957 4.1445 2.3125 0 2.8672-2.2617 2.8672-4.1445 0-2.5625-1.0273-4.1016-2.8672-4.1016m0 10.426c-3.5976 0-5.1836-3.2461-5.1836-6.3242 0-3.8867 1.9688-6.2773 5.1836-6.2773 2.9961 0 5.0508 2.5195 5.0508 6.2344 0 3.8047-1.9688 6.3672-5.0508 6.3672"/><path d="m384.62 188.87v-12.18h8.9219v2.1797h-6.6914v2.2656h3.6445v2.2227h-3.6445v3.332h6.9062v2.1797z"/><path d="m353.56 188.87v-5.3008h-5.4922v5.3008h-2.1914v-12.18h2.1914v4.6992h5.4922v-4.6992h2.1875v12.18z"/><path d="m379.57 188.87-5.8398-8.375v8.375h-2.1445v-12.18h2.1445l5.6211 8.0352v-8.0352h2.1055v12.18z"/><path d="m363.73 178.65c-1.8438 0-2.957 1.5391-2.957 4.1016 0 2.6094 1.1133 4.1445 2.957 4.1445 2.3125 0 2.8672-2.2617 2.8672-4.1445 0-2.5625-1.0273-4.1016-2.8672-4.1016m0 10.426c-3.5976 0-5.1836-3.2461-5.1836-6.3242 0-3.8867 1.9688-6.2773 5.1836-6.2773 2.9961 0 5.0508 2.5195 5.0508 6.2344 0 3.8047-1.9688 6.3672-5.0508 6.3672"/><path d="m339.84 178.87h-3.6797v3.0352h3.6797c1.0664 0 1.793-0.60156 1.793-1.4961 0-0.94141-0.72656-1.5391-1.793-1.5391m2.0938 4.7422c-0.6875 0.38672-1.2422 0.46875-2.1797 0.46875h-3.5938v4.7891h-2.2188v-12.18h5.8125c0.9375 0 1.4922 0.1289 2.1797 0.51172 1.1523 0.64062 1.8789 1.8398 1.8789 3.207 0 1.2812-0.72657 2.5625-1.8789 3.2031"/><path d="m321.76 181.77h6.0859v2.1797h-6.0859z"/><path d="m349.64 200.65c-0.55468-0.30079-1.1914-0.47266-1.832-0.47266h-1.8516v7.8203h1.8516c0.64063 0 1.2344-0.17187 1.75-0.46875 1.2774-0.68359 1.875-1.7969 1.875-3.4609 0-1.625-0.59765-2.7344-1.793-3.418m1.0234 8.8008c-0.85156 0.46875-1.875 0.72656-2.8555 0.72656h-4.0664v-12.176h4.0664c1.0234 0 2.0039 0.2539 2.8984 0.76562 1.8789 1.0703 2.9023 2.9062 2.9023 5.3008 0 2.4336-1.0234 4.3125-2.9453 5.3828"/><path d="m396.62 204.11v1.5781c0 2.6523-2.1367 4.7031-4.8281 4.7031-3.5898 0-5.0391-3.1641-5.0391-6.3242 0-3.7188 2.0078-6.2812 5.0391-6.2812 2.1797 0 3.6758 1.1524 4.5273 3.0352l-2.2188 0.76563c-0.46875-1.0234-1.2422-1.6211-2.3086-1.6211-1.707 0-2.8633 1.707-2.8633 4.1016 0 1.9648 0.59766 4.1445 2.8633 4.1445 1.1953 0 2.2656-0.8125 2.5625-1.9219h-2.0078v-2.1797z"/><path d="m365.92 204.11v1.5781c0 2.6523-2.1367 4.7031-4.8281 4.7031-3.5859 0-5.0391-3.1641-5.0391-6.3242 0-3.7188 2.0078-6.2812 5.0391-6.2812 2.1797 0 3.6758 1.1524 4.5312 3.0352l-2.2227 0.76563c-0.46875-1.0234-1.2383-1.6211-2.3086-1.6211-1.707 0-2.8594 1.707-2.8594 4.1016 0 1.9648 0.59375 4.1445 2.8594 4.1445 1.1953 0 2.2656-0.8125 2.5625-1.9219h-2.0039v-2.1797z"/><path d="m368.72 198h2.1953v12.176h-2.1953z"/><path d="m319.87 210.18v-12.176h2.1875v10.297h6.9453v1.8789z"/><path d="m382.06 210.18-5.8359-8.375v8.375h-2.1445v-12.176h2.1445l5.6211 8.0312v-8.0312h2.1055v12.176z"/><path d="m335.89 199.96c-1.8438 0-2.9531 1.5352-2.9531 4.1016 0 2.6055 1.1094 4.1445 2.9531 4.1445 2.3125 0 2.8672-2.2656 2.8672-4.1445 0-2.5664-1.0274-4.1016-2.8672-4.1016m0 10.426c-3.5977 0-5.1836-3.25-5.1836-6.3242 0-3.8906 1.9727-6.2812 5.1836-6.2812 2.9961 0 5.0547 2.5195 5.0547 6.2383 0 3.8008-1.9727 6.3672-5.0547 6.3672"/><path d="m284.2 201.03-1.707 4.1016h3.4141zm3.8438 9.1445-1.1953-2.8633h-5.2969l-1.1953 2.8633h-2.3906l5.125-12.176h2.2188l5.082 12.176z"/><path d="m276.26 204.11v1.5781c0 2.6523-2.1367 4.7031-4.8281 4.7031-3.5898 0-5.043-3.1641-5.043-6.3242 0-3.7188 2.0117-6.2812 5.043-6.2812 2.1797 0 3.6758 1.1524 4.5273 3.0352l-2.2188 0.76563c-0.47266-1.0234-1.2422-1.6211-2.3086-1.6211-1.707 0-2.8633 1.707-2.8633 4.1016 0 1.9648 0.59765 4.1445 2.8633 4.1445 1.1953 0 2.2656-0.8125 2.5625-1.9219h-2.0078v-2.1797z"/><path d="m296.27 204.72c-0.53906-0.14844-1.9023-0.48047-2.3633-0.75391-0.91406-0.54687-1.6172-1.4375-1.6172-2.7578 0-2.0352 1.7148-3.4219 4.207-3.4219 1.8008 0 3.3008 0.60547 4.5469 1.9062l-1.6289 1.4727c-0.77344-0.82422-1.7617-1.2148-2.918-1.2148-1.2461 0-1.9766 0.47656-1.9766 1.2578 0 0.69141 0.42969 0.99609 1.9336 1.3438 1.6289 0.34375 2.7031 0.69141 3.3867 1.0391 1.0742 0.5625 1.7617 1.7305 1.7617 3.0742 0 1.2578-0.55859 2.2109-1.7188 2.9023-0.85547 0.51954-1.9726 0.82422-3.0859 0.82422-2.1055 0-3.6914-0.78125-5.0664-2.3828l1.7617-1.3867c0.89843 1.082 1.8867 1.5586 3.2578 1.5586 1.5469 0 2.6641-0.69141 2.6641-1.6016 0-1.1602-1.2461-1.3281-3.1445-1.8594"/><path d="m307.69 203.08h6.0898v2.1797h-6.0898z"/></g></svg>
