<?xml version="1.0" encoding="UTF-8"?>
<svg width="334.48pt" height="538.13pt" version="1.2" viewBox="0 0 334.48 538.13" xmlns="http://www.w3.org/2000/svg"><defs></defs><g transform="translate(-142.36 -80.457)"><path d="m238.09 611.66c0 3.5781 2.9023 6.4805 6.4805 6.4805h136.08c3.5781 0 6.4766-2.9023 6.4766-6.4805v-12.961h-149.04z" fill="#facc2b"/><path d="m238.09 481.37c0 3.582 2.9023 6.4805 6.4805 6.4805h136.08c3.5781 0 6.4766-2.8984 6.4766-6.4805v-12.957h-149.04z" fill="#facc2b"/><g fill="#b0b0b0"><path d="m210.38 618.37v-109c0-86.23 3.4922-91.988 36.906-147.07l165.16-257.12 2.6094 1.3047-165.21 257.37c-33.02 54.43-27.473 69.117-27.473 154.51v100z"/><path d="m393.95 93.023-120.35 187.56 13.574-35.809c19.629-51.785 18.543-99.371-3.3242-145.47l3.6133-1.7148c13.438 28.332 18.398 55.367 17.684 81.07-0.375 13.332 17.152 18.621 24.355 7.3945l61.297-95.477z"/><path d="m293.59 169.88-16.648-67.305-15.648 6.2031c38.211 83.09-5.5352 153.15-43.355 215.85-4.4141 7.3164-22.934 34.562-25.133 38.219-1.1758 1.9609-4.1172 1.6016-4.7891-0.58594-10.621-34.492-12.023-143.02-12.023-181.8v-96.926h-19.184v384.52h4.1602v150.32h31.762v-173.28l41.805-93.027-13.508-6.8984 59.281-95.465z"/></g><g fill="#fff"><path d="m173.68 421.34-3.1172-5.2812v8.8594l1.5273 2.5859 1.7109-1.0117 1.3086-5.9961z"/><path d="m178.16 404-7.5938-12.871 0.35547 9.457 5.6484 9.5742 2.3359-1.3789 2.1016-6.4648z"/><path d="m182.63 386.64-11.801-20.008-0.26953 8.4062 10.48 17.762 6.2148-3.668 4.1836-7.6914z"/><path d="m187.11 369.29-16.543-28.051v8.8594l14.953 25.355 14.184-8.3672 5.1719-8.2773z"/></g><g fill="none" stroke-miterlimit="10"><path transform="matrix(1 0 0 -1 165.82 509.37)" d="m1.25e-5 6.25e-6v-60.301l-22.797-48.699" stroke="#211e1e"/><path transform="matrix(1 0 0 -1 208.38 352.82)" d="m6.25e-6 -0.0014188c-24.246-39.961-33.98-56.02-37.605-94.281" stroke="#fff" stroke-width="2"/><path transform="matrix(1 0 0 -1 219.53 352.07)" d="m0.0019438 0.0014938c41.328 68.594 104.37 150.49 57.418 249.49" stroke="#b0b0b0" stroke-width="17.279"/><path transform="matrix(1 0 0 -1 198.24 618.37)" d="m-0.0010188 0.0010062v109c0 91.637 4.8906 96.754 41.566 157.3l162.6 253.41" stroke="#b0b0b0" stroke-width="24.279"/><path transform="matrix(1 0 0 -1 222.38 618.37)" d="m6.25e-6 0.0010062v100c0 85.395-5.5469 100.08 27.473 154.51l165.21 257.37" stroke="#211e1e"/></g><path d="m170.28 618.37h-27.918v-534.84h27.918z" fill="#b0b0b0"/><g fill="none"><path transform="matrix(1 0 0 -1 152 617.37)" d="m-0.0010062 0.0010062v536.91" stroke="#fff" stroke-dasharray="14.4, 43.2" stroke-width="2"/><path transform="matrix(1 0 0 -1 261.3 108.78)" d="m-0.001425-0.0014438c38.211-83.09-5.5352-153.15-43.355-215.85-4.4141-7.3164-23.512-34.562-25.645-38.219-1.1406-1.9609-3.6055-1.6016-4.2773 0.58594-10.621 34.492-12.023 143.02-12.023 181.8v96.926" stroke="#211e1e" stroke-miterlimit="10"/><g stroke="#fff" stroke-width="2"><path transform="matrix(1 0 0 -1 170.56 452.92)" d="m-0.0015-9.75e-4v-165.45" stroke-dasharray="4.32, 12.96"/><path transform="matrix(1 0 0 -1 188.38 618.37)" d="m-0.0015 0.0010062v109c0 89.391 3.9688 98.926 40.102 158.48l0.29688 0.48047 41.516 64.629" stroke-dasharray="14.4, 43.2"/><g stroke-miterlimit="10"><path transform="matrix(1 0 0 -1 210.38 618.37)" d="m6.25e-6 0.0010062v109c0 86.23 3.4922 91.988 36.906 147.07l165.16 257.12"/><path transform="matrix(1 0 0 -1 208.38 352.82)" d="m6.25e-6 -0.0014188c41.543 70.844 99.992 152.3 57.328 246.34"/><path transform="matrix(1 0 0 -1 273.6 280.58)" d="m0.0014562 0.0014688 13.574 35.809c19.629 51.785 18.543 99.367-3.3242 145.47"/><path transform="matrix(1 0 0 -1 394.36 92.372)" d="m-1.875e-5 5.0625e-4 -120.77-188.21"/><path transform="matrix(1 0 0 -1 170.78 83.53)" d="m0.0019438-9.5e-4v-363.57"/></g></g></g><g fill="#fff"><path d="m290.47 246.63-2.1211-5.0234-2.3008 6.125 2.0234 4.7969 5.5234-2.332 3.6133-6.4102z"/><path d="m297.21 230.03-3.1719-7.5039-1.7695 7.375 2.543 6.0274 10.195-4.3047 4.457-6.7656z"/><path d="m303.96 213.43-5.2773-12.496-1.5156 7.9727 4.3984 10.422 16.066-6.7852 3.7852-6.4805z"/><path d="m310.7 196.83-9.5859-22.711-0.83203 9.6055 8.0195 19 20.914-8.8281 4.3008-6.7031z"/></g><path transform="matrix(1 0 0 -1 287.46 97.585)" d="m5.375e-4 -5.375e-4c13.438-28.332 18.402-55.367 17.684-81.07-0.375-13.332 17.152-18.621 24.355-7.3945l61.297 95.477" fill="none" stroke="#211e1e" stroke-miterlimit="10"/><path transform="matrix(1 0 0 -1 302.98 298.31)" d="m-9.375e-4 6.25e-6 -59.141 35.859" fill="none" stroke="#211e1e"/><g fill="#211e1e"><path d="m300.93 297.07c-0.68359 1.1289-0.32422 2.6094 0.80859 3.293 1.1289 0.6836 2.6094 0.32422 3.293-0.80859 0.6875-1.1289 0.32422-2.6094-0.80468-3.293-1.1328-0.6875-2.6094-0.32422-3.2969 0.8086"/><path d="m241.79 261.21c-0.6836 1.1289-0.32422 2.6094 0.80859 3.293 1.1289 0.6875 2.6094 0.32422 3.293-0.80469 0.6875-1.1328 0.32422-2.6094-0.80469-3.2969-1.1328-0.6836-2.6094-0.32422-3.2969 0.80859"/><path d="m271.44 281.46 0.89453-1.4727-15.555-9.3008-0.89453 1.4766z"/><path d="m290.37 292.85 0.89453-1.4726-16.32-9.918-0.89454 1.4726z"/></g><path transform="matrix(1 0 0 -1 228.08 449.42)" d="m5.25e-4 0.001925h-57.516" fill="none" stroke="#211e1e"/><path d="m225.66 449.42c0 1.3242 1.0781 2.3984 2.3984 2.3984 1.3242 0 2.3984-1.0742 2.3984-2.3984 0-1.3203-1.0742-2.3945-2.3984-2.3945-1.3203 0-2.3984 1.0742-2.3984 2.3945" fill="#211e1e"/><path d="m172.84 449.72v1.7227h36.543v-1.7227z" fill="#211e1e"/><path transform="matrix(1 0 0 -1 228.08 592.82)" d="m5.25e-4 -0.0010062h-57.516" fill="none" stroke="#211e1e"/><g><path d="m225.66 592.82c0 1.3203 1.0781 2.3984 2.3984 2.3984 1.3242 0 2.3984-1.0781 2.3984-2.3984 0-1.3242-1.0742-2.3984-2.3984-2.3984-1.3203 0-2.3984 1.0742-2.3984 2.3984" fill="#211e1e"/><path d="m173.21 593.11v1.7266h34.172v-1.7266z" fill="#211e1e"/><path d="m381 263.2c-3.6445 0-6.6055-2.9609-6.6055-6.6055v-48.598c0-3.6445 2.9609-6.6055 6.6055-6.6055h48.602c3.6406 0 6.6016 2.9609 6.6016 6.6055v48.598c0 3.6445-2.9609 6.6055-6.6016 6.6055z" fill="#fff"/><path d="m429.6 201.27h-48.598c-3.7109 0-6.7305 3.0195-6.7305 6.7305v48.598c0 3.7109 3.0195 6.7305 6.7305 6.7305h48.598c3.7148 0 6.7305-3.0195 6.7305-6.7305v-48.598c0-3.7109-3.0156-6.7305-6.7305-6.7305m0 0.25c3.582 0 6.4805 2.8984 6.4805 6.4805v48.598c0 3.5781-2.8984 6.4805-6.4805 6.4805h-48.598c-3.5781 0-6.4805-2.9024-6.4805-6.4805v-48.598c0-3.582 2.9023-6.4805 6.4805-6.4805h48.598" fill="#211e1e"/><path d="m381 262c-0.73047 0-1.4375-0.14453-2.1016-0.42578-0.64453-0.26953-1.2188-0.66015-1.7148-1.1562-0.49609-0.49609-0.88672-1.0742-1.1602-1.7188-0.28125-0.66406-0.42188-1.3711-0.42188-2.1016v-48.598c0-0.73047 0.14063-1.4375 0.42188-2.1016 0.27343-0.64453 0.66406-1.2227 1.1602-1.7188 0.4961-0.49609 1.0703-0.88672 1.7148-1.1562 0.66406-0.28125 1.3711-0.42578 2.1016-0.42578h48.602c0.72656 0 1.4336 0.14453 2.0977 0.42578 0.64453 0.26953 1.2226 0.66016 1.7188 1.1562 0.49609 0.49609 0.88672 1.0742 1.1562 1.7188 0.28125 0.66406 0.42578 1.3711 0.42578 2.1016v48.598c0 0.73047-0.14453 1.4375-0.42578 2.1016-0.26953 0.64453-0.66016 1.2227-1.1562 1.7188-0.4961 0.4961-1.0742 0.88672-1.7188 1.1562-0.66406 0.28125-1.3711 0.42578-2.0977 0.42578z" fill="#00664c"/></g><g fill="#fff"><path d="m394.8 250.65-0.91015 2.1836h1.8203zm2.0469 4.8672-0.63672-1.5234h-2.8203l-0.63672 1.5234h-1.2734l2.7266-6.4805h1.1836l2.707 6.4805z"/><path d="m384.58 255.52v-8.1016h5.9297v1.4492h-4.4492v1.5078h2.4258v1.4766h-2.4258v2.2188h4.5938v1.4492z"/><path d="m401.22 252.61c-0.28907-0.082-1.0156-0.25781-1.2617-0.40625-0.48438-0.28906-0.85938-0.76172-0.85938-1.4648 0-1.082 0.91406-1.8203 2.2383-1.8203 0.95703 0 1.7578 0.32032 2.4219 1.0156l-0.86719 0.78125c-0.41406-0.4375-0.9375-0.64453-1.5547-0.64453-0.66406 0-1.0508 0.2539-1.0508 0.66797 0 0.36718 0.23047 0.53125 1.0274 0.71484 0.86718 0.18359 1.4375 0.36719 1.8047 0.55469 0.57032 0.29687 0.9375 0.92187 0.9375 1.6367 0 0.66797-0.29687 1.1719-0.91406 1.543-0.45703 0.27734-1.0508 0.4375-1.6445 0.4375-1.1211 0-1.9648-0.41407-2.6953-1.2695l0.9375-0.73437c0.47656 0.57422 1.0039 0.82812 1.7344 0.82812 0.82031 0 1.418-0.36718 1.418-0.85156 0-0.61719-0.66406-0.70703-1.6719-0.98828"/><path d="m407.77 250.17v5.3438h-1.1367v-5.3438h-1.8633v-1.1367h4.8594v1.1367z"/><path d="m416.96 246.91 8.4727-0.88282c0.15625-0.0156 0.3164 0.0352 0.43359 0.15625 0.12109 0.1211 0.17188 0.28125 0.15625 0.4375l-0.88281 8.4727c-0.0117 0.11719-0.0625 0.23437-0.15625 0.32422-0.21094 0.21094-0.55078 0.21094-0.76172 0-0.0312-0.0312-0.0586-0.0625-0.0781-0.10156l-2.0938-3.4062-4.4414 5.1094-2.5742-2.5781 5.1055-4.4375-3.4062-2.0938c-0.0352-0.0234-0.0703-0.0508-0.10156-0.0781-0.21094-0.21484-0.21094-0.55469 0-0.76562 0.0937-0.0898 0.20703-0.14454 0.32812-0.15625"/><path d="m393 208.57-8.4726-0.88281c-0.15625-0.0156-0.31641 0.0352-0.4375 0.15625-0.11719 0.12109-0.17188 0.28125-0.15625 0.4375l0.88281 8.4727c0.0117 0.11718 0.0664 0.23437 0.15625 0.32421 0.21094 0.21094 0.55469 0.21094 0.76562 0 0.0312-0.0312 0.0586-0.0625 0.0781-0.10156l2.0938-3.4062 4.4375 5.1094 2.5781-2.5781-5.1094-4.4414 3.4102-2.0898c0.0351-0.0234 0.0703-0.0508 0.0976-0.0781 0.21094-0.21094 0.21094-0.55469 0-0.76563-0.0898-0.0937-0.20703-0.14453-0.32422-0.15625"/><path d="m410.08 217.18v-6.4805h4.7461v1.1602h-3.5586v1.2031h1.9414v1.1836h-1.9414v1.7734h3.6719v1.1602z"/><path d="m418.26 214.27c-0.28516-0.082-1.0117-0.25782-1.2578-0.40625-0.48829-0.28907-0.85938-0.76172-0.85938-1.4648 0-1.082 0.91406-1.8203 2.2344-1.8203 0.96093 0 1.7617 0.32031 2.4219 1.0117l-0.86719 0.78516c-0.41015-0.4375-0.9375-0.64454-1.5547-0.64454-0.66016 0-1.0469 0.25391-1.0469 0.66797 0 0.3711 0.22656 0.53125 1.0273 0.71485 0.86719 0.18359 1.4375 0.36718 1.8008 0.55078 0.57421 0.30078 0.9375 0.92187 0.9375 1.6367 0 0.66797-0.29688 1.1758-0.91016 1.5469-0.45703 0.27344-1.0547 0.4375-1.6484 0.4375-1.1172 0-1.9609-0.41406-2.6914-1.2656l0.9375-0.73828c0.47656 0.57421 1.0039 0.82812 1.7344 0.82812 0.82031 0 1.4141-0.36719 1.4141-0.85156 0-0.61719-0.66015-0.70703-1.6719-0.98828"/><path d="m424.81 211.83v5.3438h-1.1367v-5.3438h-1.8594v-1.1367h4.8594v1.1367z"/><path d="m407.46 217.18h-1.5352l-1.3086-5.4297-1.2812 5.4297h-1.5352l-1.4805-8.1016h1.5078l0.88282 5.2305 1.1953-5.2305h1.4492l1.2539 5.2305 0.82422-5.2305h1.4805z"/><path d="m415.02 232.29c0 5.3711-4.3516 9.7226-9.7188 9.7226-5.3711 0-9.7188-4.3516-9.7188-9.7226 0-5.3672 4.3477-9.7188 9.7188-9.7188 5.3672 0 9.7188 4.3516 9.7188 9.7188"/></g><g><path d="m400.43 237.16v-7.8789h-0.8789v-1.2305h0.10156c0.40625 0 0.84375-0.23828 1.1133-0.61328h1.2148v9.7227z" fill="#211e1e"/><path d="m407.73 232.93c-0.95312 0-1.7383 0.64844-1.7383 1.3984 0 0.78515 0.78516 1.4336 1.7383 1.4336 0.95704 0 1.7734-0.64844 1.7734-1.4336 0-0.75-0.78515-1.3984-1.7734-1.3984m0 4.3984c-1.875 0-3.3086-1.3633-3.3086-3.1016 0-2.6953 1.5-5.457 3.7539-6.957l0.78515 1.2969c-1.1953 0.91797-1.8086 1.7031-2.3867 2.9297 0.54297-0.10157 0.78125-0.10157 1.1562-0.10157 1.8086 0 3.3086 1.332 3.3086 2.9688 0 1.6719-1.4297 2.9648-3.3086 2.9648" fill="#211e1e"/><path d="m188.05 302.11c-1.8555 0-3.3633-1.5078-3.3633-3.3633v-25.922c0-1.8555 1.5078-3.3633 3.3633-3.3633h35.641c1.8555 0 3.3633 1.5078 3.3633 3.3633v25.922c0 1.8555-1.5078 3.3633-3.3633 3.3633z" fill="#fff"/><path d="m223.69 269.33h-35.641c-1.9258 0-3.4922 1.5664-3.4922 3.4883v25.922c0 1.9219 1.5664 3.4883 3.4922 3.4883h35.641c1.9219 0 3.4883-1.5664 3.4883-3.4883v-25.922c0-1.9219-1.5664-3.4883-3.4883-3.4883m0 0.25c1.7891 0 3.2383 1.4492 3.2383 3.2383v25.922c0 1.7891-1.4492 3.2383-3.2383 3.2383h-35.641c-1.7891 0-3.2422-1.4492-3.2422-3.2383v-25.922c0-1.7891 1.4531-3.2383 3.2422-3.2383h35.641" fill="#211e1e"/><path d="m188.05 301.17c-0.64844 0-1.2578-0.2539-1.7188-0.71093-0.45703-0.46094-0.71094-1.0703-0.71094-1.7188v-25.922c0-0.64844 0.25391-1.2578 0.71094-1.7188 0.46094-0.45703 1.0703-0.71094 1.7188-0.71094h35.641c0.64843 0 1.2578 0.25391 1.7188 0.71094 0.45703 0.46094 0.71093 1.0703 0.71093 1.7188v25.922c0 0.64843-0.2539 1.2578-0.71093 1.7188-0.46094 0.45703-1.0703 0.71093-1.7188 0.71093z" fill="#00664c"/></g><g fill="#fff"><path d="m193.89 281.46v-6.4805h4.7461v1.1602h-3.5586v1.2031h1.9375v1.1836h-1.9375v1.7734h3.6719v1.1602z"/><path d="m209.35 274.98h1.168v6.4805h-1.168z"/><path d="m215.99 276.12v5.3438h-1.1328v-5.3438h-1.8633v-1.1367h4.8594v1.1367z"/><path d="m205.06 281.46-1.4648-2.2969-1.4375 2.2969h-1.3711l2.125-3.4102-1.9414-3.0703h1.3945l1.2305 1.9805 1.2344-1.9805h1.3945l-1.918 3.0703 2.1211 3.4102z"/><path d="m222.11 294.77 1.5742-7.9688c0.0234-0.125-0.0117-0.26172-0.11328-0.35937-0.0977-0.10157-0.23437-0.13672-0.35937-0.11329l-7.9688 1.5742c-0.0781 0.0156-0.15235 0.0508-0.21485 0.11328-0.15625 0.15625-0.15625 0.41407 0 0.57422 0.0273 0.0234 0.0547 0.0469 0.0859 0.0625l2.8281 1.6992-6.6836 6.1133 2.293 2.2891 6.1094-6.6836 1.6992 2.8281c0.0156 0.0312 0.0391 0.0586 0.0664 0.0859 0.15625 0.15625 0.41406 0.15625 0.57031 0 0.0625-0.0625 0.0977-0.13671 0.11328-0.21484"/><path d="m192.89 296.04 0.0312-7.2656h-1.2188l-0.0352-1.3984c0.7461-0.17188 1.1524-0.44532 1.5274-1.0586h1.3906v9.7227z"/><path d="m200.46 287.89c-1.1992 0-1.8867 0.33985-1.8867 0.88672 0 0.57813 0.6875 0.92188 1.8867 0.92188s1.8828-0.34375 1.8828-0.92188c0-0.54687-0.6836-0.88672-1.8828-0.88672m0 3.5469c-1.4062 0-2.1914 0.54687-2.1914 1.5 0 0.47656 0.27343 0.95312 0.71875 1.2266 0.27343 0.17188 0.89062 0.27344 1.4726 0.27344 0.82032 0 1.3359-0.10156 1.6797-0.41016 0.33984-0.30468 0.51172-0.67968 0.51172-1.0898 0-0.95313-0.78906-1.5-2.1914-1.5m0 4.7734c-2.3984 0-3.9414-1.293-3.9414-3.2734 0-0.92188 0.3789-1.707 1.0976-2.3516-0.61718-0.71875-0.78906-1.125-0.78906-1.7734 0-1.6055 1.4727-2.6602 3.6328-2.6602 2.1914 0 3.6289 1.0547 3.6289 2.6602 0 0.64844-0.16797 1.0547-0.75391 1.7734 0.72266 0.64453 1.0625 1.4297 1.0625 2.3516 0 2.3203-1.918 3.2734-3.9375 3.2734"/><path d="m411.79 387.57c-3.6406 0-6.6016-2.9648-6.6016-6.6055v-51.84c0-3.6445 2.9609-6.6055 6.6016-6.6055h58.32c3.6445 0 6.6094 2.9609 6.6094 6.6055v51.84c0 3.6406-2.9648 6.6055-6.6094 6.6055z"/></g><path d="m470.11 322.39h-58.316c-3.7109 0-6.7305 3.0195-6.7305 6.7305v51.84c0 3.7109 3.0195 6.7305 6.7305 6.7305h58.316c3.7148 0 6.7305-3.0195 6.7305-6.7305v-51.84c0-3.7109-3.0156-6.7305-6.7305-6.7305m0 0.25c3.582 0 6.4805 2.9024 6.4805 6.4805v51.84c0 3.5781-2.8984 6.4805-6.4805 6.4805h-58.316c-3.5781 0-6.4805-2.9024-6.4805-6.4805v-51.84c0-3.5781 2.9024-6.4805 6.4805-6.4805h58.316" fill="#211e1e"/><path d="m475.51 380.96c0 0.72656-0.14453 1.4375-0.42578 2.1016-0.26953 0.64062-0.66016 1.2188-1.1562 1.7148-0.49609 0.4961-1.0742 0.88672-1.7188 1.1602-0.66406 0.28125-1.3711 0.42187-2.0977 0.42187h-58.324c-0.72657 0-1.4336-0.14062-2.0977-0.42187-0.64453-0.27344-1.2227-0.66406-1.7188-1.1602-0.49609-0.49609-0.88672-1.0742-1.1562-1.7148-0.28125-0.66406-0.42578-1.375-0.42578-2.1016v-51.84c0-0.73047 0.14453-1.4375 0.42578-2.1016 0.26953-0.64453 0.66016-1.2227 1.1562-1.7188s1.0742-0.88281 1.7188-1.1562c0.66406-0.28125 1.3711-0.42578 2.0977-0.42578h58.324c0.72657 0 1.4336 0.14453 2.0977 0.42578 0.64453 0.27344 1.2227 0.66016 1.7188 1.1562s0.88672 1.0742 1.1562 1.7188c0.28125 0.66406 0.42578 1.3711 0.42578 2.1016z" fill="#00664c"/><g fill="#fff"><path d="m425.07 363.68h-1.8164l-1.332-5.168-1.4805 5.168h-1.8164l-1.3594-8.6406h1.7226l0.75782 4.6524 1.207-4.6524h1.8164l1.2109 4.6524 0.72656-4.6524h1.7227z"/><path d="m430.64 358.79c-0.45703 0-0.88281 0.30078-1.0625 0.875h2.0625c-0.24219-0.63282-0.51563-0.875-1-0.875m-1.1562 2.2969c0.18359 0.72266 0.69922 1.1484 1.2461 1.1484 0.36328 0 0.69922-0.21485 0.97266-0.57422l1.1836 1.0273c-0.64062 0.75391-1.3086 1.0859-2.1562 1.0859-1.6094 0-3.0039-1.4219-3.0039-3.2617 0-1.8125 1.3633-3.2656 2.9141-3.2656 1.0312 0 1.9726 0.63672 2.4258 1.6328 0.24609 0.57422 0.36328 1.1797 0.36328 1.9648v0.24219z"/><path d="m461.64 363.68v-3.8242c0-0.57422-0.39453-1.0274-1.0625-1.0274-0.60547 0-1.2109 0.48438-1.2109 1v3.8516h-1.7344v-6.3281h1.7344v0.33203c0.57422-0.36328 1.1211-0.48437 1.6992-0.48437 1.3047 0 2.2734 0.90625 2.2734 2.1133v4.3672z"/><path d="m451.98 358.83c-0.66406 0-1.1797 0.72657-1.1797 1.6641 0 0.90625 0.51563 1.6289 1.1797 1.6289 0.64062 0 1.2148-0.72265 1.2148-1.6289 0-0.9375-0.57422-1.6641-1.2148-1.6641m0 4.9258c-1.5742 0-2.9062-1.4492-2.9062-3.2617 0-1.875 1.2695-3.293 2.9062-3.293 1.5195 0 2.9726 1.4805 2.9726 3.293s-1.4258 3.2617-2.9726 3.2617"/><path d="m440.31 363.09c-0.55078 0.45313-1.2812 0.63282-2.2891 0.63282-1.1875 0-1.9531-0.14844-2.8672-0.60157l0.67187-1.5117c0.64063 0.30079 1.4961 0.48438 2.1367 0.48438 0.69922 0 1.1602-0.12109 1.1602-0.36328 0-0.1836-0.15625-0.33203-0.49219-0.39453-0.33594-0.0899-1.0352-0.24219-1.3086-0.33203-1.375-0.39063-1.9844-1.0274-1.9844-1.9922 0-1.1172 1.0039-1.8125 2.5938-1.8125 0.88672 0 1.7383 0.17969 2.7461 0.66406l-0.67188 1.5117c-0.64062-0.33203-1.4336-0.54688-2.0117-0.54688-0.64453 0-0.91797 0.0937-0.91797 0.33594 0 0.23828 0.1211 0.30078 1.0391 0.45313 1.832 0.35937 2.7461 1.0234 2.7461 2.2031 0 0.54297-0.15234 0.9375-0.55078 1.2695"/><path d="m445.48 358.86v2.3555c0 0.57422 0.1211 0.90625 0.75781 0.84766 0.45704-0.0312 0.54688-0.15234 0.85157-0.45313l-0.45703 1.7812c-0.57813 0.24219-0.51563 0.33204-1.125 0.33204-1.1797 0-1.7266-0.69532-1.7266-1.9336v-2.9297h-1.1875v-1.4805h1.1875v-1.8438l1.6992-0.66407v2.4805h1.6094v1.5078z"/><path d="m433.44 338.84c0 5.3672-4.3516 9.7188-9.7188 9.7188-5.3672 0-9.7188-4.3516-9.7188-9.7188 0-5.3672 4.3516-9.7188 9.7188-9.7188 5.3672 0 9.7188 4.3516 9.7188 9.7188"/></g><path d="m418.86 343.7v-7.8789h-0.87891v-1.2266h0.10156c0.40625 0 0.84375-0.23828 1.1133-0.61328h1.2188v9.7188z" fill="#211e1e"/><path d="m426.16 339.47c-0.95313 0-1.7383 0.64843-1.7383 1.3984 0 0.78125 0.78515 1.4297 1.7383 1.4297 0.95703 0 1.7734-0.64844 1.7734-1.4297 0-0.75-0.78125-1.3984-1.7734-1.3984m0 4.3984c-1.875 0-3.3086-1.3633-3.3086-3.1055 0-2.6914 1.5039-5.457 3.7539-6.957l0.78516 1.2969c-1.1953 0.92187-1.8086 1.707-2.3867 2.9336 0.54687-0.10156 0.78125-0.10156 1.1562-0.10156 1.8086 0 3.3125 1.3281 3.3125 2.9648 0 1.6719-1.4336 2.9688-3.3125 2.9688" fill="#211e1e"/><g fill="#fff"><path d="m451.76 332.36-0.91016 2.1836h1.8203zm2.0469 4.8633-0.63672-1.5234h-2.8203l-0.63672 1.5234h-1.2695l2.7266-6.4766h1.1836l2.7031 6.4766z"/><path d="m441.54 337.22v-8.0977h5.9336v1.4492h-4.4531v1.5078h2.4258v1.4766h-2.4258v2.2148h4.5938v1.4492z"/><path d="m458.19 334.32c-0.28906-0.082-1.0156-0.25782-1.2578-0.40235-0.48828-0.28906-0.86328-0.76562-0.86328-1.4648 0-1.0859 0.91406-1.8242 2.2383-1.8242 0.96093 0 1.7578 0.32422 2.4219 1.0156l-0.86719 0.78516c-0.41015-0.44141-0.9375-0.64844-1.5547-0.64844-0.66016 0-1.0508 0.25391-1.0508 0.67188 0 0.36719 0.23046 0.52734 1.0273 0.71094 0.87109 0.1875 1.4375 0.37109 1.8047 0.55468 0.57031 0.30078 0.9375 0.92188 0.9375 1.6367 0 0.66797-0.29688 1.1758-0.91407 1.543-0.45703 0.27734-1.0508 0.4375-1.6445 0.4375-1.1172 0-1.9648-0.41406-2.6953-1.2656l0.9375-0.73829c0.48047 0.57813 1.0039 0.83204 1.7344 0.83204 0.82421 0 1.418-0.3711 1.418-0.85547 0-0.61719-0.66406-0.70313-1.6719-0.98828"/><path d="m464.73 331.88v5.3398h-1.1367v-5.3398h-1.8633v-1.1406h4.8594v1.1406z"/><path d="m449.05 373.4c-0.043 0-0.0859 4e-3 -0.125 0.0156l-6.2226 1.6055v-4.8594h-3.5078v4.8594l-6.2227-1.6055c-0.0391-0.0117-0.0781-0.0156-0.12109-0.0156-0.30079 0-0.54297 0.24218-0.54297 0.53906 0 0.16016 0.0703 0.30469 0.17968 0.40234l8.4609 7.6992 8.4609-7.6992c0.10937-0.0976 0.17969-0.24218 0.17969-0.40234 0-0.29688-0.24219-0.53906-0.53907-0.53906"/></g><g fill="#211e1e"><path d="m380.65 419.56h-136.08c-3.7109 0-6.7305 3.0195-6.7305 6.7305v55.082c0 3.7109 3.0195 6.7266 6.7305 6.7266h136.08c3.7109 0 6.7266-3.0156 6.7266-6.7266v-55.082c0-3.7109-3.0156-6.7305-6.7266-6.7305m0 0.25c3.5742 0 6.4766 2.9024 6.4766 6.4805v55.082c0 3.5781-2.9023 6.4766-6.4766 6.4766h-136.08c-3.5781 0-6.4805-2.8984-6.4805-6.4766v-55.082c0-3.5781 2.9023-6.4805 6.4805-6.4805h136.08"/><path d="m386.05 468.41v12.961c0 2.9766-2.4219 5.3984-5.3984 5.3984h-136.08c-2.9766 0-5.4024-2.4219-5.4024-5.3984v-12.961h-0.80859v12.961c0 3.4219 2.7852 6.207 6.2109 6.207h136.08c3.4219 0 6.207-2.7852 6.207-6.207v-12.961z"/><path d="m330.11 480.83v-6.4766h1.2695v5.2539h3.5312v1.2226z"/><path d="m327.18 480.83-2.8516-4.1445v4.1445h-1.2812v-6.4766h1.2812l2.6914 3.9609v-3.9609h1.2773v6.4766z"/><path d="m318.78 475.55c-0.93359 0-1.4375 0.67969-1.4375 2.0391 0 1.3125 0.52344 2.0625 1.4375 2.0625 0.88672 0 1.4336-0.8164 1.4336-2.0859 0-1.4062-0.52343-2.0156-1.4336-2.0156m0 5.3906c-1.9609 0-2.7344-1.6524-2.7344-3.3516 0-2.0391 1.0469-3.332 2.7344-3.332 1.5703 0 2.7109 1.3398 2.7109 3.332 0 2.0625-1.0703 3.3516-2.7109 3.3516"/><path d="m339.24 478.2v2.625h-1.2891v-2.625l-2.6523-3.8555h1.543l1.7891 2.4961 1.6758-2.4961h1.543z"/><path d="m286.6 480.83v-6.4766h4.7109v1.2891h-3.4414v1.0664h1.9453v1.2891h-1.9453v1.543h3.5312v1.2891z"/><path d="m300.22 474.35h1.2969v6.4766h-1.2969z"/><path d="m306.18 475.64v5.1875h-1.2461v-5.1875h-1.7852v-1.293h4.7969v1.293z"/><path d="m296.79 480.83-1.2891-2.1758-1.3359 2.1758h-1.4961l2.0391-3.4219-1.8555-3.0547h1.5156l1.1328 1.832 1.0859-1.832h1.543l-1.8359 3.0781 2.0156 3.3984z"/><path d="m275.01 480.27 1.8516-9.5508c0.0508-0.17968 4e-3 -0.38281-0.13672-0.52343-0.14453-0.14454-0.34375-0.19141-0.52344-0.14063l-9.5547 1.8516c-0.10157 0.0195-0.20313 0.0703-0.28125 0.14844-0.21094 0.21094-0.21094 0.55469 0 0.76563 0.0351 0.0312 0.0703 0.0625 0.10937 0.0859l3.3984 2.0859-8.1133 7.4453 2.7188 2.7188 7.4492-8.1133 2.0859 3.3984c0.0234 0.0391 0.0508 0.0742 0.0859 0.10937 0.21094 0.21094 0.55078 0.21094 0.76172 0 0.0781-0.0781 0.12891-0.17578 0.14844-0.28125"/><path d="m361.58 480.27 1.8516-9.5508c0.0469-0.17968 0-0.38281-0.14062-0.52343-0.14453-0.14454-0.34375-0.19141-0.52344-0.14063l-9.5547 1.8516c-0.10156 0.0195-0.19922 0.0703-0.28125 0.14844-0.20703 0.21094-0.20703 0.55469 0 0.76563 0.0352 0.0312 0.0742 0.0625 0.11328 0.0859l3.3945 2.0859-8.1133 7.4453 2.7227 2.7188 7.4453-8.1133 2.0859 3.3984c0.0234 0.0391 0.0508 0.0742 0.0859 0.10937 0.21094 0.21094 0.55078 0.21094 0.76172 0 0.082-0.0781 0.1289-0.17578 0.15234-0.28125"/></g><path d="m239.16 468.41v-42.121c0-0.73047 0.14453-1.4375 0.42578-2.1016 0.27344-0.64063 0.66016-1.2188 1.1562-1.7148 0.4961-0.5 1.0742-0.88672 1.7188-1.1602 0.66407-0.28125 1.3711-0.42188 2.1016-0.42188h136.08c0.73047 0 1.4375 0.14063 2.1016 0.42188 0.64453 0.27344 1.2227 0.66016 1.7188 1.1602 0.4961 0.49609 0.88672 1.0742 1.1562 1.7148 0.28125 0.66406 0.42578 1.3711 0.42578 2.1016v42.121z" fill="#00664c"/><g fill="#fff"><path d="m334.36 461.39h-1.8125l-1.332-5.1641-1.4805 5.1641h-1.8164l-1.3594-8.6406h1.7227l0.75781 4.6524 1.2109-4.6524h1.8125l1.2109 4.6524 0.72656-4.6524h1.7227z"/><path d="m339.93 456.49c-0.45703 0-0.88281 0.30468-1.0625 0.8789h2.0625c-0.24218-0.63672-0.51562-0.8789-1-0.8789m-1.1523 2.2969c0.17969 0.72656 0.69531 1.1484 1.2422 1.1484 0.36328 0 0.69922-0.21094 0.97265-0.57422l1.1836 1.0273c-0.64063 0.75391-1.3047 1.0859-2.1562 1.0859-1.6094 0-3.0039-1.418-3.0039-3.2617 0-1.8125 1.3633-3.2617 2.9141-3.2617 1.0312 0 1.9727 0.63282 2.4297 1.6328 0.24219 0.57031 0.36328 1.1758 0.36328 1.9609v0.24219z"/><path d="m370.93 461.39v-3.8203c0-0.57422-0.39453-1.0274-1.0625-1.0274-0.60547 0-1.2109 0.48438-1.2109 0.9961v3.8516h-1.7344v-6.3281h1.7344v0.33203c0.57421-0.36328 1.1211-0.48437 1.6992-0.48437 1.3047 0 2.2734 0.90625 2.2734 2.1172v4.3633z"/><path d="m361.28 456.54c-0.66797 0-1.1836 0.72656-1.1836 1.6602 0 0.90625 0.51562 1.6328 1.1836 1.6328 0.63672 0 1.2109-0.72656 1.2109-1.6328 0-0.9336-0.57422-1.6602-1.2109-1.6602m0 4.9258c-1.5781 0-2.9102-1.4531-2.9102-3.2656 0-1.8711 1.2695-3.293 2.9102-3.293 1.5156 0 2.9688 1.4805 2.9688 3.293s-1.4258 3.2656-2.9688 3.2656"/><path d="m349.61 460.8c-0.54687 0.45313-1.2812 0.63672-2.2852 0.63672-1.1914 0-1.9531-0.15234-2.8711-0.60547l0.67188-1.5078c0.64062 0.30078 1.4961 0.48047 2.1367 0.48047 0.70312 0 1.1602-0.12109 1.1602-0.35937 0-0.1836-0.15625-0.33594-0.48828-0.39454-0.33593-0.0898-1.0391-0.24218-1.3125-0.33203-1.375-0.39453-1.9844-1.0273-1.9844-1.9961 0-1.1172 1.0078-1.8125 2.5938-1.8125 0.88672 0 1.7383 0.18359 2.7461 0.66406l-0.67187 1.5117c-0.64063-0.33203-1.4336-0.54297-2.0117-0.54297-0.64063 0-0.91797 0.0899-0.91797 0.33203 0 0.24219 0.125 0.30078 1.0391 0.45313 1.832 0.36328 2.7461 1.0273 2.7461 2.2031 0 0.54688-0.15235 0.9375-0.55079 1.2695"/><path d="m354.77 456.57v2.3555c0 0.57422 0.12109 0.90625 0.75781 0.84375 0.45703-0.0273 0.54687-0.14844 0.85156-0.45312l-0.45703 1.7852c-0.57422 0.23828-0.51562 0.33203-1.1211 0.33203-1.1836 0-1.7305-0.69531-1.7305-1.9336v-2.9297h-1.1875v-1.4805h1.1875v-1.8438l1.6992-0.66406v2.4766h1.6094v1.5117z"/><path d="m342.74 436.55c0 5.3672-4.3516 9.7188-9.7188 9.7188s-9.7188-4.3516-9.7188-9.7188c0-5.3711 4.3516-9.7227 9.7188-9.7227s9.7188 4.3516 9.7188 9.7227"/></g><path d="m328.15 441.41v-7.8789h-0.8789v-1.2266h0.10156c0.40625 0 0.84375-0.24219 1.1172-0.61719h1.2148v9.7227z" fill="#211e1e"/><path d="m335.46 437.18c-0.95703 0-1.7422 0.64843-1.7422 1.3984 0 0.78516 0.78516 1.4336 1.7422 1.4336 0.95313 0 1.7734-0.64844 1.7734-1.4336 0-0.75-0.78516-1.3984-1.7734-1.3984m0 4.3984c-1.875 0-3.3086-1.3633-3.3086-3.1016 0-2.6953 1.5-5.457 3.75-6.957l0.78515 1.2969c-1.1953 0.91796-1.8086 1.7031-2.3867 2.9297 0.54688-0.10156 0.78516-0.10156 1.1602-0.10156 1.8086 0 3.3086 1.332 3.3086 2.9688 0 1.6719-1.4336 2.9648-3.3086 2.9648" fill="#211e1e"/><g fill="#fff"><path d="m361.06 430.06-0.90625 2.1836h1.8164zm2.0469 4.8672-0.63672-1.5234h-2.8164l-0.64062 1.5234h-1.2695l2.7266-6.4805h1.1836l2.7031 6.4805z"/><path d="m350.84 434.93v-8.1016h5.9336v1.4531h-4.4531v1.5039h2.4258v1.4766h-2.4258v2.2188h4.5938v1.4492z"/><path d="m367.48 432.03c-0.28906-0.082-1.0156-0.25781-1.2578-0.40234-0.48828-0.28906-0.85937-0.76563-0.85937-1.4688 0-1.082 0.91015-1.8203 2.2344-1.8203 0.96094 0 1.7617 0.32422 2.4219 1.0117l-0.86719 0.78515c-0.41016-0.4375-0.9375-0.64453-1.5547-0.64453-0.66015 0-1.0508 0.25391-1.0508 0.66797 0 0.37109 0.23047 0.53125 1.0312 0.71484 0.86719 0.1836 1.4375 0.3711 1.8008 0.55469 0.57422 0.29688 0.9375 0.92188 0.9375 1.6328 0 0.67188-0.29687 1.1797-0.91406 1.5469-0.45703 0.27734-1.0508 0.4375-1.6445 0.4375-1.1172 0-1.9648-0.41406-2.6914-1.2656l0.9336-0.73828c0.48046 0.57422 1.0039 0.82813 1.7344 0.82813 0.82422 0 1.418-0.36719 1.418-0.85157 0-0.61718-0.66016-0.70703-1.6719-0.98828"/><path d="m374.03 429.59v5.3438h-1.1367v-5.3438h-1.8594v-1.1367h4.8555v1.1367z"/><path d="m285.97 434.93v-6.4766h4.7461v1.1602h-3.5586v1.2031h1.9375v1.1797h-1.9375v1.7773h3.6719v1.1562z"/><path d="m294.15 432.02c-0.28906-0.0781-1.0156-0.25782-1.2578-0.40235-0.48828-0.28906-0.85937-0.76562-0.85937-1.4648 0-1.0859 0.91015-1.8203 2.2344-1.8203 0.96094 0 1.7617 0.32031 2.4219 1.0117l-0.86719 0.78515c-0.41016-0.4375-0.9375-0.64453-1.5547-0.64453-0.66016 0-1.0508 0.25391-1.0508 0.66797 0 0.36719 0.23047 0.52734 1.0312 0.71484 0.86719 0.1836 1.4375 0.36719 1.8008 0.55078 0.57422 0.30079 0.9375 0.92188 0.9375 1.6367 0 0.66797-0.29687 1.1758-0.91406 1.543-0.45703 0.27735-1.0508 0.44141-1.6445 0.44141-1.1172 0-1.9609-0.41797-2.6953-1.2695l0.9375-0.73828c0.48047 0.57812 1.0039 0.83203 1.7383 0.83203 0.82031 0 1.4141-0.3711 1.4141-0.85547 0-0.61719-0.66016-0.70703-1.6719-0.98828"/><path d="m300.7 429.59v5.3438h-1.1367v-5.3438h-1.8594v-1.1406h4.8594v1.1406z"/><path d="m283.35 434.93h-1.5352l-1.3086-5.4258-1.2812 5.4258h-1.5352l-1.4805-8.0977h1.5078l0.88281 5.2305 1.1953-5.2305h1.4492l1.2539 5.2305 0.82422-5.2305h1.4805z"/><path d="m268.11 436.55c0 5.3672-4.3516 9.7227-9.7188 9.7227-5.3672 0-9.7188-4.3555-9.7188-9.7227 0-5.3672 4.3516-9.7188 9.7188-9.7188 5.3672 0 9.7188 4.3516 9.7188 9.7188"/></g><path d="m253.52 441.41v-7.8789h-0.875v-1.2266h0.0977c0.40625 0 0.84375-0.23828 1.1133-0.61328h1.2188v9.7188z" fill="#211e1e"/><path d="m260.83 437.18c-0.95703 0-1.7422 0.64453-1.7422 1.3984 0 0.78516 0.78515 1.4297 1.7422 1.4297 0.95313 0 1.7734-0.64453 1.7734-1.4297 0-0.7539-0.78515-1.3984-1.7734-1.3984m0 4.3984c-1.8789 0-3.3086-1.3633-3.3086-3.1016 0-2.6953 1.5-5.457 3.75-6.9609l0.78516 1.2969c-1.1953 0.92187-1.8086 1.707-2.3867 2.9336 0.54687-0.10156 0.78515-0.10156 1.1602-0.10156 1.8086 0 3.3086 1.3281 3.3086 2.9688 0 1.668-1.4336 2.9648-3.3086 2.9648" fill="#211e1e"/><g fill="#fff"><path d="m254.33 461.39h-1.8164l-1.3281-5.168-1.4844 5.168h-1.8125l-1.3633-8.6406h1.7266l0.7539 4.6524 1.2109-4.6524h1.8164l1.207 4.6524 0.72656-4.6524h1.7266z"/><path d="m261.06 458.85c-0.51562-0.17969-1.125-0.26954-1.457-0.26954-0.54687 0-0.97265 0.30079-0.97265 0.69141 0 0.39453 0.51562 0.72656 1.125 0.72656 0.36328 0 0.8164-0.0586 1.3047-0.33203zm0 2.5391v-0.21485c-0.60937 0.24219-1.1836 0.30469-1.6719 0.30469-1.3945 0-2.3984-0.875-2.3984-2.1133 0-1.3008 1.125-2.2695 2.6133-2.2695 0.36328 0 0.94141 0.0625 1.457 0.24219-0.0312-0.60157-0.48828-0.84375-1.125-0.84375-0.60547 0-1.1836 0.15234-1.7891 0.48437l-0.64062-1.3594c0.9414-0.48438 1.582-0.66407 2.4297-0.66407 1.7305 0 2.7617 0.84375 2.7617 2.5938v3.8398z"/><path d="m290.1 458.85c-0.51563-0.17969-1.1211-0.26954-1.457-0.26954-0.54687 0-0.96875 0.30079-0.96875 0.69141 0 0.39453 0.51563 0.72656 1.1211 0.72656 0.36328 0 0.82031-0.0586 1.3047-0.33203zm0 2.5391v-0.21485c-0.60547 0.24219-1.1836 0.30469-1.668 0.30469-1.3984 0-2.3984-0.875-2.3984-2.1133 0-1.3008 1.1211-2.2695 2.6094-2.2695 0.36329 0 0.94141 0.0625 1.457 0.24219-0.0312-0.60157-0.48438-0.84375-1.1211-0.84375-0.60937 0-1.1836 0.15234-1.793 0.48437l-0.63672-1.3594c0.94141-0.48438 1.5781-0.66407 2.4297-0.66407 1.7305 0 2.7617 0.84375 2.7617 2.5938v3.8398z"/><path d="m281.65 461.39v-3.7774c0-0.57421-0.42578-1.0273-1.0039-1.0273-0.60547 0-1.2734 0.45313-1.2734 0.96484v3.8398h-1.7305v-8.0977l1.7305-0.66406v2.8086c0.73047-0.39062 1.1562-0.51172 1.7305-0.51172 1.2461 0 2.2461 0.9375 2.2461 2.1133v4.3516z"/><path d="m266.15 461.39v-8.0977l1.7266-0.66406v8.7617z"/><path d="m303 461.39v-3.8203c0-0.57813-0.51954-1.0312-1.125-1.0312-0.57813 0-1.0938 0.48437-1.0938 0.96875v3.8828h-1.6406v-3.8203c0-0.57813-0.48828-1.0312-1.0938-1.0312-0.60937 0-1.125 0.45312-1.125 1v3.8516h-1.7305v-6.3281h1.7305v0.33203c0.60547-0.36328 1.0312-0.48437 1.6406-0.48437 0.66796 0 1.2148 0.24219 1.6719 0.72266 0.82031-0.57032 1.2148-0.72266 1.9414-0.72266 1.3398 0 2.5234 0.90625 2.5234 2.1133v4.3672z"/><path d="m273.27 456.57v2.3555c0 0.57422 0.125 0.91016 0.76172 0.84766 0.45312-0.0312 0.54687-0.15234 0.85156-0.45312l-0.45703 1.7812c-0.57812 0.24218-0.51562 0.33203-1.125 0.33203-1.1836 0-1.7305-0.69141-1.7305-1.9336v-2.9297h-1.1836v-1.4805h1.1836v-1.8398l1.6992-0.66797v2.4766h1.6133v1.5117z"/><path d="m313.14 465.17h-1.0781v-42.121h1.0781z"/><path d="m330.43 419.68c-0.96094 0-1.7461-0.78515-1.7461-1.7461v-12.961c0-1.0273 0.83593-1.7422 2.0312-1.7422h54.793c0.96484 0 1.7461 0.78125 1.7461 1.7461v12.957c0 0.96094-0.78125 1.7461-1.7461 1.7461z"/></g><path d="m385.5 403.11h-54.793c-1.2461 0-2.1524 0.78906-2.1524 1.8711v12.961c0 1.0312 0.83594 1.8711 1.8672 1.8711h55.082c1.0274 0 1.8672-0.83984 1.8672-1.8711v-12.961c0-1.0273-0.83984-1.8711-1.8711-1.8711m0 0.25c0.89843 0 1.6211 0.72656 1.6211 1.6211v12.961c0 0.89453-0.72266 1.6211-1.6172 1.6211h-55.082c-0.89453 0-1.6172-0.72656-1.6172-1.6211v-12.961c0-0.89453 0.72266-1.6211 1.9024-1.6211h54.793" fill="#211e1e"/><path d="m386.05 417.94c0 0.29687-0.24218 0.53906-0.53906 0.53906h-55.082c-0.29687 0-0.53906-0.24219-0.53906-0.53906v-12.961c0-0.29687 0.24219-0.53906 0.82422-0.53906h54.797c0.29688 0 0.53906 0.23828 0.53906 0.53516z" fill="#00664c"/><g fill="#fff"><path d="m340.07 414.16v-5.3984h3.9531v0.96485h-2.9648v1.0039h1.6172v0.98828h-1.6172v1.4766h3.0625v0.96484z"/><path d="m351.02 408.76h0.97265v5.3984h-0.97265z"/><path d="m355.59 409.71v4.4492h-0.94531v-4.4492h-1.5508v-0.94922h4.0508v0.94922z"/><path d="m348.59 414.16-1.2188-1.9102-1.1992 1.9102h-1.1406l1.7695-2.8398-1.6172-2.5586h1.1602l1.0274 1.6484 1.0273-1.6484h1.1641l-1.6016 2.5586 1.7695 2.8398z"/><path d="m366.27 415.51 0.0274-6.0547h-1.0156l-0.0312-1.1641c0.6211-0.14062 0.96094-0.37109 1.2734-0.88281h1.1562v8.1016z"/><path d="m372.58 408.71c-1 0-1.5703 0.28516-1.5703 0.73828 0 0.48438 0.57031 0.76954 1.5703 0.76954 0.99609 0 1.5664-0.28516 1.5664-0.76954 0-0.45312-0.57032-0.73828-1.5664-0.73828m0 2.957c-1.1719 0-1.8281 0.45313-1.8281 1.25 0 0.39844 0.22656 0.79688 0.59765 1.0234 0.23047 0.14063 0.74219 0.22656 1.2305 0.22656 0.68359 0 1.1094-0.0859 1.3945-0.33984 0.28906-0.25781 0.42969-0.57031 0.42969-0.91016 0-0.79687-0.65625-1.25-1.8242-1.25m0 3.9766c-2 0-3.2852-1.0781-3.2852-2.7266 0-0.76953 0.3125-1.4219 0.91407-1.9609-0.51563-0.59766-0.65625-0.9375-0.65625-1.4766 0-1.3359 1.2266-2.2188 3.0273-2.2188 1.8242 0 3.0234 0.88282 3.0234 2.2188 0 0.53907-0.14063 0.87891-0.62891 1.4766 0.60156 0.53906 0.88672 1.1914 0.88672 1.9609 0 1.9336-1.5977 2.7266-3.2812 2.7266"/></g><path d="m386.05 598.7v12.961c0 2.9766-2.4219 5.3984-5.3984 5.3984h-136.08c-2.9766 0-5.4024-2.4219-5.4024-5.3984v-12.961h-0.80859v12.961c0 3.4258 2.7852 6.2109 6.2109 6.2109h136.08c3.4219 0 6.207-2.7852 6.207-6.2109v-12.961z" fill="#211e1e"/><path d="m239.16 598.7v-42.117c0-0.73047 0.14453-1.4375 0.42578-2.1055 0.27344-0.64063 0.66016-1.2188 1.1562-1.7148 0.4961-0.49609 1.0742-0.88671 1.7188-1.1562 0.66407-0.28515 1.3711-0.42578 2.1016-0.42578h136.08c0.73047 0 1.4375 0.14063 2.1016 0.42578 0.64453 0.26954 1.2227 0.66016 1.7188 1.1562 0.4961 0.4961 0.88672 1.0742 1.1562 1.7148 0.28125 0.66797 0.42578 1.375 0.42578 2.1055v42.117z" fill="#00664c"/><g fill="#fff"><path d="m334.36 591.68h-1.8125l-1.332-5.168-1.4805 5.168h-1.8164l-1.3594-8.6406h1.7227l0.75781 4.6523 1.2109-4.6523h1.8125l1.2109 4.6523 0.72656-4.6523h1.7227z"/><path d="m339.93 586.79c-0.45703 0-0.88281 0.30078-1.0625 0.875h2.0625c-0.24218-0.63281-0.51562-0.875-1-0.875m-1.1523 2.2969c0.17969 0.72265 0.69531 1.1445 1.2422 1.1445 0.36328 0 0.69922-0.21094 0.97265-0.57422l1.1836 1.0273c-0.64063 0.75782-1.3047 1.0898-2.1562 1.0898-1.6094 0-3.0039-1.4219-3.0039-3.2617 0-1.8164 1.3633-3.2656 2.9141-3.2656 1.0312 0 1.9727 0.63672 2.4297 1.6328 0.24219 0.57421 0.36328 1.1797 0.36328 1.9648v0.24219z"/><path d="m370.93 591.68v-3.8242c0-0.57421-0.39453-1.0273-1.0625-1.0273-0.60547 0-1.2109 0.48438-1.2109 0.99609v3.8555h-1.7344v-6.3281h1.7344v0.33203c0.57421-0.36328 1.1211-0.48438 1.6992-0.48438 1.3047 0 2.2734 0.90625 2.2734 2.1133v4.3672z"/><path d="m361.28 586.83c-0.66797 0-1.1836 0.72656-1.1836 1.6641 0 0.90625 0.51562 1.6289 1.1836 1.6289 0.63672 0 1.2109-0.72266 1.2109-1.6289 0-0.9375-0.57422-1.6641-1.2109-1.6641m0 4.9258c-1.5781 0-2.9102-1.4492-2.9102-3.2617 0-1.875 1.2695-3.293 2.9102-3.293 1.5156 0 2.9688 1.4805 2.9688 3.293s-1.4258 3.2617-2.9688 3.2617"/><path d="m349.61 591.09c-0.54687 0.45312-1.2812 0.63281-2.2852 0.63281-1.1914 0-1.9531-0.15234-2.8711-0.60547l0.67188-1.5078c0.64062 0.30078 1.4961 0.48438 2.1367 0.48438 0.70312 0 1.1602-0.1211 1.1602-0.36329 0-0.17968-0.15625-0.33203-0.48828-0.39453-0.33593-0.0898-1.0391-0.23828-1.3125-0.33203-1.375-0.39062-1.9844-1.0273-1.9844-1.9922 0-1.1172 1.0078-1.8125 2.5938-1.8125 0.88672 0 1.7383 0.17969 2.7461 0.66407l-0.67187 1.5078c-0.64063-0.33203-1.4336-0.54297-2.0117-0.54297-0.64063 0-0.91797 0.0898-0.91797 0.33203 0 0.24219 0.125 0.30469 1.0391 0.45313 1.832 0.36328 2.7461 1.0312 2.7461 2.207 0 0.54297-0.15235 0.9375-0.55079 1.2695"/><path d="m354.77 586.86v2.3555c0 0.57422 0.12109 0.90625 0.75781 0.84766 0.45703-0.0312 0.54687-0.15235 0.85156-0.45313l-0.45703 1.7812c-0.57422 0.24219-0.51562 0.33203-1.1211 0.33203-1.1836 0-1.7305-0.69531-1.7305-1.9336v-2.9297h-1.1875v-1.4805h1.1875v-1.8398l1.6992-0.66797v2.4766h1.6094v1.5117z"/><path d="m342.74 566.84c0 5.3672-4.3516 9.7227-9.7188 9.7227s-9.7188-4.3555-9.7188-9.7227 4.3516-9.7188 9.7188-9.7188 9.7188 4.3516 9.7188 9.7188"/></g><path d="m328.15 571.7v-7.8789h-0.8789v-1.2266h0.10156c0.40625 0 0.84375-0.23829 1.1172-0.61329h1.2148v9.7188z" fill="#211e1e"/><path d="m335.46 567.47c-0.95703 0-1.7422 0.64843-1.7422 1.3984 0 0.78907 0.78516 1.4336 1.7422 1.4336 0.95313 0 1.7734-0.64453 1.7734-1.4336 0-0.75-0.78516-1.3984-1.7734-1.3984m0 4.4023c-1.875 0-3.3086-1.3633-3.3086-3.1016 0-2.6953 1.5-5.457 3.75-6.9609l0.78515 1.2969c-1.1953 0.92188-1.8086 1.707-2.3867 2.9336 0.54688-0.10156 0.78516-0.10156 1.1602-0.10156 1.8086 0 3.3086 1.3281 3.3086 2.9648 0 1.6719-1.4336 2.9688-3.3086 2.9688" fill="#211e1e"/><g fill="#fff"><path d="m361.06 560.36-0.90625 2.1836h1.8164zm2.0469 4.8633-0.63672-1.5234h-2.8164l-0.64062 1.5234h-1.2695l2.7266-6.4766h1.1836l2.7031 6.4766z"/><path d="m350.84 565.22v-8.0977h5.9336v1.4492h-4.4531v1.5039h2.4258v1.4805h-2.4258v2.2148h4.5938v1.4492z"/><path d="m367.48 562.32c-0.28906-0.0781-1.0156-0.25781-1.2578-0.40234-0.48828-0.28906-0.85937-0.76172-0.85937-1.4648 0-1.0859 0.91015-1.8242 2.2344-1.8242 0.96094 0 1.7617 0.32421 2.4219 1.0156l-0.86719 0.78516c-0.41016-0.4375-0.9375-0.64453-1.5547-0.64453-0.66015 0-1.0508 0.25-1.0508 0.66796 0 0.36719 0.23047 0.52735 1.0312 0.71485 0.86719 0.18359 1.4375 0.36719 1.8008 0.55078 0.57422 0.30078 0.9375 0.92187 0.9375 1.6367 0 0.66797-0.29687 1.1758-0.91406 1.543-0.45703 0.27734-1.0508 0.4414-1.6445 0.4414-1.1172 0-1.9648-0.41797-2.6914-1.2695l0.9336-0.73828c0.48046 0.57813 1.0039 0.83203 1.7344 0.83203 0.82422 0 1.418-0.37109 1.418-0.85547 0-0.61718-0.66016-0.70703-1.6719-0.98828"/><path d="m374.03 559.88v5.3398h-1.1367v-5.3398h-1.8594v-1.1406h4.8555v1.1406z"/><path d="m285.97 565.22v-6.4805h4.7461v1.1602h-3.5586v1.2031h1.9375v1.1836h-1.9375v1.7734h3.6719v1.1602z"/><path d="m294.15 562.32c-0.28906-0.082-1.0156-0.25781-1.2578-0.40234-0.48828-0.29297-0.85937-0.76563-0.85937-1.4688 0-1.082 0.91015-1.8203 2.2344-1.8203 0.96094 0 1.7617 0.32421 2.4219 1.0117l-0.86719 0.78516c-0.41016-0.4375-0.9375-0.64453-1.5547-0.64453-0.66016 0-1.0508 0.25391-1.0508 0.66797 0 0.36719 0.23047 0.53125 1.0312 0.71484 0.86719 0.1836 1.4375 0.36719 1.8008 0.55078 0.57422 0.30078 0.9375 0.92188 0.9375 1.6367 0 0.67188-0.29687 1.1797-0.91406 1.5469-0.45703 0.27734-1.0508 0.4375-1.6445 0.4375-1.1172 0-1.9609-0.41407-2.6953-1.2695l0.9375-0.73438c0.48047 0.57422 1.0039 0.82813 1.7383 0.82813 0.82031 0 1.4141-0.36719 1.4141-0.85157 0-0.61718-0.66016-0.70703-1.6719-0.98828"/><path d="m300.7 559.88v5.3438h-1.1367v-5.3438h-1.8594v-1.1367h4.8594v1.1367z"/><path d="m283.35 565.22h-1.5352l-1.3086-5.4297-1.2812 5.4297h-1.5352l-1.4805-8.1016h1.5078l0.88281 5.2305 1.1953-5.2305h1.4492l1.2539 5.2305 0.82422-5.2305h1.4805z"/><path d="m268.11 566.84c0 5.3672-4.3516 9.7188-9.7188 9.7188-5.3672 0-9.7188-4.3516-9.7188-9.7188 0-5.3711 4.3516-9.7227 9.7188-9.7227 5.3672 0 9.7188 4.3516 9.7188 9.7227"/></g><path d="m253.52 571.7v-7.8789h-0.875v-1.2266h0.0977c0.40625 0 0.84375-0.24219 1.1133-0.61719h1.2188v9.7226z" fill="#211e1e"/><path d="m260.83 567.47c-0.95703 0-1.7422 0.64843-1.7422 1.3984 0 0.78516 0.78515 1.4336 1.7422 1.4336 0.95313 0 1.7734-0.64844 1.7734-1.4336 0-0.75-0.78515-1.3984-1.7734-1.3984m0 4.3984c-1.8789 0-3.3086-1.3633-3.3086-3.1016 0-2.6953 1.5-5.457 3.75-6.957l0.78516 1.2969c-1.1953 0.91797-1.8086 1.7031-2.3867 2.9297 0.54687-0.10156 0.78515-0.10156 1.1602-0.10156 1.8086 0 3.3086 1.332 3.3086 2.9688 0 1.6719-1.4336 2.9648-3.3086 2.9648" fill="#211e1e"/><g fill="#fff"><path d="m254.33 591.68h-1.8164l-1.3281-5.1641-1.4844 5.1641h-1.8125l-1.3633-8.6406h1.7266l0.7539 4.6524 1.2109-4.6524h1.8164l1.207 4.6524 0.72656-4.6524h1.7266z"/><path d="m261.06 589.14c-0.51562-0.18359-1.125-0.27344-1.457-0.27344-0.54687 0-0.97265 0.30078-0.97265 0.69532 0 0.39062 0.51562 0.72265 1.125 0.72265 0.36328 0 0.8164-0.0586 1.3047-0.33203zm0 2.5352v-0.21094c-0.60937 0.24219-1.1836 0.30078-1.6719 0.30078-1.3945 0-2.3984-0.875-2.3984-2.1133 0-1.2969 1.125-2.2656 2.6133-2.2656 0.36328 0 0.94141 0.0625 1.457 0.24219-0.0312-0.60547-0.48828-0.84765-1.125-0.84765-0.60547 0-1.1836 0.15234-1.7891 0.48437l-0.64062-1.3594c0.9414-0.48438 1.582-0.66407 2.4297-0.66407 1.7305 0 2.7617 0.84375 2.7617 2.5977v3.8359z"/><path d="m290.1 589.14c-0.51563-0.18359-1.1211-0.27344-1.457-0.27344-0.54687 0-0.96875 0.30078-0.96875 0.69532 0 0.39062 0.51563 0.72265 1.1211 0.72265 0.36328 0 0.82031-0.0586 1.3047-0.33203zm0 2.5352v-0.21094c-0.60547 0.24219-1.1836 0.30078-1.668 0.30078-1.3984 0-2.3984-0.875-2.3984-2.1133 0-1.2969 1.1211-2.2656 2.6094-2.2656 0.36329 0 0.94141 0.0625 1.457 0.24219-0.0312-0.60547-0.48438-0.84765-1.1211-0.84765-0.60937 0-1.1836 0.15234-1.793 0.48437l-0.63672-1.3594c0.94141-0.48438 1.5781-0.66407 2.4297-0.66407 1.7305 0 2.7617 0.84375 2.7617 2.5977v3.8359z"/><path d="m281.65 591.68v-3.7734c0-0.57813-0.42578-1.0312-1.0039-1.0312-0.60547 0-1.2734 0.45312-1.2734 0.96875v3.8359h-1.7305v-8.0977l1.7305-0.66406v2.8125c0.73047-0.39453 1.1562-0.51563 1.7305-0.51563 1.2461 0 2.2461 0.9375 2.2461 2.1133v4.3516z"/><path d="m266.15 591.68v-8.0977l1.7266-0.66406v8.7617z"/><path d="m303 591.68v-3.8203c0-0.57421-0.51954-1.0273-1.125-1.0273-0.57813 0-1.0938 0.48438-1.0938 0.96484v3.8828h-1.6406v-3.8203c0-0.57421-0.48828-1.0273-1.0938-1.0273-0.60937 0-1.125 0.45313-1.125 0.99609v3.8516h-1.7305v-6.3281h1.7305v0.33203c0.60547-0.36328 1.0312-0.48437 1.6406-0.48437 0.66796 0 1.2148 0.24219 1.6719 0.72656 0.82031-0.57422 1.2148-0.72656 1.9414-0.72656 1.3398 0 2.5234 0.90625 2.5234 2.1172v4.3633z"/><path d="m273.27 586.86v2.3555c0 0.57422 0.125 0.90625 0.76172 0.84375 0.45312-0.0273 0.54687-0.14844 0.85156-0.45313l-0.45703 1.7852c-0.57812 0.23828-0.51562 0.33203-1.125 0.33203-1.1836 0-1.7305-0.69531-1.7305-1.9336v-2.9297h-1.1836v-1.4805h1.1836v-1.8438l1.6992-0.66406v2.4766h1.6133v1.5117z"/><path d="m313.14 595.46h-1.0781v-42.121h1.0781z"/><path d="m330.43 549.98c-0.96094 0-1.7461-0.78125-1.7461-1.7422v-12.961c0-1.0274 0.83593-1.7461 2.0312-1.7461h54.793c0.96484 0 1.7461 0.78125 1.7461 1.7461v12.961c0 0.96094-0.78125 1.7422-1.7461 1.7422z"/></g><path d="m385.5 533.4h-54.793c-1.2461 0-2.1524 0.78516-2.1524 1.8711v12.957c0 1.0312 0.83594 1.8711 1.8672 1.8711h55.082c1.0274 0 1.8672-0.83984 1.8672-1.8711v-12.957c0-1.0312-0.83984-1.8711-1.8711-1.8711m0 0.25c0.89843 0 1.6211 0.72657 1.6211 1.6211v12.957c0 0.89844-0.72266 1.6211-1.6172 1.6211h-55.082c-0.89453 0-1.6172-0.72265-1.6172-1.6211v-12.957c0-0.89453 0.72266-1.6211 1.9024-1.6211h54.793" fill="#211e1e"/><path d="m386.05 548.23c0 0.30078-0.24218 0.54297-0.53906 0.54297h-55.082c-0.29687 0-0.53906-0.24219-0.53906-0.54297v-12.957c0-0.30078 0.24219-0.54297 0.82422-0.54297h54.797c0.29688 0 0.53906 0.24219 0.53906 0.53906z" fill="#00664c"/><g fill="#fff"><path d="m340.07 544.45v-5.4023h3.9531v0.96875h-2.9648v1.0039h1.6172v0.98437h-1.6172v1.4766h3.0625v0.96875z"/><path d="m351.02 539.05h0.97265v5.4023h-0.97265z"/><path d="m355.59 540v4.4531h-0.94531v-4.4531h-1.5508v-0.94922h4.0508v0.94922z"/><path d="m348.59 544.45-1.2188-1.9141-1.1992 1.9141h-1.1406l1.7695-2.8438-1.6172-2.5586h1.1602l1.0274 1.6484 1.0273-1.6484h1.1641l-1.6016 2.5586 1.7695 2.8438z"/><path d="m366.27 545.8 0.0274-6.0547h-1.0156l-0.0312-1.1641c0.6211-0.14062 0.96094-0.36719 1.2734-0.87891h1.1562v8.0977z"/><path d="m372.58 539.01c-1 0-1.5703 0.28125-1.5703 0.73437 0 0.48438 0.57031 0.76953 1.5703 0.76953 0.99609 0 1.5664-0.28515 1.5664-0.76953 0-0.45312-0.57032-0.73437-1.5664-0.73437m0 2.9531c-1.1719 0-1.8281 0.45313-1.8281 1.25 0 0.39844 0.22656 0.79688 0.59765 1.0234 0.23047 0.14063 0.74219 0.23047 1.2305 0.23047 0.68359 0 1.1094-0.0898 1.3945-0.34375 0.28906-0.25781 0.42969-0.56641 0.42969-0.91016 0-0.79687-0.65625-1.25-1.8242-1.25m0 3.9805c-2 0-3.2852-1.082-3.2852-2.7305 0-0.76562 0.3125-1.4219 0.91407-1.9609-0.51563-0.59766-0.65625-0.9375-0.65625-1.4766 0-1.3359 1.2266-2.2188 3.0273-2.2188 1.8242 0 3.0234 0.88282 3.0234 2.2188 0 0.53907-0.14063 0.87891-0.62891 1.4766 0.60156 0.53906 0.88672 1.1953 0.88672 1.9609 0 1.9336-1.5977 2.7305-3.2812 2.7305"/></g><g fill="#211e1e"><path d="m270.54 601.95v4.8594l6.2148-1.6055c0.043-0.0117 0.0859-0.0156 0.1289-0.0156 0.29688 0 0.53906 0.24219 0.53906 0.53907 0 0.15234-0.0586 0.28515-0.15625 0.38281l-8.4844 7.7188-8.4805-7.7188c-0.0977-0.0977-0.15625-0.23047-0.15625-0.38281 0-0.29688 0.24219-0.53907 0.53906-0.53907 0.043 0 0.0859 4e-3 0.12891 0.0156l6.2148 1.6055v-4.8594z"/><path d="m358.18 601.95v4.8594l6.2188-1.6055c0.0391-0.0117 0.082-0.0156 0.12891-0.0156 0.29687 0 0.53906 0.24219 0.53906 0.53907 0 0.15234-0.0625 0.28515-0.16015 0.38281l-8.4805 7.7188-8.4805-7.7188c-0.0977-0.0977-0.16016-0.23047-0.16016-0.38281 0-0.29688 0.24219-0.53907 0.54297-0.53907 0.043 0 0.0859 4e-3 0.125 0.0156l6.2188 1.6055v-4.8594z"/><path d="m329.03 611.12v-6.4805h1.2695v5.2539h3.5312v1.2266z"/><path d="m326.1 611.12-2.8516-4.1484v4.1484h-1.2812v-6.4805h1.2812l2.6953 3.9648v-3.9648h1.2773v6.4805z"/><path d="m317.7 605.84c-0.9336 0-1.4375 0.67969-1.4375 2.0391 0 1.3164 0.52734 2.0625 1.4375 2.0625 0.89062 0 1.4375-0.8164 1.4375-2.082 0-1.4062-0.52735-2.0195-1.4375-2.0195m0 5.3945c-1.9609 0-2.7344-1.6562-2.7344-3.3555 0-2.0391 1.0469-3.3281 2.7344-3.3281 1.5742 0 2.7109 1.3359 2.7109 3.3281 0 2.0625-1.0703 3.3555-2.7109 3.3555"/><path d="m338.16 608.5v2.6289h-1.293v-2.6289l-2.6523-3.8516h1.543l1.7891 2.4922 1.6758-2.4922h1.543z"/><path d="m285.52 611.12v-6.4805h4.707v1.293h-3.4414v1.0625h1.9492v1.293h-1.9492v1.5391h3.5312v1.293z"/><path d="m299.14 604.64h1.2969v6.4805h-1.2969z"/><path d="m305.1 605.93v5.1914h-1.2422v-5.1914h-1.7891v-1.2891h4.7969v1.2891z"/><path d="m295.71 611.12-1.293-2.1758-1.3359 2.1758h-1.4961l2.0391-3.4219-1.8555-3.0586h1.5156l1.1328 1.8359 1.0898-1.8359h1.5391l-1.8359 3.082 2.0156 3.3984z"/></g><path transform="matrix(1 0 0 -1 313.19 189.41)" d="m0-4.5e-4c-7.4648-16.477-10.652-40.973 59.043-40.973" fill="none" stroke="#0f0c0c" stroke-miterlimit="10" stroke-width=".75"/><path d="m318.06 184.9 0.55469-1.1133-4.293-2.1406-0.55469 1.1133-1.5742-0.78516-0.78515 1.5742 3.793 1.8945 3.7891 1.8906 0.78515-1.5781z" fill="#0f0c0c"/><path d="m313.68 187.28c-0.625 0.66016-1.0898 1.0547-1.6523 1.5547l2.3711 1.1797c4e-3 -0.27344 0.0977-1.3594 0.25-2.2539 0.16407-0.95312 0.36719-1.793 0.55078-2.3125-0.30859 0.45703-0.85546 1.125-1.5195 1.832" fill="#0f0c0c"/><path transform="matrix(1 0 0 -1 190.67 356.21)" d="m-5.25e-4 -0.0019375c-17.645-60.574-83.574 73.113-14.926 73.113h6.9766" fill="none" stroke="#0f0c0c" stroke-miterlimit="10" stroke-width=".75"/><path d="m194.34 350.7 0.28906-1.2109-4.6641-1.1172-0.28907 1.2109-1.7109-0.41016-0.41016 1.7109 4.1211 0.98828 4.1172 0.98828 0.41016-1.7148z" fill="#0f0c0c"/><path d="m190.61 354c-0.45703 0.78125-0.82422 1.2734-1.2578 1.8867l2.5742 0.61719c-0.0547-0.26953-0.21093-1.3476-0.26562-2.2539-0.0547-0.96875-0.0469-1.832 0.0156-2.3789-0.19531 0.51562-0.57812 1.2891-1.0664 2.1289" fill="#0f0c0c"/><path transform="matrix(1 0 0 -1 316.54 358.35)" d="m-5.3125e-4 0.0014438c-47.437 0-80.293 45.211-59.648 80.313" fill="none" stroke="#0f0c0c" stroke-miterlimit="10" stroke-width=".75"/><path d="m258.53 276.55c-0.24609 0.87109-0.34375 1.4766-0.48047 2.2148l-2.2344-1.4219c0.23046-0.14844 1.1172-0.78516 1.8008-1.375 0.73828-0.63281 1.3516-1.2422 1.7031-1.6641-0.23437 0.49609-0.52734 1.3125-0.78906 2.2461" fill="#0f0c0c"/><path transform="matrix(1 0 0 -1 281.38 293.57)" d="m-9.9375e-4 -0.0010062c-19.113-39.187 92.527-20.059 118.03-17.055 26.305 3.0977 42.523-1.168 42.523-10.004" fill="none" stroke="#0f0c0c" stroke-miterlimit="10" stroke-width=".75"/><g><path d="m281.97 291.46c-0.65235 0.63281-1.1367 1.0078-1.7188 1.4805l2.3125 1.2891c0.0195-0.27344 0.16015-1.3555 0.35156-2.2422 0.20703-0.94531 0.44922-1.7773 0.65625-2.2852-0.32422 0.4414-0.90235 1.0859-1.6016 1.7578" fill="#0f0c0c"/><path d="m380.65 549.86h-136.08c-3.7109 0-6.7305 3.0195-6.7305 6.7266v55.082c0 3.7109 3.0195 6.7305 6.7305 6.7305h136.08c3.7109 0 6.7266-3.0195 6.7266-6.7305v-55.082c0-3.707-3.0156-6.7266-6.7266-6.7266m0 0.25c3.5742 0 6.4766 2.8984 6.4766 6.4766v55.082c0 3.5781-2.9023 6.4805-6.4766 6.4805h-136.08c-3.5781 0-6.4805-2.9023-6.4805-6.4805v-55.082c0-3.5781 2.9023-6.4766 6.4805-6.4766h136.08" fill="#211e1e"/><path d="m325.03 390.8c-3.6406 0-6.6055-2.9609-6.6055-6.6055v-55.078c0-3.6445 2.9648-6.6055 6.6055-6.6055h64.801c3.6406 0 6.6055 2.9609 6.6055 6.6055v55.078c0 3.6445-2.9648 6.6055-6.6055 6.6055z" fill="#fff"/><path d="m389.83 322.39h-64.801c-3.7109 0-6.7305 3.0195-6.7305 6.7305v55.078c0 3.7109 3.0195 6.7305 6.7305 6.7305h64.801c3.7109 0 6.7305-3.0195 6.7305-6.7305v-55.078c0-3.7109-3.0195-6.7305-6.7305-6.7305m0 0.25c3.5781 0 6.4805 2.9024 6.4805 6.4805v55.078c0 3.5781-2.9023 6.4805-6.4805 6.4805h-64.801c-3.5781 0-6.4805-2.9024-6.4805-6.4805v-55.078c0-3.5781 2.9024-6.4805 6.4805-6.4805h64.801" fill="#211e1e"/><path d="m395.23 384.2c0 0.73047-0.14062 1.4375-0.42187 2.1016-0.27344 0.64453-0.66407 1.2227-1.1602 1.7188s-1.0703 0.88281-1.7148 1.1562c-0.66797 0.28125-1.375 0.42578-2.1016 0.42578h-64.801c-0.73047 0-1.4375-0.14453-2.1016-0.42578-0.64062-0.27344-1.2188-0.66016-1.7188-1.1562-0.49609-0.49609-0.88281-1.0742-1.1562-1.7188-0.28125-0.66406-0.42187-1.3711-0.42187-2.1016v-55.078c0-0.73047 0.14062-1.4375 0.42187-2.1016 0.27344-0.64453 0.66016-1.2227 1.1562-1.7188 0.5-0.49609 1.0781-0.88281 1.7188-1.1562 0.66406-0.28125 1.3711-0.42578 2.1016-0.42578h64.801c0.72657 0 1.4336 0.14453 2.1016 0.42578 0.64453 0.27344 1.2188 0.66016 1.7148 1.1562s0.88672 1.0742 1.1602 1.7188c0.28125 0.66406 0.42187 1.3711 0.42187 2.1016z" fill="#00664c"/></g><g fill="#fff"><path d="m367.78 337.22v-6.4805h4.7461v1.1602h-3.5586v1.207h1.9375v1.1836h-1.9375v1.7695h3.6719v1.1602z"/><path d="m375.96 334.32c-0.28906-0.082-1.0156-0.25782-1.2617-0.40235-0.48437-0.28906-0.85937-0.76562-0.85937-1.4648 0-1.0859 0.91406-1.8242 2.2383-1.8242 0.96094 0 1.7578 0.32422 2.4219 1.0156l-0.86719 0.78516c-0.41016-0.44141-0.9375-0.64844-1.5547-0.64844-0.66406 0-1.0508 0.25391-1.0508 0.67188 0 0.36719 0.23047 0.52734 1.0273 0.71094 0.8711 0.1875 1.4375 0.37109 1.8047 0.55468 0.57031 0.30078 0.9375 0.92188 0.9375 1.6367 0 0.66797-0.29687 1.1758-0.91406 1.543-0.45703 0.27734-1.0508 0.4375-1.6445 0.4375-1.1172 0-1.9648-0.41406-2.6953-1.2656l0.9375-0.73829c0.48047 0.57813 1.0039 0.83204 1.7344 0.83204 0.82422 0 1.418-0.3711 1.418-0.85547 0-0.61719-0.66406-0.70313-1.6719-0.98828"/><path d="m382.51 331.88v5.3398h-1.1367v-5.3398h-1.8633v-1.1406h4.8594v1.1406z"/><path d="m365.16 337.22h-1.5352l-1.3125-5.4258-1.2774 5.4258h-1.5352l-1.4805-8.0977h1.5078l0.87891 5.2266 1.1953-5.2266h1.4531l1.25 5.2266 0.82813-5.2266h1.4766z"/><path d="m349.92 338.84c0 5.3672-4.3516 9.7188-9.7188 9.7188-5.3711 0-9.7188-4.3516-9.7188-9.7188 0-5.3672 4.3477-9.7188 9.7188-9.7188 5.3672 0 9.7188 4.3516 9.7188 9.7188"/></g><path d="m335.34 343.7v-7.8789h-0.87891v-1.2266h0.10156c0.40625 0 0.84375-0.23828 1.1133-0.61328h1.2148v9.7188z" fill="#211e1e"/><path d="m342.64 339.47c-0.95703 0-1.7422 0.64843-1.7422 1.3984 0 0.78125 0.78515 1.4297 1.7422 1.4297 0.95313 0 1.7695-0.64844 1.7695-1.4297 0-0.75-0.78125-1.3984-1.7695-1.3984m0 4.3984c-1.8789 0-3.3125-1.3633-3.3125-3.1055 0-2.6914 1.5039-5.457 3.7539-6.957l0.78516 1.2969c-1.1953 0.92187-1.8086 1.707-2.3867 2.9336 0.54297-0.10156 0.78515-0.10156 1.1602-0.10156 1.8047 0 3.3086 1.3281 3.3086 2.9648 0 1.6719-1.4336 2.9688-3.3086 2.9688" fill="#211e1e"/><g fill="#fff"><path d="m336.14 363.68h-1.8164l-1.332-5.168-1.4805 5.168h-1.8125l-1.3633-8.6406h1.7266l0.7539 4.6524 1.2109-4.6524h1.8125l1.2109 4.6524 0.72656-4.6524h1.7227z"/><path d="m342.87 361.14c-0.51563-0.17968-1.1211-0.26953-1.457-0.26953-0.54688 0-0.96875 0.30078-0.96875 0.69141 0 0.39453 0.51562 0.72656 1.1211 0.72656 0.36719 0 0.82031-0.0586 1.3047-0.33203zm0 2.5391v-0.21485c-0.60547 0.24219-1.1836 0.30469-1.668 0.30469-1.3945 0-2.3984-0.875-2.3984-2.1133 0-1.3008 1.125-2.2695 2.6094-2.2695 0.36328 0 0.9414 0.0625 1.457 0.24219-0.0274-0.60157-0.48438-0.84375-1.1211-0.84375-0.60937 0-1.1836 0.15234-1.793 0.48437l-0.63671-1.3594c0.9414-0.48438 1.5781-0.66797 2.4297-0.66797 1.7305 0 2.7617 0.84765 2.7617 2.5976v3.8398z"/><path d="m371.91 361.14c-0.51563-0.17968-1.125-0.26953-1.457-0.26953-0.54687 0-0.97265 0.30078-0.97265 0.69141 0 0.39453 0.51562 0.72656 1.125 0.72656 0.36328 0 0.82031-0.0586 1.3047-0.33203zm0 2.5391v-0.21485c-0.60547 0.24219-1.1836 0.30469-1.6719 0.30469-1.3945 0-2.3945-0.875-2.3945-2.1133 0-1.3008 1.1211-2.2695 2.6094-2.2695 0.36329 0 0.94141 0.0625 1.457 0.24219-0.0312-0.60157-0.48438-0.84375-1.125-0.84375-0.60547 0-1.1836 0.15234-1.7891 0.48437l-0.63672-1.3594c0.94141-0.48438 1.5781-0.66797 2.4258-0.66797 1.7305 0 2.7656 0.84765 2.7656 2.5976v3.8398z"/><path d="m363.46 363.68v-3.7774c0-0.57422-0.42578-1.0273-1.0039-1.0273-0.60547 0-1.2734 0.45312-1.2734 0.96484v3.8398h-1.7305v-8.0977l1.7305-0.66406v2.8086c0.72656-0.39062 1.1523-0.51172 1.7305-0.51172 1.2422 0 2.2461 0.9336 2.2461 2.1133v4.3516z"/><path d="m347.96 363.68v-8.0977l1.7266-0.66406v8.7617z"/><path d="m384.81 363.68v-3.8242c0-0.57422-0.51563-1.0274-1.1211-1.0274-0.57813 0-1.0977 0.48438-1.0977 0.96875v3.8828h-1.6367v-3.8242c0-0.57422-0.48828-1.0274-1.0977-1.0274-0.60546 0-1.1211 0.45313-1.1211 1v3.8516h-1.7344v-6.3281h1.7344v0.33203c0.60547-0.36328 1.0312-0.48437 1.6367-0.48437 0.67187 0 1.2188 0.24219 1.6719 0.72265 0.82422-0.57031 1.2148-0.72265 1.9453-0.72265 1.3398 0 2.5234 0.90625 2.5234 2.1133v4.3672z"/><path d="m355.08 358.86v2.3555c0 0.57422 0.12109 0.90625 0.76172 0.84766 0.45312-0.0312 0.54687-0.15234 0.84766-0.45313l-0.45704 1.7812c-0.57421 0.24219-0.51562 0.33204-1.1211 0.33204-1.1836 0-1.7305-0.69532-1.7305-1.9336v-2.9297h-1.1875v-1.4805h1.1875v-1.8438l1.6992-0.66407v2.4805h1.6094v1.5078z"/><path d="m351.79 380.57c-4e-3 -4e-3 -8e-3 -0.0117-0.0117-0.0156-0.0195-0.0391-0.0312-0.0742-0.043-0.11328-4e-3 0-4e-3 -8e-3 -8e-3 -8e-3h4e-3c-4e-3 -0.0117-8e-3 -0.0273-8e-3 -0.0391l-0.0195-0.12891-1.8047-9.2969-0.0234-0.17969c-0.0274-0.17578 0.0312-0.34765 0.14843-0.46094 0.13282-0.13671 0.30469-0.19531 0.47266-0.16015l0.11719 0.0234 9.3281 1.8203 0.16406 0.0273c0.10938 0.0234 0.19141 0.0742 0.27344 0.15625 0.20703 0.20703 0.21875 0.54688 0 0.76563-0.0234 0.0234-0.0664 0.0469-0.0976 0.0664l-0.10157 0.0547-3.3203 2.0391 8.1211 7.4531-2.7148 2.7148-7.457-8.0976v-0.0195l-2.0078 3.2695-0.082 0.12109c-0.0274 0.0391-0.0508 0.082-0.0859 0.11328-0.20703 0.21094-0.55469 0.21094-0.76172 4e-3 -0.0352-0.0352-0.0625-0.0703-0.082-0.10938"/></g></g></svg>
