<?xml version="1.0" encoding="UTF-8"?>
<svg width="215.94pt" height="324.14pt" version="1.2" viewBox="0 0 215.94 324.14" xmlns="http://www.w3.org/2000/svg" xmlns:xlink="http://www.w3.org/1999/xlink"><defs><symbol id="d" overflow="visible"><path d="m3.1719-0.75c0.30078 0 0.54688-0.03125 0.73438-0.09375 0.34375-0.11328 0.625-0.33203 0.84375-0.65625 0.16406-0.25781 0.28906-0.59375 0.375-1 0.039063-0.23828 0.0625-0.46094 0.0625-0.67188 0-0.80078-0.16406-1.4219-0.48438-1.8594-0.3125-0.44531-0.82422-0.67188-1.5312-0.67188h-1.5625v4.9531zm-2.4375-5.7031h2.6094c0.89453 0 1.5859 0.3125 2.0781 0.9375 0.4375 0.57422 0.65625 1.3047 0.65625 2.1875 0 0.6875-0.13281 1.3086-0.39062 1.8594-0.44922 0.98047-1.2305 1.4688-2.3438 1.4688h-2.6094z"/></symbol><symbol id="c" overflow="visible"><path d="m0.85938-4.4531v-0.60938c0.57031-0.050781 0.97266-0.14062 1.2031-0.26562 0.22656-0.13281 0.39844-0.44531 0.51562-0.9375h0.625v6.2656h-0.85938v-4.4531z"/></symbol><symbol id="b" overflow="visible"><path d="m2.4375-6.2969c0.82031 0 1.4141 0.33984 1.7812 1.0156 0.28125 0.51172 0.42188 1.2188 0.42188 2.125 0 0.85547-0.13281 1.5625-0.39062 2.125-0.36719 0.80469-0.96875 1.2031-1.8125 1.2031-0.76172 0-1.3242-0.32812-1.6875-0.98438-0.3125-0.55078-0.46875-1.2852-0.46875-2.2031 0-0.71875 0.09375-1.332 0.28125-1.8438 0.34375-0.95703 0.96875-1.4375 1.875-1.4375zm0 5.75c0.40625 0 0.72656-0.17969 0.96875-0.54688 0.25-0.36328 0.375-1.0391 0.375-2.0312 0-0.71875-0.089844-1.3047-0.26562-1.7656-0.17969-0.45703-0.52344-0.6875-1.0312-0.6875-0.46094 0-0.79688 0.21875-1.0156 0.65625s-0.32812 1.0859-0.32812 1.9375c0 0.63672 0.066406 1.1523 0.20312 1.5469 0.21875 0.59375 0.58203 0.89062 1.0938 0.89062z"/></symbol><symbol id="a" overflow="visible"><path d="m0.375-2.9062h2.2188v0.8125h-2.2188z"/></symbol><symbol id="f" overflow="visible"><path d="m2.9844-2.2344v-2.8438l-2.0156 2.8438zm0.015625 2.2344v-1.5312h-2.7656v-0.78125l2.8906-4h0.67188v4.0781h0.92188v0.70312h-0.92188v1.5312z"/></symbol><symbol id="e" overflow="visible"><path d="m1.1094-1.6094c0.050781 0.46094 0.26562 0.77344 0.64062 0.9375 0.1875 0.09375 0.40625 0.14062 0.65625 0.14062 0.46875 0 0.8125-0.14844 1.0312-0.45312 0.22656-0.30078 0.34375-0.63281 0.34375-1 0-0.4375-0.13672-0.77344-0.40625-1.0156-0.26172-0.23828-0.58594-0.35938-0.96875-0.35938-0.27344 0-0.50781 0.054687-0.70312 0.15625-0.1875 0.10547-0.35547 0.25-0.5 0.4375l-0.6875-0.03125 0.48438-3.3906h3.2812v0.76562h-2.6875l-0.26562 1.75c0.14453-0.11328 0.28516-0.19531 0.42188-0.25 0.22656-0.09375 0.5-0.14062 0.8125-0.14062 0.58203 0 1.0703 0.1875 1.4688 0.5625 0.40625 0.36719 0.60938 0.83594 0.60938 1.4062 0 0.59375-0.1875 1.1211-0.5625 1.5781-0.36719 0.44922-0.95312 0.67188-1.7656 0.67188-0.51172 0-0.96484-0.14062-1.3594-0.42188-0.39844-0.28906-0.61719-0.73828-0.65625-1.3438z"/></symbol></defs><g><path d="m68.523 160.61h-2.5977v17.398h-2.5234v-17.398h-2.4531v-2.5938h7.5742z" fill="#fff" fill-rule="evenodd"/><g transform="translate(-211.97 -90.039)" fill="#211e1e"><use x="245.267" y="414.00391" width="100%" height="100%" xlink:href="#d"/><use x="251.78348" y="414.00391" width="100%" height="100%" xlink:href="#c"/><use x="256.80173" y="414.00391" width="100%" height="100%" xlink:href="#b"/><use x="261.81995" y="414.00391" width="100%" height="100%" xlink:href="#a"/><use x="264.82547" y="414.00391" width="100%" height="100%" xlink:href="#f"/></g><g><path d="m8.0273 310.48c-4.3555 0-7.9023-3.5469-7.9023-7.9023v-264.38c0-4.3594 3.5469-7.9023 7.9023-7.9023h77.762c4.3555 0 7.8984 3.543 7.8984 7.9023v264.38c0 4.3555-3.543 7.9023-7.8984 7.9023z" fill="#fff"/><path d="m85.789 30.164h-77.762c-4.4258 0-8.0273 3.5976-8.0273 8.0273v264.38c0 4.4258 3.6016 8.0234 8.0273 8.0234h77.762c4.4258 0 8.0234-3.5977 8.0234-8.0234v-264.38c0-4.4297-3.5977-8.0273-8.0234-8.0273m0 0.25c4.293 0 7.7734 3.4805 7.7734 7.7773v264.38c0 4.293-3.4805 7.7734-7.7734 7.7734h-77.762c-4.2969 0-7.7773-3.4805-7.7773-7.7734v-264.38c0-4.2969 3.4805-7.7773 7.7773-7.7773h77.762" fill="#211e1e"/><path d="m8.0273 307.76c-2.8594 0-5.1836-2.3242-5.1836-5.1836v-264.38c0-2.8594 2.3242-5.1875 5.1836-5.1875h77.762c2.8555 0 5.1836 2.3281 5.1836 5.1875v264.38c0 2.8594-2.3281 5.1836-5.1836 5.1836z" fill="#00664c"/></g></g><g fill="#fff"><path d="m39.461 82.254v-31.105h11.395v4.0391h-7.4883v7.9688h4.9922v4.1445h-4.9922v10.914h7.9219v4.0391z"/><path d="m66.25 68.828c0.89844 1.9297 1.5312 4.5859 1.5312 6.7695 0 2.1797-0.98438 4.4726-2.5117 5.7852-0.98437 0.8711-2.375 1.418-4.0156 1.418-4.3711 0-6.6367-2.8398-6.8555-8.2969h4.043c0 1.1992 0.10937 1.6367 0.32812 2.293 0.32813 1.1992 1.2812 1.9648 2.4844 1.9648 1.5273 0 2.4844-1.1992 2.4844-3.1641 0-2.7305-0.95703-5.0234-3.3594-7.8594-1.418-1.6367-2.375-2.8359-2.7031-3.2734-1.7461-2.0742-2.5117-4.2578-2.5117-6.4414 0-4.2539 2.5938-7.3086 6.3086-7.3086 3.8242 0 5.8711 2.3984 6.3086 7.3086h-4.043c-0.10937-2.3984-0.73828-3.3828-2.1562-3.3828-1.5312 0-2.375 1.3125-2.375 3.3828 0 1.4219 0.51953 2.5117 2.1562 4.2578 3.3867 3.8203 3.9609 4.5586 4.8867 6.5469"/><path d="m78.035 55.187v27.066h-3.9219v-27.066h-3.8438v-4.0391h11.828v4.0391z"/><path d="m30.695 82.254h-3.9688l-3.457-20.371-3.3281 20.371h-3.9688l-4.2539-36.289h4.7344l1.9531 16.809 2.9453-16.809h3.9688l2.9414 16.809 1.9531-16.809h4.7344z"/><path d="m46.906 170.38c-3.0039-3.6133-7.5234-5.8164-12.219-5.8164h-2.8867c-10.199 0-18.516-8.3438-18.516-18.57 0-6.3242 4.0234-10.965 4.0234-17.504 0-4.4453-1.5039-9.0586-4.0976-12.582l13.344-12.863c2.7461 2.3281 6.4375 3.8008 10.102 3.8008 3.7227 0 7.5039-1.4102 10.25-3.8594 2.7461 2.4492 6.5312 3.8594 10.254 3.8594 3.6602 0 7.3555-1.4727 10.102-3.8008l13.34 12.863c-2.5898 3.5234-4.0976 8.1367-4.0976 12.582 0 6.5391 4.0273 11.18 4.0273 17.504 0 10.227-8.3203 18.57-18.516 18.57h-2.8867c-4.6992 0-9.2148 2.2031-12.223 5.8164"/></g><path d="m30.562 152.92v-27.309h-3.043v-4.2578h0.35156c1.4024 0 2.9258-0.82812 3.8594-2.1289h4.2148v33.695z" fill="#211e1e"/><path d="m60.973 137.14c-4.5352 2.8203-8.7109 4.0703-11.23 10.336h16.551v5.4375h-22.938c0.12109-3.9023 0.93359-7.1016 2.8398-10.285 5.9102-9.8828 14.777-8.7891 14.777-14.07 0-2.4805-2.8359-4.4922-6.1484-4.4922-3.4258 0-5.5547 1.6562-6.1484 4.7305l-5.3203-1.1836c1.1836-5.5547 5.5586-8.9844 11.469-8.9844 6.3867 0 11.469 4.4922 11.469 10.047 0 4.0312-2.3164 6.5977-5.3203 8.4648" fill="#211e1e"/><g fill="#fff"><path d="m68.375 222.22v-31.105h14.668v4.3672h-10.18v7.8555h6.457v4.2578h-6.457v10.258h11.383v4.3672z"/><path d="m36.953 191.12h4.3555v31.105h-4.3555z"/><path d="m48.152 222.22v-31.105h4.4883v26.957h11.383v4.1484z"/><path d="m25.629 222.22v-17.465l-5.7891 17.465-5.793-17.465v17.465h-4.4805v-31.105h4.4805l5.793 17.461 5.7891-17.461h4.4805v31.105z"/><path d="m27.871 262.46c-2.4766 3.9297-4.8789 8.293-6.1914 11.496-0.72657 1.5976-1.0195 3.0547-1.1641 5.0938h11.145v5.3828h-17.117c0.14844-10.188 2.1133-16.008 8.8125-24.883 2.7695-3.7852 3.6406-5.6758 3.6406-7.7148 0-2.7617-1.2383-4.3633-3.4219-4.3633-2.0391 0-3.4961 1.4531-3.6406 3.4922h-5.3906c0.29297-5.0938 3.9336-8.7305 9.0312-8.7305 5.2422 0 8.8125 3.9297 8.8125 9.6016 0 3.2031-0.72656 5.0938-4.5156 10.625"/><path d="m47.297 278.17c0.50782-0.98828 0.8711-3.9297 0.8711-6.5469 0-4.3672-1.1992-6.4023-3.5234-6.4023-2.4727 0-3.5625 2.1836-3.5625 7.1289 0 3.0547 0.29297 5.0938 1.1641 6.1133 0.58203 0.72656 1.5274 1.3086 2.3984 1.3086 1.1641 0 2.1172-0.55859 2.6523-1.6016m2.9062 4.9492c-1.4531 1.3086-3.5234 2.0352-5.7031 2.0352-5.6719 0-8.793-4.3633-8.793-12.367 0-12.371 5.0469-22.699 14.934-30.559l2.9062 4.5117c-4.6523 3.7812-7.7383 7.8555-9.918 13.242 3.1953-1.0195 5.9961 0.28906 7.5938 2.9102 1.3086 2.0352 2.3242 5.6719 2.3242 9.457 0 4.9492-1.1602 8.875-3.3438 10.77"/><path d="m69.801 247.61c-4.8047 0-4.2227 13.098-4.2227 16.008 0 2.9102-0.58203 16.008 4.2227 16.008 4.6562 0 3.9297-12.953 3.9297-16.008 0-2.9102 0.875-16.008-3.9297-16.008m0 37.398c-10.332 0-9.6055-14.406-9.6055-21.391 0-7.2774 0-21.391 9.6055-21.391 10.184 0 9.4609 14.113 9.4609 21.391-0.14844 6.9844 0.72265 21.391-9.4609 21.391"/></g><g><g transform="translate(-211.97 -90.039)" fill="#211e1e"><use x="370.39639" y="414.00391" width="100%" height="100%" xlink:href="#d"/><use x="376.91287" y="414.00391" width="100%" height="100%" xlink:href="#c"/><use x="381.93112" y="414.00391" width="100%" height="100%" xlink:href="#b"/><use x="386.94934" y="414.00391" width="100%" height="100%" xlink:href="#a"/><use x="389.95486" y="414.00391" width="100%" height="100%" xlink:href="#e"/></g><g><path d="m130.16 311.41c-4.3555 0-7.9023-3.543-7.9023-7.8984v-295.49c0-4.3555 3.5469-7.8984 7.9023-7.8984h77.758c4.3555 0 7.9024 3.543 7.9024 7.8984v295.49c0 4.3555-3.5469 7.8984-7.9024 7.8984z" fill="#fff"/><path d="m207.91 0h-77.758c-4.4258 0-8.0273 3.6016-8.0273 8.0273v295.48c0 4.4297 3.6016 8.0273 8.0273 8.0273h77.758c4.4258 0 8.0274-3.5976 8.0274-8.0273v-295.48c0-4.4258-3.6016-8.0273-8.0274-8.0273m0 0.25c4.2969 0 7.7774 3.4805 7.7774 7.7773v295.48c0 4.2969-3.4805 7.7773-7.7774 7.7773h-77.758c-4.2969 0-7.7773-3.4805-7.7773-7.7773v-295.48c0-4.2969 3.4805-7.7773 7.7773-7.7773h77.758" fill="#211e1e"/><path d="m130.16 308.7c-2.8594 0-5.1875-2.3242-5.1875-5.1836v-295.49c0-2.8555 2.3281-5.1836 5.1875-5.1836h77.758c2.8594 0 5.1836 2.3281 5.1836 5.1836v295.49c0 2.8594-2.3242 5.1836-5.1836 5.1836z" fill="#00664c"/></g></g><g fill="#fff"><path d="m214.23 246.49h-90.398v-2.5898h90.398z"/><path d="m161.59 49.496v-31.102h11.395v4.0352h-7.4883v7.9688h4.9883v4.1484h-4.9883v10.914h7.918v4.0352z"/><path d="m188.38 36.074c0.89843 1.9258 1.5312 4.582 1.5312 6.7656 0 2.1836-0.98438 4.4766-2.5117 5.7852-0.98438 0.875-2.3789 1.418-4.0156 1.418-4.3711 0-6.6367-2.8359-6.8555-8.293h4.0391c0 1.1992 0.11328 1.6367 0.33203 2.293 0.32422 1.1992 1.2812 1.9609 2.4844 1.9609 1.5274 0 2.4844-1.1992 2.4844-3.1641 0-2.7266-0.95703-5.0195-3.3594-7.8594-1.4219-1.6367-2.375-2.8359-2.7031-3.2734-1.75-2.0703-2.5156-4.2539-2.5156-6.4375 0-4.2578 2.5977-7.3125 6.3125-7.3125 3.8242 0 5.8711 2.4024 6.3086 7.3125h-4.043c-0.10938-2.4023-0.73828-3.3828-2.1602-3.3828-1.5273 0-2.375 1.3086-2.375 3.3828 0 1.418 0.51953 2.5117 2.1602 4.2578 3.3828 3.8164 3.9609 4.5547 4.8867 6.5469"/><path d="m200.16 22.43v27.066h-3.9258v-27.066h-3.8398v-4.0352h11.828v4.0352z"/><path d="m152.82 49.496h-3.9648l-3.457-20.371-3.3281 20.371h-3.9688l-4.2578-36.285h4.7383l1.9531 16.805 2.9414-16.805h3.9688l2.9453 16.805 1.9531-16.805h4.7344z"/><path d="m169.04 131.14c-3.0078-3.6094-7.5234-5.8125-12.223-5.8125h-2.8828c-10.199 0-18.516-8.3438-18.516-18.574 0-6.3203 4.0234-10.965 4.0234-17.5 0-4.4492-1.5078-9.0586-4.0977-12.582l13.34-12.863c2.75 2.3242 6.4414 3.7969 10.102 3.7969 3.7266 0 7.5078-1.4062 10.254-3.8555 2.7461 2.4492 6.5273 3.8555 10.254 3.8555 3.6602 0 7.3516-1.4727 10.102-3.7969l13.34 12.863c-2.5898 3.5234-4.0977 8.1328-4.0977 12.582 0 6.5352 4.0234 11.18 4.0234 17.5 0 10.23-8.3164 18.574-18.516 18.574h-2.8828c-4.6992 0-9.2148 2.2031-12.223 5.8125"/></g><path d="m152.69 113.68v-27.313h-3.0391v-4.2539h0.35156c1.4023 0 2.9219-0.82813 3.8594-2.1289h4.2109v33.695z" fill="#211e1e"/><path d="m183.1 97.91c-4.5391 2.8203-8.7109 4.0664-11.23 10.336h16.551v5.4375h-22.938c0.11719-3.9024 0.9336-7.1016 2.8398-10.285 5.9102-9.8828 14.777-8.793 14.777-14.07 0-2.4844-2.8359-4.4922-6.1484-4.4922-3.4297 0-5.5547 1.6562-6.1484 4.7305l-5.3203-1.1836c1.1836-5.5586 5.5586-8.9844 11.469-8.9844 6.3867 0 11.469 4.4922 11.469 10.047 0 4.0312-2.3164 6.5938-5.3203 8.4648" fill="#211e1e"/><g fill="#fff"><path d="m190.5 176.53v-31.105h14.668v4.3672h-10.18v7.8555h6.457v4.2578h-6.457v10.258h11.383v4.3672z"/><path d="m159.08 145.43h4.3555v31.105h-4.3555z"/><path d="m170.28 176.53v-31.105h4.4883v26.957h11.383v4.1484z"/><path d="m147.76 176.53v-17.465l-5.793 17.465-5.7891-17.465v17.465h-4.4805v-31.105h4.4805l5.7891 17.461 5.793-17.461h4.4805v31.105z"/><path d="m150 211.55c-2.4766 3.9297-4.8828 8.2969-6.1914 11.496-0.73047 1.6016-1.0195 3.0586-1.1641 5.0938h11.141v5.3867h-17.113c0.14454-10.188 2.1133-16.008 8.8125-24.883 2.7656-3.7852 3.6406-5.6758 3.6406-7.7148 0-2.7656-1.2383-4.3633-3.4219-4.3633-2.0391 0-3.4961 1.4531-3.6406 3.4922h-5.3906c0.29297-5.0938 3.9336-8.7344 9.0312-8.7344 5.2422 0 8.8125 3.9297 8.8125 9.6055 0 3.2031-0.73046 5.0938-4.5156 10.621"/><path d="m169.43 227.27c0.50781-0.98828 0.87109-3.9297 0.87109-6.5508 0-4.3633-1.1992-6.4024-3.5234-6.4024-2.4727 0-3.5625 2.1836-3.5625 7.1328 0 3.0547 0.28906 5.0898 1.1641 6.1094 0.58203 0.73047 1.5273 1.3125 2.3984 1.3125 1.1641 0 2.1172-0.55859 2.6523-1.6016m2.9062 4.9453c-1.4531 1.3125-3.5234 2.0391-5.707 2.0391-5.668 0-8.793-4.3672-8.793-12.371 0-12.367 5.0508-22.699 14.938-30.555l2.9062 4.5078c-4.6523 3.7852-7.7383 7.8594-9.9219 13.242 3.1992-1.0195 5.9961 0.29297 7.5976 2.9102 1.3047 2.0391 2.3242 5.6758 2.3242 9.4609 0 4.9453-1.1641 8.875-3.3438 10.766"/><path d="m191.93 196.71c-4.8047 0-4.2227 13.098-4.2227 16.008 0 2.9062-0.58203 16.004 4.2227 16.004 4.6523 0 3.9297-12.949 3.9297-16.004 0-2.9102 0.8711-16.008-3.9297-16.008m0 37.398c-10.332 0-9.6055-14.406-9.6055-21.391 0-7.2774 0-21.395 9.6055-21.395 10.184 0 9.457 14.117 9.457 21.395-0.14453 6.9844 0.72656 21.391-9.457 21.391"/><path d="m146.63 295.42c0-1.7461 1.5938-3.3477 3.3203-3.3477 1.7266 0 3.3164 1.6016 3.3164 3.3477 0 1.7461-1.5859 3.3438-3.3164 3.3438-1.7266 0-3.3203-1.5977-3.3203-3.3438"/><path d="m164.72 289.32c-0.32032 0.85937-0.71485 2.293-0.87891 3.1992h16.805v5.8203h-23.23c0.28906-5.6758 0.73047-7.707 2.0469-11.348 1.7539-4.3633 3.9414-7.7148 6.7188-10.332 1.0195-0.87109 1.9024-1.6016 5.2617-3.9297 2.7812-1.8906 3.5039-2.9141 3.5039-4.9492 0-3.2266-2.6172-5.8438-5.8398-5.8438-3.2266 0-5.8438 2.6172-5.8438 5.8438h-5.8476c0.14453-6.5508 5.1172-11.633 11.691-11.633 6.4258 0 11.543 5.2383 11.543 11.641 0 6.6094-3.9609 8.5859-9.1445 12.211-2.6484 1.8476-5.25 5.1328-6.7852 9.3203"/></g></svg>
