<?xml version="1.0" encoding="UTF-8"?>
<svg width="553.04" height="122.03" version="1.1" viewBox="0 0 553.04 122.03" xml:space="preserve" xmlns="http://www.w3.org/2000/svg"><defs><clipPath id="g"><path d="m27.125 32h512.88v120h-512.88z"/></clipPath><clipPath id="f"><path d="m27.125 32h512.88v120h-512.88z"/></clipPath><clipPath id="e"><path d="m76.172 42.445h414.78v109.56h-414.78z"/></clipPath><clipPath id="d"><path d="m27.125 32h512.88v120h-512.88z"/></clipPath><clipPath id="c"><path d="m27.125 32h512.88v120h-512.88z"/></clipPath><clipPath id="b"><path d="m76.172 42.445h414.78v109.56h-414.78z"/></clipPath><clipPath id="a"><path d="m27.125 32h512.88v120h-512.88z"/></clipPath></defs><g transform="matrix(1.3333 0 0 -1.3333 -101.56 181.17)"><text transform="matrix(1 0 0 -1 333.8 44.47)" fill="#000000" font-family="Helvetica" font-size="9px"><tspan x="0 6.4980001 11.502 14.499 19.503 24.507" y="0">R3-29P</tspan></text><g clip-path="url(#g)"><g transform="translate(374.87 60.283)"><path d="m0 0c0-0.647-0.527-1.173-1.174-1.173h-49.289c-0.648 0-1.173 0.526-1.173 1.173v35.208c0 0.646 0.525 1.174 1.173 1.174h49.289c0.647 0 1.174-0.528 1.174-1.174zm-1.174 37.848h-49.289c-1.455 0-2.64-1.184-2.64-2.64v-35.208c0-1.456 1.185-2.64 2.64-2.64h49.289c1.456 0 2.641 1.184 2.641 2.64v35.208c0 1.456-1.185 2.64-2.641 2.64"/></g><g transform="translate(377.21 60.283)"><path d="m0 0c0-1.942-1.574-3.52-3.52-3.52h-49.289c-1.945 0-3.521 1.578-3.521 3.52v35.208c0 1.943 1.576 3.519 3.521 3.519h49.289c1.946 0 3.52-1.576 3.52-3.519z" fill="none" stroke="#000" stroke-width=".5"/></g><g transform="translate(343.92 88.114)"><path d="m0 0c0 0.82-0.32 1.277-0.967 1.369h-1.664v-2.721h1.664c0.647 0.031 0.967 0.481 0.967 1.352m1.314 0c0-1.1-0.388-1.871-1.164-2.316-0.402-0.232-0.796-0.348-1.185-0.348h-1.596v-4.042h-1.312v9.389h2.912c0.394 0 0.787-0.113 1.181-0.339 0.776-0.444 1.164-1.225 1.164-2.344"/></g><g transform="translate(350.1 85.256)"><path d="m0 0-0.737 3.054-0.738-3.054zm2.271-3.848h-1.342l-0.609 2.535h-2.115l-0.61-2.535h-1.332l2.27 9.389h1.467z"/></g><g transform="translate(358.94 90.797)"><path d="m0 0-2.348-5.06v-4.329h-1.311v4.329l-2.347 5.06h1.416l1.588-3.399 1.576 3.399z"/></g><g transform="translate(341.69 73.055)"><path d="m0 0h-1.739v-8.075h-1.312v8.075h-1.739v1.311h4.79z"/></g><g transform="translate(347.05 69.672)"><path d="m0 0c0 0.802-0.084 1.501-0.246 2.098-0.242 0.922-0.649 1.382-1.213 1.382-0.565 0-0.971-0.46-1.215-1.382-0.164-0.597-0.244-1.296-0.244-2.098s0.08-1.501 0.244-2.097c0.244-0.922 0.65-1.382 1.215-1.382 0.564 0 0.971 0.46 1.213 1.382 0.162 0.596 0.246 1.295 0.246 2.097m1.31 0c0-1.153-0.13-2.107-0.394-2.864-0.451-1.285-1.242-1.928-2.375-1.928-1.137 0-1.928 0.643-2.379 1.928-0.262 0.757-0.391 1.711-0.391 2.864 0 3.194 0.922 4.792 2.77 4.792s2.769-1.598 2.769-4.792"/></g><g transform="translate(355.03 64.979)"><path d="m0 0h-4.79v9.387h1.313v-8.076h3.477z"/></g><g transform="translate(361.13 64.979)"><path d="m0 0h-4.789v9.387h1.311v-8.076h3.478z"/></g></g><text transform="matrix(1 0 0 -1 447.28 44.47)" fill="#000000" font-family="Helvetica" font-size="9px"><tspan x="0 6.4980001 11.502 14.499 19.503 24.507" y="0">R3-30P</tspan></text><g clip-path="url(#f)"><g transform="translate(488.36 60.284)"><path d="m0 0c0-0.648-0.526-1.174-1.176-1.174h-49.287c-0.649 0-1.174 0.526-1.174 1.174v35.207c0 0.646 0.525 1.174 1.174 1.174h49.287c0.65 0 1.176-0.528 1.176-1.174zm-1.176 37.847h-49.287c-1.455 0-2.641-1.184-2.641-2.64v-35.207c0-1.456 1.186-2.641 2.641-2.641h49.287c1.457 0 2.642 1.185 2.642 2.641v35.207c0 1.456-1.185 2.64-2.642 2.64"/></g></g><g clip-path="url(#e)"><g transform="translate(490.7 60.284)"><path d="m0 0c0-1.943-1.574-3.521-3.521-3.521h-49.287c-1.948 0-3.52 1.578-3.52 3.521v35.207c0 1.943 1.572 3.52 3.52 3.52h49.287c1.947 0 3.521-1.577 3.521-3.52z" fill="none" stroke="#000" stroke-width=".5"/></g></g><g clip-path="url(#d)"><g transform="translate(454.95 89.477)"><path d="m0 0h-1.73v-8.069h-1.322v8.069h-1.735v1.32h4.787z"/></g><g transform="translate(459.25 85.259)"><path d="m0 0-0.732 3.051-0.742-3.051zm2.272-3.851h-1.342l-0.609 2.531h-2.114l-0.609-2.531h-1.334l2.271 9.39h1.465z"/></g><g transform="translate(468.09 81.408)"><path d="m0 0h-1.377l-1.555 4.489-1.005-1.738v-2.751h-1.319v9.39h1.319v-3.998l2.304 3.998h1.522l-1.961-3.4z"/></g><g transform="translate(474.47 81.396)"><path d="m0 0-4.789 0.012v9.389h4.789v-1.32h-3.467v-2.435h2.059v-1.319h-2.059v-2.993h3.467z"/></g><g transform="translate(450.49 73.055)"><path d="m0 0h-1.738v-8.076h-1.314v8.076h-1.735v1.31h4.787z"/></g><path d="m453.12 64.979h-1.312v9.387h1.312z"/><g transform="translate(460.25 67.447)"><path d="m0 0c-0.084-0.501-0.228-0.929-0.42-1.279-0.463-0.859-1.15-1.287-2.064-1.287-1.133 0-1.926 0.641-2.375 1.926-0.268 0.758-0.397 1.711-0.397 2.866 0 3.193 0.922 4.791 2.772 4.791 0.879 0 1.558-0.383 2.033-1.151 0.201-0.321 0.353-0.705 0.451-1.154h-1.406c-0.213 0.662-0.572 0.994-1.082 0.994-0.563 0-0.969-0.461-1.213-1.383-0.16-0.597-0.244-1.296-0.244-2.097 0-0.803 0.084-1.501 0.244-2.098 0.244-0.922 0.65-1.383 1.213-1.383 0.553 0 0.924 0.42 1.119 1.255z"/></g><g transform="translate(467.38 64.979)"><path d="m0 0h-1.377l-1.561 4.488-1.003-1.738v-2.75h-1.315v9.387h1.315v-3.997l2.308 3.997h1.522l-1.961-3.399z"/></g><g transform="translate(473.77 64.969)"><path d="m0 0-4.787 0.01v9.386h4.787v-1.31h-3.475v-2.445h2.066v-1.314h-2.066v-3.007h3.475z"/></g><g transform="translate(479.4 73.055)"><path d="m0 0h-1.738v-8.076h-1.314v8.076h-1.737v1.31h4.789z"/></g></g><text transform="matrix(1 0 0 -1 157.82 44.47)" fill="#000000" font-family="Helvetica" font-size="9px"><tspan x="0 6.4980001 11.502 14.499 19.503" y="0">R3-28</tspan></text><g clip-path="url(#c)"><g transform="translate(263.72 61.692)"><path d="m0 0c0-2.722-2.207-4.929-4.93-4.929h-177.44c-2.722 0-4.929 2.207-4.929 4.929v69.005c0 2.722 2.207 4.93 4.929 4.93h177.44c2.723 0 4.93-2.208 4.93-4.93z" fill="#fff"/></g></g><g clip-path="url(#b)"><g transform="translate(263.72 61.692)"><path d="m0 0c0-2.722-2.207-4.929-4.93-4.929h-177.44c-2.722 0-4.929 2.207-4.929 4.929v69.005c0 2.722 2.207 4.93 4.929 4.93h177.44c2.723 0 4.93-2.208 4.93-4.93z" fill="none" stroke="#000" stroke-width=".5"/></g></g><g clip-path="url(#a)"><g transform="translate(260.44 61.692)"><path d="m0 0c0-0.906-0.738-1.643-1.644-1.643h-177.44c-0.906 0-1.643 0.737-1.643 1.643v69.005c0 0.906 0.737 1.643 1.643 1.643h177.44c0.906 0 1.644-0.737 1.644-1.643zm-1.644 72.702h-177.44c-2.038 0-3.697-1.658-3.697-3.697v-69.005c0-2.039 1.659-3.697 3.697-3.697h177.44c2.039 0 3.697 1.658 3.697 3.697v69.005c0 2.039-1.658 3.697-3.697 3.697"/></g><g transform="translate(152.81 116.32)"><path d="m0 0h-4.445v-13.144h-3.286v13.144h-4.427v3.286h12.158z"/></g><g transform="translate(165.62 111.39)"><path d="m0 0c0 1.346-0.296 2.5-0.888 3.464-0.669 1.083-1.578 1.625-2.728 1.625-1.152 0-2.061-0.542-2.73-1.625-0.592-0.964-0.887-2.118-0.887-3.464s0.295-2.501 0.887-3.463c0.669-1.084 1.578-1.625 2.73-1.625 1.15 0 2.059 0.541 2.728 1.625 0.592 0.962 0.888 2.117 0.888 3.463m3.286 0c0-2.233-0.619-4.16-1.857-5.78-1.315-1.73-2.996-2.595-5.045-2.595-2.05 0-3.732 0.865-5.046 2.595-1.238 1.62-1.858 3.547-1.858 5.78s0.62 4.16 1.858 5.78c1.314 1.73 2.996 2.595 5.046 2.595 2.049 0 3.73-0.865 5.045-2.595 1.238-1.62 1.857-3.547 1.857-5.78"/></g><g transform="translate(185.01 103.18)"><path d="m0 0h-12.158v16.43h3.286v-13.144h8.872z"/></g><g transform="translate(199.79 103.18)"><path d="m0 0h-12.157v16.43h3.285v-13.144h8.872z"/></g><g transform="translate(228.38 93.362)"><path d="m0 0v1.441h1.381v-1.451c1.119-0.243 1.731-1 1.837-2.27h-1.381c0 0.165-0.056 0.329-0.168 0.494-0.197 0.31-0.53 0.466-0.998 0.466-0.797 0-1.196-0.352-1.196-1.056 0-0.388 0.323-0.776 0.967-1.164 0.962-0.566 1.564-0.967 1.808-1.204 0.644-0.638 0.968-1.46 0.968-2.466 0-0.573-0.129-1.092-0.386-1.56-0.329-0.591-0.813-0.97-1.451-1.134v-1.48h-1.381v1.421c-0.808 0.119-1.412 0.49-1.813 1.115-0.328 0.5-0.492 1.099-0.492 1.797h1.381c0-0.574 0.181-0.998 0.543-1.275 0.27-0.198 0.599-0.296 0.987-0.296 0.79 0 1.185 0.47 1.185 1.41 0 0.737-0.318 1.338-0.956 1.806-0.592 0.368-1.187 0.733-1.784 1.095-0.638 0.493-0.956 1.138-0.956 1.934 0 0.441 0.107 0.858 0.324 1.252 0.334 0.612 0.86 0.987 1.581 1.125"/></g><g transform="translate(239 83.461)"><path d="m0 0h-1.381v8.084h-0.684v1.084c0.171 0.013 0.289 0.026 0.354 0.04 0.118 0.025 0.246 0.078 0.384 0.157 0.137 0.079 0.298 0.243 0.481 0.493h0.846z"/></g><g transform="translate(240.46 84.151)"><path d="m0 0c0 0.218 0.077 0.405 0.232 0.56 0.154 0.155 0.339 0.233 0.555 0.233 0.217 0 0.403-0.078 0.557-0.233s0.231-0.342 0.231-0.56-0.077-0.405-0.231-0.56-0.34-0.233-0.557-0.233c-0.216 0-0.401 0.078-0.555 0.233-0.155 0.155-0.232 0.342-0.232 0.56"/></g><g transform="translate(248.55 83.461)"><path d="m0 0h-5.507c-0.016 0.105-0.023 0.233-0.023 0.385 0 1.881 0.608 3.41 1.823 4.587 0.276 0.263 0.641 0.559 1.095 0.888 0.42 0.296 0.692 0.513 0.817 0.651 0.21 0.23 0.315 0.493 0.315 0.789 0 0.29-0.101 0.559-0.304 0.809-0.256 0.329-0.604 0.494-1.043 0.494-0.532 0-0.906-0.231-1.122-0.693-0.118-0.245-0.177-0.483-0.177-0.714h-1.381c0.013 0.788 0.272 1.45 0.776 1.985 0.505 0.535 1.141 0.802 1.909 0.802 0.799 0 1.461-0.282 1.986-0.847 0.491-0.526 0.736-1.14 0.736-1.843 0-0.598-0.15-1.103-0.453-1.518-0.203-0.275-0.532-0.558-0.985-0.847-0.526-0.335-0.851-0.565-0.976-0.69-0.906-0.893-1.419-1.846-1.537-2.858h4.051z"/></g><g transform="translate(255.25 86.887)"><path d="m0 0c0-1.314-0.407-2.274-1.22-2.878-0.592-0.434-1.344-0.651-2.256-0.651-0.717 0-1.383 0.31-2 0.929l0.965 0.998c0-0.053 0.108-0.146 0.325-0.278 0.288-0.179 0.63-0.268 1.024-0.268 0.526 0 0.958 0.213 1.299 0.64 0.322 0.414 0.482 0.913 0.482 1.498 0 0.584-0.154 1.048-0.463 1.389-0.255 0.296-0.546 0.444-0.875 0.444-0.558 6e-3 -0.919-0.183-1.084-0.566l-1.447 0.197 0.346 4.978h4.544v-1.381h-3.185l-0.146-2.11c0.275 0.175 0.594 0.262 0.954 0.262 0.834 0 1.507-0.325 2.018-0.975 0.479-0.605 0.719-1.348 0.719-2.228"/></g><g transform="translate(90.836 66.199)"><path d="m0 0-5.027 0.011v9.858h5.027v-1.38h-3.647v-2.568h2.168v-1.38h-2.168v-3.149h3.647z"/></g><g transform="translate(95.649 70.249)"><path d="m0 0-0.77 3.207-0.778-3.207zm2.385-4.039h-1.41l-0.64 2.658h-2.219l-0.641-2.658h-1.399l2.386 9.858h1.538z"/></g><g transform="translate(104.74 68.803)"><path d="m0 0c-0.092-0.527-0.239-0.974-0.443-1.343-0.487-0.902-1.209-1.352-2.169-1.352-1.19 0-2.021 0.674-2.494 2.022-0.276 0.796-0.413 1.799-0.413 3.009 0 3.355 0.968 5.032 2.907 5.032 0.927 0 1.639-0.405 2.139-1.215 0.21-0.336 0.369-0.741 0.473-1.215h-1.478c-0.223 0.699-0.601 1.049-1.133 1.049-0.592 0-1.016-0.483-1.272-1.45-0.171-0.625-0.257-1.359-0.257-2.201s0.086-1.575 0.257-2.2c0.256-0.967 0.68-1.451 1.272-1.451 0.578 0 0.968 0.438 1.173 1.315z"/></g><g transform="translate(112.23 66.21)"><path d="m0 0h-1.381v4.53h-2.761v-4.53h-1.38v9.858h1.38v-3.948h2.761v3.948h1.381z"/></g><g transform="translate(124.57 70.249)"><path d="m0 0-0.768 3.207-0.78-3.207zm2.386-4.039h-1.409l-0.641 2.658h-2.219l-0.64-2.658h-1.4l2.386 9.858h1.537z"/></g><g transform="translate(132.48 71.133)"><path d="m0 0c0 2.369-0.559 3.554-1.676 3.554h-1.085v-7.108h1.085c1.117 0 1.676 1.184 1.676 3.554m1.381 5e-3c0-1.972-0.388-3.369-1.164-4.19-0.474-0.5-1.032-0.75-1.676-0.75h-2.683v9.87h2.575c0.643 0 1.196-0.211 1.656-0.631 0.861-0.789 1.292-2.222 1.292-4.299"/></g><g transform="translate(139.97 71.133)"><path d="m0 0c0 2.369-0.56 3.554-1.677 3.554h-1.085v-7.108h1.085c1.117 0 1.677 1.184 1.677 3.554m1.38 5e-3c0-1.972-0.388-3.369-1.163-4.19-0.474-0.5-1.032-0.75-1.677-0.75h-2.682v9.87h2.574c0.644 0 1.196-0.211 1.657-0.631 0.86-0.789 1.291-2.222 1.291-4.299"/></g><path d="m144.7 66.21h-1.381v9.858h1.381z"/><g transform="translate(151.11 74.687)"><path d="m0 0h-1.821v-8.478h-1.381v8.478h-1.825v1.38h5.027z"/></g><path d="m153.87 66.21h-1.381v9.858h1.381z"/><g transform="translate(160.28 71.139)"><path d="m0 0c0 0.842-0.086 1.576-0.257 2.201-0.256 0.966-0.681 1.45-1.272 1.45-0.592 0-1.016-0.484-1.272-1.45-0.172-0.625-0.257-1.359-0.257-2.201s0.085-1.575 0.257-2.2c0.256-0.968 0.68-1.451 1.272-1.451 0.591 0 1.016 0.483 1.272 1.451 0.171 0.625 0.257 1.358 0.257 2.2m1.381 0c0-1.21-0.139-2.213-0.415-3.009-0.473-1.349-1.305-2.022-2.495-2.022s-2.022 0.673-2.495 2.022c-0.277 0.796-0.414 1.799-0.414 3.009 0 3.354 0.969 5.032 2.909 5.032s2.91-1.678 2.91-5.032"/></g><g transform="translate(169.15 66.21)"><path d="m0 0h-1.381l-2.761 6.378v-6.378h-1.38v9.858h1.379l2.761-6.368 1e-3 6.368h1.381z"/></g><g transform="translate(174.45 70.249)"><path d="m0 0-0.769 3.207-0.779-3.207zm2.386-4.039h-1.409l-0.641 2.658h-2.219l-0.64-2.658h-1.4l2.385 9.858h1.538z"/></g><g transform="translate(183.25 66.21)"><path d="m0 0h-5.027v9.858h1.381v-8.478h3.646z"/></g><g transform="translate(195.58 70.249)"><path d="m0 0-0.768 3.207-0.78-3.207zm2.386-4.039h-1.41l-0.641 2.658h-2.218l-0.64-2.658h-1.401l2.386 9.858h1.538z"/></g><g transform="translate(204.37 66.21)"><path d="m0 0h-1.478l-1.43 3.421-1.43-3.421h-1.478l2.159 5.175-1.972 4.683h1.49l1.231-2.938 1.203 2.938h1.479l-1.952-4.683z"/></g><g transform="translate(210.78 66.21)"><path d="m0 0h-5.027v9.858h1.38v-8.478h3.647z"/></g><g transform="translate(217.19 66.199)"><path d="m0 0-5.028 0.011v9.858h5.028v-1.38h-3.647v-2.568h2.168v-1.38h-2.168v-3.149h3.647z"/></g><g transform="translate(228.38 76.112)"><path d="m0 0v1.44h1.381v-1.451c1.119-0.243 1.731-1 1.837-2.27h-1.381c0 0.165-0.056 0.33-0.168 0.495-0.197 0.31-0.53 0.465-0.998 0.465-0.797 0-1.196-0.352-1.196-1.055 0-0.389 0.323-0.777 0.967-1.164 0.962-0.566 1.564-0.967 1.808-1.204 0.644-0.638 0.968-1.461 0.968-2.467 0-0.572-0.129-1.092-0.386-1.559-0.329-0.592-0.813-0.97-1.451-1.134v-1.48h-1.381v1.421c-0.808 0.118-1.412 0.49-1.813 1.115-0.328 0.5-0.492 1.099-0.492 1.796h1.381c0-0.573 0.181-0.998 0.543-1.275 0.27-0.197 0.599-0.296 0.987-0.296 0.79 0 1.185 0.47 1.185 1.411 0 0.736-0.318 1.338-0.956 1.805-0.592 0.368-1.187 0.734-1.784 1.096-0.638 0.493-0.956 1.137-0.956 1.933 0 0.441 0.107 0.858 0.324 1.253 0.334 0.612 0.86 0.987 1.581 1.125"/></g><g transform="translate(237.81 71.14)"><path d="m0 0c0 0.842-0.086 1.576-0.257 2.201-0.257 0.966-0.681 1.45-1.273 1.45-0.591 0-1.015-0.484-1.272-1.45-0.171-0.625-0.257-1.359-0.257-2.201s0.086-1.575 0.257-2.2c0.257-0.967 0.681-1.451 1.272-1.451 0.592 0 1.016 0.484 1.273 1.451 0.171 0.625 0.257 1.358 0.257 2.2m1.38 0c0-1.21-0.138-2.213-0.415-3.009-0.473-1.348-1.304-2.022-2.495-2.022-1.19 0-2.021 0.674-2.495 2.022-0.276 0.796-0.414 1.799-0.414 3.009 0 3.355 0.97 5.032 2.909 5.032 1.94 0 2.91-1.677 2.91-5.032"/></g><g transform="translate(240.46 66.902)"><path d="m0 0c0 0.218 0.077 0.404 0.232 0.56 0.154 0.155 0.339 0.233 0.555 0.233 0.217 0 0.403-0.078 0.557-0.233 0.154-0.156 0.231-0.342 0.231-0.56s-0.077-0.405-0.231-0.561c-0.154-0.154-0.34-0.232-0.557-0.232-0.216 0-0.401 0.078-0.555 0.232-0.155 0.156-0.232 0.343-0.232 0.561"/></g><g transform="translate(248.27 74.689)"><path d="m0 0c-0.586-0.756-1.089-1.554-1.51-2.396-1.001-1.997-1.501-4.024-1.501-6.082h-1.38c0 2.208 0.45 4.285 1.353 6.23 0.375 0.809 0.826 1.558 1.352 2.248h-3.835v1.38h5.521z"/></g><g transform="translate(255.25 69.637)"><path d="m0 0c0-1.314-0.407-2.273-1.22-2.878-0.592-0.433-1.344-0.65-2.256-0.65-0.717 0-1.383 0.309-2 0.928l0.965 0.998c0-0.053 0.108-0.146 0.325-0.278 0.288-0.179 0.63-0.268 1.024-0.268 0.526 0 0.958 0.213 1.299 0.641 0.322 0.413 0.482 0.912 0.482 1.497s-0.154 1.048-0.463 1.389c-0.255 0.296-0.546 0.444-0.875 0.444-0.558 6e-3 -0.919-0.182-1.084-0.566l-1.447 0.197 0.346 4.978h4.544v-1.38h-3.185l-0.146-2.111c0.275 0.175 0.594 0.262 0.954 0.262 0.834 0 1.507-0.325 2.018-0.975 0.479-0.605 0.719-1.348 0.719-2.228"/></g><g transform="translate(91.317 83.461)"><path d="m0 0h-5.508c-0.015 0.105-0.022 0.233-0.022 0.385 0 1.881 0.607 3.41 1.823 4.587 0.275 0.263 0.641 0.559 1.094 0.888 0.42 0.296 0.693 0.513 0.817 0.651 0.211 0.23 0.316 0.493 0.316 0.789 0 0.29-0.102 0.559-0.305 0.809-0.256 0.329-0.604 0.494-1.043 0.494-0.531 0-0.905-0.231-1.122-0.693-0.118-0.245-0.177-0.483-0.177-0.714h-1.381c0.013 0.788 0.272 1.45 0.777 1.985s1.14 0.802 1.908 0.802c0.8 0 1.462-0.282 1.986-0.847 0.491-0.526 0.737-1.14 0.737-1.843 0-0.598-0.151-1.103-0.453-1.518-0.204-0.275-0.532-0.558-0.986-0.847-0.525-0.335-0.851-0.565-0.976-0.69-0.906-0.893-1.419-1.846-1.537-2.858h4.052z"/></g><g transform="translate(103.71 87.5)"><path d="m0 0-0.768 3.207-0.78-3.207zm2.386-4.039h-1.41l-0.641 2.658h-2.218l-0.64-2.658h-1.401l2.386 9.858h1.538z"/></g><g transform="translate(112.51 83.461)"><path d="m0 0h-1.478l-1.43 3.42-1.43-3.42h-1.478l2.159 5.175-1.972 4.683h1.488l1.233-2.938 1.203 2.938h1.478l-1.952-4.683z"/></g><g transform="translate(118.91 83.461)"><path d="m0 0h-5.027v9.858h1.379v-8.478h3.648z"/></g><g transform="translate(125.32 83.449)"><path d="m0 0-5.027 0.012v9.858h5.027v-1.381h-3.646v-2.567h2.168v-1.381h-2.168v-3.149h3.646z"/></g><g transform="translate(132.03 86.151)"><path d="m0 0c0-0.697-0.181-1.299-0.542-1.806-0.467-0.657-1.157-0.987-2.07-0.987-1.027 0-1.792 0.33-2.298 0.988-0.408 0.52-0.611 1.175-0.611 1.965h1.379c0-0.574 0.182-0.998 0.543-1.275 0.271-0.198 0.6-0.297 0.989-0.297 0.789 0 1.184 0.471 1.184 1.411 0 0.737-0.318 1.339-0.956 1.806-0.592 0.368-1.186 0.733-1.784 1.095-0.638 0.493-0.956 1.138-0.956 1.934 0 0.519 0.143 0.997 0.434 1.431 0.446 0.671 1.162 1.006 2.147 1.006 1.037 0 1.773-0.388 2.206-1.165 0.178-0.323 0.289-0.715 0.335-1.175h-1.38c0 0.165-0.056 0.329-0.168 0.494-0.198 0.31-0.53 0.466-0.998 0.466-0.798 0-1.196-0.352-1.196-1.056 0-0.388 0.323-0.776 0.968-1.165 0.96-0.565 1.563-0.966 1.807-1.203 0.645-0.638 0.967-1.461 0.967-2.467"/></g></g></g></svg>
