<?xml version="1.0" encoding="UTF-8"?>
<svg width="214.97" height="113.42" version="1.1" viewBox="0 0 214.97 113.42" xml:space="preserve" xmlns="http://www.w3.org/2000/svg"><defs><clipPath id="g"><path d="m0 792h612v-792h-612z"/></clipPath><clipPath id="f"><path d="m402.39 301.5h173.23v128h-173.23z"/></clipPath><clipPath id="e"><path d="m408.39 303.75h161.23v123.06h-161.23z"/></clipPath><clipPath id="d"><path d="m402.39 301.5h173.23v128h-173.23z"/></clipPath><clipPath id="c"><path d="m402.39 301.5h173.23v128h-173.23z"/></clipPath><clipPath id="b"><path d="m408.39 303.75h161.23v123.06h-161.23z"/></clipPath><clipPath id="a"><path d="m402.39 301.5h173.23v128h-173.23z"/></clipPath></defs><g transform="matrix(1.3333 0 0 -1.3333 -544.53 520.98)"><g clip-path="url(#g)"/><g clip-path="url(#f)"><g transform="translate(502.16 390.48)"><path d="m0 0h62.434c2.631 0 4.783-2.152 4.783-4.783v-62.433c0-2.632-2.152-4.784-4.783-4.784h-62.434c-2.631 0-4.783 2.152-4.783 4.784v62.433c0 2.631 2.152 4.783 4.783 4.783" fill="#fff"/></g></g><g clip-path="url(#e)"><g transform="translate(502.16 390.48)"><path d="m0 0h62.434c2.631 0 4.783-2.152 4.783-4.783v-62.433c0-2.632-2.152-4.784-4.783-4.784h-62.434c-2.631 0-4.783 2.152-4.783 4.784v62.433c0 2.631 2.152 4.783 4.783 4.783z" fill="none" stroke="#000" stroke-width=".5"/></g></g><g clip-path="url(#d)"><g transform="translate(502.16 388.48)"><path d="m0 0h62.434c1.531 0 2.783-1.252 2.783-2.783v-62.433c0-1.533-1.252-2.785-2.783-2.785h-62.434c-1.529 0-2.783 1.252-2.783 2.785v62.433c0 1.531 1.254 2.783 2.783 2.783" fill="#005596" fill-rule="evenodd"/></g><g transform="translate(559.65 349.64)"><path d="m0 0v1.811h0.864c0.371 0 0.55-0.036 0.695-0.145 0.197-0.125 0.305-0.404 0.305-0.756 0-0.64-0.297-0.91-0.981-0.91zm-2.045 2.496v-0.685h0.288c0.451 0 0.496-0.055 0.496-0.549v-3.541c0-0.496-0.045-0.549-0.496-0.549h-0.288v-0.688h2.891v0.688h-0.352c-0.449 0-0.494 0.053-0.494 0.549v1.593h0.352c0.945 0 1.197-0.242 1.225-1.197l0.027-0.703c0.017-0.703 0.396-1.109 1.027-1.109 0.584 0 0.918 0.263 1.053 0.83 0.055 0.244 0.064 0.414 0.064 1.062h-0.513c-0.01-0.89-0.037-1.017-0.254-1.017-0.162 0-0.215 0.117-0.242 0.523l-0.028 0.531c-0.017 0.828-0.279 1.145-1.08 1.289 0.531 0.098 0.774 0.18 1.018 0.37 0.351 0.269 0.531 0.656 0.531 1.152 0 0.459-0.172 0.848-0.478 1.082-0.325 0.26-0.791 0.369-1.522 0.369zm-0.767 0h-5.315v-0.685h0.289c0.45 0 0.495-0.055 0.495-0.549v-3.541c0-0.496-0.045-0.549-0.495-0.549h-0.289v-0.688h5.315v2.551h-0.611c-0.127-1.558-0.342-1.863-1.297-1.863h-1.362v2.107h0.297c0.668 0 0.748-0.117 0.821-1.224h0.593v3h-0.593c-0.055-0.631-0.063-0.676-0.127-0.811-0.09-0.199-0.288-0.279-0.702-0.279h-0.289v1.846h1.244c0.694 0 0.991-0.108 1.17-0.415 0.155-0.279 0.217-0.638 0.245-1.289h0.611zm-11.422-6.012h1.018l0.982 3.219 0.846-3.219h1.064l1.233 4.723c0.109 0.424 0.271 0.604 0.541 0.604h0.181v0.685h-2.217v-0.685h0.27c0.307 0 0.451-0.09 0.451-0.262 0-0.108-0.027-0.279-0.072-0.459l-0.811-3.045-0.91 3.279c-0.027 0.108-0.045 0.199-0.045 0.252 0 0.172 0.108 0.235 0.377 0.235h0.299v0.685h-2.369v-0.685h0.197c0.352 0 0.504-0.19 0.613-0.756l-0.964-3.1-0.838 3.387c-0.018 0.082-0.035 0.172-0.035 0.217 0 0.162 0.117 0.252 0.341 0.252h0.252v0.685h-2.306v-0.685h0.136c0.342 0 0.467-0.153 0.629-0.801zm-5.02 5.471c0.993 0 1.569-0.91 1.569-2.469 0-1.549-0.576-2.459-1.569-2.459-1 0-1.566 0.901-1.566 2.496 0 1.522 0.586 2.432 1.566 2.432m0 0.711c-1.755 0-2.972-1.279-2.972-3.125 0-1.955 1.172-3.227 2.982-3.227 1.776 0 2.965 1.28 2.965 3.182 0 1.9-1.189 3.17-2.975 3.17m-7.71-2.738v1.334c0 0.494 0.044 0.549 0.496 0.549h0.351v0.685h-2.892v-0.685h0.289c0.449 0 0.494-0.055 0.494-0.549v-3.541c0-0.496-0.045-0.549-0.494-0.549h-0.289v-0.688h2.892v0.688h-0.351c-0.452 0-0.496 0.053-0.496 0.549v1.486h2.207v-1.486c0-0.496-0.045-0.549-0.497-0.549h-0.349v-0.688h2.89v0.688h-0.289c-0.449 0-0.494 0.053-0.494 0.549v3.541c0 0.494 0.045 0.549 0.494 0.549h0.289v0.685h-2.89v-0.685h0.349c0.452 0 0.497-0.055 0.497-0.549v-1.334zm-3.125-3.444v4.778c0 0.494 0.044 0.549 0.503 0.549h0.243v0.685h-2.559v-0.685h0.361c0.459 0 0.504-0.055 0.504-0.549v-3.127l-2.324 4.361h-2.324v-0.685h0.324c0.459 0 0.504-0.055 0.504-0.549v-3.541c0-0.496-0.045-0.549-0.504-0.549h-0.359v-0.688h2.666v0.688h-0.352c-0.459 0-0.504 0.053-0.504 0.549v3.666l2.604-4.903zm-6.282 6.012h-5.314v-0.685h0.289c0.449 0 0.494-0.055 0.494-0.549v-3.541c0-0.496-0.045-0.549-0.494-0.549h-0.289v-0.688h5.314v2.551h-0.611c-0.127-1.558-0.342-1.863-1.297-1.863h-1.361v2.107h0.297c0.668 0 0.748-0.117 0.82-1.224h0.594v3h-0.594c-0.055-0.631-0.063-0.676-0.127-0.811-0.09-0.199-0.287-0.279-0.701-0.279h-0.289v1.846h1.244c0.693 0 0.99-0.108 1.17-0.415 0.154-0.279 0.217-0.638 0.244-1.289h0.611zm-10.359-6.012h0.558l0.18 0.561c0.713-0.541 1.162-0.731 1.793-0.731 1.18 0 2.027 0.793 2.027 1.911 0 0.964-0.576 1.595-1.73 1.882l-1.09 0.28c-0.449 0.117-0.683 0.379-0.683 0.775 0 0.496 0.369 0.783 0.972 0.783 0.387 0 0.793-0.162 1.045-0.414 0.287-0.287 0.477-0.703 0.586-1.314h0.611v2.279h-0.476l-0.289-0.441c-0.639 0.494-0.973 0.621-1.586 0.621-1.152 0-1.936-0.748-1.936-1.856 0-0.955 0.514-1.478 1.774-1.802l0.875-0.225c0.541-0.135 0.81-0.432 0.81-0.873 0-0.514-0.369-0.793-1.037-0.793-0.494 0-0.836 0.135-1.162 0.441-0.332 0.325-0.486 0.649-0.621 1.397h-0.621zm-2.658 1.237c0-0.496-0.045-0.549-0.496-0.549h-0.315v-0.688h2.901v0.688h-0.315c-0.451 0-0.496 0.053-0.496 0.549v3.541c0 0.494 0.045 0.549 0.496 0.549h0.315v0.685h-2.901v-0.685h0.315c0.451 0 0.496-0.055 0.496-0.549zm-1.596 4.775h-5.314v-0.685h0.289c0.449 0 0.494-0.055 0.494-0.549v-3.541c0-0.496-0.045-0.549-0.494-0.549h-0.289v-0.688h5.314v2.551h-0.611c-0.127-1.558-0.342-1.863-1.297-1.863h-1.362v2.107h0.297c0.668 0 0.748-0.117 0.821-1.224h0.593v3h-0.593c-0.055-0.631-0.063-0.676-0.127-0.811-0.09-0.199-0.287-0.279-0.701-0.279h-0.29v1.846h1.245c0.693 0 0.99-0.108 1.169-0.415 0.155-0.279 0.217-0.638 0.245-1.289h0.611z" fill="#fff" fill-rule="evenodd"/></g><g transform="translate(560.56 341.32)"><path d="m0 0h-5.316v-0.684h0.289c0.451 0 0.496-0.054 0.496-0.55v-3.539c0-0.497-0.045-0.551-0.496-0.551h-0.289v-0.686h5.316v2.551h-0.613c-0.125-1.559-0.342-1.865-1.297-1.865h-1.361v2.109h0.299c0.666 0 0.746-0.117 0.818-1.226h0.596v3h-0.596c-0.053-0.629-0.062-0.676-0.125-0.811-0.09-0.197-0.289-0.279-0.703-0.279h-0.289v1.847h1.244c0.693 0 0.99-0.107 1.172-0.414 0.152-0.279 0.215-0.64 0.242-1.289h0.613zm-8.882-4.773c0-0.497-0.045-0.551-0.496-0.551h-0.442v-0.686h3.135v0.686h-0.442c-0.449 0-0.496 0.054-0.496 0.551v4.107c0.93 0.018 1.272-0.451 1.299-1.82h0.612v2.486h-5.081v-2.486h0.614c0.025 1.369 0.369 1.847 1.297 1.82zm-4.227 1.376h-1.342l0.641 2.092zm-1.125 3.397-1.504-4.746c-0.144-0.461-0.299-0.578-0.721-0.578h-0.173v-0.686h2.515v0.686h-0.424c-0.351 0-0.431 0.037-0.431 0.199 0 0.053 0.025 0.145 0.062 0.279l0.242 0.748h1.776l0.234-0.703c0.045-0.135 0.072-0.252 0.072-0.306 0-0.172-0.099-0.217-0.451-0.217h-0.441v-0.686h2.793v0.686h-0.152c-0.424 0-0.469 0.045-0.659 0.578l-1.603 4.746zm-5.414-4.773c0-0.497-0.045-0.551-0.496-0.551h-0.442v-0.686h3.135v0.686h-0.441c-0.451 0-0.496 0.054-0.496 0.551v4.107c0.927 0.018 1.271-0.451 1.299-1.82h0.611v2.486h-5.08v-2.486h0.611c0.027 1.369 0.371 1.847 1.299 1.82zm-6.855-1.237h0.556l0.182 0.561c0.711-0.541 1.162-0.733 1.793-0.733 1.179 0 2.025 0.795 2.025 1.912 0 0.965-0.576 1.594-1.728 1.883l-1.09 0.28c-0.451 0.117-0.686 0.379-0.686 0.775 0 0.494 0.369 0.783 0.973 0.783 0.389 0 0.793-0.162 1.045-0.414 0.289-0.289 0.478-0.703 0.586-1.316h0.613v2.279h-0.478l-0.288-0.441c-0.64 0.496-0.972 0.623-1.586 0.623-1.154 0-1.937-0.748-1.937-1.858 0-0.953 0.514-1.476 1.775-1.801l0.873-0.224c0.541-0.137 0.811-0.434 0.811-0.875 0-0.514-0.369-0.793-1.035-0.793-0.496 0-0.838 0.135-1.162 0.441-0.334 0.324-0.487 0.649-0.621 1.397h-0.621zm-4.344 3.516v1.81h0.865c0.369 0 0.549-0.037 0.693-0.144 0.2-0.125 0.307-0.406 0.307-0.756 0-0.641-0.297-0.91-0.982-0.91zm-2.045 2.494v-0.684h0.289c0.449 0 0.494-0.054 0.494-0.55v-3.539c0-0.497-0.045-0.551-0.494-0.551h-0.289v-0.686h2.892v0.686h-0.351c-0.451 0-0.496 0.054-0.496 0.551v1.593h0.351c0.946 0 1.2-0.242 1.225-1.197l0.027-0.703c0.02-0.703 0.397-1.109 1.028-1.109 0.586 0 0.92 0.261 1.054 0.83 0.055 0.242 0.063 0.414 0.063 1.062h-0.514c-8e-3 -0.892-0.035-1.017-0.252-1.017-0.162 0-0.217 0.117-0.244 0.521l-0.025 0.533c-0.02 0.828-0.28 1.143-1.082 1.287 0.531 0.1 0.775 0.182 1.017 0.369 0.352 0.272 0.533 0.659 0.533 1.155 0 0.459-0.171 0.846-0.478 1.08-0.324 0.262-0.793 0.369-1.524 0.369zm-0.766 0h-5.314v-0.684h0.287c0.451 0 0.496-0.054 0.496-0.55v-3.539c0-0.497-0.045-0.551-0.496-0.551h-0.287v-0.686h5.314v2.551h-0.613c-0.125-1.559-0.342-1.865-1.297-1.865h-1.359v2.109h0.297c0.666 0 0.748-0.117 0.82-1.226h0.594v3h-0.594c-0.055-0.629-0.065-0.676-0.127-0.811-0.09-0.197-0.289-0.279-0.703-0.279h-0.287v1.847h1.242c0.693 0 0.992-0.107 1.172-0.414 0.152-0.279 0.217-0.64 0.242-1.289h0.613zm-8.883-4.773c0-0.497-0.045-0.551-0.496-0.551h-0.441v-0.686h3.135v0.686h-0.442c-0.449 0-0.494 0.054-0.494 0.551v4.107c0.928 0.018 1.27-0.451 1.297-1.82h0.613v2.486h-5.082v-2.486h0.614c0.027 1.369 0.369 1.847 1.296 1.82zm-3-1.237v4.776c0 0.496 0.045 0.55 0.504 0.55h0.244v0.684h-2.558v-0.684h0.359c0.461 0 0.506-0.054 0.506-0.55v-3.125l-2.324 4.359h-2.326v-0.684h0.326c0.459 0 0.504-0.054 0.504-0.55v-3.539c0-0.497-0.045-0.551-0.504-0.551h-0.361v-0.686h2.666v0.686h-0.352c-0.459 0-0.504 0.054-0.504 0.551v3.666l2.604-4.903zm-8.027 1.237c0-0.497-0.045-0.551-0.496-0.551h-0.315v-0.686h2.901v0.686h-0.315c-0.451 0-0.496 0.054-0.496 0.551v3.539c0 0.496 0.045 0.55 0.496 0.55h0.315v0.684h-2.901v-0.684h0.315c0.451 0 0.496-0.054 0.496-0.55z" fill="#fff" fill-rule="evenodd"/></g><g transform="translate(549.01 329.61)"><path d="m0 0v-3.892c0-0.494-0.045-0.549-0.496-0.549h-0.342v-0.686h2.775v0.686h-0.289c-0.451 0-0.496 0.055-0.496 0.549v3.54c0 0.497 0.045 0.549 0.496 0.549h0.289v0.686h-2.433l-1.307-3.9-1.197 3.9h-2.524v-0.686h0.272c0.459 0 0.504-0.052 0.504-0.549v-3.54c0-0.494-0.045-0.549-0.504-0.549h-0.272v-0.686h2.524v0.686h-0.297c-0.461 0-0.506 0.055-0.506 0.549v3.982l1.596-5.217h0.531zm-6.289 0.883h-5.315v-0.686h0.287c0.452 0 0.497-0.052 0.497-0.549v-3.54c0-0.494-0.045-0.549-0.497-0.549h-0.287v-0.686h5.315v2.551h-0.614c-0.125-1.558-0.341-1.865-1.296-1.865h-1.36v2.107h0.297c0.666 0 0.748-0.117 0.82-1.224h0.594v2.999h-0.594c-0.054-0.63-0.064-0.675-0.127-0.81-0.089-0.199-0.287-0.279-0.703-0.279h-0.287v1.845h1.242c0.694 0 0.993-0.107 1.172-0.414 0.153-0.279 0.217-0.638 0.242-1.287h0.614zm-8.883-4.775c0-0.494-0.045-0.549-0.494-0.549h-0.444v-0.686h3.137v0.686h-0.443c-0.449 0-0.494 0.055-0.494 0.549v4.109c0.927 0.017 1.269-0.451 1.297-1.821h0.613v2.487h-5.082v-2.487h0.613c0.027 1.37 0.369 1.848 1.297 1.821zm-6.856-1.235h0.559l0.18 0.559c0.713-0.539 1.162-0.73 1.793-0.73 1.179 0 2.027 0.794 2.027 1.912 0 0.962-0.576 1.593-1.73 1.882l-1.09 0.279c-0.449 0.118-0.684 0.377-0.684 0.774 0 0.496 0.369 0.785 0.973 0.785 0.387 0 0.793-0.162 1.045-0.414 0.287-0.289 0.476-0.703 0.586-1.316h0.611v2.279h-0.477l-0.289-0.442c-0.638 0.497-0.972 0.622-1.586 0.622-1.152 0-1.935-0.747-1.935-1.856 0-0.955 0.514-1.477 1.773-1.801l0.875-0.226c0.541-0.135 0.811-0.432 0.811-0.873 0-0.514-0.369-0.793-1.035-0.793-0.496 0-0.838 0.135-1.162 0.441-0.334 0.325-0.489 0.649-0.623 1.397h-0.622zm-3.982 2.514v-1.279c0-0.504-0.045-0.549-0.496-0.549h-0.449v-0.686h3.144v0.686h-0.441c-0.451 0-0.496 0.055-0.496 0.549v1.279l1.541 2.416c0.197 0.297 0.351 0.394 0.631 0.394h0.179v0.686h-2.504v-0.686h0.522c0.189 0 0.262-0.045 0.262-0.17 0-0.072-0.028-0.172-0.09-0.261l-1-1.459-0.955 1.414c-0.065 0.09-0.1 0.207-0.1 0.289 0 0.142 0.09 0.187 0.342 0.187h0.451v0.686h-2.855v-0.686h0.261c0.287 0 0.532-0.187 0.784-0.611zm-7.172-2.514h0.559l0.181 0.559c0.711-0.539 1.163-0.73 1.793-0.73 1.18 0 2.028 0.794 2.028 1.912 0 0.962-0.578 1.593-1.731 1.882l-1.09 0.279c-0.451 0.118-0.685 0.377-0.685 0.774 0 0.496 0.369 0.785 0.973 0.785 0.388 0 0.792-0.162 1.044-0.414 0.29-0.289 0.479-0.703 0.586-1.316h0.614v2.279h-0.479l-0.287-0.442c-0.641 0.497-0.973 0.622-1.586 0.622-1.152 0-1.937-0.747-1.937-1.856 0-0.955 0.513-1.477 1.775-1.801l0.873-0.226c0.541-0.135 0.813-0.432 0.813-0.873 0-0.514-0.372-0.793-1.038-0.793-0.496 0-0.837 0.135-1.162 0.441-0.334 0.325-0.486 0.649-0.621 1.397h-0.623z" fill="#fff" fill-rule="evenodd"/></g><g transform="translate(523.45 377.49)"><path d="m0 0 1.207-3.379 3.619-0.092-2.873-2.177 1.03-3.436-2.983 2.031-2.984-2.031 1.031 3.436-2.875 2.177 3.621 0.092z" fill="#fff" fill-rule="evenodd"/></g><g transform="translate(533.32 384.51)"><path d="m0 0 1.207-3.377 3.619-0.092-2.873-2.179 1.03-3.436-2.983 2.031-2.982-2.031 1.029 3.436-2.873 2.179 3.619 0.092z" fill="#fff" fill-rule="evenodd"/></g><g transform="translate(543.15 377.49)"><path d="m0 0 1.207-3.379 3.622-0.092-2.875-2.177 1.031-3.436-2.985 2.031-2.982-2.031 1.031 3.436-2.875 2.177 3.619 0.092z" fill="#fff" fill-rule="evenodd"/></g><g transform="translate(527.18 365.99)"><path d="m0 0 1.205-3.377 3.621-0.092-2.875-2.179 1.031-3.434-2.982 2.031-2.985-2.031 1.032 3.434-2.875 2.179 3.621 0.092z" fill="#fff" fill-rule="evenodd"/></g><g transform="translate(539.43 365.99)"><path d="m0 0 1.205-3.377 3.621-0.092-2.875-2.179 1.031-3.434-2.982 2.031-2.985-2.031 1.032 3.434-2.875 2.179 3.621 0.092z" fill="#fff" fill-rule="evenodd"/></g></g><text transform="matrix(1 0 0 -1 518.12 305.78)" fill="#000000" font-family="Helvetica" font-size="9px"><tspan x="0 7.4970002 12.501 15.498 20.502001 25.506001" y="0">M1-10a</tspan></text><g clip-path="url(#c)"><g transform="translate(413.43 390.48)"><path d="m0 0h62.434c2.63 0 4.783-2.152 4.783-4.783v-62.433c0-2.632-2.153-4.784-4.783-4.784h-62.434c-2.631 0-4.783 2.152-4.783 4.784v62.433c0 2.631 2.152 4.783 4.783 4.783" fill="#fff"/></g></g><g clip-path="url(#b)"><g transform="translate(413.43 390.48)"><path d="m0 0h62.434c2.63 0 4.783-2.152 4.783-4.783v-62.433c0-2.632-2.153-4.784-4.783-4.784h-62.434c-2.631 0-4.783 2.152-4.783 4.784v62.433c0 2.631 2.152 4.783 4.783 4.783z" fill="none" stroke="#000" stroke-width=".5"/></g></g><g clip-path="url(#a)"><g transform="translate(413.43 388.48)"><path d="m0 0h62.434c1.531 0 2.783-1.252 2.783-2.783v-62.433c0-1.533-1.252-2.785-2.783-2.785h-62.434c-1.531 0-2.783 1.252-2.783 2.785v62.433c0 1.531 1.252 2.783 2.783 2.783" fill="#005596" fill-rule="evenodd"/></g><g transform="translate(434.78 379.87)"><path d="m0 0 1.207-3.377 3.621-0.092-2.875-2.179 1.029-3.434-2.982 2.031-2.984-2.031 1.031 3.434-2.875 2.179 3.621 0.092z" fill="#fff" fill-rule="evenodd"/></g><g transform="translate(444.65 386.89)"><path d="m0 0 1.207-3.379 3.621-0.092-2.875-2.177 1.031-3.436-2.984 2.031-2.982-2.031 1.031 3.436-2.875 2.177 3.619 0.092z" fill="#fff" fill-rule="evenodd"/></g><g transform="translate(454.47 379.87)"><path d="m0 0 1.207-3.377 3.619-0.092-2.873-2.179 1.029-3.434-2.982 2.031-2.984-2.031 1.031 3.434-2.875 2.179 3.621 0.092z" fill="#fff" fill-rule="evenodd"/></g><g transform="translate(438.5 368.37)"><path d="m0 0 1.207-3.377 3.619-0.092-2.873-2.179 1.029-3.434-2.982 2.031-2.984-2.031 1.031 3.434-2.875 2.179 3.621 0.092z" fill="#fff" fill-rule="evenodd"/></g><g transform="translate(450.75 368.37)"><path d="m0 0 1.207-3.377 3.621-0.092-2.875-2.179 1.031-3.434-2.984 2.031-2.982-2.031 1.029 3.434-2.873 2.179 3.619 0.092z" fill="#fff" fill-rule="evenodd"/></g><g transform="translate(470.62 354.35)"><path d="m0 0c0-0.645-0.365-1.01-1.039-1.01h-1.178v2.022h1.178c0.617 0 1.039-0.395 1.039-1.012m1.121-5.863-1.15 3.927c0.757 0.282 1.15 0.983 1.15 1.936 0 1.291-0.842 2.133-2.104 2.133h-2.384v-7.996h1.15v3.759h1.094l1.066-3.759zm-5.836 0v1.123h-2.918v2.636h1.656v1.094h-1.656v2.022h2.609v1.121h-3.757v-7.996zm-5.162 7.996h-1.121l-0.701-4.264-0.758 4.264h-0.898l-0.786-4.264-0.673 4.264h-1.124l1.264-7.996h1.01l0.758 4.179 0.757-4.179h0.981zm-8.137-3.985c0-0.925-0.054-1.402-0.252-2.046-0.195-0.674-0.504-0.983-0.982-0.983-0.504 0-0.813 0.309-1.01 0.983-0.168 0.644-0.252 1.15-0.252 2.019 0 0.899 0.057 1.432 0.252 2.049 0.197 0.672 0.506 0.98 1.01 0.98 0.478 0 0.787-0.308 0.982-1.009 0.168-0.588 0.252-1.094 0.252-1.993m1.096 0c0 1.207-0.113 1.965-0.449 2.75-0.393 0.983-0.955 1.375-1.881 1.375s-1.486-0.392-1.906-1.345c-0.338-0.758-0.45-1.573-0.45-2.78 0-1.234 0.112-1.992 0.45-2.777 0.392-0.953 0.953-1.379 1.906-1.379 0.898 0 1.488 0.426 1.881 1.379 0.336 0.758 0.449 1.543 0.449 2.777m-6.258-4.011v7.996h-1.15v-3.254h-2.188v3.254h-1.15v-7.996h1.15v3.619h2.188v-3.619zm-6.201 0v7.996h-1.15v-4.797l-2.188 4.797h-1.15v-7.996h1.15v5.359l2.469-5.359zm-5.836 0v1.123h-2.918v2.636h1.656v1.094h-1.656v2.022h2.61v1.121h-3.758v-7.996zm-5.414 2.189c0 1.151-0.674 2.02-2.217 2.918-0.588 0.336-0.758 0.561-0.758 0.953 0 0.533 0.422 0.926 0.956 0.926 0.503 0 0.896-0.365 0.925-0.926h1.094c-0.027 1.207-0.898 2.076-2.019 2.076-1.151 0-2.049-0.925-2.049-2.076 0-0.701 0.336-1.318 0.982-1.767 1.627-1.094 1.178-0.785 1.346-0.953 0.478-0.366 0.646-0.704 0.646-1.151 0-0.646-0.506-1.207-1.123-1.207-0.785 0-1.121 0.701-1.121 1.375h-1.123c0-1.318 0.842-2.502 2.244-2.502 1.235 0 2.217 1.043 2.217 2.334m-5.807 5.807h-1.123v-7.996h1.123zm-2.47-7.996v1.123h-2.918v2.636h1.656v1.094h-1.656v2.022h2.609v1.121h-3.76v-7.996z" fill="#fff" fill-rule="evenodd"/></g><g transform="translate(469.18 336.01)"><path d="m0 0v1.123h-2.918v2.637h1.656v1.095h-1.656v2.02h2.609v1.121h-3.759v-7.996zm-5.162 6.932v1.064h-4.068v-1.064h1.458v-6.932h1.151v6.932zm-6.537-3.621h-1.151l0.561 2.3zm1.992-3.311-1.992 7.996h-1.123l-1.992-7.996h1.15l0.533 2.189h1.711l0.563-2.189zm-5.584 6.932v1.064h-4.068v-1.064h1.459v-6.932h1.15v6.932zm-4.797-4.743c0 1.151-0.674 2.02-2.217 2.918-0.59 0.336-0.758 0.561-0.758 0.954 0 0.533 0.42 0.925 0.954 0.925 0.506 0 0.898-0.363 0.925-0.925h1.096c-0.029 1.207-0.898 2.076-2.021 2.076-1.151 0-2.049-0.926-2.049-2.076 0-0.702 0.338-1.319 0.984-1.768 1.627-1.094 1.178-0.785 1.346-0.953 0.477-0.365 0.644-0.701 0.644-1.151 0-0.646-0.504-1.207-1.121-1.207-0.785 0-1.123 0.702-1.123 1.375h-1.123c0-1.318 0.842-2.502 2.246-2.502 1.235 0 2.217 1.043 2.217 2.334m-6.51 3.676c0-0.646-0.365-1.01-1.039-1.01h-1.177v2.02h1.177c0.617 0 1.039-0.393 1.039-1.01m1.122-5.865-1.151 3.93c0.758 0.279 1.151 0.98 1.151 1.935 0 1.289-0.842 2.131-2.104 2.131h-2.385v-7.996h1.151v3.76h1.093l1.067-3.76zm-5.837 0v1.123h-2.915v2.637h1.654v1.095h-1.654v2.02h2.607v1.121h-3.758v-7.996zm-5.162 6.932v1.064h-4.068v-1.064h1.459v-6.932h1.15v6.932zm-5.162-6.932v7.996h-1.15v-4.797l-2.188 4.797h-1.15v-7.996h1.15v5.359l2.469-5.359zm-6.228 7.996h-1.121v-7.996h1.121z" fill="#fff" fill-rule="evenodd"/></g><g transform="translate(460.63 323.53)"><path d="m0 0v7.996h-1.15l-1.487-4.49-1.486 4.49h-1.15v-7.996h1.15v4.489l1.486-4.489 1.487 4.489v-4.489zm-6.621 0v1.121h-2.918v2.639h1.656v1.094h-1.656v2.019h2.609v1.123h-3.759v-7.996zm-5.162 6.93v1.066h-4.069v-1.066h1.459v-6.93h1.151v6.93zm-4.799-4.742c0 1.15-0.674 2.019-2.217 2.918-0.588 0.336-0.756 0.56-0.756 0.953 0 0.533 0.42 0.926 0.953 0.926 0.504 0 0.899-0.364 0.926-0.926h1.094c-0.027 1.207-0.898 2.076-2.02 2.076-1.15 0-2.048-0.926-2.048-2.076 0-0.701 0.338-1.318 0.982-1.768 1.627-1.093 1.178-0.785 1.348-0.953 0.476-0.365 0.644-0.701 0.644-1.15 0-0.645-0.506-1.207-1.123-1.207-0.785 0-1.121 0.701-1.121 1.375h-1.123c0-1.319 0.842-2.502 2.244-2.502 1.235 0 2.217 1.043 2.217 2.334m-5.162 5.808h-1.234l-1.319-2.89-1.348 2.89h-1.205l1.963-4.376v-3.62h1.151v3.62zm-5.836-5.808c0 1.15-0.674 2.019-2.217 2.918-0.588 0.336-0.758 0.56-0.758 0.953 0 0.533 0.422 0.926 0.955 0.926 0.504 0 0.899-0.364 0.926-0.926h1.094c-0.027 1.207-0.898 2.076-2.02 2.076-1.15 0-2.048-0.926-2.048-2.076 0-0.701 0.337-1.318 0.982-1.768 1.627-1.093 1.178-0.785 1.348-0.953 0.476-0.365 0.644-0.701 0.644-1.15 0-0.645-0.506-1.207-1.123-1.207-0.785 0-1.121 0.701-1.121 1.375h-1.123c0-1.319 0.842-2.502 2.244-2.502 1.235 0 2.217 1.043 2.217 2.334" fill="#fff" fill-rule="evenodd"/></g></g><text transform="matrix(1 0 0 -1 431.89 305.78)" fill="#000000" font-family="Helvetica" font-size="9px"><tspan x="0 7.4970002 12.501 15.498 20.502001" y="0">M1-10</tspan></text></g></svg>
