<?xml version="1.0" encoding="UTF-8"?>
<svg width="503.51pt" height="573.35pt" version="1.2" viewBox="0 0 503.51 573.35" xmlns="http://www.w3.org/2000/svg" xmlns:xlink="http://www.w3.org/1999/xlink"><defs><symbol id="ak" overflow="visible"><path d="m0.6875-6.4531h0.875v5.6875h3.2656v0.76562h-4.1406z"/></symbol><symbol id="m" overflow="visible"><path d="m2.5469-4.8125c0.33203 0 0.65625 0.078125 0.96875 0.23438s0.55078 0.35938 0.71875 0.60938c0.15625 0.24219 0.25781 0.51562 0.3125 0.82812 0.039063 0.21875 0.0625 0.57031 0.0625 1.0469h-3.4375c0.007813 0.46875 0.11719 0.85156 0.32812 1.1406 0.20703 0.29297 0.53516 0.4375 0.98438 0.4375 0.41406 0 0.74219-0.13281 0.98438-0.40625 0.14453-0.16406 0.24219-0.35156 0.29688-0.5625h0.78125c-0.023437 0.17969-0.089844 0.375-0.20312 0.59375-0.11719 0.21094-0.24609 0.38281-0.39062 0.51562-0.24219 0.23047-0.53906 0.38281-0.89062 0.46875-0.1875 0.050781-0.40234 0.078125-0.64062 0.078125-0.59375 0-1.0938-0.21094-1.5-0.64062-0.40625-0.42578-0.60938-1.0234-0.60938-1.7969 0-0.75 0.20312-1.3594 0.60938-1.8281 0.41406-0.47656 0.95703-0.71875 1.625-0.71875zm1.25 2.0781c-0.03125-0.34375-0.10547-0.61328-0.21875-0.8125-0.21875-0.38281-0.58594-0.57812-1.0938-0.57812-0.35547 0-0.65625 0.13672-0.90625 0.40625-0.25 0.26172-0.38281 0.58984-0.39062 0.98438z"/></symbol><symbol id="ai" overflow="visible"><path d="m2.2344-4.7969c0.375 0 0.69531 0.09375 0.96875 0.28125 0.15625 0.10547 0.3125 0.25781 0.46875 0.45312v-0.59375h0.71875v4.2812c0 0.59375-0.089844 1.0625-0.26562 1.4062-0.32422 0.63281-0.94531 0.95312-1.8594 0.95312-0.5 0-0.92969-0.11719-1.2812-0.34375-0.34375-0.21875-0.53906-0.57422-0.57812-1.0625h0.8125c0.039063 0.21875 0.11719 0.38281 0.23438 0.5 0.17578 0.17578 0.45703 0.26562 0.84375 0.26562 0.60156 0 1-0.21875 1.1875-0.65625 0.10156-0.25 0.15625-0.69531 0.15625-1.3438-0.16797 0.24219-0.35938 0.42188-0.57812 0.54688-0.21875 0.11328-0.51172 0.17188-0.875 0.17188-0.51172 0-0.96094-0.17969-1.3438-0.54688-0.38672-0.36328-0.57812-0.96094-0.57812-1.7969 0-0.78906 0.19141-1.4062 0.57812-1.8438 0.38281-0.44531 0.84766-0.67188 1.3906-0.67188zm1.4375 2.4219c0-0.58203-0.125-1.0156-0.375-1.2969-0.24219-0.28125-0.54297-0.42188-0.90625-0.42188-0.5625 0-0.94531 0.26172-1.1406 0.78125-0.11719 0.28125-0.17188 0.64844-0.17188 1.0938 0 0.53125 0.10938 0.9375 0.32812 1.2188 0.21875 0.27344 0.50391 0.40625 0.85938 0.40625 0.57031 0 0.97266-0.25391 1.2031-0.76562 0.13281-0.28906 0.20312-0.62891 0.20312-1.0156z"/></symbol><symbol id="f" overflow="visible"><path d="m0.57812-4.7031h0.75v0.67188c0.22656-0.28125 0.46094-0.47656 0.70312-0.59375 0.25-0.125 0.53125-0.1875 0.84375-0.1875 0.66406 0 1.1133 0.23438 1.3438 0.70312 0.13281 0.25 0.20312 0.61719 0.20312 1.0938v3.0156h-0.8125v-2.9688c0-0.28125-0.042969-0.50781-0.125-0.6875-0.13672-0.28906-0.39062-0.4375-0.76562-0.4375-0.1875 0-0.33984 0.015625-0.45312 0.046875-0.21875 0.0625-0.41406 0.19531-0.57812 0.39062-0.13672 0.15625-0.22656 0.32031-0.26562 0.48438-0.03125 0.16797-0.046875 0.40234-0.046875 0.70312v2.4688h-0.79688z"/></symbol><symbol id="ap" overflow="visible"><path d="m1.0781-2.2969c0 0.5 0.10156 0.92188 0.3125 1.2656 0.21875 0.34375 0.56641 0.51562 1.0469 0.51562 0.36328 0 0.66016-0.15625 0.89062-0.46875 0.23828-0.32031 0.35938-0.77344 0.35938-1.3594 0-0.60156-0.125-1.0469-0.375-1.3281-0.24219-0.28125-0.53906-0.42188-0.89062-0.42188-0.39844 0-0.71875 0.15234-0.96875 0.45312-0.25 0.30469-0.375 0.75-0.375 1.3438zm1.1875-2.5c0.36328 0 0.66406 0.078125 0.90625 0.23438 0.14453 0.085937 0.30469 0.24219 0.48438 0.46875v-2.3906h0.76562v6.4844h-0.71875v-0.65625c-0.1875 0.29297-0.40625 0.50781-0.65625 0.64062-0.25 0.125-0.53906 0.1875-0.85938 0.1875-0.53125 0-0.99219-0.21875-1.375-0.65625-0.375-0.44531-0.5625-1.0352-0.5625-1.7656 0-0.6875 0.17188-1.2812 0.51562-1.7812 0.35156-0.50781 0.85156-0.76562 1.5-0.76562z"/></symbol><symbol id="ao" overflow="visible"><path d="m3.1719-0.75c0.28906 0 0.53125-0.03125 0.71875-0.09375 0.34375-0.11328 0.625-0.33203 0.84375-0.65625 0.16406-0.25781 0.28906-0.59375 0.375-1 0.039063-0.23828 0.0625-0.46094 0.0625-0.67188 0-0.80078-0.16406-1.4219-0.48438-1.8594-0.3125-0.44531-0.82422-0.67188-1.5312-0.67188h-1.5469v4.9531zm-2.4531-5.7031h2.625c0.88281 0 1.5703 0.3125 2.0625 0.9375 0.4375 0.57422 0.65625 1.3047 0.65625 2.1875 0 0.6875-0.13281 1.3086-0.39062 1.8594-0.44922 0.98047-1.2305 1.4688-2.3438 1.4688h-2.6094z"/></symbol><symbol id="l" overflow="visible"><path d="m0.57812-4.6875h0.8125v4.6875h-0.8125zm0-1.7656h0.8125v0.89062h-0.8125z"/></symbol><symbol id="p" overflow="visible"><path d="m0.60938-4.7031h0.75v0.8125c0.0625-0.15625 0.21094-0.34766 0.45312-0.57812 0.23828-0.22656 0.51562-0.34375 0.82812-0.34375 0.00781 0 0.03125 0.00781 0.0625 0.015625h0.1875v0.84375c-0.042969-0.007813-0.085937-0.015625-0.125-0.015625-0.042969-0.007813-0.089844-0.015625-0.14062-0.015625-0.39844 0-0.70312 0.13281-0.92188 0.39062-0.21094 0.26172-0.3125 0.55859-0.3125 0.89062v2.7031h-0.78125z"/></symbol><symbol id="ah" overflow="visible"><path d="m2.3906-4.8438c0.53125 0 0.96094 0.13281 1.2969 0.39062 0.33203 0.26172 0.53516 0.70312 0.60938 1.3281h-0.78125c-0.042969-0.28906-0.14844-0.53125-0.3125-0.71875-0.16797-0.19531-0.4375-0.29688-0.8125-0.29688-0.5 0-0.85938 0.25-1.0781 0.75-0.13672 0.3125-0.20312 0.70312-0.20312 1.1719 0 0.48047 0.097656 0.88281 0.29688 1.2031 0.19531 0.3125 0.50781 0.46875 0.9375 0.46875 0.32031 0 0.57812-0.097656 0.76562-0.29688 0.19531-0.19531 0.33203-0.47266 0.40625-0.82812h0.78125c-0.09375 0.625-0.32031 1.0859-0.67188 1.375-0.34375 0.29297-0.79297 0.4375-1.3438 0.4375-0.61719 0-1.1055-0.22266-1.4688-0.67188-0.36719-0.45703-0.54688-1.0195-0.54688-1.6875 0-0.83203 0.19531-1.4766 0.59375-1.9375 0.40625-0.45703 0.91406-0.6875 1.5312-0.6875z"/></symbol><symbol id="i" overflow="visible"><path d="m0.73438-6.0156h0.79688v1.3125h0.76562v0.64062h-0.76562v3.0781c0 0.15625 0.054688 0.26562 0.17188 0.32812 0.0625 0.03125 0.16406 0.046875 0.3125 0.046875h0.10938c0.050781 0 0.10938-0.003906 0.17188-0.015625v0.625c-0.09375 0.03125-0.19531 0.050781-0.29688 0.0625-0.09375 0.0078125-0.19922 0.015625-0.3125 0.015625-0.36719 0-0.61719-0.09375-0.75-0.28125-0.13672-0.19531-0.20312-0.44141-0.20312-0.73438v-3.125h-0.64062v-0.64062h0.64062z"/></symbol><symbol id="c" overflow="visible"><path d="m2.4531-0.51562c0.51953 0 0.875-0.19531 1.0625-0.59375 0.19531-0.39453 0.29688-0.83594 0.29688-1.3281 0-0.4375-0.070312-0.78906-0.20312-1.0625-0.21875-0.4375-0.60547-0.65625-1.1562-0.65625-0.48047 0-0.82812 0.1875-1.0469 0.5625-0.21875 0.36719-0.32812 0.80859-0.32812 1.3281 0 0.5 0.10938 0.91797 0.32812 1.25 0.21875 0.33594 0.56641 0.5 1.0469 0.5zm0.03125-4.3281c0.60156 0 1.1133 0.20312 1.5312 0.60938 0.41406 0.40625 0.625 1 0.625 1.7812 0 0.76172-0.1875 1.3906-0.5625 1.8906-0.36719 0.49219-0.93359 0.73438-1.7031 0.73438-0.64844 0-1.1641-0.21875-1.5469-0.65625-0.375-0.4375-0.5625-1.0234-0.5625-1.7656 0-0.78906 0.19531-1.4219 0.59375-1.8906 0.40625-0.46875 0.94531-0.70312 1.625-0.70312z"/></symbol><symbol id="r" overflow="visible"></symbol><symbol id="ba" overflow="visible"><path d="m0.78125-5.4219c0.007813-0.33203 0.066406-0.57031 0.17188-0.71875 0.17578-0.26953 0.53125-0.40625 1.0625-0.40625h0.15625c0.050781 0 0.10938 0.00781 0.17188 0.015625v0.71875h-0.17188c-0.03125-0.00781-0.070312-0.015625-0.10938-0.015625-0.24219 0-0.38672 0.0625-0.4375 0.1875-0.042969 0.125-0.0625 0.44531-0.0625 0.95312h0.78125v0.625h-0.78125v4.0625h-0.78125v-4.0625h-0.65625v-0.625h0.65625z"/></symbol><symbol id="h" overflow="visible"><path d="m1.1875-1.25c0 0.23047 0.082031 0.41406 0.25 0.54688 0.16406 0.125 0.36328 0.1875 0.59375 0.1875 0.28125 0 0.55078-0.0625 0.8125-0.1875 0.4375-0.21875 0.65625-0.57031 0.65625-1.0625v-0.625c-0.09375 0.0625-0.21875 0.11719-0.375 0.15625-0.15625 0.03125-0.30859 0.058594-0.45312 0.078125l-0.46875 0.0625c-0.29297 0.042969-0.51172 0.10547-0.65625 0.1875-0.24219 0.13672-0.35938 0.35547-0.35938 0.65625zm1.9219-1.6094c0.17578-0.019531 0.29688-0.09375 0.35938-0.21875 0.03125-0.070313 0.046875-0.17578 0.046875-0.3125 0-0.25781-0.10156-0.45312-0.29688-0.57812-0.1875-0.125-0.46094-0.1875-0.8125-0.1875-0.41797 0-0.71094 0.11719-0.875 0.34375-0.09375 0.11719-0.15625 0.29688-0.1875 0.54688h-0.73438c0.007813-0.58203 0.19141-0.98828 0.54688-1.2188 0.36328-0.22656 0.78516-0.34375 1.2656-0.34375 0.55078 0 1.0039 0.10938 1.3594 0.32812 0.34375 0.21094 0.51562 0.53906 0.51562 0.98438v2.7031c0 0.085937 0.015625 0.15234 0.046875 0.20312 0.03125 0.054687 0.097656 0.078125 0.20312 0.078125h0.125c0.039063-0.007813 0.085938-0.019531 0.14062-0.03125v0.57812c-0.125 0.039062-0.21875 0.0625-0.28125 0.0625-0.0625 0.0078125-0.15234 0.015625-0.26562 0.015625-0.27344 0-0.46875-0.09375-0.59375-0.28125-0.0625-0.10156-0.10938-0.25-0.14062-0.4375-0.15625 0.21094-0.38672 0.39062-0.6875 0.54688-0.30469 0.15625-0.63672 0.23438-1 0.23438-0.4375 0-0.79688-0.13281-1.0781-0.39062-0.27344-0.26953-0.40625-0.60156-0.40625-1 0-0.4375 0.13281-0.77344 0.40625-1.0156 0.26953-0.23828 0.62891-0.38281 1.0781-0.4375z"/></symbol><symbol id="az" overflow="visible"><path d="m0.96875-4.7031 1.25 3.8281 1.3125-3.8281h0.875l-1.7812 4.7031h-0.84375l-1.7344-4.7031z"/></symbol><symbol id="n" overflow="visible"><path d="m0.60938-6.4531h0.78125v6.4531h-0.78125z"/></symbol><symbol id="aj" overflow="visible"><path d="m1.1094-6.4531 1.2188 5.25 1.4531-5.25h0.95312l1.4688 5.25 1.2031-5.25h0.96875l-1.7031 6.4531h-0.92188l-1.4844-5.3594-1.5 5.3594h-0.92188l-1.6875-6.4531z"/></symbol><symbol id="ay" overflow="visible"><path d="m0.375-2.9062h2.2031v0.8125h-2.2031z"/></symbol><symbol id="ax" overflow="visible"><path d="m3.5156-4.7031h0.875c-0.10547 0.30469-0.35156 0.99219-0.73438 2.0625-0.29297 0.8125-0.53125 1.4766-0.71875 1.9844-0.46094 1.1953-0.78125 1.9258-0.96875 2.1875-0.1875 0.25781-0.51172 0.39062-0.96875 0.39062-0.11719 0-0.20312-0.00781-0.26562-0.015625-0.054687 0-0.125-0.011719-0.21875-0.03125v-0.73438c0.13281 0.039063 0.23438 0.066406 0.29688 0.078125 0.0625 0.00781 0.11719 0.015625 0.17188 0.015625 0.14453 0 0.25-0.027344 0.3125-0.078125 0.070313-0.054687 0.13281-0.10938 0.1875-0.17188 0.007813-0.03125 0.054688-0.15625 0.14062-0.375 0.09375-0.21094 0.16016-0.36719 0.20312-0.46875l-1.7344-4.8438h0.89062l1.2656 3.8281z"/></symbol><symbol id="aw" overflow="visible"><path d="m4-2.6406-0.98438-2.8594-1.0312 2.8594zm-1.4375-3.8125h0.98438l2.3438 6.4531h-0.95312l-0.65625-1.9375h-2.5469l-0.70312 1.9375h-0.90625z"/></symbol><symbol id="av" overflow="visible"><path d="m0.9375-4.7031 0.90625 3.7031 0.92188-3.7031h0.89062l0.92188 3.6875 0.96875-3.6875h0.78125l-1.3594 4.7031h-0.82812l-0.95312-3.6406-0.92188 3.6406h-0.82812l-1.3594-4.7031z"/></symbol><symbol id="au" overflow="visible"><path d="m2.6562-6.5625c-0.46094 0.89844-0.75781 1.5547-0.89062 1.9688-0.21094 0.64844-0.3125 1.3906-0.3125 2.2344s0.11719 1.6211 0.35938 2.3281c0.14453 0.42578 0.42969 1.0508 0.85938 1.875h-0.53125c-0.42969-0.67969-0.69531-1.1094-0.79688-1.2969-0.09375-0.17969-0.20312-0.42188-0.32812-0.73438-0.16797-0.4375-0.28125-0.89844-0.34375-1.3906-0.03125-0.25781-0.046875-0.50391-0.046875-0.73438 0-0.86328 0.13281-1.6328 0.40625-2.3125 0.17578-0.4375 0.53516-1.082 1.0781-1.9375z"/></symbol><symbol id="w" overflow="visible"><path d="m3.4688-6.625c1.1445 0 1.9883 0.36719 2.5312 1.0938 0.42578 0.57422 0.64062 1.3047 0.64062 2.1875 0 0.96875-0.24609 1.7734-0.73438 2.4062-0.57422 0.75-1.3906 1.125-2.4531 1.125-0.99219 0-1.7734-0.32812-2.3438-0.98438-0.5-0.63281-0.75-1.4297-0.75-2.3906 0-0.875 0.21094-1.625 0.64062-2.25 0.5625-0.78906 1.3828-1.1875 2.4688-1.1875zm0.09375 6.0312c0.76953 0 1.3281-0.27344 1.6719-0.82812 0.34375-0.55078 0.51562-1.1875 0.51562-1.9062 0-0.75781-0.19922-1.3672-0.59375-1.8281-0.39844-0.46875-0.9375-0.70312-1.625-0.70312-0.67969 0-1.2305 0.23047-1.6562 0.6875-0.41797 0.46094-0.625 1.1367-0.625 2.0312 0 0.71875 0.17969 1.3242 0.54688 1.8125 0.36328 0.49219 0.95312 0.73438 1.7656 0.73438z"/></symbol><symbol id="q" overflow="visible"><path d="m2.5625-0.53125c0.375 0 0.67969-0.14844 0.92188-0.45312 0.25-0.3125 0.375-0.77344 0.375-1.3906 0-0.375-0.058594-0.69531-0.17188-0.96875-0.19922-0.51953-0.57422-0.78125-1.125-0.78125-0.54297 0-0.91797 0.27344-1.125 0.8125-0.10547 0.30469-0.15625 0.67969-0.15625 1.125 0 0.36719 0.050781 0.67188 0.15625 0.92188 0.20703 0.49219 0.58203 0.73438 1.125 0.73438zm-2.0469-4.1562h0.76562v0.625c0.16406-0.20703 0.34375-0.375 0.53125-0.5 0.25781-0.17578 0.57031-0.26562 0.9375-0.26562 0.53125 0 0.97656 0.21094 1.3438 0.625 0.375 0.40625 0.5625 0.99219 0.5625 1.75 0 1.0234-0.26562 1.75-0.79688 2.1875-0.34375 0.28125-0.74219 0.42188-1.1875 0.42188-0.35547 0-0.65234-0.078125-0.89062-0.23438-0.14844-0.082031-0.30469-0.23438-0.46875-0.45312v2.4062h-0.79688z"/></symbol><symbol id="at" overflow="visible"><path d="m0.3125 1.8438c0.46875-0.91797 0.76953-1.5859 0.90625-2 0.19531-0.625 0.29688-1.3594 0.29688-2.2031 0-0.85156-0.11719-1.6289-0.34375-2.3281-0.15625-0.4375-0.44922-1.0625-0.875-1.875h0.53125c0.44531 0.71875 0.71875 1.168 0.8125 1.3438 0.10156 0.16797 0.20703 0.39844 0.3125 0.6875 0.14453 0.36719 0.24219 0.73047 0.29688 1.0938 0.0625 0.35547 0.09375 0.69922 0.09375 1.0312 0 0.86719-0.13672 1.6367-0.40625 2.3125-0.17969 0.4375-0.53906 1.082-1.0781 1.9375z"/></symbol><symbol id="as" overflow="visible"><path d="m1.25-2.0781c0.019531 0.36719 0.10938 0.66406 0.26562 0.89062 0.28906 0.42969 0.80078 0.64062 1.5312 0.64062 0.33203 0 0.63281-0.046875 0.90625-0.14062 0.51953-0.1875 0.78125-0.51562 0.78125-0.98438 0-0.34375-0.10938-0.59375-0.32812-0.75-0.23047-0.14453-0.57812-0.26953-1.0469-0.375l-0.875-0.20312c-0.57422-0.125-0.98047-0.26562-1.2188-0.42188-0.40625-0.26953-0.60938-0.67188-0.60938-1.2031 0-0.58203 0.19531-1.0625 0.59375-1.4375 0.40625-0.375 0.97266-0.5625 1.7031-0.5625 0.67578 0 1.25 0.16797 1.7188 0.5 0.47656 0.32422 0.71875 0.84375 0.71875 1.5625h-0.8125c-0.054687-0.34375-0.14844-0.60938-0.28125-0.79688-0.27344-0.33203-0.72656-0.5-1.3594-0.5-0.52344 0-0.89844 0.10938-1.125 0.32812-0.21875 0.21094-0.32812 0.46094-0.32812 0.75 0 0.3125 0.12891 0.54297 0.39062 0.6875 0.17578 0.09375 0.56641 0.21484 1.1719 0.35938l0.90625 0.20312c0.4375 0.10547 0.77344 0.24219 1.0156 0.40625 0.40625 0.30469 0.60938 0.74219 0.60938 1.3125 0 0.71875-0.26172 1.2344-0.78125 1.5469-0.52344 0.30078-1.125 0.45312-1.8125 0.45312-0.80469 0-1.4297-0.20312-1.875-0.60938-0.46094-0.40625-0.68359-0.95703-0.67188-1.6562z"/></symbol><symbol id="ar" overflow="visible"><path d="m1.375-4.7031v3.125c0 0.24219 0.035156 0.43359 0.10938 0.57812 0.14453 0.28125 0.40625 0.42188 0.78125 0.42188 0.55078 0 0.92578-0.24219 1.125-0.73438 0.11328-0.25781 0.17188-0.61719 0.17188-1.0781v-2.3125h0.78125v4.7031h-0.73438v-0.6875c-0.10547 0.17969-0.23047 0.32812-0.375 0.45312-0.30469 0.23828-0.67188 0.35938-1.1094 0.35938-0.66797 0-1.1211-0.22266-1.3594-0.67188-0.13672-0.23828-0.20312-0.55469-0.20312-0.95312v-3.2031z"/></symbol><symbol id="aq" overflow="visible"><path d="m0.57812-4.7031h0.78125v0.67188c0.1875-0.23828 0.35938-0.41016 0.51562-0.51562 0.25781-0.17578 0.55469-0.26562 0.89062-0.26562 0.375 0 0.67578 0.09375 0.90625 0.28125 0.125 0.10547 0.23828 0.26172 0.34375 0.46875 0.17578-0.25781 0.38281-0.44531 0.625-0.5625 0.23828-0.125 0.50391-0.1875 0.79688-0.1875 0.63281 0 1.0664 0.23047 1.2969 0.6875 0.11328 0.25 0.17188 0.57812 0.17188 0.98438v3.1406h-0.8125v-3.2656c0-0.3125-0.078125-0.52344-0.23438-0.64062-0.15625-0.125-0.35156-0.1875-0.57812-0.1875-0.3125 0-0.58594 0.10547-0.8125 0.3125-0.21875 0.21094-0.32812 0.55859-0.32812 1.0469v2.7344h-0.79688v-3.0781c0-0.3125-0.042969-0.53906-0.125-0.6875-0.11719-0.21875-0.33984-0.32812-0.67188-0.32812-0.29297 0-0.5625 0.11719-0.8125 0.34375-0.24219 0.23047-0.35938 0.64844-0.35938 1.25v2.5h-0.79688z"/></symbol><symbol id="an" overflow="visible"><path d="m2.5938-2.5781h1.7344l-0.85938-2.7031zm0.09375-4.2656h1.6094l2.4219 6.8438h-1.5469l-0.4375-1.4062h-2.5312l-0.46875 1.4062h-1.5z"/></symbol><symbol id="a" overflow="visible"></symbol><symbol id="y" overflow="visible"><path d="m0.21875-3.2812h2.6562v1.2656h-2.6562z"/></symbol><symbol id="o" overflow="visible"><path d="m2.1094-5.6562v4.4688h1.3125c0.67578 0 1.1484-0.33203 1.4219-1 0.14453-0.36328 0.21875-0.79688 0.21875-1.2969 0-0.69531-0.10938-1.2344-0.32812-1.6094s-0.65625-0.5625-1.3125-0.5625zm1.5625-1.1875c0.42578 0.011719 0.78125 0.0625 1.0625 0.15625 0.47656 0.15625 0.86328 0.44531 1.1562 0.85938 0.23828 0.34375 0.39844 0.71484 0.48438 1.1094 0.09375 0.39844 0.14062 0.77734 0.14062 1.1406 0 0.90625-0.1875 1.6719-0.5625 2.2969-0.49219 0.85547-1.25 1.2812-2.2812 1.2812h-2.9531v-6.8438z"/></symbol><symbol id="b" overflow="visible"><path d="m2.6094-4.0938c-0.30469 0-0.54297 0.09375-0.71875 0.28125-0.16797 0.1875-0.27344 0.44922-0.3125 0.78125h2.0625c-0.023437-0.35156-0.13281-0.61719-0.32812-0.79688-0.1875-0.17578-0.42188-0.26562-0.70312-0.26562zm0-1.0938c0.42578 0 0.80469 0.078125 1.1406 0.23438 0.33203 0.15625 0.60938 0.40625 0.82812 0.75 0.19531 0.30469 0.32812 0.65234 0.39062 1.0469 0.03125 0.23047 0.046875 0.5625 0.046875 1h-3.4688c0.019531 0.5 0.17969 0.85547 0.48438 1.0625 0.17578 0.125 0.39453 0.1875 0.65625 0.1875 0.26953 0 0.48828-0.078125 0.65625-0.23438 0.09375-0.082031 0.17578-0.19531 0.25-0.34375h1.3438c-0.03125 0.30469-0.1875 0.60547-0.46875 0.90625-0.42969 0.5-1.0312 0.75-1.8125 0.75-0.64844 0-1.2148-0.20703-1.7031-0.625-0.49219-0.41406-0.73438-1.0938-0.73438-2.0312 0-0.875 0.21875-1.5391 0.65625-2 0.44531-0.46875 1.0234-0.70312 1.7344-0.70312z"/></symbol><symbol id="s" overflow="visible"><path d="m1.6406-1.6094c0.03125 0.23047 0.09375 0.39844 0.1875 0.5 0.16406 0.17969 0.46875 0.26562 0.90625 0.26562 0.25781 0 0.46094-0.035156 0.60938-0.10938 0.15625-0.082031 0.23438-0.20312 0.23438-0.35938 0-0.14453-0.058594-0.25781-0.17188-0.34375-0.125-0.070313-0.58984-0.20312-1.3906-0.39062-0.5625-0.14453-0.96484-0.32031-1.2031-0.53125-0.24219-0.21875-0.35938-0.52344-0.35938-0.92188 0-0.45703 0.17969-0.85156 0.54688-1.1875 0.375-0.34375 0.89453-0.51562 1.5625-0.51562 0.625 0 1.1328 0.13281 1.5312 0.39062 0.39453 0.25 0.625 0.68359 0.6875 1.2969h-1.3281c-0.011719-0.16406-0.058594-0.30078-0.14062-0.40625-0.14844-0.17578-0.39062-0.26562-0.73438-0.26562-0.29297 0-0.5 0.046875-0.625 0.14062-0.11719 0.085937-0.17188 0.1875-0.17188 0.3125 0 0.14844 0.0625 0.25781 0.1875 0.32812 0.13281 0.074219 0.59375 0.19531 1.375 0.35938 0.53125 0.125 0.92578 0.3125 1.1875 0.5625 0.25781 0.26172 0.39062 0.57812 0.39062 0.95312 0 0.5-0.1875 0.91406-0.5625 1.2344-0.375 0.3125-0.94922 0.46875-1.7188 0.46875-0.80469 0-1.3906-0.16797-1.7656-0.5-0.375-0.33203-0.5625-0.75781-0.5625-1.2812z"/></symbol><symbol id="d" overflow="visible"><path d="m1.9688-5.6562h-1.3281v-1.2188h1.3281zm-1.3281 0.59375h1.3281v5.0625h-1.3281z"/></symbol><symbol id="x" overflow="visible"><path d="m2.7812-1.0781c0.3125 0 0.57031-0.11328 0.78125-0.34375 0.21875-0.23828 0.32812-0.61328 0.32812-1.125 0-0.47656-0.10547-0.84375-0.3125-1.0938-0.19922-0.25-0.46484-0.375-0.79688-0.375-0.46875 0-0.79297 0.21484-0.96875 0.64062-0.09375 0.24219-0.14062 0.52734-0.14062 0.85938 0 0.30469 0.050781 0.57031 0.15625 0.79688 0.17578 0.42969 0.49219 0.64062 0.95312 0.64062zm-0.32812-4.0938c0.25781 0 0.48438 0.039062 0.67188 0.10938 0.32031 0.13672 0.58203 0.38281 0.78125 0.73438v-0.73438h1.2812v4.7969c0 0.65625-0.10938 1.1484-0.32812 1.4844-0.375 0.5625-1.1016 0.84375-2.1719 0.84375-0.64844 0-1.1797-0.125-1.5938-0.375-0.40625-0.25-0.63281-0.63281-0.67188-1.1406h1.4375c0.039063 0.15625 0.10156 0.26953 0.1875 0.34375 0.14453 0.11328 0.38281 0.17188 0.71875 0.17188 0.47656 0 0.79688-0.15625 0.95312-0.46875 0.10156-0.21094 0.15625-0.55469 0.15625-1.0312v-0.32812c-0.125 0.21875-0.26172 0.38281-0.40625 0.48438-0.26172 0.19922-0.60547 0.29688-1.0312 0.29688-0.64844 0-1.1641-0.22266-1.5469-0.67188-0.38672-0.45703-0.57812-1.0781-0.57812-1.8594 0-0.75 0.17969-1.3789 0.54688-1.8906 0.375-0.50781 0.90625-0.76562 1.5938-0.76562z"/></symbol><symbol id="j" overflow="visible"><path d="m3.4219-5.1719c0.51953 0 0.94531 0.13672 1.2812 0.40625 0.33203 0.27344 0.5 0.72656 0.5 1.3594v3.4062h-1.3594v-3.0781c0-0.25781-0.039062-0.46094-0.10938-0.60938-0.125-0.25781-0.37109-0.39062-0.73438-0.39062-0.44922 0-0.75781 0.19531-0.92188 0.57812-0.09375 0.19922-0.14062 0.45312-0.14062 0.76562v2.7344h-1.3125v-5.0469h1.2812v0.73438c0.16406-0.25781 0.32812-0.44531 0.48438-0.5625 0.26953-0.19531 0.61328-0.29688 1.0312-0.29688z"/></symbol><symbol id="e" overflow="visible"><path d="m2.8906-0.9375c0.38281 0 0.67969-0.13281 0.89062-0.40625 0.20703-0.28125 0.3125-0.67188 0.3125-1.1719 0-0.50781-0.10547-0.89844-0.3125-1.1719-0.21094-0.26953-0.50781-0.40625-0.89062-0.40625-0.38672 0-0.6875 0.13672-0.90625 0.40625-0.21094 0.27344-0.3125 0.66406-0.3125 1.1719 0 0.5 0.10156 0.89062 0.3125 1.1719 0.21875 0.27344 0.51953 0.40625 0.90625 0.40625zm2.5781-1.5781c0 0.74219-0.21484 1.375-0.64062 1.9062-0.42969 0.52344-1.0742 0.78125-1.9375 0.78125-0.86719 0-1.5117-0.25781-1.9375-0.78125-0.42969-0.53125-0.64062-1.1641-0.64062-1.9062 0-0.72656 0.21094-1.3594 0.64062-1.8906 0.42578-0.53906 1.0703-0.8125 1.9375-0.8125 0.86328 0 1.5078 0.27344 1.9375 0.8125 0.42578 0.53125 0.64062 1.1641 0.64062 1.8906z"/></symbol><symbol id="am" overflow="visible"><path d="m0.70312-6.8438h1.5l2.7188 4.7812v-4.7812h1.3281v6.8438h-1.4219l-2.7969-4.8594v4.8594h-1.3281z"/></symbol><symbol id="g" overflow="visible"><path d="m0.09375-4.0625v-0.95312h0.70312v-1.4062h1.3125v1.4062h0.82812v0.95312h-0.82812v2.6719c0 0.21094 0.023438 0.33984 0.078125 0.39062 0.050781 0.042969 0.21094 0.0625 0.48438 0.0625h0.125 0.14062v0.98438l-0.625 0.015625c-0.625 0.03125-1.0547-0.070312-1.2812-0.3125-0.15625-0.15625-0.23438-0.39062-0.23438-0.70312v-3.1094z"/></symbol><symbol id="ag" overflow="visible"><path d="m0.42188-3.3594c0-1.1953 0.32031-2.1172 0.96875-2.7656 0.55078-0.5625 1.2578-0.84375 2.125-0.84375 1.1445 0 1.9844 0.38281 2.5156 1.1406 0.28906 0.41797 0.45312 0.83984 0.48438 1.2656h-1.4375c-0.09375-0.32031-0.21484-0.56641-0.35938-0.73438-0.26172-0.30078-0.64844-0.45312-1.1562-0.45312-0.52344 0-0.93359 0.21484-1.2344 0.64062-0.29297 0.41797-0.4375 1.0078-0.4375 1.7656 0 0.77344 0.15625 1.3516 0.46875 1.7344 0.32031 0.375 0.72656 0.5625 1.2188 0.5625 0.5 0 0.87891-0.16016 1.1406-0.48438 0.14453-0.17578 0.26562-0.44141 0.35938-0.79688h1.4219c-0.125 0.75-0.44531 1.3594-0.95312 1.8281-0.51172 0.46094-1.1641 0.6875-1.9531 0.6875-0.99219 0-1.7656-0.3125-2.3281-0.9375-0.5625-0.63281-0.84375-1.5039-0.84375-2.6094z"/></symbol><symbol id="k" overflow="visible"><path d="m1.9688 0h-1.3281v-6.8438h1.3281z"/></symbol><symbol id="v" overflow="visible"><path d="m3.4062-2.4531c-0.085937 0.054687-0.16797 0.09375-0.25 0.125-0.085937 0.03125-0.20312 0.0625-0.35938 0.09375l-0.29688 0.046875c-0.27344 0.054687-0.46875 0.11719-0.59375 0.1875-0.21094 0.11719-0.3125 0.30469-0.3125 0.5625 0 0.21875 0.0625 0.38281 0.1875 0.48438 0.125 0.10547 0.28125 0.15625 0.46875 0.15625 0.28125 0 0.53906-0.082031 0.78125-0.25 0.23828-0.16406 0.36328-0.47266 0.375-0.92188zm-0.79688-0.625c0.23828-0.03125 0.41016-0.066406 0.51562-0.10938 0.1875-0.082031 0.28125-0.20703 0.28125-0.375 0-0.20703-0.074219-0.34766-0.21875-0.42188-0.13672-0.082031-0.34375-0.125-0.625-0.125-0.3125 0-0.53906 0.078125-0.67188 0.23438-0.085937 0.10547-0.14062 0.25781-0.17188 0.45312h-1.2812c0.03125-0.4375 0.15625-0.80078 0.375-1.0938 0.34375-0.4375 0.94141-0.65625 1.7969-0.65625 0.55078 0 1.0391 0.10938 1.4688 0.32812 0.4375 0.21875 0.65625 0.63281 0.65625 1.2344v2.3281 0.57812c0.00781 0.17969 0.035156 0.29688 0.078125 0.35938 0.039063 0.0625 0.10938 0.11719 0.20312 0.15625v0.1875h-1.4375c-0.042969-0.10156-0.074219-0.19531-0.09375-0.28125-0.011719-0.09375-0.023437-0.19531-0.03125-0.3125-0.1875 0.19922-0.39844 0.36719-0.625 0.5-0.29297 0.16406-0.61719 0.25-0.96875 0.25-0.46094 0-0.83984-0.13281-1.1406-0.39062-0.29297-0.25781-0.4375-0.62891-0.4375-1.1094 0-0.625 0.23828-1.0703 0.71875-1.3438 0.25781-0.15625 0.64453-0.26562 1.1562-0.32812z"/></symbol><symbol id="u" overflow="visible"><path d="m3.3594-5.1719h0.0625 0.125v1.3594c-0.085937-0.007813-0.16406-0.015625-0.23438-0.015625-0.0625-0.007813-0.11719-0.015625-0.15625-0.015625-0.53125 0-0.88672 0.17969-1.0625 0.53125-0.10547 0.1875-0.15625 0.48438-0.15625 0.89062v2.4219h-1.3281v-5.0625h1.25v0.89062c0.20703-0.34375 0.38281-0.57031 0.53125-0.6875 0.25-0.20703 0.57031-0.3125 0.96875-0.3125z"/></symbol><symbol id="af" overflow="visible"><path d="m0.82812 0.96875 0.15625 0.015625c0.13281 0 0.25781-0.011719 0.375-0.03125 0.11328-0.011719 0.21094-0.042969 0.29688-0.09375 0.070313-0.054687 0.14062-0.16406 0.20312-0.32812 0.070313-0.16797 0.10156-0.27344 0.09375-0.3125l-1.8594-5.2812h1.4688l1.1094 3.7344 1.0469-3.7344h1.4062l-1.7344 4.9844c-0.33594 0.95703-0.60156 1.5508-0.79688 1.7812-0.19922 0.22656-0.58984 0.34375-1.1719 0.34375h-0.28125c-0.074219 0-0.17969-0.00781-0.3125-0.015625z"/></symbol><symbol id="ae" overflow="visible"><path d="m2.0312 0h-1.4219v-6.8438h1.4219z"/></symbol><symbol id="ad" overflow="visible"><path d="m2.4844-5.1719c0.30078 0 0.57031 0.070312 0.8125 0.20312 0.23828 0.13672 0.42969 0.32031 0.57812 0.54688v-2.4062h1.3438v6.8281h-1.2812v-0.70312c-0.1875 0.30469-0.40625 0.52344-0.65625 0.65625-0.24219 0.13281-0.53906 0.20312-0.89062 0.20312-0.59375 0-1.0938-0.23828-1.5-0.71875-0.39844-0.47656-0.59375-1.0859-0.59375-1.8281 0-0.86328 0.19531-1.5391 0.59375-2.0312 0.39453-0.5 0.92578-0.75 1.5938-0.75zm0.28125 4.2188c0.375 0 0.66016-0.14062 0.85938-0.42188 0.19531-0.28125 0.29688-0.64062 0.29688-1.0781 0-0.61328-0.15625-1.0547-0.46875-1.3281-0.19922-0.15625-0.42188-0.23438-0.67188-0.23438-0.38672 0-0.67188 0.14844-0.85938 0.4375-0.17969 0.29297-0.26562 0.65234-0.26562 1.0781 0 0.46875 0.085938 0.84375 0.26562 1.125 0.1875 0.28125 0.46875 0.42188 0.84375 0.42188z"/></symbol><symbol id="t" overflow="visible"><path d="m3.6406-3.25c-0.03125-0.1875-0.09375-0.35156-0.1875-0.5-0.15625-0.20703-0.39062-0.3125-0.70312-0.3125-0.4375 0-0.74219 0.22656-0.90625 0.67188-0.085937 0.23047-0.125 0.54297-0.125 0.9375 0 0.36719 0.039063 0.66406 0.125 0.89062 0.15625 0.41797 0.45312 0.625 0.89062 0.625 0.3125 0 0.53125-0.082031 0.65625-0.25 0.125-0.16406 0.20312-0.37891 0.23438-0.64062h1.3594c-0.03125 0.39844-0.17969 0.77734-0.4375 1.1406-0.41797 0.57422-1.0312 0.85938-1.8438 0.85938s-1.4141-0.23828-1.7969-0.71875c-0.38672-0.47656-0.57812-1.1016-0.57812-1.875 0-0.875 0.20703-1.5508 0.625-2.0312 0.42578-0.47656 1.0156-0.71875 1.7656-0.71875 0.63281 0 1.1484 0.14062 1.5469 0.42188 0.40625 0.28125 0.64453 0.78125 0.71875 1.5z"/></symbol><symbol id="ac" overflow="visible"><path d="m3.4062-5.1875c0.3125 0 0.59375 0.058594 0.84375 0.17188 0.25781 0.10547 0.47266 0.26562 0.64062 0.48438 0.13281 0.1875 0.21875 0.38672 0.25 0.59375 0.03125 0.19922 0.046875 0.52344 0.046875 0.96875v2.9688h-1.3438v-3.0781c0-0.26953-0.046875-0.48828-0.14062-0.65625-0.125-0.23828-0.35547-0.35938-0.6875-0.35938-0.35547 0-0.625 0.12109-0.8125 0.35938-0.17969 0.23047-0.26562 0.5625-0.26562 1v2.7344h-1.3125v-6.8125h1.3125v2.4219c0.19531-0.30078 0.42188-0.50781 0.67188-0.625 0.25-0.11328 0.51562-0.17188 0.79688-0.17188z"/></symbol><symbol id="ab" overflow="visible"><path d="m2.4844-6.9062c0.082031 0 0.15625 0.00781 0.21875 0.015625 0.070313 0 0.16406 0.00781 0.28125 0.015625v1.0781c-0.074219-0.007813-0.19922-0.015625-0.375-0.015625-0.16797-0.007813-0.28906 0.027344-0.35938 0.10938-0.0625 0.085937-0.09375 0.17188-0.09375 0.26562v0.42188h0.85938v0.9375h-0.85938v4.0781h-1.3281v-4.0781h-0.73438v-0.9375h0.73438v-0.3125c0-0.53906 0.085938-0.91406 0.26562-1.125 0.1875-0.30078 0.64844-0.45312 1.3906-0.45312z"/></symbol><symbol id="aa" overflow="visible"><path d="m0.71875-6.8281h4.8594v1.2031h-3.4375v1.5781h3v1.1875h-3v2.8594h-1.4219z"/></symbol><symbol id="z" overflow="visible"><path d="m3-5.0625h1.3438l0.76562 3.6406 0.79688-3.6406h1.375l-1.4688 5.0625h-1.3594l-0.79688-3.6875-0.79688 3.6875h-1.375l-1.4219-5.0625h1.4219l0.78125 3.6406z"/></symbol><symbol id="al" overflow="visible"><path d="m2.1094-5.6562v1.5156h1.6875c0.28906 0 0.53125-0.054688 0.71875-0.17188 0.1875-0.11328 0.28125-0.3125 0.28125-0.59375 0-0.32031-0.12109-0.53516-0.35938-0.64062-0.21875-0.070313-0.49609-0.10938-0.82812-0.10938zm0 2.6406v1.8281h1.6875c0.28906 0 0.51953-0.039063 0.6875-0.125 0.30078-0.14453 0.45312-0.42578 0.45312-0.84375 0-0.35156-0.14844-0.59766-0.4375-0.73438-0.15625-0.070313-0.38672-0.11328-0.6875-0.125zm1.9531-3.8281c0.84375 0.023437 1.4375 0.26562 1.7812 0.73438 0.21875 0.29297 0.32812 0.64062 0.32812 1.0469 0 0.41797-0.10938 0.75-0.32812 1-0.11719 0.14844-0.28906 0.27734-0.51562 0.39062 0.35156 0.125 0.61719 0.32812 0.79688 0.60938 0.17578 0.27344 0.26562 0.60547 0.26562 1 0 0.40625-0.10547 0.77344-0.3125 1.0938-0.125 0.21094-0.28906 0.38672-0.48438 0.53125-0.21875 0.16797-0.48047 0.28125-0.78125 0.34375-0.29297 0.0625-0.61719 0.09375-0.96875 0.09375h-3.0938v-6.8438z"/></symbol></defs><g transform="translate(-54.487 -83.568)"><g fill="none"><g stroke="#211e1e"><path transform="matrix(1 0 0 -1 83.787 656.59)" d="m-0.0019438 9.5625e-4c22.391 25.207 52.523 46.656 87.145 62.023 39.605 17.578 82.891 26.492 128.65 26.492h102.57l74.426 19.352h81.426" stroke-miterlimit="10"/><path transform="matrix(1 0 0 -1 66.938 337.78)" d="m0 9.5625e-4 115.22 93.336c23.148 17.012 57.246 31.242 101.12 31.242" stroke-miterlimit="10" stroke-width="39.559"/><path transform="matrix(1 0 0 -1 558 204.06)" d="m0 0.0019062h-497" stroke-width="57.84"/></g><path transform="matrix(1 0 0 -1 558 204.06)" d="m0 0.0019062h-497" stroke="#b0b0b0" stroke-width="55.84"/><path transform="matrix(1 0 0 -1 61 184.78)" d="m0-4.5e-4h497" stroke="#facc2b" stroke-miterlimit="10" stroke-width="2"/><path transform="matrix(1 0 0 -1 558 204.06)" d="m0 0.0019062h-497" stroke="#b0b0b0" stroke-width="36.558"/><path transform="matrix(1 0 0 -1 558 204.06)" d="m0 0.0019062h-497" stroke="#fff" stroke-dasharray="14.4, 43.2" stroke-width="2"/><g stroke-miterlimit="10"><path transform="matrix(1 0 0 -1 66.938 337.78)" d="m0 9.5625e-4 115.22 93.336c23.148 17.012 57.246 31.242 101.12 31.242" stroke="#b0b0b0" stroke-width="37.559"/><g stroke-width="2"><path transform="matrix(1 0 0 -1 558 223.34)" d="m0-4.375e-5h-274.72c-45.531 0-76.73-15.809-94.934-29.133l-114.59-93.723" stroke="#fff"/><path transform="matrix(1 0 0 -1 175.96 236.41)" d="m9.375e-4 0.0014438 0.19141 0.14063c5.7656 4.2344 12.684 8.6992 20.77 12.93h-135.92" stroke="#fff"/><path transform="matrix(1 0 0 -1 60.118 329.36)" d="m-5.125e-4 2.5e-5 115.84 92.949" stroke="#facc2b"/></g></g></g><g fill="#211e1e"><path d="m181.5 335.87 2.2617 0.76172v-2.6641h1.9023v2.6641l2.2812-0.76172 0.51563 1.6367-2.3281 0.71484 1.5195 2.1719-1.4102 0.98438-1.543-2.0391-1.5195 2.0391-1.4102-0.98438 1.543-2.1719-2.3516-0.71484z"/><path d="m189.91 335.87 2.2617 0.76172v-2.6641h1.9023v2.6641l2.2812-0.76172 0.51563 1.6367-2.3281 0.71484 1.5195 2.1719-1.4102 0.98438-1.543-2.0391-1.5195 2.0391-1.4102-0.98438 1.543-2.1719-2.3516-0.71484z"/><path d="m227.78 590.37 2.2617 0.76172v-2.6641h1.9024v2.6641l2.2812-0.76172 0.51562 1.6367-2.3281 0.71485 1.5195 2.168-1.4102 0.98829-1.543-2.0391-1.5195 2.0391-1.4102-0.98829 1.543-2.168-2.3516-0.71485z"/><path d="m135.33 239.61-2.3477 0.71484 1.543 2.1719-1.4102 0.98437-1.5234-2.0352-1.543 2.0352-1.4102-0.98437 1.5234-2.1719-2.3281-0.71484 0.51172-1.6328 2.2852 0.76172v-2.6641h1.9024v2.6641l2.2578-0.76172z"/></g><g fill="none"><path transform="matrix(1 0 0 -1 558 113.49)" d="m0-9.8125e-4h-497" stroke="#211e1e" stroke-width="59.84"/><path transform="matrix(1 0 0 -1 558 113.49)" d="m0-9.8125e-4h-497" stroke="#b0b0b0" stroke-width="57.84"/><path transform="matrix(1 0 0 -1 558 113.49)" d="m0-9.8125e-4h-497" stroke="#b0b0b0" stroke-width="36.558"/><path transform="matrix(1 0 0 -1 558 113.49)" d="m0-9.8125e-4h-497" stroke="#fff" stroke-dasharray="14.4, 43.2" stroke-width="2"/></g><g><path d="m285.5 165.9c-1.0352 0-1.875-0.83985-1.875-1.875v-10.5c0-1.0352 0.83985-1.875 1.875-1.875h38.5c1.0352 0 1.875 0.83984 1.875 1.875v10.5c0 1.0352-0.83984 1.875-1.875 1.875z" fill="#fff"/><path d="m324 151.52h-38.5c-1.1016 0-2 0.89843-2 2v10.5c0 1.1016 0.89844 2 2 2h38.5c1.1016 0 2-0.89844 2-2v-10.5c0-1.1016-0.89843-2-2-2m0 0.25c0.96485 0 1.75 0.78906 1.75 1.75v10.5c0 0.96093-0.78515 1.75-1.75 1.75h-38.5c-0.96093 0-1.75-0.78907-1.75-1.75v-10.5c0-0.96094 0.78907-1.75 1.75-1.75h38.5" fill="#211e1e"/><path d="m285.5 165.19c-0.64453 0-1.168-0.52344-1.168-1.168v-10.5c0-0.64453 0.52344-1.168 1.168-1.168h38.5c0.64453 0 1.168 0.52344 1.168 1.168v10.5c0 0.64453-0.52344 1.168-1.168 1.168z" fill="#211e1e"/><path d="m316.62 161.84h-29.371v-6.125h29.371z" fill="#fff"/></g><g fill="#211e1e"><path d="m295.57 161.11-1.7852-3.1602v3.1602h-0.73829v-4.6641h0.73829l1.7031 2.9805v-2.9805h0.73438v4.6641z"/><path d="m291 157.47c-0.14844-0.2461-0.32813-0.34375-0.60938-0.35938-0.35937-0.0156-0.58984 0.16016-0.75391 0.57031-0.11328 0.28125-0.17968 0.70703-0.17968 1.0977 0 0.49219 0.0976 1 0.27734 1.2969 0.14844 0.24219 0.34375 0.35938 0.64063 0.35938 0.34375 0 0.55859-0.17969 0.72265-0.58984 0.0977-0.2461 0.17969-0.70704 0.17969-1.0664 0-0.52344-0.0977-1-0.27734-1.3086m0.50781 3.1914c-0.26172 0.35938-0.64063 0.52344-1.1328 0.52344-0.65625 0-1.0664-0.26172-1.3477-0.83203-0.19531-0.39453-0.32813-1.0156-0.32813-1.5742 0-0.76953 0.19922-1.457 0.51172-1.8984 0.27735-0.35937 0.65625-0.52344 1.1953-0.52344 0.59375 0 1.0039 0.26172 1.2969 0.83594 0.19922 0.40625 0.3125 0.9961 0.3125 1.5859 0 0.73828-0.17969 1.4766-0.50781 1.8828"/><path d="m297.34 161.11v-4.6641h2.7461v0.73437h-2.0117v1.1484h1.3594v0.7539h-1.3594v1.2774h2.1602v0.75z"/><path d="m306.04 161.11h-0.65625l-0.73829-2.9961-0.72265 2.9961h-0.65625l-0.69141-4.6641h0.75781l0.35938 2.4531 0.59375-2.4531h0.72266l0.60546 2.4531 0.36329-2.4531h0.7539z"/><path d="m313.07 159.08v2.0312h-0.74219v-2.0312l-1.6445-2.6367h0.88672l1.1211 1.8008 1.1367-1.8008h0.87109z"/><path d="m309 157.73-0.47656 1.3086h0.9375zm1.1875 3.375-0.46094-1.3125h-1.4688l-0.46094 1.3125h-0.78906l1.6133-4.668h0.74219l1.6133 4.668z"/></g><g><path d="m315.56 153.38c-0.1289-0.0898-0.28906-0.14453-0.45703-0.14453-0.44531 0-0.80469 0.35937-0.80469 0.80469 0 0.10156 0.0195 0.19921 0.0547 0.28515l1.6953 4.4531-1.6953 4.4531c-0.0351 0.0898-0.0547 0.1836-0.0547 0.28516 0 0.44531 0.35938 0.80469 0.80469 0.80469 0.16797 0 0.32813-0.0547 0.45703-0.14454l7.8555-5.3984z" fill="#fff"/><path d="m209.48 301.18c-0.57812 0-1.1133-0.25782-1.4688-0.70703l-6.5312-8.2227c-0.64453-0.80859-0.50781-1.9922 0.30078-2.6367l30.145-23.945c0.32813-0.26172 0.74219-0.40625 1.1641-0.40625 0.57812 0 1.1133 0.25781 1.4688 0.70703l6.5312 8.2227c0.3125 0.39062 0.44922 0.8789 0.39453 1.3789-0.0586 0.4961-0.30469 0.94141-0.69531 1.2539l-30.145 23.949c-0.32812 0.26172-0.74218 0.40625-1.1641 0.40625" fill="#fff"/><path d="m233.09 265.14c-0.44922 0-0.89063 0.15234-1.2422 0.43359l-30.145 23.949c-0.86328 0.68359-1.0078 1.9453-0.32031 2.8086l6.5312 8.2188c0.3789 0.48047 0.94921 0.75391 1.5664 0.75391 0.44922 0 0.89063-0.15234 1.2422-0.42969l30.145-23.949c0.41797-0.33203 0.67969-0.80468 0.74219-1.3398 0.0586-0.53125-0.0898-1.0547-0.42188-1.4688l-6.5312-8.2227c-0.3789-0.48046-0.95312-0.7539-1.5664-0.7539m0 0.25c0.51562 0 1.0273 0.22656 1.3711 0.66015l6.5312 8.2227c0.60156 0.75 0.47266 1.8594-0.28125 2.457l-30.145 23.949c-0.32031 0.25391-0.70313 0.375-1.0859 0.375-0.51562 0-1.0273-0.22266-1.3711-0.65625l-6.5312-8.2227c-0.60156-0.7539-0.47266-1.8594 0.28125-2.457l30.145-23.949c0.32031-0.2539 0.70312-0.3789 1.0859-0.3789" fill="#211e1e"/><path d="m202.03 291.81 6.5312 8.2227c0.39844 0.50391 1.1328 0.58594 1.6367 0.1875l30.145-23.949c0.50391-0.40234 0.58984-1.1328 0.1875-1.6406l-6.5312-8.2188c-0.39844-0.50782-1.1328-0.58985-1.6367-0.1875l-30.145 23.949c-0.50391 0.39844-0.58984 1.1328-0.1875 1.6367" fill="#211e1e"/><path d="m228.67 273.44-23 18.27 3.8125 4.7969 22.996-18.273z" fill="#fff"/></g><g fill="#211e1e"><path d="m222.25 279.47 3.3633 1.3633-1.9648-2.4727 0.57812-0.45703 2.9024 3.6524-0.57813 0.45703-3.1875-1.2734 1.8555 2.3359-0.57813 0.45703-2.9023-3.6562z"/><path d="m228.09 279.48c0.26953 0.0977 0.47265 0.0625 0.69922-0.0976 0.29296-0.21094 0.36328-0.4961 0.23828-0.91797-0.0859-0.28907-0.29688-0.66407-0.54297-0.97266-0.30469-0.38281-0.69922-0.71875-1.0234-0.83984-0.26953-0.0977-0.49219-0.0664-0.72656 0.11718-0.26953 0.21485-0.32422 0.48829-0.19922 0.91407 0.0781 0.25 0.29687 0.66015 0.52344 0.94531 0.32422 0.41016 0.69531 0.71875 1.0312 0.85156m-2.3828-2.1836c-0.0195-0.44531 0.17579-0.8086 0.5586-1.1172 0.51562-0.40625 1-0.45703 1.5742-0.18359 0.39843 0.1875 0.89062 0.59375 1.2344 1.0273 0.48047 0.60547 0.75391 1.2656 0.78516 1.8047 4e-3 0.45703-0.1875 0.8164-0.61328 1.1562-0.46094 0.36719-0.94922 0.41797-1.5352 0.15234-0.40625-0.19922-0.86328-0.58984-1.2305-1.0508-0.46094-0.57422-0.77734-1.2656-0.77344-1.7891"/><path d="m220.86 280.57 2.9062 3.6523-2.1523 1.7109-0.46094-0.57813 1.5781-1.25-0.71485-0.89843-1.0625 0.84375-0.46875-0.58985 1.0625-0.84375-0.79296-1-1.6914 1.3438-0.46875-0.58984z"/><path d="m214.05 285.98 0.51562-0.40625 2.4414 1.8867-1.3008-2.7969 0.51562-0.41015 3.4453 3.2266-0.59375 0.46875-1.8086-1.6992 1.0625 2.293-0.56641 0.44922-2.0039-1.5469 1.2461 2.1484-0.58984 0.46875z"/><path d="m209.81 291.95-1.2617-1.5898 0.57813-0.46093 1.2617 1.5898 2.9297 1.0391-0.69532 0.55469-1.9961-0.71484 0.23047 2.1172-0.6836 0.54297z"/><path d="m213.83 290.46-0.44141-1.3242-0.73437 0.58594zm-3.0273-1.9023 1.1758 0.73828 1.1484-0.91016-0.45313-1.3125 0.61719-0.49218 1.6406 4.6562-0.58203 0.46093-4.1641-2.6484z"/></g><path d="m233.11 280.72c-0.0469 0.15234-0.13672 0.29297-0.26953 0.39844-0.34766 0.27734-0.85157 0.21875-1.1289-0.12891-0.0625-0.0781-0.10937-0.16797-0.13672-0.25781l-1.4414-4.5391-4.0977-2.4336c-0.082-0.0469-0.15625-0.10937-0.21875-0.1914-0.27734-0.34766-0.21875-0.85157 0.12891-1.125 0.13281-0.10938 0.28906-0.16407 0.44921-0.17188l9.5078-0.66016z" fill="#fff"/><path transform="matrix(1 0 0 -1 281.75 158.39)" d="m-6.25e-6 -0.001425c-10.406 0-15.574-3.9219-18.828-12.102-13.879-34.906-37.371-24.844-37.371-13.09v4.793" fill="none" stroke="#211e1e" stroke-width=".75"/><g fill="#211e1e"><path d="m227.72 180.27-2.1758-8.1289-2.1797 8.1289z"/><path d="m223.23 170.38v-1.2461h4.7969v1.2461h1.7578v1.7617h-8.4727v-1.7617z"/><path d="m540.54 212.83h6.3555v-1.5586l4.375 2.5742-4.375 2.3984v-1.4375h-6.3555z"/><path d="m540.54 195.29h6.3555v1.5586l4.375-2.5742-4.375-2.3984v1.4375h-6.3555z"/><path d="m551.27 122.26h-6.3555v-1.5586l-4.375 2.5742 4.375 2.3984v-1.4375h6.3555z"/><path d="m551.27 104.72h-6.3555v1.5586l-4.375-2.5781 4.375-2.3984v1.4414h6.3555z"/></g><path transform="matrix(1 0 0 -1 61 133.27)" d="m0 9.75e-4h497" fill="none" stroke="#facc2b" stroke-miterlimit="10" stroke-width="2"/><path transform="matrix(1,0,0,-1,558,93.708)" d="m0 9.6875e-4h-497" fill="none" stroke="#fff" stroke-miterlimit="10" stroke-width="2"/><g fill="#fff"><path d="m174.66 193.38c-0.30078 0-0.54297 0.24218-0.54297 0.54296 0 0.30079 0.24219 0.54688 0.54297 0.54688h18.832c0.30078 0 0.54297-0.24609 0.54297-0.54688 0-0.30078-0.24219-0.54296-0.54297-0.54296z"/><path d="m189.93 189.67c-0.0273 0.0703-0.043 0.14454-0.043 0.21485 0 0.21094 0.125 0.41406 0.33594 0.5 0 0 6.5508 2.7656 8.375 3.5352-1.8242 0.76954-8.375 3.5312-8.375 3.5312-0.21094 0.0898-0.33594 0.29297-0.33594 0.50391 0 0.0703 0.0156 0.14453 0.043 0.21094 0.11718 0.27734 0.4375 0.40625 0.71484 0.28906l9.5664-4.0312c0.20312-0.0859 0.33593-0.28516 0.33593-0.50391s-0.13281-0.41796-0.33593-0.5039l-9.5664-4.0352c-0.27734-0.11719-0.59766 0.0117-0.71484 0.28906"/><path d="m174.66 214.75c-0.30078 0-0.54297-0.24609-0.54297-0.54687s0.24219-0.54297 0.54297-0.54297h18.832c0.30078 0 0.54297 0.24219 0.54297 0.54297s-0.24219 0.54687-0.54297 0.54687z"/><path d="m189.93 218.45c-0.0273-0.0703-0.043-0.14063-0.043-0.21094 0-0.21484 0.125-0.41406 0.33594-0.50391 0 0 6.5508-2.7656 8.375-3.5352-1.8242-0.76953-8.375-3.5312-8.375-3.5312-0.21094-0.0898-0.33594-0.29297-0.33594-0.50391 0-0.0742 0.0156-0.14062 0.043-0.21484 0.11718-0.27344 0.4375-0.40235 0.71484-0.28906l9.5664 4.0391c0.20312 0.082 0.33593 0.28125 0.33593 0.5s-0.13281 0.41797-0.33593 0.5l-9.5664 4.0391c-0.27734 0.11719-0.59766-0.0117-0.71484-0.28906"/></g><path transform="matrix(1 0 0 -1 451.49 591.87)" d="m-0.0010188 0.0010062h29.293" fill="none" stroke="#211e1e" stroke-width=".75"/><g fill="#211e1e"><use x="451.08249" y="588.98053" width="100%" height="100%" xlink:href="#ak"/><use x="456.08649" y="588.98053" width="100%" height="100%" xlink:href="#m"/><use x="461.09052" y="588.98053" width="100%" height="100%" xlink:href="#ai"/><use x="466.09451" y="588.98053" width="100%" height="100%" xlink:href="#m"/><use x="471.09851" y="588.98053" width="100%" height="100%" xlink:href="#f"/><use x="476.10251" y="588.98053" width="100%" height="100%" xlink:href="#ap"/><use x="443.60349" y="604.33447" width="100%" height="100%" xlink:href="#ao"/><use x="450.1015" y="604.33447" width="100%" height="100%" xlink:href="#l"/><use x="452.09949" y="604.33447" width="100%" height="100%" xlink:href="#p"/><use x="455.0965" y="604.33447" width="100%" height="100%" xlink:href="#m"/><use x="460.10049" y="604.33447" width="100%" height="100%" xlink:href="#ah"/><use x="464.60049" y="604.33447" width="100%" height="100%" xlink:href="#i"/><use x="467.10251" y="604.33447" width="100%" height="100%" xlink:href="#l"/><use x="469.10049" y="604.33447" width="100%" height="100%" xlink:href="#c"/><use x="474.10449" y="604.33447" width="100%" height="100%" xlink:href="#f"/><use x="479.10849" y="604.33447" width="100%" height="100%" xlink:href="#r"/><use x="481.6105" y="604.33447" width="100%" height="100%" xlink:href="#c"/><use x="486.6145" y="604.33447" width="100%" height="100%" xlink:href="#ba"/><use x="489.11649" y="604.33447" width="100%" height="100%" xlink:href="#r"/><use x="491.6185" y="604.33447" width="100%" height="100%" xlink:href="#i"/><use x="494.12051" y="604.33447" width="100%" height="100%" xlink:href="#p"/><use x="497.11749" y="604.33447" width="100%" height="100%" xlink:href="#h"/><use x="502.12149" y="604.33447" width="100%" height="100%" xlink:href="#az"/><use x="506.62149" y="604.33447" width="100%" height="100%" xlink:href="#m"/><use x="511.62549" y="604.33447" width="100%" height="100%" xlink:href="#n"/><use x="443.60349" y="617.33051" width="100%" height="100%" xlink:href="#aj"/><use x="451.94019" y="617.33051" width="100%" height="100%" xlink:href="#p"/><use x="454.93719" y="617.33051" width="100%" height="100%" xlink:href="#c"/><use x="459.94119" y="617.33051" width="100%" height="100%" xlink:href="#f"/><use x="464.94519" y="617.33051" width="100%" height="100%" xlink:href="#ai"/><use x="469.94919" y="617.33051" width="100%" height="100%" xlink:href="#ay"/><use x="472.9462" y="617.33051" width="100%" height="100%" xlink:href="#aj"/><use x="481.11551" y="617.33051" width="100%" height="100%" xlink:href="#h"/><use x="486.11951" y="617.33051" width="100%" height="100%" xlink:href="#ax"/><use x="490.61951" y="617.33051" width="100%" height="100%" xlink:href="#r"/><use x="492.6265" y="617.33051" width="100%" height="100%" xlink:href="#aw"/><use x="498.62949" y="617.33051" width="100%" height="100%" xlink:href="#p"/><use x="501.6265" y="617.33051" width="100%" height="100%" xlink:href="#p"/><use x="504.6235" y="617.33051" width="100%" height="100%" xlink:href="#c"/><use x="509.6275" y="617.33051" width="100%" height="100%" xlink:href="#av"/><use x="516.12549" y="617.33051" width="100%" height="100%" xlink:href="#r"/><use x="518.62842" y="617.33051" width="100%" height="100%" xlink:href="#au"/><use x="521.62543" y="617.33051" width="100%" height="100%" xlink:href="#w"/><use x="528.62738" y="617.33051" width="100%" height="100%" xlink:href="#q"/><use x="533.63141" y="617.33051" width="100%" height="100%" xlink:href="#i"/><use x="536.13342" y="617.33051" width="100%" height="100%" xlink:href="#l"/><use x="538.13141" y="617.33051" width="100%" height="100%" xlink:href="#c"/><use x="543.13538" y="617.33051" width="100%" height="100%" xlink:href="#f"/><use x="548.1394" y="617.33051" width="100%" height="100%" xlink:href="#h"/><use x="553.14337" y="617.33051" width="100%" height="100%" xlink:href="#n"/><use x="555.14142" y="617.33051" width="100%" height="100%" xlink:href="#at"/><use x="443.60349" y="630.32648" width="100%" height="100%" xlink:href="#w"/><use x="450.6055" y="630.32648" width="100%" height="100%" xlink:href="#q"/><use x="455.6095" y="630.32648" width="100%" height="100%" xlink:href="#i"/><use x="458.11151" y="630.32648" width="100%" height="100%" xlink:href="#l"/><use x="460.1095" y="630.32648" width="100%" height="100%" xlink:href="#c"/><use x="465.11349" y="630.32648" width="100%" height="100%" xlink:href="#f"/><use x="470.11749" y="630.32648" width="100%" height="100%" xlink:href="#h"/><use x="475.12149" y="630.32648" width="100%" height="100%" xlink:href="#n"/><use x="443.60349" y="643.32251" width="100%" height="100%" xlink:href="#w"/><use x="450.6055" y="643.32251" width="100%" height="100%" xlink:href="#q"/><use x="455.6095" y="643.32251" width="100%" height="100%" xlink:href="#i"/><use x="458.11151" y="643.32251" width="100%" height="100%" xlink:href="#l"/><use x="460.1095" y="643.32251" width="100%" height="100%" xlink:href="#c"/><use x="465.11349" y="643.32251" width="100%" height="100%" xlink:href="#f"/><use x="470.11749" y="643.32251" width="100%" height="100%" xlink:href="#h"/><use x="475.12149" y="643.32251" width="100%" height="100%" xlink:href="#n"/><use x="477.11951" y="643.32251" width="100%" height="100%" xlink:href="#r"/><use x="479.62149" y="643.32251" width="100%" height="100%" xlink:href="#as"/><use x="485.62451" y="643.32251" width="100%" height="100%" xlink:href="#ar"/><use x="490.62851" y="643.32251" width="100%" height="100%" xlink:href="#q"/><use x="495.63251" y="643.32251" width="100%" height="100%" xlink:href="#q"/><use x="500.63651" y="643.32251" width="100%" height="100%" xlink:href="#n"/><use x="502.63449" y="643.32251" width="100%" height="100%" xlink:href="#m"/><use x="507.63849" y="643.32251" width="100%" height="100%" xlink:href="#aq"/><use x="515.1355" y="643.32251" width="100%" height="100%" xlink:href="#m"/><use x="520.13953" y="643.32251" width="100%" height="100%" xlink:href="#f"/><use x="525.14349" y="643.32251" width="100%" height="100%" xlink:href="#i"/><use x="527.64551" y="643.32251" width="100%" height="100%" xlink:href="#h"/><use x="532.64948" y="643.32251" width="100%" height="100%" xlink:href="#n"/><use x="443.60349" y="656.31848" width="100%" height="100%" xlink:href="#ak"/><use x="448.60751" y="656.31848" width="100%" height="100%" xlink:href="#c"/><use x="453.61151" y="656.31848" width="100%" height="100%" xlink:href="#ah"/><use x="458.11151" y="656.31848" width="100%" height="100%" xlink:href="#h"/><use x="463.11551" y="656.31848" width="100%" height="100%" xlink:href="#i"/><use x="465.61749" y="656.31848" width="100%" height="100%" xlink:href="#l"/><use x="467.61551" y="656.31848" width="100%" height="100%" xlink:href="#c"/><use x="472.61951" y="656.31848" width="100%" height="100%" xlink:href="#f"/><g><path d="m432.27 624.82 2.2617 0.76172v-2.6641h1.9023v2.6641l2.2812-0.76172 0.51563 1.6367-2.3281 0.71484 1.5195 2.168-1.4102 0.98828-1.543-2.0391-1.5195 2.0391-1.4102-0.98828 1.543-2.168-2.3516-0.71484z"/><path d="m439.23 639.46-2.3516 0.71484 1.543 2.1719-1.4102 0.98046-1.5195-2.0352-1.543 2.0352-1.4102-0.98046 1.5195-2.1719-2.3242-0.71484 0.51172-1.6367 2.2852 0.76172v-2.6641h1.8984v2.6641l2.2617-0.76172z"/><path d="m431 639.46-2.3516 0.71484 1.543 2.1719-1.4102 0.98046-1.5195-2.0352-1.543 2.0352-1.4102-0.98046 1.5195-2.1719-2.3242-0.71484 0.51171-1.6367 2.2852 0.76172v-2.6641h1.8984v2.6641l2.2617-0.76172z"/><path d="m428.5 600.35h6.3516v-1.5586l4.3789 2.5781-4.3789 2.3984v-1.4414h-6.3516z"/><path d="m413.35 615.6c-0.30079 0-0.54297-0.24219-0.54297-0.54297s0.24218-0.54688 0.54297-0.54688h18.832c0.30078 0 0.54297 0.2461 0.54297 0.54688s-0.24219 0.54297-0.54297 0.54297z"/><path d="m428.61 619.3c-0.0273-0.0703-0.043-0.14453-0.043-0.21485 0-0.21093 0.125-0.41406 0.33594-0.5 0 0 6.5508-2.7656 8.375-3.5352-1.8242-0.76953-8.375-3.5312-8.375-3.5312-0.21094-0.0899-0.33594-0.29297-0.33594-0.50391 0-0.0703 0.0156-0.14453 0.043-0.21094 0.11719-0.27734 0.4375-0.40625 0.71484-0.28906l9.5664 4.0312c0.20313 0.0898 0.33594 0.28516 0.33594 0.50391s-0.13281 0.41797-0.33594 0.5039l-9.5664 4.0352c-0.27734 0.11719-0.59765-0.0117-0.71484-0.28906"/></g></g><path d="m160.75 262.06c-0.23047 0.1875-0.26953 0.53125-0.0781 0.76562 0.1875 0.23438 0.53125 0.26954 0.76563 0.082l14.633-11.852c0.23438-0.1875 0.26953-0.53125 0.082-0.76562-0.1914-0.23438-0.53125-0.26953-0.76562-0.082z" fill="#fff"/><path d="m170.28 249.57c0.0234 0.0742 0.0586 0.14062 0.10156 0.1914 0.13672 0.16797 0.35938 0.2461 0.57813 0.1836 0 0 6.832-1.9766 8.7344-2.5274-0.93359 1.7461-4.2891 8.0195-4.2891 8.0195-0.10547 0.19921-0.0742 0.4375 0.0586 0.60156 0.0469 0.0547 0.0977 0.10156 0.16797 0.13672 0.26563 0.14062 0.59375 0.0391 0.73828-0.22657l4.8945-9.1562c0.10157-0.19531 0.0781-0.42968-0.0586-0.59765-0.13672-0.17188-0.36328-0.24219-0.57422-0.1836l-9.9766 2.8867c-0.28906 0.082-0.45703 0.38282-0.375 0.67188" fill="#fff"/><path transform="matrix(1 0 0 -1 188.87 260.25)" d="m-0.0019188-0.0010062-4.1875 4.5742c-13.164 13.164-32.953-21.594 13.961-21.594h15.617" fill="none" stroke="#211e1e" stroke-width=".75"/><g fill="#211e1e"><path d="m189.47 257.68 3.8828 7.4688-7.0976-4.5234z"/><path d="m192.83 268.02 0.84375 0.91797 3.5352-3.2383-0.83985-0.91797 1.293-1.1875-1.1875-1.3008-3.125 2.8633-3.1211 2.8633 1.1875 1.2969z"/><path d="m159.31 294.16 7.4648-3.8828-4.5234 7.0977z"/><path d="m169.64 290.8 0.91797-0.84375-3.2422-3.5352-0.91797 0.83985-1.1875-1.2969-1.2969 1.1914 2.8633 3.125 2.8594 3.1211 1.2969-1.1875z"/></g><path transform="matrix(1 0 0 -1 161.88 294.77)" d="m0-0.0019312-4.5742-4.1875c-4.9258-4.5586-4.8672-11.57 4.8164-11.57-65.195 0-66.98 35.426-20.898 67.445" fill="none" stroke="#211e1e" stroke-width=".75"/><g fill="#211e1e"><path d="m141.25 245.74 5.457-6.4062-7.9297 2.8203z"/><path d="m146.84 236.42 1.0234-0.70312 2.7227 3.9453-1.0234 0.70703 0.99609 1.4492-1.4492 1-2.4062-3.4883-2.4023-3.4883 1.4492-1z"/><use x="244.3369" y="311.78079" width="100%" height="100%" xlink:href="#an"/><use x="251.19591" y="311.78079" width="100%" height="100%" xlink:href="#a"/><use x="253.8369" y="311.78079" width="100%" height="100%" xlink:href="#y"/><use x="257.0004" y="311.78079" width="100%" height="100%" xlink:href="#a"/><use x="259.64139" y="311.78079" width="100%" height="100%" xlink:href="#o"/><use x="266.5004" y="311.78079" width="100%" height="100%" xlink:href="#b"/><use x="271.78241" y="311.78079" width="100%" height="100%" xlink:href="#s"/><use x="277.06439" y="311.78079" width="100%" height="100%" xlink:href="#d"/><use x="279.70541" y="311.78079" width="100%" height="100%" xlink:href="#x"/><use x="285.50989" y="311.78079" width="100%" height="100%" xlink:href="#j"/><use x="291.31439" y="311.78079" width="100%" height="100%" xlink:href="#a"/><use x="293.95541" y="311.78079" width="100%" height="100%" xlink:href="#o"/><use x="300.81439" y="311.78079" width="100%" height="100%" xlink:href="#e"/><use x="306.6189" y="311.78079" width="100%" height="100%" xlink:href="#b"/><use x="311.90091" y="311.78079" width="100%" height="100%" xlink:href="#s"/><use x="317.18289" y="311.78079" width="100%" height="100%" xlink:href="#a"/><use x="319.82391" y="311.78079" width="100%" height="100%" xlink:href="#am"/><use x="326.68289" y="311.78079" width="100%" height="100%" xlink:href="#e"/><use x="332.4874" y="311.78079" width="100%" height="100%" xlink:href="#g"/><use x="335.65091" y="311.78079" width="100%" height="100%" xlink:href="#a"/><use x="338.2919" y="311.78079" width="100%" height="100%" xlink:href="#ag"/><use x="345.15091" y="311.78079" width="100%" height="100%" xlink:href="#k"/><use x="347.7919" y="311.78079" width="100%" height="100%" xlink:href="#b"/><use x="353.07391" y="311.78079" width="100%" height="100%" xlink:href="#v"/><use x="358.3559" y="311.78079" width="100%" height="100%" xlink:href="#u"/><use x="362.05139" y="311.78079" width="100%" height="100%" xlink:href="#k"/><use x="364.69241" y="311.78079" width="100%" height="100%" xlink:href="#af"/><use x="369.9744" y="311.78079" width="100%" height="100%" xlink:href="#a"/><use x="244.3369" y="323.18079" width="100%" height="100%" xlink:href="#a"/><use x="246.97791" y="323.18079" width="100%" height="100%" xlink:href="#a"/><use x="249.6189" y="323.18079" width="100%" height="100%" xlink:href="#a"/><use x="252.2599" y="323.18079" width="100%" height="100%" xlink:href="#a"/><use x="254.90089" y="323.18079" width="100%" height="100%" xlink:href="#a"/><use x="257.5419" y="323.18079" width="100%" height="100%" xlink:href="#a"/><use x="260.18289" y="323.18079" width="100%" height="100%" xlink:href="#ae"/><use x="262.82391" y="323.18079" width="100%" height="100%" xlink:href="#j"/><use x="268.62839" y="323.18079" width="100%" height="100%" xlink:href="#ad"/><use x="274.43289" y="323.18079" width="100%" height="100%" xlink:href="#d"/><use x="277.07391" y="323.18079" width="100%" height="100%" xlink:href="#t"/><use x="282.3559" y="323.18079" width="100%" height="100%" xlink:href="#v"/><use x="287.63791" y="323.18079" width="100%" height="100%" xlink:href="#g"/><use x="290.80139" y="323.18079" width="100%" height="100%" xlink:href="#b"/><use x="296.0834" y="323.18079" width="100%" height="100%" xlink:href="#a"/><use x="298.7244" y="323.18079" width="100%" height="100%" xlink:href="#g"/><use x="301.88791" y="323.18079" width="100%" height="100%" xlink:href="#ac"/><use x="307.69241" y="323.18079" width="100%" height="100%" xlink:href="#b"/><use x="312.9744" y="323.18079" width="100%" height="100%" xlink:href="#a"/><use x="315.61539" y="323.18079" width="100%" height="100%" xlink:href="#o"/><use x="322.4744" y="323.18079" width="100%" height="100%" xlink:href="#d"/><use x="325.11539" y="323.18079" width="100%" height="100%" xlink:href="#u"/><use x="328.81091" y="323.18079" width="100%" height="100%" xlink:href="#b"/><use x="334.0929" y="323.18079" width="100%" height="100%" xlink:href="#t"/><use x="339.37491" y="323.18079" width="100%" height="100%" xlink:href="#g"/><use x="342.53839" y="323.18079" width="100%" height="100%" xlink:href="#d"/><use x="345.17941" y="323.18079" width="100%" height="100%" xlink:href="#e"/><use x="350.98389" y="323.18079" width="100%" height="100%" xlink:href="#j"/><use x="356.78839" y="323.18079" width="100%" height="100%" xlink:href="#a"/><use x="359.42941" y="323.18079" width="100%" height="100%" xlink:href="#e"/><use x="365.23389" y="323.18079" width="100%" height="100%" xlink:href="#ab"/><use x="368.3974" y="323.18079" width="100%" height="100%" xlink:href="#a"/><use x="371.03839" y="323.18079" width="100%" height="100%" xlink:href="#aa"/><use x="376.8429" y="323.18079" width="100%" height="100%" xlink:href="#k"/><use x="379.48389" y="323.18079" width="100%" height="100%" xlink:href="#e"/><use x="385.28839" y="323.18079" width="100%" height="100%" xlink:href="#z"/></g><g fill="none"><path transform="matrix(1 0 0 -1 558 428.87)" d="m0-1e-3h-497" stroke="#211e1e" stroke-width="59.84"/><path transform="matrix(1 0 0 -1 558 428.87)" d="m0-1e-3h-497" stroke="#b0b0b0" stroke-width="57.84"/><path transform="matrix(1 0 0 -1 558 428.87)" d="m0-1e-3h-497" stroke="#b0b0b0" stroke-width="36.558"/><path transform="matrix(1 0 0 -1 558 428.87)" d="m0-1e-3h-497" stroke="#fff" stroke-dasharray="14.4, 43.2" stroke-width="2"/></g><path d="m551.27 437.84h-6.3555v-1.5586l-4.375 2.5742 4.375 2.3984v-1.4375h6.3555z" fill="#211e1e"/><path d="m551.27 419.91h-6.3555v1.5586l-4.375-2.5781 4.375-2.3984v1.4414h6.3555z" fill="#211e1e"/><g stroke-miterlimit="10"><path transform="matrix(1 0 0 -1 61 448.65)" d="m0 9.5625e-4h497" fill="none" stroke="#facc2b" stroke-width="2"/><path transform="matrix(1 0 0 -1 558 409.09)" d="m0 9.5e-4h-497" fill="none" stroke="#fff" stroke-width="2"/><path transform="matrix(1 0 0 -1 171.62 552.58)" d="m9.9375e-4 -9.375e-4c2.0078 0.76953 1.4531 3.7461-0.69531 3.7461h13.73z" fill="#b0b0b0" stroke="#b0b0b0"/></g><g fill="none"><path transform="matrix(1 0 0 -1 61 548.84)" d="m0-0.0019438h109.93c2.1484 0 2.7031-2.9766 0.69531-3.7461-5.5-2.1016-10.945-4.3477-16.332-6.7383-39.621-17.586-74.312-42.367-100.33-71.664" stroke="#211e1e"/><path transform="matrix(1 0 0 -1 61 490)" d="m0 0.0019062h497" stroke="#211e1e" stroke-miterlimit="10"/><path transform="matrix(1 0 0 -1 558 519.42)" d="m0 3.125e-5h-497" stroke="#b0b0b0" stroke-width="57.84"/></g><path d="m67.215 510.65h6.3555v1.5586l4.375-2.5781-4.375-2.3984v1.4414h-6.3555z" fill="#211e1e"/><g fill="#211e1e"><use x="238.3369" y="645.29388" width="100%" height="100%" xlink:href="#al"/><use x="245.19591" y="645.29388" width="100%" height="100%" xlink:href="#a"/><use x="247.8369" y="645.29388" width="100%" height="100%" xlink:href="#y"/><use x="251.0004" y="645.29388" width="100%" height="100%" xlink:href="#a"/><use x="253.6414" y="645.29388" width="100%" height="100%" xlink:href="#o"/><use x="260.5004" y="645.29388" width="100%" height="100%" xlink:href="#b"/><use x="265.78241" y="645.29388" width="100%" height="100%" xlink:href="#s"/><use x="271.06439" y="645.29388" width="100%" height="100%" xlink:href="#d"/><use x="273.70541" y="645.29388" width="100%" height="100%" xlink:href="#x"/><use x="279.50989" y="645.29388" width="100%" height="100%" xlink:href="#j"/><use x="285.31439" y="645.29388" width="100%" height="100%" xlink:href="#a"/><use x="287.95541" y="645.29388" width="100%" height="100%" xlink:href="#ag"/><use x="294.81439" y="645.29388" width="100%" height="100%" xlink:href="#k"/><use x="297.45541" y="645.29388" width="100%" height="100%" xlink:href="#b"/><use x="302.7374" y="645.29388" width="100%" height="100%" xlink:href="#v"/><use x="308.01941" y="645.29388" width="100%" height="100%" xlink:href="#u"/><use x="311.7149" y="645.29388" width="100%" height="100%" xlink:href="#k"/><use x="314.3559" y="645.29388" width="100%" height="100%" xlink:href="#af"/><use x="319.63791" y="645.29388" width="100%" height="100%" xlink:href="#a"/><use x="322.2789" y="645.29388" width="100%" height="100%" xlink:href="#ae"/><use x="324.91989" y="645.29388" width="100%" height="100%" xlink:href="#j"/><use x="330.7244" y="645.29388" width="100%" height="100%" xlink:href="#ad"/><use x="336.5289" y="645.29388" width="100%" height="100%" xlink:href="#d"/><use x="339.16989" y="645.29388" width="100%" height="100%" xlink:href="#t"/><use x="344.4519" y="645.29388" width="100%" height="100%" xlink:href="#v"/><use x="349.73389" y="645.29388" width="100%" height="100%" xlink:href="#g"/><use x="352.8974" y="645.29388" width="100%" height="100%" xlink:href="#b"/><use x="358.17941" y="645.29388" width="100%" height="100%" xlink:href="#s"/><use x="238.3369" y="656.69391" width="100%" height="100%" xlink:href="#a"/><use x="240.97791" y="656.69391" width="100%" height="100%" xlink:href="#a"/><use x="243.6189" y="656.69391" width="100%" height="100%" xlink:href="#a"/><use x="246.2599" y="656.69391" width="100%" height="100%" xlink:href="#a"/><use x="248.90089" y="656.69391" width="100%" height="100%" xlink:href="#a"/><use x="251.5419" y="656.69391" width="100%" height="100%" xlink:href="#a"/><use x="254.18291" y="656.69391" width="100%" height="100%" xlink:href="#g"/><use x="257.34641" y="656.69391" width="100%" height="100%" xlink:href="#ac"/><use x="263.15091" y="656.69391" width="100%" height="100%" xlink:href="#b"/><use x="268.43289" y="656.69391" width="100%" height="100%" xlink:href="#a"/><use x="271.07391" y="656.69391" width="100%" height="100%" xlink:href="#o"/><use x="277.93289" y="656.69391" width="100%" height="100%" xlink:href="#d"/><use x="280.57391" y="656.69391" width="100%" height="100%" xlink:href="#u"/><use x="284.26941" y="656.69391" width="100%" height="100%" xlink:href="#b"/><use x="289.55139" y="656.69391" width="100%" height="100%" xlink:href="#t"/><use x="294.8334" y="656.69391" width="100%" height="100%" xlink:href="#g"/><use x="297.99689" y="656.69391" width="100%" height="100%" xlink:href="#d"/><use x="300.63791" y="656.69391" width="100%" height="100%" xlink:href="#e"/><use x="306.44241" y="656.69391" width="100%" height="100%" xlink:href="#j"/><use x="312.24689" y="656.69391" width="100%" height="100%" xlink:href="#a"/><use x="314.88791" y="656.69391" width="100%" height="100%" xlink:href="#e"/><use x="320.69241" y="656.69391" width="100%" height="100%" xlink:href="#ab"/><use x="323.8559" y="656.69391" width="100%" height="100%" xlink:href="#a"/><use x="326.49689" y="656.69391" width="100%" height="100%" xlink:href="#aa"/><use x="332.30139" y="656.69391" width="100%" height="100%" xlink:href="#k"/><use x="334.94241" y="656.69391" width="100%" height="100%" xlink:href="#e"/><use x="340.74689" y="656.69391" width="100%" height="100%" xlink:href="#z"/></g><g fill="none"><g stroke-miterlimit="10"><path transform="matrix(1 0 0 -1 474.73 529.44)" d="m9.75e-4 -1e-3 -74.785-19.359h-100.37c-102.8 0-184.39-43.402-230.21-94.992" stroke="#211e1e"/><path transform="matrix(1 0 0 -1 474.73 529.44)" d="m9.75e-4 -1e-3 -74.785-19.359h-100.37c-102.8 0-184.39-43.402-230.21-94.992" stroke="#b0b0b0" stroke-width="37.558"/><path transform="matrix(1 0 0 -1 474.73 529.44)" d="m9.75e-4 -1e-3 -74.785-19.359h-100.37c-102.8 0-184.39-43.402-230.21-94.992" stroke="#b0b0b0" stroke-width="37.558"/><g stroke-width="2"><path transform="matrix(1 0 0 -1 558 539.2)" d="m0-0.0019188h-82.168l-74.781-19.277h-101.47c-91.422 0-173.09-35.668-222.97-91.832" stroke="#facc2b"/><path transform="matrix(1 0 0 -1 558 539.2)" d="m0-0.0019188h-82.168l-74.781-19.277h-101.47c-91.422 0-173.09-35.668-222.97-91.832" stroke="#fff"/><path transform="matrix(1 0 0 -1 61 499.64)" d="m0-0.001925h497" stroke="#facc2b"/><path transform="matrix(1 0 0 -1 177.48 561.21)" d="m4.625e-4 -9.4375e-4c37.68 14.086 79.348 22.02 122.11 22.02h-238.58" stroke="#fff"/><path transform="matrix(1 0 0 -1 62.193 637.51)" d="m-0.0014938-0.0019125c28.859 32.496 69.07 59.023 115.29 76.293" stroke="#facc2b"/></g></g><path transform="matrix(1 0 0 -1 558 519.42)" d="m0 3.125e-5h-497" stroke="#fff" stroke-dasharray="14.4, 43.2" stroke-width="2"/><path transform="matrix(1 0 0 -1 310.48 539.2)" d="m9.75e-4 -0.0019188h93.453" stroke="#fff" stroke-dasharray="4.32, 12.96" stroke-width="2"/></g><g><path d="m67.215 528.19h6.3555v-1.5586l4.375 2.5781-4.375 2.3945v-1.4375h-6.3555z" fill="#211e1e"/><path d="m73.895 637.36 4.4102-4.5703-1.1211-1.082 4.8906-1.3633-1.3125 4.8164-1.0352-1-4.4102 4.5703z" fill="#211e1e"/><path d="m196.99 625.23c-1.1172 0-2.0274-0.91016-2.0274-2.0274v-26.676c0-1.1172 0.91016-2.0273 2.0274-2.0273h26.672c1.1211 0 2.0312 0.91016 2.0312 2.0273v26.676c0 1.1172-0.91015 2.0274-2.0312 2.0274z" fill="#fff"/><path d="m223.66 594.37h-26.672c-1.1875 0-2.1562 0.96875-2.1562 2.1562v26.672c0 1.1914 0.96875 2.1562 2.1562 2.1562h26.672c1.1875 0 2.1562-0.96485 2.1562-2.1562v-26.672c0-1.1875-0.96875-2.1562-2.1562-2.1562m0 0.25c1.0508 0 1.9062 0.85938 1.9062 1.9062v26.672c0 1.0508-0.85547 1.9062-1.9062 1.9062h-26.672c-1.0469 0-1.9062-0.85547-1.9062-1.9062v-26.672c0-1.0469 0.85937-1.9062 1.9062-1.9062h26.672" fill="#211e1e"/><path d="m196.99 624.58c-0.75782 0-1.375-0.61718-1.375-1.3789v-26.672c0-0.75781 0.61718-1.375 1.375-1.375h26.672c0.76172 0 1.3789 0.61719 1.3789 1.375v26.672c0 0.76172-0.61719 1.3789-1.3789 1.3789z" fill="#211e1e"/><path d="m196.99 623.84c-0.34766 0-0.63282-0.28516-0.63282-0.63672v-26.672c0-0.34765 0.28516-0.63281 0.63282-0.63281h26.672c0.35156 0 0.63672 0.28516 0.63672 0.63281v26.672c0 0.35156-0.28516 0.63672-0.63672 0.63672z" fill="#fff"/></g><g fill="#211e1e"><path d="m208.08 608.17-3.2383-5.7344v5.7344h-1.3359v-8.4688h1.3359l3.0898 5.4062v-5.4062h1.3398v8.4688z"/><path d="m215.3 601.57c-0.26953-0.44531-0.59766-0.6211-1.1016-0.65235-0.65625-0.0312-1.0742 0.29688-1.3711 1.0391-0.20703 0.50781-0.32812 1.2773-0.32812 1.9922 0 0.89063 0.17968 1.8125 0.50781 2.3477 0.26953 0.44531 0.625 0.65234 1.1602 0.65234 0.625 0 1.0156-0.32812 1.3125-1.0703 0.17579-0.44531 0.32813-1.2773 0.32813-1.9297 0-0.95312-0.17969-1.8125-0.50781-2.3789m0.92187 5.7969c-0.47656 0.65235-1.1602 0.94922-2.0547 0.94922-1.1914 0-1.9336-0.47656-2.4414-1.5156-0.35938-0.71485-0.59766-1.8438-0.59766-2.8516 0-1.3984 0.35938-2.6445 0.92578-3.4453 0.50782-0.65625 1.1914-0.95312 2.1758-0.95312 1.0703 0 1.8164 0.47656 2.3516 1.5156 0.35547 0.74219 0.5664 1.8125 0.5664 2.8828 0 1.3359-0.32812 2.6719-0.92578 3.418"/><path d="m216.95 620.03-2.5898-4.5898v4.5898h-1.0703v-6.7773h1.0703l2.4727 4.3281v-4.3281h1.0664v6.7773z"/><path d="m206.56 619c-0.35547 0.66406-1.1641 1.1406-1.9961 1.1406-0.83204 0-1.6406-0.47656-1.9961-1.1406-0.1914-0.40235-0.30859-0.87891-0.30859-1.4024v-4.3516h1.0664v4.3516c0 0.87891 0.5 1.4492 1.2383 1.4492 0.73828 0 1.2383-0.57031 1.2383-1.4492v-4.3516h1.0664v4.3516c0 0.52344-0.11718 1-0.30859 1.4024"/><path d="m200.02 614.2v5.8203h-1.0742v-5.8203h-1.5508v-0.95312h4.2031v0.95312z"/><path d="m210.9 614.44c-0.16407-0.0977-0.25782-0.1211-0.61719-0.1211h-1.2812v1.6641h1.2812c0.33203 0 0.45312-0.0234 0.61719-0.11718 0.26172-0.14453 0.42968-0.42969 0.42968-0.71485 0-0.28515-0.16796-0.57031-0.42968-0.71093m0.47656 5.5859-1.0938-2.9492h-1.2812v2.9492h-1.0703v-6.7773h2.2344c0.52344 0 0.87891 0.0469 1.2109 0.21484 0.59375 0.28516 1.0234 1 1.0234 1.6875 0 0.71485-0.42969 1.4258-1.0469 1.7109l1.1875 3.1641z"/><path d="m222.59 619.62c-0.37891 0.33203-0.90234 0.52344-1.4727 0.52344-1.1641 0-2.0195-0.6875-2.4726-1.7109l1.0234-0.3789c0.28516 0.64062 0.8086 0.99609 1.4492 0.99609 0.61719 0 1.0469-0.42578 1.0469-0.99609 0-0.90625-1.0469-1.0469-1.9258-1.4062-0.40625-0.16407-1.3086-0.56641-1.3086-1.6836 0-1.332 0.90235-1.832 2.1172-1.832 0.94922 0 1.5898 0.54688 1.9258 1.3789l-0.95312 0.28515s-0.23828-0.57031-0.9961-0.59375c-0.5-0.0234-1.0938 0.16407-1.0469 0.78125 0.0937 1.2617 3.2812 0.42969 3.2812 3.0898 0 0.62109-0.23828 1.168-0.66797 1.5469"/></g><path transform="matrix(1 0 0 -1 192.49 610.86)" d="m0.0014938 0.0010188c-69.871 0-86.102 55.656-48.16 56.262" fill="none" stroke="#211e1e" stroke-width=".75"/><g><path d="m142.86 556.84 8.1172-2.2305-8.1445-2.1289z" fill="#211e1e"/><path d="m152.73 552.29 1.2461-8e-3 0.0273 4.7969-1.2461 8e-3 0.0117 1.7617-1.7617 8e-3 -0.0234-4.2383-0.0273-4.2344 1.7617-0.0117z" fill="#211e1e"/><path d="m285.5 480.33c-1.0352 0-1.875-0.84375-1.875-1.875v-10.5c0-1.0352 0.83985-1.875 1.875-1.875h38.5c1.0352 0 1.875 0.83984 1.875 1.875v10.5c0 1.0312-0.83984 1.875-1.875 1.875z" fill="#fff"/><path d="m324 465.96h-38.5c-1.1016 0-2 0.89453-2 2v10.5c0 1.1016 0.89844 2 2 2h38.5c1.1016 0 2-0.89844 2-2v-10.5c0-1.1055-0.89843-2-2-2m0 0.25c0.96485 0 1.75 0.78516 1.75 1.75v10.5c0 0.96094-0.78515 1.75-1.75 1.75h-38.5c-0.96093 0-1.75-0.78906-1.75-1.75v-10.5c0-0.96484 0.78907-1.75 1.75-1.75h38.5" fill="#211e1e"/><path d="m285.5 479.62c-0.64453 0-1.168-0.52343-1.168-1.1641v-10.5c0-0.64453 0.52344-1.168 1.168-1.168h38.5c0.64453 0 1.168 0.52344 1.168 1.168v10.5c0 0.64063-0.52344 1.1641-1.168 1.1641z" fill="#211e1e"/><path d="m316.62 476.27h-29.371v-6.125h29.371z" fill="#fff"/></g><g fill="#211e1e"><path d="m295.57 475.54-1.7852-3.1602v3.1602h-0.73829v-4.668h0.73829l1.7031 2.9805v-2.9805h0.73438v4.668z"/><path d="m291 471.9c-0.14844-0.24609-0.32813-0.34375-0.60938-0.35937-0.35937-0.0156-0.58984 0.16406-0.75391 0.57422-0.11328 0.27734-0.17968 0.70312-0.17968 1.0976 0 0.48828 0.0976 0.9961 0.27734 1.293 0.14844 0.2461 0.34375 0.35938 0.64063 0.35938 0.34375 0 0.55859-0.17969 0.72265-0.58985 0.0977-0.24609 0.17969-0.70312 0.17969-1.0625 0-0.52734-0.0977-1-0.27734-1.3125m0.50781 3.1914c-0.26172 0.36328-0.64063 0.52734-1.1328 0.52734-0.65625 0-1.0664-0.26562-1.3477-0.83593-0.19531-0.39454-0.32813-1.0156-0.32813-1.5703 0-0.77343 0.19922-1.457 0.51172-1.9023 0.27735-0.35938 0.65625-0.52344 1.1953-0.52344 0.59375 0 1.0039 0.26172 1.2969 0.83594 0.19922 0.41016 0.3125 1 0.3125 1.5898 0 0.73438-0.17969 1.4727-0.50781 1.8789"/><path d="m297.34 475.54v-4.668h2.7461v0.73828h-2.0117v1.1445h1.3594v0.7539h-1.3594v1.2774h2.1602v0.7539z"/><path d="m306.04 475.54h-0.65625l-0.73829-2.9961-0.72265 2.9961h-0.65625l-0.69141-4.668h0.75781l0.35938 2.457 0.59375-2.457h0.72266l0.60546 2.457 0.36329-2.457h0.7539z"/><path d="m313.07 473.51v2.0312h-0.74219v-2.0312l-1.6445-2.6367h0.88672l1.1211 1.8008 1.1367-1.8008h0.87109z"/><path d="m309 472.16-0.47656 1.3125h0.9375zm1.1875 3.375-0.46094-1.3125h-1.4688l-0.46094 1.3125h-0.78906l1.6133-4.668h0.74219l1.6133 4.668z"/></g><path d="m315.56 467.8c-0.1289-0.0899-0.28906-0.14063-0.45703-0.14063-0.44531 0-0.80469 0.35938-0.80469 0.80078 0 0.10157 0.0195 0.19922 0.0547 0.28907l1.6953 4.4492-1.6953 4.4531c-0.0351 0.0898-0.0547 0.1875-0.0547 0.28906 0 0.44141 0.35938 0.80078 0.80469 0.80078 0.16797 0 0.32813-0.0508 0.45703-0.14453l7.8555-5.3984z" fill="#fff"/><path transform="matrix(1 0 0 -1 281.75 472.82)" d="m-6.25e-6 -0.0010125c-10.406 0-15.574-3.9258-18.828-12.105-13.879-34.906-37.371-24.84-37.371-13.086v4.793" fill="none" stroke="#211e1e" stroke-width=".75"/><g fill="#211e1e"><path d="m227.72 494.71-2.1758-8.1328-2.1797 8.1328z"/><path d="m223.23 484.82v-1.2461h4.7969v1.2461h1.7578v1.7578h-8.4727v-1.7578z"/><path d="m328.21 465.28 2.2617 0.76172v-2.6641h1.9023v2.6641l2.2812-0.76172 0.51563 1.6328-2.3281 0.71485 1.5195 2.1719-1.4102 0.98438-1.543-2.0352-1.5195 2.0352-1.4102-0.98438 1.543-2.1719-2.3477-0.71485z"/></g><g><path d="m185.08 331.42c-0.53906 0-1.0508-0.21094-1.4336-0.59375l-18.859-18.859c-0.38282-0.38672-0.59766-0.89453-0.59766-1.4375s0.21484-1.0508 0.59766-1.4336l18.859-18.863c0.38281-0.38281 0.89453-0.59375 1.4336-0.59375 0.54297 0 1.0547 0.21094 1.4375 0.59375l18.859 18.863c0.38281 0.38281 0.59375 0.89062 0.59375 1.4336s-0.21094 1.0508-0.59375 1.4375l-18.859 18.859c-0.38281 0.38281-0.89453 0.59375-1.4375 0.59375" fill="#fff"/><path d="m185.08 289.51c-0.57421 0-1.1172 0.22265-1.5234 0.63281l-18.859 18.859c-0.83984 0.83984-0.83984 2.207 0 3.0469l18.859 18.859c0.40625 0.41015 0.94922 0.63281 1.5234 0.63281 0.57813 0 1.1172-0.22266 1.5274-0.63281l18.859-18.859c0.83985-0.83984 0.83985-2.207 0-3.0469l-18.859-18.859c-0.41016-0.41016-0.94922-0.63281-1.5274-0.63281m0 0.25c0.48829 0 0.97657 0.1875 1.3477 0.55859l18.863 18.859c0.74219 0.74218 0.74219 1.9492 0 2.6953l-18.863 18.859c-0.37109 0.3711-0.85937 0.5586-1.3477 0.5586-0.48828 0-0.97265-0.1875-1.3438-0.5586l-18.863-18.859c-0.74218-0.74609-0.74218-1.9531 0-2.6953l18.863-18.859c0.3711-0.37109 0.85547-0.55859 1.3438-0.55859" fill="#211e1e"/><path d="m165.21 311.54c-0.5586-0.55859-0.5586-1.4648 0-2.0234l18.859-18.859c0.55469-0.55859 1.4609-0.55859 2.0195 0l18.859 18.859c0.55859 0.5586 0.55859 1.4648 0 2.0234l-18.859 18.859c-0.55859 0.55468-1.4648 0.55468-2.0195 0z" fill="#211e1e"/><path d="m165.77 310.98c-0.24609-0.25-0.24609-0.65234 0-0.89844l18.859-18.859c0.25-0.25 0.65234-0.25 0.89843 0l18.863 18.859c0.2461 0.2461 0.2461 0.64844 0 0.89844l-18.863 18.859c-0.24609 0.25-0.64843 0.25-0.89843 0z" fill="#fff"/><path d="m182.12 308.48c0.0234 0.12109 0.082 0.23828 0.17578 0.33594 0.24609 0.24609 0.65234 0.24609 0.89844 0 0.0586-0.0586 0.10156-0.125 0.13281-0.19141l1.4648-3.3164 3.3203-1.4688c0.0664-0.0312 0.13281-0.0742 0.1914-0.13281 0.2461-0.24609 0.2461-0.64844 0-0.89844-0.0977-0.0937-0.21484-0.15234-0.33593-0.17578l-7.1602-1.3125z" fill="#211e1e"/><path d="m190.47 312.32c0.98828-0.98828 0.98828-2.5859 8e-3 -3.5781v-4e-3l-4e-3 -4e-3 -4.9766-4.9726-2.2422 2.2461 4.0703 4.0703c0.25 0.2461 0.25 0.64844 0 0.89844l-6.7344 6.7344 2.2461 2.2461 7.6289-7.6289z" fill="#211e1e"/><path d="m177.22 302.67c1.8438-1.8477 4.1797-2.9062 6.5859-3.1836v22.082c-2.4062-0.27344-4.7422-1.3359-6.5859-3.1797-4.3398-4.3438-4.3398-11.379 0-15.719m15.715 15.719c-1.8438 1.8438-4.1797 2.9062-6.5898 3.1797v-22.082c2.4102 0.27735 4.7461 1.3359 6.5898 3.1836 4.3398 4.3398 4.3398 11.375 0 15.719m1.5742-17.289c-5.2109-5.207-13.656-5.207-18.863 0-5.207 5.207-5.207 13.652 0 18.859s13.652 5.207 18.863 0c5.207-5.207 5.207-13.652 0-18.859" fill="#bf2317"/></g></g></svg>
