<?xml version="1.0" encoding="UTF-8"?>
<svg width="672.7" height="820.88" version="1.1" viewBox="0 0 672.7 820.88" xml:space="preserve" xmlns="http://www.w3.org/2000/svg"><defs><clipPath id="l"><path d="m27.125 45h513.12v693.25h-513.12z"/></clipPath><clipPath id="k"><path d="m27.125 45h513.12v693.25h-513.12z"/></clipPath><clipPath id="j"><path d="m27.125 45h513.12v693.25h-513.12z"/></clipPath><clipPath id="i"><path d="m31.424 79.626h504.53v658.62h-504.53z"/></clipPath><clipPath id="h"><path d="m27.125 45h513.12v693.25h-513.12z"/></clipPath><clipPath id="g"><path d="m27.125 45h513.12v693.25h-513.12z"/></clipPath><clipPath id="f"><path d="m31.424 79.626h504.53v658.62h-504.53z"/></clipPath><clipPath id="e"><path d="m27.125 45h513.12v693.25h-513.12z"/></clipPath><clipPath id="d"><path d="m31.424 79.626h504.53v658.62h-504.53z"/></clipPath><clipPath id="c"><path d="m27.125 45h513.12v693.25h-513.12z"/></clipPath><clipPath id="b"><path d="m31.424 79.626h504.53v658.62h-504.53z"/></clipPath><clipPath id="a"><path d="m27.125 45h513.12v693.25h-513.12z"/></clipPath></defs><g transform="matrix(1.3333 0 0 -1.3333 -41.898 927.04)"><g transform="translate(4.485)"><g clip-path="url(#l)"><g transform="translate(472.23 278.77)"><path d="m0 0s-8.433-8.551-11.157-11.088c-3.385-3.154-12.116-9.128-14.438-8.547-2.323 0.581-7.901 18.969-7.901 27.443v51.436c32.404 0 40.085-1.648 45.477-9.036 3.376-4.627 6.117-9.59 6.117-17.146 0-12.767-8.568-23.532-18.098-33.062m-75.877-182.73h18.948v239.67c0 1.239 1.005 2.242 2.243 2.242 1.236 0 2.239-1.001 2.242-2.237v-239.67h18.948v40.653c0 5.071 10.909 28.969 10.909 35.513v26.285c0 9.121 2.238 23.731 6.597 31.741 9.957 18.297 17.729 24.002 25.308 31.257l4.01 3.889c7.78 7.782 23.971 23.973 23.971 46.453 0 12.853-4.027 23.265-11.969 30.946-10.616 10.267-20.733 13.923-49.129 13.923-5.939 0-9.697 3.753-9.697 9.727v24.425h-18.948v-31.453c-3e-3 -1.236-1.006-2.237-2.242-2.237-1.238 0-2.243 1.004-2.243 2.242v31.448h-18.948z" fill="#b1b4b6"/></g><g transform="translate(443.59 246.87)"><path d="m0 0c0.72 0.438 5.16 1.987 5.462 2.17 0.079 0.26 1.165 1.838 1.549 3.098-1.032-0.626-6.345-2.532-6.345-2.532s-5.206 6.824-5.715 7.659c-0.034-0.113-0.069-0.226-0.102-0.338v-3.176c1.584-2.174 4.952-6.553 5.151-6.881" fill="#fff"/></g><g transform="translate(441.46 237.56)"><path d="m0 0c0.613 0.422 2.531 1.658 2.774 1.825 0.046 0.147 0.099 0.319 0.099 0.319s0.444 1.459 0.833 2.741c-0.014-9e-3 -3.195-2.117-3.195-2.117s-2.459 3.563-3.369 4.883c-0.048-0.155-0.126-0.188-0.175-0.349l0.116-3.147c1.089-1.569 2.704-3.846 2.917-4.155" fill="#fff"/></g><g transform="translate(439.68 228.53)"><path d="m0 0c0.404 0.313 1.488 1.009 1.653 1.138 0.096 0.311 0.89 2.891 1.018 3.308-0.57-0.441-2.319-1.653-2.319-1.653l-0.878 1.135s-0.27 0.319-0.577 0.689v-3.268c0.38-0.46 0.916-1.107 1.103-1.349" fill="#fff"/></g><g transform="translate(445.71 255.73)"><path d="m0 0c0.719 0.439 7.364 1.297 7.664 1.48 0.078 0.26 1.799 1.768 2.183 3.027-1.032-0.626-9.181-1.769-9.181-1.769s-6.273 6.843-7.772 8.702v-3.471c2.275-2.625 6.911-7.648 7.106-7.969" fill="#fff"/></g><g transform="translate(438.73 182.24)"><path d="m0 0v-40.441" fill="none" stroke="#fff" stroke-dasharray="1.5, 4.5" stroke-width="2"/></g><g transform="translate(438.77 199.92)"><path d="m0 0c0.15 10.615 0.437 20.71 2.325 28.721 3.372 14.326 10.258 26.587 17.567 36.012l6.501 7.994m-26.43-85.895v95.275" fill="none" stroke="#fff" stroke-width="2"/></g></g></g><g clip-path="url(#k)"><g transform="translate(429.41 636.25)"><path d="m0 0h6.354v1.559l4.377-2.576-4.377-2.399v1.44h-6.354z"/></g><g transform="translate(450.92 643.99)"><path d="m0 0h29.291" fill="none" stroke="#000" stroke-width=".75"/></g></g><text transform="matrix(1 0 0 -1 450.45 646.93)" fill="#000000" font-family="Helvetica" font-size="9px"><tspan x="0 5.0040002 10.008 15.012 20.016001 25.02" y="0">Legend</tspan><tspan x="-7.4790001 -0.98100001 1.017 4.0139999 9.0179996 13.518 16.02 18.018 23.021999 28.025999 30.528 35.532001 38.034 40.535999 43.037998 45.945 50.769001 55.043999 60.048" y="15.354">Direction of travel</tspan></text><text transform="matrix(1 0 0 -1 228.73 688.48)" fill="#000000" font-family="Helvetica" font-size="9.5px" font-weight="bold"><tspan x="0 6.8590002 9.5 12.6635 14.3545 19.399 23.0945 28.376499 34.181 36.821999 39.9855 42.626499 48.431 54.2355 59.517502 62.158501 64.7995 67.440498 73.245003 79.0495 84.853996 90.136002 95.940498 101.745 104.386" y="0">B - Traditional jughandle</tspan></text><g clip-path="url(#j)"><g transform="translate(232.81 455.27)"><path d="m0 0s-16.938-17.176-22.409-22.27c-6.799-6.333-24.333-18.334-29-17.167-4.666 1.167-15.868 38.099-15.868 55.119v84.576c0 11.998 1e-3 18.732 1e-3 18.732 65.082 0 80.511-3.308 91.34-18.149 6.781-9.292 12.287-19.26 12.287-34.436 0-25.644-17.211-47.265-36.351-66.405m50.875 128.56c-21.321 20.62-41.64 27.962-98.676 27.962-11.928 0-19.475 7.539-19.475 19.537v49.057h-38.058v-63.173c-5e-3 -2.482-2.019-4.493-4.503-4.493-2.487 0-4.504 2.017-4.504 4.503v63.163h-38.058v-49.006h0.033c0-11.998-6.882-18.672-19.23-18.672l-29.794 7e-3v-38.581l29.794 0.012c12.348 0 19.23-6.674 19.23-18.672h-0.033v-467.22h38.058v481.37c0 2.487 2.017 4.503 4.504 4.503 2.484 0 4.498-2.01 4.503-4.493v-481.38h38.057v81.495c0 0.054 1e-3 0.103 1e-3 0.157 0 10.183 21.91 58.183 21.91 71.325v52.796c0 18.318 4.494 47.662 13.25 63.75 20 36.75 35.608 48.209 50.83 62.781l8.055 7.811c15.627 15.629 48.147 48.148 48.147 93.3 0 25.815-8.088 46.728-24.041 62.157" fill="#b1b4b6"/></g><g transform="translate(175.29 391.21)"><path d="m0 0c1.446 0.881 10.366 3.991 10.97 4.358 0.159 0.522 2.342 3.693 3.111 6.222-2.072-1.259-12.742-5.084-12.742-5.084s-10.458 13.704-11.479 15.381c-0.069-0.226-0.138-0.453-0.206-0.679v-6.378c3.181-4.366 9.946-13.16 10.346-13.82" fill="#fff"/></g><g transform="translate(171.01 372.5)"><path d="m0 0c1.231 0.848 5.083 3.33 5.571 3.666 0.091 0.295 0.198 0.641 0.198 0.641s0.891 2.929 1.675 5.505c-0.03-0.019-6.419-4.251-6.419-4.251s-4.938 7.154-6.767 9.806c-0.095-0.311-0.253-0.379-0.351-0.701l0.234-6.319c2.186-3.154 5.431-7.725 5.859-8.347" fill="#fff"/></g><g transform="translate(167.43 354.38)"><path d="m0 0c0.81 0.629 2.989 2.027 3.319 2.285 0.193 0.627 1.788 5.809 2.045 6.647-1.144-0.887-4.656-3.321-4.656-3.321l-1.767 2.278s-0.54 0.641-1.156 1.384v-6.565c0.763-0.923 1.839-2.223 2.215-2.708" fill="#fff"/></g><g transform="translate(179.54 409.01)"><path d="m0 0c1.446 0.88 14.789 2.604 15.394 2.971 0.158 0.522 3.614 3.551 4.384 6.081-2.073-1.259-18.44-3.556-18.44-3.556s-12.6 13.747-15.611 17.48v-6.971c4.572-5.273 13.883-15.362 14.273-16.005" fill="#fff"/></g><path d="m171.03 566.32h8v64.728h-8z" fill="#fff"/><path d="m125.44 560.21h64.728v8h-64.728z" fill="#fff"/><g transform="translate(146.26 458.01)"><path d="m0 0v-371.98" fill="none" stroke="#fff" stroke-dasharray="14.4, 43.2" stroke-width="2"/></g><g transform="translate(165.54 267.43)"><path d="m0 0v-93.278" fill="none" stroke="#fff" stroke-dasharray="3, 9" stroke-width="2"/></g></g><g clip-path="url(#i)"><g transform="translate(146.26 568.21)"><path d="m0 0v-72" fill="none" stroke="#fff" stroke-width="2"/></g><g transform="translate(99.358 568.21)"><path d="m0 0v-487.84" fill="none" stroke="#fff" stroke-dasharray="14.4, 43.2" stroke-width="2"/></g></g><g clip-path="url(#h)"><g transform="translate(171.03 593.6)"><path d="m0 0c55.015 0 71.586-3.224 88.155-15.113 25.532-18.322 29.666-44.383 28.922-56.576-0.745-12.194-1.864-23.645-9.432-37.053-7.568-13.407-21.559-34.357-29.643-39.746" fill="none" stroke="#fff" stroke-dasharray="72, 43.2, 14.4, 43.2, 14.4, 43.2" stroke-width="2"/></g></g><text transform="matrix(1 0 0 -1 42.485 595.28)" fill="#000000" font-family="Helvetica" font-size="7px"><tspan x="0 3.892 8.5609999 13.23 15.176 19.452999" y="0">LEVITT</tspan><tspan x="0.58099997 5.25 9.9189997 16.527 21.195999" y="8.3999996">PKWY.</tspan></text><g clip-path="url(#g)"><g transform="translate(194.75 437.96)"><path d="m0 0v2.87h-3v2.034h-7.819v-2.034h-3v-2.87h6.909z"/></g><g transform="translate(259.7 494.25)"><path d="m0 0 0.651 1.279 0.65 1.279-1.279 0.651-1.278 0.652-0.058 0.029-0.057 0.029 0.463 0.907 0.461 0.906-3.482 1.775-3.485 1.774-0.461-0.906-0.463-0.906-1.335 0.68-1.335 0.681-0.652-1.278-0.65-1.279 6.154-3.136z"/></g><g transform="translate(110.33 527.66)"><path d="m0 0v-6.353h1.559l-2.576-4.377-2.399 4.377h1.44v6.353z"/></g><g transform="translate(90.712 527.66)"><path d="m0 0v-6.353h1.559l-2.577-4.377-2.398 4.377h1.439v6.353z"/></g><g transform="translate(135.49 516.93)"><path d="m0 0v6.354h-1.558l2.576 4.376 2.398-4.376h-1.439v-6.354z"/></g><g transform="translate(155.1 516.93)"><path d="m0 0v6.354h-1.559l2.576 4.376 2.399-4.376h-1.44v-6.354z"/></g><g transform="translate(372.77 449.53)"><path d="m0 0c-0.446 0-0.886 0.118-1.275 0.342l-51.908 29.97c-1.22 0.704-1.64 2.27-0.936 3.49l17.009 29.461c0.456 0.789 1.305 1.279 2.217 1.279 0.445 0 0.887-0.118 1.275-0.342l51.908-29.97c0.591-0.341 1.013-0.892 1.19-1.552 0.177-0.659 0.086-1.347-0.256-1.938l-17.009-29.462c-0.455-0.788-1.303-1.278-2.215-1.278" fill="#fff"/></g><g transform="translate(337.88 514.2)"><path d="m0 0c-0.956 0-1.847-0.514-2.325-1.341l-17.01-29.461c-0.737-1.28-0.297-2.922 0.983-3.661l51.908-29.969c0.407-0.236 0.869-0.36 1.337-0.36 0.956 0 1.846 0.514 2.323 1.341l17.01 29.461c0.358 0.62 0.453 1.342 0.268 2.034s-0.629 1.269-1.249 1.627l-51.908 29.97c-0.407 0.235-0.869 0.359-1.337 0.359m0-0.25c0.412 0 0.829-0.105 1.212-0.326l51.908-29.969c1.162-0.671 1.561-2.157 0.889-3.32l-17.01-29.461c-0.449-0.78-1.266-1.216-2.106-1.216-0.412 0-0.829 0.105-1.212 0.326l-51.908 29.97c-1.163 0.67-1.561 2.157-0.891 3.319l17.01 29.461c0.451 0.78 1.267 1.216 2.108 1.216"/></g><g transform="translate(390.48 481.15)"><path d="m0 0-17.01-29.462c-0.225-0.388-0.721-0.52-1.106-0.298l-51.91 29.97c-0.387 0.224-0.519 0.72-0.297 1.107l17.01 29.462c0.225 0.387 0.721 0.52 1.107 0.297l51.911-29.971c0.384-0.222 0.517-0.718 0.295-1.105m0.175 1.924-51.908 29.97c-0.84 0.484-1.914 0.196-2.398-0.642l-17.01-29.462c-0.484-0.839-0.195-1.914 0.643-2.398l51.91-29.97c0.836-0.484 1.912-0.195 2.396 0.643l17.01 29.462c0.484 0.838 0.195 1.913-0.643 2.397"/></g><g transform="translate(342.6 484.79)"><path d="m0 0 3.779 6.546 4.061-2.343-0.604-1.047-3.015 1.74-0.907-1.57 1.965-1.135-0.603-1.047-1.965 1.135-1.666-2.883z"/></g><g transform="translate(353.69 484.69)"><path d="m0 0c0.125 0.217 0.158 0.443 0.099 0.676-0.062 0.232-0.203 0.412-0.42 0.539l-1.507 0.869-0.907-1.57 1.506-0.871c0.219-0.125 0.445-0.155 0.682-0.084 0.236 0.071 0.418 0.217 0.547 0.441m-1.598-5.383-1.105 0.639 0.609 3.492-1.246 0.719-1.664-2.883-1.045 0.603 3.779 6.547 2.545-1.47c0.504-0.289 0.828-0.715 0.979-1.276 0.15-0.562 0.082-1.094-0.209-1.595-0.424-0.733-1.088-1.083-1.991-1.049z"/></g><g transform="translate(358.57 479.93)"><path d="m0 0c0.386 0.668 0.595 1.261 0.63 1.777 0.041 0.586-0.154 1.005-0.588 1.255-0.437 0.253-0.898 0.214-1.38-0.119-0.426-0.284-0.832-0.762-1.221-1.434-0.387-0.669-0.596-1.26-0.633-1.776-0.041-0.588 0.154-1.006 0.588-1.256s0.893-0.21 1.381 0.12c0.43 0.289 0.838 0.765 1.223 1.433m1.044-0.603c-0.507-0.881-1.089-1.526-1.744-1.934-0.842-0.519-1.677-0.542-2.508-0.062-0.834 0.481-1.234 1.216-1.199 2.203 0.022 0.766 0.289 1.591 0.801 2.478s1.094 1.531 1.746 1.934c0.838 0.523 1.674 0.544 2.508 0.062 0.83-0.479 1.228-1.213 1.199-2.203-0.025-0.77-0.293-1.597-0.803-2.478"/></g><g transform="translate(363.33 476.55)"><path d="m0 0 3.668 2.877 1.047-0.605-3.779-6.546-1.047 0.604 2.164 3.75-3.672-2.88 0.66 4.621-2.166-3.751-1.047 0.604 3.78 6.547 1.048-0.605z"/></g><g transform="translate(348.25 497.44)"><path d="m0 0c-0.322-0.559-0.812-0.937-1.467-1.135-0.705-0.21-1.375-0.131-2.017 0.24-0.645 0.373-1.051 0.913-1.219 1.621-0.16 0.662-0.074 1.276 0.254 1.842l2.559 4.433 1.045-0.604-2.559-4.432c-0.184-0.32-0.225-0.655-0.119-1.007 0.105-0.353 0.32-0.621 0.642-0.808 0.329-0.188 0.67-0.24 1.024-0.154 0.355 0.086 0.627 0.288 0.81 0.607l2.561 4.433 1.045-0.603z"/></g><g transform="translate(361.79 494.13)"><path d="m0 0-1.508 0.87-3.175-5.501-1.045 0.604 3.175 5.501-1.507 0.87 0.603 1.046 4.061-2.344z"/></g><g transform="translate(365.27 487.61)"><path d="m0 0c-0.323-0.559-0.811-0.937-1.467-1.135-0.703-0.21-1.375-0.129-2.018 0.24-0.644 0.373-1.05 0.912-1.218 1.62-0.159 0.663-0.075 1.277 0.254 1.844l2.558 4.433 1.045-0.604-2.559-4.433c-0.185-0.319-0.222-0.655-0.117-1.007 0.104-0.351 0.319-0.62 0.641-0.807 0.328-0.189 0.67-0.241 1.025-0.155 0.356 0.086 0.625 0.289 0.809 0.607l2.558 4.434 1.047-0.605z"/></g><g transform="translate(371.67 487.4)"><path d="m0 0c0.127 0.219 0.16 0.444 0.1 0.677-0.061 0.233-0.201 0.413-0.418 0.539l-1.508 0.87-0.908-1.572 1.508-0.87c0.218-0.127 0.445-0.154 0.681-0.084 0.237 0.071 0.418 0.217 0.545 0.44m-1.596-5.383-1.105 0.639 0.607 3.494-1.244 0.719-1.664-2.885-1.045 0.603 3.78 6.548 2.544-1.469c0.502-0.291 0.829-0.715 0.979-1.276 0.15-0.562 0.08-1.094-0.209-1.596-0.424-0.732-1.088-1.083-1.99-1.05z"/></g><g transform="translate(375.63 478.81)"><path d="m0 0-1.002 0.578 0.117 5.721-2.508-4.342-1.044 0.604 3.781 6.547 1.013-0.586-0.115-5.686 2.492 4.314 1.045-0.603z"/></g><g transform="translate(354.23 464.98)"><path d="m0 0-3.34 1.928 3.779 6.547 0.918-0.53-3.252-5.63 2.422-1.399z"/></g><g transform="translate(358.77 465.93)"><path d="m0 0 0.718 2.424-1.746-1.83zm0.035-3.597-0.936 0.541 0.594 2.012-1.473 0.851-1.445-1.522-0.93 0.537 5.364 5.631 1.021-0.59z"/></g><g transform="translate(363.39 459.69)"><path d="m0 0-0.916 0.527 0.615 5.295-2.447-4.236-0.914 0.527 3.779 6.547 0.918-0.529-0.611-5.285 2.441 4.228 0.914-0.527z"/></g><g transform="translate(368.17 456.92)"><path d="m0 0-3.336 1.934 3.781 6.547 3.338-1.928-0.527-0.916-2.424 1.401-0.982-1.703 1.441-0.832-0.529-0.917-1.442 0.832-1.211-2.097 2.424-1.399z"/></g><g transform="translate(330.72 478.47)"><path d="m0 0-3.4 1.963 3.849 6.67 0.934-0.539-3.311-5.736 2.467-1.424z"/></g><g transform="translate(335.05 475.96)"><path d="m0 0-3.395 1.972 3.852 6.669 3.398-1.963-0.539-0.934-2.464 1.423-1.004-1.736 1.466-0.847-0.539-0.934-1.466 0.846-1.231-2.129 2.467-1.424z"/></g><g transform="translate(342.9 479.09)"><path d="m0 0-2.469 1.425-1.002-1.736 1.467-0.847-0.539-0.934-1.467 0.846-1.77-3.064-0.933 0.539 3.851 6.67 3.401-1.964z"/></g><g transform="translate(346.7 476.89)"><path d="m0 0-1.234 0.712-3.311-5.735-0.933 0.539 3.31 5.735-1.234 0.713 0.539 0.935 3.402-1.964z"/></g><g transform="translate(238.77 644.67)"><path d="m0 0-1.418 0.226-1.417 0.226-0.452-2.834-0.011-0.063-0.01-0.063-2.01 0.32-0.616-3.86-0.617-3.86 2.008-0.322-0.474-2.96 1.417-0.226 1.417-0.227 1.091 6.822z"/></g><g transform="translate(241.17 637.18)"><path d="m0 0c11.021-2.139 45.13-27.011 45.13-27.011" fill="none" stroke="#000" stroke-width=".75"/></g><g transform="translate(239.85 636.88)"><path d="m0 0c0.803-0.42 1.313-0.763 1.945-1.167l0.495 2.601c-0.267-0.07-1.336-0.276-2.238-0.371-0.964-0.102-1.829-0.134-2.378-0.098 0.524-0.169 1.316-0.515 2.176-0.965"/></g><path d="m418.38 331.1h32.365v4h-32.365z" fill="#fff"/><g transform="translate(428.79 279.99)"><path d="m0 0v-184.38" fill="none" stroke="#fff" stroke-dasharray="7, 21" stroke-width="1.5"/></g><g transform="translate(428.79 335.1)"><path d="m0 0v-36" fill="none" stroke="#fff" stroke-width="1.5"/></g><path d="m441.2 334.25h4v32.365h-4z" fill="#fff"/><g transform="translate(498.96 304.17)"><path d="m0 0c-0.609-3.776-1.711-7.67-3.916-11.577-3.785-6.703-12.107-16.102-14.848-18.937" fill="none" stroke="#fff" stroke-dasharray="7, 21" stroke-width="1.5"/></g><g transform="translate(441.2 347.9)"><path d="m0 0c6.6 0 30.413 0.702 43.885-7.382 9.768-5.86 13.27-14.976 14.317-21.87" fill="none" stroke="#fff" stroke-width="1.5"/></g><g transform="translate(448.53 130.12)"><path d="m0 0v1.434h-1.5v1.017h-3.908v-1.017h-1.5v-1.434h3.455z"/></g><g transform="translate(453.04 269.97)"><path d="m0 0v1.433h-1.5v1.018h-3.91v-1.018h-1.5v-1.433h3.455z"/></g><g transform="translate(410.83 314.82)"><path d="m0 0v-3.177h0.78l-1.289-2.188-1.2 2.188h0.721v3.177z"/></g><g transform="translate(401.02 314.82)"><path d="m0 0v-3.177h0.779l-1.289-2.188-1.199 2.188h0.72v3.177z"/></g><g transform="translate(423.41 309.46)"><path d="m0 0v3.178h-0.779l1.289 2.187 1.199-2.187h-0.72v-3.178z"/></g><g transform="translate(433.22 309.46)"><path d="m0 0v3.178h-0.779l1.289 2.187 1.199-2.187h-0.721v-3.178z"/></g><g transform="translate(472.9 220.23)"><path d="m0 0c-0.757 0-1.374 0.618-1.374 1.377v12.501c0 0.759 0.617 1.376 1.374 1.376h57.51c0.758 0 1.375-0.617 1.375-1.376v-12.501c0-0.759-0.617-1.377-1.375-1.377z" fill="#fff"/></g><g transform="translate(530.41 235.61)"><path d="m0 0h-57.51c-0.827 0-1.499-0.673-1.499-1.501v-12.501c0-0.829 0.672-1.502 1.499-1.502h57.51c0.827 0 1.5 0.673 1.5 1.502v12.501c0 0.828-0.673 1.501-1.5 1.501m0-0.25c0.691 0 1.25-0.56 1.25-1.251v-12.501c0-0.69-0.559-1.252-1.25-1.252h-57.51c-0.691 0-1.249 0.562-1.249 1.252v12.501c0 0.691 0.558 1.251 1.249 1.251h57.51"/></g><g transform="translate(530.83 221.6)"><path d="m0 0c0-0.23-0.186-0.417-0.419-0.417h-57.51c-0.229 0-0.417 0.187-0.417 0.417v12.501c0 0.229 0.188 0.415 0.417 0.415h57.51c0.233 0 0.419-0.186 0.419-0.415zm-0.419 13.44h-57.51c-0.516 0-0.938-0.42-0.938-0.939v-12.501c0-0.515 0.422-0.938 0.938-0.938h57.51c0.519 0 0.937 0.423 0.937 0.938v12.501c0 0.519-0.418 0.939-0.937 0.939"/></g><g transform="translate(520.34 231.18)"><path d="m0 0 5.657 1.091-1.089-5.662c-0.047-0.25-0.288-0.413-0.54-0.367-0.168 0.032-0.257 0.148-0.348 0.302l-0.693 1.288-4.401-4.402-1.768 1.768 4.401 4.401-1.266 0.685c-0.172 0.096-0.288 0.181-0.322 0.356-0.044 0.251 0.117 0.492 0.369 0.54" fill-rule="evenodd"/></g><g transform="translate(483.93 227.12)"><path d="m0 0c0-0.77-0.257-1.408-0.77-1.912-0.515-0.506-1.157-0.757-1.929-0.757-0.771 0-1.415 0.254-1.929 0.763-0.516 0.51-0.771 1.145-0.771 1.906v4.068h1.195v-4.071c0-0.423 0.151-0.775 0.456-1.061 0.289-0.272 0.639-0.409 1.049-0.409 0.413 0 0.765 0.14 1.062 0.414 0.291 0.278 0.439 0.628 0.439 1.056v4.071h1.198z"/></g><g transform="translate(494.46 230.12)"><path d="m0 0h-1.538v-5.602h-1.063v5.602h-1.535v1.066h4.136z"/></g><g transform="translate(499.99 226.67)"><path d="m0 0c0-0.571-0.205-1.076-0.618-1.517-0.447-0.47-0.995-0.705-1.646-0.705-0.66 0-1.208 0.233-1.646 0.7-0.416 0.436-0.622 0.944-0.622 1.522v4.515h1.067v-4.518c0-0.325 0.117-0.601 0.355-0.819 0.233-0.224 0.516-0.335 0.846-0.335 0.333 0 0.615 0.111 0.85 0.335 0.233 0.218 0.349 0.494 0.349 0.819v4.518h1.065z"/></g><g transform="translate(504.97 229.34)"><path d="m0 0c0 0.224-0.075 0.41-0.223 0.56-0.15 0.152-0.335 0.227-0.558 0.227h-1.536v-1.605h1.536c0.223 0 0.408 0.082 0.558 0.239 0.148 0.16 0.223 0.35 0.223 0.579m1.153-4.815h-1.126l-1.075 2.933h-1.269v-2.933h-1.063v6.668h2.592c0.51 0 0.946-0.183 1.308-0.545 0.363-0.361 0.543-0.798 0.543-1.308 0-0.747-0.351-1.309-1.058-1.682z"/></g><g transform="translate(511.79 224.52)"><path d="m0 0h-1.018l-2.437 4.419v-4.419h-1.063v6.668h1.033l2.422-4.395v4.395h1.063z"/></g><g transform="translate(469.4 94.505)"><path d="m0 0c-1.102 0-1.999 0.896-1.999 1.999v26.256c0 1.103 0.897 2.001 1.999 2.001h46.256c1.105 0 2.003-0.898 2.003-2.001v-26.256c0-1.103-0.898-1.999-2.003-1.999z" fill="#fff"/></g><g transform="translate(515.66 124.89)"><path d="m0 0h-46.256c-1.17 0-2.124-0.954-2.124-2.126v-26.256c0-1.171 0.954-2.124 2.124-2.124h46.256c1.174 0 2.128 0.953 2.128 2.124v26.256c0 1.172-0.954 2.126-2.128 2.126m0-0.25c1.038 0 1.878-0.839 1.878-1.876v-26.256c0-1.033-0.84-1.874-1.878-1.874h-46.256c-1.036 0-1.874 0.841-1.874 1.874v26.256c0 1.037 0.838 1.876 1.874 1.876h46.256"/></g><g transform="translate(516.28 96.504)"><path d="m0 0c0-0.343-0.28-0.623-0.625-0.623h-46.256c-0.346 0-0.626 0.28-0.626 0.623v26.256c0 0.346 0.28 0.626 0.626 0.626h46.256c0.345 0 0.625-0.28 0.625-0.626zm-0.625 27.612h-46.256c-0.748 0-1.356-0.608-1.356-1.356v-26.256c0-0.743 0.608-1.352 1.356-1.352h46.256c0.748 0 1.354 0.609 1.354 1.352v26.256c0 0.748-0.606 1.356-1.354 1.356"/></g><g transform="translate(482.88 106.72)"><path d="m0 0v5.836h3.617v-0.935h-2.684v-1.398h1.751v-0.933h-1.751v-2.57z"/></g><g transform="translate(490.32 110.93)"><path d="m0 0c0 0.191-0.062 0.358-0.192 0.491-0.134 0.13-0.295 0.195-0.489 0.195h-1.344v-1.398h1.344c0.194 0 0.355 0.069 0.489 0.205 0.13 0.138 0.192 0.307 0.192 0.507m1.01-4.215h-0.984l-0.942 2.57h-1.109v-2.57h-0.932v5.836h2.27c0.446 0 0.83-0.161 1.145-0.477 0.318-0.317 0.477-0.699 0.477-1.144 0-0.656-0.31-1.146-0.926-1.473z"/></g><g transform="translate(495.42 109.63)"><path d="m0 0c0 0.595-0.09 1.071-0.265 1.429-0.198 0.41-0.491 0.617-0.877 0.617-0.389 0-0.68-0.207-0.877-0.617-0.175-0.351-0.262-0.829-0.262-1.429 0-0.596 0.087-1.073 0.262-1.433 0.2-0.406 0.491-0.611 0.877-0.611s0.679 0.205 0.877 0.611c0.175 0.36 0.265 0.837 0.265 1.433m0.933 0c0-0.786-0.142-1.441-0.422-1.964-0.362-0.675-0.911-1.011-1.653-1.011-0.74 0-1.293 0.336-1.652 1.011-0.28 0.52-0.417 1.176-0.417 1.964 0 0.791 0.137 1.445 0.417 1.967 0.359 0.671 0.912 1.009 1.652 1.009 0.742 0 1.291-0.338 1.653-1.009 0.28-0.525 0.422-1.182 0.422-1.967"/></g><g transform="translate(499.91 109.21)"><path d="m0 0 1.34 3.34h0.936v-5.836h-0.936v3.343l-1.34-3.343-1.342 3.343v-3.343h-0.935v5.836h0.935z"/></g><g transform="translate(475.09 102.22)"><path d="m0 0c0 0.483-0.201 0.737-0.603 0.76h-1.031v-1.516h1.031c0.402 0.022 0.603 0.273 0.603 0.756m0.814-4.259h-0.844l-0.769 2.685h-0.835v-2.685h-0.816v5.833h1.809c0.308-0.027 0.485-0.041 0.525-0.051 0.267-0.062 0.474-0.19 0.629-0.386 0.202-0.259 0.301-0.638 0.301-1.137 0-0.72-0.267-1.192-0.807-1.422z"/></g><path d="m477.71 97.964h-0.817v5.833h0.817z"/><g transform="translate(482.14 102.42)"><path d="m0 0h-0.872c-0.136 0.413-0.362 0.618-0.676 0.618-0.352 0-0.603-0.297-0.756-0.881-0.092-0.368-0.139-0.793-0.139-1.277 0-0.489 0.047-0.914 0.142-1.279 0.15-0.587 0.404-0.881 0.756-0.881 0.251 0 0.442 0.142 0.582 0.425 0.099 0.2 0.147 0.393 0.147 0.579v0.164h-0.729v0.816h1.545v-1.06c0-0.275-0.075-0.564-0.222-0.877-0.268-0.578-0.708-0.863-1.323-0.863-0.701 0-1.194 0.398-1.474 1.197-0.163 0.469-0.245 1.061-0.245 1.779 0 1.982 0.57 2.973 1.716 2.973 0.546 0 0.971-0.24 1.268-0.715 0.123-0.201 0.219-0.438 0.28-0.718"/></g><g transform="translate(486.58 97.964)"><path d="m0 0h-0.816v2.685h-1.632v-2.685h-0.816v5.833h0.816v-2.33h1.632v2.33h0.816z"/></g><g transform="translate(490.37 102.98)"><path d="m0 0h-1.074v-5.019h-0.817v5.019h-1.082v0.814h2.973z"/></g><g transform="translate(500 97.964)"><path d="m0 0h-2.976v5.833h0.817v-5.017h2.159z"/></g><g transform="translate(502.67 100.35)"><path d="m0 0-0.455 1.899-0.461-1.899zm1.411-2.39h-0.834l-0.378 1.574h-1.314l-0.379-1.574h-0.83l1.414 5.833h0.91z"/></g><g transform="translate(508.17 97.964)"><path d="m0 0h-0.816l-1.635 3.773v-3.773h-0.815v5.833h0.819l1.634-3.769-3e-3 3.769h0.816z"/></g><g transform="translate(512.43 97.959)"><path d="m0 0-2.976 5e-3v5.833h2.976v-0.814h-2.16v-1.516h1.285v-0.818h-1.285v-1.869h2.16z"/></g><g transform="translate(481.77 117.35)"><path d="m0 0c0-0.497-0.182-0.937-0.543-1.324-0.39-0.413-0.868-0.616-1.441-0.616-0.576 0-1.055 0.203-1.439 0.611-0.362 0.383-0.54 0.826-0.54 1.329v3.953h0.93v-3.953c0-0.283 0.103-0.524 0.308-0.718 0.208-0.196 0.455-0.292 0.741-0.292 0.292 0 0.538 0.096 0.745 0.292 0.206 0.194 0.306 0.435 0.306 0.718v3.953h0.933z"/></g><g transform="translate(492.1 120.37)"><path d="m0 0h-1.345v-4.901h-0.933v4.901h-1.339v0.936h3.617z"/></g><g transform="translate(496.94 117.35)"><path d="m0 0c0-0.497-0.181-0.937-0.543-1.324-0.388-0.413-0.87-0.616-1.44-0.616-0.577 0-1.055 0.203-1.44 0.611-0.363 0.383-0.543 0.826-0.543 1.329v3.953h0.93v-3.953c0-0.283 0.106-0.524 0.311-0.718 0.205-0.196 0.452-0.292 0.742-0.292 0.291 0 0.539 0.096 0.744 0.292 0.205 0.194 0.305 0.435 0.305 0.718v3.953h0.934z"/></g><g transform="translate(501.3 119.68)"><path d="m0 0c0 0.197-0.065 0.359-0.197 0.492-0.128 0.13-0.291 0.195-0.489 0.195h-1.34v-1.397h1.34c0.198 0 0.361 0.068 0.489 0.208 0.132 0.135 0.197 0.303 0.197 0.502m1.009-4.214h-0.985l-0.94 2.572h-1.11v-2.572h-0.931v5.837h2.267c0.449 0 0.83-0.16 1.145-0.478 0.32-0.315 0.476-0.698 0.476-1.145 0-0.653-0.306-1.146-0.926-1.471z"/></g><g transform="translate(507.26 115.47)"><path d="m0 0h-0.895l-2.128 3.868v-3.868h-0.93v5.837h0.904l2.116-3.848v3.848h0.933z"/></g><g transform="translate(405.51 335.1)"><path d="m0 0v-240.18" fill="none" stroke="#fff" stroke-dasharray="7, 21" stroke-width="1.5"/></g></g><g clip-path="url(#f)"><g transform="translate(441.2 347.9)"><path d="m0 0c-14.222 0.891-36.203 5.094-35.681-12.802" fill="none" stroke="#fff" stroke-dasharray="3, 9" stroke-width="1.5"/></g><path d="m535.7 87.715h-148.13v308.02h148.13z" fill="none" stroke="#000" stroke-width=".5"/></g><g clip-path="url(#e)"><g transform="translate(165.61 296.91)"><path d="m0 0c0.301 21.321 0.878 41.596 4.668 57.686 6.775 28.773 20.603 53.402 35.285 72.331l13.057 16.056m-53.085-172.52v191.36" fill="none" stroke="#fff" stroke-width="2"/></g><g transform="translate(286.24 335.63)"><path d="m0 0c-1.408 0-2.555 1.146-2.555 2.554v21.376c0 1.41 1.147 2.556 2.555 2.556h59.94c1.408 0 2.555-1.146 2.555-2.556v-21.376c0-1.408-1.147-2.554-2.555-2.554z" fill="#fff"/></g><g transform="translate(346.18 362.25)"><path d="m0 0h-59.94c-1.478 0-2.68-1.202-2.68-2.681v-21.376c0-1.477 1.202-2.679 2.68-2.679h59.94c1.477 0 2.68 1.202 2.68 2.679v21.376c0 1.479-1.203 2.681-2.68 2.681m0-0.25c1.342 0 2.43-1.088 2.43-2.431v-21.376c0-1.341-1.088-2.429-2.43-2.429h-59.94c-1.342 0-2.43 1.088-2.43 2.429v21.376c0 1.343 1.088 2.431 2.43 2.431h59.94"/></g><g transform="translate(346.99 338.19)"><path d="m0 0c0-0.447-0.363-0.81-0.808-0.81h-59.94c-0.447 0-0.81 0.363-0.81 0.81v21.376c0 0.448 0.363 0.811 0.81 0.811h59.94c0.445 0 0.808-0.363 0.808-0.811zm-0.808 23.132h-59.94c-0.968 0-1.756-0.787-1.756-1.756v-21.376c0-0.966 0.788-1.755 1.756-1.755h59.94c0.967 0 1.754 0.789 1.754 1.755v21.376c0 0.969-0.787 1.756-1.754 1.756"/></g><g transform="translate(339.22 355.15)"><path d="m0 0 5.498 1.061-1.057-5.502c-0.047-0.242-0.283-0.402-0.525-0.358-0.162 0.032-0.25 0.143-0.34 0.293l-0.674 1.252-10.291-10.291-1.717 1.717 10.291 10.293-1.23 0.664c-0.168 0.094-0.279 0.176-0.313 0.346-0.044 0.242 0.116 0.478 0.358 0.525" fill-rule="evenodd"/></g><g transform="translate(291.33 352.28)"><path d="m0 0c0-0.502-0.178-0.929-0.529-1.283-0.352-0.355-0.781-0.531-1.287-0.531-0.5 0-0.928 0.176-1.283 0.531-0.354 0.354-0.532 0.781-0.532 1.283v4.733h0.908v-4.733c0-0.25 0.086-0.465 0.262-0.642 0.176-0.176 0.391-0.266 0.645-0.266 0.246 0 0.459 0.09 0.638 0.266 0.18 0.177 0.27 0.392 0.27 0.642v4.733h0.908z"/></g><g transform="translate(300 353.19)"><path d="m0 0-0.504 2.108-0.512-2.108zm1.568-2.656h-0.925l-0.422 1.748h-1.457l-0.422-1.748h-0.92l1.568 6.481h1.01z"/></g><g transform="translate(306.11 350.53)"><path d="m0 0h-0.909l-1.814 4.194v-4.194h-0.908v6.481h0.908l1.814-4.186v4.186h0.909z"/></g><g transform="translate(310.25 353.77)"><path d="m0 0c0 1.558-0.367 2.336-1.102 2.336h-0.712v-4.672h0.712c0.735 0 1.102 0.779 1.102 2.336m0.908 3e-3c0-1.296-0.256-2.214-0.765-2.753-0.311-0.331-0.678-0.495-1.102-0.495h-1.764v6.489h1.692c0.424 0 0.787-0.139 1.09-0.414 0.566-0.52 0.849-1.461 0.849-2.827"/></g><g transform="translate(320.95 350.53)"><path d="m0 0h-3.304v6.481h0.906v-5.573h2.398z"/></g><g transform="translate(325.16 350.52)"><path d="m0 0-3.304 8e-3v6.481h3.304v-0.908h-2.396v-1.688h1.426v-0.906h-1.426v-2.071h2.396z"/></g><g transform="translate(329.56 356.1)"><path d="m0 0h-2.397v-1.688h1.426v-0.906h-1.426v-2.979h-0.908v6.481h3.305z"/></g><g transform="translate(333.26 356.1)"><path d="m0 0h-1.197v-5.573h-0.909v5.573h-1.199v0.908h3.305z"/></g><g transform="translate(302.25 346.38)"><path d="m0 0h-1.197v-5.573h-0.908v5.573h-1.2v0.906h3.305z"/></g><g transform="translate(306.79 342.56)"><path d="m0 0c0-0.5-0.176-0.928-0.527-1.284-0.354-0.353-0.781-0.531-1.287-0.531-0.502 0-0.93 0.178-1.283 0.531-0.356 0.356-0.532 0.784-0.532 1.284v4.732h0.907v-4.732c0-0.25 0.087-0.463 0.263-0.641 0.174-0.178 0.389-0.266 0.645-0.266 0.246 0 0.459 0.088 0.638 0.266 0.18 0.178 0.27 0.391 0.27 0.641v4.732h0.906z"/></g><g transform="translate(310.93 345.54)"><path d="m0 0c0 0.535-0.223 0.816-0.666 0.844h-1.149v-1.688h1.149c0.443 0.026 0.666 0.307 0.666 0.844m0.908-4.729h-0.94l-0.855 2.977h-0.928v-2.977h-0.908v6.479h2.01c0.346-0.029 0.541-0.049 0.584-0.057 0.299-0.07 0.531-0.213 0.699-0.427 0.225-0.291 0.338-0.711 0.338-1.264 0-0.801-0.301-1.326-0.902-1.582z"/></g><g transform="translate(316.57 340.81)"><path d="m0 0h-0.908l-1.814 4.192v-4.192h-0.908v6.479h0.908l1.814-4.186v4.186h0.908z"/></g><g transform="translate(321.31 342.58)"><path d="m0 0c0-0.459-0.119-0.853-0.358-1.187-0.306-0.432-0.759-0.649-1.361-0.649-0.674 0-1.178 0.217-1.51 0.649-0.267 0.341-0.402 0.773-0.402 1.293h0.908c0-0.377 0.119-0.657 0.356-0.838 0.177-0.131 0.394-0.196 0.65-0.196 0.52 0 0.779 0.309 0.779 0.928 0 0.484-0.211 0.879-0.629 1.186-0.388 0.242-0.779 0.482-1.173 0.72-0.418 0.325-0.629 0.748-0.629 1.272 0 0.342 0.095 0.654 0.285 0.939 0.295 0.442 0.765 0.662 1.412 0.662 0.682 0 1.166-0.255 1.451-0.765 0.117-0.213 0.19-0.471 0.221-0.774h-0.908c0 0.11-0.037 0.217-0.112 0.326-0.129 0.204-0.347 0.305-0.654 0.305-0.525 0-0.787-0.23-0.787-0.693 0-0.256 0.213-0.51 0.637-0.766 0.63-0.371 1.027-0.635 1.187-0.791 0.424-0.42 0.637-0.959 0.637-1.621"/></g><g transform="translate(251.65 494.38)"><path d="m0 0c-15.088-25.599 60.98-33.929 76.916-23.249" fill="none" stroke="#000" stroke-width=".75"/></g><g transform="translate(251.85 495.72)"><path d="m0 0c-0.684-0.595-1.19-0.944-1.797-1.384l2.241-1.411c0.032 0.274 0.231 1.344 0.472 2.218 0.257 0.936 0.545 1.751 0.777 2.25-0.349-0.426-0.961-1.036-1.693-1.673"/></g><g transform="translate(187.84 434.4)"><path d="m0 0c0-29.497 43.969-63.052 69.566-63.052" fill="none" stroke="#000" stroke-width=".75"/></g><g transform="translate(187.3 435.64)"><path d="m0 0c-0.262-0.868-0.503-1.432-0.783-2.128h2.649c-0.119 0.249-0.521 1.26-0.784 2.128-0.28 0.929-0.472 1.772-0.541 2.318-0.068-0.546-0.26-1.389-0.541-2.318"/></g><g transform="translate(292.23 177.72)"><path d="m0 0c0-1.342-1.088-2.43-2.43-2.43h-59.939c-1.341 0-2.429 1.088-2.429 2.43v34.019c0 1.342 1.088 2.43 2.429 2.43h59.939c1.342 0 2.43-1.088 2.43-2.43z" fill="#fff"/><path d="m0 0c0-1.342-1.088-2.43-2.43-2.43h-59.939c-1.341 0-2.429 1.088-2.429 2.43v34.019c0 1.342 1.088 2.43 2.429 2.43h59.939c1.342 0 2.43-1.088 2.43-2.43z" fill="none" stroke="#000" stroke-width=".25"/></g><g transform="translate(290.61 177.72)"><path d="m0 0c0-0.448-0.363-0.811-0.81-0.811h-59.939c-0.447 0-0.81 0.363-0.81 0.811v34.019c0 0.448 0.363 0.811 0.81 0.811h59.939c0.447 0 0.81-0.363 0.81-0.811zm-0.81 35.775h-59.939c-0.966 0-1.755-0.787-1.755-1.756v-34.019c0-0.967 0.789-1.756 1.755-1.756h59.939c0.969 0 1.756 0.789 1.756 1.756v34.019c0 0.969-0.787 1.756-1.756 1.756"/></g><g transform="translate(238.47 205.39)"><path d="m0 0-0.59 2.459-0.598-2.459zm1.83-3.098h-1.082l-0.492 2.039h-1.701l-0.491-2.039h-1.074l1.83 7.561h1.18z"/></g><g transform="translate(245.21 202.29)"><path d="m0 0h-3.855v7.561h1.056v-6.504h2.799z"/></g><g transform="translate(250.13 202.29)"><path d="m0 0h-3.855v7.561h1.056v-6.504h2.799z"/></g><g transform="translate(261.99 208.79)"><path d="m0 0h-1.394v-6.502h-1.059v6.502h-1.402v1.059h3.855z"/></g><g transform="translate(267.28 204.33)"><path d="m0 0c0-0.584-0.205-1.084-0.615-1.496-0.41-0.414-0.91-0.619-1.5-0.619-0.584 0-1.082 0.205-1.496 0.619-0.412 0.412-0.619 0.912-0.619 1.496v5.52h1.059v-5.52c0-0.293 0.101-0.543 0.304-0.748 0.205-0.207 0.455-0.311 0.752-0.311 0.287 0 0.535 0.104 0.744 0.311 0.209 0.205 0.315 0.455 0.315 0.748v5.52h1.056z"/></g><g transform="translate(272.12 207.81)"><path d="m0 0c0 0.625-0.26 0.953-0.779 0.982h-1.336v-1.965h1.336c0.519 0.031 0.779 0.358 0.779 0.983m1.057-5.52h-1.096l-0.996 3.481h-1.08v-3.481h-1.059v7.561h2.342c0.405-0.036 0.631-0.059 0.68-0.069 0.348-0.082 0.621-0.248 0.816-0.5 0.262-0.338 0.393-0.828 0.393-1.472 0-0.934-0.35-1.549-1.047-1.846z"/></g><g transform="translate(278.7 202.29)"><path d="m0 0h-1.058l-2.113 4.891v-4.891h-1.059v7.561h1.059l2.117-4.885-4e-3 4.885h1.058z"/></g><g transform="translate(284.21 204.35)"><path d="m0 0c0-0.535-0.139-0.996-0.416-1.382-0.357-0.504-0.885-0.756-1.586-0.756-0.785 0-1.371 0.25-1.76 0.754-0.312 0.398-0.468 0.9-0.468 1.506h1.058c0-0.44 0.139-0.766 0.416-0.977 0.205-0.15 0.457-0.227 0.754-0.227 0.606 0 0.906 0.36 0.906 1.081 0 0.564-0.244 1.027-0.732 1.384-0.453 0.282-0.91 0.561-1.369 0.838-0.488 0.379-0.733 0.873-0.733 1.483 0 0.398 0.112 0.763 0.332 1.095 0.344 0.514 0.893 0.772 1.649 0.772 0.795 0 1.359-0.297 1.693-0.893 0.135-0.246 0.221-0.545 0.256-0.898h-1.057c0 0.125-0.043 0.252-0.128 0.379-0.153 0.236-0.407 0.355-0.764 0.355-0.611 0-0.916-0.269-0.916-0.81 0-0.297 0.248-0.594 0.742-0.891 0.734-0.434 1.195-0.742 1.383-0.924 0.494-0.488 0.74-1.117 0.74-1.889"/></g><g transform="translate(247.32 190.95)"><path d="m0 0v7.561h4.688v-1.209h-3.481v-1.815h2.272v-1.207h-2.272v-3.33z"/></g><g transform="translate(256.98 196.41)"><path d="m0 0c0 0.252-0.084 0.465-0.254 0.637-0.17 0.17-0.379 0.256-0.631 0.256h-1.739v-1.815h1.739c0.252 0 0.461 0.09 0.631 0.268 0.17 0.18 0.254 0.398 0.254 0.654m1.308-5.459h-1.279l-1.217 3.33h-1.436v-3.33h-1.207v7.561h2.938c0.578 0 1.072-0.207 1.485-0.617 0.41-0.411 0.615-0.907 0.615-1.485 0-0.847-0.401-1.482-1.199-1.906z"/></g><g transform="translate(263.58 194.73)"><path d="m0 0c0 0.772-0.113 1.389-0.342 1.854-0.255 0.529-0.634 0.795-1.134 0.795-0.506 0-0.885-0.266-1.137-0.795-0.229-0.459-0.342-1.076-0.342-1.854 0-0.771 0.113-1.388 0.342-1.853 0.258-0.529 0.635-0.793 1.137-0.793 0.5 0 0.879 0.264 1.134 0.793 0.229 0.465 0.342 1.082 0.342 1.853m1.207 0c0-1.017-0.181-1.867-0.545-2.546-0.468-0.871-1.181-1.309-2.138-1.309-0.965 0-1.678 0.438-2.141 1.309-0.363 0.675-0.545 1.523-0.545 2.546 0 1.024 0.182 1.874 0.545 2.547 0.463 0.873 1.176 1.309 2.141 1.309 0.957 0 1.67-0.436 2.138-1.309 0.364-0.679 0.545-1.529 0.545-2.547"/></g><g transform="translate(269.4 194.18)"><path d="m0 0 1.738 4.326h1.207v-7.561h-1.207v4.332l-1.74-4.332-1.741 4.332v-4.332h-1.207v7.561h1.209z"/></g><g transform="translate(237.23 185.13)"><path d="m0 0c0 0.625-0.26 0.951-0.778 0.982h-1.338v-1.965h1.338c0.518 0.03 0.778 0.358 0.778 0.983m1.058-5.52h-1.095l-0.998 3.479h-1.081v-3.479h-1.056v7.559h2.342c0.402-0.035 0.629-0.057 0.679-0.066 0.348-0.082 0.619-0.249 0.815-0.5 0.261-0.338 0.394-0.829 0.394-1.475 0-0.932-0.349-1.547-1.049-1.844z"/></g><path d="m240.63 179.61h-1.059v7.559h1.059z"/><g transform="translate(246.38 185.39)"><path d="m0 0h-1.131c-0.176 0.535-0.467 0.801-0.875 0.801-0.457 0-0.783-0.381-0.978-1.141-0.121-0.475-0.182-1.025-0.182-1.656s0.061-1.182 0.182-1.657c0.197-0.759 0.523-1.14 0.982-1.14 0.322 0 0.574 0.183 0.756 0.553 0.125 0.257 0.188 0.507 0.188 0.75v0.21h-0.946v1.059h2.004v-1.377c0-0.353-0.096-0.73-0.287-1.135-0.348-0.746-0.92-1.119-1.715-1.119-0.912 0-1.549 0.518-1.912 1.551-0.211 0.609-0.316 1.377-0.316 2.305 0 2.57 0.742 3.855 2.224 3.855 0.709 0 1.256-0.31 1.643-0.93 0.162-0.257 0.283-0.566 0.363-0.929"/></g><g transform="translate(252.12 179.61)"><path d="m0 0h-1.058v3.479h-2.114v-3.479h-1.058v7.559h1.058v-3.022h2.114v3.022h1.058z"/></g><g transform="translate(257.03 186.11)"><path d="m0 0h-1.394v-6.502h-1.058v6.502h-1.402v1.057h3.854z"/></g><g transform="translate(269.51 179.61)"><path d="m0 0h-3.856v7.559h1.057v-6.502h2.799z"/></g><g transform="translate(272.97 182.71)"><path d="m0 0-0.588 2.459-0.598-2.459zm1.83-3.098h-1.08l-0.492 2.039h-1.701l-0.491-2.039h-1.074l1.83 7.559h1.178z"/></g><g transform="translate(280.09 179.61)"><path d="m0 0h-1.057l-2.115 4.891v-4.891h-1.058v7.559h1.058l2.117-4.883-2e-3 4.883h1.057z"/></g><g transform="translate(285.61 179.6)"><path d="m0 0-3.857 7e-3v7.559h3.857v-1.057h-2.798v-1.965h1.664v-1.058h-1.664v-2.422h2.798z"/></g><g transform="translate(183.05 156.91)"><path d="m0 0v2.869h-2.999v2.035h-7.818v-2.035h-3v-2.869h6.909z"/></g><g transform="translate(176.14 153.35)"><path d="m0 0c0-26.886 35.051 41.069 49.931 41.069" fill="none" stroke="#000" stroke-width=".75"/></g><g transform="translate(175.6 154.59)"><path d="M 0,0 C -0.263,-0.868 -0.504,-1.433 -0.783,-2.129 H 1.865 C 1.747,-1.88 1.344,-0.868 1.082,0 0.801,0.928 0.609,1.771 0.541,2.317 0.472,1.771 0.28,0.928 0,0"/></g><g transform="translate(183.05 88.604)"><path d="m0 0v2.871h-2.999v2.033h-7.818v-2.033h-2.999v-2.871h6.908z"/></g></g><g clip-path="url(#d)"><g transform="translate(176.14 85.046)"><path d="m0 0c0-12.41 45.828 1.167 57.344 7.747" fill="none" stroke="#000" stroke-width=".75"/></g></g><g clip-path="url(#c)"><g transform="translate(175.6 86.286)"><path d="m0 0c-0.262-0.868-0.504-1.432-0.783-2.129h2.648c-0.118 0.249-0.52 1.261-0.783 2.129-0.28 0.929-0.472 1.772-0.541 2.318-0.068-0.546-0.261-1.389-0.541-2.318"/></g><g transform="translate(445.07 126.56)"><path d="m0 0c0-19.198 14.196-16.309 20.813-16.309" fill="none" stroke="#000" stroke-width=".75"/></g><g transform="translate(444.53 127.8)"><path d="M 0,0 C -0.263,-0.868 -0.504,-1.433 -0.783,-2.129 H 1.866 C 1.746,-1.88 1.344,-0.868 1.082,0 0.801,0.928 0.61,1.771 0.541,2.317 0.473,1.771 0.28,0.928 0,0"/></g><g transform="translate(443.59 246.87)"><path d="m0 0c0.72 0.438 5.16 1.987 5.462 2.17 0.079 0.26 1.165 1.839 1.549 3.098-1.032-0.627-6.345-2.532-6.345-2.532s-5.207 6.824-5.715 7.659c-0.034-0.113-0.068-0.226-0.102-0.338v-3.176c1.583-2.174 4.952-6.552 5.151-6.881" fill="#fff"/></g><g transform="translate(441.46 237.56)"><path d="m0 0c0.613 0.421 2.53 1.658 2.774 1.825 0.046 0.146 0.099 0.319 0.099 0.319s0.444 1.458 0.833 2.741c-0.014-9e-3 -3.195-2.117-3.195-2.117s-2.459 3.562-3.369 4.883c-0.048-0.155-0.126-0.189-0.175-0.35l0.116-3.145c1.088-1.57 2.704-3.847 2.917-4.156" fill="#fff"/></g><g transform="translate(439.68 228.53)"><path d="m0 0c0.403 0.314 1.487 1.01 1.652 1.138 0.096 0.312 0.89 2.892 1.018 3.309-0.57-0.441-2.319-1.653-2.319-1.653l-0.878 1.134s-0.27 0.319-0.577 0.689v-3.269c0.38-0.459 0.916-1.107 1.104-1.348" fill="#fff"/></g><g transform="translate(445.71 255.73)"><path d="m0 0c0.719 0.438 7.363 1.296 7.664 1.479 0.078 0.26 1.799 1.768 2.183 3.027-1.032-0.626-9.181-1.769-9.181-1.769s-6.274 6.843-7.772 8.702v-3.471c2.276-2.625 6.911-7.648 7.106-7.968" fill="#fff"/></g><g transform="translate(438.77 199.92)"><path d="m0 0c0.149 10.614 0.436 20.71 2.324 28.721 3.372 14.325 10.257 26.587 17.567 36.011l6.501 7.994m-26.43-85.895v95.275" fill="none" stroke="#fff" stroke-width="2"/></g></g><g clip-path="url(#b)"><g transform="translate(419.79 390.85)"><path d="m0 0v-31.453c-3e-3 -1.236-1.006-2.237-2.242-2.237-1.238 0-2.243 1.004-2.243 2.242v31.448m-18.948 0v-294.81m18.948 0v239.67c0 1.239 1.005 2.242 2.243 2.242 1.236 0 2.239-1.001 2.242-2.237v-239.67m18.948 0v40.653c0 5.071 10.909 28.969 10.909 35.513v26.285c0 9.121 2.238 23.731 6.597 31.741 9.957 18.297 17.729 24.002 25.308 31.257l4.01 3.889c7.78 7.782 23.971 23.973 23.971 46.453 0 12.853-4.027 23.265-11.969 30.946-10.616 10.267-20.733 13.923-49.129 13.923-5.939 0-9.697 3.753-9.697 9.727v24.425m33.496-112.08s-8.433-8.551-11.157-11.088c-3.385-3.154-12.116-9.128-14.438-8.547-2.323 0.581-7.901 18.969-7.901 27.443v51.436c32.404 0 40.085-1.648 45.477-9.036 3.376-4.627 6.117-9.59 6.117-17.146 0-12.767-8.568-23.532-18.098-33.062zm-239.42 176.5s-16.938-17.176-22.409-22.27c-6.799-6.333-24.333-18.334-29-17.167-4.666 1.167-15.868 38.099-15.868 55.119v84.576c0 11.998 1e-3 18.732 1e-3 18.732 65.082 0 80.511-3.308 91.34-18.149 6.781-9.292 12.287-19.26 12.287-34.436 0-25.644-17.211-47.265-36.351-66.405zm-105.33 225.12v-63.173c-5e-3 -2.482-2.019-4.493-4.503-4.493-2.487 0-4.504 2.017-4.504 4.503v63.163m-38.058 0v-49.006h0.033c0-11.998-6.882-18.672-19.23-18.672l-29.794 7e-3m0-38.581 29.794 0.012c12.348 0 19.23-6.674 19.23-18.672h-0.033v-467.22m38.058 0v481.37c0 2.487 2.017 4.503 4.504 4.503 2.484 0 4.498-2.01 4.503-4.493v-481.38m38.057 0v81.495c0 0.054 1e-3 0.103 1e-3 0.157 0 10.183 21.91 58.183 21.91 71.325v52.796c0 18.318 4.494 47.662 13.25 63.75 20 36.75 35.608 48.209 50.83 62.781l8.055 7.811c15.627 15.629 48.147 48.148 48.147 93.3 0 25.815-8.088 46.728-24.041 62.157-21.321 20.62-41.64 27.962-98.676 27.962-11.928 0-19.475 7.539-19.475 19.537v49.057" fill="none" stroke="#000"/></g></g><g clip-path="url(#a)"><g transform="translate(192.24 109.6)"><path d="m0 0-42.562 7.763-28.122-10.676-65.363 12.616v8.248l65.363-12.616 28.122 10.676 42.562-7.763z" fill="#fff"/><path d="m0 0-42.562 7.763-28.122-10.676-65.363 12.616v8.248l65.363-12.616 28.122 10.676 42.562-7.763z" fill="none" stroke="#000" stroke-width="1.252"/></g><path d="m57.863 113.18h-10.103v19.049h10.103z" fill="#fff"/><path d="m200.48 104.63h-10.104v19.047h10.104z" fill="#fff"/><g transform="translate(449.58 266.41)"><path d="m0 0c0-16.353 29.322-14.793 29.322-29.144" fill="none" stroke="#000" stroke-width=".75"/></g><g transform="translate(449.05 267.66)"><path d="m0 0c-0.262-0.868-0.504-1.432-0.783-2.129h2.648c-0.117 0.249-0.521 1.261-0.783 2.129-0.279 0.929-0.473 1.772-0.541 2.318-0.068-0.546-0.26-1.389-0.541-2.318"/></g><g transform="translate(230.59 95.793)"><path d="m0 0c-1.81 0-3.282 1.472-3.282 3.281v56.807c0 1.809 1.472 3.281 3.282 3.281h82.053c1.809 0 3.281-1.472 3.281-3.281v-56.807c0-1.809-1.472-3.281-3.281-3.281z" fill="#fff"/></g><g transform="translate(312.64 159.29)"><path d="m0 0h-82.053c-1.879 0-3.407-1.528-3.407-3.406v-56.807c0-1.878 1.528-3.406 3.407-3.406h82.053c1.878 0 3.406 1.528 3.406 3.406v56.807c0 1.878-1.528 3.406-3.406 3.406m0-0.25c1.736 0 3.156-1.42 3.156-3.156v-56.807c0-1.736-1.42-3.156-3.156-3.156h-82.053c-1.737 0-3.157 1.42-3.157 3.156v56.807c0 1.736 1.42 3.156 3.157 3.156h82.053"/></g><g transform="translate(230.59 97.232)"><path d="m0 0c-0.489 0-0.951 0.194-1.3 0.543-0.349 0.35-0.542 0.811-0.542 1.299v56.807c0 0.488 0.193 0.949 0.542 1.299 0.349 0.349 0.811 0.543 1.3 0.543h82.053c0.488 0 0.949-0.194 1.299-0.543 0.349-0.35 0.543-0.811 0.543-1.299v-56.807c0-0.488-0.194-0.949-0.543-1.299-0.35-0.349-0.811-0.543-1.299-0.543z" fill="#006f51"/></g><g transform="translate(251.03 102.23)"><path d="m0 0-2.414 4.274v-4.274h-0.997v6.313h0.997l2.303-4.031v4.031h0.997v-6.313z" fill="#fff"/></g><path d="m278.37 108.54h1.009v-6.313h-1.009z" fill="#fff"/><g transform="translate(265.22 107.66)"><path d="m0 0v-5.426h-1.001v5.426h-1.446v0.887h3.915v-0.887z" fill="#fff"/></g><g transform="translate(294.15 107.66)"><path d="m0 0v-5.426h-1v5.426h-1.446v0.887h3.914v-0.887z" fill="#fff"/></g><g transform="translate(275.77 107.44)"><path d="m0 0c-0.154 0.087-0.243 0.109-0.575 0.109h-1.196v-1.549h1.196c0.31 0 0.421 0.022 0.575 0.109 0.244 0.133 0.4 0.399 0.4 0.665 0 0.265-0.156 0.533-0.4 0.666m0.444-5.206-1.019 2.747h-1.196v-2.747h-0.996v6.313h2.081c0.487 0 0.819-0.045 1.13-0.201 0.553-0.266 0.952-0.93 0.952-1.572 0-0.665-0.399-1.329-0.975-1.594l1.108-2.946z" fill="#fff"/></g><g transform="translate(261.14 102.23)"><path d="m0 0-1.019 2.104-1.019-2.104h-1.13l1.573 3.256-1.461 3.057h1.129l0.908-1.883 0.908 1.883h1.13l-1.485-3.057 1.595-3.256z" fill="#fff"/></g><g transform="translate(289.76 102.23)"><path d="m0 0v2.747h-2.303v-2.747h-0.996v6.313h0.996v-2.547h2.303v2.547h0.998v-6.313z" fill="#fff"/></g><g transform="translate(253.43 102.23)"><path d="m0 0v6.313h3.716v-0.998h-2.721v-1.549h1.836v-1.019h-1.836v-1.729h2.92v-1.018z" fill="#fff"/></g><g transform="translate(283.08 102.12)"><path d="m0 0c-0.952 0-1.506 0.356-1.883 1.152-0.266 0.553-0.421 1.329-0.421 2.104 0 1.02 0.288 2.016 0.709 2.568 0.377 0.467 0.908 0.709 1.617 0.709 0.975 0 1.55-0.398 1.972-1.394l-0.953-0.377c-0.266 0.555-0.532 0.754-1.019 0.754-0.509 0-0.841-0.223-1.063-0.776-0.155-0.377-0.243-0.953-0.243-1.484 0-0.664 0.11-1.328 0.309-1.727 0.199-0.355 0.488-0.509 0.865-0.509 0.641 0 1.107 0.398 1.107 0.974v0.266h-1.152v0.996h2.149v-1.262c0-1.152-0.843-1.994-1.994-1.994" fill="#fff"/></g><g transform="translate(282.02 134.64)"><path d="m0 0c-0.382 0-0.705-0.061-1.027-0.444v-3.105c0.322-0.324 0.645-0.443 1.115-0.412 0.911 0.029 1.175 1.152 1.205 2.01 0.029 0.886-0.264 1.919-1.293 1.951m0.117-5.203c-0.469 0-0.763 0.087-1.173 0.324v-0.176h-1.352v7.922l1.352 0.648v-2.629c0.146 0.147 0.704 0.325 1.115 0.354 1.998 0.178 2.555-1.566 2.585-3.191 0-1.745-0.676-3.252-2.527-3.252" fill="#fff"/></g><g transform="translate(274.6 130.68)"><path d="m0 0c0.471-0.031 0.794 0.088 1.118 0.412v3.105c-0.353 0.354-0.647 0.444-1.03 0.444-1.029-0.032-1.324-1.065-1.295-1.951 0.031-0.858 0.295-1.981 1.207-2.01m-2.559 2.01c0.029 1.625 0.558 3.369 2.559 3.191 0.411-0.029 1-0.207 1.147-0.354v0.207h1.324v-5.351c0-0.797 0.441-3.547-2.795-3.871l-0.646 1.004c0.764 0.177 2.117 0.472 2.117 1.508v0.738c-0.382-0.237-0.705-0.324-1.176-0.324-1.853 0-2.56 1.507-2.53 3.252" fill="#fff"/></g><path d="m261.3 135.73h1.347v-6.148h-1.347zm0.674 1.034c-0.385 0-0.71 0.297-0.71 0.679 0 0.385 0.325 0.709 0.71 0.709 0.384 0 0.709-0.324 0.709-0.709 0-0.382-0.325-0.679-0.709-0.679" fill="#fff"/><path d="m249.69 135.73h1.346v-6.148h-1.346zm0.673 1.034c-0.384 0-0.709 0.297-0.709 0.679 0 0.385 0.325 0.709 0.709 0.709s0.709-0.324 0.709-0.709c0-0.382-0.325-0.679-0.709-0.679" fill="#fff"/><g transform="translate(253.56 129.58)"><path d="m0 0v7.922l1.347 0.648v-8.57z" fill="#fff"/></g><g transform="translate(257.43 129.58)"><path d="m0 0v7.922l1.347 0.648v-8.57z" fill="#fff"/></g><g transform="translate(268.81 129.58)"><path d="m0 0v4.078c0 0.799-0.531 0.977-1.241 0.977-0.532-0.032-1.035-0.326-1.035-1.035v-4.02h-1.361v6.148h1.332v-0.207c1.389 0.887 3.636 0.176 3.636-1.714v-4.227z" fill="#fff"/></g><g transform="translate(288.76 134.64)"><path d="m0 0c-1.039 0-1.217-1.362-1.217-1.981 0-0.621 0.178-1.98 1.217-1.98s1.187 1.388 1.187 2.01c0 0.589-0.177 1.951-1.187 1.951m0-5.174c-2.137 0-2.582 1.625-2.582 3.223 0 1.359 0.445 3.191 2.582 3.191 2.107 0 2.553-1.715 2.553-3.191 0-1.479-0.446-3.223-2.553-3.223" fill="#fff"/></g><g transform="translate(300.13 134.64)"><path d="m0 0c-1.039 0-1.217-1.362-1.217-1.981 0-0.621 0.178-1.98 1.217-1.98s1.188 1.388 1.188 2.01c0 0.589-0.178 1.951-1.188 1.951m0-5.174c-2.137 0-2.582 1.625-2.582 3.223 0 1.359 0.445 3.191 2.582 3.191 2.108 0 2.553-1.715 2.553-3.191 0-1.479-0.445-3.223-2.553-3.223" fill="#fff"/></g><g transform="translate(296.36 134.28)"><path d="m0 0c-0.268 0.207-0.475 0.356-0.801 0.356-0.77 0-0.86-0.444-0.86-1.213v-3.842h-1.363v6.148h1.363v-0.296c0.327 0.296 0.475 0.443 0.95 0.443 0.472 0 0.681-0.178 0.888-0.414z" fill="#fff"/></g><g transform="translate(246.8 129.58)"><path d="m0 0h-1.184l-1.333 5.402-1.304-5.402h-1.184l-1.245 8.416h1.363l0.652-4.43 1.066 4.43h1.303l1.096-4.43 0.652 4.43h1.363z" fill="#fff"/></g><g transform="translate(246.84 149.36)"><path d="m0 0c-1.028 0-1.175-0.679-1.175-1.301h2.291c0 0.592-0.117 1.301-1.116 1.301m-1.146-2.541c0.06-0.679 0.323-1.39 1.146-1.39 0.558 0 0.999 0.326 1.145 0.857l1.087-0.68c-0.353-0.798-0.999-1.418-2.232-1.418-2.115 0-2.526 1.625-2.526 3.221 0 1.359 0.411 3.193 2.526 3.193 2.408 0 2.467-2.277 2.437-3.783z" fill="#fff"/></g><path d="m257.53 150.46h1.347v-6.148h-1.347zm0.674 1.035c-0.385 0-0.709 0.295-0.709 0.68s0.324 0.709 0.709 0.709c0.383 0 0.709-0.324 0.709-0.709s-0.326-0.68-0.709-0.68" fill="#fff"/><g transform="translate(286.91 144.31)"><path d="m0 0-1.756 3.459-0.762-0.799v-2.66h-1.346v7.921l1.346 0.651v-4.197l1.671 1.773h1.697l-1.609-1.686 2.283-4.462z" fill="#fff"/></g><g transform="translate(263.46 144.46)"><path d="m0 0c-0.447-0.207-0.686-0.266-1.013-0.266-0.984-0.06-1.282 0.709-1.282 1.596v3.428h-0.895v1.242h0.895v1.773l1.311 0.651v-2.424h1.074v-1.211h-1.074v-3.252c0-0.414 0.06-0.592 0.448-0.592 0.297 0 0.447 0.09 0.714 0.297z" fill="#fff"/></g><g transform="translate(267.08 144.46)"><path d="m0 0c-0.448-0.207-0.686-0.266-1.014-0.266-0.983-0.06-1.281 0.709-1.281 1.596v3.428h-0.895v1.242h0.895v1.773l1.311 0.651v-2.424h1.074v-1.211h-1.074v-3.252c0-0.414 0.06-0.592 0.448-0.592 0.297 0 0.447 0.09 0.714 0.297z" fill="#fff"/></g><g transform="translate(296.76 144.31)"><path d="m0 0h-1.512l-1.572 4.226-1.541-4.226h-1.483l-1.718 6.148h1.422l1.097-4.109 1.483 4.109h1.541l1.392-4.139 1.156 4.139h1.424z" fill="#fff"/></g><g transform="translate(301.91 141.94)"><path d="m0 0h-1.488l0.924 2.366-2.385 6.148h1.461l1.697-4.314 1.639 4.314h1.52z" fill="#fff"/></g><g transform="translate(253.61 144.31)"><path d="m0 0h-1.19l-2.38 6.148h1.428l1.547-4.139 1.488 4.139h1.516z" fill="#fff"/></g><g transform="translate(279.54 151.25)"><path d="m0 0c-0.237 0.119-0.385 0.148-0.798 0.148h-1.742v-2.068h1.742c0.413 0 0.561 0.031 0.798 0.149 0.295 0.148 0.502 0.531 0.502 0.886 0 0.354-0.207 0.707-0.502 0.885m0.56-2.982c-0.384-0.178-0.886-0.295-1.535-0.295h-1.565v-3.662h-1.33v8.416h2.895c0.679 0 1.121-0.059 1.535-0.266 0.738-0.354 1.299-1.24 1.299-2.096 0-0.886-0.561-1.773-1.299-2.097" fill="#fff"/></g><g transform="translate(237.96 144.31)"><path d="m0 0v8.416h1.327v-7.176h3.893v-1.24z" fill="#fff"/></g><g transform="translate(256.96 117.63)"><path d="m0 0c-0.56 0.265-2.121 0.621-2.121-0.621 0-1.508 1.621-1.065 2.121-0.799zm0.058-2.779v0.177c-0.205-0.177-0.735-0.265-1.207-0.265-1.236 0-2.296 0.796-2.296 2.275 0 1.744 2.061 2.365 3.415 1.803 0 0 0.03 0.976-0.913 1.064-0.853 0.119-1.531-0.502-1.707-0.767l-0.383 1.298c1.531 1.243 4.387 0.918 4.387-1.476v-4.109z" fill="#fff"/></g><g transform="translate(289.75 117.63)"><path d="m0 0c-0.558 0.265-2.119 0.621-2.119-0.621 0-1.508 1.619-1.065 2.119-0.799zm0.059-2.779v0.177c-0.205-0.177-0.735-0.265-1.207-0.265-1.237 0-2.295 0.796-2.295 2.275 0 1.744 2.06 2.365 3.414 1.803 0 0 0.029 0.976-0.912 1.064-0.854 0.119-1.532-0.502-1.707-0.767l-0.383 1.298c1.531 1.243 4.387 0.918 4.387-1.476v-4.109z" fill="#fff"/></g><g transform="translate(270.13 114.74)"><path d="m0 0c-2.116 0-2.556 1.625-2.556 3.221 0 1.359 0.44 3.193 2.556 3.193 1.324 0 2.029-0.65 2.323-1.537l-1.353-0.472c-0.146 0.502-0.44 0.767-0.97 0.767-1.028 0-1.205-1.33-1.205-1.951s0.177-1.98 1.205-1.98c0.677 0 0.97 0.533 1.059 1.152l1.352-0.354c-0.236-1.093-0.882-2.039-2.411-2.039" fill="#fff"/></g><g transform="translate(282.89 114.74)"><path d="m0 0c-2.117 0-2.557 1.625-2.557 3.221 0 1.359 0.44 3.193 2.557 3.193 1.323 0 2.028-0.65 2.321-1.537l-1.351-0.472c-0.147 0.502-0.441 0.767-0.97 0.767-1.029 0-1.205-1.33-1.205-1.951s0.176-1.98 1.205-1.98c0.676 0 0.97 0.533 1.058 1.152l1.353-0.354c-0.236-1.093-0.883-2.039-2.411-2.039" fill="#fff"/></g><g transform="translate(264.35 114.85)"><path d="m0 0v4.08c0 0.796-0.532 0.974-1.241 0.974-0.533-0.029-1.035-0.324-1.035-1.035v-4.019h-1.361v6.148h1.332v-0.207c1.388 0.887 3.636 0.178 3.636-1.715v-4.226z" fill="#fff"/></g><g transform="translate(276.26 119.91)"><path d="m0 0c-1.038 0-1.216-1.359-1.216-1.98s0.178-1.981 1.216-1.981c1.039 0 1.188 1.389 1.188 2.01 0 0.592-0.178 1.951-1.188 1.951m0-5.172c-2.137 0-2.582 1.625-2.582 3.221 0 1.359 0.445 3.193 2.582 3.193 2.109 0 2.554-1.714 2.554-3.193 0-1.477-0.445-3.221-2.554-3.221" fill="#fff"/></g><g transform="translate(250.22 121.79)"><path d="m0 0c-0.207 0.119-0.325 0.148-0.768 0.148h-1.595v-2.068h1.595c0.413 0 0.561 0.029 0.768 0.148 0.325 0.178 0.532 0.532 0.532 0.887 0 0.354-0.207 0.707-0.532 0.885m0.59-6.939-1.358 3.662h-1.595v-3.662h-1.328v8.416h2.775c0.65 0 1.093-0.059 1.506-0.266 0.739-0.354 1.27-1.24 1.27-2.096 0-0.887-0.531-1.773-1.299-2.127l1.477-3.927z" fill="#fff"/></g><g transform="translate(294.57 114.74)"><path d="m0 0c-0.893 0-1.43 0.383-1.817 0.973l0.949 0.801c0.299-0.385 0.686-0.651 1.073-0.532 0.564 0.149 0.623 0.682 0.175 1.155-0.804 0.914-2.084 1.295-2.173 2.242-0.063 0.826 0.382 1.508 1.273 1.717 0.715 0.177 1.607 2e-3 2.322-0.854l-0.951-0.769s-0.654 0.765-1.099 0.322c-0.743-0.711 2.529-1.502 2.384-3.336-0.058-0.916-0.799-1.715-2.136-1.719" fill="#fff"/></g><g transform="translate(262.56 364.07)"><path d="m0 0c-1.809 0-3.282 1.472-3.282 3.282v44.18c0 1.809 1.473 3.281 3.282 3.281h107.3c1.809 0 3.281-1.472 3.281-3.281v-44.18c0-1.81-1.472-3.282-3.281-3.282z" fill="#fff"/></g><g transform="translate(369.86 414.94)"><path d="m0 0h-107.3c-1.879 0-3.407-1.528-3.407-3.406v-44.18c0-1.878 1.528-3.407 3.407-3.407h107.3c1.877 0 3.406 1.529 3.406 3.407v44.18c0 1.878-1.529 3.406-3.406 3.406m0-0.25c1.735 0 3.156-1.421 3.156-3.156v-44.18c0-1.737-1.421-3.157-3.156-3.157h-107.3c-1.737 0-3.157 1.42-3.157 3.157v44.18c0 1.735 1.42 3.156 3.157 3.156h107.3"/></g><g transform="translate(262.56 365.51)"><path d="m0 0c-0.489 0-0.951 0.193-1.299 0.541-0.35 0.349-0.543 0.812-0.543 1.301v44.18c0 0.488 0.193 0.95 0.543 1.299 0.348 0.349 0.81 0.542 1.299 0.542h107.3c0.488 0 0.949-0.193 1.298-0.542 0.35-0.349 0.542-0.811 0.542-1.299v-44.18c0-0.489-0.192-0.952-0.542-1.301-0.349-0.348-0.81-0.541-1.298-0.541z" fill="#006f51"/></g><g transform="translate(361.74 389.2)"><path d="m0 0 0.019 0.084 1.773 9.424 4e-3 0.051c0.012 0.161-0.047 0.319-0.154 0.425-0.113 0.111-0.255 0.169-0.395 0.163l-0.083-0.016-9.488-1.896c-0.115-0.016-0.206-0.075-0.287-0.157-0.205-0.207-0.212-0.545 4e-3 -0.758 0.024-0.024 0.066-0.049 0.1-0.065l3.393-2.064-12.865-11.929 3.119-3.086 11.789 12.994 2.093-3.363s0.05-0.084 0.074-0.108c0.207-0.205 0.553-0.203 0.758 4e-3 0.081 0.084 0.13 0.182 0.146 0.297" fill="#fff"/></g><g transform="translate(313.64 390.29)"><path d="m0 0c-0.381 0-0.704-0.058-1.028-0.443v-3.104c0.324-0.324 0.647-0.443 1.117-0.414 0.91 0.031 1.174 1.154 1.204 2.012 0.029 0.887-0.265 1.92-1.293 1.949m0.118-5.201c-0.47 0-0.764 0.088-1.175 0.324v-0.176h-1.351v7.92l1.351 0.651v-2.631c0.147 0.148 0.705 0.326 1.115 0.355 1.998 0.178 2.556-1.566 2.585-3.191 0-1.744-0.675-3.252-2.525-3.252" fill="#fff"/></g><g transform="translate(306.22 386.33)"><path d="m0 0c0.471-0.029 0.795 0.09 1.118 0.414v3.104c-0.353 0.355-0.647 0.443-1.03 0.443-1.029-0.029-1.323-1.062-1.294-1.949 0.029-0.858 0.294-1.981 1.206-2.012m-2.559 2.012c0.03 1.625 0.559 3.369 2.559 3.191 0.412-0.029 1-0.207 1.147-0.355v0.207h1.324v-5.35c0-0.797 0.441-3.547-2.794-3.871l-0.648 1.004c0.765 0.178 2.118 0.473 2.118 1.508v0.738c-0.382-0.236-0.706-0.324-1.176-0.324-1.854 0-2.56 1.508-2.53 3.252" fill="#fff"/></g><path d="m292.93 391.38h1.347v-6.147h-1.347zm0.673 1.035c-0.384 0-0.709 0.295-0.709 0.68 0 0.384 0.325 0.709 0.709 0.709 0.385 0 0.71-0.325 0.71-0.709 0-0.385-0.325-0.68-0.71-0.68" fill="#fff"/><path d="m281.31 391.38h1.346v-6.147h-1.346zm0.673 1.035c-0.384 0-0.709 0.295-0.709 0.68 0 0.384 0.325 0.709 0.709 0.709s0.709-0.325 0.709-0.709c0-0.385-0.325-0.68-0.709-0.68" fill="#fff"/><g transform="translate(285.18 385.23)"><path d="m0 0v7.92l1.346 0.651v-8.571z" fill="#fff"/></g><g transform="translate(289.06 385.23)"><path d="m0 0v7.92l1.347 0.651v-8.571z" fill="#fff"/></g><g transform="translate(300.43 385.23)"><path d="m0 0v4.078c0 0.799-0.532 0.975-1.241 0.975-0.534-0.029-1.036-0.324-1.036-1.033v-4.02h-1.36v6.147h1.331v-0.207c1.389 0.887 3.637 0.178 3.637-1.713v-4.227z" fill="#fff"/></g><g transform="translate(320.38 390.29)"><path d="m0 0c-1.039 0-1.218-1.359-1.218-1.98 0-0.62 0.179-1.981 1.218-1.981s1.186 1.391 1.186 2.012c0 0.59-0.177 1.949-1.186 1.949m0-5.172c-2.138 0-2.583 1.625-2.583 3.223 0 1.359 0.445 3.191 2.583 3.191 2.107 0 2.553-1.715 2.553-3.191 0-1.479-0.446-3.223-2.553-3.223" fill="#fff"/></g><g transform="translate(331.75 390.29)"><path d="m0 0c-1.039 0-1.217-1.359-1.217-1.98 0-0.62 0.178-1.981 1.217-1.981s1.188 1.391 1.188 2.012c0 0.59-0.178 1.949-1.188 1.949m0-5.172c-2.136 0-2.582 1.625-2.582 3.223 0 1.359 0.446 3.191 2.582 3.191 2.109 0 2.554-1.715 2.554-3.191 0-1.479-0.445-3.223-2.554-3.223" fill="#fff"/></g><g transform="translate(327.98 389.93)"><path d="m0 0c-0.267 0.207-0.475 0.353-0.801 0.353-0.77 0-0.858-0.443-0.858-1.211v-3.842h-1.364v6.147h1.364v-0.295c0.325 0.295 0.473 0.443 0.948 0.443 0.473 0 0.681-0.177 0.888-0.414z" fill="#fff"/></g><g transform="translate(278.43 385.23)"><path d="m0 0h-1.185l-1.333 5.403-1.303-5.403h-1.185l-1.244 8.414h1.362l0.653-4.427 1.065 4.427h1.304l1.095-4.427 0.653 4.427h1.362z" fill="#fff"/></g><g transform="translate(278.46 405.02)"><path d="m0 0c-1.027 0-1.175-0.68-1.175-1.301h2.291c0 0.591-0.118 1.301-1.116 1.301m-1.145-2.542c0.058-0.68 0.323-1.39 1.145-1.39 0.558 0 0.998 0.326 1.146 0.858l1.086-0.68c-0.353-0.798-0.999-1.419-2.232-1.419-2.114 0-2.525 1.626-2.525 3.222 0 1.359 0.411 3.192 2.525 3.192 2.408 0 2.467-2.276 2.438-3.783z" fill="#fff"/></g><path d="m289.16 406.11h1.346v-6.149h-1.346zm0.673 1.034c-0.384 0-0.71 0.296-0.71 0.68s0.326 0.709 0.71 0.709 0.71-0.325 0.71-0.709-0.326-0.68-0.71-0.68" fill="#fff"/><g transform="translate(318.53 399.96)"><path d="m0 0-1.756 3.458-0.762-0.797v-2.661h-1.347v7.922l1.347 0.65v-4.197l1.67 1.774h1.698l-1.61-1.686 2.283-4.463z" fill="#fff"/></g><g transform="translate(295.08 400.11)"><path d="m0 0c-0.447-0.206-0.685-0.266-1.013-0.266-0.984-0.059-1.282 0.71-1.282 1.597v3.428h-0.894v1.242h0.894v1.773l1.312 0.651v-2.424h1.073v-1.212h-1.073v-3.252c0-0.413 0.059-0.591 0.447-0.591 0.298 0 0.447 0.089 0.716 0.296z" fill="#fff"/></g><g transform="translate(298.7 400.11)"><path d="m0 0c-0.447-0.206-0.685-0.266-1.013-0.266-0.984-0.059-1.282 0.71-1.282 1.597v3.428h-0.894v1.242h0.894v1.773l1.312 0.651v-2.424h1.073v-1.212h-1.073v-3.252c0-0.413 0.059-0.591 0.446-0.591 0.299 0 0.447 0.089 0.716 0.296z" fill="#fff"/></g><g transform="translate(328.39 399.96)"><path d="m0 0h-1.513l-1.571 4.227-1.541-4.227h-1.483l-1.718 6.149h1.422l1.097-4.109 1.483 4.109h1.541l1.393-4.139 1.156 4.139h1.423z" fill="#fff"/></g><g transform="translate(333.53 397.6)"><path d="m0 0h-1.489l0.923 2.364-2.383 6.149h1.46l1.697-4.316 1.639 4.316h1.52z" fill="#fff"/></g><g transform="translate(285.23 399.96)"><path d="m0 0h-1.191l-2.379 6.149h1.428l1.547-4.139 1.487 4.139h1.517z" fill="#fff"/></g><g transform="translate(311.17 406.9)"><path d="m0 0c-0.236 0.118-0.384 0.147-0.798 0.147h-1.742v-2.067h1.742c0.414 0 0.562 0.03 0.798 0.148 0.295 0.148 0.502 0.532 0.502 0.886 0 0.355-0.207 0.708-0.502 0.886m0.561-2.983c-0.384-0.177-0.886-0.294-1.535-0.294h-1.566v-3.663h-1.329v8.416h2.895c0.679 0 1.122-0.059 1.535-0.265 0.738-0.355 1.3-1.24 1.3-2.097 0-0.886-0.562-1.772-1.3-2.097" fill="#fff"/></g><g transform="translate(269.58 399.96)"><path d="m0 0v8.416h1.326v-7.175h3.893v-1.241z" fill="#fff"/></g><g transform="translate(288.59 373.28)"><path d="m0 0c-0.559 0.266-2.119 0.621-2.119-0.621 0-1.508 1.619-1.064 2.119-0.799zm0.06-2.779v0.178c-0.207-0.178-0.737-0.266-1.207-0.266-1.238 0-2.297 0.797-2.297 2.275 0 1.744 2.06 2.366 3.415 1.803 0 0 0.029 0.977-0.913 1.065-0.854 0.119-1.531-0.502-1.707-0.768l-0.383 1.299c1.531 1.242 4.387 0.918 4.387-1.477v-4.109z" fill="#fff"/></g><g transform="translate(321.38 373.28)"><path d="m0 0c-0.559 0.266-2.12 0.621-2.12-0.621 0-1.508 1.619-1.064 2.12-0.799zm0.059-2.779v0.178c-0.206-0.178-0.736-0.266-1.207-0.266-1.237 0-2.296 0.797-2.296 2.275 0 1.744 2.06 2.366 3.415 1.803 0 0 0.029 0.977-0.913 1.065-0.854 0.119-1.531-0.502-1.707-0.768l-0.383 1.299c1.531 1.242 4.387 0.918 4.387-1.477v-4.109z" fill="#fff"/></g><g transform="translate(301.76 370.39)"><path d="m0 0c-2.116 0-2.557 1.625-2.557 3.22 0 1.36 0.441 3.194 2.557 3.194 1.322 0 2.027-0.651 2.322-1.537l-1.352-0.473c-0.147 0.502-0.441 0.768-0.97 0.768-1.029 0-1.205-1.331-1.205-1.952s0.176-1.98 1.205-1.98c0.676 0 0.97 0.533 1.058 1.154l1.352-0.355c-0.235-1.094-0.882-2.039-2.41-2.039" fill="#fff"/></g><g transform="translate(314.51 370.39)"><path d="m0 0c-2.116 0-2.558 1.625-2.558 3.22 0 1.36 0.442 3.194 2.558 3.194 1.322 0 2.027-0.651 2.321-1.537l-1.351-0.473c-0.148 0.502-0.441 0.768-0.97 0.768-1.029 0-1.205-1.331-1.205-1.952s0.176-1.98 1.205-1.98c0.676 0 0.97 0.533 1.058 1.154l1.352-0.355c-0.235-1.094-0.882-2.039-2.41-2.039" fill="#fff"/></g><g transform="translate(295.98 370.51)"><path d="m0 0v4.08c0 0.797-0.532 0.975-1.242 0.975-0.532-0.03-1.035-0.325-1.035-1.036v-4.019h-1.36v6.148h1.33v-0.207c1.391 0.887 3.637 0.178 3.637-1.715v-4.226z" fill="#fff"/></g><g transform="translate(307.89 375.56)"><path d="m0 0c-1.039 0-1.217-1.36-1.217-1.981s0.178-1.98 1.217-1.98 1.187 1.388 1.187 2.009c0 0.592-0.178 1.952-1.187 1.952m0-5.172c-2.138 0-2.583 1.625-2.583 3.22 0 1.36 0.445 3.194 2.583 3.194 2.107 0 2.553-1.715 2.553-3.194 0-1.476-0.446-3.22-2.553-3.22" fill="#fff"/></g><g transform="translate(281.84 377.44)"><path d="m0 0c-0.207 0.119-0.325 0.149-0.768 0.149h-1.594v-2.069h1.594c0.413 0 0.561 0.032 0.768 0.149 0.325 0.178 0.531 0.531 0.531 0.887 0 0.353-0.206 0.707-0.531 0.884m0.591-6.939-1.359 3.662h-1.594v-3.662h-1.329v8.416h2.776c0.649 0 1.092-0.059 1.506-0.266 0.738-0.353 1.269-1.24 1.269-2.095 0-0.887-0.531-1.774-1.299-2.127l1.477-3.928z" fill="#fff"/></g><g transform="translate(326.19 370.39)"><path d="m0 0c-0.892-2e-3 -1.428 0.38-1.816 0.97l0.95 0.801c0.298-0.385 0.685-0.65 1.072-0.531 0.564 0.15 0.623 0.681 0.176 1.154-0.805 0.914-2.084 1.297-2.174 2.242-0.062 0.826 0.383 1.508 1.274 1.717 0.714 0.178 1.606 2e-3 2.321-0.853l-0.95-0.77s-0.655 0.768-1.1 0.322c-0.743-0.711 2.529-1.502 2.384-3.336-0.057-0.916-0.799-1.714-2.137-1.716" fill="#fff"/></g><g transform="translate(333.19 665.56)"><path d="m0 0c1.288-0.188 2.188-1.396 2.001-2.686l-10.266-70.277c-0.187-1.288-1.396-2.189-2.685-2l-32.795 4.79c-1.289 0.188-2.189 1.396-2.001 2.684l10.265 70.278c0.188 1.289 1.397 2.19 2.685 2.001z" fill="#fff"/><path d="m0 0c1.288-0.188 2.188-1.396 2.001-2.686l-10.266-70.277c-0.187-1.288-1.396-2.189-2.685-2l-32.795 4.79c-1.289 0.188-2.189 1.396-2.001 2.684l10.265 70.278c0.188 1.289 1.397 2.19 2.685 2.001z" fill="none" stroke="#000" stroke-width=".25"/></g><g transform="translate(323.88 592.74)"><path d="m0 0c-0.05-0.345-0.232-0.651-0.517-0.862-0.283-0.211-0.628-0.299-0.973-0.249l-32.797 4.791c-0.345 0.05-0.651 0.233-0.861 0.516-0.212 0.284-0.301 0.629-0.25 0.975l10.264 70.277c0.051 0.346 0.235 0.652 0.519 0.863 0.282 0.211 0.629 0.299 0.973 0.249l32.796-4.791c0.346-0.05 0.652-0.234 0.863-0.516 0.212-0.284 0.298-0.629 0.249-0.975z" fill="#006f51"/></g><g transform="translate(301.93 606.35)"><path d="m0 0-0.039-0.014-5.675-2.772 4.687-4.333 0.024-0.02c0.068-0.053 0.159-0.087 0.252-0.101 0.288-0.042 0.557 0.146 0.601 0.447 6e-3 0.052 0 0.093-6e-3 0.148l-0.286 1.698 16.353-2.388 0.396 2.709-16.354 2.389 0.759 1.532 0.022 0.057c0.013 0.03 0.022 0.061 0.027 0.097 0.042 0.288-0.159 0.557-0.448 0.599-0.104 0.015-0.214-8e-3 -0.313-0.048" fill="#fff"/></g><g transform="translate(312.53 643.8)"><path d="m0 0c-0.041-0.283-0.032-0.529 0.218-0.81l2.304-0.337c0.276 0.205 0.399 0.431 0.428 0.784 0.077 0.679-0.728 0.997-1.362 1.111-0.654 0.119-1.455 0.012-1.588-0.748m3.874-0.476c-0.05-0.349-0.147-0.558-0.368-0.837l0.131-0.02-0.146-1.003-5.88 0.859-0.336 1.074 1.953-0.285c-0.094 0.125-0.165 0.559-0.143 0.867 0.085 1.502 1.44 1.726 2.65 1.573 1.295-0.19 2.341-0.854 2.139-2.228" fill="#fff"/></g><g transform="translate(314.66 637.86)"><path d="m0 0c0.073 0.347 0.021 0.6-0.185 0.875l-2.304 0.337c-0.301-0.224-0.399-0.433-0.44-0.717-0.09-0.767 0.645-1.098 1.307-1.171 0.64-0.071 1.501 3e-3 1.622 0.676m-1.768-1.681c-1.204 0.198-2.441 0.78-2.093 2.245 0.067 0.303 0.263 0.721 0.389 0.814l-0.154 0.022 0.144 0.983 3.97-0.58c0.592-0.086 2.68-0.058 2.572-2.494l-0.817-0.372c-0.048 0.587-0.121 1.624-0.888 1.736l-0.549 0.08c0.134-0.31 0.164-0.56 0.113-0.908-0.201-1.377-1.396-1.737-2.687-1.526" fill="#fff"/></g><g transform="translate(314.04 627.87)"><path d="m0 0-4.563 0.666 0.146 1.001 4.563-0.667zm-5.258 1.279c-0.041-0.286-0.296-0.495-0.582-0.453s-0.491 0.318-0.449 0.604c0.041 0.284 0.318 0.491 0.604 0.449 0.284-0.042 0.469-0.315 0.427-0.6" fill="#fff"/></g><g transform="translate(312.78 619.25)"><path d="m0 0-4.564 0.667 0.147 1 4.562-0.667zm-5.259 1.278c-0.041-0.284-0.296-0.493-0.581-0.451-0.286 0.041-0.492 0.317-0.451 0.602 0.042 0.286 0.319 0.492 0.605 0.451 0.284-0.042 0.469-0.316 0.427-0.602" fill="#fff"/></g><g transform="translate(313.2 622.13)"><path d="m0 0-5.879 0.859-0.336 1.071 6.362-0.93z" fill="#fff"/></g><g transform="translate(313.62 625)"><path d="m0 0-5.879 0.859-0.336 1.069 6.362-0.929z" fill="#fff"/></g><g transform="translate(314.85 633.45)"><path d="m0 0-3.028 0.443c-0.592 0.086-0.781-0.29-0.858-0.817-0.036-0.398 0.129-0.803 0.655-0.88l2.985-0.436-0.148-1.009-4.563 0.666 0.144 0.987 0.154-0.022c-0.508 1.128 0.261 2.719 1.666 2.514l3.137-0.458z" fill="#fff"/></g><g transform="translate(313.26 648.8)"><path d="m0 0c-0.113-0.771 0.877-1.05 1.338-1.118 0.461-0.067 1.488-0.083 1.601 0.688 0.113 0.773-0.902 1.033-1.363 1.1-0.438 0.065-1.467 0.08-1.576-0.67m3.839-0.561c-0.232-1.585-1.487-1.74-2.671-1.567-1.009 0.148-2.321 0.677-2.09 2.262 0.229 1.566 1.55 1.71 2.647 1.55s2.342-0.68 2.114-2.245" fill="#fff"/></g><g transform="translate(314.49 657.24)"><path d="m0 0c-0.113-0.771 0.876-1.051 1.337-1.118 0.461-0.068 1.489-0.082 1.603 0.689 0.112 0.771-0.903 1.032-1.364 1.099-0.439 0.064-1.466 0.079-1.576-0.67m3.839-0.561c-0.231-1.586-1.487-1.741-2.672-1.567-1.008 0.147-2.321 0.676-2.089 2.263 0.229 1.564 1.549 1.709 2.646 1.549 1.098-0.161 2.344-0.68 2.115-2.245" fill="#fff"/></g><g transform="translate(314.35 654.4)"><path d="m0 0c-0.183-0.175-0.315-0.313-0.35-0.556-0.083-0.572 0.236-0.685 0.807-0.769l2.851-0.416-0.147-1.012-4.564 0.667 0.149 1.011 0.219-0.032c-0.184 0.274-0.279 0.4-0.227 0.753 0.052 0.352 0.205 0.486 0.404 0.615z" fill="#fff"/></g><g transform="translate(312.46 617.11)"><path d="m0 0-0.128-0.88-4.156-0.403 3.87-1.553-0.128-0.88-6.382-0.011 0.149 1.01 3.357 5e-3 -3.172 1.271 0.142 0.969 3.406 0.332-3.217 0.964 0.148 1.012z" fill="#fff"/></g><g transform="translate(297.78 619.28)"><path d="m0 0c-0.111-0.764 0.378-0.947 0.838-1.014l0.248 1.701c-0.438 0.064-0.977 0.054-1.086-0.687m1.763-1.126c0.511-0.031 1.065 0.089 1.155 0.699 0.061 0.415-0.132 0.777-0.511 0.944l0.622 0.732c0.553-0.347 0.945-0.895 0.811-1.81-0.229-1.57-1.48-1.699-2.666-1.526-1.01 0.148-2.324 0.651-2.095 2.221 0.261 1.788 1.957 1.584 3.073 1.399z" fill="#fff"/></g><g transform="translate(302.69 626.67)"><path d="m0 0-4.563 0.667 0.146 1 4.564-0.667zm-5.257 1.278c-0.042-0.285-0.296-0.494-0.582-0.452s-0.492 0.318-0.451 0.603c0.042 0.286 0.319 0.491 0.604 0.45 0.286-0.042 0.47-0.315 0.429-0.601" fill="#fff"/></g><g transform="translate(305.88 648.48)"><path d="m0 0-2.757-0.928 0.51-0.652 1.975-0.289-0.147-1-5.88 0.859-0.337 1.071 3.117-0.456-1.136 1.432 0.184 1.261 1.076-1.378 3.56 1.211z" fill="#fff"/></g><g transform="translate(303.23 631.09)"><path d="m0 0c0.105-0.354 0.124-0.537 0.088-0.781-0.064-0.737-0.665-0.875-1.324-0.779l-2.546 0.372-0.096-0.664-0.921 0.135 0.097 0.664-1.317 0.192-0.341 1.044 1.8-0.262 0.116 0.796 0.9-0.132-0.116-0.796 2.414-0.352c0.306-0.045 0.444-0.021 0.486 0.267 0.032 0.221-0.018 0.342-0.142 0.563z" fill="#fff"/></g><g transform="translate(303.62 633.78)"><path d="m0 0c0.106-0.355 0.124-0.538 0.088-0.782-0.062-0.736-0.665-0.873-1.323-0.778l-2.546 0.372-0.097-0.664-0.921 0.135 0.097 0.664-1.316 0.192-0.341 1.043 1.799-0.262 0.117 0.796 0.899-0.131-0.117-0.797 2.414-0.352c0.308-0.045 0.446-0.02 0.488 0.268 0.032 0.222-0.018 0.341-0.142 0.563z" fill="#fff"/></g><g transform="translate(306.95 655.79)"><path d="m0 0-0.164-1.122-3.307-0.708 2.97-1.603-0.161-1.1-4.75-0.61 0.155 1.056 3.169 0.369-2.889 1.545 0.167 1.146 3.223 0.585-2.947 1.306 0.155 1.057z" fill="#fff"/></g><g transform="translate(309.26 659.36)"><path d="m0 0-0.161-1.106-1.656 0.942-4.822-1.103 0.158 1.085 3.388 0.792-3.026 1.684 0.165 1.128z" fill="#fff"/></g><g transform="translate(302.27 623.76)"><path d="m0 0-0.129-0.884-4.821-1.1 0.154 1.06 3.24 0.701-2.911 1.552 0.165 1.127z" fill="#fff"/></g><g transform="translate(299.93 643.76)"><path d="m0 0c-0.112-0.163-0.151-0.269-0.195-0.576l-0.189-1.293 1.534-0.224 0.189 1.293c0.045 0.307 0.039 0.419-0.024 0.608-0.077 0.234-0.34 0.43-0.602 0.468-0.263 0.038-0.548-0.077-0.713-0.276m2.275 0.092c0.091-0.303 0.123-0.689 0.053-1.171l-0.17-1.162 2.718-0.397-0.144-0.986-6.247 0.912 0.314 2.149c0.074 0.504 0.166 0.826 0.364 1.11 0.344 0.51 1.061 0.831 1.697 0.738 0.657-0.096 1.254-0.609 1.415-1.193" fill="#fff"/></g><g transform="translate(300.57 612.14)"><path d="m0 0-6.247 0.912 0.144 0.986 5.326-0.778 0.422 2.889 0.921-0.134z" fill="#fff"/></g><g transform="translate(322.44 623.36)"><path d="m0 0c-0.259-0.386-0.691-1.506 0.23-1.641 1.119-0.163 0.965 1.087 0.822 1.488zm2.069-0.257-0.133 0.019c0.111-0.172 0.118-0.576 0.068-0.925-0.134-0.918-0.841-1.618-1.939-1.457-1.294 0.189-1.532 1.785-0.969 2.73 0 0-0.72 0.128-0.888-0.562-0.18-0.621 0.208-1.191 0.384-1.351l-1.006-0.143c-0.755 1.27-0.204 3.355 1.573 3.096l3.05-0.446z" fill="#fff"/></g><g transform="translate(325.99 647.7)"><path d="m0 0c-0.257-0.387-0.689-1.507 0.232-1.641 1.119-0.164 0.965 1.086 0.821 1.487zm2.07-0.258-0.133 0.02c0.11-0.173 0.119-0.576 0.067-0.925-0.133-0.918-0.841-1.618-1.938-1.458-1.294 0.189-1.531 1.786-0.968 2.73 0 0-0.722 0.128-0.889-0.562-0.18-0.621 0.207-1.191 0.385-1.35l-1.007-0.143c-0.755 1.271-0.205 3.355 1.573 3.095l3.05-0.445z" fill="#fff"/></g><g transform="translate(326.01 632.82)"><path d="m0 0c-0.23-1.571-1.483-1.722-2.669-1.549-1.009 0.147-2.321 0.674-2.092 2.244 0.144 0.982 0.703 1.435 1.394 1.557l0.204-1.054c-0.39-0.056-0.618-0.245-0.676-0.638-0.111-0.763 0.857-1.038 1.317-1.105 0.461-0.068 1.49-0.084 1.601 0.679 0.073 0.503-0.289 0.779-0.741 0.911l0.41 0.965c0.787-0.293 1.418-0.876 1.252-2.01" fill="#fff"/></g><g transform="translate(327.4 642.29)"><path d="m0 0c-0.23-1.571-1.483-1.723-2.669-1.549-1.009 0.147-2.322 0.673-2.092 2.244 0.143 0.982 0.703 1.435 1.393 1.556l0.205-1.054c-0.39-0.054-0.619-0.244-0.676-0.636-0.112-0.765 0.857-1.039 1.317-1.106 0.461-0.068 1.489-0.085 1.601 0.679 0.073 0.502-0.289 0.778-0.741 0.91l0.41 0.966c0.787-0.294 1.418-0.876 1.252-2.01" fill="#fff"/></g><g transform="translate(325.3 628.54)"><path d="m0 0-3.028 0.442c-0.593 0.087-0.783-0.29-0.859-0.816-0.036-0.399 0.129-0.804 0.656-0.881l2.984-0.436-0.148-1.009-4.564 0.667 0.145 0.987 0.153-0.022c-0.507 1.127 0.263 2.719 1.667 2.514l3.138-0.459z" fill="#fff"/></g><g transform="translate(322.84 637.93)"><path d="m0 0c-0.113-0.771 0.877-1.05 1.338-1.118 0.461-0.067 1.488-0.083 1.601 0.688 0.113 0.772-0.902 1.032-1.363 1.1-0.438 0.064-1.467 0.08-1.576-0.67m3.839-0.561c-0.233-1.587-1.486-1.741-2.672-1.568-1.009 0.148-2.321 0.677-2.089 2.263 0.229 1.566 1.549 1.71 2.646 1.55s2.343-0.68 2.115-2.245" fill="#fff"/></g><g transform="translate(318.61 618.8)"><path d="m0 0c-0.11-0.141-0.143-0.225-0.191-0.554l-0.173-1.184 1.533-0.224 0.173 1.184c0.045 0.307 0.039 0.419-0.026 0.586-0.097 0.26-0.337 0.452-0.601 0.491-0.262 0.038-0.548-0.078-0.715-0.299m5.216-0.314-2.865-0.612-0.173-1.183 2.718-0.397-0.145-0.987-6.247 0.913 0.302 2.06c0.07 0.483 0.161 0.805 0.36 1.09 0.343 0.509 1.059 0.808 1.694 0.715 0.658-0.096 1.258-0.588 1.438-1.195l3.075 0.67z" fill="#fff"/></g><g transform="translate(328.66 650.95)"><path d="m0 0c-0.095-0.662-0.436-1.018-0.918-1.242l-0.49 0.792c0.317 0.179 0.556 0.438 0.509 0.737-0.049 0.436-0.438 0.537-0.837 0.257-0.766-0.498-1.187-1.407-1.899-1.372-0.621 0.044-1.079 0.449-1.136 1.133-0.057 0.549 0.171 1.192 0.884 1.631l0.469-0.789s-0.641-0.404-0.36-0.783c0.447-0.627 1.391 1.716 2.735 1.409 0.674-0.142 1.187-0.779 1.043-1.773" fill="#fff"/></g></g></g></svg>
