<?xml version="1.0" encoding="UTF-8"?>
<svg width="606.4" height="824.23" version="1.1" viewBox="0 0 606.4 824.23" xml:space="preserve" xmlns="http://www.w3.org/2000/svg"><defs><clipPath id="n"><path d="m27.125 45h512.88v693h-512.88z"/></clipPath><clipPath id="m"><path d="m56.161 94.186h454.8v643.81h-454.8z"/></clipPath><clipPath id="l"><path d="m27.125 45h512.88v693h-512.88z"/></clipPath><clipPath id="k"><path d="m56.161 94.186h454.8v643.81h-454.8z"/></clipPath><clipPath id="j"><path d="m27.125 45h512.88v693h-512.88z"/></clipPath><clipPath id="i"><path d="m56.161 94.186h454.8v643.81h-454.8z"/></clipPath><clipPath id="h"><path d="m27.125 45h512.88v693h-512.88z"/></clipPath><clipPath id="g"><path d="m27.125 45h512.88v693h-512.88z"/></clipPath><clipPath id="f"><path d="m27.125 45h512.88v693h-512.88z"/></clipPath><clipPath id="e"><path d="m27.125 45h512.88v693h-512.88z"/></clipPath><clipPath id="d"><path d="m27.125 45h512.88v693h-512.88z"/></clipPath><clipPath id="c"><path d="m27.125 45h512.88v693h-512.88z"/></clipPath><clipPath id="b"><path d="m27.125 45h512.88v693h-512.88z"/></clipPath><clipPath id="a"><path d="m27.125 45h512.88v693h-512.88z"/></clipPath></defs><g transform="matrix(1.3333 0 0 -1.3333 -74.882 949.81)"><g clip-path="url(#n)"><g transform="translate(150.79 428.22)"><path d="m0 0h-91.8c-1.487 0-2.7 1.213-2.7 2.701v37.8c0 1.487 1.213 2.7 2.7 2.7h91.8c1.487 0 2.7-1.213 2.7-2.7v-37.8c0-1.488-1.213-2.701-2.7-2.701" fill="#fff"/></g></g><g clip-path="url(#m)"><g transform="translate(150.79 428.22)"><path d="m0 0h-91.8c-1.487 0-2.7 1.213-2.7 2.701v37.8c0 1.487 1.213 2.7 2.7 2.7h91.8c1.487 0 2.7-1.213 2.7-2.7v-37.8c0-1.488-1.213-2.701-2.7-2.701z" fill="none" stroke="#000" stroke-width=".25"/></g></g><g clip-path="url(#l)"><g transform="translate(150.78 428.9)"><path d="m0 0h-91.682c-2.164 0-2.135 2.026-2.135 3.629v33.539c0 1.021-0.258 2.458 0.158 3.444 0.722 1.71 3.085 1.239 4.544 1.239h85.824c1.445 0 4.108 0.545 5.031-0.978 0.493-0.813 0.293-1.997 0.293-2.891v-33.582c0-1.595 0.373-4.399-2.033-4.4" fill-rule="evenodd"/></g><g transform="translate(150.76 430.03)"><path d="m0 0h-91.654c-0.673 0-1.026 0.434-1.026 1.083v37.584c0 0.711 0.588 0.933 1.187 0.933h89.562c0.629 0 1.606 0.192 2.219-0.041 0.889-0.336 0.635-1.501 0.635-2.248v-36.138c0-0.586-0.23-1.179-0.923-1.173" fill="#fff" fill-rule="evenodd"/></g><g transform="translate(120.48 429.41)"><path d="m0 0v41.325" fill="#fff" fill-rule="evenodd" stroke="#000" stroke-width=".844"/></g><g transform="translate(99.796 438.45)"><path d="m0 0 0.01 18.312h2.498l-0.011-3.256c0-2.299 0.666-4.578 1.889-6.523 1.052-1.68 2.449-3.11 3.974-4.365l0.928-0.766 0.501 1.57c0.015 0.047 0.026 0.086 0.057 0.125 0.14 0.188 0.38 0.276 0.601 0.174 0.099-0.043 0.233-0.148 0.272-0.256l2.029-5.459-5.792 0.041c-0.102 0-0.211 0.036-0.291 0.1-0.19 0.141-0.273 0.384-0.173 0.605 0.037 0.084 0.088 0.144 0.159 0.197l1.152 0.889-0.929 0.612c-1.149 0.754-2.186 1.679-3.086 2.717-0.475 0.547-0.885 1.128-1.291 1.728v-6.445l1.487 0.473c0.028 8e-3 0.057 9e-3 0.086 0.013 0.019 2e-3 0.035 4e-3 0.054 0 0.102-4e-3 0.191-0.022 0.277-0.079 0.162-0.108 0.24-0.292 0.218-0.484-6e-3 -0.065-0.028-0.145-0.065-0.201l-3.305-4.791-3.279 4.778c-0.062 0.089-0.099 0.183-0.098 0.291 8e-3 0.248 0.184 0.446 0.426 0.497 0.069 0.015 0.161-2e-3 0.228-0.024z" fill-rule="evenodd"/></g><g transform="translate(67.303 461.88)"><path d="m0 0c0 0.211 0.161 0.352 0.414 0.352h0.817v-0.716h-0.817c-0.253 0-0.414 0.141-0.414 0.364m-0.576 1.998 0.524-1.231c-0.291-0.161-0.464-0.444-0.464-0.767s0.173-0.605 0.445-0.757c0.151-0.092 0.282-0.122 0.494-0.122h1.324v2.877h-0.516v-1.13h-0.767l-0.464 1.13zm2.897 0v-0.513h1.626v-0.787h-0.858v-0.528h0.858v-0.534h-1.574v-0.515h2.099v2.877zm2.9 0v-2.877h0.512v1.112h1.294v-1.112h0.516v2.877h-0.516v-1.25l-1.294-0.011v1.261zm2.805-2.371v-0.506h2.162v0.506h-0.829v2.371h-0.504v-2.371zm3.071 0.928c0 0.443 0.131 0.981 0.675 0.981 0.435 0 0.698-0.364 0.698-0.981 0-0.605-0.263-0.97-0.698-0.97-0.432 0-0.675 0.365-0.675 0.97m-0.515-0.01c0-0.879 0.483-1.474 1.19-1.474 0.758 0 1.222 0.565 1.222 1.484 0 0.727-0.373 1.496-1.222 1.496-0.725 0-1.19-0.607-1.19-1.506" fill-rule="evenodd"/></g><g transform="translate(67.389 466.83)"><path d="m0 0c0-0.314 0.161-0.587 0.414-0.718 0.162-0.08 0.415-0.162 0.798-0.242 0.353-0.08 0.454-0.152 0.454-0.313 0-0.181-0.173-0.293-0.464-0.293-0.274 0-0.505 0.09-0.686 0.281l-0.384-0.342c0.291-0.302 0.645-0.445 1.07-0.445 0.584 0 0.989 0.325 0.989 0.799 0 0.182-0.062 0.353-0.182 0.484-0.121 0.142-0.273 0.211-0.566 0.283l-0.14 0.042-0.131 0.029-0.132 0.039c-0.131 0.031-0.244 0.071-0.343 0.113-0.121 0.06-0.181 0.15-0.181 0.262 0 0.212 0.261 0.373 0.626 0.373 0.323 0 0.554-0.11 0.767-0.363l0.414 0.324c-0.324 0.373-0.698 0.557-1.192 0.557-0.264 0-0.526-0.073-0.728-0.196-0.271-0.161-0.403-0.381-0.403-0.674m2.727 0.838v-0.515h1.624v-0.787h-0.859v-0.526h0.859v-0.537h-1.575v-0.515h2.099v2.88zm2.897 0v-2.88h0.504l0.849 1.709 0.839-1.709h0.503v2.88h-0.503v-1.758l-0.839 1.758-0.849-1.758v1.758zm3.432-2.88h0.516v2.88h-0.516zm1.001 0.506v-0.506h2.159v0.506h-0.826v2.374h-0.505v-2.374z" fill-rule="evenodd"/></g><g transform="translate(65.059 451.97)"><path d="m0 0h0.97l1.261 2.012 1.242-2.012h0.989l-1.829 2.943v2.27h-0.822v-2.27zm3.769 5.213v-0.77h2.412v-4.443h0.823v5.213zm4.459 0v-5.213h0.823v3.328l1.903-3.328h0.822v5.213h-0.822v-3.531l-1.994 3.531zm5.503-2.598c0 0.403 0.092 0.914 0.204 1.188 0.18 0.457 0.419 0.66 0.804 0.66 0.326 0 0.547-0.13 0.711-0.404 0.201-0.329 0.312-0.895 0.312-1.444 0-0.439-0.074-0.915-0.2-1.226-0.185-0.456-0.44-0.658-0.843-0.639-0.311 0.018-0.512 0.127-0.676 0.402-0.201 0.348-0.312 0.877-0.312 1.463m-0.822 0c0-0.658 0.129-1.317 0.348-1.774 0.328-0.64 0.786-0.933 1.443-0.933 0.605 0 1.024 0.183 1.335 0.586 0.349 0.492 0.568 1.262 0.568 2.121 0 0.621-0.146 1.316-0.366 1.756-0.31 0.639-0.768 0.935-1.498 0.935-0.551 0-0.97-0.185-1.261-0.589-0.368-0.457-0.569-1.279-0.569-2.102" fill-rule="evenodd"/></g><g transform="translate(74.507 435.64)"><path d="m0 0 0.013-2.665h-2.222v2.68c0 0.969-0.322 1.934-0.91 2.707-0.534 0.701-1.297 1.244-2.153 1.466l-0.95 0.246 0.06-1.383c2e-3 -0.041-0.011-0.085-0.023-0.123-0.063-0.196-0.224-0.344-0.44-0.324-0.112 9e-3 -0.237 0.05-0.313 0.138l-3.346 3.939 4.864 1.716c0.083 0.029 0.163 0.037 0.246 0.012 0.204-0.055 0.347-0.251 0.335-0.462-4e-3 -0.047-0.033-0.158-0.061-0.205l-0.805-1.259 0.989-0.258c1.339-0.351 2.535-1.165 3.377-2.262 0.566-0.739 1-1.62 1.185-2.537 0.095-0.468 0.126-0.95 0.154-1.426" fill-rule="evenodd"/></g><g transform="translate(72.308 446.72)"><path d="m0 0-0.014 2.665h2.222v-2.679c0-0.97 0.323-1.935 0.911-2.708 0.534-0.7 1.296-1.244 2.152-1.465l0.951-0.246-0.06 1.382c-3e-3 0.04 0.011 0.085 0.023 0.123 0.063 0.196 0.225 0.343 0.44 0.325 0.112-0.01 0.238-0.051 0.313-0.139l3.347-3.938-4.865-1.716c-0.083-0.03-0.164-0.037-0.245-0.013-0.203 0.057-0.349 0.25-0.337 0.461 5e-3 0.047 0.035 0.16 0.063 0.206l0.804 1.259-0.988 0.259c-1.339 0.351-2.536 1.164-3.379 2.262-0.566 0.737-0.998 1.619-1.184 2.536-0.096 0.468-0.127 0.951-0.154 1.426" fill-rule="evenodd"/></g><g transform="translate(130.16 453.24)"><path d="m0 0 6.156-6.157 6.112 6.112 2.035-2.035-6.112-6.112 6.056-6.056-2.036-2.035-6.055 6.056-6.148-6.149-2.036 2.035 6.148 6.149-6.156 6.156z" fill="#c0311a" fill-rule="evenodd"/></g><g transform="translate(89.276 429.18)"><path d="m0 0v41.325" fill="#fff" fill-rule="evenodd" stroke="#000" stroke-width=".844"/></g><g transform="translate(143 463.54)"><path d="m0 0 0.323 1.515h-0.626zm-0.787 3.796 0.323-1.535h0.948l0.325 1.535h0.746l-1.171-5.754h-0.747l-1.191 5.754z"/></g><g transform="translate(138.55 467.34)"><path d="m0 0v-3.412l0.667 2.16 0.701-2.16v3.412h0.727v-5.754h-0.727l-0.701 2.039-0.667-2.039h-0.726v5.754z"/></g><g transform="translate(130.11 463.54)"><path d="m0 0 0.323 1.515h-0.626zm-0.787 3.796 0.323-1.535h0.948l0.325 1.535h0.746l-1.171-5.754h-0.747l-1.191 5.754z"/></g><g transform="translate(125.65 467.34)"><path d="m0 0v-3.412l0.667 2.16 0.701-2.16v3.412h0.727v-5.754h-0.727l-0.701 2.039-0.667-2.039h-0.727v5.754z"/></g><g transform="translate(146.3 467.34)"><path d="m0 0h0.748c-0.06-2.1-0.404-3.634-1.111-5.007h1.726v-0.747h-2.475v0.747c0.768 1.554 1.05 2.847 1.112 5.007"/></g><g transform="translate(133.02 462.41)"><path d="m0 0c0.088-0.116 0.216-0.177 0.337-0.177 0.344 0 0.494 0.343 0.494 1.11 0 0.626-0.171 0.909-0.494 0.909-0.343 0-0.489-0.303-0.489-0.989 0-0.445 0.045-0.714 0.152-0.853m1.135-0.642c-0.21-0.212-0.494-0.282-0.818-0.282-0.787 0-1.215 0.605-1.215 1.716 0 1.717 0.701 3.13 2.072 4.24l0.404-0.626c-0.645-0.545-1.079-1.09-1.382-1.838 0.04 0.022 0.08 0.022 0.141 0.022 0.362 0 0.716-0.163 0.937-0.446 0.184-0.242 0.304-0.767 0.304-1.291 0-0.687-0.173-1.219-0.443-1.495"/></g><path d="m137.02 464.27h-1.783v0.746h1.783z"/><g transform="translate(111.38 462.33)"><path d="m0 0h0.395v1.756h-0.395c-0.444 0-0.606-0.221-0.606-0.827 0-0.646 0.202-0.929 0.606-0.929m0 2.503h0.395v2.504h0.726v-5.754h-1.121c-0.324 0-0.628 0.081-0.809 0.243-0.323 0.261-0.544 0.806-0.544 1.433 0 0.949 0.544 1.574 1.353 1.574"/></g><g transform="translate(98.776 462.33)"><path d="m0 0h0.395v1.756h-0.395c-0.444 0-0.607-0.221-0.607-0.827 0-0.646 0.203-0.929 0.607-0.929m0 2.503h0.395v2.504h0.727v-5.754h-1.122c-0.323 0-0.627 0.081-0.809 0.243-0.323 0.261-0.545 0.806-0.545 1.433 0 0.949 0.545 1.574 1.354 1.574"/></g><g transform="translate(114.63 462.98)"><path d="m0 0 1.065 2.241h-1.065zm-0.728 2.928v1.433h0.728v-1.433h1.791v-0.768l-1.73-3.553h-0.789v3.634h-0.301v0.687z"/></g><g transform="translate(101.86 466.47)"><path d="m0 0c-0.071-0.137-0.12-0.545-0.12-0.908 0-0.605 0.166-0.889 0.488-0.889 0.343 0 0.493 0.303 0.493 0.991 0 0.423-0.039 0.707-0.16 0.847-0.081 0.102-0.212 0.182-0.333 0.182-0.161 0-0.294-0.077-0.368-0.223m-0.403 0.688c0.202 0.181 0.49 0.282 0.792 0.282 0.786 0 1.219-0.607 1.219-1.716 0-1.716-0.7-3.15-2.072-4.24l-0.403 0.625c0.645 0.525 1.074 1.091 1.377 1.838-0.444-0.141-0.832 0.041-1.054 0.404-0.183 0.283-0.323 0.787-0.323 1.313 0 0.685 0.161 1.232 0.464 1.494"/></g><g transform="translate(107.13 467.34)"><path d="m0 0v-3.412l0.667 2.16 0.701-2.16v3.412h0.727v-5.754h-0.727l-0.701 2.039-0.667-2.039h-0.727v5.754z"/></g><g transform="translate(94.522 467.34)"><path d="m0 0v-3.412l0.667 2.16 0.701-2.16v3.412h0.728v-5.754h-0.728l-0.701 2.039-0.667-2.039h-0.726v5.754z"/></g><path d="m105.6 464.27h-1.784v0.746h1.784z"/><g transform="translate(416.34 407.1)"><path d="m0 0h91.8c1.487 0 2.7-1.214 2.7-2.701v-37.8c0-1.488-1.213-2.7-2.7-2.7h-91.8c-1.487 0-2.7 1.212-2.7 2.7v37.8c0 1.487 1.213 2.701 2.7 2.701" fill="#fff"/></g></g><g clip-path="url(#k)"><g transform="translate(416.34 407.1)"><path d="m0 0h91.8c1.487 0 2.7-1.214 2.7-2.701v-37.8c0-1.488-1.213-2.7-2.7-2.7h-91.8c-1.487 0-2.7 1.212-2.7 2.7v37.8c0 1.487 1.213 2.701 2.7 2.701z" fill="none" stroke="#000" stroke-width=".25"/></g></g><g clip-path="url(#j)"><g transform="translate(416.35 406.42)"><path d="m0 0h91.682c2.164 0 2.135-2.026 2.135-3.629v-33.539c0-1.022 0.258-2.458-0.158-3.444-0.722-1.71-3.085-1.24-4.544-1.24h-85.824c-1.445 0-4.108-0.545-5.031 0.979-0.493 0.812-0.293 1.997-0.293 2.89v33.582c0 1.596-0.373 4.399 2.033 4.401" fill-rule="evenodd"/></g><g transform="translate(416.36 405.29)"><path d="m0 0h91.654c0.673 0 1.025-0.434 1.025-1.082v-37.584c0-0.711-0.587-0.934-1.186-0.934h-89.563c-0.629 0-1.605-0.191-2.218 0.041-0.889 0.337-0.635 1.501-0.635 2.248v36.139c0 0.585 0.229 1.179 0.923 1.172" fill="#fff" fill-rule="evenodd"/></g><g transform="translate(446.64 405.92)"><path d="m0 0v-41.325" fill="#fff" fill-rule="evenodd" stroke="#000" stroke-width=".844"/></g><g transform="translate(467.33 396.87)"><path d="m0 0-9e-3 -18.312h-2.498l0.01 3.256c0 2.298-0.666 4.578-1.888 6.523-1.053 1.68-2.449 3.109-3.975 4.365l-0.928 0.766-0.501-1.57c-0.014-0.047-0.026-0.086-0.056-0.125-0.141-0.188-0.38-0.276-0.602-0.174-0.098 0.043-0.232 0.148-0.271 0.256l-2.03 5.459 5.792-0.041c0.103 0 0.211-0.036 0.291-0.1 0.191-0.142 0.274-0.384 0.173-0.605-0.037-0.084-0.088-0.144-0.159-0.197l-1.151-0.89 0.928-0.611c1.15-0.755 2.186-1.68 3.086-2.718 0.476-0.546 0.885-1.128 1.291-1.727v6.445l-1.487-0.473c-0.027-8e-3 -0.057-9e-3 -0.086-0.013-0.018-3e-3 -0.035-4e-3 -0.054 0-0.101 4e-3 -0.191 0.022-0.277 0.078-0.162 0.109-0.239 0.293-0.218 0.484 6e-3 0.065 0.029 0.145 0.066 0.202l3.304 4.791 3.28-4.778c0.061-0.09 0.098-0.183 0.097-0.291-7e-3 -0.248-0.183-0.447-0.425-0.497-0.07-0.015-0.162 2e-3 -0.229 0.024z" fill-rule="evenodd"/></g><g transform="translate(499.82 373.44)"><path d="m0 0c0-0.211-0.161-0.351-0.414-0.351h-0.818v0.716h0.818c0.253 0 0.414-0.141 0.414-0.365m0.576-1.998-0.525 1.232c0.291 0.161 0.464 0.444 0.464 0.766 0 0.324-0.173 0.606-0.444 0.758-0.151 0.092-0.282 0.121-0.494 0.121h-1.324v-2.877h0.515v1.131h0.768l0.464-1.131zm-2.898 0v0.514h-1.626v0.787h0.859v0.527h-0.859v0.535h1.575v0.514h-2.099v-2.877zm-2.899 0v2.877h-0.513v-1.111h-1.294v1.111h-0.515v-2.877h0.515v1.25l1.294 0.012v-1.262zm-2.806 2.371v0.506h-2.162v-0.506h0.829v-2.371h0.504v2.371zm-3.07-0.927c0-0.444-0.132-0.981-0.676-0.981-0.434 0-0.697 0.364-0.697 0.981 0 0.605 0.263 0.969 0.697 0.969 0.433 0 0.676-0.364 0.676-0.969m0.515 9e-3c0 0.879-0.484 1.475-1.191 1.475-0.758 0-1.221-0.565-1.221-1.484 0-0.727 0.373-1.496 1.221-1.496 0.726 0 1.191 0.607 1.191 1.505" fill-rule="evenodd"/></g><g transform="translate(499.74 368.49)"><path d="m0 0c0 0.314-0.161 0.587-0.414 0.718-0.162 0.08-0.415 0.162-0.798 0.242-0.353 0.08-0.454 0.151-0.454 0.313 0 0.181 0.173 0.293 0.464 0.293 0.274 0 0.504-0.09 0.686-0.282l0.384 0.343c-0.291 0.302-0.646 0.444-1.07 0.444-0.584 0-0.99-0.324-0.99-0.798 0-0.182 0.063-0.353 0.183-0.484 0.121-0.142 0.272-0.212 0.565-0.283l0.141-0.042 0.131-0.029 0.132-0.039c0.131-0.032 0.244-0.072 0.342-0.114 0.122-0.059 0.182-0.149 0.182-0.261 0-0.212-0.262-0.373-0.626-0.373-0.323 0-0.555 0.11-0.767 0.363l-0.415-0.324c0.325-0.373 0.699-0.557 1.193-0.557 0.264 0 0.526 0.072 0.727 0.195 0.272 0.161 0.404 0.382 0.404 0.675m-2.727-0.838v0.515h-1.624v0.787h0.859v0.525h-0.859v0.538h1.574v0.515h-2.098v-2.88zm-2.897 0v2.88h-0.504l-0.849-1.709-0.839 1.709h-0.504v-2.88h0.504v1.758l0.839-1.758 0.849 1.758v-1.758zm-3.432 2.88h-0.516v-2.88h0.516zm-1.001-0.507v0.507h-2.159v-0.507h0.826v-2.373h0.505v2.373z" fill-rule="evenodd"/></g><g transform="translate(502.07 383.35)"><path d="m0 0h-0.97l-1.262-2.012-1.241 2.012h-0.989l1.829-2.944v-2.269h0.822v2.269zm-3.769-5.213v0.769h-2.412v4.444h-0.823v-5.213zm-4.459 0v5.213h-0.823v-3.328l-1.903 3.328h-0.823v-5.213h0.823v3.531l1.994-3.531zm-5.504 2.597c0-0.402-0.091-0.914-0.203-1.187-0.18-0.457-0.419-0.66-0.804-0.66-0.327 0-0.547 0.13-0.711 0.404-0.202 0.329-0.312 0.895-0.312 1.443 0 0.44 0.073 0.915 0.2 1.227 0.185 0.456 0.44 0.658 0.843 0.639 0.311-0.018 0.512-0.127 0.676-0.403 0.201-0.347 0.311-0.877 0.311-1.463m0.823 0c0 0.659-0.129 1.318-0.348 1.775-0.328 0.64-0.786 0.932-1.443 0.932-0.605 0-1.024-0.182-1.335-0.585-0.349-0.493-0.568-1.262-0.568-2.122 0-0.621 0.146-1.315 0.365-1.755 0.311-0.639 0.769-0.935 1.499-0.935 0.55 0 0.97 0.185 1.261 0.589 0.367 0.457 0.569 1.279 0.569 2.101" fill-rule="evenodd"/></g><g transform="translate(492.62 399.68)"><path d="m0 0-0.013 2.665h2.222v-2.68c0-0.97 0.322-1.934 0.91-2.707 0.534-0.701 1.297-1.244 2.152-1.466l0.95-0.246-0.059 1.383c-2e-3 0.041 0.01 0.085 0.022 0.123 0.064 0.195 0.225 0.343 0.441 0.324 0.112-9e-3 0.237-0.051 0.312-0.138l3.347-3.939-4.865-1.716c-0.083-0.029-0.163-0.037-0.246-0.012-0.204 0.055-0.346 0.251-0.335 0.461 4e-3 0.047 0.034 0.159 0.062 0.206l0.805 1.258-0.99 0.259c-1.339 0.351-2.535 1.165-3.377 2.262-0.566 0.739-1 1.62-1.184 2.536-0.096 0.469-0.126 0.951-0.154 1.427" fill-rule="evenodd"/></g><g transform="translate(494.82 388.6)"><path d="m0 0 0.013-2.665h-2.221v2.678c0 0.971-0.323 1.936-0.911 2.708-0.535 0.701-1.296 1.244-2.152 1.466l-0.951 0.246 0.06-1.383c3e-3 -0.04-0.011-0.085-0.023-0.123-0.063-0.195-0.225-0.342-0.44-0.324-0.113 0.01-0.239 0.051-0.313 0.139l-3.347 3.937 4.865 1.717c0.083 0.029 0.164 0.036 0.245 0.013 0.203-0.057 0.349-0.25 0.337-0.461-5e-3 -0.047-0.035-0.161-0.064-0.207l-0.803-1.258 0.988-0.26c1.339-0.35 2.536-1.163 3.379-2.261 0.565-0.738 0.998-1.62 1.183-2.537 0.097-0.467 0.127-0.951 0.155-1.425" fill-rule="evenodd"/></g><g transform="translate(436.96 382.08)"><path d="m0 0-6.156 6.156-6.111-6.111-2.035 2.035 6.111 6.111-6.056 6.057 2.036 2.035 6.055-6.056 6.148 6.149 2.037-2.036-6.149-6.149 6.156-6.155z" fill="#c0311a" fill-rule="evenodd"/></g><g transform="translate(477.85 406.15)"><path d="m0 0v-41.326" fill="#fff" fill-rule="evenodd" stroke="#000" stroke-width=".844"/></g><g transform="translate(424.12 371.78)"><path d="m0 0-0.323-1.514h0.626zm0.787-3.796-0.323 1.536h-0.948l-0.324-1.536h-0.746l1.171 5.754h0.747l1.19-5.754z"/></g><g transform="translate(428.58 367.98)"><path d="m0 0v3.413l-0.667-2.161-0.702 2.161v-3.413h-0.726v5.754h0.726l0.702-2.038 0.667 2.038h0.726v-5.754z"/></g><g transform="translate(437.02 371.78)"><path d="m0 0-0.323-1.514h0.626zm0.787-3.796-0.323 1.536h-0.948l-0.325-1.536h-0.746l1.171 5.754h0.747l1.191-5.754z"/></g><g transform="translate(441.47 367.98)"><path d="m0 0v3.413l-0.667-2.161-0.701 2.161v-3.413h-0.727v5.754h0.727l0.701-2.038 0.667 2.038h0.727v-5.754z"/></g><g transform="translate(420.83 367.98)"><path d="m0 0h-0.748c0.06 2.101 0.404 3.635 1.111 5.008h-1.727v0.746h2.476v-0.746c-0.769-1.554-1.051-2.847-1.112-5.008"/></g><g transform="translate(434.1 372.91)"><path d="m0 0c-0.088 0.115-0.216 0.177-0.337 0.177-0.344 0-0.494-0.343-0.494-1.111 0-0.626 0.171-0.908 0.494-0.908 0.343 0 0.489 0.303 0.489 0.989 0 0.445-0.045 0.713-0.152 0.853m-1.135 0.642c0.21 0.212 0.494 0.282 0.817 0.282 0.788 0 1.216-0.606 1.216-1.716 0-1.717-0.701-3.13-2.072-4.24l-0.404 0.626c0.645 0.545 1.079 1.09 1.382 1.838-0.04-0.022-0.08-0.022-0.141-0.022-0.362 0-0.716 0.162-0.938 0.446-0.183 0.242-0.303 0.767-0.303 1.291 0 0.687 0.173 1.219 0.443 1.495"/></g><path d="m430.11 371.05h1.783v-0.746h-1.783z"/><g transform="translate(455.74 372.99)"><path d="m0 0h-0.395v-1.757h0.395c0.444 0 0.606 0.222 0.606 0.828 0 0.646-0.202 0.929-0.606 0.929m0-2.504h-0.395v-2.504h-0.727v5.754h1.122c0.324 0 0.627-0.08 0.808-0.242 0.323-0.262 0.545-0.807 0.545-1.433 0-0.95-0.545-1.575-1.353-1.575"/></g><g transform="translate(468.35 372.99)"><path d="m0 0h-0.395v-1.757h0.395c0.444 0 0.606 0.222 0.606 0.828 0 0.646-0.202 0.929-0.606 0.929m0-2.504h-0.395v-2.504h-0.727v5.754h1.122c0.323 0 0.627-0.08 0.809-0.242 0.323-0.262 0.545-0.807 0.545-1.433 0-0.95-0.545-1.575-1.354-1.575"/></g><g transform="translate(452.5 372.34)"><path d="m0 0-1.065-2.241h1.065zm0.728-2.928v-1.434h-0.728v1.434h-1.791v0.768l1.731 3.552h0.788v-3.633h0.302v-0.687z"/></g><g transform="translate(465.27 368.85)"><path d="m0 0c0.071 0.136 0.12 0.544 0.12 0.908 0 0.605-0.166 0.888-0.488 0.888-0.343 0-0.493-0.302-0.493-0.99 0-0.424 0.039-0.707 0.16-0.847 0.081-0.102 0.212-0.182 0.333-0.182 0.161 0 0.294 0.077 0.368 0.223m0.403-0.688c-0.202-0.182-0.49-0.282-0.792-0.282-0.786 0-1.219 0.606-1.219 1.716 0 1.715 0.7 3.15 2.072 4.24l0.403-0.625c-0.645-0.526-1.074-1.091-1.377-1.838 0.444 0.141 0.832-0.041 1.054-0.404 0.183-0.284 0.323-0.787 0.323-1.313 0-0.685-0.161-1.232-0.464-1.494"/></g><g transform="translate(460 367.98)"><path d="m0 0v3.413l-0.667-2.161-0.701 2.161v-3.413h-0.726v5.754h0.726l0.701-2.038 0.667 2.038h0.727v-5.754z"/></g><g transform="translate(472.6 367.98)"><path d="m0 0v3.413l-0.667-2.161-0.701 2.161v-3.413h-0.728v5.754h0.728l0.701-2.038 0.667 2.038h0.725v-5.754z"/></g><path d="m461.53 371.05h1.784v-0.746h-1.784z"/><g transform="translate(186.25 192.62)"><path d="m0 0s8.588 1.028 17.167 2.055c-1.946-1.838-4.25-4.014-4.25-4.014s24.95 2.987 33.528 4.014c-1.947-1.838-4.25-4.014-4.25-4.014s24.95 2.987 33.526 4.014c-1.944-1.838-4.25-4.014-4.25-4.014s24.951 2.987 33.528 4.014c-1.946-1.838-4.25-4.014-4.25-4.014s24.952 2.987 33.529 4.014c-1.947-1.838-4.25-4.014-4.25-4.014s24.95 2.987 33.528 4.014c-1.946-1.838-4.25-4.014-4.25-4.014l42.065 5.035m-202.02 2.325 33.528 4.013-4.25-4.013 33.529 4.013-4.25-4.013 33.527 4.013-4.25-4.013 33.528 4.013-4.25-4.013 33.528 4.013-4.25-4.013 33.528 4.013-4.25-4.013 26.489 3.173m-134.61 500.34v-27.244m67.061 27.244v-27.244m-69.847-20.186-4.731-26.831m77.648 25.259 4.447-25.259m-62.066-290.6v-27.246m5.44 0v27.246m31.399 0v-27.246m5.44 27.246v-27.246m-73.542 27.246v-27.246m104.56 27.246v-27.246m-73.301 104.79v-27.245m5.44 0v27.245m31.399 0v-27.245m5.44 27.245v-27.245m-73.542 27.245v-27.245m104.56 27.245v-27.245m-73.301 104.79v-27.245m5.44 0v27.245m31.399 0v-27.245m5.44 27.245v-27.245m-73.542 27.245v-27.245m104.56 27.245v-27.245m-73.301 104.79v-27.245m5.44 0v27.245m31.399 0v-27.245m5.44 27.245v-27.245m-73.542 27.245v-27.245m104.56 27.245v-27.245m-61.277-349.03 6.235-19.099v-70.18m-18.259 156.78v-30.666l9.195-28.208m6.494-2.321c-4.776 14.631-9.97 30.541-10.249 31.394v29.801m18.408-69.597c-1-3.061-1.923-5.891-2.709-8.297-1.019 3.125-2.271 6.961-3.62 11.091m19.32 66.803v-29.801c-0.272-0.832-5.216-15.98-9.891-30.3m2.878-8.717-5.806-17.781v-70.18m18.259 156.78v-30.666l-9.424-28.869m-64.118 59.535v-27.246m104.56 27.246v-27.246m-85.639-63.168v-27.244m67.059 27.244v-27.244m-67.059-16.828v-27.367m67.74 27.367v-27.367" fill="none" stroke="#000" stroke-miterlimit="2.613" stroke-width=".945"/></g><g transform="translate(294.39 387.04)"><path d="m0 0h-15.426v2.204h15.426v-1.102z" fill-rule="evenodd"/></g><g transform="translate(281.33 385.15)"><path d="m0 0c0 0.96 0.635 1.737 1.416 1.737 0.783 0 1.417-0.777 1.417-1.737 0-0.957-0.634-1.733-1.417-1.733-0.781 0-1.416 0.776-1.416 1.733" fill-rule="evenodd"/></g><g transform="translate(289.2 385.15)"><path d="m0 0c0 0.96 0.633 1.737 1.416 1.737 0.782 0 1.417-0.777 1.417-1.737 0-0.957-0.635-1.733-1.417-1.733-0.783 0-1.416 0.776-1.416 1.733" fill-rule="evenodd"/></g><g transform="translate(294.39 379.11)"><path d="m0 0h-15.426v-2.205h15.426v1.103z" fill-rule="evenodd"/></g><g transform="translate(281.33 381)"><path d="m0 0c0-0.959 0.635-1.734 1.416-1.734 0.783 0 1.417 0.775 1.417 1.734 0 0.957-0.634 1.734-1.417 1.734-0.781 0-1.416-0.777-1.416-1.734" fill-rule="evenodd"/></g><g transform="translate(289.2 381)"><path d="m0 0c0-0.959 0.633-1.734 1.416-1.734 0.782 0 1.417 0.775 1.417 1.734 0 0.957-0.635 1.734-1.417 1.734-0.783 0-1.416-0.777-1.416-1.734" fill-rule="evenodd"/></g><g transform="translate(294.39 222.07)"><path d="m0 0h-15.426v2.203h7.713 7.713v-1.101z" fill-rule="evenodd"/></g><g transform="translate(281.33 220.19)"><path d="m0 0c0 0.957 0.635 1.732 1.416 1.732 0.783 0 1.417-0.775 1.417-1.732s-0.634-1.735-1.417-1.735c-0.781 0-1.416 0.778-1.416 1.735" fill-rule="evenodd"/></g><g transform="translate(289.2 220.19)"><path d="m0 0c0 0.957 0.633 1.732 1.416 1.732 0.782 0 1.417-0.775 1.417-1.732s-0.635-1.735-1.417-1.735c-0.783 0-1.416 0.778-1.416 1.735" fill-rule="evenodd"/></g><g transform="translate(294.39 214.15)"><path d="m0 0h-15.426v-2.205h15.426v1.103z" fill-rule="evenodd"/></g><g transform="translate(281.33 216.03)"><path d="m0 0c0-0.959 0.635-1.736 1.416-1.736 0.783 0 1.417 0.777 1.417 1.736 0 0.957-0.634 1.733-1.417 1.733-0.781 0-1.416-0.776-1.416-1.733" fill-rule="evenodd"/></g><g transform="translate(289.2 216.03)"><path d="m0 0c0-0.959 0.633-1.736 1.416-1.736 0.782 0 1.417 0.777 1.417 1.736 0 0.957-0.635 1.733-1.417 1.733-0.783 0-1.416-0.776-1.416-1.733" fill-rule="evenodd"/></g><g transform="translate(294.39 537.79)"><path d="m0 0h-15.426v2.204h15.426v-1.102z" fill-rule="evenodd"/></g><g transform="translate(281.33 535.9)"><path d="m0 0c0 0.959 0.635 1.736 1.416 1.736 0.783 0 1.417-0.777 1.417-1.736 0-0.957-0.634-1.733-1.417-1.733-0.781 0-1.416 0.776-1.416 1.733" fill-rule="evenodd"/></g><g transform="translate(289.2 535.9)"><path d="m0 0c0 0.959 0.633 1.736 1.416 1.736 0.782 0 1.417-0.777 1.417-1.736 0-0.957-0.635-1.733-1.417-1.733-0.783 0-1.416 0.776-1.416 1.733" fill-rule="evenodd"/></g><g transform="translate(294.39 529.86)"><path d="m0 0h-15.426v-2.204h15.426v1.102z" fill-rule="evenodd"/></g><g transform="translate(281.33 531.75)"><path d="m0 0c0-0.958 0.635-1.734 1.416-1.734 0.783 0 1.417 0.776 1.417 1.734 0 0.959-0.634 1.734-1.417 1.734-0.781 0-1.416-0.775-1.416-1.734" fill-rule="evenodd"/></g><g transform="translate(289.2 531.75)"><path d="m0 0c0-0.958 0.633-1.734 1.416-1.734 0.782 0 1.417 0.776 1.417 1.734 0 0.959-0.635 1.734-1.417 1.734-0.783 0-1.416-0.775-1.416-1.734" fill-rule="evenodd"/></g><g transform="translate(192.51 484.63)"><path d="m0 0h-15.426v2.203h7.713 7.713v-1.102z" fill-rule="evenodd"/></g><g transform="translate(183.38 482.74)"><path d="m0 0c0 0.958 0.635 1.734 1.417 1.734s1.416-0.776 1.416-1.734-0.634-1.735-1.416-1.735-1.417 0.777-1.417 1.735" fill-rule="evenodd"/></g><g transform="translate(192.51 325.33)"><path d="m0 0h-15.426v2.205h15.426v-1.102z" fill-rule="evenodd"/></g><g transform="translate(183.38 323.44)"><path d="m0 0c0 0.957 0.635 1.735 1.417 1.735s1.416-0.778 1.416-1.735c0-0.959-0.634-1.734-1.416-1.734s-1.417 0.775-1.417 1.734" fill-rule="evenodd"/></g><g transform="translate(379.28 328.32)"><path d="m0 0h15.426v-2.203h-15.426v1.102z" fill-rule="evenodd"/></g><g transform="translate(388.41 330.21)"><path d="m0 0c0-0.957-0.636-1.732-1.417-1.732-0.784 0-1.417 0.775-1.417 1.732s0.633 1.734 1.417 1.734c0.781 0 1.417-0.777 1.417-1.734" fill-rule="evenodd"/></g><g transform="translate(379.28 478.17)"><path d="m0 0h15.426v-2.204h-15.426v1.102z" fill-rule="evenodd"/></g><g transform="translate(388.41 480.06)"><path d="m0 0c0-0.958-0.636-1.733-1.417-1.733-0.784 0-1.417 0.775-1.417 1.733 0 0.959 0.633 1.735 1.417 1.735 0.781 0 1.417-0.776 1.417-1.735" fill-rule="evenodd"/></g><g transform="translate(276.01 676.31)"><path d="m0 0h-15.427v2.204h15.427v-1.102z" fill-rule="evenodd"/></g><g transform="translate(262.94 674.42)"><path d="m0 0c0 0.959 0.635 1.735 1.418 1.735 0.782 0 1.415-0.776 1.415-1.735 0-0.957-0.633-1.733-1.415-1.733-0.783 0-1.418 0.776-1.418 1.733" fill-rule="evenodd"/></g><g transform="translate(270.81 674.42)"><path d="m0 0c0 0.959 0.635 1.735 1.417 1.735 0.783 0 1.416-0.776 1.416-1.735 0-0.957-0.633-1.733-1.416-1.733-0.782 0-1.417 0.776-1.417 1.733" fill-rule="evenodd"/></g><g transform="translate(311.27 113.17)"><path d="m0 0h-15.426v-2.203h15.426v1.101z" fill-rule="evenodd"/></g><g transform="translate(298.2 115.05)"><path d="m0 0c0-0.959 0.633-1.735 1.416-1.735 0.782 0 1.417 0.776 1.417 1.735s-0.635 1.732-1.417 1.732c-0.783 0-1.416-0.773-1.416-1.732" fill-rule="evenodd"/></g><g transform="translate(306.07 115.05)"><path d="m0 0c0-0.959 0.634-1.735 1.416-1.735 0.783 0 1.417 0.776 1.417 1.735s-0.634 1.732-1.417 1.732c-0.782 0-1.416-0.773-1.416-1.732" fill-rule="evenodd"/></g><g transform="translate(387.87 218.3)" fill="none" stroke="#000" stroke-miterlimit="2.613"><path d="m0 0c0 1.303 1.056 2.359 2.361 2.359 1.304 0 2.361-1.056 2.361-2.359 0-1.305-1.057-2.361-2.361-2.361-1.305 0-2.361 1.056-2.361 2.361m-207.1 0c0 1.303 1.058 2.359 2.361 2.359 1.305 0 2.362-1.056 2.362-2.359 0-1.305-1.057-2.361-2.362-2.361-1.303 0-2.361 1.056-2.361 2.361" stroke-width=".945"/><path d="m0 0h-202.38" stroke-width="1.889"/></g><g transform="translate(363.73 117.24)" fill="none" stroke="#000" stroke-miterlimit="2.613"><path d="m0 0c0 1.305 1.056 2.362 2.361 2.362 1.303 0 2.362-1.057 2.362-2.362 0-1.304-1.059-2.361-2.362-2.361-1.305 0-2.361 1.057-2.361 2.361m-158.81 0c0 1.305 1.058 2.362 2.362 2.362s2.361-1.057 2.361-2.362c0-1.304-1.057-2.361-2.361-2.361s-2.362 1.057-2.362 2.361" stroke-width=".945"/><path d="m0 0h-154.09" stroke-width="1.889"/></g><g transform="translate(363.73 672.58)" fill="none" stroke="#000" stroke-miterlimit="2.613"><path d="m0 0c0 1.304 1.056 2.361 2.361 2.361 1.303 0 2.362-1.057 2.362-2.361s-1.059-2.361-2.362-2.361c-1.305 0-2.361 1.057-2.361 2.361m-158.81 0c0 1.304 1.058 2.361 2.362 2.361s2.361-1.057 2.361-2.361-1.057-2.361-2.361-2.361-2.362 1.057-2.362 2.361" stroke-width=".945"/><path d="m0 0h-154.09" stroke-width="1.889"/></g><g transform="translate(387.87 383.26)" fill="none" stroke="#000" stroke-miterlimit="2.613"><path d="m0 0c0 1.304 1.056 2.361 2.361 2.361 1.304 0 2.361-1.057 2.361-2.361s-1.057-2.361-2.361-2.361c-1.305 0-2.361 1.057-2.361 2.361m-207.1 0c0 1.304 1.058 2.361 2.361 2.361 1.305 0 2.362-1.057 2.362-2.361s-1.057-2.361-2.362-2.361c-1.303 0-2.361 1.057-2.361 2.361" stroke-width=".945"/><path d="m0 0h-202.38" stroke-width="1.889"/></g><g transform="translate(387.87 533.74)" fill="none" stroke="#000" stroke-miterlimit="2.613"><path d="m0 0c0 1.303 1.056 2.362 2.361 2.362 1.304 0 2.361-1.059 2.361-2.362 0-1.304-1.057-2.361-2.361-2.361-1.305 0-2.361 1.057-2.361 2.361m-207.1 0c0 1.303 1.058 2.362 2.361 2.362 1.305 0 2.362-1.059 2.362-2.362 0-1.304-1.057-2.361-2.362-2.361-1.303 0-2.361 1.057-2.361 2.361" stroke-width=".945"/><path d="m0 0h-202.38" stroke-width="1.889"/></g><g transform="translate(186.25 502.4)"><path d="m0 0s8.588 1.028 17.167 2.056c-1.946-1.838-4.25-4.015-4.25-4.015s24.95 2.987 33.528 4.015c-1.947-1.838-4.25-4.015-4.25-4.015s24.95 2.987 33.526 4.015c-1.944-1.838-4.25-4.015-4.25-4.015s24.951 2.987 33.528 4.015c-1.946-1.838-4.25-4.015-4.25-4.015s24.952 2.987 33.529 4.015c-1.947-1.838-4.25-4.015-4.25-4.015s24.95 2.987 33.528 4.015c-1.946-1.838-4.25-4.015-4.25-4.015l42.065 5.037m-202.02 2.324 33.528 4.014-4.25-4.014 33.529 4.014-4.25-4.014 33.527 4.014-4.25-4.014 33.528 4.014-4.25-4.014 33.528 4.014-4.25-4.014 33.528 4.014-4.25-4.014 26.489 3.171m-201.51-79.407s8.588 1.028 17.167 2.055c-1.946-1.837-4.25-4.013-4.25-4.013s24.95 2.986 33.528 4.013c-1.947-1.837-4.25-4.013-4.25-4.013s24.95 2.986 33.526 4.013c-1.944-1.837-4.25-4.013-4.25-4.013s24.951 2.986 33.528 4.013c-1.946-1.837-4.25-4.013-4.25-4.013s24.952 2.986 33.529 4.013c-1.947-1.837-4.25-4.013-4.25-4.013s24.95 2.986 33.528 4.013c-1.946-1.837-4.25-4.013-4.25-4.013l42.065 5.035m-202.02 2.324 33.528 4.015-4.25-4.015 33.529 4.015-4.25-4.015 33.527 4.015-4.25-4.015 33.528 4.015-4.25-4.015 33.528 4.015-4.25-4.015 33.528 4.015-4.25-4.015 26.489 3.172m-201.51-82.239s8.588 1.028 17.167 2.055c-1.946-1.838-4.25-4.014-4.25-4.014s24.95 2.987 33.528 4.014c-1.947-1.838-4.25-4.014-4.25-4.014s24.95 2.987 33.526 4.014c-1.944-1.838-4.25-4.014-4.25-4.014s24.951 2.987 33.528 4.014c-1.946-1.838-4.25-4.014-4.25-4.014s24.952 2.987 33.529 4.014c-1.947-1.838-4.25-4.014-4.25-4.014s24.95 2.987 33.528 4.014c-1.946-1.838-4.25-4.014-4.25-4.014l42.065 5.036m-202.02 2.324 33.528 4.014-4.25-4.014 33.529 4.014-4.25-4.014 33.527 4.014-4.25-4.014 33.528 4.014-4.25-4.014 33.528 4.014-4.25-4.014 33.528 4.014-4.25-4.014 26.489 3.172m-201.51-87.907s8.588 1.028 17.167 2.055c-1.946-1.838-4.25-4.013-4.25-4.013s24.95 2.986 33.528 4.013c-1.947-1.838-4.25-4.013-4.25-4.013s24.95 2.986 33.526 4.013c-1.944-1.838-4.25-4.013-4.25-4.013s24.951 2.986 33.528 4.013c-1.946-1.838-4.25-4.013-4.25-4.013s24.952 2.986 33.529 4.013c-1.947-1.838-4.25-4.013-4.25-4.013s24.95 2.986 33.528 4.013c-1.946-1.838-4.25-4.013-4.25-4.013l42.065 5.035m-202.02 2.324 33.528 4.014-4.25-4.014 33.529 4.014-4.25-4.014 33.527 4.014-4.25-4.014 33.528 4.014-4.25-4.014 33.528 4.014-4.25-4.014 33.528 4.014-4.25-4.014 26.489 3.174m-201.51 366.42s8.588 1.028 17.167 2.054c-1.946-1.837-4.25-4.013-4.25-4.013s24.95 2.987 33.528 4.013c-1.947-1.837-4.25-4.013-4.25-4.013s24.95 2.987 33.526 4.013c-1.944-1.837-4.25-4.013-4.25-4.013s24.951 2.987 33.528 4.013c-1.946-1.837-4.25-4.013-4.25-4.013s24.952 2.987 33.529 4.013c-1.947-1.837-4.25-4.013-4.25-4.013s24.95 2.987 33.528 4.013c-1.946-1.837-4.25-4.013-4.25-4.013l42.065 5.036m-202.02 2.324 33.528 4.015-4.25-4.015 33.529 4.015-4.25-4.015 33.527 4.015-4.25-4.015 33.528 4.015-4.25-4.015 33.528 4.015-4.25-4.015 33.528 4.015-4.25-4.015 26.489 3.171" fill="none" stroke="#000" stroke-miterlimit="2.613" stroke-width=".945"/></g><g transform="translate(218.87 659.4)"><path d="m0 0v52.953m-120.37-90.101h99.966c11.221 0 20.4 9.18 20.4 20.4v11.395m-5.325-461.46 7.844-24.613v-69.297m-18.259 178.22v-51.633l7.635-23.955m-7.635 154.92v-69.89m0 143.87v-64.851m0 135.37v-61.703m-104.63 142.36h84.226c11.22 0 20.4-9.18 20.4-20.401v-51.126m151.36 152.06v50.434m136.46-90.101h-116.06c-11.221 0-20.4 9.18-20.4 20.4v10.138m5.271-460.37-7.79-24.443v-69.297m18.259 180.74v-54.151l-7.444-23.355m7.444 156.84v-73.668m0 147.33v-68m0 139.15v-65.482m120.72 143.3h-100.32c-11.22 0-20.4-9.18-20.4-20.401v-52.07" fill="none" stroke="#000" stroke-miterlimit="2.613" stroke-width="1.889"/></g><g transform="translate(395.29 383.94)"><path d="m0 0h13.853m-13.853-165.59h13.853m-6.927 50.348v111.31" fill="none" stroke="#000" stroke-miterlimit="2.613" stroke-width=".75"/></g><g transform="translate(401.68 381.25)"><path d="m0 0c-0.263-0.868-0.504-1.433-0.783-2.129h2.648c-0.118 0.249-0.521 1.261-0.783 2.129-0.28 0.929-0.473 1.772-0.541 2.317-0.068-0.545-0.261-1.388-0.541-2.317"/></g><g transform="translate(402.22 257.76)"><path d="m0 0v-35.484" fill="none" stroke="#000" stroke-miterlimit="2.613" stroke-width=".75"/></g><g transform="translate(402.75 221.04)"><path d="m0 0c0.263 0.868 0.504 1.433 0.783 2.129h-2.648c0.118-0.249 0.522-1.261 0.783-2.129 0.281-0.929 0.473-1.771 0.541-2.317 0.069 0.546 0.261 1.388 0.541 2.317"/></g><g transform="translate(166.36 327.54)"><path d="m0 0h-13.852m13.852 159.3h-13.852m6.926-91.921v-63.441" fill="none" stroke="#000" stroke-miterlimit="2.613" stroke-width=".75"/></g><g transform="translate(159.97 330.23)"><path d="m0 0c0.262 0.869 0.504 1.433 0.783 2.129h-2.648c0.118-0.249 0.521-1.26 0.783-2.129 0.281-0.928 0.473-1.771 0.541-2.317 0.068 0.546 0.261 1.389 0.541 2.317"/></g><g transform="translate(159.44 405.85)"><path d="m0 0v77.056" fill="none" stroke="#000" stroke-miterlimit="2.613" stroke-width=".75"/></g><g transform="translate(158.9 484.14)"><path d="m0 0c-0.262-0.868-0.504-1.433-0.783-2.129h2.648c-0.119 0.25-0.521 1.261-0.783 2.129-0.281 0.929-0.473 1.771-0.541 2.317-0.069-0.546-0.261-1.388-0.541-2.317"/></g><g transform="translate(310.02 345.27)"><path d="m0 0c-17 0-23.93 18.707-23.405 28.078" fill="none" stroke="#000" stroke-miterlimit="2.613" stroke-width=".75"/></g><g transform="translate(286.1 374.6)"><path d="m0 0c-0.278-0.864-0.53-1.423-0.821-2.115l2.647-0.048c-0.114 0.251-0.498 1.269-0.744 2.142-0.265 0.935-0.44 1.78-0.498 2.327-0.079-0.544-0.287-1.383-0.584-2.306"/></g><g transform="translate(262.92 421.17)"><path d="m0 0c17 0 24.166-20.77 23.861-28.372" fill="none" stroke="#000" stroke-miterlimit="2.613" stroke-width=".75"/></g><g transform="translate(287.29 391.54)"><path d="m0 0c0.287 0.86 0.543 1.417 0.841 2.105l-2.647 0.075c0.112-0.251 0.487-1.275 0.724-2.149 0.255-0.937 0.422-1.784 0.476-2.333 0.083 0.544 0.3 1.381 0.606 2.302"/></g><g transform="translate(178.74 264.31)"><path d="m0 0c104.83 0 107.82-36.478 107.82-36.478" fill="none" stroke="#000" stroke-miterlimit="2.613" stroke-width=".75"/></g><g transform="translate(287.14 226.61)"><path d="m0 0c0.231 0.877 0.453 1.45 0.708 2.156l-2.647-0.093c0.127-0.245 0.565-1.241 0.857-2.1 0.312-0.919 0.535-1.754 0.622-2.298 0.05 0.549 0.212 1.398 0.46 2.335"/></g></g><g clip-path="url(#i)"><g transform="translate(419.1 143.42)"><path d="m0 0c-84.942-61.44-115.72-54.132-115.63-36.013" fill="none" stroke="#000" stroke-miterlimit="2.613" stroke-width=".75"/></g></g><g clip-path="url(#h)"><g transform="translate(302.96 108.66)"><path d="m0 0c-0.282-0.861-0.536-1.42-0.831-2.109l2.648-0.062c-0.114 0.252-0.492 1.273-0.734 2.148-0.259 0.934-0.432 1.78-0.489 2.328-0.08-0.545-0.292-1.382-0.594-2.305"/></g><g transform="translate(441.39 287.92)"><path d="m0 0c-51.473 0-54.375 34.64-54.375 34.64" fill="none" stroke="#000" stroke-miterlimit="2.613" stroke-width=".75"/></g><g transform="translate(386.46 323.8)"><path d="m0 0c-0.255-0.87-0.492-1.437-0.766-2.135l2.648 0.02c-0.12 0.249-0.531 1.256-0.8 2.123-0.287 0.926-0.485 1.767-0.557 2.313-0.065-0.547-0.251-1.39-0.525-2.321"/></g><g transform="translate(140.37 353.09)"><path d="m0 0c41.627-0.85 44.428-12.608 44.43-21.992" fill="none" stroke="#000" stroke-miterlimit="2.613" stroke-width=".75"/></g><g transform="translate(185.34 329.86)"><path d="m0 0c0.261 0.87 0.502 1.434 0.78 2.13l-2.648-3e-3c0.119-0.249 0.522-1.26 0.785-2.127 0.282-0.928 0.475-1.771 0.544-2.317 0.069 0.547 0.259 1.389 0.539 2.317"/></g><g transform="translate(411.92 452.25)"><path d="m0 0c-20.778 0-24.578 9.66-24.831 20.16" fill="none" stroke="#000" stroke-miterlimit="2.613" stroke-width=".75"/></g><g transform="translate(386.52 473.64)"><path d="m0 0c-0.236-0.875-0.462-1.448-0.721-2.151l2.648 0.077c-0.125 0.246-0.558 1.245-0.845 2.104-0.308 0.921-0.525 1.758-0.609 2.302-0.053-0.548-0.22-1.396-0.473-2.332"/></g><g transform="translate(158.81 510.13)"><path d="m0 0c20.778 0 25.777-10.355 25.881-19.738" fill="none" stroke="#000" stroke-miterlimit="2.613" stroke-width=".75"/></g><g transform="translate(185.27 489.17)"><path d="m0 0c0.237 0.875 0.462 1.446 0.72 2.15l-2.647-0.078c0.126-0.246 0.558-1.245 0.846-2.106 0.308-0.919 0.525-1.756 0.61-2.299 0.052 0.548 0.219 1.396 0.471 2.333"/></g><g transform="translate(403.52 529.54)"><path d="m0 0c-97.75-25.336-117.28-11.628-116.83-5.437" fill="none" stroke="#000" stroke-miterlimit="2.613" stroke-width=".75"/></g><g transform="translate(286.15 525.34)"><path d="m0 0c-0.26-0.868-0.5-1.433-0.777-2.13l2.648 7e-3c-0.119 0.249-0.525 1.259-0.789 2.126-0.283 0.929-0.478 1.77-0.548 2.316-0.067-0.546-0.257-1.389-0.534-2.319"/></g><g transform="translate(171.81 684.9)"><path d="m0 0c85.63 35.26 96.032 2.164 96.418-2.834" fill="none" stroke="#000" stroke-miterlimit="2.613" stroke-width=".75"/></g><g transform="translate(268.79 680.84)"><path d="m0 0c0.247 0.872 0.477 1.441 0.745 2.143l-2.648-0.048c0.123-0.247 0.544-1.251 0.822-2.116 0.297-0.922 0.504-1.76 0.582-2.306 0.058 0.548 0.236 1.393 0.499 2.327"/></g><g transform="translate(286.68 579)"><path d="m0 0v-35.448" fill="none" stroke="#000" stroke-miterlimit="2.613" stroke-width=".75"/></g><g transform="translate(287.22 542.31)"><path d="m0 0c0.263 0.868 0.504 1.432 0.783 2.128h-2.648c0.118-0.249 0.52-1.26 0.783-2.128 0.28-0.929 0.473-1.771 0.541-2.318 0.068 0.547 0.261 1.389 0.541 2.318"/></g><g transform="translate(290.32 661.02)"><path d="m0 0-1.031 6.595v37.437m-7.659-50.62-4.203-29.182c2.481-1.852 5.739-2.987 9.322-2.987 3.511 0 6.712 1.088 9.174 2.874l-4.214 26.986m-8.18 52.929v-37.437l-1.055-7.328" fill="none" stroke="#000" stroke-miterlimit="2.613" stroke-width=".945"/></g><g transform="translate(311.19 179.86)"><path d="m0 0c-17 0-24.205 21.567-24.457 28.524" fill="none" stroke="#000" stroke-miterlimit="2.613" stroke-width=".75"/></g><g transform="translate(286.17 209.62)"><path d="m0 0c-0.251-0.871-0.484-1.439-0.755-2.138l2.65 0.037c-0.122 0.246-0.539 1.252-0.813 2.116-0.293 0.926-0.497 1.764-0.573 2.309-0.062-0.545-0.241-1.39-0.509-2.324"/></g></g><text transform="matrix(1 0 0 -1 126.88 241.96)" fill="#000000" font-family="Helvetica" font-size="9px"><tspan x="0 6.4980001 11.502 14.499 19.503 24.507" y="0">R3-9g </tspan></text><g clip-path="url(#g)"><g transform="translate(174.42 250.96)"><path d="m0 0h-67.998c-1.102 0-2 0.898-2 2v20.002c0 1.102 0.898 2 2 2h67.998c1.101 0 2-0.898 2-2v-20.002c0-1.102-0.899-2-2-2" fill="#fff"/><path d="m0 0h-67.998c-1.102 0-2 0.898-2 2v20.002c0 1.102 0.898 2 2 2h67.998c1.101 0 2-0.898 2-2v-20.002c0-1.102-0.899-2-2-2z" fill="none" stroke="#000" stroke-width=".25"/></g><g transform="translate(174.38 251.46)"><path d="m0 0h-67.91c-1.781 0-1.582 1.848-1.582 3.1v17.025c0 1.258-0.096 2.877 1.617 2.877h61.308c2.17 0 4.488 0.234 6.65-2e-3 2.1-0.228 1.423-3.336 1.423-4.703v-15.42c0-1.135 0.129-2.879-1.506-2.877" fill-rule="evenodd"/></g><g transform="translate(174.4 252.29)"><path d="m0 0h-67.889c-0.532 0-0.761 0.352-0.761 0.848v19.093c0 0.286-0.074 0.711 0.052 0.985 0.22 0.474 0.709 0.41 1.143 0.41h66.589c0.398 0 1.038 0.117 1.353-0.197 0.196-0.196 0.197-0.438 0.197-0.694v-19.129c0-0.519 0.069-1.324-0.684-1.316" fill="#fff" fill-rule="evenodd"/></g><g transform="translate(168.68 261.33)"><path d="m0 0v-5.359h-2.377v0.695h1.562v1.373h-1.042v0.715h1.042v1.879h-1.653v0.697z"/></g><g transform="translate(163.11 261.33)"><path d="m0 0 1.269-3.178v3.178h0.815v-5.359h-0.815l-1.155 2.67v-2.67h-0.815v5.359z"/></g><g transform="translate(159.12 257.43)"><path d="m0 0c0.068-0.584 0.203-0.772 0.543-0.772h0.521v3.967h-0.521c-0.294 0-0.453-0.168-0.543-0.563-0.024-0.189-0.068-0.791-0.068-1.259 0-0.395 0.044-0.998 0.068-1.373m-0.317 3.628c0.18 0.168 0.498 0.264 0.86 0.264h1.336v-5.359h-1.336c-0.453 0-0.77 0.131-0.974 0.394-0.158 0.207-0.294 0.565-0.339 0.903-0.091 0.433-0.136 0.922-0.136 1.373 0 1.259 0.204 2.068 0.589 2.425"/></g><g transform="translate(152.58 256.66)"><path d="m0 0h0.407v1.467h-0.543c-0.453 0-0.589-0.17-0.589-0.678 0-0.601 0.159-0.789 0.725-0.789m-0.884 1.994-0.656 2.67h0.838l0.724-2.502h0.385v2.502h0.816v-5.359h-1.269c-0.996 0-1.517 0.508-1.517 1.504 0 0.601 0.205 0.941 0.679 1.185"/></g><g transform="translate(150 261.33)"><path d="m0 0v-5.359h-2.379v0.695h1.563v1.373h-1.041v0.715h1.041v1.879h-1.653v0.697z"/></g><g transform="translate(145.15 261.33)"><path d="m0 0h0.701l1.156-5.359h-0.838l-0.679 3.047-0.657-3.047h-0.838z"/></g><g transform="translate(143.09 261.33)"><path d="m0 0v-5.359h-2.378v0.695h1.562v1.373h-1.041v0.715h1.041v1.879h-1.653v0.697z"/></g><g transform="translate(138.38 256.66)"><path d="m0 0h0.407v1.467h-0.543c-0.453 0-0.589-0.17-0.589-0.678 0-0.601 0.16-0.789 0.725-0.789m-0.884 1.994-0.656 2.67h0.838l0.725-2.502h0.384v2.502h0.816v-5.359h-1.269c-0.996 0-1.517 0.508-1.517 1.504 0 0.601 0.205 0.941 0.679 1.185"/></g><g transform="translate(133.92 261.18)"><path d="m0 0c0.204 0.15 0.498 0.244 0.838 0.244 0.906 0 1.382-0.49 1.427-1.43h-0.838c0 0.207-0.023 0.283-0.069 0.395-0.067 0.207-0.271 0.34-0.52 0.34-0.318 0-0.521-0.207-0.521-0.547 0-0.469 0.203-0.864 0.703-1.354 0.293-0.281 0.498-0.488 0.565-0.564 0.362-0.358 0.521-0.733 0.521-1.11 0-0.732-0.543-1.259-1.313-1.259-0.793 0-1.223 0.414-1.313 1.259h0.837c0.023-0.412 0.159-0.582 0.454-0.582 0.316 0 0.497 0.227 0.497 0.582 0 0.246-0.113 0.434-0.453 0.735-0.702 0.658-0.815 0.789-1.019 1.129-0.181 0.338-0.316 0.789-0.316 1.164 0 0.377 0.203 0.771 0.52 0.998"/></g><g transform="translate(132.38 261.33)"><path d="m0 0v-5.359h-2.378v0.695h1.563v1.373h-1.042v0.715h1.042v1.879h-1.654v0.697z"/></g><g transform="translate(125.68 261.33)"><path d="m0 0v-5.359h-0.815v4.738h-1.654v0.621z"/></g><g transform="translate(121.06 257.79)"><path d="m0 0 0.362 1.41h-0.702zm-0.884 3.535 0.362-1.43h1.065l0.362 1.43h0.838l-1.313-5.359h-0.838l-1.336 5.359z"/></g><g transform="translate(116.35 261.33)"><path d="m0 0 1.268-3.178v3.178h0.815v-5.359h-0.815l-1.155 2.67v-2.67h-0.815v5.359z"/></g><g transform="translate(114.24 261.33)"><path d="m0 0v-5.359h-2.377v0.695h1.563v1.373h-1.042v0.715h1.042v1.879h-1.654v0.697z"/></g><g transform="translate(152.3 265.94)"><path d="m0 0 1.223 2.086h-1.223zm-0.816 2.727v1.334h0.816v-1.334h2.038v-0.715l-1.971-3.308h-0.883v3.382h-0.339v0.641z"/></g><g transform="translate(148.58 265.24)"><path d="m0 0c0.748 0.018 0.68 1.692 0.68 2.068 0 0.375 0.068 2.067-0.68 2.067-0.725 0-0.634-1.672-0.634-2.067 0-0.376-0.113-2.05 0.634-2.068m0 4.832c1.607 0 1.518-1.861 1.518-2.764 0-0.941-0.024-2.763-1.518-2.763-1.585 0-1.494 1.822-1.494 2.763 0.022 0.903-0.091 2.764 1.494 2.764"/></g><g transform="translate(144.57 265.24)"><path d="m0 0c0.748 0.018 0.68 1.692 0.68 2.068 0 0.375 0.068 2.067-0.68 2.067-0.725 0-0.634-1.672-0.634-2.067 0-0.376-0.112-2.05 0.634-2.068m0 4.832c1.608 0 1.518-1.861 1.518-2.764 0-0.941-0.023-2.763-1.518-2.763-1.584 0-1.494 1.822-1.494 2.763 0.023 0.903-0.09 2.764 1.494 2.764"/></g><g transform="translate(137.87 265.34)"><path d="m0 0v1.373h-0.951v0.713h0.951v2.576h0.815v-5.357h-2.468v0.695z"/></g><g transform="translate(135.31 270)"><path d="m0 0v-5.357h-2.378v0.695h1.563v1.373h-1.042v0.713h1.042v1.881h-1.654v0.695z"/></g><g transform="translate(131.83 270)"><path d="m0 0v-5.357h-2.378v0.695h1.563v1.373h-1.042v0.713h1.042v1.881h-1.654v0.695z"/></g><g transform="translate(127.23 265.34)"><path d="m0 0v4.662h0.816v-4.662h0.791v-0.695h-2.445v0.695z"/></g><g transform="translate(400.96 170.46)"><path d="m0 0h67.922c2.277 0 2.077-2.258 2.077-3.83v-17.006c0-1.529-0.212-3.164-2.196-3.164h-66.371c-0.965 0-2.098-0.16-2.845 0.586-0.957 0.957-0.587 3.098-0.587 4.316v15.018c0 1.549-0.306 4.08 2 4.08" fill="#fff" stroke="#000" stroke-width=".25"/></g><g transform="translate(401.01 169.96)"><path d="m0 0h67.91c1.783 0 1.583-1.848 1.583-3.1v-17.023c0-1.258 0.096-2.877-1.617-2.877h-61.309c-2.17 0-4.488-0.234-6.65 2e-3 -2.1 0.228-1.423 3.336-1.423 4.701v15.42c0 1.135-0.129 2.879 1.506 2.877" fill-rule="evenodd"/></g><g transform="translate(400.98 169.12)"><path d="m0 0h67.89c0.531 0 0.76-0.352 0.76-0.848v-19.091c0-0.286 0.074-0.711-0.052-0.985-0.22-0.474-0.708-0.41-1.143-0.41h-66.59c-0.397 0-1.037-0.117-1.352 0.197-0.196 0.196-0.197 0.438-0.197 0.694v19.127c0 0.519-0.069 1.324 0.684 1.316" fill="#fff" fill-rule="evenodd"/></g><g transform="translate(405.79 161.55)"><path d="m0 0c0-0.547-0.112-0.717-0.496-0.717h-0.633v1.791h0.61c0.407 0 0.519-0.227 0.519-1.074m0.836 0.056c0 0.34-0.045 0.698-0.134 0.905-0.046 0.207-0.114 0.283-0.294 0.472 0.225 0.282 0.315 0.565 0.315 1.094 0 1.074-0.361 1.432-1.49 1.432h-1.175v-5.373h1.536c0.814 0 1.242 0.509 1.242 1.47m-0.948 2.471c0-0.566-0.091-0.736-0.452-0.736h-0.565v1.47h0.475c0.406 0 0.542-0.207 0.542-0.734"/></g><g transform="translate(407.64 160.14)"><path d="m0 0v5.373h2.372v-0.698h-1.559v-1.376h1.039v-0.717h-1.039v-1.885h1.649v-0.697z"/></g><g transform="translate(413.61 160.66)"><path d="m0 0c-0.137-0.377-0.566-0.621-1.153-0.621-0.655 0-1.039 0.207-1.242 0.715-0.203 0.49-0.271 0.98-0.271 2.074 0 1.076 0.068 1.547 0.293 2.057 0.204 0.49 0.588 0.697 1.22 0.697 0.723 0 1.153-0.377 1.243-1.037h-0.814c-0.045 0.226-0.18 0.34-0.406 0.34-0.294 0-0.497-0.17-0.566-0.53-0.089-0.433-0.134-0.791-0.134-1.527 0-0.734 0.045-1.094 0.113-1.545 0.09-0.359 0.248-0.547 0.541-0.547 0.294 0 0.452 0.227 0.452 0.584v0.717h-0.384v0.697h1.198v-1.377c0-0.244-0.045-0.527-0.09-0.697"/></g><path d="m414.92 165.51h0.814v-5.373h-0.814z"/><g transform="translate(419.23 160.14)"><path d="m0 0-1.264 3.185v-3.185h-0.814v5.373h0.814l1.152-2.678v2.678h0.813v-5.373z"/></g><g transform="translate(427.32 164)"><path d="m0 0c0 1-0.52 1.508-1.514 1.508h-1.266v-5.373h0.814v2.508h0.384l0.722-2.508h0.836l-0.654 2.677c0.474 0.245 0.678 0.584 0.678 1.188m-0.836 0.019c0-0.509-0.137-0.679-0.588-0.679h-0.542v1.47h0.407c0.565 0 0.723-0.189 0.723-0.791"/></g><g transform="translate(428.33 160.14)"><path d="m0 0v5.373h2.372v-0.698h-1.558v-1.376h1.039v-0.717h-1.039v-1.885h1.649v-0.697z"/></g><g transform="translate(433.17 160.14)"><path d="m0 0h-0.7l-1.152 5.373h0.836l0.677-3.055 0.656 3.055h0.836z"/></g><g transform="translate(435.22 160.14)"><path d="m0 0v5.373h2.372v-0.698h-1.558v-1.376h1.039v-0.717h-1.039v-1.885h1.649v-0.697z"/></g><g transform="translate(441.48 164)"><path d="m0 0c0 1-0.52 1.508-1.514 1.508h-1.264v-5.373h0.813v2.508h0.384l0.722-2.508h0.836l-0.655 2.677c0.475 0.245 0.678 0.584 0.678 1.188m-0.836 0.019c0-0.509-0.135-0.679-0.587-0.679h-0.542v1.47h0.406c0.565 0 0.723-0.189 0.723-0.791"/></g><g transform="translate(444.37 160.29)"><path d="m0 0c-0.203-0.15-0.497-0.244-0.835-0.244-0.904 0-1.378 0.49-1.423 1.432h0.836c0-0.207 0.022-0.284 0.067-0.395 0.067-0.209 0.271-0.34 0.52-0.34 0.316 0 0.519 0.207 0.519 0.547 0 0.471-0.203 0.867-0.7 1.358-0.294 0.283-0.497 0.49-0.565 0.564-0.361 0.359-0.519 0.736-0.519 1.113 0 0.737 0.542 1.264 1.309 1.264 0.791 0 1.22-0.416 1.311-1.264h-0.836c-0.022 0.414-0.158 0.584-0.452 0.584-0.316 0-0.496-0.226-0.496-0.584 0-0.244 0.112-0.433 0.451-0.734 0.7-0.66 0.813-0.793 1.017-1.133 0.18-0.338 0.316-0.791 0.316-1.168s-0.203-0.773-0.52-1"/></g><g transform="translate(445.91 160.14)"><path d="m0 0v5.373h2.372v-0.698h-1.559v-1.376h1.039v-0.717h-1.039v-1.885h1.65v-0.697z"/></g><g transform="translate(452.59 160.14)"><path d="m0 0v5.373h0.813v-4.752h1.649v-0.621z"/></g><g transform="translate(457.2 163.68)"><path d="m0 0-0.362-1.414h0.7zm0.88-3.545-0.361 1.433h-1.061l-0.362-1.433h-0.836l1.311 5.373h0.835l1.333-5.373z"/></g><g transform="translate(461.9 160.14)"><path d="m0 0-1.265 3.185v-3.185h-0.813v5.373h0.813l1.152-2.678v2.678h0.813v-5.373z"/></g><g transform="translate(464 160.14)"><path d="m0 0v5.373h2.372v-0.698h-1.558v-1.376h1.039v-0.717h-1.039v-1.885h1.648v-0.697z"/></g><g transform="translate(424.27 152.77)"><path d="m0 0v0.641h-0.338v3.395h-0.881l-1.965-3.319v-0.717h2.033v-1.339h0.813v1.339zm-1.151 0.641h-1.22l1.22 2.094z"/></g><g transform="translate(428.31 154.13)"><path d="m0 0c0 0.943 0.091 2.771-1.491 2.771-1.491 0-1.514-1.828-1.514-2.771 0-0.906-0.09-2.772 1.514-2.772 1.582 0 1.468 1.866 1.491 2.772m-0.858 0c0-0.397 0.089-2.074-0.633-2.074-0.745 0-0.678 1.697-0.678 2.074s-0.067 2.054 0.678 2.074c0.746-0.02 0.633-1.697 0.633-2.074"/></g><g transform="translate(432.31 154.13)"><path d="m0 0c0 0.943 0.091 2.771-1.49 2.771-1.49 0-1.514-1.828-1.514-2.771 0-0.906-0.09-2.772 1.514-2.772 1.581 0 1.468 1.866 1.49 2.772m-0.857 0c0-0.397 0.089-2.074-0.633-2.074-0.746 0-0.678 1.697-0.678 2.074s-0.068 2.054 0.678 2.074c0.746-0.02 0.633-1.697 0.633-2.074"/></g><g transform="translate(437.5 156.11)"><path d="m0 0v-1.377h0.95v-0.716h-0.95v-2.584h-0.812v5.375h2.461v-0.698z"/></g><g transform="translate(440.06 151.44)"><path d="m0 0v5.375h2.371v-0.698h-1.558v-1.377h1.039v-0.716h-1.039v-1.885h1.649v-0.699z"/></g><g transform="translate(443.53 151.44)"><path d="m0 0v5.375h2.372v-0.698h-1.559v-1.377h1.039v-0.716h-1.039v-1.885h1.649v-0.699z"/></g><g transform="translate(448.12 156.11)"><path d="m0 0v-4.677h-0.813v4.677h-0.791v0.698h2.44v-0.698z"/></g></g><text transform="matrix(1 0 0 -1 422.67 137.46)" fill="#000000" font-family="Helvetica" font-size="9px"><tspan x="0 6.4980001 11.502 14.499 19.503" y="0">R3-9h</tspan></text><g clip-path="url(#f)"><g transform="translate(446.54 314.4)"><path d="m0 0h31.5c1.24 0 2.25-1.009 2.25-2.25v-49.5c0-1.238-1.01-2.25-2.25-2.25h-31.5c-1.239 0-2.25 1.012-2.25 2.25v49.5c0 1.241 1.011 2.25 2.25 2.25" fill="#fff"/><path d="m0 0h31.5c1.24 0 2.25-1.009 2.25-2.25v-49.5c0-1.238-1.01-2.25-2.25-2.25h-31.5c-1.239 0-2.25 1.012-2.25 2.25v49.5c0 1.241 1.011 2.25 2.25 2.25z" fill="none" stroke="#000" stroke-width=".25"/></g><g transform="translate(446.55 313.84)"><path d="m0 0h29.467c0.905 0 2.291 0.244 3.065-0.361 0.754-0.588 0.648-1.497 0.648-2.34v-46.881c0-0.725 0.158-1.742-0.203-2.408-0.565-1.037-1.718-0.885-2.711-0.885h-30.147c-1.043 0-1.814 0.736-1.814 1.789v49.24c0 0.981 0.653 1.842 1.695 1.846" fill-rule="evenodd"/></g><g transform="translate(478.79 296.4)"><path d="m0 0v-33.716c0-0.686-0.592-0.784-1.133-0.784h-30.394c-0.561 0-1.331-0.099-1.464 0.637-0.049 0.272-9e-3 0.58-9e-3 0.854v32.933c0 0.123 2.546 0.059 2.759 0.059 2.635 2e-3 5.271 2e-3 7.906 4e-3 6.125 4e-3 12.25 8e-3 18.376 0.011 1.32 0 2.639 2e-3 3.959 2e-3" fill="#fff" fill-rule="evenodd"/></g><g transform="translate(474.01 309.44)"><path d="m0 0c0-0.332-0.252-0.552-0.646-0.552h-1.279v1.121h1.279c0.394 0 0.646-0.221 0.646-0.569m0.899-3.125-0.82 1.926c0.458 0.252 0.726 0.693 0.726 1.199 0 0.504-0.268 0.948-0.695 1.184-0.236 0.143-0.441 0.189-0.773 0.189h-2.066v-4.498h0.804v1.768h1.199l0.726-1.768zm-4.529 0v0.805h-2.54v1.231h1.341v0.822h-1.341v0.836h2.462v0.804h-3.283v-4.498zm-4.118 3.709v0.789h-3.377v-0.789h1.294v-3.709h0.789v3.709zm-4.135-3.709v4.498h-0.773v-2.966l-2.068 2.966h-0.789v-4.498h0.789v3.094l2.147-3.094zm-4.529 0v0.805h-2.541v1.231h1.342v0.822h-1.342v0.836h2.462v0.804h-3.282v-4.498zm-4.388 0.916-0.71 0.379c-0.394-0.427-0.615-0.568-1.025-0.568-0.679 0-1.089 0.568-1.089 1.547 0 0.693 0.269 1.498 1.089 1.498 0.236 0 0.536-0.094 0.71-0.236 0.126-0.079 0.189-0.143 0.315-0.333l0.71 0.379c-0.346 0.631-1.009 0.995-1.735 0.995-1.184 0-1.909-0.899-1.909-2.321 0-1.404 0.725-2.338 1.909-2.338 0.726 0 1.404 0.368 1.735 0.998" fill="#fff" fill-rule="evenodd"/></g><g transform="translate(470.88 299.37)"><path d="m0 0v0.805h-2.541v1.23h1.342v0.821h-1.342v0.837h2.462v0.805h-3.282v-4.498zm-4.529 0v4.498h-0.772v-2.967l-2.068 2.967h-0.79v-4.498h0.79v3.094l2.146-3.094zm-6.044 1.861h-1.263l0.632 1.516zm1.657-1.861-1.878 4.498h-0.821l-1.894-4.498h0.884l0.443 1.057h1.956l0.442-1.057zm-4.939 0v0.693h-2.557v3.805h-0.805v-4.498z" fill="#fff" fill-rule="evenodd"/></g><path d="m473.61 268.65h-0.726v-4.498h0.726zm-2.273-1.261c0-0.19-0.11-0.379-0.284-0.475-0.11-0.062-0.189-0.078-0.41-0.078h-0.853v1.103h0.853c0.236 0 0.3-0.015 0.41-0.078 0.174-0.093 0.284-0.283 0.284-0.472m0.805-3.237-0.789 2.1c0.41 0.189 0.694 0.662 0.694 1.137 0 0.457-0.284 0.929-0.678 1.119-0.221 0.111-0.457 0.142-0.805 0.142h-1.483v-4.498h0.709v1.957h0.853l0.726-1.957zm-3.725 3.787v0.711h-2.793v-4.498h0.71v1.957h1.311v0.727h-1.311v1.103zm-3.455-1.214h-1.578v-0.709h1.578zm-2.241-2.573v4.498h-0.711v-2.871l-1.64 2.871h-0.71v-4.498h0.71v3.047l1.719-3.047zm-4.75 2.243c0-0.348-0.079-0.79-0.174-1.026-0.158-0.394-0.363-0.568-0.694-0.568-0.284 0-0.474 0.109-0.615 0.345-0.174 0.286-0.269 0.774-0.269 1.249 0 0.378 0.063 0.789 0.174 1.056 0.157 0.395 0.378 0.569 0.726 0.553 0.268-0.016 0.441-0.111 0.584-0.348 0.173-0.299 0.268-0.758 0.268-1.261m0.71 0c0 0.568-0.11 1.134-0.3 1.529-0.284 0.553-0.678 0.805-1.247 0.805-0.52 0-0.884-0.157-1.152-0.504-0.3-0.426-0.488-1.09-0.488-1.83 0-0.538 0.126-1.137 0.315-1.516 0.268-0.553 0.662-0.807 1.294-0.807 0.474 0 0.836 0.16 1.089 0.507 0.315 0.396 0.489 1.105 0.489 1.816m-4.166-2.243v4.498h-0.711l-1.041-2.525-1.042 2.525h-0.71v-4.498h0.71v2.606l1.042-2.606 1.041 2.606v-2.606z" fill-rule="evenodd"/><g transform="translate(456.9 290.95)"><path d="m0 0c0-0.463-0.105-1.053-0.232-1.369-0.21-0.525-0.483-0.756-0.926-0.756-0.378 0-0.63 0.147-0.82 0.463-0.231 0.377-0.357 1.029-0.357 1.662 0 0.504 0.084 1.051 0.231 1.408 0.21 0.528 0.505 0.758 0.968 0.737 0.357-0.02 0.589-0.147 0.778-0.463 0.232-0.399 0.358-1.01 0.358-1.682m0.947 0c0 0.756-0.147 1.514-0.4 2.041-0.378 0.736-0.905 1.072-1.663 1.072-0.694 0-1.177-0.211-1.535-0.673-0.4-0.569-0.652-1.452-0.652-2.44 0-0.717 0.168-1.516 0.421-2.021 0.357-0.737 0.884-1.077 1.724-1.077 0.632 0 1.116 0.215 1.453 0.678 0.421 0.526 0.652 1.473 0.652 2.42m-6.396 0.02c0-0.799-0.19-1.452-0.547-1.809-0.168-0.168-0.358-0.232-0.673-0.232h-0.947v4.082h1.073c0.253 0 0.463-0.106 0.61-0.252 0.294-0.317 0.484-0.989 0.484-1.789m0.967 0c0 1.179-0.357 2.125-0.988 2.673-0.315 0.252-0.547 0.315-1.157 0.315h-1.936v-5.996h2.167c0.316 0.021 0.631 0.127 0.863 0.336 0.673 0.527 1.051 1.472 1.051 2.672" fill-rule="evenodd"/></g><g transform="translate(469.23 279.53)"><path d="m0 0v0.967h-2.777v1.643h1.746v0.966h-1.746v1.473h2.588v0.947h-3.535v-5.996zm-4.713 1.725c0 2.357-2.819 1.621-2.903 2.736-0.042 0.547 0.483 0.715 0.926 0.694 0.672-0.022 0.883-0.526 0.883-0.526l0.842 0.252c-0.295 0.736-0.863 1.221-1.705 1.221-1.072 0-1.872-0.442-1.872-1.621 0-0.989 0.8-1.346 1.157-1.492 0.779-0.317 1.704-0.444 1.704-1.243 0-0.505-0.379-0.882-0.925-0.882-0.569 0-1.032 0.314-1.284 0.882l-0.905-0.336c0.4-0.906 1.157-1.519 2.189-1.519 0.504 0 0.967 0.172 1.304 0.467 0.379 0.336 0.589 0.82 0.589 1.367m-5.07 0.422v3.849h-0.948v-3.849c0-0.78-0.441-1.283-1.093-1.283-0.653 0-1.094 0.503-1.094 1.283v3.849h-0.947v-3.849c0-0.463 0.105-0.885 0.273-1.242 0.316-0.59 1.031-1.014 1.768-1.014 0.736 0 1.451 0.424 1.767 1.014 0.168 0.357 0.274 0.779 0.274 1.242" fill-rule="evenodd"/></g><g transform="translate(459.93 275.36)"><path d="m0 0c0-0.484-0.484-0.863-1.095-0.863-0.589 0-1.073 0.379-1.073 0.863 0 0.483 0.484 0.862 1.073 0.862s1.095-0.399 1.095-0.862m0.946-0.084c0 1.094-0.883 1.914-2.041 1.914-1.135 0-2.041-0.798-2.041-1.83 0-1.009 0.926-1.832 2.041-1.832 0.232 0 0.379 0.022 0.716 0.086-0.358-0.779-0.736-1.263-1.452-1.832l0.463-0.803c1.389 0.952 2.314 2.655 2.314 4.297m-4.839-0.758h-2.104v-0.947h2.104zm-2.713 1.62v0.947h-4.061v-0.947h2.861c-0.211-0.336-0.463-0.778-0.673-1.241-0.589-1.263-0.842-2.42-0.863-3.808h0.968c0 0.588 0.042 0.967 0.126 1.472 0.189 0.967 0.589 1.979 1.115 2.862 0.19 0.316 0.316 0.441 0.527 0.715" fill-rule="evenodd"/></g><g transform="translate(476.25 293.12)"><path d="m0 0v0.842h-3.703v-0.842h1.368v-5.154h0.947v5.154zm-5.428-2.166c0-0.463-0.106-1.053-0.232-1.369-0.21-0.525-0.483-0.756-0.925-0.756-0.379 0-0.631 0.147-0.821 0.463-0.231 0.377-0.357 1.029-0.357 1.662 0 0.504 0.084 1.051 0.231 1.408 0.21 0.528 0.505 0.758 0.968 0.737 0.357-0.02 0.589-0.147 0.778-0.463 0.232-0.399 0.358-1.01 0.358-1.682m0.947 0c0 0.756-0.147 1.514-0.4 2.041-0.378 0.736-0.905 1.072-1.662 1.072-0.695 0-1.178-0.211-1.536-0.673-0.4-0.569-0.652-1.452-0.652-2.44 0-0.717 0.168-1.516 0.421-2.021 0.357-0.737 0.883-1.077 1.725-1.077 0.631 0 1.115 0.215 1.452 0.678 0.421 0.526 0.652 1.473 0.652 2.42m-5.534-2.988v5.996h-0.946v-3.83l-2.189 3.83h-0.946v-5.996h0.946v4.06l2.294-4.06z" fill-rule="evenodd"/></g><g transform="translate(475.34 271.09)"><path d="m0 0v5.996h-0.947l-1.389-3.367-1.388 3.367h-0.947v-5.996h0.947v3.47l1.388-3.47 1.389 3.47v-3.47zm-7.511 2.65h-1.2l0.611 1.684zm1.935-2.65-2.061 5.996h-0.947l-2.062-5.996h1.01l0.589 1.683h1.872l0.589-1.683z" fill-rule="evenodd"/></g></g><text transform="matrix(1 0 0 -1 451.29 251.4)" fill="#000000" font-family="Helvetica" font-size="9px"><tspan x="0 6.4980001 11.502 14.499 19.503" y="0">R3-9f</tspan></text><g clip-path="url(#e)"><g transform="translate(417.68 482.23)"><path d="m0 0h31.5c1.239 0 2.25-1.01 2.25-2.25v-49.5c0-1.239-1.011-2.25-2.25-2.25h-31.5c-1.239 0-2.25 1.011-2.25 2.25v49.5c0 1.24 1.011 2.25 2.25 2.25" fill="#fff"/><path d="m0 0h31.5c1.239 0 2.25-1.01 2.25-2.25v-49.5c0-1.239-1.011-2.25-2.25-2.25h-31.5c-1.239 0-2.25 1.011-2.25 2.25v49.5c0 1.24 1.011 2.25 2.25 2.25z" fill="none" stroke="#000" stroke-width=".25"/></g><g transform="translate(417.69 481.66)"><path d="m0 0h29.467c0.905 0 2.291 0.244 3.065-0.361 0.754-0.588 0.648-1.496 0.648-2.34v-46.881c0-0.725 0.158-1.742-0.204-2.407-0.564-1.037-1.717-0.886-2.71-0.886h-30.147c-1.043 0-1.814 0.737-1.814 1.79v49.239c0 0.981 0.653 1.842 1.695 1.846" fill-rule="evenodd"/></g><g transform="translate(449.93 464.23)"><path d="m0 0v-33.717c0-0.686-0.593-0.783-1.134-0.783h-30.393c-0.561 0-1.331-0.1-1.464 0.636-0.049 0.272-9e-3 0.58-9e-3 0.854v32.933c0 0.123 2.546 0.059 2.759 0.059 2.635 2e-3 5.27 3e-3 7.906 4e-3 6.125 4e-3 12.25 8e-3 18.376 0.012 1.319 0 2.639 2e-3 3.959 2e-3" fill="#fff" fill-rule="evenodd"/></g><g transform="translate(445.15 477.27)"><path d="m0 0c0-0.333-0.252-0.553-0.647-0.553h-1.278v1.121h1.278c0.395 0 0.647-0.221 0.647-0.568m0.899-3.125-0.82 1.925c0.458 0.252 0.726 0.694 0.726 1.2 0 0.504-0.268 0.947-0.695 1.183-0.236 0.143-0.441 0.19-0.773 0.19h-2.067v-4.498h0.805v1.767h1.199l0.726-1.767zm-4.529 0v0.804h-2.54v1.232h1.341v0.821h-1.341v0.836h2.462v0.805h-3.283v-4.498zm-4.118 3.709v0.789h-3.377v-0.789h1.294v-3.709h0.789v3.709zm-4.135-3.709v4.498h-0.773v-2.967l-2.068 2.967h-0.789v-4.498h0.789v3.093l2.147-3.093zm-4.529 0v0.804h-2.541v1.232h1.342v0.821h-1.342v0.836h2.462v0.805h-3.283v-4.498zm-4.388 0.916-0.71 0.378c-0.394-0.426-0.615-0.568-1.025-0.568-0.679 0-1.089 0.568-1.089 1.547 0 0.693 0.268 1.498 1.089 1.498 0.236 0 0.536-0.094 0.71-0.236 0.126-0.078 0.189-0.143 0.315-0.332l0.71 0.379c-0.347 0.631-1.01 0.994-1.735 0.994-1.184 0-1.909-0.899-1.909-2.32 0-1.404 0.725-2.338 1.909-2.338 0.725 0 1.404 0.367 1.735 0.998" fill="#fff" fill-rule="evenodd"/></g><g transform="translate(442.01 467.2)"><path d="m0 0v0.805h-2.541v1.23h1.342v0.822h-1.342v0.837h2.462v0.804h-3.282v-4.498zm-4.529 0v4.498h-0.773v-2.967l-2.067 2.967h-0.79v-4.498h0.79v3.094l2.145-3.094zm-6.044 1.863h-1.263l0.632 1.514zm1.657-1.863-1.878 4.498h-0.821l-1.894-4.498h0.884l0.442 1.057h1.956l0.443-1.057zm-4.939 0v0.695h-2.557v3.803h-0.805v-4.498z" fill="#fff" fill-rule="evenodd"/></g><path d="m444.74 436.48h-0.726v-4.498h0.726zm-2.273-1.262c0-0.19-0.11-0.379-0.284-0.474-0.11-0.063-0.19-0.079-0.41-0.079h-0.853v1.105h0.853c0.236 0 0.3-0.016 0.41-0.08 0.174-0.093 0.284-0.283 0.284-0.472m0.805-3.236-0.789 2.099c0.41 0.19 0.694 0.663 0.694 1.137 0 0.457-0.284 0.931-0.679 1.12-0.22 0.11-0.457 0.142-0.804 0.142h-1.484v-4.498h0.71v1.958h0.853l0.725-1.958zm-3.725 3.788v0.71h-2.793v-4.498h0.71v1.958h1.311v0.725h-1.311v1.105zm-3.455-1.215h-1.578v-0.71h1.578zm-2.241-2.573v4.498h-0.711v-2.872l-1.641 2.872h-0.71v-4.498h0.71v3.046l1.72-3.046zm-4.75 2.242c0-0.348-0.079-0.789-0.174-1.026-0.158-0.394-0.363-0.568-0.694-0.568-0.284 0-0.474 0.109-0.615 0.347-0.174 0.284-0.269 0.773-0.269 1.247 0 0.379 0.062 0.789 0.174 1.056 0.157 0.395 0.378 0.569 0.725 0.553 0.269-0.016 0.442-0.111 0.584-0.348 0.174-0.298 0.269-0.756 0.269-1.261m0.71 0c0 0.568-0.11 1.134-0.3 1.53-0.284 0.552-0.679 0.805-1.247 0.805-0.521 0-0.884-0.158-1.152-0.505-0.3-0.426-0.489-1.089-0.489-1.83 0-0.537 0.126-1.137 0.316-1.516 0.267-0.552 0.662-0.807 1.294-0.807 0.473 0 0.836 0.161 1.089 0.508 0.315 0.395 0.489 1.104 0.489 1.815m-4.166-2.242v4.498h-0.711l-1.041-2.525-1.042 2.525h-0.71v-4.498h0.71v2.605l1.042-2.605 1.041 2.605v-2.605z" fill-rule="evenodd"/><g transform="translate(428.04 458.78)"><path d="m0 0c0-0.463-0.104-1.052-0.231-1.368-0.21-0.526-0.483-0.757-0.926-0.757-0.379 0-0.631 0.147-0.82 0.463-0.231 0.378-0.357 1.03-0.357 1.662 0 0.504 0.084 1.051 0.231 1.409 0.21 0.527 0.505 0.757 0.968 0.737 0.357-0.021 0.589-0.148 0.778-0.463 0.232-0.4 0.357-1.01 0.357-1.683m0.948 0c0 0.757-0.148 1.514-0.401 2.041-0.378 0.737-0.904 1.073-1.662 1.073-0.694 0-1.177-0.211-1.535-0.674-0.4-0.568-0.652-1.451-0.652-2.44 0-0.716 0.168-1.515 0.421-2.02 0.357-0.737 0.883-1.077 1.724-1.077 0.632 0 1.115 0.214 1.452 0.677 0.421 0.526 0.653 1.473 0.653 2.42m-6.397 0.021c0-0.8-0.189-1.452-0.547-1.81-0.168-0.168-0.357-0.231-0.672-0.231h-0.948v4.082h1.074c0.252 0 0.462-0.106 0.61-0.253 0.294-0.316 0.483-0.988 0.483-1.788m0.968 0c0 1.178-0.357 2.125-0.988 2.673-0.316 0.252-0.547 0.314-1.157 0.314h-1.936v-5.996h2.167c0.315 0.021 0.631 0.127 0.862 0.336 0.674 0.527 1.052 1.474 1.052 2.673" fill-rule="evenodd"/></g><g transform="translate(440.36 447.35)"><path d="m0 0v0.968h-2.778v1.642h1.746v0.967h-1.746v1.473h2.588v0.947h-3.534v-5.997zm-4.713 1.725c0 2.357-2.819 1.621-2.903 2.736-0.042 0.547 0.483 0.715 0.925 0.694 0.673-0.021 0.884-0.526 0.884-0.526l0.842 0.252c-0.295 0.737-0.863 1.221-1.705 1.221-1.072 0-1.872-0.441-1.872-1.62 0-0.989 0.8-1.347 1.157-1.493 0.778-0.317 1.704-0.443 1.704-1.242 0-0.505-0.379-0.883-0.926-0.883-0.568 0-1.031 0.314-1.283 0.883l-0.905-0.336c0.4-0.906 1.157-1.52 2.188-1.52 0.505 0 0.968 0.172 1.305 0.467 0.379 0.337 0.589 0.82 0.589 1.367m-5.07 0.422v3.85h-0.948v-3.85c0-0.779-0.441-1.283-1.093-1.283-0.653 0-1.094 0.504-1.094 1.283v3.85h-0.948v-3.85c0-0.463 0.106-0.885 0.274-1.242 0.315-0.589 1.031-1.014 1.768-1.014 0.736 0 1.451 0.425 1.767 1.014 0.168 0.357 0.274 0.779 0.274 1.242" fill-rule="evenodd"/></g><g transform="translate(431.07 443.19)"><path d="m0 0c0-0.484-0.485-0.863-1.095-0.863-0.589 0-1.073 0.379-1.073 0.863s0.484 0.863 1.073 0.863 1.095-0.4 1.095-0.863m0.946-0.084c0 1.094-0.884 1.915-2.041 1.915-1.136 0-2.041-0.799-2.041-1.831 0-1.009 0.926-1.831 2.041-1.831 0.232 0 0.379 0.021 0.716 0.085-0.359-0.779-0.736-1.263-1.452-1.831l0.463-0.803c1.388 0.951 2.314 2.655 2.314 4.296m-4.839-0.757h-2.104v-0.948h2.104zm-2.714 1.62v0.946h-4.06v-0.946h2.861c-0.211-0.337-0.463-0.779-0.674-1.241-0.589-1.263-0.842-2.42-0.862-3.809h0.968c0 0.589 0.042 0.968 0.126 1.473 0.189 0.967 0.589 1.978 1.115 2.861 0.189 0.316 0.315 0.442 0.526 0.716" fill-rule="evenodd"/></g><g transform="translate(447.38 460.95)"><path d="m0 0v0.842h-3.703v-0.842h1.367v-5.154h0.948v5.154zm-5.428-2.166c0-0.463-0.106-1.052-0.232-1.368-0.21-0.526-0.483-0.757-0.926-0.757-0.379 0-0.631 0.147-0.82 0.463-0.231 0.378-0.357 1.03-0.357 1.662 0 0.504 0.084 1.051 0.231 1.409 0.21 0.527 0.505 0.757 0.968 0.737 0.357-0.021 0.589-0.148 0.778-0.463 0.232-0.4 0.358-1.01 0.358-1.683m0.947 0c0 0.757-0.148 1.514-0.401 2.041-0.378 0.737-0.904 1.073-1.662 1.073-0.694 0-1.177-0.211-1.535-0.674-0.4-0.568-0.652-1.451-0.652-2.44 0-0.716 0.168-1.515 0.421-2.02 0.357-0.737 0.882-1.077 1.724-1.077 0.632 0 1.116 0.214 1.452 0.677 0.421 0.526 0.653 1.473 0.653 2.42m-5.534-2.988v5.996h-0.947v-3.829l-2.188 3.829h-0.946v-5.996h0.946v4.061l2.294-4.061z" fill-rule="evenodd"/></g><g transform="translate(446.47 438.92)"><path d="m0 0v5.996h-0.947l-1.389-3.366-1.389 3.366h-0.946v-5.996h0.946v3.472l1.389-3.472 1.389 3.472v-3.472zm-7.512 2.65h-1.199l0.61 1.684zm1.936-2.65-2.062 5.996h-0.946l-2.062-5.996h1.009l0.59 1.684h1.872l0.589-1.684z" fill-rule="evenodd"/></g></g><text transform="matrix(1 0 0 -1 422.43 419.23)" fill="#000000" font-family="Helvetica" font-size="9px"><tspan x="0 6.4980001 11.502 14.499 19.503" y="0">R3-9f</tspan><tspan x="27.558001 34.056 39.060001 42.056999 47.061001" y="65.844002">R3-9e</tspan><tspan x="-329.79599 -323.298 -318.29401 -315.297 -310.293" y="1.557">R3-9e</tspan></text><g clip-path="url(#d)"><g transform="translate(409.1 552.11)"><path d="m0 0h91.89c1.489 0 2.703-1.213 2.703-2.701v-37.838c0-1.488-1.214-2.703-2.703-2.703h-91.89c-1.488 0-2.703 1.215-2.703 2.703v37.838c0 1.488 1.215 2.701 2.703 2.701" fill="#fff"/><path d="m0 0h91.89c1.489 0 2.703-1.213 2.703-2.701v-37.838c0-1.488-1.214-2.703-2.703-2.703h-91.89c-1.488 0-2.703 1.215-2.703 2.703v37.838c0 1.488 1.215 2.701 2.703 2.701z" fill="none" stroke="#000" stroke-width=".25"/></g><g transform="translate(409.11 551.43)"><path d="m0 0h91.77c2.168 0 2.14-2.025 2.14-3.631v-33.572c0-1.021 0.258-2.461-0.159-3.447-0.723-1.711-3.088-1.24-4.547-1.24h-85.909c-1.448 0-4.114-0.545-5.038 0.978-0.492 0.813-0.292 2-0.292 2.895v33.615c0 1.597-0.374 4.402 2.035 4.402" fill-rule="evenodd"/></g><g transform="translate(409.13 550.3)"><path d="m0 0h91.743c0.673 0 1.028-0.431 1.028-1.084v-37.619c0-0.713-0.588-0.935-1.189-0.935h-89.65c-0.628 0-1.607-0.192-2.22 0.041-0.888 0.337-0.635 1.503-0.635 2.252v36.173c0 0.586 0.228 1.18 0.923 1.172" fill="#fff" fill-rule="evenodd"/></g><g transform="translate(413.57 546.25)"><path d="m0 0h23.636l0.071-1e-3 0.063-6e-3 0.061-6e-3 0.06-0.012 0.061-0.014 0.057-0.017 0.058-0.02 0.057-0.021 0.053-0.024 0.054-0.029 0.052-0.029 0.051-0.031 0.048-0.036 0.047-0.037 0.045-0.039 0.042-0.041 0.043-0.043 0.039-0.045 0.037-0.049 0.035-0.048 0.032-0.049 0.03-0.053 0.027-0.053 0.024-0.054 0.022-0.057 0.021-0.057 0.016-0.058 0.014-0.061 0.01-0.06 9e-3 -0.061 4e-3 -0.064 1e-3 -0.069v-29.043l-1e-3 -0.07-4e-3 -0.062-9e-3 -0.061-0.01-0.061-0.014-0.06-0.016-0.059-0.021-0.056-0.022-0.057-0.024-0.055-0.027-0.052-0.03-0.053-0.032-0.051-0.035-0.049-0.037-0.045-0.039-0.045-0.043-0.044-0.042-0.041-0.045-0.04-0.047-0.037-0.048-0.033-0.051-0.033-0.052-0.029-0.054-0.028-0.053-0.025-0.057-0.024-0.058-0.019-0.057-0.016-0.061-0.013-0.06-0.012-0.061-8e-3 -0.063-4e-3 -0.071-2e-3h-23.636l-0.071 2e-3 -0.061 4e-3 -0.063 8e-3 -0.06 0.012-0.06 0.013-0.057 0.016-0.059 0.019-0.055 0.024-0.055 0.025-0.053 0.028-0.053 0.029-0.051 0.033-0.048 0.033-0.046 0.037-0.045 0.04-0.043 0.041-0.041 0.044-0.04 0.045-0.037 0.045-0.035 0.049-0.033 0.051-0.03 0.053-0.026 0.052-0.025 0.055-0.022 0.057-0.021 0.056-0.016 0.059-0.014 0.06-0.01 0.061-9e-3 0.061-5e-3 0.062-1e-3 0.07v29.043l1e-3 0.069 5e-3 0.064 9e-3 0.061 0.01 0.06 0.014 0.061 0.016 0.058 0.021 0.057 0.022 0.057 0.025 0.054 0.026 0.053 0.03 0.053 0.033 0.049 0.035 0.048 0.037 0.049 0.04 0.045 0.041 0.043 0.043 0.041 0.045 0.039 0.046 0.037 0.048 0.036 0.051 0.031 0.106 0.058 0.055 0.024 0.055 0.021 0.059 0.02 0.057 0.017 0.06 0.014 0.06 0.012 0.063 6e-3 0.061 6e-3z" fill-rule="evenodd"/></g><g transform="translate(413.58 545.57)"><path d="m0 0h23.665l0.029-4e-3 0.028-4e-3 0.026-4e-3 0.028-6e-3 0.025-8e-3 0.027-7e-3 0.024-0.01 0.024-0.012 0.025-0.014 0.024-0.011 0.023-0.016 0.022-0.016 0.023-0.017 0.019-0.018 0.02-0.019 0.019-0.02 0.018-0.021 0.018-0.022 0.016-0.023 0.015-0.022 0.013-0.023 0.012-0.026 0.012-0.023 8e-3 -0.025 0.01-0.028 8e-3 -0.025 5e-3 -0.027 6e-3 -0.026 4e-3 -0.029 2e-3 -0.027v-29.114l-2e-3 -0.027-4e-3 -0.029-6e-3 -0.028-5e-3 -0.025-8e-3 -0.027-0.01-0.026-8e-3 -0.023-0.012-0.026-0.012-0.023-0.013-0.026-0.015-0.023-0.016-0.021-0.018-0.022-0.018-0.021-0.019-0.02-0.02-0.019-0.019-0.018-0.023-0.018-0.022-0.015-0.023-0.014-0.024-0.016-0.025-0.011-0.024-0.012-0.024-0.01-0.027-8e-3 -0.025-7e-3 -0.028-6e-3 -0.026-6e-3 -0.028-2e-3 -0.029-4e-3h-23.708l-0.028 4e-3 -0.027 2e-3 -0.029 6e-3 -0.026 6e-3 -0.026 7e-3 -0.027 8e-3 -0.023 0.01-0.025 0.012-0.025 0.011-0.024 0.016-0.023 0.014-0.022 0.015-0.042 0.036-0.02 0.019-0.019 0.02-0.018 0.021-0.017 0.022-0.016 0.021-0.016 0.023-0.013 0.026-0.012 0.023-0.012 0.026-9e-3 0.023-9e-3 0.026-8e-3 0.027-5e-3 0.025-6e-3 0.028-2e-3 0.029-3e-3 0.027-1e-3 0.045v29.026l1e-3 0.043 3e-3 0.027 2e-3 0.029 6e-3 0.026 5e-3 0.027 8e-3 0.025 9e-3 0.028 9e-3 0.025 0.012 0.023 0.012 0.026 0.013 0.023 0.016 0.022 0.016 0.023 0.017 0.022 0.018 0.021 0.019 0.02 0.02 0.019 0.021 0.018 0.021 0.017 0.022 0.016 0.023 0.016 0.024 0.011 0.025 0.014 0.025 0.012 0.023 0.01 0.027 7e-3 0.026 8e-3 0.026 6e-3 0.029 4e-3 0.027 4e-3 0.028 4e-3z" fill="#fff" fill-rule="evenodd"/></g><g transform="translate(432.23 530.17)"><path d="m0 0-0.026-4.869h-3.356v4.869c0 1.203-0.321 2.399-0.926 3.44-0.704 1.213-1.788 2.199-3.058 2.797-0.541 0.254-1.111 0.394-1.693 0.527l0.013-2.016c0-0.046-6e-3 -0.095-0.015-0.142-0.028-0.154-0.116-0.311-0.236-0.408-0.136-0.114-0.316-0.172-0.491-0.153-0.152 0.016-0.324 0.08-0.424 0.201l-4.962 6.204 7.518 2.355c0.125 0.039 0.276 0.037 0.402 0 0.307-0.09 0.509-0.412 0.477-0.727-0.013-0.128-0.067-0.244-0.141-0.349l-1.164-1.705c0.466-0.133 0.929-0.279 1.388-0.436 0.606-0.205 1.198-0.457 1.74-0.797 1.67-1.037 3.037-2.535 3.916-4.295 0.458-0.918 0.779-1.904 0.897-2.925 0.059-0.522 0.107-1.047 0.141-1.571" fill-rule="evenodd"/></g><g transform="translate(432.66 520.95)"><path d="m0 0-1.279 2.099h-0.996l1.855-3.047v-2.357h0.842v2.357l1.855 3.047h-0.997zm-5.215 2.099h-0.842v-5.404h3.289v0.803h-2.447zm-5.055 0h-0.842v-5.404h0.842v3.646l2.05-3.646h0.737v5.404h-0.843v-3.453zm-4.147-0.779c0.333-0.016 0.543-0.145 0.706-0.428 0.202-0.349 0.315-0.9 0.315-1.5 0-0.429-0.08-0.947-0.202-1.248-0.178-0.469-0.438-0.672-0.834-0.672-0.332 0-0.56 0.139-0.73 0.42-0.194 0.334-0.315 0.916-0.315 1.5 0 0.453 0.08 0.94 0.202 1.256 0.186 0.479 0.462 0.697 0.858 0.672m0.025 0.867c-0.615 0-1.062-0.193-1.361-0.607-0.373-0.502-0.583-1.305-0.583-2.188 0-0.648 0.146-1.369 0.374-1.83 0.323-0.658 0.792-0.959 1.53-0.959 0.574 0 1.005 0.197 1.312 0.602 0.356 0.486 0.583 1.32 0.583 2.187 0 0.682-0.137 1.362-0.372 1.832-0.325 0.664-0.795 0.963-1.483 0.963" fill-rule="evenodd"/></g><g transform="translate(479.01 542.66)"><path d="m0 0c0-0.987-0.355-1.645-1.113-2.049-0.304-0.176-0.657-0.278-1.035-0.278h-1.013v4.625h1.013c0.378 0 0.758-0.101 1.085-0.277 0.708-0.404 1.063-1.06 1.063-2.021m1.288 0c0 1.414-0.606 2.502-1.718 3.132-0.53 0.303-1.114 0.455-1.718 0.455h-2.327v-7.203h2.327c0.581 0 1.188 0.153 1.692 0.43 1.138 0.633 1.744 1.744 1.744 3.186m-7.633-3.616v7.203h-1.237v-4.751l-3.312 4.751h-1.265v-7.203h1.265v4.953l3.436-4.953zm-7.255 0v1.289h-4.068v1.973h2.147v1.315h-2.147v1.337h3.942v1.289h-5.255v-7.203z" fill-rule="evenodd"/></g><g transform="translate(493.92 526.88)"><path d="m0 0v1.289h-4.069v1.969h2.148v1.315h-2.148v1.34h3.943v1.289h-5.257v-7.202zm-6.825 2.096c0 0.785-0.403 1.467-1.034 1.795-0.407 0.203-1.038 0.404-1.998 0.607-0.885 0.202-1.138 0.379-1.138 0.784 0 0.455 0.43 0.732 1.164 0.732 0.681 0 1.262-0.226 1.718-0.707l0.961 0.859c-0.733 0.758-1.618 1.112-2.679 1.112-1.467 0-2.478-0.809-2.478-1.996 0-0.455 0.153-0.885 0.456-1.213 0.302-0.354 0.682-0.531 1.415-0.709l0.353-0.102 0.328-0.074 0.33-0.102c0.327-0.076 0.607-0.177 0.858-0.277 0.303-0.152 0.456-0.381 0.456-0.656 0-0.531-0.657-0.938-1.567-0.938-0.808 0-1.392 0.28-1.922 0.912l-1.034-0.808c0.807-0.938 1.741-1.397 2.982-1.397 0.657 0 1.315 0.184 1.818 0.485 0.684 0.406 1.011 0.961 1.011 1.693m-8.263 2.908c0-0.531-0.407-0.884-1.038-0.884h-2.048v1.793h2.048c0.631 0 1.038-0.354 1.038-0.909m1.441-5.004-1.315 3.082c0.731 0.405 1.162 1.114 1.162 1.922 0 0.809-0.431 1.516-1.112 1.895-0.38 0.228-0.707 0.303-1.24 0.303h-3.31v-7.202h1.288v2.83h1.921l1.165-2.83zm-7.256 0v1.289h-4.07v1.969h2.148v1.315h-2.148v1.34h3.943v1.289h-5.258v-7.202zm-6.572 7.202h-1.391l-1.971-5.258-1.969 5.258h-1.392l2.653-7.202h1.391zm-7.506-7.202v1.289h-4.07v1.969h2.148v1.315h-2.148v1.34h3.943v1.289h-5.258v-7.202zm-8.266 5.004c0-0.531-0.405-0.884-1.036-0.884h-2.048v1.793h2.048c0.631 0 1.036-0.354 1.036-0.909m1.44-5.004-1.313 3.082c0.733 0.405 1.162 1.114 1.162 1.922 0 0.809-0.429 1.516-1.112 1.895-0.379 0.228-0.708 0.303-1.239 0.303h-3.311v-7.202h1.289v2.83h1.922l1.162-2.83z" fill-rule="evenodd"/></g><g transform="translate(483.96 514.71)"><path d="m0 0v1.291h-4.07v1.97h2.148v1.315h-2.148v1.34h3.943v1.289h-5.257v-7.205zm-7.253 0v7.205h-1.238v-4.752l-3.312 4.752h-1.264v-7.205h1.264v4.955l3.436-4.955zm-9.681 2.982h-2.022l1.011 2.428zm2.655-2.982-3.009 7.205h-1.314l-3.032-7.205h1.414l0.708 1.695h3.134l0.708-1.695zm-7.913 0v1.113h-4.094v6.092h-1.29v-7.205z" fill-rule="evenodd"/></g></g><text transform="matrix(1 0 0 -1 444.3 499.86)" fill="#000000" font-family="Helvetica" font-size="9px"><tspan x="0 6.4980001 11.502 14.499 19.503" y="0">R3-9i</tspan><tspan x="-170.172 -163.674 -158.67 -155.673 -150.66901" y="-80.810997">R3-9e</tspan><tspan x="-207.369 -200.871 -195.867 -192.87 -187.866" y="81.495003">R3-9e</tspan><tspan x="-132.87601 -126.378 -121.374 -118.377 -113.373" y="157.869">R3-9e</tspan><tspan x="-131.787 -125.289 -120.285 -117.288 -112.284" y="323.19">R3-9e</tspan><tspan x="-335.151 -328.65302 -323.64899 -320.65201 -315.64801" y="185.058">R3-9f</tspan></text><g clip-path="url(#c)"><g transform="translate(135.9 324.56)"><path d="m0 0h-31.499c-1.24 0-2.25 1.009-2.25 2.25v49.5c0 1.238 1.01 2.25 2.25 2.25h31.499c1.239 0 2.25-1.012 2.25-2.25v-49.5c0-1.241-1.011-2.25-2.25-2.25" fill="#fff"/><path d="m0 0h-31.499c-1.24 0-2.25 1.009-2.25 2.25v49.5c0 1.238 1.01 2.25 2.25 2.25h31.499c1.239 0 2.25-1.012 2.25-2.25v-49.5c0-1.241-1.011-2.25-2.25-2.25z" fill="none" stroke="#000" stroke-width=".25"/></g><g transform="translate(135.89 325.12)"><path d="m0 0h-29.467c-0.906 0-2.291-0.244-3.065 0.361-0.754 0.588-0.648 1.497-0.648 2.34v46.881c0 0.725-0.158 1.742 0.203 2.408 0.564 1.037 1.718 0.885 2.711 0.885h30.147c1.043 0 1.814-0.736 1.814-1.789v-49.24c0-0.981-0.653-1.842-1.695-1.846" fill-rule="evenodd"/></g><g transform="translate(103.65 342.56)"><path d="m0 0v33.716c0 0.686 0.593 0.784 1.134 0.784h30.393c0.561 0 1.331 0.099 1.464-0.637 0.049-0.272 8e-3 -0.58 8e-3 -0.854v-32.933c0-0.123-2.545-0.059-2.758-0.059-2.635-2e-3 -5.27-2e-3 -7.906-4e-3 -6.125-4e-3 -12.251-8e-3 -18.376-0.011-1.319 0-2.639-2e-3 -3.959-2e-3" fill="#fff" fill-rule="evenodd"/></g><g transform="translate(108.43 329.52)"><path d="m0 0c0 0.332 0.252 0.552 0.646 0.552h1.279v-1.121h-1.279c-0.394 0-0.646 0.221-0.646 0.569m-0.899 3.125 0.82-1.926c-0.458-0.252-0.726-0.694-0.726-1.199 0-0.504 0.268-0.948 0.695-1.184 0.236-0.143 0.441-0.189 0.773-0.189h2.067v4.498h-0.805v-1.768h-1.199l-0.726 1.768zm4.529 0v-0.805h2.54v-1.231h-1.341v-0.822h1.341v-0.836h-2.462v-0.804h3.283v4.498zm4.118-3.709v-0.789h3.377v0.789h-1.294v3.709h-0.789v-3.709zm4.135 3.709v-4.498h0.773v2.966l2.068-2.966h0.789v4.498h-0.789v-3.094l-2.147 3.094zm4.529 0v-0.805h2.541v-1.231h-1.342v-0.822h1.342v-0.836h-2.462v-0.804h3.283v4.498zm4.387-0.916 0.71-0.379c0.395 0.427 0.616 0.568 1.026 0.568 0.679 0 1.089-0.568 1.089-1.547 0-0.693-0.269-1.498-1.089-1.498-0.237 0-0.536 0.094-0.71 0.236-0.126 0.079-0.189 0.143-0.316 0.332l-0.71-0.378c0.347-0.631 1.01-0.995 1.736-0.995 1.184 0 1.909 0.899 1.909 2.321 0 1.404-0.725 2.338-1.909 2.338-0.726 0-1.405-0.368-1.736-0.998" fill="#fff" fill-rule="evenodd"/></g><g transform="translate(111.56 339.59)"><path d="m0 0v-0.805h2.541v-1.23h-1.342v-0.821h1.342v-0.837h-2.462v-0.805h3.282v4.498zm4.529 0v-4.498h0.773v2.967l2.067-2.967h0.79v4.498h-0.79v-3.094l-2.145 3.094zm6.044-1.861h1.262l-0.631-1.516zm-1.657 1.861 1.878-4.498h0.821l1.893 4.498h-0.884l-0.441-1.057h-1.957l-0.442 1.057zm4.939 0v-0.693h2.557v-3.805h0.805v4.498z" fill="#fff" fill-rule="evenodd"/></g><path d="m108.84 370.31h0.726v4.498h-0.726zm2.272 1.261c0 0.19 0.11 0.379 0.284 0.475 0.111 0.062 0.19 0.077 0.41 0.077h0.853v-1.102h-0.853c-0.236 0-0.299 0.015-0.41 0.078-0.174 0.093-0.284 0.283-0.284 0.472m-0.805 3.237 0.789-2.1c-0.41-0.189-0.694-0.662-0.694-1.137 0-0.457 0.284-0.929 0.679-1.119 0.221-0.111 0.457-0.142 0.805-0.142h1.483v4.498h-0.71v-1.957h-0.853l-0.725 1.957zm3.725-3.787v-0.711h2.793v4.498h-0.71v-1.957h-1.311v-0.728h1.311v-1.102zm3.455 1.214h1.578v0.709h-1.578zm2.241 2.573v-4.498h0.711v2.871l1.641-2.871h0.71v4.498h-0.71v-3.047l-1.72 3.047zm4.75-2.243c0 0.348 0.079 0.79 0.174 1.026 0.158 0.394 0.363 0.568 0.694 0.568 0.285 0 0.474-0.109 0.616-0.346 0.174-0.285 0.268-0.773 0.268-1.248 0-0.378-0.063-0.789-0.174-1.056-0.157-0.395-0.378-0.569-0.725-0.553-0.269 0.016-0.442 0.111-0.584 0.348-0.174 0.299-0.269 0.758-0.269 1.261m-0.71 0c0-0.568 0.111-1.134 0.3-1.529 0.284-0.553 0.679-0.805 1.247-0.805 0.521 0 0.884 0.157 1.152 0.504 0.3 0.426 0.489 1.09 0.489 1.83 0 0.538-0.126 1.137-0.316 1.515-0.268 0.554-0.662 0.808-1.294 0.808-0.473 0-0.836-0.16-1.088-0.508-0.316-0.395-0.49-1.104-0.49-1.815m4.166 2.243v-4.498h0.711l1.041 2.525 1.042-2.525h0.71v4.498h-0.71v-2.606l-1.042 2.606-1.041-2.606v2.606z" fill-rule="evenodd"/><g transform="translate(125.54 348)"><path d="m0 0c0 0.463 0.105 1.053 0.232 1.369 0.21 0.525 0.483 0.756 0.925 0.756 0.379 0 0.632-0.147 0.821-0.463 0.232-0.377 0.357-1.029 0.357-1.662 0-0.504-0.084-1.051-0.231-1.408-0.21-0.528-0.505-0.758-0.968-0.737-0.357 0.02-0.589 0.147-0.778 0.463-0.232 0.399-0.358 1.01-0.358 1.682m-0.947 0c0-0.756 0.148-1.514 0.4-2.041 0.379-0.736 0.905-1.072 1.662-1.072 0.695 0 1.179 0.211 1.536 0.673 0.4 0.569 0.652 1.452 0.652 2.44 0 0.717-0.168 1.516-0.421 2.021-0.357 0.737-0.883 1.077-1.725 1.077-0.631 0-1.115-0.215-1.451-0.678-0.421-0.526-0.653-1.473-0.653-2.42m6.396-0.02c0 0.799 0.19 1.452 0.547 1.809 0.169 0.168 0.358 0.232 0.673 0.232h0.947v-4.082h-1.072c-0.254 0-0.463 0.106-0.611 0.252-0.294 0.317-0.484 0.989-0.484 1.789m-0.968 0c0-1.179 0.358-2.125 0.989-2.673 0.316-0.252 0.547-0.315 1.157-0.315h1.936v5.996h-2.167c-0.315-0.021-0.631-0.127-0.863-0.336-0.673-0.527-1.052-1.472-1.052-2.672" fill-rule="evenodd"/></g><g transform="translate(113.22 359.43)"><path d="m0 0v-0.967h2.777v-1.643h-1.746v-0.966h1.746v-1.473h-2.588v-0.947h3.535v5.996zm4.713-1.725c0-2.357 2.819-1.621 2.903-2.736 0.042-0.547-0.484-0.715-0.926-0.694-0.672 0.022-0.883 0.526-0.883 0.526l-0.842-0.252c0.295-0.737 0.863-1.221 1.704-1.221 1.073 0 1.873 0.442 1.873 1.621 0 0.988-0.8 1.346-1.157 1.492-0.779 0.317-1.704 0.444-1.704 1.243 0 0.505 0.378 0.882 0.925 0.882 0.568 0 1.031-0.314 1.284-0.882l0.904 0.336c-0.399 0.906-1.157 1.519-2.188 1.519-0.504 0-0.967-0.172-1.304-0.467-0.379-0.336-0.589-0.82-0.589-1.367m5.07-0.422v-3.849h0.947v3.849c0 0.779 0.442 1.283 1.094 1.283 0.653 0 1.094-0.504 1.094-1.283v-3.849h0.947v3.849c0 0.463-0.105 0.885-0.274 1.242-0.315 0.59-1.03 1.014-1.767 1.014-0.736 0-1.452-0.424-1.767-1.014-0.168-0.357-0.274-0.779-0.274-1.242" fill-rule="evenodd"/></g><g transform="translate(106.2 345.84)"><path d="m0 0v-0.842h3.703v0.842h-1.367v5.154h-0.947v-5.154zm5.429 2.166c0 0.463 0.105 1.053 0.231 1.369 0.21 0.525 0.483 0.756 0.926 0.756 0.379 0 0.631-0.147 0.82-0.463 0.232-0.377 0.358-1.029 0.358-1.662 0-0.504-0.084-1.051-0.232-1.408-0.21-0.528-0.505-0.758-0.968-0.737-0.357 0.02-0.588 0.147-0.778 0.463-0.231 0.399-0.357 1.01-0.357 1.682m-0.948 0c0-0.756 0.148-1.514 0.401-2.041 0.378-0.736 0.904-1.072 1.662-1.072 0.694 0 1.178 0.211 1.535 0.673 0.4 0.569 0.652 1.452 0.652 2.44 0 0.717-0.168 1.516-0.42 2.021-0.358 0.737-0.883 1.077-1.725 1.077-0.632 0-1.115-0.215-1.452-0.678-0.421-0.526-0.653-1.473-0.653-2.42m5.535 2.988v-5.996h0.946v3.83l2.188-3.83h0.947v5.996h-0.947v-4.06l-2.294 4.06z" fill-rule="evenodd"/></g><g transform="translate(128.99 366.38)"><path d="m0 0v-0.862h0.567v-3.632h0.945l2.961 3.927v0.567h-2.961v1.49h-0.945v-1.49zm1.512-0.862h1.701l-1.701-2.246z"/></g><path d="m125.99 364.45h2.1v0.945h-2.1z"/><g transform="translate(121.14 366.15)"><path d="m0 0c0-1.009 0.924-1.828 2.037-1.828 0.231 0 0.378 0 0.714 0.063-0.357-0.756-0.735-1.239-1.47-1.805l0.483-0.799c1.386 0.924 2.31 2.625 2.31 4.285 0 1.071-0.882 1.911-2.037 1.911s-2.037-0.799-2.037-1.827m0.945-0.021c0 0.482 0.504 0.881 1.092 0.881s1.071-0.399 1.071-0.881c0-0.463-0.483-0.861-1.071-0.861-0.609 0-1.092 0.398-1.092 0.861"/></g><g transform="translate(114.1 362.94)"><path d="m0 0c0.168-0.084 0.273-0.105 0.567-0.105h1.239v1.469h-1.239c-0.294 0-0.399-0.02-0.567-0.104-0.21-0.105-0.357-0.379-0.357-0.631s0.147-0.504 0.357-0.629m-0.399 2.12c0.273 0.127 0.63 0.211 1.092 0.211h1.113v2.603h0.945v-5.984h-2.058c-0.483 0-0.798 0.041-1.092 0.189-0.525 0.252-0.924 0.881-0.924 1.49 0 0.631 0.399 1.26 0.924 1.491"/></g><g transform="translate(108.18 367.87)"><path d="m0 0v-3.465l1.386 3.465 1.386-3.465v3.465h0.945v-5.984h-0.945l-1.386 3.359-1.386-3.359h-0.945v5.984z"/></g></g><text transform="matrix(1 0 0 -1 126.46 496.67)" fill="#000000" font-family="Helvetica" font-size="9px"><tspan x="0 6.4980001 11.502 14.499 19.503" y="0">R3-9f</tspan></text><g clip-path="url(#b)"><g transform="translate(153.21 506.42)"><path d="m0 0h-31.5c-1.239 0-2.25 1.011-2.25 2.25v49.5c0 1.239 1.011 2.25 2.25 2.25h31.5c1.239 0 2.25-1.011 2.25-2.25v-49.5c0-1.239-1.011-2.25-2.25-2.25" fill="#fff"/><path d="m0 0h-31.5c-1.239 0-2.25 1.011-2.25 2.25v49.5c0 1.239 1.011 2.25 2.25 2.25h31.5c1.239 0 2.25-1.011 2.25-2.25v-49.5c0-1.239-1.011-2.25-2.25-2.25z" fill="none" stroke="#000" stroke-width=".25"/></g><g transform="translate(153.21 506.98)"><path d="m0 0h-29.467c-0.906 0-2.291-0.244-3.065 0.361-0.754 0.589-0.648 1.497-0.648 2.341v46.881c0 0.723-0.158 1.742 0.203 2.407 0.564 1.037 1.718 0.885 2.711 0.885h30.147c1.043 0 1.814-0.737 1.814-1.79v-49.239c0-0.98-0.653-1.842-1.695-1.846" fill-rule="evenodd"/></g><g transform="translate(120.96 524.42)"><path d="m0 0v33.717c0 0.686 0.593 0.783 1.134 0.783h30.393c0.561 0 1.331 0.1 1.464-0.636 0.049-0.271 9e-3 -0.581 9e-3 -0.853v-32.935c0-0.123-2.546-0.057-2.759-0.057-2.635-2e-3 -5.27-3e-3 -7.906-5e-3 -6.125-4e-3 -12.25-7e-3 -18.376-0.011-1.319-1e-3 -2.639-2e-3 -3.959-3e-3" fill="#fff" fill-rule="evenodd"/></g><g transform="translate(125.75 511.37)"><path d="m0 0c0 0.331 0.252 0.553 0.646 0.553h1.279v-1.121h-1.279c-0.394 0-0.646 0.22-0.646 0.568m-0.899 3.124 0.82-1.925c-0.458-0.253-0.726-0.694-0.726-1.199s0.268-0.947 0.695-1.184c0.236-0.142 0.441-0.189 0.773-0.189h2.066v4.497h-0.804v-1.767h-1.199l-0.726 1.767zm4.529 0v-0.805h2.54v-1.23h-1.341v-0.821h1.341v-0.836h-2.462v-0.805h3.283v4.497zm4.118-3.708v-0.789h3.377v0.789h-1.294v3.708h-0.789v-3.708zm4.135 3.708v-4.497h0.773v2.967l2.068-2.967h0.789v4.497h-0.789v-3.093l-2.147 3.093zm4.529 0v-0.805h2.541v-1.23h-1.342v-0.821h1.342v-0.836h-2.462v-0.805h3.282v4.497zm4.387-0.915 0.71-0.379c0.395 0.427 0.616 0.568 1.026 0.568 0.679 0 1.089-0.568 1.089-1.546 0-0.694-0.269-1.499-1.089-1.499-0.237 0-0.537 0.094-0.71 0.237-0.126 0.078-0.189 0.141-0.316 0.331l-0.71-0.379c0.347-0.631 1.01-0.994 1.736-0.994 1.184 0 1.909 0.899 1.909 2.32 0 1.404-0.725 2.338-1.909 2.338-0.726 0-1.405-0.366-1.736-0.997" fill="#fff" fill-rule="evenodd"/></g><g transform="translate(128.88 521.44)"><path d="m0 0v-0.804h2.541v-1.232h-1.342v-0.82h1.342v-0.837h-2.462v-0.805h3.282v4.498zm4.529 0v-4.498h0.773v2.967l2.067-2.967h0.79v4.498h-0.79v-3.093l-2.145 3.093zm6.044-1.862h1.262l-0.631-1.515zm-1.657 1.862 1.878-4.498h0.821l1.893 4.498h-0.884l-0.441-1.057h-1.957l-0.442 1.057zm4.939 0v-0.694h2.557v-3.804h0.805v4.498z" fill="#fff" fill-rule="evenodd"/></g><path d="m126.15 552.17h0.726v4.498h-0.726zm2.272 1.263c0 0.189 0.11 0.378 0.284 0.472 0.111 0.064 0.19 0.08 0.41 0.08h0.853v-1.104h-0.853c-0.236 0-0.299 0.016-0.41 0.078-0.174 0.095-0.284 0.284-0.284 0.474m-0.805 3.235 0.789-2.099c-0.41-0.189-0.694-0.664-0.694-1.136 0-0.458 0.284-0.931 0.679-1.12 0.22-0.111 0.457-0.143 0.804-0.143h1.484v4.498h-0.71v-1.957h-0.853l-0.725 1.957zm3.725-3.787v-0.711h2.793v4.498h-0.71v-1.957h-1.311v-0.726h1.311v-1.104zm3.455 1.215h1.578v0.71h-1.578zm2.241 2.572v-4.498h0.711v2.872l1.641-2.872h0.71v4.498h-0.71v-3.046l-1.72 3.046zm4.75-2.241c0 0.348 0.079 0.789 0.174 1.025 0.158 0.395 0.363 0.569 0.694 0.569 0.285 0 0.474-0.111 0.616-0.347 0.173-0.285 0.268-0.774 0.268-1.247 0-0.379-0.063-0.789-0.174-1.058-0.157-0.394-0.378-0.567-0.725-0.552-0.269 0.015-0.442 0.111-0.584 0.347-0.174 0.3-0.269 0.758-0.269 1.263m-0.71 0c0-0.569 0.111-1.137 0.3-1.53 0.284-0.553 0.679-0.805 1.247-0.805 0.521 0 0.883 0.157 1.152 0.505 0.3 0.426 0.489 1.089 0.489 1.83 0 0.535-0.126 1.137-0.316 1.514-0.268 0.553-0.662 0.808-1.294 0.808-0.473 0-0.836-0.16-1.088-0.508-0.316-0.394-0.49-1.104-0.49-1.814m4.166 2.241v-4.498h0.711l1.041 2.525 1.042-2.525h0.71v4.498h-0.71v-2.604l-1.042 2.604-1.041-2.604v2.604z" fill-rule="evenodd"/><g transform="translate(142.86 529.86)"><path d="m0 0c0 0.463 0.105 1.053 0.231 1.368 0.211 0.526 0.484 0.757 0.926 0.757 0.379 0 0.632-0.146 0.821-0.463 0.232-0.378 0.357-1.03 0.357-1.662 0-0.505-0.084-1.051-0.231-1.409-0.21-0.526-0.505-0.758-0.968-0.736-0.357 0.02-0.589 0.147-0.778 0.463-0.232 0.399-0.358 1.009-0.358 1.682m-0.947 0c0-0.757 0.148-1.514 0.4-2.041 0.379-0.736 0.905-1.072 1.662-1.072 0.695 0 1.179 0.21 1.536 0.673 0.4 0.568 0.652 1.452 0.652 2.44 0 0.716-0.168 1.516-0.421 2.021-0.357 0.736-0.883 1.076-1.725 1.076-0.631 0-1.115-0.214-1.451-0.677-0.421-0.526-0.653-1.472-0.653-2.42m6.396-0.02c0 0.8 0.19 1.451 0.547 1.809 0.169 0.168 0.358 0.232 0.673 0.232h0.947v-4.082h-1.073c-0.252 0-0.462 0.105-0.61 0.252-0.294 0.316-0.484 0.989-0.484 1.789m-0.967 0c0-1.179 0.357-2.125 0.988-2.673 0.316-0.252 0.547-0.315 1.158-0.315h1.935v5.997h-2.167c-0.315-0.022-0.631-0.127-0.863-0.337-0.673-0.527-1.051-1.473-1.051-2.672" fill-rule="evenodd"/></g><g transform="translate(130.53 541.29)"><path d="m0 0v-0.968h2.777v-1.641h-1.746v-0.968h1.746v-1.473h-2.588v-0.947h3.535v5.997zm4.713-1.726c0-2.356 2.819-1.62 2.903-2.735 0.042-0.547-0.484-0.715-0.926-0.694-0.672 0.021-0.883 0.526-0.883 0.526l-0.842-0.253c0.295-0.736 0.863-1.219 1.704-1.219 1.073 0 1.873 0.441 1.873 1.62 0 0.988-0.8 1.346-1.157 1.493-0.779 0.316-1.704 0.442-1.704 1.242 0 0.505 0.379 0.883 0.925 0.883 0.568 0 1.031-0.316 1.284-0.883l0.904 0.336c-0.399 0.905-1.157 1.518-2.188 1.518-0.504 0-0.967-0.171-1.304-0.466-0.379-0.336-0.589-0.821-0.589-1.368m5.07-0.42v-3.851h0.947v3.851c0 0.778 0.442 1.283 1.094 1.283 0.653 0 1.094-0.505 1.094-1.283v-3.851h0.947v3.851c0 0.462-0.105 0.883-0.274 1.241-0.315 0.59-1.031 1.013-1.767 1.013s-1.451-0.423-1.767-1.013c-0.168-0.358-0.274-0.779-0.274-1.241" fill-rule="evenodd"/></g><g transform="translate(123.51 527.69)"><path d="m0 0v-0.841h3.703v0.841h-1.367v5.156h-0.947v-5.156zm5.429 2.167c0 0.463 0.105 1.053 0.231 1.368 0.21 0.526 0.484 0.757 0.926 0.757 0.379 0 0.631-0.146 0.82-0.463 0.232-0.378 0.358-1.03 0.358-1.662 0-0.505-0.084-1.051-0.232-1.409-0.21-0.526-0.505-0.758-0.967-0.736-0.358 0.02-0.589 0.147-0.779 0.463-0.231 0.399-0.357 1.009-0.357 1.682m-0.947 0c0-0.757 0.147-1.514 0.4-2.041 0.378-0.736 0.904-1.072 1.662-1.072 0.694 0 1.178 0.21 1.535 0.673 0.401 0.568 0.653 1.452 0.653 2.44 0 0.716-0.168 1.516-0.421 2.021-0.358 0.736-0.883 1.076-1.725 1.076-0.632 0-1.115-0.214-1.452-0.677-0.421-0.526-0.652-1.472-0.652-2.42m5.534 2.989v-5.997h0.946v3.83l2.188-3.83h0.947v5.997h-0.947v-4.061l-2.293 4.061z" fill-rule="evenodd"/></g><g transform="translate(146.31 548.24)"><path d="m0 0v-0.861h0.567v-3.632h0.945l2.961 3.926v0.567h-2.961v1.491h-0.945v-1.491zm1.512-0.861h1.701l-1.701-2.247z"/></g><path d="m145.4 546.31h-2.1v0.944h2.1z"/><g transform="translate(138.45 548.01)"><path d="m0 0c0-1.008 0.924-1.826 2.037-1.826 0.231 0 0.378 0 0.714 0.063-0.357-0.757-0.735-1.24-1.47-1.807l0.483-0.797c1.386 0.923 2.31 2.625 2.31 4.283 0 1.072-0.882 1.911-2.037 1.911s-2.037-0.797-2.037-1.827m0.945-0.021c0 0.484 0.504 0.883 1.092 0.883s1.071-0.399 1.071-0.883c0-0.462-0.483-0.861-1.071-0.861-0.609 0-1.092 0.399-1.092 0.861"/></g><g transform="translate(130.09 545.43)"><path d="m0 0c0-0.609 0.399-1.239 0.924-1.49 0.294-0.147 0.609-0.189 1.092-0.189h2.058v5.984h-0.945v-2.604h-1.113c-0.462 0-0.819-0.084-1.092-0.21-0.525-0.23-0.924-0.86-0.924-1.491m0.966 0c0 0.252 0.147 0.526 0.357 0.631 0.168 0.084 0.273 0.105 0.567 0.105h1.239v-1.471h-1.239c-0.294 0-0.399 0.021-0.567 0.105-0.21 0.126-0.357 0.378-0.357 0.63"/></g><g transform="translate(125.5 549.73)"><path d="m0 0v-3.464l1.386 3.464 1.386-3.464v3.464h0.945v-5.984h-0.945l-1.386 3.359-1.386-3.359h-0.945v5.984z"/></g></g><text transform="matrix(1 0 0 -1 122.04 652.04)" fill="#000000" font-family="Helvetica" font-size="9px"><tspan x="0 6.4980001 11.502 14.499 19.503" y="0">R3-9h</tspan><tspan x="-16.416 -9.9180002 -4.914 -1.557 0.94499999 5.9489999 10.953 14.175 19.179001 21.681 27.323999 31.599001 36.603001 41.606998 46.611" y="53.631001">Northern Avenue</tspan><tspan x="268.19101 273.19501 275.69699 280.70099 283.203 290.70001" y="391.797">1/4 mi</tspan><tspan x="25.146 30.15 32.652 37.655998 40.158001 47.654999" y="254.601">1/4 mi</tspan></text><g clip-path="url(#a)"><g transform="translate(98.134 687.21)"><path d="m0 0c0 0.832 0.675 1.507 1.507 1.507h69.311c0.832 0 1.506-0.675 1.506-1.507v-21.095c0-0.832-0.674-1.507-1.506-1.507h-69.311c-0.832 0-1.507 0.675-1.507 1.507z" fill="#fff"/><path d="m0 0c0 0.832 0.675 1.507 1.507 1.507h69.311c0.832 0 1.506-0.675 1.506-1.507v-21.095c0-0.832-0.674-1.507-1.506-1.507h-69.311c-0.832 0-1.507 0.675-1.507 1.507z" fill="none" stroke="#000" stroke-width=".25"/></g><g transform="translate(169.45 666.12)"><path d="m0 0c0-0.277-0.225-0.502-0.501-0.502h-69.311c-0.277 0-0.502 0.225-0.502 0.502v21.095c0 0.277 0.225 0.502 0.502 0.502h69.311c0.276 0 0.501-0.225 0.501-0.502zm-0.501 22.183h-69.311c-0.601 0-1.088-0.488-1.088-1.088v-21.095c0-0.6 0.487-1.088 1.088-1.088h69.311c0.599 0 1.087 0.488 1.087 1.088v21.095c0 0.6-0.488 1.088-1.087 1.088"/></g><g transform="translate(163.63 673.38)"><path d="m0 0c0-0.358 0.131-0.606 0.392-0.746 0.129-0.068 0.265-0.102 0.407-0.102h0.703v1.717h-0.82c-0.111 0-0.228-0.041-0.349-0.124-0.222-0.146-0.333-0.395-0.333-0.745m0.154-2.294c0-0.426 0.204-0.657 0.612-0.693h0.736v1.391h-0.623c-0.483 0-0.725-0.233-0.725-0.698m-0.903 2.304c0 0.718 0.258 1.202 0.772 1.452 0.218 0.103 0.48 0.155 0.787 0.155h1.441v-5.357h-1.544c-0.254 0.029-0.471 0.094-0.654 0.198-0.432 0.254-0.648 0.683-0.648 1.286 0 0.575 0.203 0.923 0.609 1.045-0.508 0.282-0.763 0.689-0.763 1.221"/></g><g transform="translate(159.23 675)"><path d="m0 0 2.732-5e-3v-5.357h-2.732v0.749h1.983v1.395h-1.18v0.748h1.18v1.717h-1.983z"/></g><g transform="translate(155.43 670.9)"><path d="m0 0h0.802c0.125-0.381 0.332-0.571 0.62-0.571 0.325 0 0.557 0.27 0.695 0.81 0.086 0.336 0.129 0.728 0.129 1.175s-0.043 0.839-0.129 1.175c-0.139 0.541-0.372 0.811-0.698 0.811-0.229 0-0.407-0.13-0.536-0.392-0.09-0.183-0.135-0.36-0.135-0.532v-0.15h0.67v-0.749h-1.418v0.975c0 0.25 0.067 0.518 0.203 0.804 0.246 0.528 0.652 0.793 1.216 0.793 0.646 0 1.099-0.367 1.355-1.1 0.15-0.432 0.225-0.977 0.225-1.635 0-1.823-0.525-2.734-1.577-2.734-0.502 0-0.891 0.22-1.165 0.66-0.114 0.183-0.2 0.402-0.257 0.66"/></g><path d="m153.61 674.99h0.748v-5.357h-0.748z"/><g transform="translate(149.43 674.99)"><path d="m0 0h0.749l1.502-3.466v3.466h0.749v-5.357h-0.75l-1.501 3.461v-3.461h-0.749z"/></g><g transform="translate(143.32 671.08)"><path d="m0 0c0-0.443 0.184-0.676 0.552-0.697h0.95v1.395h-0.95c-0.368-0.022-0.552-0.254-0.552-0.698m-0.749 3.911h0.777l0.707-2.465h0.767v2.465h0.749v-5.357h-1.661c-0.285 0.025-0.446 0.041-0.482 0.048-0.247 0.057-0.439 0.175-0.579 0.354-0.185 0.239-0.278 0.588-0.278 1.045 0 0.66 0.248 1.096 0.744 1.307z"/></g><g transform="translate(138.93 675)"><path d="m0 0 2.732-5e-3v-5.357h-2.732v0.749h1.983v1.395h-1.179v0.748h1.179v1.717h-1.983z"/></g><g transform="translate(135.13 669.63)"><path d="m0 0 1.302 5.357h0.719l1.301-5.357h-0.766l-0.895 3.697-0.894-3.697z"/></g><g transform="translate(131.64 675)"><path d="m0 0 2.732-5e-3v-5.357h-2.732v0.749h1.983v1.395h-1.179v0.748h1.179v1.717h-1.983z"/></g><g transform="translate(128.48 671.08)"><path d="m0 0c0-0.443 0.185-0.676 0.553-0.697h0.949v1.395h-0.949c-0.368-0.022-0.553-0.254-0.553-0.698m-0.749 3.911h0.777l0.707-2.465h0.767v2.465h0.749v-5.357h-1.66c-0.286 0.025-0.448 0.041-0.483 0.048-0.246 0.057-0.439 0.175-0.579 0.354-0.185 0.239-0.278 0.588-0.278 1.045 0 0.66 0.248 1.096 0.744 1.307z"/></g><g transform="translate(124.09 673.53)"><path d="m0 0c0 0.379 0.099 0.706 0.295 0.981 0.253 0.358 0.628 0.537 1.125 0.537 0.557 0 0.973-0.179 1.248-0.537 0.221-0.282 0.332-0.638 0.332-1.067h-0.749c0 0.311-0.099 0.543-0.295 0.694-0.146 0.107-0.325 0.161-0.536 0.161-0.429 0-0.644-0.255-0.644-0.767 0-0.4 0.173-0.728 0.519-0.981 0.321-0.201 0.643-0.4 0.968-0.596 0.345-0.268 0.518-0.618 0.518-1.052 0-0.282-0.079-0.541-0.235-0.777-0.242-0.365-0.631-0.547-1.166-0.547-0.564 0-0.963 0.211-1.198 0.633-0.096 0.175-0.157 0.388-0.182 0.639h0.749c0-0.09 0.03-0.18 0.091-0.27 0.106-0.169 0.287-0.253 0.54-0.253 0.432 0 0.647 0.191 0.647 0.573 0 0.212-0.174 0.422-0.524 0.633-0.521 0.308-0.847 0.526-0.979 0.655-0.349 0.347-0.524 0.794-0.524 1.341"/></g><g transform="translate(120.45 675)"><path d="m0 0 2.732-5e-3v-5.357h-2.732v0.749h1.983v1.395h-1.179v0.748h1.179v1.717h-1.983z"/></g><g transform="translate(114.13 674.99)"><path d="m0 0h2.732v-5.357h-0.749v4.608h-1.983z"/></g><g transform="translate(111.67 672.8)"><path d="m0 0 0.417-1.743 0.424 1.743zm-1.297 2.195h0.766l0.348-1.446h1.206l0.348 1.446h0.761l-1.297-5.358h-0.835z"/></g><g transform="translate(106.62 674.99)"><path d="m0 0h0.749l1.502-3.466v3.466h0.749v-5.357h-0.75l-1.5 3.461-1e-3 -3.461h-0.749z"/></g><g transform="translate(102.72 675)"><path d="m0 0 2.732-5e-3v-5.357h-2.732v0.749h1.983v1.395h-1.179v0.748h1.179v1.717h-1.983z"/></g><g transform="translate(155.84 681.5)"><path d="m0 0 0.418-1.743 0.423 1.743zm-1.297 2.195h0.767l0.347-1.446h1.207l0.347 1.446h0.761l-1.296-5.357h-0.836z"/></g><g transform="translate(151.49 679.09)"><path d="m0 0h0.992v4.608h0.749v-4.608h0.99v-0.748h-2.731z"/></g><g transform="translate(145.06 683.7)"><path d="m0 0h0.749l1.502-3.466v3.466h0.749v-5.357h-0.75l-1.5 3.461-1e-3 -3.461h-0.749z"/></g><g transform="translate(142.17 681.69)"><path d="m0 0c0-0.289 0.043-0.547 0.129-0.772 0.111-0.289 0.274-0.434 0.489-0.434 0.219 0 0.384 0.146 0.495 0.439 0.082 0.222 0.123 0.478 0.123 0.767 0 0.361-0.043 0.658-0.129 0.891-0.111 0.282-0.274 0.423-0.489 0.423s-0.377-0.143-0.484-0.429c-0.09-0.236-0.134-0.531-0.134-0.885m-0.749 1e-3c0 0.621 0.114 1.115 0.343 1.483 0.243 0.386 0.585 0.579 1.024 0.579 0.44 0 0.781-0.197 1.025-0.589 0.228-0.372 0.342-0.863 0.342-1.473 0-0.558-0.114-1.015-0.342-1.372-0.251-0.389-0.592-0.584-1.025-0.584-0.429 0-0.768 0.193-1.018 0.578-0.233 0.358-0.349 0.817-0.349 1.378"/></g><g transform="translate(138.85 679.98)"><path d="m0 0 0.145 0.711c0.131-0.139 0.3-0.208 0.503-0.208 0.248 0 0.371 0.182 0.371 0.546v2.667h0.749v-3.91h-0.749v0.187c-0.079-0.159-0.247-0.239-0.504-0.239-0.19 0-0.362 0.082-0.515 0.246"/></g><g transform="translate(136.76 680.48)"><path d="m0 0h0.665v2.289c0 0.185-0.095 0.278-0.284 0.278-0.136 0-0.263-0.065-0.381-0.195l0.116 0.736c0.147 0.108 0.315 0.162 0.504 0.162 0.24 0 0.435-0.09 0.585-0.269 0.139-0.168 0.209-0.366 0.209-0.594v-2.407h0.516v-0.697h-0.516v-1.095l-0.749-0.408v1.503h-0.665z"/></g><g transform="translate(133.49 683.7)"><path d="m0 0h0.748v-2.678c0-0.207 0.064-0.369 0.194-0.487 0.111-0.103 0.252-0.155 0.425-0.155 0.172 0 0.316 0.052 0.43 0.155 0.126 0.118 0.188 0.28 0.188 0.487v2.678h0.749v-5.011l-0.749-0.402v1.658c-0.178-0.138-0.424-0.207-0.735-0.207-0.344 0-0.63 0.105-0.858 0.316-0.262 0.232-0.392 0.555-0.392 0.969z"/></g><g transform="translate(130.77 681.4)"><path d="m0 0c0.078-0.607 0.278-0.912 0.6-0.912 0.333 0 0.532 0.305 0.6 0.912zm-0.627 1.445c0.235 0.609 0.645 0.913 1.227 0.913 0.439 0 0.78-0.197 1.023-0.59 0.229-0.371 0.343-0.862 0.343-1.473 0-0.557-0.114-1.014-0.343-1.371-0.25-0.389-0.591-0.584-1.023-0.584-0.428 0-0.768 0.193-1.018 0.578-0.232 0.357-0.349 0.815-0.349 1.376 0 0.121 6e-3 0.237 0.017 0.348h1.95c-0.068 0.645-0.267 0.967-0.6 0.967-0.279 0-0.473-0.205-0.584-0.614z"/></g><g transform="translate(127.55 679.98)"><path d="m0 0 0.145 0.711c0.132-0.139 0.3-0.208 0.503-0.208 0.248 0 0.371 0.182 0.371 0.546v2.667h0.749v-3.91h-0.749v0.187c-0.079-0.159-0.247-0.239-0.504-0.239-0.19 0-0.362 0.082-0.515 0.246"/></g><g transform="translate(124.22 683.7)"><path d="m0 0h0.749v-2.678c0-0.428 0.219-0.642 0.656-0.642 0.387 0 0.581 0.214 0.581 0.642v2.678h0.748v-3.911h-0.748v0.156c-0.179-0.138-0.424-0.207-0.735-0.207-0.344 0-0.63 0.105-0.859 0.316-0.261 0.232-0.392 0.555-0.392 0.969z"/></g><g transform="translate(118.82 681.5)"><path d="m0 0 0.418-1.743 0.424 1.743zm-1.296 2.195h0.766l0.348-1.446h1.205l0.349 1.446h0.761l-1.297-5.357h-0.836z"/></g><g transform="translate(114.1 679.79)"><path d="m0 0 1.248 3.911h0.665l1.248-3.911h-0.788l-0.792 2.491-0.793-2.491z"/></g><g transform="translate(111.7 681.4)"><path d="m0 0c0.079-0.607 0.279-0.912 0.601-0.912 0.332 0 0.532 0.305 0.599 0.912zm-0.626 1.445c0.235 0.609 0.645 0.913 1.227 0.913 0.439 0 0.78-0.197 1.023-0.59 0.229-0.371 0.343-0.862 0.343-1.473 0-0.557-0.114-1.014-0.343-1.371-0.25-0.389-0.592-0.584-1.023-0.584-0.429 0-0.768 0.193-1.018 0.578-0.232 0.357-0.349 0.815-0.349 1.376 0 0.121 5e-3 0.237 0.016 0.348h1.95c-0.067 0.645-0.267 0.967-0.599 0.967-0.279 0-0.474-0.205-0.584-0.614z"/></g></g></g></svg>
