<?xml version="1.0" encoding="UTF-8"?>
<svg width="669.75" height="869.65" version="1.1" viewBox="0 0 669.75 869.65" xml:space="preserve" xmlns="http://www.w3.org/2000/svg"><defs><clipPath id="x"><path d="m26.875 29.605h513.12v708.4h-513.12z"/></clipPath><clipPath id="w"><path d="m26.875 29.605h513.12v708.4h-513.12z"/></clipPath><clipPath id="v"><path d="m26.875 29.605h513.12v708.4h-513.12z"/></clipPath><clipPath id="u"><path d="m26.875 29.605h513.12v708.4h-513.12z"/></clipPath><clipPath id="t"><path d="m354.61 633.68 50.276-7.66v6.36l-32.511 4.994-17.668 1.491z"/></clipPath><clipPath id="s"><path d="m26.875 29.605h513.12v708.4h-513.12z"/></clipPath><clipPath id="r"><path d="m26.875 29.605h513.12v708.4h-513.12z"/></clipPath><clipPath id="q"><path d="m26.875 29.605h513.12v708.4h-513.12z"/></clipPath><clipPath id="p"><path d="m26.875 29.605h513.12v708.4h-513.12z"/></clipPath><clipPath id="o"><path d="m26.875 29.605h513.12v708.4h-513.12z"/></clipPath><clipPath id="n"><path d="m26.875 29.605h513.12v708.4h-513.12z"/></clipPath><clipPath id="m"><path d="m26.875 29.605h513.12v708.4h-513.12z"/></clipPath><clipPath id="l"><path d="m35.089 29.605h502.7v708.4h-502.7z"/></clipPath><clipPath id="k"><path d="m26.875 29.605h513.12v708.4h-513.12z"/></clipPath><clipPath id="j"><path d="m26.875 29.605h513.12v708.4h-513.12z"/></clipPath><clipPath id="i"><path d="m35.089 29.605h502.7v708.4h-502.7z"/></clipPath><clipPath id="h"><path d="m26.875 29.605h513.12v708.4h-513.12z"/></clipPath><clipPath id="g"><path d="m64.841 123.29 50.084-7.911v6.36l-32.877 4.994-17.867 1.492z"/></clipPath><clipPath id="f"><path d="m26.875 29.605h513.12v708.4h-513.12z"/></clipPath><clipPath id="e"><path d="m26.875 29.605h513.12v708.4h-513.12z"/></clipPath><clipPath id="d"><path d="m26.875 29.605h513.12v708.4h-513.12z"/></clipPath><clipPath id="c"><path d="m26.875 29.605h513.12v708.4h-513.12z"/></clipPath><clipPath id="b"><path d="m26.875 29.605h513.12v708.4h-513.12z"/></clipPath><clipPath id="a"><path d="m35.089 29.605h502.7v708.4h-502.7z"/></clipPath></defs><g transform="matrix(1.3333 0 0 -1.3333 -47.296 937.68)"><path d="m180.25 619.8h-2.64v61.535h2.64z" fill="#fff"/><path d="m180.25 619.8h-2.64v61.535h2.64zm12.18-231.69h-9.757v2.627h9.757z" fill="none" stroke="#231f20" stroke-width=".5"/><g transform="translate(188.8 425.59)"><path d="m0 0h-3.161l0.652-107.68h3.161z" fill="#fff"/><path d="m0 0h-3.161l0.652-107.68h3.161z" fill="none" stroke="#231f20" stroke-width=".5"/></g><path d="m200.35 378.92h-2.654v9.758h2.654z" fill="none" stroke="#231f20" stroke-width=".5"/><g clip-path="url(#x)"><g transform="translate(191.57 401.95)"><path d="m0 0h14.914c0.628 0 1.142-0.513 1.142-1.143v-14.913c0-0.63-0.514-1.145-1.142-1.145h-14.914c-0.629 0-1.144 0.515-1.144 1.145v14.913c0 0.63 0.515 1.143 1.144 1.143" fill="#231f20" fill-rule="evenodd"/></g><g transform="translate(199.02 385.48)"><path d="m0 0c-0.704 0.842-1.762 1.355-2.861 1.355h-0.675c-2.391 0-4.339 1.95-4.339 4.338 0 1.477 0.943 2.559 0.943 4.087 0 1.039-0.353 2.116-0.96 2.938l3.126 3.004c0.643-0.541 1.508-0.885 2.366-0.885 0.873 0 1.758 0.326 2.4 0.898 0.645-0.572 1.531-0.898 2.402-0.898 0.858 0 1.724 0.344 2.368 0.885l3.125-3.004c-0.608-0.822-0.962-1.899-0.962-2.938 0-1.528 0.943-2.61 0.943-4.087 0-2.388-1.947-4.338-4.337-4.338h-0.675c-1.101 0-2.16-0.513-2.864-1.355" fill="#fff" fill-rule="evenodd"/></g><g transform="translate(198.08 391.57)"><path d="m0 0v1.192h-0.785v5.033h-1.309l-4.103-5.441v-0.784h4.103v-2.067h1.309v2.067zm-2.094 1.192h-2.356l2.356 3.114z" fill="#231f20"/></g><g transform="translate(205.53 391.88)"><path d="m0 0c0 1.396-1.28 2.532-2.822 2.532-0.32 0-0.524 0-0.99-0.087 0.496 1.046 1.019 1.716 2.038 2.501l-0.67 1.106c-1.92-1.28-3.2-3.636-3.2-5.936 0-1.482 1.222-2.647 2.822-2.647s2.822 1.105 2.822 2.531m-1.31 0.031c0-0.67-0.698-1.222-1.512-1.222-0.815 0-1.484 0.552-1.484 1.222 0 0.639 0.669 1.19 1.484 1.19 0.843 0 1.512-0.551 1.512-1.19" fill="#231f20"/></g><g transform="translate(193.03 383.28)"><path d="m0 0h11.983c0.777 0 1.41-0.635 1.41-1.41v-7.754c0-0.778-0.633-1.413-1.41-1.413h-11.983c-0.777 0-1.408 0.635-1.408 1.413v7.754c0 0.765 0.641 1.41 1.408 1.41" fill="#fff" stroke="#231f20" stroke-width=".25"/></g><g transform="translate(205.01 383)"><path d="m0 0c0.629-0.015 1.116-0.503 1.132-1.131l-1e-3 -7.808c-0.047-0.613-0.527-1.041-1.131-1.07l-12.036 2e-3c-0.613 0.047-1.04 0.527-1.07 1.129l2e-3 7.81c0.047 0.611 0.527 1.037 1.129 1.068h11.975" fill="#231f20" fill-rule="evenodd"/></g><g transform="translate(205.01 382.58)"><path d="m0 0c0.377 0 0.682-0.293 0.712-0.667l1e-3 -7.783c-1e-3 -0.377-0.294-0.685-0.669-0.711l-12.009-3e-3c-0.378 3e-3 -0.687 0.294-0.714 0.668l-2e-3 7.783c2e-3 0.379 0.296 0.686 0.67 0.713h12.011" fill="#fff" fill-rule="evenodd"/></g><g transform="translate(200.84 380.35)"><path d="m0 0 3.485-2.358-3.485-2.36c-0.152-0.103-0.363-0.064-0.465 0.088-0.071 0.104-0.058 0.209-0.026 0.335l0.306 1.024h-6.421v1.824h6.421l-0.3 1.008c-0.038 0.138-0.055 0.24 0.02 0.347 0.102 0.154 0.313 0.193 0.465 0.092" fill="#231f20" fill-rule="evenodd"/></g><path d="m177.4 378.58h-2.654v9.756h2.654z" fill="none" stroke="#231f20" stroke-width=".5"/><g transform="translate(168.61 401.95)"><path d="m0 0h14.916c0.629 0 1.143-0.513 1.143-1.143v-14.914c0-0.629-0.514-1.144-1.143-1.144h-14.916c-0.628 0-1.142 0.515-1.142 1.144v14.914c0 0.63 0.514 1.143 1.142 1.143" fill="#231f20" fill-rule="evenodd"/></g><g transform="translate(176.07 401.23)"><path d="m0 0c4.344 0 7.885-3.541 7.885-7.882 0-4.344-3.541-7.885-7.885-7.885-4.341 0-7.883 3.541-7.883 7.885 0 4.341 3.542 7.882 7.883 7.882" fill="#fff" fill-rule="evenodd"/></g><g transform="translate(175.8 391.27)"><path d="m0 0v1.232h-0.811v5.195h-1.352l-4.234-5.616v-0.811h4.234v-2.134h1.352v2.134zm-2.163 1.232h-2.432l2.432 3.213z" fill="#231f20"/></g><g transform="translate(181.56 395.32)"><path d="m0 0c-0.75-1.261-1.321-2.704-1.591-4.084-0.12-0.722-0.18-1.263-0.18-2.105h-1.381c0.03 1.984 0.389 3.636 1.231 5.437 0.3 0.661 0.66 1.292 0.961 1.772h-4.085v1.352h5.796v-1.352c-0.3-0.39-0.479-0.57-0.751-1.02" fill="#231f20"/></g><g transform="translate(170.08 383.3)"><path d="m0 0h11.977c0.776 0 1.408-0.632 1.408-1.407v-7.749c0-0.777-0.632-1.41-1.408-1.41h-11.977c-0.776 0-1.408 0.633-1.408 1.41v7.749c0 0.766 0.642 1.407 1.408 1.407" fill="#fff" stroke="#231f20" stroke-width=".25"/></g><g transform="translate(182.05 383.02)"><path d="m0 0c0.627-0.016 1.115-0.504 1.131-1.131l-2e-3 -7.804c-0.047-0.613-0.527-1.039-1.129-1.07l-12.031 2e-3c-0.611 0.048-1.038 0.528-1.068 1.129l1e-3 7.806c0.048 0.611 0.528 1.036 1.13 1.068h11.968" fill="#231f20" fill-rule="evenodd"/></g><g transform="translate(182.05 382.6)"><path d="m0 0c0.378-2e-3 0.684-0.295 0.712-0.668l2e-3 -7.778c0-0.377-0.294-0.684-0.668-0.713h-12.004c-0.377 0-0.683 0.293-0.712 0.668l-1e-3 7.776c1e-3 0.379 0.294 0.684 0.668 0.713l12.003 2e-3" fill="#fff" fill-rule="evenodd"/></g><g transform="translate(177.7 377.1)"><path d="m0 0-0.308-1.023c-0.033-0.125-0.046-0.233 0.025-0.334 0.103-0.155 0.313-0.194 0.466-0.09l3.483 2.359-3.483 2.355c-0.153 0.103-0.363 0.062-0.466-0.09-0.074-0.108-0.058-0.211-0.019-0.35l0.298-1.003h-3.312l0.3 1.003c0.038 0.139 0.055 0.242-0.017 0.35-0.106 0.152-0.316 0.193-0.469 0.09l-3.481-2.355 3.481-2.359c0.153-0.104 0.363-0.065 0.469 0.09 0.068 0.101 0.056 0.209 0.024 0.334l-0.307 1.023z" fill="#231f20" fill-rule="evenodd"/></g><g transform="translate(180.09 432.62)"><path d="m0 0h14.915c0.628 0 1.143-0.512 1.143-1.142v-14.915c0-0.629-0.515-1.142-1.143-1.142h-14.915c-0.628 0-1.142 0.513-1.142 1.142v14.915c0 0.63 0.514 1.142 1.142 1.142" fill="#231f20" fill-rule="evenodd"/></g><g transform="translate(187.55 431.91)"><path d="m0 0c4.342 0 7.883-3.541 7.883-7.884 0-4.341-3.541-7.881-7.883-7.881s-7.882 3.54-7.882 7.881c0 4.343 3.54 7.884 7.882 7.884" fill="#fff" fill-rule="evenodd"/></g><g transform="translate(183.4 419.83)"><path d="m0 0v6.937h-0.781v1.082h0.09c0.36 0 0.751 0.209 0.991 0.54h1.081v-8.559z" fill="#231f20"/></g><g transform="translate(188.75 419.68)"><path d="m0 0c-0.75 0-1.502 0.178-2.102 0.479l0.66 1.202c0.361-0.18 0.992-0.3 1.622-0.3 1.232 0 2.192 0.81 2.192 1.921 0 0.842-0.69 1.502-1.531 1.502-0.601 0-0.871-0.18-1.381-0.9l-1.352 0.389 0.21 4.416h4.925v-1.352h-3.604l-0.089-1.412c0.63 0.18 0.901 0.241 1.321 0.241 1.561 0 2.853-1.321 2.853-2.884 0-1.891-1.561-3.302-3.724-3.302" fill="#231f20"/></g><g transform="translate(181.56 413.98)"><path d="m0 0h11.983c0.776 0 1.409-0.635 1.409-1.41v-7.754c0-0.777-0.633-1.412-1.409-1.412h-11.983c-0.777 0-1.409 0.635-1.409 1.412v7.754c0 0.767 0.641 1.41 1.409 1.41" fill="#fff" stroke="#231f20" stroke-width=".25"/></g><g transform="translate(193.53 413.69)"><path d="m0 0c0.628-0.016 1.115-0.505 1.132-1.133l-2e-3 -7.807c-0.046-0.614-0.528-1.04-1.13-1.071l-12.037 2e-3c-0.614 0.046-1.04 0.527-1.07 1.13l2e-3 7.81c0.047 0.611 0.527 1.039 1.129 1.069h11.976" fill="#231f20" fill-rule="evenodd"/></g><g transform="translate(193.53 413.27)"><path d="m0 0c0.378-2e-3 0.683-0.294 0.713-0.668l2e-3 -7.784c-1e-3 -0.376-0.295-0.683-0.671-0.71l-12.009-2e-3c-0.378 0-0.684 0.293-0.713 0.667l-1e-3 7.782c2e-3 0.379 0.294 0.686 0.668 0.713l12.011 2e-3" fill="#fff" fill-rule="evenodd"/></g><g transform="translate(185.2 408.68)"><path d="m0 0 2.358 3.483 2.358-3.486c0.104-0.152 0.065-0.363-0.09-0.468-0.102-0.069-0.208-0.055-0.334-0.024l-1.023 0.306-2e-3 -3.265-1.825 1e-3 2e-3 3.266-1.006-0.3c-0.138-0.039-0.241-0.054-0.349 0.018-0.153 0.105-0.193 0.316-0.089 0.469" fill="#231f20" fill-rule="evenodd"/></g><g transform="translate(43.421 323.96)"><path d="m0 0 25.09-2.093v8.017" fill="none" stroke="#231f20" stroke-width="2"/></g><g transform="translate(50.407 325.16)"><path d="m0 0 2.439 1.683m5.637-0.086 2.524-2.271m16.152-0.756 1.954 1.838 2.251 2.115 3.617-5.551m-4.542 1.01-1.262 2.186m3.197-2.524-2.104 3.617m-10.598-1.345 1.955 1.838 2.251 2.115 3.617-5.553m-4.543 1.012-1.262 2.187m3.196-2.525-2.102 3.617m12.45-4.879 6.179 5.134m-7.441-3.536 4.834 4.04m-12.573-3.196 3.869 3.195m-11.019-1.934 3.869 3.198m2.355-3.032 2.525 2.104m5.215-2.86 3.991 2.945m125.09-20.298 3.396 1.459m-3.267-3.18 5.416 2.192m-4.557-3.612 6.578 2.967 0.129-7.006m-4.944 4.514 0.043-1.119m1.504 1.935 0.043-2.279m1.548 2.924v-3.998m1.892 2.15 3.396 1.461m-3.267-3.182 5.416 2.192m1.118-4.428 3.397 1.463m-3.268-3.182 5.417 2.194m-12.381-0.088 6.577 2.967 0.129-7.006m-4.256 4.512 0.043-1.118m1.935 1.936 0.042-2.279m-6.19 6.406v-3.998m8.986-5.459 5.03 2.406" fill="none" stroke="#231f20" stroke-width=".75"/></g><g transform="translate(41.33 332.28)"><path d="m0 0c36.616-2.032 95.775-7.227 117.73-10.363 21.955-3.137 48.788-8.061 52.97-9.803 4.183-1.744 11.152-3.137 21.258-12.197" fill="none" stroke="#231f20" stroke-width="2"/></g><g transform="translate(167.47 383.36)"><path d="m0 0v-47.651m-99.576 16.99v-20.664m30.961 12.504h-28.403" fill="none" stroke="#231f20" stroke-width=".75"/></g><g transform="translate(70.585 344)"><path d="m0 0c0.868-0.262 1.432-0.504 2.128-0.784v2.649c-0.249-0.118-1.26-0.522-2.128-0.783-0.929-0.281-1.772-0.473-2.318-0.541 0.546-0.069 1.389-0.261 2.318-0.541" fill="#231f20"/></g><g transform="translate(163.24 344.53)"><path d="m0 0h-31.714" fill="none" stroke="#231f20" stroke-width=".75"/></g><g transform="translate(164.78 345.07)"><path d="m0 0c-0.868 0.261-1.433 0.504-2.129 0.783v-2.648c0.25 0.118 1.261 0.521 2.129 0.783 0.929 0.28 1.771 0.472 2.317 0.541-0.546 0.068-1.388 0.26-2.317 0.541" fill="#231f20"/></g><g transform="translate(70.462 331.97)"><path d="m0 0h143.41m-5.778 40.74h5.778" fill="none" stroke="#231f20"/></g></g><text transform="matrix(1 0 0 -1 38.089 431.14)" fill="#231f20" font-family="Helvetica" font-size="8px" font-weight="bold"><tspan x="0 5.336 7.5599999 10.224 14.04 19.656 25.48 31.256001 37.032001 42.368 44.591999 50.368 55.703999 57.928001 63.703999 69.040001 74.375999 79.711998 86.375999 92.152 96.080002" y="0">E - ROADSIDE ASSEMBLY</tspan><tspan x="0 14.04 16.264 22.040001 24.264 29.879999 35.655998 41.431999 47.208 52.096001 54.32 60.096001 65.872002 71.208" y="9"> IN RURAL AREA</tspan></text><text transform="matrix(1 0 0 -1 99.728 342.06)" fill="#231f20" font-family="Helvetica" font-size="7px" font-weight="bold"><tspan x="0 3.892 7.7839999 9.7299995 12.061 14.392 16.337999 22.169001 24.115 29.169001" y="0">12 ft MIN.</tspan></text><g clip-path="url(#w)"><g transform="translate(210.72 343.67)"><path d="m0 0v-7.401" fill="none" stroke="#231f20" stroke-width=".75"/></g><g transform="translate(211.26 334.82)"><path d="m0 0c0.262 0.868 0.504 1.433 0.783 2.129h-2.648c0.118-0.249 0.521-1.261 0.783-2.129 0.281-0.929 0.473-1.772 0.541-2.317 0.068 0.545 0.261 1.388 0.541 2.317" fill="#231f20"/></g><g transform="translate(210.72 368.97)"><path d="m0 0v-7.318" fill="none" stroke="#231f20" stroke-width=".75"/></g><g transform="translate(210.18 369.84)"><path d="m0 0c-0.262-0.868-0.504-1.432-0.783-2.129h2.648c-0.119 0.25-0.521 1.261-0.783 2.129-0.281 0.929-0.473 1.772-0.541 2.318-0.069-0.546-0.261-1.389-0.541-2.318" fill="#231f20"/></g></g><text transform="matrix(1 0 0 -1 205.46 354.67)" fill="#231f20" font-family="Helvetica" font-size="7px" font-weight="bold"><tspan x="0 3.892 5.8379998 8.1689997" y="0">5 ft</tspan><tspan x="-2.0020001 3.829 5.7750001 10.829" y="9.0019999">MIN.</tspan></text><g clip-path="url(#v)"><g transform="translate(198 636.69)"><path d="m0 0h-129.42" fill="none" stroke="#231f20" stroke-width=".75"/></g><g transform="translate(41.162 629.73)"><path d="m0 0 25.09-2.091v8.015c17.393-1.731 27.466-4.77 42.864-6.969 21.955-3.137 79.369-9.06 83.55-10.804 4.183-1.742 11.152-3.136 21.258-12.196" fill="none" stroke="#231f20" stroke-width="2"/></g><g transform="translate(41.879 637.15)"><path d="m0 0-1.976-3.697 2.439-3.702m5.805 1.178 2.439 1.682m5.637-0.084 2.524-2.271m22.04 1.514 1.681 1.01m-7.569-3.282 1.954 1.839 2.251 2.116 3.617-5.552m-4.542 1.009-1.262 2.187m3.197-2.523-2.104 3.617m-10.598-1.346 1.955 1.838 2.251 2.116 3.617-5.552m-4.543 1.009-1.262 2.187m3.197-2.524-2.103 3.618m12.45-4.879 3.869 3.196m-5.131-1.598 2.524 2.103m-10.263-1.261 3.869 3.196m-11.019-1.934 3.869 3.196m2.355-3.029 2.525 2.104m5.215-2.861 1.681 1.01m110.3-18.365 3.396 1.462m-3.266-3.181 5.416 2.193m-4.558-3.612 6.579 2.966 0.128-7.007m-4.944 4.514 0.045-1.118m1.504 1.935 0.042-2.279m1.547 2.924v-3.999m1.892 2.15 3.397 1.462m-3.268-3.182 5.416 2.193m1.118-4.428 3.398 1.462m-3.269-3.181 5.417 2.192m-12.381-0.087 6.577 2.967 0.129-7.008m-4.256 4.515 0.043-1.119m1.935 1.935 0.042-2.278m-6.19 6.406v-3.999m8.986-5.46 5.03 2.409m-46.351 76.555v-40.608m-99.575-4.241v15.965m64.785-5.737h31.649" fill="none" stroke="#231f20" stroke-width=".75"/></g><g transform="translate(163.63 648.64)"><path d="m0 0c-0.868 0.262-1.433 0.504-2.129 0.783v-2.648c0.25 0.118 1.261 0.521 2.129 0.783 0.929 0.281 1.771 0.473 2.317 0.541-0.546 0.068-1.388 0.261-2.317 0.541" fill="#231f20"/></g><g transform="translate(69.237 648.1)"><path d="m0 0h29.766" fill="none" stroke="#231f20" stroke-width=".75"/></g><g transform="translate(69.435 647.56)"><path d="m0 0c0.868-0.262 1.432-0.503 2.128-0.783v2.648c-0.249-0.118-1.26-0.521-2.128-0.783-0.929-0.281-1.772-0.473-2.318-0.541 0.546-0.068 1.389-0.26 2.318-0.541" fill="#231f20"/></g><g transform="translate(187.5 677.18)"><path d="m0 0h9.523m-3.757-30.06v-6.515" fill="none" stroke="#231f20" stroke-width=".75"/></g><g transform="translate(193.8 639.36)"><path d="m0 0c0.263 0.868 0.504 1.432 0.784 2.128h-2.649c0.119-0.249 0.521-1.26 0.783-2.128 0.281-0.929 0.473-1.771 0.541-2.318 0.069 0.547 0.261 1.389 0.541 2.318" fill="#231f20"/></g><g transform="translate(193.26 673.13)"><path d="m0 0v-7.93" fill="none" stroke="#231f20" stroke-width=".75"/></g><g transform="translate(192.73 674.37)"><path d="m0 0c-0.262-0.868-0.504-1.432-0.783-2.128h2.648c-0.118 0.249-0.521 1.26-0.783 2.128-0.281 0.929-0.472 1.772-0.541 2.318-0.068-0.546-0.261-1.389-0.541-2.318" fill="#231f20"/></g></g><text transform="matrix(1 0 0 -1 38.089 693.8)" fill="#231f20" font-family="Helvetica" font-size="8px" font-weight="bold"><tspan x="0 5.776 8 10.664 13.752 19.368 25.191999 30.968 36.743999 42.080002 44.304001 50.080002 55.416 57.639999 62.976002 65.199997 71.424004" y="0">A - ROADSIDE SIGN</tspan><tspan x="0 13.752 15.976 21.752001 23.976 29.591999 35.368 41.144001 46.919998 51.807999 54.032001 59.807999 65.584 70.919998" y="9"> IN RURAL AREA</tspan></text><text transform="matrix(1 0 0 -1 100.04 646.06)" fill="#231f20" font-family="Helvetica" font-size="7px" font-weight="bold"><tspan x="0 3.892 7.7839999 9.7299995 12.061 14.392 16.337999 22.169001 24.115 29.169001" y="0">12 ft MIN.</tspan><tspan x="88.347 92.238998 94.184998 96.515999" y="-12.096">5 ft</tspan><tspan x="86.345001 92.176003 94.122002 99.176003" y="-3.0940001">MIN.</tspan></text><g clip-path="url(#u)"><g transform="translate(166.32 695.13)"><path d="m0 0v-10.515l7.439-7.426h10.505l7.436 7.426v10.515l-7.436 7.439h-10.505z" fill="#fff"/><path d="m0 0v-10.515l7.439-7.426h10.505l7.436 7.426v10.515l-7.436 7.439h-10.505z" fill="none" stroke="#231f20" stroke-miterlimit="2.613" stroke-width=".25"/></g><g transform="translate(166.95 694.87)" fill="#ff1f20"><path d="m0 0 7.064 7.061h9.974l7.074-7.061v-9.99l-7.074-7.06h-9.974l-7.064 7.06z" fill="#bf2e1a" fill-rule="evenodd"/></g><g transform="translate(188.36 691.73)"><path d="m0 0c0-0.771-0.385-1.216-1.097-1.216h-1.247v2.403h1.247c0.653 0 1.097-0.475 1.097-1.187m1.187 0c0 1.424-0.889 2.373-2.225 2.373h-2.521v-8.455h1.215v3.709h1.306c1.425 0 2.225 0.83 2.225 2.373m-7.239-1.839c0-0.979-0.059-1.484-0.267-2.166-0.208-0.712-0.534-1.039-1.038-1.039-0.534 0-0.86 0.327-1.068 1.039-0.178 0.682-0.268 1.216-0.268 2.136 0 0.949 0.06 1.513 0.268 2.166 0.208 0.712 0.534 1.038 1.068 1.038 0.504 0 0.83-0.326 1.038-1.068 0.178-0.623 0.267-1.157 0.267-2.106m1.157 0c0 1.275-0.119 2.076-0.475 2.907-0.414 1.038-1.008 1.454-1.987 1.454-0.98 0-1.572-0.416-2.018-1.424-0.356-0.801-0.475-1.662-0.475-2.937 0-1.306 0.119-2.106 0.475-2.937 0.416-1.009 1.009-1.458 2.018-1.458 0.949 0 1.573 0.449 1.987 1.458 0.356 0.801 0.475 1.631 0.475 2.937m-5.608 3.085v1.127h-4.301v-1.127h1.543v-7.328h1.215v7.328zm-4.717-5.014c0 1.217-0.712 2.137-2.344 3.086-0.623 0.356-0.801 0.593-0.801 1.009 0 0.563 0.445 0.979 1.008 0.979 0.534 0 0.95-0.386 0.979-0.979h1.158c-0.03 1.275-0.95 2.195-2.137 2.195-1.216 0-2.165-0.979-2.165-2.195 0-0.742 0.356-1.395 1.038-1.87 1.721-1.156 1.247-0.83 1.424-1.008 0.505-0.386 0.682-0.742 0.682-1.217 0-0.682-0.533-1.276-1.186-1.276-0.831 0-1.187 0.742-1.187 1.455h-1.186c0-1.394 0.89-2.645 2.373-2.645 1.305 0 2.344 1.101 2.344 2.466" fill="#fff" fill-rule="evenodd"/></g><path d="m466.1 623.51h-1.99v57.925h1.99z" fill="#fff" stroke="#231f20" stroke-width=".5"/><g transform="translate(481.46 640.4)"><path d="m0 0h-126.11" fill="none" stroke="#231f20" stroke-width=".75"/></g><g transform="translate(329.43 632.44)"><path d="m0 0 25.091-2.091v8.015m-27.184 2.644c36.422-2.225 55.266-4.798 77.461-8.687 21.846-3.828 71.953-9.987 76.135-11.73 4.181-1.742 11.151-3.137 21.258-12.197" fill="none" stroke="#231f20" stroke-width="2"/></g><g transform="translate(329.77 640.14)"><path d="m0 0-1.607-3.968 2.441-3.701m5.803 1.177 2.44 1.683m5.635-0.084 2.525-2.271m134.02-15.841 3.397 1.462m-3.268-3.181 5.417 2.192m-4.557-3.611 6.578 2.966 0.129-7.007m-4.945 4.514 0.044-1.118m1.504 1.935 0.043-2.279m1.547 2.924v-3.999m1.893 2.15 3.396 1.461m-3.267-3.181 5.416 2.193m1.118-4.429 3.396 1.463m-3.267-3.181 5.418 2.192m-12.382-0.087 6.577 2.967 0.13-7.008m-4.257 4.514 0.043-1.118m1.935 1.935 0.043-2.279m-6.192 6.407v-3.999m8.987-5.46 5.028 2.408m-46.349 78.129v-42.181m14.272 35.064h10.606m-4.245-28.961v-7.57" fill="none" stroke="#231f20" stroke-width=".75"/></g><g transform="translate(475.75 643.08)"><path d="m0 0c0.262 0.868 0.504 1.432 0.783 2.128h-2.648c0.118-0.249 0.521-1.26 0.783-2.128 0.28-0.929 0.473-1.772 0.541-2.318 0.068 0.546 0.261 1.389 0.541 2.318" fill="#231f20"/></g><g transform="translate(475.21 676.34)"><path d="m0 0v-7.271" fill="none" stroke="#231f20" stroke-width=".75"/></g><g transform="translate(474.68 677.26)"><path d="m0 0c-0.263-0.868-0.504-1.432-0.783-2.129h2.648c-0.118 0.25-0.521 1.261-0.783 2.129-0.28 0.929-0.473 1.771-0.541 2.318-0.068-0.547-0.261-1.389-0.541-2.318" fill="#231f20"/></g></g><g clip-path="url(#t)"><g transform="translate(326.24 609.85)"><path d="M 0,0 36.978,29.944 M 4.912,0 41.886,29.944 M 9.819,0 46.797,29.944 M 14.728,0 51.705,29.944 M 19.638,0 56.616,29.944 M 24.547,0 61.523,29.944 M 29.457,0 66.434,29.944 M 34.366,0 71.341,29.944 M 39.277,0 76.253,29.944 M 44.184,0 81.162,29.944 M 49.095,0 86.069,29.944 M 54.003,0 90.98,29.944" fill="none" stroke="#231f20"/></g></g><g clip-path="url(#s)"><g transform="translate(354.71 638.87)"><path d="m0 0 17.668-1.491 32.511-4.994v-6.36l-50.276 7.66z" fill="none" stroke="#231f20" stroke-width="2"/></g><g transform="translate(444.82 651.8)"><path d="m0 0h6.431" fill="none" stroke="#231f20" stroke-width=".75"/></g><g transform="translate(451.89 652.34)"><path d="m0 0c-0.868 0.262-1.433 0.504-2.129 0.783v-2.648c0.249 0.118 1.261 0.521 2.129 0.783 0.928 0.281 1.771 0.473 2.317 0.541-0.546 0.068-1.389 0.261-2.317 0.541" fill="#231f20"/></g><g transform="translate(408.71 651.8)"><path d="m0 0h6.773" fill="none" stroke="#231f20" stroke-width=".75"/></g><g transform="translate(407.49 651.27)"><path d="m0 0c0.869-0.262 1.433-0.504 2.129-0.783v2.648c-0.249-0.118-1.26-0.521-2.129-0.783-0.928-0.281-1.771-0.473-2.317-0.541 0.546-0.068 1.389-0.261 2.317-0.541" fill="#231f20"/></g><g transform="translate(361.35 618.48)"><path d="m0 0c-2.501 2.75 0.5 9.75 0.5 9.75" fill="none" stroke="#231f20" stroke-width=".75"/></g><g transform="translate(361.84 629.58)"><path d="m0 0c-0.583-0.695-1.027-1.118-1.559-1.648l2.435-1.043c-0.011 0.275 0.017 1.363 0.118 2.264 0.108 0.965 0.264 1.815 0.416 2.344-0.278-0.476-0.786-1.174-1.41-1.917" fill="#231f20"/></g><g transform="translate(404.79 663.55)"><path d="m0 0v-31.222" fill="none" stroke="#231f20" stroke-width=".75"/></g></g><text transform="matrix(1 0 0 -1 306.15 695.82)" fill="#231f20" font-family="Helvetica" font-size="8px" font-weight="bold"><tspan x="0 5.776 8 10.664 13.752 19.368 25.191999 30.968 36.743999 42.080002 44.304001 50.080002 55.416 57.639999 62.976002 65.199997 71.424004" y="0">B - ROADSIDE SIGN</tspan><tspan x="0 13.752 15.976 21.752001 23.976 29.591999 35.368 41.144001 46.919998 51.807999 54.032001 59.807999 65.584 70.919998" y="9"> IN RURAL AREA</tspan></text><text transform="matrix(1 0 0 -1 416.6 649.33)" fill="#231f20" font-family="Helvetica" font-size="7px" font-weight="bold"><tspan x="0 3.892 5.8379998 8.1689997 10.5 12.446 18.277 20.223 25.277" y="0">6 ft MIN.</tspan><tspan x="-54.515999 -49.847 -45.57 -41.292999 -37.015999 -35.07 -30.792999 -26.900999 -24.177999 -22.232 -16.785999 -14.84 -10.563 -6.671 -3.948 -2.0020001 0.329 4.6059999 8.4980001 12.775 14.721 18.613001 20.559 22.889999" y="35.433998">Shoulder wider than 6 ft</tspan><tspan x="53.228001 57.119999 59.066002 61.396999" y="-12.6">5 ft</tspan><tspan x="51.226002 57.056999 59.002998 64.056999" y="-3.598">MIN.</tspan></text><g clip-path="url(#r)"><g transform="translate(453.75 692.25)"><path d="m0 0 10.57 10.569c0.414 0.414 1.091 0.414 1.506 0l10.57-10.569c0.414-0.414 0.414-1.093 0-1.507l-10.57-10.569c-0.415-0.414-1.092-0.414-1.506 0l-10.57 10.569c-0.415 0.414-0.415 1.093 0 1.507" fill="#fccf34"/><path d="m0 0 10.57 10.569c0.414 0.414 1.091 0.414 1.506 0l10.57-10.569c0.414-0.414 0.414-1.093 0-1.507l-10.57-10.569c-0.415-0.414-1.092-0.414-1.506 0l-10.57 10.569c-0.415 0.414-0.415 1.093 0 1.507z" fill="none" stroke="#231f20" stroke-width=".25"/></g><g transform="translate(453.95 692.05)"><path d="m0 0 10.571 10.57c0.303 0.303 0.8 0.303 1.102 0l10.57-10.57c0.303-0.303 0.303-0.801 0-1.104l-10.57-10.569c-0.302-0.302-0.799-0.302-1.102 0l-10.571 10.569c-0.301 0.303-0.301 0.801 0 1.104" fill="#231f20" fill-rule="evenodd"/></g><g transform="translate(454.25 691.75)"><path d="m0 0 10.569 10.569c0.137 0.137 0.362 0.137 0.5 0l10.569-10.569c0.138-0.138 0.138-0.363 0-0.501l-10.569-10.569c-0.138-0.138-0.363-0.138-0.5 0l-10.569 10.569c-0.139 0.138-0.139 0.363 0 0.501" fill="#fccf34" fill-rule="evenodd"/></g><g transform="translate(465.84 692.65)"><path d="m0 0c0.111-0.367 0.221-0.733 0.331-1.098 0.045-0.144 0.077-0.306 0.152-0.436 0.166-0.285 0.566-0.338 0.795-0.097 0.127 0.132 0.196 0.327 0.277 0.489 0.163 0.332 0.326 0.664 0.488 0.996 0.677 1.37 1.352 2.74 2.028 4.11-1.53 0-3.059 1e-3 -4.588 1e-3h-1.092c-0.192 0-0.409 0.021-0.595-0.028-0.312-0.082-0.519-0.436-0.301-0.725 0.099-0.134 0.233-0.256 0.346-0.38 0.256-0.285 0.513-0.569 0.77-0.853-1.183-0.537-2.335-1.362-3.035-2.476-0.698-1.108-0.809-2.311-0.807-3.586 2e-3 -0.915 3e-3 -1.829 6e-3 -2.743 0-0.017-0.011-0.144 9e-3 -0.144h1.906c0.126 0 0.569-0.086 0.569 0.074 0 0.371 0 0.741 2e-3 1.113 0 0.774-7e-3 1.55 0 2.324 7e-3 0.612 0.141 1.187 0.472 1.706 0.514 0.804 1.453 1.328 2.267 1.753" fill="#231f20" fill-rule="evenodd"/></g><g transform="translate(344.11 488.7)"><path d="m0 0 1.956 1.839 2.251 2.115 3.618-5.552m-4.544 1.01-1.262 2.187m3.197-2.524-2.103 3.618m-10.598-1.347 1.955 1.839 2.249 2.115 3.618-5.552m-4.542 1.01-1.262 2.187m3.196-2.524-2.103 3.618m12.451-4.879 3.869 3.196m-5.132-1.598 2.525 2.103m-10.262-1.262 3.869 3.197m-11.021-1.934 3.87 3.196m2.355-3.029 2.524 2.103m5.215-2.86 1.682 1.009" fill="none" stroke="#231f20" stroke-width=".75"/></g><path d="m447.06 481.62h-1.99v62.673h1.99z" fill="#fff" stroke="#231f20" stroke-width=".5"/><g transform="translate(440.69 497.42)"><path d="m0 0h-103.37" fill="none" stroke="#231f20" stroke-width=".75"/></g><g transform="translate(309.9 489.71)"><path d="m0 0 25.091-2.091v8.015m-27.183 2.393c36.589-1.925 79.578-6.473 101.77-10.363 21.847-3.827 48.789-8.06 52.971-9.803 4.181-1.742 11.151-3.136 21.258-12.197" fill="none" stroke="#231f20" stroke-width="2"/></g><g transform="translate(309.74 496.47)"><path d="m0 0-1.092-3.028 2.44-3.702m5.804 1.178 2.439 1.683m5.636-0.084 2.524-2.272m135.16-15.84 3.397 1.462m-3.268-3.181 5.417 2.192m-4.557-3.611 6.578 2.966 0.129-7.007m-4.945 4.513 0.044-1.117m1.504 1.934 0.043-2.278m1.547 2.923v-3.998m1.893 2.15 3.396 1.461m-3.267-3.181 5.416 2.192m1.118-4.427 3.396 1.461m-3.267-3.18 5.418 2.192m-12.382-0.087 6.577 2.966 0.13-7.007m-4.257 4.514 0.043-1.118m1.935 1.934 0.043-2.278m-6.192 6.406v-3.998m8.987-5.46 5.028 2.408m-47.494 85.088v-19.511m-99.577-33.87v45.594m64.541-5.737h33.041" fill="none" stroke="#231f20" stroke-width=".75"/></g><g transform="translate(432.37 538.25)"><path d="m0 0c-0.868 0.262-1.432 0.504-2.129 0.783v-2.648c0.249 0.118 1.261 0.521 2.129 0.783 0.929 0.281 1.772 0.473 2.318 0.541-0.546 0.068-1.389 0.261-2.318 0.541" fill="#231f20"/></g><g transform="translate(337.98 537.71)"><path d="m0 0h29.325" fill="none" stroke="#231f20" stroke-width=".75"/></g><g transform="translate(338.18 537.17)"><path d="m0 0c0.868-0.262 1.432-0.504 2.129-0.783v2.648c-0.249-0.119-1.261-0.521-2.129-0.783-0.929-0.281-1.772-0.473-2.318-0.541 0.546-0.069 1.389-0.26 2.318-0.541" fill="#231f20"/></g><g transform="translate(436.49 528.86)"><path d="m0 0h3.641" fill="none" stroke="#231f20" stroke-dasharray="2, 2" stroke-width=".75"/></g><g transform="translate(437.36 503.88)"><path d="m0 0v-3.506" fill="none" stroke="#231f20" stroke-width=".75"/></g><g transform="translate(437.89 500.11)"><path d="m0 0c0.261 0.867 0.504 1.432 0.783 2.128h-2.649c0.119-0.249 0.522-1.261 0.784-2.128 0.28-0.929 0.472-1.772 0.541-2.318 0.068 0.546 0.26 1.389 0.541 2.318" fill="#231f20"/></g><g transform="translate(437.36 525.31)"><path d="m0 0v-4.581" fill="none" stroke="#231f20" stroke-width=".75"/></g><g transform="translate(436.82 526.17)"><path d="m0 0c-0.263-0.867-0.504-1.432-0.784-2.128h2.649c-0.118 0.25-0.522 1.261-0.783 2.128-0.281 0.93-0.473 1.772-0.541 2.318-0.069-0.546-0.261-1.388-0.541-2.318" fill="#231f20"/></g></g><g fill="#231f20" font-family="Helvetica" font-weight="bold"><text transform="matrix(1 0 0 -1 295.39 568.86)" font-size="8px"><tspan x="0 5.776 8 10.664 13.464 20.535999 26.312 32.088001 37.863998 40.088001 45.863998 52.088001 54.312 59.647999 61.872002 68.096001 73.872002 75.456001 83.008003 85.232002 90.120003 95.896004 98.120003 103.896 109.352 114.688 116.912 122.248 128.472 133.84801" y="0">D - WARNING SIGN WITH ADVISORY</tspan><tspan x="-0.0080000004 13.456 18.792 24.128 29.464001 34.799999 40.576 42.799999 48.136002 53.023998 58.48 64.704002 70.480003 75.816002 78.040001 80.264 86.040001 88.264 93.800003 99.575996 105.352 111.128 116.016 118.24 124.016 129.79201 135.12801" y="9"> SPEED PLAQUE IN RURAL AREA</tspan></text><text transform="matrix(1 0 0 -1 368.11 535.48)" font-size="7px"><tspan x="0 3.892 7.7839999 9.7299995 12.061 14.392 16.337999 22.169001 24.115 29.169001" y="0">12 ft MIN.</tspan></text><text transform="matrix(.95 0 0 -1 432.3 514.8)" font-size="7px"><tspan x="0 3.892 5.8379998 8.1689997" y="0">4 ft</tspan><tspan x="-2.0020001 3.829 5.7750001 10.829" y="9.0019999">MIN.</tspan></text></g><g clip-path="url(#q)"><g transform="translate(434.74 554.79)"><path d="m0 0 10.569 10.568c0.414 0.415 1.094 0.415 1.507 0l10.569-10.568c0.415-0.416 0.415-1.094 0-1.509l-10.569-10.569c-0.413-0.413-1.093-0.413-1.507 0l-10.569 10.569c-0.415 0.415-0.415 1.093 0 1.509" fill="#fccf34"/><path d="m0 0 10.569 10.568c0.414 0.415 1.094 0.415 1.507 0l10.569-10.568c0.415-0.416 0.415-1.094 0-1.509l-10.569-10.569c-0.413-0.413-1.093-0.413-1.507 0l-10.569 10.569c-0.415 0.415-0.415 1.093 0 1.509z" fill="none" stroke="#231f20" stroke-width=".25"/></g><g transform="translate(434.94 554.55)"><path d="m0 0 10.57 10.57c0.303 0.303 0.799 0.303 1.103 0l10.571-10.57c0.303-0.303 0.303-0.8 0-1.104l-10.571-10.569c-0.304-0.304-0.8-0.304-1.103 0l-10.57 10.569c-0.304 0.304-0.304 0.801 0 1.104" fill="#231f20" fill-rule="evenodd"/></g><g transform="translate(435.24 554.21)"><path d="m0 0 10.569 10.57c0.137 0.137 0.364 0.137 0.5 0l10.568-10.57c0.14-0.138 0.14-0.362 0-0.5l-10.568-10.569c-0.136-0.138-0.363-0.138-0.5 0l-10.569 10.569c-0.137 0.138-0.137 0.362 0 0.5" fill="#fccf34" fill-rule="evenodd"/></g><g transform="translate(441.35 554.99)"><path d="m0 0-5e-3 -7.009h2.494v5.984c0 0.382 0.327 0.623 0.622 0.623l3.832-0.015-0.466-1.401c-0.039-0.073-0.057-0.162-0.064-0.246-0.027-0.273 0.223-0.496 0.496-0.496 0.127 0 0.253 0.051 0.344 0.139l4.276 3.279-4.276 3.159c-0.091 0.087-0.217 0.14-0.344 0.14-0.273 0-0.533-0.241-0.496-0.496 0.012-0.085 0.025-0.173 0.064-0.246l0.466-1.353-4.864 3e-3c-1.145 0-2.079-0.934-2.079-2.08z" fill="#231f20" fill-rule="evenodd"/></g><g transform="translate(440.84 541.55)"><path d="m0 0h10.437c0.62 0 1.129-0.509 1.129-1.129v-10.437c0-0.621-0.509-1.129-1.129-1.129h-10.437c-0.621 0-1.127 0.508-1.127 1.129v10.437c0 0.62 0.506 1.129 1.127 1.129" fill="#fccf34"/><path d="m0 0h10.437c0.62 0 1.129-0.509 1.129-1.129v-10.437c0-0.621-0.509-1.129-1.129-1.129h-10.437c-0.621 0-1.127 0.508-1.127 1.129v10.437c0 0.62 0.506 1.129 1.127 1.129z" fill="none" stroke="#231f20" stroke-width=".25"/></g><g transform="translate(440.98 541.27)"><path d="m0 0h10.158c0.543 0 0.986-0.443 0.986-0.986v-10.159c0-0.542-0.443-0.986-0.986-0.986h-10.158c-0.543 0-0.989 0.444-0.989 0.986v10.159c0 0.543 0.446 0.986 0.989 0.986" fill="#231f20" fill-rule="evenodd"/></g><g transform="translate(441.08 540.85)"><path d="m0 0h9.949c0.369 0 0.668-0.3 0.668-0.667v-9.952c0-0.366-0.299-0.666-0.668-0.666h-9.949c-0.367 0-0.668 0.3-0.668 0.666v9.952c0 0.367 0.301 0.667 0.668 0.667" fill="#fccf34" fill-rule="evenodd"/></g><g transform="translate(449.76 530.6)"><path d="m0 0v2.114h-0.379v-0.816h-0.949v0.816h-0.379v-2.114h0.379v0.921l0.949 6e-3v-0.927zm-2.986 1.469c0-0.155-0.127-0.259-0.313-0.259h-0.615v0.526h0.615c0.186 0 0.313-0.104 0.313-0.267m0.379 0c0 0.237-0.127 0.446-0.329 0.557-0.119 0.066-0.214 0.088-0.378 0.088h-0.989v-2.114h0.389v0.832h0.6c0.164 0 0.259 0.013 0.378 0.08 0.202 0.112 0.329 0.335 0.329 0.557m-2.797-1.469v2.114h-0.369l-0.625-1.254-0.614 1.254h-0.375v-2.114h0.375v1.291l0.614-1.291 0.625 1.291v-1.291z" fill="#231f20" fill-rule="evenodd"/></g><g transform="translate(441.21 534.17)"><path d="m0 0c0 0.671 0.139 1.164 0.455 1.719 0.492 0.829 1.203 1.342 2.231 1.618 0.63 0.177 0.849 0.375 0.849 0.711 0 0.415-0.394 0.652-1.107 0.652-0.729 0-1.262-0.178-1.737-0.612l-0.691 0.77c0.65 0.572 1.463 0.868 2.371 0.868 1.322 0 2.17-0.651 2.17-1.678 0-0.474-0.195-0.908-0.572-1.225-0.178-0.138-0.434-0.275-0.828-0.393-0.752-0.218-0.969-0.317-1.303-0.614-0.258-0.217-0.418-0.434-0.613-0.808h3.316v-1.008z" fill="#231f20"/></g><g transform="translate(448.72 534.07)"><path d="m0 0c-0.77 0-1.461 0.197-2.172 0.632l0.533 0.849c0.494-0.296 1.067-0.454 1.639-0.454 0.85 0 1.361 0.376 1.361 1.006 0 0.297-0.136 0.594-0.353 0.771-0.198 0.158-0.494 0.237-0.908 0.237-0.377 0-0.672-0.059-1.088-0.217l-1.006 0.256 0.178 2.647h3.751l-0.019-0.988h-2.785l-0.059-0.809c0.453 0.099 0.731 0.138 1.086 0.138 1.283 0 2.211-0.869 2.211-2.035 0-1.184-0.986-2.033-2.369-2.033" fill="#231f20"/></g><path d="m414.55 366.15h-2.055v55.809h2.055z" fill="#fff" stroke="#231f20" stroke-width=".5"/><g transform="translate(372.35 352.06)"><path d="m0 0h82.65m-82.65 9.895h82.65" fill="none" stroke="#231f20"/></g><path d="m444.82 362.54h-61.697v4.982h61.697z" fill="#fccf34"/><path d="m444.82 362.54h-61.697v4.982h61.697zm-42.496 57.708h-49.143m27.892-52.726h-28.01m56.37 30.129h-36.516m-16.595-19.414v-7.455" fill="none" stroke="#231f20" stroke-width=".75"/><g transform="translate(356.86 370.21)"><path d="m0 0c0.261 0.869 0.503 1.433 0.783 2.129h-2.649c0.118-0.249 0.522-1.26 0.784-2.129 0.28-0.928 0.472-1.771 0.541-2.317 0.068 0.546 0.26 1.389 0.541 2.317" fill="#231f20"/></g><g transform="translate(356.32 417.24)"><path d="m0 0v-21.991" fill="none" stroke="#231f20" stroke-width=".75"/></g><g transform="translate(355.78 417.55)"><path d="m0 0c-0.262-0.867-0.504-1.431-0.783-2.129h2.649c-0.119 0.25-0.522 1.262-0.784 2.129-0.28 0.93-0.472 1.772-0.541 2.319-0.068-0.547-0.26-1.389-0.541-2.319" fill="#231f20"/></g><g transform="translate(376.43 373.73)"><path d="m0 0v-2.876" fill="none" stroke="#231f20" stroke-width=".75"/></g><g transform="translate(376.96 370.21)"><path d="m0 0c0.262 0.869 0.504 1.433 0.783 2.129h-2.648c0.118-0.249 0.521-1.26 0.783-2.129 0.28-0.928 0.473-1.771 0.541-2.317 0.068 0.546 0.261 1.389 0.541 2.317" fill="#231f20"/></g><g transform="translate(376.43 394.47)"><path d="m0 0v-4.546" fill="none" stroke="#231f20" stroke-width=".75"/></g><g transform="translate(375.89 394.96)"><path d="m0 0c-0.263-0.868-0.504-1.432-0.783-2.128h2.648c-0.118 0.249-0.521 1.26-0.783 2.128-0.28 0.929-0.473 1.771-0.541 2.318-0.069-0.547-0.261-1.389-0.541-2.318" fill="#231f20"/></g><g transform="translate(375.76 355.69)"><path d="m0 0 2.499 1.561m7.808-2.811-1.25 2.811m6.56 2.5-1.249-2.188m32.483-2.498-3.436 1.873m-22.488-2.185 0.937 2.81m6.559-1.25 4.06 0.938m20.927-1.248 2.499 1.56m7.809-2.81-1.25 2.81m6.559 2.5-1.249-2.187m6.559-2.811 0.937 2.811m-46.851-1.563 4.06 0.938m-35.208-5.192c0.165 0.362 0.666 0.358 0.95 0.68 0.526 0.603 0.079 0.646-0.058 1.312-0.093 0.452 0.057 0.996 0.013 1.459-0.048 0.5-0.192 0.922-0.18 1.436 0.016 0.672 0.355 0.949 0.512 1.504 0.163 0.576-0.088 0.941-0.286 1.443-0.388 0.992 0.053 1.686-0.045 2.672m80.057-0.361c0-0.971-0.111-1.852 0.313-2.727 0.286-0.588 0.426-0.283 0.242-0.928-0.194-0.679-0.873-1.033-1.201-1.597-0.596-1.022-0.039-1.543 0.655-2.274 0.434-0.457 1.136-1.228 0.353-1.713" fill="none" stroke="#231f20" stroke-width=".75"/></g></g><text transform="matrix(1 0 0 -1 305.42 436.67)" fill="#231f20" font-family="Helvetica" font-size="8px" font-weight="bold"><tspan x="0 4.888 7.112 9.776 13.416 18.752001 20.976 27.200001 32.976002 35.200001 41.424 47.200001 49.424 55.200001 61.424 66.760002 72.096001" y="0">F - SIGN ON NOSE </tspan><tspan x="13.416 19.639999 24.528 26.752001 33.416 38.751999 44.528 46.751999 52.528" y="9">OF MEDIAN</tspan></text><text transform="matrix(1 0 0 -1 350.88 388.4)" fill="#231f20" font-family="Helvetica" font-size="7px" font-weight="bold"><tspan x="0 3.892 5.8379998 8.1689997" y="0">7 ft</tspan><tspan x="-2.0020001 3.829 5.7750001 10.829" y="8.0010004">MIN.</tspan><tspan x="20.285999 24.177999 26.124001 28.455" y="5.6139998">4 ft</tspan><tspan x="18.284 24.115 26.061001 31.115" y="12.614">MIN.</tspan></text><g clip-path="url(#p)"><g transform="translate(406.12 420.1)"><path d="m0 0h14.805c0.281 0 0.552 0.103 0.75 0.287 0.199 0.183 0.309 0.434 0.309 0.694v18.959c0 0.261-0.11 0.513-0.309 0.695-0.198 0.184-0.469 0.287-0.75 0.287h-14.805c-0.28 0-0.551-0.103-0.748-0.287-0.199-0.182-0.31-0.434-0.31-0.695v-18.959c0-0.337 0.191-0.655 0.498-0.834 0.174-0.106 0.358-0.129 0.56-0.147" fill="#fff"/><path d="m0 0h14.805c0.281 0 0.552 0.103 0.75 0.287 0.199 0.183 0.309 0.434 0.309 0.694v18.959c0 0.261-0.11 0.513-0.309 0.695-0.198 0.184-0.469 0.287-0.75 0.287h-14.805c-0.28 0-0.551-0.103-0.748-0.287-0.199-0.182-0.31-0.434-0.31-0.695v-18.959c0-0.337 0.191-0.655 0.498-0.834 0.174-0.106 0.358-0.129 0.56-0.147z" fill="none" stroke="#231f20" stroke-width=".25"/></g><g transform="translate(405.36 421.08)"><path d="m0 0v18.96c0 0.186 0.081 0.37 0.221 0.501 0.142 0.13 0.341 0.206 0.54 0.206h14.807c0.198 0 0.397-0.076 0.537-0.206 0.143-0.131 0.225-0.315 0.225-0.501v-18.96c0-0.186-0.082-0.37-0.225-0.5-0.14-0.131-0.339-0.208-0.537-0.208h-14.807c-0.199 0-0.398 0.077-0.54 0.208-0.14 0.13-0.221 0.314-0.221 0.5" fill="#231f20" fill-rule="evenodd"/></g><g transform="translate(405.77 421.08)"><path d="m0 0c0-0.086 0.035-0.167 0.101-0.228 0.067-0.062 0.154-0.095 0.246-0.095h14.807c0.092 0 0.18 0.033 0.245 0.095 0.066 0.061 0.101 0.142 0.101 0.228v18.959c0 0.087-0.035 0.169-0.101 0.23-0.065 0.061-0.153 0.094-0.245 0.094h-14.807c-0.092 0-0.179-0.033-0.246-0.094-0.066-0.061-0.101-0.143-0.101-0.23z" fill="#fff" fill-rule="evenodd"/></g><g transform="translate(418.34 434.11)"><path d="m0 0v-2.293c0-0.606-0.082-1.211-0.24-1.798-0.211-0.78-0.548-1.532-1.002-2.217-0.276-0.417-0.596-0.805-0.889-1.212-0.162-0.225-0.304-0.461-0.428-0.705-0.322-0.646-0.496-1.347-0.496-2.058v-1.762h-3.056v1.762c0 1.25 0.296 2.502 0.906 3.619 0.161 0.297 0.354 0.582 0.575 0.844 0.154 0.184 0.312 0.366 0.472 0.545 0.207 0.231 0.404 0.46 0.549 0.73 0.381 0.709 0.517 1.508 0.521 2.292l0.012 2.243-1.783-0.541c-0.056-0.017-0.114-0.027-0.172-0.029-0.226-4e-3 -0.427 0.082-0.555 0.258-0.123 0.17-0.131 0.392-0.037 0.575 0.027 0.053 0.07 0.094 0.106 0.14l3.947 5.286 4.023-5.294c0.031-0.041 0.122-0.147 0.145-0.216 0.017-0.058 0.027-0.116 0.025-0.179-3e-3 -0.275-0.209-0.515-0.502-0.571-0.114-0.021-0.228-3e-3 -0.336 0.03z" fill="#231f20" fill-rule="evenodd"/></g><g transform="translate(412.2 438.01)"><path d="m0 0c-0.013-0.562-0.029-1.126-0.068-1.687-0.066-0.919-0.199-1.833-0.406-2.733-0.149-0.658-0.338-1.307-0.536-1.952-0.17-0.55-0.372-1.092-0.636-1.609-0.041-0.084-0.092-0.165-0.148-0.243-0.181-0.244-0.391-0.418-0.692-0.531-0.379-0.139-0.809-0.135-1.185 0.011-0.391 0.152-0.666 0.441-0.827 0.801-0.143 0.322-0.273 0.65-0.384 0.982-0.162 0.473-0.307 0.951-0.436 1.432-0.342 1.27-0.621 2.558-0.723 3.864-0.043 0.554-0.056 1.11-0.07 1.665z" fill="#231f20" fill-rule="evenodd"/></g><g transform="translate(412.84 409.78)"><path d="m0 0-5.386-5.385c-0.181-0.182-0.281-0.424-0.281-0.681 1e-3 -0.257 0.101-0.499 0.281-0.678l5.386-5.386c0.374-0.372 0.983-0.372 1.358 0l5.384 5.386c0.182 0.179 0.281 0.421 0.282 0.678 0 0.257-0.099 0.499-0.282 0.681l-5.384 5.385c-0.375 0.374-0.984 0.374-1.358 0" fill="#fccf34"/><path d="m0 0-5.386-5.385c-0.181-0.182-0.281-0.424-0.281-0.681 1e-3 -0.257 0.101-0.499 0.281-0.678l5.386-5.386c0.374-0.372 0.983-0.372 1.358 0l5.384 5.386c0.182 0.179 0.281 0.421 0.282 0.678 0 0.257-0.099 0.499-0.282 0.681l-5.384 5.385c-0.375 0.374-0.984 0.374-1.358 0zm-5.145-5.627 5.386 5.385c0.24 0.24 0.634 0.24 0.875 0l5.386-5.385c0.239-0.241 0.239-0.634 0-0.874l-5.386-5.386c-0.241-0.241-0.635-0.241-0.875 0l-5.386 5.386c-0.24 0.24-0.24 0.633 0 0.874zm9.228 0.107c0.302 0.302 0.792 0.302 1.091 0 0.301-0.299 0.301-0.79 0-1.091-0.299-0.299-0.789-0.299-1.091 0-0.302 0.301-0.302 0.792 0 1.091zm-1.966-1.954c0.299 0.3 0.791 0.3 1.091 0 0.302-0.301 0.302-0.792 0-1.092-0.3-0.299-0.792-0.299-1.091 0-0.301 0.3-0.301 0.791 0 1.092zm-1.983-1.986c0.301 0.302 0.792 0.302 1.091 0 0.301-0.301 0.301-0.79 0-1.091-0.299-0.302-0.79-0.302-1.091 0-0.3 0.301-0.3 0.79 0 1.091zm1.996 5.892c0.3 0.3 0.791 0.3 1.091 0 0.301-0.3 0.301-0.792 0-1.091-0.3-0.301-0.791-0.301-1.091 0-0.302 0.299-0.302 0.791 0 1.091zm-1.984-1.956c0.302 0.302 0.792 0.302 1.093 0 0.302-0.3 0.302-0.791 0-1.09-0.301-0.302-0.791-0.302-1.093 0-0.298 0.299-0.298 0.79 0 1.09zm-1.963-1.996c0.301 0.3 0.791 0.3 1.092 0 0.3-0.301 0.3-0.792 0-1.093-0.301-0.299-0.791-0.299-1.092 0-0.3 0.301-0.3 0.792 0 1.093zm1.961 5.946c0.302 0.301 0.791 0.301 1.092 0s0.301-0.792 0-1.091c-0.301-0.302-0.79-0.302-1.092 0-0.3 0.299-0.3 0.79 0 1.091zm-1.963-1.962c0.301 0.3 0.791 0.3 1.091 0 0.301-0.301 0.301-0.792 0-1.092-0.3-0.301-0.79-0.301-1.091 0-0.301 0.3-0.301 0.791 0 1.092zm-1.984-1.987c0.3 0.301 0.791 0.301 1.092 0 0.301-0.3 0.301-0.79 0-1.091-0.301-0.3-0.792-0.3-1.092 0-0.302 0.301-0.302 0.791 0 1.091z" fill="none" stroke="#231f20" stroke-miterlimit="2.613" stroke-width=".25"/></g></g><text transform="matrix(1 0 0 -1 38.089 580.24)" fill="#231f20" font-family="Helvetica" font-size="8px" font-weight="bold"><tspan x="0 5.776 8 10.664 13.752 19.368 25.191999 30.968 36.743999 42.080002 44.304001 50.080002 55.416 57.639999 62.976002 65.199997 71.424004" y="0">C - ROADSIDE SIGN</tspan><tspan x="0 13.752 15.976 21.752001 23.976 29.752001 35.528 40.863998 43.088001 48.863998 54.200001 59.535999 64.872002" y="9"> IN BUSINESS,</tspan><tspan x="0 13.752 19.528 25.752001 32.416 39.080002 44.416 50.192001 55.967999 58.192001 63.967999 68.856003 70.760002 72.984001 79.208" y="18"> COMMERCIAL, OR</tspan><tspan x="0 13.752 19.528 24.864 30.200001 32.424 38.200001 43.535999 49.312 54.200001 56.424 62.200001 67.087997 69.311996 75.087997 80.863998 86.199997" y="27"> RESIDENTIAL AREA</tspan></text><g clip-path="url(#o)"><path d="m167.59 507.37h-2.729v59.635h2.729z" fill="none" stroke="#231f20" stroke-width=".5"/><g transform="translate(160.61 501.69)"><path d="m0 0 1.491 2.231 1.716 2.567 4.774-4.594m-4.652-0.039-1.723 1.846m3.683-1.739-2.862 3.051m-10.026-3.698 1.492 2.231 1.716 2.568 4.776-4.594m-4.654-0.039-1.722 1.846m3.683-1.739-2.863 3.051m13.228-1.95 3.051 3.985m-4.64-2.713 1.985 2.618m-9.715-3.541 3.051 3.987m-10.301-4.367 3.05 3.986m2.978-2.421 1.985 2.618m5.724-1.612 1.413 1.362m37.135-4.679 1.491 2.232 1.716 2.568 4.773-4.595m-4.652-0.04-1.723 1.847m3.683-1.739-2.861 3.051m-10.025-3.699 1.491 2.232 1.717 2.568 4.773-4.595m-4.652-0.04-1.723 1.848m3.683-1.74-2.864 3.051m13.23-1.95 3.05 3.986m-4.639-2.713 1.985 2.618m-9.715-3.54 3.05 3.985m-10.301-4.366 3.05 3.985m2.977-2.421 1.985 2.62m5.727-1.614 1.412 1.363" fill="none" stroke="#231f20" stroke-width=".75"/></g><g transform="translate(81.354 491.06)"><path d="m0 0 70.68-1v16.928m-11.285-7.425-52.863 1m128 6.425h-69.492c-5.94 0-5.345-7.127-5.345-9.503v-7.268" fill="none" stroke="#231f20"/></g><g transform="translate(82.245 491.36)"><path d="m0 0c1.145 0.746 1.131 1.162 1.181 2.368 0.068 1.72 0.446 1.488 1.737 2.139 0.397 1.428-0.679 2.123 0.632 3.213 0.403 0.336 1.05 0.578 1.489 0.967 0.444 0.395 0.78 0.366 1.289 0.727m52.688 6.709v58.896m16.596-0.796v-6.369m18.471 6.635h11.146m-7.857-38.329v-16.852" fill="none" stroke="#231f20" stroke-width=".75"/></g><g transform="translate(180.15 509.73)"><path d="m0 0c0.263 0.867 0.504 1.432 0.784 2.128h-2.649c0.119-0.25 0.521-1.261 0.783-2.128 0.281-0.93 0.473-1.772 0.541-2.318 0.069 0.546 0.261 1.388 0.541 2.318" fill="#231f20"/></g><g transform="translate(179.62 562.67)"><path d="m0 0v-18.172" fill="none" stroke="#231f20" stroke-width=".75"/></g><g transform="translate(179.08 563.16)"><path d="m0 0c-0.262-0.868-0.504-1.432-0.783-2.129h2.648c-0.118 0.25-0.521 1.261-0.783 2.129-0.28 0.929-0.472 1.771-0.541 2.318-0.068-0.547-0.26-1.389-0.541-2.318" fill="#231f20"/></g><g transform="translate(144.71 561.34)"><path d="m0 0h9.697" fill="none" stroke="#231f20" stroke-width=".75"/></g><g transform="translate(155.16 561.88)"><path d="m0 0c-0.867 0.262-1.432 0.504-2.128 0.783v-2.648c0.249 0.118 1.261 0.521 2.128 0.783 0.929 0.281 1.772 0.473 2.318 0.541-0.546 0.068-1.389 0.261-2.318 0.541" fill="#231f20"/></g><g transform="translate(143.95 560.8)"><path d="m0 0c0.868-0.262 1.432-0.504 2.129-0.783v2.648c-0.25-0.119-1.261-0.521-2.129-0.783-0.929-0.281-1.771-0.473-2.318-0.541 0.547-0.069 1.389-0.26 2.318-0.541" fill="#231f20"/></g><g transform="translate(89.192 493.57)"><path d="m0 0 3.11 2.001m7.333-1.389-0.222-2.666m14.22 5.11 1.556 2.223m-7.11-7.333 2.666 1.778m14.442 3.943 3.111-2.444m-5.554-2.444 3.332-0.222m-24.663 5.61-2.223 1.778m38.218-4.944 2 2.444m4.889 2 2.444 4.221m0.444-9.998 1.999-3.333" fill="none" stroke="#231f20" stroke-width=".75"/></g></g><text transform="matrix(1 0 0 -1 148.91 542.56)" fill="#231f20" font-family="Helvetica" font-size="7px" font-weight="bold"><tspan x="0 3.892 5.8379998 8.1689997" y="0">2 ft</tspan><tspan x="-2.0020001 3.829 5.7750001 10.829" y="8.0010004">MIN.</tspan><tspan x="24.108 28 29.945999 32.277 34.608002" y="5.0749998">7 ft*</tspan><tspan x="23.471001 29.302 31.247999 36.301998" y="13.076">MIN.</tspan></text><g clip-path="url(#n)"><g transform="translate(159.27 565.85)"><path d="m0 0h14.102c0.778 0 1.41 0.629 1.41 1.409v18.311c0 0.779-0.632 1.411-1.41 1.411h-14.102c-0.779 0-1.409-0.632-1.409-1.411v-18.311c0-0.779 0.631-1.409 1.409-1.409" fill="#fff" fill-rule="evenodd"/><path d="m0 0h14.102c0.778 0 1.41 0.629 1.41 1.409v18.311c0 0.779-0.632 1.411-1.41 1.411h-14.102c-0.779 0-1.409-0.632-1.409-1.411v-18.311c0-0.779 0.631-1.409 1.409-1.409z" fill="none" stroke="#231f20" stroke-miterlimit="2.613" stroke-width=".25"/></g><g transform="translate(159.27 566.14)"><path d="m0 0h14.09c0.623 0 1.128 0.503 1.128 1.127v18.314c0 0.623-0.505 1.127-1.128 1.127h-14.09c-0.623 0-1.127-0.504-1.127-1.127v-18.314c0-0.623 0.505-1.127 1.127-1.127" fill="#231f20" fill-rule="evenodd"/></g><g transform="translate(159.27 566.56)"><path d="m0 0h14.089c0.39 0 0.705 0.315 0.705 0.704v18.315c0 0.39-0.315 0.705-0.705 0.705h-14.089c-0.388 0-0.704-0.315-0.704-0.705v-18.315c0-0.389 0.315-0.704 0.704-0.704" fill="#fff" fill-rule="evenodd"/></g><g transform="translate(172.42 582.77)"><path d="m0 0c0-0.388-0.14-0.646-0.438-0.805-0.119-0.069-0.258-0.11-0.407-0.11h-0.398v1.82h0.398c0.149 0 0.298-0.04 0.427-0.11 0.278-0.159 0.418-0.417 0.418-0.795m0.507 0c0 0.557-0.239 0.984-0.676 1.233-0.209 0.119-0.438 0.179-0.676 0.179h-0.915v-2.833h0.915c0.229 0 0.467 0.059 0.666 0.169 0.447 0.248 0.686 0.685 0.686 1.252m-2.833-1.421v0.506h-1.601v0.775h0.845v0.518h-0.845v0.527h1.551v0.507h-2.068v-2.833zm-2.684 0v0.506h-1.6v0.775h0.844v0.518h-0.844v0.527h1.55v0.507h-2.068v-2.833zm-3.092 1.967c0-0.208-0.168-0.348-0.417-0.348h-0.825v0.707h0.825c0.249 0 0.417-0.14 0.417-0.359m0.508 0c0 0.319-0.17 0.597-0.438 0.746-0.159 0.089-0.288 0.12-0.507 0.12h-1.322v-2.833h0.517v1.113h0.805c0.219 0 0.348 0.02 0.507 0.109 0.268 0.149 0.438 0.448 0.438 0.745m-2.834-1.143c0 0.309-0.159 0.577-0.407 0.706-0.16 0.08-0.408 0.159-0.786 0.239-0.347 0.079-0.447 0.149-0.447 0.308 0 0.179 0.169 0.288 0.458 0.288 0.268 0 0.497-0.089 0.676-0.278l0.377 0.338c-0.288 0.298-0.636 0.437-1.053 0.437-0.577 0-0.974-0.318-0.974-0.785 0-0.179 0.059-0.348 0.178-0.477 0.12-0.139 0.269-0.209 0.557-0.279l0.139-0.04 0.129-0.029 0.129-0.039c0.13-0.031 0.239-0.07 0.339-0.11 0.118-0.06 0.179-0.15 0.179-0.259 0-0.208-0.259-0.367-0.617-0.367-0.318 0-0.546 0.109-0.755 0.357l-0.408-0.318c0.318-0.368 0.686-0.548 1.173-0.548 0.258 0 0.517 0.071 0.716 0.191 0.268 0.159 0.397 0.377 0.397 0.665" fill="#231f20" fill-rule="evenodd"/></g><g transform="translate(171.51 579.45)"><path d="m0 0v0.496h-2.128v-0.496h0.815v-2.336h0.498v2.336zm-2.594 0.496h-0.507v-2.832h0.507zm-1.243-2.832v2.832h-0.497l-0.835-1.679-0.825 1.679h-0.497v-2.832h0.497v1.73l0.825-1.73 0.835 1.73v-1.73zm-3.38 2.832h-0.507v-2.832h0.507zm-0.984-2.832v0.437h-1.61v2.395h-0.507v-2.832z" fill="#231f20" fill-rule="evenodd"/></g><g transform="translate(171.75 572.23)"><path d="m0 0c0-1.459-0.642-2.422-1.68-2.422-1.062 0-1.704 0.865-1.704 2.422 0 1.037 0.444 2.346 1.704 2.346 1.063 0 1.68-0.889 1.68-2.371zm1.26 0c0 1.778-0.841 3.606-2.94 3.606-2.075 0-2.964-1.778-2.964-3.631s0.864-3.66 2.964-3.66c2.124 0 2.94 1.882 2.94 3.685m-7.559-1.137c0 1.458-1.161 2.545-2.767 2.545-0.445 0-0.79-0.05-1.358-0.173l0.074 1.012h3.483l0.024 1.235h-4.692l-0.224-3.31 1.261-0.32c0.518 0.197 0.889 0.271 1.359 0.271 0.518 0 0.888-0.099 1.135-0.296 0.272-0.223 0.445-0.593 0.445-0.964 0-0.79-0.642-1.259-1.704-1.259-0.717 0-1.433 0.197-2.051 0.567l-0.666-1.061c0.889-0.544 1.753-0.795 2.717-0.795 1.729 0 2.964 1.066 2.964 2.548" fill="#231f20" fill-rule="evenodd"/></g><g transform="translate(154.88 548.95)"><path d="m0 0-4.026 8.896" fill="none" stroke="#231f20" stroke-width=".75"/></g><g transform="translate(149.85 558.76)"><path d="m0 0c0.119-0.899 0.132-1.512 0.164-2.261l2.413 1.091c-0.211 0.179-0.994 0.934-1.591 1.617-0.639 0.73-1.161 1.419-1.449 1.888 0.163-0.526 0.336-1.373 0.463-2.335" fill="#231f20"/></g></g><text transform="matrix(1 0 0 -1 36.144 479.5)" fill="#231f20" font-family="Helvetica" font-size="8px"><tspan x="0 3.112 3.4319999 10.984 15.432 19.879999 22.544001 26.992001 29.216 33.664001 38.112 40.896 44.896 46.672001 51.119999 55.568001 57.792 62.240002 64.903999 67.127998 71.575996 76.024002 80.472 84.919998 88.919998 91.143997 93.928001 95.704002 100.152 104.6 106.824 113.488 117.816 121.616 126.064 132.728 137.17599 141.62399 143.84801 147.84801 150.07201 154.52 157.18401 161.632 163.856 165.632 167.408 171.248 175.696 177.472 181.472 183.696 185.92 190.368 192.592 197.03999 201.03999 205.03999 209.48801" y="0">* Where parking or pedestrian movements are likely to occur</tspan></text><g clip-path="url(#m)"><g transform="translate(523.82 302.97)"><path d="m0 0c0.618 0.104 0.71-0.207 1.042-0.596 0.094-0.111 0.59-0.818 0.629-0.83 0.617-0.171 1.207 1.327 1.445 1.774 0.66-0.199 0.851-0.846 1.092-1.412 0.193 0.093 0.508 0.193 0.682 0.342 0.258 0.216 0.337 0.714 0.582 0.876 0.198 0.133 1.147 0.081 1.372 0.032 0.633-0.139 0.54-0.449 0.944-0.729" fill="none" stroke="#231f20" stroke-width=".75"/></g><g transform="translate(323 289.68)"><path d="m0 0h200.55m-200.55-4.719h200.55m0.336 17.866v-185.21m7.753 185.21v-185.76" fill="none" stroke="#231f20"/></g><g transform="translate(323.92 285.04)"><path d="m0 0c-0.486 0.732-0.245 1.39-0.172 2.171 0.08 0.838-0.692 1.53-9e-3 2.174m72.709-101.55v-58.761" fill="none" stroke="#231f20" stroke-width=".75"/></g><g transform="translate(396.99 128.24)"><path d="m0 0c0.263 0.868 0.504 1.432 0.784 2.129h-2.649c0.118-0.249 0.522-1.261 0.783-2.129 0.281-0.929 0.473-1.772 0.541-2.318 0.069 0.546 0.261 1.389 0.541 2.318" fill="#231f20"/></g><g transform="translate(396.45 262.56)"><path d="m0 0v-56.733" fill="none" stroke="#231f20" stroke-width=".75"/></g><g transform="translate(395.91 263.16)"><path d="m0 0c-0.262-0.869-0.504-1.433-0.783-2.129h2.648c-0.118 0.249-0.521 1.26-0.783 2.129-0.28 0.928-0.472 1.771-0.541 2.317-0.068-0.546-0.26-1.389-0.541-2.317" fill="#231f20"/></g><g transform="translate(473.73 134.29)"><path d="m0 0v-11.098m40.855 8.162h5.817" fill="none" stroke="#231f20" stroke-width=".75"/></g><g transform="translate(521.12 131.89)"><path d="m0 0c-0.868 0.263-1.432 0.504-2.129 0.783v-2.648c0.249 0.118 1.261 0.521 2.129 0.783 0.929 0.28 1.772 0.473 2.318 0.541-0.546 0.068-1.389 0.261-2.318 0.541" fill="#231f20"/></g><g transform="translate(477.97 131.36)"><path d="m0 0h6.8" fill="none" stroke="#231f20" stroke-width=".75"/></g><g transform="translate(476.42 130.82)"><path d="m0 0c0.868-0.262 1.433-0.504 2.129-0.783v2.648c-0.249-0.118-1.261-0.521-2.129-0.783-0.929-0.28-1.771-0.473-2.317-0.541 0.546-0.068 1.388-0.261 2.317-0.541" fill="#231f20"/></g><g transform="translate(406.73 122.92)"><path d="m0 0-1.382-2.104m6.372-3.213 1.109 2.748" fill="none" stroke="#231f20" stroke-width=".75"/></g></g><g clip-path="url(#l)"><g transform="translate(333.94 119.43)"><path d="m0 0 98.583-6.118 0.584 9.403m-91.49 6.152 196.14-12.174" fill="none" stroke="#231f20"/></g></g><g clip-path="url(#k)"><g transform="translate(337.56 122.83)"><path d="m0 0 2.592 1.403m7.62-3.29-1.074 2.884m6.701 2.088-1.382-2.104m32.265-4.508-3.312 2.084m-22.58-0.789 1.109 2.748m6.469-1.654 4.109 0.683m20.811-2.543 2.59 1.404m7.619-3.289-1.072 2.883m-34.057 0.862 4.109 0.683m-35.307-2.662c0.206 0.189 0.28 0.429 0.426 0.662 0.131 0.207 0.317 0.229 0.543 0.27 0.307 0.056 0.423 0.156 0.545 0.451 0.137 0.335 0.155 0.545 0.078 0.892-0.075 0.338-0.113 0.719-0.099 1.062 0.014 0.366 0.096 0.546 0.357 0.805 0.162 0.159 0.391 0.432 0.608 0.492 0.062 0.016 0.171-0.016 0.242-0.011 0.099 0.01 0.249 0.11 0.332 0.11 0.199 8e-3 0.295-0.285 0.467-5e-3 0.158 0.259 0.11 0.868 0.109 1.161-3e-3 0.458-0.243 0.781 0.08 1.184 0.213 0.266 0.42 0.464 0.74 0.552 0.388 0.107 0.618 0.312 0.864 0.619 0.185 0.232 0.407 0.346 0.664 0.498 0.25 0.149 0.371 0.102 0.658 0.11 0.225 8e-3 0.504 0.094 0.723 0.047" fill="none" stroke="#231f20" stroke-width=".75"/></g><g transform="translate(433.15 115.22)"><path d="m0 0 40.003-2.482 0.482 7.747m-39.778-5.078 5.194 6.991m-2.881-7.135 5.194 6.991m-2.881-7.134 5.193 6.991m-2.879-7.135 5.192 6.991m-2.88-7.135 5.194 6.992m-2.881-7.135 5.193 6.991m-2.881-7.135 5.194 6.992m-2.88-7.135 5.192 6.991m-2.879-7.135 5.192 6.991m-2.879-7.134 5.191 6.991m-2.879-7.135 5.193 6.991m-2.879-7.134 5.192 6.991m-2.879-7.135 5.192 6.991m-2.879-7.135 5.191 6.992m-2.879-7.135 5.193 6.991m-2.88-7.135 5.193 6.992m-2.882-7.135 2.637 3.32m-40.308 1.341 3.432 4.777" fill="none" stroke="#231f20"/></g><g transform="translate(460.9 102.33)"><path d="m0 0c-6.333-0.833-6.833 7.333-6.833 7.333" fill="none" stroke="#231f20" stroke-width=".75"/></g><g transform="translate(453.45 110.87)"><path d="m0 0c-0.208-0.883-0.415-1.461-0.651-2.173l2.644 0.162c-0.134 0.241-0.598 1.226-0.913 2.076-0.336 0.91-0.58 1.739-0.681 2.28-0.035-0.549-0.175-1.401-0.399-2.345" fill="#231f20"/></g></g><text transform="matrix(1 0 0 -1 324.73 297.92)" fill="#231f20" font-family="Helvetica" font-size="8px" font-weight="bold"><tspan x="0 5.776 8 10.664 13.768 19.591999 24.927999 30.264 36.040001 41.816002 47.152 52.928001 58.703999 60.928001 66.264 68.487999 74.711998" y="0">H - OVERHEAD SIGN</tspan></text><text transform="matrix(1 0 0 -1 486.34 128.72)" fill="#231f20" font-family="Helvetica" font-size="7px" font-weight="bold"><tspan x="0 3.892 5.8379998 8.1689997 10.5 12.446 18.277 20.223 25.277" y="0">6 ft MIN.</tspan><tspan x="-24.268999 -19.6 -15.323 -11.046 -6.7690001 -4.823 -0.546 3.346" y="29.372">Shoulder</tspan><tspan x="-97.244003 -93.351997 -89.459999 -87.514 -85.182999" y="-70.217003">17 ft</tspan><tspan x="-97.300003 -91.469002 -89.523003 -84.469002" y="-61.215">MIN.</tspan></text><g clip-path="url(#j)"><path d="m401.65 278.82h-2.249v5.746h2.249z" fill="#231f20"/><path d="m441.84 278.82h-2.248v5.746h2.248z" fill="#231f20"/><g transform="translate(399.77 282.5)"><path d="m0 0h41.708c1.863 0 3.383-1.519 3.383-3.384v-10.151c0-1.863-1.52-3.385-3.383-3.385h-41.708c-1.865 0-3.384 1.522-3.384 3.385v10.151c0 1.841 1.545 3.384 3.384 3.384" fill="#fff" stroke="#231f20" stroke-width=".25"/></g><g transform="translate(441.46 281.23)"><path d="m0 0c1.166-6e-3 2.128-0.961 2.131-2.131l-3e-3 -10.244c-0.063-1.082-0.937-1.924-2.003-2.004l-41.801-2e-3c-1.166 4e-3 -2.128 0.963-2.132 2.131l4e-3 10.244c0.064 1.086 0.934 1.924 2.003 2.004l41.801 2e-3" fill="#00674c" fill-rule="evenodd"/></g><g transform="translate(400 269.85)"><path d="m0 0v6.412h3.016v-0.898h-2.093v-1.621h1.327v-0.877h-1.327v-2.116h2.34v-0.9z" fill="#fff"/></g><g transform="translate(413.25 269.85)"><path d="m0 0v4.801l-1.59-4.801-1.589 4.801v-4.801h-1.231v8.551h1.231l1.589-4.801 1.59 4.801h1.231v-8.551z" fill="#fff"/></g><g transform="translate(418.68 272.61)"><path d="m0 0c-0.631 0.57-1.74 0.42-1.74-0.69 0-0.779 0.42-1.109 1.019-1.109 0.42 0 0.721 0.18 0.721 0.57zm0.059-2.76v0.18c-0.209-0.18-0.66-0.27-1.049-0.27-1.05 0-1.951 0.93-1.951 2.19 0 1.771 1.5 2.55 2.941 1.861-0.03 0.75-0.03 1.32-0.99 1.32-0.54 0-1.08-0.451-1.29-0.781l-0.3 1.17c0.51 0.48 1.139 0.721 1.739 0.721 1.65 0 2.011-1.2 2.011-2.221v-4.17z" fill="#fff"/></g><path d="m421.29 276.09h1.2v-6.24h-1.2zm0.6 1.201c-0.33 0-0.6 0.27-0.6 0.6 0 0.359 0.27 0.629 0.6 0.629 0.36 0 0.63-0.27 0.63-0.629 0-0.33-0.27-0.6-0.63-0.6" fill="#fff"/><g transform="translate(427.17 269.85)"><path d="m0 0v4.26c0 0.81-0.45 0.99-1.051 0.99-0.449-0.029-0.869-0.269-0.869-0.99v-4.26h-1.2v6.24h1.17v-0.269c0.54 0.689 3.149 0.75 3.149-1.68v-4.291z" fill="#fff"/></g><g transform="translate(435.49 269.74)"><path d="m0 0c-1.129 0-1.805 0.948-1.805 2.009h0.902c0-0.542 0.272-1.106 0.903-1.106 0.496 0 0.903 0.451 0.903 0.971 0 0.36-0.135 0.632-0.519 0.925-0.136 0.135 0.226-0.113-1.084 0.767-0.518 0.361-0.79 0.858-0.79 1.422 0 0.926 0.723 1.67 1.649 1.67 0.902 0 1.601-0.699 1.625-1.67h-0.881c-0.023 0.451-0.338 0.745-0.744 0.745-0.43 0-0.768-0.316-0.768-0.745 0-0.316 0.135-0.496 0.609-0.768 1.242-0.721 1.784-1.421 1.784-2.346 0-1.038-0.79-1.874-1.784-1.874" fill="#fff"/></g><g transform="translate(439.91 269.97)"><path d="m0 0c-0.293-0.158-0.473-0.203-0.699-0.203-0.678-0.046-0.881 0.541-0.881 1.219v2.708h-0.609v0.857h0.609v1.355l0.903 0.496v-1.851h0.745v-0.857h-0.745v-2.618c0-0.317 0.045-0.451 0.316-0.451 0.203 0 0.294 0.067 0.497 0.225z" fill="#fff"/></g></g><text transform="matrix(1 0 0 -1 35.089 266.39)" fill="#231f20" font-family="Helvetica" font-size="8px" font-weight="bold"><tspan x="0 6.224 8.448 11.112 13.336 18.224001 24 29.336 34.672001 41.743999 46.639999 51.976002 54.200001 60.424 66.199997 68.424004 73.760002 79.096001 84.431999 90.208 95.543999 100.88 106.216 113.288 118.184 123.52 125.744 131.08 133.304 139.528 145.304 146.888 154.44 156.664 161.552 167.328 169.552 174.888 180.224 186 192.224 198 203.45599 209.23199 214.608 219.944 222.168 227.504 229.728 235.952" y="0">G - FREEWAY OR EXPRESSWAY SIGN WITH SECONDARY SIGN</tspan></text><g clip-path="url(#i)"><g transform="translate(38.575 122.3)"><path d="m0 0 25.091-2.092v8.016" fill="none" stroke="#231f20" stroke-width="2"/></g></g><g clip-path="url(#h)"><g transform="translate(38.409 129.05)"><path d="m0 0-1.093-3.029 2.441-3.701m5.803 1.177 2.44 1.682m5.636-0.084 2.524-2.269m222.18-17.911 3.397 1.461m-3.268-3.179 5.417 2.191m-4.558-3.611 6.578 2.967 0.129-7.008m-4.944 4.513 0.044-1.117m1.504 1.936 0.043-2.28m1.547 2.924v-3.998m1.892 2.149 3.398 1.463m-3.269-3.182 5.417 2.193m1.117-4.429 3.397 1.462m-3.268-3.181 5.418 2.193m-12.382-0.088 6.578 2.967 0.13-7.008m-4.257 4.514 0.043-1.117m1.935 1.935 0.043-2.279m-6.192 6.406v-3.998m8.987-5.461 5.027 2.409m-131.42 112.92v-70.404m-102.66-8.74v63.5m138.56-49.57v-11.407" fill="none" stroke="#231f20" stroke-width=".75"/></g><g transform="translate(203.25 132.73)"><path d="m0 0c0.262 0.869 0.504 1.433 0.783 2.129h-2.649c0.119-0.248 0.521-1.26 0.784-2.129 0.28-0.928 0.472-1.772 0.541-2.317 0.068 0.545 0.26 1.389 0.541 2.317" fill="#231f20"/></g><g transform="translate(202.71 175.4)"><path d="m0 0v-12.934" fill="none" stroke="#231f20" stroke-width=".75"/></g><g transform="translate(202.17 176.64)"><path d="m0 0c-0.262-0.867-0.503-1.431-0.783-2.129h2.649c-0.119 0.25-0.521 1.262-0.784 2.129-0.28 0.93-0.472 1.772-0.541 2.319-0.068-0.547-0.26-1.389-0.541-2.319" fill="#231f20"/></g></g><g clip-path="url(#g)"><g transform="translate(35.389 99.706)"><path d="M 0,0 37.394,29.943 M 4.966,0 42.357,29.943 M 9.929,0 47.324,29.943 M 14.893,0 52.286,29.943 M 19.859,0 57.253,29.943 M 24.823,0 62.215,29.943 M 29.789,0 67.182,29.943 M 34.752,0 72.144,29.943 M 39.719,0 77.111,29.943 M 44.681,0 82.075,29.943 M 49.647,0 87.038,29.943 M 54.611,0 92.004,29.943" fill="none" stroke="#231f20"/></g></g><g clip-path="url(#f)"><g transform="translate(64.181 128.22)"><path d="m0 0 17.867-1.492 32.877-4.994v-6.36l-50.083 7.911z" fill="none" stroke="#231f20"/></g><g transform="translate(155.67 142.93)"><path d="m0 0h6.965" fill="none" stroke="#231f20" stroke-width=".75"/></g><g transform="translate(164.12 143.47)"><path d="m0 0c-0.868 0.264-1.432 0.504-2.129 0.783v-2.648c0.25 0.119 1.261 0.522 2.129 0.783 0.929 0.282 1.771 0.473 2.318 0.541-0.547 0.069-1.389 0.262-2.318 0.541" fill="#231f20"/></g><g transform="translate(118.97 142.93)"><path d="m0 0h7.539" fill="none" stroke="#231f20" stroke-width=".75"/></g><g transform="translate(117.76 142.39)"><path d="m0 0c0.868-0.262 1.432-0.504 2.128-0.783v2.648c-0.249-0.117-1.26-0.521-2.128-0.783-0.929-0.279-1.771-0.473-2.318-0.541 0.547-0.068 1.389-0.26 2.318-0.541" fill="#231f20"/></g><g transform="translate(70.496 108.33)"><path d="m0 0c-2.501 2.75 0.5 9.75 0.5 9.75" fill="none" stroke="#231f20" stroke-width=".75"/></g><g transform="translate(70.99 119.44)"><path d="m0 0c-0.583-0.693-1.027-1.117-1.559-1.646l2.435-1.045c-0.011 0.277 0.017 1.365 0.119 2.265 0.108 0.965 0.263 1.815 0.415 2.344-0.278-0.475-0.786-1.174-1.41-1.918" fill="#231f20"/></g><g transform="translate(115.06 146.88)"><path d="m0 0v-24.697" fill="none" stroke="#231f20" stroke-width=".75"/></g></g><text transform="matrix(1 0 0 -1 128.29 140.37)" fill="#231f20" font-family="Helvetica" font-size="7px" font-weight="bold"><tspan x="0 3.717 5.4879999 7.6440001 9.8000002 11.571 17.226999 18.997999 23.877001" y="0">6 ft MIN.</tspan></text><g clip-path="url(#e)"><g transform="translate(132.32 189.56)"><path d="m0 0h30.315" fill="none" stroke="#231f20" stroke-width=".75"/></g><g transform="translate(164.3 190.09)"><path d="m0 0c-0.867 0.264-1.432 0.504-2.128 0.783v-2.648c0.25 0.119 1.261 0.521 2.128 0.783 0.93 0.281 1.772 0.473 2.318 0.541-0.546 0.069-1.388 0.262-2.318 0.541" fill="#231f20"/></g><g transform="translate(67.202 189.56)"><path d="m0 0h32.702" fill="none" stroke="#231f20" stroke-width=".75"/></g><g transform="translate(66.849 189.02)"><path d="m0 0c0.868-0.262 1.432-0.504 2.128-0.783v2.648c-0.249-0.117-1.26-0.521-2.128-0.783-0.929-0.279-1.771-0.473-2.318-0.541 0.547-0.068 1.389-0.26 2.318-0.541" fill="#231f20"/></g></g><text transform="matrix(1 0 0 -1 101.34 187.24)" fill="#231f20" font-family="Helvetica" font-size="7px" font-weight="bold"><tspan x="0 3.717 7.434 9.2049999 11.361 13.517 15.288 20.944 22.715 27.594" y="0">12 ft MIN.</tspan><tspan x="-30.107 -25.438 -21.160999 -16.884001 -12.607 -10.661 -6.3839998 -2.4920001" y="83.488998">Shoulder</tspan><tspan x="96.082001 99.973999 101.92 104.251" y="31.871">5 ft</tspan><tspan x="94.080002 99.911003 101.857 106.911" y="40.873001">MIN.</tspan></text><g clip-path="url(#d)"><g transform="translate(286.41 149.1)"><path d="m0 0v-16.133" fill="none" stroke="#231f20" stroke-width=".75"/></g><g transform="translate(286.94 132.76)"><path d="m0 0c0.263 0.867 0.504 1.432 0.784 2.129h-2.649c0.119-0.25 0.522-1.262 0.783-2.129 0.281-0.93 0.473-1.771 0.541-2.318 0.069 0.547 0.261 1.388 0.541 2.318" fill="#231f20"/></g><g transform="translate(286.41 205.32)"><path d="m0 0v-39.291" fill="none" stroke="#231f20" stroke-width=".75"/></g><g transform="translate(285.87 205.67)"><path d="m0 0c-0.262-0.867-0.504-1.431-0.783-2.129h2.649c-0.119 0.25-0.522 1.262-0.784 2.129-0.28 0.93-0.472 1.772-0.541 2.319-0.068-0.547-0.26-1.389-0.541-2.319" fill="#231f20"/></g></g><text transform="matrix(1 0 0 -1 280.86 160.17)" fill="#231f20" font-family="Helvetica" font-size="7px" font-weight="bold"><tspan x="0 3.892 5.8379998 8.1689997" y="0">8 ft</tspan><tspan x="-2.0020001 3.829 5.7750001 10.829" y="9.0019999">MIN.</tspan></text><g clip-path="url(#c)"><g transform="translate(271.19 208.37)"><path d="m0 0h20.393" fill="none" stroke="#231f20" stroke-width=".75"/></g></g><text transform="matrix(1 0 0 -1 48.24 71.923)" fill="#231f20" font-family="Helvetica" font-size="9px"><tspan x="0 6.4980001 11.502 14.004 19.007999" y="0">Note:</tspan><tspan x="0 6.0029998 11.007 16.011 18.513 24.516001 29.52 34.02 36.521999 38.52 43.523998 48.528 51.029999 56.034 62.036999 64.539001 69.542999 74.546997 77.049004 79.280998 84.285004 87.281998 89.783997 92.780998 97.785004 102.789 107.793 112.293 117.297 122.301 124.803 126.801 131.80499 134.30701 139.311 142.308 147.312 149.31 151.812 156.81599 159.31799 161.82001 166.32001 171.32401 173.826 176.328 181.332 183.33 187.83 190.332 195.336 200.34 204.84 209.84399 214.34399 216.84599 219.34801 224.35201 229.356 231.858 234.36 241.85699 246.50101 251.00101 253.50301 258.50699 263.51099 266.013 271.017 275.517 280.521 285.52499 288.02701 290.02499 295.02899 297.53101 302.535 305.53201 310.53601 315.54001 320.04001 322.54199 329.04001 334.04401 339.048 342.04501 347.04901 349.55099 351.54901 356.55301 359.05499 364.05899 367.056 372.06 374.05801 376.56 381.564 384.06601 386.56799 391.06799 396.07199 398.57401 403.07401 405.57599 410.57999 413.577 418.58099 421.08301 423.08099 425.07901 432.57599 434.57401 437.07599 442.07999 447.08401 449.586 452.08801 457.09201 462.09601 467.10001 469.60199 471.60001 476.604" y="9.5039997">See Section 2A.19 for reduced lateral offset distances that may be used in areas where lateral offsets are limited, and in </tspan><tspan x="0 4.8239999 9.8280001 14.328 16.326 21.33 26.334 30.834 35.199001 37.701 40.202999 44.702999 49.707001 57.203999 64.700996 69.705002 72.702003 77.202003 79.199997 84.204002 86.202003 88.704002 91.206001 96.209999 99.207001 101.709 104.706 109.71 114.21 116.208 121.212 126.216 131.22 133.722 135.72 140.724 142.722 145.224 150.228 153.22501 158.229 163.233 167.733 170.235 176.733 181.737 186.741 189.73801 194.742 197.244 201.744 203.742 208.746 213.57001 219.933 224.937 226.935 231.435 233.937 240.435 242.433 247.437 249.939 254.94299 257.44501 259.44299 263.94299 266.44501 268.44299 270.44101 277.93799 279.936 282.43799 287.44199 292.44601 294.948 299.952 302.94901 305.45099 311.94901 316.953 321.957 324.95401 329.95801 332.45999 337.194 341.694 343.69199 348.19199 350.694 352.69199 357.69601 362.70001 365.202 370.20599 375.20999 377.20801 382.21201 386.71201 389.21399 394.21799 397.215 402.21899 404.72101 409.22101 411.21899 416.22299 420.72299 425.72699 428.229 430.73099 435.73499 438.237 440.73901 445.74301 450.74701 453.24899 457.74899 462.75299 465.75 470.39401" y="19.007999">business, commercial, or residential areas where sidewalk width is limited or where existing poles are close to the curb.</tspan></text><g clip-path="url(#b)"><g transform="translate(41.162 637.74)"><path d="m0 0 25.09-2.092" fill="none" stroke="#231f20" stroke-width="2"/></g><g transform="translate(60.506 632.1)"><path d="m0 0 2.439 1.682m-18.877 1.34 2.523-2.271m5.462 0.948 2.523-2.271m-10.693-299.27-1.976-3.697 2.44-3.701" fill="none" stroke="#231f20" stroke-width=".75"/></g><g fill="#fff" stroke="#231f20" stroke-width=".5"><path d="m199.37 214.13h1.731v-13.696h-1.731z"/><path d="m237.35 214.13h1.732v-13.696h-1.732z"/><path d="m179.51 211.64h3.463v-95.783h-3.463z"/><path d="m255.48 211.64h3.463v-100.8h-3.463z"/></g><g transform="translate(271.75 213.62)"><path d="m0 0c0-2.889-2.364-5.252-5.252-5.252h-94.537c-2.889 0-5.252 2.363-5.252 5.252v38.514c0 2.889 2.363 5.252 5.252 5.252h94.537c2.888 0 5.252-2.363 5.252-5.252z" fill="#fff"/><path d="m0 0c0-2.889-2.364-5.252-5.252-5.252h-94.537c-2.889 0-5.252 2.363-5.252 5.252v38.514c0 2.889 2.363 5.252 5.252 5.252h94.537c2.888 0 5.252-2.363 5.252-5.252z" fill="none" stroke="#231f20" stroke-width=".5"/></g><g transform="translate(171.96 256.22)"><path d="m0 0c-0.548 0-1.081-0.107-1.583-0.321-0.487-0.207-0.924-0.502-1.301-0.879s-0.673-0.815-0.88-1.302c-0.213-0.502-0.321-1.034-0.321-1.583v-38.514c0-0.548 0.108-1.081 0.321-1.583 0.207-0.487 0.503-0.924 0.88-1.301s0.814-0.673 1.301-0.88c0.502-0.213 1.035-0.321 1.583-0.321h94.537c0.548 0 1.081 0.108 1.583 0.321 0.486 0.207 0.924 0.503 1.301 0.88 0.376 0.377 0.672 0.814 0.879 1.301 0.213 0.502 0.322 1.035 0.322 1.583v38.514c0 0.549-0.109 1.081-0.322 1.583-0.207 0.487-0.503 0.925-0.879 1.302-0.377 0.377-0.815 0.672-1.301 0.879-0.502 0.214-1.035 0.321-1.583 0.321z" fill="#00674c"/></g><g transform="translate(248.99 182.71)"><path d="m0 0c0-1.926-1.576-3.501-3.502-3.501h-52.52c-1.926 0-3.502 1.575-3.502 3.501v21.008c0 1.925 1.576 3.501 3.502 3.501h52.52c1.926 0 3.502-1.576 3.502-3.501z" fill="#fff"/><path d="m0 0c0-1.926-1.576-3.501-3.502-3.501h-52.52c-1.926 0-3.502 1.575-3.502 3.501v21.008c0 1.925 1.576 3.501 3.502 3.501h52.52c1.926 0 3.502-1.576 3.502-3.501z" fill="none" stroke="#231f20" stroke-width=".5"/></g><g transform="translate(192.97 206.34)"><path d="m0 0c-0.698 0-1.356-0.274-1.854-0.772s-0.772-1.156-0.772-1.854v-21.008c0-0.698 0.274-1.356 0.772-1.854s1.156-0.772 1.854-0.772h52.52c0.698 0 1.356 0.274 1.854 0.772s0.773 1.156 0.773 1.854v21.008c0 0.698-0.275 1.356-0.773 1.854s-1.156 0.772-1.854 0.772z" fill="#00674c"/></g><g transform="translate(187.65 247.42)"><path d="m0 0c1.167-0.289 2.481-0.904 2.481-2.485 0-0.82-0.439-1.613-1.125-1.996-0.466-0.273-1.289-0.437-2.03-0.437-0.878 0-1.729 0.246-2.415 0.71-0.246 0.137-0.411 0.274-0.768 0.602l1.098 1.094c0.658-0.602 1.262-0.848 2.167-0.848 0.906 0 1.536 0.301 1.536 0.848 0 0.219-0.136 0.519-0.356 0.656-0.274 0.164-0.549 0.246-1.564 0.438-0.823 0.191-1.317 0.355-1.646 0.574-0.521 0.355-0.851 1.039-0.851 1.695 0 0.793 0.412 1.503 1.098 1.913 0.439 0.274 0.96 0.383 1.646 0.383 0.878 0 1.701-0.191 2.36-0.602 0.164-0.109 0.247-0.164 0.494-0.355l-0.961-1.23c-0.631 0.465-1.207 0.629-1.948 0.629-0.713 0-1.152-0.246-1.152-0.738 0-0.709 0.902-0.597 1.936-0.851" fill="#fff"/></g><g transform="translate(207.03 244.93)"><path d="m0 0c-0.467 0.164-1.017 0.246-1.319 0.246-0.494 0-0.879-0.273-0.879-0.629 0-0.355 0.467-0.656 1.016-0.656 0.33 0 0.742 0.055 1.182 0.301zm0-2.297v0.192c-0.55-0.219-1.072-0.274-1.511-0.274-1.264 0-2.171 0.793-2.171 1.914 0 1.176 1.017 2.051 2.363 2.051 0.33 0 0.852-0.055 1.319-0.219-0.028 0.547-0.44 0.766-1.017 0.766-0.549 0-1.071-0.137-1.621-0.438l-0.576 1.231c0.851 0.437 1.428 0.601 2.197 0.601 1.566 0 2.5-0.765 2.5-2.351v-3.473z" fill="#fff"/></g><g transform="translate(252.14 247.06)"><path d="m0 0c-0.412 0-0.797-0.273-0.961-0.793h1.869c-0.22 0.574-0.468 0.793-0.908 0.793m-1.044-2.078c0.165-0.656 0.632-1.039 1.127-1.039 0.329 0 0.632 0.191 0.879 0.519l1.072-0.929c-0.578-0.684-1.182-0.985-1.951-0.985-1.456 0-2.719 1.285-2.719 2.953 0 1.641 1.236 2.953 2.636 2.953 0.935 0 1.786-0.574 2.199-1.476 0.219-0.52 0.329-1.066 0.329-1.777v-0.219z" fill="#fff"/></g><g transform="translate(220.97 242.63)"><path d="m0 0v3.418c0 0.52-0.385 0.93-0.907 0.93-0.549 0-1.153-0.41-1.153-0.875v-3.473h-1.567v7.327l1.567 0.602v-2.542c0.659 0.355 1.044 0.465 1.565 0.465 1.127 0 2.033-0.848 2.033-1.914v-3.938z" fill="#fff"/></g><g transform="translate(232.71 242.68)"><path d="m0 0v3.418c0 0.52-0.468 0.93-1.018 0.93-0.522 0-0.99-0.438-0.99-0.875v-3.473h-1.485v3.418c0 0.52-0.44 0.93-0.99 0.93s-1.017-0.41-1.017-0.902v-3.446h-1.568v5.688h1.568v-0.301c0.549 0.328 0.935 0.437 1.485 0.437 0.604 0 1.1-0.218 1.513-0.656 0.742 0.52 1.099 0.656 1.759 0.656 1.21 0 2.283-0.82 2.283-1.914v-3.91z" fill="#fff"/></g><g transform="translate(239.3 247.02)"><path d="m0 0c-0.603 0-1.07-0.656-1.07-1.504 0-0.82 0.467-1.477 1.07-1.477 0.576 0 1.097 0.657 1.097 1.477 0 0.848-0.521 1.504-1.097 1.504m0-4.457c-1.426 0-2.633 1.312-2.633 2.953 0 1.695 1.152 2.98 2.633 2.98 1.371 0 2.688-1.339 2.688-2.98s-1.289-2.953-2.688-2.953" fill="#fff"/></g><g transform="translate(201.65 246.53)"><path d="m0 0c-0.22 0.355-0.605 0.492-0.908 0.492-0.689 0-0.909-0.41-0.909-1.203v-3.145h-1.57v5.688h1.57v-0.274c0.385 0.301 0.716 0.41 1.129 0.41 0.468 0 0.826-0.109 1.212-0.41z" fill="#fff"/></g><g transform="translate(247.8 246.53)"><path d="m0 0c-0.22 0.355-0.606 0.492-0.909 0.492-0.688 0-0.908-0.41-0.908-1.203v-3.145h-1.569v5.688h1.569v-0.274c0.386 0.301 0.716 0.41 1.129 0.41 0.468 0 0.826-0.109 1.211-0.41z" fill="#fff"/></g><g transform="translate(194.3 247)"><path d="m0 0v-2.133c0-0.52 0.11-0.821 0.688-0.766 0.412 0.027 0.495 0.137 0.769 0.41l-0.412-1.613c-0.522-0.219-0.467-0.301-1.017-0.301-1.072 0-1.567 0.629-1.567 1.75v2.653h-1.072v1.339h1.072v1.667l1.539 0.602v-2.241h1.457v-1.367z" fill="#fff"/></g><g transform="translate(213.39 247)"><path d="m0 0v-2.133c0-0.52 0.111-0.821 0.688-0.766 0.412 0.027 0.494 0.137 0.769 0.41l-0.412-1.613c-0.522-0.219-0.468-0.301-1.017-0.301-1.073 0-1.567 0.629-1.567 1.75v2.653h-1.072v1.339h1.072v1.667l1.539 0.602v-2.241h1.457v-1.367z" fill="#fff"/></g><g transform="translate(240.84 235.3)"><path d="m0 0h-2.291v-1.777h2.291c0.602 0 0.985 0.355 0.985 0.902 0 0.492-0.41 0.875-0.985 0.875m1.313-3.007c-0.465-0.246-0.793-0.328-1.504-0.328h-2.1v-2.926h-1.531v7.82h3.713c0.656 0 0.984-0.082 1.422-0.328 0.738-0.438 1.203-1.231 1.203-2.106 0-0.902-0.465-1.722-1.203-2.132" fill="#fff"/></g><g transform="translate(227.75 232.84)"><path d="m0 0c-0.22 0.383-0.632 0.547-1.017 0.547-0.632 0-1.126-0.656-1.126-1.475 0-0.821 0.494-1.477 1.154-1.477 0.357 0 0.769 0.164 0.989 0.547zm0-3.8v0.274c-0.275-0.246-0.825-0.356-1.264-0.356-1.318 0-2.445 1.368-2.445 2.954 0 1.585 1.127 2.952 2.472 2.952 0.412 0 0.908-0.11 1.237-0.383v1.887l1.456 0.601v-7.929z" fill="#fff"/></g><g transform="translate(200.05 233.39)"><path d="m0 0v-4.347h-1.478v4.347l-0.739-0.027v1.367h0.739v0.684c0 1.039 0.493 1.531 1.561 1.531 0.274 0 0.657-0.027 0.986-0.082v-1.449c-0.384 0.082-0.439 0.082-0.603 0.082-0.274 0-0.466-0.164-0.466-0.438v-0.328h1.069v-1.34z" fill="#fff"/></g><g transform="translate(204.98 233.39)"><path d="m0 0v-4.347h-1.479v4.347l-0.739-0.027v1.367h0.739v0.684c0 1.039 0.493 1.531 1.561 1.531 0.274 0 0.657-0.027 0.986-0.082v-1.449c-0.383 0.082-0.438 0.082-0.603 0.082-0.274 0-0.465-0.164-0.465-0.438v-0.328h1.068v-1.34z" fill="#fff"/></g><g transform="translate(209.24 235.44)"><path d="m0 0c-0.411 0-0.74 0.355-0.74 0.766 0 0.437 0.329 0.765 0.74 0.765 0.439 0 0.768-0.328 0.768-0.765 0-0.411-0.329-0.766-0.768-0.766m-0.768-0.711h1.564v-5.687h-1.564z" fill="#fff"/></g><g transform="translate(262.13 232.98)"><path d="m0 0 1.593-3.937h-1.593l-1.044 2.625-0.907-0.902v-1.723h-1.566v7.328l1.566 0.601v-3.855l1.649 1.586h1.95z" fill="#fff"/></g><g transform="translate(220.05 229.04)"><path d="m0 0v7.328l1.564 0.601v-7.929z" fill="#fff"/></g><g transform="translate(178.53 233.82)"><path d="m0 0c1.167-0.287 2.481-0.904 2.481-2.484 0-0.82-0.439-1.613-1.125-1.996-0.466-0.273-1.289-0.437-2.03-0.437-0.878 0-1.728 0.246-2.415 0.711-0.246 0.136-0.411 0.273-0.768 0.601l1.098 1.094c0.658-0.602 1.262-0.848 2.168-0.848 0.905 0 1.536 0.301 1.536 0.848 0 0.219-0.138 0.52-0.357 0.656-0.274 0.164-0.549 0.246-1.564 0.438-0.823 0.191-1.317 0.354-1.646 0.573-0.521 0.355-0.85 1.039-0.85 1.695 0 0.793 0.411 1.504 1.097 1.914 0.439 0.274 0.96 0.383 1.646 0.383 0.878 0 1.701-0.191 2.36-0.601 0.164-0.11 0.247-0.164 0.494-0.356l-0.961-1.23c-0.631 0.465-1.207 0.629-1.948 0.629-0.713 0-1.152-0.246-1.152-0.739 0-0.708 0.902-0.595 1.936-0.851" fill="#fff"/></g><g transform="translate(248.21 231.34)"><path d="m0 0c-0.467 0.164-1.016 0.246-1.319 0.246-0.494 0-0.879-0.273-0.879-0.628 0-0.356 0.467-0.657 1.017-0.657 0.33 0 0.741 0.055 1.181 0.301zm0-2.297v0.192c-0.549-0.219-1.072-0.274-1.511-0.274-1.264 0-2.17 0.793-2.17 1.915 0 1.175 1.016 2.049 2.362 2.049 0.33 0 0.852-0.054 1.319-0.218-0.028 0.546-0.44 0.765-1.016 0.765-0.55 0-1.071-0.137-1.621-0.437l-0.577 1.23c0.851 0.438 1.428 0.602 2.198 0.602 1.565 0 2.5-0.766 2.5-2.351v-3.473z" fill="#fff"/></g><g transform="translate(215.1 233.47)"><path d="m0 0c-0.412 0-0.797-0.273-0.961-0.792h1.869c-0.22 0.573-0.468 0.792-0.908 0.792m-1.044-2.077c0.165-0.656 0.632-1.039 1.127-1.039 0.329 0 0.632 0.191 0.879 0.52l1.071-0.93c-0.577-0.684-1.181-0.985-1.95-0.985-1.456 0-2.719 1.286-2.719 2.954 0 1.639 1.236 2.952 2.636 2.952 0.935 0 1.786-0.574 2.199-1.477 0.219-0.519 0.329-1.065 0.329-1.776v-0.219z" fill="#fff"/></g><g transform="translate(193.66 233.47)"><path d="m0 0c-0.412 0-0.797-0.273-0.962-0.792h1.868c-0.219 0.573-0.467 0.792-0.906 0.792m-1.044-2.077c0.165-0.656 0.632-1.039 1.126-1.039 0.33 0 0.632 0.191 0.88 0.52l1.071-0.93c-0.577-0.684-1.182-0.985-1.951-0.985-1.456 0-2.72 1.286-2.72 2.954 0 1.639 1.237 2.952 2.638 2.952 0.934 0 1.785-0.574 2.197-1.477 0.221-0.519 0.331-1.065 0.331-1.776v-0.219z" fill="#fff"/></g><g transform="translate(187.06 229.04)"><path d="m0 0v3.418c0 0.519-0.385 0.929-0.907 0.929-0.549 0-1.153-0.41-1.153-0.874v-3.473h-1.567v7.328l1.567 0.601v-2.543c0.659 0.356 1.043 0.465 1.565 0.465 1.126 0 2.033-0.848 2.033-1.914v-3.937z" fill="#fff"/></g><g transform="translate(256.21 232.94)"><path d="m0 0c-0.221 0.355-0.607 0.492-0.91 0.492-0.688 0-0.908-0.41-0.908-1.202v-3.145h-1.569v5.687h1.569v-0.273c0.386 0.3 0.716 0.41 1.129 0.41 0.468 0 0.826-0.11 1.211-0.41z" fill="#fff"/></g><g transform="translate(247.93 215.91)"><path d="m0 0v5.836h4.275v-1.044h-3.206v-1.086h1.747v-1.065h-1.747v-1.596h3.308v-1.045z" fill="#fff"/></g><path d="m239.99 221.75h1.051v-5.836h-1.051z" fill="#fff"/><g transform="translate(242.56 215.91)"><path d="m0 0v5.836h1.048v-4.935h3.329v-0.901z" fill="#fff"/></g><g transform="translate(237.45 215.91)"><path d="m0 0v3.563l-1.727-3.563-1.706 3.563v-3.563h-1.028v5.836h1.028l1.706-3.46 1.727 3.46h1.027v-5.836z" fill="#fff"/></g><g transform="translate(213.58 217.37)"><path d="m0 0 0.02 4.361h-0.733l-0.02 0.84c0.448 0.102 0.692 0.265 0.916 0.635h0.834v-5.836z" fill="#fff"/></g><g transform="translate(219.5 214.45)"><path d="m0 0c0 0.696 0.143 1.208 0.472 1.782 0.514 0.859 1.254 1.392 2.323 1.679 0.659 0.184 0.885 0.388 0.885 0.737 0 0.43-0.411 0.676-1.151 0.676-0.762 0-1.317-0.185-1.81-0.635l-0.719 0.798c0.677 0.594 1.521 0.901 2.466 0.901 1.378 0 2.263-0.676 2.263-1.74 0-0.492-0.206-0.942-0.597-1.27-0.184-0.143-0.452-0.287-0.863-0.41-0.781-0.224-1.008-0.327-1.357-0.635-0.268-0.224-0.432-0.45-0.638-0.838h3.455v-1.045z" fill="#fff"/></g><g transform="translate(215.18 214.45)"><path d="m0 0h-1.042l5.089 8.754h1.042z" fill="#fff"/></g><g transform="translate(186.15 215.91)"><path d="m0 0v5.836h4.273v-1.044h-3.205v-1.086h1.746v-1.065h-1.746v-1.596h3.308v-1.045z" fill="#fff"/></g><path d="m197.59 221.75h1.05v-5.836h-1.05z" fill="#fff"/><g transform="translate(202.33 220.72)"><path d="m0 0v-4.812h-1.022v4.812h-1.678v1.024h4.377v-1.024z" fill="#fff"/></g><g transform="translate(195.19 215.91)"><path d="m0 0-1.316 2.068-1.296-2.068h-1.234l1.912 3.071-1.748 2.765h1.255l1.111-1.782 1.11 1.782h1.255l-1.728-2.765 1.913-3.071z" fill="#fff"/></g><g transform="translate(202.86 196.18)"><path d="m0 0v5.835h4.274v-1.044h-3.206v-1.085h1.747v-1.064h-1.747v-1.598h3.309v-1.044z" fill="#fff"/></g><path d="m235.42 202.02h1.051v-5.835h-1.051z" fill="#fff"/><g transform="translate(200.43 196.18)"><path d="m0 0-2.797 4.013v-4.013h-1.028v5.835h1.028l2.694-3.849v3.849h1.007v-5.835z" fill="#fff"/></g><g transform="translate(216.47 200.99)"><path d="m0 0v-4.812h-1.022v4.812h-1.678v1.023h4.377v-1.023z" fill="#fff"/></g><g transform="translate(211.9 196.18)"><path d="m0 0-1.316 2.068-1.296-2.068h-1.234l1.913 3.071-1.748 2.764h1.255l1.11-1.781 1.111 1.781h1.254l-1.727-2.764 1.913-3.071z" fill="#fff"/></g><g transform="translate(223.98 196.18)"><path d="m0 0v5.835h4.273v-1.044h-3.205v-1.085h1.746v-1.064h-1.746v-1.598h3.308v-1.044z" fill="#fff"/></g><g transform="translate(240.17 200.99)"><path d="m0 0v-4.812h-1.023v4.812h-1.678v1.023h4.377v-1.023z" fill="#fff"/></g><g transform="translate(233.02 196.18)"><path d="m0 0-1.316 2.068-1.295-2.068h-1.235l1.913 3.071-1.749 2.764h1.255l1.111-1.781 1.111 1.781h1.254l-1.728-2.764 1.913-3.071z" fill="#fff"/></g><g transform="translate(203.37 186.53)"><path d="m0 0c-0.492 3e-3 -0.984-0.057-1.231-0.178-0.4-0.15-0.617-0.425-0.618-0.731-3e-3 -0.581 0.733-0.952 1.808-0.958 1.015-5e-3 1.662 0.359 1.665 0.941 3e-3 0.551-0.579 0.921-1.624 0.926m-0.111-3.611c-1.076 5e-3 -2.149 0.377-2.7 0.962-0.611 0.616-0.944 1.627-0.939 2.759 9e-3 1.745 0.878 3.363 2.327 4.365 0.926 0.639 1.972 0.94 3.202 0.933l0.245-1e-3 -8e-3 -1.744c-0.092 0-0.185 1e-3 -0.215 1e-3 -1.629 8e-3 -2.831-0.721-3.515-2.155 0.554 0.149 1.107 0.239 1.63 0.236 0.799-4e-3 1.658-0.223 2.18-0.501 0.766-0.463 1.253-1.291 1.249-2.21-8e-3 -1.591-1.396-2.655-3.456-2.645" fill="#fff"/></g><path d="m220.98 190.34h1.051v-5.835h-1.051z" fill="#fff"/><g transform="translate(223.54 184.51)"><path d="m0 0v5.835h1.047v-4.934h3.33v-0.901z" fill="#fff"/></g><g transform="translate(218.43 184.51)"><path d="m0 0v3.563l-1.726-3.563-1.706 3.563v-3.563h-1.029v5.835h1.029l1.706-3.46 1.726 3.46h1.028v-5.835z" fill="#fff"/></g><g transform="translate(236.28 187.13)"><path d="m0 0c-0.26 0.073-0.913 0.229-1.133 0.358-0.439 0.258-0.775 0.679-0.775 1.304 0 0.962 0.822 1.617 2.015 1.617 0.864 0 1.583-0.286 2.18-0.901l-0.781-0.696c-0.37 0.389-0.844 0.573-1.399 0.573-0.596 0-0.946-0.225-0.946-0.593 0-0.329 0.206-0.472 0.926-0.635 0.781-0.164 1.295-0.328 1.624-0.491 0.514-0.267 0.843-0.82 0.843-1.454 0-0.594-0.267-1.044-0.823-1.373-0.411-0.246-0.945-0.388-1.48-0.388-1.008 0-1.769 0.368-2.427 1.126l0.844 0.655c0.432-0.512 0.904-0.737 1.562-0.737 0.741 0 1.276 0.327 1.276 0.758 0 0.547-0.597 0.626-1.506 0.877" fill="#fff"/></g><g transform="translate(228.91 184.51)"><path d="m0 0v5.835h4.273v-1.044h-3.205v-1.085h1.747v-1.065h-1.747v-1.597h3.309v-1.044z" fill="#fff"/></g></g><g clip-path="url(#a)"><g transform="translate(291.58 130.01)"><path d="m0 0h-223.84" fill="none" stroke="#231f20" stroke-width=".75"/></g><g transform="translate(36.482 129.62)"><path d="m0 0c36.941 0 55.266-3.547 77.461-7.436 21.845-3.828 160.11-12.057 164.29-13.799 4.182-1.742 11.152-3.136 21.259-12.197" fill="none" stroke="#231f20" stroke-width="2"/></g></g></g></svg>
