<?xml version="1.0" encoding="UTF-8"?>
<svg width="499.67pt" height="442.63pt" version="1.2" viewBox="0 0 499.67 442.63" xmlns="http://www.w3.org/2000/svg" xmlns:xlink="http://www.w3.org/1999/xlink"><defs><symbol id="aq" overflow="visible"><path d="m0.76562-6.4531h4.4844v0.78125h-3.6094v1.9688h3.1719v0.76562h-3.1719v2.9375h-0.875z"/></symbol><symbol id="q" overflow="visible"><path d="m3.6875-3.5c0.40625 0 0.72656-0.078125 0.96875-0.23438 0.23828-0.16406 0.35938-0.46094 0.35938-0.89062 0-0.46875-0.16797-0.78516-0.5-0.95312-0.17969-0.082031-0.41797-0.125-0.71875-0.125h-2.125v2.2031zm-2.8906-2.9531h2.9844c0.48828 0 0.89453 0.074219 1.2188 0.21875 0.60156 0.27344 0.90625 0.77734 0.90625 1.5156 0 0.38672-0.085937 0.70312-0.25 0.95312-0.15625 0.25-0.375 0.44922-0.65625 0.59375 0.25 0.10547 0.4375 0.24219 0.5625 0.40625 0.125 0.16797 0.19531 0.4375 0.21875 0.8125l0.03125 0.85938c0.00781 0.25 0.03125 0.43359 0.0625 0.54688 0.050781 0.21094 0.14453 0.34375 0.28125 0.40625v0.14062h-1.0781c-0.03125-0.050781-0.058594-0.11719-0.078125-0.20312-0.011719-0.09375-0.023437-0.26562-0.03125-0.51562l-0.0625-1.0781c-0.023437-0.42578-0.17969-0.71094-0.46875-0.85938-0.16797-0.070313-0.42969-0.10938-0.78125-0.10938h-1.9844v2.7656h-0.875z"/></symbol><symbol id="p" overflow="visible"><path d="m3.4688-6.625c1.1445 0 1.9883 0.36719 2.5312 1.0938 0.42578 0.57422 0.64062 1.3047 0.64062 2.1875 0 0.96875-0.24609 1.7734-0.73438 2.4062-0.57422 0.75-1.3906 1.125-2.4531 1.125-0.99219 0-1.7734-0.32812-2.3438-0.98438-0.5-0.63281-0.75-1.4297-0.75-2.3906 0-0.875 0.21094-1.625 0.64062-2.25 0.5625-0.78906 1.3828-1.1875 2.4688-1.1875zm0.09375 6.0312c0.76953 0 1.3281-0.27344 1.6719-0.82812 0.34375-0.55078 0.51562-1.1875 0.51562-1.9062 0-0.75781-0.19922-1.3672-0.59375-1.8281-0.39844-0.46875-0.9375-0.70312-1.625-0.70312-0.67969 0-1.2305 0.23047-1.6562 0.6875-0.41797 0.46094-0.625 1.1367-0.625 2.0312 0 0.71875 0.17969 1.3242 0.54688 1.8125 0.36328 0.49219 0.95312 0.73438 1.7656 0.73438z"/></symbol><symbol id="ak" overflow="visible"><path d="m0.6875-6.4531h1.0312l3.2656 5.2344v-5.2344h0.82812v6.4531h-0.98438l-3.3125-5.2188v5.2188h-0.82812z"/></symbol><symbol id="aj" overflow="visible"><path d="m5.3906-6.4531v0.76562h-2.1875v5.6875h-0.875v-5.6875h-2.1875v-0.76562z"/></symbol><symbol id="z" overflow="visible"><path d="m4-2.6406-0.98438-2.8594-1.0312 2.8594zm-1.4375-3.8125h0.98438l2.3438 6.4531h-0.95312l-0.65625-1.9375h-2.5469l-0.70312 1.9375h-0.90625z"/></symbol><symbol id="ai" overflow="visible"><path d="m3.4688-6.625c0.61328 0 1.1406 0.12109 1.5781 0.35938 0.64453 0.33594 1.0391 0.92188 1.1875 1.7656h-0.875c-0.10547-0.46875-0.32422-0.8125-0.65625-1.0312-0.33594-0.21875-0.75-0.32812-1.25-0.32812-0.59375 0-1.1016 0.22656-1.5156 0.67188-0.40625 0.44922-0.60938 1.1211-0.60938 2.0156 0 0.76172 0.16406 1.3867 0.5 1.875 0.34375 0.48047 0.89453 0.71875 1.6562 0.71875 0.58203 0 1.0625-0.16406 1.4375-0.5 0.38281-0.34375 0.58203-0.89453 0.59375-1.6562h-2.0156v-0.71875h2.8281v3.4531h-0.5625l-0.20312-0.82812c-0.30469 0.32422-0.57031 0.54688-0.79688 0.67188-0.375 0.21875-0.85938 0.32812-1.4531 0.32812-0.77344 0-1.4297-0.25-1.9688-0.75-0.60547-0.61328-0.90625-1.4609-0.90625-2.5469 0-1.082 0.28906-1.9414 0.875-2.5781 0.5625-0.61328 1.2812-0.92188 2.1562-0.92188z"/></symbol><symbol id="ah" overflow="visible"><path d="m0.76562-6.4531h4.7031v0.78125h-3.8438v1.9688h3.5625v0.75h-3.5625v2.1875h3.9219v0.76562h-4.7812z"/></symbol><symbol id="ag" overflow="visible"></symbol><symbol id="ap" overflow="visible"><path d="m3.1719-0.75c0.28906 0 0.53125-0.03125 0.71875-0.09375 0.34375-0.11328 0.625-0.33203 0.84375-0.65625 0.16406-0.25781 0.28906-0.59375 0.375-1 0.039063-0.23828 0.0625-0.46094 0.0625-0.67188 0-0.80078-0.16406-1.4219-0.48438-1.8594-0.3125-0.44531-0.82422-0.67188-1.5312-0.67188h-1.5469v4.9531zm-2.4531-5.7031h2.625c0.88281 0 1.5703 0.3125 2.0625 0.9375 0.4375 0.57422 0.65625 1.3047 0.65625 2.1875 0 0.6875-0.13281 1.3086-0.39062 1.8594-0.44922 0.98047-1.2305 1.4688-2.3438 1.4688h-2.6094z"/></symbol><symbol id="ao" overflow="visible"><path d="m0.89062-6.4531h0.875v6.4531h-0.875z"/></symbol><symbol id="an" overflow="visible"><path d="m0.375-2.9062h2.2031v0.8125h-2.2031z"/></symbol><symbol id="am" overflow="visible"><path d="m0.85938-4.4531v-0.60938c0.57031-0.050781 0.96875-0.14062 1.1875-0.26562 0.22656-0.13281 0.39844-0.44531 0.51562-0.9375h0.625v6.2656h-0.84375v-4.4531z"/></symbol><symbol id="al" overflow="visible"><path d="m2.4375-6.2969c0.8125 0 1.3984 0.33984 1.7656 1.0156 0.28125 0.51172 0.42188 1.2188 0.42188 2.125 0 0.85547-0.13281 1.5625-0.39062 2.125-0.36719 0.80469-0.96484 1.2031-1.7969 1.2031-0.76172 0-1.3242-0.32812-1.6875-0.98438-0.3125-0.55078-0.46875-1.2852-0.46875-2.2031 0-0.71875 0.09375-1.332 0.28125-1.8438 0.34375-0.95703 0.96875-1.4375 1.875-1.4375zm-0.015625 5.75c0.41406 0 0.74219-0.17969 0.98438-0.54688 0.23828-0.36328 0.35938-1.0391 0.35938-2.0312 0-0.71875-0.089844-1.3047-0.26562-1.7656-0.16797-0.45703-0.50781-0.6875-1.0156-0.6875-0.46875 0-0.8125 0.21875-1.0312 0.65625-0.21094 0.4375-0.3125 1.0859-0.3125 1.9375 0 0.63672 0.066406 1.1523 0.20312 1.5469 0.20703 0.59375 0.56641 0.89062 1.0781 0.89062z"/></symbol><symbol id="af" overflow="visible"><path d="m1.2344-2.0781c0.019531 0.36719 0.10156 0.66406 0.25 0.89062 0.28125 0.42969 0.78125 0.64062 1.5 0.64062 0.32031 0 0.61328-0.046875 0.875-0.14062 0.50781-0.1875 0.76562-0.51562 0.76562-0.98438 0-0.34375-0.10547-0.59375-0.3125-0.75-0.21875-0.14453-0.5625-0.26953-1.0312-0.375l-0.85938-0.20312c-0.55469-0.125-0.94922-0.26562-1.1875-0.42188-0.39844-0.26953-0.59375-0.67188-0.59375-1.2031 0-0.58203 0.19141-1.0625 0.57812-1.4375 0.39453-0.375 0.95312-0.5625 1.6719-0.5625 0.66406 0 1.2266 0.16797 1.6875 0.5 0.46875 0.32422 0.70312 0.84375 0.70312 1.5625h-0.8125c-0.042969-0.34375-0.13281-0.60938-0.26562-0.79688-0.26172-0.33203-0.70312-0.5-1.3281-0.5-0.51172 0-0.875 0.10938-1.0938 0.32812-0.21875 0.21094-0.32812 0.46094-0.32812 0.75 0 0.3125 0.12891 0.54297 0.39062 0.6875 0.16406 0.09375 0.54688 0.21484 1.1406 0.35938l0.89062 0.20312c0.42578 0.10547 0.75391 0.24219 0.98438 0.40625 0.40625 0.30469 0.60938 0.74219 0.60938 1.3125 0 0.71875-0.25781 1.2344-0.76562 1.5469-0.51172 0.30078-1.1055 0.45312-1.7812 0.45312-0.78125 0-1.3984-0.20312-1.8438-0.60938-0.44922-0.40625-0.66797-0.95703-0.65625-1.6562z"/></symbol><symbol id="d" overflow="visible"><path d="m2.4844-4.8125c0.33203 0 0.64844 0.078125 0.95312 0.23438 0.3125 0.15625 0.54688 0.35938 0.70312 0.60938 0.15625 0.24219 0.25781 0.51562 0.3125 0.82812 0.039063 0.21875 0.0625 0.57031 0.0625 1.0469h-3.375c0.00781 0.46875 0.11719 0.85156 0.32812 1.1406 0.20703 0.29297 0.53125 0.4375 0.96875 0.4375 0.39453 0 0.71875-0.13281 0.96875-0.40625 0.13281-0.16406 0.22656-0.35156 0.28125-0.5625h0.76562c-0.023437 0.17969-0.089844 0.375-0.20312 0.59375-0.11719 0.21094-0.24219 0.38281-0.375 0.51562-0.24219 0.23047-0.53125 0.38281-0.875 0.46875-0.1875 0.050781-0.40234 0.078125-0.64062 0.078125-0.57422 0-1.0586-0.21094-1.4531-0.64062-0.39844-0.42578-0.59375-1.0234-0.59375-1.7969 0-0.75 0.19531-1.3594 0.59375-1.8281 0.40625-0.47656 0.92969-0.71875 1.5781-0.71875zm1.2344 2.0781c-0.03125-0.34375-0.10547-0.61328-0.21875-0.8125-0.21094-0.38281-0.5625-0.57812-1.0625-0.57812-0.35547 0-0.65234 0.13672-0.89062 0.40625-0.24219 0.26172-0.37109 0.58984-0.39062 0.98438z"/></symbol><symbol id="a" overflow="visible"></symbol><symbol id="aa" overflow="visible"><path d="m0.75-6.4531h4.3906v0.78125h-3.5312v1.9688h3.1094v0.76562h-3.1094v2.9375h-0.85938z"/></symbol><symbol id="g" overflow="visible"><path d="m0.5625-4.6875h0.79688v4.6875h-0.79688zm0-1.7656h0.79688v0.89062h-0.79688z"/></symbol><symbol id="k" overflow="visible"><path d="m2.1875-4.7969c0.36328 0 0.67969 0.09375 0.95312 0.28125 0.14453 0.10547 0.29688 0.25781 0.45312 0.45312v-0.59375h0.70312v4.2812c0 0.59375-0.085937 1.0625-0.25 1.4062-0.32422 0.63281-0.93359 0.95312-1.8281 0.95312-0.49219 0-0.90625-0.11719-1.25-0.34375-0.33594-0.21875-0.52344-0.57422-0.5625-1.0625h0.78125c0.039063 0.21875 0.11719 0.38281 0.23438 0.5 0.16406 0.17578 0.4375 0.26562 0.8125 0.26562 0.59375 0 0.98438-0.21875 1.1719-0.65625 0.11328-0.25 0.16406-0.69531 0.15625-1.3438-0.15625 0.24219-0.34375 0.42188-0.5625 0.54688-0.21875 0.11328-0.50781 0.17188-0.85938 0.17188-0.5 0-0.9375-0.17969-1.3125-0.54688-0.375-0.36328-0.5625-0.96094-0.5625-1.7969 0-0.78906 0.1875-1.4062 0.5625-1.8438 0.375-0.44531 0.82812-0.67188 1.3594-0.67188zm1.4062 2.4219c0-0.58203-0.12109-1.0156-0.35938-1.2969-0.23047-0.28125-0.52734-0.42188-0.89062-0.42188-0.55469 0-0.92969 0.26172-1.125 0.78125-0.10547 0.28125-0.15625 0.64844-0.15625 1.0938 0 0.53125 0.10156 0.9375 0.3125 1.2188 0.20703 0.27344 0.48828 0.40625 0.84375 0.40625 0.5625 0 0.95703-0.25391 1.1875-0.76562 0.125-0.28906 0.1875-0.62891 0.1875-1.0156z"/></symbol><symbol id="r" overflow="visible"><path d="m1.3438-4.7031v3.125c0 0.24219 0.035156 0.43359 0.10938 0.57812 0.13281 0.28125 0.39062 0.42188 0.76562 0.42188 0.53906 0 0.91016-0.24219 1.1094-0.73438 0.10156-0.25781 0.15625-0.61719 0.15625-1.0781v-2.3125h0.78125v4.7031h-0.73438v-0.6875c-0.09375 0.17969-0.21875 0.32812-0.375 0.45312-0.29297 0.23828-0.64844 0.35938-1.0625 0.35938-0.65625 0-1.1055-0.22266-1.3438-0.67188-0.13672-0.23828-0.20312-0.55469-0.20312-0.95312v-3.2031z"/></symbol><symbol id="f" overflow="visible"><path d="m0.59375-4.7031h0.73438v0.8125c0.0625-0.15625 0.20703-0.34766 0.4375-0.57812 0.23828-0.22656 0.50781-0.34375 0.8125-0.34375 0.019531 0 0.046875 0.00781 0.078125 0.015625h0.17188v0.84375c-0.042969-0.00781-0.085937-0.015625-0.125-0.015625-0.042969-0.00781-0.085937-0.015625-0.125-0.015625-0.38672 0-0.6875 0.13281-0.90625 0.39062-0.21094 0.26172-0.3125 0.55859-0.3125 0.89062v2.7031h-0.76562z"/></symbol><symbol id="i" overflow="visible"><path d="m1.0312-1.4844c0.019531 0.27344 0.082031 0.47656 0.1875 0.60938 0.19531 0.26172 0.53516 0.39062 1.0156 0.39062 0.28906 0 0.54688-0.0625 0.76562-0.1875 0.21875-0.13281 0.32812-0.33203 0.32812-0.59375 0-0.20703-0.089844-0.36328-0.26562-0.46875-0.11719-0.0625-0.33984-0.13281-0.67188-0.21875l-0.60938-0.15625c-0.39844-0.10156-0.6875-0.21875-0.875-0.34375-0.33594-0.20703-0.5-0.5-0.5-0.875 0-0.44531 0.15625-0.80469 0.46875-1.0781 0.32031-0.28125 0.75-0.42188 1.2812-0.42188 0.6875 0 1.1875 0.21094 1.5 0.625 0.1875 0.26172 0.28125 0.54297 0.28125 0.84375h-0.73438c-0.011719-0.17578-0.074219-0.33594-0.1875-0.48438-0.17969-0.20703-0.48438-0.3125-0.92188-0.3125-0.29297 0-0.51562 0.058594-0.67188 0.17188-0.14844 0.11719-0.21875 0.26562-0.21875 0.45312 0 0.21094 0.097656 0.375 0.29688 0.5 0.11328 0.074219 0.28125 0.13672 0.5 0.1875l0.51562 0.125c0.5625 0.13672 0.9375 0.27344 1.125 0.40625 0.30078 0.19922 0.45312 0.51562 0.45312 0.95312 0 0.41797-0.15625 0.78125-0.46875 1.0938-0.3125 0.30078-0.78906 0.45312-1.4219 0.45312-0.6875 0-1.1797-0.16406-1.4688-0.48438-0.28125-0.32031-0.43359-0.71875-0.45312-1.1875z"/></symbol><symbol id="y" overflow="visible"><path d="m0.28125 0c0.019531-0.53906 0.125-1.0078 0.3125-1.4062 0.19531-0.40625 0.57031-0.77344 1.125-1.1094l0.82812-0.48438c0.375-0.21875 0.63281-0.40625 0.78125-0.5625 0.22656-0.23828 0.34375-0.51562 0.34375-0.82812 0-0.36328-0.10938-0.65625-0.32812-0.875-0.21094-0.21875-0.49219-0.32812-0.84375-0.32812-0.53125 0-0.90234 0.21094-1.1094 0.625-0.10547 0.21875-0.16406 0.52344-0.17188 0.90625h-0.79688c0.007813-0.53906 0.10938-0.98828 0.29688-1.3438 0.33203-0.60156 0.92578-0.90625 1.7812-0.90625 0.70703 0 1.2227 0.19922 1.5469 0.59375 0.32031 0.38672 0.48438 0.8125 0.48438 1.2812 0 0.51172-0.17188 0.94531-0.51562 1.2969-0.19922 0.21094-0.55859 0.46484-1.0781 0.76562l-0.59375 0.32812c-0.28125 0.15625-0.5 0.30859-0.65625 0.45312-0.29297 0.25-0.47656 0.53125-0.54688 0.84375h3.3594v0.75z"/></symbol><symbol id="x" overflow="visible"><path d="m3.0938-0.75c0.28906 0 0.53125-0.03125 0.71875-0.09375 0.33203-0.11328 0.60156-0.33203 0.8125-0.65625 0.17578-0.25781 0.30078-0.59375 0.375-1 0.039063-0.23828 0.0625-0.46094 0.0625-0.67188 0-0.80078-0.15625-1.4219-0.46875-1.8594-0.3125-0.44531-0.8125-0.67188-1.5-0.67188h-1.5156v4.9531zm-2.3906-5.7031h2.5625c0.875 0 1.5508 0.3125 2.0312 0.9375 0.42578 0.57422 0.64062 1.3047 0.64062 2.1875 0 0.6875-0.125 1.3086-0.375 1.8594-0.44922 0.98047-1.2148 1.4688-2.2969 1.4688h-2.5625z"/></symbol><symbol id="w" overflow="visible"><path d="m0.35938-2.9062h2.1719v0.8125h-2.1719z"/></symbol><symbol id="t" overflow="visible"><path d="m0.84375-4.4531v-0.60938c0.5625-0.050781 0.95312-0.14062 1.1719-0.26562 0.21875-0.13281 0.38281-0.44531 0.5-0.9375h0.60938v6.2656h-0.82812v-4.4531z"/></symbol><symbol id="h" overflow="visible"><path d="m0.71875-6.0156h0.78125v1.3125h0.73438v0.64062h-0.73438v3.0781c0 0.15625 0.054688 0.26562 0.17188 0.32812 0.0625 0.03125 0.16016 0.046875 0.29688 0.046875h0.125c0.039063 0 0.085938-0.003906 0.14062-0.015625v0.625c-0.085937 0.03125-0.17969 0.050781-0.28125 0.0625-0.09375 0.0078125-0.19531 0.015625-0.29688 0.015625-0.36719 0-0.61719-0.09375-0.75-0.28125-0.125-0.19531-0.1875-0.44141-0.1875-0.73438v-3.125h-0.625v-0.64062h0.625z"/></symbol><symbol id="s" overflow="visible"><path d="m0.5625-6.4844h0.78125v2.4219c0.1875-0.23828 0.35156-0.41016 0.5-0.51562 0.25-0.16406 0.55469-0.25 0.92188-0.25 0.67578 0 1.1289 0.24219 1.3594 0.71875 0.13281 0.26172 0.20312 0.625 0.20312 1.0938v3.0156h-0.79688v-2.9688c0-0.34375-0.042969-0.59766-0.125-0.76562-0.14844-0.25-0.41406-0.375-0.79688-0.375-0.32422 0-0.61719 0.11719-0.875 0.34375-0.26172 0.21875-0.39062 0.64062-0.39062 1.2656v2.5h-0.78125z"/></symbol><symbol id="b" overflow="visible"><path d="m2.3906-0.51562c0.51953 0 0.875-0.19531 1.0625-0.59375 0.1875-0.39453 0.28125-0.83594 0.28125-1.3281 0-0.4375-0.070312-0.78906-0.20312-1.0625-0.21875-0.4375-0.59375-0.65625-1.125-0.65625-0.46875 0-0.8125 0.1875-1.0312 0.5625-0.21875 0.36719-0.32812 0.80859-0.32812 1.3281 0 0.5 0.10938 0.91797 0.32812 1.25 0.21875 0.33594 0.55469 0.5 1.0156 0.5zm0.03125-4.3281c0.59375 0 1.0938 0.20312 1.5 0.60938 0.41406 0.40625 0.625 1 0.625 1.7812 0 0.76172-0.18359 1.3906-0.54688 1.8906-0.35547 0.49219-0.91406 0.73438-1.6719 0.73438-0.63672 0-1.1406-0.21875-1.5156-0.65625s-0.5625-1.0234-0.5625-1.7656c0-0.78906 0.19531-1.4219 0.59375-1.8906 0.39453-0.46875 0.92188-0.70312 1.5781-0.70312z"/></symbol><symbol id="ae" overflow="visible"><path d="m1.0938-1.6094c0.050781 0.46094 0.25391 0.77344 0.60938 0.9375 0.1875 0.09375 0.39844 0.14062 0.64062 0.14062 0.45703 0 0.79688-0.14844 1.0156-0.45312 0.21875-0.30078 0.32812-0.63281 0.32812-1 0-0.4375-0.13281-0.77344-0.39062-1.0156-0.26172-0.23828-0.57422-0.35938-0.9375-0.35938-0.27344 0-0.50781 0.054687-0.70312 0.15625-0.1875 0.10547-0.35156 0.25-0.48438 0.4375l-0.67188-0.03125 0.48438-3.3906h3.1875v0.76562h-2.6094l-0.26562 1.75c0.14453-0.11328 0.28125-0.19531 0.40625-0.25 0.22656-0.09375 0.49219-0.14062 0.79688-0.14062 0.5625 0 1.0391 0.1875 1.4375 0.5625 0.39453 0.36719 0.59375 0.83594 0.59375 1.4062 0 0.59375-0.18359 1.1211-0.54688 1.5781-0.35547 0.44922-0.92969 0.67188-1.7188 0.67188-0.5 0-0.94531-0.14062-1.3281-0.42188-0.38672-0.28906-0.60547-0.73828-0.65625-1.3438z"/></symbol><symbol id="o" overflow="visible"><path d="m0.76562-5.4219c0.007813-0.33203 0.0625-0.57031 0.15625-0.71875 0.1875-0.26953 0.53516-0.40625 1.0469-0.40625h0.15625c0.050781 0 0.10938 0.00781 0.17188 0.015625v0.71875h-0.17188c-0.03125-0.00781-0.0625-0.015625-0.09375-0.015625-0.24219 0-0.38672 0.0625-0.4375 0.1875-0.042969 0.125-0.0625 0.44531-0.0625 0.95312h0.76562v0.625h-0.76562v4.0625h-0.76562v-4.0625h-0.64062v-0.625h0.64062z"/></symbol><symbol id="e" overflow="visible"><path d="m1.1562-1.25c0 0.23047 0.082031 0.41406 0.25 0.54688 0.16406 0.125 0.35938 0.1875 0.57812 0.1875 0.26953 0 0.53516-0.0625 0.79688-0.1875 0.42578-0.21875 0.64062-0.57031 0.64062-1.0625v-0.625c-0.09375 0.0625-0.21875 0.11719-0.375 0.15625-0.14844 0.03125-0.28906 0.058594-0.42188 0.078125l-0.46875 0.0625c-0.28125 0.042969-0.49609 0.10547-0.64062 0.1875-0.24219 0.13672-0.35938 0.35547-0.35938 0.65625zm1.875-1.6094c0.1875-0.019531 0.30469-0.09375 0.35938-0.21875 0.039063-0.070313 0.0625-0.17578 0.0625-0.3125 0-0.25781-0.09375-0.45312-0.28125-0.57812s-0.46094-0.1875-0.8125-0.1875c-0.40625 0-0.69531 0.11719-0.85938 0.34375-0.09375 0.11719-0.15625 0.29688-0.1875 0.54688h-0.71875c0.007813-0.58203 0.19141-0.98828 0.54688-1.2188 0.35156-0.22656 0.76562-0.34375 1.2344-0.34375 0.53906 0 0.98438 0.10938 1.3281 0.32812 0.33203 0.21094 0.5 0.53906 0.5 0.98438v2.7031c0 0.085937 0.015625 0.15234 0.046875 0.20312 0.03125 0.054687 0.097656 0.078125 0.20312 0.078125h0.125c0.039063-0.007813 0.085938-0.019531 0.14062-0.03125v0.57812c-0.125 0.039062-0.21875 0.0625-0.28125 0.0625-0.0625 0.0078125-0.15234 0.015625-0.26562 0.015625-0.26172 0-0.45312-0.09375-0.57812-0.28125-0.0625-0.10156-0.10547-0.25-0.125-0.4375-0.15625 0.21094-0.38672 0.39062-0.6875 0.54688-0.29297 0.15625-0.61719 0.23438-0.96875 0.23438-0.42969 0-0.77734-0.13281-1.0469-0.39062-0.27344-0.26953-0.40625-0.60156-0.40625-1 0-0.4375 0.12891-0.77344 0.39062-1.0156 0.26953-0.23828 0.61719-0.38281 1.0469-0.4375z"/></symbol><symbol id="j" overflow="visible"><path d="m1.0625-2.2969c0 0.5 0.10156 0.92188 0.3125 1.2656 0.20703 0.34375 0.53906 0.51562 1 0.51562 0.36328 0 0.66016-0.15625 0.89062-0.46875 0.22656-0.32031 0.34375-0.77344 0.34375-1.3594 0-0.60156-0.12109-1.0469-0.35938-1.3281-0.24219-0.28125-0.53125-0.42188-0.875-0.42188-0.39844 0-0.71484 0.15234-0.95312 0.45312-0.24219 0.30469-0.35938 0.75-0.35938 1.3438zm1.1562-2.5c0.35156 0 0.64844 0.078125 0.89062 0.23438 0.13281 0.085937 0.28906 0.24219 0.46875 0.46875v-2.3906h0.75v6.4844h-0.70312v-0.65625c-0.17969 0.29297-0.39062 0.50781-0.64062 0.64062-0.25 0.125-0.53125 0.1875-0.84375 0.1875-0.51172 0-0.96094-0.21875-1.3438-0.65625-0.375-0.44531-0.5625-1.0352-0.5625-1.7656 0-0.6875 0.17188-1.2812 0.51562-1.7812 0.34375-0.50781 0.83203-0.76562 1.4688-0.76562z"/></symbol><symbol id="c" overflow="visible"><path d="m0.5625-4.7031h0.73438v0.67188c0.21875-0.28125 0.44531-0.47656 0.6875-0.59375 0.25-0.125 0.52344-0.1875 0.82812-0.1875 0.65625 0 1.0977 0.23438 1.3281 0.70312 0.125 0.25 0.1875 0.61719 0.1875 1.0938v3.0156h-0.79688v-2.9688c0-0.28125-0.042969-0.50781-0.125-0.6875-0.13672-0.28906-0.38672-0.4375-0.75-0.4375-0.17969 0-0.32422 0.015625-0.4375 0.046875-0.21875 0.0625-0.40625 0.19531-0.5625 0.39062-0.13672 0.15625-0.22656 0.32031-0.26562 0.48438-0.03125 0.16797-0.046875 0.40234-0.046875 0.70312v2.4688h-0.78125z"/></symbol><symbol id="m" overflow="visible"><path d="m0.59375-6.4531h0.76562v6.4531h-0.76562z"/></symbol><symbol id="l" overflow="visible"><path d="m2.3438-4.8438c0.51953 0 0.94141 0.13281 1.2656 0.39062 0.32031 0.26172 0.51953 0.70312 0.59375 1.3281h-0.75c-0.054687-0.28906-0.16406-0.53125-0.32812-0.71875-0.15625-0.19531-0.41797-0.29688-0.78125-0.29688-0.49219 0-0.84375 0.25-1.0625 0.75-0.13672 0.3125-0.20312 0.70312-0.20312 1.1719 0 0.48047 0.097656 0.88281 0.29688 1.2031 0.19531 0.3125 0.50391 0.46875 0.92188 0.46875 0.32031 0 0.57812-0.097656 0.76562-0.29688 0.1875-0.19531 0.31641-0.47266 0.39062-0.82812h0.75c-0.085937 0.625-0.30469 1.0859-0.65625 1.375-0.34375 0.29297-0.78125 0.4375-1.3125 0.4375-0.60547 0-1.0898-0.22266-1.4531-0.67188-0.35547-0.45703-0.53125-1.0195-0.53125-1.6875 0-0.83203 0.19531-1.4766 0.59375-1.9375 0.39453-0.45703 0.89453-0.6875 1.5-0.6875z"/></symbol><symbol id="n" overflow="visible"><path d="m2.5156-0.53125c0.36328 0 0.66406-0.14844 0.90625-0.45312 0.23828-0.3125 0.35938-0.77344 0.35938-1.3906 0-0.375-0.058594-0.69531-0.17188-0.96875-0.19922-0.51953-0.5625-0.78125-1.0938-0.78125-0.54297 0-0.91406 0.27344-1.1094 0.8125-0.10547 0.30469-0.15625 0.67969-0.15625 1.125 0 0.36719 0.050781 0.67188 0.15625 0.92188 0.20703 0.49219 0.57812 0.73438 1.1094 0.73438zm-2.0156-4.1562h0.76562v0.625c0.15625-0.20703 0.32031-0.375 0.5-0.5 0.25781-0.17578 0.56641-0.26562 0.92188-0.26562 0.51953 0 0.96094 0.21094 1.3281 0.625 0.36328 0.40625 0.54688 0.99219 0.54688 1.75 0 1.0234-0.26172 1.75-0.78125 2.1875-0.33594 0.28125-0.72656 0.42188-1.1719 0.42188-0.34375 0-0.63281-0.078125-0.85938-0.23438-0.14844-0.082031-0.30469-0.23438-0.46875-0.45312v2.4062h-0.78125z"/></symbol><symbol id="ad" overflow="visible"><path d="m0.67188-6.4531h0.85938v5.6875h3.2031v0.76562h-4.0625z"/></symbol><symbol id="v" overflow="visible"><path d="m0.5625-4.7031h0.76562v0.67188c0.1875-0.23828 0.35156-0.41016 0.5-0.51562 0.25781-0.17578 0.55078-0.26562 0.875-0.26562 0.36328 0 0.66016 0.09375 0.89062 0.28125 0.125 0.10547 0.23828 0.26172 0.34375 0.46875 0.16406-0.25781 0.36328-0.44531 0.59375-0.5625 0.23828-0.125 0.50391-0.1875 0.79688-0.1875 0.61328 0 1.0352 0.23047 1.2656 0.6875 0.11328 0.25 0.17188 0.57812 0.17188 0.98438v3.1406h-0.79688v-3.2656c0-0.3125-0.078125-0.52344-0.23438-0.64062-0.15625-0.125-0.34375-0.1875-0.5625-0.1875-0.30469 0-0.5625 0.10547-0.78125 0.3125-0.21875 0.21094-0.32812 0.55859-0.32812 1.0469v2.7344h-0.79688v-3.0781c0-0.3125-0.039062-0.53906-0.10938-0.6875-0.11719-0.21875-0.33594-0.32812-0.65625-0.32812-0.29297 0-0.55859 0.11719-0.79688 0.34375-0.24219 0.23047-0.35938 0.64844-0.35938 1.25v2.5h-0.78125z"/></symbol><symbol id="u" overflow="visible"><path d="m0.5-6.4844h0.76562v2.3438c0.16406-0.21875 0.36328-0.38281 0.59375-0.5 0.23828-0.125 0.5-0.1875 0.78125-0.1875 0.57031 0 1.0352 0.20312 1.3906 0.60938 0.35156 0.39844 0.53125 0.99219 0.53125 1.7812 0 0.74219-0.17969 1.3594-0.53125 1.8594-0.35547 0.49219-0.84375 0.73438-1.4688 0.73438-0.34375 0-0.63672-0.089844-0.875-0.26562-0.14844-0.10156-0.30469-0.26953-0.46875-0.5v0.60938h-0.71875zm2.0156 5.9375c0.42578 0 0.74219-0.16406 0.95312-0.5 0.20703-0.34375 0.3125-0.79688 0.3125-1.3594 0-0.48828-0.10547-0.89453-0.3125-1.2188-0.21094-0.33203-0.51562-0.5-0.92188-0.5-0.35547 0-0.66797 0.13672-0.9375 0.40625-0.26172 0.26172-0.39062 0.69922-0.39062 1.3125 0 0.44922 0.050781 0.80859 0.15625 1.0781 0.20703 0.52344 0.58594 0.78125 1.1406 0.78125z"/></symbol><symbol id="ac" overflow="visible"><path d="m3.4531-4.7031h0.84375c-0.10547 0.30469-0.34375 0.99219-0.71875 2.0625-0.28125 0.8125-0.51562 1.4766-0.70312 1.9844-0.44922 1.1953-0.76562 1.9258-0.95312 2.1875-0.1875 0.25781-0.5 0.39062-0.9375 0.39062-0.11719 0-0.20312-0.007812-0.26562-0.015625-0.054687 0-0.125-0.011719-0.21875-0.03125v-0.73438c0.13281 0.039063 0.23438 0.066406 0.29688 0.078125 0.0625 0.00781 0.11328 0.015625 0.15625 0.015625 0.14453 0 0.25-0.027344 0.3125-0.078125 0.070313-0.054687 0.13281-0.10938 0.1875-0.17188 0.00781-0.03125 0.054688-0.15625 0.14062-0.375 0.09375-0.21094 0.16016-0.36719 0.20312-0.46875l-1.7031-4.8438h0.875l1.2344 3.8281z"/></symbol><symbol id="ab" overflow="visible"><path d="m0.92188-4.7031 0.89062 3.7031 0.89062-3.7031h0.875l0.90625 3.6875 0.9375-3.6875h0.78125l-1.3438 4.7031h-0.79688l-0.9375-3.6406-0.90625 3.6406h-0.8125l-1.3281-4.7031z"/></symbol></defs><g transform="translate(-54.748 -84.223)"><g fill="none" stroke="#211e1e"><path transform="matrix(1 0 0 -1 384.85 138.74)" d="m-0.00195 5.125e-4c-12.09-5.375-22.961-11.949-33.668-18.43-22.766-13.777-44.383-26.84-76.703-28.855v0.05078c-3.8828 0-7.0312 3.1484-7.0312 7.0312v40.203zm-145.4 54.52v-12.52h-103.64m0-18h103.64v-6h-103.64m0-18h103.64v-40.234c0-3.8828-3.1484-7.0312-7.0312-7.0312v-0.0039c-32.25 2.1172-53.844 15.824-76.586 30.281-6.5352 4.1523-13.133 8.3398-20.027 12.262m0-13.898c4.543-2.7422 9.043-5.6016 13.59-8.4922 23.449-14.906 47.664-30.266 83.949-32.219 3.4375-0.45312 6.0938-3.3789 6.1055-6.9375v-318.61m28 0v223.09c0 8.0352 6.5117 14.547 14.547 14.547h11.563c81.637 0 104.99 30.055 123.76 54.207 7.9727 10.266 14.77 19 25.434 24.891m0 30.359c-24.285-8.168-36.438-23.777-47.547-38.07-17.336-22.312-33.711-43.387-101.65-43.387h-11.563c-8.0352 0-14.547 6.5117-14.547 14.543v38.367c0 3.7266 2.8984 6.7656 6.5586 7.0078 35.965 1.957 60.055 16.512 83.391 30.633 24.383 14.754 47.414 28.695 83.566 28.695h1.7891m0 18h-175.3v6h175.3m0 18h-175.3v12.52"/><path transform="matrix(1 0 0 -1 238.44 90.743)" d="m-0.0014938 5.125e-4v-54" stroke-width="3"/><path transform="matrix(1 0 0 -1 268.44 144.74)" d="m-0.0014938 5.125e-4v54" stroke-width="3"/></g><path d="m278.95 392.56v-1.0625h-4.1016v1.0625h-1.5039v1.5039h7.2461v-1.5039z" fill="#211e1e"/><g fill="#211e1e"><use x="269.48581" y="274.12741" width="100%" height="100%" xlink:href="#aq"/><use x="274.9848" y="274.12741" width="100%" height="100%" xlink:href="#q"/><use x="281.48279" y="274.12741" width="100%" height="100%" xlink:href="#p"/><use x="288.4848" y="274.12741" width="100%" height="100%" xlink:href="#ak"/><use x="294.98279" y="274.12741" width="100%" height="100%" xlink:href="#aj"/><use x="299.81671" y="274.12741" width="100%" height="100%" xlink:href="#z"/><use x="305.8197" y="274.12741" width="100%" height="100%" xlink:href="#ai"/><use x="312.82169" y="274.12741" width="100%" height="100%" xlink:href="#ah"/><use x="318.82471" y="274.12741" width="100%" height="100%" xlink:href="#ag"/><use x="321.32669" y="274.12741" width="100%" height="100%" xlink:href="#q"/><use x="327.82471" y="274.12741" width="100%" height="100%" xlink:href="#p"/><use x="334.82669" y="274.12741" width="100%" height="100%" xlink:href="#z"/><use x="340.82971" y="274.12741" width="100%" height="100%" xlink:href="#ap"/></g><path transform="matrix(1 0 0 -1 276.96 397.62)" d="m4.375e-5 0.0019062c0-21.563 18.152 11.195 21.859 11.195" fill="none" stroke="#211e1e" stroke-width=".75"/><path d="m276.43 396.38c-0.26172 0.8711-0.50391 1.4336-0.78125 2.1289h2.6445c-0.11719-0.25-0.51953-1.2578-0.78125-2.1289-0.28125-0.92578-0.47265-1.7695-0.53906-2.3164-0.0703 0.54687-0.26172 1.3906-0.54297 2.3164" fill="#211e1e"/><path d="m278.95 512.65v-1.0664h-4.1016v1.0664h-1.5039v1.5039h7.2461v-1.5039z" fill="#211e1e"/><path transform="matrix(1 0 0 -1 276.96 517.71)" d="m4.375e-5 9.6875e-4c0-15.75 11.41-10.109 25.211 15.422 9.9297 18.367 19.684 19.277 29.242 19.277" fill="none" stroke="#211e1e" stroke-width=".75"/><path d="m276.43 516.47c-0.26172 0.86719-0.50391 1.4336-0.78125 2.1289h2.6445c-0.11719-0.25-0.51953-1.2617-0.78125-2.1289-0.28125-0.92969-0.47265-1.7734-0.53906-2.3164-0.0703 0.54297-0.26172 1.3867-0.54297 2.3164" fill="#211e1e"/><path d="m278.95 175.73v-1.0625h-4.1016v1.0625h-1.5039v1.5039h7.2461v-1.5039z" fill="#211e1e"/><path transform="matrix(1 0 0 -1 276.96 180.79)" d="m4.375e-5 -0.0014625c0-21.559-107.87-41.523-107.87-86.859" fill="none" stroke="#211e1e" stroke-width=".75"/><path d="m276.43 179.55c-0.26172 0.8711-0.50391 1.4336-0.78125 2.1289h2.6445c-0.11719-0.25-0.51953-1.2578-0.78125-2.1289-0.28125-0.92578-0.47265-1.7695-0.53906-2.3164-0.0703 0.54687-0.26172 1.3906-0.54297 2.3164" fill="#211e1e"/><path d="m278.95 205.93v-1.0664h-4.1016v1.0664h-1.5039v1.5039h7.2461v-1.5039z" fill="#211e1e"/><path transform="matrix(1 0 0 -1 276.96 210.99)" d="m4.375e-5 5.125e-4c0-21.562-107.87-24.398-107.87-56.656" fill="none" stroke="#211e1e" stroke-width=".75"/><g fill="#211e1e"><path d="m276.43 209.75c-0.26172 0.86718-0.50391 1.4336-0.78125 2.1289h2.6445c-0.11719-0.25-0.51953-1.2617-0.78125-2.1289-0.28125-0.92969-0.47265-1.7734-0.53906-2.3164-0.0703 0.54297-0.26172 1.3867-0.54297 2.3164"/><use x="400.63181" y="387.38431" width="100%" height="100%" xlink:href="#p"/><use x="407.63379" y="387.38431" width="100%" height="100%" xlink:href="#q"/><use x="86.0728" y="293.3793" width="100%" height="100%" xlink:href="#p"/><use x="93.074799" y="293.3793" width="100%" height="100%" xlink:href="#q"/><use x="399.1001" y="486.68069" width="100%" height="100%" xlink:href="#af"/><use x="404.97421" y="486.68069" width="100%" height="100%" xlink:href="#d"/><use x="409.86932" y="486.68069" width="100%" height="100%" xlink:href="#d"/><use x="414.76443" y="486.68069" width="100%" height="100%" xlink:href="#a"/><use x="417.20755" y="486.68069" width="100%" height="100%" xlink:href="#aa"/><use x="422.58777" y="486.68069" width="100%" height="100%" xlink:href="#g"/><use x="424.53699" y="486.68069" width="100%" height="100%" xlink:href="#k"/><use x="429.43207" y="486.68069" width="100%" height="100%" xlink:href="#r"/><use x="434.32718" y="486.68069" width="100%" height="100%" xlink:href="#f"/><use x="437.25543" y="486.68069" width="100%" height="100%" xlink:href="#d"/><use x="442.15051" y="486.68069" width="100%" height="100%" xlink:href="#i"/><use x="446.5517" y="486.68069" width="100%" height="100%" xlink:href="#a"/><use x="448.99484" y="486.68069" width="100%" height="100%" xlink:href="#y"/><use x="453.88995" y="486.68069" width="100%" height="100%" xlink:href="#x"/><use x="460.24915" y="486.68069" width="100%" height="100%" xlink:href="#w"/><use x="463.1774" y="486.68069" width="100%" height="100%" xlink:href="#t"/><use x="467.42334" y="486.68069" width="100%" height="100%" xlink:href="#t"/><use x="472.31845" y="486.68069" width="100%" height="100%" xlink:href="#a"/><use x="474.7616" y="486.68069" width="100%" height="100%" xlink:href="#h"/><use x="477.20474" y="486.68069" width="100%" height="100%" xlink:href="#s"/><use x="482.09982" y="486.68069" width="100%" height="100%" xlink:href="#f"/><use x="485.02808" y="486.68069" width="100%" height="100%" xlink:href="#b"/><use x="489.92316" y="486.68069" width="100%" height="100%" xlink:href="#r"/><use x="494.81827" y="486.68069" width="100%" height="100%" xlink:href="#k"/><use x="499.71338" y="486.68069" width="100%" height="100%" xlink:href="#s"/><use x="504.60846" y="486.68069" width="100%" height="100%" xlink:href="#a"/><use x="399.1001" y="496.18469" width="100%" height="100%" xlink:href="#y"/><use x="403.99521" y="496.18469" width="100%" height="100%" xlink:href="#x"/><use x="410.35443" y="496.18469" width="100%" height="100%" xlink:href="#w"/><use x="413.28265" y="496.18469" width="100%" height="100%" xlink:href="#t"/><use x="418.17776" y="496.18469" width="100%" height="100%" xlink:href="#ae"/><use x="423.07285" y="496.18469" width="100%" height="100%" xlink:href="#a"/><use x="425.51599" y="496.18469" width="100%" height="100%" xlink:href="#o"/><use x="427.95914" y="496.18469" width="100%" height="100%" xlink:href="#b"/><use x="432.85425" y="496.18469" width="100%" height="100%" xlink:href="#f"/><use x="435.78247" y="496.18469" width="100%" height="100%" xlink:href="#a"/><use x="438.22562" y="496.18469" width="100%" height="100%" xlink:href="#e"/><use x="443.12073" y="496.18469" width="100%" height="100%" xlink:href="#j"/><use x="448.01581" y="496.18469" width="100%" height="100%" xlink:href="#j"/><use x="452.91092" y="496.18469" width="100%" height="100%" xlink:href="#g"/><use x="454.86014" y="496.18469" width="100%" height="100%" xlink:href="#h"/><use x="457.30328" y="496.18469" width="100%" height="100%" xlink:href="#g"/><use x="459.2525" y="496.18469" width="100%" height="100%" xlink:href="#b"/><use x="464.14761" y="496.18469" width="100%" height="100%" xlink:href="#c"/><use x="469.04269" y="496.18469" width="100%" height="100%" xlink:href="#e"/><use x="473.93781" y="496.18469" width="100%" height="100%" xlink:href="#m"/><use x="475.88702" y="496.18469" width="100%" height="100%" xlink:href="#a"/><use x="478.33017" y="496.18469" width="100%" height="100%" xlink:href="#i"/><use x="482.73135" y="496.18469" width="100%" height="100%" xlink:href="#g"/><use x="484.68057" y="496.18469" width="100%" height="100%" xlink:href="#k"/><use x="489.57565" y="496.18469" width="100%" height="100%" xlink:href="#c"/><use x="494.47076" y="496.18469" width="100%" height="100%" xlink:href="#g"/><use x="496.41998" y="496.18469" width="100%" height="100%" xlink:href="#c"/><use x="501.31509" y="496.18469" width="100%" height="100%" xlink:href="#k"/><use x="506.21017" y="496.18469" width="100%" height="100%" xlink:href="#a"/><use x="399.1001" y="505.68869" width="100%" height="100%" xlink:href="#b"/><use x="403.99521" y="505.68869" width="100%" height="100%" xlink:href="#c"/><use x="408.89029" y="505.68869" width="100%" height="100%" xlink:href="#a"/><use x="411.33344" y="505.68869" width="100%" height="100%" xlink:href="#l"/><use x="415.73462" y="505.68869" width="100%" height="100%" xlink:href="#f"/><use x="418.66287" y="505.68869" width="100%" height="100%" xlink:href="#b"/><use x="423.55795" y="505.68869" width="100%" height="100%" xlink:href="#i"/><use x="427.95914" y="505.68869" width="100%" height="100%" xlink:href="#i"/><use x="432.36032" y="505.68869" width="100%" height="100%" xlink:href="#f"/><use x="435.28857" y="505.68869" width="100%" height="100%" xlink:href="#b"/><use x="440.18365" y="505.68869" width="100%" height="100%" xlink:href="#e"/><use x="445.07877" y="505.68869" width="100%" height="100%" xlink:href="#j"/><use x="449.97385" y="505.68869" width="100%" height="100%" xlink:href="#a"/><use x="452.41699" y="505.68869" width="100%" height="100%" xlink:href="#e"/><use x="457.3121" y="505.68869" width="100%" height="100%" xlink:href="#n"/><use x="462.20721" y="505.68869" width="100%" height="100%" xlink:href="#n"/><use x="467.10229" y="505.68869" width="100%" height="100%" xlink:href="#f"/><use x="470.03055" y="505.68869" width="100%" height="100%" xlink:href="#b"/><use x="474.92563" y="505.68869" width="100%" height="100%" xlink:href="#e"/><use x="479.82074" y="505.68869" width="100%" height="100%" xlink:href="#l"/><use x="484.22192" y="505.68869" width="100%" height="100%" xlink:href="#s"/><use x="489.11703" y="505.68869" width="100%" height="100%" xlink:href="#d"/><use x="494.01212" y="505.68869" width="100%" height="100%" xlink:href="#i"/><path transform="matrix(1 0 0 -1 482.62 281.42)" d="m-0.0019062 2.5e-5v112.74l-4.4414-30.305 0.40234-5.2539 3.2305 2.8281" stroke="#211e1e"/><path d="m487.05 213.5h3.8086v31.68h-4.4141l-14.785-25.59h-0.0781v25.59h-3.8047v-31.68h4.6562l14.535 25.59h0.082z"/><use x="104.9824" y="384.7529" width="100%" height="100%" xlink:href="#a"/><use x="115.14304" y="384.7529" width="100%" height="100%" xlink:href="#a"/><use x="118.88625" y="384.7529" width="100%" height="100%" xlink:href="#ad"/><use x="123.78135" y="384.7529" width="100%" height="100%" xlink:href="#b"/><use x="128.67645" y="384.7529" width="100%" height="100%" xlink:href="#l"/><use x="133.07762" y="384.7529" width="100%" height="100%" xlink:href="#e"/><use x="137.97273" y="384.7529" width="100%" height="100%" xlink:href="#h"/><use x="140.41586" y="384.7529" width="100%" height="100%" xlink:href="#g"/><use x="142.36508" y="384.7529" width="100%" height="100%" xlink:href="#b"/><use x="147.26019" y="384.7529" width="100%" height="100%" xlink:href="#c"/><use x="152.15529" y="384.7529" width="100%" height="100%" xlink:href="#a"/><use x="154.59843" y="384.7529" width="100%" height="100%" xlink:href="#o"/><use x="157.04156" y="384.7529" width="100%" height="100%" xlink:href="#b"/><use x="161.93666" y="384.7529" width="100%" height="100%" xlink:href="#f"/><use x="164.86491" y="384.7529" width="100%" height="100%" xlink:href="#a"/><use x="167.30804" y="384.7529" width="100%" height="100%" xlink:href="#j"/><use x="172.20316" y="384.7529" width="100%" height="100%" xlink:href="#g"/><use x="174.15237" y="384.7529" width="100%" height="100%" xlink:href="#f"/><use x="177.08061" y="384.7529" width="100%" height="100%" xlink:href="#d"/><use x="181.97571" y="384.7529" width="100%" height="100%" xlink:href="#l"/><use x="186.37689" y="384.7529" width="100%" height="100%" xlink:href="#h"/><use x="188.82002" y="384.7529" width="100%" height="100%" xlink:href="#g"/><use x="190.76924" y="384.7529" width="100%" height="100%" xlink:href="#b"/><use x="195.66435" y="384.7529" width="100%" height="100%" xlink:href="#c"/><use x="200.55945" y="384.7529" width="100%" height="100%" xlink:href="#e"/><use x="205.45454" y="384.7529" width="100%" height="100%" xlink:href="#m"/><use x="207.40376" y="384.7529" width="100%" height="100%" xlink:href="#a"/><use x="118.88272" y="394.2569" width="100%" height="100%" xlink:href="#e"/><use x="123.77782" y="394.2569" width="100%" height="100%" xlink:href="#i"/><use x="128.179" y="394.2569" width="100%" height="100%" xlink:href="#i"/><use x="132.58018" y="394.2569" width="100%" height="100%" xlink:href="#d"/><use x="137.47528" y="394.2569" width="100%" height="100%" xlink:href="#v"/><use x="144.81352" y="394.2569" width="100%" height="100%" xlink:href="#u"/><use x="149.70862" y="394.2569" width="100%" height="100%" xlink:href="#m"/><use x="151.65784" y="394.2569" width="100%" height="100%" xlink:href="#ac"/><use x="156.05902" y="394.2569" width="100%" height="100%" xlink:href="#a"/><use x="158.50217" y="394.2569" width="100%" height="100%" xlink:href="#b"/><use x="163.39726" y="394.2569" width="100%" height="100%" xlink:href="#f"/><use x="166.3255" y="394.2569" width="100%" height="100%" xlink:href="#a"/><use x="168.76865" y="394.2569" width="100%" height="100%" xlink:href="#e"/><use x="173.66374" y="394.2569" width="100%" height="100%" xlink:href="#m"/><use x="175.61296" y="394.2569" width="100%" height="100%" xlink:href="#h"/><use x="178.05611" y="394.2569" width="100%" height="100%" xlink:href="#d"/><use x="182.9512" y="394.2569" width="100%" height="100%" xlink:href="#f"/><use x="185.87944" y="394.2569" width="100%" height="100%" xlink:href="#c"/><use x="190.77454" y="394.2569" width="100%" height="100%" xlink:href="#e"/><use x="195.66965" y="394.2569" width="100%" height="100%" xlink:href="#h"/><use x="198.11278" y="394.2569" width="100%" height="100%" xlink:href="#d"/><use x="203.00787" y="394.2569" width="100%" height="100%" xlink:href="#a"/><use x="118.88272" y="403.76089" width="100%" height="100%" xlink:href="#m"/><use x="120.83194" y="403.76089" width="100%" height="100%" xlink:href="#b"/><use x="125.72704" y="403.76089" width="100%" height="100%" xlink:href="#l"/><use x="130.12822" y="403.76089" width="100%" height="100%" xlink:href="#e"/><use x="135.02332" y="403.76089" width="100%" height="100%" xlink:href="#h"/><use x="137.46646" y="403.76089" width="100%" height="100%" xlink:href="#g"/><use x="139.41568" y="403.76089" width="100%" height="100%" xlink:href="#b"/><use x="144.31078" y="403.76089" width="100%" height="100%" xlink:href="#c"/><use x="149.20589" y="403.76089" width="100%" height="100%" xlink:href="#a"/><use x="151.64902" y="403.76089" width="100%" height="100%" xlink:href="#o"/><use x="154.09216" y="403.76089" width="100%" height="100%" xlink:href="#b"/><use x="158.98726" y="403.76089" width="100%" height="100%" xlink:href="#f"/><use x="161.9155" y="403.76089" width="100%" height="100%" xlink:href="#a"/><use x="164.35864" y="403.76089" width="100%" height="100%" xlink:href="#k"/><use x="169.25374" y="403.76089" width="100%" height="100%" xlink:href="#r"/><use x="174.14883" y="403.76089" width="100%" height="100%" xlink:href="#g"/><use x="176.09805" y="403.76089" width="100%" height="100%" xlink:href="#j"/><use x="180.99316" y="403.76089" width="100%" height="100%" xlink:href="#d"/><use x="185.88826" y="403.76089" width="100%" height="100%" xlink:href="#a"/><use x="188.33141" y="403.76089" width="100%" height="100%" xlink:href="#i"/><use x="192.73257" y="403.76089" width="100%" height="100%" xlink:href="#g"/><use x="194.68179" y="403.76089" width="100%" height="100%" xlink:href="#k"/><use x="199.5769" y="403.76089" width="100%" height="100%" xlink:href="#c"/><use x="204.472" y="403.76089" width="100%" height="100%" xlink:href="#a"/><use x="118.88272" y="413.26489" width="100%" height="100%" xlink:href="#j"/><use x="123.77782" y="413.26489" width="100%" height="100%" xlink:href="#d"/><use x="128.67291" y="413.26489" width="100%" height="100%" xlink:href="#n"/><use x="133.56802" y="413.26489" width="100%" height="100%" xlink:href="#d"/><use x="138.46312" y="413.26489" width="100%" height="100%" xlink:href="#c"/><use x="143.35822" y="413.26489" width="100%" height="100%" xlink:href="#j"/><use x="148.25333" y="413.26489" width="100%" height="100%" xlink:href="#g"/><use x="150.20255" y="413.26489" width="100%" height="100%" xlink:href="#c"/><use x="155.09764" y="413.26489" width="100%" height="100%" xlink:href="#k"/><use x="159.99274" y="413.26489" width="100%" height="100%" xlink:href="#a"/><use x="162.43588" y="413.26489" width="100%" height="100%" xlink:href="#b"/><use x="167.33098" y="413.26489" width="100%" height="100%" xlink:href="#c"/><use x="172.22607" y="413.26489" width="100%" height="100%" xlink:href="#a"/><use x="174.66922" y="413.26489" width="100%" height="100%" xlink:href="#j"/><use x="179.56432" y="413.26489" width="100%" height="100%" xlink:href="#g"/><use x="181.51353" y="413.26489" width="100%" height="100%" xlink:href="#i"/><use x="185.91472" y="413.26489" width="100%" height="100%" xlink:href="#h"/><use x="188.35786" y="413.26489" width="100%" height="100%" xlink:href="#e"/><use x="193.25296" y="413.26489" width="100%" height="100%" xlink:href="#c"/><use x="198.14806" y="413.26489" width="100%" height="100%" xlink:href="#l"/><use x="202.54924" y="413.26489" width="100%" height="100%" xlink:href="#d"/><use x="207.44434" y="413.26489" width="100%" height="100%" xlink:href="#a"/><use x="118.88272" y="422.76889" width="100%" height="100%" xlink:href="#u"/><use x="123.77782" y="422.76889" width="100%" height="100%" xlink:href="#d"/><use x="128.67291" y="422.76889" width="100%" height="100%" xlink:href="#h"/><use x="131.11606" y="422.76889" width="100%" height="100%" xlink:href="#ab"/><use x="137.47528" y="422.76889" width="100%" height="100%" xlink:href="#d"/><use x="142.37038" y="422.76889" width="100%" height="100%" xlink:href="#d"/><use x="147.26547" y="422.76889" width="100%" height="100%" xlink:href="#c"/><use x="152.16058" y="422.76889" width="100%" height="100%" xlink:href="#a"/><use x="154.60371" y="422.76889" width="100%" height="100%" xlink:href="#f"/><use x="157.53197" y="422.76889" width="100%" height="100%" xlink:href="#e"/><use x="162.42706" y="422.76889" width="100%" height="100%" xlink:href="#v"/><use x="169.7653" y="422.76889" width="100%" height="100%" xlink:href="#n"/><use x="174.6604" y="422.76889" width="100%" height="100%" xlink:href="#a"/><use x="177.10355" y="422.76889" width="100%" height="100%" xlink:href="#e"/><use x="181.99864" y="422.76889" width="100%" height="100%" xlink:href="#c"/><use x="186.89374" y="422.76889" width="100%" height="100%" xlink:href="#j"/><use x="191.78883" y="422.76889" width="100%" height="100%" xlink:href="#a"/><use x="194.23198" y="422.76889" width="100%" height="100%" xlink:href="#o"/><use x="196.67513" y="422.76889" width="100%" height="100%" xlink:href="#f"/><use x="199.60336" y="422.76889" width="100%" height="100%" xlink:href="#b"/><use x="204.49846" y="422.76889" width="100%" height="100%" xlink:href="#c"/><use x="209.39355" y="422.76889" width="100%" height="100%" xlink:href="#h"/><use x="211.8367" y="422.76889" width="100%" height="100%" xlink:href="#e"/><use x="216.7318" y="422.76889" width="100%" height="100%" xlink:href="#k"/><use x="221.62691" y="422.76889" width="100%" height="100%" xlink:href="#d"/><use x="226.522" y="422.76889" width="100%" height="100%" xlink:href="#a"/><use x="118.88272" y="432.27289" width="100%" height="100%" xlink:href="#f"/><use x="121.81096" y="432.27289" width="100%" height="100%" xlink:href="#b"/><use x="126.70606" y="432.27289" width="100%" height="100%" xlink:href="#e"/><use x="131.60117" y="432.27289" width="100%" height="100%" xlink:href="#j"/><use x="136.49626" y="432.27289" width="100%" height="100%" xlink:href="#a"/><use x="138.93941" y="432.27289" width="100%" height="100%" xlink:href="#g"/><use x="140.88863" y="432.27289" width="100%" height="100%" xlink:href="#c"/><use x="145.78372" y="432.27289" width="100%" height="100%" xlink:href="#h"/><use x="148.22685" y="432.27289" width="100%" height="100%" xlink:href="#d"/><use x="153.12196" y="432.27289" width="100%" height="100%" xlink:href="#f"/><use x="156.0502" y="432.27289" width="100%" height="100%" xlink:href="#i"/><use x="160.45139" y="432.27289" width="100%" height="100%" xlink:href="#d"/><use x="165.34648" y="432.27289" width="100%" height="100%" xlink:href="#l"/><use x="169.74767" y="432.27289" width="100%" height="100%" xlink:href="#h"/><use x="172.1908" y="432.27289" width="100%" height="100%" xlink:href="#g"/><use x="174.14001" y="432.27289" width="100%" height="100%" xlink:href="#b"/><use x="179.03513" y="432.27289" width="100%" height="100%" xlink:href="#c"/><use x="183.93022" y="432.27289" width="100%" height="100%" xlink:href="#i"/><path d="m116.89 381.24-2.3476 0.71484 1.543 2.1719-1.4102 0.98437-1.5195-2.0352-1.5469 2.0352-1.4102-0.98437 1.5234-2.1719-2.3281-0.71484 0.51562-1.6328 2.2812 0.75781v-2.6602h1.9024v2.6602l2.2617-0.75781z"/><path d="m288.3 171.6-2.3477 0.71484 1.543 2.1719-1.4102 0.98438-1.5195-2.0391-1.5469 2.0391-1.4102-0.98438 1.5234-2.1719-2.3281-0.71484 0.51563-1.6367 2.2812 0.76172v-2.6641h1.9023v2.6641l2.2617-0.76172z"/></g><path transform="matrix(1 0 0 -1 273.89 180.53)" d="m-0.001475-9.5e-4c-10.598-18.777-206.72-46.297-206.72-86.484" fill="none" stroke="#211e1e" stroke-width=".75"/><g fill="#211e1e"><path d="m274.03 179.18c-0.65234 0.62891-1.1406 1-1.7266 1.4688l2.3047 1.3047c0.0195-0.27734 0.16797-1.3555 0.36719-2.2383 0.21094-0.94922 0.45703-1.7773 0.66797-2.2852-0.32812 0.44141-0.91016 1.082-1.6133 1.75"/><use x="451.67551" y="119.7446" width="100%" height="100%" xlink:href="#ao"/><use x="454.17749" y="119.7446" width="100%" height="100%" xlink:href="#an"/><use x="457.1745" y="119.7446" width="100%" height="100%" xlink:href="#am"/><use x="462.1785" y="119.7446" width="100%" height="100%" xlink:href="#al"/><path d="m67.906 336.47h-1.4453v-61.188h1.4453z"/></g><g><path d="m67.16 307.04c-8.2969-1.6953-13.664-9.8203-11.969-18.113 0.48438-2.3867 1.4922-4.5547 2.9922-6.4492l0.05469-0.0703 0.08203 0.0273c1.4336 0.4375 2.918 0.66407 4.4102 0.66407 1.4922 0 2.9766-0.22657 4.418-0.66407 1.5117 0.4375 2.9961 0.66407 4.4883 0.66407 1.4922 0 2.9766-0.22657 4.4102-0.66407l0.08203-0.0273 0.05469 0.0703c1.5 1.8945 2.5078 4.0625 2.9922 6.4492 1.6953 8.293-3.6719 16.418-11.969 18.113l-0.02344 8e-3z" fill="#fff"/><path d="m76.172 282.27-0.16016 0.0469c-1.4219 0.4375-2.8945 0.65625-4.375 0.65625s-2.9531-0.21875-4.3789-0.65625l-0.07422-0.0195-0.07422 0.0195c-1.4258 0.4375-2.9023 0.65625-4.3789 0.65625-1.4805 0-2.9531-0.21875-4.375-0.65625l-0.16016-0.0469-0.10938 0.13282c-1.5117 1.9102-2.5273 4.0976-3.0195 6.5-0.82812 4.0508-0.02734 8.1836 2.25 11.633 2.2812 3.4492 5.7656 5.8047 9.8164 6.6328l0.05078 8e-3 0.05078-8e-3c8.3594-1.7109 13.773-9.9023 12.066-18.266-0.49219-2.4024-1.5078-4.5898-3.0195-6.5zm-8.9883 0.28516c1.4805 0.45313 2.9805 0.66797 4.4531 0.66797 1.5234 0 3.0195-0.22656 4.4453-0.66797 1.4375 1.8125 2.4805 3.9805 2.9727 6.3984 1.6836 8.2422-3.6328 16.285-11.871 17.969-8.2383-1.6836-13.555-9.7266-11.871-17.969 0.49609-2.418 1.5352-4.5859 2.9688-6.3984 1.4258 0.44141 2.9258 0.66797 4.4492 0.66797 1.4727 0 2.9727-0.21484 4.4531-0.66797" fill="#211e1e"/><path d="m78.191 287.63c-0.19922-0.64844-0.44531-1.2812-0.72656-1.8906-0.43359-0.91797-0.95703-1.7891-1.5703-2.6016-1.3867 0.39453-2.8203 0.59375-4.2578 0.59375-1.5039 0-3-0.21875-4.4531-0.64844-1.4531 0.42969-2.9492 0.64844-4.4531 0.64844-1.4375 0-2.8711-0.19922-4.2578-0.59375-0.60938 0.8125-1.1367 1.6836-1.5664 2.6016-0.28906 0.60938-0.53125 1.2422-0.73047 1.8906z" fill="#bf2317"/><path d="m78.34 288.14h-22.312c-0.08203 0.30078-0.15625 0.60547-0.21875 0.91406-0.39844 1.9492-0.40234 3.9141-0.01172 5.8438 0.375 1.8672 1.0977 3.6211 2.1523 5.2188 1.0547 1.5938 2.3828 2.9492 3.9531 4.0273 1.5977 1.0938 3.3711 1.8555 5.2812 2.2578 1.9102-0.40235 3.6836-1.1641 5.2812-2.2578 1.5664-1.0781 2.8984-2.4336 3.9531-4.0273 1.0547-1.5977 1.7773-3.3516 2.1523-5.2188 0.39062-1.9297 0.38281-3.8945-0.01172-5.8438-0.0625-0.30859-0.13672-0.61328-0.21875-0.91406" fill="#14549c"/></g><g fill="#fff"><path d="m71.332 285.22-0.19141 0.77734h0.39062zm0.48438 1.8984-0.19141-0.74218h-0.57812l-0.18359 0.74218h-0.39062l0.67578-2.707h0.38281l0.67578 2.707z"/><path d="m63.484 287.12v-2.707h1.2773v0.37891h-0.88281v0.68359h0.55859v0.3711h-0.55859v0.89453h0.98828v0.3789z"/><path d="m58.855 284.41h0.37891v2.707h-0.37891z"/><path d="m61.055 287.12-0.83594-1.8125v1.8125h-0.38672v-2.707h0.38672l0.73828 1.625v-1.625h0.39062v2.707z"/><path d="m66.113 284.79h-0.39844v0.68359h0.39844c0.23047 0 0.35156-0.12109 0.35156-0.33984 0-0.21094-0.14062-0.34375-0.35156-0.34375m0.33203 2.3281-0.35938-1.2734h-0.37109v1.2734h-0.38672v-2.707h0.80469c0.42969 0 0.71094 0.28516 0.71094 0.72266 0 0.32031-0.13281 0.55859-0.38672 0.65625l0.38672 1.3281z"/><path d="m67.941 285.87c-0.11719-0.0742-0.23047-0.15234-0.30469-0.20312-0.21875-0.15235-0.33203-0.35938-0.33203-0.59766 0-0.39062 0.30469-0.70312 0.69531-0.70312 0.38281 0 0.67578 0.29297 0.6875 0.70312h-0.375c-0.0078-0.1914-0.14062-0.3125-0.3125-0.3125-0.17969 0-0.32422 0.13281-0.32422 0.3125 0 0.13281 0.05469 0.20703 0.25781 0.32031 0.52344 0.30469 0.75391 0.60157 0.75391 0.98829 0 0.4375-0.33594 0.78906-0.75391 0.78906-0.47656 0-0.76562-0.39844-0.76562-0.84375h0.38281c0 0.22656 0.11328 0.46484 0.38281 0.46484 0.20703 0 0.37891-0.1914 0.37891-0.41015 0-0.16797-0.06641-0.3125-0.37109-0.50782"/><path d="m62.613 284.77v2.3476h-0.39062v-2.3476h-0.49609v-0.35938h1.3789v0.35938z"/><path d="m74.129 287.12v-2.707h1.2773v0.37891h-0.88672v0.68359h0.5625v0.3711h-0.5625v0.89453h0.99219v0.3789z"/><path d="m73.254 284.77v2.3476h-0.39062v-2.3476h-0.49219v-0.35938h1.3789v0.35938z"/><path d="m69.816 284.77v2.3476h-0.39062v-2.3476h-0.49609v-0.35938h1.3828v0.35938z"/><path d="m58.047 322.61c-0.62891 0-1.1406-0.51171-1.1406-1.1406v-12.184c0-0.62891 0.51172-1.1406 1.1406-1.1406h18.273c0.62891 0 1.1406 0.51172 1.1406 1.1406v12.184c0 0.62891-0.51172 1.1406-1.1406 1.1406z"/></g><path d="m76.32 308.02h-18.273c-0.69922 0-1.2656 0.57031-1.2656 1.2656v12.184c0 0.69922 0.56641 1.2656 1.2656 1.2656h18.273c0.69922 0 1.2656-0.5664 1.2656-1.2656v-12.184c0-0.69532-0.56641-1.2656-1.2656-1.2656m0 0.25c0.55859 0 1.0156 0.45703 1.0156 1.0156v12.184c0 0.55859-0.45703 1.0156-1.0156 1.0156h-18.273c-0.55859 0-1.0156-0.45703-1.0156-1.0156v-12.184c0-0.5586 0.45703-1.0156 1.0156-1.0156h18.273" fill="#211e1e"/><path d="m76.996 309.29v12.184c0 0.375-0.30078 0.67578-0.67578 0.67578h-18.273c-0.375 0-0.67578-0.30078-0.67578-0.67578v-12.184c0-0.3711 0.30078-0.67579 0.67578-0.67579h18.273c0.375 0 0.67578 0.30469 0.67578 0.67579" fill="#14549c"/><g fill="#fff"><path d="m70.852 316.89-7.5586-6.5742-1.668 1.918 7.5625 6.5703z"/><path d="m67.094 319.66c-0.09766-0.0117-0.19531-0.0508-0.27734-0.12109-0.21094-0.1836-0.23438-0.50391-0.04687-0.71485 0.03906-0.0508 0.08984-0.0859 0.14453-0.11718l2.5391-1.3594 0.99609-2.707c0.01953-0.0547 0.05078-0.10937 0.09375-0.16016 0.18359-0.21093 0.50391-0.23437 0.71484-0.0469 0.08203 0.0664 0.13281 0.15625 0.16016 0.25391l1.4492 5.6289z"/><path d="m62.105 292.26h-0.91406v-1.2852h0.10547c0.42188 0 0.88281-0.25 1.1641-0.64062h1.2695v10.152h-1.625z"/><path d="m69.641 291.8c-0.03125 0-0.0625-4e-3 -0.09375-4e-3 -0.73047 0-1.207 0.39453-1.5469 1.25-0.25 0.60547-0.39453 1.5312-0.39453 2.3867 0 1.0703 0.21484 2.1719 0.60938 2.8164 0.32031 0.53125 0.75 0.78125 1.3906 0.78125 0.75 0 1.2148-0.39062 1.5703-1.2812 0.21484-0.53515 0.39453-1.5312 0.39453-2.3164 0-1.1406-0.21484-2.1758-0.60938-2.8516-0.32031-0.53125-0.71094-0.74609-1.3203-0.78125m-0.03516 8.8672c-1.4297 0-2.3203-0.57031-2.9297-1.8164-0.42578-0.85157-0.71484-2.207-0.71484-3.418 0.0039-1.6758 0.43359-3.1719 1.1094-4.1328 0.60547-0.78515 1.4297-1.1367 2.6055-1.1367 1.2852 0 2.1797 0.57031 2.8203 1.8164 0.42969 0.89063 0.67969 2.1719 0.67969 3.4531v8e-3c0 1.6016-0.39453 3.1992-1.1055 4.0898-0.57422 0.78125-1.3945 1.1367-2.4648 1.1367"/><path d="m56.012 281.32c-0.625 0-1.1367-0.51172-1.1367-1.1367v-10.16c0-0.625 0.51172-1.1367 1.1367-1.1367h22.34c0.62891 0 1.1367 0.51172 1.1367 1.1367v10.16c0 0.625-0.50781 1.1367-1.1367 1.1367z"/></g><path d="m78.352 268.77h-22.34c-0.69531 0-1.2617 0.56641-1.2617 1.2617v10.16c0 0.69531 0.56641 1.2617 1.2617 1.2617h22.34c0.69531 0 1.2617-0.56641 1.2617-1.2617v-10.16c0-0.69531-0.56641-1.2617-1.2617-1.2617m0 0.25c0.55859 0 1.0117 0.45313 1.0117 1.0117v10.16c0 0.55859-0.45312 1.0117-1.0117 1.0117h-22.34c-0.55859 0-1.0117-0.45313-1.0117-1.0117v-10.16c0-0.55859 0.45312-1.0117 1.0117-1.0117h22.34" fill="#211e1e"/><path d="m78.348 280.86h-22.332c-0.375 0-0.67578-0.30078-0.67578-0.67578v-10.148c0-0.375 0.30078-0.67969 0.67578-0.67969h22.332c0.375 0 0.67969 0.30469 0.67969 0.67969v10.148c0 0.375-0.30469 0.67578-0.67969 0.67578" fill="#14549c"/><g fill="#fff"><path d="m65.75 274.69-0.38281 1.5586h0.78125zm0.96875 3.8008-0.37891-1.4805h-1.1641l-0.35938 1.4805h-0.78125l1.3516-5.4141h0.76172l1.3516 5.4141z"/><path d="m60.094 278.49v-6.7695h3.1914v0.95312h-2.2148v1.707h1.4062v0.92578h-1.4062v2.2344h2.4766v0.94922z"/><path d="m69.531 275.99c-0.23438-0.15235-0.46484-0.30469-0.60938-0.40625-0.43359-0.3086-0.66797-0.72266-0.66797-1.1953 0-0.78125 0.61328-1.4062 1.3945-1.4062 0.76172 0 1.3555 0.58594 1.375 1.4062h-0.74609c-0.01953-0.38281-0.28516-0.6289-0.62891-0.6289-0.36328 0-0.64844 0.26562-0.64844 0.6289 0 0.26563 0.11328 0.41797 0.51562 0.64454 1.0469 0.60546 1.5078 1.1953 1.5078 1.9766 0 0.87109-0.66797 1.5742-1.5078 1.5742-0.95703 0-1.5273-0.79688-1.5273-1.6914h0.76172c0 0.45703 0.23047 0.93359 0.76562 0.93359 0.41797 0 0.76172-0.3789 0.76172-0.8164 0-0.33985-0.14062-0.625-0.74609-1.0195"/><path d="m73.281 273.8v4.6914h-0.78125v-4.6914h-0.99219v-0.72266h2.7656v0.72266z"/><path d="m114.56 318.5c-4.5469 0-8.2461-3.6992-8.2461-8.2461v-32.488c0-4.5469 3.6992-8.2461 8.2461-8.2461h105.58c4.5469 0 8.2461 3.6992 8.2461 8.2461v32.488c0 4.5469-3.6992 8.2461-8.2461 8.2461z"/></g><path d="m220.14 269.4h-105.58c-4.6172 0-8.3711 3.7539-8.3711 8.3711v32.488c0 4.6133 3.7539 8.3711 8.3711 8.3711h105.58c4.6133 0 8.3711-3.7578 8.3711-8.3711v-32.488c0-4.6172-3.7578-8.3711-8.3711-8.3711m0 0.25c4.4844 0 8.1211 3.6367 8.1211 8.1211v32.488c0 4.4844-3.6367 8.1211-8.1211 8.1211h-105.58c-4.4844 0-8.1211-3.6367-8.1211-8.1211v-32.488c0-4.4844 3.6367-8.1211 8.1211-8.1211h105.58" fill="#211e1e"/><path d="m114.56 317.02c-0.91406 0-1.8008-0.17578-2.6328-0.53125-0.80859-0.33985-1.5312-0.82813-2.1523-1.4492-0.6211-0.6211-1.1094-1.3477-1.4531-2.1524-0.35156-0.83203-0.53125-1.7188-0.53125-2.6328v-32.488c0-0.91406 0.17969-1.8008 0.53125-2.6328 0.34375-0.80469 0.83203-1.5312 1.4531-2.1524 0.62109-0.62109 1.3438-1.1094 2.1523-1.4492 0.83203-0.35547 1.7188-0.53125 2.6328-0.53125h105.58c0.91407 0 1.8008 0.17578 2.6328 0.53125 0.80468 0.33984 1.5273 0.82812 2.1523 1.4492 0.62109 0.6211 1.1094 1.3477 1.4492 2.1524 0.35547 0.83203 0.53125 1.7188 0.53125 2.6328v32.488c0 0.91406-0.17578 1.8008-0.53125 2.6328-0.33984 0.80469-0.82813 1.5312-1.4492 2.1524-0.625 0.62109-1.3477 1.1094-2.1523 1.4492-0.83203 0.35547-1.7188 0.53125-2.6328 0.53125z" fill="#00664c"/><g fill="#fff"><path d="m141.35 302.55-6.7266-8.293c-0.125-0.15235-0.3125-0.25-0.52344-0.25s-0.40234 0.0976-0.52734 0.25l-6.7227 8.293c-0.0977 0.11718-0.15234 0.26562-0.15234 0.42578 0 0.375 0.30078 0.67578 0.67578 0.67578 0.0547 0 0.10938-4e-3 0.16016-0.0156l4.8711-1.168-0.58984 8.4609h4.5664l-0.58984-8.4609 4.875 1.168c0.0508 0.0117 0.10156 0.0156 0.15625 0.0156 0.375 0 0.67969-0.30078 0.67969-0.67578 0-0.16016-0.0586-0.3086-0.15235-0.42578"/><path d="m202.82 308.96 10.16-6.8594c0.17969-0.125 0.29688-0.32813 0.29688-0.5625 0-0.23438-0.11719-0.4375-0.29688-0.5586l-10.16-6.8633c-0.10938-0.0664-0.23438-0.10547-0.3711-0.10547-0.37109 0-0.67578 0.30079-0.67578 0.67579 0 0.0547 8e-3 0.10546 0.0195 0.15625l1.1641 4.875-13.789-0.58985v4.8203l13.789-0.58984-1.1641 4.875c-0.0117 0.0508-0.0195 0.10156-0.0195 0.15625 0 0.375 0.30469 0.67578 0.67578 0.67578 0.13672 0 0.26172-0.0391 0.3711-0.10547"/><path d="m179.22 284.17c-0.49219-2.418-1.5352-4.5859-2.9688-6.3984-2.8047 0.85938-5.8867 0.92188-8.9023 0-3.0156 0.92188-6.0938 0.85938-8.8984 0-1.4336 1.8125-2.4766 3.9805-2.9727 6.3984-1.6836 8.2383 3.6328 16.285 11.871 17.969 8.2422-1.6836 13.555-9.7305 11.871-17.969"/></g><path d="m178.36 282.85c-0.20312-0.64844-0.44531-1.2812-0.73046-1.8906-0.4336-0.91797-0.95704-1.793-1.5703-2.6016-1.3867 0.39062-2.8164 0.58984-4.2578 0.58984-1.5 0-3-0.21484-4.4531-0.64453-1.4531 0.42969-2.9492 0.64453-4.4531 0.64453-1.4375 0-2.8672-0.19922-4.2578-0.58984-0.60938 0.80859-1.1367 1.6836-1.5664 2.6016-0.28515 0.60938-0.53125 1.2422-0.73047 1.8906z" fill="#bf2317"/><path d="m178.5 283.36h-22.312c-0.082 0.30078-0.15235 0.60547-0.21485 0.91406-0.39844 1.9453-0.40234 3.9141-0.0156 5.8438 0.375 1.8672 1.1016 3.6211 2.1562 5.2148 1.0508 1.5977 2.3828 2.9531 3.9531 4.0312 1.5938 1.0938 3.3711 1.8555 5.2774 2.2578 1.9102-0.40235 3.6875-1.1641 5.2812-2.2578 1.5703-1.0781 2.8984-2.4336 3.9531-4.0312 1.0547-1.5938 1.7773-3.3476 2.1562-5.2148 0.38672-1.9297 0.38281-3.8984-0.0156-5.8438-0.0625-0.30859-0.13672-0.61328-0.21875-0.91406" fill="#14549c"/><g fill="#fff"><path d="m171.5 280.44-0.1914 0.78125h0.39062zm0.48438 1.9023-0.1875-0.74218h-0.58203l-0.17969 0.74218h-0.39063l0.67579-2.707h0.3789l0.67578 2.707z"/><path d="m163.65 282.34v-2.707h1.2774v0.37891h-0.88672v0.68359h0.5625v0.3711h-0.5625v0.89062h0.98828v0.38281z"/><path d="m159.02 279.63h0.37891v2.707h-0.37891z"/><path d="m161.22 282.34-0.83594-1.8164v1.8164h-0.38672v-2.707h0.38672l0.74219 1.625v-1.625h0.38672v2.707z"/><path d="m166.28 280.01h-0.39844v0.68359h0.39844c0.22656 0 0.35156-0.12109 0.35156-0.33984 0-0.21094-0.14453-0.34375-0.35156-0.34375m0.33203 2.3281-0.35937-1.2734h-0.3711v1.2734h-0.39062v-2.707h0.80859c0.42578 0 0.71094 0.28516 0.71094 0.72266 0 0.32031-0.13281 0.55859-0.39063 0.65234l0.39063 1.332z"/><path d="m168.11 281.09c-0.11719-0.0781-0.23047-0.15234-0.30469-0.20312-0.21484-0.15625-0.33203-0.36328-0.33203-0.60156 0-0.38672 0.30469-0.70313 0.69531-0.70313 0.38281 0 0.67969 0.29688 0.6875 0.70313h-0.37109c-0.0117-0.1875-0.14453-0.3125-0.31641-0.3125-0.17969 0-0.32422 0.13281-0.32422 0.3125 0 0.13281 0.0586 0.21093 0.25782 0.32421 0.52343 0.30469 0.7539 0.59766 0.7539 0.98829 0 0.4375-0.33203 0.78906-0.7539 0.78906-0.47657 0-0.76172-0.39844-0.76172-0.84766h0.3789c0 0.23047 0.11719 0.46875 0.38282 0.46875 0.21093 0 0.38281-0.1914 0.38281-0.41015 0-0.16797-0.0703-0.3125-0.375-0.50782"/><path d="m162.78 279.99v2.3476h-0.39062v-2.3476h-0.4961v-0.35938h1.3828v0.35938z"/><path d="m174.3 282.34v-2.707h1.2734v0.37891h-0.88672v0.68359h0.56641v0.3711h-0.56641v0.89062h0.99219v0.38281z"/><path d="m173.42 279.99v2.3476h-0.39062v-2.3476h-0.49609v-0.35938h1.3789v0.35938z"/><path d="m169.98 279.99v2.3476h-0.39063v-2.3476h-0.49609v-0.35938h1.3828v0.35938z"/><path d="m162.27 287.48h-0.91797v-1.2812h0.10547c0.42187 0 0.88281-0.25 1.1641-0.64062h1.2695v10.152h-1.6211z"/><path d="m169.81 287.02c-0.0352-4e-3 -0.0664-4e-3 -0.0977-4e-3 -0.73047 0-1.2031 0.39453-1.5469 1.25-0.25 0.60547-0.39453 1.5312-0.39453 2.3867 0 1.0664 0.21875 2.1719 0.60938 2.8125 0.32031 0.53515 0.75 0.78515 1.3906 0.78515 0.75 0 1.2148-0.39062 1.5742-1.2812 0.21484-0.53515 0.39062-1.5352 0.39062-2.3164 0-1.1406-0.21484-2.1758-0.60546-2.8516-0.32032-0.53515-0.71485-0.74609-1.3203-0.78125m-0.0391 8.8672c-1.4297 0-2.3203-0.57031-2.9258-1.8164-0.42969-0.85547-0.71484-2.207-0.71484-3.418 0-1.6758 0.42968-3.1719 1.1055-4.1328 0.60938-0.78515 1.4297-1.1367 2.6094-1.1367 1.2852 0 2.1758 0.5664 2.8203 1.8125 0.42969 0.89453 0.67578 2.1758 0.67578 3.457v8e-3c0 1.6016-0.39062 3.1992-1.1055 4.0859-0.57031 0.78515-1.3945 1.1406-2.4648 1.1406"/><path d="m131.55 280.81-0.94922 2.2812h1.9024zm2.1367 5.082-0.66406-1.5898h-2.9414l-0.66797 1.5898h-1.3281l2.8476-6.7656h1.2344l2.8281 6.7656z"/><path d="m121.16 285.89v-8.1211h5.9492v1.4531h-4.4609v1.5117h2.4297v1.4805h-2.4297v2.2227h4.6016v1.4531z"/><path d="m138.26 282.86c-0.30078-0.082-1.0586-0.26953-1.3125-0.41796-0.51172-0.30469-0.89844-0.80079-0.89844-1.5352 0-1.1289 0.95313-1.8984 2.3359-1.8984 1 0 1.8359 0.33594 2.5273 1.0586l-0.90625 0.8164c-0.42969-0.45703-0.97656-0.67578-1.6211-0.67578-0.69141 0-1.0977 0.26563-1.0977 0.69922 0 0.38672 0.23828 0.55469 1.0742 0.74609 0.90625 0.19532 1.5 0.38672 1.8828 0.57813 0.59766 0.3125 0.97657 0.96484 0.97657 1.7109 0 0.69921-0.3086 1.2266-0.95313 1.6133-0.47656 0.28906-1.0977 0.45703-1.7148 0.45703-1.168 0-2.0508-0.4336-2.8164-1.3242l0.98047-0.76953c0.5 0.60156 1.0469 0.86328 1.8086 0.86328 0.85938 0 1.4805-0.38281 1.4805-0.88672 0-0.64453-0.6914-0.73828-1.7461-1.0352"/><path d="m145.1 280.31v5.5781h-1.1836v-5.5781h-1.9453v-1.1875h5.0742v1.1875z"/><path d="m197.47 285.89v-6.7656h4.957v1.2109h-3.7188v1.2578h2.0273v1.2344h-2.0273v1.8516h3.8359v1.2109z"/><path d="m206.02 282.86c-0.30078-0.082-1.0586-0.26953-1.3125-0.41796-0.51172-0.30469-0.90234-0.80079-0.90234-1.5352 0-1.1289 0.95703-1.8984 2.3398-1.8984 1 0 1.8359 0.33594 2.5273 1.0586l-0.90625 0.8164c-0.42968-0.45703-0.97656-0.67578-1.6211-0.67578-0.69141 0-1.0977 0.26563-1.0977 0.69922 0 0.38672 0.23829 0.55469 1.0742 0.74609 0.90625 0.19532 1.5 0.38672 1.8828 0.57813 0.59375 0.3125 0.97656 0.96484 0.97656 1.7109 0 0.69921-0.3086 1.2266-0.95313 1.6133-0.47656 0.28906-1.0976 0.45703-1.7188 0.45703-1.168 0-2.0508-0.4336-2.8125-1.3242l0.97657-0.76953c0.5 0.60156 1.0508 0.86328 1.8125 0.86328 0.85937 0 1.4805-0.38281 1.4805-0.88672 0-0.64453-0.6914-0.73828-1.7461-1.0352"/><path d="m212.86 280.31v5.5781h-1.1836v-5.5781h-1.9453v-1.1875h5.0742v1.1875z"/><path d="m194.81 285.89h-1.5391l-1.3125-5.4414-1.2852 5.4414h-1.5391l-1.4844-8.1211h1.5117l0.88672 5.2461 1.1953-5.2461h1.457l1.2539 5.2461 0.82813-5.2461h1.4844z"/></g><g><path d="m346.32 523.62h-1.4453v-61.188h1.4453z" fill="#211e1e"/><path d="m336.46 470.51c-0.62891 0-1.1406-0.51562-1.1406-1.1445v-12.18c0-0.6289 0.51171-1.1406 1.1406-1.1406h18.273c0.6289 0 1.1406 0.51172 1.1406 1.1406v12.18c0 0.62891-0.51172 1.1445-1.1406 1.1445z" fill="#fff"/><path d="m354.73 455.92h-18.273c-0.69922 0-1.2656 0.5664-1.2656 1.2656v12.18c0 0.69922 0.5664 1.2695 1.2656 1.2695h18.273c0.69531 0 1.2656-0.57031 1.2656-1.2695v-12.18c0-0.69922-0.57031-1.2656-1.2656-1.2656m0 0.25c0.55859 0 1.0156 0.45312 1.0156 1.0156v12.18c0 0.5625-0.45703 1.0195-1.0156 1.0195h-18.273c-0.5625 0-1.0156-0.45703-1.0156-1.0195v-12.18c0-0.5625 0.45312-1.0156 1.0156-1.0156h18.273" fill="#211e1e"/><path d="m336.46 470.04c-0.375 0-0.67969-0.30469-0.67969-0.67969v-12.18c0-0.375 0.30469-0.67578 0.67969-0.67578h18.273c0.37109 0 0.67578 0.30078 0.67578 0.67578v12.18c0 0.375-0.30469 0.67969-0.67578 0.67969z" fill="#14549c"/></g><g fill="#fff"><path d="m347.02 461.38c-0.11328-0.79688-0.42969-1.168-0.97266-1.168-0.94531 0-1.2891 0.74218-1.2891 2.8516 0 2.3359 0.40235 3.2773 1.4024 3.2773 0.6875 0 0.85937-0.57031 0.85937-1.1719h1.1758c-0.0312 1.3398-0.89062 2.3086-2.0352 2.3086-1.7461 0-2.5195-1.3945-2.5195-4.3867 0-2.6211 0.83204-4.0195 2.4336-4.0195 0.66015 0 1.2305 0.28516 1.6016 0.82813 0.31641 0.39843 0.43359 0.74218 0.51953 1.4805z"/><path d="m341.48 466.71c-0.40234 0.45703-1.0586 0.76953-1.6875 0.76953-0.82812 0-1.5703-0.39844-1.9141-1.0273l0.88672-0.67969c0.28515 0.36719 0.6289 0.57031 1.0273 0.57031 0.3711 0 0.74219-0.20312 0.91406-0.51562 0.0859-0.17188 0.14454-0.34375 0.14454-0.51172v-6.0977h1.1719v5.7539c0 0.88672-0.14453 1.2852-0.54297 1.7383"/><path d="m351.82 460.3v7.0391h-1.1719v-7.0391h-1.4844v-1.082h4.1445v1.082z"/><path d="m345.58 496.22c-8.2969-1.6914-13.664-9.8164-11.969-18.113 0.48829-2.3867 1.4922-4.5547 2.9961-6.4492l0.0508-0.0664 0.082 0.0274c1.4336 0.4375 2.918 0.66015 4.4102 0.66015 1.4922 0 2.9805-0.22265 4.418-0.66015 1.5117 0.4375 2.9961 0.66015 4.4883 0.66015 1.4922 0 2.9766-0.22265 4.4102-0.66015l0.082-0.0274 0.0547 0.0664c1.5 1.8945 2.5078 4.0664 2.9961 6.4492 1.6953 8.293-3.6758 16.422-11.969 18.113l-0.0274 8e-3z"/></g><g><path d="m354.59 471.45-0.16406 0.0508c-1.4219 0.4336-2.8945 0.65625-4.375 0.65625s-2.9531-0.22265-4.3789-0.65625l-0.0742-0.0234-0.0703 0.0234c-1.4297 0.4336-2.9023 0.65625-4.3828 0.65625s-2.9531-0.22265-4.3711-0.65625l-0.16406-0.0508-0.10937 0.13281c-1.5117 1.9102-2.5274 4.0977-3.0156 6.5039-0.83203 4.0508-0.0312 8.1797 2.25 11.629 2.2773 3.4492 5.7617 5.8047 9.8125 6.6328l0.0508 0.0117 0.0508-0.0117c4.0508-0.82813 7.5352-3.1836 9.8164-6.6328 2.2773-3.4492 3.0781-7.5781 2.25-11.629-0.49219-2.4062-1.5078-4.5938-3.0195-6.5039zm-8.9922 0.28906c1.4805 0.45313 2.9805 0.66797 4.4531 0.66797 1.5234 0 3.0234-0.23047 4.4453-0.66797 1.4375 1.8125 2.4805 3.9766 2.9727 6.3984 1.6836 8.2383-3.6289 16.281-11.871 17.965-8.2383-1.6836-13.555-9.7266-11.871-17.965 0.49609-2.4219 1.5391-4.5859 2.9726-6.3984 1.4258 0.4375 2.9219 0.66797 4.4453 0.66797 1.4726 0 2.9726-0.21484 4.4531-0.66797" fill="#211e1e"/><path d="m356.61 476.81c-0.19921-0.64453-0.4414-1.2773-0.72656-1.8906-0.42969-0.91406-0.95703-1.7891-1.5703-2.5977-1.3867 0.39063-2.8164 0.58985-4.2578 0.58985-1.5039 0-3-0.21875-4.4531-0.64454-1.4531 0.42579-2.9492 0.64454-4.4531 0.64454-1.4375 0-2.8672-0.19922-4.2578-0.58985-0.60937 0.8086-1.1367 1.6836-1.5664 2.5977-0.28516 0.61328-0.53125 1.2461-0.73047 1.8906z" fill="#bf2317"/><path d="m356.76 477.32h-22.312c-0.082 0.30078-0.15625 0.60547-0.21484 0.91016-0.40235 1.9492-0.40625 3.9141-0.0156 5.8476 0.375 1.8672 1.1016 3.6211 2.1524 5.2148 1.0547 1.5938 2.3867 2.9531 3.9531 4.0273 1.5977 1.0977 3.375 1.8555 5.2812 2.2617 1.9102-0.40625 3.6836-1.1641 5.2812-2.2617 1.5664-1.0742 2.8984-2.4336 3.9531-4.0273 1.0547-1.5938 1.7773-3.3477 2.1523-5.2148 0.39063-1.9336 0.38672-3.8984-0.0117-5.8476-0.0625-0.30469-0.13672-0.60938-0.21875-0.91016" fill="#14549c"/></g><g fill="#fff"><path d="m349.75 474.4-0.19141 0.77735h0.39063zm0.48437 1.8984-0.1875-0.73828h-0.58203l-0.18359 0.73828h-0.38672l0.67188-2.707h0.38281l0.67578 2.707z"/><path d="m341.91 476.3v-2.707h1.2734v0.38281h-0.88282v0.6836h0.5586v0.37109h-0.5586v0.89062h0.98829v0.37891z"/><path d="m337.27 473.6h0.3789v2.707h-0.3789z"/><path d="m339.47 476.3-0.83594-1.8125v1.8125h-0.38672v-2.707h0.38672l0.73828 1.625v-1.625h0.39062v2.707z"/><path d="m344.53 473.98h-0.39453v0.6836h0.39453c0.23047 0 0.35156-0.125 0.35156-0.34375 0-0.20704-0.14062-0.33985-0.35156-0.33985m0.33203 2.3242-0.35937-1.2695h-0.36719v1.2695h-0.39063v-2.707h0.8086c0.42578 0 0.70703 0.28516 0.70703 0.72266 0 0.32421-0.12891 0.5625-0.38672 0.65625l0.38672 1.3281z"/><path d="m346.36 475.05c-0.11718-0.0742-0.23046-0.14844-0.30468-0.19922-0.21485-0.15625-0.33203-0.36328-0.33203-0.60156 0-0.38672 0.30468-0.70313 0.69531-0.70313 0.38281 0 0.67578 0.29688 0.6875 0.70313h-0.3711c-0.0117-0.1875-0.14453-0.3125-0.3164-0.3125-0.17969 0-0.32422 0.13281-0.32422 0.3125 0 0.13281 0.0586 0.21094 0.25781 0.32422 0.52344 0.30469 0.75391 0.59765 0.75391 0.98828 0 0.4375-0.33594 0.78906-0.75391 0.78906-0.47656 0-0.76172-0.40234-0.76172-0.84765h0.37891c0 0.23046 0.11719 0.46484 0.38281 0.46484 0.21094 0 0.38281-0.1875 0.38281-0.40625 0-0.16797-0.0703-0.3125-0.375-0.51172"/><path d="m341.03 473.96v2.3477h-0.39063v-2.3477h-0.49609v-0.35937h1.3828v0.35937z"/><path d="m352.55 476.3v-2.707h1.2774v0.38281h-0.88281v0.6836h0.55859v0.37109h-0.55859v0.89062h0.98828v0.37891z"/><path d="m351.67 473.96v2.3477h-0.39062v-2.3477h-0.49219v-0.35937h1.3789v0.35937z"/><path d="m348.23 473.96v2.3477h-0.39062v-2.3477h-0.49609v-0.35937h1.3828v0.35937z"/><path d="m340.53 481.44h-0.91797v-1.2812h0.10547c0.42188 0 0.88282-0.25 1.1641-0.64454h1.2695v10.156h-1.6211z"/><path d="m348.06 480.98h-0.0937c-0.73047 0-1.207 0.39453-1.5469 1.2461-0.25 0.60937-0.39453 1.5312-0.39453 2.3906 0 1.0664 0.21875 2.1719 0.60937 2.8125 0.32031 0.53516 0.75 0.78125 1.3906 0.78125 0.75 0 1.2148-0.38672 1.5703-1.2812 0.21484-0.53516 0.39453-1.5312 0.39453-2.3125 0-1.1406-0.21484-2.1758-0.60937-2.8516-0.32032-0.53516-0.71094-0.75-1.3203-0.78516m-0.0351 8.8711c-1.4297 0-2.3203-0.57032-2.9297-1.8164-0.42578-0.85547-0.71094-2.207-0.71094-3.418 0-1.6758 0.42969-3.1719 1.1055-4.1328 0.60547-0.78516 1.4297-1.1406 2.6055-1.1406 1.2852 0 2.1797 0.57032 2.8242 1.8164 0.42578 0.89062 0.67578 2.1758 0.67578 3.457v8e-3c0 1.5977-0.39063 3.1992-1.1055 4.0859-0.57031 0.78516-1.3945 1.1406-2.4648 1.1406"/></g><path d="m546.05 354.21h-117.77c-4.6133 0-8.3711 3.7539-8.3711 8.3711v81.215c0 4.6172 3.7578 8.3711 8.3711 8.3711h117.77c4.6133 0 8.3711-3.7539 8.3711-8.3711v-81.215c0-4.6172-3.7578-8.3711-8.3711-8.3711m0 0.25c4.4844 0 8.1211 3.6328 8.1211 8.1211v81.215c0 4.4844-3.6367 8.1211-8.1211 8.1211h-117.77c-4.4844 0-8.1211-3.6367-8.1211-8.1211v-81.215c0-4.4883 3.6367-8.1211 8.1211-8.1211h117.77" fill="#211e1e"/><path d="m546.05 450.57h-117.77c-3.7383 0-6.7656-3.0312-6.7656-6.7695v-81.215c0-3.7383 3.0273-6.7695 6.7656-6.7695h117.77c3.7383 0 6.7695 3.0312 6.7695 6.7695v81.215c0 3.7383-3.0312 6.7695-6.7695 6.7695" fill="#00664c"/><g fill="#fff"><path d="m450.39 403.73c-0.15625 0.23438-0.12109 0.46875-0.0391 0.78907l0.67578 2.2695h-12.551c-1.2109 0-2.3555 0.29687-3.3672 0.80859v-27.371c0-1.8555 1.5117-3.3672 3.3672-3.3672h12.551v4e-3l-0.6875 2.3086c-0.0781 0.27734-0.0977 0.51953 0.0508 0.75 0.24219 0.35156 0.71094 0.4375 1.0586 0.20313l7.8672-5.3242-7.8672-5.3242c-0.34765-0.23828-0.8164-0.14453-1.0586 0.20312-0.15625 0.23828-0.12109 0.47266-0.0391 0.78907l0.67578 2.2695h-12.551c-4.1289 0-7.4844 3.3594-7.4844 7.4883v58.648h4.1172v-24.598c0-1.8594 1.5117-3.3672 3.3672-3.3672h12.551l-0.6875 2.3086c-0.0781 0.28125-0.0977 0.51953 0.0508 0.75 0.24219 0.35546 0.71094 0.4414 1.0586 0.20703l7.8672-5.3281-7.8672-5.3203c-0.34765-0.23828-0.8164-0.14844-1.0586 0.20312" fill-rule="evenodd"/><g><path d="m491.13 424.51h-2.9883v2.457h2.9883c0.80078 0 1.3672-0.49218 1.3672-1.2461 0-0.6875-0.5664-1.2109-1.3672-1.2109m1.3672 8.668-1.4844-4.0508h-2.8711v4.0508h-2.1367v-10.828h4.9336c0.91016 0 1.3672 0.11328 1.9766 0.45312 1.0703 0.60547 1.7148 1.707 1.7148 2.918 0 1.1719-0.57032 2.2344-1.5625 2.875l1.7148 4.582z"/><path d="m511.58 430c-0.64453-0.22656-1.4062-0.34375-1.8242-0.34375-0.6836 0-1.2148 0.37891-1.2148 0.8711 0 0.49218 0.64844 0.91015 1.4062 0.91015 0.45313 0 1.0274-0.0742 1.6328-0.41797zm0 3.1797v-0.26562c-0.76171 0.30468-1.4805 0.3789-2.0898 0.3789-1.75 0-3.0078-1.0976-3.0078-2.6523 0-1.625 1.4102-2.8359 3.2734-2.8359 0.45312 0 1.1797 0.0742 1.8242 0.30078-0.0351-0.75781-0.60546-1.0586-1.4062-1.0586-0.75781 0-1.4844 0.1875-2.2422 0.60547l-0.80078-1.707c1.1797-0.60547 1.9766-0.83204 3.043-0.83204 2.1719 0 3.4609 1.0625 3.4609 3.2578v4.8086z"/><path d="m522.13 427.91c-0.30469-0.53125-0.8711-0.75781-1.4062-0.75781-0.87891 0-1.5625 0.90625-1.5625 2.043s0.68359 2.043 1.5976 2.043c0.5 0 1.0664-0.22657 1.3711-0.75391zm0 5.2617v-0.375c-0.38282 0.33984-1.1406 0.48828-1.75 0.48828-1.8281 0-3.3867-1.8945-3.3867-4.0898s1.5586-4.0898 3.4219-4.0898c0.57422 0 1.2617 0.15625 1.7148 0.53125v-2.6133l2.0156-0.83203v10.98z"/><path d="m500.38 427.1c-0.83594 0-1.4844 0.90625-1.4844 2.082 0 1.1367 0.64844 2.043 1.4844 2.043 0.79687 0 1.5195-0.90625 1.5195-2.043 0-1.1758-0.72266-2.082-1.5195-2.082m0 6.1758c-1.9805 0-3.6484-1.8203-3.6484-4.0938 0-2.3477 1.5976-4.1289 3.6484-4.1289 1.8984 0 3.7226 1.8594 3.7226 4.1289 0 2.2734-1.7891 4.0938-3.7226 4.0938"/><path d="m469.54 405.55v1.9336h3.4805v2.1562h-3.4805v4.582h-2.1172v-10.828h8.0195v2.1562z"/><path d="m519.65 411.05c-0.64453-0.23046-1.4062-0.34375-1.8242-0.34375-0.6875 0-1.2188 0.38282-1.2188 0.8711 0 0.49219 0.64453 0.91015 1.4023 0.91015 0.46094 0 1.0312-0.0781 1.6406-0.41796zm0 3.1797v-0.26562c-0.76172 0.30468-1.4805 0.3789-2.0938 0.3789-1.75 0-3.0039-1.1016-3.0039-2.6523 0-1.625 1.4062-2.8359 3.2734-2.8359 0.45312 0 1.1797 0.0742 1.8242 0.30078-0.0352-0.75781-0.60938-1.0586-1.4062-1.0586-0.76563 0-1.4883 0.1875-2.2461 0.60156l-0.80078-1.7031c1.1797-0.60157 1.9766-0.83203 3.0469-0.83203 2.1641 0 3.4609 1.0625 3.4609 3.2578v4.8086z"/><path d="m539.22 408.09c-0.57422 0-1.1016 0.375-1.3359 1.0938h2.5898c-0.30078-0.79297-0.64844-1.0938-1.2539-1.0938m-1.4453 2.875c0.22657 0.91016 0.8711 1.4375 1.5586 1.4375 0.45703 0 0.875-0.26172 1.2148-0.71875l1.4844 1.293c-0.79688 0.9414-1.6328 1.3555-2.6992 1.3555-2.0195 0-3.7656-1.7774-3.7656-4.0859 0-2.2734 1.7109-4.0898 3.6524-4.0898 1.293 0 2.4726 0.79687 3.0391 2.043 0.30469 0.72266 0.46094 1.4805 0.46094 2.4609v0.30469z"/><path d="m530.2 408.96c-0.34375-0.49609-0.98828-0.76172-1.5234-0.76172-0.875 0-1.4844 0.83594-1.4844 2.0078 0 1.1758 0.60937 2.082 1.4844 2.082 0.53516 0 1.1406-0.22266 1.5234-0.75391zm1.2188 7.6484c-0.38281 0.45313-2.1719 1.5898-2.5898 1.625l-0.875-1.8516c0.875-0.45703 1.293-0.72266 1.6367-1.0234 0.34375-0.26562 0.60937-0.75781 0.60937-1.1367v-0.49219c-0.53515 0.41797-1.2578 0.60157-1.8633 0.60157-1.7891 0-3.2734-1.8516-3.2734-4.0859 0-2.2344 1.5195-4.0898 3.2734-4.0898 0.64453 0 1.3711 0.15234 1.8633 0.53125v-0.33985h2.0156v7.6094c0 1.2852-0.1875 1.9336-0.79688 2.6523"/><path d="m501.16 414.17v-4.7305c0-0.72266-0.49609-1.2891-1.3359-1.2891-0.75781 0-1.5195 0.60547-1.5195 1.25v4.7695h-2.1641v-7.875h2.1641v0.41797c0.72266-0.45313 1.4102-0.60547 2.1328-0.60547 1.6328 0 2.8555 1.1328 2.8555 2.6484v5.4141z"/><path d="m489.05 408.15c-0.83594 0-1.4805 0.91015-1.4805 2.082 0 1.1367 0.64453 2.0469 1.4805 2.0469 0.80078 0 1.5234-0.91015 1.5234-2.0469 0-1.1719-0.72266-2.082-1.5234-2.082m0 6.1758c-1.9727 0-3.6445-1.8203-3.6445-4.0938 0-2.3438 1.5938-4.1289 3.6445-4.1289 1.9023 0 3.7266 1.8594 3.7266 4.1289 0 2.2734-1.7852 4.0938-3.7266 4.0938"/><path d="m483.05 408.83c-0.30078-0.49219-0.83594-0.68359-1.2539-0.68359-0.95312 0-1.2578 0.5664-1.2578 1.668v4.3516h-2.1719v-7.8711h2.1719v0.37891c0.53125-0.41797 0.99219-0.57422 1.5664-0.57422 0.64454 0 1.1367 0.15625 1.6758 0.57422z"/><path d="m510.04 408.19v2.9492c0 0.72265 0.14844 1.1406 0.95312 1.0625 0.57032-0.0391 0.6875-0.1875 1.0625-0.57031l-0.57031 2.2383c-0.72266 0.30078-0.64453 0.41797-1.4102 0.41797-1.4805 0-2.168-0.8711-2.168-2.4258v-3.6719h-1.4844v-1.8555h1.4844v-2.3086l2.1328-0.83594v3.1055h2.0156v1.8945z"/><path d="m514.75 366.72-1.1406 2.7383h2.2812zm2.5625 6.0976-0.79688-1.9102h-3.5352l-0.79687 1.9102h-1.5938l3.418-8.1211h1.4805l3.3906 8.1211z"/><path d="m501.95 372.82v-10.152h7.4336v1.8203h-5.5781v1.8867h3.0391v1.8516h-3.0391v2.7774h5.7578v1.8164z"/><path d="m522.8 369.18c-0.35938-0.10156-1.2695-0.32422-1.5781-0.5039-0.60937-0.36328-1.0781-0.95703-1.0781-1.8398 0-1.3594 1.1445-2.2812 2.8047-2.2812 1.2031 0 2.2031 0.40235 3.0352 1.2695l-1.0898 0.98438c-0.51563-0.55078-1.1719-0.80859-1.9453-0.80859-0.82812 0-1.3164 0.3164-1.3164 0.83593 0 0.46094 0.28515 0.66407 1.2891 0.89453 1.0859 0.23047 1.8047 0.46485 2.2617 0.69532 0.71484 0.375 1.1719 1.1562 1.1719 2.0508 0 0.83594-0.37109 1.4726-1.1445 1.9336-0.57031 0.34766-1.3164 0.55078-2.0586 0.55078-1.4062 0-2.4648-0.51953-3.3789-1.5898l1.1719-0.92578c0.60156 0.72265 1.2617 1.043 2.1758 1.043 1.0312 0 1.7734-0.46485 1.7734-1.0703 0-0.77343-0.82813-0.88671-2.0938-1.2383"/><path d="m531.01 366.12v6.6953h-1.4258v-6.6953h-2.332v-1.4258h6.0898v1.4258z"/><path d="m491.48 368.98c-0.49219-2.418-1.5352-4.5859-2.9727-6.3945-2.8008 0.85938-5.8828 0.91797-8.8984 0-3.0156 0.91797-6.0976 0.85938-8.8984 0-1.4336 1.8086-2.4766 3.9766-2.9727 6.3945-1.6836 8.2422 3.6328 16.285 11.871 17.969 8.2383-1.6836 13.555-9.7266 11.871-17.969"/></g></g><path d="m490.62 367.66c-0.19922-0.64844-0.44141-1.2812-0.73047-1.8906-0.42969-0.91796-0.95703-1.7891-1.5664-2.6016-1.3867 0.39453-2.8164 0.59375-4.2578 0.59375-1.5039 0-3-0.21875-4.4531-0.64844-1.4531 0.42969-2.9492 0.64844-4.4531 0.64844-1.4375 0-2.8672-0.19922-4.2578-0.59375-0.60938 0.8125-1.1367 1.6836-1.5664 2.6016-0.28516 0.60938-0.53125 1.2422-0.73047 1.8906z" fill="#bf2317"/><path d="m490.77 368.16h-22.312c-0.082 0.30078-0.15625 0.60547-0.21875 0.91406-0.39843 1.9492-0.40234 3.9141-0.0117 5.8477 0.375 1.8633 1.1016 3.6172 2.1523 5.2148 1.0547 1.5938 2.3828 2.9492 3.9531 4.0274 1.5977 1.0976 3.375 1.8555 5.2812 2.2578 1.9102-0.40234 3.6836-1.1602 5.2812-2.2578 1.5664-1.0781 2.8984-2.4336 3.9531-4.0274 1.0547-1.5976 1.7773-3.3516 2.1523-5.2148 0.39063-1.9336 0.38282-3.8984-0.0117-5.8477-0.0625-0.30859-0.13671-0.61328-0.21875-0.91406" fill="#14549c"/><g fill="#fff"><path d="m483.76 365.25-0.1914 0.77734h0.39062zm0.48438 1.8984-0.19141-0.74219h-0.57812l-0.1836 0.74219h-0.39062l0.67578-2.707h0.38281l0.67578 2.707z"/><path d="m475.91 367.15v-2.707h1.2773v0.3789h-0.88281v0.6875h0.55859v0.36719h-0.55859v0.89453h0.98828v0.37891z"/><path d="m471.28 364.44h0.37891v2.707h-0.37891z"/><path d="m473.48 367.15-0.83594-1.8125v1.8125h-0.38672v-2.707h0.38672l0.73828 1.625v-1.625h0.39063v2.707z"/><path d="m478.54 364.82h-0.39453v0.6836h0.39453c0.23047 0 0.35156-0.1211 0.35156-0.33985 0-0.21094-0.14062-0.34375-0.35156-0.34375m0.33203 2.3281-0.35937-1.2734h-0.36719v1.2734h-0.39062v-2.707h0.80468c0.42578 0 0.71094 0.28515 0.71094 0.72265 0 0.32422-0.13281 0.5586-0.38672 0.65625l0.38672 1.3281z"/><path d="m480.37 365.9c-0.11719-0.0742-0.23047-0.15235-0.30469-0.20313-0.21875-0.15234-0.33203-0.35937-0.33203-0.59765 0-0.39063 0.30469-0.70313 0.69531-0.70313 0.37891 0 0.67578 0.29297 0.6875 0.70313h-0.375c-8e-3 -0.19141-0.14062-0.3125-0.3125-0.3125-0.17969 0-0.32422 0.13281-0.32422 0.3125 0 0.13281 0.0547 0.20703 0.25781 0.32031 0.52344 0.30469 0.75391 0.60156 0.75391 0.98828 0 0.4375-0.33594 0.78906-0.75391 0.78906-0.47656 0-0.76562-0.39844-0.76562-0.84375h0.38281c0 0.22656 0.11719 0.46485 0.38281 0.46485 0.20704 0 0.37891-0.19141 0.37891-0.41016 0-0.16797-0.0664-0.30859-0.37109-0.50781"/><path d="m475.04 364.8v2.3477h-0.39062v-2.3477h-0.4961v-0.35937h1.3789v0.35937z"/><path d="m486.55 367.15v-2.707h1.2773v0.3789h-0.88672v0.6875h0.5625v0.36719h-0.5625v0.89453h0.99219v0.37891z"/><path d="m485.68 364.8v2.3477h-0.39063v-2.3477h-0.49219v-0.35937h1.3789v0.35937z"/><path d="m482.24 364.8v2.3477h-0.39063v-2.3477h-0.49609v-0.35937h1.3828v0.35937z"/><path d="m474.53 372.29h-0.91406v-1.2852h0.10547c0.42187 0 0.88281-0.25 1.1641-0.64063h1.2695v10.152h-1.625z"/><path d="m482.07 371.82c-0.0312 0-0.0625-4e-3 -0.0937-4e-3 -0.73047 0-1.207 0.39844-1.5469 1.25-0.25 0.60547-0.39453 1.5312-0.39453 2.3867 0 1.0703 0.21875 2.1758 0.60937 2.8164 0.32032 0.53125 0.75 0.78125 1.3906 0.78125 0.75 0 1.2148-0.39063 1.5703-1.2812 0.21485-0.53516 0.39453-1.5312 0.39453-2.3164 0-1.1406-0.21484-2.1758-0.60937-2.8516-0.32031-0.53125-0.71485-0.7461-1.3203-0.78125m-0.0352 8.8672c-1.4297 0-2.3203-0.56641-2.9297-1.8125-0.42578-0.85547-0.71484-2.2109-0.71484-3.4219 4e-3 -1.6758 0.43359-3.168 1.1094-4.1328 0.60547-0.78125 1.4297-1.1367 2.6055-1.1367 1.2852 0 2.1797 0.57031 2.8203 1.8164 0.42969 0.89062 0.67969 2.1719 0.67969 3.457v8e-3c0 1.5977-0.39062 3.1953-1.1055 4.0859-0.57422 0.78515-1.3945 1.1367-2.4648 1.1367"/><path d="m308.95 411.43c-4.5508 0-8.25-3.6953-8.25-8.2461v-40.605c0-4.5469 3.6992-8.25 8.25-8.25h77.414c4.5469 0 8.2461 3.7031 8.2461 8.25v40.605c0 4.5508-3.6992 8.2461-8.2461 8.2461z"/></g><path d="m386.36 354.21h-77.414c-4.6172 0-8.3711 3.7539-8.3711 8.3711v40.605c0 4.6172 3.7539 8.375 8.3711 8.375h77.414c4.6133 0 8.3711-3.7578 8.3711-8.375v-40.605c0-4.6172-3.7578-8.3711-8.3711-8.3711m0 0.25c4.4844 0 8.1211 3.6328 8.1211 8.1211v40.605c0 4.4883-3.6367 8.125-8.1211 8.125h-77.414c-4.4883 0-8.1211-3.6367-8.1211-8.125v-40.605c0-4.4883 3.6328-8.1211 8.1211-8.1211h77.414" fill="#211e1e"/><path d="m386.36 409.96h-77.414c-3.7383 0-6.7695-3.0312-6.7695-6.7695v-40.605c0-3.7383 3.0312-6.7695 6.7695-6.7695h77.414c3.7344 0 6.7656 3.0312 6.7656 6.7695v40.605c0 3.7383-3.0312 6.7695-6.7656 6.7695" fill="#00664c"/><g fill="#fff"><path d="m310.57 398.38c-0.50781-0.30469-0.89844-0.80078-0.89844-1.5312 0-1.1328 0.95704-1.9023 2.3359-1.9023 1.0039 0 1.8398 0.33594 2.5312 1.0586l-0.90625 0.81641c-0.42969-0.45703-0.98047-0.67188-1.625-0.67188-0.6914 0-1.0938 0.26563-1.0938 0.69922 0 0.38281 0.23438 0.55078 1.0703 0.7461 0.90625 0.1914 1.5039 0.38281 1.8867 0.57421 0.59375 0.31641 0.97657 0.96485 0.97657 1.7109 0 0.69531-0.3086 1.2266-0.95313 1.6133-0.47656 0.28907-1.0977 0.45703-1.7188 0.45703-1.168 0-2.0508-0.43359-2.8125-1.3242l0.97656-0.76954c0.5 0.60157 1.0508 0.86719 1.8125 0.86719 0.85938 0 1.4805-0.38672 1.4805-0.89062 0-0.64453-0.6914-0.73828-1.7461-1.0312-0.30078-0.0859-1.0586-0.26953-1.3164-0.42188"/><path d="m316.2 395.07h4.9531v1.2109h-3.7148v1.2578h2.0234v1.2383h-2.0234v1.8516h3.8359v1.2109h-5.0742z"/><path d="m322.43 398.44c0-2.1406 1.0898-3.4922 2.8711-3.4922 1.0938 0 2.0898 0.54687 2.6133 1.4961l-1.0703 0.57031c-0.1875-0.28515-0.28125-0.38281-0.47266-0.5-0.26172-0.21484-0.71484-0.35546-1.0703-0.35546-1.2344 0-1.6367 1.2109-1.6367 2.2539 0 1.4727 0.61719 2.3281 1.6367 2.3281 0.61719 0 0.94922-0.21485 1.543-0.85547l1.0703 0.57031c-0.5 0.95313-1.5195 1.4961-2.6133 1.4961-1.7812 0-2.8711-1.4023-2.8711-3.5117"/><path d="m330.5 398.44c0 1.4453 0.62109 2.3008 1.6445 2.3008 1.2852 0 1.5938-1.2578 1.5938-2.3008 0-1.4258-0.57032-2.2812-1.5938-2.2812-1.0234 0-1.6445 0.85546-1.6445 2.2812m-1.2344 0c0-2.1641 1.0938-3.4922 2.8789-3.4922 1.6641 0 2.8086 1.4023 2.8086 3.4688 0 2.1094-1.0977 3.5352-2.8086 3.5352-2 0-2.8789-1.8047-2.8789-3.5117"/><path d="m337.71 397.18v4.6562h-1.1953v-6.7695h1.1914l3.1289 4.4648v-4.4648h1.168v6.7695h-1.0508z"/><path d="m346.02 396.28h-1.0273v4.3477h1.0312c0.28515 0 0.71875-0.11719 0.96875-0.26172 0.71093-0.37891 1.043-0.99609 1.043-1.9258 0-0.90234-0.33204-1.5195-0.9961-1.8984-0.26172-0.14062-0.72265-0.25781-1.0195-0.26172m0 5.5586h-2.2617v-6.7695h2.2734c0.47266 0 1.1875 0.1914 1.5977 0.42968 1.0469 0.59375 1.6172 1.6133 1.6172 2.9414 0 1.3555-0.57031 2.4023-1.6367 2.9922-0.41015 0.22265-1.125 0.40625-1.5898 0.40625"/><path d="m358.78 396.28v1.6875h1.9492c0.59375 0 0.97265-0.33203 0.97265-0.83203 0-0.52344-0.3789-0.85547-0.97656-0.85547zm1.8281 2.8984h-1.8281v2.6602h-1.2109v-6.7695h3.1367c0.49609 0 0.80469 0.0703 1.1602 0.28515 0.57422 0.31641 1.0469 1.1094 1.0469 1.7695v0.0117c0 0.75781-0.40625 1.4258-1.0938 1.8047l1.2344 2.8984h-1.3516z"/><path d="m364.41 395.07h1.2227v6.7695h-1.2227z"/><path d="m372.67 399.34c0 1.4727-1.1875 2.6133-2.6836 2.6133-1.9961 0-2.8008-1.7578-2.8008-3.5117 0-2.0703 1.1172-3.4922 2.8008-3.4922 1.2109 0 2.043 0.64062 2.5156 1.6875l-1.2305 0.42578c-0.26172-0.57031-0.69141-0.90234-1.2852-0.90234-0.94921 0-1.5898 0.94921-1.5898 2.2812 0 1.0898 0.33203 2.3008 1.5898 2.3008 0.66407 0 1.2578-0.45313 1.4258-1.0703h-1.1172v-1.2109h2.375z"/><path d="m378.49 398.89h-3.0508v2.9453h-1.2148v-6.7695h1.2148v2.6133h3.0508v-2.6133h1.2188v6.7695h-1.2188z"/><path d="m383.99 401.84h-1.1875v-5.582h-1.9414v-1.1875h5.0742v1.1875h-1.9453z"/><path d="m362.02 366.72-1.1406 2.7344h2.2773zm2.5625 6.0976-0.79687-1.9062h-3.5352l-0.79688 1.9062h-1.5938l3.418-8.1211h1.4805l3.3906 8.1211z"/><path d="m349.21 372.82v-10.152h7.4336v1.8203h-5.5781v1.8867h3.0391v1.8516h-3.0391v2.7774h5.7539v1.8164z"/><path d="m370.07 369.18c-0.36328-0.10156-1.2734-0.32422-1.5781-0.5039-0.60938-0.36328-1.0781-0.95703-1.0781-1.8398 0-1.3594 1.1445-2.2812 2.8047-2.2812 1.2031 0 2.2031 0.40235 3.0352 1.2695l-1.0898 0.98438c-0.51562-0.55078-1.1719-0.80859-1.9453-0.80859-0.83203 0-1.3164 0.3164-1.3164 0.83593 0 0.46094 0.28516 0.66407 1.2852 0.89453 1.0898 0.23047 1.8047 0.46485 2.2617 0.69532 0.71875 0.375 1.1758 1.1562 1.1758 2.0508 0 0.83594-0.37109 1.4726-1.1445 1.9336-0.57422 0.34766-1.3164 0.55078-2.0625 0.55078-1.4024 0-2.4609-0.51953-3.375-1.5898l1.1719-0.92578c0.60157 0.72265 1.2578 1.043 2.1758 1.043 1.0312 0 1.7734-0.46485 1.7734-1.0703 0-0.77343-0.82812-0.88671-2.0938-1.2383"/><path d="m378.27 366.12v6.6953h-1.4219v-6.6953h-2.3359v-1.4258h6.0938v1.4258z"/><path d="m338.75 368.98c-0.49609-2.418-1.5352-4.5859-2.9726-6.3945-2.8008 0.85938-5.8828 0.91797-8.8984 0-3.0156 0.91797-6.0977 0.85938-8.9023 0-1.4336 1.8086-2.4766 3.9766-2.9688 6.3945-1.6836 8.2422 3.6289 16.285 11.871 17.969 8.2383-1.6836 13.555-9.7266 11.871-17.969"/></g><path d="m337.88 367.66c-0.19922-0.64844-0.44531-1.2812-0.73047-1.8906-0.42968-0.91796-0.95703-1.7891-1.5664-2.6016-1.3906 0.39453-2.8203 0.59375-4.2578 0.59375-1.5039 0-3-0.21875-4.4531-0.64844-1.4531 0.42969-2.9531 0.64844-4.4531 0.64844-1.4375 0-2.8711-0.19922-4.2578-0.59375-0.61328 0.8125-1.1367 1.6836-1.5664 2.6016-0.28907 0.60938-0.53125 1.2422-0.73438 1.8906z" fill="#bf2317"/><path d="m338.03 368.16h-22.312c-0.082 0.30078-0.15625 0.60547-0.21875 0.91406-0.39844 1.9492-0.40234 3.9141-0.0156 5.8477 0.37891 1.8633 1.1016 3.6211 2.1562 5.2148 1.0547 1.5938 2.3828 2.9492 3.9531 4.0274 1.5938 1.0976 3.3711 1.8555 5.2812 2.2578 1.9102-0.40234 3.6836-1.1602 5.2812-2.2578 1.5664-1.0781 2.8984-2.4336 3.9492-4.0274 1.0547-1.5938 1.7812-3.3516 2.1562-5.2148 0.38672-1.9336 0.38281-3.8984-0.0117-5.8477-0.0664-0.30859-0.13672-0.61328-0.21875-0.91406" fill="#14549c"/><g fill="#fff"><path d="m331.02 365.25-0.19141 0.77734h0.39063zm0.48437 1.8984-0.1914-0.74219h-0.58204l-0.17968 0.74219h-0.39063l0.67578-2.707h0.38282l0.67578 2.707z"/><path d="m323.18 367.15v-2.707h1.2773v0.3789h-0.88671v0.6875h0.5625v0.36719h-0.5625v0.89453h0.99218v0.37891z"/><path d="m318.55 364.44h0.37891v2.707h-0.37891z"/><path d="m320.74 367.15-0.83203-1.8125v1.8125h-0.39063v-2.707h0.39063l0.73828 1.625v-1.625h0.39062v2.707z"/><path d="m325.8 364.82h-0.39844v0.6836h0.39844c0.23047 0 0.35156-0.1211 0.35156-0.33985 0-0.21094-0.14063-0.34375-0.35156-0.34375m0.33203 2.3281-0.35938-1.2734h-0.37109v1.2734h-0.38672v-2.707h0.80469c0.42578 0 0.71094 0.28515 0.71094 0.72265 0 0.32422-0.13282 0.5586-0.38672 0.65625l0.38672 1.3281z"/><path d="m327.63 365.9c-0.11719-0.0742-0.23047-0.15235-0.30469-0.20313-0.21875-0.15234-0.33593-0.35937-0.33593-0.59765 0-0.39063 0.30859-0.70313 0.69922-0.70313 0.3789 0 0.67578 0.29297 0.68359 0.70313h-0.37109c-8e-3 -0.19141-0.14063-0.3125-0.3125-0.3125-0.1836 0-0.32422 0.13281-0.32422 0.3125 0 0.13281 0.0547 0.20703 0.2539 0.32031 0.52735 0.30469 0.75391 0.60156 0.75391 0.98828 0 0.4375-0.33203 0.78906-0.75391 0.78906-0.47265 0-0.76172-0.39844-0.76172-0.84375h0.38282c0 0.22656 0.11328 0.46485 0.3789 0.46485 0.21094 0 0.38282-0.19141 0.38282-0.41016 0-0.16797-0.0703-0.30859-0.3711-0.50781"/><path d="m322.3 364.8v2.3477h-0.39062v-2.3477h-0.49219v-0.35937h1.3789v0.35937z"/><path d="m333.82 367.15v-2.707h1.2774v0.3789h-0.88672v0.6875h0.5625v0.36719h-0.5625v0.89453h0.99218v0.37891z"/><path d="m332.95 364.8v2.3477h-0.39062v-2.3477h-0.4961v-0.35937h1.3828v0.35937z"/><path d="m329.51 364.8v2.3477h-0.39062v-2.3477h-0.4961v-0.35937h1.3789v0.35937z"/><path d="m321.8 372.29h-0.91406v-1.2852h0.10547c0.42188 0 0.87891-0.25 1.1641-0.64063h1.2656v10.152h-1.6211z"/><path d="m329.33 371.82c-0.0312 0-0.0625-4e-3 -0.0977-4e-3 -0.72656 0-1.2031 0.39844-1.543 1.25-0.25 0.60547-0.39454 1.5312-0.39454 2.3867 0 1.0703 0.21485 2.1758 0.60547 2.8164 0.32422 0.53125 0.75 0.78125 1.3945 0.78125 0.75 0 1.2148-0.39063 1.5703-1.2812 0.21484-0.53516 0.39453-1.5312 0.39453-2.3164 0-1.1406-0.21485-2.1758-0.60938-2.8516-0.32031-0.53125-0.71484-0.7461-1.3203-0.78125m-0.0352 8.8672c-1.4297 0-2.3203-0.56641-2.9297-1.8125-0.42969-0.85547-0.71485-2.2109-0.71485-3.4219 0-1.6758 0.4336-3.168 1.1094-4.1328 0.60547-0.78125 1.4258-1.1367 2.6055-1.1367 1.2852 0 2.1797 0.57031 2.8203 1.8164 0.42969 0.89062 0.67969 2.1719 0.67969 3.457v8e-3c0 1.5977-0.39453 3.1953-1.1055 4.0859-0.57422 0.78515-1.3945 1.1367-2.4648 1.1367"/></g></g></svg>
