<?xml version="1.0" encoding="UTF-8"?>
<svg width="279.14pt" height="97.699pt" version="1.2" viewBox="0 0 279.14 97.699" xmlns="http://www.w3.org/2000/svg" xmlns:xlink="http://www.w3.org/1999/xlink"><defs><clipPath id="t"><path d="m348 88h6v17h-6z"/></clipPath><clipPath id="p"><path d="m350.84 92.273h-2.1016l-0.0547-2.4023c1.2812-0.29688 1.9805-0.76172 2.6211-1.8164h2.3867v16.695h-2.9102z"/></clipPath><clipPath id="o"><rect width="18" height="18"/></clipPath><g id="d" clip-path="url(#o)"><rect width="18" height="18" fill="#211e1e"/><path d="m1.5312 17.098c0-0.34766-0.28125-0.62891-0.63281-0.62891-0.34766 0-0.62891 0.28125-0.62891 0.62891 0 0.35156 0.28125 0.63281 0.62891 0.63281 0.35156 0 0.63281-0.28125 0.63281-0.63281" fill="#fff"/><path d="m3.3281 17.098c0-0.34766-0.28125-0.62891-0.62891-0.62891s-0.62891 0.28125-0.62891 0.62891c0 0.35156 0.28125 0.63281 0.62891 0.63281s0.62891-0.28125 0.62891-0.63281" fill="#fff"/><path d="m5.1289 17.098c0-0.34766-0.28125-0.62891-0.62891-0.62891s-0.62891 0.28125-0.62891 0.62891c0 0.35156 0.28125 0.63281 0.62891 0.63281s0.62891-0.28125 0.62891-0.63281" fill="#fff"/><path d="m6.9297 17.098c0-0.34766-0.28125-0.62891-0.62891-0.62891-0.34766 0-0.62891 0.28125-0.62891 0.62891 0 0.35156 0.28125 0.63281 0.62891 0.63281 0.34766 0 0.62891-0.28125 0.62891-0.63281" fill="#fff"/><path d="m8.7305 17.098c0-0.34766-0.28125-0.62891-0.62891-0.62891-0.34766 0-0.62891 0.28125-0.62891 0.62891 0 0.35156 0.28125 0.63281 0.62891 0.63281 0.34766 0 0.62891-0.28125 0.62891-0.63281" fill="#fff"/><path d="m10.531 17.098c0-0.34766-0.28125-0.62891-0.63281-0.62891-0.34766 0-0.62891 0.28125-0.62891 0.62891 0 0.35156 0.28125 0.63281 0.62891 0.63281 0.35156 0 0.63281-0.28125 0.63281-0.63281" fill="#fff"/><path d="m12.332 17.098c0-0.34766-0.28125-0.62891-0.63281-0.62891-0.34766 0-0.62891 0.28125-0.62891 0.62891 0 0.35156 0.28125 0.63281 0.62891 0.63281 0.35156 0 0.63281-0.28125 0.63281-0.63281" fill="#fff"/><path d="m14.129 17.098c0-0.34766-0.28125-0.62891-0.62891-0.62891s-0.62891 0.28125-0.62891 0.62891c0 0.35156 0.28125 0.63281 0.62891 0.63281s0.62891-0.28125 0.62891-0.63281" fill="#fff"/><path d="m15.93 17.098c0-0.34766-0.28125-0.62891-0.62891-0.62891-0.34766 0-0.62891 0.28125-0.62891 0.62891 0 0.35156 0.28125 0.63281 0.62891 0.63281 0.34766 0 0.62891-0.28125 0.62891-0.63281" fill="#fff"/><path d="m17.73 17.098c0-0.34766-0.28125-0.62891-0.62891-0.62891-0.34766 0-0.63281 0.28125-0.63281 0.62891 0 0.35156 0.28516 0.63281 0.63281 0.63281 0.34766 0 0.62891-0.28125 0.62891-0.63281" fill="#fff"/><path d="m1.5312 15.301c0-0.34766-0.28125-0.63281-0.63281-0.63281-0.34766 0-0.62891 0.28516-0.62891 0.63281 0 0.34766 0.28125 0.62891 0.62891 0.62891 0.35156 0 0.63281-0.28125 0.63281-0.62891" fill="#fff"/><path d="m3.3281 15.301c0-0.34766-0.28125-0.63281-0.62891-0.63281s-0.62891 0.28516-0.62891 0.63281c0 0.34766 0.28125 0.62891 0.62891 0.62891s0.62891-0.28125 0.62891-0.62891" fill="#fff"/><path d="m5.1289 15.301c0-0.34766-0.28125-0.63281-0.62891-0.63281s-0.62891 0.28516-0.62891 0.63281c0 0.34766 0.28125 0.62891 0.62891 0.62891s0.62891-0.28125 0.62891-0.62891" fill="#fff"/><path d="m6.9297 15.301c0-0.34766-0.28125-0.63281-0.62891-0.63281-0.34766 0-0.62891 0.28516-0.62891 0.63281 0 0.34766 0.28125 0.62891 0.62891 0.62891 0.34766 0 0.62891-0.28125 0.62891-0.62891" fill="#fff"/><path d="m8.7305 15.301c0-0.34766-0.28125-0.63281-0.62891-0.63281-0.34766 0-0.62891 0.28516-0.62891 0.63281 0 0.34766 0.28125 0.62891 0.62891 0.62891 0.34766 0 0.62891-0.28125 0.62891-0.62891" fill="#fff"/><path d="m10.531 15.301c0-0.34766-0.28125-0.63281-0.63281-0.63281-0.34766 0-0.62891 0.28516-0.62891 0.63281 0 0.34766 0.28125 0.62891 0.62891 0.62891 0.35156 0 0.63281-0.28125 0.63281-0.62891" fill="#fff"/><path d="m12.332 15.301c0-0.34766-0.28125-0.63281-0.63281-0.63281-0.34766 0-0.62891 0.28516-0.62891 0.63281 0 0.34766 0.28125 0.62891 0.62891 0.62891 0.35156 0 0.63281-0.28125 0.63281-0.62891" fill="#fff"/><path d="m14.129 15.301c0-0.34766-0.28125-0.63281-0.62891-0.63281s-0.62891 0.28516-0.62891 0.63281c0 0.34766 0.28125 0.62891 0.62891 0.62891s0.62891-0.28125 0.62891-0.62891" fill="#fff"/><path d="m15.93 15.301c0-0.34766-0.28125-0.63281-0.62891-0.63281-0.34766 0-0.62891 0.28516-0.62891 0.63281 0 0.34766 0.28125 0.62891 0.62891 0.62891 0.34766 0 0.62891-0.28125 0.62891-0.62891" fill="#fff"/><path d="m17.73 15.301c0-0.34766-0.28125-0.63281-0.62891-0.63281-0.34766 0-0.63281 0.28516-0.63281 0.63281 0 0.34766 0.28516 0.62891 0.63281 0.62891 0.34766 0 0.62891-0.28125 0.62891-0.62891" fill="#fff"/><path d="m1.5312 13.5c0-0.34766-0.28125-0.62891-0.63281-0.62891-0.34766 0-0.62891 0.28125-0.62891 0.62891s0.28125 0.62891 0.62891 0.62891c0.35156 0 0.63281-0.28125 0.63281-0.62891" fill="#fff"/><path d="m3.3281 13.5c0-0.34766-0.28125-0.62891-0.62891-0.62891s-0.62891 0.28125-0.62891 0.62891 0.28125 0.62891 0.62891 0.62891 0.62891-0.28125 0.62891-0.62891" fill="#fff"/><path d="m5.1289 13.5c0-0.34766-0.28125-0.62891-0.62891-0.62891s-0.62891 0.28125-0.62891 0.62891 0.28125 0.62891 0.62891 0.62891 0.62891-0.28125 0.62891-0.62891" fill="#fff"/><path d="m6.9297 13.5c0-0.34766-0.28125-0.62891-0.62891-0.62891-0.34766 0-0.62891 0.28125-0.62891 0.62891s0.28125 0.62891 0.62891 0.62891c0.34766 0 0.62891-0.28125 0.62891-0.62891" fill="#fff"/><path d="m8.7305 13.5c0-0.34766-0.28125-0.62891-0.62891-0.62891-0.34766 0-0.62891 0.28125-0.62891 0.62891s0.28125 0.62891 0.62891 0.62891c0.34766 0 0.62891-0.28125 0.62891-0.62891" fill="#fff"/><path d="m10.531 13.5c0-0.34766-0.28125-0.62891-0.63281-0.62891-0.34766 0-0.62891 0.28125-0.62891 0.62891s0.28125 0.62891 0.62891 0.62891c0.35156 0 0.63281-0.28125 0.63281-0.62891" fill="#fff"/><path d="m12.332 13.5c0-0.34766-0.28125-0.62891-0.63281-0.62891-0.34766 0-0.62891 0.28125-0.62891 0.62891s0.28125 0.62891 0.62891 0.62891c0.35156 0 0.63281-0.28125 0.63281-0.62891" fill="#fff"/><path d="m14.129 13.5c0-0.34766-0.28125-0.62891-0.62891-0.62891s-0.62891 0.28125-0.62891 0.62891 0.28125 0.62891 0.62891 0.62891 0.62891-0.28125 0.62891-0.62891" fill="#fff"/><path d="m15.93 13.5c0-0.34766-0.28125-0.62891-0.62891-0.62891-0.34766 0-0.62891 0.28125-0.62891 0.62891s0.28125 0.62891 0.62891 0.62891c0.34766 0 0.62891-0.28125 0.62891-0.62891" fill="#fff"/><path d="m17.73 13.5c0-0.34766-0.28125-0.62891-0.62891-0.62891-0.34766 0-0.63281 0.28125-0.63281 0.62891s0.28516 0.62891 0.63281 0.62891c0.34766 0 0.62891-0.28125 0.62891-0.62891" fill="#fff"/><path d="m1.5312 11.699c0-0.34766-0.28125-0.62891-0.63281-0.62891-0.34766 0-0.62891 0.28125-0.62891 0.62891 0 0.35156 0.28125 0.62891 0.62891 0.62891 0.35156 0 0.63281-0.27734 0.63281-0.62891" fill="#fff"/><path d="m3.3281 11.699c0-0.34766-0.28125-0.62891-0.62891-0.62891s-0.62891 0.28125-0.62891 0.62891c0 0.35156 0.28125 0.62891 0.62891 0.62891s0.62891-0.27734 0.62891-0.62891" fill="#fff"/><path d="m5.1289 11.699c0-0.34766-0.28125-0.62891-0.62891-0.62891s-0.62891 0.28125-0.62891 0.62891c0 0.35156 0.28125 0.62891 0.62891 0.62891s0.62891-0.27734 0.62891-0.62891" fill="#fff"/><path d="m6.9297 11.699c0-0.34766-0.28125-0.62891-0.62891-0.62891-0.34766 0-0.62891 0.28125-0.62891 0.62891 0 0.35156 0.28125 0.62891 0.62891 0.62891 0.34766 0 0.62891-0.27734 0.62891-0.62891" fill="#fff"/><path d="m8.7305 11.699c0-0.34766-0.28125-0.62891-0.62891-0.62891-0.34766 0-0.62891 0.28125-0.62891 0.62891 0 0.35156 0.28125 0.62891 0.62891 0.62891 0.34766 0 0.62891-0.27734 0.62891-0.62891" fill="#fff"/><path d="m10.531 11.699c0-0.34766-0.28125-0.62891-0.63281-0.62891-0.34766 0-0.62891 0.28125-0.62891 0.62891 0 0.35156 0.28125 0.62891 0.62891 0.62891 0.35156 0 0.63281-0.27734 0.63281-0.62891" fill="#fff"/><path d="m12.332 11.699c0-0.34766-0.28125-0.62891-0.63281-0.62891-0.34766 0-0.62891 0.28125-0.62891 0.62891 0 0.35156 0.28125 0.62891 0.62891 0.62891 0.35156 0 0.63281-0.27734 0.63281-0.62891" fill="#fff"/><path d="m14.129 11.699c0-0.34766-0.28125-0.62891-0.62891-0.62891s-0.62891 0.28125-0.62891 0.62891c0 0.35156 0.28125 0.62891 0.62891 0.62891s0.62891-0.27734 0.62891-0.62891" fill="#fff"/><path d="m15.93 11.699c0-0.34766-0.28125-0.62891-0.62891-0.62891-0.34766 0-0.62891 0.28125-0.62891 0.62891 0 0.35156 0.28125 0.62891 0.62891 0.62891 0.34766 0 0.62891-0.27734 0.62891-0.62891" fill="#fff"/><path d="m17.73 11.699c0-0.34766-0.28125-0.62891-0.62891-0.62891-0.34766 0-0.63281 0.28125-0.63281 0.62891 0 0.35156 0.28516 0.62891 0.63281 0.62891 0.34766 0 0.62891-0.27734 0.62891-0.62891" fill="#fff"/><path d="m1.5312 9.8984c0-0.34766-0.28125-0.62891-0.63281-0.62891-0.34766 0-0.62891 0.28125-0.62891 0.62891 0 0.35156 0.28125 0.62891 0.62891 0.62891 0.35156 0 0.63281-0.27734 0.63281-0.62891" fill="#fff"/><path d="m3.3281 9.8984c0-0.34766-0.28125-0.62891-0.62891-0.62891s-0.62891 0.28125-0.62891 0.62891c0 0.35156 0.28125 0.62891 0.62891 0.62891s0.62891-0.27734 0.62891-0.62891" fill="#fff"/><path d="m5.1289 9.8984c0-0.34766-0.28125-0.62891-0.62891-0.62891s-0.62891 0.28125-0.62891 0.62891c0 0.35156 0.28125 0.62891 0.62891 0.62891s0.62891-0.27734 0.62891-0.62891" fill="#fff"/><path d="m6.9297 9.8984c0-0.34766-0.28125-0.62891-0.62891-0.62891-0.34766 0-0.62891 0.28125-0.62891 0.62891 0 0.35156 0.28125 0.62891 0.62891 0.62891 0.34766 0 0.62891-0.27734 0.62891-0.62891" fill="#fff"/><path d="m8.7305 9.8984c0-0.34766-0.28125-0.62891-0.62891-0.62891-0.34766 0-0.62891 0.28125-0.62891 0.62891 0 0.35156 0.28125 0.62891 0.62891 0.62891 0.34766 0 0.62891-0.27734 0.62891-0.62891" fill="#fff"/><path d="m10.531 9.8984c0-0.34766-0.28125-0.62891-0.63281-0.62891-0.34766 0-0.62891 0.28125-0.62891 0.62891 0 0.35156 0.28125 0.62891 0.62891 0.62891 0.35156 0 0.63281-0.27734 0.63281-0.62891" fill="#fff"/><path d="m12.332 9.8984c0-0.34766-0.28125-0.62891-0.63281-0.62891-0.34766 0-0.62891 0.28125-0.62891 0.62891 0 0.35156 0.28125 0.62891 0.62891 0.62891 0.35156 0 0.63281-0.27734 0.63281-0.62891" fill="#fff"/><path d="m14.129 9.8984c0-0.34766-0.28125-0.62891-0.62891-0.62891s-0.62891 0.28125-0.62891 0.62891c0 0.35156 0.28125 0.62891 0.62891 0.62891s0.62891-0.27734 0.62891-0.62891" fill="#fff"/><path d="m15.93 9.8984c0-0.34766-0.28125-0.62891-0.62891-0.62891-0.34766 0-0.62891 0.28125-0.62891 0.62891 0 0.35156 0.28125 0.62891 0.62891 0.62891 0.34766 0 0.62891-0.27734 0.62891-0.62891" fill="#fff"/><path d="m17.73 9.8984c0-0.34766-0.28125-0.62891-0.62891-0.62891-0.34766 0-0.63281 0.28125-0.63281 0.62891 0 0.35156 0.28516 0.62891 0.63281 0.62891 0.34766 0 0.62891-0.27734 0.62891-0.62891" fill="#fff"/><path d="m1.5312 8.1016c0-0.35156-0.28125-0.63281-0.63281-0.63281-0.34766 0-0.62891 0.28125-0.62891 0.63281 0 0.34766 0.28125 0.62891 0.62891 0.62891 0.35156 0 0.63281-0.28125 0.63281-0.62891" fill="#fff"/><path d="m3.3281 8.1016c0-0.35156-0.28125-0.63281-0.62891-0.63281s-0.62891 0.28125-0.62891 0.63281c0 0.34766 0.28125 0.62891 0.62891 0.62891s0.62891-0.28125 0.62891-0.62891" fill="#fff"/><path d="m5.1289 8.1016c0-0.35156-0.28125-0.63281-0.62891-0.63281s-0.62891 0.28125-0.62891 0.63281c0 0.34766 0.28125 0.62891 0.62891 0.62891s0.62891-0.28125 0.62891-0.62891" fill="#fff"/><path d="m6.9297 8.1016c0-0.35156-0.28125-0.63281-0.62891-0.63281-0.34766 0-0.62891 0.28125-0.62891 0.63281 0 0.34766 0.28125 0.62891 0.62891 0.62891 0.34766 0 0.62891-0.28125 0.62891-0.62891" fill="#fff"/><path d="m8.7305 8.1016c0-0.35156-0.28125-0.63281-0.62891-0.63281-0.34766 0-0.62891 0.28125-0.62891 0.63281 0 0.34766 0.28125 0.62891 0.62891 0.62891 0.34766 0 0.62891-0.28125 0.62891-0.62891" fill="#fff"/><path d="m10.531 8.1016c0-0.35156-0.28125-0.63281-0.63281-0.63281-0.34766 0-0.62891 0.28125-0.62891 0.63281 0 0.34766 0.28125 0.62891 0.62891 0.62891 0.35156 0 0.63281-0.28125 0.63281-0.62891" fill="#fff"/><path d="m12.332 8.1016c0-0.35156-0.28125-0.63281-0.63281-0.63281-0.34766 0-0.62891 0.28125-0.62891 0.63281 0 0.34766 0.28125 0.62891 0.62891 0.62891 0.35156 0 0.63281-0.28125 0.63281-0.62891" fill="#fff"/><path d="m14.129 8.1016c0-0.35156-0.28125-0.63281-0.62891-0.63281s-0.62891 0.28125-0.62891 0.63281c0 0.34766 0.28125 0.62891 0.62891 0.62891s0.62891-0.28125 0.62891-0.62891" fill="#fff"/><path d="m15.93 8.1016c0-0.35156-0.28125-0.63281-0.62891-0.63281-0.34766 0-0.62891 0.28125-0.62891 0.63281 0 0.34766 0.28125 0.62891 0.62891 0.62891 0.34766 0 0.62891-0.28125 0.62891-0.62891" fill="#fff"/><path d="m17.73 8.1016c0-0.35156-0.28125-0.63281-0.62891-0.63281-0.34766 0-0.63281 0.28125-0.63281 0.63281 0 0.34766 0.28516 0.62891 0.63281 0.62891 0.34766 0 0.62891-0.28125 0.62891-0.62891" fill="#fff"/><path d="m1.5312 6.3008c0-0.35156-0.28125-0.62891-0.63281-0.62891-0.34766 0-0.62891 0.27734-0.62891 0.62891 0 0.34766 0.28125 0.62891 0.62891 0.62891 0.35156 0 0.63281-0.28125 0.63281-0.62891" fill="#fff"/><path d="m3.3281 6.3008c0-0.35156-0.28125-0.62891-0.62891-0.62891s-0.62891 0.27734-0.62891 0.62891c0 0.34766 0.28125 0.62891 0.62891 0.62891s0.62891-0.28125 0.62891-0.62891" fill="#fff"/><path d="m5.1289 6.3008c0-0.35156-0.28125-0.62891-0.62891-0.62891s-0.62891 0.27734-0.62891 0.62891c0 0.34766 0.28125 0.62891 0.62891 0.62891s0.62891-0.28125 0.62891-0.62891" fill="#fff"/><path d="m6.9297 6.3008c0-0.35156-0.28125-0.62891-0.62891-0.62891-0.34766 0-0.62891 0.27734-0.62891 0.62891 0 0.34766 0.28125 0.62891 0.62891 0.62891 0.34766 0 0.62891-0.28125 0.62891-0.62891" fill="#fff"/><path d="m8.7305 6.3008c0-0.35156-0.28125-0.62891-0.62891-0.62891-0.34766 0-0.62891 0.27734-0.62891 0.62891 0 0.34766 0.28125 0.62891 0.62891 0.62891 0.34766 0 0.62891-0.28125 0.62891-0.62891" fill="#fff"/><path d="m10.531 6.3008c0-0.35156-0.28125-0.62891-0.63281-0.62891-0.34766 0-0.62891 0.27734-0.62891 0.62891 0 0.34766 0.28125 0.62891 0.62891 0.62891 0.35156 0 0.63281-0.28125 0.63281-0.62891" fill="#fff"/><path d="m12.332 6.3008c0-0.35156-0.28125-0.62891-0.63281-0.62891-0.34766 0-0.62891 0.27734-0.62891 0.62891 0 0.34766 0.28125 0.62891 0.62891 0.62891 0.35156 0 0.63281-0.28125 0.63281-0.62891" fill="#fff"/><path d="m14.129 6.3008c0-0.35156-0.28125-0.62891-0.62891-0.62891s-0.62891 0.27734-0.62891 0.62891c0 0.34766 0.28125 0.62891 0.62891 0.62891s0.62891-0.28125 0.62891-0.62891" fill="#fff"/><path d="m15.93 6.3008c0-0.35156-0.28125-0.62891-0.62891-0.62891-0.34766 0-0.62891 0.27734-0.62891 0.62891 0 0.34766 0.28125 0.62891 0.62891 0.62891 0.34766 0 0.62891-0.28125 0.62891-0.62891" fill="#fff"/><path d="m17.73 6.3008c0-0.35156-0.28125-0.62891-0.62891-0.62891-0.34766 0-0.63281 0.27734-0.63281 0.62891 0 0.34766 0.28516 0.62891 0.63281 0.62891 0.34766 0 0.62891-0.28125 0.62891-0.62891" fill="#fff"/><path d="m1.5312 4.5c0-0.34766-0.28125-0.62891-0.63281-0.62891-0.34766 0-0.62891 0.28125-0.62891 0.62891s0.28125 0.62891 0.62891 0.62891c0.35156 0 0.63281-0.28125 0.63281-0.62891" fill="#fff"/><path d="m3.3281 4.5c0-0.34766-0.28125-0.62891-0.62891-0.62891s-0.62891 0.28125-0.62891 0.62891 0.28125 0.62891 0.62891 0.62891 0.62891-0.28125 0.62891-0.62891" fill="#fff"/><path d="m5.1289 4.5c0-0.34766-0.28125-0.62891-0.62891-0.62891s-0.62891 0.28125-0.62891 0.62891 0.28125 0.62891 0.62891 0.62891 0.62891-0.28125 0.62891-0.62891" fill="#fff"/><path d="m6.9297 4.5c0-0.34766-0.28125-0.62891-0.62891-0.62891-0.34766 0-0.62891 0.28125-0.62891 0.62891s0.28125 0.62891 0.62891 0.62891c0.34766 0 0.62891-0.28125 0.62891-0.62891" fill="#fff"/><path d="m8.7305 4.5c0-0.34766-0.28125-0.62891-0.62891-0.62891-0.34766 0-0.62891 0.28125-0.62891 0.62891s0.28125 0.62891 0.62891 0.62891c0.34766 0 0.62891-0.28125 0.62891-0.62891" fill="#fff"/><path d="m10.531 4.5c0-0.34766-0.28125-0.62891-0.63281-0.62891-0.34766 0-0.62891 0.28125-0.62891 0.62891s0.28125 0.62891 0.62891 0.62891c0.35156 0 0.63281-0.28125 0.63281-0.62891" fill="#fff"/><path d="m12.332 4.5c0-0.34766-0.28125-0.62891-0.63281-0.62891-0.34766 0-0.62891 0.28125-0.62891 0.62891s0.28125 0.62891 0.62891 0.62891c0.35156 0 0.63281-0.28125 0.63281-0.62891" fill="#fff"/><path d="m14.129 4.5c0-0.34766-0.28125-0.62891-0.62891-0.62891s-0.62891 0.28125-0.62891 0.62891 0.28125 0.62891 0.62891 0.62891 0.62891-0.28125 0.62891-0.62891" fill="#fff"/><path d="m15.93 4.5c0-0.34766-0.28125-0.62891-0.62891-0.62891-0.34766 0-0.62891 0.28125-0.62891 0.62891s0.28125 0.62891 0.62891 0.62891c0.34766 0 0.62891-0.28125 0.62891-0.62891" fill="#fff"/><path d="m17.73 4.5c0-0.34766-0.28125-0.62891-0.62891-0.62891-0.34766 0-0.63281 0.28125-0.63281 0.62891s0.28516 0.62891 0.63281 0.62891c0.34766 0 0.62891-0.28125 0.62891-0.62891" fill="#fff"/><path d="m1.5312 2.6992c0-0.34766-0.28125-0.62891-0.63281-0.62891-0.34766 0-0.62891 0.28125-0.62891 0.62891s0.28125 0.62891 0.62891 0.62891c0.35156 0 0.63281-0.28125 0.63281-0.62891" fill="#fff"/><path d="m3.3281 2.6992c0-0.34766-0.28125-0.62891-0.62891-0.62891s-0.62891 0.28125-0.62891 0.62891 0.28125 0.62891 0.62891 0.62891 0.62891-0.28125 0.62891-0.62891" fill="#fff"/><path d="m5.1289 2.6992c0-0.34766-0.28125-0.62891-0.62891-0.62891s-0.62891 0.28125-0.62891 0.62891 0.28125 0.62891 0.62891 0.62891 0.62891-0.28125 0.62891-0.62891" fill="#fff"/><path d="m6.9297 2.6992c0-0.34766-0.28125-0.62891-0.62891-0.62891-0.34766 0-0.62891 0.28125-0.62891 0.62891s0.28125 0.62891 0.62891 0.62891c0.34766 0 0.62891-0.28125 0.62891-0.62891" fill="#fff"/><path d="m8.7305 2.6992c0-0.34766-0.28125-0.62891-0.62891-0.62891-0.34766 0-0.62891 0.28125-0.62891 0.62891s0.28125 0.62891 0.62891 0.62891c0.34766 0 0.62891-0.28125 0.62891-0.62891" fill="#fff"/><path d="m10.531 2.6992c0-0.34766-0.28125-0.62891-0.63281-0.62891-0.34766 0-0.62891 0.28125-0.62891 0.62891s0.28125 0.62891 0.62891 0.62891c0.35156 0 0.63281-0.28125 0.63281-0.62891" fill="#fff"/><path d="m12.332 2.6992c0-0.34766-0.28125-0.62891-0.63281-0.62891-0.34766 0-0.62891 0.28125-0.62891 0.62891s0.28125 0.62891 0.62891 0.62891c0.35156 0 0.63281-0.28125 0.63281-0.62891" fill="#fff"/><path d="m14.129 2.6992c0-0.34766-0.28125-0.62891-0.62891-0.62891s-0.62891 0.28125-0.62891 0.62891 0.28125 0.62891 0.62891 0.62891 0.62891-0.28125 0.62891-0.62891" fill="#fff"/><path d="m15.93 2.6992c0-0.34766-0.28125-0.62891-0.62891-0.62891-0.34766 0-0.62891 0.28125-0.62891 0.62891s0.28125 0.62891 0.62891 0.62891c0.34766 0 0.62891-0.28125 0.62891-0.62891" fill="#fff"/><path d="m17.73 2.6992c0-0.34766-0.28125-0.62891-0.62891-0.62891-0.34766 0-0.63281 0.28125-0.63281 0.62891s0.28516 0.62891 0.63281 0.62891c0.34766 0 0.62891-0.28125 0.62891-0.62891" fill="#fff"/><path d="m1.5312 0.89844c0-0.34766-0.28125-0.62891-0.63281-0.62891-0.34766 0-0.62891 0.28125-0.62891 0.62891 0 0.35156 0.28125 0.63281 0.62891 0.63281 0.35156 0 0.63281-0.28125 0.63281-0.63281" fill="#fff"/><path d="m3.3281 0.89844c0-0.34766-0.28125-0.62891-0.62891-0.62891s-0.62891 0.28125-0.62891 0.62891c0 0.35156 0.28125 0.63281 0.62891 0.63281s0.62891-0.28125 0.62891-0.63281" fill="#fff"/><path d="m5.1289 0.89844c0-0.34766-0.28125-0.62891-0.62891-0.62891s-0.62891 0.28125-0.62891 0.62891c0 0.35156 0.28125 0.63281 0.62891 0.63281s0.62891-0.28125 0.62891-0.63281" fill="#fff"/><path d="m6.9297 0.89844c0-0.34766-0.28125-0.62891-0.62891-0.62891-0.34766 0-0.62891 0.28125-0.62891 0.62891 0 0.35156 0.28125 0.63281 0.62891 0.63281 0.34766 0 0.62891-0.28125 0.62891-0.63281" fill="#fff"/><path d="m8.7305 0.89844c0-0.34766-0.28125-0.62891-0.62891-0.62891-0.34766 0-0.62891 0.28125-0.62891 0.62891 0 0.35156 0.28125 0.63281 0.62891 0.63281 0.34766 0 0.62891-0.28125 0.62891-0.63281" fill="#fff"/><path d="m10.531 0.89844c0-0.34766-0.28125-0.62891-0.63281-0.62891-0.34766 0-0.62891 0.28125-0.62891 0.62891 0 0.35156 0.28125 0.63281 0.62891 0.63281 0.35156 0 0.63281-0.28125 0.63281-0.63281" fill="#fff"/><path d="m12.332 0.89844c0-0.34766-0.28125-0.62891-0.63281-0.62891-0.34766 0-0.62891 0.28125-0.62891 0.62891 0 0.35156 0.28125 0.63281 0.62891 0.63281 0.35156 0 0.63281-0.28125 0.63281-0.63281" fill="#fff"/><path d="m14.129 0.89844c0-0.34766-0.28125-0.62891-0.62891-0.62891s-0.62891 0.28125-0.62891 0.62891c0 0.35156 0.28125 0.63281 0.62891 0.63281s0.62891-0.28125 0.62891-0.63281" fill="#fff"/><path d="m15.93 0.89844c0-0.34766-0.28125-0.62891-0.62891-0.62891-0.34766 0-0.62891 0.28125-0.62891 0.62891 0 0.35156 0.28125 0.63281 0.62891 0.63281 0.34766 0 0.62891-0.28125 0.62891-0.63281" fill="#fff"/><path d="m17.73 0.89844c0-0.34766-0.28125-0.62891-0.62891-0.62891-0.34766 0-0.63281 0.28125-0.63281 0.62891 0 0.35156 0.28516 0.63281 0.63281 0.63281 0.34766 0 0.62891-0.28125 0.62891-0.63281" fill="#fff"/></g><pattern id="h" width="18" height="18" patternTransform="matrix(.95985 0 0 -.95985 -5.1743 796.42)" patternUnits="userSpaceOnUse"><use xlink:href="#d"/></pattern><clipPath id="n"><path d="m357 87h14v18h-14z"/></clipPath><clipPath id="m"><path d="m358.39 99.656c1.4726-2.4609 3.5898-3.9844 6.6484-4.8047 1.8828-0.52734 2.5312-1.1133 2.5312-2.1094 0-1.2305-1.1758-1.9336-3.293-1.9336-2.1797 0-3.7656 0.52344-5.1797 1.8164l-2.0586-2.2852c1.9414-1.6992 4.3555-2.5742 7.0625-2.5742 3.9414 0 6.4688 1.9336 6.4688 4.9805 0 1.4062-0.58204 2.6914-1.7031 3.6289-0.52734 0.41406-1.293 0.82422-2.4688 1.1758-2.2383 0.64453-2.8828 0.93359-3.8867 1.8164-0.76172 0.64453-1.2344 1.2891-1.8242 2.3984h9.8828v2.9883h-13.531c0-1.9922 0.41015-3.457 1.3516-5.0977"/></clipPath><clipPath id="l"><rect width="18" height="18"/></clipPath><g id="c" clip-path="url(#l)"><rect width="18" height="18" fill="#211e1e"/><path d="m1.5312 17.098c0-0.34766-0.28125-0.62891-0.63281-0.62891-0.34766 0-0.62891 0.28125-0.62891 0.62891 0 0.35156 0.28125 0.63281 0.62891 0.63281 0.35156 0 0.63281-0.28125 0.63281-0.63281" fill="#fff"/><path d="m3.3281 17.098c0-0.34766-0.28125-0.62891-0.62891-0.62891s-0.62891 0.28125-0.62891 0.62891c0 0.35156 0.28125 0.63281 0.62891 0.63281s0.62891-0.28125 0.62891-0.63281" fill="#fff"/><path d="m5.1289 17.098c0-0.34766-0.28125-0.62891-0.62891-0.62891s-0.62891 0.28125-0.62891 0.62891c0 0.35156 0.28125 0.63281 0.62891 0.63281s0.62891-0.28125 0.62891-0.63281" fill="#fff"/><path d="m6.9297 17.098c0-0.34766-0.28125-0.62891-0.62891-0.62891-0.34766 0-0.62891 0.28125-0.62891 0.62891 0 0.35156 0.28125 0.63281 0.62891 0.63281 0.34766 0 0.62891-0.28125 0.62891-0.63281" fill="#fff"/><path d="m8.7305 17.098c0-0.34766-0.28125-0.62891-0.62891-0.62891-0.34766 0-0.62891 0.28125-0.62891 0.62891 0 0.35156 0.28125 0.63281 0.62891 0.63281 0.34766 0 0.62891-0.28125 0.62891-0.63281" fill="#fff"/><path d="m10.531 17.098c0-0.34766-0.28125-0.62891-0.63281-0.62891-0.34766 0-0.62891 0.28125-0.62891 0.62891 0 0.35156 0.28125 0.63281 0.62891 0.63281 0.35156 0 0.63281-0.28125 0.63281-0.63281" fill="#fff"/><path d="m12.332 17.098c0-0.34766-0.28125-0.62891-0.63281-0.62891-0.34766 0-0.62891 0.28125-0.62891 0.62891 0 0.35156 0.28125 0.63281 0.62891 0.63281 0.35156 0 0.63281-0.28125 0.63281-0.63281" fill="#fff"/><path d="m14.129 17.098c0-0.34766-0.28125-0.62891-0.62891-0.62891s-0.62891 0.28125-0.62891 0.62891c0 0.35156 0.28125 0.63281 0.62891 0.63281s0.62891-0.28125 0.62891-0.63281" fill="#fff"/><path d="m15.93 17.098c0-0.34766-0.28125-0.62891-0.62891-0.62891-0.34766 0-0.62891 0.28125-0.62891 0.62891 0 0.35156 0.28125 0.63281 0.62891 0.63281 0.34766 0 0.62891-0.28125 0.62891-0.63281" fill="#fff"/><path d="m17.73 17.098c0-0.34766-0.28125-0.62891-0.62891-0.62891-0.34766 0-0.63281 0.28125-0.63281 0.62891 0 0.35156 0.28516 0.63281 0.63281 0.63281 0.34766 0 0.62891-0.28125 0.62891-0.63281" fill="#fff"/><path d="m1.5312 15.301c0-0.34766-0.28125-0.63281-0.63281-0.63281-0.34766 0-0.62891 0.28516-0.62891 0.63281 0 0.34766 0.28125 0.62891 0.62891 0.62891 0.35156 0 0.63281-0.28125 0.63281-0.62891" fill="#fff"/><path d="m3.3281 15.301c0-0.34766-0.28125-0.63281-0.62891-0.63281s-0.62891 0.28516-0.62891 0.63281c0 0.34766 0.28125 0.62891 0.62891 0.62891s0.62891-0.28125 0.62891-0.62891" fill="#fff"/><path d="m5.1289 15.301c0-0.34766-0.28125-0.63281-0.62891-0.63281s-0.62891 0.28516-0.62891 0.63281c0 0.34766 0.28125 0.62891 0.62891 0.62891s0.62891-0.28125 0.62891-0.62891" fill="#fff"/><path d="m6.9297 15.301c0-0.34766-0.28125-0.63281-0.62891-0.63281-0.34766 0-0.62891 0.28516-0.62891 0.63281 0 0.34766 0.28125 0.62891 0.62891 0.62891 0.34766 0 0.62891-0.28125 0.62891-0.62891" fill="#fff"/><path d="m8.7305 15.301c0-0.34766-0.28125-0.63281-0.62891-0.63281-0.34766 0-0.62891 0.28516-0.62891 0.63281 0 0.34766 0.28125 0.62891 0.62891 0.62891 0.34766 0 0.62891-0.28125 0.62891-0.62891" fill="#fff"/><path d="m10.531 15.301c0-0.34766-0.28125-0.63281-0.63281-0.63281-0.34766 0-0.62891 0.28516-0.62891 0.63281 0 0.34766 0.28125 0.62891 0.62891 0.62891 0.35156 0 0.63281-0.28125 0.63281-0.62891" fill="#fff"/><path d="m12.332 15.301c0-0.34766-0.28125-0.63281-0.63281-0.63281-0.34766 0-0.62891 0.28516-0.62891 0.63281 0 0.34766 0.28125 0.62891 0.62891 0.62891 0.35156 0 0.63281-0.28125 0.63281-0.62891" fill="#fff"/><path d="m14.129 15.301c0-0.34766-0.28125-0.63281-0.62891-0.63281s-0.62891 0.28516-0.62891 0.63281c0 0.34766 0.28125 0.62891 0.62891 0.62891s0.62891-0.28125 0.62891-0.62891" fill="#fff"/><path d="m15.93 15.301c0-0.34766-0.28125-0.63281-0.62891-0.63281-0.34766 0-0.62891 0.28516-0.62891 0.63281 0 0.34766 0.28125 0.62891 0.62891 0.62891 0.34766 0 0.62891-0.28125 0.62891-0.62891" fill="#fff"/><path d="m17.73 15.301c0-0.34766-0.28125-0.63281-0.62891-0.63281-0.34766 0-0.63281 0.28516-0.63281 0.63281 0 0.34766 0.28516 0.62891 0.63281 0.62891 0.34766 0 0.62891-0.28125 0.62891-0.62891" fill="#fff"/><path d="m1.5312 13.5c0-0.34766-0.28125-0.62891-0.63281-0.62891-0.34766 0-0.62891 0.28125-0.62891 0.62891s0.28125 0.62891 0.62891 0.62891c0.35156 0 0.63281-0.28125 0.63281-0.62891" fill="#fff"/><path d="m3.3281 13.5c0-0.34766-0.28125-0.62891-0.62891-0.62891s-0.62891 0.28125-0.62891 0.62891 0.28125 0.62891 0.62891 0.62891 0.62891-0.28125 0.62891-0.62891" fill="#fff"/><path d="m5.1289 13.5c0-0.34766-0.28125-0.62891-0.62891-0.62891s-0.62891 0.28125-0.62891 0.62891 0.28125 0.62891 0.62891 0.62891 0.62891-0.28125 0.62891-0.62891" fill="#fff"/><path d="m6.9297 13.5c0-0.34766-0.28125-0.62891-0.62891-0.62891-0.34766 0-0.62891 0.28125-0.62891 0.62891s0.28125 0.62891 0.62891 0.62891c0.34766 0 0.62891-0.28125 0.62891-0.62891" fill="#fff"/><path d="m8.7305 13.5c0-0.34766-0.28125-0.62891-0.62891-0.62891-0.34766 0-0.62891 0.28125-0.62891 0.62891s0.28125 0.62891 0.62891 0.62891c0.34766 0 0.62891-0.28125 0.62891-0.62891" fill="#fff"/><path d="m10.531 13.5c0-0.34766-0.28125-0.62891-0.63281-0.62891-0.34766 0-0.62891 0.28125-0.62891 0.62891s0.28125 0.62891 0.62891 0.62891c0.35156 0 0.63281-0.28125 0.63281-0.62891" fill="#fff"/><path d="m12.332 13.5c0-0.34766-0.28125-0.62891-0.63281-0.62891-0.34766 0-0.62891 0.28125-0.62891 0.62891s0.28125 0.62891 0.62891 0.62891c0.35156 0 0.63281-0.28125 0.63281-0.62891" fill="#fff"/><path d="m14.129 13.5c0-0.34766-0.28125-0.62891-0.62891-0.62891s-0.62891 0.28125-0.62891 0.62891 0.28125 0.62891 0.62891 0.62891 0.62891-0.28125 0.62891-0.62891" fill="#fff"/><path d="m15.93 13.5c0-0.34766-0.28125-0.62891-0.62891-0.62891-0.34766 0-0.62891 0.28125-0.62891 0.62891s0.28125 0.62891 0.62891 0.62891c0.34766 0 0.62891-0.28125 0.62891-0.62891" fill="#fff"/><path d="m17.73 13.5c0-0.34766-0.28125-0.62891-0.62891-0.62891-0.34766 0-0.63281 0.28125-0.63281 0.62891s0.28516 0.62891 0.63281 0.62891c0.34766 0 0.62891-0.28125 0.62891-0.62891" fill="#fff"/><path d="m1.5312 11.699c0-0.34766-0.28125-0.62891-0.63281-0.62891-0.34766 0-0.62891 0.28125-0.62891 0.62891 0 0.35156 0.28125 0.62891 0.62891 0.62891 0.35156 0 0.63281-0.27734 0.63281-0.62891" fill="#fff"/><path d="m3.3281 11.699c0-0.34766-0.28125-0.62891-0.62891-0.62891s-0.62891 0.28125-0.62891 0.62891c0 0.35156 0.28125 0.62891 0.62891 0.62891s0.62891-0.27734 0.62891-0.62891" fill="#fff"/><path d="m5.1289 11.699c0-0.34766-0.28125-0.62891-0.62891-0.62891s-0.62891 0.28125-0.62891 0.62891c0 0.35156 0.28125 0.62891 0.62891 0.62891s0.62891-0.27734 0.62891-0.62891" fill="#fff"/><path d="m6.9297 11.699c0-0.34766-0.28125-0.62891-0.62891-0.62891-0.34766 0-0.62891 0.28125-0.62891 0.62891 0 0.35156 0.28125 0.62891 0.62891 0.62891 0.34766 0 0.62891-0.27734 0.62891-0.62891" fill="#fff"/><path d="m8.7305 11.699c0-0.34766-0.28125-0.62891-0.62891-0.62891-0.34766 0-0.62891 0.28125-0.62891 0.62891 0 0.35156 0.28125 0.62891 0.62891 0.62891 0.34766 0 0.62891-0.27734 0.62891-0.62891" fill="#fff"/><path d="m10.531 11.699c0-0.34766-0.28125-0.62891-0.63281-0.62891-0.34766 0-0.62891 0.28125-0.62891 0.62891 0 0.35156 0.28125 0.62891 0.62891 0.62891 0.35156 0 0.63281-0.27734 0.63281-0.62891" fill="#fff"/><path d="m12.332 11.699c0-0.34766-0.28125-0.62891-0.63281-0.62891-0.34766 0-0.62891 0.28125-0.62891 0.62891 0 0.35156 0.28125 0.62891 0.62891 0.62891 0.35156 0 0.63281-0.27734 0.63281-0.62891" fill="#fff"/><path d="m14.129 11.699c0-0.34766-0.28125-0.62891-0.62891-0.62891s-0.62891 0.28125-0.62891 0.62891c0 0.35156 0.28125 0.62891 0.62891 0.62891s0.62891-0.27734 0.62891-0.62891" fill="#fff"/><path d="m15.93 11.699c0-0.34766-0.28125-0.62891-0.62891-0.62891-0.34766 0-0.62891 0.28125-0.62891 0.62891 0 0.35156 0.28125 0.62891 0.62891 0.62891 0.34766 0 0.62891-0.27734 0.62891-0.62891" fill="#fff"/><path d="m17.73 11.699c0-0.34766-0.28125-0.62891-0.62891-0.62891-0.34766 0-0.63281 0.28125-0.63281 0.62891 0 0.35156 0.28516 0.62891 0.63281 0.62891 0.34766 0 0.62891-0.27734 0.62891-0.62891" fill="#fff"/><path d="m1.5312 9.8984c0-0.34766-0.28125-0.62891-0.63281-0.62891-0.34766 0-0.62891 0.28125-0.62891 0.62891 0 0.35156 0.28125 0.62891 0.62891 0.62891 0.35156 0 0.63281-0.27734 0.63281-0.62891" fill="#fff"/><path d="m3.3281 9.8984c0-0.34766-0.28125-0.62891-0.62891-0.62891s-0.62891 0.28125-0.62891 0.62891c0 0.35156 0.28125 0.62891 0.62891 0.62891s0.62891-0.27734 0.62891-0.62891" fill="#fff"/><path d="m5.1289 9.8984c0-0.34766-0.28125-0.62891-0.62891-0.62891s-0.62891 0.28125-0.62891 0.62891c0 0.35156 0.28125 0.62891 0.62891 0.62891s0.62891-0.27734 0.62891-0.62891" fill="#fff"/><path d="m6.9297 9.8984c0-0.34766-0.28125-0.62891-0.62891-0.62891-0.34766 0-0.62891 0.28125-0.62891 0.62891 0 0.35156 0.28125 0.62891 0.62891 0.62891 0.34766 0 0.62891-0.27734 0.62891-0.62891" fill="#fff"/><path d="m8.7305 9.8984c0-0.34766-0.28125-0.62891-0.62891-0.62891-0.34766 0-0.62891 0.28125-0.62891 0.62891 0 0.35156 0.28125 0.62891 0.62891 0.62891 0.34766 0 0.62891-0.27734 0.62891-0.62891" fill="#fff"/><path d="m10.531 9.8984c0-0.34766-0.28125-0.62891-0.63281-0.62891-0.34766 0-0.62891 0.28125-0.62891 0.62891 0 0.35156 0.28125 0.62891 0.62891 0.62891 0.35156 0 0.63281-0.27734 0.63281-0.62891" fill="#fff"/><path d="m12.332 9.8984c0-0.34766-0.28125-0.62891-0.63281-0.62891-0.34766 0-0.62891 0.28125-0.62891 0.62891 0 0.35156 0.28125 0.62891 0.62891 0.62891 0.35156 0 0.63281-0.27734 0.63281-0.62891" fill="#fff"/><path d="m14.129 9.8984c0-0.34766-0.28125-0.62891-0.62891-0.62891s-0.62891 0.28125-0.62891 0.62891c0 0.35156 0.28125 0.62891 0.62891 0.62891s0.62891-0.27734 0.62891-0.62891" fill="#fff"/><path d="m15.93 9.8984c0-0.34766-0.28125-0.62891-0.62891-0.62891-0.34766 0-0.62891 0.28125-0.62891 0.62891 0 0.35156 0.28125 0.62891 0.62891 0.62891 0.34766 0 0.62891-0.27734 0.62891-0.62891" fill="#fff"/><path d="m17.73 9.8984c0-0.34766-0.28125-0.62891-0.62891-0.62891-0.34766 0-0.63281 0.28125-0.63281 0.62891 0 0.35156 0.28516 0.62891 0.63281 0.62891 0.34766 0 0.62891-0.27734 0.62891-0.62891" fill="#fff"/><path d="m1.5312 8.1016c0-0.35156-0.28125-0.63281-0.63281-0.63281-0.34766 0-0.62891 0.28125-0.62891 0.63281 0 0.34766 0.28125 0.62891 0.62891 0.62891 0.35156 0 0.63281-0.28125 0.63281-0.62891" fill="#fff"/><path d="m3.3281 8.1016c0-0.35156-0.28125-0.63281-0.62891-0.63281s-0.62891 0.28125-0.62891 0.63281c0 0.34766 0.28125 0.62891 0.62891 0.62891s0.62891-0.28125 0.62891-0.62891" fill="#fff"/><path d="m5.1289 8.1016c0-0.35156-0.28125-0.63281-0.62891-0.63281s-0.62891 0.28125-0.62891 0.63281c0 0.34766 0.28125 0.62891 0.62891 0.62891s0.62891-0.28125 0.62891-0.62891" fill="#fff"/><path d="m6.9297 8.1016c0-0.35156-0.28125-0.63281-0.62891-0.63281-0.34766 0-0.62891 0.28125-0.62891 0.63281 0 0.34766 0.28125 0.62891 0.62891 0.62891 0.34766 0 0.62891-0.28125 0.62891-0.62891" fill="#fff"/><path d="m8.7305 8.1016c0-0.35156-0.28125-0.63281-0.62891-0.63281-0.34766 0-0.62891 0.28125-0.62891 0.63281 0 0.34766 0.28125 0.62891 0.62891 0.62891 0.34766 0 0.62891-0.28125 0.62891-0.62891" fill="#fff"/><path d="m10.531 8.1016c0-0.35156-0.28125-0.63281-0.63281-0.63281-0.34766 0-0.62891 0.28125-0.62891 0.63281 0 0.34766 0.28125 0.62891 0.62891 0.62891 0.35156 0 0.63281-0.28125 0.63281-0.62891" fill="#fff"/><path d="m12.332 8.1016c0-0.35156-0.28125-0.63281-0.63281-0.63281-0.34766 0-0.62891 0.28125-0.62891 0.63281 0 0.34766 0.28125 0.62891 0.62891 0.62891 0.35156 0 0.63281-0.28125 0.63281-0.62891" fill="#fff"/><path d="m14.129 8.1016c0-0.35156-0.28125-0.63281-0.62891-0.63281s-0.62891 0.28125-0.62891 0.63281c0 0.34766 0.28125 0.62891 0.62891 0.62891s0.62891-0.28125 0.62891-0.62891" fill="#fff"/><path d="m15.93 8.1016c0-0.35156-0.28125-0.63281-0.62891-0.63281-0.34766 0-0.62891 0.28125-0.62891 0.63281 0 0.34766 0.28125 0.62891 0.62891 0.62891 0.34766 0 0.62891-0.28125 0.62891-0.62891" fill="#fff"/><path d="m17.73 8.1016c0-0.35156-0.28125-0.63281-0.62891-0.63281-0.34766 0-0.63281 0.28125-0.63281 0.63281 0 0.34766 0.28516 0.62891 0.63281 0.62891 0.34766 0 0.62891-0.28125 0.62891-0.62891" fill="#fff"/><path d="m1.5312 6.3008c0-0.35156-0.28125-0.62891-0.63281-0.62891-0.34766 0-0.62891 0.27734-0.62891 0.62891 0 0.34766 0.28125 0.62891 0.62891 0.62891 0.35156 0 0.63281-0.28125 0.63281-0.62891" fill="#fff"/><path d="m3.3281 6.3008c0-0.35156-0.28125-0.62891-0.62891-0.62891s-0.62891 0.27734-0.62891 0.62891c0 0.34766 0.28125 0.62891 0.62891 0.62891s0.62891-0.28125 0.62891-0.62891" fill="#fff"/><path d="m5.1289 6.3008c0-0.35156-0.28125-0.62891-0.62891-0.62891s-0.62891 0.27734-0.62891 0.62891c0 0.34766 0.28125 0.62891 0.62891 0.62891s0.62891-0.28125 0.62891-0.62891" fill="#fff"/><path d="m6.9297 6.3008c0-0.35156-0.28125-0.62891-0.62891-0.62891-0.34766 0-0.62891 0.27734-0.62891 0.62891 0 0.34766 0.28125 0.62891 0.62891 0.62891 0.34766 0 0.62891-0.28125 0.62891-0.62891" fill="#fff"/><path d="m8.7305 6.3008c0-0.35156-0.28125-0.62891-0.62891-0.62891-0.34766 0-0.62891 0.27734-0.62891 0.62891 0 0.34766 0.28125 0.62891 0.62891 0.62891 0.34766 0 0.62891-0.28125 0.62891-0.62891" fill="#fff"/><path d="m10.531 6.3008c0-0.35156-0.28125-0.62891-0.63281-0.62891-0.34766 0-0.62891 0.27734-0.62891 0.62891 0 0.34766 0.28125 0.62891 0.62891 0.62891 0.35156 0 0.63281-0.28125 0.63281-0.62891" fill="#fff"/><path d="m12.332 6.3008c0-0.35156-0.28125-0.62891-0.63281-0.62891-0.34766 0-0.62891 0.27734-0.62891 0.62891 0 0.34766 0.28125 0.62891 0.62891 0.62891 0.35156 0 0.63281-0.28125 0.63281-0.62891" fill="#fff"/><path d="m14.129 6.3008c0-0.35156-0.28125-0.62891-0.62891-0.62891s-0.62891 0.27734-0.62891 0.62891c0 0.34766 0.28125 0.62891 0.62891 0.62891s0.62891-0.28125 0.62891-0.62891" fill="#fff"/><path d="m15.93 6.3008c0-0.35156-0.28125-0.62891-0.62891-0.62891-0.34766 0-0.62891 0.27734-0.62891 0.62891 0 0.34766 0.28125 0.62891 0.62891 0.62891 0.34766 0 0.62891-0.28125 0.62891-0.62891" fill="#fff"/><path d="m17.73 6.3008c0-0.35156-0.28125-0.62891-0.62891-0.62891-0.34766 0-0.63281 0.27734-0.63281 0.62891 0 0.34766 0.28516 0.62891 0.63281 0.62891 0.34766 0 0.62891-0.28125 0.62891-0.62891" fill="#fff"/><path d="m1.5312 4.5c0-0.34766-0.28125-0.62891-0.63281-0.62891-0.34766 0-0.62891 0.28125-0.62891 0.62891s0.28125 0.62891 0.62891 0.62891c0.35156 0 0.63281-0.28125 0.63281-0.62891" fill="#fff"/><path d="m3.3281 4.5c0-0.34766-0.28125-0.62891-0.62891-0.62891s-0.62891 0.28125-0.62891 0.62891 0.28125 0.62891 0.62891 0.62891 0.62891-0.28125 0.62891-0.62891" fill="#fff"/><path d="m5.1289 4.5c0-0.34766-0.28125-0.62891-0.62891-0.62891s-0.62891 0.28125-0.62891 0.62891 0.28125 0.62891 0.62891 0.62891 0.62891-0.28125 0.62891-0.62891" fill="#fff"/><path d="m6.9297 4.5c0-0.34766-0.28125-0.62891-0.62891-0.62891-0.34766 0-0.62891 0.28125-0.62891 0.62891s0.28125 0.62891 0.62891 0.62891c0.34766 0 0.62891-0.28125 0.62891-0.62891" fill="#fff"/><path d="m8.7305 4.5c0-0.34766-0.28125-0.62891-0.62891-0.62891-0.34766 0-0.62891 0.28125-0.62891 0.62891s0.28125 0.62891 0.62891 0.62891c0.34766 0 0.62891-0.28125 0.62891-0.62891" fill="#fff"/><path d="m10.531 4.5c0-0.34766-0.28125-0.62891-0.63281-0.62891-0.34766 0-0.62891 0.28125-0.62891 0.62891s0.28125 0.62891 0.62891 0.62891c0.35156 0 0.63281-0.28125 0.63281-0.62891" fill="#fff"/><path d="m12.332 4.5c0-0.34766-0.28125-0.62891-0.63281-0.62891-0.34766 0-0.62891 0.28125-0.62891 0.62891s0.28125 0.62891 0.62891 0.62891c0.35156 0 0.63281-0.28125 0.63281-0.62891" fill="#fff"/><path d="m14.129 4.5c0-0.34766-0.28125-0.62891-0.62891-0.62891s-0.62891 0.28125-0.62891 0.62891 0.28125 0.62891 0.62891 0.62891 0.62891-0.28125 0.62891-0.62891" fill="#fff"/><path d="m15.93 4.5c0-0.34766-0.28125-0.62891-0.62891-0.62891-0.34766 0-0.62891 0.28125-0.62891 0.62891s0.28125 0.62891 0.62891 0.62891c0.34766 0 0.62891-0.28125 0.62891-0.62891" fill="#fff"/><path d="m17.73 4.5c0-0.34766-0.28125-0.62891-0.62891-0.62891-0.34766 0-0.63281 0.28125-0.63281 0.62891s0.28516 0.62891 0.63281 0.62891c0.34766 0 0.62891-0.28125 0.62891-0.62891" fill="#fff"/><path d="m1.5312 2.6992c0-0.34766-0.28125-0.62891-0.63281-0.62891-0.34766 0-0.62891 0.28125-0.62891 0.62891s0.28125 0.62891 0.62891 0.62891c0.35156 0 0.63281-0.28125 0.63281-0.62891" fill="#fff"/><path d="m3.3281 2.6992c0-0.34766-0.28125-0.62891-0.62891-0.62891s-0.62891 0.28125-0.62891 0.62891 0.28125 0.62891 0.62891 0.62891 0.62891-0.28125 0.62891-0.62891" fill="#fff"/><path d="m5.1289 2.6992c0-0.34766-0.28125-0.62891-0.62891-0.62891s-0.62891 0.28125-0.62891 0.62891 0.28125 0.62891 0.62891 0.62891 0.62891-0.28125 0.62891-0.62891" fill="#fff"/><path d="m6.9297 2.6992c0-0.34766-0.28125-0.62891-0.62891-0.62891-0.34766 0-0.62891 0.28125-0.62891 0.62891s0.28125 0.62891 0.62891 0.62891c0.34766 0 0.62891-0.28125 0.62891-0.62891" fill="#fff"/><path d="m8.7305 2.6992c0-0.34766-0.28125-0.62891-0.62891-0.62891-0.34766 0-0.62891 0.28125-0.62891 0.62891s0.28125 0.62891 0.62891 0.62891c0.34766 0 0.62891-0.28125 0.62891-0.62891" fill="#fff"/><path d="m10.531 2.6992c0-0.34766-0.28125-0.62891-0.63281-0.62891-0.34766 0-0.62891 0.28125-0.62891 0.62891s0.28125 0.62891 0.62891 0.62891c0.35156 0 0.63281-0.28125 0.63281-0.62891" fill="#fff"/><path d="m12.332 2.6992c0-0.34766-0.28125-0.62891-0.63281-0.62891-0.34766 0-0.62891 0.28125-0.62891 0.62891s0.28125 0.62891 0.62891 0.62891c0.35156 0 0.63281-0.28125 0.63281-0.62891" fill="#fff"/><path d="m14.129 2.6992c0-0.34766-0.28125-0.62891-0.62891-0.62891s-0.62891 0.28125-0.62891 0.62891 0.28125 0.62891 0.62891 0.62891 0.62891-0.28125 0.62891-0.62891" fill="#fff"/><path d="m15.93 2.6992c0-0.34766-0.28125-0.62891-0.62891-0.62891-0.34766 0-0.62891 0.28125-0.62891 0.62891s0.28125 0.62891 0.62891 0.62891c0.34766 0 0.62891-0.28125 0.62891-0.62891" fill="#fff"/><path d="m17.73 2.6992c0-0.34766-0.28125-0.62891-0.62891-0.62891-0.34766 0-0.63281 0.28125-0.63281 0.62891s0.28516 0.62891 0.63281 0.62891c0.34766 0 0.62891-0.28125 0.62891-0.62891" fill="#fff"/><path d="m1.5312 0.89844c0-0.34766-0.28125-0.62891-0.63281-0.62891-0.34766 0-0.62891 0.28125-0.62891 0.62891 0 0.35156 0.28125 0.63281 0.62891 0.63281 0.35156 0 0.63281-0.28125 0.63281-0.63281" fill="#fff"/><path d="m3.3281 0.89844c0-0.34766-0.28125-0.62891-0.62891-0.62891s-0.62891 0.28125-0.62891 0.62891c0 0.35156 0.28125 0.63281 0.62891 0.63281s0.62891-0.28125 0.62891-0.63281" fill="#fff"/><path d="m5.1289 0.89844c0-0.34766-0.28125-0.62891-0.62891-0.62891s-0.62891 0.28125-0.62891 0.62891c0 0.35156 0.28125 0.63281 0.62891 0.63281s0.62891-0.28125 0.62891-0.63281" fill="#fff"/><path d="m6.9297 0.89844c0-0.34766-0.28125-0.62891-0.62891-0.62891-0.34766 0-0.62891 0.28125-0.62891 0.62891 0 0.35156 0.28125 0.63281 0.62891 0.63281 0.34766 0 0.62891-0.28125 0.62891-0.63281" fill="#fff"/><path d="m8.7305 0.89844c0-0.34766-0.28125-0.62891-0.62891-0.62891-0.34766 0-0.62891 0.28125-0.62891 0.62891 0 0.35156 0.28125 0.63281 0.62891 0.63281 0.34766 0 0.62891-0.28125 0.62891-0.63281" fill="#fff"/><path d="m10.531 0.89844c0-0.34766-0.28125-0.62891-0.63281-0.62891-0.34766 0-0.62891 0.28125-0.62891 0.62891 0 0.35156 0.28125 0.63281 0.62891 0.63281 0.35156 0 0.63281-0.28125 0.63281-0.63281" fill="#fff"/><path d="m12.332 0.89844c0-0.34766-0.28125-0.62891-0.63281-0.62891-0.34766 0-0.62891 0.28125-0.62891 0.62891 0 0.35156 0.28125 0.63281 0.62891 0.63281 0.35156 0 0.63281-0.28125 0.63281-0.63281" fill="#fff"/><path d="m14.129 0.89844c0-0.34766-0.28125-0.62891-0.62891-0.62891s-0.62891 0.28125-0.62891 0.62891c0 0.35156 0.28125 0.63281 0.62891 0.63281s0.62891-0.28125 0.62891-0.63281" fill="#fff"/><path d="m15.93 0.89844c0-0.34766-0.28125-0.62891-0.62891-0.62891-0.34766 0-0.62891 0.28125-0.62891 0.62891 0 0.35156 0.28125 0.63281 0.62891 0.63281 0.34766 0 0.62891-0.28125 0.62891-0.63281" fill="#fff"/><path d="m17.73 0.89844c0-0.34766-0.28125-0.62891-0.62891-0.62891-0.34766 0-0.63281 0.28125-0.63281 0.62891 0 0.35156 0.28516 0.63281 0.63281 0.63281 0.34766 0 0.62891-0.28125 0.62891-0.63281" fill="#fff"/></g><pattern id="g" width="18" height="18" patternTransform="matrix(.95985 0 0 -.95985 -5.1743 796.42)" patternUnits="userSpaceOnUse"><use xlink:href="#c"/></pattern><clipPath id="k"><path d="m344 128h15v18h-15z"/></clipPath><clipPath id="j"><path d="m346.28 140.55c1.4727-2.4609 3.5898-3.9844 6.6484-4.8047 1.8828-0.52734 2.5312-1.1133 2.5312-2.1094 0-1.2305-1.1758-1.9336-3.293-1.9336-2.1797 0-3.7695 0.52344-5.1797 1.8125l-2.0625-2.2812c1.9453-1.6992 4.3555-2.5742 7.0664-2.5742 3.9414 0 6.4688 1.9297 6.4688 4.9766 0 1.4102-0.58203 2.6953-1.7031 3.6328-0.53125 0.41016-1.293 0.82031-2.4688 1.1719-2.2383 0.64843-2.8828 0.9375-3.8867 1.8164-0.76563 0.64453-1.2344 1.293-1.8242 2.4024h9.8828v2.9844h-13.535c0-1.9883 0.41407-3.4531 1.3555-5.0938"/></clipPath><clipPath id="i"><rect width="18" height="18"/></clipPath><g id="b" clip-path="url(#i)"><rect width="18" height="18" fill="#211e1e"/><path d="m1.5312 17.098c0-0.34766-0.28125-0.62891-0.63281-0.62891-0.34766 0-0.62891 0.28125-0.62891 0.62891 0 0.35156 0.28125 0.63281 0.62891 0.63281 0.35156 0 0.63281-0.28125 0.63281-0.63281" fill="#fff"/><path d="m3.3281 17.098c0-0.34766-0.28125-0.62891-0.62891-0.62891s-0.62891 0.28125-0.62891 0.62891c0 0.35156 0.28125 0.63281 0.62891 0.63281s0.62891-0.28125 0.62891-0.63281" fill="#fff"/><path d="m5.1289 17.098c0-0.34766-0.28125-0.62891-0.62891-0.62891s-0.62891 0.28125-0.62891 0.62891c0 0.35156 0.28125 0.63281 0.62891 0.63281s0.62891-0.28125 0.62891-0.63281" fill="#fff"/><path d="m6.9297 17.098c0-0.34766-0.28125-0.62891-0.62891-0.62891-0.34766 0-0.62891 0.28125-0.62891 0.62891 0 0.35156 0.28125 0.63281 0.62891 0.63281 0.34766 0 0.62891-0.28125 0.62891-0.63281" fill="#fff"/><path d="m8.7305 17.098c0-0.34766-0.28125-0.62891-0.62891-0.62891-0.34766 0-0.62891 0.28125-0.62891 0.62891 0 0.35156 0.28125 0.63281 0.62891 0.63281 0.34766 0 0.62891-0.28125 0.62891-0.63281" fill="#fff"/><path d="m10.531 17.098c0-0.34766-0.28125-0.62891-0.63281-0.62891-0.34766 0-0.62891 0.28125-0.62891 0.62891 0 0.35156 0.28125 0.63281 0.62891 0.63281 0.35156 0 0.63281-0.28125 0.63281-0.63281" fill="#fff"/><path d="m12.332 17.098c0-0.34766-0.28125-0.62891-0.63281-0.62891-0.34766 0-0.62891 0.28125-0.62891 0.62891 0 0.35156 0.28125 0.63281 0.62891 0.63281 0.35156 0 0.63281-0.28125 0.63281-0.63281" fill="#fff"/><path d="m14.129 17.098c0-0.34766-0.28125-0.62891-0.62891-0.62891s-0.62891 0.28125-0.62891 0.62891c0 0.35156 0.28125 0.63281 0.62891 0.63281s0.62891-0.28125 0.62891-0.63281" fill="#fff"/><path d="m15.93 17.098c0-0.34766-0.28125-0.62891-0.62891-0.62891-0.34766 0-0.62891 0.28125-0.62891 0.62891 0 0.35156 0.28125 0.63281 0.62891 0.63281 0.34766 0 0.62891-0.28125 0.62891-0.63281" fill="#fff"/><path d="m17.73 17.098c0-0.34766-0.28125-0.62891-0.62891-0.62891-0.34766 0-0.63281 0.28125-0.63281 0.62891 0 0.35156 0.28516 0.63281 0.63281 0.63281 0.34766 0 0.62891-0.28125 0.62891-0.63281" fill="#fff"/><path d="m1.5312 15.301c0-0.34766-0.28125-0.63281-0.63281-0.63281-0.34766 0-0.62891 0.28516-0.62891 0.63281 0 0.34766 0.28125 0.62891 0.62891 0.62891 0.35156 0 0.63281-0.28125 0.63281-0.62891" fill="#fff"/><path d="m3.3281 15.301c0-0.34766-0.28125-0.63281-0.62891-0.63281s-0.62891 0.28516-0.62891 0.63281c0 0.34766 0.28125 0.62891 0.62891 0.62891s0.62891-0.28125 0.62891-0.62891" fill="#fff"/><path d="m5.1289 15.301c0-0.34766-0.28125-0.63281-0.62891-0.63281s-0.62891 0.28516-0.62891 0.63281c0 0.34766 0.28125 0.62891 0.62891 0.62891s0.62891-0.28125 0.62891-0.62891" fill="#fff"/><path d="m6.9297 15.301c0-0.34766-0.28125-0.63281-0.62891-0.63281-0.34766 0-0.62891 0.28516-0.62891 0.63281 0 0.34766 0.28125 0.62891 0.62891 0.62891 0.34766 0 0.62891-0.28125 0.62891-0.62891" fill="#fff"/><path d="m8.7305 15.301c0-0.34766-0.28125-0.63281-0.62891-0.63281-0.34766 0-0.62891 0.28516-0.62891 0.63281 0 0.34766 0.28125 0.62891 0.62891 0.62891 0.34766 0 0.62891-0.28125 0.62891-0.62891" fill="#fff"/><path d="m10.531 15.301c0-0.34766-0.28125-0.63281-0.63281-0.63281-0.34766 0-0.62891 0.28516-0.62891 0.63281 0 0.34766 0.28125 0.62891 0.62891 0.62891 0.35156 0 0.63281-0.28125 0.63281-0.62891" fill="#fff"/><path d="m12.332 15.301c0-0.34766-0.28125-0.63281-0.63281-0.63281-0.34766 0-0.62891 0.28516-0.62891 0.63281 0 0.34766 0.28125 0.62891 0.62891 0.62891 0.35156 0 0.63281-0.28125 0.63281-0.62891" fill="#fff"/><path d="m14.129 15.301c0-0.34766-0.28125-0.63281-0.62891-0.63281s-0.62891 0.28516-0.62891 0.63281c0 0.34766 0.28125 0.62891 0.62891 0.62891s0.62891-0.28125 0.62891-0.62891" fill="#fff"/><path d="m15.93 15.301c0-0.34766-0.28125-0.63281-0.62891-0.63281-0.34766 0-0.62891 0.28516-0.62891 0.63281 0 0.34766 0.28125 0.62891 0.62891 0.62891 0.34766 0 0.62891-0.28125 0.62891-0.62891" fill="#fff"/><path d="m17.73 15.301c0-0.34766-0.28125-0.63281-0.62891-0.63281-0.34766 0-0.63281 0.28516-0.63281 0.63281 0 0.34766 0.28516 0.62891 0.63281 0.62891 0.34766 0 0.62891-0.28125 0.62891-0.62891" fill="#fff"/><path d="m1.5312 13.5c0-0.34766-0.28125-0.62891-0.63281-0.62891-0.34766 0-0.62891 0.28125-0.62891 0.62891s0.28125 0.62891 0.62891 0.62891c0.35156 0 0.63281-0.28125 0.63281-0.62891" fill="#fff"/><path d="m3.3281 13.5c0-0.34766-0.28125-0.62891-0.62891-0.62891s-0.62891 0.28125-0.62891 0.62891 0.28125 0.62891 0.62891 0.62891 0.62891-0.28125 0.62891-0.62891" fill="#fff"/><path d="m5.1289 13.5c0-0.34766-0.28125-0.62891-0.62891-0.62891s-0.62891 0.28125-0.62891 0.62891 0.28125 0.62891 0.62891 0.62891 0.62891-0.28125 0.62891-0.62891" fill="#fff"/><path d="m6.9297 13.5c0-0.34766-0.28125-0.62891-0.62891-0.62891-0.34766 0-0.62891 0.28125-0.62891 0.62891s0.28125 0.62891 0.62891 0.62891c0.34766 0 0.62891-0.28125 0.62891-0.62891" fill="#fff"/><path d="m8.7305 13.5c0-0.34766-0.28125-0.62891-0.62891-0.62891-0.34766 0-0.62891 0.28125-0.62891 0.62891s0.28125 0.62891 0.62891 0.62891c0.34766 0 0.62891-0.28125 0.62891-0.62891" fill="#fff"/><path d="m10.531 13.5c0-0.34766-0.28125-0.62891-0.63281-0.62891-0.34766 0-0.62891 0.28125-0.62891 0.62891s0.28125 0.62891 0.62891 0.62891c0.35156 0 0.63281-0.28125 0.63281-0.62891" fill="#fff"/><path d="m12.332 13.5c0-0.34766-0.28125-0.62891-0.63281-0.62891-0.34766 0-0.62891 0.28125-0.62891 0.62891s0.28125 0.62891 0.62891 0.62891c0.35156 0 0.63281-0.28125 0.63281-0.62891" fill="#fff"/><path d="m14.129 13.5c0-0.34766-0.28125-0.62891-0.62891-0.62891s-0.62891 0.28125-0.62891 0.62891 0.28125 0.62891 0.62891 0.62891 0.62891-0.28125 0.62891-0.62891" fill="#fff"/><path d="m15.93 13.5c0-0.34766-0.28125-0.62891-0.62891-0.62891-0.34766 0-0.62891 0.28125-0.62891 0.62891s0.28125 0.62891 0.62891 0.62891c0.34766 0 0.62891-0.28125 0.62891-0.62891" fill="#fff"/><path d="m17.73 13.5c0-0.34766-0.28125-0.62891-0.62891-0.62891-0.34766 0-0.63281 0.28125-0.63281 0.62891s0.28516 0.62891 0.63281 0.62891c0.34766 0 0.62891-0.28125 0.62891-0.62891" fill="#fff"/><path d="m1.5312 11.699c0-0.34766-0.28125-0.62891-0.63281-0.62891-0.34766 0-0.62891 0.28125-0.62891 0.62891 0 0.35156 0.28125 0.62891 0.62891 0.62891 0.35156 0 0.63281-0.27734 0.63281-0.62891" fill="#fff"/><path d="m3.3281 11.699c0-0.34766-0.28125-0.62891-0.62891-0.62891s-0.62891 0.28125-0.62891 0.62891c0 0.35156 0.28125 0.62891 0.62891 0.62891s0.62891-0.27734 0.62891-0.62891" fill="#fff"/><path d="m5.1289 11.699c0-0.34766-0.28125-0.62891-0.62891-0.62891s-0.62891 0.28125-0.62891 0.62891c0 0.35156 0.28125 0.62891 0.62891 0.62891s0.62891-0.27734 0.62891-0.62891" fill="#fff"/><path d="m6.9297 11.699c0-0.34766-0.28125-0.62891-0.62891-0.62891-0.34766 0-0.62891 0.28125-0.62891 0.62891 0 0.35156 0.28125 0.62891 0.62891 0.62891 0.34766 0 0.62891-0.27734 0.62891-0.62891" fill="#fff"/><path d="m8.7305 11.699c0-0.34766-0.28125-0.62891-0.62891-0.62891-0.34766 0-0.62891 0.28125-0.62891 0.62891 0 0.35156 0.28125 0.62891 0.62891 0.62891 0.34766 0 0.62891-0.27734 0.62891-0.62891" fill="#fff"/><path d="m10.531 11.699c0-0.34766-0.28125-0.62891-0.63281-0.62891-0.34766 0-0.62891 0.28125-0.62891 0.62891 0 0.35156 0.28125 0.62891 0.62891 0.62891 0.35156 0 0.63281-0.27734 0.63281-0.62891" fill="#fff"/><path d="m12.332 11.699c0-0.34766-0.28125-0.62891-0.63281-0.62891-0.34766 0-0.62891 0.28125-0.62891 0.62891 0 0.35156 0.28125 0.62891 0.62891 0.62891 0.35156 0 0.63281-0.27734 0.63281-0.62891" fill="#fff"/><path d="m14.129 11.699c0-0.34766-0.28125-0.62891-0.62891-0.62891s-0.62891 0.28125-0.62891 0.62891c0 0.35156 0.28125 0.62891 0.62891 0.62891s0.62891-0.27734 0.62891-0.62891" fill="#fff"/><path d="m15.93 11.699c0-0.34766-0.28125-0.62891-0.62891-0.62891-0.34766 0-0.62891 0.28125-0.62891 0.62891 0 0.35156 0.28125 0.62891 0.62891 0.62891 0.34766 0 0.62891-0.27734 0.62891-0.62891" fill="#fff"/><path d="m17.73 11.699c0-0.34766-0.28125-0.62891-0.62891-0.62891-0.34766 0-0.63281 0.28125-0.63281 0.62891 0 0.35156 0.28516 0.62891 0.63281 0.62891 0.34766 0 0.62891-0.27734 0.62891-0.62891" fill="#fff"/><path d="m1.5312 9.8984c0-0.34766-0.28125-0.62891-0.63281-0.62891-0.34766 0-0.62891 0.28125-0.62891 0.62891 0 0.35156 0.28125 0.62891 0.62891 0.62891 0.35156 0 0.63281-0.27734 0.63281-0.62891" fill="#fff"/><path d="m3.3281 9.8984c0-0.34766-0.28125-0.62891-0.62891-0.62891s-0.62891 0.28125-0.62891 0.62891c0 0.35156 0.28125 0.62891 0.62891 0.62891s0.62891-0.27734 0.62891-0.62891" fill="#fff"/><path d="m5.1289 9.8984c0-0.34766-0.28125-0.62891-0.62891-0.62891s-0.62891 0.28125-0.62891 0.62891c0 0.35156 0.28125 0.62891 0.62891 0.62891s0.62891-0.27734 0.62891-0.62891" fill="#fff"/><path d="m6.9297 9.8984c0-0.34766-0.28125-0.62891-0.62891-0.62891-0.34766 0-0.62891 0.28125-0.62891 0.62891 0 0.35156 0.28125 0.62891 0.62891 0.62891 0.34766 0 0.62891-0.27734 0.62891-0.62891" fill="#fff"/><path d="m8.7305 9.8984c0-0.34766-0.28125-0.62891-0.62891-0.62891-0.34766 0-0.62891 0.28125-0.62891 0.62891 0 0.35156 0.28125 0.62891 0.62891 0.62891 0.34766 0 0.62891-0.27734 0.62891-0.62891" fill="#fff"/><path d="m10.531 9.8984c0-0.34766-0.28125-0.62891-0.63281-0.62891-0.34766 0-0.62891 0.28125-0.62891 0.62891 0 0.35156 0.28125 0.62891 0.62891 0.62891 0.35156 0 0.63281-0.27734 0.63281-0.62891" fill="#fff"/><path d="m12.332 9.8984c0-0.34766-0.28125-0.62891-0.63281-0.62891-0.34766 0-0.62891 0.28125-0.62891 0.62891 0 0.35156 0.28125 0.62891 0.62891 0.62891 0.35156 0 0.63281-0.27734 0.63281-0.62891" fill="#fff"/><path d="m14.129 9.8984c0-0.34766-0.28125-0.62891-0.62891-0.62891s-0.62891 0.28125-0.62891 0.62891c0 0.35156 0.28125 0.62891 0.62891 0.62891s0.62891-0.27734 0.62891-0.62891" fill="#fff"/><path d="m15.93 9.8984c0-0.34766-0.28125-0.62891-0.62891-0.62891-0.34766 0-0.62891 0.28125-0.62891 0.62891 0 0.35156 0.28125 0.62891 0.62891 0.62891 0.34766 0 0.62891-0.27734 0.62891-0.62891" fill="#fff"/><path d="m17.73 9.8984c0-0.34766-0.28125-0.62891-0.62891-0.62891-0.34766 0-0.63281 0.28125-0.63281 0.62891 0 0.35156 0.28516 0.62891 0.63281 0.62891 0.34766 0 0.62891-0.27734 0.62891-0.62891" fill="#fff"/><path d="m1.5312 8.1016c0-0.35156-0.28125-0.63281-0.63281-0.63281-0.34766 0-0.62891 0.28125-0.62891 0.63281 0 0.34766 0.28125 0.62891 0.62891 0.62891 0.35156 0 0.63281-0.28125 0.63281-0.62891" fill="#fff"/><path d="m3.3281 8.1016c0-0.35156-0.28125-0.63281-0.62891-0.63281s-0.62891 0.28125-0.62891 0.63281c0 0.34766 0.28125 0.62891 0.62891 0.62891s0.62891-0.28125 0.62891-0.62891" fill="#fff"/><path d="m5.1289 8.1016c0-0.35156-0.28125-0.63281-0.62891-0.63281s-0.62891 0.28125-0.62891 0.63281c0 0.34766 0.28125 0.62891 0.62891 0.62891s0.62891-0.28125 0.62891-0.62891" fill="#fff"/><path d="m6.9297 8.1016c0-0.35156-0.28125-0.63281-0.62891-0.63281-0.34766 0-0.62891 0.28125-0.62891 0.63281 0 0.34766 0.28125 0.62891 0.62891 0.62891 0.34766 0 0.62891-0.28125 0.62891-0.62891" fill="#fff"/><path d="m8.7305 8.1016c0-0.35156-0.28125-0.63281-0.62891-0.63281-0.34766 0-0.62891 0.28125-0.62891 0.63281 0 0.34766 0.28125 0.62891 0.62891 0.62891 0.34766 0 0.62891-0.28125 0.62891-0.62891" fill="#fff"/><path d="m10.531 8.1016c0-0.35156-0.28125-0.63281-0.63281-0.63281-0.34766 0-0.62891 0.28125-0.62891 0.63281 0 0.34766 0.28125 0.62891 0.62891 0.62891 0.35156 0 0.63281-0.28125 0.63281-0.62891" fill="#fff"/><path d="m12.332 8.1016c0-0.35156-0.28125-0.63281-0.63281-0.63281-0.34766 0-0.62891 0.28125-0.62891 0.63281 0 0.34766 0.28125 0.62891 0.62891 0.62891 0.35156 0 0.63281-0.28125 0.63281-0.62891" fill="#fff"/><path d="m14.129 8.1016c0-0.35156-0.28125-0.63281-0.62891-0.63281s-0.62891 0.28125-0.62891 0.63281c0 0.34766 0.28125 0.62891 0.62891 0.62891s0.62891-0.28125 0.62891-0.62891" fill="#fff"/><path d="m15.93 8.1016c0-0.35156-0.28125-0.63281-0.62891-0.63281-0.34766 0-0.62891 0.28125-0.62891 0.63281 0 0.34766 0.28125 0.62891 0.62891 0.62891 0.34766 0 0.62891-0.28125 0.62891-0.62891" fill="#fff"/><path d="m17.73 8.1016c0-0.35156-0.28125-0.63281-0.62891-0.63281-0.34766 0-0.63281 0.28125-0.63281 0.63281 0 0.34766 0.28516 0.62891 0.63281 0.62891 0.34766 0 0.62891-0.28125 0.62891-0.62891" fill="#fff"/><path d="m1.5312 6.3008c0-0.35156-0.28125-0.62891-0.63281-0.62891-0.34766 0-0.62891 0.27734-0.62891 0.62891 0 0.34766 0.28125 0.62891 0.62891 0.62891 0.35156 0 0.63281-0.28125 0.63281-0.62891" fill="#fff"/><path d="m3.3281 6.3008c0-0.35156-0.28125-0.62891-0.62891-0.62891s-0.62891 0.27734-0.62891 0.62891c0 0.34766 0.28125 0.62891 0.62891 0.62891s0.62891-0.28125 0.62891-0.62891" fill="#fff"/><path d="m5.1289 6.3008c0-0.35156-0.28125-0.62891-0.62891-0.62891s-0.62891 0.27734-0.62891 0.62891c0 0.34766 0.28125 0.62891 0.62891 0.62891s0.62891-0.28125 0.62891-0.62891" fill="#fff"/><path d="m6.9297 6.3008c0-0.35156-0.28125-0.62891-0.62891-0.62891-0.34766 0-0.62891 0.27734-0.62891 0.62891 0 0.34766 0.28125 0.62891 0.62891 0.62891 0.34766 0 0.62891-0.28125 0.62891-0.62891" fill="#fff"/><path d="m8.7305 6.3008c0-0.35156-0.28125-0.62891-0.62891-0.62891-0.34766 0-0.62891 0.27734-0.62891 0.62891 0 0.34766 0.28125 0.62891 0.62891 0.62891 0.34766 0 0.62891-0.28125 0.62891-0.62891" fill="#fff"/><path d="m10.531 6.3008c0-0.35156-0.28125-0.62891-0.63281-0.62891-0.34766 0-0.62891 0.27734-0.62891 0.62891 0 0.34766 0.28125 0.62891 0.62891 0.62891 0.35156 0 0.63281-0.28125 0.63281-0.62891" fill="#fff"/><path d="m12.332 6.3008c0-0.35156-0.28125-0.62891-0.63281-0.62891-0.34766 0-0.62891 0.27734-0.62891 0.62891 0 0.34766 0.28125 0.62891 0.62891 0.62891 0.35156 0 0.63281-0.28125 0.63281-0.62891" fill="#fff"/><path d="m14.129 6.3008c0-0.35156-0.28125-0.62891-0.62891-0.62891s-0.62891 0.27734-0.62891 0.62891c0 0.34766 0.28125 0.62891 0.62891 0.62891s0.62891-0.28125 0.62891-0.62891" fill="#fff"/><path d="m15.93 6.3008c0-0.35156-0.28125-0.62891-0.62891-0.62891-0.34766 0-0.62891 0.27734-0.62891 0.62891 0 0.34766 0.28125 0.62891 0.62891 0.62891 0.34766 0 0.62891-0.28125 0.62891-0.62891" fill="#fff"/><path d="m17.73 6.3008c0-0.35156-0.28125-0.62891-0.62891-0.62891-0.34766 0-0.63281 0.27734-0.63281 0.62891 0 0.34766 0.28516 0.62891 0.63281 0.62891 0.34766 0 0.62891-0.28125 0.62891-0.62891" fill="#fff"/><path d="m1.5312 4.5c0-0.34766-0.28125-0.62891-0.63281-0.62891-0.34766 0-0.62891 0.28125-0.62891 0.62891s0.28125 0.62891 0.62891 0.62891c0.35156 0 0.63281-0.28125 0.63281-0.62891" fill="#fff"/><path d="m3.3281 4.5c0-0.34766-0.28125-0.62891-0.62891-0.62891s-0.62891 0.28125-0.62891 0.62891 0.28125 0.62891 0.62891 0.62891 0.62891-0.28125 0.62891-0.62891" fill="#fff"/><path d="m5.1289 4.5c0-0.34766-0.28125-0.62891-0.62891-0.62891s-0.62891 0.28125-0.62891 0.62891 0.28125 0.62891 0.62891 0.62891 0.62891-0.28125 0.62891-0.62891" fill="#fff"/><path d="m6.9297 4.5c0-0.34766-0.28125-0.62891-0.62891-0.62891-0.34766 0-0.62891 0.28125-0.62891 0.62891s0.28125 0.62891 0.62891 0.62891c0.34766 0 0.62891-0.28125 0.62891-0.62891" fill="#fff"/><path d="m8.7305 4.5c0-0.34766-0.28125-0.62891-0.62891-0.62891-0.34766 0-0.62891 0.28125-0.62891 0.62891s0.28125 0.62891 0.62891 0.62891c0.34766 0 0.62891-0.28125 0.62891-0.62891" fill="#fff"/><path d="m10.531 4.5c0-0.34766-0.28125-0.62891-0.63281-0.62891-0.34766 0-0.62891 0.28125-0.62891 0.62891s0.28125 0.62891 0.62891 0.62891c0.35156 0 0.63281-0.28125 0.63281-0.62891" fill="#fff"/><path d="m12.332 4.5c0-0.34766-0.28125-0.62891-0.63281-0.62891-0.34766 0-0.62891 0.28125-0.62891 0.62891s0.28125 0.62891 0.62891 0.62891c0.35156 0 0.63281-0.28125 0.63281-0.62891" fill="#fff"/><path d="m14.129 4.5c0-0.34766-0.28125-0.62891-0.62891-0.62891s-0.62891 0.28125-0.62891 0.62891 0.28125 0.62891 0.62891 0.62891 0.62891-0.28125 0.62891-0.62891" fill="#fff"/><path d="m15.93 4.5c0-0.34766-0.28125-0.62891-0.62891-0.62891-0.34766 0-0.62891 0.28125-0.62891 0.62891s0.28125 0.62891 0.62891 0.62891c0.34766 0 0.62891-0.28125 0.62891-0.62891" fill="#fff"/><path d="m17.73 4.5c0-0.34766-0.28125-0.62891-0.62891-0.62891-0.34766 0-0.63281 0.28125-0.63281 0.62891s0.28516 0.62891 0.63281 0.62891c0.34766 0 0.62891-0.28125 0.62891-0.62891" fill="#fff"/><path d="m1.5312 2.6992c0-0.34766-0.28125-0.62891-0.63281-0.62891-0.34766 0-0.62891 0.28125-0.62891 0.62891s0.28125 0.62891 0.62891 0.62891c0.35156 0 0.63281-0.28125 0.63281-0.62891" fill="#fff"/><path d="m3.3281 2.6992c0-0.34766-0.28125-0.62891-0.62891-0.62891s-0.62891 0.28125-0.62891 0.62891 0.28125 0.62891 0.62891 0.62891 0.62891-0.28125 0.62891-0.62891" fill="#fff"/><path d="m5.1289 2.6992c0-0.34766-0.28125-0.62891-0.62891-0.62891s-0.62891 0.28125-0.62891 0.62891 0.28125 0.62891 0.62891 0.62891 0.62891-0.28125 0.62891-0.62891" fill="#fff"/><path d="m6.9297 2.6992c0-0.34766-0.28125-0.62891-0.62891-0.62891-0.34766 0-0.62891 0.28125-0.62891 0.62891s0.28125 0.62891 0.62891 0.62891c0.34766 0 0.62891-0.28125 0.62891-0.62891" fill="#fff"/><path d="m8.7305 2.6992c0-0.34766-0.28125-0.62891-0.62891-0.62891-0.34766 0-0.62891 0.28125-0.62891 0.62891s0.28125 0.62891 0.62891 0.62891c0.34766 0 0.62891-0.28125 0.62891-0.62891" fill="#fff"/><path d="m10.531 2.6992c0-0.34766-0.28125-0.62891-0.63281-0.62891-0.34766 0-0.62891 0.28125-0.62891 0.62891s0.28125 0.62891 0.62891 0.62891c0.35156 0 0.63281-0.28125 0.63281-0.62891" fill="#fff"/><path d="m12.332 2.6992c0-0.34766-0.28125-0.62891-0.63281-0.62891-0.34766 0-0.62891 0.28125-0.62891 0.62891s0.28125 0.62891 0.62891 0.62891c0.35156 0 0.63281-0.28125 0.63281-0.62891" fill="#fff"/><path d="m14.129 2.6992c0-0.34766-0.28125-0.62891-0.62891-0.62891s-0.62891 0.28125-0.62891 0.62891 0.28125 0.62891 0.62891 0.62891 0.62891-0.28125 0.62891-0.62891" fill="#fff"/><path d="m15.93 2.6992c0-0.34766-0.28125-0.62891-0.62891-0.62891-0.34766 0-0.62891 0.28125-0.62891 0.62891s0.28125 0.62891 0.62891 0.62891c0.34766 0 0.62891-0.28125 0.62891-0.62891" fill="#fff"/><path d="m17.73 2.6992c0-0.34766-0.28125-0.62891-0.62891-0.62891-0.34766 0-0.63281 0.28125-0.63281 0.62891s0.28516 0.62891 0.63281 0.62891c0.34766 0 0.62891-0.28125 0.62891-0.62891" fill="#fff"/><path d="m1.5312 0.89844c0-0.34766-0.28125-0.62891-0.63281-0.62891-0.34766 0-0.62891 0.28125-0.62891 0.62891 0 0.35156 0.28125 0.63281 0.62891 0.63281 0.35156 0 0.63281-0.28125 0.63281-0.63281" fill="#fff"/><path d="m3.3281 0.89844c0-0.34766-0.28125-0.62891-0.62891-0.62891s-0.62891 0.28125-0.62891 0.62891c0 0.35156 0.28125 0.63281 0.62891 0.63281s0.62891-0.28125 0.62891-0.63281" fill="#fff"/><path d="m5.1289 0.89844c0-0.34766-0.28125-0.62891-0.62891-0.62891s-0.62891 0.28125-0.62891 0.62891c0 0.35156 0.28125 0.63281 0.62891 0.63281s0.62891-0.28125 0.62891-0.63281" fill="#fff"/><path d="m6.9297 0.89844c0-0.34766-0.28125-0.62891-0.62891-0.62891-0.34766 0-0.62891 0.28125-0.62891 0.62891 0 0.35156 0.28125 0.63281 0.62891 0.63281 0.34766 0 0.62891-0.28125 0.62891-0.63281" fill="#fff"/><path d="m8.7305 0.89844c0-0.34766-0.28125-0.62891-0.62891-0.62891-0.34766 0-0.62891 0.28125-0.62891 0.62891 0 0.35156 0.28125 0.63281 0.62891 0.63281 0.34766 0 0.62891-0.28125 0.62891-0.63281" fill="#fff"/><path d="m10.531 0.89844c0-0.34766-0.28125-0.62891-0.63281-0.62891-0.34766 0-0.62891 0.28125-0.62891 0.62891 0 0.35156 0.28125 0.63281 0.62891 0.63281 0.35156 0 0.63281-0.28125 0.63281-0.63281" fill="#fff"/><path d="m12.332 0.89844c0-0.34766-0.28125-0.62891-0.63281-0.62891-0.34766 0-0.62891 0.28125-0.62891 0.62891 0 0.35156 0.28125 0.63281 0.62891 0.63281 0.35156 0 0.63281-0.28125 0.63281-0.63281" fill="#fff"/><path d="m14.129 0.89844c0-0.34766-0.28125-0.62891-0.62891-0.62891s-0.62891 0.28125-0.62891 0.62891c0 0.35156 0.28125 0.63281 0.62891 0.63281s0.62891-0.28125 0.62891-0.63281" fill="#fff"/><path d="m15.93 0.89844c0-0.34766-0.28125-0.62891-0.62891-0.62891-0.34766 0-0.62891 0.28125-0.62891 0.62891 0 0.35156 0.28125 0.63281 0.62891 0.63281 0.34766 0 0.62891-0.28125 0.62891-0.63281" fill="#fff"/><path d="m17.73 0.89844c0-0.34766-0.28125-0.62891-0.62891-0.62891-0.34766 0-0.63281 0.28125-0.63281 0.62891 0 0.35156 0.28516 0.63281 0.63281 0.63281 0.34766 0 0.62891-0.28125 0.62891-0.63281" fill="#fff"/></g><pattern id="f" width="18" height="18" patternTransform="matrix(.95985 0 0 -.95985 1.9775 785.48)" patternUnits="userSpaceOnUse"><use xlink:href="#b"/></pattern><clipPath id="s"><path d="m360 128h15v18h-15z"/></clipPath><clipPath id="r"><path d="m363.8 133.75c0 1.2266 1.4141 2.1094 3.5898 2.1094 2 0 3.4102-0.88281 3.4102-2.1094 0-1.2305-1.4102-2.1094-3.4688-2.1094-2.1211 0-3.5312 0.82031-3.5312 2.1094m-0.58984 12.184v-3.043h0.29688c1.707 0 2.9414-0.29297 4.1133-0.9375 1.5312-0.87891 2.4102-1.8789 3.2383-3.6953-1.4727 0.47265-2.4141 0.58984-3.7695 0.58984-3.6484 0-6.293-2.168-6.293-5.0976 4e-3 -2.9883 2.6523-5.0938 6.418-5.0938 2.0586 0 3.8281 0.64453 5.1172 1.7578 1.4141 1.2266 2 2.8672 2 5.0938 0 3.5156-1.5273 6.6211-4.4102 8.5508-1.8828 1.3516-3.8281 1.875-6.7109 1.875"/></clipPath><clipPath id="q"><rect width="18" height="18"/></clipPath><g id="a" clip-path="url(#q)"><rect width="18" height="18" fill="#211e1e"/><path d="m1.5312 17.098c0-0.34766-0.28125-0.62891-0.63281-0.62891-0.34766 0-0.62891 0.28125-0.62891 0.62891 0 0.35156 0.28125 0.63281 0.62891 0.63281 0.35156 0 0.63281-0.28125 0.63281-0.63281" fill="#fff"/><path d="m3.3281 17.098c0-0.34766-0.28125-0.62891-0.62891-0.62891s-0.62891 0.28125-0.62891 0.62891c0 0.35156 0.28125 0.63281 0.62891 0.63281s0.62891-0.28125 0.62891-0.63281" fill="#fff"/><path d="m5.1289 17.098c0-0.34766-0.28125-0.62891-0.62891-0.62891s-0.62891 0.28125-0.62891 0.62891c0 0.35156 0.28125 0.63281 0.62891 0.63281s0.62891-0.28125 0.62891-0.63281" fill="#fff"/><path d="m6.9297 17.098c0-0.34766-0.28125-0.62891-0.62891-0.62891-0.34766 0-0.62891 0.28125-0.62891 0.62891 0 0.35156 0.28125 0.63281 0.62891 0.63281 0.34766 0 0.62891-0.28125 0.62891-0.63281" fill="#fff"/><path d="m8.7305 17.098c0-0.34766-0.28125-0.62891-0.62891-0.62891-0.34766 0-0.62891 0.28125-0.62891 0.62891 0 0.35156 0.28125 0.63281 0.62891 0.63281 0.34766 0 0.62891-0.28125 0.62891-0.63281" fill="#fff"/><path d="m10.531 17.098c0-0.34766-0.28125-0.62891-0.63281-0.62891-0.34766 0-0.62891 0.28125-0.62891 0.62891 0 0.35156 0.28125 0.63281 0.62891 0.63281 0.35156 0 0.63281-0.28125 0.63281-0.63281" fill="#fff"/><path d="m12.332 17.098c0-0.34766-0.28125-0.62891-0.63281-0.62891-0.34766 0-0.62891 0.28125-0.62891 0.62891 0 0.35156 0.28125 0.63281 0.62891 0.63281 0.35156 0 0.63281-0.28125 0.63281-0.63281" fill="#fff"/><path d="m14.129 17.098c0-0.34766-0.28125-0.62891-0.62891-0.62891s-0.62891 0.28125-0.62891 0.62891c0 0.35156 0.28125 0.63281 0.62891 0.63281s0.62891-0.28125 0.62891-0.63281" fill="#fff"/><path d="m15.93 17.098c0-0.34766-0.28125-0.62891-0.62891-0.62891-0.34766 0-0.62891 0.28125-0.62891 0.62891 0 0.35156 0.28125 0.63281 0.62891 0.63281 0.34766 0 0.62891-0.28125 0.62891-0.63281" fill="#fff"/><path d="m17.73 17.098c0-0.34766-0.28125-0.62891-0.62891-0.62891-0.34766 0-0.63281 0.28125-0.63281 0.62891 0 0.35156 0.28516 0.63281 0.63281 0.63281 0.34766 0 0.62891-0.28125 0.62891-0.63281" fill="#fff"/><path d="m1.5312 15.301c0-0.34766-0.28125-0.63281-0.63281-0.63281-0.34766 0-0.62891 0.28516-0.62891 0.63281 0 0.34766 0.28125 0.62891 0.62891 0.62891 0.35156 0 0.63281-0.28125 0.63281-0.62891" fill="#fff"/><path d="m3.3281 15.301c0-0.34766-0.28125-0.63281-0.62891-0.63281s-0.62891 0.28516-0.62891 0.63281c0 0.34766 0.28125 0.62891 0.62891 0.62891s0.62891-0.28125 0.62891-0.62891" fill="#fff"/><path d="m5.1289 15.301c0-0.34766-0.28125-0.63281-0.62891-0.63281s-0.62891 0.28516-0.62891 0.63281c0 0.34766 0.28125 0.62891 0.62891 0.62891s0.62891-0.28125 0.62891-0.62891" fill="#fff"/><path d="m6.9297 15.301c0-0.34766-0.28125-0.63281-0.62891-0.63281-0.34766 0-0.62891 0.28516-0.62891 0.63281 0 0.34766 0.28125 0.62891 0.62891 0.62891 0.34766 0 0.62891-0.28125 0.62891-0.62891" fill="#fff"/><path d="m8.7305 15.301c0-0.34766-0.28125-0.63281-0.62891-0.63281-0.34766 0-0.62891 0.28516-0.62891 0.63281 0 0.34766 0.28125 0.62891 0.62891 0.62891 0.34766 0 0.62891-0.28125 0.62891-0.62891" fill="#fff"/><path d="m10.531 15.301c0-0.34766-0.28125-0.63281-0.63281-0.63281-0.34766 0-0.62891 0.28516-0.62891 0.63281 0 0.34766 0.28125 0.62891 0.62891 0.62891 0.35156 0 0.63281-0.28125 0.63281-0.62891" fill="#fff"/><path d="m12.332 15.301c0-0.34766-0.28125-0.63281-0.63281-0.63281-0.34766 0-0.62891 0.28516-0.62891 0.63281 0 0.34766 0.28125 0.62891 0.62891 0.62891 0.35156 0 0.63281-0.28125 0.63281-0.62891" fill="#fff"/><path d="m14.129 15.301c0-0.34766-0.28125-0.63281-0.62891-0.63281s-0.62891 0.28516-0.62891 0.63281c0 0.34766 0.28125 0.62891 0.62891 0.62891s0.62891-0.28125 0.62891-0.62891" fill="#fff"/><path d="m15.93 15.301c0-0.34766-0.28125-0.63281-0.62891-0.63281-0.34766 0-0.62891 0.28516-0.62891 0.63281 0 0.34766 0.28125 0.62891 0.62891 0.62891 0.34766 0 0.62891-0.28125 0.62891-0.62891" fill="#fff"/><path d="m17.73 15.301c0-0.34766-0.28125-0.63281-0.62891-0.63281-0.34766 0-0.63281 0.28516-0.63281 0.63281 0 0.34766 0.28516 0.62891 0.63281 0.62891 0.34766 0 0.62891-0.28125 0.62891-0.62891" fill="#fff"/><path d="m1.5312 13.5c0-0.34766-0.28125-0.62891-0.63281-0.62891-0.34766 0-0.62891 0.28125-0.62891 0.62891s0.28125 0.62891 0.62891 0.62891c0.35156 0 0.63281-0.28125 0.63281-0.62891" fill="#fff"/><path d="m3.3281 13.5c0-0.34766-0.28125-0.62891-0.62891-0.62891s-0.62891 0.28125-0.62891 0.62891 0.28125 0.62891 0.62891 0.62891 0.62891-0.28125 0.62891-0.62891" fill="#fff"/><path d="m5.1289 13.5c0-0.34766-0.28125-0.62891-0.62891-0.62891s-0.62891 0.28125-0.62891 0.62891 0.28125 0.62891 0.62891 0.62891 0.62891-0.28125 0.62891-0.62891" fill="#fff"/><path d="m6.9297 13.5c0-0.34766-0.28125-0.62891-0.62891-0.62891-0.34766 0-0.62891 0.28125-0.62891 0.62891s0.28125 0.62891 0.62891 0.62891c0.34766 0 0.62891-0.28125 0.62891-0.62891" fill="#fff"/><path d="m8.7305 13.5c0-0.34766-0.28125-0.62891-0.62891-0.62891-0.34766 0-0.62891 0.28125-0.62891 0.62891s0.28125 0.62891 0.62891 0.62891c0.34766 0 0.62891-0.28125 0.62891-0.62891" fill="#fff"/><path d="m10.531 13.5c0-0.34766-0.28125-0.62891-0.63281-0.62891-0.34766 0-0.62891 0.28125-0.62891 0.62891s0.28125 0.62891 0.62891 0.62891c0.35156 0 0.63281-0.28125 0.63281-0.62891" fill="#fff"/><path d="m12.332 13.5c0-0.34766-0.28125-0.62891-0.63281-0.62891-0.34766 0-0.62891 0.28125-0.62891 0.62891s0.28125 0.62891 0.62891 0.62891c0.35156 0 0.63281-0.28125 0.63281-0.62891" fill="#fff"/><path d="m14.129 13.5c0-0.34766-0.28125-0.62891-0.62891-0.62891s-0.62891 0.28125-0.62891 0.62891 0.28125 0.62891 0.62891 0.62891 0.62891-0.28125 0.62891-0.62891" fill="#fff"/><path d="m15.93 13.5c0-0.34766-0.28125-0.62891-0.62891-0.62891-0.34766 0-0.62891 0.28125-0.62891 0.62891s0.28125 0.62891 0.62891 0.62891c0.34766 0 0.62891-0.28125 0.62891-0.62891" fill="#fff"/><path d="m17.73 13.5c0-0.34766-0.28125-0.62891-0.62891-0.62891-0.34766 0-0.63281 0.28125-0.63281 0.62891s0.28516 0.62891 0.63281 0.62891c0.34766 0 0.62891-0.28125 0.62891-0.62891" fill="#fff"/><path d="m1.5312 11.699c0-0.34766-0.28125-0.62891-0.63281-0.62891-0.34766 0-0.62891 0.28125-0.62891 0.62891 0 0.35156 0.28125 0.62891 0.62891 0.62891 0.35156 0 0.63281-0.27734 0.63281-0.62891" fill="#fff"/><path d="m3.3281 11.699c0-0.34766-0.28125-0.62891-0.62891-0.62891s-0.62891 0.28125-0.62891 0.62891c0 0.35156 0.28125 0.62891 0.62891 0.62891s0.62891-0.27734 0.62891-0.62891" fill="#fff"/><path d="m5.1289 11.699c0-0.34766-0.28125-0.62891-0.62891-0.62891s-0.62891 0.28125-0.62891 0.62891c0 0.35156 0.28125 0.62891 0.62891 0.62891s0.62891-0.27734 0.62891-0.62891" fill="#fff"/><path d="m6.9297 11.699c0-0.34766-0.28125-0.62891-0.62891-0.62891-0.34766 0-0.62891 0.28125-0.62891 0.62891 0 0.35156 0.28125 0.62891 0.62891 0.62891 0.34766 0 0.62891-0.27734 0.62891-0.62891" fill="#fff"/><path d="m8.7305 11.699c0-0.34766-0.28125-0.62891-0.62891-0.62891-0.34766 0-0.62891 0.28125-0.62891 0.62891 0 0.35156 0.28125 0.62891 0.62891 0.62891 0.34766 0 0.62891-0.27734 0.62891-0.62891" fill="#fff"/><path d="m10.531 11.699c0-0.34766-0.28125-0.62891-0.63281-0.62891-0.34766 0-0.62891 0.28125-0.62891 0.62891 0 0.35156 0.28125 0.62891 0.62891 0.62891 0.35156 0 0.63281-0.27734 0.63281-0.62891" fill="#fff"/><path d="m12.332 11.699c0-0.34766-0.28125-0.62891-0.63281-0.62891-0.34766 0-0.62891 0.28125-0.62891 0.62891 0 0.35156 0.28125 0.62891 0.62891 0.62891 0.35156 0 0.63281-0.27734 0.63281-0.62891" fill="#fff"/><path d="m14.129 11.699c0-0.34766-0.28125-0.62891-0.62891-0.62891s-0.62891 0.28125-0.62891 0.62891c0 0.35156 0.28125 0.62891 0.62891 0.62891s0.62891-0.27734 0.62891-0.62891" fill="#fff"/><path d="m15.93 11.699c0-0.34766-0.28125-0.62891-0.62891-0.62891-0.34766 0-0.62891 0.28125-0.62891 0.62891 0 0.35156 0.28125 0.62891 0.62891 0.62891 0.34766 0 0.62891-0.27734 0.62891-0.62891" fill="#fff"/><path d="m17.73 11.699c0-0.34766-0.28125-0.62891-0.62891-0.62891-0.34766 0-0.63281 0.28125-0.63281 0.62891 0 0.35156 0.28516 0.62891 0.63281 0.62891 0.34766 0 0.62891-0.27734 0.62891-0.62891" fill="#fff"/><path d="m1.5312 9.8984c0-0.34766-0.28125-0.62891-0.63281-0.62891-0.34766 0-0.62891 0.28125-0.62891 0.62891 0 0.35156 0.28125 0.62891 0.62891 0.62891 0.35156 0 0.63281-0.27734 0.63281-0.62891" fill="#fff"/><path d="m3.3281 9.8984c0-0.34766-0.28125-0.62891-0.62891-0.62891s-0.62891 0.28125-0.62891 0.62891c0 0.35156 0.28125 0.62891 0.62891 0.62891s0.62891-0.27734 0.62891-0.62891" fill="#fff"/><path d="m5.1289 9.8984c0-0.34766-0.28125-0.62891-0.62891-0.62891s-0.62891 0.28125-0.62891 0.62891c0 0.35156 0.28125 0.62891 0.62891 0.62891s0.62891-0.27734 0.62891-0.62891" fill="#fff"/><path d="m6.9297 9.8984c0-0.34766-0.28125-0.62891-0.62891-0.62891-0.34766 0-0.62891 0.28125-0.62891 0.62891 0 0.35156 0.28125 0.62891 0.62891 0.62891 0.34766 0 0.62891-0.27734 0.62891-0.62891" fill="#fff"/><path d="m8.7305 9.8984c0-0.34766-0.28125-0.62891-0.62891-0.62891-0.34766 0-0.62891 0.28125-0.62891 0.62891 0 0.35156 0.28125 0.62891 0.62891 0.62891 0.34766 0 0.62891-0.27734 0.62891-0.62891" fill="#fff"/><path d="m10.531 9.8984c0-0.34766-0.28125-0.62891-0.63281-0.62891-0.34766 0-0.62891 0.28125-0.62891 0.62891 0 0.35156 0.28125 0.62891 0.62891 0.62891 0.35156 0 0.63281-0.27734 0.63281-0.62891" fill="#fff"/><path d="m12.332 9.8984c0-0.34766-0.28125-0.62891-0.63281-0.62891-0.34766 0-0.62891 0.28125-0.62891 0.62891 0 0.35156 0.28125 0.62891 0.62891 0.62891 0.35156 0 0.63281-0.27734 0.63281-0.62891" fill="#fff"/><path d="m14.129 9.8984c0-0.34766-0.28125-0.62891-0.62891-0.62891s-0.62891 0.28125-0.62891 0.62891c0 0.35156 0.28125 0.62891 0.62891 0.62891s0.62891-0.27734 0.62891-0.62891" fill="#fff"/><path d="m15.93 9.8984c0-0.34766-0.28125-0.62891-0.62891-0.62891-0.34766 0-0.62891 0.28125-0.62891 0.62891 0 0.35156 0.28125 0.62891 0.62891 0.62891 0.34766 0 0.62891-0.27734 0.62891-0.62891" fill="#fff"/><path d="m17.73 9.8984c0-0.34766-0.28125-0.62891-0.62891-0.62891-0.34766 0-0.63281 0.28125-0.63281 0.62891 0 0.35156 0.28516 0.62891 0.63281 0.62891 0.34766 0 0.62891-0.27734 0.62891-0.62891" fill="#fff"/><path d="m1.5312 8.1016c0-0.35156-0.28125-0.63281-0.63281-0.63281-0.34766 0-0.62891 0.28125-0.62891 0.63281 0 0.34766 0.28125 0.62891 0.62891 0.62891 0.35156 0 0.63281-0.28125 0.63281-0.62891" fill="#fff"/><path d="m3.3281 8.1016c0-0.35156-0.28125-0.63281-0.62891-0.63281s-0.62891 0.28125-0.62891 0.63281c0 0.34766 0.28125 0.62891 0.62891 0.62891s0.62891-0.28125 0.62891-0.62891" fill="#fff"/><path d="m5.1289 8.1016c0-0.35156-0.28125-0.63281-0.62891-0.63281s-0.62891 0.28125-0.62891 0.63281c0 0.34766 0.28125 0.62891 0.62891 0.62891s0.62891-0.28125 0.62891-0.62891" fill="#fff"/><path d="m6.9297 8.1016c0-0.35156-0.28125-0.63281-0.62891-0.63281-0.34766 0-0.62891 0.28125-0.62891 0.63281 0 0.34766 0.28125 0.62891 0.62891 0.62891 0.34766 0 0.62891-0.28125 0.62891-0.62891" fill="#fff"/><path d="m8.7305 8.1016c0-0.35156-0.28125-0.63281-0.62891-0.63281-0.34766 0-0.62891 0.28125-0.62891 0.63281 0 0.34766 0.28125 0.62891 0.62891 0.62891 0.34766 0 0.62891-0.28125 0.62891-0.62891" fill="#fff"/><path d="m10.531 8.1016c0-0.35156-0.28125-0.63281-0.63281-0.63281-0.34766 0-0.62891 0.28125-0.62891 0.63281 0 0.34766 0.28125 0.62891 0.62891 0.62891 0.35156 0 0.63281-0.28125 0.63281-0.62891" fill="#fff"/><path d="m12.332 8.1016c0-0.35156-0.28125-0.63281-0.63281-0.63281-0.34766 0-0.62891 0.28125-0.62891 0.63281 0 0.34766 0.28125 0.62891 0.62891 0.62891 0.35156 0 0.63281-0.28125 0.63281-0.62891" fill="#fff"/><path d="m14.129 8.1016c0-0.35156-0.28125-0.63281-0.62891-0.63281s-0.62891 0.28125-0.62891 0.63281c0 0.34766 0.28125 0.62891 0.62891 0.62891s0.62891-0.28125 0.62891-0.62891" fill="#fff"/><path d="m15.93 8.1016c0-0.35156-0.28125-0.63281-0.62891-0.63281-0.34766 0-0.62891 0.28125-0.62891 0.63281 0 0.34766 0.28125 0.62891 0.62891 0.62891 0.34766 0 0.62891-0.28125 0.62891-0.62891" fill="#fff"/><path d="m17.73 8.1016c0-0.35156-0.28125-0.63281-0.62891-0.63281-0.34766 0-0.63281 0.28125-0.63281 0.63281 0 0.34766 0.28516 0.62891 0.63281 0.62891 0.34766 0 0.62891-0.28125 0.62891-0.62891" fill="#fff"/><path d="m1.5312 6.3008c0-0.35156-0.28125-0.62891-0.63281-0.62891-0.34766 0-0.62891 0.27734-0.62891 0.62891 0 0.34766 0.28125 0.62891 0.62891 0.62891 0.35156 0 0.63281-0.28125 0.63281-0.62891" fill="#fff"/><path d="m3.3281 6.3008c0-0.35156-0.28125-0.62891-0.62891-0.62891s-0.62891 0.27734-0.62891 0.62891c0 0.34766 0.28125 0.62891 0.62891 0.62891s0.62891-0.28125 0.62891-0.62891" fill="#fff"/><path d="m5.1289 6.3008c0-0.35156-0.28125-0.62891-0.62891-0.62891s-0.62891 0.27734-0.62891 0.62891c0 0.34766 0.28125 0.62891 0.62891 0.62891s0.62891-0.28125 0.62891-0.62891" fill="#fff"/><path d="m6.9297 6.3008c0-0.35156-0.28125-0.62891-0.62891-0.62891-0.34766 0-0.62891 0.27734-0.62891 0.62891 0 0.34766 0.28125 0.62891 0.62891 0.62891 0.34766 0 0.62891-0.28125 0.62891-0.62891" fill="#fff"/><path d="m8.7305 6.3008c0-0.35156-0.28125-0.62891-0.62891-0.62891-0.34766 0-0.62891 0.27734-0.62891 0.62891 0 0.34766 0.28125 0.62891 0.62891 0.62891 0.34766 0 0.62891-0.28125 0.62891-0.62891" fill="#fff"/><path d="m10.531 6.3008c0-0.35156-0.28125-0.62891-0.63281-0.62891-0.34766 0-0.62891 0.27734-0.62891 0.62891 0 0.34766 0.28125 0.62891 0.62891 0.62891 0.35156 0 0.63281-0.28125 0.63281-0.62891" fill="#fff"/><path d="m12.332 6.3008c0-0.35156-0.28125-0.62891-0.63281-0.62891-0.34766 0-0.62891 0.27734-0.62891 0.62891 0 0.34766 0.28125 0.62891 0.62891 0.62891 0.35156 0 0.63281-0.28125 0.63281-0.62891" fill="#fff"/><path d="m14.129 6.3008c0-0.35156-0.28125-0.62891-0.62891-0.62891s-0.62891 0.27734-0.62891 0.62891c0 0.34766 0.28125 0.62891 0.62891 0.62891s0.62891-0.28125 0.62891-0.62891" fill="#fff"/><path d="m15.93 6.3008c0-0.35156-0.28125-0.62891-0.62891-0.62891-0.34766 0-0.62891 0.27734-0.62891 0.62891 0 0.34766 0.28125 0.62891 0.62891 0.62891 0.34766 0 0.62891-0.28125 0.62891-0.62891" fill="#fff"/><path d="m17.73 6.3008c0-0.35156-0.28125-0.62891-0.62891-0.62891-0.34766 0-0.63281 0.27734-0.63281 0.62891 0 0.34766 0.28516 0.62891 0.63281 0.62891 0.34766 0 0.62891-0.28125 0.62891-0.62891" fill="#fff"/><path d="m1.5312 4.5c0-0.34766-0.28125-0.62891-0.63281-0.62891-0.34766 0-0.62891 0.28125-0.62891 0.62891s0.28125 0.62891 0.62891 0.62891c0.35156 0 0.63281-0.28125 0.63281-0.62891" fill="#fff"/><path d="m3.3281 4.5c0-0.34766-0.28125-0.62891-0.62891-0.62891s-0.62891 0.28125-0.62891 0.62891 0.28125 0.62891 0.62891 0.62891 0.62891-0.28125 0.62891-0.62891" fill="#fff"/><path d="m5.1289 4.5c0-0.34766-0.28125-0.62891-0.62891-0.62891s-0.62891 0.28125-0.62891 0.62891 0.28125 0.62891 0.62891 0.62891 0.62891-0.28125 0.62891-0.62891" fill="#fff"/><path d="m6.9297 4.5c0-0.34766-0.28125-0.62891-0.62891-0.62891-0.34766 0-0.62891 0.28125-0.62891 0.62891s0.28125 0.62891 0.62891 0.62891c0.34766 0 0.62891-0.28125 0.62891-0.62891" fill="#fff"/><path d="m8.7305 4.5c0-0.34766-0.28125-0.62891-0.62891-0.62891-0.34766 0-0.62891 0.28125-0.62891 0.62891s0.28125 0.62891 0.62891 0.62891c0.34766 0 0.62891-0.28125 0.62891-0.62891" fill="#fff"/><path d="m10.531 4.5c0-0.34766-0.28125-0.62891-0.63281-0.62891-0.34766 0-0.62891 0.28125-0.62891 0.62891s0.28125 0.62891 0.62891 0.62891c0.35156 0 0.63281-0.28125 0.63281-0.62891" fill="#fff"/><path d="m12.332 4.5c0-0.34766-0.28125-0.62891-0.63281-0.62891-0.34766 0-0.62891 0.28125-0.62891 0.62891s0.28125 0.62891 0.62891 0.62891c0.35156 0 0.63281-0.28125 0.63281-0.62891" fill="#fff"/><path d="m14.129 4.5c0-0.34766-0.28125-0.62891-0.62891-0.62891s-0.62891 0.28125-0.62891 0.62891 0.28125 0.62891 0.62891 0.62891 0.62891-0.28125 0.62891-0.62891" fill="#fff"/><path d="m15.93 4.5c0-0.34766-0.28125-0.62891-0.62891-0.62891-0.34766 0-0.62891 0.28125-0.62891 0.62891s0.28125 0.62891 0.62891 0.62891c0.34766 0 0.62891-0.28125 0.62891-0.62891" fill="#fff"/><path d="m17.73 4.5c0-0.34766-0.28125-0.62891-0.62891-0.62891-0.34766 0-0.63281 0.28125-0.63281 0.62891s0.28516 0.62891 0.63281 0.62891c0.34766 0 0.62891-0.28125 0.62891-0.62891" fill="#fff"/><path d="m1.5312 2.6992c0-0.34766-0.28125-0.62891-0.63281-0.62891-0.34766 0-0.62891 0.28125-0.62891 0.62891s0.28125 0.62891 0.62891 0.62891c0.35156 0 0.63281-0.28125 0.63281-0.62891" fill="#fff"/><path d="m3.3281 2.6992c0-0.34766-0.28125-0.62891-0.62891-0.62891s-0.62891 0.28125-0.62891 0.62891 0.28125 0.62891 0.62891 0.62891 0.62891-0.28125 0.62891-0.62891" fill="#fff"/><path d="m5.1289 2.6992c0-0.34766-0.28125-0.62891-0.62891-0.62891s-0.62891 0.28125-0.62891 0.62891 0.28125 0.62891 0.62891 0.62891 0.62891-0.28125 0.62891-0.62891" fill="#fff"/><path d="m6.9297 2.6992c0-0.34766-0.28125-0.62891-0.62891-0.62891-0.34766 0-0.62891 0.28125-0.62891 0.62891s0.28125 0.62891 0.62891 0.62891c0.34766 0 0.62891-0.28125 0.62891-0.62891" fill="#fff"/><path d="m8.7305 2.6992c0-0.34766-0.28125-0.62891-0.62891-0.62891-0.34766 0-0.62891 0.28125-0.62891 0.62891s0.28125 0.62891 0.62891 0.62891c0.34766 0 0.62891-0.28125 0.62891-0.62891" fill="#fff"/><path d="m10.531 2.6992c0-0.34766-0.28125-0.62891-0.63281-0.62891-0.34766 0-0.62891 0.28125-0.62891 0.62891s0.28125 0.62891 0.62891 0.62891c0.35156 0 0.63281-0.28125 0.63281-0.62891" fill="#fff"/><path d="m12.332 2.6992c0-0.34766-0.28125-0.62891-0.63281-0.62891-0.34766 0-0.62891 0.28125-0.62891 0.62891s0.28125 0.62891 0.62891 0.62891c0.35156 0 0.63281-0.28125 0.63281-0.62891" fill="#fff"/><path d="m14.129 2.6992c0-0.34766-0.28125-0.62891-0.62891-0.62891s-0.62891 0.28125-0.62891 0.62891 0.28125 0.62891 0.62891 0.62891 0.62891-0.28125 0.62891-0.62891" fill="#fff"/><path d="m15.93 2.6992c0-0.34766-0.28125-0.62891-0.62891-0.62891-0.34766 0-0.62891 0.28125-0.62891 0.62891s0.28125 0.62891 0.62891 0.62891c0.34766 0 0.62891-0.28125 0.62891-0.62891" fill="#fff"/><path d="m17.73 2.6992c0-0.34766-0.28125-0.62891-0.62891-0.62891-0.34766 0-0.63281 0.28125-0.63281 0.62891s0.28516 0.62891 0.63281 0.62891c0.34766 0 0.62891-0.28125 0.62891-0.62891" fill="#fff"/><path d="m1.5312 0.89844c0-0.34766-0.28125-0.62891-0.63281-0.62891-0.34766 0-0.62891 0.28125-0.62891 0.62891 0 0.35156 0.28125 0.63281 0.62891 0.63281 0.35156 0 0.63281-0.28125 0.63281-0.63281" fill="#fff"/><path d="m3.3281 0.89844c0-0.34766-0.28125-0.62891-0.62891-0.62891s-0.62891 0.28125-0.62891 0.62891c0 0.35156 0.28125 0.63281 0.62891 0.63281s0.62891-0.28125 0.62891-0.63281" fill="#fff"/><path d="m5.1289 0.89844c0-0.34766-0.28125-0.62891-0.62891-0.62891s-0.62891 0.28125-0.62891 0.62891c0 0.35156 0.28125 0.63281 0.62891 0.63281s0.62891-0.28125 0.62891-0.63281" fill="#fff"/><path d="m6.9297 0.89844c0-0.34766-0.28125-0.62891-0.62891-0.62891-0.34766 0-0.62891 0.28125-0.62891 0.62891 0 0.35156 0.28125 0.63281 0.62891 0.63281 0.34766 0 0.62891-0.28125 0.62891-0.63281" fill="#fff"/><path d="m8.7305 0.89844c0-0.34766-0.28125-0.62891-0.62891-0.62891-0.34766 0-0.62891 0.28125-0.62891 0.62891 0 0.35156 0.28125 0.63281 0.62891 0.63281 0.34766 0 0.62891-0.28125 0.62891-0.63281" fill="#fff"/><path d="m10.531 0.89844c0-0.34766-0.28125-0.62891-0.63281-0.62891-0.34766 0-0.62891 0.28125-0.62891 0.62891 0 0.35156 0.28125 0.63281 0.62891 0.63281 0.35156 0 0.63281-0.28125 0.63281-0.63281" fill="#fff"/><path d="m12.332 0.89844c0-0.34766-0.28125-0.62891-0.63281-0.62891-0.34766 0-0.62891 0.28125-0.62891 0.62891 0 0.35156 0.28125 0.63281 0.62891 0.63281 0.35156 0 0.63281-0.28125 0.63281-0.63281" fill="#fff"/><path d="m14.129 0.89844c0-0.34766-0.28125-0.62891-0.62891-0.62891s-0.62891 0.28125-0.62891 0.62891c0 0.35156 0.28125 0.63281 0.62891 0.63281s0.62891-0.28125 0.62891-0.63281" fill="#fff"/><path d="m15.93 0.89844c0-0.34766-0.28125-0.62891-0.62891-0.62891-0.34766 0-0.62891 0.28125-0.62891 0.62891 0 0.35156 0.28125 0.63281 0.62891 0.63281 0.34766 0 0.62891-0.28125 0.62891-0.63281" fill="#fff"/><path d="m17.73 0.89844c0-0.34766-0.28125-0.62891-0.62891-0.62891-0.34766 0-0.63281 0.28125-0.63281 0.62891 0 0.35156 0.28516 0.63281 0.63281 0.63281 0.34766 0 0.62891-0.28125 0.62891-0.63281" fill="#fff"/></g><pattern id="e" width="18" height="18" patternTransform="matrix(.95985 0 0 -.95985 1.9775 785.48)" patternUnits="userSpaceOnUse"><use xlink:href="#a"/></pattern></defs><g transform="translate(-166.43 -70.09)"><g><path d="m176.4 167.66c-5.4258 0-9.8438-4.418-9.8438-9.8438v-77.762c0-5.4297 4.418-9.8438 9.8438-9.8438h259.2c5.4258 0 9.8438 4.4141 9.8438 9.8438v77.762c0 5.4258-4.418 9.8438-9.8438 9.8438z" fill="#fff"/><path d="m435.6 70.09h-259.2c-5.4961 0-9.9688 4.4727-9.9688 9.9688v77.762c0 5.4961 4.4726 9.9688 9.9688 9.9688h259.2c5.5 0 9.9726-4.4726 9.9726-9.9688v-77.762c0-5.4961-4.4726-9.9688-9.9726-9.9688m0 0.25c5.3711 0 9.7226 4.3516 9.7226 9.7188v77.762c0 5.3672-4.3516 9.7188-9.7226 9.7188h-259.2c-5.3672 0-9.7188-4.3516-9.7188-9.7188v-77.762c0-5.3672 4.3516-9.7188 9.7188-9.7188h259.2" fill="#211e1e"/><path d="m435.6 165.38h-259.2c-4.1758 0-7.5586-3.3867-7.5586-7.5586v-77.762c0-4.1758 3.3828-7.5586 7.5586-7.5586h259.2c4.1797 0 7.5625 3.3828 7.5625 7.5586v77.762c0 4.1719-3.3828 7.5586-7.5625 7.5586" fill="#00664c"/></g><g fill="#fff"><path d="m398.12 95.066-3.1953 6.5898-3.1562-6.5898v6.5898h-1.9023v-10.797h1.9023l3.1562 6.4023 3.1953-6.4023h1.9024v10.797h-1.9024z"/><path d="m402.83 90.859h1.9453v10.797h-1.9453z"/><path d="m409.48 94.23v7.4297h-1.8984v-10.801h1.8984l4.9883 7.125v-7.125h1.8633v10.801h-1.6719z"/><path d="m420.43 96.148c-0.8125-0.48438-1.4336-1.2734-1.4336-2.4414 0-1.8086 1.5234-3.0352 3.7305-3.0352 1.5976 0 2.9336 0.53516 4.0352 1.6875l-1.4492 1.3047c-0.68359-0.73047-1.5586-1.0742-2.5859-1.0742-1.1055 0-1.75 0.42188-1.75 1.1133 0 0.61328 0.3789 0.88281 1.7109 1.1914 1.4453 0.30469 2.3984 0.61328 3.0078 0.92188 0.94921 0.5 1.5586 1.5352 1.5586 2.7266 0 1.1133-0.49219 1.9609-1.5195 2.5742-0.76172 0.46094-1.75 0.73047-2.7422 0.73047-1.8633 0-3.2734-0.69141-4.4922-2.1133l1.5625-1.2305c0.80078 0.96094 1.6758 1.3867 2.8906 1.3867 1.3711 0 2.3594-0.61719 2.3594-1.4219 0-1.0273-1.1016-1.1797-2.7852-1.6484-0.48047-0.13281-1.6875-0.42969-2.0977-0.67188"/><path d="m187.57 89.949v3.2695h4.2188c1.1055 0 1.8125-0.65625 1.8125-1.6602 0-0.90625-0.75391-1.6094-1.8125-1.6094zm3.8672 6.1406h-3.8672v5.3867h-2.8203v-14.398h6.8398c1.207 0 1.8086 0.15234 2.6133 0.60547 1.2227 0.72266 2.2188 2.457 2.2188 3.875 0 1.6602-0.85937 3.1719-2.2188 3.9258-0.85547 0.45703-1.457 0.60547-2.7656 0.60547"/><path d="m202.93 96.797c-0.91015 0-1.6172 0.5-1.6172 1.1562s0.85937 1.207 1.8711 1.207c0.0156 0 0.0391 0.0039 0.0508 0.0039 0.62891 0 1.5781-0.25 2.125-0.55469v-1.3594c-0.85937-0.30078-1.8711-0.45312-2.4297-0.45312m2.4297 4.332c-1.0117 0.39843-1.9727 0.5-2.7812 0.5-2.3281 0-3.9961-1.4609-3.9961-3.5273 0-2.1641 1.8711-3.7734 4.3476-3.7734 0.60938 0 1.5703 0.09766 2.4297 0.40234-0.0508-1.0078-0.80859-1.4102-1.8711-1.4102-1.0117 0-1.9727 0.25-2.9844 0.80859l-1.0625-2.2695c1.5664-0.80469 2.6328-1.1055 4.0508-1.1055 2.8828 0 4.6016 1.4102 4.6016 4.332v6.3906h-2.7344z"/><path d="m213.86 87.984 2.8789-1.1055v14.598h-2.8789z"/><path d="m235.51 95.109c0-0.95703-0.86328-1.7109-1.875-1.7109-0.96094 0-1.8242 0.80469-1.8242 1.6094v6.4687h-2.7305v-6.3672c0-0.95703-0.8125-1.7109-1.8242-1.7109s-1.875 0.75391-1.875 1.6602v6.418h-2.8867v-10.547h2.8867v0.55469c1.0117-0.60547 1.7227-0.80469 2.7305-0.80469 1.1172 0 2.0273 0.39844 2.7891 1.207 1.3672-0.95703 2.0274-1.207 3.2422-1.207 2.2266 0 4.2031 1.5078 4.2031 3.5234v7.2734h-2.8359z"/><path d="m245.89 94.781h3.4414c-0.40235-1.0586-0.85938-1.4609-1.668-1.4609-0.76172 0-1.4688 0.50781-1.7734 1.4609m1.9219 4.2812c0.60937 0 1.168-0.35156 1.6211-0.95703l1.9727 1.7109c-1.0625 1.2578-2.1758 1.8125-3.5938 1.8125-2.6797 0-5.0039-2.3672-5.0039-5.4375 0-3.0195 2.2734-5.4375 4.8555-5.4375 1.7188 0 3.2891 1.0547 4.0469 2.7188 0.40625 0.95703 0.60547 1.9648 0.60547 3.2734v0.40234h-6.5742c0.30469 1.207 1.1602 1.9141 2.0703 1.9141"/><path d="m261.35 93.398c-1.2656 0-1.6719 0.75391-1.6719 2.2148v5.8633h-2.8906v-10.547h2.8906v0.50391c0.71094-0.55469 1.3164-0.75391 2.082-0.75391 0.85938 0 1.5195 0.19922 2.2266 0.75391l-0.96093 2.8711c-0.40625-0.65625-1.1172-0.90625-1.6758-0.90625"/><path d="m287.21 95.184h-5.9883v6.293h-2.8398v-14.398h2.8398v5.2383h5.9883v-5.2383h2.8398v14.398h-2.8398z"/><path d="m302.19 101.48-1.3125-5.1836-1.6758 5.1836h-2.7891l-3.0391-10.469h2.9375l1.4688 4.9805 1.4688-4.9805h3.1445l1.2656 4.9297 1.4219-4.9297h2.9883l-3.0898 10.469z"/><path d="m313.86 105.52 1.7656-4.168-4.9688-10.348h3.332l2.8828 6.9805 2.957-6.9805h3.0742l-6.1211 14.531z"/><path d="m398.12 136.11-3.1953 6.5938-3.1562-6.5938v6.5938h-1.9023v-10.801h1.9023l3.1562 6.4062 3.1953-6.4062h1.9024v10.801h-1.9024z"/><path d="m402.83 131.9h1.9453v10.801h-1.9453z"/><path d="m409.48 135.27v7.4297h-1.8984v-10.801h1.8984l4.9883 7.125v-7.125h1.8633v10.801h-1.6719z"/><path d="m420.43 137.19c-0.8125-0.48047-1.4336-1.2734-1.4336-2.4414 0-1.8086 1.5234-3.0352 3.7305-3.0352 1.5976 0 2.9336 0.53515 4.0352 1.6875l-1.4492 1.3047c-0.68359-0.72656-1.5586-1.0742-2.5859-1.0742-1.1055 0-1.75 0.42187-1.75 1.1133 0 0.61328 0.3789 0.88281 1.7109 1.1914 1.4453 0.3086 2.3984 0.61328 3.0078 0.92188 0.94921 0.5 1.5586 1.5391 1.5586 2.7266 0 1.1133-0.49219 1.9609-1.5195 2.5742-0.76172 0.46094-1.75 0.73047-2.7422 0.73047-1.8633 0-3.2734-0.69141-4.4922-2.1133l1.5625-1.2266c0.80078 0.95704 1.6758 1.3828 2.8906 1.3828 1.3711 0 2.3594-0.61719 2.3594-1.4219 0-1.0273-1.1016-1.1758-2.7852-1.6484-0.48047-0.13281-1.6875-0.42578-2.0977-0.67187"/><path d="m204.19 117.86c-4.8125 1.4688-9.7305 1.3711-14.203 0-2.2891 2.8906-3.9531 6.3476-4.7422 10.207-0.33593 1.6445-0.49609 3.2812-0.49609 4.8945 4e-3 11.305 7.9336 21.426 19.441 23.777 11.504-2.3516 19.434-12.473 19.438-23.777 0-1.6133-0.16016-3.25-0.4961-4.8945-0.78906-3.8594-2.4531-7.3164-4.7422-10.207-4.4726 1.3711-9.3906 1.4688-14.199 0"/></g><path d="m221.76 125.96c-0.32031-1.0352-0.71094-2.043-1.168-3.0195-0.68359-1.4609-1.5234-2.8555-2.5-4.1484-2.2148 0.625-4.4961 0.9414-6.7969 0.9414-2.3945 0-4.7852-0.34765-7.1016-1.0312-2.3203 0.6836-4.7109 1.0312-7.1094 1.0312-2.2969 0-4.5781-0.3164-6.793-0.9414-0.97656 1.293-1.8164 2.6875-2.5039 4.1484-0.45313 0.97657-0.84375 1.9844-1.1641 3.0195z" fill="#bf2317"/><path d="m221.99 126.77h-35.605c-0.12891 0.48047-0.2461 0.96875-0.34766 1.457-0.63281 3.1094-0.64062 6.2461-0.0234 9.3281 0.60157 2.9766 1.7578 5.7774 3.4414 8.3242 1.6797 2.5469 3.8008 4.707 6.3047 6.4258 2.5469 1.75 5.3828 2.9648 8.4258 3.6055 3.0469-0.64062 5.8828-1.8555 8.4297-3.6055 2.5039-1.7188 4.625-3.8789 6.3047-6.4258 1.6836-2.5469 2.8398-5.3476 3.4375-8.3242 0.6211-3.082 0.61329-6.2188-0.0195-9.3281-0.10156-0.48828-0.21875-0.97656-0.34765-1.457" fill="#14549c"/><g fill="#fff"><path d="m210.81 122.12-0.30468 1.2422h0.62109zm0.77344 3.0312-0.30469-1.1836h-0.92578l-0.28906 1.1836h-0.62109l1.0781-4.3203h0.60547l1.082 4.3203z"/><path d="m198.29 125.15v-4.3203h2.0391v0.60547h-1.4141v1.0938h0.89844v0.58984h-0.89844v1.4258h1.582v0.60546z"/><path d="m190.9 120.83h0.60547v4.3203h-0.60547z"/><path d="m194.41 125.15-1.332-2.8945v2.8945h-0.61719v-4.3203h0.61719l1.1797 2.5938v-2.5938h0.62109v4.3203z"/><path d="m202.48 121.44h-0.63671v1.0938h0.63671c0.36329 0 0.5586-0.19531 0.5586-0.54687 0-0.33204-0.22656-0.54688-0.5586-0.54688m0.52735 3.7148-0.57422-2.0312h-0.58984v2.0312h-0.61719v-4.3203h1.2852c0.67969 0 1.1328 0.45703 1.1328 1.1524 0 0.51562-0.21094 0.89453-0.6211 1.0469l0.6211 2.1211z"/><path d="m205.4 123.16c-0.1875-0.12109-0.3711-0.24219-0.48438-0.32422-0.35156-0.24219-0.53515-0.57422-0.53515-0.95312 0-0.6211 0.48828-1.1211 1.1133-1.1211 0.60937 0 1.0781 0.46875 1.0938 1.1211h-0.59375c-0.0117-0.30469-0.22657-0.5-0.5-0.5-0.28907 0-0.51953 0.21093-0.51953 0.5 0 0.21093 0.0937 0.33203 0.41406 0.51562 0.83594 0.48438 1.1992 0.95313 1.1992 1.5742 0 0.69922-0.53125 1.2617-1.1992 1.2617-0.76172 0-1.2188-0.64063-1.2188-1.3516h0.60937c0 0.36328 0.1836 0.74218 0.60938 0.74218 0.33203 0 0.60547-0.30078 0.60547-0.65234 0-0.26953-0.10938-0.49609-0.59375-0.8125"/><path d="m196.89 121.41v3.7422h-0.625v-3.7422h-0.78906v-0.57813h2.2031v0.57813z"/><path d="m215.27 125.15v-4.3203h2.0391v0.60547h-1.4141v1.0938h0.89453v0.58984h-0.89453v1.4258h1.5781v0.60546z"/><path d="m213.88 121.41v3.7422h-0.625v-3.7422h-0.78907v-0.57813h2.2031v0.57813z"/><path d="m208.39 121.41v3.7422h-0.625v-3.7422h-0.78906v-0.57813h2.2031v0.57813z"/><path d="m193.97 140.12h4.6211v-6.0859zm7.1914 6.3633h-2.5703v-4.0352h-8.0469v-1.5312l8.0469-10.633h2.5703v9.8359h1.543v2.3281h-1.543z"/><path d="m209.51 134.55c0 0.96485 1.0195 1.7617 2.2734 1.7617 1.25 0 2.2734-0.79687 2.2734-1.7617 0-1.082-1.0234-1.9336-2.2734-1.9336-1.2539 0-2.2734 0.85156-2.2734 1.9336m-0.6289 6.8203c0 1.5352 1.3086 2.7852 2.9023 2.7852 1.6484 0 2.957-1.25 2.957-2.7852 0-1.3633-1.3672-2.4453-2.957-2.4453-1.5938 0-2.9023 1.082-2.9023 2.4453m-2.6133-0.0547c0-1.5352 0.6836-2.7891 1.8789-3.7539-0.79687-0.85156-1.1953-1.8203-1.1953-2.957 0-2.5 2.2188-4.6016 4.832-4.6016s4.8867 2.1055 4.8867 4.6055c0 1.1367-0.45313 2.1016-1.25 2.9531 1.2539 0.96875 1.875 2.2774 1.875 3.7539 0 2.9531-2.5547 5.4531-5.5117 5.4531s-5.5156-2.5-5.5156-5.4531"/><path d="m238.52 142.89h-0.0195c-1.0976 0-2.5469-0.69531-3.2344-1.5547-0.33985-0.41406-0.56641-0.79297-0.83203-1.5117l1.8906-0.49219c0.19141 0.56641 0.37891 0.79297 0.72266 1.0977 0.36328 0.26563 1.0234 0.48828 1.4726 0.49219 0.83594 0 1.5898-0.45313 1.9297-1.0977 0.19141-0.38281 0.26563-0.79687 0.26563-1.4805v-6.4414h1.9297v6.3672c0 1.0977-0.14843 1.8945-0.52734 2.5391-0.67969 1.25-2.082 2.082-3.5977 2.082"/><path d="m245.13 137.28c0-3.4102 1.7422-5.5703 4.582-5.5703 1.7422 0 3.3359 0.87109 4.168 2.3867l-1.7031 0.91015c-0.30469-0.45703-0.45703-0.60937-0.76172-0.79687-0.41406-0.33985-1.1328-0.57032-1.7031-0.57032-1.9727 0-2.6133 1.9336-2.6133 3.6016 0 2.3516 0.98437 3.7109 2.6133 3.7109 0.98437 0 1.5156-0.33984 2.4648-1.3633l1.7031 0.91016c-0.79297 1.5156-2.4258 2.3867-4.168 2.3867-2.8398 0-4.582-2.2344-4.582-5.6055"/><path d="m260.39 142.7h-1.8945v-8.9062h-3.1016v-1.8945h8.0977v1.8945h-3.1016z"/></g><path d="m379.06 109.22h-38.875l4e-3 -25.922h38.875z" fill="#211e1e" fill-rule="evenodd"/><g clip-path="url(#t)"><g clip-path="url(#p)"><path d="m348.69 104.75h5.0078v-16.695h-5.0078z" fill="url(#h)"/></g></g><g clip-path="url(#n)"><g clip-path="url(#m)"><path d="m357.04 104.75h13.535v-16.988h-13.535z" fill="url(#g)"/></g></g><path d="m379.06 150.26h-38.875l4e-3 -25.918h38.875z" fill="#211e1e" fill-rule="evenodd"/><g clip-path="url(#k)"><g clip-path="url(#j)"><path d="m344.92 145.64h13.535v-16.988h-13.535z" fill="url(#f)"/></g></g><g clip-path="url(#s)"><g clip-path="url(#r)"><path d="m360.79 145.94h13.535v-17.281h-13.535z" fill="url(#e)"/></g></g></g></svg>
