<?xml version="1.0" encoding="UTF-8"?>
<svg width="381.91pt" height="389.08pt" version="1.2" viewBox="0 0 381.91 389.08" xmlns="http://www.w3.org/2000/svg" xmlns:xlink="http://www.w3.org/1999/xlink"><defs><symbol id="p" overflow="visible"><path d="m2.5938-2.5781h1.7344l-0.85938-2.7031zm0.09375-4.2656h1.6094l2.4219 6.8438h-1.5469l-0.4375-1.4062h-2.5312l-0.46875 1.4062h-1.5z"/></symbol><symbol id="b" overflow="visible"></symbol><symbol id="l" overflow="visible"><path d="m-0.015625-3.1562h5.3125v1h-5.3125z"/></symbol><symbol id="k" overflow="visible"><path d="m5.7812-5.625h-3.625v1.4531h3.3281v1.1875h-3.3281v1.75h3.7969v1.2344h-5.1875v-6.8438h5.0156z"/></symbol><symbol id="a" overflow="visible"><path d="m1.9688 0h-1.3281v-6.8438h1.3281z"/></symbol><symbol id="g" overflow="visible"><path d="m2.6094-4.0938c-0.30469 0-0.54297 0.09375-0.71875 0.28125-0.16797 0.1875-0.27344 0.44922-0.3125 0.78125h2.0625c-0.023437-0.35156-0.13281-0.61719-0.32812-0.79688-0.1875-0.17578-0.42188-0.26562-0.70312-0.26562zm0-1.0938c0.42578 0 0.80469 0.078125 1.1406 0.23438 0.33203 0.15625 0.60938 0.40625 0.82812 0.75 0.19531 0.30469 0.32812 0.65234 0.39062 1.0469 0.03125 0.23047 0.046875 0.5625 0.046875 1h-3.4688c0.019531 0.5 0.17969 0.85547 0.48438 1.0625 0.17578 0.125 0.39453 0.1875 0.65625 0.1875 0.26953 0 0.48828-0.078125 0.65625-0.23438 0.09375-0.082031 0.17578-0.19531 0.25-0.34375h1.3438c-0.03125 0.30469-0.1875 0.60547-0.46875 0.90625-0.42969 0.5-1.0312 0.75-1.8125 0.75-0.64844 0-1.2148-0.20703-1.7031-0.625-0.49219-0.41406-0.73438-1.0938-0.73438-2.0312 0-0.875 0.21875-1.5391 0.65625-2 0.44531-0.46875 1.0234-0.70312 1.7344-0.70312z"/></symbol><symbol id="e" overflow="visible"><path d="m3.6406-3.25c-0.03125-0.1875-0.09375-0.35156-0.1875-0.5-0.15625-0.20703-0.39062-0.3125-0.70312-0.3125-0.4375 0-0.74219 0.22656-0.90625 0.67188-0.085937 0.23047-0.125 0.54297-0.125 0.9375 0 0.36719 0.039063 0.66406 0.125 0.89062 0.15625 0.41797 0.45312 0.625 0.89062 0.625 0.3125 0 0.53125-0.082031 0.65625-0.25 0.125-0.16406 0.20312-0.37891 0.23438-0.64062h1.3594c-0.03125 0.39844-0.17969 0.77734-0.4375 1.1406-0.41797 0.57422-1.0312 0.85938-1.8438 0.85938s-1.4141-0.23828-1.7969-0.71875c-0.38672-0.47656-0.57812-1.1016-0.57812-1.875 0-0.875 0.20703-1.5508 0.625-2.0312 0.42578-0.47656 1.0156-0.71875 1.7656-0.71875 0.63281 0 1.1484 0.14062 1.5469 0.42188 0.40625 0.28125 0.64453 0.78125 0.71875 1.5z"/></symbol><symbol id="d" overflow="visible"><path d="m0.09375-4.0625v-0.95312h0.70312v-1.4062h1.3125v1.4062h0.82812v0.95312h-0.82812v2.6719c0 0.21094 0.023438 0.33984 0.078125 0.39062 0.050781 0.042969 0.21094 0.0625 0.48438 0.0625h0.125 0.14062v0.98438l-0.625 0.015625c-0.625 0.03125-1.0547-0.070312-1.2812-0.3125-0.15625-0.15625-0.23438-0.39062-0.23438-0.70312v-3.1094z"/></symbol><symbol id="j" overflow="visible"><path d="m3.3594-5.1719h0.0625 0.125v1.3594c-0.085937-0.007813-0.16406-0.015625-0.23438-0.015625-0.0625-0.007813-0.11719-0.015625-0.15625-0.015625-0.53125 0-0.88672 0.17969-1.0625 0.53125-0.10547 0.1875-0.15625 0.48438-0.15625 0.89062v2.4219h-1.3281v-5.0625h1.25v0.89062c0.20703-0.34375 0.38281-0.57031 0.53125-0.6875 0.25-0.20703 0.57031-0.3125 0.96875-0.3125z"/></symbol><symbol id="c" overflow="visible"><path d="m2.8906-0.9375c0.38281 0 0.67969-0.13281 0.89062-0.40625 0.20703-0.28125 0.3125-0.67188 0.3125-1.1719 0-0.50781-0.10547-0.89844-0.3125-1.1719-0.21094-0.26953-0.50781-0.40625-0.89062-0.40625-0.38672 0-0.6875 0.13672-0.90625 0.40625-0.21094 0.27344-0.3125 0.66406-0.3125 1.1719 0 0.5 0.10156 0.89062 0.3125 1.1719 0.21875 0.27344 0.51953 0.40625 0.90625 0.40625zm2.5781-1.5781c0 0.74219-0.21484 1.375-0.64062 1.9062-0.42969 0.52344-1.0742 0.78125-1.9375 0.78125-0.86719 0-1.5117-0.25781-1.9375-0.78125-0.42969-0.53125-0.64062-1.1641-0.64062-1.9062 0-0.72656 0.21094-1.3594 0.64062-1.8906 0.42578-0.53906 1.0703-0.8125 1.9375-0.8125 0.86328 0 1.5078 0.27344 1.9375 0.8125 0.42578 0.53125 0.64062 1.1641 0.64062 1.8906z"/></symbol><symbol id="f" overflow="visible"><path d="m3.4219-5.1719c0.51953 0 0.94531 0.13672 1.2812 0.40625 0.33203 0.27344 0.5 0.72656 0.5 1.3594v3.4062h-1.3594v-3.0781c0-0.25781-0.039062-0.46094-0.10938-0.60938-0.125-0.25781-0.37109-0.39062-0.73438-0.39062-0.44922 0-0.75781 0.19531-0.92188 0.57812-0.09375 0.19922-0.14062 0.45312-0.14062 0.76562v2.7344h-1.3125v-5.0469h1.2812v0.73438c0.16406-0.25781 0.32812-0.44531 0.48438-0.5625 0.26953-0.19531 0.61328-0.29688 1.0312-0.29688z"/></symbol><symbol id="i" overflow="visible"><path d="m1.9688-5.6562h-1.3281v-1.2188h1.3281zm-1.3281 0.59375h1.3281v5.0625h-1.3281z"/></symbol><symbol id="o" overflow="visible"><path d="m0.82812 0.96875 0.15625 0.015625c0.13281 0 0.25781-0.011719 0.375-0.03125 0.11328-0.011719 0.21094-0.042969 0.29688-0.09375 0.070313-0.054687 0.14062-0.16406 0.20312-0.32812 0.070313-0.16797 0.10156-0.27344 0.09375-0.3125l-1.8594-5.2812h1.4688l1.1094 3.7344 1.0469-3.7344h1.4062l-1.7344 4.9844c-0.33594 0.95703-0.60156 1.5508-0.79688 1.7812-0.19922 0.22656-0.58984 0.34375-1.1719 0.34375h-0.28125c-0.074219 0-0.17969-0.00781-0.3125-0.015625z"/></symbol><symbol id="n" overflow="visible"><path d="m4.0938-2.5312c0-0.38281-0.089844-0.72656-0.26562-1.0312-0.17969-0.30078-0.46484-0.45312-0.85938-0.45312-0.48047 0-0.80859 0.23047-0.98438 0.6875-0.09375 0.24219-0.14062 0.54688-0.14062 0.92188 0 0.58594 0.15625 0.99609 0.46875 1.2344 0.1875 0.13672 0.40625 0.20312 0.65625 0.20312 0.36328 0 0.64062-0.14062 0.82812-0.42188 0.19531-0.28125 0.29688-0.66016 0.29688-1.1406zm-0.75-2.6406c0.59375 0 1.0938 0.21875 1.5 0.65625 0.41406 0.4375 0.625 1.0781 0.625 1.9219 0 0.89844-0.20312 1.5781-0.60938 2.0469-0.39844 0.46094-0.91406 0.6875-1.5469 0.6875-0.39844 0-0.73047-0.10156-1-0.29688-0.14844-0.11328-0.28906-0.27344-0.42188-0.48438v2.625h-1.3125v-7.0469h1.2656v0.75c0.14453-0.21875 0.29688-0.39062 0.45312-0.51562 0.28906-0.22656 0.64062-0.34375 1.0469-0.34375z"/></symbol><symbol id="h" overflow="visible"><path d="m3.4062-2.4531c-0.085937 0.054687-0.16797 0.09375-0.25 0.125-0.085937 0.03125-0.20312 0.0625-0.35938 0.09375l-0.29688 0.046875c-0.27344 0.054687-0.46875 0.11719-0.59375 0.1875-0.21094 0.11719-0.3125 0.30469-0.3125 0.5625 0 0.21875 0.0625 0.38281 0.1875 0.48438 0.125 0.10547 0.28125 0.15625 0.46875 0.15625 0.28125 0 0.53906-0.082031 0.78125-0.25 0.23828-0.16406 0.36328-0.47266 0.375-0.92188zm-0.79688-0.625c0.23828-0.03125 0.41016-0.066406 0.51562-0.10938 0.1875-0.082031 0.28125-0.20703 0.28125-0.375 0-0.20703-0.074219-0.34766-0.21875-0.42188-0.13672-0.082031-0.34375-0.125-0.625-0.125-0.3125 0-0.53906 0.078125-0.67188 0.23438-0.085937 0.10547-0.14062 0.25781-0.17188 0.45312h-1.2812c0.03125-0.4375 0.15625-0.80078 0.375-1.0938 0.34375-0.4375 0.94141-0.65625 1.7969-0.65625 0.55078 0 1.0391 0.10938 1.4688 0.32812 0.4375 0.21875 0.65625 0.63281 0.65625 1.2344v2.3281 0.57812c0.00781 0.17969 0.035156 0.29688 0.078125 0.35938 0.039063 0.0625 0.10938 0.11719 0.20312 0.15625v0.1875h-1.4375c-0.042969-0.10156-0.074219-0.19531-0.09375-0.28125-0.011719-0.09375-0.023437-0.19531-0.03125-0.3125-0.1875 0.19922-0.39844 0.36719-0.625 0.5-0.29297 0.16406-0.61719 0.25-0.96875 0.25-0.46094 0-0.83984-0.13281-1.1406-0.39062-0.29297-0.25781-0.4375-0.62891-0.4375-1.1094 0-0.625 0.23828-1.0703 0.71875-1.3438 0.25781-0.15625 0.64453-0.26562 1.1562-0.32812z"/></symbol><symbol id="m" overflow="visible"><path d="m0.32812-3.9844v-1.0781h4.1094v1.1094l-2.5781 2.875h2.6562v1.0781h-4.3594v-1.0312l2.5938-2.9531z"/></symbol></defs><g><g transform="translate(-114.92 -75.128)" fill="#211e1e"><use x="197.38721" y="82.003403" width="100%" height="100%" xlink:href="#p"/><use x="203.90041" y="82.003403" width="100%" height="100%" xlink:href="#b"/><use x="206.5414" y="82.003403" width="100%" height="100%" xlink:href="#l"/><use x="211.82339" y="82.003403" width="100%" height="100%" xlink:href="#b"/><use x="217.71719" y="82.003403" width="100%" height="100%" xlink:href="#k"/><use x="224.0537" y="82.003403" width="100%" height="100%" xlink:href="#a"/><use x="226.6947" y="82.003403" width="100%" height="100%" xlink:href="#g"/><use x="231.9767" y="82.003403" width="100%" height="100%" xlink:href="#e"/><use x="237.2587" y="82.003403" width="100%" height="100%" xlink:href="#d"/><use x="240.4222" y="82.003403" width="100%" height="100%" xlink:href="#j"/><use x="244.11771" y="82.003403" width="100%" height="100%" xlink:href="#c"/><use x="249.9222" y="82.003403" width="100%" height="100%" xlink:href="#f"/><use x="255.7267" y="82.003403" width="100%" height="100%" xlink:href="#i"/><use x="258.36771" y="82.003403" width="100%" height="100%" xlink:href="#e"/><use x="263.64969" y="82.003403" width="100%" height="100%" xlink:href="#b"/><use x="266.29071" y="82.003403" width="100%" height="100%" xlink:href="#d"/><use x="269.45419" y="82.003403" width="100%" height="100%" xlink:href="#c"/><use x="275.2587" y="82.003403" width="100%" height="100%" xlink:href="#a"/><use x="277.89969" y="82.003403" width="100%" height="100%" xlink:href="#a"/><use x="280.54071" y="82.003403" width="100%" height="100%" xlink:href="#b"/><use x="283.1817" y="82.003403" width="100%" height="100%" xlink:href="#e"/><use x="288.46371" y="82.003403" width="100%" height="100%" xlink:href="#c"/><use x="294.26819" y="82.003403" width="100%" height="100%" xlink:href="#a"/><use x="296.90921" y="82.003403" width="100%" height="100%" xlink:href="#a"/><use x="299.5502" y="82.003403" width="100%" height="100%" xlink:href="#g"/><use x="304.83221" y="82.003403" width="100%" height="100%" xlink:href="#e"/><use x="310.1142" y="82.003403" width="100%" height="100%" xlink:href="#d"/><use x="313.27771" y="82.003403" width="100%" height="100%" xlink:href="#i"/><use x="315.9187" y="82.003403" width="100%" height="100%" xlink:href="#c"/><use x="321.72321" y="82.003403" width="100%" height="100%" xlink:href="#f"/><use x="327.52771" y="82.003403" width="100%" height="100%" xlink:href="#b"/><use x="330.1687" y="82.003403" width="100%" height="100%" xlink:href="#c"/><use x="335.97321" y="82.003403" width="100%" height="100%" xlink:href="#f"/><use x="341.77771" y="82.003403" width="100%" height="100%" xlink:href="#a"/><use x="344.4187" y="82.003403" width="100%" height="100%" xlink:href="#o"/><use x="349.70071" y="82.003403" width="100%" height="100%" xlink:href="#b"/><use x="352.34171" y="82.003403" width="100%" height="100%" xlink:href="#d"/><use x="355.50519" y="82.003403" width="100%" height="100%" xlink:href="#c"/><use x="361.30969" y="82.003403" width="100%" height="100%" xlink:href="#a"/><use x="363.95071" y="82.003403" width="100%" height="100%" xlink:href="#a"/><use x="366.59171" y="82.003403" width="100%" height="100%" xlink:href="#b"/><use x="369.2327" y="82.003403" width="100%" height="100%" xlink:href="#n"/><use x="375.0372" y="82.003403" width="100%" height="100%" xlink:href="#a"/><use x="377.67819" y="82.003403" width="100%" height="100%" xlink:href="#h"/><use x="382.96021" y="82.003403" width="100%" height="100%" xlink:href="#m"/><use x="387.71021" y="82.003403" width="100%" height="100%" xlink:href="#h"/><use x="392.99219" y="82.003403" width="100%" height="100%" xlink:href="#b"/><use x="395.63321" y="82.003403" width="100%" height="100%" xlink:href="#a"/><use x="398.2742" y="82.003403" width="100%" height="100%" xlink:href="#h"/><use x="403.55621" y="82.003403" width="100%" height="100%" xlink:href="#f"/><use x="409.36069" y="82.003403" width="100%" height="100%" xlink:href="#g"/></g><path d="m372.89 389.08h-240.69v-376.17h240.69z" fill="#b0b0b0"/><path d="m232.79 366.65h-47.199v-288.47h47.199z" fill="#631e66"/></g><g fill="none"><path d="m139.39 12.911v376.17" stroke="#facc2b" stroke-width="2"/><g stroke="#fff" stroke-width="4"><path d="m185.59 23.911v342.74"/><path d="m232.79 12.911v353.74"/><path d="m279.99 12.911v353.74"/><path d="m327.19 23.911v342.74"/></g><path d="m372.89 12.911v376.17" stroke="#211e1e"/><path d="m132.2 12.911v376.17" stroke="#211e1e"/></g><path d="m381.91 98.407h-258.72v-34.758h258.72z" fill="#211e1e"/><g fill="#fff"><g><path d="m200.45 189.79c-0.98047 0-1.375-1.9922-1.3555-11.109 0.0234-9.1172 0.375-11.105 1.3555-11.105 0.98437 0 1.2773 1.9883 1.2773 11.105s-0.29297 11.109-1.2773 11.109m-0.0664-27.473c-1.4453 0-2.5976 2.9336-2.6289 16.363-0.0274 13.43 1.1836 16.367 2.6289 16.367 1.4492 0 2.6289-2.9375 2.6289-16.367s-1.1797-16.363-2.6289-16.363"/><path d="m204.29 194.9v-32.582h1.3086l2.6172 20.867v-20.867h1.3086v32.582h-1.3086l-2.6172-20.84v20.84z"/><path d="m210.84 162.32v32.57h5.2148v-5.2656h-3.9102v-27.305z"/><path d="m215.4 162.34 1.957 19.551v13.035h1.3047v-13.035l1.9531-19.551h-1.3047l-1.3008 13.055-1.3047-13.055z"/></g><g fill-rule="evenodd"><path d="m196.78 321.12h5.2148v5.2109h-1.9531v27.367h-1.3086v-27.367h-1.9531z"/><path d="m205.99 348.5c-0.98047 0-1.375-1.9922-1.3516-11.109 0.0156-9.1133 0.37109-11.105 1.3516-11.105 0.98438 0 1.2774 1.9922 1.2774 11.105 0 9.1172-0.29297 11.109-1.2774 11.109m-0.0625-27.473c-1.4492 0-2.5976 2.9375-2.6289 16.363-0.0312 13.434 1.1797 16.367 2.6289 16.367 1.4453 0 2.6289-2.9336 2.6289-16.367 0-13.426-1.1836-16.363-2.6289-16.363"/><path d="m209.86 321.13v32.566h5.2148v-5.2695h-3.9102v-27.297z"/><path d="m216.37 321.13v32.566h5.2188v-5.2695h-3.9141v-27.297z"/><path d="m212.45 241.57c2.3203-8e-3 2.4375 4.2266 2.6055 7.9414-0.44532 0.4375-0.84766 0.87109-1.2969 1.3086-0.0781-1.9297-0.29297-3.9062-1.3086-3.918-1.0117-0.0156-1.1836 1.5742-1.3086 3.3516v1.2695c0 2.875 4.0078 6.3672 3.9141 8.7539v4.875c-8e-3 4.5391-0.32813 9.3516-2.6055 9.3516-2.2695 0-2.2812-4.1406-2.6094-8.0469 0.4336-0.42187 0.8711-0.84765 1.3047-1.2695 0.23047 2.0938 0.38672 3.875 1.3047 3.8789 0.92187 8e-3 1.2383-1.2344 1.3047-3.1406 0.39063-3.3555-3.7422-6.6211-3.9141-9.8828v-5.8242c0-4.3984 0.29297-8.6406 2.6094-8.6484"/><path d="m218.97 241.57c2.3164-8e-3 2.4336 4.2266 2.6055 7.9414-0.44922 0.4375-0.85156 0.87109-1.2969 1.3086-0.082-1.9297-0.29297-3.9062-1.3086-3.918-1.0117-0.0156-1.1875 1.5742-1.3086 3.3516v1.2695c-4e-3 2.875 4.0039 6.3672 3.9141 8.7539v4.875c-0.0117 4.5391-0.33203 9.3516-2.6055 9.3516-2.2734 0-2.2852-4.1406-2.6094-8.0469 0.42969-0.42187 0.86719-0.84765 1.3047-1.2695 0.22656 2.0938 0.38672 3.875 1.3047 3.8789 0.92188 8e-3 1.2383-1.2344 1.3008-3.1406 0.39062-3.3555-3.7422-6.6211-3.9102-9.8828v-5.8242c0-4.3984 0.28906-8.6406 2.6094-8.6484"/><path d="m203.32 274.34 1.9805-32.594h1.2773l1.9609 32.594h-1.3086l-0.30469-5.2148h-1.9453l-0.35157 5.2148zm1.9531-10.43 0.65625-11.211 0.66796 11.211z"/><path d="m198.1 257.39v-10.434c2.1797-4e-3 2.6055 2.1289 2.6094 5.2188 0 3.0898-0.5039 5.1875-2.6094 5.2148m-1.3008-15.617v32.566h1.2812s0.0195-7.8359 0.0195-11.734c3.3633-0.41015 3.9062-3.6953 3.9102-10.43 0.0117-6.7383-1.6484-10.93-5.2109-10.402"/></g></g><path d="m190.89 103.28h36.586" fill="none" stroke="#fff" stroke-width="2"/><path d="m107.66 159.38c44.516 0 94.695-20.738 100.53-50.855" fill="none" stroke="#211e1e" stroke-width=".75"/><g><path d="m209.07 106.62c0.11328 0.89844 0.25782 1.5 0.42188 2.2305l-2.6133-0.4414c0.15625-0.22266 0.71875-1.1562 1.125-1.9688 0.42578-0.86719 0.7539-1.668 0.91406-2.1953-0.0234 0.55078 0.0273 1.4141 0.15234 2.375" fill="#211e1e"/><path d="m100.33 129.97h-96.48c-1.9922 0-3.6016 1.6133-3.6016 3.6016v53.34c0 1.9883 1.6094 3.5977 3.6016 3.5977h96.48c1.9844 0 3.5976-1.6094 3.5976-3.5977v-53.34c0-1.9883-1.6133-3.6016-3.5976-3.6016" fill="#631e66"/><path d="m101.77 167.17v19.738c0 0.79296-0.64454 1.4414-1.4375 1.4414h-96.484c-0.79297 0-1.4375-0.64844-1.4375-1.4414v-53.336c0-0.79297 0.64453-1.4375 1.4375-1.4375h96.484c0.79296 0 1.4375 0.64453 1.4375 1.4375zm-1.4375-37.195h-96.484c-1.9844 0-3.5976 1.6094-3.5976 3.5977v53.336c0 1.9922 1.6133 3.6016 3.5976 3.6016h96.484c1.9883 0 3.5976-1.6094 3.5976-3.6016v-53.336c0-1.9883-1.6094-3.5977-3.5976-3.5977" fill="#fff"/></g><path d="m100.33 129.97h-96.48c-1.9922 0-3.6016 1.6133-3.6016 3.6016v53.336c0 1.9883 1.6094 3.6016 3.6016 3.6016h96.48c1.9844 0 3.5976-1.6133 3.5976-3.6016v-53.336c0-1.9883-1.6133-3.6016-3.5976-3.6016z" fill="none" stroke="#211e1e" stroke-miterlimit="10" stroke-width=".5"/><path d="m82.332 162.49h-60.48v-25.922h60.48z" fill="#fff" fill-rule="evenodd"/><g fill="#631e66"><path d="m77.293 156.36h-32.438l0.0859-0.36718h32.438z"/><path d="m40.109 157.38h-2.7578l0.0859-0.375h2.7578z"/><path d="m49.344 157.38h-2.75l0.082-0.375h2.7578z"/><path d="m58.59 157.38h-2.7617l0.0859-0.375h2.7578z"/><path d="m67.824 157.38h-2.7578l0.082-0.375h2.7617z"/><path d="m77.062 157.38h-2.7578l0.082-0.375h2.7617z"/><path d="m76.832 158.4h-42.695l0.0859-0.3711h42.691z"/></g><g fill="#211e1e"><path d="m25.633 143.66-0.64063 2.7656h5.0274l-2.7617 11.969h3.2266l2.7578-11.969h8.3242l0.63672-2.7656z"/><path d="m36.105 152.05c-0.1875 0-0.4375-0.0273-0.53906-0.15625-0.125-0.16016-0.13672-0.52344-0.0312-0.96875 0.32031-1.4141 1.168-1.4141 1.4492-1.4141 0.18359 0 0.42969 0.0273 0.53125 0.16016 0.125 0.15234 0.13672 0.51953 0.0312 0.96484-0.32422 1.4141-1.1641 1.4141-1.4414 1.4141m4.0469-4.0274c-0.60547-0.75781-1.6172-1.1758-2.8516-1.1758-1.832 0-4.2031 0.99219-4.8477 3.7891-0.33594 1.4766 0.0781 2.3945 0.48047 2.9024 0.60547 0.75781 1.6172 1.1758 2.8516 1.1758 1.8359 0 4.207-0.99609 4.8398-3.7891 0.34375-1.4727-0.0664-2.3906-0.47265-2.9024"/><path d="m42.992 140.67-3.5976 15.684h3.0938l3.5976-15.684z"/><path d="m46.535 140.67-3.6016 15.684h3.0976l3.6016-15.684z"/><path d="m74.922 152.19c-0.55078 0-0.68359-0.10547-0.64844-0.14062l8e-3 -0.0312c0.16407 0.0352 0.32422 0.0664 0.48047 0.0937 0.0977 0.0195 0.22266 0.043 0.34375 0.0703-0.0586 4e-3 -0.12109 8e-3 -0.18359 8e-3m-7.0898 0c-0.54688 0-0.67969-0.10547-0.64063-0.13281l8e-3 -0.0391c0.16016 0.0352 0.32032 0.0664 0.47657 0.0937 0.10156 0.0195 0.22265 0.043 0.34375 0.0703-0.0547 4e-3 -0.11719 8e-3 -0.1875 8e-3m-3.8555 0.9375c8e-3 -0.0703 0.0234-0.16406 0.0508-0.29687l0.05038-0.21512c0.0273 0.23047 0.0859 0.4336 0.16016 0.60157zm-3.9922-0.83594c0.0469-0.20312 0.13281-0.33984 0.89062-0.45703 0.0898-0.0117 0.17188-0.0234 0.25-0.0352-0.23828 0.28515-0.71875 0.46875-1.1406 0.49218m-3.7266-5.5117c-0.0898 0.36718-0.19922 0.82031-1.1094 0.82031h-0.96875l0.27344-1.2031h1.0117c0.65625 0 0.80469 0.11719 0.80859 0.11719 4e-3 8e-3 0.0234 0.0781-0.0156 0.26563m22.762 2.8711c0.12109-0.77344-0.0312-1.4141-0.44532-1.8945-0.52734-0.61328-1.4258-0.91016-2.75-0.91016-2.3984 0-3.5625 1.3398-3.8438 2.5898-0.13281 0.55859-0.0625 1.0547 0.20703 1.4688 0.0859 0.14062 0.19922 0.26171 0.32032 0.36718h-0.89063c-0.0352-0.23437-0.11328-0.45703-0.24609-0.65625-0.10547-0.16406-0.23047-0.30078-0.37891-0.42187h0.85938l0.082-0.54297c0.11719-0.77344-0.0352-1.4141-0.44922-1.8945-0.52344-0.61328-1.4258-0.91016-2.7539-0.91016-2.3984 0-3.5703 1.3945-3.8398 2.5898-0.13281 0.55859-0.0586 1.0547 0.20703 1.4688 0.0898 0.14062 0.19922 0.26171 0.32031 0.36718h-1.0273l0.41797-1.832c0.1875-0.80859-0.0664-1.3476-0.3125-1.6602-0.64453-0.8125-1.9024-0.9336-2.5938-0.9336-0.54297 0-1.6367 8e-3 -2.6055 0.60547 0.0312-0.10547 0.0703-0.21094 0.0937-0.30469 0.28906-1.2734-0.0664-2.0664-0.41406-2.5078-0.35938-0.44531-1.0703-0.98047-2.4219-0.98047h-4.6914l-2.5195 10.895h3.2266l0.97265-4.2148h1.6875c1.0508 0 1.8711-0.31641 2.5-0.76953l-0.24609 0.74609h0.60547c-0.58203 0.42969-0.98047 1.043-1.1562 1.793-0.20703 0.89063 0.0625 1.4688 0.32422 1.8008 0.41015 0.51953 1.1016 0.80469 1.9414 0.80469 0.75782 0 1.3438-0.17578 1.8047-0.39453l0.0273 0.23437h2.9922l0.28097-1.1838c0.0625 0.11719 0.13281 0.21875 0.19531 0.30078 0.71094 0.86328 2.0234 1.043 2.9961 1.043 1.3945 0 2.9609-0.48828 3.7188-1.7656 0.0898 0.3125 0.23437 0.55079 0.375 0.72266 0.71094 0.86328 2.0195 1.043 2.9922 1.043 1.6836 0 3.6406-0.69531 4.0898-2.6445 0.125-0.55469 0.0547-1.0391-0.21094-1.4531-0.10547-0.16406-0.23437-0.30078-0.38281-0.42187h0.85937z"/></g><g fill="#fff"><path d="m30.23 158.07h-2.5703l2.7617-11.965h-5.0234l0.49219-2.1328h15.91l-0.49219 2.1328h-8.3203z"/><path d="m36.984 149.19c-1.1406 0-1.5898 0.90625-1.7656 1.6641-0.125 0.55469-0.0898 0.9961 0.10157 1.2344 0.14453 0.1875 0.41015 0.28125 0.78125 0.28125 1.1406 0 1.582-0.90234 1.7617-1.6602 0.125-0.5625 0.0937-1-0.0977-1.2383-0.14453-0.1875-0.41016-0.28125-0.78125-0.28125m-1.1992 5.2031c-1.1328 0-2.0625-0.3711-2.5977-1.0508-0.52343-0.65625-0.66796-1.5664-0.42187-2.6328 0.60547-2.6172 2.8203-3.543 4.5352-3.543 1.1367 0 2.0586 0.375 2.6016 1.0547 0.51953 0.65235 0.66406 1.5625 0.41406 2.6328-0.59375 2.6133-2.8125 3.5391-4.5312 3.5391"/><path d="m42.234 156.04h-2.4375l3.4453-15.043h2.4414z"/><path d="m45.777 156.04h-2.4375l3.4492-15.043h2.4414z"/><path d="m53.777 147.92h1.3711c1.1641 0 1.3281-0.69141 1.4141-1.0664 0.0625-0.25 0.0508-0.43359-0.0312-0.53125-0.0898-0.11328-0.34765-0.25-1.0664-0.25h-1.2656zm-1.4609 6.3086h-2.5703l2.3711-10.254h4.4336c0.97265 0 1.7266 0.30078 2.1758 0.86328 0.4414 0.55469 0.5625 1.3281 0.35156 2.2344-0.23438 1.0156-1.3359 2.9414-3.8477 2.9414h-1.9375z"/><path d="m61.637 151.38c-0.21093 0.0547-0.47656 0.10156-0.80078 0.14453-0.70312 0.10937-1.0547 0.24218-1.1602 0.69922-0.0273 0.11718-0.0234 0.20312 0.0234 0.2539 0.0508 0.0664 0.17578 0.10938 0.32422 0.10938 0.64063 0 1.4219-0.37891 1.5625-0.98828zm-0.2539-2.2539c-0.6875 0-0.87891 0.34375-0.9961 0.66406l-0.0352 0.0977 1.2578-0.17188c0.28125-0.0312 0.43359-0.11328 0.46484-0.25 0.0156-0.0547 0.0312-0.16015-8e-3 -0.20703-0.0703-0.0898-0.30078-0.13281-0.68359-0.13281m-2.1836 5.2734c-0.74218 0-1.3438-0.24219-1.6953-0.6836-0.21484-0.27343-0.4375-0.76172-0.25781-1.5312 0.25781-1.1328 1.1133-1.918 2.3555-2.1875h-1.6758l0.14062-0.42187c0.71484-2.1289 2.4219-2.4024 3.8359-2.4024 0.63281 0 1.7773 0.10547 2.3438 0.8125 0.29297 0.3711 0.3789 0.83985 0.25 1.3906l-0.77735 3.3906c-0.11328 0.48438-0.0547 0.59766-0.0508 0.60157l0.27344 0.0898-0.16797 0.77734h-2.457l-0.0352-0.27734c-8e-3 -0.0547-0.0156-0.10156-0.0195-0.14453-0.47265 0.29687-1.1328 0.58594-2.0625 0.58594"/><path d="m68.547 149.05c-0.84375 0-0.90234 0.26562-0.92969 0.36718 0.082 0.0859 0.67578 0.19922 1.0703 0.28125 0.17188 0.0312 0.35547 0.0703 0.53907 0.10938l0.0117-0.26563c8e-3 -0.1914-8e-3 -0.29296-0.0625-0.34765-0.0547-0.0547-0.19922-0.14453-0.62891-0.14453m-1.582 2.5859-0.0859 0.34766c-0.0469 0.21094 0.0117 0.28125 0.0312 0.30859 0.0508 0.0625 0.24609 0.21875 0.92188 0.21875 0.72656 0 0.94921-0.29296 0.98046-0.39843-0.082-0.1211-0.68359-0.23438-1.0781-0.3125-0.25391-0.0508-0.51563-0.10157-0.76953-0.16407m0.53125 2.7578c-0.90235 0-2.1172-0.15625-2.7461-0.92578-0.34765-0.42579-0.46093-0.96875-0.33203-1.6211l0.0547-0.2539h2.3125c-0.58594-0.16016-1.1211-0.40625-1.418-0.86329-0.22265-0.33593-0.27344-0.74609-0.16797-1.2226 0.26172-1.1328 1.3242-2.3398 3.5312-2.3398 1.2266 0 2.0469 0.26172 2.5117 0.79688 0.35156 0.41016 0.47656 0.96094 0.375 1.6367l-0.043 0.27344h-2.0547c0.64062 0.16796 1.2617 0.42187 1.5859 0.91406 0.21485 0.33594 0.26953 0.74219 0.16407 1.207-0.50782 2.2227-3.0195 2.3984-3.7734 2.3984"/><path d="m75.637 149.05c-0.84765 0-0.90625 0.26562-0.92968 0.36328 0.0781 0.0898 0.67187 0.20312 1.0703 0.28515 0.16797 0.0312 0.34765 0.0703 0.53515 0.10938l8e-3 -0.26172c8e-3 -0.19922-8e-3 -0.29687-0.0664-0.35547-0.0469-0.0508-0.19531-0.14062-0.61719-0.14062m-1.5976 2.5859-0.0781 0.34375c-0.043 0.21485 0.0156 0.28516 0.0312 0.3125 0.0547 0.0625 0.25 0.21875 0.92578 0.21875 0.72657 0 0.94922-0.28906 0.97266-0.39843-0.0742-0.1211-0.67578-0.23438-1.0703-0.3125-0.25391-0.0508-0.51953-0.10157-0.78125-0.16407m0.54297 2.7578c-0.90625 0-2.1172-0.15625-2.7461-0.92578-0.34765-0.42579-0.46094-0.96875-0.33203-1.6172l0.0508-0.25781h2.3203c-0.58593-0.16016-1.125-0.40625-1.4219-0.86329-0.21875-0.33593-0.27734-0.74609-0.16797-1.2226 0.25781-1.1328 1.3281-2.3398 3.5391-2.3398 1.2227 0 2.043 0.26172 2.5039 0.79688 0.35547 0.41016 0.48047 0.96094 0.375 1.6367l-0.0391 0.27344h-2.0586c0.64063 0.16796 1.2656 0.42187 1.5898 0.91406 0.21484 0.33594 0.26953 0.74219 0.16406 1.207-0.51172 2.2227-3.0195 2.3984-3.7773 2.3984"/></g><g fill="#5ec230"><path d="m29.977 157.75h-1.9141l2.7617-11.965h-5.0234l0.34375-1.4961h15.258l-0.34766 1.4961h-8.3203z"/><path d="m36.984 148.88c-1.3789 0-1.8867 1.1016-2.0742 1.9062-0.18359 0.80078-0.18359 1.9062 1.1914 1.9062s1.8867-1.1055 2.0703-1.9062c0.18359-0.80469 0.18359-1.9062-1.1875-1.9062m-1.1992 5.1992c-1.8242 0-3.2266-1.0312-2.7109-3.293 0.52344-2.2578 2.4062-3.293 4.2266-3.293 1.8242 0 3.2305 1.0352 2.7031 3.293-0.51172 2.2617-2.3945 3.293-4.2188 3.293"/><path d="m41.98 155.72h-1.7852l3.3047-14.406h1.7852z"/><path d="m45.52 155.72h-1.7812l3.3047-14.406h1.7891z"/><path d="m55.148 148.24c1.4258 0 1.6406-0.94531 1.7266-1.3203 0.19532-0.82422-0.22265-1.1641-1.4102-1.1641h-1.5195l-0.56641 2.4844zm-3.0859 5.668h-1.9141l2.2227-9.6172h4.1797c1.7734 0 2.5976 1.0508 2.2148 2.7109-0.17578 0.76563-1.0781 2.6953-3.5352 2.6953h-2.1953z"/><path d="m62.082 150.86c-0.20704 0.1289-0.52735 0.23437-1.2891 0.33984-0.6875 0.10547-1.2695 0.26172-1.4297 0.94141-0.13282 0.58203 0.3125 0.75781 0.65625 0.75781 0.79296 0 1.7031-0.47656 1.8789-1.2383zm1.3242 1.8242c-0.17187 0.74218-0.0273 0.90625 0.17579 0.97656l-0.0625 0.25h-1.9219c-0.0391-0.29688-0.043-0.39063 4e-3 -0.74219-0.5 0.38672-1.1914 0.90234-2.4024 0.90234-1.0195 0-1.9414-0.52734-1.6445-1.8203 0.28516-1.2226 1.2695-1.8476 2.4414-2.0039l1.6562-0.22266c0.28515-0.0312 0.65234-0.14063 0.73437-0.49219 0.16016-0.69531-0.54297-0.73437-1.0039-0.73437-0.89453 0-1.1562 0.50781-1.2969 0.875h-1.7188c0.64063-1.9219 2.1484-2.1914 3.5352-2.1914 0.95312 0 2.6406 0.26953 2.2852 1.8125z"/><path d="m69.559 149.56c0.0156-0.40625-0.0391-0.82813-1.0117-0.82813-0.96484 0-1.1758 0.34375-1.2383 0.61719-0.22266 0.98828 4.1836 0.26563 3.6523 2.5742-0.41797 1.8242-2.4102 2.1523-3.4648 2.1523-1.543 0-3.0977-0.49218-2.7656-2.1602h1.8398c-0.125 0.52734 0.14843 0.91406 1.2617 0.91406 0.91796 0 1.2344-0.41016 1.2891-0.64844 0.24219-1.0469-4.1524-0.25781-3.6133-2.5976 0.21093-0.92188 1.1133-2.0977 3.2226-2.0977 1.3281 0 2.8398 0.30469 2.5703 2.0742z"/><path d="m76.641 149.56c0.0156-0.40625-0.0391-0.82813-1.0039-0.82813-0.97265 0-1.1797 0.34375-1.2383 0.61719-0.23047 0.98828 4.1836 0.26563 3.6484 2.5742-0.41797 1.8242-2.4062 2.1523-3.4648 2.1523-1.543 0-3.0977-0.49218-2.7656-2.1602h1.8359c-0.11719 0.52734 0.14844 0.91406 1.2656 0.91406 0.91797 0 1.2344-0.41016 1.2852-0.64844 0.24219-1.0469-4.1484-0.25781-3.6055-2.5976 0.21094-0.92188 1.1055-2.0977 3.2266-2.0977 1.3242 0 2.832 0.30469 2.5625 2.0742z"/></g><path d="m73.687 182.19c0 0.99219-0.80859 1.8047-1.8047 1.8047h-39.59c-0.99218 0-1.8008-0.8125-1.8008-1.8047v-13.723c0-0.99219 0.8086-1.8008 1.8008-1.8008h39.59c0.99609 0 1.8047 0.8086 1.8047 1.8008z" fill="#fff"/><g fill="#211e1e"><path d="m40.598 175.33c0-0.77344-0.17578-1.4375-0.52734-1.9883-0.39844-0.6211-0.92969-0.9336-1.5898-0.9336-0.66015 0-1.1875 0.3125-1.5859 0.9336-0.35938 0.55078-0.53516 1.2148-0.53516 1.9883 0 0.76562 0.17578 1.4258 0.53516 1.9766 0.39843 0.62109 0.92578 0.92969 1.5859 0.92969 0.66016 0 1.1914-0.3086 1.5898-0.92969 0.35156-0.55078 0.52734-1.2109 0.52734-1.9766m1.5117 0c0 1.1797-0.32422 2.1992-0.97656 3.0547-0.69922 0.91797-1.582 1.375-2.6524 1.375-1.0742 0-1.957-0.45703-2.6562-1.375-0.65234-0.85546-0.97656-1.875-0.97656-3.0547 0-1.1836 0.32422-2.1992 0.97656-3.0586 0.69922-0.91406 1.582-1.375 2.6562-1.375 1.0703 0 1.9531 0.46094 2.6524 1.375 0.65234 0.85938 0.97656 1.875 0.97656 3.0586"/><path d="m51.098 179.65h-1.5586c-0.70313-1.0508-1.9961-2.9883-3.8789-5.8164v5.8164h-1.5625v-8.6406h1.5547l3.8867 5.832v-5.832h1.5586z"/><path d="m59.828 179.65h-6.4805v-8.6406h1.5586v7.0781h4.9219z"/><path d="m69.332 171.01-3.6328 5.2969v3.3438h-1.5625v-3.3438l-3.6172-5.2969h1.8203l2.5859 3.6797 2.5195-3.6797z"/></g></svg>
