<?xml version="1.0" encoding="UTF-8"?>
<svg width="500.13pt" height="324.71pt" version="1.2" viewBox="0 0 500.13 324.71" xmlns="http://www.w3.org/2000/svg" xmlns:xlink="http://www.w3.org/1999/xlink"><defs><symbol id="au" overflow="visible"><path d="m0-0.25c-0.47656-0.03125-0.89453-0.12891-1.25-0.29688-0.36328-0.17578-0.69141-0.51562-0.98438-1.0156l-0.4375-0.75c-0.1875-0.33203-0.35156-0.56641-0.5-0.70312-0.20703-0.21875-0.45312-0.32812-0.73438-0.32812-0.32031 0-0.57812 0.10156-0.76562 0.29688-0.19531 0.19922-0.29688 0.46094-0.29688 0.78125 0 0.48047 0.18359 0.8125 0.54688 1 0.19922 0.09375 0.46875 0.14844 0.8125 0.15625v0.71875c-0.48828-0.007813-0.88281-0.097656-1.1875-0.26562-0.53906-0.30078-0.8125-0.83594-0.8125-1.6094 0-0.64453 0.17188-1.1133 0.51562-1.4062 0.34375-0.30078 0.73047-0.45312 1.1562-0.45312 0.44922 0 0.82812 0.16406 1.1406 0.48438 0.1875 0.17969 0.41406 0.5 0.67188 0.96875l0.29688 0.54688c0.14844 0.25 0.28125 0.44922 0.40625 0.59375 0.23047 0.26172 0.48047 0.42969 0.75 0.5v-3.0625h0.67188z"/></symbol><symbol id="x" overflow="visible"><path d="m-5.5938-2.1719c0-0.71875 0.29688-1.2383 0.89062-1.5625 0.46094-0.25 1.0898-0.375 1.8906-0.375 0.76172 0 1.3906 0.11719 1.8906 0.34375 0.71875 0.32422 1.0781 0.85938 1.0781 1.6094 0 0.66797-0.28906 1.168-0.875 1.5-0.48828 0.27344-1.1445 0.40625-1.9688 0.40625-0.63281 0-1.1797-0.082031-1.6406-0.25-0.84375-0.30078-1.2656-0.85938-1.2656-1.6719zm5.1094 0.015625c0-0.36328-0.16016-0.65625-0.48438-0.875-0.32031-0.21875-0.92578-0.32812-1.8125-0.32812-0.63281 0-1.1562 0.078125-1.5625 0.23438-0.41406 0.15625-0.625 0.46484-0.625 0.92188 0 0.40625 0.19922 0.71094 0.59375 0.90625 0.38672 0.1875 0.96094 0.28125 1.7188 0.28125 0.57422 0 1.0312-0.0625 1.375-0.1875 0.53125-0.1875 0.79688-0.50391 0.79688-0.95312z"/></symbol><symbol id="p" overflow="visible"></symbol><symbol id="w" overflow="visible"><path d="m-5.3594-0.65625v-0.71875h1.1719v-0.65625h0.57812v0.65625h2.7344c0.14844 0 0.24219-0.046875 0.28125-0.14062 0.03125-0.050781 0.046875-0.14453 0.046875-0.28125v-0.09375c0-0.039063-0.003906-0.085938-0.015625-0.14062h0.5625c0.019531 0.074219 0.035156 0.15625 0.046875 0.25 0.0078125 0.085937 0.015625 0.17969 0.015625 0.28125 0 0.32422-0.082031 0.54688-0.25 0.67188-0.16406 0.11719-0.38281 0.17188-0.65625 0.17188h-2.7656v0.5625h-0.57812v-0.5625z"/></symbol><symbol id="at" overflow="visible"><path d="m-0.45312-2.1719c0-0.46875-0.17578-0.78516-0.53125-0.95312-0.35156-0.17578-0.74219-0.26562-1.1719-0.26562-0.39453 0-0.71094 0.0625-0.95312 0.1875-0.38281 0.19922-0.57812 0.53906-0.57812 1.0156 0 0.42969 0.16797 0.74219 0.5 0.9375 0.32422 0.19922 0.71484 0.29688 1.1719 0.29688 0.44922 0 0.82422-0.097656 1.125-0.29688 0.29297-0.19531 0.4375-0.50391 0.4375-0.92188zm-3.8594-0.03125c0-0.53906 0.18359-0.99219 0.54688-1.3594 0.35547-0.375 0.88281-0.5625 1.5781-0.5625 0.67969 0 1.2422 0.16797 1.6875 0.5 0.4375 0.32422 0.65625 0.82812 0.65625 1.5156 0 0.57422-0.19141 1.0312-0.57812 1.375-0.39453 0.33594-0.92188 0.5-1.5781 0.5-0.70703 0-1.2695-0.17578-1.6875-0.53125-0.41406-0.35156-0.625-0.83203-0.625-1.4375z"/></symbol><symbol id="as" overflow="visible"><path d="m-1.4219-0.98438c0.39844-0.050781 0.67188-0.23828 0.82812-0.5625 0.074219-0.16406 0.10938-0.35938 0.10938-0.57812 0-0.41406-0.12891-0.72266-0.39062-0.92188-0.26953-0.20703-0.56641-0.3125-0.89062-0.3125-0.38281 0-0.67969 0.12109-0.89062 0.35938-0.21875 0.24219-0.32812 0.52734-0.32812 0.85938 0 0.24219 0.046875 0.44922 0.14062 0.625 0.09375 0.17969 0.22656 0.32422 0.39062 0.4375l-0.03125 0.60938-3.0156-0.42188v-2.9062h0.67188v2.375l1.5625 0.25c-0.10156-0.13281-0.17578-0.25781-0.21875-0.375-0.09375-0.20703-0.14062-0.44531-0.14062-0.71875 0-0.51953 0.16797-0.95703 0.5-1.3125 0.33594-0.35156 0.75781-0.53125 1.2656-0.53125 0.52344 0 0.98438 0.16797 1.3906 0.5 0.40625 0.32422 0.60938 0.83984 0.60938 1.5469 0 0.46094-0.125 0.86719-0.375 1.2188-0.25781 0.34375-0.65625 0.53906-1.1875 0.57812z"/></symbol><symbol id="ar" overflow="visible"><path d="m-4.8281-0.6875c-0.28906-0.007813-0.50391-0.0625-0.64062-0.15625-0.23828-0.16406-0.35938-0.48438-0.35938-0.95312 0-0.039063 0.00781-0.082031 0.015625-0.125v-0.17188h0.64062v0.15625 0.09375c0 0.21875 0.058594 0.35156 0.17188 0.39062 0.10547 0.042969 0.38281 0.0625 0.82812 0.0625v-0.70312h0.5625v0.70312h3.6094v0.70312h-3.6094v0.57812h-0.5625v-0.57812z"/></symbol><symbol id="o" overflow="visible"><path d="m0.42188-3.3594c0-1.1953 0.32031-2.1172 0.96875-2.7656 0.55078-0.5625 1.2578-0.84375 2.125-0.84375 1.1445 0 1.9844 0.38281 2.5156 1.1406 0.28906 0.41797 0.45312 0.83984 0.48438 1.2656h-1.4375c-0.09375-0.32031-0.21484-0.56641-0.35938-0.73438-0.26172-0.30078-0.64844-0.45312-1.1562-0.45312-0.52344 0-0.93359 0.21484-1.2344 0.64062-0.29297 0.41797-0.4375 1.0078-0.4375 1.7656 0 0.77344 0.15625 1.3516 0.46875 1.7344 0.32031 0.375 0.72656 0.5625 1.2188 0.5625 0.5 0 0.87891-0.16016 1.1406-0.48438 0.14453-0.17578 0.26562-0.44141 0.35938-0.79688h1.4219c-0.125 0.75-0.44531 1.3594-0.95312 1.8281-0.51172 0.46094-1.1641 0.6875-1.9531 0.6875-0.99219 0-1.7656-0.3125-2.3281-0.9375-0.5625-0.63281-0.84375-1.5039-0.84375-2.6094z"/></symbol><symbol id="a" overflow="visible"></symbol><symbol id="l" overflow="visible"><path d="m-0.015625-3.1562h5.3125v1h-5.3125z"/></symbol><symbol id="h" overflow="visible"><path d="m3.3594-5.1719h0.0625 0.125v1.3594c-0.085937-0.007813-0.16406-0.015625-0.23438-0.015625-0.0625-0.007813-0.11719-0.015625-0.15625-0.015625-0.53125 0-0.88672 0.17969-1.0625 0.53125-0.10547 0.1875-0.15625 0.48438-0.15625 0.89062v2.4219h-1.3281v-5.0625h1.25v0.89062c0.20703-0.34375 0.38281-0.57031 0.53125-0.6875 0.25-0.20703 0.57031-0.3125 0.96875-0.3125z"/></symbol><symbol id="g" overflow="visible"><path d="m2.8906-0.9375c0.38281 0 0.67969-0.13281 0.89062-0.40625 0.20703-0.28125 0.3125-0.67188 0.3125-1.1719 0-0.50781-0.10547-0.89844-0.3125-1.1719-0.21094-0.26953-0.50781-0.40625-0.89062-0.40625-0.38672 0-0.6875 0.13672-0.90625 0.40625-0.21094 0.27344-0.3125 0.66406-0.3125 1.1719 0 0.5 0.10156 0.89062 0.3125 1.1719 0.21875 0.27344 0.51953 0.40625 0.90625 0.40625zm2.5781-1.5781c0 0.74219-0.21484 1.375-0.64062 1.9062-0.42969 0.52344-1.0742 0.78125-1.9375 0.78125-0.86719 0-1.5117-0.25781-1.9375-0.78125-0.42969-0.53125-0.64062-1.1641-0.64062-1.9062 0-0.72656 0.21094-1.3594 0.64062-1.8906 0.42578-0.53906 1.0703-0.8125 1.9375-0.8125 0.86328 0 1.5078 0.27344 1.9375 0.8125 0.42578 0.53125 0.64062 1.1641 0.64062 1.8906z"/></symbol><symbol id="b" overflow="visible"><path d="m1.6406-1.6094c0.03125 0.23047 0.09375 0.39844 0.1875 0.5 0.16406 0.17969 0.46875 0.26562 0.90625 0.26562 0.25781 0 0.46094-0.035156 0.60938-0.10938 0.15625-0.082031 0.23438-0.20312 0.23438-0.35938 0-0.14453-0.058594-0.25781-0.17188-0.34375-0.125-0.070313-0.58984-0.20312-1.3906-0.39062-0.5625-0.14453-0.96484-0.32031-1.2031-0.53125-0.24219-0.21875-0.35938-0.52344-0.35938-0.92188 0-0.45703 0.17969-0.85156 0.54688-1.1875 0.375-0.34375 0.89453-0.51562 1.5625-0.51562 0.625 0 1.1328 0.13281 1.5312 0.39062 0.39453 0.25 0.625 0.68359 0.6875 1.2969h-1.3281c-0.011719-0.16406-0.058594-0.30078-0.14062-0.40625-0.14844-0.17578-0.39062-0.26562-0.73438-0.26562-0.29297 0-0.5 0.046875-0.625 0.14062-0.11719 0.085937-0.17188 0.1875-0.17188 0.3125 0 0.14844 0.0625 0.25781 0.1875 0.32812 0.13281 0.074219 0.59375 0.19531 1.375 0.35938 0.53125 0.125 0.92578 0.3125 1.1875 0.5625 0.25781 0.26172 0.39062 0.57812 0.39062 0.95312 0 0.5-0.1875 0.91406-0.5625 1.2344-0.375 0.3125-0.94922 0.46875-1.7188 0.46875-0.80469 0-1.3906-0.16797-1.7656-0.5-0.375-0.33203-0.5625-0.75781-0.5625-1.2812z"/></symbol><symbol id="s" overflow="visible"><path d="m3-5.0625h1.3438l0.76562 3.6406 0.79688-3.6406h1.375l-1.4688 5.0625h-1.3594l-0.79688-3.6875-0.79688 3.6875h-1.375l-1.4219-5.0625h1.4219l0.78125 3.6406z"/></symbol><symbol id="c" overflow="visible"><path d="m3.4062-2.4531c-0.085937 0.054687-0.16797 0.09375-0.25 0.125-0.085937 0.03125-0.20312 0.0625-0.35938 0.09375l-0.29688 0.046875c-0.27344 0.054687-0.46875 0.11719-0.59375 0.1875-0.21094 0.11719-0.3125 0.30469-0.3125 0.5625 0 0.21875 0.0625 0.38281 0.1875 0.48438 0.125 0.10547 0.28125 0.15625 0.46875 0.15625 0.28125 0 0.53906-0.082031 0.78125-0.25 0.23828-0.16406 0.36328-0.47266 0.375-0.92188zm-0.79688-0.625c0.23828-0.03125 0.41016-0.066406 0.51562-0.10938 0.1875-0.082031 0.28125-0.20703 0.28125-0.375 0-0.20703-0.074219-0.34766-0.21875-0.42188-0.13672-0.082031-0.34375-0.125-0.625-0.125-0.3125 0-0.53906 0.078125-0.67188 0.23438-0.085937 0.10547-0.14062 0.25781-0.17188 0.45312h-1.2812c0.03125-0.4375 0.15625-0.80078 0.375-1.0938 0.34375-0.4375 0.94141-0.65625 1.7969-0.65625 0.55078 0 1.0391 0.10938 1.4688 0.32812 0.4375 0.21875 0.65625 0.63281 0.65625 1.2344v2.3281 0.57812c0.00781 0.17969 0.035156 0.29688 0.078125 0.35938 0.039063 0.0625 0.10938 0.11719 0.20312 0.15625v0.1875h-1.4375c-0.042969-0.10156-0.074219-0.19531-0.09375-0.28125-0.011719-0.09375-0.023437-0.19531-0.03125-0.3125-0.1875 0.19922-0.39844 0.36719-0.625 0.5-0.29297 0.16406-0.61719 0.25-0.96875 0.25-0.46094 0-0.83984-0.13281-1.1406-0.39062-0.29297-0.25781-0.4375-0.62891-0.4375-1.1094 0-0.625 0.23828-1.0703 0.71875-1.3438 0.25781-0.15625 0.64453-0.26562 1.1562-0.32812z"/></symbol><symbol id="f" overflow="visible"><path d="m1.9688 0h-1.3281v-6.8438h1.3281z"/></symbol><symbol id="n" overflow="visible"><path d="m0.60938-6.8125h1.2969v3.6875l1.6406-1.9062h1.6406l-1.7656 1.9375 1.8281 3.0938h-1.5938l-1.2031-2.1562-0.54688 0.5625v1.5938h-1.2969z"/></symbol><symbol id="j" overflow="visible"><path d="m3.6406-3.25c-0.03125-0.1875-0.09375-0.35156-0.1875-0.5-0.15625-0.20703-0.39062-0.3125-0.70312-0.3125-0.4375 0-0.74219 0.22656-0.90625 0.67188-0.085937 0.23047-0.125 0.54297-0.125 0.9375 0 0.36719 0.039063 0.66406 0.125 0.89062 0.15625 0.41797 0.45312 0.625 0.89062 0.625 0.3125 0 0.53125-0.082031 0.65625-0.25 0.125-0.16406 0.20312-0.37891 0.23438-0.64062h1.3594c-0.03125 0.39844-0.17969 0.77734-0.4375 1.1406-0.41797 0.57422-1.0312 0.85938-1.8438 0.85938s-1.4141-0.23828-1.7969-0.71875c-0.38672-0.47656-0.57812-1.1016-0.57812-1.875 0-0.875 0.20703-1.5508 0.625-2.0312 0.42578-0.47656 1.0156-0.71875 1.7656-0.71875 0.63281 0 1.1484 0.14062 1.5469 0.42188 0.40625 0.28125 0.64453 0.78125 0.71875 1.5z"/></symbol><symbol id="v" overflow="visible"><path d="m6.2656-5.1719c0.21875 0 0.4375 0.046875 0.65625 0.14062 0.21875 0.085937 0.41406 0.23438 0.59375 0.45312 0.14453 0.17969 0.23828 0.39062 0.28125 0.64062 0.03125 0.17969 0.046875 0.42969 0.046875 0.75v3.1875h-1.3594v-3.2188c0-0.1875-0.03125-0.34375-0.09375-0.46875-0.11719-0.23828-0.32812-0.35938-0.64062-0.35938-0.36719 0-0.62109 0.15234-0.76562 0.45312-0.074219 0.16797-0.10938 0.35938-0.10938 0.57812v3.0156h-1.3281v-3.0156c0-0.28906-0.03125-0.50781-0.09375-0.65625-0.11719-0.23828-0.33594-0.35938-0.65625-0.35938-0.375 0-0.625 0.12109-0.75 0.35938-0.074219 0.14844-0.10938 0.35547-0.10938 0.625v3.0469h-1.3438v-5.0469h1.2812v0.73438c0.16406-0.25781 0.32031-0.44531 0.46875-0.5625 0.25781-0.19531 0.59375-0.29688 1-0.29688 0.38281 0 0.69531 0.089844 0.9375 0.26562 0.1875 0.15625 0.33203 0.35547 0.4375 0.59375 0.16406-0.28906 0.37891-0.50391 0.64062-0.64062 0.26953-0.14453 0.57031-0.21875 0.90625-0.21875z"/></symbol><symbol id="aq" overflow="visible"><path d="m4.0938-2.5312c0-0.38281-0.089844-0.72656-0.26562-1.0312-0.17969-0.30078-0.46484-0.45312-0.85938-0.45312-0.48047 0-0.80859 0.23047-0.98438 0.6875-0.09375 0.24219-0.14062 0.54688-0.14062 0.92188 0 0.58594 0.15625 0.99609 0.46875 1.2344 0.1875 0.13672 0.40625 0.20312 0.65625 0.20312 0.36328 0 0.64062-0.14062 0.82812-0.42188 0.19531-0.28125 0.29688-0.66016 0.29688-1.1406zm-0.75-2.6406c0.59375 0 1.0938 0.21875 1.5 0.65625 0.41406 0.4375 0.625 1.0781 0.625 1.9219 0 0.89844-0.20312 1.5781-0.60938 2.0469-0.39844 0.46094-0.91406 0.6875-1.5469 0.6875-0.39844 0-0.73047-0.10156-1-0.29688-0.14844-0.11328-0.28906-0.27344-0.42188-0.48438v2.625h-1.3125v-7.0469h1.2656v0.75c0.14453-0.21875 0.29688-0.39062 0.45312-0.51562 0.28906-0.22656 0.64062-0.34375 1.0469-0.34375z"/></symbol><symbol id="ap" overflow="visible"><path d="m2.5938-2.5781h1.7344l-0.85938-2.7031zm0.09375-4.2656h1.6094l2.4219 6.8438h-1.5469l-0.4375-1.4062h-2.5312l-0.46875 1.4062h-1.5z"/></symbol><symbol id="ao" overflow="visible"><path d="m3.4062-5.1875c0.3125 0 0.59375 0.058594 0.84375 0.17188 0.25781 0.10547 0.47266 0.26562 0.64062 0.48438 0.13281 0.1875 0.21875 0.38672 0.25 0.59375 0.03125 0.19922 0.046875 0.52344 0.046875 0.96875v2.9688h-1.3438v-3.0781c0-0.26953-0.046875-0.48828-0.14062-0.65625-0.125-0.23828-0.35547-0.35938-0.6875-0.35938-0.35547 0-0.625 0.12109-0.8125 0.35938-0.17969 0.23047-0.26562 0.5625-0.26562 1v2.7344h-1.3125v-6.8125h1.3125v2.4219c0.19531-0.30078 0.42188-0.50781 0.67188-0.625 0.25-0.11328 0.51562-0.17188 0.79688-0.17188z"/></symbol><symbol id="e" overflow="visible"><path d="m3.4219-5.1719c0.51953 0 0.94531 0.13672 1.2812 0.40625 0.33203 0.27344 0.5 0.72656 0.5 1.3594v3.4062h-1.3594v-3.0781c0-0.25781-0.039062-0.46094-0.10938-0.60938-0.125-0.25781-0.37109-0.39062-0.73438-0.39062-0.44922 0-0.75781 0.19531-0.92188 0.57812-0.09375 0.19922-0.14062 0.45312-0.14062 0.76562v2.7344h-1.3125v-5.0469h1.2812v0.73438c0.16406-0.25781 0.32812-0.44531 0.48438-0.5625 0.26953-0.19531 0.61328-0.29688 1.0312-0.29688z"/></symbol><symbol id="i" overflow="visible"><path d="m2.6094-4.0938c-0.30469 0-0.54297 0.09375-0.71875 0.28125-0.16797 0.1875-0.27344 0.44922-0.3125 0.78125h2.0625c-0.023437-0.35156-0.13281-0.61719-0.32812-0.79688-0.1875-0.17578-0.42188-0.26562-0.70312-0.26562zm0-1.0938c0.42578 0 0.80469 0.078125 1.1406 0.23438 0.33203 0.15625 0.60938 0.40625 0.82812 0.75 0.19531 0.30469 0.32812 0.65234 0.39062 1.0469 0.03125 0.23047 0.046875 0.5625 0.046875 1h-3.4688c0.019531 0.5 0.17969 0.85547 0.48438 1.0625 0.17578 0.125 0.39453 0.1875 0.65625 0.1875 0.26953 0 0.48828-0.078125 0.65625-0.23438 0.09375-0.082031 0.17578-0.19531 0.25-0.34375h1.3438c-0.03125 0.30469-0.1875 0.60547-0.46875 0.90625-0.42969 0.5-1.0312 0.75-1.8125 0.75-0.64844 0-1.2148-0.20703-1.7031-0.625-0.49219-0.41406-0.73438-1.0938-0.73438-2.0312 0-0.875 0.21875-1.5391 0.65625-2 0.44531-0.46875 1.0234-0.70312 1.7344-0.70312z"/></symbol><symbol id="d" overflow="visible"><path d="m1.9688-5.6562h-1.3281v-1.2188h1.3281zm-1.3281 0.59375h1.3281v5.0625h-1.3281z"/></symbol><symbol id="u" overflow="visible"><path d="m0.32812-3.9844v-1.0781h4.1094v1.1094l-2.5781 2.875h2.6562v1.0781h-4.3594v-1.0312l2.5938-2.9531z"/></symbol><symbol id="m" overflow="visible"><path d="m2.4844-5.1719c0.30078 0 0.57031 0.070312 0.8125 0.20312 0.23828 0.13672 0.42969 0.32031 0.57812 0.54688v-2.4062h1.3438v6.8281h-1.2812v-0.70312c-0.1875 0.30469-0.40625 0.52344-0.65625 0.65625-0.24219 0.13281-0.53906 0.20312-0.89062 0.20312-0.59375 0-1.0938-0.23828-1.5-0.71875-0.39844-0.47656-0.59375-1.0859-0.59375-1.8281 0-0.86328 0.19531-1.5391 0.59375-2.0312 0.39453-0.5 0.92578-0.75 1.5938-0.75zm0.28125 4.2188c0.375 0 0.66016-0.14062 0.85938-0.42188 0.19531-0.28125 0.29688-0.64062 0.29688-1.0781 0-0.61328-0.15625-1.0547-0.46875-1.3281-0.19922-0.15625-0.42188-0.23438-0.67188-0.23438-0.38672 0-0.67188 0.14844-0.85938 0.4375-0.17969 0.29297-0.26562 0.65234-0.26562 1.0781 0 0.46875 0.085938 0.84375 0.26562 1.125 0.1875 0.28125 0.46875 0.42188 0.84375 0.42188z"/></symbol><symbol id="t" overflow="visible"><path d="m0.09375-4.0625v-0.95312h0.70312v-1.4062h1.3125v1.4062h0.82812v0.95312h-0.82812v2.6719c0 0.21094 0.023438 0.33984 0.078125 0.39062 0.050781 0.042969 0.21094 0.0625 0.48438 0.0625h0.125 0.14062v0.98438l-0.625 0.015625c-0.625 0.03125-1.0547-0.070312-1.2812-0.3125-0.15625-0.15625-0.23438-0.39062-0.23438-0.70312v-3.1094z"/></symbol><symbol id="an" overflow="visible"><path d="m2.1094-5.6562v1.5156h1.6875c0.28906 0 0.53125-0.054688 0.71875-0.17188 0.1875-0.11328 0.28125-0.3125 0.28125-0.59375 0-0.32031-0.12109-0.53516-0.35938-0.64062-0.21875-0.070313-0.49609-0.10938-0.82812-0.10938zm0 2.6406v1.8281h1.6875c0.28906 0 0.51953-0.039063 0.6875-0.125 0.30078-0.14453 0.45312-0.42578 0.45312-0.84375 0-0.35156-0.14844-0.59766-0.4375-0.73438-0.15625-0.070313-0.38672-0.11328-0.6875-0.125zm1.9531-3.8281c0.84375 0.023437 1.4375 0.26562 1.7812 0.73438 0.21875 0.29297 0.32812 0.64062 0.32812 1.0469 0 0.41797-0.10938 0.75-0.32812 1-0.11719 0.14844-0.28906 0.27734-0.51562 0.39062 0.35156 0.125 0.61719 0.32812 0.79688 0.60938 0.17578 0.27344 0.26562 0.60547 0.26562 1 0 0.40625-0.10547 0.77344-0.3125 1.0938-0.125 0.21094-0.28906 0.38672-0.48438 0.53125-0.21875 0.16797-0.48047 0.28125-0.78125 0.34375-0.29297 0.0625-0.61719 0.09375-0.96875 0.09375h-3.0938v-6.8438z"/></symbol><symbol id="am" overflow="visible"><path d="m0.71875-6.8438h1.4531v4.2031c0 0.46875 0.054688 0.8125 0.17188 1.0312 0.17578 0.38672 0.55078 0.57812 1.125 0.57812 0.58203 0 0.96094-0.19141 1.1406-0.57812 0.10156-0.21875 0.15625-0.5625 0.15625-1.0312v-4.2031h1.4531v4.2031c0 0.73047-0.11719 1.2969-0.34375 1.7031-0.41797 0.74219-1.2188 1.1094-2.4062 1.1094-1.1797 0-1.9805-0.36719-2.4062-1.1094-0.23047-0.40625-0.34375-0.97266-0.34375-1.7031z"/></symbol><symbol id="al" overflow="visible"><path d="m2.7812-1.0781c0.3125 0 0.57031-0.11328 0.78125-0.34375 0.21875-0.23828 0.32812-0.61328 0.32812-1.125 0-0.47656-0.10547-0.84375-0.3125-1.0938-0.19922-0.25-0.46484-0.375-0.79688-0.375-0.46875 0-0.79297 0.21484-0.96875 0.64062-0.09375 0.24219-0.14062 0.52734-0.14062 0.85938 0 0.30469 0.050781 0.57031 0.15625 0.79688 0.17578 0.42969 0.49219 0.64062 0.95312 0.64062zm-0.32812-4.0938c0.25781 0 0.48438 0.039062 0.67188 0.10938 0.32031 0.13672 0.58203 0.38281 0.78125 0.73438v-0.73438h1.2812v4.7969c0 0.65625-0.10938 1.1484-0.32812 1.4844-0.375 0.5625-1.1016 0.84375-2.1719 0.84375-0.64844 0-1.1797-0.125-1.5938-0.375-0.40625-0.25-0.63281-0.63281-0.67188-1.1406h1.4375c0.039063 0.15625 0.10156 0.26953 0.1875 0.34375 0.14453 0.11328 0.38281 0.17188 0.71875 0.17188 0.47656 0 0.79688-0.15625 0.95312-0.46875 0.10156-0.21094 0.15625-0.55469 0.15625-1.0312v-0.32812c-0.125 0.21875-0.26172 0.38281-0.40625 0.48438-0.26172 0.19922-0.60547 0.29688-1.0312 0.29688-0.64844 0-1.1641-0.22266-1.5469-0.67188-0.38672-0.45703-0.57812-1.0781-0.57812-1.8594 0-0.75 0.17969-1.3789 0.54688-1.8906 0.375-0.50781 0.90625-0.76562 1.5938-0.76562z"/></symbol><symbol id="ak" overflow="visible"><path d="m3.3438-5.1719c0.66406 0 1.1875 0.24219 1.5625 0.71875 0.375 0.48047 0.5625 1.1016 0.5625 1.8594 0 0.78125-0.1875 1.4336-0.5625 1.9531-0.36719 0.52344-0.88281 0.78125-1.5469 0.78125-0.41797 0-0.75-0.085938-1-0.25-0.15625-0.10156-0.32422-0.28125-0.5-0.53125v0.64062h-1.2812v-6.8281h1.3125v2.4375c0.16406-0.23828 0.34766-0.42188 0.54688-0.54688 0.23828-0.15625 0.53906-0.23438 0.90625-0.23438zm-0.32812 4.2188c0.33203 0 0.59375-0.13281 0.78125-0.40625 0.19531-0.28125 0.29688-0.64453 0.29688-1.0938 0-0.35156-0.046875-0.64844-0.14062-0.89062-0.17969-0.44531-0.50781-0.67188-0.98438-0.67188-0.48047 0-0.80859 0.21875-0.98438 0.65625-0.09375 0.23047-0.14062 0.53125-0.14062 0.90625 0 0.42969 0.09375 0.78906 0.28125 1.0781 0.19531 0.28125 0.49219 0.42188 0.89062 0.42188z"/></symbol><symbol id="aj" overflow="visible"><path d="m0.25 0c0.03125-0.47656 0.12891-0.89453 0.29688-1.25 0.17578-0.36328 0.51562-0.69141 1.0156-0.98438l0.75-0.4375c0.33203-0.1875 0.56641-0.35156 0.70312-0.5 0.21875-0.20703 0.32812-0.45312 0.32812-0.73438 0-0.32031-0.10156-0.57812-0.29688-0.76562-0.19922-0.19531-0.46094-0.29688-0.78125-0.29688-0.48047 0-0.8125 0.18359-1 0.54688-0.09375 0.19922-0.14844 0.46875-0.15625 0.8125h-0.71875c0.007813-0.48828 0.097656-0.88281 0.26562-1.1875 0.30078-0.53906 0.83594-0.8125 1.6094-0.8125 0.64453 0 1.1133 0.17188 1.4062 0.51562 0.30078 0.34375 0.45312 0.73047 0.45312 1.1562 0 0.44922-0.16406 0.82812-0.48438 1.1406-0.17969 0.1875-0.5 0.41406-0.96875 0.67188l-0.54688 0.29688c-0.25 0.14844-0.44922 0.28125-0.59375 0.40625-0.26172 0.23047-0.42969 0.48047-0.5 0.75h3.0625v0.67188z"/></symbol><symbol id="r" overflow="visible"><path d="m2.1719-5.5938c0.71875 0 1.2383 0.29688 1.5625 0.89062 0.25 0.46094 0.375 1.0898 0.375 1.8906 0 0.76172-0.11719 1.3906-0.34375 1.8906-0.32422 0.71875-0.85938 1.0781-1.6094 1.0781-0.66797 0-1.168-0.28906-1.5-0.875-0.27344-0.48828-0.40625-1.1445-0.40625-1.9688 0-0.63281 0.082031-1.1797 0.25-1.6406 0.30078-0.84375 0.85938-1.2656 1.6719-1.2656zm-0.015625 5.1094c0.36328 0 0.65625-0.16016 0.875-0.48438 0.21875-0.32031 0.32812-0.92578 0.32812-1.8125 0-0.63281-0.078125-1.1562-0.23438-1.5625-0.15625-0.41406-0.46484-0.625-0.92188-0.625-0.40625 0-0.71094 0.19922-0.90625 0.59375-0.1875 0.38672-0.28125 0.96094-0.28125 1.7188 0 0.57422 0.0625 1.0312 0.1875 1.375 0.1875 0.53125 0.50391 0.79688 0.95312 0.79688z"/></symbol><symbol id="k" overflow="visible"></symbol><symbol id="q" overflow="visible"><path d="m0.65625-5.3594h0.71875v1.1719h0.65625v0.57812h-0.65625v2.7344c0 0.14844 0.046875 0.24219 0.14062 0.28125 0.050781 0.03125 0.14453 0.046875 0.28125 0.046875h0.09375c0.039063 0 0.085938-0.003906 0.14062-0.015625v0.5625c-0.074219 0.019531-0.15625 0.035156-0.25 0.046875-0.085937 0.0078125-0.17969 0.015625-0.28125 0.015625-0.32422 0-0.54688-0.082031-0.67188-0.25-0.11719-0.16406-0.17188-0.38281-0.17188-0.65625v-2.7656h-0.5625v-0.57812h0.5625z"/></symbol><symbol id="ai" overflow="visible"><path d="m2.1719-0.45312c0.46875 0 0.78516-0.17578 0.95312-0.53125 0.17578-0.35156 0.26562-0.74219 0.26562-1.1719 0-0.39453-0.0625-0.71094-0.1875-0.95312-0.19922-0.38281-0.53906-0.57812-1.0156-0.57812-0.42969 0-0.74219 0.16797-0.9375 0.5-0.19922 0.32422-0.29688 0.71484-0.29688 1.1719 0 0.44922 0.097656 0.82422 0.29688 1.125 0.19531 0.29297 0.50391 0.4375 0.92188 0.4375zm0.03125-3.8594c0.53906 0 0.99219 0.18359 1.3594 0.54688 0.375 0.35547 0.5625 0.88281 0.5625 1.5781 0 0.67969-0.16797 1.2422-0.5 1.6875-0.32422 0.4375-0.82812 0.65625-1.5156 0.65625-0.57422 0-1.0312-0.19141-1.375-0.57812-0.33594-0.39453-0.5-0.92188-0.5-1.5781 0-0.70703 0.17578-1.2695 0.53125-1.6875 0.35156-0.41406 0.83203-0.625 1.4375-0.625z"/></symbol><symbol id="ah" overflow="visible"><path d="m0.98438-1.4219c0.050781 0.39844 0.23828 0.67188 0.5625 0.82812 0.16406 0.074219 0.35938 0.10938 0.57812 0.10938 0.41406 0 0.72266-0.12891 0.92188-0.39062 0.20703-0.26953 0.3125-0.56641 0.3125-0.89062 0-0.38281-0.12109-0.67969-0.35938-0.89062-0.24219-0.21875-0.52734-0.32812-0.85938-0.32812-0.24219 0-0.44922 0.046875-0.625 0.14062-0.17969 0.09375-0.32422 0.22656-0.4375 0.39062l-0.60938-0.03125 0.42188-3.0156h2.9062v0.67188h-2.375l-0.25 1.5625c0.13281-0.10156 0.25781-0.17578 0.375-0.21875 0.20703-0.09375 0.44531-0.14062 0.71875-0.14062 0.51953 0 0.95703 0.16797 1.3125 0.5 0.35156 0.33594 0.53125 0.75781 0.53125 1.2656 0 0.52344-0.16797 0.98438-0.5 1.3906-0.32422 0.40625-0.83984 0.60938-1.5469 0.60938-0.46094 0-0.86719-0.125-1.2188-0.375-0.34375-0.25781-0.53906-0.65625-0.57812-1.1875z"/></symbol><symbol id="ag" overflow="visible"><path d="m0.6875-4.8281c0.007813-0.28906 0.0625-0.50391 0.15625-0.64062 0.16406-0.23828 0.48438-0.35938 0.95312-0.35938 0.039063 0 0.082031 0.00781 0.125 0.015625h0.17188v0.64062h-0.15625-0.09375c-0.21875 0-0.35156 0.058594-0.39062 0.17188-0.042969 0.10547-0.0625 0.38281-0.0625 0.82812h0.70312v0.5625h-0.70312v3.6094h-0.70312v-3.6094h-0.57812v-0.5625h0.57812z"/></symbol><clipPath id="bf"><path d="m182.11 146.12h3.8516v9.0742h-3.8516z"/></clipPath><clipPath id="bc"><rect width="5" height="2"/></clipPath><g id="ab" clip-path="url(#bc)"><path d="m0.84375 2c0 0.14844-0.097656 0.26562-0.21484 0.26562-0.12109 0-0.21484-0.11719-0.21484-0.26562 0-0.14844 0.09375-0.26562 0.21484-0.26562 0.11719 0 0.21484 0.11719 0.21484 0.26562m0.12891 0c0-0.23438-0.15625-0.42578-0.34375-0.42578-0.19141 0-0.34766 0.19141-0.34766 0.42578s0.15625 0.42969 0.34766 0.42969c0.1875 0 0.34375-0.19531 0.34375-0.42969" fill="#211e1e"/><path d="m2.0938 2c0 0.14844-0.097656 0.26562-0.21484 0.26562-0.12109 0-0.21484-0.11719-0.21484-0.26562 0-0.14844 0.09375-0.26562 0.21484-0.26562 0.11719 0 0.21484 0.11719 0.21484 0.26562m0.12891 0c0-0.23438-0.15625-0.42578-0.34375-0.42578-0.19141 0-0.34766 0.19141-0.34766 0.42578s0.15625 0.42969 0.34766 0.42969c0.1875 0 0.34375-0.19531 0.34375-0.42969" fill="#211e1e"/><path d="m3.3398 2c0 0.14844-0.09375 0.26562-0.21484 0.26562-0.11719 0-0.21484-0.11719-0.21484-0.26562 0-0.14844 0.097657-0.26562 0.21484-0.26562 0.12109 0 0.21484 0.11719 0.21484 0.26562m0.13281 0c0-0.23438-0.15625-0.42578-0.34766-0.42578-0.1875 0-0.34375 0.19141-0.34375 0.42578s0.15625 0.42969 0.34375 0.42969c0.19141 0 0.34766-0.19531 0.34766-0.42969" fill="#211e1e"/><path d="m4.5898 2c0 0.14844-0.097656 0.26562-0.21484 0.26562-0.11719 0-0.21484-0.11719-0.21484-0.26562 0-0.14844 0.097657-0.26562 0.21484-0.26562 0.11719 0 0.21484 0.11719 0.21484 0.26562m0.13281 0c0-0.23438-0.15625-0.42578-0.34766-0.42578-0.1875 0-0.34375 0.19141-0.34375 0.42578s0.15625 0.42969 0.34375 0.42969c0.19141 0 0.34766-0.19531 0.34766-0.42969" fill="#211e1e"/><path d="m0.84375 0c0 0.14844-0.097656 0.26562-0.21484 0.26562-0.12109 0-0.21484-0.11719-0.21484-0.26562s0.09375-0.26562 0.21484-0.26562c0.11719 0 0.21484 0.11719 0.21484 0.26562m0.12891 0c0-0.23438-0.15625-0.42578-0.34375-0.42578-0.19141 0-0.34766 0.19141-0.34766 0.42578s0.15625 0.42969 0.34766 0.42969c0.1875 0 0.34375-0.19531 0.34375-0.42969" fill="#211e1e"/><path d="m2.0898 0c0 0.14844-0.09375 0.26562-0.21484 0.26562-0.11719 0-0.21484-0.11719-0.21484-0.26562s0.097657-0.26562 0.21484-0.26562c0.12109 0 0.21484 0.11719 0.21484 0.26562m0.13281 0c0-0.23438-0.15625-0.42578-0.34766-0.42578-0.1875 0-0.34375 0.19141-0.34375 0.42578s0.15625 0.42969 0.34375 0.42969c0.19141 0 0.34766-0.19531 0.34766-0.42969" fill="#211e1e"/><path d="m3.3398 0c0 0.14844-0.09375 0.26562-0.21484 0.26562-0.11719 0-0.21484-0.11719-0.21484-0.26562s0.097657-0.26562 0.21484-0.26562c0.12109 0 0.21484 0.11719 0.21484 0.26562m0.13281 0c0-0.23438-0.15625-0.42578-0.34766-0.42578-0.1875 0-0.34375 0.19141-0.34375 0.42578s0.15625 0.42969 0.34375 0.42969c0.19141 0 0.34766-0.19531 0.34766-0.42969" fill="#211e1e"/><path d="m4.5898 0c0 0.14844-0.097656 0.26562-0.21484 0.26562-0.11719 0-0.21484-0.11719-0.21484-0.26562s0.097657-0.26562 0.21484-0.26562c0.11719 0 0.21484 0.11719 0.21484 0.26562m0.12891 0c0-0.23438-0.15234-0.42578-0.34375-0.42578-0.1875 0-0.34375 0.19141-0.34375 0.42578s0.15625 0.42969 0.34375 0.42969c0.19141 0 0.34375-0.19531 0.34375-0.42969" fill="#211e1e"/><path d="m5.2148 1c0 0.14844-0.097656 0.26562-0.21484 0.26562-0.11719 0-0.21484-0.11719-0.21484-0.26562 0-0.14844 0.097657-0.26562 0.21484-0.26562 0.11719 0 0.21484 0.11719 0.21484 0.26562m0.12891 0c0-0.23438-0.15234-0.42969-0.34375-0.42969s-0.34375 0.19531-0.34375 0.42969 0.15234 0.42969 0.34375 0.42969 0.34375-0.19531 0.34375-0.42969" fill="#211e1e"/><path d="m3.9648 1c0 0.14844-0.097656 0.26562-0.21484 0.26562-0.11719 0-0.21484-0.11719-0.21484-0.26562 0-0.14844 0.097657-0.26562 0.21484-0.26562 0.11719 0 0.21484 0.11719 0.21484 0.26562m0.12891 0c0-0.23438-0.15234-0.42969-0.34375-0.42969s-0.34375 0.19531-0.34375 0.42969 0.15234 0.42969 0.34375 0.42969 0.34375-0.19531 0.34375-0.42969" fill="#211e1e"/><path d="m2.7148 1c0 0.14844-0.097656 0.26562-0.21484 0.26562-0.11719 0-0.21484-0.11719-0.21484-0.26562 0-0.14844 0.097657-0.26562 0.21484-0.26562 0.11719 0 0.21484 0.11719 0.21484 0.26562m0.12891 0c0-0.23438-0.15234-0.42969-0.34375-0.42969s-0.34375 0.19531-0.34375 0.42969 0.15234 0.42969 0.34375 0.42969 0.34375-0.19531 0.34375-0.42969" fill="#211e1e"/><path d="m1.4648 1c0 0.14844-0.097656 0.26562-0.21484 0.26562-0.11719 0-0.21484-0.11719-0.21484-0.26562 0-0.14844 0.097657-0.26562 0.21484-0.26562 0.11719 0 0.21484 0.11719 0.21484 0.26562m0.12891 0c0-0.23438-0.15234-0.42969-0.34375-0.42969s-0.34375 0.19531-0.34375 0.42969 0.15234 0.42969 0.34375 0.42969 0.34375-0.19531 0.34375-0.42969" fill="#211e1e"/><path d="m0.21484 1c0 0.14844-0.097656 0.26562-0.21484 0.26562s-0.21484-0.11719-0.21484-0.26562c0-0.14844 0.097656-0.26562 0.21484-0.26562s0.21484 0.11719 0.21484 0.26562m0.12891 0c0-0.23438-0.15234-0.42969-0.34375-0.42969s-0.34375 0.19531-0.34375 0.42969 0.15234 0.42969 0.34375 0.42969 0.34375-0.19531 0.34375-0.42969" fill="#211e1e"/></g><pattern id="af" width="5" height="2" patternTransform="matrix(.96094 0 0 -.77417 -1.8037 792.22)" patternUnits="userSpaceOnUse"><use xlink:href="#ab"/></pattern><clipPath id="bb"><path d="m202 144h10v10h-10z"/></clipPath><clipPath id="ba"><path d="m209.08 144.89 2.6133 2.8281-6.668 6.1562-2.6094-2.8281z"/></clipPath><clipPath id="az"><rect width="5" height="2"/></clipPath><g id="aa" clip-path="url(#az)"><path d="m0.84375 2c0 0.14844-0.097656 0.26562-0.21484 0.26562-0.12109 0-0.21484-0.11719-0.21484-0.26562 0-0.14844 0.09375-0.26562 0.21484-0.26562 0.11719 0 0.21484 0.11719 0.21484 0.26562m0.12891 0c0-0.23438-0.15625-0.42578-0.34375-0.42578-0.19141 0-0.34766 0.19141-0.34766 0.42578s0.15625 0.42969 0.34766 0.42969c0.1875 0 0.34375-0.19531 0.34375-0.42969" fill="#211e1e"/><path d="m2.0938 2c0 0.14844-0.097656 0.26562-0.21484 0.26562-0.12109 0-0.21484-0.11719-0.21484-0.26562 0-0.14844 0.09375-0.26562 0.21484-0.26562 0.11719 0 0.21484 0.11719 0.21484 0.26562m0.12891 0c0-0.23438-0.15625-0.42578-0.34375-0.42578-0.19141 0-0.34766 0.19141-0.34766 0.42578s0.15625 0.42969 0.34766 0.42969c0.1875 0 0.34375-0.19531 0.34375-0.42969" fill="#211e1e"/><path d="m3.3398 2c0 0.14844-0.09375 0.26562-0.21484 0.26562-0.11719 0-0.21484-0.11719-0.21484-0.26562 0-0.14844 0.097657-0.26562 0.21484-0.26562 0.12109 0 0.21484 0.11719 0.21484 0.26562m0.13281 0c0-0.23438-0.15625-0.42578-0.34766-0.42578-0.1875 0-0.34375 0.19141-0.34375 0.42578s0.15625 0.42969 0.34375 0.42969c0.19141 0 0.34766-0.19531 0.34766-0.42969" fill="#211e1e"/><path d="m4.5898 2c0 0.14844-0.097656 0.26562-0.21484 0.26562-0.11719 0-0.21484-0.11719-0.21484-0.26562 0-0.14844 0.097657-0.26562 0.21484-0.26562 0.11719 0 0.21484 0.11719 0.21484 0.26562m0.13281 0c0-0.23438-0.15625-0.42578-0.34766-0.42578-0.1875 0-0.34375 0.19141-0.34375 0.42578s0.15625 0.42969 0.34375 0.42969c0.19141 0 0.34766-0.19531 0.34766-0.42969" fill="#211e1e"/><path d="m0.84375 0c0 0.14844-0.097656 0.26562-0.21484 0.26562-0.12109 0-0.21484-0.11719-0.21484-0.26562s0.09375-0.26562 0.21484-0.26562c0.11719 0 0.21484 0.11719 0.21484 0.26562m0.12891 0c0-0.23438-0.15625-0.42578-0.34375-0.42578-0.19141 0-0.34766 0.19141-0.34766 0.42578s0.15625 0.42969 0.34766 0.42969c0.1875 0 0.34375-0.19531 0.34375-0.42969" fill="#211e1e"/><path d="m2.0898 0c0 0.14844-0.09375 0.26562-0.21484 0.26562-0.11719 0-0.21484-0.11719-0.21484-0.26562s0.097657-0.26562 0.21484-0.26562c0.12109 0 0.21484 0.11719 0.21484 0.26562m0.13281 0c0-0.23438-0.15625-0.42578-0.34766-0.42578-0.1875 0-0.34375 0.19141-0.34375 0.42578s0.15625 0.42969 0.34375 0.42969c0.19141 0 0.34766-0.19531 0.34766-0.42969" fill="#211e1e"/><path d="m3.3398 0c0 0.14844-0.09375 0.26562-0.21484 0.26562-0.11719 0-0.21484-0.11719-0.21484-0.26562s0.097657-0.26562 0.21484-0.26562c0.12109 0 0.21484 0.11719 0.21484 0.26562m0.13281 0c0-0.23438-0.15625-0.42578-0.34766-0.42578-0.1875 0-0.34375 0.19141-0.34375 0.42578s0.15625 0.42969 0.34375 0.42969c0.19141 0 0.34766-0.19531 0.34766-0.42969" fill="#211e1e"/><path d="m4.5898 0c0 0.14844-0.097656 0.26562-0.21484 0.26562-0.11719 0-0.21484-0.11719-0.21484-0.26562s0.097657-0.26562 0.21484-0.26562c0.11719 0 0.21484 0.11719 0.21484 0.26562m0.12891 0c0-0.23438-0.15234-0.42578-0.34375-0.42578-0.1875 0-0.34375 0.19141-0.34375 0.42578s0.15625 0.42969 0.34375 0.42969c0.19141 0 0.34375-0.19531 0.34375-0.42969" fill="#211e1e"/><path d="m5.2148 1c0 0.14844-0.097656 0.26562-0.21484 0.26562-0.11719 0-0.21484-0.11719-0.21484-0.26562 0-0.14844 0.097657-0.26562 0.21484-0.26562 0.11719 0 0.21484 0.11719 0.21484 0.26562m0.12891 0c0-0.23438-0.15234-0.42969-0.34375-0.42969s-0.34375 0.19531-0.34375 0.42969 0.15234 0.42969 0.34375 0.42969 0.34375-0.19531 0.34375-0.42969" fill="#211e1e"/><path d="m3.9648 1c0 0.14844-0.097656 0.26562-0.21484 0.26562-0.11719 0-0.21484-0.11719-0.21484-0.26562 0-0.14844 0.097657-0.26562 0.21484-0.26562 0.11719 0 0.21484 0.11719 0.21484 0.26562m0.12891 0c0-0.23438-0.15234-0.42969-0.34375-0.42969s-0.34375 0.19531-0.34375 0.42969 0.15234 0.42969 0.34375 0.42969 0.34375-0.19531 0.34375-0.42969" fill="#211e1e"/><path d="m2.7148 1c0 0.14844-0.097656 0.26562-0.21484 0.26562-0.11719 0-0.21484-0.11719-0.21484-0.26562 0-0.14844 0.097657-0.26562 0.21484-0.26562 0.11719 0 0.21484 0.11719 0.21484 0.26562m0.12891 0c0-0.23438-0.15234-0.42969-0.34375-0.42969s-0.34375 0.19531-0.34375 0.42969 0.15234 0.42969 0.34375 0.42969 0.34375-0.19531 0.34375-0.42969" fill="#211e1e"/><path d="m1.4648 1c0 0.14844-0.097656 0.26562-0.21484 0.26562-0.11719 0-0.21484-0.11719-0.21484-0.26562 0-0.14844 0.097657-0.26562 0.21484-0.26562 0.11719 0 0.21484 0.11719 0.21484 0.26562m0.12891 0c0-0.23438-0.15234-0.42969-0.34375-0.42969s-0.34375 0.19531-0.34375 0.42969 0.15234 0.42969 0.34375 0.42969 0.34375-0.19531 0.34375-0.42969" fill="#211e1e"/><path d="m0.21484 1c0 0.14844-0.097656 0.26562-0.21484 0.26562s-0.21484-0.11719-0.21484-0.26562c0-0.14844 0.097656-0.26562 0.21484-0.26562s0.21484 0.11719 0.21484 0.26562m0.12891 0c0-0.23438-0.15234-0.42969-0.34375-0.42969s-0.34375 0.19531-0.34375 0.42969 0.15234 0.42969 0.34375 0.42969 0.34375-0.19531 0.34375-0.42969" fill="#211e1e"/></g><pattern id="ae" width="5" height="2" patternTransform="matrix(-.65195 -.70595 -.56874 .52523 -.0089686 791.08)" patternUnits="userSpaceOnUse"><use xlink:href="#aa"/></pattern><clipPath id="ay"><path d="m504 178h7v12h-7z"/></clipPath><clipPath id="ax"><path d="m507.26 189.01-3.1133-2.5859 3.6641-8.3047 3.1055 2.5859z"/></clipPath><clipPath id="aw"><rect width="5" height="2"/></clipPath><g id="z" clip-path="url(#aw)"><path d="m0.84375 2c0 0.14844-0.097656 0.26562-0.21484 0.26562-0.12109 0-0.21484-0.11719-0.21484-0.26562 0-0.14844 0.09375-0.26562 0.21484-0.26562 0.11719 0 0.21484 0.11719 0.21484 0.26562m0.12891 0c0-0.23438-0.15625-0.42578-0.34375-0.42578-0.19141 0-0.34766 0.19141-0.34766 0.42578s0.15625 0.42969 0.34766 0.42969c0.1875 0 0.34375-0.19531 0.34375-0.42969" fill="#211e1e"/><path d="m2.0938 2c0 0.14844-0.097656 0.26562-0.21484 0.26562-0.12109 0-0.21484-0.11719-0.21484-0.26562 0-0.14844 0.09375-0.26562 0.21484-0.26562 0.11719 0 0.21484 0.11719 0.21484 0.26562m0.12891 0c0-0.23438-0.15625-0.42578-0.34375-0.42578-0.19141 0-0.34766 0.19141-0.34766 0.42578s0.15625 0.42969 0.34766 0.42969c0.1875 0 0.34375-0.19531 0.34375-0.42969" fill="#211e1e"/><path d="m3.3398 2c0 0.14844-0.09375 0.26562-0.21484 0.26562-0.11719 0-0.21484-0.11719-0.21484-0.26562 0-0.14844 0.097657-0.26562 0.21484-0.26562 0.12109 0 0.21484 0.11719 0.21484 0.26562m0.13281 0c0-0.23438-0.15625-0.42578-0.34766-0.42578-0.1875 0-0.34375 0.19141-0.34375 0.42578s0.15625 0.42969 0.34375 0.42969c0.19141 0 0.34766-0.19531 0.34766-0.42969" fill="#211e1e"/><path d="m4.5898 2c0 0.14844-0.097656 0.26562-0.21484 0.26562-0.11719 0-0.21484-0.11719-0.21484-0.26562 0-0.14844 0.097657-0.26562 0.21484-0.26562 0.11719 0 0.21484 0.11719 0.21484 0.26562m0.13281 0c0-0.23438-0.15625-0.42578-0.34766-0.42578-0.1875 0-0.34375 0.19141-0.34375 0.42578s0.15625 0.42969 0.34375 0.42969c0.19141 0 0.34766-0.19531 0.34766-0.42969" fill="#211e1e"/><path d="m0.84375 0c0 0.14844-0.097656 0.26562-0.21484 0.26562-0.12109 0-0.21484-0.11719-0.21484-0.26562s0.09375-0.26562 0.21484-0.26562c0.11719 0 0.21484 0.11719 0.21484 0.26562m0.12891 0c0-0.23438-0.15625-0.42578-0.34375-0.42578-0.19141 0-0.34766 0.19141-0.34766 0.42578s0.15625 0.42969 0.34766 0.42969c0.1875 0 0.34375-0.19531 0.34375-0.42969" fill="#211e1e"/><path d="m2.0898 0c0 0.14844-0.09375 0.26562-0.21484 0.26562-0.11719 0-0.21484-0.11719-0.21484-0.26562s0.097657-0.26562 0.21484-0.26562c0.12109 0 0.21484 0.11719 0.21484 0.26562m0.13281 0c0-0.23438-0.15625-0.42578-0.34766-0.42578-0.1875 0-0.34375 0.19141-0.34375 0.42578s0.15625 0.42969 0.34375 0.42969c0.19141 0 0.34766-0.19531 0.34766-0.42969" fill="#211e1e"/><path d="m3.3398 0c0 0.14844-0.09375 0.26562-0.21484 0.26562-0.11719 0-0.21484-0.11719-0.21484-0.26562s0.097657-0.26562 0.21484-0.26562c0.12109 0 0.21484 0.11719 0.21484 0.26562m0.13281 0c0-0.23438-0.15625-0.42578-0.34766-0.42578-0.1875 0-0.34375 0.19141-0.34375 0.42578s0.15625 0.42969 0.34375 0.42969c0.19141 0 0.34766-0.19531 0.34766-0.42969" fill="#211e1e"/><path d="m4.5898 0c0 0.14844-0.097656 0.26562-0.21484 0.26562-0.11719 0-0.21484-0.11719-0.21484-0.26562s0.097657-0.26562 0.21484-0.26562c0.11719 0 0.21484 0.11719 0.21484 0.26562m0.12891 0c0-0.23438-0.15234-0.42578-0.34375-0.42578-0.1875 0-0.34375 0.19141-0.34375 0.42578s0.15625 0.42969 0.34375 0.42969c0.19141 0 0.34375-0.19531 0.34375-0.42969" fill="#211e1e"/><path d="m5.2148 1c0 0.14844-0.097656 0.26562-0.21484 0.26562-0.11719 0-0.21484-0.11719-0.21484-0.26562 0-0.14844 0.097657-0.26562 0.21484-0.26562 0.11719 0 0.21484 0.11719 0.21484 0.26562m0.12891 0c0-0.23438-0.15234-0.42969-0.34375-0.42969s-0.34375 0.19531-0.34375 0.42969 0.15234 0.42969 0.34375 0.42969 0.34375-0.19531 0.34375-0.42969" fill="#211e1e"/><path d="m3.9648 1c0 0.14844-0.097656 0.26562-0.21484 0.26562-0.11719 0-0.21484-0.11719-0.21484-0.26562 0-0.14844 0.097657-0.26562 0.21484-0.26562 0.11719 0 0.21484 0.11719 0.21484 0.26562m0.12891 0c0-0.23438-0.15234-0.42969-0.34375-0.42969s-0.34375 0.19531-0.34375 0.42969 0.15234 0.42969 0.34375 0.42969 0.34375-0.19531 0.34375-0.42969" fill="#211e1e"/><path d="m2.7148 1c0 0.14844-0.097656 0.26562-0.21484 0.26562-0.11719 0-0.21484-0.11719-0.21484-0.26562 0-0.14844 0.097657-0.26562 0.21484-0.26562 0.11719 0 0.21484 0.11719 0.21484 0.26562m0.12891 0c0-0.23438-0.15234-0.42969-0.34375-0.42969s-0.34375 0.19531-0.34375 0.42969 0.15234 0.42969 0.34375 0.42969 0.34375-0.19531 0.34375-0.42969" fill="#211e1e"/><path d="m1.4648 1c0 0.14844-0.097656 0.26562-0.21484 0.26562-0.11719 0-0.21484-0.11719-0.21484-0.26562 0-0.14844 0.097657-0.26562 0.21484-0.26562 0.11719 0 0.21484 0.11719 0.21484 0.26562m0.12891 0c0-0.23438-0.15234-0.42969-0.34375-0.42969s-0.34375 0.19531-0.34375 0.42969 0.15234 0.42969 0.34375 0.42969 0.34375-0.19531 0.34375-0.42969" fill="#211e1e"/><path d="m0.21484 1c0 0.14844-0.097656 0.26562-0.21484 0.26562s-0.21484-0.11719-0.21484-0.26562c0-0.14844 0.097656-0.26562 0.21484-0.26562s0.21484 0.11719 0.21484 0.26562m0.12891 0c0-0.23438-0.15234-0.42969-0.34375-0.42969s-0.34375 0.19531-0.34375 0.42969 0.15234 0.42969 0.34375 0.42969 0.34375-0.19531 0.34375-0.42969" fill="#211e1e"/></g><pattern id="ad" width="5" height="2" patternTransform="matrix(.88204 .38134 .30722 -.7106 1.2828 792.61)" patternUnits="userSpaceOnUse"><use xlink:href="#z"/></pattern><clipPath id="av"><path d="m465 145h8v13h-8z"/></clipPath><clipPath id="be"><path d="m469.59 145.57 2.4102 3.8398-4.2734 8.0078-2.4102-3.8398z"/></clipPath><clipPath id="bd"><rect width="5" height="2"/></clipPath><g id="y" clip-path="url(#bd)"><path d="m0.84375 2c0 0.14844-0.097656 0.26562-0.21484 0.26562-0.12109 0-0.21484-0.11719-0.21484-0.26562 0-0.14844 0.09375-0.26562 0.21484-0.26562 0.11719 0 0.21484 0.11719 0.21484 0.26562m0.12891 0c0-0.23438-0.15625-0.42578-0.34375-0.42578-0.19141 0-0.34766 0.19141-0.34766 0.42578s0.15625 0.42969 0.34766 0.42969c0.1875 0 0.34375-0.19531 0.34375-0.42969" fill="#211e1e"/><path d="m2.0938 2c0 0.14844-0.097656 0.26562-0.21484 0.26562-0.12109 0-0.21484-0.11719-0.21484-0.26562 0-0.14844 0.09375-0.26562 0.21484-0.26562 0.11719 0 0.21484 0.11719 0.21484 0.26562m0.12891 0c0-0.23438-0.15625-0.42578-0.34375-0.42578-0.19141 0-0.34766 0.19141-0.34766 0.42578s0.15625 0.42969 0.34766 0.42969c0.1875 0 0.34375-0.19531 0.34375-0.42969" fill="#211e1e"/><path d="m3.3398 2c0 0.14844-0.09375 0.26562-0.21484 0.26562-0.11719 0-0.21484-0.11719-0.21484-0.26562 0-0.14844 0.097657-0.26562 0.21484-0.26562 0.12109 0 0.21484 0.11719 0.21484 0.26562m0.13281 0c0-0.23438-0.15625-0.42578-0.34766-0.42578-0.1875 0-0.34375 0.19141-0.34375 0.42578s0.15625 0.42969 0.34375 0.42969c0.19141 0 0.34766-0.19531 0.34766-0.42969" fill="#211e1e"/><path d="m4.5898 2c0 0.14844-0.097656 0.26562-0.21484 0.26562-0.11719 0-0.21484-0.11719-0.21484-0.26562 0-0.14844 0.097657-0.26562 0.21484-0.26562 0.11719 0 0.21484 0.11719 0.21484 0.26562m0.13281 0c0-0.23438-0.15625-0.42578-0.34766-0.42578-0.1875 0-0.34375 0.19141-0.34375 0.42578s0.15625 0.42969 0.34375 0.42969c0.19141 0 0.34766-0.19531 0.34766-0.42969" fill="#211e1e"/><path d="m0.84375 0c0 0.14844-0.097656 0.26562-0.21484 0.26562-0.12109 0-0.21484-0.11719-0.21484-0.26562s0.09375-0.26562 0.21484-0.26562c0.11719 0 0.21484 0.11719 0.21484 0.26562m0.12891 0c0-0.23438-0.15625-0.42578-0.34375-0.42578-0.19141 0-0.34766 0.19141-0.34766 0.42578s0.15625 0.42969 0.34766 0.42969c0.1875 0 0.34375-0.19531 0.34375-0.42969" fill="#211e1e"/><path d="m2.0898 0c0 0.14844-0.09375 0.26562-0.21484 0.26562-0.11719 0-0.21484-0.11719-0.21484-0.26562s0.097657-0.26562 0.21484-0.26562c0.12109 0 0.21484 0.11719 0.21484 0.26562m0.13281 0c0-0.23438-0.15625-0.42578-0.34766-0.42578-0.1875 0-0.34375 0.19141-0.34375 0.42578s0.15625 0.42969 0.34375 0.42969c0.19141 0 0.34766-0.19531 0.34766-0.42969" fill="#211e1e"/><path d="m3.3398 0c0 0.14844-0.09375 0.26562-0.21484 0.26562-0.11719 0-0.21484-0.11719-0.21484-0.26562s0.097657-0.26562 0.21484-0.26562c0.12109 0 0.21484 0.11719 0.21484 0.26562m0.13281 0c0-0.23438-0.15625-0.42578-0.34766-0.42578-0.1875 0-0.34375 0.19141-0.34375 0.42578s0.15625 0.42969 0.34375 0.42969c0.19141 0 0.34766-0.19531 0.34766-0.42969" fill="#211e1e"/><path d="m4.5898 0c0 0.14844-0.097656 0.26562-0.21484 0.26562-0.11719 0-0.21484-0.11719-0.21484-0.26562s0.097657-0.26562 0.21484-0.26562c0.11719 0 0.21484 0.11719 0.21484 0.26562m0.12891 0c0-0.23438-0.15234-0.42578-0.34375-0.42578-0.1875 0-0.34375 0.19141-0.34375 0.42578s0.15625 0.42969 0.34375 0.42969c0.19141 0 0.34375-0.19531 0.34375-0.42969" fill="#211e1e"/><path d="m5.2148 1c0 0.14844-0.097656 0.26562-0.21484 0.26562-0.11719 0-0.21484-0.11719-0.21484-0.26562 0-0.14844 0.097657-0.26562 0.21484-0.26562 0.11719 0 0.21484 0.11719 0.21484 0.26562m0.12891 0c0-0.23438-0.15234-0.42969-0.34375-0.42969s-0.34375 0.19531-0.34375 0.42969 0.15234 0.42969 0.34375 0.42969 0.34375-0.19531 0.34375-0.42969" fill="#211e1e"/><path d="m3.9648 1c0 0.14844-0.097656 0.26562-0.21484 0.26562-0.11719 0-0.21484-0.11719-0.21484-0.26562 0-0.14844 0.097657-0.26562 0.21484-0.26562 0.11719 0 0.21484 0.11719 0.21484 0.26562m0.12891 0c0-0.23438-0.15234-0.42969-0.34375-0.42969s-0.34375 0.19531-0.34375 0.42969 0.15234 0.42969 0.34375 0.42969 0.34375-0.19531 0.34375-0.42969" fill="#211e1e"/><path d="m2.7148 1c0 0.14844-0.097656 0.26562-0.21484 0.26562-0.11719 0-0.21484-0.11719-0.21484-0.26562 0-0.14844 0.097657-0.26562 0.21484-0.26562 0.11719 0 0.21484 0.11719 0.21484 0.26562m0.12891 0c0-0.23438-0.15234-0.42969-0.34375-0.42969s-0.34375 0.19531-0.34375 0.42969 0.15234 0.42969 0.34375 0.42969 0.34375-0.19531 0.34375-0.42969" fill="#211e1e"/><path d="m1.4648 1c0 0.14844-0.097656 0.26562-0.21484 0.26562-0.11719 0-0.21484-0.11719-0.21484-0.26562 0-0.14844 0.097657-0.26562 0.21484-0.26562 0.11719 0 0.21484 0.11719 0.21484 0.26562m0.12891 0c0-0.23438-0.15234-0.42969-0.34375-0.42969s-0.34375 0.19531-0.34375 0.42969 0.15234 0.42969 0.34375 0.42969 0.34375-0.19531 0.34375-0.42969" fill="#211e1e"/><path d="m0.21484 1c0 0.14844-0.097656 0.26562-0.21484 0.26562s-0.21484-0.11719-0.21484-0.26562c0-0.14844 0.097656-0.26562 0.21484-0.26562s0.21484 0.11719 0.21484 0.26562m0.12891 0c0-0.23438-0.15234-0.42969-0.34375-0.42969s-0.34375 0.19531-0.34375 0.42969 0.15234 0.42969 0.34375 0.42969 0.34375-0.19531 0.34375-0.42969" fill="#211e1e"/></g><pattern id="ac" width="5" height="2" patternTransform="matrix(-.8553 -.43804 -.3529 .68906 -.63456 792.47)" patternUnits="userSpaceOnUse"><use xlink:href="#y"/></pattern></defs><path d="m488.34 45.837-28.992-35.125c-13.504 11.148-29.867 30.305-42.457 52.625-0.32421-1.0976-0.51562-2.3281-0.51562-3.75v-46.527h-9v46.695c0 6.0586 0.0156 11.871 2.7109 16.641-0.9375 1.5859-1.9102 2.1094-4.0117 1.582-2.2617-0.57422-2.2148-4.7852-2.2148-4.7852v-60.133h-65.32v288.48h103.9v-172.31c0-7.4883 1.8984-15.77 5.0273-24.188 1.4414 1.0078 2.5391 1.7578 3.1836 2.168 2.2305 1.4297 3.0117 4.0898 2.3281 7.9141-0.38672 2.1484-1.2148 3.1562-2.4726 4.6875-1.9297 2.3438-4.5664 5.5586-4.5664 12.441v169.07h9v-169.07c0-3.6602 0.94922-4.8164 2.5195-6.7305 1.5938-1.9375 3.418-4.3789 4.375-8.8047 1.8984-8.75-0.24219-18.527-8.8008-24.371 9.543-18.984 23.789-37.004 35.309-46.512" fill="#b0b0b0"/><path d="m453.03 92.349-5.5664 12.695c1.4414 1.0078 2.5391 1.7578 3.1797 2.168 2.2344 1.4297 3.0195 4.0898 2.332 7.9141-0.38672 2.1484-1.2148 3.1602-2.4726 4.6875-1.9258 2.3476-4.5664 5.5586-4.5664 12.441v169.07h9v-169.07c0-3.6602 0.94922-4.8164 2.5195-6.7266 1.5938-1.9414 3.418-4.3828 4.3789-8.8125 1.8906-8.75-0.2461-18.523-8.8047-24.367" fill="#d4d4d4"/><g fill="none"><g stroke-width="2"><g><path d="m381.1 280.54v-267.48" stroke="#fff" stroke-dasharray="14.4, 43.2"/><path d="m361.82 280.54v-267.48" stroke="#fff" stroke-dasharray="14.4, 43.2"/><path d="m342.54 301.54v-288.48" stroke="#facc2b"/><path d="m434.95 77.782c11.398-21.137 26.992-39.688 38.891-49.508" stroke="#fff" stroke-dasharray="14, 32"/><path d="m419.66 301.54v-172.31c0-12.172 3.3516-25.062 8.6016-37.543" stroke="#fff"/></g><path d="m418.97 66.646c12.465-22.566 29.016-42.023 42.602-53.238" stroke="#facc2b" stroke-miterlimit="10"/></g><g stroke="#fff"><g stroke-miterlimit="10"><path d="m400.39 129.23c0-10.953 2.1133-22.191 5.6836-33.227 1.7344-5.3711 3.8164-10.695 6.1641-15.914" stroke-width="4"/><path d="m444.43 103.33c-3.4102 9-5.4805 17.879-5.4805 25.898v172.31" stroke-width="2"/><path d="m486.12 43.146c-11.586 9.5625-25.863 27.555-35.656 46.695" stroke-width="2"/></g><g><path d="m400.38 75.466v-62.41" stroke-width="2"/><path d="m400.38 129.27v-53.805" stroke-width="4"/><path d="m400.38 301.54v-172.27" stroke-width="2"/></g></g></g><path d="m465.7 190.17 0.0234-15.18" fill="#211e1e" stroke="#211e1e" stroke-width=".75"/><path d="m465.19 173.75c-0.26563 0.86718-0.50781 1.4297-0.78516 2.125l2.6445 8e-3c-0.11718-0.25-0.51562-1.2617-0.77734-2.1328-0.27734-0.92969-0.46875-1.7695-0.53516-2.3164-0.0703 0.54687-0.26562 1.3867-0.54687 2.3164" fill="#211e1e"/><path d="m477.59 171.43h13.5" fill="none" stroke="#211e1e" stroke-width=".75"/><path d="m485.09 158.24v9.2578" fill="none" stroke="#211e1e" stroke-width=".75"/><path d="m485.62 168.74c0.26563-0.86719 0.50782-1.4297 0.78516-2.125h-2.6484c0.11719 0.24609 0.51953 1.2578 0.78125 2.125 0.28125 0.92968 0.47656 1.7734 0.54297 2.3203 0.0664-0.54688 0.26172-1.3906 0.53906-2.3203" fill="#211e1e"/><path d="m485.09 109.62v9.4648" fill="none" stroke="#211e1e" stroke-width=".75"/><g fill="#211e1e"><path d="m484.55 108.38c-0.26171 0.86718-0.5039 1.4336-0.78125 2.1289h2.6445c-0.11719-0.25-0.51954-1.2617-0.78125-2.1289-0.28125-0.92969-0.47266-1.7695-0.53907-2.3164-0.0703 0.54687-0.26562 1.3867-0.54297 2.3164"/><g transform="translate(-56 -83.628)"><use x="543.88867" y="240.1553" width="100%" height="100%" xlink:href="#au"/><use x="543.88867" y="235.70731" width="100%" height="100%" xlink:href="#x"/><use x="543.88867" y="231.25929" width="100%" height="100%" xlink:href="#p"/><use x="543.88867" y="229.03529" width="100%" height="100%" xlink:href="#w"/><use x="543.88867" y="226.81129" width="100%" height="100%" xlink:href="#at"/><use x="543.88867" y="222.3633" width="100%" height="100%" xlink:href="#p"/><use x="543.88867" y="220.1393" width="100%" height="100%" xlink:href="#as"/><use x="543.88867" y="215.6913" width="100%" height="100%" xlink:href="#x"/><use x="543.88867" y="211.2433" width="100%" height="100%" xlink:href="#p"/><use x="543.88867" y="209.0193" width="100%" height="100%" xlink:href="#ar"/><use x="543.88867" y="206.7953" width="100%" height="100%" xlink:href="#w"/></g><path d="m472.64 171.43v-2.8711h-3.0039v-2.0352h-7.8125v2.0352h-3.0039v2.8711z"/></g><path d="m465.74 105.68h25.348" fill="none" stroke="#211e1e" stroke-width=".75"/><path d="m462.61 192.28h33.738c2.0078 0 3.6523 1.6445 3.6523 3.6523v33.734c0 2.0117-1.6445 3.6524-3.6523 3.6524h-33.738c-2.0078 0-3.6484-1.6406-3.6484-3.6524v-33.734c0-2.0078 1.6406-3.6523 3.6484-3.6523" fill="#fff"/><path d="m462.61 192.28h33.738c2.0078 0 3.6523 1.6445 3.6523 3.6523v33.734c0 2.0117-1.6445 3.6524-3.6523 3.6524h-33.738c-2.0078 0-3.6484-1.6406-3.6484-3.6524v-33.734c0-2.0078 1.6406-3.6523 3.6484-3.6523z" fill="none" stroke="#211e1e" stroke-width=".25"/><g fill-rule="evenodd"><path d="m463.06 193.2h32.844c1.7539 0 3.1836 1.4336 3.1836 3.1836v32.844c0 1.7539-1.4297 3.1875-3.1836 3.1875h-32.844c-1.7539 0-3.1875-1.4336-3.1875-3.1875v-32.844c0-1.75 1.4336-3.1836 3.1875-3.1836" fill="#211e1e"/><path d="m463.4 194.56h32.164c1.1875 0 2.1562 0.96875 2.1562 2.1562v32.164c0 1.1875-0.96875 2.1602-2.1562 2.1602h-32.164c-1.1875 0-2.1562-0.97265-2.1562-2.1602v-32.164c0-1.1875 0.96875-2.1562 2.1562-2.1562" fill="#fff"/><path d="m470.67 198.04c-0.52344-1.0352 0.27734-2.0976 1.3672-2.0976h1.1211c1.5547 0 3.1094 4e-3 4.6602 4e-3h9.0352c0.70313 0 1.3828 0.32813 1.5703 1.0664 0.12891 0.54297-0.0742 0.94922-0.32421 1.3867-0.63672 1.1055-1.2734 2.2109-1.9062 3.3125-1.6641 2.8945-3.3242 5.7852-4.9883 8.6758-0.14843 0.26562-0.30468 0.53125-0.45703 0.79687-0.52343 0.91797-1.8945 0.94922-2.4531 0.0391-0.41797-0.6875-0.80469-1.3906-1.2031-2.0859-1.7422-3.0156-3.4844-6.0274-5.2305-9.0391-0.39453-0.6875-0.79296-1.375-1.1914-2.0586" fill="#bf2317"/><path d="m480.15 206.97c-0.125 0.23046-0.375 0.3789-0.64063 0.3789-0.26172 0-0.51172-0.14844-0.63672-0.3789l-4.2734-7.3789c-0.0625-0.10938-0.0977-0.24219-0.0977-0.375 0-0.39844 0.32422-0.72656 0.72266-0.72656h8.4336c0.50781 0 0.83594 0.32812 0.83594 0.72656 0 0.13281-0.0391 0.26953-0.10547 0.37891z" fill="#fff"/><path d="m482 200.68c0 0.14062-0.0156 0.26953-0.0274 0.38672-0.0273 0.14062-0.10937 0.26172-0.26172 0.26172h-0.21875v-1.3125h0.21875c0.11328 0 0.19141 0.0586 0.23438 0.18359 0.0312 0.0781 0.0547 0.27734 0.0547 0.48047m0.25781-0.0117c0-0.14062-0.0234-0.30078-0.0469-0.43359-0.0312-0.1875-0.10937-0.32813-0.21875-0.40625-0.0625-0.0508-0.14062-0.0703-0.29687-0.0703h-0.46485v1.8242h0.50391c0.10547 0 0.19531-0.0234 0.25781-0.082 0.17969-0.14062 0.26563-0.41015 0.26563-0.83203m-1.2774 0.91406v-0.24218h-0.66796v-1.582h-0.26172v1.8242zm-1.2383 0v-0.2539h-0.66406v-0.60157h0.37891v-0.25h-0.37891v-0.46093h0.59766v-0.25782h-0.85938v1.8242zm-1.3242-1.8242h-0.25781v1.8242h0.25781zm-0.50781 0h-0.27734l-0.30078 0.66016-0.3125-0.66016h-0.27338l0.44922 1v0.82422h0.26172v-0.82422z" fill="#bf2317"/></g><g fill="#211e1e" fill-rule="evenodd"><path d="m489.1 211.92c0.71875 0 1.3008 0.58204 1.3008 1.3008 0 0.71484-0.58203 1.3008-1.3008 1.3008s-1.3008-0.58594-1.3008-1.3008c0-0.71875 0.58203-1.3008 1.3008-1.3008"/><path d="m485.16 220.12 2.7305-1.8203c0.125-0.53125 0.65235-2.8984 1.6992-3.4492 1.043-0.6836 4.875 2.1406 4.8945 2.1641v4.1172l-0.82812-0.14453-0.32422-3.2891c-0.31641-0.0625-0.62891-0.125-0.94141-0.1875 0.6836 1.7695 0.9336 3.4727 0.54297 4.5977l1.6641 6.7969-1.1211 0.79296-2.4219-6.2852-1.1211 1.1914-1.5547 4.7344-1.4844-0.54297 1.3398-4.9883 1.5508-2.7812-0.59375-2.0547-0.63282 0.82422-2.9609 0.97656z"/><path d="m468.91 223.52 2.4453 0.94922c0.24219 0.0859 0.39844 0.32031 0.38281 0.57422-0.0117 0.30078-0.25781 0.53906-0.55468 0.54687l-6.7344 0.92578-0.0117-0.0117 1.2031-6.6875c0.0195-0.29688 0.26953-0.53125 0.57031-0.53516 0.25391-4e-3 0.48047 0.16406 0.55469 0.40625l0.82422 2.3867c3.0234-2.6992 6.9336-4.1719 10.973-4.1719 1.2188 0 2.5703 0.19141 3.7109 0.45703l-0.0586 3.6524c-1.5781-0.62891-3.4883-1.0195-5.2266-1.0195-2.8594 0-5.7226 0.95312-8.0781 2.5273"/><path d="m476.71 216.48h-2.3164v-4.5547h2.1406v0.63672h-1.4844v1.1523h0.9414v0.625h-0.9414v1.5h1.6602zm-3.7266-3.3398c0-0.38671-0.19531-0.57812-0.58984-0.57812h-0.67188v1.1523h0.67188c0.39453 0 0.58984-0.1914 0.58984-0.57422m0.64063 3.3398h-0.67188l-0.60547-2.1406h-0.625v2.1406h-0.65625v-4.5547h1.3594c0.36328 0 0.65234 0.10938 0.87109 0.32422 0.21875 0.21875 0.32813 0.51562 0.32813 0.89062 0 0.5625-0.21875 0.9336-0.65625 1.1016zm-3.3242 0h-2.3203v-4.5547h2.1406v0.63672h-1.4844v1.1523h0.94141v0.625h-0.94141v1.5h1.6641zm-3.3125 0h-0.65625v-2.0625h-1.2461v2.0625h-0.65625v-4.5547h0.65625v1.8516h1.2461v-1.8516h0.65625z"/><path d="m481.7 225.6c0-0.45703-0.0508-0.83594-0.14453-1.1328-0.11719-0.38672-0.30469-0.57813-0.5586-0.57813-0.27734 0-0.47265 0.1875-0.57812 0.5625-0.0937 0.30469-0.14453 0.69532-0.14453 1.1641 0 0.4375 0.0508 0.82422 0.14453 1.1523 0.10547 0.375 0.30078 0.55859 0.57812 0.55859 0.26563 0 0.45313-0.18359 0.5586-0.55859 0.0937-0.32031 0.14453-0.70703 0.14453-1.168m0.625 0c0 0.65235-0.0898 1.1797-0.25781 1.5859-0.21485 0.51953-0.57032 0.78125-1.0703 0.78125-0.51562 0-0.875-0.26172-1.0898-0.78125-0.17188-0.40625-0.25781-0.93359-0.25781-1.5859 0-0.66015 0.0859-1.1875 0.25781-1.582 0.22656-0.51172 0.58984-0.76953 1.0898-0.76953s0.85547 0.26172 1.0703 0.78516c0.16796 0.40625 0.25781 0.92578 0.25781 1.5664m-3.2188-1.6641h-0.83203v3.9531h-0.65235v-3.9531h-0.83203v-0.60547h2.3164z"/></g><g fill="#fff"><path d="m423.06 171.93-1.8008-5.3984h3.6016z"/><path d="m427.22 171.93-1.8008-5.3984h3.6016z"/><path d="m431.39 171.93-1.8047-5.3984h3.6016z"/><path d="m435.55 171.93-1.7969-5.3984h3.5976z"/><path d="m403.78 171.93-1.8008-5.3984h3.6016z"/><path d="m407.94 171.93-1.8008-5.3984h3.6016z"/><path d="m412.11 171.93-1.8008-5.3984h3.6016z"/><path d="m416.27 171.93-1.8008-5.3984h3.5976z"/></g><g fill="#211e1e"><g><path d="m351.24 256.07v-6.3555h-1.5586l2.5781-4.375 2.3945 4.375h-1.4375v6.3555z"/><path d="m370.52 256.07v-6.3555h-1.5625l2.5781-4.375 2.4024 4.375h-1.4414v6.3555z"/><path d="m389.8 256.07v-6.3555h-1.5586l2.5781-4.375 2.3984 4.375h-1.4375v6.3555z"/><path d="m409.09 256.07v-6.3555h-1.5625l2.5781-4.375 2.3984 4.375h-1.4375v6.3555z"/><path d="m428.36 256.07v-6.3555h-1.5586l2.5781-4.375 2.3984 4.375h-1.4414v6.3555z"/></g><g transform="translate(-56 -83.628)"><use x="406.21869" y="90.674797" width="100%" height="100%" xlink:href="#o"/><use x="413.0777" y="90.674797" width="100%" height="100%" xlink:href="#a"/><use x="415.71869" y="90.674797" width="100%" height="100%" xlink:href="#l"/><use x="421.0007" y="90.674797" width="100%" height="100%" xlink:href="#a"/><use x="423.64169" y="90.674797" width="100%" height="100%" xlink:href="#o"/><use x="430.5007" y="90.674797" width="100%" height="100%" xlink:href="#h"/><use x="434.1962" y="90.674797" width="100%" height="100%" xlink:href="#g"/><use x="440.0007" y="90.674797" width="100%" height="100%" xlink:href="#b"/><use x="445.28271" y="90.674797" width="100%" height="100%" xlink:href="#b"/><use x="450.5647" y="90.674797" width="100%" height="100%" xlink:href="#s"/><use x="457.95569" y="90.674797" width="100%" height="100%" xlink:href="#c"/><use x="463.2377" y="90.674797" width="100%" height="100%" xlink:href="#f"/><use x="465.87869" y="90.674797" width="100%" height="100%" xlink:href="#n"/><use x="471.16071" y="90.674797" width="100%" height="100%" xlink:href="#a"/><use x="473.8017" y="90.674797" width="100%" height="100%" xlink:href="#c"/><use x="479.08371" y="90.674797" width="100%" height="100%" xlink:href="#j"/><use x="484.36569" y="90.674797" width="100%" height="100%" xlink:href="#h"/><use x="488.06119" y="90.674797" width="100%" height="100%" xlink:href="#g"/><use x="493.86569" y="90.674797" width="100%" height="100%" xlink:href="#b"/><use x="499.14771" y="90.674797" width="100%" height="100%" xlink:href="#b"/><use x="504.42969" y="90.674797" width="100%" height="100%" xlink:href="#a"/><use x="507.07071" y="90.674797" width="100%" height="100%" xlink:href="#h"/><use x="510.7662" y="90.674797" width="100%" height="100%" xlink:href="#c"/><use x="516.04822" y="90.674797" width="100%" height="100%" xlink:href="#v"/><use x="524.49371" y="90.674797" width="100%" height="100%" xlink:href="#aq"/><use x="129.5312" y="90.674797" width="100%" height="100%" xlink:href="#ap"/><use x="136.0482" y="90.674797" width="100%" height="100%" xlink:href="#a"/><use x="138.68919" y="90.674797" width="100%" height="100%" xlink:href="#l"/><use x="143.97121" y="90.674797" width="100%" height="100%" xlink:href="#a"/><use x="146.6122" y="90.674797" width="100%" height="100%" xlink:href="#o"/><use x="153.47121" y="90.674797" width="100%" height="100%" xlink:href="#ao"/><use x="159.2757" y="90.674797" width="100%" height="100%" xlink:href="#c"/><use x="164.55769" y="90.674797" width="100%" height="100%" xlink:href="#e"/><use x="170.3622" y="90.674797" width="100%" height="100%" xlink:href="#e"/><use x="176.1667" y="90.674797" width="100%" height="100%" xlink:href="#i"/><use x="181.4487" y="90.674797" width="100%" height="100%" xlink:href="#f"/><use x="184.08971" y="90.674797" width="100%" height="100%" xlink:href="#d"/><use x="186.7307" y="90.674797" width="100%" height="100%" xlink:href="#u"/><use x="191.4807" y="90.674797" width="100%" height="100%" xlink:href="#i"/><use x="196.7627" y="90.674797" width="100%" height="100%" xlink:href="#m"/><use x="202.5672" y="90.674797" width="100%" height="100%" xlink:href="#a"/><use x="205.20821" y="90.674797" width="100%" height="100%" xlink:href="#d"/><use x="207.8492" y="90.674797" width="100%" height="100%" xlink:href="#e"/><use x="213.6537" y="90.674797" width="100%" height="100%" xlink:href="#t"/><use x="216.8172" y="90.674797" width="100%" height="100%" xlink:href="#i"/><use x="222.0992" y="90.674797" width="100%" height="100%" xlink:href="#h"/><use x="225.79469" y="90.674797" width="100%" height="100%" xlink:href="#b"/><use x="231.07671" y="90.674797" width="100%" height="100%" xlink:href="#i"/><use x="236.3587" y="90.674797" width="100%" height="100%" xlink:href="#j"/><use x="241.6407" y="90.674797" width="100%" height="100%" xlink:href="#t"/><use x="244.8042" y="90.674797" width="100%" height="100%" xlink:href="#d"/><use x="247.44521" y="90.674797" width="100%" height="100%" xlink:href="#g"/><use x="253.24969" y="90.674797" width="100%" height="100%" xlink:href="#e"/><use x="109.8187" y="249.3913" width="100%" height="100%" xlink:href="#an"/><use x="116.6777" y="249.3913" width="100%" height="100%" xlink:href="#a"/><use x="119.3187" y="249.3913" width="100%" height="100%" xlink:href="#l"/><use x="124.6007" y="249.3913" width="100%" height="100%" xlink:href="#a"/><use x="127.2417" y="249.3913" width="100%" height="100%" xlink:href="#am"/><use x="134.10069" y="249.3913" width="100%" height="100%" xlink:href="#e"/><use x="139.9052" y="249.3913" width="100%" height="100%" xlink:href="#b"/><use x="145.18719" y="249.3913" width="100%" height="100%" xlink:href="#d"/><use x="147.8282" y="249.3913" width="100%" height="100%" xlink:href="#al"/><use x="153.63271" y="249.3913" width="100%" height="100%" xlink:href="#e"/><use x="159.43719" y="249.3913" width="100%" height="100%" xlink:href="#c"/><use x="164.71919" y="249.3913" width="100%" height="100%" xlink:href="#f"/><use x="167.3602" y="249.3913" width="100%" height="100%" xlink:href="#d"/><use x="170.00121" y="249.3913" width="100%" height="100%" xlink:href="#u"/><use x="174.75121" y="249.3913" width="100%" height="100%" xlink:href="#i"/><use x="180.0332" y="249.3913" width="100%" height="100%" xlink:href="#m"/><use x="185.83771" y="249.3913" width="100%" height="100%" xlink:href="#a"/><use x="188.4787" y="249.3913" width="100%" height="100%" xlink:href="#v"/><use x="196.92419" y="249.3913" width="100%" height="100%" xlink:href="#d"/><use x="199.5652" y="249.3913" width="100%" height="100%" xlink:href="#m"/><use x="205.36971" y="249.3913" width="100%" height="100%" xlink:href="#ak"/><use x="211.17419" y="249.3913" width="100%" height="100%" xlink:href="#f"/><use x="213.8152" y="249.3913" width="100%" height="100%" xlink:href="#g"/><use x="219.61971" y="249.3913" width="100%" height="100%" xlink:href="#j"/><use x="224.9017" y="249.3913" width="100%" height="100%" xlink:href="#n"/><use x="230.1837" y="249.3913" width="100%" height="100%" xlink:href="#a"/><use x="232.82471" y="249.3913" width="100%" height="100%" xlink:href="#j"/><use x="238.1067" y="249.3913" width="100%" height="100%" xlink:href="#h"/><use x="241.8022" y="249.3913" width="100%" height="100%" xlink:href="#g"/><use x="247.6067" y="249.3913" width="100%" height="100%" xlink:href="#b"/><use x="252.8887" y="249.3913" width="100%" height="100%" xlink:href="#b"/><use x="258.17068" y="249.3913" width="100%" height="100%" xlink:href="#s"/><use x="265.56171" y="249.3913" width="100%" height="100%" xlink:href="#c"/><use x="270.84369" y="249.3913" width="100%" height="100%" xlink:href="#f"/><use x="273.48471" y="249.3913" width="100%" height="100%" xlink:href="#n"/></g></g><path d="m22.328 13.552v40.582h20.652c12.52 0 38.402 27.07 38.402 44.031v42.801h42.789c1.9688-19.008 59.074-85.668 96.98-86.832v-40.582z" fill="#b0b0b0"/><g fill="none" stroke="#fff"><g stroke-width="3"><path d="m130.05 61.106h-89.914"/><path d="m130.05 72.954h-74.641"/><path d="m206.93 61.106h-66.465"/><path d="m188.14 72.954h-47.684"/></g><path d="m104.16 83.587h25.117" stroke-width="6"/></g><path d="m162.38 99.923 0.39843-0.39844 0.39844-0.40234-1.5352-1.5312-1.5312-1.5352-0.40234 0.39844-0.39844 0.40234-0.5625-0.5664-0.5625-0.5625-0.5625 0.5625-0.5625 0.5664 5.4219 5.4219 1.125-1.125-0.61328-0.61719z" fill="#211e1e"/><path d="m181.5 120.62c-13 8.75-48.75 8.1641-24.25-18.543" fill="none" stroke="#211e1e" stroke-width=".75"/><path d="m157.75 100.82c-0.79687 0.42969-1.3672 0.65625-2.0586 0.94922l1.875 1.875c0.0898-0.26172 0.51953-1.2617 0.94922-2.0586 0.46094-0.85547 0.92187-1.5859 1.2578-2.0234-0.43359 0.33984-1.168 0.79687-2.0234 1.2578" fill="#211e1e"/><g fill="none" stroke="#facc2b" stroke-width="2"><path d="m221.15 32.329h-90.781"/><path d="m130.37 35.329h90.781"/><path d="m42.981 32.329h-20.652"/><path d="m22.328 35.329h20.652"/><path d="m100.16 80.587v60.379"/><path d="m103.16 140.97v-60.379"/></g><path d="m191.36 124.09 18.859-32.746c0.16016-0.27734 0.26953-0.55078 0.30469-0.875 0.0469-0.44531 0-0.91797-0.16406-1.3398-0.37891-0.96875-1.375-1.6055-2.4024-1.6055l-37.598 0.0156c-0.69141 0-1.3438 0.26954-1.832 0.75391-0.53125 0.53516-0.79688 1.2695-0.75 2.0195 0.0234 0.38672 0.15625 0.75 0.35156 1.0859l18.863 32.676c0.44141 0.76172 1.3242 1.2031 2.1914 1.2031 0.43359 0 0.85937-0.10547 1.2422-0.3125 0.3711-0.20313 0.71875-0.5 0.9336-0.875" fill="#fff"/><path d="m191.36 124.09 18.859-32.746c0.16016-0.27734 0.26953-0.55078 0.30469-0.875 0.0469-0.44531 0-0.91797-0.16406-1.3398-0.37891-0.96875-1.375-1.6055-2.4024-1.6055l-37.598 0.0156c-0.69141 0-1.3438 0.26953-1.832 0.75391-0.53125 0.53515-0.79688 1.2695-0.75 2.0195 0.0234 0.38672 0.15625 0.75 0.35156 1.0859l18.863 32.676c0.44141 0.76172 1.3242 1.2031 2.1914 1.2031 0.43359 0 0.85937-0.10547 1.2422-0.3125 0.3711-0.20313 0.71875-0.5 0.9336-0.875z" fill="none" stroke="#211e1e" stroke-miterlimit="2.613" stroke-width=".25"/><path d="m190.53 123.61c-0.14453 0.22266-0.30078 0.36328-0.53125 0.5-0.42187 0.24219-0.96093 0.26563-1.4102 0.0977-0.3125-0.11328-0.58594-0.32813-0.75391-0.61719l-18.879-32.676c-0.1914-0.33594-0.25781-0.72266-0.1875-1.1055 0.14063-0.73828 0.84375-1.2969 1.5898-1.3008l37.598-0.0156c0.77344 0 1.4414 0.53907 1.5859 1.3047 0.0742 0.375 0.0234 0.73438-0.16797 1.0664z" fill="#bf2317" fill-rule="evenodd"/><path d="m198.14 97.419c0.082-0.14843 0.15235-0.30078 0.20313-0.46484 0.14062-0.45312 0.0508-0.89453-0.21875-1.293-0.29688-0.42969-0.80078-0.69531-1.3281-0.69531l-15.215 8e-3c-0.74609 0-1.4414 0.53125-1.582 1.2695-0.0781 0.38672-0.0312 0.76563 0.16406 1.1094l7.5977 13.18c0.30078 0.52343 0.78906 0.84765 1.4023 0.84765 0.4961-4e-3 1.0508-0.24609 1.3047-0.6875z" fill="#fff" fill-rule="evenodd"/><g fill="#bf2317" fill-rule="evenodd"><path d="m184.44 97.892-0.62109-1.3906h-0.60157l0.94532 2.125v1.793h0.55468v-1.793l0.94922-2.125h-0.60547z"/><path d="m188.25 98.583h0.82812v-0.55078h-0.82812v-0.97657h1.3477v-0.55468h-1.8984v3.918h1.957v-0.54687h-1.4062z"/><path d="m190.87 96.501h-0.54687v3.918h1.957v-0.51953h-1.4102z"/><path d="m194.43 99.438c-0.0664 0.25-0.28516 0.43359-0.55078 0.43359h-0.38282v-2.8164h0.39844c0.23828 0 0.46094 0.16016 0.52344 0.39453 0.0937 0.32422 0.11328 0.67579 0.11719 1.0117 0 0.32422-0.0273 0.66016-0.10547 0.97657m0.58203-1.8516c-0.0547-0.32812-0.16406-0.63281-0.4336-0.84375-0.19531-0.15625-0.4375-0.24218-0.68359-0.24218h-0.94922v3.918h0.94922c0.26953-0.0156 0.47266-0.0703 0.69141-0.24218 0.36328-0.28907 0.42578-0.72657 0.47656-1.1524 0.0508-0.48047 0.0352-0.96484-0.0508-1.4375"/><path d="m186.32 100.42h0.54687v-3.918h-0.54687z"/></g><path d="m221.15 54.138c-37.906 1.1602-95.012 67.82-96.98 86.824" fill="none" stroke="#211e1e"/><path d="m126.11 82.896v-21.344s-0.24609-3.9453 3.9414-3.9453h28.055c3.1133 0 2.2266 1.8086 1.2148 2.9766-1.0156 1.1719-26.637 24.734-26.637 24.734-3.1133 3.1133-6.5742-0.17187-6.5742-2.4219" fill="#fff"/><path d="m126.11 82.896v-21.344s-0.24609-3.9453 3.9414-3.9453h28.055c3.1133 0 2.2266 1.8086 1.2148 2.9766-1.0156 1.1719-26.637 24.734-26.637 24.734-3.1133 3.1133-6.5742-0.17187-6.5742-2.4219z" fill="none" stroke="#211e1e" stroke-width=".5"/><path d="m130.05 60.606c-0.50782 0-0.72266 0.10547-0.76172 0.14454-0.10156 0.10156-0.1836 0.46093-0.1836 0.67968l8e-3 0.0937-4e-3 0.0273v21.344c0.0625 0.19531 0.55469 0.69531 0.83984 0.69531 0.10547 0 0.33594-0.12109 0.61329-0.39453 0 0 19.668-18.129 24.41-22.59zm0 0" fill="#fff" stroke="#211e1e" stroke-linecap="round" stroke-linejoin="round" stroke-width=".5"/><path d="m129.96 71.567h-3.8516v-9.0742h3.8516z" fill="#facc2b"/><g transform="translate(-56 -83.628)" clip-path="url(#bf)"><path d="m182.11 155.2h3.8477v-9.0742h-3.8477z" fill="url(#af)"/></g><path d="m129.96 71.567h-3.8516v-9.0742h3.8516z" fill="none" stroke="#211e1e" stroke-linejoin="bevel" stroke-width=".5"/><g><path d="m126.11 58.646v3.8476h3.8516z" fill="#fff" stroke="#211e1e" stroke-linejoin="round" stroke-width=".5"/><path d="m126.11 75.419v-3.8516h3.8516z" fill="#fff" stroke="#211e1e" stroke-linejoin="round" stroke-width=".5"/><path d="m153.08 61.259 2.6133 2.8281-6.668 6.1562-2.6094-2.8281z" fill="#facc2b"/></g><g transform="translate(-56 -83.628)" clip-path="url(#bb)"><g clip-path="url(#ba)"><path d="m202.41 153.87h9.2774v-8.9844h-9.2774z" fill="url(#ae)"/></g></g><path d="m153.08 61.259 2.6133 2.8281-6.668 6.1562-2.6094-2.8281z" fill="none" stroke="#211e1e" stroke-linejoin="bevel" stroke-width=".5"/><g fill="#fff"><path d="m146.2 72.856 2.8281-2.6133-2.6094-2.8242z" stroke="#211e1e" stroke-linejoin="round" stroke-width=".5"/><path d="m158.52 61.478-2.8281 2.6094-2.6094-2.8281z" stroke="#211e1e" stroke-linejoin="round" stroke-width=".5"/><path d="m135.87 88.458 2.2461-5.2305 2.6875 2.3906z"/><path d="m139.43 91.622 2.2422-5.2305 2.6875 2.3906z"/><path d="m142.99 94.786 2.2422-5.2305 2.6875 2.3906z"/><path d="m146.54 97.95 2.2461-5.2305 2.6875 2.3906z"/></g><path d="m6.4259e-5 280.27h276.57v-64.84h-276.57z" fill="#b0b0b0"/><g fill="none" stroke-width="2"><g stroke="#fff"><path d="m165.84 257.49-164.76 0.01172" stroke-dasharray="14.4, 43.2"/><path d="m234.87 238.2 41.695 0.0156" stroke-dasharray="14.4, 43.2"/><path d="m182.39 276.77-182.39 0.01172"/><path d="m276.57 276.78-59.195-0.0117"/></g><path d="m182.39 218.91-182.39 0.01172" stroke="#facc2b"/><path d="m276.57 218.92-59.195-0.0117" stroke="#facc2b"/><path d="m165.84 238.2h-163.84" stroke="#fff" stroke-dasharray="14.4, 43.2"/><path d="m234.87 257.5h41.695" stroke="#fff" stroke-dasharray="14.4, 43.2"/></g><g fill="#211e1e"><path d="m88.899 205.01 15.18 0.0586" stroke="#211e1e" stroke-width=".75"/><path d="m105.32 204.54c-0.86719-0.26953-1.4297-0.51172-2.1211-0.79688l-0.0156 2.6484c0.2461-0.11719 1.2617-0.51172 2.1328-0.76953 0.92968-0.27734 1.7734-0.46094 2.3203-0.52734-0.54688-0.0703-1.3867-0.26954-2.3164-0.55469"/><path d="m88.895 290.29 15.184 0.0274" stroke="#211e1e" stroke-width=".75"/><path d="m105.32 289.77c-0.86719-0.26172-1.4336-0.5039-2.1289-0.78515l-4e-3 2.6484c0.25-0.11718 1.2617-0.51953 2.1289-0.78125 0.92968-0.27734 1.7734-0.46875 2.3203-0.53515-0.54688-0.0703-1.3906-0.26172-2.3164-0.54688"/></g><path d="m107.64 302.17v13.5" fill="none" stroke="#211e1e" stroke-width=".75"/><path d="m124.82 309.67h-13.258" fill="none" stroke="#211e1e" stroke-width=".75"/><path d="m110.33 310.21c0.86719 0.26172 1.4336 0.50391 2.1289 0.78125v-2.6484c-0.25 0.11718-1.2617 0.52343-2.1289 0.78515-0.92968 0.27735-1.7695 0.47266-2.3164 0.53906 0.54687 0.0703 1.3867 0.26172 2.3164 0.54297" fill="#211e1e"/><path d="m177.45 309.67h-13.465" fill="none" stroke="#211e1e" stroke-width=".75"/><path d="m178.69 309.13c-0.86719-0.26172-1.4297-0.50391-2.1289-0.78125v2.6484c0.25-0.1211 1.2617-0.52344 2.1289-0.78516 0.92968-0.28125 1.7734-0.47266 2.3203-0.53906-0.54688-0.0703-1.3906-0.26172-2.3203-0.54297" fill="#211e1e"/><g transform="translate(-56 -83.628)" fill="#211e1e"><use x="182.543" y="396.10501" width="100%" height="100%" xlink:href="#aj"/><use x="186.991" y="396.10501" width="100%" height="100%" xlink:href="#r"/><use x="191.439" y="396.10501" width="100%" height="100%" xlink:href="#k"/><use x="193.66299" y="396.10501" width="100%" height="100%" xlink:href="#q"/><use x="195.88699" y="396.10501" width="100%" height="100%" xlink:href="#ai"/><use x="200.33501" y="396.10501" width="100%" height="100%" xlink:href="#k"/><use x="202.55901" y="396.10501" width="100%" height="100%" xlink:href="#ah"/><use x="207.007" y="396.10501" width="100%" height="100%" xlink:href="#r"/><use x="211.455" y="396.10501" width="100%" height="100%" xlink:href="#k"/><use x="213.679" y="396.10501" width="100%" height="100%" xlink:href="#ag"/><use x="215.903" y="396.10501" width="100%" height="100%" xlink:href="#q"/></g><path d="m181.39 215.43v64.84" fill="none" stroke="#fff" stroke-width="4"/><path d="m217.87 215.43v64.84" fill="none" stroke="#fff" stroke-width="4"/><g fill="#fff"><path d="m105.44 221.9 5.3984-1.7969v3.5977z"/><path d="m105.44 226.34 5.3984-1.8008v3.5977z"/><path d="m105.44 230.79 5.3984-1.8008v3.5976z"/><path d="m105.44 235.24 5.3984-1.8008v3.6016z"/></g><path d="m21.129 227.64h6.3516v-1.5586l4.375 2.5742-4.375 2.3984v-1.4375h-6.3516z" fill="#211e1e"/><g fill="#fff"><path d="m105.44 241.18 5.3984-1.8008v3.5976z"/><path d="m105.44 245.62 5.3984-1.7969v3.5977z"/><path d="m105.44 250.07 5.3984-1.7969v3.5976z"/><path d="m105.44 254.52 5.3984-1.8008v3.5977z"/></g><path d="m21.129 246.92h6.3516v-1.5586l4.375 2.5781-4.375 2.3984v-1.4414h-6.3516z" fill="#211e1e"/><g fill="#fff"><path d="m105.44 260.45 5.3984-1.7969v3.5976z"/><path d="m105.44 264.9 5.3984-1.8008v3.5976z"/><path d="m105.44 269.35 5.3984-1.8008v3.5977z"/><path d="m105.44 273.79 5.3984-1.8008v3.5977z"/></g><g fill="#211e1e"><path d="m21.129 266.2h6.3516v-1.5586l4.375 2.5781-4.375 2.3945v-1.4375h-6.3516z"/><path d="m107.64 211.99h2.8711v-3h2.0312v-7.8164h-2.0312v-3.0039h-2.8711z"/><path d="m107.64 297.23h2.8711v-3h2.0312v-7.8164h-2.0312v-3.0039h-2.8711z"/></g><path d="m181.39 282.67v33" fill="none" stroke="#211e1e" stroke-width=".75"/><path d="m86.785 287.2v33.738c0 2.0078-1.6406 3.6484-3.6484 3.6484h-33.738c-2.0078 0-3.6524-1.6406-3.6524-3.6484v-33.738c0-2.0078 1.6445-3.6523 3.6524-3.6523h33.738c2.0078 0 3.6484 1.6445 3.6484 3.6523" fill="#fff"/><path d="m86.785 287.2v33.738c0 2.0078-1.6406 3.6484-3.6484 3.6484h-33.738c-2.0078 0-3.6524-1.6406-3.6524-3.6484v-33.738c0-2.0078 1.6445-3.6523 3.6524-3.6523h33.738c2.0078 0 3.6484 1.6445 3.6484 3.6523z" fill="none" stroke="#211e1e" stroke-width=".25"/><g fill-rule="evenodd"><path d="m85.875 287.65v32.844c0 1.7539-1.4336 3.1875-3.1875 3.1875h-32.84c-1.7539 0-3.1875-1.4336-3.1875-3.1875v-32.844c0-1.75 1.4336-3.1836 3.1875-3.1836h32.84c1.7539 0 3.1875 1.4336 3.1875 3.1836" fill="#211e1e"/><path d="m84.508 287.99v32.168c0 1.1836-0.97265 2.1562-2.1602 2.1562h-32.16c-1.1875 0-2.1602-0.97266-2.1602-2.1562v-32.168c0-1.1875 0.97266-2.1562 2.1602-2.1562h32.16c1.1875 0 2.1602 0.96875 2.1602 2.1562" fill="#fff"/><path d="m81.035 295.26c1.0312-0.52735 2.0938 0.27344 2.0938 1.3672v1.1211 4.6602c0 3.0117 0 6.0234-4e-3 9.0312 0 0.70312-0.32422 1.3828-1.0664 1.5703-0.54297 0.1289-0.94531-0.0742-1.3867-0.32422-1.1016-0.63672-2.207-1.2695-3.3125-1.9062-2.8906-1.6602-5.7812-3.3242-8.6758-4.9844-0.26171-0.15234-0.52734-0.30468-0.79296-0.45703-0.91797-0.52734-0.95313-1.8984-0.0391-2.4531 0.6836-0.41797 1.3906-0.80469 2.0859-1.207 3.0156-1.7422 6.0273-3.4844 9.0391-5.2266 0.6875-0.39843 1.3711-0.79687 2.0586-1.1914" fill="#bf2317"/><path d="m72.102 304.74c-0.23047-0.125-0.38281-0.375-0.38281-0.64062 0-0.26172 0.15234-0.51172 0.38281-0.63672l7.375-4.2695c0.11328-0.0664 0.2461-0.10157 0.375-0.10157 0.40235 0 0.72656 0.32422 0.72656 0.72657v8.4297c0 0.50782-0.32421 0.83594-0.72656 0.83594-0.1289 0-0.26562-0.0391-0.375-0.10547z" fill="#fff"/><path d="m78.383 306.59c-0.14062 0-0.26953-0.0117-0.38281-0.0273-0.14063-0.0234-0.26172-0.10547-0.26172-0.26172v-0.21875h1.3125v0.21875c0 0.11718-0.0586 0.1914-0.1875 0.23828-0.0742 0.0312-0.27344 0.0508-0.48047 0.0508m0.0156 0.25781c0.14062 0 0.30078-0.0195 0.43359-0.0469 0.1875-0.0312 0.32813-0.10547 0.40234-0.21875 0.0508-0.0625 0.0703-0.13672 0.0703-0.29297v-0.46875h-1.8242v0.50781c0 0.10156 0.0273 0.19141 0.082 0.25391 0.14062 0.17968 0.41016 0.26562 0.83594 0.26562m-0.91797-1.2773h0.24219v-0.66406h1.582v-0.26563h-1.8242zm0-1.2344h0.25781v-0.66797h0.60156v0.37891h0.25v-0.37891h0.46094v0.59766h0.25391v-0.85937h-1.8242zm0-1.3281h1.8242v-0.25391h-1.8242zm1.8242-0.50391v-0.28125l-0.65625-0.30078 0.65625-0.30859v-0.27735l-0.9961 0.44922h-0.82812v0.26172h0.82812z" fill="#bf2317"/></g><g fill="#211e1e" fill-rule="evenodd"><path d="m67.152 313.69c0 0.71485-0.58593 1.3008-1.3008 1.3008-0.71875 0-1.3008-0.58593-1.3008-1.3008 0-0.71875 0.58203-1.3047 1.3008-1.3047 0.71485 0 1.3008 0.58594 1.3008 1.3047"/><path d="m58.945 309.75 1.8203 2.7266c0.53515 0.1289 2.9023 0.65234 3.4492 1.6992 0.6875 1.043-2.1367 4.875-2.1602 4.8984h-4.1211l0.14454-0.82812 3.2891-0.32813c0.0625-0.3125 0.1289-0.625 0.1875-0.9414-1.7656 0.6875-3.4727 0.9375-4.5977 0.54297l-6.793 1.6641-0.79687-1.1211 6.2891-2.4219-1.1914-1.1172-4.7344-1.5586 0.53906-1.4805 4.9883 1.3359 2.7852 1.5547 2.0547-0.59375-0.82813-0.63672-0.97265-2.9609z"/><path d="m55.555 293.5-0.95313 2.4453c-0.0859 0.23828-0.32031 0.39453-0.57031 0.38281-0.30078-0.0156-0.53906-0.26171-0.54687-0.55859l-0.92969-6.7305 0.0156-0.0117 6.6875 1.1992c0.29688 0.0234 0.53125 0.27344 0.53125 0.57031 4e-3 0.25391-0.16406 0.48047-0.40625 0.5586l-2.3867 0.82031c2.6992 3.0234 4.1758 6.9375 4.1758 10.977 0 1.2188-0.19532 2.5664-0.46094 3.7109l-3.6524-0.0625c0.62891-1.5781 1.0195-3.4844 1.0195-5.2266 0-2.8594-0.95313-5.7227-2.5234-8.0742"/><path d="m62.59 301.3v-2.3164h4.5586v2.1406h-0.64063v-1.4844h-1.1523v0.94141h-0.62109v-0.94141h-1.5039v1.6602zm3.3438-3.7227c0.38282 0 0.57422-0.19922 0.57422-0.59375v-0.67187h-1.1523v0.67187c0 0.39453 0.19531 0.59375 0.57812 0.59375m-3.3438 0.63672v-0.67188l2.1445-0.60546v-0.625h-2.1445v-0.65625h4.5586v1.3594c0 0.36328-0.10938 0.65234-0.32813 0.87109s-0.51562 0.32813-0.88672 0.32813c-0.5664 0-0.93359-0.21875-1.1055-0.65625zm0-3.3242v-2.3164h4.5586v2.1406h-0.64063v-1.4883h-1.1523v0.94531h-0.62109v-0.94531h-1.5039v1.6641zm0-3.3125v-0.65234h2.0664v-1.25h-2.0664v-0.65625h4.5586v0.65625h-1.8555v1.25h1.8555v0.65234z"/><path d="m53.469 306.29c0.46094 0 0.83984-0.0469 1.1367-0.14453 0.38281-0.11719 0.57422-0.30469 0.57422-0.55859 0-0.27735-0.1875-0.46875-0.5586-0.57813-0.30859-0.0937-0.69921-0.14062-1.168-0.14062-0.4375 0-0.82032 0.0469-1.1484 0.14062-0.375 0.10938-0.5625 0.30078-0.5625 0.57813 0 0.26562 0.1875 0.45312 0.5625 0.55859 0.3164 0.0977 0.70703 0.14453 1.1641 0.14453m0 0.625c-0.64844 0-1.1758-0.0859-1.582-0.25781-0.52344-0.21094-0.78516-0.57031-0.78516-1.0703 0-0.51172 0.26172-0.875 0.78516-1.0898 0.40625-0.16797 0.93359-0.2539 1.582-0.2539 0.66406 0 1.1914 0.0859 1.5859 0.2539 0.51172 0.22657 0.76562 0.58985 0.76562 1.0898s-0.26172 0.85937-0.78125 1.0703c-0.40625 0.17187-0.92968 0.25781-1.5703 0.25781m1.6641-3.2148v-0.83203h-3.9492v-0.65625h3.9492v-0.83203h0.60938v2.3203z"/></g><path d="m86.785 175.45v33.738c0 2.0078-1.6406 3.6524-3.6445 3.6524h-33.742c-2.0078 0-3.6484-1.6445-3.6484-3.6524v-33.738c0-2.0078 1.6406-3.6484 3.6484-3.6484h33.742c2.0039 0 3.6445 1.6406 3.6445 3.6484" fill="#fff"/><path d="m86.785 175.45v33.738c0 2.0078-1.6406 3.6524-3.6445 3.6524h-33.742c-2.0078 0-3.6484-1.6445-3.6484-3.6524v-33.738c0-2.0078 1.6406-3.6484 3.6484-3.6484h33.742c2.0039 0 3.6445 1.6406 3.6445 3.6484z" fill="none" stroke="#211e1e" stroke-width=".25"/><g fill-rule="evenodd"><path d="m85.875 175.9v32.844c0 1.75-1.4336 3.1875-3.1836 3.1875h-32.844c-1.7539 0-3.1875-1.4375-3.1875-3.1875v-32.844c0-1.7539 1.4336-3.1875 3.1875-3.1875h32.844c1.75 0 3.1836 1.4336 3.1836 3.1875" fill="#211e1e"/><path d="m84.508 176.24v32.164c0 1.1875-0.96875 2.1562-2.1562 2.1562h-32.164c-1.1875 0-2.1602-0.96875-2.1602-2.1562v-32.164c0-1.1875 0.97266-2.1602 2.1602-2.1602h32.164c1.1875 0 2.1562 0.97265 2.1562 2.1602" fill="#fff"/><path d="m81.035 183.51c1.0352-0.52734 2.0976 0.27735 2.0976 1.3672v1.1211 4.6602c0 3.0117-4e-3 6.0234-4e-3 9.0352 0 0.69922-0.32813 1.3828-1.0664 1.5703-0.54297 0.125-0.94922-0.0742-1.3867-0.32812-1.1055-0.63282-2.2109-1.2695-3.3125-1.9062-2.8945-1.6602-5.7812-3.3203-8.6758-4.9844-0.26562-0.15234-0.53125-0.30469-0.79297-0.45703-0.92187-0.52734-0.95312-1.8945-0.043-2.4531 0.6836-0.41796 1.3906-0.80468 2.0859-1.207 3.0156-1.7422 6.0273-3.4844 9.0391-5.2266 0.6875-0.39844 1.3711-0.79297 2.0586-1.1914" fill="#bf2317"/><path d="m72.106 192.99c-0.23438-0.125-0.38281-0.375-0.38281-0.63672 0-0.26563 0.14843-0.51563 0.38281-0.64063l7.375-4.2695c0.10937-0.0625 0.24219-0.10156 0.375-0.10156 0.39844 0 0.72656 0.32812 0.72656 0.72656v8.4336c0 0.50781-0.32812 0.83203-0.72656 0.83203-0.13281 0-0.26953-0.0391-0.37891-0.10157z" fill="#fff"/><path d="m78.387 194.85c-0.14063 0-0.26953-0.0156-0.38672-0.0273-0.14063-0.0234-0.26172-0.10938-0.26172-0.26172v-0.21875h1.3125v0.21875c0 0.11328-0.0586 0.19141-0.18359 0.23828-0.0781 0.0312-0.27735 0.0508-0.48047 0.0508m0.0117 0.25391c0.14062 0 0.30078-0.0195 0.43359-0.0469 0.1875-0.0312 0.32813-0.10547 0.40625-0.21484 0.0508-0.0625 0.0703-0.14063 0.0703-0.29688v-0.46484h-1.8242v0.50391c0 0.10547 0.0234 0.19531 0.082 0.25781 0.14062 0.17969 0.41015 0.26172 0.83203 0.26172m-0.91407-1.2734h0.24219v-0.66797h1.582v-0.26172h-1.8242zm0-1.2383h0.25391v-0.66406h0.60156v0.3789h0.25v-0.3789h0.46094v0.59375h0.25781v-0.85547h-1.8242zm0-1.3242h1.8242v-0.25781h-1.8242zm1.8242-0.50781v-0.28125l-0.66015-0.30078 0.66015-0.3086v-0.27343l-1 0.44921h-0.82422v0.26172h0.82422z" fill="#bf2317"/></g><g fill="#211e1e" fill-rule="evenodd"><path d="m67.152 182.28c0-0.71875-0.58203-1.3047-1.3008-1.3047s-1.3008 0.58594-1.3008 1.3047 0.58203 1.3008 1.3008 1.3008 1.3008-0.58203 1.3008-1.3008"/><path d="m58.949 186.22 1.8203-2.7305c0.53125-0.125 2.8984-0.64844 3.4492-1.6992 0.68359-1.0391-2.1367-4.875-2.1641-4.8945h-4.1172l0.14453 0.83203 3.2852 0.32422c0.0664 0.3125 0.1289 0.625 0.1914 0.9375-1.7695-0.68359-3.4766-0.93359-4.5976-0.53906l-6.7969-1.6641-0.79297 1.1211 6.2852 2.4219-1.1914 1.1211-4.7344 1.5547 0.54297 1.4805 4.9883-1.3359 2.7812-1.5547 2.0547 0.59375-0.82422 0.63281-0.97656 2.9648z"/><path d="m55.555 202.47-0.94922-2.4453c-0.0859-0.23828-0.32031-0.39453-0.57422-0.38281-0.30078 0.0156-0.53906 0.25781-0.54687 0.55859l-0.92579 6.7305 0.0117 0.0117 6.6875-1.2031c0.29688-0.0195 0.53125-0.26953 0.53516-0.56641 4e-3 -0.25781-0.16406-0.48437-0.40625-0.55859l-2.3906-0.82422c2.7031-3.0234 4.1758-6.9336 4.1758-10.973 0-1.2188-0.19141-2.5664-0.45704-3.7109l-3.6523 0.0625c0.62891 1.5742 1.0195 3.4844 1.0195 5.2227 0 2.8633-0.95312 5.7266-2.5273 8.0781"/><path d="m62.578 207.44h0.63671v-1.6641h1.5039v0.94532h0.625v-0.94532h1.1523v1.4883h0.63672v-2.1406h-4.5547v2.3164m3.3398-3.7109c-0.36719 0-0.57422-0.20703-0.57422-0.58985v-0.67187h1.1523v0.67187c0 0.35157-0.22656 0.58985-0.57812 0.58985m-3.3398 0.64062 2.2383-0.65625c0.16015 0.4336 0.55859 0.65625 1.1016 0.65625 0.73828 0 1.2148-0.48047 1.2148-1.1992v-1.3594h-4.5547v0.65625h2.1406v0.625l-2.1406 0.60547v0.67187m0-3.3242h0.63671v-1.6641h1.5039v0.94141h0.625v-0.94141h1.1523v1.4883h0.63672v-2.1445h-4.5547v2.3203m0-3.2969h4.5547v-0.65234h-1.8555v-1.25h1.8555v-0.65625h-4.5547v0.65625h2.0625v1.25h-2.0625v0.65234"/><path d="m53.445 194.11c-0.52734 0-0.80078-0.0312-1.168-0.14453-0.38281-0.11328-0.55859-0.28906-0.55859-0.55859 0-0.28907 0.17578-0.46485 0.55859-0.57813 0.36719-0.0937 0.65625-0.14453 1.1524-0.14453 0.51172 0 0.8125 0.0312 1.168 0.14453 0.38281 0.11328 0.55859 0.28906 0.55859 0.57813 0 0.26953-0.17578 0.44531-0.57812 0.55859-0.33594 0.0937-0.6211 0.14453-1.1328 0.14453m0 0.62109c0.6836 0 1.1172-0.0625 1.5664-0.2539 0.55859-0.22266 0.78125-0.54297 0.78125-1.0703 0-0.53125-0.22266-0.84766-0.76563-1.0898-0.42968-0.1914-0.89843-0.2539-1.582-0.2539-0.70312 0-1.1367 0.0625-1.582 0.2539-0.54687 0.22656-0.78906 0.54297-0.78906 1.0898 0 0.51171 0.24219 0.84765 0.78906 1.0703 0.42969 0.1914 0.87891 0.2539 1.582 0.2539m1.6602-3.2109h0.60937v-2.3203h-0.60937v0.83204h-3.9492v0.65625h3.9492v0.83203"/></g><g fill="none"><g stroke="#211e1e"><path d="m6.4259e-5 280.27h276.57"/><path d="m276.57 215.43h-276.57"/><path d="m22.328 54.138h20.652c12.52 0 38.402 27.066 38.402 44.027v42.797"/><path d="m221.15 13.552h-198.82"/></g><path d="m447.46 105.04c-5.6523-3.9492-16.688-11.91-27.008-19.367-2.4922-1.8047-4.5039-3.2578-5.6797-4.1016-2.1172-1.5234-3.6133-3.2695-4.6914-5.1797l-1.4336-2.3711" stroke="#fff" stroke-miterlimit="10" stroke-width="3"/><path d="m453.03 92.349c-0.043-0.0312-0.082-0.0625-0.12891-0.0937-3.1562-2.125-14.348-10.176-23.633-16.887-2.5039-1.8086-4.5195-3.2656-5.6992-4.1133-2.6094-1.8789-5.5273-3.9844-6.6836-7.918l-0.96485-3.9102" stroke="#fff" stroke-miterlimit="10" stroke-width="3"/></g><g fill="#fff"><path d="m420.27 68.513-6.0156 12.496c0.0977 0.0742 0.19141 0.15234 0.29297 0.22265 0.55078 0.39844 1.2891 0.9336 2.1719 1.5703l5.957-12.371c-0.8125-0.58984-1.6328-1.2148-2.4062-1.918"/><path d="m425.23 72.7-5.9531 12.371c0.3125 0.22265 0.6289 0.45312 0.95703 0.6914 0.5039 0.36329 1.0078 0.72657 1.5156 1.0938l5.9531-12.375c-0.91797-0.66406-1.75-1.2617-2.4727-1.7812"/><path d="m430.27 76.392-5.9531 12.371c0.82422 0.59375 1.6484 1.1914 2.4727 1.7812l5.9531-12.371c-0.83203-0.59766-1.6562-1.1914-2.4726-1.7812"/><path d="m435.75 79.919-5.9531 12.371c0.83204 0.59765 1.6562 1.1953 2.4727 1.7812l5.9531-12.375c-0.82032-0.58594-1.6445-1.1836-2.4727-1.7774"/><path d="m441.11 84.11-5.9531 12.375c0.83984 0.60547 1.668 1.1992 2.4726 1.7773l5.957-12.375c-0.80468-0.57812-1.6289-1.1719-2.4766-1.7773"/><path d="m446.56 88.204-5.957 12.379c0.85547 0.61328 1.6875 1.207 2.4766 1.7695l5.9609-12.383c-0.76953-0.54688-1.6055-1.1445-2.4805-1.7656"/></g><g fill="none" stroke="#211e1e" stroke-miterlimit="10"><path d="m454.94 301.32v-169.07c0-3.6602 0.94531-4.8164 2.5195-6.7305 1.5938-1.9375 3.418-4.3828 4.375-8.8047 1.8945-8.75-0.24219-18.527-8.7969-24.371 9.5391-18.984 23.785-37.004 35.305-46.512" stroke-linejoin="round"/><path d="m442.43 301.54v-172.31c0-7.4883 1.9024-15.77 5.0312-24.188 1.4414 1.0078 2.5391 1.7578 3.1836 2.168 2.2305 1.4297 3.0156 4.0898 2.3281 7.9141-0.38672 2.1484-1.2188 3.1562-2.4726 4.6875-1.9258 2.3438-4.5664 5.5586-4.5664 12.441v169.07" stroke-linejoin="round"/><path d="m338.54 13.056v288.49"/></g><path d="m410.09 76.396 6.8047-13.059c-0.32421-1.0976-0.51562-2.332-0.51562-3.75v-46.531h-9v46.699c0 6.0586 0.0156 11.871 2.7109 16.641" fill="#d4d4d4"/><path d="m407.38 13.056v46.699c0 6.0586 0.0156 11.871 2.7109 16.641-0.94141 1.5859-1.9102 2.1094-4.0117 1.5781-2.2617-0.5664-2.2148-4.7812-2.2148-4.7812v-60.137" fill="none" stroke="#211e1e" stroke-linejoin="round" stroke-miterlimit="10"/><path d="m459.35 10.712c-13.504 11.148-29.867 30.305-42.457 52.625-0.32421-1.0976-0.51562-2.3281-0.51562-3.75v-46.527" fill="none" stroke="#211e1e" stroke-linejoin="round" stroke-miterlimit="10"/><path d="m451.26 105.38-3.1133-2.5859 3.6641-8.3047 3.1055 2.5859z" fill="#facc2b"/><g transform="translate(-56 -83.628)" clip-path="url(#ay)"><g clip-path="url(#ax)"><path d="m504.15 189.01h6.7695v-10.895h-6.7695z" fill="url(#ad)"/></g></g><path d="m451.26 105.38-3.1133-2.5859 3.6641-8.3047 3.1055 2.5859z" fill="none" stroke="#211e1e" stroke-linejoin="bevel" stroke-width=".5"/><g><path d="m453.54 90.837-1.7227 3.6562 3.1055 2.5859z" fill="#d4d4d4" stroke="#211e1e" stroke-linejoin="round" stroke-width=".5"/><path d="m446.65 106.84 1.5-4.0391 3.1133 2.5859z" fill="#d4d4d4" stroke="#211e1e" stroke-linejoin="round" stroke-width=".5"/><path d="m413.59 61.938 2.4102 3.8398-4.2734 8.0078-2.4102-3.8398z" fill="#facc2b"/></g><g transform="translate(-56 -83.628)" clip-path="url(#av)"><g clip-path="url(#be)"><path d="m465.32 157.41h6.6836v-11.848h-6.6836z" fill="url(#ac)"/></g></g><g stroke="#211e1e" stroke-width=".5"><path d="m413.59 61.938 2.4102 3.8398-4.2734 8.0078-2.4102-3.8398z" fill="none" stroke-linejoin="bevel"/><path d="m409.92 77.181 1.8125-3.3945-2.4102-3.8398z" fill="#d4d4d4" stroke-linejoin="round"/><path d="m417.82 62.384-1.8125 3.3945-2.4141-3.8398z" fill="#d4d4d4" stroke-linejoin="round"/></g></svg>
