<?xml version="1.0" encoding="UTF-8"?>
<svg width="442.21pt" height="708.38pt" version="1.2" viewBox="0 0 442.21 708.38" xmlns="http://www.w3.org/2000/svg" xmlns:xlink="http://www.w3.org/1999/xlink"><defs><symbol id="bd" overflow="visible"><path d="m0.42188-3.3594c0-1.1953 0.32031-2.1172 0.96875-2.7656 0.55078-0.5625 1.2578-0.84375 2.125-0.84375 1.1445 0 1.9844 0.38281 2.5156 1.1406 0.28906 0.41797 0.45312 0.83984 0.48438 1.2656h-1.4375c-0.09375-0.32031-0.21484-0.56641-0.35938-0.73438-0.26172-0.30078-0.64844-0.45312-1.1562-0.45312-0.52344 0-0.93359 0.21484-1.2344 0.64062-0.29297 0.41797-0.4375 1.0078-0.4375 1.7656 0 0.77344 0.15625 1.3516 0.46875 1.7344 0.32031 0.375 0.72656 0.5625 1.2188 0.5625 0.5 0 0.87891-0.16016 1.1406-0.48438 0.14453-0.17578 0.26562-0.44141 0.35938-0.79688h1.4219c-0.125 0.75-0.44531 1.3594-0.95312 1.8281-0.51172 0.46094-1.1641 0.6875-1.9531 0.6875-0.99219 0-1.7656-0.3125-2.3281-0.9375-0.5625-0.63281-0.84375-1.5039-0.84375-2.6094z"/></symbol><symbol id="o" overflow="visible"></symbol><symbol id="ay" overflow="visible"><path d="m-0.015625-3.1562h5.3125v1h-5.3125z"/></symbol><symbol id="ax" overflow="visible"><path d="m5.6875-6.8438v1.2188h-2.0469v5.625h-1.4375v-5.625h-2.0469v-1.2188z"/></symbol><symbol id="aw" overflow="visible"><path d="m3-5.0625h1.3438l0.76562 3.6406 0.79688-3.6406h1.375l-1.4688 5.0625h-1.3594l-0.79688-3.6875-0.79688 3.6875h-1.375l-1.4219-5.0625h1.4219l0.78125 3.6406z"/></symbol><symbol id="ad" overflow="visible"><path d="m2.8906-0.9375c0.38281 0 0.67969-0.13281 0.89062-0.40625 0.20703-0.28125 0.3125-0.67188 0.3125-1.1719 0-0.50781-0.10547-0.89844-0.3125-1.1719-0.21094-0.26953-0.50781-0.40625-0.89062-0.40625-0.38672 0-0.6875 0.13672-0.90625 0.40625-0.21094 0.27344-0.3125 0.66406-0.3125 1.1719 0 0.5 0.10156 0.89062 0.3125 1.1719 0.21875 0.27344 0.51953 0.40625 0.90625 0.40625zm2.5781-1.5781c0 0.74219-0.21484 1.375-0.64062 1.9062-0.42969 0.52344-1.0742 0.78125-1.9375 0.78125-0.86719 0-1.5117-0.25781-1.9375-0.78125-0.42969-0.53125-0.64062-1.1641-0.64062-1.9062 0-0.72656 0.21094-1.3594 0.64062-1.8906 0.42578-0.53906 1.0703-0.8125 1.9375-0.8125 0.86328 0 1.5078 0.27344 1.9375 0.8125 0.42578 0.53125 0.64062 1.1641 0.64062 1.8906z"/></symbol><symbol id="av" overflow="visible"><path d="m0.21875-3.2812h2.6562v1.2656h-2.6562z"/></symbol><symbol id="ac" overflow="visible"><path d="m1.9688 0h-1.3281v-6.8438h1.3281z"/></symbol><symbol id="s" overflow="visible"><path d="m3.4062-2.4531c-0.085937 0.054687-0.16797 0.09375-0.25 0.125-0.085937 0.03125-0.20312 0.0625-0.35938 0.09375l-0.29688 0.046875c-0.27344 0.054687-0.46875 0.11719-0.59375 0.1875-0.21094 0.11719-0.3125 0.30469-0.3125 0.5625 0 0.21875 0.0625 0.38281 0.1875 0.48438 0.125 0.10547 0.28125 0.15625 0.46875 0.15625 0.28125 0 0.53906-0.082031 0.78125-0.25 0.23828-0.16406 0.36328-0.47266 0.375-0.92188zm-0.79688-0.625c0.23828-0.03125 0.41016-0.066406 0.51562-0.10938 0.1875-0.082031 0.28125-0.20703 0.28125-0.375 0-0.20703-0.074219-0.34766-0.21875-0.42188-0.13672-0.082031-0.34375-0.125-0.625-0.125-0.3125 0-0.53906 0.078125-0.67188 0.23438-0.085937 0.10547-0.14062 0.25781-0.17188 0.45312h-1.2812c0.03125-0.4375 0.15625-0.80078 0.375-1.0938 0.34375-0.4375 0.94141-0.65625 1.7969-0.65625 0.55078 0 1.0391 0.10938 1.4688 0.32812 0.4375 0.21875 0.65625 0.63281 0.65625 1.2344v2.3281 0.57812c0.00781 0.17969 0.035156 0.29688 0.078125 0.35938 0.039063 0.0625 0.10938 0.11719 0.20312 0.15625v0.1875h-1.4375c-0.042969-0.10156-0.074219-0.19531-0.09375-0.28125-0.011719-0.09375-0.023437-0.19531-0.03125-0.3125-0.1875 0.19922-0.39844 0.36719-0.625 0.5-0.29297 0.16406-0.61719 0.25-0.96875 0.25-0.46094 0-0.83984-0.13281-1.1406-0.39062-0.29297-0.25781-0.4375-0.62891-0.4375-1.1094 0-0.625 0.23828-1.0703 0.71875-1.3438 0.25781-0.15625 0.64453-0.26562 1.1562-0.32812z"/></symbol><symbol id="v" overflow="visible"><path d="m3.4219-5.1719c0.51953 0 0.94531 0.13672 1.2812 0.40625 0.33203 0.27344 0.5 0.72656 0.5 1.3594v3.4062h-1.3594v-3.0781c0-0.25781-0.039062-0.46094-0.10938-0.60938-0.125-0.25781-0.37109-0.39062-0.73438-0.39062-0.44922 0-0.75781 0.19531-0.92188 0.57812-0.09375 0.19922-0.14062 0.45312-0.14062 0.76562v2.7344h-1.3125v-5.0469h1.2812v0.73438c0.16406-0.25781 0.32812-0.44531 0.48438-0.5625 0.26953-0.19531 0.61328-0.29688 1.0312-0.29688z"/></symbol><symbol id="u" overflow="visible"><path d="m2.6094-4.0938c-0.30469 0-0.54297 0.09375-0.71875 0.28125-0.16797 0.1875-0.27344 0.44922-0.3125 0.78125h2.0625c-0.023437-0.35156-0.13281-0.61719-0.32812-0.79688-0.1875-0.17578-0.42188-0.26562-0.70312-0.26562zm0-1.0938c0.42578 0 0.80469 0.078125 1.1406 0.23438 0.33203 0.15625 0.60938 0.40625 0.82812 0.75 0.19531 0.30469 0.32812 0.65234 0.39062 1.0469 0.03125 0.23047 0.046875 0.5625 0.046875 1h-3.4688c0.019531 0.5 0.17969 0.85547 0.48438 1.0625 0.17578 0.125 0.39453 0.1875 0.65625 0.1875 0.26953 0 0.48828-0.078125 0.65625-0.23438 0.09375-0.082031 0.17578-0.19531 0.25-0.34375h1.3438c-0.03125 0.30469-0.1875 0.60547-0.46875 0.90625-0.42969 0.5-1.0312 0.75-1.8125 0.75-0.64844 0-1.2148-0.20703-1.7031-0.625-0.49219-0.41406-0.73438-1.0938-0.73438-2.0312 0-0.875 0.21875-1.5391 0.65625-2 0.44531-0.46875 1.0234-0.70312 1.7344-0.70312z"/></symbol><symbol id="bc" overflow="visible"><path d="m2.4844-5.1719c0.30078 0 0.57031 0.070312 0.8125 0.20312 0.23828 0.13672 0.42969 0.32031 0.57812 0.54688v-2.4062h1.3438v6.8281h-1.2812v-0.70312c-0.1875 0.30469-0.40625 0.52344-0.65625 0.65625-0.24219 0.13281-0.53906 0.20312-0.89062 0.20312-0.59375 0-1.0938-0.23828-1.5-0.71875-0.39844-0.47656-0.59375-1.0859-0.59375-1.8281 0-0.86328 0.19531-1.5391 0.59375-2.0312 0.39453-0.5 0.92578-0.75 1.5938-0.75zm0.28125 4.2188c0.375 0 0.66016-0.14062 0.85938-0.42188 0.19531-0.28125 0.29688-0.64062 0.29688-1.0781 0-0.61328-0.15625-1.0547-0.46875-1.3281-0.19922-0.15625-0.42188-0.23438-0.67188-0.23438-0.38672 0-0.67188 0.14844-0.85938 0.4375-0.17969 0.29297-0.26562 0.65234-0.26562 1.0781 0 0.46875 0.085938 0.84375 0.26562 1.125 0.1875 0.28125 0.46875 0.42188 0.84375 0.42188z"/></symbol><symbol id="ag" overflow="visible"><path d="m3.3594-5.1719h0.0625 0.125v1.3594c-0.085937-0.007813-0.16406-0.015625-0.23438-0.015625-0.0625-0.007813-0.11719-0.015625-0.15625-0.015625-0.53125 0-0.88672 0.17969-1.0625 0.53125-0.10547 0.1875-0.15625 0.48438-0.15625 0.89062v2.4219h-1.3281v-5.0625h1.25v0.89062c0.20703-0.34375 0.38281-0.57031 0.53125-0.6875 0.25-0.20703 0.57031-0.3125 0.96875-0.3125z"/></symbol><symbol id="af" overflow="visible"><path d="m4.0938-2.5312c0-0.38281-0.089844-0.72656-0.26562-1.0312-0.17969-0.30078-0.46484-0.45312-0.85938-0.45312-0.48047 0-0.80859 0.23047-0.98438 0.6875-0.09375 0.24219-0.14062 0.54688-0.14062 0.92188 0 0.58594 0.15625 0.99609 0.46875 1.2344 0.1875 0.13672 0.40625 0.20312 0.65625 0.20312 0.36328 0 0.64062-0.14062 0.82812-0.42188 0.19531-0.28125 0.29688-0.66016 0.29688-1.1406zm-0.75-2.6406c0.59375 0 1.0938 0.21875 1.5 0.65625 0.41406 0.4375 0.625 1.0781 0.625 1.9219 0 0.89844-0.20312 1.5781-0.60938 2.0469-0.39844 0.46094-0.91406 0.6875-1.5469 0.6875-0.39844 0-0.73047-0.10156-1-0.29688-0.14844-0.11328-0.28906-0.27344-0.42188-0.48438v2.625h-1.3125v-7.0469h1.2656v0.75c0.14453-0.21875 0.29688-0.39062 0.45312-0.51562 0.28906-0.22656 0.64062-0.34375 1.0469-0.34375z"/></symbol><symbol id="ae" overflow="visible"><path d="m0.09375-4.0625v-0.95312h0.70312v-1.4062h1.3125v1.4062h0.82812v0.95312h-0.82812v2.6719c0 0.21094 0.023438 0.33984 0.078125 0.39062 0.050781 0.042969 0.21094 0.0625 0.48438 0.0625h0.125 0.14062v0.98438l-0.625 0.015625c-0.625 0.03125-1.0547-0.070312-1.2812-0.3125-0.15625-0.15625-0.23438-0.39062-0.23438-0.70312v-3.1094z"/></symbol><symbol id="bb" overflow="visible"><path d="m0.125 0 1.7188-2.5625-1.6562-2.4844h1.625l0.84375 1.4688 0.82812-1.4688h1.5781l-1.6719 2.4688 1.7344 2.5781h-1.6562l-0.85938-1.5156-0.89062 1.5156z"/></symbol><symbol id="ba" overflow="visible"><path d="m1.9688-5.6562h-1.3281v-1.2188h1.3281zm-1.3281 0.59375h1.3281v5.0625h-1.3281z"/></symbol><symbol id="az" overflow="visible"><path d="m6.2656-5.1719c0.21875 0 0.4375 0.046875 0.65625 0.14062 0.21875 0.085937 0.41406 0.23438 0.59375 0.45312 0.14453 0.17969 0.23828 0.39062 0.28125 0.64062 0.03125 0.17969 0.046875 0.42969 0.046875 0.75v3.1875h-1.3594v-3.2188c0-0.1875-0.03125-0.34375-0.09375-0.46875-0.11719-0.23828-0.32812-0.35938-0.64062-0.35938-0.36719 0-0.62109 0.15234-0.76562 0.45312-0.074219 0.16797-0.10938 0.35938-0.10938 0.57812v3.0156h-1.3281v-3.0156c0-0.28906-0.03125-0.50781-0.09375-0.65625-0.11719-0.23828-0.33594-0.35938-0.65625-0.35938-0.375 0-0.625 0.12109-0.75 0.35938-0.074219 0.14844-0.10938 0.35547-0.10938 0.625v3.0469h-1.3438v-5.0469h1.2812v0.73438c0.16406-0.25781 0.32031-0.44531 0.46875-0.5625 0.25781-0.19531 0.59375-0.29688 1-0.29688 0.38281 0 0.69531 0.089844 0.9375 0.26562 0.1875 0.15625 0.33203 0.35547 0.4375 0.59375 0.16406-0.28906 0.37891-0.50391 0.64062-0.64062 0.26953-0.14453 0.57031-0.21875 0.90625-0.21875z"/></symbol><symbol id="au" overflow="visible"><path d="m0.6875-6.4531h0.875v5.6875h3.2656v0.76562h-4.1406z"/></symbol><symbol id="a" overflow="visible"><path d="m2.5469-4.8125c0.33203 0 0.65625 0.078125 0.96875 0.23438s0.55078 0.35938 0.71875 0.60938c0.15625 0.24219 0.25781 0.51562 0.3125 0.82812 0.039063 0.21875 0.0625 0.57031 0.0625 1.0469h-3.4375c0.007813 0.46875 0.11719 0.85156 0.32812 1.1406 0.20703 0.29297 0.53516 0.4375 0.98438 0.4375 0.41406 0 0.74219-0.13281 0.98438-0.40625 0.14453-0.16406 0.24219-0.35156 0.29688-0.5625h0.78125c-0.023437 0.17969-0.089844 0.375-0.20312 0.59375-0.11719 0.21094-0.24609 0.38281-0.39062 0.51562-0.24219 0.23047-0.53906 0.38281-0.89062 0.46875-0.1875 0.050781-0.40234 0.078125-0.64062 0.078125-0.59375 0-1.0938-0.21094-1.5-0.64062-0.40625-0.42578-0.60938-1.0234-0.60938-1.7969 0-0.75 0.20312-1.3594 0.60938-1.8281 0.41406-0.47656 0.95703-0.71875 1.625-0.71875zm1.25 2.0781c-0.03125-0.34375-0.10547-0.61328-0.21875-0.8125-0.21875-0.38281-0.58594-0.57812-1.0938-0.57812-0.35547 0-0.65625 0.13672-0.90625 0.40625-0.25 0.26172-0.38281 0.58984-0.39062 0.98438z"/></symbol><symbol id="m" overflow="visible"><path d="m2.2344-4.7969c0.375 0 0.69531 0.09375 0.96875 0.28125 0.15625 0.10547 0.3125 0.25781 0.46875 0.45312v-0.59375h0.71875v4.2812c0 0.59375-0.089844 1.0625-0.26562 1.4062-0.32422 0.63281-0.94531 0.95312-1.8594 0.95312-0.5 0-0.92969-0.11719-1.2812-0.34375-0.34375-0.21875-0.53906-0.57422-0.57812-1.0625h0.8125c0.039063 0.21875 0.11719 0.38281 0.23438 0.5 0.17578 0.17578 0.45703 0.26562 0.84375 0.26562 0.60156 0 1-0.21875 1.1875-0.65625 0.10156-0.25 0.15625-0.69531 0.15625-1.3438-0.16797 0.24219-0.35938 0.42188-0.57812 0.54688-0.21875 0.11328-0.51172 0.17188-0.875 0.17188-0.51172 0-0.96094-0.17969-1.3438-0.54688-0.38672-0.36328-0.57812-0.96094-0.57812-1.7969 0-0.78906 0.19141-1.4062 0.57812-1.8438 0.38281-0.44531 0.84766-0.67188 1.3906-0.67188zm1.4375 2.4219c0-0.58203-0.125-1.0156-0.375-1.2969-0.24219-0.28125-0.54297-0.42188-0.90625-0.42188-0.5625 0-0.94531 0.26172-1.1406 0.78125-0.11719 0.28125-0.17188 0.64844-0.17188 1.0938 0 0.53125 0.10938 0.9375 0.32812 1.2188 0.21875 0.27344 0.50391 0.40625 0.85938 0.40625 0.57031 0 0.97266-0.25391 1.2031-0.76562 0.13281-0.28906 0.20312-0.62891 0.20312-1.0156z"/></symbol><symbol id="d" overflow="visible"><path d="m0.57812-4.7031h0.75v0.67188c0.22656-0.28125 0.46094-0.47656 0.70312-0.59375 0.25-0.125 0.53125-0.1875 0.84375-0.1875 0.66406 0 1.1133 0.23438 1.3438 0.70312 0.13281 0.25 0.20312 0.61719 0.20312 1.0938v3.0156h-0.8125v-2.9688c0-0.28125-0.042969-0.50781-0.125-0.6875-0.13672-0.28906-0.39062-0.4375-0.76562-0.4375-0.1875 0-0.33984 0.015625-0.45312 0.046875-0.21875 0.0625-0.41406 0.19531-0.57812 0.39062-0.13672 0.15625-0.22656 0.32031-0.26562 0.48438-0.03125 0.16797-0.046875 0.40234-0.046875 0.70312v2.4688h-0.79688z"/></symbol><symbol id="k" overflow="visible"><path d="m1.0781-2.2969c0 0.5 0.10156 0.92188 0.3125 1.2656 0.21875 0.34375 0.56641 0.51562 1.0469 0.51562 0.36328 0 0.66016-0.15625 0.89062-0.46875 0.23828-0.32031 0.35938-0.77344 0.35938-1.3594 0-0.60156-0.125-1.0469-0.375-1.3281-0.24219-0.28125-0.53906-0.42188-0.89062-0.42188-0.39844 0-0.71875 0.15234-0.96875 0.45312-0.25 0.30469-0.375 0.75-0.375 1.3438zm1.1875-2.5c0.36328 0 0.66406 0.078125 0.90625 0.23438 0.14453 0.085937 0.30469 0.24219 0.48438 0.46875v-2.3906h0.76562v6.4844h-0.71875v-0.65625c-0.1875 0.29297-0.40625 0.50781-0.65625 0.64062-0.25 0.125-0.53906 0.1875-0.85938 0.1875-0.53125 0-0.99219-0.21875-1.375-0.65625-0.375-0.44531-0.5625-1.0352-0.5625-1.7656 0-0.6875 0.17188-1.2812 0.51562-1.7812 0.35156-0.50781 0.85156-0.76562 1.5-0.76562z"/></symbol><symbol id="ah" overflow="visible"><path d="m3.1719-0.75c0.28906 0 0.53125-0.03125 0.71875-0.09375 0.34375-0.11328 0.625-0.33203 0.84375-0.65625 0.16406-0.25781 0.28906-0.59375 0.375-1 0.039063-0.23828 0.0625-0.46094 0.0625-0.67188 0-0.80078-0.16406-1.4219-0.48438-1.8594-0.3125-0.44531-0.82422-0.67188-1.5312-0.67188h-1.5469v4.9531zm-2.4531-5.7031h2.625c0.88281 0 1.5703 0.3125 2.0625 0.9375 0.4375 0.57422 0.65625 1.3047 0.65625 2.1875 0 0.6875-0.13281 1.3086-0.39062 1.8594-0.44922 0.98047-1.2305 1.4688-2.3438 1.4688h-2.6094z"/></symbol><symbol id="c" overflow="visible"><path d="m0.57812-4.6875h0.8125v4.6875h-0.8125zm0-1.7656h0.8125v0.89062h-0.8125z"/></symbol><symbol id="g" overflow="visible"><path d="m0.60938-4.7031h0.75v0.8125c0.0625-0.15625 0.21094-0.34766 0.45312-0.57812 0.23828-0.22656 0.51562-0.34375 0.82812-0.34375 0.00781 0 0.03125 0.00781 0.0625 0.015625h0.1875v0.84375c-0.042969-0.007813-0.085937-0.015625-0.125-0.015625-0.042969-0.007813-0.089844-0.015625-0.14062-0.015625-0.39844 0-0.70312 0.13281-0.92188 0.39062-0.21094 0.26172-0.3125 0.55859-0.3125 0.89062v2.7031h-0.78125z"/></symbol><symbol id="l" overflow="visible"><path d="m2.3906-4.8438c0.53125 0 0.96094 0.13281 1.2969 0.39062 0.33203 0.26172 0.53516 0.70312 0.60938 1.3281h-0.78125c-0.042969-0.28906-0.14844-0.53125-0.3125-0.71875-0.16797-0.19531-0.4375-0.29688-0.8125-0.29688-0.5 0-0.85938 0.25-1.0781 0.75-0.13672 0.3125-0.20312 0.70312-0.20312 1.1719 0 0.48047 0.097656 0.88281 0.29688 1.2031 0.19531 0.3125 0.50781 0.46875 0.9375 0.46875 0.32031 0 0.57812-0.097656 0.76562-0.29688 0.19531-0.19531 0.33203-0.47266 0.40625-0.82812h0.78125c-0.09375 0.625-0.32031 1.0859-0.67188 1.375-0.34375 0.29297-0.79297 0.4375-1.3438 0.4375-0.61719 0-1.1055-0.22266-1.4688-0.67188-0.36719-0.45703-0.54688-1.0195-0.54688-1.6875 0-0.83203 0.19531-1.4766 0.59375-1.9375 0.40625-0.45703 0.91406-0.6875 1.5312-0.6875z"/></symbol><symbol id="i" overflow="visible"><path d="m0.73438-6.0156h0.79688v1.3125h0.76562v0.64062h-0.76562v3.0781c0 0.15625 0.054688 0.26562 0.17188 0.32812 0.0625 0.03125 0.16406 0.046875 0.3125 0.046875h0.10938c0.050781 0 0.10938-0.003906 0.17188-0.015625v0.625c-0.09375 0.03125-0.19531 0.050781-0.29688 0.0625-0.09375 0.0078125-0.19922 0.015625-0.3125 0.015625-0.36719 0-0.61719-0.09375-0.75-0.28125-0.13672-0.19531-0.20312-0.44141-0.20312-0.73438v-3.125h-0.64062v-0.64062h0.64062z"/></symbol><symbol id="j" overflow="visible"><path d="m2.4531-0.51562c0.51953 0 0.875-0.19531 1.0625-0.59375 0.19531-0.39453 0.29688-0.83594 0.29688-1.3281 0-0.4375-0.070312-0.78906-0.20312-1.0625-0.21875-0.4375-0.60547-0.65625-1.1562-0.65625-0.48047 0-0.82812 0.1875-1.0469 0.5625-0.21875 0.36719-0.32812 0.80859-0.32812 1.3281 0 0.5 0.10938 0.91797 0.32812 1.25 0.21875 0.33594 0.56641 0.5 1.0469 0.5zm0.03125-4.3281c0.60156 0 1.1133 0.20312 1.5312 0.60938 0.41406 0.40625 0.625 1 0.625 1.7812 0 0.76172-0.1875 1.3906-0.5625 1.8906-0.36719 0.49219-0.93359 0.73438-1.7031 0.73438-0.64844 0-1.1641-0.21875-1.5469-0.65625-0.375-0.4375-0.5625-1.0234-0.5625-1.7656 0-0.78906 0.19531-1.4219 0.59375-1.8906 0.40625-0.46875 0.94531-0.70312 1.625-0.70312z"/></symbol><symbol id="b" overflow="visible"></symbol><symbol id="at" overflow="visible"><path d="m0.78125-5.4219c0.007813-0.33203 0.066406-0.57031 0.17188-0.71875 0.17578-0.26953 0.53125-0.40625 1.0625-0.40625h0.15625c0.050781 0 0.10938 0.00781 0.17188 0.015625v0.71875h-0.17188c-0.03125-0.00781-0.070312-0.015625-0.10938-0.015625-0.24219 0-0.38672 0.0625-0.4375 0.1875-0.042969 0.125-0.0625 0.44531-0.0625 0.95312h0.78125v0.625h-0.78125v4.0625h-0.78125v-4.0625h-0.65625v-0.625h0.65625z"/></symbol><symbol id="f" overflow="visible"><path d="m1.1875-1.25c0 0.23047 0.082031 0.41406 0.25 0.54688 0.16406 0.125 0.36328 0.1875 0.59375 0.1875 0.28125 0 0.55078-0.0625 0.8125-0.1875 0.4375-0.21875 0.65625-0.57031 0.65625-1.0625v-0.625c-0.09375 0.0625-0.21875 0.11719-0.375 0.15625-0.15625 0.03125-0.30859 0.058594-0.45312 0.078125l-0.46875 0.0625c-0.29297 0.042969-0.51172 0.10547-0.65625 0.1875-0.24219 0.13672-0.35938 0.35547-0.35938 0.65625zm1.9219-1.6094c0.17578-0.019531 0.29688-0.09375 0.35938-0.21875 0.03125-0.070313 0.046875-0.17578 0.046875-0.3125 0-0.25781-0.10156-0.45312-0.29688-0.57812-0.1875-0.125-0.46094-0.1875-0.8125-0.1875-0.41797 0-0.71094 0.11719-0.875 0.34375-0.09375 0.11719-0.15625 0.29688-0.1875 0.54688h-0.73438c0.007813-0.58203 0.19141-0.98828 0.54688-1.2188 0.36328-0.22656 0.78516-0.34375 1.2656-0.34375 0.55078 0 1.0039 0.10938 1.3594 0.32812 0.34375 0.21094 0.51562 0.53906 0.51562 0.98438v2.7031c0 0.085937 0.015625 0.15234 0.046875 0.20312 0.03125 0.054687 0.097656 0.078125 0.20312 0.078125h0.125c0.039063-0.007813 0.085938-0.019531 0.14062-0.03125v0.57812c-0.125 0.039062-0.21875 0.0625-0.28125 0.0625-0.0625 0.0078125-0.15234 0.015625-0.26562 0.015625-0.27344 0-0.46875-0.09375-0.59375-0.28125-0.0625-0.10156-0.10938-0.25-0.14062-0.4375-0.15625 0.21094-0.38672 0.39062-0.6875 0.54688-0.30469 0.15625-0.63672 0.23438-1 0.23438-0.4375 0-0.79688-0.13281-1.0781-0.39062-0.27344-0.26953-0.40625-0.60156-0.40625-1 0-0.4375 0.13281-0.77344 0.40625-1.0156 0.26953-0.23828 0.62891-0.38281 1.0781-0.4375z"/></symbol><symbol id="t" overflow="visible"><path d="m0.96875-4.7031 1.25 3.8281 1.3125-3.8281h0.875l-1.7812 4.7031h-0.84375l-1.7344-4.7031z"/></symbol><symbol id="e" overflow="visible"><path d="m0.60938-6.4531h0.78125v6.4531h-0.78125z"/></symbol><symbol id="as" overflow="visible"><path d="m3.6875-3.5c0.40625 0 0.72656-0.078125 0.96875-0.23438 0.23828-0.16406 0.35938-0.46094 0.35938-0.89062 0-0.46875-0.16797-0.78516-0.5-0.95312-0.17969-0.082031-0.41797-0.125-0.71875-0.125h-2.125v2.2031zm-2.8906-2.9531h2.9844c0.48828 0 0.89453 0.074219 1.2188 0.21875 0.60156 0.27344 0.90625 0.77734 0.90625 1.5156 0 0.38672-0.085937 0.70312-0.25 0.95312-0.15625 0.25-0.375 0.44922-0.65625 0.59375 0.25 0.10547 0.4375 0.24219 0.5625 0.40625 0.125 0.16797 0.19531 0.4375 0.21875 0.8125l0.03125 0.85938c0.00781 0.25 0.03125 0.43359 0.0625 0.54688 0.050781 0.21094 0.14453 0.34375 0.28125 0.40625v0.14062h-1.0781c-0.03125-0.050781-0.058594-0.11719-0.078125-0.20312-0.011719-0.09375-0.023437-0.26562-0.03125-0.51562l-0.0625-1.0781c-0.023437-0.42578-0.17969-0.71094-0.46875-0.85938-0.16797-0.070313-0.42969-0.10938-0.78125-0.10938h-1.9844v2.7656h-0.875z"/></symbol><symbol id="r" overflow="visible"><path d="m0.57812-4.7031h0.78125v0.67188c0.1875-0.23828 0.35938-0.41016 0.51562-0.51562 0.25781-0.17578 0.55469-0.26562 0.89062-0.26562 0.375 0 0.67578 0.09375 0.90625 0.28125 0.125 0.10547 0.23828 0.26172 0.34375 0.46875 0.17578-0.25781 0.38281-0.44531 0.625-0.5625 0.23828-0.125 0.50391-0.1875 0.79688-0.1875 0.63281 0 1.0664 0.23047 1.2969 0.6875 0.11328 0.25 0.17188 0.57812 0.17188 0.98438v3.1406h-0.8125v-3.2656c0-0.3125-0.078125-0.52344-0.23438-0.64062-0.15625-0.125-0.35156-0.1875-0.57812-0.1875-0.3125 0-0.58594 0.10547-0.8125 0.3125-0.21875 0.21094-0.32812 0.55859-0.32812 1.0469v2.7344h-0.79688v-3.0781c0-0.3125-0.042969-0.53906-0.125-0.6875-0.11719-0.21875-0.33984-0.32812-0.67188-0.32812-0.29297 0-0.5625 0.11719-0.8125 0.34375-0.24219 0.23047-0.35938 0.64844-0.35938 1.25v2.5h-0.79688z"/></symbol><symbol id="q" overflow="visible"><path d="m0.9375-4.7031 0.90625 3.7031 0.92188-3.7031h0.89062l0.92188 3.6875 0.96875-3.6875h0.78125l-1.3594 4.7031h-0.82812l-0.95312-3.6406-0.92188 3.6406h-0.82812l-1.3594-4.7031z"/></symbol><symbol id="h" overflow="visible"><path d="m0.57812-6.4844h0.79688v2.4219c0.1875-0.23828 0.35156-0.41016 0.5-0.51562 0.25781-0.16406 0.57812-0.25 0.95312-0.25 0.6875 0 1.1484 0.24219 1.3906 0.71875 0.13281 0.26172 0.20312 0.625 0.20312 1.0938v3.0156h-0.8125v-2.9688c0-0.34375-0.046875-0.59766-0.14062-0.76562-0.14844-0.25-0.41797-0.375-0.8125-0.375-0.32422 0-0.62109 0.11719-0.89062 0.34375-0.26172 0.21875-0.39062 0.64062-0.39062 1.2656v2.5h-0.79688z"/></symbol><symbol id="ab" overflow="visible"><path d="m0.5625-6.4531h0.76562v3.75l2.0312-2h1l-1.7969 1.7656 1.9062 2.9375h-1.0156l-1.4688-2.375-0.65625 0.60938v1.7656h-0.76562z"/></symbol><symbol id="n" overflow="visible"><path d="m1.0469-1.4844c0.019531 0.27344 0.085938 0.47656 0.20312 0.60938 0.19531 0.26172 0.53906 0.39062 1.0312 0.39062 0.28906 0 0.54688-0.0625 0.76562-0.1875 0.22656-0.13281 0.34375-0.33203 0.34375-0.59375 0-0.20703-0.089844-0.36328-0.26562-0.46875-0.11719-0.0625-0.33984-0.13281-0.67188-0.21875l-0.64062-0.15625c-0.39844-0.10156-0.6875-0.21875-0.875-0.34375-0.34375-0.20703-0.51562-0.5-0.51562-0.875 0-0.44531 0.16016-0.80469 0.48438-1.0781 0.32031-0.28125 0.75391-0.42188 1.2969-0.42188 0.70703 0 1.2188 0.21094 1.5312 0.625 0.19531 0.26172 0.28906 0.54297 0.28125 0.84375h-0.75c-0.011719-0.17578-0.074219-0.33594-0.1875-0.48438-0.17969-0.20703-0.49219-0.3125-0.9375-0.3125-0.30469 0-0.53125 0.058594-0.6875 0.17188-0.15625 0.11719-0.23438 0.26562-0.23438 0.45312 0 0.21094 0.10156 0.375 0.3125 0.5 0.11328 0.074219 0.28516 0.13672 0.51562 0.1875l0.53125 0.125c0.5625 0.13672 0.94141 0.27344 1.1406 0.40625 0.30078 0.19922 0.45312 0.51562 0.45312 0.95312 0 0.41797-0.16406 0.78125-0.48438 1.0938-0.3125 0.30078-0.79297 0.45312-1.4375 0.45312-0.69922 0-1.1953-0.16406-1.4844-0.48438-0.29297-0.32031-0.44922-0.71875-0.46875-1.1875z"/></symbol><symbol id="aa" overflow="visible"><path d="m1.375-4.7031v3.125c0 0.24219 0.035156 0.43359 0.10938 0.57812 0.14453 0.28125 0.40625 0.42188 0.78125 0.42188 0.55078 0 0.92578-0.24219 1.125-0.73438 0.11328-0.25781 0.17188-0.61719 0.17188-1.0781v-2.3125h0.78125v4.7031h-0.73438v-0.6875c-0.10547 0.17969-0.23047 0.32812-0.375 0.45312-0.30469 0.23828-0.67188 0.35938-1.1094 0.35938-0.66797 0-1.1211-0.22266-1.3594-0.67188-0.13672-0.23828-0.20312-0.55469-0.20312-0.95312v-3.2031z"/></symbol><symbol id="z" overflow="visible"><path d="m5.3906-6.4531v0.76562h-2.1875v5.6875h-0.875v-5.6875h-2.1875v-0.76562z"/></symbol><symbol id="ar" overflow="visible"><path d="m0.85938-4.4531v-0.60938c0.57031-0.050781 0.96875-0.14062 1.1875-0.26562 0.22656-0.13281 0.39844-0.44531 0.51562-0.9375h0.625v6.2656h-0.84375v-4.4531z"/></symbol><symbol id="aq" overflow="visible"><path d="m2.0469-6.4531h0.67188l-2.0469 6.4531h-0.67188z"/></symbol><symbol id="ap" overflow="visible"><path d="m0.28125 0c0.03125-0.53906 0.14062-1.0078 0.32812-1.4062 0.19531-0.40625 0.58203-0.77344 1.1562-1.1094l0.84375-0.48438c0.375-0.21875 0.63281-0.40625 0.78125-0.5625 0.23828-0.23828 0.35938-0.51562 0.35938-0.82812 0-0.36328-0.10938-0.65625-0.32812-0.875s-0.51172-0.32812-0.875-0.32812c-0.54297 0-0.91797 0.21094-1.125 0.625-0.11719 0.21875-0.17969 0.52344-0.1875 0.90625h-0.79688c0.007813-0.53906 0.10938-0.98828 0.29688-1.3438 0.34375-0.60156 0.94531-0.90625 1.8125-0.90625 0.72656 0 1.2539 0.19922 1.5781 0.59375 0.33203 0.38672 0.5 0.8125 0.5 1.2812 0 0.51172-0.17969 0.94531-0.53125 1.2969-0.19922 0.21094-0.5625 0.46484-1.0938 0.76562l-0.60938 0.32812c-0.28125 0.15625-0.50781 0.30859-0.67188 0.45312-0.29297 0.25-0.47656 0.53125-0.54688 0.84375h3.4219v0.75z"/></symbol><symbol id="ao" overflow="visible"><path d="m0.65625-6.4531h1.2656l1.8438 5.4531 1.8438-5.4531h1.2344v6.4531h-0.82812v-3.8125-0.65625c0.00781-0.30078 0.015625-0.625 0.015625-0.96875l-1.8281 5.4375h-0.875l-1.8438-5.4375v0.1875 0.73438c0.007813 0.32422 0.015625 0.55859 0.015625 0.70312v3.8125h-0.84375z"/></symbol><symbol id="an" overflow="visible"><path d="m0.89062-6.4531h0.875v6.4531h-0.875z"/></symbol><symbol id="am" overflow="visible"><path d="m0.6875-6.4531h1.0312l3.2656 5.2344v-5.2344h0.82812v6.4531h-0.98438l-3.3125-5.2188v5.2188h-0.82812z"/></symbol><symbol id="al" overflow="visible"><path d="m0.76562-0.95312h0.92188v0.95312h-0.92188z"/></symbol><symbol id="p" overflow="visible"><path d="m1.1094-6.4531 1.2188 5.25 1.4531-5.25h0.95312l1.4688 5.25 1.2031-5.25h0.96875l-1.7031 6.4531h-0.92188l-1.4844-5.3594-1.5 5.3594h-0.92188l-1.6875-6.4531z"/></symbol><symbol id="y" overflow="visible"><path d="m0.23438-0.625 2.7812-3.375h-2.5781v-0.70312h3.6406v0.64062l-2.7656 3.3594h2.8594v0.70312h-3.9375z"/></symbol><symbol id="x" overflow="visible"><path d="m0.76562-6.4531h2.9062c0.57031 0 1.0352 0.16406 1.3906 0.48438 0.35156 0.32422 0.53125 0.77734 0.53125 1.3594 0 0.51172-0.15625 0.95312-0.46875 1.3281-0.3125 0.36719-0.79688 0.54688-1.4531 0.54688h-2.0312v2.7344h-0.875zm3.9375 1.8594c0-0.47656-0.17969-0.80078-0.53125-0.96875-0.1875-0.09375-0.44922-0.14062-0.78125-0.14062h-1.75v2.2344h1.75c0.38281 0 0.69531-0.082031 0.9375-0.25 0.25-0.16406 0.375-0.45703 0.375-0.875z"/></symbol><symbol id="w" overflow="visible"><path d="m3.5156-4.7031h0.875c-0.10547 0.30469-0.35156 0.99219-0.73438 2.0625-0.29297 0.8125-0.53125 1.4766-0.71875 1.9844-0.46094 1.1953-0.78125 1.9258-0.96875 2.1875-0.1875 0.25781-0.51172 0.39062-0.96875 0.39062-0.11719 0-0.20312-0.00781-0.26562-0.015625-0.054687 0-0.125-0.011719-0.21875-0.03125v-0.73438c0.13281 0.039063 0.23438 0.066406 0.29688 0.078125 0.0625 0.00781 0.11719 0.015625 0.17188 0.015625 0.14453 0 0.25-0.027344 0.3125-0.078125 0.070313-0.054687 0.13281-0.10938 0.1875-0.17188 0.007813-0.03125 0.054688-0.15625 0.14062-0.375 0.09375-0.21094 0.16016-0.36719 0.20312-0.46875l-1.7344-4.8438h0.89062l1.2656 3.8281z"/></symbol><symbol id="ak" overflow="visible"><path d="m2.6562-6.5625c-0.46094 0.89844-0.75781 1.5547-0.89062 1.9688-0.21094 0.64844-0.3125 1.3906-0.3125 2.2344s0.11719 1.6211 0.35938 2.3281c0.14453 0.42578 0.42969 1.0508 0.85938 1.875h-0.53125c-0.42969-0.67969-0.69531-1.1094-0.79688-1.2969-0.09375-0.17969-0.20312-0.42188-0.32812-0.73438-0.16797-0.4375-0.28125-0.89844-0.34375-1.3906-0.03125-0.25781-0.046875-0.50391-0.046875-0.73438 0-0.86328 0.13281-1.6328 0.40625-2.3125 0.17578-0.4375 0.53516-1.082 1.0781-1.9375z"/></symbol><symbol id="aj" overflow="visible"><path d="m0.51562-6.4844h0.76562v2.3438c0.17578-0.21875 0.38281-0.38281 0.625-0.5 0.23828-0.125 0.5-0.1875 0.78125-0.1875 0.58203 0 1.0547 0.20312 1.4219 0.60938 0.36328 0.39844 0.54688 0.99219 0.54688 1.7812 0 0.74219-0.18359 1.3594-0.54688 1.8594-0.35547 0.49219-0.85156 0.73438-1.4844 0.73438-0.35547 0-0.65625-0.089844-0.90625-0.26562-0.14844-0.10156-0.30469-0.26953-0.46875-0.5v0.60938h-0.73438zm2.0625 5.9375c0.42578 0 0.74219-0.16406 0.95312-0.5 0.21875-0.34375 0.32812-0.79688 0.32812-1.3594 0-0.48828-0.10938-0.89453-0.32812-1.2188-0.21094-0.33203-0.52344-0.5-0.9375-0.5-0.35547 0-0.66797 0.13672-0.9375 0.40625-0.27344 0.26172-0.40625 0.69922-0.40625 1.3125 0 0.44922 0.050781 0.80859 0.15625 1.0781 0.20703 0.52344 0.59766 0.78125 1.1719 0.78125z"/></symbol><symbol id="ai" overflow="visible"><path d="m0.3125 1.8438c0.46875-0.91797 0.76953-1.5859 0.90625-2 0.19531-0.625 0.29688-1.3594 0.29688-2.2031 0-0.85156-0.11719-1.6289-0.34375-2.3281-0.15625-0.4375-0.44922-1.0625-0.875-1.875h0.53125c0.44531 0.71875 0.71875 1.168 0.8125 1.3438 0.10156 0.16797 0.20703 0.39844 0.3125 0.6875 0.14453 0.36719 0.24219 0.73047 0.29688 1.0938 0.0625 0.35547 0.09375 0.69922 0.09375 1.0312 0 0.86719-0.13672 1.6367-0.40625 2.3125-0.17969 0.4375-0.53906 1.082-1.0781 1.9375z"/></symbol></defs><path d="m144.19 685v-643l48.77 1.0078s-0.34765 268.77-0.34765 270.83c-4e-3 3.4375 3.6719 3.6172 4.6445 0.10937 0.71484-2.5703 3.5977-14.934 3.5977-14.934l13.129-54.113 13.633-55.902s6.3281-21.984 8.1094-32.859c1.5-9.168 3.082-29.992 2.168-43.5-0.66797-9.832-9.2461-50.367-19.5-68.984l32.68 1.3398s2.0391 4.875 6.2812 16.906c3.6133 10.246 8.3281 25.688 10.43 47.727 0.70313 7.3906 1.043 15.523 1.1758 24.453 0.0469 3.2539 2.6016 6.9844 7.0039 2.1875 11.387-12.406 35.281-36.207 60.223-47.348 0.41797-0.1875 5.2109-2.5352 5.4492-2.6328l10.102 26.691c-4.8008 2.6133-9.3242 5.1094-10.961 6.0781-7.4922 4.4414-14.203 9.8867-20.707 15.281-18.242 15.121-31.57 35.281-40.84 56.715-1.7305 4.0078-6.7578 25.312-9.8242 37.758l-30.621 127.71c-3.9219 14.562-4.2422 38.531-4.2461 38.711v282.76z" fill="#b0b0b0" stroke="#211e1e"/><g fill="#1e1c1c"><path d="m237.75 297.89 1.6602-5.8516 1.4375 0.40625-1.2305-4.707-3.3516 3.4062 1.3242 0.375-1.6602 5.8555z"/><path d="m218.81 293.05 1.6602-5.8555 1.4375 0.40625-1.2305-4.707-3.3516 3.4102 1.3242 0.375-1.6602 5.8555z"/><path d="m162.03 657.42v-6.0898h1.4961l-2.4688-4.1914-2.2969 4.1914h1.3789v6.0898z"/><path d="m180.92 657.42v-6.0898h1.4961l-2.4688-4.1914-2.2969 4.1914h1.3789v6.0898z"/><path d="m199.82 657.42v-6.0898h1.4922l-2.4648-4.1914-2.2969 4.1914h1.375v6.0898z"/><path d="m218.71 657.42v-6.0898h1.4922l-2.4648-4.1914-2.2969 4.1914h1.375v6.0898z"/></g><path d="m189.25 323.97 0.0156 86.758" fill="none" stroke="#fff" stroke-width="4"/><path d="m188.18 39.48 0.0859 284.49" fill="none" stroke="#fff" stroke-width="2"/><g fill="#1e1c1c"><path d="m248.89 90.758-1.3867-5.9258 1.4531-0.33985-3.3594-3.5156-1.2773 4.6016 1.3398-0.3125 1.3906 5.9258z"/><path d="m325.39 113.03 4.7969-3.7461 0.91797 1.1758 1.7812-4.5274-4.7188 0.77344 0.85156 1.0859-4.7969 3.75z"/><path d="m161.46 114.62v-6.0859h1.4922l-2.4688-4.1914-2.2969 4.1914h1.3789v6.0859z"/><path d="m180.36 114.62v-6.0859h1.4922l-2.4688-4.1914-2.2969 4.1914h1.3789v6.0859z"/></g><g fill="none"><g stroke="#fff"><path d="m262.76 143.4c2.3242-27.715-2.2695-56.848-12.695-85.352" stroke-width="2"/><path d="m252.51 195.04 3.7852-17.352s0.875-3.8047 1.2031-4.9688c2.6875-9.5234 4.4219-19.328 5.2617-29.316" stroke-width="4"/><path d="m235.22 265.49 18.602-75.906" stroke-width="4"/><path d="m209.55 663.28 0.0899-260.32s-1.8945-27.84 2.2422-43.195l23.34-94.273" stroke-dasharray="14.4, 43.2" stroke-width="2"/><path d="m189.27 490.62v-96.129s-0.45313-24.648 3.6797-40.008l7.5547-30.617" stroke-width="4"/><path d="m189.27 605.67v-115.05" stroke-dasharray="4.32, 12.96" stroke-width="4"/><path d="m366.05 100.28c-4.0312 1.5703-8.0156 3.3008-11.941 5.1797-36.164 17.328-64.492 46.32-79.762 81.633-2.6836 6.1992-9.3555 36.211-10.109 39.613-0.38281 1.4922-30.848 127.35-30.848 127.35l0.0312-0.125c-4.2539 15.789-4.5781 40.223-4.5898 41.254v276.96" stroke-width="2"/><path d="m168.99 663.28v-605.96" stroke-dasharray="14.4, 43.2" stroke-width="2"/></g><g stroke-width="2"><path d="m149.71 42.004v643" stroke="#facc2b"/><path d="m275.34 146.88-8.3594 5.0234-4.3594-7.6289" stroke="#fff"/><path d="m269.79 155.21-5.082 2.8476-2.6523-4.7383" stroke="#fff"/><path d="m276.16 145.87c0.2539-0.34766 0.51172-0.69531 0.76953-1.0391 5.6289-7.4766 12.148-14.227 18.992-20.68 1.1953-1.125 2.3984-2.2422 3.6055-3.3516 18.344-16.836 40.613-29.777 65.262-37.859" stroke="#facc2b"/></g><g stroke="#fff"><path d="m253.09 192.63c3.9727-14.957 11.105-28.273 19.055-40.871 1.2695-2.0195 2.6133-3.9805 4.0117-5.8906" stroke-width="4"/><path d="m201.33 324.26-7.4531 6.8789-4.8047-5.3047" stroke-width="2"/><path d="m198.37 335.34-5.2617 4.7578-4.043-4.4648" stroke-width="2"/></g></g><g fill="#fff"><path d="m291.9 69.164h-175.38v-69.164h175.38z"/><path d="m123.96 667.05h117.99v41.328h-117.99z"/><path d="m325.43 87.887 22.027 30.668 28.863-10.117-5.3203-39.219z"/></g><path d="m200.5 323.88 36.062-146.19s0.875-3.8047 1.207-4.9688c9.3008-32.984 8-63.793-2.8398-99.629" fill="none" stroke="#facc2b" stroke-width="2"/><path d="m263.66 70.977-38.609 12.312-5.1719-18.09 43.477-1.0625z" fill="#fff"/><g transform="translate(-77.273 -45.023)" fill="#211e1e"><use x="220.94141" y="104.2471" width="100%" height="100%" xlink:href="#bd"/><use x="227.8004" y="104.2471" width="100%" height="100%" xlink:href="#o"/><use x="230.44141" y="104.2471" width="100%" height="100%" xlink:href="#ay"/><use x="235.7234" y="104.2471" width="100%" height="100%" xlink:href="#o"/><use x="238.3644" y="104.2471" width="100%" height="100%" xlink:href="#ax"/><use x="243.46684" y="104.2471" width="100%" height="100%" xlink:href="#aw"/><use x="250.85785" y="104.2471" width="100%" height="100%" xlink:href="#ad"/><use x="256.66235" y="104.2471" width="100%" height="100%" xlink:href="#av"/><use x="259.82584" y="104.2471" width="100%" height="100%" xlink:href="#ac"/><use x="262.46686" y="104.2471" width="100%" height="100%" xlink:href="#s"/><use x="267.74884" y="104.2471" width="100%" height="100%" xlink:href="#v"/><use x="273.55334" y="104.2471" width="100%" height="100%" xlink:href="#u"/><use x="278.83536" y="104.2471" width="100%" height="100%" xlink:href="#o"/><use x="281.47635" y="104.2471" width="100%" height="100%" xlink:href="#ac"/><use x="284.11734" y="104.2471" width="100%" height="100%" xlink:href="#s"/><use x="289.39935" y="104.2471" width="100%" height="100%" xlink:href="#v"/><use x="295.20386" y="104.2471" width="100%" height="100%" xlink:href="#u"/><use x="300.48584" y="104.2471" width="100%" height="100%" xlink:href="#o"/><use x="303.12686" y="104.2471" width="100%" height="100%" xlink:href="#bc"/><use x="308.93134" y="104.2471" width="100%" height="100%" xlink:href="#ag"/><use x="312.62686" y="104.2471" width="100%" height="100%" xlink:href="#ad"/><use x="318.43134" y="104.2471" width="100%" height="100%" xlink:href="#af"/><use x="324.23584" y="104.2471" width="100%" height="100%" xlink:href="#o"/><use x="326.87686" y="104.2471" width="100%" height="100%" xlink:href="#s"/><use x="332.15884" y="104.2471" width="100%" height="100%" xlink:href="#ae"/><use x="335.32236" y="104.2471" width="100%" height="100%" xlink:href="#o"/><use x="337.96335" y="104.2471" width="100%" height="100%" xlink:href="#s"/><use x="343.24536" y="104.2471" width="100%" height="100%" xlink:href="#v"/><use x="349.04984" y="104.2471" width="100%" height="100%" xlink:href="#o"/><use x="351.69086" y="104.2471" width="100%" height="100%" xlink:href="#u"/><use x="356.97284" y="104.2471" width="100%" height="100%" xlink:href="#bb"/><use x="362.25485" y="104.2471" width="100%" height="100%" xlink:href="#ba"/><use x="364.89584" y="104.2471" width="100%" height="100%" xlink:href="#ae"/><use x="368.05936" y="104.2471" width="100%" height="100%" xlink:href="#o"/><use x="370.70035" y="104.2471" width="100%" height="100%" xlink:href="#ag"/><use x="374.39584" y="104.2471" width="100%" height="100%" xlink:href="#s"/><use x="379.67786" y="104.2471" width="100%" height="100%" xlink:href="#az"/><use x="388.12335" y="104.2471" width="100%" height="100%" xlink:href="#af"/></g><g fill="#fff"><path d="m129.41 568.46 37.508 11.34 27.355-9.3047 57.484 18.145-1.3477 8.7617-57.48-18.141-27.359 9.3047-37.508-11.336z" stroke="#211e1e" stroke-width="1.168"/><path d="m250.42 583.32 10.164 2.9648-8.2344 14.633-10.172-2.9648z"/><path d="m135.53 567.81-20.336-5.9297-8.6953 15.445 20.336 5.9297z"/></g><path d="m189.27 663.28v-48.633" fill="none" stroke="#fff" stroke-dasharray="14.4, 43.2" stroke-width="2"/><path d="m359.28 649.09h6.3516v-1.5586l4.3789 2.5781-4.3789 2.3984v-1.4414h-6.3516z" fill="#211e1e"/><path d="m380.76 640.57h29.289" fill="none" stroke="#211e1e" stroke-width=".75"/><g transform="translate(-77.273 -45.023)" fill="#211e1e"><use x="457.55811" y="682.64648" width="100%" height="100%" xlink:href="#au"/><use x="462.5621" y="682.64648" width="100%" height="100%" xlink:href="#a"/><use x="467.5661" y="682.64648" width="100%" height="100%" xlink:href="#m"/><use x="472.5701" y="682.64648" width="100%" height="100%" xlink:href="#a"/><use x="477.5741" y="682.64648" width="100%" height="100%" xlink:href="#d"/><use x="482.57809" y="682.64648" width="100%" height="100%" xlink:href="#k"/><use x="450.0701" y="698.00049" width="100%" height="100%" xlink:href="#ah"/><use x="456.56812" y="698.00049" width="100%" height="100%" xlink:href="#c"/><use x="458.5661" y="698.00049" width="100%" height="100%" xlink:href="#g"/><use x="461.56311" y="698.00049" width="100%" height="100%" xlink:href="#a"/><use x="466.56711" y="698.00049" width="100%" height="100%" xlink:href="#l"/><use x="471.06711" y="698.00049" width="100%" height="100%" xlink:href="#i"/><use x="473.56909" y="698.00049" width="100%" height="100%" xlink:href="#c"/><use x="475.56711" y="698.00049" width="100%" height="100%" xlink:href="#j"/><use x="480.57111" y="698.00049" width="100%" height="100%" xlink:href="#d"/><use x="485.5751" y="698.00049" width="100%" height="100%" xlink:href="#b"/><use x="488.07709" y="698.00049" width="100%" height="100%" xlink:href="#j"/><use x="493.08109" y="698.00049" width="100%" height="100%" xlink:href="#at"/><use x="495.5831" y="698.00049" width="100%" height="100%" xlink:href="#b"/><use x="498.08511" y="698.00049" width="100%" height="100%" xlink:href="#i"/><use x="500.5871" y="698.00049" width="100%" height="100%" xlink:href="#g"/><use x="503.58411" y="698.00049" width="100%" height="100%" xlink:href="#f"/><use x="508.5881" y="698.00049" width="100%" height="100%" xlink:href="#t"/><use x="513.08807" y="698.00049" width="100%" height="100%" xlink:href="#a"/><use x="518.0921" y="698.00049" width="100%" height="100%" xlink:href="#e"/></g><path d="m238.59 605.67h34.141" fill="none" stroke="#211e1e" stroke-width=".75"/><path d="m265.46 526.89v74.855" fill="none" stroke="#211e1e" stroke-width=".75"/><path d="m266 602.98c0.26172-0.86719 0.50391-1.4336 0.78125-2.1289h-2.6445c0.11719 0.24609 0.51953 1.2617 0.78125 2.1289 0.28125 0.92968 0.47266 1.7695 0.53906 2.3164 0.0703-0.54687 0.26172-1.3867 0.54297-2.3164" fill="#211e1e"/><path d="m265.46 515.22v-127.21" fill="none" stroke="#211e1e" stroke-width=".75"/><path d="m264.92 386.77c-0.26172 0.86719-0.5039 1.4336-0.78125 2.1289h2.6484c-0.12109-0.25-0.52344-1.2617-0.78516-2.1289-0.28125-0.92968-0.47265-1.7695-0.53906-2.3164-0.0703 0.54687-0.26172 1.3867-0.54297 2.3164" fill="#211e1e"/><g transform="translate(-77.273 -45.023)" fill="#211e1e"><use x="399.22269" y="205.061" width="100%" height="100%" xlink:href="#as"/><use x="405.7207" y="205.061" width="100%" height="100%" xlink:href="#a"/><use x="410.7247" y="205.061" width="100%" height="100%" xlink:href="#l"/><use x="415.2247" y="205.061" width="100%" height="100%" xlink:href="#j"/><use x="420.2287" y="205.061" width="100%" height="100%" xlink:href="#r"/><use x="427.72571" y="205.061" width="100%" height="100%" xlink:href="#r"/><use x="435.22269" y="205.061" width="100%" height="100%" xlink:href="#a"/><use x="440.22672" y="205.061" width="100%" height="100%" xlink:href="#d"/><use x="445.23071" y="205.061" width="100%" height="100%" xlink:href="#k"/><use x="450.23471" y="205.061" width="100%" height="100%" xlink:href="#a"/><use x="455.23871" y="205.061" width="100%" height="100%" xlink:href="#k"/><use x="460.24271" y="205.061" width="100%" height="100%" xlink:href="#b"/><use x="462.74469" y="205.061" width="100%" height="100%" xlink:href="#q"/><use x="469.24271" y="205.061" width="100%" height="100%" xlink:href="#h"/><use x="474.2467" y="205.061" width="100%" height="100%" xlink:href="#c"/><use x="476.24469" y="205.061" width="100%" height="100%" xlink:href="#i"/><use x="478.7467" y="205.061" width="100%" height="100%" xlink:href="#a"/><use x="399.22269" y="215.06" width="100%" height="100%" xlink:href="#l"/><use x="403.72269" y="215.06" width="100%" height="100%" xlink:href="#h"/><use x="408.72672" y="215.06" width="100%" height="100%" xlink:href="#a"/><use x="413.73071" y="215.06" width="100%" height="100%" xlink:href="#t"/><use x="418.23071" y="215.06" width="100%" height="100%" xlink:href="#g"/><use x="421.22769" y="215.06" width="100%" height="100%" xlink:href="#j"/><use x="426.23169" y="215.06" width="100%" height="100%" xlink:href="#d"/><use x="431.23569" y="215.06" width="100%" height="100%" xlink:href="#b"/><use x="433.7377" y="215.06" width="100%" height="100%" xlink:href="#r"/><use x="441.23471" y="215.06" width="100%" height="100%" xlink:href="#f"/><use x="446.23871" y="215.06" width="100%" height="100%" xlink:href="#g"/><use x="449.23569" y="215.06" width="100%" height="100%" xlink:href="#ab"/><use x="453.73569" y="215.06" width="100%" height="100%" xlink:href="#c"/><use x="455.7337" y="215.06" width="100%" height="100%" xlink:href="#d"/><use x="460.7377" y="215.06" width="100%" height="100%" xlink:href="#m"/><use x="465.7417" y="215.06" width="100%" height="100%" xlink:href="#n"/><use x="399.22269" y="225.05901" width="100%" height="100%" xlink:href="#c"/><use x="401.2207" y="225.05901" width="100%" height="100%" xlink:href="#d"/><use x="406.2247" y="225.05901" width="100%" height="100%" xlink:href="#b"/><use x="408.72672" y="225.05901" width="100%" height="100%" xlink:href="#d"/><use x="413.73071" y="225.05901" width="100%" height="100%" xlink:href="#a"/><use x="418.73471" y="225.05901" width="100%" height="100%" xlink:href="#aa"/><use x="423.73871" y="225.05901" width="100%" height="100%" xlink:href="#i"/><use x="426.24069" y="225.05901" width="100%" height="100%" xlink:href="#g"/><use x="429.2377" y="225.05901" width="100%" height="100%" xlink:href="#f"/><use x="434.2417" y="225.05901" width="100%" height="100%" xlink:href="#e"/><use x="436.23969" y="225.05901" width="100%" height="100%" xlink:href="#b"/><use x="438.7417" y="225.05901" width="100%" height="100%" xlink:href="#f"/><use x="443.7457" y="225.05901" width="100%" height="100%" xlink:href="#g"/><use x="446.74271" y="225.05901" width="100%" height="100%" xlink:href="#a"/><use x="451.7467" y="225.05901" width="100%" height="100%" xlink:href="#f"/><use x="363.7627" y="431.65399" width="100%" height="100%" xlink:href="#z"/><use x="369.26169" y="431.65399" width="100%" height="100%" xlink:href="#h"/><use x="374.26569" y="431.65399" width="100%" height="100%" xlink:href="#a"/><use x="379.26971" y="431.65399" width="100%" height="100%" xlink:href="#j"/><use x="384.27371" y="431.65399" width="100%" height="100%" xlink:href="#g"/><use x="387.27069" y="431.65399" width="100%" height="100%" xlink:href="#a"/><use x="392.27469" y="431.65399" width="100%" height="100%" xlink:href="#i"/><use x="394.7767" y="431.65399" width="100%" height="100%" xlink:href="#c"/><use x="396.77469" y="431.65399" width="100%" height="100%" xlink:href="#l"/><use x="401.27469" y="431.65399" width="100%" height="100%" xlink:href="#f"/><use x="406.27869" y="431.65399" width="100%" height="100%" xlink:href="#e"/><use x="408.2767" y="431.65399" width="100%" height="100%" xlink:href="#b"/><use x="410.77869" y="431.65399" width="100%" height="100%" xlink:href="#m"/><use x="415.78271" y="431.65399" width="100%" height="100%" xlink:href="#j"/><use x="420.78671" y="431.65399" width="100%" height="100%" xlink:href="#g"/><use x="423.78369" y="431.65399" width="100%" height="100%" xlink:href="#a"/><use x="320.97672" y="569.88501" width="100%" height="100%" xlink:href="#ar"/><use x="325.98071" y="569.88501" width="100%" height="100%" xlink:href="#aq"/><use x="328.4827" y="569.88501" width="100%" height="100%" xlink:href="#ap"/><use x="333.48669" y="569.88501" width="100%" height="100%" xlink:href="#b"/><use x="335.98871" y="569.88501" width="100%" height="100%" xlink:href="#r"/><use x="343.48569" y="569.88501" width="100%" height="100%" xlink:href="#c"/><use x="345.4837" y="569.88501" width="100%" height="100%" xlink:href="#e"/><use x="347.48169" y="569.88501" width="100%" height="100%" xlink:href="#a"/><use x="352.48569" y="569.88501" width="100%" height="100%" xlink:href="#b"/><use x="354.9877" y="569.88501" width="100%" height="100%" xlink:href="#ao"/><use x="362.48471" y="569.88501" width="100%" height="100%" xlink:href="#an"/><use x="364.98669" y="569.88501" width="100%" height="100%" xlink:href="#am"/><use x="371.48471" y="569.88501" width="100%" height="100%" xlink:href="#al"/></g><path d="m319.19 156.04-49.402-4.6016" fill="none" stroke="#211e1e" stroke-width=".75"/><path d="m268.5 151.86c0.83594 0.34375 1.3789 0.63281 2.0469 0.97656l0.24219-2.6367c-0.26172 0.0937-1.3047 0.40234-2.1914 0.58594-0.95313 0.1914-1.8086 0.30468-2.3594 0.32422 0.53907 0.11718 1.3594 0.38671 2.2617 0.75" fill="#211e1e"/><g transform="translate(-77.273 -45.023)" fill="#211e1e"><use x="77.117203" y="266.43069" width="100%" height="100%" xlink:href="#p"/><use x="85.613197" y="266.43069" width="100%" height="100%" xlink:href="#c"/><use x="87.611198" y="266.43069" width="100%" height="100%" xlink:href="#k"/><use x="92.615196" y="266.43069" width="100%" height="100%" xlink:href="#a"/><use x="97.619202" y="266.43069" width="100%" height="100%" xlink:href="#b"/><use x="100.1212" y="266.43069" width="100%" height="100%" xlink:href="#q"/><use x="106.6192" y="266.43069" width="100%" height="100%" xlink:href="#h"/><use x="111.6232" y="266.43069" width="100%" height="100%" xlink:href="#c"/><use x="113.6212" y="266.43069" width="100%" height="100%" xlink:href="#i"/><use x="116.1232" y="266.43069" width="100%" height="100%" xlink:href="#a"/><use x="121.1272" y="266.43069" width="100%" height="100%" xlink:href="#b"/><use x="123.6292" y="266.43069" width="100%" height="100%" xlink:href="#l"/><use x="128.1292" y="266.43069" width="100%" height="100%" xlink:href="#h"/><use x="133.13319" y="266.43069" width="100%" height="100%" xlink:href="#f"/><use x="138.13721" y="266.43069" width="100%" height="100%" xlink:href="#d"/><use x="143.1412" y="266.43069" width="100%" height="100%" xlink:href="#d"/><use x="148.1452" y="266.43069" width="100%" height="100%" xlink:href="#a"/><use x="153.1492" y="266.43069" width="100%" height="100%" xlink:href="#e"/><use x="155.1472" y="266.43069" width="100%" height="100%" xlink:href="#c"/><use x="157.1452" y="266.43069" width="100%" height="100%" xlink:href="#y"/><use x="161.6452" y="266.43069" width="100%" height="100%" xlink:href="#c"/><use x="163.6432" y="266.43069" width="100%" height="100%" xlink:href="#d"/><use x="168.6472" y="266.43069" width="100%" height="100%" xlink:href="#m"/><use x="173.6512" y="266.43069" width="100%" height="100%" xlink:href="#b"/><use x="176.1532" y="266.43069" width="100%" height="100%" xlink:href="#e"/><use x="178.1512" y="266.43069" width="100%" height="100%" xlink:href="#c"/><use x="180.1492" y="266.43069" width="100%" height="100%" xlink:href="#d"/><use x="185.1532" y="266.43069" width="100%" height="100%" xlink:href="#a"/><use x="190.1572" y="266.43069" width="100%" height="100%" xlink:href="#n"/><use x="77.117203" y="384.42969" width="100%" height="100%" xlink:href="#p"/><use x="85.613197" y="384.42969" width="100%" height="100%" xlink:href="#c"/><use x="87.611198" y="384.42969" width="100%" height="100%" xlink:href="#k"/><use x="92.615196" y="384.42969" width="100%" height="100%" xlink:href="#a"/><use x="97.619202" y="384.42969" width="100%" height="100%" xlink:href="#b"/><use x="100.1212" y="384.42969" width="100%" height="100%" xlink:href="#q"/><use x="106.6192" y="384.42969" width="100%" height="100%" xlink:href="#h"/><use x="111.6232" y="384.42969" width="100%" height="100%" xlink:href="#c"/><use x="113.6212" y="384.42969" width="100%" height="100%" xlink:href="#i"/><use x="116.1232" y="384.42969" width="100%" height="100%" xlink:href="#a"/><use x="121.1272" y="384.42969" width="100%" height="100%" xlink:href="#b"/><use x="123.6292" y="384.42969" width="100%" height="100%" xlink:href="#l"/><use x="128.1292" y="384.42969" width="100%" height="100%" xlink:href="#h"/><use x="133.13319" y="384.42969" width="100%" height="100%" xlink:href="#f"/><use x="138.13721" y="384.42969" width="100%" height="100%" xlink:href="#d"/><use x="143.1412" y="384.42969" width="100%" height="100%" xlink:href="#d"/><use x="148.1452" y="384.42969" width="100%" height="100%" xlink:href="#a"/><use x="153.1492" y="384.42969" width="100%" height="100%" xlink:href="#e"/><use x="155.1472" y="384.42969" width="100%" height="100%" xlink:href="#c"/><use x="157.1452" y="384.42969" width="100%" height="100%" xlink:href="#y"/><use x="161.6452" y="384.42969" width="100%" height="100%" xlink:href="#c"/><use x="163.6432" y="384.42969" width="100%" height="100%" xlink:href="#d"/><use x="168.6472" y="384.42969" width="100%" height="100%" xlink:href="#m"/><use x="173.6512" y="384.42969" width="100%" height="100%" xlink:href="#b"/><use x="176.1532" y="384.42969" width="100%" height="100%" xlink:href="#e"/><use x="178.1512" y="384.42969" width="100%" height="100%" xlink:href="#c"/><use x="180.1492" y="384.42969" width="100%" height="100%" xlink:href="#d"/><use x="185.1532" y="384.42969" width="100%" height="100%" xlink:href="#a"/><use x="190.1572" y="384.42969" width="100%" height="100%" xlink:href="#n"/></g><path d="m319.46 224.86-68.32-8.1055" fill="none" stroke="#211e1e" stroke-width=".75"/><path d="m249.85 217.14c0.83203 0.36328 1.3633 0.67187 2.0195 1.0273l0.31641-2.6289c-0.26172 0.0899-1.3164 0.3711-2.207 0.52735-0.95704 0.17187-1.8164 0.26172-2.3672 0.26562 0.53515 0.13281 1.3476 0.42188 2.2383 0.8086" fill="#211e1e"/><path d="m119.37 522.25 66.609-4.5469" fill="none" stroke="#211e1e" stroke-width=".75"/><path d="m187.19 517.08c-0.88672-0.19922-1.4648-0.40235-2.1797-0.63672l0.18359 2.6445c0.23828-0.13672 1.2188-0.60937 2.0664-0.92969 0.91016-0.33984 1.7383-0.58984 2.2773-0.69531-0.55078-0.0312-1.4023-0.16406-2.3476-0.38281" fill="#211e1e"/><g transform="translate(-77.273 -45.023)" fill="#211e1e"><use x="398.82809" y="187.9648" width="100%" height="100%" xlink:href="#x"/><use x="404.83109" y="187.9648" width="100%" height="100%" xlink:href="#h"/><use x="409.83511" y="187.9648" width="100%" height="100%" xlink:href="#w"/><use x="414.33511" y="187.9648" width="100%" height="100%" xlink:href="#n"/><use x="418.83511" y="187.9648" width="100%" height="100%" xlink:href="#c"/><use x="420.8331" y="187.9648" width="100%" height="100%" xlink:href="#l"/><use x="425.3331" y="187.9648" width="100%" height="100%" xlink:href="#f"/><use x="430.3371" y="187.9648" width="100%" height="100%" xlink:href="#e"/><use x="432.33511" y="187.9648" width="100%" height="100%" xlink:href="#b"/><use x="434.8371" y="187.9648" width="100%" height="100%" xlink:href="#m"/><use x="439.84109" y="187.9648" width="100%" height="100%" xlink:href="#j"/><use x="444.84509" y="187.9648" width="100%" height="100%" xlink:href="#g"/><use x="447.8421" y="187.9648" width="100%" height="100%" xlink:href="#a"/></g><path d="m119.63 336.64s63.633 5.1914 66.508 5.4961" fill="none" stroke="#211e1e" stroke-width=".75"/><path d="m186.74 341.73c-0.84765-0.32422-1.3906-0.60938-2.0625-0.9375l-0.19921 2.6406c0.25781-0.10156 1.2969-0.42578 2.1797-0.62109 0.94922-0.21094 1.8047-0.33985 2.3516-0.3711-0.53907-0.10547-1.3633-0.36328-2.2695-0.71093" fill="#211e1e"/><path d="m119.63 336.64s70.738-1.8242 74.293-1.6367" fill="none" stroke="#211e1e" stroke-width=".75"/><path d="m195.19 334.53c-0.85547-0.30469-1.4062-0.57422-2.0859-0.89063l-0.13672 2.6445c0.25391-0.10547 1.2852-0.45703 2.1641-0.67187 0.94532-0.23047 1.793-0.38281 2.3438-0.42188-0.54297-0.0976-1.3711-0.33203-2.2852-0.66015" fill="#211e1e"/><g transform="translate(-77.273 -45.023)" fill="#211e1e"><use x="399.54099" y="267.58691" width="100%" height="100%" xlink:href="#p"/><use x="408.03699" y="267.58691" width="100%" height="100%" xlink:href="#c"/><use x="410.035" y="267.58691" width="100%" height="100%" xlink:href="#k"/><use x="415.039" y="267.58691" width="100%" height="100%" xlink:href="#a"/><use x="420.043" y="267.58691" width="100%" height="100%" xlink:href="#b"/><use x="422.54501" y="267.58691" width="100%" height="100%" xlink:href="#n"/><use x="427.04501" y="267.58691" width="100%" height="100%" xlink:href="#j"/><use x="432.04901" y="267.58691" width="100%" height="100%" xlink:href="#e"/><use x="434.047" y="267.58691" width="100%" height="100%" xlink:href="#c"/><use x="436.04501" y="267.58691" width="100%" height="100%" xlink:href="#k"/><use x="441.04901" y="267.58691" width="100%" height="100%" xlink:href="#b"/><use x="443.55099" y="267.58691" width="100%" height="100%" xlink:href="#q"/><use x="450.04901" y="267.58691" width="100%" height="100%" xlink:href="#h"/><use x="455.05301" y="267.58691" width="100%" height="100%" xlink:href="#c"/><use x="457.05099" y="267.58691" width="100%" height="100%" xlink:href="#i"/><use x="459.55301" y="267.58691" width="100%" height="100%" xlink:href="#a"/><use x="464.55701" y="267.58691" width="100%" height="100%" xlink:href="#b"/><use x="467.05899" y="267.58691" width="100%" height="100%" xlink:href="#e"/><use x="469.05701" y="267.58691" width="100%" height="100%" xlink:href="#f"/><use x="474.061" y="267.58691" width="100%" height="100%" xlink:href="#d"/><use x="479.065" y="267.58691" width="100%" height="100%" xlink:href="#a"/><use x="484.069" y="267.58691" width="100%" height="100%" xlink:href="#b"/><use x="399.54099" y="277.58591" width="100%" height="100%" xlink:href="#e"/><use x="401.539" y="277.58591" width="100%" height="100%" xlink:href="#c"/><use x="403.53699" y="277.58591" width="100%" height="100%" xlink:href="#d"/><use x="408.54099" y="277.58591" width="100%" height="100%" xlink:href="#a"/><use x="413.54501" y="277.58591" width="100%" height="100%" xlink:href="#b"/><use x="416.047" y="277.58591" width="100%" height="100%" xlink:href="#ak"/><use x="419.04401" y="277.58591" width="100%" height="100%" xlink:href="#t"/><use x="423.54401" y="277.58591" width="100%" height="100%" xlink:href="#f"/><use x="428.548" y="277.58591" width="100%" height="100%" xlink:href="#g"/><use x="431.54501" y="277.58591" width="100%" height="100%" xlink:href="#c"/><use x="433.543" y="277.58591" width="100%" height="100%" xlink:href="#f"/><use x="438.547" y="277.58591" width="100%" height="100%" xlink:href="#aj"/><use x="443.55099" y="277.58591" width="100%" height="100%" xlink:href="#e"/><use x="445.54901" y="277.58591" width="100%" height="100%" xlink:href="#a"/><use x="450.55301" y="277.58591" width="100%" height="100%" xlink:href="#b"/><use x="453.05499" y="277.58591" width="100%" height="100%" xlink:href="#e"/><use x="455.05301" y="277.58591" width="100%" height="100%" xlink:href="#a"/><use x="460.05701" y="277.58591" width="100%" height="100%" xlink:href="#d"/><use x="465.061" y="277.58591" width="100%" height="100%" xlink:href="#m"/><use x="470.065" y="277.58591" width="100%" height="100%" xlink:href="#i"/><use x="472.56699" y="277.58591" width="100%" height="100%" xlink:href="#h"/><use x="477.57101" y="277.58591" width="100%" height="100%" xlink:href="#ai"/></g><path d="m118.57 414.64 66.906-5.6055" fill="none" stroke="#211e1e" stroke-width=".75"/><path d="m186.76 409.46c-0.84375 0.33594-1.3828 0.625-2.0547 0.96484l-0.22656-2.6367c0.25781 0.0976 1.3008 0.40625 2.1875 0.59375 0.94922 0.19921 1.8047 0.3164 2.3555 0.33984-0.53516 0.11719-1.3594 0.38281-2.2617 0.73828" fill="#211e1e"/><g transform="translate(-77.273 -45.023)" fill="#211e1e"><use x="129.7471" y="457.457" width="100%" height="100%" xlink:href="#p"/><use x="138.2431" y="457.457" width="100%" height="100%" xlink:href="#c"/><use x="140.2411" y="457.457" width="100%" height="100%" xlink:href="#k"/><use x="145.2451" y="457.457" width="100%" height="100%" xlink:href="#a"/><use x="150.2491" y="457.457" width="100%" height="100%" xlink:href="#b"/><use x="152.7511" y="457.457" width="100%" height="100%" xlink:href="#n"/><use x="157.2511" y="457.457" width="100%" height="100%" xlink:href="#j"/><use x="162.2551" y="457.457" width="100%" height="100%" xlink:href="#e"/><use x="164.2531" y="457.457" width="100%" height="100%" xlink:href="#c"/><use x="166.2511" y="457.457" width="100%" height="100%" xlink:href="#k"/><use x="171.2551" y="457.457" width="100%" height="100%" xlink:href="#b"/><use x="173.7571" y="457.457" width="100%" height="100%" xlink:href="#q"/><use x="180.2551" y="457.457" width="100%" height="100%" xlink:href="#h"/><use x="185.25909" y="457.457" width="100%" height="100%" xlink:href="#c"/><use x="187.2571" y="457.457" width="100%" height="100%" xlink:href="#i"/><use x="189.75909" y="457.457" width="100%" height="100%" xlink:href="#a"/><use x="194.76311" y="457.457" width="100%" height="100%" xlink:href="#b"/><use x="161.2471" y="467.45599" width="100%" height="100%" xlink:href="#e"/><use x="163.2451" y="467.45599" width="100%" height="100%" xlink:href="#f"/><use x="168.2491" y="467.45599" width="100%" height="100%" xlink:href="#d"/><use x="173.2531" y="467.45599" width="100%" height="100%" xlink:href="#a"/><use x="178.2571" y="467.45599" width="100%" height="100%" xlink:href="#b"/><use x="180.75909" y="467.45599" width="100%" height="100%" xlink:href="#e"/><use x="182.7571" y="467.45599" width="100%" height="100%" xlink:href="#c"/><use x="184.7551" y="467.45599" width="100%" height="100%" xlink:href="#d"/><use x="189.75909" y="467.45599" width="100%" height="100%" xlink:href="#a"/><use x="87.240097" y="569.18298" width="100%" height="100%" xlink:href="#p"/><use x="95.736099" y="569.18298" width="100%" height="100%" xlink:href="#c"/><use x="97.7341" y="569.18298" width="100%" height="100%" xlink:href="#k"/><use x="102.7381" y="569.18298" width="100%" height="100%" xlink:href="#a"/><use x="107.7421" y="569.18298" width="100%" height="100%" xlink:href="#b"/><use x="110.2441" y="569.18298" width="100%" height="100%" xlink:href="#k"/><use x="115.2481" y="569.18298" width="100%" height="100%" xlink:href="#j"/><use x="120.2521" y="569.18298" width="100%" height="100%" xlink:href="#i"/><use x="122.7541" y="569.18298" width="100%" height="100%" xlink:href="#i"/><use x="125.2561" y="569.18298" width="100%" height="100%" xlink:href="#a"/><use x="130.2601" y="569.18298" width="100%" height="100%" xlink:href="#k"/><use x="135.2641" y="569.18298" width="100%" height="100%" xlink:href="#b"/><use x="137.7661" y="569.18298" width="100%" height="100%" xlink:href="#q"/><use x="144.2641" y="569.18298" width="100%" height="100%" xlink:href="#h"/><use x="149.2681" y="569.18298" width="100%" height="100%" xlink:href="#c"/><use x="151.2661" y="569.18298" width="100%" height="100%" xlink:href="#i"/><use x="153.7681" y="569.18298" width="100%" height="100%" xlink:href="#a"/><use x="158.77209" y="569.18298" width="100%" height="100%" xlink:href="#b"/><use x="161.27409" y="569.18298" width="100%" height="100%" xlink:href="#e"/><use x="163.27209" y="569.18298" width="100%" height="100%" xlink:href="#f"/><use x="168.27609" y="569.18298" width="100%" height="100%" xlink:href="#d"/><use x="173.28011" y="569.18298" width="100%" height="100%" xlink:href="#a"/><use x="178.2841" y="569.18298" width="100%" height="100%" xlink:href="#b"/><use x="180.7861" y="569.18298" width="100%" height="100%" xlink:href="#e"/><use x="182.7841" y="569.18298" width="100%" height="100%" xlink:href="#c"/><use x="184.7821" y="569.18298" width="100%" height="100%" xlink:href="#d"/><use x="189.7861" y="569.18298" width="100%" height="100%" xlink:href="#a"/></g><path d="m194.82 384.08h90.234" fill="none" stroke="#211e1e" stroke-width=".75"/><path d="m193.59 384.62c0.86719 0.26172 1.4336 0.50391 2.1289 0.78125v-2.6484c-0.25 0.1211-1.2617 0.51953-2.1289 0.78516-0.92968 0.27734-1.7695 0.47266-2.3164 0.53906 0.54687 0.0703 1.3867 0.26172 2.3164 0.54297" fill="#211e1e"/><path d="m119.63 220.52 140.7-52.676" fill="none" stroke="#211e1e" stroke-width=".75"/><path d="m261.31 166.91c-0.90625 0.0508-1.5195 0.0195-2.2695-4e-3l0.91406 2.4844c0.19141-0.19531 1-0.92187 1.7266-1.4648 0.77735-0.58594 1.5-1.0547 1.9883-1.3086-0.53516 0.1211-1.3906 0.23438-2.3594 0.29297" fill="#211e1e"/><path d="m119.63 220.52 139.27-67.723" fill="none" stroke="#211e1e" stroke-width=".75"/><path d="m259.77 151.77c-0.89453 0.14453-1.5078 0.17187-2.2578 0.22265l1.1524 2.3828c0.17578-0.21485 0.91015-1.0195 1.5742-1.6289 0.71875-0.65625 1.3906-1.1992 1.8516-1.4961-0.51953 0.17578-1.3633 0.36718-2.3203 0.51953" fill="#211e1e"/><path d="m319.83 140.02-47.461 4.9805" fill="none" stroke="#211e1e" stroke-width=".75"/><path d="m271.19 145.66c0.89063 0.17187 1.4766 0.35156 2.1992 0.55859l-0.26953-2.6328c-0.23828 0.14453-1.2031 0.64844-2.0352 0.99609-0.89843 0.3711-1.7188 0.65235-2.2539 0.77735 0.55078 0.0117 1.4062 0.11328 2.3594 0.30078" fill="#211e1e"/><g transform="translate(-77.273 -45.023)" fill="#211e1e"><use x="399.22269" y="365.5498" width="100%" height="100%" xlink:href="#p"/><use x="407.71869" y="365.5498" width="100%" height="100%" xlink:href="#h"/><use x="412.72269" y="365.5498" width="100%" height="100%" xlink:href="#c"/><use x="414.7207" y="365.5498" width="100%" height="100%" xlink:href="#i"/><use x="417.22269" y="365.5498" width="100%" height="100%" xlink:href="#a"/><use x="422.22672" y="365.5498" width="100%" height="100%" xlink:href="#b"/><use x="424.7287" y="365.5498" width="100%" height="100%" xlink:href="#l"/><use x="429.2287" y="365.5498" width="100%" height="100%" xlink:href="#h"/><use x="434.2327" y="365.5498" width="100%" height="100%" xlink:href="#a"/><use x="439.23669" y="365.5498" width="100%" height="100%" xlink:href="#t"/><use x="443.73669" y="365.5498" width="100%" height="100%" xlink:href="#g"/><use x="446.7337" y="365.5498" width="100%" height="100%" xlink:href="#j"/><use x="451.7377" y="365.5498" width="100%" height="100%" xlink:href="#d"/><use x="456.7417" y="365.5498" width="100%" height="100%" xlink:href="#b"/><use x="459.24371" y="365.5498" width="100%" height="100%" xlink:href="#r"/><use x="466.74069" y="365.5498" width="100%" height="100%" xlink:href="#f"/><use x="471.74469" y="365.5498" width="100%" height="100%" xlink:href="#g"/><use x="474.7417" y="365.5498" width="100%" height="100%" xlink:href="#ab"/><use x="479.2417" y="365.5498" width="100%" height="100%" xlink:href="#c"/><use x="481.23969" y="365.5498" width="100%" height="100%" xlink:href="#d"/><use x="486.24371" y="365.5498" width="100%" height="100%" xlink:href="#m"/><use x="491.24771" y="365.5498" width="100%" height="100%" xlink:href="#n"/><use x="399.22269" y="375.5488" width="100%" height="100%" xlink:href="#c"/><use x="401.2207" y="375.5488" width="100%" height="100%" xlink:href="#d"/><use x="406.2247" y="375.5488" width="100%" height="100%" xlink:href="#b"/><use x="408.72672" y="375.5488" width="100%" height="100%" xlink:href="#d"/><use x="413.73071" y="375.5488" width="100%" height="100%" xlink:href="#a"/><use x="418.73471" y="375.5488" width="100%" height="100%" xlink:href="#aa"/><use x="423.73871" y="375.5488" width="100%" height="100%" xlink:href="#i"/><use x="426.24069" y="375.5488" width="100%" height="100%" xlink:href="#g"/><use x="429.2377" y="375.5488" width="100%" height="100%" xlink:href="#f"/><use x="434.2417" y="375.5488" width="100%" height="100%" xlink:href="#e"/><use x="436.23969" y="375.5488" width="100%" height="100%" xlink:href="#b"/><use x="438.7417" y="375.5488" width="100%" height="100%" xlink:href="#f"/><use x="443.7457" y="375.5488" width="100%" height="100%" xlink:href="#g"/><use x="446.74271" y="375.5488" width="100%" height="100%" xlink:href="#a"/><use x="451.7467" y="375.5488" width="100%" height="100%" xlink:href="#f"/></g><path d="m317.7 322.75-118.32 6.2344" fill="none" stroke="#211e1e" stroke-width=".75"/><path d="m198.17 329.59c0.8789 0.21485 1.4531 0.42579 2.168 0.66797l-0.14453-2.6445c-0.24218 0.12891-1.2305 0.58985-2.082 0.89844-0.91406 0.32812-1.7461 0.5625-2.2891 0.66406 0.55078 0.0352 1.4023 0.1836 2.3477 0.41406" fill="#211e1e"/><g transform="translate(-77.273 -45.023)" fill="#211e1e"><use x="398.82809" y="336.1001" width="100%" height="100%" xlink:href="#x"/><use x="404.83109" y="336.1001" width="100%" height="100%" xlink:href="#h"/><use x="409.83511" y="336.1001" width="100%" height="100%" xlink:href="#w"/><use x="414.33511" y="336.1001" width="100%" height="100%" xlink:href="#n"/><use x="418.83511" y="336.1001" width="100%" height="100%" xlink:href="#c"/><use x="420.8331" y="336.1001" width="100%" height="100%" xlink:href="#l"/><use x="425.3331" y="336.1001" width="100%" height="100%" xlink:href="#f"/><use x="430.3371" y="336.1001" width="100%" height="100%" xlink:href="#e"/><use x="432.33511" y="336.1001" width="100%" height="100%" xlink:href="#b"/><use x="434.8371" y="336.1001" width="100%" height="100%" xlink:href="#m"/><use x="439.84109" y="336.1001" width="100%" height="100%" xlink:href="#j"/><use x="444.84509" y="336.1001" width="100%" height="100%" xlink:href="#g"/><use x="447.8421" y="336.1001" width="100%" height="100%" xlink:href="#a"/></g><path d="m317.95 288.8-121.12 33.637" fill="none" stroke="#211e1e" stroke-width=".75"/><path d="m195.78 323.28c0.90625 0.0234 1.5156 0.10938 2.2617 0.19531l-0.69531-2.5508c-0.21094 0.17578-1.082 0.83203-1.8477 1.3125-0.82422 0.51563-1.5859 0.92188-2.0938 1.1328 0.54297-0.0781 1.4062-0.11718 2.375-0.0898" fill="#211e1e"/><g transform="translate(-77.273 -45.023)" fill="#211e1e"><use x="399.51559" y="242.21629" width="100%" height="100%" xlink:href="#z"/><use x="405.01459" y="242.21629" width="100%" height="100%" xlink:href="#h"/><use x="410.01859" y="242.21629" width="100%" height="100%" xlink:href="#a"/><use x="415.02261" y="242.21629" width="100%" height="100%" xlink:href="#j"/><use x="420.02661" y="242.21629" width="100%" height="100%" xlink:href="#g"/><use x="423.02359" y="242.21629" width="100%" height="100%" xlink:href="#a"/><use x="428.02759" y="242.21629" width="100%" height="100%" xlink:href="#i"/><use x="430.5296" y="242.21629" width="100%" height="100%" xlink:href="#c"/><use x="432.52759" y="242.21629" width="100%" height="100%" xlink:href="#l"/><use x="437.02759" y="242.21629" width="100%" height="100%" xlink:href="#f"/><use x="442.03159" y="242.21629" width="100%" height="100%" xlink:href="#e"/><use x="444.0296" y="242.21629" width="100%" height="100%" xlink:href="#b"/><use x="446.53159" y="242.21629" width="100%" height="100%" xlink:href="#m"/><use x="451.53561" y="242.21629" width="100%" height="100%" xlink:href="#j"/><use x="456.53961" y="242.21629" width="100%" height="100%" xlink:href="#g"/><use x="459.53659" y="242.21629" width="100%" height="100%" xlink:href="#a"/></g><path d="m256.18 195.05 64.969-0.80859" fill="none" stroke="#211e1e" stroke-width=".75"/><path d="m254.94 195.6c0.8711 0.25 1.4375 0.48437 2.1406 0.75391l-0.0352-2.6445c-0.25 0.1211-1.2539 0.53516-2.1211 0.8086-0.92188 0.29297-1.7617 0.49609-2.3086 0.57031 0.54688 0.0625 1.3906 0.24219 2.3242 0.51172" fill="#211e1e"/><path d="m278.77 244.15h-6.2226v-8.8203h6.2226z" fill="#fff"/></svg>
