<?xml version="1.0" encoding="UTF-8"?>
<svg width="383.85pt" height="677.72pt" version="1.2" viewBox="0 0 383.85 677.72" xmlns="http://www.w3.org/2000/svg" xmlns:xlink="http://www.w3.org/1999/xlink"><defs><symbol id="x" overflow="visible"><path d="m1.1094-6.4531 1.2188 5.25 1.4531-5.25h0.95312l1.4688 5.25 1.2031-5.25h0.96875l-1.7031 6.4531h-0.92188l-1.4844-5.3594-1.5 5.3594h-0.92188l-1.6875-6.4531z"/></symbol><symbol id="i" overflow="visible"><path d="m0.57812-6.4844h0.79688v2.4219c0.1875-0.23828 0.35156-0.41016 0.5-0.51562 0.25781-0.16406 0.57812-0.25 0.95312-0.25 0.6875 0 1.1484 0.24219 1.3906 0.71875 0.13281 0.26172 0.20312 0.625 0.20312 1.0938v3.0156h-0.8125v-2.9688c0-0.34375-0.046875-0.59766-0.14062-0.76562-0.14844-0.25-0.41797-0.375-0.8125-0.375-0.32422 0-0.62109 0.11719-0.89062 0.34375-0.26172 0.21875-0.39062 0.64062-0.39062 1.2656v2.5h-0.79688z"/></symbol><symbol id="c" overflow="visible"><path d="m0.57812-4.6875h0.8125v4.6875h-0.8125zm0-1.7656h0.8125v0.89062h-0.8125z"/></symbol><symbol id="g" overflow="visible"><path d="m0.73438-6.0156h0.79688v1.3125h0.76562v0.64062h-0.76562v3.0781c0 0.15625 0.054688 0.26562 0.17188 0.32812 0.0625 0.03125 0.16406 0.046875 0.3125 0.046875h0.10938c0.050781 0 0.10938-0.003906 0.17188-0.015625v0.625c-0.09375 0.03125-0.19531 0.050781-0.29688 0.0625-0.09375 0.0078125-0.19922 0.015625-0.3125 0.015625-0.36719 0-0.61719-0.09375-0.75-0.28125-0.13672-0.19531-0.20312-0.44141-0.20312-0.73438v-3.125h-0.64062v-0.64062h0.64062z"/></symbol><symbol id="a" overflow="visible"><path d="m2.5469-4.8125c0.33203 0 0.65625 0.078125 0.96875 0.23438s0.55078 0.35938 0.71875 0.60938c0.15625 0.24219 0.25781 0.51562 0.3125 0.82812 0.039063 0.21875 0.0625 0.57031 0.0625 1.0469h-3.4375c0.007813 0.46875 0.11719 0.85156 0.32812 1.1406 0.20703 0.29297 0.53516 0.4375 0.98438 0.4375 0.41406 0 0.74219-0.13281 0.98438-0.40625 0.14453-0.16406 0.24219-0.35156 0.29688-0.5625h0.78125c-0.023437 0.17969-0.089844 0.375-0.20312 0.59375-0.11719 0.21094-0.24609 0.38281-0.39062 0.51562-0.24219 0.23047-0.53906 0.38281-0.89062 0.46875-0.1875 0.050781-0.40234 0.078125-0.64062 0.078125-0.59375 0-1.0938-0.21094-1.5-0.64062-0.40625-0.42578-0.60938-1.0234-0.60938-1.7969 0-0.75 0.20312-1.3594 0.60938-1.8281 0.41406-0.47656 0.95703-0.71875 1.625-0.71875zm1.25 2.0781c-0.03125-0.34375-0.10547-0.61328-0.21875-0.8125-0.21875-0.38281-0.58594-0.57812-1.0938-0.57812-0.35547 0-0.65625 0.13672-0.90625 0.40625-0.25 0.26172-0.38281 0.58984-0.39062 0.98438z"/></symbol><symbol id="b" overflow="visible"></symbol><symbol id="n" overflow="visible"><path d="m2.3906-4.8438c0.53125 0 0.96094 0.13281 1.2969 0.39062 0.33203 0.26172 0.53516 0.70312 0.60938 1.3281h-0.78125c-0.042969-0.28906-0.14844-0.53125-0.3125-0.71875-0.16797-0.19531-0.4375-0.29688-0.8125-0.29688-0.5 0-0.85938 0.25-1.0781 0.75-0.13672 0.3125-0.20312 0.70312-0.20312 1.1719 0 0.48047 0.097656 0.88281 0.29688 1.2031 0.19531 0.3125 0.50781 0.46875 0.9375 0.46875 0.32031 0 0.57812-0.097656 0.76562-0.29688 0.19531-0.19531 0.33203-0.47266 0.40625-0.82812h0.78125c-0.09375 0.625-0.32031 1.0859-0.67188 1.375-0.34375 0.29297-0.79297 0.4375-1.3438 0.4375-0.61719 0-1.1055-0.22266-1.4688-0.67188-0.36719-0.45703-0.54688-1.0195-0.54688-1.6875 0-0.83203 0.19531-1.4766 0.59375-1.9375 0.40625-0.45703 0.91406-0.6875 1.5312-0.6875z"/></symbol><symbol id="e" overflow="visible"><path d="m1.1875-1.25c0 0.23047 0.082031 0.41406 0.25 0.54688 0.16406 0.125 0.36328 0.1875 0.59375 0.1875 0.28125 0 0.55078-0.0625 0.8125-0.1875 0.4375-0.21875 0.65625-0.57031 0.65625-1.0625v-0.625c-0.09375 0.0625-0.21875 0.11719-0.375 0.15625-0.15625 0.03125-0.30859 0.058594-0.45312 0.078125l-0.46875 0.0625c-0.29297 0.042969-0.51172 0.10547-0.65625 0.1875-0.24219 0.13672-0.35938 0.35547-0.35938 0.65625zm1.9219-1.6094c0.17578-0.019531 0.29688-0.09375 0.35938-0.21875 0.03125-0.070313 0.046875-0.17578 0.046875-0.3125 0-0.25781-0.10156-0.45312-0.29688-0.57812-0.1875-0.125-0.46094-0.1875-0.8125-0.1875-0.41797 0-0.71094 0.11719-0.875 0.34375-0.09375 0.11719-0.15625 0.29688-0.1875 0.54688h-0.73438c0.007813-0.58203 0.19141-0.98828 0.54688-1.2188 0.36328-0.22656 0.78516-0.34375 1.2656-0.34375 0.55078 0 1.0039 0.10938 1.3594 0.32812 0.34375 0.21094 0.51562 0.53906 0.51562 0.98438v2.7031c0 0.085937 0.015625 0.15234 0.046875 0.20312 0.03125 0.054687 0.097656 0.078125 0.20312 0.078125h0.125c0.039063-0.007813 0.085938-0.019531 0.14062-0.03125v0.57812c-0.125 0.039062-0.21875 0.0625-0.28125 0.0625-0.0625 0.0078125-0.15234 0.015625-0.26562 0.015625-0.27344 0-0.46875-0.09375-0.59375-0.28125-0.0625-0.10156-0.10938-0.25-0.14062-0.4375-0.15625 0.21094-0.38672 0.39062-0.6875 0.54688-0.30469 0.15625-0.63672 0.23438-1 0.23438-0.4375 0-0.79688-0.13281-1.0781-0.39062-0.27344-0.26953-0.40625-0.60156-0.40625-1 0-0.4375 0.13281-0.77344 0.40625-1.0156 0.26953-0.23828 0.62891-0.38281 1.0781-0.4375z"/></symbol><symbol id="d" overflow="visible"><path d="m0.57812-4.7031h0.75v0.67188c0.22656-0.28125 0.46094-0.47656 0.70312-0.59375 0.25-0.125 0.53125-0.1875 0.84375-0.1875 0.66406 0 1.1133 0.23438 1.3438 0.70312 0.13281 0.25 0.20312 0.61719 0.20312 1.0938v3.0156h-0.8125v-2.9688c0-0.28125-0.042969-0.50781-0.125-0.6875-0.13672-0.28906-0.39062-0.4375-0.76562-0.4375-0.1875 0-0.33984 0.015625-0.45312 0.046875-0.21875 0.0625-0.41406 0.19531-0.57812 0.39062-0.13672 0.15625-0.22656 0.32031-0.26562 0.48438-0.03125 0.16797-0.046875 0.40234-0.046875 0.70312v2.4688h-0.79688z"/></symbol><symbol id="f" overflow="visible"><path d="m0.60938-6.4531h0.78125v6.4531h-0.78125z"/></symbol><symbol id="ap" overflow="visible"><path d="m0.23438-0.625 2.7812-3.375h-2.5781v-0.70312h3.6406v0.64062l-2.7656 3.3594h2.8594v0.70312h-3.9375z"/></symbol><symbol id="m" overflow="visible"><path d="m2.2344-4.7969c0.375 0 0.69531 0.09375 0.96875 0.28125 0.15625 0.10547 0.3125 0.25781 0.46875 0.45312v-0.59375h0.71875v4.2812c0 0.59375-0.089844 1.0625-0.26562 1.4062-0.32422 0.63281-0.94531 0.95312-1.8594 0.95312-0.5 0-0.92969-0.11719-1.2812-0.34375-0.34375-0.21875-0.53906-0.57422-0.57812-1.0625h0.8125c0.039063 0.21875 0.11719 0.38281 0.23438 0.5 0.17578 0.17578 0.45703 0.26562 0.84375 0.26562 0.60156 0 1-0.21875 1.1875-0.65625 0.10156-0.25 0.15625-0.69531 0.15625-1.3438-0.16797 0.24219-0.35938 0.42188-0.57812 0.54688-0.21875 0.11328-0.51172 0.17188-0.875 0.17188-0.51172 0-0.96094-0.17969-1.3438-0.54688-0.38672-0.36328-0.57812-0.96094-0.57812-1.7969 0-0.78906 0.19141-1.4062 0.57812-1.8438 0.38281-0.44531 0.84766-0.67188 1.3906-0.67188zm1.4375 2.4219c0-0.58203-0.125-1.0156-0.375-1.2969-0.24219-0.28125-0.54297-0.42188-0.90625-0.42188-0.5625 0-0.94531 0.26172-1.1406 0.78125-0.11719 0.28125-0.17188 0.64844-0.17188 1.0938 0 0.53125 0.10938 0.9375 0.32812 1.2188 0.21875 0.27344 0.50391 0.40625 0.85938 0.40625 0.57031 0 0.97266-0.25391 1.2031-0.76562 0.13281-0.28906 0.20312-0.62891 0.20312-1.0156z"/></symbol><symbol id="l" overflow="visible"><path d="m1.0469-1.4844c0.019531 0.27344 0.085938 0.47656 0.20312 0.60938 0.19531 0.26172 0.53906 0.39062 1.0312 0.39062 0.28906 0 0.54688-0.0625 0.76562-0.1875 0.22656-0.13281 0.34375-0.33203 0.34375-0.59375 0-0.20703-0.089844-0.36328-0.26562-0.46875-0.11719-0.0625-0.33984-0.13281-0.67188-0.21875l-0.64062-0.15625c-0.39844-0.10156-0.6875-0.21875-0.875-0.34375-0.34375-0.20703-0.51562-0.5-0.51562-0.875 0-0.44531 0.16016-0.80469 0.48438-1.0781 0.32031-0.28125 0.75391-0.42188 1.2969-0.42188 0.70703 0 1.2188 0.21094 1.5312 0.625 0.19531 0.26172 0.28906 0.54297 0.28125 0.84375h-0.75c-0.011719-0.17578-0.074219-0.33594-0.1875-0.48438-0.17969-0.20703-0.49219-0.3125-0.9375-0.3125-0.30469 0-0.53125 0.058594-0.6875 0.17188-0.15625 0.11719-0.23438 0.26562-0.23438 0.45312 0 0.21094 0.10156 0.375 0.3125 0.5 0.11328 0.074219 0.28516 0.13672 0.51562 0.1875l0.53125 0.125c0.5625 0.13672 0.94141 0.27344 1.1406 0.40625 0.30078 0.19922 0.45312 0.51562 0.45312 0.95312 0 0.41797-0.16406 0.78125-0.48438 1.0938-0.3125 0.30078-0.79297 0.45312-1.4375 0.45312-0.69922 0-1.1953-0.16406-1.4844-0.48438-0.29297-0.32031-0.44922-0.71875-0.46875-1.1875z"/></symbol><symbol id="ao" overflow="visible"><path d="m3.6875-3.5c0.40625 0 0.72656-0.078125 0.96875-0.23438 0.23828-0.16406 0.35938-0.46094 0.35938-0.89062 0-0.46875-0.16797-0.78516-0.5-0.95312-0.17969-0.082031-0.41797-0.125-0.71875-0.125h-2.125v2.2031zm-2.8906-2.9531h2.9844c0.48828 0 0.89453 0.074219 1.2188 0.21875 0.60156 0.27344 0.90625 0.77734 0.90625 1.5156 0 0.38672-0.085937 0.70312-0.25 0.95312-0.15625 0.25-0.375 0.44922-0.65625 0.59375 0.25 0.10547 0.4375 0.24219 0.5625 0.40625 0.125 0.16797 0.19531 0.4375 0.21875 0.8125l0.03125 0.85938c0.00781 0.25 0.03125 0.43359 0.0625 0.54688 0.050781 0.21094 0.14453 0.34375 0.28125 0.40625v0.14062h-1.0781c-0.03125-0.050781-0.058594-0.11719-0.078125-0.20312-0.011719-0.09375-0.023437-0.26562-0.03125-0.51562l-0.0625-1.0781c-0.023437-0.42578-0.17969-0.71094-0.46875-0.85938-0.16797-0.070313-0.42969-0.10938-0.78125-0.10938h-1.9844v2.7656h-0.875z"/></symbol><symbol id="j" overflow="visible"><path d="m2.4531-0.51562c0.51953 0 0.875-0.19531 1.0625-0.59375 0.19531-0.39453 0.29688-0.83594 0.29688-1.3281 0-0.4375-0.070312-0.78906-0.20312-1.0625-0.21875-0.4375-0.60547-0.65625-1.1562-0.65625-0.48047 0-0.82812 0.1875-1.0469 0.5625-0.21875 0.36719-0.32812 0.80859-0.32812 1.3281 0 0.5 0.10938 0.91797 0.32812 1.25 0.21875 0.33594 0.56641 0.5 1.0469 0.5zm0.03125-4.3281c0.60156 0 1.1133 0.20312 1.5312 0.60938 0.41406 0.40625 0.625 1 0.625 1.7812 0 0.76172-0.1875 1.3906-0.5625 1.8906-0.36719 0.49219-0.93359 0.73438-1.7031 0.73438-0.64844 0-1.1641-0.21875-1.5469-0.65625-0.375-0.4375-0.5625-1.0234-0.5625-1.7656 0-0.78906 0.19531-1.4219 0.59375-1.8906 0.40625-0.46875 0.94531-0.70312 1.625-0.70312z"/></symbol><symbol id="r" overflow="visible"><path d="m0.57812-4.7031h0.78125v0.67188c0.1875-0.23828 0.35938-0.41016 0.51562-0.51562 0.25781-0.17578 0.55469-0.26562 0.89062-0.26562 0.375 0 0.67578 0.09375 0.90625 0.28125 0.125 0.10547 0.23828 0.26172 0.34375 0.46875 0.17578-0.25781 0.38281-0.44531 0.625-0.5625 0.23828-0.125 0.50391-0.1875 0.79688-0.1875 0.63281 0 1.0664 0.23047 1.2969 0.6875 0.11328 0.25 0.17188 0.57812 0.17188 0.98438v3.1406h-0.8125v-3.2656c0-0.3125-0.078125-0.52344-0.23438-0.64062-0.15625-0.125-0.35156-0.1875-0.57812-0.1875-0.3125 0-0.58594 0.10547-0.8125 0.3125-0.21875 0.21094-0.32812 0.55859-0.32812 1.0469v2.7344h-0.79688v-3.0781c0-0.3125-0.042969-0.53906-0.125-0.6875-0.11719-0.21875-0.33984-0.32812-0.67188-0.32812-0.29297 0-0.5625 0.11719-0.8125 0.34375-0.24219 0.23047-0.35938 0.64844-0.35938 1.25v2.5h-0.79688z"/></symbol><symbol id="k" overflow="visible"><path d="m1.0781-2.2969c0 0.5 0.10156 0.92188 0.3125 1.2656 0.21875 0.34375 0.56641 0.51562 1.0469 0.51562 0.36328 0 0.66016-0.15625 0.89062-0.46875 0.23828-0.32031 0.35938-0.77344 0.35938-1.3594 0-0.60156-0.125-1.0469-0.375-1.3281-0.24219-0.28125-0.53906-0.42188-0.89062-0.42188-0.39844 0-0.71875 0.15234-0.96875 0.45312-0.25 0.30469-0.375 0.75-0.375 1.3438zm1.1875-2.5c0.36328 0 0.66406 0.078125 0.90625 0.23438 0.14453 0.085937 0.30469 0.24219 0.48438 0.46875v-2.3906h0.76562v6.4844h-0.71875v-0.65625c-0.1875 0.29297-0.40625 0.50781-0.65625 0.64062-0.25 0.125-0.53906 0.1875-0.85938 0.1875-0.53125 0-0.99219-0.21875-1.375-0.65625-0.375-0.44531-0.5625-1.0352-0.5625-1.7656 0-0.6875 0.17188-1.2812 0.51562-1.7812 0.35156-0.50781 0.85156-0.76562 1.5-0.76562z"/></symbol><symbol id="p" overflow="visible"><path d="m0.9375-4.7031 0.90625 3.7031 0.92188-3.7031h0.89062l0.92188 3.6875 0.96875-3.6875h0.78125l-1.3594 4.7031h-0.82812l-0.95312-3.6406-0.92188 3.6406h-0.82812l-1.3594-4.7031z"/></symbol><symbol id="w" overflow="visible"><path d="m0.96875-4.7031 1.25 3.8281 1.3125-3.8281h0.875l-1.7812 4.7031h-0.84375l-1.7344-4.7031z"/></symbol><symbol id="h" overflow="visible"><path d="m0.60938-4.7031h0.75v0.8125c0.0625-0.15625 0.21094-0.34766 0.45312-0.57812 0.23828-0.22656 0.51562-0.34375 0.82812-0.34375 0.00781 0 0.03125 0.00781 0.0625 0.015625h0.1875v0.84375c-0.042969-0.007813-0.085937-0.015625-0.125-0.015625-0.042969-0.007813-0.089844-0.015625-0.14062-0.015625-0.39844 0-0.70312 0.13281-0.92188 0.39062-0.21094 0.26172-0.3125 0.55859-0.3125 0.89062v2.7031h-0.78125z"/></symbol><symbol id="an" overflow="visible"><path d="m0.5625-6.4531h0.76562v3.75l2.0312-2h1l-1.7969 1.7656 1.9062 2.9375h-1.0156l-1.4688-2.375-0.65625 0.60938v1.7656h-0.76562z"/></symbol><symbol id="s" overflow="visible"><path d="m1.375-4.7031v3.125c0 0.24219 0.035156 0.43359 0.10938 0.57812 0.14453 0.28125 0.40625 0.42188 0.78125 0.42188 0.55078 0 0.92578-0.24219 1.125-0.73438 0.11328-0.25781 0.17188-0.61719 0.17188-1.0781v-2.3125h0.78125v4.7031h-0.73438v-0.6875c-0.10547 0.17969-0.23047 0.32812-0.375 0.45312-0.30469 0.23828-0.67188 0.35938-1.1094 0.35938-0.66797 0-1.1211-0.22266-1.3594-0.67188-0.13672-0.23828-0.20312-0.55469-0.20312-0.95312v-3.2031z"/></symbol><symbol id="am" overflow="visible"><path d="m5.3906-6.4531v0.76562h-2.1875v5.6875h-0.875v-5.6875h-2.1875v-0.76562z"/></symbol><symbol id="al" overflow="visible"><path d="m2.6562-6.5625c-0.46094 0.89844-0.75781 1.5547-0.89062 1.9688-0.21094 0.64844-0.3125 1.3906-0.3125 2.2344s0.11719 1.6211 0.35938 2.3281c0.14453 0.42578 0.42969 1.0508 0.85938 1.875h-0.53125c-0.42969-0.67969-0.69531-1.1094-0.79688-1.2969-0.09375-0.17969-0.20312-0.42188-0.32812-0.73438-0.16797-0.4375-0.28125-0.89844-0.34375-1.3906-0.03125-0.25781-0.046875-0.50391-0.046875-0.73438 0-0.86328 0.13281-1.6328 0.40625-2.3125 0.17578-0.4375 0.53516-1.082 1.0781-1.9375z"/></symbol><symbol id="ah" overflow="visible"><path d="m0.51562-6.4844h0.76562v2.3438c0.17578-0.21875 0.38281-0.38281 0.625-0.5 0.23828-0.125 0.5-0.1875 0.78125-0.1875 0.58203 0 1.0547 0.20312 1.4219 0.60938 0.36328 0.39844 0.54688 0.99219 0.54688 1.7812 0 0.74219-0.18359 1.3594-0.54688 1.8594-0.35547 0.49219-0.85156 0.73438-1.4844 0.73438-0.35547 0-0.65625-0.089844-0.90625-0.26562-0.14844-0.10156-0.30469-0.26953-0.46875-0.5v0.60938h-0.73438zm2.0625 5.9375c0.42578 0 0.74219-0.16406 0.95312-0.5 0.21875-0.34375 0.32812-0.79688 0.32812-1.3594 0-0.48828-0.10938-0.89453-0.32812-1.2188-0.21094-0.33203-0.52344-0.5-0.9375-0.5-0.35547 0-0.66797 0.13672-0.9375 0.40625-0.27344 0.26172-0.40625 0.69922-0.40625 1.3125 0 0.44922 0.050781 0.80859 0.15625 1.0781 0.20703 0.52344 0.59766 0.78125 1.1719 0.78125z"/></symbol><symbol id="ak" overflow="visible"><path d="m0.3125 1.8438c0.46875-0.91797 0.76953-1.5859 0.90625-2 0.19531-0.625 0.29688-1.3594 0.29688-2.2031 0-0.85156-0.11719-1.6289-0.34375-2.3281-0.15625-0.4375-0.44922-1.0625-0.875-1.875h0.53125c0.44531 0.71875 0.71875 1.168 0.8125 1.3438 0.10156 0.16797 0.20703 0.39844 0.3125 0.6875 0.14453 0.36719 0.24219 0.73047 0.29688 1.0938 0.0625 0.35547 0.09375 0.69922 0.09375 1.0312 0 0.86719-0.13672 1.6367-0.40625 2.3125-0.17969 0.4375-0.53906 1.082-1.0781 1.9375z"/></symbol><symbol id="v" overflow="visible"><path d="m0.78125-5.4219c0.007813-0.33203 0.066406-0.57031 0.17188-0.71875 0.17578-0.26953 0.53125-0.40625 1.0625-0.40625h0.15625c0.050781 0 0.10938 0.00781 0.17188 0.015625v0.71875h-0.17188c-0.03125-0.00781-0.070312-0.015625-0.10938-0.015625-0.24219 0-0.38672 0.0625-0.4375 0.1875-0.042969 0.125-0.0625 0.44531-0.0625 0.95312h0.78125v0.625h-0.78125v4.0625h-0.78125v-4.0625h-0.65625v-0.625h0.65625z"/></symbol><symbol id="bd" overflow="visible"><path d="m0.125-4.7031h1.0312l1.0781 1.6562 1.0938-1.6562 0.96875 0.015625-1.5938 2.2812 1.6562 2.4062h-1l-1.1719-1.7656-1.1406 1.7656h-1l1.6562-2.4062z"/></symbol><symbol id="ag" overflow="visible"><path d="m3.5156-4.7031h0.875c-0.10547 0.30469-0.35156 0.99219-0.73438 2.0625-0.29297 0.8125-0.53125 1.4766-0.71875 1.9844-0.46094 1.1953-0.78125 1.9258-0.96875 2.1875-0.1875 0.25781-0.51172 0.39062-0.96875 0.39062-0.11719 0-0.20312-0.00781-0.26562-0.015625-0.054687 0-0.125-0.011719-0.21875-0.03125v-0.73438c0.13281 0.039063 0.23438 0.066406 0.29688 0.078125 0.0625 0.00781 0.11719 0.015625 0.17188 0.015625 0.14453 0 0.25-0.027344 0.3125-0.078125 0.070313-0.054687 0.13281-0.10938 0.1875-0.17188 0.007813-0.03125 0.054688-0.15625 0.14062-0.375 0.09375-0.21094 0.16016-0.36719 0.20312-0.46875l-1.7344-4.8438h0.89062l1.2656 3.8281z"/></symbol><symbol id="bc" overflow="visible"><path d="m2.5625-0.53125c0.375 0 0.67969-0.14844 0.92188-0.45312 0.25-0.3125 0.375-0.77344 0.375-1.3906 0-0.375-0.058594-0.69531-0.17188-0.96875-0.19922-0.51953-0.57422-0.78125-1.125-0.78125-0.54297 0-0.91797 0.27344-1.125 0.8125-0.10547 0.30469-0.15625 0.67969-0.15625 1.125 0 0.36719 0.050781 0.67188 0.15625 0.92188 0.20703 0.49219 0.58203 0.73438 1.125 0.73438zm-2.0469-4.1562h0.76562v0.625c0.16406-0.20703 0.34375-0.375 0.53125-0.5 0.25781-0.17578 0.57031-0.26562 0.9375-0.26562 0.53125 0 0.97656 0.21094 1.3438 0.625 0.375 0.40625 0.5625 0.99219 0.5625 1.75 0 1.0234-0.26562 1.75-0.79688 2.1875-0.34375 0.28125-0.74219 0.42188-1.1875 0.42188-0.35547 0-0.65234-0.078125-0.89062-0.23438-0.14844-0.082031-0.30469-0.23438-0.46875-0.45312v2.4062h-0.79688z"/></symbol><symbol id="bb" overflow="visible"><path d="m0.6875-6.4531h1.0312l3.2656 5.2344v-5.2344h0.82812v6.4531h-0.98438l-3.3125-5.2188v5.2188h-0.82812z"/></symbol><symbol id="aj" overflow="visible"><path d="m0.76562-6.4531h2.9062c0.57031 0 1.0352 0.16406 1.3906 0.48438 0.35156 0.32422 0.53125 0.77734 0.53125 1.3594 0 0.51172-0.15625 0.95312-0.46875 1.3281-0.3125 0.36719-0.79688 0.54688-1.4531 0.54688h-2.0312v2.7344h-0.875zm3.9375 1.8594c0-0.47656-0.17969-0.80078-0.53125-0.96875-0.1875-0.09375-0.44922-0.14062-0.78125-0.14062h-1.75v2.2344h1.75c0.38281 0 0.69531-0.082031 0.9375-0.25 0.25-0.16406 0.375-0.45703 0.375-0.875z"/></symbol><symbol id="ba" overflow="visible"><path d="m0.6875-6.4531h0.875v5.6875h3.2656v0.76562h-4.1406z"/></symbol><symbol id="az" overflow="visible"><path d="m3.1719-0.75c0.28906 0 0.53125-0.03125 0.71875-0.09375 0.34375-0.11328 0.625-0.33203 0.84375-0.65625 0.16406-0.25781 0.28906-0.59375 0.375-1 0.039063-0.23828 0.0625-0.46094 0.0625-0.67188 0-0.80078-0.16406-1.4219-0.48438-1.8594-0.3125-0.44531-0.82422-0.67188-1.5312-0.67188h-1.5469v4.9531zm-2.4531-5.7031h2.625c0.88281 0 1.5703 0.3125 2.0625 0.9375 0.4375 0.57422 0.65625 1.3047 0.65625 2.1875 0 0.6875-0.13281 1.3086-0.39062 1.8594-0.44922 0.98047-1.2305 1.4688-2.3438 1.4688h-2.6094z"/></symbol><symbol id="ay" overflow="visible"><path d="m0.71875-6.8281h4.8594v1.2031h-3.4375v1.5781h3v1.1875h-3v2.8594h-1.4219z"/></symbol><symbol id="o" overflow="visible"></symbol><symbol id="ar" overflow="visible"><path d="m-0.015625-3.1562h5.3125v1h-5.3125z"/></symbol><symbol id="aq" overflow="visible"><path d="m0.42188-3.3594c0-1.1953 0.32031-2.1172 0.96875-2.7656 0.55078-0.5625 1.2578-0.84375 2.125-0.84375 1.1445 0 1.9844 0.38281 2.5156 1.1406 0.28906 0.41797 0.45312 0.83984 0.48438 1.2656h-1.4375c-0.09375-0.32031-0.21484-0.56641-0.35938-0.73438-0.26172-0.30078-0.64844-0.45312-1.1562-0.45312-0.52344 0-0.93359 0.21484-1.2344 0.64062-0.29297 0.41797-0.4375 1.0078-0.4375 1.7656 0 0.77344 0.15625 1.3516 0.46875 1.7344 0.32031 0.375 0.72656 0.5625 1.2188 0.5625 0.5 0 0.87891-0.16016 1.1406-0.48438 0.14453-0.17578 0.26562-0.44141 0.35938-0.79688h1.4219c-0.125 0.75-0.44531 1.3594-0.95312 1.8281-0.51172 0.46094-1.1641 0.6875-1.9531 0.6875-0.99219 0-1.7656-0.3125-2.3281-0.9375-0.5625-0.63281-0.84375-1.5039-0.84375-2.6094z"/></symbol><symbol id="ac" overflow="visible"><path d="m2.8906-0.9375c0.38281 0 0.67969-0.13281 0.89062-0.40625 0.20703-0.28125 0.3125-0.67188 0.3125-1.1719 0-0.50781-0.10547-0.89844-0.3125-1.1719-0.21094-0.26953-0.50781-0.40625-0.89062-0.40625-0.38672 0-0.6875 0.13672-0.90625 0.40625-0.21094 0.27344-0.3125 0.66406-0.3125 1.1719 0 0.5 0.10156 0.89062 0.3125 1.1719 0.21875 0.27344 0.51953 0.40625 0.90625 0.40625zm2.5781-1.5781c0 0.74219-0.21484 1.375-0.64062 1.9062-0.42969 0.52344-1.0742 0.78125-1.9375 0.78125-0.86719 0-1.5117-0.25781-1.9375-0.78125-0.42969-0.53125-0.64062-1.1641-0.64062-1.9062 0-0.72656 0.21094-1.3594 0.64062-1.8906 0.42578-0.53906 1.0703-0.8125 1.9375-0.8125 0.86328 0 1.5078 0.27344 1.9375 0.8125 0.42578 0.53125 0.64062 1.1641 0.64062 1.8906z"/></symbol><symbol id="t" overflow="visible"><path d="m3.4219-5.1719c0.51953 0 0.94531 0.13672 1.2812 0.40625 0.33203 0.27344 0.5 0.72656 0.5 1.3594v3.4062h-1.3594v-3.0781c0-0.25781-0.039062-0.46094-0.10938-0.60938-0.125-0.25781-0.37109-0.39062-0.73438-0.39062-0.44922 0-0.75781 0.19531-0.92188 0.57812-0.09375 0.19922-0.14062 0.45312-0.14062 0.76562v2.7344h-1.3125v-5.0469h1.2812v0.73438c0.16406-0.25781 0.32812-0.44531 0.48438-0.5625 0.26953-0.19531 0.61328-0.29688 1.0312-0.29688z"/></symbol><symbol id="ab" overflow="visible"><path d="m0.09375-4.0625v-0.95312h0.70312v-1.4062h1.3125v1.4062h0.82812v0.95312h-0.82812v2.6719c0 0.21094 0.023438 0.33984 0.078125 0.39062 0.050781 0.042969 0.21094 0.0625 0.48438 0.0625h0.125 0.14062v0.98438l-0.625 0.015625c-0.625 0.03125-1.0547-0.070312-1.2812-0.3125-0.15625-0.15625-0.23438-0.39062-0.23438-0.70312v-3.1094z"/></symbol><symbol id="z" overflow="visible"><path d="m1.9688-5.6562h-1.3281v-1.2188h1.3281zm-1.3281 0.59375h1.3281v5.0625h-1.3281z"/></symbol><symbol id="y" overflow="visible"><path d="m1.9375-5.0625v3.0469c0 0.29297 0.03125 0.51172 0.09375 0.65625 0.125 0.26172 0.36328 0.39062 0.71875 0.39062 0.44531 0 0.75391-0.17969 0.92188-0.54688 0.082031-0.19531 0.125-0.46094 0.125-0.79688v-2.75h1.3438v5.0625h-1.2812v-0.71875c-0.011719 0.023437-0.042969 0.074219-0.09375 0.15625-0.054687 0.074219-0.10938 0.13672-0.17188 0.1875-0.21094 0.1875-0.41406 0.3125-0.60938 0.375-0.1875 0.070312-0.41406 0.10938-0.67188 0.10938-0.75 0-1.2578-0.26953-1.5156-0.8125-0.14844-0.28906-0.21875-0.72656-0.21875-1.3125v-3.0469z"/></symbol><symbol id="af" overflow="visible"><path d="m1.6406-1.6094c0.03125 0.23047 0.09375 0.39844 0.1875 0.5 0.16406 0.17969 0.46875 0.26562 0.90625 0.26562 0.25781 0 0.46094-0.035156 0.60938-0.10938 0.15625-0.082031 0.23438-0.20312 0.23438-0.35938 0-0.14453-0.058594-0.25781-0.17188-0.34375-0.125-0.070313-0.58984-0.20312-1.3906-0.39062-0.5625-0.14453-0.96484-0.32031-1.2031-0.53125-0.24219-0.21875-0.35938-0.52344-0.35938-0.92188 0-0.45703 0.17969-0.85156 0.54688-1.1875 0.375-0.34375 0.89453-0.51562 1.5625-0.51562 0.625 0 1.1328 0.13281 1.5312 0.39062 0.39453 0.25 0.625 0.68359 0.6875 1.2969h-1.3281c-0.011719-0.16406-0.058594-0.30078-0.14062-0.40625-0.14844-0.17578-0.39062-0.26562-0.73438-0.26562-0.29297 0-0.5 0.046875-0.625 0.14062-0.11719 0.085937-0.17188 0.1875-0.17188 0.3125 0 0.14844 0.0625 0.25781 0.1875 0.32812 0.13281 0.074219 0.59375 0.19531 1.375 0.35938 0.53125 0.125 0.92578 0.3125 1.1875 0.5625 0.25781 0.26172 0.39062 0.57812 0.39062 0.95312 0 0.5-0.1875 0.91406-0.5625 1.2344-0.375 0.3125-0.94922 0.46875-1.7188 0.46875-0.80469 0-1.3906-0.16797-1.7656-0.5-0.375-0.33203-0.5625-0.75781-0.5625-1.2812z"/></symbol><symbol id="q" overflow="visible"><path d="m3.4062-2.4531c-0.085937 0.054687-0.16797 0.09375-0.25 0.125-0.085937 0.03125-0.20312 0.0625-0.35938 0.09375l-0.29688 0.046875c-0.27344 0.054687-0.46875 0.11719-0.59375 0.1875-0.21094 0.11719-0.3125 0.30469-0.3125 0.5625 0 0.21875 0.0625 0.38281 0.1875 0.48438 0.125 0.10547 0.28125 0.15625 0.46875 0.15625 0.28125 0 0.53906-0.082031 0.78125-0.25 0.23828-0.16406 0.36328-0.47266 0.375-0.92188zm-0.79688-0.625c0.23828-0.03125 0.41016-0.066406 0.51562-0.10938 0.1875-0.082031 0.28125-0.20703 0.28125-0.375 0-0.20703-0.074219-0.34766-0.21875-0.42188-0.13672-0.082031-0.34375-0.125-0.625-0.125-0.3125 0-0.53906 0.078125-0.67188 0.23438-0.085937 0.10547-0.14062 0.25781-0.17188 0.45312h-1.2812c0.03125-0.4375 0.15625-0.80078 0.375-1.0938 0.34375-0.4375 0.94141-0.65625 1.7969-0.65625 0.55078 0 1.0391 0.10938 1.4688 0.32812 0.4375 0.21875 0.65625 0.63281 0.65625 1.2344v2.3281 0.57812c0.00781 0.17969 0.035156 0.29688 0.078125 0.35938 0.039063 0.0625 0.10938 0.11719 0.20312 0.15625v0.1875h-1.4375c-0.042969-0.10156-0.074219-0.19531-0.09375-0.28125-0.011719-0.09375-0.023437-0.19531-0.03125-0.3125-0.1875 0.19922-0.39844 0.36719-0.625 0.5-0.29297 0.16406-0.61719 0.25-0.96875 0.25-0.46094 0-0.83984-0.13281-1.1406-0.39062-0.29297-0.25781-0.4375-0.62891-0.4375-1.1094 0-0.625 0.23828-1.0703 0.71875-1.3438 0.25781-0.15625 0.64453-0.26562 1.1562-0.32812z"/></symbol><symbol id="ax" overflow="visible"><path d="m0.125 0 1.7188-2.5625-1.6562-2.4844h1.625l0.84375 1.4688 0.82812-1.4688h1.5781l-1.6719 2.4688 1.7344 2.5781h-1.6562l-0.85938-1.5156-0.89062 1.5156z"/></symbol><symbol id="aa" overflow="visible"><path d="m1.9688 0h-1.3281v-6.8438h1.3281z"/></symbol><symbol id="ae" overflow="visible"><path d="m3.3594-5.1719h0.0625 0.125v1.3594c-0.085937-0.007813-0.16406-0.015625-0.23438-0.015625-0.0625-0.007813-0.11719-0.015625-0.15625-0.015625-0.53125 0-0.88672 0.17969-1.0625 0.53125-0.10547 0.1875-0.15625 0.48438-0.15625 0.89062v2.4219h-1.3281v-5.0625h1.25v0.89062c0.20703-0.34375 0.38281-0.57031 0.53125-0.6875 0.25-0.20703 0.57031-0.3125 0.96875-0.3125z"/></symbol><symbol id="aw" overflow="visible"><path d="m0.82812 0.96875 0.15625 0.015625c0.13281 0 0.25781-0.011719 0.375-0.03125 0.11328-0.011719 0.21094-0.042969 0.29688-0.09375 0.070313-0.054687 0.14062-0.16406 0.20312-0.32812 0.070313-0.16797 0.10156-0.27344 0.09375-0.3125l-1.8594-5.2812h1.4688l1.1094 3.7344 1.0469-3.7344h1.4062l-1.7344 4.9844c-0.33594 0.95703-0.60156 1.5508-0.79688 1.7812-0.19922 0.22656-0.58984 0.34375-1.1719 0.34375h-0.28125c-0.074219 0-0.17969-0.00781-0.3125-0.015625z"/></symbol><symbol id="u" overflow="visible"><path d="m2.6094-4.0938c-0.30469 0-0.54297 0.09375-0.71875 0.28125-0.16797 0.1875-0.27344 0.44922-0.3125 0.78125h2.0625c-0.023437-0.35156-0.13281-0.61719-0.32812-0.79688-0.1875-0.17578-0.42188-0.26562-0.70312-0.26562zm0-1.0938c0.42578 0 0.80469 0.078125 1.1406 0.23438 0.33203 0.15625 0.60938 0.40625 0.82812 0.75 0.19531 0.30469 0.32812 0.65234 0.39062 1.0469 0.03125 0.23047 0.046875 0.5625 0.046875 1h-3.4688c0.019531 0.5 0.17969 0.85547 0.48438 1.0625 0.17578 0.125 0.39453 0.1875 0.65625 0.1875 0.26953 0 0.48828-0.078125 0.65625-0.23438 0.09375-0.082031 0.17578-0.19531 0.25-0.34375h1.3438c-0.03125 0.30469-0.1875 0.60547-0.46875 0.90625-0.42969 0.5-1.0312 0.75-1.8125 0.75-0.64844 0-1.2148-0.20703-1.7031-0.625-0.49219-0.41406-0.73438-1.0938-0.73438-2.0312 0-0.875 0.21875-1.5391 0.65625-2 0.44531-0.46875 1.0234-0.70312 1.7344-0.70312z"/></symbol><symbol id="av" overflow="visible"><path d="m0.54688 1.0938c0.26953-0.074219 0.46875-0.19922 0.59375-0.375 0.125-0.16797 0.19141-0.40625 0.20312-0.71875h-0.79688v-1.375h1.4219v1.1875c0 0.20703-0.027344 0.42578-0.078125 0.65625-0.054687 0.22656-0.15625 0.42578-0.3125 0.59375-0.15625 0.1875-0.35156 0.32031-0.57812 0.40625-0.21875 0.09375-0.37109 0.14062-0.45312 0.14062z"/></symbol><symbol id="ad" overflow="visible"><path d="m3.6406-3.25c-0.03125-0.1875-0.09375-0.35156-0.1875-0.5-0.15625-0.20703-0.39062-0.3125-0.70312-0.3125-0.4375 0-0.74219 0.22656-0.90625 0.67188-0.085937 0.23047-0.125 0.54297-0.125 0.9375 0 0.36719 0.039063 0.66406 0.125 0.89062 0.15625 0.41797 0.45312 0.625 0.89062 0.625 0.3125 0 0.53125-0.082031 0.65625-0.25 0.125-0.16406 0.20312-0.37891 0.23438-0.64062h1.3594c-0.03125 0.39844-0.17969 0.77734-0.4375 1.1406-0.41797 0.57422-1.0312 0.85938-1.8438 0.85938s-1.4141-0.23828-1.7969-0.71875c-0.38672-0.47656-0.57812-1.1016-0.57812-1.875 0-0.875 0.20703-1.5508 0.625-2.0312 0.42578-0.47656 1.0156-0.71875 1.7656-0.71875 0.63281 0 1.1484 0.14062 1.5469 0.42188 0.40625 0.28125 0.64453 0.78125 0.71875 1.5z"/></symbol><symbol id="ai" overflow="visible"><path d="m3.4062-5.1875c0.3125 0 0.59375 0.058594 0.84375 0.17188 0.25781 0.10547 0.47266 0.26562 0.64062 0.48438 0.13281 0.1875 0.21875 0.38672 0.25 0.59375 0.03125 0.19922 0.046875 0.52344 0.046875 0.96875v2.9688h-1.3438v-3.0781c0-0.26953-0.046875-0.48828-0.14062-0.65625-0.125-0.23828-0.35547-0.35938-0.6875-0.35938-0.35547 0-0.625 0.12109-0.8125 0.35938-0.17969 0.23047-0.26562 0.5625-0.26562 1v2.7344h-1.3125v-6.8125h1.3125v2.4219c0.19531-0.30078 0.42188-0.50781 0.67188-0.625 0.25-0.11328 0.51562-0.17188 0.79688-0.17188z"/></symbol><symbol id="au" overflow="visible"><path d="m3.7344-5.0625h1.4219l-1.8281 5.0625h-1.3906l-1.8125-5.0625h1.4844l1.0469 3.7344z"/></symbol><symbol id="at" overflow="visible"><path d="m2.4844-6.9062c0.082031 0 0.15625 0.00781 0.21875 0.015625 0.070313 0 0.16406 0.00781 0.28125 0.015625v1.0781c-0.074219-0.007813-0.19922-0.015625-0.375-0.015625-0.16797-0.007813-0.28906 0.027344-0.35938 0.10938-0.0625 0.085937-0.09375 0.17188-0.09375 0.26562v0.42188h0.85938v0.9375h-0.85938v4.0781h-1.3281v-4.0781h-0.73438v-0.9375h0.73438v-0.3125c0-0.53906 0.085938-0.91406 0.26562-1.125 0.1875-0.30078 0.64844-0.45312 1.3906-0.45312z"/></symbol><symbol id="as" overflow="visible"><path d="m2.7812-1.0781c0.3125 0 0.57031-0.11328 0.78125-0.34375 0.21875-0.23828 0.32812-0.61328 0.32812-1.125 0-0.47656-0.10547-0.84375-0.3125-1.0938-0.19922-0.25-0.46484-0.375-0.79688-0.375-0.46875 0-0.79297 0.21484-0.96875 0.64062-0.09375 0.24219-0.14062 0.52734-0.14062 0.85938 0 0.30469 0.050781 0.57031 0.15625 0.79688 0.17578 0.42969 0.49219 0.64062 0.95312 0.64062zm-0.32812-4.0938c0.25781 0 0.48438 0.039062 0.67188 0.10938 0.32031 0.13672 0.58203 0.38281 0.78125 0.73438v-0.73438h1.2812v4.7969c0 0.65625-0.10938 1.1484-0.32812 1.4844-0.375 0.5625-1.1016 0.84375-2.1719 0.84375-0.64844 0-1.1797-0.125-1.5938-0.375-0.40625-0.25-0.63281-0.63281-0.67188-1.1406h1.4375c0.039063 0.15625 0.10156 0.26953 0.1875 0.34375 0.14453 0.11328 0.38281 0.17188 0.71875 0.17188 0.47656 0 0.79688-0.15625 0.95312-0.46875 0.10156-0.21094 0.15625-0.55469 0.15625-1.0312v-0.32812c-0.125 0.21875-0.26172 0.38281-0.40625 0.48438-0.26172 0.19922-0.60547 0.29688-1.0312 0.29688-0.64844 0-1.1641-0.22266-1.5469-0.67188-0.38672-0.45703-0.57812-1.0781-0.57812-1.8594 0-0.75 0.17969-1.3789 0.54688-1.8906 0.375-0.50781 0.90625-0.76562 1.5938-0.76562z"/></symbol></defs><path d="m71.158 382.5v-356.67h64.113v70.355c0 6.7188 5.5586 10.512 8.6602 4.6484 3.1055-5.8633 32.953-61.719 48.207-77.762l36.43 25.52c-18.672 31.91-52.98 86.609-68.969 153.9-2.8711 16.582-3.0039 38.133-3.0039 56.824v203.38c0 101.21 49.074 170.59 71.973 209.73l-54.73-0.0156s-27.82-47.293-29.906-51.23c-3.1016-5.8594-8.6602-2.0664-8.6602 4.6484v41.762h-64.113z" fill="#b0b0b0" stroke="#211e1e"/><g fill="none"><path d="m154.65 104.77c16.609-33.539 31.211-56.168 45.598-75.324" stroke="#facc2b" stroke-width="2"/><g stroke="#fff"><g stroke-width="4"><path d="m121.4 282.18v-62.199c0-11.824 12.871-59.801 18.84-77.969 4.6758-14.242 9.5078-26.473 14.41-37.25"/><path d="m121.42 290.24-0.0195 145.41" stroke-dasharray="4.32, 12.96"/><path d="m121.4 102.16v118.59"/><path d="m121.4 441.1v62.199c0 11.828 12.871 59.801 18.84 77.969 4.6758 14.246 9.5078 26.477 14.41 37.254"/><path d="m121.4 621.4v-119.29"/></g><path d="m121.4 664.68v-43.285" stroke-width="2"/><path d="m121.4 23.75v78.406" stroke-width="2"/></g></g><g fill="#fff"><path d="m135.3 122.63 14.359-6.0469c0.44531-1.0898 0.88672-2.1641 1.332-3.2227l-1.2148-2.8867s-12.496 5.2656-15.074 6.3477c-2.1328-1.7891-12.27-10.293-12.27-10.293l-0.83593 1v5.582l12.133 10.18z"/><path d="m121.6 127.17v7.2852l9.1523 7.6758 1.5703-0.66016 9.5781-4.0352c0.82813-2.4297 1.6562-4.793 2.4922-7.1055-3.7578 1.582-10.801 4.5469-12.664 5.332-1.5117-1.2656-7.0312-5.8945-10.129-8.4922"/><path d="m121.6 148.51v7.2852l6.168 5.1719 1.5703-0.66015 6.3008-2.6562c0.69922-2.4297 1.3711-4.7422 2.0195-6.9062-3.5547 1.5-7.5742 3.1914-8.9141 3.7539-1.0938-0.91797-4.2891-3.5938-7.1445-5.9883"/></g><path d="m82.666 668.34v-629.58" fill="none" stroke="#facc2b" stroke-width="2"/><path d="m102.11 652.31v-597.25" fill="none" stroke="#fff" stroke-dasharray="14.4, 43.2" stroke-width="2"/><path d="m167.72 38.543 61.398 42.59 27.855-52.016-66.371-16.051z" fill="#fff"/><g fill="#211e1e"><g><path d="m112.65 634.05v-6.207h1.5234l-2.5195-4.2773-2.3438 4.2773h1.4062v6.207z"/><path d="m93.365 634.05v-6.207h1.5234l-2.5156-4.2773-2.3476 4.2773h1.4062v6.207z"/><path d="m171.42 625.98-3.0039-5.4336 1.332-0.73828-4.2734-2.5234 0.0195 4.8789 1.2305-0.6836 3.0039 5.4375z"/><path d="m112.65 133.65v-6.2109h1.5234l-2.5195-4.2734-2.3438 4.2734h1.4062v6.2109z"/><path d="m93.365 133.65v-6.2109h1.5234l-2.5156-4.2734-2.3476 4.2734h1.4062v6.2109z"/><path d="m164.37 110.42 3.0742-5.3984 1.3242 0.75781-0.0703-4.9648-4.1523 2.5547 1.2188 0.69532-3.0742 5.3984z"/></g><g transform="translate(-114.02 -65)"><use x="292.94379" y="550.35248" width="100%" height="100%" xlink:href="#x"/><use x="301.43979" y="550.35248" width="100%" height="100%" xlink:href="#i"/><use x="306.44379" y="550.35248" width="100%" height="100%" xlink:href="#c"/><use x="308.4418" y="550.35248" width="100%" height="100%" xlink:href="#g"/><use x="310.94379" y="550.35248" width="100%" height="100%" xlink:href="#a"/><use x="315.94781" y="550.35248" width="100%" height="100%" xlink:href="#b"/><use x="318.4498" y="550.35248" width="100%" height="100%" xlink:href="#n"/><use x="322.9498" y="550.35248" width="100%" height="100%" xlink:href="#i"/><use x="327.9538" y="550.35248" width="100%" height="100%" xlink:href="#e"/><use x="332.95779" y="550.35248" width="100%" height="100%" xlink:href="#d"/><use x="337.96179" y="550.35248" width="100%" height="100%" xlink:href="#d"/><use x="342.96579" y="550.35248" width="100%" height="100%" xlink:href="#a"/><use x="347.96979" y="550.35248" width="100%" height="100%" xlink:href="#f"/><use x="349.9678" y="550.35248" width="100%" height="100%" xlink:href="#c"/><use x="351.96579" y="550.35248" width="100%" height="100%" xlink:href="#ap"/><use x="356.46579" y="550.35248" width="100%" height="100%" xlink:href="#c"/><use x="358.46381" y="550.35248" width="100%" height="100%" xlink:href="#d"/><use x="363.4678" y="550.35248" width="100%" height="100%" xlink:href="#m"/><use x="368.4718" y="550.35248" width="100%" height="100%" xlink:href="#b"/><use x="370.97379" y="550.35248" width="100%" height="100%" xlink:href="#f"/><use x="372.9718" y="550.35248" width="100%" height="100%" xlink:href="#c"/><use x="374.96979" y="550.35248" width="100%" height="100%" xlink:href="#d"/><use x="379.97379" y="550.35248" width="100%" height="100%" xlink:href="#a"/><use x="384.97781" y="550.35248" width="100%" height="100%" xlink:href="#l"/></g></g><path d="m140.66 43.066h-82.293v-43.066h82.293z" fill="#fff"/><path d="m182.72 667.84s-12.77-15.684-28.074-49.316" fill="none" stroke="#facc2b" stroke-width="2"/><path d="m213.21 677.36-1.0273-2.6211c-19.277-27.105-71.316-99.937-71.316-231.41l-0.20703-165.91v-55.57c0-38.59 39.312-127.68 72.203-172.51l4.2109-9.5234" fill="none" stroke="#fff" stroke-width="2"/><path d="m221.63 624.48-54.879 38.762 16.328 40.098 77.867-40.867z" fill="#fff"/><path d="m192.09 348.07-67.578 62.82" fill="none" stroke="#211e1e" stroke-width=".75"/><path d="m123.97 412.14c0.81641-0.39844 1.3945-0.60938 2.0938-0.87891l-1.8047-1.9375c-0.10157 0.25391-0.56641 1.2383-1.0234 2.0234-0.49219 0.83594-0.97656 1.5508-1.3281 1.9727 0.44532-0.32032 1.1914-0.75391 2.0625-1.1797" fill="#211e1e"/><g transform="translate(-114.02 -65)" fill="#211e1e"><use x="313.79489" y="185.064" width="100%" height="100%" xlink:href="#ao"/><use x="320.29291" y="185.064" width="100%" height="100%" xlink:href="#a"/><use x="325.29691" y="185.064" width="100%" height="100%" xlink:href="#n"/><use x="329.79691" y="185.064" width="100%" height="100%" xlink:href="#j"/><use x="334.8009" y="185.064" width="100%" height="100%" xlink:href="#r"/><use x="342.29791" y="185.064" width="100%" height="100%" xlink:href="#r"/><use x="349.79489" y="185.064" width="100%" height="100%" xlink:href="#a"/><use x="354.79889" y="185.064" width="100%" height="100%" xlink:href="#d"/><use x="359.80289" y="185.064" width="100%" height="100%" xlink:href="#k"/><use x="364.80688" y="185.064" width="100%" height="100%" xlink:href="#a"/><use x="369.81091" y="185.064" width="100%" height="100%" xlink:href="#k"/><use x="374.81491" y="185.064" width="100%" height="100%" xlink:href="#b"/><use x="377.31689" y="185.064" width="100%" height="100%" xlink:href="#p"/><use x="383.81491" y="185.064" width="100%" height="100%" xlink:href="#i"/><use x="388.81891" y="185.064" width="100%" height="100%" xlink:href="#c"/><use x="390.81689" y="185.064" width="100%" height="100%" xlink:href="#g"/><use x="393.31891" y="185.064" width="100%" height="100%" xlink:href="#a"/><use x="313.79489" y="195.063" width="100%" height="100%" xlink:href="#n"/><use x="318.29489" y="195.063" width="100%" height="100%" xlink:href="#i"/><use x="323.29889" y="195.063" width="100%" height="100%" xlink:href="#a"/><use x="328.30289" y="195.063" width="100%" height="100%" xlink:href="#w"/><use x="332.80289" y="195.063" width="100%" height="100%" xlink:href="#h"/><use x="335.7999" y="195.063" width="100%" height="100%" xlink:href="#j"/><use x="340.80389" y="195.063" width="100%" height="100%" xlink:href="#d"/><use x="345.80789" y="195.063" width="100%" height="100%" xlink:href="#b"/><use x="348.30991" y="195.063" width="100%" height="100%" xlink:href="#r"/><use x="355.80688" y="195.063" width="100%" height="100%" xlink:href="#e"/><use x="360.81091" y="195.063" width="100%" height="100%" xlink:href="#h"/><use x="363.80789" y="195.063" width="100%" height="100%" xlink:href="#an"/><use x="368.30789" y="195.063" width="100%" height="100%" xlink:href="#c"/><use x="370.30591" y="195.063" width="100%" height="100%" xlink:href="#d"/><use x="375.30991" y="195.063" width="100%" height="100%" xlink:href="#m"/><use x="380.3139" y="195.063" width="100%" height="100%" xlink:href="#l"/><use x="313.79489" y="205.062" width="100%" height="100%" xlink:href="#c"/><use x="315.79291" y="205.062" width="100%" height="100%" xlink:href="#d"/><use x="320.79691" y="205.062" width="100%" height="100%" xlink:href="#b"/><use x="323.29889" y="205.062" width="100%" height="100%" xlink:href="#d"/><use x="328.30289" y="205.062" width="100%" height="100%" xlink:href="#a"/><use x="333.30688" y="205.062" width="100%" height="100%" xlink:href="#s"/><use x="338.31091" y="205.062" width="100%" height="100%" xlink:href="#g"/><use x="340.8129" y="205.062" width="100%" height="100%" xlink:href="#h"/><use x="343.80991" y="205.062" width="100%" height="100%" xlink:href="#e"/><use x="348.8139" y="205.062" width="100%" height="100%" xlink:href="#f"/><use x="350.81189" y="205.062" width="100%" height="100%" xlink:href="#b"/><use x="353.3139" y="205.062" width="100%" height="100%" xlink:href="#e"/><use x="358.3179" y="205.062" width="100%" height="100%" xlink:href="#h"/><use x="361.31491" y="205.062" width="100%" height="100%" xlink:href="#a"/><use x="366.31891" y="205.062" width="100%" height="100%" xlink:href="#e"/><use x="300.29489" y="283.59601" width="100%" height="100%" xlink:href="#am"/><use x="305.79391" y="283.59601" width="100%" height="100%" xlink:href="#i"/><use x="310.79791" y="283.59601" width="100%" height="100%" xlink:href="#a"/><use x="315.80191" y="283.59601" width="100%" height="100%" xlink:href="#j"/><use x="320.80591" y="283.59601" width="100%" height="100%" xlink:href="#h"/><use x="323.80289" y="283.59601" width="100%" height="100%" xlink:href="#a"/><use x="328.80688" y="283.59601" width="100%" height="100%" xlink:href="#g"/><use x="331.3089" y="283.59601" width="100%" height="100%" xlink:href="#c"/><use x="333.30688" y="283.59601" width="100%" height="100%" xlink:href="#n"/><use x="337.80688" y="283.59601" width="100%" height="100%" xlink:href="#e"/><use x="342.81091" y="283.59601" width="100%" height="100%" xlink:href="#f"/><use x="344.8089" y="283.59601" width="100%" height="100%" xlink:href="#b"/><use x="347.31091" y="283.59601" width="100%" height="100%" xlink:href="#m"/><use x="352.31491" y="283.59601" width="100%" height="100%" xlink:href="#j"/><use x="357.31891" y="283.59601" width="100%" height="100%" xlink:href="#h"/><use x="360.31589" y="283.59601" width="100%" height="100%" xlink:href="#a"/><use x="119.7729" y="231.53999" width="100%" height="100%" xlink:href="#x"/><use x="128.26891" y="231.53999" width="100%" height="100%" xlink:href="#c"/><use x="130.26691" y="231.53999" width="100%" height="100%" xlink:href="#k"/><use x="135.2709" y="231.53999" width="100%" height="100%" xlink:href="#a"/><use x="140.2749" y="231.53999" width="100%" height="100%" xlink:href="#b"/><use x="142.7769" y="231.53999" width="100%" height="100%" xlink:href="#p"/><use x="149.2749" y="231.53999" width="100%" height="100%" xlink:href="#i"/><use x="154.2789" y="231.53999" width="100%" height="100%" xlink:href="#c"/><use x="156.2769" y="231.53999" width="100%" height="100%" xlink:href="#g"/><use x="158.7789" y="231.53999" width="100%" height="100%" xlink:href="#a"/><use x="113.7519" y="241.539" width="100%" height="100%" xlink:href="#n"/><use x="118.2519" y="241.539" width="100%" height="100%" xlink:href="#i"/><use x="123.2559" y="241.539" width="100%" height="100%" xlink:href="#e"/><use x="128.2599" y="241.539" width="100%" height="100%" xlink:href="#d"/><use x="133.2639" y="241.539" width="100%" height="100%" xlink:href="#d"/><use x="138.2679" y="241.539" width="100%" height="100%" xlink:href="#a"/><use x="143.2719" y="241.539" width="100%" height="100%" xlink:href="#f"/><use x="145.2699" y="241.539" width="100%" height="100%" xlink:href="#c"/><use x="147.2679" y="241.539" width="100%" height="100%" xlink:href="#ap"/><use x="151.7679" y="241.539" width="100%" height="100%" xlink:href="#c"/><use x="153.7659" y="241.539" width="100%" height="100%" xlink:href="#d"/><use x="158.7699" y="241.539" width="100%" height="100%" xlink:href="#m"/><use x="145.2789" y="251.53799" width="100%" height="100%" xlink:href="#f"/><use x="147.2769" y="251.53799" width="100%" height="100%" xlink:href="#c"/><use x="149.2749" y="251.53799" width="100%" height="100%" xlink:href="#d"/><use x="154.2789" y="251.53799" width="100%" height="100%" xlink:href="#a"/><use x="159.2829" y="251.53799" width="100%" height="100%" xlink:href="#l"/><use x="126.2169" y="542.76898" width="100%" height="100%" xlink:href="#am"/><use x="131.7159" y="542.76898" width="100%" height="100%" xlink:href="#i"/><use x="136.71989" y="542.76898" width="100%" height="100%" xlink:href="#a"/><use x="141.72391" y="542.76898" width="100%" height="100%" xlink:href="#j"/><use x="146.72791" y="542.76898" width="100%" height="100%" xlink:href="#h"/><use x="149.7249" y="542.76898" width="100%" height="100%" xlink:href="#a"/><use x="154.7289" y="542.76898" width="100%" height="100%" xlink:href="#g"/><use x="157.2309" y="542.76898" width="100%" height="100%" xlink:href="#c"/><use x="159.2289" y="542.76898" width="100%" height="100%" xlink:href="#n"/><use x="163.7289" y="542.76898" width="100%" height="100%" xlink:href="#e"/><use x="168.73289" y="542.76898" width="100%" height="100%" xlink:href="#f"/><use x="152.72189" y="552.76801" width="100%" height="100%" xlink:href="#m"/><use x="157.72591" y="552.76801" width="100%" height="100%" xlink:href="#j"/><use x="162.7299" y="552.76801" width="100%" height="100%" xlink:href="#h"/><use x="165.7269" y="552.76801" width="100%" height="100%" xlink:href="#a"/></g><path d="m53.299 166.35 64.625 0.10156" fill="none" stroke="#211e1e" stroke-width=".75"/><path d="m119.16 165.92c-0.86719-0.26563-1.4297-0.50781-2.125-0.78516l-4e-3 2.6484c0.24609-0.12109 1.2617-0.51953 2.1289-0.78125 0.92968-0.27734 1.7734-0.46875 2.3164-0.53516-0.54297-0.0703-1.3867-0.26562-2.3164-0.54687" fill="#211e1e"/><path d="m53.299 166.35 73.777 12.211" fill="none" stroke="#211e1e" stroke-width=".75"/><path d="m128.39 178.23c-0.81641-0.39843-1.332-0.73046-1.9727-1.1211l-0.43359 2.6133c0.26562-0.0742 1.3281-0.30859 2.2266-0.42187 0.96094-0.125 1.8242-0.17969 2.375-0.15625-0.52734-0.15625-1.3281-0.48438-2.1953-0.91407" fill="#211e1e"/><path d="m194.35 128.16-54.395 8.2617" fill="none" stroke="#211e1e" stroke-width=".75"/><path d="m138.81 137.14c0.89453 0.1289 1.4883 0.28125 2.2188 0.45312l-0.39844-2.6172c-0.22656 0.15234-1.168 0.70312-1.9844 1.0938-0.875 0.41406-1.6797 0.73437-2.2109 0.88281 0.55078-0.0156 1.4141 0.0469 2.375 0.1875" fill="#211e1e"/><g transform="translate(-114.02 -65)" fill="#211e1e"><use x="307.80179" y="623.80658" width="100%" height="100%" xlink:href="#ao"/><use x="314.2998" y="623.80658" width="100%" height="100%" xlink:href="#a"/><use x="319.3038" y="623.80658" width="100%" height="100%" xlink:href="#n"/><use x="323.8038" y="623.80658" width="100%" height="100%" xlink:href="#j"/><use x="328.8078" y="623.80658" width="100%" height="100%" xlink:href="#r"/><use x="336.30481" y="623.80658" width="100%" height="100%" xlink:href="#r"/><use x="343.80179" y="623.80658" width="100%" height="100%" xlink:href="#a"/><use x="348.80579" y="623.80658" width="100%" height="100%" xlink:href="#d"/><use x="353.80981" y="623.80658" width="100%" height="100%" xlink:href="#k"/><use x="358.81381" y="623.80658" width="100%" height="100%" xlink:href="#a"/><use x="363.81781" y="623.80658" width="100%" height="100%" xlink:href="#k"/><use x="368.82181" y="623.80658" width="100%" height="100%" xlink:href="#b"/><use x="371.32379" y="623.80658" width="100%" height="100%" xlink:href="#p"/><use x="377.82181" y="623.80658" width="100%" height="100%" xlink:href="#i"/><use x="382.82581" y="623.80658" width="100%" height="100%" xlink:href="#c"/><use x="384.82379" y="623.80658" width="100%" height="100%" xlink:href="#g"/><use x="387.32581" y="623.80658" width="100%" height="100%" xlink:href="#a"/><use x="307.80179" y="633.8056" width="100%" height="100%" xlink:href="#n"/><use x="312.30179" y="633.8056" width="100%" height="100%" xlink:href="#i"/><use x="317.30579" y="633.8056" width="100%" height="100%" xlink:href="#a"/><use x="322.30981" y="633.8056" width="100%" height="100%" xlink:href="#w"/><use x="326.80981" y="633.8056" width="100%" height="100%" xlink:href="#h"/><use x="329.80679" y="633.8056" width="100%" height="100%" xlink:href="#j"/><use x="334.81079" y="633.8056" width="100%" height="100%" xlink:href="#d"/><use x="339.81479" y="633.8056" width="100%" height="100%" xlink:href="#b"/><use x="342.3168" y="633.8056" width="100%" height="100%" xlink:href="#r"/><use x="349.81381" y="633.8056" width="100%" height="100%" xlink:href="#e"/><use x="354.81781" y="633.8056" width="100%" height="100%" xlink:href="#h"/><use x="357.81479" y="633.8056" width="100%" height="100%" xlink:href="#an"/><use x="362.31479" y="633.8056" width="100%" height="100%" xlink:href="#c"/><use x="364.31281" y="633.8056" width="100%" height="100%" xlink:href="#d"/><use x="369.3168" y="633.8056" width="100%" height="100%" xlink:href="#m"/><use x="374.3208" y="633.8056" width="100%" height="100%" xlink:href="#l"/><use x="307.80179" y="643.80463" width="100%" height="100%" xlink:href="#c"/><use x="309.7998" y="643.80463" width="100%" height="100%" xlink:href="#d"/><use x="314.8038" y="643.80463" width="100%" height="100%" xlink:href="#b"/><use x="317.30579" y="643.80463" width="100%" height="100%" xlink:href="#d"/><use x="322.30981" y="643.80463" width="100%" height="100%" xlink:href="#a"/><use x="327.31381" y="643.80463" width="100%" height="100%" xlink:href="#s"/><use x="332.31781" y="643.80463" width="100%" height="100%" xlink:href="#g"/><use x="334.81979" y="643.80463" width="100%" height="100%" xlink:href="#h"/><use x="337.8168" y="643.80463" width="100%" height="100%" xlink:href="#e"/><use x="342.8208" y="643.80463" width="100%" height="100%" xlink:href="#f"/><use x="344.81879" y="643.80463" width="100%" height="100%" xlink:href="#b"/><use x="347.3208" y="643.80463" width="100%" height="100%" xlink:href="#e"/><use x="352.3248" y="643.80463" width="100%" height="100%" xlink:href="#h"/><use x="355.32181" y="643.80463" width="100%" height="100%" xlink:href="#a"/><use x="360.32581" y="643.80463" width="100%" height="100%" xlink:href="#e"/></g><path d="m124.47 465.94 78.359-42.688" fill="none" stroke="#211e1e" stroke-width=".75"/><path d="m123.64 467.01c0.88672-0.1875 1.5-0.24219 2.2422-0.33203l-1.2656-2.3242c-0.16406 0.22266-0.85937 1.0586-1.4961 1.707-0.67969 0.6875-1.3281 1.2617-1.7774 1.582 0.51563-0.19921 1.3477-0.4375 2.2969-0.63281" fill="#211e1e"/><g transform="translate(-114.02 -65)" fill="#211e1e"><use x="303.87451" y="331.14651" width="100%" height="100%" xlink:href="#x"/><use x="312.37051" y="331.14651" width="100%" height="100%" xlink:href="#c"/><use x="314.3685" y="331.14651" width="100%" height="100%" xlink:href="#k"/><use x="319.3725" y="331.14651" width="100%" height="100%" xlink:href="#a"/><use x="324.3765" y="331.14651" width="100%" height="100%" xlink:href="#b"/><use x="326.87851" y="331.14651" width="100%" height="100%" xlink:href="#l"/><use x="331.37851" y="331.14651" width="100%" height="100%" xlink:href="#j"/><use x="336.38251" y="331.14651" width="100%" height="100%" xlink:href="#f"/><use x="338.38049" y="331.14651" width="100%" height="100%" xlink:href="#c"/><use x="340.37851" y="331.14651" width="100%" height="100%" xlink:href="#k"/><use x="345.38251" y="331.14651" width="100%" height="100%" xlink:href="#b"/><use x="347.88449" y="331.14651" width="100%" height="100%" xlink:href="#p"/><use x="354.38251" y="331.14651" width="100%" height="100%" xlink:href="#i"/><use x="359.38651" y="331.14651" width="100%" height="100%" xlink:href="#c"/><use x="361.38449" y="331.14651" width="100%" height="100%" xlink:href="#g"/><use x="363.88651" y="331.14651" width="100%" height="100%" xlink:href="#a"/><use x="368.8905" y="331.14651" width="100%" height="100%" xlink:href="#b"/><use x="371.39249" y="331.14651" width="100%" height="100%" xlink:href="#f"/><use x="373.3905" y="331.14651" width="100%" height="100%" xlink:href="#e"/><use x="378.3945" y="331.14651" width="100%" height="100%" xlink:href="#d"/><use x="383.3985" y="331.14651" width="100%" height="100%" xlink:href="#a"/><use x="388.4025" y="331.14651" width="100%" height="100%" xlink:href="#b"/><use x="390.90451" y="331.14651" width="100%" height="100%" xlink:href="#f"/><use x="392.9025" y="331.14651" width="100%" height="100%" xlink:href="#c"/><use x="394.90051" y="331.14651" width="100%" height="100%" xlink:href="#d"/><use x="399.90451" y="331.14651" width="100%" height="100%" xlink:href="#a"/><use x="404.90851" y="331.14651" width="100%" height="100%" xlink:href="#b"/><use x="303.87451" y="341.14551" width="100%" height="100%" xlink:href="#al"/><use x="306.87149" y="341.14551" width="100%" height="100%" xlink:href="#w"/><use x="311.37149" y="341.14551" width="100%" height="100%" xlink:href="#e"/><use x="316.37549" y="341.14551" width="100%" height="100%" xlink:href="#h"/><use x="319.3725" y="341.14551" width="100%" height="100%" xlink:href="#c"/><use x="321.37051" y="341.14551" width="100%" height="100%" xlink:href="#e"/><use x="326.37451" y="341.14551" width="100%" height="100%" xlink:href="#ah"/><use x="331.37851" y="341.14551" width="100%" height="100%" xlink:href="#f"/><use x="333.3765" y="341.14551" width="100%" height="100%" xlink:href="#a"/><use x="338.38049" y="341.14551" width="100%" height="100%" xlink:href="#b"/><use x="340.88251" y="341.14551" width="100%" height="100%" xlink:href="#f"/><use x="342.88049" y="341.14551" width="100%" height="100%" xlink:href="#a"/><use x="347.88449" y="341.14551" width="100%" height="100%" xlink:href="#d"/><use x="352.88849" y="341.14551" width="100%" height="100%" xlink:href="#m"/><use x="357.89249" y="341.14551" width="100%" height="100%" xlink:href="#g"/><use x="360.3945" y="341.14551" width="100%" height="100%" xlink:href="#i"/><use x="365.3985" y="341.14551" width="100%" height="100%" xlink:href="#ak"/><use x="323.60251" y="485.3345" width="100%" height="100%" xlink:href="#x"/><use x="332.09851" y="485.3345" width="100%" height="100%" xlink:href="#c"/><use x="334.0965" y="485.3345" width="100%" height="100%" xlink:href="#k"/><use x="339.10049" y="485.3345" width="100%" height="100%" xlink:href="#a"/><use x="344.10449" y="485.3345" width="100%" height="100%" xlink:href="#b"/><use x="346.60651" y="485.3345" width="100%" height="100%" xlink:href="#l"/><use x="351.10651" y="485.3345" width="100%" height="100%" xlink:href="#j"/><use x="356.1105" y="485.3345" width="100%" height="100%" xlink:href="#f"/><use x="358.10849" y="485.3345" width="100%" height="100%" xlink:href="#c"/><use x="360.10651" y="485.3345" width="100%" height="100%" xlink:href="#k"/><use x="365.1105" y="485.3345" width="100%" height="100%" xlink:href="#b"/><use x="367.61249" y="485.3345" width="100%" height="100%" xlink:href="#p"/><use x="374.1105" y="485.3345" width="100%" height="100%" xlink:href="#i"/><use x="379.1145" y="485.3345" width="100%" height="100%" xlink:href="#c"/><use x="381.11249" y="485.3345" width="100%" height="100%" xlink:href="#g"/><use x="383.6145" y="485.3345" width="100%" height="100%" xlink:href="#a"/><use x="388.6185" y="485.3345" width="100%" height="100%" xlink:href="#b"/><use x="391.12051" y="485.3345" width="100%" height="100%" xlink:href="#f"/><use x="393.1185" y="485.3345" width="100%" height="100%" xlink:href="#e"/><use x="398.1225" y="485.3345" width="100%" height="100%" xlink:href="#d"/><use x="403.1265" y="485.3345" width="100%" height="100%" xlink:href="#a"/><use x="408.13049" y="485.3345" width="100%" height="100%" xlink:href="#b"/><use x="410.63251" y="485.3345" width="100%" height="100%" xlink:href="#f"/><use x="412.63049" y="485.3345" width="100%" height="100%" xlink:href="#c"/><use x="414.62851" y="485.3345" width="100%" height="100%" xlink:href="#d"/><use x="419.63251" y="485.3345" width="100%" height="100%" xlink:href="#a"/><use x="424.63651" y="485.3345" width="100%" height="100%" xlink:href="#b"/><use x="323.60251" y="495.3335" width="100%" height="100%" xlink:href="#al"/><use x="326.59949" y="495.3335" width="100%" height="100%" xlink:href="#w"/><use x="331.09949" y="495.3335" width="100%" height="100%" xlink:href="#e"/><use x="336.10349" y="495.3335" width="100%" height="100%" xlink:href="#h"/><use x="339.10049" y="495.3335" width="100%" height="100%" xlink:href="#c"/><use x="341.09851" y="495.3335" width="100%" height="100%" xlink:href="#e"/><use x="346.10251" y="495.3335" width="100%" height="100%" xlink:href="#ah"/><use x="351.10651" y="495.3335" width="100%" height="100%" xlink:href="#f"/><use x="353.10449" y="495.3335" width="100%" height="100%" xlink:href="#a"/><use x="358.10849" y="495.3335" width="100%" height="100%" xlink:href="#b"/><use x="360.6105" y="495.3335" width="100%" height="100%" xlink:href="#f"/><use x="362.60849" y="495.3335" width="100%" height="100%" xlink:href="#a"/><use x="367.61249" y="495.3335" width="100%" height="100%" xlink:href="#d"/><use x="372.61649" y="495.3335" width="100%" height="100%" xlink:href="#m"/><use x="377.62051" y="495.3335" width="100%" height="100%" xlink:href="#g"/><use x="380.1225" y="495.3335" width="100%" height="100%" xlink:href="#i"/><use x="385.1265" y="495.3335" width="100%" height="100%" xlink:href="#ak"/></g><path d="m184.9 268.26-58.848-10.316" fill="none" stroke="#211e1e" stroke-width=".75"/><g><path d="m124.73 258.26c0.8125 0.41015 1.3242 0.74609 1.9648 1.1406l0.45703-2.6094c-0.26953 0.0742-1.332 0.29687-2.2344 0.40234-0.96094 0.11719-1.8242 0.16016-2.375 0.13672 0.52734 0.16016 1.3242 0.49609 2.1875 0.92969" fill="#211e1e"/><g transform="translate(-114.02 -65)" fill="#211e1e"><use x="310.37259" y="399.17291" width="100%" height="100%" xlink:href="#x"/><use x="318.86859" y="399.17291" width="100%" height="100%" xlink:href="#c"/><use x="320.86661" y="399.17291" width="100%" height="100%" xlink:href="#k"/><use x="325.87061" y="399.17291" width="100%" height="100%" xlink:href="#a"/><use x="330.8746" y="399.17291" width="100%" height="100%" xlink:href="#b"/><use x="333.37659" y="399.17291" width="100%" height="100%" xlink:href="#k"/><use x="338.38062" y="399.17291" width="100%" height="100%" xlink:href="#j"/><use x="343.38461" y="399.17291" width="100%" height="100%" xlink:href="#g"/><use x="345.8866" y="399.17291" width="100%" height="100%" xlink:href="#g"/><use x="348.38861" y="399.17291" width="100%" height="100%" xlink:href="#a"/><use x="353.39261" y="399.17291" width="100%" height="100%" xlink:href="#k"/><use x="358.39661" y="399.17291" width="100%" height="100%" xlink:href="#b"/><use x="360.89859" y="399.17291" width="100%" height="100%" xlink:href="#p"/><use x="367.39661" y="399.17291" width="100%" height="100%" xlink:href="#i"/><use x="372.4006" y="399.17291" width="100%" height="100%" xlink:href="#c"/><use x="374.39859" y="399.17291" width="100%" height="100%" xlink:href="#g"/><use x="376.9006" y="399.17291" width="100%" height="100%" xlink:href="#a"/><use x="381.9046" y="399.17291" width="100%" height="100%" xlink:href="#b"/><use x="384.40659" y="399.17291" width="100%" height="100%" xlink:href="#f"/><use x="386.4046" y="399.17291" width="100%" height="100%" xlink:href="#e"/><use x="391.4086" y="399.17291" width="100%" height="100%" xlink:href="#d"/><use x="396.4126" y="399.17291" width="100%" height="100%" xlink:href="#a"/><use x="401.4166" y="399.17291" width="100%" height="100%" xlink:href="#b"/><use x="403.91861" y="399.17291" width="100%" height="100%" xlink:href="#f"/><use x="405.9166" y="399.17291" width="100%" height="100%" xlink:href="#c"/><use x="407.91461" y="399.17291" width="100%" height="100%" xlink:href="#d"/><use x="412.91861" y="399.17291" width="100%" height="100%" xlink:href="#a"/><use x="417.92261" y="399.17291" width="100%" height="100%" xlink:href="#b"/><use x="420.42459" y="399.17291" width="100%" height="100%" xlink:href="#v"/><use x="422.92661" y="399.17291" width="100%" height="100%" xlink:href="#j"/><use x="427.9306" y="399.17291" width="100%" height="100%" xlink:href="#h"/><use x="430.92761" y="399.17291" width="100%" height="100%" xlink:href="#b"/><use x="433.4296" y="399.17291" width="100%" height="100%" xlink:href="#v"/><use x="435.93161" y="399.17291" width="100%" height="100%" xlink:href="#s"/><use x="440.93561" y="399.17291" width="100%" height="100%" xlink:href="#f"/><use x="442.93359" y="399.17291" width="100%" height="100%" xlink:href="#f"/><use x="444.93161" y="399.17291" width="100%" height="100%" xlink:href="#b"/><use x="310.37259" y="409.17191" width="100%" height="100%" xlink:href="#f"/><use x="312.37061" y="409.17191" width="100%" height="100%" xlink:href="#a"/><use x="317.3746" y="409.17191" width="100%" height="100%" xlink:href="#d"/><use x="322.3786" y="409.17191" width="100%" height="100%" xlink:href="#m"/><use x="327.3826" y="409.17191" width="100%" height="100%" xlink:href="#g"/><use x="329.88461" y="409.17191" width="100%" height="100%" xlink:href="#i"/><use x="334.88861" y="409.17191" width="100%" height="100%" xlink:href="#b"/><use x="337.39059" y="409.17191" width="100%" height="100%" xlink:href="#j"/><use x="342.39459" y="409.17191" width="100%" height="100%" xlink:href="#v"/><use x="344.89661" y="409.17191" width="100%" height="100%" xlink:href="#b"/><use x="347.39859" y="409.17191" width="100%" height="100%" xlink:href="#e"/><use x="352.40259" y="409.17191" width="100%" height="100%" xlink:href="#s"/><use x="357.40659" y="409.17191" width="100%" height="100%" xlink:href="#bd"/><use x="361.90659" y="409.17191" width="100%" height="100%" xlink:href="#c"/><use x="363.9046" y="409.17191" width="100%" height="100%" xlink:href="#f"/><use x="365.90259" y="409.17191" width="100%" height="100%" xlink:href="#c"/><use x="367.9006" y="409.17191" width="100%" height="100%" xlink:href="#e"/><use x="372.9046" y="409.17191" width="100%" height="100%" xlink:href="#h"/><use x="375.90161" y="409.17191" width="100%" height="100%" xlink:href="#ag"/><use x="380.40161" y="409.17191" width="100%" height="100%" xlink:href="#b"/><use x="382.90359" y="409.17191" width="100%" height="100%" xlink:href="#f"/><use x="384.90161" y="409.17191" width="100%" height="100%" xlink:href="#e"/><use x="389.90561" y="409.17191" width="100%" height="100%" xlink:href="#d"/><use x="394.90961" y="409.17191" width="100%" height="100%" xlink:href="#a"/><use x="399.9136" y="409.17191" width="100%" height="100%" xlink:href="#b"/><use x="402.41559" y="409.17191" width="100%" height="100%" xlink:href="#ah"/><use x="407.41959" y="409.17191" width="100%" height="100%" xlink:href="#a"/><use x="412.42361" y="409.17191" width="100%" height="100%" xlink:href="#g"/><use x="414.9256" y="409.17191" width="100%" height="100%" xlink:href="#p"/><use x="421.42361" y="409.17191" width="100%" height="100%" xlink:href="#a"/><use x="426.42761" y="409.17191" width="100%" height="100%" xlink:href="#a"/><use x="431.43161" y="409.17191" width="100%" height="100%" xlink:href="#d"/><use x="436.43561" y="409.17191" width="100%" height="100%" xlink:href="#b"/><use x="438.93759" y="409.17191" width="100%" height="100%" xlink:href="#g"/><use x="441.43961" y="409.17191" width="100%" height="100%" xlink:href="#i"/><use x="446.4436" y="409.17191" width="100%" height="100%" xlink:href="#a"/><use x="451.4476" y="409.17191" width="100%" height="100%" xlink:href="#b"/><use x="310.37259" y="419.1709" width="100%" height="100%" xlink:href="#s"/><use x="315.37659" y="419.1709" width="100%" height="100%" xlink:href="#bc"/><use x="320.38062" y="419.1709" width="100%" height="100%" xlink:href="#l"/><use x="324.88062" y="419.1709" width="100%" height="100%" xlink:href="#g"/><use x="327.3826" y="419.1709" width="100%" height="100%" xlink:href="#h"/><use x="330.37961" y="419.1709" width="100%" height="100%" xlink:href="#a"/><use x="335.38361" y="419.1709" width="100%" height="100%" xlink:href="#e"/><use x="340.3876" y="419.1709" width="100%" height="100%" xlink:href="#r"/><use x="347.88461" y="419.1709" width="100%" height="100%" xlink:href="#b"/><use x="350.3866" y="419.1709" width="100%" height="100%" xlink:href="#e"/><use x="355.39059" y="419.1709" width="100%" height="100%" xlink:href="#d"/><use x="360.39459" y="419.1709" width="100%" height="100%" xlink:href="#k"/><use x="365.39859" y="419.1709" width="100%" height="100%" xlink:href="#b"/><use x="367.9006" y="419.1709" width="100%" height="100%" xlink:href="#k"/><use x="372.9046" y="419.1709" width="100%" height="100%" xlink:href="#j"/><use x="377.9086" y="419.1709" width="100%" height="100%" xlink:href="#p"/><use x="384.40659" y="419.1709" width="100%" height="100%" xlink:href="#d"/><use x="389.41061" y="419.1709" width="100%" height="100%" xlink:href="#l"/><use x="393.91061" y="419.1709" width="100%" height="100%" xlink:href="#g"/><use x="396.4126" y="419.1709" width="100%" height="100%" xlink:href="#h"/><use x="399.40961" y="419.1709" width="100%" height="100%" xlink:href="#a"/><use x="404.4136" y="419.1709" width="100%" height="100%" xlink:href="#e"/><use x="409.4176" y="419.1709" width="100%" height="100%" xlink:href="#r"/><use x="416.91461" y="419.1709" width="100%" height="100%" xlink:href="#b"/><use x="419.4166" y="419.1709" width="100%" height="100%" xlink:href="#a"/><use x="424.42059" y="419.1709" width="100%" height="100%" xlink:href="#d"/><use x="429.42459" y="419.1709" width="100%" height="100%" xlink:href="#k"/><use x="434.42859" y="419.1709" width="100%" height="100%" xlink:href="#l"/><use x="438.92859" y="419.1709" width="100%" height="100%" xlink:href="#b"/><use x="441.4306" y="419.1709" width="100%" height="100%" xlink:href="#j"/><use x="446.4346" y="419.1709" width="100%" height="100%" xlink:href="#v"/><use x="448.93661" y="419.1709" width="100%" height="100%" xlink:href="#b"/><use x="451.4386" y="419.1709" width="100%" height="100%" xlink:href="#g"/><use x="453.94061" y="419.1709" width="100%" height="100%" xlink:href="#i"/><use x="458.94461" y="419.1709" width="100%" height="100%" xlink:href="#a"/><use x="463.94861" y="419.1709" width="100%" height="100%" xlink:href="#b"/><use x="310.37259" y="429.16989" width="100%" height="100%" xlink:href="#p"/><use x="316.87061" y="429.16989" width="100%" height="100%" xlink:href="#c"/><use x="318.86859" y="429.16989" width="100%" height="100%" xlink:href="#k"/><use x="323.87259" y="429.16989" width="100%" height="100%" xlink:href="#a"/><use x="328.87659" y="429.16989" width="100%" height="100%" xlink:href="#b"/><use x="331.3786" y="429.16989" width="100%" height="100%" xlink:href="#l"/><use x="335.8786" y="429.16989" width="100%" height="100%" xlink:href="#j"/><use x="340.8826" y="429.16989" width="100%" height="100%" xlink:href="#f"/><use x="342.88062" y="429.16989" width="100%" height="100%" xlink:href="#c"/><use x="344.8786" y="429.16989" width="100%" height="100%" xlink:href="#k"/><use x="349.8826" y="429.16989" width="100%" height="100%" xlink:href="#b"/><use x="352.38461" y="429.16989" width="100%" height="100%" xlink:href="#p"/><use x="358.8826" y="429.16989" width="100%" height="100%" xlink:href="#i"/><use x="363.8866" y="429.16989" width="100%" height="100%" xlink:href="#c"/><use x="365.88461" y="429.16989" width="100%" height="100%" xlink:href="#g"/><use x="368.3866" y="429.16989" width="100%" height="100%" xlink:href="#a"/><use x="373.39059" y="429.16989" width="100%" height="100%" xlink:href="#b"/><use x="375.89261" y="429.16989" width="100%" height="100%" xlink:href="#f"/><use x="377.89059" y="429.16989" width="100%" height="100%" xlink:href="#e"/><use x="382.89459" y="429.16989" width="100%" height="100%" xlink:href="#d"/><use x="387.89859" y="429.16989" width="100%" height="100%" xlink:href="#a"/><use x="392.90259" y="429.16989" width="100%" height="100%" xlink:href="#b"/><use x="395.4046" y="429.16989" width="100%" height="100%" xlink:href="#f"/><use x="397.40259" y="429.16989" width="100%" height="100%" xlink:href="#c"/><use x="399.4006" y="429.16989" width="100%" height="100%" xlink:href="#d"/><use x="404.4046" y="429.16989" width="100%" height="100%" xlink:href="#a"/><use x="409.4086" y="429.16989" width="100%" height="100%" xlink:href="#l"/></g><path d="m140.74 670.5h-74.453v-5.1094h74.453z" fill="#fff"/></g><path d="m116.47 504.68-57.945-23.547" fill="none" stroke="#211e1e" stroke-width=".75"/><path d="m117.82 504.65c-0.69922-0.57422-1.1289-1.0117-1.6641-1.5391l-1.0156 2.4453c0.27344-0.0117 1.3633 4e-3 2.2656 0.0937 0.96485 0.0977 1.8164 0.24219 2.3477 0.39063-0.48047-0.27344-1.1836-0.77344-1.9336-1.3906" fill="#211e1e"/><g transform="translate(-114.02 -65)" fill="#211e1e"><use x="140.6577" y="616.03131" width="100%" height="100%" xlink:href="#bb"/><use x="147.1557" y="616.03131" width="100%" height="100%" xlink:href="#a"/><use x="152.1597" y="616.03131" width="100%" height="100%" xlink:href="#s"/><use x="157.1637" y="616.03131" width="100%" height="100%" xlink:href="#g"/><use x="159.6657" y="616.03131" width="100%" height="100%" xlink:href="#h"/><use x="162.6627" y="616.03131" width="100%" height="100%" xlink:href="#e"/><use x="167.6667" y="616.03131" width="100%" height="100%" xlink:href="#f"/><use x="151.6557" y="626.03027" width="100%" height="100%" xlink:href="#e"/><use x="156.6597" y="626.03027" width="100%" height="100%" xlink:href="#h"/><use x="159.65669" y="626.03027" width="100%" height="100%" xlink:href="#a"/><use x="164.66071" y="626.03027" width="100%" height="100%" xlink:href="#e"/></g><path d="m127.16 582.75-69.711-28.359" fill="none" stroke="#211e1e" stroke-width=".75"/><path d="m128.51 582.73c-0.69922-0.57422-1.1289-1.0117-1.6641-1.5352l-1.0156 2.4414c0.27344-0.0117 1.3633 4e-3 2.2656 0.0937 0.96484 0.0977 1.8164 0.24219 2.3476 0.39063-0.48047-0.27344-1.1836-0.77344-1.9336-1.3906" fill="#211e1e"/><g transform="translate(-114.02 -65)" fill="#211e1e"><use x="138.29691" y="648.11719" width="100%" height="100%" xlink:href="#aj"/><use x="144.2999" y="648.11719" width="100%" height="100%" xlink:href="#i"/><use x="149.30389" y="648.11719" width="100%" height="100%" xlink:href="#ag"/><use x="153.80389" y="648.11719" width="100%" height="100%" xlink:href="#l"/><use x="158.30389" y="648.11719" width="100%" height="100%" xlink:href="#c"/><use x="160.3019" y="648.11719" width="100%" height="100%" xlink:href="#n"/><use x="164.8019" y="648.11719" width="100%" height="100%" xlink:href="#e"/><use x="169.80589" y="648.11719" width="100%" height="100%" xlink:href="#f"/><use x="153.79491" y="658.11621" width="100%" height="100%" xlink:href="#m"/><use x="158.7989" y="658.11621" width="100%" height="100%" xlink:href="#j"/><use x="163.8029" y="658.11621" width="100%" height="100%" xlink:href="#h"/><use x="166.7999" y="658.11621" width="100%" height="100%" xlink:href="#a"/></g><path d="m134.12 616.44-74.523-29.965" fill="none" stroke="#211e1e" stroke-width=".75"/><path d="m135.47 616.42c-0.69921-0.57422-1.1289-1.0117-1.6641-1.5391l-1.0195 2.4453c0.27734-0.0117 1.3672 4e-3 2.2695 0.0937 0.96485 0.0977 1.8164 0.24219 2.3477 0.39062-0.48047-0.27343-1.1836-0.77343-1.9336-1.3906" fill="#211e1e"/><g transform="translate(-114.02 -65)" fill="#211e1e"><use x="132.4146" y="189.8286" width="100%" height="100%" xlink:href="#aj"/><use x="138.4176" y="189.8286" width="100%" height="100%" xlink:href="#i"/><use x="143.4216" y="189.8286" width="100%" height="100%" xlink:href="#ag"/><use x="147.9216" y="189.8286" width="100%" height="100%" xlink:href="#l"/><use x="152.4216" y="189.8286" width="100%" height="100%" xlink:href="#c"/><use x="154.4196" y="189.8286" width="100%" height="100%" xlink:href="#n"/><use x="158.9196" y="189.8286" width="100%" height="100%" xlink:href="#e"/><use x="163.9236" y="189.8286" width="100%" height="100%" xlink:href="#f"/><use x="147.9126" y="199.82761" width="100%" height="100%" xlink:href="#m"/><use x="152.9166" y="199.82761" width="100%" height="100%" xlink:href="#j"/><use x="157.92059" y="199.82761" width="100%" height="100%" xlink:href="#h"/><use x="160.9176" y="199.82761" width="100%" height="100%" xlink:href="#a"/></g><path d="m134 105.32-78.785 15.625" fill="none" stroke="#211e1e" stroke-width=".75"/><path d="m135.12 104.56c-0.90235-0.0977-1.5-0.23047-2.2344-0.37891l0.48438 2.6016c0.22265-0.16016 1.1445-0.74219 1.9492-1.1562 0.86328-0.44922 1.6523-0.79297 2.1797-0.95704-0.55078 0.0312-1.4141-4e-3 -2.3789-0.10937" fill="#211e1e"/><path d="m185.94 215.75-60.398-0.043" fill="none" stroke="#211e1e" stroke-width=".75"/><g fill="#211e1e"><path d="m124.3 216.24c0.86328 0.26562 1.4297 0.51172 2.125 0.79297l8e-3 -2.6484c-0.25 0.11719-1.2617 0.51562-2.1328 0.77344-0.92969 0.28125-1.7734 0.46875-2.3164 0.53515 0.54297 0.0703 1.3867 0.26563 2.3164 0.54688"/><g transform="translate(-114.02 -65)"><use x="186.7104" y="96.870102" width="100%" height="100%" xlink:href="#ay"/><use x="192.51489" y="96.870102" width="100%" height="100%" xlink:href="#o"/><use x="195.1559" y="96.870102" width="100%" height="100%" xlink:href="#ar"/><use x="200.4379" y="96.870102" width="100%" height="100%" xlink:href="#o"/><use x="203.0789" y="96.870102" width="100%" height="100%" xlink:href="#aq"/><use x="209.9379" y="96.870102" width="100%" height="100%" xlink:href="#ac"/><use x="215.7424" y="96.870102" width="100%" height="100%" xlink:href="#t"/><use x="221.54691" y="96.870102" width="100%" height="100%" xlink:href="#ab"/><use x="224.7104" y="96.870102" width="100%" height="100%" xlink:href="#z"/><use x="227.35139" y="96.870102" width="100%" height="100%" xlink:href="#t"/><use x="233.1559" y="96.870102" width="100%" height="100%" xlink:href="#y"/><use x="238.9604" y="96.870102" width="100%" height="100%" xlink:href="#ac"/><use x="244.76489" y="96.870102" width="100%" height="100%" xlink:href="#y"/><use x="250.5694" y="96.870102" width="100%" height="100%" xlink:href="#af"/><use x="255.85139" y="96.870102" width="100%" height="100%" xlink:href="#o"/><use x="258.4924" y="96.870102" width="100%" height="100%" xlink:href="#q"/><use x="263.77441" y="96.870102" width="100%" height="100%" xlink:href="#y"/><use x="269.57889" y="96.870102" width="100%" height="100%" xlink:href="#ax"/><use x="274.8609" y="96.870102" width="100%" height="100%" xlink:href="#z"/><use x="277.50189" y="96.870102" width="100%" height="100%" xlink:href="#aa"/><use x="280.14291" y="96.870102" width="100%" height="100%" xlink:href="#z"/><use x="282.78391" y="96.870102" width="100%" height="100%" xlink:href="#q"/><use x="288.06589" y="96.870102" width="100%" height="100%" xlink:href="#ae"/><use x="291.76141" y="96.870102" width="100%" height="100%" xlink:href="#aw"/><use x="297.0434" y="96.870102" width="100%" height="100%" xlink:href="#o"/><use x="299.68439" y="96.870102" width="100%" height="100%" xlink:href="#aa"/><use x="302.32541" y="96.870102" width="100%" height="100%" xlink:href="#q"/><use x="307.60739" y="96.870102" width="100%" height="100%" xlink:href="#t"/><use x="313.4119" y="96.870102" width="100%" height="100%" xlink:href="#u"/><use x="318.69391" y="96.870102" width="100%" height="100%" xlink:href="#av"/><use x="321.3349" y="96.870102" width="100%" height="100%" xlink:href="#o"/><use x="323.97589" y="96.870102" width="100%" height="100%" xlink:href="#af"/><use x="329.2579" y="96.870102" width="100%" height="100%" xlink:href="#y"/><use x="335.06241" y="96.870102" width="100%" height="100%" xlink:href="#ad"/><use x="340.34439" y="96.870102" width="100%" height="100%" xlink:href="#ai"/><use x="346.1489" y="96.870102" width="100%" height="100%" xlink:href="#o"/><use x="348.78989" y="96.870102" width="100%" height="100%" xlink:href="#q"/><use x="354.0719" y="96.870102" width="100%" height="100%" xlink:href="#af"/><use x="359.35391" y="96.870102" width="100%" height="100%" xlink:href="#o"/><use x="361.9949" y="96.870102" width="100%" height="100%" xlink:href="#q"/><use x="367.27689" y="96.870102" width="100%" height="100%" xlink:href="#ab"/><use x="370.4404" y="96.870102" width="100%" height="100%" xlink:href="#o"/><use x="373.08139" y="96.870102" width="100%" height="100%" xlink:href="#q"/><use x="378.3634" y="96.870102" width="100%" height="100%" xlink:href="#o"/><use x="381.00439" y="96.870102" width="100%" height="100%" xlink:href="#ad"/><use x="386.28641" y="96.870102" width="100%" height="100%" xlink:href="#aa"/><use x="388.9274" y="96.870102" width="100%" height="100%" xlink:href="#ac"/><use x="394.7319" y="96.870102" width="100%" height="100%" xlink:href="#au"/><use x="400.01389" y="96.870102" width="100%" height="100%" xlink:href="#u"/><use x="405.2959" y="96.870102" width="100%" height="100%" xlink:href="#ae"/><use x="408.99139" y="96.870102" width="100%" height="100%" xlink:href="#aa"/><use x="411.63239" y="96.870102" width="100%" height="100%" xlink:href="#u"/><use x="416.9144" y="96.870102" width="100%" height="100%" xlink:href="#q"/><use x="422.19641" y="96.870102" width="100%" height="100%" xlink:href="#at"/><use x="425.35989" y="96.870102" width="100%" height="100%" xlink:href="#o"/><use x="428.00089" y="96.870102" width="100%" height="100%" xlink:href="#z"/><use x="430.64191" y="96.870102" width="100%" height="100%" xlink:href="#t"/><use x="436.44641" y="96.870102" width="100%" height="100%" xlink:href="#ab"/><use x="439.60989" y="96.870102" width="100%" height="100%" xlink:href="#u"/><use x="444.89191" y="96.870102" width="100%" height="100%" xlink:href="#ae"/><use x="448.5874" y="96.870102" width="100%" height="100%" xlink:href="#ad"/><use x="453.86938" y="96.870102" width="100%" height="100%" xlink:href="#ai"/><use x="459.67389" y="96.870102" width="100%" height="100%" xlink:href="#q"/><use x="464.9559" y="96.870102" width="100%" height="100%" xlink:href="#t"/><use x="470.76041" y="96.870102" width="100%" height="100%" xlink:href="#as"/><use x="476.56491" y="96.870102" width="100%" height="100%" xlink:href="#u"/></g><path d="m300.92 72.664h6.3555v-1.5586l4.375 2.5781-4.375 2.3984v-1.4414h-6.3555z"/></g><path d="m322.4 64.152h29.293" fill="none" stroke="#211e1e" stroke-width=".75"/><g transform="translate(-114.02 -65)" fill="#211e1e"><use x="435.94479" y="126.2017" width="100%" height="100%" xlink:href="#ba"/><use x="440.94879" y="126.2017" width="100%" height="100%" xlink:href="#a"/><use x="445.95279" y="126.2017" width="100%" height="100%" xlink:href="#m"/><use x="450.95679" y="126.2017" width="100%" height="100%" xlink:href="#a"/><use x="455.96078" y="126.2017" width="100%" height="100%" xlink:href="#d"/><use x="460.96481" y="126.2017" width="100%" height="100%" xlink:href="#k"/><use x="428.45679" y="141.55569" width="100%" height="100%" xlink:href="#az"/><use x="434.9548" y="141.55569" width="100%" height="100%" xlink:href="#c"/><use x="436.95279" y="141.55569" width="100%" height="100%" xlink:href="#h"/><use x="439.9498" y="141.55569" width="100%" height="100%" xlink:href="#a"/><use x="444.9538" y="141.55569" width="100%" height="100%" xlink:href="#n"/><use x="449.4538" y="141.55569" width="100%" height="100%" xlink:href="#g"/><use x="451.95581" y="141.55569" width="100%" height="100%" xlink:href="#c"/><use x="453.9538" y="141.55569" width="100%" height="100%" xlink:href="#j"/><use x="458.95779" y="141.55569" width="100%" height="100%" xlink:href="#d"/><use x="463.96179" y="141.55569" width="100%" height="100%" xlink:href="#b"/><use x="466.46381" y="141.55569" width="100%" height="100%" xlink:href="#j"/><use x="471.4678" y="141.55569" width="100%" height="100%" xlink:href="#v"/><use x="473.96979" y="141.55569" width="100%" height="100%" xlink:href="#b"/><use x="476.4718" y="141.55569" width="100%" height="100%" xlink:href="#g"/><use x="478.97379" y="141.55569" width="100%" height="100%" xlink:href="#h"/><use x="481.97079" y="141.55569" width="100%" height="100%" xlink:href="#e"/><use x="486.97479" y="141.55569" width="100%" height="100%" xlink:href="#w"/><use x="491.47479" y="141.55569" width="100%" height="100%" xlink:href="#a"/><use x="496.47879" y="141.55569" width="100%" height="100%" xlink:href="#f"/></g><g fill="#fff"><path d="m147.53 601.63c-0.64062-1.6445-1.2852-3.3125-1.9219-5.0195l-9.2148 12.738-14.992-10.852v5.5547l16 11.578z"/><path d="m142.27 587.29c-0.59375-1.7148-1.1797-3.457-1.7695-5.2344l-6.9414 9.5977-12.16-8.7969v5.5547l13.168 9.5274z"/><path d="m137.46 572.33c-0.51563-1.7305-1.0508-3.5586-1.6016-5.4648l-5.1367 7.1016-9.3164-6.7461v5.5547l10.324 7.4726z"/><path d="m133.03 556.83c-0.50391-1.8398-1.0078-3.7031-1.5117-5.5898l-3.6406 5.0312-6.4805-4.6914v5.5547l7.4883 5.4219z"/><path d="m128.85 540.99c-0.48437-1.918-0.96093-3.8242-1.4219-5.7109l-2.3867 3.3008-3.6445-2.6406v5.5586l4.6523 3.3633z"/></g><path d="m123.55 536.47 53.051-53.23" fill="none" stroke="#211e1e" stroke-width=".75"/><path d="m123.06 537.72c0.79688-0.42969 1.3672-0.65625 2.0586-0.95313l-1.8789-1.8672c-0.0898 0.25782-0.51953 1.2578-0.94922 2.0586-0.45703 0.85547-0.91406 1.5898-1.25 2.0234 0.4336-0.33984 1.1641-0.80078 2.0195-1.2617" fill="#211e1e"/><path d="m176.6 483.24-44.277 66.395" fill="none" stroke="#211e1e" stroke-width=".75"/><path d="m132.08 550.96c0.69922-0.57812 1.2148-0.91406 1.832-1.3398l-2.1992-1.4688c-0.043 0.27344-0.26953 1.3398-0.53125 2.207-0.28125 0.92578-0.58984 1.7344-0.83593 2.2266 0.35937-0.41406 0.98828-1.0117 1.7344-1.625" fill="#211e1e"/><path d="m188.36 566.9-54.398 8.2617" fill="none" stroke="#211e1e" stroke-width=".75"/><path d="m132.82 575.88c0.89843 0.1289 1.4922 0.28125 2.2226 0.45312l-0.39843-2.6172c-0.22657 0.15235-1.168 0.70313-1.9844 1.0938-0.87891 0.41797-1.6836 0.73438-2.2109 0.88282 0.55078-0.0156 1.4102 0.0469 2.3711 0.1875" fill="#211e1e"/></svg>
