<?xml version="1.0" encoding="UTF-8"?>
<svg width="476.52pt" height="670.47pt" version="1.2" viewBox="0 0 476.52 670.47" xmlns="http://www.w3.org/2000/svg" xmlns:xlink="http://www.w3.org/1999/xlink"><defs><symbol id="bu" overflow="visible"><path d="m3.6875-3.5c0.40625 0 0.72656-0.078125 0.96875-0.23438 0.23828-0.16406 0.35938-0.46094 0.35938-0.89062 0-0.46875-0.16797-0.78516-0.5-0.95312-0.17969-0.082031-0.41797-0.125-0.71875-0.125h-2.125v2.2031zm-2.8906-2.9531h2.9844c0.48828 0 0.89453 0.074219 1.2188 0.21875 0.60156 0.27344 0.90625 0.77734 0.90625 1.5156 0 0.38672-0.085937 0.70312-0.25 0.95312-0.15625 0.25-0.375 0.44922-0.65625 0.59375 0.25 0.10547 0.4375 0.24219 0.5625 0.40625 0.125 0.16797 0.19531 0.4375 0.21875 0.8125l0.03125 0.85938c0.00781 0.25 0.03125 0.43359 0.0625 0.54688 0.050781 0.21094 0.14453 0.34375 0.28125 0.40625v0.14062h-1.0781c-0.03125-0.050781-0.058594-0.11719-0.078125-0.20312-0.011719-0.09375-0.023437-0.26562-0.03125-0.51562l-0.0625-1.0781c-0.023437-0.42578-0.17969-0.71094-0.46875-0.85938-0.16797-0.070313-0.42969-0.10938-0.78125-0.10938h-1.9844v2.7656h-0.875z"/></symbol><symbol id="h" overflow="visible"><path d="m2.5469-4.8125c0.33203 0 0.65625 0.078125 0.96875 0.23438s0.55078 0.35938 0.71875 0.60938c0.15625 0.24219 0.25781 0.51562 0.3125 0.82812 0.039063 0.21875 0.0625 0.57031 0.0625 1.0469h-3.4375c0.007813 0.46875 0.11719 0.85156 0.32812 1.1406 0.20703 0.29297 0.53516 0.4375 0.98438 0.4375 0.41406 0 0.74219-0.13281 0.98438-0.40625 0.14453-0.16406 0.24219-0.35156 0.29688-0.5625h0.78125c-0.023437 0.17969-0.089844 0.375-0.20312 0.59375-0.11719 0.21094-0.24609 0.38281-0.39062 0.51562-0.24219 0.23047-0.53906 0.38281-0.89062 0.46875-0.1875 0.050781-0.40234 0.078125-0.64062 0.078125-0.59375 0-1.0938-0.21094-1.5-0.64062-0.40625-0.42578-0.60938-1.0234-0.60938-1.7969 0-0.75 0.20312-1.3594 0.60938-1.8281 0.41406-0.47656 0.95703-0.71875 1.625-0.71875zm1.25 2.0781c-0.03125-0.34375-0.10547-0.61328-0.21875-0.8125-0.21875-0.38281-0.58594-0.57812-1.0938-0.57812-0.35547 0-0.65625 0.13672-0.90625 0.40625-0.25 0.26172-0.38281 0.58984-0.39062 0.98438z"/></symbol><symbol id="as" overflow="visible"><path d="m2.3906-4.8438c0.53125 0 0.96094 0.13281 1.2969 0.39062 0.33203 0.26172 0.53516 0.70312 0.60938 1.3281h-0.78125c-0.042969-0.28906-0.14844-0.53125-0.3125-0.71875-0.16797-0.19531-0.4375-0.29688-0.8125-0.29688-0.5 0-0.85938 0.25-1.0781 0.75-0.13672 0.3125-0.20312 0.70312-0.20312 1.1719 0 0.48047 0.097656 0.88281 0.29688 1.2031 0.19531 0.3125 0.50781 0.46875 0.9375 0.46875 0.32031 0 0.57812-0.097656 0.76562-0.29688 0.19531-0.19531 0.33203-0.47266 0.40625-0.82812h0.78125c-0.09375 0.625-0.32031 1.0859-0.67188 1.375-0.34375 0.29297-0.79297 0.4375-1.3438 0.4375-0.61719 0-1.1055-0.22266-1.4688-0.67188-0.36719-0.45703-0.54688-1.0195-0.54688-1.6875 0-0.83203 0.19531-1.4766 0.59375-1.9375 0.40625-0.45703 0.91406-0.6875 1.5312-0.6875z"/></symbol><symbol id="r" overflow="visible"><path d="m2.4531-0.51562c0.51953 0 0.875-0.19531 1.0625-0.59375 0.19531-0.39453 0.29688-0.83594 0.29688-1.3281 0-0.4375-0.070312-0.78906-0.20312-1.0625-0.21875-0.4375-0.60547-0.65625-1.1562-0.65625-0.48047 0-0.82812 0.1875-1.0469 0.5625-0.21875 0.36719-0.32812 0.80859-0.32812 1.3281 0 0.5 0.10938 0.91797 0.32812 1.25 0.21875 0.33594 0.56641 0.5 1.0469 0.5zm0.03125-4.3281c0.60156 0 1.1133 0.20312 1.5312 0.60938 0.41406 0.40625 0.625 1 0.625 1.7812 0 0.76172-0.1875 1.3906-0.5625 1.8906-0.36719 0.49219-0.93359 0.73438-1.7031 0.73438-0.64844 0-1.1641-0.21875-1.5469-0.65625-0.375-0.4375-0.5625-1.0234-0.5625-1.7656 0-0.78906 0.19531-1.4219 0.59375-1.8906 0.40625-0.46875 0.94531-0.70312 1.625-0.70312z"/></symbol><symbol id="af" overflow="visible"><path d="m0.57812-4.7031h0.78125v0.67188c0.1875-0.23828 0.35938-0.41016 0.51562-0.51562 0.25781-0.17578 0.55469-0.26562 0.89062-0.26562 0.375 0 0.67578 0.09375 0.90625 0.28125 0.125 0.10547 0.23828 0.26172 0.34375 0.46875 0.17578-0.25781 0.38281-0.44531 0.625-0.5625 0.23828-0.125 0.50391-0.1875 0.79688-0.1875 0.63281 0 1.0664 0.23047 1.2969 0.6875 0.11328 0.25 0.17188 0.57812 0.17188 0.98438v3.1406h-0.8125v-3.2656c0-0.3125-0.078125-0.52344-0.23438-0.64062-0.15625-0.125-0.35156-0.1875-0.57812-0.1875-0.3125 0-0.58594 0.10547-0.8125 0.3125-0.21875 0.21094-0.32812 0.55859-0.32812 1.0469v2.7344h-0.79688v-3.0781c0-0.3125-0.042969-0.53906-0.125-0.6875-0.11719-0.21875-0.33984-0.32812-0.67188-0.32812-0.29297 0-0.5625 0.11719-0.8125 0.34375-0.24219 0.23047-0.35938 0.64844-0.35938 1.25v2.5h-0.79688z"/></symbol><symbol id="q" overflow="visible"><path d="m0.57812-4.7031h0.75v0.67188c0.22656-0.28125 0.46094-0.47656 0.70312-0.59375 0.25-0.125 0.53125-0.1875 0.84375-0.1875 0.66406 0 1.1133 0.23438 1.3438 0.70312 0.13281 0.25 0.20312 0.61719 0.20312 1.0938v3.0156h-0.8125v-2.9688c0-0.28125-0.042969-0.50781-0.125-0.6875-0.13672-0.28906-0.39062-0.4375-0.76562-0.4375-0.1875 0-0.33984 0.015625-0.45312 0.046875-0.21875 0.0625-0.41406 0.19531-0.57812 0.39062-0.13672 0.15625-0.22656 0.32031-0.26562 0.48438-0.03125 0.16797-0.046875 0.40234-0.046875 0.70312v2.4688h-0.79688z"/></symbol><symbol id="t" overflow="visible"><path d="m1.0781-2.2969c0 0.5 0.10156 0.92188 0.3125 1.2656 0.21875 0.34375 0.56641 0.51562 1.0469 0.51562 0.36328 0 0.66016-0.15625 0.89062-0.46875 0.23828-0.32031 0.35938-0.77344 0.35938-1.3594 0-0.60156-0.125-1.0469-0.375-1.3281-0.24219-0.28125-0.53906-0.42188-0.89062-0.42188-0.39844 0-0.71875 0.15234-0.96875 0.45312-0.25 0.30469-0.375 0.75-0.375 1.3438zm1.1875-2.5c0.36328 0 0.66406 0.078125 0.90625 0.23438 0.14453 0.085937 0.30469 0.24219 0.48438 0.46875v-2.3906h0.76562v6.4844h-0.71875v-0.65625c-0.1875 0.29297-0.40625 0.50781-0.65625 0.64062-0.25 0.125-0.53906 0.1875-0.85938 0.1875-0.53125 0-0.99219-0.21875-1.375-0.65625-0.375-0.44531-0.5625-1.0352-0.5625-1.7656 0-0.6875 0.17188-1.2812 0.51562-1.7812 0.35156-0.50781 0.85156-0.76562 1.5-0.76562z"/></symbol><symbol id="p" overflow="visible"></symbol><symbol id="bm" overflow="visible"><path d="m3.5156-4.7031h0.875c-0.10547 0.30469-0.35156 0.99219-0.73438 2.0625-0.29297 0.8125-0.53125 1.4766-0.71875 1.9844-0.46094 1.1953-0.78125 1.9258-0.96875 2.1875-0.1875 0.25781-0.51172 0.39062-0.96875 0.39062-0.11719 0-0.20312-0.00781-0.26562-0.015625-0.054687 0-0.125-0.011719-0.21875-0.03125v-0.73438c0.13281 0.039063 0.23438 0.066406 0.29688 0.078125 0.0625 0.00781 0.11719 0.015625 0.17188 0.015625 0.14453 0 0.25-0.027344 0.3125-0.078125 0.070313-0.054687 0.13281-0.10938 0.1875-0.17188 0.007813-0.03125 0.054688-0.15625 0.14062-0.375 0.09375-0.21094 0.16016-0.36719 0.20312-0.46875l-1.7344-4.8438h0.89062l1.2656 3.8281z"/></symbol><symbol id="w" overflow="visible"><path d="m0.60938-6.4531h0.78125v6.4531h-0.78125z"/></symbol><symbol id="bt" overflow="visible"><path d="m0.9375-4.7031 0.90625 3.7031 0.92188-3.7031h0.89062l0.92188 3.6875 0.96875-3.6875h0.78125l-1.3594 4.7031h-0.82812l-0.95312-3.6406-0.92188 3.6406h-0.82812l-1.3594-4.7031z"/></symbol><symbol id="v" overflow="visible"><path d="m0.57812-4.6875h0.8125v4.6875h-0.8125zm0-1.7656h0.8125v0.89062h-0.8125z"/></symbol><symbol id="u" overflow="visible"><path d="m1.1875-1.25c0 0.23047 0.082031 0.41406 0.25 0.54688 0.16406 0.125 0.36328 0.1875 0.59375 0.1875 0.28125 0 0.55078-0.0625 0.8125-0.1875 0.4375-0.21875 0.65625-0.57031 0.65625-1.0625v-0.625c-0.09375 0.0625-0.21875 0.11719-0.375 0.15625-0.15625 0.03125-0.30859 0.058594-0.45312 0.078125l-0.46875 0.0625c-0.29297 0.042969-0.51172 0.10547-0.65625 0.1875-0.24219 0.13672-0.35938 0.35547-0.35938 0.65625zm1.9219-1.6094c0.17578-0.019531 0.29688-0.09375 0.35938-0.21875 0.03125-0.070313 0.046875-0.17578 0.046875-0.3125 0-0.25781-0.10156-0.45312-0.29688-0.57812-0.1875-0.125-0.46094-0.1875-0.8125-0.1875-0.41797 0-0.71094 0.11719-0.875 0.34375-0.09375 0.11719-0.15625 0.29688-0.1875 0.54688h-0.73438c0.007813-0.58203 0.19141-0.98828 0.54688-1.2188 0.36328-0.22656 0.78516-0.34375 1.2656-0.34375 0.55078 0 1.0039 0.10938 1.3594 0.32812 0.34375 0.21094 0.51562 0.53906 0.51562 0.98438v2.7031c0 0.085937 0.015625 0.15234 0.046875 0.20312 0.03125 0.054687 0.097656 0.078125 0.20312 0.078125h0.125c0.039063-0.007813 0.085938-0.019531 0.14062-0.03125v0.57812c-0.125 0.039062-0.21875 0.0625-0.28125 0.0625-0.0625 0.0078125-0.15234 0.015625-0.26562 0.015625-0.27344 0-0.46875-0.09375-0.59375-0.28125-0.0625-0.10156-0.10938-0.25-0.14062-0.4375-0.15625 0.21094-0.38672 0.39062-0.6875 0.54688-0.30469 0.15625-0.63672 0.23438-1 0.23438-0.4375 0-0.79688-0.13281-1.0781-0.39062-0.27344-0.26953-0.40625-0.60156-0.40625-1 0-0.4375 0.13281-0.77344 0.40625-1.0156 0.26953-0.23828 0.62891-0.38281 1.0781-0.4375z"/></symbol><symbol id="ah" overflow="visible"><path d="m2.2344-4.7969c0.375 0 0.69531 0.09375 0.96875 0.28125 0.15625 0.10547 0.3125 0.25781 0.46875 0.45312v-0.59375h0.71875v4.2812c0 0.59375-0.089844 1.0625-0.26562 1.4062-0.32422 0.63281-0.94531 0.95312-1.8594 0.95312-0.5 0-0.92969-0.11719-1.2812-0.34375-0.34375-0.21875-0.53906-0.57422-0.57812-1.0625h0.8125c0.039063 0.21875 0.11719 0.38281 0.23438 0.5 0.17578 0.17578 0.45703 0.26562 0.84375 0.26562 0.60156 0 1-0.21875 1.1875-0.65625 0.10156-0.25 0.15625-0.69531 0.15625-1.3438-0.16797 0.24219-0.35938 0.42188-0.57812 0.54688-0.21875 0.11328-0.51172 0.17188-0.875 0.17188-0.51172 0-0.96094-0.17969-1.3438-0.54688-0.38672-0.36328-0.57812-0.96094-0.57812-1.7969 0-0.78906 0.19141-1.4062 0.57812-1.8438 0.38281-0.44531 0.84766-0.67188 1.3906-0.67188zm1.4375 2.4219c0-0.58203-0.125-1.0156-0.375-1.2969-0.24219-0.28125-0.54297-0.42188-0.90625-0.42188-0.5625 0-0.94531 0.26172-1.1406 0.78125-0.11719 0.28125-0.17188 0.64844-0.17188 1.0938 0 0.53125 0.10938 0.9375 0.32812 1.2188 0.21875 0.27344 0.50391 0.40625 0.85938 0.40625 0.57031 0 0.97266-0.25391 1.2031-0.76562 0.13281-0.28906 0.20312-0.62891 0.20312-1.0156z"/></symbol><symbol id="ag" overflow="visible"><path d="m0.60938-4.7031h0.75v0.8125c0.0625-0.15625 0.21094-0.34766 0.45312-0.57812 0.23828-0.22656 0.51562-0.34375 0.82812-0.34375 0.00781 0 0.03125 0.00781 0.0625 0.015625h0.1875v0.84375c-0.042969-0.007813-0.085937-0.015625-0.125-0.015625-0.042969-0.007813-0.089844-0.015625-0.14062-0.015625-0.39844 0-0.70312 0.13281-0.92188 0.39062-0.21094 0.26172-0.3125 0.55859-0.3125 0.89062v2.7031h-0.78125z"/></symbol><symbol id="bs" overflow="visible"><path d="m0.5625-6.4531h0.76562v3.75l2.0312-2h1l-1.7969 1.7656 1.9062 2.9375h-1.0156l-1.4688-2.375-0.65625 0.60938v1.7656h-0.76562z"/></symbol><symbol id="br" overflow="visible"><path d="m1.0469-1.4844c0.019531 0.27344 0.085938 0.47656 0.20312 0.60938 0.19531 0.26172 0.53906 0.39062 1.0312 0.39062 0.28906 0 0.54688-0.0625 0.76562-0.1875 0.22656-0.13281 0.34375-0.33203 0.34375-0.59375 0-0.20703-0.089844-0.36328-0.26562-0.46875-0.11719-0.0625-0.33984-0.13281-0.67188-0.21875l-0.64062-0.15625c-0.39844-0.10156-0.6875-0.21875-0.875-0.34375-0.34375-0.20703-0.51562-0.5-0.51562-0.875 0-0.44531 0.16016-0.80469 0.48438-1.0781 0.32031-0.28125 0.75391-0.42188 1.2969-0.42188 0.70703 0 1.2188 0.21094 1.5312 0.625 0.19531 0.26172 0.28906 0.54297 0.28125 0.84375h-0.75c-0.011719-0.17578-0.074219-0.33594-0.1875-0.48438-0.17969-0.20703-0.49219-0.3125-0.9375-0.3125-0.30469 0-0.53125 0.058594-0.6875 0.17188-0.15625 0.11719-0.23438 0.26562-0.23438 0.45312 0 0.21094 0.10156 0.375 0.3125 0.5 0.11328 0.074219 0.28516 0.13672 0.51562 0.1875l0.53125 0.125c0.5625 0.13672 0.94141 0.27344 1.1406 0.40625 0.30078 0.19922 0.45312 0.51562 0.45312 0.95312 0 0.41797-0.16406 0.78125-0.48438 1.0938-0.3125 0.30078-0.79297 0.45312-1.4375 0.45312-0.69922 0-1.1953-0.16406-1.4844-0.48438-0.29297-0.32031-0.44922-0.71875-0.46875-1.1875z"/></symbol><symbol id="bq" overflow="visible"><path d="m0.6875-6.4531h0.875v5.6875h3.2656v0.76562h-4.1406z"/></symbol><symbol id="bp" overflow="visible"><path d="m3.1719-0.75c0.28906 0 0.53125-0.03125 0.71875-0.09375 0.34375-0.11328 0.625-0.33203 0.84375-0.65625 0.16406-0.25781 0.28906-0.59375 0.375-1 0.039063-0.23828 0.0625-0.46094 0.0625-0.67188 0-0.80078-0.16406-1.4219-0.48438-1.8594-0.3125-0.44531-0.82422-0.67188-1.5312-0.67188h-1.5469v4.9531zm-2.4531-5.7031h2.625c0.88281 0 1.5703 0.3125 2.0625 0.9375 0.4375 0.57422 0.65625 1.3047 0.65625 2.1875 0 0.6875-0.13281 1.3086-0.39062 1.8594-0.44922 0.98047-1.2305 1.4688-2.3438 1.4688h-2.6094z"/></symbol><symbol id="at" overflow="visible"><path d="m0.73438-6.0156h0.79688v1.3125h0.76562v0.64062h-0.76562v3.0781c0 0.15625 0.054688 0.26562 0.17188 0.32812 0.0625 0.03125 0.16406 0.046875 0.3125 0.046875h0.10938c0.050781 0 0.10938-0.003906 0.17188-0.015625v0.625c-0.09375 0.03125-0.19531 0.050781-0.29688 0.0625-0.09375 0.0078125-0.19922 0.015625-0.3125 0.015625-0.36719 0-0.61719-0.09375-0.75-0.28125-0.13672-0.19531-0.20312-0.44141-0.20312-0.73438v-3.125h-0.64062v-0.64062h0.64062z"/></symbol><symbol id="bo" overflow="visible"><path d="m0.78125-5.4219c0.007813-0.33203 0.066406-0.57031 0.17188-0.71875 0.17578-0.26953 0.53125-0.40625 1.0625-0.40625h0.15625c0.050781 0 0.10938 0.00781 0.17188 0.015625v0.71875h-0.17188c-0.03125-0.00781-0.070312-0.015625-0.10938-0.015625-0.24219 0-0.38672 0.0625-0.4375 0.1875-0.042969 0.125-0.0625 0.44531-0.0625 0.95312h0.78125v0.625h-0.78125v4.0625h-0.78125v-4.0625h-0.65625v-0.625h0.65625z"/></symbol><symbol id="bn" overflow="visible"><path d="m0.96875-4.7031 1.25 3.8281 1.3125-3.8281h0.875l-1.7812 4.7031h-0.84375l-1.7344-4.7031z"/></symbol><symbol id="bl" overflow="visible"><path d="m2.5938-2.5781h1.7344l-0.85938-2.7031zm0.09375-4.2656h1.6094l2.4219 6.8438h-1.5469l-0.4375-1.4062h-2.5312l-0.46875 1.4062h-1.5z"/></symbol><symbol id="a" overflow="visible"></symbol><symbol id="k" overflow="visible"><path d="m0.21875-3.2812h2.6562v1.2656h-2.6562z"/></symbol><symbol id="am" overflow="visible"><path d="m5.25-6.8438h2.0625v6.8438h-1.3281v-4.625-0.5625-0.54688l-1.2969 5.7344h-1.375l-1.2969-5.7344v0.54688c0.00781 0.24219 0.015625 0.42969 0.015625 0.5625v4.625h-1.3281v-6.8438h2.0781l1.2344 5.375z"/></symbol><symbol id="ab" overflow="visible"><path d="m1.9375-5.0625v3.0469c0 0.29297 0.03125 0.51172 0.09375 0.65625 0.125 0.26172 0.36328 0.39062 0.71875 0.39062 0.44531 0 0.75391-0.17969 0.92188-0.54688 0.082031-0.19531 0.125-0.46094 0.125-0.79688v-2.75h1.3438v5.0625h-1.2812v-0.71875c-0.011719 0.023437-0.042969 0.074219-0.09375 0.15625-0.054687 0.074219-0.10938 0.13672-0.17188 0.1875-0.21094 0.1875-0.41406 0.3125-0.60938 0.375-0.1875 0.070312-0.41406 0.10938-0.67188 0.10938-0.75 0-1.2578-0.26953-1.5156-0.8125-0.14844-0.28906-0.21875-0.72656-0.21875-1.3125v-3.0469z"/></symbol><symbol id="g" overflow="visible"><path d="m1.9688 0h-1.3281v-6.8438h1.3281z"/></symbol><symbol id="f" overflow="visible"><path d="m0.09375-4.0625v-0.95312h0.70312v-1.4062h1.3125v1.4062h0.82812v0.95312h-0.82812v2.6719c0 0.21094 0.023438 0.33984 0.078125 0.39062 0.050781 0.042969 0.21094 0.0625 0.48438 0.0625h0.125 0.14062v0.98438l-0.625 0.015625c-0.625 0.03125-1.0547-0.070312-1.2812-0.3125-0.15625-0.15625-0.23438-0.39062-0.23438-0.70312v-3.1094z"/></symbol><symbol id="e" overflow="visible"><path d="m1.9688-5.6562h-1.3281v-1.2188h1.3281zm-1.3281 0.59375h1.3281v5.0625h-1.3281z"/></symbol><symbol id="d" overflow="visible"><path d="m3.4062-2.4531c-0.085937 0.054687-0.16797 0.09375-0.25 0.125-0.085937 0.03125-0.20312 0.0625-0.35938 0.09375l-0.29688 0.046875c-0.27344 0.054687-0.46875 0.11719-0.59375 0.1875-0.21094 0.11719-0.3125 0.30469-0.3125 0.5625 0 0.21875 0.0625 0.38281 0.1875 0.48438 0.125 0.10547 0.28125 0.15625 0.46875 0.15625 0.28125 0 0.53906-0.082031 0.78125-0.25 0.23828-0.16406 0.36328-0.47266 0.375-0.92188zm-0.79688-0.625c0.23828-0.03125 0.41016-0.066406 0.51562-0.10938 0.1875-0.082031 0.28125-0.20703 0.28125-0.375 0-0.20703-0.074219-0.34766-0.21875-0.42188-0.13672-0.082031-0.34375-0.125-0.625-0.125-0.3125 0-0.53906 0.078125-0.67188 0.23438-0.085937 0.10547-0.14062 0.25781-0.17188 0.45312h-1.2812c0.03125-0.4375 0.15625-0.80078 0.375-1.0938 0.34375-0.4375 0.94141-0.65625 1.7969-0.65625 0.55078 0 1.0391 0.10938 1.4688 0.32812 0.4375 0.21875 0.65625 0.63281 0.65625 1.2344v2.3281 0.57812c0.00781 0.17969 0.035156 0.29688 0.078125 0.35938 0.039063 0.0625 0.10938 0.11719 0.20312 0.15625v0.1875h-1.4375c-0.042969-0.10156-0.074219-0.19531-0.09375-0.28125-0.011719-0.09375-0.023437-0.19531-0.03125-0.3125-0.1875 0.19922-0.39844 0.36719-0.625 0.5-0.29297 0.16406-0.61719 0.25-0.96875 0.25-0.46094 0-0.83984-0.13281-1.1406-0.39062-0.29297-0.25781-0.4375-0.62891-0.4375-1.1094 0-0.625 0.23828-1.0703 0.71875-1.3438 0.25781-0.15625 0.64453-0.26562 1.1562-0.32812z"/></symbol><symbol id="c" overflow="visible"><path d="m3.4219-5.1719c0.51953 0 0.94531 0.13672 1.2812 0.40625 0.33203 0.27344 0.5 0.72656 0.5 1.3594v3.4062h-1.3594v-3.0781c0-0.25781-0.039062-0.46094-0.10938-0.60938-0.125-0.25781-0.37109-0.39062-0.73438-0.39062-0.44922 0-0.75781 0.19531-0.92188 0.57812-0.09375 0.19922-0.14062 0.45312-0.14062 0.76562v2.7344h-1.3125v-5.0469h1.2812v0.73438c0.16406-0.25781 0.32812-0.44531 0.48438-0.5625 0.26953-0.19531 0.61328-0.29688 1.0312-0.29688z"/></symbol><symbol id="l" overflow="visible"><path d="m2.6094-4.0938c-0.30469 0-0.54297 0.09375-0.71875 0.28125-0.16797 0.1875-0.27344 0.44922-0.3125 0.78125h2.0625c-0.023437-0.35156-0.13281-0.61719-0.32812-0.79688-0.1875-0.17578-0.42188-0.26562-0.70312-0.26562zm0-1.0938c0.42578 0 0.80469 0.078125 1.1406 0.23438 0.33203 0.15625 0.60938 0.40625 0.82812 0.75 0.19531 0.30469 0.32812 0.65234 0.39062 1.0469 0.03125 0.23047 0.046875 0.5625 0.046875 1h-3.4688c0.019531 0.5 0.17969 0.85547 0.48438 1.0625 0.17578 0.125 0.39453 0.1875 0.65625 0.1875 0.26953 0 0.48828-0.078125 0.65625-0.23438 0.09375-0.082031 0.17578-0.19531 0.25-0.34375h1.3438c-0.03125 0.30469-0.1875 0.60547-0.46875 0.90625-0.42969 0.5-1.0312 0.75-1.8125 0.75-0.64844 0-1.2148-0.20703-1.7031-0.625-0.49219-0.41406-0.73438-1.0938-0.73438-2.0312 0-0.875 0.21875-1.5391 0.65625-2 0.44531-0.46875 1.0234-0.70312 1.7344-0.70312z"/></symbol><symbol id="ar" overflow="visible"><path d="m0.54688 1.0938c0.26953-0.074219 0.46875-0.19922 0.59375-0.375 0.125-0.16797 0.19141-0.40625 0.20312-0.71875h-0.79688v-1.375h1.4219v1.1875c0 0.20703-0.027344 0.42578-0.078125 0.65625-0.054687 0.22656-0.15625 0.42578-0.3125 0.59375-0.15625 0.1875-0.35156 0.32031-0.57812 0.40625-0.21875 0.09375-0.37109 0.14062-0.45312 0.14062z"/></symbol><symbol id="o" overflow="visible"><path d="m3-5.0625h1.3438l0.76562 3.6406 0.79688-3.6406h1.375l-1.4688 5.0625h-1.3594l-0.79688-3.6875-0.79688 3.6875h-1.375l-1.4219-5.0625h1.4219l0.78125 3.6406z"/></symbol><symbol id="ae" overflow="visible"><path d="m2.8906-0.9375c0.38281 0 0.67969-0.13281 0.89062-0.40625 0.20703-0.28125 0.3125-0.67188 0.3125-1.1719 0-0.50781-0.10547-0.89844-0.3125-1.1719-0.21094-0.26953-0.50781-0.40625-0.89062-0.40625-0.38672 0-0.6875 0.13672-0.90625 0.40625-0.21094 0.27344-0.3125 0.66406-0.3125 1.1719 0 0.5 0.10156 0.89062 0.3125 1.1719 0.21875 0.27344 0.51953 0.40625 0.90625 0.40625zm2.5781-1.5781c0 0.74219-0.21484 1.375-0.64062 1.9062-0.42969 0.52344-1.0742 0.78125-1.9375 0.78125-0.86719 0-1.5117-0.25781-1.9375-0.78125-0.42969-0.53125-0.64062-1.1641-0.64062-1.9062 0-0.72656 0.21094-1.3594 0.64062-1.8906 0.42578-0.53906 1.0703-0.8125 1.9375-0.8125 0.86328 0 1.5078 0.27344 1.9375 0.8125 0.42578 0.53125 0.64062 1.1641 0.64062 1.8906z"/></symbol><symbol id="aq" overflow="visible"><path d="m0.82812 0.96875 0.15625 0.015625c0.13281 0 0.25781-0.011719 0.375-0.03125 0.11328-0.011719 0.21094-0.042969 0.29688-0.09375 0.070313-0.054687 0.14062-0.16406 0.20312-0.32812 0.070313-0.16797 0.10156-0.27344 0.09375-0.3125l-1.8594-5.2812h1.4688l1.1094 3.7344 1.0469-3.7344h1.4062l-1.7344 4.9844c-0.33594 0.95703-0.60156 1.5508-0.79688 1.7812-0.19922 0.22656-0.58984 0.34375-1.1719 0.34375h-0.28125c-0.074219 0-0.17969-0.00781-0.3125-0.015625z"/></symbol><symbol id="ap" overflow="visible"><path d="m6.2656-5.1719c0.21875 0 0.4375 0.046875 0.65625 0.14062 0.21875 0.085937 0.41406 0.23438 0.59375 0.45312 0.14453 0.17969 0.23828 0.39062 0.28125 0.64062 0.03125 0.17969 0.046875 0.42969 0.046875 0.75v3.1875h-1.3594v-3.2188c0-0.1875-0.03125-0.34375-0.09375-0.46875-0.11719-0.23828-0.32812-0.35938-0.64062-0.35938-0.36719 0-0.62109 0.15234-0.76562 0.45312-0.074219 0.16797-0.10938 0.35938-0.10938 0.57812v3.0156h-1.3281v-3.0156c0-0.28906-0.03125-0.50781-0.09375-0.65625-0.11719-0.23828-0.33594-0.35938-0.65625-0.35938-0.375 0-0.625 0.12109-0.75 0.35938-0.074219 0.14844-0.10938 0.35547-0.10938 0.625v3.0469h-1.3438v-5.0469h1.2812v0.73438c0.16406-0.25781 0.32031-0.44531 0.46875-0.5625 0.25781-0.19531 0.59375-0.29688 1-0.29688 0.38281 0 0.69531 0.089844 0.9375 0.26562 0.1875 0.15625 0.33203 0.35547 0.4375 0.59375 0.16406-0.28906 0.37891-0.50391 0.64062-0.64062 0.26953-0.14453 0.57031-0.21875 0.90625-0.21875z"/></symbol><symbol id="ad" overflow="visible"><path d="m3.3594-5.1719h0.0625 0.125v1.3594c-0.085937-0.007813-0.16406-0.015625-0.23438-0.015625-0.0625-0.007813-0.11719-0.015625-0.15625-0.015625-0.53125 0-0.88672 0.17969-1.0625 0.53125-0.10547 0.1875-0.15625 0.48438-0.15625 0.89062v2.4219h-1.3281v-5.0625h1.25v0.89062c0.20703-0.34375 0.38281-0.57031 0.53125-0.6875 0.25-0.20703 0.57031-0.3125 0.96875-0.3125z"/></symbol><symbol id="ao" overflow="visible"><path d="m0.60938-6.8125h1.2969v3.6875l1.6406-1.9062h1.6406l-1.7656 1.9375 1.8281 3.0938h-1.5938l-1.2031-2.1562-0.54688 0.5625v1.5938h-1.2969z"/></symbol><symbol id="ac" overflow="visible"><path d="m2.7812-1.0781c0.3125 0 0.57031-0.11328 0.78125-0.34375 0.21875-0.23828 0.32812-0.61328 0.32812-1.125 0-0.47656-0.10547-0.84375-0.3125-1.0938-0.19922-0.25-0.46484-0.375-0.79688-0.375-0.46875 0-0.79297 0.21484-0.96875 0.64062-0.09375 0.24219-0.14062 0.52734-0.14062 0.85938 0 0.30469 0.050781 0.57031 0.15625 0.79688 0.17578 0.42969 0.49219 0.64062 0.95312 0.64062zm-0.32812-4.0938c0.25781 0 0.48438 0.039062 0.67188 0.10938 0.32031 0.13672 0.58203 0.38281 0.78125 0.73438v-0.73438h1.2812v4.7969c0 0.65625-0.10938 1.1484-0.32812 1.4844-0.375 0.5625-1.1016 0.84375-2.1719 0.84375-0.64844 0-1.1797-0.125-1.5938-0.375-0.40625-0.25-0.63281-0.63281-0.67188-1.1406h1.4375c0.039063 0.15625 0.10156 0.26953 0.1875 0.34375 0.14453 0.11328 0.38281 0.17188 0.71875 0.17188 0.47656 0 0.79688-0.15625 0.95312-0.46875 0.10156-0.21094 0.15625-0.55469 0.15625-1.0312v-0.32812c-0.125 0.21875-0.26172 0.38281-0.40625 0.48438-0.26172 0.19922-0.60547 0.29688-1.0312 0.29688-0.64844 0-1.1641-0.22266-1.5469-0.67188-0.38672-0.45703-0.57812-1.0781-0.57812-1.8594 0-0.75 0.17969-1.3789 0.54688-1.8906 0.375-0.50781 0.90625-0.76562 1.5938-0.76562z"/></symbol><symbol id="bk" overflow="visible"><path d="m2.1094-5.6562v1.5156h1.6875c0.28906 0 0.53125-0.054688 0.71875-0.17188 0.1875-0.11328 0.28125-0.3125 0.28125-0.59375 0-0.32031-0.12109-0.53516-0.35938-0.64062-0.21875-0.070313-0.49609-0.10938-0.82812-0.10938zm0 2.6406v1.8281h1.6875c0.28906 0 0.51953-0.039063 0.6875-0.125 0.30078-0.14453 0.45312-0.42578 0.45312-0.84375 0-0.35156-0.14844-0.59766-0.4375-0.73438-0.15625-0.070313-0.38672-0.11328-0.6875-0.125zm1.9531-3.8281c0.84375 0.023437 1.4375 0.26562 1.7812 0.73438 0.21875 0.29297 0.32812 0.64062 0.32812 1.0469 0 0.41797-0.10938 0.75-0.32812 1-0.11719 0.14844-0.28906 0.27734-0.51562 0.39062 0.35156 0.125 0.61719 0.32812 0.79688 0.60938 0.17578 0.27344 0.26562 0.60547 0.26562 1 0 0.40625-0.10547 0.77344-0.3125 1.0938-0.125 0.21094-0.28906 0.38672-0.48438 0.53125-0.21875 0.16797-0.48047 0.28125-0.78125 0.34375-0.29297 0.0625-0.61719 0.09375-0.96875 0.09375h-3.0938v-6.8438z"/></symbol><symbol id="an" overflow="visible"><path d="m3.4062-5.1875c0.3125 0 0.59375 0.058594 0.84375 0.17188 0.25781 0.10547 0.47266 0.26562 0.64062 0.48438 0.13281 0.1875 0.21875 0.38672 0.25 0.59375 0.03125 0.19922 0.046875 0.52344 0.046875 0.96875v2.9688h-1.3438v-3.0781c0-0.26953-0.046875-0.48828-0.14062-0.65625-0.125-0.23828-0.35547-0.35938-0.6875-0.35938-0.35547 0-0.625 0.12109-0.8125 0.35938-0.17969 0.23047-0.26562 0.5625-0.26562 1v2.7344h-1.3125v-6.8125h1.3125v2.4219c0.19531-0.30078 0.42188-0.50781 0.67188-0.625 0.25-0.11328 0.51562-0.17188 0.79688-0.17188z"/></symbol><symbol id="bj" overflow="visible"><path d="m1.6406-1.6094c0.03125 0.23047 0.09375 0.39844 0.1875 0.5 0.16406 0.17969 0.46875 0.26562 0.90625 0.26562 0.25781 0 0.46094-0.035156 0.60938-0.10938 0.15625-0.082031 0.23438-0.20312 0.23438-0.35938 0-0.14453-0.058594-0.25781-0.17188-0.34375-0.125-0.070313-0.58984-0.20312-1.3906-0.39062-0.5625-0.14453-0.96484-0.32031-1.2031-0.53125-0.24219-0.21875-0.35938-0.52344-0.35938-0.92188 0-0.45703 0.17969-0.85156 0.54688-1.1875 0.375-0.34375 0.89453-0.51562 1.5625-0.51562 0.625 0 1.1328 0.13281 1.5312 0.39062 0.39453 0.25 0.625 0.68359 0.6875 1.2969h-1.3281c-0.011719-0.16406-0.058594-0.30078-0.14062-0.40625-0.14844-0.17578-0.39062-0.26562-0.73438-0.26562-0.29297 0-0.5 0.046875-0.625 0.14062-0.11719 0.085937-0.17188 0.1875-0.17188 0.3125 0 0.14844 0.0625 0.25781 0.1875 0.32812 0.13281 0.074219 0.59375 0.19531 1.375 0.35938 0.53125 0.125 0.92578 0.3125 1.1875 0.5625 0.25781 0.26172 0.39062 0.57812 0.39062 0.95312 0 0.5-0.1875 0.91406-0.5625 1.2344-0.375 0.3125-0.94922 0.46875-1.7188 0.46875-0.80469 0-1.3906-0.16797-1.7656-0.5-0.375-0.33203-0.5625-0.75781-0.5625-1.2812z"/></symbol><symbol id="bi" overflow="visible"><path d="m2.4844-6.9062c0.082031 0 0.15625 0.00781 0.21875 0.015625 0.070313 0 0.16406 0.00781 0.28125 0.015625v1.0781c-0.074219-0.007813-0.19922-0.015625-0.375-0.015625-0.16797-0.007813-0.28906 0.027344-0.35938 0.10938-0.0625 0.085937-0.09375 0.17188-0.09375 0.26562v0.42188h0.85938v0.9375h-0.85938v4.0781h-1.3281v-4.0781h-0.73438v-0.9375h0.73438v-0.3125c0-0.53906 0.085938-0.91406 0.26562-1.125 0.1875-0.30078 0.64844-0.45312 1.3906-0.45312z"/></symbol><symbol id="bh" overflow="visible"><path d="m3.6406-3.25c-0.03125-0.1875-0.09375-0.35156-0.1875-0.5-0.15625-0.20703-0.39062-0.3125-0.70312-0.3125-0.4375 0-0.74219 0.22656-0.90625 0.67188-0.085937 0.23047-0.125 0.54297-0.125 0.9375 0 0.36719 0.039063 0.66406 0.125 0.89062 0.15625 0.41797 0.45312 0.625 0.89062 0.625 0.3125 0 0.53125-0.082031 0.65625-0.25 0.125-0.16406 0.20312-0.37891 0.23438-0.64062h1.3594c-0.03125 0.39844-0.17969 0.77734-0.4375 1.1406-0.41797 0.57422-1.0312 0.85938-1.8438 0.85938s-1.4141-0.23828-1.7969-0.71875c-0.38672-0.47656-0.57812-1.1016-0.57812-1.875 0-0.875 0.20703-1.5508 0.625-2.0312 0.42578-0.47656 1.0156-0.71875 1.7656-0.71875 0.63281 0 1.1484 0.14062 1.5469 0.42188 0.40625 0.28125 0.64453 0.78125 0.71875 1.5z"/></symbol><symbol id="bg" overflow="visible"><path d="m0.32812-3.9844v-1.0781h4.1094v1.1094l-2.5781 2.875h2.6562v1.0781h-4.3594v-1.0312l2.5938-2.9531z"/></symbol><symbol id="bf" overflow="visible"><path d="m0.60938-5.7344h0.92188l2.8906 4.6406v-4.6406h0.75v5.7344h-0.875l-2.9375-4.6406v4.6406h-0.75z"/></symbol><symbol id="i" overflow="visible"><path d="m2.1719-0.45312c0.46875 0 0.78516-0.17578 0.95312-0.53125 0.17578-0.35156 0.26562-0.74219 0.26562-1.1719 0-0.39453-0.0625-0.71094-0.1875-0.95312-0.19922-0.38281-0.53906-0.57812-1.0156-0.57812-0.42969 0-0.74219 0.16797-0.9375 0.5-0.19922 0.32422-0.29688 0.71484-0.29688 1.1719 0 0.44922 0.097656 0.82422 0.29688 1.125 0.19531 0.29297 0.50391 0.4375 0.92188 0.4375zm0.03125-3.8594c0.53906 0 0.99219 0.18359 1.3594 0.54688 0.375 0.35547 0.5625 0.88281 0.5625 1.5781 0 0.67969-0.16797 1.2422-0.5 1.6875-0.32422 0.4375-0.82812 0.65625-1.5156 0.65625-0.57422 0-1.0312-0.19141-1.375-0.57812-0.33594-0.39453-0.5-0.92188-0.5-1.5781 0-0.70703 0.17578-1.2695 0.53125-1.6875 0.35156-0.41406 0.83203-0.625 1.4375-0.625z"/></symbol><symbol id="aj" overflow="visible"><path d="m0.65625-5.3594h0.71875v1.1719h0.65625v0.57812h-0.65625v2.7344c0 0.14844 0.046875 0.24219 0.14062 0.28125 0.050781 0.03125 0.14453 0.046875 0.28125 0.046875h0.09375c0.039063 0 0.085938-0.003906 0.14062-0.015625v0.5625c-0.074219 0.019531-0.15625 0.035156-0.25 0.046875-0.085937 0.0078125-0.17969 0.015625-0.28125 0.015625-0.32422 0-0.54688-0.082031-0.67188-0.25-0.11719-0.16406-0.17188-0.38281-0.17188-0.65625v-2.7656h-0.5625v-0.57812h0.5625z"/></symbol><symbol id="j" overflow="visible"><path d="m2.2656-4.2812c0.28906 0 0.57812 0.074219 0.85938 0.21875 0.28125 0.13672 0.49219 0.3125 0.64062 0.53125 0.13281 0.21094 0.22656 0.45312 0.28125 0.73438 0.039063 0.19922 0.0625 0.50781 0.0625 0.92188h-3.0781c0.019531 0.42969 0.125 0.77344 0.3125 1.0312 0.1875 0.25 0.47266 0.375 0.85938 0.375 0.375 0 0.67188-0.11719 0.89062-0.35938 0.125-0.13281 0.21094-0.29688 0.26562-0.48438h0.6875c-0.023437 0.15625-0.085937 0.32812-0.1875 0.51562-0.10547 0.1875-0.21875 0.33984-0.34375 0.45312-0.21094 0.21094-0.47656 0.35156-0.79688 0.4375-0.16797 0.039063-0.35547 0.0625-0.5625 0.0625-0.52344 0-0.96484-0.1875-1.3281-0.5625-0.36719-0.38281-0.54688-0.92188-0.54688-1.6094 0-0.66406 0.17969-1.207 0.54688-1.625 0.36328-0.42578 0.84375-0.64062 1.4375-0.64062zm1.1094 1.8594c-0.023437-0.3125-0.085937-0.55469-0.1875-0.73438-0.19922-0.34375-0.52344-0.51562-0.96875-0.51562-0.32422 0-0.59375 0.12109-0.8125 0.35938-0.21875 0.23047-0.33594 0.52734-0.34375 0.89062z"/></symbol><symbol id="av" overflow="visible"><path d="m0.89062-4.125h0.8125v0.84375h-0.8125zm0 3.2656h0.8125v0.85938h-0.8125z"/></symbol><symbol id="b" overflow="visible"></symbol><symbol id="ai" overflow="visible"><path d="m1.125-1.8594c0.00781 0.33594 0.082031 0.60156 0.21875 0.79688 0.25781 0.38672 0.71875 0.57812 1.375 0.57812 0.28906 0 0.55469-0.039063 0.79688-0.125 0.45703-0.16406 0.6875-0.45703 0.6875-0.875 0-0.3125-0.10156-0.53516-0.29688-0.67188-0.19922-0.125-0.50781-0.23438-0.92188-0.32812l-0.78125-0.1875c-0.51172-0.11328-0.87109-0.23828-1.0781-0.375-0.36719-0.23828-0.54688-0.59766-0.54688-1.0781 0-0.50781 0.17578-0.92969 0.53125-1.2656 0.36328-0.33203 0.86719-0.5 1.5156-0.5 0.60156 0 1.1133 0.14844 1.5312 0.4375 0.42578 0.29297 0.64062 0.75781 0.64062 1.3906h-0.73438c-0.042969-0.30078-0.125-0.53516-0.25-0.70312-0.24219-0.30078-0.64062-0.45312-1.2031-0.45312-0.46094 0-0.79297 0.10156-1 0.29688-0.19922 0.1875-0.29688 0.41406-0.29688 0.67188 0 0.28125 0.11719 0.48438 0.35938 0.60938 0.15625 0.085937 0.50391 0.1875 1.0469 0.3125l0.79688 0.1875c0.38281 0.09375 0.6875 0.21484 0.90625 0.35938 0.36328 0.27344 0.54688 0.66406 0.54688 1.1719 0 0.63672-0.23438 1.0938-0.70312 1.375-0.46094 0.26953-0.99609 0.40625-1.6094 0.40625-0.71094 0-1.2656-0.17969-1.6719-0.54688-0.40625-0.36328-0.60547-0.85938-0.59375-1.4844z"/></symbol><symbol id="au" overflow="visible"><path d="m2.125-4.3125c0.47656 0 0.86328 0.11719 1.1562 0.34375 0.28906 0.23047 0.46875 0.625 0.53125 1.1875h-0.6875c-0.042969-0.25781-0.13672-0.47266-0.28125-0.64062-0.14844-0.16406-0.38672-0.25-0.71875-0.25-0.44922 0-0.76562 0.21875-0.95312 0.65625-0.125 0.28125-0.1875 0.63281-0.1875 1.0469 0 0.41797 0.085938 0.77344 0.26562 1.0625 0.17578 0.28125 0.45312 0.42188 0.82812 0.42188 0.28906 0 0.51953-0.085938 0.6875-0.26562 0.17578-0.17578 0.29688-0.42188 0.35938-0.73438h0.6875c-0.074219 0.55469-0.26562 0.96094-0.57812 1.2188-0.3125 0.26172-0.71484 0.39062-1.2031 0.39062-0.55469 0-0.99219-0.19531-1.3125-0.59375-0.32422-0.40625-0.48438-0.91016-0.48438-1.5156 0-0.72656 0.17578-1.2969 0.53125-1.7031 0.35156-0.41406 0.80469-0.625 1.3594-0.625z"/></symbol><symbol id="x" overflow="visible"><path d="m0.51562-4.1719h0.71875v4.1719h-0.71875zm0-1.5625h0.71875v0.79688h-0.71875z"/></symbol><symbol id="n" overflow="visible"><path d="m0.51562-4.1875h0.67188v0.59375c0.19531-0.23828 0.40625-0.41016 0.625-0.51562 0.21875-0.11328 0.46094-0.17188 0.73438-0.17188 0.59375 0 0.99219 0.21094 1.2031 0.625 0.11328 0.23047 0.17188 0.55469 0.17188 0.96875v2.6875h-0.70312v-2.6406c0-0.25-0.042969-0.45312-0.125-0.60938-0.125-0.25781-0.35156-0.39062-0.67188-0.39062-0.16797 0-0.30469 0.015625-0.40625 0.046875-0.19922 0.054687-0.37109 0.16797-0.51562 0.34375-0.11719 0.13672-0.19531 0.27734-0.23438 0.42188-0.03125 0.14844-0.046875 0.35938-0.046875 0.64062v2.1875h-0.70312z"/></symbol><symbol id="m" overflow="visible"><path d="m0.9375-1.3125c0.019531 0.23047 0.078125 0.40625 0.17188 0.53125 0.17578 0.23047 0.48438 0.34375 0.92188 0.34375 0.25781 0 0.48828-0.054688 0.6875-0.17188 0.19531-0.11328 0.29688-0.28516 0.29688-0.51562 0-0.1875-0.078125-0.32812-0.23438-0.42188-0.10547-0.050781-0.30859-0.11328-0.60938-0.1875l-0.54688-0.14062c-0.36719-0.09375-0.63281-0.19141-0.79688-0.29688-0.30469-0.19531-0.45312-0.46094-0.45312-0.79688 0-0.39453 0.14062-0.71094 0.42188-0.95312 0.28906-0.25 0.67578-0.375 1.1562-0.375 0.63281 0 1.0859 0.1875 1.3594 0.5625 0.17578 0.23047 0.26562 0.48047 0.26562 0.75h-0.67188c-0.011719-0.15625-0.070312-0.30078-0.17188-0.4375-0.15625-0.17578-0.43359-0.26562-0.82812-0.26562-0.27344 0-0.47656 0.054687-0.60938 0.15625-0.13672 0.09375-0.20312 0.22656-0.20312 0.39062 0 0.1875 0.085938 0.33594 0.26562 0.4375 0.10156 0.0625 0.25781 0.12109 0.46875 0.17188l0.45312 0.10938c0.50781 0.125 0.84766 0.24609 1.0156 0.35938 0.28125 0.17969 0.42188 0.46094 0.42188 0.84375 0 0.375-0.14844 0.69922-0.4375 0.96875-0.28125 0.26953-0.71094 0.40625-1.2812 0.40625-0.625 0-1.0703-0.14062-1.3281-0.42188-0.26172-0.28125-0.39844-0.62891-0.40625-1.0469z"/></symbol><symbol id="aa" overflow="visible"><path d="m2.0781 0.15625c-0.65625 0-1.1367-0.17969-1.4375-0.54688-0.30469-0.36328-0.45312-0.80469-0.45312-1.3281h0.73438c0.03125 0.36719 0.097656 0.625 0.20312 0.78125 0.1875 0.30469 0.51953 0.45312 1 0.45312 0.36328 0 0.65625-0.097656 0.875-0.29688 0.22656-0.19531 0.34375-0.45312 0.34375-0.76562 0-0.38281-0.12109-0.65625-0.35938-0.8125-0.23047-0.15625-0.55469-0.23438-0.96875-0.23438h-0.15625c-0.042969 0-0.089844 0.00781-0.14062 0.015625v-0.625c0.070313 0.011719 0.13281 0.015625 0.1875 0.015625h0.15625c0.25781 0 0.47656-0.039063 0.65625-0.125 0.28906-0.14453 0.4375-0.40625 0.4375-0.78125 0-0.28125-0.10156-0.49219-0.29688-0.64062-0.19922-0.15625-0.42969-0.23438-0.6875-0.23438-0.46875 0-0.79297 0.15625-0.96875 0.46875-0.10547 0.17969-0.16406 0.42188-0.17188 0.73438h-0.70312c0-0.41406 0.082031-0.76953 0.25-1.0625 0.28906-0.51953 0.79688-0.78125 1.5156-0.78125 0.57031 0 1.0156 0.13281 1.3281 0.39062 0.3125 0.25 0.46875 0.61719 0.46875 1.0938 0 0.34375-0.09375 0.625-0.28125 0.84375-0.11719 0.13672-0.26172 0.24219-0.4375 0.3125 0.28906 0.085937 0.51953 0.24219 0.6875 0.46875 0.16406 0.23047 0.25 0.51172 0.25 0.84375 0 0.53125-0.17969 0.96875-0.53125 1.3125-0.35547 0.33594-0.85547 0.5-1.5 0.5z"/></symbol><symbol id="al" overflow="visible"><path d="m2.7656-3.3125c0.33203 0 0.58594-0.046875 0.76562-0.14062 0.28906-0.14453 0.4375-0.39844 0.4375-0.76562 0-0.375-0.15625-0.62891-0.46875-0.76562-0.16797-0.070313-0.42188-0.10938-0.76562-0.10938h-1.375v1.7812zm0.26562 2.6406c0.47656 0 0.81641-0.13281 1.0156-0.40625 0.125-0.17578 0.1875-0.39062 0.1875-0.64062 0-0.41406-0.18359-0.69531-0.54688-0.84375-0.19922-0.082031-0.46484-0.125-0.79688-0.125h-1.5312v2.0156zm-2.4375-5.0625h2.4688c0.66406 0 1.1406 0.19922 1.4219 0.59375 0.16406 0.24219 0.25 0.51562 0.25 0.82812 0 0.35547-0.10156 0.65234-0.29688 0.89062-0.11719 0.11719-0.27344 0.22656-0.46875 0.32812 0.28906 0.11719 0.50781 0.24219 0.65625 0.375 0.25781 0.25 0.39062 0.60156 0.39062 1.0469 0 0.36719-0.11719 0.69922-0.34375 1-0.34375 0.44922-0.89844 0.67188-1.6562 0.67188h-2.4219z"/></symbol><symbol id="z" overflow="visible"><path d="m0.6875-0.85938h0.8125v0.85938h-0.8125z"/></symbol><symbol id="ak" overflow="visible"><path d="m0.25 0c0.03125-0.47656 0.12891-0.89453 0.29688-1.25 0.17578-0.36328 0.51562-0.69141 1.0156-0.98438l0.75-0.4375c0.33203-0.1875 0.56641-0.35156 0.70312-0.5 0.21875-0.20703 0.32812-0.45312 0.32812-0.73438 0-0.32031-0.10156-0.57812-0.29688-0.76562-0.19922-0.19531-0.46094-0.29688-0.78125-0.29688-0.48047 0-0.8125 0.18359-1 0.54688-0.09375 0.19922-0.14844 0.46875-0.15625 0.8125h-0.71875c0.007813-0.48828 0.097656-0.88281 0.26562-1.1875 0.30078-0.53906 0.83594-0.8125 1.6094-0.8125 0.64453 0 1.1133 0.17188 1.4062 0.51562 0.30078 0.34375 0.45312 0.73047 0.45312 1.1562 0 0.44922-0.16406 0.82812-0.48438 1.1406-0.17969 0.1875-0.5 0.41406-0.96875 0.67188l-0.54688 0.29688c-0.25 0.14844-0.44922 0.28125-0.59375 0.40625-0.26172 0.23047-0.42969 0.48047-0.5 0.75h3.0625v0.67188z"/></symbol><symbol id="be" overflow="visible"><path d="m2.1719-5.5938c0.71875 0 1.2383 0.29688 1.5625 0.89062 0.25 0.46094 0.375 1.0898 0.375 1.8906 0 0.76172-0.11719 1.3906-0.34375 1.8906-0.32422 0.71875-0.85938 1.0781-1.6094 1.0781-0.66797 0-1.168-0.28906-1.5-0.875-0.27344-0.48828-0.40625-1.1445-0.40625-1.9688 0-0.63281 0.082031-1.1797 0.25-1.6406 0.30078-0.84375 0.85938-1.2656 1.6719-1.2656zm-0.015625 5.1094c0.36328 0 0.65625-0.16016 0.875-0.48438 0.21875-0.32031 0.32812-0.92578 0.32812-1.8125 0-0.63281-0.078125-1.1562-0.23438-1.5625-0.15625-0.41406-0.46484-0.625-0.92188-0.625-0.40625 0-0.71094 0.19922-0.90625 0.59375-0.1875 0.38672-0.28125 0.96094-0.28125 1.7188 0 0.57422 0.0625 1.0312 0.1875 1.375 0.1875 0.53125 0.50391 0.79688 0.95312 0.79688z"/></symbol><symbol id="y" overflow="visible"><path d="m1.0625-1.1094c0 0.19922 0.070313 0.35938 0.21875 0.48438 0.14453 0.11719 0.32031 0.17188 0.53125 0.17188 0.23828 0 0.47656-0.054688 0.71875-0.17188 0.38281-0.19531 0.57812-0.50781 0.57812-0.9375v-0.5625c-0.085937 0.054687-0.19531 0.10156-0.32812 0.14062-0.13672 0.03125-0.27344 0.054687-0.40625 0.0625l-0.42188 0.0625c-0.25 0.03125-0.44531 0.085937-0.57812 0.15625-0.21094 0.125-0.3125 0.32422-0.3125 0.59375zm1.7031-1.4219c0.15625-0.019531 0.25781-0.085938 0.3125-0.20312 0.03125-0.0625 0.046875-0.15625 0.046875-0.28125 0-0.23828-0.085937-0.41016-0.25-0.51562-0.16797-0.10156-0.41406-0.15625-0.73438-0.15625-0.36719 0-0.625 0.10156-0.78125 0.29688-0.085937 0.10547-0.14062 0.26562-0.17188 0.48438h-0.65625c0.019531-0.51953 0.1875-0.87891 0.5-1.0781 0.32031-0.19531 0.69531-0.29688 1.125-0.29688 0.48828 0 0.89062 0.09375 1.2031 0.28125 0.30078 0.1875 0.45312 0.48047 0.45312 0.875v2.4062c0 0.074219 0.015625 0.13281 0.046875 0.17188 0.03125 0.042969 0.09375 0.0625 0.1875 0.0625h0.10938c0.039063 0 0.082031-0.003906 0.125-0.015625v0.51562c-0.11719 0.03125-0.20312 0.050781-0.26562 0.0625-0.054687 0.0078125-0.125 0.015625-0.21875 0.015625-0.24219 0-0.41797-0.089844-0.53125-0.26562-0.054687-0.09375-0.09375-0.22266-0.125-0.39062-0.13672 0.1875-0.33984 0.35547-0.60938 0.5-0.27344 0.13281-0.57031 0.20312-0.89062 0.20312-0.38672 0-0.70312-0.11719-0.95312-0.34375-0.24219-0.23828-0.35938-0.53516-0.35938-0.89062 0-0.39453 0.11719-0.69531 0.35938-0.90625 0.23828-0.21875 0.55469-0.34766 0.95312-0.39062z"/></symbol><symbol id="bd" overflow="visible"><path d="m0.96875-2.0469c0 0.44922 0.09375 0.82422 0.28125 1.125 0.1875 0.30469 0.48828 0.45312 0.90625 0.45312 0.33203 0 0.60156-0.14062 0.8125-0.42188 0.20703-0.28125 0.3125-0.67969 0.3125-1.2031 0-0.53125-0.10938-0.92188-0.32812-1.1719s-0.48438-0.375-0.79688-0.375c-0.35547 0-0.64062 0.13672-0.85938 0.40625-0.21875 0.27344-0.32812 0.66797-0.32812 1.1875zm1.0469-2.2188c0.32031 0 0.59375 0.070312 0.8125 0.20312 0.125 0.085937 0.26562 0.22656 0.42188 0.42188v-2.125h0.67188v5.7656h-0.625v-0.57812c-0.16797 0.25-0.36719 0.4375-0.59375 0.5625-0.21875 0.11328-0.47656 0.17188-0.76562 0.17188-0.46094 0-0.85938-0.19531-1.2031-0.59375-0.34375-0.39453-0.51562-0.91406-0.51562-1.5625 0-0.61328 0.15625-1.1445 0.46875-1.5938 0.3125-0.44531 0.75391-0.67188 1.3281-0.67188z"/></symbol><symbol id="bc" overflow="visible"><path d="m0.6875-4.8281c0.007813-0.28906 0.0625-0.50391 0.15625-0.64062 0.16406-0.23828 0.48438-0.35938 0.95312-0.35938 0.039063 0 0.082031 0.00781 0.125 0.015625h0.17188v0.64062h-0.15625-0.09375c-0.21875 0-0.35156 0.058594-0.39062 0.17188-0.042969 0.10547-0.0625 0.38281-0.0625 0.82812h0.70312v0.5625h-0.70312v3.6094h-0.70312v-3.6094h-0.57812v-0.5625h0.57812z"/></symbol><symbol id="s" overflow="visible"><path d="m0.53125-4.1875h0.67188v0.71875c0.050781-0.13281 0.17969-0.30078 0.39062-0.5 0.21875-0.20703 0.46875-0.3125 0.75-0.3125 0.00781 0 0.03125 0.00781 0.0625 0.015625h0.17188v0.75c-0.042969-0.00781-0.085937-0.015625-0.125-0.015625h-0.10938c-0.35547 0-0.63281 0.11719-0.82812 0.34375-0.1875 0.21875-0.28125 0.48047-0.28125 0.78125v2.4062h-0.70312z"/></symbol><symbol id="bb" overflow="visible"><path d="m2.2812-0.46875c0.33203 0 0.60156-0.13281 0.8125-0.40625 0.21875-0.28125 0.32812-0.69531 0.32812-1.25 0-0.33203-0.046875-0.61719-0.14062-0.85938-0.17969-0.45703-0.51172-0.6875-1-0.6875-0.49219 0-0.82422 0.24609-1 0.73438-0.09375 0.26172-0.14062 0.58984-0.14062 0.98438 0 0.32422 0.046875 0.60156 0.14062 0.82812 0.1875 0.4375 0.51953 0.65625 1 0.65625zm-1.8125-3.7031h0.67188v0.5625c0.14453-0.1875 0.30078-0.33203 0.46875-0.4375 0.23828-0.15625 0.51562-0.23438 0.82812-0.23438 0.47656 0 0.87891 0.18359 1.2031 0.54688 0.33203 0.35547 0.5 0.87109 0.5 1.5469 0 0.91797-0.23438 1.5703-0.70312 1.9531-0.30469 0.25-0.65625 0.375-1.0625 0.375-0.3125 0-0.57812-0.070312-0.79688-0.20312-0.125-0.082031-0.26172-0.21875-0.40625-0.40625v2.1406h-0.70312z"/></symbol><symbol id="ba" overflow="visible"><path d="m0.85938-4.1875 1.125 3.4062 1.1562-3.4062h0.78125l-1.5781 4.1875h-0.75l-1.5469-4.1875z"/></symbol><symbol id="az" overflow="visible"><path d="m0.53125-5.7344h0.70312v5.7344h-0.70312z"/></symbol><symbol id="ay" overflow="visible"><path d="m0.32812-2.5938h1.9688v0.71875h-1.9688z"/></symbol><symbol id="ax" overflow="visible"><path d="m1.2188-4.1875v2.7812c0 0.21094 0.035156 0.38281 0.10938 0.51562 0.125 0.25 0.35156 0.375 0.6875 0.375 0.48828 0 0.82031-0.21875 1-0.65625 0.10156-0.22656 0.15625-0.54688 0.15625-0.95312v-2.0625h0.70312v4.1875h-0.67188l0.015625-0.625c-0.09375 0.16797-0.21094 0.30469-0.34375 0.40625-0.27344 0.21875-0.60156 0.32812-0.98438 0.32812-0.59375 0-1-0.19531-1.2188-0.59375-0.11719-0.21875-0.17188-0.50391-0.17188-0.85938v-2.8438z"/></symbol><symbol id="aw" overflow="visible"><path d="m0.84375-4.1875 0.79688 3.2969 0.82812-3.2969h0.78125l0.82812 3.2812 0.84375-3.2812h0.70312l-1.2031 4.1875h-0.73438l-0.85938-3.2344-0.8125 3.2344h-0.73438l-1.2031-4.1875z"/></symbol></defs><path d="m450.8 138.99h14.355v-78.949h-14.355z" fill="#fff"/><path d="m111.12 148.96v-143.84h-86.746v143.61s-2.7227 6.5312-10.797 6.5312v52.949s9.6133-0.86328 10.797 9.8828v448.63h86.746v-451.09c2.0898-8.6211 10.453-7.8711 10.453-7.8711v-52.953c-6.4727 0-9.5039-4.1914-10.453-5.8555" fill="#b0b0b0"/><path d="m111.12 148.96v-143.84h-86.746v143.61s-2.7227 6.5312-10.797 6.5312v52.949s9.6133-0.86328 10.797 9.8828v448.63h86.746v-451.09c2.0898-8.6211 10.453-7.8711 10.453-7.8711v-52.953c-6.4727 0-9.5039-4.1914-10.453-5.8555z" fill="none" stroke="#211e1e" stroke-width="1.081"/><path d="m214.55 400.97s-2.9024 10.031-16.195 10.031v50.988s12.855-1.7461 16.191 12.098v187.88l106.31 0.5v-186.84c3.8398-14.344 14.93-13.641 14.93-13.641v-50.988c-13.293 0-14.93-10.25-14.93-10.25v-220.84c3.8398-12.426 14.93-11.82 14.93-11.82v-42.797c-10.84 0-14.93-10.254-14.93-10.254v-107.77h-106.31z" fill="#b0b0b0" stroke="#211e1e"/><g fill="#211e1e"><path d="m55.824 304.97v5.6445h-1.3828l2.2891 3.8906 2.1328-3.8906h-1.2773v-5.6445z"/><path d="m36.699 304.97v5.6445h-1.3828l2.2891 3.8906 2.1328-3.8906h-1.2812v-5.6445z"/><path d="m308.63 311.51v-6.1758h1.5156l-2.5039-4.25-2.3281 4.25h1.3945v6.1758z"/><path d="m289.25 311.27v-6.1758h1.5156l-2.5039-4.25-2.332 4.25h1.3984v6.1758z"/><path d="m226.65 303.32v6.1758h-1.5156l2.5039 4.25 2.3281-4.25h-1.3945v-6.1758z"/><path d="m245.93 303.56v6.1758h-1.5117l2.5039 4.25 2.3281-4.25h-1.3984v-6.1758z"/><path d="m98.82 315.4v-5.6484h1.3867l-2.293-3.8906-2.1289 3.8906h1.2774v5.6484z"/><path d="m79.66 315.4v-5.6484h1.3828l-2.2891-3.8906-2.1328 3.8906h1.2774v5.6484z"/></g><g fill="none" stroke-width="2"><path d="m66.102 152.63-0.02734-140.75" stroke="#facc2b"/><path d="m66.281 664.57-0.15625-453.95" stroke="#facc2b"/><g stroke="#fff"><g stroke-dasharray="14.4, 43.2"><path d="m46.992 152.62-0.03125-149.59"/><path d="m88.199 210.05 0.15625 453.36"/><path d="m237.2 121-0.05468-121"/><path d="m237.23 467.42 0.10156 193.47"/><path d="m237.07 169.47 0.12109 237.93"/></g><path d="m217.95 473.09 0.10156 187.8"/><path d="m217.79 45.934 0.12109 355.04"/><g stroke-dasharray="14.4, 43.2"><path d="m298.02 121.22-0.05468-121.21"/><path d="m297.99 467.15 0.10156 202.99"/><path d="m297.84 169.47 0.12109 237.91"/></g><path d="m317.27 473.09 0.10547 197.05"/><path d="m317.12 179.91 0.12109 221.06"/><path d="m88.176 152.62-0.02734-149.59" stroke-dasharray="14.4, 43.2"/><path d="m107.61 215.24 0.15625 448.16"/><path d="m107.59 148.73-0.02734-145.7"/><path d="m47.016 210.05 0.15625 453.36" stroke-dasharray="14.4, 43.2"/></g><g stroke="#facc2b"><g><path d="m69.027 152.63-0.02734-140.75"/><path d="m69.207 664.57-0.15625-453.95"/><path d="m278.71 121.21v-113.79"/><path d="m275.8 7.4145v113.79"/><path d="m278.71 407.41v-235.12c-31.621 21.926-13.82 64.316-2.9492 85.582l0.0351 149.54"/></g><path d="m275.78 251.28c-4.207-8.7656-8.7344-19.75-10.852-31.055-3.3789-18.039 0.26953-32.078 10.84-41.848z" stroke-miterlimit="5"/></g><g stroke="#fff"><path d="m256.59 7.4145v113.79"/><path d="m256.48 279.41v128"/><path d="m278.75 467.07v98.262"/></g><g><path d="m278.7 663.54v-50.328c0-12.184-4.3711-15.668-8.5976-20.977-4.3789-5.5-8.5156-10.691-10.656-23.477v-101.69" stroke="#facc2b"/><path d="m256.54 467.06v101.69c2.1367 13.805 6.7891 19.648 11.289 25.293 4.0976 5.1406 7.9648 7.9961 7.9648 19.16v50.328" stroke="#facc2b"/><path d="m256.43 615.56v47.535" stroke="#fff"/></g></g><g fill="#fff"><g><path d="m120.56 224.96h14.359v-78.945h-14.359z"/><path d="m334.99 176.29h14.355v-78.945h-14.355z"/><path d="m334.99 479.8h14.355v-78.949h-14.355z"/><path d="m184.63 479.8h14.355v-78.949h-14.355z"/><path d="m0 224.96h14.359v-78.945h-14.359z"/></g><g fill-rule="evenodd"><path d="m271.46 108.19c-1.6016 1.4375-3.1992 2.8359-4.8008 4.2734 0.35547-1.2461 0.71484-2.4922 1.0703-3.7383-0.35547-8e-3 -0.71484-0.0156-1.0703-0.0273-3.1797-0.23438-4.8711-1.9102-5.332-4.7812v-4.8086h1.5938v3.2149c0.35156 2.2422 1.4766 3.6211 3.7383 3.7383h1.0703c-0.18359-1.2461-0.36718-2.4922-0.55078-3.7383 1.4297 1.9414 2.8516 3.9258 4.2812 5.8672"/><path d="m271.46 639.16c-1.6016 1.4414-3.1992 2.8359-4.8008 4.2734 0.35547-1.2461 0.71484-2.4922 1.0703-3.7383-0.35547-8e-3 -0.71484-0.0156-1.0703-0.0273-3.1797-0.23437-4.8711-1.9102-5.332-4.7812v-4.8086h1.5938v3.2148c0.35156 2.2422 1.4766 3.6211 3.7383 3.7383h1.0703c-0.18359-1.2461-0.36718-2.4922-0.55078-3.7383 1.4297 1.9414 2.8516 3.9258 4.2812 5.8672"/><path d="m263.22 477.81c1.6016-1.4375 3.1992-2.832 4.8008-4.2734-0.35547 1.2461-0.71485 2.4961-1.0703 3.7383 0.35547 0.0117 0.71485 0.0195 1.0703 0.0312 3.1758 0.23047 4.8711 1.9062 5.332 4.7812v4.8086h-1.5938v-3.2148c-0.35157-2.2422-1.4805-3.6211-3.7383-3.7383h-1.0703c0.17969 1.2461 0.36719 2.4922 0.54688 3.7383-1.4258-1.9414-2.8477-3.9297-4.2774-5.8711"/><path d="m271.46 390.23c-1.6016 1.4414-3.1992 2.8359-4.8008 4.2734 0.35547-1.2461 0.71484-2.4922 1.0703-3.7383-0.35547-8e-3 -0.71484-0.0156-1.0703-0.0274-3.1797-0.23437-4.8711-1.9102-5.332-4.7812v-4.8086h1.5938v3.2148c0.35156 2.2422 1.4766 3.6211 3.7383 3.7383h1.0703c-0.18359-1.2461-0.36718-2.4922-0.55078-3.7383 1.4297 1.9414 2.8516 3.9258 4.2812 5.8672"/><path d="m271.46 296.27c-1.6016 1.4414-3.1992 2.8359-4.8008 4.2734 0.35547-1.2461 0.71484-2.4922 1.0703-3.7383-0.35547-8e-3 -0.71484-0.0156-1.0703-0.0274-3.1797-0.23437-4.8711-1.9062-5.332-4.7812v-4.8086h1.5938v3.2148c0.35156 2.2422 1.4766 3.6211 3.7383 3.7383h1.0703c-0.18359-1.2461-0.36718-2.4922-0.55078-3.7383 1.4297 1.9414 2.8516 3.9297 4.2812 5.8672"/><path d="m263.22 546.13c1.6016-1.4375 3.1992-2.832 4.8008-4.2734-0.35547 1.2461-0.71485 2.4961-1.0703 3.7383 0.35547 0.0117 0.71485 0.0195 1.0703 0.0312 3.1758 0.23047 4.8711 1.9062 5.332 4.7812v4.8086h-1.5938v-3.2148c-0.35157-2.2422-1.4805-3.6211-3.7383-3.7383h-1.0703c0.17969 1.2461 0.36719 2.4922 0.54688 3.7383-1.4258-1.9414-2.8477-3.9297-4.2774-5.8711"/></g><path d="m325.87 50.481h-314.77v-48.309h314.77z"/></g><g fill="none" stroke="#fff" stroke-width="2"><path d="m27.766 215.24 0.15625 448.16"/><path d="m27.988 148.73-0.03125-145.7"/><path d="m317.3 115.04-0.05468-115.04"/><path d="m256.48 273.44v-63.398" stroke-dasharray="2.88, 5.76"/></g><path d="m264.18 202.57-0.48437 6.1406 12.324-12.426-0.26563-5.3906z" fill="#facc2b"/><path d="m265.62 224.26 0.95313 4.7031 9.4492-9.5508-0.26563-5.3906z" fill="#facc2b"/><path d="m339.11 210.34-63.871-12.508" fill="none" stroke="#211e1e" stroke-width=".75"/><path d="m273.91 198.12c0.80078 0.42578 1.3086 0.76953 1.9375 1.1797l0.50781-2.6016c-0.26562 0.0703-1.3359 0.26954-2.2383 0.35938-0.96484 0.0977-1.8281 0.125-2.3789 0.0859 0.52343 0.17187 1.3125 0.52343 2.1719 0.97656" fill="#211e1e"/><path d="m339.11 210.34-64.191 10.742" fill="none" stroke="#211e1e" stroke-width=".75"/><path d="m273.78 221.82c0.89844 0.11328 1.4922 0.25781 2.2266 0.42188l-0.4375-2.6133c-0.22656 0.15625-1.1562 0.72265-1.9688 1.125-0.87109 0.42968-1.6719 0.75781-2.1992 0.91406 0.55078-0.0195 1.4141 0.0273 2.3789 0.15234" fill="#211e1e"/><g transform="translate(-83.668 -75.41)" fill="#211e1e"><use x="424.64941" y="289.13599" width="100%" height="100%" xlink:href="#bu"/><use x="431.1474" y="289.13599" width="100%" height="100%" xlink:href="#h"/><use x="436.1514" y="289.13599" width="100%" height="100%" xlink:href="#as"/><use x="440.6514" y="289.13599" width="100%" height="100%" xlink:href="#r"/><use x="445.6554" y="289.13599" width="100%" height="100%" xlink:href="#af"/><use x="453.1524" y="289.13599" width="100%" height="100%" xlink:href="#af"/><use x="460.64941" y="289.13599" width="100%" height="100%" xlink:href="#h"/><use x="465.65341" y="289.13599" width="100%" height="100%" xlink:href="#q"/><use x="470.65741" y="289.13599" width="100%" height="100%" xlink:href="#t"/><use x="475.66141" y="289.13599" width="100%" height="100%" xlink:href="#h"/><use x="480.66541" y="289.13599" width="100%" height="100%" xlink:href="#t"/><use x="485.6694" y="289.13599" width="100%" height="100%" xlink:href="#p"/><use x="488.17139" y="289.13599" width="100%" height="100%" xlink:href="#bm"/><use x="492.67139" y="289.13599" width="100%" height="100%" xlink:href="#h"/><use x="497.67542" y="289.13599" width="100%" height="100%" xlink:href="#w"/><use x="499.6734" y="289.13599" width="100%" height="100%" xlink:href="#w"/><use x="501.67139" y="289.13599" width="100%" height="100%" xlink:href="#r"/><use x="506.67542" y="289.13599" width="100%" height="100%" xlink:href="#bt"/><use x="513.1734" y="289.13599" width="100%" height="100%" xlink:href="#p"/><use x="424.64941" y="299.13501" width="100%" height="100%" xlink:href="#t"/><use x="429.65341" y="299.13501" width="100%" height="100%" xlink:href="#v"/><use x="431.6514" y="299.13501" width="100%" height="100%" xlink:href="#u"/><use x="436.6554" y="299.13501" width="100%" height="100%" xlink:href="#ah"/><use x="441.65939" y="299.13501" width="100%" height="100%" xlink:href="#r"/><use x="446.66339" y="299.13501" width="100%" height="100%" xlink:href="#q"/><use x="451.66739" y="299.13501" width="100%" height="100%" xlink:href="#u"/><use x="456.67139" y="299.13501" width="100%" height="100%" xlink:href="#w"/><use x="458.6694" y="299.13501" width="100%" height="100%" xlink:href="#p"/><use x="461.17139" y="299.13501" width="100%" height="100%" xlink:href="#af"/><use x="468.6684" y="299.13501" width="100%" height="100%" xlink:href="#u"/><use x="473.67239" y="299.13501" width="100%" height="100%" xlink:href="#ag"/><use x="476.6694" y="299.13501" width="100%" height="100%" xlink:href="#bs"/><use x="481.1694" y="299.13501" width="100%" height="100%" xlink:href="#v"/><use x="483.16739" y="299.13501" width="100%" height="100%" xlink:href="#q"/><use x="488.17139" y="299.13501" width="100%" height="100%" xlink:href="#ah"/><use x="493.17542" y="299.13501" width="100%" height="100%" xlink:href="#br"/></g><path d="m278.75 572.94v30.902" fill="none" stroke="#fff" stroke-dasharray="2.88, 5.76" stroke-width="2"/><g><path d="m328.02 670.47h-315.85v-10.273h315.85z" fill="#fff"/><g transform="translate(-83.668 -75.41)" fill="#211e1e"><use x="98.044403" y="105.8613" width="100%" height="100%" xlink:href="#bl"/><use x="104.5576" y="105.8613" width="100%" height="100%" xlink:href="#a"/><use x="107.1967" y="105.8613" width="100%" height="100%" xlink:href="#k"/><use x="110.3602" y="105.8613" width="100%" height="100%" xlink:href="#a"/><use x="111.91345" y="105.8613" width="100%" height="100%" xlink:href="#am"/><use x="119.82695" y="105.8613" width="100%" height="100%" xlink:href="#ab"/><use x="125.63145" y="105.8613" width="100%" height="100%" xlink:href="#g"/><use x="128.27245" y="105.8613" width="100%" height="100%" xlink:href="#f"/><use x="131.43594" y="105.8613" width="100%" height="100%" xlink:href="#e"/><use x="134.07695" y="105.8613" width="100%" height="100%" xlink:href="#k"/><use x="137.24045" y="105.8613" width="100%" height="100%" xlink:href="#g"/><use x="139.88145" y="105.8613" width="100%" height="100%" xlink:href="#d"/><use x="145.16345" y="105.8613" width="100%" height="100%" xlink:href="#c"/><use x="150.96796" y="105.8613" width="100%" height="100%" xlink:href="#l"/><use x="156.24995" y="105.8613" width="100%" height="100%" xlink:href="#ar"/><use x="158.89095" y="105.8613" width="100%" height="100%" xlink:href="#a"/><use x="98.044403" y="116.3588" width="100%" height="100%" xlink:href="#a"/><use x="111.91345" y="116.3588" width="100%" height="100%" xlink:href="#f"/><use x="115.07695" y="116.3588" width="100%" height="100%" xlink:href="#o"/><use x="122.46795" y="116.3588" width="100%" height="100%" xlink:href="#ae"/><use x="128.27245" y="116.3588" width="100%" height="100%" xlink:href="#k"/><use x="131.43594" y="116.3588" width="100%" height="100%" xlink:href="#o"/><use x="138.82695" y="116.3588" width="100%" height="100%" xlink:href="#d"/><use x="144.10895" y="116.3588" width="100%" height="100%" xlink:href="#aq"/><use x="149.39095" y="116.3588" width="100%" height="100%" xlink:href="#a"/><use x="152.03195" y="116.3588" width="100%" height="100%" xlink:href="#ap"/><use x="160.47745" y="116.3588" width="100%" height="100%" xlink:href="#d"/><use x="165.75945" y="116.3588" width="100%" height="100%" xlink:href="#ad"/><use x="169.45496" y="116.3588" width="100%" height="100%" xlink:href="#ao"/><use x="174.73695" y="116.3588" width="100%" height="100%" xlink:href="#e"/><use x="177.37794" y="116.3588" width="100%" height="100%" xlink:href="#c"/><use x="183.18245" y="116.3588" width="100%" height="100%" xlink:href="#ac"/><use x="286.36292" y="105.8613" width="100%" height="100%" xlink:href="#bk"/><use x="293.22189" y="105.8613" width="100%" height="100%" xlink:href="#a"/><use x="295.86292" y="105.8613" width="100%" height="100%" xlink:href="#k"/><use x="299.0264" y="105.8613" width="100%" height="100%" xlink:href="#a"/><use x="301.11639" y="105.8613" width="100%" height="100%" xlink:href="#am"/><use x="309.02991" y="105.8613" width="100%" height="100%" xlink:href="#ab"/><use x="314.83441" y="105.8613" width="100%" height="100%" xlink:href="#g"/><use x="317.4754" y="105.8613" width="100%" height="100%" xlink:href="#f"/><use x="320.63889" y="105.8613" width="100%" height="100%" xlink:href="#e"/><use x="323.27991" y="105.8613" width="100%" height="100%" xlink:href="#k"/><use x="326.44339" y="105.8613" width="100%" height="100%" xlink:href="#g"/><use x="329.08441" y="105.8613" width="100%" height="100%" xlink:href="#d"/><use x="334.36639" y="105.8613" width="100%" height="100%" xlink:href="#c"/><use x="340.1709" y="105.8613" width="100%" height="100%" xlink:href="#l"/><use x="345.45291" y="105.8613" width="100%" height="100%" xlink:href="#ar"/><use x="348.0939" y="105.8613" width="100%" height="100%" xlink:href="#a"/><use x="350.73489" y="105.8613" width="100%" height="100%" xlink:href="#f"/><use x="353.89841" y="105.8613" width="100%" height="100%" xlink:href="#o"/><use x="361.2894" y="105.8613" width="100%" height="100%" xlink:href="#ae"/><use x="367.0939" y="105.8613" width="100%" height="100%" xlink:href="#k"/><use x="370.25739" y="105.8613" width="100%" height="100%" xlink:href="#o"/><use x="377.64841" y="105.8613" width="100%" height="100%" xlink:href="#d"/><use x="382.93039" y="105.8613" width="100%" height="100%" xlink:href="#aq"/><use x="388.2124" y="105.8613" width="100%" height="100%" xlink:href="#a"/><use x="390.85339" y="105.8613" width="100%" height="100%" xlink:href="#ap"/><use x="399.29889" y="105.8613" width="100%" height="100%" xlink:href="#d"/><use x="404.5809" y="105.8613" width="100%" height="100%" xlink:href="#ad"/><use x="408.2764" y="105.8613" width="100%" height="100%" xlink:href="#ao"/><use x="413.55841" y="105.8613" width="100%" height="100%" xlink:href="#e"/><use x="416.19275" y="105.8613" width="100%" height="100%" xlink:href="#c"/><use x="421.99725" y="105.8613" width="100%" height="100%" xlink:href="#ac"/><use x="286.36292" y="116.3588" width="100%" height="100%" xlink:href="#a"/><use x="301.11639" y="116.3588" width="100%" height="100%" xlink:href="#o"/><use x="308.50739" y="116.3588" width="100%" height="100%" xlink:href="#e"/><use x="311.14841" y="116.3588" width="100%" height="100%" xlink:href="#f"/><use x="314.31189" y="116.3588" width="100%" height="100%" xlink:href="#an"/><use x="320.11639" y="116.3588" width="100%" height="100%" xlink:href="#a"/><use x="322.75739" y="116.3588" width="100%" height="100%" xlink:href="#bj"/><use x="328.0394" y="116.3588" width="100%" height="100%" xlink:href="#e"/><use x="330.68039" y="116.3588" width="100%" height="100%" xlink:href="#c"/><use x="336.48489" y="116.3588" width="100%" height="100%" xlink:href="#ac"/><use x="342.2894" y="116.3588" width="100%" height="100%" xlink:href="#g"/><use x="344.93039" y="116.3588" width="100%" height="100%" xlink:href="#l"/><use x="350.2124" y="116.3588" width="100%" height="100%" xlink:href="#a"/><use x="352.84201" y="116.3588" width="100%" height="100%" xlink:href="#g"/><use x="355.483" y="116.3588" width="100%" height="100%" xlink:href="#d"/><use x="360.76501" y="116.3588" width="100%" height="100%" xlink:href="#c"/><use x="366.56949" y="116.3588" width="100%" height="100%" xlink:href="#l"/><use x="371.8515" y="116.3588" width="100%" height="100%" xlink:href="#a"/><use x="374.49249" y="116.3588" width="100%" height="100%" xlink:href="#g"/><use x="377.13351" y="116.3588" width="100%" height="100%" xlink:href="#l"/><use x="382.4155" y="116.3588" width="100%" height="100%" xlink:href="#bi"/><use x="385.57901" y="116.3588" width="100%" height="100%" xlink:href="#f"/><use x="388.74249" y="116.3588" width="100%" height="100%" xlink:href="#a"/><use x="391.38351" y="116.3588" width="100%" height="100%" xlink:href="#f"/><use x="394.547" y="116.3588" width="100%" height="100%" xlink:href="#ab"/><use x="400.3515" y="116.3588" width="100%" height="100%" xlink:href="#ad"/><use x="404.047" y="116.3588" width="100%" height="100%" xlink:href="#c"/><use x="409.8515" y="116.3588" width="100%" height="100%" xlink:href="#a"/><use x="412.49249" y="116.3588" width="100%" height="100%" xlink:href="#bh"/><use x="417.77451" y="116.3588" width="100%" height="100%" xlink:href="#an"/><use x="423.57901" y="116.3588" width="100%" height="100%" xlink:href="#d"/><use x="428.86099" y="116.3588" width="100%" height="100%" xlink:href="#c"/><use x="434.6655" y="116.3588" width="100%" height="100%" xlink:href="#c"/><use x="440.47" y="116.3588" width="100%" height="100%" xlink:href="#l"/><use x="445.75201" y="116.3588" width="100%" height="100%" xlink:href="#g"/><use x="448.39301" y="116.3588" width="100%" height="100%" xlink:href="#e"/><use x="451.034" y="116.3588" width="100%" height="100%" xlink:href="#bg"/><use x="455.784" y="116.3588" width="100%" height="100%" xlink:href="#d"/><use x="461.06601" y="116.3588" width="100%" height="100%" xlink:href="#f"/><use x="464.22949" y="116.3588" width="100%" height="100%" xlink:href="#e"/><use x="466.87051" y="116.3588" width="100%" height="100%" xlink:href="#ae"/><use x="472.67499" y="116.3588" width="100%" height="100%" xlink:href="#c"/></g><path d="m368.91 80.504h6.3555v-1.5586l4.375 2.5781-4.375 2.3984v-1.4414h-6.3555z" fill="#211e1e"/></g><path d="m390.39 71.993h29.289" fill="none" stroke="#211e1e" stroke-width=".75"/><g transform="translate(-83.668 -75.41)" fill="#211e1e"><use x="473.5864" y="144.4512" width="100%" height="100%" xlink:href="#bq"/><use x="478.59039" y="144.4512" width="100%" height="100%" xlink:href="#h"/><use x="483.59439" y="144.4512" width="100%" height="100%" xlink:href="#ah"/><use x="488.59839" y="144.4512" width="100%" height="100%" xlink:href="#h"/><use x="493.60239" y="144.4512" width="100%" height="100%" xlink:href="#q"/><use x="498.60641" y="144.4512" width="100%" height="100%" xlink:href="#t"/><use x="466.09839" y="159.80521" width="100%" height="100%" xlink:href="#bp"/><use x="472.59641" y="159.80521" width="100%" height="100%" xlink:href="#v"/><use x="474.59439" y="159.80521" width="100%" height="100%" xlink:href="#ag"/><use x="477.5914" y="159.80521" width="100%" height="100%" xlink:href="#h"/><use x="482.5954" y="159.80521" width="100%" height="100%" xlink:href="#as"/><use x="487.0954" y="159.80521" width="100%" height="100%" xlink:href="#at"/><use x="489.59741" y="159.80521" width="100%" height="100%" xlink:href="#v"/><use x="491.5954" y="159.80521" width="100%" height="100%" xlink:href="#r"/><use x="496.5994" y="159.80521" width="100%" height="100%" xlink:href="#q"/><use x="501.60339" y="159.80521" width="100%" height="100%" xlink:href="#p"/><use x="504.10541" y="159.80521" width="100%" height="100%" xlink:href="#r"/><use x="509.10941" y="159.80521" width="100%" height="100%" xlink:href="#bo"/><use x="511.61139" y="159.80521" width="100%" height="100%" xlink:href="#p"/><use x="514.1134" y="159.80521" width="100%" height="100%" xlink:href="#at"/><use x="516.61542" y="159.80521" width="100%" height="100%" xlink:href="#ag"/><use x="519.61243" y="159.80521" width="100%" height="100%" xlink:href="#u"/><use x="524.61639" y="159.80521" width="100%" height="100%" xlink:href="#bn"/><use x="529.11639" y="159.80521" width="100%" height="100%" xlink:href="#h"/><use x="534.12042" y="159.80521" width="100%" height="100%" xlink:href="#w"/><use x="416.87009" y="342.35349" width="100%" height="100%" xlink:href="#bf"/><use x="422.64609" y="342.35349" width="100%" height="100%" xlink:href="#i"/><use x="427.09409" y="342.35349" width="100%" height="100%" xlink:href="#aj"/><use x="429.31812" y="342.35349" width="100%" height="100%" xlink:href="#j"/><use x="433.76611" y="342.35349" width="100%" height="100%" xlink:href="#av"/><use x="435.99011" y="342.35349" width="100%" height="100%" xlink:href="#b"/><use x="440.87009" y="342.35349" width="100%" height="100%" xlink:href="#ai"/><use x="446.20609" y="342.35349" width="100%" height="100%" xlink:href="#j"/><use x="450.65411" y="342.35349" width="100%" height="100%" xlink:href="#j"/><use x="455.10211" y="342.35349" width="100%" height="100%" xlink:href="#b"/><use x="457.32611" y="342.35349" width="100%" height="100%" xlink:href="#ai"/><use x="462.66211" y="342.35349" width="100%" height="100%" xlink:href="#j"/><use x="467.11011" y="342.35349" width="100%" height="100%" xlink:href="#au"/><use x="471.11011" y="342.35349" width="100%" height="100%" xlink:href="#aj"/><use x="473.33411" y="342.35349" width="100%" height="100%" xlink:href="#x"/><use x="475.11011" y="342.35349" width="100%" height="100%" xlink:href="#i"/><use x="479.55811" y="342.35349" width="100%" height="100%" xlink:href="#n"/><use x="484.0061" y="342.35349" width="100%" height="100%" xlink:href="#m"/><use x="488.0061" y="342.35349" width="100%" height="100%" xlink:href="#b"/><use x="490.2301" y="342.35349" width="100%" height="100%" xlink:href="#aa"/><use x="494.6781" y="342.35349" width="100%" height="100%" xlink:href="#al"/><use x="500.0141" y="342.35349" width="100%" height="100%" xlink:href="#z"/><use x="502.2381" y="342.35349" width="100%" height="100%" xlink:href="#ak"/><use x="506.6861" y="342.35349" width="100%" height="100%" xlink:href="#be"/><use x="511.13409" y="342.35349" width="100%" height="100%" xlink:href="#b"/><use x="513.35809" y="342.35349" width="100%" height="100%" xlink:href="#y"/><use x="517.80609" y="342.35349" width="100%" height="100%" xlink:href="#n"/><use x="522.25409" y="342.35349" width="100%" height="100%" xlink:href="#bd"/><use x="526.70209" y="342.35349" width="100%" height="100%" xlink:href="#b"/><use x="528.92609" y="342.35349" width="100%" height="100%" xlink:href="#aa"/><use x="533.37408" y="342.35349" width="100%" height="100%" xlink:href="#al"/><use x="538.71008" y="342.35349" width="100%" height="100%" xlink:href="#z"/><use x="540.93408" y="342.35349" width="100%" height="100%" xlink:href="#ak"/><use x="545.38208" y="342.35349" width="100%" height="100%" xlink:href="#aa"/><use x="549.83008" y="342.35349" width="100%" height="100%" xlink:href="#b"/><use x="440.87009" y="350.84949" width="100%" height="100%" xlink:href="#bc"/><use x="443.09409" y="350.84949" width="100%" height="100%" xlink:href="#i"/><use x="447.54211" y="350.84949" width="100%" height="100%" xlink:href="#s"/><use x="450.20609" y="350.84949" width="100%" height="100%" xlink:href="#b"/><use x="452.43011" y="350.84949" width="100%" height="100%" xlink:href="#bb"/><use x="456.87811" y="350.84949" width="100%" height="100%" xlink:href="#s"/><use x="459.54211" y="350.84949" width="100%" height="100%" xlink:href="#i"/><use x="463.99011" y="350.84949" width="100%" height="100%" xlink:href="#ba"/><use x="467.99011" y="350.84949" width="100%" height="100%" xlink:href="#x"/><use x="469.76611" y="350.84949" width="100%" height="100%" xlink:href="#m"/><use x="473.76611" y="350.84949" width="100%" height="100%" xlink:href="#x"/><use x="475.54211" y="350.84949" width="100%" height="100%" xlink:href="#i"/><use x="479.99011" y="350.84949" width="100%" height="100%" xlink:href="#n"/><use x="484.43811" y="350.84949" width="100%" height="100%" xlink:href="#m"/><use x="488.43811" y="350.84949" width="100%" height="100%" xlink:href="#b"/><use x="490.66211" y="350.84949" width="100%" height="100%" xlink:href="#i"/><use x="495.11011" y="350.84949" width="100%" height="100%" xlink:href="#n"/><use x="499.55811" y="350.84949" width="100%" height="100%" xlink:href="#b"/><use x="501.7821" y="350.84949" width="100%" height="100%" xlink:href="#az"/><use x="503.55811" y="350.84949" width="100%" height="100%" xlink:href="#y"/><use x="508.0061" y="350.84949" width="100%" height="100%" xlink:href="#n"/><use x="512.4541" y="350.84949" width="100%" height="100%" xlink:href="#j"/><use x="516.9021" y="350.84949" width="100%" height="100%" xlink:href="#ay"/><use x="519.5661" y="350.84949" width="100%" height="100%" xlink:href="#ax"/><use x="524.0141" y="350.84949" width="100%" height="100%" xlink:href="#m"/><use x="528.0141" y="350.84949" width="100%" height="100%" xlink:href="#j"/><use x="532.4621" y="350.84949" width="100%" height="100%" xlink:href="#b"/><use x="534.6861" y="350.84949" width="100%" height="100%" xlink:href="#y"/><use x="539.13409" y="350.84949" width="100%" height="100%" xlink:href="#s"/><use x="541.7981" y="350.84949" width="100%" height="100%" xlink:href="#s"/><use x="544.4621" y="350.84949" width="100%" height="100%" xlink:href="#i"/><use x="548.9101" y="350.84949" width="100%" height="100%" xlink:href="#aw"/><use x="554.6861" y="350.84949" width="100%" height="100%" xlink:href="#m"/><use x="558.6861" y="350.84949" width="100%" height="100%" xlink:href="#z"/></g></svg>
