<?xml version="1.0" encoding="UTF-8"?>
<svg width="442.32" height="389.78" version="1.1" viewBox="0 0 442.32 389.78" xml:space="preserve" xmlns="http://www.w3.org/2000/svg"><defs><clipPath id="g"><path d="m201.52 351.98h331.74v314.25h-331.74z"/></clipPath><clipPath id="f"><path d="m194.9 346.7h344.97v324.8h-344.97z"/></clipPath><clipPath id="e"><path d="m201.52 351.98h331.74v314.25h-331.74z"/></clipPath><clipPath id="d"><path d="m194.9 346.7h344.97v324.8h-344.97z"/></clipPath><clipPath id="c"><path d="m194.9 346.7h344.97v324.8h-344.97z"/></clipPath><clipPath id="b"><path d="m201.52 351.98h331.74v314.25h-331.74z"/></clipPath><clipPath id="a"><path d="m194.9 346.7h344.97v324.8h-344.97z"/></clipPath></defs><g transform="matrix(1.3333 0 0 -1.3333 -268.69 859.08)"><text transform="matrix(1 0 0 -1 301.9 484.11)" fill="#000000" font-family="Helvetica" font-size="9px" font-weight="bold"><tspan x="0 6.4980001 9 11.997 13.779 22.275 24.777 27.774 33.272999 38.771999 44.271 47.268002 49.77 54.773998 60.272999 65.772003 71.271004 74.267998 79.766998 85.130997 92.133003 97.632004 100.134 105.633 108.135 113.139 118.638 121.14 125.964" y="0">B - Without countdown display</tspan><tspan x="6.993 13.491 15.993 18.99 20.771999 29.268 31.77 34.766998 40.265999 42.768002 47.771999 53.271 58.77 64.268997 67.265999 72.764999 78.128998 85.130997 90.629997 93.132004 98.630997 101.133 106.137 111.636 114.138 118.962" y="-153.765">A - With countdown display</tspan></text><g clip-path="url(#g)"><g transform="translate(292.1 556.3)"><path d="m0 0c0-2.552-1.658-4.619-3.703-4.619h-82.806c-2.045 0-3.701 2.067-3.701 4.619v71.09c0 2.551 1.656 4.619 3.701 4.619h82.806c2.045 0 3.703-2.068 3.703-4.619z" fill="none" stroke="#000" stroke-width=".75"/></g></g><g clip-path="url(#f)"><g transform="translate(288.89 563.61)"><path d="m0 0v61.344c0 2.297-1.49 4.158-3.33 4.158h-77.122c-1.84 0-3.33-1.861-3.33-4.158v-61.344z" fill="none" stroke="#000" stroke-linejoin="round" stroke-width=".794"/></g><g transform="translate(287.28 559.95)"><path d="m0 0c0-2.168-1.408-3.926-3.146-3.926h-74.279c-1.738 0-3.146 1.758-3.146 3.926v63.793c0 2.169 1.408 3.926 3.146 3.926h74.279c1.738 0 3.146-1.757 3.146-3.926z" fill="#fff"/><path d="m0 0c0-2.168-1.408-3.926-3.146-3.926h-74.279c-1.738 0-3.146 1.758-3.146 3.926v63.793c0 2.169 1.408 3.926 3.146 3.926h74.279c1.738 0 3.146-1.757 3.146-3.926z" fill="none" stroke="#000" stroke-linejoin="round" stroke-width=".75"/></g><g transform="translate(285.92 560.98)"><path d="m0 0c0-2.059-1.338-3.729-2.988-3.729h-71.865c-1.65 0-2.986 1.67-2.986 3.729v61.725c0 2.061 1.336 3.73 2.986 3.73h71.865c1.65 0 2.988-1.669 2.988-3.73z"/></g><g transform="translate(255.88 607.85)"><path d="m0 0v-14.283l1.776-1.724 1.773 1.724v14.283l-1.773 1.722z" fill="#f4901d"/><path d="m0 0v-14.283l1.776-1.724 1.773 1.724v14.283l-1.773 1.722z" fill="none" stroke="#000" stroke-width=".5"/></g><g transform="translate(255.88 590.12)"><path d="m0 0v-14.28l1.776-1.726 1.773 1.726v14.28l-1.773 1.726z" fill="#f4901d"/><path d="m0 0v-14.28l1.776-1.726 1.773 1.726v14.28l-1.773 1.726z" fill="none" stroke="#000" stroke-width=".5"/></g><g transform="translate(278.29 593.57)"><path d="m0 0h-10.702l-1.776-1.724 1.776-1.725h10.702l1.774 1.725z" fill="#f4901d"/><path d="m0 0h-10.702l-1.776-1.724 1.776-1.725h10.702l1.774 1.725z" fill="none" stroke="#000" stroke-width=".5"/></g><g transform="translate(264.04 607.85)"><path d="m0 0v-14.283l1.772-1.724 1.776 1.724v14.283l-1.776 1.722z" fill="#f4901d"/><path d="m0 0v-14.283l1.772-1.724 1.776 1.724v14.283l-1.776 1.722z" fill="none" stroke="#000" stroke-width=".5"/></g><g transform="translate(278.29 590.12)"><path d="m0 0v-14.28l1.774-1.726 1.774 1.726v14.28l-1.774 1.726z" fill="#f4901d"/><path d="m0 0v-14.28l1.774-1.726 1.774 1.726v14.28l-1.774 1.726z" fill="none" stroke="#000" stroke-width=".5"/></g><g transform="translate(278.29 611.3)"><path d="m0 0h-10.702l-1.776-1.726 1.776-1.721h10.702l1.774 1.721z" fill="#f4901d"/><path d="m0 0h-10.702l-1.776-1.726 1.776-1.721h10.702l1.774 1.721z" fill="none" stroke="#000" stroke-width=".5"/></g><g transform="translate(278.29 575.84)"><path d="m0 0h-10.702l-1.776-1.726 1.776-1.722h10.702l1.774 1.722z" fill="#f4901d"/><path d="m0 0h-10.702l-1.776-1.726 1.776-1.722h10.702l1.774 1.722zm-22.41 14.28v-14.28l1.774-1.726 1.775 1.726v14.28l-1.775 1.726z" fill="none" stroke="#000" stroke-width=".5"/></g><g transform="translate(213.97 571.6)"><path d="m0 0c0.375 0.455 0.801 0.949 0.845 1.749v5.859c0 2.551-0.861 2.986-1.7 3.766-1.389 1.291-1.18 3.121-1.103 5.485 0.213 6.551 0.46 10.498 0.485 16.619 3e-3 0.78 0.636 1.417 1.417 1.417s1.417-0.637 1.417-1.417l0.486-9.934 0.644 0.016c0.102 4.537 0.31 9.115 0.31 13.65 0 0.779 0.636 1.416 1.417 1.416 0.779 0 1.415-0.637 1.415-1.416 0-0.013 0-0.028 5e-3 -0.041l0.195-13.622h0.656c0.184 5.14 0.551 10.394 0.551 15.528 0 0.78 0.637 1.416 1.415 1.416 0.781 0 1.418-0.636 1.418-1.416v-0.018l0.305-15.51h0.859c0.049 4.579 0.101 9.158 0.151 13.737 0.032 0.75 0.662 1.342 1.414 1.342 0.764 0 1.401-0.614 1.417-1.383l0.7-18.266c-6e-3 -0.337 0.296-0.588 0.633-0.588 0.192 0 0.628 0.135 0.967 0.656l3.202 4.638c1.212 1.702 2.829 2.038 4.725 1.321-1.175-2.209-3.6-7.657-6.06-10.716-1.297-2.028-5.648-4.06-5.648-6.671v-5.342c0-1.098 1.084-2.34 1.036-2.275z" fill="#f4901d" fill-rule="evenodd"/></g><g transform="translate(226.85 612.09)"><path d="m0 0c-1.632 0-2.963-1.331-2.963-2.962 0-1.633 1.331-2.964 2.963-2.964s2.963 1.331 2.963 2.964c0 1.631-1.331 2.962-2.963 2.962" fill="#fff" fill-rule="evenodd"/></g><g transform="translate(235.83 593.41)"><path d="m0 0-6.216 4.142c-0.288 1.214-1.478 6.606-3.869 7.854-2.369 1.567-11.1-4.866-11.15-4.919v-9.383l1.893 0.33 0.741 7.49c0.713 0.142 1.426 0.287 2.139 0.429-1.558-4.029-2.131-7.913-1.234-10.472l-3.786-15.472 2.551-1.81 5.515 14.32 2.551-2.716 3.54-10.782 3.374 1.235-3.045 11.358-3.539 6.337 1.355 4.678 1.443-1.88 6.749-2.222z" fill="#fff" fill-rule="evenodd"/></g><g transform="translate(380.36 573.6)"><path d="m0 0c0-2.551-1.657-4.619-3.701-4.619h-56.858c-2.044 0-3.701 2.068-3.701 4.619v53.797c0 2.551 1.657 4.617 3.701 4.617h56.858c2.044 0 3.701-2.066 3.701-4.617z" fill="none" stroke="#000" stroke-linejoin="round" stroke-width=".75"/></g><g transform="translate(377.15 580.91)"><path d="m0 0v44.051c0 2.297-1.49 4.158-3.332 4.158h-51.171c-1.84 0-3.331-1.861-3.331-4.158v-44.051z" fill="none" stroke="#000" stroke-linejoin="round" stroke-width=".794"/></g><g transform="translate(375.54 577.24)"><path d="m0 0c0-2.168-1.408-3.926-3.144-3.926h-48.33c-1.737 0-3.146 1.758-3.146 3.926v46.498c0 2.168 1.409 3.928 3.146 3.928h48.33c1.736 0 3.144-1.76 3.144-3.928z" fill="#fff"/><path d="m0 0c0-2.168-1.408-3.926-3.144-3.926h-48.33c-1.737 0-3.146 1.758-3.146 3.926v46.498c0 2.168 1.409 3.928 3.146 3.928h48.33c1.736 0 3.144-1.76 3.144-3.928z" fill="none" stroke="#000" stroke-linejoin="round" stroke-width=".75"/></g><g transform="translate(374.18 578.28)"><path d="m0 0c0-2.059-1.338-3.729-2.988-3.729h-45.912c-1.652 0-2.989 1.67-2.989 3.729v44.432c0 2.06 1.337 3.73 2.989 3.73h45.912c1.65 0 2.988-1.67 2.988-3.73z"/></g><g transform="translate(337.55 581.04)"><path d="m0 0c0.361 0.438 0.77 0.912 0.811 1.682v5.629c0 2.453-0.826 2.871-1.632 3.619-1.336 1.242-1.135 3-1.062 5.273 0.206 6.295 0.443 10.088 0.467 15.973 3e-3 0.75 0.612 1.361 1.362 1.361s1.362-0.611 1.362-1.361l0.467-9.549 0.618 0.018c0.099 4.359 0.299 8.759 0.299 13.117 0 0.75 0.611 1.361 1.361 1.361 0.749 0 1.361-0.611 1.361-1.361 0-0.01 0-0.028 4e-3 -0.039l0.188-13.092h0.631c0.176 4.939 0.529 9.99 0.529 14.924 0 0.75 0.611 1.361 1.36 1.361 0.75 0 1.363-0.611 1.363-1.361v-0.018l0.292-14.906h0.826c0.048 4.4 0.097 8.801 0.145 13.203 0.03 0.721 0.637 1.289 1.361 1.289 0.734 0 1.345-0.59 1.36-1.33l0.673-17.557c-6e-3 -0.324 0.284-0.564 0.609-0.564 0.185 0 0.605 0.133 0.93 0.631l3.076 4.459c1.167 1.634 2.721 1.957 4.542 1.269-1.129-2.125-3.458-7.361-5.824-10.299-1.247-1.951-5.428-3.904-5.428-6.412v-5.132c0-1.059 1.041-2.252 0.995-2.188z" fill="#f4901d" fill-rule="evenodd"/></g><g transform="translate(349.93 619.95)"><path d="m0 0c-1.568 0-2.849-1.279-2.849-2.848 0-1.568 1.281-2.847 2.849-2.847s2.847 1.279 2.847 2.847c0 1.569-1.279 2.848-2.847 2.848" fill="#fff" fill-rule="evenodd"/></g><g transform="translate(358.56 602)"><path d="m0 0-5.974 3.98c-0.276 1.168-1.421 6.35-3.719 7.549-2.276 1.506-10.667-4.677-10.715-4.728v-9.018l1.818 0.317 0.713 7.199c0.685 0.136 1.37 0.275 2.056 0.414-1.498-3.873-2.049-7.606-1.187-10.065l-3.638-14.871 2.452-1.74 5.3 13.764 2.452-2.61 3.402-10.363 3.242 1.186-2.927 10.918-3.401 6.089 1.304 4.497 1.387-1.807 6.487-2.137z" fill="#fff" fill-rule="evenodd"/></g><g transform="translate(380.36 510.56)"><path d="m0 0c0-2.551-1.657-4.619-3.701-4.619h-56.858c-2.044 0-3.701 2.068-3.701 4.619v53.797c0 2.551 1.657 4.617 3.701 4.617h56.858c2.044 0 3.701-2.066 3.701-4.617z" fill="none" stroke="#000" stroke-linejoin="round" stroke-width=".75"/></g><g transform="translate(377.15 517.87)"><path d="m0 0v44.051c0 2.297-1.49 4.158-3.332 4.158h-51.171c-1.84 0-3.331-1.861-3.331-4.158v-44.051z" fill="none" stroke="#000" stroke-linejoin="round" stroke-width=".794"/></g><g transform="translate(375.54 514.21)"><path d="m0 0c0-2.168-1.408-3.925-3.144-3.925h-48.33c-1.737 0-3.146 1.757-3.146 3.925v46.498c0 2.168 1.409 3.928 3.146 3.928h48.33c1.736 0 3.144-1.76 3.144-3.928z" fill="#fff"/><path d="m0 0c0-2.168-1.408-3.925-3.144-3.925h-48.33c-1.737 0-3.146 1.757-3.146 3.925v46.498c0 2.168 1.409 3.928 3.146 3.928h48.33c1.736 0 3.144-1.76 3.144-3.928z" fill="none" stroke="#000" stroke-linejoin="round" stroke-width=".75"/></g><g transform="translate(374.18 515.24)"><path d="m0 0c0-2.059-1.338-3.729-2.988-3.729h-45.912c-1.652 0-2.989 1.67-2.989 3.729v44.431c0 2.061 1.337 3.731 2.989 3.731h45.912c1.65 0 2.988-1.67 2.988-3.731z"/></g><g transform="translate(342.38 553.47)"><path d="m0 0v-14.283l1.777-1.724 1.772 1.724v14.283l-1.772 1.722z" fill="#f4901d"/><path d="m0 0v-14.283l1.777-1.724 1.772 1.724v14.283l-1.772 1.722z" fill="none" stroke="#000" stroke-width=".5"/></g><g transform="translate(342.38 535.74)"><path d="m0 0v-14.281l1.777-1.725 1.772 1.725v14.281l-1.772 1.725z" fill="#f4901d"/><path d="m0 0v-14.281l1.777-1.725 1.772 1.725v14.281l-1.772 1.725z" fill="none" stroke="#000" stroke-width=".5"/></g><g transform="translate(364.79 539.18)"><path d="m0 0h-10.703l-1.775-1.724 1.775-1.725h10.703l1.774 1.725z" fill="#f4901d"/><path d="m0 0h-10.703l-1.775-1.724 1.775-1.725h10.703l1.774 1.725z" fill="none" stroke="#000" stroke-width=".5"/></g><g transform="translate(350.54 553.47)"><path d="m0 0v-14.283l1.772-1.724 1.775 1.724v7.14 7.143l-1.775 1.722z" fill="#f4901d"/><path d="m0 0v-14.283l1.772-1.724 1.775 1.724v7.14 7.143l-1.775 1.722z" fill="none" stroke="#000" stroke-width=".5"/></g><g transform="translate(364.79 535.74)"><path d="m0 0v-14.281l1.774-1.725 1.773 1.725v7.14 7.141l-1.773 1.725z" fill="#f4901d"/><path d="m0 0v-14.281l1.774-1.725 1.773 1.725v7.14 7.141l-1.773 1.725z" fill="none" stroke="#000" stroke-width=".5"/></g><g transform="translate(364.79 556.91)"><path d="m0 0h-10.703l-1.775-1.725 1.775-1.722h10.703l1.774 1.722z" fill="#f4901d"/><path d="m0 0h-10.703l-1.775-1.725 1.775-1.722h10.703l1.774 1.722z" fill="none" stroke="#000" stroke-width=".5"/></g><g transform="translate(364.79 521.45)"><path d="m0 0h-10.703l-1.775-1.725 1.775-1.723h10.703l1.774 1.723z" fill="#f4901d"/><path d="m0 0h-10.703l-1.775-1.725 1.775-1.723h10.703l1.774 1.723zm-22.411 14.281v-14.281l1.775-1.725 1.774 1.725v14.281l-1.774 1.725z" fill="none" stroke="#000" stroke-width=".5"/></g><g transform="translate(468.62 573.6)"><path d="m0 0c0-2.551-1.656-4.619-3.701-4.619h-56.857c-2.045 0-3.701 2.068-3.701 4.619v53.797c0 2.551 1.656 4.617 3.701 4.617h56.857c2.045 0 3.701-2.066 3.701-4.617z" fill="none" stroke="#000" stroke-linejoin="round" stroke-width=".75"/></g><g transform="translate(465.41 580.91)"><path d="m0 0v44.051c0 2.297-1.491 4.158-3.332 4.158h-51.172c-1.839 0-3.33-1.861-3.33-4.158v-44.051z" fill="none" stroke="#000" stroke-linejoin="round" stroke-width=".794"/></g><g transform="translate(463.8 577.24)"><path d="m0 0c0-2.168-1.408-3.926-3.144-3.926h-48.33c-1.737 0-3.146 1.758-3.146 3.926v46.498c0 2.168 1.409 3.928 3.146 3.928h48.33c1.736 0 3.144-1.76 3.144-3.928z" fill="#fff"/><path d="m0 0c0-2.168-1.408-3.926-3.144-3.926h-48.33c-1.737 0-3.146 1.758-3.146 3.926v46.498c0 2.168 1.409 3.928 3.146 3.928h48.33c1.736 0 3.144-1.76 3.144-3.928z" fill="none" stroke="#000" stroke-linejoin="round" stroke-width=".75"/></g><g transform="translate(462.44 578.28)"><path d="m0 0c0-2.059-1.338-3.729-2.988-3.729h-45.912c-1.652 0-2.99 1.67-2.99 3.729v44.432c0 2.06 1.338 3.73 2.99 3.73h45.912c1.65 0 2.988-1.67 2.988-3.73z"/></g><g transform="translate(425.81 581.04)"><path d="m0 0c0.359 0.438 0.77 0.912 0.811 1.682v5.629c0 2.453-0.827 2.871-1.633 3.619-1.336 1.242-1.135 3-1.061 5.273 0.205 6.295 0.442 10.088 0.467 15.973 3e-3 0.75 0.611 1.361 1.361 1.361s1.362-0.611 1.362-1.361l0.466-9.549 0.62 0.018c0.099 4.359 0.298 8.759 0.298 13.117 0 0.75 0.612 1.361 1.362 1.361 0.749 0 1.361-0.611 1.361-1.361 0-0.01 0-0.028 4e-3 -0.039l0.187-13.092h0.631c0.176 4.939 0.53 9.99 0.53 14.924 0 0.75 0.611 1.361 1.36 1.361 0.75 0 1.362-0.611 1.362-1.361v-0.018l0.293-14.906h0.825c0.048 4.4 0.097 8.801 0.146 13.203 0.03 0.721 0.637 1.289 1.359 1.289 0.735 0 1.346-0.59 1.362-1.33l0.672-17.557c-6e-3 -0.324 0.285-0.564 0.609-0.564 0.185 0 0.605 0.133 0.93 0.631l3.076 4.459c1.168 1.634 2.72 1.957 4.543 1.269-1.129-2.125-3.459-7.361-5.824-10.299-1.249-1.951-5.428-3.904-5.428-6.412v-5.132c0-1.059 1.041-2.252 0.994-2.188z" fill="#f4901d" fill-rule="evenodd"/></g><g transform="translate(468.62 510.56)"><path d="m0 0c0-2.551-1.656-4.619-3.701-4.619h-56.857c-2.045 0-3.701 2.068-3.701 4.619v53.797c0 2.551 1.656 4.617 3.701 4.617h56.857c2.045 0 3.701-2.066 3.701-4.617z" fill="none" stroke="#000" stroke-linejoin="round" stroke-width=".75"/></g><g transform="translate(465.41 517.87)"><path d="m0 0v44.051c0 2.297-1.491 4.158-3.332 4.158h-51.172c-1.839 0-3.33-1.861-3.33-4.158v-44.051z" fill="none" stroke="#000" stroke-linejoin="round" stroke-width=".794"/></g><g transform="translate(463.8 514.21)"><path d="m0 0c0-2.168-1.408-3.925-3.144-3.925h-48.33c-1.737 0-3.146 1.757-3.146 3.925v46.498c0 2.168 1.409 3.928 3.146 3.928h48.33c1.736 0 3.144-1.76 3.144-3.928z" fill="#fff"/><path d="m0 0c0-2.168-1.408-3.925-3.144-3.925h-48.33c-1.737 0-3.146 1.757-3.146 3.925v46.498c0 2.168 1.409 3.928 3.146 3.928h48.33c1.736 0 3.144-1.76 3.144-3.928z" fill="none" stroke="#000" stroke-linejoin="round" stroke-width=".75"/></g><g transform="translate(462.44 515.24)"><path d="m0 0c0-2.059-1.338-3.729-2.988-3.729h-45.912c-1.652 0-2.99 1.67-2.99 3.729v44.431c0 2.061 1.338 3.731 2.99 3.731h45.912c1.65 0 2.988-1.67 2.988-3.731z"/></g><g transform="translate(438.19 556.92)"><path d="m0 0c-1.569 0-2.848-1.279-2.848-2.847 0-1.569 1.279-2.848 2.848-2.848 1.568 0 2.847 1.279 2.847 2.848 0 1.568-1.279 2.847-2.847 2.847" fill="#fff" fill-rule="evenodd"/></g><g transform="translate(446.82 538.96)"><path d="m0 0-5.975 3.981c-0.275 1.168-1.422 6.349-3.719 7.549-2.275 1.505-10.667-4.678-10.714-4.729v-9.018l1.818 0.317 0.713 7.199c0.683 0.137 1.369 0.275 2.055 0.414-1.498-3.873-2.049-7.605-1.186-10.064l-3.639-14.871 2.452-1.741 5.3 13.764 2.451-2.609 3.403-10.364 3.242 1.186-2.926 10.918-3.402 6.09 1.305 4.496 1.386-1.807 6.487-2.137z" fill="#fff" fill-rule="evenodd"/></g></g><g clip-path="url(#e)"><g transform="translate(532.88 573.6)"><path d="m0 0c0-2.551-1.656-4.619-3.701-4.619h-56.857c-2.044 0-3.702 2.068-3.702 4.619v53.797c0 2.551 1.658 4.617 3.702 4.617h56.857c2.045 0 3.701-2.066 3.701-4.617z" fill="none" stroke="#000" stroke-linejoin="round" stroke-width=".75"/></g></g><g clip-path="url(#d)"><g transform="translate(529.67 580.91)"><path d="m0 0v44.051c0 2.297-1.49 4.158-3.332 4.158h-51.171c-1.838 0-3.331-1.861-3.331-4.158v-44.051z" fill="none" stroke="#000" stroke-linejoin="round" stroke-width=".794"/></g><g transform="translate(528.06 577.24)"><path d="m0 0c0-2.168-1.408-3.926-3.145-3.926h-48.33c-1.736 0-3.144 1.758-3.144 3.926v46.498c0 2.168 1.408 3.928 3.144 3.928h48.33c1.737 0 3.145-1.76 3.145-3.928z" fill="#fff"/><path d="m0 0c0-2.168-1.408-3.926-3.145-3.926h-48.33c-1.736 0-3.144 1.758-3.144 3.926v46.498c0 2.168 1.408 3.928 3.144 3.928h48.33c1.737 0 3.145-1.76 3.145-3.928z" fill="none" stroke="#000" stroke-linejoin="round" stroke-width=".75"/></g><g transform="translate(526.7 578.28)"><path d="m0 0c0-2.059-1.338-3.729-2.989-3.729h-45.912c-1.65 0-2.988 1.67-2.988 3.729v44.432c0 2.06 1.338 3.73 2.988 3.73h45.912c1.651 0 2.989-1.67 2.989-3.73z"/></g><g transform="translate(494.9 616.5)"><path d="m0 0v-14.283l1.777-1.724 1.772 1.724v14.283l-1.772 1.722z" fill="#f4901d"/><path d="m0 0v-14.283l1.777-1.724 1.772 1.724v14.283l-1.772 1.722z" fill="none" stroke="#000" stroke-width=".5"/></g><g transform="translate(494.9 598.77)"><path d="m0 0v-14.28l1.777-1.726 1.772 1.726v14.28l-1.772 1.726z" fill="#f4901d"/><path d="m0 0v-14.28l1.777-1.726 1.772 1.726v14.28l-1.772 1.726z" fill="none" stroke="#000" stroke-width=".5"/></g><g transform="translate(517.31 602.22)"><path d="m0 0h-10.703l-1.775-1.724 1.775-1.725h10.703l1.773 1.725z" fill="#f4901d"/><path d="m0 0h-10.703l-1.775-1.724 1.775-1.725h10.703l1.773 1.725z" fill="none" stroke="#000" stroke-width=".5"/></g><g transform="translate(503.06 616.5)"><path d="m0 0v-14.283l1.772-1.724 1.775 1.724v7.139 7.144l-1.775 1.722z" fill="#f4901d"/><path d="m0 0v-14.283l1.772-1.724 1.775 1.724v7.139 7.144l-1.775 1.722z" fill="none" stroke="#000" stroke-width=".5"/></g><g transform="translate(517.31 598.77)"><path d="m0 0v-14.28l1.773-1.726 1.774 1.726v7.139 7.141l-1.774 1.726z" fill="#f4901d"/><path d="m0 0v-14.28l1.773-1.726 1.774 1.726v7.139 7.141l-1.774 1.726z" fill="none" stroke="#000" stroke-width=".5"/></g><g transform="translate(517.31 619.95)"><path d="m0 0h-10.703l-1.775-1.726 1.775-1.721h10.703l1.773 1.721z" fill="#f4901d"/><path d="m0 0h-10.703l-1.775-1.726 1.775-1.721h10.703l1.773 1.721z" fill="none" stroke="#000" stroke-width=".5"/></g><g transform="translate(517.31 584.49)"><path d="m0 0h-10.703l-1.775-1.726 1.775-1.722h10.703l1.773 1.722z" fill="#f4901d"/><path d="m0 0h-10.703l-1.775-1.726 1.775-1.722h10.703l1.773 1.722zm-22.411 14.28v-14.28l1.775-1.726 1.774 1.726v14.28l-1.774 1.726z" fill="none" stroke="#000" stroke-width=".5"/></g></g><text transform="matrix(1 0 0 -.97143 297.07 599.75)" fill="#000000" font-family="Helvetica" font-size="9.2647px"><tspan x="0 7.2079368 87.718178 94.926117" y="0">OROR</tspan></text><g clip-path="url(#c)"><g transform="translate(412.49 420)"><path d="m0 0c0-2.55-1.657-4.619-3.702-4.619h-56.856c-2.044 0-3.701 2.069-3.701 4.619v53.797c0 2.551 1.657 4.617 3.701 4.617h56.856c2.045 0 3.702-2.066 3.702-4.617z" fill="none" stroke="#000" stroke-linejoin="round" stroke-width=".75"/></g><g transform="translate(409.28 427.31)"><path d="m0 0v44.051c0 2.297-1.491 4.158-3.332 4.158h-51.171c-1.839 0-3.33-1.861-3.33-4.158v-44.051z" fill="none" stroke="#000" stroke-linejoin="round" stroke-width=".794"/></g><g transform="translate(407.67 423.65)"><path d="m0 0c0-2.168-1.408-3.926-3.144-3.926h-48.329c-1.737 0-3.146 1.758-3.146 3.926v46.498c0 2.168 1.409 3.928 3.146 3.928h48.329c1.736 0 3.144-1.76 3.144-3.928z" fill="#fff"/><path d="m0 0c0-2.168-1.408-3.926-3.144-3.926h-48.329c-1.737 0-3.146 1.758-3.146 3.926v46.498c0 2.168 1.409 3.928 3.146 3.928h48.329c1.736 0 3.144-1.76 3.144-3.928z" fill="none" stroke="#000" stroke-linejoin="round" stroke-width=".75"/></g><g transform="translate(406.31 424.68)"><path d="m0 0c0-2.059-1.338-3.729-2.988-3.729h-45.912c-1.651 0-2.989 1.67-2.989 3.729v44.432c0 2.06 1.338 3.73 2.989 3.73h45.912c1.65 0 2.988-1.67 2.988-3.73z"/></g><g transform="translate(369.68 427.44)"><path d="m0 0c0.361 0.437 0.77 0.912 0.811 1.681v5.629c0 2.453-0.827 2.871-1.631 3.619-1.337 1.243-1.135 3-1.062 5.274 0.206 6.295 0.442 10.088 0.467 15.973 3e-3 0.75 0.61 1.361 1.36 1.361s1.364-0.611 1.364-1.361l0.467-9.549 0.617 0.017c0.099 4.36 0.299 8.76 0.299 13.117 0 0.75 0.611 1.362 1.361 1.362s1.361-0.612 1.361-1.362c0-9e-3 0-0.027 4e-3 -0.039l0.188-13.091h0.63c0.178 4.939 0.53 9.99 0.53 14.923 0 0.75 0.611 1.362 1.361 1.362s1.361-0.612 1.361-1.362c0 0 0-0.015 2e-3 -0.017l0.291-14.906h0.827c0.046 4.4 0.097 8.8 0.144 13.203 0.031 0.72 0.637 1.289 1.361 1.289 0.735 0 1.346-0.59 1.36-1.33l0.674-17.557c-6e-3 -0.324 0.283-0.564 0.609-0.564 0.184 0 0.603 0.132 0.93 0.631l3.076 4.458c1.166 1.635 2.721 1.958 4.541 1.27-1.129-2.125-3.457-7.361-5.824-10.299-1.246-1.951-5.428-3.904-5.428-6.412v-5.133c0-1.058 1.041-2.252 0.996-2.187z" fill="#f4901d" fill-rule="evenodd"/></g><g transform="translate(382.06 466.36)"><path d="m0 0c-1.568 0-2.85-1.28-2.85-2.848s1.282-2.848 2.85-2.848 2.846 1.28 2.846 2.848-1.278 2.848-2.846 2.848" fill="#fff" fill-rule="evenodd"/></g><g transform="translate(390.69 448.4)"><path d="m0 0-5.973 3.98c-0.277 1.168-1.422 6.35-3.72 7.549-2.276 1.506-10.666-4.678-10.715-4.729v-9.017l1.818 0.316 0.713 7.2c0.686 0.136 1.371 0.275 2.057 0.414-1.498-3.873-2.049-7.606-1.188-10.065l-3.639-14.871 2.454-1.74 5.298 13.763 2.454-2.609 3.402-10.363 3.242 1.185-2.928 10.918-3.4 6.09 1.303 4.496 1.386-1.806 6.489-2.137z" fill="#fff" fill-rule="evenodd"/></g><g transform="translate(500.75 420)"><path d="m0 0c0-2.55-1.656-4.619-3.701-4.619h-56.857c-2.045 0-3.701 2.069-3.701 4.619v53.797c0 2.551 1.656 4.617 3.701 4.617h56.857c2.045 0 3.701-2.066 3.701-4.617z" fill="none" stroke="#000" stroke-linejoin="round" stroke-width=".75"/></g><g transform="translate(497.54 427.31)"><path d="m0 0v44.051c0 2.297-1.49 4.158-3.332 4.158h-51.171c-1.84 0-3.33-1.861-3.33-4.158v-44.051z" fill="none" stroke="#000" stroke-linejoin="round" stroke-width=".794"/></g><g transform="translate(495.93 423.65)"><path d="m0 0c0-2.168-1.408-3.926-3.144-3.926h-48.331c-1.736 0-3.146 1.758-3.146 3.926v46.498c0 2.168 1.41 3.928 3.146 3.928h48.331c1.736 0 3.144-1.76 3.144-3.928z" fill="#fff"/><path d="m0 0c0-2.168-1.408-3.926-3.144-3.926h-48.331c-1.736 0-3.146 1.758-3.146 3.926v46.498c0 2.168 1.41 3.928 3.146 3.928h48.331c1.736 0 3.144-1.76 3.144-3.928z" fill="none" stroke="#000" stroke-linejoin="round" stroke-width=".75"/></g><g transform="translate(494.57 424.68)"><path d="m0 0c0-2.059-1.338-3.729-2.988-3.729h-45.913c-1.652 0-2.99 1.67-2.99 3.729v44.432c0 2.06 1.338 3.73 2.99 3.73h45.913c1.65 0 2.988-1.67 2.988-3.73z"/></g><g transform="translate(457.94 427.44)"><path d="m0 0c0.359 0.437 0.769 0.912 0.81 1.681v5.629c0 2.453-0.826 2.871-1.632 3.619-1.336 1.243-1.135 3-1.061 5.274 0.205 6.295 0.441 10.088 0.467 15.973 2e-3 0.75 0.611 1.361 1.361 1.361s1.362-0.611 1.362-1.361l0.466-9.549 0.619 0.017c0.1 4.36 0.299 8.76 0.299 13.117 0 0.75 0.612 1.362 1.362 1.362 0.748 0 1.361-0.612 1.361-1.362 0-9e-3 0-0.027 4e-3 -0.039l0.187-13.091h0.631c0.176 4.939 0.53 9.99 0.53 14.923 0 0.75 0.611 1.362 1.359 1.362 0.75 0 1.363-0.612 1.363-1.362v-0.017l0.293-14.906h0.824c0.049 4.4 0.098 8.8 0.147 13.203 0.029 0.72 0.637 1.289 1.359 1.289 0.735 0 1.346-0.59 1.362-1.33l0.671-17.557c-5e-3 -0.324 0.286-0.564 0.61-0.564 0.185 0 0.605 0.132 0.929 0.631l3.077 4.458c1.168 1.635 2.72 1.958 4.543 1.27-1.129-2.125-3.459-7.361-5.825-10.299-1.248-1.951-5.427-3.904-5.427-6.412v-5.133c0-1.058 1.041-2.252 0.994-2.187z" fill="#f4901d" fill-rule="evenodd"/></g></g><g clip-path="url(#b)"><g transform="translate(500.75 356.97)"><path d="m0 0c0-2.551-1.656-4.619-3.701-4.619h-56.857c-2.045 0-3.701 2.068-3.701 4.619v53.796c0 2.551 1.656 4.618 3.701 4.618h56.857c2.045 0 3.701-2.067 3.701-4.618z" fill="none" stroke="#000" stroke-linejoin="round" stroke-width=".75"/></g></g><g clip-path="url(#a)"><g transform="translate(497.54 364.28)"><path d="m0 0v44.049c0 2.297-1.49 4.159-3.332 4.159h-51.171c-1.84 0-3.33-1.862-3.33-4.159v-44.049z" fill="none" stroke="#000" stroke-linejoin="round" stroke-width=".794"/></g><g transform="translate(495.93 360.62)"><path d="m0 0c0-2.168-1.408-3.926-3.144-3.926h-48.331c-1.736 0-3.146 1.758-3.146 3.926v46.497c0 2.169 1.41 3.927 3.146 3.927h48.331c1.736 0 3.144-1.758 3.144-3.927z" fill="#fff"/><path d="m0 0c0-2.168-1.408-3.926-3.144-3.926h-48.331c-1.736 0-3.146 1.758-3.146 3.926v46.497c0 2.169 1.41 3.927 3.146 3.927h48.331c1.736 0 3.144-1.758 3.144-3.927z" fill="none" stroke="#000" stroke-linejoin="round" stroke-width=".75"/></g><g transform="translate(494.57 361.65)"><path d="m0 0c0-2.059-1.338-3.729-2.988-3.729h-45.913c-1.652 0-2.99 1.67-2.99 3.729v44.43c0 2.061 1.338 3.731 2.99 3.731h45.913c1.65 0 2.988-1.67 2.988-3.731z"/></g><g transform="translate(470.32 403.33)"><path d="m0 0c-1.569 0-2.848-1.28-2.848-2.847 0-1.569 1.279-2.849 2.848-2.849 1.568 0 2.847 1.28 2.847 2.849 0 1.567-1.279 2.847-2.847 2.847" fill="#fff" fill-rule="evenodd"/></g><g transform="translate(478.95 385.37)"><path d="m0 0-5.975 3.981c-0.275 1.167-1.422 6.349-3.719 7.548-2.275 1.506-10.668-4.677-10.714-4.728v-9.017l1.818 0.316 0.713 7.199c0.683 0.137 1.369 0.276 2.054 0.413-1.498-3.873-2.048-7.605-1.185-10.064l-3.639-14.871 2.451-1.74 5.301 13.763 2.451-2.609 3.403-10.363 3.242 1.186-2.926 10.917-3.402 6.09 1.304 4.496 1.387-1.807 6.487-2.135z" fill="#fff" fill-rule="evenodd"/></g><g transform="translate(324.23 402.71)"><path d="m0 0c0-2.552-1.658-4.619-3.703-4.619h-82.807c-2.045 0-3.701 2.067-3.701 4.619v71.09c0 2.551 1.656 4.619 3.701 4.619h82.807c2.045 0 3.703-2.068 3.703-4.619z" fill="none" stroke="#000" stroke-width=".75"/></g><g transform="translate(321.02 410.02)"><path d="m0 0v61.344c0 2.297-1.49 4.157-3.33 4.157h-77.123c-1.84 0-3.33-1.86-3.33-4.157v-61.344z" fill="none" stroke="#000" stroke-linejoin="round" stroke-width=".794"/></g><g transform="translate(319.41 406.35)"><path d="m0 0c0-2.166-1.409-3.924-3.147-3.924h-74.279c-1.739 0-3.147 1.758-3.147 3.924v63.795c0 2.168 1.408 3.926 3.147 3.926h74.279c1.738 0 3.147-1.758 3.147-3.926z" fill="#fff"/><path d="m0 0c0-2.166-1.409-3.924-3.147-3.924h-74.279c-1.739 0-3.147 1.758-3.147 3.924v63.795c0 2.168 1.408 3.926 3.147 3.926h74.279c1.738 0 3.147-1.758 3.147-3.926z" fill="none" stroke="#000" stroke-linejoin="round" stroke-width=".75"/></g><g transform="translate(318.05 407.39)"><path d="m0 0c0-2.06-1.338-3.73-2.988-3.73h-71.865c-1.651 0-2.987 1.67-2.987 3.73v61.725c0 2.06 1.336 3.73 2.987 3.73h71.865c1.65 0 2.988-1.67 2.988-3.73z"/></g><g transform="translate(250.78 418.01)"><path d="m0 0c0.375 0.455 0.8 0.949 0.844 1.749v5.86c0 2.55-0.86 2.985-1.699 3.765-1.39 1.291-1.181 3.121-1.103 5.486 0.213 6.55 0.459 10.498 0.485 16.618 3e-3 0.78 0.636 1.417 1.417 1.417 0.78 0 1.417-0.637 1.417-1.417l0.486-9.934 0.644 0.016c0.102 4.537 0.31 9.115 0.31 13.65 0 0.78 0.636 1.416 1.416 1.416s1.416-0.636 1.416-1.416c0-0.012 0-0.028 4e-3 -0.041l0.195-13.622h0.657c0.184 5.14 0.551 10.395 0.551 15.528 0 0.781 0.636 1.416 1.415 1.416 0.781 0 1.418-0.635 1.418-1.416v-0.018l0.304-15.51h0.86c0.049 4.579 0.1 9.158 0.15 13.737 0.032 0.75 0.663 1.342 1.415 1.342 0.764 0 1.4-0.614 1.417-1.383l0.699-18.266c-5e-3 -0.337 0.296-0.588 0.634-0.588 0.191 0 0.628 0.136 0.967 0.656l3.201 4.638c1.213 1.702 2.83 2.038 4.726 1.321-1.175-2.209-3.599-7.657-6.06-10.716-1.297-2.028-5.648-4.06-5.648-6.671v-5.341c0-1.099 1.084-2.341 1.036-2.276z" fill="#f4901d" fill-rule="evenodd"/></g><g transform="translate(300.53 458.5)"><path d="m0 0c-1.632 0-2.963-1.332-2.963-2.962 0-1.633 1.331-2.963 2.963-2.963 1.631 0 2.962 1.33 2.962 2.963 0 1.63-1.331 2.962-2.962 2.962" fill="#fff" fill-rule="evenodd"/></g><g transform="translate(309.5 439.82)"><path d="m0 0-6.216 4.141c-0.287 1.214-1.478 6.606-3.869 7.855-2.369 1.566-11.1-4.867-11.15-4.92v-9.383l1.893 0.33 0.741 7.49c0.713 0.142 1.426 0.288 2.14 0.43-1.558-4.029-2.132-7.914-1.235-10.472l-3.786-15.473 2.552-1.811 5.515 14.322 2.55-2.716 3.54-10.782 3.374 1.234-3.045 11.358-3.539 6.337 1.356 4.679 1.442-1.881 6.749-2.222z" fill="#fff" fill-rule="evenodd"/></g></g><text transform="matrix(1 0 0 -.97143 329.35 446.16)" fill="#000000" font-family="Helvetica" font-size="9.2647px"><tspan x="0 7.2079368 87.551414 94.759354" y="0">OROR</tspan></text></g></svg>
