<?xml version="1.0" encoding="UTF-8"?>
<svg width="286.21pt" height="216.81pt" version="1.2" viewBox="0 0 286.21 216.81" xmlns="http://www.w3.org/2000/svg" xmlns:xlink="http://www.w3.org/1999/xlink"><defs><symbol id="aa" overflow="visible"><path d="m2.7344-2.7188h1.8281l-0.90625-2.8281zm0.09375-4.4844h1.6875l2.5625 7.2031h-1.6406l-0.46875-1.4844h-2.6406l-0.5 1.4844h-1.5781z"/></symbol><symbol id="a" overflow="visible"></symbol><symbol id="n" overflow="visible"><path d="m0.23438-3.4531h2.7969v1.3281h-2.7969z"/></symbol><symbol id="t" overflow="visible"><path d="m4.9688-7.2031h1.5625l-2.4531 7.2031h-1.4219l-2.4219-7.2031h1.6094l1.5625 5.4688z"/></symbol><symbol id="g" overflow="visible"><path d="m2.75-4.3125c-0.32422 0-0.57422 0.10156-0.75 0.29688-0.17969 0.19922-0.28906 0.47656-0.32812 0.82812h2.1562c-0.023437-0.375-0.13672-0.65625-0.34375-0.84375-0.19922-0.1875-0.44531-0.28125-0.73438-0.28125zm0-1.1562c0.4375 0 0.83203 0.085937 1.1875 0.25 0.36328 0.16797 0.66016 0.43359 0.89062 0.79688 0.20703 0.3125 0.34375 0.67969 0.40625 1.0938 0.03125 0.24219 0.046875 0.58984 0.046875 1.0469h-3.6562c0.019531 0.54297 0.19141 0.91797 0.51562 1.125 0.1875 0.13672 0.41406 0.20312 0.6875 0.20312 0.28125 0 0.51562-0.082031 0.70312-0.25 0.09375-0.082031 0.17578-0.20312 0.25-0.35938h1.4219c-0.03125 0.3125-0.19531 0.63672-0.48438 0.96875-0.46094 0.51172-1.1016 0.76562-1.9219 0.76562-0.67969 0-1.2773-0.21875-1.7969-0.65625-0.51172-0.4375-0.76562-1.1445-0.76562-2.125 0-0.91406 0.22656-1.6172 0.6875-2.1094 0.46875-0.5 1.0781-0.75 1.8281-0.75z"/></symbol><symbol id="o" overflow="visible"><path d="m3.5469-5.4531c0.019531 0 0.039063 0.00781 0.0625 0.015625h0.10938v1.4219c-0.085937-0.007813-0.16406-0.015625-0.23438-0.015625h-0.15625c-0.5625 0-0.9375 0.18359-1.125 0.54688-0.11719 0.19922-0.17188 0.51172-0.17188 0.9375v2.5469h-1.3906v-5.3281h1.3281v0.9375c0.20703-0.35156 0.39453-0.59766 0.5625-0.73438 0.25781-0.21875 0.59766-0.32812 1.0156-0.32812z"/></symbol><symbol id="l" overflow="visible"><path d="m0.10938-4.2812v-1h0.73438v-1.4844h1.375v1.4844h0.875v1h-0.875v2.8125c0 0.21875 0.023438 0.35547 0.078125 0.40625 0.0625 0.054687 0.23438 0.078125 0.51562 0.078125h0.125 0.15625v1.0312l-0.67188 0.03125c-0.65625 0.019531-1.1055-0.09375-1.3438-0.34375-0.15625-0.16406-0.23438-0.41016-0.23438-0.73438v-3.2812z"/></symbol><symbol id="f" overflow="visible"><path d="m2.0781-5.9531h-1.4062v-1.2812h1.4062zm-1.4062 0.625h1.4062v5.3281h-1.4062z"/></symbol><symbol id="k" overflow="visible"><path d="m3.8281-3.4062c-0.023437-0.20703-0.089844-0.39062-0.20312-0.54688-0.15625-0.20703-0.39844-0.3125-0.71875-0.3125-0.46875 0-0.79297 0.23047-0.96875 0.6875-0.09375 0.25-0.14062 0.57812-0.14062 0.98438 0 0.39844 0.046875 0.71484 0.14062 0.95312 0.16406 0.4375 0.47656 0.65625 0.9375 0.65625 0.32031 0 0.55078-0.085938 0.6875-0.26562 0.14453-0.17578 0.22656-0.39844 0.25-0.67188h1.4219c-0.03125 0.41797-0.18359 0.8125-0.45312 1.1875-0.4375 0.61719-1.0859 0.92188-1.9375 0.92188-0.85547 0-1.4844-0.25391-1.8906-0.76562-0.40625-0.50781-0.60938-1.1641-0.60938-1.9688 0-0.91406 0.22266-1.6289 0.67188-2.1406 0.44531-0.50781 1.0625-0.76562 1.8438-0.76562 0.66406 0 1.2109 0.15234 1.6406 0.45312 0.42578 0.30469 0.67578 0.83594 0.75 1.5938z"/></symbol><symbol id="j" overflow="visible"><path d="m3.5781-2.5938c-0.085937 0.0625-0.17188 0.10938-0.26562 0.14062-0.085937 0.03125-0.20312 0.0625-0.35938 0.09375l-0.3125 0.0625c-0.29297 0.054687-0.50781 0.11719-0.64062 0.1875-0.21094 0.125-0.3125 0.32422-0.3125 0.59375 0 0.24219 0.0625 0.41406 0.1875 0.51562 0.13281 0.10547 0.29688 0.15625 0.48438 0.15625 0.30078 0 0.57812-0.085938 0.82812-0.26562 0.25-0.17578 0.37891-0.5 0.39062-0.96875zm-0.84375-0.64062c0.25781-0.03125 0.44531-0.070313 0.5625-0.125 0.19531-0.082031 0.29688-0.21094 0.29688-0.39062 0-0.21875-0.078125-0.36719-0.23438-0.45312-0.14844-0.082031-0.36719-0.125-0.65625-0.125-0.33594 0-0.57031 0.078125-0.70312 0.23438-0.10547 0.125-0.17188 0.29297-0.20312 0.5h-1.3438c0.03125-0.46875 0.16016-0.85156 0.39062-1.1562 0.375-0.46875 1.0078-0.70312 1.9062-0.70312 0.58203 0 1.0977 0.11719 1.5469 0.34375 0.44531 0.24219 0.67188 0.67969 0.67188 1.3125v2.4375c0 0.17969 0.00391 0.38672 0.015625 0.625 0.00781 0.17969 0.035156 0.30469 0.078125 0.375 0.050781 0.0625 0.125 0.11719 0.21875 0.15625v0.20312h-1.5156c-0.042969-0.10156-0.074219-0.20312-0.09375-0.29688-0.023437-0.09375-0.03125-0.20312-0.03125-0.32812-0.19922 0.21094-0.42188 0.38672-0.67188 0.53125-0.30469 0.17578-0.64062 0.26562-1.0156 0.26562-0.48047 0-0.88281-0.13672-1.2031-0.40625-0.3125-0.28125-0.46875-0.67578-0.46875-1.1875 0-0.64453 0.25391-1.1172 0.76562-1.4219 0.26953-0.15625 0.67578-0.26562 1.2188-0.32812z"/></symbol><symbol id="m" overflow="visible"><path d="m2.0781 0h-1.4062v-7.2031h1.4062z"/></symbol><symbol id="i" overflow="visible"><path d="m1.7344-1.7031c0.03125 0.25 0.09375 0.42969 0.1875 0.53125 0.17578 0.1875 0.49219 0.28125 0.95312 0.28125 0.28125 0 0.5-0.039063 0.65625-0.125 0.16406-0.082031 0.25-0.20312 0.25-0.35938s-0.070312-0.27344-0.20312-0.35938c-0.125-0.082031-0.60938-0.22266-1.4531-0.42188-0.60547-0.15625-1.0273-0.34375-1.2656-0.5625-0.25-0.21875-0.375-0.53516-0.375-0.95312 0-0.5 0.19141-0.92188 0.57812-1.2656 0.38281-0.35156 0.92578-0.53125 1.625-0.53125 0.66406 0 1.207 0.13672 1.625 0.40625 0.41406 0.26172 0.65625 0.71484 0.71875 1.3594h-1.3906c-0.023437-0.17578-0.074219-0.31641-0.15625-0.42188-0.14844-0.1875-0.40625-0.28125-0.78125-0.28125-0.30469 0-0.51562 0.046875-0.64062 0.14062s-0.1875 0.20312-0.1875 0.32812c0 0.15625 0.066406 0.27344 0.20312 0.34375 0.13281 0.074219 0.61719 0.20312 1.4531 0.39062 0.55078 0.125 0.96094 0.32422 1.2344 0.59375 0.28125 0.26172 0.42188 0.59375 0.42188 1 0 0.52344-0.19922 0.95312-0.59375 1.2969-0.39844 0.33203-1 0.5-1.8125 0.5-0.84375 0-1.4648-0.17969-1.8594-0.53125-0.39844-0.35156-0.59375-0.80469-0.59375-1.3594z"/></symbol><symbol id="q" overflow="visible"><path d="m2.9375-1.1406c0.32031 0 0.59375-0.11719 0.8125-0.35938 0.22656-0.25 0.34375-0.64453 0.34375-1.1875 0-0.5-0.10938-0.87891-0.32812-1.1406-0.21094-0.26953-0.49219-0.40625-0.84375-0.40625-0.49219 0-0.82812 0.23047-1.0156 0.6875-0.09375 0.25-0.14062 0.55469-0.14062 0.90625 0 0.3125 0.050781 0.58984 0.15625 0.82812 0.1875 0.44922 0.52344 0.67188 1.0156 0.67188zm-0.34375-4.3125c0.25781 0 0.48828 0.042969 0.6875 0.125 0.34375 0.13672 0.61719 0.39062 0.82812 0.76562v-0.76562h1.3438v5.0469c0 0.6875-0.11719 1.207-0.34375 1.5625-0.39844 0.59375-1.1562 0.89062-2.2812 0.89062-0.67969 0-1.2344-0.13672-1.6719-0.40625-0.42969-0.26172-0.66406-0.65625-0.70312-1.1875h1.5156c0.03125 0.16406 0.09375 0.28516 0.1875 0.35938 0.14453 0.125 0.39453 0.1875 0.75 0.1875 0.5 0 0.83594-0.16797 1.0156-0.5 0.10156-0.21875 0.15625-0.58594 0.15625-1.0938v-0.34375c-0.13672 0.23047-0.27734 0.40234-0.42188 0.51562-0.28125 0.21875-0.64062 0.32812-1.0781 0.32812-0.6875 0-1.2344-0.23828-1.6406-0.71875-0.40625-0.48828-0.60938-1.1406-0.60938-1.9531 0-0.78906 0.19141-1.457 0.57812-2 0.39453-0.53906 0.95703-0.8125 1.6875-0.8125z"/></symbol><symbol id="d" overflow="visible"><path d="m3.5938-5.4531c0.55078 0 1 0.14844 1.3438 0.4375 0.35156 0.29297 0.53125 0.77344 0.53125 1.4375v3.5781h-1.4219v-3.2344c0-0.28125-0.039062-0.49219-0.10938-0.64062-0.13672-0.28125-0.39844-0.42188-0.78125-0.42188-0.46875 0-0.79297 0.20312-0.96875 0.60938-0.09375 0.21094-0.14062 0.48047-0.14062 0.8125v2.875h-1.3906v-5.3125h1.3438v0.78125c0.17578-0.28125 0.34766-0.47656 0.51562-0.59375 0.28125-0.21875 0.64062-0.32812 1.0781-0.32812z"/></symbol><symbol id="p" overflow="visible"><path d="m2.6094-7.2656c0.09375 0 0.17188 0.00781 0.23438 0.015625 0.070313 0 0.17188 0.00781 0.29688 0.015625v1.125c-0.074219-0.007813-0.20312-0.015625-0.39062-0.015625-0.1875-0.007813-0.32031 0.03125-0.39062 0.125-0.0625 0.085937-0.09375 0.17969-0.09375 0.28125v0.4375h0.90625v0.98438h-0.90625v4.2969h-1.3906v-4.2969h-0.76562v-0.98438h0.75v-0.32812c0-0.57031 0.097656-0.96875 0.29688-1.1875 0.19531-0.3125 0.67969-0.46875 1.4531-0.46875z"/></symbol><symbol id="z" overflow="visible"><path d="m2.2188-5.9531v1.5938h1.7656c0.32031 0 0.57812-0.054688 0.76562-0.17188 0.19531-0.125 0.29688-0.33594 0.29688-0.64062 0-0.33203-0.13281-0.55078-0.39062-0.65625-0.21875-0.082031-0.50781-0.125-0.85938-0.125zm0 2.7812v1.9219h1.7656c0.32031 0 0.57031-0.039063 0.75-0.125 0.3125-0.15625 0.46875-0.45703 0.46875-0.90625 0-0.375-0.15625-0.62891-0.46875-0.76562-0.16797-0.082031-0.40625-0.125-0.71875-0.125zm2.0625-4.0312c0.88281 0.023437 1.5078 0.27734 1.875 0.76562 0.21875 0.3125 0.32812 0.68359 0.32812 1.1094 0 0.4375-0.10938 0.79297-0.32812 1.0625-0.125 0.14844-0.30859 0.28125-0.54688 0.40625 0.36328 0.13672 0.64062 0.35156 0.82812 0.64062 0.1875 0.28125 0.28125 0.63281 0.28125 1.0469 0 0.42969-0.10547 0.80859-0.3125 1.1406-0.13672 0.23047-0.30859 0.42188-0.51562 0.57812-0.23047 0.16797-0.50781 0.28906-0.82812 0.35938-0.3125 0.0625-0.65234 0.09375-1.0156 0.09375h-3.2656v-7.2031z"/></symbol><symbol id="y" overflow="visible"><path d="m0.75 0v-7.2031h1.4844v2.75h2.8125v-2.75h1.5v7.2031h-1.5v-3.2188h-2.8125v3.2188z"/></symbol><symbol id="h" overflow="visible"><path d="m3.0312-0.98438c0.40625 0 0.71875-0.14062 0.9375-0.42188 0.21875-0.28906 0.32812-0.70703 0.32812-1.25 0-0.53125-0.10938-0.9375-0.32812-1.2188-0.21875-0.28906-0.53125-0.4375-0.9375-0.4375s-0.71875 0.14844-0.9375 0.4375c-0.21875 0.28125-0.32812 0.6875-0.32812 1.2188 0 0.54297 0.10938 0.96094 0.32812 1.25 0.21875 0.28125 0.53125 0.42188 0.9375 0.42188zm2.7344-1.6719c0 0.78125-0.22656 1.4531-0.67188 2.0156-0.44922 0.55469-1.1328 0.82812-2.0469 0.82812-0.91797 0-1.6016-0.27344-2.0469-0.82812-0.44922-0.5625-0.67188-1.2344-0.67188-2.0156 0-0.75781 0.22266-1.4219 0.67188-1.9844 0.44531-0.57031 1.1289-0.85938 2.0469-0.85938 0.91406 0 1.5977 0.28906 2.0469 0.85938 0.44531 0.5625 0.67188 1.2266 0.67188 1.9844z"/></symbol><symbol id="x" overflow="visible"><path d="m0.34375-4.1875v-1.1406h4.3125v1.1562l-2.6875 3.0312h2.7812v1.1406h-4.5938v-1.0781l2.7344-3.1094z"/></symbol><symbol id="w" overflow="visible"><path d="m0.45312-3.5469c0-1.25 0.33203-2.2188 1-2.9062 0.59375-0.58203 1.3438-0.875 2.25-0.875 1.207 0 2.0938 0.39844 2.6562 1.1875 0.30078 0.44922 0.46094 0.89844 0.48438 1.3438h-1.5c-0.09375-0.34375-0.21875-0.60156-0.375-0.78125-0.27344-0.3125-0.67969-0.46875-1.2188-0.46875-0.54297 0-0.97656 0.21875-1.2969 0.65625-0.3125 0.4375-0.46875 1.0625-0.46875 1.875 0 0.80469 0.16406 1.4062 0.5 1.8125 0.33203 0.40625 0.75781 0.60938 1.2812 0.60938 0.51953 0 0.92188-0.17188 1.2031-0.51562 0.15625-0.1875 0.28125-0.46875 0.375-0.84375h1.5c-0.13672 0.78125-0.47656 1.4219-1.0156 1.9219-0.53125 0.49219-1.2148 0.73438-2.0469 0.73438-1.0312 0-1.8438-0.33203-2.4375-1-0.59375-0.66406-0.89062-1.582-0.89062-2.75z"/></symbol><symbol id="v" overflow="visible"><path d="m1.8438-2.2188c0.050781 0.32422 0.14453 0.57031 0.28125 0.73438 0.23828 0.29297 0.65625 0.4375 1.25 0.4375 0.35156 0 0.64062-0.035156 0.85938-0.10938 0.42578-0.14453 0.64062-0.42578 0.64062-0.84375 0-0.22656-0.10547-0.41016-0.3125-0.54688-0.21094-0.125-0.53906-0.23438-0.98438-0.32812l-0.76562-0.17188c-0.75-0.17578-1.2656-0.36328-1.5469-0.5625-0.49219-0.33203-0.73438-0.84766-0.73438-1.5469 0-0.64453 0.23438-1.1797 0.70312-1.6094 0.46875-0.42578 1.1562-0.64062 2.0625-0.64062 0.75781 0 1.4062 0.20312 1.9375 0.60938 0.53906 0.39844 0.82031 0.98047 0.84375 1.75h-1.4375c-0.03125-0.4375-0.21875-0.75-0.5625-0.9375-0.24219-0.11328-0.53125-0.17188-0.875-0.17188-0.38672 0-0.69922 0.078125-0.9375 0.23438-0.23047 0.15625-0.34375 0.375-0.34375 0.65625 0 0.25 0.11328 0.44531 0.34375 0.57812 0.14453 0.085937 0.45703 0.18359 0.9375 0.29688l1.2344 0.29688c0.55078 0.125 0.96094 0.29688 1.2344 0.51562 0.42578 0.34375 0.64062 0.83594 0.64062 1.4688 0 0.65625-0.25 1.2031-0.75 1.6406s-1.2109 0.65625-2.125 0.65625c-0.9375 0-1.6797-0.21094-2.2188-0.64062-0.53125-0.42578-0.79688-1.0156-0.79688-1.7656z"/></symbol><symbol id="s" overflow="visible"><path d="m2.0312-5.3281v3.2188c0 0.30469 0.035156 0.52734 0.10938 0.67188 0.125 0.27344 0.375 0.40625 0.75 0.40625 0.47656 0 0.80469-0.19141 0.98438-0.57812 0.082031-0.20703 0.125-0.47656 0.125-0.8125v-2.9062h1.4219v5.3281h-1.3594v-0.75c-0.011719 0.011719-0.042969 0.058594-0.09375 0.14062-0.054687 0.085937-0.11719 0.15625-0.1875 0.21875-0.21875 0.19922-0.43359 0.33594-0.64062 0.40625-0.19922 0.070312-0.43359 0.10938-0.70312 0.10938-0.79297 0-1.3242-0.28516-1.5938-0.85938-0.15625-0.3125-0.23438-0.76953-0.23438-1.375v-3.2188z"/></symbol><symbol id="r" overflow="visible"><path d="m6.5938-5.4375c0.23828 0 0.46875 0.046875 0.6875 0.14062 0.22656 0.085937 0.4375 0.24219 0.625 0.46875 0.15625 0.1875 0.25781 0.41797 0.3125 0.6875 0.03125 0.17969 0.046875 0.4375 0.046875 0.78125l-0.015625 3.3594h-1.4219v-3.3906c0-0.19531-0.03125-0.36328-0.09375-0.5-0.125-0.25-0.35547-0.375-0.6875-0.375-0.38672 0-0.65234 0.16406-0.79688 0.48438-0.074219 0.16797-0.10938 0.37109-0.10938 0.60938v3.1719h-1.4062v-3.1719c0-0.3125-0.03125-0.53906-0.09375-0.6875-0.11719-0.25781-0.34375-0.39062-0.6875-0.39062-0.39844 0-0.66406 0.13281-0.79688 0.39062-0.085937 0.14844-0.125 0.36719-0.125 0.65625v3.2031h-1.4062v-5.3125h1.3594v0.78125c0.16406-0.28125 0.32812-0.47656 0.48438-0.59375 0.26953-0.20703 0.61719-0.3125 1.0469-0.3125 0.40625 0 0.73438 0.089844 0.98438 0.26562 0.20703 0.16797 0.36328 0.38281 0.46875 0.64062 0.17578-0.3125 0.39844-0.53906 0.67188-0.6875 0.28125-0.14453 0.59766-0.21875 0.95312-0.21875z"/></symbol><symbol id="u" overflow="visible"><path d="m3.9375-5.3281h1.4844l-1.9219 5.3281h-1.4688l-1.9062-5.3281h1.5625l1.1094 3.9375z"/></symbol><symbol id="b" overflow="visible"><path d="m2.0469-5.3594v1.75h1.5312c0.30078 0 0.53125-0.035156 0.6875-0.10938 0.25781-0.125 0.39062-0.36719 0.39062-0.73438 0-0.38281-0.13281-0.64453-0.39062-0.78125-0.14844-0.082031-0.36719-0.125-0.65625-0.125zm1.8438-1.125c0.45703 0.011719 0.80469 0.070312 1.0469 0.17188 0.25 0.10547 0.45703 0.25781 0.625 0.45312 0.14453 0.16797 0.25391 0.35156 0.32812 0.54688 0.082031 0.19922 0.125 0.42969 0.125 0.6875 0 0.30469-0.078125 0.60547-0.23438 0.90625-0.14844 0.29297-0.40234 0.5-0.76562 0.625 0.30078 0.125 0.51562 0.29688 0.64062 0.51562s0.1875 0.55859 0.1875 1.0156v0.42188c0 0.30469 0.00781 0.50781 0.03125 0.60938 0.03125 0.16797 0.11328 0.29297 0.25 0.375v0.15625h-1.5c-0.03125-0.14453-0.058594-0.25781-0.078125-0.34375-0.042969-0.1875-0.0625-0.375-0.0625-0.5625v-0.59375c-0.011719-0.41406-0.089844-0.69141-0.23438-0.82812-0.14844-0.14453-0.41797-0.21875-0.8125-0.21875h-1.3906v2.5469h-1.3281v-6.4844z"/></symbol><symbol id="e" overflow="visible"><path d="m4.375-6.4844h1.5469l-2.1719 4.0469v2.4375h-1.3594v-2.4375l-2.2344-4.0469h1.5938l1.3438 2.8281z"/></symbol><symbol id="c" overflow="visible"><path d="m5.0469-4.4531c-0.10547-0.44531-0.35547-0.75781-0.75-0.9375-0.23047-0.09375-0.48047-0.14062-0.75-0.14062-0.52344 0-0.94922 0.19922-1.2812 0.59375-0.33594 0.39844-0.5 0.99219-0.5 1.7812 0 0.79297 0.17578 1.3555 0.53125 1.6875 0.36328 0.33594 0.78125 0.5 1.25 0.5 0.44531 0 0.81641-0.12891 1.1094-0.39062 0.28906-0.26953 0.46875-0.61328 0.53125-1.0312h-1.4844v-1.0781h2.6875v3.4688h-0.89062l-0.14062-0.8125c-0.26172 0.3125-0.49609 0.53125-0.70312 0.65625-0.35547 0.21875-0.79297 0.32812-1.3125 0.32812-0.86719 0-1.5703-0.29688-2.1094-0.89062-0.57422-0.60156-0.85938-1.4219-0.85938-2.4531 0-1.0508 0.28516-1.8945 0.85938-2.5312 0.58203-0.625 1.3477-0.9375 2.2969-0.9375 0.82031 0 1.4844 0.21094 1.9844 0.625 0.5 0.41797 0.78516 0.9375 0.85938 1.5625z"/></symbol></defs><g transform="translate(-162.89 -89.256)"><g><g fill="#211e1e"><use x="250.3213" y="96.522003" width="100%" height="100%" xlink:href="#aa"/><use x="257.17731" y="96.522003" width="100%" height="100%" xlink:href="#a"/><use x="259.95731" y="96.522003" width="100%" height="100%" xlink:href="#n"/><use x="263.28729" y="96.522003" width="100%" height="100%" xlink:href="#a"/><use x="266.06729" y="96.522003" width="100%" height="100%" xlink:href="#t"/><use x="272.18631" y="96.522003" width="100%" height="100%" xlink:href="#g"/><use x="277.74631" y="96.522003" width="100%" height="100%" xlink:href="#o"/><use x="281.63629" y="96.522003" width="100%" height="100%" xlink:href="#l"/><use x="284.96631" y="96.522003" width="100%" height="100%" xlink:href="#f"/><use x="287.74631" y="96.522003" width="100%" height="100%" xlink:href="#k"/><use x="293.3063" y="96.522003" width="100%" height="100%" xlink:href="#j"/><use x="298.8663" y="96.522003" width="100%" height="100%" xlink:href="#m"/><use x="301.6463" y="96.522003" width="100%" height="100%" xlink:href="#a"/><use x="304.4263" y="96.522003" width="100%" height="100%" xlink:href="#i"/><use x="309.9863" y="96.522003" width="100%" height="100%" xlink:href="#f"/><use x="312.7663" y="96.522003" width="100%" height="100%" xlink:href="#q"/><use x="318.87631" y="96.522003" width="100%" height="100%" xlink:href="#d"/><use x="324.9863" y="96.522003" width="100%" height="100%" xlink:href="#j"/><use x="330.5463" y="96.522003" width="100%" height="100%" xlink:href="#m"/><use x="333.32629" y="96.522003" width="100%" height="100%" xlink:href="#a"/><use x="336.10629" y="96.522003" width="100%" height="100%" xlink:href="#p"/><use x="339.43631" y="96.522003" width="100%" height="100%" xlink:href="#j"/><use x="344.99631" y="96.522003" width="100%" height="100%" xlink:href="#k"/><use x="350.5563" y="96.522003" width="100%" height="100%" xlink:href="#g"/><use x="356.1163" y="96.522003" width="100%" height="100%" xlink:href="#i"/><use x="243.4913" y="213.752" width="100%" height="100%" xlink:href="#z"/><use x="250.7113" y="213.752" width="100%" height="100%" xlink:href="#a"/><use x="253.4913" y="213.752" width="100%" height="100%" xlink:href="#n"/><use x="256.82129" y="213.752" width="100%" height="100%" xlink:href="#a"/><use x="259.60129" y="213.752" width="100%" height="100%" xlink:href="#y"/><use x="266.82129" y="213.752" width="100%" height="100%" xlink:href="#h"/><use x="272.9313" y="213.752" width="100%" height="100%" xlink:href="#o"/><use x="276.82129" y="213.752" width="100%" height="100%" xlink:href="#f"/><use x="279.60129" y="213.752" width="100%" height="100%" xlink:href="#x"/><use x="284.60129" y="213.752" width="100%" height="100%" xlink:href="#h"/><use x="290.7113" y="213.752" width="100%" height="100%" xlink:href="#d"/><use x="296.82129" y="213.752" width="100%" height="100%" xlink:href="#l"/><use x="300.15131" y="213.752" width="100%" height="100%" xlink:href="#j"/><use x="305.7113" y="213.752" width="100%" height="100%" xlink:href="#m"/><use x="308.4913" y="213.752" width="100%" height="100%" xlink:href="#a"/><use x="311.2713" y="213.752" width="100%" height="100%" xlink:href="#i"/><use x="316.8313" y="213.752" width="100%" height="100%" xlink:href="#f"/><use x="319.6113" y="213.752" width="100%" height="100%" xlink:href="#q"/><use x="325.72131" y="213.752" width="100%" height="100%" xlink:href="#d"/><use x="331.8313" y="213.752" width="100%" height="100%" xlink:href="#j"/><use x="337.3913" y="213.752" width="100%" height="100%" xlink:href="#m"/><use x="340.1713" y="213.752" width="100%" height="100%" xlink:href="#a"/><use x="342.95129" y="213.752" width="100%" height="100%" xlink:href="#p"/><use x="346.28131" y="213.752" width="100%" height="100%" xlink:href="#j"/><use x="351.84131" y="213.752" width="100%" height="100%" xlink:href="#k"/><use x="357.40131" y="213.752" width="100%" height="100%" xlink:href="#g"/><use x="362.9613" y="213.752" width="100%" height="100%" xlink:href="#i"/><use x="200.9913" y="278.98199" width="100%" height="100%" xlink:href="#w"/><use x="208.2113" y="278.98199" width="100%" height="100%" xlink:href="#a"/><use x="210.9913" y="278.98199" width="100%" height="100%" xlink:href="#n"/><use x="214.3213" y="278.98199" width="100%" height="100%" xlink:href="#a"/><use x="217.1013" y="278.98199" width="100%" height="100%" xlink:href="#v"/><use x="223.7713" y="278.98199" width="100%" height="100%" xlink:href="#f"/><use x="226.5513" y="278.98199" width="100%" height="100%" xlink:href="#d"/><use x="232.6613" y="278.98199" width="100%" height="100%" xlink:href="#q"/><use x="238.7713" y="278.98199" width="100%" height="100%" xlink:href="#m"/><use x="241.5513" y="278.98199" width="100%" height="100%" xlink:href="#g"/><use x="247.1113" y="278.98199" width="100%" height="100%" xlink:href="#n"/><use x="250.4413" y="278.98199" width="100%" height="100%" xlink:href="#i"/><use x="256.00131" y="278.98199" width="100%" height="100%" xlink:href="#g"/><use x="261.56131" y="278.98199" width="100%" height="100%" xlink:href="#k"/><use x="267.12131" y="278.98199" width="100%" height="100%" xlink:href="#l"/><use x="270.45129" y="278.98199" width="100%" height="100%" xlink:href="#f"/><use x="273.23129" y="278.98199" width="100%" height="100%" xlink:href="#h"/><use x="279.34131" y="278.98199" width="100%" height="100%" xlink:href="#d"/><use x="285.45129" y="278.98199" width="100%" height="100%" xlink:href="#a"/><use x="288.23129" y="278.98199" width="100%" height="100%" xlink:href="#p"/><use x="291.56131" y="278.98199" width="100%" height="100%" xlink:href="#h"/><use x="297.6713" y="278.98199" width="100%" height="100%" xlink:href="#o"/><use x="301.56131" y="278.98199" width="100%" height="100%" xlink:href="#a"/><use x="304.34131" y="278.98199" width="100%" height="100%" xlink:href="#k"/><use x="309.90131" y="278.98199" width="100%" height="100%" xlink:href="#h"/><use x="316.01129" y="278.98199" width="100%" height="100%" xlink:href="#d"/><use x="322.12131" y="278.98199" width="100%" height="100%" xlink:href="#l"/><use x="325.45129" y="278.98199" width="100%" height="100%" xlink:href="#f"/><use x="328.23129" y="278.98199" width="100%" height="100%" xlink:href="#d"/><use x="334.34131" y="278.98199" width="100%" height="100%" xlink:href="#s"/><use x="340.45129" y="278.98199" width="100%" height="100%" xlink:href="#h"/><use x="346.56131" y="278.98199" width="100%" height="100%" xlink:href="#s"/><use x="352.6713" y="278.98199" width="100%" height="100%" xlink:href="#i"/><use x="358.23129" y="278.98199" width="100%" height="100%" xlink:href="#a"/><use x="361.01129" y="278.98199" width="100%" height="100%" xlink:href="#r"/><use x="369.90131" y="278.98199" width="100%" height="100%" xlink:href="#h"/><use x="376.01129" y="278.98199" width="100%" height="100%" xlink:href="#u"/><use x="381.57129" y="278.98199" width="100%" height="100%" xlink:href="#g"/><use x="387.13129" y="278.98199" width="100%" height="100%" xlink:href="#r"/><use x="396.0213" y="278.98199" width="100%" height="100%" xlink:href="#g"/><use x="401.5813" y="278.98199" width="100%" height="100%" xlink:href="#d"/><use x="407.69131" y="278.98199" width="100%" height="100%" xlink:href="#l"/></g><path d="m382.59 102.63h42.789v21.133h-42.762z" fill="#211e1e"/><path d="m393.18 121.74c-4.7148 0-8.5391-3.8242-8.5391-8.5391s3.8242-8.5391 8.5391-8.5391c4.7188 0 8.5391 3.8242 8.5391 8.5391s-3.8203 8.5391-8.5391 8.5391" fill="#eb1923"/></g><path transform="matrix(1 0 0 -1 404 102.63)" d="m0-0.0015125v-21.133" fill="none" stroke="#fff" stroke-width=".5"/><g fill="#211e1e"><use x="430.63959" y="116.0381" width="100%" height="100%" xlink:href="#b"/><use x="370.59161" y="116.0381" width="100%" height="100%" xlink:href="#b"/><use x="420.37961" y="137.6651" width="100%" height="100%" xlink:href="#e"/><use x="420.19958" y="159.3011" width="100%" height="100%" xlink:href="#c"/></g><path d="m414.57 123.99v43.043h-21.133v-43.016z" fill="#211e1e"/><path transform="matrix(1 0 0 -1 414.57 145.65)" d="m6.25e-6 -5.375e-4h-21.133" fill="none" stroke="#fff" stroke-width=".5"/><path transform="matrix(1 0 0 -1 425.38 124.02)" d="m0.0010125 4.75e-4h-42.762" fill="none" stroke="#fff" stroke-width=".5"/><g><g><path d="m414.82 121.74c-4.7188 0-8.5391-3.8203-8.5391-8.5391 0-4.7148 3.8203-8.5391 8.5391-8.5391 4.7148 0 8.5391 3.8242 8.5391 8.5391 0 4.7188-3.8242 8.5391-8.5391 8.5391" fill="#eb1923"/><path d="m404 143.37c-4.7148 0-8.5391-3.8203-8.5391-8.5391 0-4.7148 3.8242-8.5391 8.5391-8.5391 4.7188 0 8.5391 3.8242 8.5391 8.5391 0 4.7188-3.8203 8.5391-8.5391 8.5391" fill="#fff000"/><path d="m404 165c-4.7148 0-8.5391-3.8242-8.5391-8.5391 0-4.7148 3.8242-8.5391 8.5391-8.5391 4.7188 0 8.5391 3.8242 8.5391 8.5391 0 4.7148-3.8203 8.5391-8.5391 8.5391" fill="#00a64f"/></g><g fill="#211e1e"><use x="201.62601" y="116.0371" width="100%" height="100%" xlink:href="#b"/><use x="201.62601" y="137.6731" width="100%" height="100%" xlink:href="#e"/><use x="201.62601" y="159.3091" width="100%" height="100%" xlink:href="#c"/></g><path d="m196 145.64v21.383h-21.133v-64.395h21.133z" fill="#211e1e"/></g><path transform="matrix(1 0 0 -1 174.86 124.01)" d="m9.8125e-4 -0.001925h21.133" fill="none" stroke="#fff" stroke-width=".5"/><path transform="matrix(1 0 0 -1 174.86 145.65)" d="m9.8125e-4 9.6875e-4h21.133" fill="none" stroke="#fff" stroke-width=".5"/><g><g><path d="m185.43 104.66c4.7148 0 8.5391 3.8242 8.5391 8.5391 0 4.7188-3.8242 8.5391-8.5391 8.5391-4.7188 0-8.5391-3.8203-8.5391-8.5391 0-4.7148 3.8203-8.5391 8.5391-8.5391" fill="#eb1923"/><path d="m185.43 126.29c4.7148 0 8.5391 3.8242 8.5391 8.5391 0 4.7188-3.8242 8.5391-8.5391 8.5391-4.7188 0-8.5391-3.8203-8.5391-8.5391 0-4.7148 3.8203-8.5391 8.5391-8.5391" fill="#fff000"/><path d="m185.43 165c-4.7188 0-8.5391-3.8203-8.5391-8.5391 0-4.7148 3.8203-8.5391 8.5391-8.5391 4.7148 0 8.5391 3.8242 8.5391 8.5391 0 4.7188-3.8242 8.5391-8.5391 8.5391" fill="#00a64f"/></g><g fill="#211e1e"><use x="266.86819" y="116.0371" width="100%" height="100%" xlink:href="#b"/><use x="266.86819" y="137.6731" width="100%" height="100%" xlink:href="#e"/><use x="266.86819" y="159.3091" width="100%" height="100%" xlink:href="#c"/></g><path d="m261.24 145.64v21.383h-21.133v-64.395h21.133z" fill="#211e1e"/></g><path transform="matrix(1 0 0 -1 240.1 124.01)" d="m9.6875e-4 -0.001925h21.133" fill="none" stroke="#fff" stroke-width=".5"/><path transform="matrix(1 0 0 -1 240.1 145.65)" d="m9.6875e-4 9.6875e-4h21.133" fill="none" stroke="#fff" stroke-width=".5"/><g><path d="m250.67 104.66c4.7148 0 8.5391 3.8242 8.5391 8.5391 0 4.7188-3.8242 8.5391-8.5391 8.5391-4.7188 0-8.5391-3.8203-8.5391-8.5391 0-4.7148 3.8203-8.5391 8.5391-8.5391" fill="#eb1923"/><path d="m250.67 126.29c4.7148 0 8.5391 3.8242 8.5391 8.5391 0 4.7188-3.8242 8.5391-8.5391 8.5391-4.7188 0-8.5391-3.8203-8.5391-8.5391 0-4.7148 3.8203-8.5391 8.5391-8.5391" fill="#fff000"/><path d="m259.21 156.46c0 4.7148-3.8242 8.5391-8.5391 8.5391-4.7148 0-8.5391-3.8242-8.5391-8.5391 0-4.7188 3.8242-8.5391 8.5391-8.5391 4.7148 0 8.5391 3.8203 8.5391 8.5391" fill="#211e1e"/></g><g fill="none"><path transform="matrix(1 0 0 -1 259.21 156.46)" d="m9.375e-4 -5.375e-4c0-4.7148-3.8242-8.5391-8.5391-8.5391s-8.5391 3.8242-8.5391 8.5391c0 4.7188 3.8242 8.5391 8.5391 8.5391s8.5391-3.8203 8.5391-8.5391z" stroke="#fff" stroke-width=".5"/><path transform="matrix(1 0 0 -1 250.66 155.03)" d="m-9.4375e-4 -4.5e-4v-8.5039" stroke="#00a64f" stroke-width="1.395"/><path transform="matrix(1 0 0 -1 257 156.64)" d="m-9.9375e-4 0.001475-6.3242 6.3242-6.3242-6.3281" stroke="#00a64f" stroke-width="1.395"/></g><g fill="#211e1e"><use x="332.11041" y="116.0371" width="100%" height="100%" xlink:href="#b"/><use x="332.11041" y="137.6731" width="100%" height="100%" xlink:href="#b"/><use x="332.11041" y="159.3091" width="100%" height="100%" xlink:href="#e"/></g><path d="m326.48 145.64v42.766h-21.133v-85.777h21.133z" fill="#211e1e"/><path transform="matrix(1 0 0 -1 305.35 124.01)" d="m9.5625e-4 -0.001925h21.133" fill="none" stroke="#fff" stroke-width=".5"/><path transform="matrix(1 0 0 -1 305.35 145.65)" d="m9.5625e-4 9.6875e-4h21.133" fill="none" stroke="#fff" stroke-width=".5"/><g><g><path d="m315.91 104.66c4.7148 0 8.5391 3.8242 8.5391 8.5391 0 4.7188-3.8242 8.5391-8.5391 8.5391-4.7148 0-8.5391-3.8203-8.5391-8.5391 0-4.7148 3.8242-8.5391 8.5391-8.5391" fill="#eb1923"/><path d="m315.91 126.29c4.7148 0 8.5391 3.8242 8.5391 8.5391 0 4.7188-3.8242 8.5391-8.5391 8.5391-4.7148 0-8.5391-3.8203-8.5391-8.5391 0-4.7148 3.8242-8.5391 8.5391-8.5391" fill="#eb1923"/><path d="m315.91 147.92c4.7148 0 8.5391 3.8242 8.5391 8.5391 0 4.7188-3.8242 8.5391-8.5391 8.5391-4.7148 0-8.5391-3.8203-8.5391-8.5391 0-4.7148 3.8242-8.5391 8.5391-8.5391" fill="#fff000"/></g><g fill="#211e1e"><use x="332.11041" y="180.6826" width="100%" height="100%" xlink:href="#c"/></g></g><path transform="matrix(1 0 0 -1 305.35 167.03)" d="m9.5625e-4 -4.375e-5h21.133" fill="none" stroke="#fff" stroke-width=".5"/><g><path d="m324.45 177.84c0 4.7148-3.8242 8.5391-8.5391 8.5391-4.7188 0-8.5391-3.8242-8.5391-8.5391 0-4.7188 3.8203-8.5391 8.5391-8.5391 4.7148 0 8.5391 3.8203 8.5391 8.5391" fill="#00a64f"/><g fill="#211e1e"><use x="370.51389" y="227.35941" width="100%" height="100%" xlink:href="#b"/><use x="392.1409" y="227.35941" width="100%" height="100%" xlink:href="#b"/><use x="414.10089" y="227.35941" width="100%" height="100%" xlink:href="#e"/><use x="434.90891" y="227.35941" width="100%" height="100%" xlink:href="#c"/></g><path d="m406.09 254.47h-42.766v-21.133h85.781v21.133z" fill="#211e1e"/></g><g fill="none" stroke="#fff" stroke-width=".5"><path transform="matrix(1 0 0 -1 427.72 233.34)" d="m-0.00195 9.625e-4v-21.133"/><path transform="matrix(1 0 0 -1 406.09 233.34)" d="m4.375e-5 9.625e-4v-21.133"/><path transform="matrix(1 0 0 -1 384.71 233.34)" d="m3.125e-5 9.625e-4v-21.133"/></g><g><g><path d="m395.27 252.44c-4.7148 0-8.5391-3.8203-8.5391-8.5391 0-4.7148 3.8242-8.5391 8.5391-8.5391 4.7188 0 8.5391 3.8242 8.5391 8.5391 0 4.7188-3.8203 8.5391-8.5391 8.5391" fill="#eb1923"/><path d="m373.89 252.44c-4.7148 0-8.5391-3.8203-8.5391-8.5391 0-4.7148 3.8242-8.5391 8.5391-8.5391 4.7188 0 8.5391 3.8242 8.5391 8.5391 0 4.7188-3.8203 8.5391-8.5391 8.5391" fill="#eb1923"/><path d="m416.91 252.44c-4.7148 0-8.5391-3.8203-8.5391-8.5391 0-4.7148 3.8242-8.5391 8.5391-8.5391 4.7188 0 8.5391 3.8242 8.5391 8.5391 0 4.7188-3.8203 8.5391-8.5391 8.5391" fill="#fff000"/><path d="m438.54 252.44c-4.7148 0-8.5352-3.8203-8.5352-8.5391 0-4.7148 3.8203-8.5391 8.5352-8.5391 4.7188 0 8.5391 3.8242 8.5391 8.5391 0 4.7188-3.8203 8.5391-8.5391 8.5391" fill="#00a64f"/></g><g fill="#211e1e"><use x="170.21291" y="227.2681" width="100%" height="100%" xlink:href="#b"/><use x="191.84891" y="227.2681" width="100%" height="100%" xlink:href="#e"/><use x="213.48489" y="227.2681" width="100%" height="100%" xlink:href="#c"/></g><g><path d="m205.91 233.34h21.383v21.133h-64.398v-21.133z" fill="#211e1e"/><path d="m195.09 235.36c4.7188 0 8.5391 3.8242 8.5391 8.5391 0 4.7148-3.8203 8.5391-8.5391 8.5391s-8.5391-3.8242-8.5391-8.5391c0-4.7148 3.8203-8.5391 8.5391-8.5391" fill="#fff000"/><path d="m173.46 235.36c4.7188 0 8.5391 3.8242 8.5391 8.5391 0 4.7148-3.8203 8.5391-8.5391 8.5391-4.7148 0-8.5391-3.8242-8.5391-8.5391 0-4.7148 3.8242-8.5391 8.5391-8.5391" fill="#eb1923"/><path d="m216.73 235.36c4.7188 0 8.5391 3.8242 8.5391 8.5391 0 4.7148-3.8203 8.5391-8.5391 8.5391s-8.5391-3.8242-8.5391-8.5391c0-4.7148 3.8203-8.5391 8.5391-8.5391" fill="#00a64f"/></g></g><path transform="matrix(1 0 0 -1 184.28 254.47)" d="m-9.5625e-4 4.5e-4v21.133" fill="none" stroke="#fff" stroke-width=".5"/><path transform="matrix(1 0 0 -1 205.91 254.47)" d="m9.5625e-4 4.5e-4v21.133" fill="none" stroke="#fff" stroke-width=".5"/><g><g fill="#211e1e"><use x="270.42581" y="226.3149" width="100%" height="100%" xlink:href="#b"/><use x="292.0618" y="226.3149" width="100%" height="100%" xlink:href="#e"/><use x="313.69781" y="226.3149" width="100%" height="100%" xlink:href="#c"/></g><g><path d="m306.12 232.38h21.383v21.133h-64.398v-21.133z" fill="#211e1e"/><path d="m295.31 234.41c4.7188 0 8.5391 3.8242 8.5391 8.5391 0 4.7148-3.8203 8.5391-8.5391 8.5391s-8.5391-3.8242-8.5391-8.5391c0-4.7148 3.8203-8.5391 8.5391-8.5391" fill="#fff000"/><path d="m273.68 234.41c4.7188 0 8.5391 3.8242 8.5391 8.5391 0 4.7148-3.8203 8.5391-8.5391 8.5391-4.7148 0-8.5391-3.8242-8.5391-8.5391 0-4.7148 3.8242-8.5391 8.5391-8.5391" fill="#eb1923"/></g></g><path transform="matrix(1 0 0 -1 284.49 253.52)" d="m-0.0010125 4.75e-4v21.133" fill="none" stroke="#fff" stroke-width=".5"/><path transform="matrix(1 0 0 -1 306.12 253.52)" d="m1e-3 4.75e-4v21.133" fill="none" stroke="#fff" stroke-width=".5"/><path d="m325.48 242.95c0 4.7188-3.8242 8.5391-8.5391 8.5391-4.7188 0-8.5391-3.8203-8.5391-8.5391 0-4.7148 3.8203-8.5391 8.5391-8.5391 4.7148 0 8.5391 3.8242 8.5391 8.5391" fill="#211e1e"/><g fill="none"><path transform="matrix(1 0 0 -1 325.48 242.95)" d="m9.6875e-4 4.8125e-4c0-4.7188-3.8242-8.5391-8.5391-8.5391-4.7188 0-8.5391 3.8203-8.5391 8.5391 0 4.7148 3.8203 8.5391 8.5391 8.5391 4.7148 0 8.5391-3.8242 8.5391-8.5391z" stroke="#fff" stroke-width=".5"/><path transform="matrix(1 0 0 -1 316.93 241.52)" d="m9.875e-4 4.6875e-4v-8.5078" stroke="#00a64f" stroke-width="1.395"/><path transform="matrix(1 0 0 -1 323.27 243.13)" d="m9.375e-4 -0.0015125-6.3242 6.3242-6.3242-6.3242" stroke="#00a64f" stroke-width="1.395"/></g><g fill="#211e1e"><use x="315.82709" y="298.3345" width="100%" height="100%" xlink:href="#c"/><path d="m289.17 284.93h21.133v21.133h-21.133z"/><path d="m308.28 295.5c0 4.7148-3.8242 8.5391-8.5391 8.5391-4.7188 0-8.5391-3.8242-8.5391-8.5391 0-4.7188 3.8203-8.5391 8.5391-8.5391 4.7148 0 8.5391 3.8203 8.5391 8.5391"/></g><g fill="none"><path transform="matrix(1 0 0 -1 308.28 295.49)" d="m9.4375e-4 -0.0014938c0-4.7148-3.8242-8.5391-8.5391-8.5391-4.7188 0-8.5391 3.8242-8.5391 8.5391 0 4.7187 3.8203 8.5391 8.5391 8.5391 4.7148 0 8.5391-3.8203 8.5391-8.5391z" stroke="#fff" stroke-width=".5"/><path transform="matrix(1 0 0 -1 299.73 294.06)" d="m9.625e-4 -0.0015062v-8.5039" stroke="#00a64f" stroke-width="1.395"/><path transform="matrix(1 0 0 -1 306.07 295.68)" d="m0.0010125 5.1875e-4 -6.3242 6.3242-6.3242-6.3281" stroke="#00a64f" stroke-width="1.395"/></g></g></svg>
