<?xml version="1.0" encoding="UTF-8"?>
<svg width="401.04pt" height="598.41pt" version="1.2" viewBox="0 0 401.04 598.41" xmlns="http://www.w3.org/2000/svg" xmlns:xlink="http://www.w3.org/1999/xlink"><defs><symbol id="v" overflow="visible"><path d="m1.5312-5.7188h1.5938c0.96875 0 1.3438 0.34375 1.3438 0.95312 0 0.78125-0.51562 1.0469-1.3594 1.0469h-1.5781zm-0.85938 5.7188h2.7812c1.4219 0 2.1875-0.875 2.1875-1.9062 0-1.1094-0.75-1.4062-1.1719-1.5781 0.71875-0.32812 0.875-0.92188 0.875-1.3438 0-0.89062-0.625-1.6406-1.8281-1.6406h-2.8438zm0.85938-3.0156h1.7344c0.70312 0 1.5 0.1875 1.5 1.0938 0 0.71875-0.45312 1.1719-1.3594 1.1719h-1.875z"/></symbol><symbol id="t" overflow="visible"><path d="m4.4062 0v-4.7031h-0.79688v2.5938c0 0.67188-0.29688 1.5625-1.2969 1.5625-0.51562 0-0.90625-0.26562-0.90625-1.0312v-3.125h-0.79688v3.375c0 1.125 0.84375 1.4688 1.5312 1.4688 0.75 0 1.1562-0.29688 1.5-0.84375l0.015625 0.015625v0.6875z"/></symbol><symbol id="e" overflow="visible"><path d="m2.3594-4.0469v-0.65625h-0.79688v-0.59375c0-0.375 0.125-0.54688 0.46875-0.54688 0.10938 0 0.23438 0.015625 0.32812 0.015625v-0.70312c-0.125-0.015625-0.25-0.015625-0.35938-0.015625-0.78125 0-1.2188 0.3125-1.2188 1.0312v0.8125h-0.65625v0.65625h0.65625v4.0469h0.78125v-4.0469z"/></symbol><symbol id="b" overflow="visible"><path d="m3.7812-1.4688c-0.015625 0.34375-0.45312 0.92188-1.2031 0.92188-0.90625 0-1.375-0.5625-1.375-1.5469h3.4375c0-1.6719-0.65625-2.75-2.0156-2.75-1.5625 0-2.2656 1.1562-2.2656 2.625 0 1.3594 0.78125 2.3594 2.1094 2.3594 0.75 0 1.0625-0.1875 1.2812-0.32812 0.59375-0.39062 0.79688-1.0625 0.82812-1.2812zm-2.5781-1.2656c0-0.71875 0.57812-1.3906 1.3125-1.3906 0.95312 0 1.2656 0.67188 1.3125 1.3906z"/></symbol><symbol id="s" overflow="visible"><path d="m1.4844-2.7344c0-0.6875 0.46875-1.2656 1.2031-1.2656h0.29688v-0.8125c-0.0625-0.015625-0.10938-0.03125-0.20312-0.03125-0.59375 0-1.0156 0.375-1.3281 0.92188h-0.015625v-0.78125h-0.75v4.7031h0.79688z"/></symbol><symbol id="d" overflow="visible"></symbol><symbol id="r" overflow="visible"><path d="m4.0156-3.3594c0-0.23438-0.10938-1.4844-1.7969-1.4844-0.92188 0-1.7812 0.46875-1.7812 1.5 0 0.65625 0.4375 0.98438 1.0938 1.1406l0.92188 0.23438c0.67188 0.17188 0.9375 0.29688 0.9375 0.67188 0 0.51562-0.51562 0.75-1.0938 0.75-1.1094 0-1.2188-0.59375-1.25-0.96875h-0.76562c0.03125 0.57812 0.17188 1.6562 2.0312 1.6562 1.0625 0 1.8594-0.59375 1.8594-1.5625 0-0.64062-0.34375-1-1.3125-1.2344l-0.79688-0.20312c-0.60938-0.15625-0.85938-0.25-0.85938-0.625 0-0.59375 0.70312-0.67188 0.9375-0.67188 1 0 1.1094 0.5 1.125 0.79688z"/></symbol><symbol id="q" overflow="visible"><path d="m1.2812-2.1406c0-0.75 0.125-1.9844 1.2656-1.9844 1.2188 0 1.2812 1.1562 1.2812 1.7656 0 1.0312-0.40625 1.8125-1.2656 1.8125-0.5 0-1.2812-0.32812-1.2812-1.5938zm-0.76562 4h0.79688v-2.3594h0.015625c0.20312 0.34375 0.625 0.64062 1.25 0.64062 1.6094 0 2.0781-1.5156 2.0781-2.6406 0-1.3125-0.71875-2.3438-1.9688-2.3438-0.84375 0-1.2188 0.53125-1.4062 0.79688h-0.015625v-0.65625h-0.75z"/></symbol><symbol id="p" overflow="visible"><path d="m1.2812-3.2812c0.0625-0.35938 0.1875-0.90625 1.0781-0.90625 0.75 0 1.1094 0.26562 1.1094 0.76562 0 0.46875-0.21875 0.54688-0.40625 0.5625l-1.3125 0.15625c-1.3125 0.17188-1.4219 1.0781-1.4219 1.4844 0 0.8125 0.60938 1.3594 1.4688 1.3594 0.92188 0 1.3906-0.4375 1.7031-0.76562 0.03125 0.35938 0.14062 0.71875 0.84375 0.71875 0.17188 0 0.29688-0.0625 0.42188-0.09375v-0.57812c-0.078125 0.015625-0.1875 0.03125-0.25 0.03125-0.17188 0-0.26562-0.078125-0.26562-0.26562v-2.7188c0-1.2031-1.375-1.3125-1.75-1.3125-1.1562 0-1.9062 0.4375-1.9375 1.5625zm2.1719 1.6562c0 0.625-0.71875 1.1094-1.4531 1.1094-0.59375 0-0.85938-0.3125-0.85938-0.82812 0-0.59375 0.625-0.70312 1.0156-0.76562 0.96875-0.125 1.1719-0.1875 1.2969-0.29688z"/></symbol><symbol id="ap" overflow="visible"><path d="m4.2969-3.125c-0.0625-0.8125-0.53125-1.7188-1.7656-1.7188-1.5625 0-2.2656 1.1562-2.2656 2.625 0 1.3594 0.78125 2.3594 2.1094 2.3594 1.375 0 1.8438-1.0625 1.9219-1.8125h-0.76562c-0.14062 0.73438-0.59375 1.125-1.125 1.125-1.0938 0-1.2969-1-1.2969-1.8125 0-0.82812 0.32812-1.7656 1.2969-1.7656 0.67188 0 1.0156 0.375 1.125 1z"/></symbol><symbol id="ao" overflow="visible"><path d="m4.2969-1.875 0.64062 1.875h0.95312l-2.3438-6.4688h-0.98438l-2.4375 6.4688h0.90625l0.67188-1.875zm-2.3281-0.78125 1.0312-2.8438h0.03125l0.95312 2.8438z"/></symbol><symbol id="bs" overflow="visible"><path d="m3.2344-6.3281h-0.625c-0.25 1.0312-0.67188 1.1406-1.7031 1.2031v0.64062h1.4844v4.4844h0.84375z"/></symbol><symbol id="br" overflow="visible"><path d="m3.8281-3.0781c0 1.5781-0.42188 2.5312-1.3281 2.5312s-1.3281-0.95312-1.3281-2.5312 0.42188-2.5312 1.3281-2.5312 1.3281 0.95312 1.3281 2.5312zm0.84375 0c0-1.3125-0.35938-3.25-2.1719-3.25s-2.1719 1.9375-2.1719 3.25 0.35938 3.25 2.1719 3.25 2.1719-1.9375 2.1719-3.25z"/></symbol><symbol id="u" overflow="visible"><path d="m2.3125-4.0469v-0.65625h-0.75v-1.3125h-0.79688v1.3125h-0.64062v0.65625h0.64062v3.1094c0 0.5625 0.17188 1 0.95312 1 0.078125 0 0.3125-0.03125 0.59375-0.0625v-0.625h-0.28125c-0.15625 0-0.46875 0-0.46875-0.35938v-3.0625z"/></symbol><symbol id="bq" overflow="visible"><path d="m6.8438 0v-6.4688h-1.2344l-1.8438 5.4688h-0.015625l-1.8438-5.4688h-1.25v6.4688h0.84375v-3.8125c0-0.1875-0.015625-1.0156-0.015625-1.6094h0.015625l1.8281 5.4219h0.85938l1.8125-5.4219h0.015625c0 0.59375-0.015625 1.4219-0.015625 1.6094v3.8125z"/></symbol><symbol id="bp" overflow="visible"><path d="m1.6875-6.4688h-0.875v6.4688h0.875z"/></symbol><symbol id="bo" overflow="visible"><path d="m4.9688-1.2344h-0.015625l-3.2344-5.2344h-1.0312v6.4688h0.84375v-5.2188h0.015625l3.2812 5.2188h0.98438v-6.4688h-0.84375z"/></symbol><symbol id="bn" overflow="visible"><path d="m1.7188-0.95312h-0.9375v0.95312h0.9375z"/></symbol><symbol id="i" overflow="visible"><path d="m0.3125-2.3594c0 1.2188 0.6875 2.4844 2.1875 2.4844s2.1875-1.2656 2.1875-2.4844-0.6875-2.4844-2.1875-2.4844-2.1875 1.2656-2.1875 2.4844zm0.82812 0c0-0.625 0.23438-1.7969 1.3594-1.7969 1.1406 0 1.375 1.1719 1.375 1.7969s-0.23438 1.7969-1.375 1.7969c-1.125 0-1.3594-1.1719-1.3594-1.7969z"/></symbol><symbol id="k" overflow="visible"><path d="m4.4844-6.4688h-0.78125v2.4219h-0.015625c-0.20312-0.26562-0.5625-0.79688-1.4062-0.79688-1.25 0-1.9688 1.0312-1.9688 2.3438 0 1.125 0.46875 2.6406 2.0781 2.6406 0.45312 0 1-0.15625 1.3281-0.78125h0.03125v0.64062h0.73438zm-3.3438 4.1094c0-0.60938 0.0625-1.7656 1.2812-1.7656 1.1406 0 1.2656 1.2344 1.2656 1.9844 0 1.2656-0.78125 1.5938-1.2812 1.5938-0.875 0-1.2656-0.78125-1.2656-1.8125z"/></symbol><symbol id="an" overflow="visible"><path d="m1.1719-2.3594c0-0.60938 0.0625-1.7656 1.2969-1.7656 1.1406 0 1.2656 1.2344 1.2656 1.9844 0 1.2656-0.78125 1.5938-1.2812 1.5938-0.875 0-1.2812-0.78125-1.2812-1.8125zm3.3125-2.3438h-0.73438v0.6875c-0.20312-0.28125-0.57812-0.82812-1.4219-0.82812-1.25 0-1.9688 1.0312-1.9688 2.3438 0 1.125 0.46875 2.6406 2.0781 2.6406 0.625 0 1.0312-0.29688 1.2656-0.67188v0.20312c0 0.54688 0.015625 1.6562-1.3438 1.6562-0.1875 0-0.92188 0-1.0625-0.75h-0.79688c0.15625 1.25 1.25 1.4062 1.7969 1.4062 2.1875 0 2.1875-1.7031 2.1875-2.375z"/></symbol><symbol id="am" overflow="visible"><path d="m2.2344-0.875h-0.015625l-1.2344-3.8281h-0.90625l1.7188 4.7031h0.84375l1.7812-4.7031h-0.85938z"/></symbol><symbol id="bm" overflow="visible"><path d="m0.57812 0h0.79688v-2.5625c0-1.2812 0.79688-1.5625 1.25-1.5625 0.57812 0 0.73438 0.46875 0.73438 0.85938v3.2656h0.79688v-2.875c0-0.625 0.4375-1.25 1.0938-1.25 0.6875 0 0.875 0.4375 0.875 1.0781v3.0469h0.79688v-3.2656c0-1.3125-0.95312-1.5781-1.4531-1.5781-0.73438 0-1.0469 0.32812-1.4531 0.76562-0.125-0.25-0.39062-0.76562-1.25-0.76562-0.84375 0-1.25 0.54688-1.4219 0.79688h-0.015625v-0.65625h-0.75z"/></symbol><symbol id="bl" overflow="visible"><path d="m4.4219-3.2031c0-1.3438-0.92188-1.6406-1.6562-1.6406-0.79688 0-1.25 0.54688-1.4219 0.79688h-0.015625v-0.65625h-0.75v4.7031h0.79688v-2.5625c0-1.2812 0.79688-1.5625 1.25-1.5625 0.76562 0 1 0.40625 1 1.2344v2.8906h0.79688z"/></symbol><symbol id="bk" overflow="visible"><path d="m1.3906-4.7031h-0.78125v4.7031h0.78125zm0-0.85938v-0.90625h-0.78125v0.90625z"/></symbol><symbol id="bj" overflow="visible"><path d="m4.4219-3.2031c0-1.3438-0.92188-1.6406-1.6562-1.6406-0.75 0-1.1406 0.46875-1.375 0.76562h-0.015625v-2.3906h-0.79688v6.4688h0.79688v-2.5625c0-1.1875 0.67188-1.5625 1.3125-1.5625 0.76562 0 0.9375 0.40625 0.9375 1.0469v3.0781h0.79688z"/></symbol><symbol id="bi" overflow="visible"><path d="m1.3906-6.4688h-0.78125v6.4688h0.78125z"/></symbol><symbol id="bh" overflow="visible"><path d="m4.5781-7.0938h2.5938v-1.5156h-7v1.5156h2.5938v7.0938h1.8125z"/></symbol><symbol id="bb" overflow="visible"><path d="m6.4688-6.3906h-1.7812l-1.2969 4.7031h-0.03125l-1.375-4.7031h-1.8594l2.3438 6.6562c-0.15625 0.875-0.48438 0.95312-1.0938 0.95312-0.15625 0-0.26562 0-0.32812-0.015625v1.3438c0.23438 0.015625 0.53125 0.015625 0.75 0.015625 1.4688 0 1.6875-0.3125 2.4688-2.6719z"/></symbol><symbol id="aa" overflow="visible"><path d="m2.3594-3.0469c0-1.0156 0.26562-2.0469 1.4219-2.0469 1.0625 0 1.4219 0.9375 1.4219 1.9531 0 0.75-0.29688 1.9219-1.375 1.9219-1.0625 0-1.4688-0.875-1.4688-1.8281zm0-3.3438h-1.6094v8.875h1.6719v-3.2969h0.03125c0.20312 0.34375 0.625 0.98438 1.7969 0.98438 1.8906 0 2.6875-1.6875 2.6875-3.4375 0-2.2031-1.25-3.2812-2.6562-3.2812-1.125 0-1.5938 0.57812-1.9062 1.0938h-0.015625z"/></symbol><symbol id="z" overflow="visible"><path d="m0.82812-6.3906v6.3906h1.6875v-6.3906zm1.6875-2.3125h-1.6875v1.5625h1.6875z"/></symbol><symbol id="al" overflow="visible"><path d="m4.5781-2.3281c0 0.29688-0.29688 1.1094-1.1406 1.1094-1.2812 0-1.2969-1.375-1.2969-2.0625 0-0.79688 0.26562-1.8594 1.3281-1.8594 0.78125-0.046875 1.0469 0.60938 1.1094 1.0312h1.7031c-0.15625-1.9844-1.8125-2.4375-2.8125-2.4375-2.1562 0-3.0625 1.4688-3.0625 3.5312 0 1.3438 0.54688 3.1875 2.9531 3.1875 2.3438 0 2.8594-1.8438 2.9219-2.5z"/></symbol><symbol id="ak" overflow="visible"><path d="m5.9531-4.7031c0-1.5781-1.6406-1.8438-2.5469-1.8438-1.3125 0-2.6562 0.26562-2.8594 2.2344h1.625c0.046875-0.375 0.1875-0.89062 1.0312-0.89062 0.4375 0 1.1094 0.03125 1.1094 0.73438 0 0.35938-0.32812 0.46875-0.59375 0.51562l-1.5156 0.21875c-1.0625 0.15625-1.8594 0.79688-1.8594 2.0469 0 1.3125 0.98438 1.8594 1.9531 1.8594 1.1406 0 1.6719-0.53125 2.0625-0.92188 0.03125 0.35938 0.0625 0.45312 0.15625 0.75h1.8125v-0.25c-0.20312-0.078125-0.375-0.23438-0.375-1zm-1.6406 2.4062c0 0.78125-0.76562 1.2656-1.5 1.2656-0.32812 0-0.78125-0.1875-0.78125-0.76562 0-0.70312 0.51562-0.85938 1.1406-0.96875 0.6875-0.10938 0.96875-0.20312 1.1406-0.34375z"/></symbol><symbol id="aj" overflow="visible"><path d="m2.5156-8.6094h-1.6875v8.6094h1.6875z"/></symbol><symbol id="ai" overflow="visible"></symbol><symbol id="ba" overflow="visible"><path d="m2.7344-1.7812h3.1875l0.54688 1.7812h1.9531l-3.0312-8.6094h-2.0781l-3.0781 8.6094h1.9062zm1.5781-4.8906h0.03125l1.0625 3.4062h-2.1875z"/></symbol><symbol id="bg" overflow="visible"><path d="m2.6562-8.1094h-1.6719v1.7188h-0.85938v1.2031h0.85938v3.875c0 0.82812 0.26562 1.3906 1.7188 1.3906h0.21875c0.26562 0 0.51562-0.015625 0.78125-0.03125v-1.2656c-0.10938 0-0.23438 0.015625-0.34375 0.015625-0.6875 0-0.70312-0.14062-0.70312-0.51562v-3.4688h1.0469v-1.2031h-1.0469z"/></symbol><symbol id="bf" overflow="visible"><path d="m6.9375-3.1875c0-2.3125-1.5469-3.3594-3.2656-3.3594s-3.2656 1.0469-3.2656 3.3594c0 2.2969 1.5469 3.3594 3.2656 3.3594s3.2656-1.0625 3.2656-3.3594zm-1.7344 0c0 0.8125-0.23438 1.9375-1.5312 1.9375s-1.5312-1.125-1.5312-1.9375c0-0.82812 0.23438-1.9531 1.5312-1.9531s1.5312 1.125 1.5312 1.9531z"/></symbol><symbol id="be" overflow="visible"><path d="m6.5469-4.4219c0-1.3906-0.96875-2.125-2.2188-2.125-1.2031 0-1.6875 0.71875-1.9219 1.0938h-0.015625v-0.9375h-1.6094v6.3906h1.6719v-3.6562c0-0.96875 0.57812-1.4844 1.3281-1.4844 1.0625 0 1.0938 0.79688 1.0938 1.2656v3.875h1.6719z"/></symbol><symbol id="bd" overflow="visible"><path d="m0.82812-5.875h2.0312v5.875h1.6719v-8.5156h-1.375c-0.03125 0.625-0.46875 1.4688-2.0938 1.4688h-0.23438z"/></symbol><symbol id="bc" overflow="visible"><path d="m6.0781-6.3594c-0.15625-0.90625-0.32812-1.1562-0.79688-1.6094-0.42188-0.42188-1.3906-0.54688-1.7344-0.54688-2.9531 0-3.1719 2.8438-3.1719 4.4531 0 2.125 0.5 4.2969 3.0781 4.2969 1.6406 0 2.7812-1.25 2.7812-3.1094 0-1.2812-0.82812-2.6406-2.5938-2.6406-0.95312 0-1.375 0.40625-1.5938 0.71875l-0.03125-0.03125c0.0625-1.0938 0.3125-2.3438 1.4062-2.3438 0.625 0 0.9375 0.32812 0.98438 0.8125zm-1.5156 3.625c0 1.1562-0.5625 1.625-1.1719 1.625-0.8125 0-1.3438-0.67188-1.3438-1.5938 0-1.0625 0.65625-1.4531 1.2969-1.4531 0.51562 0 1.2188 0.34375 1.2188 1.4219z"/></symbol><symbol id="az" overflow="visible"><path d="m4.4219-1.1094h-0.015625l-2.875-4.6406h-0.92188v5.75h0.75v-4.6406h0.015625l2.9219 4.6406h0.875v-5.75h-0.75z"/></symbol><symbol id="g" overflow="visible"><path d="m0.28125-2.0938c0 1.0781 0.60938 2.2031 1.9375 2.2031 1.3438 0 1.9531-1.125 1.9531-2.2031s-0.60938-2.2031-1.9531-2.2031c-1.3281 0-1.9375 1.125-1.9375 2.2031zm0.73438 0c0-0.5625 0.20312-1.6094 1.2031-1.6094 1.0156 0 1.2188 1.0469 1.2188 1.6094s-0.20312 1.5938-1.2188 1.5938c-1 0-1.2031-1.0312-1.2031-1.5938z"/></symbol><symbol id="f" overflow="visible"><path d="m2.0625-3.5938v-0.59375h-0.67188v-1.1719h-0.70312v1.1719h-0.57812v0.59375h0.57812v2.75c0 0.5 0.14062 0.90625 0.84375 0.90625 0.0625 0 0.26562-0.03125 0.53125-0.0625v-0.54688h-0.25c-0.15625 0-0.42188 0-0.42188-0.32812v-2.7188z"/></symbol><symbol id="c" overflow="visible"><path d="m3.375-1.3125c-0.03125 0.3125-0.42188 0.82812-1.0938 0.82812-0.79688 0-1.2031-0.5-1.2031-1.375h3.0469c0-1.4844-0.59375-2.4375-1.7969-2.4375-1.3906 0-2.0156 1.0312-2.0156 2.3281 0 1.2031 0.70312 2.0938 1.875 2.0938 0.67188 0 0.95312-0.17188 1.1406-0.29688 0.53125-0.34375 0.71875-0.9375 0.75-1.1406zm-2.2969-1.1094c0-0.65625 0.5-1.25 1.1562-1.25 0.85938 0 1.125 0.59375 1.1719 1.25z"/></symbol><symbol id="as" overflow="visible"><path d="m1.5312-0.84375h-0.82812v0.84375h0.82812zm0-3.2812h-0.82812v0.84375h0.82812z"/></symbol><symbol id="a" overflow="visible"></symbol><symbol id="ar" overflow="visible"><path d="m4.7969-4.0625c-0.03125-0.64062-0.23438-1.8281-2.2344-1.8281-1.3906 0-1.9844 0.875-1.9844 1.7656 0 1 0.85938 1.2656 1.2344 1.3594l1.1719 0.26562c0.9375 0.23438 1.2188 0.42188 1.2188 1.0156 0 0.82812-0.9375 0.96875-1.5 0.96875-0.73438 0-1.5781-0.29688-1.5781-1.3438h-0.73438c0 0.54688 0.09375 1.0156 0.57812 1.4531 0.26562 0.23438 0.67188 0.5625 1.75 0.5625 0.98438 0 2.2344-0.375 2.2344-1.7344 0-0.92188-0.54688-1.3594-1.2969-1.5469l-1.6406-0.375c-0.32812-0.078125-0.67188-0.23438-0.67188-0.71875 0-0.875 0.8125-1.0156 1.2969-1.0156 0.65625 0 1.3906 0.28125 1.4375 1.1719z"/></symbol><symbol id="aq" overflow="visible"><path d="m0.10938-5.0625h1.9531v5.0625h0.76562v-5.0625h1.9531v-0.6875h-4.6719z"/></symbol><symbol id="l" overflow="visible"><path d="m1.1406-2.9062c0.046875-0.32812 0.15625-0.8125 0.96875-0.8125 0.65625 0 0.98438 0.23438 0.98438 0.67188 0 0.42188-0.20312 0.48438-0.375 0.5l-1.1562 0.14062c-1.1719 0.15625-1.2812 0.96875-1.2812 1.3125 0 0.71875 0.54688 1.2188 1.3125 1.2188 0.82812 0 1.25-0.39062 1.5156-0.6875 0.03125 0.32812 0.125 0.64062 0.75 0.64062 0.15625 0 0.26562-0.046875 0.375-0.078125v-0.51562c-0.078125 0.015625-0.15625 0.03125-0.21875 0.03125-0.15625 0-0.23438-0.0625-0.23438-0.25v-2.4062c0-1.0625-1.2188-1.1562-1.5625-1.1562-1.0312 0-1.6875 0.39062-1.7188 1.3906zm1.9375 1.4531c0 0.5625-0.64062 0.98438-1.2969 0.98438-0.53125 0-0.76562-0.26562-0.76562-0.71875 0-0.53125 0.54688-0.64062 0.89062-0.6875 0.875-0.10938 1.0469-0.17188 1.1719-0.26562z"/></symbol><symbol id="ah" overflow="visible"><path d="m1.125 0v-0.51562h0.015625c0.14062 0.23438 0.4375 0.64062 1.1562 0.64062 1.4219 0 1.8438-1.3438 1.8438-2.3438 0-1.1719-0.64062-2.0781-1.75-2.0781-0.48438 0-0.90625 0.20312-1.2031 0.64062h-0.015625v-2.0938h-0.70312v5.75zm2.2812-2.1094c0 0.92188-0.35938 1.625-1.125 1.625-0.45312 0-1.1406-0.29688-1.1406-1.4062 0-0.6875 0.10938-1.7812 1.125-1.7812 1.0938 0 1.1406 1.0312 1.1406 1.5625z"/></symbol><symbol id="y" overflow="visible"><path d="m1.2344-5.75h-0.70312v5.75h0.70312z"/></symbol><symbol id="h" overflow="visible"><path d="m3.5781-2.9844c0-0.21875-0.10938-1.3125-1.6094-1.3125-0.8125 0-1.5781 0.40625-1.5781 1.3281 0 0.57812 0.39062 0.875 0.96875 1.0156l0.8125 0.20312c0.60938 0.15625 0.84375 0.26562 0.84375 0.59375 0 0.46875-0.46875 0.67188-0.96875 0.67188-0.98438 0-1.0938-0.53125-1.1094-0.85938h-0.6875c0.03125 0.5 0.15625 1.4688 1.8125 1.4688 0.9375 0 1.6562-0.53125 1.6562-1.3906 0-0.5625-0.3125-0.89062-1.1875-1.1094l-0.70312-0.17188c-0.54688-0.14062-0.75-0.21875-0.75-0.5625 0-0.51562 0.60938-0.59375 0.82812-0.59375 0.89062 0 0.98438 0.45312 0.98438 0.71875z"/></symbol><symbol id="ag" overflow="visible"><path d="m4.0312-4.125c-0.078125-1.1406-1-1.5-1.6406-1.5-1.6875 0-2.0938 1.7812-2.0938 3.0156 0 0.73438 0.10938 1.4219 0.4375 1.9531 0.40625 0.60938 1.0156 0.8125 1.4531 0.8125 0.78125 0 1.125-0.21875 1.4219-0.54688 0.375-0.42188 0.53125-0.82812 0.53125-1.4062 0-1.3438-1.0625-1.7812-1.75-1.7812-0.78125 0-1.1719 0.375-1.3438 0.6875l-0.015625-0.015625c0-0.59375 0.23438-2.0781 1.3438-2.0781 0.59375 0 0.875 0.35938 0.96875 0.85938zm-2.9062 2.3906c0-0.65625 0.375-1.2188 1.1562-1.2188 0.875 0 1.1406 0.6875 1.1406 1.1875 0 0.75-0.4375 1.2812-1.1094 1.2812-0.82812 0-1.1875-0.64062-1.1875-1.25z"/></symbol><symbol id="af" overflow="visible"><path d="m1.4688-5.0781h1.5781c0.64062 0 1.125 0.23438 1.125 0.95312 0 0.78125-0.46875 1.0312-1.1562 1.0312h-1.5469zm0 2.6562h1.7969c1.25 0 1.7031-0.90625 1.7031-1.7031 0-0.9375-0.625-1.625-1.7031-1.625h-2.5781v5.75h0.78125z"/></symbol><symbol id="ae" overflow="visible"><path d="m2.3125-2.5781h-1.9531v0.71875h1.9531z"/></symbol><symbol id="ay" overflow="visible"><path d="m1.0625-3.6094c0.015625-0.39062 0.0625-1.375 1.125-1.375 0.82812 0 1.1094 0.5625 1.1094 1.0156 0 0.73438-0.42188 0.95312-1.0312 1.3125l-0.73438 0.42188c-0.75 0.4375-1.2812 1.0625-1.3281 2.2344h3.8594v-0.65625h-3.0625c0.03125-0.21875 0.20312-0.65625 0.96875-1.0938l0.57812-0.3125c0.84375-0.45312 1.5156-0.875 1.5156-1.875 0-1.0469-0.79688-1.6875-1.7656-1.6875-0.60938 0-1.9375 0.1875-1.9375 2.0156z"/></symbol><symbol id="j" overflow="visible"><path d="m3.9219-2.8438c0-1.2031-0.8125-1.4531-1.4531-1.4531-0.71875 0-1.1094 0.48438-1.2656 0.70312h-0.015625v-0.59375h-0.67188v4.1875h0.70312v-2.2812c0-1.1406 0.70312-1.3906 1.1094-1.3906 0.6875 0 0.89062 0.375 0.89062 1.0938v2.5781h0.70312z"/></symbol><symbol id="o" overflow="visible"><path d="m3.9844-5.75h-0.70312v2.1562h-0.015625c-0.15625-0.23438-0.48438-0.70312-1.2344-0.70312-1.125 0-1.75 0.90625-1.75 2.0781 0 1 0.42188 2.3438 1.8438 2.3438 0.40625 0 0.89062-0.14062 1.1875-0.70312h0.015625v0.57812h0.65625zm-2.9688 3.6406c0-0.53125 0.046875-1.5625 1.1406-1.5625 1.0156 0 1.125 1.0938 1.125 1.7812 0 1.1094-0.70312 1.4062-1.1406 1.4062-0.76562 0-1.125-0.70312-1.125-1.625z"/></symbol><symbol id="ax" overflow="visible"><path d="m1.7969-2.5938h0.3125c0.48438 0 1.3125 0.078125 1.3125 1.0312 0 0.64062-0.5 1.0781-1.2188 1.0781-1.0469 0-1.1719-0.70312-1.2031-1.2344h-0.73438c0.046875 0.64062 0.21875 1.2969 0.84375 1.625 0.28125 0.14062 0.625 0.25 1.0469 0.25 1.4219 0 2.0156-0.89062 2.0156-1.8125 0-0.75-0.39062-1.1406-0.9375-1.3125v-0.015625c0.3125-0.09375 0.71875-0.4375 0.71875-1.1562 0-0.85938-0.64062-1.4844-1.7344-1.4844-1.4688 0-1.8125 1.0156-1.8125 1.8438h0.6875c0.03125-0.39062 0.09375-1.2031 1.0938-1.2031 0.84375 0 1.0469 0.54688 1.0469 0.875 0 0.70312-0.53125 0.92188-1.0781 0.92188-0.10938 0-0.25 0-0.35938-0.015625z"/></symbol><symbol id="x" overflow="visible"><path d="m2.0938-3.5938v-0.59375h-0.70312v-0.51562c0-0.34375 0.10938-0.48438 0.42188-0.48438 0.078125 0 0.20312 0 0.28125 0.015625v-0.64062c-0.10938 0-0.21875-0.015625-0.3125-0.015625-0.6875 0-1.0938 0.29688-1.0938 0.92188v0.71875h-0.57812v0.59375h0.57812v3.5938h0.70312v-3.5938z"/></symbol><symbol id="n" overflow="visible"><path d="m1.3125-2.4375c0-0.60938 0.42188-1.1094 1.0781-1.1094h0.26562v-0.73438c-0.0625-0.015625-0.09375-0.015625-0.1875-0.015625-0.53125 0-0.89062 0.32812-1.1719 0.8125h-0.015625v-0.70312h-0.67188v4.1875h0.70312z"/></symbol><symbol id="w" overflow="visible"><path d="m3.9219-2.8438c0-1.2031-0.8125-1.4531-1.4531-1.4531-0.67188 0-1.0312 0.40625-1.2344 0.67188h-0.015625v-2.125h-0.70312v5.75h0.70312v-2.2812c0-1.0625 0.59375-1.3906 1.1719-1.3906 0.67188 0 0.82812 0.375 0.82812 0.9375v2.7344h0.70312z"/></symbol><symbol id="ad" overflow="visible"><path d="m0.51562 0h0.70312v-2.2812c0-1.1406 0.70312-1.3906 1.1094-1.3906 0.51562 0 0.65625 0.42188 0.65625 0.78125v2.8906h0.70312v-2.5469c0-0.5625 0.39062-1.125 0.98438-1.125s0.78125 0.39062 0.78125 0.96875v2.7031h0.70312v-2.8906c0-1.1875-0.85938-1.4062-1.2969-1.4062-0.65625 0-0.9375 0.28125-1.2812 0.67188-0.125-0.21875-0.35938-0.67188-1.1094-0.67188s-1.1094 0.48438-1.2656 0.70312h-0.015625v-0.59375h-0.67188z"/></symbol><symbol id="m" overflow="visible"><path d="m1.2344-4.1875h-0.70312v4.1875h0.70312zm0-0.75v-0.8125h-0.70312v0.8125z"/></symbol><symbol id="ac" overflow="visible"><path d="m1.0469-2.1094c0-0.53125 0.0625-1.5625 1.1406-1.5625 1.0156 0 1.125 1.0938 1.125 1.7812 0 1.1094-0.6875 1.4062-1.1406 1.4062-0.76562 0-1.125-0.70312-1.125-1.625zm2.9375-2.0781h-0.65625v0.625c-0.17188-0.26562-0.5-0.73438-1.2656-0.73438-1.1094 0-1.75 0.90625-1.75 2.0781 0 1 0.42188 2.3438 1.8438 2.3438 0.5625 0 0.9375-0.26562 1.125-0.59375v0.17188c0 0.5 0.03125 1.4688-1.1875 1.4688-0.17188 0-0.8125 0-0.9375-0.65625h-0.70312c0.125 1.1094 1.0938 1.25 1.5938 1.25 1.9375 0 1.9375-1.5156 1.9375-2.1094z"/></symbol><symbol id="aw" overflow="visible"><path d="m2.0156-0.78125h-0.015625l-1.1094-3.4062h-0.79688l1.5469 4.2969c-0.34375 0.85938-0.375 0.96875-0.75 0.96875-0.1875 0-0.32812-0.03125-0.42188-0.0625v0.625c0.10938 0.046875 0.1875 0.078125 0.29688 0.078125 0.90625 0 0.98438-0.10938 1.6406-1.7969 0.53125-1.375 1.0156-2.7344 1.5-4.1094h-0.76562z"/></symbol><symbol id="av" overflow="visible"><path d="m2.3594-5.8906h-0.53125l-1.9688 6.0469h0.54688z"/></symbol><symbol id="au" overflow="visible"><path d="m3.8125-2.7812c-0.046875-0.71875-0.46875-1.5156-1.5625-1.5156-1.3906 0-2.0156 1.0312-2.0156 2.3281 0 1.2031 0.70312 2.0938 1.875 2.0938 1.2344 0 1.6406-0.9375 1.7031-1.6094h-0.67188c-0.125 0.64062-0.53125 1-1 1-0.96875 0-1.1562-0.89062-1.1562-1.6094 0-0.75 0.28125-1.5781 1.1562-1.5781 0.59375 0 0.90625 0.32812 1 0.89062z"/></symbol><symbol id="ab" overflow="visible"><path d="m3.9062 0v-4.1875h-0.70312v2.3125c0 0.60938-0.26562 1.3906-1.1406 1.3906-0.46875 0-0.8125-0.23438-0.8125-0.92188v-2.7812h-0.70312v3.0156c0 1 0.73438 1.2969 1.3594 1.2969 0.67188 0 1.0312-0.26562 1.3281-0.75l0.015625 0.015625v0.60938z"/></symbol><symbol id="at" overflow="visible"><path d="m1.5312-0.84375h-0.82812v0.84375h0.82812z"/></symbol></defs><path d="m155.82 568.5h-19.5v-568.5h19.5z" fill="#d7d7d7"/><path d="m136.32 0v568.5" fill="none" stroke="#211e1e"/><path d="m235.7 0h19.75v568.5h-19.75z" fill="#d7d7d7"/><path d="m255.45 0v568.5" fill="none" stroke="#211e1e"/><path d="m230.97 0.21094h-73.16v568.33h75.824v-568.33z" fill="#b0b0b0"/><g fill="#211e1e"><path d="m267.5 512.52v3.4141h-3.418v3.168h10v-3.168h-3.418v-3.4141z"/><path d="m267.5 435.52v3.4141h-3.418v3.168h10v-3.168h-3.418v-3.4141z"/><path d="m127.12 114.19v-3.418h3.418v-3.1641h-10v3.1641h3.418v3.418z"/><path d="m127.12 37.938v-3.418h3.418v-3.1641h-10v3.1641h3.418v3.418z"/></g><path d="m279.45 519.11h30.781" fill="none" stroke="#211e1e" stroke-width=".75"/><path d="m294.85 515.22v-29.422" fill="none" stroke="#211e1e" stroke-width=".75"/><path d="m295.38 516.46c0.26172-0.8711 0.50391-1.4336 0.78125-2.1328h-2.6484c0.11719 0.25 0.51953 1.2617 0.78516 2.1328 0.27734 0.92578 0.47266 1.7695 0.53906 2.3164 0.0664-0.54687 0.26172-1.3906 0.54297-2.3164" fill="#211e1e"/><path d="m294.85 438.23v-14.785" fill="none" stroke="#211e1e" stroke-width=".75"/><path d="m295.38 439.46c0.26172-0.86718 0.50391-1.4336 0.78125-2.1289h-2.6484c0.11719 0.25 0.51953 1.2617 0.78516 2.1289 0.27734 0.92969 0.47266 1.7734 0.53906 2.3164 0.0664-0.54297 0.26172-1.3867 0.54297-2.3164" fill="#211e1e"/><path d="m294.85 397.43v14.906" fill="none" stroke="#211e1e" stroke-width=".75"/><path d="m294.31 396.19c-0.26172 0.86719-0.50391 1.4336-0.78125 2.1289h2.6445c-0.11719-0.2461-0.51953-1.2617-0.78125-2.1289-0.28125-0.92969-0.47266-1.7695-0.54297-2.3164-0.0664 0.54688-0.25781 1.3867-0.53906 2.3164" fill="#211e1e"/><path d="m208.7 393.54h101.53" fill="none" stroke="#211e1e" stroke-width=".75"/><path d="m294.85 389.65v-28.793" fill="none" stroke="#211e1e" stroke-width=".75"/><path d="m295.38 390.89c0.26172-0.86719 0.50391-1.4336 0.78125-2.1289h-2.6484c0.11719 0.25 0.51953 1.2617 0.78516 2.1289 0.27734 0.92968 0.47266 1.7734 0.53906 2.3164 0.0664-0.54297 0.26172-1.3867 0.54297-2.3164" fill="#211e1e"/><path d="m205.46 316.5h104.78" fill="none" stroke="#211e1e" stroke-width=".75"/><path d="m294.85 320.38v30.352" fill="none" stroke="#211e1e" stroke-width=".75"/><path d="m294.31 319.14c-0.26172 0.86719-0.50391 1.4297-0.78125 2.1289h2.6445c-0.11719-0.25-0.51953-1.2617-0.78125-2.1289-0.28125-0.92969-0.47266-1.7734-0.54297-2.3203-0.0664 0.54687-0.25781 1.3906-0.53906 2.3203" fill="#211e1e"/><path d="m310.24 442.11h-30.781" fill="none" stroke="#211e1e" stroke-width=".75"/><path d="m294.85 446.01v29.039" fill="none" stroke="#211e1e" stroke-width=".75"/><path d="m294.31 444.77c-0.26172 0.86719-0.50391 1.4297-0.78125 2.1289h2.6445c-0.11719-0.25-0.51953-1.2617-0.78125-2.1289-0.28125-0.92969-0.47266-1.7734-0.54297-2.3203-0.0664 0.54687-0.25781 1.3906-0.53906 2.3203" fill="#211e1e"/><path d="m112.64 31.355h-30.777" fill="none" stroke="#211e1e" stroke-width=".75"/><path d="m97.251 35.246v30.094" fill="none" stroke="#211e1e" stroke-width=".75"/><path d="m96.716 34.004c-0.26172 0.87109-0.5039 1.4336-0.78515 2.1289h2.6484c-0.11718-0.25-0.51953-1.2578-0.78125-2.1289-0.28125-0.92578-0.47265-1.7695-0.54297-2.3164-0.0664 0.54688-0.26171 1.3906-0.53906 2.3164" fill="#211e1e"/><path d="m97.251 111.51v18.195" fill="none" stroke="#211e1e" stroke-width=".75"/><path d="m96.716 110.27c-0.26172 0.86719-0.5039 1.4297-0.78515 2.1289h2.6484c-0.11718-0.25-0.51953-1.2617-0.78125-2.1289-0.28125-0.92969-0.47265-1.7734-0.54297-2.3203-0.0664 0.54687-0.26171 1.3906-0.53906 2.3203" fill="#211e1e"/><path d="m97.251 157.03v-16.367" fill="none" stroke="#211e1e" stroke-width=".75"/><path d="m97.791 158.27c0.26172-0.86719 0.50391-1.4336 0.78516-2.1289h-2.6484c0.11719 0.25 0.51953 1.2617 0.78125 2.1289 0.28125 0.92969 0.47266 1.7695 0.54297 2.3164 0.0664-0.54688 0.25781-1.3867 0.53906-2.3164" fill="#211e1e"/><path d="m182.69 160.94h-100.83" fill="none" stroke="#211e1e" stroke-width=".75"/><path d="m97.251 164.83v27.562" fill="none" stroke="#211e1e" stroke-width=".75"/><path d="m96.716 163.59c-0.26172 0.86719-0.5039 1.4297-0.78515 2.1289h2.6484c-0.11718-0.25-0.51953-1.2617-0.78125-2.1289-0.28125-0.92968-0.47265-1.7734-0.54297-2.3203-0.0664 0.54688-0.26171 1.3906-0.53906 2.3203" fill="#211e1e"/><path d="m186.07 236h-104.2" fill="none" stroke="#211e1e" stroke-width=".75"/><path d="m97.251 232.09v-30.113" fill="none" stroke="#211e1e" stroke-width=".75"/><path d="m97.791 233.33c0.26172-0.86719 0.50391-1.4336 0.78516-2.1289h-2.6484c0.11719 0.25 0.51953 1.2617 0.78125 2.1289 0.28125 0.92969 0.47266 1.7695 0.54297 2.3164 0.0664-0.54688 0.25781-1.3867 0.53906-2.3164" fill="#211e1e"/><path d="m81.861 107.61h30.781" fill="none" stroke="#211e1e" stroke-width=".75"/><path d="m97.251 103.69v-27.52" fill="none" stroke="#211e1e" stroke-width=".75"/><path d="m97.791 104.93c0.26172-0.86719 0.50391-1.4297 0.78516-2.1289h-2.6484c0.11719 0.25 0.51953 1.2617 0.78125 2.1289 0.28125 0.92969 0.47266 1.7734 0.54297 2.3203 0.0664-0.54687 0.25781-1.3906 0.53906-2.3203" fill="#211e1e"/><path d="m195.7 0.16797v568.17" fill="none" stroke="#facc2b" stroke-dasharray="30, 90" stroke-width="2"/><path d="m195.7 309.37c-3.9375 0-7.1289 3.1914-7.1289 7.1289s3.1914 7.1289 7.1289 7.1289 7.1289-3.1914 7.1289-7.1289-3.1914-7.1289-7.1289-7.1289" fill="#fff"/><g fill="none" stroke="#211e1e"><path d="m195.7 309.37c-3.9375 0-7.1289 3.1914-7.1289 7.1289s3.1914 7.1289 7.1289 7.1289 7.1289-3.1914 7.1289-7.1289-3.1914-7.1289-7.1289-7.1289z"/><path d="m195.7 309.37v14.258"/><path d="m188.57 316.5h14.254"/></g><g fill="#f58511"><path d="m193.7 439.27h3.3359v3.332h-3.3359z"/><path d="m193.7 422.79h3.3359v3.3359h-3.3359z"/><path d="m193.7 365.94h3.3359v3.3359h-3.3359z"/><path d="m193.7 346.79h3.3359v3.3359h-3.3359z"/><path d="m193.7 291.94h3.3359v3.3359h-3.3359z"/><path d="m193.7 255.27h3.3359v3.3359h-3.3359z"/><path d="m193.7 206.61h3.3359v3.332h-3.3359z"/><path d="m193.7 183.27h3.3359v3.3359h-3.3359z"/><path d="m193.7 133.94h3.3359v3.332h-3.3359z"/><path d="m193.7 120.61h3.3359v3.332h-3.3359z"/><path d="m189.11 406.61h3.332v3.332h-3.332z"/><path d="m198.95 406.61h3.3359v3.332h-3.3359z"/><path d="m189.11 147.27h3.332v3.3359h-3.332z"/><path d="m198.95 147.27h3.3359v3.3359h-3.3359z"/><path d="m187.61 326.79h3.332v3.3359h-3.332z"/><path d="m200.45 326.79h3.3359v3.3359h-3.3359z"/><path d="m187.61 223.94h3.332v3.332h-3.332z"/><path d="m200.45 223.94h3.3359v3.332h-3.3359z"/></g><g><path d="m215.08 37.559v-10.664h2.6133l-4.3242-7.3476-4.0234 7.3476h2.4141v10.664z" fill="#211e1e"/><path d="m176.43 19.547v10.664h-2.6172l4.3281 7.3476 4.0234-7.3476h-2.4141v-10.664z" fill="#211e1e"/><path d="m195.7 228.87c-3.9375 0-7.1289 3.1914-7.1289 7.1289s3.1914 7.1289 7.1289 7.1289 7.1289-3.1914 7.1289-7.1289-3.1914-7.1289-7.1289-7.1289" fill="#fff"/></g><g fill="none" stroke="#211e1e"><path d="m195.7 228.87c-3.9375 0-7.1289 3.1914-7.1289 7.1289s3.1914 7.1289 7.1289 7.1289 7.1289-3.1914 7.1289-7.1289-3.1914-7.1289-7.1289-7.1289z"/><path d="m195.7 228.87v14.258"/><path d="m188.57 236h14.254"/></g><path d="m214.75 534.89v-10.664h2.6133l-4.3242-7.3438-4.0234 7.3438h2.4141v10.664z" fill="#211e1e"/><path d="m176.1 516.88v10.664h-2.6133l4.3242 7.3438 4.0234-7.3438h-2.4141v-10.664z" fill="#211e1e"/><path d="m50.634 17.344c19-11 74.91-13.547 74.91 10.453" fill="none" stroke="#211e1e" stroke-width=".75"/><path d="m126.08 29.035c0.26172-0.86719 0.50391-1.4297 0.78125-2.1289h-2.6484c0.11719 0.25 0.51953 1.2617 0.78516 2.1289 0.27734 0.92968 0.47265 1.7734 0.53906 2.3203 0.0664-0.54688 0.26172-1.3906 0.54297-2.3203" fill="#211e1e"/><path d="m54.771 97.938c21-9 70.773-15.891 70.773 6.1094" fill="none" stroke="#211e1e" stroke-width=".75"/><path d="m126.08 105.29c0.26172-0.87109 0.50391-1.4336 0.78125-2.1328h-2.6484c0.11719 0.25 0.51953 1.2617 0.78516 2.1328 0.27734 0.92578 0.47265 1.7695 0.53906 2.3164 0.0664-0.54688 0.26172-1.3906 0.54297-2.3164" fill="#211e1e"/><path d="m332.61 452.07c-11 8-63.535 10.586-63.535-6.4141" fill="none" stroke="#211e1e" stroke-width=".75"/><path d="m268.54 444.42c-0.26562 0.86718-0.50391 1.4336-0.78516 2.1289h2.6484c-0.11719-0.25-0.51953-1.2617-0.78125-2.1289-0.28125-0.92969-0.47265-1.7734-0.54297-2.3164-0.0664 0.54297-0.26172 1.3867-0.53906 2.3164" fill="#211e1e"/><path d="m330.03 526.54c-13 9-60.953 14.125-60.953-3.875" fill="none" stroke="#211e1e" stroke-width=".75"/><path d="m268.54 521.42c-0.26562 0.86718-0.50391 1.4336-0.78516 2.1289h2.6484c-0.11719-0.25-0.51953-1.2617-0.78125-2.1289-0.28125-0.92969-0.47265-1.7734-0.54297-2.3164-0.0664 0.54297-0.26172 1.3867-0.53906 2.3164" fill="#211e1e"/><path d="m328.78 440.11 27.574-27.57c1.168-1.168 3.0781-1.168 4.2422 0l27.574 27.57c1.168 1.168 1.168 3.0742 0 4.2461l-27.574 27.57c-1.1641 1.168-3.0742 1.168-4.2422 0l-27.574-27.57c-1.1641-1.1719-1.1641-3.0781 0-4.2461" fill="#f58511"/><path d="m328.78 440.11 27.574-27.57c1.168-1.168 3.0781-1.168 4.2422 0l27.574 27.57c1.168 1.168 1.168 3.0742 0 4.2461l-27.574 27.57c-1.1641 1.168-3.0742 1.168-4.2422 0l-27.574-27.57c-1.1641-1.1719-1.1641-3.0781 0-4.2461z" fill="none" stroke="#211e1e" stroke-miterlimit="2.613" stroke-width=".25"/><path d="m329.44 440.55 27.348-27.352c0.92578-0.92188 2.4414-0.92188 3.3672 0l27.348 27.352c0.92579 0.92578 0.92579 2.4375 0 3.3633l-27.348 27.348c-0.92578 0.92578-2.4414 0.92578-3.3672 0l-27.348-27.348c-0.92578-0.92578-0.92578-2.4375 0-3.3633" fill="#211e1e" fill-rule="evenodd"/><path d="m330.3 441.39 27.336-27.336c0.46094-0.46094 1.2188-0.46094 1.6836 0l27.332 27.336c0.46093 0.46484 0.46093 1.2226 0 1.6836l-27.332 27.332c-0.46484 0.46484-1.2226 0.46484-1.6836 0l-27.336-27.332c-0.46093-0.46094-0.46093-1.2188 0-1.6836" fill="#f58511" fill-rule="evenodd"/><g fill="#211e1e" fill-rule="evenodd"><path d="m361.81 425.36c2.0195 0 3.6641 1.6484 3.6641 3.668s-1.6445 3.6641-3.6641 3.6641c-2.0234 0-3.668-1.6445-3.668-3.6641s1.6445-3.668 3.668-3.668"/><path d="m340.4 433.69h7.5078v9.3438h-7.5078z"/><path d="m348.58 433.68h17.375l6.4375 1.293 1.043-3.0312 1.7188 0.34766-1.3711 5.5664-7.7812-0.57032 1.4805 23.016-1.6914-0.0195-3.2422-13.227-2.1875 13.219h-1.6172l-0.17188-22.941-9.9922-1.9336z"/></g><path d="m60.388 111.5-27.574 27.57c-1.168 1.168-3.0781 1.168-4.2422 0l-27.574-27.57c-1.1641-1.168-1.1641-3.0742 0-4.2422l27.574-27.574c1.1641-1.168 3.0742-1.168 4.2422 0l27.574 27.574c1.168 1.168 1.168 3.0742 0 4.2422" fill="#f58511"/><path d="m60.388 111.5-27.574 27.57c-1.168 1.168-3.0781 1.168-4.2422 0l-27.574-27.57c-1.1641-1.168-1.1641-3.0742 0-4.2422l27.574-27.574c1.1641-1.168 3.0742-1.168 4.2422 0l27.574 27.574c1.168 1.168 1.168 3.0742 0 4.2422z" fill="none" stroke="#211e1e" stroke-miterlimit="2.613" stroke-width=".25"/><path d="m59.724 111.05-27.348 27.352c-0.92578 0.92188-2.4414 0.92188-3.3672 0l-27.348-27.352c-0.92579-0.92578-0.92579-2.4375 0-3.3633l27.348-27.348c0.92578-0.92578 2.4414-0.92578 3.3672 0l27.348 27.348c0.92579 0.92578 0.92579 2.4375 0 3.3633" fill="#211e1e" fill-rule="evenodd"/><path d="m58.869 110.21-27.336 27.336c-0.46094 0.46485-1.2188 0.46485-1.6797 0l-27.336-27.336c-0.46093-0.46093-0.46093-1.2188 0-1.6797l27.336-27.336c0.46094-0.46484 1.2188-0.46484 1.6797 0l27.336 27.336c0.46093 0.46093 0.46093 1.2188 0 1.6797" fill="#f58511" fill-rule="evenodd"/><g fill="#211e1e"><g fill-rule="evenodd"><path d="m27.357 126.25c-2.0234 0-3.668-1.6484-3.668-3.668s1.6445-3.6641 3.668-3.6641c2.0195 0 3.6641 1.6445 3.6641 3.6641s-1.6445 3.668-3.6641 3.668"/><path d="m48.771 117.92h-7.5078v-9.3477h7.5078z"/><path d="m40.591 117.92h-17.375l-6.4375-1.2891-1.043 3.0274-1.7188-0.34766 1.3711-5.5664 7.7812 0.57032-1.4805-23.016 1.6914 0.0195 3.2422 13.23 2.1875-13.219h1.6172l0.17187 22.938 9.9922 1.9375z"/></g><g transform="translate(-122.2 -119.11)"><use x="391.875" y="477.05081" width="100%" height="100%" xlink:href="#v"/><use x="397.87799" y="477.05081" width="100%" height="100%" xlink:href="#t"/><use x="402.88199" y="477.05081" width="100%" height="100%" xlink:href="#e"/><use x="405.384" y="477.05081" width="100%" height="100%" xlink:href="#e"/><use x="407.6178" y="477.05081" width="100%" height="100%" xlink:href="#b"/><use x="412.6218" y="477.05081" width="100%" height="100%" xlink:href="#s"/><use x="415.6188" y="477.05081" width="100%" height="100%" xlink:href="#d"/><use x="418.12079" y="477.05081" width="100%" height="100%" xlink:href="#r"/><use x="422.62079" y="477.05081" width="100%" height="100%" xlink:href="#q"/><use x="427.62479" y="477.05081" width="100%" height="100%" xlink:href="#p"/><use x="432.62881" y="477.05081" width="100%" height="100%" xlink:href="#ap"/><use x="437.12881" y="477.05081" width="100%" height="100%" xlink:href="#b"/><use x="194.31599" y="319.05579" width="100%" height="100%" xlink:href="#v"/><use x="200.319" y="319.05579" width="100%" height="100%" xlink:href="#t"/><use x="205.323" y="319.05579" width="100%" height="100%" xlink:href="#e"/><use x="207.825" y="319.05579" width="100%" height="100%" xlink:href="#e"/><use x="210.05881" y="319.05579" width="100%" height="100%" xlink:href="#b"/><use x="215.06281" y="319.05579" width="100%" height="100%" xlink:href="#s"/><use x="218.0598" y="319.05579" width="100%" height="100%" xlink:href="#d"/><use x="220.5618" y="319.05579" width="100%" height="100%" xlink:href="#r"/><use x="225.0618" y="319.05579" width="100%" height="100%" xlink:href="#q"/><use x="230.0658" y="319.05579" width="100%" height="100%" xlink:href="#p"/><use x="235.06979" y="319.05579" width="100%" height="100%" xlink:href="#ap"/><use x="239.56979" y="319.05579" width="100%" height="100%" xlink:href="#b"/><use x="256.5014" y="714.95697" width="100%" height="100%" xlink:href="#bh"/><use x="263.11581" y="714.95697" width="100%" height="100%" xlink:href="#bb"/><use x="269.78781" y="714.95697" width="100%" height="100%" xlink:href="#aa"/><use x="277.11981" y="714.95697" width="100%" height="100%" xlink:href="#z"/><use x="280.45581" y="714.95697" width="100%" height="100%" xlink:href="#al"/><use x="287.12781" y="714.95697" width="100%" height="100%" xlink:href="#ak"/><use x="293.7998" y="714.95697" width="100%" height="100%" xlink:href="#aj"/><use x="297.1358" y="714.95697" width="100%" height="100%" xlink:href="#ai"/><use x="300.4718" y="714.95697" width="100%" height="100%" xlink:href="#ba"/><use x="309.1358" y="714.95697" width="100%" height="100%" xlink:href="#aa"/><use x="316.4678" y="714.95697" width="100%" height="100%" xlink:href="#aa"/><use x="323.7998" y="714.95697" width="100%" height="100%" xlink:href="#aj"/><use x="327.1358" y="714.95697" width="100%" height="100%" xlink:href="#z"/><use x="330.4718" y="714.95697" width="100%" height="100%" xlink:href="#al"/><use x="337.1438" y="714.95697" width="100%" height="100%" xlink:href="#ak"/><use x="343.8158" y="714.95697" width="100%" height="100%" xlink:href="#bg"/><use x="347.8118" y="714.95697" width="100%" height="100%" xlink:href="#z"/><use x="351.1478" y="714.95697" width="100%" height="100%" xlink:href="#bf"/><use x="358.4798" y="714.95697" width="100%" height="100%" xlink:href="#be"/><use x="365.8118" y="714.95697" width="100%" height="100%" xlink:href="#ai"/><use x="369.1478" y="714.95697" width="100%" height="100%" xlink:href="#bd"/><use x="375.81979" y="714.95697" width="100%" height="100%" xlink:href="#bc"/><use x="413.79739" y="540.45312" width="100%" height="100%" xlink:href="#ao"/><use x="414.07639" y="602.77808" width="100%" height="100%" xlink:href="#v"/><use x="215.99541" y="257.3851" width="100%" height="100%" xlink:href="#ao"/><use x="216.5174" y="193.0441" width="100%" height="100%" xlink:href="#v"/></g></g><g fill="none" stroke="#211e1e" stroke-width=".75"><path d="m203.78 222.6v-11.617"/><path d="m187.61 222.6v-11.617"/><path d="m171.32 221.82c0.0547 24.395-69.52 100.39-69.52 100.39 23.293-23.289 118.02-17.129 118.02-100.77"/></g><g fill="#211e1e"><path d="m219.31 220.58c-0.26563 0.86719-0.50782 1.4336-0.78516 2.1289h2.6484c-0.11719-0.25-0.51953-1.2617-0.78516-2.1289-0.27734-0.92969-0.47266-1.7734-0.53906-2.3164-0.0664 0.54687-0.26172 1.3867-0.53906 2.3164"/><path d="m170.78 220.59c-0.25781 0.86719-0.5 1.4336-0.77734 2.1289l2.6484-8e-3c-0.1211-0.25-0.52344-1.2578-0.78907-2.125-0.28125-0.92969-0.47656-1.7695-0.54687-2.3164-0.0664 0.54687-0.25781 1.3906-0.53516 2.3203"/><g transform="translate(-122.2 -119.11)"><use x="158.5145" y="450.88959" width="100%" height="100%" xlink:href="#bs"/><use x="163.51849" y="450.88959" width="100%" height="100%" xlink:href="#br"/><use x="168.52251" y="450.88959" width="100%" height="100%" xlink:href="#d"/><use x="171.02451" y="450.88959" width="100%" height="100%" xlink:href="#e"/><use x="173.2583" y="450.88959" width="100%" height="100%" xlink:href="#b"/><use x="178.2623" y="450.88959" width="100%" height="100%" xlink:href="#b"/><use x="183.2663" y="450.88959" width="100%" height="100%" xlink:href="#u"/><use x="185.7683" y="450.88959" width="100%" height="100%" xlink:href="#d"/><use x="188.27029" y="450.88959" width="100%" height="100%" xlink:href="#bq"/><use x="195.7673" y="450.88959" width="100%" height="100%" xlink:href="#bp"/><use x="198.2693" y="450.88959" width="100%" height="100%" xlink:href="#bo"/><use x="204.7673" y="450.88959" width="100%" height="100%" xlink:href="#bn"/><use x="206.73109" y="450.88959" width="100%" height="100%" xlink:href="#d"/><use x="209.23309" y="450.88959" width="100%" height="100%" xlink:href="#u"/><use x="211.73511" y="450.88959" width="100%" height="100%" xlink:href="#i"/><use x="216.73911" y="450.88959" width="100%" height="100%" xlink:href="#d"/><use x="219.2411" y="450.88959" width="100%" height="100%" xlink:href="#b"/><use x="224.2451" y="450.88959" width="100%" height="100%" xlink:href="#k"/><use x="229.2491" y="450.88959" width="100%" height="100%" xlink:href="#an"/><use x="234.2531" y="450.88959" width="100%" height="100%" xlink:href="#b"/><use x="148.1105" y="460.88861" width="100%" height="100%" xlink:href="#i"/><use x="153.1145" y="460.88861" width="100%" height="100%" xlink:href="#e"/><use x="155.6165" y="460.88861" width="100%" height="100%" xlink:href="#d"/><use x="158.1185" y="460.88861" width="100%" height="100%" xlink:href="#q"/><use x="163.1225" y="460.88861" width="100%" height="100%" xlink:href="#p"/><use x="167.9483" y="460.88861" width="100%" height="100%" xlink:href="#am"/><use x="172.2242" y="460.88861" width="100%" height="100%" xlink:href="#b"/><use x="177.2282" y="460.88861" width="100%" height="100%" xlink:href="#bm"/><use x="184.7252" y="460.88861" width="100%" height="100%" xlink:href="#b"/><use x="189.7292" y="460.88861" width="100%" height="100%" xlink:href="#bl"/><use x="194.7332" y="460.88861" width="100%" height="100%" xlink:href="#u"/><use x="197.2352" y="460.88861" width="100%" height="100%" xlink:href="#d"/><use x="199.7372" y="460.88861" width="100%" height="100%" xlink:href="#i"/><use x="204.7412" y="460.88861" width="100%" height="100%" xlink:href="#s"/><use x="207.7382" y="460.88861" width="100%" height="100%" xlink:href="#d"/><use x="210.2402" y="460.88861" width="100%" height="100%" xlink:href="#i"/><use x="215.2442" y="460.88861" width="100%" height="100%" xlink:href="#t"/><use x="220.2482" y="460.88861" width="100%" height="100%" xlink:href="#u"/><use x="222.7502" y="460.88861" width="100%" height="100%" xlink:href="#r"/><use x="227.2502" y="460.88861" width="100%" height="100%" xlink:href="#bk"/><use x="229.2482" y="460.88861" width="100%" height="100%" xlink:href="#k"/><use x="234.2522" y="460.88861" width="100%" height="100%" xlink:href="#b"/><use x="145.5995" y="470.8876" width="100%" height="100%" xlink:href="#b"/><use x="150.6035" y="470.8876" width="100%" height="100%" xlink:href="#k"/><use x="155.6075" y="470.8876" width="100%" height="100%" xlink:href="#an"/><use x="160.6115" y="470.8876" width="100%" height="100%" xlink:href="#b"/><use x="165.61549" y="470.8876" width="100%" height="100%" xlink:href="#d"/><use x="168.11749" y="470.8876" width="100%" height="100%" xlink:href="#i"/><use x="173.12151" y="470.8876" width="100%" height="100%" xlink:href="#e"/><use x="175.6235" y="470.8876" width="100%" height="100%" xlink:href="#d"/><use x="178.1255" y="470.8876" width="100%" height="100%" xlink:href="#q"/><use x="183.1295" y="470.8876" width="100%" height="100%" xlink:href="#p"/><use x="187.95531" y="470.8876" width="100%" height="100%" xlink:href="#am"/><use x="192.2312" y="470.8876" width="100%" height="100%" xlink:href="#b"/><use x="197.2352" y="470.8876" width="100%" height="100%" xlink:href="#k"/><use x="202.2392" y="470.8876" width="100%" height="100%" xlink:href="#d"/><use x="204.7412" y="470.8876" width="100%" height="100%" xlink:href="#r"/><use x="209.2412" y="470.8876" width="100%" height="100%" xlink:href="#bj"/><use x="214.24519" y="470.8876" width="100%" height="100%" xlink:href="#i"/><use x="219.24921" y="470.8876" width="100%" height="100%" xlink:href="#t"/><use x="224.2532" y="470.8876" width="100%" height="100%" xlink:href="#bi"/><use x="226.25121" y="470.8876" width="100%" height="100%" xlink:href="#k"/><use x="231.2552" y="470.8876" width="100%" height="100%" xlink:href="#b"/><use x="236.2592" y="470.8876" width="100%" height="100%" xlink:href="#s"/></g></g><path d="m207.71 217.89h43.703" fill="none" stroke="#211e1e" stroke-width=".75"/><path d="m252.66 217.35c-0.86719-0.26172-1.4336-0.50391-2.1289-0.78125v2.6484c0.2461-0.12109 1.2617-0.52343 2.1289-0.78515 0.92969-0.28125 1.7695-0.47266 2.3164-0.53906-0.54687-0.0703-1.3867-0.26172-2.3164-0.54297" fill="#211e1e"/><path d="m206.47 218.43c0.86719 0.26172 1.4336 0.50391 2.1289 0.78125v-2.6484c-0.25 0.1211-1.2617 0.52344-2.1289 0.78516-0.92968 0.28125-1.7695 0.47266-2.3164 0.53906 0.54687 0.0703 1.3867 0.26172 2.3164 0.54297" fill="#211e1e"/><path d="m140.36 217.89h43.32" fill="none" stroke="#211e1e" stroke-width=".75"/><g><g><path d="m184.92 217.35c-0.86719-0.26172-1.4297-0.50391-2.1289-0.78125v2.6484c0.25-0.12109 1.2617-0.52343 2.1289-0.78515 0.92968-0.28125 1.7734-0.47266 2.3203-0.53906-0.54688-0.0703-1.3906-0.26172-2.3203-0.54297" fill="#211e1e"/><path d="m139.12 218.43c0.86719 0.26172 1.4336 0.50391 2.1289 0.78125v-2.6484c-0.25 0.1211-1.2617 0.52344-2.1289 0.78516-0.92969 0.28125-1.7695 0.47266-2.3164 0.53906 0.54687 0.0703 1.3867 0.26172 2.3164 0.54297" fill="#211e1e"/><path d="m187.92 163.46c1.0742 0 1.9844-0.67188 2.3516-1.6172h15.379v-7.0703h-7.0664v5.2617h-8.3125c-0.36719-0.94532-1.2774-1.6211-2.3516-1.6211-1.3906 0-2.5195 1.1328-2.5195 2.5234 0 1.3945 1.1289 2.5234 2.5195 2.5234" fill="#bf2317"/><path d="m203.36 391.01c-1.0703 0-1.9805 0.67187-2.3476 1.6172h-15.379v7.0703h7.0664v-5.2617h8.3125c0.36718 0.94531 1.2773 1.6211 2.3476 1.6211 1.3945 0 2.5234-1.1328 2.5234-2.5234 0-1.3945-1.1289-2.5234-2.5234-2.5234" fill="#bf2317"/><path d="m389 516.65-27.16-27.355c-1.3086-1.3242-3.4922-1.3203-4.8008 0l-27.152 27.355c-1.3047 1.3125-1.3125 3.5117 0 4.8281l27.152 27.355c1.3047 1.3086 3.4961 1.3164 4.8008 4e-3l27.16-27.359c1.4062-1.418 1.1719-3.3828 0-4.8281" fill="#f58511" stroke="#211e1e" stroke-width=".25"/></g><g fill-rule="evenodd"><path d="m388.4 520.86-27.164 27.355c-0.97657 0.98438-2.6055 0.98047-3.582 0l-27.156-27.355c-0.97266-0.98437-0.98047-2.6211 0-3.6055l27.156-27.363c0.97265-0.96875 2.6133-0.97265 3.582 0l27.16 27.363c0.97266 0.98047 0.97657 2.625 4e-3 3.6055" fill="#211e1e"/><path d="m387.39 519.85c0.41797-0.42969 0.41797-1.1484 0-1.5781l-27.164-27.355c-0.42578-0.42187-1.1406-0.42968-1.5625 0l-27.16 27.355c-0.42188 0.4375-0.42969 1.1406 0 1.5781l27.16 27.355c0.42579 0.42968 1.1328 0.42578 1.5625 0l27.164-27.355" fill="#f58511"/><path d="m378.11 512.46h-1.3906l-1.8125 2.8867-1.7852-2.8867h-1.418l2.625 4.2266v3.2539h1.1797v-3.2539zm-7.1133 7.4805v-1.207h-3.4648v-2.0469h2.1758v-1.207h-2.1758v-1.8398h3.2266v-1.1797h-4.4141v7.4805zm-5.7539-7.4805h-1.2578l-1.5742 4.9844-1.6016-4.9844h-1.2344l2.3633 7.4805h0.91797zm-7.582 2.0977c0 0.3164-0.1875 0.6289-0.47656 0.78906-0.18359 0.10156-0.3164 0.13281-0.68359 0.13281h-1.418v-1.8398h1.418c0.39453 0 0.5 0.0273 0.68359 0.12891 0.28906 0.16015 0.47656 0.47656 0.47656 0.78906m1.3359 5.3828-1.3164-3.4922c0.6875-0.3125 1.1562-1.1016 1.1562-1.8906 0-0.76172-0.46875-1.5469-1.125-1.8633-0.3711-0.1836-0.76172-0.23438-1.3398-0.23438h-2.4688v7.4805h1.1797v-3.2539h1.418l1.2109 3.2539zm-6.8516-2.6758v-4.8047h-1.1797v4.8047c0 0.96875-0.55469 1.5977-1.3672 1.5977s-1.3672-0.62891-1.3672-1.5977v-4.8047h-1.1797v4.8047c0 0.57422 0.13281 1.1016 0.33984 1.5469 0.39453 0.73438 1.2891 1.2617 2.207 1.2617 0.91797 0 1.8125-0.52734 2.2031-1.2617 0.21094-0.44531 0.34375-0.97265 0.34375-1.5469m-6.3281 0.52344c0-2.9414-3.5195-2.0195-3.6211-3.4141-0.0547-0.68359 0.60156-0.89453 1.1523-0.86328 0.83985 0.0234 1.1055 0.65235 1.1055 0.65235l1.0469-0.3125c-0.36719-0.91797-1.0742-1.5234-2.125-1.5234-1.3398 0-2.3359 0.55078-2.3359 2.0195 0 1.2383 0.99609 1.6836 1.4414 1.8672 0.97265 0.39062 2.1289 0.55078 2.1289 1.5469 0 0.63282-0.47265 1.1016-1.1562 1.1016-0.70703 0-1.2852-0.39063-1.6016-1.1016l-1.1289 0.42188c0.5 1.1289 1.4453 1.8906 2.7305 1.8906 0.62891 0 1.2109-0.21093 1.6289-0.58203 0.47266-0.41797 0.73437-1.0195 0.73437-1.7031" fill="#211e1e"/><path d="m371.88 524.38h-1.207l-0.57813 3.9375-0.97265-3.9375h-1.1524l-0.94531 3.9375-0.58203-3.9375h-1.2031l1.1016 7.4805h1.0508l1.1562-4.8008 1.1797 4.8008h1.0469zm-7.2188 7.4805v-1.207h-3.4688v-2.0469h2.1797v-1.207h-2.1797v-1.8359h3.2305v-1.1836h-4.4102v7.4805zm-7.2188-5.3789c0 0.3125-0.1875 0.62891-0.47656 0.78906-0.1836 0.10156-0.3125 0.12891-0.67969 0.12891h-1.4219v-1.8359h1.4219c0.39453 0 0.49609 0.0234 0.67969 0.12891 0.28906 0.15625 0.47656 0.47265 0.47656 0.78906m1.3359 5.3789-1.3125-3.4883c0.68359-0.3164 1.1562-1.1016 1.1562-1.8906 0-0.76172-0.47266-1.5508-1.1328-1.8672-0.36719-0.17969-0.75782-0.23437-1.3359-0.23437h-2.4688v7.4805h1.1797v-3.2539h1.4219l1.2031 3.2539zm-6.7188-1.5195-1.1289-0.42187c-0.28906 0.60547-0.65625 0.86719-1.1562 0.86719-0.52734 0-0.86719-0.1836-1.1289-0.57813-0.28907-0.47265-0.47266-1.2852-0.47266-2.1016 0-0.62891 0.10547-1.2852 0.28906-1.7305 0.26172-0.65625 0.65625-0.92187 1.2617-0.92187 0.57422 0 0.8125 0.16015 1.2305 0.78906l1.1055-0.47266c-0.5-1.0508-1.207-1.5234-2.3359-1.5234-0.83984 0-1.4727 0.28907-1.918 0.84375-0.52734 0.65235-0.83984 1.8359-0.83984 3.0156 0 0.94531 0.21094 1.8906 0.55078 2.5469 0.47266 0.92188 1.1797 1.3438 2.2852 1.3438 1.0742 0 1.8086-0.55468 2.2578-1.6562" fill="#211e1e"/></g><path d="m1.4507 37.207 27.16 27.355c1.3047 1.3203 3.4883 1.3164 4.7969 0l27.156-27.355c1.3047-1.3164 1.3086-3.5156 0-4.8281l-27.156-27.359c-1.3047-1.3086-3.4961-1.3164-4.7969 0l-27.16 27.359c-1.4062 1.4141-1.1719 3.3789 0 4.8281" fill="#f58511" stroke="#211e1e" stroke-width=".25"/><path d="m2.0562 32.988 27.16-27.355c0.97656-0.98046 2.6055-0.98046 3.5859 0l27.152 27.355c0.97266 0.98438 0.98047 2.6211 0 3.6055l-27.152 27.363c-0.97656 0.97266-2.6133 0.97656-3.5859 0l-27.16-27.363c-0.96875-0.98047-0.97266-2.625 0-3.6055" fill="#211e1e" fill-rule="evenodd"/><path d="m3.064 34.004c-0.42188 0.42968-0.42188 1.1523 0 1.582l27.164 27.352c0.42578 0.42188 1.1406 0.43359 1.5625 0l27.156-27.352c0.42188-0.44141 0.42969-1.1445 0-1.582l-27.156-27.355c-0.42969-0.42969-1.1328-0.42578-1.5625 0l-27.164 27.355" fill="#f58511" fill-rule="evenodd"/></g><g fill="#211e1e"><path d="m12.337 41.398h1.3945l1.8125-2.8906 1.7852 2.8906h1.418l-2.6289-4.2266v-3.2539h-1.1797v3.2539zm7.1172-7.4805v1.207h3.4648v2.0469h-2.1797v1.207h2.1797v1.8359h-3.2305v1.1836h4.4141v-7.4805zm5.75 7.4805h1.2617l1.5742-4.9883 1.6016 4.9883h1.2344l-2.3633-7.4805h-0.91797zm7.5859-2.1016c0-0.31641 0.18359-0.62891 0.47266-0.78907 0.18359-0.10156 0.3164-0.1289 0.68359-0.1289h1.418v1.8359h-1.418c-0.39453 0-0.5-0.0273-0.68359-0.1289-0.28907-0.16016-0.47266-0.47266-0.47266-0.78906m-1.3398-5.3789 1.3164 3.4883c-0.68359 0.31641-1.1562 1.1016-1.1562 1.8906 0 0.76171 0.47266 1.5469 1.1289 1.8672 0.36719 0.17969 0.76172 0.23438 1.3359 0.23438h2.4688v-7.4805h-1.1797v3.2539h-1.418l-1.207-3.2539zm6.8555 2.6758v4.8047h1.1797v-4.8047c0-0.97266 0.55078-1.6016 1.3633-1.6016 0.81641 0 1.3672 0.6289 1.3672 1.6016v4.8047h1.1836v-4.8047c0-0.57812-0.13282-1.1016-0.34375-1.5508-0.39063-0.73438-1.2852-1.2617-2.207-1.2617-0.91796 0-1.8086 0.52734-2.2031 1.2617-0.21094 0.44922-0.33984 0.97266-0.33984 1.5508m6.3281-0.52344c0 2.9375 3.5156 2.0195 3.6211 3.4102 0.0508 0.68359-0.60546 0.89453-1.1562 0.86719-0.83984-0.0273-1.1016-0.65625-1.1016-0.65625l-1.0508 0.3125c0.36719 0.92187 1.0781 1.5273 2.125 1.5273 1.3398 0 2.3359-0.55469 2.3359-2.0234 0-1.2344-0.9961-1.6797-1.4414-1.8672-0.97265-0.39063-2.125-0.55079-2.125-1.5469 0-0.62891 0.47266-1.1016 1.1524-1.1016 0.71093 0 1.2891 0.39453 1.6016 1.1016l1.1289-0.42187c-0.5-1.125-1.4414-1.8906-2.7305-1.8906-0.62891 0-1.207 0.21484-1.625 0.58203-0.47657 0.41797-0.73438 1.0234-0.73438 1.707" fill-rule="evenodd"/><path d="m18.568 29.473h1.207l0.57421-3.9375 0.97266 3.9375h1.1562l0.94531-3.9375 0.57813 3.9375h1.207l-1.1055-7.4805h-1.0469l-1.1562 4.8008-1.1797-4.8008h-1.0508zm7.2148-7.4805v1.207h3.4688v2.0469h-2.1797v1.207h2.1797v1.8398h-3.2305v1.1797h4.4141v-7.4805zm7.2226 5.3828c0-0.31641 0.1836-0.62891 0.47266-0.78906 0.18359-0.10547 0.3125-0.13281 0.67969-0.13281h1.4219v1.8398h-1.4219c-0.39063 0-0.4961-0.0273-0.67969-0.13281-0.28906-0.15625-0.47266-0.47266-0.47266-0.78516m-1.3359-5.3828 1.3125 3.4883c-0.6836 0.31641-1.1602 1.1055-1.1602 1.8945 0 0.75781 0.47656 1.5469 1.1328 1.8633 0.36719 0.1836 0.75782 0.23438 1.3398 0.23438h2.4648v-7.4805h-1.1797v3.2539h-1.4219l-1.2031-3.2539zm6.7188 1.5195 1.1289 0.42187c0.28907-0.60546 0.65625-0.86718 1.1524-0.86718 0.52734 0 0.86718 0.18359 1.1289 0.57812 0.28907 0.47266 0.47266 1.2852 0.47266 2.1016 0 0.62891-0.10547 1.2852-0.28906 1.7344-0.26172 0.65234-0.65625 0.91797-1.2578 0.91797-0.57812 0-0.8125-0.16016-1.2344-0.78906l-1.1016 0.47265c0.49609 1.0508 1.207 1.5234 2.3359 1.5234 0.83985 0 1.4688-0.28906 1.9141-0.83984 0.52734-0.65625 0.83984-1.8398 0.83984-3.0195 0-0.94531-0.20703-1.8906-0.55078-2.5469-0.47266-0.91797-1.1797-1.3438-2.2812-1.3438-1.0781 0-1.8125 0.55469-2.2578 1.6562" fill-rule="evenodd"/><g transform="translate(-122.2 -119.11)"><use x="384.14059" y="161.35451" width="100%" height="100%" xlink:href="#az"/><use x="389.9166" y="161.35451" width="100%" height="100%" xlink:href="#g"/><use x="394.36459" y="161.35451" width="100%" height="100%" xlink:href="#f"/><use x="396.58859" y="161.35451" width="100%" height="100%" xlink:href="#c"/><use x="401.03659" y="161.35451" width="100%" height="100%" xlink:href="#as"/><use x="402.86221" y="161.35451" width="100%" height="100%" xlink:href="#a"/><use x="406.14139" y="161.35451" width="100%" height="100%" xlink:href="#ar"/><use x="411.47739" y="161.35451" width="100%" height="100%" xlink:href="#c"/><use x="415.92542" y="161.35451" width="100%" height="100%" xlink:href="#c"/><use x="420.37341" y="161.35451" width="100%" height="100%" xlink:href="#a"/><use x="422.19901" y="161.35451" width="100%" height="100%" xlink:href="#aq"/><use x="426.1286" y="161.35451" width="100%" height="100%" xlink:href="#l"/><use x="430.5766" y="161.35451" width="100%" height="100%" xlink:href="#ah"/><use x="434.867" y="161.35451" width="100%" height="100%" xlink:href="#y"/><use x="436.64301" y="161.35451" width="100%" height="100%" xlink:href="#c"/><use x="441.091" y="161.35451" width="100%" height="100%" xlink:href="#h"/><use x="445.091" y="161.35451" width="100%" height="100%" xlink:href="#a"/><use x="447.315" y="161.35451" width="100%" height="100%" xlink:href="#ag"/><use x="451.763" y="161.35451" width="100%" height="100%" xlink:href="#af"/><use x="457.099" y="161.35451" width="100%" height="100%" xlink:href="#ae"/><use x="459.763" y="161.35451" width="100%" height="100%" xlink:href="#ay"/><use x="464.211" y="161.35451" width="100%" height="100%" xlink:href="#a"/><use x="466.435" y="161.35451" width="100%" height="100%" xlink:href="#l"/><use x="470.883" y="161.35451" width="100%" height="100%" xlink:href="#j"/><use x="475.33099" y="161.35451" width="100%" height="100%" xlink:href="#o"/><use x="479.77899" y="161.35451" width="100%" height="100%" xlink:href="#a"/><use x="482.00299" y="161.35451" width="100%" height="100%" xlink:href="#ag"/><use x="486.45099" y="161.35451" width="100%" height="100%" xlink:href="#af"/><use x="491.78699" y="161.35451" width="100%" height="100%" xlink:href="#ae"/><use x="494.45099" y="161.35451" width="100%" height="100%" xlink:href="#ax"/><use x="498.89899" y="161.35451" width="100%" height="100%" xlink:href="#a"/><use x="501.12299" y="161.35451" width="100%" height="100%" xlink:href="#x"/><use x="503.10941" y="161.35451" width="100%" height="100%" xlink:href="#g"/><use x="507.5574" y="161.35451" width="100%" height="100%" xlink:href="#n"/><use x="510.22141" y="161.35451" width="100%" height="100%" xlink:href="#a"/><use x="512.44537" y="161.35451" width="100%" height="100%" xlink:href="#f"/><use x="514.66937" y="161.35451" width="100%" height="100%" xlink:href="#w"/><use x="519.11737" y="161.35451" width="100%" height="100%" xlink:href="#c"/><use x="523.56543" y="161.35451" width="100%" height="100%" xlink:href="#a"/><use x="406.14059" y="170.35451" width="100%" height="100%" xlink:href="#ad"/><use x="412.8046" y="170.35451" width="100%" height="100%" xlink:href="#c"/><use x="417.25259" y="170.35451" width="100%" height="100%" xlink:href="#l"/><use x="421.70059" y="170.35451" width="100%" height="100%" xlink:href="#j"/><use x="426.14859" y="170.35451" width="100%" height="100%" xlink:href="#m"/><use x="427.92459" y="170.35451" width="100%" height="100%" xlink:href="#j"/><use x="432.37259" y="170.35451" width="100%" height="100%" xlink:href="#ac"/><use x="436.82059" y="170.35451" width="100%" height="100%" xlink:href="#a"/><use x="439.04459" y="170.35451" width="100%" height="100%" xlink:href="#g"/><use x="443.49261" y="170.35451" width="100%" height="100%" xlink:href="#x"/><use x="445.71661" y="170.35451" width="100%" height="100%" xlink:href="#a"/><use x="447.94061" y="170.35451" width="100%" height="100%" xlink:href="#f"/><use x="450.16461" y="170.35451" width="100%" height="100%" xlink:href="#w"/><use x="454.61261" y="170.35451" width="100%" height="100%" xlink:href="#c"/><use x="459.06061" y="170.35451" width="100%" height="100%" xlink:href="#a"/><use x="461.28461" y="170.35451" width="100%" height="100%" xlink:href="#h"/><use x="465.28461" y="170.35451" width="100%" height="100%" xlink:href="#aw"/><use x="469.28461" y="170.35451" width="100%" height="100%" xlink:href="#ad"/><use x="475.94861" y="170.35451" width="100%" height="100%" xlink:href="#ah"/><use x="480.39661" y="170.35451" width="100%" height="100%" xlink:href="#g"/><use x="484.8446" y="170.35451" width="100%" height="100%" xlink:href="#y"/><use x="486.62061" y="170.35451" width="100%" height="100%" xlink:href="#h"/><use x="490.62061" y="170.35451" width="100%" height="100%" xlink:href="#a"/><use x="492.8446" y="170.35451" width="100%" height="100%" xlink:href="#l"/><use x="497.2926" y="170.35451" width="100%" height="100%" xlink:href="#j"/><use x="501.7406" y="170.35451" width="100%" height="100%" xlink:href="#o"/><use x="506.1886" y="170.35451" width="100%" height="100%" xlink:href="#av"/><use x="508.4126" y="170.35451" width="100%" height="100%" xlink:href="#g"/><use x="512.8606" y="170.35451" width="100%" height="100%" xlink:href="#n"/><use x="515.5246" y="170.35451" width="100%" height="100%" xlink:href="#a"/><use x="406.14059" y="179.35451" width="100%" height="100%" xlink:href="#y"/><use x="407.9166" y="179.35451" width="100%" height="100%" xlink:href="#c"/><use x="412.36459" y="179.35451" width="100%" height="100%" xlink:href="#f"/><use x="414.58859" y="179.35451" width="100%" height="100%" xlink:href="#f"/><use x="416.81259" y="179.35451" width="100%" height="100%" xlink:href="#c"/><use x="421.26059" y="179.35451" width="100%" height="100%" xlink:href="#n"/><use x="423.92459" y="179.35451" width="100%" height="100%" xlink:href="#a"/><use x="426.14859" y="179.35451" width="100%" height="100%" xlink:href="#au"/><use x="430.14859" y="179.35451" width="100%" height="100%" xlink:href="#g"/><use x="434.59659" y="179.35451" width="100%" height="100%" xlink:href="#o"/><use x="439.04459" y="179.35451" width="100%" height="100%" xlink:href="#c"/><use x="443.49261" y="179.35451" width="100%" height="100%" xlink:href="#h"/><use x="447.49261" y="179.35451" width="100%" height="100%" xlink:href="#a"/><use x="449.71661" y="179.35451" width="100%" height="100%" xlink:href="#ab"/><use x="454.16461" y="179.35451" width="100%" height="100%" xlink:href="#h"/><use x="458.16461" y="179.35451" width="100%" height="100%" xlink:href="#c"/><use x="462.61261" y="179.35451" width="100%" height="100%" xlink:href="#o"/><use x="467.06061" y="179.35451" width="100%" height="100%" xlink:href="#a"/><use x="469.28461" y="179.35451" width="100%" height="100%" xlink:href="#m"/><use x="471.06061" y="179.35451" width="100%" height="100%" xlink:href="#j"/><use x="475.50861" y="179.35451" width="100%" height="100%" xlink:href="#a"/><use x="477.7326" y="179.35451" width="100%" height="100%" xlink:href="#f"/><use x="479.9566" y="179.35451" width="100%" height="100%" xlink:href="#w"/><use x="484.4046" y="179.35451" width="100%" height="100%" xlink:href="#m"/><use x="486.1806" y="179.35451" width="100%" height="100%" xlink:href="#h"/><use x="490.1806" y="179.35451" width="100%" height="100%" xlink:href="#a"/><use x="492.4046" y="179.35451" width="100%" height="100%" xlink:href="#x"/><use x="494.6286" y="179.35451" width="100%" height="100%" xlink:href="#m"/><use x="496.4046" y="179.35451" width="100%" height="100%" xlink:href="#ac"/><use x="500.8526" y="179.35451" width="100%" height="100%" xlink:href="#ab"/><use x="505.3006" y="179.35451" width="100%" height="100%" xlink:href="#n"/><use x="507.9646" y="179.35451" width="100%" height="100%" xlink:href="#c"/><use x="512.29419" y="179.35451" width="100%" height="100%" xlink:href="#at"/></g></g></svg>
