<?xml version="1.0" encoding="UTF-8"?>
<svg width="365.19pt" height="596.73pt" version="1.2" viewBox="0 0 365.19 596.73" xmlns="http://www.w3.org/2000/svg" xmlns:xlink="http://www.w3.org/1999/xlink"><defs><symbol id="bb" overflow="visible"><path d="m0.125-5.6875h2.1875v5.6875h0.875v-5.6875h2.1875v-0.78125h-5.25z"/></symbol><symbol id="n" overflow="visible"><path d="m1.4844-2.7344c0-0.6875 0.46875-1.2656 1.2031-1.2656h0.29688v-0.8125c-0.0625-0.015625-0.10938-0.03125-0.20312-0.03125-0.59375 0-1.0156 0.375-1.3281 0.92188h-0.015625v-0.78125h-0.75v4.7031h0.79688z"/></symbol><symbol id="r" overflow="visible"><path d="m4.4062 0v-4.7031h-0.79688v2.5938c0 0.67188-0.29688 1.5625-1.2969 1.5625-0.51562 0-0.90625-0.26562-0.90625-1.0312v-3.125h-0.79688v3.375c0 1.125 0.84375 1.4688 1.5312 1.4688 0.75 0 1.1562-0.29688 1.5-0.84375l0.015625 0.015625v0.6875z"/></symbol><symbol id="aa" overflow="visible"><path d="m4.2969-3.125c-0.0625-0.8125-0.53125-1.7188-1.7656-1.7188-1.5625 0-2.2656 1.1562-2.2656 2.625 0 1.3594 0.78125 2.3594 2.1094 2.3594 1.375 0 1.8438-1.0625 1.9219-1.8125h-0.76562c-0.14062 0.73438-0.59375 1.125-1.125 1.125-1.0938 0-1.2969-1-1.2969-1.8125 0-0.82812 0.32812-1.7656 1.2969-1.7656 0.67188 0 1.0156 0.375 1.125 1z"/></symbol><symbol id="z" overflow="visible"><path d="m2.5938-2.9531 1.8125-1.75h-1.0156l-2.0156 1.9844v-3.75h-0.76562v6.4688h0.76562v-1.7812l0.65625-0.59375 1.4531 2.375h1.0312z"/></symbol><symbol id="ax" overflow="visible"><path d="m2.5938-2.8906h-2.2031v0.79688h2.2031z"/></symbol><symbol id="aw" overflow="visible"><path d="m0.57812 0h0.79688v-2.5625c0-1.2812 0.79688-1.5625 1.25-1.5625 0.57812 0 0.73438 0.46875 0.73438 0.85938v3.2656h0.79688v-2.875c0-0.625 0.4375-1.25 1.0938-1.25 0.6875 0 0.875 0.4375 0.875 1.0781v3.0469h0.79688v-3.2656c0-1.3125-0.95312-1.5781-1.4531-1.5781-0.73438 0-1.0469 0.32812-1.4531 0.76562-0.125-0.25-0.39062-0.76562-1.25-0.76562-0.84375 0-1.25 0.54688-1.4219 0.79688h-0.015625v-0.65625h-0.75z"/></symbol><symbol id="c" overflow="visible"><path d="m0.3125-2.3594c0 1.2188 0.6875 2.4844 2.1875 2.4844s2.1875-1.2656 2.1875-2.4844-0.6875-2.4844-2.1875-2.4844-2.1875 1.2656-2.1875 2.4844zm0.82812 0c0-0.625 0.23438-1.7969 1.3594-1.7969 1.1406 0 1.375 1.1719 1.375 1.7969s-0.23438 1.7969-1.375 1.7969c-1.125 0-1.3594-1.1719-1.3594-1.7969z"/></symbol><symbol id="j" overflow="visible"><path d="m4.4219-3.2031c0-1.3438-0.92188-1.6406-1.6562-1.6406-0.79688 0-1.25 0.54688-1.4219 0.79688h-0.015625v-0.65625h-0.75v4.7031h0.79688v-2.5625c0-1.2812 0.79688-1.5625 1.25-1.5625 0.76562 0 1 0.40625 1 1.2344v2.8906h0.79688z"/></symbol><symbol id="e" overflow="visible"><path d="m2.3125-4.0469v-0.65625h-0.75v-1.3125h-0.79688v1.3125h-0.64062v0.65625h0.64062v3.1094c0 0.5625 0.17188 1 0.95312 1 0.078125 0 0.3125-0.03125 0.59375-0.0625v-0.625h-0.28125c-0.15625 0-0.46875 0-0.46875-0.35938v-3.0625z"/></symbol><symbol id="d" overflow="visible"><path d="m3.7812-1.4688c-0.015625 0.34375-0.45312 0.92188-1.2031 0.92188-0.90625 0-1.375-0.5625-1.375-1.5469h3.4375c0-1.6719-0.65625-2.75-2.0156-2.75-1.5625 0-2.2656 1.1562-2.2656 2.625 0 1.3594 0.78125 2.3594 2.1094 2.3594 0.75 0 1.0625-0.1875 1.2812-0.32812 0.59375-0.39062 0.79688-1.0625 0.82812-1.2812zm-2.5781-1.2656c0-0.71875 0.57812-1.3906 1.3125-1.3906 0.95312 0 1.2656 0.67188 1.3125 1.3906z"/></symbol><symbol id="v" overflow="visible"><path d="m4.4844-6.4688h-0.78125v2.4219h-0.015625c-0.20312-0.26562-0.5625-0.79688-1.4062-0.79688-1.25 0-1.9688 1.0312-1.9688 2.3438 0 1.125 0.46875 2.6406 2.0781 2.6406 0.45312 0 1-0.15625 1.3281-0.78125h0.03125v0.64062h0.73438zm-3.3438 4.1094c0-0.60938 0.0625-1.7656 1.2812-1.7656 1.1406 0 1.2656 1.2344 1.2656 1.9844 0 1.2656-0.78125 1.5938-1.2812 1.5938-0.875 0-1.2656-0.78125-1.2656-1.8125z"/></symbol><symbol id="k" overflow="visible"></symbol><symbol id="g" overflow="visible"><path d="m1.2812-3.2812c0.0625-0.35938 0.1875-0.90625 1.0781-0.90625 0.75 0 1.1094 0.26562 1.1094 0.76562 0 0.46875-0.21875 0.54688-0.40625 0.5625l-1.3125 0.15625c-1.3125 0.17188-1.4219 1.0781-1.4219 1.4844 0 0.8125 0.60938 1.3594 1.4688 1.3594 0.92188 0 1.3906-0.4375 1.7031-0.76562 0.03125 0.35938 0.14062 0.71875 0.84375 0.71875 0.17188 0 0.29688-0.0625 0.42188-0.09375v-0.57812c-0.078125 0.015625-0.1875 0.03125-0.25 0.03125-0.17188 0-0.26562-0.078125-0.26562-0.26562v-2.7188c0-1.2031-1.375-1.3125-1.75-1.3125-1.1562 0-1.9062 0.4375-1.9375 1.5625zm2.1719 1.6562c0 0.625-0.71875 1.1094-1.4531 1.1094-0.59375 0-0.85938-0.3125-0.85938-0.82812 0-0.59375 0.625-0.70312 1.0156-0.76562 0.96875-0.125 1.1719-0.1875 1.2969-0.29688z"/></symbol><symbol id="ak" overflow="visible"><path d="m2.1406-6.5938c-0.98438 1.375-1.5312 2.6562-1.5312 4.25 0 1.6719 0.60938 2.7969 1.5469 4.2031h0.53125c-0.71875-1.4062-1.2344-2.5-1.2344-4 0-2.1562 0.46875-3.0156 1.2344-4.4531z"/></symbol><symbol id="o" overflow="visible"><path d="m1.2812-2.1406c0-0.75 0.125-1.9844 1.2656-1.9844 1.2188 0 1.2812 1.1562 1.2812 1.7656 0 1.0312-0.40625 1.8125-1.2656 1.8125-0.5 0-1.2812-0.32812-1.2812-1.5938zm-0.76562 4h0.79688v-2.3594h0.015625c0.20312 0.34375 0.625 0.64062 1.25 0.64062 1.6094 0 2.0781-1.5156 2.0781-2.6406 0-1.3125-0.71875-2.3438-1.9688-2.3438-0.84375 0-1.2188 0.53125-1.4062 0.79688h-0.015625v-0.65625h-0.75z"/></symbol><symbol id="q" overflow="visible"><path d="m1.3906-4.7031h-0.78125v4.7031h0.78125zm0-0.85938v-0.90625h-0.78125v0.90625z"/></symbol><symbol id="s" overflow="visible"><path d="m1.3906-6.4688h-0.78125v6.4688h0.78125z"/></symbol><symbol id="aj" overflow="visible"><path d="m0.85938 1.8594c0.98438-1.375 1.5312-2.6562 1.5312-4.25 0-1.6719-0.625-2.7969-1.5469-4.2031h-0.53125c0.71875 1.4062 1.2188 2.5 1.2188 4 0 2.1562-0.45312 3.0156-1.2188 4.4531z"/></symbol><symbol id="bz" overflow="visible"><path d="m4.2344-5.3594h0.015625l1.4844 5.3594h0.92188l1.7031-6.4688h-0.96875l-1.2031 5.2656h-0.015625l-1.4531-5.2656h-0.95312l-1.4531 5.2656h-0.015625l-1.2031-5.2656h-0.95312l1.6875 6.4688h0.92188z"/></symbol><symbol id="ba" overflow="visible"><path d="m2.2344-0.875h-0.015625l-1.2344-3.8281h-0.90625l1.7188 4.7031h0.84375l1.7812-4.7031h-0.85938z"/></symbol><symbol id="u" overflow="visible"><path d="m4.4219-3.2031c0-1.3438-0.92188-1.6406-1.6562-1.6406-0.75 0-1.1406 0.46875-1.375 0.76562h-0.015625v-2.3906h-0.79688v6.4688h0.79688v-2.5625c0-1.1875 0.67188-1.5625 1.3125-1.5625 0.76562 0 0.9375 0.40625 0.9375 1.0469v3.0781h0.79688z"/></symbol><symbol id="by" overflow="visible"><path d="m5.4062-4.5781c-0.046875-0.70312-0.26562-2.0625-2.5312-2.0625-1.5625 0-2.2188 1-2.2188 2 0 1.125 0.95312 1.4219 1.375 1.5312l1.3281 0.29688c1.0625 0.25 1.375 0.46875 1.375 1.1406 0 0.9375-1.0625 1.0938-1.6875 1.0938-0.82812 0-1.7812-0.34375-1.7812-1.5156h-0.82812c0 0.60938 0.10938 1.1562 0.65625 1.6406 0.29688 0.26562 0.76562 0.625 1.9531 0.625 1.1094 0 2.5312-0.42188 2.5312-1.9531 0-1.0312-0.625-1.5312-1.4688-1.7344l-1.8438-0.42188c-0.375-0.078125-0.76562-0.26562-0.76562-0.8125 0-0.98438 0.9375-1.1406 1.4844-1.1406 0.71875 0 1.5469 0.3125 1.5938 1.3125z"/></symbol><symbol id="az" overflow="visible"><path d="m3.2188-3.6406h0.015625l0.95312 3.6406h0.82812l1.3594-4.7031h-0.78125l-0.95312 3.6875h-0.03125l-0.90625-3.6875h-0.89062l-0.90625 3.6875h-0.015625l-0.90625-3.6875h-0.85938l1.3594 4.7031h0.8125z"/></symbol><symbol id="bx" overflow="visible"><path d="m4.9219-6.4688v4.0938c0 1.4062-0.90625 1.7656-1.7031 1.7656-0.78125 0-1.6406-0.375-1.6406-1.7812v-4.0781h-0.85938v4.3125c0 1.2188 0.73438 2.3281 2.4688 2.3281 1.7812 0 2.6094-1.1094 2.6094-2.4375v-4.2031z"/></symbol><symbol id="ai" overflow="visible"><path d="m4.0156-3.3594c0-0.23438-0.10938-1.4844-1.7969-1.4844-0.92188 0-1.7812 0.46875-1.7812 1.5 0 0.65625 0.4375 0.98438 1.0938 1.1406l0.92188 0.23438c0.67188 0.17188 0.9375 0.29688 0.9375 0.67188 0 0.51562-0.51562 0.75-1.0938 0.75-1.1094 0-1.2188-0.59375-1.25-0.96875h-0.76562c0.03125 0.57812 0.17188 1.6562 2.0312 1.6562 1.0625 0 1.8594-0.59375 1.8594-1.5625 0-0.64062-0.34375-1-1.3125-1.2344l-0.79688-0.20312c-0.60938-0.15625-0.85938-0.25-0.85938-0.625 0-0.59375 0.70312-0.67188 0.9375-0.67188 1 0 1.1094 0.5 1.125 0.79688z"/></symbol><symbol id="ay" overflow="visible"><path d="m1.1719-2.3594c0-0.60938 0.0625-1.7656 1.2969-1.7656 1.1406 0 1.2656 1.2344 1.2656 1.9844 0 1.2656-0.78125 1.5938-1.2812 1.5938-0.875 0-1.2812-0.78125-1.2812-1.8125zm3.3125-2.3438h-0.73438v0.6875c-0.20312-0.28125-0.57812-0.82812-1.4219-0.82812-1.25 0-1.9688 1.0312-1.9688 2.3438 0 1.125 0.46875 2.6406 2.0781 2.6406 0.625 0 1.0312-0.29688 1.2656-0.67188v0.20312c0 0.54688 0.015625 1.6562-1.3438 1.6562-0.1875 0-0.92188 0-1.0625-0.75h-0.79688c0.15625 1.25 1.25 1.4062 1.7969 1.4062 2.1875 0 2.1875-1.7031 2.1875-2.375z"/></symbol><symbol id="bw" overflow="visible"><path d="m2.2656-0.875h-0.015625l-1.25-3.8281h-0.90625l1.75 4.8281c-0.375 0.96875-0.42188 1.0938-0.82812 1.0938-0.21875 0-0.39062-0.046875-0.48438-0.078125v0.71875c0.125 0.03125 0.21875 0.0625 0.32812 0.0625 1.0156 0 1.1094-0.10938 1.8438-2.0156 0.60938-1.5312 1.1562-3.0781 1.7031-4.6094h-0.875z"/></symbol><symbol id="bv" overflow="visible"><path d="m2.3594-4.0469v-0.65625h-0.79688v-0.59375c0-0.375 0.125-0.54688 0.46875-0.54688 0.10938 0 0.23438 0.015625 0.32812 0.015625v-0.70312c-0.125-0.015625-0.25-0.015625-0.35938-0.015625-0.78125 0-1.2188 0.3125-1.2188 1.0312v0.8125h-0.65625v0.65625h0.65625v4.0469h0.78125v-4.0469z"/></symbol><symbol id="bu" overflow="visible"><path d="m4.5781-7.0938h2.5938v-1.5156h-7v1.5156h2.5938v7.0938h1.8125z"/></symbol><symbol id="bo" overflow="visible"><path d="m6.4688-6.3906h-1.7812l-1.2969 4.7031h-0.03125l-1.375-4.7031h-1.8594l2.3438 6.6562c-0.15625 0.875-0.48438 0.95312-1.0938 0.95312-0.15625 0-0.26562 0-0.32812-0.015625v1.3438c0.23438 0.015625 0.53125 0.015625 0.75 0.015625 1.4688 0 1.6875-0.3125 2.4688-2.6719z"/></symbol><symbol id="ah" overflow="visible"><path d="m2.3594-3.0469c0-1.0156 0.26562-2.0469 1.4219-2.0469 1.0625 0 1.4219 0.9375 1.4219 1.9531 0 0.75-0.29688 1.9219-1.375 1.9219-1.0625 0-1.4688-0.875-1.4688-1.8281zm0-3.3438h-1.6094v8.875h1.6719v-3.2969h0.03125c0.20312 0.34375 0.625 0.98438 1.7969 0.98438 1.8906 0 2.6875-1.6875 2.6875-3.4375 0-2.2031-1.25-3.2812-2.6562-3.2812-1.125 0-1.5938 0.57812-1.9062 1.0938h-0.015625z"/></symbol><symbol id="ag" overflow="visible"><path d="m0.82812-6.3906v6.3906h1.6875v-6.3906zm1.6875-2.3125h-1.6875v1.5625h1.6875z"/></symbol><symbol id="av" overflow="visible"><path d="m4.5781-2.3281c0 0.29688-0.29688 1.1094-1.1406 1.1094-1.2812 0-1.2969-1.375-1.2969-2.0625 0-0.79688 0.26562-1.8594 1.3281-1.8594 0.78125-0.046875 1.0469 0.60938 1.1094 1.0312h1.7031c-0.15625-1.9844-1.8125-2.4375-2.8125-2.4375-2.1562 0-3.0625 1.4688-3.0625 3.5312 0 1.3438 0.54688 3.1875 2.9531 3.1875 2.3438 0 2.8594-1.8438 2.9219-2.5z"/></symbol><symbol id="au" overflow="visible"><path d="m5.9531-4.7031c0-1.5781-1.6406-1.8438-2.5469-1.8438-1.3125 0-2.6562 0.26562-2.8594 2.2344h1.625c0.046875-0.375 0.1875-0.89062 1.0312-0.89062 0.4375 0 1.1094 0.03125 1.1094 0.73438 0 0.35938-0.32812 0.46875-0.59375 0.51562l-1.5156 0.21875c-1.0625 0.15625-1.8594 0.79688-1.8594 2.0469 0 1.3125 0.98438 1.8594 1.9531 1.8594 1.1406 0 1.6719-0.53125 2.0625-0.92188 0.03125 0.35938 0.0625 0.45312 0.15625 0.75h1.8125v-0.25c-0.20312-0.078125-0.375-0.23438-0.375-1zm-1.6406 2.4062c0 0.78125-0.76562 1.2656-1.5 1.2656-0.32812 0-0.78125-0.1875-0.78125-0.76562 0-0.70312 0.51562-0.85938 1.1406-0.96875 0.6875-0.10938 0.96875-0.20312 1.1406-0.34375z"/></symbol><symbol id="at" overflow="visible"><path d="m2.5156-8.6094h-1.6875v8.6094h1.6875z"/></symbol><symbol id="as" overflow="visible"></symbol><symbol id="bn" overflow="visible"><path d="m2.7344-1.7812h3.1875l0.54688 1.7812h1.9531l-3.0312-8.6094h-2.0781l-3.0781 8.6094h1.9062zm1.5781-4.8906h0.03125l1.0625 3.4062h-2.1875z"/></symbol><symbol id="bt" overflow="visible"><path d="m2.6562-8.1094h-1.6719v1.7188h-0.85938v1.2031h0.85938v3.875c0 0.82812 0.26562 1.3906 1.7188 1.3906h0.21875c0.26562 0 0.51562-0.015625 0.78125-0.03125v-1.2656c-0.10938 0-0.23438 0.015625-0.34375 0.015625-0.6875 0-0.70312-0.14062-0.70312-0.51562v-3.4688h1.0469v-1.2031h-1.0469z"/></symbol><symbol id="bs" overflow="visible"><path d="m6.9375-3.1875c0-2.3125-1.5469-3.3594-3.2656-3.3594s-3.2656 1.0469-3.2656 3.3594c0 2.2969 1.5469 3.3594 3.2656 3.3594s3.2656-1.0625 3.2656-3.3594zm-1.7344 0c0 0.8125-0.23438 1.9375-1.5312 1.9375s-1.5312-1.125-1.5312-1.9375c0-0.82812 0.23438-1.9531 1.5312-1.9531s1.5312 1.125 1.5312 1.9531z"/></symbol><symbol id="br" overflow="visible"><path d="m6.5469-4.4219c0-1.3906-0.96875-2.125-2.2188-2.125-1.2031 0-1.6875 0.71875-1.9219 1.0938h-0.015625v-0.9375h-1.6094v6.3906h1.6719v-3.6562c0-0.96875 0.57812-1.4844 1.3281-1.4844 1.0625 0 1.0938 0.79688 1.0938 1.2656v3.875h1.6719z"/></symbol><symbol id="bq" overflow="visible"><path d="m0.82812-5.875h2.0312v5.875h1.6719v-8.5156h-1.375c-0.03125 0.625-0.46875 1.4688-2.0938 1.4688h-0.23438z"/></symbol><symbol id="bp" overflow="visible"><path d="m6.3438-8.375h-6l-0.046875 1.4844h4.2344c-0.71875 0.76562-2.8438 3.4844-3.0312 6.8906h1.7344c0.20312-3.6719 2.2812-6.1875 3.1094-7.0781z"/></symbol><symbol id="bm" overflow="visible"><path d="m4.4219-1.1094h-0.015625l-2.875-4.6406h-0.92188v5.75h0.75v-4.6406h0.015625l2.9219 4.6406h0.875v-5.75h-0.75z"/></symbol><symbol id="f" overflow="visible"><path d="m0.28125-2.0938c0 1.0781 0.60938 2.2031 1.9375 2.2031 1.3438 0 1.9531-1.125 1.9531-2.2031s-0.60938-2.2031-1.9531-2.2031c-1.3281 0-1.9375 1.125-1.9375 2.2031zm0.73438 0c0-0.5625 0.20312-1.6094 1.2031-1.6094 1.0156 0 1.2188 1.0469 1.2188 1.6094s-0.20312 1.5938-1.2188 1.5938c-1 0-1.2031-1.0312-1.2031-1.5938z"/></symbol><symbol id="i" overflow="visible"><path d="m2.0625-3.5938v-0.59375h-0.67188v-1.1719h-0.70312v1.1719h-0.57812v0.59375h0.57812v2.75c0 0.5 0.14062 0.90625 0.84375 0.90625 0.0625 0 0.26562-0.03125 0.53125-0.0625v-0.54688h-0.25c-0.15625 0-0.42188 0-0.42188-0.32812v-2.7188z"/></symbol><symbol id="b" overflow="visible"><path d="m3.375-1.3125c-0.03125 0.3125-0.42188 0.82812-1.0938 0.82812-0.79688 0-1.2031-0.5-1.2031-1.375h3.0469c0-1.4844-0.59375-2.4375-1.7969-2.4375-1.3906 0-2.0156 1.0312-2.0156 2.3281 0 1.2031 0.70312 2.0938 1.875 2.0938 0.67188 0 0.95312-0.17188 1.1406-0.29688 0.53125-0.34375 0.71875-0.9375 0.75-1.1406zm-2.2969-1.1094c0-0.65625 0.5-1.25 1.1562-1.25 0.85938 0 1.125 0.59375 1.1719 1.25z"/></symbol><symbol id="h" overflow="visible"><path d="m3.5781-2.9844c0-0.21875-0.10938-1.3125-1.6094-1.3125-0.8125 0-1.5781 0.40625-1.5781 1.3281 0 0.57812 0.39062 0.875 0.96875 1.0156l0.8125 0.20312c0.60938 0.15625 0.84375 0.26562 0.84375 0.59375 0 0.46875-0.46875 0.67188-0.96875 0.67188-0.98438 0-1.0938-0.53125-1.1094-0.85938h-0.6875c0.03125 0.5 0.15625 1.4688 1.8125 1.4688 0.9375 0 1.6562-0.53125 1.6562-1.3906 0-0.5625-0.3125-0.89062-1.1875-1.1094l-0.70312-0.17188c-0.54688-0.14062-0.75-0.21875-0.75-0.5625 0-0.51562 0.60938-0.59375 0.82812-0.59375 0.89062 0 0.98438 0.45312 0.98438 0.71875z"/></symbol><symbol id="bd" overflow="visible"><path d="m1.5312-0.84375h-0.82812v0.84375h0.82812zm0-3.2812h-0.82812v0.84375h0.82812z"/></symbol><symbol id="a" overflow="visible"></symbol><symbol id="al" overflow="visible"><path d="m4.7969-4.0625c-0.03125-0.64062-0.23438-1.8281-2.2344-1.8281-1.3906 0-1.9844 0.875-1.9844 1.7656 0 1 0.85938 1.2656 1.2344 1.3594l1.1719 0.26562c0.9375 0.23438 1.2188 0.42188 1.2188 1.0156 0 0.82812-0.9375 0.96875-1.5 0.96875-0.73438 0-1.5781-0.29688-1.5781-1.3438h-0.73438c0 0.54688 0.09375 1.0156 0.57812 1.4531 0.26562 0.23438 0.67188 0.5625 1.75 0.5625 0.98438 0 2.2344-0.375 2.2344-1.7344 0-0.92188-0.54688-1.3594-1.2969-1.5469l-1.6406-0.375c-0.32812-0.078125-0.67188-0.23438-0.67188-0.71875 0-0.875 0.8125-1.0156 1.2969-1.0156 0.65625 0 1.3906 0.28125 1.4375 1.1719z"/></symbol><symbol id="bc" overflow="visible"><path d="m0.10938-5.0625h1.9531v5.0625h0.76562v-5.0625h1.9531v-0.6875h-4.6719z"/></symbol><symbol id="y" overflow="visible"><path d="m1.1406-2.9062c0.046875-0.32812 0.15625-0.8125 0.96875-0.8125 0.65625 0 0.98438 0.23438 0.98438 0.67188 0 0.42188-0.20312 0.48438-0.375 0.5l-1.1562 0.14062c-1.1719 0.15625-1.2812 0.96875-1.2812 1.3125 0 0.71875 0.54688 1.2188 1.3125 1.2188 0.82812 0 1.25-0.39062 1.5156-0.6875 0.03125 0.32812 0.125 0.64062 0.75 0.64062 0.15625 0 0.26562-0.046875 0.375-0.078125v-0.51562c-0.078125 0.015625-0.15625 0.03125-0.21875 0.03125-0.15625 0-0.23438-0.0625-0.23438-0.25v-2.4062c0-1.0625-1.2188-1.1562-1.5625-1.1562-1.0312 0-1.6875 0.39062-1.7188 1.3906zm1.9375 1.4531c0 0.5625-0.64062 0.98438-1.2969 0.98438-0.53125 0-0.76562-0.26562-0.76562-0.71875 0-0.53125 0.54688-0.64062 0.89062-0.6875 0.875-0.10938 1.0469-0.17188 1.1719-0.26562z"/></symbol><symbol id="ar" overflow="visible"><path d="m1.125 0v-0.51562h0.015625c0.14062 0.23438 0.4375 0.64062 1.1562 0.64062 1.4219 0 1.8438-1.3438 1.8438-2.3438 0-1.1719-0.64062-2.0781-1.75-2.0781-0.48438 0-0.90625 0.20312-1.2031 0.64062h-0.015625v-2.0938h-0.70312v5.75zm2.2812-2.1094c0 0.92188-0.35938 1.625-1.125 1.625-0.45312 0-1.1406-0.29688-1.1406-1.4062 0-0.6875 0.10938-1.7812 1.125-1.7812 1.0938 0 1.1406 1.0312 1.1406 1.5625z"/></symbol><symbol id="af" overflow="visible"><path d="m1.2344-5.75h-0.70312v5.75h0.70312z"/></symbol><symbol id="ae" overflow="visible"><path d="m4.0312-4.125c-0.078125-1.1406-1-1.5-1.6406-1.5-1.6875 0-2.0938 1.7812-2.0938 3.0156 0 0.73438 0.10938 1.4219 0.4375 1.9531 0.40625 0.60938 1.0156 0.8125 1.4531 0.8125 0.78125 0 1.125-0.21875 1.4219-0.54688 0.375-0.42188 0.53125-0.82812 0.53125-1.4062 0-1.3438-1.0625-1.7812-1.75-1.7812-0.78125 0-1.1719 0.375-1.3438 0.6875l-0.015625-0.015625c0-0.59375 0.23438-2.0781 1.3438-2.0781 0.59375 0 0.875 0.35938 0.96875 0.85938zm-2.9062 2.3906c0-0.65625 0.375-1.2188 1.1562-1.2188 0.875 0 1.1406 0.6875 1.1406 1.1875 0 0.75-0.4375 1.2812-1.1094 1.2812-0.82812 0-1.1875-0.64062-1.1875-1.25z"/></symbol><symbol id="x" overflow="visible"><path d="m1.4688-5.0781h1.5781c0.64062 0 1.125 0.23438 1.125 0.95312 0 0.78125-0.46875 1.0312-1.1562 1.0312h-1.5469zm0 2.6562h1.7969c1.25 0 1.7031-0.90625 1.7031-1.7031 0-0.9375-0.625-1.625-1.7031-1.625h-2.5781v5.75h0.78125z"/></symbol><symbol id="aq" overflow="visible"><path d="m2.3125-2.5781h-1.9531v0.71875h1.9531z"/></symbol><symbol id="ap" overflow="visible"><path d="m1.0625-3.6094c0.015625-0.39062 0.0625-1.375 1.125-1.375 0.82812 0 1.1094 0.5625 1.1094 1.0156 0 0.73438-0.42188 0.95312-1.0312 1.3125l-0.73438 0.42188c-0.75 0.4375-1.2812 1.0625-1.3281 2.2344h3.8594v-0.65625h-3.0625c0.03125-0.21875 0.20312-0.65625 0.96875-1.0938l0.57812-0.3125c0.84375-0.45312 1.5156-0.875 1.5156-1.875 0-1.0469-0.79688-1.6875-1.7656-1.6875-0.60938 0-1.9375 0.1875-1.9375 2.0156z"/></symbol><symbol id="m" overflow="visible"><path d="m3.9219-2.8438c0-1.2031-0.8125-1.4531-1.4531-1.4531-0.71875 0-1.1094 0.48438-1.2656 0.70312h-0.015625v-0.59375h-0.67188v4.1875h0.70312v-2.2812c0-1.1406 0.70312-1.3906 1.1094-1.3906 0.6875 0 0.89062 0.375 0.89062 1.0938v2.5781h0.70312z"/></symbol><symbol id="t" overflow="visible"><path d="m3.9844-5.75h-0.70312v2.1562h-0.015625c-0.15625-0.23438-0.48438-0.70312-1.2344-0.70312-1.125 0-1.75 0.90625-1.75 2.0781 0 1 0.42188 2.3438 1.8438 2.3438 0.40625 0 0.89062-0.14062 1.1875-0.70312h0.015625v0.57812h0.65625zm-2.9688 3.6406c0-0.53125 0.046875-1.5625 1.1406-1.5625 1.0156 0 1.125 1.0938 1.125 1.7812 0 1.1094-0.70312 1.4062-1.1406 1.4062-0.76562 0-1.125-0.70312-1.125-1.625z"/></symbol><symbol id="bl" overflow="visible"><path d="m1.7969-2.5938h0.3125c0.48438 0 1.3125 0.078125 1.3125 1.0312 0 0.64062-0.5 1.0781-1.2188 1.0781-1.0469 0-1.1719-0.70312-1.2031-1.2344h-0.73438c0.046875 0.64062 0.21875 1.2969 0.84375 1.625 0.28125 0.14062 0.625 0.25 1.0469 0.25 1.4219 0 2.0156-0.89062 2.0156-1.8125 0-0.75-0.39062-1.1406-0.9375-1.3125v-0.015625c0.3125-0.09375 0.71875-0.4375 0.71875-1.1562 0-0.85938-0.64062-1.4844-1.7344-1.4844-1.4688 0-1.8125 1.0156-1.8125 1.8438h0.6875c0.03125-0.39062 0.09375-1.2031 1.0938-1.2031 0.84375 0 1.0469 0.54688 1.0469 0.875 0 0.70312-0.53125 0.92188-1.0781 0.92188-0.10938 0-0.25 0-0.35938-0.015625z"/></symbol><symbol id="w" overflow="visible"><path d="m2.0938-3.5938v-0.59375h-0.70312v-0.51562c0-0.34375 0.10938-0.48438 0.42188-0.48438 0.078125 0 0.20312 0 0.28125 0.015625v-0.64062c-0.10938 0-0.21875-0.015625-0.3125-0.015625-0.6875 0-1.0938 0.29688-1.0938 0.92188v0.71875h-0.57812v0.59375h0.57812v3.5938h0.70312v-3.5938z"/></symbol><symbol id="p" overflow="visible"><path d="m1.3125-2.4375c0-0.60938 0.42188-1.1094 1.0781-1.1094h0.26562v-0.73438c-0.0625-0.015625-0.09375-0.015625-0.1875-0.015625-0.53125 0-0.89062 0.32812-1.1719 0.8125h-0.015625v-0.70312h-0.67188v4.1875h0.70312z"/></symbol><symbol id="ad" overflow="visible"><path d="m3.9219-2.8438c0-1.2031-0.8125-1.4531-1.4531-1.4531-0.67188 0-1.0312 0.40625-1.2344 0.67188h-0.015625v-2.125h-0.70312v5.75h0.70312v-2.2812c0-1.0625 0.59375-1.3906 1.1719-1.3906 0.67188 0 0.82812 0.375 0.82812 0.9375v2.7344h0.70312z"/></symbol><symbol id="ao" overflow="visible"><path d="m0.51562 0h0.70312v-2.2812c0-1.1406 0.70312-1.3906 1.1094-1.3906 0.51562 0 0.65625 0.42188 0.65625 0.78125v2.8906h0.70312v-2.5469c0-0.5625 0.39062-1.125 0.98438-1.125s0.78125 0.39062 0.78125 0.96875v2.7031h0.70312v-2.8906c0-1.1875-0.85938-1.4062-1.2969-1.4062-0.65625 0-0.9375 0.28125-1.2812 0.67188-0.125-0.21875-0.35938-0.67188-1.1094-0.67188s-1.1094 0.48438-1.2656 0.70312h-0.015625v-0.59375h-0.67188z"/></symbol><symbol id="l" overflow="visible"><path d="m1.2344-4.1875h-0.70312v4.1875h0.70312zm0-0.75v-0.8125h-0.70312v0.8125z"/></symbol><symbol id="an" overflow="visible"><path d="m1.0469-2.1094c0-0.53125 0.0625-1.5625 1.1406-1.5625 1.0156 0 1.125 1.0938 1.125 1.7812 0 1.1094-0.6875 1.4062-1.1406 1.4062-0.76562 0-1.125-0.70312-1.125-1.625zm2.9375-2.0781h-0.65625v0.625c-0.17188-0.26562-0.5-0.73438-1.2656-0.73438-1.1094 0-1.75 0.90625-1.75 2.0781 0 1 0.42188 2.3438 1.8438 2.3438 0.5625 0 0.9375-0.26562 1.125-0.59375v0.17188c0 0.5 0.03125 1.4688-1.1875 1.4688-0.17188 0-0.8125 0-0.9375-0.65625h-0.70312c0.125 1.1094 1.0938 1.25 1.5938 1.25 1.9375 0 1.9375-1.5156 1.9375-2.1094z"/></symbol><symbol id="bk" overflow="visible"><path d="m2.0156-0.78125h-0.015625l-1.1094-3.4062h-0.79688l1.5469 4.2969c-0.34375 0.85938-0.375 0.96875-0.75 0.96875-0.1875 0-0.32812-0.03125-0.42188-0.0625v0.625c0.10938 0.046875 0.1875 0.078125 0.29688 0.078125 0.90625 0 0.98438-0.10938 1.6406-1.7969 0.53125-1.375 1.0156-2.7344 1.5-4.1094h-0.76562z"/></symbol><symbol id="bj" overflow="visible"><path d="m2.3594-5.8906h-0.53125l-1.9688 6.0469h0.54688z"/></symbol><symbol id="ac" overflow="visible"><path d="m3.8125-2.7812c-0.046875-0.71875-0.46875-1.5156-1.5625-1.5156-1.3906 0-2.0156 1.0312-2.0156 2.3281 0 1.2031 0.70312 2.0938 1.875 2.0938 1.2344 0 1.6406-0.9375 1.7031-1.6094h-0.67188c-0.125 0.64062-0.53125 1-1 1-0.96875 0-1.1562-0.89062-1.1562-1.6094 0-0.75 0.28125-1.5781 1.1562-1.5781 0.59375 0 0.90625 0.32812 1 0.89062z"/></symbol><symbol id="ab" overflow="visible"><path d="m3.9062 0v-4.1875h-0.70312v2.3125c0 0.60938-0.26562 1.3906-1.1406 1.3906-0.46875 0-0.8125-0.23438-0.8125-0.92188v-2.7812h-0.70312v3.0156c0 1 0.73438 1.2969 1.3594 1.2969 0.67188 0 1.0312-0.26562 1.3281-0.75l0.015625 0.015625v0.60938z"/></symbol><symbol id="am" overflow="visible"><path d="m1.5312-0.84375h-0.82812v0.84375h0.82812z"/></symbol><symbol id="bi" overflow="visible"><path d="m5.3906-4.0156c-0.10938-0.95312-0.875-1.875-2.3594-1.875-1.6719 0-2.6719 1.2188-2.6719 2.9844 0 2.2031 1.2656 3.0625 2.5781 3.0625 0.4375 0 2.1875-0.09375 2.5156-2.2656h-0.75c-0.26562 1.3281-1.1406 1.5781-1.6406 1.5781-1.4375 0-1.9062-1.0469-1.9062-2.3906 0-1.5156 0.82812-2.2812 1.875-2.2812 0.54688 0 1.3906 0.17188 1.6094 1.1875z"/></symbol><symbol id="bh" overflow="visible"><path d="m1.9844-0.78125h-0.015625l-1.0938-3.4062h-0.8125l1.5312 4.1875h0.75l1.5938-4.1875h-0.76562z"/></symbol><symbol id="bg" overflow="visible"><path d="m1.1406-1.8906c0-0.6875 0.10938-1.7812 1.125-1.7812 1.0938 0 1.1406 1.0312 1.1406 1.5625 0 0.92188-0.35938 1.625-1.125 1.625-0.45312 0-1.1406-0.29688-1.1406-1.4062zm-0.67188 3.5469h0.70312v-2.0938h0.015625c0.1875 0.29688 0.54688 0.5625 1.1094 0.5625 1.4219 0 1.8438-1.3438 1.8438-2.3438 0-1.1719-0.64062-2.0781-1.75-2.0781-0.76562 0-1.0781 0.46875-1.25 0.70312h-0.015625v-0.59375h-0.65625z"/></symbol><symbol id="bf" overflow="visible"><path d="m6.0938 0v-5.75h-1.1094l-1.625 4.8594h-0.015625l-1.6406-4.8594h-1.125v5.75h0.76562v-3.3906c0-0.17188-0.03125-0.89062-0.03125-1.4219h0.03125l1.6094 4.8125h0.76562l1.6094-4.8281h0.03125c0 0.54688-0.03125 1.2656-0.03125 1.4375v3.3906z"/></symbol><symbol id="be" overflow="visible"><path d="m3.4062-2.7344c0 1.4062-0.375 2.25-1.1875 2.25-0.79688 0-1.1719-0.84375-1.1719-2.25s0.375-2.25 1.1719-2.25c0.8125 0 1.1875 0.84375 1.1875 2.25zm0.75 0c0-1.1719-0.3125-2.8906-1.9375-2.8906-1.6094 0-1.9219 1.7188-1.9219 2.8906s0.3125 2.8906 1.9219 2.8906c1.625 0 1.9375-1.7188 1.9375-2.8906z"/></symbol></defs><path d="m40.902 569.23h-40.402v-569.17h40.402z" fill="#d7d7d7"/><path d="m129.51 0.07032h37.441v569.16h-37.441z" fill="#d7d7d7"/><path d="m0.5 0.07032v569.16" fill="none" stroke="#211e1e"/><path d="m166.95 0.07032v569.16" fill="none" stroke="#211e1e"/><path d="m123.2 0h-80.277v569.25h84.598v-569.25z" fill="#b0b0b0"/><path d="m85.344 0.07032v569.16" fill="none" stroke="#facc2b" stroke-dasharray="30, 90" stroke-width="2"/><path d="m274.81 364.87h-61.066v32.707h61.066z" fill="#211e1e"/><g fill="#facc2b"><path d="m221.55 367.23c2.4609 0 4.457 1.9883 4.457 4.4492 0 2.4609-1.9961 4.457-4.457 4.457s-4.4531-1.9961-4.4531-4.457c0-2.4609 1.9922-4.4492 4.4531-4.4492"/><path d="m265.72 367.23c2.4609 0 4.4531 1.9883 4.4531 4.4492 0 2.4609-1.9922 4.457-4.4531 4.457s-4.457-1.9961-4.457-4.457c0-2.4609 1.9961-4.4492 4.457-4.4492"/><path d="m221.55 385.82c2.4609 0 4.457 1.9922 4.457 4.4531 0 2.4609-1.9961 4.4531-4.457 4.4531s-4.4531-1.9922-4.4531-4.4531c0-2.4609 1.9922-4.4531 4.4531-4.4531"/><path d="m265.72 385.82c2.4609 0 4.4531 1.9922 4.4531 4.4531 0 2.4609-1.9922 4.4531-4.4531 4.4531s-4.457-1.9922-4.457-4.4531c0-2.4609 1.9961-4.4531 4.457-4.4531"/></g><path d="m118.21 204.33-0.51172-57.828s-6.0117-1.1953-11.008-1.1953c-4.7656 0-10.828 1.1953-10.828 1.1953l-0.2539 57.828" fill="#fff" stroke="#211e1e" stroke-width="1.077"/><g fill="none" stroke="#211e1e"><path d="m117.81 148.04s-5.7578-1.1953-10.754-1.1953c-4.7617 0-10.824 1.1953-10.824 1.1953" stroke-width="1.077"/><g stroke-width=".539"><path d="m115.03 163.39v-15.207c-2.1367-0.33984-5.3125-0.74609-8.2266-0.74609-2.8945 0-6.2656 0.4414-8.4688 0.78515v14.828"/><path d="m106.8 147.43v12.883"/><path d="m116.45 164.41s-3.4102-2.2188-9.3828-2.2188c-5.9688 0-9.9766 2.2188-9.9766 2.2188l1.5312 3.6641s5.0352-1.2774 8.2773-1.2774c3.2383 0 7.8438 1.3633 7.8438 1.3633z"/><path d="m114.83 176.87v-7.9336s-4.6055-1.3633-7.8438-1.3633c-3.2422 0-8.2734 1.2774-8.2734 1.2774v8.0195z"/></g></g><g fill="#211e1e"><path d="m98.332 177.12v-8.4453l-1.8789-1.875-2.7266 2.5586 3.8359-0.42578v8.1875z"/><path d="m115.24 177.12v-8.4453l1.875-1.875 2.7305 2.5586-3.8398-0.42578v8.1875z"/><path d="m98.93 178.57h16.312v-1.4492h-16.312z"/></g><g fill="none" stroke="#211e1e" stroke-width=".539"><path d="m96.883 203.99h19.617v-25.59h-19.617z"/><path d="m117.78 175.59h-2.2148l2.2148 1.793"/><path d="m96.027 175.59h2.2188l-2.2188 1.793"/><path d="m115.3 178.4v25.586"/><path d="m113.88 178.4v25.586"/><path d="m112.46 178.4v25.586"/><path d="m111.04 178.4v25.586"/><path d="m109.61 178.4v25.586"/><path d="m108.19 178.4v25.586"/><path d="m106.77 178.4v25.586"/><path d="m105.34 178.4v25.586"/><path d="m103.92 178.4v25.586"/><path d="m102.5 178.4v25.586"/><path d="m101.07 178.4v25.586"/><path d="m99.648 178.4v25.586"/><path d="m98.223 178.4v25.586"/></g><path d="m99.953 199.21-2.8164 1.2812v-9.9805l2.8164 1.2812z" fill="#fff" stroke="#211e1e" stroke-width=".539"/><path d="m113.98 199.21 2.8164 1.2812v-9.9805l-2.8164 1.2812z" fill="#fff" stroke="#211e1e" stroke-width=".539"/><g fill="none" stroke="#211e1e"><g stroke-width="1.077"><path d="m118.2 178.4h-22.344"/><path d="m116.84 195.46h1.1953"/><path d="m95.688 195.46h1.1953"/></g><path d="m109.31 172.26c0-1.332-1.0781-2.4102-2.4102-2.4102s-2.4141 1.0781-2.4141 2.4102c0 1.3359 1.082 2.4141 2.4141 2.4141s2.4102-1.0781 2.4102-2.4141z" stroke-width=".539"/><path d="m100.65 434.07s23.5 62.02 85.27 79.977" stroke-width=".75"/></g><g fill="#211e1e"><g><path d="m99.789 433.04c-0.0117 0.90234-0.0859 1.5156-0.16406 2.2617l2.5469-0.73438c-0.1836-0.20703-0.85157-1.0664-1.3438-1.8281-0.52735-0.81641-0.94532-1.5703-1.1602-2.0781 0.0859 0.54297 0.13281 1.4062 0.12109 2.3789"/><path d="m106.71 26.402v-10.664h2.6172l-4.3281-7.3476-4.0195 7.3476h2.4141v10.664z"/><path d="m62.934 8.3906v10.664h-2.6133l4.3242 7.3477 4.0234-7.3477h-2.4141v-10.664z"/><path d="m106.96 555.23v-10.664h2.6172l-4.3281-7.3476-4.0195 7.3476h2.4141v10.664z"/><path d="m65.309 537.23v10.66h-2.6133l4.3242 7.3477 4.0234-7.3477h-2.4141v-10.66z"/></g><g transform="translate(-127.95 -109.79)"><use x="318.0127" y="628.55859" width="100%" height="100%" xlink:href="#bb"/><use x="322.43259" y="628.55859" width="100%" height="100%" xlink:href="#n"/><use x="325.56369" y="628.55859" width="100%" height="100%" xlink:href="#r"/><use x="330.56769" y="628.55859" width="100%" height="100%" xlink:href="#aa"/><use x="334.8895" y="628.55859" width="100%" height="100%" xlink:href="#z"/><use x="339.3895" y="628.55859" width="100%" height="100%" xlink:href="#ax"/><use x="342.38651" y="628.55859" width="100%" height="100%" xlink:href="#aw"/><use x="349.88351" y="628.55859" width="100%" height="100%" xlink:href="#c"/><use x="354.88751" y="628.55859" width="100%" height="100%" xlink:href="#r"/><use x="359.89151" y="628.55859" width="100%" height="100%" xlink:href="#j"/><use x="364.89551" y="628.55859" width="100%" height="100%" xlink:href="#e"/><use x="367.39749" y="628.55859" width="100%" height="100%" xlink:href="#d"/><use x="372.40149" y="628.55859" width="100%" height="100%" xlink:href="#v"/><use x="377.40549" y="628.55859" width="100%" height="100%" xlink:href="#k"/><use x="379.9075" y="628.55859" width="100%" height="100%" xlink:href="#g"/><use x="384.9115" y="628.55859" width="100%" height="100%" xlink:href="#e"/><use x="387.41351" y="628.55859" width="100%" height="100%" xlink:href="#e"/><use x="389.9155" y="628.55859" width="100%" height="100%" xlink:href="#d"/><use x="394.91949" y="628.55859" width="100%" height="100%" xlink:href="#j"/><use x="399.8353" y="628.55859" width="100%" height="100%" xlink:href="#r"/><use x="404.83929" y="628.55859" width="100%" height="100%" xlink:href="#g"/><use x="409.84329" y="628.55859" width="100%" height="100%" xlink:href="#e"/><use x="412.34531" y="628.55859" width="100%" height="100%" xlink:href="#c"/><use x="417.3493" y="628.55859" width="100%" height="100%" xlink:href="#n"/><use x="350.42169" y="638.55762" width="100%" height="100%" xlink:href="#ak"/><use x="353.4187" y="638.55762" width="100%" height="100%" xlink:href="#c"/><use x="358.4227" y="638.55762" width="100%" height="100%" xlink:href="#o"/><use x="363.4267" y="638.55762" width="100%" height="100%" xlink:href="#e"/><use x="365.92871" y="638.55762" width="100%" height="100%" xlink:href="#q"/><use x="367.9267" y="638.55762" width="100%" height="100%" xlink:href="#c"/><use x="372.93069" y="638.55762" width="100%" height="100%" xlink:href="#j"/><use x="377.93469" y="638.55762" width="100%" height="100%" xlink:href="#g"/><use x="382.93869" y="638.55762" width="100%" height="100%" xlink:href="#s"/><use x="384.93671" y="638.55762" width="100%" height="100%" xlink:href="#aj"/><use x="324.9787" y="298.6636" width="100%" height="100%" xlink:href="#bz"/><use x="333.20651" y="298.6636" width="100%" height="100%" xlink:href="#c"/><use x="338.21051" y="298.6636" width="100%" height="100%" xlink:href="#n"/><use x="341.34161" y="298.6636" width="100%" height="100%" xlink:href="#z"/><use x="345.84161" y="298.6636" width="100%" height="100%" xlink:href="#k"/><use x="348.3436" y="298.6636" width="100%" height="100%" xlink:href="#ba"/><use x="352.61951" y="298.6636" width="100%" height="100%" xlink:href="#d"/><use x="357.6235" y="298.6636" width="100%" height="100%" xlink:href="#u"/><use x="362.6275" y="298.6636" width="100%" height="100%" xlink:href="#q"/><use x="364.62549" y="298.6636" width="100%" height="100%" xlink:href="#aa"/><use x="369.12549" y="298.6636" width="100%" height="100%" xlink:href="#s"/><use x="371.1235" y="298.6636" width="100%" height="100%" xlink:href="#d"/><use x="339.8017" y="441.3316" width="100%" height="100%" xlink:href="#by"/><use x="345.80469" y="441.3316" width="100%" height="100%" xlink:href="#u"/><use x="350.80869" y="441.3316" width="100%" height="100%" xlink:href="#g"/><use x="355.81271" y="441.3316" width="100%" height="100%" xlink:href="#v"/><use x="360.81671" y="441.3316" width="100%" height="100%" xlink:href="#c"/><use x="365.68661" y="441.3316" width="100%" height="100%" xlink:href="#az"/><use x="372.1846" y="441.3316" width="100%" height="100%" xlink:href="#k"/><use x="374.68661" y="441.3316" width="100%" height="100%" xlink:href="#ba"/><use x="378.96249" y="441.3316" width="100%" height="100%" xlink:href="#d"/><use x="383.96649" y="441.3316" width="100%" height="100%" xlink:href="#u"/><use x="388.97049" y="441.3316" width="100%" height="100%" xlink:href="#q"/><use x="390.96851" y="441.3316" width="100%" height="100%" xlink:href="#aa"/><use x="395.46851" y="441.3316" width="100%" height="100%" xlink:href="#s"/><use x="397.46649" y="441.3316" width="100%" height="100%" xlink:href="#d"/><use x="431.46671" y="475.45059" width="100%" height="100%" xlink:href="#bx"/><use x="437.96469" y="475.45059" width="100%" height="100%" xlink:href="#ai"/><use x="442.46469" y="475.45059" width="100%" height="100%" xlink:href="#d"/><use x="447.46869" y="475.45059" width="100%" height="100%" xlink:href="#k"/><use x="449.9707" y="475.45059" width="100%" height="100%" xlink:href="#ai"/><use x="454.4707" y="475.45059" width="100%" height="100%" xlink:href="#q"/><use x="456.46869" y="475.45059" width="100%" height="100%" xlink:href="#ay"/><use x="461.47269" y="475.45059" width="100%" height="100%" xlink:href="#j"/><use x="466.47672" y="475.45059" width="100%" height="100%" xlink:href="#k"/><use x="468.9787" y="475.45059" width="100%" height="100%" xlink:href="#ai"/><use x="473.4787" y="475.45059" width="100%" height="100%" xlink:href="#u"/><use x="478.4827" y="475.45059" width="100%" height="100%" xlink:href="#g"/><use x="483.48669" y="475.45059" width="100%" height="100%" xlink:href="#o"/><use x="488.49069" y="475.45059" width="100%" height="100%" xlink:href="#d"/><use x="431.46671" y="485.44958" width="100%" height="100%" xlink:href="#g"/><use x="436.4707" y="485.44958" width="100%" height="100%" xlink:href="#j"/><use x="441.4747" y="485.44958" width="100%" height="100%" xlink:href="#v"/><use x="446.4787" y="485.44958" width="100%" height="100%" xlink:href="#k"/><use x="448.98071" y="485.44958" width="100%" height="100%" xlink:href="#s"/><use x="450.9787" y="485.44958" width="100%" height="100%" xlink:href="#d"/><use x="455.9827" y="485.44958" width="100%" height="100%" xlink:href="#ay"/><use x="460.98669" y="485.44958" width="100%" height="100%" xlink:href="#d"/><use x="465.99069" y="485.44958" width="100%" height="100%" xlink:href="#j"/><use x="470.99469" y="485.44958" width="100%" height="100%" xlink:href="#v"/><use x="431.46671" y="495.44861" width="100%" height="100%" xlink:href="#g"/><use x="436.4707" y="495.44861" width="100%" height="100%" xlink:href="#o"/><use x="441.4747" y="495.44861" width="100%" height="100%" xlink:href="#o"/><use x="446.4787" y="495.44861" width="100%" height="100%" xlink:href="#n"/><use x="449.47571" y="495.44861" width="100%" height="100%" xlink:href="#c"/><use x="454.47971" y="495.44861" width="100%" height="100%" xlink:href="#o"/><use x="459.4837" y="495.44861" width="100%" height="100%" xlink:href="#n"/><use x="462.61481" y="495.44861" width="100%" height="100%" xlink:href="#q"/><use x="464.61279" y="495.44861" width="100%" height="100%" xlink:href="#g"/><use x="469.61679" y="495.44861" width="100%" height="100%" xlink:href="#e"/><use x="472.1188" y="495.44861" width="100%" height="100%" xlink:href="#d"/><use x="431.46671" y="505.4476" width="100%" height="100%" xlink:href="#e"/><use x="433.96869" y="505.4476" width="100%" height="100%" xlink:href="#c"/><use x="438.97269" y="505.4476" width="100%" height="100%" xlink:href="#k"/><use x="441.4747" y="505.4476" width="100%" height="100%" xlink:href="#e"/><use x="443.97672" y="505.4476" width="100%" height="100%" xlink:href="#u"/><use x="448.98071" y="505.4476" width="100%" height="100%" xlink:href="#d"/><use x="453.98471" y="505.4476" width="100%" height="100%" xlink:href="#k"/><use x="456.48669" y="505.4476" width="100%" height="100%" xlink:href="#e"/><use x="458.98871" y="505.4476" width="100%" height="100%" xlink:href="#bw"/><use x="463.48871" y="505.4476" width="100%" height="100%" xlink:href="#o"/><use x="468.49271" y="505.4476" width="100%" height="100%" xlink:href="#d"/><use x="431.46671" y="515.44659" width="100%" height="100%" xlink:href="#c"/><use x="436.4707" y="515.44659" width="100%" height="100%" xlink:href="#bv"/><use x="438.97269" y="515.44659" width="100%" height="100%" xlink:href="#k"/><use x="441.4747" y="515.44659" width="100%" height="100%" xlink:href="#az"/><use x="447.88449" y="515.44659" width="100%" height="100%" xlink:href="#c"/><use x="452.88849" y="515.44659" width="100%" height="100%" xlink:href="#n"/><use x="456.01959" y="515.44659" width="100%" height="100%" xlink:href="#z"/></g></g><path d="m299.38 397.02-33.77 38.941" fill="none" stroke="#211e1e" stroke-width=".75"/><path d="m265.21 437.25c0.76563-0.48438 1.3164-0.75391 1.9844-1.0938l-2-1.7344c-0.0742 0.26563-0.4336 1.293-0.80469 2.1211-0.39453 0.88281-0.80078 1.6445-1.1094 2.1016 0.41015-0.36719 1.1094-0.875 1.9297-1.3945" fill="#211e1e"/><path d="m209.91 328.33c-12.945 0-61.105 36.773-88.652 36.773" fill="none" stroke="#211e1e" stroke-width=".75"/><path d="m120.02 365.65c0.8711 0.25781 1.4375 0.49609 2.1328 0.77344l-0.0156-2.6484c-0.24609 0.11719-1.2578 0.52734-2.1211 0.79297-0.92969 0.28906-1.7695 0.48437-2.3164 0.55469 0.54688 0.0664 1.3906 0.2539 2.3203 0.52734" fill="#211e1e"/><path d="m192.9 186.12c-13.098 1.7227-56.934-3.6133-70.719-9.125" fill="none" stroke="#211e1e" stroke-width=".75"/><path d="m120.83 177.03c0.70703 0.5625 1.1406 1 1.6836 1.5156l0.98437-2.457c-0.27734 0.0156-1.3633 0.0156-2.2695-0.0664-0.96484-0.082-1.8203-0.21875-2.3516-0.35547 0.48047 0.26563 1.1914 0.75781 1.9531 1.3633" fill="#211e1e"/><path d="m213.61 457.32 29.344-29.344c1.2422-1.2422 3.2734-1.2422 4.5117 0l29.348 29.344c1.2422 1.2422 1.2422 3.2734 0 4.5156l-29.348 29.348c-1.2383 1.2422-3.2695 1.2422-4.5117 0l-29.344-29.348c-1.2422-1.2422-1.2422-3.2734 0-4.5156" fill="#f58511"/><path d="m213.61 457.32 29.344-29.344c1.2422-1.2422 3.2734-1.2422 4.5117 0l29.348 29.344c1.2422 1.2422 1.2422 3.2734 0 4.5156l-29.348 29.348c-1.2383 1.2422-3.2695 1.2422-4.5117 0l-29.344-29.348c-1.2422-1.2422-1.2422-3.2734 0-4.5156z" fill="none" stroke="#211e1e" stroke-miterlimit="2.613" stroke-width=".25"/><g><path d="m214.32 457.79 29.105-29.105c0.98047-0.98438 2.5938-0.98438 3.582 0l29.102 29.105c0.98437 0.98437 0.98437 2.5976 0 3.582l-29.102 29.102c-0.98828 0.98828-2.6016 0.98828-3.582 0l-29.105-29.102c-0.98437-0.98438-0.98437-2.5977 0-3.582" fill="#211e1e" fill-rule="evenodd"/><path d="m215.23 458.68 29.09-29.09c0.49219-0.48829 1.3008-0.48829 1.7891 0l29.09 29.09c0.49219 0.49219 0.49219 1.3008 0 1.793l-29.09 29.09c-0.48828 0.48828-1.2969 0.48828-1.7891 0l-29.09-29.09c-0.49219-0.49219-0.49219-1.3008 0-1.793" fill="#f58511" fill-rule="evenodd"/><path d="m118.87 204.26h-23.961v14.73h23.961z" fill="#fff" stroke="#211e1e" stroke-width="1.077"/></g><path d="m118.87 218.07-11.98-13.812-11.98 13.812z" fill="none" stroke="#211e1e" stroke-miterlimit="1" stroke-width="1.077"/><g transform="translate(-127.95 -109.79)" fill="#211e1e"><use x="325.47559" y="334.82571" width="100%" height="100%" xlink:href="#bb"/><use x="329.89551" y="334.82571" width="100%" height="100%" xlink:href="#n"/><use x="333.02661" y="334.82571" width="100%" height="100%" xlink:href="#r"/><use x="338.03061" y="334.82571" width="100%" height="100%" xlink:href="#aa"/><use x="342.35239" y="334.82571" width="100%" height="100%" xlink:href="#z"/><use x="346.85239" y="334.82571" width="100%" height="100%" xlink:href="#ax"/><use x="349.8494" y="334.82571" width="100%" height="100%" xlink:href="#aw"/><use x="357.34641" y="334.82571" width="100%" height="100%" xlink:href="#c"/><use x="362.3504" y="334.82571" width="100%" height="100%" xlink:href="#r"/><use x="367.3544" y="334.82571" width="100%" height="100%" xlink:href="#j"/><use x="372.3584" y="334.82571" width="100%" height="100%" xlink:href="#e"/><use x="374.86041" y="334.82571" width="100%" height="100%" xlink:href="#d"/><use x="379.86441" y="334.82571" width="100%" height="100%" xlink:href="#v"/><use x="384.86841" y="334.82571" width="100%" height="100%" xlink:href="#k"/><use x="387.37039" y="334.82571" width="100%" height="100%" xlink:href="#g"/><use x="392.37439" y="334.82571" width="100%" height="100%" xlink:href="#e"/><use x="394.8764" y="334.82571" width="100%" height="100%" xlink:href="#e"/><use x="397.37839" y="334.82571" width="100%" height="100%" xlink:href="#d"/><use x="402.38239" y="334.82571" width="100%" height="100%" xlink:href="#j"/><use x="407.29819" y="334.82571" width="100%" height="100%" xlink:href="#r"/><use x="412.30219" y="334.82571" width="100%" height="100%" xlink:href="#g"/><use x="417.30621" y="334.82571" width="100%" height="100%" xlink:href="#e"/><use x="419.8082" y="334.82571" width="100%" height="100%" xlink:href="#c"/><use x="424.81219" y="334.82571" width="100%" height="100%" xlink:href="#n"/><use x="357.88461" y="344.82471" width="100%" height="100%" xlink:href="#ak"/><use x="360.88159" y="344.82471" width="100%" height="100%" xlink:href="#c"/><use x="365.88559" y="344.82471" width="100%" height="100%" xlink:href="#o"/><use x="370.88959" y="344.82471" width="100%" height="100%" xlink:href="#e"/><use x="373.3916" y="344.82471" width="100%" height="100%" xlink:href="#q"/><use x="375.38959" y="344.82471" width="100%" height="100%" xlink:href="#c"/><use x="380.39359" y="344.82471" width="100%" height="100%" xlink:href="#j"/><use x="385.39761" y="344.82471" width="100%" height="100%" xlink:href="#g"/><use x="390.40161" y="344.82471" width="100%" height="100%" xlink:href="#s"/><use x="392.3996" y="344.82471" width="100%" height="100%" xlink:href="#aj"/></g><path d="m192.9 223.76c-13.098 1.7227-55.988-2.0195-69.773-7.5312" fill="none" stroke="#211e1e" stroke-width=".75"/><path d="m121.77 216.27c0.71094 0.5664 1.1445 1 1.6875 1.5156l0.98437-2.457c-0.27734 0.0156-1.3633 0.0156-2.2695-0.0625-0.96484-0.0859-1.8203-0.21875-2.3516-0.35937 0.48047 0.26562 1.1914 0.75781 1.9492 1.3633" fill="#211e1e"/><g transform="translate(-127.95 -109.79)" fill="#211e1e"><use x="261.06589" y="703.9541" width="100%" height="100%" xlink:href="#bu"/><use x="267.6803" y="703.9541" width="100%" height="100%" xlink:href="#bo"/><use x="274.35229" y="703.9541" width="100%" height="100%" xlink:href="#ah"/><use x="281.6843" y="703.9541" width="100%" height="100%" xlink:href="#ag"/><use x="285.02029" y="703.9541" width="100%" height="100%" xlink:href="#av"/><use x="291.69229" y="703.9541" width="100%" height="100%" xlink:href="#au"/><use x="298.36429" y="703.9541" width="100%" height="100%" xlink:href="#at"/><use x="301.70029" y="703.9541" width="100%" height="100%" xlink:href="#as"/><use x="305.03629" y="703.9541" width="100%" height="100%" xlink:href="#bn"/><use x="313.70029" y="703.9541" width="100%" height="100%" xlink:href="#ah"/><use x="321.03229" y="703.9541" width="100%" height="100%" xlink:href="#ah"/><use x="328.36429" y="703.9541" width="100%" height="100%" xlink:href="#at"/><use x="331.70029" y="703.9541" width="100%" height="100%" xlink:href="#ag"/><use x="335.03629" y="703.9541" width="100%" height="100%" xlink:href="#av"/><use x="341.70831" y="703.9541" width="100%" height="100%" xlink:href="#au"/><use x="348.38031" y="703.9541" width="100%" height="100%" xlink:href="#bt"/><use x="352.37631" y="703.9541" width="100%" height="100%" xlink:href="#ag"/><use x="355.71231" y="703.9541" width="100%" height="100%" xlink:href="#bs"/><use x="363.04431" y="703.9541" width="100%" height="100%" xlink:href="#br"/><use x="370.37631" y="703.9541" width="100%" height="100%" xlink:href="#as"/><use x="373.71231" y="703.9541" width="100%" height="100%" xlink:href="#bq"/><use x="380.38431" y="703.9541" width="100%" height="100%" xlink:href="#bp"/><use x="352.56839" y="518.4502" width="100%" height="100%" xlink:href="#ak"/><use x="355.5654" y="518.4502" width="100%" height="100%" xlink:href="#c"/><use x="360.5694" y="518.4502" width="100%" height="100%" xlink:href="#o"/><use x="365.57339" y="518.4502" width="100%" height="100%" xlink:href="#e"/><use x="368.07541" y="518.4502" width="100%" height="100%" xlink:href="#q"/><use x="370.07339" y="518.4502" width="100%" height="100%" xlink:href="#c"/><use x="375.07739" y="518.4502" width="100%" height="100%" xlink:href="#j"/><use x="380.08139" y="518.4502" width="100%" height="100%" xlink:href="#g"/><use x="385.08539" y="518.4502" width="100%" height="100%" xlink:href="#s"/><use x="387.0834" y="518.4502" width="100%" height="100%" xlink:href="#aj"/></g><path d="m108.68 382.87c0-1.3281-1.0742-2.4024-2.4023-2.4024-1.3281 0-2.4062 1.0742-2.4062 2.4024 0 1.3281 1.0781 2.4062 2.4062 2.4062 1.3281 0 2.4023-1.0781 2.4023-2.4062z" fill="none" stroke="#211e1e" stroke-width=".537"/><path d="m117.55 414.84-0.51172-57.648s-5.9922-1.1914-10.973-1.1914c-4.75 0-10.793 1.1914-10.793 1.1914l-0.25391 57.648" fill="#fff" stroke="#211e1e" stroke-width="1.074"/><g fill="none" stroke="#211e1e"><path d="m117.15 358.73s-5.7383-1.1914-10.719-1.1914c-4.75 0-10.793 1.1914-10.793 1.1914" stroke-width="1.074"/><g stroke-width=".537"><path d="m114.38 374.03v-15.164c-2.1289-0.33594-5.2969-0.74219-8.1992-0.74219-2.8828 0-6.2461 0.4375-8.4414 0.78516v14.777"/><path d="m106.18 358.12v12.844"/><path d="m115.79 375.05s-3.3984-2.2148-9.3516-2.2148c-5.9531 0-9.9492 2.2148-9.9492 2.2148l1.5312 3.6524s5.0156-1.2734 8.25-1.2734c3.2305 0 7.8203 1.3594 7.8203 1.3594z"/><path d="m114.18 387.46v-7.9062s-4.5898-1.3633-7.8203-1.3633c-3.2344 0-8.25 1.2774-8.25 1.2774v7.9922z"/></g></g><g fill="#211e1e"><path d="m97.734 387.72v-8.418l-1.8711-1.8711-2.7226 2.5508 3.8281-0.42187v8.1602z"/><path d="m114.59 387.72v-8.418l1.8711-1.8711 2.7227 2.5508-3.8281-0.42187v8.1602z"/><path d="m98.328 389.16h16.262v-1.4453h-16.262z"/></g><g fill="none" stroke="#211e1e" stroke-width=".537"><path d="m117.12 386.19h-2.2109l2.2109 1.7852"/><path d="m95.438 386.19h2.2109l-2.2109 1.7852"/><path d="m114.65 388.99v25.512"/><path d="m97.629 388.99v25.512"/></g><path d="m99.348 409.74-2.8047 1.2734v-9.9492l2.8047 1.2773z" fill="#fff" stroke="#211e1e" stroke-width=".537"/><path d="m113.34 409.74 2.8047 1.2734v-9.9492l-2.8047 1.2773z" fill="#fff" stroke="#211e1e" stroke-width=".537"/><g fill="none" stroke="#211e1e" stroke-width="1.074"><path d="m117.54 388.99h-22.277"/><path d="m116.18 406h1.1914"/><path d="m95.098 406h1.1914"/></g><g stroke="#211e1e"><path d="m118.11 415.32h-23.891v14.684h23.891z" fill="#fff" stroke-width="1.074"/><path d="m118.11 429.09-11.945-13.77-11.941 13.77z" fill="none" stroke-miterlimit="1" stroke-width="1.074"/><path d="m99.812 391.95h12.695" fill="none" stroke-width="2.148"/></g><path d="m100.75 397.93c0.9336 0 1.6953-0.76172 1.6953-1.6953 0-0.9375-0.76171-1.6953-1.6953-1.6953-0.9375 0-1.6953 0.75781-1.6953 1.6953 0 0.93359 0.75781 1.6953 1.6953 1.6953" fill="#facc2b"/><path d="m100.75 397.93c0.9336 0 1.6953-0.76172 1.6953-1.6953 0-0.9375-0.76171-1.6953-1.6953-1.6953-0.9375 0-1.6953 0.75781-1.6953 1.6953 0 0.93359 0.75781 1.6953 1.6953 1.6953z" fill="none" stroke="#211e1e" stroke-width="1.074"/><path d="m106.16 397.93c0.9375 0 1.6953-0.76172 1.6953-1.6953 0-0.9375-0.75781-1.6953-1.6953-1.6953-0.9336 0-1.6914 0.75781-1.6914 1.6953 0 0.93359 0.75781 1.6953 1.6914 1.6953" fill="#facc2b"/><path d="m106.16 397.93c0.9375 0 1.6953-0.76172 1.6953-1.6953 0-0.9375-0.75781-1.6953-1.6953-1.6953-0.9336 0-1.6914 0.75781-1.6914 1.6953 0 0.93359 0.75781 1.6953 1.6914 1.6953z" fill="none" stroke="#211e1e" stroke-width="1.074"/><path d="m111.57 397.93c0.93359 0 1.6953-0.76172 1.6953-1.6953 0-0.9375-0.76172-1.6953-1.6953-1.6953-0.9375 0-1.6953 0.75781-1.6953 1.6953 0 0.93359 0.75781 1.6953 1.6953 1.6953" fill="#facc2b"/><g fill="none" stroke="#211e1e"><path d="m111.57 397.93c0.93359 0 1.6953-0.76172 1.6953-1.6953 0-0.9375-0.76172-1.6953-1.6953-1.6953-0.9375 0-1.6953 0.75781-1.6953 1.6953 0 0.93359 0.75781 1.6953 1.6953 1.6953z" stroke-width="1.074"/><path d="m99.812 417.96h12.695"/><path d="m106.17 401.99c0.82422 21.488 95.434-8.7188 105.99-8.7188" stroke-width=".75"/></g><path d="m105.62 400.75c-0.2539 0.87109-0.49219 1.4375-0.76562 2.1367l2.6484-0.0234c-0.12109-0.25-0.53125-1.2578-0.80468-2.1211-0.28907-0.92579-0.48828-1.7656-0.5586-2.3125-0.0664 0.54687-0.25 1.3906-0.51953 2.3203" fill="#211e1e"/><path d="m106.17 422.26c0 29.48 87.543 12.082 107.7 32.238" fill="none" stroke="#211e1e" stroke-width=".75"/><path d="m105.62 421.03c-0.25781 0.86718-0.5 1.4297-0.77734 2.1289l2.6484-8e-3c-0.1211-0.24609-0.52344-1.2578-0.78907-2.125-0.28125-0.92969-0.47656-1.7695-0.54687-2.3164-0.0664 0.54688-0.25391 1.3867-0.53516 2.3203" fill="#211e1e"/><g transform="translate(-127.95 -109.79)" fill="#211e1e"><use x="316.9126" y="127.7676" width="100%" height="100%" xlink:href="#bm"/><use x="322.6886" y="127.7676" width="100%" height="100%" xlink:href="#f"/><use x="327.1366" y="127.7676" width="100%" height="100%" xlink:href="#i"/><use x="329.3606" y="127.7676" width="100%" height="100%" xlink:href="#b"/><use x="333.80859" y="127.7676" width="100%" height="100%" xlink:href="#h"/><use x="337.80859" y="127.7676" width="100%" height="100%" xlink:href="#bd"/><use x="339.63419" y="127.7676" width="100%" height="100%" xlink:href="#a"/><use x="343.59021" y="127.7676" width="100%" height="100%" xlink:href="#al"/><use x="348.92621" y="127.7676" width="100%" height="100%" xlink:href="#b"/><use x="353.37421" y="127.7676" width="100%" height="100%" xlink:href="#b"/><use x="357.8222" y="127.7676" width="100%" height="100%" xlink:href="#a"/><use x="359.6478" y="127.7676" width="100%" height="100%" xlink:href="#bc"/><use x="363.57739" y="127.7676" width="100%" height="100%" xlink:href="#y"/><use x="368.02539" y="127.7676" width="100%" height="100%" xlink:href="#ar"/><use x="372.315" y="127.7676" width="100%" height="100%" xlink:href="#af"/><use x="374.091" y="127.7676" width="100%" height="100%" xlink:href="#b"/><use x="378.539" y="127.7676" width="100%" height="100%" xlink:href="#h"/><use x="382.539" y="127.7676" width="100%" height="100%" xlink:href="#a"/><use x="384.763" y="127.7676" width="100%" height="100%" xlink:href="#ae"/><use x="389.211" y="127.7676" width="100%" height="100%" xlink:href="#x"/><use x="394.547" y="127.7676" width="100%" height="100%" xlink:href="#aq"/><use x="397.211" y="127.7676" width="100%" height="100%" xlink:href="#ap"/><use x="401.659" y="127.7676" width="100%" height="100%" xlink:href="#a"/><use x="403.883" y="127.7676" width="100%" height="100%" xlink:href="#y"/><use x="408.33099" y="127.7676" width="100%" height="100%" xlink:href="#m"/><use x="412.77899" y="127.7676" width="100%" height="100%" xlink:href="#t"/><use x="417.22699" y="127.7676" width="100%" height="100%" xlink:href="#a"/><use x="419.45099" y="127.7676" width="100%" height="100%" xlink:href="#ae"/><use x="423.89899" y="127.7676" width="100%" height="100%" xlink:href="#x"/><use x="429.23499" y="127.7676" width="100%" height="100%" xlink:href="#aq"/><use x="431.89899" y="127.7676" width="100%" height="100%" xlink:href="#bl"/><use x="436.34698" y="127.7676" width="100%" height="100%" xlink:href="#a"/><use x="438.57101" y="127.7676" width="100%" height="100%" xlink:href="#w"/><use x="440.55661" y="127.7676" width="100%" height="100%" xlink:href="#f"/><use x="445.00461" y="127.7676" width="100%" height="100%" xlink:href="#p"/><use x="447.66861" y="127.7676" width="100%" height="100%" xlink:href="#a"/><use x="449.89261" y="127.7676" width="100%" height="100%" xlink:href="#i"/><use x="452.11661" y="127.7676" width="100%" height="100%" xlink:href="#ad"/><use x="456.56461" y="127.7676" width="100%" height="100%" xlink:href="#b"/><use x="461.0126" y="127.7676" width="100%" height="100%" xlink:href="#a"/><use x="343.59259" y="136.76759" width="100%" height="100%" xlink:href="#ao"/><use x="350.25659" y="136.76759" width="100%" height="100%" xlink:href="#b"/><use x="354.70459" y="136.76759" width="100%" height="100%" xlink:href="#y"/><use x="359.15259" y="136.76759" width="100%" height="100%" xlink:href="#m"/><use x="363.60059" y="136.76759" width="100%" height="100%" xlink:href="#l"/><use x="365.37659" y="136.76759" width="100%" height="100%" xlink:href="#m"/><use x="369.82458" y="136.76759" width="100%" height="100%" xlink:href="#an"/><use x="374.27261" y="136.76759" width="100%" height="100%" xlink:href="#a"/><use x="376.49661" y="136.76759" width="100%" height="100%" xlink:href="#f"/><use x="380.94461" y="136.76759" width="100%" height="100%" xlink:href="#w"/><use x="383.16861" y="136.76759" width="100%" height="100%" xlink:href="#a"/><use x="385.39261" y="136.76759" width="100%" height="100%" xlink:href="#i"/><use x="387.61661" y="136.76759" width="100%" height="100%" xlink:href="#ad"/><use x="392.06461" y="136.76759" width="100%" height="100%" xlink:href="#b"/><use x="396.5126" y="136.76759" width="100%" height="100%" xlink:href="#a"/><use x="398.7366" y="136.76759" width="100%" height="100%" xlink:href="#h"/><use x="402.7366" y="136.76759" width="100%" height="100%" xlink:href="#bk"/><use x="406.7366" y="136.76759" width="100%" height="100%" xlink:href="#ao"/><use x="413.4006" y="136.76759" width="100%" height="100%" xlink:href="#ar"/><use x="417.8486" y="136.76759" width="100%" height="100%" xlink:href="#f"/><use x="422.2966" y="136.76759" width="100%" height="100%" xlink:href="#af"/><use x="424.0726" y="136.76759" width="100%" height="100%" xlink:href="#h"/><use x="428.0726" y="136.76759" width="100%" height="100%" xlink:href="#a"/><use x="430.2966" y="136.76759" width="100%" height="100%" xlink:href="#y"/><use x="434.7446" y="136.76759" width="100%" height="100%" xlink:href="#m"/><use x="439.1926" y="136.76759" width="100%" height="100%" xlink:href="#t"/><use x="443.64059" y="136.76759" width="100%" height="100%" xlink:href="#bj"/><use x="445.86459" y="136.76759" width="100%" height="100%" xlink:href="#f"/><use x="450.31259" y="136.76759" width="100%" height="100%" xlink:href="#p"/><use x="452.97659" y="136.76759" width="100%" height="100%" xlink:href="#a"/><use x="343.59259" y="145.76759" width="100%" height="100%" xlink:href="#af"/><use x="345.36859" y="145.76759" width="100%" height="100%" xlink:href="#b"/><use x="349.81659" y="145.76759" width="100%" height="100%" xlink:href="#i"/><use x="352.04059" y="145.76759" width="100%" height="100%" xlink:href="#i"/><use x="354.26459" y="145.76759" width="100%" height="100%" xlink:href="#b"/><use x="358.71259" y="145.76759" width="100%" height="100%" xlink:href="#p"/><use x="361.37659" y="145.76759" width="100%" height="100%" xlink:href="#a"/><use x="363.60059" y="145.76759" width="100%" height="100%" xlink:href="#ac"/><use x="367.60059" y="145.76759" width="100%" height="100%" xlink:href="#f"/><use x="372.04861" y="145.76759" width="100%" height="100%" xlink:href="#t"/><use x="376.49661" y="145.76759" width="100%" height="100%" xlink:href="#b"/><use x="380.94461" y="145.76759" width="100%" height="100%" xlink:href="#h"/><use x="384.94461" y="145.76759" width="100%" height="100%" xlink:href="#a"/><use x="387.16861" y="145.76759" width="100%" height="100%" xlink:href="#ab"/><use x="391.61661" y="145.76759" width="100%" height="100%" xlink:href="#h"/><use x="395.61661" y="145.76759" width="100%" height="100%" xlink:href="#b"/><use x="400.06461" y="145.76759" width="100%" height="100%" xlink:href="#t"/><use x="404.5126" y="145.76759" width="100%" height="100%" xlink:href="#a"/><use x="406.7366" y="145.76759" width="100%" height="100%" xlink:href="#l"/><use x="408.5126" y="145.76759" width="100%" height="100%" xlink:href="#m"/><use x="412.9606" y="145.76759" width="100%" height="100%" xlink:href="#a"/><use x="415.1846" y="145.76759" width="100%" height="100%" xlink:href="#i"/><use x="417.4086" y="145.76759" width="100%" height="100%" xlink:href="#ad"/><use x="421.8566" y="145.76759" width="100%" height="100%" xlink:href="#l"/><use x="423.6326" y="145.76759" width="100%" height="100%" xlink:href="#h"/><use x="427.6326" y="145.76759" width="100%" height="100%" xlink:href="#a"/><use x="429.8566" y="145.76759" width="100%" height="100%" xlink:href="#w"/><use x="432.0806" y="145.76759" width="100%" height="100%" xlink:href="#l"/><use x="433.8566" y="145.76759" width="100%" height="100%" xlink:href="#an"/><use x="438.3046" y="145.76759" width="100%" height="100%" xlink:href="#ab"/><use x="442.75259" y="145.76759" width="100%" height="100%" xlink:href="#p"/><use x="445.4166" y="145.76759" width="100%" height="100%" xlink:href="#b"/><use x="449.74619" y="145.76759" width="100%" height="100%" xlink:href="#am"/><use x="316.9126" y="157.76759" width="100%" height="100%" xlink:href="#a"/><use x="343.58939" y="157.76759" width="100%" height="100%" xlink:href="#bi"/><use x="349.36539" y="157.76759" width="100%" height="100%" xlink:href="#f"/><use x="353.81339" y="157.76759" width="100%" height="100%" xlink:href="#m"/><use x="358.26141" y="157.76759" width="100%" height="100%" xlink:href="#h"/><use x="362.26141" y="157.76759" width="100%" height="100%" xlink:href="#l"/><use x="364.03741" y="157.76759" width="100%" height="100%" xlink:href="#t"/><use x="368.48541" y="157.76759" width="100%" height="100%" xlink:href="#b"/><use x="372.93341" y="157.76759" width="100%" height="100%" xlink:href="#p"/><use x="375.59741" y="157.76759" width="100%" height="100%" xlink:href="#a"/><use x="377.82141" y="157.76759" width="100%" height="100%" xlink:href="#ab"/><use x="382.26941" y="157.76759" width="100%" height="100%" xlink:href="#h"/><use x="386.26941" y="157.76759" width="100%" height="100%" xlink:href="#b"/><use x="390.71741" y="157.76759" width="100%" height="100%" xlink:href="#a"/><use x="392.94141" y="157.76759" width="100%" height="100%" xlink:href="#f"/><use x="397.3894" y="157.76759" width="100%" height="100%" xlink:href="#w"/><use x="399.6134" y="157.76759" width="100%" height="100%" xlink:href="#a"/><use x="401.8374" y="157.76759" width="100%" height="100%" xlink:href="#x"/><use x="406.77499" y="157.76759" width="100%" height="100%" xlink:href="#f"/><use x="411.22299" y="157.76759" width="100%" height="100%" xlink:href="#h"/><use x="415.22299" y="157.76759" width="100%" height="100%" xlink:href="#l"/><use x="416.99899" y="157.76759" width="100%" height="100%" xlink:href="#i"/><use x="419.22299" y="157.76759" width="100%" height="100%" xlink:href="#l"/><use x="420.99899" y="157.76759" width="100%" height="100%" xlink:href="#bh"/><use x="424.7998" y="157.76759" width="100%" height="100%" xlink:href="#b"/><use x="429.2478" y="157.76759" width="100%" height="100%" xlink:href="#a"/><use x="343.59259" y="166.76759" width="100%" height="100%" xlink:href="#x"/><use x="348.92859" y="166.76759" width="100%" height="100%" xlink:href="#p"/><use x="351.59259" y="166.76759" width="100%" height="100%" xlink:href="#f"/><use x="356.04059" y="166.76759" width="100%" height="100%" xlink:href="#i"/><use x="358.26459" y="166.76759" width="100%" height="100%" xlink:href="#b"/><use x="362.71259" y="166.76759" width="100%" height="100%" xlink:href="#ac"/><use x="366.71259" y="166.76759" width="100%" height="100%" xlink:href="#i"/><use x="368.93661" y="166.76759" width="100%" height="100%" xlink:href="#l"/><use x="370.71259" y="166.76759" width="100%" height="100%" xlink:href="#f"/><use x="375.16061" y="166.76759" width="100%" height="100%" xlink:href="#m"/><use x="379.60861" y="166.76759" width="100%" height="100%" xlink:href="#a"/><use x="381.83261" y="166.76759" width="100%" height="100%" xlink:href="#bg"/><use x="386.28061" y="166.76759" width="100%" height="100%" xlink:href="#b"/><use x="390.72861" y="166.76759" width="100%" height="100%" xlink:href="#p"/><use x="393.39261" y="166.76759" width="100%" height="100%" xlink:href="#a"/><use x="395.61661" y="166.76759" width="100%" height="100%" xlink:href="#al"/><use x="400.95261" y="166.76759" width="100%" height="100%" xlink:href="#b"/><use x="405.4006" y="166.76759" width="100%" height="100%" xlink:href="#ac"/><use x="409.4006" y="166.76759" width="100%" height="100%" xlink:href="#i"/><use x="411.6246" y="166.76759" width="100%" height="100%" xlink:href="#l"/><use x="413.4006" y="166.76759" width="100%" height="100%" xlink:href="#f"/><use x="417.8486" y="166.76759" width="100%" height="100%" xlink:href="#m"/><use x="422.2966" y="166.76759" width="100%" height="100%" xlink:href="#a"/><use x="424.5206" y="166.76759" width="100%" height="100%" xlink:href="#ae"/><use x="428.9686" y="166.76759" width="100%" height="100%" xlink:href="#bf"/><use x="435.6326" y="166.76759" width="100%" height="100%" xlink:href="#am"/><use x="437.8566" y="166.76759" width="100%" height="100%" xlink:href="#be"/><use x="442.3046" y="166.76759" width="100%" height="100%" xlink:href="#ap"/></g></svg>
