<?xml version="1.0" encoding="UTF-8"?>
<svg width="525.26pt" height="553.91pt" version="1.2" viewBox="0 0 525.26 553.91" xmlns="http://www.w3.org/2000/svg" xmlns:xlink="http://www.w3.org/1999/xlink"><defs><symbol id="ba" overflow="visible"><path d="m4.5781-7.0938h2.5938v-1.5156h-7v1.5156h2.5938v7.0938h1.8125z"/></symbol><symbol id="av" overflow="visible"><path d="m6.4688-6.3906h-1.7812l-1.2969 4.7031h-0.03125l-1.375-4.7031h-1.8594l2.3438 6.6562c-0.15625 0.875-0.48438 0.95312-1.0938 0.95312-0.15625 0-0.26562 0-0.32812-0.015625v1.3438c0.23438 0.015625 0.53125 0.015625 0.75 0.015625 1.4688 0 1.6875-0.3125 2.4688-2.6719z"/></symbol><symbol id="t" overflow="visible"><path d="m2.3594-3.0469c0-1.0156 0.26562-2.0469 1.4219-2.0469 1.0625 0 1.4219 0.9375 1.4219 1.9531 0 0.75-0.29688 1.9219-1.375 1.9219-1.0625 0-1.4688-0.875-1.4688-1.8281zm0-3.3438h-1.6094v8.875h1.6719v-3.2969h0.03125c0.20312 0.34375 0.625 0.98438 1.7969 0.98438 1.8906 0 2.6875-1.6875 2.6875-3.4375 0-2.2031-1.25-3.2812-2.6562-3.2812-1.125 0-1.5938 0.57812-1.9062 1.0938h-0.015625z"/></symbol><symbol id="s" overflow="visible"><path d="m0.82812-6.3906v6.3906h1.6875v-6.3906zm1.6875-2.3125h-1.6875v1.5625h1.6875z"/></symbol><symbol id="ae" overflow="visible"><path d="m4.5781-2.3281c0 0.29688-0.29688 1.1094-1.1406 1.1094-1.2812 0-1.2969-1.375-1.2969-2.0625 0-0.79688 0.26562-1.8594 1.3281-1.8594 0.78125-0.046875 1.0469 0.60938 1.1094 1.0312h1.7031c-0.15625-1.9844-1.8125-2.4375-2.8125-2.4375-2.1562 0-3.0625 1.4688-3.0625 3.5312 0 1.3438 0.54688 3.1875 2.9531 3.1875 2.3438 0 2.8594-1.8438 2.9219-2.5z"/></symbol><symbol id="ad" overflow="visible"><path d="m5.9531-4.7031c0-1.5781-1.6406-1.8438-2.5469-1.8438-1.3125 0-2.6562 0.26562-2.8594 2.2344h1.625c0.046875-0.375 0.1875-0.89062 1.0312-0.89062 0.4375 0 1.1094 0.03125 1.1094 0.73438 0 0.35938-0.32812 0.46875-0.59375 0.51562l-1.5156 0.21875c-1.0625 0.15625-1.8594 0.79688-1.8594 2.0469 0 1.3125 0.98438 1.8594 1.9531 1.8594 1.1406 0 1.6719-0.53125 2.0625-0.92188 0.03125 0.35938 0.0625 0.45312 0.15625 0.75h1.8125v-0.25c-0.20312-0.078125-0.375-0.23438-0.375-1zm-1.6406 2.4062c0 0.78125-0.76562 1.2656-1.5 1.2656-0.32812 0-0.78125-0.1875-0.78125-0.76562 0-0.70312 0.51562-0.85938 1.1406-0.96875 0.6875-0.10938 0.96875-0.20312 1.1406-0.34375z"/></symbol><symbol id="ac" overflow="visible"><path d="m2.5156-8.6094h-1.6875v8.6094h1.6875z"/></symbol><symbol id="ab" overflow="visible"></symbol><symbol id="au" overflow="visible"><path d="m2.7344-1.7812h3.1875l0.54688 1.7812h1.9531l-3.0312-8.6094h-2.0781l-3.0781 8.6094h1.9062zm1.5781-4.8906h0.03125l1.0625 3.4062h-2.1875z"/></symbol><symbol id="az" overflow="visible"><path d="m2.6562-8.1094h-1.6719v1.7188h-0.85938v1.2031h0.85938v3.875c0 0.82812 0.26562 1.3906 1.7188 1.3906h0.21875c0.26562 0 0.51562-0.015625 0.78125-0.03125v-1.2656c-0.10938 0-0.23438 0.015625-0.34375 0.015625-0.6875 0-0.70312-0.14062-0.70312-0.51562v-3.4688h1.0469v-1.2031h-1.0469z"/></symbol><symbol id="ay" overflow="visible"><path d="m6.9375-3.1875c0-2.3125-1.5469-3.3594-3.2656-3.3594s-3.2656 1.0469-3.2656 3.3594c0 2.2969 1.5469 3.3594 3.2656 3.3594s3.2656-1.0625 3.2656-3.3594zm-1.7344 0c0 0.8125-0.23438 1.9375-1.5312 1.9375s-1.5312-1.125-1.5312-1.9375c0-0.82812 0.23438-1.9531 1.5312-1.9531s1.5312 1.125 1.5312 1.9531z"/></symbol><symbol id="ax" overflow="visible"><path d="m6.5469-4.4219c0-1.3906-0.96875-2.125-2.2188-2.125-1.2031 0-1.6875 0.71875-1.9219 1.0938h-0.015625v-0.9375h-1.6094v6.3906h1.6719v-3.6562c0-0.96875 0.57812-1.4844 1.3281-1.4844 1.0625 0 1.0938 0.79688 1.0938 1.2656v3.875h1.6719z"/></symbol><symbol id="aw" overflow="visible"><path d="m3.3438-5.0625c-0.71875 0-1.0938-0.54688-1.0938-1.0625 0-0.625 0.40625-1.0469 1.1562-1.0469 0.54688 0 0.98438 0.40625 0.98438 1.0469 0 0.60938-0.375 1.0625-1.0469 1.0625zm2.9375 2.5312c0-1.1094-0.45312-1.6406-1.2656-2.0469 0.6875-0.35938 0.98438-0.98438 0.98438-1.7188 0-1.1719-0.9375-2.2188-2.7031-2.2188-1.4844 0-2.6562 0.875-2.6562 2.3281 0 0.78125 0.375 1.3281 1.0469 1.6562-1.2969 0.60938-1.2969 1.7344-1.2969 2.1719 0 1.1562 0.75 2.5938 2.9531 2.5938 2.25 0 2.9375-1.6875 2.9375-2.7656zm-1.7188 0.078125c0 0.57812-0.34375 1.3438-1.2188 1.3438-0.76562 0-1.2344-0.54688-1.2344-1.3594 0-0.92188 0.59375-1.3281 1.2031-1.3281 0.9375 0 1.25 0.73438 1.25 1.3438z"/></symbol><symbol id="r" overflow="visible"><path d="m1.5938-5.4219h2.6875v-0.76562h-3.2812l-0.48438 3.3906 0.6875 0.03125c0.29688-0.39062 0.71875-0.59375 1.1719-0.59375 0.78125 0 1.4062 0.48438 1.4062 1.3906 0 0.79688-0.51562 1.4531-1.3281 1.4531-0.71875 0-1.2656-0.32812-1.3438-1.0625h-0.82812c0.15625 1.4219 1.2188 1.75 2.0469 1.75 1.9844 0 2.2969-1.5156 2.2969-2.2188 0-1.3125-1.0469-2.0312-2.0781-2.0312-0.5625 0-0.95312 0.1875-1.2188 0.39062z"/></symbol><symbol id="c" overflow="visible"><path d="m3.8281-3.0781c0 1.5781-0.42188 2.5312-1.3281 2.5312s-1.3281-0.95312-1.3281-2.5312 0.42188-2.5312 1.3281-2.5312 1.3281 0.95312 1.3281 2.5312zm0.84375 0c0-1.3125-0.35938-3.25-2.1719-3.25s-2.1719 1.9375-2.1719 3.25 0.35938 3.25 2.1719 3.25 2.1719-1.9375 2.1719-3.25z"/></symbol><symbol id="j" overflow="visible"></symbol><symbol id="i" overflow="visible"><path d="m2.3594-4.0469v-0.65625h-0.79688v-0.59375c0-0.375 0.125-0.54688 0.46875-0.54688 0.10938 0 0.23438 0.015625 0.32812 0.015625v-0.70312c-0.125-0.015625-0.25-0.015625-0.35938-0.015625-0.78125 0-1.2188 0.3125-1.2188 1.0312v0.8125h-0.65625v0.65625h0.65625v4.0469h0.78125v-4.0469z"/></symbol><symbol id="h" overflow="visible"><path d="m2.3125-4.0469v-0.65625h-0.75v-1.3125h-0.79688v1.3125h-0.64062v0.65625h0.64062v3.1094c0 0.5625 0.17188 1 0.95312 1 0.078125 0 0.3125-0.03125 0.59375-0.0625v-0.625h-0.28125c-0.15625 0-0.46875 0-0.46875-0.35938v-3.0625z"/></symbol><symbol id="at" overflow="visible"><path d="m3.2344-6.3281h-0.625c-0.25 1.0312-0.67188 1.1406-1.7031 1.2031v0.64062h1.4844v4.4844h0.84375z"/></symbol><symbol id="as" overflow="visible"><path d="m0.78125 0h0.48438c0 0.42188-0.10938 0.875-0.48438 0.90625v0.42188c0.1875-0.03125 0.9375-0.17188 0.9375-1.4062v-0.875h-0.9375z"/></symbol><symbol id="ar" overflow="visible"><path d="m1.1875-4.0625c0.03125-0.4375 0.078125-1.5469 1.2812-1.5469 0.92188 0 1.25 0.625 1.25 1.1406 0 0.82812-0.48438 1.0781-1.1562 1.4688l-0.84375 0.48438c-0.84375 0.5-1.4375 1.2031-1.4844 2.5156h4.3281v-0.75h-3.4375c0.03125-0.23438 0.21875-0.73438 1.0938-1.2188l0.65625-0.35938c0.9375-0.5 1.6875-0.96875 1.6875-2.1094 0-1.1719-0.875-1.8906-1.9844-1.8906-0.67188 0-2.1875 0.20312-2.1875 2.2656z"/></symbol><symbol id="aq" overflow="visible"><path d="m4.4219-1.1094h-0.015625l-2.875-4.6406h-0.92188v5.75h0.75v-4.6406h0.015625l2.9219 4.6406h0.875v-5.75h-0.75z"/></symbol><symbol id="e" overflow="visible"><path d="m0.28125-2.0938c0 1.0781 0.60938 2.2031 1.9375 2.2031 1.3438 0 1.9531-1.125 1.9531-2.2031s-0.60938-2.2031-1.9531-2.2031c-1.3281 0-1.9375 1.125-1.9375 2.2031zm0.73438 0c0-0.5625 0.20312-1.6094 1.2031-1.6094 1.0156 0 1.2188 1.0469 1.2188 1.6094s-0.20312 1.5938-1.2188 1.5938c-1 0-1.2031-1.0312-1.2031-1.5938z"/></symbol><symbol id="d" overflow="visible"><path d="m2.0625-3.5938v-0.59375h-0.67188v-1.1719h-0.70312v1.1719h-0.57812v0.59375h0.57812v2.75c0 0.5 0.14062 0.90625 0.84375 0.90625 0.0625 0 0.26562-0.03125 0.53125-0.0625v-0.54688h-0.25c-0.15625 0-0.42188 0-0.42188-0.32812v-2.7188z"/></symbol><symbol id="b" overflow="visible"><path d="m3.375-1.3125c-0.03125 0.3125-0.42188 0.82812-1.0938 0.82812-0.79688 0-1.2031-0.5-1.2031-1.375h3.0469c0-1.4844-0.59375-2.4375-1.7969-2.4375-1.3906 0-2.0156 1.0312-2.0156 2.3281 0 1.2031 0.70312 2.0938 1.875 2.0938 0.67188 0 0.95312-0.17188 1.1406-0.29688 0.53125-0.34375 0.71875-0.9375 0.75-1.1406zm-2.2969-1.1094c0-0.65625 0.5-1.25 1.1562-1.25 0.85938 0 1.125 0.59375 1.1719 1.25z"/></symbol><symbol id="aj" overflow="visible"><path d="m1.5312-0.84375h-0.82812v0.84375h0.82812zm0-3.2812h-0.82812v0.84375h0.82812z"/></symbol><symbol id="a" overflow="visible"></symbol><symbol id="ai" overflow="visible"><path d="m4.7969-4.0625c-0.03125-0.64062-0.23438-1.8281-2.2344-1.8281-1.3906 0-1.9844 0.875-1.9844 1.7656 0 1 0.85938 1.2656 1.2344 1.3594l1.1719 0.26562c0.9375 0.23438 1.2188 0.42188 1.2188 1.0156 0 0.82812-0.9375 0.96875-1.5 0.96875-0.73438 0-1.5781-0.29688-1.5781-1.3438h-0.73438c0 0.54688 0.09375 1.0156 0.57812 1.4531 0.26562 0.23438 0.67188 0.5625 1.75 0.5625 0.98438 0 2.2344-0.375 2.2344-1.7344 0-0.92188-0.54688-1.3594-1.2969-1.5469l-1.6406-0.375c-0.32812-0.078125-0.67188-0.23438-0.67188-0.71875 0-0.875 0.8125-1.0156 1.2969-1.0156 0.65625 0 1.3906 0.28125 1.4375 1.1719z"/></symbol><symbol id="ah" overflow="visible"><path d="m0.10938-5.0625h1.9531v5.0625h0.76562v-5.0625h1.9531v-0.6875h-4.6719z"/></symbol><symbol id="k" overflow="visible"><path d="m1.1406-2.9062c0.046875-0.32812 0.15625-0.8125 0.96875-0.8125 0.65625 0 0.98438 0.23438 0.98438 0.67188 0 0.42188-0.20312 0.48438-0.375 0.5l-1.1562 0.14062c-1.1719 0.15625-1.2812 0.96875-1.2812 1.3125 0 0.71875 0.54688 1.2188 1.3125 1.2188 0.82812 0 1.25-0.39062 1.5156-0.6875 0.03125 0.32812 0.125 0.64062 0.75 0.64062 0.15625 0 0.26562-0.046875 0.375-0.078125v-0.51562c-0.078125 0.015625-0.15625 0.03125-0.21875 0.03125-0.15625 0-0.23438-0.0625-0.23438-0.25v-2.4062c0-1.0625-1.2188-1.1562-1.5625-1.1562-1.0312 0-1.6875 0.39062-1.7188 1.3906zm1.9375 1.4531c0 0.5625-0.64062 0.98438-1.2969 0.98438-0.53125 0-0.76562-0.26562-0.76562-0.71875 0-0.53125 0.54688-0.64062 0.89062-0.6875 0.875-0.10938 1.0469-0.17188 1.1719-0.26562z"/></symbol><symbol id="aa" overflow="visible"><path d="m1.125 0v-0.51562h0.015625c0.14062 0.23438 0.4375 0.64062 1.1562 0.64062 1.4219 0 1.8438-1.3438 1.8438-2.3438 0-1.1719-0.64062-2.0781-1.75-2.0781-0.48438 0-0.90625 0.20312-1.2031 0.64062h-0.015625v-2.0938h-0.70312v5.75zm2.2812-2.1094c0 0.92188-0.35938 1.625-1.125 1.625-0.45312 0-1.1406-0.29688-1.1406-1.4062 0-0.6875 0.10938-1.7812 1.125-1.7812 1.0938 0 1.1406 1.0312 1.1406 1.5625z"/></symbol><symbol id="q" overflow="visible"><path d="m1.2344-5.75h-0.70312v5.75h0.70312z"/></symbol><symbol id="f" overflow="visible"><path d="m3.5781-2.9844c0-0.21875-0.10938-1.3125-1.6094-1.3125-0.8125 0-1.5781 0.40625-1.5781 1.3281 0 0.57812 0.39062 0.875 0.96875 1.0156l0.8125 0.20312c0.60938 0.15625 0.84375 0.26562 0.84375 0.59375 0 0.46875-0.46875 0.67188-0.96875 0.67188-0.98438 0-1.0938-0.53125-1.1094-0.85938h-0.6875c0.03125 0.5 0.15625 1.4688 1.8125 1.4688 0.9375 0 1.6562-0.53125 1.6562-1.3906 0-0.5625-0.3125-0.89062-1.1875-1.1094l-0.70312-0.17188c-0.54688-0.14062-0.75-0.21875-0.75-0.5625 0-0.51562 0.60938-0.59375 0.82812-0.59375 0.89062 0 0.98438 0.45312 0.98438 0.71875z"/></symbol><symbol id="z" overflow="visible"><path d="m4.0312-4.125c-0.078125-1.1406-1-1.5-1.6406-1.5-1.6875 0-2.0938 1.7812-2.0938 3.0156 0 0.73438 0.10938 1.4219 0.4375 1.9531 0.40625 0.60938 1.0156 0.8125 1.4531 0.8125 0.78125 0 1.125-0.21875 1.4219-0.54688 0.375-0.42188 0.53125-0.82812 0.53125-1.4062 0-1.3438-1.0625-1.7812-1.75-1.7812-0.78125 0-1.1719 0.375-1.3438 0.6875l-0.015625-0.015625c0-0.59375 0.23438-2.0781 1.3438-2.0781 0.59375 0 0.875 0.35938 0.96875 0.85938zm-2.9062 2.3906c0-0.65625 0.375-1.2188 1.1562-1.2188 0.875 0 1.1406 0.6875 1.1406 1.1875 0 0.75-0.4375 1.2812-1.1094 1.2812-0.82812 0-1.1875-0.64062-1.1875-1.25z"/></symbol><symbol id="y" overflow="visible"><path d="m1.4688-5.0781h1.5781c0.64062 0 1.125 0.23438 1.125 0.95312 0 0.78125-0.46875 1.0312-1.1562 1.0312h-1.5469zm0 2.6562h1.7969c1.25 0 1.7031-0.90625 1.7031-1.7031 0-0.9375-0.625-1.625-1.7031-1.625h-2.5781v5.75h0.78125z"/></symbol><symbol id="x" overflow="visible"><path d="m2.3125-2.5781h-1.9531v0.71875h1.9531z"/></symbol><symbol id="ap" overflow="visible"><path d="m1.0625-3.6094c0.015625-0.39062 0.0625-1.375 1.125-1.375 0.82812 0 1.1094 0.5625 1.1094 1.0156 0 0.73438-0.42188 0.95312-1.0312 1.3125l-0.73438 0.42188c-0.75 0.4375-1.2812 1.0625-1.3281 2.2344h3.8594v-0.65625h-3.0625c0.03125-0.21875 0.20312-0.65625 0.96875-1.0938l0.57812-0.3125c0.84375-0.45312 1.5156-0.875 1.5156-1.875 0-1.0469-0.79688-1.6875-1.7656-1.6875-0.60938 0-1.9375 0.1875-1.9375 2.0156z"/></symbol><symbol id="g" overflow="visible"><path d="m3.9219-2.8438c0-1.2031-0.8125-1.4531-1.4531-1.4531-0.71875 0-1.1094 0.48438-1.2656 0.70312h-0.015625v-0.59375h-0.67188v4.1875h0.70312v-2.2812c0-1.1406 0.70312-1.3906 1.1094-1.3906 0.6875 0 0.89062 0.375 0.89062 1.0938v2.5781h0.70312z"/></symbol><symbol id="n" overflow="visible"><path d="m3.9844-5.75h-0.70312v2.1562h-0.015625c-0.15625-0.23438-0.48438-0.70312-1.2344-0.70312-1.125 0-1.75 0.90625-1.75 2.0781 0 1 0.42188 2.3438 1.8438 2.3438 0.40625 0 0.89062-0.14062 1.1875-0.70312h0.015625v0.57812h0.65625zm-2.9688 3.6406c0-0.53125 0.046875-1.5625 1.1406-1.5625 1.0156 0 1.125 1.0938 1.125 1.7812 0 1.1094-0.70312 1.4062-1.1406 1.4062-0.76562 0-1.125-0.70312-1.125-1.625z"/></symbol><symbol id="ao" overflow="visible"><path d="m1.7969-2.5938h0.3125c0.48438 0 1.3125 0.078125 1.3125 1.0312 0 0.64062-0.5 1.0781-1.2188 1.0781-1.0469 0-1.1719-0.70312-1.2031-1.2344h-0.73438c0.046875 0.64062 0.21875 1.2969 0.84375 1.625 0.28125 0.14062 0.625 0.25 1.0469 0.25 1.4219 0 2.0156-0.89062 2.0156-1.8125 0-0.75-0.39062-1.1406-0.9375-1.3125v-0.015625c0.3125-0.09375 0.71875-0.4375 0.71875-1.1562 0-0.85938-0.64062-1.4844-1.7344-1.4844-1.4688 0-1.8125 1.0156-1.8125 1.8438h0.6875c0.03125-0.39062 0.09375-1.2031 1.0938-1.2031 0.84375 0 1.0469 0.54688 1.0469 0.875 0 0.70312-0.53125 0.92188-1.0781 0.92188-0.10938 0-0.25 0-0.35938-0.015625z"/></symbol><symbol id="p" overflow="visible"><path d="m2.0938-3.5938v-0.59375h-0.70312v-0.51562c0-0.34375 0.10938-0.48438 0.42188-0.48438 0.078125 0 0.20312 0 0.28125 0.015625v-0.64062c-0.10938 0-0.21875-0.015625-0.3125-0.015625-0.6875 0-1.0938 0.29688-1.0938 0.92188v0.71875h-0.57812v0.59375h0.57812v3.5938h0.70312v-3.5938z"/></symbol><symbol id="m" overflow="visible"><path d="m1.3125-2.4375c0-0.60938 0.42188-1.1094 1.0781-1.1094h0.26562v-0.73438c-0.0625-0.015625-0.09375-0.015625-0.1875-0.015625-0.53125 0-0.89062 0.32812-1.1719 0.8125h-0.015625v-0.70312h-0.67188v4.1875h0.70312z"/></symbol><symbol id="o" overflow="visible"><path d="m3.9219-2.8438c0-1.2031-0.8125-1.4531-1.4531-1.4531-0.67188 0-1.0312 0.40625-1.2344 0.67188h-0.015625v-2.125h-0.70312v5.75h0.70312v-2.2812c0-1.0625 0.59375-1.3906 1.1719-1.3906 0.67188 0 0.82812 0.375 0.82812 0.9375v2.7344h0.70312z"/></symbol><symbol id="w" overflow="visible"><path d="m0.51562 0h0.70312v-2.2812c0-1.1406 0.70312-1.3906 1.1094-1.3906 0.51562 0 0.65625 0.42188 0.65625 0.78125v2.8906h0.70312v-2.5469c0-0.5625 0.39062-1.125 0.98438-1.125s0.78125 0.39062 0.78125 0.96875v2.7031h0.70312v-2.8906c0-1.1875-0.85938-1.4062-1.2969-1.4062-0.65625 0-0.9375 0.28125-1.2812 0.67188-0.125-0.21875-0.35938-0.67188-1.1094-0.67188s-1.1094 0.48438-1.2656 0.70312h-0.015625v-0.59375h-0.67188z"/></symbol><symbol id="l" overflow="visible"><path d="m1.2344-4.1875h-0.70312v4.1875h0.70312zm0-0.75v-0.8125h-0.70312v0.8125z"/></symbol><symbol id="v" overflow="visible"><path d="m1.0469-2.1094c0-0.53125 0.0625-1.5625 1.1406-1.5625 1.0156 0 1.125 1.0938 1.125 1.7812 0 1.1094-0.6875 1.4062-1.1406 1.4062-0.76562 0-1.125-0.70312-1.125-1.625zm2.9375-2.0781h-0.65625v0.625c-0.17188-0.26562-0.5-0.73438-1.2656-0.73438-1.1094 0-1.75 0.90625-1.75 2.0781 0 1 0.42188 2.3438 1.8438 2.3438 0.5625 0 0.9375-0.26562 1.125-0.59375v0.17188c0 0.5 0.03125 1.4688-1.1875 1.4688-0.17188 0-0.8125 0-0.9375-0.65625h-0.70312c0.125 1.1094 1.0938 1.25 1.5938 1.25 1.9375 0 1.9375-1.5156 1.9375-2.1094z"/></symbol><symbol id="an" overflow="visible"><path d="m2.0156-0.78125h-0.015625l-1.1094-3.4062h-0.79688l1.5469 4.2969c-0.34375 0.85938-0.375 0.96875-0.75 0.96875-0.1875 0-0.32812-0.03125-0.42188-0.0625v0.625c0.10938 0.046875 0.1875 0.078125 0.29688 0.078125 0.90625 0 0.98438-0.10938 1.6406-1.7969 0.53125-1.375 1.0156-2.7344 1.5-4.1094h-0.76562z"/></symbol><symbol id="am" overflow="visible"><path d="m2.3594-5.8906h-0.53125l-1.9688 6.0469h0.54688z"/></symbol><symbol id="al" overflow="visible"><path d="m3.8125-2.7812c-0.046875-0.71875-0.46875-1.5156-1.5625-1.5156-1.3906 0-2.0156 1.0312-2.0156 2.3281 0 1.2031 0.70312 2.0938 1.875 2.0938 1.2344 0 1.6406-0.9375 1.7031-1.6094h-0.67188c-0.125 0.64062-0.53125 1-1 1-0.96875 0-1.1562-0.89062-1.1562-1.6094 0-0.75 0.28125-1.5781 1.1562-1.5781 0.59375 0 0.90625 0.32812 1 0.89062z"/></symbol><symbol id="u" overflow="visible"><path d="m3.9062 0v-4.1875h-0.70312v2.3125c0 0.60938-0.26562 1.3906-1.1406 1.3906-0.46875 0-0.8125-0.23438-0.8125-0.92188v-2.7812h-0.70312v3.0156c0 1 0.73438 1.2969 1.3594 1.2969 0.67188 0 1.0312-0.26562 1.3281-0.75l0.015625 0.015625v0.60938z"/></symbol><symbol id="ak" overflow="visible"><path d="m1.5312-0.84375h-0.82812v0.84375h0.82812z"/></symbol><clipPath id="bc"><path d="m289.27 103.93h47.691v35.605h-47.691z"/></clipPath><clipPath id="bb"><rect width="45" height="45"/></clipPath><g id="af" clip-path="url(#bb)"><path transform="matrix(.625 0 0 .625 -.15625 2.25)" d="m0 0h72.5" fill="none" stroke="#211e1e" stroke-width="1.44"/><path transform="matrix(.625 0 0 .625 -.15625 11.25)" d="m0 0h72.5" fill="none" stroke="#211e1e" stroke-width="1.44"/><path transform="matrix(.625 0 0 .625 -.15625 20.25)" d="m0 0h72.5" fill="none" stroke="#211e1e" stroke-width="1.44"/><path transform="matrix(.625 0 0 .625 -.15625 29.25)" d="m0 0h72.5" fill="none" stroke="#211e1e" stroke-width="1.44"/><path transform="matrix(.625 0 0 .625 -.15625 38.25)" d="m0 0h72.5" fill="none" stroke="#211e1e" stroke-width="1.44"/><path transform="matrix(.625 0 0 .625 -.15625 6.75)" d="m0 0h72.5" fill="none" stroke="#211e1e" stroke-width="1.44"/><path transform="matrix(.625 0 0 .625 -.15625 15.75)" d="m0 0h72.5" fill="none" stroke="#211e1e" stroke-width="1.44"/><path transform="matrix(.625 0 0 .625 -.15625 24.75)" d="m0 0h72.5" fill="none" stroke="#211e1e" stroke-width="1.44"/><path transform="matrix(.625 0 0 .625 -.15625 33.75)" d="m0 0h72.5" fill="none" stroke="#211e1e" stroke-width="1.44"/><path transform="matrix(.625 0 0 .625 -.15625 42.75)" d="m0 0h72.5" fill="none" stroke="#211e1e" stroke-width="1.44"/></g><pattern id="ag" width="45" height="45" patternTransform="matrix(.69856 -.69856 -.69856 -.69856 -5.0282 788.98)" patternUnits="userSpaceOnUse"><use xlink:href="#af"/></pattern></defs><g fill="#211e1e"><path d="m305.47 483.37v3.1836h-3.1836v2.9492h9.3164v-2.9492h-3.1875v-3.1836z"/><path d="m305.47 394.66v3.1797h-3.1836v2.9531h9.3164v-2.9531h-3.1875v-3.1797z"/><path d="m305.47 306.73v3.1836h-3.1836v2.9492h9.3164v-2.9492h-3.1875v-3.1836z"/><path d="m305.47 154.91v3.1797h-3.1836v2.9492h9.3164v-2.9492h-3.1875v-3.1797z"/><path d="m305.47 94.371v3.1797h-3.1836v2.9492h9.3164v-2.9492h-3.1875v-3.1797z"/><path d="m57.258 248.31h3.1797v3.1797h2.9492v-9.3125h-2.9492v3.1836h-3.1797z"/></g><path d="m328.4 396.86v-38.625" fill="none" stroke="#211e1e" stroke-width=".75"/><path d="m328.94 398.1c0.26563-0.86718 0.50782-1.4336 0.78516-2.1289h-2.6484c0.11719 0.25 0.51953 1.2617 0.78125 2.1289 0.28125 0.92969 0.47656 1.7734 0.54297 2.3164 0.0664-0.54297 0.26172-1.3867 0.53906-2.3164" fill="#211e1e"/><path d="m328.4 305.31v42.27" fill="none" stroke="#211e1e" stroke-width=".75"/><path d="m327.86 304.07c-0.26171 0.86719-0.5039 1.4336-0.78125 2.1289h2.6445c-0.11719-0.25-0.51954-1.2617-0.78125-2.1289-0.28125-0.92969-0.47266-1.7734-0.53907-2.3164-0.0703 0.54297-0.26172 1.3867-0.54297 2.3164" fill="#211e1e"/><path d="m328.4 485.57v-39.617" fill="none" stroke="#211e1e" stroke-width=".75"/><path d="m328.94 486.81c0.26563-0.86719 0.50782-1.4336 0.78516-2.1289h-2.6484c0.11719 0.2461 0.51953 1.2617 0.78125 2.1289 0.28125 0.92969 0.47656 1.7695 0.54297 2.3164 0.0664-0.54688 0.26172-1.3867 0.53906-2.3164" fill="#211e1e"/><path d="m338.02 489.5h-21.379" fill="none" stroke="#211e1e" stroke-width=".75"/><path d="m328.4 95.859v-21.031" fill="none" stroke="#211e1e" stroke-width=".75"/><path d="m328.94 97.102c0.26563-0.86719 0.50782-1.4336 0.78516-2.1289h-2.6484c0.11719 0.25 0.51953 1.2617 0.78125 2.1289 0.28125 0.92969 0.47656 1.7695 0.54297 2.3164 0.0664-0.54688 0.26172-1.3867 0.53906-2.3164" fill="#211e1e"/><path d="m328.4 156.25v-18.105" fill="none" stroke="#211e1e" stroke-width=".75"/><path d="m328.94 157.49c0.26563-0.86719 0.50782-1.4297 0.78516-2.1289h-2.6484c0.11719 0.25 0.51953 1.2617 0.78125 2.1289 0.28125 0.92969 0.47656 1.7734 0.54297 2.3203 0.0664-0.54687 0.26172-1.3906 0.53906-2.3203" fill="#211e1e"/><g fill="none" stroke="#211e1e" stroke-width=".75"><path d="m338.02 160.18h-21.379"/><path d="m338.02 160.18h-21.379"/><path d="m328.4 103.73v23.867"/></g><path d="m327.86 102.48c-0.26171 0.8711-0.5039 1.4336-0.78125 2.1289h2.6445c-0.11719-0.25-0.51954-1.2578-0.78125-2.1289-0.28125-0.92578-0.47266-1.7695-0.53907-2.3164-0.0703 0.54687-0.26172 1.3906-0.54297 2.3164" fill="#211e1e"/><g fill="none" stroke="#211e1e" stroke-width=".75"><path d="m338.02 99.793h-21.379"/><path d="m338.02 99.793h-21.379"/><path d="m328.4 42.984v21.672"/></g><path d="m327.86 41.742c-0.26171 0.8711-0.5039 1.4336-0.78125 2.1289h2.6445c-0.11719-0.24609-0.51954-1.2578-0.78125-2.1289-0.28125-0.92578-0.47266-1.7695-0.53907-2.3164-0.0703 0.54687-0.26172 1.3906-0.54297 2.3164" fill="#211e1e"/><path d="m338.02 39.051h-42.484" fill="none" stroke="#211e1e" stroke-width=".75"/><path d="m328.4 404.72v30.352" fill="none" stroke="#211e1e" stroke-width=".75"/><path d="m327.86 403.48c-0.26171 0.86719-0.5039 1.4336-0.78125 2.1289h2.6445c-0.11719-0.25-0.51954-1.2617-0.78125-2.1289-0.28125-0.92969-0.47266-1.7734-0.53907-2.3164-0.0703 0.54296-0.26172 1.3867-0.54297 2.3164" fill="#211e1e"/><path d="m338.02 400.79h-21.379" fill="none" stroke="#211e1e" stroke-width=".75"/><path d="m520.42 266.65c0-5.5352-4.5273-10.059-10.059-10.059h-206.94c-5.5312 0-10.059-4.5274-10.059-10.059v-220.46c0-5.5312-4.5234-10.059-10.059-10.059h-26.684c-5.5312 0-10.055 4.5274-10.055 10.059v220.46c0 5.5312-4.5273 10.059-10.059 10.059h-209.96c-5.5312 0-10.059 4.5234-10.059 10.059v24.645c0 5.5312 4.5273 10.059 10.059 10.059h209.46c5.5312 0 10.559 5.0273 10.559 10.559v222.94c0 5.5312 4.5234 10.062 10.055 10.062h26.684c5.5352 0 10.059-4.5312 10.059-10.062v-222.94c0-5.5312 5.0273-10.559 10.559-10.559h206.44c5.5312 0 10.059-4.5274 10.059-10.059z" fill="#fff" stroke="#211e1e"/><path d="m256.62 18.164c-4.3594 0-7.9062 3.5469-7.9062 7.9102v220.46c0 6.7305-5.4766 12.207-12.207 12.207h-209.96c-4.3633 0-7.9102 3.5469-7.9102 7.9102v24.121c0 4.3594 3.5469 7.9062 7.9102 7.9062h209.96c6.7305 0 12.207 5.4766 12.207 12.207v223.96c0 4.3633 3.5469 7.9102 7.9062 7.9102h26.684c4.3633 0 7.9102-3.5469 7.9102-7.9102v-223.96c0-6.7305 5.4766-12.207 12.207-12.207h206.94c4.3633 0 7.9102-3.5469 7.9102-7.9062v-24.121c0-4.3633-3.5469-7.9102-7.9102-7.9102h-206.94c-6.7305 0-12.207-5.4766-12.207-12.207v-220.46c0-4.3633-3.5469-7.9102-7.9102-7.9102z" fill="#b0b0b0"/><g fill="none" stroke="#facc2b" stroke-width="2"><path d="m302.37 277.25h193.56"/><path d="m302.37 280.26h193.09" stroke-dasharray="18, 54"/><path d="m50.238 277.25h193.56" stroke-dasharray="18, 54"/><path d="m50.238 280.26h193.09"/><path d="m271.8 307.64v86"/><path d="m268.74 307.64-0.19531 227.33" stroke-dasharray="18, 54"/><path d="m268.54 249.88v-98.238"/><path d="m271.55 127.86v-109.86" stroke-dasharray="18, 54"/><path d="m271.55 249.88v-81.023" stroke-dasharray="18, 54"/></g><path d="m293.59 0.5h-47.691v35.605h47.691z" fill="#fff" stroke="#211e1e"/><g transform="translate(-43.371 -103.43)" clip-path="url(#bc)"><path d="m289.27 139.54h47.691v-35.605h-47.691z" fill="url(#ag)"/></g><path d="m293.59 0.5h-47.691v35.605h47.691z" fill="none" stroke="#211e1e"/><path d="m243.3 247.23h-71.223" fill="none" stroke="#211e1e" stroke-width=".75"/><path d="m243.87 246.69c-0.86719-0.26172-1.4297-0.5039-2.125-0.78125v2.6484c0.24609-0.12109 1.2578-0.52344 2.125-0.78516 0.92968-0.28125 1.7734-0.47265 2.3203-0.53906-0.54688-0.0703-1.3906-0.26172-2.3203-0.54297" fill="#211e1e"/><path d="m66.84 247.23h71.02" fill="none" stroke="#211e1e" stroke-width=".75"/><path d="m65.707 247.77c0.86718 0.26172 1.4297 0.5 2.125 0.78125v-2.6484c-0.2461 0.11719-1.2578 0.52344-2.125 0.78516-0.92969 0.28125-1.7734 0.47265-2.3203 0.53906 0.54688 0.0703 1.3906 0.26172 2.3203 0.54297" fill="#211e1e"/><path d="m269.8 46.645c0.21094 14.207-39.742 17.926-39.742 17.926" fill="none" stroke="#211e1e" stroke-width=".75"/><path d="m269.24 45.414c-0.25 0.87109-0.48046 1.4375-0.75 2.1367l2.6484-0.0391c-0.125-0.2461-0.53906-1.25-0.8164-2.1133-0.29297-0.92578-0.5-1.7656-0.57422-2.3125-0.0625 0.54688-0.23828 1.3945-0.50782 2.3281" fill="#211e1e"/><path d="m348.4 239.13s-68.141 24.602-68.141 7.3945" fill="none" stroke="#211e1e" stroke-width=".75"/><path d="m279.72 245.29c-0.26172 0.86719-0.50391 1.4297-0.78125 2.125h2.6445c-0.11719-0.24609-0.51953-1.2578-0.78125-2.125-0.28125-0.92969-0.47266-1.7734-0.54297-2.3203-0.0664 0.54687-0.25781 1.3906-0.53906 2.3203" fill="#211e1e"/><g fill="#fff"><path d="m47.703 229.82h-47.703v114.09h47.703z"/><path d="m525.26 249.82h-46.039v63.418h46.039z"/><path d="m317.11 525.98h-99.188v27.938h99.188z"/></g><g><path d="m273.59 240.97v2h13.355v-2z" fill="#211e1e"/><path d="m283.19 234.97h5.8906l-10.082 4.75h-5.8906z" fill="#f58511"/><path d="m292.23 239.72h-23.922v-4.75h23.922z" fill="#fff"/></g><g fill="#f58511"><path d="m292.23 239.55-0.35157 0.16407h-5.8906l6.2422-2.9375z"/><path d="m273.11 239.72 10.082-4.75h5.8906l-10.082 4.75z"/><path d="m268.3 235.92 2.0156-0.94922h5.8906l-7.9062 3.7266z"/></g><path d="m292.23 239.72h-23.922v-4.75h23.922z" fill="none" stroke="#211e1e"/><path d="m261.03 204.2h5.8906l-10.082-4.75h-5.8945z" fill="#f58511"/><path d="m270.06 199.45h-23.922v4.75h23.922z" fill="#fff"/><g fill="#f58511"><path d="m270.06 199.62-0.35156-0.16406h-5.8867l6.2383 2.9414z"/><path d="m250.95 199.45 10.082 4.75h5.8906l-10.082-4.75z"/><path d="m246.14 203.25 2.0117 0.94922h5.8945l-7.9062-3.7226z"/></g><path d="m270.06 199.45h-23.922v4.75h23.922z" fill="none" stroke="#211e1e"/><path d="m258.11 41.086v2h23.281v-2z" fill="#211e1e"/><path d="m297 34.246h-54.5v4.75h54.5z" fill="#fff" stroke="#211e1e"/><g fill="#f58511"><path d="m245.85 34.438 9.6797 4.5586h5.8867l-10.082-4.75h-5.4844z"/><path d="m267.73 38.996h5.8906l-10.082-4.75h-5.8906z"/><path d="m283.25 38.996h-5.8906l10.082-4.75h5.8906z"/><path d="m271.05 38.996h-5.8906l10.086-4.75h5.8867z"/><path d="m242.5 38.727 0.57422 0.26953h5.8906l-6.4648-3.0469z"/><path d="m296.8 38.727-0.57031 0.26953h-5.8945l6.4648-3.0469z"/></g><path d="m297 34.246h-54.5v4.75h54.5z" fill="none" stroke="#211e1e"/><g fill="#211e1e"><path d="m257.1 490.3v10.664h-2.6133l4.3281 7.3477 4.0195-7.3477h-2.4141v-10.664z"/><path d="m280.49 508.3v-10.66h2.6172l-4.3242-7.3477-4.0234 7.3477h2.4141v10.66z"/><path d="m59.875 291.16h10.664v2.6172l7.3476-4.3281-7.3476-4.0234v2.418h-10.664z"/><path d="m77.887 266.77h-10.664v-2.6133l-7.3477 4.3242 7.3477 4.0234v-2.4141h10.664z"/><path d="m448.38 289.75h10.664v2.6133l7.3476-4.3242-7.3476-4.0234v2.4141h-10.664z"/><path d="m466.39 266.86h-10.664v-2.6172l-7.3477 4.3281 7.3477 4.0234v-2.418h10.664z"/></g><path d="m81.988 228c-7.1992 6.4023-9.7539 8.4336-16.344 16.48" fill="#fff" stroke="#211e1e" stroke-width=".75"/><path d="m65.273 245.78c0.75391-0.50391 1.2969-0.78906 1.9531-1.1523l-2.0469-1.6758c-0.0664 0.26953-0.39453 1.3047-0.74219 2.1406-0.37109 0.89844-0.75781 1.6719-1.0508 2.1367 0.39844-0.37891 1.082-0.90625 1.8867-1.4492" fill="#211e1e"/><path d="m353.81 110.72c-16.656 8.1445-46.863 10.512-46.863-6.6641" fill="none" stroke="#211e1e" stroke-width=".75"/><path d="m306.41 102.82c-0.26172 0.86719-0.5039 1.4297-0.78125 2.125h2.6445c-0.11718-0.24609-0.51953-1.2578-0.78125-2.125-0.28125-0.92969-0.47265-1.7734-0.54296-2.3203-0.0664 0.54687-0.25782 1.3906-0.53907 2.3203" fill="#211e1e"/><path d="m357.2 333.07c-10.398 3.1992-50.25 3.4102-50.25-16.656" fill="none" stroke="#211e1e" stroke-width=".75"/><path d="m306.41 315.18c-0.26172 0.86719-0.5039 1.4336-0.78125 2.1289h2.6445c-0.11718-0.25-0.51953-1.2617-0.78125-2.1289-0.28125-0.92969-0.47265-1.7695-0.54296-2.3164-0.0664 0.54688-0.25782 1.3867-0.53907 2.3164" fill="#211e1e"/><path d="m356.12 419.7c-9.5976 4-49.18 2.4024-49.18-15.355" fill="none" stroke="#211e1e" stroke-width=".75"/><path d="m306.41 403.11c-0.26172 0.86719-0.5039 1.4336-0.78125 2.1289h2.6445c-0.11718-0.25-0.51953-1.2617-0.78125-2.1289-0.28125-0.92969-0.47265-1.7734-0.54296-2.3164-0.0664 0.54296-0.25782 1.3867-0.53907 2.3164" fill="#211e1e"/><path d="m352.92 500.45c-10.398 6.3984-45.973 6.2031-45.973-7.3945" fill="none" stroke="#211e1e" stroke-width=".75"/><g><path d="m306.41 491.82c-0.26172 0.86719-0.5039 1.4336-0.78125 2.1289h2.6445c-0.11718-0.24609-0.51953-1.2617-0.78125-2.1289-0.28125-0.92968-0.47265-1.7695-0.54296-2.3164-0.0664 0.54687-0.25782 1.3867-0.53907 2.3164" fill="#211e1e"/><path d="m387.43 354.93h-24.656c-1.5977 0-2.9024 1.3047-2.9024 2.8984v15.957c0 1.5977 1.3047 2.9024 2.9024 2.9024h24.656c1.5976 0 2.9023-1.3047 2.9023-2.9024v-15.957c0-1.5742-1.3242-2.8984-2.9023-2.8984" fill="#fff" stroke="#211e1e" stroke-width=".25"/><g fill-rule="evenodd"><path d="m362.79 355.51c-1.2891 0.0351-2.293 1.0352-2.3281 2.3242l4e-3 16.066c0.0977 1.2617 1.0859 2.1406 2.3242 2.2031l24.77-4e-3c1.2578-0.0977 2.1367-1.0859 2.1992-2.3242v-16.066c-0.10156-1.2617-1.0898-2.1367-2.3281-2.1992h-24.641" fill="#211e1e"/><path d="m362.79 356.38c-0.77344 4e-3 -1.4023 0.60547-1.4648 1.375v16.012c0 0.77735 0.60547 1.4102 1.375 1.4688h24.711c0.77734 0 1.4102-0.60547 1.4688-1.375l4e-3 -16.012c-4e-3 -0.77734-0.60937-1.4062-1.3789-1.4648l-24.715-4e-3" fill="#fff"/><path d="m371.37 360.96-7.1719 4.8477 7.1719 4.8516c0.3125 0.21484 0.74609 0.13281 0.96094-0.17969 0.14453-0.21094 0.11719-0.42969 0.0508-0.6914l-0.62891-2.1055h13.211v-3.7539h-13.211l0.61328-2.0703c0.082-0.28516 0.11329-0.4961-0.0351-0.71485-0.21485-0.3164-0.64844-0.40234-0.96094-0.18359" fill="#211e1e"/></g><path d="m99.926 225.3v-25.398c0-1.3984 1.1133-2.5391 2.4766-2.5391h10.289c1.3633 0 2.4766 1.1406 2.4766 2.5391v25.398c0 1.3984-1.1133 2.5391-2.4766 2.5391h-10.289c-1.375 0-2.4766-1.1875-2.4766-2.5391" fill="#fff" stroke="#211e1e" stroke-width=".25"/><path d="m116.42 225.3v-25.398c0-1.3984 1.1133-2.5391 2.4766-2.5391h25.582c1.3594 0 2.4727 1.1406 2.4727 2.5391v25.398c0 1.3984-1.1133 2.5391-2.4727 2.5391h-25.582c-1.375 0-2.4766-1.1875-2.4766-2.5391" fill="#211e1e" stroke="#211e1e" stroke-width=".25"/><path d="m100.44 199.91c0.0234-1.125 0.85157-1.9805 1.9727-2.0391l10.383 4e-3c1.0312 0.082 1.7891 0.90625 1.8633 1.9258v25.496c-0.0234 1.125-0.85156 1.9766-1.9688 2.0391l-10.387-8e-3c-1.0273-0.0781-1.7891-0.90235-1.8633-1.9219v-25.496" fill="#211e1e" fill-rule="evenodd"/><path d="m101.2 225.3v-25.398c0-0.69921 0.57031-1.2656 1.2695-1.2656h10.16c0.69922 0 1.2695 0.56641 1.2695 1.2656v25.398c0 0.69922-0.57031 1.2695-1.2695 1.2695h-10.16c-0.6914 0-1.2695-0.58203-1.2695-1.2695" fill="#fff" fill-rule="evenodd"/><path d="m83.477 225.3v-25.398c0-1.3984 1.1133-2.5391 2.4766-2.5391h10.289c1.3633 0 2.4766 1.1406 2.4766 2.5391v25.398c0 1.3984-1.1133 2.5391-2.4766 2.5391h-10.289c-1.375 0-2.4766-1.1875-2.4766-2.5391" fill="#f58511" stroke="#211e1e" stroke-width=".25"/><g fill-rule="evenodd"><path d="m83.988 199.91c0.0234-1.125 0.85156-1.9805 1.9726-2.0391l10.383 4e-3c1.0312 0.082 1.7891 0.90625 1.8633 1.9258v25.496c-0.0234 1.125-0.85156 1.9766-1.9688 2.0391l-10.387-8e-3c-1.0274-0.0781-1.7891-0.90235-1.8633-1.9219v-25.496" fill="#211e1e"/><path d="m84.75 225.3v-25.398c0-0.69921 0.57032-1.2656 1.2695-1.2656h10.16c0.69922 0 1.2695 0.56641 1.2695 1.2656v25.398c0 0.69922-0.57031 1.2695-1.2695 1.2695h-10.16c-0.6914 0-1.2695-0.58203-1.2695-1.2695" fill="#f58511"/><path d="m117.73 212.6c0-7.6914 6.2773-13.969 13.969-13.969 7.6953 0 13.969 6.2774 13.969 13.969 0 7.6914-6.2734 13.969-13.969 13.969-7.6914 0-13.969-6.2773-13.969-13.969" fill="#fff"/></g></g><g fill="#211e1e"><path d="m135.29 207.91h-2.1836v1.4375h-9.2031v2.3945l9.9492 7.5039h1.4375v-7.5039h3.7773v-2.3945h-3.7773zm-2.1836 3.832v4.3086l-5.6914-4.3086z"/><path d="m111.81 217.88v1.0586l-4.5039 0.81641 4.5039 0.8164v1.0898l-8.6172 1.3594v-1.207l4.5977-0.72656-4.5977-0.84766v-0.96484l4.5977-0.82031-4.5977-0.75391v-1.2109z"/><path d="m111.81 215.57h-7.582v-3.5664h1.0625v2.4766h1.918v-1.5703h1.0352v1.5703h2.5039v-2.7695h1.0625z"/><path d="m111.94 208.81c0 1.332-1.1172 2.1289-2.3672 2.1289v-1.0625c0.64063 0 1.3047-0.32031 1.3047-1.0664 0-0.58594-0.53125-1.0625-1.1445-1.0625-0.42578 0-0.7461 0.16015-1.0898 0.60937-0.16015 0.16016 0.13282-0.26562-0.90625 1.2774-0.42578 0.61328-1.0117 0.93359-1.6758 0.93359-1.0898 0-1.9688-0.85156-1.9688-1.9414 0-1.0664 0.82422-1.8906 1.9688-1.918v1.0391c-0.53125 0.0234-0.8789 0.39843-0.8789 0.8789 0 0.50391 0.375 0.90235 0.8789 0.90235 0.3711 0 0.58594-0.16016 0.90625-0.71875 0.84766-1.4609 1.6758-2.1016 2.7656-2.1016 1.2226 0 2.207 0.9336 2.207 2.1016"/><path d="m105.24 203.68h6.5703v1.0898h-6.5703v1.3828h-1.0117v-3.8555h1.0117z"/><path d="m91.18 221.37c-0.64062 0-1.332 0.0547-1.9453 0.16016-0.47656 0.0547-0.98438 0.21484-1.2734 0.39843-0.375 0.24219-0.5625 0.61329-0.5625 1.1445v1.5703h7.5859v-1.5703c0-0.42579-0.13281-0.79688-0.375-1.0117-0.50391-0.45313-1.6484-0.69141-3.4297-0.69141m0.23828 0.98438c0.66406 0 1.5156 0.0547 1.7812 0.082 0.5586 0.10547 0.80078 0.29297 0.80078 0.63672v0.61328h-5.6133v-0.61328c0-0.39844 0.26563-0.5586 1.0898-0.63672 0.53125-0.0274 1.3828-0.082 1.9414-0.082"/><path d="m94.984 220.09h-7.5859v-2.793h0.98828v1.8359h1.9414v-1.2227h1.0117v1.2227h2.6602v-1.9414h0.98438z"/><path d="m88.387 214.83h6.5977v0.95703h-6.5977v0.92969h-0.98437v-2.8711h0.98437z"/><path d="m91.18 209.61c-1.2773 0-3.8867-0.10547-3.8867 1.7539 0 1.8633 2.582 1.7578 3.8867 1.7578 1.25 0 3.9375 0.13281 3.9375-1.7578 0-1.8594-2.6875-1.7539-3.9375-1.7539m0 1.0117c0.50391 0 2.9531-0.10938 2.9531 0.74218 0 0.87891-2.4492 0.77344-2.9531 0.77344-0.53516 0-2.9023 0.10547-2.9023-0.77344 0-0.71484 2.2891-0.74218 2.9023-0.74218"/><path d="m94.316 205.3c0.55859 0.29687 0.80078 0.71875 0.80078 1.3867 0 0.76953-0.34766 1.25-1.0391 1.5156-0.23828 0.0781-0.50391 0.13281-0.95703 0.13281h-5.7188v-0.95703h5.8516c0.55859 0 0.87891-0.23828 0.87891-0.6914 0-0.42578-0.32032-0.66797-0.87891-0.66797h-5.8516v-0.95703h5.7188c0.53125 0 0.90234 0.082 1.1953 0.23828"/><path d="m89.527 200.27c-1.4102 0-2.125 0.61329-2.125 1.7852v1.4883h7.582v-0.95703h-3.5391v-0.45312l3.5391-0.85157v-0.98437l-3.7812 0.77344c-0.34375-0.5625-0.82422-0.80079-1.6758-0.80079m-0.0273 0.98438c0.71875 0 0.96094 0.16016 0.96094 0.69141v0.64062h-2.0742v-0.48047c0-0.66406 0.26563-0.85156 1.1133-0.85156"/><path d="m362.39 323.19h25.395c1.3984 0 2.5391 1.1133 2.5391 2.4766v25.582c0 1.3594-1.1406 2.4727-2.5391 2.4727h-25.395c-1.3984 0-2.5391-1.1133-2.5391-2.4727v-25.582c0-1.375 1.1836-2.4766 2.5391-2.4766" stroke="#211e1e" stroke-width=".25"/></g><g><path d="m362.39 306.6h25.395c1.3984 0 2.5391 1.1133 2.5391 2.4766v10.289c0 1.3633-1.1406 2.4726-2.5391 2.4726h-25.395c-1.3984 0-2.5391-1.1094-2.5391-2.4726v-10.289c0-1.375 1.1836-2.4766 2.5391-2.4766" fill="#f58511" stroke="#211e1e" stroke-width=".25"/><g fill-rule="evenodd"><path d="m387.78 307.11c1.1289 0.0273 1.9805 0.85546 2.0391 1.9726l-4e-3 10.383c-0.082 1.0312-0.90625 1.793-1.9258 1.8633l-25.492 4e-3c-1.125-0.0273-1.9805-0.85547-2.0391-1.9726l4e-3 -10.387c0.0781-1.0274 0.90625-1.7852 1.9219-1.8594l25.496-4e-3" fill="#211e1e"/><path d="m362.39 307.87h25.395c0.69921 0 1.2695 0.57032 1.2695 1.2734v10.156c0 0.69922-0.57032 1.2695-1.2695 1.2695h-25.395c-0.69921 0-1.2734-0.57031-1.2734-1.2695v-10.156c0-0.69531 0.58203-1.2734 1.2734-1.2734" fill="#f58511"/><path d="m375.09 324.5c7.6953 0 13.969 6.2773 13.969 13.969 0 7.6914-6.2734 13.969-13.969 13.969-7.6914 0-13.965-6.2774-13.965-13.969 0-7.6914 6.2734-13.969 13.965-13.969" fill="#fff"/></g></g><g fill="#211e1e"><path d="m379.78 342.05v-2.1797h-1.4375v-9.207h-2.3945l-7.5039 9.9531v1.4336h7.5039v3.7812h2.3945v-3.7812zm-3.832-2.1797h-4.3086l4.3086-5.6953z"/><path d="m366.32 314.3c0-0.64062-0.0547-1.3281-0.16016-1.9414-0.0547-0.48047-0.21093-0.98438-0.39843-1.2774-0.23829-0.375-0.61329-0.55859-1.1445-0.55859h-1.5703v7.582h1.5703c0.42579 0 0.80079-0.13281 1.0117-0.37109 0.45313-0.50782 0.69141-1.6524 0.69141-3.4336m-0.98438 0.23828c0 0.66407-0.0508 1.5195-0.0781 1.7852-0.10938 0.55859-0.29297 0.79687-0.64063 0.79687h-0.60939v-5.6133h0.60937c0.39844 0 0.5586 0.26563 0.64063 1.0898 0.0273 0.53125 0.0781 1.3828 0.0781 1.9414"/><path d="m367.59 318.1v-7.582h2.793v0.98437h-1.8359v1.9414h1.2266v1.0117h-1.2266v2.6602h1.9414v0.98438z"/><path d="m372.86 311.5v6.5977h-0.95703v-6.5977h-0.92969v-0.98437h2.8711v0.98437z"/><path d="m378.08 314.3c0-1.2773 0.10547-3.8867-1.7578-3.8867-1.8633 0-1.7578 2.582-1.7578 3.8867 0 1.25-0.13281 3.9375 1.7578 3.9375 1.8633 0 1.7578-2.6875 1.7578-3.9375m-1.0156 0c0 0.50781 0.10938 2.9531-0.74218 2.9531-0.87891 0-0.77344-2.4453-0.77344-2.9531 0-0.53125-0.10547-2.8984 0.77344-2.8984 0.71875 0 0.74218 2.2852 0.74218 2.8984"/><path d="m382.39 317.44c-0.29297 0.55859-0.71875 0.79687-1.3867 0.79687-0.76953 0-1.25-0.34765-1.5156-1.0352-0.0781-0.24219-0.13281-0.50782-0.13281-0.96094v-5.7188h0.96093v5.8516c0 0.55859 0.23828 0.87891 0.6875 0.87891 0.42578 0 0.66797-0.32032 0.66797-0.87891v-5.8516h0.95703v5.7188c0 0.53515-0.082 0.90625-0.23828 1.1992"/><path d="m387.41 312.65c0-1.4102-0.61329-2.1289-1.7812-2.1289h-1.4922v7.582h0.96094v-3.5391h0.44921l0.85157 3.5391h0.98437l-0.76953-3.7773c0.55859-0.34766 0.79688-0.82422 0.79688-1.6758m-0.98438-0.0273c0 0.71875-0.16016 0.95703-0.69141 0.95703h-0.63671v-2.0742h0.47656c0.66406 0 0.85156 0.26563 0.85156 1.1172"/></g><g><path d="m387.43 433.28h-24.652c-1.6016 0-2.9023 1.3047-2.9023 2.9023v15.953c0 1.5976 1.3008 2.9023 2.9023 2.9023h24.652c1.5976 0 2.9023-1.3047 2.9023-2.9023v-15.953c0-1.5781-1.3242-2.9023-2.9023-2.9023" fill="#fff" stroke="#211e1e" stroke-width=".25"/><path d="m362.79 433.86c-1.2891 0.0352-2.293 1.0352-2.3242 2.3242v16.07c0.0977 1.2578 1.0859 2.1406 2.3242 2.1992l24.77-4e-3c1.2617-0.0976 2.1367-1.0859 2.1992-2.3242v-16.066c-0.0977-1.2617-1.0859-2.1367-2.3281-2.1992h-24.641" fill="#211e1e" fill-rule="evenodd"/><path d="m362.8 434.73c-0.77735 8e-3 -1.4062 0.60546-1.4688 1.375v16.016c0 0.77344 0.60547 1.4062 1.375 1.4648h24.711c0.78125 0 1.4102-0.60546 1.4688-1.375l4e-3 -16.008c-4e-3 -0.78125-0.60937-1.4102-1.375-1.4648l-24.715-8e-3" fill="#fff" fill-rule="evenodd"/><path d="m362.39 401.54h25.395c1.3984 0 2.5391 1.1133 2.5391 2.4766v25.582c0 1.3633-1.1406 2.4727-2.5391 2.4727h-25.395c-1.3984 0-2.5391-1.1094-2.5391-2.4727v-25.582c0-1.375 1.1836-2.4766 2.5391-2.4766" fill="#211e1e" stroke="#211e1e" stroke-width=".25"/><path d="m362.39 384.95h25.395c1.3984 0 2.5391 1.1133 2.5391 2.4766v10.289c0 1.3633-1.1406 2.4727-2.5391 2.4727h-25.395c-1.3984 0-2.5391-1.1094-2.5391-2.4727v-10.289c0-1.375 1.1836-2.4766 2.5391-2.4766" fill="#f58511" stroke="#211e1e" stroke-width=".25"/><g fill-rule="evenodd"><path d="m387.79 385.46c1.125 0.0234 1.9805 0.85157 2.0352 1.9688v10.387c-0.0859 1.0274-0.90625 1.7891-1.9258 1.8594l-25.496 4e-3c-1.125-0.0234-1.9805-0.85156-2.0391-1.9726l4e-3 -10.383c0.082-1.0312 0.90625-1.7891 1.9258-1.8633h25.496" fill="#211e1e"/><path d="m362.39 386.22h25.395c0.69921 0 1.2695 0.57032 1.2695 1.2695v10.156c0 0.69922-0.57032 1.2695-1.2695 1.2695h-25.395c-0.69921 0-1.2734-0.57032-1.2734-1.2695v-10.156c0-0.6914 0.58203-1.2695 1.2734-1.2695" fill="#f58511"/><path d="m375.09 402.85c7.6914 0 13.969 6.2773 13.969 13.973 0 7.6875-6.2773 13.965-13.969 13.965-7.6953 0-13.969-6.2773-13.969-13.965 0-7.6953 6.2734-13.973 13.969-13.973" fill="#fff"/></g></g><g fill="#211e1e"><g><path d="m379.78 420.41v-2.1836h-1.4375v-9.2031h-2.3945l-7.5039 9.9492v1.4375h7.5039v3.7773h2.3945v-3.7773zm-3.832-2.1836h-4.3125l4.3125-5.6914z"/><path d="m366.32 392.65c0-0.63671-0.0508-1.3281-0.15625-1.9414-0.0547-0.48047-0.21484-0.98438-0.40234-1.2774-0.23829-0.37109-0.61329-0.55859-1.1406-0.55859h-1.5703v7.582h1.5703c0.42188 0 0.79688-0.13281 1.0078-0.37109 0.45313-0.50391 0.69141-1.6524 0.69141-3.4336m-0.98438 0.23829c0 0.66796-0.0508 1.5195-0.0781 1.7852-0.10938 0.5586-0.29297 0.79688-0.63672 0.79688h-0.6133v-5.6133h0.61328c0.39453 0 0.55469 0.26562 0.63672 1.0898 0.0273 0.53125 0.0781 1.3867 0.0781 1.9414"/><path d="m367.59 396.45v-7.582h2.793v0.98438h-1.8359v1.9414h1.2266v1.0117h-1.2266v2.6602h1.9414v0.98437z"/><path d="m372.86 389.86v6.5976h-0.95703v-6.5976h-0.93359v-0.98438h2.875v0.98438z"/><path d="m378.08 392.65c0-1.2773 0.10547-3.8828-1.7578-3.8828-1.8633 0-1.7578 2.5781-1.7578 3.8828 0 1.2539-0.13281 3.9375 1.7578 3.9375 1.8633 0 1.7578-2.6836 1.7578-3.9375m-1.0117 0c0 0.50782 0.10547 2.9531-0.74609 2.9531-0.87891 0-0.76954-2.4453-0.76954-2.9531 0-0.53125-0.10937-2.8984 0.76954-2.8984 0.71875 0 0.74609 2.2891 0.74609 2.8984"/><path d="m382.39 395.79c-0.29297 0.55859-0.71875 0.79687-1.3828 0.79687-0.77344 0-1.25-0.34375-1.5156-1.0352-0.082-0.24219-0.13281-0.50781-0.13281-0.95703v-5.7227h0.95703v5.8555c0 0.55469 0.23828 0.875 0.69141 0.875 0.42578 0 0.66406-0.32031 0.66406-0.875v-5.8555h0.95703v5.7227c0 0.53125-0.0781 0.90234-0.23828 1.1953"/><path d="m387.41 391c0-1.4102-0.60938-2.1289-1.7812-2.1289h-1.4883v7.582h0.95704v-3.5391h0.45312l0.84766 3.5391h0.98828l-0.77344-3.7773c0.55859-0.34766 0.79688-0.82422 0.79688-1.6758m-0.98438-0.0274c0 0.71875-0.16016 0.95703-0.69141 0.95703h-0.63671v-2.0742h0.47656c0.66406 0 0.85156 0.26562 0.85156 1.1172"/></g><path d="m379.17 443.36c0.31641-4e-3 0.57422 0.25391 0.57422 0.57031v7.8984h3.7188v-11.332c0-0.47266-0.38672-0.85937-0.85547-0.85937v4e-3l-10.266 4e-3 0.6289-2.082c0.0625-0.25782 0.0899-0.47266-0.0547-0.67969-0.21094-0.31641-0.64063-0.39844-0.95313-0.18359l-7.0977 4.8086 7.0977 4.8008c0.3125 0.21094 0.74219 0.12891 0.95313-0.17969 0.15234-0.21875 0.11718-0.42968 0.0391-0.71484l-0.61328-2.0469z" fill-rule="evenodd"/></g><path d="m348.68 97.715 25.016-25.012c1.0508-1.0586 2.7774-1.0586 3.832 0l25.012 25.012c1.0547 1.0508 1.0547 2.7773 0 3.832l-25.012 25.012c-1.0547 1.0547-2.7812 1.0547-3.832 0l-25.016-25.012c-1.0508-1.0547-1.0508-2.7812 0-3.832" fill="#f58511"/><path d="m348.68 97.715 25.016-25.012c1.0508-1.0586 2.7774-1.0586 3.832 0l25.012 25.012c1.0547 1.0508 1.0547 2.7773 0 3.832l-25.012 25.012c-1.0547 1.0547-2.7812 1.0547-3.832 0l-25.016-25.012c-1.0508-1.0547-1.0508-2.7812 0-3.832z" fill="none" stroke="#211e1e" stroke-miterlimit="2.613" stroke-width=".25"/><g><path d="m349.41 97.949 24.52-24.523c0.92187-0.92188 2.4375-0.92188 3.3633 0l24.52 24.523c0.92578 0.92578 0.92578 2.4375 0 3.3633l-24.52 24.52c-0.92578 0.92578-2.4414 0.92578-3.3633 0l-24.52-24.52c-0.92579-0.92578-0.92579-2.4375 0-3.3633" fill="#211e1e" fill-rule="evenodd"/><path d="m350.37 98.594 24.207-24.207c0.57031-0.57032 1.5039-0.57032 2.0742 0l24.207 24.207c0.57031 0.57031 0.57031 1.5039 0 2.0742l-24.207 24.207c-0.57032 0.57031-1.5039 0.57031-2.0742 0l-24.207-24.207c-0.57032-0.57032-0.57032-1.5039 0-2.0742" fill="#f58511" fill-rule="evenodd"/><path d="m348.74 488.74 25.012-25.012c1.0547-1.0508 2.7812-1.0508 3.8359 0l25.008 25.012c1.0547 1.0586 1.0547 2.7812 0 3.8359l-25.008 25.012c-1.0547 1.0547-2.7812 1.0547-3.8359 0l-25.012-25.012c-1.0547-1.0547-1.0547-2.7774 0-3.8359" fill="#f58511"/></g><path d="m348.74 488.74 25.012-25.012c1.0547-1.0508 2.7812-1.0508 3.8359 0l25.008 25.012c1.0547 1.0586 1.0547 2.7812 0 3.8359l-25.008 25.012c-1.0547 1.0547-2.7812 1.0547-3.8359 0l-25.012-25.012c-1.0547-1.0547-1.0547-2.7774 0-3.8359z" fill="none" stroke="#211e1e" stroke-miterlimit="2.613" stroke-width=".25"/><path d="m349.46 488.98 24.52-24.523c0.92578-0.92187 2.4375-0.92187 3.3633 0l24.52 24.523c0.92578 0.92578 0.92578 2.4375 0 3.3633l-24.52 24.52c-0.92578 0.92578-2.4375 0.92578-3.3633 0l-24.52-24.52c-0.92578-0.92578-0.92578-2.4375 0-3.3633" fill="#211e1e" fill-rule="evenodd"/><path d="m350.42 489.62 24.207-24.207c0.57031-0.57031 1.5078-0.57031 2.0742 0l24.207 24.207c0.57031 0.57031 0.57031 1.5039 0 2.0742l-24.207 24.207c-0.56641 0.57031-1.5039 0.57031-2.0742 0l-24.207-24.207c-0.57031-0.57031-0.57031-1.5039 0-2.0742" fill="#f58511" fill-rule="evenodd"/><g fill="#211e1e"><path d="m364.3 101.59c-0.87109 0-1.4336-0.33594-1.8086-1.0625-0.26953-0.51953-0.4336-1.2695-0.4336-2.0156 0-0.9375 0.25-1.8711 0.66407-2.3906 0.35156-0.4375 0.85156-0.66406 1.5195-0.66406 0.89062 0 1.4531 0.37109 1.8476 1.2031l-0.87109 0.375c-0.33594-0.5-0.51953-0.625-0.97656-0.625-0.48047 0-0.79297 0.21094-1 0.73047-0.14453 0.35156-0.22657 0.8711-0.22657 1.3711 0 0.64453 0.14454 1.2891 0.3711 1.6641 0.20703 0.3125 0.48047 0.45703 0.89453 0.45703 0.39453 0 0.6875-0.21094 0.91406-0.6875l0.89453 0.33203c-0.35156 0.875-0.93359 1.3125-1.7891 1.3125"/><path d="m367.18 101.48v-5.9258h0.9375v5.0547h2.7422v0.87109z"/><path d="m375.6 98.531c0-0.7461-0.14844-1.4961-0.39844-2.0156-0.375-0.72656-0.89062-1.0586-1.6406-1.0586-0.6875 0-1.1641 0.20703-1.5195 0.66406-0.39454 0.55859-0.64454 1.4336-0.64454 2.4102 0 0.70703 0.16797 1.4961 0.41797 1.9961 0.35157 0.73047 0.8711 1.0625 1.7031 1.0625 0.625 0 1.1016-0.21094 1.4336-0.66797 0.41797-0.51953 0.64844-1.4531 0.64844-2.3906m-0.9375 0c0 0.45703-0.10547 1.0391-0.23047 1.3516-0.20703 0.51953-0.47656 0.75-0.91406 0.75-0.375 0-0.6211-0.14844-0.8125-0.45703-0.22656-0.375-0.35156-1.0195-0.35156-1.6445 0-0.4961 0.0859-1.0391 0.23046-1.3906 0.20704-0.51953 0.4961-0.75 0.95313-0.73047 0.35547 0.0234 0.58203 0.14844 0.77344 0.46094 0.22656 0.39453 0.35156 0.99609 0.35156 1.6602"/><path d="m379.73 101.13c-0.33203 0.29297-0.78906 0.46094-1.2852 0.46094-1.0195 0-1.7695-0.60547-2.1641-1.5l0.89453-0.33203c0.25 0.5625 0.70704 0.875 1.2695 0.875 0.53906 0 0.91406-0.375 0.91406-0.875 0-0.78906-0.91406-0.91406-1.6875-1.2266-0.35156-0.14453-1.1406-0.5-1.1406-1.4766 0-1.1641 0.78907-1.6016 1.8477-1.6016 0.83203 0 1.3945 0.48047 1.6836 1.207l-0.82812 0.25s-0.20703-0.5-0.875-0.51953c-0.4375-0.0195-0.95703 0.14453-0.91406 0.6875 0.082 1.1016 2.8672 0.3711 2.8672 2.7031 0 0.53906-0.20703 1.0156-0.58203 1.3476"/><path d="m381.1 101.48v-5.9258h3.4961v0.9375h-2.5586v1.4531h1.7266v0.95703h-1.7266v1.6211h2.7461v0.95703z"/><path d="m389.61 98.512c0-1.1641-0.35156-2.1016-0.97656-2.6406-0.30859-0.25-0.53906-0.3125-1.1406-0.3125h-1.9141v5.9258h2.1406c0.3125-0.0195 0.625-0.125 0.85156-0.33203 0.66406-0.51953 1.0391-1.457 1.0391-2.6406m-0.95312 0c0 0.78906-0.1875 1.4336-0.54297 1.7891-0.16406 0.16406-0.35156 0.22656-0.66406 0.22656h-0.9375v-4.0312h1.0625c0.25 0 0.45703 0.10156 0.60156 0.25 0.29297 0.30859 0.48047 0.97656 0.48047 1.7656"/><path d="m370.26 91.773-1.0391-2.7656c0.54297-0.25 0.91406-0.87109 0.91406-1.4961 0-0.60157-0.37109-1.2266-0.89453-1.4766-0.28906-0.14453-0.60156-0.1875-1.0586-0.1875h-1.9531v5.9258h0.9336v-2.5781h1.1211l0.95703 2.5781zm-1.0586-4.2617c0 0.25-0.14453 0.5-0.375 0.625-0.14453 0.082-0.25 0.10156-0.54297 0.10156h-1.1211v-1.4531h1.1211c0.31641 0 0.39844 0.0195 0.54297 0.10157 0.23047 0.125 0.375 0.375 0.375 0.625"/><path d="m375.12 88.82c0-0.74609-0.14453-1.4961-0.39453-2.0156-0.37109-0.72656-0.89062-1.0586-1.6406-1.0586-0.6875 0-1.1641 0.20703-1.5195 0.66406-0.39454 0.5586-0.64063 1.4336-0.64063 2.4102 0 0.70703 0.16406 1.4961 0.41406 1.9961 0.35157 0.73047 0.875 1.0625 1.7031 1.0625 0.625 0 1.1016-0.21093 1.4336-0.66797 0.41797-0.51953 0.64453-1.4531 0.64453-2.3906m-0.93359 0c0 0.46094-0.10156 1.0391-0.22656 1.3516-0.21094 0.51953-0.48047 0.75-0.91797 0.75-0.3711 0-0.6211-0.14844-0.8086-0.45703-0.23046-0.375-0.35546-1.0195-0.35546-1.6445 0-0.49609 0.0859-1.0391 0.23046-1.3906 0.20704-0.51953 0.4961-0.75 0.95704-0.73046 0.35156 0.0234 0.58203 0.14843 0.76953 0.46093 0.22656 0.39453 0.35156 0.9961 0.35156 1.6602"/><path d="m380.72 91.773-2.0352-5.9258h-0.9375l-2.0391 5.9258h1l0.58204-1.6641h1.8516l0.58203 1.6641zm-1.9102-2.6211h-1.1875l0.60547-1.6602z"/><path d="m385.44 88.801c0-1.1641-0.35156-2.1016-0.97656-2.6406-0.3125-0.25-0.53906-0.3125-1.1406-0.3125h-1.9141v5.9258h2.1406c0.3125-0.0195 0.62109-0.125 0.85156-0.33203 0.66797-0.51953 1.0391-1.457 1.0391-2.6406m-0.95312 0c0 0.78906-0.19141 1.4336-0.54297 1.7891-0.16406 0.16406-0.35547 0.22656-0.66406 0.22656h-0.9375v-4.0312h1.0625c0.25 0 0.45703 0.10157 0.60156 0.25 0.28906 0.3086 0.48047 0.97657 0.48047 1.7656"/></g><path d="m158.14 119.53 25.012-25.012c1.0547-1.0547 2.7774-1.0547 3.832 0l25.016 25.012c1.0508 1.0547 1.0508 2.7812 0 3.8359l-25.016 25.012c-1.0547 1.0547-2.7773 1.0547-3.832 0l-25.012-25.012c-1.0547-1.0547-1.0547-2.7812 0-3.8359" fill="#f58511"/><path d="m158.14 119.53 25.012-25.012c1.0547-1.0547 2.7774-1.0547 3.832 0l25.016 25.012c1.0508 1.0547 1.0508 2.7812 0 3.8359l-25.016 25.012c-1.0547 1.0547-2.7773 1.0547-3.832 0l-25.012-25.012c-1.0547-1.0547-1.0547-2.7812 0-3.8359z" fill="none" stroke="#211e1e" stroke-miterlimit="2.613" stroke-width=".25"/><path d="m158.87 119.77 24.52-24.52c0.92578-0.92578 2.4375-0.92578 3.3633 0l24.52 24.52c0.92578 0.92578 0.92578 2.4414 0 3.3672l-24.52 24.52c-0.92578 0.92578-2.4375 0.92578-3.3633 0l-24.52-24.52c-0.92578-0.92578-0.92578-2.4414 0-3.3672" fill="#211e1e" fill-rule="evenodd"/><path d="m159.83 120.41 24.207-24.207c0.57031-0.57422 1.5039-0.57422 2.0742 0l24.207 24.207c0.57031 0.57031 0.57031 1.5039 0 2.0742l-24.207 24.207c-0.57031 0.57031-1.5039 0.57031-2.0742 0l-24.207-24.207c-0.57031-0.57031-0.57031-1.5039 0-2.0742" fill="#f58511" fill-rule="evenodd"/><g fill="#211e1e"><path d="m173.71 122.44c-0.875 0-1.4336-0.33203-1.8086-1.0586-0.26953-0.51953-0.4375-1.2695-0.4375-2.0156 0-0.9375 0.25-1.8711 0.66797-2.3945 0.35156-0.43359 0.84766-0.66406 1.5156-0.66406 0.89453 0 1.457 0.375 1.8476 1.207l-0.87109 0.375c-0.33203-0.5-0.51953-0.625-0.97656-0.625-0.48047 0-0.78907 0.20703-1 0.72656-0.14453 0.35547-0.22657 0.875-0.22657 1.375 0 0.64063 0.14454 1.2891 0.375 1.6602 0.20704 0.3125 0.47657 0.45703 0.89454 0.45703 0.39453 0 0.68359-0.20703 0.91406-0.68359l0.89062 0.33203c-0.35156 0.87109-0.93359 1.3086-1.7852 1.3086"/><path d="m176.58 122.34v-5.9258h0.9375v5.0508h2.7461v0.875z"/><path d="m185 119.39c0-0.75-0.14844-1.4961-0.39453-2.0156-0.375-0.73047-0.89453-1.0625-1.6445-1.0625-0.6875 0-1.1641 0.20703-1.5156 0.66406-0.39453 0.5625-0.64453 1.4375-0.64453 2.4141 0 0.70703 0.16406 1.4961 0.41406 1.9961 0.35547 0.72656 0.875 1.0586 1.707 1.0586 0.6211 0 1.1016-0.20703 1.4336-0.66406 0.41406-0.51953 0.64453-1.457 0.64453-2.3906m-0.9375 0c0 0.45703-0.10156 1.0391-0.22656 1.3516-0.20703 0.51953-0.48047 0.74609-0.91407 0.74609-0.375 0-0.625-0.14453-0.8125-0.45703-0.22656-0.375-0.35156-1.0156-0.35156-1.6406 0-0.5 0.082-1.0391 0.22656-1.3945 0.20704-0.51953 0.5-0.74609 0.95704-0.72656 0.35546 0.0195 0.58203 0.14453 0.76953 0.45703 0.22656 0.39453 0.35156 0.9961 0.35156 1.6641"/><path d="m189.14 121.98c-0.33203 0.29297-0.78906 0.45703-1.2891 0.45703-1.0195 0-1.7695-0.60156-2.1602-1.4961l0.89062-0.33203c0.25 0.5625 0.70704 0.87109 1.2695 0.87109 0.53906 0 0.91406-0.37109 0.91406-0.87109 0-0.78906-0.91406-0.91406-1.6836-1.2266-0.35156-0.14454-1.1445-0.5-1.1445-1.4766 0-1.1641 0.79297-1.6016 1.8516-1.6016 0.83203 0 1.3906 0.48047 1.6836 1.207l-0.83203 0.25s-0.20703-0.5-0.8711-0.51953c-0.4375-0.0234-0.95703 0.14453-0.91406 0.68359 0.082 1.1016 2.8672 0.375 2.8672 2.7031 0 0.54297-0.20703 1.0195-0.58203 1.3516"/><path d="m190.51 122.34v-5.9258h3.4922v0.93359h-2.5547v1.457h1.7227v0.95704h-1.7227v1.6211h2.7422v0.95703z"/><path d="m199.02 119.36c0-1.1602-0.35547-2.0977-0.97656-2.6367-0.3125-0.25-0.54297-0.3125-1.1445-0.3125h-1.9141v5.9258h2.1406c0.3125-0.0234 0.625-0.125 0.85547-0.33203 0.66406-0.52344 1.0391-1.457 1.0391-2.6445m-0.95703 0c0 0.79297-0.1875 1.4375-0.53907 1.7891-0.16796 0.16797-0.35546 0.23047-0.66796 0.23047h-0.9336v-4.0352h1.0586c0.25 0 0.45703 0.10547 0.60156 0.25 0.29297 0.3125 0.48047 0.97657 0.48047 1.7656"/><path d="m179.67 112.63-1.0391-2.7656c0.53906-0.25 0.91406-0.875 0.91406-1.4961 0-0.60546-0.375-1.2305-0.89453-1.4766-0.29297-0.14844-0.60157-0.1875-1.0586-0.1875h-1.957v5.9258h0.9375v-2.5781h1.1211l0.95703 2.5781zm-1.0625-4.2617c0 0.2461-0.14453 0.4961-0.375 0.6211-0.14453 0.0859-0.25 0.10547-0.53906 0.10547h-1.1211v-1.457h1.1211c0.3125 0 0.39453 0.0234 0.53906 0.10546 0.23047 0.125 0.375 0.375 0.375 0.625"/><path d="m184.54 109.68c0-0.75-0.14453-1.4961-0.39453-2.0156-0.375-0.73047-0.89453-1.0625-1.6406-1.0625-0.6875 0-1.1641 0.20703-1.5195 0.66407-0.39453 0.5625-0.64453 1.4375-0.64453 2.4141 0 0.70703 0.16797 1.4961 0.41406 1.9961 0.35547 0.72656 0.875 1.0586 1.707 1.0586 0.625 0 1.1016-0.20704 1.4336-0.66407 0.41406-0.51953 0.64453-1.457 0.64453-2.3906m-0.9375 0c0 0.45703-0.10156 1.0391-0.22656 1.3516-0.20703 0.51953-0.48047 0.74609-0.91407 0.74609-0.375 0-0.625-0.14453-0.8125-0.45703-0.22656-0.375-0.35156-1.0156-0.35156-1.6406 0-0.5 0.082-1.0391 0.22656-1.3945 0.20704-0.51953 0.5-0.7461 0.95704-0.72657 0.35546 0.0195 0.58203 0.14454 0.76953 0.45704 0.22656 0.39453 0.35156 0.99609 0.35156 1.6641"/><path d="m190.12 112.63-2.0352-5.9258h-0.9375l-2.0352 5.9258h0.99609l0.58204-1.6641h1.8516l0.58203 1.6641zm-1.9102-2.6211h-1.1875l0.60547-1.6641z"/><path d="m194.85 109.66c0-1.1641-0.35547-2.1016-0.98047-2.6406-0.30859-0.25-0.53906-0.3125-1.1406-0.3125h-1.9141v5.9258h2.1406c0.3125-0.0234 0.625-0.125 0.85547-0.33203 0.66406-0.52344 1.0391-1.457 1.0391-2.6406m-0.95703 0c0 0.78906-0.1875 1.4336-0.53906 1.7852-0.16797 0.16797-0.35547 0.23047-0.66797 0.23047h-0.9336v-4.0352h1.0586c0.25 0 0.45703 0.10546 0.60156 0.25 0.29297 0.3125 0.48047 0.97656 0.48047 1.7695"/><path d="m353.32 226.84h49.57c1.7226 0 3.125 1.4023 3.125 3.1211v14.605c0 1.7188-1.4024 3.1211-3.125 3.1211h-49.57c-1.7227 0-3.125-1.4024-3.125-3.1211v-14.605c0-1.6953 1.4258-3.1211 3.125-3.1211"/></g><path d="m366.25 245.81-12.637-8.5469 12.637-8.5586c0.55859-0.37891 1.3203-0.23438 1.6953 0.32422 0.25391 0.37109 0.20703 0.7539 0.0937 1.2148l-0.73047 2.4766h33.469v9.0859h-33.469l0.70313 2.4141c0.14062 0.50391 0.20312 0.87891-0.0664 1.2656-0.375 0.55469-1.1367 0.70312-1.6953 0.32422" fill="#f58511" fill-rule="evenodd"/><g fill="#211e1e"><path d="m371.58 237.17c0-1.2148-0.37109-2.1914-1.0234-2.7578-0.32422-0.26172-0.5625-0.32422-1.1914-0.32422h-1.9961v6.1836h2.2344c0.32813-0.0195 0.65235-0.12891 0.89063-0.34766 0.6914-0.53906 1.0859-1.5195 1.0859-2.7539m-1 0c0 0.82421-0.19531 1.4961-0.5625 1.8672-0.17578 0.17188-0.37109 0.23828-0.69531 0.23828h-0.97656v-4.2109h1.1055c0.26172 0 0.48047 0.10937 0.63281 0.25781 0.30078 0.32812 0.49609 1.0234 0.49609 1.8477"/><path d="m372.93 240.27v-6.1836h3.6445v0.97657h-2.668v1.5195h1.8008v0.99609h-1.8008v1.6953h2.8672v0.9961z"/><path d="m380.09 234.95v5.3164h-0.98047v-5.3164h-1.4102v-0.86719h3.8203v0.86719z"/><path d="m386.68 237.19c0-0.78125-0.14844-1.5586-0.41016-2.1016-0.39453-0.76171-0.93359-1.1094-1.7148-1.1094-0.71875 0-1.2188 0.21875-1.5859 0.69531-0.41406 0.58594-0.67188 1.4961-0.67188 2.5156 0 0.73828 0.17188 1.5625 0.4336 2.0859 0.36719 0.75782 0.91406 1.1055 1.7773 1.1055 0.65235 0 1.1524-0.21875 1.5-0.69531 0.4336-0.54297 0.67188-1.5195 0.67188-2.4961m-0.97657 0c0 0.48047-0.10937 1.0859-0.23828 1.4141-0.21875 0.53906-0.5 0.78125-0.95703 0.78125-0.39062 0-0.64844-0.15234-0.84375-0.48047-0.23828-0.39062-0.37109-1.0625-0.37109-1.7148 0-0.51953 0.0898-1.082 0.24219-1.4531 0.21484-0.54297 0.51953-0.78125 1-0.75781 0.36718 0.0195 0.60546 0.15234 0.80078 0.47656 0.23828 0.41016 0.36718 1.0391 0.36718 1.7344"/><path d="m391.98 239.34c-0.32422 0.60938-1.0625 1.043-1.8242 1.043-0.75781 0-1.4961-0.43359-1.8203-1.043-0.17578-0.36718-0.28516-0.80078-0.28516-1.2773v-3.9727h0.97657v3.9727c0 0.80078 0.45703 1.3203 1.1289 1.3203 0.67578 0 1.1289-0.51953 1.1289-1.3203v-3.9727h0.97656v3.9727c0 0.47656-0.10937 0.91016-0.28125 1.2773"/><path d="m397.95 240.27-1.0859-2.8867c0.5625-0.25781 0.95313-0.91016 0.95313-1.5625 0-0.62891-0.39063-1.2773-0.92969-1.5391-0.30469-0.15235-0.63281-0.19532-1.1094-0.19532h-2.0391v6.1836h0.97657v-2.6914h1.1719l1 2.6914zm-1.1094-4.4492c0 0.26172-0.15235 0.52344-0.39063 0.65234-0.14844 0.0859-0.26172 0.10938-0.5625 0.10938h-1.1719v-1.5195h1.1719c0.32422 0 0.41406 0.0195 0.5625 0.10937 0.23828 0.12891 0.39063 0.39063 0.39063 0.64844"/></g><path d="m186.91 50.523h37.887c1.4883 0 2.7031 1.2148 2.7031 2.7031v21.648c0 1.4883-1.2148 2.707-2.7031 2.707h-37.887c-1.4844 0-2.7031-1.2188-2.7031-2.707v-21.648c0-1.4883 1.2188-2.7031 2.7031-2.7031" fill="#fff"/><path d="m186.91 50.523h37.887c1.4883 0 2.7031 1.2148 2.7031 2.7031v21.648c0 1.4883-1.2148 2.707-2.7031 2.707h-37.887c-1.4844 0-2.7031-1.2188-2.7031-2.707v-21.648c0-1.4883 1.2188-2.7031 2.7031-2.7031z" fill="none" stroke="#211e1e" stroke-width=".25"/><path d="m186.91 51.199h37.887c1.1133 0 2.0274 0.91015 2.0274 2.0273v21.652c0 1.1133-0.91406 2.0274-2.0274 2.0274h-37.887c-1.1133 0-2.0274-0.91407-2.0274-2.0274v-21.652c0-1.1172 0.91406-2.0273 2.0274-2.0273" fill="#211e1e" fill-rule="evenodd"/><path d="m186.91 52.328h37.887c0.4961 0 0.89844 0.40235 0.89844 0.89844v21.648c0 0.49609-0.40234 0.90234-0.89844 0.90234h-37.887c-0.49219 0-0.89844-0.40625-0.89844-0.90234v-21.648c0-0.49609 0.40625-0.89844 0.89844-0.89844" fill="#fff" fill-rule="evenodd"/><g fill="#211e1e"><path d="m216.64 58.625c0 0.96093-0.23047 1.7461-0.66015 2.1758-0.19922 0.20312-0.42969 0.27734-0.8086 0.27734h-1.1367v-4.9062h1.2891c0.30468 0 0.55468 0.125 0.73437 0.30078 0.35156 0.38282 0.58203 1.1914 0.58203 2.1524m1.1602 0c0-1.418-0.42969-2.5547-1.1875-3.2109-0.37891-0.30469-0.65625-0.38281-1.3906-0.38281h-2.3281v7.2109h2.6055c0.3789-0.0234 0.75781-0.15234 1.0391-0.40234 0.80859-0.63281 1.2617-1.7734 1.2617-3.2148m-8.2656 0.42968h-1.4414l0.73437-2.0234zm2.3281 3.1875-2.4805-7.2109h-1.1406l-2.4766 7.2109h1.2148l0.70703-2.0234h2.2539l0.70703 2.0234zm-8.1172-3.5898c0 0.55469-0.125 1.2656-0.27734 1.6445-0.25391 0.62891-0.58203 0.91016-1.1133 0.91016-0.45704 0-0.76172-0.17578-0.98829-0.5586-0.27734-0.45312-0.42968-1.2383-0.42968-1.9961 0-0.60937 0.10156-1.2656 0.27734-1.6953 0.25391-0.63281 0.60938-0.91406 1.1641-0.88672 0.42969 0.0234 0.70703 0.17578 0.9375 0.55469 0.27735 0.48437 0.42969 1.2148 0.42969 2.0273m1.1367 0c0-0.91406-0.17578-1.8242-0.47656-2.457-0.45703-0.88672-1.0898-1.2891-2-1.2891-0.83594 0-1.418 0.2539-1.8477 0.80859-0.48047 0.68359-0.78516 1.7461-0.78516 2.9375 0 0.85938 0.20313 1.8203 0.50782 2.4258 0.42968 0.88672 1.0625 1.2969 2.0742 1.2969 0.75781 0 1.3398-0.25782 1.7461-0.81641 0.50391-0.63281 0.78125-1.7695 0.78125-2.9062m-7.3789-1.5977c0 0.30469-0.17968 0.60938-0.45703 0.76172-0.17578 0.10157-0.30469 0.125-0.65625 0.125h-1.3672v-1.7695h1.3672c0.37891 0 0.48047 0.0234 0.65625 0.125 0.27735 0.15235 0.45703 0.45703 0.45703 0.75781m1.2891 5.1875-1.2656-3.3633c0.66016-0.30468 1.1133-1.0625 1.1133-1.8242 0-0.73046-0.45312-1.4922-1.0859-1.7969-0.35546-0.17578-0.73437-0.22656-1.293-0.22656h-2.3789v7.2109h1.1406v-3.1367h1.3672l1.1641 3.1367z" fill-rule="evenodd"/><path d="m221.77 69.449c0 0.96093-0.23046 1.7461-0.66015 2.1758-0.19922 0.20312-0.42969 0.27734-0.8086 0.27734h-1.1367v-4.9102h1.2891c0.30078 0 0.55469 0.12891 0.73437 0.30469 0.35157 0.37891 0.58203 1.1914 0.58203 2.1524m1.1602 0c0-1.418-0.42969-2.5547-1.1875-3.2148-0.37891-0.30078-0.65625-0.3789-1.3906-0.3789h-2.3281v7.2109h2.6055c0.37891-0.0234 0.75781-0.15234 1.0391-0.40234 0.8086-0.63281 1.2617-1.7734 1.2617-3.2148m-6 3.6172v-1.1641h-3.3398v-1.9727h2.0976v-1.1641h-2.0976v-1.7734h3.1094v-1.1367h-4.25v7.2109zm-5.5742-2.0742c0-2.832-3.3906-1.9492-3.4922-3.2891-0.0508-0.65625 0.58204-0.85937 1.1133-0.83594 0.8125 0.0273 1.0625 0.63282 1.0625 0.63282l1.0117-0.30469c-0.35156-0.88281-1.0352-1.4648-2.0508-1.4648-1.2891 0-2.25 0.53125-2.25 1.9453 0 1.1914 0.96094 1.6211 1.3906 1.7969 0.9375 0.38282 2.0508 0.53125 2.0508 1.4922 0 0.60938-0.45313 1.0664-1.1133 1.0664-0.6836 0-1.2383-0.37891-1.543-1.0664l-1.0898 0.40625c0.48046 1.0898 1.3945 1.8281 2.6328 1.8281 0.60547 0 1.1641-0.20704 1.5703-0.5625 0.45313-0.40235 0.70703-0.98438 0.70703-1.6445m-7.0156-1.5195c0 0.5586-0.12891 1.2656-0.27735 1.6445-0.2539 0.63282-0.58593 0.91407-1.1133 0.91407-0.45703 0-0.76172-0.17969-0.98828-0.5586-0.27734-0.45312-0.42969-1.2383-0.42969-2 0-0.60547 0.10157-1.2617 0.27735-1.6953 0.2539-0.62891 0.60937-0.91016 1.1641-0.88281 0.43359 0.0234 0.71094 0.17578 0.9375 0.55469 0.27734 0.48046 0.42969 1.2148 0.42969 2.0234m1.1367 0c0-0.91015-0.17579-1.8203-0.48047-2.4531-0.45313-0.88672-1.0859-1.2891-1.9961-1.2891-0.83593 0-1.418 0.2539-1.8476 0.80859-0.48047 0.68359-0.78516 1.7461-0.78516 2.9336 0 0.86328 0.20313 1.8242 0.50391 2.4297 0.43359 0.88672 1.0625 1.2969 2.0781 1.2969 0.75781 0 1.3398-0.25782 1.7461-0.81641 0.5039-0.63281 0.78125-1.7695 0.78125-2.9102m-5.9258 3.5938v-1.0625h-3.3398v-6.1484h-1.1367v7.2109zm-5.9531-1.4648-1.0898-0.40625c-0.27735 0.58203-0.63282 0.83594-1.1094 0.83594-0.50781 0-0.83594-0.17969-1.0898-0.5586-0.27735-0.45312-0.45703-1.2383-0.45703-2.0234 0-0.60938 0.10156-1.2383 0.28125-1.6719 0.25-0.62891 0.6289-0.88281 1.2109-0.88281 0.5586 0 0.78516 0.15234 1.1914 0.75781l1.0625-0.45703c-0.48047-1.0117-1.1641-1.4648-2.2539-1.4648-0.80859 0-1.4141 0.27734-1.8438 0.80859-0.50781 0.63281-0.80859 1.7734-0.80859 2.9102 0 0.91015 0.19922 1.8203 0.52734 2.4531 0.45703 0.88672 1.1406 1.2969 2.2031 1.2969 1.0352 0 1.7461-0.53516 2.1758-1.5977" fill-rule="evenodd"/><g transform="translate(-43.371 -103.43)"><use x="254.1265" y="648.32617" width="100%" height="100%" xlink:href="#ba"/><use x="260.74091" y="648.32617" width="100%" height="100%" xlink:href="#av"/><use x="267.4129" y="648.32617" width="100%" height="100%" xlink:href="#t"/><use x="274.7449" y="648.32617" width="100%" height="100%" xlink:href="#s"/><use x="278.0809" y="648.32617" width="100%" height="100%" xlink:href="#ae"/><use x="284.7529" y="648.32617" width="100%" height="100%" xlink:href="#ad"/><use x="291.4249" y="648.32617" width="100%" height="100%" xlink:href="#ac"/><use x="294.76089" y="648.32617" width="100%" height="100%" xlink:href="#ab"/><use x="298.09689" y="648.32617" width="100%" height="100%" xlink:href="#au"/><use x="306.76089" y="648.32617" width="100%" height="100%" xlink:href="#t"/><use x="314.0929" y="648.32617" width="100%" height="100%" xlink:href="#t"/><use x="321.4249" y="648.32617" width="100%" height="100%" xlink:href="#ac"/><use x="324.76089" y="648.32617" width="100%" height="100%" xlink:href="#s"/><use x="328.09689" y="648.32617" width="100%" height="100%" xlink:href="#ae"/><use x="334.76889" y="648.32617" width="100%" height="100%" xlink:href="#ad"/><use x="341.44089" y="648.32617" width="100%" height="100%" xlink:href="#az"/><use x="345.43689" y="648.32617" width="100%" height="100%" xlink:href="#s"/><use x="348.77289" y="648.32617" width="100%" height="100%" xlink:href="#ay"/><use x="356.10489" y="648.32617" width="100%" height="100%" xlink:href="#ax"/><use x="363.43689" y="648.32617" width="100%" height="100%" xlink:href="#ab"/><use x="366.77289" y="648.32617" width="100%" height="100%" xlink:href="#aw"/><use x="359.8367" y="547.02643" width="100%" height="100%" xlink:href="#r"/><use x="364.8407" y="547.02643" width="100%" height="100%" xlink:href="#c"/><use x="369.8447" y="547.02643" width="100%" height="100%" xlink:href="#c"/><use x="374.84869" y="547.02643" width="100%" height="100%" xlink:href="#j"/><use x="377.35071" y="547.02643" width="100%" height="100%" xlink:href="#i"/><use x="379.85269" y="547.02643" width="100%" height="100%" xlink:href="#h"/><use x="356.08371" y="459.3754" width="100%" height="100%" xlink:href="#at"/><use x="361.08771" y="459.3754" width="100%" height="100%" xlink:href="#as"/><use x="363.58969" y="459.3754" width="100%" height="100%" xlink:href="#c"/><use x="368.59369" y="459.3754" width="100%" height="100%" xlink:href="#c"/><use x="373.59769" y="459.3754" width="100%" height="100%" xlink:href="#c"/><use x="378.60172" y="459.3754" width="100%" height="100%" xlink:href="#j"/><use x="381.1037" y="459.3754" width="100%" height="100%" xlink:href="#i"/><use x="383.60571" y="459.3754" width="100%" height="100%" xlink:href="#h"/><use x="359.5397" y="239.31641" width="100%" height="100%" xlink:href="#r"/><use x="364.5437" y="239.31641" width="100%" height="100%" xlink:href="#c"/><use x="369.5477" y="239.31641" width="100%" height="100%" xlink:href="#c"/><use x="374.5517" y="239.31641" width="100%" height="100%" xlink:href="#j"/><use x="377.05371" y="239.31641" width="100%" height="100%" xlink:href="#i"/><use x="379.55569" y="239.31641" width="100%" height="100%" xlink:href="#h"/><use x="359.5397" y="176.4064" width="100%" height="100%" xlink:href="#r"/><use x="364.5437" y="176.4064" width="100%" height="100%" xlink:href="#c"/><use x="369.5477" y="176.4064" width="100%" height="100%" xlink:href="#c"/><use x="374.5517" y="176.4064" width="100%" height="100%" xlink:href="#j"/><use x="377.05371" y="176.4064" width="100%" height="100%" xlink:href="#i"/><use x="379.55569" y="176.4064" width="100%" height="100%" xlink:href="#h"/></g><path d="m140.29 249.56h4.7656v0.49609h-4.7656zm2.1328-3.1758v-2.1328h0.4961v2.1328h2.1367v0.49609h-2.1367v2.1328h-0.4961v-2.1328h-2.1328v-0.49609z"/><g transform="translate(-43.371 -103.43)"><use x="191.0103" y="353.48489" width="100%" height="100%" xlink:href="#ar"/><use x="196.0143" y="353.48489" width="100%" height="100%" xlink:href="#c"/><use x="201.0183" y="353.48489" width="100%" height="100%" xlink:href="#c"/><use x="206.02229" y="353.48489" width="100%" height="100%" xlink:href="#j"/><use x="208.52431" y="353.48489" width="100%" height="100%" xlink:href="#i"/><use x="211.02631" y="353.48489" width="100%" height="100%" xlink:href="#h"/></g></g><path d="m232.39 170.31 1.8945 5.6914 23.273-7.7578c1.7578 0.59375 24.055 8.1055 24.055 8.1055l21.344-8.4805-2.2188-5.5781s-17.449 6.9375-19.293 7.6719c-1.9102-0.64453-23.879-8.0469-23.879-8.0469z" fill="#fff"/><g fill="none" stroke="#211e1e"><path d="m300.74 162.29s-17.449 6.9375-19.293 7.6719c-1.9102-0.64453-23.879-8.0469-23.879-8.0469l-25.176 8.3945"/><path d="m234.29 176 23.273-7.7578c1.7578 0.58985 24.055 8.1055 24.055 8.1055l21.34-8.4805"/><path d="m211.03 129.05s95.914 59.496 95.914 35.543" stroke-width=".75"/></g><g fill="#211e1e"><path d="m306.41 163.36c-0.26172 0.86718-0.5039 1.4297-0.78125 2.125h2.6445c-0.11718-0.2461-0.51953-1.2578-0.78125-2.125-0.28125-0.92969-0.47265-1.7734-0.54296-2.3203-0.0664 0.54688-0.25782 1.3906-0.53907 2.3203"/><path d="m382 106.21v1.4531h1.7266v0.96094h-1.7266v2.5781h-0.93359v-5.9258h3.6797v0.9336z"/><path d="m387.6 106.11v5.0938h-0.9375v-5.0938h-1.3516v-0.83204h3.6602v0.83204z"/><path d="m364.16 111.3c-0.52343 0-1.043-0.125-1.457-0.33203l0.45703-0.83203c0.25 0.125 0.6875 0.20703 1.1211 0.20703 0.85547 0 1.5195-0.5625 1.5195-1.3281 0-0.58594-0.47656-1.0391-1.0625-1.0391-0.41406 0-0.60156 0.12109-0.95313 0.62109l-0.9375-0.26953 0.14453-3.0586h3.4102v0.9375h-2.4922l-0.0625 0.97656c0.4336-0.125 0.6211-0.16406 0.91407-0.16406 1.082 0 1.9766 0.91406 1.9766 1.9961 0 1.3086-1.082 2.2852-2.5781 2.2852"/><path d="m370.84 106.58c-0.1875-0.3125-0.41797-0.4375-0.76953-0.46094-0.46094-0.0195-0.75 0.21094-0.96094 0.73047-0.14453 0.35156-0.23047 0.89453-0.23047 1.3945 0 0.62109 0.125 1.2656 0.35547 1.6406 0.1875 0.3125 0.4375 0.45703 0.8125 0.45703 0.4375 0 0.71094-0.22657 0.91797-0.7461 0.125-0.3125 0.23047-0.89453 0.23047-1.3516 0-0.66797-0.125-1.2695-0.35547-1.6641m0.64844 4.0547c-0.33594 0.45703-0.81641 0.66406-1.4414 0.66406-0.83203 0-1.3555-0.33203-1.707-1.0586-0.25-0.5-0.41797-1.2891-0.41797-1.9961 0-0.98047 0.25-1.8516 0.64453-2.4141 0.35547-0.45703 0.83594-0.66797 1.5234-0.66797 0.75 0 1.2734 0.33594 1.6484 1.0625 0.25 0.51953 0.39453 1.2695 0.39453 2.0195 0 0.93359-0.23047 1.8711-0.64453 2.3906"/><path d="m376.23 106.58c-0.1875-0.3125-0.41797-0.4375-0.77344-0.46094-0.45703-0.0195-0.75 0.21094-0.95703 0.73047-0.14844 0.35156-0.23047 0.89453-0.23047 1.3945 0 0.62109 0.125 1.2656 0.35547 1.6406 0.1875 0.3125 0.4375 0.45703 0.8125 0.45703 0.4375 0 0.70703-0.22657 0.91406-0.7461 0.12891-0.3125 0.23047-0.89453 0.23047-1.3516 0-0.66797-0.125-1.2695-0.35156-1.6641m0.64453 4.0547c-0.33203 0.45703-0.8125 0.66406-1.4375 0.66406-0.83594 0-1.3555-0.33203-1.7109-1.0586-0.25-0.5-0.41797-1.2891-0.41797-1.9961 0-0.98047 0.25-1.8516 0.64844-2.4141 0.35547-0.45703 0.83594-0.66797 1.5195-0.66797 0.75391 0 1.2734 0.33594 1.6484 1.0625 0.25 0.51953 0.39844 1.2695 0.39844 2.0195 0 0.93359-0.23047 1.8711-0.64844 2.3906"/></g><g><path d="m350.01 195.47h56.195c1.7226 0 3.125 1.4062 3.125 3.125v24.977c0 1.7188-1.4024 3.1211-3.125 3.1211h-56.195c-1.7227 0-3.125-1.4023-3.125-3.1211v-24.977c0-1.6992 1.4258-3.125 3.125-3.125" fill="#fff" stroke="#211e1e" stroke-width=".25"/><path d="m350.02 196.25h56.18c1.2812 0 2.3516 1.0703 2.3516 2.3516v24.961c0 1.2812-1.0703 2.3516-2.3516 2.3477h-56.18c-1.2812 4e-3 -2.3555-1.0664-2.3516-2.3477v-24.961c-4e-3 -1.2812 1.0703-2.3516 2.3516-2.3516" fill="#211e1e" fill-rule="evenodd"/><path d="m350.03 197.55h56.145c0.58594-0.0117 1.082 0.48047 1.0703 1.0664v24.926c0.0117 0.58594-0.48438 1.082-1.0703 1.0664h-56.145c-0.58593 0.0156-1.0781-0.48047-1.0664-1.0664v-24.926c-0.0117-0.58594 0.48047-1.0742 1.0664-1.0664" fill="#fff" fill-rule="evenodd"/></g><g fill="#211e1e"><g fill-rule="evenodd"><path d="m371.36 202.79c0 0.48437-0.043 0.92187-0.0859 1.3164-0.0899 0.48046-0.375 0.89843-0.89844 0.89843h-0.74219v-4.4922h0.74216c0.39453 0 0.65625 0.19921 0.80859 0.63671 0.10938 0.26172 0.17578 0.94141 0.17578 1.6406m0.875-0.043c0-0.48047-0.0625-1.0273-0.14843-1.4883-0.11328-0.63672-0.375-1.1172-0.7461-1.3789-0.21875-0.17578-0.48437-0.24218-1.0078-0.24218h-1.6016v6.2422h1.7344c0.34766 0 0.65625-0.0898 0.875-0.28515 0.61328-0.48438 0.89453-1.4024 0.89453-2.8477m-5.9102 0.54688h-0.89844l0.4375-1.7969zm1.5547 2.5859-1.5547-6.2422h-0.875l-1.5586 6.2422h0.90235l0.41406-1.7109h1.3359l0.4375 1.7109zm-5.6055-3.1328c0 0.72266-0.0469 1.0938-0.19532 1.5977-0.15625 0.52734-0.39843 0.76562-0.76953 0.76562-0.39453 0-0.63672-0.23828-0.78906-0.76562-0.13281-0.50391-0.19531-0.89844-0.19531-1.5742 0-0.70313 0.043-1.1172 0.19531-1.5977 0.15234-0.52734 0.39453-0.76953 0.78906-0.76953 0.3711 0 0.61328 0.24219 0.76953 0.78906 0.12891 0.46094 0.19532 0.85547 0.19532 1.5547m0.85156 0c0-0.94141-0.0859-1.5312-0.35156-2.1445-0.30469-0.76563-0.74219-1.0742-1.4648-1.0742-0.72265 0-1.1602 0.30859-1.4883 1.0508-0.26172 0.59375-0.35156 1.2266-0.35156 2.168 0 0.96484 0.0898 1.5547 0.35156 2.168 0.3086 0.74609 0.74219 1.0742 1.4883 1.0742 0.69922 0 1.1602-0.32813 1.4648-1.0742 0.26562-0.58984 0.35156-1.2031 0.35156-2.168m-5.4531-1.4453c0 0.5039-0.28515 0.78906-0.80859 0.78906h-0.92187v-1.5781h0.92187c0.48047 0 0.80859 0.30859 0.80859 0.78906m0.875 4.5781-0.89453-3.0664c0.59375-0.21875 0.89453-0.76563 0.89453-1.5117 0-1.0078-0.65625-1.6641-1.6406-1.6641h-1.8594v6.2422h0.89454v-2.9375h0.85546l0.83204 2.9375z"/><path d="m400.29 202.79c0 0.48437-0.0469 0.92187-0.0898 1.3164-0.0859 0.48046-0.3711 0.89843-0.89454 0.89843h-0.74609v-4.4922h0.74609c0.39063 0 0.65625 0.19921 0.8086 0.63671 0.10937 0.26172 0.17578 0.94141 0.17578 1.6406m0.875-0.043c0-0.48047-0.0664-1.0273-0.15234-1.4883-0.10938-0.63672-0.3711-1.1172-0.7461-1.3789-0.21875-0.17578-0.48437-0.24218-1.0039-0.24218h-1.6016v6.2422h1.7305c0.34766 0 0.65625-0.0898 0.875-0.28515 0.61719-0.48438 0.89844-1.4024 0.89844-2.8477m-4.5547 3.1328v-0.875h-2.2773v-2.0625h1.293v-0.85156h-1.293v-1.5781h2.0352v-0.875h-2.9336v6.2422zm-4.2266-1.7109c0-0.89454-0.52734-1.5742-1.7305-2.2774-0.46094-0.26172-0.59375-0.4375-0.59375-0.74219 0-0.41796 0.33203-0.72265 0.75-0.72265 0.39063 0 0.69922 0.28515 0.71875 0.72265h0.85547c-0.0234-0.9414-0.69922-1.6211-1.5742-1.6211-0.90234 0-1.6016 0.72266-1.6016 1.6211 0 0.54688 0.26562 1.0274 0.76953 1.3789 1.2656 0.85547 0.91797 0.61328 1.0469 0.74609 0.375 0.28516 0.50391 0.54688 0.50391 0.89454 0 0.5039-0.39062 0.9414-0.875 0.9414-0.61328 0-0.875-0.54687-0.875-1.0703h-0.875c0 1.0273 0.65625 1.9492 1.75 1.9492 0.96484 0 1.7305-0.8125 1.7305-1.8203m-5.2773-1.4219c0 0.72266-0.0469 1.0938-0.19922 1.5977-0.14844 0.52734-0.39063 0.76562-0.76172 0.76562-0.39844 0-0.63672-0.23828-0.79297-0.76562-0.12891-0.50391-0.19531-0.89844-0.19531-1.5742 0-0.70313 0.043-1.1172 0.19531-1.5977 0.15625-0.52734 0.39453-0.76953 0.79297-0.76953 0.37109 0 0.61328 0.24219 0.76172 0.78906 0.13281 0.46094 0.19922 0.85547 0.19922 1.5547m0.85546 0c0-0.94141-0.0898-1.5312-0.35156-2.1445-0.30469-0.76563-0.74609-1.0742-1.4648-1.0742-0.72266 0-1.1641 0.30859-1.4922 1.0508-0.26172 0.59375-0.34766 1.2266-0.34766 2.168 0 0.96484 0.0859 1.5547 0.34766 2.168 0.30859 0.74609 0.74219 1.0742 1.4922 1.0742 0.69922 0 1.1602-0.32813 1.4648-1.0742 0.26172-0.58984 0.35156-1.2031 0.35156-2.168m-4.4023 3.1328v-0.83203h-2.2773v-5.4102h-0.89844v6.2422zm-4.4023-4.5781c-0.0664-0.57031-0.15235-0.83203-0.39453-1.1406-0.28516-0.41406-0.72266-0.63281-1.2266-0.63281-1.2266 0-1.8594 1.0742-1.8594 3.0859 0 2.3008 0.58984 3.375 1.9258 3.375 0.875 0 1.5352-0.7461 1.5547-1.7734h-0.89453c0 0.45703-0.13282 0.89453-0.66016 0.89453-0.76563 0-1.0742-0.72265-1.0742-2.5156 0-1.6211 0.26172-2.1914 0.98828-2.1914 0.41406 0 0.65625 0.28516 0.7461 0.89844z"/><path d="m366.8 222.27v-0.55469h-1.5156v-3.6055h-0.59765v4.1602zm-3.7227-1.7227h-0.59765l0.29296-1.1953zm1.0352 1.7227-1.0352-4.1602h-0.58203l-1.0391 4.1602h0.60156l0.27734-1.1367h0.89063l0.29297 1.1367zm-3.1524-3.0508c-0.043-0.37891-0.0976-0.55469-0.26171-0.75782-0.1875-0.27734-0.48047-0.42578-0.81641-0.42578-0.81641 0-1.2383 0.71875-1.2383 2.0586 0 1.5352 0.39062 2.2539 1.2812 2.2539 0.58594 0 1.0234-0.5 1.0352-1.1875h-0.59375c0 0.3086-0.0859 0.60157-0.4414 0.60157-0.51172 0-0.71485-0.48438-0.71485-1.6797 0-1.082 0.17579-1.4609 0.65625-1.4609 0.28125 0 0.44141 0.19141 0.5 0.59766zm-3.6445 0.96484c0 0.48047-0.0312 0.73047-0.13281 1.0664-0.10547 0.34765-0.26562 0.51172-0.51172 0.51172-0.26562 0-0.42578-0.16407-0.52344-0.51172-0.0898-0.33594-0.13281-0.59766-0.13281-1.0547 0-0.46484 0.0274-0.74219 0.13281-1.0625 0.0977-0.35156 0.25782-0.51172 0.52344-0.51172 0.2461 0 0.40625 0.16016 0.51172 0.52344 0.0898 0.30859 0.13281 0.57031 0.13281 1.0391m0.56641 0c0-0.62891-0.0586-1.0234-0.23047-1.4297-0.20703-0.51172-0.49609-0.71875-0.98047-0.71875-0.48047 0-0.77344 0.20703-0.99219 0.70313-0.17578 0.39453-0.23437 0.8164-0.23437 1.4453 0 0.64063 0.0586 1.0352 0.23437 1.4453 0.20313 0.4961 0.4961 0.71875 0.99219 0.71875 0.46875 0 0.77344-0.22265 0.98047-0.71875 0.17188-0.39453 0.23047-0.80468 0.23047-1.4453m-2.9336 2.0859v-0.55469h-1.5156v-3.6055h-0.60156v4.1602z"/><path d="m387.81 219.22c-0.0469-0.37891-0.10156-0.55469-0.26172-0.75782-0.1875-0.27734-0.48046-0.42578-0.8164-0.42578-0.81641 0-1.2422 0.71875-1.2422 2.0586 0 1.5352 0.39453 2.2539 1.2852 2.2539 0.58593 0 1.0195-0.5 1.0352-1.1875h-0.59765c0 0.3086-0.0899 0.60157-0.4375 0.60157-0.51172 0-0.71485-0.48438-0.71485-1.6797 0-1.082 0.17578-1.4609 0.65625-1.4609 0.27735 0 0.4375 0.19141 0.4961 0.59766zm-3.1523-1.1094h-0.58203v4.1602h0.58203zm-1.1562 0.58594v-0.58594h-2.1133v4.1602h0.59765v-1.957h0.83204v-0.56641h-0.83204v-1.0508zm-2.6836 0v-0.58594h-2.1133v4.1602h0.59375v-1.957h0.83204v-0.56641h-0.83204v-1.0508zm-3.7227 1.8516h-0.59766l0.29297-1.1953zm1.0352 1.7227-1.0352-4.1602h-0.58594l-1.0352 4.1602h0.60156l0.27344-1.1367h0.89453l0.28906 1.1367zm-3.6016-3.0508c0 0.33593-0.1914 0.52734-0.53906 0.52734h-0.61719v-1.0508h0.61719c0.31641 0 0.53906 0.20312 0.53906 0.52344m0.58203 3.0508-0.60156-2.043c0.39844-0.14453 0.60156-0.51172 0.60156-1.0078 0-0.67188-0.4375-1.1094-1.0938-1.1094h-1.2422v4.1602h0.59765v-1.957h0.57032l0.55468 1.957zm-2.9062-3.6055v-0.55469h-2.1172v0.55469h0.76172v3.6055h0.59765v-3.6055z"/><path d="m403.38 218.11h-0.64454l-0.68359 1.5039-0.69922-1.5039h-0.6289l1.0195 2.2774v1.8828h0.60156v-1.8828zm-2.9024 4.1602v-0.55469h-1.5234v-3.6055h-0.59375v4.1602zm-3.0078 0v-4.1602h-0.60156v2.4961l-1.1367-2.4961h-0.59766v4.1602h0.59766v-2.7891l1.2852 2.7891zm-3.7383-2.0859c0 0.48047-0.0312 0.73047-0.12891 1.0664-0.10547 0.34765-0.26562 0.51172-0.51172 0.51172-0.26562 0-0.42578-0.16407-0.52734-0.51172-0.0859-0.33594-0.13281-0.59766-0.13281-1.0547 0-0.46484 0.0273-0.74219 0.13281-1.0625 0.10156-0.35156 0.26172-0.51172 0.52734-0.51172 0.2461 0 0.40625 0.16016 0.51172 0.52344 0.0859 0.30859 0.12891 0.57031 0.12891 1.0391m0.57031 0c0-0.62891-0.0625-1.0234-0.23437-1.4297-0.20704-0.51172-0.4961-0.71875-0.97657-0.71875s-0.77343 0.20703-0.99218 0.70313c-0.17969 0.39453-0.23829 0.8164-0.23829 1.4453 0 0.64063 0.0586 1.0352 0.23829 1.4453 0.20312 0.4961 0.49218 0.71875 0.99218 0.71875 0.46485 0 0.76953-0.22265 0.97657-0.71875 0.17187-0.39453 0.23437-0.80468 0.23437-1.4453"/></g><g><path d="m367.39 214.61v-2.8828l-0.95312 2.8828-0.95313-2.8828v2.8828h-0.73828v-5.1328h0.73828l0.95313 2.8828 0.95312-2.8828h0.73828v5.1328z"/><path d="m369.24 209.48h0.71875v5.1328h-0.71875z"/><path d="m371.1 214.61v-5.1328h0.73437v4.4492h1.8711v0.68359z"/><path d="m374.43 214.61v-5.1328h2.4102v0.72266h-1.6719v1.2969h1.0625v0.69922h-1.0625v1.6914h1.8711v0.72265z"/><path d="m379.09 214.7c-0.90235 0-1.4414-0.75782-1.4414-1.6016h0.71875c0 0.42969 0.21484 0.87891 0.72266 0.87891 0.39453 0 0.71875-0.35938 0.71875-0.77344 0-0.28515-0.10938-0.5039-0.41407-0.73828-0.10937-0.10547 0.17579 0.0898-0.86718-0.60937-0.41407-0.28907-0.62891-0.6836-0.62891-1.1367 0-0.73828 0.57813-1.332 1.3164-1.332 0.71875 0 1.2734 0.55859 1.2969 1.332h-0.70312c-0.0195-0.35938-0.27344-0.59375-0.59375-0.59375-0.34375 0-0.61328 0.2539-0.61328 0.59375 0 0.2539 0.10546 0.39843 0.48828 0.61328 0.98437 0.57812 1.4219 1.1328 1.4219 1.8711 0 0.82813-0.63281 1.4961-1.4219 1.4961"/><path d="m385.15 211.01-0.35938 1.4766h0.73828zm0.91797 3.6016-0.35938-1.4062h-1.0977l-0.34375 1.4062h-0.73437l1.2734-5.1328h0.72265l1.2774 5.1328z"/><path d="m389.65 214.61v-2.3242h-1.4024v2.3242h-0.73828v-5.1328h0.73828v2.0898h1.4024v-2.0898h0.73828v5.1328z"/><path d="m391.51 214.61v-5.1328h2.4102v0.72266h-1.6758v1.2969h1.0664v0.69922h-1.0664v1.6914h1.875v0.72265z"/><path d="m396.21 211.01-0.36328 1.4766h0.73828zm0.91797 3.6016-0.36328-1.4062h-1.0976l-0.34375 1.4062h-0.73438l1.2773-5.1328h0.71875l1.2774 5.1328z"/><path d="m401.44 212.04c0-0.39843-0.0547-0.84765-0.125-1.2266-0.0898-0.51953-0.30859-0.91797-0.60938-1.1328-0.18359-0.14453-0.39843-0.19922-0.82812-0.19922h-1.3164v5.1328h1.4219c0.28515 0 0.53906-0.0742 0.72265-0.23437 0.50391-0.39844 0.73438-1.1524 0.73438-2.3398m-0.71875 0.0352c0 0.39453-0.0391 0.75781-0.0703 1.0781-0.0742 0.39844-0.3086 0.73829-0.73828 0.73829h-0.61329v-3.6875h0.61329c0.32421 0 0.53906 0.16015 0.66406 0.51953 0.0898 0.21875 0.14453 0.77734 0.14453 1.3516"/><path d="m360.3 214.61-0.72656-1.7461-0.72266 1.7461h-0.78125l1.125-2.6641-1.0508-2.4648h0.77734l0.65235 1.5469 0.65625-1.5469h0.77734l-1.0312 2.4648 1.1211 2.6641z"/><path d="m357 214.61-0.72657-1.7461-0.72265 1.7461h-0.77735l1.125-2.6641-1.0547-2.4648h0.78125l0.64843 1.5469 0.65625-1.5469h0.77735l-1.0312 2.4648 1.125 2.6641z"/><path d="m363.95 485.35c0-1.3359-0.40625-2.4102-1.125-3.0312-0.35547-0.28516-0.61719-0.35938-1.3125-0.35938h-2.1953v6.8047h2.457c0.35938-0.0234 0.71875-0.14453 0.98047-0.38281 0.76172-0.59375 1.1953-1.6719 1.1953-3.0312m-1.1016 0c0 0.90625-0.21093 1.6484-0.62109 2.0547-0.1875 0.1875-0.40234 0.26172-0.76172 0.26172h-1.0742v-4.6289h1.2188c0.28516 0 0.52344 0.11719 0.69141 0.28516 0.33594 0.35546 0.54687 1.1211 0.54687 2.0273"/><path d="m365.42 488.77v-6.8047h4.0117v1.0742h-2.9375v1.6719h1.9844v1.0976h-1.9844v1.8633h3.1523v1.0976z"/><path d="m373.3 482.92v5.8476h-1.0742v-5.8476h-1.5508v-0.95313h4.1992v0.95313z"/><path d="m380.55 485.38c0-0.85938-0.16406-1.7188-0.45312-2.3125-0.42969-0.83594-1.0234-1.2188-1.8867-1.2188-0.78516 0-1.3359 0.23828-1.7422 0.76172-0.44922 0.64843-0.73828 1.6484-0.73828 2.7695 0 0.8125 0.1914 1.7188 0.47656 2.293 0.40625 0.83593 1.0039 1.2188 1.957 1.2188 0.71875 0 1.2656-0.23829 1.6484-0.76563 0.47656-0.59766 0.73828-1.6719 0.73828-2.7461m-1.0703 0c0 0.52734-0.1211 1.1953-0.26563 1.5547-0.23828 0.59375-0.54687 0.85547-1.0508 0.85547-0.42969 0-0.71484-0.16406-0.92969-0.52343-0.26171-0.42969-0.40625-1.168-0.40625-1.8867 0-0.57032 0.0937-1.1914 0.26172-1.5977 0.23828-0.59766 0.57422-0.85937 1.1016-0.83594 0.40234 0.0234 0.66796 0.16797 0.88281 0.52735 0.26172 0.45312 0.40625 1.1445 0.40625 1.9062"/><path d="m386.38 487.74c-0.35547 0.66797-1.168 1.1484-2.0039 1.1484-0.83593 0-1.6445-0.48047-2.0039-1.1484-0.19141-0.40625-0.3125-0.88281-0.3125-1.4062v-4.3672h1.0742v4.3672c0 0.88281 0.5039 1.457 1.2422 1.457s1.2422-0.57422 1.2422-1.457v-4.3672h1.0742v4.3672c0 0.52344-0.12109 1-0.3125 1.4062"/><path d="m392.95 488.77-1.1953-3.1758c0.6211-0.28516 1.0508-1.0039 1.0508-1.7188 0-0.69141-0.42968-1.4062-1.0273-1.6953-0.33203-0.16406-0.69141-0.21485-1.2148-0.21485h-2.2461v6.8047h1.0742v-2.9609h1.2891l1.0977 2.9609zm-1.2188-4.8945c0 0.28906-0.16797 0.57422-0.42969 0.71484-0.16797 0.0977-0.28516 0.1211-0.6211 0.1211h-1.2891v-1.6719h1.2891c0.35938 0 0.45313 0.0274 0.6211 0.1211 0.26172 0.14453 0.42969 0.42968 0.42969 0.71484"/><path d="m384.79 493.62v1.6719h1.9766v1.0976h-1.9766v2.9609h-1.0742v-6.8047h4.2227v1.0742z"/><path d="m391.2 493.5v5.8516h-1.0742v-5.8516h-1.5508v-0.95313h4.2031v0.95313z"/><path d="m360.03 499.35v-5.5195h-0.61328v-0.85547h0.0664c0.28515 0 0.59375-0.16797 0.78125-0.43359h0.85156v6.8086z"/><path d="m364.29 499.47c-0.59766 0-1.1914-0.14453-1.6719-0.38282l0.52735-0.95312c0.28515 0.14453 0.78906 0.23828 1.2891 0.23828 0.97656 0 1.7422-0.64453 1.7422-1.5273 0-0.67188-0.54688-1.1953-1.2188-1.1953-0.47656 0-0.69141 0.14454-1.0977 0.71875l-1.0742-0.3125 0.16797-3.5117h3.9141v1.0742h-2.8633l-0.0703 1.125c0.5-0.14453 0.71484-0.1914 1.0469-0.1914 1.2422 0 2.2695 1.0508 2.2695 2.293 0 1.5039-1.2422 2.625-2.9609 2.625"/><path d="m371.96 494.05c-0.21875-0.35547-0.48047-0.5-0.88672-0.52344-0.52734-0.0234-0.86328 0.23829-1.1016 0.83594-0.16797 0.40625-0.26172 1.0274-0.26172 1.6016 0 0.71485 0.14063 1.4531 0.40625 1.8867 0.21484 0.35547 0.5 0.52344 0.93359 0.52344 0.5 0 0.8125-0.26172 1.0508-0.85937 0.14453-0.35938 0.26562-1.0274 0.26562-1.5508 0-0.76562-0.14453-1.457-0.40625-1.9141m0.73828 4.6602c-0.38281 0.52344-0.92969 0.76172-1.6484 0.76172-0.95703 0-1.5586-0.38282-1.9648-1.2188-0.28516-0.57032-0.48047-1.4766-0.48047-2.2891 0-1.125 0.28906-2.1289 0.7461-2.7695 0.40625-0.52734 0.95703-0.76562 1.7461-0.76562 0.86328 0 1.4609 0.38281 1.8906 1.2188 0.28516 0.59375 0.45313 1.457 0.45313 2.3164 0 1.0742-0.26172 2.1484-0.74219 2.7461"/><path d="m378.16 494.05c-0.21875-0.35547-0.48047-0.5-0.88672-0.52344-0.52734-0.0234-0.86328 0.23829-1.1016 0.83594-0.16797 0.40625-0.26172 1.0274-0.26172 1.6016 0 0.71485 0.14453 1.4531 0.40625 1.8867 0.21485 0.35547 0.5 0.52344 0.9336 0.52344 0.5039 0 0.8125-0.26172 1.0508-0.85937 0.14453-0.35938 0.26562-1.0274 0.26562-1.5508 0-0.76562-0.14453-1.457-0.40625-1.9141m0.74219 4.6602c-0.38672 0.52344-0.93359 0.76172-1.6523 0.76172-0.95703 0-1.5586-0.38282-1.9648-1.2188-0.28515-0.57032-0.47656-1.4766-0.47656-2.2891 0-1.125 0.28516-2.1289 0.74219-2.7695 0.40625-0.52734 0.95703-0.76562 1.7461-0.76562 0.86328 0 1.4609 0.38281 1.8906 1.2188 0.28906 0.59375 0.45703 1.457 0.45703 2.3164 0 1.0742-0.26563 2.1484-0.74219 2.7461"/><path d="m192.8 127.06v1.4531h1.7266v0.95703h-1.7266v2.5781h-0.93359v-5.9258h3.6797v0.9375z"/><path d="m198.4 126.96v5.0938h-0.9375v-5.0938h-1.3516v-0.83203h3.6602v0.83203z"/><path d="m171.25 132.05v-4.8047h-0.53515v-0.74609h0.0586c0.25 0 0.51563-0.14453 0.67969-0.375h0.74219v5.9258z"/><path d="m181.64 127.43c-0.1875-0.3125-0.41797-0.4375-0.76953-0.45703-0.46094-0.0195-0.75 0.21094-0.96094 0.73047-0.14453 0.35156-0.22656 0.89453-0.22656 1.3945 0 0.62109 0.125 1.2656 0.35156 1.6406 0.1875 0.3125 0.4375 0.45704 0.8125 0.45704 0.4375 0 0.71094-0.23047 0.91797-0.75 0.125-0.3125 0.23047-0.89454 0.23047-1.3477 0-0.66797-0.125-1.2695-0.35547-1.668m0.64844 4.0586c-0.33594 0.45704-0.81641 0.66407-1.4414 0.66407-0.83203 0-1.3555-0.33203-1.707-1.0625-0.25-0.5-0.41797-1.2891-0.41797-1.9922 0-0.98047 0.25-1.8555 0.64453-2.4141 0.35547-0.45703 0.83594-0.66797 1.5234-0.66797 0.75 0 1.2734 0.33594 1.6484 1.0625 0.25 0.51953 0.39453 1.2695 0.39453 2.0195 0 0.93359-0.23047 1.8672-0.64453 2.3906"/><path d="m176.26 127.43c-0.1875-0.3125-0.41406-0.4375-0.76953-0.45703-0.45703-0.0195-0.75 0.21094-0.96094 0.73047-0.14453 0.35156-0.22656 0.89453-0.22656 1.3945 0 0.62109 0.125 1.2656 0.35547 1.6406 0.1875 0.3125 0.4375 0.45704 0.8125 0.45704 0.4375 0 0.70703-0.23047 0.91406-0.75 0.125-0.3125 0.23047-0.89454 0.23047-1.3477 0-0.66797-0.125-1.2695-0.35547-1.668m0.64844 4.0586c-0.33594 0.45704-0.8125 0.66407-1.4375 0.66407-0.83594 0-1.3555-0.33203-1.7109-1.0625-0.25-0.5-0.41797-1.2891-0.41797-1.9922 0-0.98047 0.25-1.8555 0.64844-2.4141 0.35547-0.45703 0.83203-0.66797 1.5195-0.66797 0.75 0 1.2734 0.33594 1.6484 1.0625 0.25 0.51953 0.39453 1.2695 0.39453 2.0195 0 0.93359-0.23047 1.8672-0.64453 2.3906"/><path d="m187.04 127.43c-0.1875-0.3125-0.41797-0.4375-0.77344-0.45703-0.45703-0.0195-0.75 0.21094-0.95703 0.73047-0.14844 0.35156-0.23047 0.89453-0.23047 1.3945 0 0.62109 0.125 1.2656 0.35547 1.6406 0.1875 0.3125 0.4375 0.45704 0.8125 0.45704 0.4375 0 0.70703-0.23047 0.91797-0.75 0.125-0.3125 0.22656-0.89454 0.22656-1.3477 0-0.66797-0.125-1.2695-0.35156-1.668m0.64453 4.0586c-0.33594 0.45704-0.8125 0.66407-1.4375 0.66407-0.83594 0-1.3555-0.33203-1.7109-1.0625-0.25-0.5-0.41797-1.2891-0.41797-1.9922 0-0.98047 0.25-1.8555 0.64844-2.4141 0.35547-0.45703 0.83203-0.66797 1.5195-0.66797 0.75391 0 1.2734 0.33594 1.6484 1.0625 0.25 0.51953 0.39844 1.2695 0.39844 2.0195 0 0.93359-0.23047 1.8672-0.64844 2.3906"/></g><g transform="translate(-43.371 -103.43)"><use x="113.9038" y="503.58011" width="100%" height="100%" xlink:href="#aq"/><use x="119.6798" y="503.58011" width="100%" height="100%" xlink:href="#e"/><use x="124.1278" y="503.58011" width="100%" height="100%" xlink:href="#d"/><use x="126.3518" y="503.58011" width="100%" height="100%" xlink:href="#b"/><use x="130.7998" y="503.58011" width="100%" height="100%" xlink:href="#aj"/><use x="132.6254" y="503.58011" width="100%" height="100%" xlink:href="#a"/><use x="135.9046" y="503.58011" width="100%" height="100%" xlink:href="#ai"/><use x="141.2406" y="503.58011" width="100%" height="100%" xlink:href="#b"/><use x="145.6886" y="503.58011" width="100%" height="100%" xlink:href="#b"/><use x="150.1366" y="503.58011" width="100%" height="100%" xlink:href="#a"/><use x="151.9622" y="503.58011" width="100%" height="100%" xlink:href="#ah"/><use x="155.8918" y="503.58011" width="100%" height="100%" xlink:href="#k"/><use x="160.3398" y="503.58011" width="100%" height="100%" xlink:href="#aa"/><use x="164.6302" y="503.58011" width="100%" height="100%" xlink:href="#q"/><use x="166.4062" y="503.58011" width="100%" height="100%" xlink:href="#b"/><use x="170.8542" y="503.58011" width="100%" height="100%" xlink:href="#f"/><use x="174.8542" y="503.58011" width="100%" height="100%" xlink:href="#a"/><use x="177.0782" y="503.58011" width="100%" height="100%" xlink:href="#z"/><use x="181.5262" y="503.58011" width="100%" height="100%" xlink:href="#y"/><use x="186.8622" y="503.58011" width="100%" height="100%" xlink:href="#x"/><use x="189.5262" y="503.58011" width="100%" height="100%" xlink:href="#ap"/><use x="193.9742" y="503.58011" width="100%" height="100%" xlink:href="#a"/><use x="196.1982" y="503.58011" width="100%" height="100%" xlink:href="#k"/><use x="200.64619" y="503.58011" width="100%" height="100%" xlink:href="#g"/><use x="205.09419" y="503.58011" width="100%" height="100%" xlink:href="#n"/><use x="209.54221" y="503.58011" width="100%" height="100%" xlink:href="#a"/><use x="211.7662" y="503.58011" width="100%" height="100%" xlink:href="#z"/><use x="216.2142" y="503.58011" width="100%" height="100%" xlink:href="#y"/><use x="221.5502" y="503.58011" width="100%" height="100%" xlink:href="#x"/><use x="224.2142" y="503.58011" width="100%" height="100%" xlink:href="#ao"/><use x="228.6622" y="503.58011" width="100%" height="100%" xlink:href="#a"/><use x="230.8862" y="503.58011" width="100%" height="100%" xlink:href="#p"/><use x="232.8726" y="503.58011" width="100%" height="100%" xlink:href="#e"/><use x="237.3206" y="503.58011" width="100%" height="100%" xlink:href="#m"/><use x="239.9846" y="503.58011" width="100%" height="100%" xlink:href="#a"/><use x="242.2086" y="503.58011" width="100%" height="100%" xlink:href="#d"/><use x="244.4326" y="503.58011" width="100%" height="100%" xlink:href="#o"/><use x="248.8806" y="503.58011" width="100%" height="100%" xlink:href="#b"/><use x="253.3286" y="503.58011" width="100%" height="100%" xlink:href="#a"/><use x="135.90379" y="512.58008" width="100%" height="100%" xlink:href="#w"/><use x="142.56779" y="512.58008" width="100%" height="100%" xlink:href="#b"/><use x="147.01579" y="512.58008" width="100%" height="100%" xlink:href="#k"/><use x="151.46381" y="512.58008" width="100%" height="100%" xlink:href="#g"/><use x="155.9118" y="512.58008" width="100%" height="100%" xlink:href="#l"/><use x="157.68781" y="512.58008" width="100%" height="100%" xlink:href="#g"/><use x="162.1358" y="512.58008" width="100%" height="100%" xlink:href="#v"/><use x="166.5838" y="512.58008" width="100%" height="100%" xlink:href="#a"/><use x="168.8078" y="512.58008" width="100%" height="100%" xlink:href="#e"/><use x="173.2558" y="512.58008" width="100%" height="100%" xlink:href="#p"/><use x="175.4798" y="512.58008" width="100%" height="100%" xlink:href="#a"/><use x="177.7038" y="512.58008" width="100%" height="100%" xlink:href="#d"/><use x="179.9278" y="512.58008" width="100%" height="100%" xlink:href="#o"/><use x="184.37579" y="512.58008" width="100%" height="100%" xlink:href="#b"/><use x="188.82381" y="512.58008" width="100%" height="100%" xlink:href="#a"/><use x="191.04781" y="512.58008" width="100%" height="100%" xlink:href="#f"/><use x="195.04781" y="512.58008" width="100%" height="100%" xlink:href="#an"/><use x="199.04781" y="512.58008" width="100%" height="100%" xlink:href="#w"/><use x="205.71181" y="512.58008" width="100%" height="100%" xlink:href="#aa"/><use x="210.15981" y="512.58008" width="100%" height="100%" xlink:href="#e"/><use x="214.6078" y="512.58008" width="100%" height="100%" xlink:href="#q"/><use x="216.3838" y="512.58008" width="100%" height="100%" xlink:href="#f"/><use x="220.3838" y="512.58008" width="100%" height="100%" xlink:href="#a"/><use x="222.6078" y="512.58008" width="100%" height="100%" xlink:href="#k"/><use x="227.0558" y="512.58008" width="100%" height="100%" xlink:href="#g"/><use x="231.5038" y="512.58008" width="100%" height="100%" xlink:href="#n"/><use x="235.9518" y="512.58008" width="100%" height="100%" xlink:href="#am"/><use x="238.1758" y="512.58008" width="100%" height="100%" xlink:href="#e"/><use x="242.62379" y="512.58008" width="100%" height="100%" xlink:href="#m"/><use x="245.2878" y="512.58008" width="100%" height="100%" xlink:href="#a"/><use x="135.90379" y="521.58008" width="100%" height="100%" xlink:href="#q"/><use x="137.67979" y="521.58008" width="100%" height="100%" xlink:href="#b"/><use x="142.12781" y="521.58008" width="100%" height="100%" xlink:href="#d"/><use x="144.35181" y="521.58008" width="100%" height="100%" xlink:href="#d"/><use x="146.57581" y="521.58008" width="100%" height="100%" xlink:href="#b"/><use x="151.0238" y="521.58008" width="100%" height="100%" xlink:href="#m"/><use x="153.68781" y="521.58008" width="100%" height="100%" xlink:href="#a"/><use x="155.9118" y="521.58008" width="100%" height="100%" xlink:href="#al"/><use x="159.9118" y="521.58008" width="100%" height="100%" xlink:href="#e"/><use x="164.3598" y="521.58008" width="100%" height="100%" xlink:href="#n"/><use x="168.8078" y="521.58008" width="100%" height="100%" xlink:href="#b"/><use x="173.2558" y="521.58008" width="100%" height="100%" xlink:href="#f"/><use x="177.2558" y="521.58008" width="100%" height="100%" xlink:href="#a"/><use x="179.4798" y="521.58008" width="100%" height="100%" xlink:href="#u"/><use x="183.9278" y="521.58008" width="100%" height="100%" xlink:href="#f"/><use x="187.9278" y="521.58008" width="100%" height="100%" xlink:href="#b"/><use x="192.37579" y="521.58008" width="100%" height="100%" xlink:href="#n"/><use x="196.82381" y="521.58008" width="100%" height="100%" xlink:href="#a"/><use x="199.04781" y="521.58008" width="100%" height="100%" xlink:href="#l"/><use x="200.82381" y="521.58008" width="100%" height="100%" xlink:href="#g"/><use x="205.2718" y="521.58008" width="100%" height="100%" xlink:href="#a"/><use x="207.4958" y="521.58008" width="100%" height="100%" xlink:href="#d"/><use x="209.7198" y="521.58008" width="100%" height="100%" xlink:href="#o"/><use x="214.1678" y="521.58008" width="100%" height="100%" xlink:href="#l"/><use x="215.9438" y="521.58008" width="100%" height="100%" xlink:href="#f"/><use x="219.9438" y="521.58008" width="100%" height="100%" xlink:href="#a"/><use x="222.1678" y="521.58008" width="100%" height="100%" xlink:href="#p"/><use x="224.3918" y="521.58008" width="100%" height="100%" xlink:href="#l"/><use x="226.1678" y="521.58008" width="100%" height="100%" xlink:href="#v"/><use x="230.6158" y="521.58008" width="100%" height="100%" xlink:href="#u"/><use x="235.0638" y="521.58008" width="100%" height="100%" xlink:href="#m"/><use x="237.7278" y="521.58008" width="100%" height="100%" xlink:href="#b"/><use x="242.0574" y="521.58008" width="100%" height="100%" xlink:href="#ak"/></g></g></svg>
