<?xml version="1.0" encoding="UTF-8"?>
<svg width="444.53pt" height="619.21pt" version="1.2" viewBox="0 0 444.53 619.21" xmlns="http://www.w3.org/2000/svg" xmlns:xlink="http://www.w3.org/1999/xlink"><defs><symbol id="am" overflow="visible"><path d="m1.1875-4.0625c0.03125-0.4375 0.078125-1.5469 1.2812-1.5469 0.92188 0 1.25 0.625 1.25 1.1406 0 0.82812-0.48438 1.0781-1.1562 1.4688l-0.84375 0.48438c-0.84375 0.5-1.4375 1.2031-1.4844 2.5156h4.3281v-0.75h-3.4375c0.03125-0.23438 0.21875-0.73438 1.0938-1.2188l0.65625-0.35938c0.9375-0.5 1.6875-0.96875 1.6875-2.1094 0-1.1719-0.875-1.8906-1.9844-1.8906-0.67188 0-2.1875 0.20312-2.1875 2.2656z"/></symbol><symbol id="ak" overflow="visible"><path d="m1.5938-5.4219h2.6875v-0.76562h-3.2812l-0.48438 3.3906 0.6875 0.03125c0.29688-0.39062 0.71875-0.59375 1.1719-0.59375 0.78125 0 1.4062 0.48438 1.4062 1.3906 0 0.79688-0.51562 1.4531-1.3281 1.4531-0.71875 0-1.2656-0.32812-1.3438-1.0625h-0.82812c0.15625 1.4219 1.2188 1.75 2.0469 1.75 1.9844 0 2.2969-1.5156 2.2969-2.2188 0-1.3125-1.0469-2.0312-2.0781-2.0312-0.5625 0-0.95312 0.1875-1.2188 0.39062z"/></symbol><symbol id="cb" overflow="visible"><path d="m3.8281-3.0781c0 1.5781-0.42188 2.5312-1.3281 2.5312s-1.3281-0.95312-1.3281-2.5312 0.42188-2.5312 1.3281-2.5312 1.3281 0.95312 1.3281 2.5312zm0.84375 0c0-1.3125-0.35938-3.25-2.1719-3.25s-2.1719 1.9375-2.1719 3.25 0.35938 3.25 2.1719 3.25 2.1719-1.9375 2.1719-3.25z"/></symbol><symbol id="h" overflow="visible"></symbol><symbol id="af" overflow="visible"><path d="m2.3594-4.0469v-0.65625h-0.79688v-0.59375c0-0.375 0.125-0.54688 0.46875-0.54688 0.10938 0 0.23438 0.015625 0.32812 0.015625v-0.70312c-0.125-0.015625-0.25-0.015625-0.35938-0.015625-0.78125 0-1.2188 0.3125-1.2188 1.0312v0.8125h-0.65625v0.65625h0.65625v4.0469h0.78125v-4.0469z"/></symbol><symbol id="m" overflow="visible"><path d="m2.3125-4.0469v-0.65625h-0.75v-1.3125h-0.79688v1.3125h-0.64062v0.65625h0.64062v3.1094c0 0.5625 0.17188 1 0.95312 1 0.078125 0 0.3125-0.03125 0.59375-0.0625v-0.625h-0.28125c-0.15625 0-0.46875 0-0.46875-0.35938v-3.0625z"/></symbol><symbol id="ca" overflow="visible"><path d="m2.5938-2.8906h-2.2031v0.79688h2.2031z"/></symbol><symbol id="k" overflow="visible"><path d="m0.3125-2.3594c0 1.2188 0.6875 2.4844 2.1875 2.4844s2.1875-1.2656 2.1875-2.4844-0.6875-2.4844-2.1875-2.4844-2.1875 1.2656-2.1875 2.4844zm0.82812 0c0-0.625 0.23438-1.7969 1.3594-1.7969 1.1406 0 1.375 1.1719 1.375 1.7969s-0.23438 1.7969-1.375 1.7969c-1.125 0-1.3594-1.1719-1.3594-1.7969z"/></symbol><symbol id="bz" overflow="visible"><path d="m4.0156-3.3594c0-0.23438-0.10938-1.4844-1.7969-1.4844-0.92188 0-1.7812 0.46875-1.7812 1.5 0 0.65625 0.4375 0.98438 1.0938 1.1406l0.92188 0.23438c0.67188 0.17188 0.9375 0.29688 0.9375 0.67188 0 0.51562-0.51562 0.75-1.0938 0.75-1.1094 0-1.2188-0.59375-1.25-0.96875h-0.76562c0.03125 0.57812 0.17188 1.6562 2.0312 1.6562 1.0625 0 1.8594-0.59375 1.8594-1.5625 0-0.64062-0.34375-1-1.3125-1.2344l-0.79688-0.20312c-0.60938-0.15625-0.85938-0.25-0.85938-0.625 0-0.59375 0.70312-0.67188 0.9375-0.67188 1 0 1.1094 0.5 1.125 0.79688z"/></symbol><symbol id="t" overflow="visible"><path d="m1.2812-2.1406c0-0.75 0.125-1.9844 1.2656-1.9844 1.2188 0 1.2812 1.1562 1.2812 1.7656 0 1.0312-0.40625 1.8125-1.2656 1.8125-0.5 0-1.2812-0.32812-1.2812-1.5938zm-0.76562 4h0.79688v-2.3594h0.015625c0.20312 0.34375 0.625 0.64062 1.25 0.64062 1.6094 0 2.0781-1.5156 2.0781-2.6406 0-1.3125-0.71875-2.3438-1.9688-2.3438-0.84375 0-1.2188 0.53125-1.4062 0.79688h-0.015625v-0.65625h-0.75z"/></symbol><symbol id="s" overflow="visible"><path d="m1.2812-3.2812c0.0625-0.35938 0.1875-0.90625 1.0781-0.90625 0.75 0 1.1094 0.26562 1.1094 0.76562 0 0.46875-0.21875 0.54688-0.40625 0.5625l-1.3125 0.15625c-1.3125 0.17188-1.4219 1.0781-1.4219 1.4844 0 0.8125 0.60938 1.3594 1.4688 1.3594 0.92188 0 1.3906-0.4375 1.7031-0.76562 0.03125 0.35938 0.14062 0.71875 0.84375 0.71875 0.17188 0 0.29688-0.0625 0.42188-0.09375v-0.57812c-0.078125 0.015625-0.1875 0.03125-0.25 0.03125-0.17188 0-0.26562-0.078125-0.26562-0.26562v-2.7188c0-1.2031-1.375-1.3125-1.75-1.3125-1.1562 0-1.9062 0.4375-1.9375 1.5625zm2.1719 1.6562c0 0.625-0.71875 1.1094-1.4531 1.1094-0.59375 0-0.85938-0.3125-0.85938-0.82812 0-0.59375 0.625-0.70312 1.0156-0.76562 0.96875-0.125 1.1719-0.1875 1.2969-0.29688z"/></symbol><symbol id="cf" overflow="visible"><path d="m4.2969-3.125c-0.0625-0.8125-0.53125-1.7188-1.7656-1.7188-1.5625 0-2.2656 1.1562-2.2656 2.625 0 1.3594 0.78125 2.3594 2.1094 2.3594 1.375 0 1.8438-1.0625 1.9219-1.8125h-0.76562c-0.14062 0.73438-0.59375 1.125-1.125 1.125-1.0938 0-1.2969-1-1.2969-1.8125 0-0.82812 0.32812-1.7656 1.2969-1.7656 0.67188 0 1.0156 0.375 1.125 1z"/></symbol><symbol id="i" overflow="visible"><path d="m1.3906-4.7031h-0.78125v4.7031h0.78125zm0-0.85938v-0.90625h-0.78125v0.90625z"/></symbol><symbol id="q" overflow="visible"><path d="m4.4219-3.2031c0-1.3438-0.92188-1.6406-1.6562-1.6406-0.79688 0-1.25 0.54688-1.4219 0.79688h-0.015625v-0.65625h-0.75v4.7031h0.79688v-2.5625c0-1.2812 0.79688-1.5625 1.25-1.5625 0.76562 0 1 0.40625 1 1.2344v2.8906h0.79688z"/></symbol><symbol id="p" overflow="visible"><path d="m1.1719-2.3594c0-0.60938 0.0625-1.7656 1.2969-1.7656 1.1406 0 1.2656 1.2344 1.2656 1.9844 0 1.2656-0.78125 1.5938-1.2812 1.5938-0.875 0-1.2812-0.78125-1.2812-1.8125zm3.3125-2.3438h-0.73438v0.6875c-0.20312-0.28125-0.57812-0.82812-1.4219-0.82812-1.25 0-1.9688 1.0312-1.9688 2.3438 0 1.125 0.46875 2.6406 2.0781 2.6406 0.625 0 1.0312-0.29688 1.2656-0.67188v0.20312c0 0.54688 0.015625 1.6562-1.3438 1.6562-0.1875 0-0.92188 0-1.0625-0.75h-0.79688c0.15625 1.25 1.25 1.4062 1.7969 1.4062 2.1875 0 2.1875-1.7031 2.1875-2.375z"/></symbol><symbol id="ce" overflow="visible"><path d="m1.5625-6.4688h-0.875v6.4688h4.1406v-0.78125h-3.2656z"/></symbol><symbol id="al" overflow="visible"><path d="m4.4219-3.2031c0-1.3438-0.92188-1.6406-1.6562-1.6406-0.75 0-1.1406 0.46875-1.375 0.76562h-0.015625v-2.3906h-0.79688v6.4688h0.79688v-2.5625c0-1.1875 0.67188-1.5625 1.3125-1.5625 0.76562 0 0.9375 0.40625 0.9375 1.0469v3.0781h0.79688z"/></symbol><symbol id="cd" overflow="visible"><path d="m2.1406-6.5938c-0.98438 1.375-1.5312 2.6562-1.5312 4.25 0 1.6719 0.60938 2.7969 1.5469 4.2031h0.53125c-0.71875-1.4062-1.2344-2.5-1.2344-4 0-2.1562 0.46875-3.0156 1.2344-4.4531z"/></symbol><symbol id="o" overflow="visible"><path d="m1.3906-6.4688h-0.78125v6.4688h0.78125z"/></symbol><symbol id="cc" overflow="visible"><path d="m0.85938 1.8594c0.98438-1.375 1.5312-2.6562 1.5312-4.25 0-1.6719-0.625-2.7969-1.5469-4.2031h-0.53125c0.71875 1.4062 1.2188 2.5 1.2188 4 0 2.1562-0.45312 3.0156-1.2188 4.4531z"/></symbol><symbol id="aj" overflow="visible"><path d="m0.125-5.6875h2.1875v5.6875h0.875v-5.6875h2.1875v-0.78125h-5.25z"/></symbol><symbol id="c" overflow="visible"><path d="m3.7812-1.4688c-0.015625 0.34375-0.45312 0.92188-1.2031 0.92188-0.90625 0-1.375-0.5625-1.375-1.5469h3.4375c0-1.6719-0.65625-2.75-2.0156-2.75-1.5625 0-2.2656 1.1562-2.2656 2.625 0 1.3594 0.78125 2.3594 2.1094 2.3594 0.75 0 1.0625-0.1875 1.2812-0.32812 0.59375-0.39062 0.79688-1.0625 0.82812-1.2812zm-2.5781-1.2656c0-0.71875 0.57812-1.3906 1.3125-1.3906 0.95312 0 1.2656 0.67188 1.3125 1.3906z"/></symbol><symbol id="ai" overflow="visible"><path d="m0.57812 0h0.79688v-2.5625c0-1.2812 0.79688-1.5625 1.25-1.5625 0.57812 0 0.73438 0.46875 0.73438 0.85938v3.2656h0.79688v-2.875c0-0.625 0.4375-1.25 1.0938-1.25 0.6875 0 0.875 0.4375 0.875 1.0781v3.0469h0.79688v-3.2656c0-1.3125-0.95312-1.5781-1.4531-1.5781-0.73438 0-1.0469 0.32812-1.4531 0.76562-0.125-0.25-0.39062-0.76562-1.25-0.76562-0.84375 0-1.25 0.54688-1.4219 0.79688h-0.015625v-0.65625h-0.75z"/></symbol><symbol id="n" overflow="visible"><path d="m1.4844-2.7344c0-0.6875 0.46875-1.2656 1.2031-1.2656h0.29688v-0.8125c-0.0625-0.015625-0.10938-0.03125-0.20312-0.03125-0.59375 0-1.0156 0.375-1.3281 0.92188h-0.015625v-0.78125h-0.75v4.7031h0.79688z"/></symbol><symbol id="x" overflow="visible"><path d="m2.2656-0.875h-0.015625l-1.25-3.8281h-0.90625l1.75 4.8281c-0.375 0.96875-0.42188 1.0938-0.82812 1.0938-0.21875 0-0.39062-0.046875-0.48438-0.078125v0.71875c0.125 0.03125 0.21875 0.0625 0.32812 0.0625 1.0156 0 1.1094-0.10938 1.8438-2.0156 0.60938-1.5312 1.1562-3.0781 1.7031-4.6094h-0.875z"/></symbol><symbol id="ah" overflow="visible"><path d="m3.2188-3.6406h0.015625l0.95312 3.6406h0.82812l1.3594-4.7031h-0.78125l-0.95312 3.6875h-0.03125l-0.90625-3.6875h-0.89062l-0.90625 3.6875h-0.015625l-0.90625-3.6875h-0.85938l1.3594 4.7031h0.8125z"/></symbol><symbol id="ag" overflow="visible"><path d="m4.4844-6.4688h-0.78125v2.4219h-0.015625c-0.20312-0.26562-0.5625-0.79688-1.4062-0.79688-1.25 0-1.9688 1.0312-1.9688 2.3438 0 1.125 0.46875 2.6406 2.0781 2.6406 0.45312 0 1-0.15625 1.3281-0.78125h0.03125v0.64062h0.73438zm-3.3438 4.1094c0-0.60938 0.0625-1.7656 1.2812-1.7656 1.1406 0 1.2656 1.2344 1.2656 1.9844 0 1.2656-0.78125 1.5938-1.2812 1.5938-0.875 0-1.2656-0.78125-1.2656-1.8125z"/></symbol><symbol id="by" overflow="visible"><path d="m4.5781-7.0938h2.5938v-1.5156h-7v1.5156h2.5938v7.0938h1.8125z"/></symbol><symbol id="bs" overflow="visible"><path d="m6.4688-6.3906h-1.7812l-1.2969 4.7031h-0.03125l-1.375-4.7031h-1.8594l2.3438 6.6562c-0.15625 0.875-0.48438 0.95312-1.0938 0.95312-0.15625 0-0.26562 0-0.32812-0.015625v1.3438c0.23438 0.015625 0.53125 0.015625 0.75 0.015625 1.4688 0 1.6875-0.3125 2.4688-2.6719z"/></symbol><symbol id="ae" overflow="visible"><path d="m2.3594-3.0469c0-1.0156 0.26562-2.0469 1.4219-2.0469 1.0625 0 1.4219 0.9375 1.4219 1.9531 0 0.75-0.29688 1.9219-1.375 1.9219-1.0625 0-1.4688-0.875-1.4688-1.8281zm0-3.3438h-1.6094v8.875h1.6719v-3.2969h0.03125c0.20312 0.34375 0.625 0.98438 1.7969 0.98438 1.8906 0 2.6875-1.6875 2.6875-3.4375 0-2.2031-1.25-3.2812-2.6562-3.2812-1.125 0-1.5938 0.57812-1.9062 1.0938h-0.015625z"/></symbol><symbol id="ad" overflow="visible"><path d="m0.82812-6.3906v6.3906h1.6875v-6.3906zm1.6875-2.3125h-1.6875v1.5625h1.6875z"/></symbol><symbol id="ax" overflow="visible"><path d="m4.5781-2.3281c0 0.29688-0.29688 1.1094-1.1406 1.1094-1.2812 0-1.2969-1.375-1.2969-2.0625 0-0.79688 0.26562-1.8594 1.3281-1.8594 0.78125-0.046875 1.0469 0.60938 1.1094 1.0312h1.7031c-0.15625-1.9844-1.8125-2.4375-2.8125-2.4375-2.1562 0-3.0625 1.4688-3.0625 3.5312 0 1.3438 0.54688 3.1875 2.9531 3.1875 2.3438 0 2.8594-1.8438 2.9219-2.5z"/></symbol><symbol id="aw" overflow="visible"><path d="m5.9531-4.7031c0-1.5781-1.6406-1.8438-2.5469-1.8438-1.3125 0-2.6562 0.26562-2.8594 2.2344h1.625c0.046875-0.375 0.1875-0.89062 1.0312-0.89062 0.4375 0 1.1094 0.03125 1.1094 0.73438 0 0.35938-0.32812 0.46875-0.59375 0.51562l-1.5156 0.21875c-1.0625 0.15625-1.8594 0.79688-1.8594 2.0469 0 1.3125 0.98438 1.8594 1.9531 1.8594 1.1406 0 1.6719-0.53125 2.0625-0.92188 0.03125 0.35938 0.0625 0.45312 0.15625 0.75h1.8125v-0.25c-0.20312-0.078125-0.375-0.23438-0.375-1zm-1.6406 2.4062c0 0.78125-0.76562 1.2656-1.5 1.2656-0.32812 0-0.78125-0.1875-0.78125-0.76562 0-0.70312 0.51562-0.85938 1.1406-0.96875 0.6875-0.10938 0.96875-0.20312 1.1406-0.34375z"/></symbol><symbol id="av" overflow="visible"><path d="m2.5156-8.6094h-1.6875v8.6094h1.6875z"/></symbol><symbol id="au" overflow="visible"></symbol><symbol id="br" overflow="visible"><path d="m2.7344-1.7812h3.1875l0.54688 1.7812h1.9531l-3.0312-8.6094h-2.0781l-3.0781 8.6094h1.9062zm1.5781-4.8906h0.03125l1.0625 3.4062h-2.1875z"/></symbol><symbol id="bx" overflow="visible"><path d="m2.6562-8.1094h-1.6719v1.7188h-0.85938v1.2031h0.85938v3.875c0 0.82812 0.26562 1.3906 1.7188 1.3906h0.21875c0.26562 0 0.51562-0.015625 0.78125-0.03125v-1.2656c-0.10938 0-0.23438 0.015625-0.34375 0.015625-0.6875 0-0.70312-0.14062-0.70312-0.51562v-3.4688h1.0469v-1.2031h-1.0469z"/></symbol><symbol id="bw" overflow="visible"><path d="m6.9375-3.1875c0-2.3125-1.5469-3.3594-3.2656-3.3594s-3.2656 1.0469-3.2656 3.3594c0 2.2969 1.5469 3.3594 3.2656 3.3594s3.2656-1.0625 3.2656-3.3594zm-1.7344 0c0 0.8125-0.23438 1.9375-1.5312 1.9375s-1.5312-1.125-1.5312-1.9375c0-0.82812 0.23438-1.9531 1.5312-1.9531s1.5312 1.125 1.5312 1.9531z"/></symbol><symbol id="bv" overflow="visible"><path d="m6.5469-4.4219c0-1.3906-0.96875-2.125-2.2188-2.125-1.2031 0-1.6875 0.71875-1.9219 1.0938h-0.015625v-0.9375h-1.6094v6.3906h1.6719v-3.6562c0-0.96875 0.57812-1.4844 1.3281-1.4844 1.0625 0 1.0938 0.79688 1.0938 1.2656v3.875h1.6719z"/></symbol><symbol id="bu" overflow="visible"><path d="m1.5625-3.1875 2.1406-3.6719h0.015625c0 0.26562-0.03125 1.6094-0.03125 3.6719zm4.75 0h-0.95312v-5.3281h-1.9062l-3.125 5.1719v1.4531h3.3594v1.8906h1.6719v-1.8906h0.95312z"/></symbol><symbol id="bt" overflow="visible"><path d="m0.39062-4.1562c0 3 0.9375 4.3906 2.9531 4.3906 2 0 2.9375-1.3906 2.9375-4.3906 0-2.9844-0.9375-4.3594-2.9375-4.3594-2.0156 0-2.9531 1.375-2.9531 4.3594zm1.7188 0c0-2.1875 0.26562-3.0156 1.2344-3.0156 0.95312 0 1.2188 0.82812 1.2188 3.0156 0 2.2031-0.26562 3.0469-1.2188 3.0469-0.96875 0-1.2344-0.84375-1.2344-3.0469z"/></symbol><symbol id="bq" overflow="visible"><path d="m4.4219-1.1094h-0.015625l-2.875-4.6406h-0.92188v5.75h0.75v-4.6406h0.015625l2.9219 4.6406h0.875v-5.75h-0.75z"/></symbol><symbol id="d" overflow="visible"><path d="m0.28125-2.0938c0 1.0781 0.60938 2.2031 1.9375 2.2031 1.3438 0 1.9531-1.125 1.9531-2.2031s-0.60938-2.2031-1.9531-2.2031c-1.3281 0-1.9375 1.125-1.9375 2.2031zm0.73438 0c0-0.5625 0.20312-1.6094 1.2031-1.6094 1.0156 0 1.2188 1.0469 1.2188 1.6094s-0.20312 1.5938-1.2188 1.5938c-1 0-1.2031-1.0312-1.2031-1.5938z"/></symbol><symbol id="f" overflow="visible"><path d="m2.0625-3.5938v-0.59375h-0.67188v-1.1719h-0.70312v1.1719h-0.57812v0.59375h0.57812v2.75c0 0.5 0.14062 0.90625 0.84375 0.90625 0.0625 0 0.26562-0.03125 0.53125-0.0625v-0.54688h-0.25c-0.15625 0-0.42188 0-0.42188-0.32812v-2.7188z"/></symbol><symbol id="b" overflow="visible"><path d="m3.375-1.3125c-0.03125 0.3125-0.42188 0.82812-1.0938 0.82812-0.79688 0-1.2031-0.5-1.2031-1.375h3.0469c0-1.4844-0.59375-2.4375-1.7969-2.4375-1.3906 0-2.0156 1.0312-2.0156 2.3281 0 1.2031 0.70312 2.0938 1.875 2.0938 0.67188 0 0.95312-0.17188 1.1406-0.29688 0.53125-0.34375 0.71875-0.9375 0.75-1.1406zm-2.2969-1.1094c0-0.65625 0.5-1.25 1.1562-1.25 0.85938 0 1.125 0.59375 1.1719 1.25z"/></symbol><symbol id="e" overflow="visible"><path d="m3.5781-2.9844c0-0.21875-0.10938-1.3125-1.6094-1.3125-0.8125 0-1.5781 0.40625-1.5781 1.3281 0 0.57812 0.39062 0.875 0.96875 1.0156l0.8125 0.20312c0.60938 0.15625 0.84375 0.26562 0.84375 0.59375 0 0.46875-0.46875 0.67188-0.96875 0.67188-0.98438 0-1.0938-0.53125-1.1094-0.85938h-0.6875c0.03125 0.5 0.15625 1.4688 1.8125 1.4688 0.9375 0 1.6562-0.53125 1.6562-1.3906 0-0.5625-0.3125-0.89062-1.1875-1.1094l-0.70312-0.17188c-0.54688-0.14062-0.75-0.21875-0.75-0.5625 0-0.51562 0.60938-0.59375 0.82812-0.59375 0.89062 0 0.98438 0.45312 0.98438 0.71875z"/></symbol><symbol id="bh" overflow="visible"><path d="m1.5312-0.84375h-0.82812v0.84375h0.82812zm0-3.2812h-0.82812v0.84375h0.82812z"/></symbol><symbol id="a" overflow="visible"></symbol><symbol id="an" overflow="visible"><path d="m4.7969-4.0625c-0.03125-0.64062-0.23438-1.8281-2.2344-1.8281-1.3906 0-1.9844 0.875-1.9844 1.7656 0 1 0.85938 1.2656 1.2344 1.3594l1.1719 0.26562c0.9375 0.23438 1.2188 0.42188 1.2188 1.0156 0 0.82812-0.9375 0.96875-1.5 0.96875-0.73438 0-1.5781-0.29688-1.5781-1.3438h-0.73438c0 0.54688 0.09375 1.0156 0.57812 1.4531 0.26562 0.23438 0.67188 0.5625 1.75 0.5625 0.98438 0 2.2344-0.375 2.2344-1.7344 0-0.92188-0.54688-1.3594-1.2969-1.5469l-1.6406-0.375c-0.32812-0.078125-0.67188-0.23438-0.67188-0.71875 0-0.875 0.8125-1.0156 1.2969-1.0156 0.65625 0 1.3906 0.28125 1.4375 1.1719z"/></symbol><symbol id="bg" overflow="visible"><path d="m0.10938-5.0625h1.9531v5.0625h0.76562v-5.0625h1.9531v-0.6875h-4.6719z"/></symbol><symbol id="w" overflow="visible"><path d="m1.1406-2.9062c0.046875-0.32812 0.15625-0.8125 0.96875-0.8125 0.65625 0 0.98438 0.23438 0.98438 0.67188 0 0.42188-0.20312 0.48438-0.375 0.5l-1.1562 0.14062c-1.1719 0.15625-1.2812 0.96875-1.2812 1.3125 0 0.71875 0.54688 1.2188 1.3125 1.2188 0.82812 0 1.25-0.39062 1.5156-0.6875 0.03125 0.32812 0.125 0.64062 0.75 0.64062 0.15625 0 0.26562-0.046875 0.375-0.078125v-0.51562c-0.078125 0.015625-0.15625 0.03125-0.21875 0.03125-0.15625 0-0.23438-0.0625-0.23438-0.25v-2.4062c0-1.0625-1.2188-1.1562-1.5625-1.1562-1.0312 0-1.6875 0.39062-1.7188 1.3906zm1.9375 1.4531c0 0.5625-0.64062 0.98438-1.2969 0.98438-0.53125 0-0.76562-0.26562-0.76562-0.71875 0-0.53125 0.54688-0.64062 0.89062-0.6875 0.875-0.10938 1.0469-0.17188 1.1719-0.26562z"/></symbol><symbol id="at" overflow="visible"><path d="m1.125 0v-0.51562h0.015625c0.14062 0.23438 0.4375 0.64062 1.1562 0.64062 1.4219 0 1.8438-1.3438 1.8438-2.3438 0-1.1719-0.64062-2.0781-1.75-2.0781-0.48438 0-0.90625 0.20312-1.2031 0.64062h-0.015625v-2.0938h-0.70312v5.75zm2.2812-2.1094c0 0.92188-0.35938 1.625-1.125 1.625-0.45312 0-1.1406-0.29688-1.1406-1.4062 0-0.6875 0.10938-1.7812 1.125-1.7812 1.0938 0 1.1406 1.0312 1.1406 1.5625z"/></symbol><symbol id="ac" overflow="visible"><path d="m1.2344-5.75h-0.70312v5.75h0.70312z"/></symbol><symbol id="ab" overflow="visible"><path d="m4.0312-4.125c-0.078125-1.1406-1-1.5-1.6406-1.5-1.6875 0-2.0938 1.7812-2.0938 3.0156 0 0.73438 0.10938 1.4219 0.4375 1.9531 0.40625 0.60938 1.0156 0.8125 1.4531 0.8125 0.78125 0 1.125-0.21875 1.4219-0.54688 0.375-0.42188 0.53125-0.82812 0.53125-1.4062 0-1.3438-1.0625-1.7812-1.75-1.7812-0.78125 0-1.1719 0.375-1.3438 0.6875l-0.015625-0.015625c0-0.59375 0.23438-2.0781 1.3438-2.0781 0.59375 0 0.875 0.35938 0.96875 0.85938zm-2.9062 2.3906c0-0.65625 0.375-1.2188 1.1562-1.2188 0.875 0 1.1406 0.6875 1.1406 1.1875 0 0.75-0.4375 1.2812-1.1094 1.2812-0.82812 0-1.1875-0.64062-1.1875-1.25z"/></symbol><symbol id="v" overflow="visible"><path d="m1.4688-5.0781h1.5781c0.64062 0 1.125 0.23438 1.125 0.95312 0 0.78125-0.46875 1.0312-1.1562 1.0312h-1.5469zm0 2.6562h1.7969c1.25 0 1.7031-0.90625 1.7031-1.7031 0-0.9375-0.625-1.625-1.7031-1.625h-2.5781v5.75h0.78125z"/></symbol><symbol id="as" overflow="visible"><path d="m2.3125-2.5781h-1.9531v0.71875h1.9531z"/></symbol><symbol id="ar" overflow="visible"><path d="m1.0625-3.6094c0.015625-0.39062 0.0625-1.375 1.125-1.375 0.82812 0 1.1094 0.5625 1.1094 1.0156 0 0.73438-0.42188 0.95312-1.0312 1.3125l-0.73438 0.42188c-0.75 0.4375-1.2812 1.0625-1.3281 2.2344h3.8594v-0.65625h-3.0625c0.03125-0.21875 0.20312-0.65625 0.96875-1.0938l0.57812-0.3125c0.84375-0.45312 1.5156-0.875 1.5156-1.875 0-1.0469-0.79688-1.6875-1.7656-1.6875-0.60938 0-1.9375 0.1875-1.9375 2.0156z"/></symbol><symbol id="j" overflow="visible"><path d="m3.9219-2.8438c0-1.2031-0.8125-1.4531-1.4531-1.4531-0.71875 0-1.1094 0.48438-1.2656 0.70312h-0.015625v-0.59375h-0.67188v4.1875h0.70312v-2.2812c0-1.1406 0.70312-1.3906 1.1094-1.3906 0.6875 0 0.89062 0.375 0.89062 1.0938v2.5781h0.70312z"/></symbol><symbol id="r" overflow="visible"><path d="m3.9844-5.75h-0.70312v2.1562h-0.015625c-0.15625-0.23438-0.48438-0.70312-1.2344-0.70312-1.125 0-1.75 0.90625-1.75 2.0781 0 1 0.42188 2.3438 1.8438 2.3438 0.40625 0 0.89062-0.14062 1.1875-0.70312h0.015625v0.57812h0.65625zm-2.9688 3.6406c0-0.53125 0.046875-1.5625 1.1406-1.5625 1.0156 0 1.125 1.0938 1.125 1.7812 0 1.1094-0.70312 1.4062-1.1406 1.4062-0.76562 0-1.125-0.70312-1.125-1.625z"/></symbol><symbol id="bp" overflow="visible"><path d="m1.7969-2.5938h0.3125c0.48438 0 1.3125 0.078125 1.3125 1.0312 0 0.64062-0.5 1.0781-1.2188 1.0781-1.0469 0-1.1719-0.70312-1.2031-1.2344h-0.73438c0.046875 0.64062 0.21875 1.2969 0.84375 1.625 0.28125 0.14062 0.625 0.25 1.0469 0.25 1.4219 0 2.0156-0.89062 2.0156-1.8125 0-0.75-0.39062-1.1406-0.9375-1.3125v-0.015625c0.3125-0.09375 0.71875-0.4375 0.71875-1.1562 0-0.85938-0.64062-1.4844-1.7344-1.4844-1.4688 0-1.8125 1.0156-1.8125 1.8438h0.6875c0.03125-0.39062 0.09375-1.2031 1.0938-1.2031 0.84375 0 1.0469 0.54688 1.0469 0.875 0 0.70312-0.53125 0.92188-1.0781 0.92188-0.10938 0-0.25 0-0.35938-0.015625z"/></symbol><symbol id="u" overflow="visible"><path d="m2.0938-3.5938v-0.59375h-0.70312v-0.51562c0-0.34375 0.10938-0.48438 0.42188-0.48438 0.078125 0 0.20312 0 0.28125 0.015625v-0.64062c-0.10938 0-0.21875-0.015625-0.3125-0.015625-0.6875 0-1.0938 0.29688-1.0938 0.92188v0.71875h-0.57812v0.59375h0.57812v3.5938h0.70312v-3.5938z"/></symbol><symbol id="l" overflow="visible"><path d="m1.3125-2.4375c0-0.60938 0.42188-1.1094 1.0781-1.1094h0.26562v-0.73438c-0.0625-0.015625-0.09375-0.015625-0.1875-0.015625-0.53125 0-0.89062 0.32812-1.1719 0.8125h-0.015625v-0.70312h-0.67188v4.1875h0.70312z"/></symbol><symbol id="aa" overflow="visible"><path d="m3.9219-2.8438c0-1.2031-0.8125-1.4531-1.4531-1.4531-0.67188 0-1.0312 0.40625-1.2344 0.67188h-0.015625v-2.125h-0.70312v5.75h0.70312v-2.2812c0-1.0625 0.59375-1.3906 1.1719-1.3906 0.67188 0 0.82812 0.375 0.82812 0.9375v2.7344h0.70312z"/></symbol><symbol id="aq" overflow="visible"><path d="m0.51562 0h0.70312v-2.2812c0-1.1406 0.70312-1.3906 1.1094-1.3906 0.51562 0 0.65625 0.42188 0.65625 0.78125v2.8906h0.70312v-2.5469c0-0.5625 0.39062-1.125 0.98438-1.125s0.78125 0.39062 0.78125 0.96875v2.7031h0.70312v-2.8906c0-1.1875-0.85938-1.4062-1.2969-1.4062-0.65625 0-0.9375 0.28125-1.2812 0.67188-0.125-0.21875-0.35938-0.67188-1.1094-0.67188s-1.1094 0.48438-1.2656 0.70312h-0.015625v-0.59375h-0.67188z"/></symbol><symbol id="g" overflow="visible"><path d="m1.2344-4.1875h-0.70312v4.1875h0.70312zm0-0.75v-0.8125h-0.70312v0.8125z"/></symbol><symbol id="ap" overflow="visible"><path d="m1.0469-2.1094c0-0.53125 0.0625-1.5625 1.1406-1.5625 1.0156 0 1.125 1.0938 1.125 1.7812 0 1.1094-0.6875 1.4062-1.1406 1.4062-0.76562 0-1.125-0.70312-1.125-1.625zm2.9375-2.0781h-0.65625v0.625c-0.17188-0.26562-0.5-0.73438-1.2656-0.73438-1.1094 0-1.75 0.90625-1.75 2.0781 0 1 0.42188 2.3438 1.8438 2.3438 0.5625 0 0.9375-0.26562 1.125-0.59375v0.17188c0 0.5 0.03125 1.4688-1.1875 1.4688-0.17188 0-0.8125 0-0.9375-0.65625h-0.70312c0.125 1.1094 1.0938 1.25 1.5938 1.25 1.9375 0 1.9375-1.5156 1.9375-2.1094z"/></symbol><symbol id="bo" overflow="visible"><path d="m2.0156-0.78125h-0.015625l-1.1094-3.4062h-0.79688l1.5469 4.2969c-0.34375 0.85938-0.375 0.96875-0.75 0.96875-0.1875 0-0.32812-0.03125-0.42188-0.0625v0.625c0.10938 0.046875 0.1875 0.078125 0.29688 0.078125 0.90625 0 0.98438-0.10938 1.6406-1.7969 0.53125-1.375 1.0156-2.7344 1.5-4.1094h-0.76562z"/></symbol><symbol id="bn" overflow="visible"><path d="m2.3594-5.8906h-0.53125l-1.9688 6.0469h0.54688z"/></symbol><symbol id="z" overflow="visible"><path d="m3.8125-2.7812c-0.046875-0.71875-0.46875-1.5156-1.5625-1.5156-1.3906 0-2.0156 1.0312-2.0156 2.3281 0 1.2031 0.70312 2.0938 1.875 2.0938 1.2344 0 1.6406-0.9375 1.7031-1.6094h-0.67188c-0.125 0.64062-0.53125 1-1 1-0.96875 0-1.1562-0.89062-1.1562-1.6094 0-0.75 0.28125-1.5781 1.1562-1.5781 0.59375 0 0.90625 0.32812 1 0.89062z"/></symbol><symbol id="y" overflow="visible"><path d="m3.9062 0v-4.1875h-0.70312v2.3125c0 0.60938-0.26562 1.3906-1.1406 1.3906-0.46875 0-0.8125-0.23438-0.8125-0.92188v-2.7812h-0.70312v3.0156c0 1 0.73438 1.2969 1.3594 1.2969 0.67188 0 1.0312-0.26562 1.3281-0.75l0.015625 0.015625v0.60938z"/></symbol><symbol id="ao" overflow="visible"><path d="m1.5312-0.84375h-0.82812v0.84375h0.82812z"/></symbol><symbol id="bm" overflow="visible"><path d="m5.3906-4.0156c-0.10938-0.95312-0.875-1.875-2.3594-1.875-1.6719 0-2.6719 1.2188-2.6719 2.9844 0 2.2031 1.2656 3.0625 2.5781 3.0625 0.4375 0 2.1875-0.09375 2.5156-2.2656h-0.75c-0.26562 1.3281-1.1406 1.5781-1.6406 1.5781-1.4375 0-1.9062-1.0469-1.9062-2.3906 0-1.5156 0.82812-2.2812 1.875-2.2812 0.54688 0 1.3906 0.17188 1.6094 1.1875z"/></symbol><symbol id="bl" overflow="visible"><path d="m1.9844-0.78125h-0.015625l-1.0938-3.4062h-0.8125l1.5312 4.1875h0.75l1.5938-4.1875h-0.76562z"/></symbol><symbol id="bk" overflow="visible"><path d="m1.1406-1.8906c0-0.6875 0.10938-1.7812 1.125-1.7812 1.0938 0 1.1406 1.0312 1.1406 1.5625 0 0.92188-0.35938 1.625-1.125 1.625-0.45312 0-1.1406-0.29688-1.1406-1.4062zm-0.67188 3.5469h0.70312v-2.0938h0.015625c0.1875 0.29688 0.54688 0.5625 1.1094 0.5625 1.4219 0 1.8438-1.3438 1.8438-2.3438 0-1.1719-0.64062-2.0781-1.75-2.0781-0.76562 0-1.0781 0.46875-1.25 0.70312h-0.015625v-0.59375h-0.65625z"/></symbol><symbol id="bj" overflow="visible"><path d="m6.0938 0v-5.75h-1.1094l-1.625 4.8594h-0.015625l-1.6406-4.8594h-1.125v5.75h0.76562v-3.3906c0-0.17188-0.03125-0.89062-0.03125-1.4219h0.03125l1.6094 4.8125h0.76562l1.6094-4.8281h0.03125c0 0.54688-0.03125 1.2656-0.03125 1.4375v3.3906z"/></symbol><symbol id="bi" overflow="visible"><path d="m3.4062-2.7344c0 1.4062-0.375 2.25-1.1875 2.25-0.79688 0-1.1719-0.84375-1.1719-2.25s0.375-2.25 1.1719-2.25c0.8125 0 1.1875 0.84375 1.1875 2.25zm0.75 0c0-1.1719-0.3125-2.8906-1.9375-2.8906-1.6094 0-1.9219 1.7188-1.9219 2.8906s0.3125 2.8906 1.9219 2.8906c1.625 0 1.9375-1.7188 1.9375-2.8906z"/></symbol><clipPath id="cn"><path d="m353.48 479.96h33.957v230.57h-33.957z"/></clipPath><clipPath id="cm"><rect width="48" height="48"/></clipPath><g id="bb" clip-path="url(#cm)"><path transform="matrix(.66667 0 0 .66667 -.16667 2.4)" d="m-0.0019531-0.0023438h72.504" fill="none" stroke="#211e1e" stroke-width="1.44"/><path transform="matrix(.66667 0 0 .66667 -.16667 12)" d="m-0.0019531 0h72.504" fill="none" stroke="#211e1e" stroke-width="1.44"/><path transform="matrix(.66667 0 0 .66667 -.16667 21.6)" d="m-0.0019531 0.0023438h72.504" fill="none" stroke="#211e1e" stroke-width="1.44"/><path transform="matrix(.66667 0 0 .66667 -.16667 31.2)" d="m-0.0019531-0.0011719h72.504" fill="none" stroke="#211e1e" stroke-width="1.44"/><path transform="matrix(.66667 0 0 .66667 -.16667 40.8)" d="m-0.0019531 0.0011719h72.504" fill="none" stroke="#211e1e" stroke-width="1.44"/><path transform="matrix(.66667 0 0 .66667 -.16667 7.2)" d="m-0.0019531-0.0011719h72.504" fill="none" stroke="#211e1e" stroke-width="1.44"/><path transform="matrix(.66667 0 0 .66667 -.16667 16.8)" d="m-0.0019531 0.0011719h72.504" fill="none" stroke="#211e1e" stroke-width="1.44"/><path transform="matrix(.66667 0 0 .66667 -.16667 26.4)" d="m-0.0019531-0.0023438h72.504" fill="none" stroke="#211e1e" stroke-width="1.44"/><path transform="matrix(.66667 0 0 .66667 -.16667 36)" d="m-0.0019531 0h72.504" fill="none" stroke="#211e1e" stroke-width="1.44"/><path transform="matrix(.66667 0 0 .66667 -.16667 45.6)" d="m-0.0019531 0.0023438h72.504" fill="none" stroke="#211e1e" stroke-width="1.44"/></g><pattern id="bf" width="48" height="48" patternTransform="matrix(.7032 -.7032 -.7032 -.7032 -5.7014 797.48)" patternUnits="userSpaceOnUse"><use xlink:href="#bb"/></pattern><clipPath id="cl"><path d="m356.98 121.41h26.957v249.49h-26.957z"/></clipPath><clipPath id="ck"><rect width="48" height="48"/></clipPath><g id="ba" clip-path="url(#ck)"><path transform="matrix(.66667 0 0 .66667 -.16667 2.4)" d="m-0.0019531-0.0023438h72.504" fill="none" stroke="#211e1e" stroke-width="1.44"/><path transform="matrix(.66667 0 0 .66667 -.16667 12)" d="m-0.0019531 0h72.504" fill="none" stroke="#211e1e" stroke-width="1.44"/><path transform="matrix(.66667 0 0 .66667 -.16667 21.6)" d="m-0.0019531 0.0023438h72.504" fill="none" stroke="#211e1e" stroke-width="1.44"/><path transform="matrix(.66667 0 0 .66667 -.16667 31.2)" d="m-0.0019531-0.0011719h72.504" fill="none" stroke="#211e1e" stroke-width="1.44"/><path transform="matrix(.66667 0 0 .66667 -.16667 40.8)" d="m-0.0019531 0.0011719h72.504" fill="none" stroke="#211e1e" stroke-width="1.44"/><path transform="matrix(.66667 0 0 .66667 -.16667 7.2)" d="m-0.0019531-0.0011719h72.504" fill="none" stroke="#211e1e" stroke-width="1.44"/><path transform="matrix(.66667 0 0 .66667 -.16667 16.8)" d="m-0.0019531 0.0011719h72.504" fill="none" stroke="#211e1e" stroke-width="1.44"/><path transform="matrix(.66667 0 0 .66667 -.16667 26.4)" d="m-0.0019531-0.0023438h72.504" fill="none" stroke="#211e1e" stroke-width="1.44"/><path transform="matrix(.66667 0 0 .66667 -.16667 36)" d="m-0.0019531 0h72.504" fill="none" stroke="#211e1e" stroke-width="1.44"/><path transform="matrix(.66667 0 0 .66667 -.16667 45.6)" d="m-0.0019531 0.0023438h72.504" fill="none" stroke="#211e1e" stroke-width="1.44"/></g><pattern id="be" width="48" height="48" patternTransform="matrix(.7032 -.7032 -.7032 -.7032 -2.2014 790.42)" patternUnits="userSpaceOnUse"><use xlink:href="#ba"/></pattern><clipPath id="cj"><path d="m330.2 111.32h26.957v232.36h-26.957z"/></clipPath><clipPath id="ci"><rect width="48" height="48"/></clipPath><g id="az" clip-path="url(#ci)"><path transform="matrix(.66667 0 0 .66667 -.16667 2.4)" d="m-0.0019531-0.0023438h72.504" fill="none" stroke="#211e1e" stroke-width="1.44"/><path transform="matrix(.66667 0 0 .66667 -.16667 12)" d="m-0.0019531 0h72.504" fill="none" stroke="#211e1e" stroke-width="1.44"/><path transform="matrix(.66667 0 0 .66667 -.16667 21.6)" d="m-0.0019531 0.0023438h72.504" fill="none" stroke="#211e1e" stroke-width="1.44"/><path transform="matrix(.66667 0 0 .66667 -.16667 31.2)" d="m-0.0019531-0.0011719h72.504" fill="none" stroke="#211e1e" stroke-width="1.44"/><path transform="matrix(.66667 0 0 .66667 -.16667 40.8)" d="m-0.0019531 0.0011719h72.504" fill="none" stroke="#211e1e" stroke-width="1.44"/><path transform="matrix(.66667 0 0 .66667 -.16667 7.2)" d="m-0.0019531-0.0011719h72.504" fill="none" stroke="#211e1e" stroke-width="1.44"/><path transform="matrix(.66667 0 0 .66667 -.16667 16.8)" d="m-0.0019531 0.0011719h72.504" fill="none" stroke="#211e1e" stroke-width="1.44"/><path transform="matrix(.66667 0 0 .66667 -.16667 26.4)" d="m-0.0019531-0.0023438h72.504" fill="none" stroke="#211e1e" stroke-width="1.44"/><path transform="matrix(.66667 0 0 .66667 -.16667 36)" d="m-0.0019531 0h72.504" fill="none" stroke="#211e1e" stroke-width="1.44"/><path transform="matrix(.66667 0 0 .66667 -.16667 45.6)" d="m-0.0019531 0.0023438h72.504" fill="none" stroke="#211e1e" stroke-width="1.44"/></g><pattern id="bd" width="48" height="48" patternTransform="matrix(.7032 -.7032 -.7032 -.7032 4.7716 796.95)" patternUnits="userSpaceOnUse"><use xlink:href="#az"/></pattern><clipPath id="ch"><path d="m326.66 472.18h26.957v248.16h-26.957z"/></clipPath><clipPath id="cg"><rect width="48" height="48"/></clipPath><g id="ay" clip-path="url(#cg)"><path transform="matrix(.66667 0 0 .66667 -.16667 2.4)" d="m-0.0019531-0.0023438h72.504" fill="none" stroke="#211e1e" stroke-width="1.44"/><path transform="matrix(.66667 0 0 .66667 -.16667 12)" d="m-0.0019531 0h72.504" fill="none" stroke="#211e1e" stroke-width="1.44"/><path transform="matrix(.66667 0 0 .66667 -.16667 21.6)" d="m-0.0019531 0.0023438h72.504" fill="none" stroke="#211e1e" stroke-width="1.44"/><path transform="matrix(.66667 0 0 .66667 -.16667 31.2)" d="m-0.0019531-0.0011719h72.504" fill="none" stroke="#211e1e" stroke-width="1.44"/><path transform="matrix(.66667 0 0 .66667 -.16667 40.8)" d="m-0.0019531 0.0011719h72.504" fill="none" stroke="#211e1e" stroke-width="1.44"/><path transform="matrix(.66667 0 0 .66667 -.16667 7.2)" d="m-0.0019531-0.0011719h72.504" fill="none" stroke="#211e1e" stroke-width="1.44"/><path transform="matrix(.66667 0 0 .66667 -.16667 16.8)" d="m-0.0019531 0.0011719h72.504" fill="none" stroke="#211e1e" stroke-width="1.44"/><path transform="matrix(.66667 0 0 .66667 -.16667 26.4)" d="m-0.0019531-0.0023438h72.504" fill="none" stroke="#211e1e" stroke-width="1.44"/><path transform="matrix(.66667 0 0 .66667 -.16667 36)" d="m-0.0019531 0h72.504" fill="none" stroke="#211e1e" stroke-width="1.44"/><path transform="matrix(.66667 0 0 .66667 -.16667 45.6)" d="m-0.0019531 0.0023438h72.504" fill="none" stroke="#211e1e" stroke-width="1.44"/></g><pattern id="bc" width="48" height="48" patternTransform="matrix(.7032 -.69945 -.7032 -.69945 1.2416 768.19)" patternUnits="userSpaceOnUse"><use xlink:href="#ay"/></pattern></defs><g><path d="m167.05 7.4219v149.3l-48 449h246l-61-531v-67.305z" fill="#d7d7d7" stroke="#211e1e"/><path d="m215.82 614.23h17.25v-595.77h-17.25z" fill="#fff" stroke="#211e1e"/><path d="m216.31 10.461v595.77l-43-0.5 4e-3 -166.5h-9.7539l-15 166.5-22.34 0.26562 48-449c0.0274-0.2539 0.0391-0.50781 0.0391-0.76562v-149.3z" fill="#b0b0b0"/></g><g fill="none"><g stroke="#fff"><path d="m174.27 6.9336v149.3c0 0.25391-0.0156 0.50782-0.043 0.76172l-48 449" stroke-width="2"/><path d="m163.57 439.23-15 166.5" stroke-width="2"/><path d="m173.32 439.23v-108.22l-9.75 108.22" stroke-width="3"/><path d="m173.32 605.73v-166.5" stroke-width="2"/></g><g stroke-width="2"><path d="m197.94 606.23v-600.95" stroke="#facc2b"/><path d="m192.44 606.23v-600.95" stroke="#facc2b"/><path d="m251.32 604.23v-601" stroke="#fff" stroke-dasharray="24, 30"/></g></g><path d="m301.92 365.27h-33.957v230.57h33.957z" fill="#fff" stroke="#211e1e"/><path d="m331.07 605.23-26.332-242c-6-18.664-17.57-28.113-37.117-40.836-12.551-8.1641-48.883-32.746-54.539-42.152l0.32422-35.676v-11.336l-0.66797-52.664 19.617 21.582v61.238c12.715 11.535 36.715 27.844 51.715 36.844 20 12 39.336 24.336 44 51l29.812 254" fill="#b0b0b0"/><g fill="#211e1e"><path d="m370.07 518.82v3.4141h-3.4141v3.168h10v-3.168h-3.418v-3.4141z"/><path d="m362.07 446.23v3.418h-3.4141v3.168h10v-3.168h-3.418v-3.418z"/><path d="m221.07 327.82v3.4141h-3.4141v3.168h10v-3.168h-3.418v-3.4141z"/><path d="m283.36 274.7v3.418h-3.418v3.1641h10v-3.1641h-3.4141v-3.418z"/><path d="m240.15 261.57 2.4141 2.4141-1.207 1.2109-1.207 1.207 2.2383 2.2383 7.0703-7.0703-2.2383-2.2383-1.207 1.207-1.2109 1.207-2.4141-2.4141-1.1211 1.1172z"/><path d="m248.48 325.65-1.2109-1.207-1.207-1.207 1.207-1.2109 1.2109-1.207-1.1211-1.1172-1.1172-1.1211-3.5352 3.5352-3.5391 3.5352 1.1211 1.1172 1.1211 1.1211 2.4141-2.4141 1.207 1.207 1.2109 1.207 1.1172-1.1211z"/><path d="m221.07 165.32v3.418h-3.4141v3.1641h10v-3.1641h-3.418v-3.418z"/><path d="m221.07 130.65v3.418h-3.4141v3.1641h10v-3.1641h-3.418v-3.418z"/></g><path d="m192.07 336.7h-73.168" fill="none" stroke="#211e1e" stroke-width=".75"/><path d="m126.41 241.92v90.84" fill="none" stroke="#211e1e" stroke-width=".75"/><path d="m126.95 334c0.26172-0.8711 0.5039-1.4336 0.78515-2.1328h-2.6484c0.11718 0.25 0.51953 1.2617 0.78125 2.1328 0.28125 0.92578 0.47265 1.7695 0.54296 2.3164 0.0664-0.54687 0.26172-1.3906 0.53907-2.3164" fill="#211e1e"/><path d="m334.58 308.05h-21.238v-4.7812h21.238z" fill="#fff" stroke="#211e1e" stroke-width=".75"/><g fill="#f58511"><path d="m320.84 303.27h4.0469l-6.9297 4.7812h-4.0469z"/><path d="m329.69 303.27h4.0508l-6.9336 4.7812h-4.0469z"/><path d="m313.34 303.27h2.6953l-2.6953 1.8594z"/><path d="m334.58 308.05h-2.9766l2.9766-2.0547z"/></g><path d="m334.58 308.05h-21.238v-4.7812h21.238z" fill="none" stroke="#211e1e" stroke-width=".75"/><path d="m266.69 267.81h36.508v4.7812h-36.508z" fill="#fff" stroke="#211e1e"/><g fill="#f58511"><path d="m290.31 272.59h-6.9609l11.91-4.7812h6.957z"/><path d="m275.1 272.59h-6.957l11.91-4.7812h6.957z"/><path d="m303.19 272.59h-4.6367l4.6367-1.8633z"/><path d="m266.69 267.81h5.1133l-5.1133 2.0547z"/></g><path d="m266.69 267.81h36.508v4.7812h-36.508z" fill="none" stroke="#211e1e"/><path d="m236.4 242.29h29.867v4.7773h-29.867z" fill="#fff" stroke="#211e1e"/><g fill="#f58511"><path d="m255.73 247.07h-5.6914l9.7422-4.7812h5.6914z"/><path d="m243.28 247.07h-5.6914l9.7461-4.7812h5.6914z"/><path d="m266.27 247.07h-3.7891l3.7891-1.8633z"/><path d="m236.4 242.29h4.1875l-4.1875 2.0547z"/></g><path d="m236.4 242.29h29.867v4.7773h-29.867z" fill="none" stroke="#211e1e"/><g fill="#f58511"><path d="m239.57 228.73h-3v3h3z"/><path d="m237.57 228.73h-3v3h3z"/><path d="m237.57 217.23h-3v3h3z"/><path d="m237.57 205.23h-3v3h3z"/></g><path d="m375.92 363.73c1.2773 0.73437 2.9062 0.30078 3.6445-0.97657 0.73828-1.2773 0.30078-2.9062-0.97656-3.6445-1.2734-0.73437-2.9062-0.30078-3.6445 0.97657-0.73438 1.2773-0.29688 2.9062 0.97656 3.6445" fill="#211e1e"/><path d="m364.08 353.88-12.016-9.8672c-0.20313-0.25391-0.44922-0.48047-0.75-0.65235-1.2734-0.73828-2.9062-0.29687-3.6406 0.97657-0.73828 1.2734-0.30078 2.9062 0.97657 3.6445 0.22656 0.13281 0.46875 0.21093 0.71093 0.26953z" fill="#211e1e"/><path d="m356.69 349.55 20.57 11.875" fill="none" stroke="#211e1e" stroke-width="1.5"/><g fill="#f58511"><path d="m196.69 128.23h-3v3h3z"/><path d="m196.69 73.234h-3v3h3z"/><path d="m196.69 24.234h-3v3h3z"/><path d="m196.69 181.4h-3v3h3z"/><path d="m196.69 196.78h-3v3h3z"/><path d="m196.69 212.16h-3v3h3z"/><path d="m196.69 227.54h-3v3h3z"/><path d="m196.69 242.92h-3v3h3z"/><path d="m196.69 258.3h-3v3h3z"/><path d="m196.69 273.68h-3v3h3z"/><path d="m196.69 289.05h-3v3h3z"/><path d="m196.69 304.43h-3v3h3z"/><path d="m196.69 319.82h-3v3h3z"/><path d="m196.69 335.2h-3v3h3z"/><path d="m196.69 388.73h-3v3h3z"/><path d="m196.69 441.73h-3v3h3z"/><path d="m196.69 501.23h-3v3h3z"/><path d="m196.69 555.23h-3v3h3z"/></g><path d="m383.54 362.68 18.594 2.3359" fill="none" stroke="#211e1e" stroke-width=".75"/><path d="m382.25 363.06c0.82813 0.36718 1.3555 0.67968 2.0156 1.043l0.32812-2.6289c-0.26172 0.0859-1.3164 0.35937-2.207 0.51172-0.95703 0.16406-1.8203 0.25-2.3672 0.25 0.53125 0.13281 1.3438 0.42968 2.2305 0.82422" fill="#211e1e"/><path d="m126.4 231.34v-44.504" fill="none" stroke="#211e1e" stroke-width=".75"/><path d="m125.86 185.59c-0.26172 0.8711-0.50391 1.4336-0.78125 2.1289h2.6445c-0.11719-0.2461-0.51953-1.2578-0.78125-2.1289-0.28125-0.92578-0.47266-1.7695-0.54297-2.3164-0.0664 0.54687-0.25781 1.3906-0.53906 2.3164" fill="#211e1e"/><g fill="#f58511"><path d="m326.57 331.23h-3v3h3z"/><path d="m316.07 317.73h-3v3h3z"/><path d="m302.57 306.23h-3v3h3z"/><path d="m290.57 297.73h-3v3h3z"/><path d="m277.57 289.73h-3v3h3z"/><path d="m265.07 282.23h-3v3h3z"/><path d="m253.57 273.23h-3v3h3z"/></g><path d="m233.14 300.69c-6.6641-4.7852-13.266-9.8047-17.254-13.863v8.9102" fill="none" stroke="#211e1e"/><path d="m331.07 605.23-26.332-242c-6-18.664-17.57-28.113-37.117-40.836-11.262-7.3242-41.551-27.164-53.051-38.664" fill="none" stroke="#facc2b" stroke-width="2"/><g fill="#f58511"><path d="m314.73 454.9h-3v3h3z"/><path d="m312.87 438.64h-3v3h3z"/><path d="m311 422.37h-3v3h3z"/><path d="m302.98 360.23h-3v3h3z"/><path d="m294.57 345.23h-3v3h3z"/><path d="m285.57 336.73h-3v3h3z"/><path d="m273.07 327.23h-3v3h3z"/><path d="m260.57 318.73h-3v3h3z"/><path d="m305.4 373.57h-3.0039v3h3.0039z"/><path d="m307.26 389.84h-3v3h3z"/><path d="m309.13 406.1h-3v3h3z"/></g><g fill="none"><path d="m216.32 16.367v168.23l16.75 18.137v-9.5" stroke="#211e1e"/><path d="m214.44 257.23v349" stroke="#fff" stroke-width="2"/><path d="m214.82 10.648v174.61l18.445 20.02v58.758c14.777 13.234 36.914 27.719 51.055 36.203 20 12 39.086 24.332 43.75 51l29.812 254" stroke="#fff" stroke-width="2"/></g><g transform="translate(-85.513 -107.63)" clip-path="url(#cn)"><path d="m353.48 710.53h33.957v-230.57h-33.957z" fill="url(#bf)"/></g><path d="m301.92 372.33h-33.957v230.57h33.957z" fill="none" stroke="#211e1e"/><path d="m298.42 13.773h-26.957v249.49h26.957z" fill="#fff" stroke="#211e1e"/><g transform="translate(-85.513 -107.63)" clip-path="url(#cl)"><path d="m356.98 370.89h26.957v-249.49h-26.957z" fill="url(#be)"/></g><path d="m298.42 13.773h-26.957v249.49h26.957z" fill="none" stroke="#211e1e"/><path d="m367.73 284.88s-60.461 32.203-119.21-17.348" fill="none" stroke="#211e1e" stroke-width=".75"/><path d="m247.25 267.08c0.45312 0.78516 0.69922 1.3438 1.0195 2.0234l1.8086-1.9336c-0.26562-0.0859-1.2773-0.48047-2.0898-0.87891-0.87109-0.42969-1.6211-0.86719-2.0625-1.1875 0.35156 0.42188 0.83594 1.1367 1.3242 1.9766" fill="#211e1e"/><path d="m284.96 284.84c-0.30469 8.2695 48.5 8.9766 82.102-35.602" fill="none" stroke="#211e1e" stroke-width=".75"/><path d="m284.42 283.6c-0.25782 0.87109-0.49219 1.4375-0.76953 2.1367l2.6523-0.0195c-0.12109-0.25-0.53125-1.2578-0.80078-2.125-0.28516-0.92579-0.48438-1.7656-0.5586-2.3125-0.0625 0.54687-0.25 1.3906-0.52343 2.3203" fill="#211e1e"/><path d="m91.065 154.23s27.246-4.5391 55.574-4e-3c11.555 1.8516 23.285 5.2109 33.426 11.004 35 20 42.621 18.77 42.594 10.227" fill="none" stroke="#211e1e" stroke-width=".75"/><path d="m222.12 174.22c-0.25782 0.86719-0.4961 1.4336-0.77344 2.1289l2.6445-8e-3c-0.11719-0.25-0.52344-1.2578-0.78906-2.125-0.28516-0.92969-0.47657-1.7695-0.55078-2.3164-0.0625 0.54687-0.25391 1.3906-0.53125 2.3203" fill="#211e1e"/><path d="m146.64 154.23s76.859 13.684 76.105-13.438" fill="none" stroke="#211e1e" stroke-width=".75"/><path d="m222.17 139.57c-0.23828 0.875-0.46484 1.4453-0.72266 2.1484l2.6445-0.0742c-0.125-0.24609-0.55468-1.2461-0.84375-2.1055-0.30468-0.92187-0.51953-1.7578-0.60156-2.3047-0.0547 0.55078-0.22265 1.3984-0.47656 2.3359" fill="#211e1e"/><path d="m370.96 330.81s-34.289 6.1367-40.914 17.102" fill="none" stroke="#211e1e" stroke-width=".75"/><path d="m329.87 349.25c0.67188-0.60547 1.1719-0.96485 1.7695-1.418l-2.2656-1.3672c-0.0274 0.27344-0.20703 1.3477-0.4336 2.2266-0.23828 0.9375-0.50781 1.7578-0.73437 2.2617 0.34375-0.43359 0.94141-1.0547 1.6641-1.7031" fill="#211e1e"/><path d="m109.4 433.9c10.176-0.10547 44.551-32.184 83.086-54.203 30.332-17.332 67.289-44.59 73.512-53.82" fill="none" stroke="#211e1e" stroke-width=".75"/><path d="m266.25 324.55c-0.70312 0.57032-1.2188 0.90625-1.8398 1.3242l2.1953 1.4844c0.043-0.27344 0.27344-1.3398 0.54297-2.207 0.28516-0.92579 0.59766-1.7305 0.84375-2.2227-0.35938 0.41406-0.98828 1.0078-1.7422 1.6211" fill="#211e1e"/><path d="m129.46 380.06s93.84 2.7031 93.23-42.105" fill="none" stroke="#211e1e" stroke-width=".75"/><path d="m222.14 336.73c-0.25 0.8711-0.48437 1.4375-0.7539 2.1406l2.6484-0.0352c-0.12109-0.25-0.53906-1.2539-0.8125-2.1211-0.29296-0.92188-0.49609-1.7617-0.57031-2.3086-0.0625 0.54687-0.24219 1.3906-0.51172 2.3242" fill="#211e1e"/><path d="m271.64 3.6836h-26.957v232.36h26.957z" fill="#fff" stroke="#211e1e"/><g transform="translate(-85.513 -107.63)" clip-path="url(#cj)"><path d="m330.2 343.68h26.957v-232.36h-26.957z" fill="url(#bd)"/></g><path d="m271.64 3.6836h-26.957v232.36h26.957z" fill="none" stroke="#211e1e"/><path d="m268.11 364.55h-26.957v248.16h26.957z" fill="#fff" stroke="#211e1e" stroke-width=".997"/><g transform="translate(-85.513 -107.63)" clip-path="url(#ch)"><path d="m326.66 720.34h26.957v-248.16h-26.957z" fill="url(#bc)"/></g><path d="m268.11 364.55h-26.957v248.16h26.957z" fill="none" stroke="#211e1e" stroke-width=".997"/><path d="m217.54 373.99c42.828-29.473 35.551-26.723 153.43-43.176" fill="none" stroke="#211e1e" stroke-width=".75"/><path d="m216.82 375.14c0.86328-0.27734 1.4648-0.39844 2.1953-0.5625l-1.5-2.1797c-0.14063 0.23438-0.74219 1.1406-1.3125 1.8477-0.60547 0.75781-1.1875 1.3945-1.6016 1.7617 0.49218-0.25391 1.293-0.57422 2.2188-0.86719" fill="#211e1e"/><path d="m218.45 64.234h110.62" fill="none" stroke="#211e1e" stroke-width=".75"/><g><path d="m217.21 64.773c0.87109 0.26172 1.4336 0.50391 2.1289 0.78516v-2.6484c-0.25 0.11719-1.2578 0.51953-2.1289 0.78125-0.92578 0.28125-1.7695 0.47265-2.3164 0.54297 0.54688 0.0664 1.3906 0.26172 2.3164 0.53906" fill="#211e1e"/><path d="m354.07 0h-238v19.578h238z" fill="#fff"/><path d="m224.52 301.24-0.58985 1.6016-0.59375 1.6016-3.2031-1.1797-1.0938 2.9688 4.6875 1.7305 4.6914 1.7305 0.54688-1.4844 0.55078-1.4844-1.6016-0.58985-1.6055-0.59375 0.58984-1.6016 0.59375-1.6016-1.4883-0.55078z" fill="#211e1e"/><path d="m390.57 619.21h-288v-46.441h288z" fill="#fff"/></g><g fill="#211e1e"><g><path d="m208.08 465.99v-10.664h2.6172l-4.3281-7.3477-4.0234 7.3477h2.4141v10.664z"/><path d="m181.5 447.98v10.664h-2.6133l4.3242 7.3477 4.0234-7.3477h-2.4141v-10.664z"/><path d="m208.41 112.21v-10.664h2.6172l-4.3281-7.3477-4.0195 7.3477h2.4141v10.664z"/><path d="m182.58 94.199v10.664h-2.6172l4.3281 7.3477 4.0234-7.3477h-2.4141v-10.664z"/><path d="m152.85 438-1.3945 10.57-2.5898-0.34375 3.3281 7.8516 4.9492-6.7578-2.3945-0.3125 1.3945-10.574z"/><path d="m326.01 460.2-1.3984-10.57-2.5898 0.33985 3.3281-7.8477 4.9492 6.7578-2.3945 0.3125 1.3945 10.57z"/></g><g transform="translate(-85.513 -107.63)"><use x="204.79111" y="347.25201" width="100%" height="100%" xlink:href="#am"/><use x="209.7951" y="347.25201" width="100%" height="100%" xlink:href="#ak"/><use x="214.7991" y="347.25201" width="100%" height="100%" xlink:href="#cb"/><use x="219.8031" y="347.25201" width="100%" height="100%" xlink:href="#h"/><use x="222.3051" y="347.25201" width="100%" height="100%" xlink:href="#af"/><use x="224.8071" y="347.25201" width="100%" height="100%" xlink:href="#m"/></g></g><path d="m398.05 463.87c-8.5898 6.3828-34.219 5.6367-34.359-7.4922" fill="none" stroke="#211e1e" stroke-width=".75"/><path d="m363.14 455.14c-0.25391 0.8711-0.48828 1.4375-0.76172 2.1367l2.6484-0.0312c-0.1211-0.24609-0.53516-1.2539-0.80469-2.1211-0.29297-0.92188-0.49219-1.7617-0.56641-2.3086-0.0625 0.54688-0.24609 1.3906-0.51562 2.3242" fill="#211e1e"/><path d="m400.27 538.38c-7.0195 5.8242-28.91 4.8984-28.684-9.4141" fill="none" stroke="#211e1e" stroke-width=".75"/><path d="m371.07 527.71c-0.27735 0.86328-0.52735 1.4258-0.81641 2.1172l2.6445 0.0391c-0.11328-0.25-0.5-1.2656-0.75-2.1367-0.26562-0.93359-0.4414-1.7812-0.5039-2.3281-0.0742 0.54296-0.28125 1.3828-0.57422 2.3086" fill="#211e1e"/><path d="m317.46 408.04h49.332" fill="none" stroke="#211e1e" stroke-width=".75"/><path d="m317.46 391.04h49.332" fill="none" stroke="#211e1e" stroke-width=".75"/><g transform="translate(-85.513 -107.63)" fill="#211e1e"><use x="436.6904" y="510.5791" width="100%" height="100%" xlink:href="#am"/><use x="441.6944" y="510.5791" width="100%" height="100%" xlink:href="#ak"/><use x="446.69839" y="510.5791" width="100%" height="100%" xlink:href="#ca"/><use x="449.6954" y="510.5791" width="100%" height="100%" xlink:href="#af"/><use x="451.9292" y="510.5791" width="100%" height="100%" xlink:href="#k"/><use x="456.9332" y="510.5791" width="100%" height="100%" xlink:href="#k"/><use x="461.93719" y="510.5791" width="100%" height="100%" xlink:href="#m"/><use x="464.43921" y="510.5791" width="100%" height="100%" xlink:href="#h"/><use x="466.94119" y="510.5791" width="100%" height="100%" xlink:href="#bz"/><use x="471.44119" y="510.5791" width="100%" height="100%" xlink:href="#t"/><use x="476.44519" y="510.5791" width="100%" height="100%" xlink:href="#s"/><use x="481.44919" y="510.5791" width="100%" height="100%" xlink:href="#cf"/><use x="485.94919" y="510.5791" width="100%" height="100%" xlink:href="#i"/><use x="487.9472" y="510.5791" width="100%" height="100%" xlink:href="#q"/><use x="492.9512" y="510.5791" width="100%" height="100%" xlink:href="#p"/></g><path d="m357.8 417.28v-5.3125" fill="none" stroke="#211e1e" stroke-width=".75"/><path d="m357.26 410.73c-0.26172 0.86719-0.50391 1.4336-0.78125 2.1289h2.6484c-0.1211-0.25-0.52344-1.2617-0.78516-2.1289-0.27734-0.92968-0.47265-1.7695-0.53906-2.3164-0.0703 0.54687-0.26172 1.3867-0.54297 2.3164" fill="#211e1e"/><path d="m357.8 382.6v4.5" fill="none" stroke="#211e1e" stroke-width=".75"/><path d="m358.33 388.34c0.26171-0.86719 0.5039-1.4297 0.78125-2.1289h-2.6484c0.12109 0.25 0.52344 1.2617 0.78515 2.1289 0.27735 0.92968 0.47266 1.7734 0.53907 2.3203 0.0703-0.54688 0.26172-1.3906 0.54297-2.3203" fill="#211e1e"/><path d="m359.21 184.06h45.91c1.8008 0 3.2773 1.4766 3.2773 3.2774v26.238c0 1.8008-1.4766 3.2773-3.2773 3.2773h-45.91c-1.8047 0-3.2773-1.4766-3.2773-3.2773v-26.238c0-1.8008 1.4726-3.2774 3.2773-3.2774" fill="#fff"/><path d="m359.21 184.06h45.91c1.8008 0 3.2773 1.4766 3.2773 3.2774v26.238c0 1.8008-1.4766 3.2773-3.2773 3.2773h-45.91c-1.8047 0-3.2773-1.4766-3.2773-3.2773v-26.238c0-1.8008 1.4726-3.2774 3.2773-3.2774z" fill="none" stroke="#211e1e" stroke-width=".25"/><g><g fill-rule="evenodd"><path d="m359.21 184.88h45.91c1.3516 0 2.457 1.1055 2.457 2.457v26.238c0 1.3516-1.1055 2.457-2.457 2.457h-45.91c-1.3516 0-2.4609-1.1055-2.4609-2.457v-26.238c0-1.3516 1.1094-2.457 2.4609-2.457" fill="#211e1e"/><path d="m359.21 186.25h45.91c0.60156 0 1.0938 0.48828 1.0938 1.0898v26.238c0 0.60156-0.49219 1.0898-1.0938 1.0898h-45.91c-0.60156 0-1.0938-0.48828-1.0938-1.0898v-26.238c0-0.60157 0.49219-1.0898 1.0938-1.0898" fill="#fff"/><path d="m395.23 193.88c0 1.1641-0.27735 2.1133-0.80078 2.6367-0.24219 0.2461-0.51954 0.33594-0.97657 0.33594h-1.3789v-5.9492h1.5586c0.37109 0 0.67578 0.15625 0.89063 0.3711 0.42968 0.46093 0.70703 1.4375 0.70703 2.6055m1.4102 0c0-1.7188-0.51953-3.0976-1.4414-3.8945-0.46094-0.36718-0.79688-0.46093-1.6875-0.46093h-2.8203v8.7422h3.1562c0.46094-0.0312 0.92188-0.1875 1.2578-0.49218 0.98437-0.76563 1.5352-2.1484 1.5352-3.8945m-10.02 0.52344h-1.75l0.89063-2.457zm2.8203 3.8633-3.0039-8.7422h-1.3828l-3.0039 8.7422h1.4727l0.85937-2.4531h2.7266l0.85938 2.4531zm-9.8359-4.3555c0 0.67579-0.15235 1.5312-0.33985 1.9922-0.30468 0.76563-0.70312 1.1055-1.3476 1.1055-0.55078 0-0.91797-0.21875-1.1953-0.67578-0.33593-0.55078-0.51953-1.5039-0.51953-2.4219 0-0.73437 0.1211-1.5352 0.33594-2.0547 0.30469-0.76563 0.73438-1.1055 1.4102-1.0742 0.51953 0.0312 0.85937 0.21484 1.1328 0.67578 0.33594 0.58203 0.52344 1.4727 0.52344 2.4531m1.3789 0c0-1.1055-0.21484-2.207-0.58203-2.9726-0.55078-1.0781-1.3203-1.5664-2.4258-1.5664-1.0078 0-1.7148 0.3086-2.2344 0.98438-0.58204 0.82812-0.94922 2.1133-0.94922 3.5547 0 1.043 0.24609 2.207 0.60937 2.9414 0.52344 1.0781 1.2891 1.5703 2.5156 1.5703 0.91797 0 1.625-0.3125 2.1172-0.98437 0.60938-0.76953 0.94922-2.1484 0.94922-3.5274m-8.9453-1.9336c0 0.37109-0.21484 0.73438-0.55078 0.92188-0.21875 0.12109-0.37109 0.15234-0.80078 0.15234h-1.6524v-2.1484h1.6524c0.46094 0 0.58203 0.0352 0.80078 0.15625 0.33594 0.1836 0.55078 0.55078 0.55078 0.91797m1.5625 6.2891-1.5312-4.0781c0.79688-0.3711 1.3477-1.2891 1.3477-2.2109 0-0.88672-0.55078-1.8086-1.3203-2.1758-0.42968-0.21484-0.89062-0.27734-1.5625-0.27734h-2.8789v8.7422h1.3789v-3.8047h1.6524l1.4102 3.8047z" fill="#211e1e"/><path d="m401.45 207c0 1.1641-0.27735 2.1133-0.79688 2.6367-0.24609 0.24609-0.51953 0.33984-0.98047 0.33984h-1.3789v-5.9531h1.5625c0.36718 0 0.67578 0.15625 0.89062 0.37109 0.42578 0.45703 0.70313 1.4414 0.70313 2.6055m1.4102 0c0-1.7188-0.51953-3.0976-1.4414-3.8945-0.45703-0.36719-0.79688-0.46094-1.6836-0.46094h-2.8203v8.7422h3.1562c0.46094-0.0312 0.91797-0.1875 1.2578-0.49219 0.98047-0.76562 1.5312-2.1445 1.5312-3.8945m-7.2734 4.3867v-1.4102h-4.0469v-2.3945h2.543v-1.4102h-2.543v-2.1484h3.7695v-1.3789h-5.1523v8.7422zm-6.7539-2.5156c0-3.4336-4.1094-2.3594-4.2344-3.9883-0.0586-0.79296 0.70704-1.0391 1.3516-1.0117 0.98047 0.0312 1.2852 0.76953 1.2852 0.76953l1.2266-0.3711c-0.42579-1.0703-1.2539-1.7773-2.4805-1.7773-1.5664 0-2.7305 0.64453-2.7305 2.3594 0 1.4414 1.1641 1.9609 1.6836 2.1797 1.1367 0.45703 2.4883 0.64453 2.4883 1.8086 0 0.73437-0.55078 1.2891-1.3516 1.2891-0.82812 0-1.5039-0.46094-1.8711-1.2891l-1.3164 0.49218c0.58203 1.3164 1.6836 2.2109 3.1875 2.2109 0.73828 0 1.4102-0.25 1.9023-0.67969 0.55079-0.49218 0.85938-1.1953 0.85938-1.9922m-8.5039-1.8398c0 0.67188-0.15234 1.5312-0.33593 1.9922-0.3086 0.76562-0.70704 1.1055-1.3516 1.1055-0.55078 0-0.91797-0.21485-1.1953-0.67578-0.33594-0.55469-0.51953-1.5039-0.51953-2.4219 0-0.73828 0.12109-1.5312 0.33594-2.0547 0.30859-0.76562 0.73828-1.1055 1.4102-1.0742 0.52344 0.0312 0.85938 0.21484 1.1328 0.67578 0.33984 0.58203 0.52343 1.4726 0.52343 2.4531m1.3789 0c0-1.1055-0.21094-2.207-0.58203-2.9766-0.55078-1.0742-1.3203-1.5625-2.4219-1.5625-1.0117 0-1.7148 0.30469-2.2383 0.98047-0.58203 0.82812-0.94922 2.1172-0.94922 3.5586 0 1.043 0.2461 2.207 0.61328 2.9453 0.51954 1.0703 1.2852 1.5664 2.5117 1.5664 0.92188 0 1.625-0.3125 2.1172-0.98437 0.61328-0.76954 0.94922-2.1484 0.94922-3.5274m-7.1836 4.3555v-1.2891h-4.0469v-7.4531h-1.3789v8.7422zm-7.2148-1.7812-1.3164-0.49219c-0.33985 0.70703-0.76563 1.0156-1.3477 1.0156-0.61328 0-1.0156-0.21485-1.3203-0.67578-0.33985-0.55469-0.55078-1.5039-0.55078-2.4531 0-0.73437 0.12109-1.5 0.33593-2.0234 0.30469-0.76562 0.76563-1.0742 1.4727-1.0742 0.67578 0 0.94922 0.1875 1.4414 0.92187l1.2852-0.55469c-0.58203-1.2266-1.4102-1.7773-2.7266-1.7773-0.98438 0-1.7188 0.33594-2.2383 0.98047-0.61328 0.76562-0.98047 2.1445-0.98047 3.5273 0 1.1055 0.24219 2.207 0.64453 2.9766 0.55078 1.0703 1.3789 1.5664 2.668 1.5664 1.2539 0 2.1133-0.64844 2.6328-1.9375" fill="#211e1e"/></g><path d="m47.761 336.04h36.902c0.66406 0 1.3203-0.28125 1.7891-0.74609 0.46094-0.45312 0.73438-1.0742 0.73438-1.7188v-37.043c0-0.63672-0.27735-1.2539-0.72656-1.6992-0.47266-0.47265-1.1289-0.74609-1.7969-0.74609h-36.883c-0.70313 0-1.3984 0.26953-1.8906 0.76562-0.42187 0.42579-0.65234 0.98829-0.65234 1.582v37.141c0 0.63281 0.26172 1.2461 0.71094 1.6953 0.47265 0.48047 1.1328 0.76953 1.8125 0.76953" fill="#fff"/></g><path d="m47.761 336.04h36.902c0.66406 0 1.3203-0.28125 1.7891-0.74609 0.46094-0.45312 0.73438-1.0742 0.73438-1.7188v-37.043c0-0.63672-0.27735-1.2539-0.72656-1.6992-0.47266-0.47265-1.1289-0.74609-1.7969-0.74609h-36.883c-0.70313 0-1.3984 0.26953-1.8906 0.76562-0.42187 0.42579-0.65234 0.98829-0.65234 1.582v37.141c0 0.63281 0.26172 1.2461 0.71094 1.6953 0.47265 0.48047 1.1328 0.76953 1.8125 0.76953z" fill="none" stroke="#211e1e" stroke-width=".25"/><path d="m86.487 315.06c0.0156 0.53125-4e-3 1.0625-0.0547 1.5938-0.13672 1.4024-0.35547 2.8047-0.76562 4.1562-1.3633 4.5195-4.3125 8.5195-8.2383 11.137-3.3125 2.2031-7.2422 3.3867-11.219 3.3867-3.9727 0-7.9024-1.1797-11.211-3.3789-3.3711-2.2461-6.043-5.4844-7.5703-9.2344-1.4883-3.6524-1.8672-7.7188-1.1172-11.586 0.76953-3.9336 2.7266-7.582 5.5586-10.418 2.8359-2.8281 6.4883-4.7852 10.422-5.5547 3.8672-0.7539 7.9336-0.375 11.578 1.1172 3.8086 1.5586 7.1055 4.3047 9.3789 7.7266 1.4336 2.1484 2.3086 4.625 2.8047 7.1484 0.25 1.2891 0.39843 2.5938 0.43359 3.9062" fill="#bf2317" fill-rule="evenodd"/><g fill="#fff" fill-rule="evenodd"><path d="m69.706 332.19v-34.262c-0.72266-0.13672-1.4414-0.24609-2.1758-0.30078-0.87891-0.0703-1.7656-0.0703-2.6445 0-0.73047 0.0508-1.4492 0.16406-2.168 0.30078v34.262c0.72656 0.13672 1.457 0.24219 2.1914 0.30078 0.86329 0.0703 1.7344 0.0703 2.5977 0 0.73828-0.0586 1.4688-0.16406 2.1992-0.30078"/><path d="m78.628 322.73c0-0.39063-0.0898-0.79688-0.33203-1.1094-0.4375-0.55859-1.2031-0.77734-1.875-0.8789-0.53125-0.0781-1.0742-0.0781-1.6055 0-0.80468 0.12109-1.8438 0.45312-2.1055 1.332-0.23438 0.78906-0.0703 1.6875 0.66015 2.1484 0.65625 0.41407 1.4844 0.55469 2.25 0.55469 0.75391 0 1.5977-0.14453 2.2422-0.55078 0.53906-0.33984 0.76562-0.87109 0.76562-1.4961"/><path d="m78.628 308.11c0-0.38672-0.0898-0.79297-0.33203-1.1055-0.4375-0.5625-1.2031-0.78125-1.875-0.88281-0.53125-0.082-1.0742-0.082-1.6055 0-0.80468 0.12109-1.8438 0.45312-2.1055 1.332-0.23438 0.79297-0.0703 1.6875 0.66015 2.1523 0.65625 0.41406 1.4844 0.55469 2.25 0.55469 0.78125-4e-3 1.6211-0.15235 2.2891-0.57813 0.49219-0.30859 0.71875-0.91015 0.71875-1.4726"/><path d="m59.784 309.18v-0.89844h-5.8086v0.91016h3.9102l-3.9102 2.1953v0.80859h5.8242v-0.91406h-3.7773z"/><path d="m53.976 326.48 2.6992-1.0312c0.15234 0.29297 0.30859 0.49609 0.59766 0.68359 0.53906 0.34766 1.2617 0.34375 1.7969-0.0117 0.45313-0.30469 0.73047-0.82031 0.73047-1.3672v-2.1836h-5.8242v0.91016h2.5508v1.043l-2.5508 0.98046z"/><path d="m78.534 301.08h-5.8242v1.7539c0 0.26953-8e-3 0.51172 0.0898 0.76953 0.3125 0.82422 1.2305 1.1992 2.0352 1.3281 0.76171 0.125 1.5586 0.0703 2.293-0.16797 0.51172-0.17187 1.082-0.52344 1.293-1.0508 0.11328-0.28125 0.11328-0.48047 0.11328-0.76172z"/><path d="m78.519 316.33v-0.89453h-5.8125v0.91016h3.9102l-3.9102 2.1914v0.8086h5.8242v-0.91016h-3.7734z"/><path d="m77.616 328.13v1.3203h0.91796v-3.5469h-0.91796v1.3125h-4.9062v0.91406z"/><path d="m58.886 315.52v1.3203h0.91406v-3.5469h-0.91406v1.3164h-4.9102v0.91016z"/><path d="m53.976 303.64v3.5469h0.91016v-2.6367h1.6406v1.875h0.90625v-1.875h1.4531v2.4531h0.91406v-3.3633z"/><path d="m53.976 317.93v3.5469h0.91016v-2.6406h1.6406v1.875h0.90625v-1.875h1.4531v2.457h0.91406v-3.3633z"/></g><g fill="#bf2317" fill-rule="evenodd"><path d="m77.718 308.11c0 0.60547-0.48047 0.8789-1.0117 1.0117-0.71484 0.17187-1.4609 0.17187-2.1719 0-0.35546-0.0899-0.80468-0.27344-0.94531-0.64454-0.18359-0.5-4e-3 -0.96093 0.46875-1.1992 0.47266-0.23829 1.0391-0.3086 1.5625-0.3086s1.0938 0.0703 1.5703 0.3086c0.33204 0.16796 0.52735 0.45703 0.52735 0.83203"/><path d="m77.718 322.73c0 0.60547-0.48047 0.8789-1.0117 1.0078-0.71484 0.17578-1.4648 0.17578-2.1719 0-0.35546-0.0859-0.80468-0.26953-0.94531-0.64453-0.18359-0.4961-4e-3 -0.95703 0.46875-1.1953 0.47266-0.23829 1.0391-0.3086 1.5625-0.3086s1.0938 0.0703 1.5703 0.3086c0.33204 0.16796 0.52735 0.45312 0.52735 0.83203"/><path d="m73.64 301.99h3.9648v1.0469c0 0.35937-0.19532 0.61328-0.51172 0.76953-0.76563 0.37109-2.1641 0.38672-2.918-0.0234-0.36328-0.19922-0.53516-0.44922-0.53516-0.86328z"/><path d="m57.433 323.48h1.4609l-8e-3 1.2734c-4e-3 0.24219-0.11719 0.46875-0.32032 0.60547-0.23828 0.15625-0.5664 0.15625-0.80468 0-0.19922-0.13281-0.32813-0.36328-0.32813-0.60547z"/></g><path d="m394.32 525.87 22.926-22.926c0.96875-0.96875 2.5508-0.96875 3.5156 0l22.926 22.926c0.96485 0.96875 0.96485 2.5469 0 3.5156l-22.926 22.922c-0.96484 0.96875-2.5469 0.96875-3.5156 0l-22.926-22.922c-0.96484-0.96875-0.96484-2.5469 0-3.5156" fill="#f58511"/><path d="m394.32 525.87 22.926-22.926c0.96875-0.96875 2.5508-0.96875 3.5156 0l22.926 22.926c0.96485 0.96875 0.96485 2.5469 0 3.5156l-22.926 22.922c-0.96484 0.96875-2.5469 0.96875-3.5156 0l-22.926-22.922c-0.96484-0.96875-0.96484-2.5469 0-3.5156z" fill="none" stroke="#211e1e" stroke-miterlimit="2.613" stroke-width=".25"/><path d="m394.98 526.09 22.477-22.477c0.84766-0.84375 2.2344-0.84375 3.0859 0l22.473 22.477c0.85157 0.84766 0.85157 2.2383 0 3.0859l-22.473 22.477c-0.85157 0.84375-2.2383 0.84375-3.0859 0l-22.477-22.477c-0.84766-0.84766-0.84766-2.2383 0-3.0859" fill="#211e1e" fill-rule="evenodd"/><path d="m395.86 526.68 22.188-22.188c0.52344-0.52343 1.3789-0.52343 1.9062 0l22.188 22.188c0.51953 0.52344 0.51953 1.3789 0 1.8984l-22.188 22.191c-0.52734 0.52343-1.3828 0.52343-1.9062 0l-22.188-22.191c-0.52343-0.51953-0.52343-1.375 0-1.8984" fill="#f58511" fill-rule="evenodd"/><g fill="#211e1e"><path d="m413.97 528.6h-0.76172l-0.85547-3.4844-0.83984 3.4844h-0.76172l-0.80078-5.4297h0.875l0.42187 2.8594 0.6836-2.8594h0.83984l0.70703 2.8594 0.41797-2.8594h0.875z"/><path d="m419.11 525.9c0-0.6875-0.13281-1.3711-0.35938-1.8516-0.34375-0.66407-0.82031-0.96875-1.5078-0.96875-0.6289 0-1.0664 0.1875-1.3906 0.60937-0.35938 0.51563-0.58985 1.3125-0.58985 2.2109 0 0.64844 0.15235 1.3711 0.37891 1.8281 0.32422 0.66797 0.80469 0.97266 1.5664 0.97266 0.57031 0 1.0078-0.19141 1.3125-0.60937 0.38281-0.47657 0.58984-1.3359 0.58984-2.1914m-0.85547 0c0 0.41797-0.0937 0.95312-0.21094 1.2383-0.1914 0.47656-0.4375 0.6875-0.83593 0.6875-0.34375 0-0.57422-0.13672-0.7461-0.42187-0.20703-0.34375-0.32422-0.9336-0.32422-1.5039 0-0.45703 0.0781-0.95313 0.21094-1.2773 0.19141-0.47657 0.45703-0.6875 0.875-0.66797 0.32422 0.0195 0.53516 0.13281 0.70703 0.42187 0.20703 0.35938 0.32422 0.91406 0.32422 1.5234"/><path d="m423.82 528.6-0.95312-2.5312c0.49609-0.23046 0.83984-0.80078 0.83984-1.3711 0-0.55469-0.34375-1.125-0.82031-1.3555-0.26563-0.13281-0.55078-0.17187-0.96875-0.17187h-1.793v5.4297h0.85547v-2.3594h1.0312l0.875 2.3594zm-0.97266-3.9023c0 0.22656-0.13281 0.45703-0.33984 0.57031-0.13281 0.0742-0.23047 0.0937-0.49609 0.0937h-1.0312v-1.332h1.0312c0.28515 0 0.36328 0.0156 0.49609 0.0937 0.20703 0.11328 0.33984 0.34375 0.33984 0.57422"/><path d="m427.35 528.6-1.3711-2.5703-0.57422 0.70703v1.8633h-0.85937v-5.4297h0.85937v2.1562l1.7148-2.1562h1.1055l-1.6758 2.1172 1.7891 3.3125z"/><path d="m412.33 537.64-1.8672-5.4297h-0.85937l-1.8672 5.4297h0.91406l0.53516-1.5234h1.6953l0.53516 1.5234zm-1.7539-2.4023h-1.0859l0.55078-1.5234z"/><path d="m415.8 537.64v-2.3633h-1.9805v2.3633h-0.85546v-5.4297h0.85546v2.1914h1.9805v-2.1914h0.85938v5.4297z"/><path d="m417.76 537.64v-5.4297h3.1992v0.85546h-2.3438v1.3359h1.582v0.875h-1.582v1.4844h2.5156v0.8789z"/><path d="m425.97 537.64-1.8633-5.4297h-0.85937l-1.8672 5.4297h0.91406l0.53125-1.5234h1.6992l0.53125 1.5234zm-1.75-2.4023h-1.0898l0.55469-1.5234z"/><path d="m430.3 534.92c0-1.0664-0.32422-1.9219-0.89844-2.418-0.28515-0.23047-0.49219-0.28515-1.0469-0.28515h-1.7539v5.4297h1.9648c0.28516-0.0195 0.57032-0.11328 0.78125-0.30468 0.60938-0.47657 0.95313-1.332 0.95313-2.4219m-0.87891 0c0 0.72656-0.17187 1.3164-0.49218 1.6406-0.15235 0.15234-0.32422 0.21093-0.60938 0.21093h-0.85937v-3.6992h0.97265c0.22656 0 0.41797 0.0937 0.55078 0.23047 0.26563 0.28516 0.4375 0.89453 0.4375 1.6172"/><path d="m412.75 515.36c-0.13672-0.0742-0.21094-0.0937-0.4961-0.0937h-1.0312v1.3359h1.0312c0.26563 0 0.35938-0.0195 0.4961-0.0977 0.20703-0.11328 0.33984-0.33985 0.33984-0.57031 0-0.22657-0.13281-0.45704-0.33984-0.57422m0.3789 4.4805-0.875-2.3633h-1.0312v2.3633h-0.85546v-5.4297h1.7891c0.41797 0 0.70703 0.0391 0.97265 0.17187 0.47657 0.22657 0.82032 0.80078 0.82032 1.3516 0 0.57031-0.34375 1.1445-0.83985 1.3711l0.95313 2.5352z"/><path d="m418.52 517.13c0-0.68359-0.13281-1.3711-0.35938-1.8476-0.34375-0.66797-0.82031-0.97266-1.5039-0.97266-0.62891 0-1.0703 0.19141-1.3945 0.60938-0.35938 0.51562-0.58985 1.3164-0.58985 2.2109 0 0.64844 0.15235 1.3711 0.38282 1.8281 0.32421 0.66797 0.79687 0.97656 1.5625 0.97656 0.57031 0 1.0078-0.19531 1.3125-0.61328 0.38281-0.47656 0.58984-1.332 0.58984-2.1914m-0.85547 0c0 0.42188-0.0937 0.95313-0.20703 1.2383-0.19531 0.47656-0.44141 0.6875-0.83984 0.6875-0.34375 0-0.57422-0.13282-0.74219-0.41797-0.21094-0.34375-0.32813-0.9336-0.32813-1.5078 0-0.45703 0.0781-0.95312 0.21094-1.2734 0.19141-0.48047 0.45703-0.6875 0.875-0.66797 0.32813 0.0156 0.53516 0.13281 0.70703 0.41797 0.21094 0.36328 0.32422 0.91406 0.32422 1.5234"/><path d="m423.65 519.84-1.8672-5.4297h-0.85938l-1.8672 5.4297h0.91406l0.53515-1.5234h1.6953l0.53515 1.5234zm-1.7539-2.4024h-1.0859l0.55078-1.5234z"/><path d="m427.97 517.11c0-1.0664-0.32421-1.9219-0.89453-2.418-0.28906-0.23046-0.49609-0.28515-1.0469-0.28515h-1.7539v5.4297h1.9609c0.28516-0.0195 0.57422-0.11329 0.78125-0.30469 0.60937-0.47656 0.95312-1.332 0.95312-2.4219m-0.875 0c0 0.72657-0.17187 1.3164-0.49609 1.6406-0.15234 0.15234-0.32422 0.21094-0.60937 0.21094h-0.85938v-3.6992h0.97266c0.22656 0 0.41797 0.0937 0.55468 0.23047 0.26563 0.28515 0.4375 0.89453 0.4375 1.6172"/></g><path d="m359.1 218.99h45.914c1.8008 0 3.2773 1.4727 3.2773 3.2774v19.605c0 1.8008-1.4766 3.2773-3.2773 3.2773h-45.914c-1.8008 0-3.2773-1.4766-3.2773-3.2773v-19.605c0-1.8047 1.4766-3.2774 3.2773-3.2774" fill="#f58511"/><path d="m359.1 218.99h45.914c1.8008 0 3.2773 1.4727 3.2773 3.2774v19.605c0 1.8008-1.4766 3.2773-3.2773 3.2773h-45.914c-1.8008 0-3.2773-1.4766-3.2773-3.2773v-19.605c0-1.8047 1.4766-3.2774 3.2773-3.2774z" fill="none" stroke="#211e1e" stroke-width=".25"/><g fill-rule="evenodd"><path d="m359.1 219.81h45.914c1.3516 0 2.457 1.1016 2.457 2.457v19.602c0 1.3555-1.1055 2.4609-2.457 2.4609h-45.914c-1.3516 0-2.457-1.1055-2.457-2.4609v-19.602c0-1.3555 1.1055-2.457 2.457-2.457" fill="#211e1e"/><path d="m359.1 221.18h45.914c0.59765 0 1.0898 0.48828 1.0898 1.0898v19.605c0 0.60156-0.49219 1.0898-1.0898 1.0898h-45.914c-0.60156 0-1.0898-0.48828-1.0898-1.0898v-19.605c0-0.60157 0.48828-1.0898 1.0898-1.0898" fill="#f58511"/><path d="m403.07 235.71h-27.914l1.3672 4.3203c0.043 0.14062 0.0742 0.28125 0.0781 0.42578 0.0156 0.68359-0.51562 1.3047-1.1797 1.4336-0.39063 0.0742-0.78907-8e-3 -1.1172-0.23047l-13.949-9.6016 13.934-9.5781c0.25-0.17188 0.53516-0.27344 0.83594-0.27735 0.67969-4e-3 1.3008 0.5 1.4297 1.168 0.0469 0.24219 0.043 0.48438-0.0312 0.71875l-1.3672 4.3203h27.914z" fill="#211e1e"/></g><path d="m393.57 316.34 22.355-38.816c0.1875-0.32813 0.32032-0.65235 0.35938-1.0312 0.0547-0.53516 0-1.0938-0.19141-1.5898-0.44922-1.1484-1.6289-1.9102-2.8516-1.9102l-44.562 0.0234c-0.81641 0-1.5898 0.32031-2.168 0.89843-0.63281 0.63282-0.94922 1.4961-0.89062 2.3867 0.0273 0.46094 0.18359 0.89453 0.41406 1.2891l22.359 38.73c0.52344 0.90234 1.5742 1.4258 2.6016 1.4258 0.51171 0 1.0156-0.12109 1.4688-0.36719 0.4414-0.24609 0.85156-0.59765 1.1055-1.0391z" fill="none" stroke="#211e1e" stroke-miterlimit="2.613" stroke-width=".25"/><path d="m392.58 315.77c-0.17188 0.26563-0.35547 0.4336-0.63282 0.59375-0.49609 0.28516-1.1367 0.3086-1.668 0.11328-0.37109-0.13281-0.69531-0.38671-0.89453-0.72656l-22.375-38.734c-0.23047-0.39844-0.30859-0.85547-0.22265-1.3125 0.16797-0.8711 1-1.5352 1.8828-1.5352l44.562-0.0234c0.91797 0 1.707 0.64063 1.8828 1.543 0.0859 0.44922 0.0274 0.875-0.19922 1.2656z" fill="#bf2317" fill-rule="evenodd"/><path d="m401.61 284.72c0.0977-0.17188 0.17969-0.35547 0.24219-0.54688 0.16797-0.53906 0.0586-1.0625-0.26172-1.5312-0.35156-0.51562-0.94922-0.82812-1.5742-0.82812l-18.035 0.0117c-0.87891 0-1.7031 0.625-1.875 1.5039-0.0859 0.45703-0.0352 0.90625 0.19922 1.3086l9.0039 15.629c0.35547 0.61719 0.9336 1.0039 1.6602 1 0.58594 0 1.2461-0.28906 1.5508-0.8125z" fill="#fff" fill-rule="evenodd"/><g fill="#bf2317" fill-rule="evenodd"><path d="m385.37 285.28-0.73438-1.6445h-0.71484l1.1211 2.5156v2.1289h0.65625v-2.1289l1.125-2.5156h-0.71484z"/><path d="m389.89 286.11h0.98437v-0.65234h-0.98437v-1.1602h1.5976v-0.65625h-2.25v4.6445h2.3242v-0.64844h-1.6719z"/><path d="m393 283.64h-0.65234v4.6445h2.3242v-0.61328h-1.6719z"/><path d="m397.21 287.12c-0.0742 0.30078-0.33594 0.51562-0.65235 0.51562h-0.45703v-3.3398h0.47656c0.28516 0 0.54688 0.19141 0.6211 0.46875 0.10937 0.37891 0.13672 0.80469 0.13672 1.1992 0 0.38281-0.0274 0.77734-0.125 1.1562m0.6914-2.1953c-0.0664-0.38282-0.19531-0.75-0.51172-1-0.23047-0.1836-0.51953-0.28516-0.8125-0.28516h-1.125v4.6445h1.125c0.31641-0.0195 0.5625-0.082 0.82032-0.28515 0.42968-0.34375 0.5039-0.86329 0.5625-1.3711 0.0625-0.5664 0.0391-1.1406-0.0586-1.7031"/><path d="m387.6 288.28h0.64843v-4.6445h-0.64843z"/></g><g><path d="m66.741 259.59h-46.094c-1.8125 0-3.293 1.4766-3.293 3.2891v10.977c0 1.8125 1.4805 3.293 3.293 3.293h46.094c1.8125 0 3.2891-1.4805 3.2891-3.293v-10.977c0-1.7891-1.5-3.2891-3.2891-3.2891" fill="#fff" stroke="#211e1e" stroke-width=".25"/><g fill-rule="evenodd"><path d="m66.73 260.32h-46.074c-1.4023 8e-3 -2.5625 1.1641-2.5664 2.5703v10.957c4e-3 1.4023 1.1641 2.5625 2.5664 2.5664h46.074c1.4062-4e-3 2.5664-1.1641 2.5703-2.5664v-10.957c-4e-3 -1.4062-1.1641-2.5625-2.5703-2.5703" fill="#211e1e"/><path d="m30.937 275.56-10.648-7.1992 10.648-7.2148c0.46875-0.32031 1.1133-0.19922 1.4297 0.27344 0.21484 0.3125 0.17578 0.63672 0.0781 1.0234l-0.61719 2.0898h33.816v7.6562h-33.816l0.59375 2.0312c0.11719 0.42578 0.16797 0.74219-0.0547 1.0703-0.31641 0.46875-0.96094 0.58984-1.4297 0.26953" fill="#fff"/><path d="m46.823 271.36v-0.94531h-2.707v-1.6016h1.7031v-0.94531h-1.7031v-1.4336h2.5234v-0.92578h-3.4492v5.8516zm-4.5234 0v-5.8516h-0.92187v3.7383l-2.1367-3.7383h-0.92188v5.8516h0.92188v-3.9609l2.2383 3.9609zm-5.6953-2.9141c0 0.44922-0.10156 1.0273-0.22656 1.332-0.20313 0.51172-0.47266 0.73828-0.90235 0.73828-0.36719 0-0.61328-0.14453-0.80078-0.45312-0.22266-0.36719-0.34766-1.0039-0.34766-1.6172 0-0.49609 0.082-1.0273 0.22657-1.3789 0.20312-0.51171 0.49218-0.73828 0.9414-0.71875 0.35157 0.0234 0.57813 0.14454 0.76172 0.45313 0.22656 0.39062 0.34766 0.98437 0.34766 1.6445m0.92578 0c0-0.74219-0.14453-1.4805-0.39063-1.9922-0.37109-0.71875-0.88281-1.0469-1.6211-1.0469-0.67969 0-1.1484 0.20312-1.5 0.65625-0.39062 0.55469-0.63672 1.4141-0.63672 2.3828 0 0.69531 0.16406 1.4766 0.41016 1.9688 0.35156 0.71875 0.86328 1.0469 1.6836 1.0469 0.61719 0 1.0898-0.20704 1.418-0.65625 0.41016-0.51563 0.63672-1.4375 0.63672-2.3594" fill="#211e1e"/><path d="m63.874 265.51h-1.0898l-1.4141 2.2578-1.3945-2.2578h-1.1094l2.0508 3.3047v2.5469h0.92578v-2.5469zm-5.9336 3.2656h-1.1719l0.59766-1.6445zm1.8906 2.5859-2.0117-5.8516h-0.92578l-2.0117 5.8516h0.98828l0.57422-1.6445h1.8242l0.57812 1.6445zm-4.8867-5.8516h-0.94531l-0.44922 3.0781-0.75781-3.0781h-0.90625l-0.73828 3.0781-0.44922-3.0781h-0.94532l0.86329 5.8516h0.82031l0.90234-3.7578 0.92188 3.7578h0.82422z" fill="#211e1e"/></g><path d="m419.6 478.22 23.02-23.02c0.43359-0.43359 0.68359-1.0312 0.68359-1.6406 0-0.61329-0.25-1.2148-0.68359-1.6445l-23.02-23.02c-0.4375-0.4375-1.0274-0.68359-1.6445-0.68359-0.61329 0-1.2109 0.24609-1.6445 0.68359l-23.02 23.02c-0.42968 0.42579-0.67968 1.0352-0.67968 1.6445 0 0.60546 0.25 1.2148 0.67968 1.6406l23.02 23.02c0.5586 0.5625 1.3984 0.79688 2.168 0.625 0.44141-0.0976 0.76953-0.34375 1.1211-0.625" fill="#f58511"/></g><path d="m419.6 478.22 23.02-23.02c0.43359-0.43359 0.68359-1.0312 0.68359-1.6406 0-0.61329-0.25-1.2148-0.68359-1.6445l-23.02-23.02c-0.4375-0.4375-1.0274-0.68359-1.6445-0.68359-0.61329 0-1.2109 0.24609-1.6445 0.68359l-23.02 23.02c-0.42968 0.42579-0.67968 1.0352-0.67968 1.6445 0 0.60546 0.25 1.2148 0.67968 1.6406l23.02 23.02c0.5586 0.5625 1.3984 0.79688 2.168 0.625 0.44141-0.0976 0.76953-0.34375 1.1211-0.625z" fill="none" stroke="#211e1e" stroke-width=".25"/><g><g fill-rule="evenodd"><path d="m416.78 477.76-23.02-23.02c-0.3125-0.3125-0.49219-0.74218-0.49219-1.1797 0-0.44532 0.17969-0.8711 0.49219-1.1875l23.02-23.023c0.3125-0.3086 0.74219-0.48438 1.1836-0.48438 0.4375 0 0.875 0.17578 1.1836 0.48438l23.023 23.023c0.30859 0.3125 0.48828 0.74609 0.48828 1.1875 0 0.4375-0.17969 0.87109-0.48828 1.1797l-23.023 23.02c-0.3125 0.3125-0.74219 0.48829-1.1836 0.48829-0.44141 0-0.8711-0.17579-1.1836-0.48829" fill="#211e1e"/><path d="m417.42 477.12c0.14063 0.14062 0.34375 0.22656 0.53907 0.22656 0.19531 0 0.40234-0.0859 0.54296-0.22656l23.02-23.02c0.14062-0.14063 0.22265-0.34375 0.22265-0.54297 0-0.19531-0.082-0.40234-0.22265-0.53906l-23.02-23.02c-0.14453-0.14454-0.34375-0.22266-0.54296-0.22266-0.19922 0-0.39844 0.0781-0.53907 0.22266l-23.023 23.02c-0.14063 0.13672-0.22266 0.34375-0.22266 0.53906 0 0.19922 0.082 0.40234 0.22266 0.54297z" fill="#f58511"/><path d="m421.03 445.77-6.1914 4e-3 -0.0117-5.7422-5.4453 1.1406c-0.17578 0.0352-0.25 0.0586-0.30468 0.0586-0.36719 0-0.70313-0.35157-0.70313-0.71875 0-0.14453-0.0117-0.25391 0.16406-0.40625l9.3789-8.3477 9.3516 8.3633c0.14844 0.12891 0.16016 0.26172 0.16016 0.41016 0 0.3789-0.33594 0.71484-0.71484 0.71484-0.0625 0-0.0703-0.0156-0.20704-0.043l-5.4922-1.25z" fill="#211e1e"/><path d="m419.28 472.55c-0.25 0.42968-0.74609 0.68359-1.2344 0.68359-0.48438 4e-3 -0.98828-0.24609-1.2383-0.67187l-11.961-20.312c-0.1211-0.20704-0.20703-0.42188-0.22266-0.66407-0.0351-0.51562 0.21094-1.0234 0.64453-1.3125 0.25391-0.17187 0.50391-0.21875 0.80469-0.23828v-4e-3c-4e-3 0 0 4e-3 0 4e-3h23.922c0.66796 0 1.293 0.47656 1.4141 1.1445 0.0625 0.33203 0.0547 0.6875-0.1211 0.98828z" fill="#fff"/><path d="m418.75 472.24 12.004-20.383c0.0898-0.14844 0.0977-0.36328 0.0664-0.53125-0.0742-0.39453-0.42578-0.6875-0.83203-0.6875h-23.926c-0.39843 0-0.75 0.28906-0.83203 0.68359-0.043 0.22657 0.0234 0.42969 0.13672 0.61719l11.957 20.312c0.16797 0.28516 0.54688 0.42188 0.86328 0.35938 0.25-0.0469 0.42188-0.17188 0.5625-0.3711" fill="#bf2317"/><path d="m412.41 454.5h11.234c0.16016 0 0.32032 0.0703 0.42578 0.17969 0.14063 0.13671 0.19532 0.32812 0.17579 0.51953-0.0156 0.10156-0.0391 0.15234-0.0899 0.23828l-5.6094 9.4922c-0.10547 0.17968-0.30469 0.29296-0.51172 0.29687-0.21875 0-0.42969-0.12109-0.53906-0.30859l-5.6016-9.5195c-0.043-0.0781-0.0664-0.17188-0.0742-0.25782-0.0156-0.21093 0.082-0.42578 0.26172-0.54297 0.10157-0.0703 0.20703-0.0898 0.32813-0.0977" fill="#fff"/></g><path d="m103.05 403.78 23.02-23.02c0.89844-0.90234 0.89844-2.3867 0-3.2891l-23.02-23.02c-0.89453-0.89063-2.3945-0.89844-3.2891 0l-23.02 23.02c-0.89063 0.89453-0.89454 2.3984 0 3.2891l23.02 23.02c0.96484 0.96094 2.3047 0.79688 3.2891 0" fill="#f58511" stroke="#211e1e" stroke-width=".25"/><g fill-rule="evenodd"><path d="m100.17 403.38-23.023-23.027c-0.66406-0.66406-0.66797-1.7969 0-2.4648l23.023-23.02c0.66797-0.66406 1.7969-0.66797 2.4648 0l23.02 23.02c0.66797 0.67188 0.67188 1.7969 0 2.4648l-23.02 23.027c-0.66797 0.66016-1.7969 0.66406-2.4648 0" fill="#211e1e"/><path d="m100.86 402.68c0.29688 0.29687 0.79688 0.30078 1.0938 0l23.023-23.02c0.29297-0.29296 0.29688-0.79687 0-1.0938l-23.023-23.02c-0.29687-0.29297-0.79687-0.30078-1.0938 0l-23.02 23.02c-0.29687 0.30079-0.29687 0.79688 0 1.0938l23.02 23.02" fill="#f58511"/><path d="m104.14 384.77-0.0156 7.9141-5.4297-0.0156v-19.285l-3.0078 0.93359c-0.10937 0.0312-0.21875 0.0625-0.33203 0.0664-0.30078 0.0195-0.60547-0.10938-0.8164-0.32031-0.2461-0.25-0.34375-0.60547-0.29297-0.94922 0.0312-0.17578 0.10937-0.32422 0.21484-0.46094l6.9375-9.4258 6.957 9.4258c0.14453 0.19141 0.22657 0.42187 0.22657 0.66016 0 0.4414-0.25782 0.82812-0.66016 1.0039-0.21875 0.0937-0.41797 0.10156-0.64453 0.0508-0.0586-0.0117-0.11719-0.043-0.14844-0.0508l-3.0742-0.66406c0.24219 1.0664 0.48438 2.1367 0.78906 3.1875 0.44922 1.5547 1.0391 3.0703 1.7188 4.5391 0.67579 1.4531 1.4414 2.8633 2.3203 4.1992 0.58593 0.88672 1.2226 1.7383 1.8555 2.5898l-2.9883 2.1602c-0.26562-0.35156-0.53515-0.69922-0.79687-1.0547-0.59766-0.82031-1.1562-1.668-1.6875-2.5352-0.39453-0.64453-0.76172-1.3047-1.125-1.9688" fill="#211e1e"/></g></g><path d="m215.95 287.43v285.32" fill="none" stroke="#211e1e"/><g transform="translate(-85.513 -107.63)" fill="#211e1e"><use x="489.79971" y="471.25491" width="100%" height="100%" xlink:href="#ce"/><use x="494.80371" y="471.25491" width="100%" height="100%" xlink:href="#i"/><use x="496.8017" y="471.25491" width="100%" height="100%" xlink:href="#p"/><use x="501.80569" y="471.25491" width="100%" height="100%" xlink:href="#al"/><use x="506.80969" y="471.25491" width="100%" height="100%" xlink:href="#m"/><use x="509.31171" y="471.25491" width="100%" height="100%" xlink:href="#i"/><use x="511.30969" y="471.25491" width="100%" height="100%" xlink:href="#q"/><use x="516.31372" y="471.25491" width="100%" height="100%" xlink:href="#p"/><use x="486.8027" y="481.25391" width="100%" height="100%" xlink:href="#cd"/><use x="489.79971" y="481.25391" width="100%" height="100%" xlink:href="#k"/><use x="494.80371" y="481.25391" width="100%" height="100%" xlink:href="#t"/><use x="499.80771" y="481.25391" width="100%" height="100%" xlink:href="#m"/><use x="502.30969" y="481.25391" width="100%" height="100%" xlink:href="#i"/><use x="504.30771" y="481.25391" width="100%" height="100%" xlink:href="#k"/><use x="509.31171" y="481.25391" width="100%" height="100%" xlink:href="#q"/><use x="514.31567" y="481.25391" width="100%" height="100%" xlink:href="#s"/><use x="519.3197" y="481.25391" width="100%" height="100%" xlink:href="#o"/><use x="521.31769" y="481.25391" width="100%" height="100%" xlink:href="#cc"/><use x="460.06369" y="440.4119" width="100%" height="100%" xlink:href="#aj"/><use x="464.48361" y="440.4119" width="100%" height="100%" xlink:href="#c"/><use x="469.48761" y="440.4119" width="100%" height="100%" xlink:href="#ai"/><use x="476.98459" y="440.4119" width="100%" height="100%" xlink:href="#t"/><use x="481.98859" y="440.4119" width="100%" height="100%" xlink:href="#k"/><use x="486.99261" y="440.4119" width="100%" height="100%" xlink:href="#n"/><use x="489.9014" y="440.4119" width="100%" height="100%" xlink:href="#s"/><use x="494.9054" y="440.4119" width="100%" height="100%" xlink:href="#n"/><use x="498.17059" y="440.4119" width="100%" height="100%" xlink:href="#x"/><use x="502.67059" y="440.4119" width="100%" height="100%" xlink:href="#h"/><use x="505.17261" y="440.4119" width="100%" height="100%" xlink:href="#ah"/><use x="511.67059" y="440.4119" width="100%" height="100%" xlink:href="#al"/><use x="516.67462" y="440.4119" width="100%" height="100%" xlink:href="#i"/><use x="518.67261" y="440.4119" width="100%" height="100%" xlink:href="#m"/><use x="521.17462" y="440.4119" width="100%" height="100%" xlink:href="#c"/><use x="460.06369" y="450.41089" width="100%" height="100%" xlink:href="#c"/><use x="465.06769" y="450.41089" width="100%" height="100%" xlink:href="#ag"/><use x="470.07169" y="450.41089" width="100%" height="100%" xlink:href="#p"/><use x="475.07571" y="450.41089" width="100%" height="100%" xlink:href="#c"/><use x="480.07971" y="450.41089" width="100%" height="100%" xlink:href="#h"/><use x="482.5817" y="450.41089" width="100%" height="100%" xlink:href="#o"/><use x="484.57971" y="450.41089" width="100%" height="100%" xlink:href="#i"/><use x="486.5777" y="450.41089" width="100%" height="100%" xlink:href="#q"/><use x="491.5817" y="450.41089" width="100%" height="100%" xlink:href="#c"/><use x="266.87839" y="699.29492" width="100%" height="100%" xlink:href="#by"/><use x="273.4928" y="699.29492" width="100%" height="100%" xlink:href="#bs"/><use x="280.16479" y="699.29492" width="100%" height="100%" xlink:href="#ae"/><use x="287.4968" y="699.29492" width="100%" height="100%" xlink:href="#ad"/><use x="290.83279" y="699.29492" width="100%" height="100%" xlink:href="#ax"/><use x="297.50479" y="699.29492" width="100%" height="100%" xlink:href="#aw"/><use x="304.17679" y="699.29492" width="100%" height="100%" xlink:href="#av"/><use x="307.51279" y="699.29492" width="100%" height="100%" xlink:href="#au"/><use x="310.84879" y="699.29492" width="100%" height="100%" xlink:href="#br"/><use x="319.51279" y="699.29492" width="100%" height="100%" xlink:href="#ae"/><use x="326.84479" y="699.29492" width="100%" height="100%" xlink:href="#ae"/><use x="334.17679" y="699.29492" width="100%" height="100%" xlink:href="#av"/><use x="337.51279" y="699.29492" width="100%" height="100%" xlink:href="#ad"/><use x="340.84879" y="699.29492" width="100%" height="100%" xlink:href="#ax"/><use x="347.52081" y="699.29492" width="100%" height="100%" xlink:href="#aw"/><use x="354.19281" y="699.29492" width="100%" height="100%" xlink:href="#bx"/><use x="358.18881" y="699.29492" width="100%" height="100%" xlink:href="#ad"/><use x="361.52481" y="699.29492" width="100%" height="100%" xlink:href="#bw"/><use x="368.85681" y="699.29492" width="100%" height="100%" xlink:href="#bv"/><use x="376.18881" y="699.29492" width="100%" height="100%" xlink:href="#au"/><use x="379.52481" y="699.29492" width="100%" height="100%" xlink:href="#bu"/><use x="386.19681" y="699.29492" width="100%" height="100%" xlink:href="#bt"/><use x="121.9377" y="544.1543" width="100%" height="100%" xlink:href="#aj"/><use x="126.3576" y="544.1543" width="100%" height="100%" xlink:href="#c"/><use x="131.3616" y="544.1543" width="100%" height="100%" xlink:href="#ai"/><use x="138.8586" y="544.1543" width="100%" height="100%" xlink:href="#t"/><use x="143.86259" y="544.1543" width="100%" height="100%" xlink:href="#k"/><use x="148.86659" y="544.1543" width="100%" height="100%" xlink:href="#n"/><use x="151.77541" y="544.1543" width="100%" height="100%" xlink:href="#s"/><use x="156.7794" y="544.1543" width="100%" height="100%" xlink:href="#n"/><use x="160.0446" y="544.1543" width="100%" height="100%" xlink:href="#x"/><use x="164.5446" y="544.1543" width="100%" height="100%" xlink:href="#h"/><use x="167.0466" y="544.1543" width="100%" height="100%" xlink:href="#x"/><use x="171.36839" y="544.1543" width="100%" height="100%" xlink:href="#c"/><use x="176.37241" y="544.1543" width="100%" height="100%" xlink:href="#o"/><use x="178.37041" y="544.1543" width="100%" height="100%" xlink:href="#o"/><use x="180.36839" y="544.1543" width="100%" height="100%" xlink:href="#k"/><use x="185.2383" y="544.1543" width="100%" height="100%" xlink:href="#ah"/><use x="155.21069" y="554.15332" width="100%" height="100%" xlink:href="#c"/><use x="160.21471" y="554.15332" width="100%" height="100%" xlink:href="#ag"/><use x="165.2187" y="554.15332" width="100%" height="100%" xlink:href="#p"/><use x="170.2227" y="554.15332" width="100%" height="100%" xlink:href="#c"/><use x="175.2267" y="554.15332" width="100%" height="100%" xlink:href="#h"/><use x="177.7287" y="554.15332" width="100%" height="100%" xlink:href="#o"/><use x="179.7267" y="554.15332" width="100%" height="100%" xlink:href="#i"/><use x="181.7247" y="554.15332" width="100%" height="100%" xlink:href="#q"/><use x="186.7287" y="554.15332" width="100%" height="100%" xlink:href="#c"/><use x="416.87671" y="174.56931" width="100%" height="100%" xlink:href="#aj"/><use x="421.2966" y="174.56931" width="100%" height="100%" xlink:href="#c"/><use x="426.3006" y="174.56931" width="100%" height="100%" xlink:href="#ai"/><use x="433.79761" y="174.56931" width="100%" height="100%" xlink:href="#t"/><use x="438.80161" y="174.56931" width="100%" height="100%" xlink:href="#k"/><use x="443.8056" y="174.56931" width="100%" height="100%" xlink:href="#n"/><use x="446.71439" y="174.56931" width="100%" height="100%" xlink:href="#s"/><use x="451.71841" y="174.56931" width="100%" height="100%" xlink:href="#n"/><use x="454.98361" y="174.56931" width="100%" height="100%" xlink:href="#x"/><use x="459.48361" y="174.56931" width="100%" height="100%" xlink:href="#h"/><use x="461.9856" y="174.56931" width="100%" height="100%" xlink:href="#ah"/><use x="468.48361" y="174.56931" width="100%" height="100%" xlink:href="#al"/><use x="473.48761" y="174.56931" width="100%" height="100%" xlink:href="#i"/><use x="475.4856" y="174.56931" width="100%" height="100%" xlink:href="#m"/><use x="477.98761" y="174.56931" width="100%" height="100%" xlink:href="#c"/><use x="416.87671" y="184.5683" width="100%" height="100%" xlink:href="#c"/><use x="421.88071" y="184.5683" width="100%" height="100%" xlink:href="#ag"/><use x="426.8847" y="184.5683" width="100%" height="100%" xlink:href="#p"/><use x="431.8887" y="184.5683" width="100%" height="100%" xlink:href="#c"/><use x="436.8927" y="184.5683" width="100%" height="100%" xlink:href="#h"/><use x="439.39471" y="184.5683" width="100%" height="100%" xlink:href="#o"/><use x="441.3927" y="184.5683" width="100%" height="100%" xlink:href="#i"/><use x="443.39069" y="184.5683" width="100%" height="100%" xlink:href="#q"/><use x="448.39471" y="184.5683" width="100%" height="100%" xlink:href="#c"/></g><path d="m207.22 229.07h-9.5312" fill="none" stroke="#211e1e" stroke-width=".75"/><path d="m207.22 213.66h-9.5312" fill="none" stroke="#211e1e" stroke-width=".75"/><path d="m203.96 210.97c0.26563-0.86719 0.50781-1.4336 0.78516-2.1289h-2.6484c0.12109 0.25 0.51953 1.2617 0.78516 2.1289 0.27734 0.92969 0.47265 1.7734 0.53906 2.3164 0.0664-0.54297 0.26172-1.3867 0.53906-2.3164" fill="#211e1e"/><g transform="translate(-85.513 -107.63)" fill="#211e1e"><use x="285.16769" y="332.18021" width="100%" height="100%" xlink:href="#am"/><use x="290.17169" y="332.18021" width="100%" height="100%" xlink:href="#ak"/><use x="295.17569" y="332.18021" width="100%" height="100%" xlink:href="#h"/><use x="297.6777" y="332.18021" width="100%" height="100%" xlink:href="#af"/><use x="300.17969" y="332.18021" width="100%" height="100%" xlink:href="#m"/></g><path d="m203.42 206.76v2.2461" fill="none" stroke="#211e1e" stroke-width=".75"/><path d="m202.89 231.76c-0.26563 0.86719-0.50782 1.4297-0.78516 2.1289h2.6484c-0.1211-0.25-0.51953-1.2617-0.78516-2.1289-0.27734-0.92969-0.47265-1.7734-0.53906-2.3203-0.0664 0.54687-0.26172 1.3906-0.53906 2.3203" fill="#211e1e"/><g fill="none"><path d="m203.42 235.97v-2.25" stroke="#211e1e" stroke-width=".75"/><g stroke="#fff"><path d="m173.32 183.13v154.38" stroke-dasharray="4.32, 12.96" stroke-width="2"/><g stroke-width="3"><path d="m164.17 436.68 4.4922-4.4883 4.5742 4.5742"/><path d="m165.25 424.36 3.9922-3.9961 4.0195 4.0195"/><path d="m166.32 412.05 3.5-3.5 3.4609 3.4648"/><path d="m167.39 399.73 3.0078-3.0039 2.9024 2.9023"/><path d="m168.47 387.42 2.5078-2.5117 2.3516 2.3476"/></g></g><path d="m72.269 274.94s141.51 61.746 150.24 36.363" stroke="#211e1e" stroke-width=".75"/></g><path d="m222.43 309.95c-0.54297 0.72656-0.96485 1.1758-1.4648 1.7305l2.4883 0.91015c-0.0273-0.27734-0.0547-1.3633-4e-3 -2.2695 0.0508-0.96875 0.16015-1.8242 0.28515-2.3633-0.2539 0.49219-0.72265 1.2148-1.3047 1.9922" fill="#211e1e"/><path d="m89.464 314.81s50.055 9.5664 82.602 12.426c45.586 4 60.863-15.238 68.172-7.6797" fill="none" stroke="#211e1e" stroke-width=".75"/><path d="m241.48 320.07c-0.41015-0.80469-0.63281-1.3789-0.91406-2.0742l-1.9023 1.8438c0.2539 0.0937 1.25 0.54297 2.043 0.98438 0.84375 0.47265 1.5664 0.94531 2 1.2891-0.33204-0.4375-0.78125-1.1797-1.2266-2.043" fill="#211e1e"/><path d="m192.73 182.9h-74.836" fill="none" stroke="#211e1e" stroke-width=".75"/><g><path d="m48.198 165.09 23.172-23.168c0.91406-0.91406 2.3984-0.91406 3.3125 0l23.168 23.168c0.91406 0.91406 0.91406 2.3984 0 3.3125l-23.168 23.172c-0.91406 0.91015-2.3984 0.91015-3.3125 0l-23.172-23.172c-0.89844-0.90234-0.89844-2.4102 0-3.3125" fill="#f58511" stroke="#211e1e" stroke-width=".25"/><path d="m48.663 165.55 23.16-23.16c0.66015-0.65625 1.7461-0.65625 2.4023 0l23.16 23.16c0.65625 0.65625 0.65625 1.7422 0 2.4024l-23.16 23.156c-0.65625 0.65625-1.7422 0.66015-2.4023 0l-23.16-23.156c-0.65234-0.66016-0.65625-1.7461 0-2.4024" fill="#211e1e" fill-rule="evenodd"/><path d="m49.315 166.18 23.145-23.145c0.30468-0.3125 0.82812-0.3125 1.1328 0l23.141 23.145c0.31641 0.30859 0.31641 0.82812 0 1.1328l-23.141 23.141c-0.30469 0.32032-0.82813 0.32032-1.1328 0l-23.145-23.141c-0.3164-0.30469-0.3164-0.82422 0-1.1328" fill="#f58511" fill-rule="evenodd"/></g><g fill="#211e1e"><path d="m69.89 170.42 2.8555-0.84375c0.082-0.0234 0.17578-0.0391 0.25781-0.0391 0.40625-0.0117 0.77735 0.3164 0.84766 0.70703 0.043 0.23828 4e-3 0.47656-0.13281 0.67578l-6.1641 9.0391-6.1641-9.0391c-0.10547-0.15234-0.17187-0.3125-0.17187-0.5-4e-3 -0.41797 0.3164-0.78125 0.72265-0.86719 0.16407-0.0351 0.28907 4e-3 0.44141 0.0469l2.8359 0.82031v-17.711h4.6719z" fill-rule="evenodd"/><path d="m80.831 163.08 2.8555 0.83985c0.0781 0.0273 0.17578 0.043 0.25781 0.043 0.40234 0.0117 0.77734-0.31641 0.84766-0.70704 0.043-0.23828 4e-3 -0.47656-0.13282-0.67578l-6.1641-9.0391-6.1641 9.0391c-0.10547 0.14844-0.17188 0.3125-0.17578 0.5 0 0.41797 0.32031 0.78125 0.72656 0.86719 0.16406 0.0352 0.28906-4e-3 0.44141-0.0469l2.8359-0.82032v17.711h4.6719z" fill-rule="evenodd"/><g transform="translate(-85.513 -107.63)"><use x="85.153297" y="599.64752" width="100%" height="100%" xlink:href="#bq"/><use x="90.929298" y="599.64752" width="100%" height="100%" xlink:href="#d"/><use x="95.377296" y="599.64752" width="100%" height="100%" xlink:href="#f"/><use x="97.601303" y="599.64752" width="100%" height="100%" xlink:href="#b"/><use x="102.0493" y="599.64752" width="100%" height="100%" xlink:href="#e"/><use x="106.0493" y="599.64752" width="100%" height="100%" xlink:href="#bh"/><use x="107.8749" y="599.64752" width="100%" height="100%" xlink:href="#a"/><use x="85.153297" y="611.64752" width="100%" height="100%" xlink:href="#an"/><use x="90.489304" y="611.64752" width="100%" height="100%" xlink:href="#b"/><use x="94.937302" y="611.64752" width="100%" height="100%" xlink:href="#b"/><use x="99.3853" y="611.64752" width="100%" height="100%" xlink:href="#a"/><use x="101.2109" y="611.64752" width="100%" height="100%" xlink:href="#bg"/><use x="105.1397" y="611.64752" width="100%" height="100%" xlink:href="#w"/><use x="109.5877" y="611.64752" width="100%" height="100%" xlink:href="#at"/><use x="113.8773" y="611.64752" width="100%" height="100%" xlink:href="#ac"/><use x="115.6533" y="611.64752" width="100%" height="100%" xlink:href="#b"/><use x="120.1013" y="611.64752" width="100%" height="100%" xlink:href="#e"/><use x="124.1013" y="611.64752" width="100%" height="100%" xlink:href="#a"/><use x="126.3253" y="611.64752" width="100%" height="100%" xlink:href="#ab"/><use x="130.7733" y="611.64752" width="100%" height="100%" xlink:href="#v"/><use x="136.1093" y="611.64752" width="100%" height="100%" xlink:href="#as"/><use x="138.7733" y="611.64752" width="100%" height="100%" xlink:href="#ar"/><use x="143.2213" y="611.64752" width="100%" height="100%" xlink:href="#a"/><use x="145.4453" y="611.64752" width="100%" height="100%" xlink:href="#w"/><use x="149.8933" y="611.64752" width="100%" height="100%" xlink:href="#j"/><use x="154.34129" y="611.64752" width="100%" height="100%" xlink:href="#r"/><use x="158.78931" y="611.64752" width="100%" height="100%" xlink:href="#a"/><use x="161.01331" y="611.64752" width="100%" height="100%" xlink:href="#ab"/><use x="165.4613" y="611.64752" width="100%" height="100%" xlink:href="#v"/><use x="170.7973" y="611.64752" width="100%" height="100%" xlink:href="#as"/><use x="173.4613" y="611.64752" width="100%" height="100%" xlink:href="#bp"/><use x="177.9093" y="611.64752" width="100%" height="100%" xlink:href="#a"/><use x="180.1333" y="611.64752" width="100%" height="100%" xlink:href="#u"/><use x="182.1189" y="611.64752" width="100%" height="100%" xlink:href="#d"/><use x="186.56689" y="611.64752" width="100%" height="100%" xlink:href="#l"/><use x="189.2309" y="611.64752" width="100%" height="100%" xlink:href="#a"/><use x="191.4549" y="611.64752" width="100%" height="100%" xlink:href="#f"/><use x="193.67889" y="611.64752" width="100%" height="100%" xlink:href="#aa"/><use x="198.12691" y="611.64752" width="100%" height="100%" xlink:href="#b"/><use x="202.57491" y="611.64752" width="100%" height="100%" xlink:href="#a"/><use x="85.153297" y="620.64752" width="100%" height="100%" xlink:href="#aq"/><use x="91.817299" y="620.64752" width="100%" height="100%" xlink:href="#b"/><use x="96.265297" y="620.64752" width="100%" height="100%" xlink:href="#w"/><use x="100.7133" y="620.64752" width="100%" height="100%" xlink:href="#j"/><use x="105.1613" y="620.64752" width="100%" height="100%" xlink:href="#g"/><use x="106.9373" y="620.64752" width="100%" height="100%" xlink:href="#j"/><use x="111.3853" y="620.64752" width="100%" height="100%" xlink:href="#ap"/><use x="115.8333" y="620.64752" width="100%" height="100%" xlink:href="#a"/><use x="118.0573" y="620.64752" width="100%" height="100%" xlink:href="#d"/><use x="122.5053" y="620.64752" width="100%" height="100%" xlink:href="#u"/><use x="124.7293" y="620.64752" width="100%" height="100%" xlink:href="#a"/><use x="126.9533" y="620.64752" width="100%" height="100%" xlink:href="#f"/><use x="129.17731" y="620.64752" width="100%" height="100%" xlink:href="#aa"/><use x="133.62531" y="620.64752" width="100%" height="100%" xlink:href="#b"/><use x="138.0733" y="620.64752" width="100%" height="100%" xlink:href="#a"/><use x="140.2973" y="620.64752" width="100%" height="100%" xlink:href="#e"/><use x="144.2973" y="620.64752" width="100%" height="100%" xlink:href="#bo"/><use x="148.2973" y="620.64752" width="100%" height="100%" xlink:href="#aq"/><use x="154.9613" y="620.64752" width="100%" height="100%" xlink:href="#at"/><use x="159.4093" y="620.64752" width="100%" height="100%" xlink:href="#d"/><use x="163.8573" y="620.64752" width="100%" height="100%" xlink:href="#ac"/><use x="165.6333" y="620.64752" width="100%" height="100%" xlink:href="#e"/><use x="169.6333" y="620.64752" width="100%" height="100%" xlink:href="#a"/><use x="171.8573" y="620.64752" width="100%" height="100%" xlink:href="#w"/><use x="176.3053" y="620.64752" width="100%" height="100%" xlink:href="#j"/><use x="180.7533" y="620.64752" width="100%" height="100%" xlink:href="#r"/><use x="185.20129" y="620.64752" width="100%" height="100%" xlink:href="#bn"/><use x="187.42529" y="620.64752" width="100%" height="100%" xlink:href="#d"/><use x="191.87331" y="620.64752" width="100%" height="100%" xlink:href="#l"/><use x="194.53729" y="620.64752" width="100%" height="100%" xlink:href="#a"/><use x="85.153297" y="629.64752" width="100%" height="100%" xlink:href="#ac"/><use x="86.929298" y="629.64752" width="100%" height="100%" xlink:href="#b"/><use x="91.377296" y="629.64752" width="100%" height="100%" xlink:href="#f"/><use x="93.601303" y="629.64752" width="100%" height="100%" xlink:href="#f"/><use x="95.825302" y="629.64752" width="100%" height="100%" xlink:href="#b"/><use x="100.2733" y="629.64752" width="100%" height="100%" xlink:href="#l"/><use x="102.9373" y="629.64752" width="100%" height="100%" xlink:href="#a"/><use x="105.1613" y="629.64752" width="100%" height="100%" xlink:href="#z"/><use x="109.1613" y="629.64752" width="100%" height="100%" xlink:href="#d"/><use x="113.6093" y="629.64752" width="100%" height="100%" xlink:href="#r"/><use x="118.0573" y="629.64752" width="100%" height="100%" xlink:href="#b"/><use x="122.5053" y="629.64752" width="100%" height="100%" xlink:href="#e"/><use x="126.5053" y="629.64752" width="100%" height="100%" xlink:href="#a"/><use x="128.72929" y="629.64752" width="100%" height="100%" xlink:href="#y"/><use x="133.17731" y="629.64752" width="100%" height="100%" xlink:href="#e"/><use x="137.17731" y="629.64752" width="100%" height="100%" xlink:href="#b"/><use x="141.62531" y="629.64752" width="100%" height="100%" xlink:href="#r"/><use x="146.0733" y="629.64752" width="100%" height="100%" xlink:href="#a"/><use x="148.2973" y="629.64752" width="100%" height="100%" xlink:href="#g"/><use x="150.0733" y="629.64752" width="100%" height="100%" xlink:href="#j"/><use x="154.5213" y="629.64752" width="100%" height="100%" xlink:href="#a"/><use x="156.7453" y="629.64752" width="100%" height="100%" xlink:href="#f"/><use x="158.9693" y="629.64752" width="100%" height="100%" xlink:href="#aa"/><use x="163.4173" y="629.64752" width="100%" height="100%" xlink:href="#g"/><use x="165.1933" y="629.64752" width="100%" height="100%" xlink:href="#e"/><use x="169.1933" y="629.64752" width="100%" height="100%" xlink:href="#a"/><use x="171.4173" y="629.64752" width="100%" height="100%" xlink:href="#u"/><use x="173.6413" y="629.64752" width="100%" height="100%" xlink:href="#g"/><use x="175.4173" y="629.64752" width="100%" height="100%" xlink:href="#ap"/><use x="179.8653" y="629.64752" width="100%" height="100%" xlink:href="#y"/><use x="184.31329" y="629.64752" width="100%" height="100%" xlink:href="#l"/><use x="186.97729" y="629.64752" width="100%" height="100%" xlink:href="#b"/><use x="191.3069" y="629.64752" width="100%" height="100%" xlink:href="#ao"/><use x="85.153297" y="641.64752" width="100%" height="100%" xlink:href="#bm"/><use x="90.929298" y="641.64752" width="100%" height="100%" xlink:href="#d"/><use x="95.377296" y="641.64752" width="100%" height="100%" xlink:href="#j"/><use x="99.825302" y="641.64752" width="100%" height="100%" xlink:href="#e"/><use x="103.8253" y="641.64752" width="100%" height="100%" xlink:href="#g"/><use x="105.6013" y="641.64752" width="100%" height="100%" xlink:href="#r"/><use x="110.0493" y="641.64752" width="100%" height="100%" xlink:href="#b"/><use x="114.4973" y="641.64752" width="100%" height="100%" xlink:href="#l"/><use x="117.1613" y="641.64752" width="100%" height="100%" xlink:href="#a"/><use x="119.3853" y="641.64752" width="100%" height="100%" xlink:href="#y"/><use x="123.8333" y="641.64752" width="100%" height="100%" xlink:href="#e"/><use x="127.8333" y="641.64752" width="100%" height="100%" xlink:href="#b"/><use x="132.2813" y="641.64752" width="100%" height="100%" xlink:href="#a"/><use x="134.50529" y="641.64752" width="100%" height="100%" xlink:href="#d"/><use x="138.95329" y="641.64752" width="100%" height="100%" xlink:href="#u"/><use x="141.17731" y="641.64752" width="100%" height="100%" xlink:href="#a"/><use x="143.40131" y="641.64752" width="100%" height="100%" xlink:href="#v"/><use x="148.3381" y="641.64752" width="100%" height="100%" xlink:href="#d"/><use x="152.7861" y="641.64752" width="100%" height="100%" xlink:href="#e"/><use x="156.7861" y="641.64752" width="100%" height="100%" xlink:href="#g"/><use x="158.5621" y="641.64752" width="100%" height="100%" xlink:href="#f"/><use x="160.7861" y="641.64752" width="100%" height="100%" xlink:href="#g"/><use x="162.5621" y="641.64752" width="100%" height="100%" xlink:href="#bl"/><use x="166.3629" y="641.64752" width="100%" height="100%" xlink:href="#b"/><use x="170.8109" y="641.64752" width="100%" height="100%" xlink:href="#a"/><use x="85.153297" y="650.64752" width="100%" height="100%" xlink:href="#v"/><use x="90.489304" y="650.64752" width="100%" height="100%" xlink:href="#l"/><use x="93.153297" y="650.64752" width="100%" height="100%" xlink:href="#d"/><use x="97.601303" y="650.64752" width="100%" height="100%" xlink:href="#f"/><use x="99.825302" y="650.64752" width="100%" height="100%" xlink:href="#b"/><use x="104.2733" y="650.64752" width="100%" height="100%" xlink:href="#z"/><use x="108.2733" y="650.64752" width="100%" height="100%" xlink:href="#f"/><use x="110.4973" y="650.64752" width="100%" height="100%" xlink:href="#g"/><use x="112.2733" y="650.64752" width="100%" height="100%" xlink:href="#d"/><use x="116.7213" y="650.64752" width="100%" height="100%" xlink:href="#j"/><use x="121.1693" y="650.64752" width="100%" height="100%" xlink:href="#a"/><use x="123.3933" y="650.64752" width="100%" height="100%" xlink:href="#bk"/><use x="127.8413" y="650.64752" width="100%" height="100%" xlink:href="#b"/><use x="132.28931" y="650.64752" width="100%" height="100%" xlink:href="#l"/><use x="134.95329" y="650.64752" width="100%" height="100%" xlink:href="#a"/><use x="137.17731" y="650.64752" width="100%" height="100%" xlink:href="#an"/><use x="142.51331" y="650.64752" width="100%" height="100%" xlink:href="#b"/><use x="146.9613" y="650.64752" width="100%" height="100%" xlink:href="#z"/><use x="150.9613" y="650.64752" width="100%" height="100%" xlink:href="#f"/><use x="153.1853" y="650.64752" width="100%" height="100%" xlink:href="#g"/><use x="154.9613" y="650.64752" width="100%" height="100%" xlink:href="#d"/><use x="159.4093" y="650.64752" width="100%" height="100%" xlink:href="#j"/><use x="163.8573" y="650.64752" width="100%" height="100%" xlink:href="#a"/><use x="166.0813" y="650.64752" width="100%" height="100%" xlink:href="#ab"/><use x="170.5293" y="650.64752" width="100%" height="100%" xlink:href="#bj"/><use x="177.1933" y="650.64752" width="100%" height="100%" xlink:href="#ao"/><use x="179.4173" y="650.64752" width="100%" height="100%" xlink:href="#bi"/><use x="183.8653" y="650.64752" width="100%" height="100%" xlink:href="#ar"/></g></g></svg>
