<?xml version="1.0" encoding="UTF-8"?>
<svg width="251pt" height="330.17pt" version="1.2" viewBox="0 0 251 330.17" xmlns="http://www.w3.org/2000/svg" xmlns:xlink="http://www.w3.org/1999/xlink"><defs><clipPath id="ad"><path d="m260 365h10v10h-10z"/></clipPath><clipPath id="t"><path d="m265.84 365.25-5.0547 7.1875 3.3555 2.3594 5.0508-7.1914z"/></clipPath><clipPath id="s"><rect width="5" height="2"/></clipPath><g id="f" clip-path="url(#s)"><path d="m0.84375 2c0 0.14844-0.097656 0.26562-0.21484 0.26562-0.12109 0-0.21484-0.11719-0.21484-0.26562 0-0.14844 0.09375-0.26562 0.21484-0.26562 0.11719 0 0.21484 0.11719 0.21484 0.26562m0.12891 0c0-0.23438-0.15625-0.42578-0.34375-0.42578-0.19141 0-0.34766 0.19141-0.34766 0.42578s0.15625 0.42969 0.34766 0.42969c0.1875 0 0.34375-0.19531 0.34375-0.42969" fill="#211e1e"/><path d="m2.0938 2c0 0.14844-0.097656 0.26562-0.21484 0.26562-0.12109 0-0.21484-0.11719-0.21484-0.26562 0-0.14844 0.09375-0.26562 0.21484-0.26562 0.11719 0 0.21484 0.11719 0.21484 0.26562m0.12891 0c0-0.23438-0.15625-0.42578-0.34375-0.42578-0.19141 0-0.34766 0.19141-0.34766 0.42578s0.15625 0.42969 0.34766 0.42969c0.1875 0 0.34375-0.19531 0.34375-0.42969" fill="#211e1e"/><path d="m3.3398 2c0 0.14844-0.09375 0.26562-0.21484 0.26562-0.11719 0-0.21484-0.11719-0.21484-0.26562 0-0.14844 0.097657-0.26562 0.21484-0.26562 0.12109 0 0.21484 0.11719 0.21484 0.26562m0.13281 0c0-0.23438-0.15625-0.42578-0.34766-0.42578-0.1875 0-0.34375 0.19141-0.34375 0.42578s0.15625 0.42969 0.34375 0.42969c0.19141 0 0.34766-0.19531 0.34766-0.42969" fill="#211e1e"/><path d="m4.5898 2c0 0.14844-0.097656 0.26562-0.21484 0.26562-0.11719 0-0.21484-0.11719-0.21484-0.26562 0-0.14844 0.097657-0.26562 0.21484-0.26562 0.11719 0 0.21484 0.11719 0.21484 0.26562m0.13281 0c0-0.23438-0.15625-0.42578-0.34766-0.42578-0.1875 0-0.34375 0.19141-0.34375 0.42578s0.15625 0.42969 0.34375 0.42969c0.19141 0 0.34766-0.19531 0.34766-0.42969" fill="#211e1e"/><path d="m0.84375 0c0 0.14844-0.097656 0.26562-0.21484 0.26562-0.12109 0-0.21484-0.11719-0.21484-0.26562s0.09375-0.26562 0.21484-0.26562c0.11719 0 0.21484 0.11719 0.21484 0.26562m0.12891 0c0-0.23438-0.15625-0.42578-0.34375-0.42578-0.19141 0-0.34766 0.19141-0.34766 0.42578s0.15625 0.42969 0.34766 0.42969c0.1875 0 0.34375-0.19531 0.34375-0.42969" fill="#211e1e"/><path d="m2.0898 0c0 0.14844-0.09375 0.26562-0.21484 0.26562-0.11719 0-0.21484-0.11719-0.21484-0.26562s0.097657-0.26562 0.21484-0.26562c0.12109 0 0.21484 0.11719 0.21484 0.26562m0.13281 0c0-0.23438-0.15625-0.42578-0.34766-0.42578-0.1875 0-0.34375 0.19141-0.34375 0.42578s0.15625 0.42969 0.34375 0.42969c0.19141 0 0.34766-0.19531 0.34766-0.42969" fill="#211e1e"/><path d="m3.3398 0c0 0.14844-0.09375 0.26562-0.21484 0.26562-0.11719 0-0.21484-0.11719-0.21484-0.26562s0.097657-0.26562 0.21484-0.26562c0.12109 0 0.21484 0.11719 0.21484 0.26562m0.13281 0c0-0.23438-0.15625-0.42578-0.34766-0.42578-0.1875 0-0.34375 0.19141-0.34375 0.42578s0.15625 0.42969 0.34375 0.42969c0.19141 0 0.34766-0.19531 0.34766-0.42969" fill="#211e1e"/><path d="m4.5898 0c0 0.14844-0.097656 0.26562-0.21484 0.26562-0.11719 0-0.21484-0.11719-0.21484-0.26562s0.097657-0.26562 0.21484-0.26562c0.11719 0 0.21484 0.11719 0.21484 0.26562m0.12891 0c0-0.23438-0.15234-0.42578-0.34375-0.42578-0.1875 0-0.34375 0.19141-0.34375 0.42578s0.15625 0.42969 0.34375 0.42969c0.19141 0 0.34375-0.19531 0.34375-0.42969" fill="#211e1e"/><path d="m5.2148 1c0 0.14844-0.097656 0.26562-0.21484 0.26562-0.11719 0-0.21484-0.11719-0.21484-0.26562 0-0.14844 0.097657-0.26562 0.21484-0.26562 0.11719 0 0.21484 0.11719 0.21484 0.26562m0.12891 0c0-0.23438-0.15234-0.42969-0.34375-0.42969s-0.34375 0.19531-0.34375 0.42969 0.15234 0.42969 0.34375 0.42969 0.34375-0.19531 0.34375-0.42969" fill="#211e1e"/><path d="m3.9648 1c0 0.14844-0.097656 0.26562-0.21484 0.26562-0.11719 0-0.21484-0.11719-0.21484-0.26562 0-0.14844 0.097657-0.26562 0.21484-0.26562 0.11719 0 0.21484 0.11719 0.21484 0.26562m0.12891 0c0-0.23438-0.15234-0.42969-0.34375-0.42969s-0.34375 0.19531-0.34375 0.42969 0.15234 0.42969 0.34375 0.42969 0.34375-0.19531 0.34375-0.42969" fill="#211e1e"/><path d="m2.7148 1c0 0.14844-0.097656 0.26562-0.21484 0.26562-0.11719 0-0.21484-0.11719-0.21484-0.26562 0-0.14844 0.097657-0.26562 0.21484-0.26562 0.11719 0 0.21484 0.11719 0.21484 0.26562m0.12891 0c0-0.23438-0.15234-0.42969-0.34375-0.42969s-0.34375 0.19531-0.34375 0.42969 0.15234 0.42969 0.34375 0.42969 0.34375-0.19531 0.34375-0.42969" fill="#211e1e"/><path d="m1.4648 1c0 0.14844-0.097656 0.26562-0.21484 0.26562-0.11719 0-0.21484-0.11719-0.21484-0.26562 0-0.14844 0.097657-0.26562 0.21484-0.26562 0.11719 0 0.21484 0.11719 0.21484 0.26562m0.12891 0c0-0.23438-0.15234-0.42969-0.34375-0.42969s-0.34375 0.19531-0.34375 0.42969 0.15234 0.42969 0.34375 0.42969 0.34375-0.19531 0.34375-0.42969" fill="#211e1e"/><path d="m0.21484 1c0 0.14844-0.097656 0.26562-0.21484 0.26562s-0.21484-0.11719-0.21484-0.26562c0-0.14844 0.097656-0.26562 0.21484-0.26562s0.21484 0.11719 0.21484 0.26562m0.12891 0c0-0.23438-0.15234-0.42969-0.34375-0.42969s-0.34375 0.19531-0.34375 0.42969 0.15234 0.42969 0.34375 0.42969 0.34375-0.19531 0.34375-0.42969" fill="#211e1e"/></g><pattern id="l" width="5" height="2" patternTransform="matrix(.88204 .38134 .30722 -.7106 1.2828 792.61)" patternUnits="userSpaceOnUse"><use xlink:href="#f"/></pattern><clipPath id="r"><path d="m342 88h10v10h-10z"/></clipPath><clipPath id="q"><path d="m346.16 97.547 5.0547-7.1875-3.3555-2.3594-5.0508 7.1914z"/></clipPath><clipPath id="p"><rect width="5" height="2"/></clipPath><g id="e" clip-path="url(#p)"><path d="m0.84375 2c0 0.14844-0.097656 0.26562-0.21484 0.26562-0.12109 0-0.21484-0.11719-0.21484-0.26562 0-0.14844 0.09375-0.26562 0.21484-0.26562 0.11719 0 0.21484 0.11719 0.21484 0.26562m0.12891 0c0-0.23438-0.15625-0.42578-0.34375-0.42578-0.19141 0-0.34766 0.19141-0.34766 0.42578s0.15625 0.42969 0.34766 0.42969c0.1875 0 0.34375-0.19531 0.34375-0.42969" fill="#211e1e"/><path d="m2.0938 2c0 0.14844-0.097656 0.26562-0.21484 0.26562-0.12109 0-0.21484-0.11719-0.21484-0.26562 0-0.14844 0.09375-0.26562 0.21484-0.26562 0.11719 0 0.21484 0.11719 0.21484 0.26562m0.12891 0c0-0.23438-0.15625-0.42578-0.34375-0.42578-0.19141 0-0.34766 0.19141-0.34766 0.42578s0.15625 0.42969 0.34766 0.42969c0.1875 0 0.34375-0.19531 0.34375-0.42969" fill="#211e1e"/><path d="m3.3398 2c0 0.14844-0.09375 0.26562-0.21484 0.26562-0.11719 0-0.21484-0.11719-0.21484-0.26562 0-0.14844 0.097657-0.26562 0.21484-0.26562 0.12109 0 0.21484 0.11719 0.21484 0.26562m0.13281 0c0-0.23438-0.15625-0.42578-0.34766-0.42578-0.1875 0-0.34375 0.19141-0.34375 0.42578s0.15625 0.42969 0.34375 0.42969c0.19141 0 0.34766-0.19531 0.34766-0.42969" fill="#211e1e"/><path d="m4.5898 2c0 0.14844-0.097656 0.26562-0.21484 0.26562-0.11719 0-0.21484-0.11719-0.21484-0.26562 0-0.14844 0.097657-0.26562 0.21484-0.26562 0.11719 0 0.21484 0.11719 0.21484 0.26562m0.13281 0c0-0.23438-0.15625-0.42578-0.34766-0.42578-0.1875 0-0.34375 0.19141-0.34375 0.42578s0.15625 0.42969 0.34375 0.42969c0.19141 0 0.34766-0.19531 0.34766-0.42969" fill="#211e1e"/><path d="m0.84375 0c0 0.14844-0.097656 0.26562-0.21484 0.26562-0.12109 0-0.21484-0.11719-0.21484-0.26562s0.09375-0.26562 0.21484-0.26562c0.11719 0 0.21484 0.11719 0.21484 0.26562m0.12891 0c0-0.23438-0.15625-0.42578-0.34375-0.42578-0.19141 0-0.34766 0.19141-0.34766 0.42578s0.15625 0.42969 0.34766 0.42969c0.1875 0 0.34375-0.19531 0.34375-0.42969" fill="#211e1e"/><path d="m2.0898 0c0 0.14844-0.09375 0.26562-0.21484 0.26562-0.11719 0-0.21484-0.11719-0.21484-0.26562s0.097657-0.26562 0.21484-0.26562c0.12109 0 0.21484 0.11719 0.21484 0.26562m0.13281 0c0-0.23438-0.15625-0.42578-0.34766-0.42578-0.1875 0-0.34375 0.19141-0.34375 0.42578s0.15625 0.42969 0.34375 0.42969c0.19141 0 0.34766-0.19531 0.34766-0.42969" fill="#211e1e"/><path d="m3.3398 0c0 0.14844-0.09375 0.26562-0.21484 0.26562-0.11719 0-0.21484-0.11719-0.21484-0.26562s0.097657-0.26562 0.21484-0.26562c0.12109 0 0.21484 0.11719 0.21484 0.26562m0.13281 0c0-0.23438-0.15625-0.42578-0.34766-0.42578-0.1875 0-0.34375 0.19141-0.34375 0.42578s0.15625 0.42969 0.34375 0.42969c0.19141 0 0.34766-0.19531 0.34766-0.42969" fill="#211e1e"/><path d="m4.5898 0c0 0.14844-0.097656 0.26562-0.21484 0.26562-0.11719 0-0.21484-0.11719-0.21484-0.26562s0.097657-0.26562 0.21484-0.26562c0.11719 0 0.21484 0.11719 0.21484 0.26562m0.12891 0c0-0.23438-0.15234-0.42578-0.34375-0.42578-0.1875 0-0.34375 0.19141-0.34375 0.42578s0.15625 0.42969 0.34375 0.42969c0.19141 0 0.34375-0.19531 0.34375-0.42969" fill="#211e1e"/><path d="m5.2148 1c0 0.14844-0.097656 0.26562-0.21484 0.26562-0.11719 0-0.21484-0.11719-0.21484-0.26562 0-0.14844 0.097657-0.26562 0.21484-0.26562 0.11719 0 0.21484 0.11719 0.21484 0.26562m0.12891 0c0-0.23438-0.15234-0.42969-0.34375-0.42969s-0.34375 0.19531-0.34375 0.42969 0.15234 0.42969 0.34375 0.42969 0.34375-0.19531 0.34375-0.42969" fill="#211e1e"/><path d="m3.9648 1c0 0.14844-0.097656 0.26562-0.21484 0.26562-0.11719 0-0.21484-0.11719-0.21484-0.26562 0-0.14844 0.097657-0.26562 0.21484-0.26562 0.11719 0 0.21484 0.11719 0.21484 0.26562m0.12891 0c0-0.23438-0.15234-0.42969-0.34375-0.42969s-0.34375 0.19531-0.34375 0.42969 0.15234 0.42969 0.34375 0.42969 0.34375-0.19531 0.34375-0.42969" fill="#211e1e"/><path d="m2.7148 1c0 0.14844-0.097656 0.26562-0.21484 0.26562-0.11719 0-0.21484-0.11719-0.21484-0.26562 0-0.14844 0.097657-0.26562 0.21484-0.26562 0.11719 0 0.21484 0.11719 0.21484 0.26562m0.12891 0c0-0.23438-0.15234-0.42969-0.34375-0.42969s-0.34375 0.19531-0.34375 0.42969 0.15234 0.42969 0.34375 0.42969 0.34375-0.19531 0.34375-0.42969" fill="#211e1e"/><path d="m1.4648 1c0 0.14844-0.097656 0.26562-0.21484 0.26562-0.11719 0-0.21484-0.11719-0.21484-0.26562 0-0.14844 0.097657-0.26562 0.21484-0.26562 0.11719 0 0.21484 0.11719 0.21484 0.26562m0.12891 0c0-0.23438-0.15234-0.42969-0.34375-0.42969s-0.34375 0.19531-0.34375 0.42969 0.15234 0.42969 0.34375 0.42969 0.34375-0.19531 0.34375-0.42969" fill="#211e1e"/><path d="m0.21484 1c0 0.14844-0.097656 0.26562-0.21484 0.26562s-0.21484-0.11719-0.21484-0.26562c0-0.14844 0.097656-0.26562 0.21484-0.26562s0.21484 0.11719 0.21484 0.26562m0.12891 0c0-0.23438-0.15234-0.42969-0.34375-0.42969s-0.34375 0.19531-0.34375 0.42969 0.15234 0.42969 0.34375 0.42969 0.34375-0.19531 0.34375-0.42969" fill="#211e1e"/></g><pattern id="k" width="5" height="2" patternTransform="matrix(.88204 .38134 .30722 -.7106 1.2828 792.61)" patternUnits="userSpaceOnUse"><use xlink:href="#e"/></pattern><clipPath id="o"><path d="m351 163h10v10h-10z"/></clipPath><clipPath id="n"><path d="m360.93 169.58-6.2461-6.1797-2.8867 2.9141 6.25 6.1758z"/></clipPath><clipPath id="m"><rect width="5" height="2"/></clipPath><g id="d" clip-path="url(#m)"><path d="m0.84375 2c0 0.14844-0.097656 0.26562-0.21484 0.26562-0.12109 0-0.21484-0.11719-0.21484-0.26562 0-0.14844 0.09375-0.26562 0.21484-0.26562 0.11719 0 0.21484 0.11719 0.21484 0.26562m0.12891 0c0-0.23438-0.15625-0.42578-0.34375-0.42578-0.19141 0-0.34766 0.19141-0.34766 0.42578s0.15625 0.42969 0.34766 0.42969c0.1875 0 0.34375-0.19531 0.34375-0.42969" fill="#211e1e"/><path d="m2.0938 2c0 0.14844-0.097656 0.26562-0.21484 0.26562-0.12109 0-0.21484-0.11719-0.21484-0.26562 0-0.14844 0.09375-0.26562 0.21484-0.26562 0.11719 0 0.21484 0.11719 0.21484 0.26562m0.12891 0c0-0.23438-0.15625-0.42578-0.34375-0.42578-0.19141 0-0.34766 0.19141-0.34766 0.42578s0.15625 0.42969 0.34766 0.42969c0.1875 0 0.34375-0.19531 0.34375-0.42969" fill="#211e1e"/><path d="m3.3398 2c0 0.14844-0.09375 0.26562-0.21484 0.26562-0.11719 0-0.21484-0.11719-0.21484-0.26562 0-0.14844 0.097657-0.26562 0.21484-0.26562 0.12109 0 0.21484 0.11719 0.21484 0.26562m0.13281 0c0-0.23438-0.15625-0.42578-0.34766-0.42578-0.1875 0-0.34375 0.19141-0.34375 0.42578s0.15625 0.42969 0.34375 0.42969c0.19141 0 0.34766-0.19531 0.34766-0.42969" fill="#211e1e"/><path d="m4.5898 2c0 0.14844-0.097656 0.26562-0.21484 0.26562-0.11719 0-0.21484-0.11719-0.21484-0.26562 0-0.14844 0.097657-0.26562 0.21484-0.26562 0.11719 0 0.21484 0.11719 0.21484 0.26562m0.13281 0c0-0.23438-0.15625-0.42578-0.34766-0.42578-0.1875 0-0.34375 0.19141-0.34375 0.42578s0.15625 0.42969 0.34375 0.42969c0.19141 0 0.34766-0.19531 0.34766-0.42969" fill="#211e1e"/><path d="m0.84375 0c0 0.14844-0.097656 0.26562-0.21484 0.26562-0.12109 0-0.21484-0.11719-0.21484-0.26562s0.09375-0.26562 0.21484-0.26562c0.11719 0 0.21484 0.11719 0.21484 0.26562m0.12891 0c0-0.23438-0.15625-0.42578-0.34375-0.42578-0.19141 0-0.34766 0.19141-0.34766 0.42578s0.15625 0.42969 0.34766 0.42969c0.1875 0 0.34375-0.19531 0.34375-0.42969" fill="#211e1e"/><path d="m2.0898 0c0 0.14844-0.09375 0.26562-0.21484 0.26562-0.11719 0-0.21484-0.11719-0.21484-0.26562s0.097657-0.26562 0.21484-0.26562c0.12109 0 0.21484 0.11719 0.21484 0.26562m0.13281 0c0-0.23438-0.15625-0.42578-0.34766-0.42578-0.1875 0-0.34375 0.19141-0.34375 0.42578s0.15625 0.42969 0.34375 0.42969c0.19141 0 0.34766-0.19531 0.34766-0.42969" fill="#211e1e"/><path d="m3.3398 0c0 0.14844-0.09375 0.26562-0.21484 0.26562-0.11719 0-0.21484-0.11719-0.21484-0.26562s0.097657-0.26562 0.21484-0.26562c0.12109 0 0.21484 0.11719 0.21484 0.26562m0.13281 0c0-0.23438-0.15625-0.42578-0.34766-0.42578-0.1875 0-0.34375 0.19141-0.34375 0.42578s0.15625 0.42969 0.34375 0.42969c0.19141 0 0.34766-0.19531 0.34766-0.42969" fill="#211e1e"/><path d="m4.5898 0c0 0.14844-0.097656 0.26562-0.21484 0.26562-0.11719 0-0.21484-0.11719-0.21484-0.26562s0.097657-0.26562 0.21484-0.26562c0.11719 0 0.21484 0.11719 0.21484 0.26562m0.12891 0c0-0.23438-0.15234-0.42578-0.34375-0.42578-0.1875 0-0.34375 0.19141-0.34375 0.42578s0.15625 0.42969 0.34375 0.42969c0.19141 0 0.34375-0.19531 0.34375-0.42969" fill="#211e1e"/><path d="m5.2148 1c0 0.14844-0.097656 0.26562-0.21484 0.26562-0.11719 0-0.21484-0.11719-0.21484-0.26562 0-0.14844 0.097657-0.26562 0.21484-0.26562 0.11719 0 0.21484 0.11719 0.21484 0.26562m0.12891 0c0-0.23438-0.15234-0.42969-0.34375-0.42969s-0.34375 0.19531-0.34375 0.42969 0.15234 0.42969 0.34375 0.42969 0.34375-0.19531 0.34375-0.42969" fill="#211e1e"/><path d="m3.9648 1c0 0.14844-0.097656 0.26562-0.21484 0.26562-0.11719 0-0.21484-0.11719-0.21484-0.26562 0-0.14844 0.097657-0.26562 0.21484-0.26562 0.11719 0 0.21484 0.11719 0.21484 0.26562m0.12891 0c0-0.23438-0.15234-0.42969-0.34375-0.42969s-0.34375 0.19531-0.34375 0.42969 0.15234 0.42969 0.34375 0.42969 0.34375-0.19531 0.34375-0.42969" fill="#211e1e"/><path d="m2.7148 1c0 0.14844-0.097656 0.26562-0.21484 0.26562-0.11719 0-0.21484-0.11719-0.21484-0.26562 0-0.14844 0.097657-0.26562 0.21484-0.26562 0.11719 0 0.21484 0.11719 0.21484 0.26562m0.12891 0c0-0.23438-0.15234-0.42969-0.34375-0.42969s-0.34375 0.19531-0.34375 0.42969 0.15234 0.42969 0.34375 0.42969 0.34375-0.19531 0.34375-0.42969" fill="#211e1e"/><path d="m1.4648 1c0 0.14844-0.097656 0.26562-0.21484 0.26562-0.11719 0-0.21484-0.11719-0.21484-0.26562 0-0.14844 0.097657-0.26562 0.21484-0.26562 0.11719 0 0.21484 0.11719 0.21484 0.26562m0.12891 0c0-0.23438-0.15234-0.42969-0.34375-0.42969s-0.34375 0.19531-0.34375 0.42969 0.15234 0.42969 0.34375 0.42969 0.34375-0.19531 0.34375-0.42969" fill="#211e1e"/><path d="m0.21484 1c0 0.14844-0.097656 0.26562-0.21484 0.26562s-0.21484-0.11719-0.21484-0.26562c0-0.14844 0.097656-0.26562 0.21484-0.26562s0.21484 0.11719 0.21484 0.26562m0.12891 0c0-0.23438-0.15234-0.42969-0.34375-0.42969s-0.34375 0.19531-0.34375 0.42969 0.15234 0.42969 0.34375 0.42969 0.34375-0.19531 0.34375-0.42969" fill="#211e1e"/></g><pattern id="j" width="5" height="2" patternTransform="matrix(.88204 .38134 .30722 -.7106 1.2828 792.61)" patternUnits="userSpaceOnUse"><use xlink:href="#d"/></pattern><clipPath id="ac"><path d="m260 88h10v10h-10z"/></clipPath><clipPath id="ab"><path d="m265.84 97.547-5.0547-7.1875 3.3555-2.3594 5.0508 7.1914z"/></clipPath><clipPath id="aa"><rect width="5" height="2"/></clipPath><g id="c" clip-path="url(#aa)"><path d="m0.84375 2c0 0.14844-0.097656 0.26562-0.21484 0.26562-0.12109 0-0.21484-0.11719-0.21484-0.26562 0-0.14844 0.09375-0.26562 0.21484-0.26562 0.11719 0 0.21484 0.11719 0.21484 0.26562m0.12891 0c0-0.23438-0.15625-0.42578-0.34375-0.42578-0.19141 0-0.34766 0.19141-0.34766 0.42578s0.15625 0.42969 0.34766 0.42969c0.1875 0 0.34375-0.19531 0.34375-0.42969" fill="#211e1e"/><path d="m2.0938 2c0 0.14844-0.097656 0.26562-0.21484 0.26562-0.12109 0-0.21484-0.11719-0.21484-0.26562 0-0.14844 0.09375-0.26562 0.21484-0.26562 0.11719 0 0.21484 0.11719 0.21484 0.26562m0.12891 0c0-0.23438-0.15625-0.42578-0.34375-0.42578-0.19141 0-0.34766 0.19141-0.34766 0.42578s0.15625 0.42969 0.34766 0.42969c0.1875 0 0.34375-0.19531 0.34375-0.42969" fill="#211e1e"/><path d="m3.3398 2c0 0.14844-0.09375 0.26562-0.21484 0.26562-0.11719 0-0.21484-0.11719-0.21484-0.26562 0-0.14844 0.097657-0.26562 0.21484-0.26562 0.12109 0 0.21484 0.11719 0.21484 0.26562m0.13281 0c0-0.23438-0.15625-0.42578-0.34766-0.42578-0.1875 0-0.34375 0.19141-0.34375 0.42578s0.15625 0.42969 0.34375 0.42969c0.19141 0 0.34766-0.19531 0.34766-0.42969" fill="#211e1e"/><path d="m4.5898 2c0 0.14844-0.097656 0.26562-0.21484 0.26562-0.11719 0-0.21484-0.11719-0.21484-0.26562 0-0.14844 0.097657-0.26562 0.21484-0.26562 0.11719 0 0.21484 0.11719 0.21484 0.26562m0.13281 0c0-0.23438-0.15625-0.42578-0.34766-0.42578-0.1875 0-0.34375 0.19141-0.34375 0.42578s0.15625 0.42969 0.34375 0.42969c0.19141 0 0.34766-0.19531 0.34766-0.42969" fill="#211e1e"/><path d="m0.84375 0c0 0.14844-0.097656 0.26562-0.21484 0.26562-0.12109 0-0.21484-0.11719-0.21484-0.26562s0.09375-0.26562 0.21484-0.26562c0.11719 0 0.21484 0.11719 0.21484 0.26562m0.12891 0c0-0.23438-0.15625-0.42578-0.34375-0.42578-0.19141 0-0.34766 0.19141-0.34766 0.42578s0.15625 0.42969 0.34766 0.42969c0.1875 0 0.34375-0.19531 0.34375-0.42969" fill="#211e1e"/><path d="m2.0898 0c0 0.14844-0.09375 0.26562-0.21484 0.26562-0.11719 0-0.21484-0.11719-0.21484-0.26562s0.097657-0.26562 0.21484-0.26562c0.12109 0 0.21484 0.11719 0.21484 0.26562m0.13281 0c0-0.23438-0.15625-0.42578-0.34766-0.42578-0.1875 0-0.34375 0.19141-0.34375 0.42578s0.15625 0.42969 0.34375 0.42969c0.19141 0 0.34766-0.19531 0.34766-0.42969" fill="#211e1e"/><path d="m3.3398 0c0 0.14844-0.09375 0.26562-0.21484 0.26562-0.11719 0-0.21484-0.11719-0.21484-0.26562s0.097657-0.26562 0.21484-0.26562c0.12109 0 0.21484 0.11719 0.21484 0.26562m0.13281 0c0-0.23438-0.15625-0.42578-0.34766-0.42578-0.1875 0-0.34375 0.19141-0.34375 0.42578s0.15625 0.42969 0.34375 0.42969c0.19141 0 0.34766-0.19531 0.34766-0.42969" fill="#211e1e"/><path d="m4.5898 0c0 0.14844-0.097656 0.26562-0.21484 0.26562-0.11719 0-0.21484-0.11719-0.21484-0.26562s0.097657-0.26562 0.21484-0.26562c0.11719 0 0.21484 0.11719 0.21484 0.26562m0.12891 0c0-0.23438-0.15234-0.42578-0.34375-0.42578-0.1875 0-0.34375 0.19141-0.34375 0.42578s0.15625 0.42969 0.34375 0.42969c0.19141 0 0.34375-0.19531 0.34375-0.42969" fill="#211e1e"/><path d="m5.2148 1c0 0.14844-0.097656 0.26562-0.21484 0.26562-0.11719 0-0.21484-0.11719-0.21484-0.26562 0-0.14844 0.097657-0.26562 0.21484-0.26562 0.11719 0 0.21484 0.11719 0.21484 0.26562m0.12891 0c0-0.23438-0.15234-0.42969-0.34375-0.42969s-0.34375 0.19531-0.34375 0.42969 0.15234 0.42969 0.34375 0.42969 0.34375-0.19531 0.34375-0.42969" fill="#211e1e"/><path d="m3.9648 1c0 0.14844-0.097656 0.26562-0.21484 0.26562-0.11719 0-0.21484-0.11719-0.21484-0.26562 0-0.14844 0.097657-0.26562 0.21484-0.26562 0.11719 0 0.21484 0.11719 0.21484 0.26562m0.12891 0c0-0.23438-0.15234-0.42969-0.34375-0.42969s-0.34375 0.19531-0.34375 0.42969 0.15234 0.42969 0.34375 0.42969 0.34375-0.19531 0.34375-0.42969" fill="#211e1e"/><path d="m2.7148 1c0 0.14844-0.097656 0.26562-0.21484 0.26562-0.11719 0-0.21484-0.11719-0.21484-0.26562 0-0.14844 0.097657-0.26562 0.21484-0.26562 0.11719 0 0.21484 0.11719 0.21484 0.26562m0.12891 0c0-0.23438-0.15234-0.42969-0.34375-0.42969s-0.34375 0.19531-0.34375 0.42969 0.15234 0.42969 0.34375 0.42969 0.34375-0.19531 0.34375-0.42969" fill="#211e1e"/><path d="m1.4648 1c0 0.14844-0.097656 0.26562-0.21484 0.26562-0.11719 0-0.21484-0.11719-0.21484-0.26562 0-0.14844 0.097657-0.26562 0.21484-0.26562 0.11719 0 0.21484 0.11719 0.21484 0.26562m0.12891 0c0-0.23438-0.15234-0.42969-0.34375-0.42969s-0.34375 0.19531-0.34375 0.42969 0.15234 0.42969 0.34375 0.42969 0.34375-0.19531 0.34375-0.42969" fill="#211e1e"/><path d="m0.21484 1c0 0.14844-0.097656 0.26562-0.21484 0.26562s-0.21484-0.11719-0.21484-0.26562c0-0.14844 0.097656-0.26562 0.21484-0.26562s0.21484 0.11719 0.21484 0.26562m0.12891 0c0-0.23438-0.15234-0.42969-0.34375-0.42969s-0.34375 0.19531-0.34375 0.42969 0.15234 0.42969 0.34375 0.42969 0.34375-0.19531 0.34375-0.42969" fill="#211e1e"/></g><pattern id="i" width="5" height="2" patternTransform="matrix(.88204 .38134 .30722 -.7106 1.2828 792.61)" patternUnits="userSpaceOnUse"><use xlink:href="#c"/></pattern><clipPath id="z"><path d="m342 365h10v10h-10z"/></clipPath><clipPath id="y"><path d="m346.16 365.25 5.0547 7.1875-3.3555 2.3594-5.0508-7.1914z"/></clipPath><clipPath id="x"><rect width="5" height="2"/></clipPath><g id="b" clip-path="url(#x)"><path d="m0.84375 2c0 0.14844-0.097656 0.26562-0.21484 0.26562-0.12109 0-0.21484-0.11719-0.21484-0.26562 0-0.14844 0.09375-0.26562 0.21484-0.26562 0.11719 0 0.21484 0.11719 0.21484 0.26562m0.12891 0c0-0.23438-0.15625-0.42578-0.34375-0.42578-0.19141 0-0.34766 0.19141-0.34766 0.42578s0.15625 0.42969 0.34766 0.42969c0.1875 0 0.34375-0.19531 0.34375-0.42969" fill="#211e1e"/><path d="m2.0938 2c0 0.14844-0.097656 0.26562-0.21484 0.26562-0.12109 0-0.21484-0.11719-0.21484-0.26562 0-0.14844 0.09375-0.26562 0.21484-0.26562 0.11719 0 0.21484 0.11719 0.21484 0.26562m0.12891 0c0-0.23438-0.15625-0.42578-0.34375-0.42578-0.19141 0-0.34766 0.19141-0.34766 0.42578s0.15625 0.42969 0.34766 0.42969c0.1875 0 0.34375-0.19531 0.34375-0.42969" fill="#211e1e"/><path d="m3.3398 2c0 0.14844-0.09375 0.26562-0.21484 0.26562-0.11719 0-0.21484-0.11719-0.21484-0.26562 0-0.14844 0.097657-0.26562 0.21484-0.26562 0.12109 0 0.21484 0.11719 0.21484 0.26562m0.13281 0c0-0.23438-0.15625-0.42578-0.34766-0.42578-0.1875 0-0.34375 0.19141-0.34375 0.42578s0.15625 0.42969 0.34375 0.42969c0.19141 0 0.34766-0.19531 0.34766-0.42969" fill="#211e1e"/><path d="m4.5898 2c0 0.14844-0.097656 0.26562-0.21484 0.26562-0.11719 0-0.21484-0.11719-0.21484-0.26562 0-0.14844 0.097657-0.26562 0.21484-0.26562 0.11719 0 0.21484 0.11719 0.21484 0.26562m0.13281 0c0-0.23438-0.15625-0.42578-0.34766-0.42578-0.1875 0-0.34375 0.19141-0.34375 0.42578s0.15625 0.42969 0.34375 0.42969c0.19141 0 0.34766-0.19531 0.34766-0.42969" fill="#211e1e"/><path d="m0.84375 0c0 0.14844-0.097656 0.26562-0.21484 0.26562-0.12109 0-0.21484-0.11719-0.21484-0.26562s0.09375-0.26562 0.21484-0.26562c0.11719 0 0.21484 0.11719 0.21484 0.26562m0.12891 0c0-0.23438-0.15625-0.42578-0.34375-0.42578-0.19141 0-0.34766 0.19141-0.34766 0.42578s0.15625 0.42969 0.34766 0.42969c0.1875 0 0.34375-0.19531 0.34375-0.42969" fill="#211e1e"/><path d="m2.0898 0c0 0.14844-0.09375 0.26562-0.21484 0.26562-0.11719 0-0.21484-0.11719-0.21484-0.26562s0.097657-0.26562 0.21484-0.26562c0.12109 0 0.21484 0.11719 0.21484 0.26562m0.13281 0c0-0.23438-0.15625-0.42578-0.34766-0.42578-0.1875 0-0.34375 0.19141-0.34375 0.42578s0.15625 0.42969 0.34375 0.42969c0.19141 0 0.34766-0.19531 0.34766-0.42969" fill="#211e1e"/><path d="m3.3398 0c0 0.14844-0.09375 0.26562-0.21484 0.26562-0.11719 0-0.21484-0.11719-0.21484-0.26562s0.097657-0.26562 0.21484-0.26562c0.12109 0 0.21484 0.11719 0.21484 0.26562m0.13281 0c0-0.23438-0.15625-0.42578-0.34766-0.42578-0.1875 0-0.34375 0.19141-0.34375 0.42578s0.15625 0.42969 0.34375 0.42969c0.19141 0 0.34766-0.19531 0.34766-0.42969" fill="#211e1e"/><path d="m4.5898 0c0 0.14844-0.097656 0.26562-0.21484 0.26562-0.11719 0-0.21484-0.11719-0.21484-0.26562s0.097657-0.26562 0.21484-0.26562c0.11719 0 0.21484 0.11719 0.21484 0.26562m0.12891 0c0-0.23438-0.15234-0.42578-0.34375-0.42578-0.1875 0-0.34375 0.19141-0.34375 0.42578s0.15625 0.42969 0.34375 0.42969c0.19141 0 0.34375-0.19531 0.34375-0.42969" fill="#211e1e"/><path d="m5.2148 1c0 0.14844-0.097656 0.26562-0.21484 0.26562-0.11719 0-0.21484-0.11719-0.21484-0.26562 0-0.14844 0.097657-0.26562 0.21484-0.26562 0.11719 0 0.21484 0.11719 0.21484 0.26562m0.12891 0c0-0.23438-0.15234-0.42969-0.34375-0.42969s-0.34375 0.19531-0.34375 0.42969 0.15234 0.42969 0.34375 0.42969 0.34375-0.19531 0.34375-0.42969" fill="#211e1e"/><path d="m3.9648 1c0 0.14844-0.097656 0.26562-0.21484 0.26562-0.11719 0-0.21484-0.11719-0.21484-0.26562 0-0.14844 0.097657-0.26562 0.21484-0.26562 0.11719 0 0.21484 0.11719 0.21484 0.26562m0.12891 0c0-0.23438-0.15234-0.42969-0.34375-0.42969s-0.34375 0.19531-0.34375 0.42969 0.15234 0.42969 0.34375 0.42969 0.34375-0.19531 0.34375-0.42969" fill="#211e1e"/><path d="m2.7148 1c0 0.14844-0.097656 0.26562-0.21484 0.26562-0.11719 0-0.21484-0.11719-0.21484-0.26562 0-0.14844 0.097657-0.26562 0.21484-0.26562 0.11719 0 0.21484 0.11719 0.21484 0.26562m0.12891 0c0-0.23438-0.15234-0.42969-0.34375-0.42969s-0.34375 0.19531-0.34375 0.42969 0.15234 0.42969 0.34375 0.42969 0.34375-0.19531 0.34375-0.42969" fill="#211e1e"/><path d="m1.4648 1c0 0.14844-0.097656 0.26562-0.21484 0.26562-0.11719 0-0.21484-0.11719-0.21484-0.26562 0-0.14844 0.097657-0.26562 0.21484-0.26562 0.11719 0 0.21484 0.11719 0.21484 0.26562m0.12891 0c0-0.23438-0.15234-0.42969-0.34375-0.42969s-0.34375 0.19531-0.34375 0.42969 0.15234 0.42969 0.34375 0.42969 0.34375-0.19531 0.34375-0.42969" fill="#211e1e"/><path d="m0.21484 1c0 0.14844-0.097656 0.26562-0.21484 0.26562s-0.21484-0.11719-0.21484-0.26562c0-0.14844 0.097656-0.26562 0.21484-0.26562s0.21484 0.11719 0.21484 0.26562m0.12891 0c0-0.23438-0.15234-0.42969-0.34375-0.42969s-0.34375 0.19531-0.34375 0.42969 0.15234 0.42969 0.34375 0.42969 0.34375-0.19531 0.34375-0.42969" fill="#211e1e"/></g><pattern id="h" width="5" height="2" patternTransform="matrix(.88204 .38134 .30722 -.7106 1.2828 792.61)" patternUnits="userSpaceOnUse"><use xlink:href="#b"/></pattern><clipPath id="w"><path d="m251 290h10v10h-10z"/></clipPath><clipPath id="v"><path d="m251.07 293.21 6.2461 6.1797 2.8828-2.9141-6.2461-6.1758z"/></clipPath><clipPath id="u"><rect width="5" height="2"/></clipPath><g id="a" clip-path="url(#u)"><path d="m0.84375 2c0 0.14844-0.097656 0.26562-0.21484 0.26562-0.12109 0-0.21484-0.11719-0.21484-0.26562 0-0.14844 0.09375-0.26562 0.21484-0.26562 0.11719 0 0.21484 0.11719 0.21484 0.26562m0.12891 0c0-0.23438-0.15625-0.42578-0.34375-0.42578-0.19141 0-0.34766 0.19141-0.34766 0.42578s0.15625 0.42969 0.34766 0.42969c0.1875 0 0.34375-0.19531 0.34375-0.42969" fill="#211e1e"/><path d="m2.0938 2c0 0.14844-0.097656 0.26562-0.21484 0.26562-0.12109 0-0.21484-0.11719-0.21484-0.26562 0-0.14844 0.09375-0.26562 0.21484-0.26562 0.11719 0 0.21484 0.11719 0.21484 0.26562m0.12891 0c0-0.23438-0.15625-0.42578-0.34375-0.42578-0.19141 0-0.34766 0.19141-0.34766 0.42578s0.15625 0.42969 0.34766 0.42969c0.1875 0 0.34375-0.19531 0.34375-0.42969" fill="#211e1e"/><path d="m3.3398 2c0 0.14844-0.09375 0.26562-0.21484 0.26562-0.11719 0-0.21484-0.11719-0.21484-0.26562 0-0.14844 0.097657-0.26562 0.21484-0.26562 0.12109 0 0.21484 0.11719 0.21484 0.26562m0.13281 0c0-0.23438-0.15625-0.42578-0.34766-0.42578-0.1875 0-0.34375 0.19141-0.34375 0.42578s0.15625 0.42969 0.34375 0.42969c0.19141 0 0.34766-0.19531 0.34766-0.42969" fill="#211e1e"/><path d="m4.5898 2c0 0.14844-0.097656 0.26562-0.21484 0.26562-0.11719 0-0.21484-0.11719-0.21484-0.26562 0-0.14844 0.097657-0.26562 0.21484-0.26562 0.11719 0 0.21484 0.11719 0.21484 0.26562m0.13281 0c0-0.23438-0.15625-0.42578-0.34766-0.42578-0.1875 0-0.34375 0.19141-0.34375 0.42578s0.15625 0.42969 0.34375 0.42969c0.19141 0 0.34766-0.19531 0.34766-0.42969" fill="#211e1e"/><path d="m0.84375 0c0 0.14844-0.097656 0.26562-0.21484 0.26562-0.12109 0-0.21484-0.11719-0.21484-0.26562s0.09375-0.26562 0.21484-0.26562c0.11719 0 0.21484 0.11719 0.21484 0.26562m0.12891 0c0-0.23438-0.15625-0.42578-0.34375-0.42578-0.19141 0-0.34766 0.19141-0.34766 0.42578s0.15625 0.42969 0.34766 0.42969c0.1875 0 0.34375-0.19531 0.34375-0.42969" fill="#211e1e"/><path d="m2.0898 0c0 0.14844-0.09375 0.26562-0.21484 0.26562-0.11719 0-0.21484-0.11719-0.21484-0.26562s0.097657-0.26562 0.21484-0.26562c0.12109 0 0.21484 0.11719 0.21484 0.26562m0.13281 0c0-0.23438-0.15625-0.42578-0.34766-0.42578-0.1875 0-0.34375 0.19141-0.34375 0.42578s0.15625 0.42969 0.34375 0.42969c0.19141 0 0.34766-0.19531 0.34766-0.42969" fill="#211e1e"/><path d="m3.3398 0c0 0.14844-0.09375 0.26562-0.21484 0.26562-0.11719 0-0.21484-0.11719-0.21484-0.26562s0.097657-0.26562 0.21484-0.26562c0.12109 0 0.21484 0.11719 0.21484 0.26562m0.13281 0c0-0.23438-0.15625-0.42578-0.34766-0.42578-0.1875 0-0.34375 0.19141-0.34375 0.42578s0.15625 0.42969 0.34375 0.42969c0.19141 0 0.34766-0.19531 0.34766-0.42969" fill="#211e1e"/><path d="m4.5898 0c0 0.14844-0.097656 0.26562-0.21484 0.26562-0.11719 0-0.21484-0.11719-0.21484-0.26562s0.097657-0.26562 0.21484-0.26562c0.11719 0 0.21484 0.11719 0.21484 0.26562m0.12891 0c0-0.23438-0.15234-0.42578-0.34375-0.42578-0.1875 0-0.34375 0.19141-0.34375 0.42578s0.15625 0.42969 0.34375 0.42969c0.19141 0 0.34375-0.19531 0.34375-0.42969" fill="#211e1e"/><path d="m5.2148 1c0 0.14844-0.097656 0.26562-0.21484 0.26562-0.11719 0-0.21484-0.11719-0.21484-0.26562 0-0.14844 0.097657-0.26562 0.21484-0.26562 0.11719 0 0.21484 0.11719 0.21484 0.26562m0.12891 0c0-0.23438-0.15234-0.42969-0.34375-0.42969s-0.34375 0.19531-0.34375 0.42969 0.15234 0.42969 0.34375 0.42969 0.34375-0.19531 0.34375-0.42969" fill="#211e1e"/><path d="m3.9648 1c0 0.14844-0.097656 0.26562-0.21484 0.26562-0.11719 0-0.21484-0.11719-0.21484-0.26562 0-0.14844 0.097657-0.26562 0.21484-0.26562 0.11719 0 0.21484 0.11719 0.21484 0.26562m0.12891 0c0-0.23438-0.15234-0.42969-0.34375-0.42969s-0.34375 0.19531-0.34375 0.42969 0.15234 0.42969 0.34375 0.42969 0.34375-0.19531 0.34375-0.42969" fill="#211e1e"/><path d="m2.7148 1c0 0.14844-0.097656 0.26562-0.21484 0.26562-0.11719 0-0.21484-0.11719-0.21484-0.26562 0-0.14844 0.097657-0.26562 0.21484-0.26562 0.11719 0 0.21484 0.11719 0.21484 0.26562m0.12891 0c0-0.23438-0.15234-0.42969-0.34375-0.42969s-0.34375 0.19531-0.34375 0.42969 0.15234 0.42969 0.34375 0.42969 0.34375-0.19531 0.34375-0.42969" fill="#211e1e"/><path d="m1.4648 1c0 0.14844-0.097656 0.26562-0.21484 0.26562-0.11719 0-0.21484-0.11719-0.21484-0.26562 0-0.14844 0.097657-0.26562 0.21484-0.26562 0.11719 0 0.21484 0.11719 0.21484 0.26562m0.12891 0c0-0.23438-0.15234-0.42969-0.34375-0.42969s-0.34375 0.19531-0.34375 0.42969 0.15234 0.42969 0.34375 0.42969 0.34375-0.19531 0.34375-0.42969" fill="#211e1e"/><path d="m0.21484 1c0 0.14844-0.097656 0.26562-0.21484 0.26562s-0.21484-0.11719-0.21484-0.26562c0-0.14844 0.097656-0.26562 0.21484-0.26562s0.21484 0.11719 0.21484 0.26562m0.12891 0c0-0.23438-0.15234-0.42969-0.34375-0.42969s-0.34375 0.19531-0.34375 0.42969 0.15234 0.42969 0.34375 0.42969 0.34375-0.19531 0.34375-0.42969" fill="#211e1e"/></g><pattern id="g" width="5" height="2" patternTransform="matrix(.88204 .38134 .30722 -.7106 1.2828 792.61)" patternUnits="userSpaceOnUse"><use xlink:href="#a"/></pattern></defs><g><path d="m0 0h251v330.17h-251z" fill="#b0b0b0"/><path d="m157.07 47.645h-11.293v250.59h11.293z" fill="#35b53f"/><path d="m0 44.426h28.414v241.32h-28.414z" fill="#aed1bf"/></g><g fill="none" stroke="#fff" stroke-width="2"><path d="m55.309 184.81 28.512 28.621"/><path d="m55.309 168.59 28.512 28.621"/><path d="m55.309 152.38 28.512 28.617"/><path d="m55.309 136.17 28.512 28.621"/><path d="m55.309 119.95 28.512 28.621"/><path d="m55.309 103.74 28.512 28.621"/></g><path d="m0 285.74v27h71.926c9.9414 0 18-8.0586 18-18v-46.367c0-9.9414-4.0117-11.953-11.039-18.98l-22.871-22.871c-0.37109-0.39063-0.58203-0.91016-0.58593-1.4492l-0.0156-112.48c0-1.1641 0.94141-2.1055 2.1055-2.1055 0.58203 0 1.1094 0.23437 1.4883 0.61718l27.324 27.316c0.38281 0.38281 0.90625 0.61719 1.4883 0.61719 1.1641 0 2.1055-0.94141 2.1055-2.1055v-81.512c0-9.9414-8.0586-18-18-18h-71.926v27h28.414v241.32z" fill="#d7d7d7"/><path d="m0 315.74h71.926c11.578 0 21-9.4219 21-21v-52.906" fill="none" stroke="#fff" stroke-miterlimit="10" stroke-width="2"/><path d="m0 14.426h71.926c11.578 0 21 9.4219 21 21v86.066" fill="none" stroke="#fff" stroke-miterlimit="10" stroke-width="2"/><path d="m167.96 312.74h-84.793l3.7773-3h77.504z" fill="#fff"/><path d="m158.12 298.49h-65.082" fill="none" stroke="#fff" stroke-width="3"/><path d="m85.344 298.93-5.0547 7.1875 3.3555 2.3594 5.0508-7.1914z" fill="#facc2b"/><g transform="translate(-180.5 -66.312)" clip-path="url(#ad)"><g clip-path="url(#t)"><path d="m260.79 374.79h8.4024v-9.5469h-8.4024z" fill="url(#l)"/></g></g><path d="m85.344 298.93-5.0547 7.1875 3.3555 2.3594 5.0508-7.1914zm0 0" fill="none" stroke="#211e1e" stroke-linecap="round" stroke-linejoin="round" stroke-width=".5"/><g><path d="m85.344 298.93 3.3516 2.3555 0.89453-3.3516zm0 0" fill="#d7d7d7" stroke="#211e1e" stroke-linecap="round" stroke-linejoin="round" stroke-width=".5"/><path d="m80.289 306.12 3.3555 2.3555-2.8555 1.9805zm0 0" fill="#d7d7d7" stroke="#211e1e" stroke-linecap="round" stroke-linejoin="round" stroke-width=".5"/><path d="m79.641 214.94c0.23438 0.23437 0.23438 0.61328 0 0.84765l-4.2422 4.2422c-0.23438 0.23437-0.61328 0.23437-0.84766 0l-4.2422-4.2422c-0.23437-0.23437-0.23437-0.61328 0-0.84765l4.2422-4.2422c0.23438-0.23438 0.61328-0.23438 0.84766 0z" fill="#fff"/><path d="m77.359 215.95-1.6797-0.69531-1.1289 1.1289-1.6523-1.4375c-0.0937-0.0156-0.1836-0.0586-0.25782-0.13281-0.1875-0.1875-0.1875-0.48828 0-0.67578s0.49219-0.1875 0.67969 0c0.16016 0.16015 0.1836 0.41015 0.0625 0.59765l0.59766 0.51954 0.78125-0.78125 0.33984 0.33984-0.7539 0.75781 0.17968 0.15625 1.0391-1.0391 1.5352 0.63672 0.1836-0.44531 0.4414 0.18359zm-0.98437 1.5781c-0.63281 0.63282-1.6602 0.63672-2.293 4e-3 -0.44531-0.44922-0.57812-1.0938-0.39062-1.6562l0.40625 0.35547c-0.043 0.33984 0.0625 0.69922 0.32421 0.96094 0.44532 0.44531 1.168 0.44531 1.6133-4e-3 0.43359-0.43359 0.44531-1.1328 0.0312-1.5781l0.71093 0.29297c0.17188 0.55469 0.0352 1.1875-0.40234 1.625m-1.4844-6.4883-4.2422 4.2422c-0.0469 0.0469-0.0469 0.12109 0 0.16797l4.2422 4.2422c0.0469 0.0469 0.1211 0.0469 0.16797 0l4.2422-4.2422c0.0469-0.0469 0.0469-0.1211 0-0.16797l-4.2422-4.2422c-0.0469-0.0469-0.12109-0.0469-0.16797 0" fill="#14549c"/><path d="m53.727 188.22h-2.8711v3h-2.0312v7.8164h2.0312v3h2.8711z" fill="#211e1e"/><path d="m53.727 89.906h-2.8711v3h-2.0312v7.8164h2.0312v3h2.8711z" fill="#211e1e"/><path d="m251 285.74h-28.414v-241.32h28.414z" fill="#aed1bf"/></g><g fill="none" stroke-width="2"><path d="m122.5 47.469v235.23" stroke="#facc2b"/><path d="m125.5 282.7v-235.23" stroke="#facc2b"/><g stroke="#fff"><path d="m195.69 145.36-28.512-28.621"/><path d="m195.69 161.57-28.512-28.621"/><path d="m195.69 177.79-28.512-28.617"/><path d="m195.69 194-28.512-28.621"/><path d="m195.69 210.21-28.512-28.621"/><path d="m195.69 226.43-28.512-28.617"/></g></g><path d="m251 44.426v-27h-71.926c-9.9414 0-18 8.0586-18 18v46.367c0 9.9414 4.0117 11.953 11.039 18.98l22.871 22.871c0.3711 0.39063 0.58204 0.91016 0.58594 1.4492l0.0156 112.48c0 1.1641-0.94141 2.1055-2.1055 2.1055-0.58203 0-1.1094-0.23437-1.4883-0.61719l-27.324-27.316c-0.38281-0.38282-0.90625-0.61719-1.4883-0.61719-1.1641 0-2.1055 0.94141-2.1055 2.1055v81.512c0 9.9414 8.0586 18 18 18h71.926v-27h-28.414v-241.32z" fill="#d7d7d7"/><g fill="none"><path d="m0 312.74h71.926c9.9414 0 18-8.0586 18-18v-46.367c0-9.9414-4.0117-11.953-11.039-18.98l-22.871-22.871c-0.37109-0.39063-0.58203-0.91016-0.58593-1.4492l-0.0156-112.48c0-1.1641 0.9414-2.1055 2.1055-2.1055 0.58203 0 1.1094 0.23437 1.4883 0.61719l27.324 27.316c0.38281 0.38281 0.90625 0.61719 1.4883 0.61719 1.1641 0 2.1055-0.94141 2.1055-2.1055v-81.512c0-9.9414-8.0586-18-18-18h-71.926" stroke="#211e1e" stroke-miterlimit="10"/><path d="m251 17.426h-71.926c-9.9414 0-18 8.0586-18 18v46.367c0 9.9414 4.0117 11.953 11.039 18.98l22.871 22.871c0.3711 0.39063 0.58204 0.91016 0.58594 1.4492l0.0156 112.48c0 1.1641-0.9414 2.1055-2.1055 2.1055-0.58203 0-1.1094-0.23437-1.4883-0.61719l-27.324-27.316c-0.38281-0.38282-0.90625-0.61719-1.4883-0.61719-1.1641 0-2.1055 0.94141-2.1055 2.1055v81.512c0 9.9414 8.0586 18 18 18h71.926" stroke="#211e1e" stroke-miterlimit="10"/><g stroke="#fff"><path d="m251 14.426h-71.926c-11.578 0-21 9.4219-21 21v52.906" stroke-miterlimit="10" stroke-width="2"/><path d="m251 315.74h-71.926c-11.578 0-21-9.4219-21-21v-86.066" stroke-miterlimit="10" stroke-width="2"/><path d="m121.5 49.02h36.574" stroke-width="6"/></g></g><path d="m164.35 20.426h-78.371l-2.8594-3h84.414z" fill="#fff"/><path d="m93.023 31.676h64.898" fill="none" stroke="#fff" stroke-width="3"/><path d="m165.66 31.234 5.0547-7.1875-3.3555-2.3594-5.0508 7.1914z" fill="#facc2b"/><g transform="translate(-180.5 -66.312)" clip-path="url(#r)"><g clip-path="url(#q)"><path d="m342.8 97.547h8.4062v-9.5469h-8.4062z" fill="url(#k)"/></g></g><path d="m165.66 31.234 5.0547-7.1875-3.3555-2.3594-5.0508 7.1914zm0 0" fill="none" stroke="#211e1e" stroke-linecap="round" stroke-linejoin="round" stroke-width=".5"/><g><path d="m165.66 31.234-3.3516-2.3555-0.89453 3.3516zm0 0" fill="#d7d7d7" stroke="#211e1e" stroke-linecap="round" stroke-linejoin="round" stroke-width=".5"/><path d="m170.71 24.047-3.3555-2.3555 2.8516-1.9805zm0 0" fill="#d7d7d7" stroke="#211e1e" stroke-linecap="round" stroke-linejoin="round" stroke-width=".5"/><path d="m180.43 103.27-6.2461-6.1797-2.8867 2.9141 6.25 6.1758z" fill="#facc2b"/></g><g transform="translate(-180.5 -66.312)" clip-path="url(#o)"><g clip-path="url(#n)"><path d="m351.8 172.49h9.1289v-9.0898h-9.1289z" fill="url(#j)"/></g></g><path d="m180.43 103.27-6.2461-6.1797-2.8867 2.9141 6.25 6.1758zm0 0" fill="none" stroke="#211e1e" stroke-linecap="round" stroke-linejoin="round" stroke-width=".5"/><g><path d="m180.43 103.27-2.8828 2.9102 2.2812 2.3086zm0 0" fill="#d7d7d7" stroke="#211e1e" stroke-linecap="round" stroke-linejoin="round" stroke-width=".5"/><path d="m174.18 97.09-2.8828 2.9141-2.3555-2.2734zm0 0" fill="#d7d7d7" stroke="#211e1e" stroke-linecap="round" stroke-linejoin="round" stroke-width=".5"/><path d="m85.344 31.234-5.0547-7.1875 3.3555-2.3594 5.0508 7.1914z" fill="#facc2b"/></g><g transform="translate(-180.5 -66.312)" clip-path="url(#ac)"><g clip-path="url(#ab)"><path d="m260.79 97.547h8.4062v-9.5469h-8.4062z" fill="url(#i)"/></g></g><path d="m85.344 31.234-5.0547-7.1875 3.3555-2.3594 5.0508 7.1914zm0 0" fill="none" stroke="#211e1e" stroke-linecap="round" stroke-linejoin="round" stroke-width=".5"/><g><g><path d="m85.344 31.234 3.3516-2.3555 0.89453 3.3516zm0 0" fill="#d7d7d7" stroke="#211e1e" stroke-linecap="round" stroke-linejoin="round" stroke-width=".5"/><path d="m80.289 24.047 3.3555-2.3555-2.8516-1.9805zm0 0" fill="#d7d7d7" stroke="#211e1e" stroke-linecap="round" stroke-linejoin="round" stroke-width=".5"/><path d="m171.36 115.23c-0.23437-0.23437-0.23437-0.61328 0-0.84765l4.2422-4.2422c0.23438-0.23438 0.61328-0.23438 0.84766 0l4.2422 4.2422c0.23437 0.23437 0.23437 0.61328 0 0.84765l-4.2422 4.2422c-0.23438 0.23437-0.61328 0.23437-0.84766 0z" fill="#fff"/><path d="m173.64 114.22 1.6797 0.69531 1.1289-1.1289 1.6523 1.4375c0.0937 0.0156 0.1836 0.0586 0.25781 0.13281 0.1875 0.1875 0.1875 0.48828 0 0.67578s-0.49218 0.1875-0.67968 0c-0.16016-0.16016-0.1836-0.41016-0.0625-0.59766l-0.59766-0.51953-0.78125 0.78125-0.33984-0.33984 0.7539-0.75781-0.17968-0.15625-1.0391 1.0391-1.5352-0.63672-0.1836 0.44531-0.4414-0.18359zm0.98438-1.5781c0.63281-0.63281 1.6602-0.63671 2.293-4e-3 0.44531 0.44922 0.57812 1.0938 0.39062 1.6562l-0.40625-0.35537c0.043-0.33984-0.0625-0.69922-0.32422-0.96094-0.44531-0.44531-1.168-0.44531-1.6133 4e-3 -0.43359 0.43359-0.44531 1.1328-0.0312 1.5781l-0.71093-0.29297c-0.17188-0.55468-0.0352-1.1875 0.40234-1.625m1.4844 6.4883 4.2422-4.2422c0.0469-0.0469 0.0469-0.1211 0-0.16797l-4.2422-4.2422c-0.0469-0.0469-0.12109-0.0469-0.16796 0l-4.2422 4.2422c-0.0469 0.0469-0.0469 0.125 0 0.16797l4.2422 4.2422c0.0469 0.0469 0.12109 0.0469 0.16796 0" fill="#14549c"/><path d="m154.25 276.74c-0.625 0-1.1524-1.2773-1.332-3.0469l1.2422-0.83985c0.0274 0.043 0.0586 0.0703 0.0899 0.0703 0.10156 0 0.18359-0.25781 0.18359-0.57421 0-0.27344-0.0625-0.50391-0.14453-0.5586l-0.76563-3.1914c0.21094-0.40625 0.46094-0.64063 0.72657-0.64063 0.76953 0 1.3984 1.9688 1.3984 4.3906 0 2.4258-0.6289 4.3906-1.3984 4.3906m-1.3984-4.3906c0-1.2774 0.17578-2.4297 0.45312-3.2305l0.70703 2.9531-1.1484 0.77735c-8e-3 -0.16407-0.0117-0.32813-0.0117-0.5m-0.3086 0.71484-0.54687 0.37109 0.63672-7.1328 0.47656 1.9961c-0.35547 0.99219-0.58203 2.4414-0.58203 4.0508 0 0.24218 8e-3 0.48046 0.0156 0.71484m-0.77734-0.22656-0.0859-1.0156h0.13282v-0.40625h-0.41797v0.40625h0.16406l0.0859 1.0078-1.8008-6.1602c0.0312-0.29297 0.0586-0.59375 0.0898-0.89453h2.4609zm-1.7696-0.48827c0 2.4258-0.62891 4.3906-1.3984 4.3906-0.77344 0-1.3984-1.9648-1.3984-4.3906 0-2.4219 0.625-4.3906 1.3984-4.3906 0.27344 0 0.52735 0.25 0.7461 0.67969-0.17188 1.168-0.50782 2.4297-0.75 3.1406-0.0977 0-0.17969 0.25782-0.17969 0.57032 0 0.3164 0.082 0.57421 0.18359 0.57421 0.0937 0 0.16797-0.21875 0.17969-0.5039 0.11719-0.34375 0.27344-0.85547 0.42578-1.4688 0.11328-0.45703 0.25391-1.0859 0.36328-1.7695 0.26172 0.80078 0.42969 1.9258 0.42969 3.168m4.2539-5.4102c-0.33985 0-0.65625 0.30859-0.92188 0.83984l-0.60547-2.5195 0.0781-0.89062c0.3789-0.10547 0.58984-0.55469 0.57812-0.99219-0.0117-0.42578-0.39062-0.10547-0.80859-0.0898-0.11328 4e-3 -0.71875-4e-3 -0.71485 0.34765 4e-3 0.35547 0.39063 0.65235 0.66407 0.73047l-0.0508 0.54688h-2.4492c0.0508-0.53516 0.0976-1.0312 0.13672-1.4141 0.0312-0.32812 0.0547-0.57422 0.0664-0.69531l-0.17969-0.42969 0.0859-0.26953h0.65625v-0.67969h-0.74609l-0.32031 1.0195 0.20312 0.49609c-0.0937 0.98828-0.32031 3.3164-0.46484 4.7227-0.25391-0.46094-0.54688-0.72266-0.85938-0.72266-0.95312 0-1.7226 2.4219-1.7226 5.4102 0 2.9922 0.76953 5.4141 1.7226 5.4141 0.94922 0 1.7227-2.4219 1.7227-5.4141 0-1.6797-0.2461-3.1836-0.62891-4.1758 0.0195-0.16796 0.0391-0.35546 0.0586-0.55468l1.8516 6.3359v0.0508c0 0.34375 0.0859 0.625 0.19531 0.63671l0.12891 1.5508h-0.13282v0.40625h0.41797v-0.40625h-0.16406l-0.14062-1.6445c0.0312-0.0547 0.0547-0.1289 0.0703-0.21875l0.625-0.42187c0.21094 2.2305 0.87109 3.8555 1.6484 3.8555 0.94921 0 1.7226-2.4219 1.7226-5.4141 0-2.9883-0.77344-5.4102-1.7226-5.4102" fill="#fff"/></g><path d="m148.47 236.83 2.9766-9.4023 2.9414 9.4023-2.0938-1.7578-0.0274 10.012h-1.7344v-10.012z" fill="#fff" fill-rule="evenodd"/><path d="m197.27 141.95h2.8711v-3h2.0312v-7.8164h-2.0312v-3h-2.8711z" fill="#211e1e"/><path d="m197.27 240.26h2.8711v-3h2.0312v-7.8164h-2.0312v-3h-2.8711z" fill="#211e1e"/></g><path d="m126.5 281.15h-33.574" fill="none" stroke="#fff" stroke-width="6"/><path d="m165.66 298.93 5.0547 7.1875-3.3555 2.3594-5.0508-7.1914z" fill="#facc2b"/><g transform="translate(-180.5 -66.312)" clip-path="url(#z)"><g clip-path="url(#y)"><path d="m342.8 374.79h8.4023v-9.5469h-8.4023z" fill="url(#h)"/></g></g><g stroke="#211e1e" stroke-linecap="round" stroke-linejoin="round" stroke-width=".5"><path d="m165.66 298.93 5.0547 7.1875-3.3555 2.3594-5.0508-7.1914z" fill="none"/><path d="m165.66 298.93-3.3516 2.3555-0.89453-3.3516z" fill="#d7d7d7"/><path d="m170.71 306.12-3.3555 2.3555 2.8555 1.9805z" fill="#d7d7d7"/></g><path d="m144.78 208.68v89.715" fill="none" stroke="#fff" stroke-width="2"/><path d="m144.78 47.645v40.688" fill="none" stroke="#fff" stroke-width="2"/><path d="m70.57 226.9 6.2461 6.1797 2.8828-2.9141-6.2461-6.1758z" fill="#facc2b"/><g transform="translate(-180.5 -66.312)" clip-path="url(#w)"><g clip-path="url(#v)"><path d="m251.07 299.39h9.1289v-9.0898h-9.1289z" fill="url(#g)"/></g></g><g stroke="#211e1e" stroke-linecap="round" stroke-linejoin="round" stroke-width=".5"><path d="m70.57 226.9 6.2461 6.1797 2.8828-2.9141-6.2461-6.1758z" fill="none"/><path d="m70.57 226.9 2.8828-2.9102-2.2812-2.3086z" fill="#d7d7d7"/><path d="m76.816 233.08 2.8828-2.9141 2.3555 2.2734z" fill="#d7d7d7"/></g><g fill="#fff"><path d="m107.71 85.914 4.5469-5.457v-1.3633l-4.5469 5.457-4.543-5.457v1.3633z"/><path d="m107.71 83.184 4.5469-5.4531v-1.3672l-4.5469 5.457-4.543-5.457v1.3672z"/><path d="m104.89 61.473c0.625 0 1.1484 1.2852 1.332 3.0547l-1.2422 0.84375c-0.0273-0.0469-0.0586-0.0703-0.0898-0.0703-0.10156 0-0.17969 0.25391-0.17969 0.57422 0 0.27344 0.0586 0.50391 0.14453 0.55859l0.76172 3.1992c-0.21094 0.40625-0.46094 0.64063-0.72656 0.64063-0.76953 0-1.3945-1.9727-1.3945-4.3984 0-2.4297 0.625-4.4023 1.3945-4.4023m1.3945 4.4023c0 1.2812-0.17188 2.4336-0.44922 3.2383l-0.70703-2.9609 1.1484-0.77734c8e-3 0.16406 8e-3 0.32812 8e-3 0.5m0.3125-0.71875 0.54687-0.37109-0.63671 7.1445-0.47657-1.9961c0.35547-0.99609 0.58203-2.4453 0.58203-4.0586 0-0.24609-8e-3 -0.48438-0.0156-0.71875m0.77734 0.23047 0.0859 1.0156h-0.13281v0.41016h0.41797v-0.41016h-0.16797l-0.082-1.0078 1.7969 6.168c-0.0273 0.29297-0.0586 0.59766-0.0859 0.89844h-2.4609zm1.7695 0.48828c0-2.4297 0.625-4.4023 1.3984-4.4023 0.76953 0 1.3945 1.9726 1.3945 4.4023 0 2.4258-0.625 4.3984-1.3945 4.3984-0.27344 0-0.53125-0.25-0.74609-0.67969 0.17187-1.1719 0.5039-2.4336 0.74609-3.1484 0.10156 0 0.17969-0.25781 0.17969-0.57031 0-0.32031-0.082-0.57422-0.17969-0.57422-0.0937 0-0.17187 0.21875-0.18359 0.5-0.11719 0.34766-0.26953 0.85938-0.42188 1.4766-0.11328 0.45313-0.2539 1.0859-0.36328 1.7695-0.26562-0.80078-0.42969-1.9258-0.42969-3.1719m-4.2539 5.4219c0.33984 0 0.65625-0.3125 0.92187-0.84375l0.60547 2.5274-0.082 0.89062c-0.375 0.10157-0.58594 0.55469-0.57422 0.99219 0.0117 0.42578 0.39063 0.10547 0.80469 0.0898 0.11719-4e-3 0.72266 4e-3 0.71875-0.34765-4e-3 -0.35938-0.39063-0.65235-0.66406-0.73438l0.0508-0.54687h2.4492c-0.0508 0.53906-0.10157 1.0352-0.13672 1.418-0.0312 0.32812-0.0547 0.57422-0.0664 0.69922l0.17969 0.42578-0.0859 0.26953h-0.65625v0.68359h0.7461l0.32031-1.0234-0.20313-0.49609c0.0937-0.99219 0.31641-3.3242 0.46485-4.7305 0.25 0.46094 0.54687 0.72656 0.85937 0.72656 0.94922 0 1.7188-2.4297 1.7188-5.4219 0-2.9961-0.76953-5.4258-1.7188-5.4258-0.95312 0-1.7226 2.4297-1.7226 5.4258 0 1.6836 0.24609 3.1875 0.6289 4.1836-0.0195 0.16797-0.0391 0.35547-0.0586 0.55469l-1.8516-6.3477v-0.0508c0-0.34375-0.0859-0.625-0.19532-0.63672l-0.1289-1.5508h0.13281v-0.41015h-0.41797v0.41015h0.16406l0.13672 1.6445c-0.0273 0.0547-0.0508 0.12891-0.0664 0.21875l-0.625 0.42188c-0.21094-2.2344-0.8711-3.8633-1.6484-3.8633-0.94922 0-1.7188 2.4297-1.7188 5.4258 0 2.9922 0.76953 5.4219 1.7188 5.4219"/><path d="m107.71 245.53 4.5469-5.457v-1.3633l-4.5469 5.457-4.543-5.457v1.3633z"/><path d="m107.71 242.8 4.5469-5.4531v-1.3672l-4.5469 5.457-4.543-5.457v1.3672z"/><path d="m104.89 221.09c0.625 0 1.1484 1.2852 1.332 3.0547l-1.2422 0.84375c-0.0273-0.0469-0.0586-0.0703-0.0898-0.0703-0.10156 0-0.17969 0.2539-0.17969 0.57422 0 0.27343 0.0586 0.5039 0.14453 0.55859l0.76172 3.1992c-0.21094 0.40625-0.46094 0.64062-0.72656 0.64062-0.76953 0-1.3945-1.9726-1.3945-4.3984 0-2.4297 0.625-4.4024 1.3945-4.4024m1.3945 4.4024c0 1.2812-0.17188 2.4336-0.44922 3.2383l-0.70703-2.9609 1.1484-0.77734c8e-3 0.16406 8e-3 0.32812 8e-3 0.5m0.3125-0.71875 0.54687-0.36719-0.63671 7.1406-0.47657-1.9961c0.35547-0.99609 0.58203-2.4453 0.58203-4.0586 0-0.2461-8e-3 -0.48438-0.0156-0.71875m0.77734 0.23047 0.0859 1.0156h-0.13281v0.41016h0.41797v-0.41016h-0.16797l-0.082-1.0078 1.7969 6.168c-0.0273 0.29297-0.0586 0.59765-0.0859 0.89843h-2.4609zm1.7695 0.48828c0-2.4297 0.625-4.4024 1.3984-4.4024 0.76953 0 1.3945 1.9727 1.3945 4.4024 0 2.4258-0.625 4.3984-1.3945 4.3984-0.27344 0-0.53125-0.25-0.74609-0.67968 0.17187-1.1719 0.5039-2.4336 0.74609-3.1484 0.10156 0 0.17969-0.25781 0.17969-0.57031 0-0.32032-0.082-0.57422-0.17969-0.57422-0.0937 0-0.17187 0.21875-0.18359 0.5-0.11719 0.34765-0.26953 0.86328-0.42188 1.4766-0.11328 0.45313-0.2539 1.0859-0.36328 1.7695-0.26562-0.80078-0.42969-1.9258-0.42969-3.1719m-4.2539 5.4219c0.33984 0 0.65625-0.3125 0.92187-0.84375l0.60547 2.5274-0.082 0.89062c-0.375 0.10156-0.58594 0.55469-0.57422 0.99219 0.0117 0.42578 0.39063 0.10547 0.80469 0.0898 0.11719-4e-3 0.72266 4e-3 0.71875-0.34765-4e-3 -0.35938-0.39063-0.65235-0.66406-0.73438l0.0508-0.54687h2.4492c-0.0508 0.53906-0.10157 1.0352-0.13672 1.418-0.0312 0.32813-0.0547 0.57422-0.0664 0.69922l0.17969 0.42578-0.0859 0.26954h-0.65625v0.68362h0.7461l0.32031-1.0234-0.20313-0.49609c0.0937-0.99219 0.31641-3.3242 0.46485-4.7305 0.25 0.46094 0.54687 0.72656 0.85937 0.72656 0.94922 0 1.7188-2.4297 1.7188-5.4219 0-2.9961-0.76953-5.4258-1.7188-5.4258-0.95312 0-1.7226 2.4297-1.7226 5.4258 0 1.6836 0.24609 3.1875 0.6289 4.1836-0.0195 0.16797-0.0391 0.35547-0.0586 0.55469l-1.8516-6.3477v-0.0508c0-0.34375-0.0859-0.625-0.19532-0.63672l-0.1289-1.5508h0.13281v-0.41016h-0.41797v0.41016h0.16406l0.13672 1.6445c-0.0273 0.0547-0.0508 0.12891-0.0664 0.21875l-0.625 0.42188c-0.21094-2.2344-0.8711-3.8633-1.6484-3.8633-0.94922 0-1.7188 2.4297-1.7188 5.4258 0 2.9922 0.76953 5.4219 1.7188 5.4219"/></g><path d="m158.07 100.33 4e-3 96.344" fill="none" stroke="#fff" stroke-dasharray="6, 12" stroke-miterlimit="3.864" stroke-width="2"/><path d="m144.78 100.33 4e-3 96.344" fill="none" stroke="#fff" stroke-dasharray="6, 12" stroke-miterlimit="3.864" stroke-width="2"/></svg>
