<?xml version="1.0" encoding="UTF-8"?>
<svg width="310.63pt" height="337.55pt" version="1.2" viewBox="0 0 310.63 337.55" xmlns="http://www.w3.org/2000/svg" xmlns:xlink="http://www.w3.org/1999/xlink"><defs><symbol id="p" overflow="visible"><path d="m1.5625-6.4688h-0.875v6.4688h4.1406v-0.78125h-3.2656z"/></symbol><symbol id="a" overflow="visible"><path d="m3.7812-1.4688c-0.015625 0.34375-0.45312 0.92188-1.2031 0.92188-0.90625 0-1.375-0.5625-1.375-1.5469h3.4375c0-1.6719-0.65625-2.75-2.0156-2.75-1.5625 0-2.2656 1.1562-2.2656 2.625 0 1.3594 0.78125 2.3594 2.1094 2.3594 0.75 0 1.0625-0.1875 1.2812-0.32812 0.59375-0.39062 0.79688-1.0625 0.82812-1.2812zm-2.5781-1.2656c0-0.71875 0.57812-1.3906 1.3125-1.3906 0.95312 0 1.2656 0.67188 1.3125 1.3906z"/></symbol><symbol id="k" overflow="visible"><path d="m1.1719-2.3594c0-0.60938 0.0625-1.7656 1.2969-1.7656 1.1406 0 1.2656 1.2344 1.2656 1.9844 0 1.2656-0.78125 1.5938-1.2812 1.5938-0.875 0-1.2812-0.78125-1.2812-1.8125zm3.3125-2.3438h-0.73438v0.6875c-0.20312-0.28125-0.57812-0.82812-1.4219-0.82812-1.25 0-1.9688 1.0312-1.9688 2.3438 0 1.125 0.46875 2.6406 2.0781 2.6406 0.625 0 1.0312-0.29688 1.2656-0.67188v0.20312c0 0.54688 0.015625 1.6562-1.3438 1.6562-0.1875 0-0.92188 0-1.0625-0.75h-0.79688c0.15625 1.25 1.25 1.4062 1.7969 1.4062 2.1875 0 2.1875-1.7031 2.1875-2.375z"/></symbol><symbol id="d" overflow="visible"><path d="m4.4219-3.2031c0-1.3438-0.92188-1.6406-1.6562-1.6406-0.79688 0-1.25 0.54688-1.4219 0.79688h-0.015625v-0.65625h-0.75v4.7031h0.79688v-2.5625c0-1.2812 0.79688-1.5625 1.25-1.5625 0.76562 0 1 0.40625 1 1.2344v2.8906h0.79688z"/></symbol><symbol id="j" overflow="visible"><path d="m4.4844-6.4688h-0.78125v2.4219h-0.015625c-0.20312-0.26562-0.5625-0.79688-1.4062-0.79688-1.25 0-1.9688 1.0312-1.9688 2.3438 0 1.125 0.46875 2.6406 2.0781 2.6406 0.45312 0 1-0.15625 1.3281-0.78125h0.03125v0.64062h0.73438zm-3.3438 4.1094c0-0.60938 0.0625-1.7656 1.2812-1.7656 1.1406 0 1.2656 1.2344 1.2656 1.9844 0 1.2656-0.78125 1.5938-1.2812 1.5938-0.875 0-1.2656-0.78125-1.2656-1.8125z"/></symbol><symbol id="i" overflow="visible"><path d="m0.73438 0h2.5781c2.125 0 2.75-1.875 2.75-3.3281 0-1.8594-1.0312-3.1406-2.7188-3.1406h-2.6094zm0.875-5.7188h1.625c1.1875 0 1.9375 0.82812 1.9375 2.4531s-0.75 2.5156-1.875 2.5156h-1.6875z"/></symbol><symbol id="c" overflow="visible"><path d="m1.3906-4.7031h-0.78125v4.7031h0.78125zm0-0.85938v-0.90625h-0.78125v0.90625z"/></symbol><symbol id="b" overflow="visible"><path d="m1.4844-2.7344c0-0.6875 0.46875-1.2656 1.2031-1.2656h0.29688v-0.8125c-0.0625-0.015625-0.10938-0.03125-0.20312-0.03125-0.59375 0-1.0156 0.375-1.3281 0.92188h-0.015625v-0.78125h-0.75v4.7031h0.79688z"/></symbol><symbol id="h" overflow="visible"><path d="m4.2969-3.125c-0.0625-0.8125-0.53125-1.7188-1.7656-1.7188-1.5625 0-2.2656 1.1562-2.2656 2.625 0 1.3594 0.78125 2.3594 2.1094 2.3594 1.375 0 1.8438-1.0625 1.9219-1.8125h-0.76562c-0.14062 0.73438-0.59375 1.125-1.125 1.125-1.0938 0-1.2969-1-1.2969-1.8125 0-0.82812 0.32812-1.7656 1.2969-1.7656 0.67188 0 1.0156 0.375 1.125 1z"/></symbol><symbol id="g" overflow="visible"><path d="m2.3125-4.0469v-0.65625h-0.75v-1.3125h-0.79688v1.3125h-0.64062v0.65625h0.64062v3.1094c0 0.5625 0.17188 1 0.95312 1 0.078125 0 0.3125-0.03125 0.59375-0.0625v-0.625h-0.28125c-0.15625 0-0.46875 0-0.46875-0.35938v-3.0625z"/></symbol><symbol id="f" overflow="visible"><path d="m0.3125-2.3594c0 1.2188 0.6875 2.4844 2.1875 2.4844s2.1875-1.2656 2.1875-2.4844-0.6875-2.4844-2.1875-2.4844-2.1875 1.2656-2.1875 2.4844zm0.82812 0c0-0.625 0.23438-1.7969 1.3594-1.7969 1.1406 0 1.375 1.1719 1.375 1.7969s-0.23438 1.7969-1.375 1.7969c-1.125 0-1.3594-1.1719-1.3594-1.7969z"/></symbol><symbol id="e" overflow="visible"></symbol><symbol id="o" overflow="visible"><path d="m2.3594-4.0469v-0.65625h-0.79688v-0.59375c0-0.375 0.125-0.54688 0.46875-0.54688 0.10938 0 0.23438 0.015625 0.32812 0.015625v-0.70312c-0.125-0.015625-0.25-0.015625-0.35938-0.015625-0.78125 0-1.2188 0.3125-1.2188 1.0312v0.8125h-0.65625v0.65625h0.65625v4.0469h0.78125v-4.0469z"/></symbol><symbol id="n" overflow="visible"><path d="m1.2812-3.2812c0.0625-0.35938 0.1875-0.90625 1.0781-0.90625 0.75 0 1.1094 0.26562 1.1094 0.76562 0 0.46875-0.21875 0.54688-0.40625 0.5625l-1.3125 0.15625c-1.3125 0.17188-1.4219 1.0781-1.4219 1.4844 0 0.8125 0.60938 1.3594 1.4688 1.3594 0.92188 0 1.3906-0.4375 1.7031-0.76562 0.03125 0.35938 0.14062 0.71875 0.84375 0.71875 0.17188 0 0.29688-0.0625 0.42188-0.09375v-0.57812c-0.078125 0.015625-0.1875 0.03125-0.25 0.03125-0.17188 0-0.26562-0.078125-0.26562-0.26562v-2.7188c0-1.2031-1.375-1.3125-1.75-1.3125-1.1562 0-1.9062 0.4375-1.9375 1.5625zm2.1719 1.6562c0 0.625-0.71875 1.1094-1.4531 1.1094-0.59375 0-0.85938-0.3125-0.85938-0.82812 0-0.59375 0.625-0.70312 1.0156-0.76562 0.96875-0.125 1.1719-0.1875 1.2969-0.29688z"/></symbol><symbol id="m" overflow="visible"><path d="m2.2344-0.875h-0.015625l-1.2344-3.8281h-0.90625l1.7188 4.7031h0.84375l1.7812-4.7031h-0.85938z"/></symbol><symbol id="l" overflow="visible"><path d="m1.3906-6.4688h-0.78125v6.4688h0.78125z"/></symbol></defs><path d="m227.94 34.449h6.3516v-1.5586l4.3789 2.5781-4.3789 2.3984v-1.4375h-6.3516z" fill="#211e1e"/><path d="m249.42 25.938h29.289" fill="none" stroke="#211e1e" stroke-width=".75"/><g><g transform="translate(-154.99 -72.332)" fill="#211e1e"><use x="403.93719" y="95.319298" width="100%" height="100%" xlink:href="#p"/><use x="408.94119" y="95.319298" width="100%" height="100%" xlink:href="#a"/><use x="413.94519" y="95.319298" width="100%" height="100%" xlink:href="#k"/><use x="418.94919" y="95.319298" width="100%" height="100%" xlink:href="#a"/><use x="423.95319" y="95.319298" width="100%" height="100%" xlink:href="#d"/><use x="428.95721" y="95.319298" width="100%" height="100%" xlink:href="#j"/><use x="396.6922" y="110.6733" width="100%" height="100%" xlink:href="#i"/><use x="403.19019" y="110.6733" width="100%" height="100%" xlink:href="#c"/><use x="405.1882" y="110.6733" width="100%" height="100%" xlink:href="#b"/><use x="408.18521" y="110.6733" width="100%" height="100%" xlink:href="#a"/><use x="413.18921" y="110.6733" width="100%" height="100%" xlink:href="#h"/><use x="417.68921" y="110.6733" width="100%" height="100%" xlink:href="#g"/><use x="420.19119" y="110.6733" width="100%" height="100%" xlink:href="#c"/><use x="422.18921" y="110.6733" width="100%" height="100%" xlink:href="#f"/><use x="427.19321" y="110.6733" width="100%" height="100%" xlink:href="#d"/><use x="432.1972" y="110.6733" width="100%" height="100%" xlink:href="#e"/><use x="434.69919" y="110.6733" width="100%" height="100%" xlink:href="#f"/><use x="439.70319" y="110.6733" width="100%" height="100%" xlink:href="#o"/><use x="442.2052" y="110.6733" width="100%" height="100%" xlink:href="#e"/><use x="444.70721" y="110.6733" width="100%" height="100%" xlink:href="#g"/><use x="447.2092" y="110.6733" width="100%" height="100%" xlink:href="#b"/><use x="450.11801" y="110.6733" width="100%" height="100%" xlink:href="#n"/><use x="454.94379" y="110.6733" width="100%" height="100%" xlink:href="#m"/><use x="459.2197" y="110.6733" width="100%" height="100%" xlink:href="#a"/><use x="464.22369" y="110.6733" width="100%" height="100%" xlink:href="#l"/></g><g><path d="m163.95 217.47c0-9.9414 8.0586-18 18-18h120.07v-23.582h-120.07c-9.9414 0-18-4.0586-18-14 0-9.9414 8.0586-14 18-14h120.07v-45.547h-120.07c-9.9414 0-18-8.0586-18-18v-84.344h-53.848v84.344c0 9.9414-8.0586 18-18 18h-92.105v45.547h92.105c9.9414 0 18 4.0586 18 14 0 9.9414-8.0586 14-18 14h-92.105v23.582h92.105c9.9414 0 18 8.0586 18 18v120.07h53.848z" fill="#b0b0b0"/><path d="m253.39 199.47h-57.145v-23.523h57.145z" fill="#35b53f"/><path d="m77.742 199.47h-57.145v-23.523h57.145z" fill="#35b53f"/></g></g><g fill="none"><g stroke-width="2"><path d="m108.92 175.89h58.445" stroke="#fff" stroke-dasharray="4.32, 12.96"/><path d="m108.92 199.47h58.445" stroke="#fff" stroke-dasharray="4.32, 12.96"/><path d="m113.6 231.84v105.71" stroke="#facc2b"/><path d="m113.6 1e-6v84.344" stroke="#facc2b"/><path d="m132.88 76.609v-76.609" stroke="#fff" stroke-dasharray="14.4, 43.2"/><path d="m196.32 144.4h105.71" stroke="#facc2b"/><path d="m0 144.4h90.996" stroke="#facc2b"/></g><g stroke="#fff"><g stroke-width="2"><path d="m182.9 105.84h119.12"/><path d="m0 105.84h92.469"/><path d="m152.16 235.36v102.19"/><path d="m152.16 1e-6v84.344"/><path d="m273.5 125.12h28.52" stroke-dasharray="14.4, 43.2"/><path d="m199.73 125.12h50.77"/><path d="m90.645 125.12h-90.645" stroke-dasharray="14.4, 43.2"/></g><path d="m199.32 143.4v-37.562" stroke-width="6"/><path d="m132.88 309.03v28.52" stroke-dasharray="14.4, 43.2" stroke-width="2"/><path d="m132.88 235.26v50.77" stroke-width="2"/><path d="m114.6 234.84h49.355" stroke-width="6"/><path d="m169.22 153.17v-56.102" stroke-width="3"/><path d="m181.97 147.89v-45.547" stroke-width="3"/><path d="m199.32 187.68v-11.129" stroke-width="6"/><path d="m169.22 209.25v-41.457" stroke-width="3"/><path d="m181.97 203.96v-30.898" stroke-width="3"/><path d="m74.738 187.68v11.125" stroke-width="6"/><g stroke-width="3"><path d="m101.77 204.75h70.703"/><path d="m110.11 217.5h53.848"/><path d="m169.22 97.07h-67.668"/><path d="m163.95 84.324h-53.848"/><path d="m92.086 147.89v-45.547"/><path d="m104.83 156.43v-62.379"/><path d="m92.086 201.08v-26.738"/><path d="m104.83 207.08v-41.035"/></g></g></g><g fill="#fff"><path d="m121.32 261.5c-1.5703-2.1602-3.1445-4.3242-4.7188-6.4844l5.3086-4.7148c-0.39453 1.375-0.78516 2.75-1.1797 4.125 2.3008-0.11328 4.0195 0.33594 5.3086 1.4766v-6.7812c-0.6914 0.58984-1.375 1.1797-2.0625 1.7656 0.98047-3.1406 1.9648-6.2852 2.9492-9.4297 0.98438 3.1445 1.9648 6.2891 2.9492 9.4297-0.69141-0.58594-1.3789-1.1758-2.0664-1.7656v15.918h-1.7695v-2.9453c-0.0781-2.7774-1.2812-4.5117-4.1289-4.7188h-1.1797c0.19531 1.375 0.39453 2.75 0.58984 4.125" fill-rule="evenodd"/><path d="m160.23 72.066c-0.42188 0-0.78125-0.875-0.90625-2.082l0.84765-0.57422c0.0195 0.0312 0.0391 0.0508 0.0586 0.0508 0.0703 0 0.1289-0.17578 0.1289-0.39063 0-0.1875-0.043-0.34765-0.10156-0.38281l-0.51953-2.1797c0.14453-0.27734 0.3125-0.4375 0.49219-0.4375 0.52734 0 0.95703 1.3438 0.95703 3s-0.42969 2.9961-0.95703 2.9961m-0.94922-2.9961c0-0.875 0.11718-1.6602 0.30859-2.207l0.48047 2.0156-0.78516 0.53125c-4e-3 -0.11328-4e-3 -0.22657-4e-3 -0.33985m-0.21094 0.48828-0.375 0.25391 0.43359-4.8711 0.32422 1.3633c-0.24219 0.67578-0.39453 1.6641-0.39453 2.7656 0 0.16407 4e-3 0.32813 0.0117 0.48828m-0.53516-0.15625-0.0547-0.69531h0.0898v-0.27734h-0.28516v0.27734h0.10938l0.0625 0.6875-1.2305-4.2031c0.0195-0.19922 0.0391-0.40625 0.0625-0.61328h1.6758zm-1.207-0.33203c0 1.6562-0.42578 2.9961-0.95312 2.9961-0.52735 0-0.95313-1.3398-0.95313-2.9961s0.42578-3 0.95313-3c0.1875 0 0.35937 0.17188 0.50781 0.46485-0.11719 0.79687-0.34375 1.6562-0.51172 2.1445-0.0664 0-0.12109 0.17578-0.12109 0.39062 0 0.21485 0.0547 0.39063 0.125 0.39063 0.0625 0 0.11328-0.14844 0.12109-0.34375 0.082-0.23438 0.1875-0.58594 0.29297-1.0039 0.0742-0.3125 0.17187-0.74219 0.24609-1.207 0.17969 0.54688 0.29297 1.3125 0.29297 2.1641m2.9024-3.6953c-0.22657 0-0.44532 0.21094-0.62891 0.57422l-0.41016-1.7227 0.0547-0.60937c0.25781-0.0703 0.40234-0.37891 0.39063-0.67578-8e-3 -0.28907-0.26563-0.0703-0.55079-0.0625-0.0781 4e-3 -0.49218 0-0.48828 0.23828 4e-3 0.24609 0.26563 0.44531 0.45313 0.5l-0.0352 0.37109h-1.6719c0.0351-0.36328 0.0703-0.70312 0.0937-0.96484 0.0234-0.22266 0.0351-0.39063 0.0469-0.47266l-0.12109-0.29297 0.0547-0.18359h0.44921v-0.46484h-0.51171l-0.21875 0.69531 0.14453 0.33984c-0.0664 0.67578-0.22266 2.2656-0.32032 3.2227-0.17187-0.3125-0.375-0.49219-0.58593-0.49219-0.65235 0-1.1758 1.6523-1.1758 3.6953 0 2.0391 0.52343 3.6953 1.1758 3.6953 0.64843 0 1.1758-1.6562 1.1758-3.6953 0-1.1484-0.16797-2.1758-0.42969-2.8516 0.0117-0.11719 0.0234-0.24609 0.0391-0.38281l1.2656 4.3281v0.0352c0 0.23437 0.0586 0.42578 0.13281 0.43359l0.0898 1.0586h-0.0937v0.28125h0.28516v-0.28125h-0.11328l-0.0937-1.1211c0.0195-0.0391 0.0391-0.0859 0.0469-0.14843l0.42579-0.28907c0.14843 1.5234 0.59765 2.6328 1.125 2.6328 0.65234 0 1.1797-1.6562 1.1797-3.6953 0-2.043-0.52734-3.6953-1.1797-3.6953"/><path d="m156.44 45.242 1.8789-5.9414 1.8594 5.9414-1.3203-1.1133-0.0195 6.3242h-1.0938v-6.3242z" fill-rule="evenodd"/><path d="m160.23 274.23c-0.42579 0-0.78516-0.875-0.90625-2.082l0.84765-0.57422c0.0195 0.0312 0.0391 0.0508 0.0586 0.0508 0.0703 0 0.125-0.17578 0.125-0.39062 0-0.19141-0.043-0.34766-0.0977-0.38672l-0.5234-2.1758c0.14453-0.27734 0.3125-0.4375 0.4961-0.4375 0.52734 0 0.95312 1.3438 0.95312 3 0 1.6523-0.42578 2.9961-0.95312 2.9961m-0.95313-2.9961c0-0.875 0.11719-1.6602 0.30859-2.207l0.48438 2.0156-0.78516 0.53125c-8e-3 -0.11328-8e-3 -0.22656-8e-3 -0.33984m-0.21094 0.48437-0.375 0.25391 0.4336-4.8672 0.32812 1.3594c-0.24219 0.67969-0.39844 1.668-0.39844 2.7695 0 0.16406 4e-3 0.32422 0.0117 0.48437m-0.53125-0.15234-0.0586-0.69531h0.0898v-0.27735h-0.28515v0.27735h0.11328l0.0586 0.6875-1.2305-4.2031c0.0195-0.19922 0.0391-0.40625 0.0625-0.61328h1.6797zm-1.207-0.33203c0 1.6523-0.42969 2.9961-0.95312 2.9961-0.53125 0-0.95703-1.3438-0.95703-2.9961 0-1.6562 0.42578-3 0.95703-3 0.18359 0 0.35937 0.17187 0.5039 0.46484-0.11718 0.79688-0.34375 1.6562-0.50781 2.1406-0.0703 4e-3 -0.125 0.17578-0.125 0.39453 0 0.21484 0.0547 0.39062 0.12891 0.39062 0.0586 0 0.11328-0.14843 0.12109-0.34375 0.0781-0.23828 0.18359-0.58593 0.28906-1.0039 0.0781-0.3125 0.17578-0.74219 0.25-1.207 0.17578 0.54687 0.29297 1.3125 0.29297 2.1641m2.9024-3.6953c-0.23047 0-0.44532 0.21093-0.62891 0.57422l-0.41016-1.7227 0.0508-0.60938c0.25782-0.0703 0.40235-0.3789 0.39454-0.67578-8e-3 -0.28906-0.26563-0.0703-0.55079-0.0625-0.0781 4e-3 -0.49218 0-0.49218 0.23828 4e-3 0.2461 0.26953 0.44532 0.45312 0.5l-0.0312 0.3711h-1.6758c0.0391-0.36328 0.0703-0.70313 0.0937-0.96485 0.0234-0.22265 0.0391-0.39062 0.0469-0.47656l-0.1211-0.29297 0.0586-0.17968h0.44921v-0.46485h-0.51171l-0.21875 0.69531 0.14062 0.33594c-0.0664 0.67969-0.21875 2.2695-0.31641 3.2266-0.17578-0.3125-0.375-0.49218-0.58593-0.49218-0.65235 0-1.1797 1.6523-1.1797 3.6953 0 2.0391 0.52734 3.6914 1.1797 3.6914 0.64453 0 1.1719-1.6524 1.1719-3.6914 0-1.1484-0.16797-2.1758-0.42578-2.8555 0.0117-0.11328 0.0234-0.24219 0.0391-0.37891l1.2617 4.3281v0.0352c0 0.23437 0.0625 0.42578 0.13281 0.43359l0.0899 1.0586h-0.0899v0.27735h0.28516v-0.27735h-0.11328l-0.0937-1.1211c0.0195-0.0391 0.0352-0.0898 0.0469-0.14844l0.42579-0.28906c0.14453 1.5234 0.59375 2.6289 1.125 2.6289 0.64843 0 1.1758-1.6524 1.1758-3.6914 0-2.043-0.52735-3.6953-1.1758-3.6953"/><path d="m156.44 247.4 1.8789-5.9375 1.8594 5.9375-1.3203-1.1094-0.0195 6.3242h-1.0938v-6.3242z" fill-rule="evenodd"/><path d="m201.35 195.76c0-0.42578 0.87109-0.78515 2.0781-0.90625l0.57422 0.84766c-0.0312 0.0195-0.0508 0.0391-0.0508 0.0586 0 0.0703 0.17969 0.125 0.39453 0.125 0.1875 0 0.34375-0.043 0.38281-0.0976l2.1797-0.52344c0.27734 0.14453 0.43359 0.31641 0.43359 0.49609 0 0.52735-1.3438 0.95703-2.9961 0.95703-1.6562 0-2.9961-0.42968-2.9961-0.95703m2.9961-0.95312c0.87109 0 1.6562 0.12109 2.207 0.30859l-2.0156 0.48438-0.53125-0.78516c0.10937-8e-3 0.22265-8e-3 0.33984-8e-3m-0.48828-0.21094-0.25391-0.375 4.8711 0.43359-1.3633 0.32813c-0.67579-0.24219-1.6641-0.39844-2.7656-0.39844-0.16797 0-0.32812 8e-3 -0.48828 0.0117m0.15627-0.5311 0.69141-0.0586v0.0898h0.28125v-0.28516h-0.28125v0.11329l-0.6875 0.0586 4.207-1.2305c0.19922 0.0195 0.40625 0.043 0.60937 0.0625v1.6797zm0.33203-1.207c-1.6562 0-2.9961-0.42969-2.9961-0.95313 0-0.53125 1.3398-0.95703 2.9961-0.95703 1.6523 0 2.9961 0.42578 2.9961 0.95703 0 0.1836-0.16796 0.35938-0.46093 0.50782-0.80078-0.11719-1.6602-0.34766-2.1445-0.51172 0-0.0664-0.17579-0.125-0.39063-0.125s-0.39453 0.0586-0.39453 0.1289c0 0.0625 0.15234 0.11329 0.34766 0.1211 0.23437 0.0781 0.58203 0.1875 1.0039 0.28906 0.3086 0.0781 0.73828 0.17578 1.207 0.24609-0.54687 0.1836-1.3125 0.29688-2.1641 0.29688m3.6953 2.9023c0-0.23047-0.21093-0.44531-0.57422-0.6289l1.7227-0.41407 0.60547 0.0547c0.0703 0.25781 0.37891 0.40235 0.67969 0.39453 0.28906-8e-3 0.0703-0.26562 0.0586-0.55078-4e-3 -0.0781 4e-3 -0.49219-0.23828-0.48828-0.24219 0-0.44141 0.26563-0.5 0.45313l-0.37109-0.0352v-1.6719c0.36718 0.0352 0.70312 0.0664 0.96875 0.0937 0.22265 0.0195 0.39062 0.0352 0.47265 0.043l0.29297-0.12109 0.18359 0.0586v0.44922h0.46094v-0.51172l-0.6914-0.21875-0.33985 0.14063c-0.67578-0.0664-2.2656-0.21875-3.2266-0.31641 0.31641-0.17578 0.49609-0.375 0.49609-0.58594 0-0.65234-1.6562-1.1797-3.6953-1.1797-2.043 0-3.6953 0.52734-3.6953 1.1797 0 0.64844 1.6523 1.1719 3.6953 1.1719 1.1484 0 2.1758-0.16406 2.8516-0.42578 0.11719 0.0117 0.24219 0.0234 0.37891 0.0391l-4.3281 1.2656h-0.0351c-0.23047 0-0.42578 0.0586-0.42969 0.1289l-1.0586 0.0899v-0.0899h-0.28125v0.28516h0.28125v-0.11328l1.1211-0.0937c0.0352 0.0195 0.0859 0.0351 0.14844 0.0469l0.28906 0.42578c-1.5234 0.14453-2.6328 0.59375-2.6328 1.125 0 0.64844 1.6523 1.1758 3.6953 1.1758 2.0391 0 3.6953-0.52734 3.6953-1.1758"/><path d="m228.17 191.96 5.9375 1.8789-5.9375 1.8594 1.1094-1.3203-6.3242-0.0195v-1.0938h6.3242z" fill-rule="evenodd"/></g><g fill="#211e1e"><path d="m122.31 17.012v-6.3555h-1.5586l2.5781-4.375 2.3984 4.375h-1.4414v6.3555z"/><path d="m141.59 17.012v-6.3555h-1.5586l2.5742-4.375 2.3984 4.375h-1.4375v6.3555z"/><path d="m122.31 332.18v-6.3555h-1.5586l2.5781-4.375 2.3984 4.375h-1.4414v6.3555z"/><path d="m141.59 332.18v-6.3555h-1.5586l2.5742-4.375 2.3984 4.375h-1.4375v6.3555z"/><path d="m296.14 135.69h-6.3555v1.5586l-4.375-2.5781 4.375-2.3984v1.4375h6.3555z"/><path d="m296.14 116.4h-6.3555v1.5625l-4.375-2.5781 4.375-2.3984v1.4375h6.3555z"/><path d="m15.574 135.69h-6.3555v1.5586l-4.375-2.5781 4.375-2.3984v1.4375h6.3555z"/><path d="m15.574 116.4h-6.3555v1.5625l-4.375-2.5781 4.375-2.3984v1.4375h6.3555z"/><path d="m4.8438 192.9h6.3516v-1.5586l4.3789 2.5742-4.3789 2.3984v-1.4375h-6.3516z"/><path d="m15.574 182.46h-6.3555v1.5586l-4.375-2.5781 4.375-2.3984v1.4414h6.3555z"/><path d="m285.42 192.9h6.3555v-1.5586l4.375 2.5742-4.375 2.3984v-1.4375h-6.3555z"/></g><g><path d="m67.461 179.61c0 0.42578-0.875 0.78516-2.082 0.91016l-0.57422-0.84766c0.0312-0.0195 0.0508-0.0391 0.0508-0.0625 0-0.0664-0.17578-0.125-0.39453-0.125-0.1875 0-0.34375 0.043-0.38281 0.0977l-2.1758 0.52343c-0.27734-0.14453-0.4375-0.3125-0.4375-0.49609 0-0.52734 1.3438-0.95313 2.9961-0.95313 1.6562 0 3 0.42579 3 0.95313m-3 0.95312c-0.8711 0-1.6562-0.11718-2.207-0.30859l2.0195-0.48047 0.53125 0.78516c-0.11328 4e-3 -0.22656 4e-3 -0.34375 4e-3m0.48828 0.21094 0.25391 0.375-4.8711-0.43359 1.3633-0.32422c0.67578 0.24219 1.668 0.39453 2.7656 0.39453 0.16797 0 0.32812-4e-3 0.48828-0.0117m-0.15625 0.53516-0.69141 0.0547v-0.0898h-0.27734v0.28516h0.27734v-0.11328l0.6875-0.0586-4.2031 1.2305c-0.19922-0.0195-0.40625-0.0391-0.61328-0.0625v-1.6758zm-0.33203 1.207c1.6562 0 3 0.42578 3 0.95312 0 0.52735-1.3438 0.95313-3 0.95313-1.6524 0-2.9961-0.42578-2.9961-0.95313 0-0.1875 0.16797-0.35937 0.46485-0.50781 0.79687 0.11719 1.6562 0.34375 2.1406 0.51172 4e-3 0.0664 0.17578 0.12109 0.39063 0.12109 0.21875 0 0.39453-0.0547 0.39453-0.125 0-0.0625-0.15234-0.11328-0.34375-0.12109-0.23828-0.082-0.58594-0.1875-1.0039-0.28906-0.3125-0.0781-0.74218-0.17578-1.207-0.25 0.54688-0.17969 1.3125-0.29297 2.1602-0.29297m-3.6914-2.9062c0 0.23047 0.20703 0.44922 0.57422 0.62891l-1.7227 0.41406-0.60939-0.0548c-0.0703-0.25781-0.37891-0.40234-0.67578-0.39062-0.28906 8e-3 -0.0742 0.26562-0.0625 0.55078 4e-3 0.0742-4e-3 0.48828 0.23828 0.48828 0.24219-4e-3 0.44531-0.26563 0.5-0.45313l0.37109 0.0312v1.6758c-0.36328-0.0391-0.70312-0.0703-0.96484-0.0937-0.22266-0.0234-0.39063-0.0391-0.47656-0.0469l-0.29297 0.12109-0.17969-0.0547v-0.44922h-0.46484v0.50781l0.69531 0.21875 0.33594-0.13672c0.67578 0.0625 2.2656 0.21484 3.2266 0.31641-0.31641 0.17187-0.49219 0.37109-0.49219 0.58593 0 0.64844 1.6524 1.1758 3.6914 1.1758 2.043 0 3.6953-0.52735 3.6953-1.1758 0-0.64843-1.6523-1.1758-3.6953-1.1758-1.1484 0-2.1719 0.16797-2.8516 0.42969-0.11329-0.0117-0.24219-0.0273-0.37891-0.0391l4.3281-1.2656h0.0352c0.23438 0 0.42578-0.0586 0.43359-0.13281l1.0586-0.0898v0.0898h0.27734v-0.28521h-0.27734v0.11329l-1.1211 0.0977c-0.0391-0.0195-0.0898-0.0391-0.15234-0.0469l-0.28516-0.42969c1.5234-0.14453 2.6289-0.59375 2.6289-1.125 0-0.64844-1.6523-1.1758-3.6953-1.1758-2.0391 0-3.6914 0.52734-3.6914 1.1758" fill="#fff"/><path d="m40.633 183.4-5.9414-1.8789 5.9414-1.8594-1.1094 1.3242 6.3242 0.0195v1.0938h-6.3242z" fill="#fff" fill-rule="evenodd"/><path d="m296.15 182.46h-6.3555v1.5586l-4.375-2.5781 4.375-2.3984v1.4414h6.3555z" fill="#211e1e"/></g><g fill="none" stroke="#211e1e"><path d="m110.11 1e-6v84.344c0 9.9414-8.0586 18-18 18h-92.105"/><path d="m302.03 102.34h-120.07c-9.9453 0-18-8.0586-18-18v-84.344"/><path d="m163.95 337.55v-120.07c0-9.9414 8.0586-18 18-18h120.07"/><path d="m0 199.47h92.105c9.9414 0 18 8.0586 18 18v120.07"/><path d="m0 147.89h92.105c9.9414 0 18 4.0586 18 14 0 9.9414-8.0586 14-18 14h-92.105"/></g><path d="m153.16 148.89h9.2891v26h-9.2891z" fill="#35b53f"/><path d="m163.45 147.89h-11.289v28h11.289zm-2 26h-7.2891v-24h7.2891z" fill="#fff"/><path d="m302.03 175.89h-120.07c-9.9453 0-18-4.0586-18-14 0-9.9414 8.0547-14 18-14h120.07" fill="none" stroke="#211e1e"/><path d="m159.73 172.69c-0.42579 0-0.78516-0.875-0.90625-2.082l0.84375-0.57422c0.0195 0.0312 0.043 0.0508 0.0625 0.0508 0.0703 0 0.125-0.17578 0.125-0.39063 0-0.1875-0.043-0.34765-0.0977-0.38281l-0.52344-2.1797c0.14453-0.27734 0.31641-0.4375 0.4961-0.4375 0.52734 0 0.95703 1.3438 0.95703 3s-0.42969 2.9961-0.95703 2.9961m-0.95313-2.9961c0-0.875 0.11719-1.6602 0.30859-2.207l0.48438 2.0156-0.78516 0.53125c-4e-3 -0.11328-8e-3 -0.22657-8e-3 -0.33985m-0.21094 0.48828-0.375 0.25391 0.4375-4.8711 0.32422 1.3633c-0.24219 0.67578-0.39844 1.6641-0.39844 2.7656 0 0.16407 4e-3 0.32813 0.0117 0.48828m-0.53125-0.15625-0.0586-0.69531h0.0898v-0.27734h-0.28515v0.27734h0.11328l0.0586 0.6875-1.2305-4.2031c0.0234-0.19922 0.0391-0.40625 0.0625-0.61328h1.6797zm-1.207-0.33203c0 1.6562-0.42969 2.9961-0.95703 2.9961s-0.95312-1.3398-0.95312-2.9961 0.42578-3 0.95312-3c0.1875 0 0.35938 0.17188 0.51172 0.46485-0.11719 0.79687-0.34766 1.6562-0.51172 2.1445-0.0703 0-0.125 0.17578-0.125 0.39062 0 0.21485 0.0547 0.39063 0.125 0.39063 0.0664 0 0.11719-0.14844 0.125-0.34375 0.0781-0.23438 0.18359-0.58594 0.28906-1.0039 0.0781-0.3125 0.17578-0.74219 0.25-1.207 0.17578 0.54688 0.29297 1.3125 0.29297 2.1641m2.9024-3.6953c-0.23047 0-0.44532 0.21094-0.62891 0.57422l-0.41406-1.7227 0.0547-0.60937c0.25782-0.0703 0.40235-0.37891 0.39454-0.67578-8e-3 -0.28907-0.26563-0.0703-0.55079-0.0625-0.0781 4e-3 -0.49218 0-0.48828 0.23828 0 0.24609 0.26563 0.44531 0.45313 0.5l-0.0352 0.37109h-1.6719c0.0351-0.36328 0.0664-0.70312 0.0937-0.96484 0.0195-0.22266 0.0351-0.39063 0.043-0.47266l-0.1211-0.29297 0.0586-0.18359h0.44921v-0.46484h-0.51171l-0.21875 0.69531 0.14062 0.33984c-0.0664 0.67578-0.21875 2.2617-0.31641 3.2227-0.17578-0.3125-0.375-0.49219-0.58984-0.49219-0.64844 0-1.1758 1.6523-1.1758 3.6953 0 2.0391 0.52734 3.6953 1.1758 3.6953s1.1758-1.6562 1.1758-3.6953c0-1.1484-0.16797-2.1758-0.42578-2.8516 0.0117-0.11719 0.0234-0.24609 0.0391-0.38281l1.2617 4.3281v0.0352c0 0.23437 0.0586 0.42578 0.13281 0.43359l0.0899 1.0586h-0.0899v0.28125h0.28516v-0.28125h-0.11328l-0.0977-1.1211c0.0234-0.0391 0.0391-0.0859 0.0508-0.14843l0.42579-0.28907c0.14453 1.5234 0.59375 2.6328 1.125 2.6328 0.64843 0 1.1758-1.6562 1.1758-3.6953 0-2.043-0.52735-3.6953-1.1758-3.6953" fill="#fff"/><path d="m155.94 156.33 1.8789-5.9375 1.8594 5.9375-1.3242-1.1094-0.0195 6.3242h-1.0938v-6.3242z" fill="#fff" fill-rule="evenodd"/><path d="m196.32 187.68h105.71" fill="none" stroke="#facc2b" stroke-width="2"/><path d="m77.766 187.68h-77.766" fill="none" stroke="#facc2b" stroke-width="2"/></svg>
