<?xml version="1.0" encoding="UTF-8"?>
<svg width="336.23pt" height="561.28pt" version="1.2" viewBox="0 0 336.23 561.28" xmlns="http://www.w3.org/2000/svg" xmlns:xlink="http://www.w3.org/1999/xlink"><defs><symbol id="y" overflow="visible"></symbol><symbol id="d" overflow="visible"><path d="m1.4844-2.4688h1.875c0.92188 0 1.0312 0.5625 1.0312 1.0312 0 0.21875 0.015625 1.0781 0.125 1.4375h0.95312v-0.125c-0.23438-0.14062-0.28125-0.26562-0.28125-0.57812l-0.046875-1.0469c-0.03125-0.79688-0.35938-0.9375-0.6875-1.0781 0.35938-0.21875 0.79688-0.53125 0.79688-1.375 0-1.2188-0.95312-1.5469-1.8906-1.5469h-2.6562v5.75h0.78125zm0-2.6094h1.9375c0.375 0 1.0312 0.0625 1.0312 0.95312 0 0.85938-0.60938 1-1.1719 1h-1.7969z"/></symbol><symbol id="a" overflow="visible"><path d="m1.7969-2.5938h0.3125c0.48438 0 1.3125 0.078125 1.3125 1.0312 0 0.64062-0.5 1.0781-1.2188 1.0781-1.0469 0-1.1719-0.70312-1.2031-1.2344h-0.73438c0.046875 0.64062 0.21875 1.2969 0.84375 1.625 0.28125 0.14062 0.625 0.25 1.0469 0.25 1.4219 0 2.0156-0.89062 2.0156-1.8125 0-0.75-0.39062-1.1406-0.9375-1.3125v-0.015625c0.3125-0.09375 0.71875-0.4375 0.71875-1.1562 0-0.85938-0.64062-1.4844-1.7344-1.4844-1.4688 0-1.8125 1.0156-1.8125 1.8438h0.6875c0.03125-0.39062 0.09375-1.2031 1.0938-1.2031 0.84375 0 1.0469 0.54688 1.0469 0.875 0 0.70312-0.53125 0.92188-1.0781 0.92188-0.10938 0-0.25 0-0.35938-0.015625z"/></symbol><symbol id="c" overflow="visible"><path d="m2.3125-2.5781h-1.9531v0.71875h1.9531z"/></symbol><symbol id="x" overflow="visible"><path d="m1.0625-3.6094c0.015625-0.39062 0.0625-1.375 1.125-1.375 0.82812 0 1.1094 0.5625 1.1094 1.0156 0 0.73438-0.42188 0.95312-1.0312 1.3125l-0.73438 0.42188c-0.75 0.4375-1.2812 1.0625-1.3281 2.2344h3.8594v-0.65625h-3.0625c0.03125-0.21875 0.20312-0.65625 0.96875-1.0938l0.57812-0.3125c0.84375-0.45312 1.5156-0.875 1.5156-1.875 0-1.0469-0.79688-1.6875-1.7656-1.6875-0.60938 0-1.9375 0.1875-1.9375 2.0156z"/></symbol><symbol id="w" overflow="visible"><path d="m4.1875-1.375v-0.59375h-0.82812v-3.6562h-0.57812l-2.5781 3.5625v0.6875h2.4531v1.375h0.70312v-1.375zm-1.5469-3.1562h0.015625v2.5625h-1.8125z"/></symbol><symbol id="v" overflow="visible"><path d="m0.29688-4.8125h3.0938c-1.0781 1.25-2.1094 3.2656-2.2969 4.8125h0.78125c0.40625-2.5156 1.75-4.2969 2.3125-4.8906v-0.60938h-3.8906z"/></symbol><symbol id="u" overflow="visible"><path d="m1.1406-2.9062c0.046875-0.32812 0.15625-0.8125 0.96875-0.8125 0.65625 0 0.98438 0.23438 0.98438 0.67188 0 0.42188-0.20312 0.48438-0.375 0.5l-1.1562 0.14062c-1.1719 0.15625-1.2812 0.96875-1.2812 1.3125 0 0.71875 0.54688 1.2188 1.3125 1.2188 0.82812 0 1.25-0.39062 1.5156-0.6875 0.03125 0.32812 0.125 0.64062 0.75 0.64062 0.15625 0 0.26562-0.046875 0.375-0.078125v-0.51562c-0.078125 0.015625-0.15625 0.03125-0.21875 0.03125-0.15625 0-0.23438-0.0625-0.23438-0.25v-2.4062c0-1.0625-1.2188-1.1562-1.5625-1.1562-1.0312 0-1.6875 0.39062-1.7188 1.3906zm1.9375 1.4531c0 0.5625-0.64062 0.98438-1.2969 0.98438-0.53125 0-0.76562-0.26562-0.76562-0.71875 0-0.53125 0.54688-0.64062 0.89062-0.6875 0.875-0.10938 1.0469-0.17188 1.1719-0.26562z"/></symbol><symbol id="t" overflow="visible"><path d="m1.4688-5.0781h1.5781c0.64062 0 1.125 0.23438 1.125 0.95312 0 0.78125-0.46875 1.0312-1.1562 1.0312h-1.5469zm0 2.6562h1.7969c1.25 0 1.7031-0.90625 1.7031-1.7031 0-0.9375-0.625-1.625-1.7031-1.625h-2.5781v5.75h0.78125z"/></symbol><symbol id="s" overflow="visible"><path d="m1.5625-6.4688h-0.875v6.4688h4.1406v-0.78125h-3.2656z"/></symbol><symbol id="b" overflow="visible"><path d="m3.7812-1.4688c-0.015625 0.34375-0.45312 0.92188-1.2031 0.92188-0.90625 0-1.375-0.5625-1.375-1.5469h3.4375c0-1.6719-0.65625-2.75-2.0156-2.75-1.5625 0-2.2656 1.1562-2.2656 2.625 0 1.3594 0.78125 2.3594 2.1094 2.3594 0.75 0 1.0625-0.1875 1.2812-0.32812 0.59375-0.39062 0.79688-1.0625 0.82812-1.2812zm-2.5781-1.2656c0-0.71875 0.57812-1.3906 1.3125-1.3906 0.95312 0 1.2656 0.67188 1.3125 1.3906z"/></symbol><symbol id="n" overflow="visible"><path d="m1.1719-2.3594c0-0.60938 0.0625-1.7656 1.2969-1.7656 1.1406 0 1.2656 1.2344 1.2656 1.9844 0 1.2656-0.78125 1.5938-1.2812 1.5938-0.875 0-1.2812-0.78125-1.2812-1.8125zm3.3125-2.3438h-0.73438v0.6875c-0.20312-0.28125-0.57812-0.82812-1.4219-0.82812-1.25 0-1.9688 1.0312-1.9688 2.3438 0 1.125 0.46875 2.6406 2.0781 2.6406 0.625 0 1.0312-0.29688 1.2656-0.67188v0.20312c0 0.54688 0.015625 1.6562-1.3438 1.6562-0.1875 0-0.92188 0-1.0625-0.75h-0.79688c0.15625 1.25 1.25 1.4062 1.7969 1.4062 2.1875 0 2.1875-1.7031 2.1875-2.375z"/></symbol><symbol id="g" overflow="visible"><path d="m4.4219-3.2031c0-1.3438-0.92188-1.6406-1.6562-1.6406-0.79688 0-1.25 0.54688-1.4219 0.79688h-0.015625v-0.65625h-0.75v4.7031h0.79688v-2.5625c0-1.2812 0.79688-1.5625 1.25-1.5625 0.76562 0 1 0.40625 1 1.2344v2.8906h0.79688z"/></symbol><symbol id="m" overflow="visible"><path d="m4.4844-6.4688h-0.78125v2.4219h-0.015625c-0.20312-0.26562-0.5625-0.79688-1.4062-0.79688-1.25 0-1.9688 1.0312-1.9688 2.3438 0 1.125 0.46875 2.6406 2.0781 2.6406 0.45312 0 1-0.15625 1.3281-0.78125h0.03125v0.64062h0.73438zm-3.3438 4.1094c0-0.60938 0.0625-1.7656 1.2812-1.7656 1.1406 0 1.2656 1.2344 1.2656 1.9844 0 1.2656-0.78125 1.5938-1.2812 1.5938-0.875 0-1.2656-0.78125-1.2656-1.8125z"/></symbol><symbol id="l" overflow="visible"><path d="m0.73438 0h2.5781c2.125 0 2.75-1.875 2.75-3.3281 0-1.8594-1.0312-3.1406-2.7188-3.1406h-2.6094zm0.875-5.7188h1.625c1.1875 0 1.9375 0.82812 1.9375 2.4531s-0.75 2.5156-1.875 2.5156h-1.6875z"/></symbol><symbol id="f" overflow="visible"><path d="m1.3906-4.7031h-0.78125v4.7031h0.78125zm0-0.85938v-0.90625h-0.78125v0.90625z"/></symbol><symbol id="e" overflow="visible"><path d="m1.4844-2.7344c0-0.6875 0.46875-1.2656 1.2031-1.2656h0.29688v-0.8125c-0.0625-0.015625-0.10938-0.03125-0.20312-0.03125-0.59375 0-1.0156 0.375-1.3281 0.92188h-0.015625v-0.78125h-0.75v4.7031h0.79688z"/></symbol><symbol id="k" overflow="visible"><path d="m4.2969-3.125c-0.0625-0.8125-0.53125-1.7188-1.7656-1.7188-1.5625 0-2.2656 1.1562-2.2656 2.625 0 1.3594 0.78125 2.3594 2.1094 2.3594 1.375 0 1.8438-1.0625 1.9219-1.8125h-0.76562c-0.14062 0.73438-0.59375 1.125-1.125 1.125-1.0938 0-1.2969-1-1.2969-1.8125 0-0.82812 0.32812-1.7656 1.2969-1.7656 0.67188 0 1.0156 0.375 1.125 1z"/></symbol><symbol id="j" overflow="visible"><path d="m2.3125-4.0469v-0.65625h-0.75v-1.3125h-0.79688v1.3125h-0.64062v0.65625h0.64062v3.1094c0 0.5625 0.17188 1 0.95312 1 0.078125 0 0.3125-0.03125 0.59375-0.0625v-0.625h-0.28125c-0.15625 0-0.46875 0-0.46875-0.35938v-3.0625z"/></symbol><symbol id="i" overflow="visible"><path d="m0.3125-2.3594c0 1.2188 0.6875 2.4844 2.1875 2.4844s2.1875-1.2656 2.1875-2.4844-0.6875-2.4844-2.1875-2.4844-2.1875 1.2656-2.1875 2.4844zm0.82812 0c0-0.625 0.23438-1.7969 1.3594-1.7969 1.1406 0 1.375 1.1719 1.375 1.7969s-0.23438 1.7969-1.375 1.7969c-1.125 0-1.3594-1.1719-1.3594-1.7969z"/></symbol><symbol id="h" overflow="visible"></symbol><symbol id="r" overflow="visible"><path d="m2.3594-4.0469v-0.65625h-0.79688v-0.59375c0-0.375 0.125-0.54688 0.46875-0.54688 0.10938 0 0.23438 0.015625 0.32812 0.015625v-0.70312c-0.125-0.015625-0.25-0.015625-0.35938-0.015625-0.78125 0-1.2188 0.3125-1.2188 1.0312v0.8125h-0.65625v0.65625h0.65625v4.0469h0.78125v-4.0469z"/></symbol><symbol id="q" overflow="visible"><path d="m1.2812-3.2812c0.0625-0.35938 0.1875-0.90625 1.0781-0.90625 0.75 0 1.1094 0.26562 1.1094 0.76562 0 0.46875-0.21875 0.54688-0.40625 0.5625l-1.3125 0.15625c-1.3125 0.17188-1.4219 1.0781-1.4219 1.4844 0 0.8125 0.60938 1.3594 1.4688 1.3594 0.92188 0 1.3906-0.4375 1.7031-0.76562 0.03125 0.35938 0.14062 0.71875 0.84375 0.71875 0.17188 0 0.29688-0.0625 0.42188-0.09375v-0.57812c-0.078125 0.015625-0.1875 0.03125-0.25 0.03125-0.17188 0-0.26562-0.078125-0.26562-0.26562v-2.7188c0-1.2031-1.375-1.3125-1.75-1.3125-1.1562 0-1.9062 0.4375-1.9375 1.5625zm2.1719 1.6562c0 0.625-0.71875 1.1094-1.4531 1.1094-0.59375 0-0.85938-0.3125-0.85938-0.82812 0-0.59375 0.625-0.70312 1.0156-0.76562 0.96875-0.125 1.1719-0.1875 1.2969-0.29688z"/></symbol><symbol id="p" overflow="visible"><path d="m2.2344-0.875h-0.015625l-1.2344-3.8281h-0.90625l1.7188 4.7031h0.84375l1.7812-4.7031h-0.85938z"/></symbol><symbol id="o" overflow="visible"><path d="m1.3906-6.4688h-0.78125v6.4688h0.78125z"/></symbol></defs><path d="m251.93 204.7c-3.5312 33.066-25.91 59.66-45.844 83.355-5.5547 6.6016-6.8281 8.1562-11.945 14.477-3.1953 4.0312-6.5781 2.5469-6.5781-1.8516v-95.984c0-4.9688 4.0273-9 8.9961-9h46.344c4.9688 0 9.4023 4.2188 9.0273 9.0039m-60.504-68.816c-9.9375 0-18-8.0586-18-18v-117.88h-103.71v124.87c0 9.9414-8.0586 18-18 18h-51.492v52.82h51.492c9.9414 0 18 8.0625 18 18v347.59h107.7v-33c0-5.3281 4.3711-15.355 8.2344-24.211 5.4336-12.465 11.055-25.352 11.055-37.289v-113.25c0-13.523 14.32-30.543 29.484-48.562 20.711-24.613 45.906-54.559 51.402-93.648 1.2227-8.7539 8.7461-15.629 17.832-15.629h40.797v-59.812z" fill="#b0b0b0"/><g fill="none" stroke-dasharray="4.32, 12.96"><path d="m167.78 200.73v-75.742" stroke="#35b53f" stroke-width="12"/><path d="m161.64 200.73v-75.742" stroke="#fff" stroke-width="2"/><path d="m173.93 200.73v-75.742" stroke="#fff" stroke-width="2"/></g><g><g transform="translate(-137.77 -58.57)" fill="#211e1e"><use x="452.2674" y="46.317902" width="100%" height="100%" xlink:href="#y"/></g><path d="m173.43 115.46h-11.793v-67.926h11.793z" fill="#35b53f"/><path d="m274.57 207.7h-19.371v-6h20.82z" fill="#fff"/></g><g fill="none" stroke="#fff"><g stroke-width="2"><path d="m161.64 204.86v263.72"/><path d="m161.64 525.89v35.387"/><path d="m161.64 2e-6v115.46"/></g><path d="m51.719 177.95v17.75" stroke-width="6"/></g><g transform="translate(-137.77 -58.57)" fill="#211e1e"><use x="166.40089" y="179.79491" width="100%" height="100%" xlink:href="#d"/><use x="172.1769" y="179.79491" width="100%" height="100%" xlink:href="#a"/><use x="176.62489" y="179.79491" width="100%" height="100%" xlink:href="#c"/><use x="179.28889" y="179.79491" width="100%" height="100%" xlink:href="#a"/></g><path d="m235.29 47.848h6.3555v-1.5586l4.375 2.5781-4.375 2.3984v-1.4375h-6.3555z" fill="#211e1e"/><path d="m256.76 39.336h29.293" fill="none" stroke="#211e1e" stroke-width=".75"/><g transform="translate(-137.77 -58.57)" fill="#211e1e"><use x="394.07001" y="94.9561" width="100%" height="100%" xlink:href="#s"/><use x="399.07401" y="94.9561" width="100%" height="100%" xlink:href="#b"/><use x="404.078" y="94.9561" width="100%" height="100%" xlink:href="#n"/><use x="409.082" y="94.9561" width="100%" height="100%" xlink:href="#b"/><use x="414.086" y="94.9561" width="100%" height="100%" xlink:href="#g"/><use x="419.09" y="94.9561" width="100%" height="100%" xlink:href="#m"/><use x="386.82501" y="110.3101" width="100%" height="100%" xlink:href="#l"/><use x="393.323" y="110.3101" width="100%" height="100%" xlink:href="#f"/><use x="395.32101" y="110.3101" width="100%" height="100%" xlink:href="#e"/><use x="398.31799" y="110.3101" width="100%" height="100%" xlink:href="#b"/><use x="403.32199" y="110.3101" width="100%" height="100%" xlink:href="#k"/><use x="407.82199" y="110.3101" width="100%" height="100%" xlink:href="#j"/><use x="410.32401" y="110.3101" width="100%" height="100%" xlink:href="#f"/><use x="412.32199" y="110.3101" width="100%" height="100%" xlink:href="#i"/><use x="417.32599" y="110.3101" width="100%" height="100%" xlink:href="#g"/><use x="422.32999" y="110.3101" width="100%" height="100%" xlink:href="#h"/><use x="424.832" y="110.3101" width="100%" height="100%" xlink:href="#i"/><use x="429.836" y="110.3101" width="100%" height="100%" xlink:href="#r"/><use x="432.33801" y="110.3101" width="100%" height="100%" xlink:href="#h"/><use x="434.84" y="110.3101" width="100%" height="100%" xlink:href="#j"/><use x="437.34201" y="110.3101" width="100%" height="100%" xlink:href="#e"/><use x="440.25079" y="110.3101" width="100%" height="100%" xlink:href="#q"/><use x="445.0766" y="110.3101" width="100%" height="100%" xlink:href="#p"/><use x="449.35251" y="110.3101" width="100%" height="100%" xlink:href="#b"/><use x="454.35651" y="110.3101" width="100%" height="100%" xlink:href="#o"/></g><path d="m54.719 173.95h-54.492" fill="none" stroke="#facc2b" stroke-width="2"/><path d="m0.22656 176.95h54.492" fill="none" stroke="#facc2b" stroke-width="2"/><path d="m81.512 277.39h-11.793v-67.926h11.793z" fill="#35b53f"/><g fill="none" stroke-width="2"><g stroke="#fff"><path d="m100.79 201.7v359.59" stroke-dasharray="14.4, 43.2"/><path d="m81.512 201.7v359.59"/><path d="m0.22656 154.66h54.492"/></g><g stroke="#facc2b"><path d="m246.1 173.95h-50.676"/><path d="m195.43 176.95h50.672"/><path d="m336.23 173.95h-57.086"/><path d="m279.14 176.95h57.086"/></g><g stroke="#fff"><path d="m199.54 154.66h46.562"/><path d="m279.14 154.66h57.086"/><path d="m142.36 316.81v244.47" stroke-dasharray="14.4, 43.2"/><path d="m142.36 204.86v68.867"/></g></g><path d="m174.93 468.58h-2v-115.04c0-22.195 16.254-41.508 35.066-63.871 20.762-24.672 44.285-52.629 46.707-87.957l0.5-8e-3c-0.082 1.1953 1.3086 2.5195 1.1797 3.6953-3.7227 34.297-26.594 61.477-46.848 85.551-18.57 22.07-34.605 41.121-34.605 62.59z" fill="#fff"/><path d="m174.93 561.28h-2v-33c0-6.2656 4.3711-16.301 8.6016-26.004 5.2539-12.047 10.684-24.496 10.684-35.496v-113.25c0-15.164 14.152-31.984 30.539-51.457 21.07-25.047 47.113-55.996 50.953-96.211 0.13672-1.418 0.19922-2.0625 0.28125-3.5078l2.0391-0.67188c-2.3594 42.98-29.738 75.523-51.734 101.67-16.145 19.184-30.078 35.746-30.078 50.18v113.25c0 11.418-5.5156 24.062-10.848 36.289-4.1524 9.5234-8.4375 19.363-8.4375 25.211z" fill="#fff"/><g fill="none" stroke="#fff"><path d="m198.43 135.88v37.066" stroke-width="6"/><path d="m187.56 204.7h-63.488" stroke-width="6"/><g stroke-width="2"><path d="m81.512 124.71v-124.71"/><path d="m142.36 127.88v-127.88" stroke-dasharray="14.4, 43.2"/><path d="m100.79 12.762v-12.762" stroke-dasharray="14.4, 43.2"/><path d="m100.79 124.71v-68.867"/></g><path d="m66.219 124.88h52.855" stroke-width="6"/></g><path d="m173.93 134.87h11.617v20.793h-11.617z" fill="#35b53f"/><g fill="#fff"><path d="m186.55 133.87h-13.617v22.793h13.617zm-2 20.793h-9.6172v-18.793h9.6172z"/><path d="m176.43 138.51c0.80079-0.71875 1.6016-1.418 2.4024-2.1367-0.17969 0.62109-0.35938 1.2461-0.53516 1.8672 0.17578 8e-3 0.35547 0.0117 0.53516 0.0156 1.5859 0.11719 2.4336 0.95312 2.6641 2.3906v2.4062h-0.79687v-1.6094c-0.17188-1.1211-0.73829-1.8086-1.8672-1.8672h-0.53516c0.0899 0.62109 0.1836 1.2461 0.27344 1.8672-0.71484-0.96875-1.4258-1.9648-2.1406-2.9336" fill-rule="evenodd"/><g><path d="m183.19 153.65c-0.3125 0-0.57422-0.63672-0.66407-1.5234l0.61719-0.41797c0.0156 0.0195 0.0274 0.0352 0.0469 0.0352 0.0508 0 0.0898-0.12891 0.0898-0.28516 0-0.14063-0.0312-0.25391-0.0703-0.28125l-0.38281-1.5938c0.10546-0.20313 0.22656-0.32422 0.36328-0.32422 0.38672 0 0.69531 0.98438 0.69531 2.1992 0 1.2109-0.30859 2.1914-0.69531 2.1914m-0.69922-2.1914c0-0.64063 0.0859-1.2148 0.22656-1.6172l0.35547 1.4766-0.57813 0.38672c-4e-3 -0.0781-4e-3 -0.16406-4e-3 -0.24609m-0.15625 0.35547-0.27344 0.1875 0.31641-3.5703 0.24218 1c-0.17968 0.49609-0.28906 1.2188-0.28906 2.0273 0 0.12109 0 0.23828 4e-3 0.35547m-0.38672-0.11328-0.043-0.50782h0.0664v-0.20312h-0.21094v0.20312h0.082l0.043 0.50391-0.89844-3.0781c0.0117-0.14844 0.0274-0.30079 0.0469-0.44922h1.2266zm-0.88672-0.24219c0 1.2109-0.3125 2.1914-0.69531 2.1914-0.39063 0-0.69922-0.98047-0.69922-2.1914 0-1.2148 0.30859-2.1992 0.69922-2.1992 0.13281 0 0.26172 0.125 0.37109 0.33984-0.0859 0.58594-0.2539 1.2148-0.375 1.5703-0.0508 4e-3 -0.0898 0.1289-0.0898 0.28906 0 0.15625 0.0391 0.28516 0.0937 0.28516 0.043 0 0.082-0.10938 0.0859-0.25 0.0586-0.17579 0.13671-0.42969 0.21484-0.73829 0.0547-0.22656 0.125-0.54296 0.17969-0.88281 0.13281 0.39844 0.21484 0.96094 0.21484 1.5859m2.1289-2.707c-0.17188 0-0.32813 0.15234-0.46485 0.42187l-0.30078-1.2617 0.0391-0.44531c0.19141-0.0508 0.29688-0.27734 0.28907-0.49609-4e-3 -0.21485-0.19532-0.0547-0.40235-0.0469-0.0586 4e-3 -0.35937 0-0.35937 0.17578 4e-3 0.17579 0.19531 0.32422 0.33203 0.36719l-0.0234 0.26953h-1.2266c0.0273-0.26562 0.0508-0.51562 0.0664-0.70703 0.0195-0.16015 0.0273-0.28515 0.0351-0.34765l-0.0898-0.21485 0.043-0.13281h0.32812v-0.33984h-0.37109l-0.16406 0.51171 0.10546 0.2461c-0.0508 0.49609-0.16015 1.6602-0.23437 2.3594-0.125-0.23047-0.27344-0.35937-0.42578-0.35937-0.48047 0-0.86328 1.2109-0.86328 2.707 0 1.4922 0.38281 2.7031 0.86328 2.7031 0.47265 0 0.85547-1.2109 0.85547-2.7031 0-0.84375-0.1211-1.5938-0.3086-2.0898 4e-3 -0.0859 0.0156-0.17969 0.0274-0.27735l0.92578 3.168v0.0273c0 0.17188 0.043 0.3086 0.0937 0.31641l0.0703 0.77344h-0.0703v0.20703h0.21094v-0.20703h-0.0859l-0.0664-0.82031c0.0156-0.0273 0.0234-0.0625 0.0312-0.10938l0.31641-0.21094c0.10547 1.1133 0.43359 1.9258 0.82422 1.9258 0.47656 0 0.85937-1.2109 0.85937-2.7031 0-1.4961-0.38281-2.707-0.85937-2.707"/><path d="m179.12 325.01-5.3984-5.3867 0.0391-5.6211 6.0508 6.043 9.3086-5.1602-4.5859 7.3125z"/><path d="m186.71 313.14-13.02-13.004 0.0391-5.6172 13.797 13.781 10.52-5.1953-4.7109 6.8164z"/><path d="m188.41 295.39-14.797-14.777 0.0899-5.5703 15.867 15.855z"/><path d="m189.78 277.27-16.156-16.145 0.0859-5.5703 15.867 15.855z"/><path d="m188.62 256.62-15-14.984 0.0859-5.5703 15.867 15.855z"/><path d="m188.13 236.66-14.516-14.496 0.0899-5.5703 15.867 15.852z"/><path d="m188.13 217.17-11.656-11.645 2.8242-2.8281 10.273 10.258z"/></g></g><path d="m173.93 205.27v153.05" fill="none" stroke="#fff" stroke-width="2"/><path d="m194.14 302.53c5.1172-6.3203 6.3906-7.875 11.945-14.477 19.934-23.695 42.312-50.289 45.844-83.355 0.375-4.7852-4.0586-9.0039-9.0273-9.0039h-46.344c-4.9688 0-8.9961 4.0312-8.9961 9v95.984c0 4.3984 3.3828 5.8828 6.5781 1.8516z" fill="none" stroke="#211e1e" stroke-miterlimit="10"/><g fill="#fff"><path d="m72.789 218.63c0.625 0 1.1523 1.2773 1.332 3.0469l-1.2422 0.83985c-0.0273-0.043-0.0586-0.0742-0.0898-0.0742-0.10156 0-0.18359 0.25781-0.18359 0.57812 0 0.27344 0.0625 0.50391 0.14453 0.5586l0.76562 3.1914c-0.21094 0.40625-0.46094 0.63672-0.72656 0.63672-0.76953 0-1.3984-1.9648-1.3984-4.3867 0-2.4258 0.62891-4.3906 1.3984-4.3906m1.3984 4.3906c0 1.2774-0.17578 2.4258-0.45313 3.2305l-0.70703-2.9531 1.1484-0.77735c8e-3 0.16407 0.0117 0.32813 0.0117 0.5m0.30859-0.71484 0.54688-0.37109-0.63672 7.1328-0.47657-2c0.35547-0.98828 0.58204-2.4375 0.58204-4.0469 0-0.24609-8e-3 -0.48437-0.0156-0.71484m0.77734 0.22656 0.082 1.0156h-0.12892v0.40625h0.41797v-0.40625h-0.16797l-0.082-1.0078 1.7969 6.1562c-0.0273 0.29297-0.0547 0.59766-0.0898 0.89844h-2.457zm1.7695 0.48828c0-2.4258 0.6289-4.3906 1.3945-4.3906 0.77734 0 1.4023 1.9648 1.4023 4.3906 0 2.4219-0.625 4.3867-1.4023 4.3867-0.26953 0-0.52735-0.24609-0.74219-0.67578 0.17187-1.168 0.50391-2.4297 0.74609-3.1406 0.10157 0 0.1836-0.25782 0.1836-0.57032 0-0.32031-0.082-0.57812-0.1875-0.57812-0.0898 0-0.16797 0.21875-0.17578 0.5039-0.11719 0.34766-0.27344 0.85938-0.42579 1.4727-0.11328 0.45313-0.25781 1.0859-0.36328 1.7695-0.26172-0.80078-0.42968-1.9258-0.42968-3.168m-4.254 5.4101c0.33984 0 0.65625-0.30859 0.92187-0.83984l0.60547 2.5195-0.0781 0.89062c-0.37891 0.10547-0.58985 0.55469-0.57813 0.99219 0.0117 0.42187 0.39063 0.10547 0.8086 0.0898 0.11328-8e-3 0.71875 4e-3 0.71484-0.34765-4e-3 -0.35547-0.39062-0.65235-0.66406-0.73047l0.0508-0.54688h2.4492c-0.0508 0.53516-0.0977 1.0274-0.13672 1.4141-0.0312 0.32421-0.0547 0.57031-0.0664 0.69531l0.17578 0.42969-0.082 0.26953h-0.65625v0.67578h0.7461l0.32031-1.0156-0.20711-0.49605c0.0977-0.98828 0.32422-3.3203 0.46484-4.7227 0.25781 0.45703 0.55078 0.72266 0.85938 0.72266 0.95703 0 1.7226-2.4219 1.7226-5.4102 0-2.9922-0.76562-5.4141-1.7226-5.4141-0.94922 0-1.7188 2.4219-1.7188 5.4141 0 1.6797 0.24609 3.1797 0.6289 4.1758-0.0195 0.16797-0.0391 0.35547-0.0586 0.55469l-1.8516-6.3398v-0.0508c0-0.33985-0.0859-0.6211-0.19532-0.63282l-0.13281-1.5508h0.13281v-0.40625h-0.41796v0.40625h0.16796l0.14063 1.6445c-0.0312 0.0508-0.0547 0.125-0.0703 0.21485l-0.625 0.42578c-0.21094-2.2305-0.8711-3.8555-1.6484-3.8555-0.94922 0-1.7227 2.4219-1.7227 5.4141 0 2.9883 0.77344 5.4102 1.7227 5.4102"/><path d="m78.574 259.86-2.9766 9.4023-2.9414-9.4023 2.0938 1.7578 0.0273-10.012h1.7344v10.012z" fill-rule="evenodd"/><path d="m52.594 145.95c0 0.6211-1.2774 1.1484-3.0469 1.3281l-0.83984-1.2422c0.043-0.0273 0.0703-0.0547 0.0703-0.0859 0-0.10156-0.25781-0.18359-0.57422-0.18359-0.27344 0-0.5039 0.0625-0.55859 0.14453l-3.1914 0.76563c-0.40625-0.21485-0.64062-0.46094-0.64062-0.72657 0-0.77343 1.9688-1.3984 4.3906-1.3984 2.4258 0 4.3906 0.625 4.3906 1.3984m-4.3906 1.3945c-1.2773 0-2.4297-0.17188-3.2305-0.45313l2.9531-0.70703 0.77734 1.1523c-0.16406 8e-3 -0.32812 8e-3 -0.5 8e-3m0.71485 0.30859 0.37109 0.55078-7.1328-0.63672 1.9961-0.47656c0.99219 0.35547 2.4414 0.57812 4.0508 0.57812 0.24219 0 0.48047-4e-3 0.71485-0.0156m-0.22656 0.78101-1.0156 0.082v-0.13281h-0.40625v0.42187h0.40625v-0.16797l1.0078-0.0859-6.1602 1.8008c-0.29296-0.0312-0.59375-0.0586-0.89453-0.0898v-2.457zm-0.48828 1.7695c2.4258 0 4.3906 0.625 4.3906 1.3945 0 0.77344-1.9648 1.3984-4.3906 1.3984-2.4219 0-4.3906-0.625-4.3906-1.3984 0-0.27344 0.25-0.52734 0.67968-0.74609 1.168 0.17187 2.4297 0.50781 3.1406 0.75 0 0.10156 0.25781 0.17969 0.57031 0.17969 0.31641 0 0.57422-0.0781 0.57422-0.1836 0-0.0898-0.21875-0.16797-0.50391-0.17578-0.34375-0.12109-0.85546-0.27734-1.4688-0.42578-0.45703-0.11328-1.0859-0.25781-1.7695-0.36328 0.80078-0.26563 1.9258-0.42969 3.168-0.42969m-5.4102-4.2539c0 0.33594 0.30859 0.65235 0.83984 0.92188l-2.5195 0.60156-0.89063-0.0781c-0.10547-0.37891-0.55468-0.58985-0.99218-0.57422-0.42579 0.0117-0.10547 0.38672-0.0898 0.80469 4e-3 0.11328-4e-3 0.72265 0.34766 0.71875 0.35547-4e-3 0.65234-0.39063 0.73047-0.66407l0.54687 0.0469v2.4492c-0.53515-0.0508-1.0312-0.0977-1.4141-0.13282-0.32813-0.0312-0.57422-0.0586-0.69531-0.0703l-0.42974 0.17964-0.26953-0.0859v-0.65234h-0.67969v0.74219l1.0195 0.32031 0.4961-0.20313c0.98828 0.0977 3.3164 0.32032 4.7226 0.46485-0.46094 0.2539-0.72265 0.54687-0.72265 0.85937 0 0.95313 2.4219 1.7227 5.4102 1.7227 2.9922 0 5.4141-0.76953 5.4141-1.7227 0-0.94922-2.4219-1.7188-5.4141-1.7188-1.6797 0-3.1836 0.24219-4.1758 0.625-0.16797-0.0195-0.35547-0.0352-0.55469-0.0586l6.3359-1.8516h0.0508c0.34375 0 0.625-0.0859 0.63672-0.19141l1.5508-0.13281v0.13281h0.40625v-0.41797h-0.40625v0.16797l-1.6445 0.13672c-0.0547-0.0273-0.12891-0.0508-0.21875-0.0664l-0.42187-0.625c2.2305-0.21484 3.8555-0.87109 3.8555-1.6484 0-0.95312-2.4219-1.7226-5.4141-1.7226-2.9883 0-5.4102 0.76953-5.4102 1.7226"/><path d="m11.367 151.73-9.4062-2.9726 9.4062-2.9453-1.7578 2.0938 10.012 0.0312v1.7305h-10.012z" fill-rule="evenodd"/><path d="m188.64 344.8c-1.6016-1.4375-3.1992-2.832-4.8008-4.2695 0.35547 1.2461 0.71485 2.4922 1.0703 3.7344-0.35547 0.0117-0.71485 0.0195-1.0703 0.0312-3.1758 0.23047-4.8672 1.9062-5.332 4.7812v4.8086h1.5938v-3.2148c0.35157-2.2422 1.4805-3.6211 3.7383-3.7383h1.0703c-0.17969 1.2461-0.36719 2.4922-0.54688 3.7383 1.4258-1.9414 2.8477-3.9297 4.2774-5.8711" fill-rule="evenodd"/><g><path d="m179.2 383.91c-0.48828 0-0.6875-0.99609-0.67969-5.5547 0.0156-4.5586 0.19141-5.5547 0.67969-5.5547 0.49219 0 0.64063 0.99609 0.64063 5.5547 0 4.5586-0.14844 5.5547-0.64063 5.5547m-0.0312-13.738c-0.72656 0-1.3008 1.4648-1.3164 8.1836-0.0117 6.7148 0.58984 8.1836 1.3164 8.1836 0.72266 0 1.3125-1.4688 1.3125-8.1836 0-6.7188-0.58984-8.1836-1.3125-8.1836"/><path d="m181.12 386.46v-16.289h0.65234l1.3125 10.434v-10.434h0.65235v16.289h-0.65235l-1.3125-10.418v10.418z"/><path d="m184.4 370.17v16.285h2.6055v-2.6328h-1.9531v-13.652z"/><path d="m186.68 370.18 0.97657 9.7773v6.5156h0.65234v-6.5156l0.97656-9.7773h-0.65234l-0.64844 6.5273-0.65625-6.5273z"/></g><path d="m188.64 426.93c-1.6016-1.4414-3.1992-2.832-4.8008-4.2734 0.35547 1.2461 0.71485 2.4922 1.0703 3.7383-0.35547 8e-3 -0.71485 0.0156-1.0703 0.0273-3.1758 0.23438-4.8672 1.9102-5.332 4.7812v4.8086h1.5938v-3.2148c0.35157-2.2422 1.4805-3.6211 3.7383-3.7383h1.0703c-0.17969 1.2461-0.36719 2.4922-0.54688 3.7383 1.4258-1.9414 2.8477-3.9258 4.2774-5.8672" fill-rule="evenodd"/><g><path d="m179.2 466.03c-0.48828 0-0.6875-0.99609-0.67969-5.5547 0.0156-4.5586 0.19141-5.5547 0.67969-5.5547 0.49219 0 0.64063 0.99609 0.64063 5.5547 0 4.5586-0.14844 5.5547-0.64063 5.5547m-0.0312-13.738c-0.72656 0-1.3008 1.4688-1.3164 8.1836-0.0117 6.7148 0.58984 8.1836 1.3164 8.1836 0.72266 0 1.3125-1.4688 1.3125-8.1836 0-6.7148-0.58984-8.1836-1.3125-8.1836"/><path d="m181.12 468.59v-16.293h0.65234l1.3125 10.434v-10.434h0.65235v16.293h-0.65235l-1.3125-10.422v10.422z"/><path d="m184.4 452.29v16.285h2.6055v-2.6328h-1.9531v-13.652z"/><path d="m186.68 452.31 0.97657 9.7734v6.5195h0.65234v-6.5195l0.97656-9.7734h-0.65234l-0.64844 6.5273-0.65625-6.5273z"/></g><path d="m206.84 139.96c-1.4375 1.6016-2.832 3.1992-4.2695 4.8047 1.2461-0.35937 2.4922-0.71484 3.7344-1.0742 0.0117 0.35938 0.0156 0.71485 0.0274 1.0742 0.23437 3.1758 1.9102 4.8672 4.7812 5.332h4.8125v-1.5938h-3.2188c-2.2383-0.35547-3.6211-1.4805-3.7344-3.7383v-1.0742c1.2461 0.1836 2.4883 0.36719 3.7344 0.55078-1.9375-1.4297-3.9258-2.8516-5.8672-4.2812" fill-rule="evenodd"/><g><path d="m243.55 149.39c0 0.48828-0.99609 0.6836-5.5547 0.67578-4.5586-0.0117-5.5547-0.1875-5.5547-0.67578 0-0.49218 0.99609-0.64062 5.5547-0.64062 4.5586 0 5.5547 0.14844 5.5547 0.64062m-13.738 0.0312c0 0.72266 1.4688 1.2969 8.1836 1.3164 6.7148 0.0117 8.1836-0.59375 8.1836-1.3164 0-0.72265-1.4688-1.3125-8.1836-1.3125-6.7148 0-8.1836 0.58985-8.1836 1.3125"/><path d="m246.11 147.47h-16.293v-0.65235l10.434-1.3086h-10.434v-0.65234h16.293v0.65234l-10.422 1.3086h10.422z"/><path d="m229.82 144.2h16.285v-2.6094h-2.6328v1.957h-13.652z"/><path d="m229.83 141.92 9.7774-0.98047h6.5195v-0.65234h-6.5195l-9.7774-0.97266v0.65235l6.5274 0.64843-6.5274 0.65235z"/></g><path d="m283.41 139.96c-1.4375 1.6016-2.832 3.1992-4.2695 4.8047 1.2461-0.35937 2.4922-0.71484 3.7344-1.0742 0.0117 0.35938 0.0195 0.71485 0.0312 1.0742 0.23047 3.1758 1.9062 4.8672 4.7812 5.332h4.8086v-1.5938h-3.2148c-2.2422-0.35547-3.6211-1.4805-3.7383-3.7383v-1.0742c1.2461 0.1836 2.4922 0.36719 3.7383 0.55078-1.9414-1.4297-3.9297-2.8516-5.8711-4.2812" fill-rule="evenodd"/><g><path d="m320.12 149.39c0 0.48828-0.9961 0.6836-5.5547 0.67578-4.5586-0.0117-5.5547-0.1875-5.5547-0.67578 0-0.49218 0.9961-0.64062 5.5547-0.64062s5.5547 0.14844 5.5547 0.64062m-13.738 0.0312c0 0.72266 1.4688 1.2969 8.1836 1.3164 6.7148 0.0117 8.1836-0.59375 8.1836-1.3164 0-0.72265-1.4688-1.3125-8.1836-1.3125s-8.1836 0.58985-8.1836 1.3125"/><path d="m322.68 147.47h-16.293v-0.65235l10.434-1.3086h-10.434v-0.65234h16.293v0.65234l-10.422 1.3086h10.422z"/><path d="m306.39 144.2h16.285v-2.6094h-2.6328v1.957h-13.652z"/><path d="m306.4 141.92 9.7734-0.98047h6.5195v-0.65234h-6.5195l-9.7734-0.97266v0.65235l6.5273 0.64843-6.5273 0.65235z"/></g></g><path d="m173.93 474.15v39.277" fill="none" stroke="#fff" stroke-dasharray="2.88, 5.76" stroke-width="2"/><path d="m161.64 474.15v49.109" fill="none" stroke="#fff" stroke-dasharray="2.88, 5.76" stroke-width="2"/><g fill="#fff"><g><path d="m232.12 186.59-5.457-4.5469h-1.3633l5.457 4.5469-5.457 4.5469h1.3633z"/><path d="m229.39 186.59-5.4531-4.5469h-1.3633l5.4531 4.5469-5.4531 4.5469h1.3633z"/><path d="m207.68 189.41c0-0.625 1.2812-1.1484 3.0586-1.332l0.83985 1.2422c-0.0469 0.0273-0.0742 0.0586-0.0742 0.0898 0 0.10157 0.25781 0.17969 0.57422 0.17969 0.28125 0 0.50781-0.0625 0.5664-0.14453l3.1914-0.76172c0.40625 0.21094 0.64453 0.46094 0.64453 0.72656 0 0.76954-1.9727 1.3945-4.4023 1.3945-2.4258 0-4.3984-0.625-4.3984-1.3945m4.3984-1.3984c1.2852 0 2.4336 0.17578 3.2422 0.45312l-2.9609 0.70703-0.78125-1.1523c0.16406-4e-3 0.33203-8e-3 0.5-8e-3m-0.71485-0.3086-0.37109-0.54687 7.1445 0.63672-2 0.47656c-0.99219-0.35547-2.4414-0.58203-4.0586-0.58203-0.24219 0-0.48047 4e-3 -0.71485 0.0156m0.23047-0.77734 1.0156-0.0859v0.13281h0.41015v-0.41796h-0.41015v0.16796l-1.0078 0.082 6.168-1.7969c0.29688 0.0273 0.59766 0.0586 0.89844 0.0859v2.4609zm0.48438-1.7695c-2.4258 0-4.3984-0.62891-4.3984-1.3984s1.9726-1.3945 4.3984-1.3945c2.4297 0 4.4023 0.625 4.4023 1.3945 0 0.27344-0.25 0.53125-0.68359 0.74609-1.1719-0.17187-2.4297-0.5039-3.1406-0.74609-4e-3 -0.10156-0.26172-0.17969-0.57812-0.17969-0.31641 0-0.57422 0.0781-0.57422 0.17969 0 0.0937 0.22265 0.17188 0.5039 0.17969 0.35157 0.12109 0.85938 0.27344 1.4766 0.42578 0.45703 0.11328 1.0859 0.25391 1.7695 0.36328-0.80078 0.26172-1.9297 0.42969-3.1758 0.42969m5.4219 4.2539c0-0.33984-0.30469-0.65625-0.83984-0.92187l2.5273-0.60547 0.88672 0.082c0.10547 0.375 0.55859 0.58594 0.99609 0.57422 0.42578-0.0156 0.10547-0.39062 0.0899-0.80859-4e-3 -0.11328 4e-3 -0.71875-0.34766-0.71485-0.35937 4e-3 -0.65234 0.39063-0.73437 0.66407l-0.54688-0.0508v-2.4492c0.53906 0.0508 1.0352 0.0977 1.418 0.13671 0.32812 0.0312 0.57422 0.0547 0.69922 0.0664l0.42578-0.17969 0.26953 0.0859v0.65625h0.68359v-0.74609l-1.0234-0.32032-0.4961 0.20313c-0.99218-0.0937-3.3242-0.32031-4.7266-0.46484 0.45703-0.25391 0.71875-0.54688 0.71875-0.85938 0-0.94922-2.4258-1.7188-5.4219-1.7188-2.9922 0-5.418 0.76953-5.418 1.7188 0 0.95313 2.4258 1.7227 5.418 1.7227 1.6875 0 3.1914-0.2461 4.1836-0.62891 0.17187 0.0195 0.35937 0.0391 0.55859 0.0586l-6.3516 1.8516h-0.0508c-0.34375 0-0.62109 0.0859-0.63281 0.19531l-1.5508 0.12891v-0.13282h-0.41016v0.41797h0.41016v-0.16406l1.6445-0.14063c0.0547 0.0312 0.1289 0.0547 0.21484 0.0703l0.42578 0.625c-2.2344 0.21093-3.8594 0.87109-3.8594 1.6484 0 0.94922 2.4258 1.7188 5.418 1.7188 2.9961 0 5.4219-0.76953 5.4219-1.7188"/><path d="m316.4 186.59-5.4531-4.5469h-1.3672l5.457 4.5469-5.457 4.5469h1.3672z"/><path d="m313.67 186.59-5.457-4.5469h-1.3633l5.457 4.5469-5.457 4.5469h1.3633z"/><path d="m291.96 189.41c0-0.625 1.2852-1.1484 3.0586-1.332l0.83985 1.2422c-0.043 0.0273-0.0703 0.0586-0.0703 0.0898 0 0.10157 0.25391 0.17969 0.57422 0.17969 0.27735 0 0.50781-0.0625 0.5625-0.14453l3.1953-0.76172c0.40625 0.21094 0.64063 0.46094 0.64063 0.72656 0 0.76954-1.9688 1.3945-4.3984 1.3945s-4.4023-0.625-4.4023-1.3945m4.4023-1.3984c1.2812 0 2.4336 0.17578 3.2383 0.45312l-2.957 0.70703-0.78125-1.1523c0.16406-4e-3 0.32813-8e-3 0.5-8e-3m-0.71484-0.3086-0.3711-0.54687 7.1406 0.63672-1.9961 0.47656c-0.99219-0.35547-2.4414-0.58203-4.0586-0.58203-0.24219 0-0.48047 4e-3 -0.71484 0.0156m0.22656-0.77734 1.0195-0.0859v0.13281h0.40625v-0.41796h-0.40625v0.16796l-1.0078 0.082 6.168-1.7969c0.29297 0.0273 0.59765 0.0586 0.89453 0.0859v2.4609zm0.48828-1.7695c-2.4297 0-4.4023-0.62891-4.4023-1.3984s1.9726-1.3945 4.4023-1.3945 4.3984 0.625 4.3984 1.3945c0 0.27344-0.24609 0.53125-0.67969 0.74609-1.1719-0.17187-2.4336-0.5039-3.1445-0.74609-4e-3 -0.10156-0.25781-0.17969-0.57422-0.17969-0.32031 0-0.57422 0.0781-0.57422 0.17969 0 0.0937 0.21875 0.17188 0.50391 0.17969 0.34766 0.12109 0.85937 0.27344 1.4727 0.42578 0.45703 0.11328 1.0859 0.25391 1.7695 0.36328-0.80078 0.26172-1.9258 0.42969-3.1719 0.42969m5.4219 4.2539c0-0.33984-0.3086-0.65625-0.84375-0.92187l2.5273-0.60547 0.89063 0.082c0.10156 0.375 0.55468 0.58594 0.99609 0.57422 0.42187-0.0156 0.10547-0.39062 0.0859-0.80859 0-0.11328 4e-3 -0.71875-0.34375-0.71485-0.36328 4e-3 -0.65625 0.39063-0.73828 0.66407l-0.54297-0.0508v-2.4492c0.53515 0.0508 1.0312 0.0977 1.418 0.13671 0.32812 0.0312 0.57421 0.0547 0.69531 0.0664l0.42969-0.17969 0.26562 0.0859v0.65625h0.68359v-0.74609l-1.0234-0.32032-0.49219 0.20313c-0.99219-0.0937-3.3242-0.32031-4.7305-0.46484 0.46094-0.25391 0.72266-0.54688 0.72266-0.85938 0-0.94922-2.4258-1.7188-5.4219-1.7188-2.9961 0-5.4219 0.76953-5.4219 1.7188 0 0.95313 2.4258 1.7227 5.4219 1.7227 1.6875 0 3.1914-0.2461 4.1836-0.62891 0.17187 0.0195 0.35546 0.0391 0.55859 0.0586l-6.3516 1.8516h-0.0508c-0.34375 0-0.625 0.0859-0.63672 0.19531l-1.5508 0.12891v-0.13282h-0.41012v0.41797h0.41016v-0.16406l1.6445-0.14063c0.0547 0.0312 0.1289 0.0547 0.21875 0.0703l0.42578 0.625c-2.2383 0.21093-3.8633 0.87109-3.8633 1.6484 0 0.94922 2.4258 1.7188 5.4219 1.7188 2.9961 0 5.4219-0.76953 5.4219-1.7188"/><path d="m170.36 106.31c-0.625 0-1.1523-1.2812-1.332-3.0508l1.2422-0.83984c0.0273 0.0469 0.0586 0.0742 0.0898 0.0742 0.10156 0 0.1836-0.25781 0.1836-0.57422 0-0.27734-0.0664-0.50781-0.14844-0.5625l-0.76563-3.1875c0.21485-0.40625 0.46094-0.64062 0.73047-0.64062 0.76953 0 1.3945 1.9648 1.3945 4.3906s-0.625 4.3906-1.3945 4.3906m-1.3984-4.3906c0-1.2773 0.17188-2.4297 0.45313-3.2344l0.70703 2.9531-1.1523 0.77734c-8e-3 -0.16015-8e-3 -0.32812-8e-3 -0.49609m-0.30859 0.71484-0.55078 0.3711 0.64062-7.1367 0.47266 2c-0.35156 0.98828-0.57812 2.4375-0.57812 4.0508 0 0.24219 4e-3 0.48047 0.0156 0.71484m-0.77734-0.23046-0.0859-1.0117h0.13281v-0.41016h-0.41797v0.41016h0.16407l0.0859 1.0039-1.8008-6.1562c0.0312-0.29297 0.0586-0.59765 0.0899-0.89843h2.4609zm-1.7695-0.48438c0 2.4258-0.62891 4.3906-1.3984 4.3906-0.77344 0-1.3984-1.9648-1.3984-4.3906s0.625-4.3906 1.3984-4.3906c0.27344 0 0.52734 0.24609 0.74609 0.67578-0.17187 1.1719-0.50781 2.4297-0.75 3.1406-0.0976 4e-3 -0.17969 0.25781-0.17969 0.57422s0.082 0.57422 0.1836 0.57422c0.0937 0 0.16797-0.21875 0.17969-0.50391 0.11718-0.34765 0.27343-0.85937 0.42578-1.4726 0.11328-0.45313 0.2539-1.082 0.36328-1.7656 0.26172 0.80078 0.42969 1.9219 0.42969 3.168m4.2539-5.4141c-0.33984 0-0.65625 0.30859-0.92578 0.84375l-0.60156-2.5234 0.0781-0.89062c0.37891-0.10157 0.58985-0.55469 0.57813-0.99219-0.0156-0.42188-0.39063-0.10547-0.8086-0.0898-0.11328 8e-3 -0.71875-4e-3 -0.71875 0.34766 4e-3 0.35938 0.39063 0.65234 0.66797 0.73438l-0.0508 0.54296h-2.4492c0.0508-0.53515 0.0977-1.0273 0.13672-1.4141 0.0312-0.32422 0.0547-0.57031 0.0664-0.69531l-0.17969-0.42969 0.0859-0.26562h0.65234v-0.67969h-0.74219l-0.32031 1.0195 0.20313 0.49219c-0.0937 0.98828-0.32032 3.3203-0.46485 4.7226-0.2539-0.45703-0.54687-0.72265-0.85937-0.72265-0.95313 0-1.7227 2.4258-1.7227 5.4141s0.76953 5.4102 1.7227 5.4102c0.94922 0 1.7226-2.4219 1.7226-5.4102 0-1.6836-0.24609-3.1836-0.6289-4.1797 0.0195-0.16797 0.0391-0.35547 0.0586-0.55468l1.8516 6.3398v0.0508c0 0.34375 0.0859 0.62109 0.19532 0.63281l0.1289 1.5508h-0.13281v0.41016h0.41797v-0.41016h-0.16406l-0.14063-1.6445c0.0274-0.0508 0.0547-0.125 0.0703-0.21484l0.625-0.42188c0.21094 2.2305 0.8711 3.8516 1.6484 3.8516 0.94922 0 1.7227-2.4219 1.7227-5.4102s-0.77344-5.4141-1.7227-5.4141"/></g><path d="m164.57 65.078 2.9766-9.4024 2.9414 9.4024-2.0938-1.7578-0.0273 10.012h-1.7344v-10.012z" fill-rule="evenodd"/></g><g fill="none" stroke="#211e1e"><g><path d="m173.43 2e-6v117.88c0 9.9414 8.0586 18 18 18h144.8"/><path d="m69.719 561.28v-347.59c0-9.9375-8.0586-18-18-18h-51.492"/><path d="m0.22656 142.88h51.492c9.9414 0 18-8.0586 18-18v-124.88"/></g><path d="m177.43 561.28v-33c0-5.3281 4.3672-15.355 8.2305-24.211 5.4336-12.465 11.055-25.352 11.055-37.289v-113.25c0-13.523 14.32-30.543 29.484-48.562 20.707-24.613 45.906-54.559 51.402-93.648 1.2227-8.7539 8.7461-15.629 17.832-15.629h40.797" stroke-miterlimit="10"/></g><g fill="#211e1e"><path d="m334.23 145.95h-6.3555v1.5586l-4.375-2.5742 4.375-2.3984v1.4375h6.3555z"/><path d="m323.5 185.66h6.3516v-1.5586l4.3789 2.5742-4.3789 2.3984v-1.4375h-6.3516z"/><path d="m334.23 165.23h-6.3555v1.5586l-4.375-2.5742 4.375-2.3984v1.4375h6.3555z"/><path d="m92.082 2v6.3555h1.5586l-2.5781 4.375-2.3945-4.375h1.4375v-6.3555z"/><path d="m131.79 12.73v-6.3516h-1.5586l2.5781-4.3789 2.3984 4.3789h-1.4375v6.3516z"/><path d="m151.07 12.73v-6.3516h-1.5625l2.5781-4.3789 2.3984 4.3789h-1.4375v6.3516z"/><path d="m111.36 2v6.3555h1.5586l-2.5781 4.375-2.3984-4.375h1.4414v-6.3555z"/><path d="m92.082 547.55v6.3555h1.5586l-2.5781 4.375-2.3945-4.375h1.4375v-6.3555z"/><path d="m131.79 558.28v-6.3516h-1.5586l2.5781-4.3789 2.3984 4.3789h-1.4375v6.3516z"/><path d="m151.07 558.28v-6.3516h-1.5625l2.5781-4.3789 2.3984 4.3789h-1.4375v6.3516z"/><path d="m111.36 547.55v6.3555h1.5586l-2.5781 4.375-2.3984-4.375h1.4414v-6.3555z"/><path d="m3.2266 185.66h6.3555v-1.5586l4.375 2.5742-4.375 2.3984v-1.4375h-6.3555z"/><path d="m13.957 165.23h-6.3516v1.5586l-4.3789-2.5742 4.3789-2.3984v1.4375h6.3516z"/></g><g fill="none" stroke="#facc2b" stroke-width="2"><path d="m123.07 127.88v-127.88"/><path d="m123.07 561.28v-359.59"/><path d="m120.07 201.7v359.59"/><path d="m120.07 2e-6v127.87"/></g><path d="m56.262 134.8v-1.2461h4.7969v1.2461h1.7578v1.7617h-8.4726v-1.7617z" fill="#211e1e"/><path d="m55.875 138.87c-7.6094 7.543-18.352-8.6484-26.648-8.6484" fill="none" stroke="#211e1e" stroke-width=".75"/><path d="m57.168 138.48c-0.48829 0.76172-0.76172 1.3125-1.1094 1.9766l-1.7188-2.0117c0.26563-0.0742 1.2969-0.42188 2.1289-0.78906 0.88672-0.38672 1.6523-0.78907 2.1094-1.0898-0.36719 0.40625-0.88672 1.0977-1.4102 1.9141" fill="#211e1e"/><path d="m196.73 206.07v-1.2422h-4.7969v1.2422h-1.7578v1.7617h8.4727v-1.7617z" fill="#211e1e"/><path d="m194.41 211.39c0 25.84 38.465 35.617 82.438 35.617" fill="none" stroke="#211e1e" stroke-width=".75"/><path d="m193.88 210.15c-0.26172 0.86719-0.50391 1.4336-0.78125 2.1289h2.6484c-0.11718-0.2461-0.52343-1.2617-0.78515-2.1289-0.27735-0.92969-0.47266-1.7695-0.53906-2.3164-0.0703 0.54688-0.26172 1.3867-0.54297 2.3164" fill="#211e1e"/><path d="m196.73 292.07v-1.2422h-4.7969v1.2422h-1.7578v1.7617h8.4727v-1.7617z" fill="#211e1e"/><path d="m194.41 297.39c0 29.629 27.586 37.41 45.539 37.41" fill="none" stroke="#211e1e" stroke-width=".75"/><g><path d="m193.88 296.15c-0.26172 0.87109-0.50391 1.4336-0.78125 2.1289h2.6484c-0.11718-0.24609-0.52343-1.2578-0.78515-2.1289-0.27735-0.92579-0.47266-1.7695-0.53906-2.3164-0.0703 0.54687-0.26172 1.3906-0.54297 2.3164" fill="#211e1e"/><path d="m250.11 345.3c-0.84375 0-1.5312-0.6875-1.5312-1.5312v-6.1875c0-0.84375 0.6875-1.5312 1.5312-1.5312h37.688c0.84375 0 1.5312 0.6875 1.5312 1.5312v6.1875c0 0.84375-0.6875 1.5312-1.5312 1.5312z" fill="#fff"/><path d="m287.8 335.93h-37.688c-0.91406 0-1.6562 0.74219-1.6562 1.6562v6.1875c0 0.91406 0.74219 1.6562 1.6562 1.6562h37.688c0.91406 0 1.6562-0.74219 1.6562-1.6562v-6.1875c0-0.91406-0.74219-1.6562-1.6562-1.6562m0 0.25c0.77735 0 1.4062 0.62891 1.4062 1.4062v6.1875c0 0.77344-0.6289 1.4062-1.4062 1.4062h-37.688c-0.77734 0-1.4062-0.63281-1.4062-1.4062v-6.1875c0-0.77734 0.62891-1.4062 1.4062-1.4062h37.688" fill="#211e1e"/><path d="m250.11 344.8c-0.5664 0-1.0312-0.46484-1.0312-1.0312v-6.1875c0-0.57031 0.46485-1.0312 1.0312-1.0312h37.688c0.57031 0 1.0312 0.46094 1.0312 1.0312v6.1875c0 0.56641-0.46094 1.0312-1.0312 1.0312z" fill="#211e1e"/><path d="m250.11 344.24c-0.25781 0-0.46875-0.21094-0.46875-0.46875v-6.1875c0-0.25781 0.21094-0.46875 0.46875-0.46875h37.688c0.25781 0 0.46875 0.21094 0.46875 0.46875v6.1875c0 0.25781-0.21094 0.46875-0.46875 0.46875z" fill="#fff"/></g><g fill="#211e1e"><g><path d="m262.5 339.71c-0.0859-0.043-0.14063-0.0547-0.28516-0.0547h-0.62109v0.73828h0.62109c0.14453 0 0.19922-0.0117 0.28516-0.0547 0.10156-0.0508 0.17968-0.19141 0.17968-0.31641s-0.0781-0.2539-0.17968-0.3125m0.19922 1.0586c-0.13672 0.0664-0.31641 0.10937-0.54688 0.10937h-0.55859v1.3047h-0.47657v-3h1.0352c0.24219 0 0.39844 0.0195 0.54688 0.0937 0.26171 0.125 0.46093 0.44141 0.46093 0.74609 0 0.31641-0.19922 0.63282-0.46093 0.7461"/><path d="m264.5 339.6v2.582h-0.47656v-2.582h-0.68359v-0.41797h1.8594v0.41797z"/><path d="m255.06 342.18-0.48047-1-0.48828 1h-0.53516l0.7461-1.5508-0.69141-1.4492h0.53516l0.43359 0.89453 0.42969-0.89453h0.53516l-0.70313 1.4492 0.75781 1.5508z"/><path d="m251.39 342.18v-3h1.7656v0.47266h-1.293v0.73828h0.8711v0.48047h-0.8711v0.82421h1.3867v0.48438z"/><path d="m258.75 342.18v-3h1.7656v0.47266h-1.293v0.73828h0.8711v0.48047h-0.8711v0.82421h1.3867v0.48438z"/><path d="m257.18 342.23c-0.44141 0-0.72656-0.16797-0.91797-0.53516-0.13672-0.26562-0.21875-0.64453-0.21875-1.0234 0-0.47266 0.125-0.94532 0.33594-1.2109 0.17969-0.21875 0.43359-0.33594 0.76953-0.33594 0.45313 0 0.73438 0.19141 0.9375 0.61328l-0.44141 0.1875c-0.16796-0.2539-0.26562-0.3164-0.49609-0.3164-0.24219 0-0.40234 0.10547-0.50391 0.36718-0.0742 0.1836-0.11718 0.44532-0.11718 0.69532 0 0.32812 0.0742 0.65625 0.1875 0.84375 0.10937 0.15625 0.24218 0.23047 0.45312 0.23047 0.19922 0 0.34766-0.10547 0.46485-0.34375l0.45312 0.16796c-0.17969 0.44141-0.47266 0.66016-0.90625 0.66016"/><path d="m270.75 339.18h0.48047v3h-0.48047z"/><path d="m286.22 342c-0.16797 0.14844-0.39844 0.23047-0.65235 0.23047-0.51562 0-0.89453-0.30469-1.0938-0.75781l0.45313-0.16797c0.125 0.28516 0.35547 0.44141 0.64062 0.44141 0.27344 0 0.46485-0.1875 0.46485-0.44141 0-0.40234-0.46485-0.46094-0.85157-0.62109-0.17968-0.0742-0.58203-0.25-0.58203-0.7461 0-0.58984 0.40235-0.8125 0.9375-0.8125 0.42188 0 0.70703 0.24219 0.85547 0.60938l-0.42578 0.1289s-0.10156-0.2539-0.4375-0.26172c-0.22266-0.0117-0.48828 0.0742-0.46484 0.34375 0.043 0.5586 1.4531 0.19141 1.4531 1.3711 0 0.27344-0.10547 0.51562-0.29687 0.68359"/><path d="m275.86 340.88v1.3047h-0.48047v-1.3047l-1.0547-1.6953h0.57031l0.71875 1.1562 0.73047-1.1562h0.5625z"/><path d="m282.31 342.18v-3h1.7656v0.47266h-1.293v0.73828h0.8711v0.48047h-0.8711v0.82421h1.3867v0.48438z"/><path d="m269.48 340.89c-0.0625-0.0195-0.0977-0.0195-0.19922-0.0195h-0.60156v0.82031h0.71484c0.24219 0 0.3711-0.11718 0.3711-0.34765 0-0.19922-0.11719-0.39063-0.28516-0.45313m-0.10547-1.2422h-0.69531v0.73437h0.57031c0.13281 0 0.19922-0.0195 0.28516-0.082 0.10156-0.0859 0.16797-0.21094 0.16797-0.34766 0-0.19922-0.11719-0.30468-0.32813-0.30468m0.39063 2.4531c-0.10547 0.043-0.28516 0.0742-0.42188 0.0742h-1.1367v-3h1.1367c0.47266 0 0.83203 0.32422 0.83203 0.75781 0 0.29297-0.13672 0.51563-0.42187 0.67188 0.3164 0.14843 0.49609 0.39843 0.49609 0.72656 0 0.32812-0.20312 0.65234-0.48437 0.76953"/><path d="m273.03 342.23c-0.44141 0-0.72657-0.16797-0.91407-0.53516-0.13671-0.26562-0.22265-0.64453-0.22265-1.0234 0-0.47266 0.125-0.94532 0.33594-1.2109 0.17968-0.21875 0.43359-0.33594 0.76953-0.33594 0.45312 0 0.73828 0.19141 0.9375 0.61328l-0.44141 0.1875c-0.16797-0.2539-0.26562-0.3164-0.49609-0.3164-0.24219 0-0.39844 0.10547-0.50391 0.36718-0.0742 0.1836-0.11719 0.44532-0.11719 0.69532 0 0.32812 0.0742 0.65625 0.1875 0.84375 0.10938 0.15625 0.24219 0.23047 0.45313 0.23047 0.20312 0 0.34765-0.10547 0.46484-0.34375l0.45313 0.16796c-0.17969 0.44141-0.47266 0.66016-0.90625 0.66016"/><path d="m278.44 342.23c-0.44532 0-0.73047-0.16797-0.91797-0.53516-0.13672-0.26562-0.22266-0.64453-0.22266-1.0234 0-0.47266 0.12891-0.94532 0.33985-1.2109 0.17968-0.21875 0.42968-0.33594 0.76953-0.33594 0.44922 0 0.73437 0.19141 0.93359 0.61328l-0.44141 0.1875c-0.16796-0.2539-0.26171-0.3164-0.49218-0.3164-0.24219 0-0.40235 0.10547-0.50782 0.36718-0.0742 0.1836-0.11328 0.44532-0.11328 0.69532 0 0.32812 0.0703 0.65625 0.1875 0.84375 0.10547 0.15625 0.24219 0.23047 0.45313 0.23047 0.19922 0 0.34765-0.10547 0.46094-0.34375l0.45312 0.16796c-0.17578 0.44141-0.47266 0.66016-0.90234 0.66016"/><path d="m280 342.18v-3h0.47265v2.5586h1.3867v0.44141z"/></g><g transform="translate(-137.77 -58.57)"><use x="445.10361" y="295.91211" width="100%" height="100%" xlink:href="#d"/><use x="450.87961" y="295.91211" width="100%" height="100%" xlink:href="#a"/><use x="455.32761" y="295.91211" width="100%" height="100%" xlink:href="#c"/><use x="457.99161" y="295.91211" width="100%" height="100%" xlink:href="#a"/><use x="435.31161" y="390.49609" width="100%" height="100%" xlink:href="#d"/><use x="441.08759" y="390.49609" width="100%" height="100%" xlink:href="#a"/><use x="445.53561" y="390.49609" width="100%" height="100%" xlink:href="#c"/><use x="448.19958" y="390.49609" width="100%" height="100%" xlink:href="#x"/><use x="452.64761" y="390.49609" width="100%" height="100%" xlink:href="#w"/><use x="440.5596" y="314.9921" width="100%" height="100%" xlink:href="#d"/><use x="446.3356" y="314.9921" width="100%" height="100%" xlink:href="#a"/><use x="450.7836" y="314.9921" width="100%" height="100%" xlink:href="#c"/><use x="453.4476" y="314.9921" width="100%" height="100%" xlink:href="#v"/><use x="457.8956" y="314.9921" width="100%" height="100%" xlink:href="#u"/><use x="462.3436" y="314.9921" width="100%" height="100%" xlink:href="#t"/></g></g><g><path d="m280.56 248.71c-0.99609 0-1.8086-0.8125-1.8086-1.8086v-23.586c0-1 0.8125-1.8125 1.8086-1.8125h23.59c0.9961 0 1.8086 0.8125 1.8086 1.8125v23.586c0 0.99609-0.8125 1.8086-1.8086 1.8086z" fill="#fff"/><path d="m304.14 221.38h-23.586c-1.0664 0-1.9336 0.86719-1.9336 1.9375v23.586c0 1.0664 0.86718 1.9336 1.9336 1.9336h23.586c1.0664 0 1.9375-0.86718 1.9375-1.9336v-23.586c0-1.0703-0.8711-1.9375-1.9375-1.9375m0 0.25c0.92969 0 1.6875 0.75781 1.6875 1.6875v23.586c0 0.92578-0.75781 1.6836-1.6875 1.6836h-23.586c-0.92578 0-1.6836-0.75781-1.6836-1.6836v-23.586c0-0.92969 0.75781-1.6875 1.6836-1.6875h23.586" fill="#211e1e"/><path d="m280.56 248.11c-0.67187 0-1.2188-0.54297-1.2188-1.2148v-23.586c0-0.67187 0.54688-1.2188 1.2188-1.2188h23.59c0.66797 0 1.2148 0.54688 1.2148 1.2188v23.586c0 0.67187-0.54688 1.2148-1.2148 1.2148z" fill="#211e1e"/><path d="m280.56 247.46c-0.30859 0-0.5625-0.25391-0.5625-0.5625v-23.586c0-0.3125 0.25391-0.5625 0.5625-0.5625h23.59c0.3086 0 0.5586 0.25 0.5586 0.5625v23.586c0 0.30859-0.25 0.5625-0.5586 0.5625z" fill="#fff"/></g><g fill="#211e1e"><path d="m290.37 233.61-2.8633-5.0703v5.0703h-1.1836v-7.4883h1.1836l2.7305 4.7852v-4.7852h1.1836v7.4883z"/><path d="m296.75 227.77c-0.23828-0.39453-0.52734-0.55078-0.97656-0.57813-0.57812-0.0273-0.94922 0.26172-1.2109 0.92188-0.18359 0.44531-0.28906 1.1289-0.28906 1.7578 0 0.78906 0.15625 1.6055 0.44922 2.0781 0.23437 0.39453 0.55078 0.57812 1.0234 0.57812 0.55468 0 0.89843-0.28906 1.1602-0.94922 0.15625-0.39062 0.28907-1.1289 0.28907-1.707 0-0.83984-0.15625-1.6016-0.44532-2.1016m0.8125 5.125c-0.41797 0.57812-1.0273 0.83984-1.8164 0.83984-1.0508 0-1.7109-0.42187-2.1562-1.3398-0.32032-0.62891-0.53125-1.6289-0.53125-2.5234 0-1.2344 0.32031-2.3359 0.82031-3.0469 0.44531-0.57813 1.0508-0.83985 1.9219-0.83985 0.94922 0 1.6055 0.41797 2.082 1.3398 0.3125 0.65625 0.5 1.6016 0.5 2.5469 0 1.1836-0.28907 2.3672-0.82032 3.0234"/><path d="m298.21 244.09-2.2891-4.0547v4.0547h-0.94922v-5.9922h0.94922l2.1836 3.8281v-3.8281h0.94531v5.9922z"/><path d="m289.02 243.19c-0.3125 0.58594-1.0274 1.0078-1.7656 1.0078-0.73437 0-1.4492-0.42187-1.7617-1.0078-0.16796-0.35937-0.27734-0.77734-0.27734-1.2422v-3.8476h0.94922v3.8476c0 0.77735 0.44141 1.2812 1.0898 1.2812 0.65625 0 1.0938-0.5039 1.0938-1.2812v-3.8476h0.94532v3.8476c0 0.46485-0.10157 0.88282-0.27344 1.2422"/><path d="m283.24 238.94v5.1484h-0.95312v-5.1484h-1.3711v-0.84375h3.7148v0.84375z"/><path d="m292.86 239.15c-0.14844-0.0859-0.23437-0.10547-0.55078-0.10547h-1.1328v1.4688h1.1328c0.29688 0 0.40234-0.0195 0.55078-0.10547 0.23047-0.125 0.375-0.37891 0.375-0.62891 0-0.2539-0.14453-0.5039-0.375-0.6289m0.41797 4.9375-0.96875-2.6055h-1.1328v2.6055h-0.94531v-5.9883h1.9766c0.46094 0 0.77734 0.0391 1.0703 0.1875 0.52344 0.25 0.90234 0.88282 0.90234 1.4922 0 0.62891-0.3789 1.2617-0.92187 1.5117l1.0508 2.7969z"/><path d="m303.2 243.73c-0.33594 0.29297-0.80079 0.46093-1.3047 0.46093-1.0274 0-1.7852-0.60937-2.1836-1.5117l0.90235-0.33594c0.2539 0.5664 0.71484 0.88281 1.2812 0.88281 0.54687 0 0.92578-0.37891 0.92578-0.88281 0-0.80078-0.92578-0.92578-1.7031-1.2422-0.35546-0.14844-1.1562-0.50391-1.1562-1.4922 0-1.1758 0.80079-1.6172 1.8711-1.6172 0.84375 0 1.4102 0.48046 1.7031 1.2188l-0.83984 0.25s-0.21094-0.50391-0.88281-0.52344c-0.44141-0.0234-0.96875 0.14453-0.92578 0.6914 0.082 1.1133 2.9023 0.37891 2.9023 2.7344 0 0.54687-0.21094 1.0312-0.58984 1.3672"/></g><g><path d="m1.9336 131.92c-0.99609 0-1.8086-0.8086-1.8086-1.8086v-23.586c0-1 0.8125-1.8125 1.8086-1.8125h23.586c1 0 1.8125 0.8125 1.8125 1.8125v23.586c0 1-0.8125 1.8086-1.8125 1.8086z" fill="#fff"/><path d="m25.52 104.59h-23.586c-1.0664 0-1.9336 0.87109-1.9336 1.9375v23.586c0 1.0664 0.86718 1.9336 1.9336 1.9336h23.586c1.0703 0 1.9375-0.86719 1.9375-1.9336v-23.586c0-1.0664-0.86719-1.9375-1.9375-1.9375m0 0.25c0.92969 0 1.6875 0.76171 1.6875 1.6875v23.586c0 0.92578-0.75781 1.6836-1.6875 1.6836h-23.586c-0.92578 0-1.6836-0.75782-1.6836-1.6836v-23.586c0-0.92579 0.75781-1.6875 1.6836-1.6875h23.586" fill="#211e1e"/><path d="m1.9336 131.33c-0.67187 0-1.2148-0.54687-1.2148-1.2188v-23.586c0-0.67188 0.54297-1.2188 1.2148-1.2188h23.586c0.67187 0 1.2188 0.54687 1.2188 1.2188v23.586c0 0.67188-0.54688 1.2188-1.2188 1.2188z" fill="#211e1e"/><path d="m1.9336 130.68c-0.30859 0-0.5625-0.2539-0.5625-0.5625v-23.586c0-0.3086 0.25391-0.5625 0.5625-0.5625h23.586c0.3125 0 0.5625 0.2539 0.5625 0.5625v23.586c0 0.3086-0.25 0.5625-0.5625 0.5625z" fill="#fff"/></g><g fill="#211e1e"><path d="m11.742 116.82-2.8633-5.0742v5.0742h-1.1836v-7.4883h1.1836l2.7305 4.7812v-4.7812h1.1836v7.4883z"/><path d="m18.129 110.99c-0.23828-0.39062-0.52734-0.55078-0.97656-0.57812-0.57812-0.0234-0.94922 0.26562-1.2109 0.92187-0.18359 0.44532-0.28906 1.1289-0.28906 1.7578 0 0.78906 0.15625 1.6055 0.44531 2.0781 0.23828 0.39453 0.55469 0.57813 1.0312 0.57813 0.55078 0 0.89453-0.28907 1.1562-0.94532 0.15625-0.39453 0.28907-1.1328 0.28907-1.7109 0-0.83985-0.15625-1.6016-0.44532-2.1016m0.81641 5.125c-0.42188 0.57813-1.0273 0.83985-1.8164 0.83985-1.0547 0-1.7148-0.41797-2.1602-1.3398-0.32032-0.6289-0.52735-1.6289-0.52735-2.5234 0-1.2344 0.31641-2.3359 0.81641-3.0469 0.44531-0.57812 1.0508-0.83984 1.9219-0.83984 0.94922 0 1.6055 0.42187 2.082 1.3398 0.3125 0.65625 0.5 1.6016 0.5 2.5469 0 1.1836-0.29297 2.3672-0.81641 3.0234"/><path d="m19.582 127.3-2.293-4.0547v4.0547h-0.94531v-5.9883h0.94531l2.1875 3.8242v-3.8242h0.94531v5.9883z"/><path d="m10.398 126.4c-0.3164 0.58593-1.0312 1.0078-1.7656 1.0078-0.73828 0-1.4531-0.42188-1.7656-1.0078-0.17187-0.35938-0.27343-0.77735-0.27343-1.2422v-3.8438h0.94531v3.8438c0 0.78125 0.44141 1.2852 1.0938 1.2852 0.64844 0 1.0898-0.5039 1.0898-1.2852v-3.8438h0.94922v3.8438c0 0.46484-0.10547 0.88281-0.27344 1.2422"/><path d="m4.6133 122.16v5.1484h-0.94922v-5.1484h-1.3711v-0.83984h3.7148v0.83984z"/><path d="m14.234 122.37c-0.14844-0.0859-0.23437-0.10547-0.55078-0.10547h-1.1328v1.4688h1.1328c0.29688 0 0.40234-0.0195 0.55078-0.10156 0.23047-0.12891 0.375-0.37891 0.375-0.63281 0-0.25-0.14453-0.50391-0.375-0.62891m0.41797 4.9375-0.96875-2.6055h-1.1328v2.6055h-0.94531v-5.9883h1.9766c0.46094 0 0.77734 0.0391 1.0703 0.1875 0.52734 0.2539 0.90234 0.88281 0.90234 1.4922 0 0.63281-0.375 1.2617-0.92187 1.5156l1.0508 2.793z"/><path d="m24.574 126.95c-0.33594 0.29297-0.79688 0.46094-1.3047 0.46094-1.0274 0-1.7852-0.60938-2.1836-1.5117l0.90235-0.33594c0.2539 0.56641 0.71484 0.88281 1.2812 0.88281 0.54687 0 0.92578-0.3789 0.92578-0.88281 0-0.80078-0.92578-0.92578-1.7031-1.2422-0.35546-0.14453-1.1562-0.5039-1.1562-1.4922 0-1.1758 0.80079-1.6172 1.8711-1.6172 0.83984 0 1.4102 0.48437 1.7031 1.2188l-0.83984 0.25s-0.21094-0.50391-0.88281-0.52344c-0.44141-0.0195-0.96875 0.14844-0.92578 0.69141 0.0859 1.1172 2.9023 0.3789 2.9023 2.7344 0 0.54688-0.21094 1.0312-0.58984 1.3672"/></g><path d="m284.49 257.95c-0.6914 0-1.25-0.55859-1.25-1.25v-6.7383c0-0.6875 0.5586-1.2461 1.25-1.2461h15.723c0.6875 0 1.25 0.55859 1.25 1.2461v6.7383c0 0.69141-0.5625 1.25-1.25 1.25z" fill="#fff"/><g fill="#211e1e"><path d="m300.21 248.59h-15.727c-0.75391 0-1.3711 0.61328-1.3711 1.3711v6.7383c0 0.75781 0.61719 1.375 1.3711 1.375h15.727c0.75781 0 1.3711-0.61719 1.3711-1.375v-6.7383c0-0.75781-0.61328-1.3711-1.3711-1.3711m0 0.25c0.61719 0 1.1211 0.5039 1.1211 1.1211v6.7383c0 0.62109-0.5039 1.125-1.1211 1.125h-15.727c-0.61719 0-1.1211-0.50391-1.1211-1.125v-6.7383c0-0.61719 0.50391-1.1211 1.1211-1.1211h15.727"/><path d="m300.59 256.7c0 0.20703-0.16797 0.375-0.375 0.375h-15.727c-0.20313 0-0.3711-0.16797-0.3711-0.375v-6.7383c0-0.20703 0.16797-0.375 0.3711-0.375h15.727c0.20703 0 0.375 0.16797 0.375 0.375zm-0.375-7.582h-15.727c-0.46094 0-0.83985 0.37891-0.83985 0.84375v6.7383c0 0.46484 0.37891 0.84375 0.83985 0.84375h15.727c0.46484 0 0.84375-0.37891 0.84375-0.84375v-6.7383c0-0.46484-0.37891-0.84375-0.84375-0.84375"/><path d="m295.5 250.92c-0.0664-0.0312-0.10547-0.0391-0.21485-0.0391h-0.46484v0.55082h0.46484c0.10938 0 0.14844-8e-3 0.21485-0.0391 0.0781-0.0391 0.13281-0.14453 0.13281-0.23828 0-0.0937-0.0547-0.1875-0.13281-0.23438m0.14843 0.79688c-0.10156 0.0469-0.23828 0.0781-0.41015 0.0781h-0.41797v0.97656h-0.35547v-2.2461h0.77344c0.17969 0 0.29687 0.0156 0.41015 0.0703 0.19532 0.0937 0.34375 0.33203 0.34375 0.5586 0 0.23828-0.14843 0.47265-0.34375 0.5625"/><path d="m297 250.84v1.9297h-0.35547v-1.9297h-0.51563v-0.31641h1.3945v0.31641z"/><path d="m289.93 252.77-0.36328-0.75-0.36328 0.75h-0.40234l0.55859-1.1602-0.51953-1.0859h0.40234l0.32422 0.66797 0.32422-0.66797h0.39844l-0.52734 1.0859 0.5664 1.1602z"/><path d="m287.18 252.77v-2.2461h1.3203v0.35547h-0.96875v0.55078h0.65625v0.36328h-0.65625v0.61328h1.043v0.36328z"/><path d="m292.69 252.77v-2.2461h1.3203v0.35547h-0.96875v0.55078h0.65625v0.36328h-0.65625v0.61328h1.0391v0.36328z"/><path d="m291.52 252.81c-0.32812 0-0.54297-0.125-0.68359-0.40235-0.10156-0.19531-0.16406-0.48047-0.16406-0.76562 0-0.35157 0.0937-0.70703 0.25-0.90625 0.13281-0.16407 0.32421-0.25 0.57812-0.25 0.33594 0 0.55078 0.14062 0.69922 0.45703l-0.32813 0.14062c-0.1289-0.1875-0.19921-0.23437-0.37109-0.23437-0.18359 0-0.30078 0.0781-0.37891 0.27344-0.0547 0.13671-0.0859 0.33203-0.0859 0.51953 0 0.24609 0.0508 0.49218 0.14062 0.63281 0.0781 0.11719 0.17969 0.17187 0.33594 0.17187 0.15234 0 0.26172-0.0781 0.34766-0.25781l0.33984 0.125c-0.13281 0.33203-0.35547 0.4961-0.67969 0.4961"/><path d="m287.41 253.89h0.35937v2.2461h-0.35937z"/><path d="m298.99 256c-0.12891 0.11328-0.30078 0.17578-0.48828 0.17578-0.38672 0-0.67188-0.23047-0.82032-0.57031l0.33985-0.125c0.0937 0.21484 0.26562 0.33203 0.48047 0.33203 0.20312 0 0.34375-0.14063 0.34375-0.33203 0-0.30078-0.34375-0.34766-0.63672-0.46485-0.13281-0.0547-0.4336-0.1875-0.4336-0.55859 0-0.44141 0.30079-0.60938 0.70313-0.60938 0.31641 0 0.52734 0.1836 0.63672 0.45704l-0.3125 0.0976s-0.082-0.1914-0.33203-0.19922c-0.16797-8e-3 -0.36328 0.0547-0.34766 0.26172 0.0312 0.41797 1.0898 0.14063 1.0898 1.0234 0 0.20703-0.082 0.38672-0.22265 0.51172"/><path d="m291.23 255.16v0.98047h-0.35547v-0.98047l-0.79297-1.2656h0.42969l0.53515 0.86328 0.54688-0.86328h0.42187z"/><path d="m296.06 256.14v-2.25h1.3203v0.35547h-0.96875v0.55468h0.65625v0.35938h-0.65625v0.61719h1.043v0.36328z"/><path d="m286.45 255.18c-0.0469-0.0156-0.0703-0.0156-0.14844-0.0156h-0.44922v0.61719h0.53516c0.17968 0 0.27734-0.0859 0.27734-0.26172 0-0.14844-0.0898-0.28907-0.21484-0.33985m-0.0781-0.92968h-0.51956v0.55468h0.42578c0.10156 0 0.14844-0.0195 0.21094-0.0625 0.0781-0.0664 0.1289-0.16015 0.1289-0.26172 0-0.15234-0.0898-0.23046-0.24609-0.23046m0.29297 1.8359c-0.0781 0.0352-0.21484 0.0586-0.31641 0.0586h-0.85156v-2.2461h0.85156c0.35547 0 0.625 0.24219 0.625 0.56641 0 0.21875-0.10547 0.38672-0.3164 0.50391 0.23437 0.10937 0.36718 0.30078 0.36718 0.54296 0 0.2461-0.14843 0.48829-0.35937 0.57422"/><path d="m289.11 256.18c-0.33203 0-0.54688-0.12891-0.6875-0.40234-0.10156-0.19922-0.16406-0.48047-0.16406-0.76563 0-0.35547 0.0937-0.71094 0.25-0.90625 0.13671-0.16406 0.32421-0.25 0.57812-0.25 0.33594 0 0.55078 0.14063 0.69922 0.45703l-0.32813 0.14063c-0.1289-0.19141-0.19921-0.23828-0.37109-0.23828-0.18359 0-0.30078 0.0781-0.37891 0.27734-0.0547 0.13281-0.0859 0.33203-0.0859 0.51953 0 0.24609 0.0547 0.48828 0.14062 0.63281 0.0781 0.11719 0.17969 0.17188 0.33985 0.17188 0.14843 0 0.26171-0.0781 0.34765-0.26172l0.33594 0.12891c-0.13281 0.32812-0.35547 0.49609-0.67578 0.49609"/><path d="m293.16 256.18c-0.33203 0-0.54687-0.12891-0.6875-0.40234-0.10156-0.19922-0.16406-0.48047-0.16406-0.76563 0-0.35547 0.0937-0.71094 0.25-0.90625 0.13672-0.16406 0.32422-0.25 0.57813-0.25 0.33593 0 0.55078 0.14063 0.69921 0.45703l-0.32812 0.14063c-0.12891-0.19141-0.19922-0.23828-0.37109-0.23828-0.1836 0-0.30079 0.0781-0.37891 0.27734-0.0547 0.13281-0.0859 0.33203-0.0859 0.51953 0 0.24609 0.0547 0.48828 0.14063 0.63281 0.0781 0.11719 0.17968 0.17188 0.33984 0.17188 0.14844 0 0.25781-0.0781 0.34766-0.26172l0.33593 0.12891c-0.13281 0.32812-0.35546 0.49609-0.67578 0.49609"/><path d="m294.33 256.14v-2.25h0.35156v1.918h1.043v0.33203z"/></g><path d="m243.12 336.04c-0.6875 0-1.25-0.55859-1.25-1.2461v-11.234c0-0.6875 0.5625-1.25 1.25-1.25h51.668c0.6875 0 1.2461 0.5625 1.2461 1.25v11.234c0 0.6875-0.55859 1.2461-1.2461 1.2461z" fill="#fff"/><g fill="#211e1e"><path d="m294.79 322.19h-51.668c-0.75781 0-1.375 0.61328-1.375 1.3711v11.23c0 0.75781 0.61719 1.375 1.375 1.375h51.668c0.75781 0 1.3711-0.61719 1.3711-1.375v-11.23c0-0.75781-0.61328-1.3711-1.3711-1.3711m0 0.25c0.61719 0 1.1211 0.5 1.1211 1.1211v11.23c0 0.62109-0.5039 1.125-1.1211 1.125h-51.668c-0.62109 0-1.125-0.50391-1.125-1.125v-11.23c0-0.62109 0.50391-1.1211 1.125-1.1211h51.668"/><path d="m295.16 334.79c0 0.20703-0.16797 0.375-0.37109 0.375h-51.668c-0.20703 0-0.375-0.16797-0.375-0.375v-11.23c0-0.20703 0.16797-0.375 0.375-0.375h51.668c0.20312 0 0.37109 0.16797 0.37109 0.375zm-0.37109-12.074h-51.668c-0.46484 0-0.84375 0.37891-0.84375 0.84375v11.23c0 0.46484 0.37891 0.84375 0.84375 0.84375h51.668c0.46484 0 0.83984-0.37891 0.83984-0.84375v-11.23c0-0.46484-0.375-0.84375-0.83984-0.84375"/><path d="m247.26 327.97-0.42188 1.7266h0.86719zm1.0742 4.207-0.41796-1.6406h-1.2891l-0.39843 1.6406h-0.86329l1.4961-5.9922h0.84375l1.4961 5.9922z"/><path d="m250.04 332.17v-5.9883h0.86328v5.1914h2.1914v0.79688z"/><path d="m253.94 332.17v-5.9883h0.86328v5.1914h2.1914v0.79688z"/><path d="m276.76 332.17-1.8477-4.0117v4.0117h-0.85938v-5.9883h0.85938l1.6367 3.5938v-3.5938h0.85937v5.9883z"/><path d="m271.42 327.02h-0.88281v1.5156h0.88281c0.50391 0 0.77344-0.27343 0.77344-0.75781 0-0.46094-0.3125-0.75781-0.77344-0.75781m0.73438 5.1484-0.79688-2.8164h-0.82031v2.8164h-0.85938v-5.9883h1.7812c0.94532 0 1.5742 0.6289 1.5742 1.5976 0 0.71485-0.29297 1.2383-0.85937 1.4492l0.85937 2.9414z"/><path d="m280.13 329.41c-0.25781-0.16797-0.50781-0.33594-0.66797-0.44922-0.48437-0.33984-0.73828-0.79687-0.73828-1.3242 0-0.85937 0.67578-1.5547 1.5391-1.5547 0.84375 0 1.5 0.65234 1.5195 1.5547h-0.82422c-0.0195-0.41796-0.3164-0.6914-0.69531-0.6914-0.40234 0-0.71875 0.29297-0.71875 0.6914 0 0.29688 0.12891 0.46485 0.57031 0.71485 1.1641 0.67187 1.668 1.3242 1.668 2.1875 0 0.96484-0.73828 1.7422-1.668 1.7422-1.0547 0-1.6875-0.88282-1.6875-1.8711h0.84375c0 0.50781 0.25391 1.0312 0.84375 1.0312 0.46485 0 0.84375-0.41797 0.84375-0.90234 0-0.375-0.15234-0.69141-0.82812-1.1289"/><path d="m263.07 326.98v5.1914h-0.86328v-5.1914h-1.0977v-0.79687h3.0586v0.79687z"/><path d="m268.13 331.44c-0.29688 0.48438-0.85938 0.83985-1.4297 0.83985-0.58594 0-1.1719-0.33594-1.4648-0.83985-0.16797-0.3164-0.23047-0.5664-0.23047-1.0508v-4.2031h0.85937v4.3086c0 0.56641 0.33594 0.94531 0.83594 0.94531 0.46485 0 0.80078-0.3789 0.80078-0.94531v-4.3086h0.85938v4.2031c0 0.48438-0.0625 0.73438-0.23047 1.0508"/><path d="m287.29 326.32c-0.0781 0.0117-0.15625 0.0508-0.22265 0.11719-0.16407 0.16406-0.16407 0.42968 0 0.59375 0.0312 0.0312 0.0625 0.0547 0.0976 0.0742l1.2617 0.6875-3.6406 3.6406 1.5898 1.5898 3.6367-3.6406 0.69141 1.2617c0.0195 0.0312 0.043 0.0664 0.0703 0.0937 0.16406 0.16406 0.43359 0.16406 0.59765 0 0.0625-0.0625 0.10157-0.14063 0.11719-0.22266l0.97266-5.1719z"/></g></svg>
