<?xml version="1.0" encoding="UTF-8"?>
<svg width="10.467mm" height="9.1955mm" version="1.1" viewBox="0 0 10.467 9.1955" xmlns="http://www.w3.org/2000/svg">
 <defs>
  <clipPath id="a">
   <path d="m63 409.75h513v334.5h-513z"/>
  </clipPath>
 </defs>
 <g transform="translate(-64.65 -14.814)">
  <g transform="matrix(.35278 0 0 -.35278 -66.79 223.25)">
   <g clip-path="url(#a)">
    <g transform="translate(395.91 588.71)">
     <path d="m0 0c-2.377 0.718-3.922 1.379-5.828 2.144v-7.25c0.683 0.322 3.451 1.426 5.828 2.143 2.543 0.769 4.85 1.295 6.346 1.482-1.496 0.188-3.803 0.713-6.346 1.481" fill="#231f20"/>
    </g>
    <g transform="translate(377.69 571.13)">
     <path d="m0 0c0.719 2.377 1.379 3.922 2.145 5.829h-7.25c0.322-0.682 1.425-3.452 2.142-5.829 0.77-2.542 1.295-4.849 1.483-6.345 0.187 1.496 0.713 3.803 1.48 6.345" fill="#231f20"/>
    </g>
    <g transform="translate(376.83 583.43)">
     <path d="m0 0c1.963 0 3.556 1.592 3.556 3.557s-1.593 3.556-3.556 3.556c-1.965 0-3.557-1.591-3.557-3.556s1.592-3.557 3.557-3.557" fill="#231f20"/>
    </g>
    <g transform="translate(391.5 586.99)">
     <path d="m0 0h-14.666v-14.666" fill="none" stroke="#231f20"/>
    </g>
   </g>
  </g>
 </g>
</svg>
